<?xml version="1.0" encoding="UTF-8" standalone="no"?><svg xmlns="http://www.w3.org/2000/svg" xmlns:xlink="http://www.w3.org/1999/xlink" contentScriptType="application/ecmascript" contentStyleType="text/css" height="214px" preserveAspectRatio="none" style="width:534px;height:214px;background:#222222;" version="1.1" viewBox="0 0 534 214" width="534px" zoomAndPan="magnify"><defs/><g><!--class SmellCode--><rect fill="#222222" height="54.1133" id="SmellCode" style="stroke: #DC143C; stroke-width: 3.0;" width="116" x="6" y="9"/><text fill="#DC143C" font-family="courier" font-size="20" font-weight="bold" lengthAdjust="spacingAndGlyphs" textLength="108" x="10" y="35.1074">SmellCode</text><line style="stroke: #DC143C; stroke-width: 3.0;" x1="7" x2="121" y1="47.1133" y2="47.1133"/><line style="stroke: #DC143C; stroke-width: 3.0;" x1="7" x2="121" y1="55.1133" y2="55.1133"/><!--class Refactoring--><rect fill="#222222" height="54.1133" id="Refactoring" style="stroke: #228B22; stroke-width: 3.0;" width="140" x="157" y="9"/><text fill="#228B22" font-family="courier" font-size="20" font-style="italic" font-weight="bold" lengthAdjust="spacingAndGlyphs" textLength="132" x="161" y="35.1074">Refactoring</text><line style="stroke: #228B22; stroke-width: 3.0;" x1="158" x2="296" y1="47.1133" y2="47.1133"/><line style="stroke: #228B22; stroke-width: 3.0;" x1="158" x2="296" y1="55.1133" y2="55.1133"/><!--class CompositeRefactoring--><rect fill="#222222" height="80.2266" id="CompositeRefactoring" style="stroke: #228B22; stroke-width: 3.0;" width="140" x="69" y="123"/><text fill="#228B22" font-family="courier" font-size="20" font-weight="bold" lengthAdjust="spacingAndGlyphs" textLength="108" x="85" y="149.1074">Composite</text><text fill="#228B22" font-family="courier" font-size="20" font-weight="bold" lengthAdjust="spacingAndGlyphs" textLength="132" x="73" y="175.2207">Refactoring</text><line style="stroke: #228B22; stroke-width: 3.0;" x1="70" x2="208" y1="187.2266" y2="187.2266"/><line style="stroke: #228B22; stroke-width: 3.0;" x1="70" x2="208" y1="195.2266" y2="195.2266"/><!--class SimpleRefactoring--><rect fill="#222222" height="80.2266" id="SimpleRefactoring" style="stroke: #228B22; stroke-width: 3.0;" width="140" x="244" y="123"/><text fill="#228B22" font-family="courier" font-size="20" font-weight="bold" lengthAdjust="spacingAndGlyphs" textLength="72" x="278" y="149.1074">Simple</text><text fill="#228B22" font-family="courier" font-size="20" font-weight="bold" lengthAdjust="spacingAndGlyphs" textLength="132" x="248" y="175.2207">Refactoring</text><line style="stroke: #228B22; stroke-width: 3.0;" x1="245" x2="383" y1="187.2266" y2="187.2266"/><line style="stroke: #228B22; stroke-width: 3.0;" x1="245" x2="383" y1="195.2266" y2="195.2266"/><!--class BabyStep--><rect fill="#222222" height="54.1133" id="BabyStep" style="stroke: #228B22; stroke-width: 3.0;" width="104" x="419" y="136"/><text fill="#228B22" font-family="courier" font-size="20" font-weight="bold" lengthAdjust="spacingAndGlyphs" textLength="96" x="423" y="162.1074">BabyStep</text><line style="stroke: #228B22; stroke-width: 3.0;" x1="420" x2="522" y1="174.1133" y2="174.1133"/><line style="stroke: #228B22; stroke-width: 3.0;" x1="420" x2="522" y1="182.1133" y2="182.1133"/><!--link SmellCode to Refactoring--><path d="M122.26,36 C132.015,36 141.771,36 151.526,36 " fill="none" id="SmellCode-Refactoring" style="stroke: #A9A9A9; stroke-width: 2.0;"/><polygon fill="#A9A9A9" points="156.628,36,147.628,32,151.628,36,147.628,40,156.628,36" style="stroke: #A9A9A9; stroke-width: 2.0;"/><text fill="#A9A9A9" font-family="courier" font-size="20" lengthAdjust="spacingAndGlyphs" textLength="48" x="99.3205" y="16.0645">1..N</text><!--link Refactoring to BabyStep--><path d="M293.929,68.772 C326.726,84.624 366.67,104.3542 402,123 C405.953,125.0863 410.014,127.2711 414.092,129.4959 " fill="none" id="Refactoring-BabyStep" style="stroke: #A9A9A9; stroke-width: 2.0;"/><polygon fill="#A9A9A9" points="425.552,135.8226,419.6061,127.9711,421.1747,133.4061,415.7397,134.9748,425.552,135.8226" style="stroke: #A9A9A9; stroke-width: 2.0;"/><line style="stroke: #A9A9A9; stroke-width: 2.0;" x1="421.1747" x2="414.171" y1="133.4061" y2="129.5398"/><polygon fill="#A9A9A9" points="282.191,63.116,285.86,69.3239,293.0016,68.3248,289.3326,62.1169,282.191,63.116" style="stroke: #A9A9A9; stroke-width: 2.0;"/><text fill="#A9A9A9" font-family="courier" font-size="20" lengthAdjust="spacingAndGlyphs" textLength="48" x="422.6541" y="121.0806">1..N</text><!--link Refactoring to CompositeRefactoring--><path d="M185.443,78.829 C174.611,92.93 163.625,108.6117 154.843,122.5243 " fill="none" id="Refactoring-CompositeRefactoring" style="stroke: #A9A9A9; stroke-width: 2.0;"/><polygon fill="none" points="179.986,74.446,197.947,63.204,190.916,83.193,179.986,74.446" style="stroke: #A9A9A9; stroke-width: 2.0;"/><!--link CompositeRefactoring to Refactoring--><path d="M187.557,111.8662 C196.757,99.482 205.7,86.422 212.942,74.74 " fill="none" id="CompositeRefactoring-Refactoring" style="stroke: #A9A9A9; stroke-width: 2.0;"/><polygon fill="#A9A9A9" points="219.781,63.204,211.7504,68.9058,217.2311,67.5049,218.6319,72.9856,219.781,63.204" style="stroke: #A9A9A9; stroke-width: 2.0;"/><line style="stroke: #A9A9A9; stroke-width: 2.0;" x1="217.2311" x2="213.151" y1="67.5049" y2="74.3865"/><polygon fill="#A9A9A9" points="179.441,122.5243,186.2583,120.1739,186.7107,112.977,179.8934,115.3274,179.441,122.5243" style="stroke: #A9A9A9; stroke-width: 2.0;"/><text fill="#A9A9A9" font-family="courier" font-size="20" lengthAdjust="spacingAndGlyphs" textLength="48" x="164.6393" y="92.1659">1..N</text><!--link Refactoring to SimpleRefactoring--><path d="M256.755,79.751 C266.401,93.611 277.052,108.9141 286.525,122.5243 " fill="none" id="Refactoring-SimpleRefactoring" style="stroke: #A9A9A9; stroke-width: 2.0;"/><polygon fill="none" points="250.918,83.618,245.238,63.204,262.409,75.621,250.918,83.618" style="stroke: #A9A9A9; stroke-width: 2.0;"/><!--
@startuml
skinparam backgroundColor #222222
skinparam shadowing false
skinparam padding 1
hide circle
hide stereotype
skinparam arrow {
    Thickness 2
    Color #DarkGrey
    FontSize 20
    FontName courier
    FontStyle normal
    FontColor #DarkGrey
}
skinparam class {
    BorderThickness 3
    BorderColor<<a>> #DC143C
    BorderColor<<b>> #228B22
    BackgroundColor #222222
    FontSize 20
    FontName courier
    FontStyle bold
    FontColor<<a>> #DC143C
    FontColor<<b>> #228B22
}
skinparam classAttribute {
    FontSize 15
    FontName courier
    FontStyle normal
    FontColor #DarkGrey
}
class SmellCode<<a>>
abstract class Refactoring<<b>>
class "Composite\nRefactoring" as CompositeRefactoring<<b>>
class "Simple\nRefactoring" as SimpleRefactoring<<b>>
class BabyStep<<b>>

SmellCode -right-> "1..N" Refactoring
Refactoring *-down-> "1..N" BabyStep
Refactoring <|-down- CompositeRefactoring
Refactoring <|-down- SimpleRefactoring
CompositeRefactoring *- -> "1..N" Refactoring
@enduml

PlantUML version 1.2019.05(Sat Apr 20 18:45:36 CEST 2019)
(GPL source distribution)
Java Runtime: Java(TM) SE Runtime Environment
JVM: Java HotSpot(TM) 64-Bit Server VM
Java Version: 11.0.8+10-LTS
Operating System: Windows 10
OS Version: 10.0
Default Encoding: windows-1252
Language: es
Country: ES
--></g></svg>