<?xml version="1.0" encoding="UTF-8" standalone="no"?><svg xmlns="http://www.w3.org/2000/svg" xmlns:xlink="http://www.w3.org/1999/xlink" contentScriptType="application/ecmascript" contentStyleType="text/css" height="222px" preserveAspectRatio="none" style="width:393px;height:222px;background:#222222;" version="1.1" viewBox="0 0 393 222" width="393px" zoomAndPan="magnify"><defs/><g><!--class ExtraerClase--><rect fill="#222222" height="54.1133" id="ExtraerClase" style="stroke: #228B22; stroke-width: 3.0;" width="152" x="6" y="93"/><text fill="#228B22" font-family="courier" font-size="20" font-weight="bold" lengthAdjust="spacingAndGlyphs" textLength="144" x="10" y="119.1074">ExtraerClase</text><line style="stroke: #228B22; stroke-width: 3.0;" x1="7" x2="157" y1="131.1133" y2="131.1133"/><line style="stroke: #228B22; stroke-width: 3.0;" x1="7" x2="157" y1="139.1133" y2="139.1133"/><!--class MoverCampo--><rect fill="#222222" height="54.1133" id="MoverCampo" style="stroke: #228B22; stroke-width: 3.0;" width="128" x="248" y="28"/><text fill="#228B22" font-family="courier" font-size="20" font-weight="bold" lengthAdjust="spacingAndGlyphs" textLength="120" x="252" y="54.1074">MoverCampo</text><line style="stroke: #228B22; stroke-width: 3.0;" x1="249" x2="375" y1="66.1133" y2="66.1133"/><line style="stroke: #228B22; stroke-width: 3.0;" x1="249" x2="375" y1="74.1133" y2="74.1133"/><!--class MoverMétodo--><rect fill="#222222" height="54.1133" id="MoverMétodo" style="stroke: #228B22; stroke-width: 3.0;" width="140" x="242" y="157"/><text fill="#228B22" font-family="courier" font-size="20" font-weight="bold" lengthAdjust="spacingAndGlyphs" textLength="132" x="246" y="183.1074">MoverMétodo</text><line style="stroke: #228B22; stroke-width: 3.0;" x1="243" x2="381" y1="195.1133" y2="195.1133"/><line style="stroke: #228B22; stroke-width: 3.0;" x1="243" x2="381" y1="203.1133" y2="203.1133"/><!--link ExtraerClase to MoverCampo--><path d="M171.1,94.88 C192.33,88.83 214.83,82.42 235.43,76.54 " fill="none" id="ExtraerClase-MoverCampo" style="stroke: #A9A9A9; stroke-width: 2.0;"/><polygon fill="#A9A9A9" points="247.98,72.97,238.2278,71.5935,243.172,74.3422,240.4233,79.2863,247.98,72.97" style="stroke: #A9A9A9; stroke-width: 2.0;"/><line style="stroke: #A9A9A9; stroke-width: 2.0;" x1="243.172" x2="235.48" y1="74.3422" y2="76.53"/><polygon fill="#A9A9A9" points="158.29,98.54,165.158,100.7378,169.8283,95.2433,162.9603,93.0456,158.29,98.54" style="stroke: #A9A9A9; stroke-width: 2.0;"/><text fill="#A9A9A9" font-family="courier" font-size="20" lengthAdjust="spacingAndGlyphs" textLength="48" x="191.0517" y="96.9248">1..N</text><!--link ExtraerClase to MoverMétodo--><path d="M170.82,144.65 C190.07,150.05 210.37,155.75 229.37,161.08 " fill="none" id="ExtraerClase-MoverMétodo" style="stroke: #A9A9A9; stroke-width: 2.0;"/><polygon fill="#A9A9A9" points="241.95,164.62,234.3648,158.3379,237.1358,163.2696,232.2041,166.0407,241.95,164.62" style="stroke: #A9A9A9; stroke-width: 2.0;"/><line style="stroke: #A9A9A9; stroke-width: 2.0;" x1="237.1358" x2="229.44" y1="163.2696" y2="161.105"/><polygon fill="#A9A9A9" points="158.29,141.13,162.9851,146.6032,169.8431,144.3744,165.148,138.9011,158.29,141.13" style="stroke: #A9A9A9; stroke-width: 2.0;"/><text fill="#A9A9A9" font-family="courier" font-size="20" lengthAdjust="spacingAndGlyphs" textLength="48" x="185.0787" y="185.2819">1..N</text><!--
@startuml
left to right direction
skinparam backgroundColor #222222
skinparam shadowing false
skinparam padding 1
hide circle
hide stereotype
skinparam arrow {
    Thickness 2
    Color #DarkGrey
    FontSize 20
    FontName courier
    FontStyle normal
    FontColor #DarkGrey
}
skinparam class {
    BorderThickness 3
    BorderColor #228B22
    BackgroundColor #222222
    FontSize 20
    FontName courier
    FontStyle bold
    FontColor #228B22
}
skinparam classAttribute {
    FontSize 15
    FontName courier
    FontStyle normal
    FontColor #DarkGrey
}
class ExtraerClase
class MoverCampo
class MoverMétodo

ExtraerClase *- -> "1..N" MoverCampo
ExtraerClase *- -> "1..N" MoverMétodo
@enduml

PlantUML version 1.2019.05(Sat Apr 20 18:45:36 CEST 2019)
(GPL source distribution)
Java Runtime: Java(TM) SE Runtime Environment
JVM: Java HotSpot(TM) 64-Bit Server VM
Java Version: 11.0.14+8-LTS-263
Operating System: Windows 10
OS Version: 10.0
Default Encoding: windows-1252
Language: es
Country: ES
--></g></svg>