<?xml version="1.0" encoding="UTF-8" standalone="no"?><svg xmlns="http://www.w3.org/2000/svg" xmlns:xlink="http://www.w3.org/1999/xlink" contentScriptType="application/ecmascript" contentStyleType="text/css" height="330px" preserveAspectRatio="none" style="width:339px;height:330px;background:#222222;" version="1.1" viewBox="0 0 339 330" width="339px" zoomAndPan="magnify"><defs/><g><!--class Person--><rect fill="#222222" height="75.6982" id="Person" style="stroke: #A9A9A9; stroke-width: 3.0;" width="109" x="111" y="8"/><text fill="#A9A9A9" font-family="courier" font-size="20" font-weight="bold" lengthAdjust="spacingAndGlyphs" textLength="72" x="129.5" y="34.1074">Person</text><line style="stroke: #A9A9A9; stroke-width: 3.0;" x1="112" x2="219" y1="46.1133" y2="46.1133"/><line style="stroke: #A9A9A9; stroke-width: 3.0;" x1="112" x2="219" y1="54.1133" y2="54.1133"/><ellipse cx="122" cy="70.4058" fill="#84BE84" rx="3" ry="3" style="stroke: #038048; stroke-width: 1.0;"/><text fill="#A9A9A9" font-family="courier" font-size="15" font-style="italic" lengthAdjust="spacingAndGlyphs" textLength="81" x="132" y="74.1938">getCode()</text><!--class Male--><rect fill="#222222" height="75.6982" id="Male" style="stroke: #A9A9A9; stroke-width: 3.0;" width="109" x="33" y="144"/><text fill="#A9A9A9" font-family="courier" font-size="20" font-weight="bold" lengthAdjust="spacingAndGlyphs" textLength="48" x="63.5" y="170.1074">Male</text><line style="stroke: #A9A9A9; stroke-width: 3.0;" x1="34" x2="141" y1="182.1133" y2="182.1133"/><line style="stroke: #A9A9A9; stroke-width: 3.0;" x1="34" x2="141" y1="190.1133" y2="190.1133"/><ellipse cx="44" cy="206.4058" fill="#84BE84" rx="3" ry="3" style="stroke: #038048; stroke-width: 1.0;"/><text fill="#A9A9A9" font-family="courier" font-size="15" lengthAdjust="spacingAndGlyphs" textLength="81" x="54" y="210.1938">getCode()</text><path d="M6,280 L6,318.1133 A0,0 0 0 0 6,318.1133 L149,318.1133 A0,0 0 0 0 149,318.1133 L149,290 L139,280 L83.09,280 L84.28,220.02 L75.09,280 L6,280 A0,0 0 0 0 6,280 " fill="#222222" style="stroke: #A9A9A9; stroke-width: 3.0;"/><path d="M139,280 L139,290 L149,290 L139,280 " fill="#222222" style="stroke: #A9A9A9; stroke-width: 3.0;"/><text fill="#A9A9A9" font-family="courier" font-size="20" lengthAdjust="spacingAndGlyphs" textLength="120" x="13" y="306.1074">return "M"</text><!--class Female--><rect fill="#222222" height="75.6982" id="Female" style="stroke: #A9A9A9; stroke-width: 3.0;" width="95" x="197" y="144"/><text fill="#A9A9A9" font-family="courier" font-size="20" font-weight="bold" lengthAdjust="spacingAndGlyphs" textLength="72" x="208.5" y="170.1074">Female</text><line style="stroke: #A9A9A9; stroke-width: 3.0;" x1="198" x2="291" y1="182.1133" y2="182.1133"/><line style="stroke: #A9A9A9; stroke-width: 3.0;" x1="198" x2="291" y1="190.1133" y2="190.1133"/><text fill="#A9A9A9" font-family="courier" font-size="15" lengthAdjust="spacingAndGlyphs" textLength="81" x="204" y="210.1938">getCode()</text><path d="M184,280 L184,318.1133 A0,0 0 0 0 184,318.1133 L327,318.1133 A0,0 0 0 0 327,318.1133 L327,290 L317,280 L257.75,280 L248.04,220.02 L249.75,280 L184,280 A0,0 0 0 0 184,280 " fill="#222222" style="stroke: #A9A9A9; stroke-width: 3.0;"/><path d="M317,280 L317,290 L327,290 L317,280 " fill="#222222" style="stroke: #A9A9A9; stroke-width: 3.0;"/><text fill="#A9A9A9" font-family="courier" font-size="20" lengthAdjust="spacingAndGlyphs" textLength="120" x="191" y="306.1074">return "F"</text><!--link Person to Male--><path d="M133.67,101.69 C125.41,115.88 116.71,130.82 109.11,143.87 " fill="none" id="Person-Male" style="stroke: #A9A9A9; stroke-width: 2.0;"/><polygon fill="none" points="127.66,98.09,143.77,84.33,139.76,105.13,127.66,98.09" style="stroke: #A9A9A9; stroke-width: 2.0;"/><!--link Person to Female--><path d="M197.74,101.69 C206.11,115.88 214.92,130.82 222.61,143.87 " fill="none" id="Person-Female" style="stroke: #A9A9A9; stroke-width: 2.0;"/><polygon fill="none" points="191.63,105.11,187.51,84.33,203.69,98,191.63,105.11" style="stroke: #A9A9A9; stroke-width: 2.0;"/><!--
@startuml
skinparam backgroundColor #222222
skinparam shadowing false
skinparam padding 1
hide circle
hide stereotype
skinparam arrow {
    Thickness 2
    Color #DarkGrey
    FontSize 20
    FontName courier
    FontStyle normal
    FontColor #DarkGrey
}
skinparam class {
    BorderThickness 3
    BorderColor #DarkGrey
    BackgroundColor #222222
    FontSize 20
    FontName courier
    FontStyle bold
    FontColor #DarkGrey
}
skinparam classAttribute {
    FontSize 15
    FontName courier
    FontStyle normal
    FontColor #DarkGrey
}
skinparam note {
    BorderThickness 3
    BorderColor #DarkGrey
    BackgroundColor #222222
    FontSize 20
    FontName courier
    FontStyle normal
    FontColor #DarkGrey
}

class Person {
+{abstract}getCode()
}
class Male {
+getCode()
}
note bottom
return "M"
end note
class Female {
getCode()
}
note bottom
return "F"
end note

Person <|-down-Male
Person <|-down-Female
@enduml

PlantUML version 1.2019.05(Sat Apr 20 18:45:36 CEST 2019)
(GPL source distribution)
Java Runtime: Java(TM) SE Runtime Environment
JVM: Java HotSpot(TM) 64-Bit Server VM
Java Version: 11.0.14+8-LTS-263
Operating System: Windows 10
OS Version: 10.0
Default Encoding: windows-1252
Language: es
Country: ES
--></g></svg>