<?xml version="1.0" encoding="UTF-8" standalone="no"?><svg xmlns="http://www.w3.org/2000/svg" xmlns:xlink="http://www.w3.org/1999/xlink" contentScriptType="application/ecmascript" contentStyleType="text/css" height="1155px" preserveAspectRatio="none" style="width:627px;height:1155px;background:#222222;" version="1.1" viewBox="0 0 627 1155" width="627px" zoomAndPan="magnify"><defs/><g><!--class Customer--><polygon fill="#222222" points="138,8,138,8.2102,148.1212,7.5857,158.2424,8.1933,168.3636,8.3997,178.4848,7.2866,188.6061,7.9223,198.7273,7.5735,208.8485,7.6165,218.9697,7.9318,229.0909,7.3086,239.2121,8.5536,249.3333,7.3697,259.4545,7.8022,269.5758,8.4319,279.697,7.9142,289.8182,8.0682,299.9394,7.9681,310.0606,8.1785,320.1818,8.2391,330.303,8.5857,340.4242,8.6711,350.5455,8.6793,360.6667,8.2546,370.7879,8.4636,380.9091,8.7022,391.0303,7.2788,401.1515,8.6785,411.2727,7.7035,421.3939,8.5338,431.5152,7.505,441.6364,7.9315,451.7576,8.7416,461.8788,7.9513,472,8,472.1053,8,472.3386,17.8606,472.4162,27.7211,471.9961,37.5817,472.2872,47.4423,471.4276,57.3028,472.2844,67.1634,472.5482,77.0239,472.4445,86.8845,472.613,96.7451,471.5169,106.6056,471.3478,116.4662,471.3786,126.3268,471.9411,136.1873,471.8035,146.0479,472.6814,155.9085,471.8253,165.769,471.6569,175.6296,472.2283,185.4901,471.3332,195.3507,471.4809,205.2113,472.649,215.0718,472.4357,224.9324,472,234.793,472,235.5275,461.8788,234.4712,451.7576,235.1122,441.6364,235.3834,431.5152,234.3206,421.3939,234.6971,411.2727,234.919,401.1515,235.4447,391.0303,234.7888,380.9091,235.2555,370.7879,234.2392,360.6667,234.1157,350.5455,235.2966,340.4242,234.076,330.303,235.3019,320.1818,234.9996,310.0606,234.5251,299.9394,234.4392,289.8182,235.2517,279.697,234.4936,269.5758,235.3848,259.4545,234.2402,249.3333,235.4104,239.2121,235.2773,229.0909,235.0379,218.9697,234.8402,208.8485,235.5196,198.7273,235.4065,188.6061,234.9622,178.4848,235.0612,168.3636,234.6627,158.2424,235.5094,148.1212,234.9478,138,234.793,138.1726,234.793,137.3916,224.9324,137.5948,215.0718,138.5307,205.2113,138.4298,195.3507,137.9571,185.4901,137.6778,175.6296,137.7811,165.769,137.3138,155.9085,138.4147,146.0479,138.7396,136.1873,138.5264,126.3268,138.6949,116.4662,137.8633,106.6056,138.0872,96.7451,137.6124,86.8845,138.284,77.0239,138.2468,67.1634,138.5524,57.3028,137.7703,47.4423,137.8656,37.5817,138.4435,27.7211,138.5673,17.8606,138,8" style="stroke: #A9A9A9; stroke-width: 3.0;"/><text fill="#A9A9A9" font-family="courier" font-size="20" font-weight="bold" lengthAdjust="spacingAndGlyphs" textLength="96" x="257" y="34.1074">Customer</text><path d="M139,46.1133 L139,46.3935 L149.0606,45.5609 L159.1212,46.371 L169.1818,46.6462 L179.2424,45.1621 L189.303,46.0097 L199.3636,45.5446 L209.4242,45.6019 L219.4848,46.0224 L229.5455,45.1915 L239.6061,46.8515 L249.6667,45.2729 L259.7273,45.8496 L269.7879,46.6892 L279.8485,45.9989 L289.9091,46.2043 L299.9697,46.0707 L310.0303,46.3513 L320.0909,46.4321 L330.1515,46.8942 L340.2121,47.008 L350.2727,47.019 L360.3333,46.4528 L370.3939,46.7314 L380.4545,47.0496 L390.5152,45.1517 L400.5758,47.018 L410.6364,45.7179 L420.697,46.825 L430.7576,45.4533 L440.8182,46.0219 L450.8788,47.1021 L460.9394,46.0483 L471,46.1133 " fill="#222222" style="stroke: #A9A9A9; stroke-width: 3.0;"/><polygon fill="none" points="146,59.4058,146,59.4758,147.2,59.2677,148.4,59.4702,149.6,59.539,150.8,59.168,152,59.4058,151.9741,59.4058,151.8578,60.6058,151.8722,61.8058,151.9773,63.0058,151.7695,64.2058,152,65.4058,152,65.5903,150.8,65.1957,149.6,65.3398,148.4,65.5497,147.2,65.3772,146,65.4058,146.0227,65.4058,145.9894,64.2058,146.0595,63.0058,146.0797,61.8058,146.1952,60.6058,146,59.4058" style="stroke: #C82930; stroke-width: 1.0;"/><text fill="#A9A9A9" font-family="courier" font-size="15" lengthAdjust="spacingAndGlyphs" textLength="108" x="159" y="66.1938">String name;</text><polygon fill="none" points="146,80.9907,146,81.0608,147.2,80.8526,148.4,81.0552,149.6,81.1239,150.8,80.7529,152,80.9907,151.9741,80.9907,151.8578,82.1907,151.8722,83.3907,151.9773,84.5907,151.7695,85.7907,152,86.9907,152,87.1753,150.8,86.7806,149.6,86.9248,148.4,87.1347,147.2,86.9621,146,86.9907,146.0227,86.9907,145.9894,85.7907,146.0595,84.5907,146.0797,83.3907,146.1952,82.1907,146,80.9907" style="stroke: #C82930; stroke-width: 1.0;"/><text fill="#A9A9A9" font-family="courier" font-size="15" lengthAdjust="spacingAndGlyphs" textLength="189" x="159" y="87.7788">List&lt;Rental&gt; rentals;</text><path d="M139,97.2832 L139,97.5634 L149.0606,96.7308 L159.1212,97.5409 L169.1818,97.8161 L179.2424,96.332 L189.303,97.1796 L199.3636,96.7145 L209.4242,96.7719 L219.4848,97.1923 L229.5455,96.3614 L239.6061,98.0214 L249.6667,96.4428 L259.7273,97.0195 L269.7879,97.8591 L279.8485,97.1688 L289.9091,97.3742 L299.9697,97.2406 L310.0303,97.5212 L320.0909,97.602 L330.1515,98.0641 L340.2121,98.1779 L350.2727,98.1889 L360.3333,97.6227 L370.3939,97.9013 L380.4545,98.2195 L390.5152,96.3216 L400.5758,98.1879 L410.6364,96.8879 L420.697,97.995 L430.7576,96.6232 L440.8182,97.1919 L450.8788,98.272 L460.9394,97.2182 L471,97.2832 " fill="#222222" style="stroke: #A9A9A9; stroke-width: 3.0;"/><polygon fill="#84BE84" points="152.0166,114.3054,151.5768,114.9063,151.0567,115.7863,150.3128,116.3794,149.5311,116.7038,148.9078,116.7319,148.1067,116.3263,147.3509,116.0613,146.7771,115.5233,146.4762,114.9073,146.2977,114.4169,146.1229,113.7763,145.8391,113.2251,146.0572,112.6869,146.2482,112.0973,146.9653,111.631,147.4697,111.026,148.0941,110.8251,148.8364,110.6521,149.7883,110.7549,150.3097,111.0007,150.9158,111.1122,151.6529,111.8673,151.9098,112.6645,152.0214,113.2084,151.895,114.1047" style="stroke: #038048; stroke-width: 1.0;"/><text fill="#A9A9A9" font-family="courier" font-size="15" lengthAdjust="spacingAndGlyphs" textLength="189" x="159" y="117.3638">Costumer(String name)</text><polygon fill="#84BE84" points="152.0166,135.8904,151.5768,136.4912,151.0567,137.3713,150.3128,137.9644,149.5311,138.2887,148.9078,138.3169,148.1067,137.9112,147.3509,137.6463,146.7771,137.1082,146.4762,136.4923,146.2977,136.0019,146.1229,135.3613,145.8391,134.81,146.0572,134.2718,146.2482,133.6823,146.9653,133.216,147.4697,132.6109,148.0941,132.41,148.8364,132.237,149.7883,132.3398,150.3097,132.5857,150.9158,132.6972,151.6529,133.4523,151.9098,134.2494,152.0214,134.7934,151.895,135.6897" style="stroke: #038048; stroke-width: 1.0;"/><text fill="#A9A9A9" font-family="courier" font-size="15" lengthAdjust="spacingAndGlyphs" textLength="261" x="159" y="138.9487">void addRental(Rental rental)</text><polygon fill="#84BE84" points="152.0166,157.4753,151.5768,158.0762,151.0567,158.9563,150.3128,159.5493,149.5311,159.8737,148.9078,159.9018,148.1067,159.4962,147.3509,159.2312,146.7771,158.6932,146.4762,158.0773,146.2977,157.5868,146.1229,156.9463,145.8391,156.395,146.0572,155.8568,146.2482,155.2672,146.9653,154.8009,147.4697,154.1959,148.0941,153.995,148.8364,153.822,149.7883,153.9248,150.3097,154.1707,150.9158,154.2821,151.6529,155.0372,151.9098,155.8344,152.0214,156.3783,151.895,157.2747" style="stroke: #038048; stroke-width: 1.0;"/><text fill="#A9A9A9" font-family="courier" font-size="15" lengthAdjust="spacingAndGlyphs" textLength="144" x="159" y="160.5337">String getName()</text><polygon fill="#84BE84" points="152.0166,179.0603,151.5768,179.6611,151.0567,180.5412,150.3128,181.1343,149.5311,181.4586,148.9078,181.4868,148.1067,181.0812,147.3509,180.8162,146.7771,180.2782,146.4762,179.6622,146.2977,179.1718,146.1229,178.5312,145.8391,177.98,146.0572,177.4417,146.2482,176.8522,146.9653,176.3859,147.4697,175.7809,148.0941,175.58,148.8364,175.4069,149.7883,175.5097,150.3097,175.7556,150.9158,175.8671,151.6529,176.6222,151.9098,177.4194,152.0214,177.9633,151.895,178.8596" style="stroke: #038048; stroke-width: 1.0;"/><text fill="#A9A9A9" font-family="courier" font-size="15" lengthAdjust="spacingAndGlyphs" textLength="162" x="159" y="182.1187">String statement()</text><polygon fill="#F24D5C" points="146,196.9155,146,196.9856,147.2,196.7774,148.4,196.98,149.6,197.0488,150.8,196.6777,152,196.9155,151.9741,196.9155,151.8578,198.1155,151.8722,199.3155,151.9773,200.5155,151.7695,201.7155,152,202.9155,152,203.1001,150.8,202.7054,149.6,202.8496,148.4,203.0595,147.2,202.8869,146,202.9155,146.0227,202.9155,145.9894,201.7155,146.0595,200.5155,146.0797,199.3155,146.1952,198.1155,146,196.9155" style="stroke: #C82930; stroke-width: 1.0;"/><text fill="#A9A9A9" font-family="courier" font-size="15" lengthAdjust="spacingAndGlyphs" textLength="207" x="159" y="203.7036">double getTotalCharge()</text><polygon fill="#F24D5C" points="146,218.5005,146,218.5705,147.2,218.3624,148.4,218.5649,149.6,218.6337,150.8,218.2627,152,218.5005,151.9741,218.5005,151.8578,219.7005,151.8722,220.9005,151.9773,222.1005,151.7695,223.3005,152,224.5005,152,224.685,150.8,224.2904,149.6,224.4346,148.4,224.6445,147.2,224.4719,146,224.5005,146.0227,224.5005,145.9894,223.3005,146.0595,222.1005,146.0797,220.9005,146.1952,219.7005,146,218.5005" style="stroke: #C82930; stroke-width: 1.0;"/><text fill="#A9A9A9" font-family="courier" font-size="15" lengthAdjust="spacingAndGlyphs" textLength="306" x="159" y="225.2886">int getTotalFrequentRenterPoints()</text><!--class Rental--><polygon fill="#222222" points="133.5,295,133.5,295.2102,143.5882,294.5857,153.6765,295.1933,163.7647,295.3997,173.8529,294.2866,183.9412,294.9223,194.0294,294.5735,204.1176,294.6165,214.2059,294.9318,224.2941,294.3086,234.3824,295.5536,244.4706,294.3697,254.5588,294.8022,264.6471,295.4319,274.7353,294.9142,284.8235,295.0682,294.9118,294.9681,305,295.1785,315.0882,295.2391,325.1765,295.5857,335.2647,295.6711,345.3529,295.6793,355.4412,295.2546,365.5294,295.4636,375.6176,295.7022,385.7059,294.2788,395.7941,295.6785,405.8824,294.7035,415.9706,295.5338,426.0588,294.505,436.1471,294.9315,446.2353,295.7416,456.3235,294.9513,466.4118,295.1053,476.5,295,476.8386,295,476.9162,304.7718,476.4961,314.5436,476.7872,324.3154,475.9276,334.0872,476.7844,343.859,477.0482,353.6309,476.9445,363.4027,477.113,373.1745,476.0169,382.9463,475.8478,392.7181,475.8786,402.4899,476.4411,412.2617,476.3035,422.0335,477.1814,431.8053,476.3253,441.5771,476.1569,451.349,476.7283,461.1208,475.8332,470.8926,475.9809,480.6644,477.149,490.4362,476.5,500.208,476.5,500.6437,466.4118,500.9425,456.3235,499.8862,446.2353,500.5272,436.1471,500.7984,426.0588,499.7356,415.9706,500.1121,405.8824,500.334,395.7941,500.8598,385.7059,500.2038,375.6176,500.6706,365.5294,499.6542,355.4412,499.5308,345.3529,500.7116,335.2647,499.4911,325.1765,500.717,315.0882,500.4146,305,499.9401,294.9118,499.8542,284.8235,500.6668,274.7353,499.9087,264.6471,500.7999,254.5588,499.6553,244.4706,500.8254,234.3824,500.6923,224.2941,500.453,214.2059,500.2552,204.1176,500.9346,194.0294,500.8216,183.9412,500.3773,173.8529,500.4762,163.7647,500.0777,153.6765,500.9245,143.5882,500.3629,133.5,500.208,133.6726,500.208,132.8916,490.4362,133.0948,480.6644,134.0307,470.8926,133.9298,461.1208,133.4571,451.349,133.1778,441.5771,133.2811,431.8053,132.8138,422.0335,133.9147,412.2617,134.2396,402.4899,134.0264,392.7181,134.1949,382.9463,133.3633,373.1745,133.5872,363.4027,133.1124,353.6309,133.784,343.859,133.7468,334.0872,134.0524,324.3154,133.2703,314.5436,133.3656,304.7718,133.5,295" style="stroke: #A9A9A9; stroke-width: 3.0;"/><text fill="#A9A9A9" font-family="courier" font-size="20" font-weight="bold" lengthAdjust="spacingAndGlyphs" textLength="72" x="269" y="321.1074">Rental</text><path d="M134.5,333.1133 L134.5,333.3935 L144.5294,332.5609 L154.5588,333.371 L164.5882,333.6462 L174.6176,332.1621 L184.6471,333.0097 L194.6765,332.5446 L204.7059,332.6019 L214.7353,333.0224 L224.7647,332.1915 L234.7941,333.8515 L244.8235,332.2729 L254.8529,332.8496 L264.8824,333.6892 L274.9118,332.9989 L284.9412,333.2043 L294.9706,333.0707 L305,333.3513 L315.0294,333.4321 L325.0588,333.8942 L335.0882,334.008 L345.1176,334.019 L355.1471,333.4528 L365.1765,333.7314 L375.2059,334.0496 L385.2353,332.1517 L395.2647,334.018 L405.2941,332.7179 L415.3235,333.825 L425.3529,332.4533 L435.3824,333.0219 L445.4118,334.1021 L455.4412,333.0483 L465.4706,333.2537 L475.5,333.1133 " fill="#222222" style="stroke: #A9A9A9; stroke-width: 3.0;"/><polygon fill="none" points="141.5,346.4058,141.5,346.4758,142.7,346.2677,143.9,346.4702,145.1,346.539,146.3,346.168,147.5,346.4058,147.4741,346.4058,147.3578,347.6058,147.3722,348.8058,147.4773,350.0058,147.2695,351.2058,147.5,352.4058,147.5,352.5903,146.3,352.1957,145.1,352.3398,143.9,352.5497,142.7,352.3772,141.5,352.4058,141.5227,352.4058,141.4894,351.2058,141.5595,350.0058,141.5797,348.8058,141.6952,347.6058,141.5,346.4058" style="stroke: #C82930; stroke-width: 1.0;"/><text fill="#A9A9A9" font-family="courier" font-size="15" lengthAdjust="spacingAndGlyphs" textLength="108" x="154.5" y="353.1938">Movie movie;</text><polygon fill="none" points="141.5,367.9907,141.5,368.0608,142.7,367.8526,143.9,368.0552,145.1,368.1239,146.3,367.7529,147.5,367.9907,147.4741,367.9907,147.3578,369.1907,147.3722,370.3907,147.4773,371.5907,147.2695,372.7907,147.5,373.9907,147.5,374.1753,146.3,373.7806,145.1,373.9248,143.9,374.1347,142.7,373.9621,141.5,373.9907,141.5227,373.9907,141.4894,372.7907,141.5595,371.5907,141.5797,370.3907,141.6952,369.1907,141.5,367.9907" style="stroke: #C82930; stroke-width: 1.0;"/><text fill="#A9A9A9" font-family="courier" font-size="15" lengthAdjust="spacingAndGlyphs" textLength="135" x="154.5" y="374.7788">int daysRented;</text><path d="M134.5,384.2832 L134.5,384.5634 L144.5294,383.7308 L154.5588,384.5409 L164.5882,384.8161 L174.6176,383.332 L184.6471,384.1796 L194.6765,383.7145 L204.7059,383.7719 L214.7353,384.1923 L224.7647,383.3614 L234.7941,385.0214 L244.8235,383.4428 L254.8529,384.0195 L264.8824,384.8591 L274.9118,384.1688 L284.9412,384.3742 L294.9706,384.2406 L305,384.5212 L315.0294,384.602 L325.0588,385.0641 L335.0882,385.1779 L345.1176,385.1889 L355.1471,384.6227 L365.1765,384.9013 L375.2059,385.2195 L385.2353,383.3216 L395.2647,385.1879 L405.2941,383.8879 L415.3235,384.995 L425.3529,383.6232 L435.3824,384.1919 L445.4118,385.272 L455.4412,384.2182 L465.4706,384.4236 L475.5,384.2832 " fill="#222222" style="stroke: #A9A9A9; stroke-width: 3.0;"/><polygon fill="#84BE84" points="147.5166,401.3054,147.0768,401.9063,146.5567,402.7863,145.8128,403.3794,145.0311,403.7038,144.4078,403.7319,143.6067,403.3263,142.8509,403.0613,142.2771,402.5233,141.9762,401.9073,141.7977,401.4169,141.6229,400.7763,141.3391,400.2251,141.5572,399.6869,141.7482,399.0973,142.4653,398.631,142.9697,398.026,143.5941,397.8251,144.3364,397.6521,145.2883,397.7549,145.8097,398.0007,146.4158,398.1122,147.1529,398.8673,147.4098,399.6645,147.5214,400.2084,147.395,401.1047" style="stroke: #038048; stroke-width: 1.0;"/><text fill="#A9A9A9" font-family="courier" font-size="15" lengthAdjust="spacingAndGlyphs" textLength="315" x="154.5" y="404.3638">Rental(Movie movie, int daysRented)</text><polygon fill="#84BE84" points="147.5166,422.8904,147.0768,423.4912,146.5567,424.3713,145.8128,424.9644,145.0311,425.2887,144.4078,425.3169,143.6067,424.9112,142.8509,424.6463,142.2771,424.1082,141.9762,423.4923,141.7977,423.0019,141.6229,422.3613,141.3391,421.81,141.5572,421.2718,141.7482,420.6823,142.4653,420.216,142.9697,419.6109,143.5941,419.41,144.3364,419.237,145.2883,419.3398,145.8097,419.5857,146.4158,419.6972,147.1529,420.4523,147.4098,421.2494,147.5214,421.7934,147.395,422.6897" style="stroke: #038048; stroke-width: 1.0;"/><text fill="#A9A9A9" font-family="courier" font-size="15" lengthAdjust="spacingAndGlyphs" textLength="171" x="154.5" y="425.9487">int getDaysRented()</text><polygon fill="#84BE84" points="147.5166,444.4753,147.0768,445.0762,146.5567,445.9563,145.8128,446.5493,145.0311,446.8737,144.4078,446.9018,143.6067,446.4962,142.8509,446.2312,142.2771,445.6932,141.9762,445.0773,141.7977,444.5868,141.6229,443.9463,141.3391,443.395,141.5572,442.8568,141.7482,442.2672,142.4653,441.8009,142.9697,441.1959,143.5941,440.995,144.3364,440.822,145.2883,440.9248,145.8097,441.1707,146.4158,441.2821,147.1529,442.0372,147.4098,442.8344,147.5214,443.3783,147.395,444.2747" style="stroke: #038048; stroke-width: 1.0;"/><text fill="#A9A9A9" font-family="courier" font-size="15" lengthAdjust="spacingAndGlyphs" textLength="144" x="154.5" y="447.5337">Movie getMovie()</text><polygon fill="#84BE84" points="147.5166,466.0603,147.0768,466.6611,146.5567,467.5412,145.8128,468.1343,145.0311,468.4586,144.4078,468.4868,143.6067,468.0812,142.8509,467.8162,142.2771,467.2782,141.9762,466.6622,141.7977,466.1718,141.6229,465.5312,141.3391,464.98,141.5572,464.4417,141.7482,463.8522,142.4653,463.3859,142.9697,462.7809,143.5941,462.58,144.3364,462.4069,145.2883,462.5097,145.8097,462.7556,146.4158,462.8671,147.1529,463.6222,147.4098,464.4194,147.5214,464.9633,147.395,465.8596" style="stroke: #038048; stroke-width: 1.0;"/><text fill="#A9A9A9" font-family="courier" font-size="15" lengthAdjust="spacingAndGlyphs" textLength="162" x="154.5" y="469.1187">double getCharge()</text><polygon fill="#84BE84" points="147.5166,487.6452,147.0768,488.2461,146.5567,489.1262,145.8128,489.7193,145.0311,490.0436,144.4078,490.0718,143.6067,489.6661,142.8509,489.4011,142.2771,488.8631,141.9762,488.2472,141.7977,487.7568,141.6229,487.1162,141.3391,486.5649,141.5572,486.0267,141.7482,485.4371,142.4653,484.9708,142.9697,484.3658,143.5941,484.1649,144.3364,483.9919,145.2883,484.0947,145.8097,484.3406,146.4158,484.452,147.1529,485.2072,147.4098,486.0043,147.5214,486.5483,147.395,487.4446" style="stroke: #038048; stroke-width: 1.0;"/><text fill="#A9A9A9" font-family="courier" font-size="15" lengthAdjust="spacingAndGlyphs" textLength="261" x="154.5" y="490.7036">int getFrequentRenterPoints()</text><!--class Movie--><polygon fill="#222222" points="97.5,560,97.5,560.2102,107.381,559.5857,117.2619,560.1933,127.1429,560.3997,137.0238,559.2866,146.9048,559.9223,156.7857,559.5735,166.6667,559.6165,176.5476,559.9318,186.4286,559.3086,196.3095,560.5536,206.1905,559.3697,216.0714,559.8022,225.9524,560.4319,235.8333,559.9142,245.7143,560.0682,255.5952,559.9681,265.4762,560.1785,275.3571,560.2391,285.2381,560.5857,295.119,560.6711,305,560.6793,314.881,560.2546,324.7619,560.4636,334.6429,560.7022,344.5238,559.2788,354.4048,560.6785,364.2857,559.7035,374.1667,560.5338,384.0476,559.505,393.9286,559.9315,403.8095,560.7416,413.6905,559.9513,423.5714,560.1053,433.4524,560.3386,443.3333,560.4162,453.2143,559.9961,463.0952,560.2872,472.9762,559.4276,482.8571,560.2844,492.7381,560.5482,502.619,560.4445,512.5,560,513.113,560,512.0169,570.0534,511.8478,580.1067,511.8786,590.1601,512.4411,600.2135,512.3035,610.2669,513.1814,620.3202,512.3253,630.3736,512.1569,640.427,512.7283,650.4804,511.8332,660.5337,511.9809,670.5871,513.149,680.6405,512.9357,690.6939,513.2345,700.7472,512.1782,710.8006,512.8192,720.854,513.0904,730.9074,512.0276,740.9607,512.4041,751.0141,512.626,761.0675,513.1518,771.1209,512.4958,781.1742,512.9626,791.2276,511.9462,801.281,511.8227,811.3344,513.0036,821.3877,511.7831,831.4411,513.009,841.4945,512.5,851.5479,512.5,851.7545,502.619,851.2799,492.7381,851.1941,482.8571,852.0066,472.9762,851.2485,463.0952,852.1397,453.2143,850.9951,443.3333,852.1653,433.4524,852.0322,423.5714,851.7928,413.6905,851.5951,403.8095,852.2745,393.9286,852.1614,384.0476,851.7171,374.1667,851.816,364.2857,851.4176,354.4048,852.2643,344.5238,851.7027,334.6429,851.7204,324.7619,850.9395,314.881,851.1426,305,852.0786,295.119,851.9776,285.2381,851.5049,275.3571,851.2257,265.4762,851.3289,255.5952,850.8617,245.7143,851.9626,235.8333,852.2874,225.9524,852.0742,216.0714,852.2428,206.1905,851.4111,196.3095,851.6351,186.4286,851.1603,176.5476,851.8319,166.6667,851.7946,156.7857,852.1002,146.9048,851.3182,137.0238,851.4134,127.1429,851.9913,117.2619,852.1152,107.381,851.0353,97.5,851.5479,97.3061,851.5479,97.6493,841.4945,96.8892,831.4411,97.8534,821.3877,97.758,811.3344,97.3992,801.281,97.6422,791.2276,98.2287,781.1742,97.1871,771.1209,97.815,761.0675,97.7856,751.0141,97.6158,740.9607,97.6409,730.9074,97.6135,720.854,96.8758,710.8006,97.0992,700.7472,97.0385,690.6939,97.5638,680.6405,97.5881,670.5871,97.6617,660.5337,97.209,650.4804,97.4325,640.427,97.3798,630.3736,98.0769,620.3202,97.9266,610.2669,97.0145,600.2135,97.4271,590.1601,96.9228,580.1067,97.7884,570.0534,97.5,560" style="stroke: #A9A9A9; stroke-width: 3.0;"/><text fill="#A9A9A9" font-family="courier" font-size="20" font-weight="bold" lengthAdjust="spacingAndGlyphs" textLength="60" x="275" y="586.1074">Movie</text><path d="M98.5,598.1133 L98.5,598.3935 L108.5732,597.5609 L118.6463,598.371 L128.7195,598.6462 L138.7927,597.1621 L148.8659,598.0097 L158.939,597.5446 L169.0122,597.6019 L179.0854,598.0224 L189.1585,597.1915 L199.2317,598.8515 L209.3049,597.2729 L219.378,597.8496 L229.4512,598.6892 L239.5244,597.9989 L249.5976,598.2043 L259.6707,598.0707 L269.7439,598.3513 L279.8171,598.4321 L289.8902,598.8942 L299.9634,599.008 L310.0366,599.019 L320.1098,598.4528 L330.1829,598.7314 L340.2561,599.0496 L350.3293,597.1517 L360.4024,599.018 L370.4756,597.7179 L380.5488,598.825 L390.622,597.4533 L400.6951,598.0219 L410.7683,599.1021 L420.8415,598.0483 L430.9146,598.2537 L440.9878,598.5648 L451.061,598.6683 L461.1341,598.1081 L471.2073,598.4962 L481.2805,597.3501 L491.3537,598.4925 L501.4268,598.8442 L511.5,598.1133 " fill="#222222" style="stroke: #A9A9A9; stroke-width: 3.0;"/><polygon fill="none" points="111.5166,615.1355,111.0768,615.7363,110.5567,616.6164,109.8128,617.2095,109.0311,617.5338,108.4078,617.562,107.6067,617.1564,106.8509,616.8914,106.2771,616.3534,105.9762,615.7374,105.7977,615.247,105.6229,614.6064,105.3391,614.0552,105.5572,613.5169,105.7482,612.9274,106.4653,612.4611,106.9697,611.8561,107.5941,611.6552,108.3364,611.4821,109.2883,611.5849,109.8097,611.8308,110.4158,611.9423,111.1529,612.6974,111.4098,613.4946,111.5214,614.0385,111.395,614.9348" style="stroke: #038048; stroke-width: 1.0;"/><text fill="#A9A9A9" font-family="courier" font-size="15" lengthAdjust="spacingAndGlyphs" textLength="261" x="118.5" y="618.1938">static final int REGULAR = 0;</text><polygon fill="none" points="111.5166,636.7204,111.0768,637.3213,110.5567,638.2014,109.8128,638.7945,109.0311,639.1188,108.4078,639.1469,107.6067,638.7413,106.8509,638.4763,106.2771,637.9383,105.9762,637.3224,105.7977,636.832,105.6229,636.1914,105.3391,635.6401,105.5572,635.1019,105.7482,634.5123,106.4653,634.046,106.9697,633.441,107.5941,633.2401,108.3364,633.0671,109.2883,633.1699,109.8097,633.4158,110.4158,633.5272,111.1529,634.2824,111.4098,635.0795,111.5214,635.6235,111.395,636.5198" style="stroke: #038048; stroke-width: 1.0;"/><text fill="#A9A9A9" font-family="courier" font-size="15" lengthAdjust="spacingAndGlyphs" textLength="297" x="118.5" y="639.7788">static final int NEW_RELEASE = 1;</text><polygon fill="none" points="111.5166,658.3054,111.0768,658.9063,110.5567,659.7863,109.8128,660.3794,109.0311,660.7038,108.4078,660.7319,107.6067,660.3263,106.8509,660.0613,106.2771,659.5233,105.9762,658.9073,105.7977,658.4169,105.6229,657.7763,105.3391,657.2251,105.5572,656.6869,105.7482,656.0973,106.4653,655.631,106.9697,655.026,107.5941,654.8251,108.3364,654.6521,109.2883,654.7549,109.8097,655.0007,110.4158,655.1122,111.1529,655.8673,111.4098,656.6645,111.5214,657.2084,111.395,658.1047" style="stroke: #038048; stroke-width: 1.0;"/><text fill="#A9A9A9" font-family="courier" font-size="15" lengthAdjust="spacingAndGlyphs" textLength="279" x="118.5" y="661.3638">static final int CHILDRENS = 2;</text><polygon fill="none" points="105.5,676.1606,105.5,676.2307,106.7,676.0225,107.9,676.2251,109.1,676.2939,110.3,675.9228,111.5,676.1606,111.4741,676.1606,111.3578,677.3606,111.3722,678.5606,111.4773,679.7606,111.2695,680.9606,111.5,682.1606,111.5,682.3452,110.3,681.9506,109.1,682.0947,107.9,682.3046,106.7,682.1321,105.5,682.1606,105.5227,682.1606,105.4894,680.9606,105.5595,679.7606,105.5797,678.5606,105.6952,677.3606,105.5,676.1606" style="stroke: #C82930; stroke-width: 1.0;"/><text fill="#A9A9A9" font-family="courier" font-size="15" lengthAdjust="spacingAndGlyphs" textLength="117" x="118.5" y="682.9487">String title;</text><polygon fill="none" points="105.5,697.7456,105.5,697.8157,106.7,697.6075,107.9,697.81,109.1,697.8788,110.3,697.5078,111.5,697.7456,111.4741,697.7456,111.3578,698.9456,111.3722,700.1456,111.4773,701.3456,111.2695,702.5456,111.5,703.7456,111.5,703.9302,110.3,703.5355,109.1,703.6797,107.9,703.8896,106.7,703.717,105.5,703.7456,105.5227,703.7456,105.4894,702.5456,105.5595,701.3456,105.5797,700.1456,105.6952,698.9456,105.5,697.7456" style="stroke: #C82930; stroke-width: 1.0;"/><text fill="#A9A9A9" font-family="courier" font-size="15" lengthAdjust="spacingAndGlyphs" textLength="108" x="118.5" y="704.5337">Price price;</text><path d="M98.5,714.0381 L98.5,714.3183 L108.5732,713.4857 L118.6463,714.2958 L128.7195,714.571 L138.7927,713.0869 L148.8659,713.9345 L158.939,713.4694 L169.0122,713.5268 L179.0854,713.9472 L189.1585,713.1163 L199.2317,714.7763 L209.3049,713.1977 L219.378,713.7744 L229.4512,714.614 L239.5244,713.9237 L249.5976,714.1291 L259.6707,713.9955 L269.7439,714.2761 L279.8171,714.3569 L289.8902,714.819 L299.9634,714.9328 L310.0366,714.9438 L320.1098,714.3776 L330.1829,714.6562 L340.2561,714.9744 L350.3293,713.0765 L360.4024,714.9428 L370.4756,713.6427 L380.5488,714.7498 L390.622,713.3781 L400.6951,713.9468 L410.7683,715.0269 L420.8415,713.9731 L430.9146,714.1785 L440.9878,714.4896 L451.061,714.5931 L461.1341,714.0329 L471.2073,714.421 L481.2805,713.2749 L491.3537,714.4173 L501.4268,714.769 L511.5,714.0381 " fill="#222222" style="stroke: #A9A9A9; stroke-width: 3.0;"/><polygon fill="#84BE84" points="111.5166,731.0603,111.0768,731.6611,110.5567,732.5412,109.8128,733.1343,109.0311,733.4586,108.4078,733.4868,107.6067,733.0812,106.8509,732.8162,106.2771,732.2782,105.9762,731.6622,105.7977,731.1718,105.6229,730.5312,105.3391,729.98,105.5572,729.4417,105.7482,728.8522,106.4653,728.3859,106.9697,727.7809,107.5941,727.58,108.3364,727.4069,109.2883,727.5097,109.8097,727.7556,110.4158,727.8671,111.1529,728.6222,111.4098,729.4194,111.5214,729.9633,111.395,730.8596" style="stroke: #038048; stroke-width: 1.0;"/><text fill="#A9A9A9" font-family="courier" font-size="15" lengthAdjust="spacingAndGlyphs" textLength="306" x="118.5" y="734.1187">Movie(String title, int priceCode)</text><polygon fill="#84BE84" points="111.5166,752.6452,111.0768,753.2461,110.5567,754.1262,109.8128,754.7193,109.0311,755.0436,108.4078,755.0718,107.6067,754.6661,106.8509,754.4011,106.2771,753.8631,105.9762,753.2472,105.7977,752.7568,105.6229,752.1162,105.3391,751.5649,105.5572,751.0267,105.7482,750.4371,106.4653,749.9708,106.9697,749.3658,107.5941,749.1649,108.3364,748.9919,109.2883,749.0947,109.8097,749.3406,110.4158,749.452,111.1529,750.2072,111.4098,751.0043,111.5214,751.5483,111.395,752.4446" style="stroke: #038048; stroke-width: 1.0;"/><text fill="#A9A9A9" font-family="courier" font-size="15" lengthAdjust="spacingAndGlyphs" textLength="288" x="118.5" y="755.7036">double getCharge(int daysRented)</text><polygon fill="#84BE84" points="111.5166,774.2302,111.0768,774.8311,110.5567,775.7111,109.8128,776.3042,109.0311,776.6286,108.4078,776.6567,107.6067,776.2511,106.8509,775.9861,106.2771,775.4481,105.9762,774.8322,105.7977,774.3417,105.6229,773.7011,105.3391,773.1499,105.5572,772.6117,105.7482,772.0221,106.4653,771.5558,106.9697,770.9508,107.5941,770.7499,108.3364,770.5769,109.2883,770.6797,109.8097,770.9255,110.4158,771.037,111.1529,771.7921,111.4098,772.5893,111.5214,773.1332,111.395,774.0295" style="stroke: #038048; stroke-width: 1.0;"/><text fill="#A9A9A9" font-family="courier" font-size="15" lengthAdjust="spacingAndGlyphs" textLength="387" x="118.5" y="777.2886">int getFrequentRenterPoints(int daysRented)</text><polygon fill="#84BE84" points="111.5166,795.8152,111.0768,796.416,110.5567,797.2961,109.8128,797.8892,109.0311,798.2135,108.4078,798.2417,107.6067,797.8361,106.8509,797.5711,106.2771,797.033,105.9762,796.4171,105.7977,795.9267,105.6229,795.2861,105.3391,794.7349,105.5572,794.1966,105.7482,793.6071,106.4653,793.1408,106.9697,792.5357,107.5941,792.3348,108.3364,792.1618,109.2883,792.2646,109.8097,792.5105,110.4158,792.622,111.1529,793.3771,111.4098,794.1743,111.5214,794.7182,111.395,795.6145" style="stroke: #038048; stroke-width: 1.0;"/><text fill="#A9A9A9" font-family="courier" font-size="15" lengthAdjust="spacingAndGlyphs" textLength="162" x="118.5" y="798.8735">int getPriceCode()</text><polygon fill="#84BE84" points="111.5166,817.4001,111.0768,818.001,110.5567,818.8811,109.8128,819.4742,109.0311,819.7985,108.4078,819.8266,107.6067,819.421,106.8509,819.156,106.2771,818.618,105.9762,818.0021,105.7977,817.5116,105.6229,816.8711,105.3391,816.3198,105.5572,815.7816,105.7482,815.192,106.4653,814.7257,106.9697,814.1207,107.5941,813.9198,108.3364,813.7468,109.2883,813.8496,109.8097,814.0955,110.4158,814.2069,111.1529,814.962,111.4098,815.7592,111.5214,816.3031,111.395,817.1995" style="stroke: #038048; stroke-width: 1.0;"/><text fill="#A9A9A9" font-family="courier" font-size="15" lengthAdjust="spacingAndGlyphs" textLength="288" x="118.5" y="820.4585">void setPriceCode(int priceCode)</text><polygon fill="#84BE84" points="111.5166,838.9851,111.0768,839.586,110.5567,840.466,109.8128,841.0591,109.0311,841.3834,108.4078,841.4116,107.6067,841.006,106.8509,840.741,106.2771,840.203,105.9762,839.587,105.7977,839.0966,105.6229,838.456,105.3391,837.9048,105.5572,837.3666,105.7482,836.777,106.4653,836.3107,106.9697,835.7057,107.5941,835.5048,108.3364,835.3317,109.2883,835.4345,109.8097,835.6804,110.4158,835.7919,111.1529,836.547,111.4098,837.3442,111.5214,837.8881,111.395,838.7844" style="stroke: #038048; stroke-width: 1.0;"/><text fill="#A9A9A9" font-family="courier" font-size="15" lengthAdjust="spacingAndGlyphs" textLength="153" x="118.5" y="842.0435">String getTitle()</text><!--class Price--><polygon fill="#222222" points="147,912,147,912.2102,156.875,911.5857,166.75,912.1933,176.625,912.3997,186.5,911.2866,196.375,911.9223,206.25,911.5735,216.125,911.6165,226,911.9318,235.875,911.3086,245.75,912.5536,255.625,911.3697,265.5,911.8022,275.375,912.4319,285.25,911.9142,295.125,912.0682,305,911.9681,314.875,912.1785,324.75,912.2391,334.625,912.5857,344.5,912.6711,354.375,912.6793,364.25,912.2546,374.125,912.4636,384,912.7022,393.875,911.2788,403.75,912.6785,413.625,911.7035,423.5,912.5338,433.375,911.505,443.25,911.9315,453.125,912.7416,463,912,462.9513,912,463.1053,921.7283,463.3386,931.4566,463.4162,941.185,462.9961,950.9133,463.2872,960.6416,462.4276,970.3699,463.2844,980.0982,463.5482,989.8266,463.4445,999.5549,463,1009.2832,463,1009.8962,453.125,1008.8001,443.25,1008.631,433.375,1008.6618,423.5,1009.2243,413.625,1009.0867,403.75,1009.9646,393.875,1009.1085,384,1008.9401,374.125,1009.5115,364.25,1008.6164,354.375,1008.7641,344.5,1009.9322,334.625,1009.7189,324.75,1010.0177,314.875,1008.9614,305,1009.6024,295.125,1009.8736,285.25,1008.8108,275.375,1009.1873,265.5,1009.4092,255.625,1009.935,245.75,1009.279,235.875,1009.7458,226,1008.7294,216.125,1008.6059,206.25,1009.7868,196.375,1008.5663,186.5,1009.7922,176.625,1009.4898,166.75,1009.0153,156.875,1008.9294,147,1009.2832,147.4588,1009.2832,146.7007,999.5549,147.5919,989.8266,146.4473,980.0982,147.6174,970.3699,147.4843,960.6416,147.245,950.9133,147.0472,941.185,147.7266,931.4566,147.6136,921.7283,147,912" style="stroke: #A9A9A9; stroke-width: 3.0;"/><text fill="#A9A9A9" font-family="courier" font-size="20" font-weight="bold" lengthAdjust="spacingAndGlyphs" textLength="60" x="275" y="938.1074">Price</text><path d="M148,950.1133 L148,950.3935 L158.129,949.5609 L168.2581,950.371 L178.3871,950.6462 L188.5161,949.1621 L198.6452,950.0097 L208.7742,949.5446 L218.9032,949.6019 L229.0323,950.0224 L239.1613,949.1915 L249.2903,950.8515 L259.4194,949.2729 L269.5484,949.8496 L279.6774,950.6892 L289.8065,949.9989 L299.9355,950.2043 L310.0645,950.0707 L320.1935,950.3513 L330.3226,950.4321 L340.4516,950.8942 L350.5806,951.008 L360.7097,951.019 L370.8387,950.4528 L380.9677,950.7314 L391.0968,951.0496 L401.2258,949.1517 L411.3548,951.018 L421.4839,949.7179 L431.6129,950.825 L441.7419,949.4533 L451.871,950.0219 L462,950.1133 " fill="#222222" style="stroke: #A9A9A9; stroke-width: 3.0;"/><path d="M148,958.1133 L148,958.3935 L158.129,957.5609 L168.2581,958.371 L178.3871,958.6462 L188.5161,957.1621 L198.6452,958.0097 L208.7742,957.5446 L218.9032,957.6019 L229.0323,958.0224 L239.1613,957.1915 L249.2903,958.8515 L259.4194,957.2729 L269.5484,957.8496 L279.6774,958.6892 L289.8065,957.9989 L299.9355,958.2043 L310.0645,958.0707 L320.1935,958.3513 L330.3226,958.4321 L340.4516,958.8942 L350.5806,959.008 L360.7097,959.019 L370.8387,958.4528 L380.9677,958.7314 L391.0968,959.0496 L401.2258,957.1517 L411.3548,959.018 L421.4839,957.7179 L431.6129,958.825 L441.7419,957.4533 L451.871,958.0219 L462,958.1133 " fill="#222222" style="stroke: #A9A9A9; stroke-width: 3.0;"/><polygon fill="#84BE84" points="161.0166,975.1355,160.5768,975.7363,160.0567,976.6164,159.3128,977.2095,158.5311,977.5338,157.9078,977.562,157.1067,977.1564,156.3509,976.8914,155.7771,976.3534,155.4762,975.7374,155.2977,975.247,155.1229,974.6064,154.8391,974.0552,155.0572,973.5169,155.2482,972.9274,155.9653,972.4611,156.4697,971.8561,157.0941,971.6552,157.8364,971.4821,158.7883,971.5849,159.3097,971.8308,159.9158,971.9423,160.6529,972.6974,160.9098,973.4946,161.0214,974.0385,160.895,974.9348" style="stroke: #038048; stroke-width: 1.0;"/><text fill="#A9A9A9" font-family="courier" font-size="15" lengthAdjust="spacingAndGlyphs" textLength="162" x="168" y="978.1938">int getPriceCode()</text><polygon fill="#84BE84" points="161.0166,996.7204,160.5768,997.3213,160.0567,998.2014,159.3128,998.7945,158.5311,999.1188,157.9078,999.1469,157.1067,998.7413,156.3509,998.4763,155.7771,997.9383,155.4762,997.3224,155.2977,996.832,155.1229,996.1914,154.8391,995.6401,155.0572,995.1019,155.2482,994.5123,155.9653,994.046,156.4697,993.441,157.0941,993.2401,157.8364,993.0671,158.7883,993.1699,159.3097,993.4158,159.9158,993.5272,160.6529,994.2824,160.9098,995.0795,161.0214,995.6235,160.895,996.5198" style="stroke: #038048; stroke-width: 1.0;"/><text fill="#A9A9A9" font-family="courier" font-size="15" lengthAdjust="spacingAndGlyphs" textLength="288" x="168" y="999.7788">double getCharge(int daysRented)</text><!--class RegularPrice--><polygon fill="#222222" points="6,1069,6,1069.2102,15.7778,1068.5857,25.5556,1069.1933,35.3333,1069.3997,45.1111,1068.2866,54.8889,1068.9223,64.6667,1068.5735,74.4444,1068.6165,84.2222,1068.9318,94,1068.3086,103.7778,1069.5536,113.5556,1068.3697,123.3333,1068.8022,133.1111,1069.4319,142.8889,1068.9142,152.6667,1069.0682,162.4444,1068.9681,172.2222,1069.1785,182,1069,182.2391,1069,182.5857,1078.4623,182.6711,1087.9246,182.6793,1097.3868,182.2546,1106.8491,182.4636,1116.3114,182.7022,1125.7737,181.2788,1135.236,182,1144.6982,182,1145.3768,172.2222,1144.4017,162.4444,1145.2321,152.6667,1144.2032,142.8889,1144.6297,133.1111,1145.4398,123.3333,1144.6495,113.5556,1144.8035,103.7778,1145.0369,94,1145.1145,84.2222,1144.6943,74.4444,1144.9855,64.6667,1144.1258,54.8889,1144.9826,45.1111,1145.2464,35.3333,1145.1428,25.5556,1145.3113,15.7778,1144.2152,6,1144.6982,5.3478,1144.6982,5.3786,1135.236,5.9411,1125.7737,5.8035,1116.3114,6.6814,1106.8491,5.8253,1097.3868,5.6569,1087.9246,6.2283,1078.4623,6,1069" style="stroke: #A9A9A9; stroke-width: 3.0;"/><text fill="#A9A9A9" font-family="courier" font-size="20" font-weight="bold" lengthAdjust="spacingAndGlyphs" textLength="144" x="22" y="1095.1074">RegularPrice</text><path d="M7,1107.1133 L7,1107.3935 L17.2353,1106.5609 L27.4706,1107.371 L37.7059,1107.6462 L47.9412,1106.1621 L58.1765,1107.0097 L68.4118,1106.5446 L78.6471,1106.6019 L88.8824,1107.0224 L99.1176,1106.1915 L109.3529,1107.8515 L119.5882,1106.2729 L129.8235,1106.8496 L140.0588,1107.6892 L150.2941,1106.9989 L160.5294,1107.2043 L170.7647,1107.0707 L181,1107.1133 " fill="#222222" style="stroke: #A9A9A9; stroke-width: 3.0;"/><path d="M7,1115.1133 L7,1115.3935 L17.2353,1114.5609 L27.4706,1115.371 L37.7059,1115.6462 L47.9412,1114.1621 L58.1765,1115.0097 L68.4118,1114.5446 L78.6471,1114.6019 L88.8824,1115.0224 L99.1176,1114.1915 L109.3529,1115.8515 L119.5882,1114.2729 L129.8235,1114.8496 L140.0588,1115.6892 L150.2941,1114.9989 L160.5294,1115.2043 L170.7647,1115.0707 L181,1115.1133 " fill="#222222" style="stroke: #A9A9A9; stroke-width: 3.0;"/><text fill="#A9A9A9" font-family="courier" font-size="15" lengthAdjust="spacingAndGlyphs" textLength="162" x="13" y="1135.1938">int getPriceCode()</text><!--class ChildrenPrice--><polygon fill="#222222" points="217,1069,217,1069.2102,226.7778,1068.5857,236.5556,1069.1933,246.3333,1069.3997,256.1111,1068.2866,265.8889,1068.9223,275.6667,1068.5735,285.4444,1068.6165,295.2222,1068.9318,305,1068.3086,314.7778,1069.5536,324.5556,1068.3697,334.3333,1068.8022,344.1111,1069.4319,353.8889,1068.9142,363.6667,1069.0682,373.4444,1068.9681,383.2222,1069.1785,393,1069,393.2391,1069,393.5857,1078.4623,393.6711,1087.9246,393.6793,1097.3868,393.2546,1106.8491,393.4636,1116.3114,393.7022,1125.7737,392.2788,1135.236,393,1144.6982,393,1145.3768,383.2222,1144.4017,373.4444,1145.2321,363.6667,1144.2032,353.8889,1144.6297,344.1111,1145.4398,334.3333,1144.6495,324.5556,1144.8035,314.7778,1145.0369,305,1145.1145,295.2222,1144.6943,285.4444,1144.9855,275.6667,1144.1258,265.8889,1144.9826,256.1111,1145.2464,246.3333,1145.1428,236.5556,1145.3113,226.7778,1144.2152,217,1144.6982,216.3478,1144.6982,216.3786,1135.236,216.9411,1125.7737,216.8035,1116.3114,217.6814,1106.8491,216.8253,1097.3868,216.6569,1087.9246,217.2283,1078.4623,217,1069" style="stroke: #A9A9A9; stroke-width: 3.0;"/><text fill="#A9A9A9" font-family="courier" font-size="20" font-weight="bold" lengthAdjust="spacingAndGlyphs" textLength="156" x="227" y="1095.1074">ChildrenPrice</text><path d="M218,1107.1133 L218,1107.3935 L228.2353,1106.5609 L238.4706,1107.371 L248.7059,1107.6462 L258.9412,1106.1621 L269.1765,1107.0097 L279.4118,1106.5446 L289.6471,1106.6019 L299.8824,1107.0224 L310.1176,1106.1915 L320.3529,1107.8515 L330.5882,1106.2729 L340.8235,1106.8496 L351.0588,1107.6892 L361.2941,1106.9989 L371.5294,1107.2043 L381.7647,1107.0707 L392,1107.1133 " fill="#222222" style="stroke: #A9A9A9; stroke-width: 3.0;"/><path d="M218,1115.1133 L218,1115.3935 L228.2353,1114.5609 L238.4706,1115.371 L248.7059,1115.6462 L258.9412,1114.1621 L269.1765,1115.0097 L279.4118,1114.5446 L289.6471,1114.6019 L299.8824,1115.0224 L310.1176,1114.1915 L320.3529,1115.8515 L330.5882,1114.2729 L340.8235,1114.8496 L351.0588,1115.6892 L361.2941,1114.9989 L371.5294,1115.2043 L381.7647,1115.0707 L392,1115.1133 " fill="#222222" style="stroke: #A9A9A9; stroke-width: 3.0;"/><text fill="#A9A9A9" font-family="courier" font-size="15" lengthAdjust="spacingAndGlyphs" textLength="162" x="224" y="1135.1938">int getPriceCode()</text><!--class NewReleasePrice--><polygon fill="#222222" points="428,1069,428,1069.2102,437.8947,1068.5857,447.7895,1069.1933,457.6842,1069.3997,467.5789,1068.2866,477.4737,1068.9223,487.3684,1068.5735,497.2632,1068.6165,507.1579,1068.9318,517.0526,1068.3086,526.9474,1069.5536,536.8421,1068.3697,546.7368,1068.8022,556.6316,1069.4319,566.5263,1068.9142,576.4211,1069.0682,586.3158,1068.9681,596.2105,1069.1785,606.1053,1069.2391,616,1069,616.5857,1069,616.6711,1078.4623,616.6793,1087.9246,616.2546,1097.3868,616.4636,1106.8491,616.7022,1116.3114,615.2788,1125.7737,616.6785,1135.236,616,1144.6982,616,1144.4017,606.1053,1145.2321,596.2105,1144.2032,586.3158,1144.6297,576.4211,1145.4398,566.5263,1144.6495,556.6316,1144.8035,546.7368,1145.0369,536.8421,1145.1145,526.9474,1144.6943,517.0526,1144.9855,507.1579,1144.1258,497.2632,1144.9826,487.3684,1145.2464,477.4737,1145.1428,467.5789,1145.3113,457.6842,1144.2152,447.7895,1144.0461,437.8947,1144.0768,428,1144.6982,427.9411,1144.6982,427.8035,1135.236,428.6814,1125.7737,427.8253,1116.3114,427.6569,1106.8491,428.2283,1097.3868,427.3332,1087.9246,427.4809,1078.4623,428,1069" style="stroke: #A9A9A9; stroke-width: 3.0;"/><text fill="#A9A9A9" font-family="courier" font-size="20" font-weight="bold" lengthAdjust="spacingAndGlyphs" textLength="180" x="432" y="1095.1074">NewReleasePrice</text><path d="M429,1107.1133 L429,1107.3935 L438.7895,1106.5609 L448.5789,1107.371 L458.3684,1107.6462 L468.1579,1106.1621 L477.9474,1107.0097 L487.7368,1106.5446 L497.5263,1106.6019 L507.3158,1107.0224 L517.1053,1106.1915 L526.8947,1107.8515 L536.6842,1106.2729 L546.4737,1106.8496 L556.2632,1107.6892 L566.0526,1106.9989 L575.8421,1107.2043 L585.6316,1107.0707 L595.4211,1107.3513 L605.2105,1107.4321 L615,1107.1133 " fill="#222222" style="stroke: #A9A9A9; stroke-width: 3.0;"/><path d="M429,1115.1133 L429,1115.3935 L438.7895,1114.5609 L448.5789,1115.371 L458.3684,1115.6462 L468.1579,1114.1621 L477.9474,1115.0097 L487.7368,1114.5446 L497.5263,1114.6019 L507.3158,1115.0224 L517.1053,1114.1915 L526.8947,1115.8515 L536.6842,1114.2729 L546.4737,1114.8496 L556.2632,1115.6892 L566.0526,1114.9989 L575.8421,1115.2043 L585.6316,1115.0707 L595.4211,1115.3513 L605.2105,1115.4321 L615,1115.1133 " fill="#222222" style="stroke: #A9A9A9; stroke-width: 3.0;"/><text fill="#A9A9A9" font-family="courier" font-size="15" lengthAdjust="spacingAndGlyphs" textLength="162" x="435" y="1135.1938">int getPriceCode()</text><!--link Customer to Rental--><path d="M305,248.19 L305.0934,248.19 L304.8159,254.858 L305.0859,261.526 L305.1776,268.194 L304.6829,274.862 L305,281.53 " fill="none" style="stroke: #A9A9A9; stroke-width: 2.0;"/><polygon fill="#A9A9A9" points="305,294.85,305.064,294.8785,305.6738,292.9939,306.6589,291.2762,307.5217,289.5041,307.9827,287.5534,309,285.85,308.9817,285.8317,308.0995,286.5495,307.3096,287.3596,306.5839,288.2339,305.637,288.887,305,289.85,305.1305,289.9805,304.0514,288.9014,303.3534,288.2034,302.7018,287.5518,301.7798,286.6298,301,285.85,301.0208,285.8592,301.7903,287.6457,302.6544,289.4742,303.4728,291.2824,304.3784,293.1293,305,294.85" style="stroke: #A9A9A9; stroke-width: 2.0;"/><path d="M305,289.85 L305.0934,289.85 L304.8159,288.25 L305.0859,286.65 L305.1776,285.05 L304.6829,283.45 L305,281.85 " fill="#A9A9A9" style="stroke: #A9A9A9; stroke-width: 2.0;"/><polygon fill="#222222" points="305,235.13,305.0583,235.1689,304.0851,236.2534,303.4536,237.5657,302.7109,238.8039,301.6021,239.7981,301,241.13,300.9784,241.1156,301.6817,242.2511,302.4936,243.4591,303.3811,244.7174,304.0082,245.8022,305,247.13,305.1536,247.2324,305.6252,245.8135,306.5451,244.6934,307.5198,243.6099,308.1762,242.3141,309,241.13,309.0189,241.1426,308.1911,239.9241,307.4495,238.763,306.6663,237.5742,305.9624,236.4383,305,235.13" style="stroke: #A9A9A9; stroke-width: 2.0;"/><!--link Rental to Movie--><path d="M305,500.13 L305.2802,500.13 L304.4476,511.04 L305.2577,521.95 L305.5329,532.86 L304.0488,543.77 L305,554.68 " fill="none" style="stroke: #A9A9A9; stroke-width: 2.0;"/><polygon fill="#A9A9A9" points="305,559.89,305.064,559.9185,305.6738,558.0339,306.6589,556.3162,307.5217,554.5441,307.9827,552.5934,309,550.89,308.9817,550.8717,308.0995,551.5895,307.3096,552.3996,306.5839,553.2739,305.637,553.927,305,554.89,305.1305,555.0205,304.0514,553.9414,303.3534,553.2434,302.7018,552.5918,301.7798,551.6698,301,550.89,301.0208,550.8992,301.7903,552.6857,302.6544,554.5142,303.4728,556.3224,304.3784,558.1693,305,559.89" style="stroke: #A9A9A9; stroke-width: 2.0;"/><!--link Movie to Price--><path d="M305,865.06 L305.2802,865.06 L304.4476,874.418 L305.2577,883.776 L305.5329,893.134 L304.0488,902.492 L305,911.85 " fill="none" style="stroke: #A9A9A9; stroke-width: 2.0;"/><polygon fill="#A9A9A9" points="305,852.05,305.0583,852.0889,304.0851,853.1734,303.4536,854.4857,302.7109,855.7239,301.6021,856.7181,301,858.05,300.9784,858.0356,301.6817,859.1711,302.4936,860.3791,303.3811,861.6374,304.0082,862.7222,305,864.05,305.1536,864.1524,305.6252,862.7335,306.5451,861.6134,307.5198,860.5299,308.1762,859.2341,309,858.05,309.0189,858.0626,308.1911,856.8441,307.4495,855.683,306.6663,854.4942,305.9624,853.3583,305,852.05" style="stroke: #A9A9A9; stroke-width: 2.0;"/><!--link Price to RegularPrice--><path d="M218.9,1020.46 L219.0584,1020.6912 L210.7145,1025.3964 L203.299,1031.4571 L195.5811,1037.0763 L186.8692,1041.2441 L179.4748,1047.3356 L171.3387,1052.3442 L163.4977,1057.7837 L155.862,1063.5228 L148.04,1068.99 " fill="none" style="stroke: #A9A9A9; stroke-width: 2.0;"/><polygon fill="none" points="215.16,1014.54,215.1783,1014.6076,219.216,1013.3007,223.3608,1012.3902,227.4708,1011.3506,231.466,1009.8864,235.62,1009.01,235.5991,1008.9947,232.9954,1012.3418,230.497,1015.7663,228.0717,1019.2445,225.3943,1022.5375,223.07,1026.09,223.2223,1026.1943,221.3147,1023.6613,219.8516,1021.4328,218.4428,1019.2414,216.7184,1016.8338,215.16,1014.54" style="stroke: #A9A9A9; stroke-width: 2.0;"/><!--link Price to ChildrenPrice--><path d="M305,1029.42 L305.0934,1029.42 L304.8159,1037.308 L305.0859,1045.196 L305.1776,1053.084 L304.6829,1060.972 L305,1068.86 " fill="none" style="stroke: #A9A9A9; stroke-width: 2.0;"/><polygon fill="none" points="298,1029.22,298.0661,1029.2431,299.2696,1025.1744,300.8608,1021.2413,302.3257,1017.264,303.3756,1013.1414,305,1009.22,304.9755,1009.2114,306.2658,1013.173,307.6793,1017.1778,309.1786,1021.2125,310.3825,1025.1439,312,1029.22,312,1029.4045,309.2,1029.0099,306.4,1029.1541,303.6,1029.364,300.8,1029.1914,298,1029.22" style="stroke: #A9A9A9; stroke-width: 2.0;"/><!--link Price to NewReleasePrice--><path d="M393.19,1020.22 L393.3453,1020.4532 L401.0205,1025.1791 L409.6062,1031.2723 L417.8954,1036.9202 L425.2094,1041.1039 L433.8159,1047.2282 L441.6948,1052.26 L449.8632,1057.7266 L458.233,1063.4955 L466.42,1068.99 " fill="none" style="stroke: #A9A9A9; stroke-width: 2.0;"/><polygon fill="none" points="389.12,1025.93,389.1759,1025.9722,386.4558,1022.4628,384.0634,1019.2008,381.5643,1015.8583,378.7142,1012.2507,376.35,1009.01,376.3436,1008.9849,380.4207,1009.9243,384.5303,1010.9902,388.6624,1012.144,392.7168,1012.9948,396.88,1014.27,397.0336,1014.3722,395.1531,1016.4856,393.7211,1018.8975,392.3439,1021.3458,390.6482,1023.5822,389.12,1025.93" style="stroke: #A9A9A9; stroke-width: 2.0;"/><!--
@startuml
skinparam backgroundColor #222222
skinparam handwritten true
hide circle
hide stereotype
skinparam shadowing false
skinparam padding 1
skinparam arrow {
    Thickness 2
    Color #DarkGrey
    FontSize 20
    FontName courier
    FontStyle normal
    FontColor #DarkGrey
}
skinparam class {
    BorderThickness 3
    BorderColor #DarkGrey
    BackgroundColor #222222
    FontSize 20
    FontName courier
    FontStyle bold
    FontColor #DarkGrey
}
skinparam classAttribute {
    FontSize 15
    FontName courier
    FontStyle normal
    FontColor #DarkGrey
}

class Customer {
- String name;
- List<Rental> rentals;
+ Costumer(String name)
+ void addRental(Rental rental)
+ String getName()
+ String statement()
- double getTotalCharge()
- int getTotalFrequentRenterPoints()
}

class Rental {
- Movie movie;
- int daysRented;
+ Rental(Movie movie, int daysRented)
+ int getDaysRented()
+ Movie getMovie()
+ double getCharge()
+ int getFrequentRenterPoints()
}

class Movie {
+ static final int REGULAR = 0;
+ static final int NEW_RELEASE = 1;
+ static final int CHILDRENS = 2;
- String title;
- Price price;
+ Movie(String title, int priceCode)
+ double getCharge(int daysRented)
+ int getFrequentRenterPoints(int daysRented)
+ int getPriceCode()
+ void setPriceCode(int priceCode)
+ String getTitle()
}

class Price {
+ int getPriceCode()
+ double getCharge(int daysRented)
}
class RegularPrice {
int getPriceCode()
}
class ChildrenPrice {
int getPriceCode()
}
class NewReleasePrice {
int getPriceCode()
}

Customer o-down-> Rental
Rental -down-> Movie
Movie *-down- Price
Price <|-down- RegularPrice
Price <|-down- ChildrenPrice
Price <|-down- NewReleasePrice
@enduml

PlantUML version 1.2019.05(Sat Apr 20 18:45:36 CEST 2019)
(GPL source distribution)
Java Runtime: Java(TM) SE Runtime Environment
JVM: Java HotSpot(TM) 64-Bit Server VM
Java Version: 11.0.14+8-LTS-263
Operating System: Windows 10
OS Version: 10.0
Default Encoding: windows-1252
Language: es
Country: ES
--></g></svg>