<?xml version="1.0" encoding="UTF-8" standalone="no"?><svg xmlns="http://www.w3.org/2000/svg" xmlns:xlink="http://www.w3.org/1999/xlink" contentScriptType="application/ecmascript" contentStyleType="text/css" height="776px" preserveAspectRatio="none" style="width:360px;height:776px;background:#222222;" version="1.1" viewBox="0 0 360 776" width="360px" zoomAndPan="magnify"><defs/><g><!--class Customer--><polygon fill="#222222" points="33,8,33,8.2102,42.9655,7.5857,52.931,8.1933,62.8966,8.3997,72.8621,7.2866,82.8276,7.9223,92.7931,7.5735,102.7586,7.6165,112.7241,7.9318,122.6897,7.3086,132.6552,8.5536,142.6207,7.3697,152.5862,7.8022,162.5517,8.4319,172.5172,7.9142,182.4828,8.0682,192.4483,7.9681,202.4138,8.1785,212.3793,8.2391,222.3448,8.5857,232.3103,8.6711,242.2759,8.6793,252.2414,8.2546,262.2069,8.4636,272.1724,8.7022,282.1379,7.2788,292.1034,8.6785,302.069,7.7035,312.0345,8.5338,322,8,321.505,8,321.9315,18.2013,322.7416,28.4026,321.9513,38.6038,322.1053,48.8051,322.3386,59.0064,322.4162,69.2077,321.9961,79.409,322.2872,89.6102,321.4276,99.8115,322.2844,110.0128,322.5482,120.2141,322.4445,130.4154,322.613,140.6166,321.5169,150.8179,321.3478,161.0192,321.3786,171.2205,321.9411,181.4218,322,191.623,322,191.4265,312.0345,192.3045,302.069,191.4484,292.1034,191.28,282.1379,191.8513,272.1724,190.9562,262.2069,191.1039,252.2414,192.272,242.2759,192.0587,232.3103,192.3575,222.3448,191.3013,212.3793,191.9422,202.4138,192.2135,192.4483,191.1506,182.4828,191.5272,172.5172,191.749,162.5517,192.2748,152.5862,191.6189,142.6207,192.0856,132.6552,191.0693,122.6897,190.9458,112.7241,192.1267,102.7586,190.9061,92.7931,192.132,82.8276,191.8297,72.8621,191.3551,62.8966,191.2693,52.931,192.0818,42.9655,191.3237,33,191.623,33.5919,191.623,32.4473,181.4218,33.6174,171.2205,33.4843,161.0192,33.245,150.8179,33.0472,140.6166,33.7266,130.4154,33.6136,120.2141,33.1693,110.0128,33.2682,99.8115,32.8697,89.6102,33.7165,79.409,33.1549,69.2077,33.1726,59.0064,32.3916,48.8051,32.5948,38.6038,33.5307,28.4026,33.4298,18.2013,33,8" style="stroke: #A9A9A9; stroke-width: 3.0;"/><text fill="#A9A9A9" font-family="courier" font-size="20" font-weight="bold" lengthAdjust="spacingAndGlyphs" textLength="96" x="129.5" y="34.1074">Customer</text><path d="M34,46.1133 L34,46.3935 L43.8966,45.5609 L53.7931,46.371 L63.6897,46.6462 L73.5862,45.1621 L83.4828,46.0097 L93.3793,45.5446 L103.2759,45.6019 L113.1724,46.0224 L123.069,45.1915 L132.9655,46.8515 L142.8621,45.2729 L152.7586,45.8496 L162.6552,46.6892 L172.5517,45.9989 L182.4483,46.2043 L192.3448,46.0707 L202.2414,46.3513 L212.1379,46.4321 L222.0345,46.8942 L231.931,47.008 L241.8276,47.019 L251.7241,46.4528 L261.6207,46.7314 L271.5172,47.0496 L281.4138,45.1517 L291.3103,47.018 L301.2069,45.7179 L311.1034,46.825 L321,46.1133 " fill="#222222" style="stroke: #A9A9A9; stroke-width: 3.0;"/><polygon fill="none" points="41,59.4058,41,59.4758,42.2,59.2677,43.4,59.4702,44.6,59.539,45.8,59.168,47,59.4058,46.9741,59.4058,46.8578,60.6058,46.8722,61.8058,46.9773,63.0058,46.7695,64.2058,47,65.4058,47,65.5903,45.8,65.1957,44.6,65.3398,43.4,65.5497,42.2,65.3772,41,65.4058,41.0227,65.4058,40.9894,64.2058,41.0595,63.0058,41.0797,61.8058,41.1952,60.6058,41,59.4058" style="stroke: #C82930; stroke-width: 1.0;"/><text fill="#A9A9A9" font-family="courier" font-size="15" lengthAdjust="spacingAndGlyphs" textLength="108" x="54" y="66.1938">String name;</text><polygon fill="none" points="41,80.9907,41,81.0608,42.2,80.8526,43.4,81.0552,44.6,81.1239,45.8,80.7529,47,80.9907,46.9741,80.9907,46.8578,82.1907,46.8722,83.3907,46.9773,84.5907,46.7695,85.7907,47,86.9907,47,87.1753,45.8,86.7806,44.6,86.9248,43.4,87.1347,42.2,86.9621,41,86.9907,41.0227,86.9907,40.9894,85.7907,41.0595,84.5907,41.0797,83.3907,41.1952,82.1907,41,80.9907" style="stroke: #C82930; stroke-width: 1.0;"/><text fill="#A9A9A9" font-family="courier" font-size="15" lengthAdjust="spacingAndGlyphs" textLength="189" x="54" y="87.7788">List&lt;Rental&gt; rentals;</text><path d="M34,97.2832 L34,97.5634 L43.8966,96.7308 L53.7931,97.5409 L63.6897,97.8161 L73.5862,96.332 L83.4828,97.1796 L93.3793,96.7145 L103.2759,96.7719 L113.1724,97.1923 L123.069,96.3614 L132.9655,98.0214 L142.8621,96.4428 L152.7586,97.0195 L162.6552,97.8591 L172.5517,97.1688 L182.4483,97.3742 L192.3448,97.2406 L202.2414,97.5212 L212.1379,97.602 L222.0345,98.0641 L231.931,98.1779 L241.8276,98.1889 L251.7241,97.6227 L261.6207,97.9013 L271.5172,98.2195 L281.4138,96.3216 L291.3103,98.1879 L301.2069,96.8879 L311.1034,97.995 L321,97.2832 " fill="#222222" style="stroke: #A9A9A9; stroke-width: 3.0;"/><polygon fill="#84BE84" points="47.0166,114.3054,46.5768,114.9063,46.0567,115.7863,45.3128,116.3794,44.5311,116.7038,43.9078,116.7319,43.1067,116.3263,42.3509,116.0613,41.7771,115.5233,41.4762,114.9073,41.2977,114.4169,41.1229,113.7763,40.8391,113.2251,41.0572,112.6869,41.2482,112.0973,41.9653,111.631,42.4697,111.026,43.0941,110.8251,43.8364,110.6521,44.7883,110.7549,45.3097,111.0007,45.9158,111.1122,46.6529,111.8673,46.9098,112.6645,47.0214,113.2084,46.895,114.1047" style="stroke: #038048; stroke-width: 1.0;"/><text fill="#A9A9A9" font-family="courier" font-size="15" lengthAdjust="spacingAndGlyphs" textLength="189" x="54" y="117.3638">Costumer(String name)</text><polygon fill="#84BE84" points="47.0166,135.8904,46.5768,136.4912,46.0567,137.3713,45.3128,137.9644,44.5311,138.2887,43.9078,138.3169,43.1067,137.9112,42.3509,137.6463,41.7771,137.1082,41.4762,136.4923,41.2977,136.0019,41.1229,135.3613,40.8391,134.81,41.0572,134.2718,41.2482,133.6823,41.9653,133.216,42.4697,132.6109,43.0941,132.41,43.8364,132.237,44.7883,132.3398,45.3097,132.5857,45.9158,132.6972,46.6529,133.4523,46.9098,134.2494,47.0214,134.7934,46.895,135.6897" style="stroke: #038048; stroke-width: 1.0;"/><text fill="#A9A9A9" font-family="courier" font-size="15" lengthAdjust="spacingAndGlyphs" textLength="261" x="54" y="138.9487">void addRental(Rental rental)</text><polygon fill="#84BE84" points="47.0166,157.4753,46.5768,158.0762,46.0567,158.9563,45.3128,159.5493,44.5311,159.8737,43.9078,159.9018,43.1067,159.4962,42.3509,159.2312,41.7771,158.6932,41.4762,158.0773,41.2977,157.5868,41.1229,156.9463,40.8391,156.395,41.0572,155.8568,41.2482,155.2672,41.9653,154.8009,42.4697,154.1959,43.0941,153.995,43.8364,153.822,44.7883,153.9248,45.3097,154.1707,45.9158,154.2821,46.6529,155.0372,46.9098,155.8344,47.0214,156.3783,46.895,157.2747" style="stroke: #038048; stroke-width: 1.0;"/><text fill="#A9A9A9" font-family="courier" font-size="15" lengthAdjust="spacingAndGlyphs" textLength="144" x="54" y="160.5337">String getName()</text><polygon fill="#84BE84" points="47.0166,179.0603,46.5768,179.6611,46.0567,180.5412,45.3128,181.1343,44.5311,181.4586,43.9078,181.4868,43.1067,181.0812,42.3509,180.8162,41.7771,180.2782,41.4762,179.6622,41.2977,179.1718,41.1229,178.5312,40.8391,177.98,41.0572,177.4417,41.2482,176.8522,41.9653,176.3859,42.4697,175.7809,43.0941,175.58,43.8364,175.4069,44.7883,175.5097,45.3097,175.7556,45.9158,175.8671,46.6529,176.6222,46.9098,177.4194,47.0214,177.9633,46.895,178.8596" style="stroke: #038048; stroke-width: 1.0;"/><text fill="#A9A9A9" font-family="courier" font-size="15" lengthAdjust="spacingAndGlyphs" textLength="162" x="54" y="182.1187">String statement()</text><!--class Rental--><polygon fill="#222222" points="6,252,6,252.2102,16.0882,251.5857,26.1765,252.1933,36.2647,252.3997,46.3529,251.2866,56.4412,251.9223,66.5294,251.5735,76.6176,251.6165,86.7059,251.9318,96.7941,251.3086,106.8824,252.5536,116.9706,251.3697,127.0588,251.8022,137.1471,252.4319,147.2353,251.9142,157.3235,252.0682,167.4118,251.9681,177.5,252.1785,187.5882,252.2391,197.6765,252.5857,207.7647,252.6711,217.8529,252.6793,227.9412,252.2546,238.0294,252.4636,248.1176,252.7022,258.2059,251.2788,268.2941,252.6785,278.3824,251.7035,288.4706,252.5338,298.5588,251.505,308.6471,251.9315,318.7353,252.7416,328.8235,251.9513,338.9118,252.1053,349,252,349.3386,252,349.4162,261.7718,348.9961,271.5436,349.2872,281.3154,348.4276,291.0872,349.2844,300.859,349.5482,310.6309,349.4445,320.4027,349.613,330.1745,348.5169,339.9463,348.3478,349.7181,348.3786,359.4899,348.9411,369.2617,348.8035,379.0335,349.6814,388.8053,348.8253,398.5771,348.6569,408.349,349.2283,418.1208,348.3332,427.8926,348.4809,437.6644,349.649,447.4362,349,457.208,349,457.6437,338.9118,457.9425,328.8235,456.8862,318.7353,457.5272,308.6471,457.7984,298.5588,456.7356,288.4706,457.1121,278.3824,457.334,268.2941,457.8598,258.2059,457.2038,248.1176,457.6706,238.0294,456.6542,227.9412,456.5308,217.8529,457.7116,207.7647,456.4911,197.6765,457.717,187.5882,457.4146,177.5,456.9401,167.4118,456.8542,157.3235,457.6668,147.2353,456.9087,137.1471,457.7999,127.0588,456.6553,116.9706,457.8254,106.8824,457.6923,96.7941,457.453,86.7059,457.2552,76.6176,457.9346,66.5294,457.8216,56.4412,457.3773,46.3529,457.4762,36.2647,457.0777,26.1765,457.9245,16.0882,457.3629,6,457.208,6.1726,457.208,5.3916,447.4362,5.5948,437.6644,6.5307,427.8926,6.4298,418.1208,5.9571,408.349,5.6778,398.5771,5.7811,388.8053,5.3138,379.0335,6.4147,369.2617,6.7396,359.4899,6.5264,349.7181,6.6949,339.9463,5.8633,330.1745,6.0872,320.4027,5.6124,310.6309,6.284,300.859,6.2468,291.0872,6.5524,281.3154,5.7703,271.5436,5.8656,261.7718,6,252" style="stroke: #A9A9A9; stroke-width: 3.0;"/><text fill="#A9A9A9" font-family="courier" font-size="20" font-weight="bold" lengthAdjust="spacingAndGlyphs" textLength="72" x="141.5" y="278.1074">Rental</text><path d="M7,290.1133 L7,290.3935 L17.0294,289.5609 L27.0588,290.371 L37.0882,290.6462 L47.1176,289.1621 L57.1471,290.0097 L67.1765,289.5446 L77.2059,289.6019 L87.2353,290.0224 L97.2647,289.1915 L107.2941,290.8515 L117.3235,289.2729 L127.3529,289.8496 L137.3824,290.6892 L147.4118,289.9989 L157.4412,290.2043 L167.4706,290.0707 L177.5,290.3513 L187.5294,290.4321 L197.5588,290.8942 L207.5882,291.008 L217.6176,291.019 L227.6471,290.4528 L237.6765,290.7314 L247.7059,291.0496 L257.7353,289.1517 L267.7647,291.018 L277.7941,289.7179 L287.8235,290.825 L297.8529,289.4533 L307.8824,290.0219 L317.9118,291.1021 L327.9412,290.0483 L337.9706,290.2537 L348,290.1133 " fill="#222222" style="stroke: #A9A9A9; stroke-width: 3.0;"/><polygon fill="none" points="14,303.4058,14,303.4758,15.2,303.2677,16.4,303.4702,17.6,303.539,18.8,303.168,20,303.4058,19.9741,303.4058,19.8578,304.6058,19.8722,305.8058,19.9773,307.0058,19.7695,308.2058,20,309.4058,20,309.5903,18.8,309.1957,17.6,309.3398,16.4,309.5497,15.2,309.3772,14,309.4058,14.0227,309.4058,13.9894,308.2058,14.0595,307.0058,14.0797,305.8058,14.1952,304.6058,14,303.4058" style="stroke: #C82930; stroke-width: 1.0;"/><text fill="#A9A9A9" font-family="courier" font-size="15" lengthAdjust="spacingAndGlyphs" textLength="108" x="27" y="310.1938">Movie movie;</text><polygon fill="none" points="14,324.9907,14,325.0608,15.2,324.8526,16.4,325.0552,17.6,325.1239,18.8,324.7529,20,324.9907,19.9741,324.9907,19.8578,326.1907,19.8722,327.3907,19.9773,328.5907,19.7695,329.7907,20,330.9907,20,331.1753,18.8,330.7806,17.6,330.9248,16.4,331.1347,15.2,330.9621,14,330.9907,14.0227,330.9907,13.9894,329.7907,14.0595,328.5907,14.0797,327.3907,14.1952,326.1907,14,324.9907" style="stroke: #C82930; stroke-width: 1.0;"/><text fill="#A9A9A9" font-family="courier" font-size="15" lengthAdjust="spacingAndGlyphs" textLength="135" x="27" y="331.7788">int daysRented;</text><path d="M7,341.2832 L7,341.5634 L17.0294,340.7308 L27.0588,341.5409 L37.0882,341.8161 L47.1176,340.332 L57.1471,341.1796 L67.1765,340.7145 L77.2059,340.7719 L87.2353,341.1923 L97.2647,340.3614 L107.2941,342.0214 L117.3235,340.4428 L127.3529,341.0195 L137.3824,341.8591 L147.4118,341.1688 L157.4412,341.3742 L167.4706,341.2406 L177.5,341.5212 L187.5294,341.602 L197.5588,342.0641 L207.5882,342.1779 L217.6176,342.1889 L227.6471,341.6227 L237.6765,341.9013 L247.7059,342.2195 L257.7353,340.3216 L267.7647,342.1879 L277.7941,340.8879 L287.8235,341.995 L297.8529,340.6232 L307.8824,341.1919 L317.9118,342.272 L327.9412,341.2182 L337.9706,341.4236 L348,341.2832 " fill="#222222" style="stroke: #A9A9A9; stroke-width: 3.0;"/><polygon fill="#84BE84" points="20.0166,358.3054,19.5768,358.9063,19.0567,359.7863,18.3128,360.3794,17.5311,360.7038,16.9078,360.7319,16.1067,360.3263,15.3509,360.0613,14.7771,359.5233,14.4762,358.9073,14.2977,358.4169,14.1229,357.7763,13.8391,357.2251,14.0572,356.6869,14.2482,356.0973,14.9653,355.631,15.4697,355.026,16.0941,354.8251,16.8364,354.6521,17.7883,354.7549,18.3097,355.0007,18.9158,355.1122,19.6529,355.8673,19.9098,356.6645,20.0214,357.2084,19.895,358.1047" style="stroke: #038048; stroke-width: 1.0;"/><text fill="#A9A9A9" font-family="courier" font-size="15" lengthAdjust="spacingAndGlyphs" textLength="315" x="27" y="361.3638">Rental(Movie movie, int daysRented)</text><polygon fill="#84BE84" points="20.0166,379.8904,19.5768,380.4912,19.0567,381.3713,18.3128,381.9644,17.5311,382.2887,16.9078,382.3169,16.1067,381.9112,15.3509,381.6463,14.7771,381.1082,14.4762,380.4923,14.2977,380.0019,14.1229,379.3613,13.8391,378.81,14.0572,378.2718,14.2482,377.6823,14.9653,377.216,15.4697,376.6109,16.0941,376.41,16.8364,376.237,17.7883,376.3398,18.3097,376.5857,18.9158,376.6972,19.6529,377.4523,19.9098,378.2494,20.0214,378.7934,19.895,379.6897" style="stroke: #038048; stroke-width: 1.0;"/><text fill="#A9A9A9" font-family="courier" font-size="15" lengthAdjust="spacingAndGlyphs" textLength="171" x="27" y="382.9487">int getDaysRented()</text><polygon fill="#84BE84" points="20.0166,401.4753,19.5768,402.0762,19.0567,402.9563,18.3128,403.5493,17.5311,403.8737,16.9078,403.9018,16.1067,403.4962,15.3509,403.2312,14.7771,402.6932,14.4762,402.0773,14.2977,401.5868,14.1229,400.9463,13.8391,400.395,14.0572,399.8568,14.2482,399.2672,14.9653,398.8009,15.4697,398.1959,16.0941,397.995,16.8364,397.822,17.7883,397.9248,18.3097,398.1707,18.9158,398.2821,19.6529,399.0372,19.9098,399.8344,20.0214,400.3783,19.895,401.2747" style="stroke: #038048; stroke-width: 1.0;"/><text fill="#A9A9A9" font-family="courier" font-size="15" lengthAdjust="spacingAndGlyphs" textLength="144" x="27" y="404.5337">Movie getMovie()</text><polygon fill="#84BE84" points="20.0166,423.0603,19.5768,423.6611,19.0567,424.5412,18.3128,425.1343,17.5311,425.4586,16.9078,425.4868,16.1067,425.0812,15.3509,424.8162,14.7771,424.2782,14.4762,423.6622,14.2977,423.1718,14.1229,422.5312,13.8391,421.98,14.0572,421.4417,14.2482,420.8522,14.9653,420.3859,15.4697,419.7809,16.0941,419.58,16.8364,419.4069,17.7883,419.5097,18.3097,419.7556,18.9158,419.8671,19.6529,420.6222,19.9098,421.4194,20.0214,421.9633,19.895,422.8596" style="stroke: #038048; stroke-width: 1.0;"/><text fill="#A9A9A9" font-family="courier" font-size="15" lengthAdjust="spacingAndGlyphs" textLength="162" x="27" y="426.1187">double getCharge()</text><polygon fill="#84BE84" points="20.0166,444.6452,19.5768,445.2461,19.0567,446.1262,18.3128,446.7193,17.5311,447.0436,16.9078,447.0718,16.1067,446.6661,15.3509,446.4011,14.7771,445.8631,14.4762,445.2472,14.2977,444.7568,14.1229,444.1162,13.8391,443.5649,14.0572,443.0267,14.2482,442.4371,14.9653,441.9708,15.4697,441.3658,16.0941,441.1649,16.8364,440.9919,17.7883,441.0947,18.3097,441.3406,18.9158,441.452,19.6529,442.2072,19.9098,443.0043,20.0214,443.5483,19.895,444.4446" style="stroke: #038048; stroke-width: 1.0;"/><text fill="#A9A9A9" font-family="courier" font-size="15" lengthAdjust="spacingAndGlyphs" textLength="261" x="27" y="447.7036">int getFrequentRenterPoints()</text><!--class Movie--><polygon fill="#222222" points="10.5,517,10.5,517.2102,20.6212,516.5857,30.7424,517.1933,40.8636,517.3997,50.9848,516.2866,61.1061,516.9223,71.2273,516.5735,81.3485,516.6165,91.4697,516.9318,101.5909,516.3086,111.7121,517.5536,121.8333,516.3697,131.9545,516.8022,142.0758,517.4319,152.197,516.9142,162.3182,517.0682,172.4394,516.9681,182.5606,517.1785,192.6818,517.2391,202.803,517.5857,212.9242,517.6711,223.0455,517.6793,233.1667,517.2546,243.2879,517.4636,253.4091,517.7022,263.5303,516.2788,273.6515,517.6785,283.7727,516.7035,293.8939,517.5338,304.0152,516.505,314.1364,516.9315,324.2576,517.7416,334.3788,516.9513,344.5,517,344.6053,517,344.8386,526.9351,344.9162,536.8702,344.4961,546.8054,344.7872,556.7405,343.9276,566.6756,344.7844,576.6107,345.0482,586.5458,344.9445,596.4809,345.113,606.4161,344.0169,616.3512,343.8478,626.2863,343.8786,636.2214,344.4411,646.1565,344.3035,656.0916,345.1814,666.0268,344.3253,675.9619,344.1569,685.897,344.7283,695.8321,343.8332,705.7672,343.9809,715.7023,345.149,725.6375,344.9357,735.5726,345.2345,745.5077,344.1782,755.4428,344.5,765.3779,344.5,765.6971,334.3788,765.9683,324.2576,764.9055,314.1364,765.2821,304.0152,765.5039,293.8939,766.0297,283.7727,765.3737,273.6515,765.8405,263.5303,764.8241,253.4091,764.7007,243.2879,765.8815,233.1667,764.661,223.0455,765.8869,212.9242,765.5846,202.803,765.11,192.6818,765.0242,182.5606,765.8367,172.4394,765.0786,162.3182,765.9698,152.197,764.8252,142.0758,765.9954,131.9545,765.8622,121.8333,765.6229,111.7121,765.4251,101.5909,766.1045,91.4697,765.9915,81.3485,765.5472,71.2273,765.6461,61.1061,765.2477,50.9848,766.0944,40.8636,765.5328,30.7424,765.5505,20.6212,764.7696,10.5,765.3779,10.0948,765.3779,11.0307,755.4428,10.9298,745.5077,10.4571,735.5726,10.1778,725.6375,10.2811,715.7023,9.8138,705.7672,10.9147,695.8321,11.2396,685.897,11.0264,675.9619,11.1949,666.0268,10.3633,656.0916,10.5872,646.1565,10.1124,636.2214,10.784,626.2863,10.7468,616.3512,11.0524,606.4161,10.2703,596.4809,10.3656,586.5458,10.9435,576.6107,11.0673,566.6756,9.9875,556.7405,10.3061,546.8054,10.6493,536.8702,9.8892,526.9351,10.5,517" style="stroke: #A9A9A9; stroke-width: 3.0;"/><text fill="#A9A9A9" font-family="courier" font-size="20" font-weight="bold" lengthAdjust="spacingAndGlyphs" textLength="60" x="147.5" y="543.1074">Movie</text><path d="M11.5,555.1133 L11.5,555.3935 L21.5606,554.5609 L31.6212,555.371 L41.6818,555.6462 L51.7424,554.1621 L61.803,555.0097 L71.8636,554.5446 L81.9242,554.6019 L91.9848,555.0224 L102.0455,554.1915 L112.1061,555.8515 L122.1667,554.2729 L132.2273,554.8496 L142.2879,555.6892 L152.3485,554.9989 L162.4091,555.2043 L172.4697,555.0707 L182.5303,555.3513 L192.5909,555.4321 L202.6515,555.8942 L212.7121,556.008 L222.7727,556.019 L232.8333,555.4528 L242.8939,555.7314 L252.9545,556.0496 L263.0152,554.1517 L273.0758,556.018 L283.1364,554.7179 L293.197,555.825 L303.2576,554.4533 L313.3182,555.0219 L323.3788,556.1021 L333.4394,555.0483 L343.5,555.1133 " fill="#222222" style="stroke: #A9A9A9; stroke-width: 3.0;"/><polygon fill="none" points="24.5166,572.1355,24.0768,572.7363,23.5567,573.6164,22.8128,574.2095,22.0311,574.5338,21.4078,574.562,20.6067,574.1564,19.8509,573.8914,19.2771,573.3534,18.9762,572.7374,18.7977,572.247,18.6229,571.6064,18.3391,571.0552,18.5572,570.5169,18.7482,569.9274,19.4653,569.4611,19.9697,568.8561,20.5941,568.6552,21.3364,568.4821,22.2883,568.5849,22.8097,568.8308,23.4158,568.9423,24.1529,569.6974,24.4098,570.4946,24.5214,571.0385,24.395,571.9348" style="stroke: #038048; stroke-width: 1.0;"/><text fill="#A9A9A9" font-family="courier" font-size="15" lengthAdjust="spacingAndGlyphs" textLength="261" x="31.5" y="575.1938">static final int REGULAR = 0;</text><polygon fill="none" points="24.5166,593.7204,24.0768,594.3213,23.5567,595.2014,22.8128,595.7945,22.0311,596.1188,21.4078,596.1469,20.6067,595.7413,19.8509,595.4763,19.2771,594.9383,18.9762,594.3224,18.7977,593.832,18.6229,593.1914,18.3391,592.6401,18.5572,592.1019,18.7482,591.5123,19.4653,591.046,19.9697,590.441,20.5941,590.2401,21.3364,590.0671,22.2883,590.1699,22.8097,590.4158,23.4158,590.5272,24.1529,591.2824,24.4098,592.0795,24.5214,592.6235,24.395,593.5198" style="stroke: #038048; stroke-width: 1.0;"/><text fill="#A9A9A9" font-family="courier" font-size="15" lengthAdjust="spacingAndGlyphs" textLength="297" x="31.5" y="596.7788">static final int NEW_RELEASE = 1;</text><polygon fill="none" points="24.5166,615.3054,24.0768,615.9063,23.5567,616.7863,22.8128,617.3794,22.0311,617.7038,21.4078,617.7319,20.6067,617.3263,19.8509,617.0613,19.2771,616.5233,18.9762,615.9073,18.7977,615.4169,18.6229,614.7763,18.3391,614.2251,18.5572,613.6869,18.7482,613.0973,19.4653,612.631,19.9697,612.026,20.5941,611.8251,21.3364,611.6521,22.2883,611.7549,22.8097,612.0007,23.4158,612.1122,24.1529,612.8673,24.4098,613.6645,24.5214,614.2084,24.395,615.1047" style="stroke: #038048; stroke-width: 1.0;"/><text fill="#A9A9A9" font-family="courier" font-size="15" lengthAdjust="spacingAndGlyphs" textLength="279" x="31.5" y="618.3638">static final int CHILDRENS = 2;</text><polygon fill="none" points="18.5,633.1606,18.5,633.2307,19.7,633.0225,20.9,633.2251,22.1,633.2939,23.3,632.9228,24.5,633.1606,24.4741,633.1606,24.3578,634.3606,24.3722,635.5606,24.4773,636.7606,24.2695,637.9606,24.5,639.1606,24.5,639.3452,23.3,638.9506,22.1,639.0947,20.9,639.3046,19.7,639.1321,18.5,639.1606,18.5227,639.1606,18.4894,637.9606,18.5595,636.7606,18.5797,635.5606,18.6952,634.3606,18.5,633.1606" style="stroke: #C82930; stroke-width: 1.0;"/><text fill="#A9A9A9" font-family="courier" font-size="15" lengthAdjust="spacingAndGlyphs" textLength="117" x="31.5" y="639.9487">String title;</text><polygon fill="none" points="18.5,654.7456,18.5,654.8157,19.7,654.6075,20.9,654.81,22.1,654.8788,23.3,654.5078,24.5,654.7456,24.4741,654.7456,24.3578,655.9456,24.3722,657.1456,24.4773,658.3456,24.2695,659.5456,24.5,660.7456,24.5,660.9302,23.3,660.5355,22.1,660.6797,20.9,660.8896,19.7,660.717,18.5,660.7456,18.5227,660.7456,18.4894,659.5456,18.5595,658.3456,18.5797,657.1456,18.6952,655.9456,18.5,654.7456" style="stroke: #C82930; stroke-width: 1.0;"/><text fill="#A9A9A9" font-family="courier" font-size="15" lengthAdjust="spacingAndGlyphs" textLength="126" x="31.5" y="661.5337">int priceCode;</text><path d="M11.5,671.0381 L11.5,671.3183 L21.5606,670.4857 L31.6212,671.2958 L41.6818,671.571 L51.7424,670.0869 L61.803,670.9345 L71.8636,670.4694 L81.9242,670.5268 L91.9848,670.9472 L102.0455,670.1163 L112.1061,671.7763 L122.1667,670.1977 L132.2273,670.7744 L142.2879,671.614 L152.3485,670.9237 L162.4091,671.1291 L172.4697,670.9955 L182.5303,671.2761 L192.5909,671.3569 L202.6515,671.819 L212.7121,671.9328 L222.7727,671.9438 L232.8333,671.3776 L242.8939,671.6562 L252.9545,671.9744 L263.0152,670.0765 L273.0758,671.9428 L283.1364,670.6427 L293.197,671.7498 L303.2576,670.3781 L313.3182,670.9468 L323.3788,672.0269 L333.4394,670.9731 L343.5,671.0381 " fill="#222222" style="stroke: #A9A9A9; stroke-width: 3.0;"/><polygon fill="#84BE84" points="24.5166,688.0603,24.0768,688.6611,23.5567,689.5412,22.8128,690.1343,22.0311,690.4586,21.4078,690.4868,20.6067,690.0812,19.8509,689.8162,19.2771,689.2782,18.9762,688.6622,18.7977,688.1718,18.6229,687.5312,18.3391,686.98,18.5572,686.4417,18.7482,685.8522,19.4653,685.3859,19.9697,684.7809,20.5941,684.58,21.3364,684.4069,22.2883,684.5097,22.8097,684.7556,23.4158,684.8671,24.1529,685.6222,24.4098,686.4194,24.5214,686.9633,24.395,687.8596" style="stroke: #038048; stroke-width: 1.0;"/><text fill="#A9A9A9" font-family="courier" font-size="15" lengthAdjust="spacingAndGlyphs" textLength="306" x="31.5" y="691.1187">Movie(String title, int priceCode)</text><polygon fill="#84BE84" points="24.5166,709.6452,24.0768,710.2461,23.5567,711.1262,22.8128,711.7193,22.0311,712.0436,21.4078,712.0718,20.6067,711.6661,19.8509,711.4011,19.2771,710.8631,18.9762,710.2472,18.7977,709.7568,18.6229,709.1162,18.3391,708.5649,18.5572,708.0267,18.7482,707.4371,19.4653,706.9708,19.9697,706.3658,20.5941,706.1649,21.3364,705.9919,22.2883,706.0947,22.8097,706.3406,23.4158,706.452,24.1529,707.2072,24.4098,708.0043,24.5214,708.5483,24.395,709.4446" style="stroke: #038048; stroke-width: 1.0;"/><text fill="#A9A9A9" font-family="courier" font-size="15" lengthAdjust="spacingAndGlyphs" textLength="162" x="31.5" y="712.7036">int getPriceCode()</text><polygon fill="#84BE84" points="24.5166,731.2302,24.0768,731.8311,23.5567,732.7111,22.8128,733.3042,22.0311,733.6286,21.4078,733.6567,20.6067,733.2511,19.8509,732.9861,19.2771,732.4481,18.9762,731.8322,18.7977,731.3417,18.6229,730.7011,18.3391,730.1499,18.5572,729.6117,18.7482,729.0221,19.4653,728.5558,19.9697,727.9508,20.5941,727.7499,21.3364,727.5769,22.2883,727.6797,22.8097,727.9255,23.4158,728.037,24.1529,728.7921,24.4098,729.5893,24.5214,730.1332,24.395,731.0295" style="stroke: #038048; stroke-width: 1.0;"/><text fill="#A9A9A9" font-family="courier" font-size="15" lengthAdjust="spacingAndGlyphs" textLength="288" x="31.5" y="734.2886">void setPriceCode(int priceCode)</text><polygon fill="#84BE84" points="24.5166,752.8152,24.0768,753.416,23.5567,754.2961,22.8128,754.8892,22.0311,755.2135,21.4078,755.2417,20.6067,754.8361,19.8509,754.5711,19.2771,754.033,18.9762,753.4171,18.7977,752.9267,18.6229,752.2861,18.3391,751.7349,18.5572,751.1966,18.7482,750.6071,19.4653,750.1408,19.9697,749.5357,20.5941,749.3348,21.3364,749.1618,22.2883,749.2646,22.8097,749.5105,23.4158,749.622,24.1529,750.3771,24.4098,751.1743,24.5214,751.7182,24.395,752.6145" style="stroke: #038048; stroke-width: 1.0;"/><text fill="#A9A9A9" font-family="courier" font-size="15" lengthAdjust="spacingAndGlyphs" textLength="153" x="31.5" y="755.8735">String getTitle()</text><!--link Customer to Rental--><path d="M177.5,205.47 L177.5934,205.47 L177.3159,212.066 L177.5859,218.662 L177.6776,225.258 L177.1829,231.854 L177.5,238.45 " fill="none" style="stroke: #A9A9A9; stroke-width: 2.0;"/><polygon fill="#A9A9A9" points="177.5,251.78,177.564,251.8085,178.1738,249.9239,179.1589,248.2062,180.0217,246.4341,180.4827,244.4834,181.5,242.78,181.4817,242.7617,180.5995,243.4795,179.8096,244.2896,179.0839,245.1639,178.137,245.817,177.5,246.78,177.6305,246.9105,176.5514,245.8314,175.8534,245.1334,175.2018,244.4818,174.2798,243.5598,173.5,242.78,173.5208,242.7892,174.2903,244.5757,175.1544,246.4042,175.9728,248.2124,176.8784,250.0593,177.5,251.78" style="stroke: #A9A9A9; stroke-width: 2.0;"/><path d="M177.5,246.78 L177.5934,246.78 L177.3159,245.18 L177.5859,243.58 L177.6776,241.98 L177.1829,240.38 L177.5,238.78 " fill="#A9A9A9" style="stroke: #A9A9A9; stroke-width: 2.0;"/><polygon fill="#222222" points="177.5,192.16,177.5583,192.1989,176.5851,193.2834,175.9536,194.5957,175.2109,195.8339,174.1021,196.8281,173.5,198.16,173.4784,198.1456,174.1817,199.2811,174.9936,200.4891,175.8811,201.7474,176.5082,202.8322,177.5,204.16,177.6536,204.2624,178.1252,202.8435,179.0451,201.7234,180.0198,200.6399,180.6762,199.3441,181.5,198.16,181.5189,198.1726,180.6911,196.9541,179.9495,195.793,179.1663,194.6042,178.4624,193.4683,177.5,192.16" style="stroke: #A9A9A9; stroke-width: 2.0;"/><!--link Rental to Movie--><path d="M177.5,457.01 L177.7802,457.01 L176.9476,467.904 L177.7577,478.798 L178.0329,489.692 L176.5488,500.586 L177.5,511.48 " fill="none" style="stroke: #A9A9A9; stroke-width: 2.0;"/><polygon fill="#A9A9A9" points="177.5,516.62,177.564,516.6485,178.1738,514.7639,179.1589,513.0462,180.0217,511.2741,180.4827,509.3234,181.5,507.62,181.4817,507.6017,180.5995,508.3195,179.8096,509.1296,179.0839,510.0039,178.137,510.657,177.5,511.62,177.6305,511.7505,176.5514,510.6714,175.8534,509.9734,175.2018,509.3218,174.2798,508.3998,173.5,507.62,173.5208,507.6292,174.2903,509.4157,175.1544,511.2442,175.9728,513.0524,176.8784,514.8993,177.5,516.62" style="stroke: #A9A9A9; stroke-width: 2.0;"/><!--
@startuml
skinparam backgroundColor #222222
skinparam handwritten true
hide circle
hide stereotype
skinparam shadowing false
skinparam padding 1
skinparam arrow {
    Thickness 2
    Color #DarkGrey
    FontSize 20
    FontName courier
    FontStyle normal
    FontColor #DarkGrey
}
skinparam class {
    BorderThickness 3
    BorderColor #DarkGrey
    BackgroundColor #222222
    FontSize 20
    FontName courier
    FontStyle bold
    FontColor #DarkGrey
}
skinparam classAttribute {
    FontSize 15
    FontName courier
    FontStyle normal
    FontColor #DarkGrey
}

class Customer {
- String name;
- List<Rental> rentals;
+ Costumer(String name)
+ void addRental(Rental rental)
+ String getName()
+ String statement()
}

class Rental {
- Movie movie;
- int daysRented;
+ Rental(Movie movie, int daysRented)
+ int getDaysRented()
+ Movie getMovie()
+ double getCharge()
+ int getFrequentRenterPoints()
}

class Movie {
+ static final int REGULAR = 0;
+ static final int NEW_RELEASE = 1;
+ static final int CHILDRENS = 2;
- String title;
- int priceCode;
+ Movie(String title, int priceCode)
+ int getPriceCode()
+ void setPriceCode(int priceCode)
+ String getTitle()
}

Customer o-down-> Rental
Rental -down-> Movie
@enduml

PlantUML version 1.2019.05(Sat Apr 20 18:45:36 CEST 2019)
(GPL source distribution)
Java Runtime: Java(TM) SE Runtime Environment
JVM: Java HotSpot(TM) 64-Bit Server VM
Java Version: 11.0.14+8-LTS-263
Operating System: Windows 10
OS Version: 10.0
Default Encoding: windows-1252
Language: es
Country: ES
--></g></svg>