<?xml version="1.0" encoding="UTF-8" standalone="no"?><svg xmlns="http://www.w3.org/2000/svg" xmlns:xlink="http://www.w3.org/1999/xlink" contentScriptType="application/ecmascript" contentStyleType="text/css" height="1198px" preserveAspectRatio="none" style="width:1134px;height:1198px;background:#222222;" version="1.1" viewBox="0 0 1134 1198" width="1134px" zoomAndPan="magnify"><defs/><g><!--class Customer--><polygon fill="#222222" points="348,8,348,8.2102,358.1212,7.5857,368.2424,8.1933,378.3636,8.3997,388.4848,7.2866,398.6061,7.9223,408.7273,7.5735,418.8485,7.6165,428.9697,7.9318,439.0909,7.3086,449.2121,8.5536,459.3333,7.3697,469.4545,7.8022,479.5758,8.4319,489.697,7.9142,499.8182,8.0682,509.9394,7.9681,520.0606,8.1785,530.1818,8.2391,540.303,8.5857,550.4242,8.6711,560.5455,8.6793,570.6667,8.2546,580.7879,8.4636,590.9091,8.7022,601.0303,7.2788,611.1515,8.6785,621.2727,7.7035,631.3939,8.5338,641.5152,7.505,651.6364,7.9315,661.7576,8.7416,671.8788,7.9513,682,8,682.1053,8,682.3386,17.8606,682.4162,27.7211,681.9961,37.5817,682.2872,47.4423,681.4276,57.3028,682.2844,67.1634,682.5482,77.0239,682.4445,86.8845,682.613,96.7451,681.5169,106.6056,681.3478,116.4662,681.3786,126.3268,681.9411,136.1873,681.8035,146.0479,682.6814,155.9085,681.8253,165.769,681.6569,175.6296,682.2283,185.4901,681.3332,195.3507,681.4809,205.2113,682.649,215.0718,682.4357,224.9324,682,234.793,682,235.5275,671.8788,234.4712,661.7576,235.1122,651.6364,235.3834,641.5152,234.3206,631.3939,234.6971,621.2727,234.919,611.1515,235.4447,601.0303,234.7888,590.9091,235.2555,580.7879,234.2392,570.6667,234.1157,560.5455,235.2966,550.4242,234.076,540.303,235.3019,530.1818,234.9996,520.0606,234.5251,509.9394,234.4392,499.8182,235.2517,489.697,234.4936,479.5758,235.3848,469.4545,234.2402,459.3333,235.4104,449.2121,235.2773,439.0909,235.0379,428.9697,234.8402,418.8485,235.5196,408.7273,235.4065,398.6061,234.9622,388.4848,235.0612,378.3636,234.6627,368.2424,235.5094,358.1212,234.9478,348,234.793,348.1726,234.793,347.3916,224.9324,347.5948,215.0718,348.5307,205.2113,348.4298,195.3507,347.9571,185.4901,347.6778,175.6296,347.7811,165.769,347.3138,155.9085,348.4147,146.0479,348.7396,136.1873,348.5264,126.3268,348.6949,116.4662,347.8633,106.6056,348.0872,96.7451,347.6124,86.8845,348.284,77.0239,348.2468,67.1634,348.5524,57.3028,347.7703,47.4423,347.8656,37.5817,348.4435,27.7211,348.5673,17.8606,348,8" style="stroke: #A9A9A9; stroke-width: 3.0;"/><text fill="#A9A9A9" font-family="courier" font-size="20" font-weight="bold" lengthAdjust="spacingAndGlyphs" textLength="96" x="467" y="34.1074">Customer</text><path d="M349,46.1133 L349,46.3935 L359.0606,45.5609 L369.1212,46.371 L379.1818,46.6462 L389.2424,45.1621 L399.303,46.0097 L409.3636,45.5446 L419.4242,45.6019 L429.4848,46.0224 L439.5455,45.1915 L449.6061,46.8515 L459.6667,45.2729 L469.7273,45.8496 L479.7879,46.6892 L489.8485,45.9989 L499.9091,46.2043 L509.9697,46.0707 L520.0303,46.3513 L530.0909,46.4321 L540.1515,46.8942 L550.2121,47.008 L560.2727,47.019 L570.3333,46.4528 L580.3939,46.7314 L590.4545,47.0496 L600.5152,45.1517 L610.5758,47.018 L620.6364,45.7179 L630.697,46.825 L640.7576,45.4533 L650.8182,46.0219 L660.8788,47.1021 L670.9394,46.0483 L681,46.1133 " fill="#222222" style="stroke: #A9A9A9; stroke-width: 3.0;"/><polygon fill="none" points="356,59.4058,356,59.4758,357.2,59.2677,358.4,59.4702,359.6,59.539,360.8,59.168,362,59.4058,361.9741,59.4058,361.8578,60.6058,361.8722,61.8058,361.9773,63.0058,361.7695,64.2058,362,65.4058,362,65.5903,360.8,65.1957,359.6,65.3398,358.4,65.5497,357.2,65.3772,356,65.4058,356.0227,65.4058,355.9894,64.2058,356.0595,63.0058,356.0797,61.8058,356.1952,60.6058,356,59.4058" style="stroke: #C82930; stroke-width: 1.0;"/><text fill="#A9A9A9" font-family="courier" font-size="15" lengthAdjust="spacingAndGlyphs" textLength="108" x="369" y="66.1938">String name;</text><polygon fill="none" points="356,80.9907,356,81.0608,357.2,80.8526,358.4,81.0552,359.6,81.1239,360.8,80.7529,362,80.9907,361.9741,80.9907,361.8578,82.1907,361.8722,83.3907,361.9773,84.5907,361.7695,85.7907,362,86.9907,362,87.1753,360.8,86.7806,359.6,86.9248,358.4,87.1347,357.2,86.9621,356,86.9907,356.0227,86.9907,355.9894,85.7907,356.0595,84.5907,356.0797,83.3907,356.1952,82.1907,356,80.9907" style="stroke: #C82930; stroke-width: 1.0;"/><text fill="#A9A9A9" font-family="courier" font-size="15" lengthAdjust="spacingAndGlyphs" textLength="189" x="369" y="87.7788">List&lt;Rental&gt; rentals;</text><path d="M349,97.2832 L349,97.5634 L359.0606,96.7308 L369.1212,97.5409 L379.1818,97.8161 L389.2424,96.332 L399.303,97.1796 L409.3636,96.7145 L419.4242,96.7719 L429.4848,97.1923 L439.5455,96.3614 L449.6061,98.0214 L459.6667,96.4428 L469.7273,97.0195 L479.7879,97.8591 L489.8485,97.1688 L499.9091,97.3742 L509.9697,97.2406 L520.0303,97.5212 L530.0909,97.602 L540.1515,98.0641 L550.2121,98.1779 L560.2727,98.1889 L570.3333,97.6227 L580.3939,97.9013 L590.4545,98.2195 L600.5152,96.3216 L610.5758,98.1879 L620.6364,96.8879 L630.697,97.995 L640.7576,96.6232 L650.8182,97.1919 L660.8788,98.272 L670.9394,97.2182 L681,97.2832 " fill="#222222" style="stroke: #A9A9A9; stroke-width: 3.0;"/><polygon fill="#84BE84" points="362.0166,114.3054,361.5768,114.9063,361.0567,115.7863,360.3128,116.3794,359.5311,116.7038,358.9078,116.7319,358.1067,116.3263,357.3509,116.0613,356.7771,115.5233,356.4762,114.9073,356.2977,114.4169,356.1229,113.7763,355.8391,113.2251,356.0572,112.6869,356.2482,112.0973,356.9653,111.631,357.4697,111.026,358.0941,110.8251,358.8364,110.6521,359.7883,110.7549,360.3097,111.0007,360.9158,111.1122,361.6529,111.8673,361.9098,112.6645,362.0214,113.2084,361.895,114.1047" style="stroke: #038048; stroke-width: 1.0;"/><text fill="#A9A9A9" font-family="courier" font-size="15" lengthAdjust="spacingAndGlyphs" textLength="189" x="369" y="117.3638">Costumer(String name)</text><polygon fill="#84BE84" points="362.0166,135.8904,361.5768,136.4912,361.0567,137.3713,360.3128,137.9644,359.5311,138.2887,358.9078,138.3169,358.1067,137.9112,357.3509,137.6463,356.7771,137.1082,356.4762,136.4923,356.2977,136.0019,356.1229,135.3613,355.8391,134.81,356.0572,134.2718,356.2482,133.6823,356.9653,133.216,357.4697,132.6109,358.0941,132.41,358.8364,132.237,359.7883,132.3398,360.3097,132.5857,360.9158,132.6972,361.6529,133.4523,361.9098,134.2494,362.0214,134.7934,361.895,135.6897" style="stroke: #038048; stroke-width: 1.0;"/><text fill="#A9A9A9" font-family="courier" font-size="15" lengthAdjust="spacingAndGlyphs" textLength="261" x="369" y="138.9487">void addRental(Rental rental)</text><polygon fill="#84BE84" points="362.0166,157.4753,361.5768,158.0762,361.0567,158.9563,360.3128,159.5493,359.5311,159.8737,358.9078,159.9018,358.1067,159.4962,357.3509,159.2312,356.7771,158.6932,356.4762,158.0773,356.2977,157.5868,356.1229,156.9463,355.8391,156.395,356.0572,155.8568,356.2482,155.2672,356.9653,154.8009,357.4697,154.1959,358.0941,153.995,358.8364,153.822,359.7883,153.9248,360.3097,154.1707,360.9158,154.2821,361.6529,155.0372,361.9098,155.8344,362.0214,156.3783,361.895,157.2747" style="stroke: #038048; stroke-width: 1.0;"/><text fill="#A9A9A9" font-family="courier" font-size="15" lengthAdjust="spacingAndGlyphs" textLength="144" x="369" y="160.5337">String getName()</text><polygon fill="#84BE84" points="362.0166,179.0603,361.5768,179.6611,361.0567,180.5412,360.3128,181.1343,359.5311,181.4586,358.9078,181.4868,358.1067,181.0812,357.3509,180.8162,356.7771,180.2782,356.4762,179.6622,356.2977,179.1718,356.1229,178.5312,355.8391,177.98,356.0572,177.4417,356.2482,176.8522,356.9653,176.3859,357.4697,175.7809,358.0941,175.58,358.8364,175.4069,359.7883,175.5097,360.3097,175.7556,360.9158,175.8671,361.6529,176.6222,361.9098,177.4194,362.0214,177.9633,361.895,178.8596" style="stroke: #038048; stroke-width: 1.0;"/><text fill="#A9A9A9" font-family="courier" font-size="15" lengthAdjust="spacingAndGlyphs" textLength="162" x="369" y="182.1187">String statement()</text><polygon fill="#F24D5C" points="356,196.9155,356,196.9856,357.2,196.7774,358.4,196.98,359.6,197.0488,360.8,196.6777,362,196.9155,361.9741,196.9155,361.8578,198.1155,361.8722,199.3155,361.9773,200.5155,361.7695,201.7155,362,202.9155,362,203.1001,360.8,202.7054,359.6,202.8496,358.4,203.0595,357.2,202.8869,356,202.9155,356.0227,202.9155,355.9894,201.7155,356.0595,200.5155,356.0797,199.3155,356.1952,198.1155,356,196.9155" style="stroke: #C82930; stroke-width: 1.0;"/><text fill="#A9A9A9" font-family="courier" font-size="15" lengthAdjust="spacingAndGlyphs" textLength="207" x="369" y="203.7036">double getTotalCharge()</text><polygon fill="#F24D5C" points="356,218.5005,356,218.5705,357.2,218.3624,358.4,218.5649,359.6,218.6337,360.8,218.2627,362,218.5005,361.9741,218.5005,361.8578,219.7005,361.8722,220.9005,361.9773,222.1005,361.7695,223.3005,362,224.5005,362,224.685,360.8,224.2904,359.6,224.4346,358.4,224.6445,357.2,224.4719,356,224.5005,356.0227,224.5005,355.9894,223.3005,356.0595,222.1005,356.0797,220.9005,356.1952,219.7005,356,218.5005" style="stroke: #C82930; stroke-width: 1.0;"/><text fill="#A9A9A9" font-family="courier" font-size="15" lengthAdjust="spacingAndGlyphs" textLength="306" x="369" y="225.2886">int getTotalFrequentRenterPoints()</text><!--class Rental--><polygon fill="#222222" points="343.5,295,343.5,295.2102,353.5882,294.5857,363.6765,295.1933,373.7647,295.3997,383.8529,294.2866,393.9412,294.9223,404.0294,294.5735,414.1176,294.6165,424.2059,294.9318,434.2941,294.3086,444.3824,295.5536,454.4706,294.3697,464.5588,294.8022,474.6471,295.4319,484.7353,294.9142,494.8235,295.0682,504.9118,294.9681,515,295.1785,525.0882,295.2391,535.1765,295.5857,545.2647,295.6711,555.3529,295.6793,565.4412,295.2546,575.5294,295.4636,585.6176,295.7022,595.7059,294.2788,605.7941,295.6785,615.8824,294.7035,625.9706,295.5338,636.0588,294.505,646.1471,294.9315,656.2353,295.7416,666.3235,294.9513,676.4118,295.1053,686.5,295,686.8386,295,686.9162,304.7718,686.4961,314.5436,686.7872,324.3154,685.9276,334.0872,686.7844,343.859,687.0482,353.6309,686.9445,363.4027,687.113,373.1745,686.0169,382.9463,685.8478,392.7181,685.8786,402.4899,686.4411,412.2617,686.3035,422.0335,687.1814,431.8053,686.3253,441.5771,686.1569,451.349,686.7283,461.1208,685.8332,470.8926,685.9809,480.6644,687.149,490.4362,686.5,500.208,686.5,500.6437,676.4118,500.9425,666.3235,499.8862,656.2353,500.5272,646.1471,500.7984,636.0588,499.7356,625.9706,500.1121,615.8824,500.334,605.7941,500.8598,595.7059,500.2038,585.6176,500.6706,575.5294,499.6542,565.4412,499.5308,555.3529,500.7116,545.2647,499.4911,535.1765,500.717,525.0882,500.4146,515,499.9401,504.9118,499.8542,494.8235,500.6668,484.7353,499.9087,474.6471,500.7999,464.5588,499.6553,454.4706,500.8254,444.3824,500.6923,434.2941,500.453,424.2059,500.2552,414.1176,500.9346,404.0294,500.8216,393.9412,500.3773,383.8529,500.4762,373.7647,500.0777,363.6765,500.9245,353.5882,500.3629,343.5,500.208,343.6726,500.208,342.8916,490.4362,343.0948,480.6644,344.0307,470.8926,343.9298,461.1208,343.4571,451.349,343.1778,441.5771,343.2811,431.8053,342.8138,422.0335,343.9147,412.2617,344.2396,402.4899,344.0264,392.7181,344.1949,382.9463,343.3633,373.1745,343.5872,363.4027,343.1124,353.6309,343.784,343.859,343.7468,334.0872,344.0524,324.3154,343.2703,314.5436,343.3656,304.7718,343.5,295" style="stroke: #A9A9A9; stroke-width: 3.0;"/><text fill="#A9A9A9" font-family="courier" font-size="20" font-weight="bold" lengthAdjust="spacingAndGlyphs" textLength="72" x="479" y="321.1074">Rental</text><path d="M344.5,333.1133 L344.5,333.3935 L354.5294,332.5609 L364.5588,333.371 L374.5882,333.6462 L384.6176,332.1621 L394.6471,333.0097 L404.6765,332.5446 L414.7059,332.6019 L424.7353,333.0224 L434.7647,332.1915 L444.7941,333.8515 L454.8235,332.2729 L464.8529,332.8496 L474.8824,333.6892 L484.9118,332.9989 L494.9412,333.2043 L504.9706,333.0707 L515,333.3513 L525.0294,333.4321 L535.0588,333.8942 L545.0882,334.008 L555.1176,334.019 L565.1471,333.4528 L575.1765,333.7314 L585.2059,334.0496 L595.2353,332.1517 L605.2647,334.018 L615.2941,332.7179 L625.3235,333.825 L635.3529,332.4533 L645.3824,333.0219 L655.4118,334.1021 L665.4412,333.0483 L675.4706,333.2537 L685.5,333.1133 " fill="#222222" style="stroke: #A9A9A9; stroke-width: 3.0;"/><polygon fill="none" points="351.5,346.4058,351.5,346.4758,352.7,346.2677,353.9,346.4702,355.1,346.539,356.3,346.168,357.5,346.4058,357.4741,346.4058,357.3578,347.6058,357.3722,348.8058,357.4773,350.0058,357.2695,351.2058,357.5,352.4058,357.5,352.5903,356.3,352.1957,355.1,352.3398,353.9,352.5497,352.7,352.3772,351.5,352.4058,351.5227,352.4058,351.4894,351.2058,351.5595,350.0058,351.5797,348.8058,351.6952,347.6058,351.5,346.4058" style="stroke: #C82930; stroke-width: 1.0;"/><text fill="#A9A9A9" font-family="courier" font-size="15" lengthAdjust="spacingAndGlyphs" textLength="108" x="364.5" y="353.1938">Movie movie;</text><polygon fill="none" points="351.5,367.9907,351.5,368.0608,352.7,367.8526,353.9,368.0552,355.1,368.1239,356.3,367.7529,357.5,367.9907,357.4741,367.9907,357.3578,369.1907,357.3722,370.3907,357.4773,371.5907,357.2695,372.7907,357.5,373.9907,357.5,374.1753,356.3,373.7806,355.1,373.9248,353.9,374.1347,352.7,373.9621,351.5,373.9907,351.5227,373.9907,351.4894,372.7907,351.5595,371.5907,351.5797,370.3907,351.6952,369.1907,351.5,367.9907" style="stroke: #C82930; stroke-width: 1.0;"/><text fill="#A9A9A9" font-family="courier" font-size="15" lengthAdjust="spacingAndGlyphs" textLength="135" x="364.5" y="374.7788">int daysRented;</text><path d="M344.5,384.2832 L344.5,384.5634 L354.5294,383.7308 L364.5588,384.5409 L374.5882,384.8161 L384.6176,383.332 L394.6471,384.1796 L404.6765,383.7145 L414.7059,383.7719 L424.7353,384.1923 L434.7647,383.3614 L444.7941,385.0214 L454.8235,383.4428 L464.8529,384.0195 L474.8824,384.8591 L484.9118,384.1688 L494.9412,384.3742 L504.9706,384.2406 L515,384.5212 L525.0294,384.602 L535.0588,385.0641 L545.0882,385.1779 L555.1176,385.1889 L565.1471,384.6227 L575.1765,384.9013 L585.2059,385.2195 L595.2353,383.3216 L605.2647,385.1879 L615.2941,383.8879 L625.3235,384.995 L635.3529,383.6232 L645.3824,384.1919 L655.4118,385.272 L665.4412,384.2182 L675.4706,384.4236 L685.5,384.2832 " fill="#222222" style="stroke: #A9A9A9; stroke-width: 3.0;"/><polygon fill="#84BE84" points="357.5166,401.3054,357.0768,401.9063,356.5567,402.7863,355.8128,403.3794,355.0311,403.7038,354.4078,403.7319,353.6067,403.3263,352.8509,403.0613,352.2771,402.5233,351.9762,401.9073,351.7977,401.4169,351.6229,400.7763,351.3391,400.2251,351.5572,399.6869,351.7482,399.0973,352.4653,398.631,352.9697,398.026,353.5941,397.8251,354.3364,397.6521,355.2883,397.7549,355.8097,398.0007,356.4158,398.1122,357.1529,398.8673,357.4098,399.6645,357.5214,400.2084,357.395,401.1047" style="stroke: #038048; stroke-width: 1.0;"/><text fill="#A9A9A9" font-family="courier" font-size="15" lengthAdjust="spacingAndGlyphs" textLength="315" x="364.5" y="404.3638">Rental(Movie movie, int daysRented)</text><polygon fill="#84BE84" points="357.5166,422.8904,357.0768,423.4912,356.5567,424.3713,355.8128,424.9644,355.0311,425.2887,354.4078,425.3169,353.6067,424.9112,352.8509,424.6463,352.2771,424.1082,351.9762,423.4923,351.7977,423.0019,351.6229,422.3613,351.3391,421.81,351.5572,421.2718,351.7482,420.6823,352.4653,420.216,352.9697,419.6109,353.5941,419.41,354.3364,419.237,355.2883,419.3398,355.8097,419.5857,356.4158,419.6972,357.1529,420.4523,357.4098,421.2494,357.5214,421.7934,357.395,422.6897" style="stroke: #038048; stroke-width: 1.0;"/><text fill="#A9A9A9" font-family="courier" font-size="15" lengthAdjust="spacingAndGlyphs" textLength="171" x="364.5" y="425.9487">int getDaysRented()</text><polygon fill="#84BE84" points="357.5166,444.4753,357.0768,445.0762,356.5567,445.9563,355.8128,446.5493,355.0311,446.8737,354.4078,446.9018,353.6067,446.4962,352.8509,446.2312,352.2771,445.6932,351.9762,445.0773,351.7977,444.5868,351.6229,443.9463,351.3391,443.395,351.5572,442.8568,351.7482,442.2672,352.4653,441.8009,352.9697,441.1959,353.5941,440.995,354.3364,440.822,355.2883,440.9248,355.8097,441.1707,356.4158,441.2821,357.1529,442.0372,357.4098,442.8344,357.5214,443.3783,357.395,444.2747" style="stroke: #038048; stroke-width: 1.0;"/><text fill="#A9A9A9" font-family="courier" font-size="15" lengthAdjust="spacingAndGlyphs" textLength="144" x="364.5" y="447.5337">Movie getMovie()</text><polygon fill="#84BE84" points="357.5166,466.0603,357.0768,466.6611,356.5567,467.5412,355.8128,468.1343,355.0311,468.4586,354.4078,468.4868,353.6067,468.0812,352.8509,467.8162,352.2771,467.2782,351.9762,466.6622,351.7977,466.1718,351.6229,465.5312,351.3391,464.98,351.5572,464.4417,351.7482,463.8522,352.4653,463.3859,352.9697,462.7809,353.5941,462.58,354.3364,462.4069,355.2883,462.5097,355.8097,462.7556,356.4158,462.8671,357.1529,463.6222,357.4098,464.4194,357.5214,464.9633,357.395,465.8596" style="stroke: #038048; stroke-width: 1.0;"/><text fill="#A9A9A9" font-family="courier" font-size="15" lengthAdjust="spacingAndGlyphs" textLength="162" x="364.5" y="469.1187">double getCharge()</text><polygon fill="#84BE84" points="357.5166,487.6452,357.0768,488.2461,356.5567,489.1262,355.8128,489.7193,355.0311,490.0436,354.4078,490.0718,353.6067,489.6661,352.8509,489.4011,352.2771,488.8631,351.9762,488.2472,351.7977,487.7568,351.6229,487.1162,351.3391,486.5649,351.5572,486.0267,351.7482,485.4371,352.4653,484.9708,352.9697,484.3658,353.5941,484.1649,354.3364,483.9919,355.2883,484.0947,355.8097,484.3406,356.4158,484.452,357.1529,485.2072,357.4098,486.0043,357.5214,486.5483,357.395,487.4446" style="stroke: #038048; stroke-width: 1.0;"/><text fill="#A9A9A9" font-family="courier" font-size="15" lengthAdjust="spacingAndGlyphs" textLength="261" x="364.5" y="490.7036">int getFrequentRenterPoints()</text><!--class Movie--><polygon fill="#222222" points="307.5,560,307.5,560.2102,317.381,559.5857,327.2619,560.1933,337.1429,560.3997,347.0238,559.2866,356.9048,559.9223,366.7857,559.5735,376.6667,559.6165,386.5476,559.9318,396.4286,559.3086,406.3095,560.5536,416.1905,559.3697,426.0714,559.8022,435.9524,560.4319,445.8333,559.9142,455.7143,560.0682,465.5952,559.9681,475.4762,560.1785,485.3571,560.2391,495.2381,560.5857,505.119,560.6711,515,560.6793,524.881,560.2546,534.7619,560.4636,544.6429,560.7022,554.5238,559.2788,564.4048,560.6785,574.2857,559.7035,584.1667,560.5338,594.0476,559.505,603.9286,559.9315,613.8095,560.7416,623.6905,559.9513,633.5714,560.1053,643.4524,560.3386,653.3333,560.4162,663.2143,559.9961,673.0952,560.2872,682.9762,559.4276,692.8571,560.2844,702.7381,560.5482,712.619,560.4445,722.5,560,723.113,560,722.0169,569.9986,721.8478,579.9973,721.8786,589.9959,722.4411,599.9945,722.3035,609.9931,723.1814,619.9918,722.3253,629.9904,722.1569,639.989,722.7283,649.9876,721.8332,659.9863,721.9809,669.9849,723.149,679.9835,722.9357,689.9821,723.2345,699.9808,722.1782,709.9794,722.8192,719.978,723.0904,729.9766,722.0276,739.9753,722.4041,749.9739,722.626,759.9725,723.1518,769.9711,722.4958,779.9698,722.9626,789.9684,721.9462,799.967,721.8227,809.9656,723.0036,819.9643,722.5,829.9629,722.5,829.2459,712.619,830.4719,702.7381,830.1695,692.8571,829.695,682.9762,829.6091,673.0952,830.4217,663.2143,829.6636,653.3333,830.5548,643.4524,829.4101,633.5714,830.5803,623.6905,830.4472,613.8095,830.2079,603.9286,830.0101,594.0476,830.6895,584.1667,830.5765,574.2857,830.1321,564.4048,830.2311,554.5238,829.8326,544.6429,830.6793,534.7619,830.1178,524.881,830.1355,515,829.3545,505.119,829.5577,495.2381,830.4936,485.3571,830.3927,475.4762,829.92,465.5952,829.6407,455.7143,829.744,445.8333,829.2767,435.9524,830.3776,426.0714,830.7025,416.1905,830.4893,406.3095,830.6578,396.4286,829.8262,386.5476,830.0501,376.6667,829.5753,366.7857,830.2469,356.9048,830.2097,347.0238,830.5153,337.1429,829.7332,327.2619,829.8285,317.381,830.4064,307.5,829.9629,308.0673,829.9629,306.9875,819.9643,307.3061,809.9656,307.6493,799.967,306.8892,789.9684,307.8534,779.9698,307.758,769.9711,307.3992,759.9725,307.6422,749.9739,308.2287,739.9753,307.1871,729.9766,307.815,719.978,307.7856,709.9794,307.6158,699.9808,307.6409,689.9821,307.6135,679.9835,306.8758,669.9849,307.0992,659.9863,307.0385,649.9876,307.5638,639.989,307.5881,629.9904,307.6617,619.9918,307.209,609.9931,307.4325,599.9945,307.3798,589.9959,308.0769,579.9973,307.9266,569.9986,307.5,560" style="stroke: #A9A9A9; stroke-width: 3.0;"/><text fill="#A9A9A9" font-family="courier" font-size="20" font-weight="bold" lengthAdjust="spacingAndGlyphs" textLength="60" x="485" y="586.1074">Movie</text><path d="M308.5,598.1133 L308.5,598.3935 L318.5732,597.5609 L328.6463,598.371 L338.7195,598.6462 L348.7927,597.1621 L358.8659,598.0097 L368.939,597.5446 L379.0122,597.6019 L389.0854,598.0224 L399.1585,597.1915 L409.2317,598.8515 L419.3049,597.2729 L429.378,597.8496 L439.4512,598.6892 L449.5244,597.9989 L459.5976,598.2043 L469.6707,598.0707 L479.7439,598.3513 L489.8171,598.4321 L499.8902,598.8942 L509.9634,599.008 L520.0366,599.019 L530.1098,598.4528 L540.1829,598.7314 L550.2561,599.0496 L560.3293,597.1517 L570.4024,599.018 L580.4756,597.7179 L590.5488,598.825 L600.622,597.4533 L610.6951,598.0219 L620.7683,599.1021 L630.8415,598.0483 L640.9146,598.2537 L650.9878,598.5648 L661.061,598.6683 L671.1341,598.1081 L681.2073,598.4962 L691.2805,597.3501 L701.3537,598.4925 L711.4268,598.8442 L721.5,598.1133 " fill="#222222" style="stroke: #A9A9A9; stroke-width: 3.0;"/><polygon fill="none" points="321.5166,615.1355,321.0768,615.7363,320.5567,616.6164,319.8128,617.2095,319.0311,617.5338,318.4078,617.562,317.6067,617.1564,316.8509,616.8914,316.2771,616.3534,315.9762,615.7374,315.7977,615.247,315.6229,614.6064,315.3391,614.0552,315.5572,613.5169,315.7482,612.9274,316.4653,612.4611,316.9697,611.8561,317.5941,611.6552,318.3364,611.4821,319.2883,611.5849,319.8097,611.8308,320.4158,611.9423,321.1529,612.6974,321.4098,613.4946,321.5214,614.0385,321.395,614.9348" style="stroke: #038048; stroke-width: 1.0;"/><text fill="#A9A9A9" font-family="courier" font-size="15" lengthAdjust="spacingAndGlyphs" textLength="261" x="328.5" y="618.1938">static final int REGULAR = 0;</text><polygon fill="none" points="321.5166,636.7204,321.0768,637.3213,320.5567,638.2014,319.8128,638.7945,319.0311,639.1188,318.4078,639.1469,317.6067,638.7413,316.8509,638.4763,316.2771,637.9383,315.9762,637.3224,315.7977,636.832,315.6229,636.1914,315.3391,635.6401,315.5572,635.1019,315.7482,634.5123,316.4653,634.046,316.9697,633.441,317.5941,633.2401,318.3364,633.0671,319.2883,633.1699,319.8097,633.4158,320.4158,633.5272,321.1529,634.2824,321.4098,635.0795,321.5214,635.6235,321.395,636.5198" style="stroke: #038048; stroke-width: 1.0;"/><text fill="#A9A9A9" font-family="courier" font-size="15" lengthAdjust="spacingAndGlyphs" textLength="297" x="328.5" y="639.7788">static final int NEW_RELEASE = 1;</text><polygon fill="none" points="321.5166,658.3054,321.0768,658.9063,320.5567,659.7863,319.8128,660.3794,319.0311,660.7038,318.4078,660.7319,317.6067,660.3263,316.8509,660.0613,316.2771,659.5233,315.9762,658.9073,315.7977,658.4169,315.6229,657.7763,315.3391,657.2251,315.5572,656.6869,315.7482,656.0973,316.4653,655.631,316.9697,655.026,317.5941,654.8251,318.3364,654.6521,319.2883,654.7549,319.8097,655.0007,320.4158,655.1122,321.1529,655.8673,321.4098,656.6645,321.5214,657.2084,321.395,658.1047" style="stroke: #038048; stroke-width: 1.0;"/><text fill="#A9A9A9" font-family="courier" font-size="15" lengthAdjust="spacingAndGlyphs" textLength="279" x="328.5" y="661.3638">static final int CHILDRENS = 2;</text><polygon fill="none" points="315.5,676.1606,315.5,676.2307,316.7,676.0225,317.9,676.2251,319.1,676.2939,320.3,675.9228,321.5,676.1606,321.4741,676.1606,321.3578,677.3606,321.3722,678.5606,321.4773,679.7606,321.2695,680.9606,321.5,682.1606,321.5,682.3452,320.3,681.9506,319.1,682.0947,317.9,682.3046,316.7,682.1321,315.5,682.1606,315.5227,682.1606,315.4894,680.9606,315.5595,679.7606,315.5797,678.5606,315.6952,677.3606,315.5,676.1606" style="stroke: #C82930; stroke-width: 1.0;"/><text fill="#A9A9A9" font-family="courier" font-size="15" lengthAdjust="spacingAndGlyphs" textLength="117" x="328.5" y="682.9487">String title;</text><polygon fill="none" points="315.5,697.7456,315.5,697.8157,316.7,697.6075,317.9,697.81,319.1,697.8788,320.3,697.5078,321.5,697.7456,321.4741,697.7456,321.3578,698.9456,321.3722,700.1456,321.4773,701.3456,321.2695,702.5456,321.5,703.7456,321.5,703.9302,320.3,703.5355,319.1,703.6797,317.9,703.8896,316.7,703.717,315.5,703.7456,315.5227,703.7456,315.4894,702.5456,315.5595,701.3456,315.5797,700.1456,315.6952,698.9456,315.5,697.7456" style="stroke: #C82930; stroke-width: 1.0;"/><text fill="#A9A9A9" font-family="courier" font-size="15" lengthAdjust="spacingAndGlyphs" textLength="108" x="328.5" y="704.5337">Price price;</text><path d="M308.5,714.0381 L308.5,714.3183 L318.5732,713.4857 L328.6463,714.2958 L338.7195,714.571 L348.7927,713.0869 L358.8659,713.9345 L368.939,713.4694 L379.0122,713.5268 L389.0854,713.9472 L399.1585,713.1163 L409.2317,714.7763 L419.3049,713.1977 L429.378,713.7744 L439.4512,714.614 L449.5244,713.9237 L459.5976,714.1291 L469.6707,713.9955 L479.7439,714.2761 L489.8171,714.3569 L499.8902,714.819 L509.9634,714.9328 L520.0366,714.9438 L530.1098,714.3776 L540.1829,714.6562 L550.2561,714.9744 L560.3293,713.0765 L570.4024,714.9428 L580.4756,713.6427 L590.5488,714.7498 L600.622,713.3781 L610.6951,713.9468 L620.7683,715.0269 L630.8415,713.9731 L640.9146,714.1785 L650.9878,714.4896 L661.061,714.5931 L671.1341,714.0329 L681.2073,714.421 L691.2805,713.2749 L701.3537,714.4173 L711.4268,714.769 L721.5,714.0381 " fill="#222222" style="stroke: #A9A9A9; stroke-width: 3.0;"/><polygon fill="#84BE84" points="321.5166,731.0603,321.0768,731.6611,320.5567,732.5412,319.8128,733.1343,319.0311,733.4586,318.4078,733.4868,317.6067,733.0812,316.8509,732.8162,316.2771,732.2782,315.9762,731.6622,315.7977,731.1718,315.6229,730.5312,315.3391,729.98,315.5572,729.4417,315.7482,728.8522,316.4653,728.3859,316.9697,727.7809,317.5941,727.58,318.3364,727.4069,319.2883,727.5097,319.8097,727.7556,320.4158,727.8671,321.1529,728.6222,321.4098,729.4194,321.5214,729.9633,321.395,730.8596" style="stroke: #038048; stroke-width: 1.0;"/><text fill="#A9A9A9" font-family="courier" font-size="15" lengthAdjust="spacingAndGlyphs" textLength="306" x="328.5" y="734.1187">Movie(String title, int priceCode)</text><polygon fill="#84BE84" points="321.5166,752.6452,321.0768,753.2461,320.5567,754.1262,319.8128,754.7193,319.0311,755.0436,318.4078,755.0718,317.6067,754.6661,316.8509,754.4011,316.2771,753.8631,315.9762,753.2472,315.7977,752.7568,315.6229,752.1162,315.3391,751.5649,315.5572,751.0267,315.7482,750.4371,316.4653,749.9708,316.9697,749.3658,317.5941,749.1649,318.3364,748.9919,319.2883,749.0947,319.8097,749.3406,320.4158,749.452,321.1529,750.2072,321.4098,751.0043,321.5214,751.5483,321.395,752.4446" style="stroke: #038048; stroke-width: 1.0;"/><text fill="#A9A9A9" font-family="courier" font-size="15" lengthAdjust="spacingAndGlyphs" textLength="288" x="328.5" y="755.7036">double getCharge(int daysRented)</text><polygon fill="#84BE84" points="321.5166,774.2302,321.0768,774.8311,320.5567,775.7111,319.8128,776.3042,319.0311,776.6286,318.4078,776.6567,317.6067,776.2511,316.8509,775.9861,316.2771,775.4481,315.9762,774.8322,315.7977,774.3417,315.6229,773.7011,315.3391,773.1499,315.5572,772.6117,315.7482,772.0221,316.4653,771.5558,316.9697,770.9508,317.5941,770.7499,318.3364,770.5769,319.2883,770.6797,319.8097,770.9255,320.4158,771.037,321.1529,771.7921,321.4098,772.5893,321.5214,773.1332,321.395,774.0295" style="stroke: #038048; stroke-width: 1.0;"/><text fill="#A9A9A9" font-family="courier" font-size="15" lengthAdjust="spacingAndGlyphs" textLength="387" x="328.5" y="777.2886">int getFrequentRenterPoints(int daysRented)</text><polygon fill="#84BE84" points="321.5166,795.8152,321.0768,796.416,320.5567,797.2961,319.8128,797.8892,319.0311,798.2135,318.4078,798.2417,317.6067,797.8361,316.8509,797.5711,316.2771,797.033,315.9762,796.4171,315.7977,795.9267,315.6229,795.2861,315.3391,794.7349,315.5572,794.1966,315.7482,793.6071,316.4653,793.1408,316.9697,792.5357,317.5941,792.3348,318.3364,792.1618,319.2883,792.2646,319.8097,792.5105,320.4158,792.622,321.1529,793.3771,321.4098,794.1743,321.5214,794.7182,321.395,795.6145" style="stroke: #038048; stroke-width: 1.0;"/><text fill="#A9A9A9" font-family="courier" font-size="15" lengthAdjust="spacingAndGlyphs" textLength="288" x="328.5" y="798.8735">void setPriceCode(int priceCode)</text><polygon fill="#84BE84" points="321.5166,817.4001,321.0768,818.001,320.5567,818.8811,319.8128,819.4742,319.0311,819.7985,318.4078,819.8266,317.6067,819.421,316.8509,819.156,316.2771,818.618,315.9762,818.0021,315.7977,817.5116,315.6229,816.8711,315.3391,816.3198,315.5572,815.7816,315.7482,815.192,316.4653,814.7257,316.9697,814.1207,317.5941,813.9198,318.3364,813.7468,319.2883,813.8496,319.8097,814.0955,320.4158,814.2069,321.1529,814.962,321.4098,815.7592,321.5214,816.3031,321.395,817.1995" style="stroke: #038048; stroke-width: 1.0;"/><text fill="#A9A9A9" font-family="courier" font-size="15" lengthAdjust="spacingAndGlyphs" textLength="153" x="328.5" y="820.4585">String getTitle()</text><!--class Price--><polygon fill="#222222" points="307.5,890,307.5,890.2102,317.381,889.5857,327.2619,890.1933,337.1429,890.3997,347.0238,889.2866,356.9048,889.9223,366.7857,889.5735,376.6667,889.6165,386.5476,889.9318,396.4286,889.3086,406.3095,890.5536,416.1905,889.3697,426.0714,889.8022,435.9524,890.4319,445.8333,889.9142,455.7143,890.0682,465.5952,889.9681,475.4762,890.1785,485.3571,890.2391,495.2381,890.5857,505.119,890.6711,515,890.6793,524.881,890.2546,534.7619,890.4636,544.6429,890.7022,554.5238,889.2788,564.4048,890.6785,574.2857,889.7035,584.1667,890.5338,594.0476,889.505,603.9286,889.9315,613.8095,890.7416,623.6905,889.9513,633.5714,890.1053,643.4524,890.3386,653.3333,890.4162,663.2143,889.9961,673.0952,890.2872,682.9762,889.4276,692.8571,890.2844,702.7381,890.5482,712.619,890.4445,722.5,890,723.113,890,722.0169,899.9057,721.8478,909.8114,721.8786,919.717,722.4411,929.6227,722.3035,939.5284,723.1814,949.4341,722.3253,959.3398,722.1569,969.2454,722.7283,979.1511,721.8332,989.0568,721.9809,998.9625,722.5,1008.8682,722.5,1009.5171,712.619,1009.3038,702.7381,1009.6027,692.8571,1008.5464,682.9762,1009.1874,673.0952,1009.4586,663.2143,1008.3958,653.3333,1008.7723,643.4524,1008.9941,633.5714,1009.5199,623.6905,1008.864,613.8095,1009.3307,603.9286,1008.3144,594.0476,1008.1909,584.1667,1009.3718,574.2857,1008.1512,564.4048,1009.3771,554.5238,1009.0748,544.6429,1008.6002,534.7619,1008.5144,524.881,1009.3269,515,1008.5688,505.119,1009.46,495.2381,1008.3154,485.3571,1009.4856,475.4762,1009.3525,465.5952,1009.1131,455.7143,1008.9154,445.8333,1009.5948,435.9524,1009.4817,426.0714,1009.0374,416.1905,1009.1364,406.3095,1008.7379,396.4286,1009.5846,386.5476,1009.023,376.6667,1009.0407,366.7857,1008.2598,356.9048,1008.4629,347.0238,1009.3989,337.1429,1009.2979,327.2619,1008.8252,317.381,1008.546,307.5,1008.8682,307.2811,1008.8682,306.8138,998.9625,307.9147,989.0568,308.2396,979.1511,308.0264,969.2454,308.1949,959.3398,307.3633,949.4341,307.5872,939.5284,307.1124,929.6227,307.784,919.717,307.7468,909.8114,308.0524,899.9057,307.5,890" style="stroke: #A9A9A9; stroke-width: 3.0;"/><text fill="#A9A9A9" font-family="courier" font-size="20" font-weight="bold" lengthAdjust="spacingAndGlyphs" textLength="60" x="485" y="916.1074">Price</text><path d="M308.5,928.1133 L308.5,928.3935 L318.5732,927.5609 L328.6463,928.371 L338.7195,928.6462 L348.7927,927.1621 L358.8659,928.0097 L368.939,927.5446 L379.0122,927.6019 L389.0854,928.0224 L399.1585,927.1915 L409.2317,928.8515 L419.3049,927.2729 L429.378,927.8496 L439.4512,928.6892 L449.5244,927.9989 L459.5976,928.2043 L469.6707,928.0707 L479.7439,928.3513 L489.8171,928.4321 L499.8902,928.8942 L509.9634,929.008 L520.0366,929.019 L530.1098,928.4528 L540.1829,928.7314 L550.2561,929.0496 L560.3293,927.1517 L570.4024,929.018 L580.4756,927.7179 L590.5488,928.825 L600.622,927.4533 L610.6951,928.0219 L620.7683,929.1021 L630.8415,928.0483 L640.9146,928.2537 L650.9878,928.5648 L661.061,928.6683 L671.1341,928.1081 L681.2073,928.4962 L691.2805,927.3501 L701.3537,928.4925 L711.4268,928.8442 L721.5,928.1133 " fill="#222222" style="stroke: #A9A9A9; stroke-width: 3.0;"/><path d="M308.5,936.1133 L308.5,936.3935 L318.5732,935.5609 L328.6463,936.371 L338.7195,936.6462 L348.7927,935.1621 L358.8659,936.0097 L368.939,935.5446 L379.0122,935.6019 L389.0854,936.0224 L399.1585,935.1915 L409.2317,936.8515 L419.3049,935.2729 L429.378,935.8496 L439.4512,936.6892 L449.5244,935.9989 L459.5976,936.2043 L469.6707,936.0707 L479.7439,936.3513 L489.8171,936.4321 L499.8902,936.8942 L509.9634,937.008 L520.0366,937.019 L530.1098,936.4528 L540.1829,936.7314 L550.2561,937.0496 L560.3293,935.1517 L570.4024,937.018 L580.4756,935.7179 L590.5488,936.825 L600.622,935.4533 L610.6951,936.0219 L620.7683,937.1021 L630.8415,936.0483 L640.9146,936.2537 L650.9878,936.5648 L661.061,936.6683 L671.1341,936.1081 L681.2073,936.4962 L691.2805,935.3501 L701.3537,936.4925 L711.4268,936.8442 L721.5,936.1133 " fill="#222222" style="stroke: #A9A9A9; stroke-width: 3.0;"/><polygon fill="#84BE84" points="321.5166,953.1355,321.0768,953.7363,320.5567,954.6164,319.8128,955.2095,319.0311,955.5338,318.4078,955.562,317.6067,955.1564,316.8509,954.8914,316.2771,954.3534,315.9762,953.7374,315.7977,953.247,315.6229,952.6064,315.3391,952.0552,315.5572,951.5169,315.7482,950.9274,316.4653,950.4611,316.9697,949.8561,317.5941,949.6552,318.3364,949.4821,319.2883,949.5849,319.8097,949.8308,320.4158,949.9423,321.1529,950.6974,321.4098,951.4946,321.5214,952.0385,321.395,952.9348" style="stroke: #038048; stroke-width: 1.0;"/><text fill="#A9A9A9" font-family="courier" font-size="15" lengthAdjust="spacingAndGlyphs" textLength="162" x="328.5" y="956.1938">int getPriceCode()</text><polygon fill="#84BE84" points="321.5166,974.7204,321.0768,975.3213,320.5567,976.2014,319.8128,976.7945,319.0311,977.1188,318.4078,977.1469,317.6067,976.7413,316.8509,976.4763,316.2771,975.9383,315.9762,975.3224,315.7977,974.832,315.6229,974.1914,315.3391,973.6401,315.5572,973.1019,315.7482,972.5123,316.4653,972.046,316.9697,971.441,317.5941,971.2401,318.3364,971.0671,319.2883,971.1699,319.8097,971.4158,320.4158,971.5272,321.1529,972.2824,321.4098,973.0795,321.5214,973.6235,321.395,974.5198" style="stroke: #038048; stroke-width: 1.0;"/><text fill="#A9A9A9" font-family="courier" font-size="15" lengthAdjust="spacingAndGlyphs" textLength="288" x="328.5" y="977.7788">double getCharge(int daysRented)</text><polygon fill="#84BE84" points="321.5166,996.3054,321.0768,996.9063,320.5567,997.7863,319.8128,998.3794,319.0311,998.7038,318.4078,998.7319,317.6067,998.3263,316.8509,998.0613,316.2771,997.5233,315.9762,996.9073,315.7977,996.4169,315.6229,995.7763,315.3391,995.2251,315.5572,994.6869,315.7482,994.0973,316.4653,993.631,316.9697,993.026,317.5941,992.8251,318.3364,992.6521,319.2883,992.7549,319.8097,993.0007,320.4158,993.1122,321.1529,993.8673,321.4098,994.6645,321.5214,995.2084,321.395,996.1047" style="stroke: #038048; stroke-width: 1.0;"/><text fill="#A9A9A9" font-family="courier" font-size="15" lengthAdjust="spacingAndGlyphs" textLength="387" x="328.5" y="999.3638">int getFrequentRenterPoints(int daysRented)</text><!--class RegularPrice--><polygon fill="#222222" points="6,1090.5,6,1090.7102,15.875,1090.0857,25.75,1090.6933,35.625,1090.8997,45.5,1089.7866,55.375,1090.4223,65.25,1090.0735,75.125,1090.1165,85,1090.4318,94.875,1089.8086,104.75,1091.0536,114.625,1089.8697,124.5,1090.3022,134.375,1090.9319,144.25,1090.4142,154.125,1090.5682,164,1090.4681,173.875,1090.6785,183.75,1090.7391,193.625,1091.0857,203.5,1091.1711,213.375,1091.1793,223.25,1090.7546,233.125,1090.9636,243,1091.2022,252.875,1089.7788,262.75,1091.1785,272.625,1090.2035,282.5,1091.0338,292.375,1090.005,302.25,1090.4315,312.125,1091.2416,322,1090.5,321.9513,1090.5,322.1053,1099.9623,322.3386,1109.4246,322.4162,1118.8868,321.9961,1128.3491,322.2872,1137.8114,321.4276,1147.2737,322.2844,1156.736,322,1166.1982,322,1166.7464,312.125,1166.6428,302.25,1166.8113,292.375,1165.7152,282.5,1165.5461,272.625,1165.5768,262.75,1166.1394,252.875,1166.0017,243,1166.8797,233.125,1166.0236,223.25,1165.8552,213.375,1166.4265,203.5,1165.5314,193.625,1165.6791,183.75,1166.8472,173.875,1166.6339,164,1166.9327,154.125,1165.8764,144.25,1166.5174,134.375,1166.7887,124.5,1165.7258,114.625,1166.1024,104.75,1166.3242,94.875,1166.85,85,1166.1941,75.125,1166.6608,65.25,1165.6445,55.375,1165.521,45.5,1166.7019,35.625,1165.4813,25.75,1166.7072,15.875,1166.4049,6,1166.1982,5.7321,1166.1982,5.6462,1156.736,6.4588,1147.2737,5.7007,1137.8114,6.5919,1128.3491,5.4473,1118.8868,6.6174,1109.4246,6.4843,1099.9623,6,1090.5" style="stroke: #A9A9A9; stroke-width: 3.0;"/><text fill="#A9A9A9" font-family="courier" font-size="20" font-weight="bold" lengthAdjust="spacingAndGlyphs" textLength="144" x="92" y="1116.6074">RegularPrice</text><path d="M7,1128.6133 L7,1128.8935 L17.129,1128.0609 L27.2581,1128.871 L37.3871,1129.1462 L47.5161,1127.6621 L57.6452,1128.5097 L67.7742,1128.0446 L77.9032,1128.1019 L88.0323,1128.5224 L98.1613,1127.6915 L108.2903,1129.3515 L118.4194,1127.7729 L128.5484,1128.3496 L138.6774,1129.1892 L148.8065,1128.4989 L158.9355,1128.7043 L169.0645,1128.5707 L179.1935,1128.8513 L189.3226,1128.9321 L199.4516,1129.3942 L209.5806,1129.508 L219.7097,1129.519 L229.8387,1128.9528 L239.9677,1129.2314 L250.0968,1129.5496 L260.2258,1127.6517 L270.3548,1129.518 L280.4839,1128.2179 L290.6129,1129.325 L300.7419,1127.9533 L310.871,1128.5219 L321,1128.6133 " fill="#222222" style="stroke: #A9A9A9; stroke-width: 3.0;"/><path d="M7,1136.6133 L7,1136.8935 L17.129,1136.0609 L27.2581,1136.871 L37.3871,1137.1462 L47.5161,1135.6621 L57.6452,1136.5097 L67.7742,1136.0446 L77.9032,1136.1019 L88.0323,1136.5224 L98.1613,1135.6915 L108.2903,1137.3515 L118.4194,1135.7729 L128.5484,1136.3496 L138.6774,1137.1892 L148.8065,1136.4989 L158.9355,1136.7043 L169.0645,1136.5707 L179.1935,1136.8513 L189.3226,1136.9321 L199.4516,1137.3942 L209.5806,1137.508 L219.7097,1137.519 L229.8387,1136.9528 L239.9677,1137.2314 L250.0968,1137.5496 L260.2258,1135.6517 L270.3548,1137.518 L280.4839,1136.2179 L290.6129,1137.325 L300.7419,1135.9533 L310.871,1136.5219 L321,1136.6133 " fill="#222222" style="stroke: #A9A9A9; stroke-width: 3.0;"/><polygon fill="#84BE84" points="20.0166,1153.6355,19.5768,1154.2363,19.0567,1155.1164,18.3128,1155.7095,17.5311,1156.0338,16.9078,1156.062,16.1067,1155.6564,15.3509,1155.3914,14.7771,1154.8534,14.4762,1154.2374,14.2977,1153.747,14.1229,1153.1064,13.8391,1152.5552,14.0572,1152.0169,14.2482,1151.4274,14.9653,1150.9611,15.4697,1150.3561,16.0941,1150.1552,16.8364,1149.9821,17.7883,1150.0849,18.3097,1150.3308,18.9158,1150.4423,19.6529,1151.1974,19.9098,1151.9946,20.0214,1152.5385,19.895,1153.4348" style="stroke: #038048; stroke-width: 1.0;"/><text fill="#A9A9A9" font-family="courier" font-size="15" lengthAdjust="spacingAndGlyphs" textLength="288" x="27" y="1156.6938">double getCharge(int daysRented)</text><!--class ChildrenPrice--><polygon fill="#222222" points="357,1090.5,357,1090.7102,366.875,1090.0857,376.75,1090.6933,386.625,1090.8997,396.5,1089.7866,406.375,1090.4223,416.25,1090.0735,426.125,1090.1165,436,1090.4318,445.875,1089.8086,455.75,1091.0536,465.625,1089.8697,475.5,1090.3022,485.375,1090.9319,495.25,1090.4142,505.125,1090.5682,515,1090.4681,524.875,1090.6785,534.75,1090.7391,544.625,1091.0857,554.5,1091.1711,564.375,1091.1793,574.25,1090.7546,584.125,1090.9636,594,1091.2022,603.875,1089.7788,613.75,1091.1785,623.625,1090.2035,633.5,1091.0338,643.375,1090.005,653.25,1090.4315,663.125,1091.2416,673,1090.5,672.9513,1090.5,673.1053,1099.9623,673.3386,1109.4246,673.4162,1118.8868,672.9961,1128.3491,673.2872,1137.8114,672.4276,1147.2737,673.2844,1156.736,673,1166.1982,673,1166.7464,663.125,1166.6428,653.25,1166.8113,643.375,1165.7152,633.5,1165.5461,623.625,1165.5768,613.75,1166.1394,603.875,1166.0017,594,1166.8797,584.125,1166.0236,574.25,1165.8552,564.375,1166.4265,554.5,1165.5314,544.625,1165.6791,534.75,1166.8472,524.875,1166.6339,515,1166.9327,505.125,1165.8764,495.25,1166.5174,485.375,1166.7887,475.5,1165.7258,465.625,1166.1024,455.75,1166.3242,445.875,1166.85,436,1166.1941,426.125,1166.6608,416.25,1165.6445,406.375,1165.521,396.5,1166.7019,386.625,1165.4813,376.75,1166.7072,366.875,1166.4049,357,1166.1982,356.7321,1166.1982,356.6462,1156.736,357.4588,1147.2737,356.7007,1137.8114,357.5919,1128.3491,356.4473,1118.8868,357.6174,1109.4246,357.4843,1099.9623,357,1090.5" style="stroke: #A9A9A9; stroke-width: 3.0;"/><text fill="#A9A9A9" font-family="courier" font-size="20" font-weight="bold" lengthAdjust="spacingAndGlyphs" textLength="156" x="437" y="1116.6074">ChildrenPrice</text><path d="M358,1128.6133 L358,1128.8935 L368.129,1128.0609 L378.2581,1128.871 L388.3871,1129.1462 L398.5161,1127.6621 L408.6452,1128.5097 L418.7742,1128.0446 L428.9032,1128.1019 L439.0323,1128.5224 L449.1613,1127.6915 L459.2903,1129.3515 L469.4194,1127.7729 L479.5484,1128.3496 L489.6774,1129.1892 L499.8065,1128.4989 L509.9355,1128.7043 L520.0645,1128.5707 L530.1935,1128.8513 L540.3226,1128.9321 L550.4516,1129.3942 L560.5806,1129.508 L570.7097,1129.519 L580.8387,1128.9528 L590.9677,1129.2314 L601.0968,1129.5496 L611.2258,1127.6517 L621.3548,1129.518 L631.4839,1128.2179 L641.6129,1129.325 L651.7419,1127.9533 L661.871,1128.5219 L672,1128.6133 " fill="#222222" style="stroke: #A9A9A9; stroke-width: 3.0;"/><path d="M358,1136.6133 L358,1136.8935 L368.129,1136.0609 L378.2581,1136.871 L388.3871,1137.1462 L398.5161,1135.6621 L408.6452,1136.5097 L418.7742,1136.0446 L428.9032,1136.1019 L439.0323,1136.5224 L449.1613,1135.6915 L459.2903,1137.3515 L469.4194,1135.7729 L479.5484,1136.3496 L489.6774,1137.1892 L499.8065,1136.4989 L509.9355,1136.7043 L520.0645,1136.5707 L530.1935,1136.8513 L540.3226,1136.9321 L550.4516,1137.3942 L560.5806,1137.508 L570.7097,1137.519 L580.8387,1136.9528 L590.9677,1137.2314 L601.0968,1137.5496 L611.2258,1135.6517 L621.3548,1137.518 L631.4839,1136.2179 L641.6129,1137.325 L651.7419,1135.9533 L661.871,1136.5219 L672,1136.6133 " fill="#222222" style="stroke: #A9A9A9; stroke-width: 3.0;"/><polygon fill="#84BE84" points="371.0166,1153.6355,370.5768,1154.2363,370.0567,1155.1164,369.3128,1155.7095,368.5311,1156.0338,367.9078,1156.062,367.1067,1155.6564,366.3509,1155.3914,365.7771,1154.8534,365.4762,1154.2374,365.2977,1153.747,365.1229,1153.1064,364.8391,1152.5552,365.0572,1152.0169,365.2482,1151.4274,365.9653,1150.9611,366.4697,1150.3561,367.0941,1150.1552,367.8364,1149.9821,368.7883,1150.0849,369.3097,1150.3308,369.9158,1150.4423,370.6529,1151.1974,370.9098,1151.9946,371.0214,1152.5385,370.895,1153.4348" style="stroke: #038048; stroke-width: 1.0;"/><text fill="#A9A9A9" font-family="courier" font-size="15" lengthAdjust="spacingAndGlyphs" textLength="288" x="378" y="1156.6938">double getCharge(int daysRented)</text><!--class NewReleasePrice--><polygon fill="#222222" points="708.5,1069,708.5,1069.2102,718.381,1068.5857,728.2619,1069.1933,738.1429,1069.3997,748.0238,1068.2866,757.9048,1068.9223,767.7857,1068.5735,777.6667,1068.6165,787.5476,1068.9318,797.4286,1068.3086,807.3095,1069.5536,817.1905,1068.3697,827.0714,1068.8022,836.9524,1069.4319,846.8333,1068.9142,856.7143,1069.0682,866.5952,1068.9681,876.4762,1069.1785,886.3571,1069.2391,896.2381,1069.5857,906.119,1069.6711,916,1069.6793,925.881,1069.2546,935.7619,1069.4636,945.6429,1069.7022,955.5238,1068.2788,965.4048,1069.6785,975.2857,1068.7035,985.1667,1069.5338,995.0476,1068.505,1004.9286,1068.9315,1014.8095,1069.7416,1024.6905,1068.9513,1034.5714,1069.1053,1044.4524,1069.3386,1054.3333,1069.4162,1064.2143,1068.9961,1074.0952,1069.2872,1083.9762,1068.4276,1093.8571,1069.2844,1103.7381,1069.5482,1113.619,1069.4445,1123.5,1069,1124.113,1069,1123.0169,1078.9057,1122.8478,1088.8114,1122.8786,1098.717,1123.4411,1108.6227,1123.3035,1118.5284,1124.1814,1128.4341,1123.3253,1138.3398,1123.1569,1148.2454,1123.7283,1158.1511,1122.8332,1168.0568,1122.9809,1177.9625,1123.5,1187.8682,1123.5,1188.5171,1113.619,1188.3038,1103.7381,1188.6027,1093.8571,1187.5464,1083.9762,1188.1874,1074.0952,1188.4586,1064.2143,1187.3958,1054.3333,1187.7723,1044.4524,1187.9941,1034.5714,1188.5199,1024.6905,1187.864,1014.8095,1188.3307,1004.9286,1187.3144,995.0476,1187.1909,985.1667,1188.3718,975.2857,1187.1512,965.4048,1188.3771,955.5238,1188.0748,945.6429,1187.6002,935.7619,1187.5144,925.881,1188.3269,916,1187.5688,906.119,1188.46,896.2381,1187.3154,886.3571,1188.4856,876.4762,1188.3525,866.5952,1188.1131,856.7143,1187.9154,846.8333,1188.5948,836.9524,1188.4817,827.0714,1188.0374,817.1905,1188.1364,807.3095,1187.7379,797.4286,1188.5846,787.5476,1188.023,777.6667,1188.0407,767.7857,1187.2598,757.9048,1187.4629,748.0238,1188.3989,738.1429,1188.2979,728.2619,1187.8252,718.381,1187.546,708.5,1187.8682,708.2811,1187.8682,707.8138,1177.9625,708.9147,1168.0568,709.2396,1158.1511,709.0264,1148.2454,709.1949,1138.3398,708.3633,1128.4341,708.5872,1118.5284,708.1124,1108.6227,708.784,1098.717,708.7468,1088.8114,709.0524,1078.9057,708.5,1069" style="stroke: #A9A9A9; stroke-width: 3.0;"/><text fill="#A9A9A9" font-family="courier" font-size="20" font-weight="bold" lengthAdjust="spacingAndGlyphs" textLength="180" x="826" y="1095.1074">NewReleasePrice</text><path d="M709.5,1107.1133 L709.5,1107.3935 L719.5732,1106.5609 L729.6463,1107.371 L739.7195,1107.6462 L749.7927,1106.1621 L759.8659,1107.0097 L769.939,1106.5446 L780.0122,1106.6019 L790.0854,1107.0224 L800.1585,1106.1915 L810.2317,1107.8515 L820.3049,1106.2729 L830.378,1106.8496 L840.4512,1107.6892 L850.5244,1106.9989 L860.5976,1107.2043 L870.6707,1107.0707 L880.7439,1107.3513 L890.8171,1107.4321 L900.8902,1107.8942 L910.9634,1108.008 L921.0366,1108.019 L931.1098,1107.4528 L941.1829,1107.7314 L951.2561,1108.0496 L961.3293,1106.1517 L971.4024,1108.018 L981.4756,1106.7179 L991.5488,1107.825 L1001.622,1106.4533 L1011.6951,1107.0219 L1021.7683,1108.1021 L1031.8415,1107.0483 L1041.9146,1107.2537 L1051.9878,1107.5648 L1062.061,1107.6683 L1072.1341,1107.1081 L1082.2073,1107.4962 L1092.2805,1106.3501 L1102.3537,1107.4925 L1112.4268,1107.8442 L1122.5,1107.1133 " fill="#222222" style="stroke: #A9A9A9; stroke-width: 3.0;"/><path d="M709.5,1115.1133 L709.5,1115.3935 L719.5732,1114.5609 L729.6463,1115.371 L739.7195,1115.6462 L749.7927,1114.1621 L759.8659,1115.0097 L769.939,1114.5446 L780.0122,1114.6019 L790.0854,1115.0224 L800.1585,1114.1915 L810.2317,1115.8515 L820.3049,1114.2729 L830.378,1114.8496 L840.4512,1115.6892 L850.5244,1114.9989 L860.5976,1115.2043 L870.6707,1115.0707 L880.7439,1115.3513 L890.8171,1115.4321 L900.8902,1115.8942 L910.9634,1116.008 L921.0366,1116.019 L931.1098,1115.4528 L941.1829,1115.7314 L951.2561,1116.0496 L961.3293,1114.1517 L971.4024,1116.018 L981.4756,1114.7179 L991.5488,1115.825 L1001.622,1114.4533 L1011.6951,1115.0219 L1021.7683,1116.1021 L1031.8415,1115.0483 L1041.9146,1115.2537 L1051.9878,1115.5648 L1062.061,1115.6683 L1072.1341,1115.1081 L1082.2073,1115.4962 L1092.2805,1114.3501 L1102.3537,1115.4925 L1112.4268,1115.8442 L1122.5,1115.1133 " fill="#222222" style="stroke: #A9A9A9; stroke-width: 3.0;"/><polygon fill="#84BE84" points="722.5166,1132.1355,722.0768,1132.7363,721.5567,1133.6164,720.8128,1134.2095,720.0311,1134.5338,719.4078,1134.562,718.6067,1134.1564,717.8509,1133.8914,717.2771,1133.3534,716.9762,1132.7374,716.7977,1132.247,716.6229,1131.6064,716.3391,1131.0552,716.5572,1130.5169,716.7482,1129.9274,717.4653,1129.4611,717.9697,1128.8561,718.5941,1128.6552,719.3364,1128.4821,720.2883,1128.5849,720.8097,1128.8308,721.4158,1128.9423,722.1529,1129.6974,722.4098,1130.4946,722.5214,1131.0385,722.395,1131.9348" style="stroke: #038048; stroke-width: 1.0;"/><text fill="#A9A9A9" font-family="courier" font-size="15" lengthAdjust="spacingAndGlyphs" textLength="162" x="729.5" y="1135.1938">int getPriceCode()</text><polygon fill="#84BE84" points="722.5166,1153.7204,722.0768,1154.3213,721.5567,1155.2014,720.8128,1155.7945,720.0311,1156.1188,719.4078,1156.1469,718.6067,1155.7413,717.8509,1155.4763,717.2771,1154.9383,716.9762,1154.3224,716.7977,1153.832,716.6229,1153.1914,716.3391,1152.6401,716.5572,1152.1019,716.7482,1151.5123,717.4653,1151.046,717.9697,1150.441,718.5941,1150.2401,719.3364,1150.0671,720.2883,1150.1699,720.8097,1150.4158,721.4158,1150.5272,722.1529,1151.2824,722.4098,1152.0795,722.5214,1152.6235,722.395,1153.5198" style="stroke: #038048; stroke-width: 1.0;"/><text fill="#A9A9A9" font-family="courier" font-size="15" lengthAdjust="spacingAndGlyphs" textLength="288" x="729.5" y="1156.7788">double getCharge(int daysRented)</text><polygon fill="#84BE84" points="722.5166,1175.3054,722.0768,1175.9063,721.5567,1176.7863,720.8128,1177.3794,720.0311,1177.7038,719.4078,1177.7319,718.6067,1177.3263,717.8509,1177.0613,717.2771,1176.5233,716.9762,1175.9073,716.7977,1175.4169,716.6229,1174.7763,716.3391,1174.2251,716.5572,1173.6869,716.7482,1173.0973,717.4653,1172.631,717.9697,1172.026,718.5941,1171.8251,719.3364,1171.6521,720.2883,1171.7549,720.8097,1172.0007,721.4158,1172.1122,722.1529,1172.8673,722.4098,1173.6645,722.5214,1174.2084,722.395,1175.1047" style="stroke: #038048; stroke-width: 1.0;"/><text fill="#A9A9A9" font-family="courier" font-size="15" lengthAdjust="spacingAndGlyphs" textLength="387" x="729.5" y="1178.3638">int getFrequentRenterPoints(int daysRented)</text><!--link Customer to Rental--><path d="M515,248.19 L515.0934,248.19 L514.8159,254.858 L515.0859,261.526 L515.1776,268.194 L514.6829,274.862 L515,281.53 " fill="none" style="stroke: #A9A9A9; stroke-width: 2.0;"/><polygon fill="#A9A9A9" points="515,294.85,515.064,294.8785,515.6738,292.9939,516.6589,291.2762,517.5217,289.5041,517.9827,287.5534,519,285.85,518.9817,285.8317,518.0995,286.5495,517.3096,287.3596,516.5839,288.2339,515.637,288.887,515,289.85,515.1305,289.9805,514.0514,288.9014,513.3534,288.2034,512.7018,287.5518,511.7798,286.6298,511,285.85,511.0208,285.8592,511.7903,287.6457,512.6544,289.4742,513.4728,291.2824,514.3784,293.1293,515,294.85" style="stroke: #A9A9A9; stroke-width: 2.0;"/><path d="M515,289.85 L515.0934,289.85 L514.8159,288.25 L515.0859,286.65 L515.1776,285.05 L514.6829,283.45 L515,281.85 " fill="#A9A9A9" style="stroke: #A9A9A9; stroke-width: 2.0;"/><polygon fill="#222222" points="515,235.13,515.0583,235.1689,514.0851,236.2534,513.4536,237.5657,512.7109,238.8039,511.6021,239.7981,511,241.13,510.9784,241.1156,511.6817,242.2511,512.4936,243.4591,513.3811,244.7174,514.0082,245.8022,515,247.13,515.1536,247.2324,515.6252,245.8135,516.5451,244.6934,517.5198,243.6099,518.1762,242.3141,519,241.13,519.0189,241.1426,518.1911,239.9241,517.4495,238.763,516.6663,237.5742,515.9624,236.4383,515,235.13" style="stroke: #A9A9A9; stroke-width: 2.0;"/><!--link Rental to Movie--><path d="M515,500.19 L515.2802,500.19 L514.4476,511.072 L515.2577,521.954 L515.5329,532.836 L514.0488,543.718 L515,554.6 " fill="none" style="stroke: #A9A9A9; stroke-width: 2.0;"/><polygon fill="#A9A9A9" points="515,559.76,515.064,559.7885,515.6738,557.9039,516.6589,556.1862,517.5217,554.4141,517.9827,552.4634,519,550.76,518.9817,550.7417,518.0995,551.4595,517.3096,552.2696,516.5839,553.1439,515.637,553.797,515,554.76,515.1305,554.8905,514.0514,553.8114,513.3534,553.1134,512.7018,552.4618,511.7798,551.5398,511,550.76,511.0208,550.7692,511.7903,552.5557,512.6544,554.3842,513.4728,556.1924,514.3784,558.0393,515,559.76" style="stroke: #A9A9A9; stroke-width: 2.0;"/><!--link Movie to Price--><path d="M515,843.25 L515.2802,843.25 L514.4476,852.568 L515.2577,861.886 L515.5329,871.204 L514.0488,880.522 L515,889.84 " fill="none" style="stroke: #A9A9A9; stroke-width: 2.0;"/><polygon fill="#A9A9A9" points="515,830.01,515.0583,830.0489,514.0851,831.1334,513.4536,832.4457,512.7109,833.6839,511.6021,834.6781,511,836.01,510.9784,835.9956,511.6817,837.1311,512.4936,838.3391,513.3811,839.5974,514.0082,840.6822,515,842.01,515.1536,842.1124,515.6252,840.6935,516.5451,839.5734,517.5198,838.4899,518.1762,837.1941,519,836.01,519.0189,836.0226,518.1911,834.8041,517.4495,833.643,516.6663,832.4542,515.9624,831.3183,515,830.01" style="stroke: #A9A9A9; stroke-width: 2.0;"/><!--link Price to RegularPrice--><path d="M380.57,1018.29 L380.6962,1018.5402 L371.3738,1022.3086 L362.791,1027.5439 L353.9674,1032.3015 L344.3517,1035.4882 L335.7858,1040.7569 L326.629,1044.8535 L317.7073,1049.4166 L308.9491,1054.3039 L299.6274,1058.0738 L291.4274,1064.0679 L281.7691,1067.1703 L273.0813,1072.1971 L264.5118,1077.4586 L255.2535,1081.3541 L246.3985,1086.0494 L237.41,1090.48 " fill="none" style="stroke: #A9A9A9; stroke-width: 2.0;"/><polygon fill="none" points="377.6,1011.95,377.6091,1012.0195,381.784,1011.2611,386.0124,1010.9099,390.2234,1010.4261,394.377,1009.5062,398.61,1009.19,398.5913,1009.172,395.5656,1012.1433,392.634,1015.2053,389.7676,1018.3302,386.6761,1021.2381,383.9,1024.45,384.0648,1024.5331,382.4524,1021.8554,381.3211,1019.4203,380.2486,1017.0148,378.8345,1014.4371,377.6,1011.95" style="stroke: #A9A9A9; stroke-width: 2.0;"/><!--link Price to ChildrenPrice--><path d="M515,1029.76 L515.2802,1029.76 L514.4476,1039.875 L515.2577,1049.99 L515.5329,1060.105 L514.0488,1070.22 L514.8964,1080.335 L515,1090.45 " fill="none" style="stroke: #A9A9A9; stroke-width: 2.0;"/><polygon fill="none" points="508,1029.44,508.0661,1029.4631,509.2696,1025.3944,510.8608,1021.4613,512.3257,1017.484,513.3756,1013.3614,515,1009.44,514.9755,1009.4314,516.2658,1013.393,517.6793,1017.3978,519.1786,1021.4325,520.3825,1025.3639,522,1029.44,522,1029.6245,519.2,1029.2299,516.4,1029.3741,513.6,1029.584,510.8,1029.4114,508,1029.44" style="stroke: #A9A9A9; stroke-width: 2.0;"/><!--link Price to NewReleasePrice--><path d="M666.07,1017.18 L666.1832,1017.4364 L674.8585,1020.6523 L684.1971,1025.3712 L693.3198,1029.6006 L701.7321,1032.2206 L711.0859,1036.9737 L719.9096,1040.5259 L728.9443,1044.5561 L738.1256,1048.9184 L746.8016,1052.1359 L756.4835,1057.6322 L764.8576,1060.1658 L774.102,1064.6711 L783.22,1068.89 " fill="none" style="stroke: #A9A9A9; stroke-width: 2.0;"/><polygon fill="none" points="663.16,1023.55,663.2079,1023.6011,659.9716,1020.5532,657.016,1017.805,653.969,1014.9593,650.6215,1011.7924,647.69,1009.07,647.688,1009.0442,651.9048,1009.2623,656.1319,1009.6106,660.3662,1010.0494,664.5758,1010.1763,668.82,1010.74,668.9888,1010.8146,667.4958,1013.2171,666.4957,1015.8374,665.5557,1018.4842,664.2658,1020.9764,663.16,1023.55" style="stroke: #A9A9A9; stroke-width: 2.0;"/><!--
@startuml
skinparam backgroundColor #222222
skinparam handwritten true
hide circle
hide stereotype
skinparam shadowing false
skinparam padding 1
skinparam arrow {
    Thickness 2
    Color #DarkGrey
    FontSize 20
    FontName courier
    FontStyle normal
    FontColor #DarkGrey
}
skinparam class {
    BorderThickness 3
    BorderColor #DarkGrey
    BackgroundColor #222222
    FontSize 20
    FontName courier
    FontStyle bold
    FontColor #DarkGrey
}
skinparam classAttribute {
    FontSize 15
    FontName courier
    FontStyle normal
    FontColor #DarkGrey
}

class Customer {
- String name;
- List<Rental> rentals;
+ Costumer(String name)
+ void addRental(Rental rental)
+ String getName()
+ String statement()
- double getTotalCharge()
- int getTotalFrequentRenterPoints()
}

class Rental {
- Movie movie;
- int daysRented;
+ Rental(Movie movie, int daysRented)
+ int getDaysRented()
+ Movie getMovie()
+ double getCharge()
+ int getFrequentRenterPoints()
}

class Movie {
+ static final int REGULAR = 0;
+ static final int NEW_RELEASE = 1;
+ static final int CHILDRENS = 2;
- String title;
- Price price;
+ Movie(String title, int priceCode)
+ double getCharge(int daysRented)
+ int getFrequentRenterPoints(int daysRented)
+ void setPriceCode(int priceCode)
+ String getTitle()
}

class Price {
+ int getPriceCode()
+ double getCharge(int daysRented)
+ int getFrequentRenterPoints(int daysRented)
}
class RegularPrice {
+ double getCharge(int daysRented)
}
class ChildrenPrice {
+ double getCharge(int daysRented)
}
class NewReleasePrice {
+ int getPriceCode()
+ double getCharge(int daysRented)
+ int getFrequentRenterPoints(int daysRented)
}

Customer o-down-> Rental
Rental -down-> Movie
Movie *-down- Price
Price <|-down- RegularPrice
Price <|-down- ChildrenPrice
Price <|-down- NewReleasePrice
@enduml

PlantUML version 1.2019.05(Sat Apr 20 18:45:36 CEST 2019)
(GPL source distribution)
Java Runtime: Java(TM) SE Runtime Environment
JVM: Java HotSpot(TM) 64-Bit Server VM
Java Version: 11.0.14+8-LTS-263
Operating System: Windows 10
OS Version: 10.0
Default Encoding: windows-1252
Language: es
Country: ES
--></g></svg>