<?xml version="1.0" encoding="UTF-8" standalone="no"?><svg xmlns="http://www.w3.org/2000/svg" xmlns:xlink="http://www.w3.org/1999/xlink" contentScriptType="application/ecmascript" contentStyleType="text/css" height="509px" preserveAspectRatio="none" style="width:746px;height:509px;background:#222222;" version="1.1" viewBox="0 0 746 509" width="746px" zoomAndPan="magnify"><defs/><g><!--class Colaborador--><polygon fill="#222222" points="210,8,210,8.2102,220,7.5857,230,8.1933,240,8.3997,250,7.2866,260,7.9223,270,7.5735,280,7.6165,290,7.9318,300,7.3086,310,8.5536,320,7.3697,330,7.8022,340,8,340.144,8,339.9714,16.2313,340.0227,24.4625,339.9894,32.6937,340.0595,40.925,340,49.1563,340,49.3954,330,49.7419,320,49.8273,310,49.8355,300,49.4109,290,49.6198,280,49.8585,270,48.4351,260,49.8348,250,48.8597,240,49.6901,230,48.6612,220,49.0878,210,49.1563,210.2472,49.1563,209.9838,40.925,210.0351,32.6938,210.1129,24.4625,210.1387,16.2313,210,8" style="stroke: #A9A9A9; stroke-width: 1.5;"/><text fill="#A9A9A9" font-family="sans-serif" font-size="20" font-style="italic" font-weight="bold" lengthAdjust="spacingAndGlyphs" textLength="118" x="216" y="36.7617">Colaborador</text><!--class Estilizador--><polygon fill="#222222" points="219.5,109,219.5,109.2102,229.5909,108.5857,239.6818,109.1933,249.7727,109.3997,259.8636,108.2866,269.9545,108.9223,280.0455,108.5735,290.1364,108.6165,300.2273,108.9318,310.3182,108.3086,320.4091,109.5536,330.5,109,330.2899,109,330.4341,117.2313,330.644,125.4625,330.4714,133.6938,330.5227,141.925,330.5,150.1563,330.5,150.1243,320.4091,150.3348,310.3182,150.3954,300.2273,150.7419,290.1364,150.8273,280.0455,150.8355,269.9545,150.4109,259.8636,150.6198,249.7727,150.8585,239.6818,149.4351,229.5909,150.8348,219.5,150.1563,219.4012,150.1563,219.6779,141.925,219.335,133.6938,219.4772,125.4625,219.7472,117.2313,219.5,109" style="stroke: #A9A9A9; stroke-width: 1.5;"/><text fill="#A9A9A9" font-family="sans-serif" font-size="20" font-weight="bold" lengthAdjust="spacingAndGlyphs" textLength="99" x="225.5" y="137.7617">Estilizador</text><!--class XML--><polygon fill="#222222" points="6,248,6,248.2102,16.8,247.5857,27.6,248.1933,38.4,248.3997,49.2,247.2866,60,248,59.9741,248,59.8578,256.2313,59.8722,264.4625,59.9773,272.6938,59.7695,280.925,60,289.1563,60,289.7099,49.2,288.526,38.4,288.9585,27.6,289.5882,16.8,289.0705,6,289.1563,6.0227,289.1563,5.9894,280.925,6.0595,272.6938,6.0797,264.4625,6.1952,256.2313,6,248" style="stroke: #A9A9A9; stroke-width: 1.5;"/><text fill="#A9A9A9" font-family="sans-serif" font-size="20" font-weight="bold" lengthAdjust="spacingAndGlyphs" textLength="42" x="12" y="276.7617">XML</text><!--class HojaEstilos--><polygon fill="#222222" points="35,407.5,35,407.7102,44.5,407.0857,54,407.6933,63.5,407.8997,73,406.7866,82.5,407.4223,92,407.0735,101.5,407.1165,111,407.5,110.9318,407.5,110.3086,417.6632,111.5536,427.8264,110.3697,437.9896,110.8022,448.1528,111.4319,458.316,110.9142,468.4792,111.0682,478.6424,110.9681,488.8056,111,498.9688,111,499.1473,101.5,499.2079,92,499.5544,82.5,499.6398,73,499.648,63.5,499.2234,54,499.4323,44.5,499.671,35,498.9688,34.2788,498.9688,35.6785,488.8056,34.7035,478.6424,35.5338,468.4792,34.505,458.316,34.9315,448.1528,35.7416,437.9896,34.9513,427.8264,35.1053,417.6632,35,407.5" style="stroke: #A9A9A9; stroke-width: 1.5;"/><text fill="#A9A9A9" font-family="sans-serif" font-size="20" font-weight="bold" lengthAdjust="spacingAndGlyphs" textLength="42" x="52" y="436.2617">Hoja</text><text fill="#A9A9A9" font-family="sans-serif" font-size="20" font-weight="bold" lengthAdjust="spacingAndGlyphs" textLength="23" x="61.5" y="461.418">de</text><text fill="#A9A9A9" font-family="sans-serif" font-size="20" font-weight="bold" lengthAdjust="spacingAndGlyphs" textLength="64" x="41" y="486.5742">Estilos</text><!--class Formato--><polygon fill="#222222" points="166.5,248,166.5,248.2102,176.6111,247.5857,186.7222,248.1933,196.8333,248.3997,206.9444,247.2866,217.0556,247.9223,227.1667,247.5735,237.2778,247.6165,247.3889,247.9318,257.5,248,257.2695,248,257.6845,256.2313,257.2899,264.4625,257.4341,272.6938,257.644,280.925,257.5,289.1563,257.5,289.0705,247.3889,289.2245,237.2778,289.1243,227.1667,289.3348,217.0556,289.3954,206.9444,289.7419,196.8333,289.8273,186.7222,289.8355,176.6111,289.4109,166.5,289.1563,166.6545,289.1563,166.7341,280.925,166.2596,272.6938,166.7262,264.4625,166.4012,256.2313,166.5,248" style="stroke: #A9A9A9; stroke-width: 1.5;"/><text fill="#A9A9A9" font-family="sans-serif" font-size="20" font-weight="bold" lengthAdjust="spacingAndGlyphs" textLength="79" x="172.5" y="276.7617">Formato</text><!--class CSS--><polygon fill="#222222" points="292.5,223,292.5,223.2102,302.8333,222.5857,313.1667,223.1933,323.5,223.3997,333.8333,222.2866,344.1667,222.9223,354.5,222.5735,364.8333,222.6165,375.1667,222.9318,385.5,223,384.8086,223,386.0536,233.1632,384.8697,243.3264,385.3022,253.4896,385.9319,263.6528,385.4142,273.816,385.5682,283.9792,385.4681,294.1424,385.6785,304.3056,385.5,314.4688,385.5,314.7079,375.1667,315.0544,364.8333,315.1398,354.5,315.148,344.1667,314.7234,333.8333,314.9323,323.5,315.171,313.1667,313.7476,302.8333,315.1473,292.5,314.4688,292.2035,314.4688,293.0338,304.3056,292.005,294.1424,292.4315,283.9792,293.2416,273.816,292.4513,263.6528,292.6053,253.4896,292.8386,243.3264,292.9162,233.1632,292.5,223" style="stroke: #FFA500; stroke-width: 1.5;"/><text fill="#FFA500" font-family="sans-serif" font-size="20" font-weight="bold" lengthAdjust="spacingAndGlyphs" textLength="81" x="298.5" y="251.7617">Cascade</text><text fill="#FFA500" font-family="sans-serif" font-size="20" font-weight="bold" lengthAdjust="spacingAndGlyphs" textLength="47" x="315.5" y="276.918">Style</text><text fill="#FFA500" font-family="sans-serif" font-size="20" font-weight="bold" lengthAdjust="spacingAndGlyphs" textLength="54" x="312" y="302.0742">Sheet</text><!--class XSL--><polygon fill="#222222" points="421,210,421,210.2102,430.875,209.5857,440.75,210.1933,450.625,210.3997,460.5,209.2866,470.375,209.9223,480.25,209.5735,490.125,209.6165,500,209.9318,509.875,209.3086,519.75,210.5536,529.625,209.3697,539.5,209.8022,549.375,210.4319,559.25,209.9142,569.125,210.0682,579,210,578.9681,210,579.1785,219.7188,579.2391,229.4375,579.5857,239.1563,579.6711,248.875,579.6793,258.5938,579.2546,268.3125,579.4636,278.0313,579.7022,287.75,578.2788,297.4688,579.6785,307.1875,578.7035,316.9063,579,326.625,579,327.1588,569.125,326.13,559.25,326.5565,549.375,327.3666,539.5,326.5763,529.625,326.7303,519.75,326.9636,509.875,327.0412,500,326.6211,490.125,326.9122,480.25,326.0526,470.375,326.9094,460.5,327.1732,450.625,327.0695,440.75,327.238,430.875,326.1419,421,326.625,420.3478,326.625,420.3786,316.9063,420.9411,307.1875,420.8035,297.4688,421.6814,287.75,420.8253,278.0313,420.6569,268.3125,421.2283,258.5938,420.3332,248.875,420.4809,239.1563,421.649,229.4375,421.4357,219.7188,421,210" style="stroke: #FFA500; stroke-width: 1.5;"/><text fill="#FFA500" font-family="sans-serif" font-size="20" font-weight="bold" lengthAdjust="spacingAndGlyphs" textLength="42" x="479" y="238.7617">XML</text><text fill="#FFA500" font-family="sans-serif" font-size="20" font-weight="bold" lengthAdjust="spacingAndGlyphs" textLength="110" x="445" y="263.918">Stylesheets</text><text fill="#FFA500" font-family="sans-serif" font-size="20" font-weight="bold" lengthAdjust="spacingAndGlyphs" textLength="146" x="427" y="289.0742">Transformation</text><text fill="#FFA500" font-family="sans-serif" font-size="20" font-weight="bold" lengthAdjust="spacingAndGlyphs" textLength="93" x="453.5" y="314.2305">Language</text><!--class Procesador--><polygon fill="#222222" points="614.5,248,614.5,248.2102,624.5833,247.5857,634.6667,248.1933,644.75,248.3997,654.8333,247.2866,664.9167,247.9223,675,247.5735,685.0833,247.6165,695.1667,247.9318,705.25,247.3086,715.3333,248.5536,725.4167,247.3697,735.5,248,735.4341,248,735.644,256.2313,735.4714,264.4625,735.5227,272.6938,735.4894,280.925,735.5,289.1563,735.5,289.3348,725.4167,289.3954,715.3333,289.7419,705.25,289.8273,695.1667,289.8355,685.0833,289.4109,675,289.6198,664.9167,289.8585,654.8333,288.4351,644.75,289.8348,634.6667,288.8597,624.5833,289.6901,614.5,289.1563,614.335,289.1563,614.4772,280.925,614.7472,272.6938,614.4838,264.4625,614.5351,256.2313,614.5,248" style="stroke: #A9A9A9; stroke-width: 1.5;"/><text fill="#A9A9A9" font-family="sans-serif" font-size="20" font-weight="bold" lengthAdjust="spacingAndGlyphs" textLength="109" x="620.5" y="276.7617">Procesador</text><!--link Colaborador to Estilizador--><path d="M275,69.11 L275.0934,69.11 L274.8159,77.084 L275.0859,85.058 L275.1776,93.032 L274.6829,101.006 L275,108.98 " fill="none" style="stroke: #A9A9A9; stroke-width: 2.0;"/><polygon fill="none" points="268,69.06,268.0661,69.0831,269.2696,65.0144,270.8608,61.0813,272.3257,57.104,273.3756,52.9814,275,49.06,274.9755,49.0514,276.2658,53.013,277.6793,57.0178,279.1786,61.0525,280.3825,64.9839,282,69.06,282,69.2445,279.2,68.8499,276.4,68.9941,273.6,69.204,270.8,69.0314,268,69.06" style="stroke: #A9A9A9; stroke-width: 2.0;"/><!--link Estilizador to Procesador--><path d="M343.67,139.46 L343.6854,139.5521 L348.9887,140.1731 L354.3824,141.3341 L359.7467,142.3193 L365.0142,142.7261 L370.4156,143.9335 L370.4094,143.8996 L373.2716,144.2745 L376.165,144.8206 L379.0802,145.4859 L381.9205,145.7408 L384.8657,146.5705 L384.9125,146.8121 L387.8235,146.8789 L390.8711,147.6511 L393.9354,148.5093 L396.9028,148.8668 L399.9211,149.4877 L399.9272,149.5174 L403.0335,150.1152 L406.1676,150.8483 L409.2882,151.5162 L412.4345,152.3085 L415.4972,152.695 L415.5611,152.9864 L418.7643,153.6914 L421.9263,154.2086 L425.1487,155.0009 L428.3738,155.806 L431.5095,156.2026 L431.4366,155.8905 L434.8507,157.2599 L438.025,157.6015 L441.3816,158.7244 L444.5505,159.0427 L447.8732,160.0205 L447.8658,159.991 L451.2789,161.168 L454.5202,161.6548 L457.8628,162.5489 L461.214,163.4772 L464.5038,164.1588 L464.5513,164.3375 L467.8659,165.0508 L471.2617,166.0695 L474.5261,166.594 L477.9864,167.8558 L481.3165,168.6273 L481.3832,168.8617 L484.7527,169.7791 L488.1552,170.813 L491.404,171.3062 L494.7656,172.1957 L498.2269,173.4363 L498.1464,173.1721 L501.604,174.4431 L504.9708,175.4165 L508.4693,176.8216 L511.743,177.4895 L515.1503,178.5956 L515.1028,178.4507 L518.5522,179.796 L521.7987,180.5219 L525.1895,181.6883 L528.7215,183.2856 L532.002,184.1155 L532.0665,184.2981 L535.4497,185.6014 L538.6326,186.3367 L542.0665,187.7834 L545.4457,189.0752 L548.6975,190.0058 L548.6227,189.8096 L551.9732,191.2201 L555.2993,192.5664 L558.6734,194.039 L561.8605,195.0207 L565.1521,196.2766 L565.2305,196.4666 L568.2839,197.3814 L571.4888,198.663 L574.9149,200.4803 L577.9337,201.3112 L581.2811,202.938 L581.3738,203.1444 L584.4625,204.4342 L587.5199,205.6542 L590.648,207.0318 L593.9398,208.7736 L597,210 L596.9385,209.8821 L599.5641,211.5075 L601.7711,212.3308 L604.4541,214.0662 L606.8691,215.2881 L609.2119,216.3716 L609.2688,216.4643 L611.612,217.8561 L614.1591,219.5802 L616.5219,221.004 L618.8077,222.3024 L621.1575,223.705 L621.2252,223.8031 L623.4065,225.2336 L625.9022,227.1194 L628.0422,228.4902 L630.3286,230.0729 L632.5669,231.5859 L632.4038,231.3702 L634.5789,233.0451 L636.9504,234.9797 L639.0439,236.5468 L641.0379,237.982 L643.17,239.6 " fill="none" style="stroke: #A9A9A9; stroke-width: 2.0;"/><polygon fill="#A9A9A9" points="653.31,247.85,653.3725,247.8817,652.2949,246.0312,651.5835,244.3667,650.7529,242.6416,649.5301,240.7173,648.8502,239.0688,648.8244,239.0661,648.8248,240.1796,648.9551,241.3065,649.1757,242.4427,649.0851,243.5468,649.4304,244.6958,649.4494,244.8794,648.2835,244.6029,647.1729,244.8623,646.069,245.1872,644.9259,245.1316,643.8034,245.2761,643.8094,245.298,645.702,245.7806,647.6216,246.3631,649.5282,246.8974,651.4597,247.5237,653.31,247.85" style="stroke: #A9A9A9; stroke-width: 2.0;"/><path d="M649.4304,244.6958 L649.4894,244.7682 L648.0721,243.5418 L647.0005,242.7401 L645.8163,241.8001 L644.2619,240.4053 L643.22,239.64 " fill="#A9A9A9" style="stroke: #A9A9A9; stroke-width: 2.0;"/><polygon fill="#A9A9A9" points="330.77,137.48,330.8172,137.5318,331.7429,138.3494,332.9453,139.4706,334.0576,140.4929,334.8736,141.1901,336.0997,142.3374,336.0888,142.3139,337.3463,141.5983,338.6591,141.0009,340.0103,140.4859,341.2291,139.6874,342.6333,139.2859,342.7577,139.4223,341.4259,138.1591,340.457,137.2942,339.5325,136.4779,338.3503,135.3788,337.3036,134.4285,337.3133,134.4491,335.9924,135.0291,334.7154,135.703,333.4172,136.3316,332.1593,137.0466,330.77,137.48" style="stroke: #A9A9A9; stroke-width: 2.0;"/><!--link Estilizador to Formato--><path d="M265.97,150.13 L266.2246,150.2471 L261.1911,159.2002 L257.6501,168.8397 L253.6232,178.2556 L247.9978,186.9366 L244.4909,196.5917 L239.7913,205.6984 L235.5664,215.0234 L231.6714,224.5 L226.6395,233.4539 L223.2,243.14 " fill="none" style="stroke: #A9A9A9; stroke-width: 2.0; stroke-dasharray: 7.0,7.0;"/><polygon fill="#A9A9A9" points="221.01,247.91,221.0562,247.9627,222.4004,246.5079,224.0154,245.3621,225.5422,244.1156,226.7791,242.5384,228.4172,241.419,228.4083,241.3947,227.3063,241.6761,226.2494,242.08,225.2239,242.5692,224.0903,242.7647,223.108,243.3715,223.2812,243.4352,222.5203,242.2371,222.2652,241.225,222.0717,240.2356,221.5192,239.1142,221.1556,238.0622,221.1783,238.0626,221.1158,240.0316,221.1568,242.0022,221.1479,243.9721,221.2343,245.9433,221.01,247.91" style="stroke: #A9A9A9; stroke-width: 2.0;"/><!--link Estilizador to XML--><path d="M219.26,147.21 L219.291,147.2981 L216.1488,148.1081 L213.1882,149.4347 L210.1684,150.5931 L206.9543,151.1981 L204.0092,152.5691 L203.9971,152.5368 L200.7022,153.6083 L197.4684,154.8428 L194.2773,156.1906 L190.9395,157.1479 L187.807,158.6522 L187.8991,158.8804 L184.33,159.7525 L181.0297,161.291 L177.7622,162.9107 L174.3039,164.0574 L170.946,165.4529 L170.9581,165.4807 L167.4949,166.9423 L164.0868,168.5305 L160.6521,170.0576 L157.2682,171.7012 L153.7188,172.965 L153.8467,173.2344 L150.3881,174.8811 L146.847,176.3541 L143.4266,178.0814 L140.012,179.8206 L136.4179,181.1821 L136.2696,180.8979 L133.1411,183.2326 L129.5242,184.6315 L126.2786,186.7418 L122.6507,188.1196 L119.3361,190.0978 L119.3208,190.0715 L116.1874,192.3046 L112.6972,193.9223 L109.4175,195.9032 L106.1554,197.9145 L102.7659,199.7059 L102.8671,199.8608 L99.6118,201.7633 L96.5293,203.9304 L93.1673,205.6693 L90.2223,208.047 L87,210 L87.1489,210.1928 L85.145,211.6821 L83.215,213.2671 L80.9414,214.4072 L78.9197,215.8735 L77.1211,217.6286 L76.9354,217.4242 L75.2265,219.3148 L73.3084,220.975 L71.6939,222.9693 L69.561,224.3933 L67.7363,226.1563 L67.6271,226.0498 L66.0718,228.008 L64.0499,229.5111 L62.3598,231.3379 L60.9943,233.4813 L59.0508,235.0608 L59.1955,235.1894 L57.7387,237.0294 L55.8315,238.4695 L54.4884,240.4105 L53.0223,242.2424 L51.27,243.82 " fill="none" style="stroke: #A9A9A9; stroke-width: 2.0; stroke-dasharray: 7.0,7.0;"/><polygon fill="#A9A9A9" points="47.84,247.92,47.8709,247.9829,49.5477,246.9286,51.4054,246.243,53.2042,245.4373,54.8093,244.2368,56.6825,243.5829,56.6802,243.5571,55.543,243.5416,54.4173,243.6563,53.2997,243.8614,52.1544,243.7548,51.0479,244.0847,51.2317,244.1011,50.7383,242.9392,50.7815,241.8251,50.8902,240.7168,50.618,239.5746,50.5461,238.4502,50.5679,238.4564,49.9946,240.3412,49.5209,242.2545,48.9991,244.154,48.5689,246.0797,47.84,247.92" style="stroke: #A9A9A9; stroke-width: 2.0;"/><!--link Estilizador to HojaEstilos--><path d="M228.07,150.11 L228.1131,150.1929 L225.9434,151.0078 L224.0263,152.3086 L222.027,153.4511 L219.7572,154.0734 L217.8618,155.4159 L217.8448,155.3858 L215.6662,156.4375 L213.5731,157.6408 L211.5396,158.9496 L209.3009,159.8951 L207.3495,161.3494 L207.4788,161.5587 L205.0787,162.4228 L203.0561,163.8981 L201.0796,165.448 L198.8351,166.564 L196.7315,167.9082 L196.7486,167.9333 L194.6185,169.3328 L192.5661,170.8465 L190.4763,172.3051 L188.458,173.8687 L186.2063,175.09 L186.3871,175.3272 L184.3424,176.8906 L182.1812,178.301 L180.1906,179.9353 L178.2081,181.5801 L175.9721,182.8924 L175.7625,182.6499 L174.2203,184.8047 L171.988,186.161 L170.2803,188.1244 L168.0324,189.4625 L166.2273,191.3131 L166.2058,191.2916 L164.6488,193.3538 L162.5893,194.9124 L160.8263,196.7682 L159.0882,198.649 L157.1705,200.3498 L157.3117,200.4693 L155.5351,202.2787 L153.9997,204.2923 L152.074,205.9755 L150.7306,208.1516 L149,210 L149.1974,210.1427 L147.5758,212.3073 L146.0522,214.5427 L144.0731,216.4488 L142.4279,218.5963 L141.0784,220.9576 L140.8459,220.8086 L139.585,223.239 L138.0621,225.5014 L136.9192,228.0075 L135.1274,230.0976 L133.7213,232.435 L133.589,232.3593 L132.4468,234.8685 L130.7388,237.0541 L129.4331,239.4698 L128.5212,242.1106 L126.9081,244.3506 L127.0805,244.4389 L125.9407,246.9539 L124.2649,249.1943 L123.2605,251.7787 L122.1098,254.2882 L120.6183,256.623 L120.4276,256.535 L119.4222,259.1147 L118.3543,261.6655 L117.4091,264.2729 L115.9869,266.6604 L114.8312,269.1707 L115.021,269.2497 L113.543,271.6244 L112.4314,274.1516 L111.855,276.9017 L110.2932,279.2415 L109.5264,281.9123 L109.7381,281.992 L108.6437,284.5155 L107.4777,287.0119 L106.4734,289.5693 L105.8427,292.2674 L104.6832,294.7663 L104.5574,294.7233 L104.0518,297.4283 L102.69,299.8409 L102.3017,302.586 L101.3653,305.1438 L100.2813,307.6513 L100.3852,307.6835 L99.505,310.2244 L98.9971,312.8807 L98.1529,315.4327 L97.168,317.9411 L96.2998,320.4857 L96.4146,320.518 L95.5278,323.0105 L95.1738,325.6531 L94.2173,328.1259 L93.5086,330.6685 L92.7185,333.1882 L92.4565,333.121 L91.9036,335.6413 L91.6662,338.2424 L90.9823,340.7291 L90.1385,343.1747 L89.5166,345.6772 L89.3771,345.6447 L88.8532,348.094 L88.0824,350.4857 L87.9903,353.0356 L87.5623,355.5072 L86.6736,357.8714 L86.9025,357.9199 L86.4748,360.299 L85.6123,362.5859 L85.2088,364.9701 L84.5014,367.2899 L84.169,369.6892 L84.293,369.7131 L83.8394,371.982 L83.5354,374.2796 L82.7567,376.4859 L82.3609,378.7659 L81.9822,381.0492 L82.1764,381.0831 L81.8527,383.2568 L81.0021,385.3384 L80.7637,387.5269 L80.536,389.7172 L80.0928,391.87 L79.8246,391.8276 L79.9253,393.9345 L79.5609,395.9679 L79.0809,397.983 L78.865,400.0399 L78.48,402.07 " fill="none" style="stroke: #A9A9A9; stroke-width: 2.0; stroke-dasharray: 7.0,7.0;"/><polygon fill="#A9A9A9" points="77.74,407.06,77.7992,407.0975,78.6773,405.322,79.9023,403.7663,81.0143,402.139,81.7548,400.2764,83.0097,398.7395,82.9942,398.7187,82.0168,399.3002,81.1172,399.9865,80.2718,400.7456,79.2398,401.2537,78.4691,402.1134,78.6172,402.2235,77.6257,401.08,77.0666,400.2579,76.5603,399.475,75.747,398.464,75.0952,397.5729,75.1171,397.579,75.6139,399.4675,76.2104,401.3837,76.7588,403.2866,77.3991,405.215,77.74,407.06" style="stroke: #A9A9A9; stroke-width: 2.0;"/><!--link XML to HojaEstilos--><path d="M37.28,289.08 L37.5538,289.1398 L38.8045,298.4071 L41.6601,308.025 L43.9931,317.5288 L44.6074,326.6569 L47.4996,336.2829 L49.1095,345.6286 L51.2296,355.0858 L53.7046,364.6206 L54.9569,373.8882 L58.6428,383.6876 L59.1648,392.7956 L62.05,402.42 " fill="none" style="stroke: #A9A9A9; stroke-width: 2.0;"/><polygon fill="#A9A9A9" points="63.14,407.38,63.2086,407.3941,63.4006,405.4227,63.9948,403.5338,64.4581,401.618,64.4905,399.6139,65.1193,397.7321,65.0975,397.7181,64.3895,398.6082,63.7915,399.5687,63.27,400.5782,62.4849,401.419,62.069,402.4961,62.1685,402.6515,61.0029,401.7091,60.1278,401.2204,59.2882,400.7871,58.2424,400.0317,57.305,399.4457,57.3233,399.4592,58.4634,401.0263,59.6869,402.6547,60.8702,404.2535,62.1303,405.9088,63.14,407.38" style="stroke: #A9A9A9; stroke-width: 2.0;"/><text fill="#A9A9A9" font-family="courier" font-size="20" lengthAdjust="spacingAndGlyphs" textLength="12" x="66.0298" y="390.5696">*</text><!--link Estilizador to CSS--><path d="M292.72,168.44 L292.9739,168.5586 L296.4479,177.2545 L301.4101,186.6458 L305.8878,195.8106 L308.7716,204.2306 L313.7678,213.6378 L318.09,222.73 " fill="none" style="stroke: #A9A9A9; stroke-width: 2.0;"/><polygon fill="none" points="286.29,171.21,286.3597,171.217,285.7286,166.9802,285.5061,162.7844,285.1506,158.5753,284.3574,154.3222,284.17,150.13,284.1515,150.1119,287.0303,153.0627,290.0026,156.1047,293.0397,159.2101,295.8532,162.097,298.98,165.29,299.058,165.4572,296.3532,166.2836,293.8761,167.5983,291.4269,168.9725,288.8159,170.0001,286.29,171.21" style="stroke: #A9A9A9; stroke-width: 2.0;"/><!--link Estilizador to XSL--><path d="M324.52,160.65 L324.6657,160.8894 L332.98,165.5045 L342.1486,171.5228 L351.039,177.0843 L359.0144,181.143 L368.2025,187.1933 L376.7079,192.1225 L385.485,197.4978 L394.4509,203.1833 L402.766,207.7999 L412.3766,214.5441 L420.74,219.24 " fill="none" style="stroke: #A9A9A9; stroke-width: 2.0;"/><polygon fill="none" points="320.68,166.51,320.7342,166.5544,317.8852,163.1464,315.3538,159.9989,312.719,156.7665,309.7442,153.2552,307.24,150.13,307.2346,150.1047,311.3543,150.875,315.5013,151.773,319.6673,152.7598,323.7679,153.4406,327.96,154.55,328.1176,154.646,326.3245,156.8328,324.9917,159.2997,323.715,161.8009,322.1116,164.1031,320.68,166.51" style="stroke: #A9A9A9; stroke-width: 2.0;"/><!--
@startuml

skinparam handwritten true
skinparam shadowing false
skinparam backgroundColor #222222
skinparam padding 3

skinparam note {
    backgroundColor #222222
    borderColor #DarkGrey
    FontColor #DarkGrey
    fontSize 20
}
skinparam arrow {
    Thickness 2
    Color #DarkGrey
    FontSize 20
    FontName courier
    FontStyle normal
    FontColor #DarkGrey
}
skinparam class {
    fontColor #DarkGrey
    fontColor<<Reservada>> #ffa500
    fontStyle bold
    backgroundColor #222222
    borderColor #DarkGrey
    borderColor<<Reservada>> #ffa500
    fontSize 20
}

hide circle
hide members
hide stereotype

abstract class Colaborador
class Estilizador
class XML
class HojaEstilos as "Hoja\nde\nEstilos"
class Formato

class CSS as "Cascade\nStyle\nSheet" <<Reservada>>
class XSL as "XML\nStylesheets\nTransformation\nLanguage" <<Reservada>>

Colaborador <|-down- Estilizador
Estilizador *-down-> Procesador
Estilizador .down.> Formato
Estilizador .down.> XML
Estilizador .down.> HojaEstilos
XML -down-> "*" HojaEstilos

Estilizador <|-down- CSS
Estilizador <|-down- XSL

@enduml

PlantUML version 1.2019.05(Sat Apr 20 18:45:36 CEST 2019)
(GPL source distribution)
Java Runtime: Java(TM) SE Runtime Environment
JVM: Java HotSpot(TM) 64-Bit Server VM
Java Version: 11.0.14+8-LTS-263
Operating System: Windows 10
OS Version: 10.0
Default Encoding: windows-1252
Language: es
Country: ES
--></g></svg>