<?xml version="1.0" encoding="UTF-8" standalone="no"?><svg xmlns="http://www.w3.org/2000/svg" xmlns:xlink="http://www.w3.org/1999/xlink" contentScriptType="application/ecmascript" contentStyleType="text/css" height="217px" preserveAspectRatio="none" style="width:114px;height:217px;background:#222222;" version="1.1" viewBox="0 0 114 217" width="114px" zoomAndPan="magnify"><defs/><g><!--class Todo--><polygon fill="#222222" points="12,8,12,8.2102,21.3333,7.5857,30.6667,8.1933,40,8.3997,49.3333,7.2866,58.6667,7.9223,68,8,67.5735,8,67.6165,18.8227,67.9318,29.6453,67.3086,40.468,68.5536,51.2906,68,62.1133,68,61.483,58.6667,61.9155,49.3333,62.5452,40,62.0275,30.6667,62.1815,21.3333,62.0813,12,62.1133,12.1785,62.1133,12.2391,51.2906,12.5857,40.468,12.6711,29.6453,12.6793,18.8227,12,8" style="stroke: #A9A9A9; stroke-width: 3.0;"/><text fill="#A9A9A9" font-family="courier" font-size="20" font-weight="bold" lengthAdjust="spacingAndGlyphs" textLength="48" x="16" y="34.1074">Todo</text><path d="M13,46.1133 L13,46.3935 L23.8,45.5609 L34.6,46.371 L45.4,46.6462 L56.2,45.1621 L67,46.1133 " fill="#222222" style="stroke: #A9A9A9; stroke-width: 3.0;"/><path d="M13,54.1133 L13,54.3935 L23.8,53.5609 L34.6,54.371 L45.4,54.6462 L56.2,53.1621 L67,54.1133 " fill="#222222" style="stroke: #A9A9A9; stroke-width: 3.0;"/><!--class Parte--><polygon fill="#222222" points="6,152,6,152.2102,15.7143,151.5857,25.4286,152.1933,35.1429,152.3997,44.8571,151.2866,54.5714,151.9223,64.2857,151.5735,74,152,73.6165,152,73.9318,162.8227,73.3086,173.6453,74.5536,184.468,73.3697,195.2906,74,206.1133,74,205.9155,64.2857,206.5452,54.5714,206.0275,44.8571,206.1815,35.1429,206.0813,25.4286,206.2918,15.7143,206.3524,6,206.1133,6.5857,206.1133,6.6711,195.2906,6.6793,184.468,6.2546,173.6453,6.4636,162.8227,6,152" style="stroke: #A9A9A9; stroke-width: 3.0;"/><text fill="#A9A9A9" font-family="courier" font-size="20" font-weight="bold" lengthAdjust="spacingAndGlyphs" textLength="60" x="10" y="178.1074">Parte</text><path d="M7,190.1133 L7,190.3935 L16.4286,189.5609 L25.8571,190.371 L35.2857,190.6462 L44.7143,189.1621 L54.1429,190.0097 L63.5714,189.5446 L73,190.1133 " fill="#222222" style="stroke: #A9A9A9; stroke-width: 3.0;"/><path d="M7,198.1133 L7,198.3935 L16.4286,197.5609 L25.8571,198.371 L35.2857,198.6462 L44.7143,197.1621 L54.1429,198.0097 L63.5714,197.5446 L73,198.1133 " fill="#222222" style="stroke: #A9A9A9; stroke-width: 3.0;"/><!--link Todo to Parte--><path d="M40,75.18 L40.2802,75.18 L39.4476,85.7183 L40.2577,96.2567 L40.5329,106.795 L39.0488,117.3333 L39.8964,127.8717 L40,138.41 " fill="none" style="stroke: #A9A9A9; stroke-width: 2.0;"/><polygon fill="#A9A9A9" points="40,151.64,40.064,151.6685,40.6738,149.7839,41.6589,148.0662,42.5217,146.2941,42.9827,144.3434,44,142.64,43.9817,142.6217,43.0995,143.3395,42.3096,144.1496,41.5839,145.0239,40.637,145.677,40,146.64,40.1305,146.7705,39.0514,145.6914,38.3534,144.9934,37.7018,144.3418,36.7798,143.4198,36,142.64,36.0208,142.6492,36.7903,144.4357,37.6544,146.2642,38.4728,148.0724,39.3784,149.9193,40,151.64" style="stroke: #A9A9A9; stroke-width: 2.0;"/><path d="M40,146.64 L40.0934,146.64 L39.8159,145.04 L40.0859,143.44 L40.1776,141.84 L39.6829,140.24 L40,138.64 " fill="#A9A9A9" style="stroke: #A9A9A9; stroke-width: 2.0;"/><polygon fill="#A9A9A9" points="40,62.04,40.0583,62.0788,39.0863,63.1644,38.4563,64.4774,37.7149,65.7164,36.6073,66.7118,36.0066,68.0444,35.9851,68.03,36.6897,69.1645,37.5029,70.3716,38.3917,71.6291,39.0203,72.7128,40.0132,74.04,40.1669,74.1422,40.6369,72.7228,41.5557,71.6017,42.5291,70.5171,43.1841,69.2206,44.0066,68.0356,44.0255,68.0482,43.1964,66.8306,42.4534,65.6704,41.6689,64.4825,40.9636,63.3476,40,62.04" style="stroke: #A9A9A9; stroke-width: 2.0;"/><text fill="#A9A9A9" font-family="courier" font-size="20" lengthAdjust="spacingAndGlyphs" textLength="60" x="42" y="114.1074">parte</text><!--
@startuml
skinparam backgroundColor #222222
skinparam handwritten true
skinparam shadowing false
skinparam padding 1
hide circle
skinparam arrow {
    Thickness 2
    Color #DarkGrey
    FontSize 20
    FontName courier
    FontStyle normal
    FontColor #DarkGrey
}
skinparam class {
    BorderThickness 3
    BorderColor #DarkGrey
    BackgroundColor #222222
    FontSize 20
    FontName courier
    FontStyle bold
    FontColor #DarkGrey
}
skinparam default {
    FontSize 20
    FontName courier
    FontStyle normal
    FontColor #DarkGrey
}

class Todo
class Parte

Todo *-down-> Parte : parte

@enduml

PlantUML version 1.2019.05(Sat Apr 20 18:45:36 CEST 2019)
(GPL source distribution)
Java Runtime: Java(TM) SE Runtime Environment
JVM: Java HotSpot(TM) 64-Bit Server VM
Java Version: 11.0.14+8-LTS-263
Operating System: Windows 10
OS Version: 10.0
Default Encoding: windows-1252
Language: es
Country: ES
--></g></svg>