<?xml version="1.0" encoding="UTF-8" standalone="no"?><svg xmlns="http://www.w3.org/2000/svg" xmlns:xlink="http://www.w3.org/1999/xlink" contentScriptType="application/ecmascript" contentStyleType="text/css" height="856px" preserveAspectRatio="none" style="width:1148px;height:856px;background:#222222;" version="1.1" viewBox="0 0 1148 856" width="1148px" zoomAndPan="magnify"><defs/><g><!--class donde--><polygon fill="#222222" points="145.5,8,145.5,8.2102,155.4048,7.5857,165.3095,8.1933,175.2143,8.3997,185.119,7.2866,195.0238,7.9223,204.9286,7.5735,214.8333,7.6165,224.7381,7.9318,234.6429,7.3086,244.5476,8.5536,254.4524,7.3697,264.3571,7.8022,274.2619,8.4319,284.1667,7.9142,294.0714,8.0682,303.9762,7.9681,313.881,8.1785,323.7857,8.2391,333.6905,8.5857,343.5952,8.6711,353.5,8,354.1793,8,353.7546,18.375,353.9636,28.75,354.2022,39.125,352.7788,49.5,354.1785,59.875,353.5,70.25,353.5,69.9535,343.5952,70.7838,333.6905,69.755,323.7857,70.1815,313.881,70.9916,303.9762,70.2013,294.0714,70.3553,284.1667,70.5886,274.2619,70.6662,264.3571,70.2461,254.4524,70.5372,244.5476,69.6776,234.6429,70.5344,224.7381,70.7982,214.8333,70.6945,204.9286,70.863,195.0238,69.7669,185.119,69.5978,175.2143,69.6286,165.3095,70.1911,155.4048,70.0535,145.5,70.25,146.1814,70.25,145.3253,59.875,145.1569,49.5,145.7283,39.125,144.8332,28.75,144.9809,18.375,145.5,8" style="stroke: #87CEEB; stroke-width: 1.5;"/><text fill="#87CEEB" font-family="sans-serif" font-size="12" font-style="italic" lengthAdjust="spacingAndGlyphs" textLength="65" x="217" y="28.457">«¿Dónde?»</text><text fill="#87CEEB" font-family="sans-serif" font-size="20" font-weight="bold" lengthAdjust="spacingAndGlyphs" textLength="196" x="151.5" y="57.8555">SML-DEV mailing list</text><path d="M389,18.5 L389,35 L353.91,39 L389,43 L389,59.6563 A0,0 0 0 0 389,59.6563 L596,59.6563 A0,0 0 0 0 596,59.6563 L596,28.5 L586,18.5 L389,18.5 A0,0 0 0 0 389,18.5 " fill="#222222" style="stroke: #A9A9A9; stroke-width: 1.0;"/><path d="M586,18.5 L586.1868,18.5 L585.6317,20.5 L586.1718,22.5 L586.3553,24.5 L585.3659,26.5 L586,28.5 L586,28.4309 L588,28.1209 L590,28.1591 L592,28.4394 L594,27.8854 L596,28.5 L596.348,28.848 L593.6038,26.1038 L591.8757,24.3757 L590.2715,22.7715 L587.9461,20.4461 L586,18.5 " fill="#222222" style="stroke: #A9A9A9; stroke-width: 1.0;"/><text fill="#87CEEB" font-family="sans-serif" font-size="20" lengthAdjust="spacingAndGlyphs" textLength="180" x="398" y="47.2617">para simplificar XML</text><!--class cuando--><polygon fill="#222222" points="701.5,8,701.5,8.2102,711.5,7.5857,721.5,8.1933,731.5,8.3997,741.5,7.2866,751.5,7.9223,761.5,7.5735,771.5,7.6165,781.5,8,781.4318,8,780.8086,18.375,782.0536,28.75,780.8697,39.125,781.3022,49.5,781.9319,59.875,781.5,70.25,781.5,70.1642,771.5,70.3182,761.5,70.2181,751.5,70.4285,741.5,70.4891,731.5,70.8357,721.5,70.9211,711.5,70.9293,701.5,70.25,701.7546,70.25,701.9636,59.875,702.2022,49.5,700.7788,39.125,702.1785,28.75,701.2035,18.375,701.5,8" style="stroke: #87CEEB; stroke-width: 1.5;"/><text fill="#87CEEB" font-family="sans-serif" font-size="12" font-style="italic" lengthAdjust="spacingAndGlyphs" textLength="72" x="705.5" y="28.457">«¿Cuándo?»</text><text fill="#87CEEB" font-family="sans-serif" font-size="20" font-weight="bold" lengthAdjust="spacingAndGlyphs" textLength="62" x="710.5" y="57.8555">2001-4</text><path d="M816.5,18.5 L816.5,35 L781.89,39 L816.5,43 L816.5,59.6563 A0,0 0 0 0 816.5,59.6563 L1136.5,59.6563 A0,0 0 0 0 1136.5,59.6563 L1136.5,28.5 L1126.5,18.5 L816.5,18.5 A0,0 0 0 0 816.5,18.5 " fill="#222222" style="stroke: #A9A9A9; stroke-width: 1.0;"/><path d="M1126.5,18.5 L1126.6868,18.5 L1126.1317,20.5 L1126.6718,22.5 L1126.8553,24.5 L1125.8659,26.5 L1126.5,28.5 L1126.5,28.4309 L1128.5,28.1209 L1130.5,28.1591 L1132.5,28.4394 L1134.5,27.8854 L1136.5,28.5 L1136.848,28.848 L1134.1038,26.1038 L1132.3757,24.3757 L1130.7715,22.7715 L1128.4461,20.4461 L1126.5,18.5 " fill="#222222" style="stroke: #A9A9A9; stroke-width: 1.0;"/><text fill="#87CEEB" font-family="sans-serif" font-size="20" lengthAdjust="spacingAndGlyphs" textLength="293" x="825.5" y="47.2617">3-6 años tras la creación de XML</text><!--class por--><polygon fill="#222222" points="246.5,157.5,246.5,157.7102,256.3333,157.0857,266.1667,157.6933,276,157.8997,285.8333,156.7866,295.6667,157.4223,305.5,157.0735,315.3333,157.1165,325.1667,157.4318,335,156.8086,344.8333,158.0536,354.6667,156.8697,364.5,157.5,364.3022,157.5,364.9319,167.875,364.4142,178.25,364.5682,188.625,364.4681,199,364.6785,209.375,364.5,219.75,364.5,219.9891,354.6667,220.3357,344.8333,220.4211,335,220.4293,325.1667,220.0046,315.3333,220.2136,305.5,220.4522,295.6667,219.0288,285.8333,220.4285,276,219.4535,266.1667,220.2838,256.3333,219.255,246.5,219.75,246.4315,219.75,247.2416,209.375,246.4513,199,246.6053,188.625,246.8386,178.25,246.9162,167.875,246.5,157.5" style="stroke: #DC143C; stroke-width: 1.5;"/><text fill="#DC143C" font-family="sans-serif" font-size="12" font-style="italic" lengthAdjust="spacingAndGlyphs" textLength="71" x="270" y="177.957">«¿Por qué?»</text><text fill="#DC143C" font-family="sans-serif" font-size="20" font-weight="bold" lengthAdjust="spacingAndGlyphs" textLength="106" x="252.5" y="207.3555">Ineficiencia</text><path d="M400,130 L400,184.5 L364.63,188.5 L400,192.5 L400,246.625 A0,0 0 0 0 400,246.625 L759,246.625 A0,0 0 0 0 759,246.625 L759,140 L749,130 L400,130 A0,0 0 0 0 400,130 " fill="#222222" style="stroke: #A9A9A9; stroke-width: 1.0;"/><path d="M749,130 L749.1868,130 L748.6317,132 L749.1718,134 L749.3553,136 L748.3659,138 L749,140 L749,139.9309 L751,139.6209 L753,139.6591 L755,139.9394 L757,139.3854 L759,140 L759.348,140.348 L756.6038,137.6038 L754.8757,135.8757 L753.2715,134.2715 L750.9461,131.9461 L749,130 " fill="#222222" style="stroke: #A9A9A9; stroke-width: 1.0;"/><text fill="#FF0000" font-family="sans-serif" font-size="20" lengthAdjust="spacingAndGlyphs" textLength="215" x="409" y="158.7617">Hay que escribir muchos</text><text fill="#FF0000" font-family="sans-serif" font-size="20" lengthAdjust="spacingAndGlyphs" textLength="288" x="409" y="183.918">caracteres redundantes en XML:</text><text fill="#FF0000" font-family="sans-serif" font-size="20" lengthAdjust="spacingAndGlyphs" textLength="146" x="415" y="209.0742">apertura y cierre</text><text fill="#FF0000" font-family="sans-serif" font-size="20" lengthAdjust="spacingAndGlyphs" textLength="326" x="415" y="234.2305">de cada etiqueta y de cada elemento</text><!--class quien--><polygon fill="#222222" points="233.5,307,233.5,307.2102,243.7857,306.5857,254.0714,307.1933,264.3571,307.3997,274.6429,306.2866,284.9286,306.9223,295.2143,306.5735,305.5,306.6165,315.7857,306.9318,326.0714,306.3086,336.3571,307.5536,346.6429,306.3697,356.9286,306.8022,367.2143,307.4319,377.5,307,377.4142,307,377.5682,317.233,377.4681,327.4659,377.6785,337.6989,377.7391,347.9318,378.0857,358.1648,378.1711,368.3977,378.1793,378.6307,377.7546,388.8636,377.9636,399.0966,378.2022,409.3295,377.5,419.5625,377.5,418.8413,367.2143,420.241,356.9286,419.266,346.6429,420.0963,336.3571,419.0675,326.0714,419.494,315.7857,420.3041,305.5,419.5138,295.2143,419.6678,284.9286,419.9011,274.6429,419.9787,264.3571,419.5586,254.0714,419.8497,243.7857,418.9901,233.5,419.5625,233.7844,419.5625,234.0482,409.3295,233.9445,399.0966,234.113,388.8636,233.0169,378.6307,232.8478,368.3977,232.8786,358.1648,233.4411,347.9318,233.3035,337.6989,234.1814,327.4659,233.3253,317.233,233.5,307" style="stroke: #228B22; stroke-width: 1.5;"/><text fill="#228B22" font-family="sans-serif" font-size="12" font-style="italic" lengthAdjust="spacingAndGlyphs" textLength="61" x="275" y="327.457">«¿Quién?»</text><text fill="#228B22" font-family="sans-serif" font-size="20" font-weight="bold" lengthAdjust="spacingAndGlyphs" textLength="113" x="249" y="356.8555">Clark Evans</text><text fill="#228B22" font-family="sans-serif" font-size="20" font-weight="bold" lengthAdjust="spacingAndGlyphs" textLength="115" x="248" y="382.0117">Ingy döt Net</text><text fill="#228B22" font-family="sans-serif" font-size="20" font-weight="bold" lengthAdjust="spacingAndGlyphs" textLength="132" x="239.5" y="407.168">Oren Ben-Kiki</text><!--class que--><polygon fill="#222222" points="155.5,482,155.5,482.2102,165.5,481.5857,175.5,482.1933,185.5,482.3997,195.5,481.2866,205.5,481.9223,215.5,481.5735,225.5,481.6165,235.5,481.9318,245.5,481.3086,255.5,482.5536,265.5,481.3697,275.5,481.8022,285.5,482.4319,295.5,481.9142,305.5,482.0682,315.5,481.9681,325.5,482.1785,335.5,482.2391,345.5,482.5857,355.5,482.6711,365.5,482.6793,375.5,482.2546,385.5,482.4636,395.5,482.7022,405.5,481.2788,415.5,482.6785,425.5,481.7035,435.5,482.5338,445.5,481.505,455.5,482,455.4315,482,456.2416,492.233,455.4513,502.4659,455.6053,512.6989,455.8386,522.9318,455.9162,533.1648,455.4961,543.3977,455.7872,553.6307,454.9276,563.8636,455.7844,574.0966,456.0482,584.3295,455.5,594.5625,455.5,595.007,445.5,595.1755,435.5,594.0794,425.5,593.9103,415.5,593.9411,405.5,594.5036,395.5,594.366,385.5,595.2439,375.5,594.3878,365.5,594.2194,355.5,594.7908,345.5,593.8957,335.5,594.0434,325.5,595.2115,315.5,594.9982,305.5,595.297,295.5,594.2407,285.5,594.8817,275.5,595.1529,265.5,594.0901,255.5,594.4666,245.5,594.6885,235.5,595.2143,225.5,594.5583,215.5,595.0251,205.5,594.0087,195.5,593.8852,185.5,595.0661,175.5,593.8456,165.5,595.0715,155.5,594.5625,155.7066,594.5625,155.2321,584.3295,155.1462,574.0966,155.9588,563.8636,155.2007,553.6307,156.0919,543.3977,154.9473,533.1648,156.1174,522.9318,155.9843,512.6989,155.745,502.4659,155.5472,492.233,155.5,482" style="stroke: #228B22; stroke-width: 1.5;"/><text fill="#228B22" font-family="sans-serif" font-size="12" font-style="italic" lengthAdjust="spacingAndGlyphs" textLength="51" x="280" y="502.457">«¿Qué?»</text><text fill="#228B22" font-family="sans-serif" font-size="20" font-weight="bold" lengthAdjust="spacingAndGlyphs" textLength="288" x="161.5" y="531.8555">Yet Another Markup Language</text><text fill="#228B22" font-family="sans-serif" font-size="20" font-weight="bold" lengthAdjust="spacingAndGlyphs" textLength="279" x="166" y="557.0117">YAML Ain't Markup Language</text><text fill="#228B22" font-family="sans-serif" font-size="20" font-weight="bold" lengthAdjust="spacingAndGlyphs" textLength="69" x="271" y="582.168">(YAML)</text><path d="M491,480 L491,534.5 L455.67,538.5 L491,542.5 L491,596.625 A0,0 0 0 0 491,596.625 L958,596.625 A0,0 0 0 0 958,596.625 L958,490 L948,480 L491,480 A0,0 0 0 0 491,480 " fill="#222222" style="stroke: #A9A9A9; stroke-width: 1.0;"/><path d="M948,480 L948.1868,480 L947.6317,482 L948.1718,484 L948.3553,486 L947.3659,488 L948,490 L948,489.9309 L950,489.6209 L952,489.6591 L954,489.9394 L956,489.3854 L958,490 L958.348,490.348 L955.6038,487.6038 L953.8757,485.8757 L952.2715,484.2715 L949.9461,481.9461 L948,480 " fill="#222222" style="stroke: #A9A9A9; stroke-width: 1.0;"/><text fill="#008000" font-family="sans-serif" font-size="20" lengthAdjust="spacingAndGlyphs" textLength="419" x="500" y="508.7617">es un lenguaje de serialización de datos basado</text><text fill="#008000" font-family="sans-serif" font-size="20" lengthAdjust="spacingAndGlyphs" textLength="440" x="500" y="533.918">en Unicode, amigable para los humanos, diseñado</text><text fill="#008000" font-family="sans-serif" font-size="20" lengthAdjust="spacingAndGlyphs" textLength="430" x="500" y="559.0742">en torno a los tipos de datos nativos comunes de</text><text fill="#008000" font-family="sans-serif" font-size="20" lengthAdjust="spacingAndGlyphs" textLength="360" x="500" y="584.2305">los lenguajes de programación dinámicos</text><!--class para--><polygon fill="#222222" points="6,659,6,659.2102,16.3,658.5857,26.6,659.1933,36.9,659.3997,47.2,658.2866,57.5,658.9223,67.8,658.5735,78.1,658.6165,88.4,658.9318,98.7,658.3086,109,659,109.5536,659,108.3697,669.375,108.8022,679.75,109.4319,690.125,108.9142,700.5,109.0682,710.875,109,721.25,109,721.2181,98.7,721.4285,88.4,721.4891,78.1,721.8357,67.8,721.9211,57.5,721.9293,47.2,721.5046,36.9,721.7136,26.6,721.9522,16.3,720.5288,6,721.25,6.6785,721.25,5.7035,710.875,6.5338,700.5,5.505,690.125,5.9315,679.75,6.7416,669.375,6,659" style="stroke: #228B22; stroke-width: 1.5;"/><text fill="#228B22" font-family="sans-serif" font-size="12" font-style="italic" lengthAdjust="spacingAndGlyphs" textLength="78" x="18.5" y="679.457">«¿Para qué?»</text><text fill="#228B22" font-family="sans-serif" font-size="20" font-weight="bold" lengthAdjust="spacingAndGlyphs" textLength="91" x="12" y="708.8555">Eficiencia</text><path d="M144.5,657 L144.5,686 L109.26,690 L144.5,694 L144.5,723.3125 A0,0 0 0 0 144.5,723.3125 L500.5,723.3125 A0,0 0 0 0 500.5,723.3125 L500.5,667 L490.5,657 L144.5,657 A0,0 0 0 0 144.5,657 " fill="#222222" style="stroke: #A9A9A9; stroke-width: 1.0;"/><path d="M490.5,657 L490.6868,657 L490.1317,659 L490.6718,661 L490.8553,663 L489.8659,665 L490.5,667 L490.5,666.9309 L492.5,666.6209 L494.5,666.6591 L496.5,666.9394 L498.5,666.3854 L500.5,667 L500.848,667.348 L498.1038,664.6038 L496.3757,662.8757 L494.7715,661.2715 L492.4461,658.9461 L490.5,657 " fill="#222222" style="stroke: #A9A9A9; stroke-width: 1.0;"/><text fill="#008000" font-family="sans-serif" font-size="20" lengthAdjust="spacingAndGlyphs" textLength="287" x="153.5" y="685.7617">Agilizar tanto en desarrollo como</text><text fill="#008000" font-family="sans-serif" font-size="20" lengthAdjust="spacingAndGlyphs" textLength="329" x="153.5" y="710.918">en explotación los servicios de correo</text><!--class como--><polygon fill="#222222" points="243.5,783,243.5,783.2102,253.8333,782.5857,264.1667,783.1933,274.5,783.3997,284.8333,782.2866,295.1667,782.9223,305.5,782.5735,315.8333,782.6165,326.1667,782.9318,336.5,782.3086,346.8333,783.5536,357.1667,782.3697,367.5,783,367.3022,783,367.9319,793.375,367.4142,803.75,367.5682,814.125,367.4681,824.5,367.6785,834.875,367.5,845.25,367.5,845.4891,357.1667,845.8357,346.8333,845.9211,336.5,845.9293,326.1667,845.5046,315.8333,845.7136,305.5,845.9522,295.1667,844.5288,284.8333,845.9285,274.5,844.9535,264.1667,845.7838,253.8333,844.755,243.5,845.25,243.4315,845.25,244.2416,834.875,243.4513,824.5,243.6053,814.125,243.8386,803.75,243.9162,793.375,243.5,783" style="stroke: #A9A9A9; stroke-width: 1.5;"/><text fill="#A9A9A9" font-family="sans-serif" font-size="12" font-style="italic" lengthAdjust="spacingAndGlyphs" textLength="62" x="274.5" y="803.457">«¿Cómo?»</text><text fill="#A9A9A9" font-family="sans-serif" font-size="20" font-weight="bold" lengthAdjust="spacingAndGlyphs" textLength="112" x="249.5" y="832.8555">Descripción</text><!--link cuando to por--><path d="M696.37,50.81 L696.4358,51.0824 L686.646,52.5914 L677.242,55.6973 L667.7123,58.2833 L657.7694,59.1591 L648.3742,62.3014 L638.6707,64.1678 L629.0899,66.5419 L619.5943,69.269 L610.0214,71.6758 L609.8017,70.7805 L600.181,74.8503 L589.7886,75.7747 L579.9098,78.7923 L570.0936,82.0653 L559.9128,83.8524 L549.9455,86.5094 L539.8974,88.8372 L529.948,91.5673 L519.951,94.1034 L509.8588,96.2513 L510.0485,97.0088 L500.8115,99.4404 L491.5495,101.7722 L482.1472,103.5442 L472.9502,106.1357 L463.5353,107.8574 L463.6131,108.1596 L455.6453,109.5562 L447.99,112.1679 L440.0718,113.7575 L432.3536,116.1241 L424.4842,117.9036 L424.4276,117.691 L421.3401,118.71 L418.2966,119.8937 L415.0699,120.3901 L411.9513,121.2921 L408.803,122.0827 L408.8433,122.2277 L406.3481,122.9565 L403.7936,123.4723 L401.3238,124.2926 L398.7171,124.6201 L396.2807,125.5608 L396.3194,125.6811 L393.5993,126.6806 L390.829,127.5246 L388.0958,128.4837 L385.1903,128.9078 L382.5,130 L382.3653,129.7433 L380.1191,130.9375 L377.9827,132.341 L375.7016,133.4688 L373.6303,134.9964 L371.237,135.9103 L371.1965,135.8441 L368.9492,137.1338 L366.8737,138.7037 L364.4577,139.7179 L362.2838,141.1274 L360.1962,142.6775 L360.3596,142.9152 L358.1851,144.2948 L356.1396,145.8619 L353.7529,146.9327 L351.7935,148.6252 L349.5923,149.9659 L349.7499,150.1758 L347.4758,151.2929 L345.5858,152.9215 L343.6546,154.4951 L341.8044,156.1768 L339.64,157.44 " fill="none" style="stroke: #A9A9A9; stroke-width: 2.0;"/><polygon fill="#A9A9A9" points="701.27,49.64,701.2829,49.7089,699.3084,49.1419,697.4095,48.9786,695.486,48.6839,693.4816,47.9569,691.5892,47.8282,691.5756,47.8062,692.4779,48.3007,693.4486,48.9063,694.467,49.5893,695.3212,50.0059,696.4054,50.7955,696.5625,50.8923,695.633,51.6486,695.1623,52.6874,694.7476,53.7607,694.0072,54.6334,693.4381,55.6117,693.4519,55.6298,694.998,54.4089,696.6069,53.2703,698.1856,52.0921,699.822,50.9896,701.27,49.64" style="stroke: #A9A9A9; stroke-width: 2.0;"/><!--link donde to por--><path d="M262.83,75.1 L263.092,75.1995 L265.7824,84.0417 L270.0087,93.467 L273.7349,102.7025 L275.8163,111.3135 L280.0776,120.7521 L283.1117,129.7248 L286.6342,138.883 L290.4962,148.17 L294.05,157.34 " fill="none" style="stroke: #A9A9A9; stroke-width: 2.0;"/><polygon fill="#A9A9A9" points="260.97,70.2,261.04,70.2039,260.7223,72.159,260.8147,74.137,260.7736,76.1076,260.2934,78.0536,260.421,80.0335,260.3974,80.0229,260.7557,78.9435,261.2332,77.9177,261.7934,76.9292,262.0683,75.8122,262.7428,74.8752,262.8186,75.0434,263.6883,75.1479,264.7791,75.7438,265.897,76.3996,266.8578,76.7066,267.9012,77.197,267.9174,77.213,266.5074,75.7901,265.171,74.4401,263.7991,73.0549,262.4949,71.7368,260.97,70.2" style="stroke: #A9A9A9; stroke-width: 2.0;"/><!--link cuando to quien--><path d="M762.01,74.73 L762.0933,74.7723 L762.7353,76.3954 L763.8655,78.2667 L764.8368,80.0572 L765.2853,81.5818 L766.4574,83.4744 L766.4262,83.4596 L767.1856,85.2789 L768.1021,87.1731 L769.1279,89.1195 L769.7772,90.8863 L770.9539,92.9046 L771.1789,93.0041 L771.5844,94.7966 L772.647,96.8797 L773.7897,98.9982 L774.4661,100.9105 L775.3877,102.9312 L775.4158,102.9426 L776.2264,105.0327 L777.1651,107.1746 L778.0419,109.2915 L779.0366,111.4561 L779.6472,113.4653 L779.9276,113.567 L780.7257,115.7587 L781.3429,117.8848 L782.2249,120.107 L783.1193,122.3336 L783.6206,124.4176 L783.3151,124.3208 L784.6232,126.765 L784.9253,128.8904 L785.9922,131.2581 L786.2714,133.3763 L787.1963,135.699 L787.1669,135.6912 L788.128,138.0881 L788.4018,140.302 L789.0812,142.6239 L789.7947,144.9548 L790.2625,147.2204 L790.4435,147.2583 L790.7498,149.5544 L791.3654,151.9154 L791.4805,154.1715 L792.3422,156.584 L792.7075,158.8925 L792.9486,158.9277 L793.2454,161.2678 L793.662,163.6253 L793.5223,165.9018 L793.7904,168.2377 L794.4196,170.6263 L794.1442,170.6059 L794.567,172.9656 L794.6795,175.3023 L795.2422,177.6724 L795.0362,179.9855 L795.2871,182.3325 L795.1347,182.3314 L795.3708,184.6512 L794.9553,186.9661 L795.0032,189.2845 L795.5045,191.6064 L795.1984,193.9221 L795.391,193.9417 L795.2918,196.2319 L794.5934,198.4612 L794.6454,200.7668 L794.534,203.0557 L794.0416,205.3059 L793.8361,205.2626 L793.5326,207.5149 L793.1617,209.753 L792.9231,212.019 L792.1705,214.1766 L791.705,216.3948 L791.8997,216.4608 L790.7463,218.4567 L789.9688,220.58 L789.7402,222.8894 L788.5009,224.8563 L788.0771,227.0995 L788.2801,227.1993 L787.1533,229.1863 L785.9578,231.1395 L784.9173,233.169 L784.2352,235.3746 L783.046,237.331 L782.9358,237.2564 L781.9546,239.4122 L780.2241,241.0608 L779.3456,243.2862 L777.9874,245.1869 L776.5,247 L776.5774,247.0766 L774.2739,249.2791 L772.2475,251.7559 L769.9708,253.9849 L767.5894,256.1104 L765.2949,258.3219 L765.3638,258.4191 L762.2541,260.4053 L759.4643,262.843 L756.3126,264.77 L753.3098,266.9071 L750.2581,268.9752 L750.1232,268.7409 L748.404,269.8352 L746.8474,271.2117 L745.0608,272.1889 L743.1917,273.0229 L741.437,274.0555 L741.3718,273.928 L739.469,274.9525 L737.4508,275.7512 L735.75,277.1705 L733.892,278.2827 L731.8188,278.9736 L731.9164,279.1863 L729.8753,280.2059 L727.6488,280.8215 L725.618,281.8636 L723.4576,282.6234 L721.4572,283.7315 L721.5057,283.848 L719.289,284.7526 L717.1309,285.7978 L714.7871,286.3967 L712.5931,287.3556 L710.4058,288.3306 L710.4758,288.5149 L708.1579,289.4548 L705.6498,289.8946 L703.3627,290.9154 L701.0793,291.9464 L698.7183,292.7728 L698.6287,292.5165 L696.3161,293.7785 L693.8481,294.5958 L691.3415,295.3027 L688.9231,296.262 L686.4483,297.0597 L686.5478,297.3679 L683.8457,297.7541 L681.3717,298.8463 L678.8079,299.6605 L676.225,300.4153 L673.6494,301.193 L673.6674,301.253 L671.009,302.0376 L668.26,302.5199 L665.6337,303.4113 L662.9711,304.1817 L660.3752,305.1745 L660.3829,305.2018 L657.6466,305.9784 L654.9163,306.7762 L652.1229,307.3486 L649.4105,308.2105 L646.6795,309.0057 L646.6659,308.954 L643.9316,309.9902 L641.102,310.6621 L638.1865,311.0065 L635.4202,311.9205 L632.6157,312.6884 L632.5544,312.4392 L629.7707,313.52 L626.929,314.3653 L624.0466,315.0449 L621.067,315.3291 L618.2376,316.2242 L618.2841,316.4251 L615.2353,316.5808 L612.4021,317.6672 L609.4243,318.1291 L606.5362,318.9787 L603.5988,319.615 L603.6216,319.7193 L600.6744,320.4694 L597.592,320.6014 L594.7363,321.7698 L591.7389,322.2902 L588.7528,322.8623 L588.7848,323.017 L585.8203,323.8089 L582.7535,324.1069 L579.769,324.8019 L576.7725,325.4397 L573.7534,325.9679 L573.7699,326.054 L567.7044,327.1261 L561.7149,328.5952 L555.5556,329.1773 L549.6049,330.8488 L543.5087,331.7605 L543.4612,331.4873 L537.4246,332.5731 L531.4257,333.8765 L525.3818,334.9205 L519.2992,335.7415 L513.2937,337.0065 L513.3224,337.1881 L507.35,337.9969 L501.4417,339.2107 L495.4863,340.1271 L489.4574,340.58 L483.5373,341.7194 L483.5119,341.5444 L477.7554,342.5012 L472.0126,343.553 L466.242,344.4126 L460.4617,345.2064 L454.6688,345.9126 L454.6486,345.762 L449.1959,346.9304 L443.6854,347.6667 L438.1349,348.1041 L432.6133,348.757 L427.117,349.5998 L427.0951,349.4227 L421.9441,350.144 L416.8021,350.9382 L411.6297,351.4864 L406.4494,351.9712 L401.3111,352.7944 L401.3358,353.0096 L396.5616,353.1349 L391.8841,354.1025 L387.1541,354.6124 L382.4251,355.1311 L377.68,355.51 " fill="none" style="stroke: #A9A9A9; stroke-width: 2.0;"/><polygon fill="#A9A9A9" points="759.63,70.25,759.6999,70.2551,759.6344,72.2047,759.9786,74.1839,760.1894,76.1535,759.9615,78.0914,760.3408,80.0732,760.316,80.0656,760.5337,78.9493,760.8763,77.871,761.3057,76.819,761.4358,75.6761,761.9852,74.6606,762.0388,74.8372,763.0066,74.7884,764.131,75.2552,765.2746,75.7849,766.3069,75.9487,767.3978,76.3049,767.4117,76.3229,765.8377,75.0855,764.3272,73.9299,762.7861,72.7348,761.3036,71.615,759.63,70.25" style="stroke: #A9A9A9; stroke-width: 2.0;"/><!--link donde to quien--><path d="M237.77,75.14 L237.8602,75.1644 L236.6715,78.4911 L236.0113,81.9609 L235.179,85.3842 L233.7807,88.6541 L233.1659,92.1362 L233.1323,92.1284 L232.0919,95.9499 L231.2212,99.8106 L230.4685,103.6984 L229.3093,107.4924 L228.7194,111.4178 L228.9608,111.4653 L228.0375,113.4319 L227.8191,115.5372 L227.6867,117.6595 L227.054,119.6833 L226.6844,121.7588 L226.7142,121.764 L226.3022,123.9013 L226.0263,126.0619 L225.6847,128.2113 L225.4684,130.3822 L224.8438,132.483 L225.1389,132.5256 L224.8236,134.7351 L224.318,136.917 L224.091,139.1392 L223.877,141.3633 L223.2492,143.5276 L222.9308,143.4911 L223.2895,145.8225 L222.5996,148.0336 L222.7069,150.3361 L221.9933,152.5445 L221.9525,154.83 L221.9222,154.8275 L222.0915,157.1565 L221.552,159.4272 L221.4308,161.7323 L221.3447,164.0402 L221.0052,166.3274 L221.19,166.336 L220.8943,168.6532 L220.9143,170.9852 L220.4234,173.2932 L220.6945,175.637 L220.4591,177.957 L220.7027,177.9589 L220.638,180.2984 L220.6942,182.6388 L220.1884,184.9748 L220.0945,187.314 L220.3657,189.6562 L220.0897,189.6465 L220.4218,191.9965 L220.4429,194.3355 L220.9151,196.6904 L220.6171,199.0183 L220.7769,201.3622 L220.6249,201.3496 L221.0714,203.7006 L220.8684,205.9977 L221.1273,208.3332 L221.8382,210.7061 L221.7442,213.0123 L221.936,213.0385 L222.3827,215.3628 L222.2326,217.6055 L222.8299,219.9504 L223.2643,222.273 L223.3194,224.5438 L223.1134,224.5032 L223.7245,226.8056 L224.2682,229.0947 L224.9444,231.4098 L225.1053,233.6235 L225.5541,235.8939 L225.7528,235.9466 L225.9054,238.052 L226.4415,240.2592 L227.538,242.615 L227.6028,244.6971 L228.5,247 L228.7126,247.0772 L229.7281,250.1766 L230.6716,253.2499 L231.7775,256.3821 L233.2588,259.6506 L234.2089,262.7263 L234.0886,262.6695 L235.8978,265.9133 L236.8887,268.7709 L238.81,272.0676 L240.2074,275.1171 L241.4638,278.1 L241.5585,278.1536 L243.1561,281.0681 L245.093,284.1746 L246.7234,287.1076 L248.2256,289.9681 L249.8342,292.8887 L249.9342,292.9536 L251.5968,295.6515 L253.7237,298.6504 L255.3254,301.3089 L257.1432,304.1075 L258.89,306.86 " fill="none" style="stroke: #A9A9A9; stroke-width: 2.0;"/><polygon fill="#A9A9A9" points="239.23,70.18,239.2833,70.2254,237.8475,71.5899,236.7244,73.2207,235.4994,74.7648,233.9397,76.0237,232.8433,77.6774,232.831,77.6546,233.7694,77.012,234.7701,76.4841,235.8143,76.036,236.709,75.313,237.813,74.975,237.9751,75.0632,238.1689,75.8686,238.836,76.9314,239.5609,78.0256,239.9498,78.937,240.5153,79.9446,240.5379,79.9476,240.2477,77.9903,240.0602,76.0465,239.8232,74.0963,239.6806,72.1584,239.23,70.18" style="stroke: #A9A9A9; stroke-width: 2.0;"/><!--link por to quien--><path d="M305.5,224.85 L305.7802,224.85 L304.9476,235.1025 L305.7577,245.355 L306.0329,255.6075 L304.5488,265.86 L305.3964,276.1125 L304.9313,286.365 L304.9887,296.6175 L305.5,306.87 " fill="none" style="stroke: #A9A9A9; stroke-width: 2.0;"/><polygon fill="#A9A9A9" points="305.5,219.63,305.564,219.6585,304.5738,221.3739,303.9589,223.2562,303.2217,225.0841,302.0827,226.7334,301.5,228.63,301.4817,228.6117,302.1995,227.7295,303.0096,226.9396,303.8839,226.2139,304.537,225.267,305.5,224.63,305.6305,224.7605,306.1514,225.2814,307.0534,226.1834,308.0018,227.1318,308.6798,227.8098,309.5,228.63,309.5208,228.6392,308.6903,226.8257,307.9544,225.0542,307.1728,223.2624,306.4784,221.5093,305.5,219.63" style="stroke: #A9A9A9; stroke-width: 2.0;"/><!--link quien to que--><path d="M305.5,425.34 L305.7802,425.34 L304.9476,434.7683 L305.7577,444.1967 L306.0329,453.625 L304.5488,463.0533 L305.3964,472.4817 L305.5,481.91 " fill="none" style="stroke: #A9A9A9; stroke-width: 2.0;"/><polygon fill="#A9A9A9" points="305.5,420.19,305.564,420.2185,304.5738,421.9339,303.9589,423.8162,303.2217,425.6441,302.0827,427.2934,301.5,429.19,301.4817,429.1717,302.1995,428.2895,303.0096,427.4996,303.8839,426.7739,304.537,425.827,305.5,425.19,305.6305,425.3205,306.1514,425.8414,307.0534,426.7434,308.0018,427.6918,308.6798,428.3698,309.5,429.19,309.5208,429.1992,308.6903,427.3857,307.9544,425.6142,307.1728,423.8224,306.4784,422.0693,305.5,420.19" style="stroke: #A9A9A9; stroke-width: 2.0;"/><!--link que to para--><path d="M208.52,597.96 L208.6647,598.2 L199.8148,602.5627 L191.8131,608.3324 L183.5351,613.6439 L174.3489,617.4487 L166.3665,623.2504 L157.7064,627.928 L149.316,633.0529 L141.1131,638.4888 L132.2641,642.853 L124.7011,649.3505 L115.4661,653.0745 L107.48,658.87 " fill="none" style="stroke: #A9A9A9; stroke-width: 2.0;"/><polygon fill="#A9A9A9" points="213.15,595.17,213.1587,595.2395,211.1783,595.2778,209.249,595.7237,207.3031,596.0368,205.3025,595.9136,203.3775,596.3944,203.3713,596.3693,204.4417,596.5281,205.5434,596.8137,206.6669,597.1875,207.7152,597.2575,208.8688,597.753,209.048,597.7973,208.3932,598.8008,208.2614,599.9337,208.1935,601.0823,207.7542,602.1391,207.5103,603.2443,207.5289,603.2573,208.6295,601.6233,209.815,600.0486,210.9595,598.4453,212.1821,596.8966,213.15,595.17" style="stroke: #A9A9A9; stroke-width: 2.0;"/><!--link que to como--><path d="M447.82,597.63 L447.8671,597.7107 L449.8511,598.7119 L452.1114,600.186 L454.2816,601.5061 L456.1561,602.3198 L458.4401,603.8345 L458.4216,603.8053 L460.3892,604.9664 L462.4496,606.2749 L464.5745,607.6858 L466.477,608.7438 L468.691,610.296 L468.8302,610.499 L470.4894,611.407 L472.5548,612.9076 L474.6699,614.4804 L476.4965,615.6327 L478.4748,617.0062 L478.4931,617.0304 L480.31,618.3849 L482.21,619.8496 L484.0699,621.2612 L486.0063,622.7742 L487.6933,623.9564 L487.885,624.1848 L489.5984,625.624 L491.188,626.9158 L492.9588,628.4233 L494.738,629.9409 L496.2483,631.1383 L496.0275,630.9059 L498.0147,632.8379 L499.2749,634.0047 L501.0878,635.7533 L502.3315,636.9028 L504.0417,638.5433 L504.0192,638.5228 L505.6722,640.289 L506.7992,641.5765 L508.2365,643.1466 L509.7,644.7403 L510.9754,646.1629 L511.1224,646.2752 L512.1692,647.727 L513.4672,649.3707 L514.3587,650.704 L515.8565,652.5003 L516.9513,653.9888 L517.1661,654.1037 L518.8626,657.3292 L520.6657,660.6118 L521.9733,663.6292 L523.6442,666.841 L525.6369,670.225 L525.367,670.1665 L526.3467,673.6113 L527.0222,676.9902 L528.1389,680.4647 L528.5024,683.7759 L529.3136,687.1842 L529.1622,687.166 L528.9909,690.7192 L528.1724,694.1946 L527.8141,697.7252 L527.9061,701.3101 L527.1963,704.7985 L527.377,704.8681 L526.8056,706.7221 L525.6722,708.3598 L525.2427,710.2684 L524.6598,712.118 L523.7196,713.8301 L523.5371,713.7262 L522.6387,715.643 L521.6804,717.5257 L520.8396,719.4753 L519.5423,721.1651 L518.5,723 L518.6661,723.1211 L516.9757,724.6724 L515.6058,726.4575 L514.7044,728.5842 L512.9406,730.082 L511.8726,732.0872 L512.0433,732.2356 L510.4715,733.8386 L508.8419,735.3913 L507.3427,737.0574 L506.1449,738.9854 L504.5206,740.5428 L504.4275,740.4478 L503.1045,742.2999 L501.1481,743.506 L499.912,745.4466 L498.2703,746.9737 L496.5194,748.3893 L496.5897,748.4724 L494.8179,749.8574 L493.298,751.5399 L491.5505,752.9536 L489.7079,754.2549 L487.9442,755.6495 L488.015,755.7454 L486.0951,756.9423 L484.5038,758.5844 L482.5409,759.7229 L480.7308,761.0685 L478.8705,762.3462 L478.7234,762.1193 L476.8731,763.4262 L475.2,765.0064 L473.2762,766.1999 L471.2625,767.2547 L469.3735,768.5019 L469.3024,768.3776 L467.3562,769.5449 L465.284,770.4922 L463.5582,772.0443 L461.661,773.2971 L459.5287,774.1393 L459.6347,774.3479 L457.6451,775.443 L455.4542,776.1419 L453.4758,777.259 L451.3567,778.0993 L449.4113,779.2813 L449.4633,779.3963 L447.3935,780.315 L445.3866,781.3725 L443.1804,781.9897 L441.1349,782.9621 L439.0966,783.9503 L439.1705,784.1331 L437.1038,785.0279 L434.8366,785.4267 L432.8024,786.4018 L430.7722,787.387 L428.6601,788.1692 L428.5677,787.9139 L426.6169,789.0752 L424.5058,789.7936 L422.355,790.402 L420.2951,791.2618 L418.177,791.9607 L418.2768,792.2688 L416.0432,792.5057 L414.0384,793.4485 L411.9435,794.1135 L409.8294,794.719 L407.7227,795.3473 L407.7401,795.4075 L405.6667,795.9967 L403.5052,796.2828 L401.4629,796.979 L399.3853,797.554 L397.3725,798.3519 L397.3796,798.3794 L395.3482,798.9189 L393.3223,799.4796 L391.2375,799.8139 L389.2283,800.439 L387.2017,800.9971 L387.1902,800.9449 L383.3566,802.108 L379.4419,802.9034 L375.4542,803.3681 L371.5934,804.4078 L367.7,805.3 " fill="none" style="stroke: #A9A9A9; stroke-width: 2.0;"/><polygon fill="#A9A9A9" points="443.31,595.12,443.366,595.1621,444.3846,596.6104,445.7314,598.3057,446.9713,599.9206,447.8599,601.2709,449.2348,602.9874,449.2099,602.9803,448.7873,601.8605,448.4903,600.7766,448.2806,599.7177,447.77,598.5727,447.6808,597.5482,447.7315,597.7257,448.7109,597.0354,449.8384,596.8632,450.9839,596.7542,452.0243,596.2775,453.12,595.9942,453.122,596.0168,451.157,595.8087,449.2013,595.7038,447.2411,595.5491,445.2893,595.4893,443.31,595.12" style="stroke: #A9A9A9; stroke-width: 2.0;"/><!--link para to como--><path d="M113.86,718.73 L113.9837,718.9815 L122.3088,722.5103 L131.3591,727.5133 L140.1732,732.0362 L148.2108,734.9805 L157.2776,740.017 L165.765,743.8757 L174.483,748.2032 L183.3612,752.8565 L191.6871,756.3868 L201.1125,762.1524 L209.1084,765.0119 L218.0556,769.8054 L227.1189,774.8348 L235.5069,778.4914 L244.25,782.87 " fill="none" style="stroke: #A9A9A9; stroke-width: 2.0;"/><polygon fill="#A9A9A9" points="109.19,716.43,109.2439,716.4748,110.3438,717.8558,111.7594,719.4994,113.0723,721.0575,114.047,722.3343,115.4897,724.0005,115.4652,723.9922,114.9919,722.8834,114.6422,721.8166,114.3785,720.7788,113.8185,719.6407,113.6735,718.6432,113.7328,718.818,114.6775,718.081,115.7953,717.8543,116.9341,717.6898,117.9502,717.1631,119.0309,716.8269,119.0318,716.8497,117.0623,716.7369,115.0969,716.7276,113.1296,716.6684,111.166,716.7045,109.19,716.43" style="stroke: #A9A9A9; stroke-width: 2.0;"/><!--
@startuml
skinparam titleBorderColor #222222
skinparam titleBackgroundColor #222222
skinparam titlefontColor #orange
skinparam titleFontStyle bold
skinparam titleFontSize 30

skinparam handwritten true
skinparam shadowing false
skinparam backgroundColor #222222
skinparam padding 3

skinparam note {
    backgroundColor #222222
    borderColor #DarkGrey
    FontColor #DarkGrey
    fontSize 20
}
skinparam arrow {
    Thickness 2
    Color #DarkGrey
    FontSize 20
    FontName courier
    FontStyle normal
    FontColor #DarkGrey
}
skinparam class {
    fontColor<<¿Dónde?>> #87ceeb
    fontColor<<¿Cuándo?>> #87ceeb
    fontColor<<¿Por qué?>> #DC143C
    fontColor<<¿Quién?>> #228B22
    fontColor<<¿Qué?>> #228B22
    fontColor<<¿Para qué?>> #228B22
    FontColor #DarkGrey
    StereotypeFontColor #DarkGrey
    StereotypeFontColor<<¿Dónde?>> #87ceeb
    StereotypeFontColor<<¿Cuándo?>> #87ceeb
    StereotypeFontColor<<¿Por qué?>> #DC143C
    StereotypeFontColor<<¿Quién?>> #228B22
    StereotypeFontColor<<¿Para qué?>> #228B22
    StereotypeFontColor<<¿Qué?>> #228B22
    fontStyle bold
    backgroundColor #222222
    borderColor<<¿Dónde?>> #87ceeb
    borderColor<<¿Cuándo?>> #87ceeb
    borderColor<<¿Por qué?>> #DC143C
    borderColor<<¿Quién?>> #228B22
    borderColor<<¿Para qué?>> #228B22
    borderColor<<¿Qué?>> #228B22
    BorderColor #DarkGrey
    fontSize 20
}

hide circle
hide members

class donde as "SML-DEV mailing list" <<¿Dónde?>>
note right
<color:#87ceeb>para simplificar XML</color>
end note

class cuando as "2001-4" <<¿Cuándo?>>
note right
<color:#87ceeb>3-6 años tras la creación de XML</color>
end note

class por as "Ineficiencia" <<¿Por qué?>>
note right
<color:red>Hay que escribir muchos</color>
<color:red>caracteres redundantes en XML:</color>
<color:red> apertura y cierre</color>
<color:red> de cada etiqueta y de cada elemento</color>
end note

class quien as "Clark Evans\nIngy döt Net\nOren Ben-Kiki" <<¿Quién?>>

class que as "Yet Another Markup Language\nYAML Ain't Markup Language\n(YAML)" <<¿Qué?>>
note right
<color:green>es un lenguaje de serialización de datos basado</color>
<color:green>en Unicode, amigable para los humanos, diseñado</color>
<color:green>en torno a los tipos de datos nativos comunes de</color>
<color:green>los lenguajes de programación dinámicos</color>
end note

class para as "Eficiencia" <<¿Para qué?>>
note right
<color:green>Agilizar tanto en desarrollo como</color>
<color:green>en explotación los servicios de correo</color>
end note

class como as "Descripción" <<¿Cómo?>>

por -up-> cuando
por -up-> donde

quien -up-> cuando
quien -up-> donde
quien -up-> por

que -up-> quien

para -up-> que

como -up-> que
como -up-> para

@enduml

PlantUML version 1.2019.05(Sat Apr 20 18:45:36 CEST 2019)
(GPL source distribution)
Java Runtime: Java(TM) SE Runtime Environment
JVM: Java HotSpot(TM) 64-Bit Server VM
Java Version: 11.0.14+8-LTS-263
Operating System: Windows 10
OS Version: 10.0
Default Encoding: windows-1252
Language: es
Country: ES
--></g></svg>