<?xml version="1.0" encoding="UTF-8" standalone="no"?><svg xmlns="http://www.w3.org/2000/svg" xmlns:xlink="http://www.w3.org/1999/xlink" contentScriptType="application/ecmascript" contentStyleType="text/css" height="273px" preserveAspectRatio="none" style="width:127px;height:273px;background:#222222;" version="1.1" viewBox="0 0 127 273" width="127px" zoomAndPan="magnify"><defs/><g><polygon fill="#222222" points="22.5,10,22.5,10.2102,32.625,9.5857,42.75,10.1933,52.875,10.3997,63,9.2866,73.125,9.9223,83.25,9.5735,93.375,9.6165,103.5,10,103.4913,9.979,105.1796,10.5193,107.1062,11.635,108.7229,12.0026,110.5458,12.868,112.3388,13.6612,112.4719,13.7163,113.0447,15.418,113.8243,17.2054,114.5257,18.9604,115.3227,20.755,116,22.5,116.0797,22.5,116.1952,27.1227,116.2237,31.7453,116.2264,36.368,116.0849,40.9906,116,45.6133,116.1428,45.6724,115.484,47.4706,114.3134,49.0568,114.0123,51.0031,112.9798,52.6465,112.3388,54.4521,112.4069,54.6165,110.5079,55.0319,108.7946,55.8955,107.1301,56.8772,105.2616,57.366,103.5,58.1133,103.5,58.2186,93.375,58.4519,83.25,58.5295,73.125,58.1094,63,58.4005,52.875,57.5409,42.75,58.3977,32.625,58.6615,22.5,58.1133,22.5567,58.2502,20.8104,57.5698,18.9028,56.5,17.1135,55.7157,15.3497,54.993,13.6612,54.4521,13.643,54.4446,12.8684,52.6593,12.4065,51.0035,11.4107,49.1265,10.6266,47.3373,10,45.6133,10.0761,45.6133,9.7777,40.9906,9.827,36.368,10.2163,31.7453,10.1452,27.1227,10,22.5,10.2262,22.5937,10.6331,20.6912,11.5628,19.0052,12.3785,17.272,12.7835,15.3687,13.6612,13.6612,13.6489,13.6316,15.445,12.9677,17.2798,12.3974,18.9639,11.4632,20.7912,10.8747,22.5,10" style="stroke: #A80036; stroke-width: 1.5;"/><text fill="#A9A9A9" font-family="courier" font-size="20" lengthAdjust="spacingAndGlyphs" textLength="84" x="21" y="41.1074">&lt;sent1&gt;</text><polygon fill="#222222" points="22.5,78.1133,22.5,78.3235,32.625,77.699,42.75,78.3066,52.875,78.513,63,77.3999,73.125,78.0356,83.25,77.6868,93.375,77.7298,103.5,78.1133,103.4913,78.0923,105.1796,78.6326,107.1062,79.7482,108.7229,80.1159,110.5458,80.9813,112.3388,81.7744,112.4719,81.8295,113.0447,83.5313,113.8243,85.3187,114.5257,87.0737,115.3227,88.8683,116,90.6133,116.0797,90.6133,116.1952,95.2359,116.2237,99.8586,116.2264,104.4813,116.0849,109.1039,116,113.7266,116.1428,113.7857,115.484,115.5839,114.3134,117.1701,114.0123,119.1164,112.9798,120.7598,112.3388,122.5654,112.4069,122.7298,110.5079,123.1452,108.7946,124.0088,107.1301,124.9905,105.2616,125.4793,103.5,126.2266,103.5,126.3319,93.375,126.5652,83.25,126.6428,73.125,126.2227,63,126.5138,52.875,125.6541,42.75,126.5109,32.625,126.7748,22.5,126.2266,22.5567,126.3635,20.8104,125.6831,18.9028,124.6133,17.1135,123.829,15.3497,123.1063,13.6612,122.5654,13.643,122.5579,12.8684,120.7726,12.4065,119.1168,11.4107,117.2398,10.6266,115.4506,10,113.7266,10.0761,113.7266,9.7777,109.1039,9.827,104.4813,10.2163,99.8586,10.1452,95.2359,10,90.6133,10.2262,90.707,10.6331,88.8045,11.5628,87.1185,12.3785,85.3853,12.7835,83.482,13.6612,81.7744,13.6489,81.7449,15.445,81.081,17.2798,80.5107,18.9639,79.5765,20.7912,78.988,22.5,78.1133" style="stroke: #A80036; stroke-width: 1.5;"/><text fill="#A9A9A9" font-family="courier" font-size="20" lengthAdjust="spacingAndGlyphs" textLength="84" x="21" y="109.2207">&lt;sent2&gt;</text><polygon fill="#222222" points="22.5,146.2266,22.5,146.4367,32.625,145.8122,42.75,146.4198,52.875,146.6262,63,145.5132,73.125,146.1488,83.25,145.8001,93.375,145.8431,103.5,146.2266,103.4913,146.2056,105.1796,146.7459,107.1062,147.8615,108.7229,148.2292,110.5458,149.0946,112.3388,149.8877,112.4719,149.9428,113.0447,151.6446,113.8243,153.432,114.5257,155.187,115.3227,156.9816,116,158.7266,116.0797,158.7266,116.1952,163.3492,116.2237,167.9719,116.2264,172.5945,116.0849,177.2172,116,181.8398,116.1428,181.899,115.484,183.6972,114.3134,185.2834,114.0123,187.2297,112.9798,188.8731,112.3388,190.6787,112.4069,190.8431,110.5079,191.2585,108.7946,192.122,107.1301,193.1038,105.2616,193.5926,103.5,194.3398,103.5,194.4451,93.375,194.6785,83.25,194.7561,73.125,194.3359,63,194.6271,52.875,193.7674,42.75,194.6242,32.625,194.888,22.5,194.3398,22.5567,194.4767,20.8104,193.7964,18.9028,192.7266,17.1135,191.9423,15.3497,191.2195,13.6612,190.6787,13.643,190.6712,12.8684,188.8858,12.4065,187.2301,11.4107,185.3531,10.6266,183.5639,10,181.8398,10.0761,181.8398,9.7777,177.2172,9.827,172.5945,10.2163,167.9719,10.1452,163.3492,10,158.7266,10.2262,158.8203,10.6331,156.9177,11.5628,155.2317,12.3785,153.4986,12.7835,151.5952,13.6612,149.8877,13.6489,149.8582,15.445,149.1943,17.2798,148.624,18.9639,147.6897,20.7912,147.1012,22.5,146.2266" style="stroke: #A80036; stroke-width: 1.5;"/><text fill="#A9A9A9" font-family="courier" font-size="20" lengthAdjust="spacingAndGlyphs" textLength="84" x="21" y="177.334">&lt;sent3&gt;</text><polygon fill="#222222" points="22.5,214.3398,22.5,214.55,32.625,213.9255,42.75,214.5331,52.875,214.7395,63,213.6264,73.125,214.2621,83.25,213.9134,93.375,213.9563,103.5,214.3398,103.4913,214.3189,105.1796,214.8592,107.1062,215.9748,108.7229,216.3424,110.5458,217.2079,112.3388,218.001,112.4719,218.0561,113.0447,219.7578,113.8243,221.5452,114.5257,223.3002,115.3227,225.0948,116,226.8398,116.0797,226.8398,116.1952,231.4625,116.2237,236.0852,116.2264,240.7078,116.0849,245.3305,116,249.9531,116.1428,250.0123,115.484,251.8105,114.3134,253.3967,114.0123,255.343,112.9798,256.9864,112.3388,258.792,112.4069,258.9564,110.5079,259.3717,108.7946,260.2353,107.1301,261.217,105.2616,261.7059,103.5,262.4531,103.5,262.5584,93.375,262.7918,83.25,262.8694,73.125,262.4492,63,262.7403,52.875,261.8807,42.75,262.7375,32.625,263.0013,22.5,262.4531,22.5567,262.59,20.8104,261.9097,18.9028,260.8399,17.1135,260.0556,15.3497,259.3328,13.6612,258.792,13.643,258.7844,12.8684,256.9991,12.4065,255.3433,11.4107,253.4664,10.6266,251.6771,10,249.9531,10.0761,249.9531,9.7777,245.3305,9.827,240.7078,10.2163,236.0852,10.1452,231.4625,10,226.8398,10.2262,226.9335,10.6331,225.031,11.5628,223.345,12.3785,221.6119,12.7835,219.7085,13.6612,218.001,13.6489,217.9715,15.445,217.3076,17.2798,216.7373,18.9639,215.803,20.7912,215.2145,22.5,214.3398" style="stroke: #A80036; stroke-width: 1.5;"/><text fill="#A9A9A9" font-family="courier" font-size="20" lengthAdjust="spacingAndGlyphs" textLength="84" x="21" y="245.4473">&lt;sent4&gt;</text><path d="M63,58.1133 L63.0934,58.1133 L62.8159,62.1133 L63.0859,66.1133 L63.1776,70.1133 L62.6829,74.1133 L63,78.1133 " fill="#A9A9A9" style="stroke: #A9A9A9; stroke-width: 1.5;"/><polygon fill="#A9A9A9" points="59,68.1133,59.065,68.1393,59.6718,70.062,60.6598,72.1372,61.5237,74.1628,61.9792,76.025,63,78.1133,62.9759,78.1037,63.668,76.0605,64.4813,74.0658,65.3789,72.1048,65.986,70.0277,67,68.1133,67.1305,68.2438,66.0514,68.7647,65.3534,69.6667,64.7018,70.6151,63.7798,71.2931,63,72.1133,63.0161,72.1294,62.1925,71.3058,61.4421,70.5554,60.6564,69.7696,59.938,69.0513,59,68.1133" style="stroke: #A9A9A9; stroke-width: 1.0;"/><path d="M63,126.2266 L63.0934,126.2266 L62.8159,130.2266 L63.0859,134.2266 L63.1776,138.2266 L62.6829,142.2266 L63,146.2266 " fill="#A9A9A9" style="stroke: #A9A9A9; stroke-width: 1.5;"/><polygon fill="#A9A9A9" points="59,136.2266,59.065,136.2526,59.6718,138.1753,60.6598,140.2505,61.5237,142.276,61.9792,144.1382,63,146.2266,62.9759,146.2169,63.668,144.1738,64.4813,142.1791,65.3789,140.2181,65.986,138.141,67,136.2266,67.1305,136.3571,66.0514,136.878,65.3534,137.7799,64.7018,138.7284,63.7798,139.4063,63,140.2266,63.0161,140.2426,62.1925,139.419,61.4421,138.6686,60.6564,137.8829,59.938,137.1646,59,136.2266" style="stroke: #A9A9A9; stroke-width: 1.0;"/><path d="M63,194.3398 L63.0934,194.3398 L62.8159,198.3398 L63.0859,202.3398 L63.1776,206.3398 L62.6829,210.3398 L63,214.3398 " fill="#A9A9A9" style="stroke: #A9A9A9; stroke-width: 1.5;"/><polygon fill="#A9A9A9" points="59,204.3398,59.065,204.3659,59.6718,206.2886,60.6598,208.3638,61.5237,210.3893,61.9792,212.2515,63,214.3398,62.9759,214.3302,63.668,212.287,64.4813,210.2924,65.3789,208.3314,65.986,206.2543,67,204.3398,67.1305,204.4703,66.0514,204.9913,65.3534,205.8932,64.7018,206.8417,63.7798,207.5196,63,208.3398,63.0161,208.3559,62.1925,207.5323,61.4421,206.7819,60.6564,205.9962,59.938,205.2779,59,204.3398" style="stroke: #A9A9A9; stroke-width: 1.0;"/><!--
@startuml
skinparam backgroundColor #222222
skinparam handwritten true
skinparam shadowing false
skinparam padding 1
skinparam arrow {
    Thickness 2
    Color #DarkGrey
    FontSize 20
    FontName courier
    FontStyle normal
    FontColor #DarkGrey
}
skinparam activity {
    Thickness 2
    BackgroundColor #222222
    Color #DarkGrey
    FontSize 20
    FontName courier
    FontStyle normal
    FontColor #DarkGrey
}
:<sent1>;
:<sent2>;
:<sent3>;
:<sent4>;
@enduml

PlantUML version 1.2019.05(Sat Apr 20 18:45:36 CEST 2019)
(GPL source distribution)
Java Runtime: Java(TM) SE Runtime Environment
JVM: Java HotSpot(TM) 64-Bit Server VM
Java Version: 11.0.14+8-LTS-263
Operating System: Windows 10
OS Version: 10.0
Default Encoding: windows-1252
Language: es
Country: ES
--></g></svg>