<?xml version="1.0" encoding="UTF-8" standalone="no"?><svg xmlns="http://www.w3.org/2000/svg" xmlns:xlink="http://www.w3.org/1999/xlink" contentScriptType="application/ecmascript" contentStyleType="text/css" height="221px" preserveAspectRatio="none" style="width:86px;height:221px;" version="1.1" viewBox="0 0 86 221" width="86px" zoomAndPan="magnify"><defs><filter height="300%" id="f1uowwg5bx9h8q" width="300%" x="-1" y="-1"><feGaussianBlur result="blurOut" stdDeviation="2.0"/><feColorMatrix in="blurOut" result="blurOut2" type="matrix" values="0 0 0 0 0 0 0 0 0 0 0 0 0 0 0 0 0 0 .4 0"/><feOffset dx="4.0" dy="4.0" in="blurOut2" result="blurOut3"/><feBlend in="SourceGraphic" in2="blurOut3" mode="normal"/></filter></defs><g><ellipse cx="42.5" cy="20" fill="#000000" filter="url(#f1uowwg5bx9h8q)" rx="10" ry="10" style="stroke: none; stroke-width: 1.0;"/><rect fill="#FEFECE" filter="url(#f1uowwg5bx9h8q)" height="35.0938" rx="12.5" ry="12.5" style="stroke: #A80036; stroke-width: 1.5;" width="65" x="10" y="50"/><text fill="#000000" font-family="sans-serif" font-size="12" lengthAdjust="spacingAndGlyphs" textLength="45" x="20" y="72.457">Activity 1</text><ellipse cx="42.5" cy="115.0938" fill="#FEFECE" filter="url(#f1uowwg5bx9h8q)" rx="10" ry="10" style="stroke: #A80036; stroke-width: 1.5;"/><path d="M38.9844,119.0938 L42.2813,110.5 L43.5,110.5 L47.0156,119.0938 L45.7344,119.0938 L44.7188,116.4844 L41.1406,116.4844 L40.1875,119.0938 L38.9844,119.0938 Z M41.4688,115.5625 L44.375,115.5625 L43.4844,113.1875 Q43.0625,112.1094 42.875,111.4063 Q42.7031,112.2344 42.4063,113.0469 L41.4688,115.5625 Z "/><ellipse cx="42.5" cy="145.0938" fill="#FEFECE" filter="url(#f1uowwg5bx9h8q)" rx="10" ry="10" style="stroke: #A80036; stroke-width: 1.5;"/><path d="M38.9844,149.0938 L42.2813,140.5 L43.5,140.5 L47.0156,149.0938 L45.7344,149.0938 L44.7188,146.4844 L41.1406,146.4844 L40.1875,149.0938 L38.9844,149.0938 Z M41.4688,145.5625 L44.375,145.5625 L43.4844,143.1875 Q43.0625,142.1094 42.875,141.4063 Q42.7031,142.2344 42.4063,143.0469 L41.4688,145.5625 Z "/><rect fill="#FEFECE" filter="url(#f1uowwg5bx9h8q)" height="35.0938" rx="12.5" ry="12.5" style="stroke: #A80036; stroke-width: 1.5;" width="65" x="10" y="175.0938"/><text fill="#000000" font-family="sans-serif" font-size="12" lengthAdjust="spacingAndGlyphs" textLength="45" x="20" y="197.5508">Activity 2</text><line style="stroke: #A80036; stroke-width: 1.5;" x1="42.5" x2="42.5" y1="30" y2="50"/><polygon fill="#A80036" points="38.5,40,42.5,50,46.5,40,42.5,44" style="stroke: #A80036; stroke-width: 1.0;"/><line style="stroke: #A80036; stroke-width: 1.5;" x1="42.5" x2="42.5" y1="85.0938" y2="105.0938"/><polygon fill="#A80036" points="38.5,95.0938,42.5,105.0938,46.5,95.0938,42.5,99.0938" style="stroke: #A80036; stroke-width: 1.0;"/><line style="stroke: #A80036; stroke-width: 1.5;" x1="42.5" x2="42.5" y1="155.0938" y2="175.0938"/><polygon fill="#A80036" points="38.5,165.0938,42.5,175.0938,46.5,165.0938,42.5,169.0938" style="stroke: #A80036; stroke-width: 1.0;"/><!--
@startuml
start
:Activity 1;
(A)
detach
(A)
:Activity 2;
@enduml

PlantUML version 1.2019.05(Sat Apr 20 18:45:36 CEST 2019)
(GPL source distribution)
Java Runtime: Java(TM) SE Runtime Environment
JVM: Java HotSpot(TM) 64-Bit Server VM
Java Version: 11.0.8+10-LTS
Operating System: Windows 10
OS Version: 10.0
Default Encoding: windows-1252
Language: es
Country: ES
--></g></svg>