<?xml version="1.0" encoding="UTF-8" standalone="no"?><svg xmlns="http://www.w3.org/2000/svg" xmlns:xlink="http://www.w3.org/1999/xlink" contentScriptType="application/ecmascript" contentStyleType="text/css" height="278px" preserveAspectRatio="none" style="width:862px;height:278px;background:#222222;" version="1.1" viewBox="0 0 862 278" width="862px" zoomAndPan="magnify"><defs/><g><polygon fill="#222222" points="294,2,294,2.2102,303.9643,1.5857,313.9286,2.1933,323.8929,2.3997,333.8571,1.2866,343.8214,1.9223,353.7857,1.5735,363.75,1.6165,373.7143,1.9318,383.6786,1.3086,393.6429,2.5536,403.6071,1.3697,413.5714,1.8022,423.5357,2.4319,433.5,1.9142,443.4643,2.0682,453.4286,1.9681,463.3929,2.1785,473.3571,2.2391,483.3214,2.5857,493.2857,2.6711,503.25,2.6793,513.2143,2.2546,523.1786,2.4636,533.1429,2.7022,543.1071,1.2788,553.0714,2.6785,563.0357,1.7035,573,2,573.5338,2,572.505,12.7469,572.9315,23.4938,573.7416,34.2406,572.9513,44.9875,573,55.7344,573,55.8397,563.0357,56.073,553.0714,56.1506,543.1071,55.7305,533.1429,56.0216,523.1786,55.162,513.2143,56.0188,503.25,56.2826,493.2857,56.1789,483.3214,56.3474,473.3571,55.2513,463.3929,55.0822,453.4286,55.113,443.4643,55.6755,433.5,55.5378,423.5357,56.4158,413.5714,55.5597,403.6071,55.3913,393.6429,55.9626,383.6786,55.0675,373.7143,55.2152,363.75,56.3833,353.7857,56.17,343.8214,56.4689,333.8571,55.4126,323.8929,56.0536,313.9286,56.3248,303.9643,55.262,294,55.7344,293.9041,55.7344,294.126,44.9875,294.6518,34.2406,293.9958,23.4938,294.4626,12.7469,294,2" style="stroke: #222222; stroke-width: 1.5;"/><text fill="#FFA500" font-family="sans-serif" font-size="30" font-weight="bold" lengthAdjust="spacingAndGlyphs" textLength="257" x="305" y="41.1426">Sintaxis: Posición</text><polygon fill="#222222" points="18.5,146.7344,18.5,146.9446,28.0714,146.3201,37.6429,146.9277,47.2143,147.1341,56.7857,146.021,66.3571,146.6567,75.9286,146.3079,85.5,146.7344,85.4511,146.6163,87.2591,147.4456,88.9473,147.9859,90.8739,149.1016,92.4907,149.4692,94.3388,150.3955,94.2779,150.3703,95.2041,152.2184,95.7769,153.9201,96.5565,155.7075,97.2579,157.4625,98,159.2344,98.0595,159.2344,98.0797,162.4656,98.1952,165.6969,98.2237,168.9281,98.2264,172.1594,98,175.3906,98.0784,175.4231,97.4105,177.2175,96.7518,179.0157,95.5812,180.6019,95.28,182.5482,94.3388,184.2295,94.301,184.1381,92.6392,185.1261,90.7402,185.5415,89.0268,186.4051,87.3624,187.3868,85.5,187.8906,85.5,187.8419,75.9286,187.9959,66.3571,188.2293,56.7857,188.3069,47.2143,187.8867,37.6429,188.1778,28.0714,187.3182,18.5,187.8906,18.5363,187.9782,16.8022,187.3272,15.0212,186.5631,13.2749,185.8827,11.3673,184.8129,9.6612,184.2295,9.4603,184.1463,8.7376,182.3824,8.1786,180.6864,7.4039,178.9011,6.9421,177.2453,6,175.3906,5.9418,175.3906,5.8856,172.1594,6.0761,168.9281,5.7777,165.6969,5.827,162.4656,6,159.2344,6.1999,159.3172,6.8664,157.5222,7.6907,155.7925,8.0976,153.89,9.0272,152.204,9.6612,150.3955,9.7365,150.5774,11.3687,149.5178,13.1845,148.9016,14.9805,148.2376,16.8154,147.6673,18.5,146.7344" style="stroke: #FFFFFF; stroke-width: 1.5;"/><text fill="#FFFFFF" font-family="sans-serif" font-size="20" font-weight="bold" lengthAdjust="spacingAndGlyphs" textLength="76" x="14" y="175.4961">derecha</text><path d="M133.5,146.7344 L133.5,163.2344 L98.1602,167.2344 L133.5,171.2344 L133.5,187.8906 A0,0 0 0 0 133.5,187.8906 L204.5,187.8906 A0,0 0 0 0 204.5,187.8906 L204.5,156.7344 L194.5,146.7344 L133.5,146.7344 A0,0 0 0 0 133.5,146.7344 " fill="#222222" style="stroke: #FFFFFF; stroke-width: 1.0;"/><path d="M194.5,146.7344 L194.6868,146.7344 L194.1317,148.7344 L194.6718,150.7344 L194.8553,152.7344 L193.8659,154.7344 L194.5,156.7344 L194.5,156.6653 L196.5,156.3553 L198.5,156.3935 L200.5,156.6738 L202.5,156.1198 L204.5,156.7344 L204.848,157.0824 L202.1038,154.3382 L200.3757,152.6101 L198.7715,151.0059 L196.4461,148.6805 L194.5,146.7344 " fill="#222222" style="stroke: #FFFFFF; stroke-width: 1.0;"/><text fill="#00FFFF" font-family="sans-serif" font-size="20" font-weight="bold" lengthAdjust="spacingAndGlyphs" textLength="44" x="142.5" y="175.4961">right</text><polygon fill="#222222" points="252.5,146.7344,252.5,146.9446,262.125,146.3201,271.75,146.9277,281.375,147.1341,291,146.021,300.625,146.6567,310.25,146.3079,319.875,146.3509,329.5,146.7344,329.4913,146.7134,331.1796,147.2537,333.1062,148.3693,334.7229,148.737,336.5458,149.6024,338.3388,150.3955,338.4719,150.4506,339.0447,152.1524,339.8243,153.9398,340.5257,155.6948,341.3227,157.4894,342,159.2344,342.0797,159.2344,342.1952,162.4656,342.2237,165.6969,342.2264,168.9281,342.0849,172.1594,342,175.3906,342.1428,175.4498,341.484,177.248,340.3134,178.8342,340.0123,180.7805,338.9798,182.4239,338.3388,184.2295,338.4069,184.3939,336.5079,184.8092,334.7946,185.6728,333.1301,186.6545,331.2616,187.1434,329.5,187.8906,329.5,187.9959,319.875,188.2293,310.25,188.3069,300.625,187.8867,291,188.1778,281.375,187.3182,271.75,188.175,262.125,188.4388,252.5,187.8906,252.5567,188.0275,250.8104,187.3472,248.9028,186.2774,247.1135,185.4931,245.3497,184.7703,243.6612,184.2295,243.643,184.2219,242.8684,182.4366,242.4065,180.7808,241.4107,178.9039,240.6266,177.1146,240,175.3906,240.0761,175.3906,239.7777,172.1594,239.827,168.9281,240.2163,165.6969,240.1452,162.4656,240,159.2344,240.2262,159.3281,240.6331,157.4256,241.5628,155.7396,242.3785,154.0064,242.7835,152.103,243.6612,150.3955,243.6489,150.366,245.445,149.7021,247.2798,149.1318,248.9639,148.1976,250.7912,147.6091,252.5,146.7344" style="stroke: #FFFFFF; stroke-width: 1.5;"/><text fill="#FFFFFF" font-family="sans-serif" font-size="20" font-weight="bold" lengthAdjust="spacingAndGlyphs" textLength="86" x="248" y="175.4961">izquierda</text><path d="M377.5,146.7344 L377.5,163.2344 L342.211,167.2344 L377.5,171.2344 L377.5,187.8906 A0,0 0 0 0 377.5,187.8906 L434.5,187.8906 A0,0 0 0 0 434.5,187.8906 L434.5,156.7344 L424.5,146.7344 L377.5,146.7344 A0,0 0 0 0 377.5,146.7344 " fill="#222222" style="stroke: #FFFFFF; stroke-width: 1.0;"/><path d="M424.5,146.7344 L424.6868,146.7344 L424.1317,148.7344 L424.6718,150.7344 L424.8553,152.7344 L423.8659,154.7344 L424.5,156.7344 L424.5,156.6653 L426.5,156.3553 L428.5,156.3935 L430.5,156.6738 L432.5,156.1198 L434.5,156.7344 L434.848,157.0824 L432.1038,154.3382 L430.3757,152.6101 L428.7715,151.0059 L426.4461,148.6805 L424.5,146.7344 " fill="#222222" style="stroke: #FFFFFF; stroke-width: 1.0;"/><text fill="#00FFFF" font-family="sans-serif" font-size="20" font-weight="bold" lengthAdjust="spacingAndGlyphs" textLength="30" x="386.5" y="175.4961">left</text><polygon fill="#222222" points="482,146.7344,482,146.9446,491.2,146.3201,500.4,146.9277,509.6,147.1341,518.8,146.021,528,146.7344,527.9901,146.7104,529.7134,147.3353,531.4866,148.0807,533.2946,148.9101,534.9829,149.4504,536.8388,150.3955,537.0093,150.4662,537.377,152.0829,538.2424,153.9058,539.1686,155.7539,539.7414,157.4557,540.5,159.2344,540.5227,159.2344,540.4894,162.4656,540.5595,165.6969,540.5797,168.9281,540.6952,172.1594,540.5,175.3906,540.7067,175.4762,539.977,177.245,539.1139,178.9586,538.4461,180.7531,537.7873,182.5513,536.8388,184.2295,536.7468,184.0074,535.1576,185.1706,533.2655,185.6026,531.6036,186.5906,529.7046,187.0059,528,187.8906,528,187.8221,518.8,188.6322,509.6,187.8419,500.4,187.9959,491.2,188.2293,482,187.8906,482.0531,188.0188,480.2317,187.1572,478.5011,186.5146,476.6237,185.5176,474.9652,185.0493,473.1612,184.2295,473.33,184.2994,472.5658,182.5184,471.8855,180.7721,470.8157,178.8645,470.0314,177.0752,469.5,175.3906,469.2929,175.3906,469.4804,172.1594,469.4345,168.9281,469.7271,165.6969,469.4418,162.4656,469.5,159.2344,469.3944,159.1906,470.3025,157.4957,470.7591,155.6138,471.5368,153.8649,472.6288,152.2461,473.1612,150.3955,473.2167,150.5297,475.0226,149.8895,476.6557,148.832,478.5052,148.2971,480.3075,147.6484,482,146.7344" style="stroke: #FFFFFF; stroke-width: 1.5;"/><text fill="#FFFFFF" font-family="sans-serif" font-size="20" font-weight="bold" lengthAdjust="spacingAndGlyphs" textLength="55" x="477.5" y="175.4961">arriba</text><path d="M576,146.7344 L576,163.2344 L540.547,167.2344 L576,171.2344 L576,187.8906 A0,0 0 0 0 576,187.8906 L634,187.8906 A0,0 0 0 0 634,187.8906 L634,156.7344 L624,146.7344 L576,146.7344 A0,0 0 0 0 576,146.7344 " fill="#222222" style="stroke: #FFFFFF; stroke-width: 1.0;"/><path d="M624,146.7344 L624.1868,146.7344 L623.6317,148.7344 L624.1718,150.7344 L624.3553,152.7344 L623.3659,154.7344 L624,156.7344 L624,156.6653 L626,156.3553 L628,156.3935 L630,156.6738 L632,156.1198 L634,156.7344 L634.348,157.0824 L631.6038,154.3382 L629.8757,152.6101 L628.2715,151.0059 L625.9461,148.6805 L624,146.7344 " fill="#222222" style="stroke: #FFFFFF; stroke-width: 1.0;"/><text fill="#00FFFF" font-family="sans-serif" font-size="20" font-weight="bold" lengthAdjust="spacingAndGlyphs" textLength="31" x="585" y="175.4961">top</text><polygon fill="#222222" points="682,146.7344,682,146.8044,690.4,146.5963,698.8,146.7988,707.2,146.8676,715.6,146.4966,724,146.7344,723.9901,146.7104,725.7134,147.3353,727.4866,148.0807,729.2946,148.9101,730.9829,149.4504,732.8388,150.3955,733.0093,150.4662,733.377,152.0829,734.2424,153.9058,735.1686,155.7539,735.7414,157.4557,736.5,159.2344,736.5227,159.2344,736.4894,162.4656,736.5595,165.6969,736.5797,168.9281,736.6952,172.1594,736.5,175.3906,736.7067,175.4762,735.977,177.245,735.1139,178.9586,734.4461,180.7531,733.7873,182.5513,732.8388,184.2295,732.7468,184.0074,731.1576,185.1706,729.2655,185.6026,727.6036,186.5906,725.7046,187.0059,724,187.8906,724,187.8678,715.6,188.1378,707.2,187.8744,698.8,187.9257,690.4,188.0035,682,187.8906,682.0531,188.0188,680.2317,187.1572,678.5011,186.5146,676.6237,185.5176,674.9652,185.0493,673.1612,184.2295,673.33,184.2994,672.5658,182.5184,671.8855,180.7721,670.8157,178.8645,670.0314,177.0752,669.5,175.3906,669.2929,175.3906,669.4804,172.1594,669.4345,168.9281,669.7271,165.6969,669.4418,162.4656,669.5,159.2344,669.3944,159.1906,670.3025,157.4957,670.7591,155.6138,671.5368,153.8649,672.6288,152.2461,673.1612,150.3955,673.2167,150.5297,675.0226,149.8895,676.6557,148.832,678.5052,148.2971,680.3075,147.6484,682,146.7344" style="stroke: #FFFFFF; stroke-width: 1.5;"/><text fill="#FFFFFF" font-family="sans-serif" font-size="20" font-weight="bold" lengthAdjust="spacingAndGlyphs" textLength="51" x="677.5" y="175.4961">abajo</text><path d="M772,146.7344 L772,163.2344 L736.75,167.2344 L772,171.2344 L772,187.8906 A0,0 0 0 0 772,187.8906 L850,187.8906 A0,0 0 0 0 850,187.8906 L850,156.7344 L840,146.7344 L772,146.7344 A0,0 0 0 0 772,146.7344 " fill="#222222" style="stroke: #FFFFFF; stroke-width: 1.0;"/><path d="M840,146.7344 L840.1868,146.7344 L839.6317,148.7344 L840.1718,150.7344 L840.3553,152.7344 L839.3659,154.7344 L840,156.7344 L840,156.6653 L842,156.3553 L844,156.3935 L846,156.6738 L848,156.1198 L850,156.7344 L850.348,157.0824 L847.6038,154.3382 L845.8757,152.6101 L844.2715,151.0059 L841.9461,148.6805 L840,146.7344 " fill="#222222" style="stroke: #FFFFFF; stroke-width: 1.0;"/><text fill="#00FFFF" font-family="sans-serif" font-size="20" font-weight="bold" lengthAdjust="spacingAndGlyphs" textLength="51" x="781" y="175.4961">down</text><polygon fill="#FFFFFF" points="408.0552,79.1668,406.5894,81.1696,404.8556,84.1032,402.376,86.0802,399.7703,87.1613,397.6927,87.2551,395.0224,85.9031,392.5029,85.0198,390.5905,83.2264,389.5873,81.1733,388.9924,79.5385,388.4096,77.4032,387.4636,75.5657,388.1906,73.7717,388.8275,71.8064,391.2175,70.2521,392.8991,68.2354,394.9804,67.5657,397.4547,66.989,400.6276,67.3316,402.3655,68.1512,404.3861,68.5227,406.8429,71.0398,407.6993,73.6971,408.0714,75.5101,407.65,78.4979" style="stroke: none; stroke-width: 1.0;"/><polygon fill="none" points="408.0552,260.1668,406.5894,262.1696,404.8556,265.1032,402.376,267.0802,399.7703,268.1613,397.6927,268.2551,395.0224,266.9031,392.5029,266.0198,390.5905,264.2264,389.5873,262.1733,388.9924,260.5385,388.4096,258.4032,387.4636,256.5657,388.1906,254.7717,388.8275,252.8064,391.2175,251.2521,392.8991,249.2354,394.9804,248.5657,397.4547,247.989,400.6276,248.3316,402.3655,249.1512,404.3861,249.5227,406.8429,252.0398,407.6993,254.6971,408.0714,256.5101,407.65,259.4979" style="stroke: #FFFFFF; stroke-width: 1.0;"/><polygon fill="#FFFFFF" points="404.5331,259.6938,403.6536,260.8955,402.6134,262.6557,401.1256,263.8419,399.5622,264.4905,398.3156,264.5468,396.7135,263.7356,395.2017,263.2056,394.0543,262.1296,393.4524,260.8977,393.0955,259.9168,392.7458,258.6357,392.1782,257.5332,392.6143,256.4567,392.9965,255.2776,394.4305,254.345,395.4394,253.135,396.6882,252.7332,398.1728,252.3871,400.0766,252.5927,401.1193,253.0845,402.3317,253.3074,403.8057,254.8176,404.3196,256.412,404.5429,257.4998,404.29,259.2925" style="stroke: none; stroke-width: 1.0;"/><!--link *start to derecha--><path d="M388.208,79.9214 L388.2288,80.0125 L379.5815,81.699 L371.0559,83.9194 L362.4907,85.966 L353.7952,87.4409 L345.2801,89.7071 L345.2722,89.6735 L338.998,90.9756 L332.7633,92.4473 L326.5561,94.0368 L320.2542,95.2202 L314.0848,96.9725 L314.1416,97.2119 L306.8517,98.4007 L299.7275,100.2886 L292.6236,102.2617 L285.402,103.7386 L278.2423,105.4765 L278.2494,105.506 L270.4169,107.3598 L262.617,109.3478 L254.8014,111.271 L247.0157,113.3178 L239.1324,114.9619 L239.2044,115.2513 L231.0059,117.2968 L222.7609,119.1556 L214.5839,121.2876 L206.4101,123.4325 L198.1353,125.1715 L198.0555,124.8611 L189.9096,127.5989 L181.5008,129.3145 L173.2919,131.8073 L164.8772,133.4997 L156.6312,135.8481 L156.6233,135.8187 L148.5902,138.3437 L140.3731,140.1817 L132.2646,142.4251 L124.1652,144.7025 L116,146.7344 L116.0504,146.9124 L113.3721,147.4771 L110.78,148.346 L108.0485,148.7228 L105.5249,149.8336 L102.863,150.4564 " fill="none" style="stroke: #FFFFFF; stroke-width: 1.0;"/><polygon fill="#FFFFFF" points="98.0548,151.8664,98.0641,151.9358,99.9889,151.9904,101.9682,152.4521,103.9297,152.7813,105.8329,152.6745,107.8168,153.1712,107.8044,153.1484,106.7558,152.5039,105.7699,151.9741,104.8274,151.5239,103.735,150.7991,102.8526,150.4589,103.0146,150.5474,103.2107,149.3653,103.8797,148.4416,104.6063,147.5494,104.9973,146.4738,105.5649,145.4947,105.5796,145.512,104.056,146.7609,102.5993,148.0887,101.1104,149.3785,99.6831,150.7409,98.0548,151.8664" style="stroke: #FFFFFF; stroke-width: 1.0;"/><!--link derecha to *end--><path d="M98.0548,182.6022 L98.0805,182.692 L101.5932,183.4516 L105.2565,184.7376 L108.8708,185.8523 L112.3238,186.4031 L116,187.7344 L115.9911,187.701 L123.7385,189.6397 L131.5311,191.7466 L139.355,193.9704 L147.0708,195.7913 L154.938,198.1765 L154.9995,198.4148 L162.8267,199.9571 L170.8333,202.195 L178.8618,204.5178 L186.7629,206.3468 L194.731,208.4355 L194.7384,208.4649 L202.6137,210.3915 L210.5225,212.4521 L218.4152,214.448 L226.3387,216.5673 L234.1618,218.2845 L234.2323,218.5743 L241.8034,220.4203 L249.3291,222.0793 L256.9213,224.012 L264.5167,225.9574 L272.0131,227.4966 L271.9389,227.1848 L279.094,229.4596 L286.0045,230.7077 L293.101,232.7364 L300.006,233.9612 L307.068,235.8449 L307.061,235.8153 L313.3513,237.6174 L319.4795,238.7269 L325.7033,240.2451 L331.9352,241.7976 L338.1092,243.1025 L338.233,243.6435 L347.1426,245.1646 L356.2637,247.6101 L365.0426,248.56 L374.332,251.7408 L383.282,253.4383 " fill="none" style="stroke: #FFFFFF; stroke-width: 1.0;"/><polygon fill="#FFFFFF" points="388.208,254.5471,388.2498,254.6033,386.545,253.2608,385.0853,252.2478,383.5458,251.1275,381.7438,249.6543,380.3051,248.6697,380.2832,248.6558,380.7899,249.5497,381.407,250.5134,382.1008,251.5257,382.5302,252.3706,383.3299,253.4499,383.4285,253.6059,382.2615,253.8773,381.3825,254.6041,380.5387,255.3864,379.4904,255.8456,378.5496,256.4747,378.5541,256.497,380.4792,256.0787,382.4246,255.762,384.3602,255.3963,386.3145,255.124,388.208,254.5471" style="stroke: #FFFFFF; stroke-width: 1.0;"/><!--link *start to izquierda--><path d="M390.645,83.8174 L390.8236,84.0333 L382.3196,89.9865 L374.8626,97.2055 L367.0646,104.0124 L358.1454,109.4635 L350.7123,116.7114 L342.4426,122.9478 L334.5058,129.5868 L326.8004,136.5056 L318.885,143.1704 " fill="none" style="stroke: #FFFFFF; stroke-width: 1.0;"/><polygon fill="#FFFFFF" points="314.803,146.5474,314.8219,146.6148,316.6627,145.8835,318.6141,145.5476,320.5295,145.083,322.3264,144.1948,324.2874,143.8929,324.285,143.8671,323.1477,143.6449,322.0227,143.5526,320.9062,143.5508,319.7603,143.2375,318.6557,143.3604,318.8394,143.3778,318.553,142.2143,318.8031,141.1015,319.1185,139.9949,319.0532,138.8523,319.1882,137.7287,319.2086,137.7388,318.3016,139.4877,317.4874,141.2826,316.6285,143.0554,315.8549,144.8706,314.803,146.5474" style="stroke: #FFFFFF; stroke-width: 1.0;"/><!--link izquierda to *end--><path d="M314.747,187.8754 L314.9256,188.0913 L322.3564,194.0347 L330.8341,201.2439 L338.971,208.041 L345.9865,213.4823 L354.4882,220.7204 L362.1532,226.947 L370.1512,233.5762 L378.3806,240.4852 L386.4,247.1402 " fill="none" style="stroke: #FFFFFF; stroke-width: 1.0;"/><polygon fill="#FFFFFF" points="390.401,250.4495,390.4637,250.4807,389.4003,248.6242,388.7046,246.9507,387.8892,245.2176,386.6799,243.2886,386.0158,241.6308,385.99,241.6283,385.9808,242.7437,386.1015,243.8714,386.3127,245.0077,386.2124,246.1144,386.5483,247.2625,386.5657,247.4462,385.4022,247.1598,384.2894,247.4099,383.1828,247.7254,382.0403,247.6601,380.9166,247.795,380.9227,247.8169,382.8106,248.3157,384.7264,248.9141,386.6287,249.4645,388.5567,250.1066,390.401,250.4495" style="stroke: #FFFFFF; stroke-width: 1.0;"/><!--link *start to arriba--><path d="M405.355,83.8174 L405.5336,84.0333 L412.9762,89.9865 L421.4659,97.2055 L429.6146,104.0124 L436.6421,109.4635 L445.1556,116.7114 L452.8326,122.9478 L460.8424,129.5868 L469.0837,136.5056 L477.115,143.1704 " fill="none" style="stroke: #FFFFFF; stroke-width: 1.0;"/><polygon fill="#FFFFFF" points="481.197,146.5474,481.2597,146.5786,480.1963,144.7221,479.5006,143.0486,478.6852,141.3155,477.4759,139.3865,476.8118,137.7287,476.786,137.7262,476.7768,138.8416,476.8975,139.9693,477.1087,141.1056,477.0084,142.2123,477.3443,143.3604,477.3617,143.5441,476.1982,143.2577,475.0854,143.5078,473.9788,143.8233,472.8363,143.758,471.7126,143.8929,471.7187,143.9148,473.6066,144.4136,475.5224,145.012,477.4247,145.5624,479.3527,146.2045,481.197,146.5474" style="stroke: #FFFFFF; stroke-width: 1.0;"/><!--link arriba to *end--><path d="M481.253,187.8754 L481.4316,188.0913 L472.9395,194.0347 L465.4944,201.2439 L457.7083,208.041 L448.801,213.4823 L441.3797,220.7204 L433.1219,226.947 L425.197,233.5762 L417.5035,240.4852 L409.6,247.1402 " fill="none" style="stroke: #FFFFFF; stroke-width: 1.0;"/><polygon fill="#FFFFFF" points="405.599,250.4495,405.6179,250.5169,407.4587,249.7856,409.4101,249.4497,411.3255,248.9851,413.1224,248.0969,415.0834,247.795,415.081,247.7692,413.9437,247.547,412.8187,247.4547,411.7022,247.4529,410.5563,247.1396,409.4517,247.2625,409.6354,247.2799,409.349,246.1164,409.5991,245.0036,409.9145,243.897,409.8492,242.7544,409.9842,241.6308,410.0046,241.6409,409.0976,243.3898,408.2834,245.1847,407.4245,246.9575,406.6509,248.7727,405.599,250.4495" style="stroke: #FFFFFF; stroke-width: 1.0;"/><!--link *start to abajo--><path d="M407.793,80.0204 L407.815,80.1112 L415.6155,81.743 L423.5446,83.9071 L431.4319,85.8979 L439.1814,87.3186 L447.1216,89.5284 L447.1132,89.4949 L452.7082,90.7566 L458.3455,92.1873 L464.0122,93.7353 L469.5775,94.8787 L475.2849,96.5888 L475.3465,96.8271 L481.6534,97.9824 L488.1401,99.8334 L494.6488,101.7691 L501.0297,103.2112 L507.4779,104.9129 L507.4857,104.9422 L514.4733,106.7756 L521.4965,108.7423 L528.5026,110.6448 L535.5415,112.67 L542.4731,114.295 L542.5535,114.5822 L549.8686,116.6326 L557.1318,118.4978 L564.4709,120.6342 L571.8135,122.7832 L579.0435,124.5296 L578.954,124.2218 L582.826,125.8937 L586.4036,126.5522 L590.205,127.9811 L593.7759,128.6166 L597.5357,129.9024 L597.527,129.8732 L601.3153,131.3199 L604.8998,132.0852 L608.6046,133.2525 L612.3195,134.4537 L615.9615,135.4112 L616.0161,135.588 L619.6022,136.5334 L623.2815,137.7809 L626.81,138.5397 L630.5635,140.0274 L634.1674,141.0305 L634.2416,141.2625 L637.7941,142.3594 L641.3834,143.5715 L644.8016,144.2483 L648.3452,145.3175 L652,146.7344 L651.9099,146.4733 L654.4949,147.5734 L656.9783,148.3794 L659.609,149.6121 L661.9883,150.1162 L664.517,151.0534 " fill="none" style="stroke: #FFFFFF; stroke-width: 1.0;"/><polygon fill="#FFFFFF" points="669.427,152.8534,669.4757,152.9037,667.916,151.3837,666.642,150.1588,665.275,148.8378,663.602,147.2008,662.3525,146.0012,662.329,145.9903,662.6995,146.9678,663.1884,148.0002,663.7597,149.0708,664.0472,150.0099,664.7322,151.1332,664.8099,151.3006,663.6174,151.4185,662.6517,152.0253,661.7136,152.6916,660.6146,153.011,659.6002,153.5129,659.6018,153.5356,661.5649,153.3703,663.5349,153.3084,665.5016,153.1967,667.4747,153.1801,669.427,152.8534" style="stroke: #FFFFFF; stroke-width: 1.0;"/><!--link abajo to *end--><path d="M669.427,181.6157 L669.4579,181.7038 L665.8806,182.6657 L662.4847,184.1442 L659.0296,185.4545 L655.3804,186.2115 L652,187.7344 L651.9895,187.7015 L648.5448,188.6415 L645.1532,189.7473 L641.7985,190.9684 L638.3166,191.7923 L635.0129,193.1726 L635.0856,193.4076 L631.4635,193.9774 L628.0538,195.2336 L624.67,196.5734 L621.1354,197.426 L617.6801,198.5349 L617.6887,198.564 L610.6418,200.603 L603.6341,202.7743 L596.6075,204.8818 L589.617,207.1112 L582.5089,208.9432 L582.5897,209.2303 L575.5987,211.2014 L568.5556,212.9873 L561.5888,215.0443 L554.6255,217.114 L547.549,218.7812 L547.4655,218.4717 L540.8904,220.8903 L534.0403,222.2899 L527.3993,224.4641 L520.543,225.8406 L513.8631,227.871 L513.8555,227.8415 L507.6763,229.8227 L501.318,231.1155 L495.0654,232.8144 L488.8217,234.5475 L482.5139,236.0346 L482.5592,236.214 L476.9235,237.4448 L471.3652,238.9822 L465.6817,240.0236 L460.185,241.8047 L454.564,243.0941 L454.6217,243.3308 L446.3206,245.305 L438.0481,247.3967 L429.6426,248.9424 L421.3346,250.8883 L413.113,253.1889 " fill="none" style="stroke: #FFFFFF; stroke-width: 1.0;"/><polygon fill="#FFFFFF" points="407.793,254.4484,407.8059,254.5172,409.7033,254.6766,411.6766,255.2397,413.6252,255.6712,415.4925,255.6706,417.4723,256.2683,417.4586,256.2462,416.4349,255.553,415.4797,254.971,414.5721,254.4661,413.5003,253.6951,412.6586,253.2969,412.8157,253.3939,413.0741,252.2239,413.7911,251.3369,414.5639,250.4844,415.0114,249.431,415.63,248.4833,415.6437,248.5014,414.0561,249.6678,412.5312,250.9167,410.9761,252.1258,409.4786,253.4107,407.793,254.4484" style="stroke: #FFFFFF; stroke-width: 1.0;"/><!--
@startuml
skinparam titleBorderColor #222222
skinparam titleBackgroundColor #222222
skinparam titlefontColor #orange
skinparam titleFontStyle bold
skinparam titleFontSize 30

skinparam handwritten true
skinparam shadowing false
skinparam backgroundColor #222222
skinparam padding 3
skinparam StateStartColor #white
skinparam StateEndColor #white

skinparam note {
    backgroundColor #222222
    fontStyle bold
    borderColor #white
    FontColor #yellow
     fontSize 20
}

skinparam state {
    fontColor #white
    fontStyle bold
    arrowColor #white
    backgroundColor #222222
    borderColor #white
    circleCharacterFontName #white
    fontSize 20
}

hide empty description

title Sintaxis: Posición

note right of derecha: <color:cyan>right</color>
note right of izquierda: <color:cyan>left</color>
note right of arriba: <color:cyan>top</color>
note right of abajo: <color:cyan>down</color>

[*] -down-> derecha
derecha -down-> [*]
[*] -down-> izquierda
izquierda -down-> [*]
[*] -down-> arriba
arriba -down-> [*]
[*] -down-> abajo
abajo -down-> [*]

@enduml

PlantUML version 1.2019.05(Sat Apr 20 18:45:36 CEST 2019)
(GPL source distribution)
Java Runtime: Java(TM) SE Runtime Environment
JVM: Java HotSpot(TM) 64-Bit Server VM
Java Version: 11.0.8+10-LTS
Operating System: Windows 10
OS Version: 10.0
Default Encoding: windows-1252
Language: es
Country: ES
--></g></svg>