<?xml version="1.0" encoding="UTF-8" standalone="no"?><svg xmlns="http://www.w3.org/2000/svg" xmlns:xlink="http://www.w3.org/1999/xlink" contentScriptType="application/ecmascript" contentStyleType="text/css" height="469px" preserveAspectRatio="none" style="width:316px;height:469px;background:#222222;" version="1.1" viewBox="0 0 316 469" width="316px" zoomAndPan="magnify"><defs/><g><!--cluster efectividad--><!--class Eficacia--><polygon fill="#222222" points="38,404,38,404.2102,48.4,403.5857,58.8,404.1933,69.2,404.3997,79.6,403.2866,90,403.9223,100.4,403.5735,110.8,403.6165,121.2,403.9318,131.6,403.3086,142,404,142.5536,404,141.3697,414.8227,141.8022,425.6453,142.4319,436.468,141.9142,447.2906,142,458.1133,142,458.1815,131.6,458.0813,121.2,458.2918,110.8,458.3524,100.4,458.699,90,458.7843,79.6,458.7925,69.2,458.3679,58.8,458.5769,48.4,458.8155,38,458.1133,37.2788,458.1133,38.6785,447.2906,37.7035,436.468,38.5338,425.6453,37.505,414.8227,38,404" style="stroke: #A9A9A9; stroke-width: 3.0;"/><text fill="#A9A9A9" font-family="courier" font-size="20" font-weight="bold" lengthAdjust="spacingAndGlyphs" textLength="96" x="42" y="430.1074">Eficacia</text><path d="M39,442.1133 L39,442.3935 L49.2,441.5609 L59.4,442.371 L69.6,442.6462 L79.8,441.1621 L90,442.0097 L100.2,441.5446 L110.4,441.6019 L120.6,442.0224 L130.8,441.1915 L141,442.1133 " fill="#222222" style="stroke: #A9A9A9; stroke-width: 3.0;"/><path d="M39,450.1133 L39,450.3935 L49.2,449.5609 L59.4,450.371 L69.6,450.6462 L79.8,449.1621 L90,450.0097 L100.2,449.5446 L110.4,449.6019 L120.6,450.0224 L130.8,449.1915 L141,450.1133 " fill="#222222" style="stroke: #A9A9A9; stroke-width: 3.0;"/><!--class Eficiencia--><polygon fill="#222222" points="177,404,177,404.2102,186.8462,403.5857,196.6923,404.1933,206.5385,404.3997,216.3846,403.2866,226.2308,403.9223,236.0769,403.5735,245.9231,403.6165,255.7692,403.9318,265.6154,403.3086,275.4615,404.5536,285.3077,403.3697,295.1538,403.8022,305,404,305.4319,404,304.9142,414.8227,305.0682,425.6453,304.9681,436.468,305.1785,447.2906,305,458.1133,305,458.3524,295.1538,458.699,285.3077,458.7843,275.4615,458.7925,265.6154,458.3679,255.7692,458.5769,245.9231,458.8155,236.0769,457.3921,226.2308,458.7918,216.3846,457.8168,206.5385,458.6471,196.6923,457.6183,186.8462,458.0448,177,458.1133,177.7416,458.1133,176.9513,447.2906,177.1053,436.468,177.3386,425.6453,177.4162,414.8227,177,404" style="stroke: #A9A9A9; stroke-width: 3.0;"/><text fill="#A9A9A9" font-family="courier" font-size="20" font-weight="bold" lengthAdjust="spacingAndGlyphs" textLength="120" x="181" y="430.1074">Eficiencia</text><path d="M178,442.1133 L178,442.3935 L187.6923,441.5609 L197.3846,442.371 L207.0769,442.6462 L216.7692,441.1621 L226.4615,442.0097 L236.1538,441.5446 L245.8462,441.6019 L255.5385,442.0224 L265.2308,441.1915 L274.9231,442.8515 L284.6154,441.2729 L294.3077,441.8496 L304,442.1133 " fill="#222222" style="stroke: #A9A9A9; stroke-width: 3.0;"/><path d="M178,450.1133 L178,450.3935 L187.6923,449.5609 L197.3846,450.371 L207.0769,450.6462 L216.7692,449.1621 L226.4615,450.0097 L236.1538,449.5446 L245.8462,449.6019 L255.5385,450.0224 L265.2308,449.1915 L274.9231,450.8515 L284.6154,449.2729 L294.3077,449.8496 L304,450.1133 " fill="#222222" style="stroke: #A9A9A9; stroke-width: 3.0;"/><!--class Compromiso--><polygon fill="#222222" points="101,290,101,290.2102,110.8462,289.5857,120.6923,290.1933,130.5385,290.3997,140.3846,289.2866,150.2308,289.9223,160.0769,289.5735,169.9231,289.6165,179.7692,289.9318,189.6154,289.3086,199.4615,290.5536,209.3077,289.3697,219.1538,289.8022,229,290,229.4319,290,228.9142,300.8227,229.0682,311.6453,228.9681,322.468,229.1785,333.2906,229,344.1133,229,344.3524,219.1538,344.699,209.3077,344.7843,199.4615,344.7925,189.6154,344.3679,179.7692,344.5769,169.9231,344.8155,160.0769,343.3921,150.2308,344.7918,140.3846,343.8168,130.5385,344.6471,120.6923,343.6183,110.8462,344.0448,101,344.1133,101.7416,344.1133,100.9513,333.2906,101.1053,322.468,101.3386,311.6453,101.4162,300.8227,101,290" style="stroke: #A9A9A9; stroke-width: 3.0;"/><text fill="#A9A9A9" font-family="courier" font-size="20" font-weight="bold" lengthAdjust="spacingAndGlyphs" textLength="120" x="105" y="316.1074">Compromiso</text><path d="M102,328.1133 L102,328.3935 L111.6923,327.5609 L121.3846,328.371 L131.0769,328.6462 L140.7692,327.1621 L150.4615,328.0097 L160.1538,327.5446 L169.8462,327.6019 L179.5385,328.0224 L189.2308,327.1915 L198.9231,328.8515 L208.6154,327.2729 L218.3077,327.8496 L228,328.1133 " fill="#222222" style="stroke: #A9A9A9; stroke-width: 3.0;"/><path d="M102,336.1133 L102,336.3935 L111.6923,335.5609 L121.3846,336.371 L131.0769,336.6462 L140.7692,335.1621 L150.4615,336.0097 L160.1538,335.5446 L169.8462,335.6019 L179.5385,336.0224 L189.2308,335.1915 L198.9231,336.8515 L208.6154,335.2729 L218.3077,335.8496 L228,336.1133 " fill="#222222" style="stroke: #A9A9A9; stroke-width: 3.0;"/><!--class Efectividad--><polygon fill="#222222" points="95,176,95,176.2102,105,175.5857,115,176.1933,125,176.3997,135,175.2866,145,175.9223,155,175.5735,165,175.6165,175,175.9318,185,175.3086,195,176.5536,205,175.3697,215,175.8022,225,176.4319,235,176,234.9142,176,235.0682,186.8227,234.9681,197.6453,235.1785,208.468,235.2391,219.2906,235,230.1133,235,230.699,225,230.7843,215,230.7925,205,230.3679,195,230.5769,185,230.8155,175,229.3921,165,230.7918,155,229.8168,145,230.6471,135,229.6183,125,230.0448,115,230.8549,105,230.0645,95,230.1133,95.1053,230.1133,95.3386,219.2906,95.4162,208.468,94.9961,197.6453,95.2872,186.8227,95,176" style="stroke: #A9A9A9; stroke-width: 3.0;"/><text fill="#A9A9A9" font-family="courier" font-size="20" font-weight="bold" lengthAdjust="spacingAndGlyphs" textLength="132" x="99" y="202.1074">Efectividad</text><path d="M96,214.1133 L96,214.3935 L105.8571,213.5609 L115.7143,214.371 L125.5714,214.6462 L135.4286,213.1621 L145.2857,214.0097 L155.1429,213.5446 L165,213.6019 L174.8571,214.0224 L184.7143,213.1915 L194.5714,214.8515 L204.4286,213.2729 L214.2857,213.8496 L224.1429,214.6892 L234,214.1133 " fill="#222222" style="stroke: #A9A9A9; stroke-width: 3.0;"/><path d="M96,222.1133 L96,222.3935 L105.8571,221.5609 L115.7143,222.371 L125.5714,222.6462 L135.4286,221.1621 L145.2857,222.0097 L155.1429,221.5446 L165,221.6019 L174.8571,222.0224 L184.7143,221.1915 L194.5714,222.8515 L204.4286,221.2729 L214.2857,221.8496 L224.1429,222.6892 L234,222.1133 " fill="#222222" style="stroke: #A9A9A9; stroke-width: 3.0;"/><!--class Solucion--><polygon fill="#222222" points="113,62,113,62.2102,123.4,61.5857,133.8,62.1933,144.2,62.3997,154.6,61.2866,165,61.9223,175.4,61.5735,185.8,61.6165,196.2,61.9318,206.6,61.3086,217,62,217.5536,62,216.3697,72.8227,216.8022,83.6453,217.4319,94.468,216.9142,105.2906,217,116.1133,217,116.1815,206.6,116.0813,196.2,116.2918,185.8,116.3524,175.4,116.699,165,116.7843,154.6,116.7925,144.2,116.3679,133.8,116.5769,123.4,116.8155,113,116.1133,112.2788,116.1133,113.6785,105.2906,112.7035,94.468,113.5338,83.6453,112.505,72.8227,113,62" style="stroke: #A9A9A9; stroke-width: 3.0;"/><text fill="#A9A9A9" font-family="courier" font-size="20" font-weight="bold" lengthAdjust="spacingAndGlyphs" textLength="96" x="117" y="88.1074">Solución</text><path d="M114,100.1133 L114,100.3935 L124.2,99.5609 L134.4,100.371 L144.6,100.6462 L154.8,99.1621 L165,100.0097 L175.2,99.5446 L185.4,99.6019 L195.6,100.0224 L205.8,99.1915 L216,100.1133 " fill="#222222" style="stroke: #A9A9A9; stroke-width: 3.0;"/><path d="M114,108.1133 L114,108.3935 L124.2,107.5609 L134.4,108.371 L144.6,108.6462 L154.8,107.1621 L165,108.0097 L175.2,107.5446 L185.4,107.6019 L195.6,108.0224 L205.8,107.1915 L216,108.1133 " fill="#222222" style="stroke: #A9A9A9; stroke-width: 3.0;"/><!--link Solucion to Efectividad--><path d="M165,129.7 L165.0934,129.7 L164.8159,136.27 L165.0859,142.84 L165.1776,149.41 L164.6829,155.98 L165,162.55 " fill="none" style="stroke: #A9A9A9; stroke-width: 2.0;"/><polygon fill="#A9A9A9" points="165,175.91,165.064,175.9385,165.6738,174.0539,166.6589,172.3362,167.5217,170.5641,167.9827,168.6134,169,166.91,168.9817,166.8917,168.0995,167.6095,167.3096,168.4196,166.5839,169.2939,165.637,169.947,165,170.91,165.1305,171.0405,164.0514,169.9614,163.3534,169.2634,162.7018,168.6118,161.7798,167.6898,161,166.91,161.0208,166.9192,161.7903,168.7057,162.6544,170.5342,163.4728,172.3424,164.3784,174.1893,165,175.91" style="stroke: #A9A9A9; stroke-width: 2.0;"/><path d="M165,170.91 L165.0934,170.91 L164.8159,169.31 L165.0859,167.71 L165.1776,166.11 L164.6829,164.51 L165,162.91 " fill="#A9A9A9" style="stroke: #A9A9A9; stroke-width: 2.0;"/><polygon fill="#A9A9A9" points="165,116.26,165.0583,116.2989,164.0851,117.3834,163.4536,118.6957,162.7109,119.9339,161.6021,120.9281,161,122.26,160.9784,122.2456,161.6817,123.3811,162.4936,124.5891,163.3811,125.8474,164.0082,126.9322,165,128.26,165.1536,128.3624,165.6252,126.9435,166.5451,125.8234,167.5198,124.7399,168.1762,123.4441,169,122.26,169.0189,122.2726,168.1911,121.0541,167.4495,119.893,166.6663,118.7042,165.9624,117.5683,165,116.26" style="stroke: #A9A9A9; stroke-width: 2.0;"/><!--link Compromiso to Eficacia--><path d="M147.42,344.26 L147.6529,344.4159 L141.6667,351.8583 L137.0456,360.2148 L131.9799,368.2737 L125.4525,375.3536 L120.8625,383.7309 L115.1818,391.3779 L110.36,399.6 " fill="none" style="stroke: #A9A9A9; stroke-width: 2.0;"/><polygon fill="#A9A9A9" points="107.47,403.91,107.5075,403.9692,109.0602,402.7394,110.8327,401.8566,112.5336,400.8608,113.9992,399.4934,115.7905,398.6403,115.7854,398.6149,114.6532,398.7228,113.5466,398.9588,112.4578,399.2837,111.3077,399.3019,110.2435,399.7497,110.4245,399.7859,109.8156,398.5991,109.7351,397.518,109.719,396.4498,109.3279,395.3065,109.1341,394.2027,109.1565,394.2066,108.7908,396.1424,108.5271,398.0957,108.2142,400.0406,107.9952,402.0015,107.47,403.91" style="stroke: #A9A9A9; stroke-width: 2.0;"/><!--link Compromiso to Eficiencia--><path d="M182.82,344.26 L183.0519,344.4174 L187.7272,351.8555 L193.7618,360.2161 L199.3538,368.2764 L203.49,375.3488 L209.5557,383.7304 L214.5352,391.375 L220.37,399.6 " fill="none" style="stroke: #A9A9A9; stroke-width: 2.0;"/><polygon fill="#A9A9A9" points="223.29,403.91,223.359,403.9224,222.8058,401.9468,222.657,400.0439,222.3764,398.1173,221.663,396.113,221.5489,394.2163,221.5234,394.2114,221.1962,395.3006,220.9972,396.4145,220.8874,397.5454,220.4703,398.6174,220.4835,399.7719,220.5183,399.9532,219.3329,399.3525,218.2489,399.281,217.1773,399.2741,216.0336,398.8916,214.9279,398.7066,214.9399,398.7259,216.5947,399.7382,218.3042,400.8385,219.9873,401.8963,221.7207,403.0351,223.29,403.91" style="stroke: #A9A9A9; stroke-width: 2.0;"/><!--link Efectividad to Eficacia--><path d="M120.05,238.83 L120.117,238.8951 L117.7392,240.9434 L115.7541,243.3733 L113.6411,245.679 L111.1076,247.5759 L109.1563,250.0386 L109.1296,250.0166 L106.9664,252.3904 L104.9374,254.8751 L103.0017,257.4369 L100.7444,259.733 L98.9375,262.4013 L99.1422,262.5379 L96.9195,264.9196 L95.2944,267.7003 L93.7422,270.5296 L91.7658,273.0757 L90.0125,275.7708 L90.0397,275.7842 L88.5973,278.6103 L87.2787,281.4975 L85.9003,284.3553 L84.636,287.2692 L83,290 L83.2833,290.0934 L82.4677,292.5793 L81.4694,295.0049 L80.7386,297.5187 L80.0203,300.0367 L78.9048,302.4237 L78.5911,302.3579 L78.6582,305.069 L77.6923,307.5634 L77.5117,310.2225 L76.5224,312.712 L76.1959,315.3405 L76.1657,315.337 L76.225,318.0161 L75.5774,320.6153 L75.347,323.2616 L75.1515,325.9118 L74.7035,328.5335 L74.8884,328.5398 L74.6125,331.184 L74.6527,333.8389 L74.1816,336.4766 L74.473,339.14 L74.2575,341.7863 L74.501,341.7943 L74.5411,344.4119 L74.702,347.0335 L74.3013,349.6366 L74.3123,352.2533 L74.6881,354.8819 L74.413,354.8573 L74.8895,357.424 L75.056,359.9629 L75.6721,362.5421 L75.5205,365.0526 L75.8253,367.6039 L75.6743,367.5831 L76.2606,370.0441 L76.2013,372.416 L76.6011,374.8513 L77.4502,377.3486 L77.4993,379.7355 L77.6898,379.7698 L78.2287,382.0583 L78.1748,384.2399 L78.8633,386.5554 L79.3901,388.8416 L79.54,391.06 " fill="none" style="stroke: #A9A9A9; stroke-width: 2.0;"/><polygon fill="#A9A9A9" points="82.38,403.9,82.4487,403.9139,82.6358,401.942,83.2255,400.0517,83.6841,398.1348,83.7116,396.1306,84.3358,394.2473,84.314,394.2334,83.6082,395.1252,83.0125,396.0872,82.4934,397.0979,81.7105,397.9406,81.2971,399.0187,81.3962,399.1743,80.23,398.2337,79.3531,397.7476,78.5116,397.3169,77.4646,396.5636,76.5257,395.9799,76.544,395.9935,77.688,397.5576,78.9153,399.1833,80.1024,400.7794,81.3661,402.432,82.38,403.9" style="stroke: #A9A9A9; stroke-width: 2.0;"/><path d="M81.2971,399.0187 L81.3883,399.0388 L80.7719,397.4162 L80.6901,395.9117 L80.4343,394.3688 L79.6058,392.6993 L79.57,391.205 " fill="#A9A9A9" style="stroke: #A9A9A9; stroke-width: 2.0;"/><polygon fill="#A9A9A9" points="129.66,230.07,129.6705,230.1393,128.2134,230.1501,126.818,230.5669,125.4024,230.8516,123.9208,230.7014,122.5307,231.1531,122.5056,231.1469,122.0443,232.5183,121.7098,233.9212,121.4633,235.3461,120.9133,236.6954,120.7885,238.1506,120.8162,238.3331,122.1828,237.7263,123.6303,237.6522,125.0877,237.6431,126.4876,237.2558,127.9178,237.0675,127.9398,237.073,128.2559,235.6654,128.6724,234.2829,129.0405,232.8882,129.501,231.5167,129.66,230.07" style="stroke: #A9A9A9; stroke-width: 2.0;"/><!--link Efectividad to Eficiencia--><path d="M209.95,238.83 L210.017,238.8951 L211.9967,240.9434 L214.3691,243.3733 L216.6136,245.679 L218.4376,247.5759 L220.8438,250.0386 L220.8171,250.0166 L222.7414,252.3904 L224.7999,254.8751 L226.9517,257.4369 L228.7819,259.733 L231.0625,262.4013 L231.2672,262.5379 L232.6145,264.9196 L234.5594,267.7003 L236.5772,270.5296 L238.1708,273.0757 L239.9875,275.7708 L240.0147,275.7842 L241.3773,278.6103 L242.8637,281.4975 L244.2903,284.3553 L245.831,287.2692 L247,290 L247.2832,290.0937 L248.1084,292.579 L248.7511,295.0039 L249.661,297.5172 L250.5836,300.0347 L251.1091,302.4208 L250.7956,302.3541 L251.9536,305.0666 L252.0793,307.5595 L252.9898,310.2194 L253.0921,312.7073 L253.8569,315.3361 L253.8266,315.3325 L254.4947,318.0131 L254.4564,320.6106 L254.8349,323.2571 L255.2483,325.9077 L255.4094,328.5286 L255.5942,328.5359 L255.5123,331.1791 L255.7462,333.8347 L255.469,336.4702 L255.9542,339.1357 L255.9325,341.7813 L256.1761,341.7876 L256.0619,344.4055 L256.0687,347.0266 L255.5137,349.633 L255.3705,352.2502 L255.5922,354.8769 L255.3169,354.8544 L255.3585,357.419 L255.09,359.9583 L255.2713,362.5343 L254.6846,365.0477 L254.5544,367.5983 L254.4032,367.5787 L254.3411,370.0373 L253.6327,372.4123 L253.3839,374.8467 L253.5849,377.3394 L252.985,379.7284 L253.1759,379.761 L252.9198,382.0477 L252.07,384.2329 L251.9638,386.5453 L251.6957,388.8299 L251.05,391.05 " fill="none" style="stroke: #A9A9A9; stroke-width: 2.0;"/><polygon fill="#A9A9A9" points="248.33,403.9,248.3868,403.9411,249.3729,402.2232,250.6917,400.7462,251.9022,399.1907,252.7563,397.3774,254.1037,395.921,254.0896,395.8993,253.0781,396.4193,252.1378,397.0487,251.2471,397.7541,250.1857,398.1974,249.3634,399.008,249.518,399.1087,248.5699,397.9452,248.0734,397.0758,247.6319,396.2423,246.8699,395.2001,246.2764,394.2676,246.2987,394.2724,246.6767,396.1919,247.1561,398.133,247.5865,400.0637,248.1102,402.0142,248.33,403.9" style="stroke: #A9A9A9; stroke-width: 2.0;"/><path d="M249.3634,399.008 L249.4548,399.0273 L249.5145,397.4042 L250.1101,395.8946 L250.5311,394.348 L250.3785,392.6799 L251.02,391.18 " fill="#A9A9A9" style="stroke: #A9A9A9; stroke-width: 2.0;"/><polygon fill="#A9A9A9" points="200.34,230.07,200.408,230.0869,200.5544,231.4361,201.0994,232.8846,201.5146,234.3007,201.503,235.6105,202.0822,237.0675,202.0783,237.0419,203.4867,237.1435,204.9147,237.3743,206.3564,237.6949,207.751,237.7061,209.2115,238.1506,209.3906,238.1952,208.6592,236.7003,208.4507,235.3357,208.3059,233.9869,207.79,232.5457,207.4693,231.1531,207.4727,231.1756,206.0418,230.926,204.6265,230.7787,203.2037,230.5821,201.7952,230.4796,200.34,230.07" style="stroke: #A9A9A9; stroke-width: 2.0;"/><!--link Efectividad to Compromiso--><path d="M165,243.7 L165.0934,243.7 L164.8159,250.27 L165.0859,256.84 L165.1776,263.41 L164.6829,269.98 L165,276.55 " fill="none" style="stroke: #A9A9A9; stroke-width: 2.0;"/><polygon fill="#A9A9A9" points="165,289.91,165.064,289.9385,165.6738,288.0539,166.6589,286.3362,167.5217,284.5641,167.9827,282.6134,169,280.91,168.9817,280.8917,168.0995,281.6095,167.3096,282.4196,166.5839,283.2939,165.637,283.947,165,284.91,165.1305,285.0405,164.0514,283.9614,163.3534,283.2634,162.7018,282.6118,161.7798,281.6898,161,280.91,161.0208,280.9192,161.7903,282.7057,162.6544,284.5342,163.4728,286.3424,164.3784,288.1893,165,289.91" style="stroke: #A9A9A9; stroke-width: 2.0;"/><path d="M165,284.91 L165.0934,284.91 L164.8159,283.31 L165.0859,281.71 L165.1776,280.11 L164.6829,278.51 L165,276.91 " fill="#A9A9A9" style="stroke: #A9A9A9; stroke-width: 2.0;"/><polygon fill="#A9A9A9" points="165,230.26,165.0583,230.2989,164.0851,231.3834,163.4536,232.6957,162.7109,233.9339,161.6021,234.9281,161,236.26,160.9784,236.2456,161.6817,237.3811,162.4936,238.5891,163.3811,239.8474,164.0082,240.9322,165,242.26,165.1536,242.3624,165.6252,240.9435,166.5451,239.8234,167.5198,238.7399,168.1762,237.4441,169,236.26,169.0189,236.2726,168.1911,235.0541,167.4495,233.893,166.6663,232.7042,165.9624,231.5683,165,230.26" style="stroke: #A9A9A9; stroke-width: 2.0;"/><!--
@startuml
skinparam backgroundColor #222222
skinparam handwritten true
hide stereotype
hide circle
skinparam shadowing false
skinparam padding 1
skinparam arrow {
    Thickness 2
    Color #DarkGrey
    FontSize 20
    FontName courier
    FontStyle normal
    FontColor #DarkGrey
}
skinparam class {
    BorderThickness 3
    BorderColor #DarkGrey
    BackgroundColor #222222
    FontSize 20
    FontName courier
    FontStyle bold
    FontColor #DarkGrey
}

together efectividad {

class Eficacia

class Eficiencia

class Compromiso

class Efectividad

class "Solución" as Solucion

}

Solucion *-down-> Efectividad

Compromiso - -> Eficacia
Compromiso - -> Eficiencia

Efectividad *-down-> Eficacia
Efectividad *-down-> Eficiencia
Efectividad *-down-> Compromiso

@enduml

PlantUML version 1.2019.05(Sat Apr 20 18:45:36 CEST 2019)
(GPL source distribution)
Java Runtime: Java(TM) SE Runtime Environment
JVM: Java HotSpot(TM) 64-Bit Server VM
Java Version: 11.0.14+8-LTS-263
Operating System: Windows 10
OS Version: 10.0
Default Encoding: windows-1252
Language: es
Country: ES
--></g></svg>