<?xml version="1.0" encoding="UTF-8" standalone="no"?><svg xmlns="http://www.w3.org/2000/svg" xmlns:xlink="http://www.w3.org/1999/xlink" contentScriptType="application/ecmascript" contentStyleType="text/css" height="451px" preserveAspectRatio="none" style="width:853px;height:451px;background:#222222;" version="1.1" viewBox="0 0 853 451" width="853px" zoomAndPan="magnify"><defs/><g><!--cluster sistemas--><!--cluster sistemasComplejos--><!--class Sistema--><polygon fill="#222222" points="246,62,246,62.2102,256.2222,61.5857,266.4444,62.1933,276.6667,62.3997,286.8889,61.2866,297.1111,61.9223,307.3333,61.5735,317.5556,61.6165,327.7778,61.9318,338,62,337.3086,62,338.5536,72.8227,337.3697,83.6453,337.8022,94.468,338.4319,105.2906,338,116.1133,338,116.0275,327.7778,116.1815,317.5556,116.0813,307.3333,116.2918,297.1111,116.3524,286.8889,116.699,276.6667,116.7843,266.4444,116.7925,256.2222,116.3679,246,116.1133,246.4636,116.1133,246.7022,105.2906,245.2788,94.468,246.6785,83.6453,245.7035,72.8227,246,62" style="stroke: #A9A9A9; stroke-width: 3.0;"/><text fill="#A9A9A9" font-family="courier" font-size="20" font-weight="bold" lengthAdjust="spacingAndGlyphs" textLength="84" x="250" y="88.1074">Sistema</text><path d="M247,100.1133 L247,100.3935 L257,99.5609 L267,100.371 L277,100.6462 L287,99.1621 L297,100.0097 L307,99.5446 L317,99.6019 L327,100.0224 L337,100.1133 " fill="#222222" style="stroke: #A9A9A9; stroke-width: 3.0;"/><path d="M247,108.1133 L247,108.3935 L257,107.5609 L267,108.371 L277,108.6462 L287,107.1621 L297,108.0097 L307,107.5446 L317,107.6019 L327,108.0224 L337,108.1133 " fill="#222222" style="stroke: #A9A9A9; stroke-width: 3.0;"/><!--class SeparacionAsuntos--><polygon fill="#222222" points="702,334,702,334.2102,712,333.5857,722,334.1933,732,334.3997,742,333.2866,752,333.9223,762,333.5735,772,333.6165,782,333.9318,792,333.3086,802,334.5536,812,333.3697,822,333.8022,832,334.4319,842,334,841.9142,334,842.0682,343.6673,841.9681,353.3345,842.1785,363.0018,842.2391,372.669,842.5857,382.3363,842.6711,392.0036,842.6793,401.6708,842.2546,411.3381,842.4636,421.0053,842.7022,430.6726,842,440.3398,842,439.6187,832,441.0184,822,440.0433,812,440.8737,802,439.8448,792,440.2713,782,441.0814,772,440.2911,762,440.4451,752,440.6785,742,440.7561,732,440.3359,722,440.6271,712,439.7674,702,440.3398,702.2844,440.3398,702.5482,430.6726,702.4445,421.0053,702.613,411.3381,701.5169,401.6708,701.3478,392.0036,701.3786,382.3363,701.9411,372.669,701.8035,363.0018,702.6814,353.3345,701.8253,343.6673,702,334" style="stroke: #A9A9A9; stroke-width: 3.0;"/><text fill="#A9A9A9" font-family="courier" font-size="20" font-weight="bold" lengthAdjust="spacingAndGlyphs" textLength="120" x="706" y="360.1074">Separaci칩n</text><text fill="#A9A9A9" font-family="courier" font-size="20" font-weight="bold" lengthAdjust="spacingAndGlyphs" textLength="24" x="754" y="386.2207">de</text><text fill="#A9A9A9" font-family="courier" font-size="20" font-weight="bold" lengthAdjust="spacingAndGlyphs" textLength="84" x="730" y="412.334">Asuntos</text><path d="M703,424.3398 L703,424.6201 L712.8571,423.7874 L722.7143,424.5976 L732.5714,424.8727 L742.4286,423.3887 L752.2857,424.2362 L762.1429,423.7712 L772,423.8285 L781.8571,424.249 L791.7143,423.418 L801.5714,425.078 L811.4286,423.4995 L821.2857,424.0762 L831.1429,424.9158 L841,424.3398 " fill="#222222" style="stroke: #A9A9A9; stroke-width: 3.0;"/><path d="M703,432.3398 L703,432.6201 L712.8571,431.7874 L722.7143,432.5976 L732.5714,432.8727 L742.4286,431.3887 L752.2857,432.2362 L762.1429,431.7712 L772,431.8285 L781.8571,432.249 L791.7143,431.418 L801.5714,433.078 L811.4286,431.4995 L821.2857,432.0762 L831.1429,432.9158 L841,432.3398 " fill="#222222" style="stroke: #A9A9A9; stroke-width: 3.0;"/><!--class ElementoPrimitivo--><polygon fill="#222222" points="213,347,213,347.2102,222.8462,346.5857,232.6923,347.1933,242.5385,347.3997,252.3846,346.2866,262.2308,346.9223,272.0769,346.5735,281.9231,346.6165,291.7692,346.9318,301.6154,346.3086,311.4615,347.5536,321.3077,346.3697,331.1538,346.8022,341,347,341.4319,347,340.9142,357.0283,341.0682,367.0566,340.9681,377.085,341.1785,387.1133,341.2391,397.1416,341.5857,407.1699,341.6711,417.1982,341,427.2266,341,427.9058,331.1538,427.4812,321.3077,427.6901,311.4615,427.9288,301.6154,426.5054,291.7692,427.9051,281.9231,426.9301,272.0769,427.7604,262.2308,426.7315,252.3846,427.1581,242.5385,427.9682,232.6923,427.1778,222.8462,427.3319,213,427.2266,213.3386,427.2266,213.4162,417.1982,212.9961,407.1699,213.2872,397.1416,212.4276,387.1133,213.2844,377.085,213.5482,367.0566,213.4445,357.0283,213,347" style="stroke: #A9A9A9; stroke-width: 3.0;"/><text fill="#A9A9A9" font-family="courier" font-size="20" font-weight="bold" lengthAdjust="spacingAndGlyphs" textLength="108" x="217" y="373.1074">Elementos</text><text fill="#A9A9A9" font-family="courier" font-size="20" font-weight="bold" lengthAdjust="spacingAndGlyphs" textLength="120" x="217" y="399.2207">primitivos</text><path d="M214,411.2266 L214,411.5068 L223.6923,410.6741 L233.3846,411.4843 L243.0769,411.7595 L252.7692,410.2754 L262.4615,411.1229 L272.1538,410.6579 L281.8462,410.7152 L291.5385,411.1357 L301.2308,410.3047 L310.9231,411.9648 L320.6154,410.3862 L330.3077,410.9629 L340,411.2266 " fill="#222222" style="stroke: #A9A9A9; stroke-width: 3.0;"/><path d="M214,419.2266 L214,419.5068 L223.6923,418.6741 L233.3846,419.4843 L243.0769,419.7595 L252.7692,418.2754 L262.4615,419.1229 L272.1538,418.6579 L281.8462,418.7152 L291.5385,419.1357 L301.2308,418.3047 L310.9231,419.9648 L320.6154,418.3862 L330.3077,418.9629 L340,419.2266 " fill="#222222" style="stroke: #A9A9A9; stroke-width: 3.0;"/><!--class EstructuraJerarquica--><polygon fill="#222222" points="376,347,376,347.2102,386,346.5857,396,347.1933,406,347.3997,416,346.2866,426,346.9223,436,346.5735,446,346.6165,456,346.9318,466,346.3086,476,347.5536,486,346.3697,496,346.8022,506,347.4319,516,347,515.9142,347,516.0682,357.0283,515.9681,367.0566,516.1785,377.085,516.2391,387.1133,516.5857,397.1416,516.6711,407.1699,516.6793,417.1982,516,427.2266,516,427.4812,506,427.6901,496,427.9288,486,426.5054,476,427.9051,466,426.9301,456,427.7604,446,426.7315,436,427.1581,426,427.9682,416,427.1778,406,427.3319,396,427.5652,386,427.6428,376,427.2266,375.9961,427.2266,376.2872,417.1982,375.4276,407.1699,376.2844,397.1416,376.5482,387.1133,376.4445,377.085,376.613,367.0566,375.5169,357.0283,376,347" style="stroke: #A9A9A9; stroke-width: 3.0;"/><text fill="#A9A9A9" font-family="courier" font-size="20" font-weight="bold" lengthAdjust="spacingAndGlyphs" textLength="120" x="380" y="373.1074">Estructura</text><text fill="#A9A9A9" font-family="courier" font-size="20" font-weight="bold" lengthAdjust="spacingAndGlyphs" textLength="120" x="386" y="399.2207">Jer치rquica</text><path d="M377,411.2266 L377,411.5068 L386.8571,410.6741 L396.7143,411.4843 L406.5714,411.7595 L416.4286,410.2754 L426.2857,411.1229 L436.1429,410.6579 L446,410.7152 L455.8571,411.1357 L465.7143,410.3047 L475.5714,411.9648 L485.4286,410.3862 L495.2857,410.9629 L505.1429,411.8025 L515,411.2266 " fill="#222222" style="stroke: #A9A9A9; stroke-width: 3.0;"/><path d="M377,419.2266 L377,419.5068 L386.8571,418.6741 L396.7143,419.4843 L406.5714,419.7595 L416.4286,418.2754 L426.2857,419.1229 L436.1429,418.6579 L446,418.7152 L455.8571,419.1357 L465.7143,418.3047 L475.5714,419.9648 L485.4286,418.3862 L495.2857,418.9629 L505.1429,419.8025 L515,419.2266 " fill="#222222" style="stroke: #A9A9A9; stroke-width: 3.0;"/><!--class PatronesComunes--><polygon fill="#222222" points="551,347,551,347.2102,560.6667,346.5857,570.3333,347.1933,580,347.3997,589.6667,346.2866,599.3333,346.9223,609,346.5735,618.6667,346.6165,628.3333,346.9318,638,346.3086,647.6667,347.5536,657.3333,346.3697,667,347,666.8022,347,667.4319,357.0283,666.9142,367.0566,667.0682,377.085,666.9681,387.1133,667.1785,397.1416,667.2391,407.1699,667.5857,417.1982,667,427.2266,667,427.8976,657.3333,427.9058,647.6667,427.4812,638,427.6901,628.3333,427.9288,618.6667,426.5054,609,427.9051,599.3333,426.9301,589.6667,427.7604,580,426.7315,570.3333,427.1581,560.6667,427.9682,551,427.2266,550.9513,427.2266,551.1053,417.1982,551.3386,407.1699,551.4162,397.1416,550.9961,387.1133,551.2872,377.085,550.4276,367.0566,551.2844,357.0283,551,347" style="stroke: #A9A9A9; stroke-width: 3.0;"/><text fill="#A9A9A9" font-family="courier" font-size="20" font-weight="bold" lengthAdjust="spacingAndGlyphs" textLength="96" x="555" y="373.1074">Patrones</text><text fill="#A9A9A9" font-family="courier" font-size="20" font-weight="bold" lengthAdjust="spacingAndGlyphs" textLength="84" x="567" y="399.2207">Comunes</text><path d="M552,411.2266 L552,411.5068 L562.3636,410.6741 L572.7273,411.4843 L583.0909,411.7595 L593.4545,410.2754 L603.8182,411.1229 L614.1818,410.6579 L624.5455,410.7152 L634.9091,411.1357 L645.2727,410.3047 L655.6364,411.9648 L666,411.2266 " fill="#222222" style="stroke: #A9A9A9; stroke-width: 3.0;"/><path d="M552,419.2266 L552,419.5068 L562.3636,418.6741 L572.7273,419.4843 L583.0909,419.7595 L593.4545,418.2754 L603.8182,419.1229 L614.1818,418.6579 L624.5455,418.7152 L634.9091,419.1357 L645.2727,418.3047 L655.6364,419.9648 L666,419.2266 " fill="#222222" style="stroke: #A9A9A9; stroke-width: 3.0;"/><!--class SistemaIntermedioEstable--><polygon fill="#222222" points="38,334,38,334.2102,48,333.5857,58,334.1933,68,334.3997,78,333.2866,88,333.9223,98,333.5735,108,333.6165,118,333.9318,128,333.3086,138,334.5536,148,333.3697,158,333.8022,168,334.4319,178,334,177.9142,334,178.0682,343.6673,177.9681,353.3345,178.1785,363.0018,178.2391,372.669,178.5857,382.3363,178.6711,392.0036,178.6793,401.6708,178.2546,411.3381,178.4636,421.0053,178.7022,430.6726,178,440.3398,178,439.6187,168,441.0184,158,440.0433,148,440.8737,138,439.8448,128,440.2713,118,441.0814,108,440.2911,98,440.4451,88,440.6785,78,440.7561,68,440.3359,58,440.6271,48,439.7674,38,440.3398,38.2844,440.3398,38.5482,430.6726,38.4445,421.0053,38.613,411.3381,37.5169,401.6708,37.3478,392.0036,37.3786,382.3363,37.9411,372.669,37.8035,363.0018,38.6814,353.3345,37.8253,343.6673,38,334" style="stroke: #A9A9A9; stroke-width: 3.0;"/><text fill="#A9A9A9" font-family="courier" font-size="20" font-weight="bold" lengthAdjust="spacingAndGlyphs" textLength="84" x="60" y="360.1074">Sistema</text><text fill="#A9A9A9" font-family="courier" font-size="20" font-weight="bold" lengthAdjust="spacingAndGlyphs" textLength="120" x="42" y="386.2207">Intermedio</text><text fill="#A9A9A9" font-family="courier" font-size="20" font-weight="bold" lengthAdjust="spacingAndGlyphs" textLength="84" x="66" y="412.334">Estable</text><path d="M39,424.3398 L39,424.6201 L48.8571,423.7874 L58.7143,424.5976 L68.5714,424.8727 L78.4286,423.3887 L88.2857,424.2362 L98.1429,423.7712 L108,423.8285 L117.8571,424.249 L127.7143,423.418 L137.5714,425.078 L147.4286,423.4995 L157.2857,424.0762 L167.1429,424.9158 L177,424.3398 " fill="#222222" style="stroke: #A9A9A9; stroke-width: 3.0;"/><path d="M39,432.3398 L39,432.6201 L48.8571,431.7874 L58.7143,432.5976 L68.5714,432.8727 L78.4286,431.3887 L88.2857,432.2362 L98.1429,431.7712 L108,431.8285 L117.8571,432.249 L127.7143,431.418 L137.5714,433.078 L147.4286,431.4995 L157.2857,432.0762 L167.1429,432.9158 L177,432.3398 " fill="#222222" style="stroke: #A9A9A9; stroke-width: 3.0;"/><!--class SistemaComplejo--><polygon fill="#222222" points="309,194,309,194.2102,319.4,193.5857,329.8,194.1933,340.2,194.3997,350.6,193.2866,361,193.9223,371.4,193.5735,381.8,193.6165,392.2,193.9318,402.6,193.3086,413,194,413.5536,194,412.3697,204.0283,412.8022,214.0566,413.4319,224.085,412.9142,234.1133,413.0682,244.1416,412.9681,254.1699,413.1785,264.1982,413,274.2266,413,274.4657,402.6,274.8123,392.2,274.8976,381.8,274.9058,371.4,274.4812,361,274.6901,350.6,274.9288,340.2,273.5054,329.8,274.9051,319.4,273.9301,309,274.2266,309.5338,274.2266,308.505,264.1982,308.9315,254.1699,309.7416,244.1416,308.9513,234.1133,309.1053,224.085,309.3386,214.0566,309.4162,204.0283,309,194" style="stroke: #A9A9A9; stroke-width: 3.0;"/><text fill="#A9A9A9" font-family="courier" font-size="20" font-weight="bold" lengthAdjust="spacingAndGlyphs" textLength="84" x="313" y="220.1074">Sistema</text><text fill="#A9A9A9" font-family="courier" font-size="20" font-weight="bold" lengthAdjust="spacingAndGlyphs" textLength="96" x="313" y="246.2207">Complejo</text><path d="M310,258.2266 L310,258.5068 L320.2,257.6741 L330.4,258.4843 L340.6,258.7595 L350.8,257.2754 L361,258.1229 L371.2,257.6579 L381.4,257.7152 L391.6,258.1357 L401.8,257.3047 L412,258.2266 " fill="#222222" style="stroke: #A9A9A9; stroke-width: 3.0;"/><path d="M310,266.2266 L310,266.5068 L320.2,265.6741 L330.4,266.4843 L340.6,266.7595 L350.8,265.2754 L361,266.1229 L371.2,265.6579 L381.4,265.7152 L391.6,266.1357 L401.8,265.3047 L412,266.2266 " fill="#222222" style="stroke: #A9A9A9; stroke-width: 3.0;"/><!--link Sistema to SistemaIntermedioEstable--><path d="M265.17,133.17 L265.408,133.318 L259.5033,141.2388 L254.9939,150.0269 L250.0301,158.5326 L243.5722,166.1095 L239.0945,174.9174 L233.5021,183.0323 L228.3532,191.4229 L223.5128,200.0054 L217.6096,207.9271 L213.8219,217.1639 L207.2838,224.6909 L202.5761,233.3558 L198.0916,242.1595 L192.3079,250.1555 L187.2848,258.6243 L181.9738,266.9142 L177.0147,275.4228 L171.8858,283.8258 L167.0807,292.4302 L161.9799,300.8507 L156.7917,309.2169 L151.1133,317.2784 L146.1524,325.7859 L140.43,333.82 " fill="none" style="stroke: #A9A9A9; stroke-width: 2.0;"/><polygon fill="none" points="259.33,129.3,259.3739,129.3546,262.5434,126.5344,265.9704,124.0342,269.3136,121.4298,272.3808,118.4828,275.83,116.01,275.8047,116.0044,274.7692,120.1151,273.8612,124.2542,273.0418,128.4131,271.9171,132.5039,271.22,136.69,271.3174,136.8467,268.7311,135.0336,266.4292,133.678,264.162,132.3783,261.6929,130.7537,259.33,129.3" style="stroke: #A9A9A9; stroke-width: 2.0;"/><!--link Sistema to SistemaComplejo--><path d="M313.42,134.39 L313.6724,134.5118 L317.031,142.6642 L321.8692,151.5306 L326.2257,160.1645 L328.9976,168.0338 L333.8695,176.9164 L337.5593,185.2286 L342.18,193.99 " fill="none" style="stroke: #A9A9A9; stroke-width: 2.0;"/><polygon fill="none" points="307.04,137.28,307.1096,137.2879,306.4268,133.0545,306.152,128.8672,305.7444,124.665,304.8997,120.4133,304.66,116.23,304.6417,116.2117,307.5575,119.1234,310.5657,122.1275,313.6379,125.1959,316.4892,128.0429,319.65,131.2,319.7302,131.3662,317.0368,132.2268,314.5774,133.5726,312.1465,134.9777,309.5496,136.0382,307.04,137.28" style="stroke: #A9A9A9; stroke-width: 2.0;"/><!--link SistemaComplejo to SeparacionAsuntos--><path d="M425.96,249.91 L425.9829,250.0006 L431.2569,251.0819 L436.6651,252.6942 L442.0295,254.1335 L447.2503,255.0043 L452.67,256.6622 L452.6611,256.6288 L458.5613,258.0615 L464.5064,259.6625 L470.4826,261.3805 L476.3514,262.6954 L482.3706,264.5748 L482.4374,264.8117 L488.6957,266.1112 L495.1491,268.1022 L501.6263,270.1776 L507.965,271.7621 L514.3766,273.6048 L514.3852,273.6339 L517.7032,274.5753 L521.0604,275.6491 L524.3987,276.659 L527.773,277.7908 L531.0299,278.5252 L531.117,278.8105 L534.5126,279.8507 L537.852,280.7069 L541.2736,281.8324 L544.6991,282.9705 L548.0025,283.7088 L547.9059,283.4031 L551.5347,285.0845 L554.8453,285.7596 L558.3978,287.1997 L561.7012,287.852 L565.2088,289.15 L565.1993,289.1211 L568.7824,290.6019 L572.1438,291.4068 L575.636,292.6106 L579.1392,293.8478 L582.5631,294.8435 L582.6228,295.0186 L586.0459,296.0299 L589.571,297.3405 L592.931,298.167 L596.5373,299.7154 L599.9798,300.7839 L600.0614,301.0135 L603.5246,302.2064 L607.0284,303.5134 L610.3439,304.2907 L613.7974,305.4563 L617.3731,306.9658 L617.277,306.7069 L620.8209,308.2248 L624.2565,309.4511 L627.8492,311.1005 L631.1736,312.0274 L634.6575,313.3837 L634.6022,313.2416 L638.1122,314.808 L641.3859,315.767 L644.8277,317.1579 L648.4338,318.9714 L651.7472,320.0324 L651.8205,320.2116 L655.2326,321.7093 L658.4168,322.6495 L661.8865,324.288 L665.294,325.7744 L668.5566,326.9063 L668.4734,326.7135 L671.8284,328.2859 L675.1561,329.7952 L678.5374,331.4285 L681.7106,332.5795 L685,334 L685.0853,334.1871 L685.8239,334.198 L686.7272,334.5701 L687.8708,335.4697 L688.5719,335.398 L689.63,336.11 " fill="none" style="stroke: #A9A9A9; stroke-width: 2.0;"/><polygon fill="#A9A9A9" points="701.53,341.98,701.5839,342.0248,700.1642,340.3773,699.0602,338.9925,697.8535,337.5221,696.3086,335.7705,695.2317,334.4082,695.2072,334.3999,695.4601,335.4341,695.8367,336.5103,696.2993,337.6156,696.4656,338.6204,697.0469,339.7659,697.1061,339.9407,695.908,339.93,694.8827,340.4296,693.8785,340.9914,692.7516,341.191,691.6892,341.5811,691.6901,341.6039,693.6569,341.6503,695.6279,341.8001,697.5969,341.9001,699.5698,342.0953,701.53,341.98" style="stroke: #A9A9A9; stroke-width: 2.0;"/><path d="M697.0469,339.7659 L697.0882,339.8497 L695.5311,338.8936 L694.2161,338.4286 L692.8223,337.8037 L691.1692,336.6528 L689.875,336.23 " fill="#A9A9A9" style="stroke: #A9A9A9; stroke-width: 2.0;"/><polygon fill="#A9A9A9" points="413.18,246.8,413.2315,246.8475,414.0554,247.7674,415.1813,248.9655,416.2089,250.073,416.9129,250.8826,418.0648,252.1046,418.0559,252.0803,419.3711,251.4773,420.7311,250.997,422.1222,250.602,423.4061,249.9131,424.8401,249.6359,424.9758,249.7609,423.7086,248.4326,422.8377,247.4694,422.0152,246.5506,420.9113,245.3728,419.9553,244.3312,419.9631,244.3526,418.5966,244.815,417.2656,245.3747,415.9174,245.8874,414.6019,246.4897,413.18,246.8" style="stroke: #A9A9A9; stroke-width: 2.0;"/><!--link SistemaComplejo to ElementoPrimitivo--><path d="M332.8,285.69 L333.0449,285.8262 L327.7356,293.6581 L323.8619,302.2886 L319.5207,310.6591 L313.6421,318.1743 L309.8011,326.823 L305.31,335.11 " fill="none" style="stroke: #A9A9A9; stroke-width: 2.0;"/><polygon fill="#A9A9A9" points="298.74,346.92,298.7821,346.976,300.2314,345.6258,301.9275,344.6039,303.5432,343.4751,304.8946,341.9948,306.6118,341.001,306.6047,340.9761,305.4848,341.1743,304.4007,341.4981,303.3414,341.9092,302.1964,342.0194,301.1715,342.551,301.349,342.6016,300.6594,341.4054,300.4881,340.3568,300.3799,339.3263,299.904,338.1909,299.6215,337.1107,299.6441,337.1127,299.4346,339.0716,299.3282,341.0397,299.172,343.0034,299.1107,344.9756,298.74,346.92" style="stroke: #A9A9A9; stroke-width: 2.0;"/><path d="M301.1715,342.551 L301.2531,342.5964 L301.7882,341.0624 L302.802,339.7944 L303.6599,338.4397 L304.0052,336.8002 L305.06,335.555 " fill="#A9A9A9" style="stroke: #A9A9A9; stroke-width: 2.0;"/><polygon fill="#A9A9A9" points="339.15,274.28,339.1821,274.3423,337.8048,274.818,336.6156,275.6588,335.3652,276.3807,333.9132,276.7116,332.7402,277.5837,332.7144,277.5816,332.7154,279.0097,332.8465,280.4483,333.0682,281.8943,332.978,283.315,333.3245,284.7711,333.4091,284.9352,334.5102,283.9236,335.8582,283.391,337.2364,282.9169,338.4392,282.1027,339.7343,281.4674,339.757,281.4692,339.6068,280.029,339.5599,278.5973,339.4632,277.1614,339.4614,275.7333,339.15,274.28" style="stroke: #A9A9A9; stroke-width: 2.0;"/><!--link SistemaComplejo to EstructuraJerarquica--><path d="M389.53,285.69 L389.7742,285.8275 L393.7303,293.734 L399.1179,302.4464 L404.0394,310.8965 L407.4278,318.4833 L412.848,327.2142 L417.62,335.58 " fill="none" style="stroke: #A9A9A9; stroke-width: 2.0;"/><polygon fill="#A9A9A9" points="424,346.92,424.0698,346.9266,423.6774,344.946,423.694,343.0039,423.5774,341.0494,423.0229,339.0534,423.0745,337.1147,423.0496,337.1077,422.6325,338.1658,422.3412,339.2591,422.1373,340.3769,421.6322,341.4104,421.549,342.562,421.5987,342.7397,420.4028,342.0545,419.3523,341.8883,418.3194,341.7853,417.1834,341.314,416.1017,341.0364,416.1153,341.0546,417.675,342.2046,419.2966,343.4376,420.8883,344.6305,422.537,345.8998,424,346.92" style="stroke: #A9A9A9; stroke-width: 2.0;"/><path d="M421.549,342.562 L421.6304,342.6078 L420.6037,341.0773 L420.0542,339.8153 L419.3494,338.4659 L418.1335,336.8289 L417.625,335.59 " fill="#A9A9A9" style="stroke: #A9A9A9; stroke-width: 2.0;"/><polygon fill="#A9A9A9" points="383.11,274.28,383.1799,274.2853,382.8633,275.7077,382.9562,277.1611,382.9157,278.6044,382.4368,280.0144,382.5648,281.4705,382.5531,281.4474,383.7859,281.9975,385.078,282.664,386.4111,283.4115,387.6025,283.8801,388.9925,284.7393,389.1765,284.7532,388.892,283.2853,389.1448,281.8581,389.4632,280.4359,389.4001,278.9847,389.5377,277.5488,389.548,277.5691,388.2473,276.8855,386.9936,276.2943,385.7172,275.6586,384.484,275.1078,383.11,274.28" style="stroke: #A9A9A9; stroke-width: 2.0;"/><!--link SistemaComplejo to PatronesComunes--><path d="M424.95,269.85 L424.9959,269.9314 L430.0522,272.6185 L435.3775,275.7826 L440.6151,278.7913 L445.5647,281.2893 L450.9131,284.4944 L450.8959,284.4645 L456.3448,287.5193 L461.8807,290.725 L467.4771,294.0355 L472.865,296.9847 L478.545,300.44 L478.6707,300.6516 L484.0213,303.5368 L489.7389,307.0397 L495.5012,310.6179 L501.003,313.7577 L506.6419,317.1281 L506.6577,317.154 L509.4038,318.8056 L512.2219,320.575 L515.0052,322.2876 L517.8548,324.1087 L520.4885,325.576 L520.6463,325.8291 L523.3505,327.517 L525.953,329.0416 L528.7044,330.8052 L531.4628,332.58 L534,334 L533.8269,333.7302 L535.8709,335.3498 L537.3448,336.0811 L539.2521,337.4877 L540.7132,338.1988 L542.54,339.48 " fill="none" style="stroke: #A9A9A9; stroke-width: 2.0;"/><polygon fill="#A9A9A9" points="553.66,346.84,553.7191,346.8777,552.4836,345.1054,551.5943,343.5542,550.5923,341.931,549.2195,340.0711,548.36,338.5388,548.3346,338.5337,548.4466,339.619,548.6866,340.7305,549.0155,341.86,549.0379,342.9271,549.4896,344.0817,549.5265,344.2626,548.3391,344.1018,547.2593,344.469,546.1926,344.9006,545.0496,344.9575,543.9467,345.2114,543.9505,345.2338,545.8876,345.5266,547.8419,345.9215,549.7879,346.2672,551.7496,346.7068,553.66,346.84" style="stroke: #A9A9A9; stroke-width: 2.0;"/><path d="M549.4896,344.0817 L549.5412,344.1596 L548.054,343.0449 L546.8692,342.3867 L545.5859,341.5798 L543.9789,340.284 L542.82,339.665 " fill="#A9A9A9" style="stroke: #A9A9A9; stroke-width: 2.0;"/><polygon fill="#A9A9A9" points="413.17,263.31,413.2323,263.3421,413.7073,264.5291,414.5474,265.9041,415.2686,267.2179,415.5988,268.3304,416.4703,269.7215,416.4682,269.6957,417.8964,269.4637,419.3351,269.3619,420.7811,269.3506,422.2019,269.0275,423.658,269.1411,423.8221,269.2255,422.8112,267.7626,422.2793,266.5463,421.8058,265.36,420.9923,263.9988,420.3577,262.7295,420.3595,262.7522,418.9193,262.835,417.4874,263.021,416.0515,263.1573,414.6233,263.3885,413.17,263.31" style="stroke: #A9A9A9; stroke-width: 2.0;"/><!--link SistemaComplejo to SistemaIntermedioEstable--><path d="M297.45,272.93 L297.5936,273.1706 L288.8931,277.3933 L281.0344,283.0267 L272.9016,288.2007 L263.8672,291.864 L256.0277,297.5295 L247.5155,302.0678 L239.271,307.0548 L231.2127,312.3535 L222.513,316.5777 L215.0898,322.9408 L206.007,326.523 L198.0287,331.9559 L189.89,337.12 " fill="none" style="stroke: #A9A9A9; stroke-width: 2.0;"/><polygon fill="#A9A9A9" points="178.28,344.05,178.2883,344.1196,180.2194,343.6787,182.1993,343.6456,184.1632,343.4797,186.0749,342.8771,188.059,342.879,188.0526,342.8539,186.9273,342.4635,185.8341,342.1996,184.7631,342.0238,183.6154,341.5448,182.5752,341.4905,182.7541,341.5358,182.6492,340.3421,183.0667,339.2808,183.5479,338.2355,183.6583,337.0964,183.9637,336.0067,183.9823,336.0198,182.8183,337.6092,181.7388,339.2583,180.6186,340.8787,179.5762,342.554,178.28,344.05" style="stroke: #A9A9A9; stroke-width: 2.0;"/><path d="M182.5752,341.4905 L182.6231,341.5707 L183.8537,340.5123 L185.3652,339.924 L186.7852,339.1827 L187.9044,337.9379 L189.44,337.39 " fill="#A9A9A9" style="stroke: #A9A9A9; stroke-width: 2.0;"/><polygon fill="#A9A9A9" points="308.89,266.1,308.8935,266.17,307.4427,265.8899,306.0124,266.0201,304.5754,266.0167,303.1164,265.574,301.6879,265.7393,301.6645,265.7282,300.939,266.98,300.3314,268.2881,299.8056,269.6352,298.9975,270.8477,298.585,272.2487,298.5942,272.433,300.0149,272.111,301.4625,272.3271,302.9134,272.6089,304.3452,272.5087,305.7871,272.6094,305.8076,272.6191,306.398,271.3029,307.082,270.0312,307.7208,268.738,308.4456,267.4859,308.89,266.1" style="stroke: #A9A9A9; stroke-width: 2.0;"/><!--
@startuml
skinparam backgroundColor #222222
skinparam handwritten true
hide stereotype
hide circle
skinparam shadowing false
skinparam padding 1
skinparam arrow {
    Thickness 2
    Color #DarkGrey
    FontSize 20
    FontName courier
    FontStyle normal
    FontColor #DarkGrey
}
skinparam class {
    BorderThickness 3
    BorderColor #DarkGrey
    BackgroundColor #222222
    FontSize 20
    FontName courier
    FontStyle bold
    FontColor #DarkGrey
}

together sistemas {

class Sistema

}

together sistemasComplejos {

class "Separaci칩n \nde \nAsuntos" as SeparacionAsuntos

class "Elementos \nprimitivos" as ElementoPrimitivo

class "Estructura \nJer치rquica" as EstructuraJerarquica

class "Patrones \nComunes" as PatronesComunes

class "Sistema \nIntermedio \nEstable" as SistemaIntermedioEstable

class "Sistema \nComplejo" as SistemaComplejo

}

Sistema <|-down- SistemaIntermedioEstable

Sistema <|-down- SistemaComplejo
SistemaComplejo *-down-> SeparacionAsuntos
SistemaComplejo *-down-> ElementoPrimitivo
SistemaComplejo *-down-> EstructuraJerarquica
SistemaComplejo *-down-> PatronesComunes
SistemaComplejo *-down-> SistemaIntermedioEstable

@enduml

PlantUML version 1.2019.05(Sat Apr 20 18:45:36 CEST 2019)
(GPL source distribution)
Java Runtime: Java(TM) SE Runtime Environment
JVM: Java HotSpot(TM) 64-Bit Server VM
Java Version: 11.0.14+8-LTS-263
Operating System: Windows 10
OS Version: 10.0
Default Encoding: windows-1252
Language: es
Country: ES
--></g></svg>