<?xml version="1.0" encoding="UTF-8" standalone="no"?><svg xmlns="http://www.w3.org/2000/svg" xmlns:xlink="http://www.w3.org/1999/xlink" contentScriptType="application/ecmascript" contentStyleType="text/css" height="461px" preserveAspectRatio="none" style="width:568px;height:461px;background:#222222;" version="1.1" viewBox="0 0 568 461" width="568px" zoomAndPan="magnify"><defs/><g><!--class Natural--><polygon fill="#222222" points="111,28,111,28.2102,121.2222,27.5857,131.4444,28.1933,141.6667,28.3997,151.8889,27.2866,162.1111,27.9223,172.3333,27.5735,182.5556,27.6165,192.7778,27.9318,203,28,202.3086,28,203.5536,38.8227,202.3697,49.6453,202.8022,60.468,203.4319,71.2906,203,82.1133,203,82.0275,192.7778,82.1815,182.5556,82.0813,172.3333,82.2918,162.1111,82.3524,151.8889,82.699,141.6667,82.7843,131.4444,82.7925,121.2222,82.3679,111,82.1133,111.4636,82.1133,111.7022,71.2906,110.2788,60.468,111.6785,49.6453,110.7035,38.8227,111,28" style="stroke: #DC143C; stroke-width: 3.0;"/><text fill="#DC143C" font-family="courier" font-size="20" font-weight="bold" lengthAdjust="spacingAndGlyphs" textLength="84" x="115" y="54.1074">Natural</text><path d="M112,66.1133 L112,66.3935 L122,65.5609 L132,66.371 L142,66.6462 L152,65.1621 L162,66.0097 L172,65.5446 L182,65.6019 L192,66.0224 L202,66.1133 " fill="#222222" style="stroke: #DC143C; stroke-width: 3.0;"/><path d="M112,74.1133 L112,74.3935 L122,73.5609 L132,74.371 L142,74.6462 L152,73.1621 L162,74.0097 L172,73.5446 L182,73.6019 L192,74.0224 L202,74.1133 " fill="#222222" style="stroke: #DC143C; stroke-width: 3.0;"/><!--class Unidad--><polygon fill="#222222" points="30,212,30,212.2102,40,211.5857,50,212.1933,60,212.3997,70,211.2866,80,211.9223,90,211.5735,100,211.6165,110,212,109.9318,212,109.3086,222.8227,110.5536,233.6453,109.3697,244.468,109.8022,255.2906,110,266.1133,110,266.5452,100,266.0275,90,266.1815,80,266.0813,70,266.2918,60,266.3524,50,266.699,40,266.7843,30,266.1133,30.6793,266.1133,30.2546,255.2906,30.4636,244.468,30.7022,233.6453,29.2788,222.8227,30,212" style="stroke: #DC143C; stroke-width: 3.0;"/><text fill="#DC143C" font-family="courier" font-size="20" font-weight="bold" lengthAdjust="spacingAndGlyphs" textLength="72" x="34" y="238.1074">Unidad</text><path d="M31,250.1133 L31,250.3935 L40.75,249.5609 L50.5,250.371 L60.25,250.6462 L70,249.1621 L79.75,250.0097 L89.5,249.5446 L99.25,249.6019 L109,250.1133 " fill="#222222" style="stroke: #DC143C; stroke-width: 3.0;"/><path d="M31,258.1133 L31,258.3935 L40.75,257.5609 L50.5,258.371 L60.25,258.6462 L70,257.1621 L79.75,258.0097 L89.5,257.5446 L99.25,257.6019 L109,258.1133 " fill="#222222" style="stroke: #DC143C; stroke-width: 3.0;"/><!--class Primo--><polygon fill="#222222" points="227,396,227,396.2102,236.7143,395.5857,246.4286,396.1933,256.1429,396.3997,265.8571,395.2866,275.5714,395.9223,285.2857,395.5735,295,396,294.6165,396,294.9318,406.8227,294.3086,417.6453,295.5536,428.468,294.3697,439.2906,295,450.1133,295,449.9155,285.2857,450.5452,275.5714,450.0275,265.8571,450.1815,256.1429,450.0813,246.4286,450.2918,236.7143,450.3524,227,450.1133,227.5857,450.1133,227.6711,439.2906,227.6793,428.468,227.2546,417.6453,227.4636,406.8227,227,396" style="stroke: #DC143C; stroke-width: 3.0;"/><text fill="#DC143C" font-family="courier" font-size="20" font-weight="bold" lengthAdjust="spacingAndGlyphs" textLength="60" x="231" y="422.1074">Primo</text><path d="M228,434.1133 L228,434.3935 L237.4286,433.5609 L246.8571,434.371 L256.2857,434.6462 L265.7143,433.1621 L275.1429,434.0097 L284.5714,433.5446 L294,434.1133 " fill="#222222" style="stroke: #DC143C; stroke-width: 3.0;"/><path d="M228,442.1133 L228,442.3935 L237.4286,441.5609 L246.8571,442.371 L256.2857,442.6462 L265.7143,441.1621 L275.1429,442.0097 L284.5714,441.5446 L294,442.1133 " fill="#222222" style="stroke: #DC143C; stroke-width: 3.0;"/><!--class Compuesto--><polygon fill="#222222" points="290,212,290,212.2102,299.6667,211.5857,309.3333,212.1933,319,212.3997,328.6667,211.2866,338.3333,211.9223,348,211.5735,357.6667,211.6165,367.3333,211.9318,377,211.3086,386.6667,212.5536,396.3333,211.3697,406,212,405.8022,212,406.4319,222.8227,405.9142,233.6453,406.0682,244.468,405.9681,255.2906,406,266.1133,406,266.2918,396.3333,266.3524,386.6667,266.699,377,266.7843,367.3333,266.7925,357.6667,266.3679,348,266.5769,338.3333,266.8155,328.6667,265.3921,319,266.7918,309.3333,265.8168,299.6667,266.6471,290,266.1133,289.505,266.1133,289.9315,255.2906,290.7416,244.468,289.9513,233.6453,290.1053,222.8227,290,212" style="stroke: #DC143C; stroke-width: 3.0;"/><text fill="#DC143C" font-family="courier" font-size="20" font-weight="bold" lengthAdjust="spacingAndGlyphs" textLength="108" x="294" y="238.1074">Compuesto</text><path d="M291,250.1133 L291,250.3935 L301.3636,249.5609 L311.7273,250.371 L322.0909,250.6462 L332.4545,249.1621 L342.8182,250.0097 L353.1818,249.5446 L363.5455,249.6019 L373.9091,250.0224 L384.2727,249.1915 L394.6364,250.8515 L405,250.1133 " fill="#222222" style="stroke: #DC143C; stroke-width: 3.0;"/><path d="M291,258.1133 L291,258.3935 L301.3636,257.5609 L311.7273,258.371 L322.0909,258.6462 L332.4545,257.1621 L342.8182,258.0097 L353.1818,257.5446 L363.5455,257.6019 L373.9091,258.0224 L384.2727,257.1915 L394.6364,258.8515 L405,258.1133 " fill="#222222" style="stroke: #DC143C; stroke-width: 3.0;"/><!--link Natural to Unidad--><path d="M95.03,94.95 L95.0947,95.0174 L93.1897,96.4627 L91.6641,98.3029 L90.015,100.0146 L87.9596,101.3034 L86.4666,103.1775 L86.4407,103.1547 L84.7486,104.8386 L83.1871,106.6378 L81.7164,108.517 L79.9329,110.1202 L78.5875,112.11 L78.7873,112.2537 L76.977,113.8694 L75.75,115.9047 L74.5942,117.9911 L73.0243,119.7797 L71.6722,121.725 L71.6987,121.7397 L70.5253,123.7731 L69.4728,125.8733 L68.3619,127.9414 L67.3623,130.0708 L66,132 L66.2786,132.1065 L65.5364,134.0575 L64.6145,135.9397 L63.9556,137.9226 L63.3091,139.9101 L62.272,141.7483 L61.9604,141.6733 L62.0736,143.8624 L61.1607,145.8046 L61.0279,147.9344 L60.0917,149.8711 L59.8141,151.9661 L59.7839,151.9622 L59.8707,154.1054 L59.2521,156.1576 L59.0498,158.2635 L58.8824,160.3739 L58.4629,162.4518 L58.6477,162.459 L58.3795,164.5621 L58.4273,166.6775 L57.9639,168.7732 L58.2629,170.8982 L58.055,173.0038 L58.2985,173.0124 L58.3269,175.0941 L58.4761,177.1801 L58.0637,179.246 L58.063,181.3266 L58.4271,183.4202 L58.1523,183.3933 L58.5989,185.4335 L58.7357,187.4434 L59.3218,189.4974 L59.1409,191.4761 L59.4159,193.4995 L59.2657,193.4735 L60.1507,197.1849 L60.3935,200.7852 L61.093,204.4645 L62.2394,208.2211 L62.59,211.84 " fill="none" style="stroke: #A9A9A9; stroke-width: 2.0;"/><polygon fill="none" points="90.86,89.33,90.8832,89.3961,94.8122,87.7937,98.8774,86.5788,102.8982,85.2377,106.7731,83.4817,110.85,82.3,110.828,82.2863,108.4815,85.8166,106.2456,89.4162,104.0867,93.0639,101.6626,96.5457,99.61,100.26,99.7541,100.3753,97.696,97.9427,96.0585,95.8468,94.4724,93.792,92.5877,91.4981,90.86,89.33" style="stroke: #A9A9A9; stroke-width: 2.0;"/><!--link Natural to Unidad--><path d="M133.05,82.1 L133.1227,82.1587 L131.1061,84.2136 L129.5155,86.6126 L127.7862,88.8996 L125.6007,90.818 L124.0467,93.2466 L124.0189,93.226 L122.0806,95.5902 L120.2824,98.0577 L118.5816,100.5971 L116.5452,102.8888 L114.9787,105.5275 L115.1846,105.6623 L113.0355,107.9824 L111.4873,110.6962 L110.0124,113.458 L108.111,115.9404 L106.4339,118.5697 L106.4604,118.5844 L104.9347,121.2489 L103.5298,123.9802 L102.0665,126.6793 L100.7145,129.44 L99,132 L99.2709,132.1249 L98.432,133.9534 L97.4184,135.7015 L96.6605,137.5674 L95.9146,139.4388 L94.7889,141.1352 L94.4917,141.0153 L94.3028,143.1465 L93.135,144.8829 L92.7114,146.9195 L91.5215,148.647 L90.9597,150.6278 L90.931,150.6176 L90.5781,152.6784 L89.5551,154.5003 L88.9276,156.4631 L88.3332,158.4379 L87.4993,160.3271 L87.6756,160.3832 L86.8768,162.2777 L86.3792,164.268 L85.3943,166.1032 L85.1363,168.1698 L84.395,170.0825 L84.6301,170.1465 L83.5472,173.9496 L82.581,177.7844 L81.0725,181.4717 L79.9616,185.2671 L79.2028,189.1584 L78.9333,189.098 L78.3927,192.651 L77.5485,196.1359 L77.1446,199.7196 L75.9888,203.1347 L75.28,206.65 " fill="none" style="stroke: #A9A9A9; stroke-width: 2.0;"/><polygon fill="#A9A9A9" points="74.27,211.72,74.3273,211.7604,75.2919,210.0304,76.5922,208.537,77.7832,206.9666,78.6147,205.1428,79.9438,203.6697,79.9294,203.6482,78.9245,204.1807,77.9921,204.8217,77.1103,205.5383,76.0545,205.9948,75.2423,206.8155,75.3957,206.9181,74.4386,205.7583,73.9292,204.8982,73.4745,204.0746,72.7019,203.0384,72.0966,202.114,72.1187,202.119,72.5209,204.0328,73.024,205.9695,73.4784,207.8952,74.0257,209.8419,74.27,211.72" style="stroke: #A9A9A9; stroke-width: 2.0;"/><text fill="#A9A9A9" font-family="courier" font-size="20" lengthAdjust="spacingAndGlyphs" textLength="84" x="101" y="154.1074">divisor</text><text fill="#A9A9A9" font-family="courier" font-size="20" lengthAdjust="spacingAndGlyphs" textLength="12" x="113.9567" y="111.299">1</text><text fill="#A9A9A9" font-family="courier" font-size="20" lengthAdjust="spacingAndGlyphs" textLength="12" x="60.7496" y="196.9584">1</text><!--link Natural to Primo--><path d="M178.61,100.64 L178.6962,100.6761 L179.7489,103.6921 L181.3067,106.9197 L182.7001,110.0784 L183.5526,113.0105 L185.1538,116.2563 L185.1214,116.2442 L186.1453,119.339 L187.3325,122.4944 L188.6331,125.692 L189.5427,128.7443 L191,132 L191.2336,132.0773 L191.9293,135.5265 L193.307,139.2013 L194.768,142.9036 L195.7447,146.4457 L196.9762,150.0721 L197.0051,150.0812 L198.1143,153.7614 L199.3553,157.4827 L200.5327,161.1842 L201.8315,164.9235 L202.7347,168.5395 L203.0207,168.624 L204.1309,172.3716 L205.0567,176.0648 L206.2525,179.8377 L207.4609,183.6143 L208.2683,187.2725 L207.9597,187.1858 L209.6189,191.1278 L210.2619,194.7843 L211.6774,198.6579 L212.2975,202.308 L213.5695,206.1413 L213.5401,206.1334 L214.9002,210.0016 L215.5732,213.6856 L216.6517,217.4783 L217.7641,221.2801 L218.6311,225.0161 L218.8102,225.0621 L219.5923,228.7659 L220.6805,232.5484 L221.2733,236.2036 L222.6051,240.0485 L223.4455,243.7673 L223.6821,243.8257 L224.5494,247.5142 L225.5341,251.2317 L225.9731,254.8147 L226.8121,258.4963 L228.0055,262.2652 L227.7368,262.2015 L228.8397,265.8821 L229.6398,269.491 L230.8791,273.204 L231.3686,276.7391 L232.3037,280.38 L232.155,280.3465 L233.959,287.3146 L235.1272,294.1395 L236.7476,301.0662 L238.8103,308.0925 L240.0853,314.9414 L240.2747,314.9814 L241.7338,321.3033 L242.6037,327.5008 L244.2116,333.8541 L245.6587,340.1735 L246.7311,346.4138 L246.5252,346.3727 L247.7796,351.8745 L248.9665,357.3629 L250.2859,362.8777 L251.0903,368.2898 L252.1823,373.7592 L252.3843,373.7974 L252.78,378.1496 L253.5656,382.5756 L254.9209,387.1093 L255.2274,391.4446 L256.38,395.94 " fill="none" style="stroke: #A9A9A9; stroke-width: 2.0;"/><polygon fill="none" points="172.15,103.35,172.2198,103.3565,171.6185,99.1172,171.4261,94.916,171.1006,90.7024,170.3372,86.4479,170.18,82.25,170.1613,82.232,173.0176,85.2054,175.9679,88.2693,178.9836,91.3962,181.774,94.3062,184.88,97.52,184.9568,97.6878,182.2465,98.495,179.7606,99.7921,177.302,101.1489,174.6841,102.158,172.15,103.35" style="stroke: #A9A9A9; stroke-width: 2.0;"/><!--link Natural to Compuesto--><path d="M200.64,96.08 L200.7036,96.1484 L204.3565,99.5215 L208.3825,103.2954 L212.287,106.9388 L215.792,110.1529 L219.85,113.9613 L219.8263,113.9361 L223.55,117.431 L227.3931,121.0527 L231.3192,124.7625 L234.9593,128.1686 L239,132 L239.17,132.1779 L243.151,135.9508 L247.6284,140.2431 L252.1664,144.5987 L256.352,148.5857 L260.723,152.7666 L260.744,152.7884 L265.0763,156.9715 L269.5044,161.254 L273.8863,165.4886 L278.3565,169.8145 L282.5388,173.8425 L283.1638,174.4828 L290.9236,182.0581 L298.2804,189.2204 L306.2273,196.9873 L314.2018,204.7825 L321.3,211.68 " fill="none" style="stroke: #A9A9A9; stroke-width: 2.0;"/><polygon fill="none" points="195.56,100.92,195.6219,100.9529,193.45,97.1132,191.6409,93.4662,189.7137,89.7565,187.398,85.8404,185.62,82.21,185.6097,82.1862,189.4514,83.7656,193.3451,85.4647,197.275,87.2472,201.0803,88.7426,205.06,90.64,205.1955,90.7653,203.0057,92.5534,201.2116,94.7073,199.4657,96.9057,197.439,98.8446,195.56,100.92" style="stroke: #A9A9A9; stroke-width: 2.0;"/><!--link Primo to Primo--><path d="M295.34,408.38 L295.3556,408.4721 L297.4608,407.8346 L299.6574,407.737 L301.8242,407.4636 L303.8933,406.612 L306.0977,406.5608 L306.0952,406.5264 L308.186,406.2163 L310.2897,406.0798 L312.4024,406.0641 L314.4843,405.6323 L316.6092,405.7833 L316.6297,406.0285 L320.3498,405.8182 L324.1297,406.3239 L327.9169,406.9169 L331.6617,407.0017 L335.4288,407.3538 L335.4407,407.3816 L338.1112,408.4884 L340.836,409.7222 L343.5346,410.8947 L346.2831,412.184 L348.8689,413.0923 L349.1337,413.2295 L350.1632,415.2127 L351.0218,417.1074 L352.1305,419.1317 L353.2509,421.162 L354,423 L353.7115,422.8603 L353.3569,425.0206 L352.0523,426.7211 L351.47,428.7711 L350.1438,430.4611 L349.4273,432.4462 L349.4143,432.4188 L347.1512,433.8937 L344.5826,434.7262 L342.1943,435.9378 L339.8211,437.1812 L337.3388,438.195 L337.3607,438.3787 L333.9065,438.6035 L330.4897,439.1422 L327.0123,439.1731 L323.6254,439.9615 L320.1783,440.2462 L320.1985,440.4891 L316.237,440.1139 L312.2856,439.8593 L308.2875,439.0445 L304.3236,438.6404 L300.39,438.6 " fill="none" style="stroke: #A9A9A9; stroke-width: 2.0;"/><polygon fill="#A9A9A9" points="295.34,437.62,295.3802,437.6774,296.874,438.6371,298.6035,439.9333,300.2562,441.1198,301.6565,441.9462,303.4062,443.2712,303.3847,443.2567,302.6565,442.2533,302.0366,441.3228,301.492,440.4429,300.6879,439.3884,300.2473,438.5786,300.3503,438.7317,301.0685,437.7725,302.0875,437.2603,303.1433,436.8026,303.9854,436.0277,304.9399,435.4196,304.945,435.4418,303.0175,435.8493,301.1132,436.3578,299.1978,436.8175,297.3036,437.3702,295.34,437.62" style="stroke: #A9A9A9; stroke-width: 2.0;"/><text fill="#A9A9A9" font-family="courier" font-size="20" lengthAdjust="spacingAndGlyphs" textLength="84" x="361" y="430.1074">divisor</text><text fill="#A9A9A9" font-family="courier" font-size="20" lengthAdjust="spacingAndGlyphs" textLength="12" x="301.8197" y="381.0957">1</text><text fill="#A9A9A9" font-family="courier" font-size="20" lengthAdjust="spacingAndGlyphs" textLength="12" x="303.8702" y="431.2157">1</text><!--link Compuesto to Primo--><path d="M335.54,266.08 L335.7928,266.2009 L330.763,274.791 L327.2154,284.0897 L323.1851,293.1577 L317.5676,301.4669 L314.0537,310.7817 L309.3555,319.5304 L305.1287,328.5044 L301.2294,337.6351 L296.2012,346.226 L293.4203,355.8913 L287.7175,364.1597 L283.9592,373.3577 L280.4382,382.6691 L275.64,391.37 " fill="none" style="stroke: #A9A9A9; stroke-width: 2.0;"/><polygon fill="#A9A9A9" points="273.44,395.97,273.4855,396.0233,274.8482,394.5858,276.4776,393.4606,278.0202,392.2338,279.2772,390.6724,280.9295,389.5741,280.9209,389.5497,279.8154,389.817,278.7534,390.2074,277.7217,390.6834,276.5857,390.8644,275.5958,391.4586,275.7698,391.5201,275.0208,390.3219,274.7798,389.3032,274.6008,388.3063,274.0612,387.1821,273.7113,386.1249,273.734,386.1255,273.6464,388.0936,273.6622,390.0646,273.6282,392.0341,273.6894,394.0064,273.44,395.97" style="stroke: #A9A9A9; stroke-width: 2.0;"/><text fill="#A9A9A9" font-family="courier" font-size="20" lengthAdjust="spacingAndGlyphs" textLength="84" x="311" y="338.1074">divisor</text><text fill="#A9A9A9" font-family="courier" font-size="20" lengthAdjust="spacingAndGlyphs" textLength="12" x="318.7088" y="295.275">1</text><text fill="#A9A9A9" font-family="courier" font-size="20" lengthAdjust="spacingAndGlyphs" textLength="48" x="221.9673" y="380.9996">1..p</text><!--link Compuesto to Compuesto--><path d="M406.09,222.43 L406.0952,222.5233 L408.3585,222.1181 L410.6526,222.2597 L412.9366,222.2232 L415.1877,221.6012 L417.4844,221.7897 L417.4839,221.7552 L419.6487,221.627 L421.8157,221.673 L423.9841,221.8399 L426.1474,221.5898 L428.318,221.9239 L428.3516,222.1677 L432.0404,222.1649 L435.8273,222.8738 L439.6262,223.6695 L443.3554,223.96 L447.1213,224.5163 L447.1334,224.544 L449.7186,225.6416 L452.3591,226.8656 L454.9729,228.0287 L457.6377,229.3081 L460.1364,230.208 L460.3974,230.3523 L461.3733,232.1125 L462.1809,233.7796 L463.2349,235.5829 L464.3004,237.3927 L465,239 L464.7156,238.8521 L464.3944,240.8177 L463.1368,242.2963 L462.591,244.1452 L461.3122,245.6127 L460.6342,247.3928 L460.6211,247.3653 L458.4232,248.8142 L455.9187,249.6211 L453.5951,250.8069 L451.2867,252.0244 L448.8688,253.0125 L448.899,253.195 L445.435,253.5805 L442.0227,254.2778 L438.5267,254.4706 L435.1556,255.4159 L431.7014,255.8609 L431.7108,256.1044 L429.712,256.1355 L427.7179,256.2874 L425.7021,255.8777 L423.7022,255.8798 L421.7163,256.2465 L421.7084,255.9705 L419.5983,256.1591 L417.4793,256.0366 L415.3733,256.3653 L413.245,255.9237 L411.13,255.94 " fill="none" style="stroke: #A9A9A9; stroke-width: 2.0;"/><polygon fill="#A9A9A9" points="406.09,255.57,406.1231,255.6317,407.7603,256.3798,409.5917,257.4898,411.3598,258.4819,412.9199,259.0865,414.768,260.2276,414.7483,260.2107,413.9219,259.2776,413.1944,258.4297,412.5357,257.6411,411.6399,256.6483,411.0762,255.9415,411.1966,256.0813,411.7963,255.0439,412.7476,254.4148,413.7418,253.8355,414.4864,252.9664,415.3623,252.2497,415.37,252.2711,413.5042,252.9037,411.6734,253.6338,409.8258,254.3169,408.0103,255.0897,406.09,255.57" style="stroke: #A9A9A9; stroke-width: 2.0;"/><text fill="#A9A9A9" font-family="courier" font-size="20" lengthAdjust="spacingAndGlyphs" textLength="84" x="472" y="246.1074">divisor</text><text fill="#A9A9A9" font-family="courier" font-size="20" lengthAdjust="spacingAndGlyphs" textLength="12" x="415.4419" y="202.163">1</text><text fill="#A9A9A9" font-family="courier" font-size="20" lengthAdjust="spacingAndGlyphs" textLength="48" x="415.0095" y="248.9224">1..c</text><!--
@startuml
skinparam backgroundColor #222222

skinparam handwritten true

skinparam shadowing false
skinparam padding 1
skinparam arrow {
    Thickness 2
    Color #DarkGrey
    FontSize 20
    FontName courier
    FontStyle normal
    FontColor #DarkGrey
}

skinparam class {
    BorderThickness 3
    BorderColor<<A>> #ForestGreen
    BorderColor #Crimson
    BorderColor<<C>> #DodgerBlue
    BackgroundColor #222222
    FontSize 20
    FontName courier
    FontStyle bold
    FontColor<<A>> #ForestGreen
    FontColor #Crimson
    FontColor<<C>> #DodgerBlue
}

hide circle
hide stereotype

class Natural
class Unidad
class Primo
class Compuesto

Natural <|-down- Unidad
Natural <|-down- Primo
Natural <|-down- Compuesto

Natural "1" - -> "1" Unidad : divisor
Primo "1" - -> "1" Primo : divisor
Compuesto "1" - -> "1..p" Primo : divisor
Compuesto "1" - -> "1..c" Compuesto : divisor

@enduml

PlantUML version 1.2019.05(Sat Apr 20 18:45:36 CEST 2019)
(GPL source distribution)
Java Runtime: Java(TM) SE Runtime Environment
JVM: Java HotSpot(TM) 64-Bit Server VM
Java Version: 11.0.14+8-LTS-263
Operating System: Windows 10
OS Version: 10.0
Default Encoding: windows-1252
Language: es
Country: ES
--></g></svg>