<?xml version="1.0" encoding="UTF-8" standalone="no"?><svg xmlns="http://www.w3.org/2000/svg" xmlns:xlink="http://www.w3.org/1999/xlink" contentScriptType="application/ecmascript" contentStyleType="text/css" height="542px" preserveAspectRatio="none" style="width:447px;height:542px;background:#222222;" version="1.1" viewBox="0 0 447 542" width="447px" zoomAndPan="magnify"><defs/><g><polygon fill="#222222" points="245,8,245,8.2102,254.6667,7.5857,264.3333,8.1933,274,8.3997,283.6667,7.2866,293.3333,7.9223,303,7.5735,312.6667,7.6165,322.3333,7.9318,332,7.3086,341.6667,8.5536,351.3333,7.3697,361,8,360.9354,7.9867,362.541,14.8516,363.772,21.6396,365.2223,28.4725,366.5896,35.2885,368,42.1133,368,42.1728,369.4,42.193,370.8,42.3085,372.2,42.337,373.6,42.3397,375,42.1133,375.0849,42.1133,375.1545,50.5359,375.2341,58.9586,374.7596,67.3813,375.2262,75.8039,375,84.2266,375,83.9301,365,84.7604,355,83.7315,345,84.1581,335,84.9682,325,84.1778,315,84.3319,305,84.5652,295,84.6428,285,84.2227,275,84.5138,265,83.6541,255,84.5109,245,84.2266,245.5482,84.2266,245.4445,74.6982,245.613,65.1699,244.5169,55.6416,244.3478,46.1133,244.3786,36.585,244.9411,27.0566,244.8035,17.5283,245,8" style="stroke: #DC143C; stroke-width: 3.0;"/><path d="M245,42.1133 L245,42.3935 L255.25,41.5609 L265.5,42.371 L275.75,42.6462 L286,41.1621 L296.25,42.0097 L306.5,41.5446 L316.75,41.6019 L327,42.0224 L337.25,41.1915 L347.5,42.8515 L357.75,41.2729 L368,42.1133 " fill="#222222" style="stroke: #DC143C; stroke-width: 3.0;"/><text fill="#DC143C" font-family="courier" font-size="20" font-weight="bold" lengthAdjust="spacingAndGlyphs" textLength="108" x="250" y="31.1074">iteración</text><polygon fill="#222222" points="141,145,141,145.2102,150.6667,144.5857,160.3333,145.1933,170,145.3997,179.6667,144.2866,189.3333,144.9223,199,144.5735,208.6667,144.6165,218.3333,144.9318,228,144.3086,237.6667,145.5536,247.3333,144.3697,257,145,256.9354,144.9867,258.541,151.8516,259.772,158.6396,261.2223,165.4725,262.5896,172.2885,264,179.1133,264,179.1728,265.4,179.193,266.8,179.3085,268.2,179.337,269.6,179.3397,271,179.1133,271.0849,179.1133,271.1545,187.5359,271.2341,195.9586,270.7596,204.3813,271.2262,212.8039,271,221.2266,271,220.9301,261,221.7604,251,220.7315,241,221.1581,231,221.9682,221,221.1778,211,221.3319,201,221.5652,191,221.6428,181,221.2227,171,221.5138,161,220.6541,151,221.5109,141,221.2266,141.5482,221.2266,141.4445,211.6982,141.613,202.1699,140.5169,192.6416,140.3478,183.1133,140.3786,173.585,140.9411,164.0566,140.8035,154.5283,141,145" style="stroke: #DC143C; stroke-width: 3.0;"/><path d="M141,179.1133 L141,179.3935 L151.25,178.5609 L161.5,179.371 L171.75,179.6462 L182,178.1621 L192.25,179.0097 L202.5,178.5446 L212.75,178.6019 L223,179.0224 L233.25,178.1915 L243.5,179.8515 L253.75,178.2729 L264,179.1133 " fill="#222222" style="stroke: #DC143C; stroke-width: 3.0;"/><text fill="#DC143C" font-family="courier" font-size="20" font-weight="bold" lengthAdjust="spacingAndGlyphs" textLength="108" x="146" y="168.1074">iteración</text><polygon fill="#222222" points="6,311,6,311.2102,15.6667,310.5857,25.3333,311.1933,35,311.3997,44.6667,310.2866,54.3333,310.9223,64,310.5735,73.6667,310.6165,83.3333,310.9318,93,310.3086,102.6667,311.5536,112.3333,310.3697,122,311,121.9354,310.9867,123.541,317.8516,124.772,324.6396,126.2223,331.4725,127.5896,338.2885,129,345.1133,129,345.1728,130.4,345.193,131.8,345.3085,133.2,345.337,134.6,345.3397,136,345.1133,136.0849,345.1133,136.1545,353.5359,136.2341,361.9586,135.7596,370.3813,136.2262,378.8039,136,387.2266,136,386.9301,126,387.7604,116,386.7315,106,387.1581,96,387.9682,86,387.1778,76,387.3319,66,387.5652,56,387.6428,46,387.2227,36,387.5138,26,386.6541,16,387.5109,6,387.2266,6.5482,387.2266,6.4445,377.6982,6.613,368.1699,5.5169,358.6416,5.3478,349.1133,5.3786,339.585,5.9411,330.0566,5.8035,320.5283,6,311" style="stroke: #DC143C; stroke-width: 3.0;"/><path d="M6,345.1133 L6,345.3935 L16.25,344.5609 L26.5,345.371 L36.75,345.6462 L47,344.1621 L57.25,345.0097 L67.5,344.5446 L77.75,344.6019 L88,345.0224 L98.25,344.1915 L108.5,345.8515 L118.75,344.2729 L129,345.1133 " fill="#222222" style="stroke: #DC143C; stroke-width: 3.0;"/><text fill="#DC143C" font-family="courier" font-size="20" font-weight="bold" lengthAdjust="spacingAndGlyphs" textLength="108" x="11" y="334.1074">iteración</text><!--class Iterativo--><polygon fill="#222222" points="148,477,148,477.2102,157.6667,476.5857,167.3333,477.1933,177,477.3997,186.6667,476.2866,196.3333,476.9223,206,476.5735,215.6667,476.6165,225.3333,476.9318,235,476.3086,244.6667,477.5536,254.3333,476.3697,264,477,263.8022,477,264.4319,487.8227,263.9142,498.6453,264.0682,509.468,263.9681,520.2906,264,531.1133,264,531.2918,254.3333,531.3524,244.6667,531.699,235,531.7843,225.3333,531.7925,215.6667,531.3679,206,531.5769,196.3333,531.8155,186.6667,530.3921,177,531.7918,167.3333,530.8168,157.6667,531.6471,148,531.1133,147.505,531.1133,147.9315,520.2906,148.7416,509.468,147.9513,498.6453,148.1053,487.8227,148,477" style="stroke: #DC143C; stroke-width: 3.0;"/><text fill="#DC143C" font-family="courier" font-size="20" font-weight="bold" lengthAdjust="spacingAndGlyphs" textLength="108" x="152" y="503.1074">Iterativo</text><path d="M149,515.1133 L149,515.3935 L159.3636,514.5609 L169.7273,515.371 L180.0909,515.6462 L190.4545,514.1621 L200.8182,515.0097 L211.1818,514.5446 L221.5455,514.6019 L231.9091,515.0224 L242.2727,514.1915 L252.6364,515.8515 L263,515.1133 " fill="#222222" style="stroke: #DC143C; stroke-width: 3.0;"/><path d="M149,523.1133 L149,523.3935 L159.3636,522.5609 L169.7273,523.371 L180.0909,523.6462 L190.4545,522.1621 L200.8182,523.0097 L211.1818,522.5446 L221.5455,522.6019 L231.9091,523.0224 L242.2727,522.1915 L252.6364,523.8515 L263,523.1133 " fill="#222222" style="stroke: #DC143C; stroke-width: 3.0;"/><!--link Iterativo to Iterativo--><path d="M264.125,490.5 L264.1308,490.5932 L266.8382,490.485 L269.5795,490.9232 L272.3098,491.1835 L275.0038,490.8585 L277.748,491.3438 L277.7404,491.3101 L279.9218,491.6652 L282.1421,492.1901 L284.3893,492.833 L286.5437,493.0692 L288.8281,493.875 L289.0017,494.0494 L290.6649,495.7015 L292.8349,497.8627 L295.0667,500.0861 L296.9387,501.948 L299,504 L299.0226,504.0202 L297.2962,505.883 L295.6727,507.8379 L293.9996,509.7484 L292.4212,511.7436 L290.534,513.4625 L290.6153,513.7495 L288.7431,514.2834 L286.8185,514.6323 L284.9707,515.2522 L283.1264,515.8847 L281.1682,516.1149 L281.1337,515.7962 L278.8594,516.668 L276.4715,516.4904 L274.17,517.1106 L271.7796,516.9093 L269.462,517.3813 " fill="none" style="stroke: #A9A9A9; stroke-width: 2.0;"/><polygon fill="#A9A9A9" points="264.125,517.5,264.152,517.5646,265.8891,518.1323,267.7846,519.0788,269.6285,519.902,271.3028,520.3194,273.2119,521.2984,273.194,521.2797,272.296,520.4137,271.4883,519.6421,270.7433,518.9361,269.7821,518.004,269.1238,517.3886,269.2571,517.5161,269.7539,516.4257,270.6401,515.7078,271.5737,515.0352,272.231,514.0983,273.0336,513.3004,273.0433,513.321,271.2474,514.1307,269.4955,515.0341,267.7224,515.8923,265.99,516.8367,264.125,517.5" style="stroke: #A9A9A9; stroke-width: 2.0;"/><text fill="#A9A9A9" font-family="courier" font-size="20" lengthAdjust="spacingAndGlyphs" textLength="48" x="306" y="511.1074">next</text><!--link iteracion1 to iteracion2--><path d="M281.306,84.247 L281.528,84.418 L274.6404,91.9943 L269.0542,100.5731 L263.0442,108.8255 L255.6405,116.0042 L250.0839,124.6059 L243.4875,132.4065 L237.71,140.838 " fill="none" style="stroke: #A9A9A9; stroke-width: 2.0;"/><polygon fill="#A9A9A9" points="234.6,144.875,234.6334,144.9366,236.2664,143.8157,238.0951,143.056,239.86,142.1787,241.4156,140.9146,243.261,140.186,243.2577,140.1603,242.1207,140.1906,241.0006,140.3504,239.8922,140.6002,238.7435,140.5398,237.6512,140.9139,237.8342,140.9376,237.2972,139.7649,237.2946,138.6615,237.3572,137.5665,237.0405,136.4224,236.9232,135.3041,236.9453,135.3094,236.4482,137.2157,236.0518,139.1465,235.6068,141.0654,235.2544,143.0069,234.6,144.875" style="stroke: #A9A9A9; stroke-width: 2.0;"/><!--link iteracion2 to iteracion3--><path d="M175.366,221.214 L175.5824,221.3921 L168.5363,228.6416 L162.7586,236.9352 L156.5679,244.8889 L149.0189,251.7244 L143.2701,260.0418 L136.5079,267.525 L130.1489,275.3401 L124.0704,283.3861 L117.0257,290.6367 L111.9041,299.4704 L104.931,306.78 " fill="none" style="stroke: #A9A9A9; stroke-width: 2.0;"/><polygon fill="#A9A9A9" points="101.5124,310.933,101.5437,310.9957,103.2122,309.9281,105.0644,309.2279,106.8568,308.408,108.4524,307.1949,110.3203,306.5262,110.3178,306.5004,109.1805,306.4939,108.0558,306.6175,106.9399,306.8314,105.7938,306.7339,104.6899,307.0725,104.8736,307.0903,104.3716,305.9262,104.4058,304.814,104.5054,303.7082,104.2244,302.5654,104.1436,301.4421,104.1655,301.4482,103.6071,303.3374,103.1485,305.2544,102.6417,307.1579,102.2268,309.087,101.5124,310.933" style="stroke: #A9A9A9; stroke-width: 2.0;"/><!--link iteracion1 to Iterativo--><path d="M319.241,84.107 L319.3324,84.1263 L319.6042,86.6415 L320.4119,89.2699 L321.045,91.8614 L321.1044,94.3317 L321.958,96.9698 L321.9241,96.9633 L322.3287,99.8085 L322.9043,102.6868 L323.5987,105.5882 L323.8836,108.4102 L324.742,111.3433 L324.9844,111.3857 L325.016,114.4419 L325.7553,117.6217 L326.5809,120.8167 L326.9042,123.9238 L327.4917,127.0771 L327.5217,127.0818 L328.0004,130.4637 L328.6157,133.8668 L329.1651,137.2596 L329.8401,140.6719 L330.1056,144.021 L330.4013,144.06 L330.8803,147.6612 L331.1686,151.2371 L331.7361,154.85 L332.3166,158.4646 L332.4826,162.0244 L332.1639,161.99 L333.1901,165.8393 L333.1669,169.5754 L333.9416,173.3975 L333.8946,177.131 L334.5211,180.9371 L334.4907,180.9347 L335.1694,184.8982 L335.139,188.8041 L335.527,192.7439 L335.9501,196.6867 L336.1199,200.6088 L336.3045,200.6199 L336.2387,202.6234 L336.4884,204.6458 L336.2276,206.6377 L336.7283,208.6752 L336.7227,210.6823 L336.9661,210.6931 L337.0111,212.7325 L337.1769,214.7772 L336.7812,216.7968 L336.7971,218.8349 L337.1776,220.8891 L336.9016,220.8813 L337.2103,222.9527 L337.208,225.0152 L337.6569,227.0906 L337.3355,229.144 L337.4719,231.2105 L337.3195,231.2087 L337.5976,233.2951 L337.224,235.3739 L337.3138,237.4581 L337.8571,239.5476 L337.593,241.6277 L337.7866,241.6289 L337.9064,243.7285 L337.424,245.8245 L337.6959,247.925 L337.8034,250.0246 L337.528,252.1218 L337.3181,252.1166 L337.4327,254.2312 L337.4786,256.3442 L337.6595,258.4605 L337.3154,260.5636 L337.2645,262.6742 L337.4699,262.6834 L336.9237,264.7815 L336.7739,266.8974 L337.2033,269.0392 L336.5664,271.1333 L336.7897,273.2659 L337.0155,273.2807 L336.7416,275.3944 L336.3914,277.503 L336.2136,279.6229 L336.4342,281.7691 L336.091,283.8782 L335.9585,283.8665 L336.166,286.0241 L335.4722,288.1023 L335.8032,290.2708 L335.5571,292.3884 L335.1557,294.4923 L335.2639,294.5044 L334.9396,296.6141 L335.0028,298.7671 L334.7159,300.8809 L334.2827,302.9784 L333.971,305.0895 L334.0891,305.1057 L333.6244,307.1939 L333.7079,309.3572 L333.1713,311.4356 L332.8898,313.549 L332.5245,315.6509 L332.2577,315.6071 L332.0025,317.7231 L332.0688,319.8917 L331.6803,321.9858 L331.1287,324.0532 L330.8033,326.1576 L330.6627,326.1306 L330.3061,328.2259 L329.7005,330.2734 L329.7792,332.4525 L329.5193,334.5665 L328.7949,336.5911 L329.0232,336.642 L328.6346,338.7266 L327.8122,340.7143 L327.4476,342.8043 L326.78,344.8266 L326.4865,346.9323 L326.6087,346.9637 L326.0685,349.0056 L325.6759,351.0854 L324.815,353.0452 L324.3318,355.1018 L323.8654,357.1627 L324.0546,357.2179 L323.5182,359.2534 L322.4682,361.1391 L322.0149,363.1989 L321.5721,365.2617 L320.9191,367.2632 L320.6613,367.1782 L320.4114,369.3029 L319.7143,371.28 L318.906,373.2204 L318.3518,375.2447 L317.6349,377.2153 L317.9385,377.3281 L316.7775,379.1238 L316.3122,381.1779 L315.573,383.1303 L314.7752,385.061 L314,387 L314.057,387.0259 L312.8705,389.6034 L311.3968,392.05 L310.3118,394.6736 L309.1119,397.2449 L308.1232,399.9124 L308.1478,399.9265 L306.7297,402.421 L305.3306,404.9265 L303.7286,407.3155 L302.3873,409.8541 L300.9859,412.3582 L300.9418,412.328 L299.5674,414.8862 L297.8821,417.2317 L295.9174,419.3861 L294.4386,421.8728 L292.8353,424.2744 L292.6337,424.1157 L291.1526,426.6184 L289.4811,428.9711 L287.6754,431.2182 L285.5499,433.2134 L283.9186,435.5978 L284.0731,435.7345 L281.7843,437.5127 L280.2111,439.9238 L278.1577,441.9103 L276.4025,444.1605 L274.4832,446.2655 L274.5597,446.3401 L272.692,448.4018 L270.3715,450.0216 L268.8103,452.3824 L266.7744,454.2799 L264.7763,456.2143 L264.8846,456.3293 L263.058,458.2896 L260.8855,459.8829 L258.991,461.7712 L257.0564,463.6169 L255.0452,465.3812 L255.1029,465.4472 L253.1433,467.0453 L251.4499,468.9477 L249.1618,470.1704 L247.6041,472.2278 L245.537,473.7031 " fill="none" style="stroke: #A9A9A9; stroke-width: 2.0; stroke-dasharray: 7.0,7.0;"/><polygon fill="#A9A9A9" points="241.597,476.9909,241.6162,477.0583,243.4537,476.3188,245.4037,475.9744,247.317,475.5013,249.11,474.6052,251.0696,474.2947,251.0673,474.2689,249.93,474.0515,248.8045,473.9643,247.6872,473.9674,246.5417,473.659,245.4356,473.787,245.6194,473.8035,245.3279,472.6413,245.573,471.5274,245.8836,470.4195,245.8133,469.2772,245.9433,468.1529,245.9637,468.163,245.0645,469.9158,244.2582,471.7144,243.4071,473.4909,242.6415,475.3095,241.597,476.9909" style="stroke: #A9A9A9; stroke-width: 2.0;"/><text fill="#A9A9A9" font-family="courier" font-size="20" lengthAdjust="spacingAndGlyphs" textLength="96" x="339" y="273.1074">ejemplar</text><!--link iteracion2 to Iterativo--><path d="M206,221.218 L206.2802,221.218 L205.4476,231.2268 L206.2577,241.2357 L206.5329,251.2445 L205.0488,261.2534 L205.8964,271.2622 L205.4313,281.2711 L205.4887,291.2799 L205.9091,301.2888 L205.0782,311.2976 L206.7382,321.3064 L205.1596,331.3153 L205.7363,341.3241 L206.5759,351.333 L205.8856,361.3418 L206.091,371.3507 L205.9574,381.3595 L206.238,391.3683 L206.3188,401.3772 L206.7809,411.386 L206.8947,421.3949 L206.9057,431.4037 L206.3395,441.4126 L206.6181,451.4214 L206.9363,461.4303 L206,471.4391 " fill="none" style="stroke: #A9A9A9; stroke-width: 2.0; stroke-dasharray: 7.0,7.0;"/><polygon fill="#A9A9A9" points="206,476.6139,206.064,476.6424,206.6738,474.7578,207.6589,473.0401,208.5217,471.268,208.9827,469.3173,210,467.6139,209.9817,467.5956,209.0995,468.3134,208.3096,469.1235,207.5839,469.9978,206.637,470.6509,206,471.6139,206.1305,471.7444,205.0514,470.6653,204.3534,469.9673,203.7018,469.3157,202.7798,468.3937,202,467.6139,202.0208,467.6231,202.7903,469.4096,203.6544,471.2381,204.4728,473.0463,205.3784,474.8932,206,476.6139" style="stroke: #A9A9A9; stroke-width: 2.0;"/><text fill="#A9A9A9" font-family="courier" font-size="20" lengthAdjust="spacingAndGlyphs" textLength="96" x="208" y="356.1074">ejemplar</text><!--link iteracion3 to Iterativo--><path d="M65.9572,387.184 L66.0506,387.1852 L65.8106,390.2161 L66.1182,393.2538 L66.2475,396.2894 L65.7904,399.3176 L66.145,402.3559 L66.1108,402.3516 L66.3556,405.463 L66.7731,408.5965 L67.3108,411.7452 L67.4346,414.8413 L68.138,418.0111 L68.3743,418.0798 L68.7516,420.9721 L69.8189,424.0649 L70.9703,427.1821 L71.632,430.157 L72.5513,433.2068 L72.5779,433.2212 L74.0285,435.9587 L75.6006,438.7618 L77.114,441.5332 L78.7393,444.365 L80,447 L80.2215,447.1997 L82.786,450.044 L85.2076,452.7596 L87.8384,455.6636 L90.479,458.5765 L92.809,461.2095 L92.6159,460.9536 L96.0679,463.7732 L98.8841,465.7505 L102.1837,468.3682 L104.9855,470.3263 L108.1953,472.825 L108.1807,472.7983 L111.7484,474.9696 L114.975,476.5167 L118.4028,478.4321 L121.8476,480.3785 L125.1705,482.1017 L125.2405,482.2729 L128.6849,483.5387 L132.249,485.097 L135.6194,486.1819 L139.2788,487.9729 L142.746,489.2945 " fill="none" style="stroke: #A9A9A9; stroke-width: 2.0; stroke-dasharray: 7.0,7.0;"/><polygon fill="#A9A9A9" points="147.719,490.9956,147.7666,491.047,146.1806,489.5551,144.8739,488.3644,143.4761,487.0757,141.7794,485.4644,140.4966,484.2995,140.4734,484.2881,140.8672,485.2527,141.3783,486.2748,141.9709,487.3368,142.2826,488.2611,142.9878,489.3783,143.0691,489.544,141.8795,489.6879,140.9272,490.3156,140.0039,491.0023,138.9122,491.3456,137.909,491.8695,137.911,491.8922,139.87,491.6841,141.8383,491.5792,143.8021,491.4246,145.7743,491.3648,147.719,490.9956" style="stroke: #A9A9A9; stroke-width: 2.0;"/><text fill="#A9A9A9" font-family="courier" font-size="20" lengthAdjust="spacingAndGlyphs" textLength="96" x="82" y="439.1074">ejemplar</text><!--
@startuml
skinparam backgroundColor #222222

skinparam handwritten true

skinparam shadowing false
skinparam padding 1
skinparam arrow {
    Thickness 2
    Color #DarkGrey
    FontSize 20
    FontName courier
    FontStyle normal
    FontColor #DarkGrey
}

skinparam package {
    BorderThickness 3
    BorderColor<<A>> #ForestGreen
    BorderColor #Crimson
    BorderColor<<C>> #DodgerBlue
    BackgroundColor #222222
    FontSize 20
    FontName courier
    FontStyle bold
    FontColor<<A>> #ForestGreen
    FontColor #Crimson
    FontColor<<C>> #DodgerBlue
}

skinparam class {
    BorderThickness 3
    BorderColor<<A>> #ForestGreen
    BorderColor #Crimson
    BorderColor<<C>> #DodgerBlue
    BackgroundColor #222222
    FontSize 20
    FontName courier
    FontStyle bold
    FontColor<<A>> #ForestGreen
    FontColor #Crimson
    FontColor<<C>> #DodgerBlue
}

hide circle
hide stereotype

class Iterativo
Iterativo - -> Iterativo : next

package "iteración" as iteracion1{
}
package "iteración" as iteracion2{
}
package "iteración" as iteracion3{
}

iteracion1 - -> iteracion2
iteracion2 - -> iteracion3
iteracion1 ..> Iterativo : ejemplar
iteracion2 ..> Iterativo : ejemplar
iteracion3 ..> Iterativo : ejemplar
@enduml

PlantUML version 1.2019.05(Sat Apr 20 18:45:36 CEST 2019)
(GPL source distribution)
Java Runtime: Java(TM) SE Runtime Environment
JVM: Java HotSpot(TM) 64-Bit Server VM
Java Version: 11.0.8+10-LTS
Operating System: Windows 10
OS Version: 10.0
Default Encoding: windows-1252
Language: es
Country: ES
--></g></svg>