<?xml version="1.0" encoding="UTF-8" standalone="no"?><svg xmlns="http://www.w3.org/2000/svg" xmlns:xlink="http://www.w3.org/1999/xlink" contentScriptType="application/ecmascript" contentStyleType="text/css" height="239px" preserveAspectRatio="none" style="width:372px;height:239px;background:#222222;" version="1.1" viewBox="0 0 372 239" width="372px" zoomAndPan="magnify"><defs/><g><!--class Persona--><polygon fill="#222222" points="134,8.469,134,8.6792,144.2222,8.0547,154.4444,8.6623,164.6667,8.8687,174.8889,7.7556,185.1111,8.3913,195.3333,8.0425,205.5556,8.0855,215.7778,8.4008,226,8.469,225.3086,8.469,226.5536,19.2917,225.3697,30.1143,225.8022,40.937,226.4319,51.7596,226,62.5823,226,62.4965,215.7778,62.6505,205.5556,62.5503,195.3333,62.7608,185.1111,62.8214,174.8889,63.168,164.6667,63.2533,154.4444,63.2615,144.2222,62.8369,134,62.5823,134.4636,62.5823,134.7022,51.7596,133.2788,40.937,134.6785,30.1143,133.7035,19.2917,134,8.469" style="stroke: #DC143C; stroke-width: 3.0;"/><text fill="#DC143C" font-family="courier" font-size="20" font-style="italic" font-weight="bold" lengthAdjust="spacingAndGlyphs" textLength="84" x="138" y="34.5764">Persona</text><path d="M135,46.5823 L135,46.8625 L145,46.0299 L155,46.84 L165,47.1152 L175,45.6311 L185,46.4787 L195,46.0136 L205,46.0709 L215,46.4914 L225,46.5823 " fill="#222222" style="stroke: #DC143C; stroke-width: 3.0;"/><path d="M135,54.5823 L135,54.8625 L145,54.0299 L155,54.84 L165,55.1152 L175,53.6311 L185,54.4787 L195,54.0136 L205,54.0709 L215,54.4914 L225,54.5823 " fill="#222222" style="stroke: #DC143C; stroke-width: 3.0;"/><!--class Mujer--><polygon fill="#222222" points="6,123.469,6,123.6792,15.7143,123.0547,25.4286,123.6623,35.1429,123.8687,44.8571,122.7556,54.5714,123.3913,64.2857,123.0425,74,123.469,73.6165,123.469,73.9318,134.2917,73.3086,145.1143,74.5536,155.937,73.3697,166.7596,74,177.5823,74,177.3845,64.2857,178.0142,54.5714,177.4965,44.8571,177.6505,35.1429,177.5503,25.4286,177.7608,15.7143,177.8214,6,177.5823,6.5857,177.5823,6.6711,166.7596,6.6793,155.937,6.2546,145.1143,6.4636,134.2917,6,123.469" style="stroke: #DC143C; stroke-width: 3.0;"/><text fill="#DC143C" font-family="courier" font-size="20" font-weight="bold" lengthAdjust="spacingAndGlyphs" textLength="60" x="10" y="149.5764">Mujer</text><path d="M7,161.5823 L7,161.8625 L16.4286,161.0299 L25.8571,161.84 L35.2857,162.1152 L44.7143,160.6311 L54.1429,161.4787 L63.5714,161.0136 L73,161.5823 " fill="#222222" style="stroke: #DC143C; stroke-width: 3.0;"/><path d="M7,169.5823 L7,169.8625 L16.4286,169.0299 L25.8571,169.84 L35.2857,170.1152 L44.7143,168.6311 L54.1429,169.4787 L63.5714,169.0136 L73,169.5823 " fill="#222222" style="stroke: #DC143C; stroke-width: 3.0;"/><!--class Hombre--><polygon fill="#222222" points="281,123.469,281,123.6792,291,123.0547,301,123.6623,311,123.8687,321,122.7556,331,123.3913,341,123.0425,351,123.0855,361,123.469,360.9318,123.469,360.3086,134.2917,361.5536,145.1143,360.3697,155.937,360.8022,166.7596,361,177.5823,361,178.0142,351,177.4965,341,177.6505,331,177.5503,321,177.7608,311,177.8214,301,178.168,291,178.2533,281,177.5823,281.6793,177.5823,281.2546,166.7596,281.4636,155.937,281.7022,145.1143,280.2788,134.2917,281,123.469" style="stroke: #DC143C; stroke-width: 3.0;"/><text fill="#DC143C" font-family="courier" font-size="20" font-weight="bold" lengthAdjust="spacingAndGlyphs" textLength="72" x="285" y="149.5764">Hombre</text><path d="M282,161.5823 L282,161.8625 L291.75,161.0299 L301.5,161.84 L311.25,162.1152 L321,160.6311 L330.75,161.4787 L340.5,161.0136 L350.25,161.0709 L360,161.5823 " fill="#222222" style="stroke: #DC143C; stroke-width: 3.0;"/><path d="M282,169.5823 L282,169.8625 L291.75,169.0299 L301.5,169.84 L311.25,170.1152 L321,168.6311 L330.75,169.4787 L340.5,169.0136 L350.25,169.0709 L360,169.5823 " fill="#222222" style="stroke: #DC143C; stroke-width: 3.0;"/><!--link Persona to Hombre--><path d="M228.567,75.392 L228.7423,75.6107 L235.71,80.9623 L243.7052,87.5959 L251.3658,93.812 L257.9262,98.6553 L265.9447,105.318 L273.1424,110.9565 L280.6667,117.0026 L288.475,123.403 " fill="none" style="stroke: #A9A9A9; stroke-width: 2.0;"/><polygon fill="none" points="223.932,80.647,223.9914,80.6841,221.5691,76.9798,219.495,73.4931,217.3076,69.9356,214.7471,66.145,212.703,62.677,212.6944,62.6526,216.6525,63.9521,220.6541,65.3748,224.6858,66.8832,228.6136,68.0965,232.687,69.723,232.831,69.8384,230.7721,71.7764,229.1336,74.0514,227.5464,76.3674,225.6607,78.4443,223.932,80.647" style="stroke: #A9A9A9; stroke-width: 2.0;"/><!--link Persona to Mujer--><path d="M131.777,75.392 L131.953,75.6101 L123.9947,80.9635 L117.0683,87.5953 L109.8058,93.8108 L101.4384,98.6573 L94.5354,105.3182 L86.808,110.9577 L79.4087,117.0037 L72.2946,123.403 " fill="none" style="stroke: #A9A9A9; stroke-width: 2.0;"/><polygon fill="none" points="127.57,69.792,127.5935,69.858,131.5154,68.2389,135.5752,67.0067,139.5901,65.6485,143.4574,63.876,147.529,62.677,147.507,62.6633,145.175,66.2039,142.954,69.8132,140.8101,73.4704,138.4003,76.9628,136.363,80.686,136.5066,80.8019,134.4409,78.3752,132.7945,76.287,131.1992,74.24,129.3064,71.9528,127.57,69.792" style="stroke: #A9A9A9; stroke-width: 2.0;"/><!--link Mujer to Hombre--><path d="M87.1951,150.469 L87.1951,150.7492 L97.208,149.9166 L107.221,150.7267 L117.2339,151.0019 L127.2469,149.5178 L137.2598,150.3654 L147.2727,149.9003 L157.2857,149.9577 L167.2986,150.3781 L177.3116,149.5472 L187.3245,151.2072 L197.3374,149.6286 L207.3504,150.2053 L217.3633,151.0449 L227.3762,150.3546 L237.3892,150.56 L247.4021,150.4264 L257.4151,150.707 L267.428,150.469 " fill="none" style="stroke: #A9A9A9; stroke-width: 2.0;"/><polygon fill="#A9A9A9" points="280.723,150.469,280.7515,150.533,278.8669,149.5428,277.1492,148.9279,275.3771,148.1907,273.4264,147.0517,271.723,146.469,271.7047,146.4507,272.4225,147.1685,273.2326,147.9786,274.1069,148.8529,274.76,149.506,275.723,150.469,275.8535,150.5995,274.7744,151.1204,274.0764,152.0224,273.4248,152.9708,272.5028,153.6488,271.723,154.469,271.7322,154.4898,273.5187,153.6593,275.3472,152.9234,277.1554,152.1418,279.0023,151.4474,280.723,150.469" style="stroke: #A9A9A9; stroke-width: 2.0;"/><path d="M275.723,150.469 L275.723,150.5624 L274.123,150.2848 L272.523,150.5549 L270.923,150.6466 L269.323,150.1519 L267.723,150.4689 " fill="#A9A9A9" style="stroke: #A9A9A9; stroke-width: 2.0;"/><polygon fill="#A9A9A9" points="74.1752,150.469,74.2141,150.5273,75.2986,151.1541,76.6109,152.1226,77.8491,152.9799,78.8433,153.4711,80.1752,154.469,80.1608,154.4474,81.2963,153.5507,82.5043,152.7626,83.7626,152.0501,84.8474,151.0772,86.1752,150.469,86.2776,150.6226,84.8587,149.4942,83.7386,148.8141,82.6551,148.1888,81.3593,147.2452,80.1752,146.469,80.1878,146.4879,78.9693,147.2601,77.8082,148.1185,76.6194,148.9353,75.4835,149.8314,74.1752,150.469" style="stroke: #A9A9A9; stroke-width: 2.0;"/><text fill="#A9A9A9" font-family="courier" font-size="20" lengthAdjust="spacingAndGlyphs" textLength="168" x="93.5" y="139.5764">parteMasculina</text><!--link Hombre to Mujer--><path d="M268.547,180.0859 L268.5744,180.1752 L266.2837,180.5864 L264.1534,181.5213 L261.9708,182.2856 L259.6166,182.4892 L257.5,183.469 L257.4957,183.4347 L255.2506,183.5608 L253.0272,183.8596 L250.8189,184.2785 L248.5586,184.2835 L246.3712,184.8683 L246.3846,185.114 L242.6076,184.7935 L238.8699,185.1904 L235.1369,185.6748 L231.3761,185.65 L227.6299,185.893 L227.6307,185.9234 L222.8665,186.0064 L218.106,186.2274 L213.3438,186.3819 L208.5849,186.6633 L203.815,186.5307 L203.8177,186.8289 L198.5478,186.8801 L193.2762,186.7389 L188.0072,186.8794 L182.7382,187.033 L177.4655,186.7685 L177.4634,186.448 L172.1985,187.0351 L166.9266,186.5669 L161.66,186.901 L156.3879,186.4088 L151.1203,186.5939 L151.1195,186.5634 L146.3682,186.8034 L141.599,186.3323 L136.8403,186.2808 L132.0826,186.2646 L127.3184,185.9942 L127.3286,186.1789 L123.5743,185.785 L119.8375,185.7067 L116.0724,185.1177 L112.3496,185.2904 L108.5986,184.9568 L108.631,185.1983 L106.4051,184.855 L104.1954,184.6317 L101.9109,183.8513 L99.6812,183.4793 L97.5,183.469 L97.4102,183.2078 L95.1731,182.6473 L92.8348,181.7926 L90.6432,181.3646 L88.2011,180.2079 L85.9079,179.4844 " fill="none" style="stroke: #A9A9A9; stroke-width: 2.0;"/><polygon fill="#A9A9A9" points="74.0034,173.7982,74.0567,173.8437,75.1778,175.2062,76.6112,176.8354,77.943,178.3778,78.9403,179.6345,80.4005,181.2867,80.3761,181.278,79.8894,180.1726,79.5258,179.1107,79.2479,178.079,78.6749,176.9431,78.5151,175.9532,78.5766,176.1272,79.5118,175.3781,80.6265,175.137,81.7632,174.9578,82.7723,174.418,83.8486,174.0679,83.8492,174.0906,81.8792,174.0033,79.9121,174.0195,77.9436,173.9858,75.9778,174.0473,74.0034,173.7982" style="stroke: #A9A9A9; stroke-width: 2.0;"/><path d="M78.5151,175.9532 L78.5554,176.0375 L79.8795,176.4767 L81.4397,177.41 L82.923,178.1824 L84.1535,178.4256 L85.7339,179.4013 " fill="#A9A9A9" style="stroke: #A9A9A9; stroke-width: 2.0;"/><polygon fill="#A9A9A9" points="280.803,174.9661,280.8164,175.0349,279.361,174.5548,277.9841,174.4779,276.5816,174.2697,275.0951,173.6298,273.7249,173.5875,273.7033,173.5731,272.8076,174.7094,272.0205,175.918,271.309,177.1769,270.3371,178.2625,269.73,179.5908,269.7653,179.772,271.1054,179.6604,272.5486,180.0776,274.0044,180.5594,275.387,180.6657,276.8081,180.9695,276.827,180.9821,277.5982,179.7629,278.4556,178.6011,279.2714,177.4116,280.1665,176.2749,280.803,174.9661" style="stroke: #A9A9A9; stroke-width: 2.0;"/><text fill="#A9A9A9" font-family="courier" font-size="20" lengthAdjust="spacingAndGlyphs" textLength="156" x="99.5" y="175.5764">parteFemenina</text><!--link Hombre to Mujer--><path d="M301.354,181.6467 L301.4261,181.7061 L299.4189,183.7053 L297.8344,186.0528 L296.1122,188.2869 L293.9375,190.148 L292.3892,192.5254 L292.3646,192.5011 L290.179,194.4904 L288.1171,196.6021 L286.1413,198.7989 L283.8689,200.7024 L282.0119,203.0167 L282.1648,203.2095 L279.5038,204.6497 L277.2893,206.6526 L275.1294,208.7242 L272.6524,210.3964 L270.3421,212.2786 L270.3569,212.3051 L267.7668,213.7043 L265.244,215.224 L262.6888,216.6856 L260.1956,218.258 L257.5,219.469 L257.5632,219.7605 L255.3862,220.236 L253.1684,220.5236 L251.0103,221.0863 L248.855,221.662 L246.6112,221.8289 L246.5819,221.5097 L242.8956,222.472 L239.113,222.3832 L235.4036,223.0934 L231.6188,222.9808 L227.8958,223.5426 L227.8942,223.5122 L225.618,223.9938 L223.3041,223.765 L221.0124,223.9554 L218.7226,224.181 L216.4193,224.1527 L216.4259,224.3376 L213.9285,224.2396 L211.4423,224.4576 L208.938,224.1644 L206.4608,224.6337 L203.9656,224.596 L203.9707,224.8396 L201.3488,224.8485 L198.7294,224.9783 L196.0983,224.5462 L193.4758,224.526 L190.861,224.8707 L190.8589,224.5945 L188.175,224.8654 L185.4888,224.8251 L182.806,225.2362 L180.1173,224.8766 L177.4321,224.9751 L177.4314,224.8227 L174.7473,225.063 L172.0599,224.6517 L169.3749,224.7038 L166.6922,225.2094 L164.0054,224.9075 L164.0089,225.1011 L161.3917,225.1855 L158.7635,224.6679 L156.1491,224.9044 L153.5317,224.9766 L150.9072,224.666 L150.9001,224.4561 L148.4171,224.54 L145.9318,224.5551 L143.451,224.7053 L140.9526,224.3305 L138.464,224.2489 L138.4747,224.4542 L136.159,223.8843 L133.8638,223.7106 L131.5986,224.1158 L129.2782,223.4552 L127.0024,223.6546 L127.0232,223.8798 L123.2763,223.4005 L119.5222,222.8449 L115.7841,222.4614 L112.0828,222.4755 L108.3294,221.9269 L108.3,221.7972 L106.2218,221.6918 L103.9433,220.7042 L101.8925,220.7198 L99.7135,220.1705 L97.5,219.469 L97.556,219.5624 L95.1175,218.053 L92.8794,216.878 L90.4603,215.4009 L87.9656,213.7975 L85.5336,212.299 L85.6112,212.3895 L83.3536,210.4174 L81.4564,208.8654 L79.1516,206.8383 L77.0144,205.0066 L74.8221,203.1107 L74.6216,202.9294 L72.8095,200.9117 L71.2389,199.1125 L69.3266,197.0041 L67.2916,194.785 L65.4267,192.7195 L65.3118,192.6341 L63.745,190.5057 L61.9748,188.226 L60.7637,186.3622 L59.276,184.2926 L57.4086,181.9407 " fill="none" style="stroke: #A9A9A9; stroke-width: 2.0;"/><polygon fill="#A9A9A9" points="54.5081,177.5591,54.5772,177.5707,54.6984,179.4787,55.2247,181.4548,55.619,183.4087,55.5796,185.2898,56.1407,187.2717,56.1153,187.2665,56.2268,186.1347,56.4664,185.0289,56.7948,183.9412,56.8168,182.7911,57.2681,181.7283,57.3049,181.9092,58.3349,181.7479,59.4723,182.1147,60.6228,182.5459,61.6971,182.6023,62.8114,182.8558,62.8237,182.8749,61.145,181.7874,59.5221,180.7873,57.8723,179.745,56.2738,178.783,54.5081,177.5591" style="stroke: #A9A9A9; stroke-width: 2.0;"/><polygon fill="#A9A9A9" points="304.335,177.6278,304.3695,177.6888,302.5521,178.4766,300.9368,179.6219,299.2557,180.6508,297.3583,181.2968,295.7603,182.4728,295.7565,182.4472,296.8586,182.1663,297.9798,182.0146,299.1144,181.9528,300.2031,181.5814,301.356,181.6435,301.5386,181.6705,301.3141,182.7318,301.6226,183.8721,301.9961,185.022,301.9912,186.1159,302.1854,187.2392,302.2076,187.2442,302.6049,185.3146,303.1033,183.4076,303.5529,181.4898,304.0956,179.5927,304.335,177.6278" style="stroke: #A9A9A9; stroke-width: 2.0;"/><text fill="#A9A9A9" font-family="courier" font-size="20" lengthAdjust="spacingAndGlyphs" textLength="72" x="141.5" y="211.5764">pareja</text><!--link Hombre to Mujer--><path d="M276.421,122.015 L276.452,122.1031 L273.7757,120.9321 L271.2811,120.2776 L268.7274,119.455 L265.979,118.0791 L263.5,117.469 L263.4953,117.4348 L261.0863,116.9545 L258.7008,116.6467 L256.3318,116.4589 L253.9063,115.8578 L251.5599,115.8355 L251.5773,116.081 L249.6964,115.4252 L247.8663,115.486 L246.0425,115.6343 L244.1825,115.2738 L242.3415,115.1809 L242.343,115.2112 L240.1553,115.058 L237.9744,115.0426 L235.7902,114.9608 L233.6123,115.0058 L231.4139,114.6371 L231.4226,114.9352 L226.2997,114.7894 L221.1713,114.4512 L216.0511,114.3945 L210.9312,114.351 L205.7992,113.8896 L205.796,113.5691 L200.133,114.1349 L194.4595,113.6455 L188.7939,113.9583 L183.1202,113.4449 L177.4531,113.6087 L177.4529,113.5783 L171.7874,113.9787 L166.1169,113.6678 L160.4493,113.7766 L154.782,113.9206 L149.1129,113.8105 L149.1169,113.9954 L146.4504,113.8661 L143.7907,114.0528 L141.1199,113.7282 L138.4656,114.1662 L135.8004,114.0972 L135.8086,114.3407 L133.3501,114.3773 L130.8957,114.5348 L128.4224,114.1306 L125.963,114.1382 L123.5158,114.5105 L123.5021,114.2347 L121.3316,114.5928 L119.1457,114.64 L116.9822,115.1381 L114.7804,114.8665 L112.6013,115.0524 L112.5902,114.9003 L110.7683,115.288 L108.8988,115.0258 L107.0632,115.2257 L105.2606,115.8779 L103.3991,115.7248 L103.4272,115.9164 L101.0666,116.3966 L98.6187,116.281 L96.2802,116.9117 L93.9179,117.3798 L91.5,117.469 L91.4227,117.2738 L88.9139,118.4468 L86.3798,119.5559 L83.8955,120.7905 L81.2178,121.5369 L78.6481,122.556 " fill="none" style="stroke: #A9A9A9; stroke-width: 2.0; stroke-dasharray: 7.0,7.0;"/><polygon fill="#A9A9A9" points="74.1598,124.89,74.1641,124.9599,76.1174,124.6314,78.0959,124.7128,80.0662,124.6607,82.0095,124.1696,83.9901,124.2862,83.9823,124.2615,82.8685,123.81,81.7939,123.483,80.7467,123.2426,79.6053,122.7039,78.5958,122.583,78.7718,122.6386,78.7361,121.4409,79.2142,120.4054,79.755,119.3897,79.931,118.2589,80.2989,117.1886,80.3167,117.2028,79.0628,118.7223,77.8898,120.3063,76.6778,121.8591,75.5403,123.4714,74.1598,124.89" style="stroke: #A9A9A9; stroke-width: 2.0;"/><polygon fill="#A9A9A9" points="280.992,124.091,281.0444,124.1375,279.5805,122.5267,278.4237,121.1886,277.1669,119.7617,275.5812,118.0427,274.4508,116.7281,274.4265,116.719,274.7154,117.7373,275.1265,118.8015,275.6226,119.8976,275.8258,120.8837,276.4393,122.0239,276.5042,122.1967,275.3063,122.2249,274.2978,122.7576,273.3124,123.3518,272.1926,123.588,271.1435,124.0124,271.1436,124.0352,273.1131,124.0175,275.0833,124.1034,277.0532,124.1393,279.0238,124.2705,280.992,124.091" style="stroke: #A9A9A9; stroke-width: 2.0;"/><text fill="#A9A9A9" font-family="courier" font-size="20" lengthAdjust="spacingAndGlyphs" textLength="96" x="129.5" y="103.5764">refresco</text><!--
@startuml
skinparam backgroundColor #222222

skinparam handwritten true

skinparam shadowing false
skinparam padding 1
skinparam arrow {
    Thickness 2
    Color #DarkGrey
    FontSize 20
    FontName courier
    FontStyle normal
    FontColor #DarkGrey
}

skinparam class {
    BorderThickness 3
    BorderColor<<A>> #ForestGreen
    BorderColor #Crimson
    BorderColor<<C>> #DodgerBlue
    BackgroundColor #222222
    FontSize 20
    FontName courier
    FontStyle bold
    FontColor<<A>> #ForestGreen
    FontColor #Crimson
    FontColor<<C>> #DodgerBlue
}

hide circle
hide stereotype

abstract class Persona
class Mujer
class Hombre

Persona <|- - Hombre
Persona <|- - Mujer

Mujer *- -> Hombre : parteMasculina
Hombre *- -> Mujer : parteFemenina
Hombre <-right-> Mujer : pareja
Hombre <.right.> Mujer : refresco

@enduml

PlantUML version 1.2019.05(Sat Apr 20 18:45:36 CEST 2019)
(GPL source distribution)
Java Runtime: Java(TM) SE Runtime Environment
JVM: Java HotSpot(TM) 64-Bit Server VM
Java Version: 11.0.8+10-LTS
Operating System: Windows 10
OS Version: 10.0
Default Encoding: windows-1252
Language: es
Country: ES
--></g></svg>