<?xml version="1.0" encoding="UTF-8" standalone="no"?><svg xmlns="http://www.w3.org/2000/svg" xmlns:xlink="http://www.w3.org/1999/xlink" contentScriptType="application/ecmascript" contentStyleType="text/css" height="921px" preserveAspectRatio="none" style="width:292px;height:921px;background:#222222;" version="1.1" viewBox="0 0 292 921" width="292px" zoomAndPan="magnify"><defs/><g><polygon fill="#A9A9A9" points="97.0552,22.4324,95.5894,24.4353,93.8556,27.3688,91.376,29.3458,88.7703,30.4269,86.6927,30.5207,84.0224,29.1687,81.5029,28.2854,79.5905,26.492,78.5873,24.4389,77.9924,22.8041,77.4096,20.6688,76.4636,18.8313,77.1906,17.0373,77.8275,15.072,80.2175,13.5177,81.8991,11.501,83.9804,10.8313,86.4547,10.2546,89.6276,10.5972,91.3655,11.4168,93.3861,11.7884,95.8429,14.3054,96.6993,16.9627,97.0714,18.7758,96.65,21.7635" style="stroke: none; stroke-width: 1.0;"/><polygon fill="#222222" points="58.5,94,58.5,94.2102,68,93.5857,77.5,94.1933,87,94.3997,96.5,93.2866,106,93.9223,115.5,94,115.4456,93.8687,117.2188,94.6141,119.0268,95.4435,120.7151,95.9838,122.6417,97.0994,124.3388,97.6612,124.1447,97.5808,125.0102,99.4037,125.9363,101.2518,126.5091,102.9535,127.2888,104.7409,128,106.5,127.9894,106.5,128.0595,111.1227,128.0797,115.7453,128.1952,120.368,128.2237,124.9906,128,129.6133,128.2092,129.6999,127.3462,131.4135,126.6783,133.208,126.0196,135.0062,124.849,136.5924,124.3388,138.4521,124.4254,138.6611,122.5332,139.093,120.8714,140.081,118.9724,140.4964,117.259,141.36,115.5,142.1133,115.5,142.8549,106,142.0645,96.5,142.2186,87,142.4519,77.5,142.5295,68,142.1094,58.5,142.1133,58.5366,142.2017,56.6592,141.2048,55.0007,140.7364,53.2666,140.0854,51.4856,139.3212,49.6612,138.4521,49.85,138.5303,48.7802,136.6227,47.9959,134.8334,47.2731,133.0695,46.7141,131.3735,46,129.6133,45.9345,129.6133,46.2271,124.9906,45.9418,120.368,45.8856,115.7453,46.0761,111.1227,46,106.5,45.7946,106.4149,46.5724,104.666,47.6643,103.0472,48.3309,101.2523,49.1551,99.5226,49.6612,97.6612,49.6201,97.5621,51.4696,97.0272,53.272,96.3785,54.9042,95.319,56.72,94.7027,58.5,94" style="stroke: #A80036; stroke-width: 1.5;"/><text fill="#A9A9A9" font-family="courier" font-size="20" lengthAdjust="spacingAndGlyphs" textLength="60" x="57" y="125.1074">put X</text><polygon fill="#222222" points="58.5,169.6133,58.5,169.8235,68,169.199,77.5,169.8066,87,170.013,96.5,168.8999,106,169.5356,115.5,169.6133,115.4456,169.4819,117.2188,170.2274,119.0268,171.0568,120.7151,171.5971,122.6417,172.7127,124.3388,173.2744,124.1447,173.194,125.0102,175.017,125.9363,176.8651,126.5091,178.5668,127.2888,180.3542,128,182.1133,127.9894,182.1133,128.0595,186.7359,128.0797,191.3586,128.1952,195.9813,128.2237,200.6039,128,205.2266,128.2092,205.3132,127.3462,207.0268,126.6783,208.8212,126.0196,210.6194,124.849,212.2056,124.3388,214.0654,124.4254,214.2744,122.5332,214.7063,120.8714,215.6943,118.9724,216.1096,117.259,216.9732,115.5,217.7266,115.5,218.4682,106,217.6778,96.5,217.8319,87,218.0652,77.5,218.1428,68,217.7227,58.5,217.7266,58.5366,217.815,56.6592,216.818,55.0007,216.3497,53.2666,215.6987,51.4856,214.9345,49.6612,214.0654,49.85,214.1436,48.7802,212.236,47.9959,210.4467,47.2731,208.6828,46.7141,206.9868,46,205.2266,45.9345,205.2266,46.2271,200.6039,45.9418,195.9813,45.8856,191.3586,46.0761,186.7359,46,182.1133,45.7946,182.0282,46.5724,180.2793,47.6643,178.6605,48.3309,176.8656,49.1551,175.1359,49.6612,173.2744,49.6201,173.1753,51.4696,172.6405,53.272,171.9918,54.9042,170.9323,56.72,170.316,58.5,169.6133" style="stroke: #A80036; stroke-width: 1.5;"/><text fill="#A9A9A9" font-family="courier" font-size="20" lengthAdjust="spacingAndGlyphs" textLength="60" x="57" y="200.7207">put O</text><polygon fill="#222222" points="87,50,87.0495,50.0495,89.3023,52.3023,91.8456,54.8456,94.2942,57.2942,96.4319,59.4319,99,62,98.9817,61.9817,96.4995,64.2995,94.1096,66.7096,91.7839,69.1839,89.237,71.437,87,74,87.1305,74.1305,84.4514,71.4514,82.1534,69.1534,79.9018,66.9018,77.3798,64.3798,75,62,75.0161,62.0161,77.3925,59.5925,79.8421,57.2421,82.2564,54.8564,84.738,52.538,87,50" style="stroke: #A80036; stroke-width: 1.5;"/><polygon fill="#222222" points="87,247.3457,87.0495,247.3952,89.3023,249.648,91.8456,252.1913,94.2942,254.6399,96.4319,256.7776,99,259.3457,98.9817,259.3274,96.4995,261.6452,94.1096,264.0553,91.7839,266.5296,89.237,268.7827,87,271.3457,87.1305,271.4762,84.4514,268.7971,82.1534,266.4991,79.9018,264.2475,77.3798,261.7255,75,259.3457,75.0161,259.3618,77.3925,256.9382,79.8421,254.5878,82.2564,252.2021,84.738,249.8838,87,247.3457" style="stroke: #A80036; stroke-width: 1.5;"/><text fill="#A9A9A9" font-family="courier" font-size="20" lengthAdjust="spacingAndGlyphs" textLength="168" x="100" y="252.3398">X on board &lt; 2</text><polygon fill="#222222" points="58.5,291.3457,58.5,291.5559,68,290.9314,77.5,291.539,87,291.7454,96.5,290.6323,106,291.268,115.5,291.3457,115.4456,291.2144,117.2188,291.9598,119.0268,292.7892,120.7151,293.3295,122.6417,294.4451,124.3388,295.0069,124.1447,294.9265,125.0102,296.7494,125.9363,298.5975,126.5091,300.2992,127.2888,302.0866,128,303.8457,127.9894,303.8457,128.0595,308.4684,128.0797,313.091,128.1952,317.7137,128.2237,322.3363,128,326.959,128.2092,327.0456,127.3462,328.7592,126.6783,330.5537,126.0196,332.3519,124.849,333.9381,124.3388,335.7978,124.4254,336.0068,122.5332,336.4387,120.8714,337.4267,118.9724,337.8421,117.259,338.7057,115.5,339.459,115.5,340.2006,106,339.4102,96.5,339.5643,87,339.7976,77.5,339.8752,68,339.4551,58.5,339.459,58.5366,339.5474,56.6592,338.5505,55.0007,338.0821,53.2666,337.4311,51.4856,336.667,49.6612,335.7978,49.85,335.876,48.7802,333.9684,47.9959,332.1791,47.2731,330.4153,46.7141,328.7192,46,326.959,45.9345,326.959,46.2271,322.3363,45.9418,317.7137,45.8856,313.091,46.0761,308.4684,46,303.8457,45.7946,303.7606,46.5724,302.0117,47.6643,300.393,48.3309,298.598,49.1551,296.8683,49.6612,295.0069,49.6201,294.9078,51.4696,294.3729,53.272,293.7242,54.9042,292.6647,56.72,292.0484,58.5,291.3457" style="stroke: #A80036; stroke-width: 1.5;"/><text fill="#A9A9A9" font-family="courier" font-size="20" lengthAdjust="spacingAndGlyphs" textLength="60" x="57" y="322.4531">put X</text><polygon fill="#222222" points="58.5,425.1348,58.5,425.3449,68,424.7204,77.5,425.3281,87,425.5344,96.5,424.4214,106,425.0571,115.5,425.1348,115.4456,425.0034,117.2188,425.7489,119.0268,426.5782,120.7151,427.1186,122.6417,428.2342,124.3388,428.7959,124.1447,428.7155,125.0102,430.5385,125.9363,432.3866,126.5091,434.0883,127.2888,435.8757,128,437.6348,127.9894,437.6348,128.0595,442.2574,128.0797,446.8801,128.1952,451.5027,128.2237,456.1254,128,460.748,128.2092,460.8347,127.3462,462.5483,126.6783,464.3427,126.0196,466.1409,124.849,467.7271,124.3388,469.5869,124.4254,469.7958,122.5332,470.2278,120.8714,471.2157,118.9724,471.6311,117.259,472.4947,115.5,473.248,115.5,473.9897,106,473.1993,96.5,473.3533,87,473.5867,77.5,473.6643,68,473.2441,58.5,473.248,58.5366,473.3365,56.6592,472.3395,55.0007,471.8712,53.2666,471.2202,51.4856,470.456,49.6612,469.5869,49.85,469.6651,48.7802,467.7575,47.9959,465.9682,47.2731,464.2043,46.7141,462.5083,46,460.748,45.9345,460.748,46.2271,456.1254,45.9418,451.5027,45.8856,446.8801,46.0761,442.2574,46,437.6348,45.7946,437.5497,46.5724,435.8008,47.6643,434.182,48.3309,432.387,49.1551,430.6574,49.6612,428.7959,49.6201,428.6968,51.4696,428.162,53.272,427.5133,54.9042,426.4537,56.72,425.8375,58.5,425.1348" style="stroke: #A80036; stroke-width: 1.5;"/><text fill="#A9A9A9" font-family="courier" font-size="20" lengthAdjust="spacingAndGlyphs" textLength="60" x="57" y="456.2422">put O</text><polygon fill="#222222" points="52.5,571.5313,52.5,571.7414,62.3571,571.1169,72.2143,571.7245,82.0714,571.9309,91.9286,570.8179,101.7857,571.4535,111.6429,571.1048,121.5,571.5313,121.4511,571.4131,123.2591,572.2425,124.9473,572.7828,126.8739,573.8984,128.4907,574.2661,130.3388,575.1924,130.2779,575.1672,131.2041,577.0153,131.7769,578.717,132.5565,580.5044,133.2579,582.2594,134,584.0313,134.0595,584.0313,134.0797,588.6539,134.1952,593.2766,134.2237,597.8992,134.2264,602.5219,134,607.1445,134.0784,607.177,133.4105,608.9714,132.7518,610.7696,131.5812,612.3558,131.28,614.3022,130.3388,615.9834,130.301,615.8921,128.6392,616.88,126.7402,617.2954,125.0268,618.159,123.3624,619.1407,121.5,619.6445,121.5,619.5958,111.6429,619.7498,101.7857,619.9832,91.9286,620.0608,82.0714,619.6406,72.2143,619.9317,62.3571,619.0721,52.5,619.6445,52.5363,619.7321,50.8022,619.0811,49.0212,618.317,47.2749,617.6366,45.3673,616.5668,43.6612,615.9834,43.4603,615.9002,42.7376,614.1363,42.1786,612.4403,41.4039,610.655,40.9421,608.9992,40,607.1445,39.9418,607.1445,39.8856,602.5219,40.0761,597.8992,39.7777,593.2766,39.827,588.6539,40,584.0313,40.1999,584.114,40.8664,582.3191,41.6907,580.5894,42.0976,578.6869,43.0272,577.0009,43.6612,575.1924,43.7365,575.3742,45.3687,574.3147,47.1845,573.6984,48.9805,573.0345,50.8154,572.4642,52.5,571.5313" style="stroke: #A80036; stroke-width: 1.5;"/><text fill="#A9A9A9" font-family="courier" font-size="20" lengthAdjust="spacingAndGlyphs" textLength="72" x="51" y="602.6387">move X</text><polygon fill="#222222" points="52.5,710.7012,52.5,710.9114,62.3571,710.2869,72.2143,710.8945,82.0714,711.1009,91.9286,709.9878,101.7857,710.6235,111.6429,710.2747,121.5,710.7012,121.4511,710.5831,123.2591,711.4124,124.9473,711.9527,126.8739,713.0684,128.4907,713.436,130.3388,714.3623,130.2779,714.3371,131.2041,716.1852,131.7769,717.8869,132.5565,719.6743,133.2579,721.4293,134,723.2012,134.0595,723.2012,134.0797,727.8238,134.1952,732.4465,134.2237,737.0691,134.2264,741.6918,134,746.3145,134.0784,746.3469,133.4105,748.1414,132.7518,749.9396,131.5812,751.5258,131.28,753.4721,130.3388,755.1533,130.301,755.062,128.6392,756.0499,126.7402,756.4653,125.0268,757.3289,123.3624,758.3106,121.5,758.8145,121.5,758.7657,111.6429,758.9198,101.7857,759.1531,91.9286,759.2307,82.0714,758.8105,72.2143,759.1017,62.3571,758.242,52.5,758.8145,52.5363,758.902,50.8022,758.251,49.0212,757.4869,47.2749,756.8065,45.3673,755.7368,43.6612,755.1533,43.4603,755.0701,42.7376,753.3063,42.1786,751.6102,41.4039,749.8249,40.9421,748.1691,40,746.3145,39.9418,746.3145,39.8856,741.6918,40.0761,737.0691,39.7777,732.4465,39.827,727.8238,40,723.2012,40.1999,723.284,40.8664,721.489,41.6907,719.7593,42.0976,717.8568,43.0272,716.1708,43.6612,714.3623,43.7365,714.5442,45.3687,713.4846,47.1845,712.8684,48.9805,712.2044,50.8154,711.6341,52.5,710.7012" style="stroke: #A80036; stroke-width: 1.5;"/><text fill="#A9A9A9" font-family="courier" font-size="20" lengthAdjust="spacingAndGlyphs" textLength="72" x="51" y="741.8086">move O</text><polygon fill="#222222" points="75,654.6445,75,654.7146,79.8,654.5064,84.6,654.709,89.4,654.7778,94.2,654.4067,99,654.6445,98.9817,654.6262,101.2995,656.944,103.7096,659.3541,106.1839,661.8285,108.437,664.0816,111,666.6445,111.1305,666.775,108.4514,668.896,106.1534,671.3979,103.9018,673.9463,101.3798,676.2243,99,678.6445,99,678.6673,94.2,678.6339,89.4,678.704,84.6,678.7242,79.8,678.8398,75,678.6445,75.1582,678.8027,72.7601,676.4046,70.26,673.9045,67.9093,671.5538,65.5655,669.21,63,666.6445,62.83,666.4745,65.5599,664.4045,67.7301,661.7746,70.3258,659.5704,72.4833,656.9279,75,654.6445" style="stroke: #A80036; stroke-width: 1.5;"/><text fill="#A9A9A9" font-family="courier" font-size="20" lengthAdjust="spacingAndGlyphs" textLength="24" x="92" y="699.752">no</text><text fill="#A9A9A9" font-family="courier" font-size="20" lengthAdjust="spacingAndGlyphs" textLength="144" x="112" y="659.6387">!isTicTacToe</text><polygon fill="#222222" points="87,778.8145,87.0495,778.864,89.3023,781.1168,91.8456,783.66,94.2942,786.1087,96.4319,788.2463,99,790.8145,98.9817,790.7961,96.4995,793.1139,94.1096,795.5241,91.7839,797.9984,89.237,800.2515,87,802.8145,87.1305,802.9449,84.4514,800.2659,82.1534,797.9678,79.9018,795.7163,77.3798,793.1942,75,790.8145,75.0161,790.8305,77.3925,788.4069,79.8421,786.0565,82.2564,783.6708,84.738,781.3525,87,778.8145" style="stroke: #A80036; stroke-width: 1.5;"/><polygon fill="#222222" points="75,500.8105,75,500.8806,79.8,500.6724,84.6,500.875,89.4,500.9438,94.2,500.5727,99,500.8105,98.9803,500.7937,101.2919,503.5296,103.7028,506.3502,106.1827,509.2298,108.4247,511.9062,111,514.8672,111.1404,514.987,108.4402,517.5421,106.1499,520.447,103.9095,523.3947,101.3783,526.0939,99,528.9238,99,528.9466,94.2,528.9132,89.4,528.9833,84.6,529.0035,79.8,529.1191,75,528.9238,75.1701,529.0691,72.7722,526.2595,70.2646,523.3563,67.9175,520.5902,65.578,517.8305,63,514.8672,62.8172,514.7111,65.572,512.2027,67.7248,509.1804,70.3353,506.5487,72.4745,503.5147,75,500.8105" style="stroke: #A80036; stroke-width: 1.5;"/><text fill="#A9A9A9" font-family="courier" font-size="20" lengthAdjust="spacingAndGlyphs" textLength="144" x="92" y="550.0313">!isTicTacToe</text><text fill="#A9A9A9" font-family="courier" font-size="20" lengthAdjust="spacingAndGlyphs" textLength="0" x="93" y="521.918"/><text fill="#A9A9A9" font-family="courier" font-size="20" lengthAdjust="spacingAndGlyphs" textLength="24" x="38" y="507.8613">no</text><polygon fill="#222222" points="75,369.0781,75,369.1482,79.8,368.94,84.6,369.1426,89.4,369.2114,94.2,368.8403,99,369.0781,98.9817,369.0598,101.2995,371.3776,103.7096,373.7877,106.1839,376.2621,108.437,378.5152,111,381.0781,111.1305,381.2086,108.4514,383.3296,106.1534,385.8315,103.9018,388.3799,101.3798,390.6579,99,393.0781,99,393.1009,94.2,393.0675,89.4,393.1376,84.6,393.1578,79.8,393.2734,75,393.0781,75.1582,393.2363,72.7601,390.8382,70.26,388.3381,67.9093,385.9874,65.5655,383.6436,63,381.0781,62.83,380.9081,65.5599,378.8381,67.7301,376.2082,70.3258,374.0039,72.4833,371.3614,75,369.0781" style="stroke: #A80036; stroke-width: 1.5;"/><text fill="#A9A9A9" font-family="courier" font-size="20" lengthAdjust="spacingAndGlyphs" textLength="24" x="92" y="414.1855">no</text><text fill="#A9A9A9" font-family="courier" font-size="20" lengthAdjust="spacingAndGlyphs" textLength="144" x="112" y="374.0723">isTicTacToe?</text><polygon fill="#222222" points="87,844.8145,87.0495,844.864,89.3023,847.1168,91.8456,849.66,94.2942,852.1087,96.4319,854.2463,99,856.8145,98.9817,856.7961,96.4995,859.1139,94.1096,861.5241,91.7839,863.9984,89.237,866.2515,87,868.8145,87.1305,868.9449,84.4514,866.2659,82.1534,863.9678,79.9018,861.7163,77.3798,859.1942,75,856.8145,75.0161,856.8305,77.3925,854.4069,79.8421,852.0565,82.2564,849.6708,84.738,847.3525,87,844.8145" style="stroke: #A80036; stroke-width: 1.5;"/><polygon fill="#FFFFFF" points="98.0608,902.4901,96.4484,904.6932,94.5412,907.9202,91.8136,910.0948,88.9474,911.2841,86.662,911.3873,83.7247,909.9,80.9532,908.9284,78.8495,906.9556,77.7461,904.6972,77.0917,902.899,76.4506,900.5502,75.41,898.5289,76.2096,896.5555,76.9102,894.3937,79.5393,892.6839,81.389,890.4656,83.6784,889.7289,86.4001,889.0945,89.8904,889.4714,91.8021,890.373,94.0247,890.7816,96.7272,893.5504,97.6693,896.4734,98.0786,898.4678,97.615,901.7543" style="stroke: #000000; stroke-width: 1.0;"/><polygon fill="#000000" points="93.0331,901.2739,92.1536,902.4756,91.1134,904.2357,89.6256,905.4219,88.0622,906.0706,86.8156,906.1269,85.2135,905.3157,83.7017,904.7857,82.5543,903.7096,81.9524,902.4778,81.5955,901.4969,81.2458,900.2157,80.6782,899.1133,81.1143,898.0368,81.4965,896.8577,82.9305,895.9251,83.9394,894.7151,85.1882,894.3132,86.6728,893.9672,88.5766,894.1728,89.6193,894.6646,90.8317,894.8875,92.3057,896.3977,92.8196,897.9921,93.0429,899.0799,92.79,900.8726" style="stroke: #7F7F7F; stroke-width: 1.0;"/><path d="M87,142.1133 L87.0934,142.1133 L86.8159,147.6133 L87.0859,153.1133 L87.1776,158.6133 L86.6829,164.1133 L87,169.6133 " fill="#A9A9A9" style="stroke: #A9A9A9; stroke-width: 1.5;"/><polygon fill="#A9A9A9" points="83,159.6133,83.065,159.6393,83.6718,161.562,84.6598,163.6372,85.5237,165.6628,85.9792,167.525,87,169.6133,86.9759,169.6037,87.668,167.5605,88.4813,165.5658,89.3789,163.6048,89.986,161.5277,91,159.6133,91.1305,159.7438,90.0514,160.2647,89.3534,161.1667,88.7018,162.1151,87.7798,162.7931,87,163.6133,87.0161,163.6294,86.1925,162.8058,85.4421,162.0554,84.6564,161.2696,83.938,160.5513,83,159.6133" style="stroke: #A9A9A9; stroke-width: 1.0;"/><path d="M87,74 L87.0934,74 L86.8159,78 L87.0859,82 L87.1776,86 L86.6829,90 L87,94 " fill="#A9A9A9" style="stroke: #A9A9A9; stroke-width: 1.5;"/><polygon fill="#A9A9A9" points="83,84,83.065,84.026,83.6718,85.9487,84.6598,88.0239,85.5237,90.0495,85.9792,91.9117,87,94,86.9759,93.9904,87.668,91.9472,88.4813,89.9525,89.3789,87.9916,89.986,85.9144,91,84,91.1305,84.1305,90.0514,84.6514,89.3534,85.5534,88.7018,86.5018,87.7798,87.1798,87,88,87.0161,88.0161,86.1925,87.1925,85.4421,86.4421,84.6564,85.6564,83.938,84.938,83,84" style="stroke: #A9A9A9; stroke-width: 1.0;"/><path d="M99,259.3457 L99,259.4391 L107.2,259.1616 L115.4,259.4316 L123.6,259.5233 L131.8,259.0286 L140,259.3457 " fill="#A9A9A9" style="stroke: #A9A9A9; stroke-width: 1.5;"/><polygon fill="#A9A9A9" points="136,162.1133,136.065,162.1393,136.6718,160.062,137.6598,158.1372,138.5237,156.1628,138.9792,154.025,140,152.1133,139.9759,152.1037,140.668,154.0605,141.4813,156.0658,142.3789,158.1048,142.986,160.0277,144,162.1133,144.1305,162.2438,143.0514,161.1647,142.3534,160.4667,141.7018,159.8151,140.7798,158.8931,140,158.1133,140.0161,158.1294,139.1925,158.9058,138.4421,159.7554,137.6564,160.5696,136.938,161.4513,136,162.1133" style="stroke: #A9A9A9; stroke-width: 1.5;"/><path d="M140,62 L140.2802,62 L139.4476,71.8673 L140.2577,81.7346 L140.5329,91.6019 L139.0488,101.4691 L139.8964,111.3364 L139.4313,121.2037 L139.4887,131.071 L139.9091,140.9383 L139.0782,150.8056 L140.7382,160.6729 L139.1596,170.5401 L139.7363,180.4074 L140.5759,190.2747 L139.8856,200.142 L140.091,210.0093 L139.9574,219.8766 L140.238,229.7438 L140.3188,239.6111 L140.7809,249.4784 L140,259.3457 " fill="#A9A9A9" style="stroke: #A9A9A9; stroke-width: 1.5;"/><path d="M140,62 L140,62.0934 L131.8,61.8159 L123.6,62.0859 L115.4,62.1776 L107.2,61.6829 L99,62 " fill="#A9A9A9" style="stroke: #A9A9A9; stroke-width: 1.5;"/><polygon fill="#A9A9A9" points="109,58,109.026,58.065,106.9487,58.6718,105.0239,59.6598,103.0495,60.5237,100.9117,60.9792,99,62,98.9904,61.9759,100.9472,62.668,102.9525,63.4813,104.9916,64.3789,106.9144,64.986,109,66,109.1305,66.1305,108.0514,65.0514,107.3534,64.3534,106.7018,63.7018,105.7798,62.7798,105,62,105.0161,62.0161,105.7925,61.1925,106.6421,60.4421,107.4564,59.6564,108.338,58.938,109,58" style="stroke: #A9A9A9; stroke-width: 1.0;"/><path d="M87,217.7266 L87.0934,217.7266 L86.8159,223.6504 L87.0859,229.5742 L87.1776,235.498 L86.6829,241.4219 L87,247.3457 " fill="#A9A9A9" style="stroke: #A9A9A9; stroke-width: 1.5;"/><polygon fill="#A9A9A9" points="83,237.3457,83.065,237.3717,83.6718,239.2944,84.6598,241.3696,85.5237,243.3952,85.9792,245.2574,87,247.3457,86.9759,247.3361,87.668,245.2929,88.4813,243.2982,89.3789,241.3373,89.986,239.2601,91,237.3457,91.1305,237.4762,90.0514,237.9971,89.3534,238.8991,88.7018,239.8475,87.7798,240.5255,87,241.3457,87.0161,241.3618,86.1925,240.5382,85.4421,239.7878,84.6564,239.0021,83.938,238.2838,83,237.3457" style="stroke: #A9A9A9; stroke-width: 1.0;"/><path d="M87,30 L87.0934,30 L86.8159,34 L87.0859,38 L87.1776,42 L86.6829,46 L87,50 " fill="#A9A9A9" style="stroke: #A9A9A9; stroke-width: 1.5;"/><polygon fill="#A9A9A9" points="83,40,83.065,40.026,83.6718,41.9487,84.6598,44.0239,85.5237,46.0495,85.9792,47.9117,87,50,86.9759,49.9904,87.668,47.9472,88.4813,45.9525,89.3789,43.9916,89.986,41.9144,91,40,91.1305,40.1305,90.0514,40.6514,89.3534,41.5534,88.7018,42.5018,87.7798,43.1798,87,44,87.0161,44.0161,86.1925,43.1925,85.4421,42.4421,84.6564,41.6564,83.938,40.938,83,40" style="stroke: #A9A9A9; stroke-width: 1.0;"/><path d="M87,271.3457 L87.0934,271.3457 L86.8159,275.3457 L87.0859,279.3457 L87.1776,283.3457 L86.6829,287.3457 L87,291.3457 " fill="#A9A9A9" style="stroke: #A9A9A9; stroke-width: 1.5;"/><polygon fill="#A9A9A9" points="83,281.3457,83.065,281.3717,83.6718,283.2944,84.6598,285.3696,85.5237,287.3952,85.9792,289.2574,87,291.3457,86.9759,291.3361,87.668,289.2929,88.4813,287.2982,89.3789,285.3373,89.986,283.2601,91,281.3457,91.1305,281.4762,90.0514,281.9971,89.3534,282.8991,88.7018,283.8475,87.7798,284.5255,87,285.3457,87.0161,285.3618,86.1925,284.5382,85.4421,283.7878,84.6564,283.0021,83.938,282.2838,83,281.3457" style="stroke: #A9A9A9; stroke-width: 1.0;"/><path d="M87,678.6445 L87.0934,678.6445 L86.8159,685.0559 L87.0859,691.4672 L87.1776,697.8785 L86.6829,704.2898 L87,710.7012 " fill="#A9A9A9" style="stroke: #A9A9A9; stroke-width: 1.5;"/><polygon fill="#A9A9A9" points="83,700.7012,83.065,700.7272,83.6718,702.6499,84.6598,704.7251,85.5237,706.7507,85.9792,708.6129,87,710.7012,86.9759,710.6916,87.668,708.6484,88.4813,706.6537,89.3789,704.6927,89.986,702.6156,91,700.7012,91.1305,700.8317,90.0514,701.3526,89.3534,702.2546,88.7018,703.203,87.7798,703.881,87,704.7012,87.0161,704.7173,86.1925,703.8936,85.4421,703.1433,84.6564,702.3575,83.938,701.6392,83,700.7012" style="stroke: #A9A9A9; stroke-width: 1.0;"/><path d="M111,666.6445 L111,666.7379 L117.6,666.4604 L124.2,666.7304 L130.8,666.8222 L137.4,666.3275 L144,666.6445 " fill="#A9A9A9" style="stroke: #A9A9A9; stroke-width: 1.5;"/><polygon fill="#A9A9A9" points="140,725.7578,140.065,725.7838,140.6718,727.7065,141.6598,729.7817,142.5237,731.8073,142.9792,733.6695,144,735.7578,143.9759,735.7482,144.668,733.705,145.4813,731.7103,146.3789,729.7494,146.986,727.6722,148,725.7578,148.1305,725.8883,147.0514,726.4093,146.3534,727.3112,145.7018,728.2596,144.7798,728.9376,144,729.7578,144.0161,729.7739,143.1925,728.9503,142.4421,728.1999,141.6564,727.4142,140.938,726.6959,140,725.7578" style="stroke: #A9A9A9; stroke-width: 1.5;"/><path d="M144,666.6445 L144.2802,666.6445 L143.4476,676.992 L144.2577,687.3395 L144.5329,697.687 L143.0488,708.0345 L143.8964,718.382 L143.4313,728.7295 L143.4887,739.077 L143.9091,749.4245 L143.0782,759.772 L144.7382,770.1195 L143.1596,780.467 L144,790.8145 " fill="#A9A9A9" style="stroke: #A9A9A9; stroke-width: 1.5;"/><path d="M144,790.8145 L144,791.0947 L135,790.262 L126,791.0722 L117,791.3474 L108,789.8633 L99,790.8145 " fill="#A9A9A9" style="stroke: #A9A9A9; stroke-width: 1.5;"/><polygon fill="#A9A9A9" points="109,786.8145,109.026,786.8795,106.9487,787.4862,105.0239,788.4743,103.0495,789.3382,100.9117,789.7937,99,790.8145,98.9904,790.7904,100.9472,791.4825,102.9525,792.2958,104.9916,793.1934,106.9144,793.8005,109,794.8145,109.1305,794.9449,108.0514,793.8659,107.3534,793.1678,106.7018,792.5163,105.7798,791.5942,105,790.8145,105.0161,790.8305,105.7925,790.0069,106.6421,789.2565,107.4564,788.4708,108.338,787.7525,109,786.8145" style="stroke: #A9A9A9; stroke-width: 1.0;"/><path d="M87,758.8145 L87.0934,758.8145 L86.8159,762.8145 L87.0859,766.8145 L87.1776,770.8145 L86.6829,774.8145 L87,778.8145 " fill="#A9A9A9" style="stroke: #A9A9A9; stroke-width: 1.5;"/><polygon fill="#A9A9A9" points="83,768.8145,83.065,768.8405,83.6718,770.7632,84.6598,772.8384,85.5237,774.8639,85.9792,776.7261,87,778.8145,86.9759,778.8048,87.668,776.7617,88.4813,774.767,89.3789,772.806,89.986,770.7289,91,768.8145,91.1305,768.9449,90.0514,769.4659,89.3534,770.3678,88.7018,771.3163,87.7798,771.9942,87,772.8145,87.0161,772.8305,86.1925,772.0069,85.4421,771.2565,84.6564,770.4708,83.938,769.7525,83,768.8145" style="stroke: #A9A9A9; stroke-width: 1.0;"/><path d="M87,619.6445 L87.0934,619.6445 L86.8159,626.6445 L87.0859,633.6445 L87.1776,640.6445 L86.6829,647.6445 L87,654.6445 " fill="#A9A9A9" style="stroke: #A9A9A9; stroke-width: 1.5;"/><polygon fill="#A9A9A9" points="83,644.6445,83.065,644.6706,83.6718,646.5932,84.6598,648.6685,85.5237,650.694,85.9792,652.5562,87,654.6445,86.9759,654.6349,87.668,652.5917,88.4813,650.5971,89.3789,648.6361,89.986,646.5589,91,644.6445,91.1305,644.775,90.0514,645.296,89.3534,646.1979,88.7018,647.1463,87.7798,647.8243,87,648.6445,87.0161,648.6606,86.1925,647.837,85.4421,647.0866,84.6564,646.3009,83.938,645.5826,83,644.6445" style="stroke: #A9A9A9; stroke-width: 1.0;"/><path d="M87,528.9238 L87.0934,528.9238 L86.8159,537.4453 L87.0859,545.9668 L87.1776,554.4883 L86.6829,563.0098 L87,571.5313 " fill="#A9A9A9" style="stroke: #A9A9A9; stroke-width: 1.5;"/><polygon fill="#A9A9A9" points="83,561.5313,83.065,561.5573,83.6718,563.48,84.6598,565.5552,85.5237,567.5807,85.9792,569.4429,87,571.5313,86.9759,571.5216,87.668,569.4785,88.4813,567.4838,89.3789,565.5228,89.986,563.4457,91,561.5313,91.1305,561.6617,90.0514,562.1827,89.3534,563.0846,88.7018,564.0331,87.7798,564.711,87,565.5313,87.0161,565.5473,86.1925,564.7237,85.4421,563.9733,84.6564,563.1876,83.938,562.4693,83,561.5313" style="stroke: #A9A9A9; stroke-width: 1.0;"/><path d="M87,802.8145 L87.0934,802.8145 L86.8159,804.8145 L87.0859,806.8145 L87.1776,808.8145 L86.6829,810.8145 L87,812.8145 " fill="#A9A9A9" style="stroke: #A9A9A9; stroke-width: 1.5;"/><path d="M87,812.8145 L87,813.0947 L97.125,812.262 L107.25,813.0722 L117.375,813.3474 L127.5,811.8633 L137.625,812.7108 L147.75,812.2458 L157.875,812.3031 L168,812.8145 " fill="#A9A9A9" style="stroke: #A9A9A9; stroke-width: 1.5;"/><polygon fill="#A9A9A9" points="164,677.1162,164.065,677.1422,164.6718,675.0649,165.6598,673.1401,166.5237,671.1657,166.9792,669.0279,168,667.1162,167.9759,667.1066,168.668,669.0634,169.4813,671.0687,170.3789,673.1078,170.986,675.0306,172,677.1162,172.1305,677.2467,171.0514,676.1677,170.3534,675.4696,169.7018,674.818,168.7798,673.896,168,673.1162,168.0161,673.1323,167.1925,673.9087,166.4421,674.7583,165.6564,675.5726,164.938,676.4543,164,677.1162" style="stroke: #A9A9A9; stroke-width: 1.5;"/><path d="M168,514.8672 L168.2802,514.8672 L167.4476,524.7988 L168.2577,534.7303 L168.5329,544.6619 L167.0488,554.5935 L167.8964,564.5251 L167.4313,574.4566 L167.4887,584.3882 L167.9091,594.3198 L167.0782,604.2514 L168.7382,614.1829 L167.1596,624.1145 L167.7363,634.0461 L168.5759,643.9777 L167.8856,653.9092 L168.091,663.8408 L167.9574,673.7724 L168.238,683.704 L168.3188,693.6355 L168.7809,703.5671 L168.8947,713.4987 L168.9057,723.4303 L168.3395,733.3618 L168.6181,743.2934 L168.9363,753.225 L167.0384,763.1566 L168.9047,773.0882 L167.6047,783.0197 L168.7117,792.9513 L167.34,802.8829 L168,812.8145 " fill="#A9A9A9" style="stroke: #A9A9A9; stroke-width: 1.5;"/><path d="M168,514.8672 L168,515.1474 L158.5,514.3148 L149,515.1249 L139.5,515.4001 L130,513.916 L120.5,514.7636 L111,514.8672 " fill="#A9A9A9" style="stroke: #A9A9A9; stroke-width: 1.5;"/><polygon fill="#A9A9A9" points="121,510.8672,121.026,510.9322,118.9487,511.539,117.0239,512.527,115.0495,513.3909,112.9117,513.8464,111,514.8672,110.9904,514.8431,112.9472,515.5352,114.9525,516.3485,116.9916,517.2461,118.9144,517.8532,121,518.8672,121.1305,518.9977,120.0514,517.9186,119.3534,517.2206,118.7018,516.569,117.7798,515.647,117,514.8672,117.0161,514.8833,117.7925,514.0597,118.6421,513.3093,119.4564,512.5236,120.338,511.8052,121,510.8672" style="stroke: #A9A9A9; stroke-width: 1.0;"/><path d="M63,514.8672 L63,514.9606 L55.2,514.683 L47.4,514.9531 L39.6,515.0448 L31.8,514.5501 L24,514.8672 " fill="#A9A9A9" style="stroke: #A9A9A9; stroke-width: 1.5;"/><polygon fill="#A9A9A9" points="20,663.1162,20.065,663.1422,20.6718,665.0649,21.6598,667.1401,22.5237,669.1657,22.9792,671.0279,24,673.1162,23.9759,673.1066,24.668,671.0634,25.4813,669.0687,26.3789,667.1078,26.986,665.0306,28,663.1162,28.1305,663.2467,27.0514,663.7677,26.3534,664.6696,25.7018,665.618,24.7798,666.296,24,667.1162,24.0161,667.1323,23.1925,666.3087,22.4421,665.5583,21.6564,664.7726,20.938,664.0543,20,663.1162" style="stroke: #A9A9A9; stroke-width: 1.5;"/><path d="M24,514.8672 L24.2802,514.8672 L23.4476,524.8655 L24.2577,534.8638 L24.5329,544.8621 L23.0488,554.8604 L23.8964,564.8587 L23.4313,574.857 L23.4887,584.8553 L23.9091,594.8536 L23.0782,604.8519 L24.7382,614.8502 L23.1596,624.8485 L23.7363,634.8468 L24.5759,644.8451 L23.8856,654.8434 L24.091,664.8417 L23.9574,674.84 L24.238,684.8383 L24.3188,694.8366 L24.7809,704.8349 L24.8947,714.8332 L24.9057,724.8315 L24.3395,734.8298 L24.6181,744.8281 L24.9363,754.8264 L23.0384,764.8247 L24.9047,774.823 L23.6047,784.8213 L24.7117,794.8196 L23.34,804.8179 L23.9087,814.8162 L24,824.8145 " fill="#A9A9A9" style="stroke: #A9A9A9; stroke-width: 1.5;"/><path d="M24,824.8145 L24,825.0947 L34.5,824.262 L45,825.0722 L55.5,825.3474 L66,823.8633 L76.5,824.7108 L87,824.8145 " fill="#A9A9A9" style="stroke: #A9A9A9; stroke-width: 1.5;"/><path d="M87,824.8145 L87.0934,824.8145 L86.8159,828.8145 L87.0859,832.8145 L87.1776,836.8145 L86.6829,840.8145 L87,844.8145 " fill="#A9A9A9" style="stroke: #A9A9A9; stroke-width: 1.5;"/><polygon fill="#A9A9A9" points="83,834.8145,83.065,834.8405,83.6718,836.7632,84.6598,838.8384,85.5237,840.8639,85.9792,842.7261,87,844.8145,86.9759,844.8048,87.668,842.7617,88.4813,840.767,89.3789,838.806,89.986,836.7289,91,834.8145,91.1305,834.9449,90.0514,835.4659,89.3534,836.3678,88.7018,837.3163,87.7798,837.9942,87,838.8145,87.0161,838.8305,86.1925,838.0069,85.4421,837.2565,84.6564,836.4708,83.938,835.7525,83,834.8145" style="stroke: #A9A9A9; stroke-width: 1.0;"/><path d="M87,473.248 L87.0934,473.248 L86.8159,478.7605 L87.0859,484.273 L87.1776,489.7855 L86.6829,495.298 L87,500.8105 " fill="#A9A9A9" style="stroke: #A9A9A9; stroke-width: 1.5;"/><polygon fill="#A9A9A9" points="83,490.8105,83.065,490.8366,83.6718,492.7593,84.6598,494.8345,85.5237,496.86,85.9792,498.7222,87,500.8105,86.9759,500.8009,87.668,498.7577,88.4813,496.7631,89.3789,494.8021,89.986,492.725,91,490.8105,91.1305,490.941,90.0514,491.462,89.3534,492.3639,88.7018,493.3124,87.7798,493.9903,87,494.8105,87.0161,494.8266,86.1925,494.003,85.4421,493.2526,84.6564,492.4669,83.938,491.7486,83,490.8105" style="stroke: #A9A9A9; stroke-width: 1.0;"/><path d="M87,393.0781 L87.0934,393.0781 L86.8159,399.4895 L87.0859,405.9008 L87.1776,412.3121 L86.6829,418.7234 L87,425.1348 " fill="#A9A9A9" style="stroke: #A9A9A9; stroke-width: 1.5;"/><polygon fill="#A9A9A9" points="83,415.1348,83.065,415.1608,83.6718,417.0835,84.6598,419.1587,85.5237,421.1842,85.9792,423.0464,87,425.1348,86.9759,425.1251,87.668,423.082,88.4813,421.0873,89.3789,419.1263,89.986,417.0492,91,415.1348,91.1305,415.2653,90.0514,415.7862,89.3534,416.6882,88.7018,417.6366,87.7798,418.3145,87,419.1348,87.0161,419.1508,86.1925,418.3272,85.4421,417.5768,84.6564,416.7911,83.938,416.0728,83,415.1348" style="stroke: #A9A9A9; stroke-width: 1.0;"/><path d="M111,381.0781 L111,381.3584 L120.5714,380.5257 L130.1429,381.3358 L139.7143,381.611 L149.2857,380.1269 L158.8571,380.9745 L168.4286,380.5095 L178,381.0781 " fill="#A9A9A9" style="stroke: #A9A9A9; stroke-width: 1.5;"/><polygon fill="#A9A9A9" points="174,615.5313,174.065,615.5573,174.6718,617.48,175.6598,619.5552,176.5237,621.5807,176.9792,623.4429,178,625.5313,177.9759,625.5216,178.668,623.4785,179.4813,621.4838,180.3789,619.5228,180.986,617.4457,182,615.5313,182.1305,615.6617,181.0514,616.1827,180.3534,617.0846,179.7018,618.0331,178.7798,618.711,178,619.5313,178.0161,619.5473,177.1925,618.7237,176.4421,617.9733,175.6564,617.1876,174.938,616.4693,174,615.5313" style="stroke: #A9A9A9; stroke-width: 1.5;"/><path d="M178,381.0781 L178.2802,381.0781 L177.4476,390.9893 L178.2577,400.9005 L178.5329,410.8116 L177.0488,420.7228 L177.8964,430.634 L177.4313,440.5452 L177.4887,450.4563 L177.9091,460.3675 L177.0782,470.2787 L178.7382,480.1899 L177.1596,490.101 L177.7363,500.0122 L178.5759,509.9234 L177.8856,519.8346 L178.091,529.7457 L177.9574,539.6569 L178.238,549.5681 L178.3188,559.4792 L178.7809,569.3904 L178.8947,579.3016 L178.9057,589.2128 L178.3395,599.1239 L178.6181,609.0351 L178.9363,618.9463 L177.0384,628.8575 L178.9047,638.7686 L177.6047,648.6798 L178.7117,658.591 L177.34,668.5022 L177.9087,678.4133 L178.9888,688.3245 L177.935,698.2357 L178.1404,708.1469 L178.4515,718.058 L178.555,727.9692 L177.9948,737.8804 L178.383,747.7915 L177.2368,757.7027 L178.3792,767.6139 L178.7309,777.5251 L178.5927,787.4362 L178.8174,797.3474 L177.3559,807.2586 L177.1304,817.1698 L177.1715,827.0809 L177.9215,836.9921 L177.738,846.9033 L178,856.8145 " fill="#A9A9A9" style="stroke: #A9A9A9; stroke-width: 1.5;"/><path d="M178,856.8145 L178,857.0947 L168.125,856.262 L158.25,857.0722 L148.375,857.3474 L138.5,855.8633 L128.625,856.7108 L118.75,856.2458 L108.875,856.3031 L99,856.8145 " fill="#A9A9A9" style="stroke: #A9A9A9; stroke-width: 1.5;"/><polygon fill="#A9A9A9" points="109,852.8145,109.026,852.8795,106.9487,853.4862,105.0239,854.4743,103.0495,855.3382,100.9117,855.7937,99,856.8145,98.9904,856.7904,100.9472,857.4825,102.9525,858.2958,104.9916,859.1934,106.9144,859.8005,109,860.8145,109.1305,860.9449,108.0514,859.8659,107.3534,859.1678,106.7018,858.5163,105.7798,857.5942,105,856.8145,105.0161,856.8305,105.7925,856.0069,106.6421,855.2565,107.4564,854.4708,108.338,853.7525,109,852.8145" style="stroke: #A9A9A9; stroke-width: 1.0;"/><path d="M87,339.459 L87.0934,339.459 L86.8159,345.3828 L87.0859,351.3066 L87.1776,357.2305 L86.6829,363.1543 L87,369.0781 " fill="#A9A9A9" style="stroke: #A9A9A9; stroke-width: 1.5;"/><polygon fill="#A9A9A9" points="83,359.0781,83.065,359.1041,83.6718,361.0268,84.6598,363.1021,85.5237,365.1276,85.9792,366.9898,87,369.0781,86.9759,369.0685,87.668,367.0253,88.4813,365.0306,89.3789,363.0697,89.986,360.9925,91,359.0781,91.1305,359.2086,90.0514,359.7296,89.3534,360.6315,88.7018,361.5799,87.7798,362.2579,87,363.0781,87.0161,363.0942,86.1925,362.2706,85.4421,361.5202,84.6564,360.7345,83.938,360.0162,83,359.0781" style="stroke: #A9A9A9; stroke-width: 1.0;"/><path d="M87,868.8145 L87.0934,868.8145 L86.8159,872.8145 L87.0859,876.8145 L87.1776,880.8145 L86.6829,884.8145 L87,888.8145 " fill="#A9A9A9" style="stroke: #A9A9A9; stroke-width: 1.5;"/><polygon fill="#A9A9A9" points="83,878.8145,83.065,878.8405,83.6718,880.7632,84.6598,882.8384,85.5237,884.8639,85.9792,886.7261,87,888.8145,86.9759,888.8048,87.668,886.7617,88.4813,884.767,89.3789,882.806,89.986,880.7289,91,878.8145,91.1305,878.9449,90.0514,879.4659,89.3534,880.3678,88.7018,881.3163,87.7798,881.9942,87,882.8145,87.0161,882.8305,86.1925,882.0069,85.4421,881.2565,84.6564,880.4708,83.938,879.7525,83,878.8145" style="stroke: #A9A9A9; stroke-width: 1.0;"/><!--
@startuml
skinparam backgroundColor #222222
skinparam handwritten true
skinparam shadowing false
skinparam padding 1
skinparam arrow {
    Thickness 2
    Color #DarkGrey
    FontSize 20
    FontName courier
    FontStyle normal
    FontColor #DarkGrey
}
skinparam activity {
  StartColor #DarkGrey
  backgroundColor #222222
    Thickness 2
    Color #DarkGrey
    FontSize 20
    FontName courier
    FontStyle normal
    FontColor #DarkGrey
    DiamondBackgroundColor #222222
}
skinparam default {
  backgroundColor #222222
    BorderColor #DarkGrey
    FontSize 20
    FontName courier
    FontStyle normal
    FontColor #DarkGrey
}
start
repeat
  :put X;
  :put O;
repeat while () is (X on board < 2 )
:put X;
if () then (isTicTacToe?)
else (no)
  :put O;
  while () is (!isTicTacToe)
    :move X;
    if () then (!isTicTacToe)
    else (no)
    :move O;
    endif
  endwhile (no)
endif
stop
@enduml

PlantUML version 1.2019.05(Sat Apr 20 18:45:36 CEST 2019)
(GPL source distribution)
Java Runtime: Java(TM) SE Runtime Environment
JVM: Java HotSpot(TM) 64-Bit Server VM
Java Version: 11.0.14+8-LTS-263
Operating System: Windows 10
OS Version: 10.0
Default Encoding: windows-1252
Language: es
Country: ES
--></g></svg>