<?xml version="1.0" encoding="UTF-8" standalone="no"?><svg xmlns="http://www.w3.org/2000/svg" xmlns:xlink="http://www.w3.org/1999/xlink" contentScriptType="application/ecmascript" contentStyleType="text/css" height="239px" preserveAspectRatio="none" style="width:524px;height:239px;background:#222222;" version="1.1" viewBox="0 0 524 239" width="524px" zoomAndPan="magnify"><defs/><g><polygon fill="#222222" points="6,8,6,8.2102,15.8462,7.5857,25.6923,8.1933,35.5385,8.3997,45.3846,7.2866,55.2308,7.9223,65.0769,7.5735,74.9231,7.6165,84.7692,7.9318,94.6154,7.3086,104.4615,8.5536,114.3077,7.3697,124.1538,7.8022,134,8,134.141,8.0289,135.372,14.8169,136.8223,21.6499,138.1896,28.4658,139.6583,35.3026,141,42.1133,141,42.193,142.4,42.3085,143.8,42.337,145.2,42.3397,146.6,42.1982,148,42.1133,148.1545,42.1133,148.2341,50.5359,147.7596,58.9586,148.2262,67.3813,147.9012,75.8039,148,84.2266,148,84.7604,137.8571,83.7315,127.7143,84.1581,117.5714,84.9682,107.4286,84.1778,97.2857,84.3319,87.1429,84.5652,77,84.6428,66.8571,84.2227,56.7143,84.5138,46.5714,83.6541,36.4286,84.5109,26.2857,84.7748,16.1429,84.6711,6,84.2266,6.613,84.2266,5.5169,74.6982,5.3478,65.1699,5.3786,55.6416,5.9411,46.1133,5.8035,36.585,6.6814,27.0566,5.8253,17.5283,6,8" style="stroke: #DC143C; stroke-width: 3.0;"/><path d="M6,42.1133 L6,42.3935 L15.6429,41.5609 L25.2857,42.371 L34.9286,42.6462 L44.5714,41.1621 L54.2143,42.0097 L63.8571,41.5446 L73.5,41.6019 L83.1429,42.0224 L92.7857,41.1915 L102.4286,42.8515 L112.0714,41.2729 L121.7143,41.8496 L131.3571,42.6892 L141,42.1133 " fill="#222222" style="stroke: #DC143C; stroke-width: 3.0;"/><text fill="#DC143C" font-family="courier" font-size="20" font-weight="bold" lengthAdjust="spacingAndGlyphs" textLength="120" x="11" y="31.1074">recurrente</text><polygon fill="#222222" points="183,8,183,8.2102,192.8462,7.5857,202.6923,8.1933,212.5385,8.3997,222.3846,7.2866,232.2308,7.9223,242.0769,7.5735,251.9231,7.6165,261.7692,7.9318,271.6154,7.3086,281.4615,8.5536,291.3077,7.3697,301.1538,7.8022,311,8,311.141,8.0289,312.372,14.8169,313.8223,21.6499,315.1896,28.4658,316.6583,35.3026,318,42.1133,318,42.193,319.4,42.3085,320.8,42.337,322.2,42.3397,323.6,42.1982,325,42.1133,325.1545,42.1133,325.2341,50.5359,324.7596,58.9586,325.2262,67.3813,324.9012,75.8039,325,84.2266,325,84.7604,314.8571,83.7315,304.7143,84.1581,294.5714,84.9682,284.4286,84.1778,274.2857,84.3319,264.1429,84.5652,254,84.6428,243.8571,84.2227,233.7143,84.5138,223.5714,83.6541,213.4286,84.5109,203.2857,84.7748,193.1429,84.6711,183,84.2266,183.613,84.2266,182.5169,74.6982,182.3478,65.1699,182.3786,55.6416,182.9411,46.1133,182.8035,36.585,183.6814,27.0566,182.8253,17.5283,183,8" style="stroke: #DC143C; stroke-width: 3.0;"/><path d="M183,42.1133 L183,42.3935 L192.6429,41.5609 L202.2857,42.371 L211.9286,42.6462 L221.5714,41.1621 L231.2143,42.0097 L240.8571,41.5446 L250.5,41.6019 L260.1429,42.0224 L269.7857,41.1915 L279.4286,42.8515 L289.0714,41.2729 L298.7143,41.8496 L308.3571,42.6892 L318,42.1133 " fill="#222222" style="stroke: #DC143C; stroke-width: 3.0;"/><text fill="#DC143C" font-family="courier" font-size="20" font-weight="bold" lengthAdjust="spacingAndGlyphs" textLength="120" x="188" y="31.1074">recurrente</text><polygon fill="#222222" points="360,8,360,8.2102,369.8462,7.5857,379.6923,8.1933,389.5385,8.3997,399.3846,7.2866,409.2308,7.9223,419.0769,7.5735,428.9231,7.6165,438.7692,7.9318,448.6154,7.3086,458.4615,8.5536,468.3077,7.3697,478.1538,7.8022,488,8,488.141,8.0289,489.372,14.8169,490.8223,21.6499,492.1896,28.4658,493.6583,35.3026,495,42.1133,495,42.193,496.4,42.3085,497.8,42.337,499.2,42.3397,500.6,42.1982,502,42.1133,502.1545,42.1133,502.2341,50.5359,501.7596,58.9586,502.2262,67.3813,501.9012,75.8039,502,84.2266,502,84.7604,491.8571,83.7315,481.7143,84.1581,471.5714,84.9682,461.4286,84.1778,451.2857,84.3319,441.1429,84.5652,431,84.6428,420.8571,84.2227,410.7143,84.5138,400.5714,83.6541,390.4286,84.5109,380.2857,84.7748,370.1429,84.6711,360,84.2266,360.613,84.2266,359.5169,74.6982,359.3478,65.1699,359.3786,55.6416,359.9411,46.1133,359.8035,36.585,360.6814,27.0566,359.8253,17.5283,360,8" style="stroke: #DC143C; stroke-width: 3.0;"/><path d="M360,42.1133 L360,42.3935 L369.6429,41.5609 L379.2857,42.371 L388.9286,42.6462 L398.5714,41.1621 L408.2143,42.0097 L417.8571,41.5446 L427.5,41.6019 L437.1429,42.0224 L446.7857,41.1915 L456.4286,42.8515 L466.0714,41.2729 L475.7143,41.8496 L485.3571,42.6892 L495,42.1133 " fill="#222222" style="stroke: #DC143C; stroke-width: 3.0;"/><text fill="#DC143C" font-family="courier" font-size="20" font-weight="bold" lengthAdjust="spacingAndGlyphs" textLength="120" x="365" y="31.1074">recurrente</text><!--class Recurrente--><polygon fill="#222222" points="190,174,190,174.2102,199.8462,173.5857,209.6923,174.1933,219.5385,174.3997,229.3846,173.2866,239.2308,173.9223,249.0769,173.5735,258.9231,173.6165,268.7692,173.9318,278.6154,173.3086,288.4615,174.5536,298.3077,173.3697,308.1538,173.8022,318,174,318.4319,174,317.9142,184.8227,318.0682,195.6453,317.9681,206.468,318.1785,217.2906,318,228.1133,318,228.3524,308.1538,228.699,298.3077,228.7843,288.4615,228.7925,278.6154,228.3679,268.7692,228.5769,258.9231,228.8155,249.0769,227.3921,239.2308,228.7918,229.3846,227.8168,219.5385,228.6471,209.6923,227.6183,199.8462,228.0448,190,228.1133,190.7416,228.1133,189.9513,217.2906,190.1053,206.468,190.3386,195.6453,190.4162,184.8227,190,174" style="stroke: #DC143C; stroke-width: 3.0;"/><text fill="#DC143C" font-family="courier" font-size="20" font-weight="bold" lengthAdjust="spacingAndGlyphs" textLength="120" x="194" y="200.1074">Recurrente</text><path d="M191,212.1133 L191,212.3935 L200.6923,211.5609 L210.3846,212.371 L220.0769,212.6462 L229.7692,211.1621 L239.4615,212.0097 L249.1538,211.5446 L258.8462,211.6019 L268.5385,212.0224 L278.2308,211.1915 L287.9231,212.8515 L297.6154,211.2729 L307.3077,211.8496 L317,212.1133 " fill="#222222" style="stroke: #DC143C; stroke-width: 3.0;"/><path d="M191,220.1133 L191,220.3935 L200.6923,219.5609 L210.3846,220.371 L220.0769,220.6462 L229.7692,219.1621 L239.4615,220.0097 L249.1538,219.5446 L258.8462,219.6019 L268.5385,220.0224 L278.2308,219.1915 L287.9231,220.8515 L297.6154,219.2729 L307.3077,219.8496 L317,220.1133 " fill="#222222" style="stroke: #DC143C; stroke-width: 3.0;"/><!--link recurrente1 to Recurrente--><path d="M97.6885,84.366 L97.7666,84.4172 L99.5275,87.3046 L101.7464,90.4923 L103.8161,93.5821 L105.3954,96.3505 L107.6536,99.5639 L107.6258,99.5434 L109.8015,102.5803 L112.1174,105.7204 L114.5309,108.9321 L116.6083,111.8968 L119.1564,115.2075 L119.344,115.3668 L121.5122,118.0525 L124.2281,121.2031 L127.0108,124.4106 L129.4048,127.2879 L132.0032,130.3388 L132.0244,130.3605 L134.7926,133.0609 L137.6573,135.8601 L140.4755,138.6116 L143.3825,141.4541 L146,144 L146.1872,144.2322 L148.0896,145.767 L149.8714,147.152 L151.8298,148.7563 L153.7966,150.3709 L155.5008,151.6598 L155.3162,151.3979 L157.7035,153.3365 L159.4828,154.4125 L161.7244,156.1443 L163.4899,157.2007 L165.6456,158.8107 L165.6294,158.785 L167.9325,160.4155 L169.8574,161.4437 L172.0054,162.8273 L174.1722,164.2407 L176.2039,165.4389 L176.2951,165.5998 L178.3512,166.6557 L180.5633,167.9866 L182.523,168.8726 L184.8591,170.4221 L186.945,171.5305 " fill="none" style="stroke: #A9A9A9; stroke-width: 2.0; stroke-dasharray: 7.0,7.0;"/><polygon fill="#A9A9A9" points="191.388,173.8909,191.4432,173.9341,190.0649,172.2548,189.0101,170.8287,187.8499,169.3202,186.3435,167.5405,185.3164,166.1362,185.2916,166.1286,185.5117,167.1764,185.8566,168.2624,186.2883,169.375,186.4208,170.396,186.9724,171.5452,187.0264,171.7217,185.8291,171.6755,184.7895,172.1446,183.7691,172.6765,182.6368,172.8427,181.5633,173.2012,181.5649,173.2239,183.5275,173.3285,185.4974,173.5364,187.4637,173.6945,189.4367,173.9477,191.388,173.8909" style="stroke: #A9A9A9; stroke-width: 2.0;"/><text fill="#A9A9A9" font-family="courier" font-size="20" lengthAdjust="spacingAndGlyphs" textLength="96" x="148" y="136.1074">ejemplar</text><!--link recurrente2 to Recurrente--><path d="M254,84.037 L254.2802,84.037 L253.4476,94.6275 L254.2577,105.2181 L254.5329,115.8086 L253.0488,126.3991 L253.8964,136.9896 L253.4313,147.5802 L253.4887,158.1707 L254,168.7612 " fill="none" style="stroke: #A9A9A9; stroke-width: 2.0; stroke-dasharray: 7.0,7.0;"/><polygon fill="#A9A9A9" points="254,173.8451,254.064,173.8736,254.6738,171.989,255.6589,170.2713,256.5217,168.4992,256.9827,166.5485,258,164.8451,257.9817,164.8268,257.0995,165.5446,256.3096,166.3547,255.5839,167.229,254.637,167.8821,254,168.8451,254.1305,168.9756,253.0514,167.8965,252.3534,167.1985,251.7018,166.5469,250.7798,165.6249,250,164.8451,250.0208,164.8543,250.7903,166.6408,251.6544,168.4693,252.4728,170.2775,253.3784,172.1244,254,173.8451" style="stroke: #A9A9A9; stroke-width: 2.0;"/><text fill="#A9A9A9" font-family="courier" font-size="20" lengthAdjust="spacingAndGlyphs" textLength="96" x="256" y="136.1074">ejemplar</text><!--link recurrente3 to Recurrente--><path d="M410.311,84.366 L410.3891,84.4172 L408.164,87.3046 L406.3969,90.4923 L404.4807,93.5821 L402.074,96.3505 L400.3462,99.5639 L400.3184,99.5434 L397.8929,102.5803 L395.6078,105.7204 L393.4202,108.9321 L390.8965,111.8968 L388.8435,115.2075 L389.0311,115.3668 L386.0606,118.0525 L383.6378,121.2032 L381.2818,124.4106 L378.5371,127.2879 L375.9968,130.3388 L376.018,130.3605 L373.1875,133.0609 L370.4535,135.8601 L367.673,138.6116 L364.9812,141.4541 L362,144 L362.1872,144.2322 L360.2893,145.767 L358.2707,147.152 L356.4288,148.7563 L354.5952,150.3709 L352.4992,151.6598 L352.3145,151.3979 L350.644,153.3365 L348.3653,154.4125 L346.549,156.1443 L344.2566,157.2007 L342.3544,158.8107 L342.3382,158.785 L340.418,160.4155 L338.1196,161.4437 L336.0443,162.8273 L333.9878,164.2407 L331.7961,165.4389 L331.8874,165.5998 L329.6471,166.6557 L327.5627,167.9866 L325.226,168.8726 L323.2656,170.4221 L321.055,171.5305 " fill="none" style="stroke: #A9A9A9; stroke-width: 2.0; stroke-dasharray: 7.0,7.0;"/><polygon fill="#A9A9A9" points="316.612,173.8909,316.6169,173.9608,318.5673,173.6152,320.5464,173.6793,322.5161,173.61,324.4551,173.1019,326.4367,173.2012,326.4291,173.1764,325.3133,172.7341,324.2356,172.4166,323.1846,172.1859,322.042,171.6561,321.0276,171.5452,321.2041,171.5993,321.1579,170.4019,321.627,169.3623,322.1589,168.342,322.3251,167.2096,322.6836,166.1362,322.7015,166.1502,321.4609,167.6806,320.3018,169.2748,319.1034,170.8382,317.98,172.4603,316.612,173.8909" style="stroke: #A9A9A9; stroke-width: 2.0;"/><text fill="#A9A9A9" font-family="courier" font-size="20" lengthAdjust="spacingAndGlyphs" textLength="96" x="390" y="136.1074">ejemplar</text><!--
@startuml
skinparam backgroundColor #222222

skinparam handwritten true

skinparam shadowing false
skinparam padding 1
skinparam arrow {
    Thickness 2
    Color #DarkGrey
    FontSize 20
    FontName courier
    FontStyle normal
    FontColor #DarkGrey
}

skinparam package {
    BorderThickness 3
    BorderColor<<A>> #ForestGreen
    BorderColor #Crimson
    BorderColor<<C>> #DodgerBlue
    BackgroundColor #222222
    FontSize 20
    FontName courier
    FontStyle bold
    FontColor<<A>> #ForestGreen
    FontColor #Crimson
    FontColor<<C>> #DodgerBlue
}

skinparam class {
    BorderThickness 3
    BorderColor<<A>> #ForestGreen
    BorderColor #Crimson
    BorderColor<<C>> #DodgerBlue
    BackgroundColor #222222
    FontSize 20
    FontName courier
    FontStyle bold
    FontColor<<A>> #ForestGreen
    FontColor #Crimson
    FontColor<<C>> #DodgerBlue
}

hide circle
hide stereotype

class Recurrente

package "recurrente" as recurrente1{
}
package "recurrente" as recurrente2{
}
package "recurrente" as recurrente3{
}
recurrente1 ..> Recurrente : ejemplar
recurrente2 ..> Recurrente : ejemplar
recurrente3 ..> Recurrente : ejemplar
@enduml

PlantUML version 1.2019.05(Sat Apr 20 18:45:36 CEST 2019)
(GPL source distribution)
Java Runtime: Java(TM) SE Runtime Environment
JVM: Java HotSpot(TM) 64-Bit Server VM
Java Version: 11.0.8+10-LTS
Operating System: Windows 10
OS Version: 10.0
Default Encoding: windows-1252
Language: es
Country: ES
--></g></svg>