<?xml version="1.0" encoding="UTF-8" standalone="no"?><svg xmlns="http://www.w3.org/2000/svg" xmlns:xlink="http://www.w3.org/1999/xlink" contentScriptType="application/ecmascript" contentStyleType="text/css" height="234px" preserveAspectRatio="none" style="width:168px;height:234px;background:#222222;" version="1.1" viewBox="0 0 168 234" width="168px" zoomAndPan="magnify"><defs/><g><polygon fill="#222222" points="48.5,90.5625,48.5,90.7727,58.3571,90.1482,68.2143,90.7558,78.0714,90.9622,87.9286,89.8491,97.7857,90.4848,107.6429,90.136,117.5,90.5625,117.4511,90.4444,119.2591,91.2737,120.9473,91.8141,122.8739,92.9297,124.4907,93.2973,126.3388,94.2237,126.2779,94.1984,127.2041,96.0465,127.7769,97.7483,128.5565,99.5357,129.2579,101.2907,130,103.0625,130.0595,103.0625,130.0797,107.1188,130.1952,111.175,130.2237,115.2313,130.2264,119.2875,130,123.3438,130.0784,123.3762,129.4105,125.1707,128.7518,126.9689,127.5812,128.5551,127.28,130.5014,126.3388,132.1826,126.301,132.0913,124.6392,133.0792,122.7402,133.4946,121.0268,134.3582,119.3624,135.3399,117.5,135.8438,117.5,135.795,107.6429,135.9491,97.7857,136.1824,87.9286,136.26,78.0714,135.8398,68.2143,136.131,58.3571,135.2713,48.5,135.8438,48.5363,135.9313,46.8022,135.2803,45.0212,134.5162,43.2749,133.8358,41.3673,132.766,39.6612,132.1826,39.4603,132.0994,38.7376,130.3356,38.1786,128.6395,37.4039,126.8542,36.9421,125.1984,36,123.3438,35.9418,123.3438,35.8856,119.2875,36.0761,115.2313,35.7777,111.175,35.827,107.1188,36,103.0625,36.1999,103.1453,36.8664,101.3503,37.6907,99.6207,38.0976,97.7182,39.0272,96.0321,39.6612,94.2237,39.7365,94.4055,41.3687,93.346,43.1845,92.7297,44.9805,92.0658,46.8154,91.4954,48.5,90.5625" style="stroke: #A80036; stroke-width: 1.5;"/><text fill="#A9A9A9" font-family="courier" font-size="20" lengthAdjust="spacingAndGlyphs" textLength="72" x="47" y="120.127">&lt;sent&gt;</text><polygon fill="#222222" points="59.5,25.498,59.5,25.7082,68.9,25.0837,78.3,25.6913,87.7,25.8977,97.1,24.7847,106.5,25.498,106.4817,25.4797,108.7995,27.7975,111.2096,30.2077,113.6839,32.682,115.937,34.9351,118.5,37.498,118.6305,37.6285,115.9514,39.7495,113.6534,42.2514,111.4018,44.7999,108.8798,47.0778,106.5,49.498,106.5,49.5663,97.1,49.4661,87.7,49.6766,78.3,49.7372,68.9,50.0837,59.5,49.498,59.6582,49.6562,57.2601,47.2581,54.76,44.7581,52.4093,42.4073,50.0655,40.0636,47.5,37.498,47.33,37.3281,50.0599,35.258,52.2301,32.6282,54.8258,30.4239,56.9833,27.7814,59.5,25.498" style="stroke: #A9A9A9; stroke-width: 1.5;"/><text fill="#A9A9A9" font-family="courier" font-size="20" lengthAdjust="spacingAndGlyphs" textLength="36" x="88" y="69.0625">Yes</text><text fill="#A9A9A9" font-family="sans-serif" font-size="11" lengthAdjust="spacingAndGlyphs" textLength="45" x="60.5" y="41.3062">&lt;cond&gt;</text><text fill="#A9A9A9" font-family="courier" font-size="20" lengthAdjust="spacingAndGlyphs" textLength="24" x="22.5" y="31.7813">No</text><polygon fill="#222222" points="54.5,177.8438,54.5,178.0539,64,177.4294,73.5,178.037,83,178.2434,92.5,177.1304,102,177.766,111.5,177.8438,111.4456,177.7124,113.2188,178.4579,115.0268,179.2872,116.7151,179.8275,118.6417,180.9432,120.3388,181.5049,120.1447,181.4245,121.0102,183.2475,121.9363,185.0955,122.5091,186.7973,123.2888,188.5847,124,190.3438,123.9894,190.3438,124.0595,194.4,124.0797,198.4563,124.1952,202.5125,124.2237,206.5688,124,210.625,124.2092,210.7116,123.3462,212.4252,122.6783,214.2197,122.0196,216.0179,120.849,217.6041,120.3388,219.4638,120.4254,219.6728,118.5332,220.1048,116.8714,221.0927,114.9724,221.5081,113.259,222.3717,111.5,223.125,111.5,223.8666,102,223.0763,92.5,223.2303,83,223.4636,73.5,223.5412,64,223.1211,54.5,223.125,54.5366,223.2135,52.6592,222.2165,51.0007,221.7481,49.2666,221.0971,47.4856,220.333,45.6612,219.4638,45.85,219.542,44.7802,217.6344,43.9959,215.8451,43.2731,214.0813,42.7141,212.3853,42,210.625,41.9345,210.625,42.2271,206.5688,41.9418,202.5125,41.8856,198.4563,42.0761,194.4,42,190.3438,41.7946,190.2587,42.5724,188.5098,43.6643,186.891,44.3309,185.096,45.1551,183.3664,45.6612,181.5049,45.6201,181.4058,47.4696,180.871,49.272,180.2223,50.9042,179.1627,52.72,178.5465,54.5,177.8438" style="stroke: #A80036; stroke-width: 1.5;"/><text fill="#A9A9A9" font-family="courier" font-size="20" lengthAdjust="spacingAndGlyphs" textLength="60" x="53" y="207.4082">&lt;fin&gt;</text><path d="M83,49.498 L83.0934,49.498 L82.8159,57.7109 L83.0859,65.9238 L83.1776,74.1367 L82.6829,82.3496 L83,90.5625 " fill="#A9A9A9" style="stroke: #A9A9A9; stroke-width: 1.5;"/><polygon fill="#A9A9A9" points="79,80.5625,79.065,80.5885,79.6718,82.5112,80.6598,84.5864,81.5237,86.612,81.9792,88.4742,83,90.5625,82.9759,90.5529,83.668,88.5097,84.4813,86.515,85.3789,84.5541,85.986,82.4769,87,80.5625,87.1305,80.693,86.0514,81.2139,85.3534,82.1159,84.7018,83.0643,83.7798,83.7423,83,84.5625,83.0161,84.5786,82.1925,83.755,81.4421,83.0046,80.6564,82.2189,79.938,81.5005,79,80.5625" style="stroke: #A9A9A9; stroke-width: 1.0;"/><path d="M83,135.8438 L83.0934,135.8438 L82.8159,137.8438 L83.0859,139.8438 L83.1776,141.8438 L82.6829,143.8438 L83,145.8438 " fill="#A9A9A9" style="stroke: #A9A9A9; stroke-width: 1.5;"/><path d="M83,145.8438 L83,146.124 L92.8333,145.2913 L102.6667,146.1015 L112.5,146.3767 L122.3333,144.8926 L132.1667,145.7401 L142,145.8438 " fill="#A9A9A9" style="stroke: #A9A9A9; stroke-width: 1.5;"/><polygon fill="#A9A9A9" points="138,98.5625,138.065,98.5885,138.6718,96.5112,139.6598,94.5864,140.5237,92.612,140.9792,90.4742,142,88.5625,141.9759,88.5529,142.668,90.5097,143.4813,92.515,144.3789,94.5541,144.986,96.4769,146,98.5625,146.1305,98.693,145.0514,97.6139,144.3534,96.9159,143.7018,96.2643,142.7798,95.3423,142,94.5625,142.0161,94.5786,141.1925,95.355,140.4421,96.2046,139.6564,97.0189,138.938,97.9005,138,98.5625" style="stroke: #A9A9A9; stroke-width: 1.5;"/><path d="M142,37.498 L142.2802,37.498 L141.4476,47.3477 L142.2577,57.1973 L142.5329,67.0469 L141.0488,76.8965 L141.8964,86.7461 L141.4313,96.5957 L141.4887,106.4453 L141.9091,116.2949 L141.0782,126.1445 L142.7382,135.9941 L142,145.8438 " fill="#A9A9A9" style="stroke: #A9A9A9; stroke-width: 1.5;"/><path d="M142,37.498 L142,37.5915 L137.3,37.3139 L132.6,37.584 L127.9,37.6757 L123.2,37.181 L118.5,37.498 " fill="#A9A9A9" style="stroke: #A9A9A9; stroke-width: 1.5;"/><polygon fill="#A9A9A9" points="128.5,33.498,128.526,33.5631,126.4487,34.1698,124.5239,35.1579,122.5495,36.0217,120.4117,36.4773,118.5,37.498,118.4904,37.474,120.4472,38.1661,122.4525,38.9794,124.4916,39.877,126.4144,40.4841,128.5,41.498,128.6305,41.6285,127.5514,40.5495,126.8534,39.8514,126.2018,39.1999,125.2798,38.2778,124.5,37.498,124.5161,37.5141,125.2925,36.6905,126.1421,35.9401,126.9564,35.1544,127.838,34.4361,128.5,33.498" style="stroke: #A9A9A9; stroke-width: 1.0;"/><path d="M47.5,37.498 L47.5,37.5915 L42.8,37.3139 L38.1,37.584 L33.4,37.6757 L28.7,37.181 L24,37.498 " fill="#A9A9A9" style="stroke: #A9A9A9; stroke-width: 1.5;"/><polygon fill="#A9A9A9" points="20,84.5625,20.065,84.5885,20.6718,86.5112,21.6598,88.5864,22.5237,90.612,22.9792,92.4742,24,94.5625,23.9759,94.5529,24.668,92.5097,25.4813,90.515,26.3789,88.5541,26.986,86.4769,28,84.5625,28.1305,84.693,27.0514,85.2139,26.3534,86.1159,25.7018,87.0643,24.7798,87.7423,24,88.5625,24.0161,88.5786,23.1925,87.755,22.4421,87.0046,21.6564,86.2189,20.938,85.5005,20,84.5625" style="stroke: #A9A9A9; stroke-width: 1.5;"/><path d="M24,37.498 L24.2802,37.498 L23.4476,47.5269 L24.2577,57.5557 L24.5329,67.5845 L23.0488,77.6133 L23.8964,87.6421 L23.4313,97.6709 L23.4887,107.6997 L23.9091,117.7285 L23.0782,127.7573 L24.7382,137.7861 L23.1596,147.8149 L24,157.8438 " fill="#A9A9A9" style="stroke: #A9A9A9; stroke-width: 1.5;"/><path d="M24,157.8438 L24,158.124 L33.8333,157.2913 L43.6667,158.1015 L53.5,158.3767 L63.3333,156.8926 L73.1667,157.7401 L83,157.8438 " fill="#A9A9A9" style="stroke: #A9A9A9; stroke-width: 1.5;"/><path d="M83,157.8438 L83.0934,157.8438 L82.8159,161.8438 L83.0859,165.8438 L83.1776,169.8438 L82.6829,173.8438 L83,177.8438 " fill="#A9A9A9" style="stroke: #A9A9A9; stroke-width: 1.5;"/><polygon fill="#A9A9A9" points="79,167.8438,79.065,167.8698,79.6718,169.7925,80.6598,171.8677,81.5237,173.8932,81.9792,175.7554,83,177.8438,82.9759,177.8341,83.668,175.791,84.4813,173.7963,85.3789,171.8353,85.986,169.7582,87,167.8438,87.1305,167.9742,86.0514,168.4952,85.3534,169.3971,84.7018,170.3456,83.7798,171.0235,83,171.8438,83.0161,171.8598,82.1925,171.0362,81.4421,170.2858,80.6564,169.5001,79.938,168.7818,79,167.8438" style="stroke: #A9A9A9; stroke-width: 1.0;"/><!--
@startuml
skinparam backgroundColor #222222
skinparam handwritten true
skinparam shadowing false
skinparam padding 1
skinparam arrow {
    Thickness 2
    Color #DarkGrey
    FontSize 20
    FontName courier
    FontStyle normal
    FontColor #DarkGrey
}
skinparam activity {
    Thickness 2
    BackgroundColor #222222
    Color #DarkGrey
    FontSize 20
    FontName courier
    FontStyle normal
    FontColor #DarkGrey
    DiamondBackgroundColor #222222
    DiamondBorderColor #DarkGrey
    DiamondFontColor #DarkGrey
}
while (<cond>)  is (Yes)
 :<sent>;
endwhile (No)
:<fin>;
@enduml

PlantUML version 1.2019.05(Sat Apr 20 16:45:36 GMT 2019)
(GPL source distribution)
Java Runtime: OpenJDK Runtime Environment
JVM: OpenJDK 64-Bit Server VM
Java Version: 1.8.0_222-b10
Operating System: Linux
OS Version: 5.15.146.1-microsoft-standard-WSL2
Default Encoding: UTF-8
Language: en
Country: US
--></g></svg>