<?xml version="1.0" encoding="UTF-8" standalone="no"?><svg xmlns="http://www.w3.org/2000/svg" xmlns:xlink="http://www.w3.org/1999/xlink" contentScriptType="application/ecmascript" contentStyleType="text/css" height="294px" preserveAspectRatio="none" style="width:142px;height:294px;background:#222222;" version="1.1" viewBox="0 0 142 294" width="142px" zoomAndPan="magnify"><defs/><g><polygon fill="#222222" points="22.5,54,22.5,54.2102,32.3571,53.5857,42.2143,54.1933,52.0714,54.3997,61.9286,53.2866,71.7857,53.9223,81.6429,53.5735,91.5,54,91.4511,53.8819,93.2591,54.7112,94.9473,55.2516,96.8739,56.3672,98.4907,56.7348,100.3388,57.6612,100.2779,57.6359,101.2041,59.484,101.7769,61.1858,102.5565,62.9732,103.2579,64.7282,104,66.5,104.0595,66.5,104.0797,71.1227,104.1952,75.7453,104.2237,80.368,104.2264,84.9906,104,89.6133,104.0784,89.6458,103.4105,91.4402,102.7518,93.2384,101.5812,94.8246,101.28,96.7709,100.3388,98.4521,100.301,98.3608,98.6392,99.3487,96.7402,99.7641,95.0268,100.6277,93.3624,101.6094,91.5,102.1133,91.5,102.0645,81.6429,102.2186,71.7857,102.4519,61.9286,102.5295,52.0714,102.1094,42.2143,102.4005,32.3571,101.5409,22.5,102.1133,22.5363,102.2009,20.8022,101.5499,19.0212,100.7857,17.2749,100.1054,15.3673,99.0356,13.6612,98.4521,13.4603,98.3689,12.7376,96.6051,12.1786,94.9091,11.4039,93.1237,10.9421,91.468,10,89.6133,9.9418,89.6133,9.8856,84.9906,10.0761,80.368,9.7777,75.7453,9.827,71.1227,10,66.5,10.1999,66.5828,10.8664,64.7878,11.6907,63.0582,12.0976,61.1557,13.0272,59.4696,13.6612,57.6612,13.7365,57.843,15.3687,56.7835,17.1845,56.1672,18.9805,55.5033,20.8154,54.9329,22.5,54" style="stroke: #A80036; stroke-width: 1.5;"/><text fill="#A9A9A9" font-family="courier" font-size="20" lengthAdjust="spacingAndGlyphs" textLength="72" x="21" y="85.1074">&lt;sent&gt;</text><polygon fill="#222222" points="22.5,122.1133,22.5,122.3235,32.3571,121.699,42.2143,122.3066,52.0714,122.513,61.9286,121.3999,71.7857,122.0356,81.6429,121.6868,91.5,122.1133,91.4511,121.9952,93.2591,122.8245,94.9473,123.3648,96.8739,124.4805,98.4907,124.8481,100.3388,125.7744,100.2779,125.7492,101.2041,127.5973,101.7769,129.299,102.5565,131.0865,103.2579,132.8414,104,134.6133,104.0595,134.6133,104.0797,139.2359,104.1952,143.8586,104.2237,148.4813,104.2264,153.1039,104,157.7266,104.0784,157.759,103.4105,159.5535,102.7518,161.3517,101.5812,162.9379,101.28,164.8842,100.3388,166.5654,100.301,166.4741,98.6392,167.462,96.7402,167.8774,95.0268,168.741,93.3624,169.7227,91.5,170.2266,91.5,170.1778,81.6429,170.3319,71.7857,170.5652,61.9286,170.6428,52.0714,170.2227,42.2143,170.5138,32.3571,169.6541,22.5,170.2266,22.5363,170.3141,20.8022,169.6632,19.0212,168.899,17.2749,168.2187,15.3673,167.1489,13.6612,166.5654,13.4603,166.4822,12.7376,164.7184,12.1786,163.0224,11.4039,161.237,10.9421,159.5813,10,157.7266,9.9418,157.7266,9.8856,153.1039,10.0761,148.4813,9.7777,143.8586,9.827,139.2359,10,134.6133,10.1999,134.6961,10.8664,132.9011,11.6907,131.1714,12.0976,129.2689,13.0272,127.5829,13.6612,125.7744,13.7365,125.9563,15.3687,124.8967,17.1845,124.2805,18.9805,123.6165,20.8154,123.0462,22.5,122.1133" style="stroke: #A80036; stroke-width: 1.5;"/><text fill="#A9A9A9" font-family="courier" font-size="20" lengthAdjust="spacingAndGlyphs" textLength="72" x="21" y="153.2207">&lt;sent&gt;</text><polygon fill="#222222" points="28.5,190.2266,28.5,190.4367,38,189.8122,47.5,190.4198,57,190.6262,66.5,189.5132,76,190.1488,85.5,190.2266,85.4456,190.0952,87.2188,190.8407,89.0268,191.67,90.7151,192.2103,92.6417,193.326,94.3388,193.8877,94.1447,193.8073,95.0102,195.6303,95.9363,197.4784,96.5091,199.1801,97.2888,200.9675,98,202.7266,97.9894,202.7266,98.0595,207.3492,98.0797,211.9719,98.1952,216.5945,98.2237,221.2172,98,225.8398,98.2092,225.9265,97.3462,227.6401,96.6783,229.4345,96.0196,231.2327,94.849,232.8189,94.3388,234.6787,94.4254,234.8876,92.5332,235.3196,90.8714,236.3075,88.9724,236.7229,87.259,237.5865,85.5,238.3398,85.5,239.0814,76,238.2911,66.5,238.4451,57,238.6785,47.5,238.7561,38,238.3359,28.5,238.3398,28.5366,238.4283,26.6592,237.4313,25.0007,236.963,23.2666,236.312,21.4856,235.5478,19.6612,234.6787,19.85,234.7569,18.7802,232.8493,17.9959,231.06,17.2731,229.2961,16.7141,227.6001,16,225.8398,15.9345,225.8398,16.2271,221.2172,15.9418,216.5945,15.8856,211.9719,16.0761,207.3492,16,202.7266,15.7946,202.6415,16.5724,200.8926,17.6643,199.2738,18.3309,197.4788,19.1551,195.7492,19.6612,193.8877,19.6201,193.7886,21.4696,193.2538,23.272,192.6051,24.9042,191.5455,26.72,190.9293,28.5,190.2266" style="stroke: #A80036; stroke-width: 1.5;"/><text fill="#A9A9A9" font-family="courier" font-size="20" lengthAdjust="spacingAndGlyphs" textLength="60" x="27" y="221.334">&lt;...&gt;</text><polygon fill="#222222" points="57,10,57.0495,10.0495,59.3023,12.3023,61.8456,14.8456,64.2942,17.2942,66.4319,19.4319,69,22,68.9817,21.9817,66.4995,24.2995,64.1096,26.7096,61.7839,29.1839,59.237,31.437,57,34,57.1305,34.1305,54.4514,31.4514,52.1534,29.1534,49.9018,26.9018,47.3798,24.3798,45,22,45.0161,22.0161,47.3925,19.5925,49.8421,17.2421,52.2564,14.8564,54.738,12.538,57,10" style="stroke: #A9A9A9; stroke-width: 1.5;"/><polygon fill="#222222" points="38,258.3398,38,258.4099,45.6,258.2017,53.2,258.4043,60.8,258.4731,68.4,258.102,76,258.3398,75.9817,258.3215,78.2995,260.6393,80.7096,263.0495,83.1839,265.5238,85.437,267.7769,88,270.3398,88.1305,270.4703,85.4514,272.5913,83.1534,275.0932,80.9018,277.6417,78.3798,279.9196,76,282.3398,76,282.3626,68.4,282.3292,60.8,282.3994,53.2,282.4196,45.6,282.5351,38,282.3398,38.1582,282.498,35.7601,280.0999,33.26,277.5999,30.9093,275.2491,28.5655,272.9054,26,270.3398,25.83,270.1699,28.5599,268.0998,30.7301,265.47,33.3258,263.2657,35.4833,260.6232,38,258.3398" style="stroke: #A9A9A9; stroke-width: 1.5;"/><text fill="#A9A9A9" font-family="sans-serif" font-size="11" lengthAdjust="spacingAndGlyphs" textLength="36" x="39" y="274.8408">&lt;cond&gt;</text><path d="M57,102.1133 L57.0934,102.1133 L56.8159,106.1133 L57.0859,110.1133 L57.1776,114.1133 L56.6829,118.1133 L57,122.1133 " fill="#A9A9A9" style="stroke: #A9A9A9; stroke-width: 1.5;"/><polygon fill="#A9A9A9" points="53,112.1133,53.065,112.1393,53.6718,114.062,54.6598,116.1372,55.5237,118.1628,55.9792,120.025,57,122.1133,56.9759,122.1037,57.668,120.0605,58.4813,118.0658,59.3789,116.1048,59.986,114.0277,61,112.1133,61.1305,112.2438,60.0514,112.7647,59.3534,113.6667,58.7018,114.6151,57.7798,115.2931,57,116.1133,57.0161,116.1294,56.1925,115.3058,55.4421,114.5554,54.6564,113.7696,53.938,113.0513,53,112.1133" style="stroke: #A9A9A9; stroke-width: 1.0;"/><path d="M57,170.2266 L57.0934,170.2266 L56.8159,174.2266 L57.0859,178.2266 L57.1776,182.2266 L56.6829,186.2266 L57,190.2266 " fill="#A9A9A9" style="stroke: #A9A9A9; stroke-width: 1.5;"/><polygon fill="#A9A9A9" points="53,180.2266,53.065,180.2526,53.6718,182.1753,54.6598,184.2505,55.5237,186.276,55.9792,188.1382,57,190.2266,56.9759,190.2169,57.668,188.1738,58.4813,186.1791,59.3789,184.2181,59.986,182.141,61,180.2266,61.1305,180.3571,60.0514,180.878,59.3534,181.7799,58.7018,182.7284,57.7798,183.4063,57,184.2266,57.0161,184.2426,56.1925,183.419,55.4421,182.6686,54.6564,181.8829,53.938,181.1646,53,180.2266" style="stroke: #A9A9A9; stroke-width: 1.0;"/><path d="M57,34 L57.0934,34 L56.8159,38 L57.0859,42 L57.1776,46 L56.6829,50 L57,54 " fill="#A9A9A9" style="stroke: #A9A9A9; stroke-width: 1.5;"/><polygon fill="#A9A9A9" points="53,44,53.065,44.026,53.6718,45.9487,54.6598,48.0239,55.5237,50.0495,55.9792,51.9117,57,54,56.9759,53.9904,57.668,51.9472,58.4813,49.9525,59.3789,47.9916,59.986,45.9144,61,44,61.1305,44.1305,60.0514,44.6514,59.3534,45.5534,58.7018,46.5018,57.7798,47.1798,57,48,57.0161,48.0161,56.1925,47.1925,55.4421,46.4421,54.6564,45.6564,53.938,44.938,53,44" style="stroke: #A9A9A9; stroke-width: 1.0;"/><path d="M88,270.3398 L88,270.4333 L93.6,270.1557 L99.2,270.4257 L104.8,270.5175 L110.4,270.0228 L116,270.3398 " fill="#A9A9A9" style="stroke: #A9A9A9; stroke-width: 1.5;"/><polygon fill="#A9A9A9" points="112,156.1699,112.065,156.1959,112.6718,154.1186,113.6598,152.1939,114.5237,150.2194,114.9792,148.0816,116,146.1699,115.9759,146.1603,116.668,148.1171,117.4813,150.1224,118.3789,152.1615,118.986,154.0843,120,156.1699,120.1305,156.3004,119.0514,155.2214,118.3534,154.5233,117.7018,153.8717,116.7798,152.9497,116,152.1699,116.0161,152.186,115.1925,152.9624,114.4421,153.812,113.6564,154.6263,112.938,155.508,112,156.1699" style="stroke: #A9A9A9; stroke-width: 1.5;"/><path d="M116,22 L116.2802,22 L115.4476,31.9336 L116.2577,41.8672 L116.5329,51.8008 L115.0488,61.7344 L115.8964,71.668 L115.4313,81.6016 L115.4887,91.5352 L115.9091,101.4688 L115.0782,111.4023 L116.7382,121.3359 L115.1596,131.2695 L115.7363,141.2031 L116.5759,151.1367 L115.8856,161.0703 L116.091,171.0039 L115.9574,180.9375 L116.238,190.8711 L116.3188,200.8047 L116.7809,210.7383 L116.8947,220.6719 L116.9057,230.6055 L116.3395,240.5391 L116.6181,250.4727 L116.9363,260.4063 L116,270.3398 " fill="#A9A9A9" style="stroke: #A9A9A9; stroke-width: 1.5;"/><path d="M116,22 L116,22.2802 L106.6,21.4476 L97.2,22.2577 L87.8,22.5329 L78.4,21.0488 L69,22 " fill="#A9A9A9" style="stroke: #A9A9A9; stroke-width: 1.5;"/><polygon fill="#A9A9A9" points="79,18,79.026,18.065,76.9487,18.6718,75.0239,19.6598,73.0495,20.5237,70.9117,20.9792,69,22,68.9904,21.9759,70.9472,22.668,72.9525,23.4813,74.9916,24.3789,76.9144,24.986,79,26,79.1305,26.1305,78.0514,25.0514,77.3534,24.3534,76.7018,23.7018,75.7798,22.7798,75,22,75.0161,22.0161,75.7925,21.1925,76.6421,20.4421,77.4564,19.6564,78.338,18.938,79,18" style="stroke: #A9A9A9; stroke-width: 1.0;"/><path d="M57,238.3398 L57.0934,238.3398 L56.8159,242.3398 L57.0859,246.3398 L57.1776,250.3398 L56.6829,254.3398 L57,258.3398 " fill="#A9A9A9" style="stroke: #A9A9A9; stroke-width: 1.5;"/><polygon fill="#A9A9A9" points="53,248.3398,53.065,248.3659,53.6718,250.2886,54.6598,252.3638,55.5237,254.3893,55.9792,256.2515,57,258.3398,56.9759,258.3302,57.668,256.287,58.4813,254.2924,59.3789,252.3314,59.986,250.2543,61,248.3398,61.1305,248.4703,60.0514,248.9913,59.3534,249.8932,58.7018,250.8417,57.7798,251.5196,57,252.3398,57.0161,252.3559,56.1925,251.5323,55.4421,250.7819,54.6564,249.9962,53.938,249.2779,53,248.3398" style="stroke: #A9A9A9; stroke-width: 1.0;"/><!--
@startuml
skinparam backgroundColor #222222
skinparam handwritten true
skinparam shadowing false
skinparam padding 1
skinparam arrow {
    Thickness 2
    Color #DarkGrey
    FontSize 20
    FontName courier
    FontStyle normal
    FontColor #DarkGrey
}
skinparam activity {
    Thickness 2
    BackgroundColor #222222
    Color #DarkGrey
    FontSize 20
    FontName courier
    FontStyle normal
    FontColor #DarkGrey
    DiamondBackgroundColor #222222
    DiamondBorderColor #DarkGrey
    DiamondFontColor #DarkGrey
}
repeat
  :<sent>;
  :<sent>;
  :<...>;
repeat while (<cond>)
@enduml

PlantUML version 1.2019.05(Sat Apr 20 18:45:36 CEST 2019)
(GPL source distribution)
Java Runtime: Java(TM) SE Runtime Environment
JVM: Java HotSpot(TM) 64-Bit Server VM
Java Version: 11.0.14+8-LTS-263
Operating System: Windows 10
OS Version: 10.0
Default Encoding: windows-1252
Language: es
Country: ES
--></g></svg>