<?xml version="1.0" encoding="UTF-8" standalone="no"?><svg xmlns="http://www.w3.org/2000/svg" xmlns:xlink="http://www.w3.org/1999/xlink" contentScriptType="application/ecmascript" contentStyleType="text/css" height="358px" preserveAspectRatio="none" style="width:286px;height:358px;background:#222222;" version="1.1" viewBox="0 0 286 358" width="286px" zoomAndPan="magnify"><defs/><g><!--cluster lists--><polygon fill="#222222" points="22,24,90,24,97,58.1133,264,58.1133,264,346,22,346,22,24" style="stroke: #1E90FF; stroke-width: 3.0;"/><line style="stroke: #1E90FF; stroke-width: 3.0;" x1="22" x2="97" y1="58.1133" y2="58.1133"/><text fill="#1E90FF" font-family="courier" font-size="20" font-weight="bold" lengthAdjust="spacingAndGlyphs" textLength="60" x="27" y="47.1074">lists</text><!--class List--><rect fill="#222222" height="54.1133" id="List" style="stroke: #1E90FF; stroke-width: 3.0;" width="82" x="62" y="71"/><ellipse cx="77" cy="90.0566" fill="#ADD1B2" rx="11" ry="11" style="stroke: #1E90FF; stroke-width: 1.0;"/><path d="M79.7656,85.9316 Q79.9219,85.7129 80.1094,85.6035 Q80.2969,85.4941 80.5156,85.4941 Q80.8906,85.4941 81.125,85.7598 Q81.3594,86.0098 81.3594,86.6191 L81.3594,88.0723 Q81.3594,88.6816 81.125,88.9473 Q80.8906,89.2129 80.5156,89.2129 Q80.1719,89.2129 79.9688,89.0098 Q79.7656,88.8223 79.6563,88.3066 Q79.6094,87.9473 79.4219,87.7598 Q79.0938,87.3848 78.4844,87.166 Q77.875,86.9473 77.25,86.9473 Q76.4844,86.9473 75.8438,87.2754 Q75.2188,87.6035 74.7188,88.3535 Q74.2344,89.1035 74.2344,90.1348 L74.2344,91.2285 Q74.2344,92.4629 75.125,93.291 Q76.0156,94.1035 77.6094,94.1035 Q78.5469,94.1035 79.2031,93.8535 Q79.5938,93.6973 80.0156,93.2598 Q80.2813,92.9941 80.4219,92.916 Q80.5781,92.8379 80.7813,92.8379 Q81.1094,92.8379 81.3594,93.1035 Q81.625,93.3535 81.625,93.6973 Q81.625,94.041 81.2813,94.4473 Q80.7813,95.0254 79.9844,95.3535 Q78.9063,95.8066 77.6094,95.8066 Q76.0938,95.8066 74.8906,95.1816 Q73.9063,94.6816 73.2188,93.6191 Q72.5313,92.541 72.5313,91.2598 L72.5313,90.1035 Q72.5313,88.7754 73.1406,87.6348 Q73.7656,86.4785 74.8594,85.8691 Q75.9531,85.2441 77.1875,85.2441 Q77.9219,85.2441 78.5625,85.416 Q79.2188,85.5723 79.7656,85.9316 Z "/><text fill="#1E90FF" font-family="courier" font-size="20" font-weight="bold" lengthAdjust="spacingAndGlyphs" textLength="48" x="92" y="97.1074">List</text><line style="stroke: #1E90FF; stroke-width: 3.0;" x1="63" x2="143" y1="109.1133" y2="109.1133"/><line style="stroke: #1E90FF; stroke-width: 3.0;" x1="63" x2="143" y1="117.1133" y2="117.1133"/><!--class NodeList--><rect fill="#222222" height="75.6982" id="NodeList" style="stroke: #1E90FF; stroke-width: 3.0;" width="82" x="62" y="235.5"/><ellipse cx="77" cy="254.5566" fill="#ADD1B2" rx="11" ry="11" style="stroke: #1E90FF; stroke-width: 1.0;"/><path d="M79.7656,250.4316 Q79.9219,250.2129 80.1094,250.1035 Q80.2969,249.9941 80.5156,249.9941 Q80.8906,249.9941 81.125,250.2598 Q81.3594,250.5098 81.3594,251.1191 L81.3594,252.5723 Q81.3594,253.1816 81.125,253.4473 Q80.8906,253.7129 80.5156,253.7129 Q80.1719,253.7129 79.9688,253.5098 Q79.7656,253.3223 79.6563,252.8066 Q79.6094,252.4473 79.4219,252.2598 Q79.0938,251.8848 78.4844,251.666 Q77.875,251.4473 77.25,251.4473 Q76.4844,251.4473 75.8438,251.7754 Q75.2188,252.1035 74.7188,252.8535 Q74.2344,253.6035 74.2344,254.6348 L74.2344,255.7285 Q74.2344,256.9629 75.125,257.791 Q76.0156,258.6035 77.6094,258.6035 Q78.5469,258.6035 79.2031,258.3535 Q79.5938,258.1973 80.0156,257.7598 Q80.2813,257.4941 80.4219,257.416 Q80.5781,257.3379 80.7813,257.3379 Q81.1094,257.3379 81.3594,257.6035 Q81.625,257.8535 81.625,258.1973 Q81.625,258.541 81.2813,258.9473 Q80.7813,259.5254 79.9844,259.8535 Q78.9063,260.3066 77.6094,260.3066 Q76.0938,260.3066 74.8906,259.6816 Q73.9063,259.1816 73.2188,258.1191 Q72.5313,257.041 72.5313,255.7598 L72.5313,254.6035 Q72.5313,253.2754 73.1406,252.1348 Q73.7656,250.9785 74.8594,250.3691 Q75.9531,249.7441 77.1875,249.7441 Q77.9219,249.7441 78.5625,249.916 Q79.2188,250.0723 79.7656,250.4316 Z "/><text fill="#1E90FF" font-family="courier" font-size="20" font-weight="bold" lengthAdjust="spacingAndGlyphs" textLength="48" x="92" y="261.6074">Node</text><line style="stroke: #1E90FF; stroke-width: 3.0;" x1="63" x2="143" y1="273.6133" y2="273.6133"/><text fill="#A9A9A9" font-family="courier" font-size="15" lengthAdjust="spacingAndGlyphs" textLength="36" x="69" y="293.6938">info</text><line style="stroke: #1E90FF; stroke-width: 3.0;" x1="63" x2="143" y1="303.1982" y2="303.1982"/><!--link List to NodeList--><path d="M103,138.7 C103,163.42 103,195.44 103,221.96 " fill="none" id="List-NodeList" style="stroke: #1E90FF; stroke-width: 2.0;"/><polygon fill="#1E90FF" points="103,235.26,107,226.26,103,230.26,99,226.26,103,235.26" style="stroke: #1E90FF; stroke-width: 2.0;"/><line style="stroke: #1E90FF; stroke-width: 2.0;" x1="103" x2="103" y1="230.26" y2="222.26"/><polygon fill="#1E90FF" points="103,125.35,99,131.35,103,137.35,107,131.35,103,125.35" style="stroke: #1E90FF; stroke-width: 2.0;"/><text fill="#1E90FF" font-family="courier" font-size="20" lengthAdjust="spacingAndGlyphs" textLength="48" x="105" y="177.1074">head</text><text fill="#1E90FF" font-family="courier" font-size="20" lengthAdjust="spacingAndGlyphs" textLength="48" x="50.1719" y="220.3999">0..1</text><!--link NodeList to NodeList--><path d="M144.09,256.35 C173.6,250.77 203,256.48 203,273.5 C203,289.52 176.95,295.52 149.27,291.51 " fill="none" id="NodeList-NodeList" style="stroke: #1E90FF; stroke-width: 2.0;"/><polygon fill="#1E90FF" points="144.09,290.65,152.3023,296.0867,149.0208,291.4789,153.6286,288.1975,144.09,290.65" style="stroke: #1E90FF; stroke-width: 2.0;"/><text fill="#1E90FF" font-family="courier" font-size="20" lengthAdjust="spacingAndGlyphs" textLength="48" x="210" y="279.6074">next</text><text fill="#1E90FF" font-family="courier" font-size="20" lengthAdjust="spacingAndGlyphs" textLength="48" x="153.1447" y="284.1666">0..1</text><!--
@startuml
skinparam backgroundColor #222222
skinparam shadowing false
skinparam padding 1
skinparam arrow {
    Thickness 2
    Color #1E90FF
    FontSize 20
    FontName courier
    FontStyle normal
    FontColor #1E90FF
}
skinparam package {
    BorderThickness 3
    BorderColor #1E90FF
    BackgroundColor #222222
    FontSize 20
    FontName courier
    FontStyle bold
    FontColor #1E90FF
}

skinparam class {
    BorderThickness 3
    BorderColor #1E90FF
    BackgroundColor #222222
    FontSize 20
    FontName courier
    FontStyle bold
    FontColor #1E90FF
}
skinparam classAttribute {
    FontSize 15
    FontName courier
    FontStyle normal
    FontColor #DarkGrey
}

package lists {
class List
class NodeList as "Node" {
info
}
}

List *-down-> "0..1" NodeList : head
NodeList - -> "0..1" NodeList : next
@enduml

PlantUML version 1.2019.05(Sat Apr 20 18:45:36 CEST 2019)
(GPL source distribution)
Java Runtime: Java(TM) SE Runtime Environment
JVM: Java HotSpot(TM) 64-Bit Server VM
Java Version: 11.0.14+8-LTS-263
Operating System: Windows 10
OS Version: 10.0
Default Encoding: windows-1252
Language: es
Country: ES
--></g></svg>