<?xml version="1.0" encoding="UTF-8" standalone="no"?><svg xmlns="http://www.w3.org/2000/svg" xmlns:xlink="http://www.w3.org/1999/xlink" contentScriptType="application/ecmascript" contentStyleType="text/css" height="481px" preserveAspectRatio="none" style="width:416px;height:481px;background:#222222;" version="1.1" viewBox="0 0 416 481" width="416px" zoomAndPan="magnify"><defs/><g><polygon fill="#222222" points="230,422,230,422.0701,235.6,421.8619,241.2,422.0644,246.8,422.1332,252.4,421.7622,258,422,257.9223,422,257.5735,431.6227,257.6165,441.2453,257.9318,450.868,257.3086,460.4906,258,470.1133,258,470.2978,252.4,469.9032,246.8,470.0474,241.2,470.2573,235.6,470.0847,230,470.1133,230.0682,470.1133,229.9681,460.4906,230.1785,450.868,230.2391,441.2453,230.5857,431.6227,230,422" style="stroke: #DC143C; stroke-width: 3.0;"/><text fill="#DC143C" font-family="courier" font-size="20" font-weight="bold" lengthAdjust="spacingAndGlyphs" textLength="12" x="238" y="445.1074">1</text><path d="M231,454.1133 L231,454.2067 L236.2,453.9291 L241.4,454.1992 L246.6,454.2909 L251.8,453.7962 L257,454.1133 " fill="#222222" style="stroke: #DC143C; stroke-width: 3.0;"/><polygon fill="#222222" points="102,284,102,284.0701,107.6,283.8619,113.2,284.0644,118.8,284.1332,124.4,283.7622,130,284,129.9223,284,129.5735,293.6227,129.6165,303.2453,129.9318,312.868,129.3086,322.4906,130,332.1133,130,332.2978,124.4,331.9032,118.8,332.0474,113.2,332.2573,107.6,332.0847,102,332.1133,102.0682,332.1133,101.9681,322.4906,102.1785,312.868,102.2391,303.2453,102.5857,293.6227,102,284" style="stroke: #DC143C; stroke-width: 3.0;"/><text fill="#DC143C" font-family="courier" font-size="20" font-weight="bold" lengthAdjust="spacingAndGlyphs" textLength="12" x="110" y="307.1074">2</text><path d="M103,316.1133 L103,316.2067 L108.2,315.9291 L113.4,316.1992 L118.6,316.2909 L123.8,315.7962 L129,316.1133 " fill="#222222" style="stroke: #DC143C; stroke-width: 3.0;"/><polygon fill="#222222" points="295,284,295,284.0701,300.6,283.8619,306.2,284.0644,311.8,284.1332,317.4,283.7622,323,284,322.9223,284,322.5735,293.6227,322.6165,303.2453,322.9318,312.868,322.3086,322.4906,323,332.1133,323,332.2978,317.4,331.9032,311.8,332.0474,306.2,332.2573,300.6,332.0847,295,332.1133,295.0682,332.1133,294.9681,322.4906,295.1785,312.868,295.2391,303.2453,295.5857,293.6227,295,284" style="stroke: #DC143C; stroke-width: 3.0;"/><text fill="#DC143C" font-family="courier" font-size="20" font-weight="bold" lengthAdjust="spacingAndGlyphs" textLength="12" x="303" y="307.1074">3</text><path d="M296,316.1133 L296,316.2067 L301.2,315.9291 L306.4,316.1992 L311.6,316.2909 L316.8,315.7962 L322,316.1133 " fill="#222222" style="stroke: #DC143C; stroke-width: 3.0;"/><polygon fill="#222222" points="6,146,6,146.0701,11.6,145.8619,17.2,146.0644,22.8,146.1332,28.4,145.7622,34,146,33.9223,146,33.5735,155.6227,33.6165,165.2453,33.9318,174.868,33.3086,184.4906,34,194.1133,34,194.2978,28.4,193.9032,22.8,194.0474,17.2,194.2573,11.6,194.0847,6,194.1133,6.0682,194.1133,5.9681,184.4906,6.1785,174.868,6.2391,165.2453,6.5857,155.6227,6,146" style="stroke: #DC143C; stroke-width: 3.0;"/><text fill="#DC143C" font-family="courier" font-size="20" font-weight="bold" lengthAdjust="spacingAndGlyphs" textLength="12" x="14" y="169.1074">4</text><path d="M7,178.1133 L7,178.2067 L12.2,177.9291 L17.4,178.1992 L22.6,178.2909 L27.8,177.7962 L33,178.1133 " fill="#222222" style="stroke: #DC143C; stroke-width: 3.0;"/><polygon fill="#222222" points="199,146,199,146.0701,204.6,145.8619,210.2,146.0644,215.8,146.1332,221.4,145.7622,227,146,226.9223,146,226.5735,155.6227,226.6165,165.2453,226.9318,174.868,226.3086,184.4906,227,194.1133,227,194.2978,221.4,193.9032,215.8,194.0474,210.2,194.2573,204.6,194.0847,199,194.1133,199.0682,194.1133,198.9681,184.4906,199.1785,174.868,199.2391,165.2453,199.5857,155.6227,199,146" style="stroke: #DC143C; stroke-width: 3.0;"/><text fill="#DC143C" font-family="courier" font-size="20" font-weight="bold" lengthAdjust="spacingAndGlyphs" textLength="12" x="207" y="169.1074">6</text><path d="M200,178.1133 L200,178.2067 L205.2,177.9291 L210.4,178.1992 L215.6,178.2909 L220.8,177.7962 L226,178.1133 " fill="#222222" style="stroke: #DC143C; stroke-width: 3.0;"/><polygon fill="#222222" points="193,8,193,8.0701,201,7.8619,209,8.0644,217,8.1332,225,7.7622,233,8,232.9223,8,232.5735,17.6227,232.6165,27.2453,232.9318,36.868,232.3086,46.4906,233,56.1133,233,56.2978,225,55.9032,217,56.0474,209,56.2573,201,56.0847,193,56.1133,193.0682,56.1133,192.9681,46.4906,193.1785,36.868,193.2391,27.2453,193.5857,17.6227,193,8" style="stroke: #DC143C; stroke-width: 3.0;"/><text fill="#DC143C" font-family="courier" font-size="20" font-weight="bold" lengthAdjust="spacingAndGlyphs" textLength="24" x="201" y="31.1074">12</text><path d="M194,40.1133 L194,40.2067 L201.6,39.9291 L209.2,40.1992 L216.8,40.2909 L224.4,39.7962 L232,40.1133 " fill="#222222" style="stroke: #DC143C; stroke-width: 3.0;"/><!--link o1 to o1--><path d="M258.045,436.6398 L258.0682,436.7303 L260.4581,435.8311 L262.9839,435.4624 L265.4655,434.921 L267.8015,433.8115 L270.339,433.4883 L270.3374,433.4538 L272.5817,433.4008 L274.8339,433.5218 L277.0916,433.7638 L279.3304,433.589 L281.5956,433.9978 L281.774,434.1673 L283.6734,436.2053 L286.0937,438.7382 L288.5774,441.3314 L290.6915,443.5733 L293,446 L293.0234,446.0193 L291.1042,448.2812 L289.2917,450.6309 L287.4277,452.9383 L285.6618,455.3265 L283.576,457.4513 L283.6158,457.7469 L281.6953,458.0091 L279.7491,458.0806 L277.8404,458.4313 L275.9336,458.795 L273.9709,458.7442 L273.9227,458.4273 L271.8294,458.7099 L269.5775,457.9491 L267.4462,457.9814 L265.1907,457.1969 L263.037,457.082 " fill="none" style="stroke: #A9A9A9; stroke-width: 2.0;"/><polygon fill="#A9A9A9" points="258.045,455.3602,258.0928,455.4114,259.3913,456.6027,260.9699,458.0943,262.4573,459.4881,263.6448,460.5603,265.2475,462.0777,265.2242,462.0663,264.6244,460.9982,264.1421,459.9873,263.7414,459.016,263.0594,457.9079,262.7714,456.9915,262.8522,457.1574,263.6967,456.3074,264.777,455.9418,265.8861,455.6353,266.8278,454.985,267.8576,454.5155,267.8595,454.5381,265.8941,454.6738,263.9376,454.9126,261.9769,455.1017,260.0243,455.3858,258.045,455.3602" style="stroke: #A9A9A9; stroke-width: 2.0;"/><text fill="#A9A9A9" font-family="courier" font-size="20" lengthAdjust="spacingAndGlyphs" textLength="12" x="300" y="453.1074">1</text><!--link o2 to o1--><path d="M130.187,324.074 L130.3911,324.2661 L136.637,330.9759 L144.0792,338.8117 L151.1319,346.2809 L156.9035,352.5443 L164.373,360.4057 L170.8866,367.3675 L177.7806,374.6874 L184.9391,382.2561 L191.1863,388.9671 L199.2474,397.3854 L204.9502,403.584 L212.2224,411.2598 L219.6861,419.1158 L226.119,426.0016 " fill="none" style="stroke: #A9A9A9; stroke-width: 2.0;"/><polygon fill="#A9A9A9" points="229.749,429.8585,229.8151,429.8817,228.9677,427.9538,228.5079,426.1616,227.9219,424.3252,226.9207,422.3435,226.4942,420.563,226.4683,420.5622,226.3178,421.6895,226.2977,422.8208,226.3684,423.9549,226.1265,425.0794,226.3224,426.2172,226.3281,426.4017,225.1852,425.9729,224.0587,426.0826,222.9343,426.2581,221.7982,426.0513,220.6682,426.0455,220.677,426.0665,222.4802,426.7983,224.3236,427.6256,226.1475,428.4068,228.0084,429.2759,229.749,429.8585" style="stroke: #A9A9A9; stroke-width: 2.0;"/><text fill="#A9A9A9" font-family="courier" font-size="20" lengthAdjust="spacingAndGlyphs" textLength="12" x="193" y="384.1074">2</text><!--link o3 to o1--><path d="M297.974,332.071 L298.2268,332.1918 L292.9511,341.2991 L289.1576,351.1147 L284.8815,360.6997 L279.018,369.526 L275.2583,379.3578 L270.3143,388.6236 L265.8415,398.1146 L261.6965,407.7622 L257.254,417.2677 " fill="none" style="stroke: #A9A9A9; stroke-width: 2.0;"/><polygon fill="#A9A9A9" points="255.08,421.8163,255.1255,421.8696,256.4883,420.4322,258.1178,419.3071,259.6605,418.0804,260.9175,416.5191,262.5699,415.4209,262.5613,415.3965,261.4558,415.6637,260.3938,416.054,259.362,416.53,258.2261,416.7109,257.2361,417.305,257.4101,417.3665,256.6611,416.1683,256.4202,415.1495,256.2413,414.1527,255.7018,413.0284,255.3519,411.9712,255.3746,411.9718,255.2869,413.9399,255.3026,415.9109,255.2684,417.8805,255.3295,419.8527,255.08,421.8163" style="stroke: #A9A9A9; stroke-width: 2.0;"/><text fill="#A9A9A9" font-family="courier" font-size="20" lengthAdjust="spacingAndGlyphs" textLength="12" x="284" y="384.1074">3</text><!--link o4 to o1--><path d="M21.8749,194.021 L21.9676,194.0329 L22.0461,196.7564 L22.6677,199.5495 L23.1125,202.3199 L22.9757,205.0158 L23.644,207.8149 L23.6099,207.8093 L23.9772,210.9727 L24.5163,214.1641 L25.1748,217.375 L25.4217,220.5188 L26.2452,223.7566 L26.4863,223.806 L26.6885,227.2021 L27.5945,230.7425 L28.5863,234.3005 L29.0785,237.7561 L29.8335,241.2655 L29.8629,241.273 L30.7658,244.9611 L31.8025,248.6834 L32.7746,252.3892 L33.8699,256.1265 L34.5637,259.7611 L34.8479,259.8517 L36.0567,263.6332 L37.0823,267.3562 L38.3761,271.1648 L39.6826,274.9774 L40.5906,278.6629 L40.2906,278.55 L41.5824,280.6536 L41.8865,282.3852 L42.9415,284.3996 L43.2232,286.1228 L44.1387,288.0847 L44.1107,288.0729 L45.2284,290.0741 L45.6909,291.7985 L46.54,293.6863 L47.4216,295.5878 L48.069,297.3904 L48.2361,297.4698 L48.9339,299.213 L49.9171,301.0919 L50.4384,302.7513 L51.6488,304.7381 L52.401,306.5073 L52.6157,306.6225 L53.5257,308.3718 L54.5422,310.1784 L55.0636,311.7191 L55.9479,313.4547 L57.1539,315.3629 L56.9225,315.2121 L59.3012,318.676 L61.4192,321.97 L63.9153,325.5106 L65.7657,328.6302 L68,332 L67.8812,331.9045 L69.7295,334.1166 L71.0699,335.9203 L72.7715,338.0144 L74.8265,340.3927 L76.2521,342.265 L76.3947,342.396 L78.2916,344.4432 L79.745,346.0828 L81.7539,348.2329 L83.6417,350.2718 L85.2476,352.0515 L85.1017,351.9006 L87.1427,353.8822 L89.1359,355.8144 L91.223,357.8436 L92.9451,359.4954 L94.8711,361.358 L95.006,361.513 L96.7366,362.9373 L98.7278,364.6609 L101.0996,366.8217 L102.7706,368.1775 L105.0071,370.1828 L105.1475,370.3602 L107.1707,371.9231 L109.1464,373.4261 L111.2294,375.0645 L113.5602,377.0159 L115.5403,378.5244 L115.4621,378.4168 L117.8579,380.3086 L119.7219,381.4684 L122.1906,383.4605 L124.3189,384.984 L126.3553,386.3812 L126.416,386.4716 L128.5633,387.8727 L130.9279,389.5975 L133.0962,391.0299 L135.1825,392.34 L137.3368,393.7516 L137.3999,393.8528 L139.5127,395.079 L141.9184,396.7748 L143.9928,397.9395 L146.2035,399.3227 L148.3694,400.6341 L148.2332,400.4005 L150.4723,401.7571 L152.8754,403.395 L155.0465,404.6348 L157.1343,405.7319 L159.3376,407.027 L159.2689,406.9013 L161.4486,408.122 L163.5066,409.1201 L165.8992,410.7297 L168.1262,412.0367 L170.1261,412.9287 L170.2333,413.1367 L172.3663,414.2851 L174.2956,415.0383 L176.4399,416.2086 L178.4419,417.1028 L180.6195,418.3378 L180.6748,418.4512 L182.6842,419.4193 L184.7603,420.5244 L186.6246,421.1949 L188.6597,422.2159 L190.7025,423.2525 L190.7852,423.4314 L192.7197,424.3652 L194.4297,424.8133 L196.4006,425.8256 L198.376,426.8478 L200.2596,427.6714 L200.1503,427.4229 L202.106,428.5994 L203.8721,429.3449 L205.5911,429.9832 L207.4177,430.8664 L209.1755,431.5928 L209.2985,431.8924 L212.2119,432.733 L215.4073,434.2599 L218.4916,435.5167 L221.5522,436.7157 L224.622,437.9369 " fill="none" style="stroke: #A9A9A9; stroke-width: 2.0;"/><polygon fill="#A9A9A9" points="229.668,439.883,229.7176,439.9325,228.1789,438.3911,226.9309,437.1399,225.5882,435.7941,223.9343,434.1377,222.7112,432.9114,222.6876,432.9009,223.0397,433.8881,223.5111,434.9283,224.0656,436.0052,224.3341,436.9554,225.0032,438.0831,225.078,438.2518,223.8837,438.3494,222.9078,438.9396,221.9585,439.5899,220.8542,439.8905,219.8314,440.3751,219.8326,440.3978,221.7982,440.266,223.769,440.2377,225.7374,440.1594,227.7104,440.1764,229.668,439.883" style="stroke: #A9A9A9; stroke-width: 2.0;"/><text fill="#A9A9A9" font-family="courier" font-size="20" lengthAdjust="spacingAndGlyphs" textLength="12" x="70" y="315.1074">4</text><!--link o6 to o1--><path d="M215.643,194.361 L215.9215,194.3925 L216.2372,204.4026 L218.1854,214.5974 L219.6019,224.7321 L219.2704,234.669 L221.2557,244.868 L221.9368,254.9195 L223.1369,265.0296 L224.6978,275.1806 L225.0152,285.191 L227.8079,295.4813 L227.3825,305.4076 L229.0986,315.5761 L231.0761,325.7743 L231.5333,335.8004 L232.8805,345.9272 L233.8909,356.0159 L235.3128,366.1512 L236.5363,376.264 L238.1386,386.4197 L239.3948,396.5362 L240.5488,406.6412 L240.792,416.6431 " fill="none" style="stroke: #A9A9A9; stroke-width: 2.0;"/><polygon fill="#A9A9A9" points="241.364,421.698,241.4308,421.7191,241.8248,419.7779,242.6105,417.9603,243.2686,416.1024,243.5072,414.1123,244.3265,412.3053,244.3063,412.2891,243.5104,413.1016,242.8166,413.9954,242.1939,414.9458,241.3264,415.7012,240.8017,416.7297,240.9167,416.8741,239.7859,415.8604,238.9909,415.2682,238.2368,414.7274,237.2444,413.8875,236.3773,413.2049,236.3969,413.2164,237.3654,414.8981,238.4233,416.6323,239.4381,418.3411,240.535,420.0982,241.364,421.698" style="stroke: #A9A9A9; stroke-width: 2.0;"/><text fill="#A9A9A9" font-family="courier" font-size="20" lengthAdjust="spacingAndGlyphs" textLength="12" x="233" y="315.1074">6</text><!--link o12 to o1--><path d="M233.099,43.61 L233.147,43.6901 L235.7196,45.0794 L238.5736,46.9384 L241.336,48.6444 L243.7969,49.8474 L246.6751,51.7467 L246.6559,51.718 L249.544,53.5828 L252.5291,55.5923 L255.5815,57.7023 L258.4017,59.4658 L261.5472,61.7146 L261.6979,61.9092 L264.3504,63.7957 L267.4427,66.2504 L270.5887,68.7743 L273.4225,70.895 L276.4205,73.2277 L276.4413,73.2498 L279.1267,75.7718 L281.9067,78.3944 L284.641,80.9685 L287.4624,83.6352 L290,86 L290.2195,86.2019 L292.5952,88.7836 L294.8293,91.2351 L297.2706,93.8772 L299.7217,96.5282 L301.865,98.8961 L301.6238,98.685 L304.2122,101.5175 L306.0064,103.6549 L308.4043,106.3207 L310.1805,108.4423 L312.4663,111.01 L312.4428,110.9907 L314.6088,113.5161 L316.2253,115.59 L318.166,117.9303 L320.1339,120.293 L321.9055,122.4943 L322.0527,122.6064 L323.5798,124.6948 L325.3584,126.9747 L326.73,128.9448 L328.7087,131.3769 L330.2838,133.5019 L330.4839,133.6408 L331.9299,135.7512 L333.4752,137.9307 L334.5588,139.7895 L335.9809,141.8833 L337.7028,144.1853 L337.4685,144.0391 L338.9928,146.2739 L340.2531,148.344 L341.8963,150.653 L342.8857,152.554 L344.2638,154.6975 L344.1303,154.6237 L345.5134,156.8453 L346.3262,158.7515 L347.5446,160.882 L349.1597,163.232 L350.0682,165.1911 L350.2425,165.2755 L351.3919,167.459 L351.9993,169.3799 L353.2855,171.6296 L354.4239,173.8077 L355.2176,175.8189 L355.0241,175.7374 L356.0975,177.9853 L357.1075,180.2065 L358.242,182.4801 L358.8925,184.5499 L359.8133,186.7336 L360.0065,186.804 L360.4108,188.92 L361.188,191.1721 L362.5097,193.6229 L362.8288,195.7078 L363.9568,198.0879 L364.1724,198.1563 L364.8028,200.505 L365.3603,202.8305 L366.0825,205.2083 L367.1852,207.707 L367.7494,210.0346 L367.6213,209.9988 L368.7114,212.6437 L368.9301,215.0453 L370.1397,217.7235 L370.7913,220.246 L371.2926,222.7265 L371.3983,222.7528 L371.9921,225.4495 L372.964,228.2406 L373.5944,230.9464 L374.0818,233.6165 L374.6879,236.3162 L374.8041,236.3428 L375.3012,239.2313 L376.3378,242.2433 L376.7642,245.1157 L377.4416,248.0456 L378.0366,250.9565 L377.772,250.9008 L379.253,257.5281 L381.0528,264.2226 L382.4015,270.822 L383.5886,277.3874 L385,284 L384.8604,283.9682 L385.5259,286.7009 L385.9443,289.3773 L387.0421,292.2086 L387.8037,294.9632 L388.104,297.6127 L388.3343,297.6537 L388.8008,299.8695 L388.8295,302.0071 L389.3202,304.2272 L389.5051,306.3927 L390.0674,308.6255 L390.1934,308.6322 L390.0628,310.7713 L390.0844,312.9186 L389.6233,315.0401 L389.5515,317.1824 L389.497,319.3256 L389.6828,319.3915 L388.8353,321.9448 L387.4835,324.3192 L386.7176,326.9014 L385.9619,329.4873 L385,332 L384.7606,331.872 L384.0948,334.0269 L383.0136,335.9597 L381.8292,337.8374 L380.8807,339.8411 L379.7812,341.7641 L380.0536,341.9393 L378.4605,343.5604 L377.4914,345.5828 L376.2767,347.4473 L375.0094,349.2779 L373.7623,351.1215 L373.8124,351.1591 L372.4595,352.9409 L370.8542,354.5332 L369.5904,356.3819 L368.2256,358.1548 L367.0465,360.0671 L367.068,360.0855 L365.6142,361.7983 L364.1771,363.5253 L362.5624,365.1001 L361.1758,366.8704 L359.7366,368.5957 L359.6981,368.5586 L358.3612,370.3947 L356.7529,371.9697 L354.9006,373.31 L353.4726,375.0584 L351.9357,376.7022 L351.7602,376.5151 L350.3856,378.3316 L348.8452,379.9712 L347.188,381.4863 L345.2523,382.7045 L343.7469,384.3815 L343.8809,384.5383 L341.8376,385.5801 L340.4152,387.348 L338.5762,388.6287 L336.9959,390.2119 L335.2732,391.6286 L335.3392,391.7126 L333.6718,393.1555 L331.6131,394.101 L330.2104,395.8805 L328.3976,397.1386 L326.6175,398.4383 L326.7105,398.5659 L325.0664,399.9803 L323.1251,400.9871 L321.4227,402.3216 L319.6857,403.6087 L317.8829,404.8055 L317.9322,404.878 L316.1407,405.9891 L314.5763,407.4346 L312.5044,408.1331 L311.0558,409.749 L309.1725,410.7251 L309.0266,410.4892 L305.6589,412.6161 L302.4073,414.9306 L299.0173,417.0214 L295.5082,418.9196 L292.2362,421.2011 L292.3251,421.362 L289.1388,422.9683 L286.151,424.9335 L283.0174,426.6352 L279.6569,427.9262 L276.6326,429.8254 L276.5534,429.6673 L273.9176,431.1204 L271.3247,432.6594 L268.6448,434.0246 L265.9352,435.3305 L263.186,436.5572 " fill="none" style="stroke: #A9A9A9; stroke-width: 2.0;"/><polygon fill="#A9A9A9" points="258.294,438.8499,258.2954,438.9199,260.2606,438.672,262.234,438.8346,264.2048,438.8636,266.1667,438.4528,268.1408,438.6507,268.132,438.6264,267.0285,438.1323,265.9695,437.7611,264.9412,437.4753,263.8067,436.8952,262.8211,436.7272,262.9946,436.79,263.0082,435.5918,263.5285,434.5769,264.1106,433.5843,264.333,432.4617,264.7446,431.4074,264.7617,431.4223,263.4464,432.8889,262.2093,434.4234,260.9345,435.9251,259.7316,437.4893,258.294,438.8499" style="stroke: #A9A9A9; stroke-width: 2.0;"/><text fill="#A9A9A9" font-family="courier" font-size="20" lengthAdjust="spacingAndGlyphs" textLength="24" x="380" y="246.1074">12</text><!--link o2 to o2--><path d="M130.045,298.64 L130.0682,298.7305 L132.4581,297.8313 L134.9839,297.4625 L137.4655,296.9211 L139.8015,295.8115 L142.339,295.4883 L142.3374,295.4538 L144.5817,295.4008 L146.8339,295.5218 L149.0916,295.7637 L151.3304,295.5889 L153.5956,295.9978 L153.774,296.1672 L155.6734,298.2052 L158.0937,300.7381 L160.5774,303.3313 L162.6915,305.5733 L165,308 L165.0234,308.0193 L163.1042,310.2812 L161.2917,312.6308 L159.4277,314.9381 L157.6618,317.3262 L155.576,319.451 L155.6158,319.7466 L153.6953,320.0088 L151.7491,320.0804 L149.8404,320.431 L147.9336,320.7947 L145.9709,320.744 L145.9227,320.4271 L143.8294,320.7097 L141.5775,319.9489 L139.4462,319.9814 L137.1907,319.1969 L135.037,319.082 " fill="none" style="stroke: #A9A9A9; stroke-width: 2.0;"/><polygon fill="#A9A9A9" points="130.045,317.36,130.0928,317.4112,131.3913,318.6025,132.97,320.094,134.4575,321.4878,135.6449,322.5599,137.2476,324.0773,137.2244,324.0659,136.6246,322.9978,136.1422,321.9869,135.7415,321.0157,135.0595,319.9075,134.7714,318.9912,134.8522,319.1571,135.6967,318.307,136.777,317.9414,137.8861,317.6349,138.8278,316.9845,139.8575,316.515,139.8595,316.5376,137.8941,316.6734,135.9376,316.9123,133.9769,317.1014,132.0243,317.3855,130.045,317.36" style="stroke: #A9A9A9; stroke-width: 2.0;"/><text fill="#A9A9A9" font-family="courier" font-size="20" lengthAdjust="spacingAndGlyphs" textLength="12" x="172" y="315.1074">1</text><!--link o4 to o2--><path d="M34.1651,191.067 L34.394,191.2286 L39.5789,199.0573 L46.1058,207.8334 L52.1957,216.301 L56.8484,223.7541 L63.4059,232.5518 L68.8911,240.5925 L74.803,248.9345 L81.0116,257.4859 L86.1978,265.3156 L93.4191,274.5818 L98.6811,282.465 " fill="none" style="stroke: #A9A9A9; stroke-width: 2.0;"/><polygon fill="#A9A9A9" points="101.7768,286.85,101.8455,286.8637,101.2566,284.8912,101.0705,282.9989,100.7533,281.0805,100.0047,279.0762,99.8532,277.1908,99.8276,277.1864,99.521,278.2816,99.343,279.399,99.2546,280.5318,98.8578,281.6115,98.8928,282.7656,98.9241,282.9474,97.7422,282.3664,96.6517,282.3165,95.5724,282.3312,94.4282,281.9691,93.3181,281.8052,93.3297,281.8247,95.0044,282.805,96.732,283.8742,98.4341,284.9005,100.1851,286.0087,101.7768,286.85" style="stroke: #A9A9A9; stroke-width: 2.0;"/><text fill="#A9A9A9" font-family="courier" font-size="20" lengthAdjust="spacingAndGlyphs" textLength="12" x="79" y="246.1074">2</text><!--link o6 to o2--><path d="M201.831,194.101 L201.9137,194.1444 L200.2053,196.8009 L198.9817,199.712 L197.6002,202.5401 L195.6995,205.0956 L194.5175,208.0286 L194.4874,208.0116 L192.63,210.9995 L190.9245,214.0727 L189.3244,217.2052 L187.3607,220.1333 L185.9064,223.3478 L186.1162,223.4764 L183.7462,226.3355 L181.9888,229.57 L180.3061,232.8504 L178.1886,235.8643 L176.2998,239.0183 L176.3248,239.0355 L174.2282,242.0066 L172.2453,245.0559 L170.2075,248.0675 L168.2745,251.1511 L166,254 L166.2345,254.1843 L164.7004,256.142 L163.015,257.9809 L161.5511,259.9938 L160.0975,262.0148 L158.3152,263.7775 L158.0731,263.5674 L156.8885,265.8817 L154.9067,267.5042 L153.5309,269.6526 L151.5311,271.2595 L150.0427,273.3103 L150.0205,273.2895 L148.6115,275.3272 L146.6824,276.8795 L145.0602,278.7183 L143.4637,280.5811 L141.6814,282.2704 L141.8131,282.4003 L140.0899,283.8811 L138.5917,285.5839 L136.7295,286.9275 L135.4103,288.8068 L133.73,290.33 " fill="none" style="stroke: #A9A9A9; stroke-width: 2.0;"/><polygon fill="#A9A9A9" points="130.126,293.859,130.1505,293.9247,131.9236,293.0418,133.8401,292.5439,135.7099,291.9206,137.4262,290.8851,139.355,290.4202,139.3547,290.3943,138.2222,290.2662,137.0911,290.2686,135.9609,290.3619,134.8274,290.1422,133.6985,290.3608,133.883,290.3627,133.5003,289.2273,133.6563,288.0975,133.8781,286.9684,133.7174,285.8353,133.7579,284.7043,133.779,284.7126,133.0216,286.5313,132.3605,288.3881,131.6529,290.2265,131.0339,292.1,130.126,293.859" style="stroke: #A9A9A9; stroke-width: 2.0;"/><text fill="#A9A9A9" font-family="courier" font-size="20" lengthAdjust="spacingAndGlyphs" textLength="12" x="186" y="246.1074">3</text><!--link o12 to o2--><path d="M202.639,56.124 L202.7247,56.1612 L200.8048,59.8841 L199.3872,63.8251 L197.8061,67.6951 L195.6871,71.3314 L194.3126,75.2912 L194.2808,75.2778 L192.2486,79.7046 L190.377,84.199 L188.6169,88.7403 L186.4723,93.1198 L184.8662,97.726 L185.0945,97.818 L182.6625,102.4418 L180.8968,107.3342 L179.2125,112.2595 L177.0551,116.994 L175.1465,121.8288 L175.1748,121.8397 L174.1937,124.2591 L173.3414,126.7282 L172.427,129.1733 L171.6311,131.6641 L170.4487,134.0058 L170.7283,134.1095 L169.842,136.5096 L168.7753,138.8428 L167.9727,141.274 L167.1824,143.7097 L166,146 L165.6978,145.8932 L165.0417,149.6166 L163.3905,152.9883 L162.4959,156.6274 L160.8221,159.9911 L159.787,163.5805 L159.7581,163.5708 L158.8802,167.2907 L157.3285,170.7828 L156.1745,174.4094 L155.0537,178.0472 L153.6922,181.6036 L153.8681,181.6609 L152.5105,185.2241 L151.4535,188.8853 L149.9102,192.3879 L149.0923,196.127 L147.7921,199.7088 L148.0244,199.7822 L146.8546,203.3337 L145.8001,206.9216 L144.2097,210.3403 L143.0122,213.8831 L142.1628,217.5358 L141.8985,217.4555 L140.1095,224.2036 L138.0228,230.8613 L136.368,237.6501 L133.9758,244.215 L132.0219,250.913 L131.8755,250.8703 L130.4909,256.5292 L128.4806,262.0057 L126.9153,267.6118 L125.7853,273.3449 L123.88,278.852 " fill="none" style="stroke: #A9A9A9; stroke-width: 2.0;"/><polygon fill="#A9A9A9" points="122.455,283.847,122.5088,283.8919,123.612,282.2469,125.0305,280.8652,126.3463,279.3977,127.3245,277.6483,128.77,276.2892,128.7574,276.2666,127.7122,276.7149,126.7304,277.2773,125.7928,277.9191,124.7031,278.2874,123.8263,279.0387,123.9876,279.1284,123.0928,277.9479,122.6689,277.0292,122.3024,276.1425,121.6017,275.0699,121.0768,274.095,121.0993,274.0982,121.3419,276.0439,121.687,278.0042,121.9826,279.9574,122.3727,281.9239,122.455,283.847" style="stroke: #A9A9A9; stroke-width: 2.0;"/><text fill="#A9A9A9" font-family="courier" font-size="20" lengthAdjust="spacingAndGlyphs" textLength="12" x="168" y="177.1074">6</text><!--link o3 to o3--><path d="M323.045,298.64 L323.0682,298.7305 L325.4581,297.8313 L327.9839,297.4625 L330.4655,296.9211 L332.8015,295.8115 L335.339,295.4883 L335.3374,295.4538 L337.5817,295.4008 L339.8339,295.5218 L342.0916,295.7637 L344.3304,295.5889 L346.5956,295.9978 L346.774,296.1672 L348.6734,298.2052 L351.0937,300.7381 L353.5774,303.3313 L355.6915,305.5733 L358,308 L358.0234,308.0193 L356.1042,310.2812 L354.2917,312.6308 L352.4277,314.9381 L350.6618,317.3262 L348.576,319.451 L348.6158,319.7466 L346.6953,320.0088 L344.7491,320.0804 L342.8404,320.431 L340.9336,320.7947 L338.9709,320.744 L338.9227,320.4271 L336.8294,320.7097 L334.5775,319.9489 L332.4462,319.9814 L330.1907,319.1969 L328.037,319.082 " fill="none" style="stroke: #A9A9A9; stroke-width: 2.0;"/><polygon fill="#A9A9A9" points="323.045,317.36,323.0928,317.4112,324.3913,318.6025,325.97,320.094,327.4575,321.4878,328.6449,322.5599,330.2476,324.0773,330.2244,324.0659,329.6246,322.9978,329.1422,321.9869,328.7415,321.0157,328.0595,319.9075,327.7714,318.9912,327.8522,319.1571,328.6967,318.307,329.777,317.9414,330.8861,317.6349,331.8278,316.9845,332.8575,316.515,332.8595,316.5376,330.8941,316.6734,328.9376,316.9123,326.9769,317.1014,325.0243,317.3855,323.045,317.36" style="stroke: #A9A9A9; stroke-width: 2.0;"/><text fill="#A9A9A9" font-family="courier" font-size="20" lengthAdjust="spacingAndGlyphs" textLength="12" x="365" y="315.1074">1</text><!--link o6 to o3--><path d="M227.165,184.113 L227.2308,184.1793 L228.748,185.6799 L230.6508,187.5694 L232.428,189.3323 L233.7924,190.6786 L235.7283,192.6015 L235.7033,192.5777 L237.4513,194.4277 L239.3255,196.3977 L241.2874,198.451 L242.947,200.217 L245.03,202.3855 L245.2149,202.5479 L246.6851,204.3245 L248.6951,206.5753 L250.771,208.8839 L252.4637,210.8559 L254.3579,213.005 L254.3818,213.0237 L256.0752,215.1952 L257.8771,217.452 L259.6267,219.6677 L261.4762,221.9619 L263,224 L263.2463,224.1682 L265.1113,226.8971 L266.8173,229.5176 L268.756,232.2968 L270.7055,235.0835 L272.3097,237.6344 L272.0361,237.4674 L274.312,240.6504 L275.687,243.2835 L277.7469,246.3347 L279.1014,248.9554 L281.0341,251.9289 L281.0076,251.914 L282.9063,254.9214 L284.1844,257.5814 L285.8287,260.4464 L287.5037,263.3286 L288.957,266.0867 L289.121,266.1723 L290.3364,268.7307 L291.8321,271.4355 L292.8745,273.9035 L294.593,276.7246 L295.862,279.311 " fill="none" style="stroke: #A9A9A9; stroke-width: 2.0;"/><polygon fill="#A9A9A9" points="298.15,283.879,298.22,283.8822,297.9208,281.9049,298.032,279.9467,298.0095,277.9822,297.5476,275.9974,297.694,274.0407,297.6694,274.0325,297.2023,275.0695,296.8591,276.1477,296.602,277.2544,296.048,278.2626,295.9099,279.4089,295.9681,279.584,294.77,278.8527,293.7419,278.6327,292.7344,278.4751,291.6064,277.9545,290.5418,277.6248,290.5562,277.6424,292.0567,278.8674,293.6229,280.1725,295.1573,281.4389,296.7523,282.779,298.15,283.879" style="stroke: #A9A9A9; stroke-width: 2.0;"/><text fill="#A9A9A9" font-family="courier" font-size="20" lengthAdjust="spacingAndGlyphs" textLength="12" x="283" y="246.1074">2</text><!--link o12 to o3--><path d="M232.535,56.108 L232.6085,56.1656 L233.7592,57.7416 L235.3409,59.6554 L236.7822,61.4592 L237.762,62.9013 L239.3807,64.8441 L239.3531,64.8233 L240.6955,66.6812 L242.1771,68.6437 L243.7555,70.6789 L245.0004,72.4636 L246.7124,74.5992 L246.9124,74.7424 L248.0056,76.5605 L249.6829,78.7968 L251.4315,81.0841 L252.7654,83.0745 L254.3175,85.2211 L254.3426,85.2381 L255.8389,87.4804 L257.4495,89.8 L259.005,92.0824 L260.6657,94.4359 L261.9833,96.5574 L262.2354,96.7166 L263.7413,99.0982 L265.0845,101.3771 L266.6658,103.8064 L268.2582,106.2427 L269.4971,108.4557 L269.2199,108.2948 L271.1877,111.0688 L272.2428,113.3128 L273.9917,115.9598 L275.0262,118.1917 L276.6463,120.7639 L276.6193,120.7498 L278.2527,123.4297 L279.2558,125.78 L280.6308,128.3249 L282.0371,130.886 L283.2181,133.3294 L283.3864,133.4062 L284.3729,135.8628 L285.647,138.4506 L286.4558,140.8261 L287.9586,143.5183 L289,146 L289.2288,146.0836 L290.4219,149.4501 L291.7287,152.8581 L292.5075,156.0731 L293.6733,159.4296 L295.1819,162.9114 L294.9157,162.8378 L296.1316,166.4323 L297.0475,169.944 L298.3986,173.5758 L299.0067,177.0024 L300.0565,180.551 L299.9072,180.5202 L300.8984,184.1633 L301.2515,187.6745 L302.0584,191.2795 L303.3094,194.9764 L303.7696,198.5097 L303.9611,198.5386 L304.6319,202.1322 L304.7072,205.6357 L305.5285,209.252 L306.1872,212.8436 L306.4673,216.3781 L306.2584,216.3561 L306.7905,219.8474 L307.2542,223.3315 L307.8522,226.8297 L307.9279,230.2729 L308.2954,233.7469 L308.5005,233.7606 L308.2707,237.0223 L308.4369,240.3106 L309.1814,243.6377 L308.8611,246.8934 L309.3999,250.2066 L309.626,250.2145 L309.5971,253.2381 L309.4917,256.2591 L309.5589,259.2861 L310.0252,262.3269 L309.9268,265.3481 L309.7938,265.3472 L310.2089,268.0328 L309.7192,270.7119 L310.2583,273.3984 L310.2182,276.0808 L310.022,278.762 " fill="none" style="stroke: #A9A9A9; stroke-width: 2.0;"/><polygon fill="#A9A9A9" points="309.967,283.873,310.0307,283.9021,310.6609,282.0243,311.6646,280.3174,312.5466,278.5548,313.0287,276.6092,314.0645,274.917,314.0464,274.8984,313.1564,275.6066,312.3578,276.4081,311.6227,277.2745,310.6687,277.9173,310.0213,278.8733,310.1532,279.0024,309.0799,277.9177,308.3916,277.2099,307.7504,276.5481,306.8358,275.6187,306.0649,274.8301,306.0858,274.8391,306.8356,276.6345,307.6804,278.4708,308.4794,280.2874,309.3658,282.1418,309.967,283.873" style="stroke: #A9A9A9; stroke-width: 2.0;"/><text fill="#A9A9A9" font-family="courier" font-size="20" lengthAdjust="spacingAndGlyphs" textLength="12" x="304" y="177.1074">4</text><!--link o4 to o4--><path d="M34.0452,160.64 L34.0684,160.7305 L36.4583,159.8313 L38.9841,159.4625 L41.4657,158.9211 L43.8016,157.8115 L46.3392,157.4883 L46.3376,157.4538 L48.5819,157.4008 L50.8341,157.5218 L53.0917,157.7637 L55.3305,157.5889 L57.5957,157.9978 L57.7741,158.1672 L59.6735,160.2052 L62.0937,162.7381 L64.5775,165.3313 L66.6915,167.5733 L69,170 L69.0234,170.0193 L67.1042,172.2812 L65.2917,174.6308 L63.4277,176.9381 L61.6618,179.3262 L59.5761,181.451 L59.6159,181.7466 L57.6953,182.0088 L55.7491,182.0804 L53.8404,182.431 L51.9335,182.7947 L49.9709,182.744 L49.9227,182.4271 L47.8293,182.7097 L45.5774,181.9489 L43.446,181.9814 L41.1904,181.1969 L39.0366,181.082 " fill="none" style="stroke: #A9A9A9; stroke-width: 2.0;"/><polygon fill="#A9A9A9" points="34.0452,179.36,34.093,179.4112,35.3918,180.6022,36.9706,182.0936,38.4583,183.4871,39.646,184.559,41.2489,186.0761,41.2256,186.0648,40.6257,184.9967,40.1432,183.9859,39.7423,183.0148,39.0601,181.9066,38.7719,180.9904,38.8527,181.1563,39.697,180.3061,40.7773,179.9403,41.8864,179.6336,42.8279,178.9831,43.8576,178.5134,43.8596,178.5361,41.8942,178.6721,39.9378,178.9113,37.977,179.1008,36.0245,179.3852,34.0452,179.36" style="stroke: #A9A9A9; stroke-width: 2.0;"/><text fill="#A9A9A9" font-family="courier" font-size="20" lengthAdjust="spacingAndGlyphs" textLength="12" x="76" y="177.1074">1</text><!--link o12 to o4--><path d="M192.651,40.862 L192.687,40.9482 L190.783,41.4417 L189.09,42.4407 L187.3282,43.275 L185.3407,43.5682 L183.6657,44.6105 L183.6519,44.5788 L181.5822,45.3126 L179.582,46.206 L177.6303,47.2103 L175.5118,47.8323 L173.6268,48.9898 L173.7294,49.2134 L171.3442,49.7282 L169.2584,50.8959 L167.2092,52.1434 L164.9474,52.9273 L162.7974,53.955 L162.8106,53.9823 L160.5198,55.0434 L158.2893,56.2289 L156.0296,57.3544 L153.8254,58.5942 L151.4405,59.4612 L151.5774,59.7262 L149.2548,60.93 L146.8439,61.9628 L144.5623,63.2458 L142.2867,64.5406 L139.8192,65.4638 L139.6636,65.1835 L137.6411,67.0182 L135.1062,67.9301 L132.9609,69.5435 L130.4144,70.4345 L128.1967,71.9176 L128.1809,71.8916 L126.0949,73.5718 L123.6412,74.6432 L121.4044,76.0739 L119.1858,77.5348 L116.8359,78.778 L116.9385,78.9319 L114.6677,80.2209 L112.5723,81.773 L110.1933,82.8995 L108.2373,84.6608 L106,86 L106.1451,86.1957 L104.1725,87.6009 L102.2719,89.1032 L100.0366,90.154 L98.0467,91.5358 L96.2741,93.2108 L96.1005,92.996 L94.3393,94.742 L92.3824,96.246 L90.7093,98.1009 L88.5516,99.3566 L86.6821,100.9686 L86.5821,100.8534 L84.8779,102.6687 L82.7465,103.9918 L80.919,105.6649 L79.3886,107.6805 L77.329,109.0863 L77.4601,109.2287 L75.7482,110.9846 L73.6285,112.2972 L72.0197,114.1649 L70.2995,115.9117 L68.3201,117.3768 L68.1741,117.2258 L66.5785,119.0013 L64.9352,120.7275 L63.3857,122.5507 L61.4712,123.9963 L59.7605,125.6529 L59.9065,125.7976 L57.9848,127.0945 L56.3448,128.6708 L55.1166,130.6553 L53.1303,131.8883 L51.7557,133.7276 L51.9192,133.8838 L50.353,135.3282 L48.7315,136.7197 L47.2349,138.2306 L46.027,140.0173 L44.4106,141.4136 L44.3129,141.3233 L43.2876,143.0144 L41.5982,144.0909 L40.6639,145.8662 L39.3045,147.2481 L37.8305,148.524 " fill="none" style="stroke: #A9A9A9; stroke-width: 2.0;"/><polygon fill="#A9A9A9" points="34.2651,152.468,34.2935,152.532,36.0098,151.5433,37.8926,150.93,39.7212,150.1945,41.3715,149.0569,43.2686,148.4759,43.2673,148.45,42.1315,148.3906,41.0023,148.4617,39.8776,148.6234,38.7372,148.4727,37.6189,148.7596,37.8032,148.7688,37.3523,147.6191,37.4395,146.4964,37.5924,145.377,37.3633,144.2384,37.3351,143.1099,37.3567,143.1169,36.711,144.9782,36.1637,146.8717,35.5689,148.7496,35.0646,150.6572,34.2651,152.468" style="stroke: #A9A9A9; stroke-width: 2.0;"/><text fill="#A9A9A9" font-family="courier" font-size="20" lengthAdjust="spacingAndGlyphs" textLength="12" x="108" y="108.1074">3</text><!--link o6 to o6--><path d="M227.045,160.64 L227.0682,160.7305 L229.4581,159.8313 L231.9839,159.4625 L234.4655,158.9211 L236.8015,157.8115 L239.339,157.4883 L239.3374,157.4538 L241.5817,157.4008 L243.8339,157.5218 L246.0916,157.7637 L248.3304,157.5889 L250.5956,157.9978 L250.774,158.1672 L252.6734,160.2052 L255.0937,162.7381 L257.5774,165.3313 L259.6915,167.5733 L262,170 L262.0234,170.0193 L260.1042,172.2812 L258.2917,174.6308 L256.4277,176.9381 L254.6618,179.3262 L252.576,181.451 L252.6158,181.7466 L250.6953,182.0088 L248.7491,182.0804 L246.8404,182.431 L244.9336,182.7947 L242.9709,182.744 L242.9227,182.4271 L240.8294,182.7097 L238.5775,181.9489 L236.4462,181.9814 L234.1907,181.1969 L232.037,181.082 " fill="none" style="stroke: #A9A9A9; stroke-width: 2.0;"/><polygon fill="#A9A9A9" points="227.045,179.36,227.0928,179.4112,228.3913,180.6025,229.97,182.094,231.4575,183.4878,232.6449,184.5599,234.2476,186.0773,234.2244,186.0659,233.6246,184.9978,233.1422,183.9869,232.7415,183.0157,232.0595,181.9075,231.7714,180.9912,231.8522,181.1571,232.6967,180.307,233.777,179.9414,234.8861,179.6349,235.8278,178.9845,236.8575,178.515,236.8595,178.5376,234.8941,178.6734,232.9376,178.9123,230.9769,179.1014,229.0243,179.3855,227.045,179.36" style="stroke: #A9A9A9; stroke-width: 2.0;"/><text fill="#A9A9A9" font-family="courier" font-size="20" lengthAdjust="spacingAndGlyphs" textLength="12" x="269" y="177.1074">1</text><!--link o12 to o6--><path d="M213,56.071 L213.2802,56.071 L212.4476,66.6421 L213.2577,77.2133 L213.5329,87.7844 L212.0488,98.3555 L212.8964,108.9266 L212.4313,119.4978 L212.4887,130.0689 L213,140.64 " fill="none" style="stroke: #A9A9A9; stroke-width: 2.0;"/><polygon fill="#A9A9A9" points="213,145.816,213.064,145.8445,213.6738,143.9599,214.6589,142.2422,215.5217,140.4701,215.9827,138.5194,217,136.816,216.9817,136.7977,216.0995,137.5155,215.3096,138.3256,214.5839,139.1999,213.637,139.853,213,140.816,213.1305,140.9465,212.0514,139.8674,211.3534,139.1694,210.7018,138.5178,209.7798,137.5958,209,136.816,209.0208,136.8252,209.7903,138.6117,210.6544,140.4402,211.4728,142.2484,212.3784,144.0953,213,145.816" style="stroke: #A9A9A9; stroke-width: 2.0;"/><text fill="#A9A9A9" font-family="courier" font-size="20" lengthAdjust="spacingAndGlyphs" textLength="12" x="215" y="108.1074">2</text><!--link o12 to o12--><path d="M233.022,21.274 L233.0365,21.3663 L235.5251,20.6934 L238.0988,20.5614 L240.6449,20.2533 L243.0996,19.3659 L245.6807,19.2803 L245.6773,19.246 L247.9067,19.3163 L250.1535,19.5599 L252.4123,19.924 L254.6296,19.873 L256.9051,20.4034 L257.0829,20.5735 L258.9217,22.529 L261.2796,24.9813 L263.7008,27.4941 L265.7535,29.6543 L268,32 L268.0233,32.0194 L266.1595,34.1884 L264.4017,36.4457 L262.5928,38.6604 L260.8815,40.9565 L258.8519,42.9874 L258.9049,43.2809 L257.002,43.6285 L255.0649,43.7868 L253.1779,44.2222 L251.2932,44.6707 L249.3341,44.7076 L249.3112,44.3879 L247.1339,44.8493 L244.8811,44.2579 L242.6856,44.4669 L240.4311,43.8517 L238.225,43.912 " fill="none" style="stroke: #A9A9A9; stroke-width: 2.0;"/><polygon fill="#A9A9A9" points="233.022,42.726,233.064,42.7821,234.5164,43.7956,236.2148,45.1379,237.8331,46.3731,239.188,47.2562,240.9075,48.6267,240.8856,48.6129,240.185,47.5932,239.595,46.643,239.0819,45.7411,238.3039,44.6727,237.8969,43.8376,237.9951,43.9938,238.7429,43.0576,239.7775,42.5775,240.847,42.1531,241.713,41.4048,242.686,40.8269,242.6904,40.8492,240.7512,41.1963,238.8319,41.6449,236.903,42.0446,234.9925,42.5377,233.022,42.726" style="stroke: #A9A9A9; stroke-width: 2.0;"/><text fill="#A9A9A9" font-family="courier" font-size="20" lengthAdjust="spacingAndGlyphs" textLength="12" x="275" y="39.1074">1</text><!--
@startuml
skinparam backgroundColor #222222

skinparam handwritten true

skinparam shadowing false
skinparam padding 1
skinparam arrow {
    Thickness 2
    Color #DarkGrey
    FontSize 20
    FontName courier
    FontStyle normal
    FontColor #DarkGrey
}

skinparam object {
    BorderThickness 3
    BorderColor<<A>> #ForestGreen
    BorderColor #Crimson
    BorderColor<<C>> #DodgerBlue
    BackgroundColor #222222
    FontSize 20
    FontName courier
    FontStyle bold
    FontColor<<A>> #ForestGreen
    FontColor #Crimson
    FontColor<<C>> #DodgerBlue
}

hide circle
hide stereotype

object "1" as o1
object "2" as o2
object "3" as o3
object "4" as o4
object "6" as o6
object "12"  as o12


o1 - -> o1 : 1
o2 - -> o1 : 2
o3 - -> o1 : 3
o4 - -> o1 : 4
o6 - -> o1 : 6
o12 - -> o1 : 12

o2 - -> o2 : 1
o4 - -> o2 : 2
o6 - -> o2 : 3
o12 - -> o2 : 6

o3 - -> o3 : 1
o6 - -> o3 : 2
o12 - -> o3 : 4

o4 - -> o4 : 1
o12 - -> o4 : 3

o6 - -> o6 : 1
o12 - -> o6 : 2

o12 - -> o12 : 1
@enduml

PlantUML version 1.2019.05(Sat Apr 20 18:45:36 CEST 2019)
(GPL source distribution)
Java Runtime: Java(TM) SE Runtime Environment
JVM: Java HotSpot(TM) 64-Bit Server VM
Java Version: 11.0.8+10-LTS
Operating System: Windows 10
OS Version: 10.0
Default Encoding: windows-1252
Language: es
Country: ES
--></g></svg>