<?xml version="1.0" encoding="UTF-8" standalone="no"?><svg xmlns="http://www.w3.org/2000/svg" xmlns:xlink="http://www.w3.org/1999/xlink" contentScriptType="application/ecmascript" contentStyleType="text/css" height="579px" preserveAspectRatio="none" style="width:512px;height:579px;background:#222222;" version="1.1" viewBox="0 0 512 579" width="512px" zoomAndPan="magnify"><defs/><g><!--cluster Secuencia--><polygon fill="#222222" points="22,24,22,24.2102,31.6667,23.5857,41.3333,24.1933,51,24.3997,60.6667,23.2866,70.3333,23.9223,80,23.5735,89.6667,23.6165,99.3333,23.9318,109,23.3086,118.6667,24.5536,128.3333,23.3697,138,24,137.9354,23.9867,139.541,30.8516,140.772,37.6396,142.2223,44.4725,143.5896,51.2885,145,58.1133,145,58.1728,145.6,58.193,146.2,58.3085,146.8,58.337,147.4,58.3397,148,58.1133,148.2546,58.1133,148.4636,68.0915,148.7022,78.0696,147.2788,88.0478,148.6785,98.026,147.7035,108.0041,148.5338,117.9823,147.505,127.9605,147.9315,137.9386,148.7416,147.9168,147.9513,157.895,148.1053,167.8732,148.3386,177.8513,148.4162,187.8295,147.9961,197.8077,148.2872,207.7858,147.4276,217.764,148.2844,227.7422,148.5482,237.7204,148.4445,247.6985,148.613,257.6767,147.5169,267.6549,147.3478,277.633,147.3786,287.6112,147.9411,297.5894,147.8035,307.5676,148.6814,317.5457,147.8253,327.5239,147.6569,337.5021,148.2283,347.4802,147.3332,357.4584,147.4809,367.4366,148.649,377.4148,148.4357,387.3929,148.7345,397.3711,147.6782,407.3493,148.3192,417.3274,148.5904,427.3056,147.5276,437.2838,147.9041,447.2619,148.126,457.2401,148.6518,467.2183,147.9958,477.1965,148.4626,487.1746,147.4462,497.1528,147.3227,507.131,148.5036,517.1091,147.2831,527.0873,148.509,537.0655,148.2066,547.0437,147.7321,557.0218,148,567,148,566.6462,138.3077,567.4588,128.6154,566.7007,118.9231,567.5919,109.2308,566.4473,99.5385,567.6174,89.8462,567.4843,80.1538,567.245,70.4615,567.0472,60.7692,567.7266,51.0769,567.6136,41.3846,567.1693,31.6923,567.2682,22,567,21.8697,567,22.7165,556.9444,22.1549,546.8889,22.1726,536.8333,21.3916,526.7778,21.5948,516.7222,22.5307,506.6667,22.4298,496.6111,21.9571,486.5556,21.6778,476.5,21.7811,466.4444,21.3138,456.3889,22.4147,446.3333,22.7396,436.2778,22.5264,426.2222,22.6949,416.1667,21.8633,406.1111,22.0872,396.0556,21.6124,386,22.284,375.9444,22.2468,365.8889,22.5524,355.8333,21.7703,345.7778,21.8656,335.7222,22.4435,325.6667,22.5673,315.6111,21.4875,305.5556,21.8061,295.5,22.1493,285.4444,21.3892,275.3889,22.3534,265.3333,22.258,255.2778,21.8992,245.2222,22.1422,235.1667,22.7287,225.1111,21.6871,215.0556,22.315,205,22.2856,194.9444,22.1158,184.8889,22.1409,174.8333,22.1135,164.7778,21.3758,154.7222,21.5992,144.6667,21.5385,134.6111,22.0638,124.5556,22.0881,114.5,22.1617,104.4444,21.709,94.3889,21.9325,84.3333,21.8798,74.2778,22.5769,64.2222,22.4266,54.1667,21.5145,44.1111,21.9271,34.0556,22,24" style="stroke: #1E90FF; stroke-width: 3.0;"/><path d="M22,58.1133 L22,58.3935 L32.25,57.5609 L42.5,58.371 L52.75,58.6462 L63,57.1621 L73.25,58.0097 L83.5,57.5446 L93.75,57.6019 L104,58.0224 L114.25,57.1915 L124.5,58.8515 L134.75,57.2729 L145,58.1133 " fill="#222222" style="stroke: #1E90FF; stroke-width: 3.0;"/><text fill="#1E90FF" font-family="courier" font-size="20" font-weight="bold" lengthAdjust="spacingAndGlyphs" textLength="108" x="27" y="47.1074">Secuencia</text><!--cluster Arbol--><polygon fill="#222222" points="172,24,172,24.2102,181.7143,23.5857,191.4286,24.1933,201.1429,24.3997,210.8571,23.2866,220.5714,23.9223,230.2857,23.5735,240,24,239.8748,23.9743,241.3777,30.8181,242.5742,37.599,244.3808,44.5051,245.3942,51.2484,247,58.1133,247,57.9155,256.6,58.5452,266.2,58.0275,275.8,58.1815,285.4,58.0813,295,58.1133,295.1785,58.1133,295.2391,68.2128,295.5857,78.3124,295.6711,88.4119,295.6793,98.5114,295.2546,108.611,295.4636,118.7105,295.7022,128.8101,294.2788,138.9096,295.6785,149.0092,294.7035,159.1087,295.5338,169.2082,294.505,179.3078,294.9315,189.4073,295.7416,199.5069,294.9513,209.6064,295.1053,219.706,295.3386,229.8055,295.4162,239.905,294.9961,250.0046,295.2872,260.1041,294.4276,270.2037,295.2844,280.3032,295.5482,290.4027,295.4445,300.5023,295.613,310.6018,294.5169,320.7014,294.3478,330.8009,294.3786,340.9005,295,351,295,350.9411,284.75,350.8035,274.5,351.6814,264.25,350.8253,254,350.6569,243.75,351.2283,233.5,350.3332,223.25,350.4809,213,351.649,202.75,351.4357,192.5,351.7345,182.25,350.6782,172,351,172.3192,351,172.5904,341.0909,171.5276,331.1818,171.9041,321.2727,172.126,311.3636,172.6518,301.4545,171.9958,291.5455,172.4626,281.6364,171.4462,271.7273,171.3227,261.8182,172.5036,251.9091,171.2831,242,172.509,232.0909,172.2066,222.1818,171.7321,212.2727,171.6462,202.3636,172.4588,192.4545,171.7007,182.5455,172.5919,172.6364,171.4473,162.7273,172.6174,152.8182,172.4843,142.9091,172.245,133,172.0472,123.0909,172.7266,113.1818,172.6136,103.2727,172.1693,93.3636,172.2682,83.4545,171.8697,73.5455,172.7165,63.6364,172.1549,53.7273,172.1726,43.8182,171.3916,33.9091,172,24" style="stroke: #228B22; stroke-width: 3.0;"/><path d="M172,58.1133 L172,58.3935 L181.375,57.5609 L190.75,58.371 L200.125,58.6462 L209.5,57.1621 L218.875,58.0097 L228.25,57.5446 L237.625,57.6019 L247,58.1133 " fill="#222222" style="stroke: #228B22; stroke-width: 3.0;"/><text fill="#228B22" font-family="courier" font-size="20" font-weight="bold" lengthAdjust="spacingAndGlyphs" textLength="60" x="177" y="47.1074">Arbol</text><!--cluster Grafo--><polygon fill="#222222" points="319,24,319,24.2102,328.7143,23.5857,338.4286,24.1933,348.1429,24.3997,357.8571,23.2866,367.5714,23.9223,377.2857,23.5735,387,24,386.8748,23.9743,388.3777,30.8181,389.5742,37.599,391.3808,44.5051,392.3942,51.2484,394,58.1133,394,57.9155,403.6,58.5452,413.2,58.0275,422.8,58.1815,432.4,58.0813,442,58.2918,451.6,58.3524,461.2,58.699,470.8,58.7843,480.4,58.7925,490,58.1133,490.2546,58.1133,490.4636,68.0915,490.7022,78.0696,489.2788,88.0478,490.6785,98.026,489.7035,108.0041,490.5338,117.9823,489.505,127.9605,489.9315,137.9386,490.7416,147.9168,489.9513,157.895,490.1053,167.8732,490.3386,177.8513,490.4162,187.8295,489.9961,197.8077,490.2872,207.7858,489.4276,217.764,490.2844,227.7422,490.5482,237.7204,490.4445,247.6985,490.613,257.6767,489.5169,267.6549,489.3478,277.633,489.3786,287.6112,489.9411,297.5894,489.8035,307.5676,490.6814,317.5457,489.8253,327.5239,489.6569,337.5021,490.2283,347.4802,489.3332,357.4584,489.4809,367.4366,490.649,377.4148,490.4357,387.3929,490.7345,397.3711,489.6782,407.3493,490.3192,417.3274,490.5904,427.3056,489.5276,437.2838,489.9041,447.2619,490.126,457.2401,490.6518,467.2183,489.9958,477.1965,490.4626,487.1746,489.4462,497.1528,489.3227,507.131,490.5036,517.1091,489.2831,527.0873,490.509,537.0655,490.2066,547.0437,489.7321,557.0218,490,567,490,566.6462,479.9412,567.4588,469.8824,566.7007,459.8235,567.5919,449.7647,566.4473,439.7059,567.6174,429.6471,567.4843,419.5882,567.245,409.5294,567.0472,399.4706,567.7266,389.4118,567.6136,379.3529,567.1693,369.2941,567.2682,359.2353,566.8697,349.1765,567.7165,339.1176,567.1549,329.0588,567.1726,319,567,318.3916,567,318.5948,556.9444,319.5307,546.8889,319.4298,536.8333,318.9571,526.7778,318.6778,516.7222,318.7811,506.6667,318.3138,496.6111,319.4147,486.5556,319.7396,476.5,319.5264,466.4444,319.6949,456.3889,318.8633,446.3333,319.0872,436.2778,318.6124,426.2222,319.284,416.1667,319.2468,406.1111,319.5524,396.0556,318.7703,386,318.8656,375.9444,319.4435,365.8889,319.5673,355.8333,318.4875,345.7778,318.8061,335.7222,319.1493,325.6667,318.3892,315.6111,319.3534,305.5556,319.258,295.5,318.8992,285.4444,319.1422,275.3889,319.7287,265.3333,318.6871,255.2778,319.315,245.2222,319.2856,235.1667,319.1158,225.1111,319.1409,215.0556,319.1135,205,318.3758,194.9444,318.5992,184.8889,318.5385,174.8333,319.0638,164.7778,319.0881,154.7222,319.1617,144.6667,318.709,134.6111,318.9325,124.5556,318.8798,114.5,319.5769,104.4444,319.4266,94.3889,318.5145,84.3333,318.9271,74.2778,318.4228,64.2222,319.2884,54.1667,319.6085,44.1111,319.5446,34.0556,319,24" style="stroke: #DC143C; stroke-width: 3.0;"/><path d="M319,58.1133 L319,58.3935 L328.375,57.5609 L337.75,58.371 L347.125,58.6462 L356.5,57.1621 L365.875,58.0097 L375.25,57.5446 L384.625,57.6019 L394,58.1133 " fill="#222222" style="stroke: #DC143C; stroke-width: 3.0;"/><text fill="#DC143C" font-family="courier" font-size="20" font-weight="bold" lengthAdjust="spacingAndGlyphs" textLength="60" x="324" y="47.1074">Grafo</text><polygon fill="#222222" points="71,71,71,71.0701,76.6,70.8619,82.2,71.0644,87.8,71.1332,93.4,70.7622,99,71,98.9223,71,98.5735,80.6227,98.6165,90.2453,98.9318,99.868,98.3086,109.4906,99,119.1133,99,119.2978,93.4,118.9032,87.8,119.0474,82.2,119.2573,76.6,119.0847,71,119.1133,71.0682,119.1133,70.9681,109.4906,71.1785,99.868,71.2391,90.2453,71.5857,80.6227,71,71" style="stroke: #1E90FF; stroke-width: 3.0;"/><text fill="#1E90FF" font-family="courier" font-size="20" font-weight="bold" lengthAdjust="spacingAndGlyphs" textLength="12" x="79" y="94.1074">A</text><path d="M72,103.1133 L72,103.2067 L77.2,102.9291 L82.4,103.1992 L87.6,103.2909 L92.8,102.7962 L98,103.1133 " fill="#222222" style="stroke: #1E90FF; stroke-width: 3.0;"/><polygon fill="#222222" points="71,179,71,179.0701,76.6,178.8619,82.2,179.0644,87.8,179.1332,93.4,178.7622,99,179,98.9223,179,98.5735,188.6227,98.6165,198.2453,98.9318,207.868,98.3086,217.4906,99,227.1133,99,227.2978,93.4,226.9032,87.8,227.0474,82.2,227.2573,76.6,227.0847,71,227.1133,71.0682,227.1133,70.9681,217.4906,71.1785,207.868,71.2391,198.2453,71.5857,188.6227,71,179" style="stroke: #1E90FF; stroke-width: 3.0;"/><text fill="#1E90FF" font-family="courier" font-size="20" font-weight="bold" lengthAdjust="spacingAndGlyphs" textLength="12" x="79" y="202.1074">B</text><path d="M72,211.1133 L72,211.2067 L77.2,210.9291 L82.4,211.1992 L87.6,211.2909 L92.8,210.7962 L98,211.1133 " fill="#222222" style="stroke: #1E90FF; stroke-width: 3.0;"/><polygon fill="#222222" points="71,287,71,287.0701,76.6,286.8619,82.2,287.0644,87.8,287.1332,93.4,286.7622,99,287,98.9223,287,98.5735,296.6227,98.6165,306.2453,98.9318,315.868,98.3086,325.4906,99,335.1133,99,335.2978,93.4,334.9032,87.8,335.0474,82.2,335.2573,76.6,335.0847,71,335.1133,71.0682,335.1133,70.9681,325.4906,71.1785,315.868,71.2391,306.2453,71.5857,296.6227,71,287" style="stroke: #1E90FF; stroke-width: 3.0;"/><text fill="#1E90FF" font-family="courier" font-size="20" font-weight="bold" lengthAdjust="spacingAndGlyphs" textLength="12" x="79" y="310.1074">C</text><path d="M72,319.1133 L72,319.2067 L77.2,318.9291 L82.4,319.1992 L87.6,319.2909 L92.8,318.7962 L98,319.1133 " fill="#222222" style="stroke: #1E90FF; stroke-width: 3.0;"/><polygon fill="#222222" points="71,395,71,395.0701,76.6,394.8619,82.2,395.0644,87.8,395.1332,93.4,394.7622,99,395,98.9223,395,98.5735,404.6227,98.6165,414.2453,98.9318,423.868,98.3086,433.4906,99,443.1133,99,443.2978,93.4,442.9032,87.8,443.0474,82.2,443.2573,76.6,443.0847,71,443.1133,71.0682,443.1133,70.9681,433.4906,71.1785,423.868,71.2391,414.2453,71.5857,404.6227,71,395" style="stroke: #1E90FF; stroke-width: 3.0;"/><text fill="#1E90FF" font-family="courier" font-size="20" font-weight="bold" lengthAdjust="spacingAndGlyphs" textLength="12" x="79" y="418.1074">D</text><path d="M72,427.1133 L72,427.2067 L77.2,426.9291 L82.4,427.1992 L87.6,427.2909 L92.8,426.7962 L98,427.1133 " fill="#222222" style="stroke: #1E90FF; stroke-width: 3.0;"/><polygon fill="#222222" points="71,503,71,503.0701,76.6,502.8619,82.2,503.0644,87.8,503.1332,93.4,502.7622,99,503,98.9223,503,98.5735,512.6227,98.6165,522.2453,98.9318,531.868,98.3086,541.4906,99,551.1133,99,551.2978,93.4,550.9032,87.8,551.0474,82.2,551.2573,76.6,551.0847,71,551.1133,71.0682,551.1133,70.9681,541.4906,71.1785,531.868,71.2391,522.2453,71.5857,512.6227,71,503" style="stroke: #1E90FF; stroke-width: 3.0;"/><text fill="#1E90FF" font-family="courier" font-size="20" font-weight="bold" lengthAdjust="spacingAndGlyphs" textLength="12" x="79" y="526.1074">E</text><path d="M72,535.1133 L72,535.2067 L77.2,534.9291 L82.4,535.1992 L87.6,535.2909 L92.8,534.7962 L98,535.1133 " fill="#222222" style="stroke: #1E90FF; stroke-width: 3.0;"/><polygon fill="#222222" points="219,71,219,71.0701,224.6,70.8619,230.2,71.0644,235.8,71.1332,241.4,70.7622,247,71,246.9223,71,246.5735,80.6227,246.6165,90.2453,246.9318,99.868,246.3086,109.4906,247,119.1133,247,119.2978,241.4,118.9032,235.8,119.0474,230.2,119.2573,224.6,119.0847,219,119.1133,219.0682,119.1133,218.9681,109.4906,219.1785,99.868,219.2391,90.2453,219.5857,80.6227,219,71" style="stroke: #228B22; stroke-width: 3.0;"/><text fill="#228B22" font-family="courier" font-size="20" font-weight="bold" lengthAdjust="spacingAndGlyphs" textLength="12" x="227" y="94.1074">A</text><path d="M220,103.1133 L220,103.2067 L225.2,102.9291 L230.4,103.1992 L235.6,103.2909 L240.8,102.7962 L246,103.1133 " fill="#222222" style="stroke: #228B22; stroke-width: 3.0;"/><polygon fill="#222222" points="188,179,188,179.0701,193.6,178.8619,199.2,179.0644,204.8,179.1332,210.4,178.7622,216,179,215.9223,179,215.5735,188.6227,215.6165,198.2453,215.9318,207.868,215.3086,217.4906,216,227.1133,216,227.2978,210.4,226.9032,204.8,227.0474,199.2,227.2573,193.6,227.0847,188,227.1133,188.0682,227.1133,187.9681,217.4906,188.1785,207.868,188.2391,198.2453,188.5857,188.6227,188,179" style="stroke: #228B22; stroke-width: 3.0;"/><text fill="#228B22" font-family="courier" font-size="20" font-weight="bold" lengthAdjust="spacingAndGlyphs" textLength="12" x="196" y="202.1074">B</text><path d="M189,211.1133 L189,211.2067 L194.2,210.9291 L199.4,211.1992 L204.6,211.2909 L209.8,210.7962 L215,211.1133 " fill="#222222" style="stroke: #228B22; stroke-width: 3.0;"/><polygon fill="#222222" points="251,179,251,179.0701,256.6,178.8619,262.2,179.0644,267.8,179.1332,273.4,178.7622,279,179,278.9223,179,278.5735,188.6227,278.6165,198.2453,278.9318,207.868,278.3086,217.4906,279,227.1133,279,227.2978,273.4,226.9032,267.8,227.0474,262.2,227.2573,256.6,227.0847,251,227.1133,251.0682,227.1133,250.9681,217.4906,251.1785,207.868,251.2391,198.2453,251.5857,188.6227,251,179" style="stroke: #228B22; stroke-width: 3.0;"/><text fill="#228B22" font-family="courier" font-size="20" font-weight="bold" lengthAdjust="spacingAndGlyphs" textLength="12" x="259" y="202.1074">C</text><path d="M252,211.1133 L252,211.2067 L257.2,210.9291 L262.4,211.1992 L267.6,211.2909 L272.8,210.7962 L278,211.1133 " fill="#222222" style="stroke: #228B22; stroke-width: 3.0;"/><polygon fill="#222222" points="188,287,188,287.0701,193.6,286.8619,199.2,287.0644,204.8,287.1332,210.4,286.7622,216,287,215.9223,287,215.5735,296.6227,215.6165,306.2453,215.9318,315.868,215.3086,325.4906,216,335.1133,216,335.2978,210.4,334.9032,204.8,335.0474,199.2,335.2573,193.6,335.0847,188,335.1133,188.0682,335.1133,187.9681,325.4906,188.1785,315.868,188.2391,306.2453,188.5857,296.6227,188,287" style="stroke: #228B22; stroke-width: 3.0;"/><text fill="#228B22" font-family="courier" font-size="20" font-weight="bold" lengthAdjust="spacingAndGlyphs" textLength="12" x="196" y="310.1074">D</text><path d="M189,319.1133 L189,319.2067 L194.2,318.9291 L199.4,319.1992 L204.6,319.2909 L209.8,318.7962 L215,319.1133 " fill="#222222" style="stroke: #228B22; stroke-width: 3.0;"/><polygon fill="#222222" points="251,287,251,287.0701,256.6,286.8619,262.2,287.0644,267.8,287.1332,273.4,286.7622,279,287,278.9223,287,278.5735,296.6227,278.6165,306.2453,278.9318,315.868,278.3086,325.4906,279,335.1133,279,335.2978,273.4,334.9032,267.8,335.0474,262.2,335.2573,256.6,335.0847,251,335.1133,251.0682,335.1133,250.9681,325.4906,251.1785,315.868,251.2391,306.2453,251.5857,296.6227,251,287" style="stroke: #228B22; stroke-width: 3.0;"/><text fill="#228B22" font-family="courier" font-size="20" font-weight="bold" lengthAdjust="spacingAndGlyphs" textLength="12" x="259" y="310.1074">E</text><path d="M252,319.1133 L252,319.2067 L257.2,318.9291 L262.4,319.1992 L267.6,319.2909 L272.8,318.7962 L278,319.1133 " fill="#222222" style="stroke: #228B22; stroke-width: 3.0;"/><polygon fill="#222222" points="422,71,422,71.0701,427.6,70.8619,433.2,71.0644,438.8,71.1332,444.4,70.7622,450,71,449.9223,71,449.5735,80.6227,449.6165,90.2453,449.9318,99.868,449.3086,109.4906,450,119.1133,450,119.2978,444.4,118.9032,438.8,119.0474,433.2,119.2573,427.6,119.0847,422,119.1133,422.0682,119.1133,421.9681,109.4906,422.1785,99.868,422.2391,90.2453,422.5857,80.6227,422,71" style="stroke: #DC143C; stroke-width: 3.0;"/><text fill="#DC143C" font-family="courier" font-size="20" font-weight="bold" lengthAdjust="spacingAndGlyphs" textLength="12" x="430" y="94.1074">A</text><path d="M423,103.1133 L423,103.2067 L428.2,102.9291 L433.4,103.1992 L438.6,103.2909 L443.8,102.7962 L449,103.1133 " fill="#222222" style="stroke: #DC143C; stroke-width: 3.0;"/><polygon fill="#222222" points="390,395,390,395.0701,395.6,394.8619,401.2,395.0644,406.8,395.1332,412.4,394.7622,418,395,417.9223,395,417.5735,404.6227,417.6165,414.2453,417.9318,423.868,417.3086,433.4906,418,443.1133,418,443.2978,412.4,442.9032,406.8,443.0474,401.2,443.2573,395.6,443.0847,390,443.1133,390.0682,443.1133,389.9681,433.4906,390.1785,423.868,390.2391,414.2453,390.5857,404.6227,390,395" style="stroke: #DC143C; stroke-width: 3.0;"/><text fill="#DC143C" font-family="courier" font-size="20" font-weight="bold" lengthAdjust="spacingAndGlyphs" textLength="12" x="398" y="418.1074">B</text><path d="M391,427.1133 L391,427.2067 L396.2,426.9291 L401.4,427.1992 L406.6,427.2909 L411.8,426.7962 L417,427.1133 " fill="#222222" style="stroke: #DC143C; stroke-width: 3.0;"/><polygon fill="#222222" points="372,287,372,287.0701,377.6,286.8619,383.2,287.0644,388.8,287.1332,394.4,286.7622,400,287,399.9223,287,399.5735,296.6227,399.6165,306.2453,399.9318,315.868,399.3086,325.4906,400,335.1133,400,335.2978,394.4,334.9032,388.8,335.0474,383.2,335.2573,377.6,335.0847,372,335.1133,372.0682,335.1133,371.9681,325.4906,372.1785,315.868,372.2391,306.2453,372.5857,296.6227,372,287" style="stroke: #DC143C; stroke-width: 3.0;"/><text fill="#DC143C" font-family="courier" font-size="20" font-weight="bold" lengthAdjust="spacingAndGlyphs" textLength="12" x="380" y="310.1074">C</text><path d="M373,319.1133 L373,319.2067 L378.2,318.9291 L383.4,319.1992 L388.6,319.2909 L393.8,318.7962 L399,319.1133 " fill="#222222" style="stroke: #DC143C; stroke-width: 3.0;"/><polygon fill="#222222" points="372,179,372,179.0701,377.6,178.8619,383.2,179.0644,388.8,179.1332,394.4,178.7622,400,179,399.9223,179,399.5735,188.6227,399.6165,198.2453,399.9318,207.868,399.3086,217.4906,400,227.1133,400,227.2978,394.4,226.9032,388.8,227.0474,383.2,227.2573,377.6,227.0847,372,227.1133,372.0682,227.1133,371.9681,217.4906,372.1785,207.868,372.2391,198.2453,372.5857,188.6227,372,179" style="stroke: #DC143C; stroke-width: 3.0;"/><text fill="#DC143C" font-family="courier" font-size="20" font-weight="bold" lengthAdjust="spacingAndGlyphs" textLength="12" x="380" y="202.1074">D</text><path d="M373,211.1133 L373,211.2067 L378.2,210.9291 L383.4,211.1992 L388.6,211.2909 L393.8,210.7962 L399,211.1133 " fill="#222222" style="stroke: #DC143C; stroke-width: 3.0;"/><polygon fill="#222222" points="390,503,390,503.0701,395.6,502.8619,401.2,503.0644,406.8,503.1332,412.4,502.7622,418,503,417.9223,503,417.5735,512.6227,417.6165,522.2453,417.9318,531.868,417.3086,541.4906,418,551.1133,418,551.2978,412.4,550.9032,406.8,551.0474,401.2,551.2573,395.6,551.0847,390,551.1133,390.0682,551.1133,389.9681,541.4906,390.1785,531.868,390.2391,522.2453,390.5857,512.6227,390,503" style="stroke: #DC143C; stroke-width: 3.0;"/><text fill="#DC143C" font-family="courier" font-size="20" font-weight="bold" lengthAdjust="spacingAndGlyphs" textLength="12" x="398" y="526.1074">E</text><path d="M391,535.1133 L391,535.2067 L396.2,534.9291 L401.4,535.1992 L406.6,535.2909 L411.8,534.7962 L417,535.1133 " fill="#222222" style="stroke: #DC143C; stroke-width: 3.0;"/><!--link a to b--><path d="M85,119 L85.2802,119 L84.4476,129.9056 L85.2577,140.8112 L85.5329,151.7168 L84.0488,162.6224 L85,173.528 " fill="none" style="stroke: #A9A9A9; stroke-width: 2.0;"/><polygon fill="#A9A9A9" points="85,178.678,85.064,178.7065,85.6738,176.8219,86.6589,175.1042,87.5217,173.3321,87.9827,171.3814,89,169.678,88.9817,169.6597,88.0995,170.3775,87.3096,171.1876,86.5839,172.0619,85.637,172.715,85,173.678,85.1305,173.8085,84.0514,172.7294,83.3534,172.0314,82.7018,171.3798,81.7798,170.4578,81,169.678,81.0208,169.6872,81.7903,171.4737,82.6544,173.3022,83.4728,175.1104,84.3784,176.9573,85,178.678" style="stroke: #A9A9A9; stroke-width: 2.0;"/><!--link b to c--><path d="M85,227 L85.2802,227 L84.4476,237.9056 L85.2577,248.8112 L85.5329,259.7168 L84.0488,270.6224 L85,281.528 " fill="none" style="stroke: #A9A9A9; stroke-width: 2.0;"/><polygon fill="#A9A9A9" points="85,286.678,85.064,286.7065,85.6738,284.8219,86.6589,283.1042,87.5217,281.3321,87.9827,279.3814,89,277.678,88.9817,277.6597,88.0995,278.3775,87.3096,279.1876,86.5839,280.0619,85.637,280.715,85,281.678,85.1305,281.8085,84.0514,280.7294,83.3534,280.0314,82.7018,279.3798,81.7798,278.4578,81,277.678,81.0208,277.6872,81.7903,279.4737,82.6544,281.3022,83.4728,283.1104,84.3784,284.9573,85,286.678" style="stroke: #A9A9A9; stroke-width: 2.0;"/><!--link c to d--><path d="M85,335 L85.2802,335 L84.4476,345.9056 L85.2577,356.8112 L85.5329,367.7168 L84.0488,378.6224 L85,389.528 " fill="none" style="stroke: #A9A9A9; stroke-width: 2.0;"/><polygon fill="#A9A9A9" points="85,394.678,85.064,394.7065,85.6738,392.8219,86.6589,391.1042,87.5217,389.3321,87.9827,387.3814,89,385.678,88.9817,385.6597,88.0995,386.3775,87.3096,387.1876,86.5839,388.0619,85.637,388.715,85,389.678,85.1305,389.8085,84.0514,388.7294,83.3534,388.0314,82.7018,387.3798,81.7798,386.4578,81,385.678,81.0208,385.6872,81.7903,387.4737,82.6544,389.3022,83.4728,391.1104,84.3784,392.9573,85,394.678" style="stroke: #A9A9A9; stroke-width: 2.0;"/><!--link d to e--><path d="M85,443 L85.2802,443 L84.4476,453.9056 L85.2577,464.8112 L85.5329,475.7168 L84.0488,486.6224 L85,497.528 " fill="none" style="stroke: #A9A9A9; stroke-width: 2.0;"/><polygon fill="#A9A9A9" points="85,502.6784,85.064,502.7069,85.6738,500.8223,86.6589,499.1046,87.5217,497.3325,87.9827,495.3818,89,493.6784,88.9817,493.6601,88.0995,494.3779,87.3096,495.188,86.5839,496.0623,85.637,496.7154,85,497.6784,85.1305,497.8089,84.0514,496.7298,83.3534,496.0318,82.7018,495.3802,81.7798,494.4582,81,493.6784,81.0208,493.6876,81.7903,495.4741,82.6544,497.3026,83.4728,499.1108,84.3784,500.9577,85,502.6784" style="stroke: #A9A9A9; stroke-width: 2.0;"/><!--link f to g--><path d="M226.273,119 L226.542,119.0787 L223.0851,127.9329 L221.205,137.2483 L218.8115,146.4136 L214.7294,155.085 L212.8852,164.4109 L210.327,173.528 " fill="none" style="stroke: #A9A9A9; stroke-width: 2.0;"/><polygon fill="#A9A9A9" points="208.82,178.678,208.8735,178.7233,209.9879,177.0858,211.4156,175.7137,212.7414,174.2553,213.7315,172.5125,215.1862,171.1632,215.1737,171.1405,214.1255,171.5817,213.1399,172.1375,212.1979,172.7729,211.1058,173.1338,210.2239,173.8792,210.3858,173.9678,209.4965,172.7858,209.0798,171.8626,208.7207,170.9709,208.0261,169.8956,207.508,168.9169,207.5306,168.9199,207.7599,170.8677,208.0918,172.8293,208.3742,174.7842,208.7511,176.7518,208.82,178.678" style="stroke: #A9A9A9; stroke-width: 2.0;"/><!--link f to h--><path d="M239.944,119 L240.2123,119.081 L242.1586,127.9283 L245.6777,137.2505 L248.6847,146.418 L250.0074,155.0771 L253.5623,164.4101 L256.405,173.528 " fill="none" style="stroke: #A9A9A9; stroke-width: 2.0;"/><polygon fill="#A9A9A9" points="257.96,178.678,258.0295,178.6867,258.0684,176.7064,258.5148,174.7772,258.8285,172.8313,258.7059,170.8307,259.1873,168.9059,259.1644,168.8937,258.5274,169.8359,258.0055,170.8397,257.5636,171.8865,256.8459,172.7855,256.5145,173.8915,256.6017,174.0542,255.4181,173.1718,254.4891,172.7643,253.5911,172.4147,252.5125,171.7281,251.5289,171.2187,251.5461,171.2336,252.807,172.7036,254.1464,174.2413,255.4479,175.7463,256.8216,177.3136,257.96,178.678" style="stroke: #A9A9A9; stroke-width: 2.0;"/><!--link g to i--><path d="M202,227 L202.2802,227 L201.4476,237.9056 L202.2577,248.8112 L202.5329,259.7168 L201.0488,270.6224 L202,281.528 " fill="none" style="stroke: #A9A9A9; stroke-width: 2.0;"/><polygon fill="#A9A9A9" points="202,286.678,202.064,286.7065,202.6738,284.8219,203.6589,283.1042,204.5217,281.3321,204.9827,279.3814,206,277.678,205.9817,277.6597,205.0995,278.3775,204.3096,279.1876,203.5839,280.0619,202.637,280.715,202,281.678,202.1305,281.8085,201.0514,280.7294,200.3534,280.0314,199.7018,279.3798,198.7798,278.4578,198,277.678,198.0208,277.6872,198.7903,279.4737,199.6544,281.3022,200.4728,283.1104,201.3784,284.9573,202,286.678" style="stroke: #A9A9A9; stroke-width: 2.0;"/><!--link g to j--><path d="M215.67,227 L215.9109,227.1432 L220.6401,235.8793 L226.7815,245.4547 L232.4631,254.7568 L236.6323,263.16 L242.8059,272.7546 L248.34,281.969 " fill="none" style="stroke: #A9A9A9; stroke-width: 2.0;"/><polygon fill="#A9A9A9" points="251.139,286.678,251.2086,286.6862,250.7701,284.7057,250.7395,282.7734,250.576,280.8254,249.9758,278.8257,249.9802,276.8976,249.9551,276.8912,249.5633,277.9589,249.2982,279.0588,249.121,280.1812,248.6406,281.2264,248.5848,282.3796,248.6303,282.5585,247.4366,281.8969,246.3757,281.7576,245.3311,281.6819,244.1921,281.2356,243.1028,280.9842,243.1159,281.0028,244.7039,282.1143,246.3517,283.3103,247.9706,284.4655,249.6446,285.6985,251.139,286.678" style="stroke: #A9A9A9; stroke-width: 2.0;"/><!--link A to D--><path d="M425.151,119 L425.4045,119.1196 L420.3299,127.9258 L416.7411,137.4329 L412.6685,146.7118 L407.0047,155.2402 L403.4498,164.7633 L399.222,173.969 " fill="none" style="stroke: #A9A9A9; stroke-width: 2.0;"/><polygon fill="#A9A9A9" points="397.001,178.678,397.0468,178.731,398.4021,177.2866,400.0257,176.1531,401.562,174.9184,402.811,173.3506,404.4576,172.2438,404.4489,172.2194,403.3448,172.4924,402.2848,172.8882,401.2556,173.3695,400.1205,173.5564,399.1336,174.1556,399.3073,174.218,398.5535,173.0198,398.3069,172.0037,398.1221,171.0099,397.5773,169.8868,397.2218,168.8316,397.2446,168.8321,397.167,170.8007,397.193,172.7715,397.169,174.7412,397.2403,176.7131,397.001,178.678" style="stroke: #A9A9A9; stroke-width: 2.0;"/><!--link A to E--><path d="M439.056,119.035 L439.1488,119.0453 L439.4312,124.036 L440.2578,129.0872 L440.9072,134.1188 L440.9738,139.0855 L441.8471,144.1419 L441.8128,144.1386 L441.9549,147.1921 L442.2704,150.2624 L442.7064,153.3444 L442.7272,156.3862 L443.3295,159.4843 L443.5747,159.5053 L443.341,162.8539 L443.8231,166.2639 L444.3925,169.6813 L444.4538,173.0553 L444.7823,176.4521 L444.8126,176.4543 L445.0396,180.1346 L445.4044,183.825 L445.7028,187.5106 L446.1279,191.2054 L446.1398,194.8699 L446.4375,194.888 L446.6804,198.8267 L446.7313,202.7537 L447.0633,206.6978 L447.4084,210.6427 L447.3362,214.5623 L447.016,214.5473 L447.8314,218.7346 L447.5925,222.8728 L448.1551,227.0483 L447.8923,231.1853 L448.306,235.3539 L448.2756,235.3529 L448.771,239.7072 L448.5554,244.0393 L448.7593,248.3846 L448.9984,252.7309 L448.9835,257.0693 L449.1685,257.0719 L449.0457,261.562 L449.2389,266.0566 L448.9208,270.5439 L449.3655,275.0421 L449.303,279.533 L449.5466,279.5341 L449.4797,284.1413 L449.5338,288.7489 L449.0258,293.3541 L448.9298,297.9611 L449.1989,302.5698 L448.9228,302.5628 L449.054,307.256 L448.8741,311.9413 L449.1455,316.638 L448.6465,321.3153 L448.6054,326.0041 L448.4531,325.9967 L448.477,330.7403 L447.85,335.4523 L447.6859,340.1868 L447.9747,344.9433 L447.4569,349.6606 L447.6501,349.6736 L447.6221,352.054 L446.9931,354.3936 L447.1168,356.7842 L447.0765,359.1637 L446.6541,361.5173 L446.4448,361.5002 L446.4184,363.8831 L446.3234,366.2605 L446.363,368.6487 L445.8792,370.9943 L445.6878,373.3638 L445.8925,373.3835 L445.2153,375.7031 L444.9331,378.0607 L445.228,380.4739 L444.4604,382.7847 L444.55,385.1781 L444.7748,385.2033 L444.3778,387.5404 L443.9047,389.869 L443.6032,392.2168 L443.6986,394.609 L443.2324,396.9384 L443.1005,396.9214 L443.1922,399.3089 L442.3865,401.5807 L442.6012,403.984 L442.2414,406.3133 L441.7268,408.6226 L441.8346,408.6384 L441.4072,410.9429 L441.3656,413.3041 L440.9756,415.614 L440.4398,417.9026 L440.025,420.2089 L440.1426,420.2285 L439.5867,422.4927 L439.5767,424.8477 L438.9492,427.1001 L438.5757,429.3946 L438.1188,431.6754 L437.8531,431.6256 L437.518,433.9072 L437.5032,436.2486 L437.0353,438.5053 L436.405,440.7316 L436,443 L435.8609,442.9662 L435.2085,445.8495 L434.3098,448.673 L434.0884,451.6608 L433.5318,454.5673 L432.5155,457.3622 L432.7385,457.4328 L431.9048,460.3166 L430.6472,463.0663 L429.837,465.9575 L428.7307,468.7551 L427.9898,471.6682 L428.108,471.7124 L427.0686,474.448 L426.172,477.2369 L424.8225,479.8568 L423.8383,482.613 L422.8704,485.3753 L423.0522,485.4515 L422.0499,487.9858 L420.5542,490.3135 L419.6317,492.8813 L418.7193,495.4533 L417.605,497.9408 " fill="none" style="stroke: #A9A9A9; stroke-width: 2.0;"/><polygon fill="#A9A9A9" points="415.489,502.6786,415.5359,502.7307,416.8611,501.2586,418.461,500.0918,419.9715,498.8257,421.1878,497.2325,422.8113,496.0919,422.802,496.0678,421.7038,496.3634,420.6522,496.781,419.6331,497.2835,418.5022,497.4937,417.5279,498.1132,417.7002,498.1791,416.9274,496.9814,416.6578,495.9763,416.4496,494.9946,415.8842,493.8762,415.5066,492.8298,415.5294,492.8298,415.4925,494.7995,415.5591,496.7694,415.5758,498.7392,415.6878,500.7092,415.489,502.6786" style="stroke: #A9A9A9; stroke-width: 2.0;"/><!--link E to D--><path d="M393.102,502.9957 L393.1881,503.032 L391.3957,499.2786 L390.1079,495.738 L388.6558,492.1281 L386.6634,488.2904 L385.4189,484.768 L385.3867,484.7554 L384.4078,482.5633 L383.591,480.4347 L382.8869,478.35 L381.7943,476.1136 L381.2459,474.0898 L381.4768,474.1747 L380.1301,471.6745 L379.4576,469.4222 L378.8674,467.2003 L377.7985,464.8022 L376.9814,462.4968 L377.01,462.5066 L376.1161,460.0098 L375.3528,457.5578 L374.5265,455.0842 L373.8204,452.6519 L372.7223,450.0851 L373.0067,450.1751 L372.1789,447.5493 L371.1677,444.8655 L370.4249,442.2666 L369.6948,439.6718 L368.5659,436.9507 L368.2579,436.8622 L368.0644,434.2819 L366.8566,431.41 L366.4199,428.7598 L365.1891,425.8812 L364.6091,423.1898 L364.5797,423.1823 L364.1964,420.4133 L363.1242,417.4679 L362.4585,414.6266 L361.8269,411.7941 L360.9491,408.8985 L361.1297,408.9385 L360.2942,405.9529 L359.7673,403.0358 L358.741,400.0079 L358.4595,397.1452 L357.6829,394.1727 L357.9225,394.2168 L357.3221,391.1957 L356.8407,388.1964 L355.8066,385.0954 L355.1776,382.0689 L354.9076,379.1086 L354.6342,379.0695 L354.4442,376.0437 L353.9462,372.9737 L353.8949,369.9677 L353.0808,366.8526 L352.7202,363.8023 L352.5684,363.7876 L352.5207,360.7216 L351.8243,357.5926 L351.5891,354.5085 L351.8054,351.4682 L351.2178,348.3498 L351.4112,348.3588 L351.3999,345.2645 L350.7869,342.1422 L350.9274,339.0549 L350.9037,335.96 L350.4976,332.8473 L350.2876,332.8451 L350.4867,329.7555 L350.6171,326.6653 L350.8825,323.5763 L350.6228,320.482 L350.6564,317.3908 L350.8615,317.4059 L350.638,314.3097 L350.8103,311.2427 L351.5607,308.2186 L351.2468,305.1156 L351.7916,302.0763 L352.0154,302.1091 L352.3241,299.0743 L352.5571,296.0285 L352.9611,293.0077 L353.7601,290.0448 L354,287 L353.8704,286.9698 L354.9278,284.1825 L355.1039,281.1895 L356.282,278.4305 L356.896,275.5397 L357.358,272.6135 L357.4619,272.6459 L358.2709,269.7562 L359.4521,266.9825 L360.2971,264.104 L361.0015,261.1817 L361.8226,258.2958 L361.9343,258.3374 L362.7902,255.5337 L364.1646,252.9233 L364.9526,250.0943 L365.9818,247.3553 L366.9317,244.5867 L366.6826,244.4817 L367.824,242.0046 L369.2656,239.654 L370.2825,237.1244 L371.1472,234.5307 L372.223,232.026 " fill="none" style="stroke: #A9A9A9; stroke-width: 2.0;"/><polygon fill="#A9A9A9" points="374.356,227.292,374.4027,227.3442,372.7951,228.5014,371.4611,229.9648,370.0381,231.3285,368.322,232.3642,367.0115,233.8539,367.0024,233.8297,368.0192,233.3203,369.0823,232.933,370.1776,232.6306,371.1621,232.0357,372.3017,231.8505,372.4743,231.9159,372.5059,232.8341,373.0415,233.9433,373.6384,235.0756,373.8777,236.0726,374.3051,237.1407,374.3279,237.1408,374.3047,235.1709,374.385,233.2015,374.4154,231.2319,374.5411,229.2628,374.356,227.292" style="stroke: #A9A9A9; stroke-width: 2.0;"/><!--link B to E--><path d="M404,443 L404.2802,443 L403.4476,453.9056 L404.2577,464.8112 L404.5329,475.7168 L403.0488,486.6224 L404,497.528 " fill="none" style="stroke: #A9A9A9; stroke-width: 2.0;"/><polygon fill="#A9A9A9" points="404,502.6784,404.064,502.7069,404.6738,500.8223,405.6589,499.1046,406.5217,497.3325,406.9827,495.3818,408,493.6784,407.9817,493.6601,407.0995,494.3779,406.3096,495.188,405.5839,496.0623,404.637,496.7154,404,497.6784,404.1305,497.8089,403.0514,496.7298,402.3534,496.0318,401.7018,495.3802,400.7798,494.4582,400,493.6784,400.0208,493.6876,400.7903,495.4741,401.6544,497.3026,402.4728,499.1108,403.3784,500.9577,404,502.6784" style="stroke: #A9A9A9; stroke-width: 2.0;"/><!--link C to B--><path d="M389.906,335 L390.1823,335.0469 L390.9045,343.9955 L393.2464,353.2191 L395.0609,362.3532 L395.1409,371.1928 L397.5197,380.4227 L399.165,389.528 " fill="none" style="stroke: #A9A9A9; stroke-width: 2.0;"/><polygon fill="#A9A9A9" points="400.04,394.678,400.1079,394.6953,400.3936,392.7353,401.0772,390.8769,401.6312,388.9854,401.7591,386.9851,402.4769,385.1354,402.4557,385.1204,401.7061,385.9757,401.0631,386.9067,400.494,387.8901,399.6698,388.6925,399.203,389.7486,399.3098,389.8991,398.1587,388.9224,397.3195,388.3852,396.5184,387.9016,395.4959,387.1061,394.5898,386.4747,394.6087,386.4872,395.6709,388.1094,396.8194,389.7889,397.9263,391.4408,399.1126,393.1454,400.04,394.678" style="stroke: #A9A9A9; stroke-width: 2.0;"/><!--link D to C--><path d="M386,227 L386.2802,227 L385.4476,237.9056 L386.2577,248.8112 L386.5329,259.7168 L385.0488,270.6224 L386,281.528 " fill="none" style="stroke: #A9A9A9; stroke-width: 2.0;"/><polygon fill="#A9A9A9" points="386,286.678,386.064,286.7065,386.6738,284.8219,387.6589,283.1042,388.5217,281.3321,388.9827,279.3814,390,277.678,389.9817,277.6597,389.0995,278.3775,388.3096,279.1876,387.5839,280.0619,386.637,280.715,386,281.678,386.1305,281.8085,385.0514,280.7294,384.3534,280.0314,383.7018,279.3798,382.7798,278.4578,382,277.678,382.0208,277.6872,382.7903,279.4737,383.6544,281.3022,384.4728,283.1104,385.3784,284.9573,386,286.678" style="stroke: #A9A9A9; stroke-width: 2.0;"/><!--link B to A--><path d="M409.906,394.884 L409.9972,394.9041 L410.4971,391.3391 L411.5317,387.8917 L412.3922,384.406 L412.6799,380.7944 L413.7605,377.3571 L413.7265,377.3511 L414.2217,373.6528 L414.8884,369.9847 L415.6744,366.3376 L416.0495,362.618 L417,359 L417.2437,359.0337 L417.167,355.7463 L417.8019,352.5573 L418.5236,349.3803 L418.7401,346.1335 L419.2224,342.9234 L419.2524,342.9271 L419.6172,339.6488 L420.119,336.3877 L420.5547,333.1182 L421.1165,329.8646 L421.2671,326.5595 L421.5635,326.5931 L421.942,323.2837 L422.1293,319.9526 L422.5965,316.6533 L423.0767,313.3554 L423.1415,310.0105 L422.8226,309.9777 L423.7837,306.7149 L423.6949,303.3441 L424.4042,300.0554 L424.2916,296.6822 L424.8527,293.3782 L424.8224,293.3755 L425.7734,286.7863 L426.016,280.1337 L426.6765,273.5186 L427.3722,266.9065 L427.8147,260.2719 L427.9992,260.2856 L428.2922,253.8286 L428.9005,247.3951 L428.9987,240.9236 L429.8577,234.5087 L430.2109,228.0562 L430.4541,228.0713 L430.7857,221.9666 L431.2381,215.8694 L431.1295,209.7375 L431.4321,203.6311 L432.0991,197.5472 L431.8232,197.533 L432.3605,191.9485 L432.587,186.348 L433.2643,180.7707 L433.1719,175.1538 L433.5371,169.5604 L433.3847,169.5539 L433.8476,164.635 L433.6593,159.6884 L433.934,154.7614 L434.6618,149.8537 L434.5828,144.9118 L434.7763,144.9185 L435.0513,140.8241 L434.7243,136.7089 L435.1513,132.6198 L435.414,128.5251 L435.294,124.417 " fill="none" style="stroke: #A9A9A9; stroke-width: 2.0;"/><polygon fill="#A9A9A9" points="435.447,119.342,435.5101,119.3724,434.4689,121.0573,433.7978,122.9203,433.0061,124.7253,431.8181,126.3397,431.1788,128.2179,431.161,128.1991,431.9049,127.3388,432.7384,126.5736,433.6341,125.8745,434.3153,124.9476,435.297,124.3397,435.4313,124.4663,435.9197,125.0194,436.8003,125.9418,437.7287,126.9094,438.3787,127.6147,439.1752,128.458,439.1962,128.4666,438.4197,126.6307,437.739,124.8341,437.012,123.0186,436.3733,121.2391,435.447,119.342" style="stroke: #A9A9A9; stroke-width: 2.0;"/><!--
@startuml
skinparam backgroundColor #222222
skinparam handwritten true
hide stereotype
skinparam shadowing false
skinparam padding 1

skinparam arrow {
    Thickness 2
    Color #DarkGrey
    FontSize 20
    FontName courier
    FontStyle normal
    FontColor #DarkGrey
}

skinparam object {
    BorderThickness 3
    BorderColor<<A>> #DodgerBlue
    BorderColor<<B>> #ForestGreen
    BorderColor<<C>> #Crimson
    BackgroundColor #222222
    FontSize 20
    FontName courier
    FontStyle bold
    FontColor<<A>> #DodgerBlue
    FontColor<<B>> #ForestGreen
    FontColor<<C>> #Crimson
}

skinparam package {
    BorderThickness 3
    BorderColor<<A>> #DodgerBlue
    BorderColor<<B>> #ForestGreen
    BorderColor<<C>> #Crimson
    BackgroundColor #222222
    FontSize 20
    FontName courier
    FontStyle bold
    FontColor<<A>> #DodgerBlue
    FontColor<<B>> #ForestGreen
    FontColor<<C>> #Crimson
}

package Secuencia <<A>> {
object "A" as a <<A>>
object "B" as b <<A>>
object "C" as c <<A>>
object "D" as d <<A>>
object "E" as e <<A>>
}
a -down-> b
b -down-> c
c -down-> d
d -down-> e

package Arbol <<B>> {
object "A" as f <<B>>
object "B" as g <<B>>
object "C" as h <<B>>
object "D" as i <<B>>
object "E" as j <<B>>
}
f -down-> g
f -down-> h
g -down-> i
g -down-> j

package Grafo <<C>> {
object A <<C>>
object B <<C>>
object C <<C>>
object D <<C>>
object E <<C>>
}
A - -> D
A - -> E
E - -> D
B - -> E
C - -> B
D - -> C
B - -> A
@enduml

PlantUML version 1.2019.05(Sat Apr 20 18:45:36 CEST 2019)
(GPL source distribution)
Java Runtime: Java(TM) SE Runtime Environment
JVM: Java HotSpot(TM) 64-Bit Server VM
Java Version: 11.0.8+10-LTS
Operating System: Windows 10
OS Version: 10.0
Default Encoding: windows-1252
Language: es
Country: ES
--></g></svg>