<?xml version="1.0" encoding="UTF-8" standalone="no"?><svg xmlns="http://www.w3.org/2000/svg" xmlns:xlink="http://www.w3.org/1999/xlink" contentScriptType="application/ecmascript" contentStyleType="text/css" height="820px" preserveAspectRatio="none" style="width:723px;height:820px;background:#222222;" version="1.1" viewBox="0 0 723 820" width="723px" zoomAndPan="magnify"><defs/><g><polygon fill="#222222" points="432,8,432,8.2102,442.2222,7.5857,452.4444,8.1933,462.6667,8.3997,472.8889,7.2866,483.1111,7.9223,493.3333,7.5735,503.5556,7.6165,513.7778,7.9318,524,7.3086,534.2222,8.5536,544.4444,7.3697,554.6667,7.8022,564.8889,8.4319,575.1111,7.9142,585.3333,8.0682,595.5556,7.9681,605.7778,8.1785,616,8,616.2391,8,616.5857,17.6227,616.6711,27.2453,616.6793,36.868,616.2546,46.4906,616,56.1133,616,56.5769,605.7778,56.8155,595.5556,55.3921,585.3333,56.7918,575.1111,55.8168,564.8889,56.6471,554.6667,55.6183,544.4444,56.0448,534.2222,56.8549,524,56.0645,513.7778,56.2186,503.5556,56.4519,493.3333,56.5295,483.1111,56.1094,472.8889,56.4005,462.6667,55.5409,452.4444,56.3977,442.2222,56.6615,432,56.1133,432.4445,56.1133,432.613,46.4906,431.5169,36.868,431.3478,27.2453,431.3786,17.6227,432,8" style="stroke: #228B22; stroke-width: 3.0;"/><text fill="#228B22" font-family="courier" font-size="20" font-weight="bold" lengthAdjust="spacingAndGlyphs" textLength="168" x="440" y="31.1074">Ente / Entidad</text><path d="M433,40.1133 L433,40.3935 L443.1111,39.5609 L453.2222,40.371 L463.3333,40.6462 L473.4444,39.1621 L483.5556,40.0097 L493.6667,39.5446 L503.7778,39.6019 L513.8889,40.0224 L524,39.1915 L534.1111,40.8515 L544.2222,39.2729 L554.3333,39.8496 L564.4444,40.6892 L574.5556,39.9989 L584.6667,40.2043 L594.7778,40.0707 L604.8889,40.3513 L615,40.1133 " fill="#222222" style="stroke: #228B22; stroke-width: 3.0;"/><polygon fill="#222222" points="462,117,462,117.2102,472.3333,116.5857,482.6667,117.1933,493,117.3997,503.3333,116.2866,513.6667,116.9223,524,116.5735,534.3333,116.6165,544.6667,116.9318,555,116.3086,565.3333,117.5536,575.6667,116.3697,586,117,585.8022,117,586.4319,126.6227,585.9142,136.2453,586.0682,145.868,585.9681,155.4906,586,165.1133,586,165.2918,575.6667,165.3524,565.3333,165.699,555,165.7843,544.6667,165.7925,534.3333,165.3679,524,165.5769,513.6667,165.8155,503.3333,164.3921,493,165.7918,482.6667,164.8168,472.3333,165.6471,462,165.1133,461.505,165.1133,461.9315,155.4906,462.7416,145.868,461.9513,136.2453,462.1053,126.6227,462,117" style="stroke: #228B22; stroke-width: 3.0;"/><text fill="#228B22" font-family="courier" font-size="20" font-weight="bold" lengthAdjust="spacingAndGlyphs" textLength="108" x="470" y="140.1074">Propiedad</text><path d="M463,149.1133 L463,149.3935 L473.1667,148.5609 L483.3333,149.371 L493.5,149.6462 L503.6667,148.1621 L513.8333,149.0097 L524,148.5446 L534.1667,148.6019 L544.3333,149.0224 L554.5,148.1915 L564.6667,149.8515 L574.8333,148.2729 L585,149.1133 " fill="#222222" style="stroke: #228B22; stroke-width: 3.0;"/><polygon fill="#222222" points="364,226,364,226.2102,373.7143,225.5857,383.4286,226.1933,393.1429,226.3997,402.8571,225.2866,412.5714,225.9223,422.2857,225.5735,432,225.6165,441.7143,225.9318,451.4286,225.3086,461.1429,226.5536,470.8571,225.3697,480.5714,225.8022,490.2857,226.4319,500,226,499.9142,226,500.0682,236.6038,499.9681,247.2076,500.1785,257.8114,500.2391,268.4152,500.5857,279.019,500.6711,289.6228,500,300.2266,500,300.9058,490.2857,300.4812,480.5714,300.6901,470.8571,300.9288,461.1429,299.5054,451.4286,300.9051,441.7143,299.9301,432,300.7604,422.2857,299.7315,412.5714,300.1581,402.8571,300.9682,393.1429,300.1778,383.4286,300.3319,373.7143,300.5652,364,300.2266,364.4162,300.2266,363.9961,289.6228,364.2872,279.019,363.4276,268.4152,364.2844,257.8114,364.5482,247.2076,364.4445,236.6038,364,226" style="stroke: #228B22; stroke-width: 3.0;"/><text fill="#228B22" font-family="courier" font-size="20" font-weight="bold" lengthAdjust="spacingAndGlyphs" textLength="60" x="402" y="249.1074">Valor</text><text fill="#228B22" font-family="courier" font-size="20" font-weight="bold" lengthAdjust="spacingAndGlyphs" textLength="120" x="372" y="275.2207">&lt;&lt;modelo&gt;&gt;</text><path d="M365,284.2266 L365,284.5068 L375.3077,283.6741 L385.6154,284.4843 L395.9231,284.7595 L406.2308,283.2754 L416.5385,284.1229 L426.8462,283.6579 L437.1538,283.7152 L447.4615,284.1357 L457.7692,283.3047 L468.0769,284.9648 L478.3846,283.3862 L488.6923,283.9629 L499,284.2266 " fill="#222222" style="stroke: #228B22; stroke-width: 3.0;"/><polygon fill="#222222" points="282,390,282,390.2102,292.2222,389.5857,302.4444,390.1933,312.6667,390.3997,322.8889,389.2866,333.1111,389.9223,343.3333,389.5735,353.5556,389.6165,363.7778,389.9318,374,389.3086,384.2222,390.5536,394.4444,389.3697,404.6667,389.8022,414.8889,390.4319,425.1111,389.9142,435.3333,390.0682,445.5556,389.9681,455.7778,390.1785,466,390,466.2391,390,466.5857,400.6038,466.6711,411.2076,466.6793,421.8114,466.2546,432.4152,466.4636,443.019,466.7022,453.6228,466,464.2266,466,463.5054,455.7778,464.9051,445.5556,463.9301,435.3333,464.7604,425.1111,463.7315,414.8889,464.1581,404.6667,464.9682,394.4444,464.1778,384.2222,464.3319,374,464.5652,363.7778,464.6428,353.5556,464.2227,343.3333,464.5138,333.1111,463.6541,322.8889,464.5109,312.6667,464.7748,302.4444,464.6711,292.2222,464.8396,282,464.2266,281.5169,464.2266,281.3478,453.6228,281.3786,443.019,281.9411,432.4152,281.8035,421.8114,282.6814,411.2076,281.8253,400.6038,282,390" style="stroke: #DC143C; stroke-width: 3.0;"/><text fill="#DC143C" font-family="courier" font-size="20" font-weight="bold" lengthAdjust="spacingAndGlyphs" textLength="168" x="290" y="413.1074">Representación</text><text fill="#DC143C" font-family="courier" font-size="20" font-weight="bold" lengthAdjust="spacingAndGlyphs" textLength="108" x="320" y="439.2207">&lt;&lt;vista&gt;&gt;</text><path d="M283,448.2266 L283,448.5068 L293.1111,447.6741 L303.2222,448.4843 L313.3333,448.7595 L323.4444,447.2754 L333.5556,448.1229 L343.6667,447.6579 L353.7778,447.7152 L363.8889,448.1357 L374,447.3047 L384.1111,448.9648 L394.2222,447.3862 L404.3333,447.9629 L414.4444,448.8025 L424.5556,448.1122 L434.6667,448.3175 L444.7778,448.184 L454.8889,448.4646 L465,448.2266 " fill="#222222" style="stroke: #DC143C; stroke-width: 3.0;"/><polygon fill="#222222" points="93,525,93,525.2102,103.1176,524.5857,113.2353,525.1933,123.3529,525.3997,133.4706,524.2866,143.5882,524.9223,153.7059,524.5735,163.8235,524.6165,173.9412,524.9318,184.0588,524.3086,194.1765,525.5536,204.2941,524.3697,214.4118,524.8022,224.5294,525.4319,234.6471,524.9142,244.7647,525.0682,254.8824,524.9681,265,525,265.1785,525,265.2391,535.6038,265.5857,546.2076,265.6711,556.8114,265.6793,567.4152,265.2546,578.019,265.4636,588.6228,265,599.2266,265,599.9288,254.8824,598.5054,244.7647,599.9051,234.6471,598.9301,224.5294,599.7604,214.4118,598.7315,204.2941,599.1581,194.1765,599.9682,184.0588,599.1778,173.9412,599.3319,163.8235,599.5652,153.7059,599.6428,143.5882,599.2227,133.4706,599.5138,123.3529,598.6541,113.2353,599.5109,103.1176,599.7748,93,599.2266,93.4445,599.2266,93.613,588.6228,92.5169,578.019,92.3478,567.4152,92.3786,556.8114,92.9411,546.2076,92.8035,535.6038,93,525" style="stroke: #DC143C; stroke-width: 3.0;"/><text fill="#DC143C" font-family="courier" font-size="20" font-weight="bold" lengthAdjust="spacingAndGlyphs" textLength="156" x="101" y="548.1074">Número Romano</text><text fill="#DC143C" font-family="courier" font-size="20" font-weight="bold" lengthAdjust="spacingAndGlyphs" textLength="108" x="125" y="574.2207">&lt;&lt;vista&gt;&gt;</text><path d="M94,583.2266 L94,583.5068 L104,582.6741 L114,583.4843 L124,583.7595 L134,582.2754 L144,583.1229 L154,582.6579 L164,582.7152 L174,583.1357 L184,582.3047 L194,583.9648 L204,582.3862 L214,582.9629 L224,583.8025 L234,583.1122 L244,583.3175 L254,583.184 L264,583.2266 " fill="#222222" style="stroke: #DC143C; stroke-width: 3.0;"/><polygon fill="#222222" points="300,525,300,525.2102,309.8667,524.5857,319.7333,525.1933,329.6,525.3997,339.4667,524.2866,349.3333,524.9223,359.2,524.5735,369.0667,524.6165,378.9333,524.9318,388.8,524.3086,398.6667,525.5536,408.5333,524.3697,418.4,524.8022,428.2667,525.4319,438.1333,524.9142,448,525,448.0682,525,447.9681,535.6038,448.1785,546.2076,448.2391,556.8114,448.5857,567.4152,448.6711,578.019,448.6793,588.6228,448,599.2266,448,599.4812,438.1333,599.6901,428.2667,599.9288,418.4,598.5054,408.5333,599.9051,398.6667,598.9301,388.8,599.7604,378.9333,598.7315,369.0667,599.1581,359.2,599.9682,349.3333,599.1778,339.4667,599.3319,329.6,599.5652,319.7333,599.6428,309.8667,599.2227,300,599.2266,300.2872,599.2266,299.4276,588.6228,300.2844,578.019,300.5482,567.4152,300.4445,556.8114,300.613,546.2076,299.5169,535.6038,300,525" style="stroke: #DC143C; stroke-width: 3.0;"/><text fill="#DC143C" font-family="courier" font-size="20" font-weight="bold" lengthAdjust="spacingAndGlyphs" textLength="132" x="308" y="548.1074">Indoarábigo</text><text fill="#DC143C" font-family="courier" font-size="20" font-weight="bold" lengthAdjust="spacingAndGlyphs" textLength="108" x="320" y="574.2207">&lt;&lt;vista&gt;&gt;</text><path d="M301,583.2266 L301,583.5068 L310.7333,582.6741 L320.4667,583.4843 L330.2,583.7595 L339.9333,582.2754 L349.6667,583.1229 L359.4,582.6579 L369.1333,582.7152 L378.8667,583.1357 L388.6,582.3047 L398.3333,583.9648 L408.0667,582.3862 L417.8,582.9629 L427.5333,583.8025 L437.2667,583.1122 L447,583.2266 " fill="#222222" style="stroke: #DC143C; stroke-width: 3.0;"/><polygon fill="#222222" points="483,525,483,525.2102,493.3333,524.5857,503.6667,525.1933,514,525.3997,524.3333,524.2866,534.6667,524.9223,545,524.5735,555.3333,524.6165,565.6667,524.9318,576,524.3086,586.3333,525.5536,596.6667,524.3697,607,525,606.8022,525,607.4319,535.6038,606.9142,546.2076,607.0682,556.8114,606.9681,567.4152,607.1785,578.019,607.2391,588.6228,607,599.2266,607,599.8123,596.6667,599.8976,586.3333,599.9058,576,599.4812,565.6667,599.6901,555.3333,599.9288,545,598.5054,534.6667,599.9051,524.3333,598.9301,514,599.7604,503.6667,598.7315,493.3333,599.1581,483,599.2266,483.7416,599.2266,482.9513,588.6228,483.1053,578.019,483.3386,567.4152,483.4162,556.8114,482.9961,546.2076,483.2872,535.6038,483,525" style="stroke: #DC143C; stroke-width: 3.0;"/><text fill="#DC143C" font-family="courier" font-size="20" font-weight="bold" lengthAdjust="spacingAndGlyphs" textLength="84" x="503" y="548.1074">Binario</text><text fill="#DC143C" font-family="courier" font-size="20" font-weight="bold" lengthAdjust="spacingAndGlyphs" textLength="108" x="491" y="574.2207">&lt;&lt;vista&gt;&gt;</text><path d="M484,583.2266 L484,583.5068 L494.1667,582.6741 L504.3333,583.4843 L514.5,583.7595 L524.6667,582.2754 L534.8333,583.1229 L545,582.6579 L555.1667,582.7152 L565.3333,583.1357 L575.5,582.3047 L585.6667,583.9648 L595.8333,582.3862 L606,583.2266 " fill="#222222" style="stroke: #DC143C; stroke-width: 3.0;"/><polygon fill="#222222" points="506,403,506,403.2102,515.7778,402.5857,525.5556,403.1933,535.3333,403.3997,545.1111,402.2866,554.8889,402.9223,564.6667,402.5735,574.4444,402.6165,584.2222,402.9318,594,403,593.3086,403,594.5536,412.6227,593.3697,422.2453,593.8022,431.868,594.4319,441.4906,594,451.1133,594,451.0275,584.2222,451.1815,574.4444,451.0813,564.6667,451.2918,554.8889,451.3524,545.1111,451.699,535.3333,451.7843,525.5556,451.7925,515.7778,451.3679,506,451.1133,506.4636,451.1133,506.7022,441.4906,505.2788,431.868,506.6785,422.2453,505.7035,412.6227,506,403" style="stroke: #1E90FF; stroke-width: 3.0;"/><text fill="#1E90FF" font-family="courier" font-size="20" font-weight="bold" lengthAdjust="spacingAndGlyphs" textLength="72" x="514" y="426.1074">Unidad</text><path d="M507,435.1133 L507,435.3935 L516.5556,434.5609 L526.1111,435.371 L535.6667,435.6462 L545.2222,434.1621 L554.7778,435.0097 L564.3333,434.5446 L573.8889,434.6019 L583.4444,435.0224 L593,435.1133 " fill="#222222" style="stroke: #1E90FF; stroke-width: 3.0;"/><!--link ente to propiedad--><path d="M524,69.3 L524.0934,69.3 L523.8159,76.152 L524.0859,83.004 L524.1776,89.856 L523.6829,96.708 L524,103.56 " fill="none" style="stroke: #A9A9A9; stroke-width: 2.0;"/><polygon fill="#A9A9A9" points="524,116.83,524.064,116.8585,524.6738,114.9739,525.6589,113.2562,526.5217,111.4841,526.9827,109.5334,528,107.83,527.9817,107.8117,527.0995,108.5295,526.3096,109.3396,525.5839,110.2139,524.637,110.867,524,111.83,524.1305,111.9605,523.0514,110.8814,522.3534,110.1834,521.7018,109.5318,520.7798,108.6098,520,107.83,520.0208,107.8392,520.7903,109.6257,521.6544,111.4542,522.4728,113.2624,523.3784,115.1093,524,116.83" style="stroke: #A9A9A9; stroke-width: 2.0;"/><path d="M524,111.83 L524.0934,111.83 L523.8159,110.23 L524.0859,108.63 L524.1776,107.03 L523.6829,105.43 L524,103.83 " fill="#A9A9A9" style="stroke: #A9A9A9; stroke-width: 2.0;"/><polygon fill="#A9A9A9" points="524,56.22,524.0583,56.2589,523.0851,57.3434,522.4536,58.6557,521.7109,59.8939,520.6021,60.8881,520,62.22,519.9784,62.2056,520.6817,63.3411,521.4936,64.5491,522.3811,65.8074,523.0082,66.8922,524,68.22,524.1536,68.3224,524.6252,66.9035,525.5451,65.7834,526.5198,64.6999,527.1762,63.4041,528,62.22,528.0189,62.2326,527.1911,61.0141,526.4495,59.853,525.6663,58.6642,524.9624,57.5283,524,56.22" style="stroke: #A9A9A9; stroke-width: 2.0;"/><!--link propiedad to valor--><path d="M498.04,175.87 L498.2624,176.0405 L491.5397,183.4378 L486.1205,191.8348 L480.2769,199.9063 L473.0372,206.9071 L467.73,215.39 " fill="none" style="stroke: #A9A9A9; stroke-width: 2.0;"/><polygon fill="#A9A9A9" points="459.82,225.71,459.8535,225.7715,461.4835,224.6462,463.3101,223.8815,465.0726,222.9993,466.6247,221.731,468.4681,220.9972,468.4647,220.9716,467.3279,221.005,466.2082,221.1678,465.1004,221.4207,463.9516,221.3634,462.8603,221.7406,463.0433,221.7648,462.5034,220.5914,462.4976,219.4888,462.5571,218.3948,462.2373,217.2506,462.117,216.1327,462.1391,216.1381,461.6472,218.0457,461.2561,219.9775,460.8163,221.8977,460.4692,223.8401,459.82,225.71" style="stroke: #A9A9A9; stroke-width: 2.0;"/><path d="M462.8603,221.7406 L462.9344,221.7974 L463.6882,220.3593 L464.8763,219.2546 L465.923,218.0414 L466.5045,216.4711 L467.73,215.395 " fill="#A9A9A9" style="stroke: #A9A9A9; stroke-width: 2.0;"/><polygon fill="#A9A9A9" points="506.26,165.14,506.2826,165.2063,504.8506,165.4755,503.5513,166.1334,502.2087,166.6647,500.724,166.7798,499.4361,167.4711,499.4102,167.4694,499.1996,168.9009,499.1194,170.3409,499.1297,171.7869,498.8279,173.2124,498.9633,174.6667,499.0229,174.8413,500.2601,174.0016,501.6715,173.6719,503.1042,173.4043,504.4132,172.7747,505.7872,172.3356,505.8099,172.3371,505.8711,170.8958,506.0357,169.4613,506.1504,168.0235,506.3602,166.5919,506.26,165.14" style="stroke: #A9A9A9; stroke-width: 2.0;"/><!--link propiedad to unidad--><path d="M527.33,178.35 L527.6091,178.3755 L527.7013,188.3668 L529.4295,198.5078 L530.625,208.6 L530.0685,218.5319 L531.834,228.6763 L532.2923,238.701 L533.2708,248.7734 L534.6109,258.8789 L534.7049,268.8703 L537.2794,279.0887 L536.6288,289.012 L538.1246,299.1317 L539.8821,309.2754 L540.1161,319.2796 L541.242,329.3654 L542.0304,339.4204 L543.2313,349.5131 L544.2332,359.5876 L545.6148,369.6969 L546.6496,379.7744 L546.68,389.76 " fill="none" style="stroke: #A9A9A9; stroke-width: 2.0;"/><polygon fill="#A9A9A9" points="547.88,402.84,547.9463,402.8625,548.3818,400.9302,549.2063,399.1299,549.9041,397.2865,550.1854,395.302,551.0432,393.5129,551.0233,393.4964,550.2102,394.2916,549.4974,395.1703,548.8544,396.1071,547.971,396.8438,547.4244,397.8608,547.5424,398.0026,546.4204,396.9756,545.643,396.3626,544.9077,395.8002,543.9278,394.9438,543.0765,394.242,543.0963,394.2531,544.0279,395.9564,545.0498,397.7102,546.0282,399.4397,547.0897,401.2156,547.88,402.84" style="stroke: #A9A9A9; stroke-width: 2.0;"/><path d="M547.4244,397.8608 L547.5174,397.8693 L547.0951,396.2509 L547.2182,394.6823 L547.1636,393.0975 L546.5251,391.4593 L546.695,389.895 " fill="#A9A9A9" style="stroke: #A9A9A9; stroke-width: 2.0;"/><polygon fill="#A9A9A9" points="526.13,165.24,526.1916,165.2734,525.3214,166.4422,524.8123,167.8067,524.1856,169.1074,523.1722,170.1986,522.6941,171.5799,522.6739,171.5636,523.4896,172.6126,524.4069,173.7436,525.3948,174.9317,526.1393,175.9232,527.2248,177.19,527.387,177.2779,527.7272,175.8219,528.5412,174.6226,529.4129,173.4546,529.9484,172.1044,530.6607,170.8501,530.6784,170.8644,529.7463,169.7214,528.8947,168.6434,528.0043,167.5341,527.188,166.4847,526.13,165.24" style="stroke: #A9A9A9; stroke-width: 2.0;"/><!--link valor to unidad--><path d="M422.01,300.07 L422.1028,300.0808 L421.4797,303.0305 L421.4005,306.0435 L421.1441,309.0359 L420.3053,311.9604 L420.2728,314.9789 L420.2383,314.9787 L420.0992,318.0859 L420.1342,321.194 L420.2903,324.3027 L420.0293,327.4092 L420.3525,330.5188 L420.5949,330.5608 L420.6077,333.5304 L421.3283,336.6229 L422.1352,339.7304 L422.4397,342.7506 L423.0084,345.8167 L423.0364,345.8285 L424.1937,348.6478 L425.4782,351.5209 L426.7013,354.368 L428.0415,357.2646 L429,360 L429.1526,360.2562 L430.5509,361.0911 L431.8508,361.7606 L433.2947,362.6721 L434.7455,363.5949 L435.9822,364.1584 L435.827,363.878 L439.5958,366.3411 L442.8535,367.8808 L446.4997,370.1225 L449.7459,371.6412 L453.32,373.7525 L453.2764,373.6722 L461.98,379.0661 L469.6657,382.5846 L477.952,387.2096 L486.2887,391.9276 L494.5264,396.4632 L502.45,400.42 " fill="none" style="stroke: #A9A9A9; stroke-width: 2.0;"/><polygon fill="#A9A9A9" points="506.94,402.84,506.9954,402.8829,505.6258,401.1973,504.581,399.763,503.4305,398.2468,501.932,396.4616,500.9152,395.0489,500.8904,395.0415,501.1037,396.0919,501.4421,397.1798,501.8674,398.2937,501.9931,399.3179,502.5386,400.4678,502.5915,400.6446,501.3945,400.5912,500.3521,401.054,499.3285,401.5798,498.1952,401.7391,497.1196,402.0912,497.1214,402.1139,499.0829,402.2303,501.0523,402.45,503.0179,402.62,504.9908,402.8849,506.94,402.84" style="stroke: #A9A9A9; stroke-width: 2.0;"/><text fill="#A9A9A9" font-family="courier" font-size="20" lengthAdjust="spacingAndGlyphs" textLength="96" x="431" y="352.1074">relación</text><text fill="#A9A9A9" font-family="courier" font-size="20" lengthAdjust="spacingAndGlyphs" textLength="12" x="485.0231" y="389.1502">n</text><!--link valor to representacion--><path d="M409.97,300.15 L410.0533,300.1923 L408.3091,303.0111 L407.0531,306.0779 L405.6381,309.064 L403.7004,311.7843 L402.4863,314.8725 L402.4545,314.8589 L401.0148,317.8233 L399.7351,320.8563 L398.5667,323.9371 L397.0148,326.8534 L396,330 L396.2326,330.0803 L394.8072,332.5961 L394.0609,335.3464 L393.3975,338.1253 L392.252,340.7377 L391.36,343.4377 L391.3891,343.4461 L390.5369,346.2129 L389.8172,349.0183 L389.0335,351.805 L388.3719,354.6273 L387.3125,357.3338 L387.6018,357.4063 L386.9106,360.1785 L386.0328,362.904 L385.4281,365.6979 L384.8362,368.495 L383.8388,371.1905 L383.5257,371.1219 L383.5496,373.9189 L382.5425,376.4901 L382.3193,379.233 L381.2888,381.799 L380.92,384.51 " fill="none" style="stroke: #A9A9A9; stroke-width: 2.0;"/><polygon fill="#A9A9A9" points="379.87,389.75,379.9272,389.7905,380.8966,388.0632,382.2011,386.5735,383.3965,385.0064,384.2331,383.185,385.5664,381.7156,385.552,381.694,384.5456,382.2238,383.6115,382.8622,382.7276,383.5762,381.6705,384.0298,380.8561,384.8482,381.0097,384.9504,380.0546,383.7898,379.5482,382.9276,379.0964,382.1018,378.3262,381.0641,377.7235,380.1379,377.7457,380.1429,378.1424,382.058,378.6402,383.9957,379.0892,385.9225,379.6312,387.8701,379.87,389.75" style="stroke: #A9A9A9; stroke-width: 2.0;"/><!--link representacion to romano--><path d="M304.18,475.62 L304.3379,475.8515 L295.8509,480.6325 L288.2897,486.7707 L280.427,492.4669 L271.5729,496.7098 L264.0327,502.8788 L255.7529,507.9636 L247.7674,513.4798 L239.9866,519.296 L232.02,524.84 " fill="none" style="stroke: #A9A9A9; stroke-width: 2.0;"/><polygon fill="none" points="300.51,469.65,300.5281,469.7177,304.5663,468.4206,308.7107,467.5202,312.8205,466.4907,316.8165,465.0363,320.97,464.17,320.9492,464.1546,318.3396,467.4956,315.8351,470.9141,313.4037,474.3865,310.7206,477.6732,308.39,481.22,308.5425,481.3239,306.6404,478.7877,305.1835,476.5549,303.781,474.359,302.0624,471.9479,300.51,469.65" style="stroke: #A9A9A9; stroke-width: 2.0;"/><!--link representacion to decimal--><path d="M374,484.81 L374.0934,484.81 L373.8159,492.788 L374.0859,500.766 L374.1776,508.744 L373.6829,516.722 L374,524.7 " fill="none" style="stroke: #A9A9A9; stroke-width: 2.0;"/><polygon fill="none" points="367,484.34,367.0661,484.3631,368.2696,480.2944,369.8608,476.3613,371.3257,472.384,372.3756,468.2614,374,464.34,373.9755,464.3314,375.2658,468.293,376.6793,472.2978,378.1786,476.3325,379.3825,480.2639,381,484.34,381,484.5245,378.2,484.1299,375.4,484.2741,372.6,484.484,369.8,484.3114,367,484.34" style="stroke: #A9A9A9; stroke-width: 2.0;"/><!--link representacion to binario--><path d="M436.66,476.74 L436.832,476.9612 L444.0671,482.3277 L452.3107,488.9909 L460.2259,495.2319 L467.0611,500.0841 L475.3276,506.777 L482.7884,512.4336 L490.5699,518.5026 L498.63,524.93 " fill="none" style="stroke: #A9A9A9; stroke-width: 2.0;"/><polygon fill="none" points="432.22,482.15,432.2789,482.188,429.8059,478.5131,427.6781,475.0609,425.438,471.5362,422.8282,467.7731,420.73,464.34,420.7217,464.3154,424.7006,465.5573,428.7212,466.9228,432.7708,468.3745,436.7205,469.5296,440.81,471.1,440.9557,471.2133,438.9261,473.1811,437.322,475.4795,435.7697,477.8184,433.9154,479.9225,432.22,482.15" style="stroke: #A9A9A9; stroke-width: 2.0;"/><polygon fill="#DDDDDD" points="13,617,13,617.2102,23.058,616.5857,33.1159,617.1933,43.1739,617.3997,53.2319,616.2866,63.2899,616.9223,73.3478,616.5735,83.4058,616.6165,93.4638,616.9318,103.5217,616.3086,113.5797,617.5536,123.6377,616.3697,133.6957,616.8022,143.7536,617.4319,153.8116,616.9142,163.8696,617.0682,173.9275,616.9681,183.9855,617.1785,194.0435,617.2391,204.1014,617.5857,214.1594,617.6711,224.2174,617.6793,234.2754,617.2546,244.3333,617.4636,254.3913,617.7022,264.4493,616.2788,274.5072,617.6785,284.5652,616.7035,294.6232,617.5338,304.6812,616.505,314.7391,616.9315,324.7971,617.7416,334.8551,616.9513,344.913,617.1053,354.971,617.3386,365.029,617.4162,375.087,616.9961,385.1449,617.2872,395.2029,616.4276,405.2609,617.2844,415.3188,617.5482,425.3768,617.4445,435.4348,617.613,445.4928,616.5169,455.5507,616.3478,465.6087,616.3786,475.6667,616.9411,485.7246,616.8035,495.7826,617.6814,505.8406,616.8253,515.8986,616.6569,525.9565,617.2283,536.0145,616.3332,546.0725,616.4809,556.1304,617.649,566.1884,617.4357,576.2464,617.7345,586.3043,616.6782,596.3623,617.3192,606.4203,617.5904,616.4783,616.5276,626.5362,616.9041,636.5942,617.126,646.6522,617.6518,656.7101,616.9958,666.7681,617.4626,676.8261,616.4462,686.8841,616.3227,696.942,617.5036,707,617,706.9085,616.7792,707.772,617.4496,708.4406,617.6494,709.0871,617.7962,709.7833,618.0626,710.5355,618.4645,710.6768,618.523,710.7362,619.1334,711.3036,619.9542,711.244,620.5153,711.8972,621.3717,712,622,712.4843,622,712.245,632.138,712.0472,642.276,712.7266,652.4141,712.6136,662.5521,712.1693,672.6901,712.2682,682.8281,711.8697,692.9661,712.7165,703.1042,712.1549,713.2422,712.1726,723.3802,711.3916,733.5182,711.5948,743.6563,712.5307,753.7943,712.4298,763.9323,711.9571,774.0703,711.6778,784.2083,711.7811,794.3464,712,804.4844,711.7887,804.3968,711.8348,805.2444,711.642,805.9929,711.2834,806.6728,711.0424,807.4014,710.5355,808.0199,710.5181,807.9778,709.8396,808.3397,709.0719,808.4863,708.4504,808.9861,707.7386,809.2675,707,809.4844,707,810.0368,696.942,809.2547,686.8841,809.35,676.8261,809.9278,666.7681,810.0517,656.7101,808.9718,646.6522,809.2905,636.5942,809.6336,626.5362,808.8735,616.4783,809.8378,606.4203,809.7424,596.3623,809.3836,586.3043,809.6266,576.2464,810.2131,566.1884,809.1715,556.1304,809.7994,546.0725,809.77,536.0145,809.6001,525.9565,809.6253,515.8986,809.5979,505.8406,808.8602,495.7826,809.0836,485.7246,809.0228,475.6667,809.5482,465.6087,809.5725,455.5507,809.6461,445.4928,809.1934,435.4348,809.4169,425.3768,809.3642,415.3188,810.0612,405.2609,809.9109,395.2029,808.9988,385.1449,809.4115,375.087,808.9071,365.029,809.7728,354.971,810.0929,344.913,810.0289,334.8551,809.0488,324.7971,809.9483,314.7391,808.7416,304.6812,809.6845,294.6232,809.1851,284.5652,809.5811,274.5072,809.7247,264.4493,809.9565,254.3913,808.7645,244.3333,809.9598,234.2754,809.6625,224.2174,809.8397,214.1594,810.2322,204.1014,809.4899,194.0435,809.6596,183.9855,809.6978,173.9275,809.6816,163.8696,809.4836,153.8116,810.1951,143.7536,808.8746,133.6957,810.0497,123.6377,808.8604,113.5797,808.9441,103.5217,809.5244,93.4638,809.5127,83.4058,808.9915,73.3478,809.8981,63.2899,809.5932,53.2319,810.211,43.1739,810.1515,33.1159,809.0361,23.058,809.0864,13,809.4844,12.9835,809.4446,12.3382,809.301,11.6372,809.0227,10.9171,808.6984,10.128,808.2075,9.4645,808.0199,9.6604,808.1011,9.3668,807.3936,8.8641,806.5997,8.5122,805.8681,8.1693,805.1403,8,804.4844,7.7854,804.4844,8.1374,794.3464,7.9316,784.2083,7.5822,774.0703,8.4874,763.9323,7.5411,753.7943,8.5024,743.6563,8.4272,733.5182,8.3719,723.3802,8.6925,713.2422,7.7541,703.1042,7.6994,692.9661,8.5189,682.8281,7.4031,672.6901,7.766,662.5521,8.1155,652.4141,8.0687,642.276,7.6415,632.138,8,622,7.9868,621.9945,8.5222,621.3879,8.7855,620.6685,8.6951,619.8026,9.1958,619.1816,9.4645,618.4645,9.3989,618.3062,10.1682,618.1635,10.9161,617.9689,11.6393,617.7151,12.2081,617.0882,13,617" style="stroke: #000000; stroke-width: 1.0;"/><text fill="#000000" font-family="sans-serif" font-size="14" font-weight="bold" lengthAdjust="spacingAndGlyphs" textLength="36" x="20" y="640.5332">Valor</text><text fill="#000000" font-family="sans-serif" font-size="14" font-weight="bold" lengthAdjust="spacingAndGlyphs" textLength="0" x="84" y="640.5332"/><text fill="#000000" font-family="sans-serif" font-size="14" font-weight="bold" lengthAdjust="spacingAndGlyphs" textLength="57" x="510" y="640.5332">Romano</text><text fill="#000000" font-family="sans-serif" font-size="14" font-weight="bold" lengthAdjust="spacingAndGlyphs" textLength="55" x="581" y="640.5332">Decimal</text><text fill="#000000" font-family="sans-serif" font-size="14" font-weight="bold" lengthAdjust="spacingAndGlyphs" textLength="50" x="646" y="640.5332">Binario</text><text fill="#000000" font-family="sans-serif" font-size="14" lengthAdjust="spacingAndGlyphs" textLength="8" x="20" y="660.1426">0</text><text fill="#000000" font-family="sans-serif" font-size="14" lengthAdjust="spacingAndGlyphs" textLength="57" x="514" y="660.1426">No existe</text><text fill="#000000" font-family="sans-serif" font-size="14" lengthAdjust="spacingAndGlyphs" textLength="8" x="581" y="660.1426">0</text><text fill="#000000" font-family="sans-serif" font-size="14" lengthAdjust="spacingAndGlyphs" textLength="8" x="646" y="660.1426">0</text><text fill="#000000" font-family="sans-serif" font-size="14" lengthAdjust="spacingAndGlyphs" textLength="48" x="20" y="679.752">next( 0)</text><text fill="#000000" font-family="sans-serif" font-size="14" lengthAdjust="spacingAndGlyphs" textLength="3" x="514" y="679.752">I</text><text fill="#000000" font-family="sans-serif" font-size="14" lengthAdjust="spacingAndGlyphs" textLength="8" x="581" y="679.752">1</text><text fill="#000000" font-family="sans-serif" font-size="14" lengthAdjust="spacingAndGlyphs" textLength="8" x="646" y="679.752">1</text><text fill="#000000" font-family="sans-serif" font-size="14" lengthAdjust="spacingAndGlyphs" textLength="84" x="20" y="699.3613">next( next(0))</text><text fill="#000000" font-family="sans-serif" font-size="14" lengthAdjust="spacingAndGlyphs" textLength="6" x="514" y="699.3613">II</text><text fill="#000000" font-family="sans-serif" font-size="14" lengthAdjust="spacingAndGlyphs" textLength="8" x="581" y="699.3613">2</text><text fill="#000000" font-family="sans-serif" font-size="14" lengthAdjust="spacingAndGlyphs" textLength="16" x="646" y="699.3613">10</text><text fill="#000000" font-family="sans-serif" font-size="14" lengthAdjust="spacingAndGlyphs" textLength="124" x="20" y="718.9707">next( next( next(0)))</text><text fill="#000000" font-family="sans-serif" font-size="14" lengthAdjust="spacingAndGlyphs" textLength="9" x="514" y="718.9707">III</text><text fill="#000000" font-family="sans-serif" font-size="14" lengthAdjust="spacingAndGlyphs" textLength="8" x="581" y="718.9707">3</text><text fill="#000000" font-family="sans-serif" font-size="14" lengthAdjust="spacingAndGlyphs" textLength="16" x="646" y="718.9707">11</text><text fill="#000000" font-family="sans-serif" font-size="14" lengthAdjust="spacingAndGlyphs" textLength="164" x="20" y="738.5801">next( next( next( next(0))))</text><text fill="#000000" font-family="sans-serif" font-size="14" lengthAdjust="spacingAndGlyphs" textLength="12" x="510" y="738.5801">IV</text><text fill="#000000" font-family="sans-serif" font-size="14" lengthAdjust="spacingAndGlyphs" textLength="8" x="581" y="738.5801">4</text><text fill="#000000" font-family="sans-serif" font-size="14" lengthAdjust="spacingAndGlyphs" textLength="24" x="646" y="738.5801">100</text><text fill="#000000" font-family="sans-serif" font-size="14" lengthAdjust="spacingAndGlyphs" textLength="12" x="20" y="758.1895">...</text><text fill="#000000" font-family="sans-serif" font-size="14" lengthAdjust="spacingAndGlyphs" textLength="12" x="514" y="758.1895">...</text><text fill="#000000" font-family="sans-serif" font-size="14" lengthAdjust="spacingAndGlyphs" textLength="12" x="581" y="758.1895">...</text><text fill="#000000" font-family="sans-serif" font-size="14" lengthAdjust="spacingAndGlyphs" textLength="12" x="646" y="758.1895">...</text><text fill="#000000" font-family="sans-serif" font-size="14" lengthAdjust="spacingAndGlyphs" textLength="484" x="20" y="777.7988">next( next( next( next( next( next( next( next( next( next( next( next(0))))))))))))</text><text fill="#000000" font-family="sans-serif" font-size="14" lengthAdjust="spacingAndGlyphs" textLength="14" x="514" y="777.7988">XII</text><text fill="#000000" font-family="sans-serif" font-size="14" lengthAdjust="spacingAndGlyphs" textLength="16" x="581" y="777.7988">12</text><text fill="#000000" font-family="sans-serif" font-size="14" lengthAdjust="spacingAndGlyphs" textLength="32" x="646" y="777.7988">1100</text><text fill="#000000" font-family="sans-serif" font-size="14" lengthAdjust="spacingAndGlyphs" textLength="12" x="20" y="797.4082">...</text><text fill="#000000" font-family="sans-serif" font-size="14" lengthAdjust="spacingAndGlyphs" textLength="0" x="518" y="797.4082"/><text fill="#000000" font-family="sans-serif" font-size="14" lengthAdjust="spacingAndGlyphs" textLength="0" x="585" y="797.4082"/><text fill="#000000" font-family="sans-serif" font-size="14" lengthAdjust="spacingAndGlyphs" textLength="0" x="654" y="797.4082"/><path d="M15,625 L15,625.2802 L25,624.4476 L35,625.2577 L45,625.5329 L55,624.0488 L65,624.8964 L75,624.4313 L85,624.4887 L95,624.9091 L105,624.0782 L115,625.7382 L125,624.1596 L135,624.7363 L145,625.5759 L155,624.8856 L165,625.091 L175,624.9574 L185,625.238 L195,625.3188 L205,625.7809 L215,625.8947 L225,625.9057 L235,625.3395 L245,625.6181 L255,625.9363 L265,624.0384 L275,625.9047 L285,624.6047 L295,625.7117 L305,624.34 L315,624.9087 L325,625.9888 L335,624.935 L345,625.1404 L355,625.4515 L365,625.555 L375,624.9948 L385,625.383 L395,624.2368 L405,625.3792 L415,625.7309 L425,625.5927 L435,625.8174 L445,624.3559 L455,624.1304 L465,624.1715 L475,624.9215 L485,624.738 L495,625.9085 L505,624.7671 L515,624.5426 L525,625.3044 L535,624.1109 L545,624.3078 L555,625.8653 L565,625.5809 L575,625.9793 L585,624.5709 L595,625.4256 L605,625.7872 L615,624.3701 L625,624.8722 L635,625.168 L645,625.869 L655,624.9944 L665,625.6168 L675,624.2616 L685,624.097 L695,625.6715 L705,625 " fill="none" style="stroke: #000000; stroke-width: 1.0;"/><path d="M15,644.6094 L15,644.8896 L25,644.0569 L35,644.8671 L45,645.1423 L55,643.6582 L65,644.5058 L75,644.0407 L85,644.098 L95,644.5185 L105,643.6875 L115,645.3476 L125,643.769 L135,644.3457 L145,645.1853 L155,644.495 L165,644.7004 L175,644.5668 L185,644.8474 L195,644.9282 L205,645.3903 L215,645.5041 L225,645.5151 L235,644.9489 L245,645.2275 L255,645.5457 L265,643.6478 L275,645.5141 L285,644.214 L295,645.3211 L305,643.9493 L315,644.518 L325,645.5982 L335,644.5444 L345,644.7498 L355,645.0609 L365,645.1644 L375,644.6042 L385,644.9923 L395,643.8462 L405,644.9886 L415,645.3403 L425,645.2021 L435,645.4267 L445,643.9653 L455,643.7398 L465,643.7808 L475,644.5309 L485,644.3473 L495,645.5179 L505,644.3765 L515,644.152 L525,644.9137 L535,643.7203 L545,643.9172 L555,645.4746 L565,645.1903 L575,645.5887 L585,644.1803 L595,645.035 L605,645.3966 L615,643.9795 L625,644.4816 L635,644.7774 L645,645.4784 L655,644.6038 L665,645.2261 L675,643.871 L685,643.7064 L695,645.2809 L705,644.6094 " fill="none" style="stroke: #000000; stroke-width: 1.0;"/><path d="M15,664.2188 L15,664.499 L25,663.6663 L35,664.4765 L45,664.7517 L55,663.2676 L65,664.1151 L75,663.6501 L85,663.7074 L95,664.1279 L105,663.2969 L115,664.9569 L125,663.3784 L135,663.9551 L145,664.7947 L155,664.1044 L165,664.3097 L175,664.1762 L185,664.4568 L195,664.5376 L205,664.9997 L215,665.1135 L225,665.1244 L235,664.5583 L245,664.8369 L255,665.1551 L265,663.2572 L275,665.1234 L285,663.8234 L295,664.9305 L305,663.5587 L315,664.1274 L325,665.2076 L335,664.1538 L345,664.3592 L355,664.6703 L365,664.7737 L375,664.2135 L385,664.6017 L395,663.4555 L405,664.5979 L415,664.9497 L425,664.8115 L435,665.0361 L445,663.5746 L455,663.3492 L465,663.3902 L475,664.1402 L485,663.9567 L495,665.1273 L505,663.9858 L515,663.7613 L525,664.5231 L535,663.3296 L545,663.5266 L555,665.084 L565,664.7996 L575,665.1981 L585,663.7897 L595,664.6443 L605,665.006 L615,663.5889 L625,664.0909 L635,664.3867 L645,665.0878 L655,664.2132 L665,664.8355 L675,663.4804 L685,663.3157 L695,664.8902 L705,664.2188 " fill="none" style="stroke: #000000; stroke-width: 1.0;"/><path d="M15,683.8281 L15,684.1084 L25,683.2757 L35,684.0858 L45,684.361 L55,682.8769 L65,683.7245 L75,683.2595 L85,683.3168 L95,683.7372 L105,682.9063 L115,684.5663 L125,682.9878 L135,683.5644 L145,684.4041 L155,683.7138 L165,683.9191 L175,683.7855 L185,684.0662 L195,684.147 L205,684.609 L215,684.7229 L225,684.7338 L235,684.1676 L245,684.4462 L255,684.7644 L265,682.8665 L275,684.7328 L285,683.4328 L295,684.5399 L305,683.1681 L315,683.7368 L325,684.8169 L335,683.7631 L345,683.9685 L355,684.2796 L365,684.3831 L375,683.8229 L385,684.2111 L395,683.0649 L405,684.2073 L415,684.5591 L425,684.4208 L435,684.6455 L445,683.184 L455,682.9585 L465,682.9996 L475,683.7496 L485,683.5661 L495,684.7367 L505,683.5952 L515,683.3707 L525,684.1325 L535,682.939 L545,683.136 L555,684.6934 L565,684.409 L575,684.8074 L585,683.3991 L595,684.2537 L605,684.6154 L615,683.1983 L625,683.7003 L635,683.9961 L645,684.6971 L655,683.8225 L665,684.4449 L675,683.0897 L685,682.9251 L695,684.4996 L705,683.8281 " fill="none" style="stroke: #000000; stroke-width: 1.0;"/><path d="M15,703.4375 L15,703.7177 L25,702.8851 L35,703.6952 L45,703.9704 L55,702.4863 L65,703.3339 L75,702.8688 L85,702.9262 L95,703.3466 L105,702.5157 L115,704.1757 L125,702.5971 L135,703.1738 L145,704.0134 L155,703.3231 L165,703.5285 L175,703.3949 L185,703.6755 L195,703.7563 L205,704.2184 L215,704.3322 L225,704.3432 L235,703.777 L245,704.0556 L255,704.3738 L265,702.4759 L275,704.3422 L285,703.0422 L295,704.1492 L305,702.7775 L315,703.3462 L325,704.4263 L335,703.3725 L345,703.5779 L355,703.889 L365,703.9925 L375,703.4323 L385,703.8205 L395,702.6743 L405,703.8167 L415,704.1684 L425,704.0302 L435,704.2549 L445,702.7934 L455,702.5679 L465,702.609 L475,703.359 L485,703.1755 L495,704.346 L505,703.2046 L515,702.9801 L525,703.7419 L535,702.5484 L545,702.7453 L555,704.3028 L565,704.0184 L575,704.4168 L585,703.0084 L595,703.8631 L605,704.2247 L615,702.8076 L625,703.3097 L635,703.6055 L645,704.3065 L655,703.4319 L665,704.0543 L675,702.6991 L685,702.5345 L695,704.109 L705,703.4375 " fill="none" style="stroke: #000000; stroke-width: 1.0;"/><path d="M15,723.0469 L15,723.3271 L25,722.4944 L35,723.3046 L45,723.5798 L55,722.0957 L65,722.9433 L75,722.4782 L85,722.5355 L95,722.956 L105,722.125 L115,723.7851 L125,722.2065 L135,722.7832 L145,723.6228 L155,722.9325 L165,723.1379 L175,723.0043 L185,723.2849 L195,723.3657 L205,723.8278 L215,723.9416 L225,723.9526 L235,723.3864 L245,723.665 L255,723.9832 L265,722.0853 L275,723.9516 L285,722.6515 L295,723.7586 L305,722.3868 L315,722.9555 L325,724.0357 L335,722.9819 L345,723.1873 L355,723.4984 L365,723.6019 L375,723.0417 L385,723.4298 L395,722.2837 L405,723.4261 L415,723.7778 L425,723.6396 L435,723.8642 L445,722.4028 L455,722.1773 L465,722.2183 L475,722.9684 L485,722.7848 L495,723.9554 L505,722.814 L515,722.5895 L525,723.3512 L535,722.1578 L545,722.3547 L555,723.9121 L565,723.6278 L575,724.0262 L585,722.6178 L595,723.4725 L605,723.8341 L615,722.417 L625,722.9191 L635,723.2149 L645,723.9159 L655,723.0413 L665,723.6636 L675,722.3085 L685,722.1439 L695,723.7184 L705,723.0469 " fill="none" style="stroke: #000000; stroke-width: 1.0;"/><path d="M15,742.6563 L15,742.9365 L25,742.1038 L35,742.914 L45,743.1892 L55,741.7051 L65,742.5526 L75,742.0876 L85,742.1449 L95,742.5654 L105,741.7344 L115,743.3944 L125,741.8159 L135,742.3926 L145,743.2322 L155,742.5419 L165,742.7472 L175,742.6137 L185,742.8943 L195,742.9751 L205,743.4372 L215,743.551 L225,743.5619 L235,742.9958 L245,743.2744 L255,743.5926 L265,741.6947 L275,743.5609 L285,742.2609 L295,743.368 L305,741.9962 L315,742.5649 L325,743.6451 L335,742.5913 L345,742.7967 L355,743.1078 L365,743.2112 L375,742.651 L385,743.0392 L395,741.893 L405,743.0354 L415,743.3872 L425,743.249 L435,743.4736 L445,742.0121 L455,741.7867 L465,741.8277 L475,742.5777 L485,742.3942 L495,743.5648 L505,742.4233 L515,742.1988 L525,742.9606 L535,741.7671 L545,741.9641 L555,743.5215 L565,743.2371 L575,743.6356 L585,742.2272 L595,743.0818 L605,743.4435 L615,742.0264 L625,742.5284 L635,742.8242 L645,743.5253 L655,742.6507 L665,743.273 L675,741.9179 L685,741.7532 L695,743.3277 L705,742.6563 " fill="none" style="stroke: #000000; stroke-width: 1.0;"/><path d="M15,762.2656 L15,762.5459 L25,761.7132 L35,762.5233 L45,762.7985 L55,761.3144 L65,762.162 L75,761.697 L85,761.7543 L95,762.1747 L105,761.3438 L115,763.0038 L125,761.4253 L135,762.0019 L145,762.8416 L155,762.1513 L165,762.3566 L175,762.223 L185,762.5037 L195,762.5845 L205,763.0465 L215,763.1604 L225,763.1713 L235,762.6051 L245,762.8837 L255,763.2019 L265,761.304 L275,763.1703 L285,761.8703 L295,762.9774 L305,761.6056 L315,762.1743 L325,763.2544 L335,762.2006 L345,762.406 L355,762.7171 L365,762.8206 L375,762.2604 L385,762.6486 L395,761.5024 L405,762.6448 L415,762.9966 L425,762.8583 L435,763.083 L445,761.6215 L455,761.396 L465,761.4371 L475,762.1871 L485,762.0036 L495,763.1742 L505,762.0327 L515,761.8082 L525,762.57 L535,761.3765 L545,761.5735 L555,763.1309 L565,762.8465 L575,763.2449 L585,761.8366 L595,762.6912 L605,763.0529 L615,761.6358 L625,762.1378 L635,762.4336 L645,763.1346 L655,762.26 L665,762.8824 L675,761.5272 L685,761.3626 L695,762.9371 L705,762.2656 " fill="none" style="stroke: #000000; stroke-width: 1.0;"/><path d="M15,781.875 L15,782.1552 L25,781.3226 L35,782.1327 L45,782.4079 L55,780.9238 L65,781.7714 L75,781.3063 L85,781.3637 L95,781.7841 L105,780.9532 L115,782.6132 L125,781.0346 L135,781.6113 L145,782.4509 L155,781.7606 L165,781.966 L175,781.8324 L185,782.113 L195,782.1938 L205,782.6559 L215,782.7697 L225,782.7807 L235,782.2145 L245,782.4931 L255,782.8113 L265,780.9134 L275,782.7797 L285,781.4797 L295,782.5867 L305,781.215 L315,781.7837 L325,782.8638 L335,781.81 L345,782.0154 L355,782.3265 L365,782.43 L375,781.8698 L385,782.258 L395,781.1118 L405,782.2542 L415,782.6059 L425,782.4677 L435,782.6924 L445,781.2309 L455,781.0054 L465,781.0465 L475,781.7965 L485,781.613 L495,782.7835 L505,781.6421 L515,781.4176 L525,782.1794 L535,780.9859 L545,781.1828 L555,782.7403 L565,782.4559 L575,782.8543 L585,781.4459 L595,782.3006 L605,782.6622 L615,781.2451 L625,781.7472 L635,782.043 L645,782.744 L655,781.8694 L665,782.4918 L675,781.1366 L685,780.972 L695,782.5465 L705,781.875 " fill="none" style="stroke: #000000; stroke-width: 1.0;"/><path d="M15,801.4844 L15,801.7646 L25,800.9319 L35,801.7421 L45,802.0173 L55,800.5332 L65,801.3808 L75,800.9157 L85,800.973 L95,801.3935 L105,800.5625 L115,802.2226 L125,800.644 L135,801.2207 L145,802.0603 L155,801.37 L165,801.5754 L175,801.4418 L185,801.7224 L195,801.8032 L205,802.2653 L215,802.3791 L225,802.3901 L235,801.8239 L245,802.1025 L255,802.4207 L265,800.5228 L275,802.3891 L285,801.089 L295,802.1961 L305,800.8243 L315,801.393 L325,802.4732 L335,801.4194 L345,801.6248 L355,801.9359 L365,802.0394 L375,801.4792 L385,801.8673 L395,800.7212 L405,801.8636 L415,802.2153 L425,802.0771 L435,802.3017 L445,800.8403 L455,800.6148 L465,800.6558 L475,801.4059 L485,801.2223 L495,802.3929 L505,801.2515 L515,801.027 L525,801.7887 L535,800.5953 L545,800.7922 L555,802.3496 L565,802.0653 L575,802.4637 L585,801.0553 L595,801.91 L605,802.2716 L615,800.8545 L625,801.3566 L635,801.6524 L645,802.3534 L655,801.4788 L665,802.1011 L675,800.746 L685,800.5814 L695,802.1559 L705,801.4844 " fill="none" style="stroke: #000000; stroke-width: 1.0;"/><path d="M15,625 L15.2802,625 L14.4476,634.8047 L15.2577,644.6094 L15.5329,654.4141 L14.0488,664.2188 L14.8964,674.0234 L14.4313,683.8281 L14.4887,693.6328 L14.9091,703.4375 L14.0782,713.2422 L15.7382,723.0469 L14.1596,732.8516 L14.7363,742.6563 L15.5759,752.4609 L14.8856,762.2656 L15.091,772.0703 L14.9574,781.875 L15.238,791.6797 L15,801.4844 " fill="none" style="stroke: #000000; stroke-width: 1.0;"/><path d="M509,625 L509.2802,625 L508.4476,634.8047 L509.2577,644.6094 L509.5329,654.4141 L508.0488,664.2188 L508.8964,674.0234 L508.4313,683.8281 L508.4887,693.6328 L508.9091,703.4375 L508.0782,713.2422 L509.7382,723.0469 L508.1596,732.8516 L508.7363,742.6563 L509.5759,752.4609 L508.8856,762.2656 L509.091,772.0703 L508.9574,781.875 L509.238,791.6797 L509,801.4844 " fill="none" style="stroke: #000000; stroke-width: 1.0;"/><path d="M576,625 L576.2802,625 L575.4476,634.8047 L576.2577,644.6094 L576.5329,654.4141 L575.0488,664.2188 L575.8964,674.0234 L575.4313,683.8281 L575.4887,693.6328 L575.9091,703.4375 L575.0782,713.2422 L576.7382,723.0469 L575.1596,732.8516 L575.7363,742.6563 L576.5759,752.4609 L575.8856,762.2656 L576.091,772.0703 L575.9574,781.875 L576.238,791.6797 L576,801.4844 " fill="none" style="stroke: #000000; stroke-width: 1.0;"/><path d="M641,625 L641.2802,625 L640.4476,634.8047 L641.2577,644.6094 L641.5329,654.4141 L640.0488,664.2188 L640.8964,674.0234 L640.4313,683.8281 L640.4887,693.6328 L640.9091,703.4375 L640.0782,713.2422 L641.7382,723.0469 L640.1596,732.8516 L640.7363,742.6563 L641.5759,752.4609 L640.8856,762.2656 L641.091,772.0703 L640.9574,781.875 L641.238,791.6797 L641,801.4844 " fill="none" style="stroke: #000000; stroke-width: 1.0;"/><path d="M705,625 L705.2802,625 L704.4476,634.8047 L705.2577,644.6094 L705.5329,654.4141 L704.0488,664.2188 L704.8964,674.0234 L704.4313,683.8281 L704.4887,693.6328 L704.9091,703.4375 L704.0782,713.2422 L705.7382,723.0469 L704.1596,732.8516 L704.7363,742.6563 L705.5759,752.4609 L704.8856,762.2656 L705.091,772.0703 L704.9574,781.875 L705.238,791.6797 L705,801.4844 " fill="none" style="stroke: #000000; stroke-width: 1.0;"/><!--
@startuml
skinparam backgroundColor #222222

skinparam handwritten true

skinparam shadowing false
skinparam padding 1
skinparam arrow {
    Thickness 2
    Color #DarkGrey
    FontSize 20
    FontName courier
    FontStyle normal
    FontColor #DarkGrey
}

skinparam object {
    BorderThickness 3
    BorderColor<<A>> #ForestGreen
    BorderColor<<B>> #Crimson
    BorderColor<<C>> #DodgerBlue
    BackgroundColor #222222
    FontSize 20
    FontName courier
    FontStyle bold
    FontColor<<A>> #ForestGreen
    FontColor<<B>> #Crimson
    FontColor<<C>> #DodgerBlue
}

hide circle
hide stereotype

legend
| Valor	 |Romano  | Decimal | Binario  |
| 0 | No existe | 0 | 0 |
| next( 0) | I | 1 | 1 |
| next( next(0)) | II | 2 | 10 |
| next( next( next(0))) | III | 3 | 11 |
| next( next( next( next(0)))) |IV | 4 | 100  |
| ... | ... | ... | ...  |
| next( next( next( next( next( next( next( next( next( next( next( next(0)))))))))))) | XII | 12 | 1100  |
| ... |  |  |   |
end legend

object "Ente / Entidad" as ente <<A>>
object "Propiedad" as propiedad <<A>>
object "Valor\n<<modelo>>" as valor <<A>>
object "Representación\n<<vista>>" as representacion <<B>>
object "Número Romano\n<<vista>>" as romano <<B>>
object "Indoarábigo\n<<vista>>" as decimal <<B>>
object "Binario\n<<vista>>" as binario <<B>>
object "Unidad" as unidad <<C>>

ente *-down-> propiedad
propiedad *-down-> valor
propiedad *-down-> unidad
valor - -> "n" unidad #text:DarkGrey : relación
valor - -> representacion
representacion <|-down- romano
representacion <|-down- decimal
representacion <|-down- binario

@enduml

PlantUML version 1.2019.05(Sat Apr 20 18:45:36 CEST 2019)
(GPL source distribution)
Java Runtime: Java(TM) SE Runtime Environment
JVM: Java HotSpot(TM) 64-Bit Server VM
Java Version: 11.0.14+8-LTS-263
Operating System: Windows 10
OS Version: 10.0
Default Encoding: windows-1252
Language: es
Country: ES
--></g></svg>