<?xml version="1.0" encoding="UTF-8" standalone="no"?><svg xmlns="http://www.w3.org/2000/svg" xmlns:xlink="http://www.w3.org/1999/xlink" contentScriptType="application/ecmascript" contentStyleType="text/css" height="790px" preserveAspectRatio="none" style="width:470px;height:790px;background:#222222;" version="1.1" viewBox="0 0 470 790" width="470px" zoomAndPan="magnify"><defs/><g><ellipse cx="169.25" cy="20" fill="#A9A9A9" rx="10" ry="10" style="stroke: none; stroke-width: 1.0;"/><rect fill="#222222" height="52.1875" rx="12.5" ry="12.5" style="stroke: #A9A9A9; stroke-width: 1.5;" width="105" x="116.75" y="50"/><text fill="#A9A9A9" font-family="sans-serif" font-size="12" lengthAdjust="spacingAndGlyphs" textLength="80" x="127.75" y="73.457">Crear rama de</text><text fill="#A9A9A9" font-family="sans-serif" font-size="12" lengthAdjust="spacingAndGlyphs" textLength="61" x="127.75" y="88.5508">producción</text><rect fill="#222222" height="52.1875" rx="12.5" ry="12.5" style="stroke: #A9A9A9; stroke-width: 1.5;" width="139" x="99.75" y="122.1875"/><text fill="#A9A9A9" font-family="sans-serif" font-size="12" lengthAdjust="spacingAndGlyphs" textLength="51" x="110.75" y="145.6445">Construir</text><text fill="#A9A9A9" font-family="sans-serif" font-size="12" lengthAdjust="spacingAndGlyphs" textLength="117" x="110.75" y="160.7383">(compilar, enlazar, ...)</text><polygon fill="#222222" points="157.25,203.9941,181.25,203.9941,193.25,215.9941,181.25,227.9941,157.25,227.9941,145.25,215.9941,157.25,203.9941" style="stroke: #A9A9A9; stroke-width: 1.5;"/><text fill="#FF0000" font-family="courier" font-size="20" lengthAdjust="spacingAndGlyphs" textLength="120" x="24.25" y="208.9883">!construye</text><rect fill="#222222" height="97.4688" style="stroke: #A9A9A9; stroke-width: 1.5;" width="98" x="10" y="237.9941"/><line style="stroke: #A9A9A9; stroke-width: 1.5;" x1="15" x2="15" y1="237.9941" y2="335.4629"/><line style="stroke: #A9A9A9; stroke-width: 1.5;" x1="103" x2="103" y1="237.9941" y2="335.4629"/><text fill="#A9A9A9" font-family="sans-serif" font-size="12" lengthAdjust="spacingAndGlyphs" textLength="73" x="21" y="261.4512">Construcción</text><text fill="#A9A9A9" font-family="sans-serif" font-size="12" lengthAdjust="spacingAndGlyphs" textLength="25" x="21" y="276.5449">para</text><text fill="#A9A9A9" font-family="sans-serif" font-size="12" lengthAdjust="spacingAndGlyphs" textLength="72" x="21" y="291.6387">arreglar error</text><text fill="#A9A9A9" font-family="sans-serif" font-size="12" lengthAdjust="spacingAndGlyphs" textLength="72" x="21" y="306.7324">en el entorno</text><text fill="#A9A9A9" font-family="sans-serif" font-size="12" lengthAdjust="spacingAndGlyphs" textLength="26" x="21" y="321.8262">local</text><path d="M351.5,237.9941 L351.5,266.1074 L331.5,270.1074 L351.5,274.1074 L351.5,302.2207 A0,0 0 0 0 351.5,302.2207 L458.5,302.2207 A0,0 0 0 0 458.5,302.2207 L458.5,247.9941 L448.5,237.9941 L351.5,237.9941 A0,0 0 0 0 351.5,237.9941 " fill="#222222" style="stroke: #A9A9A9; stroke-width: 1.0;"/><path d="M448.5,237.9941 L448.5,247.9941 L458.5,247.9941 L448.5,237.9941 " fill="#222222" style="stroke: #A9A9A9; stroke-width: 1.0;"/><text fill="#A9A9A9" font-family="courier" font-size="20" lengthAdjust="spacingAndGlyphs" textLength="84" x="358.5" y="264.1016">Pruebas</text><text fill="#A9A9A9" font-family="courier" font-size="20" lengthAdjust="spacingAndGlyphs" textLength="48" x="370.5" y="290.2148">Beta</text><rect fill="#222222" height="52.1875" rx="12.5" ry="12.5" style="stroke: #A9A9A9; stroke-width: 1.5;" width="104" x="227.5" y="244.0137"/><text fill="#A9A9A9" font-family="sans-serif" font-size="12" lengthAdjust="spacingAndGlyphs" textLength="79" x="238.5" y="267.4707">Ejecutar todas</text><text fill="#A9A9A9" font-family="sans-serif" font-size="12" lengthAdjust="spacingAndGlyphs" textLength="66" x="238.5" y="282.5645">las pruebas</text><rect fill="#222222" height="37.0938" rx="12.5" ry="12.5" style="stroke: #A9A9A9; stroke-width: 1.5;" width="138" x="210.5" y="337.2207"/><text fill="#A9A9A9" font-family="sans-serif" font-size="12" lengthAdjust="spacingAndGlyphs" textLength="116" x="221.5" y="360.6777">Mostrar por Radiador</text><polygon fill="#222222" points="267.5,403.9336,291.5,403.9336,303.5,415.9336,291.5,427.9336,267.5,427.9336,255.5,415.9336,267.5,403.9336" style="stroke: #A9A9A9; stroke-width: 1.5;"/><text fill="#FF0000" font-family="courier" font-size="20" lengthAdjust="spacingAndGlyphs" textLength="48" x="206.5" y="408.9277">rojo</text><rect fill="#222222" height="67.2813" style="stroke: #A9A9A9; stroke-width: 1.5;" width="126" x="138" y="437.9336"/><line style="stroke: #A9A9A9; stroke-width: 1.5;" x1="143" x2="143" y1="437.9336" y2="505.2148"/><line style="stroke: #A9A9A9; stroke-width: 1.5;" x1="259" x2="259" y1="437.9336" y2="505.2148"/><text fill="#A9A9A9" font-family="sans-serif" font-size="12" lengthAdjust="spacingAndGlyphs" textLength="73" x="149" y="461.3906">Construcción</text><text fill="#A9A9A9" font-family="sans-serif" font-size="12" lengthAdjust="spacingAndGlyphs" textLength="100" x="149" y="476.4844">para arreglar error</text><text fill="#A9A9A9" font-family="sans-serif" font-size="12" lengthAdjust="spacingAndGlyphs" textLength="101" x="152" y="491.5781">en el entorno local</text><rect fill="#222222" height="37.0938" rx="12.5" ry="12.5" style="stroke: #A9A9A9; stroke-width: 1.5;" width="85" x="315.5" y="437.9336"/><text fill="#A9A9A9" font-family="sans-serif" font-size="12" lengthAdjust="spacingAndGlyphs" textLength="63" x="326.5" y="461.3906">Explotación</text><rect fill="#222222" height="67.2813" style="stroke: #A9A9A9; stroke-width: 1.5;" width="128" x="294" y="566.084"/><line style="stroke: #A9A9A9; stroke-width: 1.5;" x1="299" x2="299" y1="566.084" y2="633.3652"/><line style="stroke: #A9A9A9; stroke-width: 1.5;" x1="417" x2="417" y1="566.084" y2="633.3652"/><text fill="#A9A9A9" font-family="sans-serif" font-size="12" lengthAdjust="spacingAndGlyphs" textLength="73" x="305" y="589.541">Construcción</text><text fill="#A9A9A9" font-family="sans-serif" font-size="12" lengthAdjust="spacingAndGlyphs" textLength="100" x="308" y="604.6348">para arreglar error</text><text fill="#A9A9A9" font-family="sans-serif" font-size="12" lengthAdjust="spacingAndGlyphs" textLength="101" x="305" y="619.7285">en el entorno local</text><polygon fill="#222222" points="346,510.0273,370,510.0273,382,522.0273,370,534.0273,346,534.0273,334,522.0273,346,510.0273" style="stroke: #A9A9A9; stroke-width: 1.5;"/><text fill="#FF0000" font-family="courier" font-size="20" lengthAdjust="spacingAndGlyphs" textLength="60" x="363" y="555.1348">error</text><polygon fill="#222222" points="358,653.3652,370,665.3652,358,677.3652,346,665.3652,358,653.3652" style="stroke: #A9A9A9; stroke-width: 1.5;"/><polygon fill="#222222" points="279.5,683.3652,291.5,695.3652,279.5,707.3652,267.5,695.3652,279.5,683.3652" style="stroke: #A9A9A9; stroke-width: 1.5;"/><polygon fill="#222222" points="169.25,713.3652,181.25,725.3652,169.25,737.3652,157.25,725.3652,169.25,713.3652" style="stroke: #A9A9A9; stroke-width: 1.5;"/><ellipse cx="169.25" cy="768.3652" fill="#FFFFFF" rx="11" ry="11" style="stroke: #A9A9A9; stroke-width: 1.0;"/><ellipse cx="169.25" cy="768.3652" fill="#A9A9A9" rx="6" ry="6" style="stroke: #D4D4D4; stroke-width: 1.0;"/><line style="stroke: #A9A9A9; stroke-width: 1.5;" x1="169.25" x2="169.25" y1="30" y2="50"/><polygon fill="#A9A9A9" points="165.25,40,169.25,50,173.25,40,169.25,44" style="stroke: #A9A9A9; stroke-width: 1.0;"/><line style="stroke: #A9A9A9; stroke-width: 1.5;" x1="169.25" x2="169.25" y1="102.1875" y2="122.1875"/><polygon fill="#A9A9A9" points="165.25,112.1875,169.25,122.1875,173.25,112.1875,169.25,116.1875" style="stroke: #A9A9A9; stroke-width: 1.0;"/><line style="stroke: #A9A9A9; stroke-width: 1.5;" x1="279.5" x2="279.5" y1="296.2012" y2="337.2207"/><polygon fill="#A9A9A9" points="275.5,327.2207,279.5,337.2207,283.5,327.2207,279.5,331.2207" style="stroke: #A9A9A9; stroke-width: 1.0;"/><line style="stroke: #A9A9A9; stroke-width: 1.5;" x1="358" x2="358" y1="534.0273" y2="566.084"/><polygon fill="#A9A9A9" points="354,556.084,358,566.084,362,556.084,358,560.084" style="stroke: #A9A9A9; stroke-width: 1.0;"/><line style="stroke: #A9A9A9; stroke-width: 1.5;" x1="382" x2="432" y1="522.0273" y2="522.0273"/><polygon fill="#A9A9A9" points="428,590.7246,432,600.7246,436,590.7246,432,594.7246" style="stroke: #A9A9A9; stroke-width: 1.5;"/><line style="stroke: #A9A9A9; stroke-width: 1.5;" x1="432" x2="432" y1="522.0273" y2="665.3652"/><line style="stroke: #A9A9A9; stroke-width: 1.5;" x1="432" x2="370" y1="665.3652" y2="665.3652"/><polygon fill="#A9A9A9" points="380,661.3652,370,665.3652,380,669.3652,376,665.3652" style="stroke: #A9A9A9; stroke-width: 1.0;"/><line style="stroke: #A9A9A9; stroke-width: 1.5;" x1="358" x2="358" y1="633.3652" y2="653.3652"/><polygon fill="#A9A9A9" points="354,643.3652,358,653.3652,362,643.3652,358,647.3652" style="stroke: #A9A9A9; stroke-width: 1.0;"/><line style="stroke: #A9A9A9; stroke-width: 1.5;" x1="358" x2="358" y1="475.0273" y2="510.0273"/><polygon fill="#A9A9A9" points="354,500.0273,358,510.0273,362,500.0273,358,504.0273" style="stroke: #A9A9A9; stroke-width: 1.0;"/><line style="stroke: #A9A9A9; stroke-width: 1.5;" x1="255.5" x2="201" y1="415.9336" y2="415.9336"/><line style="stroke: #A9A9A9; stroke-width: 1.5;" x1="201" x2="201" y1="415.9336" y2="437.9336"/><polygon fill="#A9A9A9" points="197,427.9336,201,437.9336,205,427.9336,201,431.9336" style="stroke: #A9A9A9; stroke-width: 1.0;"/><line style="stroke: #A9A9A9; stroke-width: 1.5;" x1="303.5" x2="358" y1="415.9336" y2="415.9336"/><line style="stroke: #A9A9A9; stroke-width: 1.5;" x1="358" x2="358" y1="415.9336" y2="437.9336"/><polygon fill="#A9A9A9" points="354,427.9336,358,437.9336,362,427.9336,358,431.9336" style="stroke: #A9A9A9; stroke-width: 1.0;"/><line style="stroke: #A9A9A9; stroke-width: 1.5;" x1="201" x2="201" y1="505.2148" y2="695.3652"/><line style="stroke: #A9A9A9; stroke-width: 1.5;" x1="201" x2="267.5" y1="695.3652" y2="695.3652"/><polygon fill="#A9A9A9" points="257.5,691.3652,267.5,695.3652,257.5,699.3652,261.5,695.3652" style="stroke: #A9A9A9; stroke-width: 1.0;"/><line style="stroke: #A9A9A9; stroke-width: 1.5;" x1="358" x2="358" y1="677.3652" y2="695.3652"/><line style="stroke: #A9A9A9; stroke-width: 1.5;" x1="358" x2="291.5" y1="695.3652" y2="695.3652"/><polygon fill="#A9A9A9" points="301.5,691.3652,291.5,695.3652,301.5,699.3652,297.5,695.3652" style="stroke: #A9A9A9; stroke-width: 1.0;"/><line style="stroke: #A9A9A9; stroke-width: 1.5;" x1="279.5" x2="279.5" y1="374.3145" y2="403.9336"/><polygon fill="#A9A9A9" points="275.5,393.9336,279.5,403.9336,283.5,393.9336,279.5,397.9336" style="stroke: #A9A9A9; stroke-width: 1.0;"/><line style="stroke: #A9A9A9; stroke-width: 1.5;" x1="145.25" x2="59" y1="215.9941" y2="215.9941"/><line style="stroke: #A9A9A9; stroke-width: 1.5;" x1="59" x2="59" y1="215.9941" y2="237.9941"/><polygon fill="#A9A9A9" points="55,227.9941,59,237.9941,63,227.9941,59,231.9941" style="stroke: #A9A9A9; stroke-width: 1.0;"/><line style="stroke: #A9A9A9; stroke-width: 1.5;" x1="193.25" x2="279.5" y1="215.9941" y2="215.9941"/><line style="stroke: #A9A9A9; stroke-width: 1.5;" x1="279.5" x2="279.5" y1="215.9941" y2="244.0137"/><polygon fill="#A9A9A9" points="275.5,234.0137,279.5,244.0137,283.5,234.0137,279.5,238.0137" style="stroke: #A9A9A9; stroke-width: 1.0;"/><line style="stroke: #A9A9A9; stroke-width: 1.5;" x1="59" x2="59" y1="335.4629" y2="725.3652"/><line style="stroke: #A9A9A9; stroke-width: 1.5;" x1="59" x2="157.25" y1="725.3652" y2="725.3652"/><polygon fill="#A9A9A9" points="147.25,721.3652,157.25,725.3652,147.25,729.3652,151.25,725.3652" style="stroke: #A9A9A9; stroke-width: 1.0;"/><line style="stroke: #A9A9A9; stroke-width: 1.5;" x1="279.5" x2="279.5" y1="707.3652" y2="725.3652"/><line style="stroke: #A9A9A9; stroke-width: 1.5;" x1="279.5" x2="181.25" y1="725.3652" y2="725.3652"/><polygon fill="#A9A9A9" points="191.25,721.3652,181.25,725.3652,191.25,729.3652,187.25,725.3652" style="stroke: #A9A9A9; stroke-width: 1.0;"/><line style="stroke: #A9A9A9; stroke-width: 1.5;" x1="169.25" x2="169.25" y1="174.375" y2="203.9941"/><polygon fill="#A9A9A9" points="165.25,193.9941,169.25,203.9941,173.25,193.9941,169.25,197.9941" style="stroke: #A9A9A9; stroke-width: 1.0;"/><line style="stroke: #A9A9A9; stroke-width: 1.5;" x1="169.25" x2="169.25" y1="737.3652" y2="757.3652"/><polygon fill="#A9A9A9" points="165.25,747.3652,169.25,757.3652,173.25,747.3652,169.25,751.3652" style="stroke: #A9A9A9; stroke-width: 1.0;"/><!--
@startuml
skinparam backgroundColor #222222
skinparam shadowing false
skinparam padding 1
skinparam arrow {
    Thickness 2
    Color #DarkGrey
    FontSize 20
    FontName courier
    FontStyle normal
    FontColor #DarkGrey
}
skinparam activity {
   startColor #DarkGrey
   endColor #DarkGrey
   borderColor #DarkGrey
   BackgroundColor #222222
   FontColor #DarkGrey
   DiamondBorderColor #DarkGrey
   DiamondBackgroundColor #222222
}
skinparam note {
    BorderThickness 3
    BorderColor #DarkGrey
    BackgroundColor #222222
    FontSize 20
    FontName courier
    FontStyle normal
    FontColor #DarkGrey
}
start
:Crear rama de \nproducción;
:Construir \n(compilar, enlazar, ...);
if () then(<font color="red">!construye</font>)
:Construcción \npara \narreglar error \nen el entorno \nlocal|
else
:Ejecutar todas \nlas pruebas;
note right
Pruebas
 Beta
endnote
:Mostrar por Radiador;
if () then(<font color="red">rojo</font>)
:Construcción \npara arreglar error\n en el entorno local|
else
:Explotación;
if () then (<font color="red">error</font>)
:Construcción\n para arreglar error \nen el entorno local|
endif
endif
endif
stop

@enduml

PlantUML version 1.2019.05(Sat Apr 20 18:45:36 CEST 2019)
(GPL source distribution)
Java Runtime: Java(TM) SE Runtime Environment
JVM: Java HotSpot(TM) 64-Bit Server VM
Java Version: 11.0.14+8-LTS-263
Operating System: Windows 10
OS Version: 10.0
Default Encoding: windows-1252
Language: es
Country: ES
--></g></svg>