<?xml version="1.0" encoding="UTF-8" standalone="no"?><svg xmlns="http://www.w3.org/2000/svg" xmlns:xlink="http://www.w3.org/1999/xlink" contentScriptType="application/ecmascript" contentStyleType="text/css" height="1284px" preserveAspectRatio="none" style="width:1224px;height:1284px;background:#222222;" version="1.1" viewBox="0 0 1224 1284" width="1224px" zoomAndPan="magnify"><defs/><g><!--cluster desarrollo--><polygon fill="#222222" points="22,24,150,24,157,58.1133,1202,58.1133,1202,1272,22,1272,22,24" style="stroke: #A9A9A9; stroke-width: 3.0;"/><line style="stroke: #A9A9A9; stroke-width: 3.0;" x1="22" x2="157" y1="58.1133" y2="58.1133"/><text fill="#A9A9A9" font-family="courier" font-size="20" font-weight="bold" lengthAdjust="spacingAndGlyphs" textLength="120" x="27" y="47.1074">desarrollo</text><!--cluster requisitos--><polygon fill="#222222" points="569,533,697,533,704,567.1133,707,567.1133,707,644,569,644,569,533" style="stroke: #A9A9A9; stroke-width: 3.0;"/><line style="stroke: #A9A9A9; stroke-width: 3.0;" x1="569" x2="704" y1="567.1133" y2="567.1133"/><text fill="#A9A9A9" font-family="courier" font-size="20" font-weight="bold" lengthAdjust="spacingAndGlyphs" textLength="120" x="574" y="556.1074">requisitos</text><!--cluster programacion--><polygon fill="#222222" points="876,863,1028,863,1035,897.1133,1134,897.1133,1134,1248,876,1248,876,863" style="stroke: #A9A9A9; stroke-width: 3.0;"/><line style="stroke: #A9A9A9; stroke-width: 3.0;" x1="876" x2="1035" y1="897.1133" y2="897.1133"/><text fill="#A9A9A9" font-family="courier" font-size="20" font-weight="bold" lengthAdjust="spacingAndGlyphs" textLength="144" x="881" y="886.1074">programacion</text><!--cluster diseño--><polygon fill="#222222" points="46,689,126,689,133,723.1133,739,723.1133,739,1234,46,1234,46,689" style="stroke: #A9A9A9; stroke-width: 3.0;"/><line style="stroke: #A9A9A9; stroke-width: 3.0;" x1="46" x2="133" y1="723.1133" y2="723.1133"/><text fill="#A9A9A9" font-family="courier" font-size="20" font-weight="bold" lengthAdjust="spacingAndGlyphs" textLength="72" x="51" y="712.1074">diseño</text><!--cluster pruebas--><polygon fill="#222222" points="771,218,863,218,870,252.1133,1170,252.1133,1170,822,771,822,771,218" style="stroke: #A9A9A9; stroke-width: 3.0;"/><line style="stroke: #A9A9A9; stroke-width: 3.0;" x1="771" x2="870" y1="252.1133" y2="252.1133"/><text fill="#A9A9A9" font-family="courier" font-size="20" font-weight="bold" lengthAdjust="spacingAndGlyphs" textLength="84" x="776" y="241.1074">pruebas</text><!--entity Producto--><rect fill="#222222" height="48.1133" style="stroke: #A9A9A9; stroke-width: 3.0;" width="118" x="601" y="424"/><text fill="#A9A9A9" font-family="courier" font-size="20" font-weight="bold" lengthAdjust="spacingAndGlyphs" textLength="96" x="612" y="455.1074">Producto</text><!--entity Coste--><rect fill="#222222" height="48.1133" style="stroke: #A9A9A9; stroke-width: 3.0;" width="82" x="342" y="580"/><text fill="#A9A9A9" font-family="courier" font-size="20" font-weight="bold" lengthAdjust="spacingAndGlyphs" textLength="60" x="353" y="611.1074">Coste</text><!--entity Tiempo--><rect fill="#222222" height="48.1133" style="stroke: #A9A9A9; stroke-width: 3.0;" width="94" x="459" y="580"/><text fill="#A9A9A9" font-family="courier" font-size="20" font-weight="bold" lengthAdjust="spacingAndGlyphs" textLength="72" x="470" y="611.1074">Tiempo</text><!--entity Efectividad--><rect fill="#222222" height="48.1133" style="stroke: #A9A9A9; stroke-width: 3.0;" width="154" x="470" y="115"/><text fill="#A9A9A9" font-family="courier" font-size="20" font-weight="bold" lengthAdjust="spacingAndGlyphs" textLength="132" x="481" y="146.1074">Efectividad</text><!--entity Eficacia--><rect fill="#222222" height="48.1133" style="stroke: #A9A9A9; stroke-width: 3.0;" width="118" x="506" y="287"/><text fill="#A9A9A9" font-family="courier" font-size="20" font-weight="bold" lengthAdjust="spacingAndGlyphs" textLength="96" x="517" y="318.1074">Eficacia</text><!--entity Eficiencia--><rect fill="#222222" height="48.1133" style="stroke: #A9A9A9; stroke-width: 3.0;" width="142" x="329" y="287"/><text fill="#A9A9A9" font-family="courier" font-size="20" font-weight="bold" lengthAdjust="spacingAndGlyphs" textLength="120" x="340" y="318.1074">Eficiencia</text><!--entity Ámbito--><rect fill="#222222" height="48.1133" style="stroke: #DC143C; stroke-width: 3.0;" width="94" x="593" y="580"/><text fill="#DC143C" font-family="courier" font-size="20" font-weight="bold" lengthAdjust="spacingAndGlyphs" textLength="72" x="604" y="611.1074">Ámbito</text><!--entity Produccion--><rect fill="#222222" height="48.1133" style="stroke: #87CEEB; stroke-width: 3.0;" width="142" x="892" y="910"/><text fill="#87CEEB" font-family="courier" font-size="20" font-weight="bold" lengthAdjust="spacingAndGlyphs" textLength="120" x="903" y="941.1074">Producción</text><!--entity SUT--><rect fill="#222222" height="76.2266" style="stroke: #87CEEB; stroke-width: 3.0;" width="154" x="922" y="1019"/><text fill="#87CEEB" font-family="courier" font-size="20" font-weight="bold" lengthAdjust="spacingAndGlyphs" textLength="132" x="933" y="1050.1074">Sujeto bajo</text><text fill="#87CEEB" font-family="courier" font-size="20" font-weight="bold" lengthAdjust="spacingAndGlyphs" textLength="72" x="933" y="1078.2207">Prueba</text><!--entity DOC--><rect fill="#222222" height="76.2266" style="stroke: #87CEEB; stroke-width: 3.0;" width="226" x="892" y="1156"/><text fill="#87CEEB" font-family="courier" font-size="20" font-weight="bold" lengthAdjust="spacingAndGlyphs" textLength="156" x="903" y="1187.1074">Componentedel</text><text fill="#87CEEB" font-family="courier" font-size="20" font-weight="bold" lengthAdjust="spacingAndGlyphs" textLength="204" x="903" y="1215.2207">que Depende (DOC)</text><!--entity Calidad--><rect fill="#222222" height="48.1133" style="stroke: #1E90FF; stroke-width: 3.0;" width="106" x="584" y="736"/><text fill="#1E90FF" font-family="courier" font-size="20" font-weight="bold" lengthAdjust="spacingAndGlyphs" textLength="84" x="595" y="767.1074">Calidad</text><!--entity X--><rect fill="#222222" height="48.1133" style="stroke: #1E90FF; stroke-width: 3.0;" width="58" x="505" y="910"/><text fill="#1E90FF" font-family="courier" font-size="20" font-weight="bold" lengthAdjust="spacingAndGlyphs" textLength="36" x="516" y="941.1074">...</text><!--entity Mantenibilidad--><rect fill="#222222" height="48.1133" style="stroke: #1E90FF; stroke-width: 3.0;" width="190" x="415" y="1033"/><text fill="#1E90FF" font-family="courier" font-size="20" font-weight="bold" lengthAdjust="spacingAndGlyphs" textLength="168" x="426" y="1064.1074">Mantenibilidad</text><!--entity Fluidez--><rect fill="#222222" height="48.1133" style="stroke: #1E90FF; stroke-width: 3.0;" width="106" x="62" y="1170"/><text fill="#1E90FF" font-family="courier" font-size="20" font-weight="bold" lengthAdjust="spacingAndGlyphs" textLength="84" x="73" y="1201.1074">Fluidez</text><!--entity Flexibilidad--><rect fill="#222222" height="48.1133" style="stroke: #1E90FF; stroke-width: 3.0;" width="166" x="203" y="1170"/><text fill="#1E90FF" font-family="courier" font-size="20" font-weight="bold" lengthAdjust="spacingAndGlyphs" textLength="144" x="214" y="1201.1074">Flexibilidad</text><!--entity Reusabilidad--><rect fill="#222222" height="48.1133" style="stroke: #1E90FF; stroke-width: 3.0;" width="166" x="404" y="1170"/><text fill="#1E90FF" font-family="courier" font-size="20" font-weight="bold" lengthAdjust="spacingAndGlyphs" textLength="144" x="415" y="1201.1074">Reusabilidad</text><!--entity Robustez--><rect fill="#222222" height="48.1133" style="stroke: #1E90FF; stroke-width: 3.0;" width="118" x="605" y="1170"/><text fill="#1E90FF" font-family="courier" font-size="20" font-weight="bold" lengthAdjust="spacingAndGlyphs" textLength="96" x="616" y="1201.1074">Robustez</text><!--entity Calidad2--><rect fill="#222222" height="48.1133" style="stroke: #228B22; stroke-width: 3.0;" width="106" x="818" y="287"/><text fill="#228B22" font-family="courier" font-size="20" font-weight="bold" lengthAdjust="spacingAndGlyphs" textLength="84" x="829" y="318.1074">Calidad</text><!--entity CasoPrueba--><rect fill="#222222" height="76.2266" style="stroke: #228B22; stroke-width: 3.0;" width="106" x="827" y="410"/><text fill="#228B22" font-family="courier" font-size="20" font-weight="bold" lengthAdjust="spacingAndGlyphs" textLength="84" x="838" y="441.1074">Caso de</text><text fill="#228B22" font-family="courier" font-size="20" font-weight="bold" lengthAdjust="spacingAndGlyphs" textLength="72" x="838" y="469.2207">Prueba</text><!--entity CasoPruebaEstatica--><rect fill="#222222" height="76.2266" style="stroke: #228B22; stroke-width: 3.0;" width="154" x="803" y="566"/><text fill="#228B22" font-family="courier" font-size="20" font-weight="bold" lengthAdjust="spacingAndGlyphs" textLength="132" x="814" y="597.1074">Caso Prueba</text><text fill="#228B22" font-family="courier" font-size="20" font-weight="bold" lengthAdjust="spacingAndGlyphs" textLength="96" x="814" y="625.2207">Estática</text><!--entity CasoPruebaDinámica--><rect fill="#222222" height="76.2266" style="stroke: #228B22; stroke-width: 3.0;" width="154" x="992" y="566"/><text fill="#228B22" font-family="courier" font-size="20" font-weight="bold" lengthAdjust="spacingAndGlyphs" textLength="132" x="1003" y="597.1074">Caso Prueba</text><text fill="#228B22" font-family="courier" font-size="20" font-weight="bold" lengthAdjust="spacingAndGlyphs" textLength="96" x="1003" y="625.2207">Dinámica</text><!--entity JUnit--><rect fill="#222222" height="76.2266" style="stroke: #228B22; stroke-width: 3.0;" width="130" x="1008" y="410"/><text fill="#228B22" font-family="courier" font-size="20" font-weight="bold" lengthAdjust="spacingAndGlyphs" textLength="108" x="1019" y="441.1074">Framework</text><text fill="#228B22" font-family="courier" font-size="20" font-weight="bold" lengthAdjust="spacingAndGlyphs" textLength="60" x="1019" y="469.2207">JUnit</text><!--entity Mockito--><rect fill="#222222" height="76.2266" style="stroke: #228B22; stroke-width: 3.0;" width="130" x="1010" y="273"/><text fill="#228B22" font-family="courier" font-size="20" font-weight="bold" lengthAdjust="spacingAndGlyphs" textLength="108" x="1021" y="304.1074">Framework</text><text fill="#228B22" font-family="courier" font-size="20" font-weight="bold" lengthAdjust="spacingAndGlyphs" textLength="72" x="1021" y="332.2207">Mokito</text><!--entity HerramientaCalidad--><rect fill="#222222" height="76.2266" style="stroke: #228B22; stroke-width: 3.0;" width="154" x="885" y="722"/><text fill="#228B22" font-family="courier" font-size="20" font-weight="bold" lengthAdjust="spacingAndGlyphs" textLength="132" x="896" y="753.1074">Herramienta</text><text fill="#228B22" font-family="courier" font-size="20" font-weight="bold" lengthAdjust="spacingAndGlyphs" textLength="84" x="896" y="781.2207">Calidad</text><!--link Calidad to X--><path d="M612.81,801.4 C592.58,835.18 564.44,882.16 547.84,909.9 " fill="none" id="Calidad-X" style="stroke: #A9A9A9; stroke-width: 2.0;"/><polygon fill="none" points="606.83,797.76,623.11,784.2,618.84,804.95,606.83,797.76" style="stroke: #A9A9A9; stroke-width: 2.0;"/><!--link X to Mantenibilidad--><path d="M529.43,958.04 C525.5,977.85 519.82,1006.48 515.62,1027.68 " fill="none" id="X-Mantenibilidad" style="stroke: #A9A9A9; stroke-width: 2.0;"/><polygon fill="#A9A9A9" points="514.64,1032.63,520.3364,1024.5956,515.6261,1027.7282,512.4935,1023.0179,514.64,1032.63" style="stroke: #A9A9A9; stroke-width: 2.0;"/><!--link Calidad to Mantenibilidad--><path d="M629.33,803.88 C620.97,844.87 605.42,907.7 581,958 C567.51,985.78 546.1,1013.97 530.32,1032.94 " fill="none" id="Calidad-Mantenibilidad" style="stroke: #A9A9A9; stroke-width: 2.0;"/><polygon fill="none" points="622.49,802.4,633.15,784.09,636.23,805.06,622.49,802.4" style="stroke: #A9A9A9; stroke-width: 2.0;"/><!--link Mantenibilidad to Fluidez--><path d="M405.05,1084.39 C340.78,1101.86 257.43,1126.89 186,1156 C180.12,1158.4 174.07,1161.12 168.1,1163.97 " fill="none" id="Mantenibilidad-Fluidez" style="stroke: #A9A9A9; stroke-width: 2.0;"/><polygon fill="#A9A9A9" points="156.06,1169.95,165.9002,1169.5366,160.5398,1167.7293,162.3471,1162.369,156.06,1169.95" style="stroke: #A9A9A9; stroke-width: 2.0;"/><line style="stroke: #A9A9A9; stroke-width: 2.0;" x1="160.5398" x2="167.7" y1="1167.7293" y2="1164.175"/><polygon fill="#A9A9A9" points="417.64,1081,410.808,1078.6926,406.0504,1084.1116,412.8824,1086.419,417.64,1081" style="stroke: #A9A9A9; stroke-width: 2.0;"/><!--link Mantenibilidad to Flexibilidad--><path d="M460.39,1087.9 C423.4,1110.19 373.09,1140.51 336.01,1162.86 " fill="none" id="Mantenibilidad-Flexibilidad" style="stroke: #A9A9A9; stroke-width: 2.0;"/><polygon fill="#A9A9A9" points="324.47,1169.82,334.2436,1168.6048,328.7536,1167.2411,330.1173,1161.751,324.47,1169.82" style="stroke: #A9A9A9; stroke-width: 2.0;"/><line style="stroke: #A9A9A9; stroke-width: 2.0;" x1="328.7536" x2="335.605" y1="1167.2411" y2="1163.105"/><polygon fill="#A9A9A9" points="471.75,1081.05,464.5462,1080.7247,461.4752,1087.2491,468.679,1087.5745,471.75,1081.05" style="stroke: #A9A9A9; stroke-width: 2.0;"/><!--link Mantenibilidad to Reusabilidad--><path d="M503.86,1094.06 C500.55,1113.45 496.49,1137.29 493.18,1156.71 " fill="none" id="Mantenibilidad-Reusabilidad" style="stroke: #A9A9A9; stroke-width: 2.0;"/><polygon fill="#A9A9A9" points="490.98,1169.64,496.4363,1161.4407,491.8207,1164.7112,488.5502,1160.0956,490.98,1169.64" style="stroke: #A9A9A9; stroke-width: 2.0;"/><line style="stroke: #A9A9A9; stroke-width: 2.0;" x1="491.8207" x2="493.165" y1="1164.7112" y2="1156.825"/><polygon fill="#A9A9A9" points="506.05,1081.21,501.0981,1086.452,504.0323,1093.0392,508.9842,1087.7971,506.05,1081.21" style="stroke: #A9A9A9; stroke-width: 2.0;"/><!--link Mantenibilidad to Robustez--><path d="M546.3,1089.82 C570.82,1111.32 603.07,1139.59 627.61,1161.1 " fill="none" id="Mantenibilidad-Robustez" style="stroke: #A9A9A9; stroke-width: 2.0;"/><polygon fill="#A9A9A9" points="637.61,1169.87,633.4819,1160.928,633.8512,1166.5728,628.2064,1166.9421,637.61,1169.87" style="stroke: #A9A9A9; stroke-width: 2.0;"/><line style="stroke: #A9A9A9; stroke-width: 2.0;" x1="633.8512" x2="627.84" y1="1166.5728" y2="1161.3"/><polygon fill="#A9A9A9" points="536.47,1081.21,538.3428,1088.1737,545.4911,1089.1233,543.6183,1082.1596,536.47,1081.21" style="stroke: #A9A9A9; stroke-width: 2.0;"/><!--link Calidad to Produccion--><path d="M656.72,784.08 C672.04,800.86 694.57,823.14 718,838 C770.63,871.36 836.85,896.17 887.17,912.05 " fill="none" id="Calidad-Produccion" style="stroke: #A9A9A9; stroke-width: 2.0;"/><polygon fill="#A9A9A9" points="891.99,913.56,884.6039,907.045,887.2201,912.0605,882.2047,914.6768,891.99,913.56" style="stroke: #A9A9A9; stroke-width: 2.0;"/><!--link Produccion to SUT--><path d="M973.59,970.59 C976.9,981.72 980.62,994.22 984.17,1006.14 " fill="none" id="Produccion-SUT" style="stroke: #A9A9A9; stroke-width: 2.0;"/><polygon fill="#A9A9A9" points="987.92,1018.77,989.195,1009.004,986.4979,1013.9765,981.5254,1011.2794,987.92,1018.77" style="stroke: #A9A9A9; stroke-width: 2.0;"/><line style="stroke: #A9A9A9; stroke-width: 2.0;" x1="986.4979" x2="984.215" y1="1013.9765" y2="1006.305"/><polygon fill="#A9A9A9" points="969.86,958.04,967.7339,964.9306,973.2767,969.5433,975.4028,962.6528,969.86,958.04" style="stroke: #A9A9A9; stroke-width: 2.0;"/><!--link SUT to DOC--><path d="M1000.66,1095.25 C1001.42,1112.36 1002.32,1132.75 1003.11,1150.47 " fill="none" id="SUT-DOC" style="stroke: #A9A9A9; stroke-width: 2.0; stroke-dasharray: 7.0,7.0;"/><polygon fill="#A9A9A9" points="1003.35,1155.87,1006.9348,1146.6967,1003.1217,1150.8752,998.9432,1147.0621,1003.35,1155.87" style="stroke: #A9A9A9; stroke-width: 2.0;"/><!--link Producto to Ámbito--><path d="M655.32,485.01 C652.13,509.58 647.92,542.01 644.72,566.65 " fill="none" id="Producto-Ámbito" style="stroke: #A9A9A9; stroke-width: 2.0;"/><polygon fill="#A9A9A9" points="643.01,579.79,648.1345,571.3793,643.6532,574.8315,640.2009,570.3502,643.01,579.79" style="stroke: #A9A9A9; stroke-width: 2.0;"/><line style="stroke: #A9A9A9; stroke-width: 2.0;" x1="643.6532" x2="644.69" y1="574.8315" y2="566.895"/><polygon fill="#A9A9A9" points="657.01,472.06,652.2714,477.4956,655.4664,483.9603,660.205,478.5247,657.01,472.06" style="stroke: #A9A9A9; stroke-width: 2.0;"/><!--link Producto to Coste--><path d="M588.32,462.77 C543.18,474.02 485.45,493.37 442,525 C426.14,536.55 412.58,553.56 402.47,568.75 " fill="none" id="Producto-Coste" style="stroke: #A9A9A9; stroke-width: 2.0;"/><polygon fill="#A9A9A9" points="395.43,579.9,403.6195,574.429,398.1012,575.6733,396.8568,570.155,395.43,579.9" style="stroke: #A9A9A9; stroke-width: 2.0;"/><line style="stroke: #A9A9A9; stroke-width: 2.0;" x1="398.1012" x2="402.375" y1="575.6733" y2="568.91"/><polygon fill="#A9A9A9" points="601,459.74,594.2332,457.2478,589.3302,462.5355,596.0969,465.0277,601,459.74" style="stroke: #A9A9A9; stroke-width: 2.0;"/><!--link Producto to Tiempo--><path d="M623.82,480.83 C609.02,494.18 591.91,510.05 577,525 C562.64,539.4 547.38,555.98 534.7,570.15 " fill="none" id="Producto-Tiempo" style="stroke: #A9A9A9; stroke-width: 2.0;"/><polygon fill="#A9A9A9" points="525.98,579.97,534.9474,575.8975,529.3005,576.2317,528.9662,570.5848,525.98,579.97" style="stroke: #A9A9A9; stroke-width: 2.0;"/><line style="stroke: #A9A9A9; stroke-width: 2.0;" x1="529.3005" x2="534.61" y1="576.2317" y2="570.25"/><polygon fill="#A9A9A9" points="633.64,472.03,626.5024,473.0572,624.7054,480.0408,631.843,479.0136,633.64,472.03" style="stroke: #A9A9A9; stroke-width: 2.0;"/><!--link Producto to Calidad--><path d="M684.48,483.5 C691.95,495.98 699.2,510.56 703,525 C717.37,579.58 718.4,597.7 703,652 C695.41,678.75 679.03,705.38 664.49,725.38 " fill="none" id="Producto-Calidad" style="stroke: #A9A9A9; stroke-width: 2.0;"/><polygon fill="#A9A9A9" points="656.66,735.77,665.2716,730.9908,659.6697,731.7773,658.8832,726.1753,656.66,735.77" style="stroke: #A9A9A9; stroke-width: 2.0;"/><line style="stroke: #A9A9A9; stroke-width: 2.0;" x1="659.6697" x2="664.485" y1="731.7773" y2="725.38"/><polygon fill="#A9A9A9" points="677.35,472.26,677.1808,479.4691,683.7703,482.398,683.9395,475.1889,677.35,472.26" style="stroke: #A9A9A9; stroke-width: 2.0;"/><!--link Ámbito to Calidad--><path d="M639.55,628.06 C639.02,655.39 638.13,700.94 637.56,730.47 " fill="none" id="Ámbito-Calidad" style="stroke: #A9A9A9; stroke-width: 2.0;"/><polygon fill="#A9A9A9" points="637.45,735.79,641.6292,726.8718,637.55,730.791,633.6308,726.7118,637.45,735.79" style="stroke: #A9A9A9; stroke-width: 2.0;"/><!--link Coste to Calidad--><path d="M409.88,628 C419.71,635.98 431.1,644.74 442,652 C488.49,682.94 544.69,713.07 584.78,733.43 " fill="none" id="Coste-Calidad" style="stroke: #A9A9A9; stroke-width: 2.0;"/><polygon fill="#A9A9A9" points="589.59,735.87,583.368,728.2354,585.1294,733.6111,579.7537,735.3725,589.59,735.87" style="stroke: #A9A9A9; stroke-width: 2.0;"/><!--link Tiempo to Calidad--><path d="M525.61,628.06 C549.25,655.84 588.9,702.46 613.97,731.92 " fill="none" id="Tiempo-Calidad" style="stroke: #A9A9A9; stroke-width: 2.0;"/><polygon fill="#A9A9A9" points="617.25,735.79,614.4679,726.3423,614.0113,731.9807,608.3729,731.5241,617.25,735.79" style="stroke: #A9A9A9; stroke-width: 2.0;"/><!--link Efectividad to Eficacia--><path d="M550.88,176.62 C553.93,205.4 558.15,245.29 561.18,273.94 " fill="none" id="Efectividad-Eficacia" style="stroke: #A9A9A9; stroke-width: 2.0;"/><polygon fill="#A9A9A9" points="562.56,287,565.5883,277.6283,562.0326,282.0279,557.6329,278.4722,562.56,287" style="stroke: #A9A9A9; stroke-width: 2.0;"/><line style="stroke: #A9A9A9; stroke-width: 2.0;" x1="562.0326" x2="561.195" y1="282.0279" y2="274.07"/><polygon fill="#A9A9A9" points="549.47,163.28,546.1252,169.6685,550.7358,175.2131,554.0806,168.8246,549.47,163.28" style="stroke: #A9A9A9; stroke-width: 2.0;"/><!--link Efectividad to Eficiencia--><path d="M515.5,172.9 C506.8,182.2 497.43,192.4 489,202 C467.47,226.52 444.03,255.04 426.62,276.61 " fill="none" id="Efectividad-Eficiencia" style="stroke: #A9A9A9; stroke-width: 2.0;"/><polygon fill="#A9A9A9" points="418.34,286.9,427.0973,282.3935,421.4735,283.0037,420.8633,277.3799,418.34,286.9" style="stroke: #A9A9A9; stroke-width: 2.0;"/><line style="stroke: #A9A9A9; stroke-width: 2.0;" x1="421.4735" x2="426.49" y1="283.0037" y2="276.765"/><polygon fill="#A9A9A9" points="524.61,163.23,517.5838,164.8524,516.379,171.9622,523.4053,170.3398,524.61,163.23" style="stroke: #A9A9A9; stroke-width: 2.0;"/><!--link Efectividad to pruebas--><path d="M624.12,151.05 C682.62,161.16 756.09,178.19 775,202 C776.8375,204.3138 778.2834,207.6933 779.4063,211.8413 C779.6871,212.8783 779.9476,213.9633 780.189,215.0917 C780.3097,215.6559 780.4257,216.231 780.537,216.8163 C780.5926,217.109 780.6471,217.4042 780.7004,217.7019 " fill="none" id="Efectividad-pruebas" style="stroke: #A9A9A9; stroke-width: 2.0;"/><polygon fill="#A9A9A9" points="780.7004,217.7019,783.0507,208.1376,779.8187,212.7803,775.176,209.5483,780.7004,217.7019" style="stroke: #A9A9A9; stroke-width: 2.0;"/><!--link Efectividad to Producto--><path d="M600.68,163.3 C616.63,172.93 632.39,185.72 642,202 C682.67,270.94 673.38,370.46 665.53,418.68 " fill="none" id="Efectividad-Producto" style="stroke: #A9A9A9; stroke-width: 2.0;"/><polygon fill="#A9A9A9" points="664.68,423.75,670.1167,415.5377,665.5089,418.8192,662.2275,414.2114,664.68,423.75" style="stroke: #A9A9A9; stroke-width: 2.0;"/><!--link Eficacia to Ámbito--><path d="M564.17,335.03 C562.56,385.44 559.97,502.29 570,517 C575.16,524.57 581.96,519.13 589,525 C605.35,538.64 618.37,558.87 627.16,575.31 " fill="none" id="Eficacia-Ámbito" style="stroke: #A9A9A9; stroke-width: 2.0;"/><polygon fill="#A9A9A9" points="629.53,579.84,628.9197,570.0101,627.2201,575.4056,621.8246,573.7059,629.53,579.84" style="stroke: #A9A9A9; stroke-width: 2.0;"/><!--link Eficiencia to Coste--><path d="M398.64,335.32 C395.55,388.24 388.01,517.24 384.66,574.64 " fill="none" id="Eficiencia-Coste" style="stroke: #A9A9A9; stroke-width: 2.0;"/><polygon fill="#A9A9A9" points="384.35,579.97,388.8584,571.2136,384.6361,574.9782,380.8715,570.7559,384.35,579.97" style="stroke: #A9A9A9; stroke-width: 2.0;"/><!--link Eficiencia to Tiempo--><path d="M408.5,335.32 C427.81,388.34 474.95,517.76 495.8,574.99 " fill="none" id="Eficiencia-Tiempo" style="stroke: #A9A9A9; stroke-width: 2.0;"/><polygon fill="#A9A9A9" points="497.61,579.97,498.2743,570.1436,495.8921,575.2744,490.7613,572.8922,497.61,579.97" style="stroke: #A9A9A9; stroke-width: 2.0;"/><!--link Robustez to Calidad2--><path d="M694.43,1169.99 C722.87,1145.62 761,1104.32 761,1058 C761,447 761,447 761,447 C761,421.36 809.28,370.44 841.87,338.99 " fill="none" id="Robustez-Calidad2" style="stroke: #008000; stroke-width: 2.0;"/><polygon fill="#008000" points="845.76,335.25,836.4982,338.5995,842.1539,338.7135,842.0399,344.3693,845.76,335.25" style="stroke: #008000; stroke-width: 2.0;"/><text fill="#008000" font-family="courier" font-size="20" lengthAdjust="spacingAndGlyphs" textLength="48" x="763" y="767.1074">Alta</text><!--link Calidad2 to CasoPrueba--><path d="M872.55,335.21 C873.82,354.27 875.65,381.77 877.18,404.73 " fill="none" id="Calidad2-CasoPrueba" style="stroke: #A9A9A9; stroke-width: 2.0;"/><polygon fill="#A9A9A9" points="877.52,409.85,880.9212,400.6071,877.1921,404.8608,872.9385,401.1317,877.52,409.85" style="stroke: #A9A9A9; stroke-width: 2.0;"/><!--link CasoPrueba to CasoPruebaEstatica--><path d="M880,506.43 C880,526.29 880,548 880,565.8 " fill="none" id="CasoPrueba-CasoPruebaEstatica" style="stroke: #A9A9A9; stroke-width: 2.0;"/><polygon fill="none" points="873,506.28,880,486.28,887,506.28,873,506.28" style="stroke: #A9A9A9; stroke-width: 2.0;"/><!--link CasoPrueba to CasoPruebaDinámica--><path d="M942.94,499.09 C953.66,507.7 964.67,516.58 975,525 C991.28,538.26 1009.02,552.93 1024.67,565.94 " fill="none" id="CasoPrueba-CasoPruebaDinámica" style="stroke: #A9A9A9; stroke-width: 2.0;"/><polygon fill="none" points="938.24,504.3,927,486.33,946.99,493.37,938.24,504.3" style="stroke: #A9A9A9; stroke-width: 2.0;"/><!--link JUnit to CasoPruebaDinámica--><path d="M1072.03,486.28 C1071.45,508.71 1070.71,537.32 1070.1,560.61 " fill="none" id="JUnit-CasoPruebaDinámica" style="stroke: #A9A9A9; stroke-width: 2.0; stroke-dasharray: 7.0,7.0;"/><polygon fill="#A9A9A9" points="1069.97,565.8,1074.2,556.9058,1070.0985,560.8017,1066.2027,556.7002,1069.97,565.8" style="stroke: #A9A9A9; stroke-width: 2.0;"/><!--link Mockito to DOC--><path d="M1126.62,349.11 C1153.98,373.39 1182,407.82 1182,447 C1182,447 1182,447 1182,1058 C1182,1100.89 1148.73,1131.97 1111.04,1153.41 " fill="none" id="Mockito-DOC" style="stroke: #A9A9A9; stroke-width: 2.0; stroke-dasharray: 7.0,7.0;"/><polygon fill="#A9A9A9" points="1106.42,1155.98,1116.23,1155.1058,1110.7908,1153.5518,1112.3448,1148.1126,1106.42,1155.98" style="stroke: #A9A9A9; stroke-width: 2.0;"/><!--link Mockito to JUnit--><path d="M1074.45,349.25 C1074.19,366.36 1073.89,386.75 1073.63,404.47 " fill="none" id="Mockito-JUnit" style="stroke: #A9A9A9; stroke-width: 2.0;"/><polygon fill="#A9A9A9" points="1073.55,409.87,1077.6782,400.9281,1073.6214,404.8705,1069.679,400.8138,1073.55,409.87" style="stroke: #A9A9A9; stroke-width: 2.0;"/><!--link CasoPruebaDinámica to SUT--><path d="M1072.54,642.19 C1077.58,707.49 1083.11,846.45 1052,958 C1046.59,977.41 1036.8,997.26 1027.09,1013.97 " fill="none" id="CasoPruebaDinámica-SUT" style="stroke: #A9A9A9; stroke-width: 2.0; stroke-dasharray: 7.0,7.0;"/><polygon fill="#A9A9A9" points="1024.36,1018.6,1032.3842,1012.8893,1026.9051,1014.2962,1025.4981,1008.8171,1024.36,1018.6" style="stroke: #A9A9A9; stroke-width: 2.0;"/><!--link CasoPruebaDinámica to DOC--><path d="M1085.5,642.16 C1097.63,672.87 1112,717.92 1112,759 C1112,759 1112,759 1112,1058 C1112,1095.34 1086.55,1128.37 1060.47,1152.41 " fill="none" id="CasoPruebaDinámica-DOC" style="stroke: #A9A9A9; stroke-width: 2.0; stroke-dasharray: 7.0,7.0;"/><polygon fill="#A9A9A9" points="1056.62,1155.89,1065.979,1152.8226,1060.3294,1152.5373,1060.6147,1146.8876,1056.62,1155.89" style="stroke: #A9A9A9; stroke-width: 2.0;"/><!--link CasoPruebaEstatica to Ámbito--><path d="M802.86,604 C766.16,604 729.46,604 692.76,604 " fill="none" id="CasoPruebaEstatica-Ámbito" style="stroke: #A9A9A9; stroke-width: 2.0; stroke-dasharray: 7.0,7.0;"/><polygon fill="#A9A9A9" points="687.34,604,696.34,608,692.34,604,696.34,600,687.34,604" style="stroke: #A9A9A9; stroke-width: 2.0;"/><!--link CasoPruebaEstatica to Calidad--><path d="M845.78,642.05 C832.66,653.95 816.78,665.89 800,673 C766.29,687.29 751.26,665.67 718,681 C693.44,692.32 671.74,714.23 657,731.95 " fill="none" id="CasoPruebaEstatica-Calidad" style="stroke: #A9A9A9; stroke-width: 2.0; stroke-dasharray: 7.0,7.0;"/><polygon fill="#A9A9A9" points="653.78,735.89,662.5776,731.4626,656.9485,732.0221,656.389,726.393,653.78,735.89" style="stroke: #A9A9A9; stroke-width: 2.0;"/><!--link CasoPruebaEstatica to Produccion--><path d="M868.58,642.18 C856.09,689.61 841.18,773.26 868,838 C879.46,865.68 903.34,889.5 924.28,906.36 " fill="none" id="CasoPruebaEstatica-Produccion" style="stroke: #A9A9A9; stroke-width: 2.0; stroke-dasharray: 7.0,7.0;"/><polygon fill="#A9A9A9" points="928.43,909.64,923.8426,900.9248,924.5049,906.5427,918.8869,907.205,928.43,909.64" style="stroke: #A9A9A9; stroke-width: 2.0;"/><!--link CasoPruebaEstatica to HerramientaCalidad--><path d="M899.85,642.28 C911.89,664.89 927.29,693.81 939.74,717.2 " fill="none" id="CasoPruebaEstatica-HerramientaCalidad" style="stroke: #A9A9A9; stroke-width: 2.0; stroke-dasharray: 7.0,7.0;"/><polygon fill="#A9A9A9" points="942.19,721.8,941.4792,711.9768,939.8348,717.3894,934.4222,715.7451,942.19,721.8" style="stroke: #A9A9A9; stroke-width: 2.0;"/><!--
@startuml
allowmixing
skinparam handwriten true
skinparam backgroundColor #222222
skinparam shadowing false
skinparam padding 1
hide circle
hide stereotype
skinparam arrow {
    Thickness 2
    Color #DarkGrey
    FontSize 20
    FontName courier
    FontStyle normal
    FontColor #DarkGrey
}
skinparam rectangle {
    BorderThickness 3
    BorderColor<<a>> #228B22
    BorderColor<<b>> #DodgerBlue
    BorderColor<<c>> #87ceeb
    BorderColor<<d>> #DarkGrey
    BorderColor<<e>> #Crimson
    BackgroundColor #222222
    FontSize 20
    FontName courier
    FontStyle bold
    FontColor<<a>> #228B22
    FontColor<<b>> #DodgerBlue
    FontColor<<c>> #87ceeb
    FontColor<<d>> #DarkGrey
    FontColor<<e>> #Crimson
}
skinparam package {
    BorderThickness 3
    BorderColor #DarkGrey
    BackgroundColor #222222
    FontSize 20
    FontName courier
    FontStyle bold
    FontColor #DarkGrey
}

package desarrollo {

together {
rectangle Efectividad <<d>>
rectangle Eficacia <<d>>
rectangle Eficiencia <<d>>
}
rectangle Producto <<d>>
rectangle "Coste" as Coste <<d>>
rectangle "Tiempo" as Tiempo <<d>>

package requisitos {
rectangle Ámbito <<e>>
}
package programacion {
rectangle "Producción" as Produccion <<c>>
rectangle "Sujeto bajo\nPrueba" as SUT <<c>>
rectangle "Componentedel\nque Depende (DOC)" as DOC <<c>>
}

package diseño {
rectangle Calidad <<b>>
rectangle "..." as X <<b>>
rectangle Mantenibilidad <<b>>
rectangle Fluidez <<b>>
rectangle Flexibilidad <<b>>
rectangle Reusabilidad <<b>>
rectangle Robustez <<b>>
}

package pruebas {
rectangle "Calidad" as Calidad2 <<a>>
rectangle "Caso de\nPrueba" as CasoPrueba <<a>>
rectangle "Caso Prueba\nEstática" as CasoPruebaEstatica <<a>>
rectangle "Caso Prueba\nDinámica" as CasoPruebaDinámica <<a>>
rectangle "Framework\nJUnit" as JUnit <<a>>
rectangle "Framework\nMokito" as Mockito <<a>>
rectangle "Herramienta\nCalidad" as HerramientaCalidad <<a>>
}

}

Calidad <|-down- X
X - -> Mantenibilidad
Calidad <|-down- Mantenibilidad
Mantenibilidad *-down-> Fluidez
Mantenibilidad *-down-> Flexibilidad
Mantenibilidad *-down-> Reusabilidad
Mantenibilidad *-down-> Robustez


Calidad -down-> Produccion
Produccion *- -> SUT
SUT ..> DOC
Producto *-down-> Ámbito
Producto *-down-> Coste
Producto *-down-> Tiempo
Producto *-down-> Calidad
Ámbito -down-> Calidad
Coste -down-> Calidad
Tiempo -down-> Calidad


Efectividad *-down-> Eficacia
Efectividad *-down-> Eficiencia
Efectividad -down-> pruebas
Efectividad -down-> Producto
Eficacia -down-> Ámbito
Eficiencia -down-> Coste
Eficiencia -down-> Tiempo
Robustez -[#green]-> Calidad2 : <color:green>Alta</color>

Calidad2 -down-> CasoPrueba
CasoPrueba <|-down- CasoPruebaEstatica
CasoPrueba <|-down- CasoPruebaDinámica
JUnit .down.> CasoPruebaDinámica
Mockito .down.> DOC
Mockito -down-> JUnit
CasoPruebaDinámica .down.> SUT
CasoPruebaDinámica .down.> DOC
CasoPruebaEstatica .down.> Ámbito
CasoPruebaEstatica .down.> Calidad
CasoPruebaEstatica .down.> Produccion
CasoPruebaEstatica .down.> HerramientaCalidad
@enduml

PlantUML version 1.2019.05(Sat Apr 20 18:45:36 CEST 2019)
(GPL source distribution)
Java Runtime: Java(TM) SE Runtime Environment
JVM: Java HotSpot(TM) 64-Bit Server VM
Java Version: 11.0.14+8-LTS-263
Operating System: Windows 10
OS Version: 10.0
Default Encoding: windows-1252
Language: es
Country: ES
--></g></svg>