<?xml version="1.0" encoding="UTF-8" standalone="no"?><svg xmlns="http://www.w3.org/2000/svg" xmlns:xlink="http://www.w3.org/1999/xlink" contentScriptType="application/ecmascript" contentStyleType="text/css" height="753px" preserveAspectRatio="none" style="width:1392px;height:753px;background:#222222;" version="1.1" viewBox="0 0 1392 753" width="1392px" zoomAndPan="magnify"><defs/><g><!--cluster productos--><polygon fill="#222222" points="569,24,685,24,692,58.1133,964,58.1133,964,258,569,258,569,24" style="stroke: #A9A9A9; stroke-width: 3.0;"/><line style="stroke: #A9A9A9; stroke-width: 3.0;" x1="569" x2="692" y1="58.1133" y2="58.1133"/><text fill="#A9A9A9" font-family="courier" font-size="20" font-weight="bold" lengthAdjust="spacingAndGlyphs" textLength="108" x="574" y="47.1074">productos</text><!--cluster calidadSoftwares--><polygon fill="#222222" points="22,282,222,282,229,316.1133,647,316.1133,647,741,22,741,22,282" style="stroke: #A9A9A9; stroke-width: 3.0;"/><line style="stroke: #A9A9A9; stroke-width: 3.0;" x1="22" x2="229" y1="316.1133" y2="316.1133"/><text fill="#A9A9A9" font-family="courier" font-size="20" font-weight="bold" lengthAdjust="spacingAndGlyphs" textLength="192" x="27" y="305.1074">calidadSoftwares</text><!--cluster desarrollos--><polygon fill="#222222" points="1090,141,1230,141,1237,175.1133,1370,175.1133,1370,399,1090,399,1090,141" style="stroke: #A9A9A9; stroke-width: 3.0;"/><line style="stroke: #A9A9A9; stroke-width: 3.0;" x1="1090" x2="1237" y1="175.1133" y2="175.1133"/><text fill="#A9A9A9" font-family="courier" font-size="20" font-weight="bold" lengthAdjust="spacingAndGlyphs" textLength="132" x="1095" y="164.1074">desarrollos</text><!--cluster efectividades--><polygon fill="#222222" points="671,282,835,282,842,316.1133,1066,316.1133,1066,627,671,627,671,282" style="stroke: #A9A9A9; stroke-width: 3.0;"/><line style="stroke: #A9A9A9; stroke-width: 3.0;" x1="671" x2="842" y1="316.1133" y2="316.1133"/><text fill="#A9A9A9" font-family="courier" font-size="20" font-weight="bold" lengthAdjust="spacingAndGlyphs" textLength="156" x="676" y="305.1074">efectividades</text><!--class Producto--><rect fill="#222222" height="54.1133" id="Producto" style="stroke: #87CEEB; stroke-width: 3.0;" width="104" x="702" y="71"/><text fill="#87CEEB" font-family="courier" font-size="20" font-weight="bold" lengthAdjust="spacingAndGlyphs" textLength="96" x="706" y="97.1074">Producto</text><line style="stroke: #87CEEB; stroke-width: 3.0;" x1="703" x2="805" y1="109.1133" y2="109.1133"/><line style="stroke: #87CEEB; stroke-width: 3.0;" x1="703" x2="805" y1="117.1133" y2="117.1133"/><!--class ÁmbitoReqisitos--><rect fill="#222222" height="54.1133" id="ÁmbitoReqisitos" style="stroke: #87CEEB; stroke-width: 3.0;" width="188" x="760" y="188"/><text fill="#87CEEB" font-family="courier" font-size="20" font-weight="bold" lengthAdjust="spacingAndGlyphs" textLength="180" x="764" y="214.1074">ÁmbitoReqisitos</text><line style="stroke: #87CEEB; stroke-width: 3.0;" x1="761" x2="947" y1="226.1133" y2="226.1133"/><line style="stroke: #87CEEB; stroke-width: 3.0;" x1="761" x2="947" y1="234.1133" y2="234.1133"/><!--class CosteTiempo--><rect fill="#222222" height="54.1133" id="CosteTiempo" style="stroke: #87CEEB; stroke-width: 3.0;" width="140" x="585" y="188"/><text fill="#87CEEB" font-family="courier" font-size="20" font-weight="bold" lengthAdjust="spacingAndGlyphs" textLength="132" x="589" y="214.1074">CosteTiempo</text><line style="stroke: #87CEEB; stroke-width: 3.0;" x1="586" x2="724" y1="226.1133" y2="226.1133"/><line style="stroke: #87CEEB; stroke-width: 3.0;" x1="586" x2="724" y1="234.1133" y2="234.1133"/><!--class CalidadSoftware--><rect fill="#222222" height="54.1133" id="CalidadSoftware" style="stroke: #FFA500; stroke-width: 3.0;" width="188" x="438" y="329"/><text fill="#FFA500" font-family="courier" font-size="20" font-weight="bold" lengthAdjust="spacingAndGlyphs" textLength="180" x="442" y="355.1074">CalidadSoftware</text><line style="stroke: #FFA500; stroke-width: 3.0;" x1="439" x2="625" y1="367.1133" y2="367.1133"/><line style="stroke: #FFA500; stroke-width: 3.0;" x1="439" x2="625" y1="375.1133" y2="375.1133"/><!--class X--><rect fill="#222222" height="54.1133" id="X" style="stroke: #FFA500; stroke-width: 3.0;" width="44" x="406" y="443"/><text fill="#FFA500" font-family="courier" font-size="20" font-weight="bold" lengthAdjust="spacingAndGlyphs" textLength="36" x="410" y="469.1074">...</text><line style="stroke: #FFA500; stroke-width: 3.0;" x1="407" x2="449" y1="481.1133" y2="481.1133"/><line style="stroke: #FFA500; stroke-width: 3.0;" x1="407" x2="449" y1="489.1133" y2="489.1133"/><!--class Mantenibilidad--><rect fill="#222222" height="54.1133" id="Mantenibilidad" style="stroke: #FFA500; stroke-width: 3.0;" width="176" x="330" y="557"/><text fill="#FFA500" font-family="courier" font-size="20" font-weight="bold" lengthAdjust="spacingAndGlyphs" textLength="168" x="334" y="583.1074">Mantenibilidad</text><line style="stroke: #FFA500; stroke-width: 3.0;" x1="331" x2="505" y1="595.1133" y2="595.1133"/><line style="stroke: #FFA500; stroke-width: 3.0;" x1="331" x2="505" y1="603.1133" y2="603.1133"/><!--class Viscosidad--><rect fill="#222222" height="54.1133" id="Viscosidad" style="stroke: #FFA500; stroke-width: 3.0;" width="128" x="38" y="671"/><text fill="#FFA500" font-family="courier" font-size="20" font-weight="bold" lengthAdjust="spacingAndGlyphs" textLength="120" x="42" y="697.1074">Viscosidad</text><line style="stroke: #FFA500; stroke-width: 3.0;" x1="39" x2="165" y1="709.1133" y2="709.1133"/><line style="stroke: #FFA500; stroke-width: 3.0;" x1="39" x2="165" y1="717.1133" y2="717.1133"/><!--class Rigidez--><rect fill="#222222" height="54.1133" id="Rigidez" style="stroke: #FFA500; stroke-width: 3.0;" width="92" x="201" y="671"/><text fill="#FFA500" font-family="courier" font-size="20" font-weight="bold" lengthAdjust="spacingAndGlyphs" textLength="84" x="205" y="697.1074">Rigidez</text><line style="stroke: #FFA500; stroke-width: 3.0;" x1="202" x2="292" y1="709.1133" y2="709.1133"/><line style="stroke: #FFA500; stroke-width: 3.0;" x1="202" x2="292" y1="717.1133" y2="717.1133"/><!--class Inmovilidad--><rect fill="#222222" height="54.1133" id="Inmovilidad" style="stroke: #FFA500; stroke-width: 3.0;" width="140" x="328" y="671"/><text fill="#FFA500" font-family="courier" font-size="20" font-weight="bold" lengthAdjust="spacingAndGlyphs" textLength="132" x="332" y="697.1074">Inmovilidad</text><line style="stroke: #FFA500; stroke-width: 3.0;" x1="329" x2="467" y1="709.1133" y2="709.1133"/><line style="stroke: #FFA500; stroke-width: 3.0;" x1="329" x2="467" y1="717.1133" y2="717.1133"/><!--class Fragilidad--><rect fill="#222222" height="54.1133" id="Fragilidad" style="stroke: #DC143C; stroke-width: 3.0;" width="128" x="503" y="671"/><text fill="#DC143C" font-family="courier" font-size="20" font-weight="bold" lengthAdjust="spacingAndGlyphs" textLength="120" x="507" y="697.1074">Fragilidad</text><line style="stroke: #DC143C; stroke-width: 3.0;" x1="504" x2="630" y1="709.1133" y2="709.1133"/><line style="stroke: #DC143C; stroke-width: 3.0;" x1="504" x2="630" y1="717.1133" y2="717.1133"/><!--class Desarrollo--><rect fill="#222222" height="54.1133" id="Desarrollo" style="stroke: #A9A9A9; stroke-width: 3.0;" width="128" x="1106" y="188"/><text fill="#A9A9A9" font-family="courier" font-size="20" font-weight="bold" lengthAdjust="spacingAndGlyphs" textLength="120" x="1110" y="214.1074">Desarrollo</text><line style="stroke: #A9A9A9; stroke-width: 3.0;" x1="1107" x2="1233" y1="226.1133" y2="226.1133"/><line style="stroke: #A9A9A9; stroke-width: 3.0;" x1="1107" x2="1233" y1="234.1133" y2="234.1133"/><!--class DesarrolloSinPruebas--><rect fill="#222222" height="54.1133" id="DesarrolloSinPruebas" style="stroke: #DC143C; stroke-width: 3.0;" width="248" x="1106" y="329"/><text fill="#DC143C" font-family="courier" font-size="20" font-weight="bold" lengthAdjust="spacingAndGlyphs" textLength="240" x="1110" y="355.1074">DesarrolloSinPruebas</text><line style="stroke: #DC143C; stroke-width: 3.0;" x1="1107" x2="1353" y1="367.1133" y2="367.1133"/><line style="stroke: #DC143C; stroke-width: 3.0;" x1="1107" x2="1353" y1="375.1133" y2="375.1133"/><!--class Efectividad--><rect fill="#222222" height="54.1133" id="Efectividad" style="stroke: #A9A9A9; stroke-width: 3.0;" width="140" x="907" y="329"/><text fill="#A9A9A9" font-family="courier" font-size="20" font-weight="bold" lengthAdjust="spacingAndGlyphs" textLength="132" x="911" y="355.1074">Efectividad</text><line style="stroke: #A9A9A9; stroke-width: 3.0;" x1="908" x2="1046" y1="367.1133" y2="367.1133"/><line style="stroke: #A9A9A9; stroke-width: 3.0;" x1="908" x2="1046" y1="375.1133" y2="375.1133"/><!--class Eficacia--><rect fill="#222222" height="54.1133" id="Eficacia" style="stroke: #A9A9A9; stroke-width: 3.0;" width="104" x="922" y="443"/><text fill="#A9A9A9" font-family="courier" font-size="20" font-weight="bold" lengthAdjust="spacingAndGlyphs" textLength="96" x="926" y="469.1074">Eficacia</text><line style="stroke: #A9A9A9; stroke-width: 3.0;" x1="923" x2="1025" y1="481.1133" y2="481.1133"/><line style="stroke: #A9A9A9; stroke-width: 3.0;" x1="923" x2="1025" y1="489.1133" y2="489.1133"/><!--class MalaEficacia--><rect fill="#222222" height="54.1133" id="MalaEficacia" style="stroke: #DC143C; stroke-width: 3.0;" width="152" x="898" y="557"/><text fill="#DC143C" font-family="courier" font-size="20" font-weight="bold" lengthAdjust="spacingAndGlyphs" textLength="144" x="902" y="583.1074">MalaEficacia</text><line style="stroke: #DC143C; stroke-width: 3.0;" x1="899" x2="1049" y1="595.1133" y2="595.1133"/><line style="stroke: #DC143C; stroke-width: 3.0;" x1="899" x2="1049" y1="603.1133" y2="603.1133"/><!--class Eficiencia--><rect fill="#222222" height="54.1133" id="Eficiencia" style="stroke: #A9A9A9; stroke-width: 3.0;" width="128" x="711" y="443"/><text fill="#A9A9A9" font-family="courier" font-size="20" font-weight="bold" lengthAdjust="spacingAndGlyphs" textLength="120" x="715" y="469.1074">Eficiencia</text><line style="stroke: #A9A9A9; stroke-width: 3.0;" x1="712" x2="838" y1="481.1133" y2="481.1133"/><line style="stroke: #A9A9A9; stroke-width: 3.0;" x1="712" x2="838" y1="489.1133" y2="489.1133"/><!--class MalaEficiencia--><rect fill="#222222" height="54.1133" id="MalaEficiencia" style="stroke: #DC143C; stroke-width: 3.0;" width="176" x="687" y="557"/><text fill="#DC143C" font-family="courier" font-size="20" font-weight="bold" lengthAdjust="spacingAndGlyphs" textLength="168" x="691" y="583.1074">MalaEficiencia</text><line style="stroke: #DC143C; stroke-width: 3.0;" x1="688" x2="862" y1="595.1133" y2="595.1133"/><line style="stroke: #DC143C; stroke-width: 3.0;" x1="688" x2="862" y1="603.1133" y2="603.1133"/><!--link CalidadSoftware to X--><path d="M493.66,398.29 C478.99,414.09 462.76,431.57 450.1,445.2 " fill="none" id="CalidadSoftware-X" style="stroke: #A9A9A9; stroke-width: 2.0;"/><polygon fill="none" points="488.88,393.15,507.62,383.26,499.14,402.68,488.88,393.15" style="stroke: #A9A9A9; stroke-width: 2.0;"/><!--link X to Mantenibilidad--><path d="M425.66,497.26 C424.2,513.55 422.32,534.57 420.79,551.72 " fill="none" id="X-Mantenibilidad" style="stroke: #A9A9A9; stroke-width: 2.0;"/><polygon fill="#A9A9A9" points="420.33,556.91,425.1106,548.2992,420.7724,551.9296,417.142,547.5914,420.33,556.91" style="stroke: #A9A9A9; stroke-width: 2.0;"/><!--link CalidadSoftware to Mantenibilidad--><path d="M512.91,401.69 C500.72,429.45 484.21,465.68 468,497 C457.44,517.4 444.36,539.81 434.22,556.65 " fill="none" id="CalidadSoftware-Mantenibilidad" style="stroke: #A9A9A9; stroke-width: 2.0;"/><polygon fill="none" points="506.56,398.72,520.95,383.17,519.4,404.3,506.56,398.72" style="stroke: #A9A9A9; stroke-width: 2.0;"/><!--link Mantenibilidad to Viscosidad--><path d="M332,615.48 C284.07,632.47 224.89,653.44 178.57,669.86 " fill="none" id="Mantenibilidad-Viscosidad" style="stroke: #A9A9A9; stroke-width: 2.0;"/><polygon fill="#A9A9A9" points="166.17,674.26,175.9894,675.021,170.8823,672.5884,173.3149,667.4813,166.17,674.26" style="stroke: #A9A9A9; stroke-width: 2.0;"/><line style="stroke: #A9A9A9; stroke-width: 2.0;" x1="170.8823" x2="178.42" y1="672.5884" y2="669.915"/><polygon fill="#A9A9A9" points="344.31,611.12,337.3186,609.3535,332.999,615.1276,339.9904,616.8942,344.31,611.12" style="stroke: #A9A9A9; stroke-width: 2.0;"/><!--link Mantenibilidad to Rigidez--><path d="M366.89,618.47 C345.07,632.76 319.67,649.41 297.87,663.68 " fill="none" id="Mantenibilidad-Rigidez" style="stroke: #A9A9A9; stroke-width: 2.0;"/><polygon fill="#A9A9A9" points="286.84,670.91,296.5597,669.3199,291.0213,668.1683,292.1729,662.6299,286.84,670.91" style="stroke: #A9A9A9; stroke-width: 2.0;"/><line style="stroke: #A9A9A9; stroke-width: 2.0;" x1="291.0213" x2="297.715" y1="668.1683" y2="663.785"/><polygon fill="#A9A9A9" points="377.91,611.26,370.6991,611.2051,367.875,617.8401,375.0859,617.8951,377.91,611.26" style="stroke: #A9A9A9; stroke-width: 2.0;"/><!--link Mantenibilidad to Inmovilidad--><path d="M410.99,624.23 C409.05,635.1 406.95,646.9 405.01,657.77 " fill="none" id="Mantenibilidad-Inmovilidad" style="stroke: #A9A9A9; stroke-width: 2.0;"/><polygon fill="#A9A9A9" points="402.66,670.91,408.1814,662.7544,403.5399,665.988,400.3063,661.3465,402.66,670.91" style="stroke: #A9A9A9; stroke-width: 2.0;"/><line style="stroke: #A9A9A9; stroke-width: 2.0;" x1="403.5399" x2="404.945" y1="665.988" y2="658.11"/><polygon fill="#A9A9A9" points="413.31,611.26,408.3165,616.4624,411.1982,623.0727,416.1917,617.8703,413.31,611.26" style="stroke: #A9A9A9; stroke-width: 2.0;"/><!--link Mantenibilidad to Fragilidad--><path d="M463.43,619.15 C481.94,633.06 503.29,649.11 521.77,663 " fill="none" id="Mantenibilidad-Fragilidad" style="stroke: #A9A9A9; stroke-width: 2.0;"/><polygon fill="#A9A9A9" points="532.28,670.91,527.4932,662.3026,528.2846,667.9038,522.6834,668.6952,532.28,670.91" style="stroke: #A9A9A9; stroke-width: 2.0;"/><line style="stroke: #A9A9A9; stroke-width: 2.0;" x1="528.2846" x2="521.895" y1="667.9038" y2="663.095"/><polygon fill="#A9A9A9" points="452.93,611.26,455.324,618.0621,462.5237,618.4684,460.1296,611.6663,452.93,611.26" style="stroke: #A9A9A9; stroke-width: 2.0;"/><!--link Producto to Desarrollo--><path d="M806.01,104.28 C848.91,109.38 911.11,118.5 964,133 C1013.86,146.67 1068.21,168.34 1108.55,185.83 " fill="none" id="Producto-Desarrollo" style="stroke: #A9A9A9; stroke-width: 2.0;"/><polygon fill="#A9A9A9" points="1113.4,187.94,1106.7495,180.6756,1108.8169,185.9412,1103.5514,188.0085,1113.4,187.94" style="stroke: #A9A9A9; stroke-width: 2.0;"/><!--link Producto to ÁmbitoReqisitos--><path d="M785.51,135.23 C797.27,148.77 810.63,164.13 822.41,177.67 " fill="none" id="Producto-ÁmbitoReqisitos" style="stroke: #A9A9A9; stroke-width: 2.0;"/><polygon fill="#A9A9A9" points="831.05,187.61,828.1581,178.1953,827.7672,183.8386,822.1239,183.4478,831.05,187.61" style="stroke: #A9A9A9; stroke-width: 2.0;"/><line style="stroke: #A9A9A9; stroke-width: 2.0;" x1="827.7672" x2="822.525" y1="183.8386" y2="177.8"/><polygon fill="#A9A9A9" points="776.69,125.1,777.6063,132.2526,784.5612,134.1578,783.6449,127.0052,776.69,125.1" style="stroke: #A9A9A9; stroke-width: 2.0;"/><!--link Producto to CosteTiempo--><path d="M722.81,135.23 C711.16,148.77 697.93,164.13 686.28,177.67 " fill="none" id="Producto-CosteTiempo" style="stroke: #A9A9A9; stroke-width: 2.0;"/><polygon fill="#A9A9A9" points="677.72,187.61,686.6232,183.3989,680.9821,183.8207,680.5603,178.1796,677.72,187.61" style="stroke: #A9A9A9; stroke-width: 2.0;"/><line style="stroke: #A9A9A9; stroke-width: 2.0;" x1="680.9821" x2="686.2" y1="183.8207" y2="177.76"/><polygon fill="#A9A9A9" points="731.54,125.1,724.5927,127.0325,723.7045,134.1887,730.6518,132.2562,731.54,125.1" style="stroke: #A9A9A9; stroke-width: 2.0;"/><!--link Producto to CalidadSoftware--><path d="M688.84,103.04 C642.14,107.35 584.66,116 568,133 C520.53,181.43 520.9,266.32 526.05,315.91 " fill="none" id="Producto-CalidadSoftware" style="stroke: #A9A9A9; stroke-width: 2.0;"/><polygon fill="#A9A9A9" points="527.59,328.91,530.5044,319.5022,527.0023,323.9447,522.5598,320.4426,527.59,328.91" style="stroke: #A9A9A9; stroke-width: 2.0;"/><line style="stroke: #A9A9A9; stroke-width: 2.0;" x1="527.0023" x2="526.06" y1="323.9447" y2="315.995"/><polygon fill="#A9A9A9" points="701.99,101.92,695.6693,98.4488,690.0341,102.9482,696.3548,106.4194,701.99,101.92" style="stroke: #A9A9A9; stroke-width: 2.0;"/><!--link ÁmbitoReqisitos to CalidadSoftware--><path d="M804.95,242.08 C786.07,251.04 764,260.26 743,266 C711.94,274.49 701.57,263.9 671,274 C635,285.9 598.1,307.95 571.37,326.04 " fill="none" id="ÁmbitoReqisitos-CalidadSoftware" style="stroke: #A9A9A9; stroke-width: 2.0;"/><polygon fill="#A9A9A9" points="567.17,328.91,576.8554,327.1231,571.2948,326.084,572.3338,320.5234,567.17,328.91" style="stroke: #A9A9A9; stroke-width: 2.0;"/><!--link CosteTiempo to CalidadSoftware--><path d="M631.86,242.14 C610.99,265.73 580.3,300.42 558.46,325.1 " fill="none" id="CosteTiempo-CalidadSoftware" style="stroke: #A9A9A9; stroke-width: 2.0;"/><polygon fill="#A9A9A9" points="555.03,328.97,563.9834,324.8668,558.3376,325.2204,557.9841,319.5746,555.03,328.97" style="stroke: #A9A9A9; stroke-width: 2.0;"/><!--link ÁmbitoReqisitos to Eficacia--><path d="M853.1,242.26 C852.98,281.21 857.52,355.27 890,407 C898.05,419.83 909.8,430.88 921.97,439.96 " fill="none" id="ÁmbitoReqisitos-Eficacia" style="stroke: #A9A9A9; stroke-width: 2.0;"/><polygon fill="#A9A9A9" points="926.1,442.97,921.1437,434.4591,922.0459,440.0436,916.4614,440.9458,926.1,442.97" style="stroke: #A9A9A9; stroke-width: 2.0;"/><!--link CosteTiempo to Eficiencia--><path d="M667.39,242.12 C689.67,289.09 736.38,387.57 760.26,437.92 " fill="none" id="CosteTiempo-Eficiencia" style="stroke: #A9A9A9; stroke-width: 2.0;"/><polygon fill="#A9A9A9" points="762.5,442.64,762.2662,432.7939,760.3614,438.1204,755.0349,436.2157,762.5,442.64" style="stroke: #A9A9A9; stroke-width: 2.0;"/><!--link Desarrollo to Efectividad--><path d="M1123.13,249.75 C1092.98,271.47 1053.95,299.58 1023.81,321.29 " fill="none" id="Desarrollo-Efectividad" style="stroke: #A9A9A9; stroke-width: 2.0;"/><polygon fill="#A9A9A9" points="1013.14,328.97,1022.7812,326.9581,1017.1979,326.0488,1018.1072,320.4655,1013.14,328.97" style="stroke: #A9A9A9; stroke-width: 2.0;"/><line style="stroke: #A9A9A9; stroke-width: 2.0;" x1="1017.1979" x2="1023.69" y1="326.0488" y2="321.375"/><polygon fill="#A9A9A9" points="1133.7,242.14,1126.4937,242.4038,1123.9656,249.1572,1131.1719,248.8934,1133.7,242.14" style="stroke: #A9A9A9; stroke-width: 2.0;"/><!--link Desarrollo to DesarrolloSinPruebas--><path d="M1189.27,260.65 C1199.01,283.2 1210.48,309.78 1218.77,328.97 " fill="none" id="Desarrollo-DesarrolloSinPruebas" style="stroke: #A9A9A9; stroke-width: 2.0;"/><polygon fill="none" points="1182.78,263.28,1181.29,242.14,1195.64,257.73,1182.78,263.28" style="stroke: #A9A9A9; stroke-width: 2.0;"/><!--link DesarrolloSinPruebas to MalaEficacia--><path d="M1219.45,383.22 C1206.04,413.83 1180.31,464.4 1145,497 C1118.36,521.6 1083.35,540.86 1051.96,554.85 " fill="none" id="DesarrolloSinPruebas-MalaEficacia" style="stroke: #A9A9A9; stroke-width: 2.0;"/><polygon fill="#A9A9A9" points="1047.35,556.88,1057.1988,556.9228,1051.9278,554.8692,1053.9814,549.5982,1047.35,556.88" style="stroke: #A9A9A9; stroke-width: 2.0;"/><!--link DesarrolloSinPruebas to MalaEficiencia--><path d="M1201.79,383.1 C1167.03,414.06 1105.03,465.43 1044,497 C1012.91,513.08 932.82,537.98 868.06,556.85 " fill="none" id="DesarrolloSinPruebas-MalaEficiencia" style="stroke: #A9A9A9; stroke-width: 2.0;"/><polygon fill="#A9A9A9" points="863.03,558.31,872.7863,559.6568,867.8338,556.9232,870.5674,551.9707,863.03,558.31" style="stroke: #A9A9A9; stroke-width: 2.0;"/><!--link Efectividad to Eficacia--><path d="M975.94,396.7 C975.65,407.37 975.34,418.9 975.06,429.55 " fill="none" id="Efectividad-Eficacia" style="stroke: #A9A9A9; stroke-width: 2.0;"/><polygon fill="#A9A9A9" points="974.7,442.91,978.9359,434.0186,974.8318,437.9117,970.9387,433.8077,974.7,442.91" style="stroke: #A9A9A9; stroke-width: 2.0;"/><line style="stroke: #A9A9A9; stroke-width: 2.0;" x1="974.8318" x2="975.05" y1="437.9117" y2="429.91"/><polygon fill="#A9A9A9" points="976.3,383.26,972.1367,389.1479,975.9705,395.2555,980.1337,389.3676,976.3,383.26" style="stroke: #A9A9A9; stroke-width: 2.0;"/><!--link Efectividad to Eficiencia--><path d="M918.51,389.43 C891.85,404.21 860.36,421.67 833.68,436.47 " fill="none" id="Efectividad-Eficiencia" style="stroke: #A9A9A9; stroke-width: 2.0;"/><polygon fill="#A9A9A9" points="822.18,442.84,831.9902,441.9679,826.5513,440.4127,828.1065,434.9738,822.18,442.84" style="stroke: #A9A9A9; stroke-width: 2.0;"/><line style="stroke: #A9A9A9; stroke-width: 2.0;" x1="826.5513" x2="833.55" y1="440.4127" y2="436.54"/><polygon fill="#A9A9A9" points="929.89,383.12,922.7032,382.5288,919.3933,388.9354,926.5801,389.5266,929.89,383.12" style="stroke: #A9A9A9; stroke-width: 2.0;"/><!--link Eficacia to MalaEficacia--><path d="M974,517.37 C974,530.87 974,545.13 974,556.91 " fill="none" id="Eficacia-MalaEficacia" style="stroke: #A9A9A9; stroke-width: 2.0;"/><polygon fill="none" points="967,517.26,974,497.26,981,517.26,967,517.26" style="stroke: #A9A9A9; stroke-width: 2.0;"/><!--link Eficiencia to MalaEficiencia--><path d="M775,517.37 C775,530.87 775,545.13 775,556.91 " fill="none" id="Eficiencia-MalaEficiencia" style="stroke: #A9A9A9; stroke-width: 2.0;"/><polygon fill="none" points="768,517.26,775,497.26,782,517.26,768,517.26" style="stroke: #A9A9A9; stroke-width: 2.0;"/><!--link MalaEficacia to Fragilidad--><path d="M931.71,611.18 C916.22,619.83 898.26,628.82 881,635 C799.43,664.23 700.73,680.86 636.03,689.39 " fill="none" id="MalaEficacia-Fragilidad" style="stroke: #A9A9A9; stroke-width: 2.0;"/><polygon fill="#A9A9A9" points="631.04,690.04,640.4866,692.8261,635.9969,689.3848,639.4382,684.8951,631.04,690.04" style="stroke: #A9A9A9; stroke-width: 2.0;"/><!--link MalaEficiencia to Fragilidad--><path d="M726.5,611.12 C694.69,628.24 653.09,650.65 620.35,668.28 " fill="none" id="MalaEficiencia-Fragilidad" style="stroke: #A9A9A9; stroke-width: 2.0;"/><polygon fill="#A9A9A9" points="615.58,670.84,625.4004,670.0912,619.9814,668.4678,621.6048,663.0489,615.58,670.84" style="stroke: #A9A9A9; stroke-width: 2.0;"/><!--
@startuml
allowmixing
skinparam backgroundColor #222222
skinparam shadowing false
skinparam padding 1
hide circle
hide stereotype
skinparam arrow {
    Thickness 2
    Color #DarkGrey
    FontSize 20
    FontName courier
    FontStyle normal
    FontColor #DarkGrey
}
skinparam class {
    BorderThickness 3
    BorderColor<<a>> #87ceeb
    BorderColor<<b>> #ffa500
    BorderColor<<c>> #DC143C
    BorderColor<<d>> #DarkGrey
    BackgroundColor #222222
    FontSize 20
    FontName courier
    FontStyle bold
    FontColor<<a>> #87ceeb
    FontColor<<b>> #ffa500
    FontColor<<c>> #DC143C
    FontColor<<d>> #DarkGrey
}
skinparam package {
    BorderThickness 3
    BorderColor #DarkGrey
    BackgroundColor #222222
    FontSize 20
    FontName courier
    FontStyle bold
    FontColor #DarkGrey
}
package productos {
class Producto <<a>>
class ÁmbitoReqisitos <<a>>
class CosteTiempo <<a>>
}

package calidadSoftwares {
class CalidadSoftware <<b>>
class "..." as X <<b>>
class Mantenibilidad <<b>>
class Viscosidad <<b>>
class Rigidez <<b>>
class Inmovilidad <<b>>
class Fragilidad <<c>>
}

package desarrollos {
class Desarrollo <<d>>

class DesarrolloSinPruebas <<c>>
}

package efectividades {
class Efectividad <<d>>

class Eficacia <<d>>
class MalaEficacia <<c>>

class Eficiencia <<d>>
class MalaEficiencia <<c>>
}

CalidadSoftware <|-down- X
X - -> Mantenibilidad
CalidadSoftware <|-down- Mantenibilidad
Mantenibilidad *-down-> Viscosidad
Mantenibilidad *-down-> Rigidez
Mantenibilidad *-down-> Inmovilidad
Mantenibilidad *-down-> Fragilidad

Producto - -> Desarrollo
Producto *-down-> ÁmbitoReqisitos
Producto *-down-> CosteTiempo
Producto *-down-> CalidadSoftware
ÁmbitoReqisitos -down-> CalidadSoftware
CosteTiempo -down-> CalidadSoftware
ÁmbitoReqisitos - -> Eficacia
CosteTiempo - -> Eficiencia

Desarrollo *-down-> Efectividad
Desarrollo <|-down- DesarrolloSinPruebas
DesarrolloSinPruebas - -> MalaEficacia
DesarrolloSinPruebas - -> MalaEficiencia

Efectividad *-down-> Eficacia
Efectividad *-down-> Eficiencia
Eficacia <|-down- MalaEficacia
Eficiencia <|-down- MalaEficiencia

MalaEficacia - -> Fragilidad
MalaEficiencia - -> Fragilidad
@enduml

PlantUML version 1.2019.05(Sat Apr 20 18:45:36 CEST 2019)
(GPL source distribution)
Java Runtime: Java(TM) SE Runtime Environment
JVM: Java HotSpot(TM) 64-Bit Server VM
Java Version: 11.0.14+8-LTS-263
Operating System: Windows 10
OS Version: 10.0
Default Encoding: windows-1252
Language: es
Country: ES
--></g></svg>