<?xml version="1.0" encoding="UTF-8" standalone="no"?><svg xmlns="http://www.w3.org/2000/svg" xmlns:xlink="http://www.w3.org/1999/xlink" contentScriptType="application/ecmascript" contentStyleType="text/css" height="753px" preserveAspectRatio="none" style="width:1392px;height:753px;background:#222222;" version="1.1" viewBox="0 0 1392 753" width="1392px" zoomAndPan="magnify"><defs/><g><!--cluster productos--><polygon fill="#222222" points="569,24,685,24,692,58.1133,964,58.1133,964,258,569,258,569,24" style="stroke: #A9A9A9; stroke-width: 3.0;"/><line style="stroke: #A9A9A9; stroke-width: 3.0;" x1="569" x2="692" y1="58.1133" y2="58.1133"/><text fill="#A9A9A9" font-family="courier" font-size="20" font-weight="bold" lengthAdjust="spacingAndGlyphs" textLength="108" x="574" y="47.1074">productos</text><!--cluster calidadSoftwares--><polygon fill="#222222" points="22,282,222,282,229,316.1133,647,316.1133,647,741,22,741,22,282" style="stroke: #A9A9A9; stroke-width: 3.0;"/><line style="stroke: #A9A9A9; stroke-width: 3.0;" x1="22" x2="229" y1="316.1133" y2="316.1133"/><text fill="#A9A9A9" font-family="courier" font-size="20" font-weight="bold" lengthAdjust="spacingAndGlyphs" textLength="192" x="27" y="305.1074">calidadSoftwares</text><!--cluster desarrollos--><polygon fill="#222222" points="1090,141,1230,141,1237,175.1133,1370,175.1133,1370,399,1090,399,1090,141" style="stroke: #A9A9A9; stroke-width: 3.0;"/><line style="stroke: #A9A9A9; stroke-width: 3.0;" x1="1090" x2="1237" y1="175.1133" y2="175.1133"/><text fill="#A9A9A9" font-family="courier" font-size="20" font-weight="bold" lengthAdjust="spacingAndGlyphs" textLength="132" x="1095" y="164.1074">desarrollos</text><!--cluster efectividades--><polygon fill="#222222" points="671,282,835,282,842,316.1133,1066,316.1133,1066,627,671,627,671,282" style="stroke: #A9A9A9; stroke-width: 3.0;"/><line style="stroke: #A9A9A9; stroke-width: 3.0;" x1="671" x2="842" y1="316.1133" y2="316.1133"/><text fill="#A9A9A9" font-family="courier" font-size="20" font-weight="bold" lengthAdjust="spacingAndGlyphs" textLength="156" x="676" y="305.1074">efectividades</text><!--class Producto--><rect fill="#222222" height="54.1133" id="Producto" style="stroke: #87CEEB; stroke-width: 3.0;" width="104" x="702" y="71"/><text fill="#87CEEB" font-family="courier" font-size="20" font-weight="bold" lengthAdjust="spacingAndGlyphs" textLength="96" x="706" y="97.1074">Producto</text><line style="stroke: #87CEEB; stroke-width: 3.0;" x1="703" x2="805" y1="109.1133" y2="109.1133"/><line style="stroke: #87CEEB; stroke-width: 3.0;" x1="703" x2="805" y1="117.1133" y2="117.1133"/><!--class ÁmbitoReqisitos--><rect fill="#222222" height="54.1133" id="ÁmbitoReqisitos" style="stroke: #87CEEB; stroke-width: 3.0;" width="188" x="760" y="188"/><text fill="#87CEEB" font-family="courier" font-size="20" font-weight="bold" lengthAdjust="spacingAndGlyphs" textLength="180" x="764" y="214.1074">ÁmbitoReqisitos</text><line style="stroke: #87CEEB; stroke-width: 3.0;" x1="761" x2="947" y1="226.1133" y2="226.1133"/><line style="stroke: #87CEEB; stroke-width: 3.0;" x1="761" x2="947" y1="234.1133" y2="234.1133"/><!--class CosteTiempo--><rect fill="#222222" height="54.1133" id="CosteTiempo" style="stroke: #87CEEB; stroke-width: 3.0;" width="140" x="585" y="188"/><text fill="#87CEEB" font-family="courier" font-size="20" font-weight="bold" lengthAdjust="spacingAndGlyphs" textLength="132" x="589" y="214.1074">CosteTiempo</text><line style="stroke: #87CEEB; stroke-width: 3.0;" x1="586" x2="724" y1="226.1133" y2="226.1133"/><line style="stroke: #87CEEB; stroke-width: 3.0;" x1="586" x2="724" y1="234.1133" y2="234.1133"/><!--class CalidadSoftware--><rect fill="#222222" height="54.1133" id="CalidadSoftware" style="stroke: #FFA500; stroke-width: 3.0;" width="188" x="438" y="329"/><text fill="#FFA500" font-family="courier" font-size="20" font-weight="bold" lengthAdjust="spacingAndGlyphs" textLength="180" x="442" y="355.1074">CalidadSoftware</text><line style="stroke: #FFA500; stroke-width: 3.0;" x1="439" x2="625" y1="367.1133" y2="367.1133"/><line style="stroke: #FFA500; stroke-width: 3.0;" x1="439" x2="625" y1="375.1133" y2="375.1133"/><!--class X--><rect fill="#222222" height="54.1133" id="X" style="stroke: #FFA500; stroke-width: 3.0;" width="44" x="432" y="443"/><text fill="#FFA500" font-family="courier" font-size="20" font-weight="bold" lengthAdjust="spacingAndGlyphs" textLength="36" x="436" y="469.1074">...</text><line style="stroke: #FFA500; stroke-width: 3.0;" x1="433" x2="475" y1="481.1133" y2="481.1133"/><line style="stroke: #FFA500; stroke-width: 3.0;" x1="433" x2="475" y1="489.1133" y2="489.1133"/><!--class Mantenibilidad--><rect fill="#222222" height="54.1133" id="Mantenibilidad" style="stroke: #FFA500; stroke-width: 3.0;" width="176" x="340" y="557"/><text fill="#FFA500" font-family="courier" font-size="20" font-weight="bold" lengthAdjust="spacingAndGlyphs" textLength="168" x="344" y="583.1074">Mantenibilidad</text><line style="stroke: #FFA500; stroke-width: 3.0;" x1="341" x2="515" y1="595.1133" y2="595.1133"/><line style="stroke: #FFA500; stroke-width: 3.0;" x1="341" x2="515" y1="603.1133" y2="603.1133"/><!--class Viscosidad--><rect fill="#222222" height="54.1133" id="Viscosidad" style="stroke: #FFA500; stroke-width: 3.0;" width="128" x="213" y="671"/><text fill="#FFA500" font-family="courier" font-size="20" font-weight="bold" lengthAdjust="spacingAndGlyphs" textLength="120" x="217" y="697.1074">Viscosidad</text><line style="stroke: #FFA500; stroke-width: 3.0;" x1="214" x2="340" y1="709.1133" y2="709.1133"/><line style="stroke: #FFA500; stroke-width: 3.0;" x1="214" x2="340" y1="717.1133" y2="717.1133"/><!--class Rigidez--><rect fill="#222222" height="54.1133" id="Rigidez" style="stroke: #FFA500; stroke-width: 3.0;" width="92" x="376" y="671"/><text fill="#FFA500" font-family="courier" font-size="20" font-weight="bold" lengthAdjust="spacingAndGlyphs" textLength="84" x="380" y="697.1074">Rigidez</text><line style="stroke: #FFA500; stroke-width: 3.0;" x1="377" x2="467" y1="709.1133" y2="709.1133"/><line style="stroke: #FFA500; stroke-width: 3.0;" x1="377" x2="467" y1="717.1133" y2="717.1133"/><!--class Inmovilidad--><rect fill="#222222" height="54.1133" id="Inmovilidad" style="stroke: #FFA500; stroke-width: 3.0;" width="140" x="38" y="671"/><text fill="#FFA500" font-family="courier" font-size="20" font-weight="bold" lengthAdjust="spacingAndGlyphs" textLength="132" x="42" y="697.1074">Inmovilidad</text><line style="stroke: #FFA500; stroke-width: 3.0;" x1="39" x2="177" y1="709.1133" y2="709.1133"/><line style="stroke: #FFA500; stroke-width: 3.0;" x1="39" x2="177" y1="717.1133" y2="717.1133"/><!--class Fragilidad--><rect fill="#222222" height="54.1133" id="Fragilidad" style="stroke: #DC143C; stroke-width: 3.0;" width="128" x="503" y="671"/><text fill="#DC143C" font-family="courier" font-size="20" font-weight="bold" lengthAdjust="spacingAndGlyphs" textLength="120" x="507" y="697.1074">Fragilidad</text><line style="stroke: #DC143C; stroke-width: 3.0;" x1="504" x2="630" y1="709.1133" y2="709.1133"/><line style="stroke: #DC143C; stroke-width: 3.0;" x1="504" x2="630" y1="717.1133" y2="717.1133"/><!--class Desarrollo--><rect fill="#222222" height="54.1133" id="Desarrollo" style="stroke: #A9A9A9; stroke-width: 3.0;" width="128" x="1106" y="188"/><text fill="#A9A9A9" font-family="courier" font-size="20" font-weight="bold" lengthAdjust="spacingAndGlyphs" textLength="120" x="1110" y="214.1074">Desarrollo</text><line style="stroke: #A9A9A9; stroke-width: 3.0;" x1="1107" x2="1233" y1="226.1133" y2="226.1133"/><line style="stroke: #A9A9A9; stroke-width: 3.0;" x1="1107" x2="1233" y1="234.1133" y2="234.1133"/><!--class DesarrolloSinPruebas--><rect fill="#222222" height="54.1133" id="DesarrolloSinPruebas" style="stroke: #DC143C; stroke-width: 3.0;" width="248" x="1106" y="329"/><text fill="#DC143C" font-family="courier" font-size="20" font-weight="bold" lengthAdjust="spacingAndGlyphs" textLength="240" x="1110" y="355.1074">DesarrolloSinPruebas</text><line style="stroke: #DC143C; stroke-width: 3.0;" x1="1107" x2="1353" y1="367.1133" y2="367.1133"/><line style="stroke: #DC143C; stroke-width: 3.0;" x1="1107" x2="1353" y1="375.1133" y2="375.1133"/><!--class Efectividad--><rect fill="#222222" height="54.1133" id="Efectividad" style="stroke: #A9A9A9; stroke-width: 3.0;" width="140" x="907" y="329"/><text fill="#A9A9A9" font-family="courier" font-size="20" font-weight="bold" lengthAdjust="spacingAndGlyphs" textLength="132" x="911" y="355.1074">Efectividad</text><line style="stroke: #A9A9A9; stroke-width: 3.0;" x1="908" x2="1046" y1="367.1133" y2="367.1133"/><line style="stroke: #A9A9A9; stroke-width: 3.0;" x1="908" x2="1046" y1="375.1133" y2="375.1133"/><!--class Eficacia--><rect fill="#222222" height="54.1133" id="Eficacia" style="stroke: #A9A9A9; stroke-width: 3.0;" width="104" x="922" y="443"/><text fill="#A9A9A9" font-family="courier" font-size="20" font-weight="bold" lengthAdjust="spacingAndGlyphs" textLength="96" x="926" y="469.1074">Eficacia</text><line style="stroke: #A9A9A9; stroke-width: 3.0;" x1="923" x2="1025" y1="481.1133" y2="481.1133"/><line style="stroke: #A9A9A9; stroke-width: 3.0;" x1="923" x2="1025" y1="489.1133" y2="489.1133"/><!--class MalaEficacia--><rect fill="#222222" height="54.1133" id="MalaEficacia" style="stroke: #DC143C; stroke-width: 3.0;" width="152" x="898" y="557"/><text fill="#DC143C" font-family="courier" font-size="20" font-weight="bold" lengthAdjust="spacingAndGlyphs" textLength="144" x="902" y="583.1074">MalaEficacia</text><line style="stroke: #DC143C; stroke-width: 3.0;" x1="899" x2="1049" y1="595.1133" y2="595.1133"/><line style="stroke: #DC143C; stroke-width: 3.0;" x1="899" x2="1049" y1="603.1133" y2="603.1133"/><!--class Eficiencia--><rect fill="#222222" height="54.1133" id="Eficiencia" style="stroke: #A9A9A9; stroke-width: 3.0;" width="128" x="711" y="443"/><text fill="#A9A9A9" font-family="courier" font-size="20" font-weight="bold" lengthAdjust="spacingAndGlyphs" textLength="120" x="715" y="469.1074">Eficiencia</text><line style="stroke: #A9A9A9; stroke-width: 3.0;" x1="712" x2="838" y1="481.1133" y2="481.1133"/><line style="stroke: #A9A9A9; stroke-width: 3.0;" x1="712" x2="838" y1="489.1133" y2="489.1133"/><!--class MalaEficiencia--><rect fill="#222222" height="54.1133" id="MalaEficiencia" style="stroke: #DC143C; stroke-width: 3.0;" width="176" x="687" y="557"/><text fill="#DC143C" font-family="courier" font-size="20" font-weight="bold" lengthAdjust="spacingAndGlyphs" textLength="168" x="691" y="583.1074">MalaEficiencia</text><line style="stroke: #DC143C; stroke-width: 3.0;" x1="688" x2="862" y1="595.1133" y2="595.1133"/><line style="stroke: #DC143C; stroke-width: 3.0;" x1="688" x2="862" y1="603.1133" y2="603.1133"/><!--link CalidadSoftware to X--><path d="M502.046,400.011 C491.976,414.47 481.055,430.152 472.173,442.905 " fill="none" id="CalidadSoftware-X" style="stroke: #A9A9A9; stroke-width: 2.0;"/><polygon fill="none" points="496.538,395.671,513.712,383.259,508.027,403.672,496.538,395.671" style="stroke: #A9A9A9; stroke-width: 2.0;"/><!--link X to Mantenibilidad--><path d="M447.904,497.259 C444.123,513.548 439.243,534.567 435.262,551.717 " fill="none" id="X-Mantenibilidad" style="stroke: #A9A9A9; stroke-width: 2.0;"/><polygon fill="#A9A9A9" points="434.058,556.905,439.9909,549.0437,435.1895,552.0347,432.1985,547.2333,434.058,556.905" style="stroke: #A9A9A9; stroke-width: 2.0;"/><!--link CalidadSoftware to Mantenibilidad--><path d="M523.793,402.784 C517.659,430.924 507.756,467.175 493,497 C482.211,518.807 465.618,540.643 451.897,556.856 " fill="none" id="CalidadSoftware-Mantenibilidad" style="stroke: #A9A9A9; stroke-width: 2.0;"/><polygon fill="none" points="516.95,401.307,527.767,383.086,530.673,404.076,516.95,401.307" style="stroke: #A9A9A9; stroke-width: 2.0;"/><!--link Mantenibilidad to Viscosidad--><path d="M381.957,619.151 C363.2,633.063 341.568,649.109 322.833,663.0046 " fill="none" id="Mantenibilidad-Viscosidad" style="stroke: #A9A9A9; stroke-width: 2.0;"/><polygon fill="#A9A9A9" points="312.181,670.9055,321.7926,668.7568,316.197,667.9269,317.0269,662.3313,312.181,670.9055" style="stroke: #A9A9A9; stroke-width: 2.0;"/><line style="stroke: #A9A9A9; stroke-width: 2.0;" x1="316.197" x2="322.6225" y1="667.9269" y2="663.1609"/><polygon fill="#A9A9A9" points="392.597,611.259,385.395,611.6205,382.9587,618.4076,390.1607,618.0461,392.597,611.259" style="stroke: #A9A9A9; stroke-width: 2.0;"/><!--link Mantenibilidad to Rigidez--><path d="M425.873,624.698 C425.295,635.485 424.67,647.157 424.094,657.9108 " fill="none" id="Mantenibilidad-Rigidez" style="stroke: #A9A9A9; stroke-width: 2.0;"/><polygon fill="#A9A9A9" points="423.398,670.9055,427.8737,662.1324,423.6655,665.9127,419.8852,661.7044,423.398,670.9055" style="stroke: #A9A9A9; stroke-width: 2.0;"/><line style="stroke: #A9A9A9; stroke-width: 2.0;" x1="423.6655" x2="424.0935" y1="665.9127" y2="657.9241"/><polygon fill="#A9A9A9" points="426.593,611.259,422.2776,617.0363,425.9508,623.2418,430.2662,617.4645,426.593,611.259" style="stroke: #A9A9A9; stroke-width: 2.0;"/><!--link Mantenibilidad to Inmovilidad--><path d="M340.996,615.451 C294.127,631.855 236.622,651.982 190.467,668.1364 " fill="none" id="Mantenibilidad-Inmovilidad" style="stroke: #A9A9A9; stroke-width: 2.0;"/><polygon fill="#A9A9A9" points="178.076,672.4735,187.8921,673.276,182.7953,670.8218,185.2495,665.7251,178.076,672.4735" style="stroke: #A9A9A9; stroke-width: 2.0;"/><line style="stroke: #A9A9A9; stroke-width: 2.0;" x1="182.7953" x2="190.346" y1="670.8218" y2="668.1789"/><polygon fill="#A9A9A9" points="353.378,611.118,346.3935,609.3246,342.0516,615.082,349.0362,616.8755,353.378,611.118" style="stroke: #A9A9A9; stroke-width: 2.0;"/><!--link Mantenibilidad to Fragilidad--><path d="M470.949,619.606 C487.953,633.308 507.454,649.02 524.422,662.6926 " fill="none" id="Mantenibilidad-Fragilidad" style="stroke: #A9A9A9; stroke-width: 2.0;"/><polygon fill="#A9A9A9" points="534.615,670.9055,530.117,662.1438,530.7217,667.7682,525.0973,668.373,534.615,670.9055" style="stroke: #A9A9A9; stroke-width: 2.0;"/><line style="stroke: #A9A9A9; stroke-width: 2.0;" x1="530.7217" x2="524.492" y1="667.7682" y2="662.7489"/><polygon fill="#A9A9A9" points="460.589,611.259,462.7511,618.1383,469.9329,618.7884,467.7707,611.9091,460.589,611.259" style="stroke: #A9A9A9; stroke-width: 2.0;"/><!--link Producto to Desarrollo--><path d="M806.01,104.28 C848.914,109.381 911.106,118.499 964,133 C1013.86,146.669 1068.21,168.341 1108.55,185.829 " fill="none" id="Producto-Desarrollo" style="stroke: #A9A9A9; stroke-width: 2.0;"/><polygon fill="#A9A9A9" points="1113.4,187.94,1106.7504,180.6748,1108.8172,185.9406,1103.5514,188.0074,1113.4,187.94" style="stroke: #A9A9A9; stroke-width: 2.0;"/><!--link Producto to ÁmbitoReqisitos--><path d="M785.507,135.233 C797.274,148.766 810.633,164.128 822.409,177.67 " fill="none" id="Producto-ÁmbitoReqisitos" style="stroke: #A9A9A9; stroke-width: 2.0;"/><polygon fill="#A9A9A9" points="831.052,187.61,828.1643,178.194,827.7709,183.8372,822.1277,183.4438,831.052,187.61" style="stroke: #A9A9A9; stroke-width: 2.0;"/><line style="stroke: #A9A9A9; stroke-width: 2.0;" x1="827.7709" x2="822.5215" y1="183.8372" y2="177.8"/><polygon fill="#A9A9A9" points="776.692,125.095,777.6105,132.2474,784.5659,134.1505,783.6474,126.9981,776.692,125.095" style="stroke: #A9A9A9; stroke-width: 2.0;"/><!--link Producto to CosteTiempo--><path d="M722.809,135.233 C711.158,148.766 697.933,164.128 686.276,177.67 " fill="none" id="Producto-CosteTiempo" style="stroke: #A9A9A9; stroke-width: 2.0;"/><polygon fill="#A9A9A9" points="677.718,187.61,686.6214,183.3993,680.9802,183.8208,680.5587,178.1797,677.718,187.61" style="stroke: #A9A9A9; stroke-width: 2.0;"/><line style="stroke: #A9A9A9; stroke-width: 2.0;" x1="680.9802" x2="686.2" y1="183.8208" y2="177.7575"/><polygon fill="#A9A9A9" points="731.535,125.095,724.589,127.0322,723.7056,134.189,730.6517,132.2518,731.535,125.095" style="stroke: #A9A9A9; stroke-width: 2.0;"/><!--link Producto to CalidadSoftware--><path d="M688.47,102.979 C641.509,107.248 583.719,115.883 567,133 C519.65,181.475 520.437,266.35 525.84,315.928 " fill="none" id="Producto-CalidadSoftware" style="stroke: #A9A9A9; stroke-width: 2.0;"/><polygon fill="#A9A9A9" points="527.45,328.916,530.3119,319.4921,526.8346,323.954,522.3727,320.4767,527.45,328.916" style="stroke: #A9A9A9; stroke-width: 2.0;"/><line style="stroke: #A9A9A9; stroke-width: 2.0;" x1="526.8346" x2="525.8505" y1="323.954" y2="316.015"/><polygon fill="#A9A9A9" points="701.698,101.862,695.3826,98.3812,689.7406,102.8721,696.056,106.3528,701.698,101.862" style="stroke: #A9A9A9; stroke-width: 2.0;"/><!--link ÁmbitoReqisitos to CalidadSoftware--><path d="M804.478,242.052 C785.425,251.013 763.161,260.234 742,266 C711.362,274.349 701.144,264.013 671,274 C635.011,285.923 598.108,307.974 571.379,326.062 " fill="none" id="ÁmbitoReqisitos-CalidadSoftware" style="stroke: #A9A9A9; stroke-width: 2.0;"/><polygon fill="#A9A9A9" points="567.178,328.929,576.8666,327.1596,571.3079,326.1105,572.357,320.5518,567.178,328.929" style="stroke: #A9A9A9; stroke-width: 2.0;"/><!--link CosteTiempo to CalidadSoftware--><path d="M631.865,242.145 C610.991,265.734 580.3,300.417 558.458,325.1 " fill="none" id="CosteTiempo-CalidadSoftware" style="stroke: #A9A9A9; stroke-width: 2.0;"/><polygon fill="#A9A9A9" points="555.032,328.972,563.9924,324.8841,558.346,325.228,558.002,319.5816,555.032,328.972" style="stroke: #A9A9A9; stroke-width: 2.0;"/><!--link ÁmbitoReqisitos to Eficacia--><path d="M852.894,242.271 C852.484,281.246 856.54,355.332 889,407 C897.031,419.784 908.738,430.776 920.908,439.801 " fill="none" id="ÁmbitoReqisitos-Eficacia" style="stroke: #A9A9A9; stroke-width: 2.0;"/><polygon fill="#A9A9A9" points="925.049,442.786,920.0848,434.2797,920.9921,439.8633,915.4085,440.7707,925.049,442.786" style="stroke: #A9A9A9; stroke-width: 2.0;"/><!--link CosteTiempo to Eficiencia--><path d="M667.39,242.123 C689.666,289.088 736.379,387.574 760.259,437.922 " fill="none" id="CosteTiempo-Eficiencia" style="stroke: #A9A9A9; stroke-width: 2.0;"/><polygon fill="#A9A9A9" points="762.497,442.641,762.2536,432.7952,760.354,438.1235,755.0256,436.224,762.497,442.641" style="stroke: #A9A9A9; stroke-width: 2.0;"/><!--link Desarrollo to Efectividad--><path d="M1123.13,249.755 C1092.98,271.47 1053.95,299.582 1023.81,321.289 " fill="none" id="Desarrollo-Efectividad" style="stroke: #A9A9A9; stroke-width: 2.0;"/><polygon fill="#A9A9A9" points="1013.14,328.972,1022.7804,326.9564,1017.1968,326.0492,1018.1039,320.4656,1013.14,328.972" style="stroke: #A9A9A9; stroke-width: 2.0;"/><line style="stroke: #A9A9A9; stroke-width: 2.0;" x1="1017.1968" x2="1023.69" y1="326.0492" y2="321.375"/><polygon fill="#A9A9A9" points="1133.7,242.145,1126.4937,242.407,1123.9638,249.1597,1131.1701,248.8978,1133.7,242.145" style="stroke: #A9A9A9; stroke-width: 2.0;"/><!--link Desarrollo to DesarrolloSinPruebas--><path d="M1189.27,260.645 C1199.01,283.202 1210.48,309.782 1218.77,328.972 " fill="none" id="Desarrollo-DesarrolloSinPruebas" style="stroke: #A9A9A9; stroke-width: 2.0;"/><polygon fill="none" points="1182.78,263.281,1181.29,242.145,1195.64,257.733,1182.78,263.281" style="stroke: #A9A9A9; stroke-width: 2.0;"/><!--link DesarrolloSinPruebas to MalaEficacia--><path d="M1219.45,383.222 C1206.04,413.83 1180.31,464.401 1145,497 C1118.36,521.602 1083.35,540.857 1051.96,554.853 " fill="none" id="DesarrolloSinPruebas-MalaEficacia" style="stroke: #A9A9A9; stroke-width: 2.0;"/><polygon fill="#A9A9A9" points="1047.35,556.88,1057.1988,556.9149,1051.9262,554.8655,1053.9756,549.5929,1047.35,556.88" style="stroke: #A9A9A9; stroke-width: 2.0;"/><!--link DesarrolloSinPruebas to MalaEficiencia--><path d="M1201.61,383.075 C1166.62,414.013 1104.26,465.372 1043,497 C1012.06,512.976 932.488,537.822 868.035,556.708 " fill="none" id="DesarrolloSinPruebas-MalaEficiencia" style="stroke: #A9A9A9; stroke-width: 2.0;"/><polygon fill="#A9A9A9" points="863.029,558.172,872.7902,559.4832,867.8277,556.7677,870.5433,551.8052,863.029,558.172" style="stroke: #A9A9A9; stroke-width: 2.0;"/><!--link Efectividad to Eficacia--><path d="M975.937,396.698 C975.651,407.365 975.342,418.898 975.057,429.552 " fill="none" id="Efectividad-Eficacia" style="stroke: #A9A9A9; stroke-width: 2.0;"/><polygon fill="#A9A9A9" points="974.699,442.905,978.9389,434.0155,974.8331,437.9068,970.9417,433.801,974.699,442.905" style="stroke: #A9A9A9; stroke-width: 2.0;"/><line style="stroke: #A9A9A9; stroke-width: 2.0;" x1="974.8331" x2="975.0475" y1="437.9068" y2="429.91"/><polygon fill="#A9A9A9" points="976.297,383.259,972.1376,389.1496,975.9753,395.2547,980.1347,389.3641,976.297,383.259" style="stroke: #A9A9A9; stroke-width: 2.0;"/><!--link Efectividad to Eficiencia--><path d="M918.508,389.431 C891.85,404.212 860.358,421.673 833.677,436.466 " fill="none" id="Efectividad-Eficiencia" style="stroke: #A9A9A9; stroke-width: 2.0;"/><polygon fill="#A9A9A9" points="822.18,442.841,831.9907,441.9754,826.5529,440.4166,828.1117,434.9788,822.18,442.841" style="stroke: #A9A9A9; stroke-width: 2.0;"/><line style="stroke: #A9A9A9; stroke-width: 2.0;" x1="826.5529" x2="833.549" y1="440.4166" y2="436.537"/><polygon fill="#A9A9A9" points="929.895,383.118,922.708,382.5292,919.4003,388.937,926.5873,389.5257,929.895,383.118" style="stroke: #A9A9A9; stroke-width: 2.0;"/><!--link Eficacia to MalaEficacia--><path d="M974,517.367 C974,530.865 974,545.133 974,556.905 " fill="none" id="Eficacia-MalaEficacia" style="stroke: #A9A9A9; stroke-width: 2.0;"/><polygon fill="none" points="967,517.259,974,497.259,981,517.259,967,517.259" style="stroke: #A9A9A9; stroke-width: 2.0;"/><!--link Eficiencia to MalaEficiencia--><path d="M775,517.367 C775,530.865 775,545.133 775,556.905 " fill="none" id="Eficiencia-MalaEficiencia" style="stroke: #A9A9A9; stroke-width: 2.0;"/><polygon fill="none" points="768,517.259,775,497.259,782,517.259,768,517.259" style="stroke: #A9A9A9; stroke-width: 2.0;"/><!--link MalaEficacia to Fragilidad--><path d="M931.222,611.162 C915.565,619.811 897.413,628.797 880,635 C798.753,663.9417 700.558,680.6126 636.082,689.2334 " fill="none" id="MalaEficacia-Fragilidad" style="stroke: #A9A9A9; stroke-width: 2.0;"/><polygon fill="#A9A9A9" points="631.113,689.8908,640.5598,692.676,636.0698,689.2351,639.5107,684.7451,631.113,689.8908" style="stroke: #A9A9A9; stroke-width: 2.0;"/><!--link MalaEficiencia to Fragilidad--><path d="M726.496,611.118 C694.688,628.245 653.086,650.646 620.345,668.2757 " fill="none" id="MalaEficiencia-Fragilidad" style="stroke: #A9A9A9; stroke-width: 2.0;"/><polygon fill="#A9A9A9" points="615.581,670.8409,625.4017,670.0967,619.9835,668.4708,621.6095,663.0526,615.581,670.8409" style="stroke: #A9A9A9; stroke-width: 2.0;"/><!--
@startuml
allowmixing
skinparam backgroundColor #222222
skinparam shadowing false
skinparam padding 1
hide circle
hide stereotype
skinparam arrow {
    Thickness 2
    Color #DarkGrey
    FontSize 20
    FontName courier
    FontStyle normal
    FontColor #DarkGrey
}
skinparam class {
    BorderThickness 3
    BorderColor<<a>> #87ceeb
    BorderColor<<b>> #ffa500
    BorderColor<<c>> #DC143C
    BorderColor<<d>> #DarkGrey
    BackgroundColor #222222
    FontSize 20
    FontName courier
    FontStyle bold
    FontColor<<a>> #87ceeb
    FontColor<<b>> #ffa500
    FontColor<<c>> #DC143C
    FontColor<<d>> #DarkGrey
}
skinparam package {
    BorderThickness 3
    BorderColor #DarkGrey
    BackgroundColor #222222
    FontSize 20
    FontName courier
    FontStyle bold
    FontColor #DarkGrey
}
package productos {
class Producto <<a>>
class ÁmbitoReqisitos <<a>>
class CosteTiempo <<a>>
}

package calidadSoftwares {
class CalidadSoftware <<b>>
class "..." as X <<b>>
class Mantenibilidad <<b>>
class Viscosidad <<b>>
class Rigidez <<b>>
class Inmovilidad <<b>>
class Fragilidad <<c>>
}

package desarrollos {
class Desarrollo <<d>>

class DesarrolloSinPruebas <<c>>
}

package efectividades {
class Efectividad <<d>>

class Eficacia <<d>>
class MalaEficacia <<c>>

class Eficiencia <<d>>
class MalaEficiencia <<c>>
}

CalidadSoftware <|-down- X
X - -> Mantenibilidad
CalidadSoftware <|-down- Mantenibilidad
Mantenibilidad *-down-> Viscosidad
Mantenibilidad *-down-> Rigidez
Mantenibilidad *-down-> Inmovilidad
Mantenibilidad *-down-> Fragilidad

Producto - -> Desarrollo
Producto *-down-> ÁmbitoReqisitos
Producto *-down-> CosteTiempo
Producto *-down-> CalidadSoftware
ÁmbitoReqisitos -down-> CalidadSoftware
CosteTiempo -down-> CalidadSoftware
ÁmbitoReqisitos - -> Eficacia
CosteTiempo - -> Eficiencia

Desarrollo *-down-> Efectividad
Desarrollo <|-down- DesarrolloSinPruebas
DesarrolloSinPruebas - -> MalaEficacia
DesarrolloSinPruebas - -> MalaEficiencia

Efectividad *-down-> Eficacia
Efectividad *-down-> Eficiencia
Eficacia <|-down- MalaEficacia
Eficiencia <|-down- MalaEficiencia

MalaEficacia - -> Fragilidad
MalaEficiencia - -> Fragilidad
@enduml

PlantUML version 1.2019.05(Sat Apr 20 18:45:36 CEST 2019)
(GPL source distribution)
Java Runtime: Java(TM) SE Runtime Environment
JVM: Java HotSpot(TM) 64-Bit Server VM
Java Version: 11.0.8+10-LTS
Operating System: Windows 10
OS Version: 10.0
Default Encoding: windows-1252
Language: es
Country: ES
--></g></svg>