<?xml version="1.0" encoding="UTF-8" standalone="no"?><svg xmlns="http://www.w3.org/2000/svg" xmlns:xlink="http://www.w3.org/1999/xlink" contentScriptType="application/ecmascript" contentStyleType="text/css" height="338px" preserveAspectRatio="none" style="width:1109px;height:338px;background:#222222;" version="1.1" viewBox="0 0 1109 338" width="1109px" zoomAndPan="magnify"><defs/><g><!--entity Usuario--><polygon fill="#222222" points="114.0442,19.9459,112.8715,21.5482,111.4845,23.8951,109.5008,25.4767,107.4163,26.3415,105.7542,26.4166,103.618,25.3349,101.6023,24.6283,100.0724,23.1936,99.2699,21.5511,98.7939,20.2433,98.3277,18.5351,97.5709,17.0651,98.1525,15.6298,98.662,14.0576,100.574,12.8142,101.9192,11.2008,103.5843,10.665,105.5637,10.2037,108.1021,10.4778,109.4924,11.1335,111.1089,11.4307,113.0743,13.4443,113.7595,15.5701,114.0571,17.0206,113.72,19.4108" style="stroke: #A9A9A9; stroke-width: 2.0;"/><path d="M106,26 L106.1868,26 L105.6317,31.4 L106.1718,36.8 L106.3553,42.2 L105.3659,47.6 L106,53 M93,34 L93,33.9309 L98.2,33.6209 L103.4,33.6591 L108.6,33.9394 L113.8,33.3854 L119,34 M106,53 L106.3719,53.3223 L102.9766,55.6331 L100.6672,58.8849 L98.4901,62.2515 L95.5424,64.9501 L93,68 M106,53 L106.0458,53.0397 L108.5785,55.9814 L111.3199,59.1039 L113.9606,62.1392 L116.7934,65.341 L119,68 " fill="none" style="stroke: #A9A9A9; stroke-width: 2.0;"/><text fill="#A9A9A9" font-family="courier" font-size="20" font-weight="bold" lengthAdjust="spacingAndGlyphs" textLength="84" x="64" y="92.1074">Usuario</text><!--entity Probador--><polygon fill="#222222" points="377.0442,19.9459,375.8715,21.5482,374.4845,23.8951,372.5008,25.4767,370.4163,26.3415,368.7542,26.4166,366.618,25.3349,364.6023,24.6283,363.0724,23.1936,362.2699,21.5511,361.7939,20.2433,361.3277,18.5351,360.5709,17.0651,361.1525,15.6298,361.662,14.0576,363.574,12.8142,364.9192,11.2008,366.5843,10.665,368.5637,10.2037,371.1021,10.4778,372.4924,11.1335,374.1089,11.4307,376.0743,13.4443,376.7595,15.5701,377.0571,17.0206,376.72,19.4108" style="stroke: #A9A9A9; stroke-width: 2.0;"/><path d="M369,26 L369.1868,26 L368.6317,31.4 L369.1718,36.8 L369.3553,42.2 L368.3659,47.6 L369,53 M356,34 L356,33.9309 L361.2,33.6209 L366.4,33.6591 L371.6,33.9394 L376.8,33.3854 L382,34 M369,53 L369.3719,53.3223 L365.9766,55.6331 L363.6672,58.8849 L361.4901,62.2515 L358.5424,64.9501 L356,68 M369,53 L369.0458,53.0397 L371.5785,55.9814 L374.3199,59.1039 L376.9606,62.1392 L379.7934,65.341 L382,68 " fill="none" style="stroke: #A9A9A9; stroke-width: 2.0;"/><text fill="#A9A9A9" font-family="courier" font-size="20" font-weight="bold" lengthAdjust="spacingAndGlyphs" textLength="96" x="321" y="92.1074">Probador</text><!--entity Desarrollador--><polygon fill="#222222" points="1018.0442,19.9459,1016.8715,21.5482,1015.4845,23.8951,1013.5008,25.4767,1011.4163,26.3415,1009.7542,26.4166,1007.618,25.3349,1005.6023,24.6283,1004.0724,23.1936,1003.2699,21.5511,1002.7939,20.2433,1002.3277,18.5351,1001.5709,17.0651,1002.1525,15.6298,1002.662,14.0576,1004.574,12.8142,1005.9192,11.2008,1007.5843,10.665,1009.5637,10.2037,1012.1021,10.4778,1013.4924,11.1335,1015.1089,11.4307,1017.0743,13.4443,1017.7595,15.5701,1018.0571,17.0206,1017.72,19.4108" style="stroke: #A9A9A9; stroke-width: 2.0;"/><path d="M1010,26 L1010.1868,26 L1009.6317,31.4 L1010.1718,36.8 L1010.3553,42.2 L1009.3659,47.6 L1010,53 M997,34 L997,33.9309 L1002.2,33.6209 L1007.4,33.6591 L1012.6,33.9394 L1017.8,33.3854 L1023,34 M1010,53 L1010.3719,53.3223 L1006.9766,55.6331 L1004.6672,58.8849 L1002.4901,62.2515 L999.5424,64.9501 L997,68 M1010,53 L1010.0458,53.0397 L1012.5785,55.9814 L1015.3199,59.1039 L1017.9606,62.1392 L1020.7934,65.341 L1023,68 " fill="none" style="stroke: #A9A9A9; stroke-width: 2.0;"/><text fill="#A9A9A9" font-family="courier" font-size="20" font-weight="bold" lengthAdjust="spacingAndGlyphs" textLength="156" x="932" y="92.1074">Desarrollador</text><!--class Pruebas--><polygon fill="#222222" points="500,26.5,500,26.7102,510.2222,26.0857,520.4444,26.6933,530.6667,26.8997,540.8889,25.7866,551.1111,26.4223,561.3333,26.0735,571.5556,26.1165,581.7778,26.4318,592,26.5,591.3086,26.5,592.5536,37.3227,591.3697,48.1453,591.8022,58.968,592.4319,69.7906,592,80.6133,592,80.5275,581.7778,80.6815,571.5556,80.5813,561.3333,80.7918,551.1111,80.8524,540.8889,81.199,530.6667,81.2843,520.4444,81.2925,510.2222,80.8679,500,80.6133,500.4636,80.6133,500.7022,69.7906,499.2788,58.968,500.6785,48.1453,499.7035,37.3227,500,26.5" style="stroke: #1E90FF; stroke-width: 3.0;"/><text fill="#1E90FF" font-family="courier" font-size="20" font-weight="bold" lengthAdjust="spacingAndGlyphs" textLength="84" x="504" y="52.6074">Pruebas</text><path d="M501,64.6133 L501,64.8935 L511,64.0609 L521,64.871 L531,65.1462 L541,63.6621 L551,64.5097 L561,64.0446 L571,64.1019 L581,64.5224 L591,64.6133 " fill="#222222" style="stroke: #1E90FF; stroke-width: 3.0;"/><path d="M501,72.6133 L501,72.8935 L511,72.0609 L521,72.871 L531,73.1462 L541,71.6621 L551,72.5097 L561,72.0446 L571,72.1019 L581,72.5224 L591,72.6133 " fill="#222222" style="stroke: #1E90FF; stroke-width: 3.0;"/><!--class PruebaAceptación--><polygon fill="#222222" points="6,159,6,159.2102,16,158.5857,26,159.1933,36,159.3997,46,158.2866,56,158.9223,66,158.5735,76,158.6165,86,158.9318,96,158.3086,106,159.5536,116,158.3697,126,158.8022,136,159.4319,146,158.9142,156,159.0682,166,158.9681,176,159.1785,186,159.2391,196,159.5857,206,159,206.6711,159,206.6793,169.8227,206.2546,180.6453,206.4636,191.468,206.7022,202.2906,206,213.1133,206,212.3921,196,213.7918,186,212.8168,176,213.6471,166,212.6183,156,213.0448,146,213.8549,136,213.0645,126,213.2186,116,213.4519,106,213.5295,96,213.1094,86,213.4005,76,212.5409,66,213.3977,56,213.6615,46,213.5578,36,213.7263,26,212.6302,16,212.4611,6,213.1133,5.3786,213.1133,5.9411,202.2906,5.8035,191.468,6.6814,180.6453,5.8253,169.8227,6,159" style="stroke: #1E90FF; stroke-width: 3.0;"/><text fill="#1E90FF" font-family="courier" font-size="20" font-weight="bold" lengthAdjust="spacingAndGlyphs" textLength="192" x="10" y="185.1074">PruebaAceptación</text><path d="M7,197.1133 L7,197.3935 L16.9,196.5609 L26.8,197.371 L36.7,197.6462 L46.6,196.1621 L56.5,197.0097 L66.4,196.5446 L76.3,196.6019 L86.2,197.0224 L96.1,196.1915 L106,197.8515 L115.9,196.2729 L125.8,196.8496 L135.7,197.6892 L145.6,196.9989 L155.5,197.2043 L165.4,197.0707 L175.3,197.3513 L185.2,197.4321 L195.1,197.8942 L205,197.1133 " fill="#222222" style="stroke: #1E90FF; stroke-width: 3.0;"/><path d="M7,205.1133 L7,205.3935 L16.9,204.5609 L26.8,205.371 L36.7,205.6462 L46.6,204.1621 L56.5,205.0097 L66.4,204.5446 L76.3,204.6019 L86.2,205.0224 L96.1,204.1915 L106,205.8515 L115.9,204.2729 L125.8,204.8496 L135.7,205.6892 L145.6,204.9989 L155.5,205.2043 L165.4,205.0707 L175.3,205.3513 L185.2,205.4321 L195.1,205.8942 L205,205.1133 " fill="#222222" style="stroke: #1E90FF; stroke-width: 3.0;"/><!--class PruebaSistema--><polygon fill="#222222" points="241,159,241,159.2102,251.25,158.5857,261.5,159.1933,271.75,159.3997,282,158.2866,292.25,158.9223,302.5,158.5735,312.75,158.6165,323,158.9318,333.25,158.3086,343.5,159.5536,353.75,158.3697,364,158.8022,374.25,159.4319,384.5,158.9142,394.75,159.0682,405,159,404.9681,159,405.1785,169.8227,405.2391,180.6453,405.5857,191.468,405.6711,202.2906,405,213.1133,405,213.7925,394.75,213.3679,384.5,213.5769,374.25,213.8155,364,212.3921,353.75,213.7918,343.5,212.8168,333.25,213.6471,323,212.6183,312.75,213.0448,302.5,213.8549,292.25,213.0645,282,213.2186,271.75,213.4519,261.5,213.5295,251.25,213.1094,241,213.1133,241.2872,213.1133,240.4276,202.2906,241.2844,191.468,241.5482,180.6453,241.4445,169.8227,241,159" style="stroke: #1E90FF; stroke-width: 3.0;"/><text fill="#1E90FF" font-family="courier" font-size="20" font-weight="bold" lengthAdjust="spacingAndGlyphs" textLength="156" x="245" y="185.1074">PruebaSistema</text><path d="M242,197.1133 L242,197.3935 L252.125,196.5609 L262.25,197.371 L272.375,197.6462 L282.5,196.1621 L292.625,197.0097 L302.75,196.5446 L312.875,196.6019 L323,197.0224 L333.125,196.1915 L343.25,197.8515 L353.375,196.2729 L363.5,196.8496 L373.625,197.6892 L383.75,196.9989 L393.875,197.2043 L404,197.1133 " fill="#222222" style="stroke: #1E90FF; stroke-width: 3.0;"/><path d="M242,205.1133 L242,205.3935 L252.125,204.5609 L262.25,205.371 L272.375,205.6462 L282.5,204.1621 L292.625,205.0097 L302.75,204.5446 L312.875,204.6019 L323,205.0224 L333.125,204.1915 L343.25,205.8515 L353.375,204.2729 L363.5,204.8496 L373.625,205.6892 L383.75,204.9989 L393.875,205.2043 L404,205.1133 " fill="#222222" style="stroke: #1E90FF; stroke-width: 3.0;"/><!--class PruebaIntegración--><polygon fill="#222222" points="440,159,440,159.2102,450.0952,158.5857,460.1905,159.1933,470.2857,159.3997,480.381,158.2866,490.4762,158.9223,500.5714,158.5735,510.6667,158.6165,520.7619,158.9318,530.8571,158.3086,540.9524,159.5536,551.0476,158.3697,561.1429,158.8022,571.2381,159.4319,581.3333,158.9142,591.4286,159.0682,601.5238,158.9681,611.619,159.1785,621.7143,159.2391,631.8095,159.5857,641.9048,159.6711,652,159,652.6793,159,652.2546,169.8227,652.4636,180.6453,652.7022,191.468,651.2788,202.2906,652,213.1133,652,213.7918,641.9048,212.8168,631.8095,213.6471,621.7143,212.6183,611.619,213.0448,601.5238,213.8549,591.4286,213.0645,581.3333,213.2186,571.2381,213.4519,561.1429,213.5295,551.0476,213.1094,540.9524,213.4005,530.8571,212.5409,520.7619,213.3977,510.6667,213.6615,500.5714,213.5578,490.4762,213.7263,480.381,212.6302,470.2857,212.4611,460.1905,212.4919,450.0952,213.0544,440,213.1133,439.8035,213.1133,440.6814,202.2906,439.8253,191.468,439.6569,180.6453,440.2283,169.8227,440,159" style="stroke: #1E90FF; stroke-width: 3.0;"/><text fill="#1E90FF" font-family="courier" font-size="20" font-weight="bold" lengthAdjust="spacingAndGlyphs" textLength="204" x="444" y="185.1074">PruebaIntegración</text><path d="M441,197.1133 L441,197.3935 L451,196.5609 L461,197.371 L471,197.6462 L481,196.1621 L491,197.0097 L501,196.5446 L511,196.6019 L521,197.0224 L531,196.1915 L541,197.8515 L551,196.2729 L561,196.8496 L571,197.6892 L581,196.9989 L591,197.2043 L601,197.0707 L611,197.3513 L621,197.4321 L631,197.8942 L641,198.008 L651,197.1133 " fill="#222222" style="stroke: #1E90FF; stroke-width: 3.0;"/><path d="M441,205.1133 L441,205.3935 L451,204.5609 L461,205.371 L471,205.6462 L481,204.1621 L491,205.0097 L501,204.5446 L511,204.6019 L521,205.0224 L531,204.1915 L541,205.8515 L551,204.2729 L561,204.8496 L571,205.6892 L581,204.9989 L591,205.2043 L601,205.0707 L611,205.3513 L621,205.4321 L631,205.8942 L641,206.008 L651,205.1133 " fill="#222222" style="stroke: #1E90FF; stroke-width: 3.0;"/><!--class PruebaComponente--><polygon fill="#222222" points="687,159,687,159.2102,697,158.5857,707,159.1933,717,159.3997,727,158.2866,737,158.9223,747,158.5735,757,158.6165,767,158.9318,777,158.3086,787,159.5536,797,158.3697,807,158.8022,817,159.4319,827,158.9142,837,159.0682,847,158.9681,857,159.1785,867,159.2391,877,159.5857,887,159,887.6711,159,887.6793,169.8227,887.2546,180.6453,887.4636,191.468,887.7022,202.2906,887,213.1133,887,212.3921,877,213.7918,867,212.8168,857,213.6471,847,212.6183,837,213.0448,827,213.8549,817,213.0645,807,213.2186,797,213.4519,787,213.5295,777,213.1094,767,213.4005,757,212.5409,747,213.3977,737,213.6615,727,213.5578,717,213.7263,707,212.6302,697,212.4611,687,213.1133,686.3786,213.1133,686.9411,202.2906,686.8035,191.468,687.6814,180.6453,686.8253,169.8227,687,159" style="stroke: #1E90FF; stroke-width: 3.0;"/><text fill="#1E90FF" font-family="courier" font-size="20" font-weight="bold" lengthAdjust="spacingAndGlyphs" textLength="192" x="691" y="185.1074">PruebaComponente</text><path d="M688,197.1133 L688,197.3935 L697.9,196.5609 L707.8,197.371 L717.7,197.6462 L727.6,196.1621 L737.5,197.0097 L747.4,196.5446 L757.3,196.6019 L767.2,197.0224 L777.1,196.1915 L787,197.8515 L796.9,196.2729 L806.8,196.8496 L816.7,197.6892 L826.6,196.9989 L836.5,197.2043 L846.4,197.0707 L856.3,197.3513 L866.2,197.4321 L876.1,197.8942 L886,197.1133 " fill="#222222" style="stroke: #1E90FF; stroke-width: 3.0;"/><path d="M688,205.1133 L688,205.3935 L697.9,204.5609 L707.8,205.371 L717.7,205.6462 L727.6,204.1621 L737.5,205.0097 L747.4,204.5446 L757.3,204.6019 L767.2,205.0224 L777.1,204.1915 L787,205.8515 L796.9,204.2729 L806.8,204.8496 L816.7,205.6892 L826.6,204.9989 L836.5,205.2043 L846.4,205.0707 L856.3,205.3513 L866.2,205.4321 L876.1,205.8942 L886,205.1133 " fill="#222222" style="stroke: #1E90FF; stroke-width: 3.0;"/><!--class PruebaUnitaria--><polygon fill="#222222" points="922,159,922,159.2102,931.7778,158.5857,941.5556,159.1933,951.3333,159.3997,961.1111,158.2866,970.8889,158.9223,980.6667,158.5735,990.4444,158.6165,1000.2222,158.9318,1010,158.3086,1019.7778,159.5536,1029.5556,158.3697,1039.3333,158.8022,1049.1111,159.4319,1058.8889,158.9142,1068.6667,159.0682,1078.4444,158.9681,1088.2222,159.1785,1098,159,1098.2391,159,1098.5857,169.8227,1098.6711,180.6453,1098.6793,191.468,1098.2546,202.2906,1098,213.1133,1098,213.5769,1088.2222,213.8155,1078.4444,212.3921,1068.6667,213.7918,1058.8889,212.8168,1049.1111,213.6471,1039.3333,212.6183,1029.5556,213.0448,1019.7778,213.8549,1010,213.0645,1000.2222,213.2186,990.4444,213.4519,980.6667,213.5295,970.8889,213.1094,961.1111,213.4005,951.3333,212.5409,941.5556,213.3977,931.7778,213.6615,922,213.1133,922.4445,213.1133,922.613,202.2906,921.5169,191.468,921.3478,180.6453,921.3786,169.8227,922,159" style="stroke: #1E90FF; stroke-width: 3.0;"/><text fill="#1E90FF" font-family="courier" font-size="20" font-weight="bold" lengthAdjust="spacingAndGlyphs" textLength="168" x="926" y="185.1074">PruebaUnitaria</text><path d="M923,197.1133 L923,197.3935 L933.2353,196.5609 L943.4706,197.371 L953.7059,197.6462 L963.9412,196.1621 L974.1765,197.0097 L984.4118,196.5446 L994.6471,196.6019 L1004.8824,197.0224 L1015.1176,196.1915 L1025.3529,197.8515 L1035.5882,196.2729 L1045.8235,196.8496 L1056.0588,197.6892 L1066.2941,196.9989 L1076.5294,197.2043 L1086.7647,197.0707 L1097,197.1133 " fill="#222222" style="stroke: #1E90FF; stroke-width: 3.0;"/><path d="M923,205.1133 L923,205.3935 L933.2353,204.5609 L943.4706,205.371 L953.7059,205.6462 L963.9412,204.1621 L974.1765,205.0097 L984.4118,204.5446 L994.6471,204.6019 L1004.8824,205.0224 L1015.1176,204.1915 L1025.3529,205.8515 L1035.5882,204.2729 L1045.8235,204.8496 L1056.0588,205.6892 L1066.2941,204.9989 L1076.5294,205.2043 L1086.7647,205.0707 L1097,205.1133 " fill="#222222" style="stroke: #1E90FF; stroke-width: 3.0;"/><!--class SistemaSoftware--><polygon fill="#222222" points="229,273,229,273.2102,238.8947,272.5857,248.7895,273.1933,258.6842,273.3997,268.5789,272.2866,278.4737,272.9223,288.3684,272.5735,298.2632,272.6165,308.1579,272.9318,318.0526,272.3086,327.9474,273.5536,337.8421,272.3697,347.7368,272.8022,357.6316,273.4319,367.5263,272.9142,377.4211,273.0682,387.3158,272.9681,397.2105,273.1785,407.1053,273.2391,417,273,417.5857,273,417.6711,283.8227,417.6793,294.6453,417.2546,305.468,417.4636,316.2906,417,327.1133,417,327.8155,407.1053,326.3921,397.2105,327.7918,387.3158,326.8168,377.4211,327.6471,367.5263,326.6183,357.6316,327.0448,347.7368,327.8549,337.8421,327.0645,327.9474,327.2186,318.0526,327.4519,308.1579,327.5295,298.2632,327.1094,288.3684,327.4005,278.4737,326.5409,268.5789,327.3977,258.6842,327.6615,248.7895,327.5578,238.8947,327.7263,229,327.1133,228.5169,327.1133,228.3478,316.2906,228.3786,305.468,228.9411,294.6453,228.8035,283.8227,229,273" style="stroke: #87CEEB; stroke-width: 3.0;"/><text fill="#87CEEB" font-family="courier" font-size="20" font-weight="bold" lengthAdjust="spacingAndGlyphs" textLength="180" x="233" y="299.1074">SistemaSoftware</text><path d="M230,311.1133 L230,311.3935 L239.7895,310.5609 L249.5789,311.371 L259.3684,311.6462 L269.1579,310.1621 L278.9474,311.0097 L288.7368,310.5446 L298.5263,310.6019 L308.3158,311.0224 L318.1053,310.1915 L327.8947,311.8515 L337.6842,310.2729 L347.4737,310.8496 L357.2632,311.6892 L367.0526,310.9989 L376.8421,311.2043 L386.6316,311.0707 L396.4211,311.3513 L406.2105,311.4321 L416,311.1133 " fill="#222222" style="stroke: #87CEEB; stroke-width: 3.0;"/><path d="M230,319.1133 L230,319.3935 L239.7895,318.5609 L249.5789,319.371 L259.3684,319.6462 L269.1579,318.1621 L278.9474,319.0097 L288.7368,318.5446 L298.5263,318.6019 L308.3158,319.0224 L318.1053,318.1915 L327.8947,319.8515 L337.6842,318.2729 L347.4737,318.8496 L357.2632,319.6892 L367.0526,318.9989 L376.8421,319.2043 L386.6316,319.0707 L396.4211,319.3513 L406.2105,319.4321 L416,319.1133 " fill="#222222" style="stroke: #87CEEB; stroke-width: 3.0;"/><!--class ComponenteSoftware--><polygon fill="#222222" points="467,273,467,273.2102,477.1818,272.5857,487.3636,273.1933,497.5455,273.3997,507.7273,272.2866,517.9091,272.9223,528.0909,272.5735,538.2727,272.6165,548.4545,272.9318,558.6364,272.3086,568.8182,273.5536,579,272.3697,589.1818,272.8022,599.3636,273.4319,609.5455,272.9142,619.7273,273.0682,629.9091,272.9681,640.0909,273.1785,650.2727,273.2391,660.4545,273.5857,670.6364,273.6711,680.8182,273.6793,691,273,691.2546,273,691.4636,283.8227,691.7022,294.6453,690.2788,305.468,691.6785,316.2906,691,327.1133,691,326.8168,680.8182,327.6471,670.6364,326.6183,660.4545,327.0448,650.2727,327.8549,640.0909,327.0645,629.9091,327.2186,619.7273,327.4519,609.5455,327.5295,599.3636,327.1094,589.1818,327.4005,579,326.5409,568.8182,327.3977,558.6364,327.6615,548.4545,327.5578,538.2727,327.7263,528.0909,326.6302,517.9091,326.4611,507.7273,326.4919,497.5455,327.0544,487.3636,326.9168,477.1818,327.7947,467,327.1133,466.8253,327.1133,466.6569,316.2906,467.2283,305.468,466.3332,294.6453,466.4809,283.8227,467,273" style="stroke: #87CEEB; stroke-width: 3.0;"/><text fill="#87CEEB" font-family="courier" font-size="20" font-weight="bold" lengthAdjust="spacingAndGlyphs" textLength="216" x="471" y="299.1074">ComponenteSoftware</text><path d="M468,311.1133 L468,311.3935 L478.0909,310.5609 L488.1818,311.371 L498.2727,311.6462 L508.3636,310.1621 L518.4545,311.0097 L528.5455,310.5446 L538.6364,310.6019 L548.7273,311.0224 L558.8182,310.1915 L568.9091,311.8515 L579,310.2729 L589.0909,310.8496 L599.1818,311.6892 L609.2727,310.9989 L619.3636,311.2043 L629.4545,311.0707 L639.5455,311.3513 L649.6364,311.4321 L659.7273,311.8942 L669.8182,312.008 L679.9091,312.019 L690,311.1133 " fill="#222222" style="stroke: #87CEEB; stroke-width: 3.0;"/><path d="M468,319.1133 L468,319.3935 L478.0909,318.5609 L488.1818,319.371 L498.2727,319.6462 L508.3636,318.1621 L518.4545,319.0097 L528.5455,318.5446 L538.6364,318.6019 L548.7273,319.0224 L558.8182,318.1915 L568.9091,319.8515 L579,318.2729 L589.0909,318.8496 L599.1818,319.6892 L609.2727,318.9989 L619.3636,319.2043 L629.4545,319.0707 L639.5455,319.3513 L649.6364,319.4321 L659.7273,319.8942 L669.8182,320.008 L679.9091,320.019 L690,319.1133 " fill="#222222" style="stroke: #87CEEB; stroke-width: 3.0;"/><!--class Paquete--><polygon fill="#222222" points="740,273,740,273.2102,750.2222,272.5857,760.4444,273.1933,770.6667,273.3997,780.8889,272.2866,791.1111,272.9223,801.3333,272.5735,811.5556,272.6165,821.7778,272.9318,832,273,831.3086,273,832.5536,283.8227,831.3697,294.6453,831.8022,305.468,832.4319,316.2906,832,327.1133,832,327.0275,821.7778,327.1815,811.5556,327.0813,801.3333,327.2918,791.1111,327.3524,780.8889,327.699,770.6667,327.7843,760.4444,327.7925,750.2222,327.3679,740,327.1133,740.4636,327.1133,740.7022,316.2906,739.2788,305.468,740.6785,294.6453,739.7035,283.8227,740,273" style="stroke: #87CEEB; stroke-width: 3.0;"/><text fill="#87CEEB" font-family="courier" font-size="20" font-weight="bold" lengthAdjust="spacingAndGlyphs" textLength="84" x="744" y="299.1074">Paquete</text><path d="M741,311.1133 L741,311.3935 L751,310.5609 L761,311.371 L771,311.6462 L781,310.1621 L791,311.0097 L801,310.5446 L811,310.6019 L821,311.0224 L831,311.1133 " fill="#222222" style="stroke: #87CEEB; stroke-width: 3.0;"/><path d="M741,319.1133 L741,319.3935 L751,318.5609 L761,319.371 L771,319.6462 L781,318.1621 L791,319.0097 L801,318.5446 L811,318.6019 L821,319.0224 L831,319.1133 " fill="#222222" style="stroke: #87CEEB; stroke-width: 3.0;"/><!--class Clase--><polygon fill="#222222" points="867,273,867,273.2102,876.7143,272.5857,886.4286,273.1933,896.1429,273.3997,905.8571,272.2866,915.5714,272.9223,925.2857,272.5735,935,273,934.6165,273,934.9318,283.8227,934.3086,294.6453,935.5536,305.468,934.3697,316.2906,935,327.1133,935,326.9155,925.2857,327.5452,915.5714,327.0275,905.8571,327.1815,896.1429,327.0813,886.4286,327.2918,876.7143,327.3524,867,327.1133,867.5857,327.1133,867.6711,316.2906,867.6793,305.468,867.2546,294.6453,867.4636,283.8227,867,273" style="stroke: #87CEEB; stroke-width: 3.0;"/><text fill="#87CEEB" font-family="courier" font-size="20" font-weight="bold" lengthAdjust="spacingAndGlyphs" textLength="60" x="871" y="299.1074">Clase</text><path d="M868,311.1133 L868,311.3935 L877.4286,310.5609 L886.8571,311.371 L896.2857,311.6462 L905.7143,310.1621 L915.1429,311.0097 L924.5714,310.5446 L934,311.1133 " fill="#222222" style="stroke: #87CEEB; stroke-width: 3.0;"/><path d="M868,319.1133 L868,319.3935 L877.4286,318.5609 L886.8571,319.371 L896.2857,319.6462 L905.7143,318.1621 L915.1429,319.0097 L924.5714,318.5446 L934,319.1133 " fill="#222222" style="stroke: #87CEEB; stroke-width: 3.0;"/><!--class Método--><polygon fill="#222222" points="970,273,970,273.2102,980,272.5857,990,273.1933,1000,273.3997,1010,272.2866,1020,272.9223,1030,272.5735,1040,272.6165,1050,273,1049.9318,273,1049.3086,283.8227,1050.5536,294.6453,1049.3697,305.468,1049.8022,316.2906,1050,327.1133,1050,327.5452,1040,327.0275,1030,327.1815,1020,327.0813,1010,327.2918,1000,327.3524,990,327.699,980,327.7843,970,327.1133,970.6793,327.1133,970.2546,316.2906,970.4636,305.468,970.7022,294.6453,969.2788,283.8227,970,273" style="stroke: #87CEEB; stroke-width: 3.0;"/><text fill="#87CEEB" font-family="courier" font-size="20" font-weight="bold" lengthAdjust="spacingAndGlyphs" textLength="72" x="974" y="299.1074">Método</text><path d="M971,311.1133 L971,311.3935 L980.75,310.5609 L990.5,311.371 L1000.25,311.6462 L1010,310.1621 L1019.75,311.0097 L1029.5,310.5446 L1039.25,310.6019 L1049,311.1133 " fill="#222222" style="stroke: #87CEEB; stroke-width: 3.0;"/><path d="M971,319.1133 L971,319.3935 L980.75,318.5609 L990.5,319.371 L1000.25,319.6462 L1010,318.1621 L1019.75,319.0097 L1029.5,318.5446 L1039.25,318.6019 L1049,319.1133 " fill="#222222" style="stroke: #87CEEB; stroke-width: 3.0;"/><!--link Usuario to PruebaAceptación--><path d="M106,99.046 L106.2802,99.046 L105.4476,109.9418 L106.2577,120.8376 L106.5329,131.7334 L105.0488,142.6292 L106,153.525 " fill="none" style="stroke: #A9A9A9; stroke-width: 2.0;"/><polygon fill="#A9A9A9" points="106,158.906,106.064,158.9345,106.6738,157.0499,107.6589,155.3322,108.5217,153.5601,108.9827,151.6094,110,149.906,109.9817,149.8877,109.0995,150.6055,108.3096,151.4156,107.5839,152.2899,106.637,152.943,106,153.906,106.1305,154.0365,105.0514,152.9574,104.3534,152.2594,103.7018,151.6078,102.7798,150.6858,102,149.906,102.0208,149.9152,102.7903,151.7017,103.6544,153.5302,104.4728,155.3384,105.3784,157.1853,106,158.906" style="stroke: #A9A9A9; stroke-width: 2.0;"/><!--link Probador to PruebaAceptación--><path d="M319.84,78.893 L319.9646,79.144 L310.3848,82.968 L301.5353,88.2635 L292.4479,93.0798 L282.5786,96.3202 L273.7457,101.6493 L264.3294,105.8025 L255.1452,110.4237 L246.1224,115.3702 L236.5434,119.1957 L228.0716,125.2525 L218.1603,128.4083 L209.207,133.4947 L200.3706,138.8166 L190.8541,142.7681 L181.7357,147.5219 L172.4667,151.972 L163.276,156.58 " fill="none" style="stroke: #A9A9A9; stroke-width: 2.0;"/><polygon fill="#A9A9A9" points="158.525,158.937,158.528,159.007,160.4871,158.7154,162.4637,158.8341,164.4346,158.8191,166.3869,158.3648,168.365,158.5187,168.3567,158.4942,167.2474,158.023,166.1797,157.6757,165.141,157.4144,164.0024,156.8566,163.0037,156.7141,163.1786,156.773,163.1655,155.5748,163.6631,154.5485,164.2229,153.5432,164.4203,152.4159,164.8083,151.3528,164.8258,151.3673,163.5434,152.8628,162.3408,154.4244,161.0997,155.9542,159.932,157.5447,158.525,158.937" style="stroke: #A9A9A9; stroke-width: 2.0;"/><!--link Probador to PruebaSistema--><path d="M353.298,99.046 L353.5623,99.1392 L349.5515,108.013 L347.0901,117.433 L344.1241,126.6752 L339.4989,135.3325 L337.0728,144.7649 L333.945,153.95 " fill="none" style="stroke: #A9A9A9; stroke-width: 2.0;"/><polygon fill="#A9A9A9" points="332.198,158.906,332.2489,158.9541,333.4503,157.3793,334.9502,156.0865,336.3529,154.7019,337.4358,153.0152,338.9614,151.7466,338.9502,151.7233,337.8796,152.1071,336.8654,152.6087,335.8904,153.1922,334.7803,153.4936,333.8595,154.1901,334.0259,154.2698,333.1813,153.079,332.8226,152.1209,332.5232,151.1912,331.8789,150.0963,331.416,149.0882,331.4386,149.09,331.5618,151.0509,331.7881,153.0201,331.9646,154.9852,332.2362,156.9579,332.198,158.906" style="stroke: #A9A9A9; stroke-width: 2.0;"/><!--link Probador to PruebaIntegración--><path d="M418.304,90.852 L418.4703,91.0776 L426.0024,96.325 L434.5095,102.8947 L442.6991,109.0338 L449.8446,113.7569 L458.3739,120.3568 L466.1242,125.9001 L474.1845,131.8639 L482.4603,138.1199 L489.9934,143.3688 L499.0048,150.6225 L506.593,155.946 " fill="none" style="stroke: #A9A9A9; stroke-width: 2.0;"/><polygon fill="#A9A9A9" points="510.701,158.975,510.7619,159.0096,509.6069,157.1946,508.809,155.5827,507.8947,153.9046,506.5982,152.009,505.8309,150.4145,505.8053,150.4106,505.8595,151.5119,506.0428,152.6327,506.3159,153.7671,506.2796,154.8547,506.6766,156.0078,506.7042,156.1903,505.5266,155.9692,504.4295,156.2809,503.3422,156.6576,502.1977,156.6561,501.0833,156.8535,501.0882,156.8757,503.0046,157.2674,504.9432,157.7602,506.8711,158.2042,508.8195,158.7414,510.701,158.975" style="stroke: #A9A9A9; stroke-width: 2.0;"/><!--link Probador to PruebaComponente--><path d="M418.109,75.08 L418.1435,75.1668 L421.104,76.1246 L424.2665,77.5913 L427.3633,78.8923 L430.2437,79.6482 L433.4236,81.1586 L433.4112,81.1264 L436.5706,82.2174 L439.7925,83.4709 L443.0578,84.8374 L446.1735,85.8145 L449.4988,87.337 L449.5839,87.5679 L452.6724,88.2801 L456.0095,89.6665 L459.377,91.135 L462.568,92.1251 L465.8517,93.3669 L465.8617,93.3955 L469.0767,94.4801 L472.3372,95.695 L475.5757,96.8471 L478.8561,98.1192 L482,99 L482.0934,99.2833 L487.1062,100.9387 L492.0588,102.4115 L497.0996,104.1518 L502.1444,105.9045 L507.0584,107.2601 L506.9616,106.9546 L512.2758,109.1712 L517.2712,110.3818 L522.5089,112.3572 L527.4971,113.5449 L532.6898,115.3783 L532.6809,115.3492 L537.9682,117.2783 L543.0475,118.5273 L548.2495,120.1776 L553.4618,121.8616 L558.5998,123.3025 L558.6524,123.4798 L563.7782,124.8364 L568.9939,126.4961 L574.0641,127.6655 L579.3513,129.5662 L584.4943,130.9806 L584.5618,131.2147 L589.6659,132.6465 L594.8036,134.1944 L599.7855,135.2024 L604.8816,136.6062 L610.0788,138.3607 L610.004,138.0948 L615.0679,139.7415 L620.0474,141.0886 L625.1492,142.8702 L630.0422,143.9099 L635.0593,145.3906 L634.9391,144.9493 L644.5337,148.2446 L653.6142,149.6534 L663.0603,152.4036 L672.8642,156.4665 L682.031,158.192 " fill="none" style="stroke: #A9A9A9; stroke-width: 2.0;"/><polygon fill="#A9A9A9" points="686.984,159.512,687.028,159.5665,685.3642,158.1677,683.9584,157.0885,682.4685,155.9052,680.7025,154.3796,679.3188,153.3278,679.2963,153.3148,679.7625,154.2357,680.3418,155.222,680.9996,156.2538,681.3866,157.1289,682.1529,158.2235,682.2453,158.3832,681.0685,158.6085,680.1616,159.3001,679.2876,160.0486,678.222,160.4661,677.2572,161.0576,677.2607,161.0801,679.2009,160.738,681.1572,160.4981,683.1058,160.209,685.0693,160.0139,686.984,159.512" style="stroke: #A9A9A9; stroke-width: 2.0;"/><!--link Desarrollador to PruebaUnitaria--><path d="M1010,99.046 L1010.2802,99.046 L1009.4476,109.9418 L1010.2577,120.8376 L1010.5329,131.7334 L1009.0488,142.6292 L1010,153.525 " fill="none" style="stroke: #A9A9A9; stroke-width: 2.0;"/><polygon fill="#A9A9A9" points="1010,158.906,1010.064,158.9345,1010.6738,157.0499,1011.6589,155.3322,1012.5217,153.5601,1012.9827,151.6094,1014,149.906,1013.9817,149.8877,1013.0995,150.6055,1012.3096,151.4156,1011.5839,152.2899,1010.637,152.943,1010,153.906,1010.1305,154.0365,1009.0514,152.9574,1008.3534,152.2594,1007.7018,151.6078,1006.7798,150.6858,1006,149.906,1006.0208,149.9152,1006.7903,151.7017,1007.6544,153.5302,1008.4728,155.3384,1009.3784,157.1853,1010,158.906" style="stroke: #A9A9A9; stroke-width: 2.0;"/><!--link Pruebas to PruebaAceptación--><path d="M487.322,79.621 L487.3564,79.7079 L484.6903,80.4637 L482.2257,81.7288 L479.6955,82.8281 L476.9496,83.382 L474.5023,84.6908 L474.49,84.6586 L471.8011,85.517 L469.1742,86.5381 L466.5904,87.6724 L463.8582,88.4168 L461.3339,89.7073 L461.4179,89.9385 L458.5872,90.4076 L456.0019,91.5519 L453.4466,92.7785 L450.717,93.5258 L448.079,94.5253 L448.0889,94.554 L445.4586,95.4068 L442.8731,96.3902 L440.266,97.3107 L437.7001,98.3513 L435,99 L435.0911,99.284 L429.6961,101.0174 L424.2424,102.5677 L418.8747,104.386 L413.5111,106.217 L408.0197,107.6497 L407.9263,107.3431 L402.5842,109.6202 L396.9345,110.8877 L391.5186,112.9227 L385.862,114.1673 L380.4027,116.0598 L380.3942,116.0306 L374.908,118.0019 L369.2231,119.2903 L363.6555,120.9816 L358.0977,122.7069 L352.4689,124.188 L352.5187,124.3661 L346.8824,125.7471 L341.3311,127.4325 L335.6421,128.6254 L330.1585,130.5529 L324.5384,131.992 L324.6018,132.2273 L319.0683,133.6703 L313.5663,135.2301 L307.9181,136.2473 L302.3771,137.6622 L296.931,139.4296 L296.8614,139.1624 L291.5316,140.8101 L286.1233,142.1567 L280.8289,143.9401 L275.3401,144.9778 L269.9669,146.4587 L269.9295,146.3109 L264.7915,147.8727 L259.4938,148.8026 L254.3097,150.1819 L249.2368,152.0009 L243.9659,153.0369 L244.0121,153.2249 L239.1003,154.5709 L234.0445,155.3321 L229.1691,156.8257 L224.2543,158.1598 L219.248,159.122 " fill="none" style="stroke: #A9A9A9; stroke-width: 2.0;"/><polygon fill="#A9A9A9" points="206.289,162.25,206.3016,162.3189,208.2015,162.4695,210.1755,163.0241,212.1254,163.4471,213.9959,163.4376,215.9763,164.0268,215.9627,164.0047,214.9368,163.3155,213.9789,162.7378,213.0683,162.2375,211.9946,161.4703,211.1494,161.0769,211.3069,161.1732,211.5602,160.002,212.2731,159.1118,213.0422,158.2559,213.485,157.2006,214.0993,156.2501,214.1132,156.2681,212.5308,157.4416,211.0115,158.6973,209.4617,159.9133,207.97,161.2048,206.289,162.25" style="stroke: #A9A9A9; stroke-width: 2.0;"/><path d="M211.1494,161.0769 L211.1714,161.1677 L212.6616,160.5223 L214.2804,160.4093 L215.8574,160.1228 L217.2967,159.2664 L218.9265,159.199 " fill="#A9A9A9" style="stroke: #A9A9A9; stroke-width: 2.0;"/><polygon fill="#A9A9A9" points="499.764,74.546,499.778,74.6147,498.3232,74.1231,496.9503,74.0341,495.5507,73.814,494.0635,73.1629,492.6976,73.1084,492.6762,73.0939,491.771,74.2227,490.9739,75.4247,490.2519,76.6776,489.271,77.7551,488.6528,79.0783,488.6896,79.2591,490.0242,79.1599,491.4662,79.5887,492.9213,80.0819,494.3002,80.2003,495.7192,80.5159,495.738,80.5286,496.5193,79.3159,497.3864,78.1613,498.2121,76.9787,499.1167,75.8495,499.764,74.546" style="stroke: #A9A9A9; stroke-width: 2.0;"/><!--link Pruebas to PruebaSistema--><path d="M490.044,87.246 L490.1855,87.4879 L481.2311,91.7632 L473.1063,97.4564 L464.7114,102.6879 L455.4279,106.401 L447.3221,112.1266 L438.5533,116.7192 L430.0483,121.7627 L421.7267,127.1196 L412.7731,131.3964 L405.0776,137.8231 L395.7464,141.4547 L387.5037,146.9464 L379.103,152.168 " fill="none" style="stroke: #A9A9A9; stroke-width: 2.0;"/><polygon fill="#A9A9A9" points="367.514,158.95,367.5218,159.0196,369.4563,158.5941,371.4364,158.5768,373.4016,158.4265,375.318,157.8391,377.302,157.8568,377.2954,157.8317,376.1715,157.4328,375.0806,157.1603,374.0127,156.9756,372.8656,156.4882,371.8294,156.4247,372.008,156.4714,371.9126,155.277,372.3385,154.219,372.828,153.1776,372.9474,152.0394,373.2615,150.9521,373.28,150.9654,372.1034,152.5455,371.0108,154.186,369.8777,155.7974,368.822,157.4644,367.514,158.95" style="stroke: #A9A9A9; stroke-width: 2.0;"/><path d="M371.8294,156.4247 L371.8766,156.5053 L373.1173,155.4576 L374.6346,154.8826 L376.0619,154.1536 L377.1929,152.9185 L378.734,152.384 " fill="#A9A9A9" style="stroke: #A9A9A9; stroke-width: 2.0;"/><polygon fill="#A9A9A9" points="501.409,80.595,501.4131,80.6649,499.9612,80.3729,498.5333,80.4908,497.0975,80.4752,495.6361,80.0206,494.2102,80.1737,494.1869,80.1624,493.4509,81.408,492.8322,82.7109,492.2952,84.0535,491.4769,85.2592,491.0526,86.6567,491.0633,86.8409,492.48,86.5312,493.9282,86.7594,495.3802,87.0532,496.8099,86.9652,498.2513,87.078,498.2718,87.088,498.8733,85.7767,499.5679,84.5109,500.2176,83.2231,500.953,81.9771,501.409,80.595" style="stroke: #A9A9A9; stroke-width: 2.0;"/><!--link Pruebas to PruebaIntegración--><path d="M546,93.724 L546.2802,93.724 L545.4476,104.1484 L546.2577,114.5728 L546.5329,124.9972 L545.0488,135.4216 L546,145.846 " fill="none" style="stroke: #A9A9A9; stroke-width: 2.0;"/><polygon fill="#A9A9A9" points="546,158.95,546.064,158.9785,546.6738,157.0939,547.6589,155.3762,548.5217,153.6041,548.9827,151.6534,550,149.95,549.9817,149.9317,549.0995,150.6495,548.3096,151.4596,547.5839,152.3339,546.637,152.987,546,153.95,546.1305,154.0805,545.0514,153.0014,544.3534,152.3034,543.7018,151.6518,542.7798,150.7298,542,149.95,542.0208,149.9592,542.7903,151.7457,543.6544,153.5742,544.4728,155.3824,545.3784,157.2293,546,158.95" style="stroke: #A9A9A9; stroke-width: 2.0;"/><path d="M546,153.95 L546.0934,153.95 L545.8159,152.35 L546.0859,150.75 L546.1776,149.15 L545.6829,147.55 L546,145.95 " fill="#A9A9A9" style="stroke: #A9A9A9; stroke-width: 2.0;"/><polygon fill="#A9A9A9" points="546,80.595,546.0583,80.6339,545.0851,81.7184,544.4536,83.0307,543.7109,84.2689,542.6021,85.2631,542,86.595,541.9784,86.5806,542.6817,87.7161,543.4936,88.9241,544.3811,90.1824,545.0082,91.2672,546,92.595,546.1536,92.6974,546.6252,91.2785,547.5451,90.1584,548.5198,89.0749,549.1762,87.7791,550,86.595,550.0189,86.6076,549.1911,85.3891,548.4495,84.228,547.6663,83.0392,546.9624,81.9033,546,80.595" style="stroke: #A9A9A9; stroke-width: 2.0;"/><!--link Pruebas to PruebaComponente--><path d="M603.715,85.752 L603.8484,85.9984 L612.2633,90.0376 L621.4604,95.5213 L630.4028,100.5347 L638.5075,104.001 L647.7224,109.5177 L656.3124,113.8801 L665.151,118.7019 L674.1626,123.8429 L682.5783,127.8836 L692.1801,134.1147 L700.2398,137.4979 L709.3257,142.7764 L718.5369,148.2861 L727.074,152.551 " fill="none" style="stroke: #A9A9A9; stroke-width: 2.0;"/><polygon fill="#A9A9A9" points="738.911,158.96,738.9665,159.0027,737.5997,157.3152,736.5582,155.8782,735.4108,154.3596,733.915,152.5726,732.9014,151.1571,732.8766,151.1497,733.0877,152.201,733.424,153.2895,733.8473,154.4039,733.9708,155.4291,734.5142,156.5792,734.5668,156.7561,733.3699,156.7004,732.3266,157.1611,731.302,157.6849,730.1684,157.842,729.0921,158.192,729.0939,158.2146,731.0551,158.335,733.0243,158.5585,734.9897,158.7323,736.9625,159.001,738.911,158.96" style="stroke: #A9A9A9; stroke-width: 2.0;"/><path d="M734.5142,156.5792 L734.5587,156.6613 L733.0196,155.6554 L731.7412,155.1311 L730.378,154.4499 L728.7355,153.253 L727.4795,152.77 " fill="#A9A9A9" style="stroke: #A9A9A9; stroke-width: 2.0;"/><polygon fill="#A9A9A9" points="592.182,79.507,592.2439,79.5398,592.7343,80.7173,593.5877,82.0868,594.3229,83.3938,594.6693,84.4952,595.5538,85.8812,595.5515,85.8554,596.9769,85.6075,598.4144,85.4896,599.8602,85.4621,601.2773,85.1231,602.7346,85.2204,602.8977,85.3067,601.8745,83.8473,601.3276,82.6399,600.8388,81.4632,600.0119,80.1076,599.3628,78.8462,599.3648,78.8688,597.9256,78.9677,596.4959,79.1698,595.0616,79.322,593.636,79.5692,592.182,79.507" style="stroke: #A9A9A9; stroke-width: 2.0;"/><!--link Pruebas to PruebaUnitaria--><path d="M604.949,71.079 L605.0249,71.3488 L614.3097,73.222 L624.0393,76.6767 L633.624,79.6163 L642.7325,80.8625 L652.4722,84.3532 L661.8565,86.5803 L671.3823,89.3102 L681.0064,92.3898 L690.2917,94.2646 L700.2514,98.5374 L709.3342,99.6926 L719.0006,102.9225 L728.7382,106.4056 L738.0615,108.4158 L747.6274,111.2883 L757.1015,113.8345 L766.6877,116.7794 L776.2198,119.532 L785.8552,122.6516 L795.3962,125.4359 L804.9095,128.1213 L814.2664,130.251 L823.8521,133.194 L833.4485,136.1751 L842.4449,137.0229 L852.4604,141.4942 L861.6187,142.9175 L871.4287,146.658 L880.5675,148.0123 L890.2318,151.2345 L900.0345,154.9491 L909.277,156.672 " fill="none" style="stroke: #A9A9A9; stroke-width: 2.0;"/><polygon fill="#A9A9A9" points="921.817,160.198,921.8617,160.2519,920.2127,158.8342,918.8258,157.7326,917.3536,156.528,915.6006,154.985,914.2363,153.9105,914.2137,153.8978,914.6658,154.8277,915.2318,155.8214,915.877,156.8596,916.2493,157.7447,917.0038,158.8441,917.0941,159.0051,915.9143,159.2144,914.9981,159.8936,914.114,160.6302,913.0429,161.0332,912.0701,161.6116,912.0734,161.6341,914.018,161.3184,915.9774,161.1051,917.9297,160.8423,919.8956,160.6739,921.817,160.198" style="stroke: #A9A9A9; stroke-width: 2.0;"/><path d="M917.0038,158.8441 L917.0291,158.9341 L915.4136,158.2338 L913.9463,158.0608 L912.4308,157.7161 L910.7565,156.8068 L909.302,156.679 " fill="#A9A9A9" style="stroke: #A9A9A9; stroke-width: 2.0;"/><polygon fill="#A9A9A9" points="592.186,67.49,592.2392,67.5356,593.0197,68.4952,594.112,69.722,595.1028,70.8618,595.7597,71.7154,596.8788,72.9652,596.8708,72.9406,598.2067,72.3848,599.5829,71.9532,600.9871,71.608,602.2948,70.9652,603.7377,70.7393,603.8778,70.8594,602.6397,69.5075,601.8106,68.5063,601.0314,67.5478,599.9618,66.3405,599.0449,65.2641,599.052,65.2857,597.6699,65.6991,596.3197,66.211,594.9542,66.6754,593.6181,67.2305,592.186,67.49" style="stroke: #A9A9A9; stroke-width: 2.0;"/><!--link PruebaAceptación to SistemaSoftware--><path d="M156.603,213.118 L156.7315,213.367 L164.9006,217.0405 L173.8232,222.1738 L182.5004,226.8318 L190.3707,229.9263 L199.3105,235.0929 L207.6482,239.0931 L216.2255,243.5574 L224.9693,248.3444 L233.1392,252.0194 L242.4516,257.908 L250.2786,260.9186 L259.0941,265.8445 L267.766,270.4922 " fill="none" style="stroke: #A9A9A9; stroke-width: 2.0;"/><polygon fill="#A9A9A9" points="272.317,272.8409,272.3716,272.8847,270.9766,271.2181,269.9018,269.8085,268.7228,268.3152,267.2007,266.5466,266.1535,265.159,266.1288,265.1512,266.3621,266.1936,266.7198,267.2757,267.164,268.3855,267.3101,269.4001,267.8737,270.548,267.9299,270.7238,266.7321,270.6919,265.6981,271.1733,264.6842,271.7173,263.5539,271.897,262.4848,272.2683,262.4861,272.291,264.4506,272.3722,266.4211,272.5567,268.3888,272.6914,270.3619,272.9213,272.317,272.8409" style="stroke: #A9A9A9; stroke-width: 2.0;"/><text fill="#A9A9A9" font-family="courier" font-size="20" lengthAdjust="spacingAndGlyphs" textLength="12" x="248.3212" y="258.1024">1</text><!--link PruebaSistema to SistemaSoftware--><path d="M323,213.259 L323.2802,213.259 L322.4476,224.1506 L323.2577,235.0422 L323.5329,245.9337 L322.0488,256.8253 L323,267.7169 " fill="none" style="stroke: #A9A9A9; stroke-width: 2.0;"/><polygon fill="#A9A9A9" points="323,272.9055,323.064,272.934,323.6738,271.0494,324.6589,269.3317,325.5217,267.5596,325.9827,265.6089,327,263.9055,326.9817,263.8872,326.0995,264.605,325.3096,265.4151,324.5839,266.2894,323.637,266.9425,323,267.9055,323.1305,268.036,322.0514,266.9569,321.3534,266.2589,320.7018,265.6073,319.7798,264.6853,319,263.9055,319.0208,263.9147,319.7903,265.7012,320.6544,267.5297,321.4728,269.3379,322.3784,271.1848,323,272.9055" style="stroke: #A9A9A9; stroke-width: 2.0;"/><text fill="#A9A9A9" font-family="courier" font-size="20" lengthAdjust="spacingAndGlyphs" textLength="12" x="308.6219" y="257.9224">1</text><!--link PruebaIntegración to ComponenteSoftware--><path d="M553.737,213.259 L554.0058,213.3382 L555.8814,222.1792 L559.3329,231.4845 L562.2712,240.6386 L563.5219,249.2954 L567.0093,258.6113 L569.783,267.7169 " fill="none" style="stroke: #A9A9A9; stroke-width: 2.0;"/><polygon fill="#A9A9A9" points="571.311,272.9055,571.3805,272.9147,571.4326,270.9346,571.892,269.0085,572.2187,267.0648,572.1095,265.0634,572.6038,263.1419,572.581,263.1295,571.9377,264.0674,571.409,265.0677,570.9601,266.1115,570.2365,267.0057,569.8976,268.1094,569.9859,268.2715,568.8036,267.3837,567.879,266.9691,566.9859,266.6122,565.9099,265.9194,564.93,265.4033,564.9474,265.418,566.1981,266.8968,567.5278,268.4427,568.8193,269.9563,570.1835,271.5315,571.311,272.9055" style="stroke: #A9A9A9; stroke-width: 2.0;"/><text fill="#A9A9A9" font-family="courier" font-size="20" lengthAdjust="spacingAndGlyphs" textLength="12" x="555.4191" y="257.9224">*</text><!--link PruebaComponente to ComponenteSoftware--><path d="M738.496,213.118 L738.6289,213.3647 L729.3882,217.3947 L720.9263,222.8712 L712.2109,227.8766 L702.6614,231.3331 L694.2173,236.8425 L685.1509,241.1962 L676.3322,246.0098 L667.6856,251.1431 L658.4457,255.1746 L650.3868,261.3994 L640.7925,264.7726 L632.345,270.2757 " fill="none" style="stroke: #A9A9A9; stroke-width: 2.0;"/><polygon fill="#A9A9A9" points="627.581,272.8409,627.5863,272.9108,629.5347,272.5543,631.5141,272.6075,633.4835,272.5272,635.4196,272.0084,637.4017,272.0967,637.3943,272.0719,636.2772,271.6353,635.1977,271.3239,634.1443,271.0994,633.0009,270.5752,631.9835,270.4708,632.1603,270.5238,632.1075,269.3267,632.5708,268.2846,633.097,267.2613,633.2569,266.128,633.6095,265.0526,633.6275,265.0665,632.3954,266.6037,631.2451,268.2043,630.0554,269.7744,628.9411,271.4027,627.581,272.8409" style="stroke: #A9A9A9; stroke-width: 2.0;"/><text fill="#A9A9A9" font-family="courier" font-size="20" lengthAdjust="spacingAndGlyphs" textLength="12" x="622.5074" y="258.1024">1</text><!--link PruebaComponente to Paquete--><path d="M786.766,213.259 L787.0462,213.2615 L786.1162,224.1456 L786.8289,235.0445 L787.0067,245.9385 L785.4252,256.8168 L786.279,267.7169 " fill="none" style="stroke: #A9A9A9; stroke-width: 2.0;"/><polygon fill="#A9A9A9" points="786.233,272.9055,786.2968,272.9345,786.9234,271.0555,787.9239,269.3467,788.8026,267.5824,789.281,265.636,790.3136,263.9417,790.2954,263.9233,789.4068,264.6331,788.6097,265.4361,787.8762,266.3039,786.9235,266.9485,786.2779,267.9057,786.4095,268.035,785.3352,266.9513,784.6452,266.2452,784.0022,265.5852,783.0863,264.6571,782.3139,263.87,782.3348,263.879,783.088,265.6728,783.9361,267.5079,784.7385,269.323,785.6283,271.1761,786.233,272.9055" style="stroke: #A9A9A9; stroke-width: 2.0;"/><text fill="#A9A9A9" font-family="courier" font-size="20" lengthAdjust="spacingAndGlyphs" textLength="12" x="771.9007" y="257.9224">1</text><!--link PruebaUnitaria to Clase--><path d="M984.444,213.259 L984.6448,213.4545 L977.2624,219.8463 L971.0572,227.3839 L964.4687,234.5484 L956.6193,240.4859 L950.441,248.0496 L943.322,254.6978 L936.5773,261.7104 L930.158,269.0396 " fill="none" style="stroke: #A9A9A9; stroke-width: 2.0;"/><polygon fill="#A9A9A9" points="926.396,272.9055,926.422,272.9705,928.1734,272.0454,930.0774,271.5015,931.9318,270.8335,933.6227,269.7572,935.5398,269.246,935.5394,269.2201,934.4066,269.1192,933.2755,269.1488,932.1457,269.2692,931.0116,269.0768,929.8834,269.3225,930.068,269.325,929.6581,268.1884,929.7869,267.0591,929.9815,265.9306,929.7937,264.797,929.807,263.6662,929.8283,263.674,929.1148,265.5103,928.4984,267.3825,927.8352,269.2374,927.2613,271.1252,926.396,272.9055" style="stroke: #A9A9A9; stroke-width: 2.0;"/><text fill="#A9A9A9" font-family="courier" font-size="20" lengthAdjust="spacingAndGlyphs" textLength="12" x="917.0177" y="257.9224">1</text><!--link PruebaUnitaria to Método--><path d="M1010,213.259 L1010.2802,213.259 L1009.4476,224.1506 L1010.2577,235.0422 L1010.5329,245.9337 L1009.0488,256.8253 L1010,267.7169 " fill="none" style="stroke: #A9A9A9; stroke-width: 2.0;"/><polygon fill="#A9A9A9" points="1010,272.9055,1010.064,272.934,1010.6738,271.0494,1011.6589,269.3317,1012.5217,267.5596,1012.9827,265.6089,1014,263.9055,1013.9817,263.8872,1013.0995,264.605,1012.3096,265.4151,1011.5839,266.2894,1010.637,266.9425,1010,267.9055,1010.1305,268.036,1009.0514,266.9569,1008.3534,266.2589,1007.7018,265.6073,1006.7798,264.6853,1006,263.9055,1006.0208,263.9147,1006.7903,265.7012,1007.6544,267.5297,1008.4728,269.3379,1009.3784,271.1848,1010,272.9055" style="stroke: #A9A9A9; stroke-width: 2.0;"/><text fill="#A9A9A9" font-family="courier" font-size="20" lengthAdjust="spacingAndGlyphs" textLength="12" x="995.6219" y="257.9224">1</text><!--link SistemaSoftware to ComponenteSoftware--><path d="M430.425,300 L430.425,300.0934 L435.0918,299.8159 L439.7586,300.0859 L444.4254,300.1776 L449.0922,299.6829 L453.759,300 " fill="none" style="stroke: #A9A9A9; stroke-width: 2.0;"/><polygon fill="#A9A9A9" points="466.849,300,466.8775,300.064,464.9929,299.0738,463.2752,298.4589,461.5031,297.7217,459.5524,296.5827,457.849,296,457.8307,295.9817,458.5485,296.6995,459.3586,297.5096,460.2329,298.3839,460.886,299.037,461.849,300,461.9795,300.1305,460.9004,300.6514,460.2024,301.5534,459.5508,302.5018,458.6288,303.1798,457.849,304,457.8582,304.0208,459.6447,303.1903,461.4732,302.4544,463.2814,301.6728,465.1283,300.9784,466.849,300" style="stroke: #A9A9A9; stroke-width: 2.0;"/><path d="M461.849,300 L461.849,300.0934 L460.249,299.8158 L458.649,300.0859 L457.049,300.1776 L455.449,299.6829 L453.849,299.9999 " fill="#A9A9A9" style="stroke: #A9A9A9; stroke-width: 2.0;"/><polygon fill="#A9A9A9" points="417.25,300,417.2889,300.0583,418.3734,300.6851,419.6857,301.6536,420.9239,302.5109,421.9181,303.0021,423.25,304,423.2356,303.9784,424.3711,303.0817,425.5791,302.2936,426.8374,301.5811,427.9222,300.6082,429.25,300,429.3524,300.1536,427.9335,299.0252,426.8134,298.3451,425.7299,297.7198,424.4341,296.7762,423.25,296,423.2626,296.0189,422.0441,296.7911,420.883,297.6495,419.6942,298.4663,418.5583,299.3624,417.25,300" style="stroke: #A9A9A9; stroke-width: 2.0;"/><!--link ComponenteSoftware to Paquete--><path d="M704.632,300 L704.632,300.0934 L709.0288,299.8159 L713.4256,300.0859 L717.8224,300.1776 L722.2192,299.6829 L726.616,300 " fill="none" style="stroke: #A9A9A9; stroke-width: 2.0;"/><polygon fill="#A9A9A9" points="739.806,300,739.8345,300.064,737.9499,299.0738,736.2322,298.4589,734.4601,297.7217,732.5094,296.5827,730.806,296,730.7877,295.9817,731.5055,296.6995,732.3156,297.5096,733.1899,298.3839,733.843,299.037,734.806,300,734.9365,300.1305,733.8574,300.6514,733.1594,301.5534,732.5078,302.5018,731.5858,303.1798,730.806,304,730.8152,304.0208,732.6017,303.1903,734.4302,302.4544,736.2384,301.6728,738.0853,300.9784,739.806,300" style="stroke: #A9A9A9; stroke-width: 2.0;"/><path d="M734.806,300 L734.806,300.0934 L733.206,299.8158 L731.606,300.0859 L730.006,300.1776 L728.406,299.6829 L726.806,299.9999 " fill="#A9A9A9" style="stroke: #A9A9A9; stroke-width: 2.0;"/><polygon fill="#A9A9A9" points="691.395,300,691.4339,300.0583,692.5184,300.6851,693.8307,301.6536,695.0689,302.5109,696.0631,303.0021,697.395,304,697.3806,303.9784,698.5161,303.0817,699.7241,302.2936,700.9824,301.5811,702.0672,300.6082,703.395,300,703.4974,300.1536,702.0785,299.0252,700.9584,298.3451,699.8749,297.7198,698.5791,296.7762,697.395,296,697.4076,296.0189,696.1891,296.7911,695.028,297.6495,693.8392,298.4663,692.7033,299.3624,691.395,300" style="stroke: #A9A9A9; stroke-width: 2.0;"/><!--link Paquete to Clase--><path d="M845.528,300 L845.528,300.0934 L847.198,299.8159 L848.868,300.0859 L850.538,300.1776 L852.208,299.6829 L853.878,300 " fill="none" style="stroke: #A9A9A9; stroke-width: 2.0;"/><polygon fill="#A9A9A9" points="866.903,300,866.9315,300.064,865.0469,299.0738,863.3292,298.4589,861.5571,297.7217,859.6064,296.5827,857.903,296,857.8847,295.9817,858.6025,296.6995,859.4126,297.5096,860.2869,298.3839,860.94,299.037,861.903,300,862.0335,300.1305,860.9544,300.6514,860.2564,301.5534,859.6048,302.5018,858.6828,303.1798,857.903,304,857.9122,304.0208,859.6987,303.1903,861.5272,302.4544,863.3354,301.6728,865.1823,300.9784,866.903,300" style="stroke: #A9A9A9; stroke-width: 2.0;"/><path d="M861.903,300 L861.903,300.0934 L860.303,299.8158 L858.703,300.0859 L857.103,300.1776 L855.503,299.6829 L853.903,299.9999 " fill="#A9A9A9" style="stroke: #A9A9A9; stroke-width: 2.0;"/><polygon fill="#A9A9A9" points="832.27,300,832.3089,300.0583,833.3934,300.6851,834.7057,301.6536,835.9439,302.5109,836.9381,303.0021,838.27,304,838.2556,303.9784,839.3911,303.0817,840.5991,302.2936,841.8574,301.5811,842.9422,300.6082,844.27,300,844.3724,300.1536,842.9535,299.0252,841.8334,298.3451,840.7499,297.7198,839.4541,296.7762,838.27,296,838.2826,296.0189,837.0641,296.7911,835.903,297.6495,834.7142,298.4663,833.5783,299.3624,832.27,300" style="stroke: #A9A9A9; stroke-width: 2.0;"/><!--link Clase to Método--><path d="M948.125,300 L948.125,300.0934 L949.826,299.8159 L951.527,300.0859 L953.228,300.1776 L954.929,299.6829 L956.63,300 " fill="none" style="stroke: #A9A9A9; stroke-width: 2.0;"/><polygon fill="#A9A9A9" points="969.897,300,969.9255,300.064,968.0409,299.0738,966.3232,298.4589,964.5511,297.7217,962.6004,296.5827,960.897,296,960.8787,295.9817,961.5965,296.6995,962.4066,297.5096,963.2809,298.3839,963.934,299.037,964.897,300,965.0275,300.1305,963.9484,300.6514,963.2504,301.5534,962.5988,302.5018,961.6768,303.1798,960.897,304,960.9062,304.0208,962.6927,303.1903,964.5212,302.4544,966.3294,301.6728,968.1763,300.9784,969.897,300" style="stroke: #A9A9A9; stroke-width: 2.0;"/><path d="M964.897,300 L964.897,300.0934 L963.297,299.8158 L961.697,300.0859 L960.097,300.1776 L958.497,299.6829 L956.897,299.9999 " fill="#A9A9A9" style="stroke: #A9A9A9; stroke-width: 2.0;"/><polygon fill="#A9A9A9" points="935.063,300,935.1019,300.0583,936.1864,300.6851,937.4987,301.6536,938.7369,302.5109,939.7311,303.0021,941.063,304,941.0486,303.9784,942.1841,303.0817,943.3921,302.2936,944.6504,301.5811,945.7352,300.6082,947.063,300,947.1654,300.1536,945.7465,299.0252,944.6264,298.3451,943.5429,297.7198,942.2471,296.7762,941.063,296,941.0756,296.0189,939.8571,296.7911,938.696,297.6495,937.5072,298.4663,936.3713,299.3624,935.063,300" style="stroke: #A9A9A9; stroke-width: 2.0;"/><!--
@startuml
allowmixing
skinparam backgroundColor #222222
skinparam handwritten true
skinparam shadowing false
skinparam padding 1
hide circle
hide stereotype
skinparam arrow {
    Thickness 2
    Color #DarkGrey
    FontSize 20
    FontName courier
    FontStyle normal
    FontColor #DarkGrey
}
skinparam actor {
    BorderThickness 3
    BorderColor #DarkGrey
    BackgroundColor #222222
    FontSize 20
    FontName courier
    FontStyle bold
    FontColor #DarkGrey
}
skinparam class {
    BorderThickness 3
    BorderColor<<a>> #1E90FF
    BorderColor<<b>> #87ceeb
    BackgroundColor #222222
    FontSize 20
    FontName courier
    FontStyle bold
    FontColor<<a>> #1E90FF
    FontColor<<b>> #87ceeb
}
actor Usuario
actor Probador
actor Desarrollador

class Pruebas <<a>>
class PruebaAceptación <<a>>
class PruebaSistema <<a>>
class PruebaIntegración <<a>>
class PruebaComponente <<a>>
class PruebaUnitaria <<a>>

class SistemaSoftware <<b>>
class ComponenteSoftware <<b>>
class Paquete <<b>>
class Clase <<b>>
class Método <<b>>

Usuario -down-> PruebaAceptación
Probador -down-> PruebaAceptación
Probador -down-> PruebaSistema
Probador -down-> PruebaIntegración
Probador -down-> PruebaComponente
Desarrollador -down-> PruebaUnitaria

Pruebas *-down-> PruebaAceptación
Pruebas *-down-> PruebaSistema
Pruebas *-down-> PruebaIntegración
Pruebas *-down-> PruebaComponente
Pruebas *-down-> PruebaUnitaria


PruebaAceptación -down-> "1" SistemaSoftware
PruebaSistema -down-> "1" SistemaSoftware
PruebaIntegración -down-> "*" ComponenteSoftware
PruebaComponente -down-> "1" ComponenteSoftware
PruebaComponente -down-> "1" Paquete
PruebaUnitaria -down-> "1" Clase
PruebaUnitaria -down-> "1" Método

SistemaSoftware *-right-> ComponenteSoftware
ComponenteSoftware *-right-> Paquete
Paquete *-right-> Clase
Clase *-right-> Método
@enduml

PlantUML version 1.2019.05(Sat Apr 20 18:45:36 CEST 2019)
(GPL source distribution)
Java Runtime: Java(TM) SE Runtime Environment
JVM: Java HotSpot(TM) 64-Bit Server VM
Java Version: 11.0.8+10-LTS
Operating System: Windows 10
OS Version: 10.0
Default Encoding: windows-1252
Language: es
Country: ES
--></g></svg>