<?xml version="1.0" encoding="UTF-8" standalone="no"?><svg xmlns="http://www.w3.org/2000/svg" xmlns:xlink="http://www.w3.org/1999/xlink" contentScriptType="application/ecmascript" contentStyleType="text/css" height="421px" preserveAspectRatio="none" style="width:303px;height:421px;background:#222222;" version="1.1" viewBox="0 0 303 421" width="303px" zoomAndPan="magnify"><defs/><g><!--class HTTP--><polygon fill="#222222" points="124.85,8,124.85,8.2102,134.1833,7.5857,143.5167,8.1933,152.85,8.3997,162.1833,7.2866,171.5167,7.9223,180.85,8,180.4235,8,180.4665,18.8227,180.7818,29.6453,180.1586,40.468,181.4036,51.2906,180.85,62.1133,180.85,61.483,171.5167,61.9155,162.1833,62.5452,152.85,62.0275,143.5167,62.1815,134.1833,62.0813,124.85,62.1133,125.0285,62.1133,125.0891,51.2906,125.4357,40.468,125.5211,29.6453,125.5293,18.8227,124.85,8" style="stroke: #A9A9A9; stroke-width: 3.0;"/><text fill="#A9A9A9" font-family="courier" font-size="20" font-weight="bold" lengthAdjust="spacingAndGlyphs" textLength="48" x="128.85" y="34.1074">HTTP</text><path d="M125.85,46.1133 L125.85,46.3935 L136.65,45.5609 L147.45,46.371 L158.25,46.6462 L169.05,45.1621 L179.85,46.1133 " fill="#222222" style="stroke: #A9A9A9; stroke-width: 3.0;"/><path d="M125.85,54.1133 L125.85,54.3935 L136.65,53.5609 L147.45,54.371 L158.25,54.6462 L169.05,53.1621 L179.85,54.1133 " fill="#222222" style="stroke: #A9A9A9; stroke-width: 3.0;"/><!--class HTML--><polygon fill="#222222" points="63.85,172,63.85,172.2102,73.1833,171.5857,82.5167,172.1933,91.85,172.3997,101.1833,171.2866,110.5167,171.9223,119.85,172,119.4235,172,119.4665,182.8227,119.7818,193.6453,119.1586,204.468,120.4036,215.2906,119.85,226.1133,119.85,225.483,110.5167,225.9155,101.1833,226.5452,91.85,226.0275,82.5167,226.1815,73.1833,226.0813,63.85,226.1133,64.0285,226.1133,64.0891,215.2906,64.4357,204.468,64.5211,193.6453,64.5293,182.8227,63.85,172" style="stroke: #A9A9A9; stroke-width: 3.0;"/><text fill="#A9A9A9" font-family="courier" font-size="20" font-weight="bold" lengthAdjust="spacingAndGlyphs" textLength="48" x="67.85" y="198.1074">HTML</text><path d="M64.85,210.1133 L64.85,210.3935 L75.65,209.5609 L86.45,210.371 L97.25,210.6462 L108.05,209.1621 L118.85,210.1133 " fill="#222222" style="stroke: #A9A9A9; stroke-width: 3.0;"/><path d="M64.85,218.1133 L64.85,218.3935 L75.65,217.5609 L86.45,218.371 L97.25,218.6462 L108.05,217.1621 L118.85,218.1133 " fill="#222222" style="stroke: #A9A9A9; stroke-width: 3.0;"/><!--class URL--><polygon fill="#222222" points="151.85,356,151.85,356.0701,160.65,355.8619,169.45,356.0644,178.25,356.1332,187.05,355.7622,195.85,356,195.7723,356,195.4235,366.8227,195.4665,377.6453,195.7818,388.468,195.1586,399.2906,195.85,410.1133,195.85,410.2978,187.05,409.9032,178.25,410.0474,169.45,410.2573,160.65,410.0847,151.85,410.1133,151.9182,410.1133,151.8181,399.2906,152.0285,388.468,152.0891,377.6453,152.4357,366.8227,151.85,356" style="stroke: #A9A9A9; stroke-width: 3.0;"/><text fill="#A9A9A9" font-family="courier" font-size="20" font-weight="bold" lengthAdjust="spacingAndGlyphs" textLength="36" x="155.85" y="382.1074">URL</text><path d="M152.85,394.1133 L152.85,394.2067 L161.25,393.9291 L169.65,394.1992 L178.05,394.2909 L186.45,393.7962 L194.85,394.1133 " fill="#222222" style="stroke: #A9A9A9; stroke-width: 3.0;"/><path d="M152.85,402.1133 L152.85,402.2067 L161.25,401.9291 L169.65,402.1992 L178.05,402.2909 L186.45,401.7962 L194.85,402.1133 " fill="#222222" style="stroke: #A9A9A9; stroke-width: 3.0;"/><!--link HTTP to URL--><path d="M183.96,73.06 L184.0421,73.1045 L184.8033,74.8288 L186.046,76.8139 L187.132,78.7141 L187.7022,80.335 L188.9863,82.3425 L188.9542,82.3297 L189.583,84.2036 L190.3735,86.1422 L191.2764,88.1257 L191.792,89.9544 L192.85,92 L193.0868,92.0668 L193.5071,95.2073 L194.6187,98.543 L195.8147,101.9024 L196.5199,105.1233 L197.4833,108.4171 L197.513,108.4234 L198.1862,111.7776 L198.9944,115.1606 L199.7375,118.5298 L200.6049,121.9254 L201.0671,125.2346 L201.3619,125.2797 L201.8882,128.7025 L202.2243,132.0963 L202.8388,135.5326 L203.4663,138.9709 L203.6804,142.346 L203.3615,142.3143 L204.3249,145.8356 L204.2381,149.2524 L204.9497,152.7486 L204.839,156.163 L205.4023,159.6445 L205.3719,159.6429 L205.9134,163.1376 L205.7445,166.595 L205.9948,170.0744 L206.2802,173.5556 L206.3119,177.0235 L206.4968,177.0254 L206.3453,180.494 L206.51,183.9659 L206.1631,187.4326 L206.5791,190.907 L206.488,194.3762 L206.7315,194.383 L206.5898,197.8257 L206.5691,201.2717 L205.9864,204.7022 L205.8157,208.144 L206.0098,211.596 L205.7341,211.5789 L205.773,214.9905 L205.5012,218.3827 L205.6799,221.8029 L205.0895,225.1754 L204.9563,228.5763 L204.8044,228.5621 L204.7473,231.9124 L204.0412,235.2023 L203.7966,238.5352 L204.0036,241.9101 L203.4064,245.2102 L203.5986,245.2335 L203.3371,248.4858 L202.4776,251.6653 L202.367,254.9359 L202.0933,258.1866 L201.4394,261.3911 L201.2316,261.3605 L200.9361,264.5092 L200.5726,267.6478 L200.3427,270.8062 L199.5933,273.8879 L199.134,277.0124 L199.3367,277.0471 L198.3786,279.9618 L197.8116,282.9435 L197.8159,286.0232 L196.7684,288.9225 L196.5695,291.9673 L196.7916,292.0103 L196.1108,294.8212 L195.3548,297.6175 L194.7683,300.4466 L194.574,303.3516 L193.8248,306.1493 L193.6947,306.1214 L193.5129,308.8647 L192.4463,311.4187 L192.3857,314.188 L191.7587,316.8361 L190.979,319.4515 L191.085,319.4762 L190.4259,321.9194 L190.1463,324.451 L189.5238,326.9028 L188.7579,329.3212 L188.111,331.7673 L188.2267,331.7962 L187.4927,333.9978 L187.2955,336.3337 L186.4912,338.5176 L185.9366,340.7641 L185.3,342.99 " fill="none" style="stroke: #A9A9A9; stroke-width: 2.0;"/><polygon fill="#A9A9A9" points="181.91,355.61,181.9645,355.6541,183.042,353.9921,184.4388,352.5886,185.7317,351.1009,186.6827,349.3364,188.1069,347.9551,188.094,347.9326,187.0558,348.3971,186.0829,348.9747,185.1553,349.631,184.0715,350.0162,183.2065,350.781,183.3664,350.8732,182.4593,349.696,182.019,348.7879,181.6357,347.9127,180.921,346.8464,180.3805,345.8806,180.403,345.8842,180.6759,347.8248,181.0511,349.7816,181.377,351.7306,181.797,353.6944,181.91,355.61" style="stroke: #A9A9A9; stroke-width: 2.0;"/><path d="M183.2065,350.781 L183.2967,350.8053 L183.4444,349.1889 L184.1209,347.7149 L184.6251,346.1946 L184.5631,344.5218 L185.285,343.06 " fill="#A9A9A9" style="stroke: #A9A9A9; stroke-width: 2.0;"/><polygon fill="#A9A9A9" points="176.51,62.05,176.5801,62.0504,176.3802,63.4914,176.5911,64.9348,176.6683,66.3774,176.3056,67.8174,176.5518,69.261,176.5419,69.237,177.8323,69.6764,179.1722,70.2367,180.5466,70.8809,181.8023,71.2357,183.2241,71.9959,183.4087,71.9969,183.0057,70.5525,183.1415,69.1111,183.343,67.6701,183.1621,66.2269,183.1824,64.7849,183.191,64.8059,181.8438,64.2281,180.536,63.746,179.2092,63.2177,177.9185,62.7776,176.51,62.05" style="stroke: #A9A9A9; stroke-width: 2.0;"/><text fill="#A9A9A9" font-family="courier" font-size="20" lengthAdjust="spacingAndGlyphs" textLength="84" x="207.85" y="206.1074">request</text><text fill="#A9A9A9" font-family="courier" font-size="20" lengthAdjust="spacingAndGlyphs" textLength="12" x="169.1054" y="341.0861">1</text><!--link HTTP to HTML--><path d="M114.12,60.68 L114.183,60.749 L112.5066,61.9045 L111.1996,63.4642 L109.7723,64.8924 L107.9495,65.8875 L106.6742,67.482 L106.6488,67.4586 L105.1512,68.856 L103.7817,70.3713 L102.5012,71.9685 L100.9138,73.2832 L99.7563,74.9937 L99.9541,75.1401 L98.3203,76.4641 L97.2641,78.2154 L96.2784,80.0188 L94.8827,81.519 L93.7027,83.1786 L93.7292,83.1932 L92.7197,84.936 L91.8311,86.7454 L90.8842,88.5227 L90.0486,90.3612 L88.85,92 L89.1334,92.0928 L88.0682,95.3567 L86.8201,98.5607 L85.8396,101.8523 L84.8717,105.148 L83.5064,108.3136 L83.1888,108.2703 L83.3367,111.7938 L82.4388,115.1749 L82.3359,118.6642 L81.4143,122.042 L81.1638,125.5112 L81.1333,125.5112 L81.4879,128.9517 L81.1313,132.391 L81.1943,135.831 L81.2926,139.2711 L81.1367,142.7108 L81.3208,142.7289 L81.4556,145.9745 L81.9051,149.2509 L81.8455,152.4774 L82.5451,155.7785 L82.74,159.03 " fill="none" style="stroke: #A9A9A9; stroke-width: 2.0;"/><polygon fill="#A9A9A9" points="84.95,171.91,85.0179,171.9273,85.3021,169.967,85.9844,168.1081,86.537,166.2162,86.6634,164.2158,87.3798,162.3656,87.3587,162.3506,86.6097,163.2065,85.9673,164.1379,85.399,165.1218,84.5754,165.9248,84.1093,166.9812,84.216,167.1318,83.0647,166.1557,82.2249,165.6192,81.4232,165.1364,80.4003,164.3415,79.4937,163.7107,79.5126,163.7233,80.5761,165.3447,81.7258,167.0234,82.8338,168.6744,84.0213,170.3783,84.95,171.91" style="stroke: #A9A9A9; stroke-width: 2.0;"/><path d="M84.1093,166.9812 L84.2014,166.997 L83.657,165.3728 L83.6522,163.8413 L83.4718,162.2795 L82.7134,160.6186 L82.755,159.095 " fill="#A9A9A9" style="stroke: #A9A9A9; stroke-width: 2.0;"/><polygon fill="#A9A9A9" points="124.71,52.49,124.7149,52.5599,123.2616,52.4537,121.8372,52.7573,120.4034,52.9274,118.9387,52.6588,117.5168,52.9975,117.4922,52.9893,116.9224,54.3192,116.4764,55.6908,116.1164,57.0913,115.4598,58.3922,115.2186,59.8326,115.2316,60.0167,116.6425,59.5215,118.0913,59.5639,119.5447,59.6717,120.9712,59.3981,122.4119,59.3251,122.4334,59.3323,122.8614,57.9547,123.3875,56.61,123.8663,55.2494,124.4354,53.9192,124.71,52.49" style="stroke: #A9A9A9; stroke-width: 2.0;"/><text fill="#A9A9A9" font-family="courier" font-size="20" lengthAdjust="spacingAndGlyphs" textLength="96" x="90.85" y="114.1074">response</text><text fill="#A9A9A9" font-family="courier" font-size="20" lengthAdjust="spacingAndGlyphs" textLength="12" x="69.2134" y="156.9278">1</text><!--link HTML to URL--><path d="M52.94,224.15 L52.9972,224.2239 L50.6744,225.6719 L48.6868,227.5529 L46.5901,229.293 L44.1343,230.5694 L42.1756,232.4876 L42.1527,232.4617 L39.9747,234.1812 L37.9121,236.0311 L35.9296,237.9716 L33.6708,239.5997 L31.7991,241.6655 L31.9774,241.835 L29.7203,243.4462 L27.9839,245.5524 L26.3111,247.7189 L24.2686,249.5341 L22.4205,251.5341 L22.4448,251.5522 L20.855,253.6075 L19.3759,255.7454 L17.8434,257.8435 L16.4127,260.0175 L14.65,261.9437 L14.9153,262.0801 L13.808,264.242 L12.5297,266.3159 L11.5018,268.5186 L10.4857,270.7273 L9.0976,272.7448 L8.7864,272.6681 L8.8456,275.0256 L7.88,277.1304 L7.6935,279.4273 L6.7047,281.5264 L6.3734,283.7877 L6.3431,283.7857 L6.8452,286.0357 L6.6375,288.2402 L6.8486,290.4716 L7.0949,292.7052 L7.0875,294.9226 L7.2575,294.9957 L8.0384,297.1374 L9.1098,299.404 L9.7113,301.4686 L11.0136,303.8344 L11.85,306 L12.0425,306.1493 L14.3763,309.1764 L16.8056,312.2776 L18.7908,315.0343 L21.1016,318.0436 L23.7008,321.2765 L23.5139,321.0732 L26.5371,323.8805 L29.3498,326.4587 L32.4679,329.3693 L35.0645,331.7124 L37.9711,334.3928 L37.8843,334.2675 L41.2395,336.6994 L44.2237,338.5956 L47.4717,340.8728 L50.9779,343.5228 L54.0243,345.5089 L54.1162,345.6794 L57.6192,347.6515 L60.8362,349.0935 L64.4113,351.1994 L67.9084,353.1607 L71.2238,354.785 L71.141,354.592 L74.7487,356.2651 L78.3294,357.8749 L81.9633,359.6088 L85.3902,360.8601 L88.9327,362.3811 L88.9999,362.5754 L92.3687,363.3637 L95.8671,364.527 L99.5549,366.2383 L102.8941,366.9408 L106.5145,368.4572 L106.5756,368.675 L109.9029,369.4889 L113.2096,370.2291 L116.5629,371.1356 L120.024,372.4265 L123.3325,373.1735 L123.3029,373.0438 L126.4745,374.1332 L129.4449,374.3406 L132.644,375.5509 L135.7144,376.1966 L138.75,376.69 " fill="none" style="stroke: #A9A9A9; stroke-width: 2.0;"/><polygon fill="#A9A9A9" points="151.67,379.1,151.7097,379.1578,149.9681,377.871,148.4591,376.9228,146.8743,375.8643,145.0406,374.4433,143.5515,373.5242,143.5301,373.5095,144.0748,374.3763,144.7271,375.317,145.4543,376.3091,145.9236,377.1241,146.754,378.1872,146.8585,378.3393,145.7025,378.6545,144.8515,379.4139,144.0377,380.2274,143.0074,380.7256,142.091,381.3897,142.0963,381.4118,144.0043,380.9214,145.9364,380.5317,147.8569,380.0934,149.7996,379.7478,151.67,379.1" style="stroke: #A9A9A9; stroke-width: 2.0;"/><path d="M146.754,378.1872 L146.7712,378.279 L145.1474,377.7127 L143.6242,377.6848 L142.0682,377.4815 L140.4047,376.7018 L138.89,376.72 " fill="#A9A9A9" style="stroke: #A9A9A9; stroke-width: 2.0;"/><polygon fill="#A9A9A9" points="63.71,216.65,63.7114,216.72,62.2653,216.5409,60.8274,216.7724,59.3869,216.8702,57.9375,216.5283,56.5004,216.795,56.4762,216.7855,55.8402,218.0852,55.3258,219.4326,54.8958,220.8132,54.1746,222.0794,53.8613,223.5059,53.865,223.6904,55.299,223.2668,56.7438,223.3819,58.19,223.5628,59.6284,223.3613,61.0709,223.3608,61.0921,223.3692,61.5888,222.0148,62.1819,220.6983,62.7286,219.3635,63.3639,218.0636,63.71,216.65" style="stroke: #A9A9A9; stroke-width: 2.0;"/><text fill="#A9A9A9" font-family="courier" font-size="20" lengthAdjust="spacingAndGlyphs" textLength="132" x="13.85" y="298.1074">hiperenlace</text><text fill="#A9A9A9" font-family="courier" font-size="20" lengthAdjust="spacingAndGlyphs" textLength="48" x="94.8558" y="369.2427">0..*</text><!--link URL to HTML--><path d="M171.78,355.67 L171.8725,355.6827 L171.0979,352.0075 L170.8659,348.4068 L170.4571,344.7818 L169.4674,341.077 L169.2819,337.4827 L169.2479,337.4766 L168.7411,335.4487 L168.4058,333.4511 L168.1897,331.4746 L167.5629,329.4254 L167.5113,327.478 L167.7522,327.5285 L166.8029,325.3492 L166.5568,323.3173 L166.3964,321.3034 L165.737,319.1848 L165.34,317.1213 L165.3694,317.1286 L164.8038,315.0143 L164.3722,312.9334 L163.876,310.8363 L163.5031,308.7699 L162.728,306.6037 L163.0141,306.688 L162.3991,304.5917 L161.5996,302.4409 L161.0702,300.3698 L160.5535,298.3024 L159.6356,296.1167 L159.3333,296.0103 L159.1975,294.1638 L158.0662,291.967 L157.6918,290.0365 L156.5379,287.8317 L156.0229,285.8517 L155.9949,285.8398 L155.4918,284.0099 L154.3338,281.9026 L153.5623,279.9589 L152.8232,278.029 L151.85,276 L152.0135,276.0865 L150.5449,273.5359 L149.3556,271.1331 L147.7144,268.4911 L146.7473,266.2059 L145.332,263.6834 L145.5372,263.8149 L143.9692,261.4044 L142.5031,259.0591 L140.5638,256.4105 L138.9714,253.9843 L137.6863,251.755 L137.4638,251.5914 L136.0044,249.4813 L134.2943,247.1869 L132.9479,245.1599 L130.9806,242.6763 L129.3823,240.4641 L129.2642,240.3677 L127.7625,238.4474 L125.7558,236.115 L124.1082,234.0757 L122.8119,232.3232 L120.89,230.06 " fill="none" style="stroke: #A9A9A9; stroke-width: 2.0;"/><polygon fill="#A9A9A9" points="117.43,226.08,117.497,226.1005,117.873,227.9236,118.6419,229.8667,119.2828,231.7707,119.5031,233.5463,120.3057,235.4997,120.2799,235.4978,120.244,234.3611,120.3384,233.2336,120.5234,232.1125,120.3963,230.9692,120.7063,229.857,120.7194,230.0411,121.8199,229.7276,122.9587,229.9515,124.1021,230.241,125.2184,230.149,126.3489,230.2576,126.3586,230.2782,124.5606,229.4125,122.8066,228.6405,121.0314,227.8232,119.2966,227.0923,117.43,226.08" style="stroke: #A9A9A9; stroke-width: 2.0;"/><text fill="#A9A9A9" font-family="courier" font-size="20" lengthAdjust="spacingAndGlyphs" textLength="12" x="108.0879" y="255.275">1</text><!--
@startuml

skinparam backgroundColor #222222
skinparam handwritten true
hide circle
hide stereotype
skinparam shadowing false
skinparam padding 1
skinparam arrow {
    Thickness 2
    Color #DarkGrey
    FontSize 20
    FontName courier
    FontStyle normal
    FontColor #DarkGrey
}
skinparam class {
    BorderThickness 3
    BorderColor #DarkGrey
    BackgroundColor #222222
    FontSize 20
    FontName courier
    FontStyle bold
    FontColor #DarkGrey
}
skinparam classAttribute {
    FontSize 15
    FontName courier
    FontStyle normal
    FontColor #DarkGrey
}
class HTTP
class HTML
class URL

HTTP *-down-> "1" URL : request
HTTP *-down-> "1" HTML : response
HTML *- -> "0..*" URL : hiperenlace
URL - -> "1" HTML
@enduml

PlantUML version 1.2019.05(Sat Apr 20 18:45:36 CEST 2019)
(GPL source distribution)
Java Runtime: Java(TM) SE Runtime Environment
JVM: Java HotSpot(TM) 64-Bit Server VM
Java Version: 11.0.14+8-LTS-263
Operating System: Windows 10
OS Version: 10.0
Default Encoding: windows-1252
Language: es
Country: ES
--></g></svg>