<?xml version="1.0" encoding="UTF-8" standalone="no"?><svg xmlns="http://www.w3.org/2000/svg" xmlns:xlink="http://www.w3.org/1999/xlink" contentScriptType="application/ecmascript" contentStyleType="text/css" height="480px" preserveAspectRatio="none" style="width:462px;height:480px;background:#222222;" version="1.1" viewBox="0 0 462 480" width="462px" zoomAndPan="magnify"><defs/><g><polygon fill="#222222" points="99,2,99,2.2102,109,1.5857,119,2.1933,129,2.3997,139,1.2866,149,1.9223,159,1.5735,169,1.6165,179,1.9318,189,1.3086,199,2.5536,209,1.3697,219,1.8022,229,2.4319,239,1.9142,249,2.0682,259,1.9681,269,2.1785,279,2.2391,289,2.5857,299,2.6711,309,2.6793,319,2.2546,329,2.4636,339,2.7022,349,1.2788,359,2.6785,369,2,368.7035,2,369.5338,12.7469,368.505,23.4938,368.9315,34.2406,369.7416,44.9875,369,55.7344,369,55.6856,359,55.8397,349,56.073,339,56.1506,329,55.7305,319,56.0216,309,55.162,299,56.0188,289,56.2826,279,56.1789,269,56.3474,259,55.2513,249,55.0822,239,55.113,229,55.6755,219,55.5378,209,56.4158,199,55.5597,189,55.3913,179,55.9626,169,55.0675,159,55.2152,149,56.3833,139,56.17,129,56.4689,119,55.4126,109,56.0536,99,55.7344,99.5904,55.7344,98.5276,44.9875,98.9041,34.2406,99.126,23.4938,99.6518,12.7469,99,2" style="stroke: #222222; stroke-width: 1.5;"/><text fill="#FFA500" font-family="sans-serif" font-size="30" font-weight="bold" lengthAdjust="spacingAndGlyphs" textLength="248" x="110" y="41.1426">Sintaxis: Atributo</text><polygon fill="#222222" points="236.5,146.7344,236.5,146.9446,245.9444,146.3201,255.3889,146.9277,264.8333,147.1341,274.2778,146.021,283.7222,146.6567,293.1667,146.3079,302.6111,146.3509,312.0556,146.6662,321.5,146.7344,321.4118,146.5215,323.3384,147.6371,324.9551,148.0047,326.7781,148.8702,328.6262,149.7963,330.3388,150.3955,330.3124,150.3846,331.0921,152.172,331.7935,153.927,332.5905,155.7216,333.3414,157.4971,334,159.2344,334.1952,159.2344,334.2237,162.4656,334.2264,165.6969,334.0849,168.9281,334.1545,172.1594,334,175.3906,334.2163,175.4802,333.0457,177.0664,332.7445,179.0127,331.712,180.6561,331.2355,182.5298,330.3388,184.2295,330.2757,184.077,328.5623,184.9406,326.8979,185.9223,325.0293,186.4112,323.2812,187.1908,321.5,187.8906,321.5,188.2293,312.0556,188.3069,302.6111,187.8867,293.1667,188.1778,283.7222,187.3182,274.2778,188.175,264.8333,188.4388,255.3889,188.3352,245.9444,188.5036,236.5,187.8906,236.4384,187.7419,234.649,186.9575,232.8852,186.2348,231.1892,185.6758,229.4039,184.9012,227.6612,184.2295,227.871,184.3164,226.8751,182.4394,226.0911,180.6502,225.5348,178.9553,224.5269,177.0733,224,175.3906,223.827,175.3906,224.2163,172.1594,224.1452,168.9281,224.2448,165.6969,223.8927,162.4656,224,159.2344,224.0983,159.2751,224.9141,157.5419,225.319,155.6386,226.1672,153.9188,226.9677,152.1794,227.6612,150.3955,227.7443,150.5963,229.4284,149.662,231.2557,149.0735,232.8938,148.0283,234.6458,147.258,236.5,146.7344" style="stroke: #FFFFFF; stroke-width: 1.5;"/><text fill="#FFA500" font-family="sans-serif" font-size="20" font-weight="bold" lengthAdjust="spacingAndGlyphs" textLength="94" x="232" y="175.4961">visibilidad</text><polygon fill="#222222" points="192.5,247.7344,192.5,247.9446,201.7857,247.3201,211.0714,247.9277,220.3571,248.1341,229.6429,247.021,238.9286,247.6567,248.2143,247.3079,257.5,247.7344,257.4511,247.6163,259.2591,248.4456,260.9473,248.9859,262.8739,250.1016,264.4907,250.4692,266.3388,251.3955,266.2779,251.3703,267.2041,253.2184,267.7769,254.9201,268.5565,256.7075,269.2579,258.4625,270,260.2344,270.0595,260.2344,270.0797,263.4656,270.1952,266.6969,270.2237,269.9281,270.2264,273.1594,270,276.3906,270.0784,276.4231,269.4105,278.2175,268.7518,280.0157,267.5812,281.6019,267.28,283.5482,266.3388,285.2295,266.301,285.1381,264.6392,286.1261,262.7402,286.5415,261.0268,287.4051,259.3624,288.3868,257.5,288.8906,257.5,288.8419,248.2143,288.9959,238.9286,289.2293,229.6429,289.3069,220.3571,288.8867,211.0714,289.1778,201.7857,288.3182,192.5,288.8906,192.5363,288.9782,190.8022,288.3272,189.0212,287.5631,187.2749,286.8827,185.3673,285.8129,183.6612,285.2295,183.4603,285.1463,182.7376,283.3824,182.1786,281.6864,181.4039,279.9011,180.9421,278.2453,180,276.3906,179.9418,276.3906,179.8856,273.1594,180.0761,269.9281,179.7777,266.6969,179.827,263.4656,180,260.2344,180.1999,260.3172,180.8664,258.5222,181.6907,256.7925,182.0976,254.89,183.0272,253.204,183.6612,251.3955,183.7365,251.5774,185.3687,250.5178,187.1845,249.9016,188.9805,249.2376,190.8154,248.6673,192.5,247.7344" style="stroke: #FFFFFF; stroke-width: 1.5;"/><text fill="#FFFFFF" font-family="sans-serif" font-size="20" font-weight="bold" lengthAdjust="spacingAndGlyphs" textLength="74" x="188" y="276.4961">atributo</text><path d="M305.5,247.7344 L305.5,264.2344 L270.12,268.2344 L305.5,272.2344 L305.5,288.8906 A0,0 0 0 0 305.5,288.8906 L450.5,288.8906 A0,0 0 0 0 450.5,288.8906 L450.5,257.7344 L440.5,247.7344 L305.5,247.7344 A0,0 0 0 0 305.5,247.7344 " fill="#222222" style="stroke: #FFFFFF; stroke-width: 1.0;"/><path d="M440.5,247.7344 L440.6868,247.7344 L440.1317,249.7344 L440.6718,251.7344 L440.8553,253.7344 L439.8659,255.7344 L440.5,257.7344 L440.5,257.6653 L442.5,257.3553 L444.5,257.3935 L446.5,257.6738 L448.5,257.1198 L450.5,257.7344 L450.848,258.0824 L448.1038,255.3382 L446.3757,253.6101 L444.7715,252.0059 L442.4461,249.6805 L440.5,247.7344 " fill="#222222" style="stroke: #FFFFFF; stroke-width: 1.0;"/><text fill="#FFFF00" font-family="sans-serif" font-size="20" font-weight="bold" lengthAdjust="spacingAndGlyphs" textLength="118" x="314.5" y="276.4961">identificador</text><polygon fill="#222222" points="18.5,348.7344,18.5,348.9446,28.8,348.3201,39.1,348.9277,49.4,349.1341,59.7,348.021,70,348.6567,80.3,348.3079,90.6,348.3509,100.9,348.6662,111.2,348.043,121.5,348.7344,121.5706,348.9049,123.1874,349.2725,125.0103,350.1379,126.8584,351.0641,128.5601,351.6369,130.3388,352.3955,130.3598,352.4042,131.0612,354.1592,131.8583,355.9538,132.6092,357.7293,133.4481,359.5413,134,361.2344,134.2237,361.2344,134.2264,364.4656,134.0849,367.6969,134.1545,370.9281,134.2341,374.1594,134,377.3906,133.7779,377.2986,133.4767,379.2449,132.4442,380.8883,131.9677,382.762,130.9186,384.3985,130.3388,386.2295,130.3301,386.2084,128.6657,387.1901,126.7971,387.6789,125.049,388.4586,123.311,389.2627,121.5,389.8906,121.5,390.3069,111.2,389.8867,100.9,390.1778,90.6,389.3182,80.3,390.175,70,390.4388,59.7,390.3352,49.4,390.5036,39.1,389.4075,28.8,389.2384,18.5,389.8906,18.4207,389.6993,16.7247,389.1403,14.9394,388.3656,13.2836,387.9038,11.4067,386.9079,9.6612,386.2295,9.5555,386.1857,8.9992,384.4908,7.9913,382.6089,7.3046,380.8599,6.9321,379.2412,6,377.3906,6.1452,377.3906,6.2448,374.1594,5.8927,370.9281,6.1064,367.6969,6.1968,364.4656,6,361.2344,5.8545,361.1741,6.7027,359.4544,7.5033,357.7149,8.3974,356.0142,8.9276,354.1628,9.6612,352.3955,9.7202,352.538,11.3583,351.4928,13.1103,350.7225,15.0287,350.3539,16.6408,349.2458,18.5,348.7344" style="stroke: #FFFFFF; stroke-width: 1.5;"/><text fill="#FFFFFF" font-family="sans-serif" font-size="20" font-weight="bold" lengthAdjust="spacingAndGlyphs" textLength="112" x="14" y="377.4961">tipoAtributo</text><path d="M169,348.7344 L169,365.2344 L134.32,369.2344 L169,373.2344 L169,389.8906 A0,0 0 0 0 169,389.8906 L327,389.8906 A0,0 0 0 0 327,389.8906 L327,358.7344 L317,348.7344 L169,348.7344 A0,0 0 0 0 169,348.7344 " fill="#222222" style="stroke: #FFFFFF; stroke-width: 1.0;"/><path d="M317,348.7344 L317.1868,348.7344 L316.6317,350.7344 L317.1718,352.7344 L317.3553,354.7344 L316.3659,356.7344 L317,358.7344 L317,358.6653 L319,358.3553 L321,358.3935 L323,358.6738 L325,358.1198 L327,358.7344 L327.348,359.0824 L324.6038,356.3382 L322.8757,354.6101 L321.2715,353.0059 L318.9461,350.6805 L317,348.7344 " fill="#222222" style="stroke: #FFFFFF; stroke-width: 1.0;"/><text fill="#00FFFF" font-family="sans-serif" font-size="20" font-weight="bold" lengthAdjust="spacingAndGlyphs" textLength="7" x="178" y="377.4961">:</text><text fill="#FFFF00" font-family="sans-serif" font-size="20" font-weight="bold" lengthAdjust="spacingAndGlyphs" textLength="118" x="191" y="377.4961">identificador</text><polygon fill="#FFFFFF" points="235.0552,79.1668,233.5894,81.1696,231.8556,84.1032,229.376,86.0802,226.7703,87.1613,224.6927,87.2551,222.0224,85.9031,219.5029,85.0198,217.5905,83.2264,216.5873,81.1733,215.9924,79.5385,215.4096,77.4032,214.4636,75.5657,215.1906,73.7717,215.8275,71.8064,218.2175,70.2521,219.8991,68.2354,221.9804,67.5657,224.4547,66.989,227.6276,67.3316,229.3655,68.1512,231.3861,68.5227,233.8429,71.0398,234.6993,73.6971,235.0714,75.5101,234.65,78.4979" style="stroke: none; stroke-width: 1.0;"/><polygon fill="none" points="235.0552,462.1668,233.5894,464.1696,231.8556,467.1032,229.376,469.0802,226.7703,470.1613,224.6927,470.2551,222.0224,468.9031,219.5029,468.0198,217.5905,466.2264,216.5873,464.1733,215.9924,462.5385,215.4096,460.4032,214.4636,458.5657,215.1906,456.7717,215.8275,454.8064,218.2175,453.2521,219.8991,451.2354,221.9804,450.5657,224.4547,449.989,227.6276,450.3316,229.3655,451.1512,231.3861,451.5227,233.8429,454.0398,234.6993,456.6971,235.0714,458.5101,234.65,461.4979" style="stroke: #FFFFFF; stroke-width: 1.0;"/><polygon fill="#FFFFFF" points="231.5331,461.6938,230.6536,462.8955,229.6134,464.6557,228.1256,465.8419,226.5622,466.4905,225.3156,466.5468,223.7135,465.7356,222.2017,465.2056,221.0543,464.1296,220.4524,462.8977,220.0955,461.9168,219.7458,460.6357,219.1782,459.5332,219.6143,458.4567,219.9965,457.2776,221.4305,456.345,222.4394,455.135,223.6882,454.7332,225.1728,454.3871,227.0766,454.5927,228.1193,455.0845,229.3317,455.3074,230.8057,456.8176,231.3196,458.412,231.5429,459.4998,231.29,461.2925" style="stroke: none; stroke-width: 1.0;"/><!--link *start to visibilidad--><path d="M229.79,85.5844 L230.0292,85.7303 L234.217,93.3252 L239.8071,101.7757 L244.9406,109.9477 L248.5723,117.2032 L254.1944,125.6733 L258.696,133.4596 L264.08,141.7844 " fill="none" style="stroke: #FFFFFF; stroke-width: 1.0;"/><polygon fill="#FFFFFF" points="266.91,146.4244,266.9794,146.4336,266.5129,144.4536,266.4534,142.5279,266.2614,140.5845,265.6334,138.5829,265.6089,136.6618,265.5837,136.6558,265.2076,137.7291,264.9584,138.8328,264.7976,139.9576,264.3324,141.0097,264.2935,142.1636,264.3364,142.3431,263.1443,141.6962,262.0775,141.5734,261.0259,141.5144,259.8854,141.0835,258.7917,140.8482,258.8046,140.867,260.4093,141.9547,262.0727,143.1277,263.7078,144.2596,265.3969,145.4701,266.91,146.4244" style="stroke: #FFFFFF; stroke-width: 1.0;"/><!--link visibilidad to atributo--><path d="M268.33,187.7944 L268.576,187.9285 L262.82,196.7449 L258.5063,206.3478 L253.7229,215.6945 L247.3949,224.199 L243.114,233.8198 L238.18,243.0844 " fill="none" style="stroke: #FFFFFF; stroke-width: 1.0;"/><polygon fill="#FFFFFF" points="235.65,247.7144,235.6926,247.77,237.1303,246.4076,238.8177,245.3713,240.4237,244.2288,241.7625,242.737,243.4713,241.7287,243.4639,241.7039,242.3457,241.9116,241.2644,242.2446,240.2086,242.6646,239.0646,242.7846,238.0443,243.3249,238.2213,243.377,237.5235,242.1802,237.3425,241.1355,237.2247,240.1093,236.7399,238.9752,236.4481,237.8979,236.4708,237.8997,236.2779,239.8603,236.1882,241.8293,236.0487,243.7942,236.0042,245.7669,235.65,247.7144" style="stroke: #FFFFFF; stroke-width: 1.0;"/><!--link *start to atributo--><path d="M221.93,86.5244 L222.019,86.5529 L221.0009,88.8226 L220.5044,91.2593 L219.838,93.6416 L218.6132,95.8451 L218.1614,98.2961 L218.1282,98.2866 L217.1266,101.2259 L216.2925,104.2131 L215.5747,107.2335 L214.4558,110.1393 L213.8988,113.2056 L214.138,113.2629 L212.8304,116.4647 L212.2215,119.8337 L211.6977,123.2232 L210.678,126.4939 L209.9192,129.827 L209.9491,129.8322 L209.3214,133.2061 L208.8297,136.6035 L208.2724,139.9895 L207.8404,143.3972 L207,146.7344 L207.2972,146.7591 L207.0898,149.2965 L206.6907,151.818 L206.5722,154.3629 L206.4668,156.9088 L205.9447,159.42 L205.6242,159.4183 L206.2326,162.0083 L205.7855,164.5927 L206.1408,167.1813 L205.6698,169.7656 L205.8761,172.3534 L205.8457,172.3517 L206.3571,174.9644 L206.1584,177.5355 L206.3787,180.1311 L206.6342,182.7288 L206.636,185.3117 L206.8198,185.3323 L206.9203,187.8635 L207.3349,190.43 L207.2413,192.9395 L207.9058,195.5339 L208.0663,198.0719 L208.3069,198.1098 L208.6499,200.5705 L209.1124,203.05 L209.0197,205.442 L209.334,207.8982 L210.0089,210.4111 L209.7379,210.3579 L210.4426,212.7452 L210.8419,215.0725 L211.6842,217.4868 L211.7702,219.7525 L212.3058,222.1066 L212.1572,222.0724 L212.9033,224.2951 L213.0142,226.3716 L213.5768,228.552 L214.5813,230.8342 L214.7988,232.9353 L214.9863,232.984 L215.621,234.9652 L215.6729,236.7949 L216.4548,238.8144 L217.0777,240.7926 L217.33,242.6744 " fill="none" style="stroke: #FFFFFF; stroke-width: 1.0;"/><polygon fill="#FFFFFF" points="218.72,247.6544,218.7893,247.6645,218.8688,245.6854,219.3547,243.7658,219.7082,241.8268,219.6266,239.824,220.1473,237.9095,220.1248,237.8968,219.4686,238.8257,218.9262,239.8187,218.4629,240.8562,217.727,241.7403,217.3729,242.8393,217.4634,243.0001,216.2839,242.1013,215.3687,241.672,214.4857,241.3001,213.4151,240.5948,212.4432,240.0648,212.4607,240.0793,213.6903,241.576,214.9997,243.1386,216.2707,244.6694,217.6151,246.2609,218.72,247.6544" style="stroke: #FFFFFF; stroke-width: 1.0;"/><!--link atributo to tipoAtributo--><path d="M194.38,288.7944 L194.5308,289.0306 L185.9381,293.5306 L178.2296,299.4152 L170.2332,304.8489 L161.2898,308.8 L153.6015,314.7161 L145.2066,319.526 L137.0929,324.7762 L129.1747,330.3323 L120.5829,334.8338 L113.3319,341.4347 L104.79,346.0144 " fill="none" style="stroke: #FFFFFF; stroke-width: 1.0;"/><polygon fill="#FFFFFF" points="100.56,348.7144,100.5707,348.7836,102.4857,348.2775,104.4633,348.1772,106.4205,347.9448,108.3106,347.2777,110.2936,347.2123,110.2881,347.187,109.1579,346.833,108.0554,346.6067,106.9722,346.4691,105.8225,346.0257,104.7659,346.0106,104.9462,346.0498,104.8009,344.8604,105.1821,343.7855,105.6276,342.7245,105.6993,341.5823,105.9676,340.4828,105.9866,340.4953,104.8772,342.1233,103.8543,343.8081,102.7897,345.4655,101.8047,347.1753,100.56,348.7144" style="stroke: #FFFFFF; stroke-width: 1.0;"/><!--link tipoAtributo to *end--><path d="M104.4,389.8744 L104.539,390.1177 L113.0936,394.5146 L122.4628,400.3382 L131.5667,405.6972 L139.7984,409.5283 L149.1861,415.3844 L157.923,420.1005 L166.919,425.2703 L176.0949,430.7555 L184.6504,435.1538 L194.441,441.7154 L202.6258,445.4646 L212.01,451.3144 " fill="none" style="stroke: #FFFFFF; stroke-width: 1.0;"/><polygon fill="#FFFFFF" points="216.6,453.9344,216.6564,453.9759,215.3201,452.2669,214.3144,450.8015,213.201,449.2567,211.7336,447.451,210.7563,446.0065,210.7313,445.9996,210.9188,447.0598,211.2323,448.1546,211.6332,449.2734,211.7325,450.3094,212.2544,451.4614,212.3033,451.6393,211.1078,451.5584,210.055,451.997,209.0196,452.4991,207.8829,452.6323,206.7995,452.9595,206.8018,452.9821,208.7586,453.1439,210.7256,453.4086,212.6877,453.6237,214.6592,453.9337,216.6,453.9344" style="stroke: #FFFFFF; stroke-width: 1.0;"/><!--link atributo to *end--><path d="M270.15,288.6944 L270.1938,288.7769 L273.3955,290.3028 L276.8541,292.3124 L280.2291,294.1644 L283.3288,295.4987 L286.8095,297.5497 L286.7915,297.5202 L290.0571,299.4294 L293.4133,301.4871 L296.8326,303.6482 L300.0346,305.4533 L303.5409,307.757 L303.6856,307.9561 L306.5211,309.8149 L309.7789,312.2549 L313.0882,314.7659 L316.0978,316.8642 L319.265,319.1796 L319.2855,319.2019 L321.9829,321.6693 L324.7736,324.2385 L327.5193,326.7586 L330.3509,329.3723 L332.9025,331.6806 L333.1378,331.8639 L335.235,334.5547 L337.1804,337.1273 L339.348,339.8729 L341.5259,342.6266 L343.374,345.1234 L343.0803,344.995 L344.8956,348.0937 L345.7438,350.7697 L347.3272,353.767 L348.1535,356.4335 L349.6003,359.3711 L349.5699,359.3693 L350.1097,362.3742 L349.9394,365.3362 L350.1881,368.3235 L350.4719,371.3129 L350.5021,374.287 L350.6763,374.3491 L349.4,377.3759 L348.4215,380.5088 L346.9612,383.4701 L346.2195,386.6873 L345,389.7344 L345.1978,389.8767 L343.1525,392.6406 L341.2054,395.4752 L338.802,397.9815 L336.7331,400.7284 L334.9605,403.6885 L334.7674,403.4911 L332.4676,406.0895 L329.9503,408.4654 L327.7485,411.1641 L325.0079,413.3117 L322.5877,415.7869 L322.497,415.6643 L319.851,417.9382 L316.8173,419.6882 L314.0594,421.8108 L311.5711,424.2979 L308.6026,426.1359 L308.7004,426.303 L305.7922,428.1588 L302.5798,429.4948 L299.7484,431.4819 L296.8341,433.3271 L293.7263,434.8419 L293.6359,434.6523 L290.6986,436.2373 L287.7317,437.7602 L284.823,439.405 L281.6883,440.5758 L278.6798,442.0113 L278.7555,442.2025 L275.6901,442.9303 L272.7708,444.0272 L270.0648,445.663 L266.966,446.3065 L264.1842,447.7506 L264.2559,447.9652 L261.5686,448.7208 L258.8571,449.4039 L256.2003,450.2508 L253.6699,451.4765 L250.9606,452.1662 L250.9242,452.0382 L248.7865,453.0588 L246.4011,453.2092 L244.2974,454.349 L242.0351,454.9317 L239.73,455.3644 " fill="none" style="stroke: #FFFFFF; stroke-width: 1.0;"/><polygon fill="#FFFFFF" points="234.8,456.6044,234.8118,456.6734,236.7181,456.8011,238.6938,457.3335,240.6469,457.7341,242.5256,457.7013,244.5073,458.2685,244.494,458.2462,243.4624,457.5676,242.4976,457.0012,241.5792,456.5128,240.5008,455.7556,239.6465,455.3749,239.8051,455.4693,240.0447,454.2953,240.7473,453.3969,241.5064,452.5321,241.9368,451.4716,242.5401,450.5141,242.5541,450.532,240.9855,451.7238,239.4808,452.997,237.9453,454.2309,236.4687,455.5398,234.8,456.6044" style="stroke: #FFFFFF; stroke-width: 1.0;"/><!--
@startuml
skinparam titleBorderColor #222222
skinparam titleBackgroundColor #222222
skinparam titlefontColor #orange
skinparam titleFontStyle bold
skinparam titleFontSize 30

skinparam handwritten true
skinparam shadowing false
skinparam backgroundColor #222222
skinparam padding 3
skinparam StateStartColor #white
skinparam StateEndColor #white

skinparam note {
    backgroundColor #222222
    fontStyle bold
    borderColor #white
    FontColor #yellow
     fontSize 20
}

skinparam state {
    fontColor #white
    fontColor<<Reservada>> #cyan
    fontColor<<NoTerminal>> #orange
    fontStyle bold
    arrowColor #white
    backgroundColor #222222
    borderColor #white
    circleCharacterFontName #white
    fontSize 20
}

hide empty description

title Sintaxis: Atributo

state visibilidad <<NoTerminal>>

note right of atributo: identificador
note right of tipoAtributo: <color:cyan>:</color> identificador

[*] -down-> visibilidad
visibilidad -down-> atributo
[*] -down-> atributo
atributo -down-> tipoAtributo
tipoAtributo -down-> [*]
atributo -down-> [*]

@enduml

PlantUML version 1.2019.05(Sat Apr 20 18:45:36 CEST 2019)
(GPL source distribution)
Java Runtime: Java(TM) SE Runtime Environment
JVM: Java HotSpot(TM) 64-Bit Server VM
Java Version: 11.0.14+8-LTS-263
Operating System: Windows 10
OS Version: 10.0
Default Encoding: windows-1252
Language: es
Country: ES
--></g></svg>