<?xml version="1.0" encoding="UTF-8" standalone="no"?><svg xmlns="http://www.w3.org/2000/svg" xmlns:xlink="http://www.w3.org/1999/xlink" contentScriptType="application/ecmascript" contentStyleType="text/css" height="379px" preserveAspectRatio="none" style="width:1527px;height:379px;background:#222222;" version="1.1" viewBox="0 0 1527 379" width="1527px" zoomAndPan="magnify"><defs/><g><polygon fill="#222222" points="551.5,2,551.5,2.2102,561.5789,1.5857,571.6579,2.1933,581.7368,2.3997,591.8158,1.2866,601.8947,1.9223,611.9737,1.5735,622.0526,1.6165,632.1316,1.9318,642.2105,1.3086,652.2895,2.5536,662.3684,1.3697,672.4474,1.8022,682.5263,2.4319,692.6053,1.9142,702.6842,2.0682,712.7632,1.9681,722.8421,2.1785,732.9211,2.2391,743,2.5857,753.0789,2.6711,763.1579,2.6793,773.2368,2.2546,783.3158,2.4636,793.3947,2.7022,803.4737,1.2788,813.5526,2.6785,823.6316,1.7035,833.7105,2.5338,843.7895,1.505,853.8684,1.9315,863.9474,2.7416,874.0263,1.9513,884.1053,2.1053,894.1842,2.3386,904.2632,2.4162,914.3421,1.9961,924.4211,2.2872,934.5,2,933.9276,2,934.7844,12.7469,935.0482,23.4938,934.9445,34.2406,935.113,44.9875,934.5,55.7344,934.5,55.2513,924.4211,55.0822,914.3421,55.113,904.2632,55.6755,894.1842,55.5378,884.1053,56.4158,874.0263,55.5597,863.9474,55.3913,853.8684,55.9626,843.7895,55.0675,833.7105,55.2152,823.6316,56.3833,813.5526,56.17,803.4737,56.4689,793.3947,55.4126,783.3158,56.0536,773.2368,56.3248,763.1579,55.262,753.0789,55.6385,743,55.8604,732.9211,56.3861,722.8421,55.7302,712.7632,56.1969,702.6842,55.1806,692.6053,55.0571,682.5263,56.238,672.4474,55.0174,662.3684,56.2433,652.2895,55.941,642.2105,55.4665,632.1316,55.3806,622.0526,56.1931,611.9737,55.435,601.8947,56.3262,591.8158,55.1816,581.7368,56.3518,571.6579,56.2187,561.5789,55.9793,551.5,55.7344,551.5472,55.7344,552.2266,44.9875,552.1136,34.2406,551.6693,23.4938,551.7682,12.7469,551.5,2" style="stroke: #222222; stroke-width: 1.5;"/><text fill="#FFA500" font-family="sans-serif" font-size="30" font-weight="bold" lengthAdjust="spacingAndGlyphs" textLength="361" x="562.5" y="41.1426">Sintaxis: Cierre de Grupo</text><polygon fill="#222222" points="306.5,146.7344,306.5,146.8044,312.9,146.5963,319.3,146.7988,325.7,146.8676,332.1,146.4966,338.5,146.7344,338.4901,146.7104,340.2134,147.3353,341.9866,148.0807,343.7946,148.9101,345.4829,149.4504,347.3388,150.3955,347.5093,150.4662,347.877,152.0829,348.7424,153.9058,349.6686,155.7539,350.2414,157.4557,351,159.2344,351.0227,159.2344,350.9894,162.4656,351.0595,165.6969,351.0797,168.9281,351.1952,172.1594,351,175.3906,351.2067,175.4762,350.477,177.245,349.6139,178.9586,348.9461,180.7531,348.2873,182.5513,347.3388,184.2295,347.2468,184.0074,345.6576,185.1706,343.7655,185.6026,342.1036,186.5906,340.2046,187.0059,338.5,187.8906,338.5,187.8678,332.1,188.1378,325.7,187.8744,319.3,187.9257,312.9,188.0035,306.5,187.8906,306.5531,188.0188,304.7317,187.1572,303.0011,186.5146,301.1237,185.5176,299.4652,185.0493,297.6612,184.2295,297.83,184.2994,297.0658,182.5184,296.3855,180.7721,295.3157,178.8645,294.5314,177.0752,294,175.3906,293.7929,175.3906,293.9804,172.1594,293.9345,168.9281,294.2271,165.6969,293.9418,162.4656,294,159.2344,293.8944,159.1906,294.8025,157.4957,295.2591,155.6138,296.0368,153.8649,297.1288,152.2461,297.6612,150.3955,297.7167,150.5297,299.5226,149.8895,301.1557,148.832,303.0052,148.2971,304.8075,147.6484,306.5,146.7344" style="stroke: #FFFFFF; stroke-width: 1.5;"/><text fill="#FFFFFF" font-family="sans-serif" font-size="20" font-weight="bold" lengthAdjust="spacingAndGlyphs" textLength="41" x="302" y="175.4961">Fino</text><path d="M386,146.7344 L386,163.2344 L351.031,167.2344 L386,171.2344 L386,187.8906 A0,0 0 0 0 386,187.8906 L425,187.8906 A0,0 0 0 0 425,187.8906 L425,156.7344 L415,146.7344 L386,146.7344 A0,0 0 0 0 386,146.7344 " fill="#222222" style="stroke: #FFFFFF; stroke-width: 1.0;"/><path d="M415,146.7344 L415.1868,146.7344 L414.6317,148.7344 L415.1718,150.7344 L415.3553,152.7344 L414.3659,154.7344 L415,156.7344 L415,156.6653 L417,156.3553 L419,156.3935 L421,156.6738 L423,156.1198 L425,156.7344 L425.348,157.0824 L422.6038,154.3382 L420.8757,152.6101 L419.2715,151.0059 L416.9461,148.6805 L415,146.7344 " fill="#222222" style="stroke: #FFFFFF; stroke-width: 1.0;"/><text fill="#00FFFF" font-family="sans-serif" font-size="20" font-weight="bold" lengthAdjust="spacingAndGlyphs" textLength="12" x="395" y="175.4961">..</text><polygon fill="#222222" points="18.5,247.7344,18.5,247.9446,28.0556,247.3201,37.6111,247.9277,47.1667,248.1341,56.7222,247.021,66.2778,247.6567,75.8333,247.3079,85.3889,247.3509,94.9444,247.6662,104.5,247.7344,104.4118,247.5215,106.3384,248.6371,107.9551,249.0047,109.7781,249.8702,111.6262,250.7963,113.3388,251.3955,113.3124,251.3846,114.0921,253.172,114.7935,254.927,115.5905,256.7216,116.3414,258.4971,117,260.2344,117.1952,260.2344,117.2237,263.4656,117.2264,266.6969,117.0849,269.9281,117.1545,273.1594,117,276.3906,117.2163,276.4802,116.0457,278.0664,115.7445,280.0127,114.712,281.6561,114.2355,283.5298,113.3388,285.2295,113.2757,285.077,111.5623,285.9406,109.8979,286.9223,108.0293,287.4112,106.2812,288.1908,104.5,288.8906,104.5,289.2293,94.9444,289.3069,85.3889,288.8867,75.8333,289.1778,66.2778,288.3182,56.7222,289.175,47.1667,289.4388,37.6111,289.3352,28.0556,289.5036,18.5,288.8906,18.4384,288.7419,16.649,287.9575,14.8852,287.2348,13.1892,286.6758,11.4039,285.9012,9.6612,285.2295,9.871,285.3164,8.8751,283.4394,8.0911,281.6502,7.5348,279.9553,6.5269,278.0733,6,276.3906,5.827,276.3906,6.2163,273.1594,6.1452,269.9281,6.2448,266.6969,5.8927,263.4656,6,260.2344,6.0983,260.2751,6.9141,258.5419,7.319,256.6386,8.1672,254.9188,8.9677,253.1794,9.6612,251.3955,9.7443,251.5963,11.4284,250.662,13.2557,250.0735,14.8938,249.0283,16.6458,248.258,18.5,247.7344" style="stroke: #FFFFFF; stroke-width: 1.5;"/><text fill="#FFFFFF" font-family="sans-serif" font-size="20" font-weight="bold" lengthAdjust="spacingAndGlyphs" textLength="95" x="14" y="276.4961">FinoTitulo</text><path d="M152,247.7344 L152,264.2344 L117.084,268.2344 L152,272.2344 L152,288.8906 A0,0 0 0 0 152,288.8906 L269,288.8906 A0,0 0 0 0 269,288.8906 L269,257.7344 L259,247.7344 L152,247.7344 A0,0 0 0 0 152,247.7344 " fill="#222222" style="stroke: #FFFFFF; stroke-width: 1.0;"/><path d="M259,247.7344 L259.1868,247.7344 L258.6317,249.7344 L259.1718,251.7344 L259.3553,253.7344 L258.3659,255.7344 L259,257.7344 L259,257.6653 L261,257.3553 L263,257.3935 L265,257.6738 L267,257.1198 L269,257.7344 L269.348,258.0824 L266.6038,255.3382 L264.8757,253.6101 L263.2715,252.0059 L260.9461,249.6805 L259,247.7344 " fill="#222222" style="stroke: #FFFFFF; stroke-width: 1.0;"/><text fill="#FFFF00" font-family="sans-serif" font-size="20" font-weight="bold" lengthAdjust="spacingAndGlyphs" textLength="72" x="161" y="276.4961">&lt;texto&gt;</text><text fill="#00FFFF" font-family="sans-serif" font-size="20" font-weight="bold" lengthAdjust="spacingAndGlyphs" textLength="12" x="239" y="276.4961">..</text><polygon fill="#222222" points="651.5,146.7344,651.5,146.9446,661.1,146.3201,670.7,146.9277,680.3,147.1341,689.9,146.021,699.5,146.7344,699.4901,146.7104,701.2134,147.3353,702.9866,148.0807,704.7946,148.9101,706.4829,149.4504,708.3388,150.3955,708.5093,150.4662,708.877,152.0829,709.7424,153.9058,710.6686,155.7539,711.2414,157.4557,712,159.2344,712.0227,159.2344,711.9894,162.4656,712.0595,165.6969,712.0797,168.9281,712.1952,172.1594,712,175.3906,712.2067,175.4762,711.477,177.245,710.6139,178.9586,709.9461,180.7531,709.2873,182.5513,708.3388,184.2295,708.2468,184.0074,706.6576,185.1706,704.7655,185.6026,703.1036,186.5906,701.2046,187.0059,699.5,187.8906,699.5,187.8221,689.9,188.6322,680.3,187.8419,670.7,187.9959,661.1,188.2293,651.5,187.8906,651.5531,188.0188,649.7317,187.1572,648.0011,186.5146,646.1237,185.5176,644.4652,185.0493,642.6612,184.2295,642.83,184.2994,642.0658,182.5184,641.3855,180.7721,640.3157,178.8645,639.5314,177.0752,639,175.3906,638.7929,175.3906,638.9804,172.1594,638.9345,168.9281,639.2271,165.6969,638.9418,162.4656,639,159.2344,638.8944,159.1906,639.8025,157.4957,640.2591,155.6138,641.0368,153.8649,642.1288,152.2461,642.6612,150.3955,642.7167,150.5297,644.5226,149.8895,646.1557,148.832,648.0052,148.2971,649.8075,147.6484,651.5,146.7344" style="stroke: #FFFFFF; stroke-width: 1.5;"/><text fill="#FFFFFF" font-family="sans-serif" font-size="20" font-weight="bold" lengthAdjust="spacingAndGlyphs" textLength="57" x="647" y="175.4961">Medio</text><path d="M747,146.7344 L747,163.2344 L712.113,167.2344 L747,171.2344 L747,187.8906 A0,0 0 0 0 747,187.8906 L786,187.8906 A0,0 0 0 0 786,187.8906 L786,156.7344 L776,146.7344 L747,146.7344 A0,0 0 0 0 747,146.7344 " fill="#222222" style="stroke: #FFFFFF; stroke-width: 1.0;"/><path d="M776,146.7344 L776.1868,146.7344 L775.6317,148.7344 L776.1718,150.7344 L776.3553,152.7344 L775.3659,154.7344 L776,156.7344 L776,156.6653 L778,156.3553 L780,156.3935 L782,156.6738 L784,156.1198 L786,156.7344 L786.348,157.0824 L783.6038,154.3382 L781.8757,152.6101 L780.2715,151.0059 L777.9461,148.6805 L776,146.7344 " fill="#222222" style="stroke: #FFFFFF; stroke-width: 1.0;"/><text fill="#00FFFF" font-family="sans-serif" font-size="20" font-weight="bold" lengthAdjust="spacingAndGlyphs" textLength="12" x="756" y="175.4961">..</text><polygon fill="#222222" points="388.5,247.7344,388.5,247.9446,398.7,247.3201,408.9,247.9277,419.1,248.1341,429.3,247.021,439.5,247.6567,449.7,247.3079,459.9,247.3509,470.1,247.6662,480.3,247.043,490.5,247.7344,490.5706,247.9049,492.1874,248.2725,494.0103,249.1379,495.8584,250.0641,497.5601,250.6369,499.3388,251.3955,499.3598,251.4042,500.0612,253.1592,500.8583,254.9538,501.6092,256.7293,502.4481,258.5413,503,260.2344,503.2237,260.2344,503.2264,263.4656,503.0849,266.6969,503.1545,269.9281,503.2341,273.1594,503,276.3906,502.7779,276.2986,502.4767,278.2449,501.4442,279.8883,500.9677,281.762,499.9186,283.3985,499.3388,285.2295,499.3301,285.2084,497.6657,286.1901,495.7971,286.6789,494.049,287.4586,492.311,288.2627,490.5,288.8906,490.5,289.3069,480.3,288.8867,470.1,289.1778,459.9,288.3182,449.7,289.175,439.5,289.4388,429.3,289.3352,419.1,289.5036,408.9,288.4075,398.7,288.2384,388.5,288.8906,388.4207,288.6993,386.7247,288.1403,384.9394,287.3656,383.2836,286.9038,381.4067,285.9079,379.6612,285.2295,379.5555,285.1857,378.9992,283.4908,377.9913,281.6089,377.3046,279.8599,376.9321,278.2412,376,276.3906,376.1452,276.3906,376.2448,273.1594,375.8927,269.9281,376.1064,266.6969,376.1968,263.4656,376,260.2344,375.8545,260.1741,376.7027,258.4544,377.5033,256.7149,378.3974,255.0142,378.9276,253.1628,379.6612,251.3955,379.7202,251.538,381.3583,250.4928,383.1103,249.7225,385.0287,249.3539,386.6408,248.2458,388.5,247.7344" style="stroke: #FFFFFF; stroke-width: 1.5;"/><text fill="#FFFFFF" font-family="sans-serif" font-size="20" font-weight="bold" lengthAdjust="spacingAndGlyphs" textLength="111" x="384" y="276.4961">MedioTitulo</text><path d="M538,247.7344 L538,264.2344 L503.281,268.2344 L538,272.2344 L538,288.8906 A0,0 0 0 0 538,288.8906 L655,288.8906 A0,0 0 0 0 655,288.8906 L655,257.7344 L645,247.7344 L538,247.7344 A0,0 0 0 0 538,247.7344 " fill="#222222" style="stroke: #FFFFFF; stroke-width: 1.0;"/><path d="M645,247.7344 L645.1868,247.7344 L644.6317,249.7344 L645.1718,251.7344 L645.3553,253.7344 L644.3659,255.7344 L645,257.7344 L645,257.6653 L647,257.3553 L649,257.3935 L651,257.6738 L653,257.1198 L655,257.7344 L655.348,258.0824 L652.6038,255.3382 L650.8757,253.6101 L649.2715,252.0059 L646.9461,249.6805 L645,247.7344 " fill="#222222" style="stroke: #FFFFFF; stroke-width: 1.0;"/><text fill="#FFFF00" font-family="sans-serif" font-size="20" font-weight="bold" lengthAdjust="spacingAndGlyphs" textLength="72" x="547" y="276.4961">&lt;texto&gt;</text><text fill="#00FFFF" font-family="sans-serif" font-size="20" font-weight="bold" lengthAdjust="spacingAndGlyphs" textLength="12" x="625" y="276.4961">..</text><polygon fill="#222222" points="834,146.7344,834,146.9446,844.1667,146.3201,854.3333,146.9277,864.5,147.1341,874.6667,146.021,884.8333,146.6567,895,146.7344,894.9456,146.603,896.7188,147.3485,898.5268,148.1779,900.2151,148.7182,902.1417,149.8338,903.8388,150.3955,903.6447,150.3151,904.5102,152.1381,905.4363,153.9862,906.0091,155.6879,906.7888,157.4753,907.5,159.2344,907.4894,159.2344,907.5595,162.4656,907.5797,165.6969,907.6952,168.9281,907.7237,172.1594,907.5,175.3906,907.7092,175.4773,906.8462,177.1909,906.1783,178.9853,905.5196,180.7835,904.349,182.3697,903.8388,184.2295,903.9254,184.4384,902.0332,184.8704,900.3714,185.8583,898.4724,186.2737,896.759,187.1373,895,187.8906,895,188.6322,884.8333,187.8419,874.6667,187.9959,864.5,188.2293,854.3333,188.3069,844.1667,187.8867,834,187.8906,834.0366,187.9791,832.1592,186.9821,830.5007,186.5137,828.7666,185.8627,826.9856,185.0986,825.1612,184.2295,825.35,184.3077,824.2802,182.4001,823.4959,180.6107,822.7731,178.8469,822.2141,177.1509,821.5,175.3906,821.4345,175.3906,821.7271,172.1594,821.4418,168.9281,821.3856,165.6969,821.5761,162.4656,821.5,159.2344,821.2946,159.1493,822.0724,157.4004,823.1643,155.7816,823.8309,153.9866,824.6551,152.257,825.1612,150.3955,825.1201,150.2964,826.9696,149.7616,828.772,149.1129,830.4042,148.0534,832.22,147.4371,834,146.7344" style="stroke: #FFFFFF; stroke-width: 1.5;"/><text fill="#FFFFFF" font-family="sans-serif" font-size="20" font-weight="bold" lengthAdjust="spacingAndGlyphs" textLength="70" x="829.5" y="175.4961">Grueso</text><path d="M943,146.7344 L943,163.2344 L907.758,167.2344 L943,171.2344 L943,187.8906 A0,0 0 0 0 943,187.8906 L982,187.8906 A0,0 0 0 0 982,187.8906 L982,156.7344 L972,146.7344 L943,146.7344 A0,0 0 0 0 943,146.7344 " fill="#222222" style="stroke: #FFFFFF; stroke-width: 1.0;"/><path d="M972,146.7344 L972.1868,146.7344 L971.6317,148.7344 L972.1718,150.7344 L972.3553,152.7344 L971.3659,154.7344 L972,156.7344 L972,156.6653 L974,156.3553 L976,156.3935 L978,156.6738 L980,156.1198 L982,156.7344 L982.348,157.0824 L979.6038,154.3382 L977.8757,152.6101 L976.2715,151.0059 L973.9461,148.6805 L972,146.7344 " fill="#222222" style="stroke: #FFFFFF; stroke-width: 1.0;"/><text fill="#00FFFF" font-family="sans-serif" font-size="20" font-weight="bold" lengthAdjust="spacingAndGlyphs" textLength="12" x="952" y="175.4961">..</text><polygon fill="#222222" points="774,247.7344,774,247.9446,783.5833,247.3201,793.1667,247.9277,802.75,248.1341,812.3333,247.021,821.9167,247.6567,831.5,247.3079,841.0833,247.3509,850.6667,247.6662,860.25,247.043,869.8333,248.288,879.4167,247.1041,889,247.7344,888.9748,247.6735,890.8229,248.5996,892.5246,249.1724,894.312,249.9521,896.067,250.6535,897.8388,251.3955,897.8938,251.4183,898.6447,253.1938,899.4837,255.0058,900.2422,256.7844,900.977,258.5533,901.5,260.2344,901.5849,260.2344,901.6545,263.4656,901.7341,266.6969,901.2596,269.9281,901.7262,273.1594,901.5,276.3906,901.4087,276.3528,900.9322,278.2265,899.8831,279.863,899.2822,281.6852,898.7995,283.5563,897.8388,285.2295,897.8326,285.2145,896.0845,285.9941,894.3465,286.7982,892.5886,287.5543,890.7673,288.1572,889,288.8906,889,289.1778,879.4167,288.3182,869.8333,289.175,860.25,289.4388,850.6667,289.3352,841.0833,289.5036,831.5,288.4075,821.9167,288.2384,812.3333,288.2692,802.75,288.8317,793.1667,288.6941,783.5833,289.572,774,288.8906,773.9777,288.8368,772.1885,288.0527,770.4936,287.4965,768.6116,286.4886,766.8627,285.8018,765.1612,285.2295,765.361,285.3122,764.5631,283.5173,763.9229,281.7876,762.8654,279.8851,762.3305,278.1991,761.5,276.3906,761.6968,276.3906,761.3425,273.1594,761.468,269.9281,761.542,266.6969,761.7173,263.4656,761.5,260.2344,761.4987,260.2338,762.3747,258.5256,762.7939,256.6282,763.4881,254.8447,764.584,253.2275,765.1612,251.3955,765.0697,251.1748,766.9939,250.82,768.7231,249.9947,770.4303,249.1163,772.1871,248.3577,774,247.7344" style="stroke: #FFFFFF; stroke-width: 1.5;"/><text fill="#FFFFFF" font-family="sans-serif" font-size="20" font-weight="bold" lengthAdjust="spacingAndGlyphs" textLength="124" x="769.5" y="276.4961">GruesoTitulo</text><path d="M937,247.7344 L937,264.2344 L901.648,268.2344 L937,272.2344 L937,288.8906 A0,0 0 0 0 937,288.8906 L1054,288.8906 A0,0 0 0 0 1054,288.8906 L1054,257.7344 L1044,247.7344 L937,247.7344 A0,0 0 0 0 937,247.7344 " fill="#222222" style="stroke: #FFFFFF; stroke-width: 1.0;"/><path d="M1044,247.7344 L1044.1868,247.7344 L1043.6317,249.7344 L1044.1718,251.7344 L1044.3553,253.7344 L1043.3659,255.7344 L1044,257.7344 L1044,257.6653 L1046,257.3553 L1048,257.3935 L1050,257.6738 L1052,257.1198 L1054,257.7344 L1054.348,258.0824 L1051.6038,255.3382 L1049.8757,253.6101 L1048.2715,252.0059 L1045.9461,249.6805 L1044,247.7344 " fill="#222222" style="stroke: #FFFFFF; stroke-width: 1.0;"/><text fill="#FFFF00" font-family="sans-serif" font-size="20" font-weight="bold" lengthAdjust="spacingAndGlyphs" textLength="72" x="946" y="276.4961">&lt;texto&gt;</text><text fill="#00FFFF" font-family="sans-serif" font-size="20" font-weight="bold" lengthAdjust="spacingAndGlyphs" textLength="12" x="1024" y="276.4961">..</text><polygon fill="#222222" points="1200,146.7344,1200,146.9446,1209,146.3201,1218,146.9277,1227,147.1341,1236,146.021,1245,146.7344,1244.9901,146.7104,1246.7134,147.3353,1248.4866,148.0807,1250.2946,148.9101,1251.9829,149.4504,1253.8388,150.3955,1254.0093,150.4662,1254.377,152.0829,1255.2424,153.9058,1256.1686,155.7539,1256.7414,157.4557,1257.5,159.2344,1257.5227,159.2344,1257.4894,162.4656,1257.5595,165.6969,1257.5797,168.9281,1257.6952,172.1594,1257.5,175.3906,1257.7067,175.4762,1256.977,177.245,1256.1139,178.9586,1255.4461,180.7531,1254.7873,182.5513,1253.8388,184.2295,1253.7468,184.0074,1252.1576,185.1706,1250.2655,185.6026,1248.6036,186.5906,1246.7046,187.0059,1245,187.8906,1245,187.8221,1236,188.6322,1227,187.8419,1218,187.9959,1209,188.2293,1200,187.8906,1200.0531,188.0188,1198.2317,187.1572,1196.5011,186.5146,1194.6237,185.5176,1192.9652,185.0493,1191.1612,184.2295,1191.33,184.2994,1190.5658,182.5184,1189.8855,180.7721,1188.8157,178.8645,1188.0314,177.0752,1187.5,175.3906,1187.2929,175.3906,1187.4804,172.1594,1187.4345,168.9281,1187.7271,165.6969,1187.4418,162.4656,1187.5,159.2344,1187.3944,159.1906,1188.3025,157.4957,1188.7591,155.6138,1189.5368,153.8649,1190.6288,152.2461,1191.1612,150.3955,1191.2167,150.5297,1193.0226,149.8895,1194.6557,148.832,1196.5052,148.2971,1198.3075,147.6484,1200,146.7344" style="stroke: #FFFFFF; stroke-width: 1.5;"/><text fill="#FFFFFF" font-family="sans-serif" font-size="20" font-weight="bold" lengthAdjust="spacingAndGlyphs" textLength="54" x="1195.5" y="175.4961">Doble</text><path d="M1293,146.7344 L1293,163.2344 L1257.66,167.2344 L1293,171.2344 L1293,187.8906 A0,0 0 0 0 1293,187.8906 L1332,187.8906 A0,0 0 0 0 1332,187.8906 L1332,156.7344 L1322,146.7344 L1293,146.7344 A0,0 0 0 0 1293,146.7344 " fill="#222222" style="stroke: #FFFFFF; stroke-width: 1.0;"/><path d="M1322,146.7344 L1322.1868,146.7344 L1321.6317,148.7344 L1322.1718,150.7344 L1322.3553,152.7344 L1321.3659,154.7344 L1322,156.7344 L1322,156.6653 L1324,156.3553 L1326,156.3935 L1328,156.6738 L1330,156.1198 L1332,156.7344 L1332.348,157.0824 L1329.6038,154.3382 L1327.8757,152.6101 L1326.2715,151.0059 L1323.9461,148.6805 L1322,146.7344 " fill="#222222" style="stroke: #FFFFFF; stroke-width: 1.0;"/><text fill="#00FFFF" font-family="sans-serif" font-size="20" font-weight="bold" lengthAdjust="spacingAndGlyphs" textLength="12" x="1302" y="175.4961">..</text><polygon fill="#222222" points="1173,247.7344,1173,247.9446,1182.9,247.3201,1192.8,247.9277,1202.7,248.1341,1212.6,247.021,1222.5,247.6567,1232.4,247.3079,1242.3,247.3509,1252.2,247.6662,1262.1,247.043,1272,247.7344,1272.0706,247.9049,1273.6874,248.2725,1275.5103,249.1379,1277.3584,250.0641,1279.0601,250.6369,1280.8388,251.3955,1280.8598,251.4042,1281.5612,253.1592,1282.3583,254.9538,1283.1092,256.7293,1283.9481,258.5413,1284.5,260.2344,1284.7237,260.2344,1284.7264,263.4656,1284.5849,266.6969,1284.6545,269.9281,1284.7341,273.1594,1284.5,276.3906,1284.2779,276.2986,1283.9767,278.2449,1282.9442,279.8883,1282.4677,281.762,1281.4186,283.3985,1280.8388,285.2295,1280.8301,285.2084,1279.1657,286.1901,1277.2971,286.6789,1275.549,287.4586,1273.811,288.2627,1272,288.8906,1272,289.3069,1262.1,288.8867,1252.2,289.1778,1242.3,288.3182,1232.4,289.175,1222.5,289.4388,1212.6,289.3352,1202.7,289.5036,1192.8,288.4075,1182.9,288.2384,1173,288.8906,1172.9207,288.6993,1171.2247,288.1403,1169.4394,287.3656,1167.7836,286.9038,1165.9067,285.9079,1164.1612,285.2295,1164.0555,285.1857,1163.4992,283.4908,1162.4913,281.6089,1161.8046,279.8599,1161.4321,278.2412,1160.5,276.3906,1160.6452,276.3906,1160.7448,273.1594,1160.3927,269.9281,1160.6064,266.6969,1160.6968,263.4656,1160.5,260.2344,1160.3545,260.1741,1161.2027,258.4544,1162.0033,256.7149,1162.8974,255.0142,1163.4276,253.1628,1164.1612,251.3955,1164.2202,251.538,1165.8583,250.4928,1167.6103,249.7225,1169.5287,249.3539,1171.1408,248.2458,1173,247.7344" style="stroke: #FFFFFF; stroke-width: 1.5;"/><text fill="#FFFFFF" font-family="sans-serif" font-size="20" font-weight="bold" lengthAdjust="spacingAndGlyphs" textLength="108" x="1168.5" y="276.4961">DobleTitulo</text><path d="M1320,247.7344 L1320,264.2344 L1284.66,268.2344 L1320,272.2344 L1320,288.8906 A0,0 0 0 0 1320,288.8906 L1437,288.8906 A0,0 0 0 0 1437,288.8906 L1437,257.7344 L1427,247.7344 L1320,247.7344 A0,0 0 0 0 1320,247.7344 " fill="#222222" style="stroke: #FFFFFF; stroke-width: 1.0;"/><path d="M1427,247.7344 L1427.1868,247.7344 L1426.6317,249.7344 L1427.1718,251.7344 L1427.3553,253.7344 L1426.3659,255.7344 L1427,257.7344 L1427,257.6653 L1429,257.3553 L1431,257.3935 L1433,257.6738 L1435,257.1198 L1437,257.7344 L1437.348,258.0824 L1434.6038,255.3382 L1432.8757,253.6101 L1431.2715,252.0059 L1428.9461,249.6805 L1427,247.7344 " fill="#222222" style="stroke: #FFFFFF; stroke-width: 1.0;"/><text fill="#FFFF00" font-family="sans-serif" font-size="20" font-weight="bold" lengthAdjust="spacingAndGlyphs" textLength="72" x="1329" y="276.4961">&lt;texto&gt;</text><text fill="#00FFFF" font-family="sans-serif" font-size="20" font-weight="bold" lengthAdjust="spacingAndGlyphs" textLength="12" x="1407" y="276.4961">..</text><polygon fill="#FFFFFF" points="779.5552,79.1668,778.0894,81.1696,776.3556,84.1032,773.876,86.0802,771.2703,87.1613,769.1927,87.2551,766.5224,85.9031,764.0029,85.0198,762.0905,83.2264,761.0873,81.1733,760.4924,79.5385,759.9096,77.4032,758.9636,75.5657,759.6906,73.7717,760.3275,71.8064,762.7175,70.2521,764.3991,68.2354,766.4804,67.5657,768.9547,66.989,772.1276,67.3316,773.8655,68.1512,775.8861,68.5227,778.3429,71.0398,779.1993,73.6971,779.5714,75.5101,779.15,78.4979" style="stroke: none; stroke-width: 1.0;"/><polygon fill="none" points="779.5552,361.1668,778.0894,363.1696,776.3556,366.1032,773.876,368.0802,771.2703,369.1613,769.1927,369.2551,766.5224,367.9031,764.0029,367.0198,762.0905,365.2264,761.0873,363.1733,760.4924,361.5385,759.9096,359.4032,758.9636,357.5657,759.6906,355.7717,760.3275,353.8064,762.7175,352.2521,764.3991,350.2354,766.4804,349.5657,768.9547,348.989,772.1276,349.3316,773.8655,350.1512,775.8861,350.5227,778.3429,353.0398,779.1993,355.6971,779.5714,357.5101,779.15,360.4979" style="stroke: #FFFFFF; stroke-width: 1.0;"/><polygon fill="#FFFFFF" points="776.0331,360.6938,775.1536,361.8955,774.1134,363.6557,772.6256,364.8419,771.0622,365.4905,769.8156,365.5468,768.2135,364.7356,766.7017,364.2056,765.5543,363.1296,764.9524,361.8977,764.5955,360.9168,764.2458,359.6357,763.6782,358.5332,764.1143,357.4567,764.4965,356.2776,765.9305,355.345,766.9394,354.135,768.1882,353.7332,769.6728,353.3871,771.5766,353.5927,772.6193,354.0845,773.8317,354.3074,775.3057,355.8176,775.8196,357.412,776.0429,358.4998,775.79,360.2925" style="stroke: none; stroke-width: 1.0;"/><!--link *start to Fino--><path d="M759.386,78.6094 L759.395,78.7024 L754.6181,78.884 L749.8937,79.6107 L745.1522,80.1599 L740.3545,80.1254 L735.6346,80.8989 L735.6309,80.8645 L728.5452,81.4774 L721.4783,82.2633 L714.4244,83.1695 L707.3256,83.6611 L700.2898,84.7335 L700.3188,84.9779 L695.9909,84.962 L691.7476,85.6595 L687.5148,86.4441 L683.2217,86.7223 L678.9604,87.2668 L678.9642,87.2969 L674.2787,87.8454 L669.6107,88.5309 L664.9342,89.1503 L660.2737,89.8958 L655.5612,90.2302 L655.6012,90.5257 L650.5631,91.211 L645.4993,91.7056 L640.4732,92.4792 L635.4489,93.266 L630.3685,93.6383 L630.3226,93.3211 L625.0697,94.7102 L619.6656,95.0549 L614.3765,96.1936 L608.969,96.5145 L603.6585,97.5058 L603.6538,97.4757 L598.1189,98.6997 L592.4747,99.2209 L586.895,100.1568 L581.3207,101.1276 L575.7074,101.8471 L575.7379,102.0296 L569.9239,102.8114 L564.162,103.905 L558.3159,104.4942 L552.5954,105.8358 L546.7914,106.6771 L546.8346,106.9169 L540.9055,107.9381 L534.9978,109.0785 L528.9905,109.6656 L523.0562,110.6583 L517.1867,112.0102 L517.1338,111.7391 L511.1782,113.1547 L505.1631,114.2648 L499.2343,115.818 L493.1581,116.6147 L487.1695,117.861 L487.1379,117.7119 L481.1598,119.2369 L475.0467,120.1244 L469.0296,121.4653 L463.1064,123.2498 L457.016,124.2443 L457.0586,124.4332 L454.0796,125.2419 L450.9679,125.4631 L448.0223,126.4202 L445.0406,127.2169 L441.9745,127.6401 L441.9262,127.4358 L438.9703,128.3055 L435.9985,129.1084 L433.0578,130.0427 L429.9964,130.4658 L427.0025,131.1745 L427.0518,131.3741 L423.9698,131.6705 L420.983,132.3522 L418.1354,133.5967 L415.0316,133.805 L412.1345,134.8493 L412.1912,135.0683 L409.2116,135.7016 L406.2128,136.2609 L403.2574,136.9873 L400.4021,138.1003 L397.4051,138.6663 L397.3701,138.538 L394.5629,139.7124 L391.518,140.0137 L388.7433,141.3078 L385.8165,142.0429 L382.8487,142.6274 L382.8787,142.7321 L379.9848,143.469 L377.1981,144.5807 L374.3145,145.3538 L371.3904,145.9853 L368.5,146.7344 L368.5384,146.8472 L366.0058,147.521 L363.6513,148.7187 L361.0953,149.3237 L358.6223,150.1726 L356.122,150.9414 " fill="none" style="stroke: #FFFFFF; stroke-width: 1.0;"/><polygon fill="#FFFFFF" points="351.331,152.8204,351.3341,152.8904,353.2927,152.77,355.2695,153.06,357.2404,153.2164,359.1917,152.9334,361.1701,153.2586,361.1597,153.2348,360.0764,152.6756,359.0453,152.236,358.0505,151.8796,356.9305,151.2365,355.9859,150.995,356.155,151.0688,356.2461,149.8741,356.8309,148.8949,357.476,147.9421,357.7706,146.8362,358.2495,145.8108,358.2657,145.8267,356.8582,147.2052,355.5244,148.6564,354.1551,150.0725,352.8536,151.5556,351.331,152.8204" style="stroke: #FFFFFF; stroke-width: 1.0;"/><!--link Fino to FinoTitulo--><path d="M293.822,179.1124 L293.9214,179.3744 L284.3697,182.1069 L275.4006,186.3754 L266.2417,190.1438 L256.459,192.2672 L247.5031,196.5708 L238.0818,199.647 L228.8457,203.2116 L219.7384,207.1158 L210.1873,209.8499 L201.5196,214.9131 L191.7033,216.9482 L182.6514,220.9985 L173.6928,225.2946 L164.1915,228.1602 L155.008,231.8632 L145.7042,235.2494 L136.5473,239.0228 L127.3195,242.6094 L117.95,245.8224 " fill="none" style="stroke: #FFFFFF; stroke-width: 1.0;"/><polygon fill="#FFFFFF" points="113.119,247.6544,113.1229,247.7243,115.078,247.6262,117.056,247.9381,119.0266,248.1164,120.9726,247.8556,122.9526,248.2027,122.9419,248.1791,121.8625,247.6088,120.8367,247.1576,119.8481,246.7891,118.7312,246.1354,117.794,245.8812,117.9623,245.957,118.0668,244.7633,118.6625,243.7908,119.3182,242.8452,119.6252,241.7427,120.1156,240.7227,120.1316,240.7388,118.7087,242.1015,117.3588,243.5376,115.9737,244.9383,114.6557,246.4067,113.119,247.6544" style="stroke: #FFFFFF; stroke-width: 1.0;"/><!--link FinoTitulo to *end--><path d="M117.099,285.0242 L117.1185,285.1155 L120.5408,285.5861 L124.0773,286.5923 L127.5766,287.424 L130.9537,287.6822 L134.5,288.7344 L134.4938,288.7004 L139.0905,289.3896 L143.7184,290.2501 L148.3679,291.2296 L152.9427,291.7988 L157.6222,292.9428 L157.6642,293.1853 L162.2576,293.4772 L166.9734,294.4769 L171.7043,295.5631 L176.3482,296.1467 L181.0378,296.9946 L181.0427,297.0245 L185.7665,297.76 L190.5128,298.6318 L195.2482,299.4379 L200.0044,300.3693 L204.6931,300.8919 L204.7394,301.1865 L209.5083,301.9392 L214.2473,302.5018 L219.03,303.3425 L223.8148,304.1964 L228.5347,304.6371 L228.4872,304.3201 L233.3743,305.6543 L238.1048,305.9448 L242.9544,307.0288 L247.6815,307.2957 L252.5089,308.2323 L252.5046,308.2022 L257.3664,309.2481 L262.1272,309.5899 L266.9476,310.3472 L271.773,311.1394 L276.5623,311.68 L276.6362,312.23 L286.1876,312.9671 L295.8653,314.6441 L305.3387,314.8004 L315.1167,317.225 L324.6923,318.1414 L324.7818,318.8669 L334.3256,319.9093 L343.9139,321.3119 L353.2957,321.0411 L362.8288,321.997 L372.496,324.0397 L372.4024,323.2165 L381.897,325.0323 L391.2861,325.9206 L400.8283,328.1543 L410.1091,328.0908 L419.5452,329.3928 L419.4974,328.9379 L428.7503,330.6608 L437.7987,330.4391 L446.9925,331.6002 L456.3287,334.1143 L465.4114,334.219 L465.4302,334.4118 L474.2941,335.4074 L483.0994,335.8037 L491.978,336.9507 L500.8407,337.9342 L509.6661,338.5365 L509.6472,338.3274 L518.1052,339.2595 L526.5571,340.123 L535.0212,341.1211 L543.4378,341.5962 L551.8809,342.3634 L551.8982,342.5683 L559.8095,342.789 L567.7542,343.4053 L575.7477,344.5991 L583.6513,344.7295 L591.6274,345.7179 L591.6452,345.9434 L599.0046,346.3895 L606.358,346.7592 L613.7249,347.3012 L621.1232,348.2413 L628.4772,348.6181 L628.4674,348.4854 L635.2013,349.3732 L641.869,349.3587 L648.612,350.3702 L655.3125,350.804 L662.0017,351.0822 L662.0234,351.4081 L671.2325,351.7604 L680.5194,353.2797 L689.736,353.7448 L698.9231,353.7691 L708.1585,354.5161 L717.3614,354.7748 L717.358,354.717 L724.7635,355.5259 L732.1324,355.71 L739.5164,356.1511 L746.8796,356.2378 L754.279,356.941 " fill="none" style="stroke: #FFFFFF; stroke-width: 1.0;"/><polygon fill="#FFFFFF" points="759.333,357.2137,759.3649,357.2761,757.5158,356.1951,755.8534,355.48,754.1303,354.6457,752.2072,353.4197,750.5609,352.736,750.5416,352.7187,751.2109,353.4829,751.9775,354.3342,752.8116,355.2463,753.4129,355.9493,754.3402,356.9451,754.4635,357.0824,753.358,357.5446,752.6125,358.4078,751.911,359.3199,750.9538,359.9473,750.1311,360.7245,750.1392,360.7457,751.9677,360.0124,753.8331,359.3757,755.6807,358.6925,757.5622,358.0982,759.333,357.2137" style="stroke: #FFFFFF; stroke-width: 1.0;"/><!--link Fino to *end--><path d="M322.377,187.8124 L322.4703,187.8177 L322.3202,190.0078 L322.7168,192.2292 L322.9353,194.4405 L322.5684,196.618 L323.012,198.8422 L322.9776,198.8386 L323.0876,201.3237 L323.3707,203.8271 L323.7742,206.3433 L323.7629,208.8156 L324.3326,211.3493 L324.5754,211.3893 L324.4998,213.9982 L325.133,216.7239 L325.8528,219.4638 L326.0693,222.1208 L326.5505,224.8215 L326.58,224.8285 L327.202,227.6032 L327.9583,230.41 L328.6498,233.2013 L329.4649,236.0221 L329.877,238.7466 L330.1598,238.8414 L331.0926,241.6158 L331.843,244.329 L332.8604,247.1317 L333.8903,249.9386 L334.5237,252.6126 L334.233,252.4775 L336.0329,255.3987 L336.8756,257.875 L338.4459,260.6894 L339.2669,263.1557 L340.7021,265.9073 L340.6766,265.8908 L342.563,268.529 L343.8526,270.7801 L345.4943,273.2596 L347.1657,275.7583 L348.6237,278.1186 L348.7592,278.2446 L350.5977,280.2406 L352.6677,282.4519 L354.3632,284.3148 L356.6173,286.6973 L358.5,288.7344 L358.6395,288.9341 L361.3551,290.8108 L364.1399,292.7867 L366.6029,294.3018 L369.3019,296.1546 L372.2097,298.3067 L372.0899,298.0579 L375.7946,300.0147 L379.3643,301.6912 L383.1297,303.7743 L386.5609,305.163 L390.1908,306.9645 L390.136,306.8222 L392.3081,307.8592 L394.2463,308.2879 L396.3508,309.1491 L398.618,310.4337 L400.5955,310.9645 L400.6573,311.148 L402.9492,312.0315 L405.0489,312.3442 L407.3893,313.3718 L409.6773,314.2437 L411.8431,314.7526 L411.7831,314.5514 L414.234,315.4282 L416.6652,316.2391 L419.1351,317.1794 L421.4549,317.6164 L423.8585,318.3346 L423.9113,318.5332 L426.3368,318.773 L428.8644,319.3962 L431.541,320.5797 L433.9431,320.7317 L436.5667,321.7159 L436.6193,321.9359 L439.2533,322.4425 L441.8695,322.8746 L444.5258,323.4748 L447.275,324.4633 L449.8928,324.9022 L449.8647,324.7722 L452.7222,325.7588 L455.3885,325.8609 L458.2721,326.9686 L461.0334,327.5102 L463.7618,327.8992 L463.7827,328.0061 L466.6332,328.4825 L469.5587,329.3414 L472.4163,329.8547 L475.2457,330.2236 L478.0985,330.7124 L478.1195,330.8298 L481.0343,331.1824 L484.0465,332.0799 L486.9485,332.3612 L489.8958,332.896 L492.8282,333.3475 L492.7845,333.0806 L495.8086,333.6622 L498.8853,334.5653 L501.8876,335.0135 L504.8631,335.2987 L507.8757,335.81 L507.8545,335.6684 L510.9193,336.1729 L513.9466,336.4266 L517.0773,337.3696 L520.1568,337.9715 L523.1661,338.1056 L523.1981,338.3373 L526.3,338.8384 L529.3411,338.8991 L532.4464,339.4245 L535.5092,339.6423 L538.6244,340.2398 L538.6403,340.365 L541.7484,340.7443 L544.8758,341.2748 L547.9422,341.3257 L551.0577,341.7634 L554.1755,342.2183 L554.1976,342.4142 L560.42,343.1713 L566.5823,343.3969 L572.8144,344.2401 L579.0477,345.0941 L585.2564,345.7307 L585.2303,345.4604 L591.3821,346.4784 L597.4885,347.0275 L603.5836,347.4602 L609.7045,348.159 L615.8089,348.6875 L615.8358,349.0102 L621.6822,349.0381 L627.5902,349.8054 L633.4739,350.2817 L639.3525,350.6956 L645.233,351.1336 L645.2375,351.1961 L650.7758,351.58 L656.2915,351.649 L661.8378,352.1441 L667.375,352.5133 L672.9288,353.1139 L672.9305,353.1422 L678.0047,353.4649 L683.0802,353.8095 L688.1413,353.9205 L693.2209,354.3315 L698.2962,354.6734 L698.2934,354.62 L702.7975,355.1661 L707.2819,355.336 L711.7483,355.1679 L716.2458,355.5877 L720.7354,355.8568 L720.7246,355.6004 L727.4795,356.2685 L734.2242,356.6942 L740.9617,356.9495 L747.6821,356.7979 L754.429,357.275 " fill="none" style="stroke: #FFFFFF; stroke-width: 1.0;"/><polygon fill="#FFFFFF" points="759.573,357.4481,759.6036,357.5111,757.7407,356.4636,756.0571,355.7856,754.3152,354.9872,752.3811,353.7932,750.713,353.1469,750.694,353.1292,751.3817,353.8764,752.1647,354.7127,753.0141,355.611,753.6349,356.2956,754.5758,357.2795,754.7019,357.4143,753.6059,357.8986,752.8778,358.7765,752.1946,359.7024,751.2503,360.3489,750.4433,361.1424,750.4518,361.1635,752.2652,360.3936,754.1175,359.7198,755.951,358.9997,757.8203,358.3679,759.573,357.4481" style="stroke: #FFFFFF; stroke-width: 1.0;"/><!--link *start to Medio--><path d="M762.435,84.3864 L762.6271,84.5904 L755.147,90.4892 L748.793,97.584 L742.0723,104.2894 L734.1456,109.7138 L727.8173,116.8359 L720.5892,123.0023 L713.7192,129.5491 L707.098,136.3602 L700.251,142.9314 " fill="none" style="stroke: #FFFFFF; stroke-width: 1.0;"/><polygon fill="#FFFFFF" points="696.46,146.5004,696.4832,146.5665,698.2733,145.7186,700.1992,145.2583,702.0809,144.6718,703.8171,143.6702,705.7547,143.2432,705.7539,143.2173,704.6195,143.067,703.4891,143.0473,702.3614,143.1183,701.2243,142.8766,700.1004,143.0729,700.2848,143.0784,699.9244,141.9357,700.1026,140.8092,700.3465,139.6846,700.208,138.5486,700.2707,137.4186,700.2916,137.4274,699.4987,139.2308,698.8013,141.0743,698.0578,142.8985,697.4022,144.7596,696.46,146.5004" style="stroke: #FFFFFF; stroke-width: 1.0;"/><!--link Medio to MedioTitulo--><path d="M638.884,183.5944 L638.9924,183.8528 L629.4388,186.9575 L620.5207,191.5772 L611.3956,195.7035 L601.59,198.2075 L592.6864,202.8616 L583.275,206.3054 L574.0657,210.2308 L564.9968,214.4911 L555.4439,217.5974 L546.8546,223.0007 L537.0124,225.4176 L528.004,229.822 L519.0973,234.4688 L509.5988,237.7048 L500.4467,241.7667 L491.18,245.5554 " fill="none" style="stroke: #FFFFFF; stroke-width: 1.0;"/><polygon fill="#FFFFFF" points="486.375,247.5714,486.3765,247.6414,488.3414,247.4746,490.315,247.7183,492.2858,247.8284,494.2474,247.4987,496.2217,247.7777,496.2119,247.7537,495.1207,247.2179,494.0789,246.803,493.0714,246.4721,491.9456,245.8517,490.9856,245.6368,491.1564,245.7067,491.2193,244.5101,491.7809,243.5175,492.4034,242.5497,492.6718,241.4371,493.1264,240.4007,493.143,240.4163,491.7684,241.8276,490.4692,243.3098,489.1336,244.7578,487.8674,246.2711,486.375,247.5714" style="stroke: #FFFFFF; stroke-width: 1.0;"/><!--link MedioTitulo to *end--><path d="M503.127,286.2981 L503.1996,286.5688 L512.6719,288.3626 L522.5697,291.7433 L532.3289,294.6072 L541.6325,295.7719 L551.54,299.1886 L561.1075,301.3376 L570.8103,303.9911 L580.6072,306.9953 L590.0799,308.7909 L600.1978,312.9924 L609.4769,314.0658 L619.3142,317.221 L629.2197,320.63 L638.7288,322.5614 L648.47,325.3579 L658.1234,327.827 L667.884,330.6962 L677.5929,333.3724 L687.4005,336.4168 L697.118,339.1249 L706.8088,341.7336 L716.3501,343.7849 L726.1102,346.6521 L735.8806,349.5576 L745.077,350.3226 L755.014,353.8495 " fill="none" style="stroke: #FFFFFF; stroke-width: 1.0;"/><polygon fill="#FFFFFF" points="760.068,355.2048,760.1121,355.2592,758.4499,353.8583,757.0461,352.7766,755.5582,351.591,753.7936,350.0635,752.4119,349.0092,752.3895,348.9963,752.8542,349.9182,753.432,350.9053,754.0884,351.9378,754.4738,352.814,755.2388,353.9091,755.331,354.069,754.1538,354.2925,753.2459,354.9828,752.3708,355.7299,751.3046,356.1458,750.3389,356.736,750.3424,356.7584,752.2831,356.4192,754.2398,356.1823,756.1888,355.896,758.1525,355.7039,760.068,355.2048" style="stroke: #FFFFFF; stroke-width: 1.0;"/><!--link Medio to *end--><path d="M685.206,187.8004 L685.4571,187.9249 L689.0382,196.2782 L694.0911,205.3615 L698.6647,214.2071 L701.6623,222.2709 L706.7487,231.3708 L710.6592,239.8874 L715.0377,248.6362 L719.7415,257.5463 L723.3242,265.9004 L729.1384,275.3614 L732.0514,283.3832 L736.8951,292.3627 L741.9744,301.4591 L745.6831,309.8757 L750.1942,318.6902 L754.4016,327.3542 L758.9801,336.2022 L763.094,344.8197 " fill="none" style="stroke: #FFFFFF; stroke-width: 1.0;"/><polygon fill="#FFFFFF" points="765.453,349.5766,765.523,349.5795,765.2317,347.6027,765.3507,345.6433,765.336,343.6782,764.882,341.6945,765.0362,339.7365,765.0117,339.7283,764.5404,340.7634,764.1929,341.8401,763.9314,342.9459,763.3735,343.9518,763.2308,345.0975,763.2897,345.2724,762.0915,344.5374,761.0653,344.3129,760.0601,344.1507,758.9328,343.6261,757.8698,343.2921,757.8843,343.3096,759.3796,344.5408,760.941,345.8517,762.4706,347.1242,764.0609,348.47,765.453,349.5766" style="stroke: #FFFFFF; stroke-width: 1.0;"/><!--link *start to Grueso--><path d="M776.332,84.0994 L776.523,84.3044 L782.9937,90.2517 L790.5841,97.4011 L797.8099,104.159 L803.8365,109.6296 L811.4525,116.8063 L818.1737,123.0226 L825.251,129.6211 L832.5758,136.4853 L839.676,143.1084 " fill="none" style="stroke: #FFFFFF; stroke-width: 1.0;"/><polygon fill="#FFFFFF" points="843.538,146.7064,843.6025,146.7338,842.6392,144.84,842.0539,143.107,841.3455,141.3216,840.2325,139.3639,839.6796,137.6448,839.6537,137.6439,839.5775,138.7704,839.6318,139.9016,839.7769,141.036,839.6093,142.1593,839.8796,143.2981,839.8862,143.4825,838.7415,143.1281,837.616,143.3122,836.4927,143.562,835.356,143.4296,834.2263,143.4982,834.2337,143.5197,836.0852,144.1297,837.9704,144.8377,839.8393,145.4985,841.7393,146.2493,843.538,146.7064" style="stroke: #FFFFFF; stroke-width: 1.0;"/><!--link Grueso to GruesoTitulo--><path d="M857.98,187.7934 L858.2459,187.882 L854.4088,196.7604 L852.1302,206.1582 L849.3441,215.3869 L844.889,224.0593 L842.6459,233.4689 L839.697,242.6434 " fill="none" style="stroke: #FFFFFF; stroke-width: 1.0;"/><polygon fill="#FFFFFF" points="838.006,247.7154,838.0578,247.7626,839.2317,246.1673,840.7091,244.8488,842.0877,243.4402,843.1414,241.7351,844.6448,240.4403,844.6332,240.4172,843.5694,240.8194,842.564,241.3385,841.5993,241.9387,840.4945,242.2592,839.5859,242.9715,839.7509,243.0541,838.8917,241.8657,838.5144,240.9184,838.1959,240.0006,837.5353,238.9116,837.0547,237.9126,837.0773,237.9148,837.2343,239.8721,837.4944,241.8394,837.7048,243.802,838.01,245.7737,838.006,247.7154" style="stroke: #FFFFFF; stroke-width: 1.0;"/><!--link GruesoTitulo to *end--><path d="M817.74,288.8754 L817.9695,289.0362 L811.5641,296.7282 L806.5042,305.3629 L801.0062,313.6906 L794.0672,321.0089 L789.038,329.665 L782.9337,337.568 L777.676,346.0641 " fill="none" style="stroke: #FFFFFF; stroke-width: 1.0;"/><polygon fill="#FFFFFF" points="774.763,350.2223,774.7991,350.2823,776.3798,349.0886,778.1721,348.2469,779.8955,347.2906,781.3922,345.9573,783.2028,345.1458,783.1983,345.1203,782.0639,345.202,780.9521,345.4124,779.8562,345.7122,778.7059,345.7038,777.6317,346.1271,777.8134,346.1591,777.2285,344.9764,777.1742,343.8872,777.1847,342.8094,776.8185,341.6652,776.6504,340.556,776.6727,340.5603,776.2625,342.4872,775.9538,344.4339,775.5962,346.371,775.3321,348.3264,774.763,350.2223" style="stroke: #FFFFFF; stroke-width: 1.0;"/><!--link Grueso to *end--><path d="M907.738,181.9454 L907.7672,182.0341 L912.3258,183.2966 L917.0553,185.0794 L921.7292,186.6928 L926.22,187.749 L930.9643,189.5764 L930.9532,189.5437 L935.9778,191.1115 L941.0581,192.8442 L946.1771,194.6916 L951.1626,196.1438 L956.3352,198.1496 L956.4165,198.3818 L961.4524,199.711 L966.7259,201.7182 L972.0284,203.808 L977.1622,205.4166 L982.3847,207.2784 L982.3951,207.3069 L987.4322,209.1247 L992.5169,211.0721 L997.5786,212.957 L1002.6842,214.9612 L1007.6468,216.5765 L1007.7543,216.8547 L1010.1311,217.7764 L1012.4386,218.5188 L1014.8476,219.5238 L1017.2614,220.541 L1019.5244,221.1683 L1019.4045,220.871 L1021.8634,222.3458 L1023.9275,222.8418 L1026.2917,224.0819 L1028.3469,224.5556 L1030.6554,225.6575 L1030.6434,225.6295 L1032.8246,226.8285 L1034.7273,227.3729 L1036.7944,228.3036 L1038.8752,229.2667 L1040.8565,229.9959 L1040.9332,230.1643 L1042.6734,230.8222 L1044.5446,231.7678 L1046.2038,232.2479 L1048.1793,233.4223 L1049.9445,234.1351 L1050.0587,234.3503 L1052.8578,235.8072 L1055.7137,237.3708 L1058.3059,238.4381 L1061.0914,239.8693 L1064.048,241.6228 L1063.8729,241.4093 L1065.5218,242.8249 L1066.9734,243.9999 L1068.7113,245.5239 L1069.9604,246.452 L1071.5,247.7344 L1071.3666,247.6605 L1072.779,249.9312 L1073.6213,251.886 L1074.8689,254.0655 L1076.5133,256.4649 L1077.4513,258.4727 L1077.6405,258.5137 L1078.206,260.552 L1078.183,262.4626 L1078.8971,264.533 L1079.4507,266.5686 L1079.63,268.5231 L1079.4237,268.4839 L1079.2109,270.4964 L1078.9305,272.496 L1078.7828,274.5209 L1078.1192,276.4476 L1077.7437,278.4292 L1077.9196,278.5357 L1076.2845,280.3627 L1074.9888,282.3953 L1074.1889,284.7283 L1072.4762,286.5082 L1071.5,288.7344 L1071.6566,288.8976 L1069.8353,290.4582 L1067.9611,291.9634 L1066.2064,293.5934 L1064.7281,295.5115 L1062.8587,297.0219 L1062.7867,296.91 L1060.6211,298.773 L1057.9662,299.8748 L1055.8676,301.8421 L1053.4558,303.3221 L1050.9595,304.6709 L1051.0065,304.7691 L1048.0238,306.0962 L1045.2091,307.775 L1042.2426,309.136 L1039.2127,310.3642 L1036.2354,311.7027 L1036.2774,311.8142 L1032.7918,312.9357 L1029.501,314.5751 L1025.9899,315.6287 L1022.5694,316.9233 L1019.1191,318.1387 L1019.0397,317.8802 L1015.2511,319.1388 L1011.5582,320.7088 L1007.7299,321.8382 L1003.8531,322.8097 L1000.0435,324.0003 L1000.0064,323.862 L997.9908,324.4507 L995.9095,324.7946 L994.009,325.8116 L992.0189,326.4954 L989.9062,326.7224 L989.9624,326.9495 L987.8874,327.5395 L985.7057,327.698 L983.6367,328.3119 L981.4931,328.6244 L979.4414,329.3089 L979.4696,329.432 L977.3182,329.9065 L975.2008,330.5297 L972.9758,330.6815 L970.8376,331.2135 L968.7032,331.7625 L968.7441,331.9553 L966.564,332.4738 L964.273,332.469 L962.1108,333.0722 L959.951,333.6861 L957.7457,334.0859 L957.6948,333.8192 L953.3038,335.0935 L948.8246,335.9052 L944.3234,336.6019 L939.8723,337.5613 L935.3891,338.3526 L935.4426,338.672 L930.8493,338.971 L926.3784,340.0018 L921.8593,340.7445 L917.33,341.4256 L912.8046,342.1304 L912.8137,342.1924 L908.336,342.8424 L903.8121,343.1802 L899.3507,343.9405 L894.8708,344.5758 L890.4249,345.4408 L890.4286,345.469 L886.0816,346.0525 L881.7374,346.6578 L877.3627,347.0312 L873.0273,347.7025 L868.6828,348.3051 L868.6766,348.2521 L864.5786,349.0476 L860.4364,349.4692 L856.2546,349.5546 L852.1418,350.2246 L848.0113,350.7447 L847.9842,350.4896 L844.1912,351.2794 L840.3726,351.8281 L836.536,352.2071 L832.6563,352.1812 L828.8431,352.7809 L828.8628,352.9862 L825.3652,352.7832 L821.9588,353.5312 L818.4912,353.6411 L815.0616,354.1472 L811.6111,354.4353 L811.62,354.5417 L806.2438,355.094 L800.8148,355.0157 L795.4742,355.9948 L790.0784,356.3128 L784.687,356.6836 " fill="none" style="stroke: #FFFFFF; stroke-width: 1.0;"/><polygon fill="#FFFFFF" points="779.409,357.0715,779.4327,357.1374,781.2162,357.6072,783.1385,358.4635,785.0157,359.1939,786.7442,359.5104,788.6784,360.3998,788.6615,360.3802,787.729,359.5531,786.8817,358.8248,786.0938,358.1653,785.1015,357.269,784.3955,356.7043,784.5352,356.8249,784.9755,355.7105,785.8238,354.9481,786.7218,354.2287,787.3302,353.2593,788.091,352.4214,788.1017,352.4415,786.3496,353.342,784.6463,354.3339,782.9194,355.2817,781.2376,356.3136,779.409,357.0715" style="stroke: #FFFFFF; stroke-width: 1.0;"/><!--link *start to Doble--><path d="M779.383,79.6654 L779.4367,79.9404 L789.0997,81.0422 L799.0776,83.7563 L808.953,85.9454 L818.4911,86.4078 L828.4762,89.1587 L838.2096,90.6213 L848.0432,92.5965 L857.9465,94.9282 L867.6097,96.0317 L877.7506,99.5799 L887.2706,99.9496 L897.2038,102.4346 L907.1874,105.1776 L916.8776,106.4191 L926.7396,108.5397 L936.5366,110.3276 L946.413,112.522 L956.2511,114.5203 L966.1623,116.8928 L976.0068,118.9235 L985.8315,120.8532 L995.5455,122.2166 L1005.4215,124.409 L1015.3052,126.6403 L1024.7639,126.6966 L1034.9443,130.4473 L1044.5177,131.0904 L1054.5525,134.0959 L1064.1121,134.6686 L1074.0438,137.1457 L1084.0735,140.1248 L1093.6941,141.0096 L1103.556,143.1302 L1113.4383,145.3545 L1123.2808,147.3751 L1132.996,148.7443 L1142.893,151.0442 L1152.4958,151.8383 L1162.5375,154.8785 L1172.4275,157.1427 L1182.11,158.3444 " fill="none" style="stroke: #FFFFFF; stroke-width: 1.0;"/><polygon fill="#FFFFFF" points="1187.28,159.3544,1187.3202,159.4118,1185.5872,158.1114,1184.0899,157.1476,1182.5158,156.0741,1180.6894,154.6404,1179.2122,153.7054,1179.1908,153.6909,1179.7264,154.5643,1180.3703,155.5107,1181.0895,156.5078,1181.5493,157.3301,1182.3725,158.3972,1182.4756,158.5502,1181.3168,158.855,1180.4589,159.6066,1179.6378,160.4127,1178.6031,160.9016,1177.6807,161.5574,1177.6858,161.5796,1179.5982,161.1064,1181.5337,160.7342,1183.4581,160.3133,1185.4038,159.9853,1187.28,159.3544" style="stroke: #FFFFFF; stroke-width: 1.0;"/><!--link Doble to DobleTitulo--><path d="M1222.5,187.7934 L1222.7802,187.7934 L1221.9476,198.7634 L1222.7577,209.7334 L1223.0329,220.7034 L1221.5488,231.6734 L1222.5,242.6434 " fill="none" style="stroke: #FFFFFF; stroke-width: 1.0;"/><polygon fill="#FFFFFF" points="1222.5,247.7154,1222.564,247.7438,1223.1738,245.8593,1224.1589,244.1415,1225.0217,242.3695,1225.4827,240.4188,1226.5,238.7154,1226.4817,238.6971,1225.5995,239.4148,1224.8096,240.225,1224.0839,241.0993,1223.137,241.7524,1222.5,242.7154,1222.6305,242.8459,1221.5514,241.7668,1220.8534,241.0688,1220.2018,240.4172,1219.2798,239.4952,1218.5,238.7154,1218.5208,238.7246,1219.2903,240.511,1220.1544,242.3395,1220.9728,244.1477,1221.8784,245.9947,1222.5,247.7154" style="stroke: #FFFFFF; stroke-width: 1.0;"/><!--link DobleTitulo to *end--><path d="M1160.3,283.0969 L1160.3192,283.1883 L1154.9021,284.0442 L1149.5977,285.4359 L1144.2566,286.6532 L1138.7947,287.2966 L1133.5,288.7344 L1133.4796,288.6328 L1123.0251,290.261 L1112.6735,292.4013 L1102.3936,294.8977 L1091.8669,296.1672 L1081.6859,299.155 L1081.8278,299.8794 L1070.9536,300.4011 L1060.4937,303.0377 L1050.0844,305.9324 L1039.381,307.3257 L1028.8322,309.5087 L1028.8494,309.5981 L1018.3828,311.4701 L1007.9943,313.749 L997.5682,315.8316 L987.2139,318.2887 L976.6254,319.525 L976.7913,320.4042 L966.8186,322.2967 L956.7389,323.622 L946.8158,325.7775 L936.9,327.9719 L926.7518,328.9335 L926.5768,327.988 L917.3605,331.5911 L907.5682,332.0808 L898.2138,334.9374 L888.4084,335.3566 L878.9561,337.6838 L869.5967,340.5139 L859.8492,341.2457 L850.3308,343.2157 L840.7494,344.8456 L840.83,345.2899 L831.4429,347.0977 L821.9373,348.2525 L812.601,350.3405 L802.9909,350.9187 L793.7892,353.7488 L784.316,355.0817 " fill="none" style="stroke: #FFFFFF; stroke-width: 1.0;"/><polygon fill="#FFFFFF" points="779.365,355.9705,779.3817,356.0385,781.2452,356.3054,783.2066,356.9712,785.1361,357.507,786.9608,357.6157,788.9305,358.3157,788.9158,358.2945,787.9205,357.5531,786.9998,356.919,786.131,356.3594,785.0835,355.5429,784.2862,355.0862,784.4377,355.1916,784.7596,354.0374,785.5239,353.1908,786.3421,352.3818,786.8463,351.3544,787.5157,350.4418,787.5285,350.4607,785.8796,351.5388,784.2888,352.7025,782.67,353.825,781.1047,355.0263,779.365,355.9705" style="stroke: #FFFFFF; stroke-width: 1.0;"/><!--link Doble to *end--><path d="M1257.51,181.2804 L1257.5415,181.3683 L1261.0458,182.3978 L1264.735,183.9428 L1268.364,185.32 L1271.7949,186.1451 L1275.5,187.7344 L1275.4895,187.7015 L1278.8195,188.6301 L1282.2024,189.7246 L1285.622,190.9345 L1288.915,191.7469 L1292.3854,193.116 L1292.4495,193.3535 L1295.9248,193.8207 L1299.5873,194.9815 L1303.2727,196.2269 L1306.8252,196.9799 L1310.4475,197.9919 L1310.4546,198.0214 L1314.209,198.8792 L1317.9955,199.8712 L1321.7666,200.7984 L1325.5672,201.8493 L1329.2714,202.4972 L1329.3362,202.7883 L1333.1711,203.6458 L1336.9642,204.3155 L1340.8186,205.26 L1344.6757,206.2175 L1348.442,206.7667 L1348.3737,206.4536 L1352.3268,207.8951 L1356.0549,208.3055 L1359.9541,209.4998 L1363.6771,209.8868 L1367.5445,210.9355 L1367.5378,210.9058 L1371.341,212.0976 L1374.9875,212.5955 L1378.7265,213.5029 L1382.4732,214.4446 L1386.164,215.1384 L1386.2083,215.318 L1389.7078,216.0111 L1393.2831,217.0112 L1396.7359,217.5146 L1400.3713,218.7587 L1403.8853,219.5104 L1403.9521,219.7447 L1407.2212,220.6356 L1410.5234,221.6429 L1413.6715,222.1096 L1416.9326,222.9725 L1420.2937,224.1865 L1420.2029,223.9257 L1423.2212,225.1848 L1426.1372,226.15 L1429.2017,227.5415 L1432.0126,228.2052 L1434.9742,229.3016 L1434.9112,229.1627 L1437.5237,230.5318 L1439.8668,231.3073 L1442.4014,232.5049 L1445.1235,234.1154 L1447.5118,234.9906 L1447.6163,235.1536 L1449.684,236.545 L1451.4265,237.4293 L1453.5762,238.9487 L1455.6373,240.3298 L1457.4916,241.3885 L1457.3407,241.2425 L1458.8624,242.8072 L1460.3346,244.3241 L1461.904,245.9349 L1463.0959,247.1806 L1464.4986,248.6302 L1464.7004,248.6697 L1464.9442,252.0939 L1465.5776,255.5943 L1466.7798,259.206 L1466.9346,262.6128 L1467.9345,266.1849 L1468.1434,266.2718 L1467.1391,268.3368 L1466.0642,270.3724 L1465.1487,272.4743 L1464.602,274.7296 L1463.5335,276.7679 L1463.4274,276.6877 L1461.9368,279.3196 L1459.7241,281.4064 L1458.3324,284.1131 L1456.4785,286.4708 L1454.5,288.7344 L1454.5595,288.8255 L1451.6849,290.5985 L1449.0234,292.6978 L1446.1694,294.5023 L1443.2348,296.1835 L1440.367,297.9671 L1440.4109,298.0779 L1438.1722,298.7744 L1436.1373,299.9853 L1433.8719,300.6143 L1431.7012,301.4827 L1429.4995,302.2725 L1429.4191,302.0143 L1426.81,302.9213 L1424.2978,304.1392 L1421.6486,304.9171 L1418.9502,305.5373 L1416.32,306.3763 L1416.2846,306.2376 L1413.2309,307.0634 L1410.1147,307.6435 L1407.1705,308.899 L1404.1412,309.8203 L1400.995,310.2831 L1401.0441,310.5119 L1397.5991,311.3279 L1394.0607,311.7094 L1390.6208,312.5495 L1387.1157,313.086 L1383.6911,313.9973 L1383.714,314.1214 L1379.8878,314.8103 L1376.0891,315.6491 L1372.2028,316.0125 L1368.3873,316.7593 L1364.5748,317.5232 L1364.6062,317.7178 L1360.4625,318.4406 L1356.2338,318.6352 L1352.1039,319.4434 L1347.9757,320.2624 L1343.8127,320.8653 L1343.7745,320.5965 L1339.3865,321.6533 L1334.9322,322.2439 L1330.4615,322.7186 L1326.0284,323.458 L1321.5712,324.028 L1321.612,324.3493 L1316.8429,324.4876 L1312.1671,325.3619 L1307.4546,325.9465 L1302.7343,326.4692 L1298.0169,327.0157 L1298.024,327.0779 L1293.0825,327.6292 L1288.1053,327.8669 L1283.1764,328.5289 L1278.2332,329.0655 L1273.3164,329.8327 L1273.3193,329.8609 L1268.1843,330.4019 L1263.0516,330.9646 L1257.8949,331.2946 L1252.769,331.9236 L1247.6361,332.4836 L1247.6311,332.4304 L1242.3613,333.2367 L1237.0564,333.668 L1231.7198,333.7622 L1226.4382,334.4426 L1221.1425,334.9727 L1221.1206,334.7171 L1215.7255,335.5668 L1210.3096,336.1749 L1204.8791,336.6129 L1199.4138,336.6453 L1194.0023,337.3045 L1194.0186,337.5101 L1188.4523,337.4111 L1182.9612,338.2647 L1177.4197,338.4792 L1171.9094,339.0904 L1166.382,339.4833 L1166.3897,339.5898 L1160.8104,340.0986 L1155.1852,339.9763 L1149.6369,340.9122 L1144.0405,341.1865 L1138.448,341.5136 L1138.4786,341.9863 L1129.1553,343.114 L1119.7342,342.7317 L1110.3917,343.563 L1101.0379,344.2192 L1091.6794,344.8031 L1082.3053,345.1461 L1082.3052,345.145 L1073.1249,346.6075 L1063.7937,345.3648 L1054.6479,347.4443 L1045.3264,346.3763 L1036.0994,347.0029 L1026.9064,348.2374 L1026.909,348.2907 L1016.2437,348.7921 L1005.5455,348.6152 L994.9395,350.3396 L984.2553,350.4507 L973.5837,350.8228 L973.6247,351.7908 L963.6385,352.1344 L953.5926,351.0715 L943.6126,351.5615 L933.6449,352.3425 L923.6693,352.9375 L923.6869,353.4112 L914.6545,353.8103 L905.6147,354.0105 L896.5481,353.4895 L887.5618,355.1289 L878.4955,354.6169 L878.5047,354.8984 L870.6746,354.8517 L862.8516,355.0224 L855.0291,355.2061 L847.2116,355.545 L839.3945,355.8961 L839.3995,356.0793 L828.4611,356.1049 L817.5174,355.9391 L806.6196,357.4454 L795.6541,356.484 L784.74,357.3956 " fill="none" style="stroke: #FFFFFF; stroke-width: 1.0;"/><polygon fill="#FFFFFF" points="779.475,357.5186,779.502,357.5832,781.2399,358.1492,783.1359,359.0943,784.9804,359.9159,786.6556,360.3316,788.5652,361.3092,788.5473,361.2905,787.6487,360.4251,786.8403,359.6542,786.0946,358.949,785.1328,358.0174,784.4737,357.4029,784.6071,357.5303,785.103,356.4395,785.9885,355.7207,786.9216,355.0474,787.5781,354.1099,788.38,353.3114,788.3897,353.3319,786.5945,354.1432,784.8434,355.048,783.0711,355.9078,781.3394,356.8537,779.475,357.5186" style="stroke: #FFFFFF; stroke-width: 1.0;"/><!--
@startuml
skinparam titleBorderColor #222222
skinparam titleBackgroundColor #222222
skinparam titlefontColor #orange
skinparam titleFontStyle bold
skinparam titleFontSize 30

skinparam handwritten true
skinparam shadowing false
skinparam backgroundColor #222222
skinparam padding 3
skinparam StateStartColor #white
skinparam StateEndColor #white

skinparam note {
    backgroundColor #222222
    fontStyle bold
    borderColor #white
    FontColor #yellow
     fontSize 20
}

skinparam state {
    fontColor #white
    fontColor<<Reservada>> #cyan
    fontStyle bold
    arrowColor #white
    backgroundColor #222222
    borderColor #white
    circleCharacterFontName #white
    fontSize 20
}

hide empty description

title Sintaxis: Cierre de Grupo

note right of Fino: <color:cyan>..</color>
note right of FinoTitulo: <texto> <color:cyan>..</color>
note right of Medio: <color:cyan>..</color>
note right of MedioTitulo: <texto> <color:cyan>..</color>
note right of Grueso: <color:cyan>..</color>
note right of GruesoTitulo: <texto> <color:cyan>..</color>
note right of Doble: <color:cyan>..</color>
note right of DobleTitulo: <texto> <color:cyan>..</color>

[*] -down-> Fino
Fino -down-> FinoTitulo
FinoTitulo -down-> [*]
Fino -down-> [*]
[*] -down-> Medio
Medio -down-> MedioTitulo
MedioTitulo -down-> [*]
Medio -down-> [*]
[*] -down-> Grueso
Grueso -down-> GruesoTitulo
GruesoTitulo -down-> [*]
Grueso -down-> [*]
[*] -down-> Doble
Doble -down-> DobleTitulo
DobleTitulo -down-> [*]
Doble -down-> [*]

@enduml

PlantUML version 1.2019.05(Sat Apr 20 18:45:36 CEST 2019)
(GPL source distribution)
Java Runtime: Java(TM) SE Runtime Environment
JVM: Java HotSpot(TM) 64-Bit Server VM
Java Version: 11.0.8+10-LTS
Operating System: Windows 10
OS Version: 10.0
Default Encoding: windows-1252
Language: es
Country: ES
--></g></svg>