<?xml version="1.0" encoding="UTF-8" standalone="no"?><svg xmlns="http://www.w3.org/2000/svg" xmlns:xlink="http://www.w3.org/1999/xlink" contentScriptType="application/ecmascript" contentStyleType="text/css" height="379px" preserveAspectRatio="none" style="width:1527px;height:379px;background:#222222;" version="1.1" viewBox="0 0 1527 379" width="1527px" zoomAndPan="magnify"><defs/><g><polygon fill="#222222" points="551.5,2,551.5,2.2102,561.5789,1.5857,571.6579,2.1933,581.7368,2.3997,591.8158,1.2866,601.8947,1.9223,611.9737,1.5735,622.0526,1.6165,632.1316,1.9318,642.2105,1.3086,652.2895,2.5536,662.3684,1.3697,672.4474,1.8022,682.5263,2.4319,692.6053,1.9142,702.6842,2.0682,712.7632,1.9681,722.8421,2.1785,732.9211,2.2391,743,2.5857,753.0789,2.6711,763.1579,2.6793,773.2368,2.2546,783.3158,2.4636,793.3947,2.7022,803.4737,1.2788,813.5526,2.6785,823.6316,1.7035,833.7105,2.5338,843.7895,1.505,853.8684,1.9315,863.9474,2.7416,874.0263,1.9513,884.1053,2.1053,894.1842,2.3386,904.2632,2.4162,914.3421,1.9961,924.4211,2.2872,934.5,2,933.9276,2,934.7844,12.7469,935.0482,23.4938,934.9445,34.2406,935.113,44.9875,934.5,55.7344,934.5,55.2513,924.4211,55.0822,914.3421,55.113,904.2632,55.6755,894.1842,55.5378,884.1053,56.4158,874.0263,55.5597,863.9474,55.3913,853.8684,55.9626,843.7895,55.0675,833.7105,55.2152,823.6316,56.3833,813.5526,56.17,803.4737,56.4689,793.3947,55.4126,783.3158,56.0536,773.2368,56.3248,763.1579,55.262,753.0789,55.6385,743,55.8604,732.9211,56.3861,722.8421,55.7302,712.7632,56.1969,702.6842,55.1806,692.6053,55.0571,682.5263,56.238,672.4474,55.0174,662.3684,56.2433,652.2895,55.941,642.2105,55.4665,632.1316,55.3806,622.0526,56.1931,611.9737,55.435,601.8947,56.3262,591.8158,55.1816,581.7368,56.3518,571.6579,56.2187,561.5789,55.9793,551.5,55.7344,551.5472,55.7344,552.2266,44.9875,552.1136,34.2406,551.6693,23.4938,551.7682,12.7469,551.5,2" style="stroke: #222222; stroke-width: 1.5;"/><text fill="#FFA500" font-family="sans-serif" font-size="30" font-weight="bold" lengthAdjust="spacingAndGlyphs" textLength="361" x="562.5" y="41.1426">Sintaxis: Cierre de Grupo</text><polygon fill="#222222" points="306.5,146.7344,306.5,146.8044,312.9,146.5963,319.3,146.7988,325.7,146.8676,332.1,146.4966,338.5,146.7344,338.4901,146.7104,340.2134,147.3353,341.9866,148.0807,343.7946,148.9101,345.4829,149.4504,347.3388,150.3955,347.5093,150.4662,347.877,152.0829,348.7424,153.9058,349.6686,155.7539,350.2414,157.4557,351,159.2344,351.0227,159.2344,350.9894,162.4656,351.0595,165.6969,351.0797,168.9281,351.1952,172.1594,351,175.3906,351.2067,175.4762,350.477,177.245,349.6139,178.9586,348.9461,180.7531,348.2873,182.5513,347.3388,184.2295,347.2468,184.0074,345.6576,185.1706,343.7655,185.6026,342.1036,186.5906,340.2046,187.0059,338.5,187.8906,338.5,187.8678,332.1,188.1378,325.7,187.8744,319.3,187.9257,312.9,188.0035,306.5,187.8906,306.5531,188.0188,304.7317,187.1572,303.0011,186.5146,301.1237,185.5176,299.4652,185.0493,297.6612,184.2295,297.83,184.2994,297.0658,182.5184,296.3855,180.7721,295.3157,178.8645,294.5314,177.0752,294,175.3906,293.7929,175.3906,293.9804,172.1594,293.9345,168.9281,294.2271,165.6969,293.9418,162.4656,294,159.2344,293.8944,159.1906,294.8025,157.4957,295.2591,155.6138,296.0368,153.8649,297.1288,152.2461,297.6612,150.3955,297.7167,150.5297,299.5226,149.8895,301.1557,148.832,303.0052,148.2971,304.8075,147.6484,306.5,146.7344" style="stroke: #FFFFFF; stroke-width: 1.5;"/><text fill="#FFFFFF" font-family="sans-serif" font-size="20" font-weight="bold" lengthAdjust="spacingAndGlyphs" textLength="41" x="302" y="175.4961">Fino</text><path d="M386,146.7344 L386,163.2344 L351.03,167.2344 L386,171.2344 L386,187.8906 A0,0 0 0 0 386,187.8906 L425,187.8906 A0,0 0 0 0 425,187.8906 L425,156.7344 L415,146.7344 L386,146.7344 A0,0 0 0 0 386,146.7344 " fill="#222222" style="stroke: #FFFFFF; stroke-width: 1.0;"/><path d="M415,146.7344 L415.1868,146.7344 L414.6317,148.7344 L415.1718,150.7344 L415.3553,152.7344 L414.3659,154.7344 L415,156.7344 L415,156.6653 L417,156.3553 L419,156.3935 L421,156.6738 L423,156.1198 L425,156.7344 L425.348,157.0824 L422.6038,154.3382 L420.8757,152.6101 L419.2715,151.0059 L416.9461,148.6805 L415,146.7344 " fill="#222222" style="stroke: #FFFFFF; stroke-width: 1.0;"/><text fill="#00FFFF" font-family="sans-serif" font-size="20" font-weight="bold" lengthAdjust="spacingAndGlyphs" textLength="12" x="395" y="175.4961">..</text><polygon fill="#222222" points="18.5,247.7344,18.5,247.9446,28.0556,247.3201,37.6111,247.9277,47.1667,248.1341,56.7222,247.021,66.2778,247.6567,75.8333,247.3079,85.3889,247.3509,94.9444,247.6662,104.5,247.7344,104.4118,247.5215,106.3384,248.6371,107.9551,249.0047,109.7781,249.8702,111.6262,250.7963,113.3388,251.3955,113.3124,251.3846,114.0921,253.172,114.7935,254.927,115.5905,256.7216,116.3414,258.4971,117,260.2344,117.1952,260.2344,117.2237,263.4656,117.2264,266.6969,117.0849,269.9281,117.1545,273.1594,117,276.3906,117.2163,276.4802,116.0457,278.0664,115.7445,280.0127,114.712,281.6561,114.2355,283.5298,113.3388,285.2295,113.2757,285.077,111.5623,285.9406,109.8979,286.9223,108.0293,287.4112,106.2812,288.1908,104.5,288.8906,104.5,289.2293,94.9444,289.3069,85.3889,288.8867,75.8333,289.1778,66.2778,288.3182,56.7222,289.175,47.1667,289.4388,37.6111,289.3352,28.0556,289.5036,18.5,288.8906,18.4384,288.7419,16.649,287.9575,14.8852,287.2348,13.1892,286.6758,11.4039,285.9012,9.6612,285.2295,9.871,285.3164,8.8751,283.4394,8.0911,281.6502,7.5348,279.9553,6.5269,278.0733,6,276.3906,5.827,276.3906,6.2163,273.1594,6.1452,269.9281,6.2448,266.6969,5.8927,263.4656,6,260.2344,6.0983,260.2751,6.9141,258.5419,7.319,256.6386,8.1672,254.9188,8.9677,253.1794,9.6612,251.3955,9.7443,251.5963,11.4284,250.662,13.2557,250.0735,14.8938,249.0283,16.6458,248.258,18.5,247.7344" style="stroke: #FFFFFF; stroke-width: 1.5;"/><text fill="#FFFFFF" font-family="sans-serif" font-size="20" font-weight="bold" lengthAdjust="spacingAndGlyphs" textLength="95" x="14" y="276.4961">FinoTitulo</text><path d="M152,247.7344 L152,264.2344 L117.08,268.2344 L152,272.2344 L152,288.8906 A0,0 0 0 0 152,288.8906 L269,288.8906 A0,0 0 0 0 269,288.8906 L269,257.7344 L259,247.7344 L152,247.7344 A0,0 0 0 0 152,247.7344 " fill="#222222" style="stroke: #FFFFFF; stroke-width: 1.0;"/><path d="M259,247.7344 L259.1868,247.7344 L258.6317,249.7344 L259.1718,251.7344 L259.3553,253.7344 L258.3659,255.7344 L259,257.7344 L259,257.6653 L261,257.3553 L263,257.3935 L265,257.6738 L267,257.1198 L269,257.7344 L269.348,258.0824 L266.6038,255.3382 L264.8757,253.6101 L263.2715,252.0059 L260.9461,249.6805 L259,247.7344 " fill="#222222" style="stroke: #FFFFFF; stroke-width: 1.0;"/><text fill="#FFFF00" font-family="sans-serif" font-size="20" font-weight="bold" lengthAdjust="spacingAndGlyphs" textLength="72" x="161" y="276.4961">&lt;texto&gt;</text><text fill="#00FFFF" font-family="sans-serif" font-size="20" font-weight="bold" lengthAdjust="spacingAndGlyphs" textLength="12" x="239" y="276.4961">..</text><polygon fill="#222222" points="651.5,146.7344,651.5,146.9446,661.1,146.3201,670.7,146.9277,680.3,147.1341,689.9,146.021,699.5,146.7344,699.4901,146.7104,701.2134,147.3353,702.9866,148.0807,704.7946,148.9101,706.4829,149.4504,708.3388,150.3955,708.5093,150.4662,708.877,152.0829,709.7424,153.9058,710.6686,155.7539,711.2414,157.4557,712,159.2344,712.0227,159.2344,711.9894,162.4656,712.0595,165.6969,712.0797,168.9281,712.1952,172.1594,712,175.3906,712.2067,175.4762,711.477,177.245,710.6139,178.9586,709.9461,180.7531,709.2873,182.5513,708.3388,184.2295,708.2468,184.0074,706.6576,185.1706,704.7655,185.6026,703.1036,186.5906,701.2046,187.0059,699.5,187.8906,699.5,187.8221,689.9,188.6322,680.3,187.8419,670.7,187.9959,661.1,188.2293,651.5,187.8906,651.5531,188.0188,649.7317,187.1572,648.0011,186.5146,646.1237,185.5176,644.4652,185.0493,642.6612,184.2295,642.83,184.2994,642.0658,182.5184,641.3855,180.7721,640.3157,178.8645,639.5314,177.0752,639,175.3906,638.7929,175.3906,638.9804,172.1594,638.9345,168.9281,639.2271,165.6969,638.9418,162.4656,639,159.2344,638.8944,159.1906,639.8025,157.4957,640.2591,155.6138,641.0368,153.8649,642.1288,152.2461,642.6612,150.3955,642.7167,150.5297,644.5226,149.8895,646.1557,148.832,648.0052,148.2971,649.8075,147.6484,651.5,146.7344" style="stroke: #FFFFFF; stroke-width: 1.5;"/><text fill="#FFFFFF" font-family="sans-serif" font-size="20" font-weight="bold" lengthAdjust="spacingAndGlyphs" textLength="57" x="647" y="175.4961">Medio</text><path d="M747,146.7344 L747,163.2344 L712.11,167.2344 L747,171.2344 L747,187.8906 A0,0 0 0 0 747,187.8906 L786,187.8906 A0,0 0 0 0 786,187.8906 L786,156.7344 L776,146.7344 L747,146.7344 A0,0 0 0 0 747,146.7344 " fill="#222222" style="stroke: #FFFFFF; stroke-width: 1.0;"/><path d="M776,146.7344 L776.1868,146.7344 L775.6317,148.7344 L776.1718,150.7344 L776.3553,152.7344 L775.3659,154.7344 L776,156.7344 L776,156.6653 L778,156.3553 L780,156.3935 L782,156.6738 L784,156.1198 L786,156.7344 L786.348,157.0824 L783.6038,154.3382 L781.8757,152.6101 L780.2715,151.0059 L777.9461,148.6805 L776,146.7344 " fill="#222222" style="stroke: #FFFFFF; stroke-width: 1.0;"/><text fill="#00FFFF" font-family="sans-serif" font-size="20" font-weight="bold" lengthAdjust="spacingAndGlyphs" textLength="12" x="756" y="175.4961">..</text><polygon fill="#222222" points="388.5,247.7344,388.5,247.9446,398.7,247.3201,408.9,247.9277,419.1,248.1341,429.3,247.021,439.5,247.6567,449.7,247.3079,459.9,247.3509,470.1,247.6662,480.3,247.043,490.5,247.7344,490.5706,247.9049,492.1874,248.2725,494.0103,249.1379,495.8584,250.0641,497.5601,250.6369,499.3388,251.3955,499.3598,251.4042,500.0612,253.1592,500.8583,254.9538,501.6092,256.7293,502.4481,258.5413,503,260.2344,503.2237,260.2344,503.2264,263.4656,503.0849,266.6969,503.1545,269.9281,503.2341,273.1594,503,276.3906,502.7779,276.2986,502.4767,278.2449,501.4442,279.8883,500.9677,281.762,499.9186,283.3985,499.3388,285.2295,499.3301,285.2084,497.6657,286.1901,495.7971,286.6789,494.049,287.4586,492.311,288.2627,490.5,288.8906,490.5,289.3069,480.3,288.8867,470.1,289.1778,459.9,288.3182,449.7,289.175,439.5,289.4388,429.3,289.3352,419.1,289.5036,408.9,288.4075,398.7,288.2384,388.5,288.8906,388.4207,288.6993,386.7247,288.1403,384.9394,287.3656,383.2836,286.9038,381.4067,285.9079,379.6612,285.2295,379.5555,285.1857,378.9992,283.4908,377.9913,281.6089,377.3046,279.8599,376.9321,278.2412,376,276.3906,376.1452,276.3906,376.2448,273.1594,375.8927,269.9281,376.1064,266.6969,376.1968,263.4656,376,260.2344,375.8545,260.1741,376.7027,258.4544,377.5033,256.7149,378.3974,255.0142,378.9276,253.1628,379.6612,251.3955,379.7202,251.538,381.3583,250.4928,383.1103,249.7225,385.0287,249.3539,386.6408,248.2458,388.5,247.7344" style="stroke: #FFFFFF; stroke-width: 1.5;"/><text fill="#FFFFFF" font-family="sans-serif" font-size="20" font-weight="bold" lengthAdjust="spacingAndGlyphs" textLength="111" x="384" y="276.4961">MedioTitulo</text><path d="M538,247.7344 L538,264.2344 L503.28,268.2344 L538,272.2344 L538,288.8906 A0,0 0 0 0 538,288.8906 L655,288.8906 A0,0 0 0 0 655,288.8906 L655,257.7344 L645,247.7344 L538,247.7344 A0,0 0 0 0 538,247.7344 " fill="#222222" style="stroke: #FFFFFF; stroke-width: 1.0;"/><path d="M645,247.7344 L645.1868,247.7344 L644.6317,249.7344 L645.1718,251.7344 L645.3553,253.7344 L644.3659,255.7344 L645,257.7344 L645,257.6653 L647,257.3553 L649,257.3935 L651,257.6738 L653,257.1198 L655,257.7344 L655.348,258.0824 L652.6038,255.3382 L650.8757,253.6101 L649.2715,252.0059 L646.9461,249.6805 L645,247.7344 " fill="#222222" style="stroke: #FFFFFF; stroke-width: 1.0;"/><text fill="#FFFF00" font-family="sans-serif" font-size="20" font-weight="bold" lengthAdjust="spacingAndGlyphs" textLength="72" x="547" y="276.4961">&lt;texto&gt;</text><text fill="#00FFFF" font-family="sans-serif" font-size="20" font-weight="bold" lengthAdjust="spacingAndGlyphs" textLength="12" x="625" y="276.4961">..</text><polygon fill="#222222" points="834,146.7344,834,146.9446,844.1667,146.3201,854.3333,146.9277,864.5,147.1341,874.6667,146.021,884.8333,146.6567,895,146.7344,894.9456,146.603,896.7188,147.3485,898.5268,148.1779,900.2151,148.7182,902.1417,149.8338,903.8388,150.3955,903.6447,150.3151,904.5102,152.1381,905.4363,153.9862,906.0091,155.6879,906.7888,157.4753,907.5,159.2344,907.4894,159.2344,907.5595,162.4656,907.5797,165.6969,907.6952,168.9281,907.7237,172.1594,907.5,175.3906,907.7092,175.4773,906.8462,177.1909,906.1783,178.9853,905.5196,180.7835,904.349,182.3697,903.8388,184.2295,903.9254,184.4384,902.0332,184.8704,900.3714,185.8583,898.4724,186.2737,896.759,187.1373,895,187.8906,895,188.6322,884.8333,187.8419,874.6667,187.9959,864.5,188.2293,854.3333,188.3069,844.1667,187.8867,834,187.8906,834.0366,187.9791,832.1592,186.9821,830.5007,186.5137,828.7666,185.8627,826.9856,185.0986,825.1612,184.2295,825.35,184.3077,824.2802,182.4001,823.4959,180.6107,822.7731,178.8469,822.2141,177.1509,821.5,175.3906,821.4345,175.3906,821.7271,172.1594,821.4418,168.9281,821.3856,165.6969,821.5761,162.4656,821.5,159.2344,821.2946,159.1493,822.0724,157.4004,823.1643,155.7816,823.8309,153.9866,824.6551,152.257,825.1612,150.3955,825.1201,150.2964,826.9696,149.7616,828.772,149.1129,830.4042,148.0534,832.22,147.4371,834,146.7344" style="stroke: #FFFFFF; stroke-width: 1.5;"/><text fill="#FFFFFF" font-family="sans-serif" font-size="20" font-weight="bold" lengthAdjust="spacingAndGlyphs" textLength="70" x="829.5" y="175.4961">Grueso</text><path d="M943,146.7344 L943,163.2344 L907.76,167.2344 L943,171.2344 L943,187.8906 A0,0 0 0 0 943,187.8906 L982,187.8906 A0,0 0 0 0 982,187.8906 L982,156.7344 L972,146.7344 L943,146.7344 A0,0 0 0 0 943,146.7344 " fill="#222222" style="stroke: #FFFFFF; stroke-width: 1.0;"/><path d="M972,146.7344 L972.1868,146.7344 L971.6317,148.7344 L972.1718,150.7344 L972.3553,152.7344 L971.3659,154.7344 L972,156.7344 L972,156.6653 L974,156.3553 L976,156.3935 L978,156.6738 L980,156.1198 L982,156.7344 L982.348,157.0824 L979.6038,154.3382 L977.8757,152.6101 L976.2715,151.0059 L973.9461,148.6805 L972,146.7344 " fill="#222222" style="stroke: #FFFFFF; stroke-width: 1.0;"/><text fill="#00FFFF" font-family="sans-serif" font-size="20" font-weight="bold" lengthAdjust="spacingAndGlyphs" textLength="12" x="952" y="175.4961">..</text><polygon fill="#222222" points="774,247.7344,774,247.9446,783.5833,247.3201,793.1667,247.9277,802.75,248.1341,812.3333,247.021,821.9167,247.6567,831.5,247.3079,841.0833,247.3509,850.6667,247.6662,860.25,247.043,869.8333,248.288,879.4167,247.1041,889,247.7344,888.9748,247.6735,890.8229,248.5996,892.5246,249.1724,894.312,249.9521,896.067,250.6535,897.8388,251.3955,897.8938,251.4183,898.6447,253.1938,899.4837,255.0058,900.2422,256.7844,900.977,258.5533,901.5,260.2344,901.5849,260.2344,901.6545,263.4656,901.7341,266.6969,901.2596,269.9281,901.7262,273.1594,901.5,276.3906,901.4087,276.3528,900.9322,278.2265,899.8831,279.863,899.2822,281.6852,898.7995,283.5563,897.8388,285.2295,897.8326,285.2145,896.0845,285.9941,894.3465,286.7982,892.5886,287.5543,890.7673,288.1572,889,288.8906,889,289.1778,879.4167,288.3182,869.8333,289.175,860.25,289.4388,850.6667,289.3352,841.0833,289.5036,831.5,288.4075,821.9167,288.2384,812.3333,288.2692,802.75,288.8317,793.1667,288.6941,783.5833,289.572,774,288.8906,773.9777,288.8368,772.1885,288.0527,770.4936,287.4965,768.6116,286.4886,766.8627,285.8018,765.1612,285.2295,765.361,285.3122,764.5631,283.5173,763.9229,281.7876,762.8654,279.8851,762.3305,278.1991,761.5,276.3906,761.6968,276.3906,761.3425,273.1594,761.468,269.9281,761.542,266.6969,761.7173,263.4656,761.5,260.2344,761.4987,260.2338,762.3747,258.5256,762.7939,256.6282,763.4881,254.8447,764.584,253.2275,765.1612,251.3955,765.0697,251.1748,766.9939,250.82,768.7231,249.9947,770.4303,249.1163,772.1871,248.3577,774,247.7344" style="stroke: #FFFFFF; stroke-width: 1.5;"/><text fill="#FFFFFF" font-family="sans-serif" font-size="20" font-weight="bold" lengthAdjust="spacingAndGlyphs" textLength="124" x="769.5" y="276.4961">GruesoTitulo</text><path d="M937,247.7344 L937,264.2344 L901.65,268.2344 L937,272.2344 L937,288.8906 A0,0 0 0 0 937,288.8906 L1054,288.8906 A0,0 0 0 0 1054,288.8906 L1054,257.7344 L1044,247.7344 L937,247.7344 A0,0 0 0 0 937,247.7344 " fill="#222222" style="stroke: #FFFFFF; stroke-width: 1.0;"/><path d="M1044,247.7344 L1044.1868,247.7344 L1043.6317,249.7344 L1044.1718,251.7344 L1044.3553,253.7344 L1043.3659,255.7344 L1044,257.7344 L1044,257.6653 L1046,257.3553 L1048,257.3935 L1050,257.6738 L1052,257.1198 L1054,257.7344 L1054.348,258.0824 L1051.6038,255.3382 L1049.8757,253.6101 L1048.2715,252.0059 L1045.9461,249.6805 L1044,247.7344 " fill="#222222" style="stroke: #FFFFFF; stroke-width: 1.0;"/><text fill="#FFFF00" font-family="sans-serif" font-size="20" font-weight="bold" lengthAdjust="spacingAndGlyphs" textLength="72" x="946" y="276.4961">&lt;texto&gt;</text><text fill="#00FFFF" font-family="sans-serif" font-size="20" font-weight="bold" lengthAdjust="spacingAndGlyphs" textLength="12" x="1024" y="276.4961">..</text><polygon fill="#222222" points="1200,146.7344,1200,146.9446,1209,146.3201,1218,146.9277,1227,147.1341,1236,146.021,1245,146.7344,1244.9901,146.7104,1246.7134,147.3353,1248.4866,148.0807,1250.2946,148.9101,1251.9829,149.4504,1253.8388,150.3955,1254.0093,150.4662,1254.377,152.0829,1255.2424,153.9058,1256.1686,155.7539,1256.7414,157.4557,1257.5,159.2344,1257.5227,159.2344,1257.4894,162.4656,1257.5595,165.6969,1257.5797,168.9281,1257.6952,172.1594,1257.5,175.3906,1257.7067,175.4762,1256.977,177.245,1256.1139,178.9586,1255.4461,180.7531,1254.7873,182.5513,1253.8388,184.2295,1253.7468,184.0074,1252.1576,185.1706,1250.2655,185.6026,1248.6036,186.5906,1246.7046,187.0059,1245,187.8906,1245,187.8221,1236,188.6322,1227,187.8419,1218,187.9959,1209,188.2293,1200,187.8906,1200.0531,188.0188,1198.2317,187.1572,1196.5011,186.5146,1194.6237,185.5176,1192.9652,185.0493,1191.1612,184.2295,1191.33,184.2994,1190.5658,182.5184,1189.8855,180.7721,1188.8157,178.8645,1188.0314,177.0752,1187.5,175.3906,1187.2929,175.3906,1187.4804,172.1594,1187.4345,168.9281,1187.7271,165.6969,1187.4418,162.4656,1187.5,159.2344,1187.3944,159.1906,1188.3025,157.4957,1188.7591,155.6138,1189.5368,153.8649,1190.6288,152.2461,1191.1612,150.3955,1191.2167,150.5297,1193.0226,149.8895,1194.6557,148.832,1196.5052,148.2971,1198.3075,147.6484,1200,146.7344" style="stroke: #FFFFFF; stroke-width: 1.5;"/><text fill="#FFFFFF" font-family="sans-serif" font-size="20" font-weight="bold" lengthAdjust="spacingAndGlyphs" textLength="54" x="1195.5" y="175.4961">Doble</text><path d="M1293,146.7344 L1293,163.2344 L1257.66,167.2344 L1293,171.2344 L1293,187.8906 A0,0 0 0 0 1293,187.8906 L1332,187.8906 A0,0 0 0 0 1332,187.8906 L1332,156.7344 L1322,146.7344 L1293,146.7344 A0,0 0 0 0 1293,146.7344 " fill="#222222" style="stroke: #FFFFFF; stroke-width: 1.0;"/><path d="M1322,146.7344 L1322.1868,146.7344 L1321.6317,148.7344 L1322.1718,150.7344 L1322.3553,152.7344 L1321.3659,154.7344 L1322,156.7344 L1322,156.6653 L1324,156.3553 L1326,156.3935 L1328,156.6738 L1330,156.1198 L1332,156.7344 L1332.348,157.0824 L1329.6038,154.3382 L1327.8757,152.6101 L1326.2715,151.0059 L1323.9461,148.6805 L1322,146.7344 " fill="#222222" style="stroke: #FFFFFF; stroke-width: 1.0;"/><text fill="#00FFFF" font-family="sans-serif" font-size="20" font-weight="bold" lengthAdjust="spacingAndGlyphs" textLength="12" x="1302" y="175.4961">..</text><polygon fill="#222222" points="1173,247.7344,1173,247.9446,1182.9,247.3201,1192.8,247.9277,1202.7,248.1341,1212.6,247.021,1222.5,247.6567,1232.4,247.3079,1242.3,247.3509,1252.2,247.6662,1262.1,247.043,1272,247.7344,1272.0706,247.9049,1273.6874,248.2725,1275.5103,249.1379,1277.3584,250.0641,1279.0601,250.6369,1280.8388,251.3955,1280.8598,251.4042,1281.5612,253.1592,1282.3583,254.9538,1283.1092,256.7293,1283.9481,258.5413,1284.5,260.2344,1284.7237,260.2344,1284.7264,263.4656,1284.5849,266.6969,1284.6545,269.9281,1284.7341,273.1594,1284.5,276.3906,1284.2779,276.2986,1283.9767,278.2449,1282.9442,279.8883,1282.4677,281.762,1281.4186,283.3985,1280.8388,285.2295,1280.8301,285.2084,1279.1657,286.1901,1277.2971,286.6789,1275.549,287.4586,1273.811,288.2627,1272,288.8906,1272,289.3069,1262.1,288.8867,1252.2,289.1778,1242.3,288.3182,1232.4,289.175,1222.5,289.4388,1212.6,289.3352,1202.7,289.5036,1192.8,288.4075,1182.9,288.2384,1173,288.8906,1172.9207,288.6993,1171.2247,288.1403,1169.4394,287.3656,1167.7836,286.9038,1165.9067,285.9079,1164.1612,285.2295,1164.0555,285.1857,1163.4992,283.4908,1162.4913,281.6089,1161.8046,279.8599,1161.4321,278.2412,1160.5,276.3906,1160.6452,276.3906,1160.7448,273.1594,1160.3927,269.9281,1160.6064,266.6969,1160.6968,263.4656,1160.5,260.2344,1160.3545,260.1741,1161.2027,258.4544,1162.0033,256.7149,1162.8974,255.0142,1163.4276,253.1628,1164.1612,251.3955,1164.2202,251.538,1165.8583,250.4928,1167.6103,249.7225,1169.5287,249.3539,1171.1408,248.2458,1173,247.7344" style="stroke: #FFFFFF; stroke-width: 1.5;"/><text fill="#FFFFFF" font-family="sans-serif" font-size="20" font-weight="bold" lengthAdjust="spacingAndGlyphs" textLength="108" x="1168.5" y="276.4961">DobleTitulo</text><path d="M1320,247.7344 L1320,264.2344 L1284.66,268.2344 L1320,272.2344 L1320,288.8906 A0,0 0 0 0 1320,288.8906 L1437,288.8906 A0,0 0 0 0 1437,288.8906 L1437,257.7344 L1427,247.7344 L1320,247.7344 A0,0 0 0 0 1320,247.7344 " fill="#222222" style="stroke: #FFFFFF; stroke-width: 1.0;"/><path d="M1427,247.7344 L1427.1868,247.7344 L1426.6317,249.7344 L1427.1718,251.7344 L1427.3553,253.7344 L1426.3659,255.7344 L1427,257.7344 L1427,257.6653 L1429,257.3553 L1431,257.3935 L1433,257.6738 L1435,257.1198 L1437,257.7344 L1437.348,258.0824 L1434.6038,255.3382 L1432.8757,253.6101 L1431.2715,252.0059 L1428.9461,249.6805 L1427,247.7344 " fill="#222222" style="stroke: #FFFFFF; stroke-width: 1.0;"/><text fill="#FFFF00" font-family="sans-serif" font-size="20" font-weight="bold" lengthAdjust="spacingAndGlyphs" textLength="72" x="1329" y="276.4961">&lt;texto&gt;</text><text fill="#00FFFF" font-family="sans-serif" font-size="20" font-weight="bold" lengthAdjust="spacingAndGlyphs" textLength="12" x="1407" y="276.4961">..</text><polygon fill="#FFFFFF" points="779.5552,79.1668,778.0894,81.1696,776.3556,84.1032,773.876,86.0802,771.2703,87.1613,769.1927,87.2551,766.5224,85.9031,764.0029,85.0198,762.0905,83.2264,761.0873,81.1733,760.4924,79.5385,759.9096,77.4032,758.9636,75.5657,759.6906,73.7717,760.3275,71.8064,762.7175,70.2521,764.3991,68.2354,766.4804,67.5657,768.9547,66.989,772.1276,67.3316,773.8655,68.1512,775.8861,68.5227,778.3429,71.0398,779.1993,73.6971,779.5714,75.5101,779.15,78.4979" style="stroke: none; stroke-width: 1.0;"/><polygon fill="none" points="779.5552,361.1668,778.0894,363.1696,776.3556,366.1032,773.876,368.0802,771.2703,369.1613,769.1927,369.2551,766.5224,367.9031,764.0029,367.0198,762.0905,365.2264,761.0873,363.1733,760.4924,361.5385,759.9096,359.4032,758.9636,357.5657,759.6906,355.7717,760.3275,353.8064,762.7175,352.2521,764.3991,350.2354,766.4804,349.5657,768.9547,348.989,772.1276,349.3316,773.8655,350.1512,775.8861,350.5227,778.3429,353.0398,779.1993,355.6971,779.5714,357.5101,779.15,360.4979" style="stroke: #FFFFFF; stroke-width: 1.0;"/><polygon fill="#FFFFFF" points="776.0331,360.6938,775.1536,361.8955,774.1134,363.6557,772.6256,364.8419,771.0622,365.4905,769.8156,365.5468,768.2135,364.7356,766.7017,364.2056,765.5543,363.1296,764.9524,361.8977,764.5955,360.9168,764.2458,359.6357,763.6782,358.5332,764.1143,357.4567,764.4965,356.2776,765.9305,355.345,766.9394,354.135,768.1882,353.7332,769.6728,353.3871,771.5766,353.5927,772.6193,354.0845,773.8317,354.3074,775.3057,355.8176,775.8196,357.412,776.0429,358.4998,775.79,360.2925" style="stroke: none; stroke-width: 1.0;"/><!--link *start to Fino--><path d="M759.39,78.6044 L759.399,78.6974 L754.6217,78.8791 L749.897,79.6059 L745.1552,80.1552 L740.3571,80.1208 L735.6369,80.8945 L735.6331,80.8601 L728.5472,81.4731 L721.48,82.2592 L714.4259,83.1657 L707.3267,83.6574 L700.2906,84.73 L700.3197,84.9743 L695.9916,84.9586 L691.7482,85.6562 L687.5153,86.4409 L683.2221,86.7192 L678.9606,87.2638 L678.9644,87.2939 L674.2789,87.8425 L669.6107,88.5281 L664.9342,89.1476 L660.2736,89.8932 L655.5609,90.2277 L655.6009,90.5233 L650.5628,91.2086 L645.4989,91.7033 L640.4727,92.4771 L635.4483,93.2639 L630.3678,93.6364 L630.3219,93.3192 L625.069,94.7084 L619.6648,95.0532 L614.3756,96.192 L608.968,96.513 L603.6575,97.5044 L603.6528,97.4743 L598.1178,98.6984 L592.4736,99.2197 L586.8939,100.1558 L581.3195,101.1266 L575.7062,101.8463 L575.7366,102.0287 L569.9226,102.8106 L564.1607,103.9043 L558.3145,104.4936 L552.5941,105.8352 L546.79,106.6766 L546.8332,106.9164 L540.9041,107.9378 L534.9964,109.0782 L528.9891,109.6654 L523.0548,110.6581 L517.1853,112.0101 L517.1324,111.739 L511.1768,113.1547 L505.1617,114.2648 L499.2329,115.818 L493.1567,116.6148 L487.1681,117.8613 L487.1365,117.7121 L481.1585,119.2372 L475.0454,120.1247 L469.0284,121.4656 L463.1052,123.2501 L457.0148,124.2447 L457.0575,124.4335 L454.0784,125.2423 L450.9668,125.4635 L448.0212,126.4206 L445.0395,127.2173 L441.9734,127.6405 L441.9252,127.4362 L438.9693,128.3059 L435.9975,129.1088 L433.0569,130.0431 L429.9955,130.4662 L427.0016,131.1749 L427.0509,131.3745 L423.9689,131.6709 L420.9822,132.3526 L418.1346,133.5971 L415.0309,133.8054 L412.1338,134.8497 L412.1905,135.0687 L409.211,135.702 L406.2122,136.2612 L403.2568,136.9876 L400.4015,138.1006 L397.4046,138.6666 L397.3696,138.5383 L394.5624,139.7126 L391.5176,140.014 L388.7429,141.308 L385.8162,142.0431 L382.8485,142.6276 L382.8784,142.7323 L379.9845,143.4691 L377.1979,144.5808 L374.3144,145.3538 L371.3904,145.9853 L368.5,146.7344 L368.5384,146.8472 L366.0054,147.5216 L363.6505,148.7198 L361.0942,149.3255 L358.6207,150.175 L356.12,150.9444 " fill="none" style="stroke: #FFFFFF; stroke-width: 1.0;"/><polygon fill="#FFFFFF" points="351.33,152.8244,351.3333,152.8944,353.2912,152.7785,355.2683,153.0728,357.2391,153.2336,359.1894,152.955,361.1681,153.2846,361.1577,153.2608,360.0751,152.6994,359.045,152.2574,358.0515,151.8987,356.9321,151.2534,355.9889,151.0094,356.1579,151.0836,356.2516,149.8891,356.8387,148.9112,357.4859,147.9598,357.7829,146.8546,358.2641,145.8302,358.2803,145.8462,356.8697,147.2216,355.5327,148.6698,354.1603,150.0828,352.8555,151.563,351.33,152.8244" style="stroke: #FFFFFF; stroke-width: 1.0;"/><!--link Fino to FinoTitulo--><path d="M293.82,179.1144 L293.9194,179.3764 L284.3678,182.1089 L275.3988,186.3774 L266.2401,190.1458 L256.4574,192.2692 L247.5017,196.5728 L238.0804,199.649 L228.8444,203.2137 L219.7372,207.1178 L210.1862,209.8519 L201.5186,214.9151 L191.7025,216.9502 L182.6507,221.0005 L173.6922,225.2966 L164.191,228.1622 L155.0075,231.8652 L145.7038,235.2514 L136.5471,239.0248 L127.3194,242.6114 L117.95,245.8244 " fill="none" style="stroke: #FFFFFF; stroke-width: 1.0;"/><polygon fill="#FFFFFF" points="113.12,247.6544,113.1239,247.7243,115.079,247.6263,117.057,247.9383,119.0276,248.1168,120.9736,247.8562,122.9535,248.2034,122.9429,248.1798,121.8635,247.6094,120.8377,247.1581,119.8492,246.7896,118.7322,246.1358,117.7952,245.8815,117.9634,245.9573,118.0679,244.7636,118.6638,243.7911,119.3196,242.8456,119.6266,241.7431,120.117,240.7231,120.133,240.7393,118.7101,242.1018,117.3601,243.5379,115.9749,244.9385,114.6568,246.4068,113.12,247.6544" style="stroke: #FFFFFF; stroke-width: 1.0;"/><!--link FinoTitulo to *end--><path d="M117.1,285.0244 L117.1195,285.1157 L120.5416,285.5863 L124.0779,286.5924 L127.577,287.4241 L130.9539,287.6823 L134.5,288.7344 L134.4938,288.7004 L139.0905,289.3895 L143.7183,290.2499 L148.3678,291.2294 L152.9426,291.7986 L157.622,292.9425 L157.664,293.1849 L162.2574,293.4768 L166.9732,294.4765 L171.704,295.5625 L176.3479,296.1461 L181.0375,296.994 L181.0424,297.0239 L185.7662,297.7594 L190.5125,298.6311 L195.2479,299.4371 L200.004,300.3685 L204.6927,300.8911 L204.739,301.1857 L209.5078,301.9383 L214.2469,302.5009 L219.0296,303.3416 L223.8143,304.1954 L228.5342,304.6361 L228.4867,304.3191 L233.3738,305.6533 L238.1043,305.9438 L242.9539,307.0278 L247.6809,307.2946 L252.5084,308.2312 L252.5041,308.2011 L257.3658,309.247 L262.1267,309.5888 L266.9471,310.3461 L271.7725,311.1383 L276.5618,311.6788 L276.6356,312.2288 L286.1871,312.9659 L295.8647,314.6429 L305.3382,314.7993 L315.1162,317.2238 L324.6917,318.1403 L324.7812,318.8657 L334.3251,319.9082 L343.9134,321.3109 L353.2952,321.0401 L362.8283,321.996 L372.4956,324.0387 L372.4019,323.2155 L381.8966,325.0314 L391.2857,325.9198 L400.8279,328.1536 L410.1087,328.0901 L419.5449,329.3922 L419.4971,328.9373 L428.7501,330.6602 L437.7984,330.4387 L446.9923,331.5999 L456.3286,334.1141 L465.4113,334.2189 L465.4301,334.4116 L474.294,335.4074 L483.0994,335.8037 L491.9781,336.9509 L500.8407,337.9344 L509.6663,338.5369 L509.6473,338.3278 L518.1054,339.2599 L526.5573,340.1236 L535.0214,341.1218 L543.4381,341.597 L551.8813,342.3643 L551.8986,342.5692 L559.8099,342.7901 L567.7547,343.4064 L575.7482,344.6004 L583.6519,344.7308 L591.628,345.7193 L591.6458,345.9448 L599.0052,346.391 L606.3587,346.7609 L613.7256,347.303 L621.124,348.2432 L628.478,348.6201 L628.4682,348.4874 L635.2022,349.3753 L641.8698,349.3609 L648.6129,350.3725 L655.3135,350.8064 L662.0027,351.0847 L662.0244,351.4106 L671.2335,351.7631 L680.5204,353.2825 L689.737,353.7476 L698.9243,353.7721 L708.1597,354.5192 L717.3625,354.778 L717.3591,354.7202 L724.7647,355.5292 L732.1335,355.7133 L739.5175,356.1544 L746.8807,356.2412 L754.28,356.9444 " fill="none" style="stroke: #FFFFFF; stroke-width: 1.0;"/><polygon fill="#FFFFFF" points="759.33,357.2144,759.3617,357.2769,757.511,356.1998,755.8461,355.489,754.1207,354.659,752.1962,353.4367,750.5473,352.7574,750.5281,352.7401,751.1996,353.5022,751.9681,354.3518,752.804,355.2623,753.4076,355.9632,754.3366,356.9576,754.4602,357.0946,753.3558,357.5594,752.6124,358.4243,751.9129,359.338,750.9573,359.9678,750.1364,360.7468,750.1446,360.7681,751.9713,360.0304,753.8352,359.3894,755.6812,358.7018,757.5613,358.1031,759.33,357.2144" style="stroke: #FFFFFF; stroke-width: 1.0;"/><!--link Fino to *end--><path d="M322.38,187.8144 L322.4733,187.8197 L322.3227,190.0099 L322.7189,192.2314 L322.9371,194.4426 L322.5698,196.6203 L323.0129,198.8445 L322.9785,198.8409 L323.0883,201.326 L323.3712,203.8293 L323.7744,206.3454 L323.7629,208.8177 L324.3323,211.3513 L324.5751,211.3912 L324.4994,214 L325.1326,216.7255 L325.8522,219.4653 L326.0686,222.1222 L326.5497,224.8227 L326.5792,224.8297 L327.2012,227.6042 L327.9575,230.4108 L328.649,233.2019 L329.4641,236.0225 L329.8763,238.7469 L330.159,238.8417 L331.0919,241.6158 L331.8424,244.3289 L332.8598,247.1314 L333.8898,249.9382 L334.5233,252.612 L334.2326,252.4769 L336.0325,255.398 L336.8753,257.8742 L338.4457,260.6886 L339.2668,263.1547 L340.702,265.9063 L340.6765,265.8897 L342.5629,268.5279 L343.8526,270.779 L345.4944,273.2586 L347.1657,275.7573 L348.6238,278.1177 L348.7593,278.2437 L350.5978,280.2398 L352.6678,282.4513 L354.3633,284.3144 L356.6173,286.6971 L358.5,288.7344 L358.6395,288.9341 L361.355,290.8108 L364.1397,292.7866 L366.6027,294.3017 L369.3016,296.1545 L372.2094,298.3066 L372.0896,298.0577 L375.7942,300.0146 L379.3638,301.691 L383.1292,303.7741 L386.5602,305.1628 L390.1901,306.9643 L390.1353,306.822 L392.3074,307.859 L394.2455,308.2877 L396.35,309.149 L398.6172,310.4335 L400.5946,310.9643 L400.6564,311.1478 L402.9483,312.0313 L405.048,312.3441 L407.3884,313.3717 L409.6763,314.2435 L411.8421,314.7525 L411.7821,314.5513 L414.233,315.4281 L416.6642,316.239 L419.134,317.1793 L421.4538,317.6163 L423.8573,318.3345 L423.9102,318.5332 L426.3357,318.7729 L428.8632,319.3962 L431.5398,320.5797 L433.9419,320.7317 L436.5655,321.7159 L436.6181,321.9359 L439.252,322.4425 L441.8682,322.8747 L444.5245,323.4749 L447.2737,324.4634 L449.8914,324.9024 L449.8633,324.7724 L452.7208,325.7589 L455.3871,325.8611 L458.2707,326.9689 L461.032,327.5105 L463.7603,327.8995 L463.7813,328.0063 L466.6317,328.4827 L469.5572,329.3417 L472.4148,329.8551 L475.2441,330.224 L478.097,330.7128 L478.118,330.8302 L481.0327,331.1829 L484.0449,332.0803 L486.9469,332.3617 L489.8942,332.8965 L492.8266,333.348 L492.7829,333.0812 L495.807,333.6628 L498.8837,334.5659 L501.8859,335.0141 L504.8615,335.2993 L507.874,335.8106 L507.8528,335.669 L510.9177,336.1736 L513.9449,336.4273 L517.0756,337.3704 L520.1551,337.9723 L523.1644,338.1064 L523.1964,338.3381 L526.2983,338.8392 L529.3394,338.8999 L532.4446,339.4254 L535.5074,339.6432 L538.6226,340.2407 L538.6386,340.366 L541.7467,340.7453 L544.8741,341.2757 L547.9404,341.3267 L551.056,341.7644 L554.1737,342.2194 L554.1959,342.4152 L560.4183,343.1724 L566.5806,343.398 L572.8127,344.2413 L579.046,345.0953 L585.2547,345.7319 L585.2286,345.4617 L591.3804,346.4796 L597.4868,347.0288 L603.582,347.4615 L609.7029,348.1604 L615.8073,348.6889 L615.8342,349.0116 L621.6807,349.0395 L627.5886,349.8069 L633.4724,350.2831 L639.351,350.6971 L645.2316,351.135 L645.2361,351.1975 L650.7744,351.5814 L656.2903,351.6505 L661.8365,352.1455 L667.3738,352.5147 L672.9277,353.1153 L672.9294,353.1436 L678.0036,353.4662 L683.0792,353.8108 L688.1404,353.9218 L693.2201,354.3327 L698.2955,354.6745 L698.2927,354.6212 L702.7969,355.1672 L707.2813,355.3371 L711.7479,355.1688 L716.2455,355.5886 L720.7351,355.8575 L720.7243,355.6012 L727.4795,356.269 L734.2244,356.6945 L740.9622,356.9495 L747.6829,356.7976 L754.43,357.2744 " fill="none" style="stroke: #FFFFFF; stroke-width: 1.0;"/><polygon fill="#FFFFFF" points="759.57,357.4444,759.6005,357.5075,757.7361,356.4637,756.0502,355.7898,754.3062,354.9954,752.371,353.805,750.7005,353.1628,750.6816,353.1451,751.3712,353.8903,752.1561,354.7249,753.0071,355.6217,753.6301,356.3043,754.5725,357.2869,754.6988,357.4214,753.6039,357.9081,752.8777,358.7876,752.1966,359.715,751.2537,360.3636,750.4485,361.1589,750.457,361.1799,752.2687,360.4061,754.1195,359.7282,755.9514,359.004,757.8193,358.3681,759.57,357.4444" style="stroke: #FFFFFF; stroke-width: 1.0;"/><!--link *start to Medio--><path d="M762.43,84.3844 L762.6221,84.5884 L755.1424,90.4877 L748.7889,97.5831 L742.0687,104.289 L734.1424,109.7141 L727.8145,116.8367 L720.5868,123.0037 L713.7172,129.551 L707.0966,136.3627 L700.25,142.9344 " fill="none" style="stroke: #FFFFFF; stroke-width: 1.0;"/><polygon fill="#FFFFFF" points="696.46,146.5044,696.4832,146.5705,698.2734,145.7229,700.1994,145.263,702.0812,144.6768,703.8176,143.6756,705.7553,143.2489,705.7545,143.223,704.6201,143.0725,703.4897,143.0526,702.362,143.1234,701.2249,142.8815,700.101,143.0776,700.2855,143.0831,699.9253,141.9403,700.1036,140.8139,700.3477,139.6894,700.2095,138.5533,700.2723,137.4233,700.2933,137.4321,699.5001,139.2354,698.8023,141.0788,698.0584,142.9028,697.4025,144.7637,696.46,146.5044" style="stroke: #FFFFFF; stroke-width: 1.0;"/><!--link Medio to MedioTitulo--><path d="M638.88,183.5944 L638.9884,183.8528 L629.435,186.9575 L620.5172,191.577 L611.3924,195.7033 L601.587,198.2072 L592.6837,202.8613 L583.2725,206.305 L574.0634,210.2304 L564.9948,214.4906 L555.4422,217.5968 L546.8531,223.0001 L537.0112,225.4169 L528.003,229.8212 L519.0965,234.468 L509.5983,237.7039 L500.4464,241.7658 L491.18,245.5544 " fill="none" style="stroke: #FFFFFF; stroke-width: 1.0;"/><polygon fill="#FFFFFF" points="486.37,247.5744,486.3716,247.6444,488.3362,247.4803,490.31,247.7268,492.2808,247.8395,494.2418,247.5126,496.2164,247.7943,496.2066,247.7704,495.1158,247.2332,494.0746,246.8168,493.0679,246.4845,491.9424,245.8627,490.9833,245.6462,491.154,245.7163,491.2185,244.5198,491.7815,243.5279,492.4053,242.561,492.6753,241.4489,493.1314,240.4131,493.1479,240.4287,491.7714,241.838,490.4701,243.3185,489.1325,244.7646,487.8642,246.2761,486.37,247.5744" style="stroke: #FFFFFF; stroke-width: 1.0;"/><!--link MedioTitulo to *end--><path d="M503.13,286.2944 L503.2026,286.5651 L512.6746,288.3593 L522.5721,291.7402 L532.3311,294.6045 L541.6343,295.7695 L551.5416,299.1866 L561.1088,301.3359 L570.8114,303.9897 L580.608,306.9943 L590.0804,308.7902 L600.1982,312.992 L609.4769,314.0658 L619.314,317.2212 L629.2192,320.6306 L638.7281,322.5624 L648.469,325.3592 L658.122,327.8286 L667.8824,330.6981 L677.5911,333.3746 L687.3985,336.4194 L697.1156,339.1278 L706.8062,341.7368 L716.3472,343.7884 L726.1071,346.656 L735.8772,349.5618 L745.0732,350.3272 L755.01,353.8544 " fill="none" style="stroke: #FFFFFF; stroke-width: 1.0;"/><polygon fill="#FFFFFF" points="760.07,355.2044,760.1141,355.2588,758.4521,353.8577,757.0484,352.7758,755.5607,351.59,753.7962,350.0623,752.4148,349.0078,752.3923,348.9949,752.8568,349.9168,753.4345,350.9041,754.0908,351.9366,754.4761,352.8129,755.241,353.9081,755.3332,354.0679,754.1559,354.2913,753.2479,354.9815,752.3727,355.7285,751.3065,356.1443,750.3407,356.7343,750.3442,356.7568,752.2849,356.4178,754.2417,356.1811,756.1907,355.8951,758.1545,355.7032,760.07,355.2044" style="stroke: #FFFFFF; stroke-width: 1.0;"/><!--link Medio to *end--><path d="M685.21,187.8044 L685.4611,187.9289 L689.0418,196.2822 L694.0942,205.3656 L698.6674,214.2112 L701.6645,222.2751 L706.7505,231.375 L710.6606,239.8917 L715.0386,248.6405 L719.7419,257.5507 L723.3242,265.9048 L729.138,275.3657 L732.0505,283.3876 L736.8938,292.3672 L741.9726,301.4636 L745.6809,309.8802 L750.1915,318.6948 L754.3985,327.3588 L758.9766,336.2068 L763.09,344.8244 " fill="none" style="stroke: #FFFFFF; stroke-width: 1.0;"/><polygon fill="#FFFFFF" points="765.45,349.5744,765.52,349.5772,765.2326,347.6006,765.3556,345.6406,765.345,343.6752,764.8948,341.6921,765.0531,339.7335,765.0285,339.7252,764.5552,340.7593,764.2055,341.8354,763.9418,342.9406,763.3818,343.9454,763.2368,345.0909,763.2961,345.2657,762.0979,344.5287,761.0727,344.3019,760.0686,344.1375,758.9417,343.6108,757.8795,343.2746,757.894,343.2921,759.3868,344.5264,760.9457,345.8403,762.4728,347.1157,764.0608,348.4645,765.45,349.5744" style="stroke: #FFFFFF; stroke-width: 1.0;"/><!--link *start to Grueso--><path d="M776.33,84.0944 L776.521,84.2994 L782.9924,90.2468 L790.5834,97.3963 L797.8099,104.1543 L803.8372,109.625 L811.4538,116.8019 L818.1757,123.0183 L825.2537,129.6169 L832.5792,136.4812 L839.68,143.1044 " fill="none" style="stroke: #FFFFFF; stroke-width: 1.0;"/><polygon fill="#FFFFFF" points="843.54,146.7044,843.6044,146.7319,842.6394,144.8386,842.0521,143.1067,841.3418,141.3222,840.227,139.3649,839.6721,137.6468,839.6462,137.6459,839.5712,138.7723,839.6267,139.9034,839.773,141.0379,839.6066,142.1609,839.8781,143.2999,839.8848,143.4844,838.7398,143.1312,837.6144,143.3164,836.4915,143.5674,835.3545,143.4361,834.225,143.5059,834.2324,143.5274,836.0845,144.1355,837.9703,144.8416,839.8399,145.5004,841.7404,146.2493,843.54,146.7044" style="stroke: #FFFFFF; stroke-width: 1.0;"/><!--link Grueso to GruesoTitulo--><path d="M857.98,187.7944 L858.2459,187.883 L854.4092,196.7614 L852.1312,206.1592 L849.3456,215.3879 L844.8909,224.0603 L842.6484,233.4699 L839.7,242.6444 " fill="none" style="stroke: #FFFFFF; stroke-width: 1.0;"/><polygon fill="#FFFFFF" points="838.01,247.7144,838.0617,247.7617,839.2376,246.1677,840.7165,244.851,842.0967,243.444,843.1524,241.7401,844.6574,240.4471,844.6458,240.424,843.5815,240.825,842.5755,241.3428,841.6101,241.942,840.5049,242.2611,839.5954,242.9724,839.7606,243.0548,838.9024,241.8662,838.5263,240.9182,838.2091,239.9995,837.5496,238.9101,837.0702,237.9105,837.0928,237.9126,837.2475,239.8702,837.5053,241.8377,837.7134,243.8004,838.0164,245.7722,838.01,247.7144" style="stroke: #FFFFFF; stroke-width: 1.0;"/><!--link GruesoTitulo to *end--><path d="M817.74,288.8744 L817.9695,289.0352 L811.5647,296.7274 L806.5054,305.3622 L801.0079,313.6901 L794.0695,321.0087 L789.0408,329.6649 L782.9371,337.5681 L777.68,346.0644 " fill="none" style="stroke: #FFFFFF; stroke-width: 1.0;"/><polygon fill="#FFFFFF" points="774.76,350.2244,774.796,350.2845,776.3785,349.0932,778.1722,348.2543,779.8971,347.3006,781.3958,345.9697,783.2076,345.161,783.2031,345.1354,782.0686,345.2154,780.9566,345.4241,779.8601,345.7222,778.7099,345.712,777.635,346.1336,777.8168,346.1653,777.2335,344.983,777.181,343.8932,777.1932,342.8148,776.8287,341.6706,776.6624,340.561,776.6847,340.5654,776.2714,342.4916,775.9598,344.4378,775.5992,346.3744,775.332,348.3294,774.76,350.2244" style="stroke: #FFFFFF; stroke-width: 1.0;"/><!--link Grueso to *end--><path d="M907.74,181.9444 L907.7692,182.0331 L912.3275,183.2956 L917.0568,185.0784 L921.7305,186.6918 L926.221,187.748 L930.965,189.5754 L930.954,189.5427 L935.9784,191.1105 L941.0585,192.8432 L946.1774,194.6906 L951.1628,196.1429 L956.3352,198.1486 L956.4165,198.3808 L961.4523,199.71 L966.7257,201.7172 L972.0281,203.8071 L977.1618,205.4157 L982.3843,207.2774 L982.3948,207.3059 L987.4318,209.1238 L992.5165,211.0712 L997.5782,212.9561 L1002.6838,214.9603 L1007.6463,216.5756 L1007.7538,216.8538 L1010.1306,217.7756 L1012.4381,218.5179 L1014.8471,219.5229 L1017.2609,220.5402 L1019.5239,221.1675 L1019.404,220.8702 L1021.8629,222.345 L1023.927,222.841 L1026.2913,224.0811 L1028.3464,224.5549 L1030.6549,225.6568 L1030.643,225.6288 L1032.8242,226.8278 L1034.7269,227.3722 L1036.794,228.3029 L1038.8748,229.266 L1040.8561,229.9952 L1040.9328,230.1636 L1042.673,230.8215 L1044.5443,231.7671 L1046.2035,232.2473 L1048.179,233.4217 L1049.9442,234.1345 L1050.0585,234.3497 L1052.8576,235.8066 L1055.7135,237.3704 L1058.3058,238.4377 L1061.0913,239.8689 L1064.0479,241.6225 L1063.8728,241.409 L1065.5218,242.8247 L1066.9734,243.9997 L1068.7112,245.5238 L1069.9604,246.452 L1071.5,247.7344 L1071.3666,247.6605 L1072.779,249.9313 L1073.6213,251.8863 L1074.8689,254.0659 L1076.5133,256.4653 L1077.4513,258.4733 L1077.6405,258.5143 L1078.206,260.5524 L1078.183,262.4629 L1078.8971,264.5332 L1079.4507,266.5688 L1079.63,268.5231 L1079.4237,268.4838 L1079.2109,270.4962 L1078.9305,272.4958 L1078.7828,274.5206 L1078.1192,276.4472 L1077.7437,278.4286 L1077.9196,278.5351 L1076.2845,280.3622 L1074.9888,282.3949 L1074.1889,284.728 L1072.4762,286.5081 L1071.5,288.7344 L1071.6566,288.8976 L1069.8353,290.4581 L1067.961,291.9634 L1066.2064,293.5933 L1064.7281,295.5114 L1062.8587,297.0217 L1062.7867,296.9098 L1060.6211,298.7727 L1057.9662,299.8745 L1055.8675,301.8418 L1053.4557,303.3217 L1050.9595,304.6704 L1051.0064,304.7687 L1048.0237,306.0957 L1045.209,307.7744 L1042.2425,309.1354 L1039.2125,310.3635 L1036.2353,311.7019 L1036.2772,311.8135 L1032.7916,312.9349 L1029.5008,314.5743 L1025.9897,315.6278 L1022.5692,316.9223 L1019.1189,318.1377 L1019.0395,317.8792 L1015.2509,319.1378 L1011.5579,320.7077 L1007.7296,321.837 L1003.8528,322.8085 L1000.0432,323.999 L1000.0061,323.8607 L997.9905,324.4494 L995.9092,324.7932 L994.0086,325.8102 L992.0186,326.494 L989.9059,326.7209 L989.962,326.9481 L987.887,327.5381 L985.7054,327.6965 L983.6363,328.3104 L981.4927,328.6228 L979.4411,329.3073 L979.4692,329.4304 L977.3179,329.9049 L975.2005,330.5281 L972.9754,330.6799 L970.8372,331.2119 L968.7028,331.7608 L968.7437,331.9536 L966.5636,332.4721 L964.2726,332.4673 L962.1104,333.0705 L959.9506,333.6843 L957.7453,334.0841 L957.6944,333.8174 L953.3034,335.0917 L948.8242,335.9033 L944.323,336.6 L939.8719,337.5594 L935.3888,338.3506 L935.4422,338.67 L930.8489,338.969 L926.3781,339.9998 L921.859,340.7425 L917.3297,341.4236 L912.8043,342.1284 L912.8134,342.1903 L908.3357,342.8404 L903.8119,343.1781 L899.3505,343.9384 L894.8706,344.5738 L890.4247,345.4388 L890.4284,345.4669 L886.0815,346.0505 L881.7374,346.6558 L877.3627,347.0292 L873.0273,347.7005 L868.6829,348.3032 L868.6766,348.2501 L864.5787,349.0457 L860.4367,349.4674 L856.2549,349.5527 L852.1422,350.2228 L848.0117,350.743 L847.9846,350.4879 L844.1917,351.2777 L840.3732,351.8265 L836.5367,352.2056 L832.6571,352.1798 L828.844,352.7796 L828.8637,352.9849 L825.3661,352.7819 L821.9599,353.5301 L818.4924,353.6401 L815.063,354.1463 L811.6126,354.4344 L811.6215,354.5409 L806.2455,355.0935 L800.8169,355.0156 L795.4766,355.995 L790.0811,356.3133 L784.69,356.6844 " fill="none" style="stroke: #FFFFFF; stroke-width: 1.0;"/><polygon fill="#FFFFFF" points="779.41,357.0744,779.4338,357.1403,781.2156,357.6138,783.137,358.4737,785.013,359.2077,786.7394,359.5281,788.6728,360.4211,788.6558,360.4015,787.7246,359.5729,786.8789,358.8429,786.0926,358.1815,785.1014,357.2837,784.3972,356.7171,784.5367,356.838,784.9792,355.7244,785.829,354.9637,786.7284,354.2461,787.3388,353.2779,788.1012,352.4415,788.1119,352.4616,786.3579,353.3587,784.6527,354.3472,782.924,355.2916,781.2401,356.3201,779.41,357.0744" style="stroke: #FFFFFF; stroke-width: 1.0;"/><!--link *start to Doble--><path d="M779.38,79.6644 L779.4337,79.9394 L789.0968,81.0412 L799.0748,83.7554 L808.9502,85.9445 L818.4883,86.4069 L828.4735,89.1578 L838.2071,90.6204 L848.0407,92.5957 L857.944,94.9274 L867.6074,96.0309 L877.7484,99.5791 L887.2684,99.9489 L897.2016,102.4339 L907.1853,105.1769 L916.8756,106.4185 L926.7377,108.539 L936.5348,110.327 L946.4113,112.5214 L956.2494,114.5197 L966.1607,116.8923 L976.0052,118.923 L985.83,120.8528 L995.5441,122.2161 L1005.4202,124.4086 L1015.3039,126.6399 L1024.7627,126.6962 L1034.9432,130.4469 L1044.5166,131.09 L1054.5516,134.0956 L1064.1112,134.6683 L1074.043,137.1455 L1084.0728,140.1246 L1093.6934,141.0094 L1103.5555,143.13 L1113.4378,145.3543 L1123.2803,147.3749 L1132.9956,148.7441 L1142.8927,151.0441 L1152.4956,151.8382 L1162.5373,154.8785 L1172.4275,157.1427 L1182.11,158.3444 " fill="none" style="stroke: #FFFFFF; stroke-width: 1.0;"/><polygon fill="#FFFFFF" points="1187.28,159.3544,1187.3202,159.4118,1185.587,158.1119,1184.0892,157.1484,1182.5148,156.0754,1180.6882,154.6421,1179.2107,153.7076,1179.1892,153.6931,1179.7251,154.5663,1180.3693,155.5125,1181.0888,156.5094,1181.5488,157.3315,1182.3722,158.3985,1182.4754,158.5515,1181.3166,158.8566,1180.459,159.6084,1179.6381,160.4148,1178.6035,160.904,1177.6813,161.56,1177.6864,161.5822,1179.5987,161.1085,1181.5341,160.7358,1183.4584,160.3143,1185.404,159.9858,1187.28,159.3544" style="stroke: #FFFFFF; stroke-width: 1.0;"/><!--link Doble to DobleTitulo--><path d="M1222.5,187.7944 L1222.7802,187.7944 L1221.9476,198.7644 L1222.7577,209.7344 L1223.0329,220.7044 L1221.5488,231.6744 L1222.5,242.6444 " fill="none" style="stroke: #FFFFFF; stroke-width: 1.0;"/><polygon fill="#FFFFFF" points="1222.5,247.7144,1222.564,247.7428,1223.1738,245.8583,1224.1589,244.1405,1225.0217,242.3685,1225.4827,240.4178,1226.5,238.7144,1226.4817,238.6961,1225.5995,239.4138,1224.8096,240.224,1224.0839,241.0983,1223.137,241.7514,1222.5,242.7144,1222.6305,242.8449,1221.5514,241.7658,1220.8534,241.0678,1220.2018,240.4162,1219.2798,239.4942,1218.5,238.7144,1218.5208,238.7236,1219.2903,240.51,1220.1544,242.3385,1220.9728,244.1467,1221.8784,245.9937,1222.5,247.7144" style="stroke: #FFFFFF; stroke-width: 1.0;"/><!--link DobleTitulo to *end--><path d="M1160.3,283.0944 L1160.3192,283.1858 L1154.9021,284.0422 L1149.5977,285.4344 L1144.2566,286.6522 L1138.7947,287.2961 L1133.5,288.7344 L1133.4796,288.6328 L1123.0248,290.2611 L1112.673,292.4016 L1102.3929,294.898 L1091.866,296.1676 L1081.6846,299.1556 L1081.8266,299.88 L1070.9522,300.4016 L1060.4922,303.0383 L1050.0828,305.933 L1039.3792,307.3263 L1028.8303,309.5092 L1028.8475,309.5986 L1018.3809,311.4706 L1007.9924,313.7493 L997.5662,315.8319 L987.2119,318.2889 L976.6233,319.5251 L976.7892,320.4043 L966.8165,322.2967 L956.7369,323.6219 L946.8139,325.7773 L936.8982,327.9716 L926.75,328.9331 L926.5751,327.9876 L917.359,331.5907 L907.5669,332.0804 L898.2127,334.937 L888.4076,335.3561 L878.9554,337.6833 L869.5964,340.5135 L859.849,341.2453 L850.3308,343.2152 L840.7497,344.8452 L840.8303,345.2894 L831.4438,347.0978 L821.9389,348.2531 L812.6032,350.3416 L802.9936,350.9203 L793.7926,353.7509 L784.32,355.0844 " fill="none" style="stroke: #FFFFFF; stroke-width: 1.0;"/><polygon fill="#FFFFFF" points="779.37,355.9744,779.3866,356.0424,781.2505,356.3083,783.212,356.973,785.1417,357.5079,786.9669,357.6155,788.9368,358.3146,788.922,358.2933,787.9265,357.5524,787.0054,356.9188,786.1362,356.3597,785.0885,355.5436,784.2907,355.0875,784.4423,355.1928,784.7636,354.0384,785.5274,353.1915,786.3452,352.382,786.8489,351.3543,787.5178,350.4414,787.5306,350.4602,785.8823,351.5392,784.2921,352.7038,782.6739,353.8271,781.1092,355.0293,779.37,355.9744" style="stroke: #FFFFFF; stroke-width: 1.0;"/><!--link Doble to *end--><path d="M1257.51,181.2844 L1257.5415,181.3723 L1261.0459,182.401 L1264.735,183.9452 L1268.364,185.3216 L1271.795,186.1459 L1275.5,187.7344 L1275.4895,187.7015 L1278.8195,188.6301 L1282.2024,189.7246 L1285.622,190.9345 L1288.915,191.7469 L1292.3854,193.116 L1292.4495,193.3535 L1295.9248,193.8207 L1299.5873,194.9815 L1303.2727,196.2269 L1306.8252,196.98 L1310.4475,197.992 L1310.4546,198.0214 L1314.209,198.8792 L1317.9955,199.8712 L1321.7666,200.7985 L1325.5672,201.8494 L1329.2714,202.4973 L1329.3362,202.7884 L1333.1711,203.6459 L1336.9642,204.3156 L1340.8186,205.2601 L1344.6757,206.2176 L1348.442,206.7669 L1348.3737,206.4537 L1352.3268,207.8953 L1356.0549,208.3057 L1359.9541,209.5 L1363.6771,209.887 L1367.5445,210.9357 L1367.5378,210.906 L1371.341,212.0978 L1374.9875,212.5958 L1378.7265,213.5031 L1382.4732,214.4449 L1386.164,215.1387 L1386.2083,215.3183 L1389.7078,216.0114 L1393.2831,217.0114 L1396.7359,217.5149 L1400.3713,218.7591 L1403.8853,219.5108 L1403.9521,219.7451 L1407.2212,220.636 L1410.5234,221.6432 L1413.6715,222.1099 L1416.9326,222.9729 L1420.2937,224.1869 L1420.2029,223.9261 L1423.2212,225.1852 L1426.1372,226.1504 L1429.2017,227.5419 L1432.0126,228.2056 L1434.9742,229.302 L1434.9112,229.1631 L1437.5237,230.5322 L1439.8668,231.3077 L1442.4014,232.5053 L1445.1235,234.1159 L1447.5118,234.991 L1447.6163,235.154 L1449.684,236.5454 L1451.4265,237.4298 L1453.5762,238.9492 L1455.6373,240.3302 L1457.4916,241.3889 L1457.3407,241.2429 L1458.8624,242.8076 L1460.3346,244.3245 L1461.904,245.9354 L1463.0959,247.181 L1464.4986,248.6306 L1464.7004,248.6701 L1464.9442,252.0943 L1465.5776,255.5947 L1466.7798,259.2064 L1466.9346,262.6131 L1467.9345,266.1852 L1468.1434,266.2721 L1467.1391,268.3371 L1466.0642,270.3726 L1465.1487,272.4745 L1464.602,274.7298 L1463.5335,276.768 L1463.4274,276.6879 L1461.9368,279.3198 L1459.7241,281.4065 L1458.3324,284.1132 L1456.4785,286.4708 L1454.5,288.7344 L1454.5595,288.8255 L1451.6849,290.5985 L1449.0234,292.6978 L1446.1694,294.5023 L1443.2348,296.1836 L1440.367,297.9671 L1440.4109,298.0779 L1438.1722,298.7744 L1436.1373,299.9853 L1433.8719,300.6143 L1431.7013,301.4827 L1429.4995,302.2725 L1429.4192,302.0143 L1426.8101,302.9213 L1424.2979,304.1393 L1421.6486,304.9172 L1418.9503,305.5374 L1416.3201,306.3764 L1416.2847,306.2377 L1413.231,307.0635 L1410.1148,307.6436 L1407.1706,308.8991 L1404.1413,309.8204 L1400.9951,310.2833 L1401.0442,310.512 L1397.5992,311.3281 L1394.0608,311.7095 L1390.621,312.5497 L1387.1159,313.0862 L1383.6913,313.9975 L1383.7142,314.1216 L1379.8879,314.8105 L1376.0893,315.6493 L1372.203,316.0127 L1368.3875,316.7595 L1364.5751,317.5235 L1364.6064,317.7181 L1360.4627,318.4408 L1356.234,318.6354 L1352.1041,319.4437 L1347.9759,320.2627 L1343.813,320.8656 L1343.7747,320.5968 L1339.3868,321.6537 L1334.9325,322.2442 L1330.4618,322.7189 L1326.0287,323.4584 L1321.5715,324.0284 L1321.6123,324.3497 L1316.8432,324.488 L1312.1675,325.3623 L1307.455,325.947 L1302.7346,326.4696 L1298.0173,327.0161 L1298.0244,327.0783 L1293.0829,327.6297 L1288.1057,327.8674 L1283.1768,328.5294 L1278.2337,329.066 L1273.3168,329.8333 L1273.3197,329.8615 L1268.1848,330.4024 L1263.0521,330.9652 L1257.8954,331.2952 L1252.7695,331.9242 L1247.6366,332.4842 L1247.6316,332.431 L1242.3619,333.2373 L1237.0569,333.6686 L1231.7203,333.7629 L1226.4388,334.4433 L1221.1431,334.9734 L1221.1212,334.7178 L1215.7261,335.5675 L1210.3102,336.1756 L1204.8798,336.6136 L1199.4144,336.646 L1194.003,337.3052 L1194.0192,337.5108 L1188.453,337.4119 L1182.9619,338.2654 L1177.4203,338.4799 L1171.9101,339.0912 L1166.3827,339.4841 L1166.3904,339.5906 L1160.8111,340.0994 L1155.1859,339.9771 L1149.6376,340.913 L1144.0413,341.1873 L1138.4488,341.5144 L1138.4793,341.9872 L1129.156,343.1148 L1119.735,342.7325 L1110.3925,343.5639 L1101.0387,344.2201 L1091.6802,344.804 L1082.3061,345.147 L1082.3061,345.1459 L1073.1258,346.6083 L1063.7946,345.3657 L1054.6487,347.4452 L1045.3272,346.3771 L1036.1003,347.0038 L1026.9073,348.2383 L1026.9099,348.2916 L1016.2446,348.793 L1005.5464,348.6161 L994.9404,350.3404 L984.2562,350.4515 L973.5846,350.8236 L973.6256,351.7916 L963.6394,352.1352 L953.5935,351.0723 L943.6135,351.5622 L933.6458,352.3431 L923.6702,352.9381 L923.6878,353.4118 L914.6553,353.8109 L905.6155,354.011 L896.5489,353.4899 L887.5625,355.1293 L878.4962,354.6172 L878.5055,354.8987 L870.6753,354.852 L862.8523,355.0226 L855.0297,355.2062 L847.2122,355.545 L839.3951,355.8961 L839.4001,356.0792 L828.4616,356.1046 L817.5178,355.9386 L806.6198,357.4447 L795.6543,356.483 L784.74,357.3944 " fill="none" style="stroke: #FFFFFF; stroke-width: 1.0;"/><polygon fill="#FFFFFF" points="779.47,357.5144,779.497,357.579,781.2346,358.1456,783.1304,359.0912,784.9747,359.9133,786.6497,360.3296,788.5591,361.3077,788.5412,361.2889,787.6428,360.4234,786.8346,359.6522,786.0891,358.9467,785.1276,358.015,784.4687,357.4001,784.6021,357.5276,785.0983,356.4369,785.984,355.7184,786.9173,355.0454,787.5741,354.1081,788.3762,353.3098,788.386,353.3303,786.5904,354.1411,784.8392,355.0454,783.0665,355.9046,781.3346,356.85,779.47,357.5144" style="stroke: #FFFFFF; stroke-width: 1.0;"/><!--
@startuml
skinparam titleBorderColor #222222
skinparam titleBackgroundColor #222222
skinparam titlefontColor #orange
skinparam titleFontStyle bold
skinparam titleFontSize 30

skinparam handwritten true
skinparam shadowing false
skinparam backgroundColor #222222
skinparam padding 3
skinparam StateStartColor #white
skinparam StateEndColor #white

skinparam note {
    backgroundColor #222222
    fontStyle bold
    borderColor #white
    FontColor #yellow
     fontSize 20
}

skinparam state {
    fontColor #white
    fontColor<<Reservada>> #cyan
    fontStyle bold
    arrowColor #white
    backgroundColor #222222
    borderColor #white
    circleCharacterFontName #white
    fontSize 20
}

hide empty description

title Sintaxis: Cierre de Grupo

note right of Fino: <color:cyan>..</color>
note right of FinoTitulo: <texto> <color:cyan>..</color>
note right of Medio: <color:cyan>..</color>
note right of MedioTitulo: <texto> <color:cyan>..</color>
note right of Grueso: <color:cyan>..</color>
note right of GruesoTitulo: <texto> <color:cyan>..</color>
note right of Doble: <color:cyan>..</color>
note right of DobleTitulo: <texto> <color:cyan>..</color>

[*] -down-> Fino
Fino -down-> FinoTitulo
FinoTitulo -down-> [*]
Fino -down-> [*]
[*] -down-> Medio
Medio -down-> MedioTitulo
MedioTitulo -down-> [*]
Medio -down-> [*]
[*] -down-> Grueso
Grueso -down-> GruesoTitulo
GruesoTitulo -down-> [*]
Grueso -down-> [*]
[*] -down-> Doble
Doble -down-> DobleTitulo
DobleTitulo -down-> [*]
Doble -down-> [*]

@enduml

PlantUML version 1.2019.05(Sat Apr 20 18:45:36 CEST 2019)
(GPL source distribution)
Java Runtime: Java(TM) SE Runtime Environment
JVM: Java HotSpot(TM) 64-Bit Server VM
Java Version: 11.0.14+8-LTS-263
Operating System: Windows 10
OS Version: 10.0
Default Encoding: windows-1252
Language: es
Country: ES
--></g></svg>