<?xml version="1.0" encoding="UTF-8" standalone="no"?><svg xmlns="http://www.w3.org/2000/svg" xmlns:xlink="http://www.w3.org/1999/xlink" contentScriptType="application/ecmascript" contentStyleType="text/css" height="120px" preserveAspectRatio="none" style="width:643px;height:120px;background:#222222;" version="1.1" viewBox="0 0 643 120" width="643px" zoomAndPan="magnify"><defs/><g><text fill="#FFA500" font-family="courier" font-size="15" font-style="italic" lengthAdjust="spacingAndGlyphs" textLength="396" x="235" y="16.0806">Universo Santa Tecla - USantaTecla@gmail.com</text><polygon fill="none" points="158.5,23.585,158.5,23.7951,168.629,23.1706,178.7581,23.7782,188.8871,23.9846,199.0161,22.8716,209.1452,23.5072,219.2742,23.1585,229.4032,23.2015,239.5323,23.5168,249.6613,22.8936,259.7903,24.1386,269.9194,22.9547,280.0484,23.3872,290.1774,24.0169,300.3065,23.4992,310.4355,23.6532,320.5645,23.553,330.6935,23.7635,340.8226,23.8241,350.9516,24.1707,361.0806,24.256,371.2097,24.2642,381.3387,23.8396,391.4677,24.0485,401.5968,24.2872,411.7258,22.8638,421.8548,24.2635,431.9839,23.2885,442.1129,24.1188,452.2419,23.0899,462.371,23.5165,472.5,23.585,472.5946,23.8133,474.6151,24.4486,476.7561,25.3747,478.9072,26.3253,481.0384,27.2279,483.1066,27.9784,483.1054,27.9779,484.0737,30.1363,484.6877,32.148,485.8302,34.3786,486.7901,36.5336,487.5,38.585,487.6482,38.585,487.7043,41.8844,487.339,45.1838,487.2826,48.4832,487.2929,51.7826,487.5,55.082,487.4819,55.0745,486.5608,57.1783,485.9525,59.4116,484.8102,61.4237,483.8796,63.5236,483.1066,65.6886,483.1357,65.7589,480.9002,66.362,478.7977,67.2861,476.8254,68.5245,474.6769,69.3375,472.5,70.082,472.5,70.8165,462.371,69.7602,452.2419,70.4012,442.1129,70.6725,431.9839,69.6096,421.8548,69.9862,411.7258,70.208,401.5968,70.7338,391.4677,70.0778,381.3387,70.5446,371.2097,69.5282,361.0806,69.4048,350.9516,70.5856,340.8226,69.3651,330.6935,70.591,320.5645,70.2887,310.4355,69.8141,300.3065,69.7283,290.1774,70.5408,280.0484,69.7827,269.9194,70.6739,259.7903,69.5293,249.6613,70.6995,239.5323,70.5663,229.4032,70.327,219.2742,70.1293,209.1452,70.8086,199.0161,70.6956,188.8871,70.2513,178.7581,70.3502,168.629,69.9518,158.5,70.082,158.5914,70.3027,156.3984,69.251,154.2794,68.3778,152.0584,67.2586,149.963,66.4425,147.8934,65.6886,148.0568,65.7563,147.1471,63.6221,146.1228,61.4405,145.1581,59.2836,144.3113,57.1754,143.5,55.082,143.2713,55.082,143.6382,51.7826,143.7465,48.4832,143.6755,45.1838,143.7316,41.8844,143.5,38.585,143.4579,38.5675,144.4055,36.4748,145.138,34.2929,146.2235,32.2572,147.0907,30.1312,147.8934,27.9784,147.9639,28.1485,149.9854,27.029,152.1189,26.1796,154.3139,25.4789,156.451,24.6384,158.5,23.585" style="stroke: #FFA500; stroke-width: 5.0;"/><text fill="#FFA500" font-family="arial" font-size="30" font-weight="bold" lengthAdjust="spacingAndGlyphs" textLength="326" x="152.5" y="57.7246">Skinparam Component</text><text fill="#FFA500" font-family="courier" font-size="15" font-style="italic" lengthAdjust="spacingAndGlyphs" textLength="630" x="1" y="107.1626">Luis Fernández Muñoz - https://www.linkedin.com/in/luisfernandezmunyoz</text><!--
@startuml

title Skinparam Component

skinparam backgroundColor #222222

skinparam default {
    FontSize 20
    FontName courier
    FontStyle normal
    FontColor #white
}
skinparam handwritten true
skinparam shadowing false
skinparam padding 1
skinparam SameClassWidth true

skinparam component {
   BackgroundColor #222222
   BorderColor #orange
   BorderThickness 3
   FontColor #orange
   FontName courier
   FontSize 20
   FontStyle normal
}

skinparam componentStereotype {
   FontColor #orange
   FontName courier
   FontSize 20
   FontStyle normal
}

skinparam interface {
    BackgroundColor #222222
    BorderColor #orange
    FontColor #orange
}

skinparam package {
    BorderThickness 3
    BorderColor #orange
    BackgroundColor #222222
    FontSize 20
    FontName courier
    FontStyle bold
    FontColor #orange
}

skinparam Database {
    BorderThickness 3
    BorderColor #orange
    BackgroundColor #222222
    FontSize 20
    FontName courier
    FontStyle bold
    FontColor #orange
}

skinparam Actor {
    BorderThickness 3
BackgroundColor #222222
BorderColor #orange
FontColor #orange
FontSize 20
FontName courier
}

skinparam Usecase {
     BorderThickness 3
     BorderColor #orange
     BackgroundColor #222222
     FontColor #orange
     FontSize 20
     FontName courier
     FontStyle normal

}

skinparam arrow {
    Thickness 2
    Color #orange
    FontSize 20
    FontName courier
    FontStyle normal
    FontColor #orange
}

skinparam title {
    BorderThickness 5
    BorderColor #orange
    FontSize 30
    FontName arial
    FontStyle bold
    FontColor #orange
    BorderRoundCorner 30
 }

skinparam header {
    FontSize 15
    FontName courier
    FontStyle italic
    FontColor #orange
}

skinparam footer {
    FontSize 15
    FontName courier
    FontStyle italic
    FontColor #orange
}

skinparam legend {
    BorderThickness 1
    BorderColor #orange
    backgroundColor #222222
    FontSize 15
    FontName courier
    FontStyle italic
    FontColor #orange
}

skinparam note {
    BackgroundColor #222222
    BorderColor #orange
    FontName courier
    FontStyle bold
    FontColor #orange

}
header Universo Santa Tecla - USantaTecla@gmail.com
footer Luis Fernández Muñoz - https://www.linkedin.com/in/luisfernandezmunyoz
@enduml

PlantUML version 1.2019.05(Sat Apr 20 18:45:36 CEST 2019)
(GPL source distribution)
Java Runtime: Java(TM) SE Runtime Environment
JVM: Java HotSpot(TM) 64-Bit Server VM
Java Version: 11.0.8+10-LTS
Operating System: Windows 10
OS Version: 10.0
Default Encoding: windows-1252
Language: es
Country: ES
--></g></svg>