<?xml version="1.0" encoding="UTF-8" standalone="no"?><svg xmlns="http://www.w3.org/2000/svg" xmlns:xlink="http://www.w3.org/1999/xlink" contentScriptType="application/ecmascript" contentStyleType="text/css" height="805px" preserveAspectRatio="none" style="width:1470px;height:805px;background:#222222;" version="1.1" viewBox="0 0 1470 805" width="1470px" zoomAndPan="magnify"><defs/><g><polygon fill="#222222" points="380.5,2,380.5,2.2102,390.5,1.5857,400.5,2.1933,410.5,2.3997,420.5,1.2866,430.5,1.9223,440.5,1.5735,450.5,1.6165,460.5,1.9318,470.5,1.3086,480.5,2.5536,490.5,1.3697,500.5,1.8022,510.5,2.4319,520.5,1.9142,530.5,2.0682,540.5,1.9681,550.5,2.1785,560.5,2.2391,570.5,2.5857,580.5,2.6711,590.5,2.6793,600.5,2.2546,610.5,2.4636,620.5,2.7022,630.5,1.2788,640.5,2.6785,650.5,1.7035,660.5,2.5338,670.5,1.505,680.5,1.9315,690.5,2.7416,700.5,1.9513,710.5,2.1053,720.5,2.3386,730.5,2.4162,740.5,1.9961,750.5,2.2872,760.5,1.4276,770.5,2.2844,780.5,2.5482,790.5,2.4445,800.5,2.613,810.5,1.5169,820.5,1.3478,830.5,1.3786,840.5,1.9411,850.5,1.8035,860.5,2.6814,870.5,1.8253,880.5,1.6569,890.5,2.2283,900.5,1.3332,910.5,1.4809,920.5,2.649,930.5,2.4357,940.5,2.7345,950.5,1.6782,960.5,2.3192,970.5,2.5904,980.5,1.5276,990.5,1.9041,1000.5,2.126,1010.5,2.6518,1020.5,1.9958,1030.5,2.4626,1040.5,1.4462,1050.5,1.3227,1060.5,2.5036,1070.5,1.2831,1080.5,2.509,1090.5,2.2066,1100.5,2,1100.2321,2,1100.1462,11.4732,1100.9588,20.9464,1100.2007,30.4196,1101.0919,39.8929,1099.9473,49.3661,1101.1174,58.8393,1100.5,68.3125,1100.5,68.7968,1090.5,68.5575,1080.5,68.3597,1070.5,69.0391,1060.5,68.9261,1050.5,68.4818,1040.5,68.5807,1030.5,68.1822,1020.5,69.029,1010.5,68.4674,1000.5,68.4851,990.5,67.7041,980.5,67.9073,970.5,68.8432,960.5,68.7423,950.5,68.2696,940.5,67.9903,930.5,68.0936,920.5,67.6263,910.5,68.7272,900.5,69.0521,890.5,68.8389,880.5,69.0074,870.5,68.1758,860.5,68.3997,850.5,67.9249,840.5,68.5965,830.5,68.5593,820.5,68.8649,810.5,68.0828,800.5,68.1781,790.5,68.756,780.5,68.8798,770.5,67.8,760.5,68.1186,750.5,68.4618,740.5,67.7017,730.5,68.6659,720.5,68.5705,710.5,68.2117,700.5,68.4547,690.5,69.0412,680.5,67.9996,670.5,68.6275,660.5,68.5981,650.5,68.4283,640.5,68.4534,630.5,68.426,620.5,67.6883,610.5,67.9117,600.5,67.851,590.5,68.3763,580.5,68.4006,570.5,68.4742,560.5,68.0215,550.5,68.245,540.5,68.1923,530.5,68.8894,520.5,68.7391,510.5,67.827,500.5,68.2396,490.5,67.7353,480.5,68.6009,470.5,68.921,460.5,68.8571,450.5,67.8769,440.5,68.7765,430.5,67.5697,420.5,68.5127,410.5,68.0132,400.5,68.4092,390.5,68.5528,380.5,68.3125,380.9721,68.3125,379.7801,58.8393,380.9755,49.3661,380.6782,39.8929,380.8553,30.4196,381.2478,20.9464,380.5055,11.4732,380.5,2" style="stroke: #222222; stroke-width: 1.5;"/><text fill="#FFA500" font-family="sans-serif" font-size="40" font-weight="bold" lengthAdjust="spacingAndGlyphs" textLength="698" x="391.5" y="51.5234">Dominio: Clasificación de Diagramas</text><!--cluster estructurales--><polygon fill="#222222" points="22,136.3125,22,136.3826,25.6,136.1744,29.2,136.3769,32.8,136.4457,36.4,136.0747,40,136.3125,39.9745,136.3077,41.2603,143.7174,42.6744,151.1513,44.1777,158.602,45.3735,165.9948,47,173.4688,47,174.0224,56.9365,172.8385,66.873,173.271,76.8095,173.9007,86.746,173.383,96.6825,173.537,106.619,173.4368,116.5556,173.6473,126.4921,173.7079,136.4286,174.0544,146.3651,174.1398,156.3016,174.148,166.2381,173.7234,176.1746,173.9323,186.1111,174.171,196.0476,172.7476,205.9841,174.1473,215.9206,173.1722,225.8571,174.0026,235.7937,172.9737,245.7302,173.4003,255.6667,174.2104,265.6032,173.42,275.5397,173.5741,285.4762,173.8074,295.4127,173.885,305.3492,173.4648,315.2857,173.756,325.2222,172.8963,335.1587,173.7531,345.0952,174.0169,355.0317,173.9133,364.9683,174.0818,374.9048,172.9857,384.8413,172.8166,394.7778,172.8473,404.7143,173.4099,414.6508,173.2722,424.5873,174.1502,434.5238,173.2941,444.4603,173.1257,454.3968,173.697,464.3333,172.8019,474.2698,172.9496,484.2063,174.1177,494.1429,173.9044,504.0794,174.2032,514.0159,173.147,523.9524,173.7879,533.8889,174.0592,543.8254,172.9963,553.7619,173.3729,563.6984,173.5947,573.6349,174.1205,583.5714,173.4646,593.5079,173.9313,603.4444,172.915,613.381,172.7915,623.3175,173.9724,633.254,172.7518,643.1905,173.9777,653.127,173.6754,663.0635,173.2008,673,173.4688,672.6462,173.4688,673.4588,183.4662,672.7007,193.4637,673.5919,203.4612,672.4473,213.4587,673.6174,223.4561,673.4843,233.4536,673.245,243.4511,673.0472,253.4486,673.7266,263.4461,673.6136,273.4435,673.1693,283.441,673.2682,293.4385,672.8697,303.436,673.7165,313.4335,673.1549,323.4309,673.1726,333.4284,672.3916,343.4259,672.5948,353.4234,673.5307,363.4209,673.4298,373.4183,672.9571,383.4158,672.6778,393.4133,672.7811,403.4108,672.3138,413.4083,673.4147,423.4057,673.7396,433.4032,673.5264,443.4007,673.6949,453.3982,672.8633,463.3957,673.0872,473.3931,672.6124,483.3906,673.284,493.3881,673.2468,503.3856,673.5524,513.3831,672.7703,523.3805,672.8656,533.378,673.4435,543.3755,673.5673,553.373,672.4875,563.3705,672.8061,573.3679,673.1493,583.3654,672.3892,593.3629,673.3534,603.3604,673.258,613.3579,672.8992,623.3553,673.1422,633.3528,673.7287,643.3503,672.6871,653.3478,673.315,663.3453,673.2856,673.3427,673.1158,683.3402,673.1409,693.3377,673.1135,703.3352,672.3758,713.3327,672.5992,723.3301,672.5385,733.3276,673.0638,743.3251,673.0881,753.3226,673.1617,763.3201,672.709,773.3175,672.9325,783.315,673,793.3125,673,793.1923,662.9846,793.8894,652.9692,793.7391,642.9538,792.827,632.9385,793.2396,622.9231,792.7353,612.9077,793.6009,602.8923,793.921,592.8769,793.8571,582.8615,792.8769,572.8462,793.7765,562.8308,792.5697,552.8154,793.5127,542.8,793.0132,532.7846,793.4092,522.7692,793.5528,512.7538,793.7846,502.7385,792.5926,492.7231,793.788,482.7077,793.4907,472.6923,793.6678,462.6769,794.0603,452.6615,793.318,442.6462,793.4878,432.6308,793.5259,422.6154,793.5097,412.6,793.3117,402.5846,794.0232,392.5692,792.7028,382.5538,793.8778,372.5385,792.6885,362.5231,792.7722,352.5077,793.3525,342.4923,793.3408,332.4769,792.8197,322.4615,793.7262,312.4462,793.4214,302.4308,794.0392,292.4154,793.9796,282.4,792.8642,272.3846,792.9146,262.3692,793.1833,252.3538,793.668,242.3385,793.7155,232.3231,793.6137,222.3077,792.9705,212.2923,793.9489,202.2769,793.9463,192.2615,793.2652,182.2462,793.0734,172.2308,792.9111,162.2154,793.0979,152.2,793.4499,142.1846,793.2441,132.1692,792.8947,122.1538,793.7999,112.1385,792.8536,102.1231,793.8149,92.1077,793.7397,82.0923,793.6844,72.0769,794.005,62.0615,793.0666,52.0462,793.0119,42.0308,793.8314,32.0154,792.7156,22,793.3125,21.766,793.3125,22.1155,783.358,22.0687,773.4034,21.6415,763.4489,21.957,753.4943,22.7446,743.5398,22.6485,733.5852,21.4037,723.6307,22.0785,713.6761,21.4861,703.7216,21.9737,693.767,22.293,683.8125,22.4199,673.858,21.3353,663.9034,22.4005,653.9489,22.0084,643.9943,21.4447,634.0398,21.5289,624.0852,22.3266,614.1307,22.2499,604.1761,21.9836,594.2216,21.3279,584.267,22.6581,574.3125,21.6882,564.358,21.4719,554.4034,21.9327,544.4489,22.5897,534.4943,22.6154,524.5398,22.0351,514.5852,21.8488,504.6307,22.1698,494.6761,22.1862,484.7216,21.4922,474.767,22.414,464.8125,22.5588,454.858,21.7842,444.9034,21.5708,434.9489,22.6746,424.9943,22.021,415.0398,21.9998,405.0852,22.299,395.1307,21.3543,385.1761,22.53,375.2216,21.9846,365.267,22.6688,355.3125,21.7841,345.358,22.409,335.4034,21.556,325.4489,22.245,315.4943,22.3793,305.5398,21.6727,295.5852,22.363,285.6307,21.4286,275.6761,21.5295,265.7216,22.6828,255.767,22.6844,245.8125,22.5685,235.858,21.6396,225.9034,22.3842,215.9489,21.5279,205.9943,22.0582,196.0398,21.9987,186.0852,21.7376,176.1307,22.6159,166.1761,22.4433,156.2216,21.6792,146.267,22,136.3125" style="stroke: #FFFFFF; stroke-width: 1.5;"/><path d="M22,173.4688 L22,173.5622 L27,173.2846 L32,173.5547 L37,173.6464 L42,173.1517 L47,173.4688 " fill="#222222" style="stroke: #FFFFFF; stroke-width: 1.5;"/><text fill="#FFFFFF" font-family="sans-serif" font-size="20" font-weight="bold" lengthAdjust="spacingAndGlyphs" textLength="0" x="35" y="162.0742"/><!--cluster A--><polygon fill="#222222" points="54,251.3125,54,251.3826,57.6,251.1744,61.2,251.3769,64.8,251.4457,68.4,251.0747,72,251.3125,71.9745,251.3077,73.2603,258.7174,74.6744,266.1513,76.1777,273.602,77.3735,280.9948,79,288.4688,79,289.0224,88.9286,287.8385,98.8571,288.271,108.7857,288.9007,118.7143,288.383,128.6429,288.537,138.5714,288.4368,148.5,288.6473,158.4286,288.7079,168.3571,289.0544,178.2857,289.1398,188.2143,289.148,198.1429,288.7234,208.0714,288.9323,218,289.171,227.9286,287.7476,237.8571,289.1473,247.7857,288.1722,257.7143,289.0026,267.6429,287.9737,277.5714,288.4003,287.5,289.2104,297.4286,288.42,307.3571,288.5741,317.2857,288.8074,327.2143,288.885,337.1429,288.4648,347.0714,288.756,357,287.8963,366.9286,288.7531,376.8571,289.0169,386.7857,288.9133,396.7143,289.0818,406.6429,287.9857,416.5714,287.8166,426.5,287.8473,436.4286,288.4099,446.3571,288.2722,456.2857,289.1502,466.2143,288.2941,476.1429,288.1257,486.0714,288.697,496,288.4688,495.3332,288.4688,495.4809,298.0069,496.649,307.5451,496.4357,317.0833,496.7345,326.6215,495.6782,336.1597,496.3192,345.6979,496.5904,355.2361,495.5276,364.7743,496,374.3125,496,374.2166,485.9545,374.4385,475.9091,374.9643,465.8636,374.3083,455.8182,374.7751,445.7727,373.7587,435.7273,373.6352,425.6818,374.8161,415.6364,373.5956,405.5909,374.8215,395.5455,374.5191,385.5,374.0446,375.4545,373.9587,365.4091,374.7713,355.3636,374.0132,345.3182,374.9044,335.2727,373.7598,325.2273,374.9299,315.1818,374.7968,305.1364,374.5575,295.0909,374.3597,285.0455,375.0391,275,374.9261,264.9545,374.4818,254.9091,374.5807,244.8636,374.1822,234.8182,375.029,224.7727,374.4674,214.7273,374.4851,204.6818,373.7041,194.6364,373.9073,184.5909,374.8432,174.5455,374.7423,164.5,374.2696,154.4545,373.9903,144.4091,374.0936,134.3636,373.6263,124.3182,374.7272,114.2727,375.0521,104.2273,374.8389,94.1818,375.0074,84.1364,374.1758,74.0909,374.3997,64.0455,373.9249,54,374.3125,54.284,374.3125,54.2468,364.0625,54.5524,353.8125,53.7703,343.5625,53.8656,333.3125,54.4435,323.0625,54.5673,312.8125,53.4875,302.5625,53.8061,292.3125,54.1493,282.0625,53.3892,271.8125,54.3534,261.5625,54,251.3125" style="stroke: #FFFFFF; stroke-width: 1.5;"/><path d="M54,288.4688 L54,288.5622 L59,288.2846 L64,288.5547 L69,288.6464 L74,288.1517 L79,288.4688 " fill="#222222" style="stroke: #FFFFFF; stroke-width: 1.5;"/><text fill="#FFFFFF" font-family="sans-serif" font-size="20" font-weight="bold" lengthAdjust="spacingAndGlyphs" textLength="0" x="67" y="277.0742"/><!--cluster B--><polygon fill="#222222" points="54,414.3125,54,414.3826,57.6,414.1744,61.2,414.3769,64.8,414.4457,68.4,414.0747,72,414.3125,71.9745,414.3077,73.2603,421.7174,74.6744,429.1513,76.1777,436.602,77.3735,443.9948,79,451.4688,79,452.0224,88.9038,450.8385,98.8077,451.271,108.7115,451.9007,118.6154,451.383,128.5192,451.537,138.4231,451.4368,148.3269,451.6473,158.2308,451.7079,168.1346,452.0544,178.0385,452.1398,187.9423,452.148,197.8462,451.7234,207.75,451.9323,217.6538,452.171,227.5577,450.7476,237.4615,452.1473,247.3654,451.1722,257.2692,452.0026,267.1731,450.9737,277.0769,451.4003,286.9808,452.2104,296.8846,451.42,306.7885,451.5741,316.6923,451.8074,326.5962,451.885,336.5,451.4648,346.4038,451.756,356.3077,450.8963,366.2115,451.7531,376.1154,452.0169,386.0192,451.9133,395.9231,452.0818,405.8269,450.9857,415.7308,450.8166,425.6346,450.8473,435.5385,451.4099,445.4423,451.2722,455.3462,452.1502,465.25,451.2941,475.1538,451.1257,485.0577,451.697,494.9615,450.8019,504.8654,450.9496,514.7692,452.1177,524.6731,451.9044,534.5769,452.2032,544.4808,451.147,554.3846,451.7879,564.2885,452.0592,574.1923,450.9963,584.0962,451.3729,594,451.4688,594.126,451.4688,594.6518,461.0069,593.9958,470.5451,594.4626,480.0833,593.4462,489.6215,593.3227,499.1597,594.5036,508.6979,593.2831,518.2361,594.509,527.7743,594,537.3125,594,537.5191,584,537.0446,574,536.9587,564,537.7713,554,537.0132,544,537.9044,534,536.7598,524,537.9299,514,537.7968,504,537.5575,494,537.3597,484,538.0391,474,537.9261,464,537.4818,454,537.5807,444,537.1822,434,538.029,424,537.4674,414,537.4851,404,536.7041,394,536.9073,384,537.8432,374,537.7423,364,537.2696,354,536.9903,344,537.0936,334,536.6263,324,537.7272,314,538.0521,304,537.8389,294,538.0074,284,537.1758,274,537.3997,264,536.9249,254,537.5965,244,537.5593,234,537.8649,224,537.0828,214,537.1781,204,537.756,194,537.8798,184,536.8,174,537.1186,164,537.4618,154,536.7017,144,537.6659,134,537.5705,124,537.2117,114,537.4547,104,538.0412,94,536.9996,84,537.6275,74,537.5981,64,537.4283,54,537.3125,54.1409,537.3125,54.1135,527.0625,53.3758,516.8125,53.5992,506.5625,53.5385,496.3125,54.0638,486.0625,54.0881,475.8125,54.1617,465.5625,53.709,455.3125,53.9325,445.0625,53.8798,434.8125,54.5769,424.5625,54,414.3125" style="stroke: #FFFFFF; stroke-width: 1.5;"/><path d="M54,451.4688 L54,451.5622 L59,451.2846 L64,451.5547 L69,451.6464 L74,451.1517 L79,451.4688 " fill="#222222" style="stroke: #FFFFFF; stroke-width: 1.5;"/><text fill="#FFFFFF" font-family="sans-serif" font-size="20" font-weight="bold" lengthAdjust="spacingAndGlyphs" textLength="0" x="67" y="440.0742"/><!--cluster comportamientos--><polygon fill="#222222" points="697,136.3125,697,136.3826,700.6,136.1744,704.2,136.3769,707.8,136.4457,711.4,136.0747,715,136.3125,714.9745,136.3077,716.2603,143.7174,717.6744,151.1513,719.1777,158.602,720.3735,165.9948,722,173.4688,722,174.0224,731.9452,172.8385,741.8904,173.271,751.8356,173.9007,761.7808,173.383,771.726,173.537,781.6712,173.4368,791.6164,173.6473,801.5616,173.7079,811.5068,174.0544,821.4521,174.1398,831.3973,174.148,841.3425,173.7234,851.2877,173.9323,861.2329,174.171,871.1781,172.7476,881.1233,174.1473,891.0685,173.1722,901.0137,174.0026,910.9589,172.9737,920.9041,173.4003,930.8493,174.2104,940.7945,173.42,950.7397,173.5741,960.6849,173.8074,970.6301,173.885,980.5753,173.4648,990.5205,173.756,1000.4658,172.8963,1010.411,173.7531,1020.3562,174.0169,1030.3014,173.9133,1040.2466,174.0818,1050.1918,172.9857,1060.137,172.8166,1070.0822,172.8473,1080.0274,173.4099,1089.9726,173.2722,1099.9178,174.1502,1109.863,173.2941,1119.8082,173.1257,1129.7534,173.697,1139.6986,172.8019,1149.6438,172.9496,1159.589,174.1177,1169.5342,173.9044,1179.4795,174.2032,1189.4247,173.147,1199.3699,173.7879,1209.3151,174.0592,1219.2603,172.9963,1229.2055,173.3729,1239.1507,173.5947,1249.0959,174.1205,1259.0411,173.4646,1268.9863,173.9313,1278.9315,172.915,1288.8767,172.7915,1298.8219,173.9724,1308.7671,172.7518,1318.7123,173.9777,1328.6575,173.6754,1338.6027,173.2008,1348.5479,173.115,1358.4932,173.9275,1368.4384,173.1694,1378.3836,174.0606,1388.3288,172.916,1398.274,174.0862,1408.2192,173.9531,1418.1644,173.7137,1428.1096,173.516,1438.0548,174.1954,1448,173.4688,1448.6136,173.4688,1448.1693,183.4662,1448.2682,193.4637,1447.8697,203.4612,1448.7165,213.4587,1448.1549,223.4561,1448.1726,233.4536,1447.3916,243.4511,1447.5948,253.4486,1448.5307,263.4461,1448.4298,273.4435,1447.9571,283.441,1447.6778,293.4385,1447.7811,303.436,1447.3138,313.4335,1448.4147,323.4309,1448.7396,333.4284,1448.5264,343.4259,1448.6949,353.4234,1447.8633,363.4209,1448.0872,373.4183,1447.6124,383.4158,1448.284,393.4133,1448.2468,403.4108,1448.5524,413.4083,1447.7703,423.4057,1447.8656,433.4032,1448.4435,443.4007,1448.5673,453.3982,1447.4875,463.3957,1447.8061,473.3931,1448.1493,483.3906,1447.3892,493.3881,1448.3534,503.3856,1448.258,513.3831,1447.8992,523.3805,1448.1422,533.378,1448.7287,543.3755,1447.6871,553.373,1448.315,563.3705,1448.2856,573.3679,1448.1158,583.3654,1448.1409,593.3629,1448.1135,603.3604,1447.3758,613.3579,1447.5992,623.3553,1447.5385,633.3528,1448.0638,643.3503,1448.0881,653.3478,1448.1617,663.3453,1447.709,673.3427,1447.9325,683.3402,1447.8798,693.3377,1448.5769,703.3352,1448.4266,713.3327,1447.5145,723.3301,1447.9271,733.3276,1447.4228,743.3251,1448.2884,753.3226,1448.6085,763.3201,1448.5446,773.3175,1447.5644,783.315,1448,793.3125,1448,793.7765,1437.9867,792.5697,1427.9733,793.5127,1417.96,793.0132,1407.9467,793.4092,1397.9333,793.5528,1387.92,793.7846,1377.9067,792.5926,1367.8933,793.788,1357.88,793.4907,1347.8667,793.6678,1337.8533,794.0603,1327.84,793.318,1317.8267,793.4878,1307.8133,793.5259,1297.8,793.5097,1287.7867,793.3117,1277.7733,794.0232,1267.76,792.7028,1257.7467,793.8778,1247.7333,792.6885,1237.72,792.7722,1227.7067,793.3525,1217.6933,793.3408,1207.68,792.8197,1197.6667,793.7262,1187.6533,793.4214,1177.64,794.0392,1167.6267,793.9796,1157.6133,792.8642,1147.6,792.9146,1137.5867,793.1833,1127.5733,793.668,1117.56,793.7155,1107.5467,793.6137,1097.5333,792.9705,1087.52,793.9489,1077.5067,793.9463,1067.4933,793.2652,1057.48,793.0734,1047.4667,792.9111,1037.4533,793.0979,1027.44,793.4499,1017.4267,793.2441,1007.4133,792.8947,997.4,793.7999,987.3867,792.8536,977.3733,793.8149,967.36,793.7397,957.3467,793.6844,947.3333,794.005,937.32,793.0666,927.3067,793.0119,917.2933,793.8314,907.28,792.7156,897.2667,793.0785,887.2533,793.428,877.24,793.3812,867.2267,792.954,857.2133,793.2695,847.2,794.0571,837.1867,793.961,827.1733,792.7162,817.16,793.391,807.1467,792.7986,797.1333,793.2862,787.12,793.6055,777.1067,793.7324,767.0933,792.6478,757.08,793.713,747.0667,793.3209,737.0533,792.7572,727.04,792.8414,717.0267,793.6391,707.0133,793.5624,697,793.3125,696.9836,793.3125,696.3279,783.358,697.6581,773.4034,696.6882,763.4489,696.4719,753.4943,696.9327,743.5398,697.5897,733.5852,697.6154,723.6307,697.0351,713.6761,696.8488,703.7216,697.1698,693.767,697.1862,683.8125,696.4922,673.858,697.414,663.9034,697.5588,653.9489,696.7842,643.9943,696.5708,634.0398,697.6746,624.0852,697.021,614.1307,696.9998,604.1761,697.299,594.2216,696.3543,584.267,697.53,574.3125,696.9846,564.358,697.6688,554.4034,696.7841,544.4489,697.409,534.4943,696.556,524.5398,697.245,514.5852,697.3793,504.6307,696.6727,494.6761,697.363,484.7216,696.4286,474.767,696.5295,464.8125,697.6828,454.858,697.6844,444.9034,697.5685,434.9489,696.6396,424.9943,697.3842,415.0398,696.5279,405.0852,697.0582,395.1307,696.9987,385.1761,696.7376,375.2216,697.6159,365.267,697.4433,355.3125,696.6792,345.358,697.5266,335.4034,697.0919,325.4489,696.4164,315.4943,696.7667,305.5398,696.4747,295.5852,696.8609,285.6307,696.371,275.6761,696.3998,265.7216,697.0703,255.767,696.8796,245.8125,696.9414,235.858,696.8568,225.9034,697.1673,215.9489,696.4449,205.9943,697.1601,196.0398,696.2569,186.0852,697.296,176.1307,697.5928,166.1761,697.5221,156.2216,697.3613,146.267,697,136.3125" style="stroke: #FFFFFF; stroke-width: 1.5;"/><path d="M697,173.4688 L697,173.5622 L702,173.2846 L707,173.5547 L712,173.6464 L717,173.1517 L722,173.4688 " fill="#222222" style="stroke: #FFFFFF; stroke-width: 1.5;"/><text fill="#FFFFFF" font-family="sans-serif" font-size="20" font-weight="bold" lengthAdjust="spacingAndGlyphs" textLength="0" x="710" y="162.0742"/><!--cluster C--><polygon fill="#222222" points="938,251.3125,938,251.3826,941.6,251.1744,945.2,251.3769,948.8,251.4457,952.4,251.0747,956,251.3125,955.9745,251.3077,957.2603,258.7174,958.6744,266.1513,960.1777,273.602,961.3735,280.9948,963,288.4688,963,289.0224,973.0682,287.8385,983.1364,288.271,993.2045,288.9007,1003.2727,288.383,1013.3409,288.537,1023.4091,288.4368,1033.4773,288.6473,1043.5455,288.7079,1053.6136,289.0544,1063.6818,289.1398,1073.75,289.148,1083.8182,288.7234,1093.8864,288.9323,1103.9545,289.171,1114.0227,287.7476,1124.0909,289.1473,1134.1591,288.1722,1144.2273,289.0026,1154.2955,287.9737,1164.3636,288.4003,1174.4318,289.2104,1184.5,288.42,1194.5682,288.5741,1204.6364,288.8074,1214.7045,288.885,1224.7727,288.4648,1234.8409,288.756,1244.9091,287.8963,1254.9773,288.7531,1265.0455,289.0169,1275.1136,288.9133,1285.1818,289.0818,1295.25,287.9857,1305.3182,287.8166,1315.3864,287.8473,1325.4545,288.4099,1335.5227,288.2722,1345.5909,289.1502,1355.6591,288.2941,1365.7273,288.1257,1375.7955,288.697,1385.8636,287.8019,1395.9318,287.9496,1406,288.4688,1406.649,288.4688,1406.4357,298.0069,1406.7345,307.5451,1405.6782,317.0833,1406.3192,326.6215,1406.5904,336.1597,1405.5276,345.6979,1405.9041,355.2361,1406.126,364.7743,1406,374.3125,1406,374.9643,1396.0426,374.3083,1386.0851,374.7751,1376.1277,373.7587,1366.1702,373.6352,1356.2128,374.8161,1346.2553,373.5956,1336.2979,374.8215,1326.3404,374.5191,1316.383,374.0446,1306.4255,373.9587,1296.4681,374.7713,1286.5106,374.0132,1276.5532,374.9044,1266.5957,373.7598,1256.6383,374.9299,1246.6809,374.7968,1236.7234,374.5575,1226.766,374.3597,1216.8085,375.0391,1206.8511,374.9261,1196.8936,374.4818,1186.9362,374.5807,1176.9787,374.1822,1167.0213,375.029,1157.0638,374.4674,1147.1064,374.4851,1137.1489,373.7041,1127.1915,373.9073,1117.234,374.8432,1107.2766,374.7423,1097.3191,374.2696,1087.3617,373.9903,1077.4043,374.0936,1067.4468,373.6263,1057.4894,374.7272,1047.5319,375.0521,1037.5745,374.8389,1027.617,375.0074,1017.6596,374.1758,1007.7021,374.3997,997.7447,373.9249,987.7872,374.5965,977.8298,374.5593,967.8723,374.8649,957.9149,374.0828,947.9574,374.1781,938,374.3125,938.4435,374.3125,938.5673,364.0625,937.4875,353.8125,937.8061,343.5625,938.1493,333.3125,937.3892,323.0625,938.3534,312.8125,938.258,302.5625,937.8992,292.3125,938.1422,282.0625,938.7287,271.8125,937.6871,261.5625,938,251.3125" style="stroke: #FFFFFF; stroke-width: 1.5;"/><path d="M938,288.4688 L938,288.5622 L943,288.2846 L948,288.5547 L953,288.6464 L958,288.1517 L963,288.4688 " fill="#222222" style="stroke: #FFFFFF; stroke-width: 1.5;"/><text fill="#FFFFFF" font-family="sans-serif" font-size="20" font-weight="bold" lengthAdjust="spacingAndGlyphs" textLength="0" x="951" y="277.0742"/><!--cluster D--><polygon fill="#222222" points="863,577.3125,863,577.3826,866.6,577.1744,870.2,577.3769,873.8,577.4457,877.4,577.0747,881,577.3125,880.9745,577.3077,882.2603,584.7174,883.6744,592.1513,885.1777,599.602,886.3735,606.9948,888,614.4688,888,615.0224,898.0196,613.8385,908.0392,614.271,918.0588,614.9007,928.0784,614.383,938.098,614.537,948.1176,614.4368,958.1373,614.6473,968.1569,614.7079,978.1765,615.0544,988.1961,615.1398,998.2157,615.148,1008.2353,614.7234,1018.2549,614.9323,1028.2745,615.171,1038.2941,613.7476,1048.3137,615.1473,1058.3333,614.1722,1068.3529,615.0026,1078.3725,613.9737,1088.3922,614.4003,1098.4118,615.2104,1108.4314,614.42,1118.451,614.5741,1128.4706,614.8074,1138.4902,614.885,1148.5098,614.4648,1158.5294,614.756,1168.549,613.8963,1178.5686,614.7531,1188.5882,615.0169,1198.6078,614.9133,1208.6275,615.0818,1218.6471,613.9857,1228.6667,613.8166,1238.6863,613.8473,1248.7059,614.4099,1258.7255,614.2722,1268.7451,615.1502,1278.7647,614.2941,1288.7843,614.1257,1298.8039,614.697,1308.8235,613.8019,1318.8431,613.9496,1328.8627,615.1177,1338.8824,614.9044,1348.902,615.2032,1358.9216,614.147,1368.9412,614.7879,1378.9608,615.0592,1388.9804,613.9963,1399,614.4688,1398.9041,614.4688,1399.126,624.0069,1399.6518,633.5451,1398.9958,643.0833,1399.4626,652.6215,1398.4462,662.1597,1398.3227,671.6979,1399.5036,681.2361,1398.2831,690.7743,1399,700.3125,1399,700.8215,1389.0741,700.5191,1379.1481,700.0446,1369.2222,699.9587,1359.2963,700.7713,1349.3704,700.0132,1339.4444,700.9044,1329.5185,699.7598,1319.5926,700.9299,1309.6667,700.7968,1299.7407,700.5575,1289.8148,700.3597,1279.8889,701.0391,1269.963,700.9261,1260.037,700.4818,1250.1111,700.5807,1240.1852,700.1822,1230.2593,701.029,1220.3333,700.4674,1210.4074,700.4851,1200.4815,699.7041,1190.5556,699.9073,1180.6296,700.8432,1170.7037,700.7423,1160.7778,700.2696,1150.8519,699.9903,1140.9259,700.0936,1131,699.6263,1121.0741,700.7272,1111.1481,701.0521,1101.2222,700.8389,1091.2963,701.0074,1081.3704,700.1758,1071.4444,700.3997,1061.5185,699.9249,1051.5926,700.5965,1041.6667,700.5593,1031.7407,700.8649,1021.8148,700.0828,1011.8889,700.1781,1001.963,700.756,992.037,700.8798,982.1111,699.8,972.1852,700.1186,962.2593,700.4618,952.3333,699.7017,942.4074,700.6659,932.4815,700.5705,922.5556,700.2117,912.6296,700.4547,902.7037,701.0412,892.7778,699.9996,882.8519,700.6275,872.9259,700.5981,863,700.3125,863.1158,700.3125,863.1409,690.0625,863.1135,679.8125,862.3758,669.5625,862.5992,659.3125,862.5385,649.0625,863.0638,638.8125,863.0881,628.5625,863.1617,618.3125,862.709,608.0625,862.9325,597.8125,862.8798,587.5625,863,577.3125" style="stroke: #FFFFFF; stroke-width: 1.5;"/><path d="M863,614.4688 L863,614.5622 L868,614.2846 L873,614.5547 L878,614.6464 L883,614.1517 L888,614.4688 " fill="#222222" style="stroke: #FFFFFF; stroke-width: 1.5;"/><text fill="#FFFFFF" font-family="sans-serif" font-size="20" font-weight="bold" lengthAdjust="spacingAndGlyphs" textLength="0" x="876" y="603.0742"/><!--class DiagramaEstructural--><polygon fill="#222222" points="449.5,186.3125,449.5,186.5227,459.3571,185.8982,469.2143,186.5058,479.0714,186.7122,488.9286,185.5991,498.7857,186.2348,508.6429,185.886,518.5,185.929,528.3571,186.2443,538.2143,185.6211,548.0714,186.8661,557.9286,185.6822,567.7857,186.1147,577.6429,186.7444,587.5,186.2267,597.3571,186.3807,607.2143,186.2806,617.0714,186.491,626.9286,186.5516,636.7857,186.8982,646.6429,186.9836,656.5,186.3125,656.7264,186.3125,656.5849,194.5438,656.6545,202.775,656.7341,211.0063,656.2596,219.2375,656.5,227.4688,656.5,228.1473,646.6429,227.1722,636.7857,228.0026,626.9286,226.9737,617.0714,227.4003,607.2143,228.2104,597.3571,227.42,587.5,227.5741,577.6429,227.8074,567.7857,227.885,557.9286,227.4648,548.0714,227.756,538.2143,226.8963,528.3571,227.7531,518.5,228.0169,508.6429,227.9133,498.7857,228.0818,488.9286,226.9857,479.0714,226.8166,469.2143,226.8473,459.3571,227.4099,449.5,227.4688,449.4345,227.4688,449.7271,219.2375,449.4418,211.0063,449.3856,202.775,449.5761,194.5438,449.5,186.3125" style="stroke: #FFFFFF; stroke-width: 1.5;"/><text fill="#FFFFFF" font-family="sans-serif" font-size="20" font-style="italic" font-weight="bold" lengthAdjust="spacingAndGlyphs" textLength="195" x="455.5" y="215.0742">DiagramaEstructural</text><!--class DiagramaPaquetes--><polygon fill="#222222" points="408.5,635.3125,408.5,635.5227,418.4474,634.8982,428.3947,635.5058,438.3421,635.7122,448.2895,634.5991,458.2368,635.2348,468.1842,634.886,478.1316,634.929,488.0789,635.2443,498.0263,634.6211,507.9737,635.8661,517.9211,634.6822,527.8684,635.1147,537.8158,635.7444,547.7632,635.2267,557.7105,635.3807,567.6579,635.2806,577.6053,635.491,587.5526,635.5516,597.5,635.3125,597.6952,635.3125,597.7237,643.5438,597.7264,651.775,597.5849,660.0063,597.6545,668.2375,597.5,676.4688,597.5,677.171,587.5526,675.7476,577.6053,677.1473,567.6579,676.1722,557.7105,677.0026,547.7632,675.9737,537.8158,676.4003,527.8684,677.2104,517.9211,676.42,507.9737,676.5741,498.0263,676.8074,488.0789,676.885,478.1316,676.4648,468.1842,676.756,458.2368,675.8963,448.2895,676.7531,438.3421,677.0169,428.3947,676.9133,418.4474,677.0818,408.5,676.4688,408.339,676.4688,408.2826,668.2375,408.2929,660.0063,408.4804,651.775,408.4345,643.5438,408.5,635.3125" style="stroke: #FFFFFF; stroke-width: 1.5;"/><text fill="#FFFFFF" font-family="sans-serif" font-size="20" font-weight="bold" lengthAdjust="spacingAndGlyphs" textLength="177" x="414.5" y="664.0742">DiagramaPaquetes</text><!--class DiagramaEstructuraCompuesta--><polygon fill="#222222" points="349,736.3125,349,736.5227,358.9355,735.8982,368.871,736.5058,378.8065,736.7122,388.7419,735.5991,398.6774,736.2348,408.6129,735.886,418.5484,735.929,428.4839,736.2443,438.4194,735.6211,448.3548,736.8661,458.2903,735.6822,468.2258,736.1147,478.1613,736.7444,488.0968,736.2267,498.0323,736.3807,507.9677,736.2806,517.9032,736.491,527.8387,736.5516,537.7742,736.8982,547.7097,736.9836,557.6452,736.9918,567.5806,736.5671,577.5161,736.7761,587.4516,737.0147,597.3871,735.5913,607.3226,736.991,617.2581,736.016,627.1935,736.8463,637.129,735.8175,647.0645,736.244,657,736.3125,657.2472,736.3125,656.9838,744.5438,657.0351,752.775,657.1129,761.0063,657.1387,769.2375,657,777.4688,657,777.4648,647.0645,777.756,637.129,776.8963,627.1935,777.7531,617.2581,778.0169,607.3226,777.9133,597.3871,778.0818,587.4516,776.9857,577.5161,776.8166,567.5806,776.8473,557.6452,777.4099,547.7097,777.2722,537.7742,778.1502,527.8387,777.2941,517.9032,777.1257,507.9677,777.697,498.0323,776.8019,488.0968,776.9496,478.1613,778.1177,468.2258,777.9044,458.2903,778.2032,448.3548,777.147,438.4194,777.7879,428.4839,778.0592,418.5484,776.9963,408.6129,777.3729,398.6774,777.5947,388.7419,778.1205,378.8065,777.4646,368.871,777.9313,358.9355,776.915,349,777.4688,348.7742,777.4688,349.1679,769.2375,348.761,761.0063,349.1697,752.775,349.0689,744.5438,349,736.3125" style="stroke: #FFFFFF; stroke-width: 1.5;"/><text fill="#FFFFFF" font-family="sans-serif" font-size="20" font-weight="bold" lengthAdjust="spacingAndGlyphs" textLength="296" x="355" y="765.0742">DiagramaEstructuraCompuesta</text><!--class DiagramaClases--><polygon fill="#222222" points="97,309.3125,97,309.5227,107.25,308.8982,117.5,309.5058,127.75,309.7122,138,308.5991,148.25,309.2348,158.5,308.886,168.75,308.929,179,309.2443,189.25,308.6211,199.5,309.8661,209.75,308.6822,220,309.1147,230.25,309.7444,240.5,309.2267,250.75,309.3807,261,309.3125,260.9894,309.3125,261.0595,317.5438,261.0797,325.775,261.1952,334.0063,261.2237,342.2375,261,350.4688,261,351.148,250.75,350.7234,240.5,350.9323,230.25,351.171,220,349.7476,209.75,351.1473,199.5,350.1722,189.25,351.0026,179,349.9737,168.75,350.4003,158.5,351.2104,148.25,350.42,138,350.5741,127.75,350.8074,117.5,350.885,107.25,350.4648,97,350.4688,97.0957,350.4688,96.8092,342.2375,97.0948,334.0063,97.1827,325.775,97.1482,317.5438,97,309.3125" style="stroke: #FFFFFF; stroke-width: 1.5;"/><text fill="#FFFFFF" font-family="sans-serif" font-size="20" font-weight="bold" lengthAdjust="spacingAndGlyphs" textLength="152" x="103" y="338.0742">DiagramaClases</text><!--class DiagramaObjetos--><polygon fill="#222222" points="296.5,309.3125,296.5,309.5227,306.2222,308.8982,315.9444,309.5058,325.6667,309.7122,335.3889,308.5991,345.1111,309.2348,354.8333,308.886,364.5556,308.929,374.2778,309.2443,384,308.6211,393.7222,309.8661,403.4444,308.6822,413.1667,309.1147,422.8889,309.7444,432.6111,309.2267,442.3333,309.3807,452.0556,309.2806,461.7778,309.491,471.5,309.3125,471.5797,309.3125,471.6952,317.5438,471.7237,325.775,471.7264,334.0063,471.5849,342.2375,471.5,350.4688,471.5,350.9323,461.7778,351.171,452.0556,349.7476,442.3333,351.1473,432.6111,350.1722,422.8889,351.0026,413.1667,349.9737,403.4444,350.4003,393.7222,351.2104,384,350.42,374.2778,350.5741,364.5556,350.8074,354.8333,350.885,345.1111,350.4648,335.3889,350.756,325.6667,349.8963,315.9444,350.7531,306.2222,351.0169,296.5,350.4688,296.6482,350.4688,296.7043,342.2375,296.339,334.0063,296.2826,325.775,296.2929,317.5438,296.5,309.3125" style="stroke: #FFFFFF; stroke-width: 1.5;"/><text fill="#FFFFFF" font-family="sans-serif" font-size="20" font-weight="bold" lengthAdjust="spacingAndGlyphs" textLength="163" x="302.5" y="338.0742">DiagramaObjetos</text><!--class DiagramaComponentes--><polygon fill="#222222" points="97,472.3125,97,472.5227,107.087,471.8982,117.1739,472.5058,127.2609,472.7122,137.3478,471.5991,147.4348,472.2348,157.5217,471.886,167.6087,471.929,177.6957,472.2443,187.7826,471.6211,197.8696,472.8661,207.9565,471.6822,218.0435,472.1147,228.1304,472.7444,238.2174,472.2267,248.3043,472.3807,258.3913,472.2806,268.4783,472.491,278.5652,472.5516,288.6522,472.8982,298.7391,472.9836,308.8261,472.9918,318.913,472.5671,329,472.3125,329.1545,472.3125,329.2341,480.5438,328.7596,488.775,329.2262,497.0063,328.9012,505.2375,329,513.4688,329,514.0026,318.913,512.9737,308.8261,513.4003,298.7391,514.2104,288.6522,513.42,278.5652,513.5741,268.4783,513.8074,258.3913,513.885,248.3043,513.4648,238.2174,513.756,228.1304,512.8963,218.0435,513.7531,207.9565,514.0169,197.8696,513.9133,187.7826,514.0818,177.6957,512.9857,167.6087,512.8166,157.5217,512.8473,147.4348,513.4099,137.3478,513.2722,127.2609,514.1502,117.1739,513.2941,107.087,513.1257,97,513.4688,97.0761,513.4688,96.7777,505.2375,96.827,497.0063,97.2163,488.775,97.1452,480.5438,97,472.3125" style="stroke: #FFFFFF; stroke-width: 1.5;"/><text fill="#FFFFFF" font-family="sans-serif" font-size="20" font-weight="bold" lengthAdjust="spacingAndGlyphs" textLength="220" x="103" y="501.0742">DiagramaComponentes</text><!--class DiagramaDespliegue--><polygon fill="#222222" points="364.5,472.3125,364.5,472.5227,374.2619,471.8982,384.0238,472.5058,393.7857,472.7122,403.5476,471.5991,413.3095,472.2348,423.0714,471.886,432.8333,471.929,442.5952,472.2443,452.3571,471.6211,462.119,472.8661,471.881,471.6822,481.6429,472.1147,491.4048,472.7444,501.1667,472.2267,510.9286,472.3807,520.6905,472.2806,530.4524,472.491,540.2143,472.5516,549.9762,472.8982,559.7381,472.9836,569.5,472.3125,569.7264,472.3125,569.5849,480.5438,569.6545,488.775,569.7341,497.0063,569.2596,505.2375,569.5,513.4688,569.5,514.1473,559.7381,513.1722,549.9762,514.0026,540.2143,512.9737,530.4524,513.4003,520.6905,514.2104,510.9286,513.42,501.1667,513.5741,491.4048,513.8074,481.6429,513.885,471.881,513.4648,462.119,513.756,452.3571,512.8963,442.5952,513.7531,432.8333,514.0169,423.0714,513.9133,413.3095,514.0818,403.5476,512.9857,393.7857,512.8166,384.0238,512.8473,374.2619,513.4099,364.5,513.4688,364.4345,513.4688,364.7271,505.2375,364.4418,497.0063,364.3856,488.775,364.5761,480.5438,364.5,472.3125" style="stroke: #FFFFFF; stroke-width: 1.5;"/><text fill="#FFFFFF" font-family="sans-serif" font-size="20" font-weight="bold" lengthAdjust="spacingAndGlyphs" textLength="193" x="370.5" y="501.0742">DiagramaDespliegue</text><!--class DiagramaComportamiento--><polygon fill="#222222" points="944.5,186.3125,944.5,186.5227,954.5385,185.8982,964.5769,186.5058,974.6154,186.7122,984.6538,185.5991,994.6923,186.2348,1004.7308,185.886,1014.7692,185.929,1024.8077,186.2443,1034.8462,185.6211,1044.8846,186.8661,1054.9231,185.6822,1064.9615,186.1147,1075,186.7444,1085.0385,186.2267,1095.0769,186.3807,1105.1154,186.2806,1115.1538,186.491,1125.1923,186.5516,1135.2308,186.8982,1145.2692,186.9836,1155.3077,186.9918,1165.3462,186.5671,1175.3846,186.7761,1185.4231,187.0147,1195.4615,185.5913,1205.5,186.3125,1205.7262,186.3125,1205.4012,194.5438,1205.6779,202.775,1205.335,211.0063,1205.4772,219.2375,1205.5,227.4688,1205.5,228.2104,1195.4615,227.42,1185.4231,227.5741,1175.3846,227.8074,1165.3462,227.885,1155.3077,227.4648,1145.2692,227.756,1135.2308,226.8963,1125.1923,227.7531,1115.1538,228.0169,1105.1154,227.9133,1095.0769,228.0818,1085.0385,226.9857,1075,226.8166,1064.9615,226.8473,1054.9231,227.4099,1044.8846,227.2722,1034.8462,228.1502,1024.8077,227.2941,1014.7692,227.1257,1004.7308,227.697,994.6923,226.8019,984.6538,226.9496,974.6154,228.1177,964.5769,227.9044,954.5385,228.2032,944.5,227.4688,944.3927,227.4688,944.6064,219.2375,944.6968,211.0063,944.3425,202.775,944.468,194.5438,944.5,186.3125" style="stroke: #FFFFFF; stroke-width: 1.5;"/><text fill="#FFFFFF" font-family="sans-serif" font-size="20" font-style="italic" font-weight="bold" lengthAdjust="spacingAndGlyphs" textLength="249" x="950.5" y="215.0742">DiagramaComportamiento</text><!--class DiagramaCasosUso--><polygon fill="#222222" points="713.5,309.3125,713.5,309.5227,723.35,308.8982,733.2,309.5058,743.05,309.7122,752.9,308.5991,762.75,309.2348,772.6,308.886,782.45,308.929,792.3,309.2443,802.15,308.6211,812,309.8661,821.85,308.6822,831.7,309.1147,841.55,309.7444,851.4,309.2267,861.25,309.3807,871.1,309.2806,880.95,309.491,890.8,309.5516,900.65,309.8982,910.5,309.3125,910.7237,309.3125,910.7264,317.5438,910.5849,325.775,910.6545,334.0063,910.7341,342.2375,910.5,350.4688,910.5,349.7476,900.65,351.1473,890.8,350.1722,880.95,351.0026,871.1,349.9737,861.25,350.4003,851.4,351.2104,841.55,350.42,831.7,350.5741,821.85,350.8074,812,350.885,802.15,350.4648,792.3,350.756,782.45,349.8963,772.6,350.7531,762.75,351.0169,752.9,350.9133,743.05,351.0818,733.2,349.9857,723.35,349.8166,713.5,350.4688,713.2929,350.4688,713.4804,342.2375,713.4345,334.0063,713.7271,325.775,713.4418,317.5438,713.5,309.3125" style="stroke: #FFFFFF; stroke-width: 1.5;"/><text fill="#FFFFFF" font-family="sans-serif" font-size="20" font-weight="bold" lengthAdjust="spacingAndGlyphs" textLength="185" x="719.5" y="338.0742">DiagramaCasosUso</text><!--class DiagramaInteraccion--><polygon fill="#222222" points="1028,472.3125,1028,472.5227,1037.8095,471.8982,1047.619,472.5058,1057.4286,472.7122,1067.2381,471.5991,1077.0476,472.2348,1086.8571,471.886,1096.6667,471.929,1106.4762,472.2443,1116.2857,471.6211,1126.0952,472.8661,1135.9048,471.6822,1145.7143,472.1147,1155.5238,472.7444,1165.3333,472.2267,1175.1429,472.3807,1184.9524,472.2806,1194.7619,472.491,1204.5714,472.5516,1214.381,472.8982,1224.1905,472.9836,1234,472.3125,1234.2264,472.3125,1234.0849,480.5438,1234.1545,488.775,1234.2341,497.0063,1233.7596,505.2375,1234,513.4688,1234,514.1473,1224.1905,513.1722,1214.381,514.0026,1204.5714,512.9737,1194.7619,513.4003,1184.9524,514.2104,1175.1429,513.42,1165.3333,513.5741,1155.5238,513.8074,1145.7143,513.885,1135.9048,513.4648,1126.0952,513.756,1116.2857,512.8963,1106.4762,513.7531,1096.6667,514.0169,1086.8571,513.9133,1077.0476,514.0818,1067.2381,512.9857,1057.4286,512.8166,1047.619,512.8473,1037.8095,513.4099,1028,513.4688,1027.9345,513.4688,1028.2271,505.2375,1027.9418,497.0063,1027.8856,488.775,1028.0761,480.5438,1028,472.3125" style="stroke: #FFFFFF; stroke-width: 1.5;"/><text fill="#FFFFFF" font-family="sans-serif" font-size="20" font-weight="bold" lengthAdjust="spacingAndGlyphs" textLength="194" x="1034" y="501.0742">DiagramaInteraccion</text><!--class DiagramaInteraccionGeneral--><polygon fill="#222222" points="719,736.3125,719,736.5227,729,735.8982,739,736.5058,749,736.7122,759,735.5991,769,736.2348,779,735.886,789,735.929,799,736.2443,809,735.6211,819,736.8661,829,735.6822,839,736.1147,849,736.7444,859,736.2267,869,736.3807,879,736.2806,889,736.491,899,736.5516,909,736.8982,919,736.9836,929,736.9918,939,736.5671,949,736.7761,959,737.0147,969,735.5913,979,736.991,989,736.016,999,736.3125,999.1779,736.3125,998.835,744.5438,998.9772,752.775,999.2472,761.0063,998.9838,769.2375,999,777.4688,999,777.5741,989,777.8074,979,777.885,969,777.4648,959,777.756,949,776.8963,939,777.7531,929,778.0169,919,777.9133,909,778.0818,899,776.9857,889,776.8166,879,776.8473,869,777.4099,859,777.2722,849,778.1502,839,777.2941,829,777.1257,819,777.697,809,776.8019,799,776.9496,789,778.1177,779,777.9044,769,778.2032,759,777.147,749,777.7879,739,778.0592,729,776.9963,719,777.4688,718.968,777.4688,719.042,769.2375,719.2173,761.0063,718.9986,752.775,719.1542,744.5438,719,736.3125" style="stroke: #FFFFFF; stroke-width: 1.5;"/><text fill="#FFFFFF" font-family="sans-serif" font-size="20" font-weight="bold" lengthAdjust="spacingAndGlyphs" textLength="268" x="725" y="765.0742">DiagramaInteraccionGeneral</text><!--class DiagramaTiempo--><polygon fill="#222222" points="1147.5,736.3125,1147.5,736.5227,1157.5588,735.8982,1167.6176,736.5058,1177.6765,736.7122,1187.7353,735.5991,1197.7941,736.2348,1207.8529,735.886,1217.9118,735.929,1227.9706,736.2443,1238.0294,735.6211,1248.0882,736.8661,1258.1471,735.6822,1268.2059,736.1147,1278.2647,736.7444,1288.3235,736.2267,1298.3824,736.3807,1308.4412,736.2806,1318.5,736.3125,1318.5595,736.3125,1318.5797,744.5438,1318.6952,752.775,1318.7237,761.0063,1318.7264,769.2375,1318.5,777.4688,1318.5,777.7234,1308.4412,777.9323,1298.3824,778.171,1288.3235,776.7476,1278.2647,778.1473,1268.2059,777.1722,1258.1471,778.0026,1248.0882,776.9737,1238.0294,777.4003,1227.9706,778.2104,1217.9118,777.42,1207.8529,777.5741,1197.7941,777.8074,1187.7353,777.885,1177.6765,777.4648,1167.6176,777.756,1157.5588,776.8963,1147.5,777.4688,1147.5948,777.4688,1147.6827,769.2375,1147.6482,761.0063,1147.7043,752.775,1147.339,744.5438,1147.5,736.3125" style="stroke: #FFFFFF; stroke-width: 1.5;"/><text fill="#FFFFFF" font-family="sans-serif" font-size="20" font-weight="bold" lengthAdjust="spacingAndGlyphs" textLength="159" x="1153.5" y="765.0742">DiagramaTiempo</text><!--class DiagramaEstados--><polygon fill="#222222" points="1204,309.3125,1204,309.5227,1213.8889,308.8982,1223.7778,309.5058,1233.6667,309.7122,1243.5556,308.5991,1253.4444,309.2348,1263.3333,308.886,1273.2222,308.929,1283.1111,309.2443,1293,308.6211,1302.8889,309.8661,1312.7778,308.6822,1322.6667,309.1147,1332.5556,309.7444,1342.4444,309.2267,1352.3333,309.3807,1362.2222,309.2806,1372.1111,309.491,1382,309.3125,1382.0797,309.3125,1382.1952,317.5438,1382.2237,325.775,1382.2264,334.0063,1382.0849,342.2375,1382,350.4688,1382,350.9323,1372.1111,351.171,1362.2222,349.7476,1352.3333,351.1473,1342.4444,350.1722,1332.5556,351.0026,1322.6667,349.9737,1312.7778,350.4003,1302.8889,351.2104,1293,350.42,1283.1111,350.5741,1273.2222,350.8074,1263.3333,350.885,1253.4444,350.4648,1243.5556,350.756,1233.6667,349.8963,1223.7778,350.7531,1213.8889,351.0169,1204,350.4688,1204.1482,350.4688,1204.2043,342.2375,1203.839,334.0063,1203.7826,325.775,1203.7929,317.5438,1204,309.3125" style="stroke: #FFFFFF; stroke-width: 1.5;"/><text fill="#FFFFFF" font-family="sans-serif" font-size="20" font-weight="bold" lengthAdjust="spacingAndGlyphs" textLength="166" x="1210" y="338.0742">DiagramaEstados</text><!--class DiagramaActividad--><polygon fill="#222222" points="981,309.3125,981,309.5227,990.8947,308.8982,1000.7895,309.5058,1010.6842,309.7122,1020.5789,308.5991,1030.4737,309.2348,1040.3684,308.886,1050.2632,308.929,1060.1579,309.2443,1070.0526,308.6211,1079.9474,309.8661,1089.8421,308.6822,1099.7368,309.1147,1109.6316,309.7444,1119.5263,309.2267,1129.4211,309.3807,1139.3158,309.2806,1149.2105,309.491,1159.1053,309.5516,1169,309.3125,1169.1952,309.3125,1169.2237,317.5438,1169.2264,325.775,1169.0849,334.0063,1169.1545,342.2375,1169,350.4688,1169,351.171,1159.1053,349.7476,1149.2105,351.1473,1139.3158,350.1722,1129.4211,351.0026,1119.5263,349.9737,1109.6316,350.4003,1099.7368,351.2104,1089.8421,350.42,1079.9474,350.5741,1070.0526,350.8074,1060.1579,350.885,1050.2632,350.4648,1040.3684,350.756,1030.4737,349.8963,1020.5789,350.7531,1010.6842,351.0169,1000.7895,350.9133,990.8947,351.0818,981,350.4688,980.839,350.4688,980.7826,342.2375,980.7929,334.0063,980.9804,325.775,980.9345,317.5438,981,309.3125" style="stroke: #FFFFFF; stroke-width: 1.5;"/><text fill="#FFFFFF" font-family="sans-serif" font-size="20" font-weight="bold" lengthAdjust="spacingAndGlyphs" textLength="176" x="987" y="338.0742">DiagramaActividad</text><!--class DiagramaComunicacion--><polygon fill="#222222" points="1139.5,635.3125,1139.5,635.5227,1149.2917,634.8982,1159.0833,635.5058,1168.875,635.7122,1178.6667,634.5991,1188.4583,635.2348,1198.25,634.886,1208.0417,634.929,1217.8333,635.2443,1227.625,634.6211,1237.4167,635.8661,1247.2083,634.6822,1257,635.1147,1266.7917,635.7444,1276.5833,635.2267,1286.375,635.3807,1296.1667,635.2806,1305.9583,635.491,1315.75,635.5516,1325.5417,635.8982,1335.3333,635.9836,1345.125,635.9918,1354.9167,635.5671,1364.7083,635.7761,1374.5,635.3125,1374.7341,635.3125,1374.2596,643.5438,1374.7262,651.775,1374.4012,660.0063,1374.6779,668.2375,1374.5,676.4688,1374.5,675.9737,1364.7083,676.4003,1354.9167,677.2104,1345.125,676.42,1335.3333,676.5741,1325.5417,676.8074,1315.75,676.885,1305.9583,676.4648,1296.1667,676.756,1286.375,675.8963,1276.5833,676.7531,1266.7917,677.0169,1257,676.9133,1247.2083,677.0818,1237.4167,675.9857,1227.625,675.8166,1217.8333,675.8473,1208.0417,676.4099,1198.25,676.2722,1188.4583,677.1502,1178.6667,676.2941,1168.875,676.1257,1159.0833,676.697,1149.2917,675.8019,1139.5,676.4688,1139.327,676.4688,1139.7163,668.2375,1139.6452,660.0063,1139.7448,651.775,1139.3927,643.5438,1139.5,635.3125" style="stroke: #FFFFFF; stroke-width: 1.5;"/><text fill="#FFFFFF" font-family="sans-serif" font-size="20" font-weight="bold" lengthAdjust="spacingAndGlyphs" textLength="223" x="1145.5" y="664.0742">DiagramaComunicacion</text><!--class DiagramaSecuencia--><polygon fill="#222222" points="906,635.3125,906,635.5227,915.9,634.8982,925.8,635.5058,935.7,635.7122,945.6,634.5991,955.5,635.2348,965.4,634.886,975.3,634.929,985.2,635.2443,995.1,634.6211,1005,635.8661,1014.9,634.6822,1024.8,635.1147,1034.7,635.7444,1044.6,635.2267,1054.5,635.3807,1064.4,635.2806,1074.3,635.491,1084.2,635.5516,1094.1,635.8982,1104,635.3125,1104.2237,635.3125,1104.2264,643.5438,1104.0849,651.775,1104.1545,660.0063,1104.2341,668.2375,1104,676.4688,1104,675.7476,1094.1,677.1473,1084.2,676.1722,1074.3,677.0026,1064.4,675.9737,1054.5,676.4003,1044.6,677.2104,1034.7,676.42,1024.8,676.5741,1014.9,676.8074,1005,676.885,995.1,676.4648,985.2,676.756,975.3,675.8963,965.4,676.7531,955.5,677.0169,945.6,676.9133,935.7,677.0818,925.8,675.9857,915.9,675.8166,906,676.4688,905.7929,676.4688,905.9804,668.2375,905.9345,660.0063,906.2271,651.775,905.9418,643.5438,906,635.3125" style="stroke: #FFFFFF; stroke-width: 1.5;"/><text fill="#FFFFFF" font-family="sans-serif" font-size="20" font-weight="bold" lengthAdjust="spacingAndGlyphs" textLength="186" x="912" y="664.0742">DiagramaSecuencia</text><!--class Diagrama--><polygon fill="#222222" points="762.5,79.3125,762.5,79.5227,772.8,78.8982,783.1,79.5058,793.4,79.7122,803.7,78.5991,814,79.2348,824.3,78.886,834.6,78.929,844.9,79.2443,855.2,78.6211,865.5,79.3125,865.6845,79.3125,865.2899,87.5438,865.4341,95.775,865.644,104.0063,865.4714,112.2375,865.5,120.4688,865.5,120.537,855.2,120.4368,844.9,120.6473,834.6,120.7079,824.3,121.0544,814,121.1398,803.7,121.148,793.4,120.7234,783.1,120.9323,772.8,121.171,762.5,120.4688,762.2596,120.4688,762.7262,112.2375,762.4012,104.0063,762.6779,95.775,762.335,87.5438,762.5,79.3125" style="stroke: #FFFFFF; stroke-width: 1.5;"/><text fill="#FFFFFF" font-family="sans-serif" font-size="20" font-style="italic" font-weight="bold" lengthAdjust="spacingAndGlyphs" textLength="91" x="768.5" y="108.0742">Diagrama</text><!--link Diagrama to DiagramaEstructural--><path d="M742.816,114.3885 L742.8394,114.4789 L740.4521,114.8108 L738.2021,115.6728 L735.9074,116.3622 L733.4656,116.4839 L731.2274,117.3914 L731.2179,117.3582 L728.8498,117.8729 L726.5294,118.5551 L724.2423,119.3537 L721.8406,119.7511 L719.5994,120.7104 L719.6738,120.9449 L717.2199,121.1712 L714.9833,122.0822 L712.7732,123.0768 L710.4089,123.5852 L708.1256,124.3494 L708.1358,124.378 L705.8957,125.1286 L703.702,126.0094 L701.4859,126.8274 L699.3125,127.7651 L697,128.3125 L697.1115,128.5891 L694.0163,129.8405 L690.8492,130.9135 L687.7873,132.2476 L684.7304,133.594 L681.5172,134.5525 L681.3867,134.2597 L678.5316,136.2133 L675.2468,137.2029 L672.2886,138.9254 L668.9941,139.8932 L665.9753,141.4795 L665.9621,141.4521 L663.0415,143.2592 L659.8122,144.4255 L656.765,145.9699 L653.7332,147.5461 L650.591,148.8933 L650.6754,149.0579 L647.5881,150.4318 L644.6452,152.087 L641.4688,153.2871 L638.6406,155.166 L635.5809,156.5936 L635.6966,156.808 L632.7909,158.3248 L629.9427,159.948 L626.8274,161.0767 L623.9078,162.5679 L621.1617,164.3802 L621.0261,164.1397 L618.4266,165.892 L615.6743,167.3732 L613.1436,169.2477 L610.2344,170.4508 L607.5503,172.0529 L607.4733,171.9213 L605.084,173.6122 L602.3658,174.7405 L599.8815,176.2688 L597.6261,178.1887 L594.9631,179.4114 L595.0631,179.5772 L592.8625,181.0598 L590.3508,182.0266 L588.2287,183.6393 L586.0218,185.1114 L583.617,186.2555 " fill="none" style="stroke: #FFFFFF; stroke-width: 1.0;"/><polygon fill="none" points="741.39,107.5335,741.3977,107.6031,745.5867,107.8644,749.8211,108.5339,754.0407,109.0705,758.2117,109.17,762.45,109.8745,762.4362,109.8526,758.7896,112.0149,755.2126,114.2876,751.6841,116.6371,747.9887,118.722,744.527,121.1775,744.7069,121.2189,743.6948,118.4016,743.208,115.7051,742.7851,113.0234,741.9895,110.2559,741.39,107.5335" style="stroke: #FFFFFF; stroke-width: 1.0;"/><!--link Diagrama to DiagramaComportamiento--><path d="M881.323,127.8965 L881.4276,128.1565 L890.1804,131.0302 L899.5463,135.428 L908.7126,139.3295 L917.2222,141.5988 L926.6021,146.0313 L935.4921,149.2461 L944.5771,152.9454 L953.7976,156.9817 L962.551,159.857 L972.2341,165.0432 L980.7085,167.2249 L989.9873,171.4061 L999.3643,175.8313 L1008.1702,178.837 L1017.3104,182.6737 L1026.34,186.2355 " fill="none" style="stroke: #FFFFFF; stroke-width: 1.0;"/><polygon fill="none" points="878.423,134.2745,878.4692,134.3272,875.1434,131.379,872.0882,128.7398,868.945,125.9999,865.512,122.9292,862.48,120.3165,862.4788,120.2906,866.7071,120.3685,870.9413,120.5768,875.1798,120.8758,879.4039,120.8623,883.648,121.2865,883.8192,121.3554,882.4081,123.8057,881.4968,126.4571,880.6466,129.133,879.4415,131.6662,878.423,134.2745" style="stroke: #FFFFFF; stroke-width: 1.0;"/><!--link DiagramaEstructural to DiagramaClases--><path d="M429.068,212.5685 L429.0746,212.6617 L424.5725,212.7002 L420.1088,213.2849 L415.6326,213.6918 L411.1153,213.5137 L406.6549,214.1453 L406.652,214.1109 L402.1691,214.3335 L397.7009,214.7295 L393.2429,215.2461 L388.7498,215.3471 L384.3058,216.0303 L384.3307,216.2751 L379.9184,216.1956 L375.5788,216.8308 L371.2482,217.5532 L366.8659,217.7682 L362.5107,218.2501 L362.5145,218.2802 L358.3588,218.7524 L354.2202,219.3615 L350.0733,219.9046 L345.9422,220.5737 L341.7599,220.8318 L341.8054,221.1265 L337.9627,221.7241 L334.0905,222.1317 L330.2614,222.8175 L326.4343,223.5164 L322.5433,223.802 L322.4814,223.4875 L319.1631,224.775 L315.6409,225.0269 L312.2738,226.0661 L308.747,226.2946 L305.351,227.1876 L305.3434,227.1581 L302.4987,228.2721 L299.4745,228.6978 L296.5562,229.5296 L293.6468,230.3955 L290.6733,231.0155 L290.7372,231.1891 L288.338,231.8733 L286.048,232.8541 L283.5814,233.355 L281.3783,234.5717 L279,235.3125 L279.1128,235.5285 L276.4117,236.8872 L273.7666,238.3531 L270.8614,239.3208 L268.1468,240.6537 L265.6012,242.3101 L265.4505,242.0788 L263.0169,243.9628 L260.4135,245.5862 L258.0565,247.5877 L255.2787,248.9436 L252.751,250.6832 L252.6581,250.5624 L250.375,252.6394 L247.6944,254.1999 L245.2965,256.1277 L243.1751,258.415 L240.5613,260.0622 L240.689,260.2077 L238.4931,262.3107 L235.9,263.9608 L233.8044,266.178 L231.6004,268.2717 L229.1439,270.0775 L228.9972,269.9273 L227.0075,272.1034 L224.9697,274.2304 L223.0263,276.4541 L220.716,278.3019 L218.6107,280.3596 L218.7607,280.5002 L216.5236,282.2272 L214.5761,284.2256 L213.0517,286.6203 L210.7484,288.2853 L209.0735,290.539 L209.2443,290.6873 L207.457,292.5407 L205.6119,294.3438 L203.8973,296.2602 L202.4841,298.4384 L200.6443,300.2462 L200.5411,300.1622 L199.4066,302.1852 L197.57,303.6373 L196.5316,305.7385 L195.0439,307.4742 L193.435,309.1115 " fill="none" style="stroke: #FFFFFF; stroke-width: 1.0;"/><polygon fill="none" points="429.025,205.5595,429.0442,205.6269,433.063,206.5873,437.1942,207.9427,441.2889,209.1694,445.2631,209.9732,449.404,211.3625,449.394,211.3386,445.4392,212.8657,441.5347,214.5134,437.6652,216.2447,433.6751,217.6875,429.854,219.5345,430.0382,219.5454,429.4785,216.7271,429.4566,213.9406,429.5003,211.158,429.1623,208.3528,429.025,205.5595" style="stroke: #FFFFFF; stroke-width: 1.0;"/><!--link DiagramaEstructural to DiagramaObjetos--><path d="M472.469,238.4515 L472.5244,238.5267 L469.7806,240.2025 L467.3616,242.3192 L464.8368,244.2923 L461.9643,245.7931 L459.5731,247.9477 L459.5513,247.9209 L457.0995,249.7129 L454.7576,251.6401 L452.4919,253.6612 L449.9632,255.3586 L447.8029,257.5094 L447.9664,257.6933 L445.4803,259.1997 L443.4715,261.2429 L441.5209,263.3517 L439.2315,265.0793 L437.1203,267.0074 L437.1414,267.0292 L435.1838,268.8582 L433.3222,270.7865 L431.4142,272.6669 L429.5946,274.6387 L427.4871,276.3125 L427.7023,276.519 L425.9805,278.3181 L424.12,279.9841 L422.4626,281.845 L420.8147,283.715 L418.8652,285.2955 L418.6265,285.0815 L417.5599,287.2031 L415.7075,288.6201 L414.4525,290.5728 L412.5822,291.9739 L411.2163,293.8271 L411.1928,293.8077 L408.9643,297.0753 L406.1871,299.8903 L403.7336,302.9723 L401.3074,306.0768 L398.685,309.0195 " fill="none" style="stroke: #FFFFFF; stroke-width: 1.0;"/><polygon fill="none" points="468.676,232.5675,468.6928,232.6355,472.7564,231.4142,476.9187,230.5916,481.0488,229.6392,485.0732,228.2599,489.244,227.4715,489.2235,227.4557,486.551,230.7469,483.9822,234.1177,481.4854,237.5437,478.7404,240.7792,476.343,244.2815,476.4974,244.3826,474.6338,241.8236,473.221,239.5598,471.8633,237.332,470.1855,234.8946,468.676,232.5675" style="stroke: #FFFFFF; stroke-width: 1.0;"/><!--link DiagramaEstructural to DiagramaComponentes--><path d="M522.645,245.8165 L522.7338,245.8455 L521.7483,247.9711 L521.2834,250.2666 L520.6489,252.5067 L519.457,254.565 L519.0368,256.8751 L519.0031,256.8675 L518.3712,258.9708 L517.9093,261.1124 L517.5654,263.2805 L516.8146,265.3571 L516.6338,267.5618 L516.8776,267.5952 L516.0733,269.5912 L515.9808,271.6846 L515.9752,273.7899 L515.4643,275.826 L515.2191,277.8986 L515.2494,277.9005 L515.0762,279.8993 L515.0409,281.907 L514.9391,283.9104 L514.9641,285.922 L514.5756,287.907 L514.8738,287.9095 L514.9091,291.7333 L514.7521,295.5555 L514.8766,299.38 L515.0144,303.2047 L514.734,307.0259 L514.4136,307.0145 L515.163,310.6498 L514.8577,314.2478 L515.3542,317.8742 L515.0249,321.4713 L515.3725,325.0924 L515.3421,325.0913 L515.5783,328.5418 L515.1038,331.9668 L515.0486,335.4069 L515.0287,338.8482 L514.7548,342.2804 L514.9355,342.32 L514.031,345.5767 L513.4353,348.9011 L512.34,352.116 L511.9899,355.4942 L511.1444,358.7638 L511.3603,358.8767 L509.6516,362.0459 L508.0501,365.2711 L505.9505,368.236 L504.216,371.3917 L502.8049,374.7166 L502.5922,374.5404 L501.4876,376.2662 L500.1434,377.7935 L499.1467,379.6087 L497.5565,380.9324 L496.3192,382.5483 L496.2152,382.4368 L494.7246,384.1753 L492.7893,385.4373 L491.1703,387.0381 L489.8606,388.9705 L488,390.3125 L488.062,390.4959 L486.3216,391.2244 L484.3883,391.3824 L482.6965,392.2549 L480.9521,392.9718 L479.0851,393.3259 L479.0625,393.1171 L475.8562,393.633 L472.6425,394.0804 L469.4433,394.6622 L466.1876,394.7218 L462.9635,395.0731 L462.9738,395.2784 L460.9458,394.9286 L458.9378,394.9751 L456.9591,395.6006 L454.9264,395.1602 L452.9373,395.5798 L452.9439,395.8059 L450.7513,395.7355 L448.5565,395.5887 L446.3668,395.6145 L444.1887,396.0394 L441.9941,395.8995 L441.9927,395.7665 L437.3053,396.2128 L432.6083,395.7544 L427.9223,396.3247 L423.23,396.3157 L418.5361,396.1508 L418.5362,396.2596 L413.8186,396.176 L409.1014,396.4823 L404.3839,396.4363 L399.6662,396.2431 L394.9486,396.1722 L394.9494,396.2914 L390.6767,396.1417 L386.4075,396.5455 L382.1343,396.3233 L377.8628,396.3586 L373.5907,396.3093 L373.5811,396.0391 L370.2305,396.249 L366.8914,396.7844 L363.536,396.8592 L360.1747,396.7689 L356.8215,396.9076 L356.8012,396.7659 L354.8434,397.0923 L352.8497,397.1677 L350.9547,397.933 L349.0108,398.3569 L347,398.3125 L347.0868,398.5297 L343.7369,399.9495 L340.2219,400.9565 L336.881,402.3992 L333.4249,403.5534 L330.1111,405.0636 L330.1674,405.1766 L326.8508,406.8101 L323.6021,408.5799 L320.1379,409.9171 L316.8476,411.6032 L313.565,413.305 L313.6644,413.4752 L310.4933,415.3909 L307.0525,416.8447 L303.9251,418.8353 L300.8032,420.8352 L297.571,422.6461 L297.4215,422.4195 L294.611,424.7874 L291.5411,426.7621 L288.4068,428.6391 L285.4198,430.7394 L282.3385,432.6967 L282.529,432.9587 L279.4044,434.6582 L276.7162,436.9578 L273.8562,439.0212 L270.9595,441.0341 L268.0769,443.0664 L268.1156,443.1156 L265.4918,445.1657 L262.6728,446.9677 L260.1179,449.1054 L257.4849,451.1438 L254.9955,453.3647 L255.0138,453.3864 L252.6824,455.3619 L250.3651,457.3543 L247.8972,459.1676 L245.6228,461.2109 L243.3038,463.2012 L243.2683,463.1613 L241.4557,465.1895 L239.3927,466.9365 L237.1046,468.4306 L235.208,470.3644 L233.211,472.1855 " fill="none" style="stroke: #FFFFFF; stroke-width: 1.0;"/><polygon fill="none" points="516.422,242.6025,516.4718,242.6518,519.3046,239.493,522.4294,236.623,525.4591,233.659,528.1762,230.3856,531.326,227.5405,531.3002,227.5377,530.733,231.7392,530.2957,235.9545,529.9486,240.1795,529.2905,244.3711,529.068,248.6095,529.1472,248.7762,526.4487,247.2183,523.9813,246.1472,521.5422,245.1354,518.9389,243.7781,516.422,242.6025" style="stroke: #FFFFFF; stroke-width: 1.0;"/><!--link DiagramaEstructural to DiagramaDespliegue--><path d="M552.848,247.4955 L552.9413,247.4996 L552.5325,250.4948 L552.6708,253.5139 L552.6309,256.5253 L552.0052,259.511 L552.1904,262.5321 L552.1559,262.5299 L551.7828,265.8321 L551.5834,269.1458 L551.5048,272.4675 L551.01,275.7618 L551.0981,279.0944 L551.3431,279.1169 L550.4944,282.6144 L550.3611,286.1773 L550.3151,289.7483 L549.7612,293.2728 L549.4744,296.8218 L549.5045,296.8254 L549.01,300.5264 L548.6525,304.244 L548.2289,307.9536 L547.9314,311.6786 L547.2226,315.3535 L547.5173,315.3997 L546.9255,319.1954 L546.1438,322.9613 L545.6402,326.7708 L545.1497,330.5823 L544.246,334.3291 L543.9317,334.2664 L543.7821,338.1997 L542.5975,341.9268 L542.1998,345.8107 L540.9917,349.5331 L540.4478,353.3878 L540.4183,353.3804 L539.8242,357.2244 L538.5402,360.8951 L537.6634,364.668 L536.8207,368.4495 L535.7314,372.1692 L535.9078,372.2249 L534.5835,375.7973 L533.5606,379.4649 L532.05,382.9785 L531.2668,386.7219 L530,390.3125 L530.2267,390.4018 L529.2716,392.7017 L528.429,395.046 L527.0634,397.1843 L526.0813,399.4736 L525.4387,401.8967 L525.1883,401.7802 L524.3461,404.1834 L523.2218,406.4553 L522.5067,408.9176 L521.0928,411.0549 L520.0943,413.3854 L519.9594,413.3143 L518.9987,415.6822 L517.4614,417.7463 L516.3341,420.0264 L515.608,422.5179 L514.1675,424.633 L514.3349,424.7303 L513.188,426.9691 L511.5203,428.9055 L510.5049,431.2208 L509.3474,433.4535 L507.8588,435.4939 L507.681,435.3822 L506.5247,437.5369 L505.3102,439.6551 L504.2101,441.8451 L502.6652,443.7557 L501.3688,445.8224 L501.5396,445.9369 L499.8703,447.6154 L498.5306,449.515 L497.6724,451.7374 L495.9278,453.3654 L494.8983,455.4729 L495.0829,455.6036 L493.7232,457.2914 L492.3009,458.9349 L491.0197,460.6782 L490.0643,462.6523 L488.6478,464.2998 L488.541,464.2206 L487.6931,466.0281 L486.1186,467.2965 L485.3703,469.1779 L484.1568,470.7142 L482.818,472.1575 " fill="none" style="stroke: #FFFFFF; stroke-width: 1.0;"/><polygon fill="none" points="545.852,247.2115,545.9177,247.2359,547.1998,243.1912,548.8668,239.2896,550.4085,235.3413,551.5379,231.2398,553.238,227.3505,553.2134,227.3424,554.4253,231.3325,555.7613,235.3634,557.1836,239.4226,558.3087,243.3842,559.85,247.4825,559.8536,247.667,557.0463,247.2182,554.2495,247.3082,551.454,247.4639,548.651,247.2371,545.852,247.2115" style="stroke: #FFFFFF; stroke-width: 1.0;"/><!--link DiagramaEstructural to DiagramaPaquetes--><path d="M567.211,246.6295 L567.2999,246.6581 L567.8748,249.1834 L568.971,251.8763 L569.8974,254.5146 L570.2655,256.9735 L571.4064,259.6808 L571.3734,259.6708 L572.1012,262.5351 L572.9957,265.4496 L574.0062,268.399 L574.6172,271.228 L575.7877,274.2256 L576.0247,274.2919 L576.4061,277.3289 L577.4794,280.5592 L578.6371,283.8131 L579.3037,286.9298 L580.2286,290.1187 L580.258,290.1262 L581.0897,293.5344 L582.0552,296.9767 L582.9562,300.4026 L583.9803,303.86 L584.603,307.2147 L584.8937,307.2816 L585.7336,310.9132 L586.386,314.5015 L587.3129,318.1531 L588.2526,321.8077 L588.7849,325.3683 L588.4707,325.3047 L589.8531,329.2414 L590.201,332.9686 L591.3353,336.855 L591.6597,340.5775 L592.648,344.4343 L592.618,344.4289 L593.3269,346.4588 L593.3357,348.3624 L593.7576,350.3405 L594.2142,352.3249 L594.4206,354.2641 L594.6031,354.2941 L594.748,356.2645 L595.2048,358.2862 L595.157,360.2248 L595.8618,362.2873 L596.0662,364.2675 L596.3073,364.3031 L596.5623,366.3281 L596.9369,368.3709 L596.7556,370.3313 L596.9818,372.3521 L597.5691,374.4263 L597.2953,374.3905 L597.8121,376.4821 L598.0203,378.5334 L598.6761,380.6431 L598.5676,382.6531 L598.9135,384.7224 L598.762,384.7054 L599.2483,386.8167 L599.087,388.8554 L599.3863,390.9458 L600.1362,393.0868 L600.0836,395.1376 L600.2764,395.1556 L600.6046,397.2711 L600.3332,399.3308 L600.8129,401.4605 L601.1289,403.5749 L601.0636,405.6538 L600.8542,405.6385 L601.176,407.7705 L601.4292,409.8975 L601.8171,412.0343 L601.6812,414.1329 L601.8379,416.2528 L602.0432,416.2635 L601.7026,418.3728 L601.7583,420.5027 L602.393,422.6626 L601.9618,424.7673 L602.3905,426.9165 L602.6166,426.9231 L602.5454,429.0612 L602.3976,431.197 L602.4225,433.3379 L602.8466,435.4906 L602.7058,437.6266 L602.5728,437.6259 L602.9813,439.7758 L602.485,441.9206 L603.0175,444.0713 L602.9708,446.2187 L602.768,448.3651 L602.8769,448.3672 L602.7476,450.5152 L603.0082,452.6708 L602.9166,454.8195 L602.6779,456.9655 L602.5613,459.1137 L602.6804,459.1192 L602.4052,461.2592 L602.6829,463.4246 L602.3353,465.5613 L602.2449,467.7098 L602.07,469.8544 L601.8003,469.8345 L601.732,471.984 L601.9885,474.1576 L601.7854,476.2972 L601.4175,478.4246 L601.2782,480.5689 L601.1358,480.5541 L600.9598,482.6929 L600.5317,484.8055 L600.7968,486.99 L600.7188,489.139 L600.1703,491.2391 L600.4021,491.2705 L600.1884,493.4021 L599.5341,495.474 L599.3448,497.6089 L598.8477,499.702 L598.7304,501.8468 L598.8549,501.8679 L598.481,503.9705 L598.2574,506.0987 L597.5572,508.1459 L597.2414,510.2584 L596.9428,512.3738 L597.1358,512.4136 L596.7596,514.5104 L595.8593,516.4991 L595.5678,518.6134 L595.2869,520.7298 L594.7917,522.8021 L594.5281,522.7374 L594.4382,524.9018 L593.891,526.9539 L593.2301,528.9782 L592.8289,531.0662 L592.2614,533.1134 L592.5727,533.2029 L591.5427,535.1102 L591.2258,537.2226 L590.6282,539.2542 L589.9706,541.2686 L589.3361,543.2896 L589.3955,543.3094 L588.7167,545.3101 L587.7385,547.2111 L587.1654,549.2471 L586.4726,551.2431 L586,553.3125 L586.0262,553.3235 L585.013,555.7725 L584.02,558.23 L582.8112,560.5972 L581.8797,563.0805 L580.8842,565.5369 L580.8371,565.5118 L579.8445,568.027 L578.5197,570.3647 L576.8963,572.5429 L575.7922,574.9986 L574.5549,577.3831 L574.3388,577.2449 L573.2091,579.7261 L571.8751,582.0767 L570.3974,584.3354 L568.5766,586.3748 L567.2858,588.7531 L567.452,588.8752 L565.4328,590.7168 L564.1834,593.1242 L562.4174,595.1519 L560.9722,597.4154 L559.3505,599.5491 L559.433,599.617 L557.847,601.7073 L555.7722,603.3956 L554.5169,605.7579 L552.7493,607.6989 L551.0225,609.6734 L551.1398,609.7792 L549.5798,611.7671 L547.6456,613.4169 L546.0122,615.3384 L544.3354,617.2207 L542.5756,619.0281 L542.6383,619.0894 L540.9168,620.7253 L539.4845,622.6438 L537.4063,623.9311 L536.1214,625.9935 L534.2832,627.5154 L534.0915,627.315 L532.5444,628.8463 L531.1498,630.5371 L529.5734,632.0377 L527.8404,633.3748 L526.419,635.0375 " fill="none" style="stroke: #FFFFFF; stroke-width: 1.0;"/><polygon fill="none" points="560.564,248.8255,560.6341,248.8257,560.4389,244.5873,560.6544,240.3501,560.7362,236.1125,560.3782,231.8736,560.629,227.6365,560.6087,227.6204,563.1502,230.8692,565.794,234.1991,568.509,237.5854,570.9788,240.7773,573.792,244.2415,573.8524,244.4159,571.0776,244.9598,568.4792,246.0128,565.9023,247.1279,563.2002,247.8817,560.564,248.8255" style="stroke: #FFFFFF; stroke-width: 1.0;"/><!--link DiagramaEstructural to DiagramaEstructuraCompuesta--><path d="M594.968,244.9025 L595.0497,244.9479 L596.7048,248.2305 L598.8387,251.779 L600.8166,255.241 L602.2819,258.4182 L604.4569,261.9896 L604.4265,261.9731 L606.1066,265.2428 L607.9397,268.5956 L609.8791,272.0061 L611.4521,275.2176 L613.5384,278.7079 L613.7559,278.823 L615.0223,281.8512 L616.9237,285.2154 L618.9027,288.6205 L620.4308,291.7872 L622.196,295.0792 L622.223,295.0931 L623.8268,298.2819 L625.5536,301.5338 L627.221,304.7552 L629.0016,308.0346 L630.4134,311.1251 L630.6809,311.257 L632.2363,314.4071 L633.6191,317.4721 L635.2546,320.6616 L636.9018,323.8569 L638.174,326.8673 L637.8841,326.7307 L639.9043,330.088 L640.9698,332.9952 L642.7611,336.2446 L643.805,339.1417 L645.4615,342.3275 L645.4337,342.3151 L647.122,345.502 L648.1609,348.3986 L649.583,351.4665 L651.0372,354.5488 L652.2594,357.5273 L652.4299,357.599 L653.5162,360.5189 L654.8938,363.5613 L655.8,366.4054 L657.4094,369.5452 L658.5513,372.4885 L658.7782,372.5772 L659.8891,375.5093 L661.1128,378.4854 L661.813,381.2567 L662.8969,384.1781 L664.3207,387.2326 L664.0608,387.1392 L665.3421,390.1335 L666.3307,393.0226 L667.7439,396.0643 L668.432,398.8454 L669.5511,401.7814 L669.4061,401.7342 L670.5826,404.6878 L671.1393,407.4398 L672.1368,410.3351 L673.5655,413.3707 L674.2262,416.1566 L674.4123,416.2102 L675.3606,419.0917 L675.7301,421.8062 L676.8245,424.7298 L677.761,427.6079 L678.3296,430.3798 L678.1258,430.3289 L678.9912,433.188 L679.7899,436.0305 L680.7197,438.9056 L681.1398,441.6536 L681.8446,444.4727 L682.0459,444.5145 L682.1857,447.2194 L682.7141,450.005 L683.81,452.9088 L683.861,455.5952 L684.755,458.4569 L684.9782,458.4937 L685.3035,461.2513 L685.5532,463.9965 L685.9734,466.7698 L686.7876,469.608 L687.0443,472.3543 L686.9122,472.3385 L687.6358,475.1519 L687.461,477.858 L688.3078,480.6861 L688.5794,483.4455 L688.696,486.1864 L688.8046,486.1942 L688.9165,488.9456 L689.4172,491.7251 L689.5666,494.4792 L689.5692,497.2226 L689.6937,499.9749 L689.8129,499.9777 L689.7013,502.7268 L690.143,505.4891 L689.9589,508.2365 L690.0322,510.99 L690.021,513.7415 L689.7507,513.7344 L689.769,516.49 L690.113,519.2542 L689.9962,522.0063 L689.7142,524.7541 L689.6614,527.5078 L689.5186,527.4968 L689.3518,530.2579 L688.9321,532.9995 L689.2074,535.7947 L689.1388,538.5633 L688.5984,541.2956 L688.8305,541.3255 L688.5482,544.1013 L687.8251,546.8202 L687.5673,549.5991 L687.0014,552.3384 L686.8158,555.1266 L686.94,555.1491 L686.4199,557.9253 L686.0498,560.7286 L685.204,563.4458 L684.7419,566.2325 L684.2969,569.0223 L684.4888,569.0672 L683.8881,571.8762 L682.7665,574.5633 L682.25,577.392 L681.7442,580.2232 L681.0253,583.0045 L680.7644,582.9297 L680.3682,585.8659 L679.5193,588.6723 L678.5579,591.4464 L677.8536,594.2942 L676.9847,597.0949 L677.2914,597.1989 L675.8878,599.8942 L675.1868,602.8279 L674.2093,605.6678 L673.1725,608.4875 L672.1586,611.315 L672.2169,611.3379 L671.0799,614.2078 L669.649,616.9626 L668.6158,619.8731 L667.4651,622.7376 L666.5305,625.6867 L666.5564,625.6982 L665.277,628.6116 L664.0176,631.5338 L662.5443,634.3613 L661.3458,637.3105 L660.084,640.2316 L660.0361,640.208 L658.8576,643.2931 L657.3414,646.2115 L655.5217,648.9799 L654.2298,652.0091 L652.8026,654.9714 L652.5772,654.8488 L651.2887,658.0239 L649.7872,661.0831 L648.1357,664.0608 L646.1265,666.8439 L644.67,669.9277 L644.8474,670.0327 L642.5859,672.7983 L641.1464,676.0508 L639.1553,678.9766 L637.5067,682.1052 L635.6696,685.1222 L635.7596,685.1797 L633.8695,688.3261 L631.4463,691.1315 L629.917,694.5086 L627.8287,697.5283 L625.7851,700.5765 L625.9154,700.6658 L623.9022,703.9116 L621.4731,706.8723 L619.3783,710.0622 L617.2353,713.2189 L615,716.3125 L615.0651,716.3712 L612.9918,718.5386 L611.2187,720.9768 L608.775,722.8101 L607.1549,725.3862 L604.9604,727.4443 L604.7973,727.22 L602.3899,729.0164 L600.1123,730.9913 L597.6799,732.7533 L595.1145,734.3323 L592.814,736.2757 " fill="none" style="stroke: #FFFFFF; stroke-width: 1.0;"/><polygon fill="none" points="588.847,248.2985,588.916,248.3109,587.9615,244.1031,587.4112,239.9679,586.7293,235.8091,585.6146,231.5724,585.099,227.4435,585.0819,227.424,588.1923,230.1298,591.3887,232.9338,594.645,235.806,597.6951,238.443,601.034,241.4095,601.1248,241.5702,598.4932,242.6044,596.1268,244.1077,593.7927,245.6682,591.2703,246.8958,588.847,248.2985" style="stroke: #FFFFFF; stroke-width: 1.0;"/><!--link DiagramaClases to DiagramaObjetos--><!--link DiagramaComponentes to DiagramaDespliegue--><!--link A to B--><!--link B to DiagramaPaquetes--><!--link C to DiagramaCasosUso--><!--link DiagramaActividad to DiagramaEstados--><!--link DiagramaPaquetes to DiagramaEstructuraCompuesta--><!--link DiagramaComportamiento to DiagramaCasosUso--><path d="M931.205,234.7665 L931.2436,234.8516 L930.888,234.708 L930.7585,235.0631 L930.5553,235.2559 L930.1101,234.9145 L930,235.3125 L929.9844,235.2817 L926.975,236.6345 L924.0444,238.1427 L921.1685,239.7587 L918.104,241.0028 L915.3037,242.7679 L915.4302,242.979 L912.2839,244.2511 L909.5068,246.1394 L906.7748,248.1029 L903.7807,249.6289 L900.9244,251.3851 L900.9415,251.4101 L898.1381,253.2629 L895.4124,255.2299 L892.6492,257.1418 L889.9575,259.1588 L887.0328,260.8331 L887.2121,261.0715 L884.5676,263.0641 L881.8076,264.9028 L879.2168,266.9667 L876.6339,269.0411 L873.7998,270.7813 L873.5972,270.5329 L871.5096,273.0384 L868.7549,274.7261 L866.5074,277.0355 L863.7376,278.7046 L861.3959,280.8986 L861.3759,280.8757 L859.3319,283.138 L856.8201,284.8646 L854.5843,286.9073 L852.3717,288.9765 L849.992,290.8543 L850.1176,290.9901 L847.9441,292.7457 L845.9854,294.7333 L843.6793,296.3455 L841.8912,298.5177 L839.7588,300.3176 L839.9286,300.4923 L838.1181,302.1872 L836.3919,303.9689 L834.2741,305.3475 L832.4434,307.0216 L830.867,308.9575 " fill="none" style="stroke: #FFFFFF; stroke-width: 1.0;"/><polygon fill="none" points="928.801,228.1905,928.8035,228.2605,933.0312,227.8999,937.2737,227.9497,941.5114,227.8658,945.7332,227.3425,949.977,227.4275,949.9601,227.4078,946.6688,230.08,943.4625,232.8513,940.3154,235.6915,936.9645,238.2942,933.899,241.2295,934.0709,241.2967,932.6837,238.5452,931.7984,235.9899,930.9743,233.4585,929.794,230.7879,928.801,228.1905" style="stroke: #FFFFFF; stroke-width: 1.0;"/><!--link DiagramaComportamiento to DiagramaInteraccion--><path d="M1225.93,211.5495 L1225.9347,211.6428 L1231.7858,211.6636 L1237.6646,212.2313 L1243.5343,212.621 L1249.3743,212.4249 L1255.2555,213.0396 L1255.2533,213.0051 L1261.0038,213.2183 L1266.7653,213.6054 L1272.5346,214.1132 L1278.2773,214.2047 L1284.0572,214.8793 L1284.0771,215.1245 L1289.5191,215.0453 L1295.0193,215.682 L1300.5266,216.4062 L1305.9926,216.622 L1311.4803,217.1052 L1311.4832,217.1354 L1314.0644,217.345 L1316.659,217.6919 L1319.2471,217.9726 L1321.8477,218.3797 L1324.4077,218.3745 L1324.4411,218.6709 L1326.8939,218.9504 L1329.3253,219.0388 L1331.7881,219.407 L1334.2524,219.7883 L1336.67,219.7541 L1336.6287,219.4363 L1339.0069,220.3521 L1341.2491,220.2213 L1343.5947,220.8861 L1345.8338,220.7316 L1348.1602,221.2486 L1348.1557,221.2185 L1350.3321,221.8973 L1352.4015,221.8728 L1354.5341,222.2633 L1356.672,222.6886 L1358.7716,222.8626 L1358.8076,223.0441 L1362.403,223.5819 L1366.0599,224.4298 L1369.6173,224.776 L1373.3232,225.8704 L1376.9303,226.4674 L1377.0024,226.7002 L1379.661,227.4837 L1382.3553,228.3828 L1384.8834,228.745 L1387.5334,229.5007 L1390.2914,230.6052 L1390.1474,230.3694 L1391.8195,231.5243 L1393.3293,232.4135 L1395.0744,233.688 L1396.4178,234.3048 L1398,235.3125 L1397.8841,235.2134 L1399.6989,237.2742 L1401.0184,238.9113 L1402.6902,240.8497 L1404.7065,243.083 L1406.1091,244.7912 L1406.2655,244.9053 L1407.7477,246.8681 L1408.7433,248.4758 L1410.3483,250.5282 L1411.8205,252.4837 L1412.9834,254.2134 L1412.8037,254.1048 L1414.0814,256.0682 L1415.3003,257.9959 L1416.6348,259.9936 L1417.5197,261.7195 L1418.6558,263.5972 L1418.8411,263.6863 L1419.3347,265.3632 L1420.1859,267.2121 L1421.5596,269.3123 L1421.9714,270.9499 L1423.1592,272.9607 L1423.3759,273.0258 L1424.3735,276.7347 L1425.2978,280.4216 L1426.3875,284.1582 L1427.8597,288.0098 L1428.7907,291.6987 L1428.658,291.6892 L1429.3232,295.4922 L1429.0859,299.2306 L1429.8748,303.0424 L1430.0858,306.8129 L1430.1413,310.5723 L1430.2491,310.5873 L1429.6286,314.4059 L1429.3943,318.2782 L1428.8111,322.102 L1428.0821,325.9055 L1427.4741,329.7258 L1427.5888,329.7583 L1426.8668,331.6554 L1426.6773,333.7034 L1425.8856,335.5808 L1425.3416,337.5283 L1424.7162,339.4528 L1424.4628,339.3585 L1423.8147,341.3602 L1423.4719,343.4755 L1422.6971,345.4301 L1421.7675,347.3271 L1421.0527,349.304 L1420.9223,349.2448 L1420.0568,351.2625 L1418.9604,353.1753 L1418.4987,355.3763 L1417.7229,357.4346 L1416.5163,359.2975 L1416.7231,359.4069 L1415.7141,361.4728 L1414.3122,363.3306 L1413.3249,365.4079 L1412.0632,367.34 L1411.1402,369.4513 L1411.2485,369.5162 L1409.9977,371.5741 L1408.8776,373.7103 L1407.3427,375.5983 L1406.1425,377.6865 L1404.9571,379.7837 L1405.1215,379.8923 L1403.776,382.0284 L1401.9842,383.8696 L1400.7109,386.0535 L1399.4468,388.2433 L1398,390.3125 L1397.7829,390.1496 L1396.6751,392.3398 L1395.1907,394.2473 L1393.6126,396.0847 L1392.2484,398.0825 L1390.7474,399.9776 L1390.9906,400.1914 L1389.055,401.6921 L1387.6768,403.6827 L1386.0791,405.4804 L1384.4345,407.2369 L1382.808,409.0092 L1382.8519,409.0539 L1381.1305,410.7292 L1379.1878,412.1793 L1377.5446,413.9341 L1375.8128,415.5988 L1374.2437,417.429 L1374.2622,417.4506 L1372.4437,419.0246 L1370.6395,420.6153 L1368.6829,422.0285 L1366.9221,423.6697 L1365.1161,425.2584 L1365.0839,425.2157 L1363.3446,426.9151 L1361.3785,428.3139 L1359.2086,429.4422 L1357.3932,431.0407 L1355.4869,432.5187 L1355.3445,432.3052 L1353.5441,433.9678 L1351.6092,435.4288 L1349.5796,436.7477 L1347.3241,437.7278 L1345.4177,439.2314 L1345.5227,439.4088 L1343.16,440.1846 L1341.284,441.7826 L1339.0814,442.8289 L1337.0816,444.2176 L1334.9702,445.418 L1335.0201,445.5124 L1332.9154,446.7399 L1330.5153,447.4078 L1328.6105,449.014 L1326.396,450.0335 L1324.2063,451.0999 L1324.2736,451.2427 L1322.1443,452.4402 L1319.7997,453.1815 L1317.6282,454.2895 L1315.4316,455.3446 L1313.1874,456.2985 L1313.2215,456.3793 L1310.9448,457.2456 L1308.8255,458.4842 L1306.3547,458.891 L1304.3155,460.3194 L1301.9753,461.0354 L1301.8771,460.776 L1299.6215,461.6701 L1297.4442,462.7706 L1295.1736,463.625 L1292.8228,464.2677 L1290.6317,465.3319 L1290.6909,465.506 L1288.3646,466.1532 L1286.1702,467.1887 L1283.879,467.9392 L1281.4369,468.2453 L1279.2183,469.2095 L1279.1667,469.0403 L1276.9172,469.8506 L1274.6957,470.7526 L1272.4175,471.4688 L1270.12,472.1216 L1267.7967,472.6896 L1267.7567,472.5429 L1265.5976,473.5832 L1263.3237,474.2029 L1260.9704,474.5317 L1258.6743,475.0703 L1256.4287,475.7936 L1256.3863,475.6203 L1254.1555,476.2509 L1251.9421,476.9528 L1249.6698,477.4138 L1247.3824,477.8129 L1245.1759,478.5431 L1245.2221,478.7548 L1242.9172,478.8271 L1240.7931,479.7278 L1238.5708,480.1785 L1236.3504,480.6377 L1234.1,480.9595 " fill="none" style="stroke: #FFFFFF; stroke-width: 1.0;"/><polygon fill="none" points="1225.34,218.5305,1225.3659,218.5956,1221.351,216.8358,1217.4878,215.4576,1213.5752,213.9551,1209.5001,212.0439,1205.65,210.6985,1205.6425,210.6737,1209.6627,209.3315,1213.7209,208.1142,1217.8054,206.9838,1221.799,205.554,1225.92,204.5435,1226.1044,204.5511,1225.5941,207.3322,1225.6221,210.1356,1225.7159,212.9417,1225.4274,215.7319,1225.34,218.5305" style="stroke: #FFFFFF; stroke-width: 1.0;"/><!--link DiagramaComportamiento to DiagramaActividad--><path d="M1075,247.5795 L1075.2802,247.5795 L1074.4476,257.8347 L1075.2577,268.0898 L1075.5329,278.345 L1074.0488,288.6002 L1074.8964,298.8553 L1075,309.1105 " fill="none" style="stroke: #FFFFFF; stroke-width: 1.0;"/><polygon fill="none" points="1068,247.5225,1068.0661,247.5456,1069.2696,243.4769,1070.8608,239.5438,1072.3257,235.5665,1073.3756,231.4439,1075,227.5225,1074.9755,227.5139,1076.2658,231.4755,1077.6793,235.4803,1079.1786,239.515,1080.3825,243.4464,1082,247.5225,1082,247.707,1079.2,247.3124,1076.4,247.4566,1073.6,247.6665,1070.8,247.4939,1068,247.5225" style="stroke: #FFFFFF; stroke-width: 1.0;"/><!--link DiagramaComportamiento to DiagramaEstados--><path d="M1187.21,236.9235 L1187.2585,237.0034 L1190.2375,238.6608 L1193.5006,240.7863 L1196.6712,242.7594 L1199.5377,244.2312 L1202.8251,246.397 L1202.8058,246.3684 L1205.5686,248.1728 L1208.4291,250.1213 L1211.3576,252.17 L1214.0519,253.8735 L1217.0742,256.0605 L1217.2219,256.2573 L1219.4913,257.7758 L1222.1919,259.869 L1224.945,262.0323 L1227.3922,263.7877 L1230.0003,265.7576 L1230.0195,265.781 L1232.3204,267.6615 L1234.709,269.6486 L1237.0553,271.5842 L1239.4824,273.618 L1241.6463,275.3318 L1241.8449,275.5542 L1243.9291,277.4159 L1245.8852,279.134 L1248.0289,281.0622 L1250.1813,283.0003 L1252.0552,284.6264 L1251.8331,284.3954 L1254.1072,286.6156 L1255.6499,288.0749 L1257.7486,290.1127 L1259.2747,291.5548 L1261.2702,293.4851 L1261.2484,293.4639 L1263.1189,295.3685 L1264.4802,296.7765 L1266.142,298.4775 L1267.829,300.2032 L1269.3341,301.7513 L1269.4699,301.877 L1270.724,303.2536 L1272.2101,304.8449 L1273.3209,306.0888 L1274.9916,307.8509 L1276.29,309.2685 " fill="none" style="stroke: #FFFFFF; stroke-width: 1.0;"/><polygon fill="none" points="1183.77,243.0255,1183.8216,243.0729,1180.8023,239.8117,1178.0855,236.8283,1175.2701,233.7544,1172.1309,230.383,1169.44,227.4235,1169.436,227.3979,1173.6041,227.9342,1177.7923,228.5996,1181.9945,229.3547,1186.1486,229.8006,1190.37,230.6795,1190.5328,230.7665,1188.8647,233.0497,1187.6719,235.5868,1186.537,238.155,1185.0648,240.5428,1183.77,243.0255" style="stroke: #FFFFFF; stroke-width: 1.0;"/><!--link C to DiagramaInteraccion--><!--link DiagramaInteraccion to DiagramaComunicacion--><path d="M1158.9,529.4635 L1159.1207,529.6362 L1164.8126,537.2343 L1171.7983,545.8448 L1178.3627,554.1256 L1183.5417,561.3222 L1190.5569,569.9558 L1196.5383,577.7804 L1202.9312,585.927 L1209.61,594.2973 L1215.3033,601.8965 L1222.9583,611.0307 L1228.0628,618.1691 L1234.8646,626.6358 L1241.42,634.9095 " fill="none" style="stroke: #FFFFFF; stroke-width: 1.0;"/><polygon fill="none" points="1153.26,533.6185,1153.3263,533.641,1151.7672,529.5613,1150.597,525.6136,1149.3002,521.6229,1147.5868,517.4909,1146.45,513.5545,1146.436,513.5327,1149.9413,515.722,1153.517,518.0213,1157.1417,520.397,1160.5976,522.5093,1164.29,524.9905,1164.4037,525.1359,1161.9546,526.5506,1159.8374,528.3898,1157.7607,530.2807,1155.4484,531.8704,1153.26,533.6185" style="stroke: #FFFFFF; stroke-width: 1.0;"/><!--link DiagramaInteraccion to DiagramaSecuencia--><path d="M1103.1,529.4635 L1103.3207,529.6362 L1096.3173,537.2343 L1090.6076,545.8448 L1084.4766,554.1256 L1076.9602,561.3222 L1071.2799,569.9558 L1064.566,577.7804 L1058.2635,585.927 L1052.2469,594.2973 L1045.2448,601.8965 L1040.2044,611.0307 L1032.6136,618.1691 L1026.72,626.6358 L1020.58,634.9095 " fill="none" style="stroke: #FFFFFF; stroke-width: 1.0;"/><polygon fill="none" points="1097.71,524.9905,1097.7478,525.0495,1101.2035,522.587,1104.8808,520.4703,1108.4859,518.2411,1111.8537,515.6415,1115.55,513.5545,1115.5255,513.5462,1114.0534,517.5216,1112.7049,521.539,1111.4425,525.5856,1109.8838,529.5316,1108.74,533.6185,1108.8537,533.7639,1106.4046,531.7274,1104.2874,530.1154,1102.2107,528.5551,1099.8984,526.6936,1097.71,524.9905" style="stroke: #FFFFFF; stroke-width: 1.0;"/><!--link DiagramaInteraccion to DiagramaInteraccionGeneral--><path d="M1007.56,508.9475 L1007.5763,509.0395 L1002.6951,509.6251 L997.9096,510.7498 L993.093,511.699 L988.1737,512.0708 L983.3965,513.2419 L983.3898,513.208 L980.9492,513.5303 L978.5423,514.0234 L976.1587,514.6352 L973.6945,514.8378 L971.3432,515.6137 L971.3942,515.8544 L968.8996,515.8446 L966.5537,516.5376 L964.2261,517.3164 L961.7928,517.5962 L959.415,518.1385 L959.4218,518.1681 L957.0672,518.6608 L954.7433,519.2881 L952.4046,519.8504 L950.0943,520.5367 L947.6916,520.8191 L947.7634,521.1085 L945.4764,521.6798 L943.1431,522.0644 L940.8776,522.7223 L938.6153,523.393 L936.2523,523.6578 L936.1685,523.3485 L934.1161,524.5488 L931.7877,524.7305 L929.6691,525.6866 L927.3345,525.8451 L925.1769,526.6574 L925.1682,526.6282 L923.1445,527.6059 L920.9179,527.9018 L918.811,528.6001 L916.7142,529.332 L914.5449,529.8204 L914.6027,529.9961 L912.5225,530.4845 L910.5412,531.2732 L908.3999,531.5761 L906.4972,532.6035 L904.4358,533.1492 L904.5199,533.3779 L902.6027,534.0341 L900.7273,534.8039 L898.6578,535.0462 L896.7305,535.6751 L894.9293,536.6466 L894.8171,536.3943 L891.5413,538.1248 L888.139,539.571 L884.9202,541.4296 L881.3881,542.584 L878.0423,544.157 L877.9631,544.0267 L875.3905,545.8868 L872.4796,547.1898 L869.8093,548.8889 L867.3744,550.9756 L864.5203,552.3722 L864.6528,552.5133 L862.8397,554.3982 L860.6143,555.8441 L858.9052,557.8398 L857.0837,559.7157 L855,561.3125 L854.8266,561.1941 L853.5933,563.2961 L852.3031,565.3593 L851.1245,567.4987 L849.5123,569.3418 L848.1423,571.3505 L848.3253,571.4441 L846.8283,573.3799 L845.6846,575.4963 L845.0571,577.8766 L843.4793,579.7711 L842.6682,582.0576 L842.8802,582.1366 L841.9148,584.3413 L840.8776,586.5193 L840.0024,588.7576 L839.5012,591.1354 L838.4707,593.3158 L838.3419,593.2825 L838.1197,595.7201 L837.0216,597.9308 L836.9194,600.3996 L836.2564,602.723 L835.4424,605.0074 L835.5499,605.025 L835.0699,607.4121 L834.9747,609.8623 L834.5319,612.2556 L833.9438,614.6251 L833.4763,617.0143 L833.5951,617.0241 L833.2163,619.4504 L833.3891,621.9223 L832.9382,624.3426 L832.7438,626.7841 L832.4651,629.2187 L832.1947,629.2151 L832.2523,631.6731 L832.6355,634.1354 L832.558,636.5916 L832.3152,639.0456 L832.3016,641.5026 L832.1586,641.4959 L832.3198,643.9471 L832.2278,646.3865 L832.8319,648.8586 L833.0915,651.3145 L832.8786,653.7482 L833.1114,653.7715 L833.428,656.1968 L833.3023,658.5778 L833.6434,661.0056 L833.6755,663.4025 L834.089,665.8375 L834.2139,665.8558 L834.5448,668.2165 L835.0265,670.5992 L835.0299,672.9117 L835.4191,675.2809 L835.8255,677.6526 L836.0192,677.6892 L836.5044,679.984 L836.4639,682.1796 L837.0342,684.4905 L837.6151,686.8034 L837.981,689.0757 L837.7162,689.0158 L838.6277,691.2929 L839.0798,693.4662 L839.4177,695.6136 L840.0165,697.8201 L840.4483,699.9887 L840.7617,700.0702 L840.848,702.0108 L841.6525,704.138 L842.1742,706.1918 L842.6355,708.2298 L843.1201,710.2739 L843.1802,710.2914 L843.7224,712.1958 L843.9613,714.0123 L844.6105,715.9479 L845.1384,717.8482 L845.8893,719.8133 L845.9162,719.8222 L847.0068,723.0995 L848.1182,726.3836 L849.0075,729.5945 L850.1822,732.8996 L851.291,736.1829 " fill="none" style="stroke: #FFFFFF; stroke-width: 1.0;"/><polygon fill="none" points="1006.84,501.9745,1006.8525,502.0434,1010.9833,502.5972,1015.1875,503.5551,1019.3679,504.3814,1023.4694,504.7749,1027.68,505.7675,1027.6677,505.7447,1023.8807,507.6493,1020.1555,509.6689,1016.4732,511.7685,1012.6428,513.5925,1009.02,515.8025,1009.2023,515.8312,1008.3765,513.0042,1008.0829,510.261,1007.8542,507.5281,1007.2478,504.7356,1006.84,501.9745" style="stroke: #FFFFFF; stroke-width: 1.0;"/><!--link DiagramaInteraccion to DiagramaTiempo--><path d="M1254.34,511.1585 L1254.3583,511.2501 L1258.6855,511.8537 L1263.12,512.9943 L1267.5196,513.9601 L1271.8042,514.3508 L1276.248,515.5375 L1276.2406,515.5038 L1278.3816,515.8294 L1280.5599,516.325 L1282.7641,516.9389 L1284.879,517.1454 L1287.1191,517.9225 L1287.1753,518.1621 L1289.2004,518.1531 L1291.3897,518.8436 L1293.5989,519.6195 L1295.6917,519.8988 L1297.8458,520.4393 L1297.8532,520.4687 L1299.9454,520.9554 L1302.0714,521.5761 L1304.1811,522.1321 L1306.3219,522.8114 L1308.3614,523.0889 L1308.4396,523.3767 L1310.4882,523.9369 L1312.4862,524.3115 L1314.5581,524.9579 L1316.6335,525.6169 L1318.5991,525.8725 L1318.5084,525.5651 L1320.6631,526.7454 L1322.5191,526.9135 L1324.6021,527.8512 L1326.4513,527.9963 L1328.4922,528.7911 L1328.4828,528.7621 L1330.4896,529.7157 L1332.2782,529.9923 L1334.1955,530.6684 L1336.1236,531.3781 L1337.9738,531.8458 L1338.0385,532.019 L1341.4655,533.1485 L1345.0031,534.5741 L1348.3617,535.5206 L1351.9873,537.1817 L1355.4354,538.3677 L1355.5393,538.5881 L1358.5226,539.9623 L1361.5574,541.4459 L1364.3525,542.4212 L1367.3233,543.769 L1370.4498,545.4471 L1370.3017,545.214 L1372.8424,546.9541 L1375.2162,548.4315 L1377.832,550.2899 L1380.0346,551.4979 L1382.4828,553.0925 L1382.3769,552.9828 L1384.2567,554.8095 L1385.6839,556.1672 L1387.4329,557.8585 L1389.4969,559.876 L1391,561.3125 L1391.1562,561.4269 L1392.7458,563.5301 L1393.8494,565.2775 L1395.5616,567.4705 L1397.1413,569.5665 L1398.4119,571.4362 L1398.2356,571.3223 L1399.6619,573.4038 L1401.0305,575.448 L1402.5125,577.5655 L1403.5534,579.3981 L1404.8407,581.3899 L1405.0205,581.4896 L1405.7144,583.2319 L1406.7554,585.1668 L1408.3032,587.3831 L1408.9178,589.0813 L1410.2853,591.1975 L1410.4908,591.2921 L1411.2606,593.173 L1411.9608,595.0219 L1412.818,596.943 L1414.0379,599.0312 L1414.7445,600.883 L1414.6194,600.8377 L1415.6864,602.8901 L1415.9027,604.6343 L1417.0862,606.7289 L1417.7252,608.6262 L1418.2173,610.4704 L1418.3227,610.4979 L1418.7347,612.3784 L1419.5239,614.3574 L1419.9724,616.2473 L1420.2784,618.1001 L1420.7026,619.9837 L1420.8212,619.9963 L1421.0458,623.7576 L1421.8207,627.5773 L1421.9733,631.331 L1422.3818,635.1118 L1422.7063,638.8838 L1422.4373,638.8559 L1422.1352,642.6434 L1422.157,646.4645 L1421.7204,650.2381 L1421.1195,653.9947 L1420.7466,657.7749 L1420.6099,657.7324 L1419.4673,661.5608 L1418.0827,665.3139 L1417.3636,669.274 L1416.3151,673.1317 L1414.8148,676.8489 L1415.0273,676.9469 L1414.2037,678.9113 L1412.9764,680.6896 L1412.1752,682.6644 L1411.0919,684.5091 L1410.3567,686.5144 L1410.467,686.5758 L1409.3616,688.5244 L1408.3893,690.5472 L1406.9949,692.3345 L1405.941,694.3118 L1404.9022,696.2975 L1405.0675,696.4049 L1403.8233,698.4199 L1402.1305,700.1432 L1400.9589,702.2054 L1399.7964,704.2734 L1398.4504,706.2222 L1398.232,706.0609 L1397.0867,708.3336 L1395.5625,710.3264 L1393.9441,712.2498 L1392.5409,714.332 L1391,716.3125 L1391.2015,716.566 L1388.7415,717.9296 L1386.7432,719.8741 L1384.5632,721.5899 L1382.3443,723.2568 L1380.1403,724.9425 L1380.1656,724.9998 L1376.7786,726.4793 L1373.2643,727.6699 L1369.9223,729.2514 L1366.5293,730.7173 L1363.23,732.3956 L1363.2388,732.4226 L1361.2148,733.0931 L1359.1977,733.7843 L1357.1081,734.2532 L1355.1116,735.0078 L1353.0936,735.6964 L1353.0793,735.645 L1350.9731,736.5486 L1348.7665,737.0893 L1346.4697,737.3036 L1344.3298,738.0854 L1342.1497,738.7217 L1342.09,738.4722 L1339.8763,739.3975 L1337.6061,740.087 L1335.2963,740.6105 L1332.8917,740.738 L1330.6335,741.4775 L1330.6759,741.6793 L1328.1948,741.6529 L1325.9104,742.5616 L1323.494,742.8429 L1321.1595,743.5136 L1318.78,743.9701 " fill="none" style="stroke: #FFFFFF; stroke-width: 1.0;"/><polygon fill="none" points="1252.75,517.9835,1252.7844,518.0445,1248.9901,515.7804,1245.3977,513.874,1241.7395,511.8511,1237.8652,509.4452,1234.29,507.5695,1234.2859,507.5439,1238.4514,506.7557,1242.6377,506.0965,1246.8384,505.5269,1250.9894,504.6484,1255.21,504.2025,1255.3917,504.2349,1254.5112,506.9218,1254.1611,509.7033,1253.8757,512.4964,1253.2139,515.2223,1252.75,517.9835" style="stroke: #FFFFFF; stroke-width: 1.0;"/><!--link D to DiagramaTiempo--><!--link D to DiagramaInteraccionGeneral--><!--
@startuml
skinparam titleBorderColor #222222
skinparam titleBackgroundColor #222222
skinparam titlefontColor #orange
skinparam titleFontStyle bold
skinparam titleFontSize 40

skinparam handwritten true
skinparam shadowing false
skinparam backgroundColor #222222
skinparam padding 3

skinparam note {
    backgroundColor #222222
    fontStyle bold
    borderColor #white
    FontColor #yellow
     fontSize 20
}

skinparam class {
    fontColor #white
    fontStyle bold
    arrowColor #white
    backgroundColor #222222
    borderColor #white
    circleCharacterFontName #white
    fontSize 20
}

skinparam package {
    fontColor #white
    fontStyle bold
    arrowColor #white
    backgroundColor #222222
    borderColor #white
    circleCharacterFontName #white
    fontSize 20
}

hide members
hide circle

title Dominio: Clasificación de Diagramas

abstract class Diagrama

package " " as estructurales {
abstract class DiagramaEstructural
package " " as A   {
class DiagramaClases
class DiagramaObjetos
}
package " " as B   {
class DiagramaComponentes
class DiagramaDespliegue
}
class DiagramaPaquetes
class DiagramaEstructuraCompuesta
}
package " " as comportamientos  {
abstract class DiagramaComportamiento
class DiagramaCasosUso
package " " as C  {
class DiagramaEstados
class DiagramaActividad
}
class DiagramaInteraccion
package " " as D  {
class DiagramaComunicacion
class DiagramaSecuencia
}
class DiagramaInteraccionGeneral
class DiagramaTiempo
}
Diagrama <|-down- DiagramaEstructural
Diagrama <|-down- DiagramaComportamiento
DiagramaEstructural <|-down- DiagramaClases
DiagramaEstructural <|-down- DiagramaObjetos
DiagramaEstructural <|-down- DiagramaComponentes
DiagramaEstructural <|-down- DiagramaDespliegue
DiagramaEstructural <|-down- DiagramaPaquetes
DiagramaEstructural <|-down- - - - DiagramaEstructuraCompuesta
DiagramaClases -[hidden] DiagramaObjetos
DiagramaComponentes -[hidden] DiagramaDespliegue
A -[hidden]down-B
B -[hidden]down-DiagramaPaquetes

DiagramaCasosUso -[hidden]left-C
DiagramaActividad -[hidden] DiagramaEstados
DiagramaPaquetes -[hidden]down- DiagramaEstructuraCompuesta
DiagramaComportamiento <|-down- DiagramaCasosUso
DiagramaComportamiento <|-down- DiagramaInteraccion
DiagramaComportamiento <|-down- DiagramaActividad
DiagramaComportamiento <|-down- DiagramaEstados
C -[hidden]down-DiagramaInteraccion
DiagramaInteraccion <|- - DiagramaComunicacion
DiagramaInteraccion <|- - DiagramaSecuencia
DiagramaInteraccion <|- - DiagramaInteraccionGeneral
DiagramaInteraccion <|- - DiagramaTiempo
D -[hidden]down-DiagramaTiempo
D -[hidden]down-DiagramaInteraccionGeneral
@enduml

PlantUML version 1.2019.05(Sat Apr 20 18:45:36 CEST 2019)
(GPL source distribution)
Java Runtime: Java(TM) SE Runtime Environment
JVM: Java HotSpot(TM) 64-Bit Server VM
Java Version: 11.0.8+10-LTS
Operating System: Windows 10
OS Version: 10.0
Default Encoding: windows-1252
Language: es
Country: ES
--></g></svg>