<?xml version="1.0" encoding="UTF-8" standalone="no"?><svg xmlns="http://www.w3.org/2000/svg" xmlns:xlink="http://www.w3.org/1999/xlink" contentScriptType="application/ecmascript" contentStyleType="text/css" height="221px" preserveAspectRatio="none" style="width:403px;height:221px;" version="1.1" viewBox="0 0 403 221" width="403px" zoomAndPan="magnify"><defs><filter height="300%" id="fs8ycne9cyom8" width="300%" x="-1" y="-1"><feGaussianBlur result="blurOut" stdDeviation="2.0"/><feColorMatrix in="blurOut" result="blurOut2" type="matrix" values="0 0 0 0 0 0 0 0 0 0 0 0 0 0 0 0 0 0 .4 0"/><feOffset dx="4.0" dy="4.0" in="blurOut2" result="blurOut3"/><feBlend in="SourceGraphic" in2="blurOut3" mode="normal"/></filter></defs><g><line style="stroke: #A80036; stroke-width: 1.5;" x1="156" x2="156" y1="71.9609" y2="159.0156"/><polygon fill="#A80036" points="152,81.9609,156,71.9609,160,81.9609,156,77.9609" style="stroke: #A80036; stroke-width: 1.0;"/><polygon fill="#A80036" points="152,149.0156,156,159.0156,160,149.0156,156,153.0156" style="stroke: #A80036; stroke-width: 1.0;"/><text fill="#000000" font-family="sans-serif" font-size="13" lengthAdjust="spacingAndGlyphs" textLength="61" x="160" y="120.8076">some time</text><line style="stroke: #A80036; stroke-width: 1.0; stroke-dasharray: 5.0,5.0;" x1="49.5" x2="49.5" y1="39.6094" y2="179.0156"/><line style="stroke: #A80036; stroke-width: 1.0; stroke-dasharray: 5.0,5.0;" x1="262.5" x2="262.5" y1="39.6094" y2="179.0156"/><line style="stroke: #A80036; stroke-width: 1.0; stroke-dasharray: 5.0,5.0;" x1="374.5" x2="374.5" y1="39.6094" y2="179.0156"/><rect fill="#FEFECE" filter="url(#fs8ycne9cyom8)" height="31.6094" style="stroke: #A80036; stroke-width: 1.5;" width="89" x="3" y="3"/><text fill="#000000" font-family="sans-serif" font-size="14" lengthAdjust="spacingAndGlyphs" textLength="75" x="10" y="24.5332">Participant1</text><rect fill="#FEFECE" filter="url(#fs8ycne9cyom8)" height="31.6094" style="stroke: #A80036; stroke-width: 1.5;" width="89" x="216" y="3"/><text fill="#000000" font-family="sans-serif" font-size="14" lengthAdjust="spacingAndGlyphs" textLength="75" x="223" y="24.5332">Participant2</text><rect fill="#FEFECE" filter="url(#fs8ycne9cyom8)" height="31.6094" style="stroke: #A80036; stroke-width: 1.5;" width="39" x="353" y="3"/><text fill="#000000" font-family="sans-serif" font-size="14" lengthAdjust="spacingAndGlyphs" textLength="25" x="360" y="24.5332">Max</text><rect fill="#FEFECE" filter="url(#fs8ycne9cyom8)" height="31.6094" style="stroke: #A80036; stroke-width: 1.5;" width="89" x="3" y="179.0156"/><text fill="#000000" font-family="sans-serif" font-size="14" lengthAdjust="spacingAndGlyphs" textLength="75" x="10" y="200.5488">Participant1</text><rect fill="#FEFECE" filter="url(#fs8ycne9cyom8)" height="31.6094" style="stroke: #A80036; stroke-width: 1.5;" width="89" x="216" y="179.0156"/><text fill="#000000" font-family="sans-serif" font-size="14" lengthAdjust="spacingAndGlyphs" textLength="75" x="223" y="200.5488">Participant2</text><rect fill="#FEFECE" filter="url(#fs8ycne9cyom8)" height="31.6094" style="stroke: #A80036; stroke-width: 1.5;" width="39" x="353" y="179.0156"/><text fill="#000000" font-family="sans-serif" font-size="14" lengthAdjust="spacingAndGlyphs" textLength="25" x="360" y="200.5488">Max</text><polygon fill="#A80036" points="250.5,65.9609,260.5,69.9609,250.5,73.9609,254.5,69.9609" style="stroke: #A80036; stroke-width: 1.0;"/><line style="stroke: #A80036; stroke-width: 1.0;" x1="49.5" x2="256.5" y1="69.9609" y2="69.9609"/><text fill="#000000" font-family="sans-serif" font-size="13" lengthAdjust="spacingAndGlyphs" textLength="189" x="56.5" y="65.1045">start doing things during duration</text><polygon fill="#A80036" points="362.5,96.3125,372.5,100.3125,362.5,104.3125,366.5,100.3125" style="stroke: #A80036; stroke-width: 1.0;"/><line style="stroke: #A80036; stroke-width: 1.0;" x1="262.5" x2="368.5" y1="100.3125" y2="100.3125"/><text fill="#000000" font-family="sans-serif" font-size="13" lengthAdjust="spacingAndGlyphs" textLength="60" x="269.5" y="95.4561">something</text><polygon fill="#A80036" points="273.5,126.6641,263.5,130.6641,273.5,134.6641,269.5,130.6641" style="stroke: #A80036; stroke-width: 1.0;"/><line style="stroke: #A80036; stroke-width: 1.0;" x1="267.5" x2="373.5" y1="130.6641" y2="130.6641"/><text fill="#000000" font-family="sans-serif" font-size="13" lengthAdjust="spacingAndGlyphs" textLength="88" x="279.5" y="125.8076">something else</text><polygon fill="#A80036" points="60.5,157.0156,50.5,161.0156,60.5,165.0156,56.5,161.0156" style="stroke: #A80036; stroke-width: 1.0;"/><line style="stroke: #A80036; stroke-width: 1.0;" x1="54.5" x2="261.5" y1="161.0156" y2="161.0156"/><text fill="#000000" font-family="sans-serif" font-size="13" lengthAdjust="spacingAndGlyphs" textLength="30" x="66.5" y="156.1592">finish</text><line style="stroke: #A80036; stroke-width: 1.5;" x1="156" x2="156" y1="71.9609" y2="159.0156"/><polygon fill="#A80036" points="152,81.9609,156,71.9609,160,81.9609,156,77.9609" style="stroke: #A80036; stroke-width: 1.0;"/><polygon fill="#A80036" points="152,149.0156,156,159.0156,160,149.0156,156,153.0156" style="stroke: #A80036; stroke-width: 1.0;"/><text fill="#000000" font-family="sans-serif" font-size="13" lengthAdjust="spacingAndGlyphs" textLength="61" x="160" y="120.8076">some time</text><!--
@startuml
!pragma teoz true

{start} Participant1 -> Participant2 : start doing things during duration
Participant2 -> Max : something
Max -> Participant2 : something else
{end} Participant2 -> Participant1 : finish

{start} <-> {end} : some time
@enduml

PlantUML version 1.2019.05(Sat Apr 20 18:45:36 CEST 2019)
(GPL source distribution)
Java Runtime: Java(TM) SE Runtime Environment
JVM: Java HotSpot(TM) 64-Bit Server VM
Java Version: 11.0.8+10-LTS
Operating System: Windows 10
OS Version: 10.0
Default Encoding: windows-1252
Language: es
Country: ES
--></g></svg>