<?xml version="1.0" encoding="UTF-8" standalone="no"?><svg xmlns="http://www.w3.org/2000/svg" xmlns:xlink="http://www.w3.org/1999/xlink" contentScriptType="application/ecmascript" contentStyleType="text/css" height="117px" preserveAspectRatio="none" style="width:497px;height:117px;" version="1.1" viewBox="0 0 497 117" width="497px" zoomAndPan="magnify"><defs><filter height="300%" id="f4j36yo2tw6ag" width="300%" x="-1" y="-1"><feGaussianBlur result="blurOut" stdDeviation="2.0"/><feColorMatrix in="blurOut" result="blurOut2" type="matrix" values="0 0 0 0 0 0 0 0 0 0 0 0 0 0 0 0 0 0 .4 0"/><feOffset dx="4.0" dy="4.0" in="blurOut2" result="blurOut3"/><feBlend in="SourceGraphic" in2="blurOut3" mode="normal"/></filter></defs><g><rect fill="#FEFECE" filter="url(#f4j36yo2tw6ag)" height="39.6719" style="stroke: #A80036; stroke-width: 1.5;" width="83" x="6" y="67"/><text fill="#000000" font-family="sans-serif" font-size="12" lengthAdjust="spacingAndGlyphs" textLength="41" x="27" y="81.457">objeto1</text><line style="stroke: #A80036; stroke-width: 1.5;" x1="7" x2="88" y1="86.0938" y2="86.0938"/><text fill="#000000" font-family="sans-serif" font-size="10" lengthAdjust="spacingAndGlyphs" textLength="71" x="12" y="100.4746">atributo = valor</text><rect fill="#FEFECE" filter="url(#f4j36yo2tw6ag)" height="35.0938" style="stroke: #A80036; stroke-width: 1.5;" width="55" x="431" y="69.5"/><text fill="#000000" font-family="sans-serif" font-size="12" lengthAdjust="spacingAndGlyphs" textLength="41" x="438" y="83.957">objeto2</text><line style="stroke: #A80036; stroke-width: 1.5;" x1="432" x2="485" y1="88.5938" y2="88.5938"/><rect fill="#FEFECE" filter="url(#f4j36yo2tw6ag)" height="35.0938" style="stroke: #A80036; stroke-width: 1.5;" width="55" x="341" y="69.5"/><text fill="#000000" font-family="sans-serif" font-size="12" lengthAdjust="spacingAndGlyphs" textLength="41" x="348" y="83.957">objeto3</text><line style="stroke: #A80036; stroke-width: 1.5;" x1="342" x2="395" y1="88.5938" y2="88.5938"/><rect fill="#FEFECE" filter="url(#f4j36yo2tw6ag)" height="35.0938" style="stroke: #A80036; stroke-width: 1.5;" width="55" x="251" y="69.5"/><text fill="#000000" font-family="sans-serif" font-size="12" lengthAdjust="spacingAndGlyphs" textLength="41" x="258" y="83.957">objeto4</text><line style="stroke: #A80036; stroke-width: 1.5;" x1="252" x2="305" y1="88.5938" y2="88.5938"/><rect fill="#FEFECE" filter="url(#f4j36yo2tw6ag)" height="35.0938" style="stroke: #A80036; stroke-width: 1.5;" width="55" x="161" y="69.5"/><text fill="#000000" font-family="sans-serif" font-size="12" lengthAdjust="spacingAndGlyphs" textLength="41" x="168" y="83.957">objeto5</text><line style="stroke: #A80036; stroke-width: 1.5;" x1="162" x2="215" y1="88.5938" y2="88.5938"/><!--link objeto1 to objeto2--><path d="M102.0791,70.8094 C180.66,48.5624 321.647,12.9155 371,28 C392.497,34.5704 413.486,48.3942 429.517,61.0099 " fill="none" id="objeto1-objeto2" style="stroke: #A80036; stroke-width: 1.0;"/><polygon fill="#A80036" points="439.768,69.4468,435.3609,60.639,435.9074,66.2694,430.277,66.8159,439.768,69.4468" style="stroke: #A80036; stroke-width: 1.0;"/><line style="stroke: #A80036; stroke-width: 1.0;" x1="435.9074" x2="429.7305" y1="66.2694" y2="61.1857"/><polygon fill="#A80036" points="89.0975,74.5235,95.9663,76.7188,100.6346,71.2227,93.7658,69.0274,89.0975,74.5235" style="stroke: #A80036; stroke-width: 1.0;"/><text fill="#000000" font-family="sans-serif" font-size="13" lengthAdjust="spacingAndGlyphs" textLength="29" x="341" y="33.4951">parte</text><!--link objeto1 to objeto3--><path d="M67.3395,56.0074 C76.1784,45.0215 87.6315,33.9239 101,28 C155.107,4.024 271.515,49.5709 323.5,67 C325.185,67.5648 326.892,68.1696 328.608,68.8044 " fill="none" id="objeto1-objeto3" style="stroke: #A80036; stroke-width: 1.0;"/><polygon fill="#A80036" points="340.74,73.681,333.8813,66.6129,336.1008,71.8162,330.8975,74.0357,340.74,73.681" style="stroke: #A80036; stroke-width: 1.0;"/><line style="stroke: #A80036; stroke-width: 1.0;" x1="336.1008" x2="328.678" y1="71.8162" y2="68.8324"/><polygon fill="#FFFFFF" points="59.3979,66.7604,66.18,64.3104,66.527,57.1076,59.7448,59.5576,59.3979,66.7604" style="stroke: #A80036; stroke-width: 1.0;"/><text fill="#000000" font-family="sans-serif" font-size="13" lengthAdjust="spacingAndGlyphs" textLength="53" x="102" y="33.4951">agregado</text><!--link objeto1 to objeto4--><path d="M83.3751,66.8843 C110.487,52.8868 149.125,35.4497 185.5,28 C209.012,23.1847 218.362,16.6339 239.5,28 C253.851,35.7167 263.803,51.287 270.061,64.4952 " fill="none" id="objeto1-objeto4" style="stroke: #A80036; stroke-width: 1.0;"/><polygon fill="#A80036" points="272.201,69.2355,272.1441,59.3868,270.144,64.6782,264.8525,62.6781,272.201,69.2355" style="stroke: #A80036; stroke-width: 1.0;"/><text fill="#000000" font-family="sans-serif" font-size="13" lengthAdjust="spacingAndGlyphs" textLength="52" x="186.5" y="33.4951">asociado</text><!--link objeto1 to objeto5--><path d="M89.042,87 C110.22,87 135.617,87 155.446,87 " fill="none" id="objeto1-objeto5" style="stroke: #A80036; stroke-width: 1.0; stroke-dasharray: 7.0,7.0;"/><polygon fill="#A80036" points="160.622,87,151.622,83,155.622,87,151.622,91,160.622,87" style="stroke: #A80036; stroke-width: 1.0;"/><text fill="#000000" font-family="sans-serif" font-size="13" lengthAdjust="spacingAndGlyphs" textLength="35" x="107.5" y="80.4951">usado</text><!--
@startuml
object objeto1 {
  atributo = valor
}
object objeto2
object objeto3
object objeto4
object objeto5

objeto1 *-right-> objeto2 : parte
objeto1 o-right-> objeto3 : agregado
objeto1 -right-> objeto4 : asociado
objeto1 .right.> objeto5 : usado
@enduml

PlantUML version 1.2019.05(Sat Apr 20 18:45:36 CEST 2019)
(GPL source distribution)
Java Runtime: Java(TM) SE Runtime Environment
JVM: Java HotSpot(TM) 64-Bit Server VM
Java Version: 11.0.8+10-LTS
Operating System: Windows 10
OS Version: 10.0
Default Encoding: windows-1252
Language: es
Country: ES
--></g></svg>