<?xml version="1.0" encoding="UTF-8" standalone="no"?><svg xmlns="http://www.w3.org/2000/svg" xmlns:xlink="http://www.w3.org/1999/xlink" contentScriptType="application/ecmascript" contentStyleType="text/css" height="404px" preserveAspectRatio="none" style="width:236px;height:404px;" version="1.1" viewBox="0 0 236 404" width="236px" zoomAndPan="magnify"><defs><filter height="300%" id="f1s0gxwre2xqq1" width="300%" x="-1" y="-1"><feGaussianBlur result="blurOut" stdDeviation="2.0"/><feColorMatrix in="blurOut" result="blurOut2" type="matrix" values="0 0 0 0 0 0 0 0 0 0 0 0 0 0 0 0 0 0 .4 0"/><feOffset dx="4.0" dy="4.0" in="blurOut2" result="blurOut3"/><feBlend in="SourceGraphic" in2="blurOut3" mode="normal"/></filter></defs><g><rect fill="#87CEFA" height="380.0156" style="stroke: #87CEFA; stroke-width: 1.0;" width="107" x="10" y="12.4551"/><ellipse cx="64" cy="45.0957" fill="#000000" filter="url(#f1s0gxwre2xqq1)" rx="10" ry="10" style="stroke: none; stroke-width: 1.0;"/><rect fill="#FEFECE" filter="url(#f1s0gxwre2xqq1)" height="35.0938" rx="12.5" ry="12.5" style="stroke: #A80036; stroke-width: 1.5;" width="60" x="34" y="90.0957"/><text fill="#000000" font-family="sans-serif" font-size="12" lengthAdjust="spacingAndGlyphs" textLength="40" x="44" y="112.5527">Action1</text><rect fill="#FEFECE" filter="url(#f1s0gxwre2xqq1)" height="35.0938" rx="12.5" ry="12.5" style="stroke: #A80036; stroke-width: 1.5;" width="60" x="34" y="300.377"/><text fill="#000000" font-family="sans-serif" font-size="12" lengthAdjust="spacingAndGlyphs" textLength="40" x="44" y="322.834">Action4</text><ellipse cx="64" cy="381.4707" fill="#FFFFFF" filter="url(#f1s0gxwre2xqq1)" rx="11" ry="11" style="stroke: #000000; stroke-width: 1.0;"/><ellipse cx="64" cy="381.4707" fill="#000000" rx="6" ry="6" style="stroke: #7F7F7F; stroke-width: 1.0;"/><rect fill="#9370D8" height="380.0156" style="stroke: #9370D8; stroke-width: 1.0;" width="107" x="117" y="12.4551"/><rect fill="#FEFECE" filter="url(#f1s0gxwre2xqq1)" height="35.0938" rx="12.5" ry="12.5" style="stroke: #A80036; stroke-width: 1.5;" width="60" x="141" y="160.1895"/><text fill="#000000" font-family="sans-serif" font-size="12" lengthAdjust="spacingAndGlyphs" textLength="40" x="151" y="182.6465">Action2</text><rect fill="#FEFECE" filter="url(#f1s0gxwre2xqq1)" height="35.0938" rx="12.5" ry="12.5" style="stroke: #A80036; stroke-width: 1.5;" width="60" x="141" y="230.2832"/><text fill="#000000" font-family="sans-serif" font-size="12" lengthAdjust="spacingAndGlyphs" textLength="40" x="151" y="252.7402">Action3</text><line style="stroke: #A80036; stroke-width: 1.5;" x1="64" x2="64" y1="55.0957" y2="90.0957"/><polygon fill="#A80036" points="60,80.0957,64,90.0957,68,80.0957,64,84.0957" style="stroke: #A80036; stroke-width: 1.0;"/><line style="stroke: #A80036; stroke-width: 1.5;" x1="64" x2="64" y1="335.4707" y2="370.4707"/><polygon fill="#A80036" points="60,360.4707,64,370.4707,68,360.4707,64,364.4707" style="stroke: #A80036; stroke-width: 1.0;"/><line style="stroke: #A80036; stroke-width: 1.5;" x1="171" x2="171" y1="195.2832" y2="230.2832"/><polygon fill="#A80036" points="167,220.2832,171,230.2832,175,220.2832,171,224.2832" style="stroke: #A80036; stroke-width: 1.0;"/><line style="stroke: #A80036; stroke-width: 1.5;" x1="64" x2="64" y1="125.1895" y2="142.6895"/><line style="stroke: #A80036; stroke-width: 1.5;" x1="64" x2="171" y1="142.6895" y2="142.6895"/><line style="stroke: #A80036; stroke-width: 1.5;" x1="171" x2="171" y1="142.6895" y2="160.1895"/><polygon fill="#A80036" points="167,150.1895,171,160.1895,175,150.1895,171,154.1895" style="stroke: #A80036; stroke-width: 1.0;"/><line style="stroke: #A80036; stroke-width: 1.5;" x1="171" x2="171" y1="265.377" y2="282.877"/><line style="stroke: #A80036; stroke-width: 1.5;" x1="171" x2="64" y1="282.877" y2="282.877"/><line style="stroke: #A80036; stroke-width: 1.5;" x1="64" x2="64" y1="282.877" y2="300.377"/><polygon fill="#A80036" points="60,290.377,64,300.377,68,290.377,64,294.377" style="stroke: #A80036; stroke-width: 1.0;"/><text fill="#000000" font-family="sans-serif" font-size="18" lengthAdjust="spacingAndGlyphs" textLength="87" x="20" y="31.1406">Swimlane1</text><text fill="#000000" font-family="sans-serif" font-size="18" lengthAdjust="spacingAndGlyphs" textLength="87" x="127" y="31.1406">Swimlane2</text><line style="stroke: #000000; stroke-width: 2.0;" x1="10" x2="10" y1="12.4551" y2="392.4707"/><line style="stroke: #000000; stroke-width: 2.0;" x1="117" x2="117" y1="12.4551" y2="392.4707"/><line style="stroke: #000000; stroke-width: 2.0;" x1="224" x2="224" y1="12.4551" y2="392.4707"/><!--
@startuml
|#lightSkyBlue|Swimlane1|
start
:Action1;
|#mediumPurple|Swimlane2|
:Action2;
:Action3;
|Swimlane1|
:Action4;
stop
@enduml

PlantUML version 1.2019.05(Sat Apr 20 18:45:36 CEST 2019)
(GPL source distribution)
Java Runtime: Java(TM) SE Runtime Environment
JVM: Java HotSpot(TM) 64-Bit Server VM
Java Version: 11.0.14+8-LTS-263
Operating System: Windows 10
OS Version: 10.0
Default Encoding: windows-1252
Language: es
Country: ES
--></g></svg>