<?xml version="1.0" encoding="UTF-8" standalone="no"?><svg xmlns="http://www.w3.org/2000/svg" xmlns:xlink="http://www.w3.org/1999/xlink" contentScriptType="application/ecmascript" contentStyleType="text/css" height="92px" preserveAspectRatio="none" style="width:205px;height:92px;" version="1.1" viewBox="0 0 205 92" width="205px" zoomAndPan="magnify"><defs><filter height="300%" id="f13lyau2gjxzkw" width="300%" x="-1" y="-1"><feGaussianBlur result="blurOut" stdDeviation="2.0"/><feColorMatrix in="blurOut" result="blurOut2" type="matrix" values="0 0 0 0 0 0 0 0 0 0 0 0 0 0 0 0 0 0 .4 0"/><feOffset dx="4.0" dy="4.0" in="blurOut2" result="blurOut3"/><feBlend in="SourceGraphic" in2="blurOut3" mode="normal"/></filter></defs><g><path d="M6.3333,8.4896 C5.4167,8.4896 4.59,8.8629 3.99,9.4796 C3.3733,10.0796 3,10.9062 3,11.8229 C3,12.7396 3.3733,13.5662 3.99,14.1662 L9.6667,19.8963 L15.3433,14.1662 C15.96,13.5496 16.3333,12.7396 16.3333,11.8229 C16.3333,10.9062 15.96,10.0796 15.3433,9.4796 C14.7433,8.8629 13.9167,8.4896 13,8.4896 C12.0833,8.4896 11.2567,8.8629 10.6567,9.4796 C10.04,10.0796 9.6667,10.9062 9.6667,11.8229 C9.6667,10.9062 9.2933,10.0796 8.6767,9.4796 C8.0767,8.8629 7.25,8.4896 6.3333,8.4896 " fill="#000000" style="stroke: ; stroke-width: 0.0; stroke-dasharray: ;"/><text fill="#000000" font-family="sans-serif" font-size="20" lengthAdjust="spacingAndGlyphs" textLength="162" x="17.3333" y="20.7617">Use of OpenIconic</text><path d="M183.6667,8.4896 C182.75,8.4896 181.9233,8.8629 181.3233,9.4796 C180.7067,10.0796 180.3333,10.9062 180.3333,11.8229 C180.3333,12.7396 180.7067,13.5662 181.3233,14.1662 L187,19.8963 L192.6767,14.1662 C193.2933,13.5496 193.6667,12.7396 193.6667,11.8229 C193.6667,10.9062 193.2933,10.0796 192.6767,9.4796 C192.0767,8.8629 191.25,8.4896 190.3333,8.4896 C189.4167,8.4896 188.59,8.8629 187.99,9.4796 C187.3733,10.0796 187,10.9062 187,11.8229 C187,10.9062 186.6267,10.0796 186.01,9.4796 C185.41,8.8629 184.5833,8.4896 183.6667,8.4896 " fill="#000000" style="stroke: ; stroke-width: 0.0; stroke-dasharray: ;"/><!--class Wifi--><rect fill="#FEFECE" filter="url(#f13lyau2gjxzkw)" height="48" id="Wifi" style="stroke: #A80036; stroke-width: 1.5;" width="52" x="125.3333" y="33.1563"/><ellipse cx="140.3333" cy="49.1563" fill="#ADD1B2" rx="11" ry="11" style="stroke: #A80036; stroke-width: 1.0;"/><path d="M143.099,45.0313 Q143.2552,44.8125 143.4427,44.7031 Q143.6302,44.5938 143.849,44.5938 Q144.224,44.5938 144.4583,44.8594 Q144.6927,45.1094 144.6927,45.7188 L144.6927,47.1719 Q144.6927,47.7813 144.4583,48.0469 Q144.224,48.3125 143.849,48.3125 Q143.5052,48.3125 143.3021,48.1094 Q143.099,47.9219 142.9896,47.4063 Q142.9427,47.0469 142.7552,46.8594 Q142.4271,46.4844 141.8177,46.2656 Q141.2083,46.0469 140.5833,46.0469 Q139.8177,46.0469 139.1771,46.375 Q138.5521,46.7031 138.0521,47.4531 Q137.5677,48.2031 137.5677,49.2344 L137.5677,50.3281 Q137.5677,51.5625 138.4583,52.3906 Q139.349,53.2031 140.9427,53.2031 Q141.8802,53.2031 142.5365,52.9531 Q142.9271,52.7969 143.349,52.3594 Q143.6146,52.0938 143.7552,52.0156 Q143.9115,51.9375 144.1146,51.9375 Q144.4427,51.9375 144.6927,52.2031 Q144.9583,52.4531 144.9583,52.7969 Q144.9583,53.1406 144.6146,53.5469 Q144.1146,54.125 143.3177,54.4531 Q142.2396,54.9063 140.9427,54.9063 Q139.4271,54.9063 138.224,54.2813 Q137.2396,53.7813 136.5521,52.7188 Q135.8646,51.6406 135.8646,50.3594 L135.8646,49.2031 Q135.8646,47.875 136.474,46.7344 Q137.099,45.5781 138.1927,44.9688 Q139.2865,44.3438 140.5208,44.3438 Q141.2552,44.3438 141.8958,44.5156 Q142.5521,44.6719 143.099,45.0313 Z "/><text fill="#000000" font-family="sans-serif" font-size="12" lengthAdjust="spacingAndGlyphs" textLength="20" x="154.3333" y="54.0664">Wifi</text><line style="stroke: #A80036; stroke-width: 1.5;" x1="126.3333" x2="176.3333" y1="65.1563" y2="65.1563"/><line style="stroke: #A80036; stroke-width: 1.5;" x1="126.3333" x2="176.3333" y1="73.1563" y2="73.1563"/><path d="M6.8333,44.1563 L6.8333,70.5078 A0,0 0 0 0 6.8333,70.5078 L89.5,70.5078 A0,0 0 0 0 89.5,70.5078 L89.5,62.1563 L125.0533,57.1563 L89.5,54.1563 L89.5,54.1563 L79.5,44.1563 L6.8333,44.1563 A0,0 0 0 0 6.8333,44.1563 " fill="#FBFB77" filter="url(#f13lyau2gjxzkw)" style="stroke: #A80036; stroke-width: 1.0;"/><path d="M79.5,44.1563 L79.5,54.1563 L89.5,54.1563 L79.5,44.1563 " fill="#FBFB77" style="stroke: #A80036; stroke-width: 1.0;"/><text fill="#000000" font-family="sans-serif" font-size="13" lengthAdjust="spacingAndGlyphs" textLength="47" x="12.8333" y="62.6514">Click on</text><path d="M68.8958,53.5911 C67.4073,53.5911 66.0142,53.9941 64.8333,54.7427 L65.4086,55.6906 C66.4161,55.0515 67.611,54.6745 68.8958,54.6745 C70.1958,54.6745 71.4124,55.0103 72.4167,55.656 L72.9919,54.7752 C71.8078,54.0136 70.3908,53.5901 68.8958,53.5901 M68.9294,56.8401 C68.0682,56.8401 67.2708,57.086 66.5938,57.5171 L67.169,58.4315 C67.6836,58.1043 68.274,57.9234 68.9294,57.9234 C69.5718,57.9234 70.1536,58.1151 70.6563,58.4315 L71.2315,57.5171 C70.5642,57.0968 69.782,56.8401 68.9294,56.8401 M68.8958,60.0901 C68.2978,60.0901 67.8125,60.5754 67.8125,61.1734 C67.8125,61.7714 68.2978,62.2567 68.8958,62.2567 C69.4938,62.2567 69.9792,61.7714 69.9792,61.1734 C69.9792,60.5754 69.4938,60.0901 68.8958,60.0901 " fill="#000000" style="stroke: ; stroke-width: 0.0; stroke-dasharray: ;"/><!--
@startuml
title: <size:20><&heart>Use of OpenIconic<&heart></size>
class Wifi
note left
Click on <&wifi>
end note
@enduml

PlantUML version 1.2019.05(Sat Apr 20 18:45:36 CEST 2019)
(GPL source distribution)
Java Runtime: Java(TM) SE Runtime Environment
JVM: Java HotSpot(TM) 64-Bit Server VM
Java Version: 11.0.14+8-LTS-263
Operating System: Windows 10
OS Version: 10.0
Default Encoding: windows-1252
Language: es
Country: ES
--></g></svg>