<?xml version="1.0" encoding="UTF-8" standalone="no"?><svg xmlns="http://www.w3.org/2000/svg" xmlns:xlink="http://www.w3.org/1999/xlink" contentScriptType="application/ecmascript" contentStyleType="text/css" height="179px" preserveAspectRatio="none" style="width:211px;height:179px;" version="1.1" viewBox="0 0 211 179" width="211px" zoomAndPan="magnify"><defs><filter height="300%" id="f1qjbli3cfy3cw" width="300%" x="-1" y="-1"><feGaussianBlur result="blurOut" stdDeviation="2.0"/><feColorMatrix in="blurOut" result="blurOut2" type="matrix" values="0 0 0 0 0 0 0 0 0 0 0 0 0 0 0 0 0 0 .4 0"/><feOffset dx="4.0" dy="4.0" in="blurOut2" result="blurOut3"/><feBlend in="SourceGraphic" in2="blurOut3" mode="normal"/></filter></defs><g><ellipse cx="16" cy="143" fill="#000000" filter="url(#f1qjbli3cfy3cw)" rx="10" ry="10" style="stroke: none; stroke-width: 1.0;"/><rect fill="#FEFECE" filter="url(#f1qjbli3cfy3cw)" height="50" rx="12.5" ry="12.5" style="stroke: #A80036; stroke-width: 1.5;" width="50" x="22" y="8"/><line style="stroke: #A80036; stroke-width: 1.5;" x1="22" x2="72" y1="35.6094" y2="35.6094"/><text fill="#000000" font-family="sans-serif" font-size="14" lengthAdjust="spacingAndGlyphs" textLength="28" x="33" y="27.5332">First</text><rect fill="#FEFECE" filter="url(#f1qjbli3cfy3cw)" height="50" rx="12.5" ry="12.5" style="stroke: #A80036; stroke-width: 1.5;" width="68" x="123" y="8"/><line style="stroke: #A80036; stroke-width: 1.5;" x1="123" x2="191" y1="35.6094" y2="35.6094"/><text fill="#000000" font-family="sans-serif" font-size="14" lengthAdjust="spacingAndGlyphs" textLength="48" x="133" y="27.5332">Second</text><rect fill="#FEFECE" filter="url(#f1qjbli3cfy3cw)" height="50" rx="12.5" ry="12.5" style="stroke: #A80036; stroke-width: 1.5;" width="53" x="146.5" y="118"/><line style="stroke: #A80036; stroke-width: 1.5;" x1="146.5" x2="199.5" y1="145.6094" y2="145.6094"/><text fill="#000000" font-family="sans-serif" font-size="14" lengthAdjust="spacingAndGlyphs" textLength="33" x="156.5" y="137.5332">Third</text><rect fill="#FEFECE" filter="url(#f1qjbli3cfy3cw)" height="50" rx="12.5" ry="12.5" style="stroke: #A80036; stroke-width: 1.5;" width="50" x="61" y="118"/><line style="stroke: #A80036; stroke-width: 1.5;" x1="61" x2="111" y1="145.6094" y2="145.6094"/><text fill="#000000" font-family="sans-serif" font-size="14" lengthAdjust="spacingAndGlyphs" textLength="27" x="72.5" y="137.5332">Last</text><!--link First to *start--><path d="M38.64,63.11 C31.92,86.55 22.89,118 18.54,133.14 " fill="none" id="First-*start" style="stroke: #A80036; stroke-width: 1.0;"/><polygon fill="#A80036" points="40.04,58.24,33.7066,65.7824,38.657,63.0449,41.3945,67.9953,40.04,58.24" style="stroke: #A80036; stroke-width: 1.0;"/><!--link First to Second--><path d="M72.35,33 C87.5,33 102.65,33 117.8,33 " fill="none" id="First-Second" style="stroke: #A80036; stroke-width: 1.0;"/><polygon fill="#A80036" points="122.94,33,113.94,29,117.94,33,113.94,37,122.94,33" style="stroke: #A80036; stroke-width: 1.0;"/><!--link Second to Third--><path d="M160.59,58.24 C162.98,74.36 166.13,95.62 168.66,112.69 " fill="none" id="Second-Third" style="stroke: #A80036; stroke-width: 1.0;"/><polygon fill="#A80036" points="169.42,117.84,172.0648,108.3529,168.6909,112.8934,164.1503,109.5195,169.42,117.84" style="stroke: #A80036; stroke-width: 1.0;"/><!--link Last to Third--><path d="M116.38,143 C126.4,143 136.41,143 146.42,143 " fill="none" id="Last-Third" style="stroke: #A80036; stroke-width: 1.0;"/><polygon fill="#A80036" points="111.15,143,120.15,147,116.15,143,120.15,139,111.15,143" style="stroke: #A80036; stroke-width: 1.0;"/><!--
@startuml
[*] -up-> First
First -right-> Second
Second -down-> Third
Third -left-> Last
@enduml

PlantUML version 1.2019.05(Sat Apr 20 18:45:36 CEST 2019)
(GPL source distribution)
Java Runtime: Java(TM) SE Runtime Environment
JVM: Java HotSpot(TM) 64-Bit Server VM
Java Version: 11.0.14+8-LTS-263
Operating System: Windows 10
OS Version: 10.0
Default Encoding: windows-1252
Language: es
Country: ES
--></g></svg>