<?xml version="1.0" encoding="UTF-8" standalone="no"?><svg xmlns="http://www.w3.org/2000/svg" xmlns:xlink="http://www.w3.org/1999/xlink" contentScriptType="application/ecmascript" contentStyleType="text/css" height="347px" preserveAspectRatio="none" style="width:432px;height:347px;" version="1.1" viewBox="0 0 432 347" width="432px" zoomAndPan="magnify"><defs><filter height="300%" id="fnam6xie77sh6" width="300%" x="-1" y="-1"><feGaussianBlur result="blurOut" stdDeviation="2.0"/><feColorMatrix in="blurOut" result="blurOut2" type="matrix" values="0 0 0 0 0 0 0 0 0 0 0 0 0 0 0 0 0 0 .4 0"/><feOffset dx="4.0" dy="4.0" in="blurOut2" result="blurOut3"/><feBlend in="SourceGraphic" in2="blurOut3" mode="normal"/></filter></defs><g><line style="stroke: #A80036; stroke-width: 1.0; stroke-dasharray: 5.0,5.0;" x1="27" x2="27" y1="87.6094" y2="259.3672"/><line style="stroke: #A80036; stroke-width: 1.0; stroke-dasharray: 5.0,5.0;" x1="104" x2="104" y1="87.6094" y2="259.3672"/><line style="stroke: #A80036; stroke-width: 1.0; stroke-dasharray: 5.0,5.0;" x1="243.5" x2="243.5" y1="87.6094" y2="259.3672"/><line style="stroke: #A80036; stroke-width: 1.0; stroke-dasharray: 5.0,5.0;" x1="382" x2="382" y1="87.6094" y2="259.3672"/><text fill="#000000" font-family="sans-serif" font-size="14" lengthAdjust="spacingAndGlyphs" textLength="33" x="8" y="84.5332">Actor</text><ellipse cx="27.5" cy="13" fill="#9370D8" filter="url(#fnam6xie77sh6)" rx="8" ry="8" style="stroke: #A80036; stroke-width: 2.0;"/><path d="M27.5,21 L27.5,48 M14.5,29 L40.5,29 M27.5,48 L14.5,63 M27.5,48 L40.5,63 " fill="none" filter="url(#fnam6xie77sh6)" style="stroke: #A80036; stroke-width: 2.0;"/><text fill="#000000" font-family="sans-serif" font-size="14" lengthAdjust="spacingAndGlyphs" textLength="33" x="8" y="272.9004">Actor</text><ellipse cx="27.5" cy="285.9766" fill="#9370D8" filter="url(#fnam6xie77sh6)" rx="8" ry="8" style="stroke: #A80036; stroke-width: 2.0;"/><path d="M27.5,293.9766 L27.5,320.9766 M14.5,301.9766 L40.5,301.9766 M27.5,320.9766 L14.5,335.9766 M27.5,320.9766 L40.5,335.9766 " fill="none" filter="url(#fnam6xie77sh6)" style="stroke: #A80036; stroke-width: 2.0;"/><text fill="#000000" font-family="sans-serif" font-size="14" lengthAdjust="spacingAndGlyphs" textLength="61" x="71" y="84.5332">Boundary</text><path d="M84,42 L84,66 M84,54 L101,54 " fill="none" filter="url(#fnam6xie77sh6)" style="stroke: #A80036; stroke-width: 2.0;"/><ellipse cx="113" cy="54" fill="#FF69B4" filter="url(#fnam6xie77sh6)" rx="12" ry="12" style="stroke: #A80036; stroke-width: 2.0;"/><text fill="#000000" font-family="sans-serif" font-size="14" lengthAdjust="spacingAndGlyphs" textLength="61" x="71" y="272.9004">Boundary</text><path d="M84,279.9766 L84,303.9766 M84,291.9766 L101,291.9766 " fill="none" filter="url(#fnam6xie77sh6)" style="stroke: #A80036; stroke-width: 2.0;"/><ellipse cx="113" cy="291.9766" fill="#FF69B4" filter="url(#fnam6xie77sh6)" rx="12" ry="12" style="stroke: #A80036; stroke-width: 2.0;"/><text fill="#000000" font-family="sans-serif" font-size="14" lengthAdjust="spacingAndGlyphs" textLength="46" x="217.5" y="84.5332">Control</text><ellipse cx="243.5" cy="54" fill="#B8860B" filter="url(#fnam6xie77sh6)" rx="12" ry="12" style="stroke: #A80036; stroke-width: 2.0;"/><polygon fill="#A80036" points="239.5,42,245.5,37,243.5,42,245.5,47,239.5,42" style="stroke: #A80036; stroke-width: 1.0;"/><text fill="#000000" font-family="sans-serif" font-size="14" lengthAdjust="spacingAndGlyphs" textLength="46" x="217.5" y="272.9004">Control</text><ellipse cx="243.5" cy="291.9766" fill="#B8860B" filter="url(#fnam6xie77sh6)" rx="12" ry="12" style="stroke: #A80036; stroke-width: 2.0;"/><polygon fill="#A80036" points="239.5,279.9766,245.5,274.9766,243.5,279.9766,245.5,284.9766,239.5,279.9766" style="stroke: #A80036; stroke-width: 1.0;"/><rect fill="#87CEFA" filter="url(#fnam6xie77sh6)" height="31.6094" style="stroke: #A80036; stroke-width: 1.5;" width="81" x="340" y="51"/><text fill="#000000" font-family="sans-serif" font-size="14" lengthAdjust="spacingAndGlyphs" textLength="67" x="347" y="72.5332">Participant</text><rect fill="#87CEFA" filter="url(#fnam6xie77sh6)" height="31.6094" style="stroke: #A80036; stroke-width: 1.5;" width="81" x="340" y="258.3672"/><text fill="#000000" font-family="sans-serif" font-size="14" lengthAdjust="spacingAndGlyphs" textLength="67" x="347" y="279.9004">Participant</text><polygon fill="#A80036" points="92.5,115.9609,102.5,119.9609,92.5,123.9609,96.5,119.9609" style="stroke: #A80036; stroke-width: 1.0;"/><line style="stroke: #A80036; stroke-width: 1.0;" x1="27.5" x2="98.5" y1="119.9609" y2="119.9609"/><text fill="#000000" font-family="sans-serif" font-size="13" lengthAdjust="spacingAndGlyphs" textLength="53" x="34.5" y="115.1045">Message</text><polygon fill="#A80036" points="231.5,146.3125,241.5,150.3125,231.5,154.3125,235.5,150.3125" style="stroke: #A80036; stroke-width: 1.0;"/><line style="stroke: #A80036; stroke-width: 1.0;" x1="104.5" x2="237.5" y1="150.3125" y2="150.3125"/><text fill="#000000" font-family="sans-serif" font-size="13" lengthAdjust="spacingAndGlyphs" textLength="53" x="111.5" y="145.4561">Message</text><polygon fill="#A80036" points="370.5,176.6641,380.5,180.6641,370.5,184.6641,374.5,180.6641" style="stroke: #A80036; stroke-width: 1.0;"/><line style="stroke: #A80036; stroke-width: 1.0;" x1="243.5" x2="376.5" y1="180.6641" y2="180.6641"/><text fill="#000000" font-family="sans-serif" font-size="13" lengthAdjust="spacingAndGlyphs" textLength="53" x="250.5" y="175.8076">Message</text><polygon fill="#B8860B" points="254.5,207.0156,244.5,211.0156,254.5,215.0156,250.5,211.0156" style="stroke: #B8860B; stroke-width: 1.0;"/><line style="stroke: #B8860B; stroke-width: 1.0; stroke-dasharray: 2.0,2.0;" x1="248.5" x2="381.5" y1="211.0156" y2="211.0156"/><text fill="#000000" font-family="sans-serif" font-size="13" lengthAdjust="spacingAndGlyphs" textLength="115" x="260.5" y="206.1592">Response message</text><polygon fill="#B8860B" points="115.5,237.3672,105.5,241.3672,115.5,245.3672,111.5,241.3672" style="stroke: #B8860B; stroke-width: 1.0;"/><line style="stroke: #B8860B; stroke-width: 1.0; stroke-dasharray: 2.0,2.0;" x1="109.5" x2="242.5" y1="241.3672" y2="241.3672"/><text fill="#000000" font-family="sans-serif" font-size="13" lengthAdjust="spacingAndGlyphs" textLength="115" x="121.5" y="236.5107">Response message</text><!--
@startuml
actor Actor #mediumPurple
boundary Boundary #hotPink
control Control #darkGoldenRod
participant "Participant" as L #lightskyblue

Actor -> Boundary : Message
Boundary -> Control : Message
Control -> L : Message
    L -[#darkGoldenRod]-> Control : Response message
Control -[#darkGoldenRod]-> Boundary : Response message
@enduml

PlantUML version 1.2019.05(Sat Apr 20 18:45:36 CEST 2019)
(GPL source distribution)
Java Runtime: Java(TM) SE Runtime Environment
JVM: Java HotSpot(TM) 64-Bit Server VM
Java Version: 11.0.14+8-LTS-263
Operating System: Windows 10
OS Version: 10.0
Default Encoding: windows-1252
Language: es
Country: ES
--></g></svg>