<?xml version="1.0" encoding="UTF-8" standalone="no"?><svg xmlns="http://www.w3.org/2000/svg" xmlns:xlink="http://www.w3.org/1999/xlink" contentScriptType="application/ecmascript" contentStyleType="text/css" height="682px" preserveAspectRatio="none" style="width:583px;height:682px;background:#222222;" version="1.1" viewBox="0 0 583 682" width="583px" zoomAndPan="magnify"><defs/><g><polygon fill="#222222" points="156.5,2,156.5,2.2102,166.3214,1.5857,176.1429,2.1933,185.9643,2.3997,195.7857,1.2866,205.6071,1.9223,215.4286,1.5735,225.25,1.6165,235.0714,1.9318,244.8929,1.3086,254.7143,2.5536,264.5357,1.3697,274.3571,1.8022,284.1786,2.4319,294,1.9142,303.8214,2.0682,313.6429,1.9681,323.4643,2.1785,333.2857,2.2391,343.1071,2.5857,352.9286,2.6711,362.75,2.6793,372.5714,2.2546,382.3929,2.4636,392.2143,2.7022,402.0357,1.2788,411.8571,2.6785,421.6786,1.7035,431.5,2,432.0338,2,431.005,12.7469,431.4315,23.4938,432.2416,34.2406,431.4513,44.9875,431.5,55.7344,431.5,55.8397,421.6786,56.073,411.8571,56.1506,402.0357,55.7305,392.2143,56.0216,382.3929,55.162,372.5714,56.0188,362.75,56.2826,352.9286,56.1789,343.1071,56.3474,333.2857,55.2513,323.4643,55.0822,313.6429,55.113,303.8214,55.6755,294,55.5378,284.1786,56.4158,274.3571,55.5597,264.5357,55.3913,254.7143,55.9626,244.8929,55.0675,235.0714,55.2152,225.25,56.3833,215.4286,56.17,205.6071,56.4689,195.7857,55.4126,185.9643,56.0536,176.1429,56.3248,166.3214,55.262,156.5,55.7344,156.4041,55.7344,156.626,44.9875,157.1518,34.2406,156.4958,23.4938,156.9626,12.7469,156.5,2" style="stroke: #222222; stroke-width: 1.5;"/><text fill="#FFA500" font-family="sans-serif" font-size="30" font-weight="bold" lengthAdjust="spacingAndGlyphs" textLength="253" x="167.5" y="41.1426">Sintaxis: Extremo</text><polygon fill="#222222" points="278.5,247.7344,278.5,247.9446,288.5,247.3201,298.5,247.9277,308.5,248.1341,318.5,247.021,328.5,247.6567,338.5,247.3079,348.5,247.3509,358.5,247.6662,368.5,247.043,378.5,247.7344,378.5706,247.9049,380.1874,248.2725,382.0103,249.1379,383.8584,250.0641,385.5601,250.6369,387.3388,251.3955,387.3598,251.4042,388.0612,253.1592,388.8583,254.9538,389.6092,256.7293,390.4481,258.5413,391,260.2344,391.2237,260.2344,391.2264,263.4656,391.0849,266.6969,391.1545,269.9281,391.2341,273.1594,391,276.3906,390.7779,276.2986,390.4767,278.2449,389.4442,279.8883,388.9677,281.762,387.9186,283.3985,387.3388,285.2295,387.3301,285.2084,385.6657,286.1901,383.7971,286.6789,382.049,287.4586,380.311,288.2627,378.5,288.8906,378.5,289.3069,368.5,288.8867,358.5,289.1778,348.5,288.3182,338.5,289.175,328.5,289.4388,318.5,289.3352,308.5,289.5036,298.5,288.4075,288.5,288.2384,278.5,288.8906,278.4207,288.6993,276.7247,288.1403,274.9394,287.3656,273.2836,286.9038,271.4067,285.9079,269.6612,285.2295,269.5555,285.1857,268.9992,283.4908,267.9913,281.6089,267.3046,279.8599,266.9321,278.2412,266,276.3906,266.1452,276.3906,266.2448,273.1594,265.8927,269.9281,266.1064,266.6969,266.1968,263.4656,266,260.2344,265.8545,260.1741,266.7027,258.4544,267.5033,256.7149,268.3974,255.0142,268.9276,253.1628,269.6612,251.3955,269.7202,251.538,271.3583,250.4928,273.1103,249.7225,275.0287,249.3539,276.6408,248.2458,278.5,247.7344" style="stroke: #FFFFFF; stroke-width: 1.5;"/><text fill="#FFFFFF" font-family="sans-serif" font-size="20" font-weight="bold" lengthAdjust="spacingAndGlyphs" textLength="109" x="274" y="276.4961">clasificador</text><polygon fill="#222222" points="242.5,449.7344,242.5,449.9446,252.5,449.3201,262.5,449.9277,272.5,450.1341,282.5,449.021,292.5,449.6567,302.5,449.3079,312.5,449.3509,322.5,449.6662,332.5,449.043,342.5,449.7344,342.5706,449.9049,344.1874,450.2725,346.0103,451.1379,347.8584,452.0641,349.5601,452.6369,351.3388,453.3955,351.3598,453.4042,352.0612,455.1592,352.8583,456.9538,353.6092,458.7293,354.4481,460.5413,355,462.2344,355.2237,462.2344,355.2264,465.4656,355.0849,468.6969,355.1545,471.9281,355.2341,475.1594,355,478.3906,354.7779,478.2986,354.4767,480.2449,353.4442,481.8883,352.9677,483.762,351.9186,485.3985,351.3388,487.2295,351.3301,487.2084,349.6657,488.1901,347.7971,488.6789,346.049,489.4586,344.311,490.2627,342.5,490.8906,342.5,491.3069,332.5,490.8867,322.5,491.1778,312.5,490.3182,302.5,491.175,292.5,491.4388,282.5,491.3352,272.5,491.5036,262.5,490.4075,252.5,490.2384,242.5,490.8906,242.4207,490.6993,240.7247,490.1403,238.9394,489.3656,237.2836,488.9038,235.4067,487.9079,233.6612,487.2295,233.5555,487.1857,232.9992,485.4908,231.9913,483.6089,231.3046,481.8599,230.9321,480.2412,230,478.3906,230.1452,478.3906,230.2448,475.1594,229.8927,471.9281,230.1064,468.6969,230.1968,465.4656,230,462.2344,229.8545,462.1741,230.7027,460.4544,231.5033,458.7149,232.3974,457.0142,232.9276,455.1628,233.6612,453.3955,233.7202,453.538,235.3583,452.4928,237.1103,451.7225,239.0287,451.3539,240.6408,450.2458,242.5,449.7344" style="stroke: #FFFFFF; stroke-width: 1.5;"/><text fill="#FFFFFF" font-family="sans-serif" font-size="20" font-weight="bold" lengthAdjust="spacingAndGlyphs" textLength="109" x="238" y="478.4961">clasificador</text><polygon fill="#222222" points="18.5,146.7344,18.5,146.9446,28.5,146.3201,38.5,146.9277,48.5,147.1341,58.5,146.021,68.5,146.6567,78.5,146.3079,88.5,146.3509,98.5,146.6662,108.5,146.043,118.5,146.7344,118.5706,146.9049,120.1874,147.2725,122.0103,148.1379,123.8584,149.0641,125.5601,149.6369,127.3388,150.3955,127.3598,150.4042,128.0612,152.1592,128.8583,153.9538,129.6092,155.7293,130.4481,157.5413,131,159.2344,131.2237,159.2344,131.2264,162.4656,131.0849,165.6969,131.1545,168.9281,131.2341,172.1594,131,175.3906,130.7779,175.2986,130.4767,177.2449,129.4442,178.8883,128.9677,180.762,127.9186,182.3985,127.3388,184.2295,127.3301,184.2084,125.6657,185.1901,123.7971,185.6789,122.049,186.4586,120.311,187.2627,118.5,187.8906,118.5,188.3069,108.5,187.8867,98.5,188.1778,88.5,187.3182,78.5,188.175,68.5,188.4388,58.5,188.3352,48.5,188.5036,38.5,187.4075,28.5,187.2384,18.5,187.8906,18.4207,187.6993,16.7247,187.1403,14.9394,186.3656,13.2836,185.9038,11.4067,184.9079,9.6612,184.2295,9.5555,184.1857,8.9992,182.4908,7.9913,180.6089,7.3046,178.8599,6.9321,177.2412,6,175.3906,6.1452,175.3906,6.2448,172.1594,5.8927,168.9281,6.1064,165.6969,6.1968,162.4656,6,159.2344,5.8545,159.1741,6.7027,157.4544,7.5033,155.7149,8.3974,154.0142,8.9276,152.1628,9.6612,150.3955,9.7202,150.538,11.3583,149.4928,13.1103,148.7225,15.0287,148.3539,16.6408,147.2458,18.5,146.7344" style="stroke: #FFFFFF; stroke-width: 1.5;"/><text fill="#FFFFFF" font-family="sans-serif" font-size="20" font-weight="bold" lengthAdjust="spacingAndGlyphs" textLength="109" x="14" y="175.4961">clasificador</text><path d="M166,146.7344 L166,163.2344 L131.254,167.2344 L166,171.2344 L166,187.8906 A0,0 0 0 0 166,187.8906 L311,187.8906 A0,0 0 0 0 311,187.8906 L311,156.7344 L301,146.7344 L166,146.7344 A0,0 0 0 0 166,146.7344 " fill="#222222" style="stroke: #FFFFFF; stroke-width: 1.0;"/><path d="M301,146.7344 L301.1868,146.7344 L300.6317,148.7344 L301.1718,150.7344 L301.3553,152.7344 L300.3659,154.7344 L301,156.7344 L301,156.6653 L303,156.3553 L305,156.3935 L307,156.6738 L309,156.1198 L311,156.7344 L311.348,157.0824 L308.6038,154.3382 L306.8757,152.6101 L305.2715,151.0059 L302.9461,148.6805 L301,146.7344 " fill="#222222" style="stroke: #FFFFFF; stroke-width: 1.0;"/><text fill="#FFFF00" font-family="sans-serif" font-size="20" font-weight="bold" lengthAdjust="spacingAndGlyphs" textLength="118" x="175" y="175.4961">identificador</text><polygon fill="#222222" points="359,146.7344,359,146.8044,366,146.5963,373,146.7988,380,146.8676,387,146.4966,394,146.7344,393.9901,146.7104,395.7134,147.3353,397.4866,148.0807,399.2946,148.9101,400.9829,149.4504,402.8388,150.3955,403.0093,150.4662,403.377,152.0829,404.2424,153.9058,405.1686,155.7539,405.7414,157.4557,406.5,159.2344,406.5227,159.2344,406.4894,162.4656,406.5595,165.6969,406.5797,168.9281,406.6952,172.1594,406.5,175.3906,406.7067,175.4762,405.977,177.245,405.1139,178.9586,404.4461,180.7531,403.7873,182.5513,402.8388,184.2295,402.7468,184.0074,401.1576,185.1706,399.2655,185.6026,397.6036,186.5906,395.7046,187.0059,394,187.8906,394,187.8678,387,188.1378,380,187.8744,373,187.9257,366,188.0035,359,187.8906,359.0531,188.0188,357.2317,187.1572,355.5011,186.5146,353.6237,185.5176,351.9652,185.0493,350.1612,184.2295,350.33,184.2994,349.5658,182.5184,348.8855,180.7721,347.8157,178.8645,347.0314,177.0752,346.5,175.3906,346.2929,175.3906,346.4804,172.1594,346.4345,168.9281,346.7271,165.6969,346.4418,162.4656,346.5,159.2344,346.3944,159.1906,347.3025,157.4957,347.7591,155.6138,348.5368,153.8649,349.6288,152.2461,350.1612,150.3955,350.2167,150.5297,352.0226,149.8895,353.6557,148.832,355.5052,148.2971,357.3075,147.6484,359,146.7344" style="stroke: #FFFFFF; stroke-width: 1.5;"/><text fill="#FFFFFF" font-family="sans-serif" font-size="20" font-weight="bold" lengthAdjust="spacingAndGlyphs" textLength="44" x="354.5" y="175.4961">abrir</text><path d="M441.5,146.7344 L441.5,163.2344 L406.609,167.2344 L441.5,171.2344 L441.5,187.8906 A0,0 0 0 0 441.5,187.8906 L475.5,187.8906 A0,0 0 0 0 475.5,187.8906 L475.5,156.7344 L465.5,146.7344 L441.5,146.7344 A0,0 0 0 0 441.5,146.7344 " fill="#222222" style="stroke: #FFFFFF; stroke-width: 1.0;"/><path d="M465.5,146.7344 L465.6868,146.7344 L465.1317,148.7344 L465.6718,150.7344 L465.8553,152.7344 L464.8659,154.7344 L465.5,156.7344 L465.5,156.6653 L467.5,156.3553 L469.5,156.3935 L471.5,156.6738 L473.5,156.1198 L475.5,156.7344 L475.848,157.0824 L473.1038,154.3382 L471.3757,152.6101 L469.7715,151.0059 L467.4461,148.6805 L465.5,146.7344 " fill="#222222" style="stroke: #FFFFFF; stroke-width: 1.0;"/><text fill="#00FFFF" font-family="sans-serif" font-size="20" font-weight="bold" lengthAdjust="spacingAndGlyphs" textLength="7" x="450.5" y="175.4961">(</text><path d="M426,247.7344 L426,264.2344 L391.254,268.2344 L426,272.2344 L426,288.8906 A0,0 0 0 0 426,288.8906 L571,288.8906 A0,0 0 0 0 571,288.8906 L571,257.7344 L561,247.7344 L426,247.7344 A0,0 0 0 0 426,247.7344 " fill="#222222" style="stroke: #FFFFFF; stroke-width: 1.0;"/><path d="M561,247.7344 L561.1868,247.7344 L560.6317,249.7344 L561.1718,251.7344 L561.3553,253.7344 L560.3659,255.7344 L561,257.7344 L561,257.6653 L563,257.3553 L565,257.3935 L567,257.6738 L569,257.1198 L571,257.7344 L571.348,258.0824 L568.6038,255.3382 L566.8757,253.6101 L565.2715,252.0059 L562.9461,249.6805 L561,247.7344 " fill="#222222" style="stroke: #FFFFFF; stroke-width: 1.0;"/><text fill="#FFFF00" font-family="sans-serif" font-size="20" font-weight="bold" lengthAdjust="spacingAndGlyphs" textLength="118" x="435" y="276.4961">identificador</text><polygon fill="#222222" points="295.5,348.7344,295.5,348.8044,303.9,348.5963,312.3,348.7988,320.7,348.8676,329.1,348.4966,337.5,348.7344,337.4901,348.7104,339.2134,349.3353,340.9866,350.0807,342.7946,350.9101,344.4829,351.4504,346.3388,352.3955,346.5093,352.4662,346.877,354.0829,347.7424,355.9058,348.6686,357.7539,349.2414,359.4557,350,361.2344,350.0227,361.2344,349.9894,364.4656,350.0595,367.6969,350.0797,370.9281,350.1952,374.1594,350,377.3906,350.2067,377.4762,349.477,379.245,348.6139,380.9586,347.9461,382.7531,347.2873,384.5513,346.3388,386.2295,346.2468,386.0074,344.6576,387.1706,342.7655,387.6026,341.1036,388.5906,339.2046,389.0059,337.5,389.8906,337.5,389.8678,329.1,390.1378,320.7,389.8744,312.3,389.9257,303.9,390.0035,295.5,389.8906,295.5531,390.0188,293.7317,389.1572,292.0011,388.5146,290.1237,387.5176,288.4652,387.0493,286.6612,386.2295,286.83,386.2994,286.0658,384.5184,285.3855,382.7721,284.3157,380.8645,283.5314,379.0752,283,377.3906,282.7929,377.3906,282.9804,374.1594,282.9345,370.9281,283.2271,367.6969,282.9418,364.4656,283,361.2344,282.8944,361.1906,283.8025,359.4957,284.2591,357.6138,285.0368,355.8649,286.1288,354.2461,286.6612,352.3955,286.7167,352.5297,288.5226,351.8895,290.1557,350.832,292.0052,350.2971,293.8075,349.6484,295.5,348.7344" style="stroke: #FFFFFF; stroke-width: 1.5;"/><text fill="#FFFFFF" font-family="sans-serif" font-size="20" font-weight="bold" lengthAdjust="spacingAndGlyphs" textLength="51" x="291" y="377.4961">coma</text><path d="M385,348.7344 L385,365.2344 L350.035,369.2344 L385,373.2344 L385,389.8906 A0,0 0 0 0 385,389.8906 L418,389.8906 A0,0 0 0 0 418,389.8906 L418,358.7344 L408,348.7344 L385,348.7344 A0,0 0 0 0 385,348.7344 " fill="#222222" style="stroke: #FFFFFF; stroke-width: 1.0;"/><path d="M408,348.7344 L408.1868,348.7344 L407.6317,350.7344 L408.1718,352.7344 L408.3553,354.7344 L407.3659,356.7344 L408,358.7344 L408,358.6653 L410,358.3553 L412,358.3935 L414,358.6738 L416,358.1198 L418,358.7344 L418.348,359.0824 L415.6038,356.3382 L413.8757,354.6101 L412.2715,353.0059 L409.9461,350.6805 L408,348.7344 " fill="#222222" style="stroke: #FFFFFF; stroke-width: 1.0;"/><text fill="#00FFFF" font-family="sans-serif" font-size="20" font-weight="bold" lengthAdjust="spacingAndGlyphs" textLength="6" x="394" y="377.4961">,</text><path d="M390,449.7344 L390,466.2344 L355.254,470.2344 L390,474.2344 L390,490.8906 A0,0 0 0 0 390,490.8906 L535,490.8906 A0,0 0 0 0 535,490.8906 L535,459.7344 L525,449.7344 L390,449.7344 A0,0 0 0 0 390,449.7344 " fill="#222222" style="stroke: #FFFFFF; stroke-width: 1.0;"/><path d="M525,449.7344 L525.1868,449.7344 L524.6317,451.7344 L525.1718,453.7344 L525.3553,455.7344 L524.3659,457.7344 L525,459.7344 L525,459.6653 L527,459.3553 L529,459.3935 L531,459.6738 L533,459.1198 L535,459.7344 L535.348,460.0824 L532.6038,457.3382 L530.8757,455.6101 L529.2715,454.0059 L526.9461,451.6805 L525,449.7344 " fill="#222222" style="stroke: #FFFFFF; stroke-width: 1.0;"/><text fill="#FFFF00" font-family="sans-serif" font-size="20" font-weight="bold" lengthAdjust="spacingAndGlyphs" textLength="118" x="399" y="478.4961">identificador</text><polygon fill="#222222" points="249.5,550.7344,249.5,550.9446,259.1,550.3201,268.7,550.9277,278.3,551.1341,287.9,550.021,297.5,550.7344,297.4901,550.7104,299.2134,551.3353,300.9866,552.0807,302.7946,552.9101,304.4829,553.4504,306.3388,554.3955,306.5093,554.4662,306.877,556.0829,307.7424,557.9058,308.6686,559.7539,309.2414,561.4557,310,563.2344,310.0227,563.2344,309.9894,566.4656,310.0595,569.6969,310.0797,572.9281,310.1952,576.1594,310,579.3906,310.2067,579.4762,309.477,581.245,308.6139,582.9586,307.9461,584.7531,307.2873,586.5513,306.3388,588.2295,306.2468,588.0074,304.6576,589.1706,302.7655,589.6026,301.1036,590.5906,299.2046,591.0059,297.5,591.8906,297.5,591.8221,287.9,592.6322,278.3,591.8419,268.7,591.9959,259.1,592.2293,249.5,591.8906,249.5531,592.0188,247.7317,591.1572,246.0011,590.5146,244.1237,589.5176,242.4652,589.0493,240.6612,588.2295,240.83,588.2994,240.0658,586.5184,239.3855,584.7721,238.3157,582.8645,237.5314,581.0752,237,579.3906,236.7929,579.3906,236.9804,576.1594,236.9345,572.9281,237.2271,569.6969,236.9418,566.4656,237,563.2344,236.8944,563.1906,237.8025,561.4957,238.2591,559.6138,239.0368,557.8649,240.1288,556.2461,240.6612,554.3955,240.7167,554.5297,242.5226,553.8895,244.1557,552.832,246.0052,552.2971,247.8075,551.6484,249.5,550.7344" style="stroke: #FFFFFF; stroke-width: 1.5;"/><text fill="#FFFFFF" font-family="sans-serif" font-size="20" font-weight="bold" lengthAdjust="spacingAndGlyphs" textLength="57" x="245" y="579.4961">cerrar</text><path d="M345.5,550.7344 L345.5,567.2344 L310.004,571.2344 L345.5,575.2344 L345.5,591.8906 A0,0 0 0 0 345.5,591.8906 L379.5,591.8906 A0,0 0 0 0 379.5,591.8906 L379.5,560.7344 L369.5,550.7344 L345.5,550.7344 A0,0 0 0 0 345.5,550.7344 " fill="#222222" style="stroke: #FFFFFF; stroke-width: 1.0;"/><path d="M369.5,550.7344 L369.6868,550.7344 L369.1317,552.7344 L369.6718,554.7344 L369.8553,556.7344 L368.8659,558.7344 L369.5,560.7344 L369.5,560.6653 L371.5,560.3553 L373.5,560.3935 L375.5,560.6738 L377.5,560.1198 L379.5,560.7344 L379.848,561.0824 L377.1038,558.3382 L375.3757,556.6101 L373.7715,555.0059 L371.4461,552.6805 L369.5,550.7344 " fill="#222222" style="stroke: #FFFFFF; stroke-width: 1.0;"/><text fill="#00FFFF" font-family="sans-serif" font-size="20" font-weight="bold" lengthAdjust="spacingAndGlyphs" textLength="7" x="354.5" y="579.4961">)</text><polygon fill="#FFFFFF" points="232.5552,79.1668,231.0894,81.1696,229.3556,84.1032,226.876,86.0802,224.2703,87.1613,222.1927,87.2551,219.5224,85.9031,217.0029,85.0198,215.0905,83.2264,214.0873,81.1733,213.4924,79.5385,212.9096,77.4032,211.9636,75.5657,212.6906,73.7717,213.3275,71.8064,215.7175,70.2521,217.3991,68.2354,219.4804,67.5657,221.9547,66.989,225.1276,67.3316,226.8655,68.1512,228.8861,68.5227,231.3429,71.0398,232.1993,73.6971,232.5714,75.5101,232.15,78.4979" style="stroke: none; stroke-width: 1.0;"/><polygon fill="none" points="228.5552,664.1668,227.0894,666.1696,225.3556,669.1032,222.876,671.0802,220.2703,672.1613,218.1927,672.2551,215.5224,670.9031,213.0029,670.0198,211.0905,668.2264,210.0873,666.1733,209.4924,664.5385,208.9096,662.4032,207.9636,660.5657,208.6906,658.7717,209.3275,656.8064,211.7175,655.2521,213.3991,653.2354,215.4804,652.5657,217.9547,651.989,221.1276,652.3316,222.8655,653.1512,224.8861,653.5227,227.3429,656.0398,228.1993,658.6971,228.5714,660.5101,228.15,663.4979" style="stroke: #FFFFFF; stroke-width: 1.0;"/><polygon fill="#FFFFFF" points="225.0331,663.6938,224.1536,664.8955,223.1134,666.6557,221.6256,667.8419,220.0622,668.4905,218.8156,668.5468,217.2135,667.7356,215.7017,667.2056,214.5543,666.1296,213.9524,664.8977,213.5955,663.9168,213.2458,662.6357,212.6782,661.5332,213.1143,660.4567,213.4965,659.2776,214.9305,658.345,215.9394,657.135,217.1882,656.7332,218.6728,656.3871,220.5766,656.5927,221.6193,657.0845,222.8317,657.3074,224.3057,658.8176,224.8196,660.412,225.0429,661.4998,224.79,663.2925" style="stroke: none; stroke-width: 1.0;"/><!--link *start to clasificador--><path d="M214.22,82.4924 L214.3596,82.7354 L205.0322,87.1352 L196.5232,92.9595 L187.7478,98.3199 L178.0957,102.155 L169.6055,108.0117 L160.4612,112.7303 L151.5771,117.9019 L142.8741,123.3883 L133.5474,127.7896 L125.462,134.3507 L115.7629,138.1039 L107.269,143.9544 " fill="none" style="stroke: #FFFFFF; stroke-width: 1.0;"/><polygon fill="#FFFFFF" points="102.5045,146.6924,102.5117,146.7621,104.4494,146.3514,106.4296,146.3493,108.3959,146.2141,110.3168,145.6414,112.3006,145.6744,112.2939,145.6494,111.1713,145.2423,110.0827,144.9613,109.0178,144.768,107.8714,144.2726,106.8392,144.2003,107.0174,144.2484,106.9312,143.0533,107.3652,141.9985,107.8626,140.961,107.9908,139.8237,108.3133,138.7389,108.3316,138.7523,107.1429,140.3233,106.0378,141.9554,104.8924,143.558,103.8239,145.2168,102.5045,146.6924" style="stroke: #FFFFFF; stroke-width: 1.0;"/><!--link clasificador to *end--><path d="M85.2219,187.7454 L85.2958,187.8026 L87.337,190.5513 L89.8112,193.6354 L92.1444,196.6102 L94.014,199.226 L96.5254,202.3388 L96.4974,202.3185 L97.6175,203.9359 L98.8782,205.6558 L100.2367,207.447 L101.2582,208.9926 L102.7518,210.8822 L102.9538,211.0227 L103.814,212.5811 L105.264,214.5496 L106.786,216.5681 L107.8893,218.2955 L109.2128,220.1761 L109.2381,220.1928 L110.5178,222.165 L111.9128,224.2133 L113.2521,226.2249 L114.6975,228.3065 L115.7971,230.16 L116.0504,230.3174 L117.3727,232.442 L118.5316,234.4651 L119.9297,236.6368 L121.339,238.8155 L122.3932,240.7734 L122.116,240.6124 L123.9533,243.1614 L124.8779,245.1803 L126.4963,247.6022 L127.4002,249.609 L128.8897,251.956 L128.8629,251.9416 L130.4372,254.4503 L131.3849,256.6222 L132.7023,258.9929 L134.0508,261.3803 L135.1754,263.6473 L135.3414,263.7288 L136.3665,266.0744 L137.6753,268.5593 L138.525,270.8187 L140.0594,273.4145 L141.1387,275.7867 L141.3615,275.8851 L142.4253,278.3719 L143.5997,280.9076 L144.26,283.2163 L145.2971,285.6914 L146.6682,288.3139 L146.4107,288.2141 L147.6407,290.8753 L148.5806,293.4241 L149.9413,296.1361 L150.5834,298.5694 L151.6527,301.1684 L151.5079,301.1206 L152.6147,303.8244 L153.1025,306.3241 L154.0304,308.9689 L155.389,311.7558 L155.9807,314.2897 L156.1678,314.3397 L157.0081,317.0395 L157.2666,319.5839 L158.2538,322.323 L159.0823,325.0196 L159.5408,327.6175 L159.3349,327.5765 L160.0352,330.3039 L160.6681,333.0178 L161.4334,335.7582 L161.6837,338.396 L162.2217,341.0911 L162.4257,341.1165 L162.3155,343.7725 L162.599,346.4775 L163.4579,349.2543 L163.2576,351.899 L163.9118,354.6502 L164.1378,354.66 L164.1212,357.371 L164.0281,360.0787 L164.1077,362.7939 L164.5861,365.5264 L164.5,368.2344 L164.1009,368.2344 L165.2891,378.5344 L163.763,388.8344 L165.3232,399.1344 L165.1457,409.4344 L164.8266,419.7344 L164.563,430.0344 L165.4688,440.3344 L165.3181,450.6344 L164.7257,460.9344 L164.5,471.2344 L164.6191,471.2378 L164.5172,473.8215 L164.9684,476.4211 L164.7939,479.0027 L164.8768,481.5917 L164.8752,484.1782 L164.6057,484.1561 L164.9106,486.7771 L165.5402,489.4249 L165.7104,492.0349 L165.716,494.6313 L165.95,497.2465 L165.808,497.2281 L166.1933,499.8562 L166.3271,502.4517 L167.1521,505.1368 L167.635,507.7775 L167.6487,510.3575 L167.8793,510.3971 L168.4025,513.0242 L168.4875,515.576 L169.0349,518.2072 L169.2763,520.7858 L169.8954,523.4294 L170.0189,523.4553 L170.5464,526.0422 L171.2231,528.6603 L171.4267,531.1792 L172.0118,533.7781 L172.614,536.3806 L172.8055,536.4274 L173.4819,538.9902 L173.6386,541.426 L174.3992,544.0094 L175.1703,546.5953 L175.7288,549.1293 L175.4671,549.0572 L176.5672,551.664 L177.2133,554.1456 L177.7466,556.5962 L178.5377,559.1178 L179.1638,561.5939 L179.4736,561.6881 L179.7666,563.9732 L180.7695,566.4741 L181.4929,568.8901 L182.1565,571.2878 L182.8431,573.6926 L182.9026,573.7122 L183.6606,576.0386 L184.1188,578.266 L184.9826,580.6274 L185.7266,582.9492 L186.6909,585.3437 L186.7176,585.3532 L187.5159,587.5811 L188.3348,589.8164 L188.9332,591.9736 L189.8149,594.2311 L190.6312,596.4655 L190.5812,596.4467 L191.6625,598.658 L192.3914,600.7366 L192.8034,602.6959 L193.7664,604.8627 L194.5881,606.9763 L194.3497,606.8816 L195.4868,608.9872 L196.3986,611.0033 L197.1517,612.9564 L197.5264,614.7593 L198.4858,616.7943 L198.6756,616.8749 L199.6447,620.1115 L201.4933,623.7215 L202.7518,627.0809 L204.3766,630.5959 L205.7998,634.0253 L205.897,634.0698 L207.2239,636.8085 L207.9753,639.284 L209.6917,642.201 L210.8048,644.8419 L211.966,647.5049 " fill="none" style="stroke: #FFFFFF; stroke-width: 1.0;"/><polygon fill="#FFFFFF" points="214.263,652.2919,214.333,652.2939,214.0677,650.3189,214.2129,648.3559,214.2244,646.3889,213.7963,644.4092,213.9767,642.4472,213.9523,642.4386,213.4674,643.4673,213.1056,644.5394,212.8295,645.6416,212.2582,646.64,212.1004,647.7838,212.1616,647.9579,210.9634,647.2103,209.9439,646.971,208.9462,646.7938,207.8216,646.2557,206.7638,645.9074,206.7785,645.9247,208.2567,647.1762,209.802,648.5065,211.315,649.7988,212.8897,651.1636,214.263,652.2919" style="stroke: #FFFFFF; stroke-width: 1.0;"/><!--link *start to abrir--><path d="M230.78,82.4924 L230.9196,82.7354 L239.0288,86.912 L247.9566,92.5131 L256.6178,97.6503 L264.4024,101.2621 L273.3488,106.8956 L281.6411,111.391 L290.1938,116.3393 L298.9273,121.6025 L307.0374,125.7807 L316.3886,132.1186 L324.1261,135.6485 L332.9375,141.0471 L341.593,146.1744 " fill="none" style="stroke: #FFFFFF; stroke-width: 1.0;"/><polygon fill="#FFFFFF" points="346.356,148.9114,346.4126,148.9527,345.0824,147.2394,344.0838,145.7685,342.9773,144.2186,341.5156,142.4093,340.5455,140.9591,340.5205,140.9524,340.7033,142.0143,341.0122,143.1102,341.4087,144.2299,341.5032,145.2679,342.0208,146.4202,342.0689,146.5984,340.8738,146.5125,339.8191,146.9467,338.7817,147.4444,337.6444,147.5728,336.5597,147.8955,336.562,147.9181,338.5178,148.0881,340.4843,148.361,342.4457,148.5843,344.4169,148.9024,346.356,148.9114" style="stroke: #FFFFFF; stroke-width: 1.0;"/><!--link abrir to clasificador1--><path d="M367.017,187.7934 L367.2692,187.9156 L362.0523,196.7667 L358.3136,206.3345 L354.0935,215.6689 L348.2904,224.2357 L344.5854,233.8198 L340.211,243.0794 " fill="none" style="stroke: #FFFFFF; stroke-width: 1.0;"/><polygon fill="#FFFFFF" points="337.964,247.7154,338.0092,247.7689,339.38,246.3391,341.0157,245.2231,342.5651,244.0049,343.8308,242.4507,345.4893,241.3616,345.4808,241.3371,344.3738,241.5982,343.3097,241.9827,342.2753,242.4529,341.1383,242.6275,340.1451,243.2162,340.3194,243.2767,339.5757,242.0784,339.341,241.0569,339.1684,240.0568,338.6344,238.9314,338.2905,237.8719,338.3132,237.8727,338.2146,239.8403,338.2194,241.8113,338.1743,243.7806,338.2244,245.7532,337.964,247.7154" style="stroke: #FFFFFF; stroke-width: 1.0;"/><!--link clasificador1 to coma--><path d="M326.129,288.7934 L326.4072,288.8271 L324.4726,297.8686 L324.1688,307.1077 L323.334,316.2825 L320.7527,325.2456 L320.4861,334.4892 L319.481,343.6434 " fill="none" style="stroke: #FFFFFF; stroke-width: 1.0;"/><polygon fill="#FFFFFF" points="318.866,348.7154,318.9261,348.7513,319.7581,346.9538,320.9427,345.367,322.0124,343.7116,322.7046,341.8305,323.9194,340.2618,323.9034,340.2414,322.9413,340.8479,322.0597,341.5571,321.2342,342.3378,320.2156,342.8723,319.4674,343.7517,319.6126,343.8655,318.604,342.7316,318.0195,341.9302,317.4867,341.1693,316.653,340.1724,315.9775,339.2996,315.9992,339.3063,316.545,341.1796,317.1898,343.0834,317.7868,344.9725,318.4749,346.8895,318.866,348.7154" style="stroke: #FFFFFF; stroke-width: 1.0;"/><!--link coma to clasificador2--><path d="M311.758,389.7934 L312.0304,389.8594 L309.0051,398.8049 L307.5765,408.1374 L305.6279,417.3439 L301.9696,426.136 L300.5773,435.4773 L298.462,444.6434 " fill="none" style="stroke: #FFFFFF; stroke-width: 1.0;"/><polygon fill="#FFFFFF" points="297.232,449.7154,297.2875,449.7581,298.3238,448.0701,299.6856,446.6325,300.9413,445.1133,301.8485,443.326,303.2382,441.9099,303.2247,441.8878,302.1983,442.3777,301.24,442.9792,300.3289,443.6581,299.2548,444.07,298.409,444.8559,298.5666,444.952,297.6405,443.7806,297.1744,442.8899,296.7644,442.0333,296.0278,440.9776,295.463,440.0267,295.4854,440.0308,295.8064,441.9625,296.2292,443.9128,296.6028,445.8542,297.0703,447.8127,297.232,449.7154" style="stroke: #FFFFFF; stroke-width: 1.0;"/><!--link clasificador2 to cerrar--><path d="M288.746,490.7934 L289.0212,490.8462 L286.4491,499.8309 L285.4904,509.1253 L284.0064,518.3188 L280.7945,527.1808 L279.8726,536.4822 L278.22,545.6434 " fill="none" style="stroke: #FFFFFF; stroke-width: 1.0;"/><polygon fill="#FFFFFF" points="277.246,550.7154,277.3035,550.7554,278.2577,549.0197,279.5491,547.5185,280.7306,545.941,281.5512,544.1122,282.8715,542.6312,282.8569,542.6097,281.8552,543.1483,280.9267,543.7949,280.0492,544.5167,278.9961,544.9795,278.1889,545.8051,278.3417,545.9086,277.3802,544.7507,276.8648,543.8951,276.4038,543.0763,275.6261,542.043,275.015,541.1225,275.0372,541.1277,275.4508,543.0387,275.9654,544.9731,276.4312,546.8963,276.99,548.841,277.246,550.7154" style="stroke: #FFFFFF; stroke-width: 1.0;"/><!--link cerrar to *end--><path d="M261.294,591.8754 L261.532,592.0233 L255.8224,599.6331 L251.508,608.1101 L246.7393,616.3047 L240.4764,623.5706 L236.1939,632.0673 L230.7964,639.8712 L226.277,648.2207 " fill="none" style="stroke: #FFFFFF; stroke-width: 1.0;"/><polygon fill="#FFFFFF" points="223.435,652.793,223.4744,652.8509,224.987,651.5721,226.7303,650.6331,228.3985,649.5834,229.8196,648.1699,231.5828,647.26,231.5769,647.2348,230.4487,647.3788,229.3502,647.65,228.2724,648.0096,227.1234,648.0645,226.0741,648.5462,226.2538,648.5881,225.6122,647.3967,225.4954,646.3277,225.4426,645.2737,225.0173,644.1327,224.7879,643.0375,224.8104,643.0406,224.5068,644.9871,224.3057,646.9479,224.0551,648.9017,223.899,650.8687,223.435,652.793" style="stroke: #FFFFFF; stroke-width: 1.0;"/><!--
@startuml
skinparam titleBorderColor #222222
skinparam titleBackgroundColor #222222
skinparam titlefontColor #orange
skinparam titleFontStyle bold
skinparam titleFontSize 30

skinparam handwritten true
skinparam shadowing false
skinparam backgroundColor #222222
skinparam padding 3
skinparam StateStartColor #white
skinparam StateEndColor #white

skinparam note {
    backgroundColor #222222
    fontStyle bold
    borderColor #white
    FontColor #yellow
     fontSize 20
}

skinparam state {
    fontColor #white
    fontStyle bold
    arrowColor #white
    backgroundColor #222222
    borderColor #white
    circleCharacterFontName #white
    fontSize 20
}

hide empty description

title Sintaxis: Extremo

state clasificador1 as "clasificador"
state clasificador2 as "clasificador"

note right of clasificador: identificador
note right of abrir: <color:cyan>(</color>
note right of clasificador1: identificador
note right of coma: <color:cyan>,</color>
note right of clasificador2: identificador
note right of cerrar: <color:cyan>)</color>

[*] -down-> clasificador
clasificador -down-> [*]
[*] -down-> abrir
abrir -down-> clasificador1
clasificador1 -down-> coma
coma -down-> clasificador2
clasificador2 -down-> cerrar
cerrar -down-> [*]

@enduml

PlantUML version 1.2019.05(Sat Apr 20 18:45:36 CEST 2019)
(GPL source distribution)
Java Runtime: Java(TM) SE Runtime Environment
JVM: Java HotSpot(TM) 64-Bit Server VM
Java Version: 11.0.8+10-LTS
Operating System: Windows 10
OS Version: 10.0
Default Encoding: windows-1252
Language: es
Country: ES
--></g></svg>