<?xml version="1.0" encoding="UTF-8" standalone="no"?><svg xmlns="http://www.w3.org/2000/svg" xmlns:xlink="http://www.w3.org/1999/xlink" contentScriptType="application/ecmascript" contentStyleType="text/css" height="1108px" preserveAspectRatio="none" style="width:844px;height:1108px;background:#222222;" version="1.1" viewBox="0 0 844 1108" width="844px" zoomAndPan="magnify"><defs/><g><polygon fill="#222222" points="272.5,2,272.5,2.2102,282.5385,1.5857,292.5769,2.1933,302.6154,2.3997,312.6538,1.2866,322.6923,1.9223,332.7308,1.5735,342.7692,1.6165,352.8077,1.9318,362.8462,1.3086,372.8846,2.5536,382.9231,1.3697,392.9615,1.8022,403,2.4319,413.0385,1.9142,423.0769,2.0682,433.1154,1.9681,443.1538,2.1785,453.1923,2.2391,463.2308,2.5857,473.2692,2.6711,483.3077,2.6793,493.3462,2.2546,503.3846,2.4636,513.4231,2.7022,523.4615,1.2788,533.5,2,534.1785,2,533.2035,12.7469,534.0338,23.4938,533.005,34.2406,533.4315,44.9875,533.5,55.7344,533.5,56.476,523.4615,55.6856,513.4231,55.8397,503.3846,56.073,493.3462,56.1506,483.3077,55.7305,473.2692,56.0216,463.2308,55.162,453.1923,56.0188,443.1538,56.2826,433.1154,56.1789,423.0769,56.3474,413.0385,55.2513,403,55.0822,392.9615,55.113,382.9231,55.6755,372.8846,55.5378,362.8462,56.4158,352.8077,55.5597,342.7692,55.3913,332.7308,55.9626,322.6923,55.0675,312.6538,55.2152,302.6154,56.3833,292.5769,56.17,282.5385,56.4689,272.5,55.7344,272.1782,55.7344,272.8192,44.9875,273.0904,34.2406,272.0276,23.4938,272.4041,12.7469,272.5,2" style="stroke: #222222; stroke-width: 1.5;"/><text fill="#FFA500" font-family="sans-serif" font-size="30" font-weight="bold" lengthAdjust="spacingAndGlyphs" textLength="239" x="283.5" y="41.1426">Sintaxis: Metodo</text><polygon fill="#222222" points="393.5,853.7344,393.5,853.9446,402.8333,853.3201,412.1667,853.9277,421.5,854.1341,430.8333,853.021,440.1667,853.6567,449.5,853.7344,449.4456,853.603,451.2188,854.3485,453.0268,855.1779,454.7151,855.7182,456.6417,856.8338,458.3388,857.3955,458.1447,857.3151,459.0102,859.1381,459.9363,860.9862,460.5091,862.6879,461.2888,864.4753,462,866.2344,461.9894,866.2344,462.0595,869.4656,462.0797,872.6969,462.1952,875.9281,462.2237,879.1594,462,882.3906,462.2092,882.4773,461.3462,884.1909,460.6783,885.9853,460.0196,887.7835,458.849,889.3697,458.3388,891.2295,458.4254,891.4384,456.5332,891.8704,454.8714,892.8583,452.9724,893.2737,451.259,894.1373,449.5,894.8906,449.5,895.6322,440.1667,894.8419,430.8333,894.9959,421.5,895.2293,412.1667,895.3069,402.8333,894.8867,393.5,894.8906,393.5366,894.9791,391.6592,893.9821,390.0007,893.5137,388.2666,892.8627,386.4856,892.0986,384.6612,891.2295,384.85,891.3077,383.7802,889.4001,382.9959,887.6107,382.2731,885.8469,381.7141,884.1509,381,882.3906,380.9345,882.3906,381.2271,879.1594,380.9418,875.9281,380.8856,872.6969,381.0761,869.4656,381,866.2344,380.7946,866.1493,381.5724,864.4004,382.6643,862.7816,383.3309,860.9866,384.1551,859.257,384.6612,857.3955,384.6201,857.2964,386.4696,856.7616,388.272,856.1129,389.9042,855.0534,391.72,854.4371,393.5,853.7344" style="stroke: #FFFFFF; stroke-width: 1.5;"/><text fill="#00FFFF" font-family="sans-serif" font-size="20" font-weight="bold" lengthAdjust="spacingAndGlyphs" textLength="65" x="389" y="882.4961">throws</text><polygon fill="#222222" points="392,146.7344,392,146.9446,401.4444,146.3201,410.8889,146.9277,420.3333,147.1341,429.7778,146.021,439.2222,146.6567,448.6667,146.3079,458.1111,146.3509,467.5556,146.6662,477,146.7344,476.9118,146.5215,478.8384,147.6371,480.4551,148.0047,482.2781,148.8702,484.1262,149.7963,485.8388,150.3955,485.8124,150.3846,486.5921,152.172,487.2935,153.927,488.0905,155.7216,488.8414,157.4971,489.5,159.2344,489.6952,159.2344,489.7237,162.4656,489.7264,165.6969,489.5849,168.9281,489.6545,172.1594,489.5,175.3906,489.7163,175.4802,488.5457,177.0664,488.2445,179.0127,487.212,180.6561,486.7355,182.5298,485.8388,184.2295,485.7757,184.077,484.0623,184.9406,482.3979,185.9223,480.5293,186.4112,478.7812,187.1908,477,187.8906,477,188.2293,467.5556,188.3069,458.1111,187.8867,448.6667,188.1778,439.2222,187.3182,429.7778,188.175,420.3333,188.4388,410.8889,188.3352,401.4444,188.5036,392,187.8906,391.9384,187.7419,390.149,186.9575,388.3852,186.2348,386.6892,185.6758,384.9039,184.9012,383.1612,184.2295,383.371,184.3164,382.3751,182.4394,381.5911,180.6502,381.0348,178.9553,380.0269,177.0733,379.5,175.3906,379.327,175.3906,379.7163,172.1594,379.6452,168.9281,379.7448,165.6969,379.3927,162.4656,379.5,159.2344,379.5983,159.2751,380.4141,157.5419,380.819,155.6386,381.6672,153.9188,382.4677,152.1794,383.1612,150.3955,383.2443,150.5963,384.9284,149.662,386.7557,149.0735,388.3938,148.0283,390.1458,147.258,392,146.7344" style="stroke: #FFFFFF; stroke-width: 1.5;"/><text fill="#FFA500" font-family="sans-serif" font-size="20" font-weight="bold" lengthAdjust="spacingAndGlyphs" textLength="94" x="387.5" y="175.4961">visibilidad</text><polygon fill="#222222" points="400.5,1055.7344,400.5,1055.8044,408.9,1055.5963,417.3,1055.7988,425.7,1055.8676,434.1,1055.4966,442.5,1055.7344,442.4901,1055.7104,444.2134,1056.3353,445.9866,1057.0807,447.7946,1057.9101,449.4829,1058.4504,451.3388,1059.3955,451.5093,1059.4662,451.877,1061.0829,452.7424,1062.9058,453.6686,1064.7539,454.2414,1066.4557,455,1068.2344,455.0227,1068.2344,454.9894,1071.4656,455.0595,1074.6969,455.0797,1077.9281,455.1952,1081.1594,455,1084.3906,455.2067,1084.4762,454.477,1086.245,453.6139,1087.9586,452.9461,1089.7531,452.2873,1091.5513,451.3388,1093.2295,451.2468,1093.0074,449.6576,1094.1706,447.7655,1094.6026,446.1036,1095.5906,444.2046,1096.0059,442.5,1096.8906,442.5,1096.8678,434.1,1097.1378,425.7,1096.8744,417.3,1096.9257,408.9,1097.0035,400.5,1096.8906,400.5531,1097.0188,398.7317,1096.1572,397.0011,1095.5146,395.1237,1094.5176,393.4652,1094.0493,391.6612,1093.2295,391.83,1093.2994,391.0658,1091.5184,390.3855,1089.7721,389.3157,1087.8645,388.5314,1086.0752,388,1084.3906,387.7929,1084.3906,387.9804,1081.1594,387.9345,1077.9281,388.2271,1074.6969,387.9418,1071.4656,388,1068.2344,387.8944,1068.1906,388.8025,1066.4957,389.2591,1064.6138,390.0368,1062.8649,391.1288,1061.2461,391.6612,1059.3955,391.7167,1059.5297,393.5226,1058.8895,395.1557,1057.832,397.0052,1057.2971,398.8075,1056.6484,400.5,1055.7344" style="stroke: #FFFFFF; stroke-width: 1.5;"/><text fill="#FFFFFF" font-family="sans-serif" font-size="20" font-weight="bold" lengthAdjust="spacingAndGlyphs" textLength="51" x="396" y="1084.4961">coma</text><polygon fill="#222222" points="349.5,247.7344,349.5,247.9446,359.8333,247.3201,370.1667,247.9277,380.5,248.1341,390.8333,247.021,401.1667,247.6567,411.5,247.7344,411.4456,247.603,413.2188,248.3485,415.0268,249.1779,416.7151,249.7182,418.6417,250.8338,420.3388,251.3955,420.1447,251.3151,421.0102,253.1381,421.9363,254.9862,422.5091,256.6879,423.2888,258.4753,424,260.2344,423.9894,260.2344,424.0595,263.4656,424.0797,266.6969,424.1952,269.9281,424.2237,273.1594,424,276.3906,424.2092,276.4773,423.3462,278.1909,422.6783,279.9853,422.0196,281.7835,420.849,283.3697,420.3388,285.2295,420.4254,285.4384,418.5332,285.8704,416.8714,286.8583,414.9724,287.2737,413.259,288.1373,411.5,288.8906,411.5,289.6322,401.1667,288.8419,390.8333,288.9959,380.5,289.2293,370.1667,289.3069,359.8333,288.8867,349.5,288.8906,349.5366,288.9791,347.6592,287.9821,346.0007,287.5137,344.2666,286.8627,342.4856,286.0986,340.6612,285.2295,340.85,285.3077,339.7802,283.4001,338.9959,281.6107,338.2731,279.8469,337.7141,278.1509,337,276.3906,336.9345,276.3906,337.2271,273.1594,336.9418,269.9281,336.8856,266.6969,337.0761,263.4656,337,260.2344,336.7946,260.1493,337.5724,258.4004,338.6643,256.7816,339.3309,254.9866,340.1551,253.257,340.6612,251.3955,340.6201,251.2964,342.4696,250.7616,344.272,250.1129,345.9042,249.0534,347.72,248.4371,349.5,247.7344" style="stroke: #FFFFFF; stroke-width: 1.5;"/><text fill="#FFFFFF" font-family="sans-serif" font-size="20" font-weight="bold" lengthAdjust="spacingAndGlyphs" textLength="71" x="345" y="276.4961">metodo</text><path d="M459,247.7344 L459,264.2344 L424.148,268.2344 L459,272.2344 L459,288.8906 A0,0 0 0 0 459,288.8906 L604,288.8906 A0,0 0 0 0 604,288.8906 L604,257.7344 L594,247.7344 L459,247.7344 A0,0 0 0 0 459,247.7344 " fill="#222222" style="stroke: #FFFFFF; stroke-width: 1.0;"/><path d="M594,247.7344 L594.1868,247.7344 L593.6317,249.7344 L594.1718,251.7344 L594.3553,253.7344 L593.3659,255.7344 L594,257.7344 L594,257.6653 L596,257.3553 L598,257.3935 L600,257.6738 L602,257.1198 L604,257.7344 L604.348,258.0824 L601.6038,255.3382 L599.8757,253.6101 L598.2715,252.0059 L595.9461,249.6805 L594,247.7344 " fill="#222222" style="stroke: #FFFFFF; stroke-width: 1.0;"/><text fill="#FFFF00" font-family="sans-serif" font-size="20" font-weight="bold" lengthAdjust="spacingAndGlyphs" textLength="118" x="468" y="276.4961">identificador</text><polygon fill="#222222" points="308.5,348.7344,308.5,348.9446,318.7857,348.3201,329.0714,348.9277,339.3571,349.1341,349.6429,348.021,359.9286,348.6567,370.2143,348.3079,380.5,348.3509,390.7857,348.6662,401.0714,348.043,411.3571,349.288,421.6429,348.1041,431.9286,348.5366,442.2143,349.1663,452.5,348.7344,452.4891,348.708,454.2765,349.4876,456.0315,350.189,457.8261,350.9861,459.6016,351.737,461.3388,352.3955,461.5192,352.4703,462.2777,354.2489,463.0125,356.0177,463.6139,357.7313,464.4105,359.5257,465,361.2344,465.2341,361.2344,464.7596,364.4656,465.2262,367.6969,464.9012,370.9281,465.1779,374.1594,465,377.3906,464.8476,377.3275,464.2467,379.1497,463.7639,381.0208,462.7883,382.6877,462.1035,384.4751,461.3388,386.2295,461.382,386.3337,459.6242,387.0899,457.8028,387.6927,456.0722,388.5146,454.1947,388.9821,452.5,389.8906,452.5,390.175,442.2143,390.4388,431.9286,390.3352,421.6429,390.5036,411.3571,389.4075,401.0714,389.2384,390.7857,389.2692,380.5,389.8317,370.2143,389.6941,359.9286,390.572,349.6429,389.7159,339.3571,389.5476,329.0714,390.1189,318.7857,389.2238,308.5,389.8906,308.4338,389.7308,306.815,389.3582,305.02,388.5603,303.2904,387.9201,301.3879,386.8626,299.6612,386.2295,299.7595,386.2702,299.1108,384.537,298.0512,382.6337,297.4349,380.9139,296.771,379.1745,296,377.3906,296.2173,377.3906,295.9986,374.1594,296.1542,370.9281,295.8154,367.6969,295.7742,364.4656,296,361.2344,296.1551,361.2986,296.5114,359.3752,297.6212,357.7638,298.2603,355.9574,298.8464,354.1291,299.6612,352.3955,299.616,352.2866,301.4875,351.8046,303.1585,350.8389,305.04,350.3811,306.6617,349.2964,308.5,348.7344" style="stroke: #FFFFFF; stroke-width: 1.5;"/><text fill="#FFFFFF" font-family="sans-serif" font-size="20" font-weight="bold" lengthAdjust="spacingAndGlyphs" textLength="153" x="304" y="377.4961">abrirParametros</text><path d="M500.5,348.7344 L500.5,365.2344 L465.055,369.2344 L500.5,373.2344 L500.5,389.8906 A0,0 0 0 0 500.5,389.8906 L534.5,389.8906 A0,0 0 0 0 534.5,389.8906 L534.5,358.7344 L524.5,348.7344 L500.5,348.7344 A0,0 0 0 0 500.5,348.7344 " fill="#222222" style="stroke: #FFFFFF; stroke-width: 1.0;"/><path d="M524.5,348.7344 L524.6868,348.7344 L524.1317,350.7344 L524.6718,352.7344 L524.8553,354.7344 L523.8659,356.7344 L524.5,358.7344 L524.5,358.6653 L526.5,358.3553 L528.5,358.3935 L530.5,358.6738 L532.5,358.1198 L534.5,358.7344 L534.848,359.0824 L532.1038,356.3382 L530.3757,354.6101 L528.7715,353.0059 L526.4461,350.6805 L524.5,348.7344 " fill="#222222" style="stroke: #FFFFFF; stroke-width: 1.0;"/><text fill="#00FFFF" font-family="sans-serif" font-size="20" font-weight="bold" lengthAdjust="spacingAndGlyphs" textLength="7" x="509.5" y="377.4961">(</text><polygon fill="#222222" points="140.5,449.7344,140.5,449.9446,150.2778,449.3201,160.0556,449.9277,169.8333,450.1341,179.6111,449.021,189.3889,449.6567,199.1667,449.3079,208.9444,449.3509,218.7222,449.6662,228.5,449.7344,228.4118,449.5215,230.3384,450.6371,231.9551,451.0047,233.7781,451.8702,235.6262,452.7963,237.3388,453.3955,237.3124,453.3846,238.0921,455.172,238.7935,456.927,239.5905,458.7216,240.3414,460.4971,241,462.2344,241.1952,462.2344,241.2237,465.4656,241.2264,468.6969,241.0849,471.9281,241.1545,475.1594,241,478.3906,241.2163,478.4802,240.0457,480.0664,239.7445,482.0127,238.712,483.6561,238.2355,485.5298,237.3388,487.2295,237.2757,487.077,235.5623,487.9406,233.8979,488.9223,232.0293,489.4112,230.2812,490.1908,228.5,490.8906,228.5,491.2293,218.7222,491.3069,208.9444,490.8867,199.1667,491.1778,189.3889,490.3182,179.6111,491.175,169.8333,491.4388,160.0556,491.3352,150.2778,491.5036,140.5,490.8906,140.4384,490.7419,138.649,489.9575,136.8852,489.2348,135.1892,488.6758,133.4039,487.9012,131.6612,487.2295,131.871,487.3164,130.8751,485.4394,130.0911,483.6502,129.5348,481.9553,128.5269,480.0733,128,478.3906,127.827,478.3906,128.2163,475.1594,128.1452,471.9281,128.2448,468.6969,127.8927,465.4656,128,462.2344,128.0983,462.2751,128.9141,460.5419,129.319,458.6386,130.1672,456.9188,130.9677,455.1794,131.6612,453.3955,131.7443,453.5963,133.4284,452.662,135.2557,452.0735,136.8938,451.0283,138.6458,450.258,140.5,449.7344" style="stroke: #FFFFFF; stroke-width: 1.5;"/><text fill="#FFFFFF" font-family="sans-serif" font-size="20" font-weight="bold" lengthAdjust="spacingAndGlyphs" textLength="97" x="136" y="478.4961">parametro</text><path d="M276,449.7344 L276,466.2344 L241.195,470.2344 L276,474.2344 L276,490.8906 A0,0 0 0 0 276,490.8906 L421,490.8906 A0,0 0 0 0 421,490.8906 L421,459.7344 L411,449.7344 L276,449.7344 A0,0 0 0 0 276,449.7344 " fill="#222222" style="stroke: #FFFFFF; stroke-width: 1.0;"/><path d="M411,449.7344 L411.1868,449.7344 L410.6317,451.7344 L411.1718,453.7344 L411.3553,455.7344 L410.3659,457.7344 L411,459.7344 L411,459.6653 L413,459.3553 L415,459.3935 L417,459.6738 L419,459.1198 L421,459.7344 L421.348,460.0824 L418.6038,457.3382 L416.8757,455.6101 L415.2715,454.0059 L412.9461,451.6805 L411,449.7344 " fill="#222222" style="stroke: #FFFFFF; stroke-width: 1.0;"/><text fill="#FFFF00" font-family="sans-serif" font-size="20" font-weight="bold" lengthAdjust="spacingAndGlyphs" textLength="118" x="285" y="478.4961">identificador</text><polygon fill="#222222" points="122,550.7344,122,550.9446,131.6154,550.3201,141.2308,550.9277,150.8462,551.1341,160.4615,550.021,170.0769,550.6567,179.6923,550.3079,189.3077,550.3509,198.9231,550.6662,208.5385,550.043,218.1538,551.288,227.7692,550.1041,237.3846,550.5366,247,550.7344,247.0551,550.8674,248.7568,551.4402,250.5442,552.2199,252.2992,552.9212,254.0938,553.7183,255.8388,554.3955,255.9125,554.426,256.7514,556.238,257.51,558.0167,258.2447,559.7855,258.8462,561.4991,259.5,563.2344,259.6545,563.2344,259.7341,566.4656,259.2596,569.6969,259.7262,572.9281,259.4012,576.1594,259.5,579.3906,259.6644,579.4587,258.6153,581.0952,258.0144,582.9174,257.5317,584.7885,256.5561,586.4555,255.8388,588.2295,255.8523,588.2619,254.1143,589.066,252.3564,589.8221,250.535,590.425,248.8044,591.2468,247,591.8906,247,591.3182,237.3846,592.175,227.7692,592.4388,218.1538,592.3352,208.5385,592.5036,198.9231,591.4075,189.3077,591.2384,179.6923,591.2692,170.0769,591.8317,160.4615,591.6941,150.8462,592.572,141.2308,591.7159,131.6154,591.5476,122,591.8906,122.0291,591.9609,120.1472,590.953,118.3982,590.2663,116.7795,589.8938,114.9845,589.0959,113.1612,588.2295,113.3874,588.3232,112.3298,586.4206,111.795,584.7346,111.1463,583.0015,110.0868,581.0981,109.5,579.3906,109.468,579.3906,109.542,576.1594,109.7173,572.9281,109.4986,569.6969,109.6542,566.4656,109.5,563.2344,109.3295,563.1637,110.0237,561.3802,111.1196,559.7631,111.4759,557.8396,112.5857,556.2282,113.1612,554.3955,113.1875,554.4592,114.8948,553.5808,116.6516,552.8221,118.523,552.3401,120.194,551.3744,122,550.7344" style="stroke: #FFFFFF; stroke-width: 1.5;"/><text fill="#FFFFFF" font-family="sans-serif" font-size="20" font-weight="bold" lengthAdjust="spacingAndGlyphs" textLength="134" x="117.5" y="579.4961">tipoParametro</text><path d="M294.5,550.7344 L294.5,567.2344 L259.805,571.2344 L294.5,575.2344 L294.5,591.8906 A0,0 0 0 0 294.5,591.8906 L452.5,591.8906 A0,0 0 0 0 452.5,591.8906 L452.5,560.7344 L442.5,550.7344 L294.5,550.7344 A0,0 0 0 0 294.5,550.7344 " fill="#222222" style="stroke: #FFFFFF; stroke-width: 1.0;"/><path d="M442.5,550.7344 L442.6868,550.7344 L442.1317,552.7344 L442.6718,554.7344 L442.8553,556.7344 L441.8659,558.7344 L442.5,560.7344 L442.5,560.6653 L444.5,560.3553 L446.5,560.3935 L448.5,560.6738 L450.5,560.1198 L452.5,560.7344 L452.848,561.0824 L450.1038,558.3382 L448.3757,556.6101 L446.7715,555.0059 L444.4461,552.6805 L442.5,550.7344 " fill="#222222" style="stroke: #FFFFFF; stroke-width: 1.0;"/><text fill="#00FFFF" font-family="sans-serif" font-size="20" font-weight="bold" lengthAdjust="spacingAndGlyphs" textLength="7" x="303.5" y="579.4961">:</text><text fill="#FFFF00" font-family="sans-serif" font-size="20" font-weight="bold" lengthAdjust="spacingAndGlyphs" textLength="118" x="316.5" y="579.4961">identificador</text><polygon fill="#222222" points="18.5,651.7344,18.5,651.8044,26.9,651.5963,35.3,651.7988,43.7,651.8676,52.1,651.4966,60.5,651.7344,60.4901,651.7104,62.2134,652.3353,63.9866,653.0807,65.7946,653.9101,67.4829,654.4504,69.3388,655.3955,69.5093,655.4662,69.877,657.0829,70.7424,658.9058,71.6686,660.7539,72.2414,662.4557,73,664.2344,73.0227,664.2344,72.9894,667.4656,73.0595,670.6969,73.0797,673.9281,73.1952,677.1594,73,680.3906,73.2067,680.4762,72.477,682.245,71.6139,683.9586,70.9461,685.7531,70.2873,687.5513,69.3388,689.2295,69.2468,689.0074,67.6576,690.1706,65.7655,690.6026,64.1036,691.5906,62.2046,692.0059,60.5,692.8906,60.5,692.8678,52.1,693.1378,43.7,692.8744,35.3,692.9257,26.9,693.0035,18.5,692.8906,18.5531,693.0188,16.7317,692.1572,15.0011,691.5146,13.1237,690.5176,11.4652,690.0493,9.6612,689.2295,9.83,689.2994,9.0658,687.5184,8.3855,685.7721,7.3157,683.8645,6.5314,682.0752,6,680.3906,5.7929,680.3906,5.9804,677.1594,5.9345,673.9281,6.2271,670.6969,5.9418,667.4656,6,664.2344,5.8944,664.1906,6.8025,662.4957,7.2591,660.6138,8.0368,658.8649,9.1288,657.2461,9.6612,655.3955,9.7167,655.5297,11.5226,654.8895,13.1557,653.832,15.0052,653.2971,16.8075,652.6484,18.5,651.7344" style="stroke: #FFFFFF; stroke-width: 1.5;"/><text fill="#FFFFFF" font-family="sans-serif" font-size="20" font-weight="bold" lengthAdjust="spacingAndGlyphs" textLength="51" x="14" y="680.4961">coma</text><path d="M108,651.7344 L108,668.2344 L73.0352,672.2344 L108,676.2344 L108,692.8906 A0,0 0 0 0 108,692.8906 L141,692.8906 A0,0 0 0 0 141,692.8906 L141,661.7344 L131,651.7344 L108,651.7344 A0,0 0 0 0 108,651.7344 " fill="#222222" style="stroke: #FFFFFF; stroke-width: 1.0;"/><path d="M131,651.7344 L131.1868,651.7344 L130.6317,653.7344 L131.1718,655.7344 L131.3553,657.7344 L130.3659,659.7344 L131,661.7344 L131,661.6653 L133,661.3553 L135,661.3935 L137,661.6738 L139,661.1198 L141,661.7344 L141.348,662.0824 L138.6038,659.3382 L136.8757,657.6101 L135.2715,656.0059 L132.9461,653.6805 L131,651.7344 " fill="#222222" style="stroke: #FFFFFF; stroke-width: 1.0;"/><text fill="#00FFFF" font-family="sans-serif" font-size="20" font-weight="bold" lengthAdjust="spacingAndGlyphs" textLength="6" x="117" y="680.4961">,</text><polygon fill="#222222" points="427,651.7344,427,651.9446,436.8125,651.3201,446.625,651.9277,456.4375,652.1341,466.25,651.021,476.0625,651.6567,485.875,651.3079,495.6875,651.3509,505.5,651.6662,515.3125,651.043,525.125,652.288,534.9375,651.1041,544.75,651.5366,554.5625,652.1663,564.375,651.6486,574.1875,651.8026,584,651.7344,583.9959,651.7245,585.7905,652.5216,587.566,653.2725,589.378,654.1114,591.1567,654.87,592.8388,655.3955,593.048,655.4822,593.6495,657.1958,594.4461,658.9902,595.2518,660.7884,595.5457,662.3746,596.5,664.2344,596.7262,664.2344,596.4012,667.4656,596.6779,670.6969,596.335,673.9281,596.4772,677.1594,596.5,680.3906,596.7284,680.4852,595.7528,682.1522,595.068,683.9396,594.4076,685.7371,593.6993,687.5148,592.8388,689.2295,592.8383,689.2283,591.1077,690.0501,589.2303,690.5176,587.5718,691.5137,585.8377,692.3272,584,692.8906,584,693.3352,574.1875,693.5036,564.375,692.4075,554.5625,692.2384,544.75,692.2692,534.9375,692.8317,525.125,692.6941,515.3125,693.572,505.5,692.7159,495.6875,692.5476,485.875,693.1189,476.0625,692.2238,466.25,692.3715,456.4375,693.5396,446.625,693.3263,436.8125,693.6251,427,692.8906,426.959,692.7915,425.273,692.2567,423.5398,691.608,421.6364,690.5484,419.9167,689.9322,418.1612,689.2295,418.2,689.2455,417.6296,687.5448,416.6954,685.6934,416.1069,683.9852,415.0617,682.0878,414.5,680.3906,414.2742,680.3906,414.6679,677.1594,414.261,673.9281,414.6697,670.6969,414.5689,667.4656,414.5,664.2344,414.4175,664.2002,415.1233,662.4215,416.1057,660.7574,416.6045,658.8929,417.6112,657.2388,418.1612,655.3955,418.0907,655.2253,420.0077,654.8534,421.7585,654.0802,423.4957,653.2743,425.2383,652.4811,427,651.7344" style="stroke: #FFFFFF; stroke-width: 1.5;"/><text fill="#FFFFFF" font-family="sans-serif" font-size="20" font-weight="bold" lengthAdjust="spacingAndGlyphs" textLength="166" x="422.5" y="680.4961">cerrarParametros</text><path d="M631.5,651.7344 L631.5,668.2344 L596.551,672.2344 L631.5,676.2344 L631.5,692.8906 A0,0 0 0 0 631.5,692.8906 L665.5,692.8906 A0,0 0 0 0 665.5,692.8906 L665.5,661.7344 L655.5,651.7344 L631.5,651.7344 A0,0 0 0 0 631.5,651.7344 " fill="#222222" style="stroke: #FFFFFF; stroke-width: 1.0;"/><path d="M655.5,651.7344 L655.6868,651.7344 L655.1317,653.7344 L655.6718,655.7344 L655.8553,657.7344 L654.8659,659.7344 L655.5,661.7344 L655.5,661.6653 L657.5,661.3553 L659.5,661.3935 L661.5,661.6738 L663.5,661.1198 L665.5,661.7344 L665.848,662.0824 L663.1038,659.3382 L661.3757,657.6101 L659.7715,656.0059 L657.4461,653.6805 L655.5,651.7344 " fill="#222222" style="stroke: #FFFFFF; stroke-width: 1.0;"/><text fill="#00FFFF" font-family="sans-serif" font-size="20" font-weight="bold" lengthAdjust="spacingAndGlyphs" textLength="7" x="640.5" y="680.4961">)</text><polygon fill="#222222" points="475,752.7344,475,752.9446,485.1667,752.3201,495.3333,752.9277,505.5,753.1341,515.6667,752.021,525.8333,752.6567,536,752.7344,535.9456,752.603,537.7188,753.3485,539.5268,754.1779,541.2151,754.7182,543.1417,755.8338,544.8388,756.3955,544.6447,756.3151,545.5102,758.1381,546.4363,759.9862,547.0091,761.6879,547.7888,763.4753,548.5,765.2344,548.4894,765.2344,548.5595,768.4656,548.5797,771.6969,548.6952,774.9281,548.7237,778.1594,548.5,781.3906,548.7092,781.4773,547.8462,783.1909,547.1783,784.9853,546.5196,786.7835,545.349,788.3697,544.8388,790.2295,544.9254,790.4384,543.0332,790.8704,541.3714,791.8583,539.4724,792.2737,537.759,793.1373,536,793.8906,536,794.6322,525.8333,793.8419,515.6667,793.9959,505.5,794.2293,495.3333,794.3069,485.1667,793.8867,475,793.8906,475.0366,793.9791,473.1592,792.9821,471.5007,792.5137,469.7666,791.8627,467.9856,791.0986,466.1612,790.2295,466.35,790.3077,465.2802,788.4001,464.4959,786.6107,463.7731,784.8469,463.2141,783.1509,462.5,781.3906,462.4345,781.3906,462.7271,778.1594,462.4418,774.9281,462.3856,771.6969,462.5761,768.4656,462.5,765.2344,462.2946,765.1493,463.0724,763.4004,464.1643,761.7816,464.8309,759.9866,465.6551,758.257,466.1612,756.3955,466.1201,756.2964,467.9696,755.7616,469.772,755.1129,471.4042,754.0534,473.22,753.4371,475,752.7344" style="stroke: #FFFFFF; stroke-width: 1.5;"/><text fill="#FFFFFF" font-family="sans-serif" font-size="20" font-weight="bold" lengthAdjust="spacingAndGlyphs" textLength="70" x="470.5" y="781.4961">retorno</text><path d="M583.5,752.7344 L583.5,769.2344 L548.736,773.2344 L583.5,777.2344 L583.5,793.8906 A0,0 0 0 0 583.5,793.8906 L741.5,793.8906 A0,0 0 0 0 741.5,793.8906 L741.5,762.7344 L731.5,752.7344 L583.5,752.7344 A0,0 0 0 0 583.5,752.7344 " fill="#222222" style="stroke: #FFFFFF; stroke-width: 1.0;"/><path d="M731.5,752.7344 L731.6868,752.7344 L731.1317,754.7344 L731.6718,756.7344 L731.8553,758.7344 L730.8659,760.7344 L731.5,762.7344 L731.5,762.6653 L733.5,762.3553 L735.5,762.3935 L737.5,762.6738 L739.5,762.1198 L741.5,762.7344 L741.848,763.0824 L739.1038,760.3382 L737.3757,758.6101 L735.7715,757.0059 L733.4461,754.6805 L731.5,752.7344 " fill="#222222" style="stroke: #FFFFFF; stroke-width: 1.0;"/><text fill="#00FFFF" font-family="sans-serif" font-size="20" font-weight="bold" lengthAdjust="spacingAndGlyphs" textLength="7" x="592.5" y="781.4961">:</text><text fill="#FFFF00" font-family="sans-serif" font-size="20" font-weight="bold" lengthAdjust="spacingAndGlyphs" textLength="118" x="605.5" y="781.4961">identificador</text><polygon fill="#222222" points="378,954.7344,378,954.9446,387.6667,954.3201,397.3333,954.9277,407,955.1341,416.6667,954.021,426.3333,954.6567,436,954.3079,445.6667,954.3509,455.3333,954.6662,465,954.7344,464.9118,954.5215,466.8384,955.6371,468.4551,956.0047,470.2781,956.8702,472.1262,957.7963,473.8388,958.3955,473.8124,958.3846,474.5921,960.172,475.2935,961.927,476.0905,963.7216,476.8414,965.4971,477.5,967.2344,477.6952,967.2344,477.7237,970.4656,477.7264,973.6969,477.5849,976.9281,477.6545,980.1594,477.5,983.3906,477.7163,983.4802,476.5457,985.0664,476.2445,987.0127,475.212,988.6561,474.7355,990.5298,473.8388,992.2295,473.7757,992.077,472.0623,992.9406,470.3979,993.9223,468.5293,994.4112,466.7812,995.1908,465,995.8906,465,996.2293,455.3333,996.3069,445.6667,995.8867,436,996.1778,426.3333,995.3182,416.6667,996.175,407,996.4388,397.3333,996.3352,387.6667,996.5036,378,995.8906,377.9384,995.7419,376.149,994.9575,374.3852,994.2348,372.6892,993.6758,370.9039,992.9012,369.1612,992.2295,369.371,992.3164,368.3751,990.4394,367.5911,988.6502,367.0348,986.9553,366.0269,985.0733,365.5,983.3906,365.327,983.3906,365.7163,980.1594,365.6452,976.9281,365.7448,973.6969,365.3927,970.4656,365.5,967.2344,365.5983,967.2751,366.4141,965.5419,366.819,963.6386,367.6672,961.9188,368.4677,960.1794,369.1612,958.3955,369.2443,958.5963,370.9284,957.662,372.7557,957.0735,374.3938,956.0283,376.1458,955.258,378,954.7344" style="stroke: #FFFFFF; stroke-width: 1.5;"/><text fill="#FFFFFF" font-family="sans-serif" font-size="20" font-weight="bold" lengthAdjust="spacingAndGlyphs" textLength="96" x="373.5" y="983.4961">excepcion</text><path d="M513,954.7344 L513,971.2344 L477.555,975.2344 L513,979.2344 L513,995.8906 A0,0 0 0 0 513,995.8906 L658,995.8906 A0,0 0 0 0 658,995.8906 L658,964.7344 L648,954.7344 L513,954.7344 A0,0 0 0 0 513,954.7344 " fill="#222222" style="stroke: #FFFFFF; stroke-width: 1.0;"/><path d="M648,954.7344 L648.1868,954.7344 L647.6317,956.7344 L648.1718,958.7344 L648.3553,960.7344 L647.3659,962.7344 L648,964.7344 L648,964.6653 L650,964.3553 L652,964.3935 L654,964.6738 L656,964.1198 L658,964.7344 L658.348,965.0824 L655.6038,962.3382 L653.8757,960.6101 L652.2715,959.0059 L649.9461,956.6805 L648,954.7344 " fill="#222222" style="stroke: #FFFFFF; stroke-width: 1.0;"/><text fill="#FFFF00" font-family="sans-serif" font-size="20" font-weight="bold" lengthAdjust="spacingAndGlyphs" textLength="118" x="522" y="983.4961">identificador</text><path d="M490,1055.7344 L490,1072.2344 L455.035,1076.2344 L490,1080.2344 L490,1096.8906 A0,0 0 0 0 490,1096.8906 L523,1096.8906 A0,0 0 0 0 523,1096.8906 L523,1065.7344 L513,1055.7344 L490,1055.7344 A0,0 0 0 0 490,1055.7344 " fill="#222222" style="stroke: #FFFFFF; stroke-width: 1.0;"/><path d="M513,1055.7344 L513.1868,1055.7344 L512.6317,1057.7344 L513.1718,1059.7344 L513.3553,1061.7344 L512.3659,1063.7344 L513,1065.7344 L513,1065.6653 L515,1065.3553 L517,1065.3935 L519,1065.6738 L521,1065.1198 L523,1065.7344 L523.348,1066.0824 L520.6038,1063.3382 L518.8757,1061.6101 L517.2715,1060.0059 L514.9461,1057.6805 L513,1055.7344 " fill="#222222" style="stroke: #FFFFFF; stroke-width: 1.0;"/><text fill="#00FFFF" font-family="sans-serif" font-size="20" font-weight="bold" lengthAdjust="spacingAndGlyphs" textLength="6" x="499" y="1084.4961">,</text><polygon fill="#FFFFFF" points="390.5552,79.1668,389.0894,81.1696,387.3556,84.1032,384.876,86.0802,382.2703,87.1613,380.1927,87.2551,377.5224,85.9031,375.0029,85.0198,373.0905,83.2264,372.0873,81.1733,371.4924,79.5385,370.9096,77.4032,369.9636,75.5657,370.6906,73.7717,371.3275,71.8064,373.7175,70.2521,375.3991,68.2354,377.4804,67.5657,379.9547,66.989,383.1276,67.3316,384.8655,68.1512,386.8861,68.5227,389.3429,71.0398,390.1993,73.6971,390.5714,75.5101,390.15,78.4979" style="stroke: none; stroke-width: 1.0;"/><polygon fill="none" points="721.5552,1078.6668,720.0894,1080.6696,718.3556,1083.6032,715.876,1085.5802,713.2703,1086.6613,711.1927,1086.7551,708.5224,1085.4031,706.0029,1084.5198,704.0905,1082.7264,703.0873,1080.6733,702.4924,1079.0385,701.9096,1076.9032,700.9636,1075.0657,701.6906,1073.2717,702.3275,1071.3064,704.7175,1069.7521,706.3991,1067.7354,708.4804,1067.0657,710.9547,1066.489,714.1276,1066.8316,715.8655,1067.6512,717.8861,1068.0227,720.3429,1070.5398,721.1993,1073.1971,721.5714,1075.0101,721.15,1077.9979" style="stroke: #FFFFFF; stroke-width: 1.0;"/><polygon fill="#FFFFFF" points="718.0331,1078.1938,717.1536,1079.3955,716.1134,1081.1557,714.6256,1082.3419,713.0622,1082.9905,711.8156,1083.0468,710.2135,1082.2356,708.7017,1081.7056,707.5543,1080.6296,706.9524,1079.3977,706.5955,1078.4168,706.2458,1077.1357,705.6782,1076.0332,706.1143,1074.9567,706.4965,1073.7776,707.9305,1072.845,708.9394,1071.635,710.1882,1071.2332,711.6728,1070.8871,713.5766,1071.0927,714.6193,1071.5845,715.8317,1071.8074,717.3057,1073.3176,717.8196,1074.912,718.0429,1075.9998,717.79,1077.7925" style="stroke: none; stroke-width: 1.0;"/><!--link *start to visibilidad--><path d="M385.292,85.5844 L385.5312,85.7303 L389.7184,93.3245 L395.308,101.7743 L400.4409,109.9455 L404.072,117.2004 L409.6935,125.6697 L414.1946,133.4553 L419.578,141.7794 " fill="none" style="stroke: #FFFFFF; stroke-width: 1.0;"/><polygon fill="#FFFFFF" points="422.415,146.4284,422.4845,146.4374,422.0232,144.4573,421.9692,142.5303,421.7826,140.586,421.1598,138.5847,421.1408,136.6623,421.1156,136.6562,420.7365,137.7285,420.4843,138.8315,420.3204,139.9558,419.8524,141.0066,419.8102,142.1604,419.8536,142.3398,418.6612,141.6901,417.5955,141.5642,416.5452,141.5021,415.405,141.0682,414.3121,140.8299,414.325,140.8486,415.9266,141.9408,417.5871,143.1183,419.2191,144.2546,420.9054,145.4693,422.415,146.4284" style="stroke: #FFFFFF; stroke-width: 1.0;"/><!--link visibilidad to metodo--><path d="M423.831,187.7934 L424.077,187.9276 L418.32,196.7432 L414.0052,206.3454 L409.2208,215.6916 L402.892,224.1952 L398.61,233.8154 L393.675,243.0794 " fill="none" style="stroke: #FFFFFF; stroke-width: 1.0;"/><polygon fill="#FFFFFF" points="391.146,247.7154,391.1886,247.771,392.6263,246.4085,394.3136,245.3721,395.9196,244.2296,397.2583,242.7377,398.967,241.7294,398.9597,241.7045,397.8415,241.9123,396.7601,242.2453,395.7044,242.6654,394.5604,242.7854,393.5401,243.3258,393.7171,243.3779,393.0192,242.1811,392.8382,241.1364,392.7203,240.1103,392.2355,238.9762,391.9436,237.8989,391.9663,237.9007,391.7735,239.8613,391.6839,241.8303,391.5445,243.7952,391.5001,245.7679,391.146,247.7154" style="stroke: #FFFFFF; stroke-width: 1.0;"/><!--link *start to metodo--><path d="M377.263,86.5044 L377.3515,86.5343 L376.2929,88.7975 L375.753,91.2362 L375.0442,93.6178 L373.7799,95.8114 L373.2845,98.2652 L373.2515,98.2552 L372.2028,101.1907 L371.3209,104.1767 L370.5548,107.1976 L369.3895,110.0979 L368.7834,113.1671 L369.0219,113.2274 L367.6714,116.4241 L367.0173,119.7968 L366.4483,123.191 L365.3848,126.4603 L364.5813,129.7952 L364.6111,129.8006 L363.9511,133.1805 L363.4268,136.5851 L362.8371,139.9777 L362.3724,143.3931 L361.5,146.7344 L361.7971,146.7604 L361.5783,149.2985 L361.1679,151.8199 L361.038,154.3658 L360.9212,156.9129 L360.3879,159.4235 L360.0674,159.4217 L360.6753,162.0124 L360.2277,164.5972 L360.5825,167.1865 L360.1111,169.7712 L360.3168,172.3596 L360.2865,172.3578 L360.8064,174.9721 L360.6164,177.5425 L360.8454,180.1388 L361.1095,182.7373 L361.1199,185.32 L361.3036,185.3418 L361.4202,187.8722 L361.8507,190.4397 L361.7733,192.9472 L362.4535,195.5443 L362.63,198.0818 L362.8703,198.1217 L363.235,200.5822 L363.7189,203.0625 L363.6484,205.4507 L363.9843,207.9064 L364.6803,210.4219 L364.4099,210.3659 L365.1394,212.7558 L365.5642,215.0825 L366.431,217.5008 L366.5432,219.7628 L367.1039,222.1177 L366.9557,222.0817 L367.7285,224.3073 L367.8679,226.3791 L368.4576,228.5603 L369.4881,230.8485 L369.7338,232.9461 L369.9205,232.9973 L370.5824,234.9801 L370.6635,236.8036 L371.4721,238.8266 L372.1222,240.8061 L372.403,242.6844 " fill="none" style="stroke: #FFFFFF; stroke-width: 1.0;"/><polygon fill="#FFFFFF" points="373.875,247.6544,373.9445,247.6635,373.9932,245.6833,374.4493,243.7564,374.7727,241.8121,374.6599,239.8109,375.1509,237.8885,375.1282,237.8762,374.4864,238.8152,373.9595,239.8164,373.5124,240.861,372.7903,241.7564,372.4533,242.8607,372.5413,243.023,371.3587,242.1366,370.433,241.7238,369.5387,241.3688,368.4619,240.6776,367.4811,240.1632,367.4984,240.1779,368.7518,241.6545,370.0839,243.1983,371.3781,244.7096,372.7447,246.2829,373.875,247.6544" style="stroke: #FFFFFF; stroke-width: 1.0;"/><!--link metodo to abrirParametros--><path d="M380.5,288.7934 L380.7802,288.7934 L379.9476,299.7634 L380.7577,310.7334 L381.0329,321.7034 L379.5488,332.6734 L380.5,343.6434 " fill="none" style="stroke: #FFFFFF; stroke-width: 1.0;"/><polygon fill="#FFFFFF" points="380.5,348.7154,380.564,348.7438,381.1738,346.8593,382.1589,345.1415,383.0217,343.3695,383.4827,341.4188,384.5,339.7154,384.4817,339.6971,383.5995,340.4148,382.8096,341.225,382.0839,342.0993,381.137,342.7524,380.5,343.7154,380.6305,343.8459,379.5514,342.7668,378.8534,342.0688,378.2018,341.4172,377.2798,340.4952,376.5,339.7154,376.5208,339.7246,377.2903,341.511,378.1544,343.3395,378.9728,345.1477,379.8784,346.9947,380.5,348.7154" style="stroke: #FFFFFF; stroke-width: 1.0;"/><!--link abrirParametros to cerrarParametros--><path d="M400.921,389.7794 L400.9883,389.8442 L403.2934,392.2544 L405.993,395.0445 L408.5641,397.7109 L410.7128,399.9706 L413.4463,402.7932 L413.4208,402.7698 L414.6949,404.1733 L416.0972,405.6946 L417.5885,407.298 L418.7728,408.6188 L420.3871,410.3353 L420.5709,410.4989 L421.6326,411.7844 L423.231,413.5474 L424.895,415.3686 L426.1779,416.8509 L427.6612,418.5114 L427.6842,418.5312 L429.154,420.2558 L430.7287,422.0703 L432.2528,423.8414 L433.8733,425.6952 L435.1794,427.2794 L435.4096,427.469 L436.9471,429.3348 L438.336,431.0783 L439.9424,433.0009 L441.5589,434.9318 L442.8526,436.597 L442.6008,436.3986 L444.6373,438.7486 L445.8447,440.4455 L447.6824,442.6388 L448.871,444.3209 L450.5917,446.4221 L450.5673,446.4038 L452.3986,448.6779 L453.6607,450.5253 L455.2586,452.6245 L456.8847,454.7448 L458.3075,456.7126 L458.4584,456.8197 L459.8268,458.8544 L461.453,461.072 L462.6621,462.9937 L464.4933,465.3568 L465.9109,467.4264 L466.1136,467.5616 L467.5556,469.755 L469.0983,472.0156 L470.1734,473.9642 L471.5913,476.1415 L473.3128,478.5213 L473.0783,478.3755 L474.7128,480.7943 L476.0831,483.0488 L477.8367,485.5416 L478.9358,487.6274 L480.424,489.9552 L480.2917,489.8793 L481.8582,492.3519 L482.8595,494.5 L484.2627,496.8788 L486.0592,499.4833 L487.1553,501.6859 L487.327,501.7756 L488.6972,504.2342 L489.5336,506.4139 L491.0385,508.9429 L492.3979,511.3958 L493.4178,513.6714 L493.2276,513.5824 L494.52,516.0929 L495.7502,518.5743 L497.1028,521.1128 L497.9796,523.4289 L499.1221,525.8693 L499.3124,525.9471 L499.9057,528.2499 L500.8663,530.7028 L502.3636,533.3751 L502.8729,535.6434 L504.1792,538.2377 L504.393,538.3116 L505.1302,540.7671 L505.795,543.1975 L506.6231,545.6843 L507.8285,548.3017 L508.5,550.7344 L508.3711,550.7015 L509.3802,553.2491 L509.5125,555.5729 L510.6417,558.1512 L511.2097,560.5862 L511.6264,562.9826 L511.734,562.9996 L512.0481,565.5187 L512.7473,568.0987 L513.0986,570.6237 L513.3045,573.1256 L513.6312,575.6467 L513.75,575.6563 L513.7808,578.2082 L514.3632,580.8047 L514.3217,583.3508 L514.5368,585.9177 L514.6677,588.4777 L514.3973,588.473 L514.5319,591.0244 L514.9921,593.5814 L514.9915,596.1305 L514.8258,598.6766 L514.8891,601.2268 L514.746,601.2217 L514.7039,603.7069 L514.4083,606.1832 L514.8092,608.6841 L514.8655,611.1728 L514.449,613.6448 L514.6822,613.6635 L514.5671,616.0371 L514.009,618.3752 L513.9185,620.7507 L513.5185,623.1015 L513.5005,625.4829 L513.6258,625.4977 L513.3487,627.6976 L513.2229,629.9154 L512.6171,632.0764 L512.3984,634.2832 L512.1971,636.4921 L512.3919,636.5216 L512.1453,638.5161 L511.3698,640.4305 L511.2088,642.4379 L511.0586,644.4471 L510.692,646.4234 " fill="none" style="stroke: #FFFFFF; stroke-width: 1.0;"/><polygon fill="#FFFFFF" points="509.804,651.4984,509.8622,651.5374,510.788,649.7864,512.0546,648.2644,513.2103,646.6678,514.001,644.8259,515.2969,643.3235,515.282,643.3023,514.2892,643.8572,513.3714,644.5188,512.5058,645.2548,511.4604,645.7348,510.6667,646.5734,510.8178,646.6794,509.8448,645.5266,509.3128,644.6834,508.8347,643.878,508.0435,642.8528,507.4169,641.9432,507.439,641.9487,507.884,643.8516,508.4295,645.7797,508.9265,647.6956,509.516,649.6347,509.804,651.4984" style="stroke: #FFFFFF; stroke-width: 1.0;"/><!--link abrirParametros to parametro--><path d="M341.777,389.7934 L341.9033,390.0435 L332.7492,393.7344 L324.3357,398.8917 L315.681,403.5715 L306.2331,406.681 L297.8364,411.8717 L288.848,415.8907 L280.0951,420.376 L271.5059,425.1855 L262.3525,428.8779 L254.3221,434.7938 L244.8317,437.8189 L236.3129,442.7679 L227.653,447.4374 " fill="none" style="stroke: #FFFFFF; stroke-width: 1.0;"/><polygon fill="#FFFFFF" points="223.143,449.7154,223.1465,449.7853,225.1035,449.4799,227.0809,449.5847,229.0517,449.556,231.0007,449.0879,232.9798,449.2279,232.9717,449.2033,231.8606,448.7395,230.7903,448.3997,229.7484,448.1462,228.6087,447.5955,227.606,447.461,227.7813,447.5187,227.7598,446.3207,228.2501,445.2909,228.8029,444.2817,228.9923,443.153,229.3729,442.0872,229.3905,442.1016,228.1186,443.6061,226.927,445.1761,225.6967,446.7145,224.5402,448.3132,223.143,449.7154" style="stroke: #FFFFFF; stroke-width: 1.0;"/><!--link parametro to tipoParametro--><path d="M184.5,490.7934 L184.7802,490.7934 L183.9476,501.7634 L184.7577,512.7334 L185.0329,523.7034 L183.5488,534.6734 L184.5,545.6434 " fill="none" style="stroke: #FFFFFF; stroke-width: 1.0;"/><polygon fill="#FFFFFF" points="184.5,550.7154,184.564,550.7438,185.1738,548.8593,186.1589,547.1415,187.0217,545.3695,187.4827,543.4188,188.5,541.7154,188.4817,541.6971,187.5995,542.4148,186.8096,543.225,186.0839,544.0993,185.137,544.7524,184.5,545.7154,184.6305,545.8459,183.5514,544.7668,182.8534,544.0688,182.2018,543.4172,181.2798,542.4952,180.5,541.7154,180.5208,541.7246,181.2903,543.511,182.1544,545.3395,182.9728,547.1477,183.8784,548.9947,184.5,550.7154" style="stroke: #FFFFFF; stroke-width: 1.0;"/><!--link parametro to coma--><path d="M140.682,490.9834 L140.7339,491.061 L138.8486,491.9868 L137.2675,493.3678 L135.5873,494.6006 L133.5814,495.3458 L132.0264,496.766 L132.0062,496.738 L130.152,497.886 L128.3998,499.1752 L126.7185,500.5624 L124.7929,501.6116 L123.2094,503.1344 L123.3608,503.3283 L121.2685,504.294 L119.6182,505.8259 L118.0218,507.427 L116.1116,508.626 L114.3665,510.0365 L114.386,510.0597 L112.6106,511.5025 L110.9243,513.0507 L109.1949,514.5481 L107.5476,516.1425 L105.6329,517.4205 L105.8348,517.6399 L104.1396,519.2054 L102.314,520.6293 L100.6791,522.2604 L99.0532,523.9011 L97.144,525.2343 L96.9162,525.0088 L95.7366,527.0847 L93.8069,528.4182 L92.4474,530.3161 L90.5007,531.6327 L89.0353,533.4258 L89.0126,533.4056 L87.7627,535.3486 L85.9819,536.8184 L84.5144,538.5674 L83.0732,540.3399 L81.4422,541.9432 L81.5874,542.0578 L80.0524,543.7004 L78.7655,545.5388 L77.0772,547.0602 L75.9876,549.0545 L74.5,550.7344 L74.7014,550.8714 L73.0912,553.1563 L71.5809,555.5092 L69.606,557.5459 L67.9717,559.8144 L66.6392,562.2882 L66.4008,562.1487 L65.1832,564.7254 L63.697,567.1449 L62.6004,569.7923 L60.8386,572.0506 L59.4722,574.5403 L59.3363,574.4713 L58.2782,577.1173 L56.6389,579.4684 L55.4129,582.0292 L54.5913,584.7953 L53.0495,587.1959 L53.2267,587.274 L52.2226,589.8805 L50.6675,592.2439 L49.8025,594.9117 L48.7872,597.5132 L47.4215,599.9603 L47.2253,599.8856 L46.4251,602.4608 L45.5607,605.0115 L44.8225,607.6102 L43.5935,610.0222 L42.6386,612.5386 L42.8343,612.6015 L41.6268,614.8828 L40.7971,617.2855 L40.5193,619.8655 L39.2254,622.1191 L38.7513,624.636 L38.9702,624.6929 L38.2519,626.9235 L37.4595,629.1349 L36.8343,631.3896 L36.5955,633.7448 L35.8099,635.9579 L35.6792,635.9331 L35.6794,638.0572 L34.7906,640.0127 L34.9126,642.1599 L34.4655,644.1992 L33.865,646.2094 " fill="none" style="stroke: #FFFFFF; stroke-width: 1.0;"/><polygon fill="#FFFFFF" points="33.2224,651.4524,33.2825,651.4884,34.1171,649.6921,35.3039,648.107,36.3761,646.4532,37.071,644.5731,38.2881,643.0061,38.2721,642.9857,37.3091,643.5908,36.4265,644.2988,35.5998,645.0783,34.5805,645.6113,33.831,646.4895,33.9764,646.6032,32.9688,645.4688,32.3857,644.6661,31.8544,643.9039,31.0217,642.9062,30.3476,642.0324,30.3693,642.0391,30.9123,643.9133,31.5544,645.8178,32.1487,647.7077,32.8342,649.6254,33.2224,651.4524" style="stroke: #FFFFFF; stroke-width: 1.0;"/><!--link coma to parametro--><path d="M57.4208,651.4524 L57.5046,651.4937 L58.2671,649.3233 L59.5206,647.3953 L60.6142,645.3883 L61.182,643.1217 L62.4776,641.2145 L62.4462,641.2001 L63.3739,638.8085 L64.4598,636.4896 L65.6558,634.2212 L66.4726,631.7788 L67.8204,629.5801 L68.0448,629.681 L68.7036,626.9316 L70.0176,624.4767 L71.4115,622.0577 L72.3403,619.4296 L73.5138,616.9116 L73.5413,616.9242 L74.7226,614.2375 L76.0293,611.6084 L77.2755,608.9515 L78.6372,606.3475 L79.6223,603.571 L79.8909,603.7006 L81.2118,600.9722 L82.3595,598.1601 L83.7608,595.4704 L85.174,592.7865 L86.2106,589.9207 L85.9267,589.7719 L87.9041,587.3413 L88.9469,584.4205 L90.7002,581.8723 L91.7218,578.9404 L93.3432,576.323 L93.317,576.3076 L95.1757,573.8534 L96.4212,571.0389 L98.0285,568.437 L99.6663,565.853 L101.0848,563.1402 L101.2379,563.244 L102.7664,560.658 L104.5565,558.2495 L105.9234,555.5539 L107.9216,553.2865 L109.5,550.7344 L109.6917,550.8848 L110.9286,549.2336 L112.2608,547.6571 L113.1507,545.7337 L114.3648,544.0645 L115.866,542.6207 L115.6579,542.4392 L117.2217,541.0267 L118.551,539.4096 L120.2204,538.0892 L121.309,536.2622 L122.7429,534.7364 L122.6323,534.6314 L124.2625,533.2834 L125.42,531.4866 L126.9137,530.0089 L128.7361,528.8435 L129.973,527.1221 L130.1088,527.2601 L131.6871,525.8941 L132.8431,524.0987 L134.528,522.8411 L136.0977,521.4663 L137.3989,519.8185 L137.2558,519.6649 L138.8627,518.3969 L140.4227,517.0786 L142.0747,515.8592 L143.3689,514.2554 L144.8629,512.8663 L144.9999,513.0197 L146.1679,511.3708 L147.6003,510.0178 L149.4189,509.0972 L150.5265,507.3807 L152.2077,506.3063 L152.3552,506.4778 L155.0078,504.0197 L157.6106,501.5036 L160.326,499.1185 L163.3017,497.0362 L165.909,494.5254 " fill="none" style="stroke: #FFFFFF; stroke-width: 1.0;"/><polygon fill="#FFFFFF" points="170.079,490.9834,170.0988,491.0506,168.1503,491.4067,166.3177,492.1568,164.4474,492.7787,162.453,492.9785,160.6304,493.7625,160.6283,493.7367,161.7465,493.7125,162.8753,493.8184,164.0115,494.0149,165.1223,493.8995,166.2686,494.2208,166.4526,494.2358,165.9676,495.3315,166.0196,496.4708,166.1371,497.6154,165.8735,498.7291,165.8103,499.8591,165.8308,499.8689,166.6544,498.0793,167.5714,496.3346,168.4434,494.5682,169.4012,492.8431,170.079,490.9834" style="stroke: #FFFFFF; stroke-width: 1.0;"/><!--link tipoParametro to coma--><path d="M155.853,591.7934 L156.011,592.0248 L147.1917,597.038 L139.2988,603.408 L131.1041,609.3362 L121.9175,613.8114 L114.0457,620.2123 L105.4337,625.5291 L97.1162,631.2774 L89.0035,637.3255 L80.1852,642.3402 L72.3552,648.8024 " fill="none" style="stroke: #FFFFFF; stroke-width: 1.0;"/><polygon fill="#FFFFFF" points="68.0878,651.7154,68.1004,651.7843,70.0006,651.2251,71.9746,651.0699,73.9246,650.7832,75.7955,650.0638,77.7759,649.9433,77.7711,649.9178,76.6378,649.5941,75.5286,649.3986,74.4363,649.2924,73.286,648.8788,72.2169,648.8957,72.3983,648.9299,72.22,647.745,72.5712,646.6599,72.9869,645.587,73.0269,644.4432,73.2645,643.3367,73.2838,643.3487,72.2201,645.0068,71.2444,646.7195,70.2263,648.4058,69.2892,650.1423,68.0878,651.7154" style="stroke: #FFFFFF; stroke-width: 1.0;"/><!--link tipoParametro to cerrarParametros--><path d="M247.919,591.7934 L248.0016,592.0612 L257.2205,594.1844 L266.9236,597.8774 L276.469,601.0593 L285.4959,602.56 L295.21,606.2889 L304.5372,608.7634 L314.0184,611.7371 L323.6066,615.0577 L332.826,617.1826 L342.7796,621.6878 L351.7786,623.0982 L361.4129,626.5682 L371.1246,630.2894 L380.3855,632.5487 L389.9103,635.6638 L399.3352,638.4551 L408.8823,641.6421 L418.3704,644.6383 L427.9708,647.9987 L437.205,650.1714 " fill="none" style="stroke: #FFFFFF; stroke-width: 1.0;"/><polygon fill="#FFFFFF" points="442.212,651.7154,442.2581,651.7682,440.6368,650.3165,439.2856,649.1743,437.8464,647.9313,436.1181,646.3569,434.79,645.2413,434.7671,645.2292,435.1931,646.175,435.7346,647.1819,436.3563,648.2312,436.7014,649.1343,437.4339,650.2422,437.5202,650.4054,436.3356,650.5853,435.4027,651.2415,434.5007,651.9559,433.4198,652.3321,432.433,652.8862,432.4357,652.9088,434.3875,652.6414,436.3517,652.4769,438.3099,652.2628,440.2794,652.1434,442.212,651.7154" style="stroke: #FFFFFF; stroke-width: 1.0;"/><!--link parametro to cerrarParametros--><path d="M241.129,486.2964 L241.2018,486.567 L250.936,488.4382 L261.0969,491.8959 L271.1188,494.8369 L280.6839,496.079 L290.8545,499.5728 L300.6842,501.7991 L310.7823,505.0235 L310.6474,504.5303 L319.9691,507.4565 L328.9605,509.1756 L338.6094,513.2974 L347.4034,514.2954 L356.7663,517.3723 L366.1987,520.7028 L375.2272,522.5576 L384.4681,525.1885 L384.4763,525.2177 L390.9722,527.0008 L397.5054,528.9168 L404.0206,530.7686 L410.5702,532.7429 L417.0078,534.3182 L417.0908,534.6046 L422.4057,536.1479 L427.667,537.5064 L433.0067,539.1353 L438.3501,540.7769 L443.5771,542.0169 L443.4821,541.7108 L447.3211,543.4391 L450.8472,544.1595 L454.6111,545.6461 L458.1301,546.3436 L461.8499,547.6879 L461.8386,547.6596 L463.5019,548.6034 L464.9019,548.8864 L466.4573,549.5593 L468.0257,550.2649 L469.5,550.7344 L469.6402,550.8551 L471.2703,552.79 L473.1399,554.9313 L474.622,556.7387 L476.6821,559.044 L478.3579,561.0183 L478.5639,561.1483 L479.9822,563.434 L481.5027,565.7842 L482.5479,567.8345 L483.9415,570.1046 L485.6438,572.5695 L485.3941,572.4516 L486.7934,575.0431 L487.9113,577.5018 L489.4374,580.1532 L490.2666,582.4756 L491.51,584.9935 L491.3664,584.9424 L492.5253,587.6082 L493.0702,590.0552 L494.0518,592.6578 L495.4605,595.4126 L496.1085,597.8964 L496.2955,597.9465 L497.1204,600.5784 L497.3635,603.0543 L498.3352,605.7256 L499.1482,608.3543 L499.5913,610.8838 L499.3854,610.8428 L500.0534,613.411 L500.654,615.9658 L501.387,618.5469 L501.605,621.0256 L502.1107,623.5615 L502.3142,623.5906 L502.2086,625.9216 L502.4958,628.3086 L503.357,630.7775 L503.1615,633.0957 L503.8185,635.5355 L504.0437,635.5572 L504.1196,637.7195 L504.1194,639.8744 L504.2911,642.0459 L504.8603,644.2558 L504.867,646.4114 " fill="none" style="stroke: #FFFFFF; stroke-width: 1.0;"/><polygon fill="#FFFFFF" points="505.209,651.6264,505.2747,651.6506,505.7599,649.7302,506.6305,647.9516,507.3755,646.1269,507.7078,644.1503,508.6115,642.3839,508.592,642.3668,507.7587,643.1408,507.0235,644.0009,506.3566,644.9208,505.4545,645.6345,504.8818,646.6371,505.0035,646.7758,503.8927,645.7332,503.1371,645.0957,502.4248,644.5075,501.4604,643.6319,500.6286,642.9074,500.6488,642.918,501.5353,644.6463,502.5135,646.4227,503.4474,648.1759,504.4658,649.9734,505.209,651.6264" style="stroke: #FFFFFF; stroke-width: 1.0;"/><!--link cerrarParametros to *end--><path d="M596.829,690.0314 L596.8496,690.1225 L601.7292,690.9704 L606.7297,692.3524 L611.6909,693.5605 L616.5225,694.1967 L621.5334,695.6245 L621.5252,695.591 L624.0033,696.0533 L626.5226,696.6848 L629.0705,697.4338 L631.5197,697.7776 L634.1073,698.6891 L634.1686,698.9274 L636.5535,699.0653 L639.1174,699.8989 L641.7032,700.8175 L644.1619,701.2421 L646.6874,701.9266 L646.6954,701.9558 L649.1797,702.5941 L651.7004,703.3656 L654.2035,704.0729 L656.7401,704.9027 L659.1676,705.3328 L659.251,705.6192 L661.7068,706.3369 L664.1089,706.8698 L666.5897,707.6732 L669.0742,708.4892 L671.4419,708.9037 L671.3464,708.5977 L673.9241,709.9378 L676.1874,710.2703 L678.6897,711.3689 L680.946,711.6786 L683.4039,712.6348 L683.3942,712.606 L685.8178,713.7247 L688.0145,714.1692 L690.3451,715.0116 L692.6869,715.8873 L694.9476,716.5221 L695.0113,716.6958 L697.1509,717.3283 L699.3993,718.2577 L701.4716,718.7068 L703.8065,719.8721 L705.9669,720.5613 L706.0579,720.7873 L708.1184,721.5819 L710.2242,722.4888 L712.1198,722.8743 L714.1694,723.642 L716.3555,724.7482 L716.2424,724.4962 L718.2752,725.5904 L720.1805,726.4006 L722.2706,727.6227 L724.0452,728.1416 L726.0074,729.0785 L725.9384,728.9425 L727.815,730.0629 L729.3968,730.602 L731.1883,731.5545 L733.185,732.9114 L734.8163,733.5481 L734.9203,733.7114 L737.9246,735.6914 L740.6053,737.1634 L743.6912,739.2717 L746.6889,741.2414 L749.4809,742.888 L749.3337,742.7383 L751.4548,744.8269 L753.5278,746.8665 L755.6954,749.0024 L757.4949,750.7638 L759.5,752.7344 L759.6706,752.8491 L760.5766,754.5027 L761.8118,756.3776 L763.5283,758.576 L764.3589,760.179 L765.9042,762.2623 L766.1017,762.3725 L767.0858,764.2819 L768.003,766.1539 L769.071,768.1102 L770.4878,770.2609 L771.4111,772.1364 L771.2901,772.0811 L772.5804,774.283 L773.0477,776.109 L774.4508,778.3623 L775.327,780.3751 L776.0612,782.3231 L776.1634,782.3605 L776.8475,784.4234 L777.8977,786.6204 L778.6172,788.6963 L779.1985,790.7215 L779.8945,792.7888 L780.0091,792.8215 L780.4502,794.9151 L781.4235,797.1606 L781.7948,799.2344 L782.4138,801.3788 L782.9514,803.5 L782.6869,803.4438 L783.2393,805.6472 L784.1104,807.9182 L784.5306,810.0935 L784.7892,812.2345 L785.272,814.4231 L785.1303,814.4024 L785.5007,816.6293 L785.6201,818.8196 L786.4292,821.1107 L786.897,823.3519 L786.8967,825.5246 L787.1297,825.5447 L787.3981,827.8004 L787.2237,830.018 L787.5166,832.2758 L787.5001,834.507 L787.8655,836.771 L787.9917,836.775 L788.0458,839.046 L788.2523,841.3217 L787.9755,843.5825 L788.0885,845.8553 L788.2189,848.1287 L788.4159,848.1325 L788.4266,850.4207 L787.9024,852.6985 L787.9996,854.9883 L788.1077,857.2784 L787.997,859.5642 L787.7261,859.5463 L788.0023,861.8704 L787.8086,864.1636 L787.4981,866.449 L787.4544,868.7521 L787.24,871.0438 L787.5619,871.0789 L786.8514,873.3268 L786.8784,875.6551 L786.6151,877.9518 L786.2897,880.2416 L785.9882,882.5341 L786.0501,882.5434 L785.6968,884.835 L785.0312,887.0803 L784.7881,889.3884 L784.4202,891.6779 L784.2818,894.0016 L784.3097,894.0067 L783.8961,896.2909 L783.5042,898.5791 L782.8822,900.8245 L782.5557,903.1249 L782.161,905.4125 L782.1089,905.401 L781.9125,907.7319 L781.3483,909.9817 L780.4534,912.1587 L780.1335,914.4624 L779.6662,916.7335 L779.4175,916.6707 L779.2247,919.0044 L778.7969,921.2788 L778.2036,923.5113 L777.2156,925.6441 L776.8375,927.931 L777.0359,927.9871 L775.8954,930.0492 L775.6742,932.3714 L774.8361,934.519 L774.381,936.775 L773.7152,938.9714 L773.8171,939.0031 L773.2404,941.2037 L772.0593,943.2162 L771.8915,945.544 L771.0902,947.6747 L770.3394,949.8211 L770.489,949.8717 L769.9365,952.0526 L768.9061,954.0721 L768.2599,956.2214 L767.5581,958.352 L766.7505,960.4467 L766.8329,960.4766 L765.9978,962.5202 L765.5427,964.7016 L764.2386,966.575 L763.9772,968.8267 L762.9887,970.8146 L762.73,970.7146 L761.9858,972.7433 L761.4474,974.8516 L760.6637,976.865 L759.6687,978.7969 L759.0941,980.8912 L759.2643,980.9607 L758.3415,982.8598 L757.7983,984.9141 L756.9764,986.8544 L755.7201,988.6172 L755.1071,990.6429 L754.9447,990.573 L754.2465,992.4989 L753.6366,994.4627 L752.8481,996.3497 L751.9987,998.2105 L751.0679,1000.0363 L750.9293,999.9739 L750.5156,1001.9527 L749.7043,1003.7525 L748.618,1005.4286 L747.7301,1007.1939 L747.0167,1009.0378 L746.8558,1008.9609 L745.3352,1012.3353 L743.8809,1015.7413 L742.2029,1019.0405 L740.4673,1022.3121 L739.0393,1025.7308 L739.2321,1025.8296 L737.3493,1028.5823 L736.221,1031.7217 L734.6828,1034.651 L733.1524,1037.5844 L731.4968,1040.4536 L731.7672,1040.6006 L730.0436,1042.8982 L728.6651,1045.3834 L727.628,1048.0542 L725.8351,1050.3142 L724.7111,1052.9377 L724.6208,1052.8861 L723.6142,1054.9586 L722.4547,1056.9437 L721.1485,1058.8449 L720.1288,1060.91 L719.004,1062.9149 " fill="none" style="stroke: #FFFFFF; stroke-width: 1.0;"/><polygon fill="#FFFFFF" points="716.444,1067.233,716.4846,1067.2901,717.9703,1065.9802,719.6938,1065.0053,721.3399,1063.9212,722.7314,1062.4785,724.4753,1061.5323,724.4689,1061.5072,723.344,1061.6746,722.2514,1061.9685,721.1812,1062.3504,720.0336,1062.4291,718.9945,1062.9324,719.1733,1062.9781,718.5109,1061.7842,718.3706,1060.7237,718.2939,1059.6795,717.8467,1058.5406,717.5944,1057.4515,717.617,1057.4542,717.3538,1059.4066,717.1933,1061.3711,716.9833,1063.3297,716.868,1065.2995,716.444,1067.233" style="stroke: #FFFFFF; stroke-width: 1.0;"/><!--link cerrarParametros to retorno--><path d="M505.5,692.7934 L505.7802,692.7934 L504.9476,703.7634 L505.7577,714.7334 L506.0329,725.7034 L504.5488,736.6734 L505.5,747.6434 " fill="none" style="stroke: #FFFFFF; stroke-width: 1.0;"/><polygon fill="#FFFFFF" points="505.5,752.7154,505.564,752.7438,506.1738,750.8593,507.1589,749.1415,508.0217,747.3695,508.4827,745.4188,509.5,743.7154,509.4817,743.6971,508.5995,744.4148,507.8096,745.225,507.0839,746.0993,506.137,746.7524,505.5,747.7154,505.6305,747.8459,504.5514,746.7668,503.8534,746.0688,503.2018,745.4172,502.2798,744.4952,501.5,743.7154,501.5208,743.7246,502.2903,745.511,503.1544,747.3395,503.9728,749.1477,504.8784,750.9947,505.5,752.7154" style="stroke: #FFFFFF; stroke-width: 1.0;"/><!--link retorno to *end--><path d="M530.095,793.7464 L530.1554,793.8177 L533.0214,796.1848 L536.2413,798.9699 L539.3459,801.6188 L542.0716,803.8203 L545.3219,806.6412 L545.2991,806.6152 L546.9025,807.9941 L548.6206,809.5039 L550.4186,811.1046 L551.9416,812.3918 L553.8497,814.1182 L554.0143,814.3011 L555.4652,815.5322 L557.3967,817.2973 L559.3869,819.1276 L561.0359,820.5788 L562.8643,822.2293 L562.8849,822.2516 L564.7365,823.9601 L566.6819,825.77 L568.5821,827.5309 L570.5686,829.3852 L572.2737,830.9353 L572.4795,831.1511 L574.4244,833.0061 L576.2366,834.7218 L578.2431,836.6413 L580.2587,838.5704 L581.9857,840.1968 L581.7607,839.9685 L584.1819,842.3672 L585.8623,844.0141 L588.1058,846.2325 L589.7694,847.8624 L591.9084,849.9747 L591.8866,849.9534 L594.1521,852.2563 L595.9094,854.0615 L597.9666,856.1604 L600.0489,858.2839 L601.9496,860.2296 L602.0843,860.3564 L603.9619,862.367 L606.0697,864.5942 L607.805,866.4709 L610.0958,868.8705 L612.0174,870.9224 L612.1983,871.0856 L614.1645,873.273 L616.2206,875.5414 L617.8592,877.4334 L619.8038,879.6014 L622.0195,882.0138 L621.8101,881.8337 L623.9686,884.2869 L625.8911,886.5371 L628.1559,889.0816 L629.8363,891.1237 L631.8641,893.4645 L631.7459,893.3682 L633.8617,895.8827 L635.4723,897.9855 L637.4421,900.3812 L639.7635,903.0634 L641.4589,905.2353 L641.6125,905.3532 L643.5684,907.8444 L645.0467,909.9688 L647.1233,912.5527 L649.0695,915.0364 L650.712,917.2869 L650.5414,917.1645 L652.4412,919.7207 L654.2852,922.2368 L656.2389,924.8317 L657.7659,927.1204 L659.5312,929.5801 L659.7025,929.6938 L660.9848,931.9432 L662.5978,934.4119 L664.6937,937.2013 L665.9004,939.4004 L667.8246,942.0757 L668.018,942.193 L669.4382,944.6551 L670.7929,947.0774 L672.2954,949.5894 L674.1393,952.3084 L675.5,954.7344 L675.382,954.673 L677.1587,957.5984 L678.1325,960.1067 L680.0192,963.0892 L681.392,965.8047 L682.6262,968.4483 L682.7263,968.4912 L683.8849,971.3474 L685.4018,974.3573 L686.5951,977.2284 L687.653,980.0415 L688.8233,982.9027 L688.9354,982.9431 L689.833,985.8359 L691.2511,988.9164 L692.0805,991.7846 L693.152,994.7401 L694.144,997.6669 L693.8856,997.5875 L694.8713,1000.5427 L696.1684,1003.5934 L697.0249,1006.5089 L697.7236,1009.3758 L698.6413,1012.3101 L698.5028,1012.2735 L699.2925,1015.1035 L699.837,1017.8686 L701.0554,1020.812 L701.9402,1023.6671 L702.3678,1026.4014 L702.5958,1026.4537 L703.2705,1029.0922 L703.512,1031.6312 L704.2107,1034.2752 L704.6067,1036.8497 L705.3763,1039.51 L705.5001,1039.5348 L705.9526,1041.8705 L706.5545,1044.2362 L706.6824,1046.507 L707.1926,1048.8543 L707.7198,1051.2051 L707.9139,1051.2392 L708.3144,1053.2189 L708.1879,1055.106 L708.6737,1057.1006 L709.1701,1059.0972 L709.451,1061.0559 " fill="none" style="stroke: #FFFFFF; stroke-width: 1.0;"/><polygon fill="#FFFFFF" points="710.264,1066.2033,710.3317,1066.2214,710.6402,1064.2648,711.3454,1062.4145,711.9214,1060.5296,712.0726,1058.5309,712.8119,1056.6897,712.791,1056.6745,712.0315,1057.521,711.3776,1058.4444,710.7971,1059.4212,709.9636,1060.2139,709.4845,1061.2644,709.593,1061.4137,708.4459,1060.429,707.6158,1059.8801,706.8243,1059.3844,705.8079,1058.5793,704.9098,1057.937,704.9288,1057.9493,705.9717,1059.5844,707.1014,1061.2758,708.1892,1062.9401,709.357,1064.6561,710.264,1066.2033" style="stroke: #FFFFFF; stroke-width: 1.0;"/><!--link retorno to throws--><path d="M488.904,793.7934 L489.1177,793.9747 L481.7288,801.3961 L475.5925,809.8804 L469.0483,818.0186 L461.1627,825.0185 L455.055,833.5271 L447.9464,841.1863 L441.626,849.5144 " fill="none" style="stroke: #FFFFFF; stroke-width: 1.0;"/><polygon fill="#FFFFFF" points="438.061,853.7154,438.0914,853.7785,439.7755,852.7358,441.6379,852.0631,443.4422,851.2699,445.0556,850.0805,446.9333,849.4395,446.9311,849.4137,445.7941,849.3904,444.6677,849.4973,443.5487,849.6946,442.4041,849.5801,441.2954,849.9024,441.4793,849.9175,440.9934,848.7576,441.0445,847.6419,441.1612,846.5315,440.8966,845.3898,440.8325,844.2645,440.8543,844.2709,440.268,846.1517,439.781,848.0616,439.2461,849.9575,438.8026,851.8801,438.061,853.7154" style="stroke: #FFFFFF; stroke-width: 1.0;"/><!--link cerrarParametros to throws--><path d="M486.287,692.7604 L486.3575,692.8216 L483.9668,695.1518 L481.9896,697.841 L479.8777,700.4134 L477.323,702.6012 L475.3812,705.3213 L475.354,705.3001 L472.9649,708.1223 L470.7134,711.0513 L468.5574,714.0546 L466.072,716.802 L464.048,719.9079 L464.2528,720.0443 L461.6828,722.9539 L459.7106,726.2617 L457.8115,729.6181 L455.4879,732.6918 L453.3875,735.9143 L453.4143,735.9284 L451.5974,739.2716 L449.9027,742.6794 L448.149,746.056 L446.5077,749.492 L444.5,752.7344 L444.7766,752.8459 L443.8082,755.2564 L442.6614,757.5948 L441.7758,760.0386 L440.9024,762.4874 L439.6412,764.7797 L439.3367,764.6797 L439.1033,767.3847 L437.8672,769.7604 L437.3934,772.3864 L436.1346,774.7547 L435.5193,777.3342 L435.4899,777.3263 L435.1484,779.9796 L434.1201,782.448 L433.4971,785.0254 L432.9081,787.6121 L432.0736,790.1326 L432.2542,790.1726 L431.5059,792.6877 L431.0663,795.271 L430.1273,797.7438 L429.9331,800.3816 L429.2438,802.9096 L429.4835,802.9533 L428.9832,805.4431 L428.602,807.9545 L427.6678,810.3653 L427.1389,812.8499 L426.9692,815.3998 L426.696,815.3591 L426.5873,817.7836 L426.1709,820.1622 L426.2008,822.6073 L425.4686,824.9388 L425.1894,827.3379 L425.038,827.3196 L425.021,829.5742 L424.3569,831.7506 L424.153,833.9826 L424.3993,836.2691 L423.8438,838.4585 L424.0365,838.4772 L423.9744,840.4976 L423.3127,842.4599 L423.4019,844.4949 L423.3276,846.5141 L422.872,848.4964 " fill="none" style="stroke: #FFFFFF; stroke-width: 1.0;"/><polygon fill="#FFFFFF" points="422.463,853.6234,422.5246,853.6568,423.2821,851.8267,424.4005,850.1926,425.4014,848.4947,426.0158,846.5868,427.1652,844.9695,427.1484,844.9498,426.212,845.5953,425.3603,846.3401,424.5674,847.154,423.5717,847.7299,422.8601,848.6392,423.0006,848.7589,421.9663,847.6419,421.3421,846.8744,420.7679,846.1495,419.9027,845.1766,419.1905,844.3341,419.2119,844.3417,419.8349,846.1884,420.5556,848.0696,421.2292,849.9342,421.9926,851.8304,422.463,853.6234" style="stroke: #FFFFFF; stroke-width: 1.0;"/><!--link throws to excepcion--><path d="M421.5,894.7934 L421.7802,894.7934 L420.9476,905.7634 L421.7577,916.7334 L422.0329,927.7034 L420.5488,938.6734 L421.5,949.6434 " fill="none" style="stroke: #FFFFFF; stroke-width: 1.0;"/><polygon fill="#FFFFFF" points="421.5,954.7154,421.564,954.7438,422.1738,952.8593,423.1589,951.1415,424.0217,949.3695,424.4827,947.4188,425.5,945.7154,425.4817,945.6971,424.5995,946.4148,423.8096,947.225,423.0839,948.0993,422.137,948.7524,421.5,949.7154,421.6305,949.8459,420.5514,948.7668,419.8534,948.0688,419.2018,947.4172,418.2798,946.4952,417.5,945.7154,417.5208,945.7246,418.2903,947.511,419.1544,949.3395,419.9728,951.1477,420.8784,952.9947,421.5,954.7154" style="stroke: #FFFFFF; stroke-width: 1.0;"/><!--link excepcion to otraComa--><path d="M411.104,995.7934 L411.1966,995.8053 L410.5911,998.3349 L410.5288,1000.9344 L410.2895,1003.5111 L409.4686,1006.0129 L409.4529,1008.6184 L409.4184,1008.6168 L409.127,1011.4391 L409.0095,1014.2698 L409.0129,1017.1064 L408.5997,1019.9229 L408.77,1022.7675 L409.016,1022.7724 L408.547,1025.6368 L408.7963,1028.5155 L409.1332,1031.3959 L408.9602,1034.2663 L409.0554,1037.1419 L409.0856,1037.1447 L409.292,1039.8408 L409.6358,1042.5497 L409.9134,1045.2524 L410.3175,1047.9669 L410.309,1050.6431 " fill="none" style="stroke: #FFFFFF; stroke-width: 1.0;"/><polygon fill="#FFFFFF" points="411.111,1055.7158,411.1787,1055.7339,411.4867,1053.7772,412.1915,1051.9268,412.7671,1050.0417,412.9178,1048.043,413.6566,1046.2016,413.6357,1046.1864,412.8764,1047.0331,412.2227,1047.9566,411.6424,1048.9335,410.8091,1049.7265,410.3303,1050.7771,410.4388,1050.9264,409.2916,1049.9419,408.4613,1049.3932,407.6696,1048.8978,406.653,1048.0929,405.7548,1047.4508,405.7738,1047.4631,406.8171,1049.098,407.9472,1050.7891,409.0354,1052.4531,410.2036,1054.1689,411.111,1055.7158" style="stroke: #FFFFFF; stroke-width: 1.0;"/><!--link otraComa to excepcion--><path d="M432.5,1055.7158 L432.5926,1055.7284 L432.6679,1053.1271 L433.2858,1050.6 L433.727,1048.0487 L433.5872,1045.4181 L434.2516,1042.8973 L434.2171,1042.8955 L434.2076,1040.0583 L434.372,1037.23 L434.6572,1034.4079 L434.5259,1031.5645 L434.978,1028.751 L435.224,1028.7561 L434.6382,1025.87 L434.7706,1022.9989 L434.9906,1020.1297 L434.7008,1017.2498 L434.6791,1014.3755 L434.7093,1014.3784 L434.4002,1011.6729 L434.2284,1008.9808 L433.9904,1006.2822 L433.8789,1003.596 L433.355,1000.8694 " fill="none" style="stroke: #FFFFFF; stroke-width: 1.0;"/><polygon fill="#FFFFFF" points="432.507,995.7934,432.5748,995.8109,431.8808,997.666,431.5844,999.6239,431.1584,1001.5483,430.3067,1003.3627,430.0444,1005.3294,430.0233,1005.3143,430.586,1004.3259,431.2549,1003.4134,431.9977,1002.5536,432.4859,1001.512,433.3308,1000.7251,433.438,1000.8753,434.1296,1001.2113,435.1342,1001.9859,436.177,1002.814,436.9976,1003.3308,437.9351,1004.0114,437.9541,1004.0239,436.8406,1002.3619,435.8135,1000.757,434.7448,999.1245,433.7555,997.5446,432.507,995.7934" style="stroke: #FFFFFF; stroke-width: 1.0;"/><!--link excepcion to *end--><path d="M477.759,995.4404 L477.8495,995.7056 L487.1351,998.1793 L496.9514,1002.2077 L506.5949,1005.7298 L515.67,1007.587 L525.4984,1011.6509 L534.9027,1014.4725 L544.4758,1017.7884 L554.1662,1021.448 L563.4523,1023.9234 L573.5431,1028.7561 L582.5877,1030.5239 L592.3286,1034.3313 L602.1544,1038.3876 L611.486,1040.9961 L621.1069,1044.4521 L630.6183,1047.5874 L640.2635,1051.1147 L649.8442,1054.4529 L659.548,1058.1519 L669.1394,1061.5213 L678.6975,1064.7934 L688.0691,1067.5193 L697.514,1070.4597 " fill="none" style="stroke: #FFFFFF; stroke-width: 1.0;"/><polygon fill="#FFFFFF" points="702.325,1072.1024,702.3726,1072.1538,700.7862,1070.6623,699.4789,1069.4722,698.0808,1068.1839,696.3837,1066.573,695.1004,1065.4087,695.0771,1065.3973,695.4713,1066.3617,695.9828,1067.3836,696.5757,1068.4455,696.8878,1069.3695,697.5932,1070.4867,697.6746,1070.6524,696.4851,1070.7967,695.533,1071.4247,694.6099,1072.1117,693.5183,1072.4553,692.5153,1072.9796,692.5173,1073.0022,694.4763,1072.7935,696.4445,1072.688,698.4082,1072.5326,700.3804,1072.4723,702.325,1072.1024" style="stroke: #FFFFFF; stroke-width: 1.0;"/><!--
@startuml
skinparam titleBorderColor #222222
skinparam titleBackgroundColor #222222
skinparam titlefontColor #orange
skinparam titleFontStyle bold
skinparam titleFontSize 30

skinparam handwritten true
skinparam shadowing false
skinparam backgroundColor #222222
skinparam padding 3
skinparam StateStartColor #white
skinparam StateEndColor #white

skinparam note {
    backgroundColor #222222
    fontStyle bold
    borderColor #white
    FontColor #yellow
     fontSize 20
}

skinparam state {
    fontColor #white
    fontColor<<Reservada>> #cyan
    fontColor<<NoTerminal>> #orange
    fontStyle bold
    arrowColor #white
    backgroundColor #222222
    borderColor #white
    circleCharacterFontName #white
    fontSize 20
}

hide empty description

title Sintaxis: Metodo

state throws <<Reservada>>
state visibilidad <<NoTerminal>>
state otraComa as "coma"

note right of metodo: identificador
note right of abrirParametros: <color:cyan>(</color>
note right of parametro: identificador
note right of tipoParametro: <color:cyan>:</color> identificador
note right of coma: <color:cyan>,</color>
note right of cerrarParametros: <color:cyan>)</color>
note right of retorno: <color:cyan>:</color> identificador
note right of excepcion: identificador
note right of otraComa: <color:cyan>,</color>

[*] -down-> visibilidad
visibilidad -down-> metodo
[*] -down-> metodo
metodo -down-> abrirParametros
abrirParametros -down-> cerrarParametros
abrirParametros -down-> parametro
parametro -down-> tipoParametro
parametro -down-> coma
tipoParametro -down-> coma
coma -down-> parametro
tipoParametro -down-> cerrarParametros
parametro -down-> cerrarParametros
cerrarParametros -down-> [*]
cerrarParametros -down-> retorno
retorno -down-> [*]
retorno -down-> throws
cerrarParametros -down-> throws
throws -down-> excepcion
excepcion -down-> otraComa
otraComa -down-> excepcion
excepcion -down-> [*]

@enduml

PlantUML version 1.2019.05(Sat Apr 20 18:45:36 CEST 2019)
(GPL source distribution)
Java Runtime: Java(TM) SE Runtime Environment
JVM: Java HotSpot(TM) 64-Bit Server VM
Java Version: 11.0.8+10-LTS
Operating System: Windows 10
OS Version: 10.0
Default Encoding: windows-1252
Language: es
Country: ES
--></g></svg>