<?xml version="1.0" encoding="UTF-8" standalone="no"?><svg xmlns="http://www.w3.org/2000/svg" xmlns:xlink="http://www.w3.org/1999/xlink" contentScriptType="application/ecmascript" contentStyleType="text/css" height="1177px" preserveAspectRatio="none" style="width:785px;height:1177px;background:#222222;" version="1.1" viewBox="0 0 785 1177" width="785px" zoomAndPan="magnify"><defs/><g><polygon fill="#222222" points="162,2,162,2.2102,171.9362,1.5857,181.8723,2.1933,191.8085,2.3997,201.7447,1.2866,211.6809,1.9223,221.617,1.5735,231.5532,1.6165,241.4894,1.9318,251.4255,1.3086,261.3617,2.5536,271.2979,1.3697,281.234,1.8022,291.1702,2.4319,301.1064,1.9142,311.0426,2.0682,320.9787,1.9681,330.9149,2.1785,340.8511,2.2391,350.7872,2.5857,360.7234,2.6711,370.6596,2.6793,380.5957,2.2546,390.5319,2.4636,400.4681,2.7022,410.4043,1.2788,420.3404,2.6785,430.2766,1.7035,440.2128,2.5338,450.1489,1.505,460.0851,1.9315,470.0213,2.7416,479.9574,1.9513,489.8936,2.1053,499.8298,2.3386,509.766,2.4162,519.7021,1.9961,529.6383,2.2872,539.5745,1.4276,549.5106,2.2844,559.4468,2.5482,569.383,2.4445,579.3191,2.613,589.2553,1.5169,599.1915,1.3478,609.1277,1.3786,619.0638,1.9411,629,2,628.8035,2,629.6814,12.7469,628.8253,23.4938,628.6569,34.2406,629.2283,44.9875,629,55.7344,629,55.0675,619.0638,55.2152,609.1277,56.3833,599.1915,56.17,589.2553,56.4689,579.3191,55.4126,569.383,56.0536,559.4468,56.3248,549.5106,55.262,539.5745,55.6385,529.6383,55.8604,519.7021,56.3861,509.766,55.7302,499.8298,56.1969,489.8936,55.1806,479.9574,55.0571,470.0213,56.238,460.0851,55.0174,450.1489,56.2433,440.2128,55.941,430.2766,55.4665,420.3404,55.3806,410.4043,56.1931,400.4681,55.435,390.5319,56.3262,380.5957,55.1816,370.6596,56.3518,360.7234,56.2187,350.7872,55.9793,340.8511,55.7816,330.9149,56.461,320.9787,56.348,311.0426,55.9036,301.1064,56.0026,291.1702,55.6041,281.234,56.4508,271.2979,55.8892,261.3617,55.9069,251.4255,55.126,241.4894,55.3292,231.5532,56.2651,221.617,56.1641,211.6809,55.6914,201.7447,55.4122,191.8085,55.5154,181.8723,55.0482,171.9362,56.1491,162,55.7344,162.7396,55.7344,162.5264,44.9875,162.6949,34.2406,161.8633,23.4938,162.0872,12.7469,162,2" style="stroke: #222222; stroke-width: 1.5;"/><text fill="#FFA500" font-family="sans-serif" font-size="30" font-weight="bold" lengthAdjust="spacingAndGlyphs" textLength="445" x="173" y="41.1426">Sintaxis: Conector Discontinuo</text><polygon fill="#222222" points="18.5,237.2344,18.5,237.4446,28.6429,236.8201,38.7857,237.4277,48.9286,237.6341,59.0714,236.521,69.2143,237.1567,79.3571,236.8079,89.5,236.8509,99.6429,237.1662,109.7857,236.543,119.9286,237.788,130.0714,236.6041,140.2143,237.0366,150.3571,237.6663,160.5,237.2344,160.4891,237.208,162.2765,237.9876,164.0315,238.689,165.8261,239.4861,167.6016,240.237,169.3388,240.8955,169.5192,240.9703,170.2777,242.7489,171.0125,244.5177,171.6139,246.2313,172.4105,248.0257,173,249.7344,173.2341,249.7344,172.7596,252.9656,173.2262,256.1969,172.9012,259.4281,173.1779,262.6594,173,265.8906,172.8476,265.8275,172.2467,267.6497,171.7639,269.5208,170.7883,271.1877,170.1035,272.9751,169.3388,274.7295,169.382,274.8337,167.6242,275.5899,165.8028,276.1927,164.0722,277.0146,162.1947,277.4821,160.5,278.3906,160.5,278.675,150.3571,278.9388,140.2143,278.8352,130.0714,279.0036,119.9286,277.9075,109.7857,277.7384,99.6429,277.7692,89.5,278.3317,79.3571,278.1941,69.2143,279.072,59.0714,278.2159,48.9286,278.0476,38.7857,278.6189,28.6429,277.7238,18.5,278.3906,18.4338,278.2308,16.815,277.8582,15.02,277.0603,13.2904,276.4201,11.3879,275.3626,9.6612,274.7295,9.7595,274.7702,9.1108,273.037,8.0512,271.1337,7.4349,269.4139,6.771,267.6745,6,265.8906,6.2173,265.8906,5.9986,262.6594,6.1542,259.4281,5.8154,256.1969,5.7742,252.9656,6,249.7344,6.1551,249.7986,6.5114,247.8752,7.6212,246.2638,8.2603,244.4574,8.8464,242.6291,9.6612,240.8955,9.616,240.7866,11.4875,240.3046,13.1585,239.3389,15.04,238.8811,16.6617,237.7964,18.5,237.2344" style="stroke: #FFFFFF; stroke-width: 1.5;"/><text fill="#FFFFFF" font-family="sans-serif" font-size="20" font-weight="bold" lengthAdjust="spacingAndGlyphs" textLength="151" x="14" y="265.9961">direccionOrigen</text><path d="M208,237.2344 L208,253.7344 L173.031,257.7344 L208,261.7344 L208,278.3906 A0,0 0 0 0 208,278.3906 L259,278.3906 A0,0 0 0 0 259,278.3906 L259,247.2344 L249,237.2344 L208,237.2344 A0,0 0 0 0 208,237.2344 " fill="#222222" style="stroke: #FFFFFF; stroke-width: 1.0;"/><path d="M249,237.2344 L249.1868,237.2344 L248.6317,239.2344 L249.1718,241.2344 L249.3553,243.2344 L248.3659,245.2344 L249,247.2344 L249,247.1653 L251,246.8553 L253,246.8935 L255,247.1738 L257,246.6198 L259,247.2344 L259.348,247.5824 L256.6038,244.8382 L254.8757,243.1101 L253.2715,241.5059 L250.9461,239.1805 L249,237.2344 " fill="#222222" style="stroke: #FFFFFF; stroke-width: 1.0;"/><text fill="#00FFFF" font-family="sans-serif" font-size="20" font-weight="bold" lengthAdjust="spacingAndGlyphs" textLength="12" x="223" y="265.9961">&lt;</text><polygon fill="#222222" points="134.5,955.2344,134.5,955.4446,144.5,954.8201,154.5,955.4277,164.5,955.6341,174.5,954.521,184.5,955.1567,194.5,954.8079,204.5,954.8509,214.5,955.1662,224.5,954.543,234.5,955.788,244.5,954.6041,254.5,955.0366,264.5,955.6663,274.5,955.1486,284.5,955.2344,284.5087,955.2554,286.2637,955.9568,288.0583,956.7538,289.8338,957.5047,291.6458,958.3437,293.3388,958.8955,293.5455,958.9811,294.2803,960.75,294.8817,962.4636,295.6783,964.258,296.484,966.0562,297,967.7344,296.7596,967.7344,297.2262,970.9656,296.9012,974.1969,297.1779,977.4281,296.835,980.6594,297,983.8906,296.9789,983.8819,296.4962,985.753,295.5205,987.4199,294.8357,989.2074,294.1754,991.0049,293.3388,992.7295,293.3919,992.8576,291.5706,993.4605,289.8399,994.2824,287.9625,994.7499,286.304,995.746,284.5,996.3906,284.5,996.9388,274.5,996.8352,264.5,997.0036,254.5,995.9075,244.5,995.7384,234.5,995.7692,224.5,996.3317,214.5,996.1941,204.5,997.072,194.5,996.2159,184.5,996.0476,174.5,996.6189,164.5,995.7238,154.5,995.8715,144.5,997.0396,134.5,996.3906,134.5556,996.5248,132.8259,995.8846,130.9234,994.8271,129.2374,994.2922,127.5042,993.6435,125.6612,992.7295,125.5157,992.6692,124.8994,990.9495,124.2355,989.21,123.6652,987.5093,122.7309,985.6579,122,983.8906,122.1542,983.8906,121.8154,980.6594,121.7742,977.4281,122.1679,974.1969,121.761,970.9656,122,967.7344,122.1567,967.7993,122.7959,965.993,123.382,964.1647,124.0878,962.3859,125.0702,960.7218,125.6612,958.8955,125.623,958.8034,127.5044,958.3456,129.1262,957.2609,131.0432,956.889,132.794,956.1158,134.5,955.2344" style="stroke: #FFFFFF; stroke-width: 1.5;"/><text fill="#FFFFFF" font-family="sans-serif" font-size="20" font-weight="bold" lengthAdjust="spacingAndGlyphs" textLength="159" x="130" y="983.9961">direccionDestino</text><path d="M332,955.2344 L332,971.7344 L297.086,975.7344 L332,979.7344 L332,996.3906 A0,0 0 0 0 332,996.3906 L383,996.3906 A0,0 0 0 0 383,996.3906 L383,965.2344 L373,955.2344 L332,955.2344 A0,0 0 0 0 332,955.2344 " fill="#222222" style="stroke: #FFFFFF; stroke-width: 1.0;"/><path d="M373,955.2344 L373.1868,955.2344 L372.6317,957.2344 L373.1718,959.2344 L373.3553,961.2344 L372.3659,963.2344 L373,965.2344 L373,965.1653 L375,964.8553 L377,964.8935 L379,965.1738 L381,964.6198 L383,965.2344 L383.348,965.5824 L380.6038,962.8382 L378.8757,961.1101 L377.2715,959.5059 L374.9461,957.1805 L373,955.2344 " fill="#222222" style="stroke: #FFFFFF; stroke-width: 1.0;"/><text fill="#00FFFF" font-family="sans-serif" font-size="20" font-weight="bold" lengthAdjust="spacingAndGlyphs" textLength="12" x="347" y="983.9961">&gt;</text><polygon fill="#FFFFFF" points="446.5552,79.1668,445.0894,81.1696,443.3556,84.1032,440.876,86.0802,438.2703,87.1613,436.1927,87.2551,433.5224,85.9031,431.0029,85.0198,429.0905,83.2264,428.0873,81.1733,427.4924,79.5385,426.9096,77.4032,425.9636,75.5657,426.6906,73.7717,427.3275,71.8064,429.7175,70.2521,431.3991,68.2354,433.4804,67.5657,435.9547,66.989,439.1276,67.3316,440.8655,68.1512,442.8861,68.5227,445.3429,71.0398,446.1993,73.6971,446.5714,75.5101,446.15,78.4979" style="stroke: none; stroke-width: 1.0;"/><polygon fill="none" points="446.5552,1159.1668,445.0894,1161.1696,443.3556,1164.1032,440.876,1166.0802,438.2703,1167.1613,436.1927,1167.2551,433.5224,1165.9031,431.0029,1165.0198,429.0905,1163.2264,428.0873,1161.1733,427.4924,1159.5385,426.9096,1157.4032,425.9636,1155.5657,426.6906,1153.7717,427.3275,1151.8064,429.7175,1150.2521,431.3991,1148.2354,433.4804,1147.5657,435.9547,1146.989,439.1276,1147.3316,440.8655,1148.1512,442.8861,1148.5227,445.3429,1151.0398,446.1993,1153.6971,446.5714,1155.5101,446.15,1158.4979" style="stroke: #FFFFFF; stroke-width: 1.0;"/><polygon fill="#FFFFFF" points="443.0331,1158.6938,442.1536,1159.8955,441.1134,1161.6557,439.6256,1162.8419,438.0622,1163.4905,436.8156,1163.5468,435.2135,1162.7356,433.7017,1162.2056,432.5543,1161.1296,431.9524,1159.8977,431.5955,1158.9168,431.2458,1157.6357,430.6782,1156.5332,431.1143,1155.4567,431.4965,1154.2776,432.9305,1153.345,433.9394,1152.135,435.1882,1151.7332,436.6728,1151.3871,438.5766,1151.5927,439.6193,1152.0845,440.8317,1152.3074,442.3057,1153.8176,442.8196,1155.412,443.0429,1156.4998,442.79,1158.2925" style="stroke: none; stroke-width: 1.0;"/><polygon fill="#222222" points="307,146.7344,307,146.9446,316.9615,146.3201,326.9231,146.9277,336.8846,147.1341,346.8462,146.021,356.8077,146.6567,366.7692,146.3079,376.7308,146.3509,386.6923,146.6662,396.6538,146.043,406.6154,147.288,416.5769,146.1041,426.5385,146.5366,436.5,147.1663,446.4615,146.6486,456.4231,146.8026,466.3846,146.7024,476.3462,146.9129,486.3077,146.9735,496.2692,147.3201,506.2308,147.4054,516.1923,147.4136,526.1538,146.989,536.1154,147.198,546.0769,147.4366,556.0385,146.0132,566,146.7344,566.0866,146.9433,567.7299,147.3753,569.6036,148.3632,571.2402,148.7786,573.0623,149.6422,574.8388,150.3955,575.0672,150.4901,575.5561,152.1571,576.3357,153.9445,577.1398,155.742,577.8959,157.5197,578.5,159.2344,578.4961,159.2344,578.7872,169.0922,577.9276,178.95,578.7844,188.8078,579.0482,198.6656,578.9445,208.5234,579.113,218.3813,578.0169,228.2391,577.8478,238.0969,577.8786,247.9547,578.4411,257.8125,578.3035,267.6703,579.1814,277.5281,578.3253,287.3859,578.1569,297.2438,578.7283,307.1016,577.8332,316.9594,577.9809,326.8172,579.149,336.675,578.9357,346.5328,578.5,356.3906,578.7262,356.4843,577.6687,358.1173,577.1338,359.9669,576.4851,361.7692,575.4256,363.4014,574.8388,365.2295,574.8266,365.1999,573.0871,366.0005,571.3864,366.8946,569.535,367.4249,567.8268,368.3008,566,368.8906,566,368.3368,556.0385,368.2134,546.0769,369.3942,536.1154,368.1737,526.1538,369.3996,516.1923,369.0973,506.2308,368.6227,496.2692,368.5369,486.3077,369.3494,476.3462,368.5913,466.3846,369.4825,456.4231,368.3379,446.4615,369.5081,436.5,369.3749,426.5385,369.1356,416.5769,368.9378,406.6154,369.6172,396.6538,369.5042,386.6923,369.0599,376.7308,369.1588,366.7692,368.7604,356.8077,369.6071,346.8462,369.0455,336.8846,369.0632,326.9231,368.2823,316.9615,368.4854,307,368.8906,307.0677,369.0541,305.2871,368.2907,303.459,367.4129,301.6556,366.5947,299.901,365.8943,298.1612,365.2295,297.9499,365.1419,297.5567,363.5146,296.9245,361.7883,296.1266,359.9933,295.4462,358.247,294.5,356.3906,294.3633,356.3906,294.5872,346.5328,294.1124,336.675,294.784,326.8172,294.7468,316.9594,295.0524,307.1016,294.2703,297.2438,294.3656,287.3859,294.9435,277.5281,295.0673,267.6703,293.9875,257.8125,294.3061,247.9547,294.6493,238.0969,293.8892,228.2391,294.8534,218.3813,294.758,208.5234,294.3992,198.6656,294.6422,188.8078,295.2287,178.95,294.1871,169.0922,294.5,159.2344,294.597,159.2746,295.3202,157.503,296.0001,155.7136,296.7401,153.9491,297.4639,152.1778,298.1612,150.3955,298.0815,150.2033,299.8778,149.5399,301.6378,148.7889,303.4726,148.2185,305.2435,147.4937,307,146.7344" style="stroke: #FFFFFF; stroke-width: 1.5;"/><polygon fill="#222222" points="310,190.8906,310,191.1008,320.12,190.4763,330.24,191.0839,340.36,191.2903,350.48,190.1772,360.6,190.8129,370.72,190.4641,380.84,190.5071,390.96,190.8225,401.08,190.1993,411.2,191.4443,421.32,190.2603,431.44,190.6929,441.56,191.3226,451.68,190.8048,461.8,190.9589,471.92,190.8587,482.04,191.0692,492.16,191.1298,502.28,191.4763,512.4,191.5617,522.52,191.5699,532.64,191.1453,542.76,191.3542,552.88,191.5929,563,190.8906,562.908,190.6685,564.8543,191.8318,566.4977,192.2638,568.3714,193.2517,570.0079,193.6671,571.8388,194.5518,571.8177,194.5431,572.7995,196.4142,573.2883,198.0811,574.068,199.8685,574.8721,201.6661,575.5,203.3906,575.9162,203.3906,575.4961,213.3906,575.7872,223.3906,574.9276,233.3906,575.7844,243.3906,576.0482,253.3906,575.9445,263.3906,576.113,273.3906,575.0169,283.3906,574.8478,293.3906,574.8786,303.3906,575.4411,313.3906,575.3035,323.3906,576.1814,333.3906,575.3253,343.3906,575.5,353.3906,575.3944,353.3469,574.8381,355.1875,573.8302,356.8411,573.1434,358.6277,572.7709,360.5445,571.8388,362.2295,571.8944,362.3636,570.1648,363.1879,568.2623,363.5948,566.5763,364.5245,564.8431,365.3402,563,365.8906,563,365.4182,552.88,365.7948,542.76,366.0166,532.64,366.5424,522.52,365.8864,512.4,366.3532,502.28,365.3368,492.16,365.2134,482.04,366.3942,471.92,365.1737,461.8,366.3996,451.68,366.0973,441.56,365.6227,431.44,365.5369,421.32,366.3494,411.2,365.5913,401.08,366.4825,390.96,365.3379,380.84,366.5081,370.72,366.3749,360.6,366.1356,350.48,365.9378,340.36,366.6172,330.24,366.5042,320.12,366.0599,310,365.8906,310.0342,365.9732,308.2156,365.1183,306.5559,364.6468,304.7165,363.7416,302.9509,363.0148,301.1612,362.2295,300.9738,362.1519,300.3041,360.41,299.8601,358.7616,299.0968,356.981,298.219,355.1529,297.5,353.3906,297.1778,353.3906,297.2811,343.3906,296.8138,333.3906,297.9147,323.3906,298.2396,313.3906,298.0264,303.3906,298.1949,293.3906,297.3633,283.3906,297.5872,273.3906,297.1124,263.3906,297.784,253.3906,297.7468,243.3906,298.0524,233.3906,297.2703,223.3906,297.3656,213.3906,297.5,203.3906,297.6366,203.4472,298.4069,201.6952,298.8066,199.7897,299.637,198.0626,300.4749,196.3386,301.1612,194.5518,301.0832,194.3637,302.974,193.9284,304.7296,193.1668,306.4516,192.3241,308.2504,191.6667,310,190.8906" style="stroke: #222222; stroke-width: 1.0;"/><path d="M294.5,187.8906 L294.5,188.1709 L304.6429,187.3382 L314.7857,188.1483 L324.9286,188.4235 L335.0714,186.9394 L345.2143,187.787 L355.3571,187.322 L365.5,187.3793 L375.6429,187.7997 L385.7857,186.9688 L395.9286,188.6288 L406.0714,187.0503 L416.2143,187.6269 L426.3571,188.4666 L436.5,187.7763 L446.6429,187.9816 L456.7857,187.848 L466.9286,188.1287 L477.0714,188.2095 L487.2143,188.6715 L497.3571,188.7854 L507.5,188.7963 L517.6429,188.2301 L527.7857,188.5087 L537.9286,188.8269 L548.0714,186.929 L558.2143,188.7953 L568.3571,187.4953 L578.5,187.8906 " fill="#222222" style="stroke: #FFFFFF; stroke-width: 1.5;"/><text fill="#FFFFFF" font-family="sans-serif" font-size="20" font-weight="bold" lengthAdjust="spacingAndGlyphs" textLength="100" x="386.5" y="175.4961">tipoOrigen</text><polygon fill="#222222" points="318,256.8906,318,257.1008,327.9286,256.4763,337.8571,257.0839,347.7857,257.2903,357.7143,256.1772,367.6429,256.8129,377.5714,256.4641,387.5,256.5071,397.4286,256.8225,407.3571,256.1993,417.2857,257.4443,427.2143,256.2603,437.1429,256.6929,447.0714,257.3226,457,256.8906,456.9891,256.8642,458.7765,257.6439,460.5315,258.3453,462.3261,259.1423,464.1016,259.8932,465.8388,260.5518,466.0192,260.6265,466.7777,262.4052,467.5125,264.174,468.1139,265.8876,468.9105,267.682,469.5,269.3906,469.7341,269.3906,469.2596,272.6219,469.7262,275.8531,469.4012,279.0844,469.6779,282.3156,469.5,285.5469,469.3476,285.4837,468.7467,287.3059,468.2639,289.177,467.2883,290.844,466.6035,292.6314,465.8388,294.3857,465.882,294.49,464.1242,295.2461,462.3028,295.849,460.5722,296.6709,458.6947,297.1384,457,298.0469,457,298.3313,447.0714,298.5951,437.1429,298.4914,427.2143,298.6599,417.2857,297.5638,407.3571,297.3947,397.4286,297.4255,387.5,297.988,377.5714,297.8503,367.6429,298.7283,357.7143,297.8722,347.7857,297.7038,337.8571,298.2751,327.9286,297.38,318,298.0469,317.9338,297.887,316.315,297.5145,314.52,296.7166,312.7904,296.0764,310.8879,295.0188,309.1612,294.3857,309.2595,294.4264,308.6108,292.6933,307.5512,290.7899,306.9349,289.0702,306.271,287.3307,305.5,285.5469,305.7173,285.5469,305.4986,282.3156,305.6542,279.0844,305.3154,275.8531,305.2742,272.6219,305.5,269.3906,305.6551,269.4549,306.0114,267.5314,307.1212,265.92,307.7603,264.1137,308.3464,262.2854,309.1612,260.5518,309.116,260.4428,310.9875,259.9608,312.6585,258.9951,314.54,258.5374,316.1617,257.4526,318,256.8906" style="stroke: #FFFFFF; stroke-width: 1.5;"/><text fill="#FFFFFF" font-family="sans-serif" font-size="20" font-weight="bold" lengthAdjust="spacingAndGlyphs" textLength="148" x="313.5" y="285.6523">implementacion</text><path d="M488,256.8906 L488,273.3906 L469.637,277.3906 L488,281.3906 L488,298.0469 A0,0 0 0 0 488,298.0469 L545,298.0469 A0,0 0 0 0 545,298.0469 L545,266.8906 L535,256.8906 L488,256.8906 A0,0 0 0 0 488,256.8906 " fill="#222222" style="stroke: #FFFFFF; stroke-width: 1.0;"/><path d="M535,256.8906 L535.1868,256.8906 L534.6317,258.8906 L535.1718,260.8906 L535.3553,262.8906 L534.3659,264.8906 L535,266.8906 L535,266.8215 L537,266.5115 L539,266.5497 L541,266.83 L543,266.2761 L545,266.8906 L545.348,267.2386 L542.6038,264.4945 L540.8757,262.7663 L539.2715,261.1621 L536.9461,258.8367 L535,256.8906 " fill="#222222" style="stroke: #FFFFFF; stroke-width: 1.0;"/><text fill="#00FFFF" font-family="sans-serif" font-size="20" font-weight="bold" lengthAdjust="spacingAndGlyphs" textLength="18" x="503" y="285.6523">&lt;|</text><polygon fill="#FFFFFF" points="397.5552,213.323,396.0894,215.3259,394.3556,218.2594,391.876,220.2364,389.2703,221.3175,387.1927,221.4114,384.5224,220.0593,382.0029,219.176,380.0905,217.3826,379.0873,215.3295,378.4924,213.6947,377.9096,211.5594,376.9636,209.722,377.6906,207.9279,378.3275,205.9626,380.7175,204.4083,382.3991,202.3916,384.4804,201.7219,386.9547,201.1452,390.1276,201.4879,391.8655,202.3075,393.8861,202.679,396.3429,205.1961,397.1993,207.8533,397.5714,209.6664,397.15,212.6541" style="stroke: none; stroke-width: 1.0;"/><polygon fill="none" points="397.5552,346.323,396.0894,348.3259,394.3556,351.2594,391.876,353.2364,389.2703,354.3175,387.1927,354.4114,384.5224,353.0593,382.0029,352.176,380.0905,350.3826,379.0873,348.3295,378.4924,346.6947,377.9096,344.5594,376.9636,342.722,377.6906,340.9279,378.3275,338.9626,380.7175,337.4083,382.3991,335.3916,384.4804,334.7219,386.9547,334.1452,390.1276,334.4879,391.8655,335.3075,393.8861,335.679,396.3429,338.1961,397.1993,340.8533,397.5714,342.6664,397.15,345.6541" style="stroke: #FFFFFF; stroke-width: 1.0;"/><polygon fill="#FFFFFF" points="394.0331,345.8501,393.1536,347.0518,392.1134,348.8119,390.6256,349.9981,389.0622,350.6468,387.8156,350.7031,386.2135,349.8918,384.7017,349.3619,383.5543,348.2858,382.9524,347.054,382.5955,346.0731,382.2458,344.7919,381.6782,343.6894,382.1143,342.613,382.4965,341.4338,383.9305,340.5012,384.9394,339.2912,386.1882,338.8894,387.6728,338.5434,389.5766,338.749,390.6193,339.2407,391.8317,339.4636,393.3057,340.9739,393.8196,342.5682,394.0429,343.6561,393.79,345.4487" style="stroke: none; stroke-width: 1.0;"/><!--link *start*tipoOrigen to implementacionOrigen--><path d="M387.5,221.1316 L387.5934,221.1316 L387.3159,227.2374 L387.5859,233.3432 L387.6776,239.449 L387.1829,245.5548 L387.5,251.6606 " fill="none" style="stroke: #FFFFFF; stroke-width: 1.0;"/><polygon fill="#FFFFFF" points="387.5,256.7963,387.564,256.8248,388.1738,254.9402,389.1589,253.2225,390.0217,251.4504,390.4827,249.4997,391.5,247.7963,391.4817,247.778,390.5995,248.4958,389.8096,249.3059,389.0839,250.1803,388.137,250.8334,387.5,251.7963,387.6305,251.9268,386.5514,250.8478,385.8534,250.1497,385.2018,249.4981,384.2798,248.5761,383.5,247.7963,383.5208,247.8056,384.2903,249.592,385.1544,251.4205,385.9728,253.2287,386.8784,255.0756,387.5,256.7963" style="stroke: #FFFFFF; stroke-width: 1.0;"/><!--link implementacionOrigen to *end*tipoOrigen--><path d="M387.5,298.0932 L387.5934,298.0932 L387.3159,304.18 L387.5859,310.2668 L387.6776,316.3536 L387.1829,322.4403 L387.5,328.5271 " fill="none" style="stroke: #FFFFFF; stroke-width: 1.0;"/><polygon fill="#FFFFFF" points="387.5,333.7178,387.564,333.7463,388.1738,331.8617,389.1589,330.144,390.0217,328.3719,390.4827,326.4212,391.5,324.7178,391.4817,324.6995,390.5995,325.4173,389.8096,326.2274,389.0839,327.1018,388.137,327.7549,387.5,328.7178,387.6305,328.8483,386.5514,327.7693,385.8534,327.0712,385.2018,326.4196,384.2798,325.4976,383.5,324.7178,383.5208,324.7271,384.2903,326.5135,385.1544,328.342,385.9728,330.1502,386.8784,331.9971,387.5,333.7178" style="stroke: #FFFFFF; stroke-width: 1.0;"/><polygon fill="#222222" points="502,864.7344,502,864.9446,511.9615,864.3201,521.9231,864.9277,531.8846,865.1341,541.8462,864.021,551.8077,864.6567,561.7692,864.3079,571.7308,864.3509,581.6923,864.6662,591.6538,864.043,601.6154,865.288,611.5769,864.1041,621.5385,864.5366,631.5,865.1663,641.4615,864.6486,651.4231,864.8026,661.3846,864.7024,671.3462,864.9129,681.3077,864.9735,691.2692,865.3201,701.2308,865.4054,711.1923,865.4136,721.1538,864.989,731.1154,865.198,741.0769,865.4366,751.0385,864.0132,761,864.7344,761.0866,864.9433,762.7299,865.3753,764.6036,866.3632,766.2402,866.7786,768.0623,867.6422,769.8388,868.3955,770.0672,868.4901,770.5561,870.1571,771.3357,871.9445,772.1398,873.742,772.8959,875.5197,773.5,877.2344,773.4961,877.2344,773.7872,887.0922,772.9276,896.95,773.7844,906.8078,774.0482,916.6656,773.9445,926.5234,774.113,936.3813,773.0169,946.2391,772.8478,956.0969,772.8786,965.9547,773.4411,975.8125,773.3035,985.6703,774.1814,995.5281,773.3253,1005.3859,773.1569,1015.2438,773.7283,1025.1016,772.8332,1034.9594,772.9809,1044.8172,774.149,1054.675,773.9357,1064.5328,773.5,1074.3906,773.7262,1074.4843,772.6687,1076.1173,772.1338,1077.9669,771.4851,1079.7692,770.4256,1081.4014,769.8388,1083.2295,769.8266,1083.1999,768.0871,1084.0005,766.3864,1084.8946,764.535,1085.4249,762.8268,1086.3008,761,1086.8906,761,1086.3368,751.0385,1086.2134,741.0769,1087.3942,731.1154,1086.1737,721.1538,1087.3996,711.1923,1087.0973,701.2308,1086.6227,691.2692,1086.5369,681.3077,1087.3494,671.3462,1086.5913,661.3846,1087.4825,651.4231,1086.3379,641.4615,1087.5081,631.5,1087.3749,621.5385,1087.1356,611.5769,1086.9378,601.6154,1087.6172,591.6538,1087.5042,581.6923,1087.0599,571.7308,1087.1588,561.7692,1086.7604,551.8077,1087.6071,541.8462,1087.0455,531.8846,1087.0632,521.9231,1086.2823,511.9615,1086.4854,502,1086.8906,502.0677,1087.0541,500.2871,1086.2907,498.459,1085.4129,496.6556,1084.5947,494.901,1083.8943,493.1612,1083.2295,492.9499,1083.1419,492.5567,1081.5146,491.9245,1079.7883,491.1266,1077.9933,490.4462,1076.247,489.5,1074.3906,489.3633,1074.3906,489.5872,1064.5328,489.1124,1054.675,489.784,1044.8172,489.7468,1034.9594,490.0524,1025.1016,489.2703,1015.2438,489.3656,1005.3859,489.9435,995.5281,490.0673,985.6703,488.9875,975.8125,489.3061,965.9547,489.6493,956.0969,488.8892,946.2391,489.8534,936.3813,489.758,926.5234,489.3992,916.6656,489.6422,906.8078,490.2287,896.95,489.1871,887.0922,489.5,877.2344,489.597,877.2746,490.3202,875.503,491.0001,873.7136,491.7401,871.9491,492.4639,870.1778,493.1612,868.3955,493.0815,868.2033,494.8778,867.5399,496.6378,866.7889,498.4726,866.2185,500.2435,865.4937,502,864.7344" style="stroke: #FFFFFF; stroke-width: 1.5;"/><polygon fill="#222222" points="505,908.8906,505,909.1008,515.12,908.4763,525.24,909.0839,535.36,909.2903,545.48,908.1772,555.6,908.8129,565.72,908.4641,575.84,908.5071,585.96,908.8225,596.08,908.1993,606.2,909.4443,616.32,908.2603,626.44,908.6929,636.56,909.3226,646.68,908.8048,656.8,908.9589,666.92,908.8587,677.04,909.0692,687.16,909.1298,697.28,909.4763,707.4,909.5617,717.52,909.5699,727.64,909.1453,737.76,909.3542,747.88,909.5929,758,908.8906,757.908,908.6685,759.8543,909.8318,761.4977,910.2638,763.3714,911.2517,765.0079,911.6671,766.8388,912.5518,766.8177,912.5431,767.7995,914.4142,768.2883,916.0811,769.068,917.8685,769.8721,919.6661,770.5,921.3906,770.9162,921.3906,770.4961,931.3906,770.7872,941.3906,769.9276,951.3906,770.7844,961.3906,771.0482,971.3906,770.9445,981.3906,771.113,991.3906,770.0169,1001.3906,769.8478,1011.3906,769.8786,1021.3906,770.4411,1031.3906,770.3035,1041.3906,771.1814,1051.3906,770.3253,1061.3906,770.5,1071.3906,770.3944,1071.3469,769.8381,1073.1875,768.8302,1074.8411,768.1434,1076.6277,767.7709,1078.5445,766.8388,1080.2295,766.8944,1080.3636,765.1648,1081.1879,763.2623,1081.5948,761.5763,1082.5245,759.8431,1083.3402,758,1083.8906,758,1083.4182,747.88,1083.7948,737.76,1084.0166,727.64,1084.5424,717.52,1083.8864,707.4,1084.3532,697.28,1083.3368,687.16,1083.2134,677.04,1084.3942,666.92,1083.1737,656.8,1084.3996,646.68,1084.0973,636.56,1083.6227,626.44,1083.5369,616.32,1084.3494,606.2,1083.5913,596.08,1084.4825,585.96,1083.3379,575.84,1084.5081,565.72,1084.3749,555.6,1084.1356,545.48,1083.9378,535.36,1084.6172,525.24,1084.5042,515.12,1084.0599,505,1083.8906,505.0342,1083.9732,503.2156,1083.1183,501.5559,1082.6468,499.7165,1081.7416,497.9509,1081.0148,496.1612,1080.2295,495.9738,1080.1519,495.3041,1078.41,494.8601,1076.7616,494.0968,1074.981,493.219,1073.1529,492.5,1071.3906,492.1778,1071.3906,492.2811,1061.3906,491.8138,1051.3906,492.9147,1041.3906,493.2396,1031.3906,493.0264,1021.3906,493.1949,1011.3906,492.3633,1001.3906,492.5872,991.3906,492.1124,981.3906,492.784,971.3906,492.7468,961.3906,493.0524,951.3906,492.2703,941.3906,492.3656,931.3906,492.5,921.3906,492.6366,921.4472,493.4069,919.6952,493.8066,917.7897,494.637,916.0626,495.4749,914.3386,496.1612,912.5518,496.0832,912.3637,497.974,911.9284,499.7296,911.1668,501.4516,910.3241,503.2504,909.6667,505,908.8906" style="stroke: #222222; stroke-width: 1.0;"/><path d="M489.5,905.8906 L489.5,906.1709 L499.6429,905.3382 L509.7857,906.1483 L519.9286,906.4235 L530.0714,904.9394 L540.2143,905.787 L550.3571,905.322 L560.5,905.3793 L570.6429,905.7997 L580.7857,904.9688 L590.9286,906.6288 L601.0714,905.0503 L611.2143,905.6269 L621.3571,906.4666 L631.5,905.7763 L641.6429,905.9816 L651.7857,905.848 L661.9286,906.1287 L672.0714,906.2095 L682.2143,906.6715 L692.3571,906.7854 L702.5,906.7963 L712.6429,906.2301 L722.7857,906.5087 L732.9286,906.8269 L743.0714,904.929 L753.2143,906.7953 L763.3571,905.4953 L773.5,905.8906 " fill="#222222" style="stroke: #FFFFFF; stroke-width: 1.5;"/><text fill="#FFFFFF" font-family="sans-serif" font-size="20" font-weight="bold" lengthAdjust="spacingAndGlyphs" textLength="108" x="577.5" y="893.4961">tipoDestino</text><polygon fill="#222222" points="513,974.8906,513,975.1008,522.9286,974.4763,532.8571,975.0839,542.7857,975.2903,552.7143,974.1772,562.6429,974.8129,572.5714,974.4641,582.5,974.5071,592.4286,974.8225,602.3571,974.1993,612.2857,975.4443,622.2143,974.2603,632.1429,974.6929,642.0714,975.3226,652,974.8906,651.9891,974.8642,653.7765,975.6439,655.5315,976.3453,657.3261,977.1423,659.1016,977.8932,660.8388,978.5518,661.0192,978.6265,661.7777,980.4052,662.5125,982.174,663.1139,983.8876,663.9105,985.682,664.5,987.3906,664.7341,987.3906,664.2596,990.6219,664.7262,993.8531,664.4012,997.0844,664.6779,1000.3156,664.5,1003.5469,664.3476,1003.4837,663.7467,1005.3059,663.2639,1007.177,662.2883,1008.844,661.6035,1010.6314,660.8388,1012.3857,660.882,1012.49,659.1242,1013.2461,657.3028,1013.849,655.5722,1014.6709,653.6947,1015.1384,652,1016.0469,652,1016.3313,642.0714,1016.5951,632.1429,1016.4914,622.2143,1016.6599,612.2857,1015.5638,602.3571,1015.3947,592.4286,1015.4255,582.5,1015.988,572.5714,1015.8503,562.6429,1016.7283,552.7143,1015.8722,542.7857,1015.7038,532.8571,1016.2751,522.9286,1015.38,513,1016.0469,512.9338,1015.887,511.315,1015.5145,509.52,1014.7166,507.7904,1014.0764,505.8879,1013.0188,504.1612,1012.3857,504.2595,1012.4264,503.6108,1010.6933,502.5512,1008.7899,501.9349,1007.0702,501.271,1005.3307,500.5,1003.5469,500.7173,1003.5469,500.4986,1000.3156,500.6542,997.0844,500.3154,993.8531,500.2742,990.6219,500.5,987.3906,500.6551,987.4549,501.0114,985.5314,502.1212,983.92,502.7603,982.1137,503.3464,980.2854,504.1612,978.5518,504.116,978.4428,505.9875,977.9608,507.6585,976.9951,509.54,976.5374,511.1617,975.4526,513,974.8906" style="stroke: #FFFFFF; stroke-width: 1.5;"/><text fill="#FFFFFF" font-family="sans-serif" font-size="20" font-weight="bold" lengthAdjust="spacingAndGlyphs" textLength="148" x="508.5" y="1003.6523">implementacion</text><path d="M683,974.8906 L683,991.3906 L664.637,995.3906 L683,999.3906 L683,1016.0469 A0,0 0 0 0 683,1016.0469 L740,1016.0469 A0,0 0 0 0 740,1016.0469 L740,984.8906 L730,974.8906 L683,974.8906 A0,0 0 0 0 683,974.8906 " fill="#222222" style="stroke: #FFFFFF; stroke-width: 1.0;"/><path d="M730,974.8906 L730.1868,974.8906 L729.6317,976.8906 L730.1718,978.8906 L730.3553,980.8906 L729.3659,982.8906 L730,984.8906 L730,984.8215 L732,984.5115 L734,984.5497 L736,984.83 L738,984.2761 L740,984.8906 L740.348,985.2386 L737.6038,982.4945 L735.8757,980.7663 L734.2715,979.1621 L731.9461,976.8367 L730,974.8906 " fill="#222222" style="stroke: #FFFFFF; stroke-width: 1.0;"/><text fill="#00FFFF" font-family="sans-serif" font-size="20" font-weight="bold" lengthAdjust="spacingAndGlyphs" textLength="18" x="698" y="1003.6523">|&gt;</text><polygon fill="#FFFFFF" points="592.5552,931.323,591.0894,933.3259,589.3556,936.2594,586.876,938.2364,584.2703,939.3175,582.1927,939.4114,579.5224,938.0593,577.0029,937.176,575.0905,935.3826,574.0873,933.3295,573.4924,931.6947,572.9096,929.5594,571.9636,927.722,572.6906,925.9279,573.3275,923.9626,575.7175,922.4083,577.3991,920.3916,579.4804,919.7219,581.9547,919.1452,585.1276,919.4879,586.8655,920.3075,588.8861,920.679,591.3429,923.1961,592.1993,925.8533,592.5714,927.6664,592.15,930.6541" style="stroke: none; stroke-width: 1.0;"/><polygon fill="none" points="592.5552,1064.323,591.0894,1066.3259,589.3556,1069.2594,586.876,1071.2364,584.2703,1072.3175,582.1927,1072.4114,579.5224,1071.0593,577.0029,1070.176,575.0905,1068.3826,574.0873,1066.3295,573.4924,1064.6947,572.9096,1062.5594,571.9636,1060.722,572.6906,1058.9279,573.3275,1056.9626,575.7175,1055.4083,577.3991,1053.3916,579.4804,1052.7219,581.9547,1052.1452,585.1276,1052.4879,586.8655,1053.3075,588.8861,1053.679,591.3429,1056.1961,592.1993,1058.8533,592.5714,1060.6664,592.15,1063.6541" style="stroke: #FFFFFF; stroke-width: 1.0;"/><polygon fill="#FFFFFF" points="589.0331,1063.8501,588.1536,1065.0518,587.1134,1066.8119,585.6256,1067.9981,584.0622,1068.6468,582.8156,1068.7031,581.2135,1067.8918,579.7017,1067.3619,578.5543,1066.2858,577.9524,1065.054,577.5955,1064.0731,577.2458,1062.7919,576.6782,1061.6894,577.1143,1060.613,577.4965,1059.4338,578.9305,1058.5012,579.9394,1057.2912,581.1882,1056.8894,582.6728,1056.5434,584.5766,1056.749,585.6193,1057.2407,586.8317,1057.4636,588.3057,1058.9739,588.8196,1060.5682,589.0429,1061.6561,588.79,1063.4487" style="stroke: none; stroke-width: 1.0;"/><!--link *start*tipoDestino to implementacionDestino--><path d="M582.5,939.1316 L582.5934,939.1316 L582.3159,945.2374 L582.5859,951.3432 L582.6776,957.449 L582.1829,963.5548 L582.5,969.6606 " fill="none" style="stroke: #FFFFFF; stroke-width: 1.0;"/><polygon fill="#FFFFFF" points="582.5,974.7963,582.564,974.8248,583.1738,972.9402,584.1589,971.2225,585.0217,969.4504,585.4827,967.4997,586.5,965.7963,586.4817,965.778,585.5995,966.4958,584.8096,967.3059,584.0839,968.1803,583.137,968.8334,582.5,969.7963,582.6305,969.9268,581.5514,968.8478,580.8534,968.1497,580.2018,967.4981,579.2798,966.5761,578.5,965.7963,578.5208,965.8056,579.2903,967.592,580.1544,969.4205,580.9728,971.2287,581.8784,973.0756,582.5,974.7963" style="stroke: #FFFFFF; stroke-width: 1.0;"/><!--link implementacionDestino to *end*tipoDestino--><path d="M582.5,1016.0932 L582.5934,1016.0932 L582.3159,1022.18 L582.5859,1028.2668 L582.6776,1034.3536 L582.1829,1040.4403 L582.5,1046.5271 " fill="none" style="stroke: #FFFFFF; stroke-width: 1.0;"/><polygon fill="#FFFFFF" points="582.5,1051.7178,582.564,1051.7463,583.1738,1049.8617,584.1589,1048.144,585.0217,1046.3719,585.4827,1044.4212,586.5,1042.7178,586.4817,1042.6995,585.5995,1043.4173,584.8096,1044.2274,584.0839,1045.1018,583.137,1045.7549,582.5,1046.7178,582.6305,1046.8483,581.5514,1045.7693,580.8534,1045.0712,580.2018,1044.4196,579.2798,1043.4976,578.5,1042.7178,578.5208,1042.7271,579.2903,1044.5135,580.1544,1046.342,580.9728,1048.1502,581.8784,1049.9971,582.5,1051.7178" style="stroke: #FFFFFF; stroke-width: 1.0;"/><polygon fill="#222222" points="354,428.7344,354,428.9446,363.7059,428.3201,373.4118,428.9277,383.1176,429.1341,392.8235,428.021,402.5294,428.6567,412.2353,428.3079,421.9412,428.3509,431.6471,428.6662,441.3529,428.043,451.0588,429.288,460.7647,428.1041,470.4706,428.5366,480.1765,429.1663,489.8824,428.6486,499.5882,428.8026,509.2941,428.7024,519,428.7344,519.0228,428.7894,520.7983,429.5403,522.6102,430.3792,524.3889,431.1377,526.1577,431.8725,527.8388,432.3955,527.9172,432.428,528.7138,434.2224,529.5196,436.0207,529.8134,437.6068,530.9767,439.5532,531.5,441.2344,531.2035,441.2344,532.0338,451.2674,531.005,461.3004,531.4315,471.3335,532.2416,481.3665,531.4513,491.3996,531.6053,501.4326,531.8386,511.4656,531.9162,521.4987,531.4961,531.5317,531.7872,541.5647,530.9276,551.5978,531.7844,561.6308,532.0482,571.6638,531.9445,581.6969,532.113,591.7299,531.0169,601.7629,530.8478,611.796,530.8786,621.829,531.4411,631.8621,531.3035,641.8951,532.1814,651.9281,531.3253,661.9612,531.1569,671.9942,531.7283,682.0272,530.8332,692.0603,530.9809,702.0933,532.149,712.1263,531.9357,722.1594,532.2345,732.1924,531.1782,742.2254,531.8192,752.2585,532.0904,762.2915,531.0276,772.3246,531.4041,782.3576,531.5,792.3906,531.5388,792.4067,530.9685,794.2415,530.0342,795.9256,529.4458,797.7529,528.4005,799.3911,527.8388,801.2295,527.7524,801.0209,526.1353,802.1168,524.2118,802.4731,522.6005,803.5829,520.7941,804.222,519,804.8906,519,804.6227,509.2941,804.5369,499.5882,805.3494,489.8824,804.5913,480.1765,805.4825,470.4706,804.3379,460.7647,805.5081,451.0588,805.3749,441.3529,805.1356,431.6471,804.9378,421.9412,805.6172,412.2353,805.5042,402.5294,805.0599,392.8235,805.1588,383.1176,804.7604,373.4118,805.6071,363.7059,805.0455,354,804.8906,354.022,804.9438,352.1546,803.971,350.4128,803.3014,348.7644,802.8574,346.9838,802.094,345.1612,801.2295,345.1479,801.224,344.3297,799.4206,343.6293,797.666,342.7532,795.8386,342.36,794.2113,341.5,792.3906,342.2396,792.3906,342.0264,782.3576,342.1949,772.3246,341.3633,762.2915,341.5872,752.2585,341.1124,742.2254,341.784,732.1924,341.7468,722.1594,342.0524,712.1263,341.2703,702.0933,341.3656,692.0603,341.9435,682.0272,342.0673,671.9942,340.9875,661.9612,341.3061,651.9281,341.6493,641.8951,340.8892,631.8621,341.8534,621.829,341.758,611.796,341.3992,601.7629,341.6422,591.7299,342.2287,581.6969,341.1871,571.6638,341.815,561.6308,341.7856,551.5978,341.6158,541.5647,341.6409,531.5317,341.6135,521.4987,340.8758,511.4656,341.0992,501.4326,341.0385,491.3996,341.5638,481.3665,341.5881,471.3335,341.6617,461.3004,341.209,451.2674,341.5,441.2344,341.4792,441.2258,342.1952,439.4513,343.1421,437.7724,343.8281,435.9855,344.2794,434.1014,345.1612,432.3955,345.1519,432.3731,346.8553,431.4855,348.7335,431.0199,350.5421,430.3862,352.3017,429.6343,354,428.7344" style="stroke: #FFFFFF; stroke-width: 1.5;"/><polygon fill="#222222" points="357,472.8906,357,473.1008,366.9375,472.4763,376.875,473.0839,386.8125,473.2903,396.75,472.1772,406.6875,472.8129,416.625,472.4641,426.5625,472.5071,436.5,472.8225,446.4375,472.1993,456.375,473.4443,466.3125,472.2603,476.25,472.6929,486.1875,473.3226,496.125,472.8048,506.0625,472.9589,516,472.8906,515.9959,472.8808,517.7905,473.6778,519.566,474.4287,521.378,475.2677,523.1567,476.0262,524.8388,476.5518,525.048,476.6384,525.6495,478.352,526.4461,480.1465,527.2518,481.9447,527.5457,483.5309,528.5,485.3906,529.1785,485.3906,528.2035,495.524,529.0338,505.6573,528.005,515.7906,528.4315,525.924,529.2416,536.0573,528.4513,546.1906,528.6053,556.324,528.8386,566.4573,528.9162,576.5906,528.4961,586.724,528.7872,596.8573,527.9276,606.9906,528.7844,617.124,529.0482,627.2573,528.9445,637.3906,529.113,647.524,528.0169,657.6573,527.8478,667.7906,527.8786,677.924,528.4411,688.0573,528.3035,698.1906,529.1814,708.324,528.3253,718.4573,528.1569,728.5906,528.7283,738.724,527.8332,748.8573,527.9809,758.9906,529.149,769.124,528.9357,779.2573,528.5,789.3906,528.7262,789.4843,527.6687,791.1173,527.1338,792.9669,526.4851,794.7692,525.4256,796.4014,524.8388,798.2295,524.8266,798.1999,523.0871,799.0005,521.3864,799.8946,519.535,800.4249,517.8268,801.3008,516,801.8906,516,801.3368,506.0625,801.2134,496.125,802.3942,486.1875,801.1737,476.25,802.3996,466.3125,802.0973,456.375,801.6227,446.4375,801.5369,436.5,802.3494,426.5625,801.5913,416.625,802.4825,406.6875,801.3379,396.75,802.5081,386.8125,802.3749,376.875,802.1356,366.9375,801.9378,357,801.8906,357.0927,802.1144,355.3105,801.3473,353.4861,800.4783,351.7309,799.7765,349.9123,798.9216,348.1612,798.2295,348.3818,798.3209,347.4766,796.4814,346.7498,794.7159,345.7771,792.8486,345.1074,791.1067,344.5,789.3906,345.0307,789.3906,344.9298,779.2573,344.4571,769.124,344.1778,758.9906,344.2811,748.8573,343.8138,738.724,344.9147,728.5906,345.2396,718.4573,345.0264,708.324,345.1949,698.1906,344.3633,688.0573,344.5872,677.924,344.1124,667.7906,344.784,657.6573,344.7468,647.524,345.0524,637.3906,344.2703,627.2573,344.3656,617.124,344.9435,606.9906,345.0673,596.8573,343.9875,586.724,344.3061,576.5906,344.6493,566.4573,343.8892,556.324,344.8534,546.1906,344.758,536.0573,344.3992,525.924,344.6422,515.7906,345.2287,505.6573,344.1871,495.524,344.5,485.3906,344.597,485.4308,345.3202,483.6593,346.0001,481.8699,346.7401,480.1053,347.4639,478.334,348.1612,476.5518,348.0815,476.3596,349.8778,475.6961,351.6378,474.9452,353.4726,474.3747,355.2435,473.65,357,472.8906" style="stroke: #222222; stroke-width: 1.0;"/><path d="M341.5,469.8906 L341.5,470.1709 L351.5,469.3382 L361.5,470.1483 L371.5,470.4235 L381.5,468.9394 L391.5,469.787 L401.5,469.322 L411.5,469.3793 L421.5,469.7997 L431.5,468.9688 L441.5,470.6288 L451.5,469.0503 L461.5,469.6269 L471.5,470.4666 L481.5,469.7763 L491.5,469.9816 L501.5,469.848 L511.5,470.1287 L521.5,470.2095 L531.5,469.8906 " fill="#222222" style="stroke: #FFFFFF; stroke-width: 1.5;"/><text fill="#FFFFFF" font-family="sans-serif" font-size="20" font-weight="bold" lengthAdjust="spacingAndGlyphs" textLength="84" x="394.5" y="457.4961">conector</text><polygon fill="#222222" points="399,538.8906,399,538.9607,406,538.7525,413,538.9551,420,539.0239,427,538.6528,434,538.8906,433.9901,538.8667,435.7134,539.4915,437.4866,540.237,439.2946,541.0663,440.9829,541.6066,442.8388,542.5518,443.0093,542.6224,443.377,544.2392,444.2424,546.0621,445.1686,547.9102,445.7414,549.6119,446.5,551.3906,446.5227,551.3906,446.4894,554.6219,446.5595,557.8531,446.5797,561.0844,446.6952,564.3156,446.5,567.5469,446.7067,567.6325,445.977,569.4013,445.1139,571.1149,444.4461,572.9093,443.7873,574.7075,442.8388,576.3857,442.7468,576.1636,441.1576,577.3269,439.2655,577.7589,437.6036,578.7468,435.7046,579.1622,434,580.0469,434,580.024,427,580.2941,420,580.0306,413,580.082,406,580.1598,399,580.0469,399.0531,580.1751,397.2317,579.3134,395.5011,578.6709,393.6237,577.6739,391.9652,577.2055,390.1612,576.3857,390.33,576.4556,389.5658,574.6746,388.8855,572.9284,387.8157,571.0208,387.0314,569.2314,386.5,567.5469,386.2929,567.5469,386.4804,564.3156,386.4345,561.0844,386.7271,557.8531,386.4418,554.6219,386.5,551.3906,386.3944,551.3469,387.3025,549.652,387.7591,547.77,388.5368,546.0211,389.6288,544.4023,390.1612,542.5518,390.2167,542.686,392.0226,542.0458,393.6557,540.9882,395.5052,540.4534,397.3075,539.8047,399,538.8906" style="stroke: #FFFFFF; stroke-width: 1.5;"/><text fill="#FFFFFF" font-family="sans-serif" font-size="20" font-weight="bold" lengthAdjust="spacingAndGlyphs" textLength="44" x="394.5" y="567.6523">linea</text><polygon fill="#222222" points="365,692.8906,365,692.9607,372,692.7525,379,692.9551,386,693.0239,393,692.6528,400,692.8906,399.9901,692.8667,401.7134,693.4915,403.4866,694.237,405.2946,695.0663,406.9829,695.6066,408.8388,696.5518,409.0093,696.6224,409.377,698.2392,410.2424,700.0621,411.1686,701.9102,411.7414,703.6119,412.5,705.3906,412.5227,705.3906,412.4894,708.6219,412.5595,711.8531,412.5797,715.0844,412.6952,718.3156,412.5,721.5469,412.7067,721.6325,411.977,723.4013,411.1139,725.1149,410.4461,726.9093,409.7873,728.7075,408.8388,730.3857,408.7468,730.1636,407.1576,731.3269,405.2655,731.7589,403.6036,732.7468,401.7046,733.1622,400,734.0469,400,734.024,393,734.2941,386,734.0306,379,734.082,372,734.1598,365,734.0469,365.0531,734.1751,363.2317,733.3134,361.5011,732.6709,359.6237,731.6739,357.9652,731.2055,356.1612,730.3857,356.33,730.4556,355.5658,728.6746,354.8855,726.9284,353.8157,725.0208,353.0314,723.2314,352.5,721.5469,352.2929,721.5469,352.4804,718.3156,352.4345,715.0844,352.7271,711.8531,352.4418,708.6219,352.5,705.3906,352.3944,705.3469,353.3025,703.652,353.7591,701.77,354.5368,700.0211,355.6288,698.4023,356.1612,696.5518,356.2167,696.686,358.0226,696.0458,359.6557,694.9882,361.5052,694.4534,363.3075,693.8047,365,692.8906" style="stroke: #FFFFFF; stroke-width: 1.5;"/><text fill="#FFFFFF" font-family="sans-serif" font-size="20" font-weight="bold" lengthAdjust="spacingAndGlyphs" textLength="44" x="360.5" y="721.6523">linea</text><polygon fill="#222222" points="381,615.8906,381,616.1008,391.1429,615.4763,401.2857,616.0839,411.4286,616.2903,421.5714,615.1772,431.7143,615.8129,441.8571,615.4641,452,615.8906,451.9511,615.7725,453.7591,616.6019,455.4473,617.1422,457.3739,618.2578,458.9907,618.6255,460.8388,619.5518,460.7779,619.5266,461.7041,621.3747,462.2769,623.0764,463.0565,624.8638,463.7579,626.6188,464.5,628.3906,464.5595,628.3906,464.5797,631.6219,464.6952,634.8531,464.7237,638.0844,464.7264,641.3156,464.5,644.5469,464.5784,644.5794,463.9105,646.3738,463.2518,648.172,462.0812,649.7582,461.78,651.7045,460.8388,653.3857,460.801,653.2944,459.1392,654.2823,457.2402,654.6977,455.5268,655.5613,453.8624,656.543,452,657.0469,452,656.9981,441.8571,657.1522,431.7143,657.3855,421.5714,657.4631,411.4286,657.043,401.2857,657.3341,391.1429,656.4745,381,657.0469,381.0363,657.1345,379.3022,656.4835,377.5212,655.7193,375.7749,655.039,373.8673,653.9692,372.1612,653.3857,371.9603,653.3025,371.2376,651.5387,370.6786,649.8427,369.9039,648.0573,369.4421,646.4016,368.5,644.5469,368.4418,644.5469,368.3856,641.3156,368.5761,638.0844,368.2777,634.8531,368.327,631.6219,368.5,628.3906,368.6999,628.4734,369.3664,626.6784,370.1907,624.9488,370.5976,623.0463,371.5272,621.3603,372.1612,619.5518,372.2365,619.7336,373.8687,618.6741,375.6845,618.0578,377.4805,617.3939,379.3154,616.8236,381,615.8906" style="stroke: #FFFFFF; stroke-width: 1.5;"/><text fill="#FFA500" font-family="sans-serif" font-size="20" font-weight="bold" lengthAdjust="spacingAndGlyphs" textLength="80" x="376.5" y="644.6523">posicion</text><path d="M465,538.8906 L465,555.3906 L446.7148,559.3906 L465,563.3906 L465,580.0469 A0,0 0 0 0 465,580.0469 L498,580.0469 A0,0 0 0 0 498,580.0469 L498,548.8906 L488,538.8906 L465,538.8906 A0,0 0 0 0 465,538.8906 " fill="#222222" style="stroke: #FFFFFF; stroke-width: 1.0;"/><path d="M488,538.8906 L488.1868,538.8906 L487.6317,540.8906 L488.1718,542.8906 L488.3553,544.8906 L487.3659,546.8906 L488,548.8906 L488,548.8215 L490,548.5115 L492,548.5497 L494,548.83 L496,548.2761 L498,548.8906 L498.348,549.2386 L495.6038,546.4945 L493.8757,544.7663 L492.2715,543.1621 L489.9461,540.8367 L488,538.8906 " fill="#222222" style="stroke: #FFFFFF; stroke-width: 1.0;"/><text fill="#00FFFF" font-family="sans-serif" font-size="20" font-weight="bold" lengthAdjust="spacingAndGlyphs" textLength="6" x="474" y="567.6523">.</text><path d="M431,692.8906 L431,709.3906 L412.7148,713.3906 L431,717.3906 L431,734.0469 A0,0 0 0 0 431,734.0469 L464,734.0469 A0,0 0 0 0 464,734.0469 L464,702.8906 L454,692.8906 L431,692.8906 A0,0 0 0 0 431,692.8906 " fill="#222222" style="stroke: #FFFFFF; stroke-width: 1.0;"/><path d="M454,692.8906 L454.1868,692.8906 L453.6317,694.8906 L454.1718,696.8906 L454.3553,698.8906 L453.3659,700.8906 L454,702.8906 L454,702.8215 L456,702.5115 L458,702.5497 L460,702.83 L462,702.2761 L464,702.8906 L464.348,703.2386 L461.6038,700.4945 L459.8757,698.7663 L458.2715,697.1621 L455.9461,694.8367 L454,692.8906 " fill="#222222" style="stroke: #FFFFFF; stroke-width: 1.0;"/><text fill="#00FFFF" font-family="sans-serif" font-size="20" font-weight="bold" lengthAdjust="spacingAndGlyphs" textLength="6" x="440" y="721.6523">.</text><polygon fill="#FFFFFF" points="426.5552,495.323,425.0894,497.3259,423.3556,500.2594,420.876,502.2364,418.2703,503.3175,416.1927,503.4114,413.5224,502.0593,411.0029,501.176,409.0905,499.3826,408.0873,497.3295,407.4924,495.6947,406.9096,493.5594,405.9636,491.722,406.6906,489.9279,407.3275,487.9626,409.7175,486.4083,411.3991,484.3916,413.4804,483.7219,415.9547,483.1452,419.1276,483.4879,420.8655,484.3075,422.8861,484.679,425.3429,487.1961,426.1993,489.8533,426.5714,491.6664,426.15,494.6541" style="stroke: none; stroke-width: 1.0;"/><polygon fill="none" points="447.5552,782.323,446.0894,784.3259,444.3556,787.2594,441.876,789.2364,439.2703,790.3175,437.1927,790.4114,434.5224,789.0593,432.0029,788.176,430.0905,786.3826,429.0873,784.3295,428.4924,782.6947,427.9096,780.5594,426.9636,778.722,427.6906,776.9279,428.3275,774.9626,430.7175,773.4083,432.3991,771.3916,434.4804,770.7219,436.9547,770.1452,440.1276,770.4879,441.8655,771.3075,443.8861,771.679,446.3429,774.1961,447.1993,776.8533,447.5714,778.6664,447.15,781.6541" style="stroke: #FFFFFF; stroke-width: 1.0;"/><polygon fill="#FFFFFF" points="444.0331,781.8501,443.1536,783.0518,442.1134,784.8119,440.6256,785.9981,439.0622,786.6468,437.8156,786.7031,436.2135,785.8918,434.7017,785.3619,433.5543,784.2858,432.9524,783.054,432.5955,782.0731,432.2458,780.7919,431.6782,779.6894,432.1143,778.613,432.4965,777.4338,433.9305,776.5012,434.9394,775.2912,436.1882,774.8894,437.6728,774.5434,439.5766,774.749,440.6193,775.2407,441.8317,775.4636,443.3057,776.9739,443.8196,778.5682,444.0429,779.6561,443.79,781.4487" style="stroke: none; stroke-width: 1.0;"/><!--link *start*conector to linea1--><path d="M416.5,503.1316 L416.5934,503.1316 L416.3159,509.2374 L416.5859,515.3432 L416.6776,521.449 L416.1829,527.5548 L416.5,533.6606 " fill="none" style="stroke: #FFFFFF; stroke-width: 1.0;"/><polygon fill="#FFFFFF" points="416.5,538.7966,416.564,538.8251,417.1738,536.9405,418.1589,535.2228,419.0217,533.4507,419.4827,531.5,420.5,529.7966,420.4817,529.7783,419.5995,530.4961,418.8096,531.3062,418.0839,532.1806,417.137,532.8337,416.5,533.7966,416.6305,533.9271,415.5514,532.8481,414.8534,532.15,414.2018,531.4984,413.2798,530.5764,412.5,529.7966,412.5208,529.8059,413.2903,531.5923,414.1544,533.4208,414.9728,535.229,415.8784,537.0759,416.5,538.7966" style="stroke: #FFFFFF; stroke-width: 1.0;"/><!--link linea1 to *end*conector--><path d="M444.9069,580.0416 L444.9698,580.1107 L446.4473,581.4229 L448.2937,583.1398 L450.02,584.7249 L451.3512,585.8766 L453.2293,587.6282 L453.2039,587.6048 L454.6721,589.2139 L456.2682,590.9411 L457.9532,592.7504 L459.3317,594.2769 L461.1396,596.1995 L461.338,596.3451 L462.3023,597.9246 L463.8457,599.9293 L465.4597,601.9859 L466.6627,603.7406 L468.0819,605.6541 L468.1087,605.6683 L469.1529,607.6947 L470.3192,609.7858 L471.4267,611.8457 L472.6464,613.9651 L473.5,615.8906 L473.7905,615.958 L474.1479,617.4842 L474.3179,618.9668 L474.7621,620.5131 L475.2193,622.0624 L475.2691,623.5172 L474.9504,623.4824 L475.8466,626.0915 L475.6936,628.5859 L476.3382,631.1675 L476.1614,633.6594 L476.6579,636.2248 L476.6275,636.2231 L477.1725,639.4967 L477.0075,642.7299 L477.2614,645.987 L477.5506,649.246 L477.5859,652.4906 L477.7709,652.4945 L477.6616,656.1508 L477.8683,659.8137 L477.5638,663.4659 L478.0219,667.1341 L477.9729,670.7917 L478.2165,670.7947 L478.1235,674.5568 L478.1514,678.3205 L477.6174,682.0771 L477.4953,685.8388 L477.7382,689.6051 L477.4624,689.5906 L477.5247,693.1643 L477.2763,696.7217 L477.4786,700.3028 L476.9113,703.8434 L476.8015,707.408 L476.6499,707.391 L476.5584,710.4733 L475.8192,713.4827 L475.5406,716.5439 L475.7127,719.6559 L475.0822,722.6775 L475.2709,722.721 L474.8839,724.9934 L473.91,727.1307 L473.6711,729.4372 L473.2722,731.7069 L472.5,733.8906 L472.3091,733.8032 L471.5345,735.8976 L470.6974,737.9633 L469.9831,740.0853 L468.7913,741.9886 L467.8662,744.0141 L468.0389,744.1257 L466.4386,745.7686 L465.1716,747.627 L464.3914,749.8002 L462.7149,751.3938 L461.7616,753.455 L461.9379,753.5966 L460.4799,755.1982 L458.9623,756.7518 L457.5793,758.4137 L456.5077,760.3255 L454.9955,761.8836 L454.8982,761.7927 L453.8641,763.4804 L452.1687,764.5506 L451.2252,766.3229 L449.8583,767.6999 L448.3774,768.9703 " fill="none" style="stroke: #FFFFFF; stroke-width: 1.0;"/><polygon fill="#FFFFFF" points="444.5138,772.7244,444.538,772.7902,446.3145,771.9142,448.233,771.4237,450.1052,770.8077,451.8255,769.7789,453.7561,769.3215,453.7557,769.2956,452.6228,769.1631,451.4917,769.1611,450.362,769.2499,449.2278,769.026,448.0998,769.2401,448.2844,769.2428,447.906,768.1058,448.0665,766.9767,448.2926,765.8484,448.1363,764.7147,448.1812,763.5838,448.2023,763.5923,447.4378,765.408,446.7695,767.2622,446.0547,769.0979,445.4285,770.969,444.5138,772.7244" style="stroke: #FFFFFF; stroke-width: 1.0;"/><!--link linea1 to posicion--><path d="M416.5,580.0956 L416.5934,580.0956 L416.3159,586.2278 L416.5859,592.36 L416.6776,598.4922 L416.1829,604.6244 L416.5,610.7566 " fill="none" style="stroke: #FFFFFF; stroke-width: 1.0;"/><polygon fill="#FFFFFF" points="416.5,615.8166,416.564,615.8451,417.1738,613.9605,418.1589,612.2428,419.0217,610.4707,419.4827,608.52,420.5,606.8166,420.4817,606.7983,419.5995,607.5161,418.8096,608.3262,418.0839,609.2006,417.137,609.8537,416.5,610.8166,416.6305,610.9471,415.5514,609.8681,414.8534,609.17,414.2018,608.5184,413.2798,607.5964,412.5,606.8166,412.5208,606.8259,413.2903,608.6123,414.1544,610.4408,414.9728,612.249,415.8784,614.0959,416.5,615.8166" style="stroke: #FFFFFF; stroke-width: 1.0;"/><!--link posicion to linea2--><path d="M407.5669,657.0956 L407.652,657.1342 L404.5945,663.2066 L402.0357,669.5051 L399.3145,675.73 L396.0592,681.7127 L393.5433,688.0306 " fill="none" style="stroke: #FFFFFF; stroke-width: 1.0;"/><polygon fill="#FFFFFF" points="391.3734,692.8168,391.42,692.8692,392.7534,691.4045,394.3598,690.2467,395.8773,688.989,397.1025,687.4026,398.7324,686.2712,398.7232,686.2469,397.6234,686.5364,396.5695,686.9482,395.5476,687.4449,394.4155,687.6488,393.4377,688.2629,393.6105,688.3278,392.8428,687.13,392.5793,686.1218,392.3775,685.1368,391.8176,684.0171,391.446,682.9682,391.4688,682.9684,391.4209,684.9379,391.4765,686.9081,391.4822,688.878,391.5832,690.8485,391.3734,692.8168" style="stroke: #FFFFFF; stroke-width: 1.0;"/><!--link linea1 to linea2--><path d="M388.0931,580.0416 L388.156,580.1107 L386.3046,581.4229 L384.8221,583.1398 L383.2194,584.7249 L381.2217,585.8766 L379.7708,587.6282 L379.7455,587.6048 L378.0495,589.2139 L376.4815,590.9411 L375.0024,592.7504 L373.2168,594.2769 L371.8606,596.1995 L372.0589,596.3451 L370.2463,597.9246 L369.0128,599.9293 L367.8499,601.9859 L366.276,603.7406 L364.9183,605.6541 L364.9451,605.6683 L363.8221,607.6947 L362.8211,609.7858 L361.7613,611.8457 L360.8137,613.9651 L359.5,615.8906 L359.791,615.9562 L358.9668,619.6311 L357.955,623.2637 L357.2179,626.9582 L356.4937,630.6556 L355.3615,634.2611 L355.0417,634.2394 L355.9193,638.0802 L355.7438,641.8498 L356.3689,645.6735 L356.1695,649.4415 L356.6459,653.2551 L356.6165,653.2472 L357.9518,657.006 L358.6002,660.5798 L359.6538,664.2628 L360.7415,667.9549 L361.5838,671.5809 L361.7545,671.6521 L362.9465,674.8534 L364.4303,678.1763 L365.442,681.3025 L367.1579,684.7221 L368.4056,687.9466 " fill="none" style="stroke: #FFFFFF; stroke-width: 1.0;"/><polygon fill="#FFFFFF" points="370.7023,692.5679,370.7723,692.5709,370.4795,690.594,370.597,688.6348,370.5809,686.6698,370.1254,684.6859,370.2781,682.7282,370.2535,682.72,369.783,683.7554,369.4364,684.8324,369.1757,685.9384,368.6185,686.9447,368.4767,688.0906,368.5355,688.2655,367.3373,687.5311,366.3108,687.3075,365.3051,687.1462,364.1777,686.6224,363.1143,686.2892,363.1288,686.3067,364.6251,687.5367,366.1875,688.8465,367.7179,690.1178,369.3092,691.4626,370.7023,692.5679" style="stroke: #FFFFFF; stroke-width: 1.0;"/><!--link linea2 to *end*conector--><path d="M399.3007,734.0932 L399.3718,734.1538 L404.9039,740.709 L410.8526,747.6196 L416.6657,754.4144 L422.0326,760.8287 L428.0171,767.7697 " fill="none" style="stroke: #FFFFFF; stroke-width: 1.0;"/><polygon fill="#FFFFFF" points="431.3708,771.7027,431.438,771.7226,430.6792,769.7748,430.3142,767.9436,429.8209,766.0744,428.9059,764.0803,428.5748,762.2591,428.5489,762.257,428.3434,763.3756,428.268,764.5046,428.2832,765.6407,427.9864,766.7521,428.1265,767.8982,428.1411,768.0821,426.9821,767.5991,425.8657,767.6532,424.7545,767.7728,423.613,767.5111,422.4875,767.4499,422.4973,767.4705,424.2595,768.2909,426.0665,769.2047,427.8519,770.0735,429.6784,771.0283,431.3708,771.7027" style="stroke: #FFFFFF; stroke-width: 1.0;"/><!--link *start to direccionOrigen--><path d="M426.339,78.5844 L426.3491,78.6772 L422.9411,78.7686 L419.5923,79.4044 L416.2243,79.8629 L412.7928,79.7384 L409.4491,80.4209 L409.4447,80.3866 L407.2355,80.5136 L405.0484,80.8133 L402.8767,81.2331 L400.652,81.2391 L398.5016,81.8246 L398.5365,82.0682 L395.986,81.9023 L393.5374,82.4475 L391.1013,83.0795 L388.5928,83.2067 L386.1223,83.5994 L386.1271,83.6293 L383.3934,84.0216 L380.6814,84.5502 L377.959,85.013 L375.2566,85.6013 L372.4888,85.7805 L372.5411,86.0741 L369.5997,86.6023 L366.6245,86.9411 L363.6988,87.5572 L360.7753,88.1862 L357.7785,88.4035 L357.716,88.0891 L354.7153,89.3194 L351.509,89.5144 L348.4589,90.4964 L345.2479,90.668 L342.1689,91.5038 L342.1623,91.4741 L338.9738,92.5483 L335.6317,92.9279 L332.3802,93.7173 L329.1363,94.5412 L325.8375,95.1169 L325.8818,95.2965 L322.4619,95.9474 L319.1178,96.9053 L315.6512,97.3666 L312.3672,98.5686 L308.9618,99.2781 L309.0264,99.513 L305.5657,100.4176 L302.1371,101.4388 L298.5593,101.9181 L295.0909,102.7946 L291.7193,104.023 L291.638,103.7591 L288.2252,105.0708 L284.7208,106.0852 L281.3492,107.5309 L277.7509,108.2401 L274.2874,109.3871 L274.2377,109.2429 L270.8318,110.6867 L267.2133,111.5143 L263.7459,112.7801 L260.4265,114.4746 L256.8437,115.4056 L256.9138,115.5861 L253.5062,117.0516 L249.8807,117.9557 L246.5282,119.563 L243.1162,121.0171 L239.5656,122.1142 L239.4812,121.9219 L236.1615,123.562 L232.8141,125.1391 L229.5211,126.8398 L226.0169,128.0597 L222.6306,129.5482 L222.7225,129.7321 L219.2378,130.967 L215.9304,132.5569 L212.882,134.6654 L209.3568,135.819 L206.2163,137.7431 L206.3286,137.9395 L203.1186,139.6211 L199.8706,141.2363 L196.7084,143.0014 L193.7445,145.1131 L190.5,146.7344 L190.4252,146.6243 L187.9877,148.7594 L185.0417,150.1461 L182.6739,152.3837 L179.9805,154.1422 L177.1995,155.7716 L177.2676,155.8565 L174.6649,157.8348 L172.3064,160.1171 L169.7273,162.1248 L167.0559,164.0177 L164.4612,166.0059 L164.5417,166.0937 L162.0066,168.1787 L159.8455,170.6715 L157.2613,172.703 L154.8512,174.9243 L152.3839,177.0832 L152.1906,176.8941 L149.9917,179.2706 L148.0255,181.8749 L145.7299,184.1569 L143.3163,186.3233 L141.0664,188.65 L140.9596,188.5546 L138.9021,190.9256 L136.6554,193.1277 L134.9284,195.7943 L132.9443,198.2309 L130.6074,200.3524 L130.7877,200.5015 L128.9451,202.8461 L126.7599,204.9073 L124.9363,207.2676 L122.8733,209.4299 L121.1057,211.8366 L121.2056,211.9138 L119.5033,214.0862 L117.9216,216.3517 L115.9576,218.3215 L114.302,220.5298 L112.6601,222.7488 L112.8193,222.8651 L111.4055,224.8948 L109.5597,226.6091 L108.216,228.69 L106.881,230.7772 L105.3692,232.7354 " fill="none" style="stroke: #FFFFFF; stroke-width: 1.0;"/><polygon fill="#FFFFFF" points="102.4134,236.9454,102.4495,237.0054,104.0313,235.8133,105.8244,234.9733,107.5488,234.0187,109.0468,232.6869,110.8581,231.8771,110.8536,231.8516,109.7192,231.9323,108.6072,232.1416,107.511,232.4403,106.3607,232.4308,105.286,232.853,105.4678,232.8848,104.8839,231.7023,104.8308,230.6128,104.8424,229.5346,104.4772,228.3904,104.3102,227.2809,104.3326,227.2853,103.9204,229.2117,103.6099,231.1582,103.2504,233.0949,102.9843,235.0501,102.4134,236.9454" style="stroke: #FFFFFF; stroke-width: 1.0;"/><!--link direccionOrigen to conector--><path d="M107.143,278.4284 L107.2123,278.491 L110.4601,282.1239 L114.1142,286.1241 L117.6359,290.0046 L120.7227,293.4919 L124.4116,297.5236 L124.3861,297.5003 L128.4209,301.9383 L132.5842,306.4937 L136.8369,311.1308 L140.7816,315.4866 L145.1578,320.2364 L145.3383,320.4035 L149.4678,324.9231 L154.1245,329.9308 L158.8454,334.998 L163.1922,339.7187 L167.7358,344.6217 L167.7578,344.6425 L172.2783,349.4345 L176.8992,354.3212 L181.4716,359.1623 L186.1364,364.0905 L190.5,368.7344 L191.1438,369.3557 L198.497,376.9736 L205.4349,384.1908 L212.9807,391.9946 L220.555,399.8258 L227.2266,406.7859 L226.5397,406.1129 L235.4088,415.1104 L242.0163,421.8919 L250.3431,430.3581 L256.8994,437.0894 L264.9069,445.2426 L264.842,445.1783 L273.0529,453.4491 L279.7483,460.2176 L287.3379,467.8726 L295.0026,475.6019 L302.1257,482.7945 L302.5181,483.1869 L309.1905,489.8582 L316.5334,497.2 L322.7915,503.4569 L330.6676,511.3321 L337.468,518.1314 " fill="none" style="stroke: #FFFFFF; stroke-width: 1.0;"/><polygon fill="#FFFFFF" points="341.263,521.9084,341.3283,521.9337,340.4234,520.0215,339.9014,518.2575,339.2548,516.4453,338.1979,514.4744,337.7089,512.7231,337.683,512.7231,337.569,513.8542,337.5856,514.9856,337.693,516.1172,337.4876,517.2482,337.7203,518.38,337.7207,518.5645,336.5885,518.1722,335.4575,518.3186,334.3265,518.5308,333.1948,518.3605,332.0635,518.3914,332.0716,518.4127,333.8996,519.0849,335.7645,519.8538,337.6117,520.576,339.4928,521.3873,341.263,521.9084" style="stroke: #FFFFFF; stroke-width: 1.0;"/><!--link *start to tipoOrigen--><path d="M436.5,86.8544 L436.7802,86.8544 L435.9476,97.7164 L436.7577,108.5784 L437.0329,119.4404 L435.5488,130.3024 L436.5,141.1644 " fill="none" style="stroke: #FFFFFF; stroke-width: 1.0;"/><polygon fill="#FFFFFF" points="436.5,146.3744,436.564,146.4028,437.1738,144.5183,438.1589,142.8005,439.0217,141.0285,439.4827,139.0778,440.5,137.3744,440.4817,137.3561,439.5995,138.0738,438.8096,138.884,438.0839,139.7583,437.137,140.4114,436.5,141.3744,436.6305,141.5049,435.5514,140.4258,434.8534,139.7278,434.2018,139.0762,433.2798,138.1542,432.5,137.3744,432.5208,137.3836,433.2903,139.17,434.1544,140.9985,434.9728,142.8067,435.8784,144.6537,436.5,146.3744" style="stroke: #FFFFFF; stroke-width: 1.0;"/><!--link tipoOrigen to conector--><path d="M436.5,368.7594 L436.7802,368.7594 L435.9476,379.6598 L436.7577,390.5602 L437.0329,401.4606 L435.5488,412.361 L436.5,423.2614 " fill="none" style="stroke: #FFFFFF; stroke-width: 1.0;"/><polygon fill="#FFFFFF" points="436.5,428.5254,436.564,428.5538,437.1738,426.6693,438.1589,424.9515,439.0217,423.1795,439.4827,421.2288,440.5,419.5254,440.4817,419.5071,439.5995,420.2248,438.8096,421.035,438.0839,421.9093,437.137,422.5624,436.5,423.5254,436.6305,423.6559,435.5514,422.5768,434.8534,421.8788,434.2018,421.2272,433.2798,420.3052,432.5,419.5254,432.5208,419.5346,433.2903,421.321,434.1544,423.1495,434.9728,424.9577,435.8784,426.8047,436.5,428.5254" style="stroke: #FFFFFF; stroke-width: 1.0;"/><!--link *start to conector--><path d="M446.76,78.4744 L446.7707,78.5672 L449.435,78.6012 L452.1618,79.1792 L454.8683,79.5801 L457.5078,79.3984 L460.24,80.0231 L460.2345,79.989 L463.7027,80.3997 L467.1987,80.9822 L470.714,81.6842 L474.1628,81.9744 L477.7046,82.8414 L477.7536,83.0825 L479.6164,82.9666 L481.6222,83.5547 L483.6455,84.2287 L485.5673,84.4029 L487.5424,84.84 L487.5494,84.8695 L489.6126,85.3166 L491.7076,85.8981 L493.7873,86.4147 L495.8962,87.055 L497.9098,87.2921 L497.9888,87.5797 L500.1381,88.1734 L502.2364,88.5816 L504.4093,89.2613 L506.5857,89.9538 L508.6513,90.243 L508.5539,89.9376 L510.9349,91.2293 L512.9953,91.5155 L515.2994,92.5661 L517.3525,92.8295 L519.6114,93.7381 L519.6008,93.7096 L521.9305,94.8641 L524.0131,95.3517 L526.2415,96.2328 L528.4822,97.147 L530.6345,97.8228 L530.7079,97.9927 L532.82,98.7651 L535.0574,99.8279 L537.0921,100.421 L539.4292,101.7146 L541.5653,102.5424 L541.6752,102.7599 L543.791,103.7988 L545.9613,104.9456 L547.8781,105.5908 L549.9808,106.6037 L552.2481,107.9424 L552.1067,107.7051 L554.2906,109.145 L556.3151,110.3176 L558.5707,111.8779 L560.4318,112.7762 L562.5274,114.068 L562.4392,113.9436 L564.5302,115.53 L566.2441,116.5849 L568.2261,118.0178 L570.4706,119.8205 L572.2478,120.9646 L572.3738,121.1117 L574.2613,122.7551 L575.7571,123.9412 L577.7436,125.7002 L579.6232,127.3343 L581.2537,128.6776 L581.1014,128.5331 L582.85,130.3633 L584.5487,132.1461 L586.3454,134.0219 L587.7611,135.5362 L589.3896,137.2524 L589.5541,137.3758 L590.6148,139.0012 L591.9929,140.8646 L593.8349,143.0759 L594.823,144.6468 L596.5,146.7344 L596.6927,146.8528 L598.4268,149.7901 L600.0957,152.6872 L601.9117,155.6749 L604.0679,158.8715 L605.7428,161.7724 L605.6249,161.7107 L607.4703,164.7517 L608.5139,167.3734 L610.4691,170.4719 L611.9111,173.3019 L613.2148,176.0595 L613.3149,176.1022 L614.3974,178.8006 L615.8385,181.6516 L616.9556,184.3647 L617.9373,187.0202 L619.0314,189.7235 L619.1447,189.7603 L619.8316,192.3393 L621.0448,195.0892 L621.6627,197.6458 L622.5255,200.2819 L623.3079,202.8919 L623.044,202.8331 L623.7025,205.4129 L624.6789,208.0635 L625.2055,210.6138 L625.5708,213.1283 L626.1598,215.6925 L626.0177,215.6751 L626.3717,218.1927 L626.4741,220.6795 L627.2683,223.2512 L627.7201,225.7809 L627.7024,228.2529 L627.9363,228.2595 L628.0809,230.7512 L627.7811,233.2304 L627.9504,235.7228 L627.8092,238.2064 L628.0511,240.7008 L628.1771,240.7082 L628.0146,243.1998 L628.0042,245.7004 L627.5113,248.1727 L627.4076,250.6678 L627.3213,253.1639 L627.5166,253.1901 L627.2326,255.7186 L626.4183,258.1759 L626.22,260.7159 L626.0326,263.2574 L625.6282,265.7698 L625.3619,265.7172 L625.2742,268.3754 L624.7244,270.9425 L624.0598,273.4869 L623.6576,276.0831 L623.0874,278.6461 L623.4019,278.7237 L622.2978,281.2678 L621.9141,283.9895 L621.2468,286.6413 L620.5188,289.2781 L619.8142,291.9207 L619.8745,291.9377 L619.0847,294.6944 L617.9911,297.3656 L617.3086,300.1526 L616.5046,302.9053 L615.924,305.7211 L615.9511,305.7293 L615.0831,308.6232 L614.236,311.5235 L613.1651,314.3558 L612.3817,317.2755 L611.532,320.175 L611.4811,320.159 L610.821,323.2987 L609.8017,326.3257 L608.4592,329.2514 L607.6785,332.3533 L606.7538,335.41 L606.509,335.3334 L605.8663,338.6771 L604.9923,341.9483 L603.9553,345.1686 L602.5298,348.2674 L601.7047,351.5539 L601.902,351.6137 L600.3478,354.8943 L599.7079,358.4519 L598.4546,361.8236 L597.5821,365.3108 L596.5,368.7344 L596.6016,368.7674 L595.628,372.0945 L594.0526,375.226 L593.4862,378.6855 L592.289,381.9399 L591.1421,385.2107 L591.2897,385.267 L590.2039,388.6035 L588.647,391.7604 L587.4688,395.0617 L586.236,398.3421 L584.8986,401.5827 L584.9791,401.6176 L583.4937,404.8242 L582.3792,408.1915 L580.436,411.1998 L579.5106,414.649 L577.8754,417.7908 L577.6255,417.6704 L576.1196,420.8835 L574.8125,424.1923 L573.2684,427.3869 L571.5202,430.4833 L570.1781,433.7753 L570.3408,433.8609 L568.5678,436.9381 L567.1577,440.2062 L565.4812,443.3342 L563.3894,446.2435 L561.9126,449.4766 L561.7588,449.3892 L560.1171,452.5199 L558.5587,455.6981 L556.8315,458.7802 L555.0465,461.8295 L553.1845,464.8351 L553.0547,464.7562 L551.6093,467.9732 L549.7914,470.9638 L547.7157,473.7979 L545.8259,476.7449 L544.0998,479.7912 L543.9498,479.6946 L542.1524,482.6384 L540.4168,485.622 L538.4728,488.4713 L536.475,491.286 L534.764,494.2854 " fill="none" style="stroke: #FFFFFF; stroke-width: 1.0;"/><polygon fill="#FFFFFF" points="531.692,498.8894,531.7295,498.9486,533.2829,497.7197,535.0558,496.8378,536.7573,495.8429,538.2236,494.4764,540.0154,493.6243,540.0104,493.5989,538.8781,493.7062,537.7714,493.9415,536.6824,494.2659,535.5323,494.2834,534.4678,494.7307,534.6488,494.7668,534.0405,493.5801,533.9606,492.4987,533.9452,491.4303,533.5547,490.287,533.3615,489.183,533.3839,489.1869,533.0171,491.1225,532.7523,493.0757,532.4384,495.0204,532.2183,496.9812,531.692,498.8894" style="stroke: #FFFFFF; stroke-width: 1.0;"/><!--link conector to *end--><path d="M436.5,804.7684 L436.7802,804.7684 L435.9476,814.6712 L436.7577,824.5741 L437.0329,834.477 L435.5488,844.3799 L436.3964,854.2827 L435.9313,864.1856 L435.9887,874.0885 L436.4091,883.9913 L435.5782,893.8942 L437.2382,903.7971 L435.6596,913.7 L436.2363,923.6028 L437.0759,933.5057 L436.3856,943.4086 L436.591,953.3114 L436.4574,963.2143 L436.738,973.1172 L436.8188,983.02 L437.2809,992.9229 L437.3947,1002.8258 L437.4057,1012.7287 L436.8395,1022.6315 L437.1181,1032.5344 L437.4363,1042.4373 L435.5384,1052.3401 L437.4047,1062.243 L436.1047,1072.1459 L437.2117,1082.0488 L435.84,1091.9516 L436.4087,1101.8545 L437.4888,1111.7574 L436.435,1121.6602 L436.6404,1131.5631 L436.5,1141.466 " fill="none" style="stroke: #FFFFFF; stroke-width: 1.0;"/><polygon fill="#FFFFFF" points="436.5,1146.4871,436.564,1146.5155,437.1738,1144.631,438.1589,1142.9132,439.0217,1141.1412,439.4827,1139.1905,440.5,1137.4871,440.4817,1137.4688,439.5995,1138.1865,438.8096,1138.9967,438.0839,1139.871,437.137,1140.5241,436.5,1141.4871,436.6305,1141.6176,435.5514,1140.5385,434.8534,1139.8405,434.2018,1139.1889,433.2798,1138.2669,432.5,1137.4871,432.5208,1137.4963,433.2903,1139.2827,434.1544,1141.1112,434.9728,1142.9194,435.8784,1144.7664,436.5,1146.4871" style="stroke: #FFFFFF; stroke-width: 1.0;"/><!--link conector to direccionDestino--><path d="M341.383,767.3244 L341.6195,767.4747 L335.6213,775.3561 L331.0095,784.1189 L325.9462,792.5947 L319.3983,800.1265 L314.8181,808.9095 L309.1301,816.9881 L303.883,825.347 L298.9423,833.9007 L292.9456,841.783 L289.0509,851.0018 L282.4233,858.483 L277.6145,867.1205 L273.0275,875.8992 L267.1495,883.8569 L262.0273,892.2952 L256.6191,900.5517 L251.5604,909.0304 L246.3331,917.4019 L241.4275,925.978 L236.228,934.3672 L230.9418,942.7012 L224.882,950.5434 " fill="none" style="stroke: #FFFFFF; stroke-width: 1.0;"/><polygon fill="#FFFFFF" points="222.078,954.9534,222.1168,955.0117,223.6424,953.7485,225.3953,952.8274,227.0742,951.7949,228.5097,950.3961,230.2821,949.5043,230.2765,949.479,229.1469,949.6115,228.0457,949.8714,226.9642,950.2199,225.8148,950.263,224.7605,950.7339,224.9407,950.774,224.3095,949.5839,224.2044,948.5109,224.1633,947.4522,223.749,946.3104,223.531,945.2123,223.5535,945.2156,223.2298,947.1589,223.0086,949.1175,222.738,951.0687,222.5617,953.034,222.078,954.9534" style="stroke: #FFFFFF; stroke-width: 1.0;"/><!--link direccionDestino to *end--><path d="M225.099,996.2994 L225.1706,996.3593 L226.5443,998.0757 L228.3378,1000.1437 L229.9946,1002.0971 L231.2018,1003.6741 L233.0313,1005.7722 L233.0052,1005.7497 L234.7283,1007.7785 L236.5832,1009.9212 L238.5297,1012.1431 L240.1606,1014.0922 L242.2335,1016.4233 L242.4168,1016.5874 L244.0849,1018.5368 L246.2882,1020.9654 L248.5568,1023.4524 L250.4455,1025.5993 L252.5339,1027.9251 L252.5561,1027.9458 L254.7689,1030.3204 L257.0827,1032.7892 L259.3478,1035.2126 L261.7058,1037.7228 L263.7609,1039.9501 L263.9738,1040.1589 L266.3728,1042.6057 L268.6344,1044.9177 L271.0971,1047.4269 L273.5691,1049.9454 L275.7426,1052.171 L275.5204,1051.9401 L278.4647,1054.8062 L280.6772,1056.9118 L283.4461,1059.5956 L285.642,1061.6839 L288.3075,1064.2603 L288.2872,1064.2377 L291.1228,1066.8318 L293.4836,1068.8963 L296.1246,1071.2734 L298.7891,1073.6766 L301.2839,1075.8906 L301.4012,1076.0336 L303.926,1078.058 L306.6513,1080.3268 L309.0522,1082.2002 L311.937,1084.6633 L314.5,1086.7344 L314.6443,1086.9307 L317.4379,1088.9663 L320.3031,1091.0994 L322.8356,1092.7795 L325.612,1094.7916 L328.6045,1097.0979 L328.4517,1096.8679 L331.5616,1099.0503 L334.4994,1100.9735 L337.687,1103.2726 L340.448,1104.9299 L343.4626,1106.9687 L343.3831,1106.8386 L346.5474,1108.9091 L349.3718,1110.4236 L352.4379,1112.3335 L355.7406,1114.6303 L358.6221,1116.2381 L358.718,1116.4063 L361.7855,1118.2336 L364.5546,1119.5377 L367.6974,1121.4971 L370.7588,1123.3137 L373.6305,1124.7977 L373.5311,1124.6127 L376.4913,1126.3083 L379.419,1127.9434 L382.4106,1129.6975 L385.1537,1130.9889 L388.0355,1132.5387 L388.129,1132.7218 L390.5935,1133.6823 L393.2384,1134.9963 L396.1469,1136.8265 L398.5701,1137.7062 L401.3849,1139.3528 L401.4841,1139.5561 L403.7934,1140.5911 L406.0692,1141.5572 L408.4207,1142.6786 L410.9473,1144.1589 L413.2261,1145.1314 L413.1696,1145.0109 L415.314,1146.2964 L417.0742,1146.7627 L419.2712,1148.1604 L421.2222,1149.0338 L423.107,1149.7658 " fill="none" style="stroke: #FFFFFF; stroke-width: 1.0;"/><polygon fill="#FFFFFF" points="427.682,1151.8507,427.7344,1151.8971,426.2727,1150.2845,425.1183,1148.9441,423.8639,1147.5151,422.2802,1145.7945,421.1523,1144.4776,421.128,1144.4685,421.4152,1145.4876,421.8246,1146.5524,422.3191,1147.649,422.5206,1148.636,423.1325,1149.7765,423.1971,1149.9494,421.9992,1149.9757,420.9899,1150.5068,420.0036,1151.0995,418.8834,1151.3339,417.8336,1151.7567,417.8338,1151.7795,419.8032,1151.7649,421.7735,1151.8538,423.7434,1151.8928,425.7142,1152.0271,427.682,1151.8507" style="stroke: #FFFFFF; stroke-width: 1.0;"/><!--link conector to tipoDestino--><path d="M531.572,791.7894 L531.8179,791.9237 L535.7442,800.0503 L541.1122,808.9644 L546.0107,817.6221 L549.3652,825.4364 L554.7661,834.3685 L559.0149,842.6713 L563.7222,851.2245 L568.828,859.9954 " fill="none" style="stroke: #FFFFFF; stroke-width: 1.0;"/><polygon fill="#FFFFFF" points="571.356,864.6244,571.4258,864.6301,571.0581,862.6499,571.0996,860.7031,571.0079,858.7455,570.4778,856.7521,570.5546,854.8082,570.5297,854.8009,570.0993,855.8536,569.7942,856.9432,569.5762,858.0583,569.058,859.0853,568.9602,860.2357,569.0123,860.4128,567.8155,859.7153,566.7706,859.5347,565.7443,859.4173,564.6102,858.9328,563.5327,858.6414,563.5465,858.6595,565.0909,859.8295,566.6982,861.0819,568.2751,862.2945,569.9099,863.5829,571.356,864.6244" style="stroke: #FFFFFF; stroke-width: 1.0;"/><!--link tipoDestino to *end--><path d="M511.613,1086.7844 L511.8025,1086.9908 L504.1189,1092.9138 L497.5462,1100.047 L490.6117,1106.7861 L482.4875,1112.2291 L475.9402,1119.3899 L468.5051,1125.5837 L461.4233,1132.1623 L454.5871,1139.0084 L447.528,1145.6117 " fill="none" style="stroke: #FFFFFF; stroke-width: 1.0;"/><polygon fill="#FFFFFF" points="443.718,1149.1087,443.7403,1149.1751,445.541,1148.3498,447.4725,1147.9139,449.3615,1147.3511,451.1102,1146.3715,453.053,1145.969,453.0519,1145.9431,451.9166,1145.7786,450.7869,1145.7446,449.661,1145.8013,448.5218,1145.5454,447.4013,1145.7274,447.5857,1145.7352,447.2397,1144.5881,447.4321,1143.4639,447.6901,1142.3425,447.566,1141.2048,447.6429,1140.0757,447.6638,1140.0847,446.8481,1141.878,446.1275,1143.7126,445.3611,1145.5272,444.682,1147.3799,443.718,1149.1087" style="stroke: #FFFFFF; stroke-width: 1.0;"/><!--
@startuml
skinparam titleBorderColor #222222
skinparam titleBackgroundColor #222222
skinparam titlefontColor #orange
skinparam titleFontStyle bold
skinparam titleFontSize 30

skinparam handwritten true
skinparam shadowing false
skinparam backgroundColor #222222
skinparam padding 3
skinparam StateStartColor #white
skinparam StateEndColor #white

skinparam note {
    backgroundColor #222222
    fontStyle bold
    borderColor #white
    FontColor #yellow
     fontSize 20
}

skinparam state {
    fontColor #white
    fontColor<<NoTerminal>> #orange
    fontStyle bold
    arrowColor #white
    backgroundColor #222222
    borderColor #white
    circleCharacterFontName #white
    fontSize 20
}

hide empty description

title Sintaxis: Conector Discontinuo

state tipoOrigen {

  state implementacionOrigen as "implementacion"

  note right of implementacionOrigen: <color:cyan> <| </color>

  [*] -down-> implementacionOrigen
  implementacionOrigen -down-> [*]

}

state tipoDestino {

  state implementacionDestino as "implementacion"

  note right of implementacionDestino: <color:cyan> |> </color>

  [*] -down-> implementacionDestino
  implementacionDestino -down-> [*]

}

state conector {

  state linea1 as "linea"
  state linea2 as "linea"
  state posicion <<NoTerminal>>

  note right of linea1: <color:cyan>.</color>
  note right of linea2: <color:cyan>.</color>

  [*] -down-> linea1
  linea1 -down-> [*]
  linea1 -down-> posicion
  posicion -down-> linea2
  linea1 -down-> linea2
  linea2 -down-> [*]

}

note right of direccionOrigen: <color:cyan> < </color>
note right of direccionDestino: <color:cyan> > </color>

[*] -down-> direccionOrigen
direccionOrigen -down-> conector
[*] -down-> tipoOrigen
tipoOrigen -down-> conector
[*] -down-> conector
conector -down-> [*]
conector -down-> direccionDestino
direccionDestino -down-> [*]
conector -down-> tipoDestino
tipoDestino -down-> [*]

@enduml

PlantUML version 1.2019.05(Sat Apr 20 18:45:36 CEST 2019)
(GPL source distribution)
Java Runtime: Java(TM) SE Runtime Environment
JVM: Java HotSpot(TM) 64-Bit Server VM
Java Version: 11.0.8+10-LTS
Operating System: Windows 10
OS Version: 10.0
Default Encoding: windows-1252
Language: es
Country: ES
--></g></svg>