<?xml version="1.0" encoding="UTF-8" standalone="no"?><svg xmlns="http://www.w3.org/2000/svg" xmlns:xlink="http://www.w3.org/1999/xlink" contentScriptType="application/ecmascript" contentStyleType="text/css" height="538px" preserveAspectRatio="none" style="width:873px;height:538px;background:#222222;" version="1.1" viewBox="0 0 873 538" width="873px" zoomAndPan="magnify"><defs/><g><!--cluster useCaseView--><polygon fill="#222222" points="22,24,22,24.2102,32,23.5857,42,24.1933,52,24.3997,62,23.2866,72,23.9223,82,23.5735,92,23.6165,102,23.9318,112,23.3086,122,24.5536,132,23.3697,142,23.8022,152,24.4319,162,24,161.972,23.9943,163.4223,30.8272,164.7896,37.6432,166.2583,44.4799,167.6781,51.3066,169,58.1133,169,58.699,179.0294,58.7843,189.0588,58.7925,199.0882,58.3679,209.1176,58.5769,219.1471,58.8155,229.1765,57.3921,239.2059,58.7918,249.2353,57.8168,259.2647,58.6471,269.2941,57.6183,279.3235,58.0448,289.3529,58.8549,299.3824,58.0645,309.4118,58.2186,319.4412,58.4519,329.4706,58.5295,339.5,58.1094,349.5294,58.4005,359.5588,57.5409,369.5882,58.3977,379.6176,58.6615,389.6471,58.5578,399.6765,58.7263,409.7059,57.6302,419.7353,57.4611,429.7647,57.4919,439.7941,58.0544,449.8235,57.9168,459.8529,58.7947,469.8824,57.9386,479.9118,57.7702,489.9412,58.3415,499.9706,57.4464,510,57.5942,520.0294,58.7622,530.0588,58.5489,540.0882,58.8478,550.1176,57.7915,560.1471,58.4325,570.1765,58.7037,580.2059,57.6409,590.2353,58.0174,600.2647,58.2393,610.2941,58.765,620.3235,58.1091,630.3529,58.5758,640.3824,57.5595,650.4118,57.436,660.4412,58.6169,670.4706,57.3963,680.5,58.6222,690.5294,58.3199,700.5588,57.8454,710.5882,57.7595,720.6176,58.572,730.6471,57.8139,740.6765,58.7051,750.7059,57.5605,760.7353,58.7307,770.7647,58.5976,780.7941,58.3582,790.8235,58.1605,800.8529,58.8399,810.8824,58.7269,820.9118,58.2825,830.9412,58.3815,840.9706,57.983,851,58.1133,851.7165,58.1133,851.1549,68.0683,851.1726,78.0234,850.3916,87.9784,850.5948,97.9334,851.5307,107.8885,851.4298,117.8435,850.9571,127.7985,850.6778,137.7536,850.7811,147.7086,850.3138,157.6636,851.4147,167.6187,851.7396,177.5737,851.5264,187.5288,851.6949,197.4838,850.8633,207.4388,851.0872,217.3939,850.6124,227.3489,851.284,237.3039,851.2468,247.259,851.5524,257.214,850.7703,267.169,850.8656,277.1241,851.4435,287.0791,851.5673,297.0342,850.4875,306.9892,850.8061,316.9442,851.1493,326.8993,850.3892,336.8543,851.3534,346.8093,851.258,356.7644,850.8992,366.7194,851.1422,376.6745,851.7287,386.6295,850.6871,396.5845,851.315,406.5396,851.2856,416.4946,851.1158,426.4496,851.1409,436.4047,851.1135,446.3597,850.3758,456.3147,850.5992,466.2698,850.5385,476.2248,851.0638,486.1799,851.0881,496.1349,851.1617,506.0899,850.709,516.045,851,526,851,525.9325,841.012,525.8798,831.0241,526.5769,821.0361,526.4266,811.0482,525.5145,801.0602,525.9271,791.0723,525.4228,781.0843,526.2884,771.0964,526.6085,761.1084,526.5446,751.1205,525.5644,741.1325,526.464,731.1446,525.2572,721.1566,526.2002,711.1687,525.7007,701.1807,526.0967,691.1928,526.2403,681.2048,526.4721,671.2169,525.2801,661.2289,526.4755,651.241,526.1782,641.253,526.3553,631.2651,526.7478,621.2771,526.0055,611.2892,526.1753,601.3012,526.2134,591.3133,526.1972,581.3253,525.9992,571.3373,526.7107,561.3494,525.3903,551.3614,526.5653,541.3735,525.376,531.3855,525.4597,521.3976,526.04,511.4096,526.0283,501.4217,525.5072,491.4337,526.4137,481.4458,526.1089,471.4578,526.7267,461.4699,526.6671,451.4819,525.5517,441.494,525.6021,431.506,525.8708,421.5181,526.3555,411.5301,526.403,401.5422,526.3012,391.5542,525.658,381.5663,526.6364,371.5783,526.6338,361.5904,525.9527,351.6024,525.7609,341.6145,525.5986,331.6265,525.7854,321.6386,526.1374,311.6506,525.9316,301.6627,525.5822,291.6747,526.4874,281.6867,525.5411,271.6988,526.5024,261.7108,526.4272,251.7229,526.3719,241.7349,526.6925,231.747,525.7541,221.759,525.6994,211.7711,526.5189,201.7831,525.4031,191.7952,525.766,181.8072,526.1155,171.8193,526.0687,161.8313,525.6415,151.8434,525.957,141.8554,526.7446,131.8675,526.6485,121.8795,525.4037,111.8916,526.0785,101.9036,525.4861,91.9157,525.9737,81.9277,526.293,71.9398,526.4199,61.9518,525.3353,51.9639,526.4005,41.9759,526.0084,31.988,525.4447,22,526,21.5289,526,22.3266,515.96,22.2499,505.92,21.9836,495.88,21.3279,485.84,22.6581,475.8,21.6882,465.76,21.4719,455.72,21.9327,445.68,22.5897,435.64,22.6154,425.6,22.0351,415.56,21.8488,405.52,22.1698,395.48,22.1862,385.44,21.4922,375.4,22.414,365.36,22.5588,355.32,21.7842,345.28,21.5708,335.24,22.6746,325.2,22.021,315.16,21.9998,305.12,22.299,295.08,21.3543,285.04,22.53,275,21.9846,264.96,22.6688,254.92,21.7841,244.88,22.409,234.84,21.556,224.8,22.245,214.76,22.3793,204.72,21.6727,194.68,22.363,184.64,21.4286,174.6,21.5295,164.56,22.6828,154.52,22.6844,144.48,22.5685,134.44,21.6396,124.4,22.3842,114.36,21.5279,104.32,22.0582,94.28,21.9987,84.24,21.7376,74.2,22.6159,64.16,22.4433,54.12,21.6792,44.08,22.5266,34.04,22,24" style="stroke: #A9A9A9; stroke-width: 3.0;"/><path d="M22,58.1133 L22,58.3935 L31.8,57.5609 L41.6,58.371 L51.4,58.6462 L61.2,57.1621 L71,58.0097 L80.8,57.5446 L90.6,57.6019 L100.4,58.0224 L110.2,57.1915 L120,58.8515 L129.8,57.2729 L139.6,57.8496 L149.4,58.6892 L159.2,57.9989 L169,58.1133 " fill="#222222" style="stroke: #A9A9A9; stroke-width: 3.0;"/><text fill="#A9A9A9" font-family="courier" font-size="20" font-weight="bold" lengthAdjust="spacingAndGlyphs" textLength="132" x="27" y="47.1074">useCaseView</text><!--entity registred--><polygon fill="#222222" points="44,132,44,132.2102,54,131.5857,64,132.1933,74,132.3997,84,131.2866,94,131.9223,104,131.5735,114,131.6165,124,131.9318,134,131.3086,144,132.5536,154,131.3697,164,131.8022,174,132.4319,184,131.9142,194,132.0682,204,131.9681,214,132.1785,224,132.2391,234,132.5857,244,132.6711,254,132.6793,264,132.2546,274,132.4636,284,132.7022,294,131.2788,304,132.6785,314,131.7035,324,132.5338,334,131.505,344,131.9315,354,132.7416,364,131.9513,374,132.1053,384,132.3386,394,132.4162,404,131.9961,414,132.2872,424,131.4276,434,132.2844,444,132.5482,454,132.4445,464,132.613,474,131.5169,484,131.3478,494,131.3786,504,131.9411,514,131.8035,524,132.6814,534,132,533.8253,132,533.6569,141.6227,534.2283,151.2453,533.3332,160.868,533.4809,170.4906,534,180.1133,534,180.7622,524,180.5489,514,180.8478,504,179.7915,494,180.4325,484,180.7037,474,179.6409,464,180.0174,454,180.2393,444,180.765,434,180.1091,424,180.5758,414,179.5595,404,179.436,394,180.6169,384,179.3963,374,180.6222,364,180.3199,354,179.8454,344,179.7595,334,180.572,324,179.8139,314,180.7051,304,179.5605,294,180.7307,284,180.5976,274,180.3582,264,180.1605,254,180.8399,244,180.7269,234,180.2825,224,180.3815,214,179.983,204,180.8297,194,180.2681,184,180.2859,174,179.5049,164,179.7081,154,180.644,144,180.543,134,180.0703,124,179.7911,114,179.8944,104,179.4271,94,180.528,84,180.8528,74,180.6397,64,180.8082,54,179.9766,44,180.1133,44.0872,180.1133,43.6124,170.4906,44.284,160.868,44.2468,151.2453,44.5524,141.6227,44,132" style="stroke: #A9A9A9; stroke-width: 3.0;"/><text fill="#A9A9A9" font-family="courier" font-size="20" font-weight="bold" lengthAdjust="spacingAndGlyphs" textLength="468" x="55" y="163.1074">registred users : FunctionalRequirement</text><!--entity ticTacToe--><polygon fill="#222222" points="50,247,50,247.2102,59.9583,246.5857,69.9167,247.1933,79.875,247.3997,89.8333,246.2866,99.7917,246.9223,109.75,246.5735,119.7083,246.6165,129.6667,246.9318,139.625,246.3086,149.5833,247.5536,159.5417,246.3697,169.5,246.8022,179.4583,247.4319,189.4167,246.9142,199.375,247.0682,209.3333,246.9681,219.2917,247.1785,229.25,247.2391,239.2083,247.5857,249.1667,247.6711,259.125,247.6793,269.0833,247.2546,279.0417,247.4636,289,247.7022,298.9583,246.2788,308.9167,247.6785,318.875,246.7035,328.8333,247.5338,338.7917,246.505,348.75,246.9315,358.7083,247.7416,368.6667,246.9513,378.625,247.1053,388.5833,247.3386,398.5417,247.4162,408.5,246.9961,418.4583,247.2872,428.4167,246.4276,438.375,247.2844,448.3333,247.5482,458.2917,247.4445,468.25,247.613,478.2083,246.5169,488.1667,246.3478,498.125,246.3786,508.0833,246.9411,518.0417,246.8035,528,247,528.6814,247,527.8253,256.6227,527.6569,266.2453,528.2283,275.868,527.3332,285.4906,528,295.1133,528,294.5942,518.0417,295.7622,508.0833,295.5489,498.125,295.8478,488.1667,294.7915,478.2083,295.4325,468.25,295.7037,458.2917,294.6409,448.3333,295.0174,438.375,295.2393,428.4167,295.765,418.4583,295.1091,408.5,295.5758,398.5417,294.5595,388.5833,294.436,378.625,295.6169,368.6667,294.3963,358.7083,295.6222,348.75,295.3199,338.7917,294.8454,328.8333,294.7595,318.875,295.572,308.9167,294.8139,298.9583,295.7051,289,294.5605,279.0417,295.7307,269.0833,295.5976,259.125,295.3582,249.1667,295.1605,239.2083,295.8399,229.25,295.7269,219.2917,295.2825,209.3333,295.3815,199.375,294.983,189.4167,295.8297,179.4583,295.2681,169.5,295.2859,159.5417,294.5049,149.5833,294.7081,139.625,295.644,129.6667,295.543,119.7083,295.0703,109.75,294.7911,99.7917,294.8944,89.8333,294.4271,79.875,295.528,69.9167,295.8528,59.9583,295.6397,50,295.1133,50.6949,295.1133,49.8633,285.4906,50.0872,275.868,49.6124,266.2453,50.284,256.6227,50,247" style="stroke: #A9A9A9; stroke-width: 3.0;"/><text fill="#A9A9A9" font-family="courier" font-size="20" font-weight="bold" lengthAdjust="spacingAndGlyphs" textLength="456" x="61" y="278.1074">TicTacToe game : FunctionalRequirement</text><!--entity persistent--><polygon fill="#222222" points="38,379,38,379.2102,48.04,378.5857,58.08,379.1933,68.12,379.3997,78.16,378.2866,88.2,378.9223,98.24,378.5735,108.28,378.6165,118.32,378.9318,128.36,378.3086,138.4,379.5536,148.44,378.3697,158.48,378.8022,168.52,379.4319,178.56,378.9142,188.6,379.0682,198.64,378.9681,208.68,379.1785,218.72,379.2391,228.76,379.5857,238.8,379.6711,248.84,379.6793,258.88,379.2546,268.92,379.4636,278.96,379.7022,289,378.2788,299.04,379.6785,309.08,378.7035,319.12,379.5338,329.16,378.505,339.2,378.9315,349.24,379.7416,359.28,378.9513,369.32,379.1053,379.36,379.3386,389.4,379.4162,399.44,378.9961,409.48,379.2872,419.52,378.4276,429.56,379.2844,439.6,379.5482,449.64,379.4445,459.68,379.613,469.72,378.5169,479.76,378.3478,489.8,378.3786,499.84,378.9411,509.88,378.8035,519.92,379.6814,529.96,378.8253,540,379,539.6569,379,540.2283,388.6227,539.3332,398.2453,539.4809,407.868,540.649,417.4906,540,427.1133,540,427.5489,529.96,427.8478,519.92,426.7915,509.88,427.4325,499.84,427.7037,489.8,426.6409,479.76,427.0174,469.72,427.2393,459.68,427.765,449.64,427.1091,439.6,427.5758,429.56,426.5595,419.52,426.436,409.48,427.6169,399.44,426.3963,389.4,427.6222,379.36,427.3199,369.32,426.8454,359.28,426.7595,349.24,427.572,339.2,426.8139,329.16,427.7051,319.12,426.5605,309.08,427.7307,299.04,427.5976,289,427.3582,278.96,427.1605,268.92,427.8399,258.88,427.7269,248.84,427.2825,238.8,427.3815,228.76,426.983,218.72,427.8297,208.68,427.2681,198.64,427.2859,188.6,426.5049,178.56,426.7081,168.52,427.644,158.48,427.543,148.44,427.0703,138.4,426.7911,128.36,426.8944,118.32,426.4271,108.28,427.528,98.24,427.8528,88.2,427.6397,78.16,427.8082,68.12,426.9766,58.08,427.2005,48.04,426.7257,38,427.1133,38.284,427.1133,38.2468,417.4906,38.5524,407.868,37.7703,398.2453,37.8656,388.6227,38,379" style="stroke: #A9A9A9; stroke-width: 3.0;"/><text fill="#A9A9A9" font-family="courier" font-size="20" font-weight="bold" lengthAdjust="spacingAndGlyphs" textLength="480" x="49" y="410.1074">persistent games : FunctionalRequirement</text><!--entity undoRedo--><polygon fill="#222222" points="80,462,80,462.2102,89.9524,461.5857,99.9048,462.1933,109.8571,462.3997,119.8095,461.2866,129.7619,461.9223,139.7143,461.5735,149.6667,461.6165,159.619,461.9318,169.5714,461.3086,179.5238,462.5536,189.4762,461.3697,199.4286,461.8022,209.381,462.4319,219.3333,461.9142,229.2857,462.0682,239.2381,461.9681,249.1905,462.1785,259.1429,462.2391,269.0952,462.5857,279.0476,462.6711,289,462.6793,298.9524,462.2546,308.9048,462.4636,318.8571,462.7022,328.8095,461.2788,338.7619,462.6785,348.7143,461.7035,358.6667,462.5338,368.619,461.505,378.5714,461.9315,388.5238,462.7416,398.4762,461.9513,408.4286,462.1053,418.381,462.3386,428.3333,462.4162,438.2857,461.9961,448.2381,462.2872,458.1905,461.4276,468.1429,462.2844,478.0952,462.5482,488.0476,462.4445,498,462,498.613,462,497.5169,471.6227,497.3478,481.2453,497.3786,490.868,497.9411,500.4906,498,510.1133,498,509.9168,488.0476,510.7947,478.0952,509.9386,468.1429,509.7702,458.1905,510.3415,448.2381,509.4464,438.2857,509.5942,428.3333,510.7622,418.381,510.5489,408.4286,510.8478,398.4762,509.7915,388.5238,510.4325,378.5714,510.7037,368.619,509.6409,358.6667,510.0174,348.7143,510.2393,338.7619,510.765,328.8095,510.1091,318.8571,510.5758,308.9048,509.5595,298.9524,509.436,289,510.6169,279.0476,509.3963,269.0952,510.6222,259.1429,510.3199,249.1905,509.8454,239.2381,509.7595,229.2857,510.572,219.3333,509.8139,209.381,510.7051,199.4286,509.5605,189.4762,510.7307,179.5238,510.5976,169.5714,510.3582,159.619,510.1605,149.6667,510.8399,139.7143,510.7269,129.7619,510.2825,119.8095,510.3815,109.8571,509.983,99.9048,510.8297,89.9524,510.2681,80,510.1133,80.1726,510.1133,79.3916,500.4906,79.5948,490.868,80.5307,481.2453,80.4298,471.6227,80,462" style="stroke: #A9A9A9; stroke-width: 3.0;"/><text fill="#A9A9A9" font-family="courier" font-size="20" font-weight="bold" lengthAdjust="spacingAndGlyphs" textLength="396" x="91" y="493.1074">undo/redo : FunctionalRequirement</text><polygon fill="#222222" points="801.0964,175.2129,800.0421,178.9206,796.0182,181.7417,791.4011,184.5524,787.5895,187.8168,780.3983,189.6781,773.8286,191.6782,766.1177,192.9686,757.622,193.587,750.2438,194.2208,740.2366,193.2237,733.8508,193.1128,725.5917,191.5445,717.6451,189.3804,712.077,187.4501,706.4823,184.746,702.2966,181.8733,698.8316,178.5742,696.8132,175.196,695.6758,171.5663,696.2054,168.0892,698.1269,164.7415,701.8934,161.8135,705.926,158.7601,710.968,156.0066,719.2678,154.6055,724.3586,151.9915,733.3811,151.2455,740.2645,149.9579,749.9675,150.2892,757.6225,150.3097,764.5344,150.639,773.297,152.4163,780.1407,154.1226,786.1091,156.219,791.3778,158.7878,796.2957,161.9645,799.0549,164.9706,802.1977,168.8156,801.6417,171.7423" style="stroke: #A9A9A9; stroke-width: 3.0;"/><text fill="#A9A9A9" font-family="courier" font-size="20" font-weight="bold" lengthAdjust="spacingAndGlyphs" textLength="72" x="713.2709" y="181.4651">Logout</text><polygon fill="#222222" points="817.5567,491.2904,816.1753,495.0095,810.9026,497.8394,804.8526,500.6587,799.8582,503.9332,790.4352,505.8002,781.8267,507.8064,771.7228,509.1008,760.5906,509.7211,750.9227,510.3568,737.8098,509.3567,729.4422,509.2455,718.62,507.6723,708.2073,505.5015,700.9111,503.5654,693.5802,500.8529,688.0956,497.9714,683.5551,494.6621,680.9104,491.2735,679.42,487.6326,680.1139,484.1448,682.6318,480.7869,687.5671,477.8498,692.8512,474.7871,699.4581,472.0251,710.3336,470.6196,717.0042,467.9976,728.8267,467.2493,737.8464,465.9577,750.5606,466.2901,760.5912,466.3107,769.6482,466.641,781.1301,468.4238,790.0977,470.1353,797.9183,472.2381,804.8221,474.8148,811.2662,478.0013,814.8817,481.0166,818.9998,484.8735,818.2712,487.8092" style="stroke: #A9A9A9; stroke-width: 3.0;"/><text fill="#A9A9A9" font-family="courier" font-size="20" font-weight="bold" lengthAdjust="spacingAndGlyphs" textLength="96" x="701.6478" y="497.5325">SaveGame</text><polygon fill="#222222" points="833.518,333.3376,831.8094,337.0637,825.2878,339.8988,817.8049,342.7233,811.6276,346.0039,799.9728,347.8744,789.3255,349.8844,776.8285,351.1812,763.0597,351.8026,751.1019,352.4396,734.8834,351.4375,724.5339,351.3261,711.1486,349.7501,698.2696,347.5752,689.2454,345.6354,680.1782,342.9179,673.3945,340.031,667.7787,336.7156,664.5076,333.3206,662.6642,329.673,663.5225,326.1787,666.6367,322.8145,672.741,319.8719,679.2766,316.8035,687.4482,314.0363,700.8995,312.6283,709.1501,310.0013,723.7727,309.2517,734.9286,307.9577,750.6541,308.2906,763.0605,308.3113,774.2625,308.6422,788.4639,310.4283,799.5554,312.143,809.2283,314.2498,817.7672,316.8313,825.7375,320.0237,830.2094,323.0446,835.3029,326.9087,834.4017,329.8499" style="stroke: #A9A9A9; stroke-width: 3.0;"/><text fill="#A9A9A9" font-family="courier" font-size="20" font-weight="bold" lengthAdjust="spacingAndGlyphs" textLength="120" x="689.5252" y="339.5735">PlacePiece</text><polygon fill="#222222" points="833.518,254.3376,831.8094,258.0637,825.2878,260.8988,817.8049,263.7233,811.6276,267.0039,799.9728,268.8744,789.3255,270.8844,776.8285,272.1812,763.0597,272.8026,751.1019,273.4396,734.8834,272.4375,724.5339,272.3261,711.1486,270.7501,698.2696,268.5752,689.2454,266.6354,680.1782,263.9179,673.3945,261.031,667.7787,257.7156,664.5076,254.3206,662.6642,250.673,663.5225,247.1787,666.6367,243.8145,672.741,240.8719,679.2766,237.8035,687.4482,235.0363,700.8995,233.6283,709.1501,231.0013,723.7727,230.2517,734.9286,228.9577,750.6541,229.2906,763.0605,229.3113,774.2625,229.6422,788.4639,231.4283,799.5554,233.143,809.2283,235.2498,817.7672,237.8313,825.7375,241.0237,830.2094,244.0446,835.3029,247.9087,834.4017,250.8499" style="stroke: #A9A9A9; stroke-width: 3.0;"/><text fill="#A9A9A9" font-family="courier" font-size="20" font-weight="bold" lengthAdjust="spacingAndGlyphs" textLength="120" x="689.5252" y="260.5735">CreateGame</text><polygon fill="#222222" points="817.5567,412.2904,816.1753,416.0095,810.9026,418.8394,804.8526,421.6587,799.8582,424.9332,790.4352,426.8002,781.8267,428.8064,771.7228,430.1008,760.5906,430.7211,750.9227,431.3568,737.8098,430.3567,729.4422,430.2455,718.62,428.6723,708.2073,426.5015,700.9111,424.5654,693.5802,421.8529,688.0956,418.9714,683.5551,415.6621,680.9104,412.2735,679.42,408.6326,680.1139,405.1448,682.6318,401.7869,687.5671,398.8498,692.8512,395.7871,699.4581,393.0251,710.3336,391.6196,717.0042,388.9976,728.8267,388.2493,737.8464,386.9577,750.5606,387.2901,760.5912,387.3107,769.6482,387.641,781.1301,389.4238,790.0977,391.1353,797.9183,393.2381,804.8221,395.8148,811.2662,399.0013,814.8817,402.0166,818.9998,405.8735,818.2712,408.8092" style="stroke: #A9A9A9; stroke-width: 3.0;"/><text fill="#A9A9A9" font-family="courier" font-size="20" font-weight="bold" lengthAdjust="spacingAndGlyphs" textLength="96" x="701.6478" y="418.5325">OpenGame</text><polygon fill="#222222" points="793.3669,96.1517,792.4762,99.8504,789.0766,102.6648,785.1759,105.4686,781.9558,108.7251,775.8803,110.5819,770.33,112.5771,763.8156,113.8645,756.6381,114.4813,750.4048,115.1136,741.9503,114.1189,736.5553,114.0083,729.5778,112.4438,722.8642,110.2849,718.16,108.3593,713.4334,105.6618,709.8972,102.796,706.9698,99.5049,705.2646,96.1349,704.3037,92.514,704.7511,89.0453,706.3745,85.7058,709.5565,82.7848,712.9634,79.7389,717.2231,76.992,724.2351,75.5943,728.536,72.9866,736.1585,72.2425,741.9739,70.958,750.1713,71.2885,756.6385,71.309,762.478,71.6375,769.8809,73.4105,775.6628,75.1126,780.7051,77.2039,785.1562,79.7665,789.3111,82.9355,791.6421,85.9343,794.2973,89.77,793.8275,92.6896" style="stroke: #A9A9A9; stroke-width: 3.0;"/><text fill="#A9A9A9" font-family="courier" font-size="20" font-weight="bold" lengthAdjust="spacingAndGlyphs" textLength="60" x="719.5828" y="102.412">Login</text><!--link registred to Login--><path d="M470.13,131.25 L470.1682,131.5276 L479.9031,129.3494 L489.8618,128.7986 L499.7475,127.7179 L509.3938,124.8943 L519.3576,124.3807 L529.1426,122.5666 L538.9987,121.2701 L548.9043,120.3333 L558.6395,118.1568 L568.7138,118.448 L578.3473,115.5308 L588.2741,114.7488 L598.2367,114.2272 L607.9911,112.19 L617.8674,111.0401 L627.6975,109.5545 L637.5841,108.4792 L647.4434,107.2059 L657.3546,106.3103 L667.2185,105.0697 L677.0683,103.7272 L686.8396,101.813 L696.7258,100.7357 L706.49,98.77 " fill="none" style="stroke: #A9A9A9; stroke-width: 2.0; stroke-dasharray: 7.0,7.0;"/><polygon fill="#A9A9A9" points="464.97,131.96,464.9894,132.0273,466.8244,132.3731,468.7731,133.1135,470.6848,133.7254,472.4747,133.9148,474.4332,134.6891,474.4176,134.6684,473.4453,133.8929,472.5519,133.2215,471.7133,132.6224,470.6858,131.774,469.9228,131.2749,470.07,131.3863,470.4382,130.246,471.2359,129.4309,472.0861,128.6556,472.6314,127.6493,473.337,126.7645,473.349,126.7838,471.658,127.7946,470.0216,128.8933,468.3589,129.9495,466.7464,131.0868,464.97,131.96" style="stroke: #A9A9A9; stroke-width: 2.0;"/><text fill="#A9A9A9" font-family="courier" font-size="20" lengthAdjust="spacingAndGlyphs" textLength="60" x="572" y="102.1074">trace</text><!--link registred to Logout--><path d="M539.37,173.79 L539.3737,173.8833 L545.4887,173.848 L551.6254,174.3598 L557.755,174.6935 L563.8615,174.4412 L570,175 L569.9991,174.9655 L573.5941,174.9019 L577.1935,175.0124 L580.7959,175.2439 L584.3878,175.0584 L587.9945,175.457 L587.9953,175.7031 L590.794,175.1853 L593.595,175.3858 L596.3961,175.674 L599.1958,175.4523 L601.9962,175.4988 L601.9967,175.5291 L608.3968,175.3848 L614.799,175.3786 L621.2002,175.3058 L627.6033,175.36 L634,175 L634.0054,175.2982 L640.334,175.1871 L646.6591,174.8836 L652.9892,174.8618 L659.3197,174.8531 L665.6425,174.4263 L665.6345,174.1058 L671.8495,174.5725 L678.0382,173.984 L684.2469,174.1977 L690.435,173.5853 L696.64,173.65 " fill="none" style="stroke: #A9A9A9; stroke-width: 2.0; stroke-dasharray: 7.0,7.0;"/><polygon fill="#A9A9A9" points="534.28,173.55,534.3113,173.6127,535.9798,174.3079,537.832,175.3703,539.6244,176.3132,541.22,176.8628,543.0879,177.9568,543.0688,177.9394,542.2203,177.0253,541.4683,176.1993,540.7833,175.4344,539.8672,174.4587,539.2748,173.7783,539.3992,173.9147,539.9689,172.8605,540.9017,172.2044,541.8789,171.5968,542.5983,170.7067,543.4533,169.9652,543.4616,169.9864,541.6147,170.6722,539.8056,171.4545,537.9783,172.1903,536.1857,173.0149,534.28,173.55" style="stroke: #A9A9A9; stroke-width: 2.0;"/><text fill="#A9A9A9" font-family="courier" font-size="20" lengthAdjust="spacingAndGlyphs" textLength="60" x="572" y="167.1074">trace</text><!--link ticTacToe to CreateGame--><path d="M533.49,260.38 L533.5022,260.66 L543.5798,259.3866 L553.7289,259.7544 L563.8548,259.5878 L573.9039,257.6636 L584.0547,258.0688 L594.1483,257.1627 L604.2646,256.7784 L614.3968,256.7569 L624.4744,255.4852 L634.6607,256.7021 L644.7057,254.6835 L654.8447,254.8181 L664.97,254.64 " fill="none" style="stroke: #A9A9A9; stroke-width: 2.0; stroke-dasharray: 7.0,7.0;"/><polygon fill="#A9A9A9" points="528.31,260.6,528.3355,260.6653,530.0945,261.1881,532.0029,262.0935,533.8627,262.8743,535.5625,263.2454,537.4837,264.1836,537.4663,264.1645,536.5521,263.3161,535.726,262.5641,534.961,261.8793,533.9852,260.9633,533.3048,260.371,533.4411,260.4954,533.9121,259.3936,534.7811,258.655,535.6987,257.9607,536.3337,257.0086,537.1174,256.192,537.1275,256.2124,535.3511,257.0641,533.6211,258.0084,531.8686,258.9081,530.1589,259.893,528.31,260.6" style="stroke: #A9A9A9; stroke-width: 2.0;"/><text fill="#A9A9A9" font-family="courier" font-size="20" lengthAdjust="spacingAndGlyphs" textLength="60" x="572" y="249.1074">trace</text><!--link ticTacToe to PlacePiece--><path d="M482.06,295.71 L482.0958,295.9879 L492.0237,296.4537 L502.1613,298.5488 L512.2307,300.1133 L522.0754,299.9329 L532.2178,302.0651 L542.1927,302.8955 L552.2342,304.2439 L562.3221,305.9525 L572.2502,306.4199 L582.4963,309.3579 L592.329,309.0839 L602.4369,310.9474 L612.5783,313.0717 L622.5243,313.6787 L632.5848,315.1739 L642.6019,316.333 L652.672,317.9029 L662.7165,319.2747 L672.71,320.25 " fill="none" style="stroke: #A9A9A9; stroke-width: 2.0; stroke-dasharray: 7.0,7.0;"/><polygon fill="#A9A9A9" points="476.82,295.04,476.8563,295.0999,478.4335,295.9419,480.2235,297.1353,481.9442,298.2142,483.4371,298.9169,485.2453,300.1404,485.2249,300.1245,484.4399,299.159,483.7583,298.2735,483.1483,297.4436,482.2911,296.4221,481.7803,295.669,481.8933,295.8148,482.5459,294.8099,483.5285,294.2308,484.5513,293.7037,485.3399,292.8743,486.2517,292.2039,486.2582,292.2257,484.3623,292.7609,482.4961,293.3953,480.6156,293.9819,478.7626,294.6597,476.82,295.04" style="stroke: #A9A9A9; stroke-width: 2.0;"/><text fill="#A9A9A9" font-family="courier" font-size="20" lengthAdjust="spacingAndGlyphs" textLength="60" x="572" y="300.1074">trace</text><!--link persistent to OpenGame--><path d="M545.2,406.34 L545.2037,406.6202 L554.8485,405.914 L564.5148,406.8506 L574.1741,407.2521 L583.8104,405.8946 L593.4772,406.8685 L603.1268,406.53 L612.7833,406.7137 L622.4445,407.2606 L632.0894,406.5561 L641.7668,408.3424 L651.4019,406.8904 L661.0651,407.5935 L670.7318,408.5595 L680.38,408.11 " fill="none" style="stroke: #A9A9A9; stroke-width: 2.0; stroke-dasharray: 7.0,7.0;"/><polygon fill="#A9A9A9" points="540.05,406.27,540.0794,406.3336,541.7805,406.9702,543.6538,407.9798,545.471,408.8678,547.1039,409.3566,548.9919,410.3982,548.9734,410.3801,548.1015,409.4877,547.3233,408.6864,546.6102,407.9483,545.6727,406.9922,545.0495,406.3414,545.1781,406.4738,545.7144,405.4023,546.6262,404.7172,547.5839,404.0792,548.2749,403.167,549.1062,402.399,549.1152,402.4199,547.2908,403.1634,545.5071,404.0021,543.7038,404.7949,541.938,405.6753,540.05,406.27" style="stroke: #A9A9A9; stroke-width: 2.0;"/><text fill="#A9A9A9" font-family="courier" font-size="20" lengthAdjust="spacingAndGlyphs" textLength="60" x="572" y="398.1074">trace</text><!--link persistent to SaveGame--><path d="M443.65,427.89 L443.6979,428.1661 L453.2491,429.0275 L463.0811,431.5074 L472.8216,433.4603 L482.2614,433.6798 L492.1175,436.2988 L492.099,436.1968 L501.5923,437.4795 L511.1791,439.2762 L520.8308,441.4301 L530.2587,442.3528 L540,445 L540.0465,445.2416 L547.8715,446.2489 L555.8322,447.9617 L563.8095,449.7605 L571.6904,451.0586 L579.622,452.62 L579.628,452.6497 L587.6211,454.2111 L595.6413,455.9078 L603.6485,457.5392 L611.6806,459.2952 L619.6313,460.645 L619.6916,460.9371 L627.3301,462.5186 L634.9296,463.9118 L642.5861,465.5808 L650.2453,467.2626 L657.8198,468.535 L657.7536,468.2214 L664.7142,470.2731 L671.4567,471.2921 L678.365,473.0961 L685.1025,474.0917 L691.98,475.75 " fill="none" style="stroke: #A9A9A9; stroke-width: 2.0; stroke-dasharray: 7.0,7.0;"/><polygon fill="#A9A9A9" points="438.55,427.03,438.5887,427.0884,440.1162,428.0022,441.8705,429.2584,443.5509,430.4031,444.9886,431.1811,446.7623,432.4667,446.7412,432.4517,445.9902,431.4627,445.3456,430.5495,444.7749,429.6889,443.9494,428.6468,443.4808,427.8589,443.5879,428.0093,444.2805,427.0315,445.2857,426.4927,446.329,426.0073,447.1505,425.2105,448.0886,424.5775,448.0943,424.5995,446.1782,425.0577,444.288,425.6161,442.3853,426.1262,440.5063,426.7286,438.55,427.03" style="stroke: #A9A9A9; stroke-width: 2.0;"/><text fill="#A9A9A9" font-family="courier" font-size="20" lengthAdjust="spacingAndGlyphs" textLength="60" x="572" y="443.1074">trace</text><!--
@startuml
allowmixing
left to right direction
skinparam backgroundColor #222222
skinparam handwritten true
hide circle
hide stereotype
skinparam shadowing false
skinparam padding 1
skinparam arrow {
    Thickness 2
    Color #DarkGrey
    FontSize 20
    FontName courier
    FontStyle normal
    FontColor #DarkGrey
}
skinparam rectangle {
    BorderThickness 3
    BorderColor #DarkGrey
    BackgroundColor #222222
    FontSize 20
    FontName courier
    FontStyle bold
    FontColor #DarkGrey
}
skinparam usecase {
    BorderThickness 3
    BorderColor #DarkGrey
    BackgroundColor #222222
    FontSize 20
    FontName courier
    FontStyle bold
    FontColor #DarkGrey
}
skinparam package {
    BorderThickness 3
    BorderColor #DarkGrey
    BackgroundColor #222222
    FontSize 20
    FontName courier
    FontStyle bold
}
skinparam default {
    BorderColor #DarkGrey
    FontSize 20
    FontName courier
    FontStyle normal
    FontColor #DarkGrey
}
package useCaseView {
rectangle "registred users : FunctionalRequirement" as registred
rectangle "TicTacToe game : FunctionalRequirement" as ticTacToe
rectangle "persistent games : FunctionalRequirement" as persistent
rectangle "undo/redo : FunctionalRequirement" as undoRedo
usecase Logout
usecase SaveGame
usecase PlacePiece
usecase CreateGame
usecase OpenGame
usecase Login
}
registred <.. Login :trace
registred <.. Logout :trace
ticTacToe <.. CreateGame :trace
ticTacToe <.. PlacePiece :trace
persistent <.. OpenGame :trace
persistent <.. SaveGame :trace

@enduml

PlantUML version 1.2019.05(Sat Apr 20 18:45:36 CEST 2019)
(GPL source distribution)
Java Runtime: Java(TM) SE Runtime Environment
JVM: Java HotSpot(TM) 64-Bit Server VM
Java Version: 11.0.14+8-LTS-263
Operating System: Windows 10
OS Version: 10.0
Default Encoding: windows-1252
Language: es
Country: ES
--></g></svg>