<?xml version="1.0" encoding="UTF-8" standalone="no"?><svg xmlns="http://www.w3.org/2000/svg" xmlns:xlink="http://www.w3.org/1999/xlink" contentScriptType="application/ecmascript" contentStyleType="text/css" height="538px" preserveAspectRatio="none" style="width:873px;height:538px;background:#222222;" version="1.1" viewBox="0 0 873 538" width="873px" zoomAndPan="magnify"><defs/><g><!--cluster useCaseView--><polygon fill="#222222" points="22,24,22,24.2102,32,23.5857,42,24.1933,52,24.3997,62,23.2866,72,23.9223,82,23.5735,92,23.6165,102,23.9318,112,23.3086,122,24.5536,132,23.3697,142,23.8022,152,24.4319,162,24,161.972,23.9943,163.4223,30.8272,164.7896,37.6432,166.2583,44.4799,167.6781,51.3066,169,58.1133,169,58.699,179.0294,58.7843,189.0588,58.7925,199.0882,58.3679,209.1176,58.5769,219.1471,58.8155,229.1765,57.3921,239.2059,58.7918,249.2353,57.8168,259.2647,58.6471,269.2941,57.6183,279.3235,58.0448,289.3529,58.8549,299.3824,58.0645,309.4118,58.2186,319.4412,58.4519,329.4706,58.5295,339.5,58.1094,349.5294,58.4005,359.5588,57.5409,369.5882,58.3977,379.6176,58.6615,389.6471,58.5578,399.6765,58.7263,409.7059,57.6302,419.7353,57.4611,429.7647,57.4919,439.7941,58.0544,449.8235,57.9168,459.8529,58.7947,469.8824,57.9386,479.9118,57.7702,489.9412,58.3415,499.9706,57.4464,510,57.5942,520.0294,58.7622,530.0588,58.5489,540.0882,58.8478,550.1176,57.7915,560.1471,58.4325,570.1765,58.7037,580.2059,57.6409,590.2353,58.0174,600.2647,58.2393,610.2941,58.765,620.3235,58.1091,630.3529,58.5758,640.3824,57.5595,650.4118,57.436,660.4412,58.6169,670.4706,57.3963,680.5,58.6222,690.5294,58.3199,700.5588,57.8454,710.5882,57.7595,720.6176,58.572,730.6471,57.8139,740.6765,58.7051,750.7059,57.5605,760.7353,58.7307,770.7647,58.5976,780.7941,58.3582,790.8235,58.1605,800.8529,58.8399,810.8824,58.7269,820.9118,58.2825,830.9412,58.3815,840.9706,57.983,851,58.1133,851.7165,58.1133,851.1549,68.0683,851.1726,78.0234,850.3916,87.9784,850.5948,97.9334,851.5307,107.8885,851.4298,117.8435,850.9571,127.7985,850.6778,137.7536,850.7811,147.7086,850.3138,157.6636,851.4147,167.6187,851.7396,177.5737,851.5264,187.5288,851.6949,197.4838,850.8633,207.4388,851.0872,217.3939,850.6124,227.3489,851.284,237.3039,851.2468,247.259,851.5524,257.214,850.7703,267.169,850.8656,277.1241,851.4435,287.0791,851.5673,297.0342,850.4875,306.9892,850.8061,316.9442,851.1493,326.8993,850.3892,336.8543,851.3534,346.8093,851.258,356.7644,850.8992,366.7194,851.1422,376.6745,851.7287,386.6295,850.6871,396.5845,851.315,406.5396,851.2856,416.4946,851.1158,426.4496,851.1409,436.4047,851.1135,446.3597,850.3758,456.3147,850.5992,466.2698,850.5385,476.2248,851.0638,486.1799,851.0881,496.1349,851.1617,506.0899,850.709,516.045,851,526,851,525.9325,841.012,525.8798,831.0241,526.5769,821.0361,526.4266,811.0482,525.5145,801.0602,525.9271,791.0723,525.4228,781.0843,526.2884,771.0964,526.6085,761.1084,526.5446,751.1205,525.5644,741.1325,526.464,731.1446,525.2572,721.1566,526.2002,711.1687,525.7007,701.1807,526.0967,691.1928,526.2403,681.2048,526.4721,671.2169,525.2801,661.2289,526.4755,651.241,526.1782,641.253,526.3553,631.2651,526.7478,621.2771,526.0055,611.2892,526.1753,601.3012,526.2134,591.3133,526.1972,581.3253,525.9992,571.3373,526.7107,561.3494,525.3903,551.3614,526.5653,541.3735,525.376,531.3855,525.4597,521.3976,526.04,511.4096,526.0283,501.4217,525.5072,491.4337,526.4137,481.4458,526.1089,471.4578,526.7267,461.4699,526.6671,451.4819,525.5517,441.494,525.6021,431.506,525.8708,421.5181,526.3555,411.5301,526.403,401.5422,526.3012,391.5542,525.658,381.5663,526.6364,371.5783,526.6338,361.5904,525.9527,351.6024,525.7609,341.6145,525.5986,331.6265,525.7854,321.6386,526.1374,311.6506,525.9316,301.6627,525.5822,291.6747,526.4874,281.6867,525.5411,271.6988,526.5024,261.7108,526.4272,251.7229,526.3719,241.7349,526.6925,231.747,525.7541,221.759,525.6994,211.7711,526.5189,201.7831,525.4031,191.7952,525.766,181.8072,526.1155,171.8193,526.0687,161.8313,525.6415,151.8434,525.957,141.8554,526.7446,131.8675,526.6485,121.8795,525.4037,111.8916,526.0785,101.9036,525.4861,91.9157,525.9737,81.9277,526.293,71.9398,526.4199,61.9518,525.3353,51.9639,526.4005,41.9759,526.0084,31.988,525.4447,22,526,21.5289,526,22.3266,515.96,22.2499,505.92,21.9836,495.88,21.3279,485.84,22.6581,475.8,21.6882,465.76,21.4719,455.72,21.9327,445.68,22.5897,435.64,22.6154,425.6,22.0351,415.56,21.8488,405.52,22.1698,395.48,22.1862,385.44,21.4922,375.4,22.414,365.36,22.5588,355.32,21.7842,345.28,21.5708,335.24,22.6746,325.2,22.021,315.16,21.9998,305.12,22.299,295.08,21.3543,285.04,22.53,275,21.9846,264.96,22.6688,254.92,21.7841,244.88,22.409,234.84,21.556,224.8,22.245,214.76,22.3793,204.72,21.6727,194.68,22.363,184.64,21.4286,174.6,21.5295,164.56,22.6828,154.52,22.6844,144.48,22.5685,134.44,21.6396,124.4,22.3842,114.36,21.5279,104.32,22.0582,94.28,21.9987,84.24,21.7376,74.2,22.6159,64.16,22.4433,54.12,21.6792,44.08,22.5266,34.04,22,24" style="stroke: #A9A9A9; stroke-width: 3.0;"/><path d="M22,58.1133 L22,58.3935 L31.8,57.5609 L41.6,58.371 L51.4,58.6462 L61.2,57.1621 L71,58.0097 L80.8,57.5446 L90.6,57.6019 L100.4,58.0224 L110.2,57.1915 L120,58.8515 L129.8,57.2729 L139.6,57.8496 L149.4,58.6892 L159.2,57.9989 L169,58.1133 " fill="#222222" style="stroke: #A9A9A9; stroke-width: 3.0;"/><text fill="#A9A9A9" font-family="courier" font-size="20" font-weight="bold" lengthAdjust="spacingAndGlyphs" textLength="132" x="27" y="47.1074">useCaseView</text><!--entity registred--><polygon fill="#222222" points="44,130,44,130.2102,54,129.5857,64,130.1933,74,130.3997,84,129.2866,94,129.9223,104,129.5735,114,129.6165,124,129.9318,134,129.3086,144,130.5536,154,129.3697,164,129.8022,174,130.4319,184,129.9142,194,130.0682,204,129.9681,214,130.1785,224,130.2391,234,130.5857,244,130.6711,254,130.6793,264,130.2546,274,130.4636,284,130.7022,294,129.2788,304,130.6785,314,129.7035,324,130.5338,334,129.505,344,129.9315,354,130.7416,364,129.9513,374,130.1053,384,130.3386,394,130.4162,404,129.9961,414,130.2872,424,129.4276,434,130.2844,444,130.5482,454,130.4445,464,130.613,474,129.5169,484,129.3478,494,129.3786,504,129.9411,514,129.8035,524,130.6814,534,130,533.8253,130,533.6569,139.6227,534.2283,149.2453,533.3332,158.868,533.4809,168.4906,534,178.1133,534,178.7622,524,178.5489,514,178.8478,504,177.7915,494,178.4325,484,178.7037,474,177.6409,464,178.0174,454,178.2393,444,178.765,434,178.1091,424,178.5758,414,177.5595,404,177.436,394,178.6169,384,177.3963,374,178.6222,364,178.3199,354,177.8454,344,177.7595,334,178.572,324,177.8139,314,178.7051,304,177.5605,294,178.7307,284,178.5976,274,178.3582,264,178.1605,254,178.8399,244,178.7269,234,178.2825,224,178.3815,214,177.983,204,178.8297,194,178.2681,184,178.2859,174,177.5049,164,177.7081,154,178.644,144,178.543,134,178.0703,124,177.7911,114,177.8944,104,177.4271,94,178.528,84,178.8528,74,178.6397,64,178.8082,54,177.9766,44,178.1133,44.0872,178.1133,43.6124,168.4906,44.284,158.868,44.2468,149.2453,44.5524,139.6227,44,130" style="stroke: #A9A9A9; stroke-width: 3.0;"/><text fill="#A9A9A9" font-family="courier" font-size="20" font-weight="bold" lengthAdjust="spacingAndGlyphs" textLength="468" x="55" y="161.1074">registred users : FunctionalRequirement</text><!--entity ticTacToe--><polygon fill="#222222" points="50,245,50,245.2102,59.9583,244.5857,69.9167,245.1933,79.875,245.3997,89.8333,244.2866,99.7917,244.9223,109.75,244.5735,119.7083,244.6165,129.6667,244.9318,139.625,244.3086,149.5833,245.5536,159.5417,244.3697,169.5,244.8022,179.4583,245.4319,189.4167,244.9142,199.375,245.0682,209.3333,244.9681,219.2917,245.1785,229.25,245.2391,239.2083,245.5857,249.1667,245.6711,259.125,245.6793,269.0833,245.2546,279.0417,245.4636,289,245.7022,298.9583,244.2788,308.9167,245.6785,318.875,244.7035,328.8333,245.5338,338.7917,244.505,348.75,244.9315,358.7083,245.7416,368.6667,244.9513,378.625,245.1053,388.5833,245.3386,398.5417,245.4162,408.5,244.9961,418.4583,245.2872,428.4167,244.4276,438.375,245.2844,448.3333,245.5482,458.2917,245.4445,468.25,245.613,478.2083,244.5169,488.1667,244.3478,498.125,244.3786,508.0833,244.9411,518.0417,244.8035,528,245,528.6814,245,527.8253,254.6227,527.6569,264.2453,528.2283,273.868,527.3332,283.4906,528,293.1133,528,292.5942,518.0417,293.7622,508.0833,293.5489,498.125,293.8478,488.1667,292.7915,478.2083,293.4325,468.25,293.7037,458.2917,292.6409,448.3333,293.0174,438.375,293.2393,428.4167,293.765,418.4583,293.1091,408.5,293.5758,398.5417,292.5595,388.5833,292.436,378.625,293.6169,368.6667,292.3963,358.7083,293.6222,348.75,293.3199,338.7917,292.8454,328.8333,292.7595,318.875,293.572,308.9167,292.8139,298.9583,293.7051,289,292.5605,279.0417,293.7307,269.0833,293.5976,259.125,293.3582,249.1667,293.1605,239.2083,293.8399,229.25,293.7269,219.2917,293.2825,209.3333,293.3815,199.375,292.983,189.4167,293.8297,179.4583,293.2681,169.5,293.2859,159.5417,292.5049,149.5833,292.7081,139.625,293.644,129.6667,293.543,119.7083,293.0703,109.75,292.7911,99.7917,292.8944,89.8333,292.4271,79.875,293.528,69.9167,293.8528,59.9583,293.6397,50,293.1133,50.6949,293.1133,49.8633,283.4906,50.0872,273.868,49.6124,264.2453,50.284,254.6227,50,245" style="stroke: #A9A9A9; stroke-width: 3.0;"/><text fill="#A9A9A9" font-family="courier" font-size="20" font-weight="bold" lengthAdjust="spacingAndGlyphs" textLength="456" x="61" y="276.1074">TicTacToe game : FunctionalRequirement</text><!--entity persistent--><polygon fill="#222222" points="38,379,38,379.2102,48.04,378.5857,58.08,379.1933,68.12,379.3997,78.16,378.2866,88.2,378.9223,98.24,378.5735,108.28,378.6165,118.32,378.9318,128.36,378.3086,138.4,379.5536,148.44,378.3697,158.48,378.8022,168.52,379.4319,178.56,378.9142,188.6,379.0682,198.64,378.9681,208.68,379.1785,218.72,379.2391,228.76,379.5857,238.8,379.6711,248.84,379.6793,258.88,379.2546,268.92,379.4636,278.96,379.7022,289,378.2788,299.04,379.6785,309.08,378.7035,319.12,379.5338,329.16,378.505,339.2,378.9315,349.24,379.7416,359.28,378.9513,369.32,379.1053,379.36,379.3386,389.4,379.4162,399.44,378.9961,409.48,379.2872,419.52,378.4276,429.56,379.2844,439.6,379.5482,449.64,379.4445,459.68,379.613,469.72,378.5169,479.76,378.3478,489.8,378.3786,499.84,378.9411,509.88,378.8035,519.92,379.6814,529.96,378.8253,540,379,539.6569,379,540.2283,388.6227,539.3332,398.2453,539.4809,407.868,540.649,417.4906,540,427.1133,540,427.5489,529.96,427.8478,519.92,426.7915,509.88,427.4325,499.84,427.7037,489.8,426.6409,479.76,427.0174,469.72,427.2393,459.68,427.765,449.64,427.1091,439.6,427.5758,429.56,426.5595,419.52,426.436,409.48,427.6169,399.44,426.3963,389.4,427.6222,379.36,427.3199,369.32,426.8454,359.28,426.7595,349.24,427.572,339.2,426.8139,329.16,427.7051,319.12,426.5605,309.08,427.7307,299.04,427.5976,289,427.3582,278.96,427.1605,268.92,427.8399,258.88,427.7269,248.84,427.2825,238.8,427.3815,228.76,426.983,218.72,427.8297,208.68,427.2681,198.64,427.2859,188.6,426.5049,178.56,426.7081,168.52,427.644,158.48,427.543,148.44,427.0703,138.4,426.7911,128.36,426.8944,118.32,426.4271,108.28,427.528,98.24,427.8528,88.2,427.6397,78.16,427.8082,68.12,426.9766,58.08,427.2005,48.04,426.7257,38,427.1133,38.284,427.1133,38.2468,417.4906,38.5524,407.868,37.7703,398.2453,37.8656,388.6227,38,379" style="stroke: #A9A9A9; stroke-width: 3.0;"/><text fill="#A9A9A9" font-family="courier" font-size="20" font-weight="bold" lengthAdjust="spacingAndGlyphs" textLength="480" x="49" y="410.1074">persistent games : FunctionalRequirement</text><!--entity undoRedo--><polygon fill="#222222" points="80,462,80,462.2102,89.9524,461.5857,99.9048,462.1933,109.8571,462.3997,119.8095,461.2866,129.7619,461.9223,139.7143,461.5735,149.6667,461.6165,159.619,461.9318,169.5714,461.3086,179.5238,462.5536,189.4762,461.3697,199.4286,461.8022,209.381,462.4319,219.3333,461.9142,229.2857,462.0682,239.2381,461.9681,249.1905,462.1785,259.1429,462.2391,269.0952,462.5857,279.0476,462.6711,289,462.6793,298.9524,462.2546,308.9048,462.4636,318.8571,462.7022,328.8095,461.2788,338.7619,462.6785,348.7143,461.7035,358.6667,462.5338,368.619,461.505,378.5714,461.9315,388.5238,462.7416,398.4762,461.9513,408.4286,462.1053,418.381,462.3386,428.3333,462.4162,438.2857,461.9961,448.2381,462.2872,458.1905,461.4276,468.1429,462.2844,478.0952,462.5482,488.0476,462.4445,498,462,498.613,462,497.5169,471.6227,497.3478,481.2453,497.3786,490.868,497.9411,500.4906,498,510.1133,498,509.9168,488.0476,510.7947,478.0952,509.9386,468.1429,509.7702,458.1905,510.3415,448.2381,509.4464,438.2857,509.5942,428.3333,510.7622,418.381,510.5489,408.4286,510.8478,398.4762,509.7915,388.5238,510.4325,378.5714,510.7037,368.619,509.6409,358.6667,510.0174,348.7143,510.2393,338.7619,510.765,328.8095,510.1091,318.8571,510.5758,308.9048,509.5595,298.9524,509.436,289,510.6169,279.0476,509.3963,269.0952,510.6222,259.1429,510.3199,249.1905,509.8454,239.2381,509.7595,229.2857,510.572,219.3333,509.8139,209.381,510.7051,199.4286,509.5605,189.4762,510.7307,179.5238,510.5976,169.5714,510.3582,159.619,510.1605,149.6667,510.8399,139.7143,510.7269,129.7619,510.2825,119.8095,510.3815,109.8571,509.983,99.9048,510.8297,89.9524,510.2681,80,510.1133,80.1726,510.1133,79.3916,500.4906,79.5948,490.868,80.5307,481.2453,80.4298,471.6227,80,462" style="stroke: #A9A9A9; stroke-width: 3.0;"/><text fill="#A9A9A9" font-family="courier" font-size="20" font-weight="bold" lengthAdjust="spacingAndGlyphs" textLength="396" x="91" y="493.1074">undo/redo : FunctionalRequirement</text><polygon fill="#222222" points="801.0964,175.2129,800.0421,178.9206,796.0182,181.7417,791.4011,184.5524,787.5895,187.8168,780.3983,189.6781,773.8286,191.6782,766.1177,192.9686,757.622,193.587,750.2438,194.2208,740.2366,193.2237,733.8508,193.1128,725.5917,191.5445,717.6451,189.3804,712.077,187.4501,706.4823,184.746,702.2966,181.8733,698.8316,178.5742,696.8132,175.196,695.6758,171.5663,696.2054,168.0892,698.1269,164.7415,701.8934,161.8135,705.926,158.7601,710.968,156.0066,719.2678,154.6055,724.3586,151.9915,733.3811,151.2455,740.2645,149.9579,749.9675,150.2892,757.6225,150.3097,764.5344,150.639,773.297,152.4163,780.1407,154.1226,786.1091,156.219,791.3778,158.7878,796.2957,161.9645,799.0549,164.9706,802.1977,168.8156,801.6417,171.7423" style="stroke: #A9A9A9; stroke-width: 3.0;"/><text fill="#A9A9A9" font-family="courier" font-size="20" font-weight="bold" lengthAdjust="spacingAndGlyphs" textLength="72" x="713.2709" y="181.4651">Logout</text><polygon fill="#222222" points="817.5567,491.2904,816.1753,495.0095,810.9026,497.8394,804.8526,500.6587,799.8582,503.9332,790.4352,505.8002,781.8267,507.8064,771.7228,509.1008,760.5906,509.7211,750.9227,510.3568,737.8098,509.3567,729.4422,509.2455,718.62,507.6723,708.2073,505.5015,700.9111,503.5654,693.5802,500.8529,688.0956,497.9714,683.5551,494.6621,680.9104,491.2735,679.42,487.6326,680.1139,484.1448,682.6318,480.7869,687.5671,477.8498,692.8512,474.7871,699.4581,472.0251,710.3336,470.6196,717.0042,467.9976,728.8267,467.2493,737.8464,465.9577,750.5606,466.2901,760.5912,466.3107,769.6482,466.641,781.1301,468.4238,790.0977,470.1353,797.9183,472.2381,804.8221,474.8148,811.2662,478.0013,814.8817,481.0166,818.9998,484.8735,818.2712,487.8092" style="stroke: #A9A9A9; stroke-width: 3.0;"/><text fill="#A9A9A9" font-family="courier" font-size="20" font-weight="bold" lengthAdjust="spacingAndGlyphs" textLength="96" x="701.6478" y="497.5325">SaveGame</text><polygon fill="#222222" points="833.518,333.3376,831.8094,337.0637,825.2878,339.8988,817.8049,342.7233,811.6276,346.0039,799.9728,347.8744,789.3255,349.8844,776.8285,351.1812,763.0597,351.8026,751.1019,352.4396,734.8834,351.4375,724.5339,351.3261,711.1486,349.7501,698.2696,347.5752,689.2454,345.6354,680.1782,342.9179,673.3945,340.031,667.7787,336.7156,664.5076,333.3206,662.6642,329.673,663.5225,326.1787,666.6367,322.8145,672.741,319.8719,679.2766,316.8035,687.4482,314.0363,700.8995,312.6283,709.1501,310.0013,723.7727,309.2517,734.9286,307.9577,750.6541,308.2906,763.0605,308.3113,774.2625,308.6422,788.4639,310.4283,799.5554,312.143,809.2283,314.2498,817.7672,316.8313,825.7375,320.0237,830.2094,323.0446,835.3029,326.9087,834.4017,329.8499" style="stroke: #A9A9A9; stroke-width: 3.0;"/><text fill="#A9A9A9" font-family="courier" font-size="20" font-weight="bold" lengthAdjust="spacingAndGlyphs" textLength="120" x="689.5252" y="339.5735">PlacePiece</text><polygon fill="#222222" points="833.518,254.3376,831.8094,258.0637,825.2878,260.8988,817.8049,263.7233,811.6276,267.0039,799.9728,268.8744,789.3255,270.8844,776.8285,272.1812,763.0597,272.8026,751.1019,273.4396,734.8834,272.4375,724.5339,272.3261,711.1486,270.7501,698.2696,268.5752,689.2454,266.6354,680.1782,263.9179,673.3945,261.031,667.7787,257.7156,664.5076,254.3206,662.6642,250.673,663.5225,247.1787,666.6367,243.8145,672.741,240.8719,679.2766,237.8035,687.4482,235.0363,700.8995,233.6283,709.1501,231.0013,723.7727,230.2517,734.9286,228.9577,750.6541,229.2906,763.0605,229.3113,774.2625,229.6422,788.4639,231.4283,799.5554,233.143,809.2283,235.2498,817.7672,237.8313,825.7375,241.0237,830.2094,244.0446,835.3029,247.9087,834.4017,250.8499" style="stroke: #A9A9A9; stroke-width: 3.0;"/><text fill="#A9A9A9" font-family="courier" font-size="20" font-weight="bold" lengthAdjust="spacingAndGlyphs" textLength="120" x="689.5252" y="260.5735">CreateGame</text><polygon fill="#222222" points="817.5567,412.2904,816.1753,416.0095,810.9026,418.8394,804.8526,421.6587,799.8582,424.9332,790.4352,426.8002,781.8267,428.8064,771.7228,430.1008,760.5906,430.7211,750.9227,431.3568,737.8098,430.3567,729.4422,430.2455,718.62,428.6723,708.2073,426.5015,700.9111,424.5654,693.5802,421.8529,688.0956,418.9714,683.5551,415.6621,680.9104,412.2735,679.42,408.6326,680.1139,405.1448,682.6318,401.7869,687.5671,398.8498,692.8512,395.7871,699.4581,393.0251,710.3336,391.6196,717.0042,388.9976,728.8267,388.2493,737.8464,386.9577,750.5606,387.2901,760.5912,387.3107,769.6482,387.641,781.1301,389.4238,790.0977,391.1353,797.9183,393.2381,804.8221,395.8148,811.2662,399.0013,814.8817,402.0166,818.9998,405.8735,818.2712,408.8092" style="stroke: #A9A9A9; stroke-width: 3.0;"/><text fill="#A9A9A9" font-family="courier" font-size="20" font-weight="bold" lengthAdjust="spacingAndGlyphs" textLength="96" x="701.6478" y="418.5325">OpenGame</text><polygon fill="#222222" points="793.3669,96.1517,792.4762,99.8504,789.0766,102.6648,785.1759,105.4686,781.9558,108.7251,775.8803,110.5819,770.33,112.5771,763.8156,113.8645,756.6381,114.4813,750.4048,115.1136,741.9503,114.1189,736.5553,114.0083,729.5778,112.4438,722.8642,110.2849,718.16,108.3593,713.4334,105.6618,709.8972,102.796,706.9698,99.5049,705.2646,96.1349,704.3037,92.514,704.7511,89.0453,706.3745,85.7058,709.5565,82.7848,712.9634,79.7389,717.2231,76.992,724.2351,75.5943,728.536,72.9866,736.1585,72.2425,741.9739,70.958,750.1713,71.2885,756.6385,71.309,762.478,71.6375,769.8809,73.4105,775.6628,75.1126,780.7051,77.2039,785.1562,79.7665,789.3111,82.9355,791.6421,85.9343,794.2973,89.77,793.8275,92.6896" style="stroke: #A9A9A9; stroke-width: 3.0;"/><text fill="#A9A9A9" font-family="courier" font-size="20" font-weight="bold" lengthAdjust="spacingAndGlyphs" textLength="60" x="719.5828" y="102.412">Login</text><!--link registred to Login--><path d="M475.615,129.305 L475.652,129.5828 L485.5678,127.4236 L495.7004,126.8928 L505.7624,125.8318 L515.5923,123.0268 L525.7298,122.5332 L535.6942,120.7384 L545.7274,119.4614 L555.8086,118.5443 L565.7247,116.3868 L575.9693,116.6985 L585.7868,113.7999 L595.8886,113.0377 L606.025,112.5362 L615.9597,110.5181 L626.0124,109.3878 L636.0205,107.9216 L646.0832,106.8659 L656.1196,105.6122 L666.2062,104.7364 L676.2469,103.5154 L686.274,102.1924 L696.2251,100.2974 L706.206,98.627 " fill="none" style="stroke: #A9A9A9; stroke-width: 2.0; stroke-dasharray: 7.0,7.0;"/><polygon fill="#A9A9A9" points="470.553,129.979,470.5728,130.0462,472.4037,130.4024,474.3506,131.1526,476.2597,131.7745,478.0447,131.9745,480.0015,132.7585,479.9858,132.738,479.0167,131.958,478.127,131.2817,477.2924,130.6776,476.2678,129.825,475.5094,129.3203,475.656,129.4325,476.0302,128.2942,476.8324,127.4834,477.6867,126.7126,478.2373,125.7093,478.9476,124.8283,478.9595,124.8476,477.2631,125.8493,475.6209,126.9393,473.9525,127.9866,472.334,129.1153,470.553,129.979" style="stroke: #A9A9A9; stroke-width: 2.0;"/><text fill="#A9A9A9" font-family="courier" font-size="20" lengthAdjust="spacingAndGlyphs" textLength="60" x="572" y="102.1074">trace</text><!--link registred to Logout--><path d="M539.36,173.659 L539.3641,173.7523 L545.4799,173.7432 L551.6198,174.2812 L557.7518,174.6411 L563.8581,174.415 L570,175 L569.999,174.9655 L573.5931,174.9108 L577.1921,175.0302 L580.7944,175.2705 L584.3852,175.0939 L587.9921,175.5013 L587.9928,175.7474 L590.7917,175.2287 L593.5925,175.4285 L596.3935,175.7158 L599.1932,175.4932 L601.9936,175.5389 L601.9941,175.5692 L608.3947,175.4169 L614.7975,175.4027 L621.1992,175.3218 L627.6031,175.368 L634,175 L634.0054,175.2982 L640.3335,175.1874 L646.6581,174.8843 L652.9879,174.8628 L659.3178,174.8545 L665.6402,174.428 L665.6322,174.1076 L671.8472,174.5731 L678.0356,173.9835 L684.2443,174.196 L690.4321,173.5825 L696.637,173.646 " fill="none" style="stroke: #A9A9A9; stroke-width: 2.0; stroke-dasharray: 7.0,7.0;"/><polygon fill="#A9A9A9" points="534.273,173.402,534.3047,173.4645,535.9678,174.1688,537.8166,175.2395,539.6049,176.1908,541.1945,176.7498,543.0592,177.852,543.04,177.8346,542.1952,176.9172,541.4473,176.0874,540.7668,175.3184,539.8541,174.3397,539.2666,173.6548,539.3903,173.7917,539.9652,172.7404,540.9013,172.0889,541.8814,171.4861,542.6051,170.5995,543.4637,169.8622,543.4719,169.8834,541.6218,170.5602,539.8088,171.3337,537.9779,172.0605,536.1813,172.8762,534.273,173.402" style="stroke: #A9A9A9; stroke-width: 2.0;"/><text fill="#A9A9A9" font-family="courier" font-size="20" lengthAdjust="spacingAndGlyphs" textLength="60" x="572" y="167.1074">trace</text><!--link ticTacToe to CreateGame--><path d="M533.482,259.441 L533.493,259.721 L543.5546,258.4928 L553.6806,258.9061 L563.7856,258.7848 L573.8216,256.9056 L583.9491,257.3563 L594.0251,256.4954 L604.1216,256.1564 L614.2323,256.1803 L624.2939,254.9538 L634.4533,256.2163 L644.4856,254.2427 L654.6024,254.4227 L664.707,254.29 " fill="none" style="stroke: #A9A9A9; stroke-width: 2.0; stroke-dasharray: 7.0,7.0;"/><polygon fill="#A9A9A9" points="528.315,259.644,528.3409,259.7091,530.0941,260.2441,531.9991,261.1607,533.8547,261.953,535.5476,262.3367,537.4657,263.2861,537.4481,263.2671,536.5383,262.4139,535.7171,261.6565,534.9575,260.9659,533.9856,260.0455,533.3111,259.4469,533.4467,259.5721,533.9247,258.4734,534.7984,257.7403,535.7204,257.0519,536.3615,256.1038,537.1503,255.2923,537.1604,255.3127,535.3786,256.1531,533.6425,257.0864,531.8843,257.9748,530.1683,258.9488,528.315,259.644" style="stroke: #A9A9A9; stroke-width: 2.0;"/><text fill="#A9A9A9" font-family="courier" font-size="20" lengthAdjust="spacingAndGlyphs" textLength="60" x="572" y="247.1074">trace</text><!--link ticTacToe to PlacePiece--><path d="M475.523,293.683 L475.56,293.9608 L485.3297,294.4498 L495.3162,296.5673 L505.2321,298.1545 L514.916,297.9977 L524.9073,300.1523 L534.7256,301.0057 L544.6128,302.3769 L554.5478,304.1081 L564.3178,304.5988 L574.4164,307.5587 L584.0878,307.3084 L594.0434,309.1944 L604.0338,311.3411 L613.8223,311.9712 L623.729,313.4892 L633.591,314.6712 L643.5076,316.2638 L653.3978,317.6583 L663.3384,319.4307 L673.115,319.971 " fill="none" style="stroke: #A9A9A9; stroke-width: 2.0; stroke-dasharray: 7.0,7.0;"/><polygon fill="#A9A9A9" points="470.553,293.021,470.5896,293.0807,472.1597,293.9334,473.9445,295.1362,475.6595,296.225,477.1443,296.9389,478.9476,298.1717,478.9271,298.156,478.1471,297.1869,477.4708,296.2972,476.8667,295.4627,476.0141,294.438,475.5094,293.6797,475.6216,293.8262,476.2801,292.8252,477.2662,292.252,478.2922,291.7311,479.0857,290.9064,480.0015,290.2415,480.0079,290.2633,478.1088,290.7872,476.2389,291.4104,474.3549,291.9857,472.4978,292.6524,470.553,293.021" style="stroke: #A9A9A9; stroke-width: 2.0;"/><text fill="#A9A9A9" font-family="courier" font-size="20" lengthAdjust="spacingAndGlyphs" textLength="60" x="572" y="298.1074">trace</text><!--link persistent to OpenGame--><path d="M545.196,406.34 L545.1997,406.6202 L554.8444,405.914 L564.5107,406.8504 L574.1699,407.2519 L583.8061,405.8943 L593.4729,406.8682 L603.1224,406.5295 L612.7788,406.7132 L622.44,407.26 L632.0847,406.5555 L641.7621,408.3417 L651.3971,406.8896 L661.0603,407.5926 L670.7269,408.5585 L680.375,408.109 " fill="none" style="stroke: #A9A9A9; stroke-width: 2.0; stroke-dasharray: 7.0,7.0;"/><polygon fill="#A9A9A9" points="540.045,406.272,540.0743,406.3356,541.7766,406.9701,543.6506,407.9777,545.4687,408.8638,547.1029,409.3504,548.9916,410.39,548.9731,410.3719,548.1004,409.4803,547.3212,408.6799,546.6071,407.9428,545.6689,406.9874,545.0446,406.3377,545.1733,406.4699,545.7084,405.3978,546.6195,404.7117,547.5764,404.0726,548.2664,403.1596,549.0968,402.3907,549.1058,402.4116,547.2822,403.1571,545.4995,403.9979,543.6971,404.7927,541.9323,405.6752,540.045,406.272" style="stroke: #A9A9A9; stroke-width: 2.0;"/><text fill="#A9A9A9" font-family="courier" font-size="20" lengthAdjust="spacingAndGlyphs" textLength="60" x="572" y="398.1074">trace</text><!--link persistent to SaveGame--><path d="M443.653,427.894 L443.7009,428.1701 L453.2518,429.0307 L463.0834,431.51 L472.8237,433.4622 L482.2633,433.681 L492.119,436.2993 L492.1005,436.1973 L501.5935,437.4799 L511.18,439.2765 L520.8314,441.4303 L530.259,442.3529 L540,445 L540.0465,445.2416 L547.8712,446.249 L555.8317,447.9619 L563.8087,449.7608 L571.6894,451.059 L579.6207,452.6205 L579.6267,452.6502 L587.6195,454.2119 L595.6396,455.9089 L603.6465,457.5406 L611.6784,459.2969 L619.6289,460.647 L619.6892,460.9391 L627.3275,462.5209 L634.9269,463.9144 L642.5832,465.5836 L650.2422,467.2658 L657.8166,468.5384 L657.7504,468.2248 L664.7108,470.2766 L671.4531,471.2957 L678.3613,473.0998 L685.0987,474.0955 L691.976,475.7539 " fill="none" style="stroke: #A9A9A9; stroke-width: 2.0; stroke-dasharray: 7.0,7.0;"/><polygon fill="#A9A9A9" points="438.549,427.028,438.5878,427.0864,440.1132,428.003,441.866,429.2618,443.5447,430.4091,444.9801,431.1901,446.7523,432.4782,446.7312,432.4632,445.9816,431.4733,445.3385,430.559,444.7695,429.6972,443.9453,428.6543,443.4784,427.865,443.5852,428.0155,444.2795,427.0389,445.2856,426.5017,446.3297,426.0181,447.1524,425.2226,448.0916,424.5911,448.0973,424.6132,446.1805,425.0682,444.2893,425.6235,442.3858,426.1305,440.5058,426.7298,438.549,427.028" style="stroke: #A9A9A9; stroke-width: 2.0;"/><text fill="#A9A9A9" font-family="courier" font-size="20" lengthAdjust="spacingAndGlyphs" textLength="60" x="572" y="443.1074">trace</text><!--
@startuml
allowmixing
left to right direction
skinparam backgroundColor #222222
skinparam handwritten true
hide circle
hide stereotype
skinparam shadowing false
skinparam padding 1
skinparam arrow {
    Thickness 2
    Color #DarkGrey
    FontSize 20
    FontName courier
    FontStyle normal
    FontColor #DarkGrey
}
skinparam rectangle {
    BorderThickness 3
    BorderColor #DarkGrey
    BackgroundColor #222222
    FontSize 20
    FontName courier
    FontStyle bold
    FontColor #DarkGrey
}
skinparam usecase {
    BorderThickness 3
    BorderColor #DarkGrey
    BackgroundColor #222222
    FontSize 20
    FontName courier
    FontStyle bold
    FontColor #DarkGrey
}
skinparam package {
    BorderThickness 3
    BorderColor #DarkGrey
    BackgroundColor #222222
    FontSize 20
    FontName courier
    FontStyle bold
}
skinparam default {
    BorderColor #DarkGrey
    FontSize 20
    FontName courier
    FontStyle normal
    FontColor #DarkGrey
}
package useCaseView {
rectangle "registred users : FunctionalRequirement" as registred
rectangle "TicTacToe game : FunctionalRequirement" as ticTacToe
rectangle "persistent games : FunctionalRequirement" as persistent
rectangle "undo/redo : FunctionalRequirement" as undoRedo
usecase Logout
usecase SaveGame
usecase PlacePiece
usecase CreateGame
usecase OpenGame
usecase Login
}
registred <.. Login :trace
registred <.. Logout :trace
ticTacToe <.. CreateGame :trace
ticTacToe <.. PlacePiece :trace
persistent <.. OpenGame :trace
persistent <.. SaveGame :trace

@enduml

PlantUML version 1.2019.05(Sat Apr 20 18:45:36 CEST 2019)
(GPL source distribution)
Java Runtime: Java(TM) SE Runtime Environment
JVM: Java HotSpot(TM) 64-Bit Server VM
Java Version: 11.0.8+10-LTS
Operating System: Windows 10
OS Version: 10.0
Default Encoding: windows-1252
Language: es
Country: ES
--></g></svg>