<?xml version="1.0" encoding="UTF-8" standalone="no"?><svg xmlns="http://www.w3.org/2000/svg" xmlns:xlink="http://www.w3.org/1999/xlink" contentScriptType="application/ecmascript" contentStyleType="text/css" height="660px" preserveAspectRatio="none" style="width:925px;height:660px;background:#222222;" version="1.1" viewBox="0 0 925 660" width="925px" zoomAndPan="magnify"><defs/><g><!--cluster activities--><polygon fill="#222222" points="511,24,511,24.2102,520.8462,23.5857,530.6923,24.1933,540.5385,24.3997,550.3846,23.2866,560.2308,23.9223,570.0769,23.5735,579.9231,23.6165,589.7692,23.9318,599.6154,23.3086,609.4615,24.5536,619.3077,23.3697,629.1538,23.8022,639,24,639.141,24.0289,640.372,30.8169,641.8223,37.6499,643.1896,44.4658,644.6583,51.3026,646,58.1133,646,58.3524,655.8,58.699,665.6,58.7843,675.4,58.7925,685.2,58.3679,695,58.1133,695.4636,58.1133,695.7022,68.2419,694.2788,78.3705,695.6785,88.4991,694.7035,98.6277,695.5338,108.7563,694.505,118.8849,694.9315,129.0135,695.7416,139.1421,694.9513,149.2707,695.1053,159.3993,695.3386,169.5279,695.4162,179.6565,694.9961,189.7851,695.2872,199.9137,694.4276,210.0422,695.2844,220.1708,695.5482,230.2994,695.4445,240.428,695.613,250.5566,694.5169,260.6852,694.3478,270.8138,694.3786,280.9424,694.9411,291.071,694.8035,301.1996,695.6814,311.3282,694.8253,321.4568,694.6569,331.5854,695.2283,341.714,694.3332,351.8426,694.4809,361.9712,695.649,372.0998,695.4357,382.2284,695.7345,392.357,694.6782,402.4856,695.3192,412.6142,695.5904,422.7428,694.5276,432.8714,695,443,695,442.9041,684.7778,443.126,674.5556,443.6518,664.3333,442.9958,654.1111,443.4626,643.8889,442.4462,633.6667,442.3227,623.4444,443.5036,613.2222,442.2831,603,443.509,592.7778,443.2066,582.5556,442.7321,572.3333,442.6462,562.1111,443.4588,551.8889,442.7007,541.6667,443.5919,531.4444,442.4473,521.2222,443.6174,511,443,511.4843,443,511.245,433.0238,511.0472,423.0476,511.7266,413.0714,511.6136,403.0952,511.1693,393.119,511.2682,383.1429,510.8697,373.1667,511.7165,363.1905,511.1549,353.2143,511.1726,343.2381,510.3916,333.2619,510.5948,323.2857,511.5307,313.3095,511.4298,303.3333,510.9571,293.3571,510.6778,283.381,510.7811,273.4048,510.3138,263.4286,511.4147,253.4524,511.7396,243.4762,511.5264,233.5,511.6949,223.5238,510.8633,213.5476,511.0872,203.5714,510.6124,193.5952,511.284,183.619,511.2468,173.6429,511.5524,163.6667,510.7703,153.6905,510.8656,143.7143,511.4435,133.7381,511.5673,123.7619,510.4875,113.7857,510.8061,103.8095,511.1493,93.8333,510.3892,83.8571,511.3534,73.881,511.258,63.9048,510.8992,53.9286,511.1422,43.9524,511.7287,33.9762,511,24" style="stroke: #228B22; stroke-width: 3.0;"/><path d="M511,58.1133 L511,58.3935 L520.6429,57.5609 L530.2857,58.371 L539.9286,58.6462 L549.5714,57.1621 L559.2143,58.0097 L568.8571,57.5446 L578.5,57.6019 L588.1429,58.0224 L597.7857,57.1915 L607.4286,58.8515 L617.0714,57.2729 L626.7143,57.8496 L636.3571,58.6892 L646,58.1133 " fill="#222222" style="stroke: #228B22; stroke-width: 3.0;"/><text fill="#228B22" font-family="courier" font-size="20" font-weight="bold" lengthAdjust="spacingAndGlyphs" textLength="120" x="516" y="47.1074">activities</text><!--cluster Artifacts--><polygon fill="#222222" points="22,505,22,505.2102,31.6667,504.5857,41.3333,505.1933,51,505.3997,60.6667,504.2866,70.3333,504.9223,80,504.5735,89.6667,504.6165,99.3333,504.9318,109,504.3086,118.6667,505.5536,128.3333,504.3697,138,505,137.9354,504.9867,139.541,511.8516,140.772,518.6396,142.2223,525.4725,143.5896,532.2885,145,539.1133,145,539.2918,155,539.3524,165,539.699,175,539.7843,185,539.7925,195,539.3679,205,539.5769,215,539.8155,225,538.3921,235,539.7918,245,538.8168,255,539.6471,265,538.6183,275,539.0448,285,539.8549,295,539.0645,305,539.2186,315,539.4519,325,539.5295,335,539.1094,345,539.4005,355,538.5409,365,539.3977,375,539.6615,385,539.5578,395,539.7263,405,538.6302,415,538.4611,425,538.4919,435,539.0544,445,538.9168,455,539.7947,465,538.9386,475,538.7702,485,539.3415,495,538.4464,505,538.5942,515,539.7622,525,539.5489,535,539.8478,545,538.7915,555,539.4325,565,539.7037,575,538.6409,585,539.0174,595,539.2393,605,539.765,615,539.1091,625,539.5758,635,538.5595,645,538.436,655,539.6169,665,538.3963,675,539.6222,685,539.3199,695,539.1133,694.7321,539.1133,694.6462,549.0121,695.4588,558.9109,694.7007,568.8097,695.5919,578.7085,694.4473,588.6072,695.6174,598.506,695.4843,608.4048,695.245,618.3036,695.0472,628.2024,695.7266,638.1012,695,648,695,648.6136,684.9552,648.1693,674.9104,648.2682,664.8657,647.8697,654.8209,648.7165,644.7761,648.1549,634.7313,648.1726,624.6866,647.3916,614.6418,647.5948,604.597,648.5307,594.5522,648.4298,584.5075,647.9571,574.4627,647.6778,564.4179,647.7811,554.3731,647.3138,544.3284,648.4147,534.2836,648.7396,524.2388,648.5264,514.194,648.6949,504.1493,647.8633,494.1045,648.0872,484.0597,647.6124,474.0149,648.284,463.9701,648.2468,453.9254,648.5524,443.8806,647.7703,433.8358,647.8656,423.791,648.4435,413.7463,648.5673,403.7015,647.4875,393.6567,647.8061,383.6119,648.1493,373.5672,647.3892,363.5224,648.3534,353.4776,648.258,343.4328,647.8992,333.3881,648.1422,323.3433,648.7287,313.2985,647.6871,303.2537,648.315,293.209,648.2856,283.1642,648.1158,273.1194,648.1409,263.0746,648.1135,253.0299,647.3758,242.9851,647.5992,232.9403,647.5385,222.8955,648.0638,212.8507,648.0881,202.806,648.1617,192.7612,647.709,182.7164,647.9325,172.6716,647.8798,162.6269,648.5769,152.5821,648.4266,142.5373,647.5145,132.4925,647.9271,122.4478,647.4228,112.403,648.2884,102.3582,648.6085,92.3134,648.5446,82.2687,647.5644,72.2239,648.464,62.1791,647.2572,52.1343,648.2002,42.0896,647.7007,32.0448,648.0967,22,648,22.2403,648,22.4721,637.7857,21.2801,627.5714,22.4755,617.3571,22.1782,607.1429,22.3553,596.9286,22.7478,586.7143,22.0055,576.5,22.1753,566.2857,22.2134,556.0714,22.1972,545.8571,21.9992,535.6429,22.7107,525.4286,21.3903,515.2143,22,505" style="stroke: #DC143C; stroke-width: 3.0;"/><path d="M22,539.1133 L22,539.3935 L32.25,538.5609 L42.5,539.371 L52.75,539.6462 L63,538.1621 L73.25,539.0097 L83.5,538.5446 L93.75,538.6019 L104,539.0224 L114.25,538.1915 L124.5,539.8515 L134.75,538.2729 L145,539.1133 " fill="#222222" style="stroke: #DC143C; stroke-width: 3.0;"/><text fill="#DC143C" font-family="courier" font-size="20" font-weight="bold" lengthAdjust="spacingAndGlyphs" textLength="108" x="27" y="528.1074">Artifacts</text><!--cluster team--><polygon fill="#222222" points="719,172,719,172.2102,728.3333,171.5857,737.6667,172.1933,747,172.3997,756.3333,171.2866,765.6667,171.9223,775,172,774.8607,171.9714,776.2748,178.797,777.7777,185.6407,778.9742,192.4216,780.7808,199.3277,782,206.1133,782,205.483,792.0833,205.9155,802.1667,206.5452,812.25,206.0275,822.3333,206.1815,832.4167,206.0813,842.5,206.2918,852.5833,206.3524,862.6667,206.699,872.75,206.7843,882.8333,206.7925,892.9167,206.3679,903,206.1133,903.4636,206.1133,903.7022,216.0874,902.2788,226.0615,903.6785,236.0356,902.7035,246.0097,903.5338,255.9838,902.505,265.9579,902.9315,275.932,903.7416,285.9062,902.9513,295.8803,903.1053,305.8544,903.3386,315.8285,903.4162,325.8026,902.9961,335.7767,903.2872,345.7508,902.4276,355.7249,903.2844,365.699,903.5482,375.6731,903.4445,385.6473,903.613,395.6214,902.5169,405.5955,902.3478,415.5696,902.3786,425.5437,902.9411,435.5178,902.8035,445.4919,903.6814,455.466,902.8253,465.4401,902.6569,475.4142,903.2283,485.3884,902.3332,495.3625,902.4809,505.3366,903.649,515.3107,903.4357,525.2848,903.7345,535.2589,902.6782,545.233,903.3192,555.2071,903.5904,565.1812,902.5276,575.1553,902.9041,585.1295,903.126,595.1036,903.6518,605.0777,902.9958,615.0518,903.4626,625.0259,903,635,903,634.4462,892.7778,634.3227,882.5556,635.5036,872.3333,634.2831,862.1111,635.509,851.8889,635.2066,841.6667,634.7321,831.4444,634.6462,821.2222,635.4588,811,634.7007,800.7778,635.5919,790.5556,634.4473,780.3333,635.6174,770.1111,635.4843,759.8889,635.245,749.6667,635.0472,739.4444,635.7266,729.2222,635.6136,719,635,719.1693,635,719.2682,624.9348,718.8697,614.8696,719.7165,604.8043,719.1549,594.7391,719.1726,584.6739,718.3916,574.6087,718.5948,564.5435,719.5307,554.4783,719.4298,544.413,718.9571,534.3478,718.6778,524.2826,718.7811,514.2174,718.3138,504.1522,719.4147,494.087,719.7396,484.0217,719.5264,473.9565,719.6949,463.8913,718.8633,453.8261,719.0872,443.7609,718.6124,433.6957,719.284,423.6304,719.2468,413.5652,719.5524,403.5,718.7703,393.4348,718.8656,383.3696,719.4435,373.3043,719.5673,363.2391,718.4875,353.1739,718.8061,343.1087,719.1493,333.0435,718.3892,322.9783,719.3534,312.913,719.258,302.8478,718.8992,292.7826,719.1422,282.7174,719.7287,272.6522,718.6871,262.587,719.315,252.5217,719.2856,242.4565,719.1158,232.3913,719.1409,222.3261,719.1135,212.2609,718.3758,202.1957,718.5992,192.1304,718.5385,182.0652,719,172" style="stroke: #1E90FF; stroke-width: 3.0;"/><path d="M719,206.1133 L719,206.3935 L729.5,205.5609 L740,206.371 L750.5,206.6462 L761,205.1621 L771.5,206.0097 L782,206.1133 " fill="#222222" style="stroke: #1E90FF; stroke-width: 3.0;"/><text fill="#1E90FF" font-family="courier" font-size="20" font-weight="bold" lengthAdjust="spacingAndGlyphs" textLength="48" x="724" y="195.1074">team</text><!--class Activity--><polygon fill="#222222" points="563,71,563,71.2102,573.4,70.5857,583.8,71.1933,594.2,71.3997,604.6,70.2866,615,70.9223,625.4,70.5735,635.8,70.6165,646.2,70.9318,656.6,70.3086,667,71,667.5536,71,666.3697,81.8227,666.8022,92.6453,667.4319,103.468,666.9142,114.2906,667,125.1133,667,125.1815,656.6,125.0813,646.2,125.2918,635.8,125.3524,625.4,125.699,615,125.7843,604.6,125.7925,594.2,125.3679,583.8,125.5769,573.4,125.8155,563,125.1133,562.2788,125.1133,563.6785,114.2906,562.7035,103.468,563.5338,92.6453,562.505,81.8227,563,71" style="stroke: #228B22; stroke-width: 3.0;"/><text fill="#228B22" font-family="courier" font-size="20" font-weight="bold" lengthAdjust="spacingAndGlyphs" textLength="96" x="567" y="97.1074">Activity</text><path d="M564,109.1133 L564,109.3935 L574.2,108.5609 L584.4,109.371 L594.6,109.6462 L604.8,108.1621 L615,109.0097 L625.2,108.5446 L635.4,108.6019 L645.6,109.0224 L655.8,108.1915 L666,109.1133 " fill="#222222" style="stroke: #228B22; stroke-width: 3.0;"/><path d="M564,117.1133 L564,117.3935 L574.2,116.5609 L584.4,117.371 L594.6,117.6462 L604.8,116.1621 L615,117.0097 L625.2,116.5446 L635.4,116.6019 L645.6,117.0224 L655.8,116.1915 L666,117.1133 " fill="#222222" style="stroke: #228B22; stroke-width: 3.0;"/><!--class RequirementsActivity--><polygon fill="#222222" points="527,206,527,206.2102,537.1333,205.5857,547.2667,206.1933,557.4,206.3997,567.5333,205.2866,577.6667,205.9223,587.8,205.5735,597.9333,205.6165,608.0667,205.9318,618.2,205.3086,628.3333,206.5536,638.4667,205.3697,648.6,205.8022,658.7333,206.4319,668.8667,205.9142,679,206,679.0682,206,678.9681,216.0283,679.1785,226.0566,679.2391,236.085,679.5857,246.1133,679.6711,256.1416,679.6793,266.1699,679.2546,276.1982,679,286.2266,679,286.6901,668.8667,286.9288,658.7333,285.5054,648.6,286.9051,638.4667,285.9301,628.3333,286.7604,618.2,285.7315,608.0667,286.1581,597.9333,286.9682,587.8,286.1778,577.6667,286.3319,567.5333,286.5652,557.4,286.6428,547.2667,286.2227,537.1333,286.5138,527,286.2266,526.4276,286.2266,527.2844,276.1982,527.5482,266.1699,527.4445,256.1416,527.613,246.1133,526.5169,236.085,526.3478,226.0566,526.3786,216.0283,527,206" style="stroke: #228B22; stroke-width: 3.0;"/><text fill="#228B22" font-family="courier" font-size="20" font-weight="bold" lengthAdjust="spacingAndGlyphs" textLength="144" x="531" y="232.1074">Requirements</text><text fill="#228B22" font-family="courier" font-size="20" font-weight="bold" lengthAdjust="spacingAndGlyphs" textLength="96" x="555" y="258.2207">Activity</text><path d="M528,270.2266 L528,270.5068 L538,269.6741 L548,270.4843 L558,270.7595 L568,269.2754 L578,270.1229 L588,269.6579 L598,269.7152 L608,270.1357 L618,269.3047 L628,270.9648 L638,269.3862 L648,269.9629 L658,270.8025 L668,270.1122 L678,270.2266 " fill="#222222" style="stroke: #228B22; stroke-width: 3.0;"/><path d="M528,278.2266 L528,278.5068 L538,277.6741 L548,278.4843 L558,278.7595 L568,277.2754 L578,278.1229 L588,277.6579 L598,277.7152 L608,278.1357 L618,277.3047 L628,278.9648 L638,277.3862 L648,277.9629 L658,278.8025 L668,278.1122 L678,278.2266 " fill="#222222" style="stroke: #228B22; stroke-width: 3.0;"/><!--class PrioritizeUseCases--><polygon fill="#222222" points="530,347,530,347.2102,539.8462,346.5857,549.6923,347.1933,559.5385,347.3997,569.3846,346.2866,579.2308,346.9223,589.0769,346.5735,598.9231,346.6165,608.7692,346.9318,618.6154,346.3086,628.4615,347.5536,638.3077,346.3697,648.1538,346.8022,658,347,658.4319,347,657.9142,357.0283,658.0682,367.0566,657.9681,377.085,658.1785,387.1133,658.2391,397.1416,658.5857,407.1699,658.6711,417.1982,658,427.2266,658,427.9058,648.1538,427.4812,638.3077,427.6901,628.4615,427.9288,618.6154,426.5054,608.7692,427.9051,598.9231,426.9301,589.0769,427.7604,579.2308,426.7315,569.3846,427.1581,559.5385,427.9682,549.6923,427.1778,539.8462,427.3319,530,427.2266,530.3386,427.2266,530.4162,417.1982,529.9961,407.1699,530.2872,397.1416,529.4276,387.1133,530.2844,377.085,530.5482,367.0566,530.4445,357.0283,530,347" style="stroke: #228B22; stroke-width: 3.0;"/><text fill="#228B22" font-family="courier" font-size="20" font-weight="bold" lengthAdjust="spacingAndGlyphs" textLength="120" x="534" y="373.1074">Prioritize</text><text fill="#228B22" font-family="courier" font-size="20" font-weight="bold" lengthAdjust="spacingAndGlyphs" textLength="108" x="540" y="399.2207">Use cases</text><path d="M531,411.2266 L531,411.5068 L540.6923,410.6741 L550.3846,411.4843 L560.0769,411.7595 L569.7692,410.2754 L579.4615,411.1229 L589.1538,410.6579 L598.8462,410.7152 L608.5385,411.1357 L618.2308,410.3047 L627.9231,411.9648 L637.6154,410.3862 L647.3077,410.9629 L657,411.2266 " fill="#222222" style="stroke: #228B22; stroke-width: 3.0;"/><path d="M531,419.2266 L531,419.5068 L540.6923,418.6741 L550.3846,419.4843 L560.0769,419.7595 L569.7692,418.2754 L579.4615,419.1229 L589.1538,418.6579 L598.8462,418.7152 L608.5385,419.1357 L618.2308,418.3047 L627.9231,419.9648 L637.6154,418.3862 L647.3077,418.9629 L657,419.2266 " fill="#222222" style="stroke: #228B22; stroke-width: 3.0;"/><!--class UseCaseModel--><polygon fill="#222222" points="38,552,38,552.2102,47.6667,551.5857,57.3333,552.1933,67,552.3997,76.6667,551.2866,86.3333,551.9223,96,551.5735,105.6667,551.6165,115.3333,551.9318,125,551.3086,134.6667,552.5536,144.3333,551.3697,154,552,153.8022,552,154.4319,562.0283,153.9142,572.0566,154.0682,582.085,153.9681,592.1133,154.1785,602.1416,154.2391,612.1699,154.5857,622.1982,154,632.2266,154,632.8976,144.3333,632.9058,134.6667,632.4812,125,632.6901,115.3333,632.9288,105.6667,631.5054,96,632.9051,86.3333,631.9301,76.6667,632.7604,67,631.7315,57.3333,632.1581,47.6667,632.9682,38,632.2266,37.9513,632.2266,38.1053,622.1982,38.3386,612.1699,38.4162,602.1416,37.9961,592.1133,38.2872,582.085,37.4276,572.0566,38.2844,562.0283,38,552" style="stroke: #DC143C; stroke-width: 3.0;"/><text fill="#DC143C" font-family="courier" font-size="20" font-weight="bold" lengthAdjust="spacingAndGlyphs" textLength="96" x="42" y="578.1074">Use Case</text><text fill="#DC143C" font-family="courier" font-size="20" font-weight="bold" lengthAdjust="spacingAndGlyphs" textLength="60" x="66" y="604.2207">Model</text><path d="M39,616.2266 L39,616.5068 L49.3636,615.6741 L59.7273,616.4843 L70.0909,616.7595 L80.4545,615.2754 L90.8182,616.1229 L101.1818,615.6579 L111.5455,615.7152 L121.9091,616.1357 L132.2727,615.3047 L142.6364,616.9648 L153,616.2266 " fill="#222222" style="stroke: #DC143C; stroke-width: 3.0;"/><path d="M39,624.2266 L39,624.5068 L49.3636,623.6741 L59.7273,624.4843 L70.0909,624.7595 L80.4545,623.2754 L90.8182,624.1229 L101.1818,623.6579 L111.5455,623.7152 L121.9091,624.1357 L132.2727,623.3047 L142.6364,624.9648 L153,624.2266 " fill="#222222" style="stroke: #DC143C; stroke-width: 3.0;"/><!--class SupplementaryRequirements--><polygon fill="#222222" points="189,552,189,552.2102,199.25,551.5857,209.5,552.1933,219.75,552.3997,230,551.2866,240.25,551.9223,250.5,551.5735,260.75,551.6165,271,551.9318,281.25,551.3086,291.5,552.5536,301.75,551.3697,312,551.8022,322.25,552.4319,332.5,551.9142,342.75,552.0682,353,552,352.9681,552,353.1785,562.0283,353.2391,572.0566,353.5857,582.085,353.6711,592.1133,353.6793,602.1416,353.2546,612.1699,353.4636,622.1982,353,632.2266,353,632.9288,342.75,631.5054,332.5,632.9051,322.25,631.9301,312,632.7604,301.75,631.7315,291.5,632.1581,281.25,632.9682,271,632.1778,260.75,632.3319,250.5,632.5652,240.25,632.6428,230,632.2227,219.75,632.5138,209.5,631.6541,199.25,632.5109,189,632.2266,189.5482,632.2266,189.4445,622.1982,189.613,612.1699,188.5169,602.1416,188.3478,592.1133,188.3786,582.085,188.9411,572.0566,188.8035,562.0283,189,552" style="stroke: #DC143C; stroke-width: 3.0;"/><text fill="#DC143C" font-family="courier" font-size="20" font-weight="bold" lengthAdjust="spacingAndGlyphs" textLength="156" x="193" y="578.1074">Supplementary</text><text fill="#DC143C" font-family="courier" font-size="20" font-weight="bold" lengthAdjust="spacingAndGlyphs" textLength="144" x="199" y="604.2207">Requirements</text><path d="M190,616.2266 L190,616.5068 L200.125,615.6741 L210.25,616.4843 L220.375,616.7595 L230.5,615.2754 L240.625,616.1229 L250.75,615.6579 L260.875,615.7152 L271,616.1357 L281.125,615.3047 L291.25,616.9648 L301.375,615.3862 L311.5,615.9629 L321.625,616.8025 L331.75,616.1122 L341.875,616.3175 L352,616.2266 " fill="#222222" style="stroke: #DC143C; stroke-width: 3.0;"/><path d="M190,624.2266 L190,624.5068 L200.125,623.6741 L210.25,624.4843 L220.375,624.7595 L230.5,623.2754 L240.625,624.1229 L250.75,623.6579 L260.875,623.7152 L271,624.1357 L281.125,623.3047 L291.25,624.9648 L301.375,623.3862 L311.5,623.9629 L321.625,624.8025 L331.75,624.1122 L341.875,624.3175 L352,624.2266 " fill="#222222" style="stroke: #DC143C; stroke-width: 3.0;"/><!--class Glossary--><polygon fill="#222222" points="388,565,388,565.2102,398.4,564.5857,408.8,565.1933,419.2,565.3997,429.6,564.2866,440,564.9223,450.4,564.5735,460.8,564.6165,471.2,564.9318,481.6,564.3086,492,565,492.5536,565,491.3697,575.8227,491.8022,586.6453,492.4319,597.468,491.9142,608.2906,492,619.1133,492,619.1815,481.6,619.0813,471.2,619.2918,460.8,619.3524,450.4,619.699,440,619.7843,429.6,619.7925,419.2,619.3679,408.8,619.5769,398.4,619.8155,388,619.1133,387.2788,619.1133,388.6785,608.2906,387.7035,597.468,388.5338,586.6453,387.505,575.8227,388,565" style="stroke: #DC143C; stroke-width: 3.0;"/><text fill="#DC143C" font-family="courier" font-size="20" font-weight="bold" lengthAdjust="spacingAndGlyphs" textLength="96" x="392" y="591.1074">Glossary</text><path d="M389,603.1133 L389,603.3935 L399.2,602.5609 L409.4,603.371 L419.6,603.6462 L429.8,602.1621 L440,603.0097 L450.2,602.5446 L460.4,602.6019 L470.6,603.0224 L480.8,602.1915 L491,603.1133 " fill="#222222" style="stroke: #DC143C; stroke-width: 3.0;"/><path d="M389,611.1133 L389,611.3935 L399.2,610.5609 L409.4,611.371 L419.6,611.6462 L429.8,610.1621 L440,611.0097 L450.2,610.5446 L460.4,610.6019 L470.6,611.0224 L480.8,610.1915 L491,611.1133 " fill="#222222" style="stroke: #DC143C; stroke-width: 3.0;"/><!--class ArchitectureDescription--><polygon fill="#222222" points="527,552,527,552.2102,537.1333,551.5857,547.2667,552.1933,557.4,552.3997,567.5333,551.2866,577.6667,551.9223,587.8,551.5735,597.9333,551.6165,608.0667,551.9318,618.2,551.3086,628.3333,552.5536,638.4667,551.3697,648.6,551.8022,658.7333,552.4319,668.8667,551.9142,679,552,679.0682,552,678.9681,562.0283,679.1785,572.0566,679.2391,582.085,679.5857,592.1133,679.6711,602.1416,679.6793,612.1699,679.2546,622.1982,679,632.2266,679,632.6901,668.8667,632.9288,658.7333,631.5054,648.6,632.9051,638.4667,631.9301,628.3333,632.7604,618.2,631.7315,608.0667,632.1581,597.9333,632.9682,587.8,632.1778,577.6667,632.3319,567.5333,632.5652,557.4,632.6428,547.2667,632.2227,537.1333,632.5138,527,632.2266,526.4276,632.2266,527.2844,622.1982,527.5482,612.1699,527.4445,602.1416,527.613,592.1133,526.5169,582.085,526.3478,572.0566,526.3786,562.0283,527,552" style="stroke: #DC143C; stroke-width: 3.0;"/><text fill="#DC143C" font-family="courier" font-size="20" font-weight="bold" lengthAdjust="spacingAndGlyphs" textLength="144" x="531" y="578.1074">Architecture</text><text fill="#DC143C" font-family="courier" font-size="20" font-weight="bold" lengthAdjust="spacingAndGlyphs" textLength="132" x="537" y="604.2207">Description</text><path d="M528,616.2266 L528,616.5068 L538,615.6741 L548,616.4843 L558,616.7595 L568,615.2754 L578,616.1229 L588,615.6579 L598,615.7152 L608,616.1357 L618,615.3047 L628,616.9648 L638,615.3862 L648,615.9629 L658,616.8025 L668,616.1122 L678,616.2266 " fill="#222222" style="stroke: #DC143C; stroke-width: 3.0;"/><path d="M528,624.2266 L528,624.5068 L538,623.6741 L548,624.4843 L558,624.7595 L568,623.2754 L578,624.1229 L588,623.6579 L598,623.7152 L608,624.1357 L618,623.3047 L628,624.9648 L638,623.3862 L648,623.9629 L658,624.8025 L668,624.1122 L678,624.2266 " fill="#222222" style="stroke: #DC143C; stroke-width: 3.0;"/><!--class Role--><polygon fill="#222222" points="759,219,759,219.2102,768.3333,218.5857,777.6667,219.1933,787,219.3997,796.3333,218.2866,805.6667,218.9223,815,219,814.5735,219,814.6165,229.8227,814.9318,240.6453,814.3086,251.468,815.5536,262.2906,815,273.1133,815,272.483,805.6667,272.9155,796.3333,273.5452,787,273.0275,777.6667,273.1815,768.3333,273.0813,759,273.1133,759.1785,273.1133,759.2391,262.2906,759.5857,251.468,759.6711,240.6453,759.6793,229.8227,759,219" style="stroke: #1E90FF; stroke-width: 3.0;"/><text fill="#1E90FF" font-family="courier" font-size="20" font-weight="bold" lengthAdjust="spacingAndGlyphs" textLength="48" x="763" y="245.1074">Role</text><path d="M760,257.1133 L760,257.3935 L770.8,256.5609 L781.6,257.371 L792.4,257.6462 L803.2,256.1621 L814,257.1133 " fill="#222222" style="stroke: #1E90FF; stroke-width: 3.0;"/><path d="M760,265.1133 L760,265.3935 L770.8,264.5609 L781.6,265.371 L792.4,265.6462 L803.2,264.1621 L814,265.1133 " fill="#222222" style="stroke: #1E90FF; stroke-width: 3.0;"/><!--class RequirementsRole--><polygon fill="#222222" points="735,347,735,347.2102,745.1333,346.5857,755.2667,347.1933,765.4,347.3997,775.5333,346.2866,785.6667,346.9223,795.8,346.5735,805.9333,346.6165,816.0667,346.9318,826.2,346.3086,836.3333,347.5536,846.4667,346.3697,856.6,346.8022,866.7333,347.4319,876.8667,346.9142,887,347,887.0682,347,886.9681,357.0283,887.1785,367.0566,887.2391,377.085,887.5857,387.1133,887.6711,397.1416,887.6793,407.1699,887.2546,417.1982,887,427.2266,887,427.6901,876.8667,427.9288,866.7333,426.5054,856.6,427.9051,846.4667,426.9301,836.3333,427.7604,826.2,426.7315,816.0667,427.1581,805.9333,427.9682,795.8,427.1778,785.6667,427.3319,775.5333,427.5652,765.4,427.6428,755.2667,427.2227,745.1333,427.5138,735,427.2266,734.4276,427.2266,735.2844,417.1982,735.5482,407.1699,735.4445,397.1416,735.613,387.1133,734.5169,377.085,734.3478,367.0566,734.3786,357.0283,735,347" style="stroke: #1E90FF; stroke-width: 3.0;"/><text fill="#1E90FF" font-family="courier" font-size="20" font-weight="bold" lengthAdjust="spacingAndGlyphs" textLength="144" x="739" y="373.1074">Requirements</text><text fill="#1E90FF" font-family="courier" font-size="20" font-weight="bold" lengthAdjust="spacingAndGlyphs" textLength="48" x="787" y="399.2207">Role</text><path d="M736,411.2266 L736,411.5068 L746,410.6741 L756,411.4843 L766,411.7595 L776,410.2754 L786,411.1229 L796,410.6579 L806,410.7152 L816,411.1357 L826,410.3047 L836,411.9648 L846,410.3862 L856,410.9629 L866,411.8025 L876,411.1122 L886,411.2266 " fill="#222222" style="stroke: #1E90FF; stroke-width: 3.0;"/><path d="M736,419.2266 L736,419.5068 L746,418.6741 L756,419.4843 L766,419.7595 L776,418.2754 L786,419.1229 L796,418.6579 L806,418.7152 L816,419.1357 L826,418.3047 L836,419.9648 L846,418.3862 L856,418.9629 L866,419.8025 L876,419.1122 L886,419.2266 " fill="#222222" style="stroke: #1E90FF; stroke-width: 3.0;"/><!--class Architect--><polygon fill="#222222" points="739,565,739,565.2102,748.6667,564.5857,758.3333,565.1933,768,565.3997,777.6667,564.2866,787.3333,564.9223,797,564.5735,806.6667,564.6165,816.3333,564.9318,826,564.3086,835.6667,565.5536,845.3333,564.3697,855,565,854.8022,565,855.4319,575.8227,854.9142,586.6453,855.0682,597.468,854.9681,608.2906,855,619.1133,855,619.2918,845.3333,619.3524,835.6667,619.699,826,619.7843,816.3333,619.7925,806.6667,619.3679,797,619.5769,787.3333,619.8155,777.6667,618.3921,768,619.7918,758.3333,618.8168,748.6667,619.6471,739,619.1133,738.505,619.1133,738.9315,608.2906,739.7416,597.468,738.9513,586.6453,739.1053,575.8227,739,565" style="stroke: #1E90FF; stroke-width: 3.0;"/><text fill="#1E90FF" font-family="courier" font-size="20" font-weight="bold" lengthAdjust="spacingAndGlyphs" textLength="108" x="743" y="591.1074">Architect</text><path d="M740,603.1133 L740,603.3935 L750.3636,602.5609 L760.7273,603.371 L771.0909,603.6462 L781.4545,602.1621 L791.8182,603.0097 L802.1818,602.5446 L812.5455,602.6019 L822.9091,603.0224 L833.2727,602.1915 L843.6364,603.8515 L854,603.1133 " fill="#222222" style="stroke: #1E90FF; stroke-width: 3.0;"/><path d="M740,611.1133 L740,611.3935 L750.3636,610.5609 L760.7273,611.371 L771.0909,611.6462 L781.4545,610.1621 L791.8182,611.0097 L802.1818,610.5446 L812.5455,610.6019 L822.9091,611.0224 L833.2727,610.1915 L843.6364,611.8515 L854,611.1133 " fill="#222222" style="stroke: #1E90FF; stroke-width: 3.0;"/><!--link Activity to RequirementsActivity--><path d="M611.205,145.174 L611.4843,145.197 L609.8221,155.2551 L609.7972,165.4478 L609.2391,175.5967 L606.9277,185.6014 L606.9401,195.7972 L606.211,205.932 " fill="none" style="stroke: #A9A9A9; stroke-width: 2.0;"/><polygon fill="none" points="604.24,144.461,604.304,144.4895,605.8368,140.533,607.7449,136.7436,609.5307,132.8998,610.9147,128.8771,612.855,125.102,612.8299,125.0955,613.785,129.1674,614.8665,133.2722,616.0358,137.3999,616.9024,141.4487,618.193,145.608,618.2081,145.7919,615.3852,145.1692,612.6064,145.0835,609.833,145.0633,607.0283,144.6619,604.24,144.461" style="stroke: #A9A9A9; stroke-width: 2.0;"/><!--link Activity to Role--><path d="M647.936,125.275 L647.9949,125.3475 L652.4688,128.9129 L657.2881,132.9032 L661.9949,136.7551 L666.3317,140.1521 L671.1808,144.1789 L671.1587,144.1523 L675.8234,147.9974 L680.5994,151.9763 L685.4529,156.0483 L690.0396,159.7996 L695,164 L695.1598,164.1871 L697.8878,166.4092 L701.0823,169.1776 L704.3338,172.0126 L707.2541,174.4599 L710.3486,177.1111 L710.3685,177.134 L713.438,179.7894 L716.5981,182.549 L719.7145,185.2583 L722.9142,188.0636 L725.8424,190.556 L726.0396,190.7797 L731.8264,195.8836 L737.4859,200.8433 L743.3316,206.0141 L749.1861,211.1949 L754.764,216.062 " fill="none" style="stroke: #A9A9A9; stroke-width: 2.0;"/><polygon fill="#A9A9A9" points="758.659,219.531,758.7228,219.5599,757.721,217.6795,757.0934,215.9685,756.3439,214.2023,755.1938,212.2547,754.5983,210.5582,754.5724,210.5567,754.5217,211.6795,754.6014,212.8098,754.7717,213.9454,754.6297,215.0628,754.9251,216.2056,754.9358,216.3899,753.7835,216.0613,752.6623,216.2706,751.545,216.5455,750.4055,216.4385,749.2777,216.5325,749.2846,216.5541,751.1507,217.122,753.0483,217.7886,754.9307,218.4075,756.8422,219.1173,758.659,219.531" style="stroke: #A9A9A9; stroke-width: 2.0;"/><!--link RequirementsActivity to RequirementsRole--><path d="M661.493,286.089 L661.6487,286.322 L669.8575,291.4245 L678.979,297.8929 L687.8033,303.9165 L695.6501,308.4773 L704.7924,314.9768 L713.2054,320.385 L721.9087,326.2275 L730.8137,332.3718 L739.0234,337.4758 L748.207,344.037 " fill="none" style="stroke: #A9A9A9; stroke-width: 2.0;"/><polygon fill="#A9A9A9" points="752.586,346.964,752.6452,347.0014,751.417,345.225,750.536,343.668,749.542,342.0396,748.1761,340.1762,747.3249,338.6381,747.2995,338.633,747.4062,339.72,747.641,340.8324,747.9648,341.9625,747.9818,343.0316,748.4286,344.1862,748.4646,344.3672,747.278,344.2009,746.1965,344.563,745.1278,344.9896,743.9845,345.0411,742.8805,345.2899,742.8843,345.3123,744.8198,345.6142,746.7728,346.0182,748.7173,346.3729,750.6781,346.8216,752.586,346.964" style="stroke: #A9A9A9; stroke-width: 2.0;"/><!--link RequirementsActivity to PrioritizeUseCases--><path d="M599.168,306.176 L599.2612,306.182 L598.4592,314.2735 L598.2037,322.4003 L597.7703,330.5157 L596.7516,338.5931 L596.543,346.723 " fill="none" style="stroke: #A9A9A9; stroke-width: 2.0;"/><polygon fill="none" points="592.191,305.595,592.2555,305.6224,593.7195,301.6398,595.5615,297.8178,597.2804,293.9434,598.5945,289.8973,600.469,286.089,600.444,286.082,601.4707,290.133,602.6231,294.2191,603.8629,298.3295,604.8014,302.3559,606.162,306.5,606.1739,306.6842,603.3542,306.1093,600.5693,306.0722,597.7887,306.1007,594.9834,305.7475,592.191,305.595" style="stroke: #A9A9A9; stroke-width: 2.0;"/><!--link PrioritizeUseCases to UseCaseModel--><path d="M529.83,391.92 L529.8392,392.013 L526.3681,392.0764 L522.9508,392.6848 L519.516,393.1158 L516.0237,392.9632 L512.611,393.6184 L512.6071,393.584 L508.8462,393.8552 L505.105,394.2993 L501.3774,394.8637 L497.6028,395.0136 L493.8941,395.744 L493.9257,395.9881 L489.8495,395.9864 L485.8657,396.6971 L481.8932,397.4947 L477.855,397.7867 L473.8514,398.3446 L473.8558,398.3746 L469.6101,398.9551 L465.3845,399.6723 L461.1491,400.3235 L456.9323,401.1005 L452.6551,401.4675 L452.7041,401.7617 L448.2692,402.5039 L443.8027,403.0563 L439.3824,403.8865 L434.9643,404.7297 L430.4775,405.1604 L430.4185,404.8454 L425.9357,406.3189 L421.2585,406.7551 L416.7292,407.9799 L412.0475,408.3926 L407.4907,409.4709 L407.4845,409.4411 L402.8339,410.7885 L398.0368,411.4399 L393.3261,412.502 L388.6227,413.5985 L383.867,414.4464 L383.9083,414.6267 L381.4672,414.9951 L379.0967,415.6716 L376.6119,415.8496 L374.2977,416.7712 L371.87,417.1984 L371.9275,417.4352 L369.4983,417.9776 L367.0976,418.6376 L364.5644,418.7514 L362.1283,419.2656 L359.7784,420.1345 L359.7096,419.867 L357.3389,420.7344 L354.8907,421.3004 L352.5549,422.3035 L350.0272,422.5602 L347.6136,423.2607 L347.5736,423.1135 L345.1969,424.023 L342.6493,424.3035 L340.2232,425.0313 L337.9162,426.1967 L335.3972,426.5828 L335.4507,426.7689 L333.0382,427.6013 L330.459,427.855 L328.0885,428.8336 L325.6726,429.6542 L323.1507,430.1069 L323.0895,429.906 L320.6873,430.8125 L318.265,431.6532 L315.882,432.6231 L313.3461,433.0906 L310.8956,433.8388 L310.9587,434.0345 L308.3717,434.3937 L305.9064,435.1306 L303.619,436.4193 L301.0041,436.6921 L298.6535,437.7846 L298.7265,437.9987 L296.2416,438.7046 L293.7319,439.3381 L291.2781,440.1351 L288.9532,441.31 L286.4458,441.9501 L286.4006,441.825 L284.1048,443.0757 L281.5016,443.4756 L279.248,444.8429 L276.7976,445.6655 L274.2941,446.3413 L274.333,446.443 L271.8868,447.2855 L269.5799,448.4921 L267.1471,449.3697 L264.6617,450.1099 L262.2199,450.9642 L262.2647,451.0747 L259.8031,451.8827 L257.5496,453.2035 L255.0607,453.9443 L252.6687,454.9237 L250.2448,455.8247 L250.1379,455.5764 L247.8027,456.6801 L245.5962,458.083 L243.2076,459.0625 L240.7536,459.8904 L238.3902,460.9287 L238.3307,460.7985 L236.0073,461.9109 L233.5785,462.7928 L231.4394,464.3085 L229.1569,465.5105 L226.6777,466.2822 L226.78,466.4927 L224.5029,467.6818 L222.0317,468.4711 L219.7654,469.6824 L217.3634,470.6144 L215.1289,471.8911 L215.1868,472.0033 L212.9065,473.1626 L210.6961,474.4574 L208.2638,475.3226 L206.0105,476.5343 L203.7651,477.7614 L203.8601,477.9341 L201.6553,479.2099 L199.1925,480.0169 L197.0294,481.3685 L194.8715,482.7297 L192.6081,483.8991 L192.4707,483.6649 L190.5018,485.3167 L188.2945,486.5623 L186.0281,487.707 L183.897,489.0823 L181.6792,490.3099 L181.8511,490.5844 L179.4695,491.5301 L177.4818,493.1046 L175.3391,494.4316 L173.1632,495.7056 L171,497 L171.0377,497.05 L168.2072,499.1688 L165.1867,501.0355 L162.4233,503.2432 L159.584,505.3502 L156.8843,507.6424 L156.9039,507.6629 L154.3218,510.1539 L151.7547,512.6607 L149.0258,514.9986 L146.5049,517.5534 L143.936,520.0583 L143.8957,520.0232 L141.7972,522.9079 L139.4145,525.5454 L136.7764,527.9608 L134.5825,530.7625 L132.2747,533.4652 L132.0698,533.3108 L130.3261,536.2655 L128.3888,539.0742 L126.3152,541.7803 L123.9163,544.2414 L122.02,547.081 " fill="none" style="stroke: #A9A9A9; stroke-width: 2.0;"/><polygon fill="#A9A9A9" points="118.884,551.606,118.9204,551.6659,120.4951,550.4643,122.2832,549.6137,124.0018,548.6487,125.4919,547.3081,127.2983,546.4875,127.2937,546.462,126.1598,546.5494,125.0491,546.7653,123.9546,547.0706,122.8043,547.068,121.7322,547.4965,121.9138,547.5294,121.3237,546.3458,121.2637,545.2583,121.2685,544.1825,120.8969,543.0385,120.7232,541.9304,120.7455,541.9346,120.3449,543.8635,120.046,545.8117,119.698,547.7506,119.4436,549.7073,118.884,551.606" style="stroke: #A9A9A9; stroke-width: 2.0;"/><text fill="#A9A9A9" font-family="courier" font-size="20" lengthAdjust="spacingAndGlyphs" textLength="24" x="236" y="481.1074">in</text><!--link PrioritizeUseCases to SupplementaryRequirements--><path d="M529.836,412.985 L529.8729,413.0708 L526.1372,414.373 L522.6177,416.1782 L519.0278,417.8197 L515.2065,418.9223 L511.7055,420.7708 L511.6914,420.7393 L507.7577,422.3329 L503.8952,424.0855 L500.0822,425.9485 L496.0986,427.4309 L492.354,429.4464 L492.4587,429.6691 L488.1896,431.0946 L484.2262,433.1703 L480.3,435.3253 L476.1569,437.0188 L472.1278,438.955 L472.1413,438.9822 L467.9706,440.9992 L463.8613,443.14 L459.7224,445.221 L455.6398,447.4159 L451.3734,449.2396 L451.5104,449.5045 L449.4187,450.5909 L447.2385,451.5063 L445.1878,452.6719 L443.1431,453.8492 L440.9063,454.6552 L440.7553,454.3724 L438.9544,456.0388 L436.6565,456.7742 L434.7364,458.2174 L432.4272,458.9316 L430.437,460.2433 L430.4223,460.2167 L428.5106,461.6827 L426.2553,462.5259 L424.2027,463.7366 L422.1672,464.9781 L420.0088,465.9971 L420.1006,466.1577 L417.9392,467.178 L415.9347,468.4728 L413.6763,469.3235 L411.7965,470.8366 L409.665,471.9093 L409.7894,472.1188 L407.7227,473.2919 L405.7177,474.569 L403.4258,475.3627 L401.3443,476.5108 L399.449,477.9728 L399.3038,477.7378 L397.4262,479.192 L395.385,480.3815 L393.5812,481.955 L391.3721,482.8729 L389.4039,484.1805 L389.3212,484.0524 L387.4928,485.5347 L385.3109,486.4694 L383.3804,487.7935 L381.6957,489.4986 L379.5732,490.5252 L379.6816,490.6856 L377.8414,492.0906 L375.6638,492.9967 L373.9087,494.5276 L372.0616,495.9224 L370,497 L369.8747,496.8315 L366.813,499.3171 L363.7104,501.7476 L360.6883,504.2864 L357.3528,506.4038 L354.1924,508.7566 L354.322,508.9162 L352.4818,509.8297 L350.8919,511.0511 L349.6676,512.7224 L347.7701,513.5655 L346.4158,515.0768 L346.5626,515.2488 L344.9487,516.4493 L343.285,517.5916 L341.7335,518.8653 L340.4412,520.4428 L338.7821,521.5904 L338.6927,521.4918 L336.026,524.4461 L332.7512,526.7303 L330.1678,529.7763 L327.1951,532.3934 L324.1176,534.8949 L324.1934,534.9731 L321.4181,537.5438 L318.9142,540.3943 L316.1651,542.9921 L313.3135,545.4842 L310.547,548.064 " fill="none" style="stroke: #A9A9A9; stroke-width: 2.0;"/><polygon fill="#A9A9A9" points="306.709,551.93,306.7344,551.9953,308.4948,551.0875,310.4041,550.5625,312.265,549.9128,313.9664,548.8532,315.8885,548.3611,315.8884,548.3352,314.7566,548.223,313.6253,548.2415,312.4943,548.3507,311.3622,548.1471,310.2317,548.3816,310.4162,548.3823,310.0174,547.2495,310.1575,546.1187,310.3633,544.9881,310.1866,543.8561,310.2111,542.7248,310.2323,542.7329,309.5007,544.5621,308.8659,546.428,308.1843,548.2763,307.5919,550.1584,306.709,551.93" style="stroke: #A9A9A9; stroke-width: 2.0;"/><text fill="#A9A9A9" font-family="courier" font-size="20" lengthAdjust="spacingAndGlyphs" textLength="24" x="431" y="481.1074">in</text><!--link PrioritizeUseCases to Glossary--><path d="M563.034,427.139 L563.1076,427.1965 L557.5927,433.8107 L552.5094,440.7619 L547.2856,447.6034 L541.5995,454.084 L536.5532,461.0641 L536.471,461.0011 L530.5913,467.9053 L525.1262,475.1273 L519.9492,482.5704 L513.7791,489.2519 L509,497 L509.1972,497.1471 L503.866,503.4124 L499.1107,510.1072 L494.4255,516.8544 L489.3316,523.2967 L484.4528,529.8994 L484.4772,529.9173 L479.9137,536.0741 L475.4617,542.3125 L470.9559,548.5115 L466.5526,554.7857 L461.815,560.815 " fill="none" style="stroke: #A9A9A9; stroke-width: 2.0;"/><polygon fill="#A9A9A9" points="458.835,564.9156,458.8701,564.9763,460.4714,563.8105,462.2782,563.0003,464.0181,562.0743,465.538,560.7675,467.3625,559.9879,467.3584,559.9623,466.2228,560.0241,465.1075,560.215,464.0064,560.4955,462.8565,560.467,461.775,560.8713,461.9573,560.9001,461.3908,559.721,461.3565,558.626,461.3872,557.5413,461.04,556.3969,460.8916,555.2839,460.9138,555.2886,460.4698,557.208,460.1271,559.149,459.7356,561.0795,459.4372,563.03,458.835,564.9156" style="stroke: #A9A9A9; stroke-width: 2.0;"/><text fill="#A9A9A9" font-family="courier" font-size="20" lengthAdjust="spacingAndGlyphs" textLength="24" x="539" y="481.1074">in</text><!--link PrioritizeUseCases to ArchitectureDescription--><path d="M595.735,427.14 L596.015,427.1524 L595.6253,437.0889 L596.8768,447.0982 L597.5939,457.0839 L596.5534,466.9915 L597.8423,477.0025 L597.8199,486.9553 L598.3193,496.9313 L599.1815,506.9233 L598.7936,516.8599 L600.8941,526.9069 L599.7593,536.8104 L601.041,546.821 " fill="none" style="stroke: #A9A9A9; stroke-width: 2.0;"/><polygon fill="#A9A9A9" points="601.27,551.98,601.3352,552.0056,601.8609,550.0959,602.769,548.3362,603.5526,546.5277,603.9267,544.5585,604.8676,542.8117,604.8484,542.7942,603.9989,543.5504,603.2457,544.3947,602.5594,545.3003,601.6424,545.9947,601.0486,546.9849,601.1732,547.121,600.0721,546.0661,599.3348,545.4087,598.6419,544.7998,597.6907,543.9086,596.8754,543.1659,596.8958,543.1761,597.7448,544.924,598.6865,546.7181,599.5835,548.4899,600.5658,550.3043,601.27,551.98" style="stroke: #A9A9A9; stroke-width: 2.0;"/><text fill="#A9A9A9" font-family="courier" font-size="20" lengthAdjust="spacingAndGlyphs" textLength="36" x="601" y="481.1074">out</text><!--link PrioritizeUseCases to Architect--><path d="M633.14,427.14 L633.3382,427.3382 L639.7995,433.7995 L647.4225,441.4225 L654.6673,448.6673 L660.668,454.668 L668.3175,462.3175 L675.0388,469.0388 L682.1295,476.1295 L689.477,483.477 L695.9396,489.9396 L704.1636,498.1636 L710.0975,504.0975 L717.5554,511.5554 L725.1993,519.1993 L731.7613,525.7613 L738.9567,532.9567 L745.9124,539.9124 L753.161,547.161 L760.2683,554.2683 L767.093,561.093 " fill="none" style="stroke: #A9A9A9; stroke-width: 2.0;"/><polygon fill="#A9A9A9" points="770.877,564.8769,770.9424,564.9021,770.041,562.9888,769.5229,561.2231,768.88,559.4093,767.8266,557.4376,767.3415,555.6845,767.3156,555.6845,767.1993,556.8159,767.2136,557.9473,767.3187,559.0786,767.111,560.21,767.3415,561.3414,767.3415,561.5259,766.2101,561.1313,765.0787,561.2754,763.9474,561.4853,762.816,561.3128,761.6846,561.3414,761.6928,561.3626,763.5193,562.0385,765.3829,562.8111,767.2287,563.5371,769.1086,564.352,770.877,564.8769" style="stroke: #A9A9A9; stroke-width: 2.0;"/><!--link Role to RequirementsRole--><path d="M794.935,292.956 L795.2112,293.0037 L796.251,303.6368 L798.9098,314.5494 L801.0413,325.3711 L801.4393,335.8934 L804.237,346.83 " fill="none" style="stroke: #A9A9A9; stroke-width: 2.0;"/><polygon fill="none" points="788.019,294.044,788.0881,294.0556,788.5818,289.8414,789.4805,285.695,790.2474,281.5266,790.5805,277.2856,791.514,273.145,791.4914,273.1324,793.45,276.7793,795.5227,280.4897,797.6747,284.2442,799.5534,287.8466,801.815,291.662,801.8464,291.8439,799.0201,291.9314,796.2854,292.5498,793.5619,293.2331,790.7733,293.5394,788.019,294.044" style="stroke: #A9A9A9; stroke-width: 2.0;"/><!--link RequirementsRole to Architect--><path d="M806.912,447.282 L807.1916,447.3013 L805.685,457.0436 L805.8174,466.8989 L805.4161,476.7174 L803.2597,486.4149 L803.4295,496.2727 L802.2897,506.0403 L801.671,515.8438 L801.4147,525.6723 L799.9099,535.4148 L800.8901,545.3285 L798.6394,555.0195 L798.802,564.8769 " fill="none" style="stroke: #A9A9A9; stroke-width: 2.0;"/><polygon fill="none" points="799.941,446.611,800.0054,446.6386,801.4861,442.6623,803.3442,438.848,805.0794,434.981,806.4105,430.9404,808.301,427.14,808.276,427.1331,809.2853,431.1894,810.4205,435.2802,811.6433,439.395,812.5644,443.427,813.908,447.575,813.9207,447.7591,811.1001,447.1726,808.3167,447.1236,805.5377,447.1402,802.7324,446.7753,799.941,446.611" style="stroke: #A9A9A9; stroke-width: 2.0;"/><!--
@startuml

skinparam backgroundColor #222222

skinparam default {
    FontSize 20
    FontName courier
    FontStyle normal
    FontColor #DarkGrey
}
skinparam handwritten true

skinparam shadowing false
skinparam padding 1
skinparam arrow {
    Thickness 2
    Color #DarkGrey
    FontSize 20
    FontName courier
    FontStyle normal
    FontColor #DarkGrey
}

skinparam title {
    BorderThickness 5
    BorderColor #orange
    FontSize 30
    FontName arial
    FontStyle bold
    FontColor #orange
 }

skinparam header {
    FontSize 15
    FontName courier
    FontStyle italic
    FontColor #orange
}

skinparam footer {
    FontSize 15
    FontName courier
    FontStyle italic
    FontColor #orange
}

skinparam legend {
    BorderThickness 1
    BorderColor #orange
    backgroundColor #222222
    FontSize 15
    FontName courier
    FontStyle italic
    FontColor #orange
}

skinparam package {
    BorderThickness 3
    BorderColor #DarkGrey
    BackgroundColor #222222
    FontSize 20
    FontName courier
    FontStyle bold
}

skinparam class {
    BorderThickness 3
    BorderColor #DarkGrey
    BackgroundColor #222222
    FontSize 20
    FontName courier
    FontStyle bold
    FontColor #DarkGrey
}

skinparam classAttribute {
    FontSize 15
    FontName courier
    FontStyle normal
    FontColor #DarkGrey
}

hide circle
hide stereotype

skinparam class {
    BorderColor<<artifacts>> #DC143C
    BorderColor<<activities>> #228B22
    BorderColor<<team>> #1E90FF
    FontColor<<artifacts>> #DC143C
    FontColor<<activities>> #228B22
    FontColor<<team>> #1E90FF
}

skinparam package {
    BorderColor<<artifacts>> #DC143C
    BorderColor<<activities>> #228B22
    BorderColor<<team>> #1E90FF
    FontColor<<artifacts>> #DC143C
    FontColor<<activities>> #228B22
    FontColor<<team>> #1E90FF
}

skinparam classAttribute {
    FontColor<<artifacts>> #DC143C
    FontColor<<activities>> #228B22
    FontColor<<team>> #1E90FF
}

package activities <<activities>> {
   class Activity <<activities>>
   class RequirementsActivity as "Requirements\nActivity" <<activities>>
   class "Prioritize\nUse cases" as PrioritizeUseCases <<activities>>
}

package Artifacts <<artifacts>> {
    class "Use Case \nModel" as UseCaseModel <<artifacts>>
    class "Supplementary\nRequirements" as SupplementaryRequirements <<artifacts>>
    class Glossary <<artifacts>>
   class "Architecture\nDescription" as ArchitectureDescription <<artifacts>>
}

package team <<team>> {
  class Role <<team>>
  class "Requirements\nRole" as  RequirementsRole <<team>>
  class Architect <<team>>
}


Activity <|- - RequirementsActivity
Activity - -> Role


RequirementsActivity - -> RequirementsRole

RequirementsActivity <|- - PrioritizeUseCases

PrioritizeUseCases - -> UseCaseModel :in
PrioritizeUseCases - -> SupplementaryRequirements :in
PrioritizeUseCases - -> Glossary :in
PrioritizeUseCases - -> ArchitectureDescription :out

PrioritizeUseCases - -> Architect

Role <|- - RequirementsRole
RequirementsRole <|- - Architect
@enduml

PlantUML version 1.2019.05(Sat Apr 20 18:45:36 CEST 2019)
(GPL source distribution)
Java Runtime: Java(TM) SE Runtime Environment
JVM: Java HotSpot(TM) 64-Bit Server VM
Java Version: 11.0.8+10-LTS
Operating System: Windows 10
OS Version: 10.0
Default Encoding: windows-1252
Language: es
Country: ES
--></g></svg>