<?xml version="1.0" encoding="UTF-8" standalone="no"?><svg xmlns="http://www.w3.org/2000/svg" xmlns:xlink="http://www.w3.org/1999/xlink" contentScriptType="application/ecmascript" contentStyleType="text/css" height="723px" preserveAspectRatio="none" style="width:1721px;height:723px;background:#222222;" version="1.1" viewBox="0 0 1721 723" width="1721px" zoomAndPan="magnify"><defs/><g><!--class ConcreteObserverA--><polygon fill="#222222" points="692.65,437,692.65,437.2102,702.7452,436.5857,712.8405,437.1933,722.9357,437.3997,733.031,436.2866,743.1262,436.9223,753.2214,436.5735,763.3167,436.6165,773.4119,436.9318,783.5071,436.3086,793.6024,437.5536,803.6976,436.3697,813.7929,436.8022,823.8881,437.4319,833.9833,436.9142,844.0786,437.0682,854.1738,436.9681,864.269,437.1785,874.3643,437.2391,884.4595,437.5857,894.5548,437.6711,904.65,437,905.3293,437,904.9046,446.7283,905.1136,456.4566,905.3522,466.185,903.9288,475.9133,905.3285,485.6416,904.3535,495.3699,905.1838,505.0982,904.155,514.8266,904.5815,524.5549,904.65,534.2832,904.65,535.0248,894.5548,534.2345,884.4595,534.3885,874.3643,534.6218,864.269,534.6994,854.1738,534.2793,844.0786,534.5704,833.9833,533.7108,823.8881,534.5676,813.7929,534.8314,803.6976,534.7277,793.6024,534.8962,783.5071,533.8001,773.4119,533.631,763.3167,533.6618,753.2214,534.2243,743.1262,534.0867,733.031,534.9646,722.9357,534.1085,712.8405,533.9401,702.7452,534.5115,692.65,534.2832,691.9832,534.2832,692.1309,524.5549,693.299,514.8266,693.0857,505.0982,693.3845,495.3699,692.3282,485.6416,692.9692,475.9133,693.2404,466.185,692.1776,456.4566,692.5541,446.7283,692.65,437" style="stroke: #FF69B4; stroke-width: 3.0;"/><text fill="#FF69B4" font-family="courier" font-size="20" font-weight="bold" lengthAdjust="spacingAndGlyphs" textLength="204" x="696.65" y="463.1074">ConcreteObserverA</text><path d="M693.65,475.1133 L693.65,475.3935 L703.65,474.5609 L713.65,475.371 L723.65,475.6462 L733.65,474.1621 L743.65,475.0097 L753.65,474.5446 L763.65,474.6019 L773.65,475.0224 L783.65,474.1915 L793.65,475.8515 L803.65,474.2729 L813.65,474.8496 L823.65,475.6892 L833.65,474.9989 L843.65,475.2043 L853.65,475.0707 L863.65,475.3513 L873.65,475.4321 L883.65,475.8942 L893.65,476.008 L903.65,475.1133 " fill="#222222" style="stroke: #FF69B4; stroke-width: 3.0;"/><polygon fill="none" points="706.6666,492.1355,706.2268,492.7363,705.7067,493.6164,704.9628,494.2095,704.1811,494.5338,703.5578,494.562,702.7567,494.1564,702.0009,493.8914,701.4271,493.3534,701.1262,492.7374,700.9477,492.247,700.7729,491.6064,700.4891,491.0552,700.7072,490.5169,700.8982,489.9274,701.6153,489.4611,702.1197,488.8561,702.7441,488.6552,703.4864,488.4821,704.4383,488.5849,704.9597,488.8308,705.5658,488.9423,706.3029,489.6974,706.5598,490.4946,706.6714,491.0385,706.545,491.9348" style="stroke: #038048; stroke-width: 1.0;"/><text fill="#A9A9A9" font-family="courier" font-size="15" lengthAdjust="spacingAndGlyphs" textLength="126" x="713.65" y="495.1938">observerStateA</text><path d="M693.65,504.6982 L693.65,504.9785 L703.65,504.1458 L713.65,504.956 L723.65,505.2311 L733.65,503.747 L743.65,504.5946 L753.65,504.1296 L763.65,504.1869 L773.65,504.6074 L783.65,503.7764 L793.65,505.4364 L803.65,503.8579 L813.65,504.4346 L823.65,505.2742 L833.65,504.5839 L843.65,504.7892 L853.65,504.6556 L863.65,504.9363 L873.65,505.0171 L883.65,505.4792 L893.65,505.593 L903.65,504.6982 " fill="#222222" style="stroke: #FF69B4; stroke-width: 3.0;"/><polygon fill="#84BE84" points="706.6666,521.7204,706.2268,522.3213,705.7067,523.2014,704.9628,523.7945,704.1811,524.1188,703.5578,524.1469,702.7567,523.7413,702.0009,523.4763,701.4271,522.9383,701.1262,522.3224,700.9477,521.832,700.7729,521.1914,700.4891,520.6401,700.7072,520.1019,700.8982,519.5123,701.6153,519.046,702.1197,518.441,702.7441,518.2401,703.4864,518.0671,704.4383,518.1699,704.9597,518.4158,705.5658,518.5272,706.3029,519.2824,706.5598,520.0795,706.6714,520.6235,706.545,521.5198" style="stroke: #038048; stroke-width: 1.0;"/><text fill="#A9A9A9" font-family="courier" font-size="15" lengthAdjust="spacingAndGlyphs" textLength="72" x="713.65" y="524.7788">update()</text><path d="M692.15,608.5 L692.15,698.8398 A0,0 0 0 0 692.15,698.8398 L1183.15,698.8398 A0,0 0 0 0 1183.15,698.8398 L1183.15,618.5 L1173.15,608.5 L904.67,608.5 L838.48,534.07 L896.67,608.5 L692.15,608.5 A0,0 0 0 0 692.15,608.5 " fill="#222222" style="stroke: #A9A9A9; stroke-width: 3.0;"/><path d="M1173.15,608.5 L1173.3368,608.5 L1172.7817,610.5 L1173.3218,612.5 L1173.5053,614.5 L1172.5159,616.5 L1173.15,618.5 L1173.15,618.4309 L1175.15,618.1209 L1177.15,618.1591 L1179.15,618.4394 L1181.15,617.8854 L1183.15,618.5 L1183.498,618.848 L1180.7538,616.1038 L1179.0257,614.3757 L1177.4215,612.7715 L1175.0961,610.4461 L1173.15,608.5 " fill="#222222" style="stroke: #A9A9A9; stroke-width: 3.0;"/><text fill="#A9A9A9" font-family="courier" font-size="20" lengthAdjust="spacingAndGlyphs" textLength="204" x="699.15" y="634.6074">public update() {</text><text fill="#A9A9A9" font-family="courier" font-size="20" lengthAdjust="spacingAndGlyphs" textLength="444" x="723.15" y="660.7207">observerStateA = subject.getStateA();</text><text fill="#A9A9A9" font-family="courier" font-size="20" lengthAdjust="spacingAndGlyphs" textLength="12" x="699.15" y="686.834">}</text><!--class ConcreteObserverB--><polygon fill="#222222" points="939.65,437,939.65,437.2102,949.7452,436.5857,959.8405,437.1933,969.9357,437.3997,980.031,436.2866,990.1262,436.9223,1000.2214,436.5735,1010.3167,436.6165,1020.4119,436.9318,1030.5071,436.3086,1040.6024,437.5536,1050.6976,436.3697,1060.7929,436.8022,1070.8881,437.4319,1080.9833,436.9142,1091.0786,437.0682,1101.1738,436.9681,1111.269,437.1785,1121.3643,437.2391,1131.4595,437.5857,1141.5548,437.6711,1151.65,437,1152.3293,437,1151.9046,446.7283,1152.1136,456.4566,1152.3522,466.185,1150.9288,475.9133,1152.3285,485.6416,1151.3535,495.3699,1152.1838,505.0982,1151.155,514.8266,1151.5815,524.5549,1151.65,534.2832,1151.65,535.0248,1141.5548,534.2345,1131.4595,534.3885,1121.3643,534.6218,1111.269,534.6994,1101.1738,534.2793,1091.0786,534.5704,1080.9833,533.7108,1070.8881,534.5676,1060.7929,534.8314,1050.6976,534.7277,1040.6024,534.8962,1030.5071,533.8001,1020.4119,533.631,1010.3167,533.6618,1000.2214,534.2243,990.1262,534.0867,980.031,534.9646,969.9357,534.1085,959.8405,533.9401,949.7452,534.5115,939.65,534.2832,938.9832,534.2832,939.1309,524.5549,940.299,514.8266,940.0857,505.0982,940.3845,495.3699,939.3282,485.6416,939.9692,475.9133,940.2404,466.185,939.1776,456.4566,939.5541,446.7283,939.65,437" style="stroke: #FF69B4; stroke-width: 3.0;"/><text fill="#FF69B4" font-family="courier" font-size="20" font-weight="bold" lengthAdjust="spacingAndGlyphs" textLength="204" x="943.65" y="463.1074">ConcreteObserverB</text><path d="M940.65,475.1133 L940.65,475.3935 L950.65,474.5609 L960.65,475.371 L970.65,475.6462 L980.65,474.1621 L990.65,475.0097 L1000.65,474.5446 L1010.65,474.6019 L1020.65,475.0224 L1030.65,474.1915 L1040.65,475.8515 L1050.65,474.2729 L1060.65,474.8496 L1070.65,475.6892 L1080.65,474.9989 L1090.65,475.2043 L1100.65,475.0707 L1110.65,475.3513 L1120.65,475.4321 L1130.65,475.8942 L1140.65,476.008 L1150.65,475.1133 " fill="#222222" style="stroke: #FF69B4; stroke-width: 3.0;"/><polygon fill="none" points="953.6666,492.1355,953.2268,492.7363,952.7067,493.6164,951.9628,494.2095,951.1811,494.5338,950.5578,494.562,949.7567,494.1564,949.0009,493.8914,948.4271,493.3534,948.1262,492.7374,947.9477,492.247,947.7729,491.6064,947.4891,491.0552,947.7072,490.5169,947.8982,489.9274,948.6153,489.4611,949.1197,488.8561,949.7441,488.6552,950.4864,488.4821,951.4383,488.5849,951.9597,488.8308,952.5658,488.9423,953.3029,489.6974,953.5598,490.4946,953.6714,491.0385,953.545,491.9348" style="stroke: #038048; stroke-width: 1.0;"/><text fill="#A9A9A9" font-family="courier" font-size="15" lengthAdjust="spacingAndGlyphs" textLength="126" x="960.65" y="495.1938">observerStateB</text><path d="M940.65,504.6982 L940.65,504.9785 L950.65,504.1458 L960.65,504.956 L970.65,505.2311 L980.65,503.747 L990.65,504.5946 L1000.65,504.1296 L1010.65,504.1869 L1020.65,504.6074 L1030.65,503.7764 L1040.65,505.4364 L1050.65,503.8579 L1060.65,504.4346 L1070.65,505.2742 L1080.65,504.5839 L1090.65,504.7892 L1100.65,504.6556 L1110.65,504.9363 L1120.65,505.0171 L1130.65,505.4792 L1140.65,505.593 L1150.65,504.6982 " fill="#222222" style="stroke: #FF69B4; stroke-width: 3.0;"/><polygon fill="#84BE84" points="953.6666,521.7204,953.2268,522.3213,952.7067,523.2014,951.9628,523.7945,951.1811,524.1188,950.5578,524.1469,949.7567,523.7413,949.0009,523.4763,948.4271,522.9383,948.1262,522.3224,947.9477,521.832,947.7729,521.1914,947.4891,520.6401,947.7072,520.1019,947.8982,519.5123,948.6153,519.046,949.1197,518.441,949.7441,518.2401,950.4864,518.0671,951.4383,518.1699,951.9597,518.4158,952.5658,518.5272,953.3029,519.2824,953.5598,520.0795,953.6714,520.6235,953.545,521.5198" style="stroke: #038048; stroke-width: 1.0;"/><text fill="#A9A9A9" font-family="courier" font-size="15" lengthAdjust="spacingAndGlyphs" textLength="72" x="960.65" y="524.7788">update()</text><path d="M1218.15,608.5 L1218.15,698.8398 A0,0 0 0 0 1218.15,698.8398 L1709.15,698.8398 A0,0 0 0 0 1709.15,698.8398 L1709.15,618.5 L1699.15,608.5 L1356.63,608.5 L1151.66,528.6 L1348.63,608.5 L1218.15,608.5 A0,0 0 0 0 1218.15,608.5 " fill="#222222" style="stroke: #A9A9A9; stroke-width: 3.0;"/><path d="M1699.15,608.5 L1699.3368,608.5 L1698.7817,610.5 L1699.3218,612.5 L1699.5053,614.5 L1698.5159,616.5 L1699.15,618.5 L1699.15,618.4309 L1701.15,618.1209 L1703.15,618.1591 L1705.15,618.4394 L1707.15,617.8854 L1709.15,618.5 L1709.498,618.848 L1706.7538,616.1038 L1705.0257,614.3757 L1703.4215,612.7715 L1701.0961,610.4461 L1699.15,608.5 " fill="#222222" style="stroke: #A9A9A9; stroke-width: 3.0;"/><text fill="#A9A9A9" font-family="courier" font-size="20" lengthAdjust="spacingAndGlyphs" textLength="204" x="1225.15" y="634.6074">public update() {</text><text fill="#A9A9A9" font-family="courier" font-size="20" lengthAdjust="spacingAndGlyphs" textLength="444" x="1249.15" y="660.7207">observerStateB = subject.getStateB();</text><text fill="#A9A9A9" font-family="courier" font-size="20" lengthAdjust="spacingAndGlyphs" textLength="12" x="1225.15" y="686.834">}</text><!--class ConcreteSubjectB--><polygon fill="#222222" points="200.65,594,200.65,594.2102,210.65,593.5857,220.65,594.1933,230.65,594.3997,240.65,593.2866,250.65,593.9223,260.65,593.5735,270.65,593.6165,280.65,593.9318,290.65,593.3086,300.65,594.5536,310.65,593.3697,320.65,593.8022,330.65,594.4319,340.65,593.9142,350.65,594.0682,360.65,593.9681,370.65,594.1785,380.65,594.2391,390.65,594.5857,400.65,594,401.3211,594,401.3293,603.9057,400.9046,613.8114,401.1136,623.717,401.3522,633.6227,399.9288,643.5284,401.3285,653.4341,400.3535,663.3398,401.1838,673.2454,400.155,683.1511,400.5815,693.0568,401.3916,702.9625,400.65,712.8682,400.65,712.8194,390.65,712.9735,380.65,713.2068,370.65,713.2844,360.65,712.8643,350.65,713.1554,340.65,712.2957,330.65,713.1526,320.65,713.4164,310.65,713.3127,300.65,713.4812,290.65,712.3851,280.65,712.216,270.65,712.2468,260.65,712.8093,250.65,712.6716,240.65,713.5496,230.65,712.6935,220.65,712.5251,210.65,713.0964,200.65,712.8682,199.9832,712.8682,200.1309,702.9625,201.299,693.0568,201.0857,683.1511,201.3845,673.2454,200.3282,663.3398,200.9692,653.4341,201.2404,643.5284,200.1776,633.6227,200.5541,623.717,200.776,613.8114,201.3018,603.9057,200.65,594" style="stroke: #FF69B4; stroke-width: 3.0;"/><text fill="#FF69B4" font-family="courier" font-size="20" font-weight="bold" lengthAdjust="spacingAndGlyphs" textLength="192" x="204.65" y="620.1074">ConcreteSubjectB</text><path d="M201.65,632.1133 L201.65,632.3935 L211.55,631.5609 L221.45,632.371 L231.35,632.6462 L241.25,631.1621 L251.15,632.0097 L261.05,631.5446 L270.95,631.6019 L280.85,632.0224 L290.75,631.1915 L300.65,632.8515 L310.55,631.2729 L320.45,631.8496 L330.35,632.6892 L340.25,631.9989 L350.15,632.2043 L360.05,632.0707 L369.95,632.3513 L379.85,632.4321 L389.75,632.8942 L399.65,632.1133 " fill="#222222" style="stroke: #FF69B4; stroke-width: 3.0;"/><polygon fill="none" points="214.6666,649.1355,214.2268,649.7363,213.7067,650.6164,212.9628,651.2095,212.1811,651.5338,211.5578,651.562,210.7567,651.1564,210.0009,650.8914,209.4271,650.3534,209.1262,649.7374,208.9477,649.247,208.7729,648.6064,208.4891,648.0552,208.7072,647.5169,208.8982,646.9274,209.6153,646.4611,210.1197,645.8561,210.7441,645.6552,211.4864,645.4821,212.4383,645.5849,212.9597,645.8308,213.5658,645.9423,214.3029,646.6974,214.5598,647.4946,214.6714,648.0385,214.545,648.9348" style="stroke: #038048; stroke-width: 1.0;"/><text fill="#A9A9A9" font-family="courier" font-size="15" lengthAdjust="spacingAndGlyphs" textLength="117" x="221.65" y="652.1938">subjectStateA</text><path d="M201.65,661.6982 L201.65,661.9785 L211.55,661.1458 L221.45,661.956 L231.35,662.2311 L241.25,660.747 L251.15,661.5946 L261.05,661.1296 L270.95,661.1869 L280.85,661.6074 L290.75,660.7764 L300.65,662.4364 L310.55,660.8579 L320.45,661.4346 L330.35,662.2742 L340.25,661.5839 L350.15,661.7892 L360.05,661.6556 L369.95,661.9363 L379.85,662.0171 L389.75,662.4792 L399.65,661.6982 " fill="#222222" style="stroke: #FF69B4; stroke-width: 3.0;"/><polygon fill="#84BE84" points="214.6666,678.7204,214.2268,679.3213,213.7067,680.2014,212.9628,680.7945,212.1811,681.1188,211.5578,681.1469,210.7567,680.7413,210.0009,680.4763,209.4271,679.9383,209.1262,679.3224,208.9477,678.832,208.7729,678.1914,208.4891,677.6401,208.7072,677.1019,208.8982,676.5123,209.6153,676.046,210.1197,675.441,210.7441,675.2401,211.4864,675.0671,212.4383,675.1699,212.9597,675.4158,213.5658,675.5272,214.3029,676.2824,214.5598,677.0795,214.6714,677.6235,214.545,678.5198" style="stroke: #038048; stroke-width: 1.0;"/><text fill="#A9A9A9" font-family="courier" font-size="15" lengthAdjust="spacingAndGlyphs" textLength="99" x="221.65" y="681.7788">getStateA()</text><polygon fill="#84BE84" points="214.6666,700.3054,214.2268,700.9063,213.7067,701.7863,212.9628,702.3794,212.1811,702.7038,211.5578,702.7319,210.7567,702.3263,210.0009,702.0613,209.4271,701.5233,209.1262,700.9073,208.9477,700.4169,208.7729,699.7763,208.4891,699.2251,208.7072,698.6869,208.8982,698.0973,209.6153,697.631,210.1197,697.026,210.7441,696.8251,211.4864,696.6521,212.4383,696.7549,212.9597,697.0007,213.5658,697.1122,214.3029,697.8673,214.5598,698.6645,214.6714,699.2084,214.545,700.1047" style="stroke: #038048; stroke-width: 1.0;"/><text fill="#A9A9A9" font-family="courier" font-size="15" lengthAdjust="spacingAndGlyphs" textLength="99" x="221.65" y="703.3638">setStateA()</text><!--class ConcreteSubjectA--><polygon fill="#222222" points="435.65,594,435.65,594.2102,445.65,593.5857,455.65,594.1933,465.65,594.3997,475.65,593.2866,485.65,593.9223,495.65,593.5735,505.65,593.6165,515.65,593.9318,525.65,593.3086,535.65,594.5536,545.65,593.3697,555.65,593.8022,565.65,594.4319,575.65,593.9142,585.65,594.0682,595.65,593.9681,605.65,594.1785,615.65,594.2391,625.65,594.5857,635.65,594,636.3211,594,636.3293,603.9057,635.9046,613.8114,636.1136,623.717,636.3522,633.6227,634.9288,643.5284,636.3285,653.4341,635.3535,663.3398,636.1838,673.2454,635.155,683.1511,635.5815,693.0568,636.3916,702.9625,635.65,712.8682,635.65,712.8194,625.65,712.9735,615.65,713.2068,605.65,713.2844,595.65,712.8643,585.65,713.1554,575.65,712.2957,565.65,713.1526,555.65,713.4164,545.65,713.3127,535.65,713.4812,525.65,712.3851,515.65,712.216,505.65,712.2468,495.65,712.8093,485.65,712.6716,475.65,713.5496,465.65,712.6935,455.65,712.5251,445.65,713.0964,435.65,712.8682,434.9832,712.8682,435.1309,702.9625,436.299,693.0568,436.0857,683.1511,436.3845,673.2454,435.3282,663.3398,435.9692,653.4341,436.2404,643.5284,435.1776,633.6227,435.5541,623.717,435.776,613.8114,436.3018,603.9057,435.65,594" style="stroke: #FF69B4; stroke-width: 3.0;"/><text fill="#FF69B4" font-family="courier" font-size="20" font-weight="bold" lengthAdjust="spacingAndGlyphs" textLength="192" x="439.65" y="620.1074">ConcreteSubjectA</text><path d="M436.65,632.1133 L436.65,632.3935 L446.55,631.5609 L456.45,632.371 L466.35,632.6462 L476.25,631.1621 L486.15,632.0097 L496.05,631.5446 L505.95,631.6019 L515.85,632.0224 L525.75,631.1915 L535.65,632.8515 L545.55,631.2729 L555.45,631.8496 L565.35,632.6892 L575.25,631.9989 L585.15,632.2043 L595.05,632.0707 L604.95,632.3513 L614.85,632.4321 L624.75,632.8942 L634.65,632.1133 " fill="#222222" style="stroke: #FF69B4; stroke-width: 3.0;"/><polygon fill="none" points="449.6666,649.1355,449.2268,649.7363,448.7067,650.6164,447.9628,651.2095,447.1811,651.5338,446.5578,651.562,445.7567,651.1564,445.0009,650.8914,444.4271,650.3534,444.1262,649.7374,443.9477,649.247,443.7729,648.6064,443.4891,648.0552,443.7072,647.5169,443.8982,646.9274,444.6153,646.4611,445.1197,645.8561,445.7441,645.6552,446.4864,645.4821,447.4383,645.5849,447.9597,645.8308,448.5658,645.9423,449.3029,646.6974,449.5598,647.4946,449.6714,648.0385,449.545,648.9348" style="stroke: #038048; stroke-width: 1.0;"/><text fill="#A9A9A9" font-family="courier" font-size="15" lengthAdjust="spacingAndGlyphs" textLength="117" x="456.65" y="652.1938">subjectStateA</text><path d="M436.65,661.6982 L436.65,661.9785 L446.55,661.1458 L456.45,661.956 L466.35,662.2311 L476.25,660.747 L486.15,661.5946 L496.05,661.1296 L505.95,661.1869 L515.85,661.6074 L525.75,660.7764 L535.65,662.4364 L545.55,660.8579 L555.45,661.4346 L565.35,662.2742 L575.25,661.5839 L585.15,661.7892 L595.05,661.6556 L604.95,661.9363 L614.85,662.0171 L624.75,662.4792 L634.65,661.6982 " fill="#222222" style="stroke: #FF69B4; stroke-width: 3.0;"/><polygon fill="#84BE84" points="449.6666,678.7204,449.2268,679.3213,448.7067,680.2014,447.9628,680.7945,447.1811,681.1188,446.5578,681.1469,445.7567,680.7413,445.0009,680.4763,444.4271,679.9383,444.1262,679.3224,443.9477,678.832,443.7729,678.1914,443.4891,677.6401,443.7072,677.1019,443.8982,676.5123,444.6153,676.046,445.1197,675.441,445.7441,675.2401,446.4864,675.0671,447.4383,675.1699,447.9597,675.4158,448.5658,675.5272,449.3029,676.2824,449.5598,677.0795,449.6714,677.6235,449.545,678.5198" style="stroke: #038048; stroke-width: 1.0;"/><text fill="#A9A9A9" font-family="courier" font-size="15" lengthAdjust="spacingAndGlyphs" textLength="99" x="456.65" y="681.7788">getStateA()</text><polygon fill="#84BE84" points="449.6666,700.3054,449.2268,700.9063,448.7067,701.7863,447.9628,702.3794,447.1811,702.7038,446.5578,702.7319,445.7567,702.3263,445.0009,702.0613,444.4271,701.5233,444.1262,700.9073,443.9477,700.4169,443.7729,699.7763,443.4891,699.2251,443.7072,698.6869,443.8982,698.0973,444.6153,697.631,445.1197,697.026,445.7441,696.8251,446.4864,696.6521,447.4383,696.7549,447.9597,697.0007,448.5658,697.1122,449.3029,697.8673,449.5598,698.6645,449.6714,699.2084,449.545,700.1047" style="stroke: #038048; stroke-width: 1.0;"/><text fill="#A9A9A9" font-family="courier" font-size="15" lengthAdjust="spacingAndGlyphs" textLength="99" x="456.65" y="703.3638">setStateA()</text><!--class Scenario--><polygon fill="#222222" points="723.65,8,723.65,8.2102,734.05,7.5857,744.45,8.1933,754.85,8.3997,765.25,7.2866,775.65,7.9223,786.05,7.5735,796.45,7.6165,806.85,7.9318,817.25,7.3086,827.65,8,828.2036,8,827.0197,17.4623,827.4522,26.9246,828.0819,36.3868,827.5642,45.8491,827.7182,55.3114,827.6181,64.7737,827.8285,74.236,827.65,83.6982,827.65,83.9374,817.25,84.2839,806.85,84.3693,796.45,84.3775,786.05,83.9529,775.65,84.1618,765.25,84.4005,754.85,82.9771,744.45,84.3768,734.05,83.4017,723.65,83.6982,724.1838,83.6982,723.155,74.236,723.5815,64.7737,724.3916,55.3114,723.6013,45.8491,723.7553,36.3868,723.9886,26.9246,724.0662,17.4623,723.65,8" style="stroke: #FF69B4; stroke-width: 3.0;"/><text fill="#FF69B4" font-family="courier" font-size="20" font-weight="bold" lengthAdjust="spacingAndGlyphs" textLength="96" x="727.65" y="34.1074">Scenario</text><path d="M724.65,46.1133 L724.65,46.3935 L734.85,45.5609 L745.05,46.371 L755.25,46.6462 L765.45,45.1621 L775.65,46.0097 L785.85,45.5446 L796.05,45.6019 L806.25,46.0224 L816.45,45.1915 L826.65,46.1133 " fill="#222222" style="stroke: #FF69B4; stroke-width: 3.0;"/><path d="M724.65,54.1133 L724.65,54.3935 L734.85,53.5609 L745.05,54.371 L755.25,54.6462 L765.45,53.1621 L775.65,54.0097 L785.85,53.5446 L796.05,53.6019 L806.25,54.0224 L816.45,53.1915 L826.65,54.1133 " fill="#222222" style="stroke: #FF69B4; stroke-width: 3.0;"/><polygon fill="#84BE84" points="737.6666,71.1355,737.2268,71.7363,736.7067,72.6164,735.9628,73.2095,735.1811,73.5338,734.5578,73.562,733.7567,73.1564,733.0009,72.8914,732.4271,72.3534,732.1262,71.7374,731.9477,71.247,731.7729,70.6064,731.4891,70.0552,731.7072,69.5169,731.8982,68.9274,732.6153,68.4611,733.1197,67.8561,733.7441,67.6552,734.4864,67.4821,735.4383,67.5849,735.9597,67.8308,736.5658,67.9423,737.3029,68.6974,737.5598,69.4946,737.6714,70.0385,737.545,70.9348" style="stroke: #038048; stroke-width: 1.0;"/><text fill="#A9A9A9" font-family="courier" font-size="15" lengthAdjust="spacingAndGlyphs" textLength="54" x="744.65" y="74.1938">main()</text><!--class Director--><polygon fill="#222222" points="828.65,144,828.65,144.2102,839.05,143.5857,849.45,144.1933,859.85,144.3997,870.25,143.2866,880.65,143.9223,891.05,143.5735,901.45,143.6165,911.85,143.9318,922.25,143.3086,932.65,144,933.2036,144,932.0197,154.8227,932.4522,165.6453,933.0819,176.468,932.5642,187.2906,932.65,198.1133,932.65,198.1815,922.25,198.0813,911.85,198.2918,901.45,198.3524,891.05,198.699,880.65,198.7843,870.25,198.7925,859.85,198.3679,849.45,198.5769,839.05,198.8155,828.65,198.1133,827.9288,198.1133,829.3285,187.2906,828.3535,176.468,829.1838,165.6453,828.155,154.8227,828.65,144" style="stroke: #FF69B4; stroke-width: 3.0;"/><text fill="#FF69B4" font-family="courier" font-size="20" font-weight="bold" lengthAdjust="spacingAndGlyphs" textLength="96" x="832.65" y="170.1074">Director</text><path d="M829.65,182.1133 L829.65,182.3935 L839.85,181.5609 L850.05,182.371 L860.25,182.6462 L870.45,181.1621 L880.65,182.0097 L890.85,181.5446 L901.05,181.6019 L911.25,182.0224 L921.45,181.1915 L931.65,182.1133 " fill="#222222" style="stroke: #FF69B4; stroke-width: 3.0;"/><path d="M829.65,190.1133 L829.65,190.3935 L839.85,189.5609 L850.05,190.371 L860.25,190.6462 L870.45,189.1621 L880.65,190.0097 L890.85,189.5446 L901.05,189.6019 L911.25,190.0224 L921.45,189.1915 L931.65,190.1133 " fill="#222222" style="stroke: #FF69B4; stroke-width: 3.0;"/><!--class Subject--><polygon fill="#222222" points="550.65,258,550.65,258.2102,560.7676,257.5857,570.8853,258.1933,581.0029,258.3997,591.1206,257.2866,601.2382,257.9223,611.3559,257.5735,621.4735,257.6165,631.5912,257.9318,641.7088,257.3086,651.8265,258.5536,661.9441,257.3697,672.0618,257.8022,682.1794,258.4319,692.2971,257.9142,702.4147,258.0682,712.5324,257.9681,722.65,258,722.8285,258,722.8891,267.9057,723.2357,277.8114,723.3211,287.717,723.3293,297.6227,722.9046,307.5284,723.1136,317.4341,723.3522,327.3398,721.9288,337.2454,723.3285,347.1511,722.3535,357.0568,723.1838,366.9625,722.65,376.8682,722.65,376.3731,712.5324,376.7997,702.4147,377.6098,692.2971,376.8194,682.1794,376.9735,672.0618,377.2068,661.9441,377.2844,651.8265,376.8643,641.7088,377.1554,631.5912,376.2957,621.4735,377.1526,611.3559,377.4164,601.2382,377.3127,591.1206,377.4812,581.0029,376.3851,570.8853,376.216,560.7676,376.2468,550.65,376.8682,550.5911,376.8682,550.4535,366.9625,551.3314,357.0568,550.4753,347.1511,550.3069,337.2454,550.8783,327.3398,549.9832,317.4341,550.1309,307.5284,551.299,297.6227,551.0857,287.717,551.3845,277.8114,550.3282,267.9057,550.65,258" style="stroke: #FF69B4; stroke-width: 3.0;"/><text fill="#FF69B4" font-family="courier" font-size="20" font-weight="bold" lengthAdjust="spacingAndGlyphs" textLength="84" x="594.65" y="284.1074">Subject</text><path d="M551.65,296.1133 L551.65,296.3935 L561.65,295.5609 L571.65,296.371 L581.65,296.6462 L591.65,295.1621 L601.65,296.0097 L611.65,295.5446 L621.65,295.6019 L631.65,296.0224 L641.65,295.1915 L651.65,296.8515 L661.65,295.2729 L671.65,295.8496 L681.65,296.6892 L691.65,295.9989 L701.65,296.2043 L711.65,296.0707 L721.65,296.1133 " fill="#222222" style="stroke: #FF69B4; stroke-width: 3.0;"/><path d="M551.65,304.1133 L551.65,304.3935 L561.65,303.5609 L571.65,304.371 L581.65,304.6462 L591.65,303.1621 L601.65,304.0097 L611.65,303.5446 L621.65,303.6019 L631.65,304.0224 L641.65,303.1915 L651.65,304.8515 L661.65,303.2729 L671.65,303.8496 L681.65,304.6892 L691.65,303.9989 L701.65,304.2043 L711.65,304.0707 L721.65,304.1133 " fill="#222222" style="stroke: #FF69B4; stroke-width: 3.0;"/><polygon fill="#84BE84" points="564.6666,321.1355,564.2268,321.7363,563.7067,322.6164,562.9628,323.2095,562.1811,323.5338,561.5578,323.562,560.7567,323.1564,560.0009,322.8914,559.4271,322.3534,559.1262,321.7374,558.9477,321.247,558.7729,320.6064,558.4891,320.0552,558.7072,319.5169,558.8982,318.9274,559.6153,318.4611,560.1197,317.8561,560.7441,317.6552,561.4864,317.4821,562.4383,317.5849,562.9597,317.8308,563.5658,317.9423,564.3029,318.6974,564.5598,319.4946,564.6714,320.0385,564.545,320.9348" style="stroke: #038048; stroke-width: 1.0;"/><text fill="#A9A9A9" font-family="courier" font-size="15" lengthAdjust="spacingAndGlyphs" textLength="144" x="571.65" y="324.1938">attach(Observer)</text><polygon fill="#84BE84" points="564.6666,342.7204,564.2268,343.3213,563.7067,344.2014,562.9628,344.7945,562.1811,345.1188,561.5578,345.1469,560.7567,344.7413,560.0009,344.4763,559.4271,343.9383,559.1262,343.3224,558.9477,342.832,558.7729,342.1914,558.4891,341.6401,558.7072,341.1019,558.8982,340.5123,559.6153,340.046,560.1197,339.441,560.7441,339.2401,561.4864,339.0671,562.4383,339.1699,562.9597,339.4158,563.5658,339.5272,564.3029,340.2824,564.5598,341.0795,564.6714,341.6235,564.545,342.5198" style="stroke: #038048; stroke-width: 1.0;"/><text fill="#A9A9A9" font-family="courier" font-size="15" lengthAdjust="spacingAndGlyphs" textLength="144" x="571.65" y="345.7788">detach(Observer)</text><polygon fill="#84BE84" points="564.6666,364.3054,564.2268,364.9063,563.7067,365.7863,562.9628,366.3794,562.1811,366.7038,561.5578,366.7319,560.7567,366.3263,560.0009,366.0613,559.4271,365.5233,559.1262,364.9073,558.9477,364.4169,558.7729,363.7763,558.4891,363.2251,558.7072,362.6869,558.8982,362.0973,559.6153,361.631,560.1197,361.026,560.7441,360.8251,561.4864,360.6521,562.4383,360.7549,562.9597,361.0007,563.5658,361.1122,564.3029,361.8673,564.5598,362.6645,564.6714,363.2084,564.545,364.1047" style="stroke: #038048; stroke-width: 1.0;"/><text fill="#A9A9A9" font-family="courier" font-size="15" lengthAdjust="spacingAndGlyphs" textLength="72" x="571.65" y="367.3638">notify()</text><path d="M49.15,259.5 L49.15,375.9531 A0,0 0 0 0 49.15,375.9531 L444.15,375.9531 A0,0 0 0 0 444.15,375.9531 L444.15,321.5 L550.62,317.5 L444.15,313.5 L444.15,269.5 L434.15,259.5 L49.15,259.5 A0,0 0 0 0 49.15,259.5 " fill="#222222" style="stroke: #A9A9A9; stroke-width: 3.0;"/><path d="M434.15,259.5 L434.3368,259.5 L433.7817,261.5 L434.3218,263.5 L434.5053,265.5 L433.5159,267.5 L434.15,269.5 L434.15,269.4309 L436.15,269.1209 L438.15,269.1591 L440.15,269.4394 L442.15,268.8854 L444.15,269.5 L444.498,269.848 L441.7538,267.1038 L440.0257,265.3757 L438.4215,263.7715 L436.0961,261.4461 L434.15,259.5 " fill="#222222" style="stroke: #A9A9A9; stroke-width: 3.0;"/><text fill="#A9A9A9" font-family="courier" font-size="20" lengthAdjust="spacingAndGlyphs" textLength="204" x="56.15" y="285.6074">public notify() {</text><text fill="#A9A9A9" font-family="courier" font-size="20" lengthAdjust="spacingAndGlyphs" textLength="348" x="80.15" y="311.7207">for each observer in observer</text><text fill="#A9A9A9" font-family="courier" font-size="20" lengthAdjust="spacingAndGlyphs" textLength="216" x="104.15" y="337.834">observer.update();</text><text fill="#A9A9A9" font-family="courier" font-size="20" lengthAdjust="spacingAndGlyphs" textLength="12" x="56.15" y="363.9473">}</text><!--class Observer--><polygon fill="#222222" points="828.65,279.5,828.65,279.7102,839.05,279.0857,849.45,279.6933,859.85,279.8997,870.25,278.7866,880.65,279.4223,891.05,279.0735,901.45,279.1165,911.85,279.4318,922.25,278.8086,932.65,279.5,933.2036,279.5,932.0197,288.9623,932.4522,298.4246,933.0819,307.8868,932.5642,317.3491,932.7182,326.8114,932.6181,336.2737,932.8285,345.736,932.65,355.1982,932.65,355.4374,922.25,355.7839,911.85,355.8693,901.45,355.8775,891.05,355.4529,880.65,355.6618,870.25,355.9005,859.85,354.4771,849.45,355.8768,839.05,354.9017,828.65,355.1982,829.1838,355.1982,828.155,345.736,828.5815,336.2737,829.3916,326.8114,828.6013,317.3491,828.7553,307.8868,828.9886,298.4246,829.0662,288.9623,828.65,279.5" style="stroke: #FF69B4; stroke-width: 3.0;"/><text fill="#FF69B4" font-family="courier" font-size="20" font-weight="bold" lengthAdjust="spacingAndGlyphs" textLength="96" x="832.65" y="305.6074">Observer</text><path d="M829.65,317.6133 L829.65,317.8935 L839.85,317.0609 L850.05,317.871 L860.25,318.1462 L870.45,316.6621 L880.65,317.5097 L890.85,317.0446 L901.05,317.1019 L911.25,317.5224 L921.45,316.6915 L931.65,317.6133 " fill="#222222" style="stroke: #FF69B4; stroke-width: 3.0;"/><path d="M829.65,325.6133 L829.65,325.8935 L839.85,325.0609 L850.05,325.871 L860.25,326.1462 L870.45,324.6621 L880.65,325.5097 L890.85,325.0446 L901.05,325.1019 L911.25,325.5224 L921.45,324.6915 L931.65,325.6133 " fill="#222222" style="stroke: #FF69B4; stroke-width: 3.0;"/><polygon fill="#84BE84" points="842.6666,342.6355,842.2268,343.2363,841.7067,344.1164,840.9628,344.7095,840.1811,345.0338,839.5578,345.062,838.7567,344.6564,838.0009,344.3914,837.4271,343.8534,837.1262,343.2374,836.9477,342.747,836.7729,342.1064,836.4891,341.5552,836.7072,341.0169,836.8982,340.4274,837.6153,339.9611,838.1197,339.3561,838.7441,339.1552,839.4864,338.9821,840.4383,339.0849,840.9597,339.3308,841.5658,339.4423,842.3029,340.1974,842.5598,340.9946,842.6714,341.5385,842.545,342.4348" style="stroke: #038048; stroke-width: 1.0;"/><text fill="#A9A9A9" font-family="courier" font-size="15" lengthAdjust="spacingAndGlyphs" textLength="72" x="849.65" y="345.6938">update()</text><!--link Scenario to Director--><path d="M807.43,84.24 L807.6431,84.422 L813.7684,91.797 L821.1431,100.2388 L828.111,108.3332 L833.7409,115.2852 L841.1441,123.7513 L847.549,131.365 L854.74,139.65 " fill="none" style="stroke: #A9A9A9; stroke-width: 2.0; stroke-dasharray: 7.0,7.0;"/><polygon fill="#A9A9A9" points="858.29,143.81,858.3572,143.8299,857.5977,141.8822,857.2319,140.0513,856.738,138.1823,855.8223,136.1883,855.4904,134.3674,855.4646,134.3654,855.2595,135.4841,855.1845,136.613,855.2001,137.7492,854.9038,138.8606,855.0443,140.0067,855.0588,140.1906,853.8999,139.708,852.7834,139.7625,851.6721,139.8825,850.5306,139.6213,849.4051,139.5606,849.4149,139.5811,851.1775,140.4008,852.9847,141.314,854.7704,142.1821,856.5972,143.1362,858.29,143.81" style="stroke: #A9A9A9; stroke-width: 2.0;"/><!--link Scenario to ConcreteSubjectB--><path d="M723.5,53.68 L723.5129,53.7725 L717.0065,54.4 L710.5758,55.5697 L704.1205,56.5629 L697.5841,56.9753 L691.1599,58.1917 L691.1549,58.1575 L683.4676,59.1349 L675.8058,60.2847 L668.1617,61.5541 L660.4566,62.4109 L652.8368,63.8457 L652.8749,64.0888 L644.1264,64.9265 L635.489,66.4739 L626.8652,68.1079 L618.1625,69.2381 L609.5013,70.6333 L609.5163,70.7231 L600.0189,72.1738 L590.5896,74.033 L581.1275,75.6952 L571.7282,77.7334 L562.1241,78.5456 L562.1757,78.8394 L557.1961,79.718 L552.1833,80.4071 L547.2191,81.3736 L542.2573,82.3531 L537.2231,82.9208 L537.1657,82.6054 L532.1676,84.1481 L526.9805,84.6523 L521.9371,85.946 L516.7457,86.4267 L511.6757,87.5738 L511.67,87.5439 L506.5224,88.8836 L501.2426,89.5244 L496.0408,90.5776 L490.8456,91.6655 L485.6031,92.5036 L485.6388,92.6851 L480.3075,93.5429 L475.0372,94.711 L469.6682,95.3772 L464.4464,96.7919 L459.1268,97.709 L459.1756,97.9477 L453.8146,98.9985 L448.4779,100.1679 L443.0284,100.7866 L437.6616,101.809 L432.3679,103.1889 L432.3102,102.9189 L426.9785,104.314 L421.5817,105.4049 L416.2793,106.9371 L410.8158,107.7157 L405.448,108.9423 L405.4147,108.7935 L400.0782,110.2465 L394.5994,111.0634 L389.2218,112.3326 L383.9431,114.0444 L378.4882,114.9681 L378.5324,115.1566 L373.187,116.5453 L367.7043,117.3476 L362.3937,118.8843 L357.0455,120.2611 L351.61,121.265 L351.5598,121.0611 L346.2647,122.537 L340.9532,123.9462 L335.674,125.4865 L330.2692,126.5168 L324.9346,127.8321 L324.9862,128.0311 L319.6026,128.961 L314.3186,130.2751 L309.1801,132.1504 L303.7736,132.9925 L298.5834,134.6681 L298.6432,134.8863 L293.4266,136.1775 L288.1896,137.3949 L282.9984,138.7789 L277.9128,140.548 L272.6777,141.7721 L272.6406,141.6444 L267.6834,143.4988 L262.4736,144.4845 L257.5511,146.4581 L252.4668,147.8754 L247.3389,149.1429 L247.3711,149.2469 L242.4149,150.6902 L237.5742,152.506 L232.6292,153.9853 L227.6406,155.3239 L222.6882,156.7794 L222.7257,156.8925 L217.9017,158.3046 L213.2519,160.242 L208.4051,161.5853 L203.6394,163.173 L198.847,164.6804 L198.7562,164.4257 L194.2045,166.1437 L189.762,168.1684 L185.1649,169.7591 L180.5123,171.1941 L175.9366,172.845 L175.886,172.711 L173.6886,173.5901 L171.4016,174.232 L169.3609,175.5258 L167.1982,176.497 L164.8684,177.0257 L164.9541,177.2434 L162.8235,178.1623 L160.5302,178.6676 L158.4086,179.6095 L156.1734,180.2623 L154.0784,181.2719 L154.1264,181.3886 L152.0208,182.2356 L149.9731,183.2236 L147.7417,183.7644 L145.6584,184.6658 L143.5818,185.5834 L143.6596,185.7645 L141.6437,186.6904 L139.4167,187.1248 L137.4349,188.1302 L135.4575,189.1457 L133.3937,189.9601 L133.2823,189.7125 L131.4853,190.9916 L129.495,191.8413 L127.4567,192.5843 L125.5282,193.5711 L123.5293,194.4018 L123.6678,194.6945 L121.5648,195.1774 L119.779,196.331 L117.8683,197.2205 L115.9309,198.0536 L114.0038,198.9084 L114.0318,198.9645 L112.192,199.8678 L110.2115,200.4887 L108.4215,201.4918 L106.5751,202.3819 L104.8323,203.4798 L104.8456,203.5049 L103.0901,204.4417 L101.3449,205.3978 L99.4907,206.147 L97.7765,207.1621 L96.0301,208.1158 L96.0034,208.0695 L92.8708,210.2311 L89.5502,212.0662 L86.0606,213.608 L82.8649,215.66 L79.5938,217.5812 L79.4528,217.3668 L76.7087,219.6327 L73.8314,221.696 L70.8603,223.6167 L67.6654,225.1972 L64.8163,227.3034 L64.9419,227.4669 L62.0158,229.0371 L59.6715,231.3651 L56.9369,233.1846 L54.4446,235.3198 L51.819,237.2813 L51.8914,237.3598 L49.742,239.4821 L47.1637,241.1391 L45.3047,243.5762 L42.9959,245.5256 L40.7231,247.5139 L40.8425,247.6172 L39.1598,249.8286 L37.0957,251.7099 L35.3381,253.8565 L33.5364,255.9648 L31.65,258 L31.7223,258.0496 L30.1686,260.1566 L28.9483,262.4924 L26.9834,264.3169 L25.9329,266.7693 L24.2447,268.7839 L24.0022,268.6493 L22.8235,270.8508 L21.8378,273.1594 L20.622,275.3403 L19.2083,277.4114 L18.1886,279.7011 L18.3575,279.7739 L17.2813,281.9273 L16.5817,284.243 L15.6056,286.4394 L14.1986,288.4501 L13.4298,290.736 L13.2612,290.6828 L12.6724,292.946 L12.1751,295.2382 L11.4926,297.4718 L10.7467,299.6855 L9.9164,301.8726 L9.7676,301.8418 L9.7294,304.1744 L9.2643,306.4186 L8.5039,308.6019 L7.9564,310.8291 L7.5965,313.0951 L7.4191,313.0766 L7.266,315.3438 L7.1859,317.6186 L6.8593,319.8676 L6.4692,322.11 L6.4182,324.3878 L6.6348,324.3895 L6.1965,326.6556 L6.606,328.9283 L6.5549,331.1975 L6.5126,333.4667 L6.3296,335.7348 L6.6363,335.7603 L6.4105,338.0028 L6.5761,340.2778 L7.1289,342.5852 L6.8245,344.821 L7.2788,347.1202 L7.1762,347.1028 L7.7164,349.4103 L8.0829,351.6885 L8.2827,353.9383 L8.808,356.2434 L9.2138,358.5282 L9.5348,358.6089 L10.0672,360.8814 L10.1044,363.0295 L10.9691,365.3856 L11.2876,367.6044 L12.0829,369.943 L12.0718,369.9394 L12.9568,372.2649 L13.7607,374.5637 L14.053,376.6942 L15.253,379.1233 L15.8341,381.3488 L15.8376,381.3502 L16.5214,383.5329 L17.4724,385.8231 L18.7176,388.2316 L19.6022,390.4951 L20.4155,392.7298 L20.4089,392.7267 L21.2173,394.8702 L22.8238,397.3909 L23.506,399.4748 L24.491,401.7018 L25.7751,404.0701 L25.7488,404.0559 L27.223,406.4513 L28.4503,408.7135 L29.4405,410.8478 L30.5849,413.0653 L31.8612,415.3539 L31.9259,415.3929 L33.2842,417.639 L34.3722,419.722 L36.0751,422.1758 L37.4824,424.4514 L38.6218,426.5654 L38.5419,426.5124 L39.9395,428.6846 L41.8249,431.1806 L43.0595,433.2446 L44.5283,435.464 L46.005,437.6888 L46.1128,437.7665 L47.3631,439.7247 L49.3775,442.2344 L50.7718,444.2963 L52.6091,446.6782 L53.9589,448.7081 L53.8831,448.6492 L55.7969,450.9996 L57.1922,452.9468 L59.1285,455.3147 L60.8701,457.5312 L62.4316,459.6077 L62.3197,459.5147 L64.3436,461.8635 L65.812,463.751 L67.6345,465.9324 L69.8167,468.4127 L71.3712,470.3716 L71.5994,470.5727 L73.4316,472.6612 L74.9929,474.5107 L77.112,476.852 L78.6975,478.7229 L80.7258,480.9841 L80.7447,481.0017 L82.6689,483.0727 L84.5275,485.0827 L86.7568,487.4377 L88.6442,489.4744 L90.4435,491.4293 L90.3415,491.3296 L92.6167,493.6453 L94.4843,495.5627 L96.2753,497.4053 L98.3925,499.5665 L100.4724,501.6914 L100.3092,501.5245 L102.4868,503.6598 L104.3922,505.5168 L106.4588,507.5386 L108.7248,509.7643 L110.7606,511.7546 L110.724,511.7155 L112.8419,513.7053 L114.9153,515.6475 L117.1089,517.7178 L118.9883,519.4534 L121.2563,521.603 L121.3039,521.6558 L123.1651,523.2814 L125.6049,525.5477 L127.8235,527.5692 L129.9327,529.4695 L131.9074,531.2208 L132.0129,531.3419 L134.1145,533.1595 L136.2402,535.0048 L138.1734,536.6292 L140.6416,538.8676 L142.6621,540.5922 L142.7566,540.7042 L144.7795,542.362 L146.9831,544.2339 L149.0863,545.9869 L151.3697,547.9536 L153.4686,549.7014 L153.66,549.9356 L155.5303,551.3459 L157.923,553.3952 L159.9273,554.9694 L162.0069,556.6358 L164.2748,558.5326 L164.1555,558.3822 L166.2475,560.0156 L168.4547,561.794 L170.7374,563.6675 L172.9536,565.4574 L175.029,567.0698 L175.1856,567.2725 L177.2732,568.8631 L179.0958,570.1106 L181.5873,572.2241 L183.6813,573.8228 L185.6792,575.2974 L185.8238,575.4893 L187.9176,577.063 L189.7007,578.2241 L191.9069,579.9471 L194.1591,581.7311 L196.1735,583.1994 L196.0468,583.0269 L198.2037,584.6746 L200.3057,586.2476 L202.4312,587.8525 L204.4147,589.2643 L206.46,590.76 " fill="none" style="stroke: #A9A9A9; stroke-width: 2.0; stroke-dasharray: 7.0,7.0;"/><polygon fill="#A9A9A9" points="210.62,593.77,210.6805,593.8053,209.5094,591.9983,208.6931,590.3981,207.7613,588.7305,206.4494,586.8416,205.6637,585.2591,205.6381,585.255,205.7038,586.3534,205.8983,587.4725,206.1825,588.6062,206.1579,589.6899,206.5659,590.8436,206.5953,591.0258,205.4155,590.8166,204.3216,591.1394,203.2381,591.527,202.0937,591.5371,200.9814,591.7458,200.9861,591.768,202.9069,592.1402,204.8491,592.6137,206.7809,593.0383,208.7324,593.5562,210.62,593.77" style="stroke: #A9A9A9; stroke-width: 2.0;"/><!--link Scenario to ConcreteSubjectA--><path d="M723.52,74.29 L723.5676,74.3704 L721.1494,75.4785 L719.01,77.0579 L716.7799,78.4838 L714.2512,79.405 L712.1358,81.0249 L712.1176,80.9955 L709.6274,82.3497 L707.2287,83.8521 L704.8935,85.4575 L702.3393,86.7079 L700.0918,88.4555 L700.2252,88.6623 L697.4248,89.8427 L695.0137,91.6268 L692.6503,93.4846 L690.0103,94.9138 L687.5158,96.5684 L687.5328,96.5935 L684.9117,98.313 L682.368,100.1468 L679.787,101.9255 L677.2771,103.8094 L674.5352,105.3502 L674.7081,105.5931 L672.0587,107.4835 L669.2978,109.2172 L666.7001,111.1803 L664.1101,113.1541 L661.2776,114.7873 L661.085,114.5311 L658.7774,117.0441 L655.8356,118.7136 L653.376,121.0243 L650.4198,122.6746 L647.8706,124.8663 L647.8516,124.8425 L645.3903,127.2655 L642.4856,129.1324 L639.8425,131.3274 L637.2214,133.55 L634.4418,135.5738 L634.5616,135.7148 L631.7761,137.837 L629.1952,140.2 L626.2832,142.1734 L623.8652,144.7281 L621.1188,146.8963 L621.2828,147.0764 L618.6339,149.4271 L616.0663,151.8673 L613.1203,153.8919 L610.4518,156.2212 L608.029,158.8202 L607.8354,158.6233 L605.4649,161.304 L602.8762,163.7628 L600.604,166.5434 L597.7915,168.7745 L595.3002,171.3323 L595.1888,171.2281 L592.9262,174.0189 L590.1876,176.3645 L587.7874,179.0267 L585.7185,181.9986 L583.0598,184.4189 L583.2072,184.5445 L580.9834,187.3602 L578.3012,189.7853 L576.1932,192.6996 L573.9601,195.5073 L571.4355,198.0667 L571.2688,197.939 L569.2255,200.8799 L567.1276,203.779 L565.1369,206.7602 L562.7294,209.422 L560.5547,212.2622 L560.7248,212.3777 L558.3493,215.0698 L556.302,217.9849 L554.7342,221.2258 L552.2836,223.8668 L550.5452,226.9919 L550.74,227.1069 L548.8221,230.0887 L546.8384,233.0315 L545.0034,236.0621 L543.5121,239.2959 L541.5344,242.2423 L541.4155,242.1828 L540.1928,245.5115 L538.161,248.4354 L537.0492,251.8197 L535.4194,254.9448 L533.65,258 L533.75,258.0431 L532.7897,260.0466 L532.1874,262.2046 L531.2618,264.223 L530.2009,266.1831 L529.2523,268.1916 L529.3635,268.2346 L528.3948,270.2457 L527.9422,272.4566 L526.906,274.4414 L526.1098,276.5193 L525.2348,278.5666 L524.9793,278.4781 L524.3346,280.6159 L523.9977,282.8602 L523.2253,284.9537 L522.2968,286.9931 L521.5848,289.1076 L521.448,289.0654 L520.8329,291.2168 L519.9755,293.2935 L519.7841,295.5756 L519.2631,297.756 L518.2901,299.7971 L518.5158,299.8586 L517.9976,302.0425 L517.0506,304.1093 L516.5562,306.2996 L515.7622,308.4082 L515.338,310.6177 L515.4608,310.6471 L514.9203,312.8301 L514.528,315.0486 L513.6656,317.1544 L513.1824,319.3511 L512.7161,321.5519 L512.9091,321.5922 L512.5021,323.8096 L511.5715,325.9175 L511.2493,328.1526 L510.9378,330.3898 L510.412,332.5824 L510.1448,332.5343 L510.1668,334.832 L509.7253,337.0463 L509.1686,339.2399 L508.8751,341.4809 L508.4131,343.6916 L508.7333,343.7405 L507.9345,345.9047 L507.8691,348.1809 L507.515,350.413 L507.0991,352.6358 L506.7071,354.8621 L506.7692,354.87 L506.4719,357.1113 L505.8616,359.3129 L505.6749,361.5683 L505.363,363.8077 L505.2813,366.0765 L505.3095,366.0794 L505.0887,368.3287 L504.8896,370.5802 L504.4579,372.8077 L504.3251,375.0661 L504.1234,377.3173 L504.0701,377.3131 L504.1984,379.5878 L503.9514,381.8324 L503.3668,384.05 L503.3691,386.3146 L503.2209,388.5671 L502.9648,388.5521 L503.2169,390.8229 L503.227,393.0795 L503.0667,395.3261 L502.4999,397.5489 L502.5612,399.8085 L502.7673,399.8164 L502.1455,402.039 L502.4784,404.2981 L502.1708,406.5327 L502.2608,408.7825 L502.132,411.024 L502.2388,411.026 L502.2996,413.2624 L501.7276,415.4868 L502.2166,417.7313 L502.0422,419.9632 L501.9208,422.1961 L502.0787,422.1962 L502.252,424.4186 L501.9209,426.6407 L501.9952,428.863 L502.011,431.0853 L501.915,433.3075 L502.0026,433.309 L501.9521,435.5141 L502.3057,437.7261 L501.7564,439.9228 L502.316,442.1383 L502.1022,444.3406 L501.8251,444.3313 L501.9358,446.5201 L502.2671,448.7162 L502.3355,450.9035 L502.1775,453.0833 L502.47,455.2781 L502.6537,455.2872 L502.6255,457.4454 L503.0069,459.6238 L503.0876,461.7874 L502.6997,463.9278 L503.0058,466.1025 L502.8294,466.0911 L503.0868,468.2375 L503.4401,470.3902 L503.5994,472.5303 L503.6925,474.6662 L503.6973,476.7963 L503.5458,476.7833 L504.339,481.0058 L504.6978,485.1909 L504.7562,489.3502 L505.0312,493.5281 L505.497,497.7225 L505.3197,497.7025 L505.8567,501.7508 L506.4666,505.8072 L506.8302,509.8359 L507.1304,513.8575 L507.7694,517.9172 L507.984,517.9466 L508.0963,521.7543 L509.0487,525.6769 L509.5447,529.5371 L510.0493,533.3985 L510.4147,537.2408 L510.7186,537.2893 L510.8904,540.8862 L511.4501,544.545 L512.3934,548.2649 L512.4874,551.8495 L513.333,555.5539 L513.2307,555.5354 L514.0019,558.9955 L514.5998,562.4244 L515.0313,565.8234 L515.7876,569.2808 L516.4248,572.7168 L516.7493,572.7815 L517.3405,575.9478 L517.431,579.0142 L518.3581,582.2475 L518.733,585.3707 L519.59,588.59 " fill="none" style="stroke: #A9A9A9; stroke-width: 2.0; stroke-dasharray: 7.0,7.0;"/><polygon fill="#A9A9A9" points="520.71,593.83,520.7785,593.8447,520.987,591.8749,521.597,589.9911,522.0763,588.0793,522.1255,586.0755,522.7701,584.199,522.7484,584.1849,522.033,585.069,521.427,586.0245,520.897,587.0295,520.1049,587.8637,519.6799,588.9373,519.7808,589.0918,518.6175,588.1432,517.7486,587.646,516.9157,587.2038,515.8737,586.4412,514.9417,585.8471,514.9601,585.8604,516.0867,587.4374,517.2973,589.0751,518.4673,590.6835,519.7146,592.3478,520.71,593.83" style="stroke: #A9A9A9; stroke-width: 2.0;"/><!--link Scenario to ConcreteObserverA--><path d="M777.61,84.3 L777.8899,84.3147 L777.5798,94.1936 L778.9102,104.1587 L779.7065,114.0957 L778.7458,123.9404 L780.1137,133.9074 L780.1707,143.8056 L780.7494,153.7312 L781.6907,163.6758 L781.3823,173.5548 L783.5615,183.5645 L782.5065,193.4042 L783.6038,203.357 L784.9637,213.3237 L784.7958,223.21 L785.5223,233.1433 L785.9103,243.0589 L786.712,252.9962 L787.3141,262.923 L788.297,272.8698 L788.9321,282.7984 L789.4644,292.7215 L789.4205,302.6144 L790.2201,312.5516 L791.0593,322.4908 L789.6855,332.3138 L792.0706,342.3343 L791.2938,352.1887 L792.9208,362.1694 L792.0723,372.0199 L793.1617,381.9724 L794.7617,391.9516 L794.2308,401.8189 L794.9574,411.7522 L795.7895,421.6911 L795.86,431.59 " fill="none" style="stroke: #A9A9A9; stroke-width: 2.0; stroke-dasharray: 7.0,7.0;"/><polygon fill="#A9A9A9" points="796.14,436.85,796.2055,436.8749,796.7119,434.96,797.6021,433.1913,798.3674,431.3749,798.7216,429.4021,799.6448,427.6459,799.6256,427.6286,798.7837,428.3933,798.039,429.2451,797.3619,430.1576,796.4519,430.8612,795.8682,431.8574,795.9914,431.9948,794.8856,430.9456,794.1396,430.2977,793.4374,429.6986,792.4799,428.8148,791.6567,428.0808,791.6769,428.0911,792.5439,429.8298,793.503,431.6155,794.4176,433.3786,795.4172,435.185,796.14,436.85" style="stroke: #A9A9A9; stroke-width: 2.0;"/><!--link Scenario to ConcreteObserverB--><path d="M827.81,63.44 L827.8448,63.5267 L830.7949,64.4962 L833.9492,65.9739 L837.0371,67.286 L839.9062,68.0541 L843.078,69.5754 L843.0639,69.5438 L846.2181,70.841 L849.4433,72.2971 L852.7179,73.8637 L855.8222,75.0494 L859.165,76.7686 L859.2754,76.9885 L862.3411,78.1751 L865.7291,80.0037 L869.1564,81.9107 L872.355,83.3619 L875.6738,85.0528 L875.6888,85.0792 L878.9735,86.9222 L882.3265,88.8852 L885.6466,90.7903 L889.0295,92.8058 L892.2075,94.4613 L892.3707,94.7109 L895.605,96.8271 L898.734,98.7823 L902.0171,100.9732 L905.3075,103.1751 L908.369,105.027 L908.1744,104.7723 L911.6305,107.6179 L914.4459,109.6248 L917.7484,112.2693 L920.5493,114.2572 L923.7612,116.7833 L923.7407,116.7608 L926.8286,119.6228 L929.4371,121.9593 L932.3284,124.6058 L935.2435,127.2784 L937.9873,129.7632 L938.1255,129.8862 L940.5185,132.6094 L943.1477,135.5428 L945.3948,138.1362 L948.2119,141.2366 L950.65,144 L950.844,144.1474 L952.0434,145.746 L953.3392,147.4177 L954.1875,148.7494 L955.3638,150.3303 L956.8307,152.1322 L956.6049,151.973 L957.9906,153.7925 L959.122,155.4326 L960.6222,157.3329 L961.4926,158.789 L962.7374,160.5091 L962.6099,160.4255 L963.95,162.2853 L964.7451,163.7878 L965.9278,165.5444 L967.4898,167.5496 L968.3764,169.112 L968.5416,169.2129 L969.7305,171.0441 L970.4053,172.5615 L971.7239,174.4719 L972.9023,176.2967 L973.7538,177.9219 L973.5714,177.8181 L974.7413,179.7005 L975.8514,181.5488 L977.0789,183.464 L977.85,185.1194 L978.876,186.92 L979.0575,187.0164 L979.6333,188.6379 L980.5594,190.4456 L981.9975,192.5253 L982.4931,194.1042 L983.7491,196.0872 L983.9516,196.1878 L984.7573,197.9915 L985.4945,199.7612 L986.3863,201.6077 L987.6358,203.6319 L988.3792,205.4047 L988.2586,205.3486 L989.4964,207.4054 L989.9138,209.0807 L991.2641,211.1897 L992.0891,213.0546 L992.7727,214.8536 L992.8725,214.8971 L993.6245,216.7742 L994.7339,218.8071 L995.5205,220.6993 L996.172,222.5327 L996.9356,224.415 L997.046,224.46 L997.6697,226.3241 L998.8059,228.3973 L999.3625,230.234 L1000.1576,232.1679 L1000.8743,234.07 L1000.6217,233.9734 L1001.4502,235.9516 L1002.5828,238.0461 L1003.285,239.976 L1003.8329,241.8469 L1004.5949,243.7996 L1004.4601,243.7513 L1005.205,245.7238 L1005.7113,247.6108 L1006.8736,249.7331 L1007.7112,251.7389 L1008.1036,253.585 L1008.3253,253.6596 L1009.0569,255.6479 L1009.3672,257.4946 L1010.1221,259.4907 L1010.5827,261.3879 L1011.4066,263.4073 L1011.527,263.4453 L1012.1319,265.4083 L1012.8822,267.4172 L1013.1714,269.2807 L1013.8325,271.2615 L1014.5102,273.2475 L1014.6992,273.3034 L1015.334,275.2869 L1015.4559,277.1186 L1016.1737,279.1267 L1016.902,281.1378 L1017.4205,283.0868 L1017.1589,283.0143 L1018.1165,285.0927 L1018.6203,287.0452 L1019.0113,288.9665 L1019.66,290.9593 L1020.1438,292.9063 L1020.4572,292.9877 L1020.5176,294.8274 L1021.2962,296.8537 L1021.7921,298.8066 L1022.2275,300.7437 L1022.6862,302.6869 L1022.747,302.7017 L1023.2087,304.6435 L1023.3637,306.5105 L1023.9337,308.4786 L1024.3811,310.4168 L1025.0539,312.4099 L1025.0816,312.416 L1025.9394,316.2578 L1026.8187,320.1044 L1027.4695,323.9005 L1028.4137,327.7614 L1029.2903,331.6073 L1029.2379,331.5972 L1030.2645,335.4038 L1030.9214,339.1392 L1031.2458,342.8104 L1032.1483,346.5931 L1032.9026,350.3472 L1032.6496,350.3048 L1033.6366,353.9946 L1034.3845,357.6443 L1034.964,361.2658 L1035.142,364.8201 L1035.9405,368.4783 L1036.1446,368.5078 L1036.1163,371.9052 L1037.0337,375.4394 L1037.3166,378.8819 L1037.9934,382.3813 L1038.4535,385.8494 L1038.5595,385.8625 L1039.0693,389.1671 L1038.9511,392.394 L1039.8859,395.7512 L1040.1623,399.0269 L1040.4913,402.3092 L1040.6484,402.3256 L1041.1443,405.4232 L1041.1386,408.4683 L1041.5362,411.5557 L1041.8755,414.6369 L1042.1036,417.7065 L1042.1909,417.7141 L1042.3505,420.5431 L1042.9128,423.4073 L1042.5755,426.193 L1043.343,429.0751 L1043.34,431.89 " fill="none" style="stroke: #A9A9A9; stroke-width: 2.0; stroke-dasharray: 7.0,7.0;"/><polygon fill="#A9A9A9" points="1043.73,436.98,1043.796,437.0036,1044.264,435.079,1045.1188,433.2928,1045.8476,431.4615,1046.1624,429.482,1047.0503,427.7077,1047.0307,427.6908,1046.2042,428.4721,1045.4767,429.3387,1044.818,430.2645,1043.9223,430.9862,1043.3585,431.9938,1043.479,432.1336,1042.3642,431.0963,1041.6011,430.4672,1040.8808,429.8878,1039.911,429.0187,1039.0724,428.302,1039.0925,428.3128,1039.9946,430.0326,1040.9879,431.8014,1041.9372,433.5465,1042.9705,435.3367,1043.73,436.98" style="stroke: #A9A9A9; stroke-width: 2.0;"/><!--link Director to Subject--><path d="M836.74,198 L836.8828,198.2411 L828.0324,202.5147 L820.019,208.2017 L811.7331,213.4285 L802.5507,217.1416 L794.5564,222.8608 L785.8933,227.4507 L777.4964,232.49 L769.2845,237.8418 L760.4349,242.1168 L752.8546,248.5352 L743.6241,252.1669 L735.4918,257.6531 L727.2,262.87 " fill="none" style="stroke: #A9A9A9; stroke-width: 2.0; stroke-dasharray: 7.0,7.0;"/><polygon fill="#A9A9A9" points="722.66,265.56,722.6683,265.6296,724.5997,265.1904,726.5796,265.1591,728.5437,264.995,730.456,264.3941,732.44,264.3978,732.4337,264.3727,731.3085,263.9813,730.2155,263.7165,729.1449,263.5397,727.9972,263.0597,726.9575,263.0043,727.1364,263.0498,727.0326,261.8561,727.451,260.7951,727.9331,259.7503,728.0446,258.6113,728.351,257.5218,728.3696,257.5349,727.2041,259.1233,726.1232,260.7715,725.0015,262.3908,723.9575,264.0652,722.66,265.56" style="stroke: #A9A9A9; stroke-width: 2.0;"/><!--link Director to Observer--><path d="M880.65,198.17 L880.9302,198.17 L880.0976,207.6762 L880.9077,217.1825 L881.1829,226.6887 L879.6988,236.195 L880.5464,245.7013 L880.0813,255.2075 L880.1387,264.7138 L880.65,274.22 " fill="none" style="stroke: #A9A9A9; stroke-width: 2.0; stroke-dasharray: 7.0,7.0;"/><polygon fill="#A9A9A9" points="880.65,279.38,880.714,279.4085,881.3238,277.5239,882.3089,275.8062,883.1717,274.0341,883.6327,272.0834,884.65,270.38,884.6317,270.3617,883.7495,271.0795,882.9596,271.8896,882.2339,272.7639,881.287,273.417,880.65,274.38,880.7805,274.5105,879.7014,273.4314,879.0034,272.7334,878.3518,272.0818,877.4298,271.1598,876.65,270.38,876.6708,270.3892,877.4403,272.1757,878.3044,274.0042,879.1228,275.8124,880.0284,277.6593,880.65,279.38" style="stroke: #A9A9A9; stroke-width: 2.0;"/><!--link Subject to Observer--><path d="M722.9,317.5 L722.9,317.7802 L732.931,316.9476 L742.962,317.7577 L752.993,318.0329 L763.024,316.5488 L773.055,317.3964 L783.086,316.9313 L793.117,316.9887 L803.148,317.4091 L813.179,316.5782 L823.21,317.5 " fill="none" style="stroke: #A9A9A9; stroke-width: 2.0;"/><polygon fill="#A9A9A9" points="828.58,317.5,828.6085,317.564,826.7239,316.5738,825.0062,315.9589,823.2341,315.2217,821.2834,314.0827,819.58,313.5,819.5617,313.4817,820.2795,314.1995,821.0896,315.0096,821.9639,315.8839,822.617,316.537,823.58,317.5,823.7105,317.6305,822.6314,318.1514,821.9334,319.0534,821.2818,320.0018,820.3598,320.6798,819.58,321.5,819.5892,321.5208,821.3757,320.6903,823.2042,319.9544,825.0124,319.1728,826.8593,318.4784,828.58,317.5" style="stroke: #A9A9A9; stroke-width: 2.0;"/><!--link Subject to ConcreteSubjectB--><path d="M563.17,391.54 L563.3676,391.7388 L555.7667,398.1203 L549.3241,405.6669 L542.5043,412.8342 L534.4442,418.7537 L528.028,426.3269 L520.6863,432.9691 L513.713,439.9818 L506.9956,447.2521 L499.396,453.6349 L493.5525,461.7842 L485.4258,467.6368 L478.8186,475.0178 L472.3967,482.5854 L464.8963,489.0679 L458.0272,496.1856 L450.9193,503.0629 L444.1033,510.234 L437.1465,517.2634 L430.4585,524.5631 L423.5249,531.6159 L416.5188,538.5958 L409.1059,545.1663 L402.2885,552.336 L395.4991,559.5337 L387.1473,565.1598 L381.4492,573.4554 L373.5189,579.5055 L367.2856,587.2627 L359.77,593.73 " fill="none" style="stroke: #A9A9A9; stroke-width: 2.0;"/><polygon fill="none" points="558.61,386.2,558.6402,386.2632,562.3744,384.2474,566.2858,382.6021,570.1395,380.8362,573.8034,378.6735,577.73,377.06,577.7067,377.0487,575.7521,380.8099,573.915,384.6282,572.1596,388.4861,570.1227,392.2074,568.48,396.12,568.6108,396.2502,566.3571,393.9878,564.4853,392.1055,562.6601,390.2696,560.5637,388.1638,558.61,386.2" style="stroke: #A9A9A9; stroke-width: 2.0;"/><!--link Subject to ConcreteSubjectA--><path d="M626.55,397 L626.6421,397.0153 L625.8373,400.1642 L625.5726,403.4029 L625.132,406.6124 L624.113,409.7256 L623.8947,412.9721 L623.8607,412.9659 L623.1062,416.2778 L622.5231,419.6206 L622.0591,422.9848 L621.1845,426.275 L620.885,429.6689 L621.1265,429.7163 L619.9347,433.0598 L619.4479,436.5416 L619.0471,440.0402 L618.1458,443.4407 L617.5078,446.8929 L617.5375,446.8992 L616.7424,450.4006 L616.0823,453.9308 L615.3571,457.4471 L614.7561,460.9901 L613.75,464.4463 L614.0404,464.5144 L613.2136,468.0523 L612.1995,471.5462 L611.4596,475.1044 L610.7326,478.6657 L609.5984,482.1313 L609.2881,482.0511 L608.9787,485.7307 L607.6475,489.146 L607.0931,492.7622 L605.7387,496.1715 L605.04,499.7505 L605.0107,499.7421 L604.3611,503.3124 L603.0278,506.6867 L602.0979,510.1766 L601.2019,513.6763 L600.0616,517.1059 L600.2377,517.1624 L598.9776,520.4842 L598.0185,523.9025 L596.5723,527.1648 L595.8527,530.6597 L594.65,534 L594.8786,534.0842 L593.7149,537.112 L592.6647,540.1816 L591.0871,543.0571 L589.8961,546.0749 L589.0477,549.2188 L588.7928,549.1124 L587.7502,552.2599 L586.4205,555.2876 L585.5073,558.4891 L583.8829,561.3939 L582.6813,564.475 L582.5426,564.4115 L581.4016,567.5145 L579.668,570.3462 L578.3557,573.3707 L577.4559,576.584 L575.8217,579.4613 L575.9955,579.5467 L574.6983,582.487 L572.8607,585.1617 L571.7,588.1691 L570.3918,591.104 L568.74,593.87 " fill="none" style="stroke: #A9A9A9; stroke-width: 2.0;"/><polygon fill="none" points="619.63,395.95,619.6919,395.9828,621.494,392.1413,623.6589,388.4922,625.7057,384.7804,627.3639,380.8626,629.56,377.23,629.5345,377.2252,630.2043,381.3677,631.0024,385.5343,631.8897,389.7178,632.4695,393.8434,633.48,398.05,633.5077,398.2325,630.6785,397.4223,627.9301,397.1448,625.1916,396.9324,622.3957,396.3417,619.63,395.95" style="stroke: #A9A9A9; stroke-width: 2.0;"/><!--link Observer to ConcreteObserverA--><path d="M853.23,373.99 L853.4813,374.1141 L848.2932,382.7397 L844.5782,392.0927 L840.3835,401.2088 L834.6114,409.546 L830.9299,418.9156 L826.0715,427.7039 L822.14,436.95 " fill="none" style="stroke: #A9A9A9; stroke-width: 2.0;"/><polygon fill="none" points="847.11,370.58,847.159,370.63,850.0393,367.5154,853.2071,364.694,856.2813,361.7771,859.0475,358.5462,862.24,355.75,862.2143,355.7468,861.5829,359.9407,861.0811,364.1504,860.6695,368.3712,859.9473,372.554,859.66,376.79,859.7418,376.9554,857.0568,375.3597,854.6108,374.2469,852.1939,373.193,849.6073,371.7964,847.11,370.58" style="stroke: #A9A9A9; stroke-width: 2.0;"/><!--link Observer to ConcreteObserverB--><path d="M931.78,369.95 L931.9788,370.1476 L938.7882,377.005 L946.7628,385.0206 L954.3579,392.659 L960.7054,399.0572 L968.7065,407.0992 L975.7767,414.2158 L983.2174,421.7006 L990.9155,429.4415 L998.38,436.95 " fill="none" style="stroke: #A9A9A9; stroke-width: 2.0;"/><polygon fill="none" points="926.81,374.87,926.8732,374.9002,924.8574,370.9864,923.2121,367.2498,921.4462,363.4555,919.2835,359.4714,917.67,355.75,917.6587,355.7267,921.422,357.4721,925.2422,359.335,929.1021,361.2796,932.8254,362.9426,936.74,365,936.8701,365.1309,934.6059,366.825,932.7215,368.9012,930.8835,371.0241,928.7758,372.8757,926.81,374.87" style="stroke: #A9A9A9; stroke-width: 2.0;"/><!--link ConcreteObserverA to ConcreteSubjectA--><path d="M702.81,534.11 L702.8562,534.1912 L699.9571,535.5232 L697.329,537.3311 L694.6127,538.9841 L691.6061,540.1275 L689.0013,541.9762 L688.9835,541.9466 L686.2334,543.4185 L683.573,545.0397 L680.9749,546.7645 L678.162,548.1319 L675.65,550 L675.7821,550.2076 L672.4751,551.6878 L669.5537,553.7742 L666.6794,555.9345 L663.5313,557.6646 L660.5272,559.6209 L660.544,559.6462 L657.4779,561.6379 L654.4883,563.7446 L651.4619,565.7958 L648.5059,567.9527 L645.32,569.765 L645.4899,570.0101 L642.4775,572.102 L639.3556,574.0356 L636.394,576.2008 L633.44,578.3768 L630.2478,580.2091 L630.0614,579.9483 L627.4796,582.5586 L624.2841,584.3102 L621.5551,586.7146 L618.3456,588.4468 L615.53,590.73 " fill="none" style="stroke: #A9A9A9; stroke-width: 2.0;"/><polygon fill="#A9A9A9" points="611.18,593.9,611.1947,593.9685,613.0772,593.3524,615.0457,593.1379,616.9862,592.7927,618.8346,592.0174,620.8104,591.8374,620.8064,591.8118,619.6707,591.5209,618.5554,591.3591,617.4541,591.287,616.3042,590.9058,615.2224,590.9574,615.4047,590.9861,615.1909,589.8072,615.5093,588.712,615.8926,587.627,615.8981,586.4826,616.1024,585.3694,616.1221,585.3808,615.1087,587.0702,614.185,588.8114,613.218,590.5276,612.3336,592.2915,611.18,593.9" style="stroke: #A9A9A9; stroke-width: 2.0;"/><!--link ConcreteObserverB to ConcreteSubjectB--><path d="M939.63,529.95 L939.6517,530.0409 L936.1913,530.5809 L932.8579,531.6536 L929.4832,532.5528 L925.9724,532.8816 L922.65,534 L922.6457,533.9657 L919.799,534.1701 L916.9742,534.5473 L914.1646,535.0445 L911.3026,535.1279 L908.514,535.7909 L908.5313,536.0364 L906.5423,535.6494 L904.6039,535.979 L902.6717,536.3961 L900.7036,536.3044 L898.7544,536.4803 L898.7559,536.5106 L896.4764,536.5796 L894.2037,536.7864 L891.9278,536.9268 L889.6582,537.1941 L887.3679,537.0475 L887.3769,537.3457 L881.947,537.5121 L876.5113,537.4863 L871.0841,537.742 L865.6573,538.0108 L860.2179,537.8617 L860.2133,537.5412 L853.7926,538.2559 L847.3568,537.9154 L840.9325,538.3771 L834.4963,538.0126 L828.0698,538.3253 L828.0697,538.2949 L820.8437,538.6959 L813.6137,538.3856 L806.3861,538.4951 L799.1587,538.6398 L791.9299,538.5303 L791.9301,538.7153 L784.1047,538.5362 L776.2796,538.6733 L768.4541,538.2988 L760.6293,538.6873 L752.804,538.5686 L752.8045,539.2995 L742.4062,539.1543 L732.0082,539.3719 L721.6091,537.9034 L711.2108,537.6709 L700.8127,537.705 L690.415,538.448 L680.0167,538.2575 L669.6188,538.5125 L669.6194,538.8153 L661.2091,538.4528 L652.7995,538.3958 L644.3906,538.6677 L635.9803,538.2877 L627.5714,538.602 L627.5698,538.3713 L619.3717,538.9485 L611.1692,538.9118 L602.9683,539.1027 L594.7632,538.6913 L586.5624,538.8924 L586.5645,539.0342 L578.7734,539.2714 L570.9734,538.9157 L563.1829,539.1997 L555.3915,539.4149 L547.5977,539.4756 L547.6055,539.7651 L540.4147,539.6673 L533.2375,540.0682 L526.0424,539.8102 L518.858,539.949 L511.6833,540.4434 L511.6922,540.6671 L508.3708,540.2564 L505.0927,540.9322 L501.7876,540.9294 L498.4794,540.85 L495.1844,541.1004 L495.1763,540.9433 L492.123,541.4615 L489.0339,541.2825 L485.9824,541.8356 L482.8845,541.4851 L479.8253,541.8879 L479.8433,542.1617 L477.0208,542.2886 L474.1951,542.3684 L471.3706,542.4667 L468.5718,542.9539 L465.7318,542.8176 L465.755,543.0893 L463.1978,543.1092 L460.6611,543.3697 L458.1056,543.4099 L455.5972,544.0015 L453.0297,543.9009 L453.0373,543.9693 L450.8012,544.2268 L448.5257,544.1315 L446.2987,544.471 L444.1079,545.1341 L441.8447,545.1493 L441.8729,545.3382 L439.9335,545.4154 L438.0067,545.5777 L436.1051,545.9081 L434.166,545.9877 L432.3026,546.5743 L432.3475,546.7531 L429.6521,547.5782 L426.8985,548.1715 L424.1862,548.9293 L421.3657,549.2559 L418.65,550 L418.6663,550.0352 L415.235,551.3973 L412.0185,553.2214 L408.6691,554.7599 L405.384,556.4365 L401.9381,557.7673 L401.8855,557.6799 L398.7037,559.6429 L395.6325,561.7898 L392.4572,563.7638 L389.0062,565.2793 L385.92,567.4013 L385.8694,567.3315 L382.9278,569.6506 L379.6985,571.5727 L376.9188,574.1154 L373.8628,576.2767 L370.7644,578.3795 L370.7357,578.3452 L367.98,580.7881 L365.3223,583.3483 L362.2006,585.3531 L359.5546,587.9273 L356.64,590.18 " fill="none" style="stroke: #A9A9A9; stroke-width: 2.0;"/><polygon fill="#A9A9A9" points="352.59,593.84,352.6117,593.9066,354.4204,593.0992,356.3561,592.6823,358.2505,592.1382,360.0088,591.1759,361.9555,590.7925,361.9541,590.7666,360.8182,590.5911,359.6892,590.5459,358.5649,590.5914,357.4242,590.3245,356.3065,590.4952,356.4908,590.5049,356.1561,589.3543,356.3596,588.2321,356.6286,587.1133,356.5158,585.9744,356.6038,584.8461,356.6246,584.8554,355.7913,586.6406,355.0526,588.4679,354.2683,590.2749,353.571,592.1208,352.59,593.84" style="stroke: #A9A9A9; stroke-width: 2.0;"/><!--
@startuml
skinparam backgroundColor #222222
skinparam handwritten true
hide circle

skinparam shadowing false
skinparam padding 1
skinparam arrow {
    Thickness 2
    Color #DarkGrey
    FontSize 20
    FontName courier
    FontStyle normal
    FontColor #DarkGrey
}
skinparam class {
    BorderThickness 3
    BorderColor #ff69b4
    BackgroundColor #222222
    FontSize 20
    FontName courier
    FontStyle bold
    FontColor #ff69b4
}
skinparam classAttribute {
    FontSize 15
    FontName courier
    FontStyle normal
    FontColor #DarkGrey
}
skinparam note {
    BorderThickness 3
    BorderColor #DarkGrey
    BackgroundColor #222222
    FontSize 20
    FontName courier
    FontStyle normal
    FontColor #DarkGrey
}

class Scenario  {
+ main()
}
class Director
class Subject  {
+ attach(Observer)
+ detach(Observer)
+ notify()
}
note left
public notify() {
  for each observer in observer
    observer.update();
}
end note
class Observer  {
+ update()
}
together {
class ConcreteObserverA  {
+ observerStateA
+ update()
}
note bottom
public update() {
  observerStateA = subject.getStateA();
}
end note
class ConcreteObserverB  {
+ observerStateB
+ update()
}
note bottom
public update() {
  observerStateB = subject.getStateB();
}
end note
}
together {
class ConcreteSubjectB  {
+ subjectStateA
+ getStateA()
+ setStateA()
}
class ConcreteSubjectA  {
+ subjectStateA
+ getStateA()
+ setStateA()
}
}
 Scenario .down.> Director
 Scenario .down.> ConcreteSubjectB
 Scenario .down.> ConcreteSubjectA
 Scenario .down.> ConcreteObserverA
 Scenario .down.> ConcreteObserverB
 Director .down.> Subject
 Director .down.> Observer
 Subject -right-> Observer
Subject <|-down- ConcreteSubjectB
Subject <|-down- ConcreteSubjectA
Observer <|-down- ConcreteObserverA
Observer <|-down- ConcreteObserverB
ConcreteObserverA - -> ConcreteSubjectA
ConcreteObserverB - -> ConcreteSubjectB
@enduml

PlantUML version 1.2019.05(Sat Apr 20 18:45:36 CEST 2019)
(GPL source distribution)
Java Runtime: Java(TM) SE Runtime Environment
JVM: Java HotSpot(TM) 64-Bit Server VM
Java Version: 11.0.14+8-LTS-263
Operating System: Windows 10
OS Version: 10.0
Default Encoding: windows-1252
Language: es
Country: ES
--></g></svg>