<?xml version="1.0" encoding="UTF-8" standalone="no"?><svg xmlns="http://www.w3.org/2000/svg" xmlns:xlink="http://www.w3.org/1999/xlink" contentScriptType="application/ecmascript" contentStyleType="text/css" height="752px" preserveAspectRatio="none" style="width:1138px;height:752px;background:#222222;" version="1.1" viewBox="0 0 1138 752" width="1138px" zoomAndPan="magnify"><defs/><g><!--class Scenario--><polygon fill="#222222" points="217,8,217,8.2102,227.4,7.5857,237.8,8.1933,248.2,8.3997,258.6,7.2866,269,7.9223,279.4,7.5735,289.8,7.6165,300.2,7.9318,310.6,7.3086,321,8,321.5536,8,320.3697,17.4623,320.8022,26.9246,321.4319,36.3868,320.9142,45.8491,321.0682,55.3114,320.9681,64.7737,321.1785,74.236,321,83.6982,321,83.9374,310.6,84.2839,300.2,84.3693,289.8,84.3775,279.4,83.9529,269,84.1618,258.6,84.4005,248.2,82.9771,237.8,84.3768,227.4,83.4017,217,83.6982,217.5338,83.6982,216.505,74.236,216.9315,64.7737,217.7416,55.3114,216.9513,45.8491,217.1053,36.3868,217.3386,26.9246,217.4162,17.4623,217,8" style="stroke: #FF69B4; stroke-width: 3.0;"/><text fill="#FF69B4" font-family="courier" font-size="20" font-weight="bold" lengthAdjust="spacingAndGlyphs" textLength="96" x="221" y="34.1074">Scenario</text><path d="M218,46.1133 L218,46.3935 L228.2,45.5609 L238.4,46.371 L248.6,46.6462 L258.8,45.1621 L269,46.0097 L279.2,45.5446 L289.4,45.6019 L299.6,46.0224 L309.8,45.1915 L320,46.1133 " fill="#222222" style="stroke: #FF69B4; stroke-width: 3.0;"/><path d="M218,54.1133 L218,54.3935 L228.2,53.5609 L238.4,54.371 L248.6,54.6462 L258.8,53.1621 L269,54.0097 L279.2,53.5446 L289.4,53.6019 L299.6,54.0224 L309.8,53.1915 L320,54.1133 " fill="#222222" style="stroke: #FF69B4; stroke-width: 3.0;"/><polygon fill="#84BE84" points="231.0166,71.1355,230.5768,71.7363,230.0567,72.6164,229.3128,73.2095,228.5311,73.5338,227.9078,73.562,227.1067,73.1564,226.3509,72.8914,225.7771,72.3534,225.4762,71.7374,225.2977,71.247,225.1229,70.6064,224.8391,70.0552,225.0572,69.5169,225.2482,68.9274,225.9653,68.4611,226.4697,67.8561,227.0941,67.6552,227.8364,67.4821,228.7883,67.5849,229.3097,67.8308,229.9158,67.9423,230.6529,68.6974,230.9098,69.4946,231.0214,70.0385,230.895,70.9348" style="stroke: #038048; stroke-width: 1.0;"/><text fill="#A9A9A9" font-family="courier" font-size="15" lengthAdjust="spacingAndGlyphs" textLength="54" x="238" y="74.1938">main()</text><!--class Director--><polygon fill="#222222" points="226,190.5,226,190.7102,236,190.0857,246,190.6933,256,190.8997,266,189.7866,276,190.4223,286,190.0735,296,190.1165,306,190.4318,316,189.8086,326,191.0536,336,189.8697,346,190.3022,356,190.9319,366,190.4142,376,190.5682,386,190.4681,396,190.6785,406,190.7391,416,191.0857,426,191.1711,436,191.1793,446,190.7546,456,190.9636,466,191.2022,476,189.7788,486,191.1785,496,190.2035,506,190.5,506.5338,190.5,505.505,199.9623,505.9315,209.4246,506.7416,218.8868,505.9513,228.3491,506.1053,237.8114,506.3386,247.2737,506.4162,256.736,506,266.1982,506,266.1943,496,266.4855,486,265.6258,476,266.4826,466,266.7464,456,266.6428,446,266.8113,436,265.7152,426,265.5461,416,265.5768,406,266.1394,396,266.0017,386,266.8797,376,266.0236,366,265.8552,356,266.4265,346,265.5314,336,265.6791,326,266.8472,316,266.6339,306,266.9327,296,265.8764,286,266.5174,276,266.7887,266,265.7258,256,266.1024,246,266.3242,236,266.85,226,266.1982,225.9958,266.1982,226.4626,256.736,225.4462,247.2737,225.3227,237.8114,226.5036,228.3491,225.2831,218.8868,226.509,209.4246,226.2066,199.9623,226,190.5" style="stroke: #FF69B4; stroke-width: 3.0;"/><text fill="#FF69B4" font-family="courier" font-size="20" font-weight="bold" lengthAdjust="spacingAndGlyphs" textLength="96" x="318" y="216.6074">Director</text><path d="M227,228.6133 L227,228.8935 L236.9286,228.0609 L246.8571,228.871 L256.7857,229.1462 L266.7143,227.6621 L276.6429,228.5097 L286.5714,228.0446 L296.5,228.1019 L306.4286,228.5224 L316.3571,227.6915 L326.2857,229.3515 L336.2143,227.7729 L346.1429,228.3496 L356.0714,229.1892 L366,228.4989 L375.9286,228.7043 L385.8571,228.5707 L395.7857,228.8513 L405.7143,228.9321 L415.6429,229.3942 L425.5714,229.508 L435.5,229.519 L445.4286,228.9528 L455.3571,229.2314 L465.2857,229.5496 L475.2143,227.6517 L485.1429,229.518 L495.0714,228.2179 L505,228.6133 " fill="#222222" style="stroke: #FF69B4; stroke-width: 3.0;"/><path d="M227,236.6133 L227,236.8935 L236.9286,236.0609 L246.8571,236.871 L256.7857,237.1462 L266.7143,235.6621 L276.6429,236.5097 L286.5714,236.0446 L296.5,236.1019 L306.4286,236.5224 L316.3571,235.6915 L326.2857,237.3515 L336.2143,235.7729 L346.1429,236.3496 L356.0714,237.1892 L366,236.4989 L375.9286,236.7043 L385.8571,236.5707 L395.7857,236.8513 L405.7143,236.9321 L415.6429,237.3942 L425.5714,237.508 L435.5,237.519 L445.4286,236.9528 L455.3571,237.2314 L465.2857,237.5496 L475.2143,235.6517 L485.1429,237.518 L495.0714,236.2179 L505,236.6133 " fill="#222222" style="stroke: #FF69B4; stroke-width: 3.0;"/><polygon fill="#84BE84" points="240.0166,253.6355,239.5768,254.2363,239.0567,255.1164,238.3128,255.7095,237.5311,256.0338,236.9078,256.062,236.1067,255.6564,235.3509,255.3914,234.7771,254.8534,234.4762,254.2374,234.2977,253.747,234.1229,253.1064,233.8391,252.5552,234.0572,252.0169,234.2482,251.4274,234.9653,250.9611,235.4697,250.3561,236.0941,250.1552,236.8364,249.9821,237.7883,250.0849,238.3097,250.3308,238.9158,250.4423,239.6529,251.1974,239.9098,251.9946,240.0214,252.5385,239.895,253.4348" style="stroke: #038048; stroke-width: 1.0;"/><text fill="#A9A9A9" font-family="courier" font-size="15" lengthAdjust="spacingAndGlyphs" textLength="252" x="247" y="256.6938">doSomething(abstractFactory)</text><path d="M541.5,144 L541.5,224.5 L506.194,228.5 L541.5,232.5 L541.5,312.6797 A0,0 0 0 0 541.5,312.6797 L1008.5,312.6797 A0,0 0 0 0 1008.5,312.6797 L1008.5,154 L998.5,144 L541.5,144 A0,0 0 0 0 541.5,144 " fill="#222222" style="stroke: #A9A9A9; stroke-width: 3.0;"/><path d="M998.5,144 L998.6868,144 L998.1317,146 L998.6718,148 L998.8553,150 L997.8659,152 L998.5,154 L998.5,153.9309 L1000.5,153.6209 L1002.5,153.6591 L1004.5,153.9394 L1006.5,153.3854 L1008.5,154 L1008.848,154.348 L1006.1038,151.6038 L1004.3757,149.8757 L1002.7715,148.2715 L1000.4461,145.9461 L998.5,144 " fill="#222222" style="stroke: #A9A9A9; stroke-width: 3.0;"/><text fill="#A9A9A9" font-family="courier" font-size="20" lengthAdjust="spacingAndGlyphs" textLength="264" x="548.5" y="170.1074">public doSomething() {</text><text fill="#A9A9A9" font-family="courier" font-size="20" lengthAdjust="spacingAndGlyphs" textLength="36" x="596.5" y="196.2207">...</text><text fill="#A9A9A9" font-family="courier" font-size="20" lengthAdjust="spacingAndGlyphs" textLength="396" x="596.5" y="222.334">abstractFactory.createProductA();</text><text fill="#A9A9A9" font-family="courier" font-size="20" lengthAdjust="spacingAndGlyphs" textLength="36" x="596.5" y="248.4473">...</text><text fill="#A9A9A9" font-family="courier" font-size="20" lengthAdjust="spacingAndGlyphs" textLength="396" x="596.5" y="274.5605">abstractFactory.createProductB();</text><text fill="#A9A9A9" font-family="courier" font-size="20" lengthAdjust="spacingAndGlyphs" textLength="12" x="548.5" y="300.6738">}</text><!--class AbstractProductA--><polygon fill="#222222" points="269,551.5,269,551.7102,279,551.0857,289,551.6933,299,551.8997,309,550.7866,319,551.4223,329,551.0735,339,551.1165,349,551.4318,359,550.8086,369,552.0536,379,550.8697,389,551.3022,399,551.9319,409,551.4142,419,551.5682,429,551.4681,439,551.6785,449,551.7391,459,552.0857,469,551.5,469.6711,551.5,469.6793,562.3227,469.2546,573.1453,469.4636,583.968,469.7022,594.7906,469,605.6133,469,604.8921,459,606.2918,449,605.3168,439,606.1471,429,605.1183,419,605.5448,409,606.3549,399,605.5645,389,605.7186,379,605.9519,369,606.0295,359,605.6094,349,605.9005,339,605.0409,329,605.8977,319,606.1615,309,606.0578,299,606.2263,289,605.1302,279,604.9611,269,605.6133,268.3786,605.6133,268.9411,594.7906,268.8035,583.968,269.6814,573.1453,268.8253,562.3227,269,551.5" style="stroke: #FF69B4; stroke-width: 3.0;"/><text fill="#FF69B4" font-family="courier" font-size="20" font-weight="bold" lengthAdjust="spacingAndGlyphs" textLength="192" x="273" y="577.6074">AbstractProductA</text><path d="M270,589.6133 L270,589.8935 L279.9,589.0609 L289.8,589.871 L299.7,590.1462 L309.6,588.6621 L319.5,589.5097 L329.4,589.0446 L339.3,589.1019 L349.2,589.5224 L359.1,588.6915 L369,590.3515 L378.9,588.7729 L388.8,589.3496 L398.7,590.1892 L408.6,589.4989 L418.5,589.7043 L428.4,589.5707 L438.3,589.8513 L448.2,589.9321 L458.1,590.3942 L468,589.6133 " fill="#222222" style="stroke: #FF69B4; stroke-width: 3.0;"/><path d="M270,597.6133 L270,597.8935 L279.9,597.0609 L289.8,597.871 L299.7,598.1462 L309.6,596.6621 L319.5,597.5097 L329.4,597.0446 L339.3,597.1019 L349.2,597.5224 L359.1,596.6915 L369,598.3515 L378.9,596.7729 L388.8,597.3496 L398.7,598.1892 L408.6,597.4989 L418.5,597.7043 L428.4,597.5707 L438.3,597.8513 L448.2,597.9321 L458.1,598.3942 L468,597.6133 " fill="#222222" style="stroke: #FF69B4; stroke-width: 3.0;"/><!--class ConcreteProductAA--><polygon fill="#222222" points="6,687,6,687.2102,16.0952,686.5857,26.1905,687.1933,36.2857,687.3997,46.381,686.2866,56.4762,686.9223,66.5714,686.5735,76.6667,686.6165,86.7619,686.9318,96.8571,686.3086,106.9524,687.5536,117.0476,686.3697,127.1429,686.8022,137.2381,687.4319,147.3333,686.9142,157.4286,687.0682,167.5238,686.9681,177.619,687.1785,187.7143,687.2391,197.8095,687.5857,207.9048,687.6711,218,687,218.6793,687,218.2546,697.8227,218.4636,708.6453,218.7022,719.468,217.2788,730.2906,218,741.1133,218,741.7918,207.9048,740.8168,197.8095,741.6471,187.7143,740.6183,177.619,741.0448,167.5238,741.8549,157.4286,741.0645,147.3333,741.2186,137.2381,741.4519,127.1429,741.5295,117.0476,741.1094,106.9524,741.4005,96.8571,740.5409,86.7619,741.3977,76.6667,741.6615,66.5714,741.5578,56.4762,741.7263,46.381,740.6302,36.2857,740.4611,26.1905,740.4919,16.0952,741.0544,6,741.1133,5.8035,741.1133,6.6814,730.2906,5.8253,719.468,5.6569,708.6453,6.2283,697.8227,6,687" style="stroke: #FF69B4; stroke-width: 3.0;"/><text fill="#FF69B4" font-family="courier" font-size="20" font-weight="bold" lengthAdjust="spacingAndGlyphs" textLength="204" x="10" y="713.1074">ConcreteProductAA</text><path d="M7,725.1133 L7,725.3935 L17,724.5609 L27,725.371 L37,725.6462 L47,724.1621 L57,725.0097 L67,724.5446 L77,724.6019 L87,725.0224 L97,724.1915 L107,725.8515 L117,724.2729 L127,724.8496 L137,725.6892 L147,724.9989 L157,725.2043 L167,725.0707 L177,725.3513 L187,725.4321 L197,725.8942 L207,726.008 L217,725.1133 " fill="#222222" style="stroke: #FF69B4; stroke-width: 3.0;"/><path d="M7,733.1133 L7,733.3935 L17,732.5609 L27,733.371 L37,733.6462 L47,732.1621 L57,733.0097 L67,732.5446 L77,732.6019 L87,733.0224 L97,732.1915 L107,733.8515 L117,732.2729 L127,732.8496 L137,733.6892 L147,732.9989 L157,733.2043 L167,733.0707 L177,733.3513 L187,733.4321 L197,733.8942 L207,734.008 L217,733.1133 " fill="#222222" style="stroke: #FF69B4; stroke-width: 3.0;"/><!--class ConcreteProductAB--><polygon fill="#222222" points="500,687,500,687.2102,510.0952,686.5857,520.1905,687.1933,530.2857,687.3997,540.381,686.2866,550.4762,686.9223,560.5714,686.5735,570.6667,686.6165,580.7619,686.9318,590.8571,686.3086,600.9524,687.5536,611.0476,686.3697,621.1429,686.8022,631.2381,687.4319,641.3333,686.9142,651.4286,687.0682,661.5238,686.9681,671.619,687.1785,681.7143,687.2391,691.8095,687.5857,701.9048,687.6711,712,687,712.6793,687,712.2546,697.8227,712.4636,708.6453,712.7022,719.468,711.2788,730.2906,712,741.1133,712,741.7918,701.9048,740.8168,691.8095,741.6471,681.7143,740.6183,671.619,741.0448,661.5238,741.8549,651.4286,741.0645,641.3333,741.2186,631.2381,741.4519,621.1429,741.5295,611.0476,741.1094,600.9524,741.4005,590.8571,740.5409,580.7619,741.3977,570.6667,741.6615,560.5714,741.5578,550.4762,741.7263,540.381,740.6302,530.2857,740.4611,520.1905,740.4919,510.0952,741.0544,500,741.1133,499.8035,741.1133,500.6814,730.2906,499.8253,719.468,499.6569,708.6453,500.2283,697.8227,500,687" style="stroke: #FF69B4; stroke-width: 3.0;"/><text fill="#FF69B4" font-family="courier" font-size="20" font-weight="bold" lengthAdjust="spacingAndGlyphs" textLength="204" x="504" y="713.1074">ConcreteProductAB</text><path d="M501,725.1133 L501,725.3935 L511,724.5609 L521,725.371 L531,725.6462 L541,724.1621 L551,725.0097 L561,724.5446 L571,724.6019 L581,725.0224 L591,724.1915 L601,725.8515 L611,724.2729 L621,724.8496 L631,725.6892 L641,724.9989 L651,725.2043 L661,725.0707 L671,725.3513 L681,725.4321 L691,725.8942 L701,726.008 L711,725.1133 " fill="#222222" style="stroke: #FF69B4; stroke-width: 3.0;"/><path d="M501,733.1133 L501,733.3935 L511,732.5609 L521,733.371 L531,733.6462 L541,732.1621 L551,733.0097 L561,732.5446 L571,732.6019 L581,733.0224 L591,732.1915 L601,733.8515 L611,732.2729 L621,732.8496 L631,733.6892 L641,732.9989 L651,733.2043 L661,733.0707 L671,733.3513 L681,733.4321 L691,733.8942 L701,734.008 L711,733.1133 " fill="#222222" style="stroke: #FF69B4; stroke-width: 3.0;"/><!--class AbstractProductB--><polygon fill="#222222" points="504,551.5,504,551.7102,514,551.0857,524,551.6933,534,551.8997,544,550.7866,554,551.4223,564,551.0735,574,551.1165,584,551.4318,594,550.8086,604,552.0536,614,550.8697,624,551.3022,634,551.9319,644,551.4142,654,551.5682,664,551.4681,674,551.6785,684,551.7391,694,552.0857,704,551.5,704.6711,551.5,704.6793,562.3227,704.2546,573.1453,704.4636,583.968,704.7022,594.7906,704,605.6133,704,604.8921,694,606.2918,684,605.3168,674,606.1471,664,605.1183,654,605.5448,644,606.3549,634,605.5645,624,605.7186,614,605.9519,604,606.0295,594,605.6094,584,605.9005,574,605.0409,564,605.8977,554,606.1615,544,606.0578,534,606.2263,524,605.1302,514,604.9611,504,605.6133,503.3786,605.6133,503.9411,594.7906,503.8035,583.968,504.6814,573.1453,503.8253,562.3227,504,551.5" style="stroke: #FF69B4; stroke-width: 3.0;"/><text fill="#FF69B4" font-family="courier" font-size="20" font-weight="bold" lengthAdjust="spacingAndGlyphs" textLength="192" x="508" y="577.6074">AbstractProductB</text><path d="M505,589.6133 L505,589.8935 L514.9,589.0609 L524.8,589.871 L534.7,590.1462 L544.6,588.6621 L554.5,589.5097 L564.4,589.0446 L574.3,589.1019 L584.2,589.5224 L594.1,588.6915 L604,590.3515 L613.9,588.7729 L623.8,589.3496 L633.7,590.1892 L643.6,589.4989 L653.5,589.7043 L663.4,589.5707 L673.3,589.8513 L683.2,589.9321 L693.1,590.3942 L703,589.6133 " fill="#222222" style="stroke: #FF69B4; stroke-width: 3.0;"/><path d="M505,597.6133 L505,597.8935 L514.9,597.0609 L524.8,597.871 L534.7,598.1462 L544.6,596.6621 L554.5,597.5097 L564.4,597.0446 L574.3,597.1019 L584.2,597.5224 L594.1,596.6915 L604,598.3515 L613.9,596.7729 L623.8,597.3496 L633.7,598.1892 L643.6,597.4989 L653.5,597.7043 L663.4,597.5707 L673.3,597.8513 L683.2,597.9321 L693.1,598.3942 L703,597.6133 " fill="#222222" style="stroke: #FF69B4; stroke-width: 3.0;"/><!--class ConcreteProductBA--><polygon fill="#222222" points="253,687,253,687.2102,263.0952,686.5857,273.1905,687.1933,283.2857,687.3997,293.381,686.2866,303.4762,686.9223,313.5714,686.5735,323.6667,686.6165,333.7619,686.9318,343.8571,686.3086,353.9524,687.5536,364.0476,686.3697,374.1429,686.8022,384.2381,687.4319,394.3333,686.9142,404.4286,687.0682,414.5238,686.9681,424.619,687.1785,434.7143,687.2391,444.8095,687.5857,454.9048,687.6711,465,687,465.6793,687,465.2546,697.8227,465.4636,708.6453,465.7022,719.468,464.2788,730.2906,465,741.1133,465,741.7918,454.9048,740.8168,444.8095,741.6471,434.7143,740.6183,424.619,741.0448,414.5238,741.8549,404.4286,741.0645,394.3333,741.2186,384.2381,741.4519,374.1429,741.5295,364.0476,741.1094,353.9524,741.4005,343.8571,740.5409,333.7619,741.3977,323.6667,741.6615,313.5714,741.5578,303.4762,741.7263,293.381,740.6302,283.2857,740.4611,273.1905,740.4919,263.0952,741.0544,253,741.1133,252.8035,741.1133,253.6814,730.2906,252.8253,719.468,252.6569,708.6453,253.2283,697.8227,253,687" style="stroke: #FF69B4; stroke-width: 3.0;"/><text fill="#FF69B4" font-family="courier" font-size="20" font-weight="bold" lengthAdjust="spacingAndGlyphs" textLength="204" x="257" y="713.1074">ConcreteProductBA</text><path d="M254,725.1133 L254,725.3935 L264,724.5609 L274,725.371 L284,725.6462 L294,724.1621 L304,725.0097 L314,724.5446 L324,724.6019 L334,725.0224 L344,724.1915 L354,725.8515 L364,724.2729 L374,724.8496 L384,725.6892 L394,724.9989 L404,725.2043 L414,725.0707 L424,725.3513 L434,725.4321 L444,725.8942 L454,726.008 L464,725.1133 " fill="#222222" style="stroke: #FF69B4; stroke-width: 3.0;"/><path d="M254,733.1133 L254,733.3935 L264,732.5609 L274,733.371 L284,733.6462 L294,732.1621 L304,733.0097 L314,732.5446 L324,732.6019 L334,733.0224 L344,732.1915 L354,733.8515 L364,732.2729 L374,732.8496 L384,733.6892 L394,732.9989 L404,733.2043 L414,733.0707 L424,733.3513 L434,733.4321 L444,733.8942 L454,734.008 L464,733.1133 " fill="#222222" style="stroke: #FF69B4; stroke-width: 3.0;"/><!--class ConcreteProductBB--><polygon fill="#222222" points="747,687,747,687.2102,757.0952,686.5857,767.1905,687.1933,777.2857,687.3997,787.381,686.2866,797.4762,686.9223,807.5714,686.5735,817.6667,686.6165,827.7619,686.9318,837.8571,686.3086,847.9524,687.5536,858.0476,686.3697,868.1429,686.8022,878.2381,687.4319,888.3333,686.9142,898.4286,687.0682,908.5238,686.9681,918.619,687.1785,928.7143,687.2391,938.8095,687.5857,948.9048,687.6711,959,687,959.6793,687,959.2546,697.8227,959.4636,708.6453,959.7022,719.468,958.2788,730.2906,959,741.1133,959,741.7918,948.9048,740.8168,938.8095,741.6471,928.7143,740.6183,918.619,741.0448,908.5238,741.8549,898.4286,741.0645,888.3333,741.2186,878.2381,741.4519,868.1429,741.5295,858.0476,741.1094,847.9524,741.4005,837.8571,740.5409,827.7619,741.3977,817.6667,741.6615,807.5714,741.5578,797.4762,741.7263,787.381,740.6302,777.2857,740.4611,767.1905,740.4919,757.0952,741.0544,747,741.1133,746.8035,741.1133,747.6814,730.2906,746.8253,719.468,746.6569,708.6453,747.2283,697.8227,747,687" style="stroke: #FF69B4; stroke-width: 3.0;"/><text fill="#FF69B4" font-family="courier" font-size="20" font-weight="bold" lengthAdjust="spacingAndGlyphs" textLength="204" x="751" y="713.1074">ConcreteProductBB</text><path d="M748,725.1133 L748,725.3935 L758,724.5609 L768,725.371 L778,725.6462 L788,724.1621 L798,725.0097 L808,724.5446 L818,724.6019 L828,725.0224 L838,724.1915 L848,725.8515 L858,724.2729 L868,724.8496 L878,725.6892 L888,724.9989 L898,725.2043 L908,725.0707 L918,725.3513 L928,725.4321 L938,725.8942 L948,726.008 L958,725.1133 " fill="#222222" style="stroke: #FF69B4; stroke-width: 3.0;"/><path d="M748,733.1133 L748,733.3935 L758,732.5609 L768,733.371 L778,733.6462 L788,732.1621 L798,733.0097 L808,732.5446 L818,732.6019 L828,733.0224 L838,732.1915 L848,733.8515 L858,732.2729 L868,732.8496 L878,733.6892 L888,732.9989 L898,733.2043 L908,733.0707 L918,733.3513 L928,733.4321 L938,733.8942 L948,734.008 L958,733.1133 " fill="#222222" style="stroke: #FF69B4; stroke-width: 3.0;"/><!--class AbstractFactory--><polygon fill="#222222" points="134,373,134,373.2102,144,372.5857,154,373.1933,164,373.3997,174,372.2866,184,372.9223,194,372.5735,204,372.6165,214,372.9318,224,372.3086,234,373.5536,244,372.3697,254,372.8022,264,373.4319,274,372.9142,284,373.0682,294,372.9681,304,373.1785,314,373.2391,324,373.5857,334,373,334.6711,373,334.6793,382.7283,334.2546,392.4566,334.4636,402.185,334.7022,411.9133,333.2788,421.6416,334.6785,431.3699,333.7035,441.0982,334.5338,450.8266,333.505,460.5549,334,470.2832,334,470.2147,324,471.0248,314,470.2345,304,470.3885,294,470.6218,284,470.6994,274,470.2793,264,470.5704,254,469.7108,244,470.5676,234,470.8314,224,470.7277,214,470.8962,204,469.8001,194,469.631,184,469.6618,174,470.2243,164,470.0867,154,470.9646,144,470.1085,134,470.2832,133.6569,470.2832,134.2283,460.5549,133.3332,450.8266,133.4809,441.0982,134.649,431.3699,134.4357,421.6416,134.7345,411.9133,133.6782,402.185,134.3192,392.4566,134.5904,382.7283,134,373" style="stroke: #FF69B4; stroke-width: 3.0;"/><text fill="#FF69B4" font-family="courier" font-size="20" font-weight="bold" lengthAdjust="spacingAndGlyphs" textLength="192" x="138" y="399.1074">Abstract Factory</text><path d="M135,411.1133 L135,411.3935 L144.9,410.5609 L154.8,411.371 L164.7,411.6462 L174.6,410.1621 L184.5,411.0097 L194.4,410.5446 L204.3,410.6019 L214.2,411.0224 L224.1,410.1915 L234,411.8515 L243.9,410.2729 L253.8,410.8496 L263.7,411.6892 L273.6,410.9989 L283.5,411.2043 L293.4,411.0707 L303.3,411.3513 L313.2,411.4321 L323.1,411.8942 L333,411.1133 " fill="#222222" style="stroke: #FF69B4; stroke-width: 3.0;"/><path d="M135,419.1133 L135,419.3935 L144.9,418.5609 L154.8,419.371 L164.7,419.6462 L174.6,418.1621 L184.5,419.0097 L194.4,418.5446 L204.3,418.6019 L214.2,419.0224 L224.1,418.1915 L234,419.8515 L243.9,418.2729 L253.8,418.8496 L263.7,419.6892 L273.6,418.9989 L283.5,419.2043 L293.4,419.0707 L303.3,419.3513 L313.2,419.4321 L323.1,419.8942 L333,419.1133 " fill="#222222" style="stroke: #FF69B4; stroke-width: 3.0;"/><polygon fill="#84BE84" points="148.0166,436.1355,147.5768,436.7363,147.0567,437.6164,146.3128,438.2095,145.5311,438.5338,144.9078,438.562,144.1067,438.1564,143.3509,437.8914,142.7771,437.3534,142.4762,436.7374,142.2977,436.247,142.1229,435.6064,141.8391,435.0552,142.0572,434.5169,142.2482,433.9274,142.9653,433.4611,143.4697,432.8561,144.0941,432.6552,144.8364,432.4821,145.7883,432.5849,146.3097,432.8308,146.9158,432.9423,147.6529,433.6974,147.9098,434.4946,148.0214,435.0385,147.895,435.9348" style="stroke: #038048; stroke-width: 1.0;"/><text fill="#A9A9A9" font-family="courier" font-size="15" lengthAdjust="spacingAndGlyphs" textLength="144" x="155" y="439.1938">createProductA()</text><polygon fill="#84BE84" points="148.0166,457.7204,147.5768,458.3213,147.0567,459.2014,146.3128,459.7945,145.5311,460.1188,144.9078,460.1469,144.1067,459.7413,143.3509,459.4763,142.7771,458.9383,142.4762,458.3224,142.2977,457.832,142.1229,457.1914,141.8391,456.6401,142.0572,456.1019,142.2482,455.5123,142.9653,455.046,143.4697,454.441,144.0941,454.2401,144.8364,454.0671,145.7883,454.1699,146.3097,454.4158,146.9158,454.5272,147.6529,455.2824,147.9098,456.0795,148.0214,456.6235,147.895,457.5198" style="stroke: #038048; stroke-width: 1.0;"/><text fill="#A9A9A9" font-family="courier" font-size="15" lengthAdjust="spacingAndGlyphs" textLength="144" x="155" y="460.7788">createProductB()</text><!--class ConcreteFactoryA--><polygon fill="#222222" points="16,530,16,530.2102,26,529.5857,36,530.1933,46,530.3997,56,529.2866,66,529.9223,76,529.5735,86,529.6165,96,529.9318,106,529.3086,116,530.5536,126,529.3697,136,529.8022,146,530.4319,156,529.9142,166,530.0682,176,529.9681,186,530.1785,196,530.2391,206,530.5857,216,530,216.6711,530,216.6793,539.7283,216.2546,549.4566,216.4636,559.185,216.7022,568.9133,215.2788,578.6416,216.6785,588.3699,215.7035,598.0982,216.5338,607.8266,215.505,617.5549,216,627.2832,216,627.2147,206,628.0248,196,627.2345,186,627.3885,176,627.6218,166,627.6994,156,627.2793,146,627.5704,136,626.7108,126,627.5676,116,627.8314,106,627.7277,96,627.8962,86,626.8001,76,626.631,66,626.6618,56,627.2243,46,627.0867,36,627.9646,26,627.1085,16,627.2832,15.6569,627.2832,16.2283,617.5549,15.3332,607.8266,15.4809,598.0982,16.649,588.3699,16.4357,578.6416,16.7345,568.9133,15.6782,559.185,16.3192,549.4566,16.5904,539.7283,16,530" style="stroke: #FF69B4; stroke-width: 3.0;"/><text fill="#FF69B4" font-family="courier" font-size="20" font-weight="bold" lengthAdjust="spacingAndGlyphs" textLength="192" x="20" y="556.1074">ConcreteFactoryA</text><path d="M17,568.1133 L17,568.3935 L26.9,567.5609 L36.8,568.371 L46.7,568.6462 L56.6,567.1621 L66.5,568.0097 L76.4,567.5446 L86.3,567.6019 L96.2,568.0224 L106.1,567.1915 L116,568.8515 L125.9,567.2729 L135.8,567.8496 L145.7,568.6892 L155.6,567.9989 L165.5,568.2043 L175.4,568.0707 L185.3,568.3513 L195.2,568.4321 L205.1,568.8942 L215,568.1133 " fill="#222222" style="stroke: #FF69B4; stroke-width: 3.0;"/><path d="M17,576.1133 L17,576.3935 L26.9,575.5609 L36.8,576.371 L46.7,576.6462 L56.6,575.1621 L66.5,576.0097 L76.4,575.5446 L86.3,575.6019 L96.2,576.0224 L106.1,575.1915 L116,576.8515 L125.9,575.2729 L135.8,575.8496 L145.7,576.6892 L155.6,575.9989 L165.5,576.2043 L175.4,576.0707 L185.3,576.3513 L195.2,576.4321 L205.1,576.8942 L215,576.1133 " fill="#222222" style="stroke: #FF69B4; stroke-width: 3.0;"/><polygon fill="#84BE84" points="30.0166,593.1355,29.5768,593.7363,29.0567,594.6164,28.3128,595.2095,27.5311,595.5338,26.9078,595.562,26.1067,595.1564,25.3509,594.8914,24.7771,594.3534,24.4762,593.7374,24.2977,593.247,24.1229,592.6064,23.8391,592.0552,24.0572,591.5169,24.2482,590.9274,24.9653,590.4611,25.4697,589.8561,26.0941,589.6552,26.8364,589.4821,27.7883,589.5849,28.3097,589.8308,28.9158,589.9423,29.6529,590.6974,29.9098,591.4946,30.0214,592.0385,29.895,592.9348" style="stroke: #038048; stroke-width: 1.0;"/><text fill="#A9A9A9" font-family="courier" font-size="15" lengthAdjust="spacingAndGlyphs" textLength="144" x="37" y="596.1938">createProductA()</text><polygon fill="#84BE84" points="30.0166,614.7204,29.5768,615.3213,29.0567,616.2014,28.3128,616.7945,27.5311,617.1188,26.9078,617.1469,26.1067,616.7413,25.3509,616.4763,24.7771,615.9383,24.4762,615.3224,24.2977,614.832,24.1229,614.1914,23.8391,613.6401,24.0572,613.1019,24.2482,612.5123,24.9653,612.046,25.4697,611.441,26.0941,611.2401,26.8364,611.0671,27.7883,611.1699,28.3097,611.4158,28.9158,611.5272,29.6529,612.2824,29.9098,613.0795,30.0214,613.6235,29.895,614.5198" style="stroke: #038048; stroke-width: 1.0;"/><text fill="#A9A9A9" font-family="courier" font-size="15" lengthAdjust="spacingAndGlyphs" textLength="144" x="37" y="617.7788">createProductB()</text><!--class ConcreteFactoryB--><polygon fill="#222222" points="748,530,748,530.2102,758,529.5857,768,530.1933,778,530.3997,788,529.2866,798,529.9223,808,529.5735,818,529.6165,828,529.9318,838,529.3086,848,530.5536,858,529.3697,868,529.8022,878,530.4319,888,529.9142,898,530.0682,908,529.9681,918,530.1785,928,530.2391,938,530.5857,948,530,948.6711,530,948.6793,539.7283,948.2546,549.4566,948.4636,559.185,948.7022,568.9133,947.2788,578.6416,948.6785,588.3699,947.7035,598.0982,948.5338,607.8266,947.505,617.5549,948,627.2832,948,627.2147,938,628.0248,928,627.2345,918,627.3885,908,627.6218,898,627.6994,888,627.2793,878,627.5704,868,626.7108,858,627.5676,848,627.8314,838,627.7277,828,627.8962,818,626.8001,808,626.631,798,626.6618,788,627.2243,778,627.0867,768,627.9646,758,627.1085,748,627.2832,747.6569,627.2832,748.2283,617.5549,747.3332,607.8266,747.4809,598.0982,748.649,588.3699,748.4357,578.6416,748.7345,568.9133,747.6782,559.185,748.3192,549.4566,748.5904,539.7283,748,530" style="stroke: #FF69B4; stroke-width: 3.0;"/><text fill="#FF69B4" font-family="courier" font-size="20" font-weight="bold" lengthAdjust="spacingAndGlyphs" textLength="192" x="752" y="556.1074">ConcreteFactoryB</text><path d="M749,568.1133 L749,568.3935 L758.9,567.5609 L768.8,568.371 L778.7,568.6462 L788.6,567.1621 L798.5,568.0097 L808.4,567.5446 L818.3,567.6019 L828.2,568.0224 L838.1,567.1915 L848,568.8515 L857.9,567.2729 L867.8,567.8496 L877.7,568.6892 L887.6,567.9989 L897.5,568.2043 L907.4,568.0707 L917.3,568.3513 L927.2,568.4321 L937.1,568.8942 L947,568.1133 " fill="#222222" style="stroke: #FF69B4; stroke-width: 3.0;"/><path d="M749,576.1133 L749,576.3935 L758.9,575.5609 L768.8,576.371 L778.7,576.6462 L788.6,575.1621 L798.5,576.0097 L808.4,575.5446 L818.3,575.6019 L828.2,576.0224 L838.1,575.1915 L848,576.8515 L857.9,575.2729 L867.8,575.8496 L877.7,576.6892 L887.6,575.9989 L897.5,576.2043 L907.4,576.0707 L917.3,576.3513 L927.2,576.4321 L937.1,576.8942 L947,576.1133 " fill="#222222" style="stroke: #FF69B4; stroke-width: 3.0;"/><polygon fill="#84BE84" points="762.0166,593.1355,761.5768,593.7363,761.0567,594.6164,760.3128,595.2095,759.5311,595.5338,758.9078,595.562,758.1067,595.1564,757.3509,594.8914,756.7771,594.3534,756.4762,593.7374,756.2977,593.247,756.1229,592.6064,755.8391,592.0552,756.0572,591.5169,756.2482,590.9274,756.9653,590.4611,757.4697,589.8561,758.0941,589.6552,758.8364,589.4821,759.7883,589.5849,760.3097,589.8308,760.9158,589.9423,761.6529,590.6974,761.9098,591.4946,762.0214,592.0385,761.895,592.9348" style="stroke: #038048; stroke-width: 1.0;"/><text fill="#A9A9A9" font-family="courier" font-size="15" lengthAdjust="spacingAndGlyphs" textLength="144" x="769" y="596.1938">createProductA()</text><polygon fill="#84BE84" points="762.0166,614.7204,761.5768,615.3213,761.0567,616.2014,760.3128,616.7945,759.5311,617.1188,758.9078,617.1469,758.1067,616.7413,757.3509,616.4763,756.7771,615.9383,756.4762,615.3224,756.2977,614.832,756.1229,614.1914,755.8391,613.6401,756.0572,613.1019,756.2482,612.5123,756.9653,612.046,757.4697,611.441,758.0941,611.2401,758.8364,611.0671,759.7883,611.1699,760.3097,611.4158,760.9158,611.5272,761.6529,612.2824,761.9098,613.0795,762.0214,613.6235,761.895,614.5198" style="stroke: #038048; stroke-width: 1.0;"/><text fill="#A9A9A9" font-family="courier" font-size="15" lengthAdjust="spacingAndGlyphs" textLength="144" x="769" y="617.7788">createProductB()</text><!--link Scenario to Director--><path d="M289.098,84.4 L289.3449,84.5327 L293.1621,92.6066 L298.4265,101.4582 L303.2197,110.0565 L306.4631,117.8221 L311.7605,126.6914 L315.9016,134.9393 L320.5028,143.4345 L325.424,152.1016 L329.2428,160.1764 L335.2557,169.4303 L338.416,177.1511 L343.707,186.017 " fill="none" style="stroke: #A9A9A9; stroke-width: 2.0; stroke-dasharray: 7.0,7.0;"/><polygon fill="#A9A9A9" points="346.093,190.457,346.1629,190.4622,345.8078,188.4824,345.8623,186.5333,345.7834,184.5742,345.2659,182.5822,345.3556,180.6358,345.3308,180.6283,344.8935,181.6782,344.5813,182.7658,344.356,183.8795,343.8312,184.903,343.7259,186.0528,343.7791,186.2295,342.582,185.5257,341.5401,185.3378,340.5172,185.2129,339.3841,184.7217,338.3089,184.4231,338.3228,184.4411,339.8592,185.6215,341.459,186.8837,343.0282,188.1065,344.6558,189.4045,346.093,190.457" style="stroke: #A9A9A9; stroke-width: 2.0;"/><!--link Director to AbstractProductA--><path d="M366.321,266.742 L366.6012,266.7444 L365.8546,276.7138 L366.7507,286.6974 L367.1119,296.6763 L365.7138,306.6401 L366.6474,316.624 L366.2684,326.5965 L366.4117,336.5736 L366.9181,346.5538 L366.1732,356.5232 L367.9192,366.5141 L366.4267,376.477 L367.0893,386.4586 L368.0149,396.4424 L367.4106,406.413 L367.702,416.3914 L367.6544,426.3668 L368.021,436.3458 L368.1878,446.323 L368.7359,456.3036 L368.9357,466.2811 L369.0326,476.2578 L368.5525,486.2295 L368.9171,496.2085 L369.3213,506.1878 L367.5095,516.148 L369.4616,526.1407 L368.2477,536.106 L368.729,546.086 " fill="none" style="stroke: #A9A9A9; stroke-width: 2.0; stroke-dasharray: 7.0,7.0;"/><polygon fill="#A9A9A9" points="368.774,551.308,368.8383,551.3359,369.4319,549.4462,370.4022,547.7201,371.2498,545.9407,371.694,543.9861,372.6967,542.274,372.6782,542.2559,371.8022,542.9812,371.0193,543.7981,370.3012,544.6786,369.3599,545.3398,368.7311,546.3082,368.8605,546.4398,367.777,545.3652,367.0713,544.6749,366.4116,544.0315,365.4838,543.1153,364.697,542.3426,364.7177,542.352,365.5027,544.1313,366.382,545.9534,367.2158,547.7548,368.1363,549.5957,368.774,551.308" style="stroke: #A9A9A9; stroke-width: 2.0;"/><!--link Director to AbstractProductB--><path d="M391.47,266.742 L391.7013,266.9002 L396.6485,274.6688 L402.9517,283.3648 L408.8134,291.7589 L413.2229,299.1597 L419.557,307.8769 L424.8076,315.853 L430.4894,324.1241 L436.471,332.6001 L441.4196,340.3697 L448.4243,349.5455 L452.7558,356.893 L458.8663,365.4573 L465.1939,374.1699 L470.2586,382.0189 L476.0626,390.3735 L481.5868,398.5368 L487.453,406.9339 L493.1542,415.2182 L499.1701,423.7177 L504.8985,432.0206 L510.5421,440.2655 L515.7092,448.1845 L521.5737,456.5805 L527.4709,464.9988 L531.5388,472.1661 L538.7137,481.4583 L543.2752,488.9631 L549.8235,497.8267 L554.3257,505.291 L560.4296,513.8507 L566.9557,522.6992 L571.7204,530.343 L577.5244,538.6976 L583.043,546.857 " fill="none" style="stroke: #A9A9A9; stroke-width: 2.0; stroke-dasharray: 7.0,7.0;"/><polygon fill="#A9A9A9" points="586.087,551.308,586.1559,551.3207,585.5953,549.3457,585.4386,547.4449,585.1504,545.52,584.4296,543.5156,584.3076,541.6212,584.2822,541.6164,583.9592,542.7069,583.7646,543.8216,583.6593,544.9529,583.2464,546.0265,583.2642,547.181,583.2983,547.3624,582.1135,546.7658,581.0282,546.6989,579.9549,546.6965,578.8111,546.3182,577.7044,546.1376,577.7164,546.157,579.3754,547.1626,581.0887,548.2564,582.7758,549.3077,584.513,550.4401,586.087,551.308" style="stroke: #A9A9A9; stroke-width: 2.0;"/><!--link Director to AbstractFactory--><path d="M340.236,266.78 L340.4665,266.9393 L333.9229,274.9432 L328.7307,283.881 L323.0984,292.5147 L316.0188,300.1482 L310.8574,309.1073 L304.6162,317.3202 L298.8047,325.83 L293.2919,334.5463 L286.7497,342.5512 L282.2566,351.9722 L275.0993,359.552 L269.932,368.507 " fill="none" style="stroke: #A9A9A9; stroke-width: 2.0; stroke-dasharray: 7.0,7.0;"/><polygon fill="#A9A9A9" points="266.973,372.789,267.0095,372.8488,268.5825,371.645,270.3694,370.7918,272.0866,369.8244,273.5747,368.4816,275.38,367.6585,275.3754,367.633,274.2415,367.7221,273.1312,367.9395,272.0371,368.2463,270.8868,368.2454,269.8153,368.6755,269.9969,368.7086,269.4053,367.5248,269.3437,366.4377,269.3468,365.3625,268.9736,364.2186,268.7984,363.1108,268.8207,363.115,268.4228,365.0444,268.1267,366.9931,267.7815,368.9325,267.5299,370.8895,266.973,372.789" style="stroke: #A9A9A9; stroke-width: 2.0;"/><!--link Scenario to AbstractFactory--><path d="M238.67,84.225 L238.7478,84.2767 L236.715,86.8337 L235.1382,89.6939 L233.413,92.4554 L231.1993,94.8922 L229.6617,97.7784 L229.6318,97.7611 L227.7914,100.6288 L226.1017,103.5838 L224.5167,106.5995 L222.5708,109.4062 L221.1304,112.5056 L221.3523,112.6118 L219.3919,115.4909 L218.0795,118.68 L216.8461,121.9069 L215.1527,124.9137 L213.7013,128.0363 L213.7299,128.0465 L212.5477,131.2243 L211.4955,134.4485 L210.3806,137.6503 L209.3854,140.8948 L208,144 L208.2891,144.0735 L207.5636,146.9424 L206.6517,149.764 L206.0128,152.6549 L205.3866,155.5491 L204.3551,158.3403 L204.0403,158.2799 L204.0902,161.3249 L203.1034,164.1712 L202.9047,167.1685 L201.8945,170.0103 L201.5494,172.9796 L201.5193,172.9755 L201.471,175.9969 L200.7179,178.9222 L200.3808,181.9042 L200.0785,184.891 L199.5243,187.8434 L199.7086,187.8594 L199.262,190.846 L199.1303,193.8599 L198.4891,196.8296 L198.6079,199.8652 L198.2213,202.857 L198.4648,202.8673 L198.2908,205.8831 L198.2378,208.904 L197.6231,211.9011 L197.4202,214.9156 L197.5819,217.9456 L197.3057,217.945 L197.5488,220.9634 L197.4807,223.9811 L197.864,226.9998 L197.4767,230.0167 L197.5474,233.0347 L197.395,233.0295 L197.7512,236.0411 L197.456,239.0305 L197.624,242.0357 L198.2453,245.0564 L198.0594,248.0495 L198.2526,248.0625 L198.5851,251.0446 L198.3167,253.9863 L198.8009,256.9785 L199.1212,259.9598 L199.0594,262.9154 L198.8504,262.895 L199.3028,265.8397 L199.6869,268.7777 L200.2053,271.7289 L200.201,274.629 L200.4887,277.5576 L200.6927,277.5832 L200.6046,280.3958 L200.9102,283.2578 L201.791,286.1919 L201.6128,288.9932 L202.289,291.9016 L202.5127,291.9355 L202.8023,294.7096 L203.0163,297.4722 L203.4011,300.2607 L204.1807,303.1089 L204.4016,305.8727 L204.2705,305.8497 L205.134,308.6227 L205.1062,311.2397 L206.0917,314.034 L206.5067,316.7285 L206.768,319.3961 L206.8748,319.4171 L207.3009,322.0004 L208.1095,324.659 L208.5725,327.2495 L208.8911,329.8115 L209.3297,332.3972 L209.4461,332.4225 L209.8128,334.8657 L210.7202,337.4265 L211.016,339.8543 L211.5633,342.3368 L212.0281,344.8013 L211.765,344.7391 L212.4081,347.1064 L213.3683,349.5487 L213.8799,351.8848 L214.2308,354.1829 L214.8047,356.5338 L214.6659,356.4985 L215.2697,358.7071 L215.6277,360.8531 L216.6611,363.171 L217.3603,365.4038 L217.601,367.52 " fill="none" style="stroke: #A9A9A9; stroke-width: 2.0; stroke-dasharray: 7.0,7.0;"/><polygon fill="#A9A9A9" points="218.941,372.536,219.0102,372.547,219.113,370.5689,219.6215,368.6551,219.9979,366.7204,219.9399,364.7169,220.4832,362.8086,220.4608,362.7957,219.7937,363.7168,219.2396,364.7033,218.7641,365.7353,218.0178,366.6106,217.6508,367.7053,217.7432,367.8651,216.5663,366.957,215.6591,366.5153,214.7849,366.1305,213.7192,365.4147,212.7541,364.8729,212.7718,364.8872,213.9832,366.3989,215.2752,367.9755,216.5283,369.5208,217.8555,371.126,218.941,372.536" style="stroke: #A9A9A9; stroke-width: 2.0;"/><!--link Scenario to ConcreteFactoryA--><path d="M233.162,84.261 L233.2334,84.3212 L230.7362,86.8536 L228.6577,89.7388 L226.4428,92.5092 L223.7795,94.9016 L221.737,97.8172 L221.7097,97.796 L219.3048,100.6458 L217.0375,103.6023 L214.8659,106.6328 L212.3646,109.4079 L210.3251,112.5409 L210.5272,112.6813 L207.9383,115.4847 L205.9394,118.6981 L204.0124,121.9615 L201.6667,124.9339 L199.5412,128.0594 L199.5673,128.0749 L197.6208,131.2402 L195.7928,134.4764 L193.9077,137.6783 L192.1316,140.9456 L190,144 L190.2628,144.141 L188.4524,147.5221 L186.4725,150.8121 L184.7407,154.2353 L183.0206,157.6648 L180.932,160.8965 L180.6475,160.7487 L179.5799,164.1533 L177.5758,167.0713 L176.2836,170.3592 L174.2582,173.2662 L172.8338,176.4854 L172.8066,176.4718 L171.6871,179.5298 L169.9308,182.2708 L168.5502,185.1989 L167.2012,188.1427 L165.6247,190.9732 L165.792,191.052 L164.3429,193.691 L163.1797,196.4647 L161.5539,199.0206 L160.6182,201.9014 L159.2236,204.5661 L159.4467,204.6642 L158.2697,207.2265 L157.2035,209.8376 L155.6228,212.2224 L154.4192,214.7731 L153.5498,217.4706 L153.2938,217.367 L152.52,219.9453 L151.4578,222.4068 L150.814,225.0377 L149.4558,227.3794 L148.5223,229.893 L148.3792,229.8405 L147.7251,232.3574 L146.4593,234.6495 L145.6285,237.1015 L145.2234,239.7098 L144.0603,242.0397 L144.2442,242.1003 L143.5748,244.5573 L142.3334,246.8259 L141.8085,249.3305 L141.1275,251.7836 L140.0828,254.117 L139.8812,254.058 L139.3271,256.5479 L138.707,259.0184 L138.2165,261.5269 L137.2219,263.8879 L136.5089,266.3313 L136.7079,266.3828 L135.6204,268.7811 L134.9171,271.2788 L134.775,273.9219 L133.5996,276.2975 L133.2579,278.8888 L133.4783,278.9394 L132.7455,281.5308 L131.9381,284.1051 L131.2991,286.718 L131.0492,289.4203 L130.2487,291.9961 L130.1184,291.9693 L129.9367,294.8217 L128.8688,297.492 L128.8086,300.3693 L128.181,303.13 L127.4005,305.8594 L127.5075,305.8794 L126.8675,308.8284 L126.6107,311.8489 L126.0077,314.8048 L125.26,317.7337 L124.6324,320.6851 L124.7499,320.7054 L124.0216,323.8741 L123.8386,327.1371 L123.0389,330.2935 L122.4929,333.4937 L121.8636,336.6795 L121.5967,336.6364 L120.5131,343.9149 L119.751,351.2453 L118.534,358.5022 L117.1539,365.7329 L116,373 L115.8581,372.981 L115.3839,376.8739 L114.6583,380.7332 L114.6236,384.6848 L114.247,388.5908 L113.4015,392.434 L113.6344,392.4555 L113.342,396.44 L112.6069,400.3836 L112.339,404.3703 L111.7618,408.3285 L111.5663,412.3219 L111.6923,412.3302 L111.5438,414.3332 L111.5474,416.3463 L111.0686,418.3276 L110.9789,420.3345 L110.9066,422.3425 L111.1034,422.3524 L111.0578,424.3595 L110.4779,426.3399 L110.5187,428.3513 L110.5704,430.3634 L110.4036,432.3644 L110.1322,432.3565 L110.4443,436.3486 L110.2857,440.327 L110.0101,444.302 L110.0018,448.2847 L109.8224,452.2625 L110.1462,452.264 L109.6652,456.1527 L109.9261,460.0449 L109.895,463.9358 L109.8014,467.8263 L109.7318,471.717 L109.7944,471.718 L109.8441,475.4601 L109.5781,479.197 L109.7392,482.941 L109.7741,486.6829 L110.041,490.4286 L110.0694,490.4296 L110.2038,493.9639 L110.3601,497.499 L110.2826,501.0259 L110.5054,504.5634 L110.659,508.0984 L110.6057,508.0956 L111.0823,511.3772 L111.1828,514.6395 L110.9451,517.8845 L111.2954,521.1596 L111.495,524.427 " fill="none" style="stroke: #A9A9A9; stroke-width: 2.0; stroke-dasharray: 7.0,7.0;"/><polygon fill="#A9A9A9" points="111.815,529.653,111.8806,529.6775,112.374,527.7592,113.2522,525.9844,114.0051,524.1629,114.3459,522.1877,115.2572,520.4252,115.2378,520.4081,114.4011,521.1785,113.6622,522.0354,112.9914,522.9525,112.0862,523.6622,111.5092,524.6624,111.6315,524.8006,110.5226,523.7554,109.7707,523.1138,109.0624,522.5215,108.1006,521.6426,107.2721,520.9144,107.2923,520.9249,108.1713,522.6572,109.1421,524.4373,110.0686,526.1943,111.0796,527.9953,111.815,529.653" style="stroke: #A9A9A9; stroke-width: 2.0;"/><!--link Scenario to ConcreteFactoryB--><path d="M321.088,49.759 L321.0934,49.8523 L327.9456,49.973 L334.8295,50.6404 L341.7031,51.1298 L348.5428,51.0337 L355.4294,51.7481 L355.4272,51.7136 L363.6106,52.0631 L371.8047,52.5864 L380.0061,53.2306 L388.182,53.4583 L396.3938,54.2693 L396.4421,55.0059 L405.6278,54.0408 L414.9548,55.2264 L424.299,56.6744 L433.5429,56.5957 L442.8396,57.32 L442.8459,57.4107 L452.9937,57.993 L463.1705,58.9885 L473.3333,59.7846 L483.5229,60.9611 L493.6251,60.8977 L493.6929,61.7898 L504.4905,62.6211 L515.2443,62.877 L526.0622,63.9752 L536.883,65.1129 L547.6088,64.9997 L547.5297,64.0414 L557.0232,66.672 L566.2564,66.147 L575.6874,68.021 L584.9147,67.4246 L594.3015,68.762 L603.649,69.6237 L603.7379,70.6085 L613.1357,70.4161 L622.6466,71.4779 L632.1671,72.6449 L641.669,73.6052 L651.1111,73.9045 L660.6041,74.7668 L660.6164,74.8939 L666.2722,75.0667 L672.0018,75.9989 L677.7059,76.6687 L683.3943,77.1759 L689.0679,77.5324 L689.0957,77.8034 L694.6989,77.8977 L700.3442,78.4018 L705.9985,78.9943 L711.6768,79.8218 L717.3324,80.4268 L717.323,80.3399 L722.9494,81.3324 L728.493,81.5587 L734.0694,82.0889 L739.6812,82.9459 L745.2547,83.4497 L745.2209,83.1552 L750.7159,83.8507 L756.2627,84.9967 L761.7394,85.5327 L767.242,86.2949 L772.6923,86.6008 L772.6749,86.4588 L778.0715,87.3974 L783.4482,88.1729 L788.7528,88.3598 L794.1352,89.1817 L799.5024,89.8798 L799.5096,89.9354 L804.7479,90.8484 L809.9181,91.2406 L815.1529,92.1276 L820.3023,92.3611 L825.5422,93.2864 L825.5003,92.9884 L830.5988,94.2149 L835.5486,94.3845 L840.6499,95.6308 L845.6565,96.2045 L850.6691,96.8203 L850.6512,96.7026 L855.4598,97.397 L860.3283,98.4862 L865.0919,98.8853 L869.9658,100.009 L874.7405,100.4811 L874.7003,100.2387 L879.3599,101.5093 L883.9248,102.2084 L888.4821,102.861 L893.0423,103.5317 L897.6135,104.2685 L897.6712,104.5862 L901.9686,105.3196 L906.2397,105.908 L910.554,106.734 L914.8287,107.3425 L919.1455,108.1822 L919.2084,108.4944 L923.1687,109.0576 L927.1799,109.8733 L931.121,110.341 L935.1485,111.2374 L939.1937,112.2219 L939.2457,112.452 L942.9202,113.2413 L946.5582,113.8694 L950.2152,114.5814 L953.9097,115.4593 L957.6155,116.3872 L957.5394,116.0919 L960.9921,117.4239 L964.3586,118.4218 L967.6655,119.1882 L971.0147,120.1189 L974.2682,120.6779 L974.2508,120.6197 L977.2275,121.5982 L980.1151,122.2791 L983.149,123.4482 L986.0924,124.3155 L989.0091,125.0936 L989.0918,125.3247 L991.5119,125.9055 L994.0635,126.8535 L996.6873,128.0034 L999.2431,128.9633 L1001.6954,129.6339 L1001.6028,129.4258 L1003.7582,130.4882 L1005.918,131.5605 L1007.8785,132.1847 L1010.1504,133.5092 L1012.1844,134.2987 L1012.2503,134.3925 L1014.9218,136.2023 L1017.747,138.231 L1020.6599,140.3845 L1023.157,141.9459 L1026,144 L1026.1093,144.0875 L1027.8499,146.266 L1029.5417,148.4055 L1031.3012,150.5992 L1033.0425,152.7782 L1034.7539,154.9334 L1034.5217,154.7815 L1036.0811,157.0929 L1037.5349,159.3351 L1039.2066,161.72 L1040.692,163.9829 L1042.1356,166.2185 L1042.1993,166.2518 L1043.2339,168.4803 L1044.535,170.8479 L1045.7272,173.1587 L1047.2148,175.6238 L1048.2006,177.8268 L1048.3764,177.8977 L1048.9613,180.1265 L1050.0921,182.5757 L1050.845,184.8723 L1052.1625,187.3968 L1053.0044,189.7294 L1053.2638,189.806 L1053.9562,192.2316 L1054.2581,194.5418 L1055.3611,197.0888 L1055.5664,199.3703 L1056.6026,201.8976 L1056.6899,201.9148 L1056.9617,204.3529 L1057.624,206.868 L1058.1762,209.3613 L1058.7669,211.8623 L1059.0506,214.3027 L1058.7325,214.2686 L1059.5314,216.8479 L1059.6707,219.3565 L1060.0196,221.8876 L1060.4637,224.4288 L1060.4039,226.916 L1060.4064,226.9161 L1060.5446,229.4765 L1060.6244,232.0355 L1060.68,234.5939 L1060.6548,237.1502 L1060.718,239.7088 L1061.0335,239.7251 L1060.3135,242.2835 L1060.7011,244.8992 L1060.0393,247.4606 L1059.9425,250.0512 L1060.0484,252.6523 L1060.0661,252.6545 L1059.7413,255.2669 L1059.1919,257.8519 L1059.2723,260.514 L1058.8182,263.1106 L1058.4506,265.7178 L1058.768,265.7774 L1058.2479,268.4043 L1057.2666,270.9446 L1056.7945,273.5805 L1056.4178,276.2343 L1055.9801,278.8766 L1056.1334,278.9148 L1055.4964,281.5645 L1054.7949,284.1983 L1053.86,286.774 L1053.6244,289.5236 L1052.6923,292.1 L1052.9617,292.1823 L1051.8624,294.7457 L1050.9709,297.3726 L1050.092,300.0034 L1049.3616,302.6795 L1048.6429,305.3592 L1048.7004,305.3798 L1047.6631,308.0022 L1046.5658,310.603 L1045.9933,313.3921 L1044.6463,315.9034 L1043.8872,318.6255 L1044.0939,318.7099 L1042.9817,321.3462 L1041.8776,323.9858 L1040.9282,326.6886 L1039.4608,329.1799 L1038.4807,331.8702 L1038.3591,331.8148 L1037.4903,334.6045 L1035.8385,337.0381 L1034.785,339.7437 L1033.7261,342.4469 L1032.479,345.0645 L1032.5063,345.0781 L1031.0281,347.6164 L1029.8453,350.3021 L1028.8503,353.0814 L1027.5037,355.6854 L1025.9375,358.1798 L1025.7044,358.0538 L1024.5631,360.7979 L1022.9263,363.2742 L1021.7118,365.9787 L1020.4315,368.6476 L1018.9118,371.1873 L1019.0733,371.2808 L1017.1653,373.6134 L1016.0841,376.4249 L1014.4424,378.9117 L1012.7347,381.3603 L1011.4573,384.0582 L1011.2791,383.9484 L1010.0154,386.6755 L1008.4208,389.1988 L1006.7545,391.6778 L1004.9408,394.0661 L1003.6296,396.7639 L1003.8747,396.9235 L1001.8843,399.1907 L1000.1747,401.6406 L998.7172,404.2547 L997.3328,406.9163 L995.4841,409.2757 L995.7098,409.4302 L993.8154,411.7423 L992.0655,414.1534 L990.5016,416.6918 L988.8261,419.1537 L987.0762,421.5648 L986.8927,421.4334 L985.5029,424.0794 L983.8324,426.5244 L981.8295,428.7316 L980.0294,431.0839 L978.4616,433.6024 L978.702,433.7816 L976.7159,435.9595 L974.9552,438.3054 L973.3086,440.7364 L971.2188,442.8369 L969.6957,445.3599 L969.882,445.5041 L967.9179,447.6455 L966.3861,450.1213 L964.3028,452.1704 L962.7501,454.6301 L960.834,456.8086 L960.68,456.6852 L959.1386,459.0989 L957.4048,461.3584 L955.3793,463.3843 L953.8383,465.7983 L951.932,467.9196 L951.7363,467.7578 L949.9935,469.9353 L948.6111,472.411 L946.8343,474.5603 L945.0172,476.6765 L943.0451,478.6644 L942.9232,478.5605 L941.4119,480.8451 L939.359,482.6682 L937.7751,484.891 L935.9918,486.9438 L934.229,489.0141 L934.1412,488.9373 L932.6969,491.1796 L930.9012,493.1142 L928.9077,494.8757 L927.4531,497.109 L925.539,498.94 L925.5694,498.9673 L923.6444,500.6614 L922.0585,502.6601 L920.2603,504.4681 L918.6864,506.4775 L917.0307,508.4135 L916.826,508.2231 L913.5854,511.7267 L910.5537,515.4246 L907.2417,518.8618 L904.0119,522.3754 L900.781,525.888 " fill="none" style="stroke: #A9A9A9; stroke-width: 2.0; stroke-dasharray: 7.0,7.0;"/><polygon fill="#A9A9A9" points="897.104,529.736,897.1306,529.8008,898.8735,528.8597,900.7725,528.2985,902.6206,527.6136,904.3017,526.5219,906.214,525.9934,906.2134,525.9675,905.0797,525.8768,903.949,525.9168,902.8203,526.0474,901.6845,525.8654,900.5586,526.1214,900.7431,526.1255,900.323,524.9855,900.4415,523.8577,900.6258,522.7314,900.4276,521.5964,900.4306,520.466,900.452,520.4736,899.7553,522.3164,899.156,524.1941,898.5097,526.0549,897.9531,527.9479,897.104,529.736" style="stroke: #A9A9A9; stroke-width: 2.0;"/><!--link AbstractFactory to ConcreteFactoryA--><path d="M185.411,486.324 L185.634,486.4937 L178.3386,494.7022 L172.3505,503.9057 L165.9366,512.7852 L158.123,520.599 L152.247,529.888 " fill="none" style="stroke: #A9A9A9; stroke-width: 2.0;"/><polygon fill="none" points="179.949,481.943,179.9876,482.0015,183.4097,479.4931,187.0581,477.3276,190.6328,475.0504,193.9652,472.4061,197.633,470.27,197.6084,470.262,196.1888,474.2567,194.8934,478.2917,193.6844,482.3548,192.1778,486.3212,191.088,490.423,191.1998,490.5698,188.7329,488.5598,186.5925,486.9785,184.4918,485.4496,182.1595,483.6163,179.949,481.943" style="stroke: #A9A9A9; stroke-width: 2.0;"/><!--link AbstractFactory to ConcreteFactoryB--><path d="M354.242,444.149 L354.2599,444.2407 L362.0491,445.5003 L369.9433,447.2975 L377.8032,448.9196 L385.5508,449.9661 L393.4539,451.8094 L393.4471,451.7755 L401.9455,453.3553 L410.4785,455.1058 L419.0357,456.9748 L427.5098,458.4351 L436.1002,460.468 L436.2532,461.1901 L444.9883,461.5651 L454.17,464.0486 L463.4061,466.7893 L472.3253,468.0332 L481.4112,470.0644 L481.4309,470.1532 L490.8432,472.1176 L500.3452,474.4863 L509.8039,476.66 L519.3452,479.2059 L528.6173,480.5383 L528.6842,480.8289 L533.4997,481.9419 L538.2719,482.8674 L543.1074,484.0673 L547.9459,485.2801 L552.6904,486.0853 L552.6166,485.7734 L557.6116,487.5275 L562.3634,488.2546 L567.3001,489.7625 L572.0464,490.4663 L576.9488,491.8291 L576.9416,491.7996 L581.8963,493.336 L586.6826,494.1813 L591.5682,495.4344 L596.4623,496.7217 L601.2961,497.7621 L601.3412,497.9415 L606.1637,498.9833 L611.0632,500.3317 L615.8381,501.1841 L620.7989,502.7763 L625.6362,503.8767 L625.6973,504.1125 L630.5331,505.3256 L635.3992,506.6558 L640.1242,507.442 L644.9527,508.627 L649.8728,510.1653 L649.8012,509.8986 L654.6734,511.431 L659.4649,512.663 L664.3735,514.3308 L669.0822,515.2544 L673.9098,516.6204 L673.8689,516.4735 L678.6852,518.041 L683.3267,518.9805 L688.0925,520.3666 L692.9801,522.1895 L697.6509,523.2345 L697.7048,523.4205 L702.4116,524.9011 L706.9507,525.8033 L711.6998,527.4301 L716.4032,528.8989 L721,530 L720.9382,529.7993 L723.6613,530.783 L726.3641,531.7009 L729.1067,532.7479 L731.6947,533.2929 L734.369,534.1184 L734.4333,534.3136 L737.0024,534.7777 L739.6956,535.6187 L742.5703,537.0103 L745.1109,537.3882 L747.921,538.584 " fill="none" style="stroke: #A9A9A9; stroke-width: 2.0;"/><polygon fill="none" points="352.721,450.985,352.7561,451.0456,348.9834,448.7435,345.4165,446.7968,341.7825,444.7343,337.9283,442.2912,334.379,440.375,334.3752,440.3494,338.5489,439.6056,342.742,438.991,346.9486,438.4661,351.1088,437.6319,355.334,437.231,355.5153,437.2654,354.605,439.9426,354.224,442.7203,353.9077,445.5103,353.2155,448.2289,352.721,450.985" style="stroke: #A9A9A9; stroke-width: 2.0;"/><!--link ConcreteFactoryA to ConcreteProductAA--><path d="M114.567,627.319 L114.8471,627.3274 L113.6902,638.1405 L114.1754,649.0028 L114.1259,659.8491 L112.3178,670.6427 L112.944,681.5092 " fill="none" style="stroke: #A9A9A9; stroke-width: 2.0; stroke-dasharray: 7.0,7.0;"/><polygon fill="#A9A9A9" points="112.784,686.8312,112.8471,686.8616,113.5131,684.9961,114.5493,683.3087,115.4649,681.5633,115.9841,679.6273,117.052,677.9551,117.0342,677.9363,116.1309,678.6273,115.3171,679.4134,114.5655,680.2656,113.5995,680.89,112.9339,681.8334,113.0682,681.96,112.0053,680.8658,111.3346,680.141,110.7117,679.4613,109.8104,678.5194,109.0556,677.7153,109.0766,677.724,109.7914,679.5345,110.602,681.3842,111.3664,683.215,112.219,685.0819,112.784,686.8312" style="stroke: #A9A9A9; stroke-width: 2.0;"/><!--link ConcreteFactoryA to ConcreteProductBA--><path d="M202.699,627.131 L202.8339,627.3766 L211.1379,631.4292 L220.2329,636.9216 L229.0703,641.9451 L237.0607,645.4267 L246.1737,650.9519 L254.6547,655.3267 L263.3872,660.1592 L272.2946,665.3101 L280.5994,669.3641 L290.1036,675.6014 L298.0484,679.0002 L307.158,684.5191 " fill="none" style="stroke: #A9A9A9; stroke-width: 2.0; stroke-dasharray: 7.0,7.0;"/><polygon fill="#A9A9A9" points="311.574,686.9451,311.6298,686.9875,310.272,685.2934,309.2411,683.8479,308.1038,682.3215,306.6163,680.5288,305.6135,679.1046,305.5886,679.0974,305.7928,680.1514,306.1223,681.2418,306.5389,682.3576,306.6552,683.386,307.1922,684.5367,307.2437,684.714,306.0472,684.6507,305.001,685.1049,303.9732,685.6222,302.8386,685.7723,301.7601,686.1155,301.7621,686.1381,303.722,686.2708,305.6907,686.5066,307.6552,686.6927,309.6277,686.9737,311.574,686.9451" style="stroke: #A9A9A9; stroke-width: 2.0;"/><!--link ConcreteFactoryB to ConcreteProductAB--><path d="M761.657,627.131 L761.7924,627.3764 L752.7211,631.4296 L744.4433,636.9213 L735.9072,641.9446 L726.5212,645.4275 L718.2615,650.952 L709.3678,655.3271 L700.7264,660.1597 L692.2604,665.3102 L683.19,669.3649 L675.3227,675.6008 L665.8912,679.0009 L657.628,684.5191 " fill="none" style="stroke: #A9A9A9; stroke-width: 2.0; stroke-dasharray: 7.0,7.0;"/><polygon fill="#A9A9A9" points="653.231,686.9451,653.237,687.0149,655.1816,686.6383,657.1615,686.671,659.1299,686.5703,661.0606,686.0315,663.0435,686.0993,663.0363,686.0744,661.9171,685.6487,660.8341,685.3485,659.7763,685.1356,658.6318,684.6221,657.6088,684.5295,657.7861,684.5807,657.7209,683.3843,658.1733,682.3373,658.689,681.3086,658.8371,680.1738,659.1785,679.0948,659.1967,679.1086,657.9805,680.6584,656.8469,682.2709,655.6735,683.8531,654.5761,685.4929,653.231,686.9451" style="stroke: #A9A9A9; stroke-width: 2.0;"/><!--link ConcreteFactoryB to ConcreteProductBB--><path d="M849.791,627.319 L850.071,627.3295 L849.645,638.1364 L850.8605,649.0047 L851.5415,659.8531 L850.4645,670.6356 L851.821,681.5092 " fill="none" style="stroke: #A9A9A9; stroke-width: 2.0; stroke-dasharray: 7.0,7.0;"/><polygon fill="#A9A9A9" points="852.02,686.8312,852.085,686.8572,852.6238,684.9512,853.5439,683.1978,854.3399,681.3947,854.7275,679.4281,855.6803,677.6878,855.6613,677.6702,854.8066,678.4205,854.0476,679.2596,853.3552,680.1605,852.4334,680.8486,851.8328,681.8347,851.9583,681.97,850.8605,680.9112,850.1292,680.2474,849.4426,679.6318,848.4958,678.7358,847.6859,677.9872,847.7063,677.9973,848.5432,679.7514,849.473,681.551,850.3579,683.3287,851.3285,685.1483,852.02,686.8312" style="stroke: #A9A9A9; stroke-width: 2.0;"/><!--link AbstractProductA to ConcreteProductAA--><path d="M301.015,614.815 L301.1442,615.0637 L292.1015,618.8226 L283.8162,624.0394 L275.2842,628.7815 L265.9413,631.9624 L257.6732,637.2124 L248.8,641.2976 L240.1676,645.8463 L231.7026,650.7173 L222.6608,654.4778 L214.7672,660.4488 L205.3807,663.5458 L196.9877,668.5554 L188.7159,673.7984 L179.7389,677.6837 L171.1748,682.3638 L162.474,686.7809 " fill="none" style="stroke: #A9A9A9; stroke-width: 2.0;"/><polygon fill="none" points="297.863,608.565,297.8729,608.6344,302.0384,607.8267,306.2621,607.4256,310.4669,606.8921,314.6092,605.9232,318.838,605.557,318.8191,605.5392,315.8301,608.5458,312.9361,611.6418,310.1083,614.8,307.0526,617.7439,304.316,620.988,304.4798,621.0731,302.839,618.4066,301.6763,615.9884,300.572,613.6006,299.1282,611.0364,297.863,608.565" style="stroke: #A9A9A9; stroke-width: 2.0;"/><!--link AbstractProductA to ConcreteProductAB--><path d="M432.771,615.422 L432.9085,615.6662 L440.9454,619.6979 L449.7885,625.1611 L458.3691,630.1581 L466.0863,633.6223 L474.9478,639.118 L483.1651,643.4701 L491.6388,648.2773 L500.2907,653.4009 L508.3284,657.4342 L517.5886,663.6378 L525.2594,667.0197 L533.988,672.2794 L542.8456,677.7682 L550.9523,681.924 L559.454,686.7809 " fill="none" style="stroke: #A9A9A9; stroke-width: 2.0;"/><polygon fill="none" points="429.249,621.472,429.3016,621.5183,426.3473,618.1978,423.7014,615.1485,420.9551,612.011,417.8784,608.583,415.259,605.557,415.2545,605.5315,419.4063,606.1604,423.581,606.9179,427.7716,607.7648,431.9074,608.3037,436.12,609.274,436.2808,609.3646,434.5627,611.6105,433.3142,614.1208,432.1228,616.6635,430.5983,619.0184,429.249,621.472" style="stroke: #A9A9A9; stroke-width: 2.0;"/><!--link AbstractProductB to ConcreteProductBA--><path d="M538.355,615.27 L538.4891,615.5161 L529.3415,619.5523 L520.9799,625.0311 L512.3624,630.0401 L502.9031,633.5043 L494.5594,639.016 L485.5877,643.375 L476.8659,648.1928 L468.3179,653.3293 L459.1711,657.3671 L451.2162,663.5921 L441.7117,666.9734 L433.2384,672.2472 L424.891,677.7518 L415.8115,681.9131 L407.117,686.7809 " fill="none" style="stroke: #A9A9A9; stroke-width: 2.0;"/><polygon fill="none" points="535.269,608.98,535.2803,609.0491,539.4289,608.1591,543.6438,607.6744,547.8371,607.0577,551.9594,606.0069,556.18,605.557,556.1608,605.5396,553.232,608.6048,550.4,611.7577,547.6353,614.9714,544.6387,617.9752,541.967,621.273,542.1291,621.3613,540.4429,618.7139,539.2299,616.3243,538.0746,613.9661,536.5835,611.4249,535.269,608.98" style="stroke: #A9A9A9; stroke-width: 2.0;"/><!--link AbstractProductB to ConcreteProductBB--><path d="M670.434,615.118 L670.5664,615.365 L679.0838,619.4087 L688.3775,624.9002 L697.4184,629.9202 L705.628,633.3898 L714.9394,638.9143 L723.6305,643.282 L732.5685,648.11 L741.678,653.2581 L750.1962,657.3033 L759.8915,663.5438 L768.0564,666.9302 L777.2398,672.2159 L786.5474,677.7334 L795.1321,681.9026 L804.097,686.7809 " fill="none" style="stroke: #A9A9A9; stroke-width: 2.0;"/><polygon fill="none" points="666.92,621.177,666.9716,621.2243,663.9544,617.9597,661.2399,614.9725,658.4268,611.895,655.2895,608.5203,652.601,605.557,652.597,605.5314,656.7658,606.0728,660.9548,606.7431,665.1579,607.5032,669.3125,607.9541,673.535,608.838,673.6976,608.9252,672.0268,611.2065,670.8309,613.7425,669.6929,616.3094,668.2178,618.6957,666.92,621.177" style="stroke: #A9A9A9; stroke-width: 2.0;"/><!--
@startuml
skinparam backgroundColor #222222
skinparam handwritten true
hide circle

skinparam shadowing false
skinparam padding 1
skinparam arrow {
    Thickness 2
    Color #DarkGrey
    FontSize 20
    FontName courier
    FontStyle normal
    FontColor #DarkGrey
}
skinparam class {
    BorderThickness 3
    BorderColor #ff69b4
    BackgroundColor #222222
    FontSize 20
    FontName courier
    FontStyle bold
    FontColor #ff69b4
}
skinparam classAttribute {
    FontSize 15
    FontName courier
    FontStyle normal
    FontColor #DarkGrey
}
skinparam note {
    BorderThickness 3
    BorderColor #DarkGrey
    BackgroundColor #222222
    FontSize 20
    FontName courier
    FontStyle normal
    FontColor #DarkGrey
}

class Scenario  {
+ main()
}
class Director  {
+ doSomething(abstractFactory)
}
note right
public doSomething() {
    ...
    abstractFactory.createProductA();
    ...
    abstractFactory.createProductB();
}
end note

Scenario .down.> Director

class AbstractProductA
class ConcreteProductAA
class ConcreteProductAB

class AbstractProductB
class ConcreteProductBA
class ConcreteProductBB

class "Abstract Factory" as AbstractFactory  {
+ createProductA()
+ createProductB()
}

class ConcreteFactoryA  {
+ createProductA()
+ createProductB()
}

class ConcreteFactoryB  {
+ createProductA()
+ createProductB()
}


Director ..> AbstractProductA
Director ..> AbstractProductB
Director ..> AbstractFactory
Scenario ..> AbstractFactory
Scenario ..> ConcreteFactoryA
Scenario ..> ConcreteFactoryB
AbstractFactory <|- - ConcreteFactoryA
AbstractFactory <|- - ConcreteFactoryB
ConcreteFactoryA ..> ConcreteProductAA
ConcreteFactoryA ..> ConcreteProductBA
ConcreteFactoryB ..> ConcreteProductAB
ConcreteFactoryB ..> ConcreteProductBB
AbstractProductA <|- - ConcreteProductAA
AbstractProductA <|- - ConcreteProductAB
AbstractProductB <|- - ConcreteProductBA
AbstractProductB <|- - ConcreteProductBB
@enduml

PlantUML version 1.2019.05(Sat Apr 20 18:45:36 CEST 2019)
(GPL source distribution)
Java Runtime: Java(TM) SE Runtime Environment
JVM: Java HotSpot(TM) 64-Bit Server VM
Java Version: 11.0.8+10-LTS
Operating System: Windows 10
OS Version: 10.0
Default Encoding: windows-1252
Language: es
Country: ES
--></g></svg>