<?xml version="1.0" encoding="UTF-8" standalone="no"?><svg xmlns="http://www.w3.org/2000/svg" xmlns:xlink="http://www.w3.org/1999/xlink" contentScriptType="application/ecmascript" contentStyleType="text/css" height="548px" preserveAspectRatio="none" style="width:872px;height:548px;background:#222222;" version="1.1" viewBox="0 0 872 548" width="872px" zoomAndPan="magnify"><defs/><g><!--class Scenario--><polygon fill="#222222" points="621.5,8,621.5,8.2102,631.9,7.5857,642.3,8.1933,652.7,8.3997,663.1,7.2866,673.5,7.9223,683.9,7.5735,694.3,7.6165,704.7,7.9318,715.1,7.3086,725.5,8,726.0536,8,724.8697,17.4623,725.3022,26.9246,725.9319,36.3868,725.4142,45.8491,725.5682,55.3114,725.4681,64.7737,725.6785,74.236,725.5,83.6982,725.5,83.9374,715.1,84.2839,704.7,84.3693,694.3,84.3775,683.9,83.9529,673.5,84.1618,663.1,84.4005,652.7,82.9771,642.3,84.3768,631.9,83.4017,621.5,83.6982,622.0338,83.6982,621.005,74.236,621.4315,64.7737,622.2416,55.3114,621.4513,45.8491,621.6053,36.3868,621.8386,26.9246,621.9162,17.4623,621.5,8" style="stroke: #FF69B4; stroke-width: 3.0;"/><text fill="#FF69B4" font-family="courier" font-size="20" font-weight="bold" lengthAdjust="spacingAndGlyphs" textLength="96" x="625.5" y="34.1074">Scenario</text><path d="M622.5,46.1133 L622.5,46.3935 L632.7,45.5609 L642.9,46.371 L653.1,46.6462 L663.3,45.1621 L673.5,46.0097 L683.7,45.5446 L693.9,45.6019 L704.1,46.0224 L714.3,45.1915 L724.5,46.1133 " fill="#222222" style="stroke: #FF69B4; stroke-width: 3.0;"/><path d="M622.5,54.1133 L622.5,54.3935 L632.7,53.5609 L642.9,54.371 L653.1,54.6462 L663.3,53.1621 L673.5,54.0097 L683.7,53.5446 L693.9,53.6019 L704.1,54.0224 L714.3,53.1915 L724.5,54.1133 " fill="#222222" style="stroke: #FF69B4; stroke-width: 3.0;"/><polygon fill="#84BE84" points="635.5166,71.1355,635.0768,71.7363,634.5567,72.6164,633.8128,73.2095,633.0311,73.5338,632.4078,73.562,631.6067,73.1564,630.8509,72.8914,630.2771,72.3534,629.9762,71.7374,629.7977,71.247,629.6229,70.6064,629.3391,70.0552,629.5572,69.5169,629.7482,68.9274,630.4653,68.4611,630.9697,67.8561,631.5941,67.6552,632.3364,67.4821,633.2883,67.5849,633.8097,67.8308,634.4158,67.9423,635.1529,68.6974,635.4098,69.4946,635.5214,70.0385,635.395,70.9348" style="stroke: #038048; stroke-width: 1.0;"/><text fill="#A9A9A9" font-family="courier" font-size="15" lengthAdjust="spacingAndGlyphs" textLength="54" x="642.5" y="74.1938">main()</text><!--class Director--><polygon fill="#222222" points="569.5,144,569.5,144.2102,579.9,143.5857,590.3,144.1933,600.7,144.3997,611.1,143.2866,621.5,143.9223,631.9,143.5735,642.3,143.6165,652.7,143.9318,663.1,143.3086,673.5,144,674.0536,144,672.8697,154.8227,673.3022,165.6453,673.9319,176.468,673.4142,187.2906,673.5,198.1133,673.5,198.1815,663.1,198.0813,652.7,198.2918,642.3,198.3524,631.9,198.699,621.5,198.7843,611.1,198.7925,600.7,198.3679,590.3,198.5769,579.9,198.8155,569.5,198.1133,568.7788,198.1133,570.1785,187.2906,569.2035,176.468,570.0338,165.6453,569.005,154.8227,569.5,144" style="stroke: #FF69B4; stroke-width: 3.0;"/><text fill="#FF69B4" font-family="courier" font-size="20" font-weight="bold" lengthAdjust="spacingAndGlyphs" textLength="96" x="573.5" y="170.1074">Director</text><path d="M570.5,182.1133 L570.5,182.3935 L580.7,181.5609 L590.9,182.371 L601.1,182.6462 L611.3,181.1621 L621.5,182.0097 L631.7,181.5446 L641.9,181.6019 L652.1,182.0224 L662.3,181.1915 L672.5,182.1133 " fill="#222222" style="stroke: #FF69B4; stroke-width: 3.0;"/><path d="M570.5,190.1133 L570.5,190.3935 L580.7,189.5609 L590.9,190.371 L601.1,190.6462 L611.3,189.1621 L621.5,190.0097 L631.7,189.5446 L641.9,189.6019 L652.1,190.0224 L662.3,189.1915 L672.5,190.1133 " fill="#222222" style="stroke: #FF69B4; stroke-width: 3.0;"/><!--class Component--><polygon fill="#222222" points="570,258,570,258.2102,579.7692,257.5857,589.5385,258.1933,599.3077,258.3997,609.0769,257.2866,618.8462,257.9223,628.6154,257.5735,638.3846,257.6165,648.1538,257.9318,657.9231,257.3086,667.6923,258.5536,677.4615,257.3697,687.2308,257.8022,697,258,697.4319,258,696.9142,267.4623,697.0682,276.9246,696.9681,286.3868,697.1785,295.8491,697.2391,305.3114,697.5857,314.7737,697.6711,324.236,697,333.6982,697,334.3775,687.2308,333.9529,677.4615,334.1618,667.6923,334.4005,657.9231,332.9771,648.1538,334.3768,638.3846,333.4017,628.6154,334.2321,618.8462,333.2032,609.0769,333.6297,599.3077,334.4398,589.5385,333.6495,579.7692,333.8035,570,333.6982,570.3386,333.6982,570.4162,324.236,569.9961,314.7737,570.2872,305.3114,569.4276,295.8491,570.2844,286.3868,570.5482,276.9246,570.4445,267.4623,570,258" style="stroke: #FF69B4; stroke-width: 3.0;"/><text fill="#FF69B4" font-family="courier" font-size="20" font-weight="bold" lengthAdjust="spacingAndGlyphs" textLength="108" x="579.5" y="284.1074">Component</text><path d="M571,296.1133 L571,296.3935 L580.6154,295.5609 L590.2308,296.371 L599.8462,296.6462 L609.4615,295.1621 L619.0769,296.0097 L628.6923,295.5446 L638.3077,295.6019 L647.9231,296.0224 L657.5385,295.1915 L667.1538,296.8515 L676.7692,295.2729 L686.3846,295.8496 L696,296.1133 " fill="#222222" style="stroke: #FF69B4; stroke-width: 3.0;"/><path d="M571,304.1133 L571,304.3935 L580.6154,303.5609 L590.2308,304.371 L599.8462,304.6462 L609.4615,303.1621 L619.0769,304.0097 L628.6923,303.5446 L638.3077,303.6019 L647.9231,304.0224 L657.5385,303.1915 L667.1538,304.8515 L676.7692,303.2729 L686.3846,303.8496 L696,304.1133 " fill="#222222" style="stroke: #FF69B4; stroke-width: 3.0;"/><polygon fill="#84BE84" points="584.0166,321.1355,583.5768,321.7363,583.0567,322.6164,582.3128,323.2095,581.5311,323.5338,580.9078,323.562,580.1067,323.1564,579.3509,322.8914,578.7771,322.3534,578.4762,321.7374,578.2977,321.247,578.1229,320.6064,577.8391,320.0552,578.0572,319.5169,578.2482,318.9274,578.9653,318.4611,579.4697,317.8561,580.0941,317.6552,580.8364,317.4821,581.7883,317.5849,582.3097,317.8308,582.9158,317.9423,583.6529,318.6974,583.9098,319.4946,584.0214,320.0385,583.895,320.9348" style="stroke: #038048; stroke-width: 1.0;"/><text fill="#A9A9A9" font-family="courier" font-size="15" lengthAdjust="spacingAndGlyphs" textLength="99" x="591" y="324.1938">operation()</text><!--class Composite--><polygon fill="#222222" points="436.5,395.5,436.5,395.7102,446.5769,395.0857,456.6538,395.6933,466.7308,395.8997,476.8077,394.7866,486.8846,395.4223,496.9615,395.0735,507.0385,395.1165,517.1154,395.4318,527.1923,394.8086,537.2692,396.0536,547.3462,394.8697,557.4231,395.3022,567.5,395.9319,577.5769,395.4142,587.6538,395.5682,597.7308,395.4681,607.8077,395.6785,617.8846,395.7391,627.9615,396.0857,638.0385,396.1711,648.1154,396.1793,658.1923,395.7546,668.2692,395.9636,678.3462,396.2022,688.4231,394.7788,698.5,395.5,699.1785,395.5,698.2035,405.5324,699.0338,415.5647,698.005,425.5971,698.4315,435.6295,699.2416,445.6618,698.4513,455.6942,698.6053,465.7266,698.8386,475.7589,698.9162,485.7913,698.4961,495.8237,698.7872,505.856,697.9276,515.8884,698.7844,525.9208,698.5,535.9531,698.5,536.5013,688.4231,536.3977,678.3462,536.5661,668.2692,535.47,658.1923,535.3009,648.1154,535.3317,638.0385,535.8942,627.9615,535.7566,617.8846,536.6345,607.8077,535.7784,597.7308,535.6101,587.6538,536.1814,577.5769,535.2863,567.5,535.434,557.4231,536.6021,547.3462,536.3888,537.2692,536.6876,527.1923,535.6313,517.1154,536.2723,507.0385,536.5435,496.9615,535.4807,486.8846,535.8573,476.8077,536.0791,466.7308,536.6049,456.6538,535.9489,446.5769,536.4157,436.5,535.9531,435.9462,535.9531,435.8227,525.9208,437.0036,515.8884,435.7831,505.856,437.009,495.8237,436.7066,485.7913,436.2321,475.7589,436.1462,465.7266,436.9588,455.6942,436.2007,445.6618,437.0919,435.6295,435.9473,425.5971,437.1174,415.5647,436.9843,405.5324,436.5,395.5" style="stroke: #FF69B4; stroke-width: 3.0;"/><text fill="#FF69B4" font-family="courier" font-size="20" font-weight="bold" lengthAdjust="spacingAndGlyphs" textLength="108" x="513.5" y="421.6074">Composite</text><path d="M437.5,433.6133 L437.5,433.8935 L447.5,433.0609 L457.5,433.871 L467.5,434.1462 L477.5,432.6621 L487.5,433.5097 L497.5,433.0446 L507.5,433.1019 L517.5,433.5224 L527.5,432.6915 L537.5,434.3515 L547.5,432.7729 L557.5,433.3496 L567.5,434.1892 L577.5,433.4989 L587.5,433.7043 L597.5,433.5707 L607.5,433.8513 L617.5,433.9321 L627.5,434.3942 L637.5,434.508 L647.5,434.519 L657.5,433.9528 L667.5,434.2314 L677.5,434.5496 L687.5,432.6517 L697.5,433.6133 " fill="#222222" style="stroke: #FF69B4; stroke-width: 3.0;"/><path d="M437.5,441.6133 L437.5,441.8935 L447.5,441.0609 L457.5,441.871 L467.5,442.1462 L477.5,440.6621 L487.5,441.5097 L497.5,441.0446 L507.5,441.1019 L517.5,441.5224 L527.5,440.6915 L537.5,442.3515 L547.5,440.7729 L557.5,441.3496 L567.5,442.1892 L577.5,441.4989 L587.5,441.7043 L597.5,441.5707 L607.5,441.8513 L617.5,441.9321 L627.5,442.3942 L637.5,442.508 L647.5,442.519 L657.5,441.9528 L667.5,442.2314 L677.5,442.5496 L687.5,440.6517 L697.5,441.6133 " fill="#222222" style="stroke: #FF69B4; stroke-width: 3.0;"/><polygon fill="#84BE84" points="450.5166,458.6355,450.0768,459.2363,449.5567,460.1164,448.8128,460.7095,448.0311,461.0338,447.4078,461.062,446.6067,460.6564,445.8509,460.3914,445.2771,459.8534,444.9762,459.2374,444.7977,458.747,444.6229,458.1064,444.3391,457.5552,444.5572,457.0169,444.7482,456.4274,445.4653,455.9611,445.9697,455.3561,446.5941,455.1552,447.3364,454.9821,448.2883,455.0849,448.8097,455.3308,449.4158,455.4423,450.1529,456.1974,450.4098,456.9946,450.5214,457.5385,450.395,458.4348" style="stroke: #038048; stroke-width: 1.0;"/><text fill="#A9A9A9" font-family="courier" font-size="15" lengthAdjust="spacingAndGlyphs" textLength="99" x="457.5" y="461.6938">operation()</text><polygon fill="#84BE84" points="450.5166,480.2204,450.0768,480.8213,449.5567,481.7014,448.8128,482.2945,448.0311,482.6188,447.4078,482.6469,446.6067,482.2413,445.8509,481.9763,445.2771,481.4383,444.9762,480.8224,444.7977,480.332,444.6229,479.6914,444.3391,479.1401,444.5572,478.6019,444.7482,478.0123,445.4653,477.546,445.9697,476.941,446.5941,476.7401,447.3364,476.5671,448.2883,476.6699,448.8097,476.9158,449.4158,477.0272,450.1529,477.7824,450.4098,478.5795,450.5214,479.1235,450.395,480.0198" style="stroke: #038048; stroke-width: 1.0;"/><text fill="#A9A9A9" font-family="courier" font-size="15" lengthAdjust="spacingAndGlyphs" textLength="207" x="457.5" y="483.2788">addComponent(Component)</text><polygon fill="#84BE84" points="450.5166,501.8054,450.0768,502.4063,449.5567,503.2863,448.8128,503.8794,448.0311,504.2038,447.4078,504.2319,446.6067,503.8263,445.8509,503.5613,445.2771,503.0233,444.9762,502.4073,444.7977,501.9169,444.6229,501.2763,444.3391,500.7251,444.5572,500.1869,444.7482,499.5973,445.4653,499.131,445.9697,498.526,446.5941,498.3251,447.3364,498.1521,448.2883,498.2549,448.8097,498.5007,449.4158,498.6122,450.1529,499.3673,450.4098,500.1645,450.5214,500.7084,450.395,501.6047" style="stroke: #038048; stroke-width: 1.0;"/><text fill="#A9A9A9" font-family="courier" font-size="15" lengthAdjust="spacingAndGlyphs" textLength="234" x="457.5" y="504.8638">removeComponent(Component)</text><polygon fill="#84BE84" points="450.5166,523.3904,450.0768,523.9912,449.5567,524.8713,448.8128,525.4644,448.0311,525.7887,447.4078,525.8169,446.6067,525.4112,445.8509,525.1463,445.2771,524.6082,444.9762,523.9923,444.7977,523.5019,444.6229,522.8613,444.3391,522.31,444.5572,521.7718,444.7482,521.1823,445.4653,520.716,445.9697,520.1109,446.5941,519.91,447.3364,519.737,448.2883,519.8398,448.8097,520.0857,449.4158,520.1972,450.1529,520.9523,450.4098,521.7494,450.5214,522.2934,450.395,523.1897" style="stroke: #038048; stroke-width: 1.0;"/><text fill="#A9A9A9" font-family="courier" font-size="15" lengthAdjust="spacingAndGlyphs" textLength="117" x="457.5" y="526.4487">getChild(int)</text><path d="M6,394 L6,536.5664 A0,0 0 0 0 6,536.5664 L401,536.5664 A0,0 0 0 0 401,536.5664 L401,469.5 L436.232,465.5 L401,461.5 L401,404 L391,394 L6,394 A0,0 0 0 0 6,394 " fill="#222222" style="stroke: #A9A9A9; stroke-width: 3.0;"/><path d="M391,394 L391.1868,394 L390.6317,396 L391.1718,398 L391.3553,400 L390.3659,402 L391,404 L391,403.9309 L393,403.6209 L395,403.6591 L397,403.9394 L399,403.3854 L401,404 L401.348,404.348 L398.6038,401.6038 L396.8757,399.8757 L395.2715,398.2715 L392.9461,395.9461 L391,394 " fill="#222222" style="stroke: #A9A9A9; stroke-width: 3.0;"/><text fill="#A9A9A9" font-family="courier" font-size="20" lengthAdjust="spacingAndGlyphs" textLength="240" x="13" y="420.1074">public operation() {</text><text fill="#A9A9A9" font-family="courier" font-size="20" lengthAdjust="spacingAndGlyphs" textLength="348" x="37" y="446.2207">for each child in composite {</text><text fill="#A9A9A9" font-family="courier" font-size="20" lengthAdjust="spacingAndGlyphs" textLength="216" x="61" y="472.334">child.operation();</text><text fill="#A9A9A9" font-family="courier" font-size="20" lengthAdjust="spacingAndGlyphs" textLength="12" x="37" y="498.4473">}</text><text fill="#A9A9A9" font-family="courier" font-size="20" lengthAdjust="spacingAndGlyphs" textLength="12" x="13" y="524.5605">}</text><!--class Leaf--><polygon fill="#222222" points="734,427.5,734,427.7102,743.7692,427.0857,753.5385,427.6933,763.3077,427.8997,773.0769,426.7866,782.8462,427.4223,792.6154,427.0735,802.3846,427.1165,812.1538,427.4318,821.9231,426.8086,831.6923,428.0536,841.4615,426.8697,851.2308,427.3022,861,427.5,861.4319,427.5,860.9142,436.9623,861.0682,446.4246,860.9681,455.8868,861.1785,465.3491,861.2391,474.8114,861.5857,484.2737,861.6711,493.736,861,503.1982,861,503.8775,851.2308,503.4529,841.4615,503.6618,831.6923,503.9005,821.9231,502.4771,812.1538,503.8768,802.3846,502.9017,792.6154,503.7321,782.8462,502.7032,773.0769,503.1297,763.3077,503.9398,753.5385,503.1495,743.7692,503.3035,734,503.1982,734.3386,503.1982,734.4162,493.736,733.9961,484.2737,734.2872,474.8114,733.4276,465.3491,734.2844,455.8868,734.5482,446.4246,734.4445,436.9623,734,427.5" style="stroke: #FF69B4; stroke-width: 3.0;"/><text fill="#FF69B4" font-family="courier" font-size="20" font-weight="bold" lengthAdjust="spacingAndGlyphs" textLength="48" x="773.5" y="453.6074">Leaf</text><path d="M735,465.6133 L735,465.8935 L744.6154,465.0609 L754.2308,465.871 L763.8462,466.1462 L773.4615,464.6621 L783.0769,465.5097 L792.6923,465.0446 L802.3077,465.1019 L811.9231,465.5224 L821.5385,464.6915 L831.1538,466.3515 L840.7692,464.7729 L850.3846,465.3496 L860,465.6133 " fill="#222222" style="stroke: #FF69B4; stroke-width: 3.0;"/><path d="M735,473.6133 L735,473.8935 L744.6154,473.0609 L754.2308,473.871 L763.8462,474.1462 L773.4615,472.6621 L783.0769,473.5097 L792.6923,473.0446 L802.3077,473.1019 L811.9231,473.5224 L821.5385,472.6915 L831.1538,474.3515 L840.7692,472.7729 L850.3846,473.3496 L860,473.6133 " fill="#222222" style="stroke: #FF69B4; stroke-width: 3.0;"/><polygon fill="#84BE84" points="748.0166,490.6355,747.5768,491.2363,747.0567,492.1164,746.3128,492.7095,745.5311,493.0338,744.9078,493.062,744.1067,492.6564,743.3509,492.3914,742.7771,491.8534,742.4762,491.2374,742.2977,490.747,742.1229,490.1064,741.8391,489.5552,742.0572,489.0169,742.2482,488.4274,742.9653,487.9611,743.4697,487.3561,744.0941,487.1552,744.8364,486.9821,745.7883,487.0849,746.3097,487.3308,746.9158,487.4423,747.6529,488.1974,747.9098,488.9946,748.0214,489.5385,747.895,490.4348" style="stroke: #038048; stroke-width: 1.0;"/><text fill="#A9A9A9" font-family="courier" font-size="15" lengthAdjust="spacingAndGlyphs" textLength="99" x="755" y="493.6938">operation()</text><!--link Scenario to Director--><path d="M657.757,84.238 L658.0151,84.3471 L653.4042,93.1154 L650.3064,102.5234 L646.7158,111.723 L641.5049,120.2376 L638.4416,129.6602 L634.693,138.793 " fill="none" style="stroke: #A9A9A9; stroke-width: 2.0; stroke-dasharray: 7.0,7.0;"/><polygon fill="#A9A9A9" points="632.572,143.811,632.6199,143.8621,633.915,142.3634,635.4909,141.1644,636.9753,139.8679,638.1591,138.2503,639.7591,137.0771,639.7493,137.0531,638.6573,137.371,637.6145,137.8099,636.6058,138.3329,635.4793,138.566,634.5178,139.2051,634.6888,139.2746,633.8975,138.0778,633.6055,137.0838,633.3743,136.1145,632.7888,135.0013,632.3897,133.9638,632.4125,133.9643,632.4155,135.9331,632.5221,137.9038,632.5788,139.8736,632.7307,141.8452,632.572,143.811" style="stroke: #A9A9A9; stroke-width: 2.0;"/><!--link Scenario to Component--><path d="M685.793,84.214 L685.8836,84.2368 L686.2296,86.6122 L687.1066,89.1214 L687.8108,91.587 L687.9462,93.9094 L688.8688,96.43 L688.835,96.4229 L689.2467,99.0471 L689.8288,101.7074 L690.5292,104.3929 L690.8216,106.9918 L691.6855,109.712 L691.9282,109.7524 L691.8791,112.4863 L692.5386,115.3382 L693.2846,118.2045 L693.5275,120.987 L694.035,123.8136 L694.0652,123.8171 L694.3559,126.747 L694.7837,129.6927 L695.1454,132.6307 L695.6333,135.5832 L695.7096,138.4887 L696.0075,138.5045 L696.1694,141.5051 L696.1393,144.4957 L696.3904,147.5011 L696.6546,150.5071 L696.5013,153.4912 L696.1808,153.4848 L696.743,156.5138 L696.2499,159.522 L696.559,162.546 L696.0421,165.5536 L696.2022,168.5747 L696.1719,168.5714 L696.2104,171.5934 L695.5415,174.5397 L695.2901,177.5306 L695.0736,180.5254 L694.6044,183.493 L694.7853,183.5317 L693.9818,186.394 L693.4875,189.3225 L692.493,192.144 L692.2445,195.125 L691.5,198 L691.7309,198.0777 L690.7129,200.9586 L689.8095,203.878 L688.3735,206.6182 L687.3279,209.4898 L686.6283,212.4778 L686.3758,212.3659 L685.3461,215.3063 L684.0319,218.1207 L683.1303,221.1179 L681.5242,223.8028 L680.3369,226.6734 L680.2023,226.6017 L678.9752,229.4452 L677.1729,231.9824 L675.7796,234.7374 L674.7866,237.7057 L673.0808,240.2942 L673.2462,240.3949 L671.8065,243.0148 L669.8523,245.3214 L668.5425,248.0203 L667.0923,250.6337 L665.315,253.048 " fill="none" style="stroke: #A9A9A9; stroke-width: 2.0; stroke-dasharray: 7.0,7.0;"/><polygon fill="#A9A9A9" points="662.356,257.561,662.3939,257.6199,663.9372,256.3782,665.7028,255.4818,667.396,254.4729,668.851,253.0943,670.6358,252.2275,670.6305,252.2022,669.4991,252.3188,668.3944,252.5632,667.3081,252.8965,666.1582,252.9235,665.0974,253.3796,665.2781,253.4171,664.6613,252.2291,664.5721,251.1508,664.5472,250.0859,664.1478,248.9431,663.9454,247.8412,663.9679,247.8449,663.617,249.7835,663.3684,251.7387,663.0704,253.686,662.8666,255.6486,662.356,257.561" style="stroke: #A9A9A9; stroke-width: 2.0;"/><!--link Scenario to Composite--><path d="M621.375,73.966 L621.4267,74.0438 L619.3166,75.1119 L617.5095,76.6362 L615.6038,78.012 L613.3736,78.8992 L611.5925,80.4627 L611.5722,80.4348 L609.5113,81.7417 L607.5528,83.1895 L605.6656,84.7352 L603.5329,85.9436 L601.7439,87.6244 L601.8982,87.8161 L599.6255,88.9695 L597.8032,90.6826 L596.0358,92.464 L593.9487,93.8481 L592.0298,95.4411 L592.0501,95.4637 L590.1445,97.1229 L588.3314,98.8847 L586.4736,100.5971 L584.701,102.4038 L582.6509,103.9029 L582.8647,104.1108 L581.0987,105.9327 L579.1948,107.6205 L577.4927,109.5045 L575.8002,111.3978 L573.8078,112.9996 L573.5616,112.7943 L572.418,115.1371 L570.4639,116.8039 L569.126,118.9846 L567.1535,120.6361 L565.7011,122.7214 L565.6761,122.704 L564.5381,124.9766 L562.8156,126.8438 L561.4379,128.9501 L560.0892,131.0766 L558.5317,133.0582 L558.6937,133.1475 L557.3238,135.2457 L556.2308,137.4965 L554.6899,139.5005 L553.817,141.8727 L552.5,144 L552.7236,144.0967 L551.399,147.0435 L550.1853,150.0384 L548.4558,152.8101 L547.1044,155.7454 L546.0881,158.8256 L545.8271,158.7351 L545.0041,161.8741 L543.8869,164.9112 L543.1963,168.0961 L541.7775,171.0287 L540.7916,174.1112 L540.6444,174.0713 L540.0394,177.2704 L538.8053,180.2989 L538.0185,183.4487 L537.6694,186.7173 L536.5409,189.7744 L536.7306,189.8133 L536.2058,193.0316 L535.0911,196.1289 L534.7153,199.3778 L534.1785,202.5936 L533.2665,205.7325 L533.0588,205.7021 L532.7508,208.9604 L532.3749,212.2088 L532.1325,215.4767 L531.3706,218.6686 L530.8989,221.903 L531.1036,221.9222 L530.3477,225.14 L529.987,228.395 L530.2034,231.7041 L529.3572,234.9134 L529.3683,238.2033 L529.5943,238.2138 L529.3075,241.4771 L528.9442,244.7368 L528.7535,248.0045 L528.9617,251.2909 L528.6054,254.5509 L528.4724,254.5503 L528.8555,257.8144 L528.3338,261.0748 L528.8409,264.3393 L528.7687,267.6015 L528.5405,270.8631 L528.6493,270.8669 L528.6742,274.1027 L529.0887,277.3521 L529.1512,280.5892 L529.0665,283.8212 L529.104,287.0575 L529.2229,287.0658 L529.2708,290.2522 L529.8707,293.4774 L529.8462,296.6587 L530.0785,299.858 L530.2265,303.0514 L529.9575,303.0238 L530.3697,306.1752 L531.1058,309.3599 L531.3835,312.4975 L531.4969,315.6182 L531.8382,318.7624 L531.6963,318.7436 L532.1481,321.8187 L532.3485,324.8605 L533.2398,327.9938 L533.7893,331.0818 L533.8697,334.1077 L534.1007,334.1446 L534.651,337.1359 L534.7624,340.057 L535.337,343.0521 L535.605,345.9983 L536.2514,349.0049 L536.3755,349.0279 L536.8917,351.8982 L537.5577,354.7962 L537.7484,357.6062 L538.3225,360.4872 L538.9137,363.3714 L539.1067,363.4117 L539.7352,366.1736 L539.8401,368.8261 L540.5534,371.6057 L541.2774,374.3875 L541.7871,377.1246 L541.5226,377.0635 L542.5431,379.7714 L543.1048,382.3734 L543.5524,384.949 L544.2606,387.5847 L544.802,390.182 " fill="none" style="stroke: #A9A9A9; stroke-width: 2.0; stroke-dasharray: 7.0,7.0;"/><polygon fill="#A9A9A9" points="546.084,395.399,546.153,395.4114,546.2955,393.4358,546.8424,391.5326,547.2576,389.6059,547.2398,387.6015,547.8214,385.7046,547.7992,385.6912,547.1137,386.5987,546.54,387.5739,546.0438,388.5961,545.2801,389.4562,544.8912,390.5434,544.9868,390.7012,543.8146,389.7776,542.9215,389.3149,542.0625,388.9084,541.0053,388.1747,540.0524,387.6131,540.0704,387.6271,541.2503,389.1638,542.5121,390.7639,543.7344,392.3335,545.032,393.9614,546.084,395.399" style="stroke: #A9A9A9; stroke-width: 2.0;"/><!--link Scenario to Leaf--><path d="M693.242,84.018 L693.3259,84.059 L694.4457,86.7386 L696.0574,89.6586 L697.5089,92.5003 L698.4336,95.0845 L700.0876,98.0252 L700.0562,98.0107 L701.2984,100.9478 L702.6987,103.9577 L704.209,107.0182 L705.3404,109.9043 L707.0025,113.0348 L707.2289,113.1312 L708.0646,116.0243 L709.5613,119.199 L711.1386,122.408 L712.2468,125.4172 L713.6017,128.5314 L713.63,128.5422 L714.7681,131.6201 L716.0352,134.7471 L717.24,137.8504 L718.5636,140.999 L719.5,144 L719.782,144.097 L721.0537,147.7875 L722.1434,151.4154 L723.4994,155.135 L724.8679,158.8588 L725.841,162.4466 L725.536,162.3478 L727.3488,166.3081 L728.1575,169.9431 L729.7296,173.8254 L730.5155,177.453 L731.9458,181.2893 L731.9167,181.2804 L733.4338,185.2107 L734.2708,188.9324 L735.509,192.7772 L736.781,196.6323 L737.81,200.4129 L737.9876,200.4646 L738.9321,204.2703 L740.1801,208.1643 L740.937,211.9153 L742.4264,215.8796 L743.4288,219.7021 L743.6636,219.7673 L744.693,223.6229 L745.839,227.5109 L746.4434,231.2485 L747.4447,235.0963 L748.7978,239.0418 L748.5309,238.971 L749.7955,242.8901 L750.7592,246.7294 L752.1593,250.6844 L752.8144,254.4418 L753.9124,258.3167 L753.7646,258.2791 L754.9818,262.1607 L755.5674,265.8816 L756.6021,269.7168 L758.0764,273.6637 L758.7679,277.4116 L758.956,277.4576 L760.0034,281.249 L760.4658,284.8976 L761.6609,288.7251 L762.6964,292.5137 L763.3599,296.2114 L763.1555,296.1633 L764.1832,299.8795 L765.1439,303.5799 L766.2361,307.3113 L766.8171,310.9224 L767.6836,314.6007 L767.8841,314.6462 L768.2538,318.119 L769.0105,321.6796 L770.3325,325.3684 L770.6137,328.8212 L771.7346,332.4644 L771.9557,332.5121 L773.2775,339.2217 L774.5244,345.9152 L775.9401,352.6451 L777.7462,359.4592 L779,366.1542 L778.8696,366.1278 L780.4817,372.2474 L781.2069,378.1873 L782.9405,384.3315 L784.1064,390.3607 L785.1193,396.3589 L785.2263,396.3794 L786.1273,401.5225 L787.4112,406.7389 L788.3492,411.889 L789.1425,417.0115 L790.056,422.157 " fill="none" style="stroke: #A9A9A9; stroke-width: 2.0; stroke-dasharray: 7.0,7.0;"/><polygon fill="#A9A9A9" points="790.999,427.258,791.0671,427.2743,791.3238,425.3103,791.9798,423.442,792.5058,421.5425,792.6041,419.5405,793.2944,417.6804,793.2731,417.6657,792.5362,418.532,791.907,419.4724,791.3525,420.4642,790.5403,421.2787,790.0891,422.3415,790.1937,422.4935,789.0378,421.5273,788.1873,421.005,787.374,420.5369,786.344,419.7537,785.428,419.1362,785.4468,419.149,786.5334,420.7545,787.7055,422.4186,788.8363,424.0544,790.0458,425.7441,790.999,427.258" style="stroke: #A9A9A9; stroke-width: 2.0;"/><!--link Director to Component--><path d="M624.045,198.085 L624.3239,198.1122 L624.561,208.9556 L626.4331,219.9584 L627.7728,230.9093 L627.3615,241.6894 L629.374,252.706 " fill="none" style="stroke: #A9A9A9; stroke-width: 2.0; stroke-dasharray: 7.0,7.0;"/><polygon fill="#A9A9A9" points="629.866,257.752,629.9325,257.7741,630.3563,255.8392,631.1698,254.0339,631.8564,252.1864,632.1257,250.2002,632.9727,248.406,632.9527,248.3895,632.1444,249.1896,631.437,250.0727,630.7997,251.0133,629.9207,251.7554,629.3802,252.7757,629.4974,252.9182,628.3729,251.8949,627.5905,251.2877,626.8498,250.7314,625.8663,249.8796,625.0105,249.1832,625.0303,249.1944,625.9724,250.8917,627.0045,252.6401,627.9932,254.3638,629.0648,256.1345,629.866,257.752" style="stroke: #A9A9A9; stroke-width: 2.0;"/><!--link Component to Composite--><path d="M599.5,352.611 L599.5857,352.6481 L598.425,354.6309 L597.7667,356.8312 L596.9449,358.9607 L595.5848,360.8572 L594.9698,363.0762 L594.9378,363.063 L593.9057,365.1497 L593.0344,367.3031 L592.2749,369.5028 L591.1301,371.5428 L590.525,373.8065 L590.7537,373.8972 L589.4055,375.87 L588.7251,378.1076 L588.1262,380.3775 L587.0532,382.4595 L586.2295,384.6403 L586.2579,384.6511 L585.3997,386.7904 L584.6707,388.9787 L583.8794,391.1434 L583.2069,393.3531 L582.147,395.416 " fill="none" style="stroke: #A9A9A9; stroke-width: 2.0;"/><polygon fill="none" points="593.285,349.374,593.3353,349.4228,596.1385,346.2378,599.2364,343.3389,602.2384,340.3468,604.9248,337.0483,608.048,334.174,608.0222,334.1715,607.4941,338.378,607.096,342.5972,606.7882,346.8252,606.169,351.0228,605.986,355.263,606.0636,355.4304,603.3574,353.8946,600.8779,352.8476,598.426,351.8602,595.8132,350.5259,593.285,349.374" style="stroke: #A9A9A9; stroke-width: 2.0;"/><!--link Component to Composite--><path d="M630.293,334.174 L630.3822,334.2018 L629.4105,336.3882 L628.9616,338.7375 L628.3424,341.0337 L627.1634,343.1556 L626.7593,345.5188 L626.7266,345.5077 L625.7572,347.8781 L624.9525,350.3046 L624.2625,352.7699 L623.1775,355.1011 L622.6458,357.6203 L622.8769,357.7045 L621.465,360.0423 L620.728,362.6262 L620.0733,365.24 L618.9396,367.6792 L618.0578,370.2103 L618.0861,370.2212 L617.0532,372.7673 L616.1491,375.3632 L615.1828,377.9351 L614.3351,380.5528 L613.101,383.021 " fill="none" style="stroke: #A9A9A9; stroke-width: 2.0;"/><polygon fill="#222222" points="608.036,395.416,608.0753,395.474,609.1532,394.4935,610.4612,393.8532,611.6944,393.1021,612.681,391.9867,614.0088,391.3756,613.9835,391.3704,613.583,389.9338,613.3106,388.5232,613.1271,387.1306,612.6371,385.6759,612.5765,384.3082,612.6799,384.461,611.2642,384.9422,610.1504,385.8697,609.0734,386.8517,607.7822,387.5168,606.6036,388.3486,606.6259,388.3531,606.8797,389.76,607.2349,391.1874,607.5412,392.6049,607.9409,394.0413,608.036,395.416" style="stroke: #A9A9A9; stroke-width: 2.0;"/><!--link Component to Leaf--><path d="M683.978,348.555 L684.1782,348.7511 L690.6039,355.339 L698.2034,363.0762 L705.4207,370.4392 L711.3809,376.5714 L719.0071,384.3348 L725.6955,391.1799 L732.7571,398.3905 L740.0782,405.8551 L746.5051,412.4442 L754.7118,420.776 L761.205,427.43 " fill="none" style="stroke: #A9A9A9; stroke-width: 2.0;"/><polygon fill="none" points="678.887,353.362,678.9504,353.3917,676.9639,349.4658,675.3493,345.7141,673.6136,341.9057,671.4797,337.9107,669.897,334.174,669.8855,334.1508,673.6328,335.9252,677.4379,337.8166,681.2833,339.7894,684.99,341.4818,688.891,343.567,689.0201,343.6989,686.7432,345.3759,684.8433,347.4379,682.9893,349.5469,680.8678,351.3826,678.887,353.362" style="stroke: #A9A9A9; stroke-width: 2.0;"/><!--
@startuml
skinparam backgroundColor #222222
skinparam handwritten true
hide circle

skinparam shadowing false
skinparam padding 1
skinparam arrow {
    Thickness 2
    Color #DarkGrey
    FontSize 20
    FontName courier
    FontStyle normal
    FontColor #DarkGrey
}
skinparam class {
    BorderThickness 3
    BorderColor #ff69b4
    BackgroundColor #222222
    FontSize 20
    FontName courier
    FontStyle bold
    FontColor #ff69b4
}
skinparam classAttribute {
    FontSize 15
    FontName courier
    FontStyle normal
    FontColor #DarkGrey
}
skinparam note {
    BorderThickness 3
    BorderColor #DarkGrey
    BackgroundColor #222222
    FontSize 20
    FontName courier
    FontStyle normal
    FontColor #DarkGrey
}

class Scenario  {
+ main()
}
class Director
class Component   {
+ operation()
}
class Composite   {
+ operation()
+ addComponent(Component)
+ removeComponent(Component)
+ getChild(int)
}
note left
public operation() {
  for each child in composite {
    child.operation();
  }
}
end note
class Leaf  {
+ operation()
}

Scenario .down.> Director
Scenario .down.> Component
Scenario -down.> Composite
Scenario .down.> Leaf
Director ..> Component
Component <|- - Composite
Component <|- - Leaf
Component - -o Composite
@enduml

PlantUML version 1.2019.05(Sat Apr 20 18:45:36 CEST 2019)
(GPL source distribution)
Java Runtime: Java(TM) SE Runtime Environment
JVM: Java HotSpot(TM) 64-Bit Server VM
Java Version: 11.0.8+10-LTS
Operating System: Windows 10
OS Version: 10.0
Default Encoding: windows-1252
Language: es
Country: ES
--></g></svg>