<?xml version="1.0" encoding="UTF-8" standalone="no"?><svg xmlns="http://www.w3.org/2000/svg" xmlns:xlink="http://www.w3.org/1999/xlink" contentScriptType="application/ecmascript" contentStyleType="text/css" height="595px" preserveAspectRatio="none" style="width:1296px;height:595px;background:#222222;" version="1.1" viewBox="0 0 1296 595" width="1296px" zoomAndPan="magnify"><defs/><g><!--class Scenario--><polygon fill="#222222" points="991.5,8,991.5,8.2102,1001.9,7.5857,1012.3,8.1933,1022.7,8.3997,1033.1,7.2866,1043.5,7.9223,1053.9,7.5735,1064.3,7.6165,1074.7,7.9318,1085.1,7.3086,1095.5,8,1096.0536,8,1094.8697,17.4623,1095.3022,26.9246,1095.9319,36.3868,1095.4142,45.8491,1095.5682,55.3114,1095.4681,64.7737,1095.6785,74.236,1095.5,83.6982,1095.5,83.9374,1085.1,84.2839,1074.7,84.3693,1064.3,84.3775,1053.9,83.9529,1043.5,84.1618,1033.1,84.4005,1022.7,82.9771,1012.3,84.3768,1001.9,83.4017,991.5,83.6982,992.0338,83.6982,991.005,74.236,991.4315,64.7737,992.2416,55.3114,991.4513,45.8491,991.6053,36.3868,991.8386,26.9246,991.9162,17.4623,991.5,8" style="stroke: #FF69B4; stroke-width: 3.0;"/><text fill="#FF69B4" font-family="courier" font-size="20" font-weight="bold" lengthAdjust="spacingAndGlyphs" textLength="96" x="995.5" y="34.1074">Scenario</text><path d="M992.5,46.1133 L992.5,46.3935 L1002.7,45.5609 L1012.9,46.371 L1023.1,46.6462 L1033.3,45.1621 L1043.5,46.0097 L1053.7,45.5446 L1063.9,45.6019 L1074.1,46.0224 L1084.3,45.1915 L1094.5,46.1133 " fill="#222222" style="stroke: #FF69B4; stroke-width: 3.0;"/><path d="M992.5,54.1133 L992.5,54.3935 L1002.7,53.5609 L1012.9,54.371 L1023.1,54.6462 L1033.3,53.1621 L1043.5,54.0097 L1053.7,53.5446 L1063.9,53.6019 L1074.1,54.0224 L1084.3,53.1915 L1094.5,54.1133 " fill="#222222" style="stroke: #FF69B4; stroke-width: 3.0;"/><polygon fill="#84BE84" points="1005.5166,71.1355,1005.0768,71.7363,1004.5567,72.6164,1003.8128,73.2095,1003.0311,73.5338,1002.4078,73.562,1001.6067,73.1564,1000.8509,72.8914,1000.2771,72.3534,999.9762,71.7374,999.7977,71.247,999.6229,70.6064,999.3391,70.0552,999.5572,69.5169,999.7482,68.9274,1000.4653,68.4611,1000.9697,67.8561,1001.5941,67.6552,1002.3364,67.4821,1003.2883,67.5849,1003.8097,67.8308,1004.4158,67.9423,1005.1529,68.6974,1005.4098,69.4946,1005.5214,70.0385,1005.395,70.9348" style="stroke: #038048; stroke-width: 1.0;"/><text fill="#A9A9A9" font-family="courier" font-size="15" lengthAdjust="spacingAndGlyphs" textLength="54" x="1012.5" y="74.1938">main()</text><!--class Director--><polygon fill="#222222" points="760,190.5,760,190.7102,770.0882,190.0857,780.1765,190.6933,790.2647,190.8997,800.3529,189.7866,810.4412,190.4223,820.5294,190.0735,830.6176,190.1165,840.7059,190.4318,850.7941,189.8086,860.8824,191.0536,870.9706,189.8697,881.0588,190.3022,891.1471,190.9319,901.2353,190.4142,911.3235,190.5682,921.4118,190.4681,931.5,190.6785,941.5882,190.7391,951.6765,191.0857,961.7647,191.1711,971.8529,191.1793,981.9412,190.7546,992.0294,190.9636,1002.1176,191.2022,1012.2059,189.7788,1022.2941,191.1785,1032.3824,190.2035,1042.4706,191.0338,1052.5588,190.005,1062.6471,190.4315,1072.7353,191.2416,1082.8235,190.4513,1092.9118,190.6053,1103,190.5,1103.3386,190.5,1103.4162,199.9623,1102.9961,209.4246,1103.2872,218.8868,1102.4276,228.3491,1103.2844,237.8114,1103.5482,247.2737,1103.4445,256.736,1103,266.1982,1103,266.8113,1092.9118,265.7152,1082.8235,265.5461,1072.7353,265.5768,1062.6471,266.1394,1052.5588,266.0017,1042.4706,266.8797,1032.3824,266.0236,1022.2941,265.8552,1012.2059,266.4265,1002.1176,265.5314,992.0294,265.6791,981.9412,266.8472,971.8529,266.6339,961.7647,266.9327,951.6765,265.8764,941.5882,266.5174,931.5,266.7887,921.4118,265.7258,911.3235,266.1024,901.2353,266.3242,891.1471,266.85,881.0588,266.1941,870.9706,266.6608,860.8824,265.6445,850.7941,265.521,840.7059,266.7019,830.6176,265.4813,820.5294,266.7072,810.4412,266.4049,800.3529,265.9303,790.2647,265.8445,780.1765,266.657,770.0882,265.8989,760,266.1982,760.5919,266.1982,759.4473,256.736,760.6174,247.2737,760.4843,237.8114,760.245,228.3491,760.0472,218.8868,760.7266,209.4246,760.6136,199.9623,760,190.5" style="stroke: #FF69B4; stroke-width: 3.0;"/><text fill="#FF69B4" font-family="courier" font-size="20" font-weight="bold" lengthAdjust="spacingAndGlyphs" textLength="96" x="883.5" y="216.6074">Director</text><path d="M761,228.6133 L761,228.8935 L771.0294,228.0609 L781.0588,228.871 L791.0882,229.1462 L801.1176,227.6621 L811.1471,228.5097 L821.1765,228.0446 L831.2059,228.1019 L841.2353,228.5224 L851.2647,227.6915 L861.2941,229.3515 L871.3235,227.7729 L881.3529,228.3496 L891.3824,229.1892 L901.4118,228.4989 L911.4412,228.7043 L921.4706,228.5707 L931.5,228.8513 L941.5294,228.9321 L951.5588,229.3942 L961.5882,229.508 L971.6176,229.519 L981.6471,228.9528 L991.6765,229.2314 L1001.7059,229.5496 L1011.7353,227.6517 L1021.7647,229.518 L1031.7941,228.2179 L1041.8235,229.325 L1051.8529,227.9533 L1061.8824,228.5219 L1071.9118,229.6021 L1081.9412,228.5483 L1091.9706,228.7537 L1102,228.6133 " fill="#222222" style="stroke: #FF69B4; stroke-width: 3.0;"/><path d="M761,236.6133 L761,236.8935 L771.0294,236.0609 L781.0588,236.871 L791.0882,237.1462 L801.1176,235.6621 L811.1471,236.5097 L821.1765,236.0446 L831.2059,236.1019 L841.2353,236.5224 L851.2647,235.6915 L861.2941,237.3515 L871.3235,235.7729 L881.3529,236.3496 L891.3824,237.1892 L901.4118,236.4989 L911.4412,236.7043 L921.4706,236.5707 L931.5,236.8513 L941.5294,236.9321 L951.5588,237.3942 L961.5882,237.508 L971.6176,237.519 L981.6471,236.9528 L991.6765,237.2314 L1001.7059,237.5496 L1011.7353,235.6517 L1021.7647,237.518 L1031.7941,236.2179 L1041.8235,237.325 L1051.8529,235.9533 L1061.8824,236.5219 L1071.9118,237.6021 L1081.9412,236.5483 L1091.9706,236.7537 L1102,236.6133 " fill="#222222" style="stroke: #FF69B4; stroke-width: 3.0;"/><polygon fill="#84BE84" points="774.0166,253.6355,773.5768,254.2363,773.0567,255.1164,772.3128,255.7095,771.5311,256.0338,770.9078,256.062,770.1067,255.6564,769.3509,255.3914,768.7771,254.8534,768.4762,254.2374,768.2977,253.747,768.1229,253.1064,767.8391,252.5552,768.0572,252.0169,768.2482,251.4274,768.9653,250.9611,769.4697,250.3561,770.0941,250.1552,770.8364,249.9821,771.7883,250.0849,772.3097,250.3308,772.9158,250.4423,773.6529,251.1974,773.9098,251.9946,774.0214,252.5385,773.895,253.4348" style="stroke: #038048; stroke-width: 1.0;"/><text fill="#A9A9A9" font-family="courier" font-size="15" lengthAdjust="spacingAndGlyphs" textLength="315" x="781" y="256.6938">doSomething(Prototype, prototipeid)</text><path d="M6,144 L6,312.6797 A0,0 0 0 0 6,312.6797 L725,312.6797 A0,0 0 0 0 725,312.6797 L725,232.5 L759.73,228.5 L725,224.5 L725,154 L715,144 L6,144 A0,0 0 0 0 6,144 " fill="#222222" style="stroke: #A9A9A9; stroke-width: 3.0;"/><path d="M715,144 L715.1868,144 L714.6317,146 L715.1718,148 L715.3553,150 L714.3659,152 L715,154 L715,153.9309 L717,153.6209 L719,153.6591 L721,153.9394 L723,153.3854 L725,154 L725.348,154.348 L722.6038,151.6038 L720.8757,149.8757 L719.2715,148.2715 L716.9461,145.9461 L715,144 " fill="#222222" style="stroke: #A9A9A9; stroke-width: 3.0;"/><text fill="#A9A9A9" font-family="courier" font-size="20" lengthAdjust="spacingAndGlyphs" textLength="528" x="13" y="170.1074">public doSomething(Prototype, prototipeid) {</text><text fill="#A9A9A9" font-family="courier" font-size="20" lengthAdjust="spacingAndGlyphs" textLength="36" x="37" y="196.2207">...</text><text fill="#A9A9A9" font-family="courier" font-size="20" lengthAdjust="spacingAndGlyphs" textLength="672" x="37" y="222.334">requestedPrototype = prototype.getPrototype(prototipeid)</text><text fill="#A9A9A9" font-family="courier" font-size="20" lengthAdjust="spacingAndGlyphs" textLength="324" x="37" y="248.4473">requestedPrototype.clone();</text><text fill="#A9A9A9" font-family="courier" font-size="20" lengthAdjust="spacingAndGlyphs" textLength="36" x="37" y="274.5605">...</text><text fill="#A9A9A9" font-family="courier" font-size="20" lengthAdjust="spacingAndGlyphs" textLength="12" x="13" y="300.6738">}</text><!--class Prototype--><polygon fill="#222222" points="985.5,373,985.5,373.2102,995.1667,372.5857,1004.8333,373.1933,1014.5,373.3997,1024.1667,372.2866,1033.8333,372.9223,1043.5,372.5735,1053.1667,372.6165,1062.8333,372.9318,1072.5,372.3086,1082.1667,373.5536,1091.8333,372.3697,1101.5,373,1101.3022,373,1101.9319,382.4623,1101.4142,391.9246,1101.5682,401.3868,1101.4681,410.8491,1101.6785,420.3114,1101.7391,429.7737,1102.0857,439.236,1101.5,448.6982,1101.5,449.3693,1091.8333,449.3775,1082.1667,448.9529,1072.5,449.1618,1062.8333,449.4005,1053.1667,447.9771,1043.5,449.3768,1033.8333,448.4017,1024.1667,449.2321,1014.5,448.2032,1004.8333,448.6297,995.1667,449.4398,985.5,448.6982,985.4513,448.6982,985.6053,439.236,985.8386,429.7737,985.9162,420.3114,985.4961,410.8491,985.7872,401.3868,984.9276,391.9246,985.7844,382.4623,985.5,373" style="stroke: #FF69B4; stroke-width: 3.0;"/><text fill="#FF69B4" font-family="courier" font-size="20" font-weight="bold" lengthAdjust="spacingAndGlyphs" textLength="108" x="989.5" y="399.1074">Prototype</text><path d="M986.5,411.1133 L986.5,411.3935 L996.8636,410.5609 L1007.2273,411.371 L1017.5909,411.6462 L1027.9545,410.1621 L1038.3182,411.0097 L1048.6818,410.5446 L1059.0455,410.6019 L1069.4091,411.0224 L1079.7727,410.1915 L1090.1364,411.8515 L1100.5,411.1133 " fill="#222222" style="stroke: #FF69B4; stroke-width: 3.0;"/><path d="M986.5,419.1133 L986.5,419.3935 L996.8636,418.5609 L1007.2273,419.371 L1017.5909,419.6462 L1027.9545,418.1621 L1038.3182,419.0097 L1048.6818,418.5446 L1059.0455,418.6019 L1069.4091,419.0224 L1079.7727,418.1915 L1090.1364,419.8515 L1100.5,419.1133 " fill="#222222" style="stroke: #FF69B4; stroke-width: 3.0;"/><polygon fill="#84BE84" points="999.5166,436.1355,999.0768,436.7363,998.5567,437.6164,997.8128,438.2095,997.0311,438.5338,996.4078,438.562,995.6067,438.1564,994.8509,437.8914,994.2771,437.3534,993.9762,436.7374,993.7977,436.247,993.6229,435.6064,993.3391,435.0552,993.5572,434.5169,993.7482,433.9274,994.4653,433.4611,994.9697,432.8561,995.5941,432.6552,996.3364,432.4821,997.2883,432.5849,997.8097,432.8308,998.4158,432.9423,999.1529,433.6974,999.4098,434.4946,999.5214,435.0385,999.395,435.9348" style="stroke: #038048; stroke-width: 1.0;"/><text fill="#A9A9A9" font-family="courier" font-size="15" lengthAdjust="spacingAndGlyphs" textLength="63" x="1006.5" y="439.1938">clone()</text><!--class ConcretePrototypeA--><polygon fill="#222222" points="802.5,509,802.5,509.2102,812.6818,508.5857,822.8636,509.1933,833.0455,509.3997,843.2273,508.2866,853.4091,508.9223,863.5909,508.5735,873.7727,508.6165,883.9545,508.9318,894.1364,508.3086,904.3182,509.5536,914.5,508.3697,924.6818,508.8022,934.8636,509.4319,945.0455,508.9142,955.2273,509.0682,965.4091,508.9681,975.5909,509.1785,985.7727,509.2391,995.9545,509.5857,1006.1364,509.6711,1016.3182,509.6793,1026.5,509,1026.7546,509,1026.9636,518.4623,1027.2022,527.9246,1025.7788,537.3868,1027.1785,546.8491,1026.2035,556.3114,1027.0338,565.7737,1026.005,575.236,1026.5,584.6982,1026.5,584.6297,1016.3182,585.4398,1006.1364,584.6495,995.9545,584.8035,985.7727,585.0369,975.5909,585.1145,965.4091,584.6943,955.2273,584.9855,945.0455,584.1258,934.8636,584.9826,924.6818,585.2464,914.5,585.1428,904.3182,585.3113,894.1364,584.2152,883.9545,584.0461,873.7727,584.0768,863.5909,584.6394,853.4091,584.5017,843.2273,585.3797,833.0455,584.5236,822.8636,584.3552,812.6818,584.9265,802.5,584.6982,801.8332,584.6982,801.9809,575.236,803.149,565.7737,802.9357,556.3114,803.2345,546.8491,802.1782,537.3868,802.8192,527.9246,803.0904,518.4623,802.5,509" style="stroke: #FF69B4; stroke-width: 3.0;"/><text fill="#FF69B4" font-family="courier" font-size="20" font-weight="bold" lengthAdjust="spacingAndGlyphs" textLength="216" x="806.5" y="535.1074">ConcretePrototypeA</text><path d="M803.5,547.1133 L803.5,547.3935 L813.5909,546.5609 L823.6818,547.371 L833.7727,547.6462 L843.8636,546.1621 L853.9545,547.0097 L864.0455,546.5446 L874.1364,546.6019 L884.2273,547.0224 L894.3182,546.1915 L904.4091,547.8515 L914.5,546.2729 L924.5909,546.8496 L934.6818,547.6892 L944.7727,546.9989 L954.8636,547.2043 L964.9545,547.0707 L975.0455,547.3513 L985.1364,547.4321 L995.2273,547.8942 L1005.3182,548.008 L1015.4091,548.019 L1025.5,547.1133 " fill="#222222" style="stroke: #FF69B4; stroke-width: 3.0;"/><path d="M803.5,555.1133 L803.5,555.3935 L813.5909,554.5609 L823.6818,555.371 L833.7727,555.6462 L843.8636,554.1621 L853.9545,555.0097 L864.0455,554.5446 L874.1364,554.6019 L884.2273,555.0224 L894.3182,554.1915 L904.4091,555.8515 L914.5,554.2729 L924.5909,554.8496 L934.6818,555.6892 L944.7727,554.9989 L954.8636,555.2043 L964.9545,555.0707 L975.0455,555.3513 L985.1364,555.4321 L995.2273,555.8942 L1005.3182,556.008 L1015.4091,556.019 L1025.5,555.1133 " fill="#222222" style="stroke: #FF69B4; stroke-width: 3.0;"/><polygon fill="#84BE84" points="816.5166,572.1355,816.0768,572.7363,815.5567,573.6164,814.8128,574.2095,814.0311,574.5338,813.4078,574.562,812.6067,574.1564,811.8509,573.8914,811.2771,573.3534,810.9762,572.7374,810.7977,572.247,810.6229,571.6064,810.3391,571.0552,810.5572,570.5169,810.7482,569.9274,811.4653,569.4611,811.9697,568.8561,812.5941,568.6552,813.3364,568.4821,814.2883,568.5849,814.8097,568.8308,815.4158,568.9423,816.1529,569.6974,816.4098,570.4946,816.5214,571.0385,816.395,571.9348" style="stroke: #038048; stroke-width: 1.0;"/><text fill="#A9A9A9" font-family="courier" font-size="15" lengthAdjust="spacingAndGlyphs" textLength="63" x="823.5" y="575.1938">clone()</text><!--class ConcretePrototypeB--><polygon fill="#222222" points="1061.5,509,1061.5,509.2102,1071.6818,508.5857,1081.8636,509.1933,1092.0455,509.3997,1102.2273,508.2866,1112.4091,508.9223,1122.5909,508.5735,1132.7727,508.6165,1142.9545,508.9318,1153.1364,508.3086,1163.3182,509.5536,1173.5,508.3697,1183.6818,508.8022,1193.8636,509.4319,1204.0455,508.9142,1214.2273,509.0682,1224.4091,508.9681,1234.5909,509.1785,1244.7727,509.2391,1254.9545,509.5857,1265.1364,509.6711,1275.3182,509.6793,1285.5,509,1285.7546,509,1285.9636,518.4623,1286.2022,527.9246,1284.7788,537.3868,1286.1785,546.8491,1285.2035,556.3114,1286.0338,565.7737,1285.005,575.236,1285.5,584.6982,1285.5,584.6297,1275.3182,585.4398,1265.1364,584.6495,1254.9545,584.8035,1244.7727,585.0369,1234.5909,585.1145,1224.4091,584.6943,1214.2273,584.9855,1204.0455,584.1258,1193.8636,584.9826,1183.6818,585.2464,1173.5,585.1428,1163.3182,585.3113,1153.1364,584.2152,1142.9545,584.0461,1132.7727,584.0768,1122.5909,584.6394,1112.4091,584.5017,1102.2273,585.3797,1092.0455,584.5236,1081.8636,584.3552,1071.6818,584.9265,1061.5,584.6982,1060.8332,584.6982,1060.9809,575.236,1062.149,565.7737,1061.9357,556.3114,1062.2345,546.8491,1061.1782,537.3868,1061.8192,527.9246,1062.0904,518.4623,1061.5,509" style="stroke: #FF69B4; stroke-width: 3.0;"/><text fill="#FF69B4" font-family="courier" font-size="20" font-weight="bold" lengthAdjust="spacingAndGlyphs" textLength="216" x="1065.5" y="535.1074">ConcretePrototypeB</text><path d="M1062.5,547.1133 L1062.5,547.3935 L1072.5909,546.5609 L1082.6818,547.371 L1092.7727,547.6462 L1102.8636,546.1621 L1112.9545,547.0097 L1123.0455,546.5446 L1133.1364,546.6019 L1143.2273,547.0224 L1153.3182,546.1915 L1163.4091,547.8515 L1173.5,546.2729 L1183.5909,546.8496 L1193.6818,547.6892 L1203.7727,546.9989 L1213.8636,547.2043 L1223.9545,547.0707 L1234.0455,547.3513 L1244.1364,547.4321 L1254.2273,547.8942 L1264.3182,548.008 L1274.4091,548.019 L1284.5,547.1133 " fill="#222222" style="stroke: #FF69B4; stroke-width: 3.0;"/><path d="M1062.5,555.1133 L1062.5,555.3935 L1072.5909,554.5609 L1082.6818,555.371 L1092.7727,555.6462 L1102.8636,554.1621 L1112.9545,555.0097 L1123.0455,554.5446 L1133.1364,554.6019 L1143.2273,555.0224 L1153.3182,554.1915 L1163.4091,555.8515 L1173.5,554.2729 L1183.5909,554.8496 L1193.6818,555.6892 L1203.7727,554.9989 L1213.8636,555.2043 L1223.9545,555.0707 L1234.0455,555.3513 L1244.1364,555.4321 L1254.2273,555.8942 L1264.3182,556.008 L1274.4091,556.019 L1284.5,555.1133 " fill="#222222" style="stroke: #FF69B4; stroke-width: 3.0;"/><polygon fill="#84BE84" points="1075.5166,572.1355,1075.0768,572.7363,1074.5567,573.6164,1073.8128,574.2095,1073.0311,574.5338,1072.4078,574.562,1071.6067,574.1564,1070.8509,573.8914,1070.2771,573.3534,1069.9762,572.7374,1069.7977,572.247,1069.6229,571.6064,1069.3391,571.0552,1069.5572,570.5169,1069.7482,569.9274,1070.4653,569.4611,1070.9697,568.8561,1071.5941,568.6552,1072.3364,568.4821,1073.2883,568.5849,1073.8097,568.8308,1074.4158,568.9423,1075.1529,569.6974,1075.4098,570.4946,1075.5214,571.0385,1075.395,571.9348" style="stroke: #038048; stroke-width: 1.0;"/><text fill="#A9A9A9" font-family="courier" font-size="15" lengthAdjust="spacingAndGlyphs" textLength="63" x="1082.5" y="575.1938">clone()</text><!--link Scenario to Director--><path d="M1020.29,84.4 L1020.5281,84.5477 L1014.5664,92.5771 L1010.0007,101.4725 L1004.9803,110.086 L998.4651,117.7719 L993.9311,126.687 L988.2818,134.9102 L983.0763,143.4088 L978.1794,152.0988 L972.2192,160.129 L968.3756,169.4725 L961.7801,177.1086 L957.24,186.02 " fill="none" style="stroke: #A9A9A9; stroke-width: 2.0; stroke-dasharray: 7.0,7.0;"/><polygon fill="#A9A9A9" points="954.48,190.46,954.5195,190.5178,956.0285,189.2347,957.7691,188.2906,959.4343,187.2362,960.8513,185.8186,962.6118,184.9036,962.6059,184.8784,961.4781,185.0257,960.3804,185.3,959.3036,185.6627,958.1548,185.721,957.1069,186.2056,957.2864,186.2481,956.642,185.0563,956.5219,183.9885,956.4658,182.9358,956.0374,181.7951,955.8048,180.7007,955.8274,180.7037,955.5293,182.6511,955.3339,184.6124,955.0889,186.567,954.9384,188.5344,954.48,190.46" style="stroke: #A9A9A9; stroke-width: 2.0;"/><!--link Scenario to Prototype--><path d="M1082.88,84.33 L1082.9518,84.3898 L1084.9458,86.8609 L1087.3605,89.6826 L1089.6382,92.3902 L1091.4654,94.7223 L1093.9163,97.5741 L1093.8882,97.5539 L1095.848,100.3723 L1097.9492,103.2921 L1100.1489,106.2825 L1102.0095,109.0298 L1104.345,112.1175 L1104.5574,112.2417 L1105.9234,115.0896 L1107.9096,118.3 L1109.9715,121.5547 L1111.5931,124.552 L1113.4463,127.6847 L1113.4741,127.6967 L1114.844,130.9421 L1116.3406,134.2423 L1117.7761,137.5161 L1119.3282,140.8402 L1120.5,144 L1120.7824,144.0959 L1121.6553,146.6583 L1122.346,149.1588 L1123.3033,151.7499 L1124.2732,154.3452 L1124.8471,156.8061 L1124.5415,156.7094 L1125.8881,159.2787 L1126.2284,161.5298 L1127.3337,164.0228 L1127.6513,166.2666 L1128.6145,168.7147 L1128.5853,168.7063 L1129.569,171.0333 L1129.8688,173.1645 L1130.5722,175.4112 L1131.3095,177.6676 L1131.8024,179.8541 L1131.9819,179.8987 L1132.3223,181.9534 L1132.9696,184.0842 L1133.1204,186.0918 L1134.0116,188.2833 L1134.4106,190.3525 L1134.6505,190.3951 L1135.3007,194.3044 L1136.0699,198.2348 L1136.2858,202.0669 L1136.9074,205.9711 L1137.8883,209.9391 L1137.6126,209.9218 L1138.094,213.6496 L1138.2648,217.358 L1138.8861,221.0945 L1138.7382,224.783 L1139.0475,228.5 L1138.8953,228.4905 L1138.9169,232.2185 L1138.288,235.9059 L1138.1217,239.6222 L1138.408,243.3667 L1137.8883,247.0609 L1138.0789,247.0948 L1137.5142,251.0353 L1136.3564,254.8706 L1135.9414,258.8377 L1135.3645,262.7761 L1134.4106,266.6475 L1134.2069,266.5969 L1133.8476,268.7369 L1133.4217,270.8604 L1133.1268,273.0164 L1132.3222,275.0458 L1131.8024,277.1459 L1132,277.2025 L1130.9282,279.3061 L1130.2379,281.5188 L1130.1049,283.8911 L1128.9458,285.9698 L1128.6145,288.2853 L1128.8302,288.3535 L1127.9486,290.6947 L1126.994,293.0128 L1126.2041,295.3831 L1125.795,297.8737 L1124.8471,300.1939 L1124.7211,300.1512 L1124.2267,302.8397 L1122.8756,305.2374 L1122.4987,307.9658 L1121.5732,310.508 L1120.5,313 L1120.6002,313.0427 L1119.2358,316.0209 L1118.2302,319.1519 L1116.9005,322.1449 L1115.4353,325.0802 L1114.0827,328.0634 L1114.1863,328.1223 L1112.3905,330.9241 L1111.0759,333.9994 L1109.2172,336.7654 L1107.5822,339.6586 L1105.8738,342.51 L1105.6515,342.356 L1103.8391,345.1302 L1102.2943,348.09 L1100.3708,350.7872 L1098.3114,353.3904 L1096.4405,356.1241 L1096.3288,356.0344 L1094.3465,358.5763 L1092.1665,360.9595 L1090.5299,363.779 L1088.6244,366.3826 L1086.35,368.69 " fill="none" style="stroke: #A9A9A9; stroke-width: 2.0; stroke-dasharray: 7.0,7.0;"/><polygon fill="#A9A9A9" points="1082.88,372.67,1082.9096,372.7335,1084.6073,371.7131,1086.4784,371.0651,1088.293,370.2957,1089.9219,369.1277,1091.8079,368.5116,1091.8062,368.4858,1090.6695,368.4475,1089.5418,368.5395,1088.4203,368.722,1087.2773,368.5925,1086.1644,368.9,1086.3485,368.9127,1085.8771,367.7569,1085.9433,366.6381,1086.075,365.5238,1085.8252,364.3833,1085.776,363.2565,1085.7977,363.2632,1085.1866,365.1361,1084.6745,367.0394,1084.1146,368.9281,1083.6458,370.8447,1082.88,372.67" style="stroke: #A9A9A9; stroke-width: 2.0;"/><!--link Director to Prototype--><path d="M954.71,266.9 L954.9481,267.0477 L959.4948,275.0771 L965.4373,283.9725 L970.9253,292.586 L974.9184,300.2719 L980.8928,309.187 L985.7518,317.4102 L991.0547,325.9088 L996.6661,334.5988 L1001.2142,342.629 L1007.8789,351.9725 L1011.7917,359.6086 L1017.76,368.52 " fill="none" style="stroke: #A9A9A9; stroke-width: 2.0; stroke-dasharray: 7.0,7.0;"/><polygon fill="#A9A9A9" points="1020.52,372.96,1020.5894,372.9694,1020.1182,370.9896,1020.0539,369.0649,1019.8571,367.1223,1019.2245,365.1205,1019.1952,363.2007,1019.1699,363.1947,1018.7964,364.2689,1018.5499,365.3732,1018.3918,366.4984,1017.9293,367.5516,1017.8931,368.7056,1017.9356,368.8852,1016.7438,368.2408,1015.676,368.1207,1014.6233,368.0645,1013.4826,367.6362,1012.3882,367.4036,1012.401,367.4224,1014.0085,368.5061,1015.6745,369.6753,1017.3122,370.8033,1019.0038,372.0099,1020.52,372.96" style="stroke: #A9A9A9; stroke-width: 2.0;"/><!--link Prototype to ConcretePrototypeA--><path d="M993.57,463.86 L993.7719,464.0544 L985.9504,470.9785 L979.3123,479.0421 L972.2889,486.7346 L963.9981,493.207 L957.387,501.2965 L950.24,508.87 " fill="none" style="stroke: #A9A9A9; stroke-width: 2.0;"/><polygon fill="none" points="988.65,458.88,988.6816,458.9425,992.3718,456.8467,996.247,455.1175,1000.062,453.2689,1003.6788,451.0277,1007.57,449.33,1007.5465,449.3192,1005.6748,453.1228,1003.9218,456.9807,1002.2513,460.8765,1000.2965,464.642,998.74,468.59,998.868,468.723,996.5763,466.4966,994.6583,464.6585,992.7858,462.8677,990.6482,460.8014,988.65,458.88" style="stroke: #A9A9A9; stroke-width: 2.0;"/><!--link Prototype to ConcretePrototypeB--><path d="M1093.81,463.86 L1094.0111,464.0551 L1100.6919,470.977 L1108.5516,479.0428 L1116.0275,486.7361 L1122.2407,493.2043 L1130.1273,501.2962 L1137.48,508.87 " fill="none" style="stroke: #A9A9A9; stroke-width: 2.0;"/><polygon fill="none" points="1088.61,468.56,1088.6736,468.5894,1086.7047,464.656,1085.1085,460.8951,1083.3909,457.078,1081.2742,453.0761,1079.71,449.33,1079.6984,449.3068,1083.4364,451.0989,1087.2328,453.0077,1091.0698,454.9977,1094.7669,456.7079,1098.66,458.81,1098.7885,458.9425,1096.5037,460.6092,1094.5941,462.6627,1092.7303,464.7633,1090.6001,466.5895,1088.61,468.56" style="stroke: #A9A9A9; stroke-width: 2.0;"/><!--
@startuml
skinparam backgroundColor #222222
skinparam handwritten true
hide circle

skinparam shadowing false
skinparam padding 1
skinparam arrow {
    Thickness 2
    Color #DarkGrey
    FontSize 20
    FontName courier
    FontStyle normal
    FontColor #DarkGrey
}
skinparam class {
    BorderThickness 3
    BorderColor #ff69b4
    BackgroundColor #222222
    FontSize 20
    FontName courier
    FontStyle bold
    FontColor #ff69b4
}
skinparam classAttribute {
    FontSize 15
    FontName courier
    FontStyle normal
    FontColor #DarkGrey
}
skinparam note {
    BorderThickness 3
    BorderColor #DarkGrey
    BackgroundColor #222222
    FontSize 20
    FontName courier
    FontStyle normal
    FontColor #DarkGrey
}

class Scenario  {
+ main()
}

class Director  {
+ doSomething(Prototype, prototipeid)
}
note left
public doSomething(Prototype, prototipeid) {
  ...
  requestedPrototype = prototype.getPrototype(prototipeid)
  requestedPrototype.clone();
  ...
}
end note

class Prototype  {
+ clone()
}

class ConcretePrototypeA  {
+ clone()
}

class ConcretePrototypeB  {
+ clone()
}

Scenario ..> Director
Scenario ..> Prototype
Director ..> Prototype
Prototype <|- - ConcretePrototypeA
Prototype <|- - ConcretePrototypeB

@enduml

PlantUML version 1.2019.05(Sat Apr 20 18:45:36 CEST 2019)
(GPL source distribution)
Java Runtime: Java(TM) SE Runtime Environment
JVM: Java HotSpot(TM) 64-Bit Server VM
Java Version: 11.0.14+8-LTS-263
Operating System: Windows 10
OS Version: 10.0
Default Encoding: windows-1252
Language: es
Country: ES
--></g></svg>