<?xml version="1.0" encoding="UTF-8" standalone="no"?><svg xmlns="http://www.w3.org/2000/svg" xmlns:xlink="http://www.w3.org/1999/xlink" contentScriptType="application/ecmascript" contentStyleType="text/css" height="562px" preserveAspectRatio="none" style="width:1561px;height:562px;background:#222222;" version="1.1" viewBox="0 0 1561 562" width="1561px" zoomAndPan="magnify"><defs/><g><!--class Scenario--><polygon fill="#222222" points="819.5,8,819.5,8.2102,829.9,7.5857,840.3,8.1933,850.7,8.3997,861.1,7.2866,871.5,7.9223,881.9,7.5735,892.3,7.6165,902.7,7.9318,913.1,7.3086,923.5,8,924.0536,8,922.8697,17.4623,923.3022,26.9246,923.9319,36.3868,923.4142,45.8491,923.5682,55.3114,923.4681,64.7737,923.6785,74.236,923.5,83.6982,923.5,83.9374,913.1,84.2839,902.7,84.3693,892.3,84.3775,881.9,83.9529,871.5,84.1618,861.1,84.4005,850.7,82.9771,840.3,84.3768,829.9,83.4017,819.5,83.6982,820.0338,83.6982,819.005,74.236,819.4315,64.7737,820.2416,55.3114,819.4513,45.8491,819.6053,36.3868,819.8386,26.9246,819.9162,17.4623,819.5,8" style="stroke: #FF69B4; stroke-width: 3.0;"/><text fill="#FF69B4" font-family="courier" font-size="20" font-weight="bold" lengthAdjust="spacingAndGlyphs" textLength="96" x="823.5" y="34.1074">Scenario</text><path d="M820.5,46.1133 L820.5,46.3935 L830.7,45.5609 L840.9,46.371 L851.1,46.6462 L861.3,45.1621 L871.5,46.0097 L881.7,45.5446 L891.9,45.6019 L902.1,46.0224 L912.3,45.1915 L922.5,46.1133 " fill="#222222" style="stroke: #FF69B4; stroke-width: 3.0;"/><path d="M820.5,54.1133 L820.5,54.3935 L830.7,53.5609 L840.9,54.371 L851.1,54.6462 L861.3,53.1621 L871.5,54.0097 L881.7,53.5446 L891.9,53.6019 L902.1,54.0224 L912.3,53.1915 L922.5,54.1133 " fill="#222222" style="stroke: #FF69B4; stroke-width: 3.0;"/><polygon fill="#84BE84" points="833.5166,71.1355,833.0768,71.7363,832.5567,72.6164,831.8128,73.2095,831.0311,73.5338,830.4078,73.562,829.6067,73.1564,828.8509,72.8914,828.2771,72.3534,827.9762,71.7374,827.7977,71.247,827.6229,70.6064,827.3391,70.0552,827.5572,69.5169,827.7482,68.9274,828.4653,68.4611,828.9697,67.8561,829.5941,67.6552,830.3364,67.4821,831.2883,67.5849,831.8097,67.8308,832.4158,67.9423,833.1529,68.6974,833.4098,69.4946,833.5214,70.0385,833.395,70.9348" style="stroke: #038048; stroke-width: 1.0;"/><text fill="#A9A9A9" font-family="courier" font-size="15" lengthAdjust="spacingAndGlyphs" textLength="54" x="840.5" y="74.1938">main()</text><!--class Creator--><polygon fill="#222222" points="790,167,790,167.2102,800.1875,166.5857,810.375,167.1933,820.5625,167.3997,830.75,166.2866,840.9375,166.9223,851.125,166.5735,861.3125,166.6165,871.5,166.9318,881.6875,166.3086,891.875,167.5536,902.0625,166.3697,912.25,166.8022,922.4375,167.4319,932.625,166.9142,942.8125,167.0682,953,167,952.9681,167,953.1785,176.7283,953.2391,186.4566,953.5857,196.185,953.6711,205.9133,953.6793,215.6416,953.2546,225.3699,953.4636,235.0982,953.7022,244.8266,952.2788,254.5549,953,264.2832,953,264.9617,942.8125,263.9867,932.625,264.817,922.4375,263.7882,912.25,264.2147,902.0625,265.0248,891.875,264.2345,881.6875,264.3885,871.5,264.6218,861.3125,264.6994,851.125,264.2793,840.9375,264.5704,830.75,263.7108,820.5625,264.5676,810.375,264.8314,800.1875,264.7277,790,264.2832,790.613,264.2832,789.5169,254.5549,789.3478,244.8266,789.3786,235.0982,789.9411,225.3699,789.8035,215.6416,790.6814,205.9133,789.8253,196.185,789.6569,186.4566,790.2283,176.7283,790,167" style="stroke: #FF69B4; stroke-width: 3.0;"/><text fill="#FF69B4" font-family="courier" font-size="20" font-weight="bold" lengthAdjust="spacingAndGlyphs" textLength="84" x="829.5" y="193.1074">Creator</text><path d="M791,205.1133 L791,205.3935 L801.0625,204.5609 L811.125,205.371 L821.1875,205.6462 L831.25,204.1621 L841.3125,205.0097 L851.375,204.5446 L861.4375,204.6019 L871.5,205.0224 L881.5625,204.1915 L891.625,205.8515 L901.6875,204.2729 L911.75,204.8496 L921.8125,205.6892 L931.875,204.9989 L941.9375,205.2043 L952,205.1133 " fill="#222222" style="stroke: #FF69B4; stroke-width: 3.0;"/><path d="M791,213.1133 L791,213.3935 L801.0625,212.5609 L811.125,213.371 L821.1875,213.6462 L831.25,212.1621 L841.3125,213.0097 L851.375,212.5446 L861.4375,212.6019 L871.5,213.0224 L881.5625,212.1915 L891.625,213.8515 L901.6875,212.2729 L911.75,212.8496 L921.8125,213.6892 L931.875,212.9989 L941.9375,213.2043 L952,213.1133 " fill="#222222" style="stroke: #FF69B4; stroke-width: 3.0;"/><polygon fill="#84BE84" points="804.0166,230.1355,803.5768,230.7363,803.0567,231.6164,802.3128,232.2095,801.5311,232.5338,800.9078,232.562,800.1067,232.1564,799.3509,231.8914,798.7771,231.3534,798.4762,230.7374,798.2977,230.247,798.1229,229.6064,797.8391,229.0552,798.0572,228.5169,798.2482,227.9274,798.9653,227.4611,799.4697,226.8561,800.0941,226.6552,800.8364,226.4821,801.7883,226.5849,802.3097,226.8308,802.9158,226.9423,803.6529,227.6974,803.9098,228.4946,804.0214,229.0385,803.895,229.9348" style="stroke: #038048; stroke-width: 1.0;"/><text fill="#A9A9A9" font-family="courier" font-size="15" lengthAdjust="spacingAndGlyphs" textLength="135" x="811" y="233.1938">factoryMethod()</text><polygon fill="#84BE84" points="804.0166,251.7204,803.5768,252.3213,803.0567,253.2014,802.3128,253.7945,801.5311,254.1188,800.9078,254.1469,800.1067,253.7413,799.3509,253.4763,798.7771,252.9383,798.4762,252.3224,798.2977,251.832,798.1229,251.1914,797.8391,250.6401,798.0572,250.1019,798.2482,249.5123,798.9653,249.046,799.4697,248.441,800.0941,248.2401,800.8364,248.0671,801.7883,248.1699,802.3097,248.4158,802.9158,248.5272,803.6529,249.2824,803.9098,250.0795,804.0214,250.6235,803.895,251.5198" style="stroke: #038048; stroke-width: 1.0;"/><text fill="#A9A9A9" font-family="courier" font-size="15" lengthAdjust="spacingAndGlyphs" textLength="117" x="811" y="254.7788">doSomething()</text><path d="M456,144 L456,286.5664 A0,0 0 0 0 456,286.5664 L755,286.5664 A0,0 0 0 0 755,286.5664 L755,219.5 L789.67,215.5 L755,211.5 L755,154 L745,144 L456,144 A0,0 0 0 0 456,144 " fill="#222222" style="stroke: #A9A9A9; stroke-width: 3.0;"/><path d="M745,144 L745.1868,144 L744.6317,146 L745.1718,148 L745.3553,150 L744.3659,152 L745,154 L745,153.9309 L747,153.6209 L749,153.6591 L751,153.9394 L753,153.3854 L755,154 L755.348,154.348 L752.6038,151.6038 L750.8757,149.8757 L749.2715,148.2715 L746.9461,145.9461 L745,144 " fill="#222222" style="stroke: #A9A9A9; stroke-width: 3.0;"/><text fill="#A9A9A9" font-family="courier" font-size="20" lengthAdjust="spacingAndGlyphs" textLength="264" x="463" y="170.1074">public doSomething() {</text><text fill="#A9A9A9" font-family="courier" font-size="20" lengthAdjust="spacingAndGlyphs" textLength="36" x="487" y="196.2207">...</text><text fill="#A9A9A9" font-family="courier" font-size="20" lengthAdjust="spacingAndGlyphs" textLength="252" x="487" y="222.334">this.factoryMethod();</text><text fill="#A9A9A9" font-family="courier" font-size="20" lengthAdjust="spacingAndGlyphs" textLength="36" x="487" y="248.4473">...</text><text fill="#A9A9A9" font-family="courier" font-size="20" lengthAdjust="spacingAndGlyphs" textLength="12" x="463" y="274.5605">}</text><!--class ConcreteCreatorA--><polygon fill="#222222" points="448.5,354,448.5,354.2102,458.5,353.5857,468.5,354.1933,478.5,354.3997,488.5,353.2866,498.5,353.9223,508.5,353.5735,518.5,353.6165,528.5,353.9318,538.5,353.3086,548.5,354.5536,558.5,353.3697,568.5,353.8022,578.5,354.4319,588.5,353.9142,598.5,354.0682,608.5,353.9681,618.5,354.1785,628.5,354.2391,638.5,354.5857,648.5,354,649.1711,354,649.1793,363.4623,648.7546,372.9246,648.9636,382.3868,649.2022,391.8491,647.7788,401.3114,649.1785,410.7737,648.2035,420.236,648.5,429.6982,648.5,430.2321,638.5,429.2032,628.5,429.6297,618.5,430.4398,608.5,429.6495,598.5,429.8035,588.5,430.0369,578.5,430.1145,568.5,429.6943,558.5,429.9855,548.5,429.1258,538.5,429.9826,528.5,430.2464,518.5,430.1428,508.5,430.3113,498.5,429.2152,488.5,429.0461,478.5,429.0768,468.5,429.6394,458.5,429.5017,448.5,429.6982,449.1814,429.6982,448.3253,420.236,448.1569,410.7737,448.7283,401.3114,447.8332,391.8491,447.9809,382.3868,449.149,372.9246,448.9357,363.4623,448.5,354" style="stroke: #FF69B4; stroke-width: 3.0;"/><text fill="#FF69B4" font-family="courier" font-size="20" font-weight="bold" lengthAdjust="spacingAndGlyphs" textLength="192" x="452.5" y="380.1074">ConcreteCreatorA</text><path d="M449.5,392.1133 L449.5,392.3935 L459.4,391.5609 L469.3,392.371 L479.2,392.6462 L489.1,391.1621 L499,392.0097 L508.9,391.5446 L518.8,391.6019 L528.7,392.0224 L538.6,391.1915 L548.5,392.8515 L558.4,391.2729 L568.3,391.8496 L578.2,392.6892 L588.1,391.9989 L598,392.2043 L607.9,392.0707 L617.8,392.3513 L627.7,392.4321 L637.6,392.8942 L647.5,392.1133 " fill="#222222" style="stroke: #FF69B4; stroke-width: 3.0;"/><path d="M449.5,400.1133 L449.5,400.3935 L459.4,399.5609 L469.3,400.371 L479.2,400.6462 L489.1,399.1621 L499,400.0097 L508.9,399.5446 L518.8,399.6019 L528.7,400.0224 L538.6,399.1915 L548.5,400.8515 L558.4,399.2729 L568.3,399.8496 L578.2,400.6892 L588.1,399.9989 L598,400.2043 L607.9,400.0707 L617.8,400.3513 L627.7,400.4321 L637.6,400.8942 L647.5,400.1133 " fill="#222222" style="stroke: #FF69B4; stroke-width: 3.0;"/><polygon fill="#84BE84" points="462.5166,417.1355,462.0768,417.7363,461.5567,418.6164,460.8128,419.2095,460.0311,419.5338,459.4078,419.562,458.6067,419.1564,457.8509,418.8914,457.2771,418.3534,456.9762,417.7374,456.7977,417.247,456.6229,416.6064,456.3391,416.0552,456.5572,415.5169,456.7482,414.9274,457.4653,414.4611,457.9697,413.8561,458.5941,413.6552,459.3364,413.4821,460.2883,413.5849,460.8097,413.8308,461.4158,413.9423,462.1529,414.6974,462.4098,415.4946,462.5214,416.0385,462.395,416.9348" style="stroke: #038048; stroke-width: 1.0;"/><text fill="#A9A9A9" font-family="courier" font-size="15" lengthAdjust="spacingAndGlyphs" textLength="135" x="469.5" y="420.1938">factoryMethod()</text><path d="M6,347 L6,437.3398 A0,0 0 0 0 6,437.3398 L413,437.3398 A0,0 0 0 0 413,437.3398 L413,396 L448.27,392 L413,388 L413,357 L403,347 L6,347 A0,0 0 0 0 6,347 " fill="#222222" style="stroke: #A9A9A9; stroke-width: 3.0;"/><path d="M403,347 L403.1868,347 L402.6317,349 L403.1718,351 L403.3553,353 L402.3659,355 L403,357 L403,356.9309 L405,356.6209 L407,356.6591 L409,356.9394 L411,356.3854 L413,357 L413.348,357.348 L410.6038,354.6038 L408.8757,352.8757 L407.2715,351.2715 L404.9461,348.9461 L403,347 " fill="#222222" style="stroke: #A9A9A9; stroke-width: 3.0;"/><text fill="#A9A9A9" font-family="courier" font-size="20" lengthAdjust="spacingAndGlyphs" textLength="360" x="13" y="373.1074">public getConcreteProductA() {</text><text fill="#A9A9A9" font-family="courier" font-size="20" lengthAdjust="spacingAndGlyphs" textLength="360" x="37" y="399.2207">return new ConcreteProductA();</text><text fill="#A9A9A9" font-family="courier" font-size="20" lengthAdjust="spacingAndGlyphs" textLength="12" x="13" y="425.334">}</text><!--class ConcreteCreatorB--><polygon fill="#222222" points="906.5,354,906.5,354.2102,916.5,353.5857,926.5,354.1933,936.5,354.3997,946.5,353.2866,956.5,353.9223,966.5,353.5735,976.5,353.6165,986.5,353.9318,996.5,353.3086,1006.5,354.5536,1016.5,353.3697,1026.5,353.8022,1036.5,354.4319,1046.5,353.9142,1056.5,354.0682,1066.5,353.9681,1076.5,354.1785,1086.5,354.2391,1096.5,354.5857,1106.5,354,1107.1711,354,1107.1793,363.4623,1106.7546,372.9246,1106.9636,382.3868,1107.2022,391.8491,1105.7788,401.3114,1107.1785,410.7737,1106.2035,420.236,1106.5,429.6982,1106.5,430.2321,1096.5,429.2032,1086.5,429.6297,1076.5,430.4398,1066.5,429.6495,1056.5,429.8035,1046.5,430.0369,1036.5,430.1145,1026.5,429.6943,1016.5,429.9855,1006.5,429.1258,996.5,429.9826,986.5,430.2464,976.5,430.1428,966.5,430.3113,956.5,429.2152,946.5,429.0461,936.5,429.0768,926.5,429.6394,916.5,429.5017,906.5,429.6982,907.1814,429.6982,906.3253,420.236,906.1569,410.7737,906.7283,401.3114,905.8332,391.8491,905.9809,382.3868,907.149,372.9246,906.9357,363.4623,906.5,354" style="stroke: #FF69B4; stroke-width: 3.0;"/><text fill="#FF69B4" font-family="courier" font-size="20" font-weight="bold" lengthAdjust="spacingAndGlyphs" textLength="192" x="910.5" y="380.1074">ConcreteCreatorB</text><path d="M907.5,392.1133 L907.5,392.3935 L917.4,391.5609 L927.3,392.371 L937.2,392.6462 L947.1,391.1621 L957,392.0097 L966.9,391.5446 L976.8,391.6019 L986.7,392.0224 L996.6,391.1915 L1006.5,392.8515 L1016.4,391.2729 L1026.3,391.8496 L1036.2,392.6892 L1046.1,391.9989 L1056,392.2043 L1065.9,392.0707 L1075.8,392.3513 L1085.7,392.4321 L1095.6,392.8942 L1105.5,392.1133 " fill="#222222" style="stroke: #FF69B4; stroke-width: 3.0;"/><path d="M907.5,400.1133 L907.5,400.3935 L917.4,399.5609 L927.3,400.371 L937.2,400.6462 L947.1,399.1621 L957,400.0097 L966.9,399.5446 L976.8,399.6019 L986.7,400.0224 L996.6,399.1915 L1006.5,400.8515 L1016.4,399.2729 L1026.3,399.8496 L1036.2,400.6892 L1046.1,399.9989 L1056,400.2043 L1065.9,400.0707 L1075.8,400.3513 L1085.7,400.4321 L1095.6,400.8942 L1105.5,400.1133 " fill="#222222" style="stroke: #FF69B4; stroke-width: 3.0;"/><polygon fill="#84BE84" points="920.5166,417.1355,920.0768,417.7363,919.5567,418.6164,918.8128,419.2095,918.0311,419.5338,917.4078,419.562,916.6067,419.1564,915.8509,418.8914,915.2771,418.3534,914.9762,417.7374,914.7977,417.247,914.6229,416.6064,914.3391,416.0552,914.5572,415.5169,914.7482,414.9274,915.4653,414.4611,915.9697,413.8561,916.5941,413.6552,917.3364,413.4821,918.2883,413.5849,918.8097,413.8308,919.4158,413.9423,920.1529,414.6974,920.4098,415.4946,920.5214,416.0385,920.395,416.9348" style="stroke: #038048; stroke-width: 1.0;"/><text fill="#A9A9A9" font-family="courier" font-size="15" lengthAdjust="spacingAndGlyphs" textLength="135" x="927.5" y="420.1938">factoryMethod()</text><path d="M1142,347 L1142,388 L1106.81,392 L1142,396 L1142,437.3398 A0,0 0 0 0 1142,437.3398 L1549,437.3398 A0,0 0 0 0 1549,437.3398 L1549,357 L1539,347 L1142,347 A0,0 0 0 0 1142,347 " fill="#222222" style="stroke: #A9A9A9; stroke-width: 3.0;"/><path d="M1539,347 L1539.1868,347 L1538.6317,349 L1539.1718,351 L1539.3553,353 L1538.3659,355 L1539,357 L1539,356.9309 L1541,356.6209 L1543,356.6591 L1545,356.9394 L1547,356.3854 L1549,357 L1549.348,357.348 L1546.6038,354.6038 L1544.8757,352.8757 L1543.2715,351.2715 L1540.9461,348.9461 L1539,347 " fill="#222222" style="stroke: #A9A9A9; stroke-width: 3.0;"/><text fill="#A9A9A9" font-family="courier" font-size="20" lengthAdjust="spacingAndGlyphs" textLength="360" x="1149" y="373.1074">public getConcreteProductB() {</text><text fill="#A9A9A9" font-family="courier" font-size="20" lengthAdjust="spacingAndGlyphs" textLength="360" x="1173" y="399.2207">return new ConcreteProductB();</text><text fill="#A9A9A9" font-family="courier" font-size="20" lengthAdjust="spacingAndGlyphs" textLength="12" x="1149" y="425.334">}</text><!--class AbstractProduct--><polygon fill="#222222" points="683.5,365,683.5,365.2102,693.3947,364.5857,703.2895,365.1933,713.1842,365.3997,723.0789,364.2866,732.9737,364.9223,742.8684,364.5735,752.7632,364.6165,762.6579,364.9318,772.5526,364.3086,782.4474,365.5536,792.3421,364.3697,802.2368,364.8022,812.1316,365.4319,822.0263,364.9142,831.9211,365.0682,841.8158,364.9681,851.7105,365.1785,861.6053,365.2391,871.5,365,872.0857,365,872.1711,375.8227,872.1793,386.6453,871.7546,397.468,871.9636,408.2906,871.5,419.1133,871.5,419.8155,861.6053,418.3921,851.7105,419.7918,841.8158,418.8168,831.9211,419.6471,822.0263,418.6183,812.1316,419.0448,802.2368,419.8549,792.3421,419.0645,782.4474,419.2186,772.5526,419.4519,762.6579,419.5295,752.7632,419.1094,742.8684,419.4005,732.9737,418.5409,723.0789,419.3977,713.1842,419.6615,703.2895,419.5578,693.3947,419.7263,683.5,419.1133,683.0169,419.1133,682.8478,408.2906,682.8786,397.468,683.4411,386.6453,683.3035,375.8227,683.5,365" style="stroke: #FF69B4; stroke-width: 3.0;"/><text fill="#FF69B4" font-family="courier" font-size="20" font-weight="bold" lengthAdjust="spacingAndGlyphs" textLength="180" x="687.5" y="391.1074">AbstractProduct</text><path d="M684.5,403.1133 L684.5,403.3935 L694.2895,402.5609 L704.0789,403.371 L713.8684,403.6462 L723.6579,402.1621 L733.4474,403.0097 L743.2368,402.5446 L753.0263,402.6019 L762.8158,403.0224 L772.6053,402.1915 L782.3947,403.8515 L792.1842,402.2729 L801.9737,402.8496 L811.7632,403.6892 L821.5526,402.9989 L831.3421,403.2043 L841.1316,403.0707 L850.9211,403.3513 L860.7105,403.4321 L870.5,403.1133 " fill="#222222" style="stroke: #FF69B4; stroke-width: 3.0;"/><path d="M684.5,411.1133 L684.5,411.3935 L694.2895,410.5609 L704.0789,411.371 L713.8684,411.6462 L723.6579,410.1621 L733.4474,411.0097 L743.2368,410.5446 L753.0263,410.6019 L762.8158,411.0224 L772.6053,410.1915 L782.3947,411.8515 L792.1842,410.2729 L801.9737,410.8496 L811.7632,411.6892 L821.5526,410.9989 L831.3421,411.2043 L841.1316,411.0707 L850.9211,411.3513 L860.7105,411.4321 L870.5,411.1133 " fill="#222222" style="stroke: #FF69B4; stroke-width: 3.0;"/><!--class ConcreteProductA--><polygon fill="#222222" points="559.5,497,559.5,497.2102,569.5,496.5857,579.5,497.1933,589.5,497.3997,599.5,496.2866,609.5,496.9223,619.5,496.5735,629.5,496.6165,639.5,496.9318,649.5,496.3086,659.5,497.5536,669.5,496.3697,679.5,496.8022,689.5,497.4319,699.5,496.9142,709.5,497.0682,719.5,496.9681,729.5,497.1785,739.5,497.2391,749.5,497.5857,759.5,497,760.1711,497,760.1793,507.8227,759.7546,518.6453,759.9636,529.468,760.2022,540.2906,759.5,551.1133,759.5,550.3921,749.5,551.7918,739.5,550.8168,729.5,551.6471,719.5,550.6183,709.5,551.0448,699.5,551.8549,689.5,551.0645,679.5,551.2186,669.5,551.4519,659.5,551.5295,649.5,551.1094,639.5,551.4005,629.5,550.5409,619.5,551.3977,609.5,551.6615,599.5,551.5578,589.5,551.7263,579.5,550.6302,569.5,550.4611,559.5,551.1133,558.8786,551.1133,559.4411,540.2906,559.3035,529.468,560.1814,518.6453,559.3253,507.8227,559.5,497" style="stroke: #FF69B4; stroke-width: 3.0;"/><text fill="#FF69B4" font-family="courier" font-size="20" font-weight="bold" lengthAdjust="spacingAndGlyphs" textLength="192" x="563.5" y="523.1074">ConcreteProductA</text><path d="M560.5,535.1133 L560.5,535.3935 L570.4,534.5609 L580.3,535.371 L590.2,535.6462 L600.1,534.1621 L610,535.0097 L619.9,534.5446 L629.8,534.6019 L639.7,535.0224 L649.6,534.1915 L659.5,535.8515 L669.4,534.2729 L679.3,534.8496 L689.2,535.6892 L699.1,534.9989 L709,535.2043 L718.9,535.0707 L728.8,535.3513 L738.7,535.4321 L748.6,535.8942 L758.5,535.1133 " fill="#222222" style="stroke: #FF69B4; stroke-width: 3.0;"/><path d="M560.5,543.1133 L560.5,543.3935 L570.4,542.5609 L580.3,543.371 L590.2,543.6462 L600.1,542.1621 L610,543.0097 L619.9,542.5446 L629.8,542.6019 L639.7,543.0224 L649.6,542.1915 L659.5,543.8515 L669.4,542.2729 L679.3,542.8496 L689.2,543.6892 L699.1,542.9989 L709,543.2043 L718.9,543.0707 L728.8,543.3513 L738.7,543.4321 L748.6,543.8942 L758.5,543.1133 " fill="#222222" style="stroke: #FF69B4; stroke-width: 3.0;"/><!--class ConcreteProductB--><polygon fill="#222222" points="850.5,497,850.5,497.2102,860.5,496.5857,870.5,497.1933,880.5,497.3997,890.5,496.2866,900.5,496.9223,910.5,496.5735,920.5,496.6165,930.5,496.9318,940.5,496.3086,950.5,497.5536,960.5,496.3697,970.5,496.8022,980.5,497.4319,990.5,496.9142,1000.5,497.0682,1010.5,496.9681,1020.5,497.1785,1030.5,497.2391,1040.5,497.5857,1050.5,497,1051.1711,497,1051.1793,507.8227,1050.7546,518.6453,1050.9636,529.468,1051.2022,540.2906,1050.5,551.1133,1050.5,550.3921,1040.5,551.7918,1030.5,550.8168,1020.5,551.6471,1010.5,550.6183,1000.5,551.0448,990.5,551.8549,980.5,551.0645,970.5,551.2186,960.5,551.4519,950.5,551.5295,940.5,551.1094,930.5,551.4005,920.5,550.5409,910.5,551.3977,900.5,551.6615,890.5,551.5578,880.5,551.7263,870.5,550.6302,860.5,550.4611,850.5,551.1133,849.8786,551.1133,850.4411,540.2906,850.3035,529.468,851.1814,518.6453,850.3253,507.8227,850.5,497" style="stroke: #FF69B4; stroke-width: 3.0;"/><text fill="#FF69B4" font-family="courier" font-size="20" font-weight="bold" lengthAdjust="spacingAndGlyphs" textLength="192" x="854.5" y="523.1074">ConcreteProductB</text><path d="M851.5,535.1133 L851.5,535.3935 L861.4,534.5609 L871.3,535.371 L881.2,535.6462 L891.1,534.1621 L901,535.0097 L910.9,534.5446 L920.8,534.6019 L930.7,535.0224 L940.6,534.1915 L950.5,535.8515 L960.4,534.2729 L970.3,534.8496 L980.2,535.6892 L990.1,534.9989 L1000,535.2043 L1009.9,535.0707 L1019.8,535.3513 L1029.7,535.4321 L1039.6,535.8942 L1049.5,535.1133 " fill="#222222" style="stroke: #FF69B4; stroke-width: 3.0;"/><path d="M851.5,543.1133 L851.5,543.3935 L861.4,542.5609 L871.3,543.371 L881.2,543.6462 L891.1,542.1621 L901,543.0097 L910.9,542.5446 L920.8,542.6019 L930.7,543.0224 L940.6,542.1915 L950.5,543.8515 L960.4,542.2729 L970.3,542.8496 L980.2,543.6892 L990.1,542.9989 L1000,543.2043 L1009.9,543.0707 L1019.8,543.3513 L1029.7,543.4321 L1039.6,543.8942 L1049.5,543.1133 " fill="#222222" style="stroke: #FF69B4; stroke-width: 3.0;"/><!--link Scenario to Creator--><path d="M871.5,84.17 L871.7802,84.17 L870.9476,93.85 L871.7577,103.53 L872.0329,113.21 L870.5488,122.89 L871.3964,132.57 L870.9313,142.25 L870.9887,151.93 L871.5,161.61 " fill="none" style="stroke: #A9A9A9; stroke-width: 2.0; stroke-dasharray: 7.0,7.0;"/><polygon fill="#A9A9A9" points="871.5,166.91,871.564,166.9385,872.1738,165.0539,873.1589,163.3362,874.0217,161.5641,874.4827,159.6134,875.5,157.91,875.4817,157.8917,874.5995,158.6095,873.8096,159.4196,873.0839,160.2939,872.137,160.947,871.5,161.91,871.6305,162.0405,870.5514,160.9614,869.8534,160.2634,869.2018,159.6118,868.2798,158.6898,867.5,157.91,867.5208,157.9192,868.2903,159.7057,869.1544,161.5342,869.9728,163.3424,870.8784,165.1893,871.5,166.91" style="stroke: #A9A9A9; stroke-width: 2.0;"/><!--link Scenario to ConcreteCreatorA--><path d="M819.47,50.74 L819.4781,50.8331 L815.2595,50.9234 L811.0886,51.5593 L806.9022,52.0176 L802.6646,51.8917 L798.4978,52.5744 L798.4945,52.54 L793.79,52.8364 L789.1022,53.306 L784.426,53.8962 L779.7099,54.0711 L775.0496,54.8277 L775.0755,55.0724 L769.9252,55.0884 L764.8505,55.8188 L759.785,56.6364 L754.6658,56.9469 L749.5749,57.5241 L749.5784,57.5542 L744.1629,58.1428 L738.7634,58.8685 L733.3562,59.5281 L727.9637,60.3139 L722.5231,60.6881 L722.5615,60.9839 L716.9261,61.7187 L711.2659,62.2627 L705.642,63.086 L700.0198,63.9224 L694.3438,64.3441 L694.2979,64.0269 L688.6154,65.477 L682.7819,65.8826 L677.0633,67.0823 L671.2263,67.4642 L665.4863,68.5164 L665.4815,68.4864 L659.7218,69.7844 L653.8484,70.3802 L648.0422,71.3904 L642.2415,72.4354 L636.4002,73.2294 L636.4325,73.4116 L633.5023,73.7411 L630.6272,74.3819 L627.6629,74.519 L624.8316,75.4074 L621.9119,75.7963 L621.9571,76.0357 L619.0732,76.5327 L616.2116,77.1485 L613.246,77.212 L610.3567,77.6804 L607.535,78.5075 L607.4805,78.2367 L604.688,79.0536 L601.834,79.5653 L599.0691,80.5195 L596.1522,80.7182 L593.3257,81.3661 L593.2936,81.217 L590.5499,82.067 L587.6691,82.2799 L584.8858,82.9459 L582.1979,84.0552 L579.3401,84.375 L579.3836,84.5637 L576.6723,85.3256 L573.8257,85.5007 L571.1486,86.4107 L568.4346,87.1607 L565.6344,87.5375 L565.5838,87.3337 L562.9503,88.1599 L560.3001,88.9194 L557.6825,89.81 L554.9384,90.1908 L552.2649,90.8564 L552.3181,91.055 L549.6058,91.3144 L546.9961,91.9571 L544.5366,93.1597 L541.8007,93.3314 L539.2877,94.3349 L539.3509,94.5521 L536.8076,95.1513 L534.243,95.677 L531.7266,96.3686 L529.3217,97.4436 L526.759,97.976 L526.7189,97.8491 L524.4336,98.9881 L521.8753,99.2645 L519.6275,100.5216 L517.2048,101.2266 L514.735,101.7827 L514.7707,101.8856 L512.4493,102.5976 L510.2556,103.678 L507.9465,104.4256 L505.5892,105.0341 L503.2719,105.7581 L503.3144,105.8695 L501.082,106.5335 L499.0472,107.7144 L496.7888,108.3107 L494.6224,109.1475 L492.4258,109.9053 L492.3201,109.6564 L490.3208,110.6039 L488.4489,111.8512 L486.3968,112.6742 L484.28,113.3453 L482.2529,114.2272 L482.1913,114.098 L480.3224,115.0393 L478.3444,115.7518 L476.6661,117.0935 L474.8396,118.1238 L472.8095,118.727 L472.9207,118.9328 L471.2248,119.9348 L469.3174,120.5458 L467.6332,121.5695 L465.8013,122.32 L464.1516,123.4077 L464.2221,123.5124 L461.266,125.4819 L458.3951,127.5778 L455.2542,129.2727 L452.331,131.291 L449.4175,133.3238 L449.5553,133.4647 L447.4103,135.6393 L444.8912,137.4314 L442.8068,139.6679 L440.7299,141.9122 L438.5,144 L438.2824,143.8376 L437.2612,145.922 L435.8625,147.7247 L434.37,149.4573 L433.0919,151.3499 L431.6765,153.1402 L431.95,153.3136 L430.4362,154.8364 L429.5489,156.7566 L428.415,158.5204 L427.2284,160.2507 L426.062,161.9939 L426.1189,162.0201 L424.5361,165.4292 L422.6667,168.7062 L421.1851,172.1619 L419.5889,175.5648 L418.2036,179.0647 L418.2312,179.071 L417.4834,182.3918 L416.757,185.7176 L415.8025,188.9912 L415.1409,192.3317 L414.4118,195.6568 L414.3584,195.6561 L414.6206,198.9722 L414.5062,202.2828 L414.0532,205.5886 L414.189,208.9029 L414.1738,212.215 L413.9206,212.1732 L414.8607,215.6296 L415.5617,219.0466 L416.0942,222.4357 L416.2249,225.7585 L416.9765,229.1838 L417.174,229.2429 L417.7263,232.654 L419.1939,236.3389 L420.0474,239.8401 L421.2821,243.4553 L422.307,247.0078 L422.4073,247.0447 L423.1945,248.9547 L423.388,250.6459 L424.5771,252.7039 L425.1437,254.5325 L425.76,256.3795 L425.9066,256.438 L426.8472,258.4531 L427.3193,260.2813 L428.1678,262.2597 L428.9621,264.2164 L429.6525,266.1317 L429.7332,266.1659 L431.4217,270.3052 L433.4823,274.6023 L434.7115,278.5469 L436.9618,282.9244 L438.5,287 L438.2502,286.8795 L439.166,288.724 L440.2806,290.6645 L441.1583,292.4907 L441.832,294.2184 L442.9116,296.142 L443.0703,296.2348 L443.9857,297.9323 L445.2551,299.8368 L446.2646,301.5894 L446.8689,303.1051 L448.0733,304.9716 L447.9272,304.8718 L449.1871,306.6392 L450.5262,308.4607 L451.7048,310.1726 L452.8286,311.8471 L453.8793,313.4716 L453.7593,313.3783 L455.3714,315.276 L456.6394,316.9059 L457.6694,318.3507 L458.871,319.9291 L460.2238,321.625 L460.0892,321.5079 L461.5072,323.1203 L462.9807,324.7809 L464.2671,326.2788 L465.5054,327.7348 L467.0009,329.4146 L467.1572,329.5646 L468.2744,330.7552 L470.0036,332.5327 L471.4003,333.9913 L472.8033,335.4561 L474.1048,336.8234 L474.3177,337.0458 L475.4943,338.1467 L476.9424,339.5312 L478.6593,341.1965 L479.7814,342.2404 L481.4298,343.8343 L481.3608,343.7564 L482.9519,345.1918 L484.4261,346.4954 L485.7882,347.6725 L487.3693,349.0966 L488.87,350.43 " fill="none" style="stroke: #A9A9A9; stroke-width: 2.0; stroke-dasharray: 7.0,7.0;"/><polygon fill="#A9A9A9" points="492.84,353.77,492.903,353.8006,491.8549,351.938,491.1761,350.2548,490.3771,348.5132,489.1824,346.5794,488.5354,344.9116,488.5096,344.9094,488.49,346.0268,488.6005,347.1553,488.8015,348.2915,488.6907,349.4011,489.0166,350.548,489.0323,350.7319,487.8714,350.4349,486.7564,350.6748,485.647,350.9802,484.505,350.9044,483.3802,351.0292,483.3865,351.051,485.2692,351.5671,487.1807,352.1826,489.0783,352.7502,491.0024,353.4093,492.84,353.77" style="stroke: #A9A9A9; stroke-width: 2.0;"/><!--link Scenario to ConcreteCreatorB--><path d="M921.22,84 L921.2841,84.068 L923.8591,86.4743 L926.8098,89.2789 L929.6381,91.9539 L932.0641,94.2022 L935.047,97.0411 L935.0216,97.0177 L937.5765,99.8087 L940.2594,102.7177 L943.0313,105.7087 L945.4964,108.417 L948.3913,111.5213 L948.5864,111.6712 L950.5848,114.4945 L953.153,117.7555 L955.7906,121.0699 L958.0239,124.0736 L960.4698,127.2408 L960.4959,127.2564 L962.4637,130.5853 L964.55,133.9852 L966.5791,137.3509 L968.7173,140.7818 L970.5,144 L970.7697,144.1274 L971.9602,146.6423 L972.9767,149.075 L974.2479,151.6281 L975.5309,154.1867 L976.4359,156.5668 L976.1392,156.4456 L977.7755,159.2789 L978.4346,161.7134 L979.8366,164.4511 L980.4735,166.8766 L981.7375,169.5579 L981.7088,169.5478 L982.9886,172.3337 L983.5976,174.8831 L984.6024,177.572 L985.6404,180.2726 L986.4387,182.8887 L986.6157,182.9426 L987.264,185.6053 L988.2147,188.3601 L988.6762,190.9659 L989.8674,193.7939 L990.5734,196.4742 L990.8091,196.5359 L991.485,199.2753 L992.2778,202.0454 L992.527,204.673 L993.1747,207.4051 L994.1755,210.2296 L993.906,210.1692 L994.7706,212.9919 L995.3316,215.7466 L996.333,218.6001 L996.5824,221.2849 L997.2789,224.0699 L997.1291,224.0414 L997.9062,226.857 L998.0431,229.5506 L998.6353,232.331 L999.673,235.1964 L999.9174,237.9105 L1000.1086,237.9411 L1000.6812,240.7133 L1000.6592,243.3901 L1001.382,246.1864 L1001.9426,248.9567 L1002.125,251.6663 L1001.9169,251.6385 L1002.4449,254.3779 L1002.9047,257.1081 L1003.4985,259.8563 L1003.5716,262.535 L1003.9356,265.2525 L1004.14,265.2747 L1003.9804,267.8923 L1004.2153,270.5527 L1005.0266,273.2757 L1004.7767,275.8835 L1005.383,278.5843 L1005.6084,278.6037 L1005.6981,281.1907 L1005.7117,283.7711 L1005.8973,286.3663 L1006.4807,288.9958 L1006.5012,291.5768 L1006.3685,291.5681 L1006.9283,294.1076 L1006.5852,296.5881 L1007.2687,299.1357 L1007.3743,301.6455 L1007.3241,304.1452 L1007.4328,304.1502 L1007.4573,306.558 L1007.8712,308.9839 L1007.9333,311.3935 L1007.8483,313.7961 L1007.8855,316.2045 L1008.0046,316.208 L1007.8944,318.4959 L1008.3373,320.8 L1008.1546,323.0858 L1008.2292,325.3792 L1008.2193,327.67 L1007.949,327.6665 L1008.0673,329.825 L1008.5113,331.9878 L1008.4945,334.1446 L1008.3124,336.2992 L1008.3595,338.4568 L1008.2164,338.4565 L1008.2583,340.4612 L1008.0468,342.4655 L1008.5321,344.4711 L1008.6726,346.476 L1008.34,348.48 " fill="none" style="stroke: #A9A9A9; stroke-width: 2.0; stroke-dasharray: 7.0,7.0;"/><polygon fill="#A9A9A9" points="1008.27,353.63,1008.3336,353.6594,1008.9702,351.7837,1009.9798,350.0802,1010.8678,348.3207,1011.3566,346.3768,1012.3982,344.6881,1012.3801,344.6695,1011.4877,345.3746,1010.6864,346.1734,1009.9483,347.0372,1008.9922,347.6768,1008.3414,348.6305,1008.4738,348.7591,1007.4023,347.6727,1006.7172,346.9619,1006.0792,346.2968,1005.167,345.3652,1004.399,344.5738,1004.4199,344.5827,1005.1634,346.3808,1006.0021,348.2197,1006.7949,350.0388,1007.6753,351.8955,1008.27,353.63" style="stroke: #A9A9A9; stroke-width: 2.0;"/><!--link Creator to AbstractProduct--><path d="M845.81,264.18 L846.0567,264.3129 L840.6073,272.6753 L836.6042,281.8167 L832.1301,290.7045 L826.1071,298.7581 L822.137,307.9172 L817.0112,316.454 L812.3453,325.2385 L807.9991,334.1951 L802.5511,342.5584 L799.2963,352.1028 L793.93,360.51 " fill="none" style="stroke: #A9A9A9; stroke-width: 2.0; stroke-dasharray: 7.0,7.0;"/><polygon fill="#A9A9A9" points="791.51,364.99,791.5529,365.0454,792.9837,363.6758,794.6659,362.631,796.2662,361.4805,797.5974,359.982,799.3011,358.9652,799.2937,358.9404,798.1765,359.1537,797.0969,359.4921,796.0432,359.9174,794.8999,360.0431,793.8822,360.5886,794.059,360.6415,793.3563,359.4445,793.1697,358.4021,793.0461,357.3785,792.5561,356.2452,792.2588,355.1696,792.2815,355.1714,792.0984,357.1329,792.0186,359.1023,791.889,361.0679,791.8544,363.0408,791.51,364.99" style="stroke: #A9A9A9; stroke-width: 2.0;"/><!--link Creator to ConcreteCreatorA--><path d="M791.56,275.27 L791.6099,275.349 L789.5512,276.3211 L787.7849,277.7561 L785.9234,279.0404 L783.7487,279.8289 L782.0075,281.3038 L781.9897,281.2741 L780.0086,282.2804 L778.1169,283.436 L776.2874,284.6955 L774.2436,285.5972 L772.5,287 L772.6213,287.2141 L769.0916,288.6101 L765.9162,290.6311 L762.784,292.7284 L759.4003,294.382 L756.1488,296.2689 L756.1633,296.2956 L752.7764,298.0767 L749.4551,299.9793 L746.1022,301.8233 L742.8097,303.779 L739.3202,305.3703 L739.4575,305.635 L736.0331,307.4159 L732.5201,309.026 L729.1368,310.8861 L725.7596,312.7578 L722.1898,314.2584 L722.0465,313.9717 L718.8735,316.2539 L715.2285,317.5922 L711.9423,319.6481 L708.2866,320.9649 L704.9337,322.8875 L704.9205,322.8601 L701.6361,324.8491 L698.0419,326.1978 L694.6306,327.9243 L691.2346,329.6825 L687.7278,331.2119 L687.8065,331.3794 L684.3311,332.8051 L680.9901,334.5171 L677.4318,335.766 L674.1977,337.7055 L670.748,339.1859 L670.8493,339.4075 L667.5145,340.8812 L664.2301,342.4649 L660.712,343.5374 L657.3651,344.9847 L654.1701,346.7639 L654.0576,346.5116 L650.9594,348.1672 L647.7345,349.5385 L644.6934,351.3221 L641.3384,352.4019 L638.17,353.9 " fill="none" style="stroke: #A9A9A9; stroke-width: 2.0;"/><polygon fill="none" points="787.69,269.44,787.7075,269.5079,791.7596,268.2502,795.9141,267.3904,800.0352,266.401,804.0467,264.9857,808.21,264.16,808.1893,264.1444,805.5464,267.4605,803.0079,270.8551,800.5419,274.3043,797.8259,277.5654,795.46,281.09,795.6135,281.1924,793.7312,278.6434,792.2972,276.3934,790.9178,274.1799,789.2202,271.7541,787.69,269.44" style="stroke: #A9A9A9; stroke-width: 2.0;"/><!--link Creator to ConcreteCreatorB--><path d="M920.9,280.36 L921.1216,280.5315 L926.7842,288.192 L933.7461,296.8577 L940.2848,305.1961 L945.4321,312.4579 L952.4236,321.1466 L958.3769,329.032 L964.7434,337.2371 L971.397,345.6644 L977.79,353.89 " fill="none" style="stroke: #A9A9A9; stroke-width: 2.0;"/><polygon fill="none" points="915.09,284.28,915.1565,284.3022,913.619,280.2163,912.4711,276.2604,911.1964,272.2621,909.5044,268.1248,908.39,264.18,908.3759,264.1583,911.8666,266.3688,915.4284,268.6888,919.0396,271.0849,922.4805,273.2187,926.16,275.72,926.2729,275.866,923.8175,277.2658,921.6917,279.0919,919.6061,280.9699,917.2865,282.5454,915.09,284.28" style="stroke: #A9A9A9; stroke-width: 2.0;"/><!--link ConcreteCreatorA to ConcreteProductA--><path d="M580.31,430.25 L580.5231,430.432 L586.5599,437.7038 L593.846,446.0423 L600.7253,454.0335 L606.2666,460.8824 L613.5812,469.2452 L619.8975,476.7558 L626.6111,484.6055 L633.67,492.75 " fill="none" style="stroke: #A9A9A9; stroke-width: 2.0; stroke-dasharray: 7.0,7.0;"/><polygon fill="#A9A9A9" points="637.2,496.88,637.2672,496.8999,636.5077,494.9522,636.1419,493.1213,635.648,491.2523,634.7323,489.2583,634.4004,487.4374,634.3746,487.4354,634.1695,488.5541,634.0945,489.683,634.1101,490.8192,633.8138,491.9306,633.9543,493.0767,633.9688,493.2606,632.8099,492.778,631.6934,492.8325,630.5821,492.9525,629.4406,492.6913,628.3151,492.6306,628.3249,492.6511,630.0875,493.4708,631.8947,494.384,633.6804,495.2521,635.5072,496.2062,637.2,496.88" style="stroke: #A9A9A9; stroke-width: 2.0;"/><!--link ConcreteCreatorB to ConcreteProductB--><path d="M990.45,430.25 L990.7074,430.3609 L986.1255,438.8929 L983.0524,448.0748 L979.488,457.0451 L974.3078,465.3194 L971.2691,474.5162 L967.0249,483.1936 L963.73,492.28 " fill="none" style="stroke: #A9A9A9; stroke-width: 2.0; stroke-dasharray: 7.0,7.0;"/><polygon fill="#A9A9A9" points="961.75,496.88,961.7976,496.9314,963.1005,495.4394,964.6825,494.2486,966.1737,492.9597,967.3658,491.3483,968.9719,490.1834,968.9622,490.1593,967.8686,490.4716,966.8235,490.905,965.8121,491.4228,964.6845,491.6501,963.7196,492.2843,963.8909,492.3528,963.1043,491.1558,962.818,490.1589,962.5927,489.1864,962.0123,488.0719,961.6187,487.032,961.6414,487.0323,961.6343,489.0015,961.7307,490.972,961.7772,492.9419,961.919,494.913,961.75,496.88" style="stroke: #A9A9A9; stroke-width: 2.0;"/><!--link AbstractProduct to ConcreteProductA--><path d="M739.92,434.4 L740.1275,434.5884 L732.4385,441.8199 L725.9658,450.1557 L719.0971,458.1319 L710.9257,464.9257 L704.4808,473.2866 L697.0639,480.7653 L690.0339,488.5951 L683.34,496.73 " fill="none" style="stroke: #A9A9A9; stroke-width: 2.0;"/><polygon fill="none" points="735,429.41,735.0334,429.4716,738.6582,427.2686,742.4787,425.4266,746.2355,423.4671,749.7826,421.121,753.62,419.31,753.5961,419.2999,751.8371,423.1566,750.1983,427.0642,748.6431,431.0071,746.7998,434.8282,745.36,438.82,745.4841,438.9566,743.1467,436.7825,741.1717,435.0072,739.2408,433.2806,737.0528,431.2708,735,429.41" style="stroke: #A9A9A9; stroke-width: 2.0;"/><!--link AbstractProduct to ConcreteProductB--><path d="M828.67,431.45 L828.8383,431.674 L836.2627,436.9629 L844.6739,443.5651 L852.7638,449.7397 L859.7968,454.5077 L868.2305,461.1399 L875.8757,466.7227 L883.8347,472.723 L892.0118,479.0137 L899.4372,484.3039 L908.3589,491.5856 L915.84,496.95 " fill="none" style="stroke: #A9A9A9; stroke-width: 2.0;"/><polygon fill="none" points="824.29,436.92,824.3482,436.959,821.8192,433.3212,819.6316,429.9118,817.3327,426.4281,814.6683,422.6998,812.51,419.31,812.5022,419.2853,816.5049,420.4585,820.5473,421.7562,824.6171,423.1403,828.5922,424.2264,832.7,425.73,832.8475,425.8409,830.8501,427.8418,829.2833,430.1664,827.7691,432.5305,825.9491,434.6648,824.29,436.92" style="stroke: #A9A9A9; stroke-width: 2.0;"/><!--
@startuml
skinparam backgroundColor #222222
skinparam handwritten true
hide circle

skinparam shadowing false
skinparam padding 1
skinparam arrow {
    Thickness 2
    Color #DarkGrey
    FontSize 20
    FontName courier
    FontStyle normal
    FontColor #DarkGrey
}
skinparam class {
    BorderThickness 3
    BorderColor #ff69b4
    BackgroundColor #222222
    FontSize 20
    FontName courier
    FontStyle bold
    FontColor #ff69b4
}
skinparam classAttribute {
    FontSize 15
    FontName courier
    FontStyle normal
    FontColor #DarkGrey
}
skinparam note {
    BorderThickness 3
    BorderColor #DarkGrey
    BackgroundColor #222222
    FontSize 20
    FontName courier
    FontStyle normal
    FontColor #DarkGrey
}

class Scenario  {
+ main()
}

class Creator  {
+ factoryMethod()
+ doSomething()

}

note left
public doSomething() {
  ...
  this.factoryMethod();
  ...
}
end note

class ConcreteCreatorA  {
+ factoryMethod()
}
note left
public getConcreteProductA() {
  return new ConcreteProductA();
}
end note

class ConcreteCreatorB  {
+ factoryMethod()
}
note right
public getConcreteProductB() {
  return new ConcreteProductB();
}
end note

class AbstractProduct
class ConcreteProductA
class ConcreteProductB



Scenario ..> Creator
Scenario ..> ConcreteCreatorA
Scenario ..> ConcreteCreatorB
Creator ..> AbstractProduct
Creator <|- - ConcreteCreatorA
Creator <|- - ConcreteCreatorB
ConcreteCreatorA ..> ConcreteProductA
ConcreteCreatorB ..> ConcreteProductB
AbstractProduct <|- - ConcreteProductA
AbstractProduct <|- - ConcreteProductB
@enduml

PlantUML version 1.2019.05(Sat Apr 20 18:45:36 CEST 2019)
(GPL source distribution)
Java Runtime: Java(TM) SE Runtime Environment
JVM: Java HotSpot(TM) 64-Bit Server VM
Java Version: 11.0.14+8-LTS-263
Operating System: Windows 10
OS Version: 10.0
Default Encoding: windows-1252
Language: es
Country: ES
--></g></svg>