<?xml version="1.0" encoding="UTF-8" standalone="no"?><svg xmlns="http://www.w3.org/2000/svg" xmlns:xlink="http://www.w3.org/1999/xlink" contentScriptType="application/ecmascript" contentStyleType="text/css" height="1004px" preserveAspectRatio="none" style="width:908px;height:1004px;background:#222222;" version="1.1" viewBox="0 0 908 1004" width="908px" zoomAndPan="magnify"><defs/><g><!--class Scenario--><polygon fill="#222222" points="248,8,248,8.2102,258.4,7.5857,268.8,8.1933,279.2,8.3997,289.6,7.2866,300,7.9223,310.4,7.5735,320.8,7.6165,331.2,7.9318,341.6,7.3086,352,8,352.5536,8,351.3697,17.4623,351.8022,26.9246,352.4319,36.3868,351.9142,45.8491,352.0682,55.3114,351.9681,64.7737,352.1785,74.236,352,83.6982,352,83.9374,341.6,84.2839,331.2,84.3693,320.8,84.3775,310.4,83.9529,300,84.1618,289.6,84.4005,279.2,82.9771,268.8,84.3768,258.4,83.4017,248,83.6982,248.5338,83.6982,247.505,74.236,247.9315,64.7737,248.7416,55.3114,247.9513,45.8491,248.1053,36.3868,248.3386,26.9246,248.4162,17.4623,248,8" style="stroke: #228B22; stroke-width: 3.0;"/><text fill="#228B22" font-family="courier" font-size="20" font-weight="bold" lengthAdjust="spacingAndGlyphs" textLength="96" x="252" y="34.1074">Scenario</text><path d="M249,46.1133 L249,46.3935 L259.2,45.5609 L269.4,46.371 L279.6,46.6462 L289.8,45.1621 L300,46.0097 L310.2,45.5446 L320.4,45.6019 L330.6,46.0224 L340.8,45.1915 L351,46.1133 " fill="#222222" style="stroke: #228B22; stroke-width: 3.0;"/><path d="M249,54.1133 L249,54.3935 L259.2,53.5609 L269.4,54.371 L279.6,54.6462 L289.8,53.1621 L300,54.0097 L310.2,53.5446 L320.4,53.6019 L330.6,54.0224 L340.8,53.1915 L351,54.1133 " fill="#222222" style="stroke: #228B22; stroke-width: 3.0;"/><polygon fill="#84BE84" points="262.0166,71.1355,261.5768,71.7363,261.0567,72.6164,260.3128,73.2095,259.5311,73.5338,258.9078,73.562,258.1067,73.1564,257.3509,72.8914,256.7771,72.3534,256.4762,71.7374,256.2977,71.247,256.1229,70.6064,255.8391,70.0552,256.0572,69.5169,256.2482,68.9274,256.9653,68.4611,257.4697,67.8561,258.0941,67.6552,258.8364,67.4821,259.7883,67.5849,260.3097,67.8308,260.9158,67.9423,261.6529,68.6974,261.9098,69.4946,262.0214,70.0385,261.895,70.9348" style="stroke: #038048; stroke-width: 1.0;"/><text fill="#A9A9A9" font-family="courier" font-size="15" lengthAdjust="spacingAndGlyphs" textLength="54" x="269" y="74.1938">main()</text><!--class Person--><polygon fill="#222222" points="245.5,195,245.5,195.2102,255.4091,194.5857,265.3182,195.1933,275.2273,195.3997,285.1364,194.2866,295.0455,194.9223,304.9545,194.5735,314.8636,194.6165,324.7727,194.9318,334.6818,194.3086,344.5909,195.5536,354.5,195,353.8697,195,354.3022,205.3102,354.9319,215.6204,354.4142,225.9307,354.5682,236.2409,354.4681,246.5511,354.6785,256.8613,354.7391,267.1715,355.0857,277.4818,354.5,287.792,354.5,288.463,344.5909,288.4712,334.6818,288.0466,324.7727,288.2556,314.8636,288.4942,304.9545,287.0708,295.0455,288.4705,285.1364,287.4955,275.2273,288.3258,265.3182,287.297,255.4091,287.7235,245.5,287.792,246.2416,287.792,245.4513,277.4818,245.6053,267.1715,245.8386,256.8613,245.9162,246.5511,245.4961,236.2409,245.7872,225.9307,244.9276,215.6204,245.7844,205.3102,245.5,195" style="stroke: #228B22; stroke-width: 3.0;"/><text fill="#228B22" font-family="sans-serif" font-size="12" font-style="italic" lengthAdjust="spacingAndGlyphs" textLength="57" x="271.5" y="213.457">«Director»</text><text fill="#228B22" font-family="courier" font-size="20" font-weight="bold" lengthAdjust="spacingAndGlyphs" textLength="72" x="264" y="238.2012">Person</text><path d="M246.5,250.207 L246.5,250.4873 L256.2273,249.6546 L265.9545,250.4647 L275.6818,250.7399 L285.4091,249.2558 L295.1364,250.1034 L304.8636,249.6384 L314.5909,249.6957 L324.3182,250.1162 L334.0455,249.2852 L343.7727,250.9452 L353.5,250.207 " fill="#222222" style="stroke: #228B22; stroke-width: 3.0;"/><path d="M246.5,258.207 L246.5,258.4873 L256.2273,257.6546 L265.9545,258.4647 L275.6818,258.7399 L285.4091,257.2558 L295.1364,258.1034 L304.8636,257.6384 L314.5909,257.6957 L324.3182,258.1162 L334.0455,257.2852 L343.7727,258.9452 L353.5,258.207 " fill="#222222" style="stroke: #228B22; stroke-width: 3.0;"/><polygon fill="#84BE84" points="259.5166,275.2292,259.0768,275.8301,258.5567,276.7102,257.8128,277.3033,257.0311,277.6276,256.4078,277.6557,255.6067,277.2501,254.8509,276.9851,254.2771,276.4471,253.9762,275.8312,253.7977,275.3407,253.6229,274.7002,253.3391,274.1489,253.5572,273.6107,253.7482,273.0211,254.4653,272.5548,254.9697,271.9498,255.5941,271.7489,256.3364,271.5759,257.2883,271.6787,257.8097,271.9246,258.4158,272.036,259.1529,272.7911,259.4098,273.5883,259.5214,274.1322,259.395,275.0286" style="stroke: #038048; stroke-width: 1.0;"/><text fill="#A9A9A9" font-family="courier" font-size="15" lengthAdjust="spacingAndGlyphs" textLength="81" x="266.5" y="278.2876">eat(Chef)</text><path d="M389.5,144 L389.5,237.5 L354.517,241.5 L389.5,245.5 L389.5,338.793 A0,0 0 0 0 389.5,338.793 L760.5,338.793 A0,0 0 0 0 760.5,338.793 L760.5,154 L750.5,144 L389.5,144 A0,0 0 0 0 389.5,144 " fill="#222222" style="stroke: #A9A9A9; stroke-width: 3.0;"/><path d="M750.5,144 L750.6868,144 L750.1317,146 L750.6718,148 L750.8553,150 L749.8659,152 L750.5,154 L750.5,153.9309 L752.5,153.6209 L754.5,153.6591 L756.5,153.9394 L758.5,153.3854 L760.5,154 L760.848,154.348 L758.1038,151.6038 L756.3757,149.8757 L754.7715,148.2715 L752.4461,145.9461 L750.5,144 " fill="#222222" style="stroke: #A9A9A9; stroke-width: 3.0;"/><text fill="#A9A9A9" font-family="courier" font-size="20" lengthAdjust="spacingAndGlyphs" textLength="216" x="396.5" y="170.1074">public eat(Chef) {</text><text fill="#A9A9A9" font-family="courier" font-size="20" lengthAdjust="spacingAndGlyphs" textLength="36" x="444.5" y="196.2207">...</text><text fill="#A9A9A9" font-family="courier" font-size="20" lengthAdjust="spacingAndGlyphs" textLength="264" x="444.5" y="222.334">chef.prepareStarter();</text><text fill="#A9A9A9" font-family="courier" font-size="20" lengthAdjust="spacingAndGlyphs" textLength="300" x="444.5" y="248.4473">chef.prepareMainCourse();</text><text fill="#A9A9A9" font-family="courier" font-size="20" lengthAdjust="spacingAndGlyphs" textLength="264" x="444.5" y="274.5605">chef.prepareDessert();</text><text fill="#A9A9A9" font-family="courier" font-size="20" lengthAdjust="spacingAndGlyphs" textLength="36" x="444.5" y="300.6738">...</text><text fill="#A9A9A9" font-family="courier" font-size="20" lengthAdjust="spacingAndGlyphs" textLength="12" x="396.5" y="326.7871">}</text><!--class Chef--><polygon fill="#222222" points="223.5,399,223.5,399.2102,233.45,398.5857,243.4,399.1933,253.35,399.3997,263.3,398.2866,273.25,398.9223,283.2,398.5735,293.15,398.6165,303.1,398.9318,313.05,398.3086,323,399.5536,332.95,398.3697,342.9,398.8022,352.85,399.4319,362.8,398.9142,372.75,399.0682,382.7,398.9681,392.65,399.1785,402.6,399.2391,412.55,399.5857,422.5,399,423.1711,399,423.1793,408.7116,422.7546,418.4231,422.9636,428.1347,423.2022,437.8463,421.7788,447.5578,423.1785,457.2694,422.2035,466.981,423.0338,476.6925,422.005,486.4041,422.4315,496.1157,423.2416,505.8272,422.4513,515.5388,422.6053,525.2503,422.5,534.9619,422.5,535.3005,412.55,535.3781,402.6,534.958,392.65,535.2491,382.7,534.3895,372.75,535.2463,362.8,535.5101,352.85,535.4064,342.9,535.5749,332.95,534.4788,323,534.3097,313.05,534.3405,303.1,534.903,293.15,534.7654,283.2,535.6433,273.25,534.7872,263.3,534.6189,253.35,535.1902,243.4,534.2951,233.45,534.4428,223.5,534.9619,224.149,534.9619,223.9357,525.2503,224.2345,515.5388,223.1782,505.8272,223.8192,496.1157,224.0904,486.4041,223.0276,476.6925,223.4041,466.981,223.626,457.2694,224.1518,447.5578,223.4958,437.8463,223.9626,428.1347,222.9462,418.4231,222.8227,408.7116,223.5,399" style="stroke: #228B22; stroke-width: 3.0;"/><text fill="#228B22" font-family="sans-serif" font-size="12" font-style="italic" lengthAdjust="spacingAndGlyphs" textLength="98" x="274" y="417.457">«AbstractBuilder»</text><text fill="#228B22" font-family="courier" font-size="20" font-weight="bold" lengthAdjust="spacingAndGlyphs" textLength="48" x="299" y="442.2012">Chef</text><path d="M224.5,454.207 L224.5,454.4873 L234.35,453.6546 L244.2,454.4647 L254.05,454.7399 L263.9,453.2558 L273.75,454.1034 L283.6,453.6384 L293.45,453.6957 L303.3,454.1162 L313.15,453.2852 L323,454.9452 L332.85,453.3667 L342.7,453.9433 L352.55,454.783 L362.4,454.0927 L372.25,454.298 L382.1,454.1644 L391.95,454.4451 L401.8,454.5259 L411.65,454.988 L421.5,454.207 " fill="#222222" style="stroke: #228B22; stroke-width: 3.0;"/><path d="M224.5,462.207 L224.5,462.4873 L234.35,461.6546 L244.2,462.4647 L254.05,462.7399 L263.9,461.2558 L273.75,462.1034 L283.6,461.6384 L293.45,461.6957 L303.3,462.1162 L313.15,461.2852 L323,462.9452 L332.85,461.3667 L342.7,461.9433 L352.55,462.783 L362.4,462.0927 L372.25,462.298 L382.1,462.1644 L391.95,462.4451 L401.8,462.5259 L411.65,462.988 L421.5,462.207 " fill="#222222" style="stroke: #228B22; stroke-width: 3.0;"/><polygon fill="#84BE84" points="237.5166,479.2292,237.0768,479.8301,236.5567,480.7102,235.8128,481.3033,235.0311,481.6276,234.4078,481.6557,233.6067,481.2501,232.8509,480.9851,232.2771,480.4471,231.9762,479.8312,231.7977,479.3407,231.6229,478.7002,231.3391,478.1489,231.5572,477.6107,231.7482,477.0211,232.4653,476.5548,232.9697,475.9498,233.5941,475.7489,234.3364,475.5759,235.2883,475.6787,235.8097,475.9246,236.4158,476.036,237.1529,476.7911,237.4098,477.5883,237.5214,478.1322,237.395,479.0286" style="stroke: #038048; stroke-width: 1.0;"/><text fill="#A9A9A9" font-family="courier" font-size="15" lengthAdjust="spacingAndGlyphs" textLength="144" x="244.5" y="482.2876">prepareStarter()</text><polygon fill="#84BE84" points="237.5166,500.8142,237.0768,501.4151,236.5567,502.2951,235.8128,502.8882,235.0311,503.2125,234.4078,503.2407,233.6067,502.8351,232.8509,502.5701,232.2771,502.0321,231.9762,501.4161,231.7977,500.9257,231.6229,500.2851,231.3391,499.7339,231.5572,499.1957,231.7482,498.6061,232.4653,498.1398,232.9697,497.5348,233.5941,497.3339,234.3364,497.1608,235.2883,497.2636,235.8097,497.5095,236.4158,497.621,237.1529,498.3761,237.4098,499.1733,237.5214,499.7172,237.395,500.6135" style="stroke: #038048; stroke-width: 1.0;"/><text fill="#A9A9A9" font-family="courier" font-size="15" lengthAdjust="spacingAndGlyphs" textLength="171" x="244.5" y="503.8726">prepareMainCourse()</text><polygon fill="#84BE84" points="237.5166,522.3992,237.0768,523,236.5567,523.8801,235.8128,524.4732,235.0311,524.7975,234.4078,524.8257,233.6067,524.42,232.8509,524.155,232.2771,523.617,231.9762,523.0011,231.7977,522.5107,231.6229,521.8701,231.3391,521.3188,231.5572,520.7806,231.7482,520.191,232.4653,519.7247,232.9697,519.1197,233.5941,518.9188,234.3364,518.7458,235.2883,518.8486,235.8097,519.0945,236.4158,519.2059,237.1529,519.9611,237.4098,520.7582,237.5214,521.3022,237.395,522.1985" style="stroke: #038048; stroke-width: 1.0;"/><text fill="#A9A9A9" font-family="courier" font-size="15" lengthAdjust="spacingAndGlyphs" textLength="144" x="244.5" y="525.4575">prepareDessert()</text><!--class BasicChef--><polygon fill="#222222" points="125.5,595,125.5,595.2102,135.45,594.5857,145.4,595.1933,155.35,595.3997,165.3,594.2866,175.25,594.9223,185.2,594.5735,195.15,594.6165,205.1,594.9318,215.05,594.3086,225,595.5536,234.95,594.3697,244.9,594.8022,254.85,595.4319,264.8,594.9142,274.75,595.0682,284.7,594.9681,294.65,595.1785,304.6,595.2391,314.55,595.5857,324.5,595,325.1711,595,325.1793,604.7116,324.7546,614.4231,324.9636,624.1347,325.2022,633.8463,323.7788,643.5578,325.1785,653.2694,324.2035,662.981,325.0338,672.6925,324.005,682.4041,324.4315,692.1157,325.2416,701.8272,324.4513,711.5388,324.6053,721.2503,324.5,730.9619,324.5,731.3005,314.55,731.3781,304.6,730.958,294.65,731.2491,284.7,730.3895,274.75,731.2463,264.8,731.5101,254.85,731.4064,244.9,731.5749,234.95,730.4788,225,730.3097,215.05,730.3405,205.1,730.903,195.15,730.7654,185.2,731.6433,175.25,730.7872,165.3,730.6189,155.35,731.1902,145.4,730.2951,135.45,730.4428,125.5,730.9619,126.149,730.9619,125.9357,721.2503,126.2345,711.5388,125.1782,701.8272,125.8192,692.1157,126.0904,682.4041,125.0276,672.6925,125.4041,662.981,125.626,653.2694,126.1518,643.5578,125.4958,633.8463,125.9626,624.1347,124.9462,614.4231,124.8227,604.7116,125.5,595" style="stroke: #228B22; stroke-width: 3.0;"/><text fill="#228B22" font-family="sans-serif" font-size="12" font-style="italic" lengthAdjust="spacingAndGlyphs" textLength="111" x="169.5" y="613.457">«ConcreteBuilderA»</text><text fill="#228B22" font-family="courier" font-size="20" font-weight="bold" lengthAdjust="spacingAndGlyphs" textLength="108" x="171" y="638.2012">BasicChef</text><path d="M126.5,650.207 L126.5,650.4873 L136.35,649.6546 L146.2,650.4647 L156.05,650.7399 L165.9,649.2558 L175.75,650.1034 L185.6,649.6384 L195.45,649.6957 L205.3,650.1162 L215.15,649.2852 L225,650.9452 L234.85,649.3667 L244.7,649.9433 L254.55,650.783 L264.4,650.0927 L274.25,650.298 L284.1,650.1644 L293.95,650.4451 L303.8,650.5259 L313.65,650.988 L323.5,650.207 " fill="#222222" style="stroke: #228B22; stroke-width: 3.0;"/><path d="M126.5,658.207 L126.5,658.4873 L136.35,657.6546 L146.2,658.4647 L156.05,658.7399 L165.9,657.2558 L175.75,658.1034 L185.6,657.6384 L195.45,657.6957 L205.3,658.1162 L215.15,657.2852 L225,658.9452 L234.85,657.3667 L244.7,657.9433 L254.55,658.783 L264.4,658.0927 L274.25,658.298 L284.1,658.1644 L293.95,658.4451 L303.8,658.5259 L313.65,658.988 L323.5,658.207 " fill="#222222" style="stroke: #228B22; stroke-width: 3.0;"/><polygon fill="#84BE84" points="139.5166,675.2292,139.0768,675.8301,138.5567,676.7102,137.8128,677.3033,137.0311,677.6276,136.4078,677.6557,135.6067,677.2501,134.8509,676.9851,134.2771,676.4471,133.9762,675.8312,133.7977,675.3407,133.6229,674.7002,133.3391,674.1489,133.5572,673.6107,133.7482,673.0211,134.4653,672.5548,134.9697,671.9498,135.5941,671.7489,136.3364,671.5759,137.2883,671.6787,137.8097,671.9246,138.4158,672.036,139.1529,672.7911,139.4098,673.5883,139.5214,674.1322,139.395,675.0286" style="stroke: #038048; stroke-width: 1.0;"/><text fill="#A9A9A9" font-family="courier" font-size="15" lengthAdjust="spacingAndGlyphs" textLength="144" x="146.5" y="678.2876">prepareStarter()</text><polygon fill="#84BE84" points="139.5166,696.8142,139.0768,697.4151,138.5567,698.2951,137.8128,698.8882,137.0311,699.2125,136.4078,699.2407,135.6067,698.8351,134.8509,698.5701,134.2771,698.0321,133.9762,697.4161,133.7977,696.9257,133.6229,696.2851,133.3391,695.7339,133.5572,695.1957,133.7482,694.6061,134.4653,694.1398,134.9697,693.5348,135.5941,693.3339,136.3364,693.1608,137.2883,693.2636,137.8097,693.5095,138.4158,693.621,139.1529,694.3761,139.4098,695.1733,139.5214,695.7172,139.395,696.6135" style="stroke: #038048; stroke-width: 1.0;"/><text fill="#A9A9A9" font-family="courier" font-size="15" lengthAdjust="spacingAndGlyphs" textLength="171" x="146.5" y="699.8726">prepareMainCourse()</text><polygon fill="#84BE84" points="139.5166,718.3992,139.0768,719,138.5567,719.8801,137.8128,720.4732,137.0311,720.7975,136.4078,720.8257,135.6067,720.42,134.8509,720.155,134.2771,719.617,133.9762,719.0011,133.7977,718.5107,133.6229,717.8701,133.3391,717.3188,133.5572,716.7806,133.7482,716.191,134.4653,715.7247,134.9697,715.1197,135.5941,714.9188,136.3364,714.7458,137.2883,714.8486,137.8097,715.0945,138.4158,715.2059,139.1529,715.9611,139.4098,716.7582,139.5214,717.3022,139.395,718.1985" style="stroke: #038048; stroke-width: 1.0;"/><text fill="#A9A9A9" font-family="courier" font-size="15" lengthAdjust="spacingAndGlyphs" textLength="144" x="146.5" y="721.4575">prepareDessert()</text><!--class GourmetChef--><polygon fill="#222222" points="549.5,595,549.5,595.2102,559.45,594.5857,569.4,595.1933,579.35,595.3997,589.3,594.2866,599.25,594.9223,609.2,594.5735,619.15,594.6165,629.1,594.9318,639.05,594.3086,649,595.5536,658.95,594.3697,668.9,594.8022,678.85,595.4319,688.8,594.9142,698.75,595.0682,708.7,594.9681,718.65,595.1785,728.6,595.2391,738.55,595.5857,748.5,595,749.1711,595,749.1793,604.7116,748.7546,614.4231,748.9636,624.1347,749.2022,633.8463,747.7788,643.5578,749.1785,653.2694,748.2035,662.981,749.0338,672.6925,748.005,682.4041,748.4315,692.1157,749.2416,701.8272,748.4513,711.5388,748.6053,721.2503,748.5,730.9619,748.5,731.3005,738.55,731.3781,728.6,730.958,718.65,731.2491,708.7,730.3895,698.75,731.2463,688.8,731.5101,678.85,731.4064,668.9,731.5749,658.95,730.4788,649,730.3097,639.05,730.3405,629.1,730.903,619.15,730.7654,609.2,731.6433,599.25,730.7872,589.3,730.6189,579.35,731.1902,569.4,730.2951,559.45,730.4428,549.5,730.9619,550.149,730.9619,549.9357,721.2503,550.2345,711.5388,549.1782,701.8272,549.8192,692.1157,550.0904,682.4041,549.0276,672.6925,549.4041,662.981,549.626,653.2694,550.1518,643.5578,549.4958,633.8463,549.9626,624.1347,548.9462,614.4231,548.8227,604.7116,549.5,595" style="stroke: #228B22; stroke-width: 3.0;"/><text fill="#228B22" font-family="sans-serif" font-size="12" font-style="italic" lengthAdjust="spacingAndGlyphs" textLength="111" x="593.5" y="613.457">«ConcreteBuilderB»</text><text fill="#228B22" font-family="courier" font-size="20" font-weight="bold" lengthAdjust="spacingAndGlyphs" textLength="132" x="583" y="638.2012">GourmetChef</text><path d="M550.5,650.207 L550.5,650.4873 L560.35,649.6546 L570.2,650.4647 L580.05,650.7399 L589.9,649.2558 L599.75,650.1034 L609.6,649.6384 L619.45,649.6957 L629.3,650.1162 L639.15,649.2852 L649,650.9452 L658.85,649.3667 L668.7,649.9433 L678.55,650.783 L688.4,650.0927 L698.25,650.298 L708.1,650.1644 L717.95,650.4451 L727.8,650.5259 L737.65,650.988 L747.5,650.207 " fill="#222222" style="stroke: #228B22; stroke-width: 3.0;"/><path d="M550.5,658.207 L550.5,658.4873 L560.35,657.6546 L570.2,658.4647 L580.05,658.7399 L589.9,657.2558 L599.75,658.1034 L609.6,657.6384 L619.45,657.6957 L629.3,658.1162 L639.15,657.2852 L649,658.9452 L658.85,657.3667 L668.7,657.9433 L678.55,658.783 L688.4,658.0927 L698.25,658.298 L708.1,658.1644 L717.95,658.4451 L727.8,658.5259 L737.65,658.988 L747.5,658.207 " fill="#222222" style="stroke: #228B22; stroke-width: 3.0;"/><polygon fill="#84BE84" points="563.5166,675.2292,563.0768,675.8301,562.5567,676.7102,561.8128,677.3033,561.0311,677.6276,560.4078,677.6557,559.6067,677.2501,558.8509,676.9851,558.2771,676.4471,557.9762,675.8312,557.7977,675.3407,557.6229,674.7002,557.3391,674.1489,557.5572,673.6107,557.7482,673.0211,558.4653,672.5548,558.9697,671.9498,559.5941,671.7489,560.3364,671.5759,561.2883,671.6787,561.8097,671.9246,562.4158,672.036,563.1529,672.7911,563.4098,673.5883,563.5214,674.1322,563.395,675.0286" style="stroke: #038048; stroke-width: 1.0;"/><text fill="#A9A9A9" font-family="courier" font-size="15" lengthAdjust="spacingAndGlyphs" textLength="144" x="570.5" y="678.2876">prepareStarter()</text><polygon fill="#84BE84" points="563.5166,696.8142,563.0768,697.4151,562.5567,698.2951,561.8128,698.8882,561.0311,699.2125,560.4078,699.2407,559.6067,698.8351,558.8509,698.5701,558.2771,698.0321,557.9762,697.4161,557.7977,696.9257,557.6229,696.2851,557.3391,695.7339,557.5572,695.1957,557.7482,694.6061,558.4653,694.1398,558.9697,693.5348,559.5941,693.3339,560.3364,693.1608,561.2883,693.2636,561.8097,693.5095,562.4158,693.621,563.1529,694.3761,563.4098,695.1733,563.5214,695.7172,563.395,696.6135" style="stroke: #038048; stroke-width: 1.0;"/><text fill="#A9A9A9" font-family="courier" font-size="15" lengthAdjust="spacingAndGlyphs" textLength="171" x="570.5" y="699.8726">prepareMainCourse()</text><polygon fill="#84BE84" points="563.5166,718.3992,563.0768,719,562.5567,719.8801,561.8128,720.4732,561.0311,720.7975,560.4078,720.8257,559.6067,720.42,558.8509,720.155,558.2771,719.617,557.9762,719.0011,557.7977,718.5107,557.6229,717.8701,557.3391,717.3188,557.5572,716.7806,557.7482,716.191,558.4653,715.7247,558.9697,715.1197,559.5941,714.9188,560.3364,714.7458,561.2883,714.8486,561.8097,715.0945,562.4158,715.2059,563.1529,715.9611,563.4098,716.7582,563.5214,717.3022,563.395,718.1985" style="stroke: #038048; stroke-width: 1.0;"/><text fill="#A9A9A9" font-family="courier" font-size="15" lengthAdjust="spacingAndGlyphs" textLength="144" x="570.5" y="721.4575">prepareDessert()</text><!--class Dish--><polygon fill="#222222" points="404.5,791,404.5,791.2102,414.0455,790.5857,423.5909,791.1933,433.1364,791.3997,442.6818,790.2866,452.2273,790.9223,461.7727,790.5735,471.3182,790.6165,480.8636,790.9318,490.4091,790.3086,499.9545,791.5536,509.5,791,508.8697,791,509.3022,801.1724,509.9319,811.3449,509.4142,821.5173,509.5682,831.6897,509.4681,841.8622,509.6785,852.0346,509.5,862.207,509.5,862.4462,499.9545,862.7927,490.4091,862.8781,480.8636,862.8863,471.3182,862.4617,461.7727,862.6706,452.2273,862.9093,442.6818,861.4858,433.1364,862.8855,423.5909,861.9105,414.0455,862.7408,404.5,862.207,404.005,862.207,404.4315,852.0346,405.2416,841.8622,404.4513,831.6897,404.6053,821.5173,404.8386,811.3449,404.9162,801.1724,404.5,791" style="stroke: #228B22; stroke-width: 3.0;"/><text fill="#228B22" font-family="sans-serif" font-size="12" font-style="italic" lengthAdjust="spacingAndGlyphs" textLength="101" x="406.5" y="809.457">«AbstractProduct»</text><text fill="#228B22" font-family="courier" font-size="20" font-weight="bold" lengthAdjust="spacingAndGlyphs" textLength="48" x="433" y="834.2012">Dish</text><path d="M405.5,846.207 L405.5,846.4873 L415.8,845.6546 L426.1,846.4647 L436.4,846.7399 L446.7,845.2558 L457,846.1034 L467.3,845.6384 L477.6,845.6957 L487.9,846.1162 L498.2,845.2852 L508.5,846.207 " fill="#222222" style="stroke: #228B22; stroke-width: 3.0;"/><path d="M405.5,854.207 L405.5,854.4873 L415.8,853.6546 L426.1,854.4647 L436.4,854.7399 L446.7,853.2558 L457,854.1034 L467.3,853.6384 L477.6,853.6957 L487.9,854.1162 L498.2,853.2852 L508.5,854.207 " fill="#222222" style="stroke: #228B22; stroke-width: 3.0;"/><!--class Salad--><polygon fill="#222222" points="6,922,6,922.2102,15.8333,921.5857,25.6667,922.1933,35.5,922.3997,45.3333,921.2866,55.1667,921.9223,65,921.5735,74.8333,921.6165,84.6667,921.9318,94.5,921.3086,104.3333,922.5536,114.1667,921.3697,124,922,123.8022,922,124.4319,932.1724,123.9142,942.3449,124.0682,952.5173,123.9681,962.6897,124.1785,972.8622,124.2391,983.0346,124,993.207,124,993.7927,114.1667,993.8781,104.3333,993.8863,94.5,993.4617,84.6667,993.6706,74.8333,993.9093,65,992.4858,55.1667,993.8855,45.3333,992.9105,35.5,993.7408,25.6667,992.712,15.8333,993.1385,6,993.207,6.7416,993.207,5.9513,983.0346,6.1053,972.8622,6.3386,962.6897,6.4162,952.5173,5.9961,942.3449,6.2872,932.1724,6,922" style="stroke: #228B22; stroke-width: 3.0;"/><text fill="#228B22" font-family="sans-serif" font-size="12" font-style="italic" lengthAdjust="spacingAndGlyphs" textLength="114" x="8" y="940.457">«ConcreteProductA»</text><text fill="#228B22" font-family="courier" font-size="20" font-weight="bold" lengthAdjust="spacingAndGlyphs" textLength="60" x="35" y="965.2012">Salad</text><path d="M7,977.207 L7,977.4873 L16.6667,976.6546 L26.3333,977.4647 L36,977.7399 L45.6667,976.2558 L55.3333,977.1034 L65,976.6384 L74.6667,976.6957 L84.3333,977.1162 L94,976.2852 L103.6667,977.9452 L113.3333,976.3667 L123,977.207 " fill="#222222" style="stroke: #228B22; stroke-width: 3.0;"/><path d="M7,985.207 L7,985.4873 L16.6667,984.6546 L26.3333,985.4647 L36,985.7399 L45.6667,984.2558 L55.3333,985.1034 L65,984.6384 L74.6667,984.6957 L84.3333,985.1162 L94,984.2852 L103.6667,985.9452 L113.3333,984.3667 L123,985.207 " fill="#222222" style="stroke: #228B22; stroke-width: 3.0;"/><!--class Chicken--><polygon fill="#222222" points="159,922,159,922.2102,168.8333,921.5857,178.6667,922.1933,188.5,922.3997,198.3333,921.2866,208.1667,921.9223,218,921.5735,227.8333,921.6165,237.6667,921.9318,247.5,921.3086,257.3333,922.5536,267.1667,921.3697,277,922,276.8022,922,277.4319,932.1724,276.9142,942.3449,277.0682,952.5173,276.9681,962.6897,277.1785,972.8622,277.2391,983.0346,277,993.207,277,993.7927,267.1667,993.8781,257.3333,993.8863,247.5,993.4617,237.6667,993.6706,227.8333,993.9093,218,992.4858,208.1667,993.8855,198.3333,992.9105,188.5,993.7408,178.6667,992.712,168.8333,993.1385,159,993.207,159.7416,993.207,158.9513,983.0346,159.1053,972.8622,159.3386,962.6897,159.4162,952.5173,158.9961,942.3449,159.2872,932.1724,159,922" style="stroke: #228B22; stroke-width: 3.0;"/><text fill="#228B22" font-family="sans-serif" font-size="12" font-style="italic" lengthAdjust="spacingAndGlyphs" textLength="114" x="161" y="940.457">«ConcreteProductB»</text><text fill="#228B22" font-family="courier" font-size="20" font-weight="bold" lengthAdjust="spacingAndGlyphs" textLength="84" x="176" y="965.2012">Chicken</text><path d="M160,977.207 L160,977.4873 L169.6667,976.6546 L179.3333,977.4647 L189,977.7399 L198.6667,976.2558 L208.3333,977.1034 L218,976.6384 L227.6667,976.6957 L237.3333,977.1162 L247,976.2852 L256.6667,977.9452 L266.3333,976.3667 L276,977.207 " fill="#222222" style="stroke: #228B22; stroke-width: 3.0;"/><path d="M160,985.207 L160,985.4873 L169.6667,984.6546 L179.3333,985.4647 L189,985.7399 L198.6667,984.2558 L208.3333,985.1034 L218,984.6384 L227.6667,984.6957 L237.3333,985.1162 L247,984.2852 L256.6667,985.9452 L266.3333,984.3667 L276,985.207 " fill="#222222" style="stroke: #228B22; stroke-width: 3.0;"/><!--class Custard--><polygon fill="#222222" points="312.5,922,312.5,922.2102,322.4167,921.5857,332.3333,922.1933,342.25,922.3997,352.1667,921.2866,362.0833,921.9223,372,921.5735,381.9167,921.6165,391.8333,921.9318,401.75,921.3086,411.6667,922.5536,421.5833,921.3697,431.5,922,431.3022,922,431.9319,932.1724,431.4142,942.3449,431.5682,952.5173,431.4681,962.6897,431.6785,972.8622,431.7391,983.0346,431.5,993.207,431.5,993.7927,421.5833,993.8781,411.6667,993.8863,401.75,993.4617,391.8333,993.6706,381.9167,993.9093,372,992.4858,362.0833,993.8855,352.1667,992.9105,342.25,993.7408,332.3333,992.712,322.4167,993.1385,312.5,993.207,313.2416,993.207,312.4513,983.0346,312.6053,972.8622,312.8386,962.6897,312.9162,952.5173,312.4961,942.3449,312.7872,932.1724,312.5,922" style="stroke: #228B22; stroke-width: 3.0;"/><text fill="#228B22" font-family="sans-serif" font-size="12" font-style="italic" lengthAdjust="spacingAndGlyphs" textLength="115" x="314.5" y="940.457">«ConcreteProductC»</text><text fill="#228B22" font-family="courier" font-size="20" font-weight="bold" lengthAdjust="spacingAndGlyphs" textLength="84" x="330" y="965.2012">Custard</text><path d="M313.5,977.207 L313.5,977.4873 L323.25,976.6546 L333,977.4647 L342.75,977.7399 L352.5,976.2558 L362.25,977.1034 L372,976.6384 L381.75,976.6957 L391.5,977.1162 L401.25,976.2852 L411,977.9452 L420.75,976.3667 L430.5,977.207 " fill="#222222" style="stroke: #228B22; stroke-width: 3.0;"/><path d="M313.5,985.207 L313.5,985.4873 L323.25,984.6546 L333,985.4647 L342.75,985.7399 L352.5,984.2558 L362.25,985.1034 L372,984.6384 L381.75,984.6957 L391.5,985.1162 L401.25,984.2852 L411,985.9452 L420.75,984.3667 L430.5,985.207 " fill="#222222" style="stroke: #228B22; stroke-width: 3.0;"/><!--class Oyster--><polygon fill="#222222" points="466.5,922,466.5,922.2102,476.4167,921.5857,486.3333,922.1933,496.25,922.3997,506.1667,921.2866,516.0833,921.9223,526,921.5735,535.9167,921.6165,545.8333,921.9318,555.75,921.3086,565.6667,922.5536,575.5833,921.3697,585.5,922,585.3022,922,585.9319,932.1724,585.4142,942.3449,585.5682,952.5173,585.4681,962.6897,585.6785,972.8622,585.7391,983.0346,585.5,993.207,585.5,993.7927,575.5833,993.8781,565.6667,993.8863,555.75,993.4617,545.8333,993.6706,535.9167,993.9093,526,992.4858,516.0833,993.8855,506.1667,992.9105,496.25,993.7408,486.3333,992.712,476.4167,993.1385,466.5,993.207,467.2416,993.207,466.4513,983.0346,466.6053,972.8622,466.8386,962.6897,466.9162,952.5173,466.4961,942.3449,466.7872,932.1724,466.5,922" style="stroke: #228B22; stroke-width: 3.0;"/><text fill="#228B22" font-family="sans-serif" font-size="12" font-style="italic" lengthAdjust="spacingAndGlyphs" textLength="115" x="468.5" y="940.457">«ConcreteProductD»</text><text fill="#228B22" font-family="courier" font-size="20" font-weight="bold" lengthAdjust="spacingAndGlyphs" textLength="72" x="490" y="965.2012">Oyster</text><path d="M467.5,977.207 L467.5,977.4873 L477.25,976.6546 L487,977.4647 L496.75,977.7399 L506.5,976.2558 L516.25,977.1034 L526,976.6384 L535.75,976.6957 L545.5,977.1162 L555.25,976.2852 L565,977.9452 L574.75,976.3667 L584.5,977.207 " fill="#222222" style="stroke: #228B22; stroke-width: 3.0;"/><path d="M467.5,985.207 L467.5,985.4873 L477.25,984.6546 L487,985.4647 L496.75,985.7399 L506.5,984.2558 L516.25,985.1034 L526,984.6384 L535.75,984.6957 L545.5,985.1162 L555.25,984.2852 L565,985.9452 L574.75,984.3667 L584.5,985.207 " fill="#222222" style="stroke: #228B22; stroke-width: 3.0;"/><!--class Sirloin--><polygon fill="#222222" points="620.5,922,620.5,922.2102,630.1154,921.5857,639.7308,922.1933,649.3462,922.3997,658.9615,921.2866,668.5769,921.9223,678.1923,921.5735,687.8077,921.6165,697.4231,921.9318,707.0385,921.3086,716.6538,922.5536,726.2692,921.3697,735.8846,921.8022,745.5,922,745.9319,922,745.4142,932.1724,745.5682,942.3449,745.4681,952.5173,745.6785,962.6897,745.7391,972.8622,746.0857,983.0346,745.5,993.207,745.5,993.8781,735.8846,993.8863,726.2692,993.4617,716.6538,993.6706,707.0385,993.9093,697.4231,992.4858,687.8077,993.8855,678.1923,992.9105,668.5769,993.7408,658.9615,992.712,649.3462,993.1385,639.7308,993.9486,630.1154,993.1583,620.5,993.207,620.6053,993.207,620.8386,983.0346,620.9162,972.8622,620.4961,962.6897,620.7872,952.5173,619.9276,942.3449,620.7844,932.1724,620.5,922" style="stroke: #228B22; stroke-width: 3.0;"/><text fill="#228B22" font-family="sans-serif" font-size="12" font-style="italic" lengthAdjust="spacingAndGlyphs" textLength="121" x="622.5" y="940.457">«ConcreteProduct&gt;E»</text><text fill="#228B22" font-family="courier" font-size="20" font-weight="bold" lengthAdjust="spacingAndGlyphs" textLength="84" x="641" y="965.2012">Sirloin</text><path d="M621.5,977.207 L621.5,977.4873 L631.75,976.6546 L642,977.4647 L652.25,977.7399 L662.5,976.2558 L672.75,977.1034 L683,976.6384 L693.25,976.6957 L703.5,977.1162 L713.75,976.2852 L724,977.9452 L734.25,976.3667 L744.5,977.207 " fill="#222222" style="stroke: #228B22; stroke-width: 3.0;"/><path d="M621.5,985.207 L621.5,985.4873 L631.75,984.6546 L642,985.4647 L652.25,985.7399 L662.5,984.2558 L672.75,985.1034 L683,984.6384 L693.25,984.6957 L703.5,985.1162 L713.75,984.2852 L724,985.9452 L734.25,984.3667 L744.5,985.207 " fill="#222222" style="stroke: #228B22; stroke-width: 3.0;"/><!--class Souffle--><polygon fill="#222222" points="780.5,922,780.5,922.2102,790.25,921.5857,800,922.1933,809.75,922.3997,819.5,921.2866,829.25,921.9223,839,921.5735,848.75,921.6165,858.5,921.9318,868.25,921.3086,878,922.5536,887.75,921.3697,897.5,922,897.3022,922,897.9319,932.1724,897.4142,942.3449,897.5682,952.5173,897.4681,962.6897,897.6785,972.8622,897.7391,983.0346,897.5,993.207,897.5,993.7927,887.75,993.8781,878,993.8863,868.25,993.4617,858.5,993.6706,848.75,993.9093,839,992.4858,829.25,993.8855,819.5,992.9105,809.75,993.7408,800,992.712,790.25,993.1385,780.5,993.207,781.2416,993.207,780.4513,983.0346,780.6053,972.8622,780.8386,962.6897,780.9162,952.5173,780.4961,942.3449,780.7872,932.1724,780.5,922" style="stroke: #228B22; stroke-width: 3.0;"/><text fill="#228B22" font-family="sans-serif" font-size="12" font-style="italic" lengthAdjust="spacingAndGlyphs" textLength="113" x="782.5" y="940.457">«ConcreteProductF»</text><text fill="#228B22" font-family="courier" font-size="20" font-weight="bold" lengthAdjust="spacingAndGlyphs" textLength="84" x="797" y="965.2012">Souffle</text><path d="M781.5,977.207 L781.5,977.4873 L791.0833,976.6546 L800.6667,977.4647 L810.25,977.7399 L819.8333,976.2558 L829.4167,977.1034 L839,976.6384 L848.5833,976.6957 L858.1667,977.1162 L867.75,976.2852 L877.3333,977.9452 L886.9167,976.3667 L896.5,977.207 " fill="#222222" style="stroke: #228B22; stroke-width: 3.0;"/><path d="M781.5,985.207 L781.5,985.4873 L791.0833,984.6546 L800.6667,985.4647 L810.25,985.7399 L819.8333,984.2558 L829.4167,985.1034 L839,984.6384 L848.5833,984.6957 L858.1667,985.1162 L867.75,984.2852 L877.3333,985.9452 L886.9167,984.3667 L896.5,985.207 " fill="#222222" style="stroke: #228B22; stroke-width: 3.0;"/><!--link Scenario to Person--><path d="M300,84.309 L300.2802,84.309 L299.4476,93.8775 L300.2577,103.4459 L300.5329,113.0144 L299.0488,122.5828 L299.8964,132.1513 L299.4313,141.7197 L299.4887,151.2882 L299.9091,160.8566 L299.0782,170.4251 L300.7382,179.9935 L300,189.562 " fill="none" style="stroke: #A9A9A9; stroke-width: 2.0; stroke-dasharray: 7.0,7.0;"/><polygon fill="#A9A9A9" points="300,194.781,300.064,194.8095,300.6738,192.9249,301.6589,191.2072,302.5217,189.4351,302.9827,187.4844,304,185.781,303.9817,185.7627,303.0995,186.4805,302.3096,187.2906,301.5839,188.1649,300.637,188.818,300,189.781,300.1305,189.9115,299.0514,188.8324,298.3534,188.1344,297.7018,187.4828,296.7798,186.5608,296,185.781,296.0208,185.7902,296.7903,187.5767,297.6544,189.4052,298.4728,191.2134,299.3784,193.0603,300,194.781" style="stroke: #A9A9A9; stroke-width: 2.0;"/><!--link Scenario to BasicChef--><path d="M264.811,84.154 L264.8847,84.2114 L262.5723,86.729 L260.6919,89.583 L258.6708,92.3275 L256.187,94.7117 L254.3437,97.5946 L254.3152,97.5751 L252.174,100.4225 L250.1763,103.3684 L248.2785,106.3829 L246.0367,109.1613 L244.2766,112.2703 L244.4897,112.3934 L242.2336,115.2459 L240.5995,118.4579 L239.0413,121.7137 L237.0415,124.7144 L235.274,127.8493 L235.3016,127.8617 L233.8062,131.0736 L232.4367,134.3422 L231.0065,137.5834 L229.6921,140.8768 L228,144 L228.2806,144.101 L227.2625,146.9407 L226.0633,149.7152 L225.1291,152.585 L224.2074,155.4594 L222.8921,158.1921 L222.5872,158.0934 L222.2458,161.1683 L220.9002,163.9183 L220.318,166.9153 L218.9497,169.6579 L218.2257,172.609 L218.1965,172.6005 L217.6943,175.6243 L216.509,178.45 L215.7268,181.3926 L214.9785,184.345 L213.986,187.2265 L214.1651,187.2729 L213.2187,190.1849 L212.5784,193.1761 L211.4429,196.0392 L211.046,199.0934 L210.1581,202.0205 L210.3955,202.075 L209.6644,205.0539 L209.0512,208.0599 L207.8902,210.9401 L207.1308,213.9125 L206.7271,216.9666 L206.4564,216.9119 L206.0917,219.9763 L205.422,222.979 L205.1947,226.0711 L204.212,229.0105 L203.6784,232.0408 L203.5282,232.0142 L203.242,235.094 L202.314,238.0604 L201.8424,241.1074 L201.8173,244.2333 L200.997,247.2187 L201.1884,247.2479 L200.854,250.3194 L199.9241,253.3001 L199.74,256.3945 L199.3934,259.4642 L198.6682,262.4761 L198.46,262.4491 L198.2277,265.5332 L197.9273,268.6085 L197.7608,271.7012 L197.0735,274.7261 L196.6771,277.7889 L196.8815,277.8112 L196.0988,280.8311 L195.7106,283.894 L195.8987,287.0195 L195.0258,290.0297 L195.0089,293.1329 L195.2342,293.1528 L194.8284,296.2112 L194.3463,299.2627 L194.0362,302.3295 L194.1239,305.4316 L193.6488,308.4837 L193.5161,308.4745 L193.6979,311.5687 L192.977,314.6001 L193.2825,317.7029 L193.0101,320.7656 L192.582,323.8173 L192.6907,323.8229 L192.4453,326.8768 L192.5891,329.9508 L192.3813,333.0066 L192.0264,336.0549 L191.7936,339.1094 L191.9127,339.1135 L191.6308,342.1527 L191.9019,345.2109 L191.5475,348.2476 L191.4505,351.2931 L191.2689,354.3358 L190.9985,354.3308 L191.0336,357.3598 L191.3943,360.3946 L191.2943,363.4211 L191.029,366.4446 L190.9929,369.4722 L190.8497,369.4718 L190.8872,372.4764 L190.6712,375.4803 L191.1521,378.4861 L191.2881,381.491 L190.951,384.4945 L191.1849,384.4973 L191.2953,387.475 L190.9611,390.4474 L191.0961,393.4253 L190.9205,396.3996 L191.1282,399.3784 L191.2544,399.3817 L191.3142,402.3256 L191.5263,405.2734 L191.2552,408.2086 L191.3738,411.154 L191.5098,414.0998 L191.7068,414.1076 L191.876,417.0166 L191.5107,419.9047 L191.7664,422.8172 L192.033,425.7301 L192.081,428.6344 L191.8099,428.6203 L192.387,431.5073 L192.4938,434.3698 L192.4838,437.2263 L192.7408,440.0966 L192.8268,442.958 L193.15,442.9788 L192.8692,445.7668 L193.3288,448.6024 L193.497,451.4192 L193.6028,454.2321 L193.7326,457.0465 L193.795,457.0512 L193.993,459.8161 L193.8763,462.557 L194.1855,465.3304 L194.3687,468.0941 L194.7834,470.8755 L194.8117,470.8781 L195.318,476.2357 L195.8461,481.5952 L196.1412,486.9333 L196.7357,492.299 L197.2611,497.6584 L197.208,497.6524 L198.0918,502.7781 L198.6015,507.8616 L198.7747,512.9069 L199.533,518.0185 L200.1412,523.1131 L199.8869,523.0795 L200.9011,527.9164 L201.6749,532.7217 L202.2796,537.5045 L202.4805,542.234 L203.3053,547.0459 L203.5092,547.0765 L203.6447,551.4404 L204.725,555.946 L205.1714,560.3565 L206.0113,564.826 L206.6347,569.2631 L206.7401,569.2806 L207.517,573.3591 L207.6696,577.3338 L208.8689,581.4825 L209.4139,585.5224 L210.011,589.571 " fill="none" style="stroke: #A9A9A9; stroke-width: 2.0; stroke-dasharray: 7.0,7.0;"/><polygon fill="#A9A9A9" points="210.916,594.704,210.984,594.7209,211.2571,592.7591,211.9289,590.8963,212.4708,589.0013,212.5859,587.0002,213.2919,585.146,213.2706,585.1311,212.5265,585.9913,211.8894,586.9263,211.3266,587.9134,210.5076,588.721,210.0475,589.78,210.1533,589.9312,209.0002,588.959,208.1561,588.4283,207.3497,587.9513,206.3239,587.1611,205.4135,586.5356,205.4323,586.5483,206.5051,588.1634,207.6638,589.8362,208.7811,591.4812,209.9774,593.1794,210.916,594.704" style="stroke: #A9A9A9; stroke-width: 2.0;"/><!--link Scenario to GourmetChef--><path d="M352.184,49.558 L352.1899,49.6512 L356.7219,49.6644 L361.2887,50.2241 L365.8442,50.6059 L370.3623,50.4024 L374.9322,51.009 L374.9297,50.9745 L380.0548,51.1916 L385.1925,51.5823 L390.3389,52.0938 L395.4552,52.1892 L400.6137,52.8674 L400.6338,53.1126 L406.2101,53.0494 L411.8452,53.7021 L417.4875,54.4422 L423.088,54.674 L428.7105,55.1731 L428.7133,55.2033 L434.7079,55.7176 L440.7154,56.3693 L446.7166,56.9547 L452.7297,57.6666 L458.7043,57.966 L458.7357,58.2626 L465.0107,58.9303 L471.2654,59.4066 L477.5497,60.1629 L483.8354,60.9324 L490.0771,61.2861 L490.0388,60.9678 L496.56,62.3628 L502.9548,62.71 L509.4457,63.8538 L515.8377,64.1772 L522.3108,65.173 L522.3068,65.1428 L525.6098,65.9334 L528.819,66.019 L532.0836,66.5205 L535.3528,67.057 L538.5885,67.3416 L538.6146,67.5247 L541.8479,67.8049 L545.1259,68.398 L548.3317,68.4849 L551.6452,69.3269 L554.8871,69.6668 L554.9239,69.9077 L558.1679,70.3595 L561.4302,70.9309 L564.6074,70.9468 L567.847,71.3699 L571.1418,72.1538 L571.097,71.8812 L574.3668,72.6587 L577.5861,73.129 L580.8786,74.0448 L584.0461,74.2 L587.2879,74.8074 L587.2613,74.6572 L590.5001,75.4723 L593.6253,75.6456 L596.8313,76.2753 L600.1163,77.3516 L603.2606,77.6326 L603.2968,77.8228 L606.4686,78.5537 L609.5276,78.6929 L612.7278,79.5731 L615.8973,80.2919 L618.9951,80.6345 L618.9526,80.4289 L622.0728,81.2295 L625.179,81.9628 L628.3125,82.8283 L631.3399,83.1795 L634.4266,83.8181 L634.4715,84.0187 L637.3857,84.2519 L640.3865,84.8724 L643.5138,86.0586 L646.4082,86.2032 L649.4905,87.1882 L649.544,87.408 L652.4385,87.9898 L655.3149,88.4972 L658.2321,89.1725 L661.2438,90.2357 L664.1219,90.7499 L664.0877,90.6213 L667.0163,91.7558 L669.7124,92.0158 L672.6729,93.2701 L675.4845,93.9646 L678.256,94.5082 L678.2865,94.6127 L680.9763,95.3203 L683.7753,96.4022 L686.4757,97.1459 L689.1348,97.7483 L691.8281,98.4681 L691.8647,98.5816 L694.3995,99.2463 L697.1038,100.4378 L699.6164,101.0335 L702.2079,101.8742 L704.7735,102.6345 L704.6825,102.3799 L707.1637,103.3405 L709.7544,104.6078 L712.19,105.4412 L714.5701,106.1189 L717.0273,107.0125 L716.9741,106.8795 L719.2907,107.841 L721.5131,108.5671 L723.9942,109.9403 L726.3472,110.9933 L728.5248,111.607 L728.621,111.8202 L730.787,112.8517 L732.7703,113.478 L734.9465,114.5319 L736.995,115.3027 L739.2012,116.4229 L739.259,116.5352 L741.2095,117.5289 L743.2298,118.6582 L745.0287,119.3577 L747.0062,120.4038 L748.9917,121.4654 L749.0988,121.6309 L752.4616,123.834 L755.5337,125.5879 L758.9436,127.8637 L762.3593,130.1486 L765.6562,132.2498 L765.469,132.0532 L768.2332,134.7136 L770.6728,137.0329 L773.0316,139.2675 L775.5748,141.6958 L778,144 L778.2587,144.1948 L779.7671,146.4116 L781.8682,149.0747 L783.736,151.5622 L785.5538,154.012 L787.3909,156.4763 L787.4438,156.5098 L789.0661,159.0816 L790.4218,161.4845 L792.1383,164.1159 L793.7481,166.6798 L795.554,169.3678 L795.5791,169.381 L796.9851,172.041 L798.4105,174.7111 L799.6289,177.2724 L801.1132,179.9735 L802.5362,182.6424 L802.4871,182.6213 L803.9414,185.4687 L805.0496,188.1675 L805.8466,190.7327 L807.1847,193.5302 L808.3841,196.2681 L808.1413,196.1852 L809.4575,199.0985 L810.5443,201.9334 L811.4695,204.7131 L812.0094,207.3614 L813.1447,210.2128 L813.3442,210.265 L813.5692,212.9757 L814.7187,215.9281 L815.2479,218.7183 L816.1622,221.6091 L816.8646,224.4446 L816.9696,224.4644 L817.616,227.3808 L817.6406,230.1802 L818.7079,233.1758 L819.1233,236.0487 L819.5907,238.9314 L819.7474,238.9504 L820.2764,241.9133 L820.3047,244.8157 L820.7354,247.7667 L821.1081,250.7107 L821.3697,253.6413 L821.4572,253.6464 L821.5451,256.6214 L822.0365,259.6202 L821.6264,262.5658 L822.3235,265.5767 L822.2485,268.542 L821.9711,268.5416 L822.0134,271.5536 L822.2764,274.5659 L822.2762,277.5779 L822.0497,280.5894 L822.2738,283.6017 L822.4574,283.6112 L822.1658,286.6416 L822.2838,289.693 L822.101,292.729 L821.4497,295.7408 L821.4924,298.7884 L821.3164,298.7706 L821.127,301.8389 L821.0331,304.9168 L820.7458,307.9753 L820.3925,311.027 L819.9511,314.0699 L819.8007,314.0478 L819.78,317.1799 L819.328,320.2486 L818.5777,323.2735 L818.0424,326.33 L817.6967,329.4143 L817.5214,329.381 L817.0188,332.4716 L816.5884,335.5758 L815.9144,338.6338 L815.1777,341.6799 L814.7759,344.7896 L814.987,344.8382 L813.8691,347.8186 L813.5774,350.9893 L812.8368,354.0566 L812.1048,357.1259 L811.2357,360.1636 L811.5329,360.2433 L810.3075,363.2035 L809.4614,366.2654 L808.9906,369.4279 L807.689,372.3676 L807.1226,375.5045 L807.0231,375.4743 L806.2439,378.5745 L805.2962,381.6236 L804.1868,384.6236 L803.3931,387.7195 L802.4836,390.7801 L802.7972,390.8859 L801.7331,393.9079 L800.1852,396.7668 L799.4458,399.8983 L798.1726,402.8499 L797.3654,405.9585 L797.3545,405.9545 L796.3775,409.0134 L795.3203,412.0428 L793.7579,414.8858 L793.092,418.0594 L791.8148,421.0077 L791.8183,421.009 L790.3983,423.8938 L789.2459,426.8852 L788.388,429.9941 L787.169,432.959 L785.8786,435.8955 L785.8719,435.8926 L784.3489,438.7171 L783.6376,441.8881 L781.9862,444.6577 L780.6428,447.5589 L779.6036,450.59 L779.5764,450.5776 L778.5289,453.5921 L777.2259,456.4907 L775.6776,459.2779 L774.2888,462.1375 L773.0366,465.0591 L773.1046,465.0917 L771.7487,467.9372 L770.1081,470.6463 L769.1151,473.6657 L767.8107,476.5359 L766.2243,479.2709 L766.1386,479.2277 L764.6517,481.9696 L763.6878,484.9747 L762.0261,487.6285 L760.6156,490.4087 L759.2135,493.1932 L759.3311,493.2552 L757.5271,495.7797 L756.5569,498.7434 L754.9099,501.3506 L753.7465,504.2125 L752.051,506.7942 L751.9669,506.7481 L750.7569,509.5311 L748.9711,511.9983 L747.7861,514.7951 L746.385,517.4733 L744.7837,520.0417 L744.6573,519.9697 L743.4588,522.694 L741.6328,525.0608 L740.2067,527.6554 L739.1871,530.4815 L737.4583,532.9037 L737.7203,533.0582 L736.2086,535.521 L734.3856,537.8002 L733.2033,540.4572 L731.4081,542.7528 L730.1215,545.3483 L730.1436,545.3617 L728.6608,547.747 L727.1013,550.0856 L725.9745,552.6876 L724.4487,555.0467 L722.8202,557.3433 L722.6994,557.2676 L721.5747,559.7703 L719.9672,561.9704 L718.269,564.1136 L716.9571,566.499 L715.6012,568.8568 L715.4049,568.7303 L714.1312,571.0233 L712.5302,573.1053 L711.123,575.3122 L709.9554,577.6736 L708.5112,579.8567 L708.4665,579.8272 L707.1066,581.9332 L705.6924,584.0033 L704.4247,586.1703 L702.7741,588.084 L701.597,590.311 " fill="none" style="stroke: #A9A9A9; stroke-width: 2.0; stroke-dasharray: 7.0,7.0;"/><polygon fill="#A9A9A9" points="698.598,594.766,698.6352,594.8254,700.1934,593.6025,701.9698,592.7275,703.6751,591.7393,705.1467,590.3784,706.9418,589.5333,706.9368,589.5079,705.8042,589.6108,704.6965,589.8418,703.6063,590.1619,702.4561,590.175,701.3899,590.6181,701.5711,590.6535,700.9668,589.4674,700.8913,588.3847,700.8804,587.3146,700.4941,586.1711,700.3052,585.0662,700.3276,585.0702,699.9532,587.0043,699.6809,588.9565,699.3594,590.8999,699.1317,592.8599,698.598,594.766" style="stroke: #A9A9A9; stroke-width: 2.0;"/><!--link Person to Chef--><path d="M304.71,288.268 L304.9888,288.2967 L305.1458,297.7869 L306.9371,307.4453 L308.1962,317.0489 L307.7053,326.4724 L309.5337,336.1347 L310.0565,345.6625 L311.0989,355.2438 L312.5025,364.8623 L312.6613,374.3527 L315.2979,384.0981 L315.549,393.598 " fill="none" style="stroke: #A9A9A9; stroke-width: 2.0; stroke-dasharray: 7.0,7.0;"/><polygon fill="#A9A9A9" points="316.07,398.662,316.1366,398.6838,316.5504,396.7467,317.3546,394.9372,318.0316,393.0862,318.2906,391.0986,319.1283,389.3,319.1082,389.2837,318.304,390.0879,317.6012,390.9746,316.9688,391.9186,316.0937,392.6652,315.5585,393.6882,315.6749,393.8314,314.5483,392.8113,313.7616,392.2092,313.0164,391.658,312.0299,390.8102,311.1702,390.1184,311.19,390.1298,312.141,391.8219,313.1818,393.5655,314.1792,395.2842,315.2594,397.0504,316.07,398.662" style="stroke: #A9A9A9; stroke-width: 2.0;"/><!--link Person to Dish--><path d="M331.135,288.225 L331.21,288.2806 L332.875,290.6607 L334.9798,293.367 L336.9413,295.967 L338.4318,298.2177 L340.5744,300.9519 L340.5471,300.9308 L342.444,303.4359 L344.4784,306.0478 L346.6084,308.734 L348.4089,311.1643 L350.6709,313.953 L350.861,314.1092 L352.5634,316.3413 L354.8209,319.0295 L357.1461,321.7734 L359.0773,324.1934 L361.2157,326.7838 L361.2384,326.8039 L363.3619,329.2177 L365.5889,331.7228 L367.7659,334.1839 L370.0383,336.729 L372,339 L372.2059,339.2157 L374.2189,341.1376 L376.0991,342.9203 L378.1737,344.9068 L380.2574,346.9027 L382.0524,348.5962 L381.8614,348.3388 L384.1639,350.2716 L385.8376,351.3568 L387.9894,353.0864 L389.6488,354.1524 L391.7118,355.7623 L391.6959,355.7363 L393.7319,357.1738 L395.3969,358.0045 L397.2808,359.1932 L399.1831,360.412 L400.9528,361.4139 L401.045,361.5743 L402.7115,362.4229 L404.5354,363.5456 L406.1047,364.2248 L408.0538,365.5656 L409.7504,366.4665 L409.8824,366.6713 L411.5232,367.7064 L413.2295,368.8432 L414.6313,369.5076 L416.2563,370.5183 L418.0791,371.8358 L417.9012,371.6246 L419.6292,373.1361 L421.1567,374.4097 L422.9751,376.0284 L424.2968,377.0577 L425.9138,378.4374 L425.7968,378.3396 L427.4547,380.2524 L428.6126,381.7471 L430.126,383.5392 L431.9874,385.6221 L433.2292,387.187 L433.3972,387.2832 L434.8666,389.7119 L435.8134,391.8411 L437.4148,394.3453 L438.8735,396.7679 L440,399 L439.8086,398.9138 L441.0714,401.4472 L442.2715,403.9524 L443.5947,406.5131 L444.4391,408.8581 L445.551,411.3235 L445.7417,411.4005 L446.3379,413.7473 L447.3021,416.2426 L448.804,418.9549 L449.316,421.2677 L450.6267,423.9028 L450.8395,423.9795 L451.6365,426.4955 L452.3615,428.9856 L453.249,431.5342 L454.5121,434.2182 L455.2438,436.7106 L455.1171,436.67 L456.3293,439.3929 L456.68,441.8393 L458.0103,444.6001 L458.789,447.1839 L459.4191,449.72 L459.5238,449.7498 L460.1894,452.3625 L461.2299,455.0818 L461.9317,457.7048 L462.4919,460.2875 L463.1696,462.9037 L463.2852,462.9327 L463.7819,465.5558 L464.8154,468.3135 L465.2418,470.919 L465.9179,473.5871 L466.512,476.2346 L466.2479,476.1767 L466.9263,478.8862 L467.9229,481.6656 L468.4693,484.3462 L468.8543,486.9914 L469.4632,489.6857 L469.3225,489.6589 L469.8829,492.3763 L470.1943,495.0463 L471.1903,497.8466 L471.8475,500.5824 L472.0399,503.2298 L472.2708,503.2674 L472.7886,506.0015 L472.8676,508.664 L473.4097,511.402 L473.6452,514.0901 L474.259,516.8398 L474.3841,516.857 L474.7434,519.5845 L475.2536,522.3328 L475.285,525.0152 L475.7026,527.7507 L476.1374,530.4886 L476.3333,530.5109 L476.6988,533.2492 L476.5329,535.9271 L476.9845,538.6752 L477.4469,541.4245 L477.6919,544.1491 L477.4215,544.1244 L478.0977,546.8924 L478.305,549.6176 L478.3956,552.3321 L478.7527,555.0709 L478.9392,557.7942 L479.2622,557.8169 L478.9919,560.5049 L479.4616,563.245 L479.64,565.9646 L479.7561,568.6798 L479.8962,571.3967 L479.9587,571.3999 L480.0833,574.1058 L479.8926,576.7959 L480.1284,579.5074 L480.2382,582.2127 L480.5797,584.9296 L480.6081,584.9305 L480.7043,587.618 L480.8224,590.3063 L480.7066,592.9871 L480.8913,595.6775 L481.0067,598.3657 L480.9532,598.3649 L481.3004,601.0317 L481.2711,603.6932 L480.9031,606.35 L481.1239,609.015 L481.1938,611.6779 L480.9372,611.6772 L481.3147,614.3105 L481.4498,616.9431 L481.4142,619.5753 L480.9715,622.2063 L481.1579,624.8391 L481.364,624.8429 L480.7794,627.4295 L481.15,630.034 L480.8796,632.6265 L481.0072,635.2264 L480.9158,637.8222 L481.0226,637.8258 L481.0392,640.3848 L480.4235,642.9225 L480.8682,645.496 L480.6498,648.0471 L480.4844,650.6 L480.6421,650.6076 L480.6956,653.1251 L480.2453,655.6184 L480.1999,658.1311 L480.096,660.641 L479.8805,663.1456 L479.968,663.151 L479.7282,665.6028 L479.8919,668.0795 L479.1542,670.5005 L479.5236,672.9899 L479.1209,675.4317 L478.8443,675.4109 L478.7017,677.8136 L478.7792,680.2328 L478.5943,682.6323 L478.1837,685.0149 L478.2224,687.4312 L478.4055,687.4482 L477.8414,692.0418 L477.6855,696.6735 L477.2299,701.2772 L476.3071,705.8374 L476.0762,710.462 L475.9005,710.4416 L475.5192,714.7672 L475.2333,719.1039 L474.7543,723.4182 L474.2094,727.7248 L473.5765,732.0212 L473.4259,732.0006 L473.3129,736.0337 L472.7681,740.0077 L471.9244,743.9408 L471.2962,747.9034 L470.8578,751.8919 L470.6815,751.8644 L470.2029,755.4703 L469.7969,759.0874 L469.1459,762.6664 L468.4319,766.2355 L468.0548,769.8571 L468.2682,769.8942 L467.3032,772.9908 L467.1736,776.2325 L466.5902,779.3954 L466.0154,782.5597 L465.302,785.7 " fill="none" style="stroke: #A9A9A9; stroke-width: 2.0; stroke-dasharray: 7.0,7.0;"/><polygon fill="#A9A9A9" points="464.372,790.722,464.4298,790.7616,465.3729,789.0198,466.6546,787.5105,467.8261,785.9254,468.6349,784.0915,469.9457,782.602,469.931,782.5807,468.9328,783.1256,468.0084,783.7782,467.1355,784.5056,466.0854,784.9751,465.2835,785.8058,465.4356,785.9103,464.4696,784.7544,463.9477,783.9036,463.4799,783.09,462.697,782.0598,462.0798,781.1436,462.1019,781.1489,462.5279,783.0568,463.0545,784.9888,463.5326,786.9092,464.1034,788.8518,464.372,790.722" style="stroke: #A9A9A9; stroke-width: 2.0;"/><!--link Chef to Dish--><path d="M348.204,535.243 L348.4664,535.3414 L351.1622,544.3212 L355.3962,553.8777 L359.1293,563.2464 L361.2151,571.9976 L365.4842,581.5672 L368.5242,590.6761 L372.0533,599.9683 L375.9225,609.388 L378.6198,618.3685 L383.6497,628.2232 L385.647,636.9413 L389.6624,646.4158 L393.9241,655.9826 L396.7531,665.0124 L400.4209,674.3566 L403.7712,683.5818 L407.5094,692.9524 L411.0606,702.2529 L414.9687,711.6872 L418.5507,720.9993 L422.0364,730.2752 L424.9817,739.3486 L428.718,748.7185 L432.4914,758.1023 L434.1897,766.7083 L439.4127,776.6354 L442.041,785.59 " fill="none" style="stroke: #A9A9A9; stroke-width: 2.0; stroke-dasharray: 7.0,7.0;"/><polygon fill="#A9A9A9" points="443.907,790.568,443.9769,790.5722,443.8866,788.5935,444.2063,786.6393,444.3925,784.6772,444.1396,782.6888,444.4945,780.7367,444.4709,780.726,443.8967,781.7077,443.4413,782.7435,443.0686,783.8168,442.4111,784.7607,442.1525,785.8859,442.2289,786.0539,441.0356,785.2263,440.0655,784.8891,439.1225,784.6118,438.0212,783.9863,437.0032,783.5439,437.0194,783.5599,438.3764,784.9413,439.8072,786.3953,441.2023,787.8142,442.6655,789.3,443.907,790.568" style="stroke: #A9A9A9; stroke-width: 2.0;"/><!--link Chef to BasicChef--><path d="M279.987,553.148 L280.2371,553.2744 L275.2695,561.2617 L271.7682,569.9898 L267.7895,578.4767 L262.2404,586.1703 L258.865,594.962 " fill="none" style="stroke: #A9A9A9; stroke-width: 2.0;"/><polygon fill="none" points="273.871,549.731,273.9196,549.7815,276.8284,546.6923,280.0221,543.899,283.123,541.0094,285.9189,537.8029,289.137,535.035,289.1113,535.0316,288.4421,539.218,287.9023,543.4215,287.4525,547.6368,286.6925,551.8113,286.367,556.043,286.4502,556.2077,283.7731,554.5931,281.3389,553.4594,278.9343,552.3843,276.3573,550.9679,273.871,549.731" style="stroke: #A9A9A9; stroke-width: 2.0;"/><!--link Chef to GourmetChef--><path d="M439.895,537.563 L440.0383,537.8038 L448.041,542.104 L456.8839,547.816 L465.4531,553.0683 L473.1227,556.8087 L481.9847,562.5528 L490.1754,567.1689 L498.6333,572.234 L507.2768,577.6111 L515.2804,581.9128 L524.5579,588.3551 L532.1792,592.0143 L540.9026,597.5256 L549.466,602.768 " fill="none" style="stroke: #A9A9A9; stroke-width: 2.0;"/><polygon fill="none" points="436.189,543.504,436.2427,543.549,433.3617,540.1667,430.7956,537.0482,428.1269,533.8438,425.1211,530.3569,422.582,527.261,422.5769,527.2356,426.7071,527.9641,430.8634,528.8205,435.0377,529.7659,439.1498,530.4047,443.349,531.473,443.5076,531.5674,441.7365,533.7718,440.4284,536.2517,439.1767,538.7652,437.5964,541.0832,436.189,543.504" style="stroke: #A9A9A9; stroke-width: 2.0;"/><!--link BasicChef to Dish--><path d="M321.373,731.088 L321.5331,731.318 L329.2222,736.3182 L337.8498,742.6667 L346.1719,748.5762 L353.4888,753.0417 L362.1378,759.421 L370.0369,764.7229 L378.2345,770.4535 L386.6395,776.4822 L394.3295,781.4838 L403.021,787.924 " fill="none" style="stroke: #A9A9A9; stroke-width: 2.0; stroke-dasharray: 7.0,7.0;"/><polygon fill="#A9A9A9" points="407.187,790.824,407.2469,790.8603,406.0486,789.0675,405.2017,787.4874,404.2403,785.8381,402.9027,783.9609,402.0859,782.3991,402.0604,782.3946,402.1454,783.4877,402.359,784.6039,402.662,785.7361,402.6571,786.8131,403.0834,787.9673,403.1159,788.149,401.9327,787.96,400.8445,788.3015,399.7679,788.7076,398.6238,788.7372,397.5152,788.9649,397.5195,788.9872,399.4476,789.3263,401.3952,789.767,403.3333,790.1586,405.2895,790.6439,407.187,790.824" style="stroke: #A9A9A9; stroke-width: 2.0;"/><!--link GourmetChef to Dish--><path d="M569.243,731.088 L569.4234,731.3025 L561.435,736.9337 L554.504,743.8221 L547.2287,750.3012 L538.8209,755.4338 L531.9141,762.3509 L524.1623,768.2635 L516.7467,774.5758 L509.5649,781.166 L502.171,787.504 " fill="none" style="stroke: #A9A9A9; stroke-width: 2.0; stroke-dasharray: 7.0,7.0;"/><polygon fill="#A9A9A9" points="498.225,790.824,498.2444,790.8913,500.0792,790.145,502.0279,789.7934,503.9395,789.3132,505.7291,788.4104,507.6875,788.0926,507.6853,788.0668,506.5481,787.8536,505.4222,787.7705,504.3041,787.7779,503.159,787.4736,502.0517,787.6058,502.2355,787.6217,501.9397,786.4606,502.1807,785.3458,502.4872,784.2367,502.4126,783.0947,502.5385,781.97,502.5589,781.9799,501.6662,783.7361,500.8666,785.5376,500.022,787.3173,499.2632,789.1387,498.225,790.824" style="stroke: #A9A9A9; stroke-width: 2.0;"/><!--link Dish to Salad--><path d="M384.897,846.066 L384.9215,846.1561 L379.7145,847.2847 L374.6513,848.9417 L369.5412,850.4267 L364.2773,851.3457 L359.2264,853.0481 L359.2171,853.0148 L353.5444,854.4403 L347.9187,856.0335 L342.3256,857.7433 L336.6201,859.0513 L331.072,860.9221 L331.1402,861.1585 L324.9775,862.3886 L319.0139,864.309 L313.0746,866.3136 L306.9939,867.8282 L300.9876,869.6005 L300.9963,869.6296 L294.6915,871.466 L288.4261,873.4347 L282.1417,875.3396 L275.8937,877.3663 L269.5271,878.996 L269.6156,879.2808 L263.1601,881.2893 L256.6476,883.1141 L250.2185,885.2078 L243.7934,887.3142 L237.2443,889.0211 L237.1453,888.7163 L230.8271,891.4214 L224.1831,893.1227 L217.7867,895.5872 L211.1353,897.2657 L204.693,899.5884 L204.6831,899.5596 L198.3463,902.1048 L191.7795,903.9768 L185.3485,906.246 L178.9288,908.5485 L172.4269,910.6105 L172.4891,910.7848 L169.2557,911.7398 L166.1286,912.9925 L162.8297,913.7635 L159.787,915.253 L156.574,916.2648 L156.6581,916.4934 L153.5274,917.5972 L150.4385,918.8146 L147.1554,919.5045 L144.0146,920.581 L141,922 L140.8977,921.7435 L137.5911,923.3318 L134.1692,924.6311 L130.9146,926.3496 L127.3744,927.3523 L124.004,928.7805 " fill="none" style="stroke: #A9A9A9; stroke-width: 2.0;"/><polygon fill="none" points="383.152,839.287,383.1574,839.3569,387.3668,839.4751,391.6078,840.0028,395.8384,840.3972,400.0353,840.3531,404.279,840.916,404.2645,840.8946,400.6928,843.1786,397.1944,845.5706,393.747,848.0378,390.124,850.2461,386.747,852.817,386.9254,852.8644,385.825,850.057,385.2453,847.3881,384.7292,844.736,383.8434,841.9857,383.152,839.287" style="stroke: #A9A9A9; stroke-width: 2.0;"/><!--link Dish to Chicken--><path d="M386.289,865.666 L386.4221,865.9126 L376.9469,870.0806 L368.2519,875.6944 L359.3029,880.8373 L349.5182,884.4321 L340.841,890.0787 L331.5404,894.5703 L322.4879,899.5215 L313.6078,904.7923 L304.1334,908.9618 L295.8421,915.3234 L286.0126,918.8351 L277.332,924.4754 " fill="none" style="stroke: #A9A9A9; stroke-width: 2.0;"/><polygon fill="none" points="383.33,859.309,383.341,859.3782,387.4932,858.5046,391.7102,858.0366,395.906,857.4366,400.0325,856.4022,404.255,855.969,404.2359,855.9515,401.2947,859.0052,398.4501,862.1469,395.6726,865.3497,392.6639,868.3417,389.979,871.629,390.1414,871.7166,388.4643,869.0652,387.2614,866.6697,386.1163,864.3054,384.6346,861.7594,383.33,859.309" style="stroke: #A9A9A9; stroke-width: 2.0;"/><!--link Dish to Custard--><path d="M423.082,878.975 L423.316,879.1292 L416.9725,887.243 L412.0008,896.2608 L406.5824,904.9842 L399.6949,912.7396 L394.841,921.8349 " fill="none" style="stroke: #A9A9A9; stroke-width: 2.0;"/><polygon fill="none" points="417.372,874.919,417.4145,874.9747,420.6583,872.2394,424.1511,869.8306,427.5628,867.3155,430.7078,864.4507,434.222,862.07,434.1969,862.0637,433.0521,866.1458,432.034,870.2597,431.104,874.3957,429.8705,878.4555,429.062,882.622,429.1635,882.7761,426.6084,880.906,424.3497,879.4858,422.1272,878.1204,419.6943,876.4357,417.372,874.919" style="stroke: #A9A9A9; stroke-width: 2.0;"/><!--link Dish to Oyster--><path d="M485.042,879.926 L485.2891,880.0582 L489.0381,888.0472 L494.2357,896.8111 L498.9615,905.3227 L502.136,913.0045 L507.458,921.8349 " fill="none" style="stroke: #A9A9A9; stroke-width: 2.0;"/><polygon fill="none" points="478.751,883.007,478.8202,883.0178,477.9625,878.7984,477.5107,874.6421,476.9266,870.4653,475.908,866.2208,475.491,862.07,475.4735,862.0509,478.5158,864.8321,481.6465,867.7095,484.8386,870.6537,487.8191,873.3675,491.096,876.404,491.183,876.5667,488.5279,877.5393,486.1269,878.9871,483.7569,880.4928,481.2065,881.6612,478.751,883.007" style="stroke: #A9A9A9; stroke-width: 2.0;"/><!--link Dish to Sirloin--><path d="M527.424,867.698 L527.5629,867.9414 L535.7672,872.1368 L544.7859,877.759 L553.5394,882.9166 L561.4208,886.5463 L570.4581,892.201 L578.8446,896.7157 L587.4902,901.6841 L596.3157,906.9678 L604.5208,911.1647 L613.9608,917.525 L622.212,921.8025 " fill="none" style="stroke: #A9A9A9; stroke-width: 2.0;"/><polygon fill="none" points="523.601,873.576,523.6539,873.622,520.717,870.2866,518.09,867.2207,515.3622,864.067,512.3023,860.6248,509.702,857.582,509.6973,857.5565,513.8441,858.2092,518.0145,858.9903,522.2013,859.8607,526.3315,860.4233,530.541,861.417,530.7013,861.5085,528.9705,863.7447,527.7077,866.2479,526.502,868.7838,524.9642,871.13,523.601,873.576" style="stroke: #A9A9A9; stroke-width: 2.0;"/><!--link Dish to Souffle--><path d="M529.263,847.02 L529.2885,847.1099 L534.1688,848.2507 L539.1988,849.9184 L544.18,851.4145 L549.001,852.3465 L554.0438,854.0594 L554.0341,854.0262 L559.4062,855.4548 L564.827,857.0505 L570.2816,858.7625 L575.6196,860.074 L581.121,861.9464 L581.1916,862.1821 L586.8124,863.4069 L592.6394,865.3198 L598.4915,867.3168 L604.1973,868.8252 L609.9801,870.5905 L609.9891,870.6195 L616.0012,872.4391 L622.0542,874.3906 L628.0875,876.2785 L634.1583,878.2878 L640.1068,879.9013 L640.1977,880.1853 L646.3748,882.1661 L652.4932,883.9638 L658.6974,886.0296 L664.9057,888.108 L670.9865,889.7881 L670.8851,889.484 L677.3055,892.1487 L683.3922,893.812 L689.7326,896.2366 L695.8117,897.8773 L702.1049,900.1605 L702.0949,900.1318 L708.3821,902.6252 L714.4348,904.447 L720.6259,906.6652 L726.8286,908.9166 L732.9476,910.928 L733.0107,911.1019 L735.9784,912.0271 L739.054,913.2494 L741.955,913.991 L745.1164,915.4497 L748.1047,916.4316 L748.19,916.6598 L751.1529,917.7303 L754.1582,918.9142 L756.9667,919.5715 L759.9194,920.6148 L763,922 L762.8968,921.7438 L766.4688,923.3776 L769.9246,924.7227 L773.549,926.4865 L776.8854,927.5355 L780.393,929.0094 " fill="none" style="stroke: #A9A9A9; stroke-width: 2.0;"/><polygon fill="none" points="527.053,853.672,527.093,853.7295,523.4953,851.1382,520.1322,848.8841,516.6927,846.5202,513.002,843.7952,509.659,841.57,509.6573,841.5442,513.8785,841.1507,518.1082,840.8876,522.3439,840.7151,526.5591,840.2304,530.803,840.183,530.9808,840.2324,529.8506,842.8245,529.2395,845.5609,528.6917,848.315,527.7755,850.9665,527.053,853.672" style="stroke: #A9A9A9; stroke-width: 2.0;"/><!--link BasicChef to Salad--><path d="M188.293,731.105 L188.5389,731.2395 L182.9631,739.6975 L178.8287,748.9439 L174.2249,757.9336 L168.0777,766.079 L163.9761,775.3434 L158.7229,783.9778 L153.928,792.863 L149.4517,801.9224 L143.8775,810.3812 L140.4887,820.0355 L134.2586,828.1356 L129.9193,837.2699 L125.8107,846.5305 L120.3599,855.0568 L115.6949,864.013 L110.7325,872.8065 L106.1335,881.7988 L101.3592,890.6952 L96.9194,899.7746 L92.1741,908.6869 L86.5439,917.1151 " fill="none" style="stroke: #A9A9A9; stroke-width: 2.0; stroke-dasharray: 7.0,7.0;"/><polygon fill="#A9A9A9" points="84.0814,921.6169,84.1239,921.6726,85.5633,920.3119,87.2519,919.2776,88.8593,918.1371,90.1999,916.6469,91.9099,915.6407,91.9026,915.6159,90.7842,915.8222,89.7024,916.1539,88.6462,916.5727,87.502,916.6912,86.481,917.2303,86.6581,917.2822,85.9614,916.0855,85.7819,915.0402,85.6654,914.0134,85.1819,912.8792,84.8914,911.8014,84.914,911.8033,84.7188,913.7636,84.6267,915.7325,84.4848,917.6973,84.438,919.6699,84.0814,921.6169" style="stroke: #A9A9A9; stroke-width: 2.0;"/><!--link BasicChef to Chicken--><path d="M223.394,731.105 L223.6742,731.1117 L222.6082,740.8514 L223.1845,750.6304 L223.226,760.3966 L221.5088,770.1207 L222.1225,779.9005 L221.424,789.649 L221.2478,799.41 L221.4345,809.1797 L220.3702,818.9194 L221.7962,828.7187 L219.9845,838.4406 L220.3274,848.214 L220.9332,857.9936 L220.0096,867.7367 L219.9813,877.5013 L219.6142,887.2577 L219.6611,897.024 L219.5083,906.7855 L218.956,916.5375 " fill="none" style="stroke: #A9A9A9; stroke-width: 2.0; stroke-dasharray: 7.0,7.0;"/><polygon fill="#A9A9A9" points="218.835,921.6169,218.8983,921.6469,219.553,919.7775,220.579,918.0838,221.484,916.3329,221.9915,914.3938,223.0493,912.7153,223.0315,912.6965,222.1323,913.393,221.3233,914.184,220.5769,915.0407,219.6146,915.6709,218.9547,916.6183,219.0883,916.7457,218.022,915.6544,217.3458,914.935,216.7171,914.2609,215.8116,913.3229,215.0516,912.5237,215.0726,912.5324,215.7985,914.3383,216.6199,916.1838,217.3952,918.0102,218.2586,919.8733,218.835,921.6169" style="stroke: #A9A9A9; stroke-width: 2.0;"/><!--link BasicChef to Custard--><path d="M258.725,731.105 L258.9754,731.2308 L262.6829,739.7146 L267.8583,748.936 L272.5557,757.9172 L275.6812,766.1084 L280.89,775.3466 L284.926,783.9954 L289.4288,792.8788 L294.256,801.9252 L297.9651,810.4097 L303.8998,820.0127 L306.9409,828.1615 L311.9077,837.2781 L317.1094,846.5127 L320.9441,855.0604 L325.5792,864.0102 L329.9113,872.8079 L334.6136,881.7915 L339.1373,890.6854 L344.0017,899.7505 L348.5549,908.6593 L352.207,917.1151 " fill="none" style="stroke: #A9A9A9; stroke-width: 2.0; stroke-dasharray: 7.0,7.0;"/><polygon fill="#A9A9A9" points="354.469,921.6169,354.539,921.6202,354.2375,919.6428,354.3462,917.6849,354.3214,915.7206,353.8572,913.7354,354.0012,911.7792,353.9766,911.771,353.5107,912.8085,353.1688,913.8871,352.913,914.9942,352.3603,916.003,352.2236,917.1495,352.2816,917.3247,351.0835,916.5945,350.0547,916.3758,349.0466,916.2196,347.9183,915.7002,346.8533,915.3719,346.8677,915.3894,348.3697,916.6126,349.9373,917.9159,351.4732,919.1805,353.0696,920.5189,354.469,921.6169" style="stroke: #A9A9A9; stroke-width: 2.0;"/><!--link GourmetChef to Oyster--><path d="M620.781,731.105 L621.0393,731.2136 L616.3669,740.1769 L613.2088,749.7771 L609.5575,759.1698 L604.2846,767.8806 L601.161,777.4953 L596.8274,786.6011 L592.9753,795.9094 L589.458,805.3585 L584.7871,814.3224 L582.4125,824.252 L577.0524,832.9262 L573.6791,842.4358 L570.5482,852.0474 L566.007,861.0659 L562.2914,870.4315 L558.2633,879.6658 L554.6171,889.0607 L550.7867,898.3781 L547.3078,907.8433 L542.683,916.8267 " fill="none" style="stroke: #A9A9A9; stroke-width: 2.0; stroke-dasharray: 7.0,7.0;"/><polygon fill="#A9A9A9" points="540.669,921.6169,540.717,921.6679,542.0097,920.1672,543.5837,918.9657,545.0661,917.6668,546.2472,916.0473,547.8454,914.8715,547.8356,914.8476,546.7441,915.1672,545.7019,915.6077,544.694,916.1324,543.568,916.3673,542.6074,917.0079,542.7783,917.0776,541.9856,915.881,541.6918,914.8879,541.4589,913.9196,540.8718,912.8068,540.471,911.77,540.4938,911.7705,540.5,913.7392,540.6097,915.71,540.6695,917.6798,540.8246,919.6515,540.669,921.6169" style="stroke: #A9A9A9; stroke-width: 2.0;"/><!--link GourmetChef to Sirloin--><path d="M656.8,731.105 L657.0784,731.1374 L657.3857,740.8008 L659.3249,750.654 L660.7328,760.4453 L660.3931,770.0336 L662.3694,779.8911 L663.042,789.597 L664.2334,799.3632 L665.7855,809.1713 L666.0946,818.835 L668.878,828.7863 L668.4445,838.3636 L670.1518,848.1898 L672.1202,858.0464 L672.569,867.7263 L673.9075,877.5096 L674.9093,887.2538 L676.3225,897.0458 L677.5372,906.8147 L678.355,916.5375 " fill="none" style="stroke: #A9A9A9; stroke-width: 2.0; stroke-dasharray: 7.0,7.0;"/><polygon fill="#A9A9A9" points="678.945,921.6169,679.0119,921.6378,679.4,919.6954,680.1801,917.8754,680.8325,916.0156,681.0652,914.0247,681.879,912.2152,681.8586,912.1991,681.0652,913.014,680.3742,913.9099,679.7543,914.8622,678.8892,915.6203,678.3676,916.6503,678.4822,916.795,677.3502,915.7834,676.5526,915.1941,675.7959,914.6564,674.8018,913.8189,673.9325,913.139,673.952,913.1506,674.9258,914.8292,675.9887,916.5605,677.0086,918.2663,678.1105,920.0207,678.945,921.6169" style="stroke: #A9A9A9; stroke-width: 2.0;"/><!--link GourmetChef to Souffle--><path d="M692.59,731.105 L692.825,731.2577 L697.6273,739.2721 L703.8073,748.1815 L709.5387,756.7995 L713.7947,764.4591 L720.0061,773.3889 L725.1167,781.6037 L730.6653,790.103 L736.5185,798.8001 L741.3223,806.8155 L748.215,816.1878 L752.3918,823.796 L758.376,832.5782 L764.5807,841.5037 L769.5024,849.5957 L775.1752,858.1757 L780.5637,866.571 L786.2997,875.1919 L791.868,883.704 L797.7561,892.4238 L803.3522,900.9538 L808.8619,909.4279 L813.603,917.4026 " fill="none" style="stroke: #A9A9A9; stroke-width: 2.0; stroke-dasharray: 7.0,7.0;"/><polygon fill="#A9A9A9" points="816.341,921.6169,816.4102,921.6279,815.8949,919.6499,815.7852,917.7365,815.5434,915.802,814.8672,913.7984,814.7923,911.8906,814.767,911.8852,814.4182,912.9677,814.1972,914.0774,814.065,915.2059,813.6267,916.2694,813.6171,917.424,813.6555,917.6045,812.4668,916.9834,811.39,916.8894,810.327,916.8597,809.1844,916.4559,808.0837,916.2488,808.0961,916.2679,809.7293,917.3135,811.419,918.4459,813.0815,919.5365,814.7959,920.707,816.341,921.6169" style="stroke: #A9A9A9; stroke-width: 2.0;"/><!--link Salad to Chicken--><!--link Chicken to Custard--><!--link Custard to Oyster--><!--link Oyster to Sirloin--><!--link Sirloin to Souffle--><!--
@startuml
skinparam backgroundColor #222222
skinparam handwritten true
hide circle

skinparam shadowing false
skinparam padding 1
skinparam arrow {
    Thickness 2
    Color #DarkGrey
    FontSize 20
    FontName courier
    FontStyle normal
    FontColor #DarkGrey
}
skinparam class {
    BorderThickness 3
    BorderColor #228B22
    BackgroundColor #222222
    FontSize 20
    FontName courier
    FontStyle bold
    FontColor #228B22
    StereotypeFontColor #228B22
}
skinparam classAttribute {
    FontSize 15
    FontName courier
    FontStyle normal
    FontColor #DarkGrey
}
skinparam note {
    BorderThickness 3
    BorderColor #DarkGrey
    BackgroundColor #222222
    FontSize 20
    FontName courier
    FontStyle normal
    FontColor #DarkGrey
}

class Scenario  {
+ main()
}

class Person <<Director>>  {
+ eat(Chef)
}

note right
public eat(Chef) {
    ...
    chef.prepareStarter();
    chef.prepareMainCourse();
    chef.prepareDessert();
    ...
}
end note

class Chef <<AbstractBuilder>>  {
+ prepareStarter()
+ prepareMainCourse()
+ prepareDessert()
}
class BasicChef <<ConcreteBuilderA>>  {
+ prepareStarter()
+ prepareMainCourse()
+ prepareDessert()
}
class GourmetChef <<ConcreteBuilderB>>  {
+ prepareStarter()
+ prepareMainCourse()
+ prepareDessert()
}
class Dish <<AbstractProduct>>
class Salad <<ConcreteProductA>>
class Chicken <<ConcreteProductB>>
class Custard <<ConcreteProductC>>
class Oyster <<ConcreteProductD>>
class Sirloin <<ConcreteProduct>E>>
class Souffle <<ConcreteProductF>>


Scenario ..> Person
Scenario ..> BasicChef
Scenario ..> GourmetChef
Person ..> Chef
Person ..> Dish
Chef ..> Dish
Chef <|- - BasicChef
Chef <|- - GourmetChef
BasicChef ..> Dish
GourmetChef ..> Dish
Dish <|- - Salad
Dish <|- - Chicken
Dish <|- - Custard
Dish <|- - Oyster
Dish <|- - Sirloin
Dish <|- - Souffle
BasicChef ..> Salad
BasicChef ..> Chicken
BasicChef ..> Custard
GourmetChef ..> Oyster
GourmetChef ..> Sirloin
GourmetChef ..> Souffle

Salad -[hidden] Chicken
Chicken -[hidden] Custard
Custard -[hidden] Oyster
Oyster -[hidden] Sirloin
Sirloin -[hidden] Souffle
@enduml

PlantUML version 1.2019.05(Sat Apr 20 18:45:36 CEST 2019)
(GPL source distribution)
Java Runtime: Java(TM) SE Runtime Environment
JVM: Java HotSpot(TM) 64-Bit Server VM
Java Version: 11.0.8+10-LTS
Operating System: Windows 10
OS Version: 10.0
Default Encoding: windows-1252
Language: es
Country: ES
--></g></svg>