<?xml version="1.0" encoding="UTF-8" standalone="no"?><svg xmlns="http://www.w3.org/2000/svg" xmlns:xlink="http://www.w3.org/1999/xlink" contentScriptType="application/ecmascript" contentStyleType="text/css" height="1617px" preserveAspectRatio="none" style="width:1678px;height:1617px;background:#222222;" version="1.1" viewBox="0 0 1678 1617" width="1678px" zoomAndPan="magnify"><defs/><g><!--class Scenario--><polygon fill="#222222" points="813.5,8,813.5,8.2102,823.9,7.5857,834.3,8.1933,844.7,8.3997,855.1,7.2866,865.5,7.9223,875.9,7.5735,886.3,7.6165,896.7,7.9318,907.1,7.3086,917.5,8,918.0536,8,916.8697,17.4623,917.3022,26.9246,917.9319,36.3868,917.4142,45.8491,917.5682,55.3114,917.4681,64.7737,917.6785,74.236,917.5,83.6982,917.5,83.9374,907.1,84.2839,896.7,84.3693,886.3,84.3775,875.9,83.9529,865.5,84.1618,855.1,84.4005,844.7,82.9771,834.3,84.3768,823.9,83.4017,813.5,83.6982,814.0338,83.6982,813.005,74.236,813.4315,64.7737,814.2416,55.3114,813.4513,45.8491,813.6053,36.3868,813.8386,26.9246,813.9162,17.4623,813.5,8" style="stroke: #228B22; stroke-width: 3.0;"/><text fill="#228B22" font-family="courier" font-size="20" font-weight="bold" lengthAdjust="spacingAndGlyphs" textLength="96" x="817.5" y="34.1074">Scenario</text><path d="M814.5,46.1133 L814.5,46.3935 L824.7,45.5609 L834.9,46.371 L845.1,46.6462 L855.3,45.1621 L865.5,46.0097 L875.7,45.5446 L885.9,45.6019 L896.1,46.0224 L906.3,45.1915 L916.5,46.1133 " fill="#222222" style="stroke: #228B22; stroke-width: 3.0;"/><path d="M814.5,54.1133 L814.5,54.3935 L824.7,53.5609 L834.9,54.371 L845.1,54.6462 L855.3,53.1621 L865.5,54.0097 L875.7,53.5446 L885.9,53.6019 L896.1,54.0224 L906.3,53.1915 L916.5,54.1133 " fill="#222222" style="stroke: #228B22; stroke-width: 3.0;"/><polygon fill="#84BE84" points="827.5166,71.1355,827.0768,71.7363,826.5567,72.6164,825.8128,73.2095,825.0311,73.5338,824.4078,73.562,823.6067,73.1564,822.8509,72.8914,822.2771,72.3534,821.9762,71.7374,821.7977,71.247,821.6229,70.6064,821.3391,70.0552,821.5572,69.5169,821.7482,68.9274,822.4653,68.4611,822.9697,67.8561,823.5941,67.6552,824.3364,67.4821,825.2883,67.5849,825.8097,67.8308,826.4158,67.9423,827.1529,68.6974,827.4098,69.4946,827.5214,70.0385,827.395,70.9348" style="stroke: #038048; stroke-width: 1.0;"/><text fill="#A9A9A9" font-family="courier" font-size="15" lengthAdjust="spacingAndGlyphs" textLength="54" x="834.5" y="74.1938">main()</text><!--class Person--><polygon fill="#222222" points="748,217,748,217.2102,757.7917,216.5857,767.5833,217.1933,777.375,217.3997,787.1667,216.2866,796.9583,216.9223,806.75,216.5735,816.5417,216.6165,826.3333,216.9318,836.125,216.3086,845.9167,217.5536,855.7083,216.3697,865.5,216.8022,875.2917,217.4319,885.0833,216.9142,894.875,217.0682,904.6667,216.9681,914.4583,217.1785,924.25,217.2391,934.0417,217.5857,943.8333,217.6711,953.625,217.6793,963.4167,217.2546,973.2083,217.4636,983,217,983.7022,217,982.2788,226.9518,983.6785,236.9035,982.7035,246.8553,983.5338,256.8071,982.505,266.7588,982.9315,276.7106,983.7416,286.6624,982.9513,296.6141,983.1053,306.5659,983.3386,316.5177,983.4162,326.4695,982.9961,336.4212,983.2872,346.373,982.4276,356.3248,983.2844,366.2765,983.5482,376.2283,983.4445,386.1801,983,396.1318,983,396.7449,973.2083,395.6488,963.4167,395.4797,953.625,395.5104,943.8333,396.073,934.0417,395.9353,924.25,396.8132,914.4583,395.9572,904.6667,395.7888,894.875,396.3601,885.0833,395.465,875.2917,395.6127,865.5,396.7808,855.7083,396.5675,845.9167,396.8663,836.125,395.81,826.3333,396.451,816.5417,396.7223,806.75,395.6594,796.9583,396.036,787.1667,396.2578,777.375,396.7836,767.5833,396.1276,757.7917,396.5944,748,396.1318,747.4462,396.1318,747.3227,386.1801,748.5036,376.2283,747.2831,366.2765,748.509,356.3248,748.2066,346.373,747.7321,336.4212,747.6462,326.4695,748.4588,316.5177,747.7007,306.5659,748.5919,296.6141,747.4473,286.6624,748.6174,276.7106,748.4843,266.7588,748.245,256.8071,748.0472,246.8553,748.7266,236.9035,748.6136,226.9518,748,217" style="stroke: #228B22; stroke-width: 3.0;"/><text fill="#228B22" font-family="sans-serif" font-size="12" font-style="italic" lengthAdjust="spacingAndGlyphs" textLength="57" x="837" y="235.457">«Director»</text><text fill="#228B22" font-family="courier" font-size="20" font-weight="bold" lengthAdjust="spacingAndGlyphs" textLength="72" x="829.5" y="260.2012">Person</text><path d="M749,272.207 L749,272.4873 L759.1304,271.6546 L769.2609,272.4647 L779.3913,272.7399 L789.5217,271.2558 L799.6522,272.1034 L809.7826,271.6384 L819.913,271.6957 L830.0435,272.1162 L840.1739,271.2852 L850.3043,272.9452 L860.4348,271.3667 L870.5652,271.9433 L880.6957,272.783 L890.8261,272.0927 L900.9565,272.298 L911.087,272.1644 L921.2174,272.4451 L931.3478,272.5259 L941.4783,272.988 L951.6087,273.1018 L961.7391,273.1127 L971.8696,272.5465 L982,272.207 " fill="#222222" style="stroke: #228B22; stroke-width: 3.0;"/><path d="M749,280.207 L749,280.4873 L759.1304,279.6546 L769.2609,280.4647 L779.3913,280.7399 L789.5217,279.2558 L799.6522,280.1034 L809.7826,279.6384 L819.913,279.6957 L830.0435,280.1162 L840.1739,279.2852 L850.3043,280.9452 L860.4348,279.3667 L870.5652,279.9433 L880.6957,280.783 L890.8261,280.0927 L900.9565,280.298 L911.087,280.1644 L921.2174,280.4451 L931.3478,280.5259 L941.4783,280.988 L951.6087,281.1018 L961.7391,281.1127 L971.8696,280.5465 L982,280.207 " fill="#222222" style="stroke: #228B22; stroke-width: 3.0;"/><polygon fill="#84BE84" points="762.0166,297.2292,761.5768,297.8301,761.0567,298.7102,760.3128,299.3033,759.5311,299.6276,758.9078,299.6557,758.1067,299.2501,757.3509,298.9851,756.7771,298.4471,756.4762,297.8312,756.2977,297.3407,756.1229,296.7002,755.8391,296.1489,756.0572,295.6107,756.2482,295.0211,756.9653,294.5548,757.4697,293.9498,758.0941,293.7489,758.8364,293.5759,759.7883,293.6787,760.3097,293.9246,760.9158,294.036,761.6529,294.7911,761.9098,295.5883,762.0214,296.1322,761.895,297.0286" style="stroke: #038048; stroke-width: 1.0;"/><text fill="#A9A9A9" font-family="courier" font-size="15" lengthAdjust="spacingAndGlyphs" textLength="108" x="769" y="300.2876">createPlan()</text><polygon fill="#84BE84" points="762.0166,318.8142,761.5768,319.4151,761.0567,320.2951,760.3128,320.8882,759.5311,321.2125,758.9078,321.2407,758.1067,320.8351,757.3509,320.5701,756.7771,320.0321,756.4762,319.4161,756.2977,318.9257,756.1229,318.2851,755.8391,317.7339,756.0572,317.1957,756.2482,316.6061,756.9653,316.1398,757.4697,315.5348,758.0941,315.3339,758.8364,315.1608,759.7883,315.2636,760.3097,315.5095,760.9158,315.621,761.6529,316.3761,761.9098,317.1733,762.0214,317.7172,761.895,318.6135" style="stroke: #038048; stroke-width: 1.0;"/><text fill="#A9A9A9" font-family="courier" font-size="15" lengthAdjust="spacingAndGlyphs" textLength="108" x="769" y="321.8726">modifYPlan()</text><polygon fill="#84BE84" points="762.0166,340.3992,761.5768,341,761.0567,341.8801,760.3128,342.4732,759.5311,342.7975,758.9078,342.8257,758.1067,342.42,757.3509,342.155,756.7771,341.617,756.4762,341.0011,756.2977,340.5107,756.1229,339.8701,755.8391,339.3188,756.0572,338.7806,756.2482,338.191,756.9653,337.7247,757.4697,337.1197,758.0941,336.9188,758.8364,336.7458,759.7883,336.8486,760.3097,337.0945,760.9158,337.2059,761.6529,337.9611,761.9098,338.7582,762.0214,339.3022,761.895,340.1985" style="stroke: #038048; stroke-width: 1.0;"/><text fill="#A9A9A9" font-family="courier" font-size="15" lengthAdjust="spacingAndGlyphs" textLength="189" x="769" y="343.4575">undoPlanModifiation()</text><polygon fill="#84BE84" points="762.0166,361.9841,761.5768,362.585,761.0567,363.465,760.3128,364.0581,759.5311,364.3825,758.9078,364.4106,758.1067,364.005,757.3509,363.74,756.7771,363.202,756.4762,362.5861,756.2977,362.0956,756.1229,361.455,755.8391,360.9038,756.0572,360.3656,756.2482,359.776,756.9653,359.3097,757.4697,358.7047,758.0941,358.5038,758.8364,358.3308,759.7883,358.4336,760.3097,358.6794,760.9158,358.7909,761.6529,359.546,761.9098,360.3432,762.0214,360.8871,761.895,361.7835" style="stroke: #038048; stroke-width: 1.0;"/><text fill="#A9A9A9" font-family="courier" font-size="15" lengthAdjust="spacingAndGlyphs" textLength="198" x="769" y="365.0425">redoPlanModification()</text><polygon fill="#84BE84" points="762.0166,383.5691,761.5768,384.1699,761.0567,385.05,760.3128,385.6431,759.5311,385.9674,758.9078,385.9956,758.1067,385.59,757.3509,385.325,756.7771,384.787,756.4762,384.171,756.2977,383.6806,756.1229,383.04,755.8391,382.4888,756.0572,381.9505,756.2482,381.361,756.9653,380.8947,757.4697,380.2897,758.0941,380.0887,758.8364,379.9157,759.7883,380.0185,760.3097,380.2644,760.9158,380.3759,761.6529,381.131,761.9098,381.9282,762.0214,382.4721,761.895,383.3684" style="stroke: #038048; stroke-width: 1.0;"/><text fill="#A9A9A9" font-family="courier" font-size="15" lengthAdjust="spacingAndGlyphs" textLength="207" x="769" y="386.6274">reviewAllPlanVersions()</text><path d="M6,144 L6,469.3594 A0,0 0 0 0 6,469.3594 L713,469.3594 A0,0 0 0 0 713,469.3594 L713,310.5 L747.786,306.5 L713,302.5 L713,154 L703,144 L6,144 A0,0 0 0 0 6,144 " fill="#222222" style="stroke: #A9A9A9; stroke-width: 3.0;"/><path d="M703,144 L703.1868,144 L702.6317,146 L703.1718,148 L703.3553,150 L702.3659,152 L703,154 L703,153.9309 L705,153.6209 L707,153.6591 L709,153.9394 L711,153.3854 L713,154 L713.348,154.348 L710.6038,151.6038 L708.8757,149.8757 L707.2715,148.2715 L704.9461,145.9461 L703,144 " fill="#222222" style="stroke: #A9A9A9; stroke-width: 3.0;"/><text fill="#A9A9A9" font-family="courier" font-size="20" lengthAdjust="spacingAndGlyphs" textLength="252" x="13" y="170.1074">public createPlan() {</text><text fill="#A9A9A9" font-family="courier" font-size="20" lengthAdjust="spacingAndGlyphs" textLength="36" x="37" y="196.2207">...</text><text fill="#A9A9A9" font-family="courier" font-size="20" lengthAdjust="spacingAndGlyphs" textLength="660" x="37" y="222.334">this.plan=new Plan(title, date, participants, details);</text><text fill="#A9A9A9" font-family="courier" font-size="20" lengthAdjust="spacingAndGlyphs" textLength="312" x="37" y="248.4473">this.planActive.regitry();</text><text fill="#A9A9A9" font-family="courier" font-size="20" lengthAdjust="spacingAndGlyphs" textLength="12" x="13" y="274.5605">}</text><text fill="#A9A9A9" font-family="courier" font-size="20" lengthAdjust="spacingAndGlyphs" textLength="0" x="25" y="300.6738"/><text fill="#A9A9A9" font-family="courier" font-size="20" lengthAdjust="spacingAndGlyphs" textLength="360" x="13" y="326.7871">public modifyPlan(Plan plan) {</text><text fill="#A9A9A9" font-family="courier" font-size="20" lengthAdjust="spacingAndGlyphs" textLength="408" x="37" y="352.9004">plan.removeDetail(detailToRemove);</text><text fill="#A9A9A9" font-family="courier" font-size="20" lengthAdjust="spacingAndGlyphs" textLength="336" x="37" y="379.0137">this.planArchive.registry();</text><text fill="#A9A9A9" font-family="courier" font-size="20" lengthAdjust="spacingAndGlyphs" textLength="456" x="37" y="405.127">plan.addParticipant(participantToAdd);</text><text fill="#A9A9A9" font-family="courier" font-size="20" lengthAdjust="spacingAndGlyphs" textLength="564" x="37" y="431.2402">this.planArchive.registry(this.plan.getTitle();</text><text fill="#A9A9A9" font-family="courier" font-size="20" lengthAdjust="spacingAndGlyphs" textLength="12" x="25" y="457.3535">}</text><path d="M1018,222 L1018,302.5 L983.105,306.5 L1018,310.5 L1018,390.6797 A0,0 0 0 0 1018,390.6797 L1461,390.6797 A0,0 0 0 0 1461,390.6797 L1461,232 L1451,222 L1018,222 A0,0 0 0 0 1018,222 " fill="#222222" style="stroke: #A9A9A9; stroke-width: 3.0;"/><path d="M1451,222 L1451.1868,222 L1450.6317,224 L1451.1718,226 L1451.3553,228 L1450.3659,230 L1451,232 L1451,231.9309 L1453,231.6209 L1455,231.6591 L1457,231.9394 L1459,231.3854 L1461,232 L1461.348,232.348 L1458.6038,229.6038 L1456.8757,227.8757 L1455.2715,226.2715 L1452.9461,223.9461 L1451,222 " fill="#222222" style="stroke: #A9A9A9; stroke-width: 3.0;"/><text fill="#A9A9A9" font-family="courier" font-size="20" lengthAdjust="spacingAndGlyphs" textLength="372" x="1025" y="248.1074">public undoPlanModification() {</text><text fill="#A9A9A9" font-family="courier" font-size="20" lengthAdjust="spacingAndGlyphs" textLength="396" x="1049" y="274.2207">this.planArchive.undo(this.plan);</text><text fill="#A9A9A9" font-family="courier" font-size="20" lengthAdjust="spacingAndGlyphs" textLength="0" x="1037" y="300.334"/><text fill="#A9A9A9" font-family="courier" font-size="20" lengthAdjust="spacingAndGlyphs" textLength="348" x="1025" y="326.4473">public redoPlanMotivation() {</text><text fill="#A9A9A9" font-family="courier" font-size="20" lengthAdjust="spacingAndGlyphs" textLength="384" x="1049" y="352.5605">this.planArcive.redo(this.plan);</text><text fill="#A9A9A9" font-family="courier" font-size="20" lengthAdjust="spacingAndGlyphs" textLength="12" x="1025" y="378.6738">}</text><!--class Plan--><polygon fill="#222222" points="653,790,653,790.2102,663.037,789.5857,673.0741,790.1933,683.1111,790.3997,693.1481,789.2866,703.1852,789.9223,713.2222,789.5735,723.2593,789.6165,733.2963,789.9318,743.3333,789.3086,753.3704,790.5536,763.4074,789.3697,773.4444,789.8022,783.4815,790.4319,793.5185,789.9142,803.5556,790.0682,813.5926,789.9681,823.6296,790.1785,833.6667,790.2391,843.7037,790.5857,853.7407,790.6711,863.7778,790.6793,873.8148,790.2546,883.8519,790.4636,893.8889,790.7022,903.9259,789.2788,913.963,790.6785,924,790,923.7035,790,924.5338,800.0518,923.505,810.1035,923.9315,820.1553,924.7416,830.207,923.9513,840.2588,924.1053,850.3105,924.3386,860.3623,924.4162,870.4141,923.9961,880.4658,924.2872,890.5176,923.4276,900.5693,924.2844,910.6211,924.5482,920.6729,924.4445,930.7246,924.613,940.7764,923.5169,950.8281,923.3478,960.8799,923.3786,970.9316,923.9411,980.9834,923.8035,991.0352,924.6814,1001.0869,923.8253,1011.1387,923.6569,1021.1904,924.2283,1031.2422,923.3332,1041.2939,923.4809,1051.3457,924.649,1061.3975,924.4357,1071.4492,924.7345,1081.501,923.6782,1091.5527,924.3192,1101.6045,924.5904,1111.6563,923.5276,1121.708,923.9041,1131.7598,924,1141.8115,924,1141.9375,913.963,1142.4633,903.9259,1141.8073,893.8889,1142.2741,883.8519,1141.2577,873.8148,1141.1343,863.7778,1142.3151,853.7407,1141.0946,843.7037,1142.3205,833.6667,1142.0182,823.6296,1141.5436,813.5926,1141.4578,803.5556,1142.2703,793.5185,1141.5122,783.4815,1142.4034,773.4444,1141.2588,763.4074,1142.4289,753.3704,1142.2958,743.3333,1142.0565,733.2963,1141.8587,723.2593,1142.5381,713.2222,1142.4251,703.1852,1141.9808,693.1481,1142.0797,683.1111,1141.6813,673.0741,1142.528,663.037,1141.9664,653,1141.8115,653.1726,1141.8115,652.3916,1131.7598,652.5948,1121.708,653.5307,1111.6563,653.4298,1101.6045,652.9571,1091.5527,652.6778,1081.501,652.7811,1071.4492,652.3138,1061.3975,653.4147,1051.3457,653.7396,1041.2939,653.5264,1031.2422,653.6949,1021.1904,652.8633,1011.1387,653.0872,1001.0869,652.6124,991.0352,653.284,980.9834,653.2468,970.9316,653.5524,960.8799,652.7703,950.8281,652.8656,940.7764,653.4435,930.7246,653.5673,920.6729,652.4875,910.6211,652.8061,900.5693,653.1493,890.5176,652.3892,880.4658,653.3534,870.4141,653.258,860.3623,652.8992,850.3105,653.1422,840.2588,653.7287,830.207,652.6871,820.1553,653.315,810.1035,653.2856,800.0518,653,790" style="stroke: #228B22; stroke-width: 3.0;"/><text fill="#228B22" font-family="sans-serif" font-size="12" font-style="italic" lengthAdjust="spacingAndGlyphs" textLength="68" x="754.5" y="808.457">«Originator»</text><text fill="#228B22" font-family="courier" font-size="20" font-weight="bold" lengthAdjust="spacingAndGlyphs" textLength="48" x="764.5" y="833.2012">Plan</text><path d="M654,845.207 L654,845.4873 L663.963,844.6546 L673.9259,845.4647 L683.8889,845.7399 L693.8519,844.2558 L703.8148,845.1034 L713.7778,844.6384 L723.7407,844.6957 L733.7037,845.1162 L743.6667,844.2852 L753.6296,845.9452 L763.5926,844.3667 L773.5556,844.9433 L783.5185,845.783 L793.4815,845.0927 L803.4444,845.298 L813.4074,845.1644 L823.3704,845.4451 L833.3333,845.5259 L843.2963,845.988 L853.2593,846.1018 L863.2222,846.1127 L873.1852,845.5465 L883.1481,845.8251 L893.1111,846.1433 L903.0741,844.2455 L913.037,846.1117 L923,845.207 " fill="#222222" style="stroke: #228B22; stroke-width: 3.0;"/><polygon fill="none" points="667.0166,862.2292,666.5768,862.8301,666.0567,863.7102,665.3128,864.3033,664.5311,864.6276,663.9078,864.6557,663.1067,864.2501,662.3509,863.9851,661.7771,863.4471,661.4762,862.8312,661.2977,862.3407,661.1229,861.7002,660.8391,861.1489,661.0572,860.6107,661.2482,860.0211,661.9653,859.5548,662.4697,858.9498,663.0941,858.7489,663.8364,858.5759,664.7883,858.6787,665.3097,858.9246,665.9158,859.036,666.6529,859.7911,666.9098,860.5883,667.0214,861.1322,666.895,862.0286" style="stroke: #038048; stroke-width: 1.0;"/><text fill="#A9A9A9" font-family="courier" font-size="15" lengthAdjust="spacingAndGlyphs" textLength="45" x="674" y="865.2876">title</text><polygon fill="none" points="667.0166,883.8142,666.5768,884.4151,666.0567,885.2951,665.3128,885.8882,664.5311,886.2125,663.9078,886.2407,663.1067,885.8351,662.3509,885.5701,661.7771,885.0321,661.4762,884.4161,661.2977,883.9257,661.1229,883.2851,660.8391,882.7339,661.0572,882.1957,661.2482,881.6061,661.9653,881.1398,662.4697,880.5348,663.0941,880.3339,663.8364,880.1608,664.7883,880.2636,665.3097,880.5095,665.9158,880.621,666.6529,881.3761,666.9098,882.1733,667.0214,882.7172,666.895,883.6135" style="stroke: #038048; stroke-width: 1.0;"/><text fill="#A9A9A9" font-family="courier" font-size="15" lengthAdjust="spacingAndGlyphs" textLength="36" x="674" y="886.8726">date</text><polygon fill="none" points="667.0166,905.3992,666.5768,906,666.0567,906.8801,665.3128,907.4732,664.5311,907.7975,663.9078,907.8257,663.1067,907.42,662.3509,907.155,661.7771,906.617,661.4762,906.0011,661.2977,905.5107,661.1229,904.8701,660.8391,904.3188,661.0572,903.7806,661.2482,903.191,661.9653,902.7247,662.4697,902.1197,663.0941,901.9188,663.8364,901.7458,664.7883,901.8486,665.3097,902.0945,665.9158,902.2059,666.6529,902.9611,666.9098,903.7582,667.0214,904.3022,666.895,905.1985" style="stroke: #038048; stroke-width: 1.0;"/><text fill="#A9A9A9" font-family="courier" font-size="15" lengthAdjust="spacingAndGlyphs" textLength="108" x="674" y="908.4575">participants</text><polygon fill="none" points="667.0166,926.9841,666.5768,927.585,666.0567,928.465,665.3128,929.0581,664.5311,929.3825,663.9078,929.4106,663.1067,929.005,662.3509,928.74,661.7771,928.202,661.4762,927.5861,661.2977,927.0956,661.1229,926.455,660.8391,925.9038,661.0572,925.3656,661.2482,924.776,661.9653,924.3097,662.4697,923.7047,663.0941,923.5038,663.8364,923.3308,664.7883,923.4336,665.3097,923.6794,665.9158,923.7909,666.6529,924.546,666.9098,925.3432,667.0214,925.8871,666.895,926.7835" style="stroke: #038048; stroke-width: 1.0;"/><text fill="#A9A9A9" font-family="courier" font-size="15" lengthAdjust="spacingAndGlyphs" textLength="63" x="674" y="930.0425">details</text><polygon fill="none" points="667.0166,948.5691,666.5768,949.1699,666.0567,950.05,665.3128,950.6431,664.5311,950.9674,663.9078,950.9956,663.1067,950.59,662.3509,950.325,661.7771,949.787,661.4762,949.171,661.2977,948.6806,661.1229,948.04,660.8391,947.4888,661.0572,946.9505,661.2482,946.361,661.9653,945.8947,662.4697,945.2897,663.0941,945.0887,663.8364,944.9157,664.7883,945.0185,665.3097,945.2644,665.9158,945.3759,666.6529,946.131,666.9098,946.9282,667.0214,947.4721,666.895,948.3684" style="stroke: #038048; stroke-width: 1.0;"/><text fill="#A9A9A9" font-family="courier" font-size="15" lengthAdjust="spacingAndGlyphs" textLength="99" x="674" y="951.6274">coordinator</text><polygon fill="none" points="667.0166,970.154,666.5768,970.7549,666.0567,971.635,665.3128,972.2281,664.5311,972.5524,663.9078,972.5805,663.1067,972.1749,662.3509,971.9099,661.7771,971.3719,661.4762,970.756,661.2977,970.2656,661.1229,969.625,660.8391,969.0737,661.0572,968.5355,661.2482,967.9459,661.9653,967.4796,662.4697,966.8746,663.0941,966.6737,663.8364,966.5007,664.7883,966.6035,665.3097,966.8494,665.9158,966.9608,666.6529,967.7159,666.9098,968.5131,667.0214,969.057,666.895,969.9534" style="stroke: #038048; stroke-width: 1.0;"/><text fill="#A9A9A9" font-family="courier" font-size="15" lengthAdjust="spacingAndGlyphs" textLength="81" x="674" y="973.2124">secretary</text><path d="M654,982.7168 L654,982.997 L663.963,982.1644 L673.9259,982.9745 L683.8889,983.2497 L693.8519,981.7656 L703.8148,982.6132 L713.7778,982.1481 L723.7407,982.2055 L733.7037,982.6259 L743.6667,981.795 L753.6296,983.455 L763.5926,981.8764 L773.5556,982.4531 L783.5185,983.2927 L793.4815,982.6024 L803.4444,982.8078 L813.4074,982.6742 L823.3704,982.9548 L833.3333,983.0356 L843.2963,983.4977 L853.2593,983.6115 L863.2222,983.6225 L873.1852,983.0563 L883.1481,983.3349 L893.1111,983.6531 L903.0741,981.7552 L913.037,983.6215 L923,982.7168 " fill="#222222" style="stroke: #228B22; stroke-width: 3.0;"/><polygon fill="#84BE84" points="667.0166,999.739,666.5768,1000.3399,666.0567,1001.2199,665.3128,1001.813,664.5311,1002.1374,663.9078,1002.1655,663.1067,1001.7599,662.3509,1001.4949,661.7771,1000.9569,661.4762,1000.3409,661.2977,999.8505,661.1229,999.2099,660.8391,998.6587,661.0572,998.1205,661.2482,997.5309,661.9653,997.0646,662.4697,996.4596,663.0941,996.2587,663.8364,996.0857,664.7883,996.1884,665.3097,996.4343,665.9158,996.5458,666.6529,997.3009,666.9098,998.0981,667.0214,998.642,666.895,999.5383" style="stroke: #038048; stroke-width: 1.0;"/><text fill="#A9A9A9" font-family="courier" font-size="15" lengthAdjust="spacingAndGlyphs" textLength="171" x="674" y="1002.7974">createPlanVersion()</text><polygon fill="#84BE84" points="667.0166,1021.324,666.5768,1021.9248,666.0567,1022.8049,665.3128,1023.398,664.5311,1023.7223,663.9078,1023.7505,663.1067,1023.3448,662.3509,1023.0799,661.7771,1022.5418,661.4762,1021.9259,661.2977,1021.4355,661.1229,1020.7949,660.8391,1020.2436,661.0572,1019.7054,661.2482,1019.1158,661.9653,1018.6496,662.4697,1018.0445,663.0941,1017.8436,663.8364,1017.6706,664.7883,1017.7734,665.3097,1018.0193,665.9158,1018.1307,666.6529,1018.8859,666.9098,1019.683,667.0214,1020.227,666.895,1021.1233" style="stroke: #038048; stroke-width: 1.0;"/><text fill="#A9A9A9" font-family="courier" font-size="15" lengthAdjust="spacingAndGlyphs" textLength="243" x="674" y="1024.3823">setPlanVersion(PlanVersion)</text><polygon fill="#84BE84" points="667.0166,1042.9089,666.5768,1043.5098,666.0567,1044.3898,665.3128,1044.9829,664.5311,1045.3073,663.9078,1045.3354,663.1067,1044.9298,662.3509,1044.6648,661.7771,1044.1268,661.4762,1043.5109,661.2977,1043.0204,661.1229,1042.3798,660.8391,1041.8286,661.0572,1041.2904,661.2482,1040.7008,661.9653,1040.2345,662.4697,1039.6295,663.0941,1039.4286,663.8364,1039.2556,664.7883,1039.3584,665.3097,1039.6043,665.9158,1039.7157,666.6529,1040.4708,666.9098,1041.268,667.0214,1041.8119,666.895,1042.7083" style="stroke: #038048; stroke-width: 1.0;"/><text fill="#A9A9A9" font-family="courier" font-size="15" lengthAdjust="spacingAndGlyphs" textLength="144" x="674" y="1045.9673">setTitle(String)</text><polygon fill="#84BE84" points="667.0166,1064.4939,666.5768,1065.0947,666.0567,1065.9748,665.3128,1066.5679,664.5311,1066.8922,663.9078,1066.9204,663.1067,1066.5148,662.3509,1066.2498,661.7771,1065.7118,661.4762,1065.0958,661.2977,1064.6054,661.1229,1063.9648,660.8391,1063.4136,661.0572,1062.8753,661.2482,1062.2858,661.9653,1061.8195,662.4697,1061.2145,663.0941,1061.0136,663.8364,1060.8405,664.7883,1060.9433,665.3097,1061.1892,665.9158,1061.3007,666.6529,1062.0558,666.9098,1062.853,667.0214,1063.3969,666.895,1064.2932" style="stroke: #038048; stroke-width: 1.0;"/><text fill="#A9A9A9" font-family="courier" font-size="15" lengthAdjust="spacingAndGlyphs" textLength="198" x="674" y="1067.5522">addParticipant(String)</text><polygon fill="#84BE84" points="667.0166,1086.0788,666.5768,1086.6797,666.0567,1087.5598,665.3128,1088.1529,664.5311,1088.4772,663.9078,1088.5053,663.1067,1088.0997,662.3509,1087.8347,661.7771,1087.2967,661.4762,1086.6808,661.2977,1086.1904,661.1229,1085.5498,660.8391,1084.9985,661.0572,1084.4603,661.2482,1083.8707,661.9653,1083.4044,662.4697,1082.7994,663.0941,1082.5985,663.8364,1082.4255,664.7883,1082.5283,665.3097,1082.7742,665.9158,1082.8856,666.6529,1083.6408,666.9098,1084.4379,667.0214,1084.9819,666.895,1085.8782" style="stroke: #038048; stroke-width: 1.0;"/><text fill="#A9A9A9" font-family="courier" font-size="15" lengthAdjust="spacingAndGlyphs" textLength="225" x="674" y="1089.1372">removeParticipant(String)</text><polygon fill="#84BE84" points="667.0166,1107.6638,666.5768,1108.2647,666.0567,1109.1447,665.3128,1109.7378,664.5311,1110.0622,663.9078,1110.0903,663.1067,1109.6847,662.3509,1109.4197,661.7771,1108.8817,661.4762,1108.2657,661.2977,1107.7753,661.1229,1107.1347,660.8391,1106.5835,661.0572,1106.0453,661.2482,1105.4557,661.9653,1104.9894,662.4697,1104.3844,663.0941,1104.1835,663.8364,1104.0105,664.7883,1104.1133,665.3097,1104.3591,665.9158,1104.4706,666.6529,1105.2257,666.9098,1106.0229,667.0214,1106.5668,666.895,1107.4631" style="stroke: #038048; stroke-width: 1.0;"/><text fill="#A9A9A9" font-family="courier" font-size="15" lengthAdjust="spacingAndGlyphs" textLength="153" x="674" y="1110.7222">addDetail(String)</text><polygon fill="#84BE84" points="667.0166,1129.2488,666.5768,1129.8496,666.0567,1130.7297,665.3128,1131.3228,664.5311,1131.6471,663.9078,1131.6753,663.1067,1131.2696,662.3509,1131.0047,661.7771,1130.4666,661.4762,1129.8507,661.2977,1129.3603,661.1229,1128.7197,660.8391,1128.1684,661.0572,1127.6302,661.2482,1127.0406,661.9653,1126.5744,662.4697,1125.9693,663.0941,1125.7684,663.8364,1125.5954,664.7883,1125.6982,665.3097,1125.9441,665.9158,1126.0555,666.6529,1126.8107,666.9098,1127.6078,667.0214,1128.1518,666.895,1129.0481" style="stroke: #038048; stroke-width: 1.0;"/><text fill="#A9A9A9" font-family="courier" font-size="15" lengthAdjust="spacingAndGlyphs" textLength="180" x="674" y="1132.3071">removeDetail(String)</text><path d="M89,1202 L89,1605.6992 A0,0 0 0 0 89,1605.6992 L856,1605.6992 A0,0 0 0 0 856,1605.6992 L856,1212 L846,1202 L622.271,1202 L661.564,1142.139 L614.271,1202 L89,1202 A0,0 0 0 0 89,1202 " fill="#222222" style="stroke: #A9A9A9; stroke-width: 3.0;"/><path d="M846,1202 L846.1868,1202 L845.6317,1204 L846.1718,1206 L846.3553,1208 L845.3659,1210 L846,1212 L846,1211.9309 L848,1211.6209 L850,1211.6591 L852,1211.9394 L854,1211.3854 L856,1212 L856.348,1212.348 L853.6038,1209.6038 L851.8757,1207.8757 L850.2715,1206.2715 L847.9461,1203.9461 L846,1202 " fill="#222222" style="stroke: #A9A9A9; stroke-width: 3.0;"/><text fill="#A9A9A9" font-family="courier" font-size="20" lengthAdjust="spacingAndGlyphs" textLength="336" x="96" y="1228.1074">public createPlanVersion() {</text><text fill="#A9A9A9" font-family="courier" font-size="20" lengthAdjust="spacingAndGlyphs" textLength="408" x="120" y="1254.2207">return new PlanVersion(this.title,</text><text fill="#A9A9A9" font-family="courier" font-size="20" lengthAdjust="spacingAndGlyphs" textLength="216" x="396" y="1280.334">this.participants,</text><text fill="#A9A9A9" font-family="courier" font-size="20" lengthAdjust="spacingAndGlyphs" textLength="156" x="396" y="1306.4473">this.details)</text><text fill="#A9A9A9" font-family="courier" font-size="20" lengthAdjust="spacingAndGlyphs" textLength="12" x="96" y="1332.5605">}</text><text fill="#A9A9A9" font-family="courier" font-size="20" lengthAdjust="spacingAndGlyphs" textLength="0" x="108" y="1358.6738"/><text fill="#A9A9A9" font-family="courier" font-size="20" lengthAdjust="spacingAndGlyphs" textLength="432" x="96" y="1384.7871">public setPlanVersion(planVersion) {</text><text fill="#A9A9A9" font-family="courier" font-size="20" lengthAdjust="spacingAndGlyphs" textLength="432" x="120" y="1410.9004">this.title = planVersion.getTitle();</text><text fill="#A9A9A9" font-family="courier" font-size="20" lengthAdjust="spacingAndGlyphs" textLength="600" x="120" y="1437.0137">this.participants = planVersion.getParticipants();</text><text fill="#A9A9A9" font-family="courier" font-size="20" lengthAdjust="spacingAndGlyphs" textLength="420" x="120" y="1463.127">details = planVersion.getDetails();</text><text fill="#A9A9A9" font-family="courier" font-size="20" lengthAdjust="spacingAndGlyphs" textLength="600" x="120" y="1489.2402">this.coordinator = (this.participans.size() &gt; 0) ?</text><text fill="#A9A9A9" font-family="courier" font-size="20" lengthAdjust="spacingAndGlyphs" textLength="360" x="180" y="1515.3535">this.participants.get(0) : "";</text><text fill="#A9A9A9" font-family="courier" font-size="20" lengthAdjust="spacingAndGlyphs" textLength="588" x="120" y="1541.4668">this.secretary = (this.participants.size() &gt; 0) ?</text><text fill="#A9A9A9" font-family="courier" font-size="20" lengthAdjust="spacingAndGlyphs" textLength="660" x="180" y="1567.5801">this.participants.get(this.participants.size() -1 : "";</text><text fill="#A9A9A9" font-family="courier" font-size="20" lengthAdjust="spacingAndGlyphs" textLength="12" x="96" y="1593.6934">}</text><!--class PlanVersion--><polygon fill="#222222" points="891.5,1303.5,891.5,1303.7102,901.6176,1303.0857,911.7353,1303.6933,921.8529,1303.8997,931.9706,1302.7866,942.0882,1303.4223,952.2059,1303.0735,962.3235,1303.1165,972.4412,1303.4318,982.5588,1302.8086,992.6765,1304.0536,1002.7941,1302.8697,1012.9118,1303.3022,1023.0294,1303.9319,1033.1471,1303.4142,1043.2647,1303.5682,1053.3824,1303.4681,1063.5,1303.5,1063.6785,1303.5,1063.7391,1313.5358,1064.0857,1323.5717,1064.1711,1333.6075,1064.1793,1343.6434,1063.7546,1353.6792,1063.9636,1363.715,1064.2022,1373.7509,1062.7788,1383.7867,1064.1785,1393.8226,1063.2035,1403.8584,1064.0338,1413.8942,1063.005,1423.9301,1063.4315,1433.9659,1064.2416,1444.0018,1063.4513,1454.0376,1063.6053,1464.0734,1063.8386,1474.1093,1063.9162,1484.1451,1063.4961,1494.181,1063.5,1504.2168,1063.5,1504.504,1053.3824,1503.6444,1043.2647,1504.5012,1033.1471,1504.765,1023.0294,1504.6613,1012.9118,1504.8298,1002.7941,1503.7337,992.6765,1503.5646,982.5588,1503.5954,972.4412,1504.1579,962.3235,1504.0203,952.2059,1504.8982,942.0882,1504.0421,931.9706,1503.8737,921.8529,1504.4451,911.7353,1503.55,901.6176,1503.6977,891.5,1504.2168,892.149,1504.2168,891.9357,1494.181,892.2345,1484.1451,891.1782,1474.1093,891.8192,1464.0734,892.0904,1454.0376,891.0276,1444.0018,891.4041,1433.9659,891.626,1423.9301,892.1518,1413.8942,891.4958,1403.8584,891.9626,1393.8226,890.9462,1383.7867,890.8227,1373.7509,892.0036,1363.715,890.7831,1353.6792,892.009,1343.6434,891.7066,1333.6075,891.2321,1323.5717,891.1462,1313.5358,891.5,1303.5" style="stroke: #228B22; stroke-width: 3.0;"/><text fill="#228B22" font-family="sans-serif" font-size="12" font-style="italic" lengthAdjust="spacingAndGlyphs" textLength="65" x="945" y="1321.957">«Memento»</text><text fill="#228B22" font-family="courier" font-size="20" font-weight="bold" lengthAdjust="spacingAndGlyphs" textLength="132" x="911.5" y="1346.7012">PlanVersion</text><path d="M892.5,1358.707 L892.5,1358.9873 L902.5,1358.1546 L912.5,1358.9647 L922.5,1359.2399 L932.5,1357.7558 L942.5,1358.6034 L952.5,1358.1384 L962.5,1358.1957 L972.5,1358.6162 L982.5,1357.7852 L992.5,1359.4452 L1002.5,1357.8667 L1012.5,1358.4433 L1022.5,1359.283 L1032.5,1358.5927 L1042.5,1358.798 L1052.5,1358.6644 L1062.5,1358.707 " fill="#222222" style="stroke: #228B22; stroke-width: 3.0;"/><polygon fill="none" points="905.5166,1375.7292,905.0768,1376.3301,904.5567,1377.2102,903.8128,1377.8033,903.0311,1378.1276,902.4078,1378.1557,901.6067,1377.7501,900.8509,1377.4851,900.2771,1376.9471,899.9762,1376.3312,899.7977,1375.8407,899.6229,1375.2002,899.3391,1374.6489,899.5572,1374.1107,899.7482,1373.5211,900.4653,1373.0548,900.9697,1372.4498,901.5941,1372.2489,902.3364,1372.0759,903.2883,1372.1787,903.8097,1372.4246,904.4158,1372.536,905.1529,1373.2911,905.4098,1374.0883,905.5214,1374.6322,905.395,1375.5286" style="stroke: #038048; stroke-width: 1.0;"/><text fill="#A9A9A9" font-family="courier" font-size="15" lengthAdjust="spacingAndGlyphs" textLength="45" x="912.5" y="1378.7876">title</text><polygon fill="none" points="905.5166,1397.3142,905.0768,1397.9151,904.5567,1398.7951,903.8128,1399.3882,903.0311,1399.7125,902.4078,1399.7407,901.6067,1399.3351,900.8509,1399.0701,900.2771,1398.5321,899.9762,1397.9161,899.7977,1397.4257,899.6229,1396.7851,899.3391,1396.2339,899.5572,1395.6957,899.7482,1395.1061,900.4653,1394.6398,900.9697,1394.0348,901.5941,1393.8339,902.3364,1393.6608,903.2883,1393.7636,903.8097,1394.0095,904.4158,1394.121,905.1529,1394.8761,905.4098,1395.6733,905.5214,1396.2172,905.395,1397.1135" style="stroke: #038048; stroke-width: 1.0;"/><text fill="#A9A9A9" font-family="courier" font-size="15" lengthAdjust="spacingAndGlyphs" textLength="108" x="912.5" y="1400.3726">participants</text><polygon fill="none" points="905.5166,1418.8992,905.0768,1419.5,904.5567,1420.3801,903.8128,1420.9732,903.0311,1421.2975,902.4078,1421.3257,901.6067,1420.92,900.8509,1420.655,900.2771,1420.117,899.9762,1419.5011,899.7977,1419.0107,899.6229,1418.3701,899.3391,1417.8188,899.5572,1417.2806,899.7482,1416.691,900.4653,1416.2247,900.9697,1415.6197,901.5941,1415.4188,902.3364,1415.2458,903.2883,1415.3486,903.8097,1415.5945,904.4158,1415.7059,905.1529,1416.4611,905.4098,1417.2582,905.5214,1417.8022,905.395,1418.6985" style="stroke: #038048; stroke-width: 1.0;"/><text fill="#A9A9A9" font-family="courier" font-size="15" lengthAdjust="spacingAndGlyphs" textLength="63" x="912.5" y="1421.9575">details</text><path d="M892.5,1431.4619 L892.5,1431.7422 L902.5,1430.9095 L912.5,1431.7196 L922.5,1431.9948 L932.5,1430.5107 L942.5,1431.3583 L952.5,1430.8933 L962.5,1430.9506 L972.5,1431.371 L982.5,1430.5401 L992.5,1432.2001 L1002.5,1430.6215 L1012.5,1431.1982 L1022.5,1432.0378 L1032.5,1431.3475 L1042.5,1431.5529 L1052.5,1431.4193 L1062.5,1431.4619 " fill="#222222" style="stroke: #228B22; stroke-width: 3.0;"/><polygon fill="#84BE84" points="905.5166,1448.4841,905.0768,1449.085,904.5567,1449.965,903.8128,1450.5581,903.0311,1450.8825,902.4078,1450.9106,901.6067,1450.505,900.8509,1450.24,900.2771,1449.702,899.9762,1449.0861,899.7977,1448.5956,899.6229,1447.955,899.3391,1447.4038,899.5572,1446.8656,899.7482,1446.276,900.4653,1445.8097,900.9697,1445.2047,901.5941,1445.0038,902.3364,1444.8308,903.2883,1444.9336,903.8097,1445.1794,904.4158,1445.2909,905.1529,1446.046,905.4098,1446.8432,905.5214,1447.3871,905.395,1448.2835" style="stroke: #038048; stroke-width: 1.0;"/><text fill="#A9A9A9" font-family="courier" font-size="15" lengthAdjust="spacingAndGlyphs" textLength="90" x="912.5" y="1451.5425">getTitle()</text><polygon fill="#84BE84" points="905.5166,1470.0691,905.0768,1470.6699,904.5567,1471.55,903.8128,1472.1431,903.0311,1472.4674,902.4078,1472.4956,901.6067,1472.09,900.8509,1471.825,900.2771,1471.287,899.9762,1470.671,899.7977,1470.1806,899.6229,1469.54,899.3391,1468.9888,899.5572,1468.4505,899.7482,1467.861,900.4653,1467.3947,900.9697,1466.7897,901.5941,1466.5887,902.3364,1466.4157,903.2883,1466.5185,903.8097,1466.7644,904.4158,1466.8759,905.1529,1467.631,905.4098,1468.4282,905.5214,1468.9721,905.395,1469.8684" style="stroke: #038048; stroke-width: 1.0;"/><text fill="#A9A9A9" font-family="courier" font-size="15" lengthAdjust="spacingAndGlyphs" textLength="144" x="912.5" y="1473.1274">getParticipans()</text><polygon fill="#84BE84" points="905.5166,1491.654,905.0768,1492.2549,904.5567,1493.135,903.8128,1493.7281,903.0311,1494.0524,902.4078,1494.0805,901.6067,1493.6749,900.8509,1493.4099,900.2771,1492.8719,899.9762,1492.256,899.7977,1491.7656,899.6229,1491.125,899.3391,1490.5737,899.5572,1490.0355,899.7482,1489.4459,900.4653,1488.9796,900.9697,1488.3746,901.5941,1488.1737,902.3364,1488.0007,903.2883,1488.1035,903.8097,1488.3494,904.4158,1488.4608,905.1529,1489.2159,905.4098,1490.0131,905.5214,1490.557,905.395,1491.4534" style="stroke: #038048; stroke-width: 1.0;"/><text fill="#A9A9A9" font-family="courier" font-size="15" lengthAdjust="spacingAndGlyphs" textLength="108" x="912.5" y="1494.7124">getDetails()</text><!--class PlanArchive--><polygon fill="#222222" points="890.5,529,890.5,529.2102,900.5,528.5857,910.5,529.1933,920.5,529.3997,930.5,528.2866,940.5,528.9223,950.5,528.5735,960.5,528.6165,970.5,528.9318,980.5,528.3086,990.5,529.5536,1000.5,528.3697,1010.5,528.8022,1020.5,529.4319,1030.5,529,1030.4142,529,1030.5682,539.0358,1030.4681,549.0717,1030.6785,559.1075,1030.7391,569.1434,1031.0857,579.1792,1031.1711,589.215,1031.1793,599.2509,1030.7546,609.2867,1030.9636,619.3226,1031.2022,629.3584,1029.7788,639.3942,1031.1785,649.4301,1030.2035,659.4659,1031.0338,669.5018,1030.005,679.5376,1030.4315,689.5734,1031.2416,699.6093,1030.4513,709.6451,1030.6053,719.681,1030.5,729.7168,1030.5,730.0554,1020.5,730.133,1010.5,729.7129,1000.5,730.004,990.5,729.1444,980.5,730.0012,970.5,730.265,960.5,730.1613,950.5,730.3298,940.5,729.2337,930.5,729.0646,920.5,729.0954,910.5,729.6579,900.5,729.5203,890.5,729.7168,891.1814,729.7168,890.3253,719.681,890.1569,709.6451,890.7283,699.6093,889.8332,689.5734,889.9809,679.5376,891.149,669.5018,890.9357,659.4659,891.2345,649.4301,890.1782,639.3942,890.8192,629.3584,891.0904,619.3226,890.0276,609.2867,890.4041,599.2509,890.626,589.215,891.1518,579.1792,890.4958,569.1434,890.9626,559.1075,889.9462,549.0717,889.8227,539.0358,890.5,529" style="stroke: #228B22; stroke-width: 3.0;"/><text fill="#228B22" font-family="sans-serif" font-size="12" font-style="italic" lengthAdjust="spacingAndGlyphs" textLength="69" x="926" y="547.457">«Caretaker»</text><text fill="#228B22" font-family="courier" font-size="20" font-weight="bold" lengthAdjust="spacingAndGlyphs" textLength="132" x="894.5" y="572.2012">PlanArchive</text><path d="M891.5,584.207 L891.5,584.4873 L901.3571,583.6546 L911.2143,584.4647 L921.0714,584.7399 L930.9286,583.2558 L940.7857,584.1034 L950.6429,583.6384 L960.5,583.6957 L970.3571,584.1162 L980.2143,583.2852 L990.0714,584.9452 L999.9286,583.3667 L1009.7857,583.9433 L1019.6429,584.783 L1029.5,584.207 " fill="#222222" style="stroke: #228B22; stroke-width: 3.0;"/><polygon fill="none" points="904.5166,601.2292,904.0768,601.8301,903.5567,602.7102,902.8128,603.3033,902.0311,603.6276,901.4078,603.6557,900.6067,603.2501,899.8509,602.9851,899.2771,602.4471,898.9762,601.8312,898.7977,601.3407,898.6229,600.7002,898.3391,600.1489,898.5572,599.6107,898.7482,599.0211,899.4653,598.5548,899.9697,597.9498,900.5941,597.7489,901.3364,597.5759,902.2883,597.6787,902.8097,597.9246,903.4158,598.036,904.1529,598.7911,904.4098,599.5883,904.5214,600.1322,904.395,601.0286" style="stroke: #038048; stroke-width: 1.0;"/><text fill="#A9A9A9" font-family="courier" font-size="15" lengthAdjust="spacingAndGlyphs" textLength="108" x="911.5" y="604.2876">planVersions</text><path d="M891.5,613.792 L891.5,614.0722 L901.3571,613.2396 L911.2143,614.0497 L921.0714,614.3249 L930.9286,612.8408 L940.7857,613.6884 L950.6429,613.2233 L960.5,613.2807 L970.3571,613.7011 L980.2143,612.8702 L990.0714,614.5302 L999.9286,612.9516 L1009.7857,613.5283 L1019.6429,614.3679 L1029.5,613.792 " fill="#222222" style="stroke: #228B22; stroke-width: 3.0;"/><polygon fill="#84BE84" points="904.5166,630.8142,904.0768,631.4151,903.5567,632.2951,902.8128,632.8882,902.0311,633.2125,901.4078,633.2407,900.6067,632.8351,899.8509,632.5701,899.2771,632.0321,898.9762,631.4161,898.7977,630.9257,898.6229,630.2851,898.3391,629.7339,898.5572,629.1957,898.7482,628.6061,899.4653,628.1398,899.9697,627.5348,900.5941,627.3339,901.3364,627.1608,902.2883,627.2636,902.8097,627.5095,903.4158,627.621,904.1529,628.3761,904.4098,629.1733,904.5214,629.7172,904.395,630.6135" style="stroke: #038048; stroke-width: 1.0;"/><text fill="#A9A9A9" font-family="courier" font-size="15" lengthAdjust="spacingAndGlyphs" textLength="90" x="911.5" y="633.8726">registry()</text><polygon fill="#84BE84" points="904.5166,652.3992,904.0768,653,903.5567,653.8801,902.8128,654.4732,902.0311,654.7975,901.4078,654.8257,900.6067,654.42,899.8509,654.155,899.2771,653.617,898.9762,653.0011,898.7977,652.5107,898.6229,651.8701,898.3391,651.3188,898.5572,650.7806,898.7482,650.191,899.4653,649.7247,899.9697,649.1197,900.5941,648.9188,901.3364,648.7458,902.2883,648.8486,902.8097,649.0945,903.4158,649.2059,904.1529,649.9611,904.4098,650.7582,904.5214,651.3022,904.395,652.1985" style="stroke: #038048; stroke-width: 1.0;"/><text fill="#A9A9A9" font-family="courier" font-size="15" lengthAdjust="spacingAndGlyphs" textLength="54" x="911.5" y="655.4575">undo()</text><polygon fill="#84BE84" points="904.5166,673.9841,904.0768,674.585,903.5567,675.465,902.8128,676.0581,902.0311,676.3825,901.4078,676.4106,900.6067,676.005,899.8509,675.74,899.2771,675.202,898.9762,674.5861,898.7977,674.0956,898.6229,673.455,898.3391,672.9038,898.5572,672.3656,898.7482,671.776,899.4653,671.3097,899.9697,670.7047,900.5941,670.5038,901.3364,670.3308,902.2883,670.4336,902.8097,670.6794,903.4158,670.7909,904.1529,671.546,904.4098,672.3432,904.5214,672.8871,904.395,673.7835" style="stroke: #038048; stroke-width: 1.0;"/><text fill="#A9A9A9" font-family="courier" font-size="15" lengthAdjust="spacingAndGlyphs" textLength="54" x="911.5" y="677.0425">redo()</text><polygon fill="#84BE84" points="904.5166,695.5691,904.0768,696.1699,903.5567,697.05,902.8128,697.6431,902.0311,697.9674,901.4078,697.9956,900.6067,697.59,899.8509,697.325,899.2771,696.787,898.9762,696.171,898.7977,695.6806,898.6229,695.04,898.3391,694.4888,898.5572,693.9505,898.7482,693.361,899.4653,692.8947,899.9697,692.2897,900.5941,692.0887,901.3364,691.9157,902.2883,692.0185,902.8097,692.2644,903.4158,692.3759,904.1529,693.131,904.4098,693.9282,904.5214,694.4721,904.395,695.3684" style="stroke: #038048; stroke-width: 1.0;"/><text fill="#A9A9A9" font-family="courier" font-size="15" lengthAdjust="spacingAndGlyphs" textLength="108" x="911.5" y="698.6274">isUndoable()</text><polygon fill="#84BE84" points="904.5166,717.154,904.0768,717.7549,903.5567,718.635,902.8128,719.2281,902.0311,719.5524,901.4078,719.5805,900.6067,719.1749,899.8509,718.9099,899.2771,718.3719,898.9762,717.756,898.7977,717.2656,898.6229,716.625,898.3391,716.0737,898.5572,715.5355,898.7482,714.9459,899.4653,714.4796,899.9697,713.8746,900.5941,713.6737,901.3364,713.5007,902.2883,713.6035,902.8097,713.8494,903.4158,713.9608,904.1529,714.7159,904.4098,715.5131,904.5214,716.057,904.395,716.9534" style="stroke: #038048; stroke-width: 1.0;"/><text fill="#A9A9A9" font-family="courier" font-size="15" lengthAdjust="spacingAndGlyphs" textLength="108" x="911.5" y="720.2124">isRedoable()</text><path d="M1031,829.5 L1031,1102.6328 A0,0 0 0 0 1031,1102.6328 L1666,1102.6328 A0,0 0 0 0 1666,1102.6328 L1666,839.5 L1656,829.5 L1195.07,829.5 L1030.76,691.075 L1187.07,829.5 L1031,829.5 A0,0 0 0 0 1031,829.5 " fill="#222222" style="stroke: #A9A9A9; stroke-width: 3.0;"/><path d="M1656,829.5 L1656.1868,829.5 L1655.6317,831.5 L1656.1718,833.5 L1656.3553,835.5 L1655.3659,837.5 L1656,839.5 L1656,839.4309 L1658,839.1209 L1660,839.1591 L1662,839.4394 L1664,838.8854 L1666,839.5 L1666.348,839.848 L1663.6038,837.1038 L1661.8757,835.3757 L1660.2715,833.7715 L1657.9461,831.4461 L1656,829.5 " fill="#222222" style="stroke: #A9A9A9; stroke-width: 3.0;"/><text fill="#A9A9A9" font-family="courier" font-size="20" lengthAdjust="spacingAndGlyphs" textLength="180" x="1038" y="855.6074">public undo() {</text><text fill="#A9A9A9" font-family="courier" font-size="20" lengthAdjust="spacingAndGlyphs" textLength="252" x="1062" y="881.7207">this.firstPrevious++;</text><text fill="#A9A9A9" font-family="courier" font-size="20" lengthAdjust="spacingAndGlyphs" textLength="300" x="1062" y="907.834">this.plan.setPlanVersion(</text><text fill="#A9A9A9" font-family="courier" font-size="20" lengthAdjust="spacingAndGlyphs" textLength="528" x="1122" y="933.9473">this.planVersions.get(this.firrstPrevious));</text><text fill="#A9A9A9" font-family="courier" font-size="20" lengthAdjust="spacingAndGlyphs" textLength="12" x="1038" y="960.0605">}</text><text fill="#A9A9A9" font-family="courier" font-size="20" lengthAdjust="spacingAndGlyphs" textLength="180" x="1038" y="986.1738">public redo() {</text><text fill="#A9A9A9" font-family="courier" font-size="20" lengthAdjust="spacingAndGlyphs" textLength="252" x="1062" y="1012.2871">this.firstPrevious--;</text><text fill="#A9A9A9" font-family="courier" font-size="20" lengthAdjust="spacingAndGlyphs" textLength="300" x="1062" y="1038.4004">this.plan.setPlanVersion(</text><text fill="#A9A9A9" font-family="courier" font-size="20" lengthAdjust="spacingAndGlyphs" textLength="528" x="1122" y="1064.5137">this.planVersions.get(this.firrstPrevious));</text><text fill="#A9A9A9" font-family="courier" font-size="20" lengthAdjust="spacingAndGlyphs" textLength="12" x="1038" y="1090.627">}</text><!--link Scenario to Person--><path d="M865.5,84.04 L865.7802,84.04 L864.9476,93.87 L865.7577,103.7 L866.0329,113.53 L864.5488,123.36 L865.3964,133.19 L864.9313,143.02 L864.9887,152.85 L865.4091,162.68 L864.5782,172.51 L866.2382,182.34 L864.6596,192.17 L865.2363,202 L865.5,211.83 " fill="none" style="stroke: #A9A9A9; stroke-width: 2.0; stroke-dasharray: 7.0,7.0;"/><polygon fill="#A9A9A9" points="865.5,216.92,865.564,216.9485,866.1738,215.0639,867.1589,213.3462,868.0217,211.5741,868.4827,209.6234,869.5,207.92,869.4817,207.9017,868.5995,208.6195,867.8096,209.4296,867.0839,210.3039,866.137,210.957,865.5,211.92,865.6305,212.0505,864.5514,210.9714,863.8534,210.2734,863.2018,209.6218,862.2798,208.6998,861.5,207.92,861.5208,207.9292,862.2903,209.7157,863.1544,211.5442,863.9728,213.3524,864.8784,215.1993,865.5,216.92" style="stroke: #A9A9A9; stroke-width: 2.0;"/><!--link Person to PlanArchive--><path d="M895.494,408.85 L895.7627,408.9295 L897.6977,417.9294 L901.2079,427.3954 L904.2052,436.7097 L905.5154,445.5247 L909.0616,455.0014 L911.349,464.1056 L914.1374,473.358 L917.2739,482.7134 L919.2105,491.7138 L923.5357,501.421 L924.7554,510.2092 L928.0418,519.609 L931.028,528.92 " fill="none" style="stroke: #A9A9A9; stroke-width: 2.0;"/><polygon fill="#222222" points="891.711,396.06,891.7779,396.0807,891.1522,397.3967,890.9187,398.8342,890.5575,400.2322,889.7761,401.4999,889.5764,402.9479,889.5598,402.928,890.5927,403.7627,891.7093,404.6976,892.884,405.7022,893.8584,406.4667,895.1134,407.5675,895.2897,407.6222,895.3397,406.1278,895.9043,404.7929,896.5317,403.4774,896.7938,402.0488,897.2481,400.6796,897.2626,400.6971,896.1338,399.7475,895.0714,398.8775,893.9769,397.9691,892.9435,397.1338,891.711,396.06" style="stroke: #A9A9A9; stroke-width: 2.0;"/><!--link Person to Plan--><path d="M853.593,409.18 L853.8713,409.2126 L851.8708,419.1359 L851.502,429.2503 L850.6018,439.3025 L847.9543,449.1501 L847.6226,459.2689 L845.9872,469.235 L844.8706,479.2618 L844.1147,489.3309 L842.1159,499.2544 L842.5912,509.4677 L839.8498,519.3043 L839.2491,529.3915 L838.9095,539.5094 L837.0504,549.4493 L836.0809,559.4933 L834.7747,569.498 L833.8799,579.5508 L832.7867,589.5804 L832.0721,599.6543 L831.0117,609.6878 L829.849,619.7092 L828.1132,629.6635 L827.2164,639.7161 L826.359,649.7733 L823.3004,659.5728 L823.9805,669.81 L821.5158,679.679 L821.4419,689.8279 L818.9059,699.6886 L818.2973,709.7749 L818.1966,719.9207 L815.9765,729.8183 L815.0069,739.8624 L814.1424,749.9188 L813.0717,759.951 L811.3418,769.906 L810.5539,779.9714 L809,789.947 " fill="none" style="stroke: #A9A9A9; stroke-width: 2.0;"/><polygon fill="#222222" points="855.115,396.17,855.1684,396.2153,854.0766,397.1803,853.2979,398.411,852.4172,399.5552,851.2011,400.4148,850.4493,401.6683,850.4263,401.6565,850.9789,402.8879,851.6478,404.1788,852.3976,405.5109,852.8688,406.7007,853.7302,408.0898,853.8709,408.2092,854.5031,406.8542,855.5462,405.8479,856.6394,404.884,857.4409,403.6727,858.3959,402.5915,858.4161,402.6019,857.7302,401.3024,857.1365,400.05,856.4983,398.7749,855.945,397.5431,855.115,396.17" style="stroke: #A9A9A9; stroke-width: 2.0;"/><!--link PlanArchive to Plan--><path d="M909.127,730.408 L909.3762,730.5362 L903.946,739.2757 L899.9769,748.7665 L895.5319,758.0127 L889.5224,766.4544 L885.5865,775.9623 L880.989,785.13 " fill="none" style="stroke: #A9A9A9; stroke-width: 2.0;"/><polygon fill="#A9A9A9" points="878.533,789.907,878.5769,789.9616,879.9811,788.5646,881.6427,787.4875,883.2205,786.3063,884.5226,784.7824,886.2063,783.7329,886.1984,783.7082,885.0856,783.943,884.0127,784.3022,882.9675,784.7479,881.8267,784.8956,880.8198,785.4606,880.9955,785.5169,880.2742,784.3191,880.0659,783.2858,879.9202,782.2726,879.4104,781.1426,879.0921,780.074,879.1148,780.0753,878.9696,782.04,878.9278,784.0106,878.8362,785.9783,878.8397,787.9515,878.533,789.907" style="stroke: #A9A9A9; stroke-width: 2.0;"/><!--link PlanArchive to PlanVersion--><path d="M962.99,743.659 L963.2702,743.6652 L962.6563,753.582 L963.6849,763.535 L964.1787,773.4762 L962.9136,783.3787 L963.9796,793.3324 L963.7333,803.2574 L964.0092,813.1938 L964.6482,823.1382 L964.0361,833.055 L965.9144,843.0267 L964.5548,852.9271 L965.35,862.8749 L966.4081,872.8286 L965.9366,882.7485 L966.3605,892.6882 L966.4456,902.6204 L966.9448,912.5617 L967.2442,922.4986 L967.9248,932.4439 L968.2572,942.3816 L968.4868,952.317 L968.1394,962.2397 L968.6366,972.1809 L969.1734,982.1231 L967.4946,992.0165 L969.579,1001.9927 L968.4979,1011.8992 L969.8234,1021.8587 L968.6706,1031.7637 L969.4578,1041.7114 L970.7563,1051.6703 L969.9214,1061.5822 L970.3454,1071.5219 L970.875,1081.4639 L971.1971,1091.4013 L970.8557,1101.3241 L971.4624,1111.2678 L970.5351,1121.1777 L971.8959,1131.138 L972.4662,1141.0809 L972.5467,1151.013 L972.9899,1160.9531 L971.7474,1170.8561 L971.7406,1180.7863 L972.0003,1190.7223 L972.9688,1200.674 L973.0039,1210.6051 L974.3929,1220.566 L973.4703,1230.476 L973.4645,1240.4062 L974.4447,1250.3581 L973.4702,1260.267 L973.8857,1270.2065 L975.6614,1280.1759 L975.015,1290.092 " fill="none" style="stroke: #A9A9A9; stroke-width: 2.0;"/><polygon fill="#A9A9A9" points="975.31,1303.475,975.3746,1303.502,975.9426,1301.6045,976.8895,1299.8654,977.7131,1298.0747,978.1308,1296.1143,979.1102,1294.3888,979.0915,1294.3709,978.2254,1295.108,977.4536,1295.9354,976.7474,1296.8256,975.8152,1297.4994,975.1996,1298.4762,975.3271,1298.6096,974.2368,1297.5423,973.519,1296.8643,972.8467,1296.2338,971.9099,1295.327,971.1122,1294.5655,971.1328,1294.5752,971.9421,1296.3429,972.8451,1298.1547,973.703,1299.9452,974.647,1301.7763,975.31,1303.475" style="stroke: #A9A9A9; stroke-width: 2.0;"/><path d="M975.1996,1298.4762 L975.293,1298.4783 L974.9804,1296.8726 L975.2152,1295.279 L975.2718,1293.6815 L974.7421,1292.0711 L975.024,1290.4785 " fill="#A9A9A9" style="stroke: #A9A9A9; stroke-width: 2.0;"/><polygon fill="#222222" points="962.696,730.304,962.7551,730.3416,961.806,731.4472,961.2035,732.7731,960.4882,734.0273,959.4016,735.0457,958.8288,736.3905,958.8076,736.3756,959.5385,737.4912,960.3764,738.6815,961.2888,739.9238,961.9447,740.987,962.9598,742.3011,963.1155,742.4001,963.5559,740.9711,964.451,739.8312,965.4016,738.7264,966.0293,737.4166,966.8269,736.2146,966.8456,736.2277,965.992,735.0264,965.2233,733.8845,964.4137,732.7139,963.6822,731.598,962.696,730.304" style="stroke: #A9A9A9; stroke-width: 2.0;"/><!--link Plan to PlanVersion--><path d="M864.421,1142.139 L864.6781,1142.2505 L867.9004,1151.1151 L872.6299,1160.633 L876.8686,1169.9382 L879.4932,1178.5437 L884.2571,1188.0766 L887.8167,1197.0874 L891.8555,1206.306 L896.2275,1215.669 L899.4513,1224.5342 L904.9606,1234.3902 L907.4985,1242.9582 L912.0139,1252.3833 L916.7705,1261.913 L920.1234,1270.8342 L924.298,1280.1117 L928.1617,1289.2543 L932.187,1298.467 " fill="none" style="stroke: #A9A9A9; stroke-width: 2.0; stroke-dasharray: 7.0,7.0;"/><polygon fill="#A9A9A9" points="934.263,1303.257,934.3331,1303.2576,934.143,1301.286,934.3635,1299.3182,934.4504,1297.3492,934.0974,1295.3761,934.3533,1293.4086,934.3292,1293.399,933.8053,1294.4085,933.4028,1295.466,933.0848,1296.5568,932.4758,1297.5326,932.2743,1298.6695,932.3421,1298.8411,931.1449,1298.0583,930.1457,1297.7766,929.1706,1297.556,928.055,1296.9797,927.0133,1296.5905,927.0287,1296.6072,928.456,1297.916,929.9535,1299.3009,931.4171,1300.6491,932.9452,1302.0674,934.263,1303.257" style="stroke: #A9A9A9; stroke-width: 2.0;"/><!--
@startuml
skinparam backgroundColor #222222
skinparam handwritten true
hide circle

skinparam shadowing false
skinparam padding 1
skinparam arrow {
    Thickness 2
    Color #DarkGrey
    FontSize 20
    FontName courier
    FontStyle normal
    FontColor #DarkGrey
}
skinparam class {
    BorderThickness 3
    BorderColor #228B22
    BackgroundColor #222222
    FontSize 20
    FontName courier
    FontStyle bold
    FontColor #228B22
    StereotypeFontColor #228B22
}
skinparam classAttribute {
    FontSize 15
    FontName courier
    FontStyle normal
    FontColor #DarkGrey
}
skinparam note {
    BorderThickness 3
    BorderColor #DarkGrey
    BackgroundColor #222222
    FontSize 20
    FontName courier
    FontStyle normal
    FontColor #DarkGrey
}

class Scenario  {
+ main()
}
class Person <<Director>>  {
+ createPlan()
+ modifYPlan()
+ undoPlanModifiation()
+ redoPlanModification()
+ reviewAllPlanVersions()
}
note left
public createPlan() {
  ...
  this.plan=new Plan(title, date, participants, details);
  this.planActive.regitry();
}

public modifyPlan(Plan plan) {
  plan.removeDetail(detailToRemove);
  this.planArchive.registry();
  plan.addParticipant(participantToAdd);
  this.planArchive.registry(this.plan.getTitle();
 }
end note
class Person <<Director>>
note right
public undoPlanModification() {
  this.planArchive.undo(this.plan);

public redoPlanMotivation() {
  this.planArcive.redo(this.plan);
}
end note
class Plan <<Originator>>  {
+ title
+ date
+ participants
+ details
+ coordinator
+ secretary
+ createPlanVersion()
+ setPlanVersion(PlanVersion)
+ setTitle(String)
+ addParticipant(String)
+ removeParticipant(String)
+ addDetail(String)
+ removeDetail(String)
}
note bottom
public createPlanVersion() {
  return new PlanVersion(this.title,
                         this.participants,
                         this.details)
}

public setPlanVersion(planVersion) {
  this.title = planVersion.getTitle();
  this.participants = planVersion.getParticipants();
  details = planVersion.getDetails();
  this.coordinator = (this.participans.size() > 0) ?
       this.participants.get(0) : "";
  this.secretary = (this.participants.size() > 0) ?
       this.participants.get(this.participants.size() -1 : "";
}
end note
class PlanVersion <<Memento>>  {
+ title
+ participants
+ details
+ getTitle()
+ getParticipans()
+ getDetails()
}
class PlanArchive <<Caretaker>>  {
+ planVersions
+ registry()
+ undo()
+ redo()
+ isUndoable()
+ isRedoable()
}
note bottom
public undo() {
  this.firstPrevious++;
  this.plan.setPlanVersion(
       this.planVersions.get(this.firrstPrevious));
}
public redo() {
  this.firstPrevious- -;
  this.plan.setPlanVersion(
       this.planVersions.get(this.firrstPrevious));
}
end note

Scenario .down.> Person
Person o-down- PlanArchive
Person o-down- Plan
PlanArchive - -> Plan
PlanArchive o- -> PlanVersion
Plan ..> PlanVersion
@enduml

PlantUML version 1.2019.05(Sat Apr 20 18:45:36 CEST 2019)
(GPL source distribution)
Java Runtime: Java(TM) SE Runtime Environment
JVM: Java HotSpot(TM) 64-Bit Server VM
Java Version: 11.0.8+10-LTS
Operating System: Windows 10
OS Version: 10.0
Default Encoding: windows-1252
Language: es
Country: ES
--></g></svg>