<?xml version="1.0" encoding="UTF-8" standalone="no"?><svg xmlns="http://www.w3.org/2000/svg" xmlns:xlink="http://www.w3.org/1999/xlink" contentScriptType="application/ecmascript" contentStyleType="text/css" height="515px" preserveAspectRatio="none" style="width:1052px;height:515px;background:#222222;" version="1.1" viewBox="0 0 1052 515" width="1052px" zoomAndPan="magnify"><defs/><g><!--class CasualAdviser--><polygon fill="#222222" points="45.4441,297,45.4441,297.2102,55.6941,296.5857,65.9441,297.1933,76.1941,297.3997,86.4441,296.2866,96.6941,296.9223,106.9441,296.5735,117.1941,296.6165,127.4441,296.9318,137.6941,296.3086,147.9441,297.5536,158.1941,296.3697,168.4441,296.8022,178.6941,297.4319,188.9441,296.9142,199.1941,297.0682,209.4441,297,209.4122,297,209.6226,307.3102,209.6832,317.6204,210.0298,327.9307,210.1152,338.2409,210.1234,348.5511,209.6987,358.8613,209.9077,369.1715,210.1463,379.4818,209.4441,389.792,209.4441,389.0708,199.1941,390.4705,188.9441,389.4955,178.6941,390.3258,168.4441,389.297,158.1941,389.7235,147.9441,390.5336,137.6941,389.7433,127.4441,389.8973,117.1941,390.1306,106.9441,390.2082,96.6941,389.7881,86.4441,390.0792,76.1941,389.2196,65.9441,390.0764,55.6941,390.3402,45.4441,389.792,45.8886,389.792,46.0571,379.4818,44.961,369.1715,44.7919,358.8613,44.8227,348.5511,45.3852,338.2409,45.2476,327.9307,46.1255,317.6204,45.2694,307.3102,45.4441,297" style="stroke: #228B22; stroke-width: 3.0;"/><text fill="#228B22" font-family="sans-serif" font-size="12" font-style="italic" lengthAdjust="spacingAndGlyphs" textLength="141" x="56.9441" y="315.457">«RedefinedAbstractionA»</text><text fill="#228B22" font-family="courier" font-size="20" font-weight="bold" lengthAdjust="spacingAndGlyphs" textLength="156" x="49.4441" y="340.2012">CasualAdviser</text><path d="M46.4441,352.207 L46.4441,352.4873 L56.5691,351.6546 L66.6941,352.4647 L76.8191,352.7399 L86.9441,351.2558 L97.0691,352.1034 L107.1941,351.6384 L117.3191,351.6957 L127.4441,352.1162 L137.5691,351.2852 L147.6941,352.9452 L157.8191,351.3667 L167.9441,351.9433 L178.0691,352.783 L188.1941,352.0927 L198.3191,352.298 L208.4441,352.207 " fill="#222222" style="stroke: #228B22; stroke-width: 3.0;"/><path d="M46.4441,360.207 L46.4441,360.4873 L56.5691,359.6546 L66.6941,360.4647 L76.8191,360.7399 L86.9441,359.2558 L97.0691,360.1034 L107.1941,359.6384 L117.3191,359.6957 L127.4441,360.1162 L137.5691,359.2852 L147.6941,360.9452 L157.8191,359.3667 L167.9441,359.9433 L178.0691,360.783 L188.1941,360.0927 L198.3191,360.298 L208.4441,360.207 " fill="#222222" style="stroke: #228B22; stroke-width: 3.0;"/><polygon fill="#84BE84" points="59.4607,377.2292,59.0209,377.8301,58.5008,378.7102,57.7569,379.3033,56.9752,379.6276,56.3519,379.6557,55.5508,379.2501,54.795,378.9851,54.2212,378.4471,53.9203,377.8312,53.7418,377.3407,53.567,376.7002,53.2832,376.1489,53.5013,375.6107,53.6923,375.0211,54.4094,374.5548,54.9138,373.9498,55.5382,373.7489,56.2805,373.5759,57.2324,373.6787,57.7538,373.9246,58.3599,374.036,59.097,374.7911,59.3539,375.5883,59.4655,376.1322,59.3391,377.0286" style="stroke: #038048; stroke-width: 1.0;"/><text fill="#A9A9A9" font-family="courier" font-size="15" lengthAdjust="spacingAndGlyphs" textLength="72" x="66.4441" y="380.2876">advise()</text><!--class FormalAdviser--><polygon fill="#222222" points="244.444,297,244.444,297.2102,254.694,296.5857,264.944,297.1933,275.194,297.3997,285.444,296.2866,295.694,296.9223,305.944,296.5735,316.194,296.6165,326.444,296.9318,336.694,296.3086,346.944,297.5536,357.194,296.3697,367.444,296.8022,377.694,297.4319,387.944,296.9142,398.194,297.0682,408.444,297,408.4121,297,408.6225,307.3102,408.6831,317.6204,409.0297,327.9307,409.1151,338.2409,409.1233,348.5511,408.6986,358.8613,408.9076,369.1715,409.1462,379.4818,408.444,389.792,408.444,389.0708,398.194,390.4705,387.944,389.4955,377.694,390.3258,367.444,389.297,357.194,389.7235,346.944,390.5336,336.694,389.7433,326.444,389.8973,316.194,390.1306,305.944,390.2082,295.694,389.7881,285.444,390.0792,275.194,389.2196,264.944,390.0764,254.694,390.3402,244.444,389.792,244.8885,389.792,245.057,379.4818,243.9609,369.1715,243.7918,358.8613,243.8226,348.5511,244.3851,338.2409,244.2475,327.9307,245.1254,317.6204,244.2693,307.3102,244.444,297" style="stroke: #228B22; stroke-width: 3.0;"/><text fill="#228B22" font-family="sans-serif" font-size="12" font-style="italic" lengthAdjust="spacingAndGlyphs" textLength="141" x="255.944" y="315.457">«RedefinedAbstractionB»</text><text fill="#228B22" font-family="courier" font-size="20" font-weight="bold" lengthAdjust="spacingAndGlyphs" textLength="156" x="248.444" y="340.2012">FormalAdviser</text><path d="M245.444,352.207 L245.444,352.4873 L255.569,351.6546 L265.694,352.4647 L275.819,352.7399 L285.944,351.2558 L296.069,352.1034 L306.194,351.6384 L316.319,351.6957 L326.444,352.1162 L336.569,351.2852 L346.694,352.9452 L356.819,351.3667 L366.944,351.9433 L377.069,352.783 L387.194,352.0927 L397.319,352.298 L407.444,352.207 " fill="#222222" style="stroke: #228B22; stroke-width: 3.0;"/><path d="M245.444,360.207 L245.444,360.4873 L255.569,359.6546 L265.694,360.4647 L275.819,360.7399 L285.944,359.2558 L296.069,360.1034 L306.194,359.6384 L316.319,359.6957 L326.444,360.1162 L336.569,359.2852 L346.694,360.9452 L356.819,359.3667 L366.944,359.9433 L377.069,360.783 L387.194,360.0927 L397.319,360.298 L407.444,360.207 " fill="#222222" style="stroke: #228B22; stroke-width: 3.0;"/><polygon fill="#84BE84" points="258.4606,377.2292,258.0208,377.8301,257.5007,378.7102,256.7568,379.3033,255.9751,379.6276,255.3518,379.6557,254.5507,379.2501,253.7949,378.9851,253.2211,378.4471,252.9202,377.8312,252.7417,377.3407,252.5669,376.7002,252.2831,376.1489,252.5012,375.6107,252.6922,375.0211,253.4093,374.5548,253.9137,373.9498,254.5381,373.7489,255.2804,373.5759,256.2323,373.6787,256.7537,373.9246,257.3598,374.036,258.0969,374.7911,258.3538,375.5883,258.4654,376.1322,258.339,377.0286" style="stroke: #038048; stroke-width: 1.0;"/><text fill="#A9A9A9" font-family="courier" font-size="15" lengthAdjust="spacingAndGlyphs" textLength="72" x="265.444" y="380.2876">advise()</text><!--class Scenario--><polygon fill="#222222" points="474.444,8,474.444,8.2102,484.844,7.5857,495.244,8.1933,505.644,8.3997,516.044,7.2866,526.444,7.9223,536.844,7.5735,547.244,7.6165,557.644,7.9318,568.044,7.3086,578.444,8,578.9976,8,577.8137,17.4623,578.2462,26.9246,578.8759,36.3868,578.3582,45.8491,578.5122,55.3114,578.4121,64.7737,578.6225,74.236,578.444,83.6982,578.444,83.9374,568.044,84.2839,557.644,84.3693,547.244,84.3775,536.844,83.9529,526.444,84.1618,516.044,84.4005,505.644,82.9771,495.244,84.3768,484.844,83.4017,474.444,83.6982,474.9778,83.6982,473.949,74.236,474.3755,64.7737,475.1856,55.3114,474.3953,45.8491,474.5493,36.3868,474.7826,26.9246,474.8602,17.4623,474.444,8" style="stroke: #228B22; stroke-width: 3.0;"/><text fill="#228B22" font-family="courier" font-size="20" font-weight="bold" lengthAdjust="spacingAndGlyphs" textLength="96" x="478.444" y="34.1074">Scenario</text><path d="M475.444,46.1133 L475.444,46.3935 L485.644,45.5609 L495.844,46.371 L506.044,46.6462 L516.244,45.1621 L526.444,46.0097 L536.644,45.5446 L546.844,45.6019 L557.044,46.0224 L567.244,45.1915 L577.444,46.1133 " fill="#222222" style="stroke: #228B22; stroke-width: 3.0;"/><path d="M475.444,54.1133 L475.444,54.3935 L485.644,53.5609 L495.844,54.371 L506.044,54.6462 L516.244,53.1621 L526.444,54.0097 L536.644,53.5446 L546.844,53.6019 L557.044,54.0224 L567.244,53.1915 L577.444,54.1133 " fill="#222222" style="stroke: #228B22; stroke-width: 3.0;"/><polygon fill="#84BE84" points="488.4606,71.1355,488.0208,71.7363,487.5007,72.6164,486.7568,73.2095,485.9751,73.5338,485.3518,73.562,484.5507,73.1564,483.7949,72.8914,483.2211,72.3534,482.9202,71.7374,482.7417,71.247,482.5669,70.6064,482.2831,70.0552,482.5012,69.5169,482.6922,68.9274,483.4093,68.4611,483.9137,67.8561,484.5381,67.6552,485.2804,67.4821,486.2323,67.5849,486.7537,67.8308,487.3598,67.9423,488.0969,68.6974,488.3538,69.4946,488.4654,70.0385,488.339,70.9348" style="stroke: #038048; stroke-width: 1.0;"/><text fill="#A9A9A9" font-family="courier" font-size="15" lengthAdjust="spacingAndGlyphs" textLength="54" x="495.444" y="74.1938">main()</text><!--class Adviser--><polygon fill="#222222" points="338.444,144,338.444,144.2102,348.444,143.5857,358.444,144.1933,368.444,144.3997,378.444,143.2866,388.444,143.9223,398.444,143.5735,408.444,143.6165,418.444,143.9318,428.444,143.3086,438.444,144,438.9976,144,437.8137,154.3102,438.2462,164.6204,438.8759,174.9307,438.3582,185.2409,438.5122,195.5511,438.4121,205.8613,438.6225,216.1715,438.6831,226.4818,438.444,236.792,438.444,237.3777,428.444,237.463,418.444,237.4712,408.444,237.0466,398.444,237.2556,388.444,237.4942,378.444,236.0708,368.444,237.4705,358.444,236.4955,348.444,237.3258,338.444,236.792,337.949,236.792,338.3755,226.4818,339.1856,216.1715,338.3953,205.8613,338.5493,195.5511,338.7826,185.2409,338.8602,174.9307,338.4401,164.6204,338.7312,154.3102,338.444,144" style="stroke: #228B22; stroke-width: 3.0;"/><text fill="#228B22" font-family="sans-serif" font-size="12" font-style="italic" lengthAdjust="spacingAndGlyphs" textLength="76" x="350.444" y="162.457">«Abstraction»</text><text fill="#228B22" font-family="courier" font-size="20" font-weight="bold" lengthAdjust="spacingAndGlyphs" textLength="84" x="346.444" y="187.2012">Adviser</text><path d="M339.444,199.207 L339.444,199.4873 L349.244,198.6546 L359.044,199.4647 L368.844,199.7399 L378.644,198.2558 L388.444,199.1034 L398.244,198.6384 L408.044,198.6957 L417.844,199.1162 L427.644,198.2852 L437.444,199.207 " fill="#222222" style="stroke: #228B22; stroke-width: 3.0;"/><path d="M339.444,207.207 L339.444,207.4873 L349.244,206.6546 L359.044,207.4647 L368.844,207.7399 L378.644,206.2558 L388.444,207.1034 L398.244,206.6384 L408.044,206.6957 L417.844,207.1162 L427.644,206.2852 L437.444,207.207 " fill="#222222" style="stroke: #228B22; stroke-width: 3.0;"/><polygon fill="#84BE84" points="352.4606,224.2292,352.0208,224.8301,351.5007,225.7102,350.7568,226.3033,349.9751,226.6276,349.3518,226.6557,348.5507,226.2501,347.7949,225.9851,347.2211,225.4471,346.9202,224.8312,346.7417,224.3407,346.5669,223.7002,346.2831,223.1489,346.5012,222.6107,346.6922,222.0211,347.4093,221.5548,347.9137,220.9498,348.5381,220.7489,349.2804,220.5759,350.2323,220.6787,350.7537,220.9246,351.3598,221.036,352.0969,221.7911,352.3538,222.5883,352.4654,223.1322,352.339,224.0286" style="stroke: #038048; stroke-width: 1.0;"/><text fill="#A9A9A9" font-family="courier" font-size="15" lengthAdjust="spacingAndGlyphs" textLength="72" x="359.444" y="227.2876">advise()</text><path d="M39.9441,158.5 L39.9441,222.7266 A0,0 0 0 0 39.9441,222.7266 L302.9441,222.7266 A0,0 0 0 0 302.9441,222.7266 L302.9441,194.5 L338.196,190.5 L302.9441,186.5 L302.9441,168.5 L292.9441,158.5 L39.9441,158.5 A0,0 0 0 0 39.9441,158.5 " fill="#222222" style="stroke: #A9A9A9; stroke-width: 3.0;"/><path d="M292.9441,158.5 L293.1309,158.5 L292.5758,160.5 L293.1159,162.5 L293.2994,164.5 L292.31,166.5 L292.9441,168.5 L292.9441,168.4309 L294.9441,168.1209 L296.9441,168.1591 L298.9441,168.4394 L300.9441,167.8854 L302.9441,168.5 L303.2921,168.848 L300.5479,166.1038 L298.8198,164.3757 L297.2156,162.7715 L294.8902,160.4461 L292.9441,158.5 " fill="#222222" style="stroke: #A9A9A9; stroke-width: 3.0;"/><text fill="#A9A9A9" font-family="courier" font-size="20" lengthAdjust="spacingAndGlyphs" textLength="204" x="46.9441" y="184.6074">public advise() {</text><text fill="#A9A9A9" font-family="courier" font-size="20" lengthAdjust="spacingAndGlyphs" textLength="216" x="70.9441" y="210.7207">analyst.analyze();</text><!--class Analyst--><polygon fill="#222222" points="686.944,144,686.944,144.2102,696.8531,143.5857,706.7622,144.1933,716.6713,144.3997,726.5804,143.2866,736.4895,143.9223,746.3985,143.5735,756.3076,143.6165,766.2167,143.9318,776.1258,143.3086,786.0349,144.5536,795.944,144,795.3137,144,795.7462,154.3102,796.3759,164.6204,795.8582,174.9307,796.0122,185.2409,795.9121,195.5511,796.1225,205.8613,796.1831,216.1715,796.5297,226.4818,795.944,236.792,795.944,237.463,786.0349,237.4712,776.1258,237.0466,766.2167,237.2556,756.3076,237.4942,746.3985,236.0708,736.4895,237.4705,726.5804,236.4955,716.6713,237.3258,706.7622,236.297,696.8531,236.7235,686.944,236.792,687.6856,236.792,686.8953,226.4818,687.0493,216.1715,687.2826,205.8613,687.3602,195.5511,686.9401,185.2409,687.2312,174.9307,686.3716,164.6204,687.2284,154.3102,686.944,144" style="stroke: #228B22; stroke-width: 3.0;"/><text fill="#228B22" font-family="sans-serif" font-size="12" font-style="italic" lengthAdjust="spacingAndGlyphs" textLength="101" x="690.944" y="162.457">«Implementation»</text><text fill="#228B22" font-family="courier" font-size="20" font-weight="bold" lengthAdjust="spacingAndGlyphs" textLength="84" x="699.444" y="187.2012">Analyst</text><path d="M687.944,199.207 L687.944,199.4873 L697.6713,198.6546 L707.3985,199.4647 L717.1258,199.7399 L726.8531,198.2558 L736.5804,199.1034 L746.3076,198.6384 L756.0349,198.6957 L765.7622,199.1162 L775.4895,198.2852 L785.2167,199.9452 L794.944,199.207 " fill="#222222" style="stroke: #228B22; stroke-width: 3.0;"/><path d="M687.944,207.207 L687.944,207.4873 L697.6713,206.6546 L707.3985,207.4647 L717.1258,207.7399 L726.8531,206.2558 L736.5804,207.1034 L746.3076,206.6384 L756.0349,206.6957 L765.7622,207.1162 L775.4895,206.2852 L785.2167,207.9452 L794.944,207.207 " fill="#222222" style="stroke: #228B22; stroke-width: 3.0;"/><polygon fill="#84BE84" points="700.9606,224.2292,700.5208,224.8301,700.0007,225.7102,699.2568,226.3033,698.4751,226.6276,697.8518,226.6557,697.0507,226.2501,696.2949,225.9851,695.7211,225.4471,695.4202,224.8312,695.2417,224.3407,695.0669,223.7002,694.7831,223.1489,695.0012,222.6107,695.1922,222.0211,695.9093,221.5548,696.4137,220.9498,697.0381,220.7489,697.7804,220.5759,698.7323,220.6787,699.2537,220.9246,699.8598,221.036,700.5969,221.7911,700.8538,222.5883,700.9654,223.1322,700.839,224.0286" style="stroke: #038048; stroke-width: 1.0;"/><text fill="#A9A9A9" font-family="courier" font-size="15" lengthAdjust="spacingAndGlyphs" textLength="81" x="707.944" y="227.2876">analyze()</text><!--class FinancialAnalyst--><polygon fill="#222222" points="443.444,297,443.444,297.2102,453.444,296.5857,463.444,297.1933,473.444,297.3997,483.444,296.2866,493.444,296.9223,503.444,296.5735,513.444,296.6165,523.444,296.9318,533.444,296.3086,543.444,297.5536,553.444,296.3697,563.444,296.8022,573.444,297.4319,583.444,296.9142,593.444,297.0682,603.444,296.9681,613.444,297.1785,623.444,297.2391,633.444,297.5857,643.444,297,644.1151,297,644.1233,307.3102,643.6986,317.6204,643.9076,327.9307,644.1462,338.2409,642.7228,348.5511,644.1225,358.8613,643.1475,369.1715,643.9778,379.4818,643.444,389.792,643.444,389.297,633.444,389.7235,623.444,390.5336,613.444,389.7433,603.444,389.8973,593.444,390.1306,583.444,390.2082,573.444,389.7881,563.444,390.0792,553.444,389.2196,543.444,390.0764,533.444,390.3402,523.444,390.2365,513.444,390.405,503.444,389.3089,493.444,389.1398,483.444,389.1706,473.444,389.7331,463.444,389.5955,453.444,390.4734,443.444,389.792,443.2693,389.792,443.1009,379.4818,443.6723,369.1715,442.7772,358.8613,442.9249,348.5511,444.093,338.2409,443.8797,327.9307,444.1785,317.6204,443.1222,307.3102,443.444,297" style="stroke: #228B22; stroke-width: 3.0;"/><text fill="#228B22" font-family="sans-serif" font-size="12" font-style="italic" lengthAdjust="spacingAndGlyphs" textLength="159" x="463.944" y="315.457">«ConcreteImplementationA»</text><text fill="#228B22" font-family="courier" font-size="20" font-weight="bold" lengthAdjust="spacingAndGlyphs" textLength="192" x="447.444" y="340.2012">FinancialAnalyst</text><path d="M444.444,352.207 L444.444,352.4873 L454.344,351.6546 L464.244,352.4647 L474.144,352.7399 L484.044,351.2558 L493.944,352.1034 L503.844,351.6384 L513.744,351.6957 L523.644,352.1162 L533.544,351.2852 L543.444,352.9452 L553.344,351.3667 L563.244,351.9433 L573.144,352.783 L583.044,352.0927 L592.944,352.298 L602.844,352.1644 L612.744,352.4451 L622.644,352.5259 L632.544,352.988 L642.444,352.207 " fill="#222222" style="stroke: #228B22; stroke-width: 3.0;"/><path d="M444.444,360.207 L444.444,360.4873 L454.344,359.6546 L464.244,360.4647 L474.144,360.7399 L484.044,359.2558 L493.944,360.1034 L503.844,359.6384 L513.744,359.6957 L523.644,360.1162 L533.544,359.2852 L543.444,360.9452 L553.344,359.3667 L563.244,359.9433 L573.144,360.783 L583.044,360.0927 L592.944,360.298 L602.844,360.1644 L612.744,360.4451 L622.644,360.5259 L632.544,360.988 L642.444,360.207 " fill="#222222" style="stroke: #228B22; stroke-width: 3.0;"/><polygon fill="#84BE84" points="457.4606,377.2292,457.0208,377.8301,456.5007,378.7102,455.7568,379.3033,454.9751,379.6276,454.3518,379.6557,453.5507,379.2501,452.7949,378.9851,452.2211,378.4471,451.9202,377.8312,451.7417,377.3407,451.5669,376.7002,451.2831,376.1489,451.5012,375.6107,451.6922,375.0211,452.4093,374.5548,452.9137,373.9498,453.5381,373.7489,454.2804,373.5759,455.2323,373.6787,455.7537,373.9246,456.3598,374.036,457.0969,374.7911,457.3538,375.5883,457.4654,376.1322,457.339,377.0286" style="stroke: #038048; stroke-width: 1.0;"/><text fill="#A9A9A9" font-family="courier" font-size="15" lengthAdjust="spacingAndGlyphs" textLength="81" x="464.444" y="380.2876">analyze()</text><!--class TaxAnalyst--><polygon fill="#222222" points="678.944,297,678.944,297.2102,689.1315,296.5857,699.319,297.1933,709.5065,297.3997,719.694,296.2866,729.8815,296.9223,740.069,296.5735,750.2565,296.6165,760.444,296.9318,770.6315,296.3086,780.819,297.5536,791.0065,296.3697,801.194,296.8022,811.3815,297.4319,821.569,296.9142,831.7565,297.0682,841.944,297,841.9121,297,842.1225,307.3102,842.1831,317.6204,842.5297,327.9307,842.6151,338.2409,842.6233,348.5511,842.1986,358.8613,842.4076,369.1715,842.6462,379.4818,841.944,389.792,841.944,389.0708,831.7565,390.4705,821.569,389.4955,811.3815,390.3258,801.194,389.297,791.0065,389.7235,780.819,390.5336,770.6315,389.7433,760.444,389.8973,750.2565,390.1306,740.069,390.2082,729.8815,389.7881,719.694,390.0792,709.5065,389.2196,699.319,390.0764,689.1315,390.3402,678.944,389.792,679.3885,389.792,679.557,379.4818,678.4609,369.1715,678.2918,358.8613,678.3226,348.5511,678.8851,338.2409,678.7475,327.9307,679.6254,317.6204,678.7693,307.3102,678.944,297" style="stroke: #228B22; stroke-width: 3.0;"/><text fill="#228B22" font-family="sans-serif" font-size="12" font-style="italic" lengthAdjust="spacingAndGlyphs" textLength="159" x="680.944" y="315.457">«ConcreteImplementationB»</text><text fill="#228B22" font-family="courier" font-size="20" font-weight="bold" lengthAdjust="spacingAndGlyphs" textLength="120" x="700.444" y="340.2012">TaxAnalyst</text><path d="M679.944,352.207 L679.944,352.4873 L690.0065,351.6546 L700.069,352.4647 L710.1315,352.7399 L720.194,351.2558 L730.2565,352.1034 L740.319,351.6384 L750.3815,351.6957 L760.444,352.1162 L770.5065,351.2852 L780.569,352.9452 L790.6315,351.3667 L800.694,351.9433 L810.7565,352.783 L820.819,352.0927 L830.8815,352.298 L840.944,352.207 " fill="#222222" style="stroke: #228B22; stroke-width: 3.0;"/><path d="M679.944,360.207 L679.944,360.4873 L690.0065,359.6546 L700.069,360.4647 L710.1315,360.7399 L720.194,359.2558 L730.2565,360.1034 L740.319,359.6384 L750.3815,359.6957 L760.444,360.1162 L770.5065,359.2852 L780.569,360.9452 L790.6315,359.3667 L800.694,359.9433 L810.7565,360.783 L820.819,360.0927 L830.8815,360.298 L840.944,360.207 " fill="#222222" style="stroke: #228B22; stroke-width: 3.0;"/><polygon fill="#84BE84" points="692.9606,377.2292,692.5208,377.8301,692.0007,378.7102,691.2568,379.3033,690.4751,379.6276,689.8518,379.6557,689.0507,379.2501,688.2949,378.9851,687.7211,378.4471,687.4202,377.8312,687.2417,377.3407,687.0669,376.7002,686.7831,376.1489,687.0012,375.6107,687.1922,375.0211,687.9093,374.5548,688.4137,373.9498,689.0381,373.7489,689.7804,373.5759,690.7323,373.6787,691.2537,373.9246,691.8598,374.036,692.5969,374.7911,692.8538,375.5883,692.9654,376.1322,692.839,377.0286" style="stroke: #038048; stroke-width: 1.0;"/><text fill="#A9A9A9" font-family="courier" font-size="15" lengthAdjust="spacingAndGlyphs" textLength="81" x="699.944" y="380.2876">analyze()</text><!--class LegalAnalyst--><polygon fill="#222222" points="877.444,297,877.444,297.2102,887.694,296.5857,897.944,297.1933,908.194,297.3997,918.444,296.2866,928.694,296.9223,938.944,296.5735,949.194,296.6165,959.444,296.9318,969.694,296.3086,979.944,297.5536,990.194,296.3697,1000.444,296.8022,1010.694,297.4319,1020.944,296.9142,1031.194,297.0682,1041.444,297,1041.4121,297,1041.6225,307.3102,1041.6831,317.6204,1042.0297,327.9307,1042.1151,338.2409,1042.1233,348.5511,1041.6986,358.8613,1041.9076,369.1715,1042.1462,379.4818,1041.444,389.792,1041.444,389.0708,1031.194,390.4705,1020.944,389.4955,1010.694,390.3258,1000.444,389.297,990.194,389.7235,979.944,390.5336,969.694,389.7433,959.444,389.8973,949.194,390.1306,938.944,390.2082,928.694,389.7881,918.444,390.0792,908.194,389.2196,897.944,390.0764,887.694,390.3402,877.444,389.792,877.8885,389.792,878.057,379.4818,876.9609,369.1715,876.7918,358.8613,876.8226,348.5511,877.3851,338.2409,877.2475,327.9307,878.1254,317.6204,877.2693,307.3102,877.444,297" style="stroke: #228B22; stroke-width: 3.0;"/><text fill="#228B22" font-family="sans-serif" font-size="12" font-style="italic" lengthAdjust="spacingAndGlyphs" textLength="160" x="879.444" y="315.457">«ConcreteImplementationC»</text><text fill="#228B22" font-family="courier" font-size="20" font-weight="bold" lengthAdjust="spacingAndGlyphs" textLength="144" x="887.444" y="340.2012">LegalAnalyst</text><path d="M878.444,352.207 L878.444,352.4873 L888.569,351.6546 L898.694,352.4647 L908.819,352.7399 L918.944,351.2558 L929.069,352.1034 L939.194,351.6384 L949.319,351.6957 L959.444,352.1162 L969.569,351.2852 L979.694,352.9452 L989.819,351.3667 L999.944,351.9433 L1010.069,352.783 L1020.194,352.0927 L1030.319,352.298 L1040.444,352.207 " fill="#222222" style="stroke: #228B22; stroke-width: 3.0;"/><path d="M878.444,360.207 L878.444,360.4873 L888.569,359.6546 L898.694,360.4647 L908.819,360.7399 L918.944,359.2558 L929.069,360.1034 L939.194,359.6384 L949.319,359.6957 L959.444,360.1162 L969.569,359.2852 L979.694,360.9452 L989.819,359.3667 L999.944,359.9433 L1010.069,360.783 L1020.194,360.0927 L1030.319,360.298 L1040.444,360.207 " fill="#222222" style="stroke: #228B22; stroke-width: 3.0;"/><polygon fill="#84BE84" points="891.4606,377.2292,891.0208,377.8301,890.5007,378.7102,889.7568,379.3033,888.9751,379.6276,888.3518,379.6557,887.5507,379.2501,886.7949,378.9851,886.2211,378.4471,885.9202,377.8312,885.7417,377.3407,885.5669,376.7002,885.2831,376.1489,885.5012,375.6107,885.6922,375.0211,886.4093,374.5548,886.9137,373.9498,887.5381,373.7489,888.2804,373.5759,889.2323,373.6787,889.7537,373.9246,890.3598,374.036,891.0969,374.7911,891.3538,375.5883,891.4654,376.1322,891.339,377.0286" style="stroke: #038048; stroke-width: 1.0;"/><text fill="#A9A9A9" font-family="courier" font-size="15" lengthAdjust="spacingAndGlyphs" textLength="81" x="898.444" y="380.2876">analyze()</text><!--class EconomyMinistry--><polygon fill="#222222" points="449.444,450,449.444,450.2102,459.3387,449.5857,469.2335,450.1933,479.1282,450.3997,489.0229,449.2866,498.9177,449.9223,508.8124,449.5735,518.7072,449.6165,528.6019,449.9318,538.4966,449.3086,548.3914,450.5536,558.2861,449.3697,568.1808,449.8022,578.0756,450.4319,587.9703,449.9142,597.8651,450.0682,607.7598,449.9681,617.6545,450.1785,627.5493,450.2391,637.444,450,638.0297,450,638.1151,460.8227,638.1233,471.6453,637.6986,482.468,637.9076,493.2906,637.444,504.1133,637.444,504.8155,627.5493,503.3921,617.6545,504.7918,607.7598,503.8168,597.8651,504.6471,587.9703,503.6183,578.0756,504.0448,568.1808,504.8549,558.2861,504.0645,548.3914,504.2186,538.4966,504.4519,528.6019,504.5295,518.7072,504.1094,508.8124,504.4005,498.9177,503.5409,489.0229,504.3977,479.1282,504.6615,469.2335,504.5578,459.3387,504.7263,449.444,504.1133,448.9609,504.1133,448.7918,493.2906,448.8226,482.468,449.3851,471.6453,449.2475,460.8227,449.444,450" style="stroke: #228B22; stroke-width: 3.0;"/><text fill="#228B22" font-family="courier" font-size="20" font-weight="bold" lengthAdjust="spacingAndGlyphs" textLength="180" x="453.444" y="476.1074">EconomyMinistry</text><path d="M450.444,488.1133 L450.444,488.3935 L460.2335,487.5609 L470.0229,488.371 L479.8124,488.6462 L489.6019,487.1621 L499.3914,488.0097 L509.1808,487.5446 L518.9703,487.6019 L528.7598,488.0224 L538.5493,487.1915 L548.3387,488.8515 L558.1282,487.2729 L567.9177,487.8496 L577.7072,488.6892 L587.4966,487.9989 L597.2861,488.2043 L607.0756,488.0707 L616.8651,488.3513 L626.6545,488.4321 L636.444,488.1133 " fill="#222222" style="stroke: #228B22; stroke-width: 3.0;"/><path d="M450.444,496.1133 L450.444,496.3935 L460.2335,495.5609 L470.0229,496.371 L479.8124,496.6462 L489.6019,495.1621 L499.3914,496.0097 L509.1808,495.5446 L518.9703,495.6019 L528.7598,496.0224 L538.5493,495.1915 L548.3387,496.8515 L558.1282,495.2729 L567.9177,495.8496 L577.7072,496.6892 L587.4966,495.9989 L597.2861,496.2043 L607.0756,496.0707 L616.8651,496.3513 L626.6545,496.4321 L636.444,496.1133 " fill="#222222" style="stroke: #228B22; stroke-width: 3.0;"/><!--class TaxMinistry--><polygon fill="#222222" points="690.444,450,690.444,450.2102,700.444,449.5857,710.444,450.1933,720.444,450.3997,730.444,449.2866,740.444,449.9223,750.444,449.5735,760.444,449.6165,770.444,449.9318,780.444,449.3086,790.444,450.5536,800.444,449.3697,810.444,449.8022,820.444,450.4319,830.444,450,830.3582,450,830.5122,460.8227,830.4121,471.6453,830.6225,482.468,830.6831,493.2906,830.444,504.1133,830.444,504.699,820.444,504.7843,810.444,504.7925,800.444,504.3679,790.444,504.5769,780.444,504.8155,770.444,503.3921,760.444,504.7918,750.444,503.8168,740.444,504.6471,730.444,503.6183,720.444,504.0448,710.444,504.8549,700.444,504.0645,690.444,504.1133,690.5493,504.1133,690.7826,493.2906,690.8602,482.468,690.4401,471.6453,690.7312,460.8227,690.444,450" style="stroke: #228B22; stroke-width: 3.0;"/><text fill="#228B22" font-family="courier" font-size="20" font-weight="bold" lengthAdjust="spacingAndGlyphs" textLength="132" x="694.444" y="476.1074">TaxMinistry</text><path d="M691.444,488.1133 L691.444,488.3935 L701.3011,487.5609 L711.1583,488.371 L721.0154,488.6462 L730.8726,487.1621 L740.7297,488.0097 L750.5869,487.5446 L760.444,487.6019 L770.3011,488.0224 L780.1583,487.1915 L790.0154,488.8515 L799.8726,487.2729 L809.7297,487.8496 L819.5869,488.6892 L829.444,488.1133 " fill="#222222" style="stroke: #228B22; stroke-width: 3.0;"/><path d="M691.444,496.1133 L691.444,496.3935 L701.3011,495.5609 L711.1583,496.371 L721.0154,496.6462 L730.8726,495.1621 L740.7297,496.0097 L750.5869,495.5446 L760.444,495.6019 L770.3011,496.0224 L780.1583,495.1915 L790.0154,496.8515 L799.8726,495.2729 L809.7297,495.8496 L819.5869,496.6892 L829.444,496.1133 " fill="#222222" style="stroke: #228B22; stroke-width: 3.0;"/><!--class LawMinistry--><polygon fill="#222222" points="889.444,450,889.444,450.2102,899.444,449.5857,909.444,450.1933,919.444,450.3997,929.444,449.2866,939.444,449.9223,949.444,449.5735,959.444,449.6165,969.444,449.9318,979.444,449.3086,989.444,450.5536,999.444,449.3697,1009.444,449.8022,1019.444,450.4319,1029.444,450,1029.3582,450,1029.5122,460.8227,1029.4121,471.6453,1029.6225,482.468,1029.6831,493.2906,1029.444,504.1133,1029.444,504.699,1019.444,504.7843,1009.444,504.7925,999.444,504.3679,989.444,504.5769,979.444,504.8155,969.444,503.3921,959.444,504.7918,949.444,503.8168,939.444,504.6471,929.444,503.6183,919.444,504.0448,909.444,504.8549,899.444,504.0645,889.444,504.1133,889.5493,504.1133,889.7826,493.2906,889.8602,482.468,889.4401,471.6453,889.7312,460.8227,889.444,450" style="stroke: #228B22; stroke-width: 3.0;"/><text fill="#228B22" font-family="courier" font-size="20" font-weight="bold" lengthAdjust="spacingAndGlyphs" textLength="132" x="893.444" y="476.1074">LawMinistry</text><path d="M890.444,488.1133 L890.444,488.3935 L900.3011,487.5609 L910.1583,488.371 L920.0154,488.6462 L929.8726,487.1621 L939.7297,488.0097 L949.5869,487.5446 L959.444,487.6019 L969.3011,488.0224 L979.1583,487.1915 L989.0154,488.8515 L998.8726,487.2729 L1008.7297,487.8496 L1018.5869,488.6892 L1028.444,488.1133 " fill="#222222" style="stroke: #228B22; stroke-width: 3.0;"/><path d="M890.444,496.1133 L890.444,496.3935 L900.3011,495.5609 L910.1583,496.371 L920.0154,496.6462 L929.8726,495.1621 L939.7297,496.0097 L949.5869,495.5446 L959.444,495.6019 L969.3011,496.0224 L979.1583,495.1915 L989.0154,496.8515 L998.8726,495.2729 L1008.7297,495.8496 L1018.5869,496.6892 L1028.444,496.1133 " fill="#222222" style="stroke: #228B22; stroke-width: 3.0;"/><!--link Scenario to CasualAdviser--><path d="M474.109,48.968 L474.1139,49.0613 L469.3489,49.0311 L464.6124,49.5478 L459.8666,49.8865 L455.0903,49.6395 L450.3563,50.2031 L450.3542,50.1686 L444.954,50.3404 L439.5643,50.6859 L434.1819,51.1522 L428.7744,51.2022 L423.4021,51.8353 L423.4194,52.0808 L417.463,51.9716 L411.557,52.5791 L405.6571,53.274 L399.7215,53.4602 L393.8047,53.914 L393.8072,53.9442 L387.467,54.4147 L381.1381,55.0228 L374.8038,55.5645 L368.4797,56.2329 L362.1221,56.4884 L362.15,56.7853 L355.5084,57.4128 L348.8488,57.8488 L342.2156,58.5652 L335.5836,59.2946 L328.9125,59.6078 L328.8779,59.2891 L322.1094,60.6504 L315.2268,60.9623 L308.431,62.0719 L301.5459,62.3601 L294.7339,63.3216 L294.7303,63.2914 L291.318,64.0679 L287.8201,64.1382 L284.3727,64.6252 L280.9295,65.1472 L277.4557,65.4168 L277.4797,65.6003 L273.9933,65.8676 L270.5478,66.4483 L267.0361,66.5219 L263.6232,67.352 L260.1446,67.6791 L260.1786,67.9204 L256.7173,68.3619 L253.2729,68.9231 L249.75,68.9278 L246.2847,69.3405 L242.8703,70.1147 L242.8287,69.8416 L239.4328,70.6118 L235.99,71.0743 L232.6153,71.983 L229.1244,72.1299 L225.7026,72.7296 L225.6778,72.5792 L222.3208,73.3898 L218.8578,73.5574 L215.4702,74.1823 L212.1564,75.2546 L208.7112,75.5302 L208.7453,75.7208 L205.4196,76.45 L201.988,76.5863 L198.689,77.4652 L195.3612,78.1823 L191.966,78.5225 L191.9259,78.3164 L188.672,79.1187 L185.4049,79.8535 L182.1636,80.7209 L178.8221,81.0728 L175.5366,81.7127 L175.5792,81.9138 L172.2769,82.1507 L169.0568,82.7759 L165.9567,83.9682 L162.6357,84.1163 L159.4929,85.1069 L159.5439,85.3273 L156.396,85.9173 L153.2308,86.4327 L150.1045,87.1165 L147.0682,88.1892 L143.9047,88.7115 L143.8719,88.5825 L140.9567,89.7306 L137.819,90.0017 L134.9343,91.27 L131.9071,91.9768 L128.8416,92.5324 L128.8709,92.6372 L125.9536,93.3613 L123.1412,94.4608 L120.2341,95.2211 L117.2873,95.8396 L114.3734,96.5759 L114.4087,96.6897 L111.5956,97.375 L108.9462,98.5889 L106.1117,99.2049 L103.3534,100.0669 L100.57,100.8481 L100.4819,100.5925 L97.8975,101.5792 L95.4193,102.8739 L92.7909,103.7329 L90.1086,104.4357 L87.5011,105.3552 L87.4494,105.2217 L85.013,106.2141 L82.4851,106.9701 L80.2088,108.376 L77.808,109.4603 L75.2364,110.1034 L75.3303,110.3176 L73.0823,111.3853 L70.6557,112.0459 L68.4175,113.1361 L66.0546,113.9419 L63.8457,115.0988 L63.9023,115.2116 L61.8055,116.2465 L59.7771,117.4177 L57.5317,118.1569 L55.4613,119.2445 L53.3987,120.3476 L53.4981,120.5178 L51.6392,121.667 L49.5105,122.3542 L47.6953,123.5782 L45.8855,124.8116 L43.9654,125.8559 L43.8109,125.6326 L42.3847,127.1399 L40.6905,128.2599 L38.9298,129.2836 L37.3213,130.5272 L35.6153,131.63 L35.837,131.8661 L32.8859,134.0027 L30.4426,136.6801 L27.7995,139.1446 L25.1136,141.5635 L22.4441,144 L22.4952,144.0362 L20.8445,146.3449 L18.9362,148.4712 L17.3764,150.8444 L15.7137,153.1446 L14.2403,155.5789 L14.266,155.5909 L13.2522,157.8003 L12.2582,160.0189 L11.0521,162.1391 L10.1185,164.3858 L9.1221,166.6033 L9.0699,166.5916 L8.8916,168.8099 L8.3458,170.9461 L7.4695,173.0084 L7.1678,175.1991 L6.7187,177.3569 L6.4622,177.3554 L6.835,179.5109 L6.9654,181.6651 L6.9251,183.8183 L6.4776,185.9692 L6.6593,188.1236 L6.8625,188.1588 L6.7167,190.2801 L7.5124,192.5643 L7.6764,194.7392 L8.2326,196.982 L8.5729,199.1874 L8.6752,199.2183 L9.477,201.577 L9.673,203.7528 L10.8848,206.2354 L11.4615,208.5261 L12.0889,210.8322 L12.2365,210.8882 L13.3491,213.452 L13.9901,215.8369 L15.0101,218.3655 L15.9754,220.8735 L16.8362,223.3417 L16.9173,223.375 L17.9574,226.0732 L19.3716,228.925 L19.9503,231.4338 L21.5549,234.3638 L22.4441,237 L22.1957,236.8766 L23.7707,239.9948 L25.5433,243.2113 L27.0802,246.3107 L28.4144,249.3093 L30.1522,252.5085 L30.3057,252.6097 L32.1209,255.4638 L34.2786,258.5434 L36.1849,261.4575 L37.6992,264.1135 L39.794,267.1518 L39.6564,267.0406 L41.9594,269.8497 L44.337,272.7191 L46.5635,275.4664 L48.7384,278.172 L50.8444,280.8218 L50.7341,280.7173 L53.4365,283.5342 L55.8224,286.0513 L57.9896,288.3609 L60.3145,290.8201 L62.7784,293.411 " fill="none" style="stroke: #A9A9A9; stroke-width: 2.0; stroke-dasharray: 7.0,7.0;"/><polygon fill="#A9A9A9" points="66.4833,296.991,66.5482,297.0173,65.6166,295.1132,65.0657,293.3631,64.3909,291.5629,63.3083,289.5977,62.7901,287.8608,62.7642,287.8604,62.6674,288.9896,62.7012,290.121,62.8258,291.2541,62.6375,292.3817,62.8874,293.5168,62.8906,293.7014,61.7526,293.3263,60.6239,293.4899,59.4963,293.7192,58.3621,293.5662,57.2314,293.6142,57.2392,293.6356,59.0781,294.2796,60.9526,295.0208,62.8099,295.7152,64.6999,296.499,66.4833,296.991" style="stroke: #A9A9A9; stroke-width: 2.0;"/><!--link Adviser to CasualAdviser--><path d="M319.346,235.443 L319.37,235.5333 L316.3347,236.0533 L313.4402,237.1026 L310.4998,237.9796 L307.4087,238.2898 L304.5263,239.3845 L304.5205,239.3505 L301.9132,239.6326 L299.3348,240.0865 L296.7766,240.6598 L294.149,240.8217 L291.6185,241.5597 L291.6407,241.8048 L289.2944,241.4893 L287.0131,241.8892 L284.7396,242.3764 L282.4201,242.3558 L280.1248,242.6022 L280.1263,242.6325 L278.0086,242.6967 L275.8979,242.8988 L273.7838,243.0344 L271.6762,243.2969 L269.5474,243.1456 L269.5672,243.4432 L267.5357,243.5824 L265.4913,243.5297 L263.4657,243.7579 L261.441,243.9993 L259.3884,243.8235 L259.3436,243.5061 L257.3829,244.4113 L255.2747,244.2714 L253.2786,244.926 L251.167,244.7624 L249.1501,245.2695 L249.1423,245.24 L247.0709,246.1577 L244.8184,246.3876 L242.6727,247.0233 L240.536,247.6931 L238.3345,248.1171 L238.4048,248.2882 L235.9558,249.0921 L233.6268,250.1883 L231.1036,250.8115 L228.8701,252.1403 L226.444,253 L226.5632,253.2125 L223.3145,254.9816 L220.125,256.8563 L216.6606,258.2407 L213.3977,259.9845 L210.3134,262.0466 L210.1551,261.8203 L207.2188,264.1791 L204.1041,266.283 L201.2481,268.7567 L197.9505,270.5989 L194.9154,272.8165 L194.8186,272.6987 L192.0957,275.2625 L188.9593,277.3226 L186.1169,279.7409 L183.5622,282.5098 L180.4952,284.6544 L180.6269,284.7963 L178.0779,287.3438 L175.119,289.4498 L172.6734,292.1087 L170.116,294.6472 L167.298,296.905 " fill="none" style="stroke: #A9A9A9; stroke-width: 2.0;"/><polygon fill="none" points="316.925,228.875,316.9264,228.945,321.1595,228.6529,325.4007,228.7714,329.6392,228.7562,333.8691,228.3012,338.111,228.455,338.0944,228.4351,334.7602,231.0536,331.5093,233.7727,328.3165,236.5615,324.9237,239.1097,321.811,241.995,321.9839,242.0594,320.6369,239.2977,319.7948,236.724,319.0143,234.1732,317.8754,231.489,316.925,228.875" style="stroke: #A9A9A9; stroke-width: 2.0;"/><!--link Scenario to FormalAdviser--><path d="M520.641,84.257 L520.7324,84.2765 L519.7492,87.5541 L519.3016,90.946 L518.6796,94.3007 L517.4841,97.533 L517.0825,100.9347 L517.049,100.9263 L515.9712,104.5898 L515.0624,108.2957 L514.2709,112.0309 L513.0748,115.6648 L512.4455,119.4407 L512.6823,119.5077 L511.6241,121.3167 L511.2572,123.3211 L510.9746,125.3494 L510.2013,127.239 L509.6861,129.2015 L509.7151,129.2105 L509.058,131.1983 L508.5329,133.2266 L507.9441,135.2354 L507.4768,137.2816 L506.6134,139.206 L506.8962,139.3005 L506.2196,141.3371 L505.3604,143.3127 L504.7684,145.3775 L504.1888,147.4465 L503.2127,149.383 L502.9115,149.2733 L502.7474,151.5419 L501.5916,153.4493 L501.1897,155.6312 L500.0114,157.5304 L499.4695,159.6614 L499.4412,159.6501 L498.9557,161.8449 L497.8093,163.7768 L497.0528,165.8638 L496.3291,167.9639 L495.3692,169.97 L495.5388,170.0438 L494.4732,172.0228 L493.6975,174.128 L492.4528,176.029 L491.9075,178.2346 L490.8973,180.2376 L491.117,180.3428 L490.1038,182.354 L489.1997,184.4174 L487.7886,186.2383 L486.7492,188.237 L486.039,190.3932 L485.7947,190.2644 L484.9641,192.3755 L483.8582,194.3414 L483.1515,196.5179 L481.7631,198.3349 L480.78,200.3656 L480.6483,200.2887 L479.7327,202.3603 L478.2543,204.1033 L477.1761,206.08 L476.4895,208.2854 L475.1056,210.0836 L475.2679,210.1891 L474.1584,212.14 L472.5439,213.7627 L471.5618,215.7964 L470.442,217.7406 L469.0011,219.4761 L468.8314,219.3525 L467.6569,221.2502 L466.4268,223.1074 L465.3059,225.0441 L463.7604,226.6717 L462.4521,228.4719 L462.611,228.6025 L460.8603,230.0213 L459.4163,231.6921 L458.4202,233.7309 L456.5994,235.0921 L455.444,237 L455.5658,237.1906 L452.6741,238.8784 L449.7412,240.5017 L446.9014,242.2705 L444.2765,244.3758 L441.3474,246.005 L441.2938,245.8832 L438.2726,247.6448 L434.8871,248.5781 L431.9158,250.4532 L428.7113,251.798 L425.444,253 L425.5086,253.0877 L422.9117,254.8909 L420.5461,257.0081 L417.9716,258.8416 L415.3098,260.5566 L412.7205,262.3701 L412.7947,262.4633 L410.1638,264.3324 L407.8777,266.6343 L405.2016,268.4467 L402.6859,270.4604 L400.1175,272.408 L399.9427,272.2017 L397.5465,274.3505 L395.3608,276.7477 L392.8772,278.7934 L390.2868,280.713 L387.8445,282.8074 L387.7493,282.7005 L385.4331,284.8257 L382.9482,286.7616 L380.927,289.2178 L378.6764,291.4165 L376.111,293.262 " fill="none" style="stroke: #A9A9A9; stroke-width: 2.0; stroke-dasharray: 7.0,7.0;"/><polygon fill="#A9A9A9" points="372.294,296.764,372.3163,296.8304,374.1172,296.0057,376.0489,295.5704,377.938,295.0083,379.6871,294.0292,381.63,293.6273,381.6289,293.6014,380.4936,293.4366,379.3639,293.4022,378.2381,293.4586,377.0988,293.2023,375.9784,293.3839,376.1628,293.3918,375.8172,292.2445,376.0099,291.1204,376.2683,289.9991,376.1446,288.8614,376.2218,287.7323,376.2427,287.7413,375.4265,289.5344,374.7053,291.3687,373.9382,293.1831,373.2586,295.0355,372.294,296.764" style="stroke: #A9A9A9; stroke-width: 2.0;"/><!--link Adviser to FormalAdviser--><path d="M361.912,256.118 L361.9984,256.1535 L358.3895,264.2127 L355.2871,272.4798 L352.0197,280.6793 L348.2099,288.656 L345.151,296.941 " fill="none" style="stroke: #A9A9A9; stroke-width: 2.0;"/><polygon fill="none" points="355.602,253.057,355.6544,253.1035,358.3131,249.7969,361.279,246.763,364.1448,243.6403,366.6818,240.2255,369.674,237.215,369.6481,237.2136,369.3078,241.4395,369.0979,245.6722,368.9787,249.9098,368.5471,254.1308,368.553,258.375,368.6231,258.5457,365.883,257.1171,363.3476,256.1868,360.8371,255.3174,358.1813,254.0942,355.602,253.057" style="stroke: #A9A9A9; stroke-width: 2.0;"/><!--link Scenario to FinancialAnalyst--><path d="M528.58,84.126 L528.8598,84.1421 L528.5968,93.9724 L529.9739,103.897 L530.8169,113.7909 L529.9035,123.5837 L531.318,133.5105 L531.422,143.3619 L532.0475,153.2433 L533.0356,163.1455 L532.7743,172.9759 L534.9998,182.9494 L533.9922,192.7368 L535.1362,202.648 L536.5427,212.5743 L536.4218,222.4128 L537.1951,232.3027 L537.63,242.1731 L538.4785,252.0673 L539.1275,261.95 L540.1571,271.8547 L540.839,281.7393 L540.514,291.566 " fill="none" style="stroke: #A9A9A9; stroke-width: 2.0; stroke-dasharray: 7.0,7.0;"/><polygon fill="#A9A9A9" points="540.816,296.811,540.8816,296.8357,541.3821,294.9193,542.2669,293.1478,543.0266,291.3291,543.3747,289.3552,544.2925,287.5961,544.2732,287.5789,543.4336,288.3462,542.6916,289.2003,542.0173,290.1149,541.1095,290.8213,540.5288,291.8193,540.6516,291.957,539.5444,290.9097,538.7957,290.2646,538.0908,289.6685,537.1313,288.787,536.3057,288.0556,536.3259,288.066,537.1983,289.8018,538.1627,291.585,539.0827,293.3453,540.0875,295.1493,540.816,296.811" style="stroke: #A9A9A9; stroke-width: 2.0;"/><!--link Analyst to FinancialAnalyst--><path d="M670.823,245.357 L670.9929,245.5798 L662.0673,251.3396 L654.1378,258.4057 L645.8839,265.0464 L636.5632,270.2882 L628.6564,277.384 L619.9537,283.4361 L611.5677,289.9035 L603.457,296.732 " fill="none" style="stroke: #A9A9A9; stroke-width: 2.0;"/><polygon fill="none" points="666.668,239.723,666.6897,239.7896,670.6548,238.2793,674.7472,237.1595,678.7981,235.9125,682.7128,234.2473,686.816,233.161,686.7944,233.1467,684.3655,236.6216,682.0457,240.1683,679.8016,243.7649,677.2964,247.1894,675.157,250.855,675.3037,250.9669,673.2921,248.5012,671.709,246.3622,670.1781,244.2631,668.3431,241.9321,666.668,239.723" style="stroke: #A9A9A9; stroke-width: 2.0;"/><!--link Scenario to TaxAnalyst--><path d="M553.41,84.336 L553.4853,84.3913 L558.0926,90.8051 L563.1412,97.5431 L568.0462,104.1756 L572.4784,110.4609 L577.565,117.2267 L577.482,117.1647 L582.8606,124.5858 L588.6577,132.3195 L594.7458,140.2705 L599.8313,147.4726 L606.321,155.7236 L606.517,155.8724 L609.1906,159.6285 L612.4363,163.819 L615.7519,168.0625 L618.6614,171.9977 L621.7844,176.095 L621.8084,176.1135 L624.9423,180.2059 L628.1855,184.3825 L631.376,188.5184 L634.6672,192.7319 L637.63,196.6927 L637.865,196.8764 L641.0623,200.9651 L644.1079,204.9353 L647.3755,209.0789 L650.6534,213.2307 L653.6019,217.1249 L653.3513,216.9252 L657.0061,221.2879 L659.8357,224.9928 L663.2927,229.1979 L666.1035,232.8879 L669.444,237 L669.4204,236.9807 L672.0053,240.0309 L674.0394,242.631 L676.3986,245.4966 L678.785,248.3846 L680.9745,251.1117 L681.1165,251.2303 L683.3569,253.9629 L685.8398,256.8981 L687.9303,259.5054 L690.6062,262.6019 L692.8929,265.3731 L693.0779,265.5316 L697.7631,271.012 L702.5402,276.5711 L706.8905,281.7646 L711.5536,287.2261 L716.494,292.925 " fill="none" style="stroke: #A9A9A9; stroke-width: 2.0; stroke-dasharray: 7.0,7.0;"/><polygon fill="#A9A9A9" points="719.903,296.844,719.97,296.8645,719.1933,294.9203,718.8093,293.0965,718.2975,291.2335,717.3651,289.2416,717.0148,287.4281,716.989,287.4263,716.7944,288.5469,716.7301,289.6765,716.7563,290.8125,716.4704,291.9267,716.6217,293.0713,716.6345,293.2554,715.4785,292.7831,714.3599,292.8483,713.2458,292.9791,712.1052,292.7283,710.9785,292.6782,710.9882,292.6988,712.7589,293.5017,714.5735,294.3984,716.3669,295.2499,718.2007,296.1877,719.903,296.844" style="stroke: #A9A9A9; stroke-width: 2.0;"/><!--link Analyst to TaxAnalyst--><path d="M749.694,257.066 L749.7867,257.0777 L750.5149,265.018 L751.7864,273.0267 L752.881,281.0132 L753.3938,288.9264 L754.712,296.941 " fill="none" style="stroke: #A9A9A9; stroke-width: 2.0;"/><polygon fill="none" points="742.748,257.932,742.8165,257.9467,743.5026,253.7596,744.5902,249.6587,745.5471,245.5298,746.0739,241.3085,747.196,237.215,747.1728,237.2035,748.9573,240.9454,750.8588,244.7456,752.8415,248.5863,754.5441,252.2875,756.639,256.184,756.662,256.3671,753.8346,256.3252,751.0744,256.8178,748.3224,257.3757,745.5226,257.554,742.748,257.932" style="stroke: #A9A9A9; stroke-width: 2.0;"/><!--link Scenario to LegalAnalyst--><path d="M578.493,54.818 L578.5105,54.9098 L580.8424,55.0931 L583.277,55.8142 L585.6782,56.3603 L587.9692,56.3303 L590.4128,57.0977 L590.4058,57.0638 L592.9297,57.4383 L595.4888,57.9834 L598.0722,58.647 L600.5715,58.902 L603.1887,59.7293 L603.242,59.9695 L605.8336,60.0563 L608.5808,60.8444 L611.3469,61.7181 L614.0026,62.0939 L616.7164,62.7315 L616.7235,62.761 L619.5481,63.396 L622.4049,64.1653 L625.2461,64.8699 L628.117,65.698 L630.8914,66.1231 L630.9659,66.4119 L633.9104,67.1754 L636.8068,67.7526 L639.7735,68.6024 L642.7436,69.4651 L645.6091,69.9228 L645.523,69.614 L648.7213,71.0586 L651.6361,71.4864 L654.7664,72.6872 L657.6748,73.092 L660.7651,74.1492 L660.7563,74.1201 L663.9582,75.3991 L666.9548,75.9972 L670.0725,76.9971 L673.2004,78.0308 L676.2549,78.8211 L676.3123,78.9969 L679.3982,79.8466 L682.5822,80.9968 L685.6073,81.6609 L688.8694,83.0501 L691.974,83.9571 L692.0554,84.1868 L695.2088,85.2671 L698.4026,86.4615 L701.4086,87.1261 L704.5523,88.1791 L707.8179,89.576 L707.7185,89.3184 L710.9814,90.7757 L714.1322,91.9427 L717.4455,93.5309 L720.4814,94.4 L723.6822,95.6965 L723.6231,95.556 L726.8776,97.1182 L729.8793,98.0797 L733.0608,99.4683 L736.4182,101.275 L739.4624,102.3373 L739.5433,102.5132 L742.7172,104.0698 L745.6391,105.0793 L748.8766,106.774 L752.0453,108.3194 L755.0539,109.517 L754.9591,109.3297 L758.0943,111.0265 L761.1985,112.662 L764.3637,114.418 L767.2918,115.7053 L770.3523,117.2545 L770.4525,117.434 L773.2125,118.7023 L776.1659,120.3172 L779.4018,122.4383 L782.1177,123.6273 L785.2531,125.5683 L785.3721,125.7607 L788.1812,127.4282 L790.9499,129.0306 L793.8096,130.78 L796.8794,132.8689 L799.6518,134.4773 L799.5762,134.3678 L802.5597,136.5983 L805.0291,138.0842 L808.083,140.4167 L810.8079,142.2726 L813.444,144 L813.5104,144.0863 L815.4334,145.5382 L817.5942,147.2991 L819.5402,148.7809 L821.3964,150.1461 L823.3271,151.6081 L823.4041,151.6991 L825.2119,153.1909 L827.3772,155.1051 L829.1381,156.5416 L831.0653,158.1745 L832.9379,159.743 L832.7547,159.5441 L834.6818,161.3297 L836.8296,163.3549 L838.6652,165.0411 L840.3888,166.6058 L842.2676,168.339 L842.1667,168.2375 L844.007,170.0683 L845.6686,171.7194 L847.8217,173.8647 L849.7315,175.7653 L851.3077,177.3306 L851.4784,177.4906 L853.2813,179.4062 L854.7601,181.0176 L856.581,182.95 L858.1754,184.6699 L860.0494,186.6521 L860.1442,186.7355 L861.8187,188.6417 L863.6076,190.6485 L865.0337,192.3361 L866.7524,194.2812 L868.4842,196.2378 L868.6359,196.3637 L870.3021,198.3557 L871.5565,200.0061 L873.2893,202.0534 L875.0305,204.1076 L876.6033,206.0221 L876.3899,205.8544 L878.2858,208.1027 L879.8114,210.0599 L881.245,211.9449 L882.8889,213.9951 L884.3981,215.9395 L884.6575,216.1334 L885.7791,217.8532 L887.495,220.0172 L888.9769,222.0063 L890.4088,223.9581 L891.86,225.9242 L891.911,225.9606 L893.3251,227.9508 L894.4823,229.7577 L895.9871,231.8127 L897.3892,233.7943 L898.9803,235.9106 L899.0037,235.9266 L900.3667,237.9172 L901.7477,239.9202 L902.9355,241.7913 L904.3715,243.8318 L905.7503,245.8332 L905.7056,245.8039 L907.2471,247.9322 L908.4734,249.8542 L909.4165,251.5908 L910.8521,253.6498 L912.1615,255.6262 L911.9444,255.4895 L913.4787,257.614 L914.8078,259.6094 L915.9924,261.5138 L916.8325,263.2013 L918.2051,265.224 L918.3814,265.331 L919.0563,266.9201 L920.5481,269.0049 L921.4918,270.7571 L922.7757,272.7159 L923.8725,274.561 L923.9646,274.615 L925.11,276.4692 L925.7094,278.0034 L927.2243,280.0742 L928.1668,281.8095 L929.155,283.5715 L929.2923,283.6494 L930.4219,285.4592 L931.1127,287.0201 L932.1561,288.781 L933.1487,290.5131 L934.044,292.19 " fill="none" style="stroke: #A9A9A9; stroke-width: 2.0; stroke-dasharray: 7.0,7.0;"/><polygon fill="#A9A9A9" points="936.56,296.735,936.6298,296.7411,936.2509,294.7607,936.2811,292.816,936.178,290.8597,935.6368,288.8651,935.7022,286.9236,935.6773,286.9164,935.2529,287.9716,934.9541,289.0629,934.7425,290.1793,934.2302,291.2092,934.1391,292.3602,934.1901,292.5375,932.9937,291.8456,931.9462,291.6716,930.9169,291.5607,929.7819,291.0822,928.7025,290.7971,928.7162,290.8152,930.2675,291.9762,931.8814,293.2197,933.465,294.4234,935.1062,295.7032,936.56,296.735" style="stroke: #A9A9A9; stroke-width: 2.0;"/><!--link Analyst to LegalAnalyst--><path d="M813.782,225.556 L813.8269,225.6379 L816.0282,226.6751 L818.4928,228.1925 L820.8717,229.5535 L822.9685,230.4004 L825.4558,231.959 L825.4385,231.9291 L827.6891,233.1435 L830.027,234.5085 L832.4256,235.9784 L834.6152,237.0872 L837.0975,238.7016 L837.2267,238.9111 L839.2303,239.8694 L841.6111,241.4391 L844.038,243.0835 L846.1971,244.2938 L848.497,245.7325 L848.5137,245.7577 L850.6785,247.1741 L852.9197,248.7056 L855.124,250.1815 L857.3986,251.7634 L859.444,253 L859.6197,253.241 L862.4252,255.287 L865.1174,257.1776 L867.9755,259.2957 L870.8413,261.4245 L873.4609,263.2153 L873.2616,262.9643 L876.4177,265.6499 L878.9176,267.5089 L881.9164,269.9963 L884.4014,271.8365 L887.3075,274.2073 L887.2878,274.184 L890.2012,276.7324 L892.6545,278.7383 L895.3793,281.0642 L898.127,283.4171 L900.7101,285.5761 L900.8335,285.7139 L903.2459,287.844 L905.8692,290.2096 L908.1514,292.194 L910.9423,294.747 L913.395,296.922 " fill="none" style="stroke: #A9A9A9; stroke-width: 2.0;"/><polygon fill="none" points="810.501,231.741,810.5519,231.7891,807.4898,228.5659,804.7262,225.6249,801.8654,222.5919,798.685,219.2569,795.947,216.34,795.9434,216.3144,800.1235,216.7918,804.3219,217.3986,808.533,218.0953,812.7004,218.4822,816.929,219.303,817.0929,219.3877,815.4568,221.6941,814.2992,224.2479,813.2001,226.8319,811.7612,229.2403,810.501,231.741" style="stroke: #A9A9A9; stroke-width: 2.0;"/><!--link LegalAnalyst to LawMinistry--><path d="M959.444,390.123 L959.7242,390.123 L958.8916,400.953 L959.7017,411.7831 L959.9769,422.6131 L958.4928,433.4432 L959.444,444.2732 " fill="none" style="stroke: #A9A9A9; stroke-width: 2.0; stroke-dasharray: 7.0,7.0;"/><polygon fill="#A9A9A9" points="959.444,449.6237,959.508,449.6522,960.1178,447.7676,961.1029,446.0499,961.9657,444.2778,962.4267,442.3271,963.444,440.6237,963.4257,440.6054,962.5435,441.3232,961.7536,442.1333,961.0279,443.0076,960.081,443.6607,959.444,444.6237,959.5745,444.7542,958.4954,443.6751,957.7974,442.9771,957.1458,442.3255,956.2238,441.4035,955.444,440.6237,955.4648,440.6329,956.2343,442.4194,957.0984,444.2479,957.9168,446.0561,958.8224,447.903,959.444,449.6237" style="stroke: #A9A9A9; stroke-width: 2.0;"/><!--link Adviser to Analyst--><path d="M438.774,207.554 L438.798,207.6443 L441.7661,208.1829 L444.8746,209.2508 L447.9375,210.1464 L450.8499,210.4751 L453.9705,211.5885 L453.9627,211.5548 L456.9671,212.1073 L460.0107,212.8294 L463.0816,213.6694 L466.0584,214.103 L469.167,215.1058 L469.2147,215.3472 L472.1521,215.4311 L475.2286,216.2197 L478.3222,217.0944 L481.3169,217.4687 L484.3636,218.1062 L484.3685,218.1361 L487.4006,218.5888 L490.455,219.1778 L493.4987,219.701 L496.5628,220.3496 L499.5602,220.5894 L499.5984,220.8852 L502.6382,221.282 L505.6533,221.4881 L508.7045,221.9734 L511.7575,222.4718 L514.7567,222.5556 L514.7263,222.2365 L517.8247,223.1456 L520.8229,223.004 L523.8972,223.6612 L526.8931,223.4958 L529.9533,224.0046 L529.9515,223.9743 L533.0128,224.52 L536.0306,224.3558 L539.0741,224.6106 L542.1198,224.9005 L545.1499,224.9367 L545.155,225.1216 L548.1892,225.0179 L551.232,225.2303 L554.2609,224.9313 L557.3106,225.395 L560.3465,225.3516 L560.3481,225.5953 L563.3871,225.5288 L566.427,225.5832 L569.463,225.0757 L572.5018,224.9801 L575.5431,225.2495 L575.5318,224.9736 L578.5813,225.0995 L581.6182,224.9146 L584.6734,225.1806 L587.6972,224.6766 L590.7397,224.6303 L590.7283,224.4783 L593.7866,224.5043 L596.7962,223.8803 L599.8404,223.7185 L602.9185,224.009 L605.9363,223.4941 L605.9572,223.6866 L609.0109,223.488 L611.9994,222.6906 L615.0696,222.6432 L618.1219,222.4323 L621.1328,221.8408 L621.1032,221.6329 L624.1661,221.3645 L627.2194,221.0281 L630.2917,220.8253 L633.2898,220.1027 L636.3294,219.6704 L636.3652,219.8729 L639.3259,218.8906 L642.3556,218.2991 L645.4863,218.2784 L648.4312,217.2067 L651.526,216.983 L651.5726,217.2044 L654.5842,216.432 L657.58,215.5847 L660.6114,214.9065 L663.7253,214.6189 L666.7225,213.7785 L666.6908,213.6493 L669.8244,213.2897 L672.7427,212.0513 L675.9057,211.8121 L678.9309,211.0104 L681.919,210.057 " fill="none" style="stroke: #A9A9A9; stroke-width: 2.0;"/><polygon fill="#A9A9A9" points="686.763,208.762,686.774,208.8312,684.7959,208.3177,682.882,208.2098,680.9472,207.9699,678.9436,207.2955,677.0352,207.2225,677.0222,207.2,677.9436,207.6656,678.9302,208.2442,679.9623,208.9014,680.8379,209.2878,681.9327,210.0535,682.0925,210.1459,681.1846,210.9279,680.7432,211.9795,680.3587,213.0641,679.6431,213.9572,679.1016,214.951,679.1159,214.9687,680.6272,213.7049,682.2036,212.5217,683.7485,211.2996,685.3534,210.1517,686.763,208.762" style="stroke: #A9A9A9; stroke-width: 2.0;"/><!--link Adviser to Analyst--><!--link FinancialAnalyst to EconomyMinistry--><path d="M543.444,390.123 L543.7242,390.123 L542.8916,400.953 L543.7017,411.7831 L543.9769,422.6131 L542.4928,433.4432 L543.444,444.2732 " fill="none" style="stroke: #A9A9A9; stroke-width: 2.0; stroke-dasharray: 7.0,7.0;"/><polygon fill="#A9A9A9" points="543.444,449.6237,543.508,449.6522,544.1178,447.7676,545.1029,446.0499,545.9657,444.2778,546.4267,442.3271,547.444,440.6237,547.4257,440.6054,546.5435,441.3232,545.7536,442.1333,545.0279,443.0076,544.081,443.6607,543.444,444.6237,543.5745,444.7542,542.4954,443.6751,541.7974,442.9771,541.1458,442.3255,540.2238,441.4035,539.444,440.6237,539.4648,440.6329,540.2343,442.4194,541.0984,444.2479,541.9168,446.0561,542.8224,447.903,543.444,449.6237" style="stroke: #A9A9A9; stroke-width: 2.0;"/><!--link TaxAnalyst to TaxMinistry--><path d="M760.444,390.123 L760.7242,390.123 L759.8916,400.953 L760.7017,411.7831 L760.9769,422.6131 L759.4928,433.4432 L760.444,444.2732 " fill="none" style="stroke: #A9A9A9; stroke-width: 2.0; stroke-dasharray: 7.0,7.0;"/><polygon fill="#A9A9A9" points="760.444,449.6237,760.508,449.6522,761.1178,447.7676,762.1029,446.0499,762.9657,444.2778,763.4267,442.3271,764.444,440.6237,764.4257,440.6054,763.5435,441.3232,762.7536,442.1333,762.0279,443.0076,761.081,443.6607,760.444,444.6237,760.5745,444.7542,759.4954,443.6751,758.7974,442.9771,758.1458,442.3255,757.2238,441.4035,756.444,440.6237,756.4648,440.6329,757.2343,442.4194,758.0984,444.2479,758.9168,446.0561,759.8224,447.903,760.444,449.6237" style="stroke: #A9A9A9; stroke-width: 2.0;"/><!--link Scenario to Adviser--><!--link FormalAdviser to CasualAdviser--><!--link FinancialAnalyst to TaxAnalyst--><!--link TaxAnalyst to LegalAnalyst--><!--
@startuml
skinparam backgroundColor #222222
skinparam handwritten true
hide circle

skinparam shadowing false
skinparam padding 1
skinparam arrow {
    Thickness 2
    Color #DarkGrey
    FontSize 20
    FontName courier
    FontStyle normal
    FontColor #DarkGrey
}
skinparam class {
    BorderThickness 3
    BorderColor #228B22
    BackgroundColor #222222
    FontSize 20
    FontName courier
    FontStyle bold
    FontColor #228B22
    StereotypeFontColor #228B22
}
skinparam classAttribute {
    FontSize 15
    FontName courier
    FontStyle normal
    FontColor #DarkGrey
}
skinparam note {
    BorderThickness 3
    BorderColor #DarkGrey
    BackgroundColor #222222
    FontSize 20
    FontName courier
    FontStyle normal
    FontColor #DarkGrey
}

class Scenario  {
+ main()
}

class Adviser <<Abstraction>>  {
+ advise()
}
note left
public advise() {
  analyst.analyze();
end note

class Analyst <<Implementation>> {
+ analyze()
}
together {
class CasualAdviser <<RedefinedAbstractionA>>  {
+ advise()
}
class FormalAdviser <<RedefinedAbstractionB>>  {
+ advise()
}
}
class FinancialAnalyst <<ConcreteImplementationA>>  {
+ analyze()
}
class TaxAnalyst <<ConcreteImplementationB>>  {
+ analyze()
}
class LegalAnalyst <<ConcreteImplementationC>>  {
+ analyze()
}

class EconomyMinistry
class TaxMinistry
class LawMinistry

Scenario ..> CasualAdviser
Adviser <|- - CasualAdviser
Scenario ..> FormalAdviser
Adviser <|- - FormalAdviser
Scenario ..> FinancialAnalyst
Analyst <|- - FinancialAnalyst
Scenario ..> TaxAnalyst
Analyst <|- - TaxAnalyst
Scenario ..> LegalAnalyst
Analyst <|- - LegalAnalyst
LegalAnalyst ..> LawMinistry
Adviser - -> Analyst
FinancialAnalyst ..> EconomyMinistry
TaxAnalyst ..> TaxMinistry
Scenario -[hidden]down- Adviser
Adviser -[hidden]right- Analyst
CasualAdviser -[hidden]left FormalAdviser
FinancialAnalyst -[hidden]right TaxAnalyst
TaxAnalyst -[hidden]right LegalAnalyst
@enduml

PlantUML version 1.2019.05(Sat Apr 20 18:45:36 CEST 2019)
(GPL source distribution)
Java Runtime: Java(TM) SE Runtime Environment
JVM: Java HotSpot(TM) 64-Bit Server VM
Java Version: 11.0.8+10-LTS
Operating System: Windows 10
OS Version: 10.0
Default Encoding: windows-1252
Language: es
Country: ES
--></g></svg>