<?xml version="1.0" encoding="UTF-8" standalone="no"?><svg xmlns="http://www.w3.org/2000/svg" xmlns:xlink="http://www.w3.org/1999/xlink" contentScriptType="application/ecmascript" contentStyleType="text/css" height="704px" preserveAspectRatio="none" style="width:769px;height:704px;background:#222222;" version="1.1" viewBox="0 0 769 704" width="769px" zoomAndPan="magnify"><defs/><g><!--class Scenario--><polygon fill="#222222" points="173,8,173,8.2102,183.4,7.5857,193.8,8.1933,204.2,8.3997,214.6,7.2866,225,7.9223,235.4,7.5735,245.8,7.6165,256.2,7.9318,266.6,7.3086,277,8,277.5536,8,276.3697,17.4623,276.8022,26.9246,277.4319,36.3868,276.9142,45.8491,277.0682,55.3114,276.9681,64.7737,277.1785,74.236,277,83.6982,277,83.9374,266.6,84.2839,256.2,84.3693,245.8,84.3775,235.4,83.9529,225,84.1618,214.6,84.4005,204.2,82.9771,193.8,84.3768,183.4,83.4017,173,83.6982,173.5338,83.6982,172.505,74.236,172.9315,64.7737,173.7416,55.3114,172.9513,45.8491,173.1053,36.3868,173.3386,26.9246,173.4162,17.4623,173,8" style="stroke: #228B22; stroke-width: 3.0;"/><text fill="#228B22" font-family="courier" font-size="20" font-weight="bold" lengthAdjust="spacingAndGlyphs" textLength="96" x="177" y="34.1074">Scenario</text><path d="M174,46.1133 L174,46.3935 L184.2,45.5609 L194.4,46.371 L204.6,46.6462 L214.8,45.1621 L225,46.0097 L235.2,45.5446 L245.4,45.6019 L255.6,46.0224 L265.8,45.1915 L276,46.1133 " fill="#222222" style="stroke: #228B22; stroke-width: 3.0;"/><path d="M174,54.1133 L174,54.3935 L184.2,53.5609 L194.4,54.371 L204.6,54.6462 L214.8,53.1621 L225,54.0097 L235.2,53.5446 L245.4,53.6019 L255.6,54.0224 L265.8,53.1915 L276,54.1133 " fill="#222222" style="stroke: #228B22; stroke-width: 3.0;"/><polygon fill="#84BE84" points="187.0166,71.1355,186.5768,71.7363,186.0567,72.6164,185.3128,73.2095,184.5311,73.5338,183.9078,73.562,183.1067,73.1564,182.3509,72.8914,181.7771,72.3534,181.4762,71.7374,181.2977,71.247,181.1229,70.6064,180.8391,70.0552,181.0572,69.5169,181.2482,68.9274,181.9653,68.4611,182.4697,67.8561,183.0941,67.6552,183.8364,67.4821,184.7883,67.5849,185.3097,67.8308,185.9158,67.9423,186.6529,68.6974,186.9098,69.4946,187.0214,70.0385,186.895,70.9348" style="stroke: #038048; stroke-width: 1.0;"/><text fill="#A9A9A9" font-family="courier" font-size="15" lengthAdjust="spacingAndGlyphs" textLength="54" x="194" y="74.1938">main()</text><!--class Student--><polygon fill="#222222" points="107.5,144,107.5,144.2102,117.2917,143.5857,127.0833,144.1933,136.875,144.3997,146.6667,143.2866,156.4583,143.9223,166.25,143.5735,176.0417,143.6165,185.8333,143.9318,195.625,143.3086,205.4167,144.5536,215.2083,143.3697,225,143.8022,234.7917,144.4319,244.5833,143.9142,254.375,144.0682,264.1667,143.9681,273.9583,144.1785,283.75,144.2391,293.5417,144.5857,303.3333,144.6711,313.125,144.6793,322.9167,144.2546,332.7083,144.4636,342.5,144,343.2022,144,341.7788,154.3102,343.1785,164.6204,342.2035,174.9307,343.0338,185.2409,342.005,195.5511,342.4315,205.8613,343.2416,216.1715,342.4513,226.4818,342.5,236.792,342.5,236.8973,332.7083,237.1306,322.9167,237.2082,313.125,236.7881,303.3333,237.0792,293.5417,236.2196,283.75,237.0764,273.9583,237.3402,264.1667,237.2365,254.375,237.405,244.5833,236.3089,234.7917,236.1398,225,236.1706,215.2083,236.7331,205.4167,236.5955,195.625,237.4734,185.8333,236.6173,176.0417,236.4489,166.25,237.0203,156.4583,236.1252,146.6667,236.2729,136.875,237.4409,127.0833,237.2277,117.2917,237.5265,107.5,236.792,107.1782,236.792,107.8192,226.4818,108.0904,216.1715,107.0276,205.8613,107.4041,195.5511,107.626,185.2409,108.1518,174.9307,107.4958,164.6204,107.9626,154.3102,107.5,144" style="stroke: #228B22; stroke-width: 3.0;"/><text fill="#228B22" font-family="sans-serif" font-size="12" font-style="italic" lengthAdjust="spacingAndGlyphs" textLength="57" x="196.5" y="162.457">«Director»</text><text fill="#228B22" font-family="courier" font-size="20" font-weight="bold" lengthAdjust="spacingAndGlyphs" textLength="84" x="183" y="187.2012">Student</text><path d="M108.5,199.207 L108.5,199.4873 L118.6304,198.6546 L128.7609,199.4647 L138.8913,199.7399 L149.0217,198.2558 L159.1522,199.1034 L169.2826,198.6384 L179.413,198.6957 L189.5435,199.1162 L199.6739,198.2852 L209.8043,199.9452 L219.9348,198.3667 L230.0652,198.9433 L240.1957,199.783 L250.3261,199.0927 L260.4565,199.298 L270.587,199.1644 L280.7174,199.4451 L290.8478,199.5259 L300.9783,199.988 L311.1087,200.1018 L321.2391,200.1127 L331.3696,199.5465 L341.5,199.207 " fill="#222222" style="stroke: #228B22; stroke-width: 3.0;"/><path d="M108.5,207.207 L108.5,207.4873 L118.6304,206.6546 L128.7609,207.4647 L138.8913,207.7399 L149.0217,206.2558 L159.1522,207.1034 L169.2826,206.6384 L179.413,206.6957 L189.5435,207.1162 L199.6739,206.2852 L209.8043,207.9452 L219.9348,206.3667 L230.0652,206.9433 L240.1957,207.783 L250.3261,207.0927 L260.4565,207.298 L270.587,207.1644 L280.7174,207.4451 L290.8478,207.5259 L300.9783,207.988 L311.1087,208.1018 L321.2391,208.1127 L331.3696,207.5465 L341.5,207.207 " fill="#222222" style="stroke: #228B22; stroke-width: 3.0;"/><polygon fill="#84BE84" points="121.5166,224.2292,121.0768,224.8301,120.5567,225.7102,119.8128,226.3033,119.0311,226.6276,118.4078,226.6557,117.6067,226.2501,116.8509,225.9851,116.2771,225.4471,115.9762,224.8312,115.7977,224.3407,115.6229,223.7002,115.3391,223.1489,115.5572,222.6107,115.7482,222.0211,116.4653,221.5548,116.9697,220.9498,117.5941,220.7489,118.3364,220.5759,119.2883,220.6787,119.8097,220.9246,120.4158,221.036,121.1529,221.7911,121.4098,222.5883,121.5214,223.1322,121.395,224.0286" style="stroke: #038048; stroke-width: 1.0;"/><text fill="#A9A9A9" font-family="courier" font-size="15" lengthAdjust="spacingAndGlyphs" textLength="207" x="128.5" y="227.2876">attendCourse(Professor)</text><!--class Professor--><polygon fill="#222222" points="107.5,297,107.5,297.2102,117.45,296.5857,127.4,297.1933,137.35,297.3997,147.3,296.2866,157.25,296.9223,167.2,296.5735,177.15,296.6165,187.1,296.9318,197.05,296.3086,207,297.5536,216.95,296.3697,226.9,296.8022,236.85,297.4319,246.8,296.9142,256.75,297.0682,266.7,296.9681,276.65,297.1785,286.6,297.2391,296.55,297.5857,306.5,297,307.1711,297,307.1793,307.1046,306.7546,317.2093,306.9636,327.3139,307.2022,337.4185,305.7788,347.5231,307.1785,357.6278,306.2035,367.7324,307.0338,377.837,306.005,387.9416,306.4315,398.0463,307.2416,408.1509,306.4513,418.2555,306.6053,428.3601,306.8386,438.4648,306.9162,448.5694,306.4961,458.674,306.7872,468.7786,305.9276,478.8833,306.7844,488.9879,307.0482,499.0925,306.9445,509.1971,306.5,519.3018,306.5,519.9148,296.55,518.8187,286.6,518.6496,276.65,518.6804,266.7,519.2429,256.75,519.1052,246.8,519.9832,236.85,519.1271,226.9,518.9587,216.95,519.53,207,518.6349,197.05,518.7826,187.1,519.9507,177.15,519.7374,167.2,520.0362,157.25,518.98,147.3,519.621,137.35,519.8922,127.4,518.8294,117.45,519.2059,107.5,519.3018,107.626,519.3018,108.1518,509.1971,107.4958,499.0925,107.9626,488.9879,106.9462,478.8833,106.8227,468.7786,108.0036,458.674,106.7831,448.5694,108.009,438.4648,107.7066,428.3601,107.2321,418.2555,107.1462,408.1509,107.9588,398.0463,107.2007,387.9416,108.0919,377.837,106.9473,367.7324,108.1174,357.6278,107.9843,347.5231,107.745,337.4185,107.5472,327.3139,108.2266,317.2093,108.1136,307.1046,107.5,297" style="stroke: #228B22; stroke-width: 3.0;"/><text fill="#228B22" font-family="sans-serif" font-size="12" font-style="italic" lengthAdjust="spacingAndGlyphs" textLength="90" x="162" y="315.457">«AbstractClass»</text><text fill="#228B22" font-family="courier" font-size="20" font-weight="bold" lengthAdjust="spacingAndGlyphs" textLength="108" x="153" y="340.2012">Professor</text><path d="M108.5,352.207 L108.5,352.4873 L118.35,351.6546 L128.2,352.4647 L138.05,352.7399 L147.9,351.2558 L157.75,352.1034 L167.6,351.6384 L177.45,351.6957 L187.3,352.1162 L197.15,351.2852 L207,352.9452 L216.85,351.3667 L226.7,351.9433 L236.55,352.783 L246.4,352.0927 L256.25,352.298 L266.1,352.1644 L275.95,352.4451 L285.8,352.5259 L295.65,352.988 L305.5,352.207 " fill="#222222" style="stroke: #228B22; stroke-width: 3.0;"/><path d="M108.5,360.207 L108.5,360.4873 L118.35,359.6546 L128.2,360.4647 L138.05,360.7399 L147.9,359.2558 L157.75,360.1034 L167.6,359.6384 L177.45,359.6957 L187.3,360.1162 L197.15,359.2852 L207,360.9452 L216.85,359.3667 L226.7,359.9433 L236.55,360.783 L246.4,360.0927 L256.25,360.298 L266.1,360.1644 L275.95,360.4451 L285.8,360.5259 L295.65,360.988 L305.5,360.207 " fill="#222222" style="stroke: #228B22; stroke-width: 3.0;"/><polygon fill="#84BE84" points="121.5166,377.2292,121.0768,377.8301,120.5567,378.7102,119.8128,379.3033,119.0311,379.6276,118.4078,379.6557,117.6067,379.2501,116.8509,378.9851,116.2771,378.4471,115.9762,377.8312,115.7977,377.3407,115.6229,376.7002,115.3391,376.1489,115.5572,375.6107,115.7482,375.0211,116.4653,374.5548,116.9697,373.9498,117.5941,373.7489,118.3364,373.5759,119.2883,373.6787,119.8097,373.9246,120.4158,374.036,121.1529,374.7911,121.4098,375.5883,121.5214,376.1322,121.395,377.0286" style="stroke: #038048; stroke-width: 1.0;"/><text fill="#A9A9A9" font-family="courier" font-size="15" lengthAdjust="spacingAndGlyphs" textLength="63" x="128.5" y="380.2876">teach()</text><polygon fill="#FFFF44" points="118.5,393.0845,118.5495,393.134,119.2023,393.7868,120.1456,394.73,120.9942,395.5787,121.5319,396.1163,122.5,397.0845,122.4817,397.0662,121.5995,397.7839,120.8096,398.5941,120.0839,399.4684,119.137,400.1215,118.5,401.0845,118.6305,401.215,117.5514,400.1359,116.8534,399.4379,116.2018,398.7863,115.2798,397.8643,114.5,397.0845,114.5161,397.1006,115.2925,396.2769,116.1421,395.5266,116.9564,394.7408,117.838,394.0225,118.5,393.0845" style="stroke: #B38D22; stroke-width: 1.0;"/><text fill="#A9A9A9" font-family="courier" font-size="15" lengthAdjust="spacingAndGlyphs" textLength="144" x="128.5" y="401.8726">explainSubject()</text><polygon fill="#FFFF44" points="118.5,414.6694,118.5495,414.719,119.2023,415.3718,120.1456,416.315,120.9942,417.1636,121.5319,417.7013,122.5,418.6694,122.4817,418.6511,121.5995,419.3689,120.8096,420.179,120.0839,421.0534,119.137,421.7065,118.5,422.6694,118.6305,422.7999,117.5514,421.7209,116.8534,421.0228,116.2018,420.3712,115.2798,419.4492,114.5,418.6694,114.5161,418.6855,115.2925,417.8619,116.1421,417.1115,116.9564,416.3258,117.838,415.6075,118.5,414.6694" style="stroke: #B38D22; stroke-width: 1.0;"/><text fill="#A9A9A9" font-family="courier" font-size="15" lengthAdjust="spacingAndGlyphs" textLength="72" x="128.5" y="423.4575">assess()</text><polygon fill="#F24D5C" points="115.5,438.2544,115.5,438.3245,116.7,438.1163,117.9,438.3188,119.1,438.3876,120.3,438.0166,121.5,438.2544,121.4741,438.2544,121.3578,439.4544,121.3722,440.6544,121.4773,441.8544,121.2695,443.0544,121.5,444.2544,121.5,444.4389,120.3,444.0443,119.1,444.1885,117.9,444.3984,116.7,444.2258,115.5,444.2544,115.5227,444.2544,115.4894,443.0544,115.5595,441.8544,115.5797,440.6544,115.6952,439.4544,115.5,438.2544" style="stroke: #C82930; stroke-width: 1.0;"/><text fill="#A9A9A9" font-family="courier" font-size="15" lengthAdjust="spacingAndGlyphs" textLength="171" x="128.5" y="445.0425">introduceYourself()</text><polygon fill="#F24D5C" points="115.5,459.8394,115.5,459.9094,116.7,459.7012,117.9,459.9038,119.1,459.9726,120.3,459.6016,121.5,459.8394,121.4741,459.8394,121.3578,461.0394,121.3722,462.2394,121.4773,463.4394,121.2695,464.6394,121.5,465.8394,121.5,466.0239,120.3,465.6293,119.1,465.7734,117.9,465.9833,116.7,465.8108,115.5,465.8394,115.5227,465.8394,115.4894,464.6394,115.5595,463.4394,115.5797,462.2394,115.6952,461.0394,115.5,459.8394" style="stroke: #C82930; stroke-width: 1.0;"/><text fill="#A9A9A9" font-family="courier" font-size="15" lengthAdjust="spacingAndGlyphs" textLength="153" x="128.5" y="466.6274">introduceCource()</text><polygon fill="#F24D5C" points="115.5,481.4243,115.5,481.4944,116.7,481.2862,117.9,481.4887,119.1,481.5575,120.3,481.1865,121.5,481.4243,121.4741,481.4243,121.3578,482.6243,121.3722,483.8243,121.4773,485.0243,121.2695,486.2243,121.5,487.4243,121.5,487.6089,120.3,487.2142,119.1,487.3584,117.9,487.5683,116.7,487.3957,115.5,487.4243,115.5227,487.4243,115.4894,486.2243,115.5595,485.0243,115.5797,483.8243,115.6952,482.6243,115.5,481.4243" style="stroke: #C82930; stroke-width: 1.0;"/><text fill="#A9A9A9" font-family="courier" font-size="15" lengthAdjust="spacingAndGlyphs" textLength="126" x="128.5" y="488.2124">answerDoubts()</text><polygon fill="#F24D5C" points="115.5,503.0093,115.5,503.0793,116.7,502.8712,117.9,503.0737,119.1,503.1425,120.3,502.7715,121.5,503.0093,121.4741,503.0093,121.3578,504.2093,121.3722,505.4093,121.4773,506.6093,121.2695,507.8093,121.5,509.0093,121.5,509.1938,120.3,508.7992,119.1,508.9434,117.9,509.1533,116.7,508.9807,115.5,509.0093,115.5227,509.0093,115.4894,507.8093,115.5595,506.6093,115.5797,505.4093,115.6952,504.2093,115.5,503.0093" style="stroke: #C82930; stroke-width: 1.0;"/><text fill="#A9A9A9" font-family="courier" font-size="15" lengthAdjust="spacingAndGlyphs" textLength="135" x="128.5" y="509.7974">concludCourse()</text><path d="M341.5,297.5 L341.5,404 L306.56,408 L341.5,412 L341.5,518.4063 A0,0 0 0 0 341.5,518.4063 L688.5,518.4063 A0,0 0 0 0 688.5,518.4063 L688.5,307.5 L678.5,297.5 L341.5,297.5 A0,0 0 0 0 341.5,297.5 " fill="#222222" style="stroke: #A9A9A9; stroke-width: 3.0;"/><path d="M678.5,297.5 L678.6868,297.5 L678.1317,299.5 L678.6718,301.5 L678.8553,303.5 L677.8659,305.5 L678.5,307.5 L678.5,307.4309 L680.5,307.1209 L682.5,307.1591 L684.5,307.4394 L686.5,306.8854 L688.5,307.5 L688.848,307.848 L686.1038,305.1038 L684.3757,303.3757 L682.7715,301.7715 L680.4461,299.4461 L678.5,297.5 " fill="#222222" style="stroke: #A9A9A9; stroke-width: 3.0;"/><text fill="#A9A9A9" font-family="courier" font-size="20" lengthAdjust="spacingAndGlyphs" textLength="192" x="348.5" y="323.6074">public teach() {</text><text fill="#A9A9A9" font-family="courier" font-size="20" lengthAdjust="spacingAndGlyphs" textLength="300" x="372.5" y="349.7207">this.introduceYourself();</text><text fill="#A9A9A9" font-family="courier" font-size="20" lengthAdjust="spacingAndGlyphs" textLength="276" x="372.5" y="375.834">this.introduceCourse();</text><text fill="#A9A9A9" font-family="courier" font-size="20" lengthAdjust="spacingAndGlyphs" textLength="264" x="372.5" y="401.9473">this.explainSubject();</text><text fill="#A9A9A9" font-family="courier" font-size="20" lengthAdjust="spacingAndGlyphs" textLength="240" x="372.5" y="428.0605">this.answerDoubts();</text><text fill="#A9A9A9" font-family="courier" font-size="20" lengthAdjust="spacingAndGlyphs" textLength="168" x="372.5" y="454.1738">this.assess();</text><text fill="#A9A9A9" font-family="courier" font-size="20" lengthAdjust="spacingAndGlyphs" textLength="264" x="372.5" y="480.2871">this.concludeCource();</text><text fill="#A9A9A9" font-family="courier" font-size="20" lengthAdjust="spacingAndGlyphs" textLength="12" x="348.5" y="506.4004">}</text><!--class ProfessorInClassRoom--><polygon fill="#222222" points="6,579,6,579.2102,15.92,578.5857,25.84,579.1933,35.76,579.3997,45.68,578.2866,55.6,578.9223,65.52,578.5735,75.44,578.6165,85.36,578.9318,95.28,578.3086,105.2,579.5536,115.12,578.3697,125.04,578.8022,134.96,579.4319,144.88,578.9142,154.8,579.0682,164.72,578.9681,174.64,579.1785,184.56,579.2391,194.48,579.5857,204.4,579.6711,214.32,579.6793,224.24,579.2546,234.16,579.4636,244.08,579.7022,254,579,253.2788,579,254.6785,589.3979,253.7035,599.7958,254.5338,610.1937,253.505,620.5916,253.9315,630.9895,254.7416,641.3874,253.9513,651.7853,254.1053,662.1832,254.3386,672.5811,254.4162,682.979,254,693.377,254,693.373,244.08,693.6642,234.16,692.8045,224.24,693.6613,214.32,693.9251,204.4,693.8215,194.48,693.99,184.56,692.8939,174.64,692.7248,164.72,692.7556,154.8,693.3181,144.88,693.1804,134.96,694.0584,125.04,693.2023,115.12,693.0339,105.2,693.6052,95.28,692.7101,85.36,692.8578,75.44,694.0259,65.52,693.8126,55.6,694.1114,45.68,693.0552,35.76,693.6962,25.84,693.9674,15.92,692.9045,6,693.377,5.9041,693.377,6.126,682.979,6.6518,672.5811,5.9958,662.1832,6.4626,651.7853,5.4462,641.3874,5.3227,630.9895,6.5036,620.5916,5.2831,610.1937,6.509,599.7958,6.2066,589.3979,6,579" style="stroke: #228B22; stroke-width: 3.0;"/><text fill="#228B22" font-family="sans-serif" font-size="12" font-style="italic" lengthAdjust="spacingAndGlyphs" textLength="103" x="78.5" y="597.457">«ConcreteClassA»</text><text fill="#228B22" font-family="courier" font-size="20" font-weight="bold" lengthAdjust="spacingAndGlyphs" textLength="240" x="10" y="622.2012">ProfessorInClassRoom</text><path d="M7,634.207 L7,634.4873 L16.84,633.6546 L26.68,634.4647 L36.52,634.7399 L46.36,633.2558 L56.2,634.1034 L66.04,633.6384 L75.88,633.6957 L85.72,634.1162 L95.56,633.2852 L105.4,634.9452 L115.24,633.3667 L125.08,633.9433 L134.92,634.783 L144.76,634.0927 L154.6,634.298 L164.44,634.1644 L174.28,634.4451 L184.12,634.5259 L193.96,634.988 L203.8,635.1018 L213.64,635.1127 L223.48,634.5465 L233.32,634.8251 L243.16,635.1433 L253,634.207 " fill="#222222" style="stroke: #228B22; stroke-width: 3.0;"/><path d="M7,642.207 L7,642.4873 L16.84,641.6546 L26.68,642.4647 L36.52,642.7399 L46.36,641.2558 L56.2,642.1034 L66.04,641.6384 L75.88,641.6957 L85.72,642.1162 L95.56,641.2852 L105.4,642.9452 L115.24,641.3667 L125.08,641.9433 L134.92,642.783 L144.76,642.0927 L154.6,642.298 L164.44,642.1644 L174.28,642.4451 L184.12,642.5259 L193.96,642.988 L203.8,643.1018 L213.64,643.1127 L223.48,642.5465 L233.32,642.8251 L243.16,643.1433 L253,642.207 " fill="#222222" style="stroke: #228B22; stroke-width: 3.0;"/><polygon fill="#FFFF44" points="17,653.4995,17.0495,653.5491,17.7023,654.2019,18.6456,655.1451,19.4942,655.9937,20.0319,656.5314,21,657.4995,20.9817,657.4812,20.0995,658.199,19.3096,659.0091,18.5839,659.8834,17.637,660.5366,17,661.4995,17.1305,661.63,16.0514,660.551,15.3534,659.8529,14.7018,659.2013,13.7798,658.2793,13,657.4995,13.0161,657.5156,13.7925,656.692,14.6421,655.9416,15.4564,655.1559,16.338,654.4376,17,653.4995" style="stroke: #B38D22; stroke-width: 1.0;"/><text fill="#A9A9A9" font-family="courier" font-size="15" lengthAdjust="spacingAndGlyphs" textLength="144" x="27" y="662.2876">explainSubject()</text><polygon fill="#FFFF44" points="17,675.0845,17.0495,675.134,17.7023,675.7868,18.6456,676.73,19.4942,677.5787,20.0319,678.1163,21,679.0845,20.9817,679.0662,20.0995,679.7839,19.3096,680.5941,18.5839,681.4684,17.637,682.1215,17,683.0845,17.1305,683.215,16.0514,682.1359,15.3534,681.4379,14.7018,680.7863,13.7798,679.8643,13,679.0845,13.0161,679.1006,13.7925,678.2769,14.6421,677.5266,15.4564,676.7408,16.338,676.0225,17,675.0845" style="stroke: #B38D22; stroke-width: 1.0;"/><text fill="#A9A9A9" font-family="courier" font-size="15" lengthAdjust="spacingAndGlyphs" textLength="72" x="27" y="683.8726">assess()</text><!--class ProfessorInField--><polygon fill="#222222" points="465,579,465,579.2102,475,578.5857,485,579.1933,495,579.3997,505,578.2866,515,578.9223,525,578.5735,535,578.6165,545,578.9318,555,578.3086,565,579.5536,575,578.3697,585,578.8022,595,579.4319,605,578.9142,615,579.0682,625,578.9681,635,579.1785,645,579.2391,655,579.5857,665,579,665.6711,579,665.6793,589.3979,665.2546,599.7958,665.4636,610.1937,665.7022,620.5916,664.2788,630.9895,665.6785,641.3874,664.7035,651.7853,665.5338,662.1832,664.505,672.5811,664.9315,682.979,665,693.377,665,694.1186,655,693.3282,645,693.4823,635,693.7156,625,693.7932,615,693.373,605,693.6642,595,692.8045,585,693.6613,575,693.9251,565,693.8215,555,693.99,545,692.8939,535,692.7248,525,692.7556,515,693.3181,505,693.1804,495,694.0584,485,693.2023,475,693.0339,465,693.377,465.2283,693.377,464.3332,682.979,464.4809,672.5811,465.649,662.1832,465.4357,651.7853,465.7345,641.3874,464.6782,630.9895,465.3192,620.5916,465.5904,610.1937,464.5276,599.7958,464.9041,589.3979,465,579" style="stroke: #228B22; stroke-width: 3.0;"/><text fill="#228B22" font-family="sans-serif" font-size="12" font-style="italic" lengthAdjust="spacingAndGlyphs" textLength="103" x="513.5" y="597.457">«ConcreteClassB»</text><text fill="#228B22" font-family="courier" font-size="20" font-weight="bold" lengthAdjust="spacingAndGlyphs" textLength="192" x="469" y="622.2012">ProfessorInField</text><path d="M466,634.207 L466,634.4873 L475.9,633.6546 L485.8,634.4647 L495.7,634.7399 L505.6,633.2558 L515.5,634.1034 L525.4,633.6384 L535.3,633.6957 L545.2,634.1162 L555.1,633.2852 L565,634.9452 L574.9,633.3667 L584.8,633.9433 L594.7,634.783 L604.6,634.0927 L614.5,634.298 L624.4,634.1644 L634.3,634.4451 L644.2,634.5259 L654.1,634.988 L664,634.207 " fill="#222222" style="stroke: #228B22; stroke-width: 3.0;"/><path d="M466,642.207 L466,642.4873 L475.9,641.6546 L485.8,642.4647 L495.7,642.7399 L505.6,641.2558 L515.5,642.1034 L525.4,641.6384 L535.3,641.6957 L545.2,642.1162 L555.1,641.2852 L565,642.9452 L574.9,641.3667 L584.8,641.9433 L594.7,642.783 L604.6,642.0927 L614.5,642.298 L624.4,642.1644 L634.3,642.4451 L644.2,642.5259 L654.1,642.988 L664,642.207 " fill="#222222" style="stroke: #228B22; stroke-width: 3.0;"/><polygon fill="#FFFF44" points="476,653.4995,476.0495,653.5491,476.7023,654.2019,477.6456,655.1451,478.4942,655.9937,479.0319,656.5314,480,657.4995,479.9817,657.4812,479.0995,658.199,478.3096,659.0091,477.5839,659.8834,476.637,660.5366,476,661.4995,476.1305,661.63,475.0514,660.551,474.3534,659.8529,473.7018,659.2013,472.7798,658.2793,472,657.4995,472.0161,657.5156,472.7925,656.692,473.6421,655.9416,474.4564,655.1559,475.338,654.4376,476,653.4995" style="stroke: #B38D22; stroke-width: 1.0;"/><text fill="#A9A9A9" font-family="courier" font-size="15" lengthAdjust="spacingAndGlyphs" textLength="144" x="486" y="662.2876">explainSubject()</text><polygon fill="#FFFF44" points="476,675.0845,476.0495,675.134,476.7023,675.7868,477.6456,676.73,478.4942,677.5787,479.0319,678.1163,480,679.0845,479.9817,679.0662,479.0995,679.7839,478.3096,680.5941,477.5839,681.4684,476.637,682.1215,476,683.0845,476.1305,683.215,475.0514,682.1359,474.3534,681.4379,473.7018,680.7863,472.7798,679.8643,472,679.0845,472.0161,679.1006,472.7925,678.2769,473.6421,677.5266,474.4564,676.7408,475.338,676.0225,476,675.0845" style="stroke: #B38D22; stroke-width: 1.0;"/><text fill="#A9A9A9" font-family="courier" font-size="15" lengthAdjust="spacingAndGlyphs" textLength="72" x="486" y="683.8726">assess()</text><!--link Scenario to Student--><path d="M225,84.07 L225.2802,84.07 L224.4476,95.04 L225.2577,106.01 L225.5329,116.98 L224.0488,127.95 L225,138.92 " fill="none" style="stroke: #A9A9A9; stroke-width: 2.0; stroke-dasharray: 7.0,7.0;"/><polygon fill="#A9A9A9" points="225,143.96,225.064,143.9885,225.6738,142.1039,226.6589,140.3862,227.5217,138.6141,227.9827,136.6634,229,134.96,228.9817,134.9417,228.0995,135.6595,227.3096,136.4696,226.5839,137.3439,225.637,137.997,225,138.96,225.1305,139.0905,224.0514,138.0114,223.3534,137.3134,222.7018,136.6618,221.7798,135.7398,221,134.96,221.0208,134.9692,221.7903,136.7557,222.6544,138.5842,223.4728,140.3924,224.3784,142.2393,225,143.96" style="stroke: #A9A9A9; stroke-width: 2.0;"/><!--link Scenario to ProfessorInClassRoom--><path d="M172.9,69.37 L172.9454,69.4516 L170.5081,70.4911 L168.3373,72.0091 L166.0796,73.3712 L163.5367,74.2211 L161.3887,75.7801 L161.3705,75.7507 L158.944,77.0655 L156.6089,78.5285 L154.3373,80.0945 L151.8468,81.3055 L149.663,83.0138 L149.8028,83.2162 L147.17,84.3958 L144.9455,86.1664 L142.7709,88.0091 L140.3063,89.4323 L137.9942,91.0762 L138.013,91.1 L135.7174,92.8443 L133.507,94.6971 L131.2555,96.4976 L129.0825,98.398 L126.6538,99.9725 L126.854,100.1935 L124.7083,102.1433 L122.4334,103.9505 L120.3475,105.9664 L118.2706,107.9921 L115.9128,109.7079 L115.6784,109.4892 L114.1593,112.0295 L111.8684,113.8498 L110.1642,116.2175 L107.8558,118.0215 L106.0427,120.2875 L106.0185,120.269 L104.559,122.7733 L102.5342,124.8459 L100.843,127.1733 L99.1798,129.522 L97.3146,131.7165 L97.4736,131.8111 L95.8502,134.1723 L94.4985,136.6952 L92.7073,138.9564 L91.5715,141.608 L90,144 L90.2196,144.1054 L88.9009,146.7464 L87.6912,149.4397 L85.9748,151.8898 L84.6298,154.5182 L83.6139,157.3045 L83.3591,157.198 L82.4531,160.0115 L81.2601,162.705 L80.4834,165.5727 L78.9958,168.143 L77.9308,170.89 L77.7874,170.8382 L77.025,173.6924 L75.6496,176.3249 L74.7102,179.1151 L74.1971,182.0595 L72.9247,184.7292 L73.1097,184.7865 L72.3655,187.6389 L71.046,190.3132 L70.4472,193.2107 L69.6913,196.0595 L68.5696,198.795 L68.3665,198.7419 L67.7824,201.6372 L67.1318,204.5152 L66.6118,207.4273 L65.5838,210.2066 L64.8396,213.0601 L65.0405,213.1037 L63.9729,215.8954 L63.293,218.7712 L63.1797,221.7699 L62.0234,224.5423 L61.7086,227.4973 L61.9314,227.5364 L61.2875,230.4296 L60.5682,233.3096 L60.019,236.2195 L59.8632,239.1983 L59.1508,242.0795 L59.0189,242.0615 L59.0092,245.0551 L58.1031,247.9261 L58.2162,250.9366 L57.7554,253.8686 L57.14,256.7794 L57.2483,256.7903 L56.863,259.7396 L56.8655,262.7279 L56.5176,265.681 L56.0231,268.6192 L55.6504,271.5698 L55.7693,271.5778 L55.3937,274.5367 L55.5703,277.5326 L55.1224,280.4866 L54.9313,283.4579 L54.6559,286.4235 L54.3857,286.414 L54.3709,289.3952 L54.6815,292.3878 L54.5316,295.3642 L54.2166,298.3348 L54.1306,301.3134 L53.9874,301.3126 L54.0169,304.2926 L53.7928,307.2712 L54.2657,310.2537 L54.3936,313.2342 L54.0485,316.2122 L54.2824,316.2175 L54.4243,319.1952 L54.1218,322.163 L54.2883,325.1414 L54.1444,328.1127 L54.3836,331.0927 L54.5097,331.0989 L54.6384,334.0651 L54.9194,337.0387 L54.7175,339.9887 L54.9051,342.9578 L55.11,345.9277 L55.3065,345.9422 L55.5798,348.8988 L55.3195,351.8159 L55.679,354.7788 L56.0494,357.7425 L56.2016,360.6901 L55.9314,360.6637 L56.6441,363.6378 L56.8881,366.5662 L57.0156,369.4832 L57.4092,372.4262 L57.6325,375.3525 L57.954,375.3911 L57.8433,378.243 L58.4692,381.1833 L58.8051,384.0888 L59.0789,386.9869 L59.3767,389.8879 L59.4387,389.8966 L59.8329,392.7711 L59.9146,395.6015 L60.4192,398.4916 L60.7988,401.364 L61.4082,404.2689 L61.4362,404.2734 L61.9055,407.1151 L62.3963,409.9602 L62.6563,412.7681 L63.2129,415.6238 L63.7011,418.4685 L63.6485,418.459 L64.459,421.3123 L64.8989,424.0986 L65.0057,426.8247 L65.6918,429.6554 L66.2293,432.4594 L65.9777,432.4093 L66.9025,435.2354 L67.5896,438.0142 L68.1092,440.7596 L68.2295,443.4256 L68.9669,446.2144 L69.1684,446.258 L69.2284,448.8429 L70.2223,451.6299 L70.5895,454.2813 L71.3457,457.017 L71.8879,459.7062 L71.9919,459.7305 L72.7079,462.3942 L72.8077,464.9142 L73.9408,467.6752 L74.4278,470.2855 L74.9664,472.9078 L75.1196,472.946 L75.9308,475.565 L76.2527,478.062 L76.9679,480.6571 L77.6263,483.238 L78.1763,485.7919 L78.261,485.8143 L78.839,488.2997 L79.8078,490.8884 L79.9035,493.2462 L81.0714,495.8876 L81.4916,498.3312 L81.2245,498.2567 L81.9393,500.7002 L82.8667,503.203 L83.5406,505.6351 L83.9965,508.0063 L84.8865,510.4987 L85.0629,510.5504 L85.6226,512.866 L86.5757,515.2968 L87.24,517.6431 L87.454,519.8573 L88.3348,522.267 L88.1657,522.2152 L88.9751,524.5186 L89.8762,526.8501 L90.5916,529.1247 L91.2435,531.3799 L91.8107,533.6091 L91.6662,533.562 L93.4657,537.9558 L94.8507,542.2148 L95.949,546.3803 L97.254,550.6132 L98.7412,554.9054 L98.5727,554.8465 L99.9969,558.7268 L101.4904,562.6314 L102.7498,566.4541 L103.9489,570.2558 L105.47,574.17 " fill="none" style="stroke: #A9A9A9; stroke-width: 2.0; stroke-dasharray: 7.0,7.0;"/><polygon fill="#A9A9A9" points="107.22,579,107.2899,579.0048,107.217,577.0254,107.5538,575.0741,107.7573,573.1137,107.5219,571.1231,107.8939,569.1742,107.8704,569.1633,107.2876,570.1399,106.8231,571.1717,106.441,572.2417,105.7752,573.1798,105.5067,574.3027,105.5846,574.47,104.3923,573.6348,103.4275,573.2881,102.4904,573.0009,101.3919,572.367,100.3782,571.9155,100.3946,571.9313,101.7389,573.325,103.1577,574.7906,104.5406,576.2216,105.9921,577.7187,107.22,579" style="stroke: #A9A9A9; stroke-width: 2.0;"/><!--link Scenario to ProfessorInField--><path d="M277.29,56.02 L277.3095,56.1114 L281.4208,56.7285 L285.6463,57.8813 L289.8347,58.8596 L293.9008,59.2644 L298.1361,60.4631 L298.1282,60.4295 L302.7765,61.379 L307.4647,62.4979 L312.1806,63.7347 L316.801,64.5654 L321.5551,65.9649 L321.6153,66.2034 L323.9975,66.3276 L326.5556,67.1483 L329.1352,68.054 L331.5899,68.4653 L334.1102,69.1366 L334.118,69.1659 L336.7177,69.8159 L339.3527,70.5993 L341.9707,71.3184 L344.6213,72.1603 L347.1656,72.6017 L347.2457,72.889 L349.9483,73.6461 L352.5992,74.2179 L355.3257,75.0609 L358.0558,75.9167 L360.6735,76.3697 L360.5833,76.0621 L363.5409,77.4751 L366.2015,77.8754 L369.0879,79.0456 L371.7418,79.4229 L374.5863,80.4502 L374.5773,80.4211 L377.5374,81.6456 L380.2878,82.1905 L383.162,83.1364 L386.0466,84.116 L388.8562,84.8527 L388.9133,85.0286 L391.7716,85.7979 L394.7274,86.8677 L397.5253,87.4512 L400.5588,88.7602 L403.4357,89.5868 L403.5145,89.8173 L406.4678,90.7888 L409.4603,91.8747 L412.271,92.4288 L415.2149,93.3728 L418.277,94.6621 L418.1833,94.4023 L421.2792,95.7227 L424.2695,96.7504 L427.4129,98.2027 L430.295,98.9299 L433.3324,100.0882 L433.2782,99.9457 L436.4129,101.3403 L439.3159,102.1257 L442.3836,103.3443 L445.6125,104.9869 L448.5544,105.8746 L448.6265,106.0543 L451.7441,107.4088 L454.6374,108.2043 L457.8117,109.7 L460.9247,111.0431 L463.8952,112.0308 L463.8132,111.8375 L466.9609,113.2987 L470.0818,114.6967 L473.2554,116.2189 L476.224,117.2577 L479.3071,118.5665 L479.3912,118.7541 L482.2934,119.7269 L485.3581,121.0618 L488.66,122.9256 L491.525,123.8156 L494.7425,125.4913 L494.8396,125.6956 L497.8642,127.0389 L500.8559,128.313 L503.9217,129.7432 L507.159,131.5341 L510.1537,132.8146 L510.0938,132.6958 L513.34,134.5957 L516.1789,135.6878 L519.4808,137.6985 L522.5221,139.1919 L525.493,140.546 L525.5444,140.642 L528.5469,142.1944 L531.7334,144.0904 L534.7536,145.6759 L537.7044,147.1317 L540.7128,148.6952 L540.7718,148.7988 L543.6947,150.3602 L546.8915,152.4024 L549.7784,153.9009 L552.7928,155.623 L555.7654,157.2717 L555.625,157.0406 L558.6394,158.9204 L561.8229,161.0786 L564.7672,162.8429 L567.6256,164.466 L570.6031,166.285 L570.5251,166.1649 L573.4651,168.0953 L576.2671,169.8131 L579.4485,172.1154 L582.4421,174.1285 L585.1782,175.7447 L585.3117,175.9368 L588.2074,177.9815 L590.8494,179.6611 L593.7592,181.726 L596.4917,183.5358 L599.443,185.6604 L599.5186,185.7616 L602.29,187.8246 L605.1527,190.0097 L607.7262,191.8074 L610.5329,193.9176 L613.35,196.0417 L613.4735,196.1953 L616.2083,198.4095 L618.6078,200.2068 L621.3968,202.4884 L624.1927,204.7785 L626.8514,206.8981 L626.6733,206.6932 L629.564,209.2849 L632.1458,211.5211 L634.6509,213.669 L637.3313,216.0187 L639.8995,218.2392 L640.1217,218.4748 L642.3135,220.5051 L645.0144,223.0752 L647.5149,225.4328 L649.9725,227.7449 L652.4467,230.0746 L652.4916,230.1182 L654.8825,232.5776 L657.0472,234.8168 L659.5181,237.3539 L661.8985,239.8029 L664.4452,242.4137 L664.4665,242.4326 L666.755,245.0102 L669.0599,247.6025 L671.1899,250.0394 L673.5446,252.6759 L675.8475,255.2663 L675.8059,255.2328 L678.199,258.1021 L680.2986,260.7353 L682.1344,263.1564 L684.4289,265.9464 L686.6059,268.6418 L686.398,268.4914 L688.723,271.4986 L690.8516,274.3636 L692.842,277.1286 L694.5024,279.6547 L696.6726,282.5499 L696.8458,282.6617 L698.2607,285.2608 L700.4783,288.3782 L702.1573,291.1478 L704.1706,294.1333 L706,297 L706.0925,297.0534 L707.9621,300.187 L709.2837,303.004 L711.5242,306.3518 L713.1902,309.3677 L714.902,312.4101 L715.0425,312.4822 L716.7035,315.4981 L717.9157,318.2838 L719.4886,321.2545 L721.0095,324.1986 L722.4309,327.0916 L722.5111,327.1269 L723.6697,329.9045 L725.1982,332.8449 L725.9002,335.4214 L727.6173,338.4449 L728.6265,341.1567 L728.3657,341.0624 L729.3811,343.7872 L730.6041,346.5871 L731.5797,349.2975 L732.3423,351.931 L733.5288,354.7177 L733.7059,354.7668 L734.3051,357.3644 L735.2995,360.0716 L736.0038,362.6983 L736.2558,365.1998 L737.1776,367.8868 L737.0038,367.854 L737.6082,370.4541 L738.307,373.072 L738.8148,375.6539 L739.2574,378.2234 L739.6129,380.7765 L739.4617,380.7615 L740.1467,383.3489 L740.3979,385.8932 L740.349,388.4078 L740.5165,390.9439 L740.8746,393.4988 L740.6962,393.497 L740.8048,396.0314 L740.9868,398.5664 L740.9209,401.099 L740.7912,403.6309 L741.0025,406.1663 L741.2185,406.1826 L740.6059,408.6958 L740.8388,411.273 L740.6123,413.8154 L740.3946,416.3585 L740.0366,418.891 L740.3407,418.9386 L739.5247,421.4529 L739.0967,424.028 L739.0526,426.6632 L738.1587,429.1653 L738.0168,431.7853 L737.9155,431.7619 L737.4601,434.432 L736.833,437.0626 L736.0412,439.6552 L735.5711,442.3219 L734.983,444.9614 L735.3003,445.0551 L734.4578,447.7571 L733.1256,450.3145 L732.6117,453.1135 L731.5575,455.753 L730.975,458.5317 L730.964,458.5278 L730.1094,461.3902 L729.1742,464.2242 L727.7309,466.8799 L727.1892,469.8521 L726.0328,472.6084 L726.0363,472.6098 L724.6361,475.4564 L723.5037,478.4093 L722.6658,481.4793 L721.4668,484.4058 L720.1963,487.3039 L720.1896,487.301 L718.5841,490.2703 L717.7883,493.5908 L716.0546,496.5046 L714.6283,499.5516 L713.5054,502.7303 L713.4783,502.7178 L712.2423,506.094 L710.7516,509.3528 L709.0163,512.4987 L707.4401,515.7179 L706,519 L706.0659,519.0367 L704.3369,522.1582 L702.3319,525.1262 L700.9544,528.4434 L699.2753,531.5927 L697.3228,534.5898 L697.2452,534.5336 L695.0568,537.3932 L693.3425,540.5963 L690.9957,543.3412 L688.8765,546.2509 L686.765,549.1663 L686.8644,549.2545 L684.1464,551.6829 L682.133,554.737 L679.5477,557.2832 L677.371,560.1922 L674.7447,562.702 L674.6785,562.6326 L672.2572,565.3271 L669.3826,567.5465 L666.9811,570.2616 L664.4093,572.7984 L661.68,575.17 " fill="none" style="stroke: #A9A9A9; stroke-width: 2.0; stroke-dasharray: 7.0,7.0;"/><polygon fill="#A9A9A9" points="657.58,578.73,657.6005,578.797,659.4236,578.0228,661.3667,577.6413,663.2707,577.132,665.0463,576.202,666.9997,575.8543,666.9978,575.8285,665.8611,575.6324,664.7336,575.5666,663.6125,575.5913,662.4692,575.304,661.357,575.4537,661.5411,575.4668,661.2276,574.3103,661.4515,573.192,661.741,572.0783,661.649,570.9376,661.7576,569.8111,661.7782,569.8207,660.9125,571.5903,660.1405,573.4039,659.3232,575.1962,658.5923,577.029,657.58,578.73" style="stroke: #A9A9A9; stroke-width: 2.0;"/><!--link Student to Professor--><path d="M221.18,237.2 L221.4593,237.2233 L219.7275,247.958 L219.6328,258.8294 L219.0051,269.6563 L216.6241,280.3369 L216.67,291.22 " fill="none" style="stroke: #A9A9A9; stroke-width: 2.0; stroke-dasharray: 7.0,7.0;"/><polygon fill="#A9A9A9" points="216.22,296.63,216.2814,296.6637,217.0452,294.8361,218.1691,293.2058,219.1758,291.5113,219.7967,289.6055,220.9515,287.9921,220.9348,287.9724,219.9962,288.6146,219.1419,289.3566,218.3464,290.1678,217.3486,290.7403,216.634,291.6472,216.7749,291.7664,215.7427,290.6479,215.1217,289.8776,214.5509,289.1497,213.6882,288.1747,212.979,287.3297,213.0005,287.3372,213.6172,289.1862,214.3316,291.0694,214.9989,292.9361,215.7562,294.8342,216.22,296.63" style="stroke: #A9A9A9; stroke-width: 2.0;"/><!--link Professor to ProfessorInClassRoom--><path d="M163.06,537.96 L163.1484,537.9901 L160.0957,546.0926 L157.5613,554.3717 L154.8582,562.5933 L151.5999,570.6258 L149.11,578.92 " fill="none" style="stroke: #A9A9A9; stroke-width: 2.0;"/><polygon fill="none" points="156.44,535.69,156.4951,535.7332,158.9473,532.2707,161.7227,529.0618,164.3928,525.7702,166.7169,522.2072,169.52,519.02,169.4941,519.0198,169.4118,523.2569,169.4602,527.495,169.5993,531.7338,169.4256,535.9702,169.69,540.21,169.7496,540.3847,166.9722,539.1072,164.3687,538.3396,161.7865,537.6343,159.0808,536.5669,156.44,535.69" style="stroke: #A9A9A9; stroke-width: 2.0;"/><!--link Professor to ProfessorInField--><path d="M323.19,518.44 L323.2431,518.5168 L323.2473,518.4005 L323.5629,518.7347 L323.777,518.9221 L323.6577,518.6272 L324,519 L323.9807,518.9713 L325.5473,519.9549 L327.2111,521.0829 L328.9425,522.3114 L330.441,523.1937 L332.2657,524.5608 L332.3994,524.7674 L333.8033,525.4199 L335.5977,526.6755 L337.4398,528.0047 L339.0046,528.9058 L340.7153,530.032 L340.7314,530.0577 L342.4297,531.0955 L344.2011,532.2504 L345.9373,533.3487 L347.7408,534.5549 L349.3247,535.4096 L349.4789,535.665 L351.2298,536.7241 L352.8813,537.6186 L354.6783,538.7541 L356.4821,539.901 L358.0698,540.6898 L357.9099,540.4121 L361.7805,543.0017 L365.1243,544.6767 L368.8686,547.047 L372.2005,548.7013 L375.8704,550.9424 L375.8559,550.9157 L379.6385,553.1953 L383.0814,554.8499 L386.7248,556.8733 L390.385,558.9277 L393.9238,560.7588 L394.0086,560.9231 L397.5455,562.627 L401.2274,564.6118 L404.6748,566.1421 L408.472,568.3502 L412.0366,570.1077 L412.1442,570.3263 L415.7197,572.0551 L419.3486,573.8924 L422.7293,575.2254 L426.2919,576.9281 L430.0158,578.9583 L429.898,578.7085 L433.5351,580.5988 L437.0394,582.2077 L440.7362,584.2249 L444.1044,585.5449 L447.668,587.2794 L447.6051,587.1405 L451.1363,588.9239 L454.3985,590.1137 L457.852,591.7256 L461.4926,593.7506 L464.8,595.04 " fill="none" style="stroke: #A9A9A9; stroke-width: 2.0;"/><polygon fill="none" points="318.8,523.91,318.8578,523.9496,316.292,520.334,314.0652,516.9504,311.7279,513.4912,309.0278,509.7837,306.83,506.42,306.8224,506.3952,310.8424,507.5261,314.9006,508.7818,318.9853,510.1243,322.9785,511.1677,327.1,512.63,327.2486,512.7394,325.2708,514.7615,323.7269,517.1029,322.236,519.4833,320.437,521.6371,318.8,523.91" style="stroke: #A9A9A9; stroke-width: 2.0;"/><!--
@startuml
skinparam backgroundColor #222222
skinparam handwritten true
hide circle

skinparam shadowing false
skinparam padding 1
skinparam arrow {
    Thickness 2
    Color #DarkGrey
    FontSize 20
    FontName courier
    FontStyle normal
    FontColor #DarkGrey
}
skinparam class {
    BorderThickness 3
    BorderColor #228B22
    BackgroundColor #222222
    FontSize 20
    FontName courier
    FontStyle bold
    FontColor #228B22
    StereotypeFontColor #228B22
}
skinparam classAttribute {
    FontSize 15
    FontName courier
    FontStyle normal
    FontColor #DarkGrey
}
skinparam note {
    BorderThickness 3
    BorderColor #DarkGrey
    BackgroundColor #222222
    FontSize 20
    FontName courier
    FontStyle normal
    FontColor #DarkGrey
}

class Scenario  {
+ main()
}
class Student <<Director>>  {
+ attendCourse(Professor)
}
class Professor<<AbstractClass>>  {
+ teach()
# explainSubject()
# assess()
- introduceYourself()
- introduceCource()
- answerDoubts()
- concludCourse()
}
note right
public teach() {
  this.introduceYourself();
  this.introduceCourse();
  this.explainSubject();
  this.answerDoubts();
  this.assess();
  this.concludeCource();
}
end note
class ProfessorInClassRoom <<ConcreteClassA>>  {
# explainSubject()
# assess()
}
class ProfessorInField <<ConcreteClassB>>  {
# explainSubject()
# assess()
}

Scenario .down.> Student
Scenario .down.> ProfessorInClassRoom
Scenario .down.> ProfessorInField
Student .down.> Professor
Professor <|-down- ProfessorInClassRoom
Professor <|-down- ProfessorInField
@enduml

PlantUML version 1.2019.05(Sat Apr 20 18:45:36 CEST 2019)
(GPL source distribution)
Java Runtime: Java(TM) SE Runtime Environment
JVM: Java HotSpot(TM) 64-Bit Server VM
Java Version: 11.0.14+8-LTS-263
Operating System: Windows 10
OS Version: 10.0
Default Encoding: windows-1252
Language: es
Country: ES
--></g></svg>