<?xml version="1.0" encoding="UTF-8" standalone="no"?><svg xmlns="http://www.w3.org/2000/svg" xmlns:xlink="http://www.w3.org/1999/xlink" contentScriptType="application/ecmascript" contentStyleType="text/css" height="725px" preserveAspectRatio="none" style="width:1331px;height:725px;background:#222222;" version="1.1" viewBox="0 0 1331 725" width="1331px" zoomAndPan="magnify"><defs/><g><!--class Referee--><polygon fill="#222222" points="725.5,318.5,725.5,318.7102,735.4655,318.0857,745.431,318.6933,755.3966,318.8997,765.3621,317.7866,775.3276,318.4223,785.2931,318.0735,795.2586,318.1165,805.2241,318.4318,815.1897,317.8086,825.1552,319.0536,835.1207,317.8697,845.0862,318.3022,855.0517,318.9319,865.0172,318.4142,874.9828,318.5682,884.9483,318.4681,894.9138,318.6785,904.8793,318.7391,914.8448,319.0857,924.8103,319.1711,934.7759,319.1793,944.7414,318.7546,954.7069,318.9636,964.6724,319.2022,974.6379,317.7788,984.6034,319.1785,994.569,318.2035,1004.5345,319.0338,1014.5,318.5,1014.005,318.5,1014.4315,328.6046,1015.2416,338.7093,1014.4513,348.8139,1014.6053,358.9185,1014.8386,369.0231,1014.9162,379.1278,1014.4961,389.2324,1014.7872,399.337,1013.9276,409.4416,1014.7844,419.5463,1015.0482,429.6509,1014.9445,439.7555,1015.113,449.8601,1014.0169,459.9648,1013.8478,470.0694,1013.8786,480.174,1014.4411,490.2786,1014.3035,500.3833,1015.1814,510.4879,1014.3253,520.5925,1014.1569,530.6971,1014.5,540.8018,1014.5,541.03,1004.5345,540.1349,994.569,540.2826,984.6034,541.4507,974.6379,541.2374,964.6724,541.5362,954.7069,540.48,944.7414,541.121,934.7759,541.3922,924.8103,540.3294,914.8448,540.7059,904.8793,540.9277,894.9138,541.4535,884.9483,540.7976,874.9828,541.2643,865.0172,540.248,855.0517,540.1245,845.0862,541.3054,835.1207,540.0848,825.1552,541.3107,815.1897,541.0084,805.2241,540.5338,795.2586,540.448,785.2931,541.2605,775.3276,540.5024,765.3621,541.3936,755.3966,540.249,745.431,541.4192,735.4655,541.2861,725.5,540.8018,725.745,540.8018,725.5472,530.6971,726.2266,520.5925,726.1136,510.4879,725.6693,500.3833,725.7682,490.2786,725.3697,480.174,726.2165,470.0694,725.6549,459.9648,725.6726,449.8601,724.8916,439.7555,725.0948,429.6509,726.0307,419.5463,725.9298,409.4416,725.4571,399.337,725.1778,389.2324,725.2811,379.1278,724.8138,369.0231,725.9147,358.9185,726.2396,348.8139,726.0264,338.7093,726.1949,328.6046,725.5,318.5" style="stroke: #228B22; stroke-width: 3.0;"/><text fill="#228B22" font-family="sans-serif" font-size="12" font-style="italic" lengthAdjust="spacingAndGlyphs" textLength="61" x="839.5" y="336.957">«Mediator»</text><text fill="#228B22" font-family="courier" font-size="20" font-weight="bold" lengthAdjust="spacingAndGlyphs" textLength="84" x="828" y="361.7012">Referee</text><path d="M726.5,373.707 L726.5,373.9873 L736.3966,373.1546 L746.2931,373.9647 L756.1897,374.2399 L766.0862,372.7558 L775.9828,373.6034 L785.8793,373.1384 L795.7759,373.1957 L805.6724,373.6162 L815.569,372.7852 L825.4655,374.4452 L835.3621,372.8667 L845.2586,373.4433 L855.1552,374.283 L865.0517,373.5927 L874.9483,373.798 L884.8448,373.6644 L894.7414,373.9451 L904.6379,374.0259 L914.5345,374.488 L924.431,374.6018 L934.3276,374.6127 L944.2241,374.0465 L954.1207,374.3251 L964.0172,374.6433 L973.9138,372.7455 L983.8103,374.6117 L993.7069,373.3117 L1003.6034,374.4188 L1013.5,373.707 " fill="#222222" style="stroke: #228B22; stroke-width: 3.0;"/><path d="M726.5,381.707 L726.5,381.9873 L736.3966,381.1546 L746.2931,381.9647 L756.1897,382.2399 L766.0862,380.7558 L775.9828,381.6034 L785.8793,381.1384 L795.7759,381.1957 L805.6724,381.6162 L815.569,380.7852 L825.4655,382.4452 L835.3621,380.8667 L845.2586,381.4433 L855.1552,382.283 L865.0517,381.5927 L874.9483,381.798 L884.8448,381.6644 L894.7414,381.9451 L904.6379,382.0259 L914.5345,382.488 L924.431,382.6018 L934.3276,382.6127 L944.2241,382.0465 L954.1207,382.3251 L964.0172,382.6433 L973.9138,380.7455 L983.8103,382.6117 L993.7069,381.3117 L1003.6034,382.4188 L1013.5,381.707 " fill="#222222" style="stroke: #228B22; stroke-width: 3.0;"/><polygon fill="#FFFF44" points="736.5,392.9995,736.5495,393.0491,737.2023,393.7019,738.1456,394.6451,738.9942,395.4937,739.5319,396.0314,740.5,396.9995,740.4817,396.9812,739.5995,397.699,738.8096,398.5091,738.0839,399.3834,737.137,400.0366,736.5,400.9995,736.6305,401.13,735.5514,400.051,734.8534,399.3529,734.2018,398.7013,733.2798,397.7793,732.5,396.9995,732.5161,397.0156,733.2925,396.192,734.1421,395.4416,734.9564,394.6559,735.838,393.9376,736.5,392.9995" style="stroke: #B38D22; stroke-width: 1.0;"/><text fill="#A9A9A9" font-family="courier" font-size="15" lengthAdjust="spacingAndGlyphs" textLength="153" x="746.5" y="401.7876">performCoinToss()</text><polygon fill="#F24D5C" points="733.5,416.5845,733.5,416.6545,734.7,416.4464,735.9,416.6489,737.1,416.7177,738.3,416.3467,739.5,416.5845,739.4741,416.5845,739.3578,417.7845,739.3722,418.9845,739.4773,420.1845,739.2695,421.3845,739.5,422.5845,739.5,422.769,738.3,422.3744,737.1,422.5186,735.9,422.7285,734.7,422.5559,733.5,422.5845,733.5227,422.5845,733.4894,421.3845,733.5595,420.1845,733.5797,418.9845,733.6952,417.7845,733.5,416.5845" style="stroke: #C82930; stroke-width: 1.0;"/><text fill="#A9A9A9" font-family="courier" font-size="15" lengthAdjust="spacingAndGlyphs" textLength="252" x="746.5" y="423.3726">informTeammembersAboutGoal()</text><polygon fill="#FFFF44" points="736.5,436.1694,736.5495,436.219,737.2023,436.8718,738.1456,437.815,738.9942,438.6636,739.5319,439.2013,740.5,440.1694,740.4817,440.1511,739.5995,440.8689,738.8096,441.679,738.0839,442.5534,737.137,443.2065,736.5,444.1694,736.6305,444.2999,735.5514,443.2209,734.8534,442.5228,734.2018,441.8712,733.2798,440.9492,732.5,440.1694,732.5161,440.1855,733.2925,439.3619,734.1421,438.6115,734.9564,437.8258,735.838,437.1075,736.5,436.1694" style="stroke: #B38D22; stroke-width: 1.0;"/><text fill="#A9A9A9" font-family="courier" font-size="15" lengthAdjust="spacingAndGlyphs" textLength="180" x="746.5" y="444.9575">answerYesNoRequest()</text><polygon fill="#FFFF44" points="736.5,457.7544,736.5495,457.8039,737.2023,458.4567,738.1456,459.4,738.9942,460.2486,739.5319,460.7862,740.5,461.7544,740.4817,461.7361,739.5995,462.4539,738.8096,463.264,738.0839,464.1383,737.137,464.7914,736.5,465.7544,736.6305,465.8849,735.5514,464.8058,734.8534,464.1078,734.2018,463.4562,733.2798,462.5342,732.5,461.7544,732.5161,461.7705,733.2925,460.9469,734.1421,460.1965,734.9564,459.4108,735.838,458.6924,736.5,457.7544" style="stroke: #B38D22; stroke-width: 1.0;"/><text fill="#A9A9A9" font-family="courier" font-size="15" lengthAdjust="spacingAndGlyphs" textLength="243" x="746.5" y="466.5425">answerSubstitutionRequest()</text><polygon fill="#FFFF44" points="736.5,479.3394,736.5495,479.3889,737.2023,480.0417,738.1456,480.9849,738.9942,481.8336,739.5319,482.3712,740.5,483.3394,740.4817,483.321,739.5995,484.0388,738.8096,484.849,738.0839,485.7233,737.137,486.3764,736.5,487.3394,736.6305,487.4699,735.5514,486.3908,734.8534,485.6927,734.2018,485.0412,733.2798,484.1191,732.5,483.3394,732.5161,483.3554,733.2925,482.5318,734.1421,481.7814,734.9564,480.9957,735.838,480.2774,736.5,479.3394" style="stroke: #B38D22; stroke-width: 1.0;"/><text fill="#A9A9A9" font-family="courier" font-size="15" lengthAdjust="spacingAndGlyphs" textLength="198" x="746.5" y="488.1274">answermassageRequest()</text><polygon fill="#F24D5C" points="733.5,502.9243,733.5,502.9944,734.7,502.7862,735.9,502.9887,737.1,503.0575,738.3,502.6865,739.5,502.9243,739.4741,502.9243,739.3578,504.1243,739.3722,505.3243,739.4773,506.5243,739.2695,507.7243,739.5,508.9243,739.5,509.1089,738.3,508.7142,737.1,508.8584,735.9,509.0683,734.7,508.8957,733.5,508.9243,733.5227,508.9243,733.4894,507.7243,733.5595,506.5243,733.5797,505.3243,733.6952,504.1243,733.5,502.9243" style="stroke: #C82930; stroke-width: 1.0;"/><text fill="#A9A9A9" font-family="courier" font-size="15" lengthAdjust="spacingAndGlyphs" textLength="261" x="746.5" y="509.7124">informTeamMembrsAboutAnswer()</text><polygon fill="#FFFF44" points="736.5,522.5093,736.5495,522.5588,737.2023,523.2116,738.1456,524.1548,738.9942,525.0035,739.5319,525.5411,740.5,526.5093,740.4817,526.491,739.5995,527.2088,738.8096,528.0189,738.0839,528.8932,737.137,529.5463,736.5,530.5093,736.6305,530.6398,735.5514,529.5607,734.8534,528.8627,734.2018,528.2111,733.2798,527.2891,732.5,526.5093,732.5161,526.5254,733.2925,525.7017,734.1421,524.9514,734.9564,524.1656,735.838,523.4473,736.5,522.5093" style="stroke: #B38D22; stroke-width: 1.0;"/><text fill="#A9A9A9" font-family="courier" font-size="15" lengthAdjust="spacingAndGlyphs" textLength="252" x="746.5" y="531.2974">generateRandom(int, boolean)</text><!--class SevereReferee--><polygon fill="#222222" points="1040,611,1040,611.2102,1050,610.5857,1060,611.1933,1070,611.3997,1080,610.2866,1090,610.9223,1100,610.5735,1110,610.6165,1120,610.9318,1130,610.3086,1140,611.5536,1150,610.3697,1160,610.8022,1170,611.4319,1180,610.9142,1190,611.0682,1200,610.9681,1210,611.1785,1220,611.2391,1230,611.5857,1240,611.6711,1250,611.6793,1260,611.2546,1270,611.4636,1280,611.7022,1290,610.2788,1300,611.6785,1310,610.7035,1320,611,1320.5338,611,1319.505,621.3102,1319.9315,631.6204,1320.7416,641.9307,1319.9513,652.2409,1320.1053,662.5511,1320.3386,672.8613,1320.4162,683.1715,1319.9961,693.4818,1320,703.792,1320,704.0792,1310,703.2196,1300,704.0764,1290,704.3402,1280,704.2365,1270,704.405,1260,703.3089,1250,703.1398,1240,703.1706,1230,703.7331,1220,703.5955,1210,704.4734,1200,703.6173,1190,703.4489,1180,704.0203,1170,703.1252,1160,703.2729,1150,704.4409,1140,704.2277,1130,704.5265,1120,703.4702,1110,704.1112,1100,704.3824,1090,703.3196,1080,703.6961,1070,703.918,1060,704.4438,1050,703.7878,1040,703.792,1040.4626,703.792,1039.4462,693.4818,1039.3227,683.1715,1040.5036,672.8613,1039.2831,662.5511,1040.509,652.2409,1040.2066,641.9307,1039.7321,631.6204,1039.6462,621.3102,1040,611" style="stroke: #228B22; stroke-width: 3.0;"/><text fill="#228B22" font-family="sans-serif" font-size="12" font-style="italic" lengthAdjust="spacingAndGlyphs" textLength="119" x="1120.5" y="629.457">«ConcreteMediatorA»</text><text fill="#228B22" font-family="courier" font-size="20" font-weight="bold" lengthAdjust="spacingAndGlyphs" textLength="156" x="1102" y="654.2012">SevereReferee</text><path d="M1041,666.207 L1041,666.4873 L1050.9286,665.6546 L1060.8571,666.4647 L1070.7857,666.7399 L1080.7143,665.2558 L1090.6429,666.1034 L1100.5714,665.6384 L1110.5,665.6957 L1120.4286,666.1162 L1130.3571,665.2852 L1140.2857,666.9452 L1150.2143,665.3667 L1160.1429,665.9433 L1170.0714,666.783 L1180,666.0927 L1189.9286,666.298 L1199.8571,666.1644 L1209.7857,666.4451 L1219.7143,666.5259 L1229.6429,666.988 L1239.5714,667.1018 L1249.5,667.1127 L1259.4286,666.5465 L1269.3571,666.8251 L1279.2857,667.1433 L1289.2143,665.2455 L1299.1429,667.1117 L1309.0714,665.8117 L1319,666.207 " fill="#222222" style="stroke: #228B22; stroke-width: 3.0;"/><path d="M1041,674.207 L1041,674.4873 L1050.9286,673.6546 L1060.8571,674.4647 L1070.7857,674.7399 L1080.7143,673.2558 L1090.6429,674.1034 L1100.5714,673.6384 L1110.5,673.6957 L1120.4286,674.1162 L1130.3571,673.2852 L1140.2857,674.9452 L1150.2143,673.3667 L1160.1429,673.9433 L1170.0714,674.783 L1180,674.0927 L1189.9286,674.298 L1199.8571,674.1644 L1209.7857,674.4451 L1219.7143,674.5259 L1229.6429,674.988 L1239.5714,675.1018 L1249.5,675.1127 L1259.4286,674.5465 L1269.3571,674.8251 L1279.2857,675.1433 L1289.2143,673.2455 L1299.1429,675.1117 L1309.0714,673.8117 L1319,674.207 " fill="#222222" style="stroke: #228B22; stroke-width: 3.0;"/><polygon fill="#FFFF44" points="1051,685.4995,1051.0495,685.5491,1051.7023,686.2019,1052.6456,687.1451,1053.4942,687.9937,1054.0319,688.5314,1055,689.4995,1054.9817,689.4812,1054.0995,690.199,1053.3096,691.0091,1052.5839,691.8834,1051.637,692.5366,1051,693.4995,1051.1305,693.63,1050.0514,692.551,1049.3534,691.8529,1048.7018,691.2013,1047.7798,690.2793,1047,689.4995,1047.0161,689.5156,1047.7925,688.692,1048.6421,687.9416,1049.4564,687.1559,1050.338,686.4376,1051,685.4995" style="stroke: #B38D22; stroke-width: 1.0;"/><text fill="#A9A9A9" font-family="courier" font-size="15" lengthAdjust="spacingAndGlyphs" textLength="252" x="1061" y="694.2876">generateRandom(int, boolean)</text><!--class PermissiveReferee--><polygon fill="#222222" points="725,611,725,611.2102,735,610.5857,745,611.1933,755,611.3997,765,610.2866,775,610.9223,785,610.5735,795,610.6165,805,610.9318,815,610.3086,825,611.5536,835,610.3697,845,610.8022,855,611.4319,865,610.9142,875,611.0682,885,610.9681,895,611.1785,905,611.2391,915,611.5857,925,611.6711,935,611.6793,945,611.2546,955,611.4636,965,611.7022,975,610.2788,985,611.6785,995,610.7035,1005,611,1005.5338,611,1004.505,621.3102,1004.9315,631.6204,1005.7416,641.9307,1004.9513,652.2409,1005.1053,662.5511,1005.3386,672.8613,1005.4162,683.1715,1004.9961,693.4818,1005,703.792,1005,704.0792,995,703.2196,985,704.0764,975,704.3402,965,704.2365,955,704.405,945,703.3089,935,703.1398,925,703.1706,915,703.7331,905,703.5955,895,704.4734,885,703.6173,875,703.4489,865,704.0203,855,703.1252,845,703.2729,835,704.4409,825,704.2277,815,704.5265,805,703.4702,795,704.1112,785,704.3824,775,703.3196,765,703.6961,755,703.918,745,704.4438,735,703.7878,725,703.792,725.4626,703.792,724.4462,693.4818,724.3227,683.1715,725.5036,672.8613,724.2831,662.5511,725.509,652.2409,725.2066,641.9307,724.7321,631.6204,724.6462,621.3102,725,611" style="stroke: #228B22; stroke-width: 3.0;"/><text fill="#228B22" font-family="sans-serif" font-size="12" font-style="italic" lengthAdjust="spacingAndGlyphs" textLength="119" x="805.5" y="629.457">«ConcreteMediatorB»</text><text fill="#228B22" font-family="courier" font-size="20" font-weight="bold" lengthAdjust="spacingAndGlyphs" textLength="204" x="763" y="654.2012">PermissiveReferee</text><path d="M726,666.207 L726,666.4873 L735.9286,665.6546 L745.8571,666.4647 L755.7857,666.7399 L765.7143,665.2558 L775.6429,666.1034 L785.5714,665.6384 L795.5,665.6957 L805.4286,666.1162 L815.3571,665.2852 L825.2857,666.9452 L835.2143,665.3667 L845.1429,665.9433 L855.0714,666.783 L865,666.0927 L874.9286,666.298 L884.8571,666.1644 L894.7857,666.4451 L904.7143,666.5259 L914.6429,666.988 L924.5714,667.1018 L934.5,667.1127 L944.4286,666.5465 L954.3571,666.8251 L964.2857,667.1433 L974.2143,665.2455 L984.1429,667.1117 L994.0714,665.8117 L1004,666.207 " fill="#222222" style="stroke: #228B22; stroke-width: 3.0;"/><path d="M726,674.207 L726,674.4873 L735.9286,673.6546 L745.8571,674.4647 L755.7857,674.7399 L765.7143,673.2558 L775.6429,674.1034 L785.5714,673.6384 L795.5,673.6957 L805.4286,674.1162 L815.3571,673.2852 L825.2857,674.9452 L835.2143,673.3667 L845.1429,673.9433 L855.0714,674.783 L865,674.0927 L874.9286,674.298 L884.8571,674.1644 L894.7857,674.4451 L904.7143,674.5259 L914.6429,674.988 L924.5714,675.1018 L934.5,675.1127 L944.4286,674.5465 L954.3571,674.8251 L964.2857,675.1433 L974.2143,673.2455 L984.1429,675.1117 L994.0714,673.8117 L1004,674.207 " fill="#222222" style="stroke: #228B22; stroke-width: 3.0;"/><polygon fill="#FFFF44" points="736,685.4995,736.0495,685.5491,736.7023,686.2019,737.6456,687.1451,738.4942,687.9937,739.0319,688.5314,740,689.4995,739.9817,689.4812,739.0995,690.199,738.3096,691.0091,737.5839,691.8834,736.637,692.5366,736,693.4995,736.1305,693.63,735.0514,692.551,734.3534,691.8529,733.7018,691.2013,732.7798,690.2793,732,689.4995,732.0161,689.5156,732.7925,688.692,733.6421,687.9416,734.4564,687.1559,735.338,686.4376,736,685.4995" style="stroke: #B38D22; stroke-width: 1.0;"/><text fill="#A9A9A9" font-family="courier" font-size="15" lengthAdjust="spacingAndGlyphs" textLength="252" x="746" y="694.2876">generateRandom(int, boolean)</text><!--class Scenario--><polygon fill="#222222" points="1016,8.5,1016,8.7102,1026.4,8.0857,1036.8,8.6933,1047.2,8.8997,1057.6,7.7866,1068,8.4223,1078.4,8.0735,1088.8,8.1165,1099.2,8.4318,1109.6,7.8086,1120,8.5,1120.5536,8.5,1119.3697,17.9623,1119.8022,27.4246,1120.4319,36.8868,1119.9142,46.3491,1120.0682,55.8114,1119.9681,65.2737,1120.1785,74.736,1120,84.1982,1120,84.4374,1109.6,84.7839,1099.2,84.8693,1088.8,84.8775,1078.4,84.4529,1068,84.6618,1057.6,84.9005,1047.2,83.4771,1036.8,84.8768,1026.4,83.9017,1016,84.1982,1016.5338,84.1982,1015.505,74.736,1015.9315,65.2737,1016.7416,55.8114,1015.9513,46.3491,1016.1053,36.8868,1016.3386,27.4246,1016.4162,17.9623,1016,8.5" style="stroke: #228B22; stroke-width: 3.0;"/><text fill="#228B22" font-family="courier" font-size="20" font-weight="bold" lengthAdjust="spacingAndGlyphs" textLength="96" x="1020" y="34.6074">Scenario</text><path d="M1017,46.6133 L1017,46.8935 L1027.2,46.0609 L1037.4,46.871 L1047.6,47.1462 L1057.8,45.6621 L1068,46.5097 L1078.2,46.0446 L1088.4,46.1019 L1098.6,46.5224 L1108.8,45.6915 L1119,46.6133 " fill="#222222" style="stroke: #228B22; stroke-width: 3.0;"/><path d="M1017,54.6133 L1017,54.8935 L1027.2,54.0609 L1037.4,54.871 L1047.6,55.1462 L1057.8,53.6621 L1068,54.5097 L1078.2,54.0446 L1088.4,54.1019 L1098.6,54.5224 L1108.8,53.6915 L1119,54.6133 " fill="#222222" style="stroke: #228B22; stroke-width: 3.0;"/><polygon fill="#84BE84" points="1030.0166,71.6355,1029.5768,72.2363,1029.0567,73.1164,1028.3128,73.7095,1027.5311,74.0338,1026.9078,74.062,1026.1067,73.6564,1025.3509,73.3914,1024.7771,72.8534,1024.4762,72.2374,1024.2977,71.747,1024.1229,71.1064,1023.8391,70.5552,1024.0572,70.0169,1024.2482,69.4274,1024.9653,68.9611,1025.4697,68.3561,1026.0941,68.1552,1026.8364,67.9821,1027.7883,68.0849,1028.3097,68.3308,1028.9158,68.4423,1029.6529,69.1974,1029.9098,69.9946,1030.0214,70.5385,1029.895,71.4348" style="stroke: #038048; stroke-width: 1.0;"/><text fill="#A9A9A9" font-family="courier" font-size="15" lengthAdjust="spacingAndGlyphs" textLength="54" x="1037" y="74.6938">main()</text><!--class Match--><polygon fill="#222222" points="420,144.5,420,144.7102,430.2667,144.0857,440.5333,144.6933,450.8,144.8997,461.0667,143.7866,471.3333,144.4223,481.6,144.0735,491.8667,144.1165,502.1333,144.4318,512.4,143.8086,522.6667,145.0536,532.9333,143.8697,543.2,144.3022,553.4667,144.9319,563.7333,144.4142,574,144.5,574.0682,144.5,573.9681,154.8979,574.1785,165.2958,574.2391,175.6937,574.5857,186.0916,574.6711,196.4895,574.6793,206.8874,574.2546,217.2853,574.4636,227.6832,574.7022,238.0811,573.2788,248.479,574,258.877,574,259.5555,563.7333,258.5804,553.4667,259.4108,543.2,258.3819,532.9333,258.8085,522.6667,259.6186,512.4,258.8282,502.1333,258.9823,491.8667,259.2156,481.6,259.2932,471.3333,258.873,461.0667,259.1642,450.8,258.3045,440.5333,259.1613,430.2667,259.4251,420,258.877,420.4445,258.877,420.613,248.479,419.5169,238.0811,419.3478,227.6832,419.3786,217.2853,419.9411,206.8874,419.8035,196.4895,420.6814,186.0916,419.8253,175.6937,419.6569,165.2958,420.2283,154.8979,420,144.5" style="stroke: #228B22; stroke-width: 3.0;"/><text fill="#228B22" font-family="sans-serif" font-size="12" font-style="italic" lengthAdjust="spacingAndGlyphs" textLength="57" x="468.5" y="162.957">«Director»</text><text fill="#228B22" font-family="courier" font-size="20" font-weight="bold" lengthAdjust="spacingAndGlyphs" textLength="60" x="467" y="187.7012">Match</text><path d="M421,199.707 L421,199.9873 L431.1333,199.1546 L441.2667,199.9647 L451.4,200.2399 L461.5333,198.7558 L471.6667,199.6034 L481.8,199.1384 L491.9333,199.1957 L502.0667,199.6162 L512.2,198.7852 L522.3333,200.4452 L532.4667,198.8667 L542.6,199.4433 L552.7333,200.283 L562.8667,199.5927 L573,199.707 " fill="#222222" style="stroke: #228B22; stroke-width: 3.0;"/><path d="M421,207.707 L421,207.9873 L431.1333,207.1546 L441.2667,207.9647 L451.4,208.2399 L461.5333,206.7558 L471.6667,207.6034 L481.8,207.1384 L491.9333,207.1957 L502.0667,207.6162 L512.2,206.7852 L522.3333,208.4452 L532.4667,206.8667 L542.6,207.4433 L552.7333,208.283 L562.8667,207.5927 L573,207.707 " fill="#222222" style="stroke: #228B22; stroke-width: 3.0;"/><polygon fill="#84BE84" points="434.0166,224.7292,433.5768,225.3301,433.0567,226.2102,432.3128,226.8033,431.5311,227.1276,430.9078,227.1557,430.1067,226.7501,429.3509,226.4851,428.7771,225.9471,428.4762,225.3312,428.2977,224.8407,428.1229,224.2002,427.8391,223.6489,428.0572,223.1107,428.2482,222.5211,428.9653,222.0548,429.4697,221.4498,430.0941,221.2489,430.8364,221.0759,431.7883,221.1787,432.3097,221.4246,432.9158,221.536,433.6529,222.2911,433.9098,223.0883,434.0214,223.6322,433.895,224.5286" style="stroke: #038048; stroke-width: 1.0;"/><text fill="#A9A9A9" font-family="courier" font-size="15" lengthAdjust="spacingAndGlyphs" textLength="126" x="441" y="227.7876">Match(Referee)</text><polygon fill="#84BE84" points="434.0166,246.3142,433.5768,246.9151,433.0567,247.7951,432.3128,248.3882,431.5311,248.7125,430.9078,248.7407,430.1067,248.3351,429.3509,248.0701,428.7771,247.5321,428.4762,246.9161,428.2977,246.4257,428.1229,245.7851,427.8391,245.2339,428.0572,244.6957,428.2482,244.1061,428.9653,243.6398,429.4697,243.0348,430.0941,242.8339,430.8364,242.6608,431.7883,242.7636,432.3097,243.0095,432.9158,243.121,433.6529,243.8761,433.9098,244.6733,434.0214,245.2172,433.895,246.1135" style="stroke: #038048; stroke-width: 1.0;"/><text fill="#A9A9A9" font-family="courier" font-size="15" lengthAdjust="spacingAndGlyphs" textLength="54" x="441" y="249.3726">play()</text><!--class TeamMember--><polygon fill="#222222" points="609,166,609,166.2102,618.8462,165.5857,628.6923,166.1933,638.5385,166.3997,648.3846,165.2866,658.2308,165.9223,668.0769,165.5735,677.9231,165.6165,687.7692,165.9318,697.6154,165.3086,707.4615,166.5536,717.3077,165.3697,727.1538,165.8022,737,166,737.4319,166,736.9142,176.1724,737.0682,186.3449,736.9681,196.5173,737.1785,206.6897,737.2391,216.8622,737.5857,227.0346,737,237.207,737,237.8781,727.1538,237.8863,717.3077,237.4617,707.4615,237.6706,697.6154,237.9093,687.7692,236.4858,677.9231,237.8855,668.0769,236.9105,658.2308,237.7408,648.3846,236.712,638.5385,237.1385,628.6923,237.9486,618.8462,237.1583,609,237.207,609.1053,237.207,609.3386,227.0346,609.4162,216.8622,608.9961,206.6897,609.2872,196.5173,608.4276,186.3449,609.2844,176.1724,609,166" style="stroke: #228B22; stroke-width: 3.0;"/><text fill="#228B22" font-family="sans-serif" font-size="12" font-style="italic" lengthAdjust="spacingAndGlyphs" textLength="64" x="641" y="184.457">«Collegue»</text><text fill="#228B22" font-family="courier" font-size="20" font-weight="bold" lengthAdjust="spacingAndGlyphs" textLength="120" x="613" y="209.2012">TeamMember</text><path d="M610,221.207 L610,221.4873 L619.6923,220.6546 L629.3846,221.4647 L639.0769,221.7399 L648.7692,220.2558 L658.4615,221.1034 L668.1538,220.6384 L677.8462,220.6957 L687.5385,221.1162 L697.2308,220.2852 L706.9231,221.9452 L716.6154,220.3667 L726.3077,220.9433 L736,221.207 " fill="#222222" style="stroke: #228B22; stroke-width: 3.0;"/><path d="M610,229.207 L610,229.4873 L619.6923,228.6546 L629.3846,229.4647 L639.0769,229.7399 L648.7692,228.2558 L658.4615,229.1034 L668.1538,228.6384 L677.8462,228.6957 L687.5385,229.1162 L697.2308,228.2852 L706.9231,229.9452 L716.6154,228.3667 L726.3077,228.9433 L736,229.207 " fill="#222222" style="stroke: #228B22; stroke-width: 3.0;"/><!--class Player--><polygon fill="#222222" points="251.5,350.5,251.5,350.7102,261.45,350.0857,271.4,350.6933,281.35,350.8997,291.3,349.7866,301.25,350.4223,311.2,350.0735,321.15,350.1165,331.1,350.4318,341.05,349.8086,351,351.0536,360.95,349.8697,370.9,350.3022,380.85,350.9319,390.8,350.4142,400.75,350.5682,410.7,350.4681,420.65,350.6785,430.6,350.7391,440.55,351.0857,450.5,350.5,451.1711,350.5,451.1793,360.3467,450.7546,370.1934,450.9636,380.04,451.2022,389.8867,449.7788,399.7334,451.1785,409.5801,450.2035,419.4268,451.0338,429.2734,450.005,439.1201,450.4315,448.9668,451.2416,458.8135,450.4513,468.6602,450.6053,478.5068,450.8386,488.3535,450.9162,498.2002,450.5,508.0469,450.5,508.043,440.55,508.3341,430.6,507.4745,420.65,508.3313,410.7,508.5951,400.75,508.4914,390.8,508.6599,380.85,507.5638,370.9,507.3947,360.95,507.4255,351,507.988,341.05,507.8503,331.1,508.7283,321.15,507.8722,311.2,507.7038,301.25,508.2751,291.3,507.38,281.35,507.5277,271.4,508.6958,261.45,508.4825,251.5,508.0469,252.2345,508.0469,251.1782,498.2002,251.8192,488.3535,252.0904,478.5068,251.0276,468.6602,251.4041,458.8135,251.626,448.9668,252.1518,439.1201,251.4958,429.2734,251.9626,419.4268,250.9462,409.5801,250.8227,399.7334,252.0036,389.8867,250.7831,380.04,252.009,370.1934,251.7066,360.3467,251.5,350.5" style="stroke: #228B22; stroke-width: 3.0;"/><text fill="#228B22" font-family="sans-serif" font-size="12" font-style="italic" lengthAdjust="spacingAndGlyphs" textLength="122" x="290" y="368.957">«ConcreteCollegueA»</text><text fill="#228B22" font-family="courier" font-size="20" font-weight="bold" lengthAdjust="spacingAndGlyphs" textLength="72" x="315" y="393.7012">Player</text><path d="M252.5,405.707 L252.5,405.9873 L262.35,405.1546 L272.2,405.9647 L282.05,406.2399 L291.9,404.7558 L301.75,405.6034 L311.6,405.1384 L321.45,405.1957 L331.3,405.6162 L341.15,404.7852 L351,406.4452 L360.85,404.8667 L370.7,405.4433 L380.55,406.283 L390.4,405.5927 L400.25,405.798 L410.1,405.6644 L419.95,405.9451 L429.8,406.0259 L439.65,406.488 L449.5,405.707 " fill="#222222" style="stroke: #228B22; stroke-width: 3.0;"/><path d="M252.5,413.707 L252.5,413.9873 L262.35,413.1546 L272.2,413.9647 L282.05,414.2399 L291.9,412.7558 L301.75,413.6034 L311.6,413.1384 L321.45,413.1957 L331.3,413.6162 L341.15,412.7852 L351,414.4452 L360.85,412.8667 L370.7,413.4433 L380.55,414.283 L390.4,413.5927 L400.25,413.798 L410.1,413.6644 L419.95,413.9451 L429.8,414.0259 L439.65,414.488 L449.5,413.707 " fill="#222222" style="stroke: #228B22; stroke-width: 3.0;"/><polygon fill="#FFFF44" points="262.5,424.9995,262.5495,425.0491,263.2023,425.7019,264.1456,426.6451,264.9942,427.4937,265.5319,428.0314,266.5,428.9995,266.4817,428.9812,265.5995,429.699,264.8096,430.5091,264.0839,431.3834,263.137,432.0366,262.5,432.9995,262.6305,433.13,261.5514,432.051,260.8534,431.3529,260.2018,430.7013,259.2798,429.7793,258.5,428.9995,258.5161,429.0156,259.2925,428.192,260.1421,427.4416,260.9564,426.6559,261.838,425.9376,262.5,424.9995" style="stroke: #B38D22; stroke-width: 1.0;"/><text fill="#A9A9A9" font-family="courier" font-size="15" lengthAdjust="spacingAndGlyphs" textLength="171" x="272.5" y="433.7876">requestYellowCard()</text><polygon fill="#FFFF44" points="262.5,446.5845,262.5495,446.634,263.2023,447.2868,264.1456,448.23,264.9942,449.0787,265.5319,449.6163,266.5,450.5845,266.4817,450.5662,265.5995,451.2839,264.8096,452.0941,264.0839,452.9684,263.137,453.6215,262.5,454.5845,262.6305,454.715,261.5514,453.6359,260.8534,452.9379,260.2018,452.2863,259.2798,451.3643,258.5,450.5845,258.5161,450.6006,259.2925,449.7769,260.1421,449.0266,260.9564,448.2408,261.838,447.5225,262.5,446.5845" style="stroke: #B38D22; stroke-width: 1.0;"/><text fill="#A9A9A9" font-family="courier" font-size="15" lengthAdjust="spacingAndGlyphs" textLength="144" x="272.5" y="455.3726">requestRedCard()</text><polygon fill="#FFFF44" points="262.5,468.1694,262.5495,468.219,263.2023,468.8718,264.1456,469.815,264.9942,470.6636,265.5319,471.2013,266.5,472.1694,266.4817,472.1511,265.5995,472.8689,264.8096,473.679,264.0839,474.5534,263.137,475.2065,262.5,476.1694,262.6305,476.2999,261.5514,475.2209,260.8534,474.5228,260.2018,473.8712,259.2798,472.9492,258.5,472.1694,258.5161,472.1855,259.2925,471.3619,260.1421,470.6115,260.9564,469.8258,261.838,469.1075,262.5,468.1694" style="stroke: #B38D22; stroke-width: 1.0;"/><text fill="#A9A9A9" font-family="courier" font-size="15" lengthAdjust="spacingAndGlyphs" textLength="144" x="272.5" y="476.9575">requestPenalti()</text><polygon fill="#FFFF44" points="262.5,489.7544,262.5495,489.8039,263.2023,490.4567,264.1456,491.4,264.9942,492.2486,265.5319,492.7862,266.5,493.7544,266.4817,493.7361,265.5995,494.4539,264.8096,495.264,264.0839,496.1383,263.137,496.7914,262.5,497.7544,262.6305,497.8849,261.5514,496.8058,260.8534,496.1078,260.2018,495.4562,259.2798,494.5342,258.5,493.7544,258.5161,493.7705,259.2925,492.9469,260.1421,492.1965,260.9564,491.4108,261.838,490.6924,262.5,489.7544" style="stroke: #B38D22; stroke-width: 1.0;"/><text fill="#A9A9A9" font-family="courier" font-size="15" lengthAdjust="spacingAndGlyphs" textLength="144" x="272.5" y="498.5425">requestMassage()</text><!--class Captain--><polygon fill="#222222" points="6,600.5,6,600.7102,15.9048,600.0857,25.8095,600.6933,35.7143,600.8997,45.619,599.7866,55.5238,600.4223,65.4286,600.0735,75.3333,600.1165,85.2381,600.4318,95.1429,599.8086,105.0476,601.0536,114.9524,599.8697,124.8571,600.3022,134.7619,600.9319,144.6667,600.4142,154.5714,600.5682,164.4762,600.4681,174.381,600.6785,184.2857,600.7391,194.1905,601.0857,204.0952,601.1711,214,600.5,214.6793,600.5,214.2546,610.8979,214.4636,621.2958,214.7022,631.6937,213.2788,642.0916,214.6785,652.4895,213.7035,662.8874,214.5338,673.2853,213.505,683.6832,213.9315,694.0811,214.7416,704.479,214,714.877,214,714.8282,204.0952,714.9823,194.1905,715.2156,184.2857,715.2932,174.381,714.873,164.4762,715.1642,154.5714,714.3045,144.6667,715.1613,134.7619,715.4251,124.8571,715.3215,114.9524,715.49,105.0476,714.3939,95.1429,714.2248,85.2381,714.2556,75.3333,714.8181,65.4286,714.6804,55.5238,715.5584,45.619,714.7023,35.7143,714.5339,25.8095,715.1052,15.9048,714.2101,6,714.877,5.4809,714.877,6.649,704.479,6.4357,694.0811,6.7345,683.6832,5.6782,673.2853,6.3192,662.8874,6.5904,652.4895,5.5276,642.0916,5.9041,631.6937,6.126,621.2958,6.6518,610.8979,6,600.5" style="stroke: #228B22; stroke-width: 3.0;"/><text fill="#228B22" font-family="sans-serif" font-size="12" font-style="italic" lengthAdjust="spacingAndGlyphs" textLength="130" x="45" y="618.957">«ConcreteCollegueAA»</text><text fill="#228B22" font-family="courier" font-size="20" font-weight="bold" lengthAdjust="spacingAndGlyphs" textLength="84" x="68" y="643.7012">Captain</text><path d="M7,655.707 L7,655.9873 L16.8095,655.1546 L26.619,655.9647 L36.4286,656.2399 L46.2381,654.7558 L56.0476,655.6034 L65.8571,655.1384 L75.6667,655.1957 L85.4762,655.6162 L95.2857,654.7852 L105.0952,656.4452 L114.9048,654.8667 L124.7143,655.4433 L134.5238,656.283 L144.3333,655.5927 L154.1429,655.798 L163.9524,655.6644 L173.7619,655.9451 L183.5714,656.0259 L193.381,656.488 L203.1905,656.6018 L213,655.707 " fill="#222222" style="stroke: #228B22; stroke-width: 3.0;"/><path d="M7,663.707 L7,663.9873 L16.8095,663.1546 L26.619,663.9647 L36.4286,664.2399 L46.2381,662.7558 L56.0476,663.6034 L65.8571,663.1384 L75.6667,663.1957 L85.4762,663.6162 L95.2857,662.7852 L105.0952,664.4452 L114.9048,662.8667 L124.7143,663.4433 L134.5238,664.283 L144.3333,663.5927 L154.1429,663.798 L163.9524,663.6644 L173.7619,663.9451 L183.5714,664.0259 L193.381,664.488 L203.1905,664.6018 L213,663.707 " fill="#222222" style="stroke: #228B22; stroke-width: 3.0;"/><polygon fill="#FFFF44" points="17,674.9995,17.0495,675.0491,17.7023,675.7019,18.6456,676.6451,19.4942,677.4937,20.0319,678.0314,21,678.9995,20.9817,678.9812,20.0995,679.699,19.3096,680.5091,18.5839,681.3834,17.637,682.0366,17,682.9995,17.1305,683.13,16.0514,682.051,15.3534,681.3529,14.7018,680.7013,13.7798,679.7793,13,678.9995,13.0161,679.0156,13.7925,678.192,14.6421,677.4416,15.4564,676.6559,16.338,675.9376,17,674.9995" style="stroke: #B38D22; stroke-width: 1.0;"/><text fill="#A9A9A9" font-family="courier" font-size="15" lengthAdjust="spacingAndGlyphs" textLength="180" x="27" y="683.7876">chooseHeadsOrTails()</text><polygon fill="#FFFF44" points="17,696.5845,17.0495,696.634,17.7023,697.2868,18.6456,698.23,19.4942,699.0787,20.0319,699.6163,21,700.5845,20.9817,700.5662,20.0995,701.2839,19.3096,702.0941,18.5839,702.9684,17.637,703.6215,17,704.5845,17.1305,704.715,16.0514,703.6359,15.3534,702.9379,14.7018,702.2863,13.7798,701.3643,13,700.5845,13.0161,700.6006,13.7925,699.7769,14.6421,699.0266,15.4564,698.2408,16.338,697.5225,17,696.5845" style="stroke: #B38D22; stroke-width: 1.0;"/><text fill="#A9A9A9" font-family="courier" font-size="15" lengthAdjust="spacingAndGlyphs" textLength="108" x="27" y="705.3726">chooseGoal()</text><!--class Coach--><polygon fill="#222222" points="249.5,611,249.5,611.2102,259.3636,610.5857,269.2273,611.1933,279.0909,611.3997,288.9545,610.2866,298.8182,610.9223,308.6818,610.5735,318.5455,610.6165,328.4091,610.9318,338.2727,610.3086,348.1364,611.5536,358,610.3697,367.8636,610.8022,377.7273,611.4319,387.5909,610.9142,397.4545,611.0682,407.3182,610.9681,417.1818,611.1785,427.0455,611.2391,436.9091,611.5857,446.7727,611.6711,456.6364,611.6793,466.5,611,466.7546,611,466.9636,621.3102,467.2022,631.6204,465.7788,641.9307,467.1785,652.2409,466.2035,662.5511,467.0338,672.8613,466.005,683.1715,466.4315,693.4818,466.5,703.792,466.5,704.5336,456.6364,703.7433,446.7727,703.8973,436.9091,704.1306,427.0455,704.2082,417.1818,703.7881,407.3182,704.0792,397.4545,703.2196,387.5909,704.0764,377.7273,704.3402,367.8636,704.2365,358,704.405,348.1364,703.3089,338.2727,703.1398,328.4091,703.1706,318.5455,703.7331,308.6818,703.5955,298.8182,704.4734,288.9545,703.6173,279.0909,703.4489,269.2273,704.0203,259.3636,703.1252,249.5,703.792,248.9809,703.792,250.149,693.4818,249.9357,683.1715,250.2345,672.8613,249.1782,662.5511,249.8192,652.2409,250.0904,641.9307,249.0276,631.6204,249.4041,621.3102,249.5,611" style="stroke: #228B22; stroke-width: 3.0;"/><text fill="#228B22" font-family="sans-serif" font-size="12" font-style="italic" lengthAdjust="spacingAndGlyphs" textLength="129" x="293.5" y="629.457">«ConcreteColleagueB»</text><text fill="#228B22" font-family="courier" font-size="20" font-weight="bold" lengthAdjust="spacingAndGlyphs" textLength="60" x="328" y="654.2012">Coach</text><path d="M250.5,666.207 L250.5,666.4873 L260.2727,665.6546 L270.0455,666.4647 L279.8182,666.7399 L289.5909,665.2558 L299.3636,666.1034 L309.1364,665.6384 L318.9091,665.6957 L328.6818,666.1162 L338.4545,665.2852 L348.2273,666.9452 L358,665.3667 L367.7727,665.9433 L377.5455,666.783 L387.3182,666.0927 L397.0909,666.298 L406.8636,666.1644 L416.6364,666.4451 L426.4091,666.5259 L436.1818,666.988 L445.9545,667.1018 L455.7273,667.1127 L465.5,666.207 " fill="#222222" style="stroke: #228B22; stroke-width: 3.0;"/><path d="M250.5,674.207 L250.5,674.4873 L260.2727,673.6546 L270.0455,674.4647 L279.8182,674.7399 L289.5909,673.2558 L299.3636,674.1034 L309.1364,673.6384 L318.9091,673.6957 L328.6818,674.1162 L338.4545,673.2852 L348.2273,674.9452 L358,673.3667 L367.7727,673.9433 L377.5455,674.783 L387.3182,674.0927 L397.0909,674.298 L406.8636,674.1644 L416.6364,674.4451 L426.4091,674.5259 L436.1818,674.988 L445.9545,675.1018 L455.7273,675.1127 L465.5,674.207 " fill="#222222" style="stroke: #228B22; stroke-width: 3.0;"/><polygon fill="#FFFF44" points="260.5,685.4995,260.5495,685.5491,261.2023,686.2019,262.1456,687.1451,262.9942,687.9937,263.5319,688.5314,264.5,689.4995,264.4817,689.4812,263.5995,690.199,262.8096,691.0091,262.0839,691.8834,261.137,692.5366,260.5,693.4995,260.6305,693.63,259.5514,692.551,258.8534,691.8529,258.2018,691.2013,257.2798,690.2793,256.5,689.4995,256.5161,689.5156,257.2925,688.692,258.1421,687.9416,258.9564,687.1559,259.838,686.4376,260.5,685.4995" style="stroke: #B38D22; stroke-width: 1.0;"/><text fill="#A9A9A9" font-family="courier" font-size="15" lengthAdjust="spacingAndGlyphs" textLength="189" x="270.5" y="694.2876">requestSubstitution()</text><!--class Physiotherapist--><polygon fill="#222222" points="502,619.5,502,619.7102,511.8947,619.0857,521.7895,619.6933,531.6842,619.8997,541.5789,618.7866,551.4737,619.4223,561.3684,619.0735,571.2632,619.1165,581.1579,619.4318,591.0526,618.8086,600.9474,620.0536,610.8421,618.8697,620.7368,619.3022,630.6316,619.9319,640.5263,619.4142,650.4211,619.5682,660.3158,619.4681,670.2105,619.6785,680.1053,619.7391,690,619.5,690.5857,619.5,690.6711,628.9623,690.6793,638.4246,690.2546,647.8868,690.4636,657.3491,690.7022,666.8114,689.2788,676.2737,690.6785,685.736,690,695.1982,690,694.9017,680.1053,695.7321,670.2105,694.7032,660.3158,695.1297,650.4211,695.9398,640.5263,695.1495,630.6316,695.3035,620.7368,695.5369,610.8421,695.6145,600.9474,695.1943,591.0526,695.4855,581.1579,694.6258,571.2632,695.4826,561.3684,695.7464,551.4737,695.6428,541.5789,695.8113,531.6842,694.7152,521.7895,694.5461,511.8947,694.5768,502,695.1982,501.9411,695.1982,501.8035,685.736,502.6814,676.2737,501.8253,666.8114,501.6569,657.3491,502.2283,647.8868,501.3332,638.4246,501.4809,628.9623,502,619.5" style="stroke: #228B22; stroke-width: 3.0;"/><text fill="#228B22" font-family="courier" font-size="20" font-weight="bold" lengthAdjust="spacingAndGlyphs" textLength="180" x="506" y="645.6074">Physiotherapist</text><path d="M503,657.6133 L503,657.8935 L512.7895,657.0609 L522.5789,657.871 L532.3684,658.1462 L542.1579,656.6621 L551.9474,657.5097 L561.7368,657.0446 L571.5263,657.1019 L581.3158,657.5224 L591.1053,656.6915 L600.8947,658.3515 L610.6842,656.7729 L620.4737,657.3496 L630.2632,658.1892 L640.0526,657.4989 L649.8421,657.7043 L659.6316,657.5707 L669.4211,657.8513 L679.2105,657.9321 L689,657.6133 " fill="#222222" style="stroke: #228B22; stroke-width: 3.0;"/><path d="M503,665.6133 L503,665.8935 L512.7895,665.0609 L522.5789,665.871 L532.3684,666.1462 L542.1579,664.6621 L551.9474,665.5097 L561.7368,665.0446 L571.5263,665.1019 L581.3158,665.5224 L591.1053,664.6915 L600.8947,666.3515 L610.6842,664.7729 L620.4737,665.3496 L630.2632,666.1892 L640.0526,665.4989 L649.8421,665.7043 L659.6316,665.5707 L669.4211,665.8513 L679.2105,665.9321 L689,665.6133 " fill="#222222" style="stroke: #228B22; stroke-width: 3.0;"/><polygon fill="#FFFF44" points="513,676.9058,513.0495,676.9553,513.7023,677.6081,514.6456,678.5513,515.4942,679.4,516.0319,679.9376,517,680.9058,516.9817,680.8874,516.0995,681.6052,515.3096,682.4154,514.5839,683.2897,513.637,683.9428,513,684.9058,513.1305,685.0363,512.0514,683.9572,511.3534,683.2591,510.7018,682.6076,509.7798,681.6855,509,680.9058,509.0161,680.9218,509.7925,680.0982,510.6421,679.3478,511.4564,678.5621,512.338,677.8438,513,676.9058" style="stroke: #B38D22; stroke-width: 1.0;"/><text fill="#A9A9A9" font-family="courier" font-size="15" lengthAdjust="spacingAndGlyphs" textLength="126" x="523" y="685.6938">givetMassage()</text><!--link Scenario to Match--><path d="M1015.92,52.31 L1015.9302,52.4029 L1012.3224,52.5217 L1008.7746,53.1849 L1005.2072,53.6709 L1001.5756,53.574 L998.0329,54.2839 L998.0288,54.2496 L994.0139,54.5698 L990.0195,55.063 L986.0394,55.6763 L982.0101,55.8755 L978.0497,56.6548 L978.0808,56.8989 L973.6387,56.9351 L969.2874,57.684 L964.9472,58.5198 L960.5425,58.8498 L956.1718,59.4458 L956.1759,59.4759 L951.4556,60.0786 L946.7541,60.8182 L942.0435,61.4917 L937.3502,62.2912 L932.6006,62.6802 L932.6442,62.9752 L927.6321,63.719 L922.592,64.2724 L917.593,65.1045 L912.5959,65.9496 L907.5377,66.381 L907.4873,66.0644 L902.3144,67.5169 L896.9757,67.927 L891.763,69.1295 L886.4205,69.516 L881.1844,70.5714 L881.1792,70.5414 L875.7516,71.8369 L870.2038,72.4313 L864.727,73.4394 L859.256,74.4823 L853.7422,75.2746 L853.7758,75.4565 L848.0759,76.3207 L842.4335,77.4958 L836.6981,78.1679 L831.1014,79.5902 L825.4125,80.5138 L825.4602,80.7527 L819.6481,81.8671 L813.8596,83.1002 L807.961,83.7822 L802.1432,84.8681 L796.3968,86.312 L796.3384,86.0421 L790.4912,87.5625 L784.5783,88.7788 L778.7607,90.4363 L772.7802,91.3405 L766.8966,92.6925 L766.8617,92.5441 L760.9631,94.1885 L754.9155,95.1984 L748.9738,96.6595 L743.1357,98.5621 L737.1132,99.6785 L737.1601,99.8663 L734.2052,100.7406 L731.1046,101.0306 L728.1866,102.0524 L725.2288,102.9148 L722.1783,103.4057 L722.1254,103.2025 L719.1815,104.1419 L716.2203,105.0148 L713.2932,106.0184 L710.2337,106.5137 L707.2481,107.293 L707.3021,107.4914 L704.2035,107.8655 L701.2091,108.6226 L698.3667,109.9391 L695.2444,110.2257 L692.3479,111.3432 L692.4097,111.5608 L689.404,112.2747 L686.3774,112.9151 L683.3979,113.7216 L680.5276,114.9121 L677.5028,115.5592 L677.465,115.4317 L674.6248,116.6883 L671.527,117.0776 L668.7221,118.4531 L665.7523,119.2734 L662.738,119.944 L662.7704,120.048 L659.8124,120.8753 L656.9702,122.0749 L654.0234,122.9382 L651.0329,123.6609 L648.0788,124.5004 L648.1157,124.6137 L645.1551,125.3915 L642.3659,126.6955 L639.3829,127.4044 L636.4796,128.358 L633.5501,129.2313 L633.4627,128.9754 L630.6174,130.0425 L627.8772,131.4178 L624.9882,132.357 L622.0457,133.1399 L619.1773,134.1396 L619.129,134.0048 L616.3061,135.0657 L613.3977,135.888 L610.7245,137.3663 L607.9349,138.5199 L604.9856,139.2282 L605.0681,139.4471 L602.2974,140.5716 L599.3699,141.2801 L596.6079,142.4275 L593.7364,143.2844 L591,144.5 L591.0491,144.6163 L588.6267,145.621 L586.2635,146.7662 L583.7123,147.466 L581.3128,148.525 L578.92,149.6 " fill="none" style="stroke: #A9A9A9; stroke-width: 2.0; stroke-dasharray: 7.0,7.0;"/><polygon fill="#A9A9A9" points="574.2,151.81,574.2013,151.88,576.1669,151.6353,578.1401,151.8012,580.1108,151.8334,582.0733,151.4259,584.0472,151.6271,584.0383,151.6027,582.9353,151.107,581.8769,150.734,580.8494,150.4463,579.7152,149.8646,578.7306,149.6948,578.904,149.7578,578.9195,148.5597,579.4415,147.5456,580.0252,146.554,580.2495,145.4317,580.6628,144.3782,580.68,144.3931,579.3622,145.8576,578.1226,147.39,576.8453,148.8896,575.6399,150.4517,574.2,151.81" style="stroke: #A9A9A9; stroke-width: 2.0;"/><!--link Scenario to SevereReferee--><path d="M1078.84,84.61 L1078.9301,84.6347 L1079.4377,87.3894 L1080.4733,90.2889 L1081.3371,93.1412 L1081.6352,95.8386 L1082.7163,98.7505 L1082.6828,98.7417 L1083.3247,101.717 L1084.1349,104.7365 L1085.0622,107.7867 L1085.5861,110.731 L1086.675,113.8238 L1086.9138,113.883 L1087.1694,116.8441 L1088.1222,119.9781 L1089.1601,123.1333 L1089.703,126.1657 L1090.5063,129.2627 L1090.5358,129.2694 L1091.1912,132.307 L1091.9811,135.3753 L1092.7061,138.4288 L1093.555,141.5107 L1094,144.5 L1094.2917,144.562 L1095.645,150.9152 L1096.81,157.2285 L1098.2505,163.6003 L1099.7039,169.9749 L1100.7483,176.2625 L1100.4342,176.1986 L1102.3593,182.7913 L1103.2502,189.1736 L1104.9273,195.7159 L1105.7947,202.0934 L1107.3258,208.606 L1107.2959,208.6001 L1108.9276,215.2123 L1109.8612,221.6881 L1111.2068,228.2444 L1112.5869,234.8074 L1113.7175,241.3217 L1113.8993,241.3559 L1114.954,247.8972 L1116.3193,254.497 L1117.1821,261.0022 L1118.7945,267.6485 L1119.9084,274.2009 L1120.1481,274.2446 L1121.2979,280.8031 L1122.5666,287.3834 L1123.2823,293.863 L1124.4034,300.4164 L1125.8836,307.0351 L1125.6116,306.9871 L1127.0067,313.5466 L1128.0954,320.0521 L1129.6285,326.6359 L1130.4027,333.0859 L1131.6281,339.6154 L1131.4778,339.5897 L1132.8278,346.0561 L1133.5355,352.4126 L1134.6999,358.8472 L1136.3114,365.3584 L1137.1269,371.7333 L1137.3179,371.7651 L1138.4965,378.0763 L1139.081,384.2885 L1140.4097,390.6246 L1141.5762,396.9338 L1142.365,403.18 L1141.7431,403.0802 L1143.8445,413.1673 L1145.7423,423.2217 L1148.0402,433.3403 L1148.7824,443.2092 L1151.0026,453.3154 L1151.9994,463.2252 L1151.2696,463.1133 L1152.5089,472.231 L1155.4672,481.6124 L1155.2606,490.5085 L1158.2783,499.899 L1159.2819,508.9806 L1160.4116,518.0816 L1160.0582,518.0295 L1161.3589,527.6124 L1163.8448,537.3699 L1164.2588,546.8223 L1166.8484,556.595 L1167.4817,566.0796 L1167.2385,566.0451 L1168.875,574.0123 L1169.9381,581.8981 L1170.9545,589.7772 L1171.9891,597.6589 L1173.09,605.55 " fill="none" style="stroke: #A9A9A9; stroke-width: 2.0; stroke-dasharray: 7.0,7.0;"/><polygon fill="#A9A9A9" points="1173.8,610.67,1173.8673,610.6894,1174.2124,608.7389,1174.9521,606.9021,1175.5632,605.0283,1175.7518,603.0328,1176.5253,601.2057,1176.5047,601.1901,1175.7295,602.0223,1175.0584,602.9333,1174.4598,603.899,1173.6116,604.6761,1173.1129,605.7174,1173.2243,605.8646,1172.0839,604.8674,1171.2685,604.2999,1170.4928,603.7848,1169.4863,602.9647,1168.6012,602.305,1168.6206,602.317,1169.6319,603.9724,1170.7313,605.6824,1171.7882,607.3661,1172.9261,609.1001,1173.8,610.67" style="stroke: #A9A9A9; stroke-width: 2.0;"/><!--link Scenario to PermissiveReferee--><path d="M1069.34,84.82 L1069.4334,84.8225 L1069.2684,89.002 L1069.6508,93.1962 L1069.855,97.3856 L1069.473,101.5593 L1069.9024,105.7547 L1069.8679,105.754 L1069.815,110.6521 L1069.9362,115.5538 L1070.1785,120.458 L1070.0037,125.3535 L1070.413,130.2612 L1070.6591,130.2646 L1070.2104,135.7629 L1070.4801,141.2713 L1070.8374,146.7809 L1070.6847,152.2833 L1070.8003,157.7895 L1070.8306,157.7897 L1070.8245,163.7895 L1070.9565,169.7902 L1071.0219,175.7905 L1071.2144,181.7916 L1070.9925,187.79 L1071.2907,187.7907 L1071.2795,194.1753 L1071.0759,200.5594 L1071.1538,206.9442 L1071.245,213.329 L1070.918,219.7128 L1070.5975,219.7088 L1071.1369,226.3756 L1070.621,233.0293 L1070.9075,239.693 L1070.3677,246.3464 L1070.5051,253.0082 L1070.4746,253.0075 L1070.67,259.8398 L1070.1542,266.6549 L1070.0581,273.4802 L1069.9972,280.3064 L1069.6821,287.1264 L1069.867,287.1334 L1069.4195,294.0045 L1069.2878,300.8877 L1068.6451,307.7514 L1068.7647,314.6441 L1068.3775,321.5175 L1068.6208,321.5297 L1068.4038,324.9526 L1068.3075,328.3815 L1067.6499,331.7825 L1067.4037,335.2039 L1067.5221,338.6436 L1067.2465,338.6274 L1067.2955,342.0397 L1067.0339,345.4338 L1067.2229,348.8544 L1066.6425,352.2296 L1066.5195,355.6318 L1066.3674,355.6213 L1066.3889,358.9951 L1065.7603,362.3241 L1065.594,365.6849 L1065.8801,369.077 L1065.3606,372.4134 L1065.5536,372.4289 L1065.4212,375.7408 L1064.6884,379.0045 L1064.7075,382.3285 L1064.5629,385.6394 L1064.0365,388.9196 L1063.8274,388.9002 L1063.6944,392.1481 L1063.4929,395.3896 L1063.4259,398.6436 L1062.836,401.8491 L1062.5382,405.0817 L1062.7426,405.1035 L1061.9572,408.2054 L1061.5663,411.3495 L1061.7519,414.5551 L1060.8762,417.6473 L1060.8568,420.831 L1061.0813,420.8586 L1060.5732,423.8957 L1059.9892,426.9236 L1059.5766,429.9725 L1059.5604,433.07 L1058.9833,436.0988 L1058.8516,436.0802 L1058.8289,439.079 L1057.9102,441.9515 L1058.0103,444.9676 L1057.5368,447.9028 L1056.9088,450.8163 L1057.0162,450.8337 L1056.4726,453.6393 L1056.3137,456.5073 L1055.8072,459.319 L1055.1554,462.1071 L1054.6242,464.9148 L1054.7414,464.9366 L1054.0666,467.5863 L1053.9358,470.3375 L1053.1898,472.9739 L1052.6968,475.6575 L1052.1207,478.3256 L1051.8564,478.2685 L1051.3984,480.8184 L1051.2587,483.4371 L1050.6686,485.9585 L1049.9169,488.445 L1049.3893,490.9799 L1049.2504,490.9451 L1048.7013,493.3221 L1047.9062,495.6374 L1047.7871,498.1223 L1047.3335,500.5233 L1046.421,502.8091 L1046.6455,502.8751 L1046.0745,505.0833 L1045.0771,507.1661 L1044.5297,509.3813 L1043.6844,511.5088 L1043.2069,513.7445 L1043.3261,513.786 L1042.6167,515.7751 L1042.0512,517.8142 L1041.0292,519.6946 L1040.3754,521.703 L1039.738,523.7172 L1039.917,523.7997 L1038.4194,527.1793 L1036.4359,530.335 L1035.0169,533.7508 L1033.6078,537.1712 L1032,540.5 L1031.7699,540.3559 L1030.8707,542.5994 L1029.5723,544.593 L1028.1747,546.5244 L1027.0037,548.5978 L1025.6877,550.5803 L1025.9481,550.7728 L1024.1553,552.4196 L1022.9592,554.5074 L1021.5283,556.4216 L1020.047,558.2986 L1018.5852,560.19 L1018.6328,560.2306 L1017.0651,562.0509 L1015.2571,563.6664 L1013.7742,565.559 L1012.1952,567.3697 L1010.7929,569.3309 L1010.8133,569.3506 L1009.1447,571.093 L1007.4919,572.8505 L1005.6709,574.4455 L1004.066,576.2493 L1002.4112,578.005 L1002.375,577.9658 L1000.8113,579.835 L998.9918,581.4278 L996.9424,582.7721 L995.2928,584.5485 L993.5407,586.2141 L993.3761,586.0173 L991.7712,587.8616 L990.0106,589.5199 L988.1406,591.0473 L986.0093,592.2623 L984.2817,593.96 L984.4068,594.1239 L982.172,595.1545 L980.5169,596.9446 L978.4728,598.2251 L976.6702,599.8219 L974.7347,601.2447 L974.796,601.3321 L972.9082,602.7816 L970.6571,603.7128 L969.0152,605.5129 L966.9924,606.7698 L965,608.07 " fill="none" style="stroke: #A9A9A9; stroke-width: 2.0; stroke-dasharray: 7.0,7.0;"/><polygon fill="#A9A9A9" points="960.8,610.85,960.8117,610.9191,962.7189,610.3841,964.6947,610.254,966.6482,609.9921,968.5281,609.2966,970.5099,609.2013,970.5048,609.1759,969.3727,608.8383,968.2665,608.6287,967.1782,608.5081,966.0281,608.0808,964.9646,608.0831,965.1455,608.1196,964.9823,606.9325,965.3473,605.852,965.7767,604.7844,965.8311,603.6412,966.0828,602.5378,966.102,602.55,965.0173,604.1946,964.0199,605.8946,962.9804,607.5679,962.0213,609.2923,960.8,610.85" style="stroke: #A9A9A9; stroke-width: 2.0;"/><!--link Match to Referee--><path d="M585.85,249.55 L585.8971,249.6307 L592.3211,253.2211 L599.021,257.2845 L605.6312,261.1939 L611.9457,264.5968 L618.6694,268.7008 L618.6518,268.6711 L625.5739,272.6868 L632.5847,276.8523 L639.6573,281.122 L646.5172,285.0328 L653.675,289.4462 L653.8017,289.6572 L660.7299,293.5296 L668.028,298.0178 L675.3712,302.5812 L682.4519,306.7074 L689.6706,311.0636 L689.6864,311.0895 L696.8211,315.4047 L704.0276,319.8379 L711.1995,324.2142 L718.4374,328.6991 L725.46,332.83 " fill="none" style="stroke: #A9A9A9; stroke-width: 2.0;"/><polygon fill="#222222" points="574.32,242.9,574.3828,242.9311,574.8367,244.1309,575.6585,245.5131,576.3606,246.8359,576.6685,247.9634,577.522,249.3612,577.5203,249.3354,578.9519,249.1252,580.392,249.0454,581.838,249.0562,583.2636,248.7547,584.7177,248.8906,584.8831,248.9725,583.8891,247.505,583.3779,246.2768,582.9255,245.0778,582.1305,243.7089,581.5157,242.4294,581.5172,242.4521,580.0759,242.5129,578.6413,242.677,577.2035,242.7913,575.7719,243.0007,574.32,242.9" style="stroke: #A9A9A9; stroke-width: 2.0;"/><!--link Referee to Match--><!--link Match to Player--><path d="M453.61,269.66 L453.8454,269.8121 L447.928,277.4383 L443.3905,285.9558 L438.4036,294.1832 L431.939,301.4559 L427.433,309.9938 L421.8243,317.8194 L416.6545,325.9286 L411.7897,334.2347 L405.8737,341.8618 L401.43,350.44 " fill="none" style="stroke: #A9A9A9; stroke-width: 2.0;"/><polygon fill="#A9A9A9" points="460.72,258.66,460.7479,258.7243,459.3421,259.1079,458.1,259.8682,456.8046,260.5058,455.3339,260.74,454.1058,261.5327,454.0799,261.5323,453.9852,262.9726,454.0211,264.4149,454.1477,265.8585,453.9616,267.2975,454.2136,268.743,454.2871,268.9122,455.4527,267.9757,456.833,267.5334,458.2395,267.1514,459.4935,266.4186,460.8278,265.8703,460.8505,265.8706,460.7956,264.4281,460.8442,262.9871,460.8428,261.5453,460.9368,260.105,460.72,258.66" style="stroke: #A9A9A9; stroke-width: 2.0;"/><!--link Match to Captain--><path d="M406.84,210.83 L406.8511,210.9228 L403.5203,211.0407 L400.2544,211.7023 L396.9674,212.1869 L393.6109,212.0892 L390.3505,212.7976 L390.3461,212.7633 L386.9009,213.0501 L383.4778,213.5096 L380.0702,214.0891 L376.6094,214.2549 L373.223,215.0001 L373.2569,215.2439 L369.6676,215.2116 L366.1773,215.8909 L362.699,216.6571 L359.1505,216.9181 L355.6389,217.4448 L355.6434,217.4747 L352.0649,217.9695 L348.5069,218.6007 L344.939,219.1662 L341.3901,219.8572 L337.7794,220.1386 L337.8277,220.4329 L334.2376,221.0265 L330.6163,221.4303 L327.0407,222.112 L323.4672,222.8067 L319.8259,223.0888 L319.7691,222.7733 L316.3061,224.0283 L312.6561,224.2445 L309.1482,225.2505 L305.494,225.4432 L301.9598,226.3024 L301.9539,226.2726 L298.5043,227.3226 L294.9166,227.6749 L291.4104,228.4389 L287.9111,229.2375 L284.3624,229.7867 L284.402,229.9674 L280.9325,230.5374 L277.5308,231.4162 L274.0194,231.7954 L270.6716,232.9198 L267.215,233.5488 L267.273,233.7854 L263.9588,234.55 L260.6735,235.4321 L257.2543,235.7684 L253.9333,236.5047 L250.6991,237.5957 L250.6255,237.3295 L247.5514,238.4382 L244.3945,239.247 L241.3578,240.4909 L238.1158,240.992 L234.9959,241.9346 L234.95,241.7892 L232.0846,242.959 L229.0231,243.5072 L226.101,244.4974 L223.3153,245.9201 L220.2868,246.5727 L220.3532,246.7545 L217.6921,247.8682 L214.8242,248.4161 L212.2153,249.6725 L209.5499,250.7746 L206.7531,251.517 L206.6699,251.3243 L204.3009,252.5295 L201.9046,253.6715 L199.5618,254.9376 L197.0109,255.7215 L194.5763,256.7748 L194.6717,256.9569 L192.3342,257.6725 L190.181,258.7396 L188.297,260.32 L185.9173,260.9553 L183.9376,262.3531 L184.0625,262.5417 L182.2044,263.6109 L180.3042,264.6163 L178.4992,265.7657 L176.9148,267.248 L175.0184,268.2592 L174.93,268.1597 L173.7895,269.7039 L172.0478,270.5719 L170.9897,272.2087 L169.5467,273.4127 L168,274.5 L168.0815,274.5722 L166.5102,276.2126 L165.2307,278.1116 L163.6875,279.777 L162.0342,281.3448 L160.4724,282.9936 L160.5658,283.0677 L159.0221,284.7283 L157.912,286.7328 L156.3115,288.3484 L154.9127,290.1239 L153.4477,291.8469 L153.2273,291.6902 L151.9935,293.5801 L151.0249,295.6589 L149.6809,297.4705 L148.2023,299.1863 L146.9104,301.035 L146.7897,300.9579 L145.6154,302.8821 L144.2273,304.6699 L143.4267,306.8327 L142.3353,308.8099 L140.8453,310.5325 L141.0483,310.6489 L139.9916,312.6426 L138.5493,314.4151 L137.514,316.421 L136.2093,318.2725 L135.2371,320.3145 L135.3494,320.3723 L134.3013,322.373 L133.3888,324.4434 L132.0464,326.2926 L131.0508,328.3203 L130.0706,330.3559 L130.2495,330.4384 L129.3515,332.5166 L127.9676,334.3706 L127.1482,336.4851 L126.3386,338.604 L125.3303,340.6314 L125.0794,340.5277 L124.6096,342.7882 L123.7046,344.869 L122.6914,346.905 L121.9254,349.0432 L121.0011,351.1159 L121.305,351.228 L120.0839,353.2015 L119.559,355.4318 L118.7601,357.561 L117.9026,359.6686 L117.0676,361.7845 L117.1271,361.804 L116.4049,363.9657 L115.3828,366.0289 L114.7665,368.2253 L114.0303,370.3824 L113.5145,372.6118 L113.5418,372.6198 L112.9146,374.815 L112.3084,377.0164 L111.4776,379.1524 L110.9354,381.3723 L110.3266,383.5729 L110.2749,383.5597 L110.0073,385.8505 L109.375,388.0479 L108.4147,390.1611 L108.0248,392.4206 L107.4885,394.6426 L107.2382,394.5864 L107.1129,396.9013 L106.751,399.1631 L106.2226,401.3875 L105.2968,403.5228 L104.985,405.7958 L105.1874,405.8352 L104.2241,407.975 L104.1986,410.2974 L103.5439,412.4973 L103.2798,414.7732 L102.8007,417.0073 L102.9061,417.0249 L102.6316,419.2909 L101.733,421.4525 L101.881,423.789 L101.3746,426.0162 L100.9204,428.2521 L101.0768,428.2742 L100.9312,430.5492 L100.2862,432.7536 L100.0425,435.0147 L99.741,437.2677 L99.3287,439.505 L99.4158,439.5152 L99.0647,441.7521 L99.1152,444.0362 L98.2686,446.215 L98.5236,448.523 L98.0105,450.7409 L97.7344,450.7148 L97.5594,452.957 L97.6041,455.2201 L97.3868,457.4584 L96.9442,459.6753 L96.9503,461.9347 L97.1336,461.9482 L96.835,464.1636 L96.9454,466.409 L96.7555,468.6324 L96.0976,470.8214 L96.1328,473.0613 L95.9562,473.0518 L95.9575,475.2651 L96.0546,477.4834 L95.9577,479.6914 L95.7945,481.8958 L95.5429,484.0955 L95.391,484.0903 L95.75,486.2886 L95.6733,488.472 L95.2952,490.6448 L95.1345,492.8252 L95.1651,495.0123 L94.9867,495.0093 L95.0336,497.1655 L95.1538,499.323 L95.0262,501.4763 L94.8348,503.6285 L94.9843,505.7864 L95.2009,505.7865 L94.7804,507.9077 L95.2078,510.029 L95.1746,512.1503 L95.1501,514.2716 L94.985,516.3929 L95.2927,516.3978 L94.9091,518.4739 L94.9182,520.5562 L95.3158,522.6448 L94.8534,524.7196 L95.152,526.8066 L95.0481,526.8026 L95.3577,530.8382 L95.4913,534.8671 L95.4559,538.8895 L95.7504,542.9245 L95.9239,546.9549 L96.2541,546.9766 L96.4622,550.789 L96.1608,554.5678 L96.7108,558.4026 L96.6988,562.2005 L97.1774,566.0306 L97.1657,566.0295 L97.6296,569.6027 L98.0083,573.1682 L97.8508,576.6851 L98.6449,580.2883 L98.7902,583.8326 L98.7939,583.833 L98.9149,587.0703 L99.3221,590.34 L100.0443,593.6454 L100.3804,596.907 L100.64,600.16 " fill="none" style="stroke: #A9A9A9; stroke-width: 2.0;"/><polygon fill="#A9A9A9" points="419.77,209.39,419.8021,209.4522,418.4252,208.6055,417.2367,208.1236,415.9869,207.5229,414.5352,206.5315,413.363,206.0809,413.3463,206.0611,412.1677,206.9004,411.0732,207.8397,410.0371,208.8484,408.7996,209.6178,407.8442,210.7224,407.9289,210.8864,409.0292,211.1976,410.3768,211.9875,411.7545,212.8358,412.9567,213.3443,414.2512,214.0315,414.2659,214.0489,415.3481,213.095,416.497,212.2204,417.6138,211.3076,418.7919,210.4677,419.77,209.39" style="stroke: #A9A9A9; stroke-width: 2.0;"/><!--link Match to Coach--><path d="M504.03,271.71 L504.1233,271.7149 L503.9917,274.4456 L504.407,277.2053 L504.6442,279.9555 L504.2957,282.6747 L504.7579,285.4369 L504.7234,285.4356 L504.6781,288.3469 L504.8067,291.2646 L505.0564,294.187 L504.8891,297.0936 L505.3058,300.0222 L505.5518,300.0274 L505.0899,303.0859 L505.3463,306.1595 L505.6904,309.2348 L505.5246,312.2995 L505.6269,315.3699 L505.6572,315.37 L505.6223,318.5726 L505.7254,321.7756 L505.762,324.9784 L505.9256,328.1816 L505.6748,331.3836 L505.973,331.3885 L505.9223,334.7053 L505.6793,338.0189 L505.7178,341.3372 L505.7695,344.6556 L505.403,347.9673 L505.0827,347.9553 L505.5768,351.39 L505.0161,354.7853 L505.2573,358.2106 L504.6727,361.605 L504.7649,365.0247 L504.7346,365.0229 L504.8838,368.5315 L504.323,371.9974 L504.1811,375.4886 L504.0744,378.9818 L503.714,382.4598 L503.8983,382.4755 L503.4102,386.0029 L503.2371,389.5572 L502.5544,393.068 L502.6317,396.6437 L502.2038,400.1763 L502.4459,400.2035 L501.9968,403.7787 L501.668,407.3674 L500.7807,410.8933 L500.3028,414.4652 L500.1876,418.078 L499.9142,418.039 L499.6479,421.6725 L499.0737,425.262 L498.9462,428.9153 L498.0558,432.4597 L497.619,436.0689 L497.4688,436.0424 L497.0854,439.6832 L496.0601,443.211 L495.4912,446.8192 L495.3689,450.506 L494.4514,454.0527 L494.6408,454.0931 L494.008,457.6969 L492.7863,461.1751 L492.3023,464.8106 L491.6575,468.4119 L490.6383,471.9333 L490.4348,471.8814 L489.696,475.459 L488.8905,479.0196 L488.2159,482.6135 L487.0324,486.0778 L486.1331,489.6145 L486.33,489.6738 L484.8487,493.0205 L483.7475,496.4818 L483.2012,500.1105 L481.6331,503.431 L480.8894,507.0001 L481.1026,507.0757 L479.7702,510.4296 L478.3656,513.7578 L477.1239,517.1439 L476.2585,520.6634 L474.8605,523.994 L474.7377,523.9429 L473.7313,527.3962 L471.8895,530.5021 L470.9976,534.0029 L469.5709,537.2814 L468,540.5 L468.0976,540.5482 L467.0452,542.4803 L466.3424,544.5851 L465.3238,546.5338 L464.1731,548.4174 L463.1321,550.3551 L463.2352,550.4149 L461.9666,552.248 L461.1766,554.359 L459.8453,556.1557 L458.7366,558.0816 L457.5548,559.9652 L457.3294,559.8159 L456.1688,561.7327 L455.2798,563.8292 L454.0065,565.6714 L452.5954,567.4224 L451.3755,569.2998 L451.2603,569.2147 L449.9624,571.0478 L448.4606,572.7301 L447.5192,574.8267 L446.3004,576.7184 L444.7012,578.3288 L444.8828,578.4763 L443.5286,580.2621 L441.8293,581.7676 L440.4942,583.5689 L438.918,585.1744 L437.6394,587.0216 L437.734,587.1051 L436.2531,588.7594 L434.8866,590.5145 L433.1574,591.9499 L431.7207,593.6432 L430.297,595.348 L430.4401,595.4835 L428.9769,597.1073 L427.1255,598.3631 L425.7252,600.0464 L424.3328,601.7373 L422.7815,603.2776 L422.5905,603.0846 L421.3757,604.8897 L419.8296,606.36 L418.2011,607.7472 L416.7608,609.3245 L415.2,610.78 " fill="none" style="stroke: #A9A9A9; stroke-width: 2.0;"/><polygon fill="#A9A9A9" points="503.14,258.55,503.2008,258.5848,502.3038,259.7332,501.7633,261.0855,501.1067,262.3715,500.0684,263.439,499.5585,264.8088,499.538,264.793,500.3258,265.8647,501.2172,267.0161,502.1804,268.2229,502.8958,269.2388,503.9584,270.5221,504.1186,270.6137,504.4923,269.166,505.3338,267.9858,506.2322,266.8383,506.7988,265.5008,507.5399,264.2632,507.5579,264.2771,506.6515,263.1141,505.8271,262.0143,504.9631,260.8839,504.1747,259.8118,503.14,258.55" style="stroke: #A9A9A9; stroke-width: 2.0;"/><!--link Match to Physiotherapist--><path d="M528.89,271.04 L528.9789,271.0685 L528.9367,271.6757 L529.4158,272.4502 L529.7251,273.1703 L529.4761,273.7111 L530,274.5 L529.9669,274.49 L530.522,276.7701 L531.2436,279.1005 L532.0812,281.4661 L532.5194,283.7108 L533.5169,286.1247 L533.7533,286.193 L533.9279,288.4025 L534.7927,290.8113 L535.7417,293.2444 L536.2008,295.536 L536.9175,297.902 L536.9468,297.9099 L538.1955,302.6842 L539.5775,307.4945 L540.8952,312.2874 L542.3357,317.1134 L543.3761,321.8314 L543.6656,321.9031 L544.8716,326.7621 L545.8909,331.575 L547.1835,336.4555 L548.489,341.3392 L549.3885,346.1224 L549.076,346.0512 L550.7984,351.0868 L551.4918,355.8879 L552.9674,360.8673 L553.6374,365.6631 L554.9678,370.6094 L554.938,370.6031 L556.3221,375.5807 L557.0102,380.4118 L558.109,385.3293 L559.2422,390.2541 L560.1267,395.1266 L560.3083,395.1619 L561.0753,400.0026 L562.1526,404.9037 L562.7279,409.7069 L564.0519,414.6561 L564.8782,419.5083 L565.1179,419.5517 L565.9439,424.3596 L566.889,429.189 L567.281,433.9184 L568.0784,438.7211 L569.235,443.5888 L568.9626,443.543 L570.0042,448.3072 L570.7388,453.0198 L571.9186,457.8073 L572.3384,462.4669 L573.21,467.2025 L573.0594,467.1789 L574.0315,471.8144 L574.3597,476.349 L575.1457,480.9554 L576.3798,485.6321 L576.8161,490.1836 L577.0077,490.2117 L577.7891,494.6675 L577.9747,499.036 L578.9065,503.5138 L579.6758,507.9679 L580.0662,512.3664 L579.8582,512.3379 L580.6054,516.6044 L581.2844,520.8615 L582.0973,525.137 L582.3899,529.3412 L582.9731,533.5852 L583.177,533.6114 L583.2443,537.5718 L583.7052,541.5826 L584.7411,545.6672 L584.7183,549.616 L585.5497,553.6744 L585.7744,553.7006 L586.4836,560.9103 L587.1169,568.1111 L587.9217,575.332 L589.1231,582.5991 L589.7633,589.8008 L589.631,589.7872 L590.6343,595.7515 L590.7376,601.6233 L591.8643,607.6004 L592.4148,613.5182 L592.81,619.42 " fill="none" style="stroke: #A9A9A9; stroke-width: 2.0;"/><polygon fill="#A9A9A9" points="524.36,258.56,524.4281,258.5766,523.8842,259.9285,523.7394,261.3776,523.4646,262.7951,522.7625,264.1084,522.6519,265.5659,522.6366,265.545,523.7297,266.3056,524.9002,267.1714,526.1245,268.1103,527.1635,268.7972,528.462,269.8371,528.6413,269.8808,528.5995,268.3862,529.0812,267.0192,529.6267,265.6677,529.8006,264.2256,530.17,262.8312,530.1835,262.8496,529.0017,261.9684,527.8813,261.1707,526.7312,260.3327,525.6376,259.5715,524.36,258.56" style="stroke: #A9A9A9; stroke-width: 2.0;"/><!--link Referee to Player--><path d="M725.42,429.5 L725.42,429.7802 L715.43,428.9476 L705.44,429.7577 L695.45,430.0329 L685.46,428.5488 L675.47,429.3964 L665.48,428.9313 L655.49,428.9887 L645.5,429.4091 L635.51,428.5782 L625.52,430.2382 L615.53,428.6596 L605.54,429.2363 L595.55,430.0759 L585.56,429.3856 L575.57,429.591 L565.58,429.4574 L555.59,429.738 L545.6,429.8188 L535.61,430.2809 L525.62,430.3947 L515.63,430.4057 L505.64,429.8395 L495.65,430.1181 L485.66,430.4363 L475.67,428.5384 L465.68,430.4047 L455.69,429.5 " fill="none" style="stroke: #A9A9A9; stroke-width: 2.0;"/><polygon fill="#A9A9A9" points="450.59,429.5,450.6185,429.564,452.3339,430.1738,454.2162,431.1589,456.0441,432.0217,457.6934,432.4827,459.59,433.5,459.5717,433.4817,458.6895,432.5995,457.8996,431.8096,457.1739,431.0839,456.227,430.137,455.59,429.5,455.7205,429.6305,456.2414,428.5514,457.1434,427.8534,458.0918,427.2018,458.7698,426.2798,459.59,425.5,459.5992,425.5208,457.7857,426.2903,456.0142,427.1544,454.2224,427.9728,452.4693,428.8784,450.59,429.5" style="stroke: #A9A9A9; stroke-width: 2.0;"/><!--link Player to Referee--><path d="M450.59,429.5 L450.59,429.7802 L460.58,428.9476 L470.57,429.7577 L480.56,430.0329 L490.55,428.5488 L500.54,429.3964 L510.53,428.9313 L520.52,428.9887 L530.51,429.4091 L540.5,428.5782 L550.49,430.2382 L560.48,428.6596 L570.47,429.2363 L580.46,430.0759 L590.45,429.3856 L600.44,429.591 L610.43,429.4574 L620.42,429.738 L630.41,429.8188 L640.4,430.2809 L650.39,430.3947 L660.38,430.4057 L670.37,429.8395 L680.36,430.1181 L690.35,430.4363 L700.34,428.5384 L710.33,430.4047 L720.32,429.5 " fill="none" style="stroke: #A9A9A9; stroke-width: 2.0;"/><polygon fill="#A9A9A9" points="725.42,429.5,725.4485,429.564,723.5639,428.5738,721.8462,427.9589,720.0741,427.2217,718.1234,426.0827,716.42,425.5,716.4017,425.4817,717.1195,426.1995,717.9296,427.0096,718.8039,427.8839,719.457,428.537,720.42,429.5,720.5505,429.6305,719.4714,430.1514,718.7734,431.0534,718.1218,432.0018,717.1998,432.6798,716.42,433.5,716.4292,433.5208,718.2157,432.6903,720.0442,431.9544,721.8524,431.1728,723.6993,430.4784,725.42,429.5" style="stroke: #A9A9A9; stroke-width: 2.0;"/><!--link Referee to Captain--><path d="M725.03,466.77 L725.1031,467.0405 L715.3698,468.8094 L706.0653,472.1641 L696.6211,475.0025 L686.7178,476.1425 L677.423,479.5334 L667.7857,481.6571 L658.2847,484.2851 L648.8784,487.2637 L639.1456,489.0342 L630.0628,493.2094 L620.1349,494.2582 L610.7694,497.3876 L601.4725,500.7708 L591.8063,502.7875 L591.7765,502.6771 L581.6888,505.6074 L571.513,508.2105 L561.4449,511.2135 L551.3248,514.0236 L541.3039,517.2018 L531.1924,520.0438 L520.8186,521.9119 L521.0516,522.7871 L510.9319,524.8954 L501.0294,527.8201 L491.1372,530.783 L480.6749,531.6044 L471.1809,536.0633 L460.8724,537.4625 L451,540.5 L451.0591,540.7298 L447.2465,541.2385 L443.595,542.3736 L439.9859,543.6738 L436.1997,544.2852 L432.5064,545.2577 L432.5175,545.3031 L429.1439,546.2333 L425.7539,547.0962 L422.3114,547.7442 L418.9439,548.6993 L415.5154,549.4046 L415.458,549.1568 L412.4046,550.255 L409.2918,551.0964 L406.1421,551.7787 L403.0197,552.5789 L399.8189,553.0406 L399.7726,552.831 L396.8343,553.4025 L393.9152,554.0608 L391.047,554.9499 L388.1117,555.5351 L385.2084,556.2653 L385.2705,556.5617 L379.8334,557.3122 L374.4589,558.3618 L369.1519,559.7332 L363.7112,560.4666 L358.4129,561.8796 L358.3661,561.6536 L353.4813,563.1951 L348.472,564.1354 L343.5088,565.2985 L338.4236,565.8719 L333.4625,567.045 L333.4925,567.1837 L331.0572,567.8342 L328.4965,567.9053 L326.0712,568.6015 L323.6312,569.2306 L321.1586,569.7086 L321.2232,569.991 L318.6647,570.2769 L316.2175,571.0493 L313.6233,571.179 L311.1176,571.6956 L308.6912,572.5592 L308.7443,572.7766 L306.0477,572.8771 L303.6092,574.0338 L301.0095,574.5307 L298.3916,574.9532 L295.852,575.6963 L295.8121,575.5442 L293.22,576.5982 L290.4506,576.977 L287.8673,578.0648 L285.0543,578.2774 L282.4328,579.2197 L282.5073,579.4838 L279.6498,580.2287 L276.7794,580.9282 L273.914,581.6455 L271.1545,582.738 L268.2253,583.2291 L268.3042,583.4901 L265.2062,584.2201 L262.1781,585.1812 L259.086,585.9307 L256.1541,587.2099 L253.0211,587.8241 L253.0422,587.8896 L249.7628,588.9532 L246.3747,589.6789 L243.1206,590.8209 L239.9662,592.273 L236.6121,593.1045 L236.6737,593.2853 L233.0416,594.2995 L229.4371,595.3952 L225.8875,596.6517 L222.2562,597.6682 L218.79,599.17 " fill="none" style="stroke: #A9A9A9; stroke-width: 2.0;"/><polygon fill="#A9A9A9" points="214.01,600.85,214.0157,600.9198,215.9621,600.872,217.9418,601.2335,219.9107,601.4618,221.8439,601.2516,223.8264,601.6483,223.8152,601.625,222.7453,601.0298,221.7319,600.5523,220.7579,600.1567,219.6483,599.4791,218.7286,599.1963,218.8949,599.2763,219.0297,598.0857,219.65,597.1286,220.3296,596.2001,220.6644,595.1057,221.1806,594.0985,221.1962,594.1151,219.7392,595.4411,218.3532,596.8424,216.9329,598.2074,215.578,599.6418,214.01,600.85" style="stroke: #A9A9A9; stroke-width: 2.0;"/><!--link Captain to Referee--><path d="M214.01,614.61 L214.0454,614.6965 L217.5618,612.9581 L221.2855,611.7265 L224.9418,610.3299 L228.376,608.3905 L232.1175,607.2025 L232.1054,607.1702 L235.6275,605.6845 L239.2107,604.3619 L242.8364,603.1526 L246.3157,601.5528 L250,600.5 L250.0802,600.7326 L253.572,598.9726 L257.2979,597.8917 L261.0524,596.8938 L264.6407,595.4136 L268.3165,594.1871 L268.3259,594.2159 L271.6778,593.0765 L275.0726,592.0683 L278.4468,590.9968 L281.8603,590.0462 L285.1454,588.7016 L285.2327,588.9867 L288.3454,588.0378 L291.4018,586.9049 L294.5407,586.0412 L297.6834,585.1902 L300.7037,583.9393 L300.6156,583.6311 L303.6874,583.4007 L306.4693,582.1554 L309.4715,581.6816 L312.2468,580.4133 L315.2081,579.7963 L315.2003,579.7668 L318.0262,579.3892 L320.6696,578.3242 L323.4206,577.6648 L326.1807,577.0394 L328.8756,576.1684 L328.9199,576.348 L331.4847,575.5233 L334.1252,575.0056 L336.6432,573.9913 L339.3438,573.7176 L341.923,572.9516 L341.9777,573.189 L344.4962,572.5621 L347.0418,572.0532 L349.4614,570.9965 L351.9734,570.3413 L354.5672,570.0418 L354.5086,569.7719 L357.0532,569.4749 L359.5318,568.8737 L362.1062,568.7137 L364.517,567.8005 L367.025,567.335 L366.9941,567.1857 L372.0903,566.3902 L377.0545,564.9564 L382.1125,563.9765 L387.2625,563.4407 L392.2488,562.1141 L392.2884,562.3036 L397.7317,561.302 L403.0518,559.7109 L408.5262,558.8582 L413.9669,557.8447 L419.3294,556.4563 L419.2842,556.2512 L422.276,555.7641 L425.2529,555.2098 L428.2589,554.7874 L431.1519,553.8521 L434.1081,553.2034 L434.1544,553.4037 L437.2313,552.2287 L440.3976,551.4404 L443.6945,551.2169 L446.751,549.9535 L450.0015,549.5291 L450.0551,549.7488 L453.4682,548.7783 L456.8633,547.7335 L460.2993,546.8564 L463.8298,546.3673 L467.2265,545.3293 L467.1934,545.2005 L471.0467,544.6182 L474.6747,543.1597 L478.559,542.6975 L482.2989,541.6743 L486,540.5 L486.084,540.8156 L495.9061,537.9283 L506.0289,536.1711 L515.8801,533.3928 L525.6175,530.1878 L535.5413,527.6827 L545.3392,524.7045 L545.2939,524.5369 L555.6301,522.9124 L565.4763,519.4753 L575.524,516.7838 L585.2939,513.0643 L595.4062,510.6115 L605.5887,508.4188 L605.776,509.1012 L615.5729,506.2742 L625.2387,502.9693 L634.9727,499.9132 L644.8416,497.3488 L654.5094,494.0509 L664.5839,492.2361 L664.7323,492.7688 L674.1113,490.605 L683.2977,487.7502 L692.6207,485.3856 L701.5857,481.7364 L710.9285,479.443 L720.16,476.75 " fill="none" style="stroke: #A9A9A9; stroke-width: 2.0;"/><polygon fill="#A9A9A9" points="725.24,475.33,725.25,475.3993,723.2706,474.9132,721.3496,474.8336,719.4097,474.6216,717.4072,473.9743,715.4912,473.9295,715.4786,473.9069,716.4093,474.3576,717.4038,474.9223,718.4426,475.5662,719.3287,475.9371,720.4286,476.6904,720.5897,476.7804,719.6931,477.5753,719.2668,478.6331,718.8978,479.7231,718.195,480.6263,717.6678,481.6278,717.6823,481.6452,719.1754,480.36,720.7347,479.1544,722.2621,477.9104,723.8504,476.7397,725.24,475.33" style="stroke: #A9A9A9; stroke-width: 2.0;"/><!--link Referee to Coach--><path d="M725.34,514.66 L725.3846,514.7421 L722.6926,515.8887 L720.262,517.5165 L717.7463,518.9877 L714.9506,519.9435 L712.5425,521.6127 L712.5266,521.582 L709.8822,522.7796 L707.318,524.1318 L704.8095,525.5914 L702.109,526.6808 L699.6775,528.2888 L699.786,528.5096 L696.9802,529.3017 L694.4912,530.7385 L692.0409,532.2541 L689.3657,533.3119 L686.8087,534.6105 L686.8214,534.638 L684.2411,535.7755 L681.7184,537.0384 L679.1679,538.2408 L676.6705,539.5586 L674,540.5 L674.1166,540.7745 L670.9636,542.1179 L667.7353,543.2843 L664.6172,544.7098 L661.5042,546.1475 L658.2277,547.2003 L658.1117,546.9014 L655.4202,548.6131 L652.3469,549.3408 L649.5638,550.8165 L646.4818,551.5219 L643.6449,552.8587 L643.6348,552.83 L641.0404,554.1209 L638.2108,554.7405 L635.52,555.7562 L632.8408,556.8052 L630.0776,557.6143 L630.133,557.7908 L627.532,558.411 L625.0256,559.3327 L622.3661,559.7665 L619.935,560.9282 L617.352,561.6059 L617.4176,561.8406 L614.9936,562.4696 L612.6022,563.215 L610.0596,563.4192 L607.6279,564.0201 L605.2943,564.9726 L605.2275,564.7046 L602.9751,565.5234 L600.6476,566.0402 L598.4291,566.9949 L596.0244,567.2019 L593.7304,567.8533 L593.6969,567.7046 L591.5039,568.459 L589.1677,568.5777 L586.9333,569.1484 L584.7987,570.1616 L582.4865,570.387 L582.5262,570.5765 L580.3339,571.1716 L578.0181,571.1772 L575.8569,571.9211 L573.6621,572.5042 L571.3888,572.7125 L571.3468,572.5068 L566.8897,573.5873 L562.4189,574.6004 L557.975,575.7459 L553.4262,576.3768 L548.936,577.2951 L548.9796,577.496 L546.5434,577.5616 L544.1912,578.0149 L541.9618,579.0349 L539.5064,579.0117 L537.2333,579.8301 L537.2851,580.0503 L534.8039,580.496 L532.3051,580.8673 L529.846,581.4067 L527.4782,582.3347 L524.9811,582.7128 L524.9477,582.584 L522.4521,583.6413 L519.7291,583.8228 L517.2647,585 L514.6548,585.6167 L512.0056,586.0822 L512.0357,586.1868 L509.2368,586.9014 L506.5458,587.9905 L503.7574,588.7413 L500.9282,589.3505 L498.1328,590.0772 L498.169,590.1908 L495.1264,590.974 L492.2519,592.2845 L489.1873,592.9986 L486.201,593.958 L483.1889,594.8368 L483.0996,594.5816 L479.8917,595.7995 L476.7912,597.3248 L473.5386,598.415 L470.2315,599.3494 L467,600.5 L466.9497,600.366 L464.8073,601.2194 L462.5758,601.8355 L460.5893,603.1041 L458.4815,604.0497 L456.2075,604.5525 L456.2935,604.7701 L454.1415,605.7012 L451.8262,606.219 L449.6832,607.1731 L447.4262,607.8383 L445.31,608.86 " fill="none" style="stroke: #A9A9A9; stroke-width: 2.0;"/><polygon fill="#A9A9A9" points="440.28,610.91,440.282,610.98,442.245,610.8285,444.2198,611.0875,446.1907,611.2128,448.149,610.8984,450.1248,611.1927,450.1148,611.1688,449.0261,610.6252,447.9878,610.2022,446.9844,609.8629,445.8605,609.2349,444.9055,609.0113,445.0757,609.0824,445.1479,607.8864,445.7172,606.8981,446.3471,605.9352,446.6242,604.8248,447.0868,603.7919,447.1033,603.8077,445.7178,605.2082,444.4071,606.6803,443.0603,608.1179,441.7825,609.6213,440.28,610.91" style="stroke: #A9A9A9; stroke-width: 2.0;"/><!--link Coach to Referee--><path d="M466.79,614.34 L466.8251,614.4266 L470.2696,612.7313 L473.9198,611.5436 L477.503,610.1906 L480.8659,608.2941 L484.5338,607.15 L484.5215,607.1177 L487.9596,605.6429 L491.4596,604.3307 L495.0027,603.1317 L498.3974,601.5428 L502,600.5 L502.0812,600.7323 L505.1453,599.103 L508.4465,598.1518 L511.7767,597.2833 L514.9385,595.9335 L518.1889,594.8368 L518.1981,594.8657 L521.1734,593.8714 L524.1905,593.0086 L527.1875,592.0823 L530.223,591.2772 L533.1328,590.0772 L533.2153,590.3638 L535.9909,589.5683 L538.7132,588.588 L541.5135,587.8782 L544.3174,587.1811 L547.0056,586.0822 L546.925,585.772 L549.6765,585.7002 L552.1627,584.6069 L554.8505,584.2902 L557.3307,583.1737 L559.9811,582.7128 L559.9741,582.6832 L562.507,582.4571 L564.877,581.5386 L567.3431,581.0287 L569.8173,580.5531 L572.2333,579.8301 L572.2725,580.0109 L574.5735,579.3214 L576.9414,578.9409 L579.2011,578.0605 L581.6222,577.9256 L583.936,577.2951 L583.9848,577.5338 L588.4661,576.5722 L592.9716,575.729 L597.3647,574.3352 L601.8402,573.345 L606.3888,572.7125 L606.3321,572.4422 L608.6029,572.2218 L610.8099,571.6968 L613.1095,571.6136 L615.251,570.7761 L617.4865,570.387 L617.453,570.2382 L619.7576,569.9792 L621.9189,569.0844 L624.1821,568.6417 L626.545,568.6414 L628.7304,567.8533 L628.7772,568.0412 L631.1221,567.5939 L633.3214,566.5623 L635.703,566.2626 L638.0449,565.8034 L640.2943,564.9726 L640.2378,564.7704 L642.6943,564.2583 L645.1324,563.6799 L647.6068,563.2316 L649.94,562.2775 L652.352,561.6059 L652.4136,561.8021 L654.8235,560.5728 L657.3522,559.7221 L660.0544,559.4245 L662.4371,558.1086 L665.0776,557.6143 L665.1524,557.8278 L667.8214,556.7498 L670.4651,555.5997 L673.1659,554.6126 L675.9989,554.0022 L678.6449,552.8587 L678.5967,552.7347 L681.6566,551.9723 L684.3891,550.3663 L687.4938,549.7195 L690.389,548.5326 L693.2277,547.2003 L693.2703,547.3005 L696.3904,545.8795 L699.6629,544.8174 L702.7977,543.4311 L705.875,541.9093 L709,540.5 L709.0497,540.6083 L711.3219,539.3714 L713.8247,538.6374 L716.0667,537.3346 L718.416,536.2657 L720.73,535.12 " fill="none" style="stroke: #A9A9A9; stroke-width: 2.0;"/><polygon fill="#A9A9A9" points="725.33,532.92,725.3321,532.99,723.357,532.8413,721.3942,533.103,719.4274,533.2311,717.4473,532.9196,715.4856,533.2166,715.477,533.1921,716.5063,533.4566,717.5788,533.8443,718.6812,534.3176,719.6802,534.4957,720.8242,535.0874,720.9983,535.1484,720.2517,536.0856,720.0136,537.201,719.8376,538.3381,719.3006,539.3488,718.9534,540.4259,718.9707,540.4406,720.2206,538.9178,721.5494,537.4621,722.8401,535.974,724.2035,534.5476,725.33,532.92" style="stroke: #A9A9A9; stroke-width: 2.0;"/><!--link Referee to Physiotherapist--><path d="M736.61,540.52 L736.7883,540.7362 L728.6393,546.378 L721.5356,553.2871 L714.0916,559.7836 L705.5281,564.9229 L698.4482,571.8609 L690.5332,577.7863 L682.9505,584.1147 L675.5988,590.7232 L667.451,596.3664 L660.888,603.9311 L652.2644,608.9975 L645.18,615.93 " fill="none" style="stroke: #A9A9A9; stroke-width: 2.0;"/><polygon fill="#A9A9A9" points="641.11,619.29,641.1288,619.3575,642.9702,618.6275,644.9219,618.2932,646.8377,617.83,648.6352,616.9432,650.5964,616.6428,650.594,616.617,649.4567,616.3939,648.3318,616.3008,647.2155,616.2981,646.0695,615.9839,644.9651,616.106,645.1488,616.1235,644.8633,614.9598,645.1142,613.8472,645.4306,612.7408,645.3661,611.5982,645.502,610.4746,645.5223,610.4848,644.614,612.233,643.7984,614.0273,642.9381,615.7994,642.1631,617.614,641.11,619.29" style="stroke: #A9A9A9; stroke-width: 2.0;"/><!--link Referee to SevereReferee--><path d="M1031.11,547.95 L1031.2751,548.1764 L1038.6264,553.2209 L1046.9455,559.5928 L1054.9494,565.5324 L1061.9169,570.0505 L1070.258,576.4526 L1077.8259,581.7941 L1085.7015,587.5577 L1093.791,593.6148 L1101.1433,598.6606 L1109.9631,605.7192 L1117.37,610.84 " fill="none" style="stroke: #A9A9A9; stroke-width: 2.0;"/><polygon fill="none" points="1026.6,553.33,1026.6577,553.3698,1024.0783,549.7635,1021.837,546.3906,1019.4856,542.9417,1016.7723,539.2429,1014.56,535.89,1014.5525,535.8652,1018.5769,536.9799,1022.639,538.2196,1026.7274,539.5463,1030.7254,540.5734,1034.85,542.02,1034.9991,542.1288,1033.0303,544.1582,1031.4967,546.5052,1030.0163,548.8909,1028.2269,551.0512,1026.6,553.33" style="stroke: #A9A9A9; stroke-width: 2.0;"/><!--link Referee to PermissiveReferee--><path d="M867.12,560.53 L867.4002,560.5362 L866.3457,570.5578 L866.9337,580.6157 L866.9868,590.6618 L865.281,600.669 L866.01,610.73 " fill="none" style="stroke: #A9A9A9; stroke-width: 2.0;"/><polygon fill="none" points="860.13,560.36,860.1956,560.3846,861.4887,556.3435,863.1663,552.4466,864.7187,548.5028,865.8593,544.4045,867.57,540.52,867.5454,540.512,868.7448,544.5061,870.0684,548.5405,871.4784,552.603,872.5908,556.5688,874.12,560.67,874.1241,560.8545,871.3173,560.398,868.5225,560.4801,865.7292,560.6279,862.9274,560.3934,860.13,560.36" style="stroke: #A9A9A9; stroke-width: 2.0;"/><!--link Player to Captain--><path d="M240.59,522.27 L240.6536,522.3384 L236.1414,526.1514 L232.0019,530.3656 L227.7411,534.4491 L223.0811,538.103 L218.9736,542.3516 L218.9499,542.3265 L214.5859,546.2365 L210.3416,550.273 L206.1804,554.3976 L201.7327,558.219 L197.6863,562.465 L197.8568,562.6423 L193.4225,566.1778 L189.4861,570.231 L185.6106,574.3474 L181.3814,578.0963 L177.3383,582.0384 L177.3595,582.0601 L173.5687,585.7206 L169.8746,589.4797 L166.1338,593.1912 L162.482,596.9934 L158.54,600.5 " fill="none" style="stroke: #A9A9A9; stroke-width: 2.0;"/><polygon fill="none" points="236.05,516.93,236.0776,516.9944,239.8916,515.135,243.8674,513.6532,247.7904,512.0485,251.5404,510.0394,255.53,508.59,255.5072,508.5778,253.4007,512.2568,251.4094,515.9975,249.498,519.7813,247.3109,523.417,245.51,527.26,245.6461,527.3846,243.4631,525.0521,241.6774,523.0835,239.9402,521.1592,237.9209,518.9767,236.05,516.93" style="stroke: #A9A9A9; stroke-width: 2.0;"/><!--link Player to Captain--><!--link TeamMember to Referee--><path d="M703.35,237.32 L703.5613,237.5041 L709.6546,244.668 L716.9863,252.9113 L723.9147,260.8031 L729.517,267.539 L736.8769,275.8069 L743.2473,283.2124 L750.0115,290.961 L757.0495,298.9483 L763.1441,306.1133 L770.56,314.43 " fill="none" style="stroke: #A9A9A9; stroke-width: 2.0;"/><polygon fill="#A9A9A9" points="773.86,318.21,773.927,318.2306,773.1488,316.2867,772.7632,314.4636,772.2497,312.6011,771.3159,310.6093,770.964,308.7965,770.9381,308.7948,770.7445,309.9155,770.6811,311.0452,770.7083,312.1811,770.4233,313.2955,770.5756,314.44,770.5882,314.6242,769.4324,314.1528,768.3136,314.2189,767.1994,314.3506,766.0588,314.1008,764.9321,314.0516,764.9417,314.0722,766.7132,314.8736,768.5284,315.7689,770.3225,316.6189,772.1568,317.5553,773.86,318.21" style="stroke: #A9A9A9; stroke-width: 2.0;"/><!--link TeamMember to Player--><path d="M607.28,248.63 L607.441,248.8594 L598.7142,253.9673 L590.9312,260.4199 L582.8409,266.4346 L573.7399,271.0093 L565.9784,277.4926 L557.4628,282.9014 L549.2473,288.7378 L541.2404,294.8714 L532.5146,299.9807 L525.2199,307.1289 L516.0646,311.6264 L508.1475,317.8879 L500.3814,324.3646 L491.7364,329.589 L483.606,335.5466 L475.2808,341.2267 L467.1936,347.2459 L458.9916,353.1015 L450.56,358.63 " fill="none" style="stroke: #A9A9A9; stroke-width: 2.0;"/><polygon fill="none" points="603.35,242.83,603.369,242.8974,607.3905,241.5451,611.5235,240.588,615.6202,239.5022,619.5974,237.9932,623.74,237.07,623.7189,237.0549,621.1564,240.4312,618.7001,243.8835,616.3175,247.3888,613.6807,250.7118,611.4,254.29,611.551,254.3961,609.6181,251.8772,608.1261,249.6681,606.6878,247.4968,604.9366,245.1056,603.35,242.83" style="stroke: #A9A9A9; stroke-width: 2.0;"/><!--link TeamMember to Captain--><path d="M614.55,247.9 L614.5922,247.9833 L612.1411,248.9127 L609.9373,250.3306 L607.653,251.5895 L605.1038,252.3251 L602.9213,253.785 L602.9085,253.7529 L600.4673,254.5517 L598.0901,255.5125 L595.7574,256.5858 L593.2712,257.2713 L591,258.5 L591.0484,258.7413 L588.97,258.6212 L587.0328,259.2055 L585.1129,259.8757 L583.0927,260.0459 L581.1252,260.4791 L581.1279,260.5094 L578.1235,260.726 L575.1311,261.0802 L572.133,261.3681 L569.1458,261.7825 L566.1228,261.7842 L566.1343,262.0822 L562.2571,262.2354 L558.3725,262.1963 L554.4987,262.4386 L550.6255,262.694 L546.7361,262.5317 L546.7318,262.2112 L542.1346,262.8944 L537.5233,262.5224 L532.9228,262.9527 L528.3112,262.5567 L523.7086,262.838 L523.7086,262.8075 L518.5238,263.1639 L513.3386,262.809 L508.1537,262.8738 L502.9688,262.9738 L497.7837,262.8196 L497.7852,263.0046 L492.1679,262.7726 L486.5532,262.8566 L480.9343,262.4293 L475.3216,262.7648 L469.7048,262.5931 L469.7123,263.324 L459.7699,263.0838 L449.8312,263.2065 L439.8752,261.6431 L429.9318,261.3157 L419.9913,261.2547 L410.0588,261.9813 L410.0586,261.9551 L404.0422,261.8634 L398.0282,262.2232 L392.0102,261.8122 L385.9937,261.7069 L379.9785,261.8289 L379.9788,261.9304 L374.1253,261.5536 L368.2734,261.6403 L362.4231,262.1806 L356.5707,262.1068 L350.7179,261.9343 L350.7235,262.2607 L345.1759,261.8872 L339.6413,262.2679 L334.1039,262.4843 L328.5563,262.108 L323.0204,262.4138 L323.0191,262.3712 L320.4162,262.553 L317.8176,262.8699 L315.2022,262.6618 L312.6028,262.9524 L309.9902,262.8302 L309.9792,262.5844 L307.5046,262.6403 L305.0559,263.2753 L302.5595,262.8441 L300.1118,263.4992 L297.6295,263.3839 L297.6351,263.4756 L295.3027,263.4061 L292.9807,263.5091 L290.683,264.0107 L288.3429,263.8155 L286.0314,264.0893 L286.0526,264.3515 L283.8629,264.0188 L281.7565,264.7116 L279.6031,264.827 L277.446,264.8953 L275.2886,264.9611 L275.2912,264.9819 L271.6189,265.7418 L267.9032,266.1521 L264.1694,266.4162 L260.4653,266.92 L256.7411,267.2619 L256.7284,267.2054 L254.0086,268.2008 L251.1519,268.5854 L248.3515,269.2212 L245.4734,269.5107 L242.7304,270.4027 L242.6539,270.2397 L241.0846,271.4357 L239.3194,272.2145 L237.4841,272.8438 L235.6853,273.5509 L234,274.5 L233.9378,274.4252 L232.0867,275.6934 L230.6811,277.4976 L229.055,279.0365 L227.2762,280.3916 L225.4083,281.6395 L225.6179,281.8663 L223.8237,283.0215 L222.3479,284.5211 L220.6613,285.7927 L219.3206,287.4385 L217.6916,288.7724 L217.7727,288.8462 L215.2735,291.7933 L212.4169,294.415 L209.8486,297.2992 L207.4389,300.3278 L204.6936,303.0508 L204.9,303.1956 L202.4937,305.7901 L200.5963,308.7416 L198.7078,311.6993 L196.4179,314.3754 L194.6268,317.4014 L194.7662,317.4737 L193.2257,320.3519 L191.5812,323.1761 L190.1742,326.1236 L188.9026,329.1413 L187.1122,331.8898 L186.9815,331.8423 L186.1754,334.8761 L185.0949,337.8102 L183.9556,340.7228 L182.8978,343.6651 L181.7706,346.5822 L181.8197,346.5938 L180.7911,349.5106 L180.1782,352.5259 L179.4424,355.5121 L178.96,358.5584 L178.2229,361.5442 L178.2616,361.5496 L177.8675,364.6137 L177.2416,367.6455 L176.9133,370.7187 L176.4635,373.775 L176.0899,376.842 L176.3456,376.8598 L176.0595,379.995 L175.4357,383.1066 L175.3991,386.2593 L174.9561,389.3835 L174.9925,392.5413 L175.1206,392.5447 L175.1747,395.782 L175.0581,399.0145 L174.5345,402.236 L174.8459,405.4803 L174.5516,408.708 L174.2215,408.7048 L174.6079,412.0489 L174.3532,415.3867 L174.4965,418.7285 L174.5276,422.0691 L174.3881,425.4081 L174.5979,425.4113 L174.0151,428.8631 L174.4933,432.3311 L174.3081,435.7889 L174.3337,439.25 L174.1228,442.7075 L174.4548,442.7213 L173.976,446.3005 L173.9021,449.8965 L173.7698,453.4901 L173.6134,457.0828 L173.3766,460.672 L173.3762,460.672 L173.37,464.4382 L172.4641,468.1271 L172.6631,471.9109 L171.8152,475.6048 L171.7703,479.3677 L171.5327,479.333 L171.2188,483.2687 L170.6446,487.1665 L169.8463,491.0316 L169.6759,494.9883 L168.9249,498.8603 L168.9723,498.8697 L168.8404,500.9365 L168.4133,502.9445 L167.526,504.8608 L167.1467,506.8783 L166.919,508.926 L166.8632,508.9127 L166.5811,511.0207 L166.1101,513.0835 L165.5745,515.1309 L164.8049,517.1225 L164.4612,519.2157 L164.7334,519.2923 L164.1409,521.3963 L163.258,523.4188 L162.5845,525.5001 L161.9237,527.585 L161.504,529.7377 L161.4133,529.7081 L160.8612,531.909 L160.0735,534.0332 L159.225,536.1376 L158.9068,538.4146 L158,540.5 L157.8082,540.4307 L157.124,543.5835 L156.0065,546.5799 L154.8974,549.5793 L153.9454,552.6354 L152.5698,555.5386 L152.4678,555.4996 L151.2808,558.5374 L150.4568,561.714 L148.8294,564.5835 L147.8158,567.6876 L146.7488,570.7713 L146.7964,570.7903 L145.575,573.795 L144.1966,576.737 L143.1247,579.8014 L142.2477,582.9435 L140.7383,585.8333 L141.0047,585.9433 L139.2937,588.6375 L138.3712,591.6573 L136.9282,594.4621 L135.9288,597.4502 L134.74,600.36 " fill="none" style="stroke: #A9A9A9; stroke-width: 2.0;"/><polygon fill="none" points="610.9,241.93,610.9153,241.9984,615.0058,240.8672,619.1861,240.1369,623.3372,239.276,627.3919,237.986,631.58,237.29,631.5598,237.2738,628.8152,240.505,626.1723,243.8179,623.6003,247.1878,620.7843,250.3617,618.31,253.81,618.4666,253.9077,616.6497,251.3228,615.2901,249.0231,613.9862,246.7582,612.3577,244.2909,610.9,241.93" style="stroke: #A9A9A9; stroke-width: 2.0;"/><!--link TeamMember to Coach--><path d="M656.58,256.48 L656.6685,256.5099 L655.4679,259.1982 L654.7862,262.0617 L653.9354,264.8681 L652.5291,267.487 L651.8919,270.3655 L651.8593,270.3541 L650.6592,273.3091 L649.6234,276.3217 L648.7018,279.3744 L647.3866,282.2891 L646.6228,285.397 L646.8539,285.4813 L645.1899,288.5096 L644.2009,291.7839 L643.2942,295.0882 L641.9084,298.2179 L640.7746,301.4394 L640.803,301.4502 L639.4763,304.818 L638.2788,308.2348 L637.0189,311.628 L635.8779,315.0663 L634.3495,318.3575 L634.6268,318.4674 L633.2302,322.0005 L631.6548,325.4627 L630.3411,329.0287 L629.0397,332.5995 L627.3496,336.0162 L627.0535,335.8935 L626.1136,339.7846 L624.1988,343.2715 L623.0251,347.0656 L621.0882,350.5434 L619.7769,354.2805 L619.7489,354.2683 L618.4504,358.1588 L616.4996,361.7657 L614.9337,365.5399 L613.4001,369.3282 L611.6334,373.0151 L611.8016,373.092 L609.8894,376.8284 L608.2646,380.6961 L606.1747,384.3513 L604.7786,388.3235 L602.9212,392.085 L603.1408,392.1907 L601.2435,396.0247 L599.4552,399.9112 L597.1606,403.5539 L595.2371,407.3753 L593.6425,411.3551 L593.3964,411.2298 L591.6505,415.2102 L589.6274,419.0495 L588.0064,423.0935 L585.6987,426.7879 L583.7992,430.6902 L583.6651,430.6177 L581.8074,434.5914 L579.3762,438.2553 L577.3528,442.1395 L575.7284,446.2392 L573.3935,449.9552 L573.562,450.0506 L572.595,452.0288 L571.1038,453.7103 L570.2691,455.7635 L569.2913,457.7356 L567.9803,459.5192 L567.7991,459.4132 L566.833,461.3968 L565.8075,463.3458 L564.8986,465.3629 L563.5363,467.1149 L562.4273,469.015 L562.6033,469.1214 L561.0782,470.7698 L559.8928,472.6235 L559.2033,474.7773 L557.6006,476.3787 L556.7348,478.4257 L556.9265,478.5458 L555.6462,480.3363 L554.3011,482.086 L553.1024,483.9275 L552.242,485.981 L550.9029,487.7345 L550.7913,487.662 L549.9292,489.7158 L548.3085,491.2766 L547.5504,493.398 L546.3066,495.2037 L544.9319,496.9244 L545.0221,496.9853 L543.7273,498.747 L542.7557,500.7267 L541.4921,502.5095 L540.1064,504.2098 L538.8221,505.9786 L538.9196,506.0471 L537.525,507.7256 L536.5834,509.7221 L535.1294,511.3591 L533.8862,513.1439 L532.5738,514.8801 L532.3555,514.7205 L531.1511,516.5202 L530.2095,518.5122 L528.8959,520.2321 L527.449,521.8545 L526.1871,523.6121 L526.0733,523.5252 L524.8048,525.2622 L523.3349,526.8453 L522.4188,528.8513 L521.2286,530.6481 L519.6624,532.1577 L519.8453,532.3037 L518.5713,534.0189 L516.95,535.4567 L515.6953,537.1873 L514.1979,538.724 L513,540.5 L513.0956,540.5824 L511.3648,542.5648 L509.7495,544.6466 L507.768,546.4128 L506.0818,548.4336 L504.4089,550.4657 L504.5518,550.6014 L502.7552,552.5745 L500.5705,554.1793 L498.8366,556.2119 L497.1106,558.2521 L495.2259,560.1416 L495.037,559.9466 L493.4029,562.1266 L491.4411,563.9684 L489.3979,565.7262 L487.5407,567.676 L485.5644,569.5029 L485.781,569.7436 L483.466,571.2039 L481.6473,573.2158 L479.6332,575.0105 L477.5773,576.7588 L475.5375,578.525 L475.5778,578.5729 L473.5142,580.2953 L471.2471,581.7762 L469.2553,583.5838 L467.1821,585.2948 L465.2584,587.1834 L465.276,587.2056 L463.1991,588.8681 L461.1359,590.5477 L458.9271,592.0441 L456.9053,593.7759 L454.8403,595.4534 L454.8082,595.4107 L452.9057,597.2297 L450.7767,598.7478 L448.4443,599.9952 L446.4657,601.7132 L444.3964,603.3105 L444.247,603.102 L442.3998,604.8986 L440.4114,606.4981 L438.3235,607.959 L435.9986,609.0887 L434.04,610.73 " fill="none" style="stroke: #A9A9A9; stroke-width: 2.0;"/><polygon fill="none" points="649.99,254.1,650.0458,254.1423,652.44,250.6406,655.1613,247.3869,657.7762,244.0525,660.0405,240.4523,662.79,237.22,662.7641,237.2194,662.7519,241.4525,662.8702,245.6889,663.0793,249.9274,662.9756,254.1583,663.31,258.4,663.3667,258.5756,660.5815,257.3401,657.9617,256.6173,655.3622,255.957,652.6452,254.9328,649.99,254.1" style="stroke: #A9A9A9; stroke-width: 2.0;"/><!--link Match to TeamMember--><!--link Player to Coach--><!--
@startuml
skinparam backgroundColor #222222
skinparam handwritten true
hide circle

skinparam shadowing false
skinparam padding 1
skinparam arrow {
    Thickness 2
    Color #DarkGrey
    FontSize 20
    FontName courier
    FontStyle normal
    FontColor #DarkGrey
}
skinparam class {
    BorderThickness 3
    BorderColor #228B22
    BackgroundColor #222222
    FontSize 20
    FontName courier
    FontStyle bold
    FontColor #228B22
    StereotypeFontColor #228B22
}
skinparam classAttribute {
    FontSize 15
    FontName courier
    FontStyle normal
    FontColor #DarkGrey
}
skinparam note {
    BorderThickness 3
    BorderColor #DarkGrey
    BackgroundColor #222222
    FontSize 20
    FontName courier
    FontStyle normal
    FontColor #DarkGrey
}

class Scenario  {
+ main()
}
class Match <<Director>>  {
+ Match(Referee)
+ play()
}
together {
class Referee <<Mediator>>  {
# performCoinToss()
- informTeammembersAboutGoal()
# answerYesNoRequest()
# answerSubstitutionRequest()
# answermassageRequest()
- informTeamMembrsAboutAnswer()
# generateRandom(int, boolean)
}
class SevereReferee <<ConcreteMediatorA>>  {
#generateRandom(int, boolean)
}
class PermissiveReferee <<ConcreteMediatorB>>  {
# generateRandom(int, boolean)
}
}
class TeamMember <<Collegue>>

class Player <<ConcreteCollegueA>>  {
# requestYellowCard()
# requestRedCard()
# requestPenalti()
# requestMassage()
}
class Captain <<ConcreteCollegueAA>>  {
# chooseHeadsOrTails()
# chooseGoal()
}
class Coach <<ConcreteColleagueB>>  {
# requestSubstitution()
}
class Physiotherapist  {
# givetMassage()
}

Scenario .down.> Match
Scenario .down.> SevereReferee
Scenario .down.> PermissiveReferee
Match o- - Referee
Match *-down- Player
Match *-down- Captain
Match *-down- Coach
Match *-down- Physiotherapist
Referee -down- -> Player
Player -down- -> Referee
Referee -down- -> Captain
Captain -down- -> Referee
Referee -down- -> Coach
Coach -down- -> Referee
Referee -down-> Physiotherapist
Referee <|-down- SevereReferee
Referee <|-down- PermissiveReferee
Player <|-down- Captain
TeamMember - -> Referee
TeamMember <|-down- Player
TeamMember <|-down- Captain
TeamMember <|-down- Coach
Referee -[hidden]- Match
Match -[hidden] TeamMember
Player -[hidden]down- Captain
Player -[hidden]down- Coach
@enduml

PlantUML version 1.2019.05(Sat Apr 20 18:45:36 CEST 2019)
(GPL source distribution)
Java Runtime: Java(TM) SE Runtime Environment
JVM: Java HotSpot(TM) 64-Bit Server VM
Java Version: 11.0.14+8-LTS-263
Operating System: Windows 10
OS Version: 10.0
Default Encoding: windows-1252
Language: es
Country: ES
--></g></svg>