<?xml version="1.0" encoding="UTF-8" standalone="no"?><svg xmlns="http://www.w3.org/2000/svg" xmlns:xlink="http://www.w3.org/1999/xlink" contentScriptType="application/ecmascript" contentStyleType="text/css" height="582px" preserveAspectRatio="none" style="width:1419px;height:582px;background:#222222;" version="1.1" viewBox="0 0 1419 582" width="1419px" zoomAndPan="magnify"><defs/><g><!--class Scenario--><polygon fill="#222222" points="707.5,8,707.5,8.2102,717.9,7.5857,728.3,8.1933,738.7,8.3997,749.1,7.2866,759.5,7.9223,769.9,7.5735,780.3,7.6165,790.7,7.9318,801.1,7.3086,811.5,8,812.0536,8,810.8697,17.4623,811.3022,26.9246,811.9319,36.3868,811.4142,45.8491,811.5682,55.3114,811.4681,64.7737,811.6785,74.236,811.5,83.6982,811.5,83.9374,801.1,84.2839,790.7,84.3693,780.3,84.3775,769.9,83.9529,759.5,84.1618,749.1,84.4005,738.7,82.9771,728.3,84.3768,717.9,83.4017,707.5,83.6982,708.0338,83.6982,707.005,74.236,707.4315,64.7737,708.2416,55.3114,707.4513,45.8491,707.6053,36.3868,707.8386,26.9246,707.9162,17.4623,707.5,8" style="stroke: #228B22; stroke-width: 3.0;"/><text fill="#228B22" font-family="courier" font-size="20" font-weight="bold" lengthAdjust="spacingAndGlyphs" textLength="96" x="711.5" y="34.1074">Scenario</text><path d="M708.5,46.1133 L708.5,46.3935 L718.7,45.5609 L728.9,46.371 L739.1,46.6462 L749.3,45.1621 L759.5,46.0097 L769.7,45.5446 L779.9,45.6019 L790.1,46.0224 L800.3,45.1915 L810.5,46.1133 " fill="#222222" style="stroke: #228B22; stroke-width: 3.0;"/><path d="M708.5,54.1133 L708.5,54.3935 L718.7,53.5609 L728.9,54.371 L739.1,54.6462 L749.3,53.1621 L759.5,54.0097 L769.7,53.5446 L779.9,53.6019 L790.1,54.0224 L800.3,53.1915 L810.5,54.1133 " fill="#222222" style="stroke: #228B22; stroke-width: 3.0;"/><polygon fill="#84BE84" points="721.5166,71.1355,721.0768,71.7363,720.5567,72.6164,719.8128,73.2095,719.0311,73.5338,718.4078,73.562,717.6067,73.1564,716.8509,72.8914,716.2771,72.3534,715.9762,71.7374,715.7977,71.247,715.6229,70.6064,715.3391,70.0552,715.5572,69.5169,715.7482,68.9274,716.4653,68.4611,716.9697,67.8561,717.5941,67.6552,718.3364,67.4821,719.2883,67.5849,719.8097,67.8308,720.4158,67.9423,721.1529,68.6974,721.4098,69.4946,721.5214,70.0385,721.395,70.9348" style="stroke: #038048; stroke-width: 1.0;"/><text fill="#A9A9A9" font-family="courier" font-size="15" lengthAdjust="spacingAndGlyphs" textLength="54" x="728.5" y="74.1938">main()</text><!--class DeliveryMan--><polygon fill="#222222" points="689.5,158.5,689.5,158.7102,699.5,158.0857,709.5,158.6933,719.5,158.8997,729.5,157.7866,739.5,158.4223,749.5,158.0735,759.5,158.1165,769.5,158.4318,779.5,157.8086,789.5,159.0536,799.5,157.8697,809.5,158.3022,819.5,158.9319,829.5,158.5,829.4142,158.5,829.5682,168.8979,829.4681,179.2958,829.6785,189.6937,829.7391,200.0916,830.0857,210.4895,830.1711,220.8874,830.1793,231.2853,829.7546,241.6832,829.9636,252.0811,830.2022,262.479,829.5,272.877,829.5,272.1558,819.5,273.5555,809.5,272.5804,799.5,273.4108,789.5,272.3819,779.5,272.8085,769.5,273.6186,759.5,272.8282,749.5,272.9823,739.5,273.2156,729.5,273.2932,719.5,272.873,709.5,273.1642,699.5,272.3045,689.5,272.877,689.7844,272.877,690.0482,262.479,689.9445,252.0811,690.113,241.6832,689.0169,231.2853,688.8478,220.8874,688.8786,210.4895,689.4411,200.0916,689.3035,189.6937,690.1814,179.2958,689.3253,168.8979,689.5,158.5" style="stroke: #228B22; stroke-width: 3.0;"/><text fill="#228B22" font-family="sans-serif" font-size="12" font-style="italic" lengthAdjust="spacingAndGlyphs" textLength="55" x="732" y="176.957">«Creator»</text><text fill="#228B22" font-family="courier" font-size="20" font-weight="bold" lengthAdjust="spacingAndGlyphs" textLength="132" x="693.5" y="201.7012">DeliveryMan</text><path d="M690.5,213.707 L690.5,213.9873 L700.3571,213.1546 L710.2143,213.9647 L720.0714,214.2399 L729.9286,212.7558 L739.7857,213.6034 L749.6429,213.1384 L759.5,213.1957 L769.3571,213.6162 L779.2143,212.7852 L789.0714,214.4452 L798.9286,212.8667 L808.7857,213.4433 L818.6429,214.283 L828.5,213.707 " fill="#222222" style="stroke: #228B22; stroke-width: 3.0;"/><path d="M690.5,221.707 L690.5,221.9873 L700.3571,221.1546 L710.2143,221.9647 L720.0714,222.2399 L729.9286,220.7558 L739.7857,221.6034 L749.6429,221.1384 L759.5,221.1957 L769.3571,221.6162 L779.2143,220.7852 L789.0714,222.4452 L798.9286,220.8667 L808.7857,221.4433 L818.6429,222.283 L828.5,221.707 " fill="#222222" style="stroke: #228B22; stroke-width: 3.0;"/><polygon fill="#84BE84" points="703.5166,238.7292,703.0768,239.3301,702.5567,240.2102,701.8128,240.8033,701.0311,241.1276,700.4078,241.1557,699.6067,240.7501,698.8509,240.4851,698.2771,239.9471,697.9762,239.3312,697.7977,238.8407,697.6229,238.2002,697.3391,237.6489,697.5572,237.1107,697.7482,236.5211,698.4653,236.0548,698.9697,235.4498,699.5941,235.2489,700.3364,235.0759,701.2883,235.1787,701.8097,235.4246,702.4158,235.536,703.1529,236.2911,703.4098,237.0883,703.5214,237.6322,703.395,238.5286" style="stroke: #038048; stroke-width: 1.0;"/><text fill="#A9A9A9" font-family="courier" font-size="15" lengthAdjust="spacingAndGlyphs" textLength="108" x="710.5" y="241.7876">getVehicle()</text><polygon fill="#84BE84" points="703.5166,260.3142,703.0768,260.9151,702.5567,261.7951,701.8128,262.3882,701.0311,262.7125,700.4078,262.7407,699.6067,262.3351,698.8509,262.0701,698.2771,261.5321,697.9762,260.9161,697.7977,260.4257,697.6229,259.7851,697.3391,259.2339,697.5572,258.6957,697.7482,258.1061,698.4653,257.6398,698.9697,257.0348,699.5941,256.8339,700.3364,256.6608,701.2883,256.7636,701.8097,257.0095,702.4158,257.121,703.1529,257.8761,703.4098,258.6733,703.5214,259.2172,703.395,260.1135" style="stroke: #038048; stroke-width: 1.0;"/><text fill="#A9A9A9" font-family="courier" font-size="15" lengthAdjust="spacingAndGlyphs" textLength="81" x="710.5" y="263.3726">deliver()</text><path d="M391,144 L391,286.5664 A0,0 0 0 0 391,286.5664 L654,286.5664 A0,0 0 0 0 654,286.5664 L654,219.5 L689.31,215.5 L654,211.5 L654,154 L644,144 L391,144 A0,0 0 0 0 391,144 " fill="#222222" style="stroke: #A9A9A9; stroke-width: 3.0;"/><path d="M644,144 L644.1868,144 L643.6317,146 L644.1718,148 L644.3553,150 L643.3659,152 L644,154 L644,153.9309 L646,153.6209 L648,153.6591 L650,153.9394 L652,153.3854 L654,154 L654.348,154.348 L651.6038,151.6038 L649.8757,149.8757 L648.2715,148.2715 L645.9461,145.9461 L644,144 " fill="#222222" style="stroke: #A9A9A9; stroke-width: 3.0;"/><text fill="#A9A9A9" font-family="courier" font-size="20" lengthAdjust="spacingAndGlyphs" textLength="216" x="398" y="170.1074">public deliver() {</text><text fill="#A9A9A9" font-family="courier" font-size="20" lengthAdjust="spacingAndGlyphs" textLength="36" x="422" y="196.2207">...</text><text fill="#A9A9A9" font-family="courier" font-size="20" lengthAdjust="spacingAndGlyphs" textLength="216" x="422" y="222.334">this.getVehicle();</text><text fill="#A9A9A9" font-family="courier" font-size="20" lengthAdjust="spacingAndGlyphs" textLength="36" x="422" y="248.4473">...</text><text fill="#A9A9A9" font-family="courier" font-size="20" lengthAdjust="spacingAndGlyphs" textLength="12" x="398" y="274.5605">}</text><!--class CyclistDeliveryMan--><polygon fill="#222222" points="340.5,347,340.5,347.2102,350.6818,346.5857,360.8636,347.1933,371.0455,347.3997,381.2273,346.2866,391.4091,346.9223,401.5909,346.5735,411.7727,346.6165,421.9545,346.9318,432.1364,346.3086,442.3182,347.5536,452.5,346.3697,462.6818,346.8022,472.8636,347.4319,483.0455,346.9142,493.2273,347.0682,503.4091,346.9681,513.5909,347.1785,523.7727,347.2391,533.9545,347.5857,544.1364,347.6711,554.3182,347.6793,564.5,347,564.7546,347,564.9636,357.3102,565.2022,367.6204,563.7788,377.9307,565.1785,388.2409,564.2035,398.5511,565.0338,408.8613,564.005,419.1715,564.4315,429.4818,564.5,439.792,564.5,440.5336,554.3182,439.7433,544.1364,439.8973,533.9545,440.1306,523.7727,440.2082,513.5909,439.7881,503.4091,440.0792,493.2273,439.2196,483.0455,440.0764,472.8636,440.3402,462.6818,440.2365,452.5,440.405,442.3182,439.3089,432.1364,439.1398,421.9545,439.1706,411.7727,439.7331,401.5909,439.5955,391.4091,440.4734,381.2273,439.6173,371.0455,439.4489,360.8636,440.0203,350.6818,439.1252,340.5,439.792,339.9809,439.792,341.149,429.4818,340.9357,419.1715,341.2345,408.8613,340.1782,398.5511,340.8192,388.2409,341.0904,377.9307,340.0276,367.6204,340.4041,357.3102,340.5,347" style="stroke: #228B22; stroke-width: 3.0;"/><text fill="#228B22" font-family="sans-serif" font-size="12" font-style="italic" lengthAdjust="spacingAndGlyphs" textLength="113" x="396" y="365.457">«ConcreteCreatorA»</text><text fill="#228B22" font-family="courier" font-size="20" font-weight="bold" lengthAdjust="spacingAndGlyphs" textLength="216" x="344.5" y="390.2012">CyclistDeliveryMan</text><path d="M341.5,402.207 L341.5,402.4873 L351.5909,401.6546 L361.6818,402.4647 L371.7727,402.7399 L381.8636,401.2558 L391.9545,402.1034 L402.0455,401.6384 L412.1364,401.6957 L422.2273,402.1162 L432.3182,401.2852 L442.4091,402.9452 L452.5,401.3667 L462.5909,401.9433 L472.6818,402.783 L482.7727,402.0927 L492.8636,402.298 L502.9545,402.1644 L513.0455,402.4451 L523.1364,402.5259 L533.2273,402.988 L543.3182,403.1018 L553.4091,403.1127 L563.5,402.207 " fill="#222222" style="stroke: #228B22; stroke-width: 3.0;"/><path d="M341.5,410.207 L341.5,410.4873 L351.5909,409.6546 L361.6818,410.4647 L371.7727,410.7399 L381.8636,409.2558 L391.9545,410.1034 L402.0455,409.6384 L412.1364,409.6957 L422.2273,410.1162 L432.3182,409.2852 L442.4091,410.9452 L452.5,409.3667 L462.5909,409.9433 L472.6818,410.783 L482.7727,410.0927 L492.8636,410.298 L502.9545,410.1644 L513.0455,410.4451 L523.1364,410.5259 L533.2273,410.988 L543.3182,411.1018 L553.4091,411.1127 L563.5,410.207 " fill="#222222" style="stroke: #228B22; stroke-width: 3.0;"/><polygon fill="#84BE84" points="354.5166,427.2292,354.0768,427.8301,353.5567,428.7102,352.8128,429.3033,352.0311,429.6276,351.4078,429.6557,350.6067,429.2501,349.8509,428.9851,349.2771,428.4471,348.9762,427.8312,348.7977,427.3407,348.6229,426.7002,348.3391,426.1489,348.5572,425.6107,348.7482,425.0211,349.4653,424.5548,349.9697,423.9498,350.5941,423.7489,351.3364,423.5759,352.2883,423.6787,352.8097,423.9246,353.4158,424.036,354.1529,424.7911,354.4098,425.5883,354.5214,426.1322,354.395,427.0286" style="stroke: #038048; stroke-width: 1.0;"/><text fill="#A9A9A9" font-family="courier" font-size="15" lengthAdjust="spacingAndGlyphs" textLength="108" x="361.5" y="430.2876">getVehicle()</text><path d="M6,348.5 L6,438.8398 A0,0 0 0 0 6,438.8398 L305,438.8398 A0,0 0 0 0 305,438.8398 L305,397.5 L340.27,393.5 L305,389.5 L305,358.5 L295,348.5 L6,348.5 A0,0 0 0 0 6,348.5 " fill="#222222" style="stroke: #A9A9A9; stroke-width: 3.0;"/><path d="M295,348.5 L295.1868,348.5 L294.6317,350.5 L295.1718,352.5 L295.3553,354.5 L294.3659,356.5 L295,358.5 L295,358.4309 L297,358.1209 L299,358.1591 L301,358.4394 L303,357.8854 L305,358.5 L305.348,358.848 L302.6038,356.1038 L300.8757,354.3757 L299.2715,352.7715 L296.9461,350.4461 L295,348.5 " fill="#222222" style="stroke: #A9A9A9; stroke-width: 3.0;"/><text fill="#A9A9A9" font-family="courier" font-size="20" lengthAdjust="spacingAndGlyphs" textLength="228" x="13" y="374.6074">public getVehicle()</text><text fill="#A9A9A9" font-family="courier" font-size="20" lengthAdjust="spacingAndGlyphs" textLength="252" x="37" y="400.7207">return new Bicycle();</text><text fill="#A9A9A9" font-family="courier" font-size="20" lengthAdjust="spacingAndGlyphs" textLength="12" x="13" y="426.834">}</text><!--class MotorcyclistDeliveryMan--><polygon fill="#222222" points="740.5,347,740.5,347.2102,750.6429,346.5857,760.7857,347.1933,770.9286,347.3997,781.0714,346.2866,791.2143,346.9223,801.3571,346.5735,811.5,346.6165,821.6429,346.9318,831.7857,346.3086,841.9286,347.5536,852.0714,346.3697,862.2143,346.8022,872.3571,347.4319,882.5,346.9142,892.6429,347.0682,902.7857,346.9681,912.9286,347.1785,923.0714,347.2391,933.2143,347.5857,943.3571,347.6711,953.5,347.6793,963.6429,347.2546,973.7857,347.4636,983.9286,347.7022,994.0714,346.2788,1004.2143,347.6785,1014.3571,346.7035,1024.5,347,1025.0338,347,1024.005,357.3102,1024.4315,367.6204,1025.2416,377.9307,1024.4513,388.2409,1024.6053,398.5511,1024.8386,408.8613,1024.9162,419.1715,1024.4961,429.4818,1024.5,439.792,1024.5,440.0792,1014.3571,439.2196,1004.2143,440.0764,994.0714,440.3402,983.9286,440.2365,973.7857,440.405,963.6429,439.3089,953.5,439.1398,943.3571,439.1706,933.2143,439.7331,923.0714,439.5955,912.9286,440.4734,902.7857,439.6173,892.6429,439.4489,882.5,440.0203,872.3571,439.1252,862.2143,439.2729,852.0714,440.4409,841.9286,440.2277,831.7857,440.5265,821.6429,439.4702,811.5,440.1112,801.3571,440.3824,791.2143,439.3196,781.0714,439.6961,770.9286,439.918,760.7857,440.4438,750.6429,439.7878,740.5,439.792,740.9626,439.792,739.9462,429.4818,739.8227,419.1715,741.0036,408.8613,739.7831,398.5511,741.009,388.2409,740.7066,377.9307,740.2321,367.6204,740.1462,357.3102,740.5,347" style="stroke: #228B22; stroke-width: 3.0;"/><text fill="#228B22" font-family="sans-serif" font-size="12" font-style="italic" lengthAdjust="spacingAndGlyphs" textLength="113" x="826" y="365.457">«ConcreteCreatorB»</text><text fill="#228B22" font-family="courier" font-size="20" font-weight="bold" lengthAdjust="spacingAndGlyphs" textLength="276" x="744.5" y="390.2012">MotorcyclistDeliveryMan</text><path d="M741.5,402.207 L741.5,402.4873 L751.5714,401.6546 L761.6429,402.4647 L771.7143,402.7399 L781.7857,401.2558 L791.8571,402.1034 L801.9286,401.6384 L812,401.6957 L822.0714,402.1162 L832.1429,401.2852 L842.2143,402.9452 L852.2857,401.3667 L862.3571,401.9433 L872.4286,402.783 L882.5,402.0927 L892.5714,402.298 L902.6429,402.1644 L912.7143,402.4451 L922.7857,402.5259 L932.8571,402.988 L942.9286,403.1018 L953,403.1127 L963.0714,402.5465 L973.1429,402.8251 L983.2143,403.1433 L993.2857,401.2455 L1003.3571,403.1117 L1013.4286,401.8117 L1023.5,402.207 " fill="#222222" style="stroke: #228B22; stroke-width: 3.0;"/><path d="M741.5,410.207 L741.5,410.4873 L751.5714,409.6546 L761.6429,410.4647 L771.7143,410.7399 L781.7857,409.2558 L791.8571,410.1034 L801.9286,409.6384 L812,409.6957 L822.0714,410.1162 L832.1429,409.2852 L842.2143,410.9452 L852.2857,409.3667 L862.3571,409.9433 L872.4286,410.783 L882.5,410.0927 L892.5714,410.298 L902.6429,410.1644 L912.7143,410.4451 L922.7857,410.5259 L932.8571,410.988 L942.9286,411.1018 L953,411.1127 L963.0714,410.5465 L973.1429,410.8251 L983.2143,411.1433 L993.2857,409.2455 L1003.3571,411.1117 L1013.4286,409.8117 L1023.5,410.207 " fill="#222222" style="stroke: #228B22; stroke-width: 3.0;"/><polygon fill="#84BE84" points="754.5166,427.2292,754.0768,427.8301,753.5567,428.7102,752.8128,429.3033,752.0311,429.6276,751.4078,429.6557,750.6067,429.2501,749.8509,428.9851,749.2771,428.4471,748.9762,427.8312,748.7977,427.3407,748.6229,426.7002,748.3391,426.1489,748.5572,425.6107,748.7482,425.0211,749.4653,424.5548,749.9697,423.9498,750.5941,423.7489,751.3364,423.5759,752.2883,423.6787,752.8097,423.9246,753.4158,424.036,754.1529,424.7911,754.4098,425.5883,754.5214,426.1322,754.395,427.0286" style="stroke: #038048; stroke-width: 1.0;"/><text fill="#A9A9A9" font-family="courier" font-size="15" lengthAdjust="spacingAndGlyphs" textLength="108" x="761.5" y="430.2876">getVehicle()</text><path d="M1060,348.5 L1060,389.5 L1024.75,393.5 L1060,397.5 L1060,438.8398 A0,0 0 0 0 1060,438.8398 L1407,438.8398 A0,0 0 0 0 1407,438.8398 L1407,358.5 L1397,348.5 L1060,348.5 A0,0 0 0 0 1060,348.5 " fill="#222222" style="stroke: #A9A9A9; stroke-width: 3.0;"/><path d="M1397,348.5 L1397.1868,348.5 L1396.6317,350.5 L1397.1718,352.5 L1397.3553,354.5 L1396.3659,356.5 L1397,358.5 L1397,358.4309 L1399,358.1209 L1401,358.1591 L1403,358.4394 L1405,357.8854 L1407,358.5 L1407.348,358.848 L1404.6038,356.1038 L1402.8757,354.3757 L1401.2715,352.7715 L1398.9461,350.4461 L1397,348.5 " fill="#222222" style="stroke: #A9A9A9; stroke-width: 3.0;"/><text fill="#A9A9A9" font-family="courier" font-size="20" lengthAdjust="spacingAndGlyphs" textLength="252" x="1067" y="374.6074">public getVehicle() {</text><text fill="#A9A9A9" font-family="courier" font-size="20" lengthAdjust="spacingAndGlyphs" textLength="288" x="1103" y="400.7207">return new Motorcycle();</text><text fill="#A9A9A9" font-family="courier" font-size="20" lengthAdjust="spacingAndGlyphs" textLength="12" x="1067" y="426.834">}</text><!--class Vehicle--><polygon fill="#222222" points="600,358,600,358.2102,609.5455,357.5857,619.0909,358.1933,628.6364,358.3997,638.1818,357.2866,647.7273,357.9223,657.2727,357.5735,666.8182,357.6165,676.3636,357.9318,685.9091,357.3086,695.4545,358.5536,705,358,704.3697,358,704.8022,368.1724,705.4319,378.3449,704.9142,388.5173,705.0682,398.6897,704.9681,408.8622,705.1785,419.0346,705,429.207,705,429.4462,695.4545,429.7927,685.9091,429.8781,676.3636,429.8863,666.8182,429.4617,657.2727,429.6706,647.7273,429.9093,638.1818,428.4858,628.6364,429.8855,619.0909,428.9105,609.5455,429.7408,600,429.207,599.505,429.207,599.9315,419.0346,600.7416,408.8622,599.9513,398.6897,600.1053,388.5173,600.3386,378.3449,600.4162,368.1724,600,358" style="stroke: #228B22; stroke-width: 3.0;"/><text fill="#228B22" font-family="sans-serif" font-size="12" font-style="italic" lengthAdjust="spacingAndGlyphs" textLength="101" x="602" y="376.457">«AbstractProduct»</text><text fill="#228B22" font-family="courier" font-size="20" font-weight="bold" lengthAdjust="spacingAndGlyphs" textLength="84" x="610.5" y="401.2012">Vehicle</text><path d="M601,413.207 L601,413.4873 L611.3,412.6546 L621.6,413.4647 L631.9,413.7399 L642.2,412.2558 L652.5,413.1034 L662.8,412.6384 L673.1,412.6957 L683.4,413.1162 L693.7,412.2852 L704,413.207 " fill="#222222" style="stroke: #228B22; stroke-width: 3.0;"/><path d="M601,421.207 L601,421.4873 L611.3,420.6546 L621.6,421.4647 L631.9,421.7399 L642.2,420.2558 L652.5,421.1034 L662.8,420.6384 L673.1,420.6957 L683.4,421.1162 L693.7,420.2852 L704,421.207 " fill="#222222" style="stroke: #228B22; stroke-width: 3.0;"/><!--class Bicycle--><polygon fill="#222222" points="503.5,500,503.5,500.2102,513.3333,499.5857,523.1667,500.1933,533,500.3997,542.8333,499.2866,552.6667,499.9223,562.5,499.5735,572.3333,499.6165,582.1667,499.9318,592,499.3086,601.8333,500.5536,611.6667,499.3697,621.5,500,621.3022,500,621.9319,510.1724,621.4142,520.3449,621.5682,530.5173,621.4681,540.6897,621.6785,550.8622,621.7391,561.0346,621.5,571.207,621.5,571.7927,611.6667,571.8781,601.8333,571.8863,592,571.4617,582.1667,571.6706,572.3333,571.9093,562.5,570.4858,552.6667,571.8855,542.8333,570.9105,533,571.7408,523.1667,570.712,513.3333,571.1385,503.5,571.207,504.2416,571.207,503.4513,561.0346,503.6053,550.8622,503.8386,540.6897,503.9162,530.5173,503.4961,520.3449,503.7872,510.1724,503.5,500" style="stroke: #228B22; stroke-width: 3.0;"/><text fill="#228B22" font-family="sans-serif" font-size="12" font-style="italic" lengthAdjust="spacingAndGlyphs" textLength="114" x="505.5" y="518.457">«ConcreteProductA»</text><text fill="#228B22" font-family="courier" font-size="20" font-weight="bold" lengthAdjust="spacingAndGlyphs" textLength="84" x="520.5" y="543.2012">Bicycle</text><path d="M504.5,555.207 L504.5,555.4873 L514.1667,554.6546 L523.8333,555.4647 L533.5,555.7399 L543.1667,554.2558 L552.8333,555.1034 L562.5,554.6384 L572.1667,554.6957 L581.8333,555.1162 L591.5,554.2852 L601.1667,555.9452 L610.8333,554.3667 L620.5,555.207 " fill="#222222" style="stroke: #228B22; stroke-width: 3.0;"/><path d="M504.5,563.207 L504.5,563.4873 L514.1667,562.6546 L523.8333,563.4647 L533.5,563.7399 L543.1667,562.2558 L552.8333,563.1034 L562.5,562.6384 L572.1667,562.6957 L581.8333,563.1162 L591.5,562.2852 L601.1667,563.9452 L610.8333,562.3667 L620.5,563.207 " fill="#222222" style="stroke: #228B22; stroke-width: 3.0;"/><!--class Motorcycle--><polygon fill="#222222" points="677.5,500,677.5,500.2102,687.3462,499.5857,697.1923,500.1933,707.0385,500.3997,716.8846,499.2866,726.7308,499.9223,736.5769,499.5735,746.4231,499.6165,756.2692,499.9318,766.1154,499.3086,775.9615,500.5536,785.8077,499.3697,795.6538,499.8022,805.5,500,805.9319,500,805.4142,510.1724,805.5682,520.3449,805.4681,530.5173,805.6785,540.6897,805.7391,550.8622,806.0857,561.0346,805.5,571.207,805.5,571.8781,795.6538,571.8863,785.8077,571.4617,775.9615,571.6706,766.1154,571.9093,756.2692,570.4858,746.4231,571.8855,736.5769,570.9105,726.7308,571.7408,716.8846,570.712,707.0385,571.1385,697.1923,571.9486,687.3462,571.1583,677.5,571.207,677.6053,571.207,677.8386,561.0346,677.9162,550.8622,677.4961,540.6897,677.7872,530.5173,676.9276,520.3449,677.7844,510.1724,677.5,500" style="stroke: #228B22; stroke-width: 3.0;"/><text fill="#228B22" font-family="sans-serif" font-size="12" font-style="italic" lengthAdjust="spacingAndGlyphs" textLength="114" x="684.5" y="518.457">«ConcreteProductB»</text><text fill="#228B22" font-family="courier" font-size="20" font-weight="bold" lengthAdjust="spacingAndGlyphs" textLength="120" x="681.5" y="543.2012">Motorcycle</text><path d="M678.5,555.207 L678.5,555.4873 L688.1923,554.6546 L697.8846,555.4647 L707.5769,555.7399 L717.2692,554.2558 L726.9615,555.1034 L736.6538,554.6384 L746.3462,554.6957 L756.0385,555.1162 L765.7308,554.2852 L775.4231,555.9452 L785.1154,554.3667 L794.8077,554.9433 L804.5,555.207 " fill="#222222" style="stroke: #228B22; stroke-width: 3.0;"/><path d="M678.5,563.207 L678.5,563.4873 L688.1923,562.6546 L697.8846,563.4647 L707.5769,563.7399 L717.2692,562.2558 L726.9615,563.1034 L736.6538,562.6384 L746.3462,562.6957 L756.0385,563.1162 L765.7308,562.2852 L775.4231,563.9452 L785.1154,562.3667 L794.8077,562.9433 L804.5,563.207 " fill="#222222" style="stroke: #228B22; stroke-width: 3.0;"/><!--link Scenario to DeliveryMan--><path d="M759.5,84.17 L759.7802,84.17 L758.9476,94.02 L759.7577,103.87 L760.0329,113.72 L758.5488,123.57 L759.3964,133.42 L758.9313,143.27 L759.5,153.12 " fill="none" style="stroke: #A9A9A9; stroke-width: 2.0; stroke-dasharray: 7.0,7.0;"/><polygon fill="#A9A9A9" points="759.5,158.32,759.564,158.3485,760.1738,156.4639,761.1589,154.7462,762.0217,152.9741,762.4827,151.0234,763.5,149.32,763.4817,149.3017,762.5995,150.0195,761.8096,150.8296,761.0839,151.7039,760.137,152.357,759.5,153.32,759.6305,153.4505,758.5514,152.3714,757.8534,151.6734,757.2018,151.0218,756.2798,150.0998,755.5,149.32,755.5208,149.3292,756.2903,151.1157,757.1544,152.9442,757.9728,154.7524,758.8784,156.5993,759.5,158.32" style="stroke: #A9A9A9; stroke-width: 2.0;"/><!--link Scenario to CyclistDeliveryMan--><path d="M707.21,52.31 L707.221,52.4028 L703.3751,52.5772 L699.5934,53.2955 L695.7909,53.8367 L691.9195,53.7955 L688.1434,54.5605 L688.139,54.5263 L683.9059,54.9065 L679.6947,55.4596 L675.4988,56.1327 L671.2503,56.392 L667.0754,57.2309 L667.1087,57.4747 L662.4991,57.5733 L657.9868,58.3837 L653.4863,59.2809 L648.9168,59.6729 L644.3836,60.3306 L644.3881,60.3606 L639.594,61.0242 L634.8202,61.8245 L630.0366,62.5588 L625.2715,63.4189 L620.4459,63.8691 L620.4933,64.1635 L615.5327,64.9645 L610.5415,65.5755 L605.5951,66.4645 L600.6507,67.3666 L595.64,67.8558 L595.5845,67.5401 L590.6329,69.0417 L585.4986,69.5038 L580.5032,70.7561 L575.3648,71.1946 L570.3436,72.3002 L570.3378,72.2703 L565.3243,73.6061 L560.1757,74.2436 L555.1069,75.2931 L550.0447,76.3772 L544.9343,77.2118 L544.9731,77.3927 L539.9051,78.2877 L534.9033,79.4919 L529.7944,80.196 L524.8453,81.6459 L519.79,82.6 L519.8452,82.8373 L517.3638,83.3676 L514.9099,84.0157 L512.3285,84.1164 L509.8405,84.6183 L507.4352,85.4758 L507.369,85.2077 L504.9996,86.0501 L502.5555,86.5904 L500.2197,87.5689 L497.6991,87.7992 L495.2883,88.4743 L495.2496,88.3268 L492.9358,89.1969 L490.4564,89.4366 L488.0947,90.1246 L485.8482,91.2512 L483.3966,91.5967 L483.4488,91.7832 L481.1667,92.5605 L478.7222,92.758 L476.4811,93.6818 L474.1958,94.4474 L471.8071,94.8442 L471.7467,94.6431 L469.5468,95.4781 L467.3272,96.2473 L465.1464,97.1459 L462.8146,97.5414 L460.5671,98.2179 L460.6303,98.4135 L458.3228,98.6839 L456.1373,99.3319 L454.13,100.5316 L451.7946,100.7156 L449.7239,101.7191 L449.7984,101.9326 L447.6743,102.5317 L445.525,103.0586 L443.4325,103.7485 L441.4717,104.8154 L439.3246,105.3489 L439.2774,105.2245 L437.4363,106.3467 L435.2743,106.623 L433.4771,107.8612 L431.4745,108.5578 L429.4166,109.1084 L429.4601,109.2082 L425.7942,110.7103 L422.2841,112.5698 L418.6333,114.1064 L414.9236,115.508 L411.2628,117.0218 L411.3195,117.1266 L408.1107,118.6602 L405.1652,120.6805 L401.922,122.1503 L398.8013,123.8466 L395.6403,125.4685 L395.4842,125.2477 L392.9936,127.1193 L390.6911,129.2569 L388.1224,131.0182 L385.4585,132.6446 L382.9268,134.4581 L382.8249,134.3574 L380.9722,136.2981 L378.9391,138.0605 L377.4018,140.3128 L375.6192,142.3226 L373.5,144 L373.6895,144.1372 L372.418,146.0217 L370.7865,147.6456 L369.5349,149.5445 L368.0318,151.2614 L366.8392,153.203 L366.9471,153.2686 L365.8563,155.0316 L364.8958,156.8738 L363.5222,158.4649 L362.4817,160.2585 L361.4562,162.0612 L361.6373,162.1389 L360.2346,165.55 L358.3401,168.7503 L357.0169,172.1956 L355.7037,175.6451 L354.1894,179.0084 L353.9228,178.957 L353.712,182.3109 L353.0389,185.5756 L352.2508,188.8181 L351.7253,192.1113 L351.0316,195.3721 L351.3554,195.3777 L350.9493,198.6317 L351.285,201.8987 L351.3286,205.1605 L351.3098,208.4213 L351.315,211.6825 L351.3766,211.6937 L351.9759,215.0491 L352.2647,218.3479 L352.9736,221.7232 L353.5584,225.0759 L354.3715,228.4701 L354.3987,228.478 L355.4414,232.0401 L356.5052,235.6082 L357.3443,239.1112 L358.472,242.6979 L359.5331,246.2653 L359.4826,246.2481 L361.0955,250.2148 L362.3521,254.0598 L363.2882,257.7955 L364.7815,261.7214 L366.132,265.5985 L365.8894,265.515 L367.7268,269.9205 L369.3349,274.2471 L370.7816,278.5182 L371.8434,282.6567 L373.5,287 L373.6914,287.0767 L374.3819,289.8453 L375.9594,292.969 L376.9417,295.8545 L378.2935,298.8879 L379.442,301.8398 L379.5366,301.8894 L381.1352,304.8121 L382.1733,307.4408 L384.1512,310.5623 L385.5415,313.3757 L386.9788,316.2138 L387.1122,316.2982 L388.996,319.134 L390.4537,321.6999 L392.254,324.4826 L394.0048,327.2341 L395.6611,329.9258 L395.7319,329.9774 L397.5366,332.4964 L399.6678,335.2536 L401.0695,337.4786 L403.3672,340.3572 L405.04,342.78 " fill="none" style="stroke: #A9A9A9; stroke-width: 2.0; stroke-dasharray: 7.0,7.0;"/><polygon fill="#A9A9A9" points="408.3,346.9,408.3679,346.9174,407.6759,344.9579,407.3816,343.1005,406.9579,341.2099,406.1081,339.2098,405.8481,337.3612,405.8223,337.3582,405.5764,338.4687,405.4602,339.5941,405.4341,340.7301,405.0973,341.83,405.1958,342.9804,405.217,343.1637,404.0477,342.6412,402.9405,342.6539,401.8409,342.732,400.6972,342.4301,399.5766,342.328,399.5872,342.3482,401.3164,343.233,403.0936,344.2095,404.8477,345.1418,406.646,346.1585,408.3,346.9" style="stroke: #A9A9A9; stroke-width: 2.0;"/><!--link Scenario to MotorcyclistDeliveryMan--><path d="M802.82,84.02 L802.8878,84.0842 L805.1915,86.5389 L807.8928,89.3702 L810.4646,92.0788 L812.6107,94.3842 L815.3461,97.2478 L815.3195,97.2257 L817.6228,100.0426 L820.0601,102.9708 L822.5904,105.9763 L824.7999,108.7152 L827.4588,111.8275 L827.6604,111.9686 L829.4219,114.8011 L831.772,118.0455 L834.194,121.3401 L836.1981,124.3424 L838.422,127.4984 L838.4486,127.5131 L840.2252,130.7919 L842.1227,134.1373 L843.9619,137.4506 L845.9125,140.8252 L847.5,144 L847.7731,144.1198 L848.8384,146.5432 L849.7275,148.8895 L850.8745,151.3488 L852.0336,153.8134 L852.8097,156.1101 L852.5104,155.9953 L854.0478,158.7122 L854.5998,161.0512 L855.9009,163.6775 L856.4305,166.0078 L857.5925,168.5808 L857.5636,168.5711 L858.7614,171.2377 L859.2848,173.6781 L860.2061,176.252 L861.1609,178.8371 L861.8746,181.3413 L862.0521,181.3934 L862.6345,183.9368 L863.5202,186.5692 L863.9151,189.0576 L865.0421,191.7607 L865.6823,194.3211 L865.9184,194.3815 L866.5457,196.9957 L867.2901,199.64 L867.4901,202.1449 L868.0892,204.7519 L869.0419,207.4494 L868.7723,207.3894 L869.6039,210.085 L870.1317,212.7129 L871.1001,215.4389 L871.3162,217.9975 L871.9795,220.6556 L871.8297,220.6268 L872.5875,223.3174 L872.7052,225.8849 L873.278,228.54 L874.2962,231.2807 L874.5214,233.8689 L874.7124,233.9005 L875.2779,236.5521 L875.2492,239.1055 L875.9648,241.7819 L876.5182,244.4316 L876.6938,247.0188 L876.4858,246.9895 L877.0174,249.616 L877.4809,252.2328 L878.0781,254.8685 L878.1552,257.431 L878.5229,260.0344 L878.7271,260.0585 L878.5809,262.5677 L878.8288,265.1234 L879.6525,267.7471 L879.4162,270.2457 L880.0351,272.8452 L880.2602,272.8672 L880.3707,275.3612 L880.4051,277.8478 L880.6114,280.3511 L881.2151,282.8932 L881.2564,285.3805 L881.1238,285.3701 L881.71,287.8389 L881.3943,290.2369 L882.1041,292.7154 L882.2365,295.1486 L882.2133,297.5695 L882.322,297.5762 L882.3779,299.9252 L882.823,302.2981 L882.9166,304.6494 L882.8632,306.9918 L882.9318,309.3417 L883.0509,309.347 L882.9753,311.596 L883.4525,313.8698 L883.3045,316.1155 L883.4136,318.3728 L883.4383,320.6263 L883.168,320.6182 L883.3224,322.7662 L883.8023,324.9239 L883.8216,327.0678 L883.6757,329.2068 L883.7589,331.3526 L883.6158,331.3503 L883.6939,333.3705 L883.5184,335.3867 L884.0399,337.414 L884.2164,339.4358 L883.92,341.45 " fill="none" style="stroke: #A9A9A9; stroke-width: 2.0; stroke-dasharray: 7.0,7.0;"/><polygon fill="#A9A9A9" points="883.95,346.7,884.0142,346.7281,884.6132,344.8401,885.5884,343.1167,886.4412,341.3398,886.891,339.3865,887.8985,337.6773,887.8801,337.6591,887.002,338.3819,886.2168,339.1965,885.4961,340.075,884.553,340.7335,883.9214,341.7001,884.0512,341.8313,882.9692,340.7553,882.266,340.0624,881.609,339.4162,880.6831,338.4981,879.8986,337.723,879.9194,337.7324,880.6992,339.514,881.5734,341.3383,882.4021,343.142,883.3177,344.9849,883.95,346.7" style="stroke: #A9A9A9; stroke-width: 2.0;"/><!--link DeliveryMan to Vehicle--><path d="M725.35,272.67 L725.5895,272.8156 L719.4202,281.3608 L714.6547,290.7594 L709.432,299.8802 L702.7061,308.087 L697.9726,317.5051 L692.1174,326.2413 L686.7086,335.2488 L681.6101,344.445 L676.23,353.47 " fill="none" style="stroke: #A9A9A9; stroke-width: 2.0; stroke-dasharray: 7.0,7.0;"/><polygon fill="#A9A9A9" points="673.59,357.82,673.6299,357.8776,675.1306,356.5849,676.8652,355.6298,678.5237,354.5647,679.9316,353.1381,681.6863,352.212,681.6802,352.1868,680.5534,352.3413,679.4575,352.6226,678.383,352.9921,677.2346,353.0577,676.1897,353.549,676.3691,353.5926,675.7182,352.4,675.5909,351.3348,675.5274,350.2851,675.0923,349.145,674.8527,348.0524,674.8753,348.0553,674.5896,350.0046,674.4067,351.9671,674.1741,353.9232,674.0362,355.8915,673.59,357.82" style="stroke: #A9A9A9; stroke-width: 2.0;"/><!--link DeliveryMan to CyclistDeliveryMan--><path d="M675.75,284.27 L675.8005,284.3486 L674.8005,284.6611 L674.0964,285.4343 L673.296,286.0575 L672.1786,286.1872 L671.5,287 L671.4819,286.9706 L668.7165,288.4861 L666.0421,290.15 L663.4311,291.9172 L660.6019,293.3287 L658.0782,295.2383 L658.2024,295.4507 L655.1739,296.6121 L652.508,298.3936 L649.8863,300.2508 L647.0072,301.6677 L644.2634,303.3163 L644.2783,303.3427 L641.4368,304.8823 L638.6628,306.5424 L635.8563,308.1444 L633.1119,309.8573 L630.165,311.2086 L630.3064,311.4712 L627.4536,313.0107 L624.5097,314.3808 L621.6992,315.9989 L618.8949,317.6285 L615.8925,318.89 L615.7448,318.6055 L613.164,320.6467 L610.0969,321.7511 L607.3995,323.5676 L604.3213,324.6509 L601.5553,326.3352 L601.5416,326.308 L598.8448,328.0664 L595.8286,329.1892 L593.0008,330.6871 L590.1889,332.2165 L587.2628,333.5188 L587.3439,333.685 L584.4344,334.8965 L581.6635,336.3922 L578.6683,337.4281 L576.0076,339.1497 L573.1246,340.4155 L573.229,340.6356 L570.4344,341.9109 L567.6916,343.2954 L564.7078,344.1722 L561.9006,345.4212 L559.25,347 " fill="none" style="stroke: #A9A9A9; stroke-width: 2.0;"/><polygon fill="none" points="671.98,278.37,671.9986,278.4375,676.0293,277.1109,680.1691,276.1801,684.2734,275.1204,688.2608,273.6367,692.41,272.74,692.389,272.7248,689.803,276.0844,687.3226,279.5208,684.9156,283.0106,682.2556,286.3165,679.95,289.88,680.1017,289.9851,678.1833,287.4584,676.7078,285.2385,675.2864,283.056,673.5505,280.6557,671.98,278.37" style="stroke: #A9A9A9; stroke-width: 2.0;"/><!--link DeliveryMan to MotorcyclistDeliveryMan--><path d="M810.24,289.11 L810.4697,289.2706 L815.5529,297.0421 L821.9827,305.7548 L827.9739,314.161 L832.5232,321.5593 L838.9836,330.2935 L844.3682,338.2756 L850.6,346.85 " fill="none" style="stroke: #A9A9A9; stroke-width: 2.0;"/><polygon fill="none" points="804.48,293.07,804.5475,293.0889,803.203,288.9527,802.254,284.9274,801.1763,280.866,799.675,276.6858,798.76,272.67,798.7449,272.649,802.1149,275.0306,805.5613,277.5183,809.0607,280.0796,812.3773,282.387,815.95,285.05,816.0558,285.2012,813.5356,286.4818,811.3242,288.204,809.1505,289.98,806.7576,291.4426,804.48,293.07" style="stroke: #A9A9A9; stroke-width: 2.0;"/><!--link CyclistDeliveryMan to Bicycle--><path d="M488.52,440.34 L488.7404,440.5131 L494.2642,447.863 L501.0798,456.2278 L507.4748,464.2621 L512.4863,471.2095 L519.3314,479.5974 L525.1443,487.1744 L531.77,495.39 " fill="none" style="stroke: #A9A9A9; stroke-width: 2.0; stroke-dasharray: 7.0,7.0;"/><polygon fill="#A9A9A9" points="535.13,499.66,535.1979,499.6772,534.5134,497.7164,534.227,495.8564,533.811,493.9635,532.9686,491.9629,532.7164,490.1115,532.6907,490.1084,532.4403,491.2178,532.3195,492.3428,532.2889,493.4786,531.9477,494.5771,532.0415,495.7279,532.0635,495.9111,530.8932,495.3843,529.7871,495.3925,528.6888,495.4659,527.545,495.1596,526.4251,495.053,526.4357,495.0731,528.1611,495.965,529.9349,496.9484,531.6853,497.8877,533.4803,498.9112,535.13,499.66" style="stroke: #A9A9A9; stroke-width: 2.0;"/><!--link MotorcyclistDeliveryMan to Motorcycle--><path d="M836.33,440.34 L836.5275,440.5389 L828.957,446.883 L822.5441,454.3929 L815.7542,461.5231 L807.7248,467.4051 L801.3382,474.9415 L794.0268,481.5465 L787.0835,488.5222 L780.46,495.82 " fill="none" style="stroke: #A9A9A9; stroke-width: 2.0; stroke-dasharray: 7.0,7.0;"/><polygon fill="#A9A9A9" points="776.59,499.66,776.615,499.7254,778.3806,498.8276,780.2928,498.3134,782.1573,497.6743,783.8647,496.6243,785.7895,496.143,785.7895,496.1171,784.6579,495.9986,783.5265,496.0106,782.3954,496.1135,781.2636,495.9034,780.1327,496.1316,780.3172,496.132,779.9249,494.9998,780.0713,493.8687,780.2835,492.7378,780.1132,491.6061,780.1441,490.4748,780.1653,490.483,779.4233,492.308,778.778,494.1703,778.086,496.0147,777.4829,497.8934,776.59,499.66" style="stroke: #A9A9A9; stroke-width: 2.0;"/><!--link Vehicle to Bicycle--><path d="M619.26,446.21 L619.4957,446.3616 L613.052,454.8446 L607.9901,464.216 L602.4783,473.2982 L595.4866,481.4289 L590.4562,490.8206 L584.8,499.81 " fill="none" style="stroke: #A9A9A9; stroke-width: 2.0;"/><polygon fill="none" points="613.55,442.15,613.5931,442.2052,616.805,439.4331,620.2697,436.9848,623.652,434.431,626.7636,431.5306,630.25,429.11,630.2248,429.104,629.1277,433.199,628.1577,437.3243,627.2759,441.4707,626.0898,445.5445,625.33,449.72,625.4298,449.8753,622.8604,448.0293,620.5824,446.6365,618.3398,445.2991,615.8905,443.6399,613.55,442.15" style="stroke: #A9A9A9; stroke-width: 2.0;"/><!--link Vehicle to Motorcycle--><path d="M685.37,446.21 L685.6065,446.3603 L690.5821,454.847 L696.9442,464.2149 L702.8547,473.2959 L707.2806,481.4331 L713.6742,490.8211 L719.44,499.81 " fill="none" style="stroke: #A9A9A9; stroke-width: 2.0;"/><polygon fill="none" points="679.32,449.74,679.3882,449.7559,678.2215,445.5826,677.4547,441.5027,676.5577,437.3923,675.2324,433.1819,674.5,429.11,674.484,429.0897,677.74,431.6224,681.0769,434.2576,684.4699,436.9642,687.6693,439.425,691.14,442.23,691.239,442.3858,688.6633,443.5547,686.3766,445.1784,684.1252,446.8575,681.6687,448.2139,679.32,449.74" style="stroke: #A9A9A9; stroke-width: 2.0;"/><!--
@startuml
skinparam backgroundColor #222222
skinparam handwritten true
hide circle

skinparam shadowing false
skinparam padding 1
skinparam arrow {
    Thickness 2
    Color #DarkGrey
    FontSize 20
    FontName courier
    FontStyle normal
    FontColor #DarkGrey
}
skinparam class {
    BorderThickness 3
    BorderColor #228B22
    BackgroundColor #222222
    FontSize 20
    FontName courier
    FontStyle bold
    FontColor #228B22
    StereotypeFontColor #228B22
}
skinparam classAttribute {
    FontSize 15
    FontName courier
    FontStyle normal
    FontColor #DarkGrey
}
skinparam note {
    BorderThickness 3
    BorderColor #DarkGrey
    BackgroundColor #222222
    FontSize 20
    FontName courier
    FontStyle normal
    FontColor #DarkGrey
}

class Scenario  {
+ main()
}

class DeliveryMan <<Creator>>  {
+ getVehicle()
+ deliver()

}

note left
public deliver() {
  ...
  this.getVehicle();
  ...
}
end note

class CyclistDeliveryMan <<ConcreteCreatorA>>  {
+ getVehicle()
}
note left
public getVehicle()
  return new Bicycle();
}
end note

class MotorcyclistDeliveryMan <<ConcreteCreatorB>>  {
+ getVehicle()
}
note right
public getVehicle() {
   return new Motorcycle();
}
end note

class Vehicle <<AbstractProduct>>
class Bicycle <<ConcreteProductA>>
class Motorcycle <<ConcreteProductB>>



Scenario ..> DeliveryMan
Scenario ..> CyclistDeliveryMan
Scenario ..> MotorcyclistDeliveryMan
DeliveryMan ..> Vehicle
DeliveryMan <|- - CyclistDeliveryMan
DeliveryMan <|- - MotorcyclistDeliveryMan
CyclistDeliveryMan ..> Bicycle
MotorcyclistDeliveryMan ..> Motorcycle
Vehicle <|- - Bicycle
Vehicle <|- - Motorcycle
@enduml

PlantUML version 1.2019.05(Sat Apr 20 18:45:36 CEST 2019)
(GPL source distribution)
Java Runtime: Java(TM) SE Runtime Environment
JVM: Java HotSpot(TM) 64-Bit Server VM
Java Version: 11.0.14+8-LTS-263
Operating System: Windows 10
OS Version: 10.0
Default Encoding: windows-1252
Language: es
Country: ES
--></g></svg>