<?xml version="1.0" encoding="UTF-8" standalone="no"?><svg xmlns="http://www.w3.org/2000/svg" xmlns:xlink="http://www.w3.org/1999/xlink" contentScriptType="application/ecmascript" contentStyleType="text/css" height="849px" preserveAspectRatio="none" style="width:1102px;height:849px;background:#222222;" version="1.1" viewBox="0 0 1102 849" width="1102px" zoomAndPan="magnify"><defs/><g><!--class Scenario--><polygon fill="#222222" points="492.5,8,492.5,8.2102,502.9,7.5857,513.3,8.1933,523.7,8.3997,534.1,7.2866,544.5,7.9223,554.9,7.5735,565.3,7.6165,575.7,7.9318,586.1,7.3086,596.5,8,597.0536,8,595.8697,17.4623,596.3022,26.9246,596.9319,36.3868,596.4142,45.8491,596.5682,55.3114,596.4681,64.7737,596.6785,74.236,596.5,83.6982,596.5,83.9374,586.1,84.2839,575.7,84.3693,565.3,84.3775,554.9,83.9529,544.5,84.1618,534.1,84.4005,523.7,82.9771,513.3,84.3768,502.9,83.4017,492.5,83.6982,493.0338,83.6982,492.005,74.236,492.4315,64.7737,493.2416,55.3114,492.4513,45.8491,492.6053,36.3868,492.8386,26.9246,492.9162,17.4623,492.5,8" style="stroke: #228B22; stroke-width: 3.0;"/><text fill="#228B22" font-family="courier" font-size="20" font-weight="bold" lengthAdjust="spacingAndGlyphs" textLength="96" x="496.5" y="34.1074">Scenario</text><path d="M493.5,46.1133 L493.5,46.3935 L503.7,45.5609 L513.9,46.371 L524.1,46.6462 L534.3,45.1621 L544.5,46.0097 L554.7,45.5446 L564.9,45.6019 L575.1,46.0224 L585.3,45.1915 L595.5,46.1133 " fill="#222222" style="stroke: #228B22; stroke-width: 3.0;"/><path d="M493.5,54.1133 L493.5,54.3935 L503.7,53.5609 L513.9,54.371 L524.1,54.6462 L534.3,53.1621 L544.5,54.0097 L554.7,53.5446 L564.9,53.6019 L575.1,54.0224 L585.3,53.1915 L595.5,54.1133 " fill="#222222" style="stroke: #228B22; stroke-width: 3.0;"/><polygon fill="#84BE84" points="506.5166,71.1355,506.0768,71.7363,505.5567,72.6164,504.8128,73.2095,504.0311,73.5338,503.4078,73.562,502.6067,73.1564,501.8509,72.8914,501.2771,72.3534,500.9762,71.7374,500.7977,71.247,500.6229,70.6064,500.3391,70.0552,500.5572,69.5169,500.7482,68.9274,501.4653,68.4611,501.9697,67.8561,502.5941,67.6552,503.3364,67.4821,504.2883,67.5849,504.8097,67.8308,505.4158,67.9423,506.1529,68.6974,506.4098,69.4946,506.5214,70.0385,506.395,70.9348" style="stroke: #038048; stroke-width: 1.0;"/><text fill="#A9A9A9" font-family="courier" font-size="15" lengthAdjust="spacingAndGlyphs" textLength="54" x="513.5" y="74.1938">main()</text><!--class SentimentalCounselor--><polygon fill="#222222" points="487.5,144,487.5,144.2102,497.6212,143.5857,507.7424,144.1933,517.8636,144.3997,527.9848,143.2866,538.1061,143.9223,548.2273,143.5735,558.3485,143.6165,568.4697,143.9318,578.5909,143.3086,588.7121,144.5536,598.8333,143.3697,608.9545,143.8022,619.0758,144.4319,629.197,143.9142,639.3182,144.0682,649.4394,143.9681,659.5606,144.1785,669.6818,144.2391,679.803,144.5857,689.9242,144.6711,700.0455,144.6793,710.1667,144.2546,720.2879,144.4636,730.4091,144.7022,740.5303,143.2788,750.6515,144.6785,760.7727,143.7035,770.8939,144.5338,781.0152,143.505,791.1364,143.9315,801.2576,144.7416,811.3788,143.9513,821.5,144,821.6053,144,821.8386,153.7116,821.9162,163.4231,821.4961,173.1347,821.7872,182.8463,820.9276,192.5578,821.7844,202.2694,822.0482,211.981,821.9445,221.6925,822.113,231.4041,821.0169,241.1157,820.8478,250.8272,820.8786,260.5388,821.4411,270.2503,821.5,279.9619,821.5,279.7654,811.3788,280.6433,801.2576,279.7872,791.1364,279.6189,781.0152,280.1902,770.8939,279.2951,760.7727,279.4428,750.6515,280.6109,740.5303,280.3976,730.4091,280.6964,720.2879,279.6401,710.1667,280.2811,700.0455,280.5523,689.9242,279.4895,679.803,279.8661,669.6818,280.0879,659.5606,280.6137,649.4394,279.9577,639.3182,280.4245,629.197,279.4081,619.0758,279.2847,608.9545,280.4655,598.8333,279.245,588.7121,280.4709,578.5909,280.1685,568.4697,279.694,558.3485,279.6081,548.2273,280.4207,538.1061,279.6626,527.9848,280.5538,517.8636,279.4092,507.7424,280.5793,497.6212,280.4462,487.5,279.9619,487.745,279.9619,487.5472,270.2503,488.2266,260.5388,488.1136,250.8272,487.6693,241.1157,487.7682,231.4041,487.3697,221.6925,488.2165,211.981,487.6549,202.2694,487.6726,192.5578,486.8916,182.8463,487.0948,173.1347,488.0307,163.4231,487.9298,153.7116,487.5,144" style="stroke: #228B22; stroke-width: 3.0;"/><text fill="#228B22" font-family="sans-serif" font-size="12" font-style="italic" lengthAdjust="spacingAndGlyphs" textLength="57" x="626" y="162.457">«Director»</text><text fill="#228B22" font-family="courier" font-size="20" font-weight="bold" lengthAdjust="spacingAndGlyphs" textLength="240" x="534.5" y="187.2012">SentimentalCounselor</text><path d="M488.5,199.207 L488.5,199.4873 L498.5606,198.6546 L508.6212,199.4647 L518.6818,199.7399 L528.7424,198.2558 L538.803,199.1034 L548.8636,198.6384 L558.9242,198.6957 L568.9848,199.1162 L579.0455,198.2852 L589.1061,199.9452 L599.1667,198.3667 L609.2273,198.9433 L619.2879,199.783 L629.3485,199.0927 L639.4091,199.298 L649.4697,199.1644 L659.5303,199.4451 L669.5909,199.5259 L679.6515,199.988 L689.7121,200.1018 L699.7727,200.1127 L709.8333,199.5465 L719.8939,199.8251 L729.9545,200.1433 L740.0152,198.2455 L750.0758,200.1117 L760.1364,198.8117 L770.197,199.9188 L780.2576,198.547 L790.3182,199.1157 L800.3788,200.1958 L810.4394,199.1421 L820.5,199.207 " fill="#222222" style="stroke: #228B22; stroke-width: 3.0;"/><path d="M488.5,207.207 L488.5,207.4873 L498.5606,206.6546 L508.6212,207.4647 L518.6818,207.7399 L528.7424,206.2558 L538.803,207.1034 L548.8636,206.6384 L558.9242,206.6957 L568.9848,207.1162 L579.0455,206.2852 L589.1061,207.9452 L599.1667,206.3667 L609.2273,206.9433 L619.2879,207.783 L629.3485,207.0927 L639.4091,207.298 L649.4697,207.1644 L659.5303,207.4451 L669.5909,207.5259 L679.6515,207.988 L689.7121,208.1018 L699.7727,208.1127 L709.8333,207.5465 L719.8939,207.8251 L729.9545,208.1433 L740.0152,206.2455 L750.0758,208.1117 L760.1364,206.8117 L770.197,207.9188 L780.2576,206.547 L790.3182,207.1157 L800.3788,208.1958 L810.4394,207.1421 L820.5,207.207 " fill="#222222" style="stroke: #228B22; stroke-width: 3.0;"/><polygon fill="#84BE84" points="501.5166,224.2292,501.0768,224.8301,500.5567,225.7102,499.8128,226.3033,499.0311,226.6276,498.4078,226.6557,497.6067,226.2501,496.8509,225.9851,496.2771,225.4471,495.9762,224.8312,495.7977,224.3407,495.6229,223.7002,495.3391,223.1489,495.5572,222.6107,495.7482,222.0211,496.4653,221.5548,496.9697,220.9498,497.5941,220.7489,498.3364,220.5759,499.2883,220.6787,499.8097,220.9246,500.4158,221.036,501.1529,221.7911,501.4098,222.5883,501.5214,223.1322,501.395,224.0286" style="stroke: #038048; stroke-width: 1.0;"/><text fill="#A9A9A9" font-family="courier" font-size="15" lengthAdjust="spacingAndGlyphs" textLength="297" x="508.5" y="227.2876">teachSharedFriendApproach(Person)</text><polygon fill="#84BE84" points="501.5166,245.8142,501.0768,246.4151,500.5567,247.2951,499.8128,247.8882,499.0311,248.2125,498.4078,248.2407,497.6067,247.8351,496.8509,247.5701,496.2771,247.0321,495.9762,246.4161,495.7977,245.9257,495.6229,245.2851,495.3391,244.7339,495.5572,244.1957,495.7482,243.6061,496.4653,243.1398,496.9697,242.5348,497.5941,242.3339,498.3364,242.1608,499.2883,242.2636,499.8097,242.5095,500.4158,242.621,501.1529,243.3761,501.4098,244.1733,501.5214,244.7172,501.395,245.6135" style="stroke: #038048; stroke-width: 1.0;"/><text fill="#A9A9A9" font-family="courier" font-size="15" lengthAdjust="spacingAndGlyphs" textLength="288" x="508.5" y="248.8726">teachSharedHobbyApproach(Person)</text><polygon fill="#84BE84" points="501.5166,267.3992,501.0768,268,500.5567,268.8801,499.8128,269.4732,499.0311,269.7975,498.4078,269.8257,497.6067,269.42,496.8509,269.155,496.2771,268.617,495.9762,268.0011,495.7977,267.5107,495.6229,266.8701,495.3391,266.3188,495.5572,265.7806,495.7482,265.191,496.4653,264.7247,496.9697,264.1197,497.5941,263.9188,498.3364,263.7458,499.2883,263.8486,499.8097,264.0945,500.4158,264.2059,501.1529,264.9611,501.4098,265.7582,501.5214,266.3022,501.395,267.1985" style="stroke: #038048; stroke-width: 1.0;"/><text fill="#A9A9A9" font-family="courier" font-size="15" lengthAdjust="spacingAndGlyphs" textLength="306" x="508.5" y="270.4575">teachSharedForwardApproach(Person)</text><!--class Person--><polygon fill="#222222" points="388.5,343.5,388.5,343.7102,398.6176,343.0857,408.7353,343.6933,418.8529,343.8997,428.9706,342.7866,439.0882,343.4223,449.2059,343.0735,459.3235,343.1165,469.4412,343.4318,479.5588,342.8086,489.6765,344.0536,499.7941,342.8697,509.9118,343.3022,520.0294,343.9319,530.1471,343.4142,540.2647,343.5682,550.3824,343.4681,560.5,343.5,560.6785,343.5,560.7391,353.2116,561.0857,362.9231,561.1711,372.6347,561.1793,382.3463,560.7546,392.0578,560.9636,401.7694,561.2022,411.481,559.7788,421.1925,561.1785,430.9041,560.2035,440.6157,561.0338,450.3272,560.005,460.0388,560.4315,469.7503,560.5,479.4619,560.5,480.2035,550.3824,479.4132,540.2647,479.5672,530.1471,479.8005,520.0294,479.8781,509.9118,479.458,499.7941,479.7491,489.6765,478.8895,479.5588,479.7463,469.4412,480.0101,459.3235,479.9064,449.2059,480.0749,439.0882,478.9788,428.9706,478.8097,418.8529,478.8405,408.7353,479.403,398.6176,479.2654,388.5,479.4619,389.1814,479.4619,388.3253,469.7503,388.1569,460.0388,388.7283,450.3272,387.8332,440.6157,387.9809,430.9041,389.149,421.1925,388.9357,411.481,389.2345,401.7694,388.1782,392.0578,388.8192,382.3463,389.0904,372.6347,388.0276,362.9231,388.4041,353.2116,388.5,343.5" style="stroke: #228B22; stroke-width: 3.0;"/><text fill="#228B22" font-family="sans-serif" font-size="12" font-style="italic" lengthAdjust="spacingAndGlyphs" textLength="56" x="446.5" y="361.957">«Context»</text><text fill="#228B22" font-family="courier" font-size="20" font-weight="bold" lengthAdjust="spacingAndGlyphs" textLength="72" x="438.5" y="386.7012">Person</text><path d="M389.5,398.707 L389.5,398.9873 L399.5,398.1546 L409.5,398.9647 L419.5,399.2399 L429.5,397.7558 L439.5,398.6034 L449.5,398.1384 L459.5,398.1957 L469.5,398.6162 L479.5,397.7852 L489.5,399.4452 L499.5,397.8667 L509.5,398.4433 L519.5,399.283 L529.5,398.5927 L539.5,398.798 L549.5,398.6644 L559.5,398.707 " fill="#222222" style="stroke: #228B22; stroke-width: 3.0;"/><path d="M389.5,406.707 L389.5,406.9873 L399.5,406.1546 L409.5,406.9647 L419.5,407.2399 L429.5,405.7558 L439.5,406.6034 L449.5,406.1384 L459.5,406.1957 L469.5,406.6162 L479.5,405.7852 L489.5,407.4452 L499.5,405.8667 L509.5,406.4433 L519.5,407.283 L529.5,406.5927 L539.5,406.798 L549.5,406.6644 L559.5,406.707 " fill="#222222" style="stroke: #228B22; stroke-width: 3.0;"/><polygon fill="#84BE84" points="402.5166,423.7292,402.0768,424.3301,401.5567,425.2102,400.8128,425.8033,400.0311,426.1276,399.4078,426.1557,398.6067,425.7501,397.8509,425.4851,397.2771,424.9471,396.9762,424.3312,396.7977,423.8407,396.6229,423.2002,396.3391,422.6489,396.5572,422.1107,396.7482,421.5211,397.4653,421.0548,397.9697,420.4498,398.5941,420.2489,399.3364,420.0759,400.2883,420.1787,400.8097,420.4246,401.4158,420.536,402.1529,421.2911,402.4098,422.0883,402.5214,422.6322,402.395,423.5286" style="stroke: #038048; stroke-width: 1.0;"/><text fill="#A9A9A9" font-family="courier" font-size="15" lengthAdjust="spacingAndGlyphs" textLength="117" x="409.5" y="426.7876">set(Approach)</text><polygon fill="#84BE84" points="402.5166,445.3142,402.0768,445.9151,401.5567,446.7951,400.8128,447.3882,400.0311,447.7125,399.4078,447.7407,398.6067,447.3351,397.8509,447.0701,397.2771,446.5321,396.9762,445.9161,396.7977,445.4257,396.6229,444.7851,396.3391,444.2339,396.5572,443.6957,396.7482,443.1061,397.4653,442.6398,397.9697,442.0348,398.5941,441.8339,399.3364,441.6608,400.2883,441.7636,400.8097,442.0095,401.4158,442.121,402.1529,442.8761,402.4098,443.6733,402.5214,444.2172,402.395,445.1135" style="stroke: #038048; stroke-width: 1.0;"/><text fill="#A9A9A9" font-family="courier" font-size="15" lengthAdjust="spacingAndGlyphs" textLength="63" x="409.5" y="448.3726">flirt()</text><polygon fill="#84BE84" points="402.5166,466.8992,402.0768,467.5,401.5567,468.3801,400.8128,468.9732,400.0311,469.2975,399.4078,469.3257,398.6067,468.92,397.8509,468.655,397.2771,468.117,396.9762,467.5011,396.7977,467.0107,396.6229,466.3701,396.3391,465.8188,396.5572,465.2806,396.7482,464.691,397.4653,464.2247,397.9697,463.6197,398.5941,463.4188,399.3364,463.2458,400.2883,463.3486,400.8097,463.5945,401.4158,463.7059,402.1529,464.4611,402.4098,465.2582,402.5214,465.8022,402.395,466.6985" style="stroke: #038048; stroke-width: 1.0;"/><text fill="#A9A9A9" font-family="courier" font-size="15" lengthAdjust="spacingAndGlyphs" textLength="144" x="409.5" y="469.9575">makeFriendship()</text><path d="M6,340 L6,482.5664 A0,0 0 0 0 6,482.5664 L353,482.5664 A0,0 0 0 0 353,482.5664 L353,415.5 L388.275,411.5 L353,407.5 L353,350 L343,340 L6,340 A0,0 0 0 0 6,340 " fill="#222222" style="stroke: #A9A9A9; stroke-width: 3.0;"/><path d="M343,340 L343.1868,340 L342.6317,342 L343.1718,344 L343.3553,346 L342.3659,348 L343,350 L343,349.9309 L345,349.6209 L347,349.6591 L349,349.9394 L351,349.3854 L353,350 L353.348,350.348 L350.6038,347.6038 L348.8757,345.8757 L347.2715,344.2715 L344.9461,341.9461 L343,340 " fill="#222222" style="stroke: #A9A9A9; stroke-width: 3.0;"/><text fill="#A9A9A9" font-family="courier" font-size="20" lengthAdjust="spacingAndGlyphs" textLength="192" x="13" y="366.1074">public flirt() {</text><text fill="#A9A9A9" font-family="courier" font-size="20" lengthAdjust="spacingAndGlyphs" textLength="216" x="37" y="392.2207">// Trying to flirt</text><text fill="#A9A9A9" font-family="courier" font-size="20" lengthAdjust="spacingAndGlyphs" textLength="300" x="37" y="418.334">this.approach.approach();</text><text fill="#A9A9A9" font-family="courier" font-size="20" lengthAdjust="spacingAndGlyphs" textLength="252" x="37" y="444.4473">// Inviting to dinner</text><text fill="#A9A9A9" font-family="courier" font-size="20" lengthAdjust="spacingAndGlyphs" textLength="12" x="13" y="470.5605">}</text><path d="M189,543 L189,685.5664 A0,0 0 0 0 189,685.5664 L560,685.5664 A0,0 0 0 0 560,685.5664 L560,553 L550,543 L413.618,543 L441.062,479.71 L405.618,543 L189,543 A0,0 0 0 0 189,543 " fill="#222222" style="stroke: #A9A9A9; stroke-width: 3.0;"/><path d="M550,543 L550.1868,543 L549.6317,545 L550.1718,547 L550.3553,549 L549.3659,551 L550,553 L550,552.9309 L552,552.6209 L554,552.6591 L556,552.9394 L558,552.3854 L560,553 L560.348,553.348 L557.6038,550.6038 L555.8757,548.8757 L554.2715,547.2715 L551.9461,544.9461 L550,543 " fill="#222222" style="stroke: #A9A9A9; stroke-width: 3.0;"/><text fill="#A9A9A9" font-family="courier" font-size="20" lengthAdjust="spacingAndGlyphs" textLength="288" x="196" y="569.1074">public makeFrienship() {</text><text fill="#A9A9A9" font-family="courier" font-size="20" lengthAdjust="spacingAndGlyphs" textLength="324" x="220" y="595.2207">// Trying to make frienship</text><text fill="#A9A9A9" font-family="courier" font-size="20" lengthAdjust="spacingAndGlyphs" textLength="300" x="220" y="621.334">this.approach.approach();</text><text fill="#A9A9A9" font-family="courier" font-size="20" lengthAdjust="spacingAndGlyphs" textLength="240" x="220" y="647.4473">// inviting to match</text><text fill="#A9A9A9" font-family="courier" font-size="20" lengthAdjust="spacingAndGlyphs" textLength="12" x="196" y="673.5605">}</text><!--class Approach--><polygon fill="#222222" points="595.5,568,595.5,568.2102,605.3333,567.5857,615.1667,568.1933,625,568.3997,634.8333,567.2866,644.6667,567.9223,654.5,567.5735,664.3333,567.6165,674.1667,567.9318,684,567.3086,693.8333,568.5536,703.6667,567.3697,713.5,568,713.3022,568,713.9319,578.3102,713.4142,588.6204,713.5682,598.9307,713.4681,609.2409,713.6785,619.5511,713.7391,629.8613,714.0857,640.1715,714.1711,650.4818,713.5,660.792,713.5,661.4712,703.6667,661.0466,693.8333,661.2556,684,661.4942,674.1667,660.0708,664.3333,661.4705,654.5,660.4955,644.6667,661.3258,634.8333,660.297,625,660.7235,615.1667,661.5336,605.3333,660.7433,595.5,660.792,595.6053,660.792,595.8386,650.4818,595.9162,640.1715,595.4961,629.8613,595.7872,619.5511,594.9276,609.2409,595.7844,598.9307,596.0482,588.6204,595.9445,578.3102,595.5,568" style="stroke: #228B22; stroke-width: 3.0;"/><text fill="#228B22" font-family="sans-serif" font-size="12" font-style="italic" lengthAdjust="spacingAndGlyphs" textLength="59" x="625" y="586.457">«Strategy»</text><text fill="#228B22" font-family="courier" font-size="20" font-weight="bold" lengthAdjust="spacingAndGlyphs" textLength="96" x="606.5" y="611.2012">Approach</text><path d="M596.5,623.207 L596.5,623.4873 L606.1667,622.6546 L615.8333,623.4647 L625.5,623.7399 L635.1667,622.2558 L644.8333,623.1034 L654.5,622.6384 L664.1667,622.6957 L673.8333,623.1162 L683.5,622.2852 L693.1667,623.9452 L702.8333,622.3667 L712.5,623.207 " fill="#222222" style="stroke: #228B22; stroke-width: 3.0;"/><path d="M596.5,631.207 L596.5,631.4873 L606.1667,630.6546 L615.8333,631.4647 L625.5,631.7399 L635.1667,630.2558 L644.8333,631.1034 L654.5,630.6384 L664.1667,630.6957 L673.8333,631.1162 L683.5,630.2852 L693.1667,631.9452 L702.8333,630.3667 L712.5,631.207 " fill="#222222" style="stroke: #228B22; stroke-width: 3.0;"/><polygon fill="#FFFF44" points="606.5,642.4995,606.5495,642.5491,607.2023,643.2019,608.1456,644.1451,608.9942,644.9937,609.5319,645.5314,610.5,646.4995,610.4817,646.4812,609.5995,647.199,608.8096,648.0091,608.0839,648.8834,607.137,649.5366,606.5,650.4995,606.6305,650.63,605.5514,649.551,604.8534,648.8529,604.2018,648.2013,603.2798,647.2793,602.5,646.4995,602.5161,646.5156,603.2925,645.692,604.1421,644.9416,604.9564,644.1559,605.838,643.4376,606.5,642.4995" style="stroke: #B38D22; stroke-width: 1.0;"/><text fill="#A9A9A9" font-family="courier" font-size="15" lengthAdjust="spacingAndGlyphs" textLength="90" x="616.5" y="651.2876">approach()</text><!--class SharedFriendApproach--><polygon fill="#222222" points="253.5,746,253.5,746.2102,263.42,745.5857,273.34,746.1933,283.26,746.3997,293.18,745.2866,303.1,745.9223,313.02,745.5735,322.94,745.6165,332.86,745.9318,342.78,745.3086,352.7,746.5536,362.62,745.3697,372.54,745.8022,382.46,746.4319,392.38,745.9142,402.3,746.0682,412.22,745.9681,422.14,746.1785,432.06,746.2391,441.98,746.5857,451.9,746.6711,461.82,746.6793,471.74,746.2546,481.66,746.4636,491.58,746.7022,501.5,746,500.7788,746,502.1785,756.3102,501.2035,766.6204,502.0338,776.9307,501.005,787.2409,501.4315,797.5511,502.2416,807.8613,501.4513,818.1715,501.6053,828.4818,501.5,838.792,501.5,839.1306,491.58,839.2082,481.66,838.7881,471.74,839.0792,461.82,838.2196,451.9,839.0764,441.98,839.3402,432.06,839.2365,422.14,839.405,412.22,838.3089,402.3,838.1398,392.38,838.1706,382.46,838.7331,372.54,838.5955,362.62,839.4734,352.7,838.6173,342.78,838.4489,332.86,839.0203,322.94,838.1252,313.02,838.2729,303.1,839.4409,293.18,839.2277,283.26,839.5265,273.34,838.4702,263.42,839.1112,253.5,838.792,254.0904,838.792,253.0276,828.4818,253.4041,818.1715,253.626,807.8613,254.1518,797.5511,253.4958,787.2409,253.9626,776.9307,252.9462,766.6204,252.8227,756.3102,253.5,746" style="stroke: #228B22; stroke-width: 3.0;"/><text fill="#228B22" font-family="sans-serif" font-size="12" font-style="italic" lengthAdjust="spacingAndGlyphs" textLength="117" x="319" y="764.457">«ConcreteStrategyB»</text><text fill="#228B22" font-family="courier" font-size="20" font-weight="bold" lengthAdjust="spacingAndGlyphs" textLength="240" x="257.5" y="789.2012">SharedFriendApproach</text><path d="M254.5,801.207 L254.5,801.4873 L264.34,800.6546 L274.18,801.4647 L284.02,801.7399 L293.86,800.2558 L303.7,801.1034 L313.54,800.6384 L323.38,800.6957 L333.22,801.1162 L343.06,800.2852 L352.9,801.9452 L362.74,800.3667 L372.58,800.9433 L382.42,801.783 L392.26,801.0927 L402.1,801.298 L411.94,801.1644 L421.78,801.4451 L431.62,801.5259 L441.46,801.988 L451.3,802.1018 L461.14,802.1127 L470.98,801.5465 L480.82,801.8251 L490.66,802.1433 L500.5,801.207 " fill="#222222" style="stroke: #228B22; stroke-width: 3.0;"/><path d="M254.5,809.207 L254.5,809.4873 L264.34,808.6546 L274.18,809.4647 L284.02,809.7399 L293.86,808.2558 L303.7,809.1034 L313.54,808.6384 L323.38,808.6957 L333.22,809.1162 L343.06,808.2852 L352.9,809.9452 L362.74,808.3667 L372.58,808.9433 L382.42,809.783 L392.26,809.0927 L402.1,809.298 L411.94,809.1644 L421.78,809.4451 L431.62,809.5259 L441.46,809.988 L451.3,810.1018 L461.14,810.1127 L470.98,809.5465 L480.82,809.8251 L490.66,810.1433 L500.5,809.207 " fill="#222222" style="stroke: #228B22; stroke-width: 3.0;"/><polygon fill="#FFFF44" points="264.5,820.4995,264.5495,820.5491,265.2023,821.2019,266.1456,822.1451,266.9942,822.9937,267.5319,823.5314,268.5,824.4995,268.4817,824.4812,267.5995,825.199,266.8096,826.0091,266.0839,826.8834,265.137,827.5366,264.5,828.4995,264.6305,828.63,263.5514,827.551,262.8534,826.8529,262.2018,826.2013,261.2798,825.2793,260.5,824.4995,260.5161,824.5156,261.2925,823.692,262.1421,822.9416,262.9564,822.1559,263.838,821.4376,264.5,820.4995" style="stroke: #B38D22; stroke-width: 1.0;"/><text fill="#A9A9A9" font-family="courier" font-size="15" lengthAdjust="spacingAndGlyphs" textLength="90" x="274.5" y="829.2876">approach()</text><!--class SharedHobbyApproach--><polygon fill="#222222" points="536.5,746,536.5,746.2102,546.3333,745.5857,556.1667,746.1933,566,746.3997,575.8333,745.2866,585.6667,745.9223,595.5,745.5735,605.3333,745.6165,615.1667,745.9318,625,745.3086,634.8333,746.5536,644.6667,745.3697,654.5,745.8022,664.3333,746.4319,674.1667,745.9142,684,746.0682,693.8333,745.9681,703.6667,746.1785,713.5,746.2391,723.3333,746.5857,733.1667,746.6711,743,746.6793,752.8333,746.2546,762.6667,746.4636,772.5,746,773.2022,746,771.7788,756.3102,773.1785,766.6204,772.2035,776.9307,773.0338,787.2409,772.005,797.5511,772.4315,807.8613,773.2416,818.1715,772.4513,828.4818,772.5,838.792,772.5,838.8973,762.6667,839.1306,752.8333,839.2082,743,838.7881,733.1667,839.0792,723.3333,838.2196,713.5,839.0764,703.6667,839.3402,693.8333,839.2365,684,839.405,674.1667,838.3089,664.3333,838.1398,654.5,838.1706,644.6667,838.7331,634.8333,838.5955,625,839.4734,615.1667,838.6173,605.3333,838.4489,595.5,839.0203,585.6667,838.1252,575.8333,838.2729,566,839.4409,556.1667,839.2277,546.3333,839.5265,536.5,838.792,536.1782,838.792,536.8192,828.4818,537.0904,818.1715,536.0276,807.8613,536.4041,797.5511,536.626,787.2409,537.1518,776.9307,536.4958,766.6204,536.9626,756.3102,536.5,746" style="stroke: #228B22; stroke-width: 3.0;"/><text fill="#228B22" font-family="sans-serif" font-size="12" font-style="italic" lengthAdjust="spacingAndGlyphs" textLength="117" x="596" y="764.457">«ConcreteStrategyA»</text><text fill="#228B22" font-family="courier" font-size="20" font-weight="bold" lengthAdjust="spacingAndGlyphs" textLength="228" x="540.5" y="789.2012">SharedHobbyApproach</text><path d="M537.5,801.207 L537.5,801.4873 L547.6739,800.6546 L557.8478,801.4647 L568.0217,801.7399 L578.1957,800.2558 L588.3696,801.1034 L598.5435,800.6384 L608.7174,800.6957 L618.8913,801.1162 L629.0652,800.2852 L639.2391,801.9452 L649.413,800.3667 L659.587,800.9433 L669.7609,801.783 L679.9348,801.0927 L690.1087,801.298 L700.2826,801.1644 L710.4565,801.4451 L720.6304,801.5259 L730.8043,801.988 L740.9783,802.1018 L751.1522,802.1127 L761.3261,801.5465 L771.5,801.207 " fill="#222222" style="stroke: #228B22; stroke-width: 3.0;"/><path d="M537.5,809.207 L537.5,809.4873 L547.6739,808.6546 L557.8478,809.4647 L568.0217,809.7399 L578.1957,808.2558 L588.3696,809.1034 L598.5435,808.6384 L608.7174,808.6957 L618.8913,809.1162 L629.0652,808.2852 L639.2391,809.9452 L649.413,808.3667 L659.587,808.9433 L669.7609,809.783 L679.9348,809.0927 L690.1087,809.298 L700.2826,809.1644 L710.4565,809.4451 L720.6304,809.5259 L730.8043,809.988 L740.9783,810.1018 L751.1522,810.1127 L761.3261,809.5465 L771.5,809.207 " fill="#222222" style="stroke: #228B22; stroke-width: 3.0;"/><polygon fill="#FFFF44" points="547.5,820.4995,547.5495,820.5491,548.2023,821.2019,549.1456,822.1451,549.9942,822.9937,550.5319,823.5314,551.5,824.4995,551.4817,824.4812,550.5995,825.199,549.8096,826.0091,549.0839,826.8834,548.137,827.5366,547.5,828.4995,547.6305,828.63,546.5514,827.551,545.8534,826.8529,545.2018,826.2013,544.2798,825.2793,543.5,824.4995,543.5161,824.5156,544.2925,823.692,545.1421,822.9416,545.9564,822.1559,546.838,821.4376,547.5,820.4995" style="stroke: #B38D22; stroke-width: 1.0;"/><text fill="#A9A9A9" font-family="courier" font-size="15" lengthAdjust="spacingAndGlyphs" textLength="90" x="557.5" y="829.2876">approach()</text><!--class StraightForwardApproach--><polygon fill="#222222" points="807.5,746,807.5,746.2102,817.6429,745.5857,827.7857,746.1933,837.9286,746.3997,848.0714,745.2866,858.2143,745.9223,868.3571,745.5735,878.5,745.6165,888.6429,745.9318,898.7857,745.3086,908.9286,746.5536,919.0714,745.3697,929.2143,745.8022,939.3571,746.4319,949.5,745.9142,959.6429,746.0682,969.7857,745.9681,979.9286,746.1785,990.0714,746.2391,1000.2143,746.5857,1010.3571,746.6711,1020.5,746.6793,1030.6429,746.2546,1040.7857,746.4636,1050.9286,746.7022,1061.0714,745.2788,1071.2143,746.6785,1081.3571,745.7035,1091.5,746,1092.0338,746,1091.005,756.3102,1091.4315,766.6204,1092.2416,776.9307,1091.4513,787.2409,1091.6053,797.5511,1091.8386,807.8613,1091.9162,818.1715,1091.4961,828.4818,1091.5,838.792,1091.5,839.0792,1081.3571,838.2196,1071.2143,839.0764,1061.0714,839.3402,1050.9286,839.2365,1040.7857,839.405,1030.6429,838.3089,1020.5,838.1398,1010.3571,838.1706,1000.2143,838.7331,990.0714,838.5955,979.9286,839.4734,969.7857,838.6173,959.6429,838.4489,949.5,839.0203,939.3571,838.1252,929.2143,838.2729,919.0714,839.4409,908.9286,839.2277,898.7857,839.5265,888.6429,838.4702,878.5,839.1112,868.3571,839.3824,858.2143,838.3196,848.0714,838.6961,837.9286,838.918,827.7857,839.4438,817.6429,838.7878,807.5,838.792,807.9626,838.792,806.9462,828.4818,806.8227,818.1715,808.0036,807.8613,806.7831,797.5511,808.009,787.2409,807.7066,776.9307,807.2321,766.6204,807.1462,756.3102,807.5,746" style="stroke: #228B22; stroke-width: 3.0;"/><text fill="#228B22" font-family="sans-serif" font-size="12" font-style="italic" lengthAdjust="spacingAndGlyphs" textLength="118" x="890.5" y="764.457">«ConcreteStrategyC»</text><text fill="#228B22" font-family="courier" font-size="20" font-weight="bold" lengthAdjust="spacingAndGlyphs" textLength="276" x="811.5" y="789.2012">StraightForwardApproach</text><path d="M808.5,801.207 L808.5,801.4873 L818.5714,800.6546 L828.6429,801.4647 L838.7143,801.7399 L848.7857,800.2558 L858.8571,801.1034 L868.9286,800.6384 L879,800.6957 L889.0714,801.1162 L899.1429,800.2852 L909.2143,801.9452 L919.2857,800.3667 L929.3571,800.9433 L939.4286,801.783 L949.5,801.0927 L959.5714,801.298 L969.6429,801.1644 L979.7143,801.4451 L989.7857,801.5259 L999.8571,801.988 L1009.9286,802.1018 L1020,802.1127 L1030.0714,801.5465 L1040.1429,801.8251 L1050.2143,802.1433 L1060.2857,800.2455 L1070.3571,802.1117 L1080.4286,800.8117 L1090.5,801.207 " fill="#222222" style="stroke: #228B22; stroke-width: 3.0;"/><path d="M808.5,809.207 L808.5,809.4873 L818.5714,808.6546 L828.6429,809.4647 L838.7143,809.7399 L848.7857,808.2558 L858.8571,809.1034 L868.9286,808.6384 L879,808.6957 L889.0714,809.1162 L899.1429,808.2852 L909.2143,809.9452 L919.2857,808.3667 L929.3571,808.9433 L939.4286,809.783 L949.5,809.0927 L959.5714,809.298 L969.6429,809.1644 L979.7143,809.4451 L989.7857,809.5259 L999.8571,809.988 L1009.9286,810.1018 L1020,810.1127 L1030.0714,809.5465 L1040.1429,809.8251 L1050.2143,810.1433 L1060.2857,808.2455 L1070.3571,810.1117 L1080.4286,808.8117 L1090.5,809.207 " fill="#222222" style="stroke: #228B22; stroke-width: 3.0;"/><polygon fill="#FFFF44" points="818.5,820.4995,818.5495,820.5491,819.2023,821.2019,820.1456,822.1451,820.9942,822.9937,821.5319,823.5314,822.5,824.4995,822.4817,824.4812,821.5995,825.199,820.8096,826.0091,820.0839,826.8834,819.137,827.5366,818.5,828.4995,818.6305,828.63,817.5514,827.551,816.8534,826.8529,816.2018,826.2013,815.2798,825.2793,814.5,824.4995,814.5161,824.5156,815.2925,823.692,816.1421,822.9416,816.9564,822.1559,817.838,821.4376,818.5,820.4995" style="stroke: #B38D22; stroke-width: 1.0;"/><text fill="#A9A9A9" font-family="courier" font-size="15" lengthAdjust="spacingAndGlyphs" textLength="90" x="828.5" y="829.2876">approach()</text><!--link Scenario to SentimentalCounselor--><path d="M569.461,84.214 L569.6937,84.3701 L574.3131,91.8244 L580.2967,100.1938 L585.8361,108.2653 L589.9145,115.3567 L595.9292,123.747 L600.8539,131.4061 L606.637,139.641 " fill="none" style="stroke: #A9A9A9; stroke-width: 2.0; stroke-dasharray: 7.0,7.0;"/><polygon fill="#A9A9A9" points="609.534,143.96,609.603,143.972,609.0596,141.9958,608.9208,140.0901,608.6502,138.1614,607.9463,136.1572,607.8422,134.2575,607.8168,134.2525,607.484,135.3401,607.2794,136.4529,607.1638,137.5832,606.7412,138.6531,606.7486,139.8077,606.7843,139.9887,605.598,139.3828,604.5158,139.3056,603.4464,139.2928,602.303,138.9048,601.1985,138.7141,601.2106,138.7334,602.8599,139.7543,604.5644,140.8628,606.2423,141.9291,607.9709,143.0761,609.534,143.96" style="stroke: #A9A9A9; stroke-width: 2.0;"/><!--link Scenario to Person--><path d="M506.526,84.041 L506.5984,84.1 L504.2116,86.5905 L502.2494,89.4269 L500.1489,92.1506 L497.5937,94.504 L495.6679,97.37 L495.6397,97.3502 L493.4584,100.1873 L491.4196,103.1245 L489.4799,106.1313 L487.1988,108.8983 L485.3959,112.0011 L485.6094,112.1235 L483.3601,114.99 L481.7342,118.2137 L480.1843,121.4811 L478.192,124.4948 L476.4324,127.6419 L476.4603,127.6538 L475.0328,130.908 L473.7325,134.2161 L472.3708,137.4982 L471.1262,140.83 L469.5,144 L469.7847,144.089 L469.0406,146.4821 L468.113,148.8179 L467.4541,151.2376 L466.8078,153.6613 L465.7624,155.9603 L465.4521,155.8799 L465.4211,158.4803 L464.3683,160.8161 L464.0923,163.353 L463.0164,165.6828 L462.5961,168.1824 L462.5663,168.1761 L462.3931,170.7371 L461.5239,173.151 L461.0654,175.6517 L460.6414,178.1598 L459.9686,180.6152 L460.151,180.6459 L459.5427,183.1334 L459.2461,185.6734 L458.4451,188.1284 L458.3964,190.7101 L457.8475,193.2076 L458.0892,193.2389 L457.714,195.7732 L457.4589,198.323 L456.6463,200.8005 L456.2423,203.331 L456.2004,205.9084 L455.9254,205.8825 L455.9332,208.4576 L455.6311,211.0035 L455.7784,213.5919 L455.1585,216.1077 L454.9946,218.6666 L454.8425,218.6571 L454.9365,221.2258 L454.3802,223.7539 L454.2863,226.3109 L454.6451,228.8961 L454.1979,231.431 L454.3914,231.4374 L454.4401,233.9857 L453.8869,236.5141 L454.0876,239.0674 L454.124,241.6153 L453.7777,244.1505 L453.5678,244.1492 L453.7199,246.6749 L453.8033,249.2002 L454.0218,251.7263 L453.715,254.2492 L453.7017,256.7739 L453.9072,256.7778 L453.5027,259.2645 L453.4949,261.7587 L454.0668,264.2639 L453.5715,266.7489 L453.9372,269.2502 L454.1632,269.2597 L454.1319,271.7096 L454.0241,274.1564 L454.0889,276.6104 L454.5527,279.0811 L454.4519,281.5281 L454.3191,281.5197 L454.8667,283.9505 L454.5113,286.324 L455.1826,288.7626 L455.2759,291.1645 L455.2133,293.5567 L455.3218,293.5657 L455.4294,295.904 L455.9254,298.2746 L456.0705,300.6161 L456.0689,302.9453 L456.189,305.2846 L456.3076,305.2967 L456.3629,307.554 L456.9688,309.8674 L456.952,312.1174 L457.1913,314.3934 L457.3465,316.6609 L457.078,316.629 L457.429,318.8343 L458.1035,321.0782 L458.3202,323.2676 L458.373,325.4375 L458.6533,327.6344 L458.5114,327.6152 L458.8416,329.7253 L458.9206,331.8014 L459.6902,333.9709 L460.118,336.0942 L460.077,338.154 " fill="none" style="stroke: #A9A9A9; stroke-width: 2.0; stroke-dasharray: 7.0,7.0;"/><polygon fill="#A9A9A9" points="460.847,343.389,460.9145,343.4078,461.2437,341.4547,461.9685,339.6119,462.5645,337.7332,462.7369,335.7362,463.4957,333.903,463.4749,333.8875,462.7065,334.726,462.0428,335.6424,461.452,336.6129,460.6101,337.3968,460.1199,338.4421,460.23,338.5902,459.0867,337.5984,458.2649,337.0389,457.4823,336.5322,456.4715,335.7186,455.5807,335.0663,455.6,335.0785,456.625,336.7252,457.7375,338.4272,458.8079,340.1026,459.9587,341.8289,460.847,343.389" style="stroke: #A9A9A9; stroke-width: 2.0;"/><!--link SentimentalCounselor to Person--><path d="M593.309,280.14 L593.5161,280.3288 L586.153,287.1716 L580.004,295.1211 L573.4596,302.7102 L565.615,309.1143 L559.4937,317.089 L552.4022,324.1794 L545.6968,331.6218 L539.327,339.37 " fill="none" style="stroke: #A9A9A9; stroke-width: 2.0; stroke-dasharray: 7.0,7.0;"/><polygon fill="#A9A9A9" points="535.827,343.21,535.8551,343.2742,537.5753,342.2921,539.4605,341.6862,541.2919,340.9578,542.9467,339.8266,544.846,339.253,544.8448,339.2271,543.7093,339.1633,542.5798,339.23,541.4545,339.3873,540.3147,339.2322,539.1952,339.5147,539.3795,339.5232,538.933,338.3748,539.0247,337.2513,539.182,336.1309,538.9573,334.9927,538.9335,333.8639,538.9551,333.8711,538.3021,335.7298,537.7474,337.6211,537.1452,339.4967,536.6336,341.4024,535.827,343.21" style="stroke: #A9A9A9; stroke-width: 2.0;"/><!--link SentimentalCounselor to Approach--><path d="M654.5,280.035 L654.7802,280.035 L653.9476,290.1311 L654.7577,300.2272 L655.0329,310.3233 L653.5488,320.4194 L654.3964,330.5155 L653.9313,340.6116 L653.9887,350.7078 L654.4091,360.8039 L653.5782,370.9 L655.2382,380.9961 L653.6596,391.0922 L654.2363,401.1883 L655.0759,411.2844 L654.3856,421.3805 L654.591,431.4766 L654.4574,441.5727 L654.738,451.6688 L654.8188,461.7649 L655.2809,471.861 L655.3947,481.9571 L655.4057,492.0533 L654.8395,502.1494 L655.1181,512.2455 L655.4363,522.3416 L653.5384,532.4377 L655.4047,542.5338 L654.1047,552.6299 L654.5,562.726 " fill="none" style="stroke: #A9A9A9; stroke-width: 2.0; stroke-dasharray: 7.0,7.0;"/><polygon fill="#A9A9A9" points="654.5,567.788,654.564,567.8165,655.1738,565.9319,656.1589,564.2142,657.0217,562.4421,657.4827,560.4914,658.5,558.788,658.4817,558.7697,657.5995,559.4875,656.8096,560.2976,656.0839,561.1719,655.137,561.825,654.5,562.788,654.6305,562.9185,653.5514,561.8394,652.8534,561.1414,652.2018,560.4898,651.2798,559.5678,650.5,558.788,650.5208,558.7972,651.2903,560.5837,652.1544,562.4122,652.9728,564.2204,653.8784,566.0673,654.5,567.788" style="stroke: #A9A9A9; stroke-width: 2.0;"/><!--link Person to Approach--><path d="M534.688,479.71 L534.8968,479.897 L541.1289,486.9933 L548.5849,495.1856 L555.6424,503.021 L561.3892,509.6827 L568.8731,517.9 L575.3791,525.2415 L582.2743,532.9316 L589.4399,540.8639 L595.6734,547.9614 L603.7625,556.7206 L610.065,563.88 " fill="none" style="stroke: #A9A9A9; stroke-width: 2.0;"/><polygon fill="#A9A9A9" points="613.667,567.903,613.7337,567.9245,612.9313,565.9858,612.5198,564.1732,611.9811,562.3195,611.0237,560.3308,610.6458,558.529,610.6199,558.5276,610.4412,559.6508,610.3929,560.7812,610.4352,561.9166,610.1651,563.0348,610.3326,564.1772,610.3428,564.3614,609.1913,563.9048,608.0697,563.9861,606.9517,564.133,605.8125,563.8981,604.6844,563.864,604.6938,563.8848,606.4766,564.6621,608.3019,565.5339,610.1067,566.3601,611.9505,567.2733,613.667,567.903" style="stroke: #A9A9A9; stroke-width: 2.0;"/><!--link Approach to SharedFriendApproach--><path d="M592.754,674.459 L592.8104,674.5335 L589.5921,676.6204 L586.7042,679.1439 L583.7088,681.5253 L580.3595,683.439 L577.5,686 L577.4805,685.9715 L574.9817,687.4938 L572.5812,689.1598 L570.2491,690.9257 L567.6814,692.3474 L565.4437,694.2512 L565.5778,694.4576 L562.8018,695.6334 L560.4171,697.4117 L558.0802,699.2635 L555.4655,700.6877 L552.9969,702.3368 L553.0129,702.3626 L550.4423,703.9037 L547.9445,705.5623 L545.4115,707.1642 L542.9455,708.8741 L540.2613,710.2319 L540.4136,710.4883 L537.8309,712.0274 L535.1499,713.4012 L532.6128,715.017 L530.0824,716.6441 L527.3384,717.9118 L527.1792,717.6336 L524.8864,719.6615 L522.0696,720.7733 L519.6511,722.5816 L516.8224,723.6727 L514.33,725.3516 L514.3152,725.325 L511.8908,727.0751 L509.1226,728.2026 L506.5572,729.6975 L504.0089,731.2233 L501.3376,732.5265 L501.4249,732.6896 L498.7619,733.902 L496.248,735.3932 L493.4929,736.4333 L491.0976,738.1461 L488.4631,739.4117 L488.5754,739.628 L486.0231,740.9012 L483.5266,742.2818 L480.7711,743.1636 L478.2055,744.411 L475.808,745.9824 " fill="none" style="stroke: #A9A9A9; stroke-width: 2.0;"/><polygon fill="none" points="588.687,668.729,588.7121,668.7944,592.5939,667.0811,596.6229,665.7511,600.604,664.2964,604.4274,662.431,608.469,661.134,608.4467,661.1209,606.2008,664.7166,604.0676,668.3785,602.0126,672.0863,599.6879,675.6357,597.741,679.407,597.8818,679.5264,595.77,677.1355,594.0691,675.0932,592.4184,673.0933,590.476,670.8461,588.687,668.729" style="stroke: #A9A9A9; stroke-width: 2.0;"/><!--link Approach to SharedHobbyApproach--><path d="M654.5,681.516 L654.7802,681.516 L653.9476,692.2544 L654.7577,702.9929 L655.0329,713.7314 L653.5488,724.4698 L654.3964,735.2082 L654.5,745.9467 " fill="none" style="stroke: #A9A9A9; stroke-width: 2.0;"/><polygon fill="none" points="647.5,681.283,647.5661,681.3061,648.7696,677.2372,650.3608,673.3039,651.8257,669.3264,652.8756,665.2036,654.5,661.282,654.4755,661.2734,655.7658,665.235,657.1793,669.2398,658.6786,673.2745,659.8825,677.2059,661.5,681.282,661.5,681.4665,658.7,681.0721,655.9,681.2165,653.1,681.4266,650.3,681.2542,647.5,681.283" style="stroke: #A9A9A9; stroke-width: 2.0;"/><!--link Approach to StraightForwardApproach--><path d="M731.231,661.279 L731.3746,661.5197 L739.2958,665.785 L748.0587,671.461 L756.5475,676.6777 L764.1349,680.3836 L772.917,686.0918 L781.0266,690.6728 L789.4038,695.7024 L797.967,701.0439 L805.8891,705.3106 L815.0874,711.7166 L822.6265,715.3413 L831.2698,720.8169 L840.0478,726.5183 L848.0419,730.9059 L856.495,736.0626 L864.7744,740.9283 L873.144,745.9452 " fill="none" style="stroke: #A9A9A9; stroke-width: 2.0;"/><polygon fill="none" points="727.432,667.163,727.4858,667.2079,724.6082,663.8228,722.0458,660.7011,719.3808,657.4936,716.3783,654.0041,713.843,650.905,713.8378,650.8796,717.967,651.6127,722.1223,652.4737,726.2957,653.4237,730.4065,654.0672,734.605,655.14,734.7635,655.2346,732.99,657.437,731.6792,659.9154,730.4248,662.4276,728.842,664.7438,727.432,667.163" style="stroke: #A9A9A9; stroke-width: 2.0;"/><!--
@startuml
skinparam backgroundColor #222222
skinparam handwritten true
hide circle

skinparam shadowing false
skinparam padding 1
skinparam arrow {
    Thickness 2
    Color #DarkGrey
    FontSize 20
    FontName courier
    FontStyle normal
    FontColor #DarkGrey
}
skinparam class {
    BorderThickness 3
    BorderColor #228B22
    BackgroundColor #222222
    FontSize 20
    FontName courier
    FontStyle bold
    FontColor #228B22
    StereotypeFontColor #228B22
}
skinparam classAttribute {
    FontSize 15
    FontName courier
    FontStyle normal
    FontColor #DarkGrey
}
skinparam note {
    BorderThickness 3
    BorderColor #DarkGrey
    BackgroundColor #222222
    FontSize 20
    FontName courier
    FontStyle normal
    FontColor #DarkGrey
}

class Scenario  {
+ main()
}
class SentimentalCounselor <<Director>>  {
+ teachSharedFriendApproach(Person)
+ teachSharedHobbyApproach(Person)
+ teachSharedForwardApproach(Person)
}
class Person <<Context>>  {
+ set(Approach)
+ flirt()
+ makeFriendship()
}
note left
public flirt() {
  // Trying to flirt
  this.approach.approach();
  // Inviting to dinner
}
end note
class Person
note bottom
public makeFrienship() {
  // Trying to make frienship
  this.approach.approach();
  // inviting to match
}
end note
class Approach <<Strategy>>  {
# approach()
}
class SharedFriendApproach <<ConcreteStrategyB>>  {
# approach()
}
class SharedHobbyApproach <<ConcreteStrategyA>>  {
# approach()
}
class StraightForwardApproach <<ConcreteStrategyC>>  {
# approach()
}

Scenario .down.> SentimentalCounselor
Scenario .down.> Person
SentimentalCounselor .down.> Person
SentimentalCounselor .down.> Approach
Person - -> Approach
Approach <|-down- SharedFriendApproach
Approach <|-down- SharedHobbyApproach
Approach <|-down- StraightForwardApproach
@enduml

PlantUML version 1.2019.05(Sat Apr 20 18:45:36 CEST 2019)
(GPL source distribution)
Java Runtime: Java(TM) SE Runtime Environment
JVM: Java HotSpot(TM) 64-Bit Server VM
Java Version: 11.0.8+10-LTS
Operating System: Windows 10
OS Version: 10.0
Default Encoding: windows-1252
Language: es
Country: ES
--></g></svg>