<?xml version="1.0" encoding="UTF-8" standalone="no"?><svg xmlns="http://www.w3.org/2000/svg" xmlns:xlink="http://www.w3.org/1999/xlink" contentScriptType="application/ecmascript" contentStyleType="text/css" height="725px" preserveAspectRatio="none" style="width:1331px;height:725px;background:#222222;" version="1.1" viewBox="0 0 1331 725" width="1331px" zoomAndPan="magnify"><defs/><g><!--class Referee--><polygon fill="#222222" points="725.5,318.5,725.5,318.7102,735.4655,318.0857,745.431,318.6933,755.3966,318.8997,765.3621,317.7866,775.3276,318.4223,785.2931,318.0735,795.2586,318.1165,805.2241,318.4318,815.1897,317.8086,825.1552,319.0536,835.1207,317.8697,845.0862,318.3022,855.0517,318.9319,865.0172,318.4142,874.9828,318.5682,884.9483,318.4681,894.9138,318.6785,904.8793,318.7391,914.8448,319.0857,924.8103,319.1711,934.7759,319.1793,944.7414,318.7546,954.7069,318.9636,964.6724,319.2022,974.6379,317.7788,984.6034,319.1785,994.569,318.2035,1004.5345,319.0338,1014.5,318.5,1014.005,318.5,1014.4315,328.6046,1015.2416,338.7093,1014.4513,348.8139,1014.6053,358.9185,1014.8386,369.0231,1014.9162,379.1278,1014.4961,389.2324,1014.7872,399.337,1013.9276,409.4416,1014.7844,419.5463,1015.0482,429.6509,1014.9445,439.7555,1015.113,449.8601,1014.0169,459.9648,1013.8478,470.0694,1013.8786,480.174,1014.4411,490.2786,1014.3035,500.3833,1015.1814,510.4879,1014.3253,520.5925,1014.1569,530.6971,1014.5,540.8018,1014.5,541.03,1004.5345,540.1349,994.569,540.2826,984.6034,541.4507,974.6379,541.2374,964.6724,541.5362,954.7069,540.48,944.7414,541.121,934.7759,541.3922,924.8103,540.3294,914.8448,540.7059,904.8793,540.9277,894.9138,541.4535,884.9483,540.7976,874.9828,541.2643,865.0172,540.248,855.0517,540.1245,845.0862,541.3054,835.1207,540.0848,825.1552,541.3107,815.1897,541.0084,805.2241,540.5338,795.2586,540.448,785.2931,541.2605,775.3276,540.5024,765.3621,541.3936,755.3966,540.249,745.431,541.4192,735.4655,541.2861,725.5,540.8018,725.745,540.8018,725.5472,530.6971,726.2266,520.5925,726.1136,510.4879,725.6693,500.3833,725.7682,490.2786,725.3697,480.174,726.2165,470.0694,725.6549,459.9648,725.6726,449.8601,724.8916,439.7555,725.0948,429.6509,726.0307,419.5463,725.9298,409.4416,725.4571,399.337,725.1778,389.2324,725.2811,379.1278,724.8138,369.0231,725.9147,358.9185,726.2396,348.8139,726.0264,338.7093,726.1949,328.6046,725.5,318.5" style="stroke: #228B22; stroke-width: 3.0;"/><text fill="#228B22" font-family="sans-serif" font-size="12" font-style="italic" lengthAdjust="spacingAndGlyphs" textLength="61" x="839.5" y="336.957">«Mediator»</text><text fill="#228B22" font-family="courier" font-size="20" font-weight="bold" lengthAdjust="spacingAndGlyphs" textLength="84" x="828" y="361.7012">Referee</text><path d="M726.5,373.707 L726.5,373.9873 L736.3966,373.1546 L746.2931,373.9647 L756.1897,374.2399 L766.0862,372.7558 L775.9828,373.6034 L785.8793,373.1384 L795.7759,373.1957 L805.6724,373.6162 L815.569,372.7852 L825.4655,374.4452 L835.3621,372.8667 L845.2586,373.4433 L855.1552,374.283 L865.0517,373.5927 L874.9483,373.798 L884.8448,373.6644 L894.7414,373.9451 L904.6379,374.0259 L914.5345,374.488 L924.431,374.6018 L934.3276,374.6127 L944.2241,374.0465 L954.1207,374.3251 L964.0172,374.6433 L973.9138,372.7455 L983.8103,374.6117 L993.7069,373.3117 L1003.6034,374.4188 L1013.5,373.707 " fill="#222222" style="stroke: #228B22; stroke-width: 3.0;"/><path d="M726.5,381.707 L726.5,381.9873 L736.3966,381.1546 L746.2931,381.9647 L756.1897,382.2399 L766.0862,380.7558 L775.9828,381.6034 L785.8793,381.1384 L795.7759,381.1957 L805.6724,381.6162 L815.569,380.7852 L825.4655,382.4452 L835.3621,380.8667 L845.2586,381.4433 L855.1552,382.283 L865.0517,381.5927 L874.9483,381.798 L884.8448,381.6644 L894.7414,381.9451 L904.6379,382.0259 L914.5345,382.488 L924.431,382.6018 L934.3276,382.6127 L944.2241,382.0465 L954.1207,382.3251 L964.0172,382.6433 L973.9138,380.7455 L983.8103,382.6117 L993.7069,381.3117 L1003.6034,382.4188 L1013.5,381.707 " fill="#222222" style="stroke: #228B22; stroke-width: 3.0;"/><polygon fill="#FFFF44" points="736.5,392.9995,736.5495,393.0491,737.2023,393.7019,738.1456,394.6451,738.9942,395.4937,739.5319,396.0314,740.5,396.9995,740.4817,396.9812,739.5995,397.699,738.8096,398.5091,738.0839,399.3834,737.137,400.0366,736.5,400.9995,736.6305,401.13,735.5514,400.051,734.8534,399.3529,734.2018,398.7013,733.2798,397.7793,732.5,396.9995,732.5161,397.0156,733.2925,396.192,734.1421,395.4416,734.9564,394.6559,735.838,393.9376,736.5,392.9995" style="stroke: #B38D22; stroke-width: 1.0;"/><text fill="#A9A9A9" font-family="courier" font-size="15" lengthAdjust="spacingAndGlyphs" textLength="153" x="746.5" y="401.7876">performCoinToss()</text><polygon fill="#F24D5C" points="733.5,416.5845,733.5,416.6545,734.7,416.4464,735.9,416.6489,737.1,416.7177,738.3,416.3467,739.5,416.5845,739.4741,416.5845,739.3578,417.7845,739.3722,418.9845,739.4773,420.1845,739.2695,421.3845,739.5,422.5845,739.5,422.769,738.3,422.3744,737.1,422.5186,735.9,422.7285,734.7,422.5559,733.5,422.5845,733.5227,422.5845,733.4894,421.3845,733.5595,420.1845,733.5797,418.9845,733.6952,417.7845,733.5,416.5845" style="stroke: #C82930; stroke-width: 1.0;"/><text fill="#A9A9A9" font-family="courier" font-size="15" lengthAdjust="spacingAndGlyphs" textLength="252" x="746.5" y="423.3726">informTeammembersAboutGoal()</text><polygon fill="#FFFF44" points="736.5,436.1694,736.5495,436.219,737.2023,436.8718,738.1456,437.815,738.9942,438.6636,739.5319,439.2013,740.5,440.1694,740.4817,440.1511,739.5995,440.8689,738.8096,441.679,738.0839,442.5534,737.137,443.2065,736.5,444.1694,736.6305,444.2999,735.5514,443.2209,734.8534,442.5228,734.2018,441.8712,733.2798,440.9492,732.5,440.1694,732.5161,440.1855,733.2925,439.3619,734.1421,438.6115,734.9564,437.8258,735.838,437.1075,736.5,436.1694" style="stroke: #B38D22; stroke-width: 1.0;"/><text fill="#A9A9A9" font-family="courier" font-size="15" lengthAdjust="spacingAndGlyphs" textLength="180" x="746.5" y="444.9575">answerYesNoRequest()</text><polygon fill="#FFFF44" points="736.5,457.7544,736.5495,457.8039,737.2023,458.4567,738.1456,459.4,738.9942,460.2486,739.5319,460.7862,740.5,461.7544,740.4817,461.7361,739.5995,462.4539,738.8096,463.264,738.0839,464.1383,737.137,464.7914,736.5,465.7544,736.6305,465.8849,735.5514,464.8058,734.8534,464.1078,734.2018,463.4562,733.2798,462.5342,732.5,461.7544,732.5161,461.7705,733.2925,460.9469,734.1421,460.1965,734.9564,459.4108,735.838,458.6924,736.5,457.7544" style="stroke: #B38D22; stroke-width: 1.0;"/><text fill="#A9A9A9" font-family="courier" font-size="15" lengthAdjust="spacingAndGlyphs" textLength="243" x="746.5" y="466.5425">answerSubstitutionRequest()</text><polygon fill="#FFFF44" points="736.5,479.3394,736.5495,479.3889,737.2023,480.0417,738.1456,480.9849,738.9942,481.8336,739.5319,482.3712,740.5,483.3394,740.4817,483.321,739.5995,484.0388,738.8096,484.849,738.0839,485.7233,737.137,486.3764,736.5,487.3394,736.6305,487.4699,735.5514,486.3908,734.8534,485.6927,734.2018,485.0412,733.2798,484.1191,732.5,483.3394,732.5161,483.3554,733.2925,482.5318,734.1421,481.7814,734.9564,480.9957,735.838,480.2774,736.5,479.3394" style="stroke: #B38D22; stroke-width: 1.0;"/><text fill="#A9A9A9" font-family="courier" font-size="15" lengthAdjust="spacingAndGlyphs" textLength="198" x="746.5" y="488.1274">answermassageRequest()</text><polygon fill="#F24D5C" points="733.5,502.9243,733.5,502.9944,734.7,502.7862,735.9,502.9887,737.1,503.0575,738.3,502.6865,739.5,502.9243,739.4741,502.9243,739.3578,504.1243,739.3722,505.3243,739.4773,506.5243,739.2695,507.7243,739.5,508.9243,739.5,509.1089,738.3,508.7142,737.1,508.8584,735.9,509.0683,734.7,508.8957,733.5,508.9243,733.5227,508.9243,733.4894,507.7243,733.5595,506.5243,733.5797,505.3243,733.6952,504.1243,733.5,502.9243" style="stroke: #C82930; stroke-width: 1.0;"/><text fill="#A9A9A9" font-family="courier" font-size="15" lengthAdjust="spacingAndGlyphs" textLength="261" x="746.5" y="509.7124">informTeamMembrsAboutAnswer()</text><polygon fill="#FFFF44" points="736.5,522.5093,736.5495,522.5588,737.2023,523.2116,738.1456,524.1548,738.9942,525.0035,739.5319,525.5411,740.5,526.5093,740.4817,526.491,739.5995,527.2088,738.8096,528.0189,738.0839,528.8932,737.137,529.5463,736.5,530.5093,736.6305,530.6398,735.5514,529.5607,734.8534,528.8627,734.2018,528.2111,733.2798,527.2891,732.5,526.5093,732.5161,526.5254,733.2925,525.7017,734.1421,524.9514,734.9564,524.1656,735.838,523.4473,736.5,522.5093" style="stroke: #B38D22; stroke-width: 1.0;"/><text fill="#A9A9A9" font-family="courier" font-size="15" lengthAdjust="spacingAndGlyphs" textLength="252" x="746.5" y="531.2974">generateRandom(int, boolean)</text><!--class SevereReferee--><polygon fill="#222222" points="1040,611,1040,611.2102,1050,610.5857,1060,611.1933,1070,611.3997,1080,610.2866,1090,610.9223,1100,610.5735,1110,610.6165,1120,610.9318,1130,610.3086,1140,611.5536,1150,610.3697,1160,610.8022,1170,611.4319,1180,610.9142,1190,611.0682,1200,610.9681,1210,611.1785,1220,611.2391,1230,611.5857,1240,611.6711,1250,611.6793,1260,611.2546,1270,611.4636,1280,611.7022,1290,610.2788,1300,611.6785,1310,610.7035,1320,611,1320.5338,611,1319.505,621.3102,1319.9315,631.6204,1320.7416,641.9307,1319.9513,652.2409,1320.1053,662.5511,1320.3386,672.8613,1320.4162,683.1715,1319.9961,693.4818,1320,703.792,1320,704.0792,1310,703.2196,1300,704.0764,1290,704.3402,1280,704.2365,1270,704.405,1260,703.3089,1250,703.1398,1240,703.1706,1230,703.7331,1220,703.5955,1210,704.4734,1200,703.6173,1190,703.4489,1180,704.0203,1170,703.1252,1160,703.2729,1150,704.4409,1140,704.2277,1130,704.5265,1120,703.4702,1110,704.1112,1100,704.3824,1090,703.3196,1080,703.6961,1070,703.918,1060,704.4438,1050,703.7878,1040,703.792,1040.4626,703.792,1039.4462,693.4818,1039.3227,683.1715,1040.5036,672.8613,1039.2831,662.5511,1040.509,652.2409,1040.2066,641.9307,1039.7321,631.6204,1039.6462,621.3102,1040,611" style="stroke: #228B22; stroke-width: 3.0;"/><text fill="#228B22" font-family="sans-serif" font-size="12" font-style="italic" lengthAdjust="spacingAndGlyphs" textLength="119" x="1120.5" y="629.457">«ConcreteMediatorA»</text><text fill="#228B22" font-family="courier" font-size="20" font-weight="bold" lengthAdjust="spacingAndGlyphs" textLength="156" x="1102" y="654.2012">SevereReferee</text><path d="M1041,666.207 L1041,666.4873 L1050.9286,665.6546 L1060.8571,666.4647 L1070.7857,666.7399 L1080.7143,665.2558 L1090.6429,666.1034 L1100.5714,665.6384 L1110.5,665.6957 L1120.4286,666.1162 L1130.3571,665.2852 L1140.2857,666.9452 L1150.2143,665.3667 L1160.1429,665.9433 L1170.0714,666.783 L1180,666.0927 L1189.9286,666.298 L1199.8571,666.1644 L1209.7857,666.4451 L1219.7143,666.5259 L1229.6429,666.988 L1239.5714,667.1018 L1249.5,667.1127 L1259.4286,666.5465 L1269.3571,666.8251 L1279.2857,667.1433 L1289.2143,665.2455 L1299.1429,667.1117 L1309.0714,665.8117 L1319,666.207 " fill="#222222" style="stroke: #228B22; stroke-width: 3.0;"/><path d="M1041,674.207 L1041,674.4873 L1050.9286,673.6546 L1060.8571,674.4647 L1070.7857,674.7399 L1080.7143,673.2558 L1090.6429,674.1034 L1100.5714,673.6384 L1110.5,673.6957 L1120.4286,674.1162 L1130.3571,673.2852 L1140.2857,674.9452 L1150.2143,673.3667 L1160.1429,673.9433 L1170.0714,674.783 L1180,674.0927 L1189.9286,674.298 L1199.8571,674.1644 L1209.7857,674.4451 L1219.7143,674.5259 L1229.6429,674.988 L1239.5714,675.1018 L1249.5,675.1127 L1259.4286,674.5465 L1269.3571,674.8251 L1279.2857,675.1433 L1289.2143,673.2455 L1299.1429,675.1117 L1309.0714,673.8117 L1319,674.207 " fill="#222222" style="stroke: #228B22; stroke-width: 3.0;"/><polygon fill="#FFFF44" points="1051,685.4995,1051.0495,685.5491,1051.7023,686.2019,1052.6456,687.1451,1053.4942,687.9937,1054.0319,688.5314,1055,689.4995,1054.9817,689.4812,1054.0995,690.199,1053.3096,691.0091,1052.5839,691.8834,1051.637,692.5366,1051,693.4995,1051.1305,693.63,1050.0514,692.551,1049.3534,691.8529,1048.7018,691.2013,1047.7798,690.2793,1047,689.4995,1047.0161,689.5156,1047.7925,688.692,1048.6421,687.9416,1049.4564,687.1559,1050.338,686.4376,1051,685.4995" style="stroke: #B38D22; stroke-width: 1.0;"/><text fill="#A9A9A9" font-family="courier" font-size="15" lengthAdjust="spacingAndGlyphs" textLength="252" x="1061" y="694.2876">generateRandom(int, boolean)</text><!--class PermissiveReferee--><polygon fill="#222222" points="725,611,725,611.2102,735,610.5857,745,611.1933,755,611.3997,765,610.2866,775,610.9223,785,610.5735,795,610.6165,805,610.9318,815,610.3086,825,611.5536,835,610.3697,845,610.8022,855,611.4319,865,610.9142,875,611.0682,885,610.9681,895,611.1785,905,611.2391,915,611.5857,925,611.6711,935,611.6793,945,611.2546,955,611.4636,965,611.7022,975,610.2788,985,611.6785,995,610.7035,1005,611,1005.5338,611,1004.505,621.3102,1004.9315,631.6204,1005.7416,641.9307,1004.9513,652.2409,1005.1053,662.5511,1005.3386,672.8613,1005.4162,683.1715,1004.9961,693.4818,1005,703.792,1005,704.0792,995,703.2196,985,704.0764,975,704.3402,965,704.2365,955,704.405,945,703.3089,935,703.1398,925,703.1706,915,703.7331,905,703.5955,895,704.4734,885,703.6173,875,703.4489,865,704.0203,855,703.1252,845,703.2729,835,704.4409,825,704.2277,815,704.5265,805,703.4702,795,704.1112,785,704.3824,775,703.3196,765,703.6961,755,703.918,745,704.4438,735,703.7878,725,703.792,725.4626,703.792,724.4462,693.4818,724.3227,683.1715,725.5036,672.8613,724.2831,662.5511,725.509,652.2409,725.2066,641.9307,724.7321,631.6204,724.6462,621.3102,725,611" style="stroke: #228B22; stroke-width: 3.0;"/><text fill="#228B22" font-family="sans-serif" font-size="12" font-style="italic" lengthAdjust="spacingAndGlyphs" textLength="119" x="805.5" y="629.457">«ConcreteMediatorB»</text><text fill="#228B22" font-family="courier" font-size="20" font-weight="bold" lengthAdjust="spacingAndGlyphs" textLength="204" x="763" y="654.2012">PermissiveReferee</text><path d="M726,666.207 L726,666.4873 L735.9286,665.6546 L745.8571,666.4647 L755.7857,666.7399 L765.7143,665.2558 L775.6429,666.1034 L785.5714,665.6384 L795.5,665.6957 L805.4286,666.1162 L815.3571,665.2852 L825.2857,666.9452 L835.2143,665.3667 L845.1429,665.9433 L855.0714,666.783 L865,666.0927 L874.9286,666.298 L884.8571,666.1644 L894.7857,666.4451 L904.7143,666.5259 L914.6429,666.988 L924.5714,667.1018 L934.5,667.1127 L944.4286,666.5465 L954.3571,666.8251 L964.2857,667.1433 L974.2143,665.2455 L984.1429,667.1117 L994.0714,665.8117 L1004,666.207 " fill="#222222" style="stroke: #228B22; stroke-width: 3.0;"/><path d="M726,674.207 L726,674.4873 L735.9286,673.6546 L745.8571,674.4647 L755.7857,674.7399 L765.7143,673.2558 L775.6429,674.1034 L785.5714,673.6384 L795.5,673.6957 L805.4286,674.1162 L815.3571,673.2852 L825.2857,674.9452 L835.2143,673.3667 L845.1429,673.9433 L855.0714,674.783 L865,674.0927 L874.9286,674.298 L884.8571,674.1644 L894.7857,674.4451 L904.7143,674.5259 L914.6429,674.988 L924.5714,675.1018 L934.5,675.1127 L944.4286,674.5465 L954.3571,674.8251 L964.2857,675.1433 L974.2143,673.2455 L984.1429,675.1117 L994.0714,673.8117 L1004,674.207 " fill="#222222" style="stroke: #228B22; stroke-width: 3.0;"/><polygon fill="#FFFF44" points="736,685.4995,736.0495,685.5491,736.7023,686.2019,737.6456,687.1451,738.4942,687.9937,739.0319,688.5314,740,689.4995,739.9817,689.4812,739.0995,690.199,738.3096,691.0091,737.5839,691.8834,736.637,692.5366,736,693.4995,736.1305,693.63,735.0514,692.551,734.3534,691.8529,733.7018,691.2013,732.7798,690.2793,732,689.4995,732.0161,689.5156,732.7925,688.692,733.6421,687.9416,734.4564,687.1559,735.338,686.4376,736,685.4995" style="stroke: #B38D22; stroke-width: 1.0;"/><text fill="#A9A9A9" font-family="courier" font-size="15" lengthAdjust="spacingAndGlyphs" textLength="252" x="746" y="694.2876">generateRandom(int, boolean)</text><!--class Scenario--><polygon fill="#222222" points="1016,8.5,1016,8.7102,1026.4,8.0857,1036.8,8.6933,1047.2,8.8997,1057.6,7.7866,1068,8.4223,1078.4,8.0735,1088.8,8.1165,1099.2,8.4318,1109.6,7.8086,1120,8.5,1120.5536,8.5,1119.3697,17.9623,1119.8022,27.4246,1120.4319,36.8868,1119.9142,46.3491,1120.0682,55.8114,1119.9681,65.2737,1120.1785,74.736,1120,84.1982,1120,84.4374,1109.6,84.7839,1099.2,84.8693,1088.8,84.8775,1078.4,84.4529,1068,84.6618,1057.6,84.9005,1047.2,83.4771,1036.8,84.8768,1026.4,83.9017,1016,84.1982,1016.5338,84.1982,1015.505,74.736,1015.9315,65.2737,1016.7416,55.8114,1015.9513,46.3491,1016.1053,36.8868,1016.3386,27.4246,1016.4162,17.9623,1016,8.5" style="stroke: #228B22; stroke-width: 3.0;"/><text fill="#228B22" font-family="courier" font-size="20" font-weight="bold" lengthAdjust="spacingAndGlyphs" textLength="96" x="1020" y="34.6074">Scenario</text><path d="M1017,46.6133 L1017,46.8935 L1027.2,46.0609 L1037.4,46.871 L1047.6,47.1462 L1057.8,45.6621 L1068,46.5097 L1078.2,46.0446 L1088.4,46.1019 L1098.6,46.5224 L1108.8,45.6915 L1119,46.6133 " fill="#222222" style="stroke: #228B22; stroke-width: 3.0;"/><path d="M1017,54.6133 L1017,54.8935 L1027.2,54.0609 L1037.4,54.871 L1047.6,55.1462 L1057.8,53.6621 L1068,54.5097 L1078.2,54.0446 L1088.4,54.1019 L1098.6,54.5224 L1108.8,53.6915 L1119,54.6133 " fill="#222222" style="stroke: #228B22; stroke-width: 3.0;"/><polygon fill="#84BE84" points="1030.0166,71.6355,1029.5768,72.2363,1029.0567,73.1164,1028.3128,73.7095,1027.5311,74.0338,1026.9078,74.062,1026.1067,73.6564,1025.3509,73.3914,1024.7771,72.8534,1024.4762,72.2374,1024.2977,71.747,1024.1229,71.1064,1023.8391,70.5552,1024.0572,70.0169,1024.2482,69.4274,1024.9653,68.9611,1025.4697,68.3561,1026.0941,68.1552,1026.8364,67.9821,1027.7883,68.0849,1028.3097,68.3308,1028.9158,68.4423,1029.6529,69.1974,1029.9098,69.9946,1030.0214,70.5385,1029.895,71.4348" style="stroke: #038048; stroke-width: 1.0;"/><text fill="#A9A9A9" font-family="courier" font-size="15" lengthAdjust="spacingAndGlyphs" textLength="54" x="1037" y="74.6938">main()</text><!--class Match--><polygon fill="#222222" points="420,144.5,420,144.7102,430.2667,144.0857,440.5333,144.6933,450.8,144.8997,461.0667,143.7866,471.3333,144.4223,481.6,144.0735,491.8667,144.1165,502.1333,144.4318,512.4,143.8086,522.6667,145.0536,532.9333,143.8697,543.2,144.3022,553.4667,144.9319,563.7333,144.4142,574,144.5,574.0682,144.5,573.9681,154.8979,574.1785,165.2958,574.2391,175.6937,574.5857,186.0916,574.6711,196.4895,574.6793,206.8874,574.2546,217.2853,574.4636,227.6832,574.7022,238.0811,573.2788,248.479,574,258.877,574,259.5555,563.7333,258.5804,553.4667,259.4108,543.2,258.3819,532.9333,258.8085,522.6667,259.6186,512.4,258.8282,502.1333,258.9823,491.8667,259.2156,481.6,259.2932,471.3333,258.873,461.0667,259.1642,450.8,258.3045,440.5333,259.1613,430.2667,259.4251,420,258.877,420.4445,258.877,420.613,248.479,419.5169,238.0811,419.3478,227.6832,419.3786,217.2853,419.9411,206.8874,419.8035,196.4895,420.6814,186.0916,419.8253,175.6937,419.6569,165.2958,420.2283,154.8979,420,144.5" style="stroke: #228B22; stroke-width: 3.0;"/><text fill="#228B22" font-family="sans-serif" font-size="12" font-style="italic" lengthAdjust="spacingAndGlyphs" textLength="57" x="468.5" y="162.957">«Director»</text><text fill="#228B22" font-family="courier" font-size="20" font-weight="bold" lengthAdjust="spacingAndGlyphs" textLength="60" x="467" y="187.7012">Match</text><path d="M421,199.707 L421,199.9873 L431.1333,199.1546 L441.2667,199.9647 L451.4,200.2399 L461.5333,198.7558 L471.6667,199.6034 L481.8,199.1384 L491.9333,199.1957 L502.0667,199.6162 L512.2,198.7852 L522.3333,200.4452 L532.4667,198.8667 L542.6,199.4433 L552.7333,200.283 L562.8667,199.5927 L573,199.707 " fill="#222222" style="stroke: #228B22; stroke-width: 3.0;"/><path d="M421,207.707 L421,207.9873 L431.1333,207.1546 L441.2667,207.9647 L451.4,208.2399 L461.5333,206.7558 L471.6667,207.6034 L481.8,207.1384 L491.9333,207.1957 L502.0667,207.6162 L512.2,206.7852 L522.3333,208.4452 L532.4667,206.8667 L542.6,207.4433 L552.7333,208.283 L562.8667,207.5927 L573,207.707 " fill="#222222" style="stroke: #228B22; stroke-width: 3.0;"/><polygon fill="#84BE84" points="434.0166,224.7292,433.5768,225.3301,433.0567,226.2102,432.3128,226.8033,431.5311,227.1276,430.9078,227.1557,430.1067,226.7501,429.3509,226.4851,428.7771,225.9471,428.4762,225.3312,428.2977,224.8407,428.1229,224.2002,427.8391,223.6489,428.0572,223.1107,428.2482,222.5211,428.9653,222.0548,429.4697,221.4498,430.0941,221.2489,430.8364,221.0759,431.7883,221.1787,432.3097,221.4246,432.9158,221.536,433.6529,222.2911,433.9098,223.0883,434.0214,223.6322,433.895,224.5286" style="stroke: #038048; stroke-width: 1.0;"/><text fill="#A9A9A9" font-family="courier" font-size="15" lengthAdjust="spacingAndGlyphs" textLength="126" x="441" y="227.7876">Match(Referee)</text><polygon fill="#84BE84" points="434.0166,246.3142,433.5768,246.9151,433.0567,247.7951,432.3128,248.3882,431.5311,248.7125,430.9078,248.7407,430.1067,248.3351,429.3509,248.0701,428.7771,247.5321,428.4762,246.9161,428.2977,246.4257,428.1229,245.7851,427.8391,245.2339,428.0572,244.6957,428.2482,244.1061,428.9653,243.6398,429.4697,243.0348,430.0941,242.8339,430.8364,242.6608,431.7883,242.7636,432.3097,243.0095,432.9158,243.121,433.6529,243.8761,433.9098,244.6733,434.0214,245.2172,433.895,246.1135" style="stroke: #038048; stroke-width: 1.0;"/><text fill="#A9A9A9" font-family="courier" font-size="15" lengthAdjust="spacingAndGlyphs" textLength="54" x="441" y="249.3726">play()</text><!--class TeamMember--><polygon fill="#222222" points="609,166,609,166.2102,618.8462,165.5857,628.6923,166.1933,638.5385,166.3997,648.3846,165.2866,658.2308,165.9223,668.0769,165.5735,677.9231,165.6165,687.7692,165.9318,697.6154,165.3086,707.4615,166.5536,717.3077,165.3697,727.1538,165.8022,737,166,737.4319,166,736.9142,176.1724,737.0682,186.3449,736.9681,196.5173,737.1785,206.6897,737.2391,216.8622,737.5857,227.0346,737,237.207,737,237.8781,727.1538,237.8863,717.3077,237.4617,707.4615,237.6706,697.6154,237.9093,687.7692,236.4858,677.9231,237.8855,668.0769,236.9105,658.2308,237.7408,648.3846,236.712,638.5385,237.1385,628.6923,237.9486,618.8462,237.1583,609,237.207,609.1053,237.207,609.3386,227.0346,609.4162,216.8622,608.9961,206.6897,609.2872,196.5173,608.4276,186.3449,609.2844,176.1724,609,166" style="stroke: #228B22; stroke-width: 3.0;"/><text fill="#228B22" font-family="sans-serif" font-size="12" font-style="italic" lengthAdjust="spacingAndGlyphs" textLength="64" x="641" y="184.457">«Collegue»</text><text fill="#228B22" font-family="courier" font-size="20" font-weight="bold" lengthAdjust="spacingAndGlyphs" textLength="120" x="613" y="209.2012">TeamMember</text><path d="M610,221.207 L610,221.4873 L619.6923,220.6546 L629.3846,221.4647 L639.0769,221.7399 L648.7692,220.2558 L658.4615,221.1034 L668.1538,220.6384 L677.8462,220.6957 L687.5385,221.1162 L697.2308,220.2852 L706.9231,221.9452 L716.6154,220.3667 L726.3077,220.9433 L736,221.207 " fill="#222222" style="stroke: #228B22; stroke-width: 3.0;"/><path d="M610,229.207 L610,229.4873 L619.6923,228.6546 L629.3846,229.4647 L639.0769,229.7399 L648.7692,228.2558 L658.4615,229.1034 L668.1538,228.6384 L677.8462,228.6957 L687.5385,229.1162 L697.2308,228.2852 L706.9231,229.9452 L716.6154,228.3667 L726.3077,228.9433 L736,229.207 " fill="#222222" style="stroke: #228B22; stroke-width: 3.0;"/><!--class Player--><polygon fill="#222222" points="251.5,350.5,251.5,350.7102,261.45,350.0857,271.4,350.6933,281.35,350.8997,291.3,349.7866,301.25,350.4223,311.2,350.0735,321.15,350.1165,331.1,350.4318,341.05,349.8086,351,351.0536,360.95,349.8697,370.9,350.3022,380.85,350.9319,390.8,350.4142,400.75,350.5682,410.7,350.4681,420.65,350.6785,430.6,350.7391,440.55,351.0857,450.5,350.5,451.1711,350.5,451.1793,360.3467,450.7546,370.1934,450.9636,380.04,451.2022,389.8867,449.7788,399.7334,451.1785,409.5801,450.2035,419.4268,451.0338,429.2734,450.005,439.1201,450.4315,448.9668,451.2416,458.8135,450.4513,468.6602,450.6053,478.5068,450.8386,488.3535,450.9162,498.2002,450.5,508.0469,450.5,508.043,440.55,508.3341,430.6,507.4745,420.65,508.3313,410.7,508.5951,400.75,508.4914,390.8,508.6599,380.85,507.5638,370.9,507.3947,360.95,507.4255,351,507.988,341.05,507.8503,331.1,508.7283,321.15,507.8722,311.2,507.7038,301.25,508.2751,291.3,507.38,281.35,507.5277,271.4,508.6958,261.45,508.4825,251.5,508.0469,252.2345,508.0469,251.1782,498.2002,251.8192,488.3535,252.0904,478.5068,251.0276,468.6602,251.4041,458.8135,251.626,448.9668,252.1518,439.1201,251.4958,429.2734,251.9626,419.4268,250.9462,409.5801,250.8227,399.7334,252.0036,389.8867,250.7831,380.04,252.009,370.1934,251.7066,360.3467,251.5,350.5" style="stroke: #228B22; stroke-width: 3.0;"/><text fill="#228B22" font-family="sans-serif" font-size="12" font-style="italic" lengthAdjust="spacingAndGlyphs" textLength="122" x="290" y="368.957">«ConcreteCollegueA»</text><text fill="#228B22" font-family="courier" font-size="20" font-weight="bold" lengthAdjust="spacingAndGlyphs" textLength="72" x="315" y="393.7012">Player</text><path d="M252.5,405.707 L252.5,405.9873 L262.35,405.1546 L272.2,405.9647 L282.05,406.2399 L291.9,404.7558 L301.75,405.6034 L311.6,405.1384 L321.45,405.1957 L331.3,405.6162 L341.15,404.7852 L351,406.4452 L360.85,404.8667 L370.7,405.4433 L380.55,406.283 L390.4,405.5927 L400.25,405.798 L410.1,405.6644 L419.95,405.9451 L429.8,406.0259 L439.65,406.488 L449.5,405.707 " fill="#222222" style="stroke: #228B22; stroke-width: 3.0;"/><path d="M252.5,413.707 L252.5,413.9873 L262.35,413.1546 L272.2,413.9647 L282.05,414.2399 L291.9,412.7558 L301.75,413.6034 L311.6,413.1384 L321.45,413.1957 L331.3,413.6162 L341.15,412.7852 L351,414.4452 L360.85,412.8667 L370.7,413.4433 L380.55,414.283 L390.4,413.5927 L400.25,413.798 L410.1,413.6644 L419.95,413.9451 L429.8,414.0259 L439.65,414.488 L449.5,413.707 " fill="#222222" style="stroke: #228B22; stroke-width: 3.0;"/><polygon fill="#FFFF44" points="262.5,424.9995,262.5495,425.0491,263.2023,425.7019,264.1456,426.6451,264.9942,427.4937,265.5319,428.0314,266.5,428.9995,266.4817,428.9812,265.5995,429.699,264.8096,430.5091,264.0839,431.3834,263.137,432.0366,262.5,432.9995,262.6305,433.13,261.5514,432.051,260.8534,431.3529,260.2018,430.7013,259.2798,429.7793,258.5,428.9995,258.5161,429.0156,259.2925,428.192,260.1421,427.4416,260.9564,426.6559,261.838,425.9376,262.5,424.9995" style="stroke: #B38D22; stroke-width: 1.0;"/><text fill="#A9A9A9" font-family="courier" font-size="15" lengthAdjust="spacingAndGlyphs" textLength="171" x="272.5" y="433.7876">requestYellowCard()</text><polygon fill="#FFFF44" points="262.5,446.5845,262.5495,446.634,263.2023,447.2868,264.1456,448.23,264.9942,449.0787,265.5319,449.6163,266.5,450.5845,266.4817,450.5662,265.5995,451.2839,264.8096,452.0941,264.0839,452.9684,263.137,453.6215,262.5,454.5845,262.6305,454.715,261.5514,453.6359,260.8534,452.9379,260.2018,452.2863,259.2798,451.3643,258.5,450.5845,258.5161,450.6006,259.2925,449.7769,260.1421,449.0266,260.9564,448.2408,261.838,447.5225,262.5,446.5845" style="stroke: #B38D22; stroke-width: 1.0;"/><text fill="#A9A9A9" font-family="courier" font-size="15" lengthAdjust="spacingAndGlyphs" textLength="144" x="272.5" y="455.3726">requestRedCard()</text><polygon fill="#FFFF44" points="262.5,468.1694,262.5495,468.219,263.2023,468.8718,264.1456,469.815,264.9942,470.6636,265.5319,471.2013,266.5,472.1694,266.4817,472.1511,265.5995,472.8689,264.8096,473.679,264.0839,474.5534,263.137,475.2065,262.5,476.1694,262.6305,476.2999,261.5514,475.2209,260.8534,474.5228,260.2018,473.8712,259.2798,472.9492,258.5,472.1694,258.5161,472.1855,259.2925,471.3619,260.1421,470.6115,260.9564,469.8258,261.838,469.1075,262.5,468.1694" style="stroke: #B38D22; stroke-width: 1.0;"/><text fill="#A9A9A9" font-family="courier" font-size="15" lengthAdjust="spacingAndGlyphs" textLength="144" x="272.5" y="476.9575">requestPenalti()</text><polygon fill="#FFFF44" points="262.5,489.7544,262.5495,489.8039,263.2023,490.4567,264.1456,491.4,264.9942,492.2486,265.5319,492.7862,266.5,493.7544,266.4817,493.7361,265.5995,494.4539,264.8096,495.264,264.0839,496.1383,263.137,496.7914,262.5,497.7544,262.6305,497.8849,261.5514,496.8058,260.8534,496.1078,260.2018,495.4562,259.2798,494.5342,258.5,493.7544,258.5161,493.7705,259.2925,492.9469,260.1421,492.1965,260.9564,491.4108,261.838,490.6924,262.5,489.7544" style="stroke: #B38D22; stroke-width: 1.0;"/><text fill="#A9A9A9" font-family="courier" font-size="15" lengthAdjust="spacingAndGlyphs" textLength="144" x="272.5" y="498.5425">requestMassage()</text><!--class Captain--><polygon fill="#222222" points="6,600.5,6,600.7102,15.9048,600.0857,25.8095,600.6933,35.7143,600.8997,45.619,599.7866,55.5238,600.4223,65.4286,600.0735,75.3333,600.1165,85.2381,600.4318,95.1429,599.8086,105.0476,601.0536,114.9524,599.8697,124.8571,600.3022,134.7619,600.9319,144.6667,600.4142,154.5714,600.5682,164.4762,600.4681,174.381,600.6785,184.2857,600.7391,194.1905,601.0857,204.0952,601.1711,214,600.5,214.6793,600.5,214.2546,610.8979,214.4636,621.2958,214.7022,631.6937,213.2788,642.0916,214.6785,652.4895,213.7035,662.8874,214.5338,673.2853,213.505,683.6832,213.9315,694.0811,214.7416,704.479,214,714.877,214,714.8282,204.0952,714.9823,194.1905,715.2156,184.2857,715.2932,174.381,714.873,164.4762,715.1642,154.5714,714.3045,144.6667,715.1613,134.7619,715.4251,124.8571,715.3215,114.9524,715.49,105.0476,714.3939,95.1429,714.2248,85.2381,714.2556,75.3333,714.8181,65.4286,714.6804,55.5238,715.5584,45.619,714.7023,35.7143,714.5339,25.8095,715.1052,15.9048,714.2101,6,714.877,5.4809,714.877,6.649,704.479,6.4357,694.0811,6.7345,683.6832,5.6782,673.2853,6.3192,662.8874,6.5904,652.4895,5.5276,642.0916,5.9041,631.6937,6.126,621.2958,6.6518,610.8979,6,600.5" style="stroke: #228B22; stroke-width: 3.0;"/><text fill="#228B22" font-family="sans-serif" font-size="12" font-style="italic" lengthAdjust="spacingAndGlyphs" textLength="130" x="45" y="618.957">«ConcreteCollegueAA»</text><text fill="#228B22" font-family="courier" font-size="20" font-weight="bold" lengthAdjust="spacingAndGlyphs" textLength="84" x="68" y="643.7012">Captain</text><path d="M7,655.707 L7,655.9873 L16.8095,655.1546 L26.619,655.9647 L36.4286,656.2399 L46.2381,654.7558 L56.0476,655.6034 L65.8571,655.1384 L75.6667,655.1957 L85.4762,655.6162 L95.2857,654.7852 L105.0952,656.4452 L114.9048,654.8667 L124.7143,655.4433 L134.5238,656.283 L144.3333,655.5927 L154.1429,655.798 L163.9524,655.6644 L173.7619,655.9451 L183.5714,656.0259 L193.381,656.488 L203.1905,656.6018 L213,655.707 " fill="#222222" style="stroke: #228B22; stroke-width: 3.0;"/><path d="M7,663.707 L7,663.9873 L16.8095,663.1546 L26.619,663.9647 L36.4286,664.2399 L46.2381,662.7558 L56.0476,663.6034 L65.8571,663.1384 L75.6667,663.1957 L85.4762,663.6162 L95.2857,662.7852 L105.0952,664.4452 L114.9048,662.8667 L124.7143,663.4433 L134.5238,664.283 L144.3333,663.5927 L154.1429,663.798 L163.9524,663.6644 L173.7619,663.9451 L183.5714,664.0259 L193.381,664.488 L203.1905,664.6018 L213,663.707 " fill="#222222" style="stroke: #228B22; stroke-width: 3.0;"/><polygon fill="#FFFF44" points="17,674.9995,17.0495,675.0491,17.7023,675.7019,18.6456,676.6451,19.4942,677.4937,20.0319,678.0314,21,678.9995,20.9817,678.9812,20.0995,679.699,19.3096,680.5091,18.5839,681.3834,17.637,682.0366,17,682.9995,17.1305,683.13,16.0514,682.051,15.3534,681.3529,14.7018,680.7013,13.7798,679.7793,13,678.9995,13.0161,679.0156,13.7925,678.192,14.6421,677.4416,15.4564,676.6559,16.338,675.9376,17,674.9995" style="stroke: #B38D22; stroke-width: 1.0;"/><text fill="#A9A9A9" font-family="courier" font-size="15" lengthAdjust="spacingAndGlyphs" textLength="180" x="27" y="683.7876">chooseHeadsOrTails()</text><polygon fill="#FFFF44" points="17,696.5845,17.0495,696.634,17.7023,697.2868,18.6456,698.23,19.4942,699.0787,20.0319,699.6163,21,700.5845,20.9817,700.5662,20.0995,701.2839,19.3096,702.0941,18.5839,702.9684,17.637,703.6215,17,704.5845,17.1305,704.715,16.0514,703.6359,15.3534,702.9379,14.7018,702.2863,13.7798,701.3643,13,700.5845,13.0161,700.6006,13.7925,699.7769,14.6421,699.0266,15.4564,698.2408,16.338,697.5225,17,696.5845" style="stroke: #B38D22; stroke-width: 1.0;"/><text fill="#A9A9A9" font-family="courier" font-size="15" lengthAdjust="spacingAndGlyphs" textLength="108" x="27" y="705.3726">chooseGoal()</text><!--class Coach--><polygon fill="#222222" points="249.5,611,249.5,611.2102,259.3636,610.5857,269.2273,611.1933,279.0909,611.3997,288.9545,610.2866,298.8182,610.9223,308.6818,610.5735,318.5455,610.6165,328.4091,610.9318,338.2727,610.3086,348.1364,611.5536,358,610.3697,367.8636,610.8022,377.7273,611.4319,387.5909,610.9142,397.4545,611.0682,407.3182,610.9681,417.1818,611.1785,427.0455,611.2391,436.9091,611.5857,446.7727,611.6711,456.6364,611.6793,466.5,611,466.7546,611,466.9636,621.3102,467.2022,631.6204,465.7788,641.9307,467.1785,652.2409,466.2035,662.5511,467.0338,672.8613,466.005,683.1715,466.4315,693.4818,466.5,703.792,466.5,704.5336,456.6364,703.7433,446.7727,703.8973,436.9091,704.1306,427.0455,704.2082,417.1818,703.7881,407.3182,704.0792,397.4545,703.2196,387.5909,704.0764,377.7273,704.3402,367.8636,704.2365,358,704.405,348.1364,703.3089,338.2727,703.1398,328.4091,703.1706,318.5455,703.7331,308.6818,703.5955,298.8182,704.4734,288.9545,703.6173,279.0909,703.4489,269.2273,704.0203,259.3636,703.1252,249.5,703.792,248.9809,703.792,250.149,693.4818,249.9357,683.1715,250.2345,672.8613,249.1782,662.5511,249.8192,652.2409,250.0904,641.9307,249.0276,631.6204,249.4041,621.3102,249.5,611" style="stroke: #228B22; stroke-width: 3.0;"/><text fill="#228B22" font-family="sans-serif" font-size="12" font-style="italic" lengthAdjust="spacingAndGlyphs" textLength="129" x="293.5" y="629.457">«ConcreteColleagueB»</text><text fill="#228B22" font-family="courier" font-size="20" font-weight="bold" lengthAdjust="spacingAndGlyphs" textLength="60" x="328" y="654.2012">Coach</text><path d="M250.5,666.207 L250.5,666.4873 L260.2727,665.6546 L270.0455,666.4647 L279.8182,666.7399 L289.5909,665.2558 L299.3636,666.1034 L309.1364,665.6384 L318.9091,665.6957 L328.6818,666.1162 L338.4545,665.2852 L348.2273,666.9452 L358,665.3667 L367.7727,665.9433 L377.5455,666.783 L387.3182,666.0927 L397.0909,666.298 L406.8636,666.1644 L416.6364,666.4451 L426.4091,666.5259 L436.1818,666.988 L445.9545,667.1018 L455.7273,667.1127 L465.5,666.207 " fill="#222222" style="stroke: #228B22; stroke-width: 3.0;"/><path d="M250.5,674.207 L250.5,674.4873 L260.2727,673.6546 L270.0455,674.4647 L279.8182,674.7399 L289.5909,673.2558 L299.3636,674.1034 L309.1364,673.6384 L318.9091,673.6957 L328.6818,674.1162 L338.4545,673.2852 L348.2273,674.9452 L358,673.3667 L367.7727,673.9433 L377.5455,674.783 L387.3182,674.0927 L397.0909,674.298 L406.8636,674.1644 L416.6364,674.4451 L426.4091,674.5259 L436.1818,674.988 L445.9545,675.1018 L455.7273,675.1127 L465.5,674.207 " fill="#222222" style="stroke: #228B22; stroke-width: 3.0;"/><polygon fill="#FFFF44" points="260.5,685.4995,260.5495,685.5491,261.2023,686.2019,262.1456,687.1451,262.9942,687.9937,263.5319,688.5314,264.5,689.4995,264.4817,689.4812,263.5995,690.199,262.8096,691.0091,262.0839,691.8834,261.137,692.5366,260.5,693.4995,260.6305,693.63,259.5514,692.551,258.8534,691.8529,258.2018,691.2013,257.2798,690.2793,256.5,689.4995,256.5161,689.5156,257.2925,688.692,258.1421,687.9416,258.9564,687.1559,259.838,686.4376,260.5,685.4995" style="stroke: #B38D22; stroke-width: 1.0;"/><text fill="#A9A9A9" font-family="courier" font-size="15" lengthAdjust="spacingAndGlyphs" textLength="189" x="270.5" y="694.2876">requestSubstitution()</text><!--class Physiotherapist--><polygon fill="#222222" points="502,619.5,502,619.7102,511.8947,619.0857,521.7895,619.6933,531.6842,619.8997,541.5789,618.7866,551.4737,619.4223,561.3684,619.0735,571.2632,619.1165,581.1579,619.4318,591.0526,618.8086,600.9474,620.0536,610.8421,618.8697,620.7368,619.3022,630.6316,619.9319,640.5263,619.4142,650.4211,619.5682,660.3158,619.4681,670.2105,619.6785,680.1053,619.7391,690,619.5,690.5857,619.5,690.6711,628.9623,690.6793,638.4246,690.2546,647.8868,690.4636,657.3491,690.7022,666.8114,689.2788,676.2737,690.6785,685.736,690,695.1982,690,694.9017,680.1053,695.7321,670.2105,694.7032,660.3158,695.1297,650.4211,695.9398,640.5263,695.1495,630.6316,695.3035,620.7368,695.5369,610.8421,695.6145,600.9474,695.1943,591.0526,695.4855,581.1579,694.6258,571.2632,695.4826,561.3684,695.7464,551.4737,695.6428,541.5789,695.8113,531.6842,694.7152,521.7895,694.5461,511.8947,694.5768,502,695.1982,501.9411,695.1982,501.8035,685.736,502.6814,676.2737,501.8253,666.8114,501.6569,657.3491,502.2283,647.8868,501.3332,638.4246,501.4809,628.9623,502,619.5" style="stroke: #228B22; stroke-width: 3.0;"/><text fill="#228B22" font-family="courier" font-size="20" font-weight="bold" lengthAdjust="spacingAndGlyphs" textLength="180" x="506" y="645.6074">Physiotherapist</text><path d="M503,657.6133 L503,657.8935 L512.7895,657.0609 L522.5789,657.871 L532.3684,658.1462 L542.1579,656.6621 L551.9474,657.5097 L561.7368,657.0446 L571.5263,657.1019 L581.3158,657.5224 L591.1053,656.6915 L600.8947,658.3515 L610.6842,656.7729 L620.4737,657.3496 L630.2632,658.1892 L640.0526,657.4989 L649.8421,657.7043 L659.6316,657.5707 L669.4211,657.8513 L679.2105,657.9321 L689,657.6133 " fill="#222222" style="stroke: #228B22; stroke-width: 3.0;"/><path d="M503,665.6133 L503,665.8935 L512.7895,665.0609 L522.5789,665.871 L532.3684,666.1462 L542.1579,664.6621 L551.9474,665.5097 L561.7368,665.0446 L571.5263,665.1019 L581.3158,665.5224 L591.1053,664.6915 L600.8947,666.3515 L610.6842,664.7729 L620.4737,665.3496 L630.2632,666.1892 L640.0526,665.4989 L649.8421,665.7043 L659.6316,665.5707 L669.4211,665.8513 L679.2105,665.9321 L689,665.6133 " fill="#222222" style="stroke: #228B22; stroke-width: 3.0;"/><polygon fill="#FFFF44" points="513,676.9058,513.0495,676.9553,513.7023,677.6081,514.6456,678.5513,515.4942,679.4,516.0319,679.9376,517,680.9058,516.9817,680.8874,516.0995,681.6052,515.3096,682.4154,514.5839,683.2897,513.637,683.9428,513,684.9058,513.1305,685.0363,512.0514,683.9572,511.3534,683.2591,510.7018,682.6076,509.7798,681.6855,509,680.9058,509.0161,680.9218,509.7925,680.0982,510.6421,679.3478,511.4564,678.5621,512.338,677.8438,513,676.9058" style="stroke: #B38D22; stroke-width: 1.0;"/><text fill="#A9A9A9" font-family="courier" font-size="15" lengthAdjust="spacingAndGlyphs" textLength="126" x="523" y="685.6938">givetMassage()</text><!--link Scenario to Match--><path d="M1015.92,52.306 L1015.9302,52.3989 L1012.3224,52.5178 L1008.7747,53.181 L1005.2074,53.667 L1001.5758,53.5701 L998.0332,54.2801 L998.0291,54.2458 L994.0142,54.5661 L990.0199,55.0593 L986.0398,55.6727 L982.0105,55.8719 L978.0501,56.6512 L978.0812,56.8953 L973.6391,56.9316 L969.2878,57.6806 L964.9476,58.5165 L960.5429,58.8465 L956.1722,59.4426 L956.1763,59.4726 L951.456,60.0754 L946.7545,60.815 L942.0439,61.4886 L937.3506,62.2882 L932.6009,62.6772 L932.6445,62.9722 L927.6324,63.7161 L922.5922,64.2696 L917.5931,65.1017 L912.596,65.9469 L907.5378,66.3783 L907.4874,66.0618 L902.3144,67.5143 L896.9756,67.9245 L891.7629,69.1271 L886.4204,69.5137 L881.1842,70.5691 L881.1791,70.5391 L875.7514,71.8347 L870.2035,72.4292 L864.7266,73.4373 L859.2556,74.4803 L853.7417,75.2726 L853.7753,75.4545 L848.0754,76.3188 L842.4329,77.494 L836.6975,78.1662 L831.1007,79.5885 L825.4118,80.5121 L825.4595,80.751 L819.6473,81.8656 L813.8588,83.0987 L807.9601,83.7807 L802.1422,84.8667 L796.3958,86.3107 L796.3374,86.0408 L790.4902,87.5613 L784.5771,88.7777 L778.7595,90.4352 L772.779,91.3395 L766.8953,92.6915 L766.8605,92.5431 L760.9618,94.1875 L754.9142,95.1975 L748.9725,96.6586 L743.1344,98.5613 L737.1118,99.6777 L737.1587,99.8656 L734.2039,100.7399 L731.1032,101.0299 L728.1852,102.0518 L725.2274,102.9142 L722.1769,103.4051 L722.124,103.2019 L719.1801,104.1413 L716.2189,105.0142 L713.2918,106.0179 L710.2323,106.5132 L707.2467,107.2925 L707.3006,107.4909 L704.2021,107.865 L701.2077,108.6221 L698.3653,109.9387 L695.243,110.2253 L692.3465,111.3428 L692.4083,111.5604 L689.4026,112.2744 L686.376,112.9147 L683.3966,113.7212 L680.5262,114.9118 L677.5015,115.5589 L677.4636,115.4314 L674.6235,116.6881 L671.5257,117.0774 L668.7208,118.4529 L665.7511,119.2732 L662.7368,119.9438 L662.7692,120.0478 L659.8112,120.8751 L656.969,122.0748 L654.0223,122.9381 L651.0318,123.6608 L648.0777,124.5002 L648.1146,124.6136 L645.1541,125.3914 L642.3649,126.6954 L639.3819,127.4043 L636.4787,128.3579 L633.5492,129.2312 L633.4619,128.9753 L630.6165,130.0424 L627.8765,131.4178 L624.9874,132.357 L622.045,133.1398 L619.1767,134.1395 L619.1284,134.0048 L616.3056,135.0657 L613.3972,135.8879 L610.724,137.3662 L607.9345,138.5199 L604.9852,139.2282 L605.0677,139.4471 L602.2971,140.5716 L599.3697,141.28 L596.6078,142.4275 L593.7363,143.2844 L591,144.5 L591.0491,144.6163 L588.6277,145.6216 L586.2656,146.7673 L583.7153,147.4678 L581.3167,148.5274 L578.925,149.603 " fill="none" style="stroke: #A9A9A9; stroke-width: 2.0; stroke-dasharray: 7.0,7.0;"/><polygon fill="#A9A9A9" points="574.204,151.814,574.2054,151.884,576.1706,151.6368,578.144,151.8001,580.1148,151.8298,582.0768,151.4197,584.0509,151.6183,584.0421,151.594,582.9387,151.0996,581.8798,150.728,580.8517,150.4417,579.7172,149.8613,578.7318,149.6929,578.9053,149.7557,578.9193,148.5576,579.44,147.5428,580.0224,146.5505,580.2452,145.4279,580.6572,144.3738,580.6744,144.3887,579.3585,145.8549,578.1209,147.3889,576.8455,148.8902,575.6421,150.4539,574.204,151.814" style="stroke: #A9A9A9; stroke-width: 2.0;"/><!--link Scenario to SevereReferee--><path d="M1078.84,84.607 L1078.9301,84.6317 L1079.4377,87.3869 L1080.4733,90.2869 L1081.3371,93.1398 L1081.6352,95.8376 L1082.7163,98.75 L1082.6828,98.7413 L1083.3247,101.7166 L1084.1349,104.7361 L1085.0622,107.7863 L1085.5861,110.7307 L1086.675,113.8234 L1086.9138,113.8826 L1087.1694,116.8436 L1088.1222,119.9776 L1089.1601,123.1326 L1089.703,126.1649 L1090.5063,129.2618 L1090.5358,129.2685 L1091.1912,132.3062 L1091.9811,135.3748 L1092.7061,138.4285 L1093.555,141.5105 L1094,144.5 L1094.2917,144.562 L1095.645,150.9152 L1096.81,157.2284 L1098.2505,163.6002 L1099.7039,169.9747 L1100.7483,176.2623 L1100.4342,176.1984 L1102.3593,182.791 L1103.2502,189.1733 L1104.9273,195.7155 L1105.7947,202.093 L1107.3258,208.6055 L1107.2959,208.5996 L1108.9276,215.2118 L1109.8612,221.6875 L1111.2068,228.2437 L1112.5869,234.8066 L1113.7175,241.3209 L1113.8993,241.3551 L1114.954,247.8963 L1116.3193,254.4961 L1117.1821,261.0011 L1118.7945,267.6474 L1119.9084,274.1998 L1120.1481,274.2434 L1121.2979,280.8019 L1122.5666,287.3821 L1123.2823,293.8616 L1124.4034,300.4149 L1125.8836,307.0336 L1125.6116,306.9856 L1127.0067,313.545 L1128.0954,320.0504 L1129.6285,326.6342 L1130.4027,333.0841 L1131.6281,339.6136 L1131.4778,339.5878 L1132.8278,346.0542 L1133.5355,352.4106 L1134.6999,358.8452 L1136.3114,365.3563 L1137.1269,371.7311 L1137.3179,371.7629 L1138.4965,378.074 L1139.081,384.2862 L1140.4097,390.6222 L1141.5762,396.9313 L1142.365,403.1775 L1141.7431,403.0777 L1143.8445,413.1647 L1145.7423,423.219 L1148.0402,433.3375 L1148.7824,443.2064 L1151.0026,453.3125 L1151.9994,463.2222 L1151.2696,463.1103 L1152.5089,472.2281 L1155.4672,481.6094 L1155.2606,490.5055 L1158.2783,499.8959 L1159.2819,508.9775 L1160.4116,518.0785 L1160.0582,518.0264 L1161.3589,527.6094 L1163.8448,537.367 L1164.2588,546.8193 L1166.8484,556.5922 L1167.4817,566.0768 L1167.2385,566.0423 L1168.875,574.0097 L1169.9381,581.8956 L1170.9545,589.7748 L1171.9891,597.6567 L1173.09,605.548 " fill="none" style="stroke: #A9A9A9; stroke-width: 2.0; stroke-dasharray: 7.0,7.0;"/><polygon fill="#A9A9A9" points="1173.8,610.671,1173.8673,610.6903,1174.2107,608.7396,1174.9488,606.9021,1175.5584,605.0278,1175.7453,603.0321,1176.5173,601.2044,1176.4966,601.1888,1175.7221,602.0217,1175.0518,602.9332,1174.454,603.8995,1173.6065,604.6772,1173.1087,605.719,1173.2199,605.8663,1172.0792,604.8696,1171.2632,604.303,1170.4867,603.7888,1169.4798,602.9693,1168.5941,602.3104,1168.6134,602.3225,1169.6263,603.9769,1170.727,605.6861,1171.7853,607.3689,1172.9246,609.1021,1173.8,610.671" style="stroke: #A9A9A9; stroke-width: 2.0;"/><!--link Scenario to PermissiveReferee--><path d="M1069.34,84.82 L1069.4334,84.8225 L1069.2684,89.002 L1069.6508,93.1962 L1069.855,97.3856 L1069.473,101.5593 L1069.9024,105.7547 L1069.8679,105.754 L1069.815,110.6521 L1069.9362,115.5538 L1070.1785,120.458 L1070.0037,125.3535 L1070.413,130.2612 L1070.6591,130.2647 L1070.2104,135.763 L1070.4801,141.2713 L1070.8374,146.7809 L1070.6847,152.2834 L1070.8003,157.7896 L1070.8306,157.7898 L1070.8245,163.7896 L1070.9565,169.7903 L1071.0219,175.7906 L1071.2144,181.7917 L1070.9925,187.7901 L1071.2907,187.7908 L1071.2795,194.1754 L1071.0759,200.5596 L1071.1538,206.9444 L1071.245,213.3292 L1070.918,219.713 L1070.5975,219.709 L1071.1369,226.3759 L1070.621,233.0296 L1070.9075,239.6932 L1070.3677,246.3467 L1070.5051,253.0085 L1070.4746,253.0077 L1070.67,259.8401 L1070.1542,266.6552 L1070.0581,273.4805 L1069.9972,280.3067 L1069.6821,287.1267 L1069.867,287.1337 L1069.4195,294.0049 L1069.2878,300.888 L1068.6451,307.7518 L1068.7647,314.6444 L1068.3775,321.5179 L1068.6208,321.53 L1068.4038,324.953 L1068.3075,328.3819 L1067.6499,331.7829 L1067.4037,335.2043 L1067.5221,338.644 L1067.2465,338.6278 L1067.2955,342.0401 L1067.0339,345.4342 L1067.2229,348.8548 L1066.6425,352.23 L1066.5195,355.6323 L1066.3674,355.6218 L1066.3889,358.9956 L1065.7603,362.3245 L1065.594,365.6853 L1065.8801,369.0774 L1065.3606,372.4138 L1065.5536,372.4293 L1065.4212,375.7412 L1064.6884,379.0049 L1064.7075,382.3289 L1064.5629,385.6398 L1064.0365,388.92 L1063.8274,388.9007 L1063.6944,392.1485 L1063.4929,395.3901 L1063.4259,398.6441 L1062.836,401.8496 L1062.5382,405.0822 L1062.7426,405.104 L1061.9572,408.2059 L1061.5663,411.3499 L1061.7519,414.5555 L1060.8762,417.6478 L1060.8568,420.8314 L1061.0813,420.859 L1060.5732,423.8962 L1059.9892,426.924 L1059.5766,429.9729 L1059.5604,433.0705 L1058.9833,436.0992 L1058.8516,436.0806 L1058.8289,439.0794 L1057.9102,441.9519 L1058.0103,444.968 L1057.5368,447.9032 L1056.9088,450.8167 L1057.0162,450.8341 L1056.4726,453.6397 L1056.3137,456.5077 L1055.8072,459.3194 L1055.1554,462.1075 L1054.6242,464.9152 L1054.7414,464.937 L1054.0666,467.5867 L1053.9358,470.3379 L1053.1898,472.9743 L1052.6968,475.6578 L1052.1207,478.3259 L1051.8564,478.2689 L1051.3984,480.8188 L1051.2587,483.4374 L1050.6686,485.9588 L1049.9169,488.4454 L1049.3893,490.9803 L1049.2504,490.9454 L1048.7013,493.3224 L1047.9062,495.6377 L1047.7871,498.1226 L1047.3335,500.5236 L1046.421,502.8094 L1046.6455,502.8754 L1046.0745,505.0836 L1045.0771,507.1664 L1044.5297,509.3815 L1043.6844,511.5091 L1043.2069,513.7447 L1043.3261,513.7862 L1042.6167,515.7753 L1042.0512,517.8144 L1041.0292,519.6948 L1040.3754,521.7032 L1039.738,523.7174 L1039.917,523.7999 L1038.4194,527.1795 L1036.4359,530.3351 L1035.0169,533.7509 L1033.6078,537.1713 L1032,540.5 L1031.7699,540.3559 L1030.8706,542.5992 L1029.5722,544.5926 L1028.1745,546.5239 L1027.0036,548.5971 L1025.6875,550.5794 L1025.9479,550.7719 L1024.155,552.4186 L1022.9588,554.5063 L1021.5277,556.4204 L1020.0464,558.2973 L1018.5844,560.1886 L1018.6321,560.2292 L1017.0642,562.0494 L1015.2561,563.6649 L1013.7731,565.5574 L1012.1939,567.368 L1010.7914,569.3293 L1010.8118,569.349 L1009.1431,571.0913 L1007.4902,572.8488 L1005.6691,574.4438 L1004.064,576.2476 L1002.4091,578.0033 L1002.3728,577.964 L1000.809,579.8332 L998.9895,581.426 L996.9399,582.7703 L995.2902,584.5467 L993.538,586.2123 L993.3734,586.0156 L991.7684,587.8598 L990.0079,589.5182 L988.1378,591.0456 L986.0064,592.2606 L984.2788,593.9583 L984.4039,594.1222 L982.1691,595.1528 L980.514,596.9429 L978.4699,598.2233 L976.6673,599.8202 L974.7319,601.2429 L974.7932,601.3304 L972.9056,602.7798 L970.6546,603.711 L969.0129,605.511 L966.9902,606.7678 L964.998,608.068 " fill="none" style="stroke: #A9A9A9; stroke-width: 2.0; stroke-dasharray: 7.0,7.0;"/><polygon fill="#A9A9A9" points="960.8,610.849,960.8116,610.9181,962.7195,610.3857,964.6955,610.2583,966.6494,609.999,968.5302,609.306,970.5121,609.2134,970.5069,609.188,969.3751,608.8489,968.2692,608.6378,967.1813,608.5157,966.0313,608.087,964.9684,608.0877,965.1492,608.1244,964.9876,606.9372,965.354,605.8571,965.7849,604.7901,965.8409,603.647,966.094,602.544,966.1132,602.5562,965.0262,604.1993,964.0266,605.898,962.9848,607.5698,962.0234,609.2929,960.8,610.849" style="stroke: #A9A9A9; stroke-width: 2.0;"/><!--link Match to Referee--><path d="M585.849,249.546 L585.8961,249.6267 L592.3204,253.2174 L599.0207,257.2811 L605.6312,261.1908 L611.9461,264.594 L618.6701,268.6983 L618.6525,268.6686 L625.5746,272.6847 L632.5855,276.8507 L639.6581,281.1208 L646.5181,285.032 L653.6759,289.4459 L653.8026,289.6568 L660.7308,293.5295 L668.0289,298.0181 L675.3721,302.5818 L682.4527,306.7083 L689.6715,311.0648 L689.6872,311.0907 L696.8222,315.4059 L704.0289,319.8391 L711.201,324.2153 L718.4391,328.7002 L725.462,332.831 " fill="none" style="stroke: #A9A9A9; stroke-width: 2.0;"/><polygon fill="#222222" points="574.317,242.904,574.3798,242.9351,574.8338,244.1348,575.6559,245.5169,576.3581,246.8396,576.6663,247.967,577.5199,249.3648,577.5182,249.3389,578.9497,249.1286,580.3898,249.0485,581.8358,249.0591,583.2614,248.7575,584.7156,248.8931,584.8809,248.9751,583.8868,247.5077,583.3753,246.2796,582.9228,245.0806,582.1276,243.7118,581.5127,242.4324,581.5142,242.4551,580.0728,242.5161,578.6383,242.6804,577.2005,242.7949,575.7689,243.0045,574.317,242.904" style="stroke: #A9A9A9; stroke-width: 2.0;"/><!--link Referee to Match--><!--link Match to Player--><path d="M453.614,269.66 L453.8494,269.8121 L447.9311,277.4386 L443.3927,285.9566 L438.4049,294.1844 L431.9394,301.4574 L427.4325,309.9958 L421.8229,317.8218 L416.6522,325.9313 L411.7865,334.2379 L405.8696,341.8654 L401.425,350.444 " fill="none" style="stroke: #A9A9A9; stroke-width: 2.0;"/><polygon fill="#A9A9A9" points="460.723,258.656,460.7509,258.7203,459.3449,259.1032,458.1024,259.8629,456.8066,260.4998,455.3359,260.7333,454.1074,261.5254,454.0815,261.525,453.986,262.9654,454.0212,264.4077,454.1471,265.8513,453.9603,267.2903,454.2115,268.7357,454.285,268.905,455.4511,267.9691,456.8316,267.5275,458.2382,267.1462,459.4927,266.414,460.8272,265.8664,460.8499,265.8667,460.7957,264.4241,460.845,262.9831,460.8444,261.5413,460.939,260.1009,460.723,258.656" style="stroke: #A9A9A9; stroke-width: 2.0;"/><!--link Match to Captain--><path d="M406.835,210.833 L406.8461,210.9258 L403.5154,211.0436 L400.2496,211.7052 L396.9626,212.1897 L393.6062,212.092 L390.3459,212.8003 L390.3415,212.766 L386.8964,213.0527 L383.4734,213.5121 L380.0659,214.0916 L376.6051,214.2573 L373.2189,215.0026 L373.2528,215.2463 L369.6636,215.214 L366.1733,215.8933 L362.6952,216.6594 L359.1467,216.9203 L355.6353,217.447 L355.6398,217.477 L352.0613,217.9717 L348.5035,218.6029 L344.9357,219.1683 L341.3869,219.8594 L337.7763,220.1407 L337.8246,220.435 L334.2346,221.0286 L330.6135,221.4324 L327.0379,222.1141 L323.4645,222.8088 L319.8233,223.0908 L319.7666,222.7753 L316.3036,224.0303 L312.6538,224.2465 L309.146,225.2525 L305.4919,225.4451 L301.9578,226.3044 L301.9518,226.2745 L298.5024,227.3246 L294.9148,227.6769 L291.4087,228.4409 L287.9095,229.2394 L284.3609,229.7886 L284.4005,229.9693 L280.9311,230.5393 L277.5295,231.4181 L274.0182,231.7973 L270.6705,232.9217 L267.214,233.5506 L267.272,233.7873 L263.9579,234.5519 L260.6726,235.434 L257.2536,235.7702 L253.9326,236.5066 L250.6985,237.5975 L250.6249,237.3313 L247.551,238.44 L244.3941,239.2488 L241.3575,240.4927 L238.1156,240.9937 L234.9957,241.9363 L234.9498,241.7909 L232.0844,242.9607 L229.023,243.5089 L226.101,244.4991 L223.3154,245.9218 L220.2869,246.5743 L220.3533,246.7562 L217.6922,247.8697 L214.8244,248.4176 L212.2155,249.6741 L209.5502,250.7761 L206.7535,251.5185 L206.6702,251.3257 L204.3012,252.5309 L201.905,253.6729 L199.5623,254.939 L197.0113,255.7228 L194.5767,256.776 L194.6722,256.9581 L192.3347,257.6737 L190.1815,258.7407 L188.2974,260.3211 L185.9178,260.9562 L183.938,262.3541 L184.0629,262.5427 L182.2048,263.6117 L180.3045,264.617 L178.4996,265.7663 L176.9151,267.2486 L175.0187,268.2597 L174.9303,268.1602 L173.7897,269.7043 L172.048,270.5722 L170.9898,272.2089 L169.5468,273.4128 L168,274.5 L168.0815,274.5722 L166.5102,276.2126 L165.2307,278.1115 L163.6876,279.7769 L162.0344,281.3445 L160.4726,282.9933 L160.566,283.0674 L159.0223,284.7279 L157.9122,286.7325 L156.3117,288.3479 L154.913,290.1235 L153.448,291.8464 L153.2277,291.6897 L151.9938,293.5795 L151.0253,295.6583 L149.6813,297.4698 L148.2027,299.1856 L146.9108,301.0342 L146.7901,300.9571 L145.6158,302.8813 L144.2278,304.669 L143.4271,306.8318 L142.3358,308.809 L140.8458,310.5315 L141.0487,310.6479 L139.9921,312.6415 L138.5498,314.414 L137.5145,316.4199 L136.2098,318.2713 L135.2376,320.3133 L135.3499,320.3711 L134.3018,322.3717 L133.3893,324.4421 L132.0469,326.2913 L131.0513,328.3188 L130.0711,330.3544 L130.25,330.437 L129.352,332.5151 L127.9681,334.3691 L127.1487,336.4835 L126.3391,338.6024 L125.3308,340.6297 L125.0799,340.5261 L124.6101,342.7865 L123.7051,344.8672 L122.6919,346.9033 L121.9258,349.0414 L121.0015,351.1141 L121.3054,351.2261 L120.0844,353.1997 L119.5595,355.4299 L118.7605,357.5591 L117.903,359.6666 L117.068,361.7825 L117.1275,361.802 L116.4053,363.9637 L115.3831,366.0269 L114.7668,368.2233 L114.0306,370.3803 L113.5148,372.6097 L113.5421,372.6176 L112.9148,374.8128 L112.3086,377.0142 L111.4778,379.1502 L110.9356,381.3701 L110.3268,383.5707 L110.275,383.5574 L110.0075,385.8483 L109.3752,388.0456 L108.4148,390.1588 L108.0248,392.4183 L107.4886,394.6402 L107.2383,394.5841 L107.1129,396.8989 L106.751,399.1607 L106.2225,401.3851 L105.2968,403.5203 L104.9849,405.7933 L105.1873,405.8328 L104.224,407.9725 L104.1985,410.2949 L103.5437,412.4948 L103.2796,414.7707 L102.8005,417.0048 L102.9059,417.0224 L102.6314,419.2883 L101.7327,421.4499 L101.8807,423.7865 L101.3742,426.0136 L100.92,428.2495 L101.0764,428.2716 L100.9308,430.5466 L100.2857,432.751 L100.0421,435.0121 L99.7405,437.2651 L99.3282,439.5024 L99.4153,439.5126 L99.0642,441.7495 L99.1146,444.0335 L98.268,446.2123 L98.523,448.5204 L98.0098,450.7383 L97.7337,450.7121 L97.5587,452.9544 L97.6034,455.2175 L97.3861,457.4557 L96.9434,459.6727 L96.9494,461.9321 L97.1328,461.9456 L96.8342,464.1609 L96.9445,466.4064 L96.7546,468.6298 L96.0967,470.8188 L96.1319,473.0587 L95.9553,473.0492 L95.9565,475.2625 L96.0536,477.4808 L95.9566,479.6888 L95.7934,481.8933 L95.5418,484.093 L95.3899,484.0877 L95.7488,486.2861 L95.6721,488.4694 L95.294,490.6423 L95.1333,492.8227 L95.1639,495.0098 L94.9855,495.0068 L95.0323,497.163 L95.1525,499.3205 L95.0249,501.4738 L94.8334,503.6261 L94.9829,505.7841 L95.1995,505.7841 L94.779,507.9054 L95.2064,510.0267 L95.1732,512.148 L95.1487,514.2693 L94.9835,516.3907 L95.2913,516.3956 L94.9076,518.4717 L94.9167,520.554 L95.3143,522.6426 L94.8518,524.7174 L95.1505,526.8045 L95.0465,526.8005 L95.3561,530.8362 L95.4897,534.8651 L95.4543,538.8876 L95.7487,542.9227 L95.9222,546.9532 L96.2524,546.9749 L96.4605,550.7873 L96.1591,554.5663 L96.7091,558.4012 L96.697,562.1991 L97.1757,566.0293 L97.164,566.0283 L97.6279,569.6016 L98.0067,573.1672 L97.8492,576.6842 L98.6433,580.2874 L98.7886,583.8319 L98.7923,583.8323 L98.9133,587.0697 L99.3206,590.3396 L100.0428,593.6451 L100.3789,596.9069 L100.6386,600.16 " fill="none" style="stroke: #A9A9A9; stroke-width: 2.0;"/><polygon fill="#A9A9A9" points="419.774,209.387,419.8061,209.4493,418.4292,208.6026,417.2406,208.1208,415.9908,207.5202,414.5391,206.5288,413.3667,206.0784,413.35,206.0586,412.1715,206.898,411.0771,207.8373,410.041,208.8461,408.8036,209.6155,407.8483,210.7203,407.933,210.8843,409.0334,211.1953,410.381,211.9851,411.7587,212.8334,412.961,213.3418,414.2556,214.0289,414.2702,214.0463,415.3524,213.0924,416.5013,212.2177,417.6179,211.3048,418.796,210.4648,419.774,209.387" style="stroke: #A9A9A9; stroke-width: 2.0;"/><!--link Match to Coach--><path d="M504.027,271.705 L504.1203,271.71 L503.9889,274.4407 L504.4043,277.2005 L504.6416,279.9508 L504.2934,282.67 L504.7557,285.4323 L504.7212,285.431 L504.676,288.3423 L504.8048,291.2602 L505.0545,294.1827 L504.8874,297.0894 L505.3041,300.0181 L505.5501,300.0233 L505.0884,303.0819 L505.3448,306.1555 L505.6889,309.231 L505.5232,312.2958 L505.6256,315.3662 L505.6559,315.3663 L505.621,318.5691 L505.7242,321.7722 L505.7608,324.9751 L505.9244,328.1784 L505.6737,331.3805 L505.9719,331.3854 L505.9212,334.7023 L505.6782,338.016 L505.7167,341.3344 L505.7684,344.653 L505.4019,347.9647 L505.0816,347.9527 L505.5757,351.3876 L505.015,354.783 L505.2561,358.2084 L504.6715,361.6029 L504.7638,365.0227 L504.7334,365.0209 L504.8826,368.5296 L504.3217,371.9956 L504.1798,375.4869 L504.0731,378.9802 L503.7127,382.4583 L503.897,382.474 L503.4089,386.0015 L503.2357,389.5559 L502.5529,393.0668 L502.6303,396.6426 L502.2023,400.1753 L502.4444,400.2025 L501.9953,403.7778 L501.6665,407.3666 L500.7791,410.8925 L500.3011,414.4646 L500.1859,418.0775 L499.9125,418.0384 L499.6462,421.672 L499.0719,425.2616 L498.9444,428.915 L498.054,432.4595 L497.6171,436.0687 L497.467,436.0423 L497.0835,439.6831 L496.0582,443.2109 L495.4893,446.8192 L495.3671,450.506 L494.4495,454.0528 L494.6388,454.0932 L494.0061,457.6971 L492.7844,461.1753 L492.3004,464.8109 L491.6557,468.4122 L490.6364,471.9336 L490.4329,471.8818 L489.6941,475.4594 L488.8887,479.02 L488.2141,482.6139 L487.0306,486.0782 L486.1314,489.6149 L486.3283,489.6743 L484.8471,493.021 L483.7459,496.4823 L483.1997,500.1109 L481.6316,503.4314 L480.888,507.0005 L481.1012,507.0762 L479.7689,510.43 L478.3645,513.7582 L477.1229,517.1442 L476.2575,520.6637 L474.8597,523.9943 L474.7369,523.9432 L473.7307,527.3964 L471.889,530.5023 L470.9973,534.003 L469.5707,537.2815 L468,540.5 L468.0976,540.5482 L467.0451,542.4805 L466.3421,544.5853 L465.3233,546.5343 L464.1726,548.418 L463.1314,550.3558 L463.2345,550.4156 L461.9658,552.2489 L461.1757,554.3599 L459.8442,556.1567 L458.7355,558.0828 L457.5536,559.9664 L457.3281,559.8172 L456.1675,561.734 L455.2784,563.8307 L454.005,565.6729 L452.5939,567.424 L451.3738,569.3015 L451.2587,569.2164 L449.9607,571.0495 L448.4588,572.7319 L447.5174,574.8286 L446.2986,576.7203 L444.6994,578.3308 L444.881,578.4783 L443.5267,580.2641 L441.8275,581.7696 L440.4923,583.5709 L438.9162,585.1765 L437.6375,587.0237 L437.7322,587.1072 L436.2514,588.7615 L434.8848,590.5166 L433.1557,591.9519 L431.7191,593.6452 L430.2955,595.3499 L430.4385,595.4855 L428.9755,597.1092 L427.1242,598.3649 L425.724,600.0482 L424.3317,601.739 L422.7806,603.2792 L422.5896,603.0862 L421.3749,604.8912 L419.829,606.3614 L418.2007,607.7484 L416.7606,609.3256 L415.2,610.781 " fill="none" style="stroke: #A9A9A9; stroke-width: 2.0;"/><polygon fill="#A9A9A9" points="503.136,258.551,503.1968,258.5858,502.2991,259.7337,501.7578,261.0857,501.1004,262.3712,500.0614,263.4381,499.5506,264.8076,499.5301,264.7918,500.3172,265.8641,501.2079,267.0161,502.1705,268.2233,502.8851,269.2399,503.947,270.5236,504.1071,270.6153,504.4818,269.1678,505.324,267.9881,506.2231,266.8412,506.7905,265.5041,507.5324,264.2669,507.5504,264.2808,506.6446,263.1173,505.821,262.0168,504.9577,260.886,504.17,259.8132,503.136,258.551" style="stroke: #A9A9A9; stroke-width: 2.0;"/><!--link Match to Physiotherapist--><path d="M528.891,271.037 L528.98,271.0655 L528.9374,271.6734 L529.4164,272.4484 L529.7256,273.169 L529.4762,273.7107 L530,274.5 L529.9669,274.49 L530.522,276.7701 L531.2436,279.1006 L532.0812,281.4661 L532.5194,283.7109 L533.5169,286.1248 L533.7533,286.1931 L533.9279,288.4026 L534.7927,290.8114 L535.7417,293.2445 L536.2008,295.5362 L536.9175,297.9022 L536.9468,297.9101 L538.1955,302.6845 L539.5775,307.4948 L540.8953,312.2877 L542.3357,317.1138 L543.3761,321.8318 L543.6656,321.9035 L544.8716,326.7626 L545.8909,331.5755 L547.1836,336.4561 L548.4891,341.3398 L549.3886,346.1231 L549.0761,346.0519 L550.7985,351.0875 L551.4918,355.8887 L552.9675,360.8681 L553.6375,365.664 L554.9679,370.6103 L554.9381,370.604 L556.3222,375.5816 L557.0103,380.4128 L558.109,385.3304 L559.2423,390.2552 L560.1268,395.1277 L560.3084,395.1631 L561.0754,400.0037 L562.1527,404.9049 L562.7279,409.7082 L564.052,414.6574 L564.8782,419.5096 L565.118,419.5529 L565.944,424.3609 L566.889,429.1903 L567.281,433.9197 L568.0784,438.7225 L569.235,443.5902 L568.9626,443.5444 L570.0041,448.3086 L570.7388,453.0212 L571.9186,457.8087 L572.3383,462.4683 L573.2099,467.2039 L573.0592,467.1802 L574.0313,471.8158 L574.3595,476.3503 L575.1455,480.9567 L576.3796,485.6334 L576.8158,490.1849 L577.0074,490.2129 L577.7888,494.6687 L577.9743,499.0372 L578.9061,503.515 L579.6753,507.969 L580.0657,512.3675 L579.8577,512.339 L580.6048,516.6054 L581.2838,520.8624 L582.0966,525.1378 L582.3891,529.342 L582.9723,533.5859 L583.1762,533.6121 L583.2434,537.5723 L583.7042,541.5831 L584.74,545.6675 L584.7171,549.6163 L585.5484,553.6745 L585.7731,553.7007 L586.4821,560.9101 L587.1152,568.1106 L587.9198,575.3312 L589.1209,582.598 L589.7609,589.7993 L589.6286,589.7857 L590.6316,595.7495 L590.7346,601.6208 L591.8609,607.5974 L592.4111,613.5147 L592.806,619.416 " fill="none" style="stroke: #A9A9A9; stroke-width: 2.0;"/><polygon fill="#A9A9A9" points="524.359,258.555,524.4271,258.5716,523.8823,259.9231,523.7365,261.3722,523.4608,262.7895,522.7578,264.1023,522.6463,265.5598,522.6309,265.5389,523.7234,266.3003,524.8934,267.1669,526.1171,268.1065,527.1554,268.7943,528.4535,269.8349,528.6327,269.8787,528.5919,268.384,529.0745,267.0173,529.621,265.6662,529.7959,264.2243,530.1662,262.8301,530.1797,262.8484,528.9984,261.9665,527.8786,261.168,526.7291,260.3292,525.6362,259.5672,524.359,258.555" style="stroke: #A9A9A9; stroke-width: 2.0;"/><!--link Referee to Player--><path d="M725.419,429.5 L725.419,429.7802 L715.4291,428.9476 L705.4393,429.7577 L695.4494,430.0329 L685.4596,428.5488 L675.4697,429.3964 L665.4799,428.9313 L655.49,428.9887 L645.5002,429.4091 L635.5103,428.5782 L625.5205,430.2382 L615.5306,428.6596 L605.5408,429.2363 L595.5509,430.0759 L585.5611,429.3856 L575.5712,429.591 L565.5814,429.4574 L555.5915,429.738 L545.6017,429.8188 L535.6118,430.2809 L525.622,430.3947 L515.6321,430.4057 L505.6423,429.8395 L495.6524,430.1181 L485.6626,430.4363 L475.6727,428.5384 L465.6829,430.4047 L455.693,429.5 " fill="none" style="stroke: #A9A9A9; stroke-width: 2.0;"/><polygon fill="#A9A9A9" points="450.593,429.5,450.6215,429.564,452.3369,430.1738,454.2192,431.1589,456.0471,432.0217,457.6964,432.4827,459.593,433.5,459.5747,433.4817,458.6925,432.5995,457.9026,431.8096,457.1769,431.0839,456.23,430.137,455.593,429.5,455.7235,429.6305,456.2444,428.5514,457.1464,427.8534,458.0948,427.2018,458.7728,426.2798,459.593,425.5,459.6022,425.5208,457.7887,426.2903,456.0172,427.1544,454.2254,427.9728,452.4723,428.8784,450.593,429.5" style="stroke: #A9A9A9; stroke-width: 2.0;"/><!--link Player to Referee--><path d="M450.593,429.5 L450.593,429.7802 L460.5829,428.9476 L470.5728,429.7577 L480.5627,430.0329 L490.5526,428.5488 L500.5424,429.3964 L510.5323,428.9313 L520.5222,428.9887 L530.5121,429.4091 L540.502,428.5782 L550.4919,430.2382 L560.4818,428.6596 L570.4717,429.2363 L580.4616,430.0759 L590.4514,429.3856 L600.4413,429.591 L610.4312,429.4574 L620.4211,429.738 L630.411,429.8188 L640.4009,430.2809 L650.3908,430.3947 L660.3807,430.4057 L670.3706,429.8395 L680.3604,430.1181 L690.3503,430.4363 L700.3402,428.5384 L710.3301,430.4047 L720.32,429.5 " fill="none" style="stroke: #A9A9A9; stroke-width: 2.0;"/><polygon fill="#A9A9A9" points="725.419,429.5,725.4475,429.564,723.5629,428.5738,721.8452,427.9589,720.0731,427.2217,718.1224,426.0827,716.419,425.5,716.4007,425.4817,717.1185,426.1995,717.9286,427.0096,718.8029,427.8839,719.456,428.537,720.419,429.5,720.5495,429.6305,719.4704,430.1514,718.7724,431.0534,718.1208,432.0018,717.1988,432.6798,716.419,433.5,716.4282,433.5208,718.2147,432.6903,720.0432,431.9544,721.8514,431.1728,723.6983,430.4784,725.419,429.5" style="stroke: #A9A9A9; stroke-width: 2.0;"/><!--link Referee to Captain--><path d="M725.035,466.767 L725.1081,467.0375 L715.3747,468.8064 L706.07,472.1611 L696.6257,474.9995 L686.7222,476.1395 L677.4273,479.5304 L667.7898,481.6541 L658.2886,484.2821 L648.8822,487.2607 L639.1492,489.0312 L630.0663,493.2064 L620.1382,494.2552 L610.7726,497.3846 L601.4756,500.7678 L591.8091,502.7845 L591.7794,502.6741 L581.6915,505.6046 L571.5154,508.2078 L561.447,511.211 L551.3267,514.0212 L541.3056,517.1996 L531.1939,520.0417 L520.8198,521.91 L521.0528,522.7852 L510.9329,524.8938 L501.0303,527.8187 L491.1379,530.7819 L480.6754,531.6036 L471.1813,536.0628 L460.8725,537.4623 L451,540.5 L451.0591,540.7298 L447.2465,541.2386 L443.5951,542.3739 L439.9861,543.6743 L436.2,544.2858 L432.5067,545.2585 L432.5178,545.304 L429.1442,546.2343 L425.7542,547.0973 L422.3118,547.7454 L418.9443,548.7007 L415.5159,549.4062 L415.4585,549.1583 L412.4051,550.2566 L409.2923,551.0981 L406.1426,551.7806 L403.0202,552.5808 L399.8194,553.0427 L399.7731,552.833 L396.8348,553.4047 L393.9157,554.063 L391.0475,554.9522 L388.1122,555.5375 L385.2089,556.2678 L385.271,556.5642 L379.8338,557.3147 L374.4593,558.3644 L369.1522,559.7359 L363.7114,560.4695 L358.413,561.8825 L358.3662,561.6566 L353.4813,563.1981 L348.4719,564.1384 L343.5086,565.3015 L338.4232,565.875 L333.462,567.0481 L333.492,567.1868 L331.0567,567.8373 L328.4959,567.9084 L326.0704,568.6047 L323.6304,569.2338 L321.1577,569.7118 L321.2223,569.9942 L318.6637,570.2801 L316.2164,571.0524 L313.6222,571.1822 L311.1164,571.6988 L308.6899,572.5624 L308.743,572.7798 L306.0463,572.8802 L303.6077,574.0369 L301.0079,574.5338 L298.3899,574.9564 L295.8503,575.6995 L295.8103,575.5474 L293.2181,576.6014 L290.4486,576.9802 L287.8652,578.068 L285.0521,578.2806 L282.4306,579.2229 L282.5051,579.487 L279.6474,580.232 L276.7769,580.9315 L273.9115,581.6488 L271.1519,582.7413 L268.2226,583.2324 L268.3014,583.4934 L265.2034,584.2234 L262.1752,585.1845 L259.083,585.9341 L256.151,587.2133 L253.018,587.8276 L253.039,587.8931 L249.7596,588.9567 L246.3714,589.6824 L243.1171,590.8245 L239.9627,592.2766 L236.6085,593.1082 L236.6701,593.289 L233.0379,594.3033 L229.4334,595.399 L225.8837,596.6556 L222.2522,597.6721 L218.786,599.174 " fill="none" style="stroke: #A9A9A9; stroke-width: 2.0;"/><polygon fill="#A9A9A9" points="214.01,600.851,214.0156,600.9208,215.9623,600.8715,217.942,601.2316,219.9109,601.4583,221.8445,601.2467,223.8271,601.6419,223.8158,601.6185,222.7456,601.0241,221.7319,600.5474,220.7574,600.1525,219.6476,599.4756,218.7274,599.1938,218.8937,599.2736,219.0276,598.0829,219.6472,597.1254,220.326,596.1963,220.6601,595.1017,221.1755,594.0941,221.1911,594.1106,219.7351,595.4377,218.3501,596.8402,216.9309,598.2062,215.577,599.6417,214.01,600.851" style="stroke: #A9A9A9; stroke-width: 2.0;"/><!--link Captain to Referee--><path d="M214.01,614.612 L214.0454,614.6985 L217.5623,612.9598 L221.2866,611.728 L224.9433,610.3311 L228.378,608.3914 L232.1201,607.2031 L232.108,607.1708 L235.6296,605.685 L239.2122,604.3623 L242.8374,603.1529 L246.3162,601.5529 L250,600.5 L250.0802,600.7326 L253.5721,598.9727 L257.2981,597.892 L261.0527,596.8941 L264.6411,595.4141 L268.3169,594.1877 L268.3263,594.2166 L271.6784,593.0772 L275.0732,592.0691 L278.4474,590.9977 L281.861,590.0471 L285.1461,588.7025 L285.2334,588.9877 L288.3462,588.0388 L291.4026,586.9059 L294.5415,586.0423 L297.6842,585.1913 L300.7045,583.9404 L300.6165,583.6322 L303.6882,583.4018 L306.4701,582.1565 L309.4724,581.6827 L312.2477,580.4144 L315.209,579.7974 L315.2012,579.768 L318.027,579.3903 L320.6704,578.3252 L323.4214,577.6658 L326.1815,577.0404 L328.8764,576.1693 L328.9206,576.3489 L331.4854,575.5242 L334.1258,575.0064 L336.6438,573.9921 L339.3444,573.7184 L341.9236,572.9523 L341.9782,573.1897 L344.4967,572.5628 L347.0423,572.0537 L349.4618,570.997 L351.9737,570.3417 L354.5675,570.0422 L354.5088,569.7723 L357.0534,569.4752 L359.5319,568.8739 L362.1063,568.7138 L364.517,567.8006 L367.025,567.335 L366.9941,567.1857 L372.0902,566.39 L377.0542,564.9561 L382.1122,563.9761 L387.2621,563.4401 L392.2483,562.1134 L392.2879,562.3029 L397.7311,561.3013 L403.0511,559.7101 L408.5255,558.8573 L413.9662,557.8436 L419.3285,556.4551 L419.2834,556.2501 L422.2751,555.7629 L425.252,555.2086 L428.258,554.7863 L431.1511,553.851 L434.1072,553.2022 L434.1535,553.4025 L437.2305,552.2276 L440.3968,551.4393 L443.6937,551.2158 L446.7503,549.9525 L450.0007,549.5281 L450.0543,549.7478 L453.4676,548.7774 L456.8627,547.7326 L460.2987,546.8557 L463.8293,546.3667 L467.2261,545.3287 L467.1929,545.1998 L471.0464,544.6177 L474.6744,543.1593 L478.5588,542.6972 L482.2988,541.6742 L486,540.5 L486.084,540.8156 L495.9058,537.9286 L506.0284,536.1718 L515.8793,533.3939 L525.6165,530.1892 L535.54,527.6845 L545.3377,524.7067 L545.2924,524.539 L555.6286,522.9146 L565.4749,519.4775 L575.5227,516.786 L585.2927,513.0666 L595.405,510.6138 L605.5876,508.4211 L605.7748,509.1036 L615.5719,506.2766 L625.2379,502.9717 L634.9721,499.9155 L644.8412,497.3512 L654.5091,494.0533 L664.5838,492.2385 L664.7322,492.7712 L674.1111,490.6076 L683.2976,487.7531 L692.6206,485.3888 L701.5857,481.7399 L710.9285,479.4468 L720.16,476.754 " fill="none" style="stroke: #A9A9A9; stroke-width: 2.0;"/><polygon fill="#A9A9A9" points="725.235,475.326,725.2451,475.3953,723.2658,474.9066,721.3455,474.8244,719.406,474.6098,717.4033,473.96,715.4881,473.9126,715.4754,473.89,716.4053,474.3421,717.399,474.9081,718.4372,475.5532,719.3223,475.9255,720.4218,476.68,720.5828,476.7703,719.6851,477.5639,719.2574,478.6212,718.887,479.7107,718.183,480.613,717.6544,481.6137,717.669,481.6312,719.1638,480.348,720.7247,479.1444,722.2537,477.9024,723.8435,476.7338,725.235,475.326" style="stroke: #A9A9A9; stroke-width: 2.0;"/><!--link Referee to Coach--><path d="M725.342,514.662 L725.3866,514.7441 L722.6943,515.8905 L720.2634,517.5181 L717.7474,518.989 L714.9515,519.9446 L712.5431,521.6135 L712.5272,521.5828 L709.8827,522.7805 L707.3184,524.1327 L704.8099,525.5924 L702.1093,526.6818 L699.6778,528.2897 L699.7862,528.5106 L696.9805,529.3027 L694.4915,530.7396 L692.0412,532.2552 L689.366,533.313 L686.8091,534.6116 L686.8217,534.6392 L684.2413,535.7764 L681.7186,537.0391 L679.168,538.2412 L676.6705,539.5588 L674,540.5 L674.1166,540.7745 L670.9638,542.1179 L667.7357,543.2842 L664.6177,544.7097 L661.5049,546.1473 L658.2286,547.2001 L658.1126,546.9013 L655.4212,548.6129 L652.3481,549.3406 L649.5651,550.8162 L646.4833,551.5216 L643.6465,552.8584 L643.6364,552.8297 L641.0422,554.1205 L638.2126,554.7401 L635.5219,555.7558 L632.8429,556.8048 L630.0798,557.6138 L630.1352,557.7903 L627.5343,558.4105 L625.028,559.3322 L622.3686,559.766 L619.9376,560.9277 L617.3547,561.6054 L617.4202,561.84 L614.9963,562.469 L612.605,563.2144 L610.0625,563.4185 L607.6308,564.0195 L605.2973,564.972 L605.2305,564.704 L602.9782,565.5227 L600.6507,566.0395 L598.4323,566.9942 L596.0276,567.2012 L593.7336,567.8526 L593.7001,567.7039 L591.5072,568.4583 L589.171,568.5769 L586.9367,569.1477 L584.802,570.1609 L582.4899,570.3862 L582.5296,570.5757 L580.3373,571.1708 L578.0214,571.1765 L575.8603,571.9204 L573.6655,572.5035 L571.3921,572.7118 L571.3501,572.506 L566.893,573.5865 L562.4221,574.5997 L557.9782,575.7452 L553.4293,576.3761 L548.9391,577.2944 L548.9826,577.4953 L546.5464,577.5609 L544.1942,578.0143 L541.9647,579.0342 L539.5092,579.011 L537.2361,579.8295 L537.2879,580.0497 L534.8066,580.4954 L532.3078,580.8667 L529.8485,581.4061 L527.4807,582.3342 L524.9835,582.7123 L524.95,582.5835 L522.4544,583.6408 L519.7313,583.8223 L517.2668,584.9995 L514.6568,585.6162 L512.0075,586.0817 L512.0376,586.1864 L509.2386,586.9009 L506.5475,587.9901 L503.7589,588.7409 L500.9296,589.3502 L498.1341,590.0769 L498.1703,590.1905 L495.1277,590.9737 L492.253,592.2842 L489.1883,592.9983 L486.2018,593.9578 L483.1896,594.8367 L483.1003,594.5815 L479.8922,595.7993 L476.7917,597.3247 L473.5389,598.415 L470.2316,599.3493 L467,600.5 L466.9497,600.366 L464.8078,601.2193 L462.5769,601.8353 L460.591,603.1037 L458.4838,604.0492 L456.2103,604.5519 L456.2961,604.7695 L454.1432,605.6998 L451.827,606.2166 L449.6831,607.1698 L447.4252,607.8341 L445.308,608.855 " fill="none" style="stroke: #A9A9A9; stroke-width: 2.0;"/><polygon fill="#A9A9A9" points="440.275,610.907,440.2772,610.977,442.2395,610.8304,444.2146,611.0943,446.1856,611.2245,448.1428,610.915,450.1191,611.2142,450.109,611.1903,449.0211,610.6442,447.9839,610.2186,446.9819,609.8766,445.8585,609.2463,444.9052,609.0198,445.0753,609.0914,445.1504,607.8955,445.7222,606.9087,446.3545,605.9473,446.6343,604.8376,447.0995,603.8059,447.1159,603.8216,445.7269,605.2187,444.4126,606.6876,443.0623,608.1218,441.7807,609.6221,440.275,610.907" style="stroke: #A9A9A9; stroke-width: 2.0;"/><!--link Coach to Referee--><path d="M466.787,614.339 L466.8221,614.4256 L470.2675,612.7304 L473.9186,611.5427 L477.5026,610.1897 L480.8666,608.2932 L484.5353,607.1491 L484.523,607.1168 L487.9608,605.6422 L491.4605,604.3302 L495.0033,603.1313 L498.3977,601.5427 L502,600.5 L502.0812,600.7323 L505.1454,599.1029 L508.4468,598.1517 L511.7772,597.2832 L514.9391,595.9333 L518.1896,594.8367 L518.1988,594.8656 L521.1742,593.8712 L524.1915,593.0084 L527.1886,592.0821 L530.2242,591.2769 L533.1341,590.0769 L533.2167,590.3635 L535.9924,589.568 L538.7148,588.5876 L541.5152,587.8778 L544.3192,587.1807 L547.0075,586.0817 L546.9269,585.7715 L549.6785,585.6997 L552.1648,584.6064 L554.8527,584.2897 L557.333,583.1732 L559.9835,582.7123 L559.9765,582.6826 L562.5095,582.4565 L564.8796,581.538 L567.3458,581.0281 L569.82,580.5525 L572.2361,579.8295 L572.2752,580.0103 L574.5763,579.3208 L576.9443,578.9402 L579.204,578.0598 L581.6253,577.925 L583.9391,577.2944 L583.9878,577.5331 L588.4692,576.5715 L592.9748,575.7283 L597.368,574.3345 L601.8436,573.3443 L606.3921,572.7118 L606.3355,572.4414 L608.6063,572.221 L610.8133,571.696 L613.1129,571.6128 L615.2544,570.7753 L617.4899,570.3862 L617.4564,570.2375 L619.7609,569.9785 L621.9222,569.0837 L624.1854,568.641 L626.5483,568.6407 L628.7336,567.8526 L628.7804,568.0405 L631.1253,567.5933 L633.3245,566.5616 L635.7061,566.2619 L638.048,565.8027 L640.2973,564.972 L640.2408,564.7698 L642.6973,564.2576 L645.1353,563.6793 L647.6096,563.231 L649.9427,562.2769 L652.3547,561.6054 L652.4162,561.8015 L654.8261,560.5722 L657.3547,559.7215 L660.0568,559.424 L662.4394,558.1081 L665.0798,557.6138 L665.1546,557.8273 L667.8235,556.7494 L670.4671,555.5993 L673.1678,554.6122 L676.0006,554.0019 L678.6465,552.8584 L678.5983,552.7344 L681.658,551.972 L684.3904,550.366 L687.495,549.7192 L690.39,548.5324 L693.2286,547.2001 L693.2711,547.3003 L696.3911,545.8794 L699.6634,544.8173 L702.7981,543.431 L705.8751,541.9093 L709,540.5 L709.0497,540.6084 L711.3215,539.3722 L713.8239,538.6391 L716.0655,537.337 L718.4144,536.2689 L720.728,535.124 " fill="none" style="stroke: #A9A9A9; stroke-width: 2.0;"/><polygon fill="#A9A9A9" points="725.33,532.916,725.332,532.986,723.3571,532.8349,721.394,533.0944,719.427,533.2201,717.4473,532.9063,715.4853,533.2009,715.4767,533.1765,716.5054,533.4422,717.5774,533.8312,718.6795,534.3058,719.6779,534.4852,720.8216,535.078,720.9957,535.1393,720.248,536.0756,720.0086,537.1907,719.8312,538.3276,719.293,539.3376,718.9445,540.4144,718.9618,540.4291,720.2135,538.9078,721.544,537.4536,722.8365,535.967,724.2015,534.5423,725.33,532.916" style="stroke: #A9A9A9; stroke-width: 2.0;"/><!--link Referee to Physiotherapist--><path d="M736.612,540.521 L736.7903,540.7372 L728.6415,546.3791 L721.538,553.2883 L714.0941,559.7849 L705.5308,564.9242 L698.4511,571.8623 L690.5362,577.7878 L682.9536,584.1163 L675.6022,590.7249 L667.4544,596.3681 L660.8917,603.933 L652.2683,608.9994 L645.184,615.932 " fill="none" style="stroke: #A9A9A9; stroke-width: 2.0;"/><polygon fill="#A9A9A9" points="641.108,619.294,641.1268,619.3615,642.9686,618.6328,644.9205,618.2997,646.8366,617.8378,648.6348,616.9522,650.5962,616.6531,650.5937,616.6273,649.4564,616.4035,648.3316,616.3096,647.2154,616.3061,646.0694,615.9912,644.9652,616.1125,645.1489,616.1301,644.8642,614.9662,645.1158,613.8538,645.4329,612.7477,645.3692,611.605,645.5058,610.4815,645.5262,610.4917,644.6167,612.2393,643.7999,614.0331,642.9384,615.8046,642.1622,617.6187,641.108,619.294" style="stroke: #A9A9A9; stroke-width: 2.0;"/><!--link Referee to SevereReferee--><path d="M1031.11,547.953 L1031.2751,548.1794 L1038.6264,553.224 L1046.9455,559.596 L1054.9494,565.5357 L1061.9169,570.0539 L1070.258,576.4561 L1077.8259,581.7977 L1085.7015,587.5614 L1093.791,593.6185 L1101.1433,598.6644 L1109.9631,605.7231 L1117.37,610.844 " fill="none" style="stroke: #A9A9A9; stroke-width: 2.0;"/><polygon fill="none" points="1026.6,553.329,1026.6577,553.3688,1024.0784,549.7629,1021.837,546.3904,1019.4856,542.9419,1016.7723,539.2435,1014.56,535.891,1014.5525,535.8662,1018.5769,536.9801,1022.6391,538.219,1026.7274,539.5449,1030.7254,540.5712,1034.85,542.017,1034.9991,542.1257,1033.0303,544.1556,1031.4967,546.503,1030.0163,548.889,1028.2269,551.0498,1026.6,553.329" style="stroke: #A9A9A9; stroke-width: 2.0;"/><!--link Referee to PermissiveReferee--><path d="M867.123,560.529 L867.4032,560.5352 L866.3487,570.5578 L866.9367,580.6167 L866.9898,590.6638 L865.284,600.672 L866.013,610.734 " fill="none" style="stroke: #A9A9A9; stroke-width: 2.0;"/><polygon fill="none" points="860.125,560.361,860.1906,560.3856,861.4839,556.3445,863.1617,552.4476,864.7143,548.5038,865.8551,544.4055,867.566,540.521,867.5414,540.513,868.742,544.507,870.0668,548.5414,871.478,552.604,872.5917,556.5697,874.122,560.671,874.1261,560.8555,871.3179,560.399,868.5217,560.4811,865.727,560.6289,862.9238,560.3944,860.125,560.361" style="stroke: #A9A9A9; stroke-width: 2.0;"/><!--link Player to Captain--><path d="M240.591,522.27 L240.6546,522.3384 L236.1425,526.1514 L232.0032,530.3655 L227.7425,534.4491 L223.0827,538.1029 L218.9754,542.3515 L218.9516,542.3264 L214.5874,546.2365 L210.3428,550.2732 L206.1813,554.3979 L201.7333,558.2194 L197.6866,562.4655 L197.8572,562.6428 L193.4224,566.1782 L189.4856,570.2314 L185.6095,574.3478 L181.38,578.0966 L177.3363,582.0387 L177.3576,582.0604 L173.5663,585.7204 L169.8718,589.479 L166.1306,593.1901 L162.4784,596.9919 L158.536,600.498 " fill="none" style="stroke: #A9A9A9; stroke-width: 2.0;"/><polygon fill="none" points="236.052,516.935,236.0796,516.9994,239.8934,515.1396,243.869,513.6574,247.7918,512.0523,251.5416,510.0428,255.531,508.593,255.5082,508.5807,253.4008,512.2593,251.4084,515.9997,249.496,519.7831,247.308,523.4184,245.506,527.261,245.6421,527.3856,243.4602,525.0539,241.6758,523.0861,239.9398,521.1626,237.9217,518.9809,236.052,516.935" style="stroke: #A9A9A9; stroke-width: 2.0;"/><!--link Player to Captain--><!--link TeamMember to Referee--><path d="M703.35,237.317 L703.5613,237.5011 L709.6549,244.6648 L716.9869,252.9079 L723.9156,260.7996 L729.5182,267.5352 L736.8784,275.8029 L743.2491,283.2081 L750.0136,290.9566 L757.0519,298.9437 L763.1468,306.1085 L770.563,314.425 " fill="none" style="stroke: #A9A9A9; stroke-width: 2.0;"/><polygon fill="#A9A9A9" points="773.864,318.212,773.931,318.2326,773.1525,316.2888,772.7666,314.4658,772.2528,312.6034,771.3187,310.6116,770.9665,308.799,770.9406,308.7972,770.7472,309.918,770.6839,311.0477,770.7113,312.1836,770.4266,313.2981,770.579,314.4426,770.5916,314.6267,769.4359,314.1555,768.317,314.2218,767.2027,314.3537,766.0622,314.104,764.9354,314.0551,764.945,314.0757,766.7166,314.8768,768.532,315.7718,770.3262,316.6215,772.1607,317.5576,773.864,318.212" style="stroke: #A9A9A9; stroke-width: 2.0;"/><!--link TeamMember to Player--><path d="M607.28,248.626 L607.441,248.8554 L598.714,253.9633 L590.9308,260.4158 L582.8403,266.4305 L573.739,271.0051 L565.9773,277.4883 L557.4615,282.8971 L549.2458,288.7334 L541.2387,294.867 L532.5127,299.9763 L525.2178,307.1244 L516.0623,311.6218 L508.1449,317.8832 L500.3787,324.3599 L491.7335,329.5843 L483.6028,335.5418 L475.2774,341.2219 L467.19,347.241 L458.9878,353.0966 L450.556,358.625 " fill="none" style="stroke: #A9A9A9; stroke-width: 2.0;"/><polygon fill="none" points="603.353,242.831,603.372,242.8984,607.3939,241.5461,611.5273,240.589,615.6244,239.5032,619.602,237.9942,623.745,237.071,623.7239,237.0559,621.1597,240.4319,618.7015,243.8841,616.3171,247.3892,613.6785,250.7119,611.396,254.29,611.5471,254.396,609.6154,251.8775,608.1248,249.6685,606.6881,247.4973,604.9382,245.1064,603.353,242.831" style="stroke: #A9A9A9; stroke-width: 2.0;"/><!--link TeamMember to Captain--><path d="M614.551,247.904 L614.5932,247.9874 L612.1424,248.9164 L609.9388,250.334 L607.6548,251.5925 L605.1059,252.3278 L602.9236,253.7874 L602.9109,253.7553 L600.4692,254.5536 L598.0915,255.5139 L595.7583,256.5868 L593.2718,257.2717 L591,258.5 L591.0484,258.7413 L588.9701,258.6213 L587.0331,259.2058 L585.1133,259.8762 L583.0932,260.0465 L581.1258,260.4799 L581.1285,260.5101 L578.1242,260.7269 L575.1319,261.0812 L572.1338,261.3691 L569.1468,261.7837 L566.1238,261.7854 L566.1353,262.0835 L562.2581,262.2366 L558.3735,262.1976 L554.4998,262.4399 L550.6266,262.6954 L546.7372,262.5331 L546.733,262.2126 L542.1358,262.8959 L537.5245,262.5238 L532.9239,262.9541 L528.3123,262.5581 L523.7097,262.8394 L523.7097,262.8089 L518.5249,263.1653 L513.3397,262.8103 L508.1547,262.875 L502.9698,262.975 L497.7846,262.8208 L497.7861,263.0058 L492.1688,262.7737 L486.554,262.8577 L480.9351,262.4303 L475.3223,262.7657 L469.7055,262.5939 L469.713,263.3248 L459.7705,263.0845 L449.8316,263.207 L439.8755,261.6435 L429.9321,261.3159 L419.9914,261.2549 L410.0588,261.9813 L410.0586,261.9551 L404.0422,261.8633 L398.028,262.223 L392.01,261.8119 L385.9934,261.7066 L379.9781,261.8285 L379.9784,261.9299 L374.1248,261.5531 L368.2729,261.6397 L362.4226,262.1798 L356.57,262.106 L350.7172,261.9334 L350.7228,262.2598 L345.1752,261.8862 L339.6405,262.2669 L334.1031,262.4833 L328.5554,262.1068 L323.0195,262.4126 L323.0181,262.37 L320.4152,262.5518 L317.8166,262.8686 L315.2012,262.6605 L312.6018,262.9511 L309.9891,262.8289 L309.9781,262.583 L307.5035,262.6389 L305.0549,263.2739 L302.5584,262.8427 L300.1107,263.4978 L297.6284,263.3825 L297.634,263.4742 L295.3015,263.4047 L292.9796,263.5077 L290.6819,264.0093 L288.3418,263.814 L286.0302,264.0879 L286.0515,264.3501 L283.8618,264.0174 L281.7553,264.7101 L279.602,264.8255 L277.4448,264.8939 L275.2875,264.9597 L275.2901,264.9805 L271.6178,265.7404 L267.9021,266.1507 L264.1683,266.4149 L260.4643,266.9188 L256.7401,267.2607 L256.7275,267.2042 L254.0077,268.1996 L251.1511,268.5843 L248.3507,269.2203 L245.4727,269.5098 L242.7298,270.4019 L242.6533,270.2389 L241.0841,271.4351 L239.3191,272.2141 L237.4838,272.8435 L235.6851,273.5508 L234,274.5 L233.9378,274.4252 L232.0868,275.6934 L230.6812,277.4976 L229.0552,279.0366 L227.2764,280.3916 L225.4086,281.6396 L225.6182,281.8664 L223.824,283.0216 L222.3483,284.5213 L220.6617,285.7929 L219.3211,287.4387 L217.6921,288.7726 L217.7732,288.8464 L215.2741,291.7936 L212.4175,294.4154 L209.8493,297.2996 L207.4397,300.3283 L204.6944,303.0513 L204.9008,303.1961 L202.4946,305.7907 L200.5973,308.7422 L198.7088,311.6999 L196.419,314.3761 L194.6279,317.4022 L194.7673,317.4745 L193.2268,320.3527 L191.5824,323.1771 L190.1754,326.1246 L188.9038,329.1423 L187.1135,331.891 L186.9828,331.8435 L186.1767,334.8773 L185.0962,337.8114 L183.9569,340.7241 L182.8991,343.6665 L181.7719,346.5836 L181.821,346.5953 L180.7924,349.5121 L180.1795,352.5275 L179.4437,355.5137 L178.9613,358.5601 L178.2242,361.546 L178.263,361.5514 L177.8688,364.6155 L177.2429,367.6473 L176.9146,370.7207 L176.4648,373.777 L176.0911,376.844 L176.3469,376.8619 L176.0607,379.9971 L175.4369,383.1087 L175.4003,386.2614 L174.9572,389.3857 L174.9936,392.5435 L175.1217,392.547 L175.1758,395.7843 L175.0591,399.0169 L174.5355,402.2384 L174.8469,405.4826 L174.5526,408.7104 L174.2225,408.7072 L174.6088,412.0513 L174.3541,415.3892 L174.4973,418.7309 L174.5284,422.0716 L174.3889,425.4106 L174.5987,425.4138 L174.0159,428.8655 L174.494,432.3335 L174.3088,435.7914 L174.3344,439.2525 L174.1234,442.7099 L174.4555,442.7237 L173.9765,446.3029 L173.9027,449.8989 L173.7703,453.4925 L173.6138,457.085 L173.377,460.6743 L173.3766,460.6743 L173.3704,464.4404 L172.4644,468.1292 L172.6634,471.913 L171.8155,475.6068 L171.7706,479.3696 L171.5329,479.3349 L171.219,483.2706 L170.6448,487.1683 L169.8465,491.0332 L169.6761,494.9899 L168.925,498.8617 L168.9725,498.8712 L168.8406,500.9379 L168.4134,502.9459 L167.5261,504.8621 L167.1468,506.8795 L166.9191,508.9272 L166.8632,508.9139 L166.5812,511.0218 L166.1101,513.0846 L165.5745,515.1319 L164.8049,517.1234 L164.4612,519.2166 L164.7335,519.2931 L164.1409,521.3971 L163.2581,523.4195 L162.5846,525.5007 L161.9237,527.5855 L161.504,529.7381 L161.4133,529.7086 L160.8612,531.9094 L160.0735,534.0334 L159.225,536.1377 L158.9068,538.4147 L158,540.5 L157.8081,540.4308 L157.1245,543.5833 L156.0076,546.5795 L154.8989,549.5787 L153.9474,552.6347 L152.5724,555.5377 L152.4704,555.4987 L151.2836,558.5365 L150.4598,561.713 L148.8325,564.5825 L147.8191,567.6865 L146.7523,570.7701 L146.7999,570.7891 L145.5785,573.7938 L144.2002,576.7357 L143.1283,579.8 L142.2514,582.9421 L140.7419,585.8317 L141.0083,585.9417 L139.2974,588.6356 L138.375,591.6552 L136.9321,594.4597 L135.9328,597.4475 L134.744,600.357 " fill="none" style="stroke: #A9A9A9; stroke-width: 2.0;"/><polygon fill="none" points="610.901,241.93,610.9163,241.9984,615.0057,240.8668,619.1851,240.1361,623.3352,239.2748,627.3889,237.9844,631.576,237.288,631.5558,237.2718,628.8116,240.5034,626.1691,243.8168,623.5975,247.187,620.7819,250.3613,618.308,253.81,618.4646,253.9076,616.6483,251.3228,615.2893,249.0231,613.986,246.7582,612.3581,244.2909,610.901,241.93" style="stroke: #A9A9A9; stroke-width: 2.0;"/><!--link TeamMember to Coach--><path d="M656.576,256.484 L656.6645,256.5139 L655.464,259.2022 L654.7824,262.0656 L653.9319,264.872 L652.5257,267.4908 L651.8886,270.3693 L651.856,270.3578 L650.656,273.3128 L649.6203,276.3253 L648.6988,279.3779 L647.3837,282.2925 L646.62,285.4004 L646.8512,285.4847 L645.1873,288.5129 L644.1983,291.7871 L643.2917,295.0913 L641.906,298.2209 L640.7723,301.4423 L640.8006,301.4531 L639.4741,304.8208 L638.2766,308.2375 L637.0168,311.6306 L635.8759,315.0688 L634.3476,318.3599 L634.6248,318.4698 L633.2283,322.0028 L631.6529,325.4649 L630.3393,329.0307 L629.038,332.6014 L627.3479,336.0181 L627.0518,335.8953 L626.1119,339.7863 L624.1971,343.273 L623.0235,347.0671 L621.0866,350.5447 L619.7754,354.2817 L619.7474,354.2696 L618.449,358.1599 L616.4982,361.7667 L614.9323,365.5408 L613.3987,369.3289 L611.632,373.0158 L611.8003,373.0926 L609.888,376.8289 L608.2633,380.6966 L606.1734,384.3517 L604.7774,388.3238 L602.92,392.0851 L603.1395,392.1908 L601.2423,396.0248 L599.454,399.9112 L597.1594,403.5537 L595.2359,407.375 L593.6413,411.3547 L593.3952,411.2294 L591.6494,415.2098 L589.6262,419.049 L588.0053,423.0929 L585.6976,426.7872 L583.7981,430.6894 L583.664,430.6169 L581.8063,434.5906 L579.3751,438.2544 L577.3517,442.1386 L575.7274,446.2383 L573.3925,449.9541 L573.561,450.0495 L572.594,452.0277 L571.1028,453.7092 L570.2681,455.7624 L569.2904,457.7345 L567.9794,459.518 L567.7981,459.4121 L566.832,461.3957 L565.8065,463.3446 L564.8977,465.3617 L563.5354,467.1137 L562.4264,469.0138 L562.6023,469.1202 L561.0773,470.7686 L559.8919,472.6223 L559.2024,474.7761 L557.5998,476.3775 L556.7339,478.4245 L556.9256,478.5446 L555.6454,480.335 L554.3003,482.0848 L553.1016,483.9263 L552.2412,485.9798 L550.9021,487.7333 L550.7905,487.6608 L549.9285,489.7146 L548.3077,491.2755 L547.5497,493.3968 L546.3059,495.2026 L544.9312,496.9233 L545.0214,496.9842 L543.7267,498.7459 L542.755,500.7256 L541.4914,502.5084 L540.1058,504.2088 L538.8215,505.9776 L538.9191,506.0461 L537.5245,507.7247 L536.5828,509.7212 L535.1289,511.3581 L533.8857,513.143 L532.5733,514.8793 L532.355,514.7197 L531.1506,516.5194 L530.2091,518.5114 L528.8956,520.2314 L527.4487,521.8538 L526.1868,523.6115 L526.073,523.5246 L524.8045,525.2616 L523.3346,526.8448 L522.4186,528.8509 L521.2284,530.6477 L519.6623,532.1574 L519.8451,532.3034 L518.5712,534.0186 L516.9499,535.4565 L515.6952,537.1871 L514.1978,538.724 L513,540.5 L513.0956,540.5824 L511.3651,542.5645 L509.75,544.6461 L507.7688,546.412 L506.0828,548.4325 L504.4101,550.4644 L504.5531,550.6001 L502.7564,552.573 L500.5718,554.1777 L498.838,556.2102 L497.112,558.2503 L495.2274,560.1397 L495.0385,559.9447 L493.4043,562.1247 L491.4424,563.9665 L489.399,565.7243 L487.5418,567.6741 L485.5654,569.501 L485.782,569.7417 L483.4669,571.2021 L481.648,573.214 L479.6337,575.0088 L477.5777,576.7571 L475.5378,578.5234 L475.5781,578.5713 L473.5143,580.2937 L471.2471,581.7746 L469.2551,583.5823 L467.1818,585.2934 L465.258,587.182 L465.2756,587.2042 L463.1987,588.8666 L461.1354,590.5463 L458.9267,592.0426 L456.9047,593.7744 L454.8398,595.4519 L454.8076,595.4092 L452.9052,597.228 L450.7764,598.7459 L448.4441,599.9932 L446.4657,601.711 L444.3966,603.3082 L444.2472,603.0996 L442.4003,604.896 L440.4122,606.4952 L438.3248,607.9556 L436.0002,609.0851 L434.042,610.726 " fill="none" style="stroke: #A9A9A9; stroke-width: 2.0;"/><polygon fill="none" points="649.99,254.101,650.0458,254.1433,652.4401,250.6406,655.1617,247.3859,657.7768,244.0505,660.0413,240.4493,662.791,237.216,662.7651,237.2154,662.7535,241.4491,662.8724,245.686,663.0821,249.9252,662.979,254.1567,663.314,258.399,663.3707,258.5746,660.5847,257.3395,657.9642,256.6171,655.3638,255.9572,652.646,254.9334,649.99,254.101" style="stroke: #A9A9A9; stroke-width: 2.0;"/><!--link Match to TeamMember--><!--link Player to Coach--><!--
@startuml
skinparam backgroundColor #222222
skinparam handwritten true
hide circle

skinparam shadowing false
skinparam padding 1
skinparam arrow {
    Thickness 2
    Color #DarkGrey
    FontSize 20
    FontName courier
    FontStyle normal
    FontColor #DarkGrey
}
skinparam class {
    BorderThickness 3
    BorderColor #228B22
    BackgroundColor #222222
    FontSize 20
    FontName courier
    FontStyle bold
    FontColor #228B22
    StereotypeFontColor #228B22
}
skinparam classAttribute {
    FontSize 15
    FontName courier
    FontStyle normal
    FontColor #DarkGrey
}
skinparam note {
    BorderThickness 3
    BorderColor #DarkGrey
    BackgroundColor #222222
    FontSize 20
    FontName courier
    FontStyle normal
    FontColor #DarkGrey
}

class Scenario  {
+ main()
}
class Match <<Director>>  {
+ Match(Referee)
+ play()
}
together {
class Referee <<Mediator>>  {
# performCoinToss()
- informTeammembersAboutGoal()
# answerYesNoRequest()
# answerSubstitutionRequest()
# answermassageRequest()
- informTeamMembrsAboutAnswer()
# generateRandom(int, boolean)
}
class SevereReferee <<ConcreteMediatorA>>  {
#generateRandom(int, boolean)
}
class PermissiveReferee <<ConcreteMediatorB>>  {
# generateRandom(int, boolean)
}
}
class TeamMember <<Collegue>>

class Player <<ConcreteCollegueA>>  {
# requestYellowCard()
# requestRedCard()
# requestPenalti()
# requestMassage()
}
class Captain <<ConcreteCollegueAA>>  {
# chooseHeadsOrTails()
# chooseGoal()
}
class Coach <<ConcreteColleagueB>>  {
# requestSubstitution()
}
class Physiotherapist  {
# givetMassage()
}

Scenario .down.> Match
Scenario .down.> SevereReferee
Scenario .down.> PermissiveReferee
Match o- - Referee
Match *-down- Player
Match *-down- Captain
Match *-down- Coach
Match *-down- Physiotherapist
Referee -down- -> Player
Player -down- -> Referee
Referee -down- -> Captain
Captain -down- -> Referee
Referee -down- -> Coach
Coach -down- -> Referee
Referee -down-> Physiotherapist
Referee <|-down- SevereReferee
Referee <|-down- PermissiveReferee
Player <|-down- Captain
TeamMember - -> Referee
TeamMember <|-down- Player
TeamMember <|-down- Captain
TeamMember <|-down- Coach
Referee -[hidden]- Match
Match -[hidden] TeamMember
Player -[hidden]down- Captain
Player -[hidden]down- Coach
@enduml

PlantUML version 1.2019.05(Sat Apr 20 18:45:36 CEST 2019)
(GPL source distribution)
Java Runtime: Java(TM) SE Runtime Environment
JVM: Java HotSpot(TM) 64-Bit Server VM
Java Version: 11.0.8+10-LTS
Operating System: Windows 10
OS Version: 10.0
Default Encoding: windows-1252
Language: es
Country: ES
--></g></svg>