<?xml version="1.0" encoding="UTF-8" standalone="no"?><svg xmlns="http://www.w3.org/2000/svg" xmlns:xlink="http://www.w3.org/1999/xlink" contentScriptType="application/ecmascript" contentStyleType="text/css" height="1024px" preserveAspectRatio="none" style="width:924px;height:1024px;background:#222222;" version="1.1" viewBox="0 0 924 1024" width="924px" zoomAndPan="magnify"><defs/><g><!--class Scenario--><polygon fill="#222222" points="687.5,8,687.5,8.2102,697.9,7.5857,708.3,8.1933,718.7,8.3997,729.1,7.2866,739.5,7.9223,749.9,7.5735,760.3,7.6165,770.7,7.9318,781.1,7.3086,791.5,8,792.0536,8,790.8697,17.4623,791.3022,26.9246,791.9319,36.3868,791.4142,45.8491,791.5682,55.3114,791.4681,64.7737,791.6785,74.236,791.5,83.6982,791.5,83.9374,781.1,84.2839,770.7,84.3693,760.3,84.3775,749.9,83.9529,739.5,84.1618,729.1,84.4005,718.7,82.9771,708.3,84.3768,697.9,83.4017,687.5,83.6982,688.0338,83.6982,687.005,74.236,687.4315,64.7737,688.2416,55.3114,687.4513,45.8491,687.6053,36.3868,687.8386,26.9246,687.9162,17.4623,687.5,8" style="stroke: #228B22; stroke-width: 3.0;"/><text fill="#228B22" font-family="courier" font-size="20" font-weight="bold" lengthAdjust="spacingAndGlyphs" textLength="96" x="691.5" y="34.1074">Scenario</text><path d="M688.5,46.1133 L688.5,46.3935 L698.7,45.5609 L708.9,46.371 L719.1,46.6462 L729.3,45.1621 L739.5,46.0097 L749.7,45.5446 L759.9,45.6019 L770.1,46.0224 L780.3,45.1915 L790.5,46.1133 " fill="#222222" style="stroke: #228B22; stroke-width: 3.0;"/><path d="M688.5,54.1133 L688.5,54.3935 L698.7,53.5609 L708.9,54.371 L719.1,54.6462 L729.3,53.1621 L739.5,54.0097 L749.7,53.5446 L759.9,53.6019 L770.1,54.0224 L780.3,53.1915 L790.5,54.1133 " fill="#222222" style="stroke: #228B22; stroke-width: 3.0;"/><polygon fill="#84BE84" points="701.5166,71.1355,701.0768,71.7363,700.5567,72.6164,699.8128,73.2095,699.0311,73.5338,698.4078,73.562,697.6067,73.1564,696.8509,72.8914,696.2771,72.3534,695.9762,71.7374,695.7977,71.247,695.6229,70.6064,695.3391,70.0552,695.5572,69.5169,695.7482,68.9274,696.4653,68.4611,696.9697,67.8561,697.5941,67.6552,698.3364,67.4821,699.2883,67.5849,699.8097,67.8308,700.4158,67.9423,701.1529,68.6974,701.4098,69.4946,701.5214,70.0385,701.395,70.9348" style="stroke: #038048; stroke-width: 1.0;"/><text fill="#A9A9A9" font-family="courier" font-size="15" lengthAdjust="spacingAndGlyphs" textLength="54" x="708.5" y="74.1938">main()</text><!--class School--><polygon fill="#222222" points="640,144,640,144.2102,649.95,143.5857,659.9,144.1933,669.85,144.3997,679.8,143.2866,689.75,143.9223,699.7,143.5735,709.65,143.6165,719.6,143.9318,729.55,143.3086,739.5,144.5536,749.45,143.3697,759.4,143.8022,769.35,144.4319,779.3,143.9142,789.25,144.0682,799.2,143.9681,809.15,144.1785,819.1,144.2391,829.05,144.5857,839,144,839.6711,144,839.6793,154.3979,839.2546,164.7958,839.4636,175.1937,839.7022,185.5916,838.2788,195.9895,839.6785,206.3874,838.7035,216.7853,839.5338,227.1832,838.505,237.5811,838.9315,247.979,839,258.377,839,259.1186,829.05,258.3282,819.1,258.4823,809.15,258.7156,799.2,258.7932,789.25,258.373,779.3,258.6642,769.35,257.8045,759.4,258.6613,749.45,258.9251,739.5,258.8215,729.55,258.99,719.6,257.8939,709.65,257.7248,699.7,257.7556,689.75,258.3181,679.8,258.1804,669.85,259.0584,659.9,258.2023,649.95,258.0339,640,258.377,640.2283,258.377,639.3332,247.979,639.4809,237.5811,640.649,227.1832,640.4357,216.7853,640.7345,206.3874,639.6782,195.9895,640.3192,185.5916,640.5904,175.1937,639.5276,164.7958,639.9041,154.3979,640,144" style="stroke: #228B22; stroke-width: 3.0;"/><text fill="#228B22" font-family="sans-serif" font-size="12" font-style="italic" lengthAdjust="spacingAndGlyphs" textLength="57" x="711" y="162.457">«Director»</text><text fill="#228B22" font-family="courier" font-size="20" font-weight="bold" lengthAdjust="spacingAndGlyphs" textLength="72" x="703.5" y="187.2012">School</text><path d="M641,199.207 L641,199.4873 L650.85,198.6546 L660.7,199.4647 L670.55,199.7399 L680.4,198.2558 L690.25,199.1034 L700.1,198.6384 L709.95,198.6957 L719.8,199.1162 L729.65,198.2852 L739.5,199.9452 L749.35,198.3667 L759.2,198.9433 L769.05,199.783 L778.9,199.0927 L788.75,199.298 L798.6,199.1644 L808.45,199.4451 L818.3,199.5259 L828.15,199.988 L838,199.207 " fill="#222222" style="stroke: #228B22; stroke-width: 3.0;"/><path d="M641,207.207 L641,207.4873 L650.85,206.6546 L660.7,207.4647 L670.55,207.7399 L680.4,206.2558 L690.25,207.1034 L700.1,206.6384 L709.95,206.6957 L719.8,207.1162 L729.65,206.2852 L739.5,207.9452 L749.35,206.3667 L759.2,206.9433 L769.05,207.783 L778.9,207.0927 L788.75,207.298 L798.6,207.1644 L808.45,207.4451 L818.3,207.5259 L828.15,207.988 L838,207.207 " fill="#222222" style="stroke: #228B22; stroke-width: 3.0;"/><polygon fill="#84BE84" points="654.0166,224.2292,653.5768,224.8301,653.0567,225.7102,652.3128,226.3033,651.5311,226.6276,650.9078,226.6557,650.1067,226.2501,649.3509,225.9851,648.7771,225.4471,648.4762,224.8312,648.2977,224.3407,648.1229,223.7002,647.8391,223.1489,648.0572,222.6107,648.2482,222.0211,648.9653,221.5548,649.4697,220.9498,650.0941,220.7489,650.8364,220.5759,651.7883,220.6787,652.3097,220.9246,652.9158,221.036,653.6529,221.7911,653.9098,222.5883,654.0214,223.1322,653.895,224.0286" style="stroke: #038048; stroke-width: 1.0;"/><text fill="#A9A9A9" font-family="courier" font-size="15" lengthAdjust="spacingAndGlyphs" textLength="72" x="661" y="227.2876">School()</text><polygon fill="#84BE84" points="654.0166,245.8142,653.5768,246.4151,653.0567,247.2951,652.3128,247.8882,651.5311,248.2125,650.9078,248.2407,650.1067,247.8351,649.3509,247.5701,648.7771,247.0321,648.4762,246.4161,648.2977,245.9257,648.1229,245.2851,647.8391,244.7339,648.0572,244.1957,648.2482,243.6061,648.9653,243.1398,649.4697,242.5348,650.0941,242.3339,650.8364,242.1608,651.7883,242.2636,652.3097,242.5095,652.9158,242.621,653.6529,243.3761,653.9098,244.1733,654.0214,244.7172,653.895,245.6135" style="stroke: #038048; stroke-width: 1.0;"/><text fill="#A9A9A9" font-family="courier" font-size="15" lengthAdjust="spacingAndGlyphs" textLength="171" x="661" y="248.8726">startAcademicYear()</text><!--class ManagementBoard--><polygon fill="#222222" points="544.5,318,544.5,318.2102,554.3947,317.5857,564.2895,318.1933,574.1842,318.3997,584.0789,317.2866,593.9737,317.9223,603.8684,317.5735,613.7632,317.6165,623.6579,317.9318,633.5526,317.3086,643.4474,318.5536,653.3421,317.3697,663.2368,317.8022,673.1316,318.4319,683.0263,317.9142,692.9211,318.0682,702.8158,317.9681,712.7105,318.1785,722.6053,318.2391,732.5,318,733.0857,318,733.1711,327.4623,733.1793,336.9246,732.7546,346.3868,732.9636,355.8491,733.2022,365.3114,731.7788,374.7737,733.1785,384.236,732.5,393.6982,732.5,393.4017,722.6053,394.2321,712.7105,393.2032,702.8158,393.6297,692.9211,394.4398,683.0263,393.6495,673.1316,393.8035,663.2368,394.0369,653.3421,394.1145,643.4474,393.6943,633.5526,393.9855,623.6579,393.1258,613.7632,393.9826,603.8684,394.2464,593.9737,394.1428,584.0789,394.3113,574.1842,393.2152,564.2895,393.0461,554.3947,393.0768,544.5,393.6982,544.4411,393.6982,544.3035,384.236,545.1814,374.7737,544.3253,365.3114,544.1569,355.8491,544.7283,346.3868,543.8332,336.9246,543.9809,327.4623,544.5,318" style="stroke: #228B22; stroke-width: 3.0;"/><text fill="#228B22" font-family="courier" font-size="20" font-weight="bold" lengthAdjust="spacingAndGlyphs" textLength="180" x="548.5" y="344.1074">ManagementBoard</text><path d="M545.5,356.1133 L545.5,356.3935 L555.2895,355.5609 L565.0789,356.371 L574.8684,356.6462 L584.6579,355.1621 L594.4474,356.0097 L604.2368,355.5446 L614.0263,355.6019 L623.8158,356.0224 L633.6053,355.1915 L643.3947,356.8515 L653.1842,355.2729 L662.9737,355.8496 L672.7632,356.6892 L682.5526,355.9989 L692.3421,356.2043 L702.1316,356.0707 L711.9211,356.3513 L721.7105,356.4321 L731.5,356.1133 " fill="#222222" style="stroke: #228B22; stroke-width: 3.0;"/><path d="M545.5,364.1133 L545.5,364.3935 L555.2895,363.5609 L565.0789,364.371 L574.8684,364.6462 L584.6579,363.1621 L594.4474,364.0097 L604.2368,363.5446 L614.0263,363.6019 L623.8158,364.0224 L633.6053,363.1915 L643.3947,364.8515 L653.1842,363.2729 L662.9737,363.8496 L672.7632,364.6892 L682.5526,363.9989 L692.3421,364.2043 L702.1316,364.0707 L711.9211,364.3513 L721.7105,364.4321 L731.5,364.1133 " fill="#222222" style="stroke: #228B22; stroke-width: 3.0;"/><polygon fill="#84BE84" points="558.5166,381.1355,558.0768,381.7363,557.5567,382.6164,556.8128,383.2095,556.0311,383.5338,555.4078,383.562,554.6067,383.1564,553.8509,382.8914,553.2771,382.3534,552.9762,381.7374,552.7977,381.247,552.6229,380.6064,552.3391,380.0552,552.5572,379.5169,552.7482,378.9274,553.4653,378.4611,553.9697,377.8561,554.5941,377.6552,555.3364,377.4821,556.2883,377.5849,556.8097,377.8308,557.4158,377.9423,558.1529,378.6974,558.4098,379.4946,558.5214,380.0385,558.395,380.9348" style="stroke: #038048; stroke-width: 1.0;"/><text fill="#A9A9A9" font-family="courier" font-size="15" lengthAdjust="spacingAndGlyphs" textLength="153" x="565.5" y="384.1938">ManagementBoard()</text><!--class Departament--><polygon fill="#222222" points="768,318,768,318.2102,777.6667,317.5857,787.3333,318.1933,797,318.3997,806.6667,317.2866,816.3333,317.9223,826,317.5735,835.6667,317.6165,845.3333,317.9318,855,317.3086,864.6667,318.5536,874.3333,317.3697,884,317.8022,893.6667,318.4319,903.3333,317.9142,913,318,913.0682,318,912.9681,327.4623,913.1785,336.9246,913.2391,346.3868,913.5857,355.8491,913.6711,365.3114,913.6793,374.7737,913.2546,384.236,913,393.6982,913,394.1618,903.3333,394.4005,893.6667,392.9771,884,394.3768,874.3333,393.4017,864.6667,394.2321,855,393.2032,845.3333,393.6297,835.6667,394.4398,826,393.6495,816.3333,393.8035,806.6667,394.0369,797,394.1145,787.3333,393.6943,777.6667,393.9855,768,393.6982,767.4276,393.6982,768.2844,384.236,768.5482,374.7737,768.4445,365.3114,768.613,355.8491,767.5169,346.3868,767.3478,336.9246,767.3786,327.4623,768,318" style="stroke: #228B22; stroke-width: 3.0;"/><text fill="#228B22" font-family="courier" font-size="20" font-weight="bold" lengthAdjust="spacingAndGlyphs" textLength="132" x="774.5" y="344.1074">Departament</text><path d="M769,356.1133 L769,356.3935 L779.2143,355.5609 L789.4286,356.371 L799.6429,356.6462 L809.8571,355.1621 L820.0714,356.0097 L830.2857,355.5446 L840.5,355.6019 L850.7143,356.0224 L860.9286,355.1915 L871.1429,356.8515 L881.3571,355.2729 L891.5714,355.8496 L901.7857,356.6892 L912,356.1133 " fill="#222222" style="stroke: #228B22; stroke-width: 3.0;"/><path d="M769,364.1133 L769,364.3935 L779.2143,363.5609 L789.4286,364.371 L799.6429,364.6462 L809.8571,363.1621 L820.0714,364.0097 L830.2857,363.5446 L840.5,363.6019 L850.7143,364.0224 L860.9286,363.1915 L871.1429,364.8515 L881.3571,363.2729 L891.5714,363.8496 L901.7857,364.6892 L912,364.1133 " fill="#222222" style="stroke: #228B22; stroke-width: 3.0;"/><polygon fill="#84BE84" points="782.0166,381.1355,781.5768,381.7363,781.0567,382.6164,780.3128,383.2095,779.5311,383.5338,778.9078,383.562,778.1067,383.1564,777.3509,382.8914,776.7771,382.3534,776.4762,381.7374,776.2977,381.247,776.1229,380.6064,775.8391,380.0552,776.0572,379.5169,776.2482,378.9274,776.9653,378.4611,777.4697,377.8561,778.0941,377.6552,778.8364,377.4821,779.7883,377.5849,780.3097,377.8308,780.9158,377.9423,781.6529,378.6974,781.9098,379.4946,782.0214,380.0385,781.895,380.9348" style="stroke: #038048; stroke-width: 1.0;"/><text fill="#A9A9A9" font-family="courier" font-size="15" lengthAdjust="spacingAndGlyphs" textLength="117" x="789" y="384.1938">Departament()</text><!--class Professor--><polygon fill="#222222" points="676,555,676,555.2102,685.7692,554.5857,695.5385,555.1933,705.3077,555.3997,715.0769,554.2866,724.8462,554.9223,734.6154,554.5735,744.3846,554.6165,754.1538,554.9318,763.9231,554.3086,773.6923,555.5536,783.4615,554.3697,793.2308,554.8022,803,555,803.4319,555,802.9142,564.7283,803.0682,574.4566,802.9681,584.185,803.1785,593.9133,803.2391,603.6416,803.5857,613.3699,803.6711,623.0982,803.6793,632.8266,803.2546,642.5549,803,652.2832,803,652.7468,793.2308,652.9854,783.4615,651.562,773.6923,652.9617,763.9231,651.9867,754.1538,652.817,744.3846,651.7882,734.6154,652.2147,724.8462,653.0248,715.0769,652.2345,705.3077,652.3885,695.5385,652.6218,685.7692,652.6994,676,652.2832,675.9961,652.2832,676.2872,642.5549,675.4276,632.8266,676.2844,623.0982,676.5482,613.3699,676.4445,603.6416,676.613,593.9133,675.5169,584.185,675.3478,574.4566,675.3786,564.7283,676,555" style="stroke: #228B22; stroke-width: 3.0;"/><text fill="#228B22" font-family="courier" font-size="20" font-weight="bold" lengthAdjust="spacingAndGlyphs" textLength="108" x="685.5" y="581.1074">Professor</text><path d="M677,593.1133 L677,593.3935 L686.6154,592.5609 L696.2308,593.371 L705.8462,593.6462 L715.4615,592.1621 L725.0769,593.0097 L734.6923,592.5446 L744.3077,592.6019 L753.9231,593.0224 L763.5385,592.1915 L773.1538,593.8515 L782.7692,592.2729 L792.3846,592.8496 L802,593.1133 " fill="#222222" style="stroke: #228B22; stroke-width: 3.0;"/><path d="M677,601.1133 L677,601.3935 L686.6154,600.5609 L696.2308,601.371 L705.8462,601.6462 L715.4615,600.1621 L725.0769,601.0097 L734.6923,600.5446 L744.3077,600.6019 L753.9231,601.0224 L763.5385,600.1915 L773.1538,601.8515 L782.7692,600.2729 L792.3846,600.8496 L802,601.1133 " fill="#222222" style="stroke: #228B22; stroke-width: 3.0;"/><polygon fill="#84BE84" points="690.0166,618.1355,689.5768,618.7363,689.0567,619.6164,688.3128,620.2095,687.5311,620.5338,686.9078,620.562,686.1067,620.1564,685.3509,619.8914,684.7771,619.3534,684.4762,618.7374,684.2977,618.247,684.1229,617.6064,683.8391,617.0552,684.0572,616.5169,684.2482,615.9274,684.9653,615.4611,685.4697,614.8561,686.0941,614.6552,686.8364,614.4821,687.7883,614.5849,688.3097,614.8308,688.9158,614.9423,689.6529,615.6974,689.9098,616.4946,690.0214,617.0385,689.895,617.9348" style="stroke: #038048; stroke-width: 1.0;"/><text fill="#A9A9A9" font-family="courier" font-size="15" lengthAdjust="spacingAndGlyphs" textLength="99" x="697" y="621.1938">Professor()</text><polygon fill="#84BE84" points="690.0166,639.7204,689.5768,640.3213,689.0567,641.2014,688.3128,641.7945,687.5311,642.1188,686.9078,642.1469,686.1067,641.7413,685.3509,641.4763,684.7771,640.9383,684.4762,640.3224,684.2977,639.832,684.1229,639.1914,683.8391,638.6401,684.0572,638.1019,684.2482,637.5123,684.9653,637.046,685.4697,636.441,686.0941,636.2401,686.8364,636.0671,687.7883,636.1699,688.3097,636.4158,688.9158,636.5272,689.6529,637.2824,689.9098,638.0795,690.0214,638.6235,689.895,639.5198" style="stroke: #038048; stroke-width: 1.0;"/><text fill="#A9A9A9" font-family="courier" font-size="15" lengthAdjust="spacingAndGlyphs" textLength="63" x="697" y="642.7788">teach()</text><path d="M6,454 L6,753.2461 A0,0 0 0 0 6,753.2461 L641,753.2461 A0,0 0 0 0 641,753.2461 L641,607.5 L675.75,603.5 L641,599.5 L641,464 L631,454 L6,454 A0,0 0 0 0 6,454 " fill="#222222" style="stroke: #A9A9A9; stroke-width: 3.0;"/><path d="M631,454 L631.1868,454 L630.6317,456 L631.1718,458 L631.3553,460 L630.3659,462 L631,464 L631,463.9309 L633,463.6209 L635,463.6591 L637,463.9394 L639,463.3854 L641,464 L641.348,464.348 L638.6038,461.6038 L636.8757,459.8757 L635.2715,458.2715 L632.9461,455.9461 L631,454 " fill="#222222" style="stroke: #A9A9A9; stroke-width: 3.0;"/><text fill="#A9A9A9" font-family="courier" font-size="20" lengthAdjust="spacingAndGlyphs" textLength="324" x="13" y="480.1074">public Professor (String) {</text><text fill="#A9A9A9" font-family="courier" font-size="20" lengthAdjust="spacingAndGlyphs" textLength="228" x="37" y="506.2207">this.title = title;</text><text fill="#A9A9A9" font-family="courier" font-size="20" lengthAdjust="spacingAndGlyphs" textLength="588" x="37" y="532.334">this.securityGuard = securityGuard.getInstance();</text><text fill="#A9A9A9" font-family="courier" font-size="20" lengthAdjust="spacingAndGlyphs" textLength="12" x="13" y="558.4473">}</text><text fill="#A9A9A9" font-family="courier" font-size="20" lengthAdjust="spacingAndGlyphs" textLength="0" x="25" y="584.5605"/><text fill="#A9A9A9" font-family="courier" font-size="20" lengthAdjust="spacingAndGlyphs" textLength="192" x="13" y="610.6738">public teach() {</text><text fill="#A9A9A9" font-family="courier" font-size="20" lengthAdjust="spacingAndGlyphs" textLength="420" x="37" y="636.7871">this.securityGuard.openClassRoom();</text><text fill="#A9A9A9" font-family="courier" font-size="20" lengthAdjust="spacingAndGlyphs" textLength="132" x="37" y="662.9004">// Teaching</text><text fill="#A9A9A9" font-family="courier" font-size="20" lengthAdjust="spacingAndGlyphs" textLength="36" x="37" y="689.0137">...</text><text fill="#A9A9A9" font-family="courier" font-size="20" lengthAdjust="spacingAndGlyphs" textLength="432" x="37" y="715.127">this.securityGuard.closeClassRoom();</text><text fill="#A9A9A9" font-family="courier" font-size="20" lengthAdjust="spacingAndGlyphs" textLength="12" x="13" y="741.2402">}</text><!--class SecurityGuard--><polygon fill="#222222" points="640,813,640,813.2102,649.95,812.5857,659.9,813.1933,669.85,813.3997,679.8,812.2866,689.75,812.9223,699.7,812.5735,709.65,812.6165,719.6,812.9318,729.55,812.3086,739.5,813.5536,749.45,812.3697,759.4,812.8022,769.35,813.4319,779.3,812.9142,789.25,813.0682,799.2,812.9681,809.15,813.1785,819.1,813.2391,829.05,813.5857,839,813,839.6711,813,839.6793,823.0358,839.2546,833.0717,839.4636,843.1075,839.7022,853.1434,838.2788,863.1792,839.6785,873.215,838.7035,883.2509,839.5338,893.2867,838.505,903.3226,838.9315,913.3584,839.7416,923.3942,838.9513,933.4301,839.1053,943.4659,839.3386,953.5018,839.4162,963.5376,838.9961,973.5734,839.2872,983.6093,838.4276,993.6451,839.2844,1003.681,839,1013.7168,839,1014.265,829.05,1014.1613,819.1,1014.3298,809.15,1013.2337,799.2,1013.0646,789.25,1013.0954,779.3,1013.6579,769.35,1013.5203,759.4,1014.3982,749.45,1013.5421,739.5,1013.3737,729.55,1013.9451,719.6,1013.05,709.65,1013.1977,699.7,1014.3657,689.75,1014.1525,679.8,1014.4513,669.85,1013.395,659.9,1014.036,649.95,1014.3072,640,1013.7168,639.5276,1013.7168,639.9041,1003.681,640.126,993.6451,640.6518,983.6093,639.9958,973.5734,640.4626,963.5376,639.4462,953.5018,639.3227,943.4659,640.5036,933.4301,639.2831,923.3942,640.509,913.3584,640.2066,903.3226,639.7321,893.2867,639.6462,883.2509,640.4588,873.215,639.7007,863.1792,640.5919,853.1434,639.4473,843.1075,640.6174,833.0717,640.4843,823.0358,640,813" style="stroke: #228B22; stroke-width: 3.0;"/><text fill="#228B22" font-family="sans-serif" font-size="12" font-style="italic" lengthAdjust="spacingAndGlyphs" textLength="66" x="706.5" y="831.457">«Singleton»</text><text fill="#228B22" font-family="courier" font-size="20" font-weight="bold" lengthAdjust="spacingAndGlyphs" textLength="156" x="661.5" y="856.2012">SecurityGuard</text><path d="M641,868.207 L641,868.4873 L650.85,867.6546 L660.7,868.4647 L670.55,868.7399 L680.4,867.2558 L690.25,868.1034 L700.1,867.6384 L709.95,867.6957 L719.8,868.1162 L729.65,867.2852 L739.5,868.9452 L749.35,867.3667 L759.2,867.9433 L769.05,868.783 L778.9,868.0927 L788.75,868.298 L798.6,868.1644 L808.45,868.4451 L818.3,868.5259 L828.15,868.988 L838,868.207 " fill="#222222" style="stroke: #228B22; stroke-width: 3.0;"/><polygon fill="none" points="654.0166,885.2292,653.5768,885.8301,653.0567,886.7102,652.3128,887.3033,651.5311,887.6276,650.9078,887.6557,650.1067,887.2501,649.3509,886.9851,648.7771,886.4471,648.4762,885.8312,648.2977,885.3407,648.1229,884.7002,647.8391,884.1489,648.0572,883.6107,648.2482,883.0211,648.9653,882.5548,649.4697,881.9498,650.0941,881.7489,650.8364,881.5759,651.7883,881.6787,652.3097,881.9246,652.9158,882.036,653.6529,882.7911,653.9098,883.5883,654.0214,884.1322,653.895,885.0286" style="stroke: #038048; stroke-width: 1.0;"/><text fill="#A9A9A9" font-family="courier" font-size="15" lengthAdjust="spacingAndGlyphs" text-decoration="underline" textLength="135" x="661" y="888.2876">Printer printer</text><path d="M641,897.792 L641,898.0722 L650.85,897.2396 L660.7,898.0497 L670.55,898.3249 L680.4,896.8408 L690.25,897.6884 L700.1,897.2233 L709.95,897.2807 L719.8,897.7011 L729.65,896.8702 L739.5,898.5302 L749.35,896.9516 L759.2,897.5283 L769.05,898.3679 L778.9,897.6776 L788.75,897.883 L798.6,897.7494 L808.45,898.03 L818.3,898.1108 L828.15,898.5729 L838,897.792 " fill="#222222" style="stroke: #228B22; stroke-width: 3.0;"/><polygon fill="#84BE84" points="654.0166,914.8142,653.5768,915.4151,653.0567,916.2951,652.3128,916.8882,651.5311,917.2125,650.9078,917.2407,650.1067,916.8351,649.3509,916.5701,648.7771,916.0321,648.4762,915.4161,648.2977,914.9257,648.1229,914.2851,647.8391,913.7339,648.0572,913.1957,648.2482,912.6061,648.9653,912.1398,649.4697,911.5348,650.0941,911.3339,650.8364,911.1608,651.7883,911.2636,652.3097,911.5095,652.9158,911.621,653.6529,912.3761,653.9098,913.1733,654.0214,913.7172,653.895,914.6135" style="stroke: #038048; stroke-width: 1.0;"/><text fill="#A9A9A9" font-family="courier" font-size="15" lengthAdjust="spacingAndGlyphs" text-decoration="underline" textLength="117" x="661" y="917.8726">getInstance()</text><polygon fill="#84BE84" points="654.0166,936.3992,653.5768,937,653.0567,937.8801,652.3128,938.4732,651.5311,938.7975,650.9078,938.8257,650.1067,938.42,649.3509,938.155,648.7771,937.617,648.4762,937.0011,648.2977,936.5107,648.1229,935.8701,647.8391,935.3188,648.0572,934.7806,648.2482,934.191,648.9653,933.7247,649.4697,933.1197,650.0941,932.9188,650.8364,932.7458,651.7883,932.8486,652.3097,933.0945,652.9158,933.2059,653.6529,933.9611,653.9098,934.7582,654.0214,935.3022,653.895,936.1985" style="stroke: #038048; stroke-width: 1.0;"/><text fill="#A9A9A9" font-family="courier" font-size="15" lengthAdjust="spacingAndGlyphs" textLength="108" x="661" y="939.4575">openSchool()</text><polygon fill="#84BE84" points="654.0166,957.9841,653.5768,958.585,653.0567,959.465,652.3128,960.0581,651.5311,960.3825,650.9078,960.4106,650.1067,960.005,649.3509,959.74,648.7771,959.202,648.4762,958.5861,648.2977,958.0956,648.1229,957.455,647.8391,956.9038,648.0572,956.3656,648.2482,955.776,648.9653,955.3097,649.4697,954.7047,650.0941,954.5038,650.8364,954.3308,651.7883,954.4336,652.3097,954.6794,652.9158,954.7909,653.6529,955.546,653.9098,956.3432,654.0214,956.8871,653.895,957.7835" style="stroke: #038048; stroke-width: 1.0;"/><text fill="#A9A9A9" font-family="courier" font-size="15" lengthAdjust="spacingAndGlyphs" textLength="135" x="661" y="961.0425">openClassRoom()</text><polygon fill="#84BE84" points="654.0166,979.5691,653.5768,980.1699,653.0567,981.05,652.3128,981.6431,651.5311,981.9674,650.9078,981.9956,650.1067,981.59,649.3509,981.325,648.7771,980.787,648.4762,980.171,648.2977,979.6806,648.1229,979.04,647.8391,978.4888,648.0572,977.9505,648.2482,977.361,648.9653,976.8947,649.4697,976.2897,650.0941,976.0887,650.8364,975.9157,651.7883,976.0185,652.3097,976.2644,652.9158,976.3759,653.6529,977.131,653.9098,977.9282,654.0214,978.4721,653.895,979.3684" style="stroke: #038048; stroke-width: 1.0;"/><text fill="#A9A9A9" font-family="courier" font-size="15" lengthAdjust="spacingAndGlyphs" textLength="144" x="661" y="982.6274">closeClassRoom()</text><polygon fill="#84BE84" points="654.0166,1001.154,653.5768,1001.7549,653.0567,1002.635,652.3128,1003.2281,651.5311,1003.5524,650.9078,1003.5805,650.1067,1003.1749,649.3509,1002.9099,648.7771,1002.3719,648.4762,1001.756,648.2977,1001.2656,648.1229,1000.625,647.8391,1000.0737,648.0572,999.5355,648.2482,998.9459,648.9653,998.4796,649.4697,997.8746,650.0941,997.6737,650.8364,997.5007,651.7883,997.6035,652.3097,997.8494,652.9158,997.9608,653.6529,998.7159,653.9098,999.5131,654.0214,1000.057,653.895,1000.9534" style="stroke: #038048; stroke-width: 1.0;"/><text fill="#A9A9A9" font-family="courier" font-size="15" lengthAdjust="spacingAndGlyphs" textLength="171" x="661" y="1004.2124">provideSchoolKeys()</text><path d="M90,829 L90,997.6797 A0,0 0 0 0 90,997.6797 L605,997.6797 A0,0 0 0 0 605,997.6797 L605,917.5 L639.77,913.5 L605,909.5 L605,839 L595,829 L90,829 A0,0 0 0 0 90,829 " fill="#222222" style="stroke: #A9A9A9; stroke-width: 3.0;"/><path d="M595,829 L595.1868,829 L594.6317,831 L595.1718,833 L595.3553,835 L594.3659,837 L595,839 L595,838.9309 L597,838.6209 L599,838.6591 L601,838.9394 L603,838.3854 L605,839 L605.348,839.348 L602.6038,836.6038 L600.8757,834.8757 L599.2715,833.2715 L596.9461,830.9461 L595,829 " fill="#222222" style="stroke: #A9A9A9; stroke-width: 3.0;"/><text fill="#A9A9A9" font-family="courier" font-size="20" lengthAdjust="spacingAndGlyphs" textLength="264" x="97" y="855.1074">public getInstance() {</text><text fill="#A9A9A9" font-family="courier" font-size="20" lengthAdjust="spacingAndGlyphs" textLength="336" x="121" y="881.2207">if (securityGuard == null) {</text><text fill="#A9A9A9" font-family="courier" font-size="20" lengthAdjust="spacingAndGlyphs" textLength="432" x="157" y="907.334">securityGuard = new SecurityGuard();</text><text fill="#A9A9A9" font-family="courier" font-size="20" lengthAdjust="spacingAndGlyphs" textLength="12" x="121" y="933.4473">}</text><text fill="#A9A9A9" font-family="courier" font-size="20" lengthAdjust="spacingAndGlyphs" textLength="252" x="121" y="959.5605">return securityGuard;</text><text fill="#A9A9A9" font-family="courier" font-size="20" lengthAdjust="spacingAndGlyphs" textLength="12" x="97" y="985.6738">}</text><!--link Scenario to School--><path d="M739.5,84.04 L739.7802,84.04 L738.9476,94.972 L739.7577,105.904 L740.0329,116.836 L738.5488,127.768 L739.5,138.7 " fill="none" style="stroke: #A9A9A9; stroke-width: 2.0; stroke-dasharray: 7.0,7.0;"/><polygon fill="#A9A9A9" points="739.5,143.89,739.564,143.9185,740.1738,142.0339,741.1589,140.3162,742.0217,138.5441,742.4827,136.5934,743.5,134.89,743.4817,134.8717,742.5995,135.5895,741.8096,136.3996,741.0839,137.2739,740.137,137.927,739.5,138.89,739.6305,139.0205,738.5514,137.9414,737.8534,137.2434,737.2018,136.5918,736.2798,135.6698,735.5,134.89,735.5208,134.8992,736.2903,136.6857,737.1544,138.5142,737.9728,140.3224,738.8784,142.1693,739.5,143.89" style="stroke: #A9A9A9; stroke-width: 2.0;"/><!--link School to ManagementBoard--><path d="M695.26,269.02 L695.4939,269.1744 L689.4123,276.8739 L684.7017,285.4787 L679.5447,293.7886 L672.9196,301.1292 L668.2402,309.7546 L662.94,317.97 " fill="none" style="stroke: #A9A9A9; stroke-width: 2.0;"/><polygon fill="#A9A9A9" points="702.46,258.1,702.4872,258.1645,701.0776,258.5335,699.8276,259.2809,698.5256,259.9051,697.0526,260.1241,695.8164,260.9039,695.7905,260.9038,695.6808,262.3455,695.7017,263.7877,695.8134,265.2304,695.6123,266.6717,695.8493,268.1149,695.9211,268.285,697.0964,267.3606,698.4812,266.9326,699.8915,266.5652,701.1531,265.8455,702.493,265.311,702.5157,265.3111,702.4757,263.8688,702.5393,262.4269,702.5529,260.9848,702.6618,259.5431,702.46,258.1" style="stroke: #A9A9A9; stroke-width: 2.0;"/><!--link School to Departament--><path d="M783.74,269.02 L783.9739,269.1744 L788.6657,276.8739 L794.7284,285.4787 L800.3447,293.7886 L804.4929,301.1292 L810.5869,309.7546 L816.06,317.97 " fill="none" style="stroke: #A9A9A9; stroke-width: 2.0;"/><polygon fill="#A9A9A9" points="776.54,258.1,776.6101,258.1003,776.3953,259.5416,776.5912,260.9847,776.6534,262.4272,776.2758,263.8677,776.507,265.311,776.4969,265.2872,777.7805,265.7408,779.1148,266.3148,780.4844,266.9724,781.7323,267.3418,783.1507,268.1149,783.3352,268.1158,782.9472,266.6718,783.0979,265.2302,783.3144,263.789,783.1485,262.346,783.1836,260.9039,783.1925,260.9249,781.8508,260.3333,780.5493,259.8372,779.2285,259.295,777.9446,258.8407,776.54,258.1" style="stroke: #A9A9A9; stroke-width: 2.0;"/><!--link ManagementBoard to Professor--><path d="M658.75,406.21 L659.0092,406.3166 L662.0547,415.2755 L666.6196,424.8593 L670.6897,434.2396 L673.1328,442.9506 L677.7323,452.5487 L681.1178,461.6474 L684.9865,470.9448 L689.191,480.3804 L692.2381,489.3399 L697.5889,499.2471 L699.9447,507.9222 L704.2936,517.4172 L708.8858,527.0122 L712.063,536.0252 L716.0685,545.379 L719.8,554.62 " fill="none" style="stroke: #A9A9A9; stroke-width: 2.0;"/><polygon fill="#A9A9A9" points="653.73,394.02,653.7987,394.0338,653.3113,395.407,653.2266,396.8609,653.0108,398.2886,652.3638,399.6298,652.3137,401.0906,652.2992,401.0692,653.4307,401.7781,654.6351,402.5953,655.8902,403.4879,656.9706,404.121,658.2957,405.1175,658.4766,405.1537,658.3729,403.6621,658.7976,402.2763,659.2867,400.9034,659.4007,399.4554,659.712,398.0469,659.7247,398.0657,658.5097,397.2327,657.3524,396.4855,656.1673,395.6969,655.0354,394.9873,653.73,394.02" style="stroke: #A9A9A9; stroke-width: 2.0;"/><!--link Departament to Professor--><path d="M820.25,406.21 L820.5092,406.3166 L815.9235,415.2755 L812.8571,424.8593 L809.296,434.2396 L804.1078,442.9506 L801.076,452.5487 L796.8303,461.6474 L793.0677,470.9448 L789.641,480.3804 L785.0569,489.3399 L782.7764,499.2471 L777.5009,507.9222 L774.2186,517.4172 L771.1795,527.0122 L766.7255,536.0252 L763.0998,545.379 L759.2,554.62 " fill="none" style="stroke: #A9A9A9; stroke-width: 2.0;"/><polygon fill="#A9A9A9" points="825.27,394.02,825.3091,394.0781,823.9965,394.7108,822.9132,395.6842,821.7552,396.5466,820.3516,397.0442,819.288,398.0469,819.2626,398.0418,819.4319,399.4331,819.7292,400.85,820.1155,402.2848,820.1951,403.6581,820.7043,405.1175,820.8074,405.2706,821.7834,404.1378,823.0603,403.4521,824.3739,402.8208,825.474,401.8723,826.6863,401.0906,826.7086,401.0951,826.3926,399.6744,826.1781,398.2741,825.9147,396.8639,825.7447,395.4725,825.27,394.02" style="stroke: #A9A9A9; stroke-width: 2.0;"/><!--link Professor to SecurityGuard--><path d="M739.5,652.29 L739.7802,652.29 L738.9476,662.0125 L739.7577,671.735 L740.0329,681.4575 L738.5488,691.18 L739.3964,700.9025 L738.9313,710.625 L738.9887,720.3475 L739.4091,730.07 L738.5782,739.7925 L740.2382,749.515 L738.6596,759.2375 L739.2363,768.96 L740.0759,778.6825 L739.3856,788.405 L739.591,798.1275 L739.5,807.85 " fill="none" style="stroke: #A9A9A9; stroke-width: 2.0;"/><polygon fill="#A9A9A9" points="739.5,812.92,739.564,812.9485,740.1738,811.0639,741.1589,809.3462,742.0217,807.5741,742.4827,805.6234,743.5,803.92,743.4817,803.9017,742.5995,804.6195,741.8096,805.4296,741.0839,806.3039,740.137,806.957,739.5,807.92,739.6305,808.0505,738.5514,806.9714,737.8534,806.2734,737.2018,805.6218,736.2798,804.6998,735.5,803.92,735.5208,803.9292,736.2903,805.7157,737.1544,807.5442,737.9728,809.3524,738.8784,811.1993,739.5,812.92" style="stroke: #A9A9A9; stroke-width: 2.0;"/><!--
@startuml
skinparam backgroundColor #222222
skinparam handwritten true
hide circle

skinparam shadowing false
skinparam padding 1
skinparam arrow {
    Thickness 2
    Color #DarkGrey
    FontSize 20
    FontName courier
    FontStyle normal
    FontColor #DarkGrey
}
skinparam class {
    BorderThickness 3
    BorderColor #228B22
    BackgroundColor #222222
    FontSize 20
    FontName courier
    FontStyle bold
    FontColor #228B22
    stereotypeFontColor #228B22
}
skinparam classAttribute {
    FontSize 15
    FontName courier
    FontStyle normal
    FontColor #DarkGrey
}
skinparam note {
    BorderThickness 3
    BorderColor #DarkGrey
    BackgroundColor #222222
    FontSize 20
    FontName courier
    FontStyle normal
    FontColor #DarkGrey
}

class Scenario  {
+ main()
}

class School <<Director>>  {
+ School()
+ startAcademicYear()
}

class ManagementBoard  {
+ ManagementBoard()
}

class Departament  {
+ Departament()
}

class Professor  {
+ Professor()
+ teach()
}
note left
public Professor (String) {
  this.title = title;
  this.securityGuard = securityGuard.getInstance();
}

public teach() {
  this.securityGuard.openClassRoom();
  // Teaching
  ...
  this.securityGuard.closeClassRoom();
}
end note

class SecurityGuard <<Singleton>>  {
+ {static} Printer printer
+ {static} getInstance()
+ openSchool()
+ openClassRoom()
+ closeClassRoom()
+ provideSchoolKeys()
}
note left
public getInstance() {
  if (securityGuard == null) {
     securityGuard = new SecurityGuard();
  }
  return securityGuard;
}
end note

Scenario ..> School
School *- - ManagementBoard
School *- - Departament
ManagementBoard *- - Professor
Departament *- - Professor
Professor - -> SecurityGuard
@enduml

PlantUML version 1.2019.05(Sat Apr 20 18:45:36 CEST 2019)
(GPL source distribution)
Java Runtime: Java(TM) SE Runtime Environment
JVM: Java HotSpot(TM) 64-Bit Server VM
Java Version: 11.0.14+8-LTS-263
Operating System: Windows 10
OS Version: 10.0
Default Encoding: windows-1252
Language: es
Country: ES
--></g></svg>