<?xml version="1.0" encoding="UTF-8" standalone="no"?><svg xmlns="http://www.w3.org/2000/svg" xmlns:xlink="http://www.w3.org/1999/xlink" contentScriptType="application/ecmascript" contentStyleType="text/css" height="650px" preserveAspectRatio="none" style="width:817px;height:650px;background:#222222;" version="1.1" viewBox="0 0 817 650" width="817px" zoomAndPan="magnify"><defs/><g><!--class Scenario--><polygon fill="#222222" points="596.5,8,596.5,8.2102,606.9,7.5857,617.3,8.1933,627.7,8.3997,638.1,7.2866,648.5,7.9223,658.9,7.5735,669.3,7.6165,679.7,7.9318,690.1,7.3086,700.5,8,701.0536,8,699.8697,17.4623,700.3022,26.9246,700.9319,36.3868,700.4142,45.8491,700.5682,55.3114,700.4681,64.7737,700.6785,74.236,700.5,83.6982,700.5,83.9374,690.1,84.2839,679.7,84.3693,669.3,84.3775,658.9,83.9529,648.5,84.1618,638.1,84.4005,627.7,82.9771,617.3,84.3768,606.9,83.4017,596.5,83.6982,597.0338,83.6982,596.005,74.236,596.4315,64.7737,597.2416,55.3114,596.4513,45.8491,596.6053,36.3868,596.8386,26.9246,596.9162,17.4623,596.5,8" style="stroke: #228B22; stroke-width: 3.0;"/><text fill="#228B22" font-family="courier" font-size="20" font-weight="bold" lengthAdjust="spacingAndGlyphs" textLength="96" x="600.5" y="34.1074">Scenario</text><path d="M597.5,46.1133 L597.5,46.3935 L607.7,45.5609 L617.9,46.371 L628.1,46.6462 L638.3,45.1621 L648.5,46.0097 L658.7,45.5446 L668.9,45.6019 L679.1,46.0224 L689.3,45.1915 L699.5,46.1133 " fill="#222222" style="stroke: #228B22; stroke-width: 3.0;"/><path d="M597.5,54.1133 L597.5,54.3935 L607.7,53.5609 L617.9,54.371 L628.1,54.6462 L638.3,53.1621 L648.5,54.0097 L658.7,53.5446 L668.9,53.6019 L679.1,54.0224 L689.3,53.1915 L699.5,54.1133 " fill="#222222" style="stroke: #228B22; stroke-width: 3.0;"/><polygon fill="#84BE84" points="610.5166,71.1355,610.0768,71.7363,609.5567,72.6164,608.8128,73.2095,608.0311,73.5338,607.4078,73.562,606.6067,73.1564,605.8509,72.8914,605.2771,72.3534,604.9762,71.7374,604.7977,71.247,604.6229,70.6064,604.3391,70.0552,604.5572,69.5169,604.7482,68.9274,605.4653,68.4611,605.9697,67.8561,606.5941,67.6552,607.3364,67.4821,608.2883,67.5849,608.8097,67.8308,609.4158,67.9423,610.1529,68.6974,610.4098,69.4946,610.5214,70.0385,610.395,70.9348" style="stroke: #038048; stroke-width: 1.0;"/><text fill="#A9A9A9" font-family="courier" font-size="15" lengthAdjust="spacingAndGlyphs" textLength="54" x="617.5" y="74.1938">main()</text><!--class Poet--><polygon fill="#222222" points="520.5,182,520.5,182.2102,530.2143,181.5857,539.9286,182.1933,549.6429,182.3997,559.3571,181.2866,569.0714,181.9223,578.7857,181.5735,588.5,181.6165,598.2143,181.9318,607.9286,181.3086,617.6429,182.5536,627.3571,181.3697,637.0714,181.8022,646.7857,182.4319,656.5,182,656.4142,182,656.5682,192.3102,656.4681,202.6204,656.6785,212.9307,656.7391,223.2409,657.0857,233.5511,657.1711,243.8613,657.1793,254.1715,656.7546,264.4818,656.5,274.792,656.5,275.2556,646.7857,275.4942,637.0714,274.0708,627.3571,275.4705,617.6429,274.4955,607.9286,275.3258,598.2143,274.297,588.5,274.7235,578.7857,275.5336,569.0714,274.7433,559.3571,274.8973,549.6429,275.1306,539.9286,275.2082,530.2143,274.7881,520.5,274.792,520.7872,274.792,519.9276,264.4818,520.7844,254.1715,521.0482,243.8613,520.9445,233.5511,521.113,223.2409,520.0169,212.9307,519.8478,202.6204,519.8786,192.3102,520.5,182" style="stroke: #228B22; stroke-width: 3.0;"/><text fill="#228B22" font-family="sans-serif" font-size="12" font-style="italic" lengthAdjust="spacingAndGlyphs" textLength="57" x="560" y="200.457">«Director»</text><text fill="#228B22" font-family="courier" font-size="20" font-weight="bold" lengthAdjust="spacingAndGlyphs" textLength="48" x="564.5" y="225.2012">Poet</text><path d="M521.5,237.207 L521.5,237.4873 L531.8077,236.6546 L542.1154,237.4647 L552.4231,237.7399 L562.7308,236.2558 L573.0385,237.1034 L583.3462,236.6384 L593.6538,236.6957 L603.9615,237.1162 L614.2692,236.2852 L624.5769,237.9452 L634.8846,236.3667 L645.1923,236.9433 L655.5,237.207 " fill="#222222" style="stroke: #228B22; stroke-width: 3.0;"/><path d="M521.5,245.207 L521.5,245.4873 L531.8077,244.6546 L542.1154,245.4647 L552.4231,245.7399 L562.7308,244.2558 L573.0385,245.1034 L583.3462,244.6384 L593.6538,244.6957 L603.9615,245.1162 L614.2692,244.2852 L624.5769,245.9452 L634.8846,244.3667 L645.1923,244.9433 L655.5,245.207 " fill="#222222" style="stroke: #228B22; stroke-width: 3.0;"/><polygon fill="#84BE84" points="534.5166,262.2292,534.0768,262.8301,533.5567,263.7102,532.8128,264.3033,532.0311,264.6276,531.4078,264.6557,530.6067,264.2501,529.8509,263.9851,529.2771,263.4471,528.9762,262.8312,528.7977,262.3407,528.6229,261.7002,528.3391,261.1489,528.5572,260.6107,528.7482,260.0211,529.4653,259.5548,529.9697,258.9498,530.5941,258.7489,531.3364,258.5759,532.2883,258.6787,532.8097,258.9246,533.4158,259.036,534.1529,259.7911,534.4098,260.5883,534.5214,261.1322,534.395,262.0286" style="stroke: #038048; stroke-width: 1.0;"/><text fill="#A9A9A9" font-family="courier" font-size="15" lengthAdjust="spacingAndGlyphs" textLength="108" x="541.5" y="265.2876">sell(poemid)</text><path d="M6,144 L6,312.6797 A0,0 0 0 0 6,312.6797 L485,312.6797 A0,0 0 0 0 485,312.6797 L485,232.5 L520.393,228.5 L485,224.5 L485,154 L475,144 L6,144 A0,0 0 0 0 6,144 " fill="#222222" style="stroke: #A9A9A9; stroke-width: 3.0;"/><path d="M475,144 L475.1868,144 L474.6317,146 L475.1718,148 L475.3553,150 L474.3659,152 L475,154 L475,153.9309 L477,153.6209 L479,153.6591 L481,153.9394 L483,153.3854 L485,154 L485.348,154.348 L482.6038,151.6038 L480.8757,149.8757 L479.2715,148.2715 L476.9461,145.9461 L475,144 " fill="#222222" style="stroke: #A9A9A9; stroke-width: 3.0;"/><text fill="#A9A9A9" font-family="courier" font-size="20" lengthAdjust="spacingAndGlyphs" textLength="324" x="13" y="170.1074">public sell(poem, poemid) {</text><text fill="#A9A9A9" font-family="courier" font-size="20" lengthAdjust="spacingAndGlyphs" textLength="36" x="37" y="196.2207">...</text><text fill="#A9A9A9" font-family="courier" font-size="20" lengthAdjust="spacingAndGlyphs" textLength="432" x="37" y="222.334">requestedPoem = poem.getPoem(poemid)</text><text fill="#A9A9A9" font-family="courier" font-size="20" lengthAdjust="spacingAndGlyphs" textLength="252" x="37" y="248.4473">requestedPoem.copy();</text><text fill="#A9A9A9" font-family="courier" font-size="20" lengthAdjust="spacingAndGlyphs" textLength="36" x="37" y="274.5605">...</text><text fill="#A9A9A9" font-family="courier" font-size="20" lengthAdjust="spacingAndGlyphs" textLength="12" x="13" y="300.6738">}</text><!--class Poem--><polygon fill="#222222" points="594,373,594,373.2102,603.9091,372.5857,613.8182,373.1933,623.7273,373.3997,633.6364,372.2866,643.5455,372.9223,653.4545,372.5735,663.3636,372.6165,673.2727,372.9318,683.1818,372.3086,693.0909,373.5536,703,373,702.3697,373,702.8022,383.3979,703.4319,393.7958,702.9142,404.1937,703.0682,414.5916,702.9681,424.9895,703.1785,435.3874,703.2391,445.7853,703.5857,456.1832,703.6711,466.5811,703.6793,476.979,703,487.377,703,487.6316,693.0909,487.8405,683.1818,488.0792,673.2727,486.6558,663.3636,488.0555,653.4545,487.0804,643.5455,487.9108,633.6364,486.8819,623.7273,487.3085,613.8182,488.1186,603.9091,487.3282,594,487.377,594.1053,487.377,594.3386,476.979,594.4162,466.5811,593.9961,456.1832,594.2872,445.7853,593.4276,435.3874,594.2844,424.9895,594.5482,414.5916,594.4445,404.1937,594.613,393.7958,593.5169,383.3979,594,373" style="stroke: #228B22; stroke-width: 3.0;"/><text fill="#228B22" font-family="sans-serif" font-size="12" font-style="italic" lengthAdjust="spacingAndGlyphs" textLength="66" x="615.5" y="391.457">«Prototype»</text><text fill="#228B22" font-family="courier" font-size="20" font-weight="bold" lengthAdjust="spacingAndGlyphs" textLength="48" x="624.5" y="416.2012">Poem</text><path d="M595,428.207 L595,428.4873 L604.7273,427.6546 L614.4545,428.4647 L624.1818,428.7399 L633.9091,427.2558 L643.6364,428.1034 L653.3636,427.6384 L663.0909,427.6957 L672.8182,428.1162 L682.5455,427.2852 L692.2727,428.9452 L702,428.207 " fill="#222222" style="stroke: #228B22; stroke-width: 3.0;"/><path d="M595,436.207 L595,436.4873 L604.7273,435.6546 L614.4545,436.4647 L624.1818,436.7399 L633.9091,435.2558 L643.6364,436.1034 L653.3636,435.6384 L663.0909,435.6957 L672.8182,436.1162 L682.5455,435.2852 L692.2727,436.9452 L702,436.207 " fill="#222222" style="stroke: #228B22; stroke-width: 3.0;"/><polygon fill="#84BE84" points="608.0166,453.2292,607.5768,453.8301,607.0567,454.7102,606.3128,455.3033,605.5311,455.6276,604.9078,455.6557,604.1067,455.2501,603.3509,454.9851,602.7771,454.4471,602.4762,453.8312,602.2977,453.3407,602.1229,452.7002,601.8391,452.1489,602.0572,451.6107,602.2482,451.0211,602.9653,450.5548,603.4697,449.9498,604.0941,449.7489,604.8364,449.5759,605.7883,449.6787,606.3097,449.9246,606.9158,450.036,607.6529,450.7911,607.9098,451.5883,608.0214,452.1322,607.895,453.0286" style="stroke: #038048; stroke-width: 1.0;"/><text fill="#A9A9A9" font-family="courier" font-size="15" lengthAdjust="spacingAndGlyphs" textLength="81" x="615" y="456.2876">getPoem()</text><polygon fill="#84BE84" points="608.0166,474.8142,607.5768,475.4151,607.0567,476.2951,606.3128,476.8882,605.5311,477.2125,604.9078,477.2407,604.1067,476.8351,603.3509,476.5701,602.7771,476.0321,602.4762,475.4161,602.2977,474.9257,602.1229,474.2851,601.8391,473.7339,602.0572,473.1957,602.2482,472.6061,602.9653,472.1398,603.4697,471.5348,604.0941,471.3339,604.8364,471.1608,605.7883,471.2636,606.3097,471.5095,606.9158,471.621,607.6529,472.3761,607.9098,473.1733,608.0214,473.7172,607.895,474.6135" style="stroke: #038048; stroke-width: 1.0;"/><text fill="#A9A9A9" font-family="courier" font-size="15" lengthAdjust="spacingAndGlyphs" textLength="54" x="615" y="477.8726">copy()</text><!--class LaCasadaInfiel--><polygon fill="#222222" points="467.5,547,467.5,547.2102,477.2778,546.5857,487.0556,547.1933,496.8333,547.3997,506.6111,546.2866,516.3889,546.9223,526.1667,546.5735,535.9444,546.6165,545.7222,546.9318,555.5,546.3086,565.2778,547.5536,575.0556,546.3697,584.8333,546.8022,594.6111,547.4319,604.3889,546.9142,614.1667,547.0682,623.9444,546.9681,633.7222,547.1785,643.5,547,643.7391,547,644.0857,557.3102,644.1711,567.6204,644.1793,577.9307,643.7546,588.2409,643.9636,598.5511,644.2022,608.8613,642.7788,619.1715,644.1785,629.4818,643.5,639.792,643.5,639.4955,633.7222,640.3258,623.9444,639.297,614.1667,639.7235,604.3889,640.5336,594.6111,639.7433,584.8333,639.8973,575.0556,640.1306,565.2778,640.2082,555.5,639.7881,545.7222,640.0792,535.9444,639.2196,526.1667,640.0764,516.3889,640.3402,506.6111,640.2365,496.8333,640.405,487.0556,639.3089,477.2778,639.1398,467.5,639.792,466.8786,639.792,467.4411,629.4818,467.3035,619.1715,468.1814,608.8613,467.3253,598.5511,467.1569,588.2409,467.7283,577.9307,466.8332,567.6204,466.9809,557.3102,467.5,547" style="stroke: #228B22; stroke-width: 3.0;"/><text fill="#228B22" font-family="sans-serif" font-size="12" font-style="italic" lengthAdjust="spacingAndGlyphs" textLength="124" x="493.5" y="565.457">«ConcretePrototypeA»</text><text fill="#228B22" font-family="courier" font-size="20" font-weight="bold" lengthAdjust="spacingAndGlyphs" textLength="168" x="471.5" y="590.2012">LaCasadaInfiel</text><path d="M468.5,602.207 L468.5,602.4873 L478.7353,601.6546 L488.9706,602.4647 L499.2059,602.7399 L509.4412,601.2558 L519.6765,602.1034 L529.9118,601.6384 L540.1471,601.6957 L550.3824,602.1162 L560.6176,601.2852 L570.8529,602.9452 L581.0882,601.3667 L591.3235,601.9433 L601.5588,602.783 L611.7941,602.0927 L622.0294,602.298 L632.2647,602.1644 L642.5,602.207 " fill="#222222" style="stroke: #228B22; stroke-width: 3.0;"/><path d="M468.5,610.207 L468.5,610.4873 L478.7353,609.6546 L488.9706,610.4647 L499.2059,610.7399 L509.4412,609.2558 L519.6765,610.1034 L529.9118,609.6384 L540.1471,609.6957 L550.3824,610.1162 L560.6176,609.2852 L570.8529,610.9452 L581.0882,609.3667 L591.3235,609.9433 L601.5588,610.783 L611.7941,610.0927 L622.0294,610.298 L632.2647,610.1644 L642.5,610.207 " fill="#222222" style="stroke: #228B22; stroke-width: 3.0;"/><polygon fill="#84BE84" points="481.5166,627.2292,481.0768,627.8301,480.5567,628.7102,479.8128,629.3033,479.0311,629.6276,478.4078,629.6557,477.6067,629.2501,476.8509,628.9851,476.2771,628.4471,475.9762,627.8312,475.7977,627.3407,475.6229,626.7002,475.3391,626.1489,475.5572,625.6107,475.7482,625.0211,476.4653,624.5548,476.9697,623.9498,477.5941,623.7489,478.3364,623.5759,479.2883,623.6787,479.8097,623.9246,480.4158,624.036,481.1529,624.7911,481.4098,625.5883,481.5214,626.1322,481.395,627.0286" style="stroke: #038048; stroke-width: 1.0;"/><text fill="#A9A9A9" font-family="courier" font-size="15" lengthAdjust="spacingAndGlyphs" textLength="54" x="488.5" y="630.2876">copy()</text><!--class PoemaXX--><polygon fill="#222222" points="678.5,547,678.5,547.2102,688.3462,546.5857,698.1923,547.1933,708.0385,547.3997,717.8846,546.2866,727.7308,546.9223,737.5769,546.5735,747.4231,546.6165,757.2692,546.9318,767.1154,546.3086,776.9615,547.5536,786.8077,546.3697,796.6538,546.8022,806.5,547,806.9319,547,806.4142,557.3102,806.5682,567.6204,806.4681,577.9307,806.6785,588.2409,806.7391,598.5511,807.0857,608.8613,807.1711,619.1715,807.1793,629.4818,806.5,639.792,806.5,640.0466,796.6538,640.2556,786.8077,640.4942,776.9615,639.0708,767.1154,640.4705,757.2692,639.4955,747.4231,640.3258,737.5769,639.297,727.7308,639.7235,717.8846,640.5336,708.0385,639.7433,698.1923,639.8973,688.3462,640.1306,678.5,639.792,678.9162,639.792,678.4961,629.4818,678.7872,619.1715,677.9276,608.8613,678.7844,598.5511,679.0482,588.2409,678.9445,577.9307,679.113,567.6204,678.0169,557.3102,678.5,547" style="stroke: #228B22; stroke-width: 3.0;"/><text fill="#228B22" font-family="sans-serif" font-size="12" font-style="italic" lengthAdjust="spacingAndGlyphs" textLength="124" x="680.5" y="565.457">«ConcretePrototypeB»</text><text fill="#228B22" font-family="courier" font-size="20" font-weight="bold" lengthAdjust="spacingAndGlyphs" textLength="84" x="700.5" y="590.2012">PoemaXX</text><path d="M679.5,602.207 L679.5,602.4873 L689.1923,601.6546 L698.8846,602.4647 L708.5769,602.7399 L718.2692,601.2558 L727.9615,602.1034 L737.6538,601.6384 L747.3462,601.6957 L757.0385,602.1162 L766.7308,601.2852 L776.4231,602.9452 L786.1154,601.3667 L795.8077,601.9433 L805.5,602.207 " fill="#222222" style="stroke: #228B22; stroke-width: 3.0;"/><path d="M679.5,610.207 L679.5,610.4873 L689.1923,609.6546 L698.8846,610.4647 L708.5769,610.7399 L718.2692,609.2558 L727.9615,610.1034 L737.6538,609.6384 L747.3462,609.6957 L757.0385,610.1162 L766.7308,609.2852 L776.4231,610.9452 L786.1154,609.3667 L795.8077,609.9433 L805.5,610.207 " fill="#222222" style="stroke: #228B22; stroke-width: 3.0;"/><polygon fill="#84BE84" points="692.5166,627.2292,692.0768,627.8301,691.5567,628.7102,690.8128,629.3033,690.0311,629.6276,689.4078,629.6557,688.6067,629.2501,687.8509,628.9851,687.2771,628.4471,686.9762,627.8312,686.7977,627.3407,686.6229,626.7002,686.3391,626.1489,686.5572,625.6107,686.7482,625.0211,687.4653,624.5548,687.9697,623.9498,688.5941,623.7489,689.3364,623.5759,690.2883,623.6787,690.8097,623.9246,691.4158,624.036,692.1529,624.7911,692.4098,625.5883,692.5214,626.1322,692.395,627.0286" style="stroke: #038048; stroke-width: 1.0;"/><text fill="#A9A9A9" font-family="courier" font-size="15" lengthAdjust="spacingAndGlyphs" textLength="54" x="699.5" y="630.2876">copy()</text><!--link Scenario to Poet--><path d="M636.068,84.4 L636.3339,84.4884 L632.4722,93.4661 L630.1694,102.9621 L627.3589,112.2893 L622.879,121.0616 L620.6117,130.5693 L617.0988,139.663 L614.0816,148.9215 L611.409,158.2945 L607.5488,167.2728 L605.352,176.804 " fill="none" style="stroke: #A9A9A9; stroke-width: 2.0; stroke-dasharray: 7.0,7.0;"/><polygon fill="#A9A9A9" points="603.683,181.825,603.7348,181.8722,604.9079,180.2762,606.3846,178.9569,607.7624,177.5476,608.8152,175.8419,610.3179,174.5464,610.3063,174.5232,609.2427,174.926,608.2376,175.4456,607.2731,176.0464,606.1686,176.3675,605.2603,177.0803,605.4253,177.163,604.5657,175.9747,604.1878,175.0277,603.8686,174.1102,603.2076,173.0214,602.7263,172.0227,602.749,172.0249,602.9071,173.9821,603.1682,175.9494,603.3797,177.9118,603.686,179.8835,603.683,181.825" style="stroke: #A9A9A9; stroke-width: 2.0;"/><!--link Scenario to Poem--><path d="M660.954,84.31 L661.0439,84.3355 L661.5747,87.0665 L662.6323,89.9472 L663.5183,92.7792 L663.8403,95.4508 L664.9431,98.3444 L664.9096,98.3359 L665.517,101.2945 L666.2931,104.2957 L667.1866,107.3265 L667.6757,110.2552 L668.7313,113.327 L668.9719,113.3784 L669.1145,116.3479 L669.9597,119.4673 L670.8906,122.605 L671.3228,125.6363 L672.0173,128.7236 L672.0472,128.7285 L672.4998,131.7766 L673.0887,134.8469 L673.6118,137.9065 L674.2604,140.9865 L674.5,144 L674.796,144.0365 L675.4305,149.153 L675.8742,154.2459 L676.5973,159.3733 L677.3335,164.5023 L677.6546,169.5802 L677.3359,169.5464 L678.1936,171.8662 L678.0017,174.0748 L678.6077,176.368 L678.392,178.5741 L678.8499,180.8515 L678.8196,180.8488 L679.3681,182.9758 L679.2081,185.0386 L679.4662,187.1393 L679.7594,189.2432 L679.7995,191.3241 L679.9841,191.3355 L680.0356,195.1618 L680.4026,199.0077 L680.2591,202.822 L680.877,206.6834 L680.9887,210.5134 L681.2323,210.5173 L681.2438,214.0999 L681.3763,217.6844 L680.9468,221.2598 L680.9292,224.8419 L681.2766,228.4299 L681.0006,228.4213 L681.1386,232.0141 L680.9657,235.5972 L681.2438,239.1944 L680.7517,242.7676 L680.7175,246.3551 L680.5654,246.3444 L680.5483,250.2053 L679.881,254.0205 L679.6761,257.8683 L679.9236,261.7478 L679.3655,265.5707 L679.5582,265.5892 L679.2723,269.9595 L678.3869,274.2722 L678.2524,278.6569 L677.9542,283.026 L677.2749,287.3585 L677.0662,287.3359 L676.6776,292.4822 L676.2206,297.6211 L675.898,302.7746 L675.0531,307.8715 L674.5,313 L674.7039,313.0266 L673.898,315.7071 L673.4857,318.439 L673.6482,321.246 L672.7524,323.9147 L672.7105,326.695 L672.9337,326.7318 L672.3427,329.4894 L671.6762,332.2346 L671.1801,335.0079 L671.078,337.8462 L670.4184,340.5925 L670.2877,340.5673 L670.1438,343.406 L669.1114,346.0735 L669.0892,348.9357 L668.4983,351.6882 L667.7541,354.4113 L667.8605,354.4342 L667.1934,357.1074 L666.9073,359.8629 L666.277,362.5441 L665.5027,365.1941 L664.848,367.87 " fill="none" style="stroke: #A9A9A9; stroke-width: 2.0; stroke-dasharray: 7.0,7.0;"/><polygon fill="#A9A9A9" points="663.719,372.781,663.775,372.8231,664.7914,371.123,666.1363,369.6696,667.3742,368.1358,668.2604,366.338,669.6334,364.9057,669.6196,364.8838,668.5991,365.3857,667.6478,365.9983,666.7447,366.6879,665.6756,367.1123,664.839,367.9081,664.9954,368.006,664.0605,366.8377,663.5822,365.9553,663.1596,365.1079,662.4129,364.0574,661.8367,363.1137,661.859,363.118,662.2027,365.0451,662.648,366.992,663.0443,368.9293,663.5342,370.8849,663.719,372.781" style="stroke: #A9A9A9; stroke-width: 2.0;"/><!--link Poet to Poem--><path d="M602.265,275.269 L602.5334,275.3497 L604.5143,284.3477 L608.0684,293.8188 L611.1102,303.1359 L612.4673,311.9462 L616.0573,321.4282 L618.3902,330.532 L621.2234,339.7863 L624.4044,349.1452 L626.3869,358.1437 L630.048,367.647 " fill="none" style="stroke: #A9A9A9; stroke-width: 2.0; stroke-dasharray: 7.0,7.0;"/><polygon fill="#A9A9A9" points="631.586,372.76,631.6555,372.7688,631.6966,370.7885,632.1451,368.8598,632.4609,366.9143,632.3405,364.9135,632.824,362.9893,632.8011,362.977,632.1631,363.9185,631.6401,364.9218,631.197,365.9681,630.4784,366.8663,630.1457,367.9719,630.2331,368.1345,629.0497,367.2512,628.1214,366.8426,627.2243,366.4918,626.146,365.8042,625.163,365.2937,625.1803,365.3085,626.4396,366.78,627.7773,368.319,629.0772,369.8255,630.4494,371.3941,631.586,372.76" style="stroke: #A9A9A9; stroke-width: 2.0;"/><!--link Poem to LaCasadaInfiel--><path d="M593.513,504.429 L593.5938,504.4758 L592.0909,506.517 L591.0619,508.8326 L589.8786,511.0588 L588.1878,512.9912 L587.1995,515.3304 L587.1693,515.3135 L585.8195,517.4064 L584.6215,519.5844 L583.5292,521.8216 L582.0729,523.855 L581.1264,526.1738 L581.3429,526.2907 L579.7338,528.1623 L578.7568,530.3754 L577.857,532.6301 L576.5084,534.6424 L575.3959,536.7822 L575.4228,536.7962 L574.3261,538.8149 L573.352,540.8972 L572.3187,542.9488 L571.3983,545.059 L570.11,546.9784 " fill="none" style="stroke: #A9A9A9; stroke-width: 2.0;"/><polygon fill="none" points="587.693,500.525,587.7376,500.579,590.8727,497.7199,594.2692,495.1775,597.5806,492.5319,600.612,489.5472,604.031,487.032,604.0056,487.0267,603.0203,491.15,602.1627,495.3001,601.394,499.4689,600.3191,503.5734,599.673,507.768,599.7685,507.9259,597.1683,506.1396,594.8469,504.8144,592.5595,503.5454,590.0742,501.9491,587.693,500.525" style="stroke: #A9A9A9; stroke-width: 2.0;"/><!--link Poem to LaCasadaInfiel--><path d="M622.849,498.715 L622.9304,498.7608 L621.3034,501.0846 L620.1535,503.677 L618.8482,506.1819 L617.0319,508.3991 L615.923,511.0146 L615.8932,510.9971 L614.3164,513.3817 L612.8898,515.8544 L611.5676,518.3882 L609.8856,520.7112 L608.7076,523.3295 L608.9178,523.4576 L606.997,525.5985 L605.6898,528.1132 L604.4574,530.6736 L602.7895,532.9686 L601.3507,535.4031 L601.3763,535.4194 L599.8686,537.7106 L598.4774,540.0758 L597.03,542.4053 L595.6899,544.8029 L594,546.9784 " fill="none" style="stroke: #A9A9A9; stroke-width: 2.0;"/><polygon fill="#A9A9A9" points="629.155,487.032,629.1878,487.0939,627.8163,487.5859,626.6372,488.4408,625.3954,489.1775,623.9475,489.5257,622.7849,490.4116,622.7591,490.4092,622.7773,491.8344,622.9255,493.2718,623.1641,494.7175,623.0912,496.1342,623.4546,497.5916,623.5411,497.7546,624.6301,496.7301,625.9717,496.1815,627.3441,495.691,628.5372,494.8626,629.8246,494.2119,629.8473,494.2141,629.6801,492.775,629.616,491.3455,629.5022,489.9114,629.4833,488.4861,629.155,487.032" style="stroke: #A9A9A9; stroke-width: 2.0;"/><!--link Poem to PoemaXX--><path d="M678.808,504.907 L678.8888,504.9538 L679.8985,506.9713 L681.3819,509.2633 L682.711,511.4659 L683.5328,513.3745 L685.0569,515.6901 L685.0273,515.6723 L686.1772,517.7368 L687.4766,519.8907 L688.8798,522.1068 L689.9251,524.1087 L691.4718,526.4106 L691.6811,526.5399 L692.5297,528.3606 L693.9895,530.559 L695.5238,532.8034 L696.6243,534.7798 L697.953,536.8971 L697.9785,536.9134 L699.2306,538.9057 L700.599,540.9724 L701.9113,543.0031 L703.3307,545.1024 L704.401,546.9784 " fill="none" style="stroke: #A9A9A9; stroke-width: 2.0;"/><polygon fill="none" points="672.474,507.919,672.5431,507.9308,671.6249,503.7184,671.1115,499.575,670.4663,495.4092,669.3876,491.1694,668.909,487.032,668.8918,487.0127,671.977,489.7469,675.1491,492.5786,678.3817,495.478,681.406,498.144,684.722,501.137,684.8114,501.2984,682.1706,502.3096,679.7909,503.7921,677.4429,505.3322,674.9097,506.5376,672.474,507.919" style="stroke: #A9A9A9; stroke-width: 2.0;"/><!--link Poem to PoemaXX--><path d="M700.968,498.241 L701.0483,498.2888 L702.2885,500.6296 L703.9993,503.2506 L705.5569,505.7803 L706.6106,508.0099 L708.3618,510.655 L708.3318,510.6378 L709.6214,513.0482 L711.0622,515.5452 L712.608,518.1023 L713.7918,520.4521 L715.4826,523.0922 L715.6983,523.2106 L716.5759,525.3966 L718.0833,527.9283 L719.6675,530.5021 L720.8046,532.8306 L722.1769,535.2881 L722.2038,535.3022 L723.3872,537.6196 L724.6929,540.001 L725.9395,542.3515 L727.2988,544.761 L728.291,546.9784 " fill="none" style="stroke: #A9A9A9; stroke-width: 2.0;"/><polygon fill="#A9A9A9" points="694.034,487.032,694.104,487.0344,693.8469,488.4687,694.0002,489.917,694.0199,491.3607,693.5999,492.7894,693.7885,494.2389,693.7777,494.2154,695.041,494.7093,696.3586,495.3221,697.7139,496.0174,698.9392,496.4281,700.3466,497.2374,700.5311,497.2437,700.1858,495.7889,700.3789,494.3524,700.6378,492.9182,700.5144,491.4709,700.5921,490.0305,700.6016,490.0512,699.2761,489.4211,697.9936,488.8852,696.6904,488.3039,695.4268,487.8093,694.034,487.032" style="stroke: #A9A9A9; stroke-width: 2.0;"/><!--
@startuml
skinparam backgroundColor #222222
skinparam handwritten true
hide circle

skinparam shadowing false
skinparam padding 1
skinparam arrow {
    Thickness 2
    Color #DarkGrey
    FontSize 20
    FontName courier
    FontStyle normal
    FontColor #DarkGrey
}
skinparam class {
    BorderThickness 3
    BorderColor #228B22
    BackgroundColor #222222
    FontSize 20
    FontName courier
    FontStyle bold
    FontColor #228B22
    stereotypeFontColor #228B22
}
skinparam classAttribute {
    FontSize 15
    FontName courier
    FontStyle normal
    FontColor #DarkGrey
}
skinparam note {
    BorderThickness 3
    BorderColor #DarkGrey
    BackgroundColor #222222
    FontSize 20
    FontName courier
    FontStyle normal
    FontColor #DarkGrey
}

class Scenario  {
+ main()
}

class Poet <<Director>>  {
+ sell(poemid)
}
note left
public sell(poem, poemid) {
  ...
  requestedPoem = poem.getPoem(poemid)
  requestedPoem.copy();
  ...
}
end note

class Poem <<Prototype>>  {
+ getPoem()
+ copy()
}

class LaCasadaInfiel <<ConcretePrototypeA>>  {
+ copy()
}

class PoemaXX <<ConcretePrototypeB>>  {
+ copy()
}

Scenario ..> Poet
Scenario ..> Poem
Poet ..> Poem
Poem <|- - LaCasadaInfiel
Poem *- - LaCasadaInfiel
Poem <|- - PoemaXX
Poem *- - PoemaXX
@enduml

PlantUML version 1.2019.05(Sat Apr 20 18:45:36 CEST 2019)
(GPL source distribution)
Java Runtime: Java(TM) SE Runtime Environment
JVM: Java HotSpot(TM) 64-Bit Server VM
Java Version: 11.0.8+10-LTS
Operating System: Windows 10
OS Version: 10.0
Default Encoding: windows-1252
Language: es
Country: ES
--></g></svg>