<?xml version="1.0" encoding="UTF-8" standalone="no"?><svg xmlns="http://www.w3.org/2000/svg" xmlns:xlink="http://www.w3.org/1999/xlink" contentScriptType="application/ecmascript" contentStyleType="text/css" height="673px" preserveAspectRatio="none" style="width:962px;height:673px;background:#222222;" version="1.1" viewBox="0 0 962 673" width="962px" zoomAndPan="magnify"><defs/><g><!--class Salad--><polygon fill="#222222" points="38,608,38,608.2102,47.7143,607.5857,57.4286,608.1933,67.1429,608.3997,76.8571,607.2866,86.5714,607.9223,96.2857,607.5735,106,608,105.6165,608,105.9318,618.8227,105.3086,629.6453,106.5536,640.468,105.3697,651.2906,106,662.1133,106,661.9155,96.2857,662.5452,86.5714,662.0275,76.8571,662.1815,67.1429,662.0813,57.4286,662.2918,47.7143,662.3524,38,662.1133,38.5857,662.1133,38.6711,651.2906,38.6793,640.468,38.2546,629.6453,38.4636,618.8227,38,608" style="stroke: #DC143C; stroke-width: 3.0;"/><text fill="#DC143C" font-family="courier" font-size="20" font-weight="bold" lengthAdjust="spacingAndGlyphs" textLength="60" x="42" y="634.1074">Salad</text><path d="M39,646.1133 L39,646.3935 L48.4286,645.5609 L57.8571,646.371 L67.2857,646.6462 L76.7143,645.1621 L86.1429,646.0097 L95.5714,645.5446 L105,646.1133 " fill="#222222" style="stroke: #DC143C; stroke-width: 3.0;"/><path d="M39,654.1133 L39,654.3935 L48.4286,653.5609 L57.8571,654.371 L67.2857,654.6462 L76.7143,653.1621 L86.1429,654.0097 L95.5714,653.5446 L105,654.1133 " fill="#222222" style="stroke: #DC143C; stroke-width: 3.0;"/><!--class Chicken--><polygon fill="#222222" points="141,608,141,608.2102,151.2222,607.5857,161.4444,608.1933,171.6667,608.3997,181.8889,607.2866,192.1111,607.9223,202.3333,607.5735,212.5556,607.6165,222.7778,607.9318,233,608,232.3086,608,233.5536,618.8227,232.3697,629.6453,232.8022,640.468,233.4319,651.2906,233,662.1133,233,662.0275,222.7778,662.1815,212.5556,662.0813,202.3333,662.2918,192.1111,662.3524,181.8889,662.699,171.6667,662.7843,161.4444,662.7925,151.2222,662.3679,141,662.1133,141.4636,662.1133,141.7022,651.2906,140.2788,640.468,141.6785,629.6453,140.7035,618.8227,141,608" style="stroke: #DC143C; stroke-width: 3.0;"/><text fill="#DC143C" font-family="courier" font-size="20" font-weight="bold" lengthAdjust="spacingAndGlyphs" textLength="84" x="145" y="634.1074">Chicken</text><path d="M142,646.1133 L142,646.3935 L152,645.5609 L162,646.371 L172,646.6462 L182,645.1621 L192,646.0097 L202,645.5446 L212,645.6019 L222,646.0224 L232,646.1133 " fill="#222222" style="stroke: #DC143C; stroke-width: 3.0;"/><path d="M142,654.1133 L142,654.3935 L152,653.5609 L162,654.371 L172,654.6462 L182,653.1621 L192,654.0097 L202,653.5446 L212,653.6019 L222,654.0224 L232,654.1133 " fill="#222222" style="stroke: #DC143C; stroke-width: 3.0;"/><!--class Custard--><polygon fill="#222222" points="268,608,268,608.2102,278.2222,607.5857,288.4444,608.1933,298.6667,608.3997,308.8889,607.2866,319.1111,607.9223,329.3333,607.5735,339.5556,607.6165,349.7778,607.9318,360,608,359.3086,608,360.5536,618.8227,359.3697,629.6453,359.8022,640.468,360.4319,651.2906,360,662.1133,360,662.0275,349.7778,662.1815,339.5556,662.0813,329.3333,662.2918,319.1111,662.3524,308.8889,662.699,298.6667,662.7843,288.4444,662.7925,278.2222,662.3679,268,662.1133,268.4636,662.1133,268.7022,651.2906,267.2788,640.468,268.6785,629.6453,267.7035,618.8227,268,608" style="stroke: #DC143C; stroke-width: 3.0;"/><text fill="#DC143C" font-family="courier" font-size="20" font-weight="bold" lengthAdjust="spacingAndGlyphs" textLength="84" x="272" y="634.1074">Custard</text><path d="M269,646.1133 L269,646.3935 L279,645.5609 L289,646.371 L299,646.6462 L309,645.1621 L319,646.0097 L329,645.5446 L339,645.6019 L349,646.0224 L359,646.1133 " fill="#222222" style="stroke: #DC143C; stroke-width: 3.0;"/><path d="M269,654.1133 L269,654.3935 L279,653.5609 L289,654.371 L299,654.6462 L309,653.1621 L319,654.0097 L329,653.5446 L339,653.6019 L349,654.0224 L359,654.1133 " fill="#222222" style="stroke: #DC143C; stroke-width: 3.0;"/><!--class Oyster--><polygon fill="#222222" points="395,608,395,608.2102,405,607.5857,415,608.1933,425,608.3997,435,607.2866,445,607.9223,455,607.5735,465,607.6165,475,608,474.9318,608,474.3086,618.8227,475.5536,629.6453,474.3697,640.468,474.8022,651.2906,475,662.1133,475,662.5452,465,662.0275,455,662.1815,445,662.0813,435,662.2918,425,662.3524,415,662.699,405,662.7843,395,662.1133,395.6793,662.1133,395.2546,651.2906,395.4636,640.468,395.7022,629.6453,394.2788,618.8227,395,608" style="stroke: #DC143C; stroke-width: 3.0;"/><text fill="#DC143C" font-family="courier" font-size="20" font-weight="bold" lengthAdjust="spacingAndGlyphs" textLength="72" x="399" y="634.1074">Oyster</text><path d="M396,646.1133 L396,646.3935 L405.75,645.5609 L415.5,646.371 L425.25,646.6462 L435,645.1621 L444.75,646.0097 L454.5,645.5446 L464.25,645.6019 L474,646.1133 " fill="#222222" style="stroke: #DC143C; stroke-width: 3.0;"/><path d="M396,654.1133 L396,654.3935 L405.75,653.5609 L415.5,654.371 L425.25,654.6462 L435,653.1621 L444.75,654.0097 L454.5,653.5446 L464.25,653.6019 L474,654.1133 " fill="#222222" style="stroke: #DC143C; stroke-width: 3.0;"/><!--class Sirloin--><polygon fill="#222222" points="510,608,510,608.2102,520.2222,607.5857,530.4444,608.1933,540.6667,608.3997,550.8889,607.2866,561.1111,607.9223,571.3333,607.5735,581.5556,607.6165,591.7778,607.9318,602,608,601.3086,608,602.5536,618.8227,601.3697,629.6453,601.8022,640.468,602.4319,651.2906,602,662.1133,602,662.0275,591.7778,662.1815,581.5556,662.0813,571.3333,662.2918,561.1111,662.3524,550.8889,662.699,540.6667,662.7843,530.4444,662.7925,520.2222,662.3679,510,662.1133,510.4636,662.1133,510.7022,651.2906,509.2788,640.468,510.6785,629.6453,509.7035,618.8227,510,608" style="stroke: #DC143C; stroke-width: 3.0;"/><text fill="#DC143C" font-family="courier" font-size="20" font-weight="bold" lengthAdjust="spacingAndGlyphs" textLength="84" x="514" y="634.1074">Sirloin</text><path d="M511,646.1133 L511,646.3935 L521,645.5609 L531,646.371 L541,646.6462 L551,645.1621 L561,646.0097 L571,645.5446 L581,645.6019 L591,646.0224 L601,646.1133 " fill="#222222" style="stroke: #DC143C; stroke-width: 3.0;"/><path d="M511,654.1133 L511,654.3935 L521,653.5609 L531,654.371 L541,654.6462 L551,653.1621 L561,654.0097 L571,653.5446 L581,653.6019 L591,654.0224 L601,654.1133 " fill="#222222" style="stroke: #DC143C; stroke-width: 3.0;"/><!--class Souffle--><polygon fill="#222222" points="637,608,637,608.2102,647.2222,607.5857,657.4444,608.1933,667.6667,608.3997,677.8889,607.2866,688.1111,607.9223,698.3333,607.5735,708.5556,607.6165,718.7778,607.9318,729,608,728.3086,608,729.5536,618.8227,728.3697,629.6453,728.8022,640.468,729.4319,651.2906,729,662.1133,729,662.0275,718.7778,662.1815,708.5556,662.0813,698.3333,662.2918,688.1111,662.3524,677.8889,662.699,667.6667,662.7843,657.4444,662.7925,647.2222,662.3679,637,662.1133,637.4636,662.1133,637.7022,651.2906,636.2788,640.468,637.6785,629.6453,636.7035,618.8227,637,608" style="stroke: #DC143C; stroke-width: 3.0;"/><text fill="#DC143C" font-family="courier" font-size="20" font-weight="bold" lengthAdjust="spacingAndGlyphs" textLength="84" x="641" y="634.1074">Souffle</text><path d="M638,646.1133 L638,646.3935 L648,645.5609 L658,646.371 L668,646.6462 L678,645.1621 L688,646.0097 L698,645.5446 L708,645.6019 L718,646.0224 L728,646.1133 " fill="#222222" style="stroke: #DC143C; stroke-width: 3.0;"/><path d="M638,654.1133 L638,654.3935 L648,653.5609 L658,654.371 L668,654.6462 L678,653.1621 L688,654.0097 L698,653.5446 L708,653.6019 L718,654.0224 L728,654.1133 " fill="#222222" style="stroke: #DC143C; stroke-width: 3.0;"/><!--class Scenario--><polygon fill="#222222" points="322,8,322,8.2102,332.4,7.5857,342.8,8.1933,353.2,8.3997,363.6,7.2866,374,7.9223,384.4,7.5735,394.8,7.6165,405.2,7.9318,415.6,7.3086,426,8,426.5536,8,425.3697,17.4623,425.8022,26.9246,426.4319,36.3868,425.9142,45.8491,426.0682,55.3114,425.9681,64.7737,426.1785,74.236,426,83.6982,426,83.9374,415.6,84.2839,405.2,84.3693,394.8,84.3775,384.4,83.9529,374,84.1618,363.6,84.4005,353.2,82.9771,342.8,84.3768,332.4,83.4017,322,83.6982,322.5338,83.6982,321.505,74.236,321.9315,64.7737,322.7416,55.3114,321.9513,45.8491,322.1053,36.3868,322.3386,26.9246,322.4162,17.4623,322,8" style="stroke: #DC143C; stroke-width: 3.0;"/><text fill="#DC143C" font-family="courier" font-size="20" font-weight="bold" lengthAdjust="spacingAndGlyphs" textLength="96" x="326" y="34.1074">Scenario</text><path d="M323,46.1133 L323,46.3935 L333.2,45.5609 L343.4,46.371 L353.6,46.6462 L363.8,45.1621 L374,46.0097 L384.2,45.5446 L394.4,45.6019 L404.6,46.0224 L414.8,45.1915 L425,46.1133 " fill="#222222" style="stroke: #DC143C; stroke-width: 3.0;"/><path d="M323,54.1133 L323,54.3935 L333.2,53.5609 L343.4,54.371 L353.6,54.6462 L363.8,53.1621 L374,54.0097 L384.2,53.5446 L394.4,53.6019 L404.6,54.0224 L414.8,53.1915 L425,54.1133 " fill="#222222" style="stroke: #DC143C; stroke-width: 3.0;"/><polygon fill="#84BE84" points="336.0166,71.1355,335.5768,71.7363,335.0567,72.6164,334.3128,73.2095,333.5311,73.5338,332.9078,73.562,332.1067,73.1564,331.3509,72.8914,330.7771,72.3534,330.4762,71.7374,330.2977,71.247,330.1229,70.6064,329.8391,70.0552,330.0572,69.5169,330.2482,68.9274,330.9653,68.4611,331.4697,67.8561,332.0941,67.6552,332.8364,67.4821,333.7883,67.5849,334.3097,67.8308,334.9158,67.9423,335.6529,68.6974,335.9098,69.4946,336.0214,70.0385,335.895,70.9348" style="stroke: #038048; stroke-width: 1.0;"/><text fill="#A9A9A9" font-family="courier" font-size="15" lengthAdjust="spacingAndGlyphs" textLength="54" x="343" y="74.1938">main()</text><!--class Person--><polygon fill="#222222" points="288,243.5,288,243.7102,298.1176,243.0857,308.2353,243.6933,318.3529,243.8997,328.4706,242.7866,338.5882,243.4223,348.7059,243.0735,358.8235,243.1165,368.9412,243.4318,379.0588,242.8086,389.1765,244.0536,399.2941,242.8697,409.4118,243.3022,419.5294,243.9319,429.6471,243.4142,439.7647,243.5682,449.8824,243.4681,460,243.5,460.1785,243.5,460.2391,253.2718,460.5857,263.0436,460.6711,272.8154,460.6793,282.5872,460.2546,292.359,460.4636,302.1309,460.7022,311.9027,459.2788,321.6745,460.6785,331.4463,459.7035,341.2181,460.5338,350.9899,459.505,360.7617,459.9315,370.5335,460.7416,380.3053,459.9513,390.0771,460.1053,399.849,460.3386,409.6208,460.4162,419.3926,459.9961,429.1644,460.2872,438.9362,460,448.708,460,448.1356,449.8824,448.9924,439.7647,449.2562,429.6471,449.1525,419.5294,449.321,409.4118,448.2249,399.2941,448.0558,389.1765,448.0866,379.0588,448.6491,368.9412,448.5115,358.8235,449.3894,348.7059,448.5333,338.5882,448.365,328.4706,448.9363,318.3529,448.0412,308.2353,448.1889,298.1176,449.357,288,448.708,288.4357,448.708,288.7345,438.9362,287.6782,429.1644,288.3192,419.3926,288.5904,409.6208,287.5276,399.849,287.9041,390.0771,288.126,380.3053,288.6518,370.5335,287.9958,360.7617,288.4626,350.9899,287.4462,341.2181,287.3227,331.4463,288.5036,321.6745,287.2831,311.9027,288.509,302.1309,288.2066,292.359,287.7321,282.5872,287.6462,272.8154,288.4588,263.0436,287.7007,253.2718,288,243.5" style="stroke: #DC143C; stroke-width: 3.0;"/><text fill="#DC143C" font-family="courier" font-size="20" font-weight="bold" lengthAdjust="spacingAndGlyphs" textLength="72" x="338" y="269.6074">Person</text><path d="M289,281.6133 L289,281.8935 L299,281.0609 L309,281.871 L319,282.1462 L329,280.6621 L339,281.5097 L349,281.0446 L359,281.1019 L369,281.5224 L379,280.6915 L389,282.3515 L399,280.7729 L409,281.3496 L419,282.1892 L429,281.4989 L439,281.7043 L449,281.5707 L459,281.6133 " fill="#222222" style="stroke: #DC143C; stroke-width: 3.0;"/><path d="M289,289.6133 L289,289.8935 L299,289.0609 L309,289.871 L319,290.1462 L329,288.6621 L339,289.5097 L349,289.0446 L359,289.1019 L369,289.5224 L379,288.6915 L389,290.3515 L399,288.7729 L409,289.3496 L419,290.1892 L429,289.4989 L439,289.7043 L449,289.5707 L459,289.6133 " fill="#222222" style="stroke: #DC143C; stroke-width: 3.0;"/><polygon fill="#84BE84" points="302.0166,306.6355,301.5768,307.2363,301.0567,308.1164,300.3128,308.7095,299.5311,309.0338,298.9078,309.062,298.1067,308.6564,297.3509,308.3914,296.7771,307.8534,296.4762,307.2374,296.2977,306.747,296.1229,306.1064,295.8391,305.5552,296.0572,305.0169,296.2482,304.4274,296.9653,303.9611,297.4697,303.3561,298.0941,303.1552,298.8364,302.9821,299.7883,303.0849,300.3097,303.3308,300.9158,303.4423,301.6529,304.1974,301.9098,304.9946,302.0214,305.5385,301.895,306.4348" style="stroke: #038048; stroke-width: 1.0;"/><text fill="#A9A9A9" font-family="courier" font-size="15" lengthAdjust="spacingAndGlyphs" textLength="45" x="309" y="309.6938">eat()</text><polygon fill="#F24D5C" points="296,324.4907,296,324.5608,297.2,324.3526,298.4,324.5552,299.6,324.6239,300.8,324.2529,302,324.4907,301.9741,324.4907,301.8578,325.6907,301.8722,326.8907,301.9773,328.0907,301.7695,329.2907,302,330.4907,302,330.6753,300.8,330.2806,299.6,330.4248,298.4,330.6347,297.2,330.4621,296,330.4907,296.0227,330.4907,295.9894,329.2907,296.0595,328.0907,296.0797,326.8907,296.1952,325.6907,296,324.4907" style="stroke: #C82930; stroke-width: 1.0;"/><text fill="#A9A9A9" font-family="courier" font-size="15" lengthAdjust="spacingAndGlyphs" textLength="126" x="309" y="331.2788">prepareSalad()</text><polygon fill="#F24D5C" points="296,346.0757,296,346.1457,297.2,345.9376,298.4,346.1401,299.6,346.2089,300.8,345.8379,302,346.0757,301.9741,346.0757,301.8578,347.2757,301.8722,348.4757,301.9773,349.6757,301.7695,350.8757,302,352.0757,302,352.2602,300.8,351.8656,299.6,352.0098,298.4,352.2197,297.2,352.0471,296,352.0757,296.0227,352.0757,295.9894,350.8757,296.0595,349.6757,296.0797,348.4757,296.1952,347.2757,296,346.0757" style="stroke: #C82930; stroke-width: 1.0;"/><text fill="#A9A9A9" font-family="courier" font-size="15" lengthAdjust="spacingAndGlyphs" textLength="135" x="309" y="352.8638">prepareChiken()</text><polygon fill="#F24D5C" points="296,367.6606,296,367.7307,297.2,367.5225,298.4,367.7251,299.6,367.7939,300.8,367.4228,302,367.6606,301.9741,367.6606,301.8578,368.8606,301.8722,370.0606,301.9773,371.2606,301.7695,372.4606,302,373.6606,302,373.8452,300.8,373.4506,299.6,373.5947,298.4,373.8046,297.2,373.6321,296,373.6606,296.0227,373.6606,295.9894,372.4606,296.0595,371.2606,296.0797,370.0606,296.1952,368.8606,296,367.6606" style="stroke: #C82930; stroke-width: 1.0;"/><text fill="#A9A9A9" font-family="courier" font-size="15" lengthAdjust="spacingAndGlyphs" textLength="144" x="309" y="374.4487">prepareCustard()</text><polygon fill="#F24D5C" points="296,389.2456,296,389.3157,297.2,389.1075,298.4,389.31,299.6,389.3788,300.8,389.0078,302,389.2456,301.9741,389.2456,301.8578,390.4456,301.8722,391.6456,301.9773,392.8456,301.7695,394.0456,302,395.2456,302,395.4302,300.8,395.0355,299.6,395.1797,298.4,395.3896,297.2,395.217,296,395.2456,296.0227,395.2456,295.9894,394.0456,296.0595,392.8456,296.0797,391.6456,296.1952,390.4456,296,389.2456" style="stroke: #C82930; stroke-width: 1.0;"/><text fill="#A9A9A9" font-family="courier" font-size="15" lengthAdjust="spacingAndGlyphs" textLength="135" x="309" y="396.0337">prepareOyster()</text><polygon fill="#F24D5C" points="296,410.8306,296,410.9006,297.2,410.6925,298.4,410.895,299.6,410.9638,300.8,410.5928,302,410.8306,301.9741,410.8306,301.8578,412.0306,301.8722,413.2306,301.9773,414.4306,301.7695,415.6306,302,416.8306,302,417.0151,300.8,416.6205,299.6,416.7646,298.4,416.9745,297.2,416.802,296,416.8306,296.0227,416.8306,295.9894,415.6306,296.0595,414.4306,296.0797,413.2306,296.1952,412.0306,296,410.8306" style="stroke: #C82930; stroke-width: 1.0;"/><text fill="#A9A9A9" font-family="courier" font-size="15" lengthAdjust="spacingAndGlyphs" textLength="144" x="309" y="417.6187">prepareSirloin()</text><polygon fill="#F24D5C" points="296,432.4155,296,432.4856,297.2,432.2774,298.4,432.48,299.6,432.5488,300.8,432.1777,302,432.4155,301.9741,432.4155,301.8578,433.6155,301.8722,434.8155,301.9773,436.0155,301.7695,437.2155,302,438.4155,302,438.6001,300.8,438.2054,299.6,438.3496,298.4,438.5595,297.2,438.3869,296,438.4155,296.0227,438.4155,295.9894,437.2155,296.0595,436.0155,296.0797,434.8155,296.1952,433.6155,296,432.4155" style="stroke: #C82930; stroke-width: 1.0;"/><text fill="#A9A9A9" font-family="courier" font-size="15" lengthAdjust="spacingAndGlyphs" textLength="144" x="309" y="439.2036">prepareSouffle()</text><path d="M495.5,144 L495.5,342 L460.228,346 L495.5,350 L495.5,547.6992 A0,0 0 0 0 495.5,547.6992 L950.5,547.6992 A0,0 0 0 0 950.5,547.6992 L950.5,154 L940.5,144 L495.5,144 A0,0 0 0 0 495.5,144 " fill="#222222" style="stroke: #A9A9A9; stroke-width: 3.0;"/><path d="M940.5,144 L940.6868,144 L940.1317,146 L940.6718,148 L940.8553,150 L939.8659,152 L940.5,154 L940.5,153.9309 L942.5,153.6209 L944.5,153.6591 L946.5,153.9394 L948.5,153.3854 L950.5,154 L950.848,154.348 L948.1038,151.6038 L946.3757,149.8757 L944.7715,148.2715 L942.4461,145.9461 L940.5,144 " fill="#222222" style="stroke: #A9A9A9; stroke-width: 3.0;"/><text fill="#A9A9A9" font-family="courier" font-size="20" lengthAdjust="spacingAndGlyphs" textLength="168" x="502.5" y="170.1074">public eat() {</text><text fill="#A9A9A9" font-family="courier" font-size="20" lengthAdjust="spacingAndGlyphs" textLength="288" x="526.5" y="196.2207">if(dish == Dish.BASIC) {</text><text fill="#A9A9A9" font-family="courier" font-size="20" lengthAdjust="spacingAndGlyphs" textLength="36" x="550.5" y="222.334">...</text><text fill="#A9A9A9" font-family="courier" font-size="20" lengthAdjust="spacingAndGlyphs" textLength="240" x="550.5" y="248.4473">this.prepareSalad();</text><text fill="#A9A9A9" font-family="courier" font-size="20" lengthAdjust="spacingAndGlyphs" textLength="264" x="550.5" y="274.5605">this.prepareChicken();</text><text fill="#A9A9A9" font-family="courier" font-size="20" lengthAdjust="spacingAndGlyphs" textLength="264" x="550.5" y="300.6738">this.prepareCustard();</text><text fill="#A9A9A9" font-family="courier" font-size="20" lengthAdjust="spacingAndGlyphs" textLength="36" x="550.5" y="326.7871">...</text><text fill="#A9A9A9" font-family="courier" font-size="20" lengthAdjust="spacingAndGlyphs" textLength="408" x="526.5" y="352.9004">} else if (dish == Dish.Gourmet) {</text><text fill="#A9A9A9" font-family="courier" font-size="20" lengthAdjust="spacingAndGlyphs" textLength="36" x="550.5" y="379.0137">...</text><text fill="#A9A9A9" font-family="courier" font-size="20" lengthAdjust="spacingAndGlyphs" textLength="252" x="550.5" y="405.127">this.prepareOyster();</text><text fill="#A9A9A9" font-family="courier" font-size="20" lengthAdjust="spacingAndGlyphs" textLength="264" x="550.5" y="431.2402">this.prepareSirloin();</text><text fill="#A9A9A9" font-family="courier" font-size="20" lengthAdjust="spacingAndGlyphs" textLength="264" x="550.5" y="457.3535">this.prepareSouffle();</text><text fill="#A9A9A9" font-family="courier" font-size="20" lengthAdjust="spacingAndGlyphs" textLength="36" x="550.5" y="483.4668">...</text><text fill="#A9A9A9" font-family="courier" font-size="20" lengthAdjust="spacingAndGlyphs" textLength="12" x="526.5" y="509.5801">}</text><text fill="#A9A9A9" font-family="courier" font-size="20" lengthAdjust="spacingAndGlyphs" textLength="12" x="502.5" y="535.6934">}</text><!--link Scenario to Person--><path d="M374,84.139 L374.2802,84.139 L373.4476,94.3998 L374.2577,104.6606 L374.5329,114.9214 L373.0488,125.1822 L373.8964,135.443 L373.4313,145.7038 L373.4887,155.9646 L373.9091,166.2254 L373.0782,176.4862 L374.7382,186.747 L373.1596,197.0078 L373.7363,207.2686 L374.5759,217.5294 L373.8856,227.7902 L374,238.051 " fill="none" style="stroke: #A9A9A9; stroke-width: 2.0; stroke-dasharray: 7.0,7.0;"/><polygon fill="#A9A9A9" points="374,243.23,374.064,243.2585,374.6738,241.3739,375.6589,239.6562,376.5217,237.8841,376.9827,235.9334,378,234.23,377.9817,234.2117,377.0995,234.9295,376.3096,235.7396,375.5839,236.6139,374.637,237.267,374,238.23,374.1305,238.3605,373.0514,237.2814,372.3534,236.5834,371.7018,235.9318,370.7798,235.0098,370,234.23,370.0208,234.2392,370.7903,236.0257,371.6544,237.8542,372.4728,239.6624,373.3784,241.5093,374,243.23" style="stroke: #A9A9A9; stroke-width: 2.0;"/><!--link Person to Salad--><path d="M287.966,413.843 L288.0253,413.9151 L283.9694,416.8924 L280.2613,420.2925 L276.44,423.5549 L272.2461,426.3645 L268.5679,429.8009 L268.5456,429.7745 L264.3829,433.0747 L260.3322,436.5081 L256.3595,440.0341 L252.1181,443.2409 L248.253,446.8948 L248.4138,447.0811 L243.884,450.2955 L239.8236,454.0537 L235.8204,457.8783 L231.4841,461.3168 L227.323,464.9584 L227.3431,464.981 L223.0648,468.7211 L218.8782,472.5644 L214.6474,476.358 L210.501,480.2465 L206.0794,483.8253 L206.281,484.045 L202.0323,487.9485 L197.6536,491.7102 L193.4653,495.6794 L189.2858,499.6584 L184.8237,503.3292 L184.6026,503.0971 L180.8385,507.5424 L176.3463,511.2236 L172.4077,515.4857 L167.899,519.1496 L163.8575,523.3038 L163.8362,523.2821 L162.0326,525.5612 L159.7302,527.3331 L157.7222,529.4043 L155.7389,531.5006 L153.5773,533.4157 L153.7085,533.546 L151.5571,535.4479 L149.6299,537.5725 L147.3398,539.3367 L145.5911,541.6385 L143.4825,543.5829 L143.6575,543.7523 L141.6501,545.7606 L139.7296,547.853 L137.4052,549.5546 L135.3768,551.5427 L133.6108,553.7846 L133.4097,553.5953 L131.6696,555.8097 L129.7029,557.8109 L128.0649,560.1213 L125.8656,561.9037 L124,564 L123.8857,563.899 L122.3949,565.9698 L120.4157,567.609 L118.7837,569.555 L117.4917,571.8014 L115.5944,573.513 L115.7444,573.6355 L114.2124,575.7223 L112.2138,577.4282 L110.7997,579.6112 L109.2582,581.6902 L107.42,583.5271 L107.2534,583.3993 L105.8343,585.5237 L104.3606,587.6063 L102.9941,589.771 L101.2109,591.6161 L99.6605,593.6397 L99.8265,593.7609 L98.0295,595.4563 L96.5529,597.3856 L95.5446,599.6567 L93.6743,601.2985 L92.4994,603.4481 " fill="none" style="stroke: #A9A9A9; stroke-width: 2.0; stroke-dasharray: 7.0,7.0;"/><polygon fill="#A9A9A9" points="89.5072,607.6754,89.543,607.7356,91.1295,606.5497,92.926,605.7168,94.654,604.7689,96.1573,603.443,97.9717,602.6404,97.9674,602.6148,96.8326,602.691,95.7198,602.8959,94.6224,603.1903,93.4722,603.1763,92.3959,603.5943,92.5778,603.6254,91.998,602.4437,91.9493,601.3528,91.9655,600.2731,91.6046,599.1288,91.442,598.0184,91.4643,598.0229,91.0446,599.9477,90.7264,601.8929,90.3593,603.8283,90.0856,605.7824,89.5072,607.6754" style="stroke: #A9A9A9; stroke-width: 2.0;"/><!--link Person to Chicken--><path d="M307.808,448.589 L308.0428,448.742 L302.0296,456.4455 L297.3929,465.0458 L292.3079,473.354 L285.7489,480.7019 L281.1436,489.3226 L275.4384,497.2268 L270.1709,505.4161 L265.2077,513.8037 L259.1959,521.5081 L255.2712,530.5724 L248.6331,537.8686 L243.8008,546.3415 L239.1887,554.9579 L233.2948,562.7391 L228.1513,571.0092 L222.7239,579.0943 L217.6435,587.4056 L212.3957,595.6077 L206.813,603.5917 " fill="none" style="stroke: #A9A9A9; stroke-width: 2.0; stroke-dasharray: 7.0,7.0;"/><polygon fill="#A9A9A9" points="203.985,607.9316,204.0231,607.9904,205.5629,606.7444,207.326,605.8431,209.0164,604.8296,210.4676,603.447,212.25,602.5753,212.2446,602.5499,211.1136,602.6696,210.0095,602.9171,208.9242,603.2534,207.7743,603.2836,206.7149,603.7426,206.8954,603.7807,206.2758,602.5922,206.1834,601.5149,206.1554,600.4512,205.753,599.3086,205.5475,598.2075,205.57,598.2111,205.2245,600.1506,204.9813,602.1066,204.6887,604.0546,204.4903,606.0177,203.985,607.9316" style="stroke: #A9A9A9; stroke-width: 2.0;"/><!--link Person to Custard--><path d="M352.762,448.589 L353.0363,448.6463 L350.2077,458.1073 L348.9871,467.9045 L347.2429,477.5922 L343.7767,486.9199 L342.5928,496.7248 L340.124,506.261 L338.1666,515.9041 L336.5645,525.6216 L333.7376,535.0829 L333.3489,545.054 L329.7902,554.3624 L328.3411,564.1118 L327.1494,573.915 L324.4602,583.4051 L322.6476,593.0785 L320.545,602.6913 " fill="none" style="stroke: #A9A9A9; stroke-width: 2.0; stroke-dasharray: 7.0,7.0;"/><polygon fill="#A9A9A9" points="319.45,607.9316,319.5068,607.9726,320.4893,606.2527,321.8051,604.7728,323.0123,603.2148,323.8626,601.3997,325.207,599.9405,325.1928,599.9189,324.1824,600.4409,323.2435,601.0723,322.3542,601.7796,321.2937,602.2252,320.4731,603.0374,320.6276,603.1384,319.6779,601.9756,319.1792,601.1078,318.7355,600.2759,317.9717,599.2347,317.3763,598.3035,317.3985,598.3083,317.7806,600.2269,318.2639,602.1673,318.6984,604.0972,319.2261,606.0471,319.45,607.9316" style="stroke: #A9A9A9; stroke-width: 2.0;"/><!--link Person to Oyster--><path d="M395.592,448.589 L395.8661,448.6473 L397.0988,458.1055 L399.9383,467.9054 L402.2546,477.594 L402.8501,486.9168 L405.7263,496.7244 L407.3185,506.2591 L409.4217,515.9024 L411.8801,525.6213 L413.1144,535.0799 L416.7853,545.0564 L417.2884,554.3596 L419.8996,564.1109 L422.768,573.9169 L424.1399,583.4047 L426.3879,593.0788 L428.346,602.6913 " fill="none" style="stroke: #A9A9A9; stroke-width: 2.0; stroke-dasharray: 7.0,7.0;"/><polygon fill="#A9A9A9" points="429.459,607.9316,429.5275,607.9461,429.7322,605.976,430.3387,604.091,430.8143,602.1783,430.8597,600.1744,431.5006,598.2967,431.4789,598.2826,430.7652,599.1681,430.161,600.1247,429.6329,601.1308,428.8425,601.9665,428.4196,603.0408,428.5201,603.1956,427.3563,602.2484,426.486,601.7531,425.6515,601.3129,424.6087,600.552,423.6754,599.9598,423.6938,599.9731,424.8235,601.5479,426.037,603.1834,427.2101,604.7897,428.4603,606.4519,429.459,607.9316" style="stroke: #A9A9A9; stroke-width: 2.0;"/><!--link Person to Sirloin--><path d="M419.71,448.565 L419.7932,448.6075 L420.8195,450.9703 L422.3333,453.5825 L423.6884,456.1134 L424.5214,458.3773 L426.0771,461.0109 L426.0465,460.9947 L427.2437,463.4487 L428.5948,465.9841 L430.053,468.5759 L431.1423,470.973 L432.7483,473.6428 L432.9642,473.7609 L433.8934,476.053 L435.453,478.6898 L437.0895,481.3685 L438.2785,483.8027 L439.7028,486.3655 L439.7292,486.3805 L441.1339,488.9021 L442.6587,491.4919 L444.1256,494.0488 L445.703,496.6684 L446.92,499.0835 L447.1767,499.2353 L448.6717,501.7607 L450.001,504.1882 L451.5728,506.7591 L453.1559,509.3366 L454.379,511.7013 L454.1064,511.5328 L456.1716,514.3444 L457.339,516.601 L459.1889,519.2795 L460.3361,521.5235 L462.0592,524.1237 L462.0337,524.1071 L463.9117,526.7295 L465.1933,528.9644 L466.8268,531.428 L468.4899,533.9107 L469.9398,536.255 L470.0923,536.3597 L471.5504,538.603 L473.2691,541.0252 L474.5662,543.1581 L476.4922,545.7225 L478,548 L478.1847,548.1589 L479.5771,549.7875 L481.0613,551.4949 L482.1195,552.8357 L483.4899,554.4452 L485.137,556.2929 L484.9437,556.0956 L486.6913,557.8156 L488.2211,559.3133 L490.0668,561.1334 L491.3731,562.4031 L493,564 L492.8873,563.8973 L496.7772,568.1317 L500.1853,571.9271 L503.9361,576.0347 L508.022,580.4477 L511.511,584.3168 L511.6549,584.4463 L515.3285,588.5041 L518.5547,592.1587 L522.3414,596.3182 L526.006,600.3678 L529.386,604.161 " fill="none" style="stroke: #A9A9A9; stroke-width: 2.0; stroke-dasharray: 7.0,7.0;"/><polygon fill="#A9A9A9" points="532.788,607.9568,532.8547,607.9783,532.0508,606.04,531.6378,604.228,531.0975,602.3748,530.1387,600.3864,529.7592,598.5852,529.7333,598.5838,529.5555,599.7072,529.5081,600.8376,529.5514,601.973,529.2822,603.0914,529.4506,604.2337,529.4607,604.4179,528.3095,603.9622,527.1876,604.0444,526.0694,604.1923,524.9303,603.9582,523.8022,603.9251,523.8115,603.9458,525.595,604.7217,527.4209,605.5921,529.2263,606.4168,531.0708,607.3286,532.788,607.9568" style="stroke: #A9A9A9; stroke-width: 2.0;"/><!--link Person to Souffle--><path d="M403.825,448.575 L403.91,448.6138 L404.9332,451.2899 L406.4545,454.1935 L407.8137,457.023 L408.6394,459.6088 L410.2035,462.532 L410.1728,462.5162 L411.4623,465.2269 L412.9067,468.017 L414.4589,470.8625 L415.6399,473.5174 L417.3407,476.4392 L417.5535,476.5627 L418.6844,479.0313 L420.4366,481.8606 L422.2647,484.7339 L423.6516,487.3511 L425.2706,490.1031 L425.2959,490.1198 L427.01,492.7406 L428.8394,495.4377 L430.6131,498.098 L432.4929,500.8284 L434.0271,503.3301 L434.2642,503.5111 L436.1905,506.0327 L437.964,508.4375 L439.9612,511.0132 L441.969,513.5969 L443.6443,515.9269 L443.4053,515.7134 L445.9717,518.4823 L447.7508,520.5483 L450.1284,523.1486 L451.8897,525.1987 L454.1562,527.6998 L454.1354,527.6776 L456.6701,530.091 L458.7176,531.9862 L461.0526,534.1872 L463.4118,536.4139 L465.5968,538.4553 L465.7096,538.6019 L468.0764,540.3629 L470.6359,542.3744 L472.8836,543.9805 L475.5964,546.1912 L478,548 L478.1259,548.2086 L480.0213,549.3279 L481.9792,550.5508 L483.6466,551.2926 L485.527,552.387 L487.596,553.794 L487.4851,553.541 L489.4275,554.5779 L491.245,555.3297 L493.2437,556.4949 L494.9329,556.9544 L496.8061,557.8333 L496.774,557.6843 L500.3297,558.6867 L503.7481,559.052 L507.2641,559.8704 L510.8756,561.1321 L514.3171,561.6043 L514.3215,561.7979 L517.667,561.8548 L520.9988,561.3096 L524.3478,561.5186 L527.693,561.5633 L531.0296,561.2251 L530.9965,561.0177 L534.305,560.6595 L537.6027,560.2334 L540.9217,559.9407 L544.1579,559.1294 L547.4404,558.6078 L547.4763,558.8102 L550.7186,557.7767 L554.0301,557.134 L557.4429,557.0622 L560.6693,555.9394 L564.0461,555.6645 L564.0638,555.89 L567.5128,555.4846 L570.9557,555.0029 L574.4122,554.6934 L577.9,554.782 L581.3435,554.3073 L581.3282,554.1752 L585.0709,554.9968 L588.7095,554.9197 L592.4665,555.8646 L596.1568,556.234 L599.8292,556.4485 L599.8608,556.5527 L601.804,557.0645 L603.8603,557.9495 L605.8145,558.4974 L607.726,558.9044 L609.6729,559.4284 L609.7212,559.5374 L611.7149,560.2898 L613.9327,561.5482 L615.897,562.2343 L617.9656,563.1558 L620,564 L619.856,563.7712 L622.4538,565.4519 L625.2251,567.4083 L627.7509,568.9747 L630.1888,570.4012 L632.7487,572.0216 L632.656,571.9125 L635.0132,573.9223 L637.2063,575.7388 L639.8503,578.0868 L642.2712,580.1717 L644.386,581.8959 L644.5554,582.0573 L646.686,584.2885 L648.4947,586.2132 L650.6432,588.4614 L652.5667,590.4954 L654.7678,592.7938 L654.866,592.8732 L656.6495,595.0813 L658.5515,597.3853 L660.0778,599.3851 L661.9071,601.6302 L663.75,603.8863 " fill="none" style="stroke: #A9A9A9; stroke-width: 2.0; stroke-dasharray: 7.0,7.0;"/><polygon fill="#A9A9A9" points="666.737,607.9384,666.8054,607.9535,666.1783,605.985,665.9523,604.105,665.5957,602.1961,664.8096,600.1927,664.618,598.3202,664.5924,598.3163,664.308,599.4175,664.1528,600.5383,664.0873,601.6726,663.7124,602.7601,663.7708,603.9132,663.7985,604.0957,662.6208,603.5361,661.5237,603.5092,660.4366,603.5473,659.2921,603.2072,658.1778,603.066,658.189,603.0858,659.8844,604.0313,661.6309,605.0667,663.3527,606.0587,665.1217,607.1336,666.737,607.9384" style="stroke: #A9A9A9; stroke-width: 2.0;"/><!--link Salad to Chicken--><!--link Chicken to Custard--><!--link Custard to Oyster--><!--link Oyster to Sirloin--><!--link Sirloin to Souffle--><!--
@startuml
skinparam backgroundColor #222222
skinparam handwritten true
hide circle

skinparam shadowing false
skinparam padding 1
skinparam arrow {
    Thickness 2
    Color #DarkGrey
    FontSize 20
    FontName courier
    FontStyle normal
    FontColor #DarkGrey
}
skinparam class {
    BorderThickness 3
    BorderColor #DC143C
    BackgroundColor #222222
    FontSize 20
    FontName courier
    FontStyle bold
    FontColor #DC143C
}
skinparam classAttribute {
    FontSize 15
    FontName courier
    FontStyle normal
    FontColor #DarkGrey
}
skinparam note {
    BorderThickness 3
    BorderColor #DarkGrey
    BackgroundColor #222222
    FontSize 20
    FontName courier
    FontStyle normal
    FontColor #DarkGrey
}

class Scenario  {
+ main()
}

class Person  {
+ eat()
- prepareSalad()
- prepareChiken()
- prepareCustard()
- prepareOyster()
- prepareSirloin()
- prepareSouffle()
}

note right
public eat() {
  if(dish == Dish.BASIC) {
    ...
    this.prepareSalad();
    this.prepareChicken();
    this.prepareCustard();
    ...
  } else if (dish == Dish.Gourmet) {
    ...
    this.prepareOyster();
    this.prepareSirloin();
    this.prepareSouffle();
    ...
  }
}
end note

together {
class Salad
class Chicken
class Custard
class Oyster
class Sirloin
class Souffle
}

Scenario ..> Person
Person ..> Salad
Person ..> Chicken
Person ..> Custard
Person ..> Oyster
Person ..> Sirloin
Person ..> Souffle

Salad -[hidden] Chicken
Chicken -[hidden] Custard
Custard -[hidden] Oyster
Oyster -[hidden] Sirloin
Sirloin -[hidden] Souffle
@enduml

PlantUML version 1.2019.05(Sat Apr 20 18:45:36 CEST 2019)
(GPL source distribution)
Java Runtime: Java(TM) SE Runtime Environment
JVM: Java HotSpot(TM) 64-Bit Server VM
Java Version: 11.0.8+10-LTS
Operating System: Windows 10
OS Version: 10.0
Default Encoding: windows-1252
Language: es
Country: ES
--></g></svg>