<?xml version="1.0" encoding="UTF-8" standalone="no"?><svg xmlns="http://www.w3.org/2000/svg" xmlns:xlink="http://www.w3.org/1999/xlink" contentScriptType="application/ecmascript" contentStyleType="text/css" height="617px" preserveAspectRatio="none" style="width:1584px;height:617px;background:#222222;" version="1.1" viewBox="0 0 1584 617" width="1584px" zoomAndPan="magnify"><defs/><g><!--class Scenario--><polygon fill="#222222" points="644,8,644,8.2102,654.4,7.5857,664.8,8.1933,675.2,8.3997,685.6,7.2866,696,7.9223,706.4,7.5735,716.8,7.6165,727.2,7.9318,737.6,7.3086,748,8,748.5536,8,747.3697,17.4623,747.8022,26.9246,748.4319,36.3868,747.9142,45.8491,748.0682,55.3114,747.9681,64.7737,748.1785,74.236,748,83.6982,748,83.9374,737.6,84.2839,727.2,84.3693,716.8,84.3775,706.4,83.9529,696,84.1618,685.6,84.4005,675.2,82.9771,664.8,84.3768,654.4,83.4017,644,83.6982,644.5338,83.6982,643.505,74.236,643.9315,64.7737,644.7416,55.3114,643.9513,45.8491,644.1053,36.3868,644.3386,26.9246,644.4162,17.4623,644,8" style="stroke: #DC143C; stroke-width: 3.0;"/><text fill="#DC143C" font-family="courier" font-size="20" font-weight="bold" lengthAdjust="spacingAndGlyphs" textLength="96" x="648" y="34.1074">Scenario</text><path d="M645,46.1133 L645,46.3935 L655.2,45.5609 L665.4,46.371 L675.6,46.6462 L685.8,45.1621 L696,46.0097 L706.2,45.5446 L716.4,45.6019 L726.6,46.0224 L736.8,45.1915 L747,46.1133 " fill="#222222" style="stroke: #DC143C; stroke-width: 3.0;"/><path d="M645,54.1133 L645,54.3935 L655.2,53.5609 L665.4,54.371 L675.6,54.6462 L685.8,53.1621 L696,54.0097 L706.2,53.5446 L716.4,53.6019 L726.6,54.0224 L736.8,53.1915 L747,54.1133 " fill="#222222" style="stroke: #DC143C; stroke-width: 3.0;"/><polygon fill="#84BE84" points="658.0166,71.1355,657.5768,71.7363,657.0567,72.6164,656.3128,73.2095,655.5311,73.5338,654.9078,73.562,654.1067,73.1564,653.3509,72.8914,652.7771,72.3534,652.4762,71.7374,652.2977,71.247,652.1229,70.6064,651.8391,70.0552,652.0572,69.5169,652.2482,68.9274,652.9653,68.4611,653.4697,67.8561,654.0941,67.6552,654.8364,67.4821,655.7883,67.5849,656.3097,67.8308,656.9158,67.9423,657.6529,68.6974,657.9098,69.4946,658.0214,70.0385,657.895,70.9348" style="stroke: #038048; stroke-width: 1.0;"/><text fill="#A9A9A9" font-family="courier" font-size="15" lengthAdjust="spacingAndGlyphs" textLength="54" x="665" y="74.1938">main()</text><!--class Adviser--><polygon fill="#222222" points="472,144,472,144.2102,482,143.5857,492,144.1933,502,144.3997,512,143.2866,522,143.9223,532,143.5735,542,143.6165,552,143.9318,562,143.3086,572,144,572.5536,144,571.3697,153.4623,571.8022,162.9246,572.4319,172.3868,571.9142,181.8491,572.0682,191.3114,571.9681,200.7737,572.1785,210.236,572,219.6982,572,219.9374,562,220.2839,552,220.3693,542,220.3775,532,219.9529,522,220.1618,512,220.4005,502,218.9771,492,220.3768,482,219.4017,472,219.6982,472.5338,219.6982,471.505,210.236,471.9315,200.7737,472.7416,191.3114,471.9513,181.8491,472.1053,172.3868,472.3386,162.9246,472.4162,153.4623,472,144" style="stroke: #DC143C; stroke-width: 3.0;"/><text fill="#DC143C" font-family="courier" font-size="20" font-weight="bold" lengthAdjust="spacingAndGlyphs" textLength="84" x="480" y="170.1074">Adviser</text><path d="M473,182.1133 L473,182.3935 L482.8,181.5609 L492.6,182.371 L502.4,182.6462 L512.2,181.1621 L522,182.0097 L531.8,181.5446 L541.6,181.6019 L551.4,182.0224 L561.2,181.1915 L571,182.1133 " fill="#222222" style="stroke: #DC143C; stroke-width: 3.0;"/><path d="M473,190.1133 L473,190.3935 L482.8,189.5609 L492.6,190.371 L502.4,190.6462 L512.2,189.1621 L522,190.0097 L531.8,189.5446 L541.6,189.6019 L551.4,190.0224 L561.2,189.1915 L571,190.1133 " fill="#222222" style="stroke: #DC143C; stroke-width: 3.0;"/><polygon fill="#84BE84" points="486.0166,207.1355,485.5768,207.7363,485.0567,208.6164,484.3128,209.2095,483.5311,209.5338,482.9078,209.562,482.1067,209.1564,481.3509,208.8914,480.7771,208.3534,480.4762,207.7374,480.2977,207.247,480.1229,206.6064,479.8391,206.0552,480.0572,205.5169,480.2482,204.9274,480.9653,204.4611,481.4697,203.8561,482.0941,203.6552,482.8364,203.4821,483.7883,203.5849,484.3097,203.8308,484.9158,203.9423,485.6529,204.6974,485.9098,205.4946,486.0214,206.0385,485.895,206.9348" style="stroke: #038048; stroke-width: 1.0;"/><text fill="#A9A9A9" font-family="courier" font-size="15" lengthAdjust="spacingAndGlyphs" textLength="72" x="493" y="210.1938">advise()</text><!--class CasualAdviser--><polygon fill="#222222" points="388,280,388,280.2102,398.25,279.5857,408.5,280.1933,418.75,280.3997,429,279.2866,439.25,279.9223,449.5,279.5735,459.75,279.6165,470,279.9318,480.25,279.3086,490.5,280.5536,500.75,279.3697,511,279.8022,521.25,280.4319,531.5,279.9142,541.75,280.0682,552,280,551.9681,280,552.1785,289.4623,552.2391,298.9246,552.5857,308.3868,552.6711,317.8491,552.6793,327.3114,552.2546,336.7737,552.4636,346.236,552,355.6982,552,356.4005,541.75,354.9771,531.5,356.3768,521.25,355.4017,511,356.2321,500.75,355.2032,490.5,355.6297,480.25,356.4398,470,355.6495,459.75,355.8035,449.5,356.0369,439.25,356.1145,429,355.6943,418.75,355.9855,408.5,355.1258,398.25,355.9826,388,355.6982,388.5482,355.6982,388.4445,346.236,388.613,336.7737,387.5169,327.3114,387.3478,317.8491,387.3786,308.3868,387.9411,298.9246,387.8035,289.4623,388,280" style="stroke: #DC143C; stroke-width: 3.0;"/><text fill="#DC143C" font-family="courier" font-size="20" font-weight="bold" lengthAdjust="spacingAndGlyphs" textLength="156" x="392" y="306.1074">CasualAdviser</text><path d="M389,318.1133 L389,318.3935 L399.125,317.5609 L409.25,318.371 L419.375,318.6462 L429.5,317.1621 L439.625,318.0097 L449.75,317.5446 L459.875,317.6019 L470,318.0224 L480.125,317.1915 L490.25,318.8515 L500.375,317.2729 L510.5,317.8496 L520.625,318.6892 L530.75,317.9989 L540.875,318.2043 L551,318.1133 " fill="#222222" style="stroke: #DC143C; stroke-width: 3.0;"/><path d="M389,326.1133 L389,326.3935 L399.125,325.5609 L409.25,326.371 L419.375,326.6462 L429.5,325.1621 L439.625,326.0097 L449.75,325.5446 L459.875,325.6019 L470,326.0224 L480.125,325.1915 L490.25,326.8515 L500.375,325.2729 L510.5,325.8496 L520.625,326.6892 L530.75,325.9989 L540.875,326.2043 L551,326.1133 " fill="#222222" style="stroke: #DC143C; stroke-width: 3.0;"/><polygon fill="#84BE84" points="402.0166,343.1355,401.5768,343.7363,401.0567,344.6164,400.3128,345.2095,399.5311,345.5338,398.9078,345.562,398.1067,345.1564,397.3509,344.8914,396.7771,344.3534,396.4762,343.7374,396.2977,343.247,396.1229,342.6064,395.8391,342.0552,396.0572,341.5169,396.2482,340.9274,396.9653,340.4611,397.4697,339.8561,398.0941,339.6552,398.8364,339.4821,399.7883,339.5849,400.3097,339.8308,400.9158,339.9423,401.6529,340.6974,401.9098,341.4946,402.0214,342.0385,401.895,342.9348" style="stroke: #038048; stroke-width: 1.0;"/><text fill="#A9A9A9" font-family="courier" font-size="15" lengthAdjust="spacingAndGlyphs" textLength="72" x="409" y="346.1938">advise()</text><!--class FormalAdviser--><polygon fill="#222222" points="895,280,895,280.2102,905.25,279.5857,915.5,280.1933,925.75,280.3997,936,279.2866,946.25,279.9223,956.5,279.5735,966.75,279.6165,977,279.9318,987.25,279.3086,997.5,280.5536,1007.75,279.3697,1018,279.8022,1028.25,280.4319,1038.5,279.9142,1048.75,280.0682,1059,280,1058.9681,280,1059.1785,289.4623,1059.2391,298.9246,1059.5857,308.3868,1059.6711,317.8491,1059.6793,327.3114,1059.2546,336.7737,1059.4636,346.236,1059,355.6982,1059,356.4005,1048.75,354.9771,1038.5,356.3768,1028.25,355.4017,1018,356.2321,1007.75,355.2032,997.5,355.6297,987.25,356.4398,977,355.6495,966.75,355.8035,956.5,356.0369,946.25,356.1145,936,355.6943,925.75,355.9855,915.5,355.1258,905.25,355.9826,895,355.6982,895.5482,355.6982,895.4445,346.236,895.613,336.7737,894.5169,327.3114,894.3478,317.8491,894.3786,308.3868,894.9411,298.9246,894.8035,289.4623,895,280" style="stroke: #DC143C; stroke-width: 3.0;"/><text fill="#DC143C" font-family="courier" font-size="20" font-weight="bold" lengthAdjust="spacingAndGlyphs" textLength="156" x="899" y="306.1074">FormalAdviser</text><path d="M896,318.1133 L896,318.3935 L906.125,317.5609 L916.25,318.371 L926.375,318.6462 L936.5,317.1621 L946.625,318.0097 L956.75,317.5446 L966.875,317.6019 L977,318.0224 L987.125,317.1915 L997.25,318.8515 L1007.375,317.2729 L1017.5,317.8496 L1027.625,318.6892 L1037.75,317.9989 L1047.875,318.2043 L1058,318.1133 " fill="#222222" style="stroke: #DC143C; stroke-width: 3.0;"/><path d="M896,326.1133 L896,326.3935 L906.125,325.5609 L916.25,326.371 L926.375,326.6462 L936.5,325.1621 L946.625,326.0097 L956.75,325.5446 L966.875,325.6019 L977,326.0224 L987.125,325.1915 L997.25,326.8515 L1007.375,325.2729 L1017.5,325.8496 L1027.625,326.6892 L1037.75,325.9989 L1047.875,326.2043 L1058,326.1133 " fill="#222222" style="stroke: #DC143C; stroke-width: 3.0;"/><polygon fill="#84BE84" points="909.0166,343.1355,908.5768,343.7363,908.0567,344.6164,907.3128,345.2095,906.5311,345.5338,905.9078,345.562,905.1067,345.1564,904.3509,344.8914,903.7771,344.3534,903.4762,343.7374,903.2977,343.247,903.1229,342.6064,902.8391,342.0552,903.0572,341.5169,903.2482,340.9274,903.9653,340.4611,904.4697,339.8561,905.0941,339.6552,905.8364,339.4821,906.7883,339.5849,907.3097,339.8308,907.9158,339.9423,908.6529,340.6974,908.9098,341.4946,909.0214,342.0385,908.895,342.9348" style="stroke: #038048; stroke-width: 1.0;"/><text fill="#A9A9A9" font-family="courier" font-size="15" lengthAdjust="spacingAndGlyphs" textLength="72" x="916" y="346.1938">advise()</text><!--class CasualFinancialAdviser--><polygon fill="#222222" points="6,416,6,416.2102,16.0741,415.5857,26.1481,416.1933,36.2222,416.3997,46.2963,415.2866,56.3704,415.9223,66.4444,415.5735,76.5185,415.6165,86.5926,415.9318,96.6667,415.3086,106.7407,416.5536,116.8148,415.3697,126.8889,415.8022,136.963,416.4319,147.037,415.9142,157.1111,416.0682,167.1852,415.9681,177.2593,416.1785,187.3333,416.2391,197.4074,416.5857,207.4815,416.6711,217.5556,416.6793,227.6296,416.2546,237.7037,416.4636,247.7778,416.7022,257.8519,415.2788,267.9259,416.6785,278,416,277.7035,416,278.5338,425.4623,277.505,434.9246,277.9315,444.3868,278.7416,453.8491,277.9513,463.3114,278.1053,472.7737,278.3386,482.236,278,491.6982,278,492.1145,267.9259,491.6943,257.8519,491.9855,247.7778,491.1258,237.7037,491.9826,227.6296,492.2464,217.5556,492.1428,207.4815,492.3113,197.4074,491.2152,187.3333,491.0461,177.2593,491.0768,167.1852,491.6394,157.1111,491.5017,147.037,492.3797,136.963,491.5236,126.8889,491.3552,116.8148,491.9265,106.7407,491.0314,96.6667,491.1791,86.5926,492.3472,76.5185,492.1339,66.4444,492.4327,56.3704,491.3764,46.2963,492.0174,36.2222,492.2887,26.1481,491.2258,16.0741,491.6024,6,491.6982,6.126,491.6982,6.6518,482.236,5.9958,472.7737,6.4626,463.3114,5.4462,453.8491,5.3227,444.3868,6.5036,434.9246,5.2831,425.4623,6,416" style="stroke: #DC143C; stroke-width: 3.0;"/><text fill="#DC143C" font-family="courier" font-size="20" font-weight="bold" lengthAdjust="spacingAndGlyphs" textLength="264" x="10" y="442.1074">CasualFinancialAdviser</text><path d="M7,454.1133 L7,454.3935 L17,453.5609 L27,454.371 L37,454.6462 L47,453.1621 L57,454.0097 L67,453.5446 L77,453.6019 L87,454.0224 L97,453.1915 L107,454.8515 L117,453.2729 L127,453.8496 L137,454.6892 L147,453.9989 L157,454.2043 L167,454.0707 L177,454.3513 L187,454.4321 L197,454.8942 L207,455.008 L217,455.019 L227,454.4528 L237,454.7314 L247,455.0496 L257,453.1517 L267,455.018 L277,454.1133 " fill="#222222" style="stroke: #DC143C; stroke-width: 3.0;"/><path d="M7,462.1133 L7,462.3935 L17,461.5609 L27,462.371 L37,462.6462 L47,461.1621 L57,462.0097 L67,461.5446 L77,461.6019 L87,462.0224 L97,461.1915 L107,462.8515 L117,461.2729 L127,461.8496 L137,462.6892 L147,461.9989 L157,462.2043 L167,462.0707 L177,462.3513 L187,462.4321 L197,462.8942 L207,463.008 L217,463.019 L227,462.4528 L237,462.7314 L247,463.0496 L257,461.1517 L267,463.018 L277,462.1133 " fill="#222222" style="stroke: #DC143C; stroke-width: 3.0;"/><polygon fill="#84BE84" points="20.0166,479.1355,19.5768,479.7363,19.0567,480.6164,18.3128,481.2095,17.5311,481.5338,16.9078,481.562,16.1067,481.1564,15.3509,480.8914,14.7771,480.3534,14.4762,479.7374,14.2977,479.247,14.1229,478.6064,13.8391,478.0552,14.0572,477.5169,14.2482,476.9274,14.9653,476.4611,15.4697,475.8561,16.0941,475.6552,16.8364,475.4821,17.7883,475.5849,18.3097,475.8308,18.9158,475.9423,19.6529,476.6974,19.9098,477.4946,20.0214,478.0385,19.895,478.9348" style="stroke: #038048; stroke-width: 1.0;"/><text fill="#A9A9A9" font-family="courier" font-size="15" lengthAdjust="spacingAndGlyphs" textLength="72" x="27" y="482.1938">advise()</text><!--class CasualTaxAdviser--><polygon fill="#222222" points="313,416,313,416.2102,323,415.5857,333,416.1933,343,416.3997,353,415.2866,363,415.9223,373,415.5735,383,415.6165,393,415.9318,403,415.3086,413,416.5536,423,415.3697,433,415.8022,443,416.4319,453,415.9142,463,416.0682,473,415.9681,483,416.1785,493,416.2391,503,416.5857,513,416,513.6711,416,513.6793,425.4623,513.2546,434.9246,513.4636,444.3868,513.7022,453.8491,512.2788,463.3114,513.6785,472.7737,512.7035,482.236,513,491.6982,513,492.2321,503,491.2032,493,491.6297,483,492.4398,473,491.6495,463,491.8035,453,492.0369,443,492.1145,433,491.6943,423,491.9855,413,491.1258,403,491.9826,393,492.2464,383,492.1428,373,492.3113,363,491.2152,353,491.0461,343,491.0768,333,491.6394,323,491.5017,313,491.6982,313.6814,491.6982,312.8253,482.236,312.6569,472.7737,313.2283,463.3114,312.3332,453.8491,312.4809,444.3868,313.649,434.9246,313.4357,425.4623,313,416" style="stroke: #DC143C; stroke-width: 3.0;"/><text fill="#DC143C" font-family="courier" font-size="20" font-weight="bold" lengthAdjust="spacingAndGlyphs" textLength="192" x="317" y="442.1074">CasualTaxAdviser</text><path d="M314,454.1133 L314,454.3935 L323.9,453.5609 L333.8,454.371 L343.7,454.6462 L353.6,453.1621 L363.5,454.0097 L373.4,453.5446 L383.3,453.6019 L393.2,454.0224 L403.1,453.1915 L413,454.8515 L422.9,453.2729 L432.8,453.8496 L442.7,454.6892 L452.6,453.9989 L462.5,454.2043 L472.4,454.0707 L482.3,454.3513 L492.2,454.4321 L502.1,454.8942 L512,454.1133 " fill="#222222" style="stroke: #DC143C; stroke-width: 3.0;"/><path d="M314,462.1133 L314,462.3935 L323.9,461.5609 L333.8,462.371 L343.7,462.6462 L353.6,461.1621 L363.5,462.0097 L373.4,461.5446 L383.3,461.6019 L393.2,462.0224 L403.1,461.1915 L413,462.8515 L422.9,461.2729 L432.8,461.8496 L442.7,462.6892 L452.6,461.9989 L462.5,462.2043 L472.4,462.0707 L482.3,462.3513 L492.2,462.4321 L502.1,462.8942 L512,462.1133 " fill="#222222" style="stroke: #DC143C; stroke-width: 3.0;"/><polygon fill="#84BE84" points="327.0166,479.1355,326.5768,479.7363,326.0567,480.6164,325.3128,481.2095,324.5311,481.5338,323.9078,481.562,323.1067,481.1564,322.3509,480.8914,321.7771,480.3534,321.4762,479.7374,321.2977,479.247,321.1229,478.6064,320.8391,478.0552,321.0572,477.5169,321.2482,476.9274,321.9653,476.4611,322.4697,475.8561,323.0941,475.6552,323.8364,475.4821,324.7883,475.5849,325.3097,475.8308,325.9158,475.9423,326.6529,476.6974,326.9098,477.4946,327.0214,478.0385,326.895,478.9348" style="stroke: #038048; stroke-width: 1.0;"/><text fill="#A9A9A9" font-family="courier" font-size="15" lengthAdjust="spacingAndGlyphs" textLength="72" x="334" y="482.1938">advise()</text><!--class CasualLegalAdviser--><polygon fill="#222222" points="548,416,548,416.2102,558.1818,415.5857,568.3636,416.1933,578.5455,416.3997,588.7273,415.2866,598.9091,415.9223,609.0909,415.5735,619.2727,415.6165,629.4545,415.9318,639.6364,415.3086,649.8182,416.5536,660,415.3697,670.1818,415.8022,680.3636,416.4319,690.5455,415.9142,700.7273,416.0682,710.9091,415.9681,721.0909,416.1785,731.2727,416.2391,741.4545,416.5857,751.6364,416.6711,761.8182,416.6793,772,416,772.2546,416,772.4636,425.4623,772.7022,434.9246,771.2788,444.3868,772.6785,453.8491,771.7035,463.3114,772.5338,472.7737,771.505,482.236,772,491.6982,772,491.6297,761.8182,492.4398,751.6364,491.6495,741.4545,491.8035,731.2727,492.0369,721.0909,492.1145,710.9091,491.6943,700.7273,491.9855,690.5455,491.1258,680.3636,491.9826,670.1818,492.2464,660,492.1428,649.8182,492.3113,639.6364,491.2152,629.4545,491.0461,619.2727,491.0768,609.0909,491.6394,598.9091,491.5017,588.7273,492.3797,578.5455,491.5236,568.3636,491.3552,558.1818,491.9265,548,491.6982,547.3332,491.6982,547.4809,482.236,548.649,472.7737,548.4357,463.3114,548.7345,453.8491,547.6782,444.3868,548.3192,434.9246,548.5904,425.4623,548,416" style="stroke: #DC143C; stroke-width: 3.0;"/><text fill="#DC143C" font-family="courier" font-size="20" font-weight="bold" lengthAdjust="spacingAndGlyphs" textLength="216" x="552" y="442.1074">CasualLegalAdviser</text><path d="M549,454.1133 L549,454.3935 L559.0909,453.5609 L569.1818,454.371 L579.2727,454.6462 L589.3636,453.1621 L599.4545,454.0097 L609.5455,453.5446 L619.6364,453.6019 L629.7273,454.0224 L639.8182,453.1915 L649.9091,454.8515 L660,453.2729 L670.0909,453.8496 L680.1818,454.6892 L690.2727,453.9989 L700.3636,454.2043 L710.4545,454.0707 L720.5455,454.3513 L730.6364,454.4321 L740.7273,454.8942 L750.8182,455.008 L760.9091,455.019 L771,454.1133 " fill="#222222" style="stroke: #DC143C; stroke-width: 3.0;"/><path d="M549,462.1133 L549,462.3935 L559.0909,461.5609 L569.1818,462.371 L579.2727,462.6462 L589.3636,461.1621 L599.4545,462.0097 L609.5455,461.5446 L619.6364,461.6019 L629.7273,462.0224 L639.8182,461.1915 L649.9091,462.8515 L660,461.2729 L670.0909,461.8496 L680.1818,462.6892 L690.2727,461.9989 L700.3636,462.2043 L710.4545,462.0707 L720.5455,462.3513 L730.6364,462.4321 L740.7273,462.8942 L750.8182,463.008 L760.9091,463.019 L771,462.1133 " fill="#222222" style="stroke: #DC143C; stroke-width: 3.0;"/><polygon fill="#84BE84" points="562.0166,479.1355,561.5768,479.7363,561.0567,480.6164,560.3128,481.2095,559.5311,481.5338,558.9078,481.562,558.1067,481.1564,557.3509,480.8914,556.7771,480.3534,556.4762,479.7374,556.2977,479.247,556.1229,478.6064,555.8391,478.0552,556.0572,477.5169,556.2482,476.9274,556.9653,476.4611,557.4697,475.8561,558.0941,475.6552,558.8364,475.4821,559.7883,475.5849,560.3097,475.8308,560.9158,475.9423,561.6529,476.6974,561.9098,477.4946,562.0214,478.0385,561.895,478.9348" style="stroke: #038048; stroke-width: 1.0;"/><text fill="#A9A9A9" font-family="courier" font-size="15" lengthAdjust="spacingAndGlyphs" textLength="72" x="569" y="482.1938">advise()</text><!--class FormalFinancialAdviser--><polygon fill="#222222" points="807,416,807,416.2102,817.0741,415.5857,827.1481,416.1933,837.2222,416.3997,847.2963,415.2866,857.3704,415.9223,867.4444,415.5735,877.5185,415.6165,887.5926,415.9318,897.6667,415.3086,907.7407,416.5536,917.8148,415.3697,927.8889,415.8022,937.963,416.4319,948.037,415.9142,958.1111,416.0682,968.1852,415.9681,978.2593,416.1785,988.3333,416.2391,998.4074,416.5857,1008.4815,416.6711,1018.5556,416.6793,1028.6296,416.2546,1038.7037,416.4636,1048.7778,416.7022,1058.8519,415.2788,1068.9259,416.6785,1079,416,1078.7035,416,1079.5338,425.4623,1078.505,434.9246,1078.9315,444.3868,1079.7416,453.8491,1078.9513,463.3114,1079.1053,472.7737,1079.3386,482.236,1079,491.6982,1079,492.1145,1068.9259,491.6943,1058.8519,491.9855,1048.7778,491.1258,1038.7037,491.9826,1028.6296,492.2464,1018.5556,492.1428,1008.4815,492.3113,998.4074,491.2152,988.3333,491.0461,978.2593,491.0768,968.1852,491.6394,958.1111,491.5017,948.037,492.3797,937.963,491.5236,927.8889,491.3552,917.8148,491.9265,907.7407,491.0314,897.6667,491.1791,887.5926,492.3472,877.5185,492.1339,867.4444,492.4327,857.3704,491.3764,847.2963,492.0174,837.2222,492.2887,827.1481,491.2258,817.0741,491.6024,807,491.6982,807.126,491.6982,807.6518,482.236,806.9958,472.7737,807.4626,463.3114,806.4462,453.8491,806.3227,444.3868,807.5036,434.9246,806.2831,425.4623,807,416" style="stroke: #DC143C; stroke-width: 3.0;"/><text fill="#DC143C" font-family="courier" font-size="20" font-weight="bold" lengthAdjust="spacingAndGlyphs" textLength="264" x="811" y="442.1074">FormalFinancialAdviser</text><path d="M808,454.1133 L808,454.3935 L818,453.5609 L828,454.371 L838,454.6462 L848,453.1621 L858,454.0097 L868,453.5446 L878,453.6019 L888,454.0224 L898,453.1915 L908,454.8515 L918,453.2729 L928,453.8496 L938,454.6892 L948,453.9989 L958,454.2043 L968,454.0707 L978,454.3513 L988,454.4321 L998,454.8942 L1008,455.008 L1018,455.019 L1028,454.4528 L1038,454.7314 L1048,455.0496 L1058,453.1517 L1068,455.018 L1078,454.1133 " fill="#222222" style="stroke: #DC143C; stroke-width: 3.0;"/><path d="M808,462.1133 L808,462.3935 L818,461.5609 L828,462.371 L838,462.6462 L848,461.1621 L858,462.0097 L868,461.5446 L878,461.6019 L888,462.0224 L898,461.1915 L908,462.8515 L918,461.2729 L928,461.8496 L938,462.6892 L948,461.9989 L958,462.2043 L968,462.0707 L978,462.3513 L988,462.4321 L998,462.8942 L1008,463.008 L1018,463.019 L1028,462.4528 L1038,462.7314 L1048,463.0496 L1058,461.1517 L1068,463.018 L1078,462.1133 " fill="#222222" style="stroke: #DC143C; stroke-width: 3.0;"/><polygon fill="#84BE84" points="821.0166,479.1355,820.5768,479.7363,820.0567,480.6164,819.3128,481.2095,818.5311,481.5338,817.9078,481.562,817.1067,481.1564,816.3509,480.8914,815.7771,480.3534,815.4762,479.7374,815.2977,479.247,815.1229,478.6064,814.8391,478.0552,815.0572,477.5169,815.2482,476.9274,815.9653,476.4611,816.4697,475.8561,817.0941,475.6552,817.8364,475.4821,818.7883,475.5849,819.3097,475.8308,819.9158,475.9423,820.6529,476.6974,820.9098,477.4946,821.0214,478.0385,820.895,478.9348" style="stroke: #038048; stroke-width: 1.0;"/><text fill="#A9A9A9" font-family="courier" font-size="15" lengthAdjust="spacingAndGlyphs" textLength="72" x="828" y="482.1938">advise()</text><!--class FormalTaxAdviser--><polygon fill="#222222" points="1114,416,1114,416.2102,1124,415.5857,1134,416.1933,1144,416.3997,1154,415.2866,1164,415.9223,1174,415.5735,1184,415.6165,1194,415.9318,1204,415.3086,1214,416.5536,1224,415.3697,1234,415.8022,1244,416.4319,1254,415.9142,1264,416.0682,1274,415.9681,1284,416.1785,1294,416.2391,1304,416.5857,1314,416,1314.6711,416,1314.6793,425.4623,1314.2546,434.9246,1314.4636,444.3868,1314.7022,453.8491,1313.2788,463.3114,1314.6785,472.7737,1313.7035,482.236,1314,491.6982,1314,492.2321,1304,491.2032,1294,491.6297,1284,492.4398,1274,491.6495,1264,491.8035,1254,492.0369,1244,492.1145,1234,491.6943,1224,491.9855,1214,491.1258,1204,491.9826,1194,492.2464,1184,492.1428,1174,492.3113,1164,491.2152,1154,491.0461,1144,491.0768,1134,491.6394,1124,491.5017,1114,491.6982,1114.6814,491.6982,1113.8253,482.236,1113.6569,472.7737,1114.2283,463.3114,1113.3332,453.8491,1113.4809,444.3868,1114.649,434.9246,1114.4357,425.4623,1114,416" style="stroke: #DC143C; stroke-width: 3.0;"/><text fill="#DC143C" font-family="courier" font-size="20" font-weight="bold" lengthAdjust="spacingAndGlyphs" textLength="192" x="1118" y="442.1074">FormalTaxAdviser</text><path d="M1115,454.1133 L1115,454.3935 L1124.9,453.5609 L1134.8,454.371 L1144.7,454.6462 L1154.6,453.1621 L1164.5,454.0097 L1174.4,453.5446 L1184.3,453.6019 L1194.2,454.0224 L1204.1,453.1915 L1214,454.8515 L1223.9,453.2729 L1233.8,453.8496 L1243.7,454.6892 L1253.6,453.9989 L1263.5,454.2043 L1273.4,454.0707 L1283.3,454.3513 L1293.2,454.4321 L1303.1,454.8942 L1313,454.1133 " fill="#222222" style="stroke: #DC143C; stroke-width: 3.0;"/><path d="M1115,462.1133 L1115,462.3935 L1124.9,461.5609 L1134.8,462.371 L1144.7,462.6462 L1154.6,461.1621 L1164.5,462.0097 L1174.4,461.5446 L1184.3,461.6019 L1194.2,462.0224 L1204.1,461.1915 L1214,462.8515 L1223.9,461.2729 L1233.8,461.8496 L1243.7,462.6892 L1253.6,461.9989 L1263.5,462.2043 L1273.4,462.0707 L1283.3,462.3513 L1293.2,462.4321 L1303.1,462.8942 L1313,462.1133 " fill="#222222" style="stroke: #DC143C; stroke-width: 3.0;"/><polygon fill="#84BE84" points="1128.0166,479.1355,1127.5768,479.7363,1127.0567,480.6164,1126.3128,481.2095,1125.5311,481.5338,1124.9078,481.562,1124.1067,481.1564,1123.3509,480.8914,1122.7771,480.3534,1122.4762,479.7374,1122.2977,479.247,1122.1229,478.6064,1121.8391,478.0552,1122.0572,477.5169,1122.2482,476.9274,1122.9653,476.4611,1123.4697,475.8561,1124.0941,475.6552,1124.8364,475.4821,1125.7883,475.5849,1126.3097,475.8308,1126.9158,475.9423,1127.6529,476.6974,1127.9098,477.4946,1128.0214,478.0385,1127.895,478.9348" style="stroke: #038048; stroke-width: 1.0;"/><text fill="#A9A9A9" font-family="courier" font-size="15" lengthAdjust="spacingAndGlyphs" textLength="81" x="1135" y="482.1938">adviser()</text><!--class FormalLegalAdviser--><polygon fill="#222222" points="1349,416,1349,416.2102,1359.1818,415.5857,1369.3636,416.1933,1379.5455,416.3997,1389.7273,415.2866,1399.9091,415.9223,1410.0909,415.5735,1420.2727,415.6165,1430.4545,415.9318,1440.6364,415.3086,1450.8182,416.5536,1461,415.3697,1471.1818,415.8022,1481.3636,416.4319,1491.5455,415.9142,1501.7273,416.0682,1511.9091,415.9681,1522.0909,416.1785,1532.2727,416.2391,1542.4545,416.5857,1552.6364,416.6711,1562.8182,416.6793,1573,416,1573.2546,416,1573.4636,425.4623,1573.7022,434.9246,1572.2788,444.3868,1573.6785,453.8491,1572.7035,463.3114,1573.5338,472.7737,1572.505,482.236,1573,491.6982,1573,491.6297,1562.8182,492.4398,1552.6364,491.6495,1542.4545,491.8035,1532.2727,492.0369,1522.0909,492.1145,1511.9091,491.6943,1501.7273,491.9855,1491.5455,491.1258,1481.3636,491.9826,1471.1818,492.2464,1461,492.1428,1450.8182,492.3113,1440.6364,491.2152,1430.4545,491.0461,1420.2727,491.0768,1410.0909,491.6394,1399.9091,491.5017,1389.7273,492.3797,1379.5455,491.5236,1369.3636,491.3552,1359.1818,491.9265,1349,491.6982,1348.3332,491.6982,1348.4809,482.236,1349.649,472.7737,1349.4357,463.3114,1349.7345,453.8491,1348.6782,444.3868,1349.3192,434.9246,1349.5904,425.4623,1349,416" style="stroke: #DC143C; stroke-width: 3.0;"/><text fill="#DC143C" font-family="courier" font-size="20" font-weight="bold" lengthAdjust="spacingAndGlyphs" textLength="216" x="1353" y="442.1074">FormalLegalAdviser</text><path d="M1350,454.1133 L1350,454.3935 L1360.0909,453.5609 L1370.1818,454.371 L1380.2727,454.6462 L1390.3636,453.1621 L1400.4545,454.0097 L1410.5455,453.5446 L1420.6364,453.6019 L1430.7273,454.0224 L1440.8182,453.1915 L1450.9091,454.8515 L1461,453.2729 L1471.0909,453.8496 L1481.1818,454.6892 L1491.2727,453.9989 L1501.3636,454.2043 L1511.4545,454.0707 L1521.5455,454.3513 L1531.6364,454.4321 L1541.7273,454.8942 L1551.8182,455.008 L1561.9091,455.019 L1572,454.1133 " fill="#222222" style="stroke: #DC143C; stroke-width: 3.0;"/><path d="M1350,462.1133 L1350,462.3935 L1360.0909,461.5609 L1370.1818,462.371 L1380.2727,462.6462 L1390.3636,461.1621 L1400.4545,462.0097 L1410.5455,461.5446 L1420.6364,461.6019 L1430.7273,462.0224 L1440.8182,461.1915 L1450.9091,462.8515 L1461,461.2729 L1471.0909,461.8496 L1481.1818,462.6892 L1491.2727,461.9989 L1501.3636,462.2043 L1511.4545,462.0707 L1521.5455,462.3513 L1531.6364,462.4321 L1541.7273,462.8942 L1551.8182,463.008 L1561.9091,463.019 L1572,462.1133 " fill="#222222" style="stroke: #DC143C; stroke-width: 3.0;"/><polygon fill="#84BE84" points="1363.0166,479.1355,1362.5768,479.7363,1362.0567,480.6164,1361.3128,481.2095,1360.5311,481.5338,1359.9078,481.562,1359.1067,481.1564,1358.3509,480.8914,1357.7771,480.3534,1357.4762,479.7374,1357.2977,479.247,1357.1229,478.6064,1356.8391,478.0552,1357.0572,477.5169,1357.2482,476.9274,1357.9653,476.4611,1358.4697,475.8561,1359.0941,475.6552,1359.8364,475.4821,1360.7883,475.5849,1361.3097,475.8308,1361.9158,475.9423,1362.6529,476.6974,1362.9098,477.4946,1363.0214,478.0385,1362.895,478.9348" style="stroke: #038048; stroke-width: 1.0;"/><text fill="#A9A9A9" font-family="courier" font-size="15" lengthAdjust="spacingAndGlyphs" textLength="72" x="1370" y="482.1938">advise()</text><!--class EconomyMinistry--><polygon fill="#222222" points="320,552,320,552.2102,329.8947,551.5857,339.7895,552.1933,349.6842,552.3997,359.5789,551.2866,369.4737,551.9223,379.3684,551.5735,389.2632,551.6165,399.1579,551.9318,409.0526,551.3086,418.9474,552.5536,428.8421,551.3697,438.7368,551.8022,448.6316,552.4319,458.5263,551.9142,468.4211,552.0682,478.3158,551.9681,488.2105,552.1785,498.1053,552.2391,508,552,508.5857,552,508.6711,562.8227,508.6793,573.6453,508.2546,584.468,508.4636,595.2906,508,606.1133,508,606.8155,498.1053,605.3921,488.2105,606.7918,478.3158,605.8168,468.4211,606.6471,458.5263,605.6183,448.6316,606.0448,438.7368,606.8549,428.8421,606.0645,418.9474,606.2186,409.0526,606.4519,399.1579,606.5295,389.2632,606.1094,379.3684,606.4005,369.4737,605.5409,359.5789,606.3977,349.6842,606.6615,339.7895,606.5578,329.8947,606.7263,320,606.1133,319.5169,606.1133,319.3478,595.2906,319.3786,584.468,319.9411,573.6453,319.8035,562.8227,320,552" style="stroke: #DC143C; stroke-width: 3.0;"/><text fill="#DC143C" font-family="courier" font-size="20" font-weight="bold" lengthAdjust="spacingAndGlyphs" textLength="180" x="324" y="578.1074">EconomyMinistry</text><path d="M321,590.1133 L321,590.3935 L330.7895,589.5609 L340.5789,590.371 L350.3684,590.6462 L360.1579,589.1621 L369.9474,590.0097 L379.7368,589.5446 L389.5263,589.6019 L399.3158,590.0224 L409.1053,589.1915 L418.8947,590.8515 L428.6842,589.2729 L438.4737,589.8496 L448.2632,590.6892 L458.0526,589.9989 L467.8421,590.2043 L477.6316,590.0707 L487.4211,590.3513 L497.2105,590.4321 L507,590.1133 " fill="#222222" style="stroke: #DC143C; stroke-width: 3.0;"/><path d="M321,598.1133 L321,598.3935 L330.7895,597.5609 L340.5789,598.371 L350.3684,598.6462 L360.1579,597.1621 L369.9474,598.0097 L379.7368,597.5446 L389.5263,597.6019 L399.3158,598.0224 L409.1053,597.1915 L418.8947,598.8515 L428.6842,597.2729 L438.4737,597.8496 L448.2632,598.6892 L458.0526,597.9989 L467.8421,598.2043 L477.6316,598.0707 L487.4211,598.3513 L497.2105,598.4321 L507,598.1133 " fill="#222222" style="stroke: #DC143C; stroke-width: 3.0;"/><!--class TaxMinistry--><polygon fill="#222222" points="579,552,579,552.2102,589,551.5857,599,552.1933,609,552.3997,619,551.2866,629,551.9223,639,551.5735,649,551.6165,659,551.9318,669,551.3086,679,552.5536,689,551.3697,699,551.8022,709,552.4319,719,552,718.9142,552,719.0682,562.8227,718.9681,573.6453,719.1785,584.468,719.2391,595.2906,719,606.1133,719,606.699,709,606.7843,699,606.7925,689,606.3679,679,606.5769,669,606.8155,659,605.3921,649,606.7918,639,605.8168,629,606.6471,619,605.6183,609,606.0448,599,606.8549,589,606.0645,579,606.1133,579.1053,606.1133,579.3386,595.2906,579.4162,584.468,578.9961,573.6453,579.2872,562.8227,579,552" style="stroke: #DC143C; stroke-width: 3.0;"/><text fill="#DC143C" font-family="courier" font-size="20" font-weight="bold" lengthAdjust="spacingAndGlyphs" textLength="132" x="583" y="578.1074">TaxMinistry</text><path d="M580,590.1133 L580,590.3935 L589.8571,589.5609 L599.7143,590.371 L609.5714,590.6462 L619.4286,589.1621 L629.2857,590.0097 L639.1429,589.5446 L649,589.6019 L658.8571,590.0224 L668.7143,589.1915 L678.5714,590.8515 L688.4286,589.2729 L698.2857,589.8496 L708.1429,590.6892 L718,590.1133 " fill="#222222" style="stroke: #DC143C; stroke-width: 3.0;"/><path d="M580,598.1133 L580,598.3935 L589.8571,597.5609 L599.7143,598.371 L609.5714,598.6462 L619.4286,597.1621 L629.2857,598.0097 L639.1429,597.5446 L649,597.6019 L658.8571,598.0224 L668.7143,597.1915 L678.5714,598.8515 L688.4286,597.2729 L698.2857,597.8496 L708.1429,598.6892 L718,598.1133 " fill="#222222" style="stroke: #DC143C; stroke-width: 3.0;"/><!--class LawMinistry--><polygon fill="#222222" points="990,552,990,552.2102,1000,551.5857,1010,552.1933,1020,552.3997,1030,551.2866,1040,551.9223,1050,551.5735,1060,551.6165,1070,551.9318,1080,551.3086,1090,552.5536,1100,551.3697,1110,551.8022,1120,552.4319,1130,552,1129.9142,552,1130.0682,562.8227,1129.9681,573.6453,1130.1785,584.468,1130.2391,595.2906,1130,606.1133,1130,606.699,1120,606.7843,1110,606.7925,1100,606.3679,1090,606.5769,1080,606.8155,1070,605.3921,1060,606.7918,1050,605.8168,1040,606.6471,1030,605.6183,1020,606.0448,1010,606.8549,1000,606.0645,990,606.1133,990.1053,606.1133,990.3386,595.2906,990.4162,584.468,989.9961,573.6453,990.2872,562.8227,990,552" style="stroke: #DC143C; stroke-width: 3.0;"/><text fill="#DC143C" font-family="courier" font-size="20" font-weight="bold" lengthAdjust="spacingAndGlyphs" textLength="132" x="994" y="578.1074">LawMinistry</text><path d="M991,590.1133 L991,590.3935 L1000.8571,589.5609 L1010.7143,590.371 L1020.5714,590.6462 L1030.4286,589.1621 L1040.2857,590.0097 L1050.1429,589.5446 L1060,589.6019 L1069.8571,590.0224 L1079.7143,589.1915 L1089.5714,590.8515 L1099.4286,589.2729 L1109.2857,589.8496 L1119.1429,590.6892 L1129,590.1133 " fill="#222222" style="stroke: #DC143C; stroke-width: 3.0;"/><path d="M991,598.1133 L991,598.3935 L1000.8571,597.5609 L1010.7143,598.371 L1020.5714,598.6462 L1030.4286,597.1621 L1040.2857,598.0097 L1050.1429,597.5446 L1060,597.6019 L1069.8571,598.0224 L1079.7143,597.1915 L1089.5714,598.8515 L1099.4286,597.2729 L1109.2857,597.8496 L1119.1429,598.6892 L1129,598.1133 " fill="#222222" style="stroke: #DC143C; stroke-width: 3.0;"/><!--link Scenario to CasualFinancialAdviser--><path d="M643.761,61.424 L643.7891,61.5131 L639.6535,62.5271 L635.6828,64.0633 L631.6583,65.4295 L627.4574,66.2365 L623.5008,67.8176 L623.4897,67.7848 L618.9834,69.1456 L614.5328,70.6713 L610.121,72.3116 L605.5756,73.5568 L601.2174,75.3555 L601.3002,75.5872 L598.7764,75.9306 L596.4945,76.9505 L594.2421,78.053 L591.818,78.6753 L589.4842,79.5501 L589.4948,79.5785 L587.0716,80.4321 L584.6966,81.4151 L582.2983,82.3357 L579.9444,83.3754 L577.446,84.0267 L577.5537,84.3048 L575.0998,85.2596 L572.5763,86.0351 L570.1545,87.0732 L567.7376,88.1235 L565.1695,88.7839 L565.0493,88.4868 L562.7931,90.0708 L560.141,90.6763 L557.7898,92.0257 L555.1288,92.6091 L552.7217,93.8204 L552.7099,93.7923 L550.3398,95.1868 L547.6924,95.9262 L545.2087,97.0521 L542.7387,98.2104 L540.1696,99.1347 L540.2446,99.3038 L537.6509,100.2513 L535.1855,101.4877 L532.5125,102.2567 L530.1491,103.7228 L527.5799,104.7255 L527.683,104.9462 L525.1514,106.0777 L522.671,107.3187 L519.9528,108.0505 L517.409,109.1556 L515.0195,110.5914 L514.8975,110.3437 L512.5152,111.7959 L509.9953,112.9689 L507.6749,114.5469 L505.014,115.4335 L502.5555,116.7311 L502.485,116.5959 L500.1422,118.1035 L497.4982,119.0331 L495.0683,120.3738 L492.8481,122.1165 L490.2546,123.1432 L490.3484,123.3126 L487.9986,124.7654 L485.357,125.6913 L483.0809,127.2771 L480.7251,128.7192 L478.1838,129.8263 L478.0771,129.6455 L475.8074,131.1801 L473.5028,132.6556 L471.2668,134.2473 L468.7638,135.3868 L466.41,136.779 L466.5199,136.9527 L463.9964,138.0152 L461.685,139.413 L459.6837,141.3007 L457.1116,142.2865 L455,144 L455.126,144.1879 L452.8537,145.5494 L450.5388,146.8473 L448.3201,148.2887 L446.3238,150.0618 L444.0128,151.3655 L443.9366,151.2564 L441.9761,153.1075 L439.4977,154.2166 L437.6081,156.1694 L435.3871,157.6471 L433.0767,158.9968 L433.1405,159.085 L430.9138,160.5892 L428.9158,162.4091 L426.7112,163.9438 L424.4202,165.3593 L422.2009,166.8737 L422.2724,166.9691 L420.005,168.4479 L418.0695,170.3694 L415.7585,171.7902 L413.602,173.417 L411.3947,174.9761 L411.2292,174.7623 L409.139,176.4952 L407.2482,178.4857 L405.0753,180.1117 L402.8012,181.6072 L400.6674,183.2838 L400.578,183.1719 L398.4788,184.9064 L396.2214,186.4427 L394.3987,188.5236 L392.3609,190.3351 L390.028,191.7768 L390.1765,191.9576 L388.1156,193.7471 L385.7726,195.193 L383.7273,197.0016 L381.485,198.5701 L379.4859,200.4348 L379.5673,200.5313 L377.4694,202.2793 L375.4699,204.1437 L373.1586,205.6386 L371.0988,207.4316 L369.0502,209.2379 L369.1791,209.3869 L367.1512,211.2141 L364.7732,212.6367 L362.8018,214.5294 L360.8376,216.4303 L358.7302,218.1657 L358.5502,217.9625 L356.7953,220.0898 L354.7282,221.8646 L352.5834,223.5518 L350.6161,225.4392 L348.5351,227.1984 L348.7539,227.4372 L344.4455,230.7556 L340.6382,234.6211 L336.6337,238.2713 L332.587,241.8754 L328.5565,245.4972 L328.5998,245.5426 L324.7177,249.229 L320.6177,252.687 L316.8126,256.4541 L312.9203,260.1298 L309.1882,263.9735 L309.2082,263.9937 L305.4789,267.6999 L301.7651,271.4216 L297.8867,274.9772 L294.2197,278.7463 L290.504,282.4661 L290.4658,282.4288 L287.1021,286.3149 L283.469,289.9378 L279.5938,293.3241 L276.1397,297.1219 L272.5776,300.8141 L272.3914,300.6377 L269.2517,304.5107 L265.936,308.217 L262.4964,311.806 L258.7612,315.1148 L255.4828,318.8564 L255.6344,318.9961 L252.0021,322.1479 L249.0724,325.947 L245.6713,329.3117 L242.5628,332.9461 L239.2933,336.4321 L239.3728,336.5034 L236.4074,339.9618 L232.9711,342.9976 L230.3244,346.742 L227.1841,350.0434 L224.0831,353.3801 L224.2018,353.4841 L221.5016,356.831 L218.422,359.8454 L215.6472,363.127 L212.8285,366.37 L209.9257,369.5394 L209.9923,369.5964 L207.3193,372.5811 L204.9533,375.8287 L201.9015,378.4888 L199.692,381.8705 L196.8951,384.749 L196.6826,384.5707 L194.3451,387.4144 L192.1766,390.3999 L189.8066,393.2164 L187.2631,395.8873 L185.0649,398.8478 L185.2069,398.9647 L182.9911,401.444 L181.0919,404.1839 L178.9603,406.7325 L176.4663,408.983 L174.509,411.675 " fill="none" style="stroke: #A9A9A9; stroke-width: 2.0; stroke-dasharray: 7.0,7.0;"/><polygon fill="#A9A9A9" points="171.117,415.849,171.1487,415.9115,172.8107,414.8338,174.6586,414.1224,176.4459,413.2916,178.0341,412.0688,179.898,411.3888,179.8954,411.363,178.758,411.3635,177.6341,411.4938,176.5195,411.7145,175.3728,411.624,174.271,411.9693,174.4546,411.9882,173.9459,410.8223,173.9733,409.7117,174.0659,408.6079,173.7782,407.4648,173.6905,406.3423,173.7125,406.3483,173.1655,408.2409,172.7185,410.1605,172.2233,412.0672,171.8201,413.9987,171.117,415.849" style="stroke: #A9A9A9; stroke-width: 2.0;"/><!--link Scenario to CasualTaxAdviser--><path d="M684.071,84.206 L684.1596,84.2355 L681.8532,90.2853 L680.0664,96.5082 L678.1103,102.6746 L675.5979,108.6559 L673.8557,114.8935 L673.823,114.8823 L671.1788,122.082 L668.6993,129.3385 L666.3342,136.6344 L663.5747,143.7944 L661.3676,151.1447 L661.5995,151.227 L659.7193,154.9488 L658.5161,158.911 L657.3955,162.9025 L655.7943,166.7234 L654.4459,170.634 L654.4744,170.6444 L652.9765,174.6318 L651.6083,178.6664 L650.1775,182.6782 L648.8662,186.7335 L647.1655,190.6471 L647.4449,190.7516 L645.9344,194.8024 L644.2438,198.7859 L642.817,202.868 L641.4025,206.9547 L639.5963,210.895 L639.2972,210.7797 L638.32,215.0422 L636.3581,218.925 L635.1448,223.0965 L633.1605,226.9707 L631.8081,231.0886 L631.7799,231.0773 L630.5267,235.1811 L628.6131,239.0207 L627.0892,243.0162 L625.598,247.0248 L623.8708,250.9389 L624.0415,251.0102 L622.2659,254.7819 L620.782,258.6753 L618.826,262.3718 L617.5742,266.362 L615.8542,270.1569 L616.0773,270.2548 L614.4299,273.8956 L612.8932,277.585 L610.8419,281.0486 L609.1679,284.6778 L607.8281,288.4535 L607.5778,288.3368 L606.2112,291.8597 L604.5626,295.2511 L603.3231,298.8332 L601.3851,302.0897 L599.8624,305.5398 L599.7261,305.4713 L598.3859,308.7027 L596.4634,311.6414 L594.9549,314.7882 L593.8516,318.1387 L592.0269,321.1266 L592.1963,321.2203 L590.7854,324.0443 L588.8475,326.5766 L587.5697,329.4742 L586.1481,332.2923 L584.3914,334.9249 L584.2136,334.8132 L582.8822,337.2464 L581.4926,339.643 L580.2173,342.1115 L578.4974,344.3005 L577.0258,346.6457 L577.1902,346.7692 L575.4239,348.3688 L573.9748,350.2067 L572.9893,352.3927 L571.1504,353.9378 L570,356 L570.1681,356.1514 L568.5466,357.751 L566.8683,359.2994 L565.3183,360.9634 L564.0651,362.8946 L562.392,364.4477 L562.2983,364.3532 L560.9443,366.2519 L558.9536,367.5079 L557.6868,369.4948 L556.0124,371.0701 L554.2282,372.5346 L554.3008,372.6157 L552.5163,374.0947 L550.9918,375.8642 L549.2325,377.3713 L547.3749,378.7686 L545.5989,380.2571 L545.6743,380.3494 L543.7613,381.6832 L542.1983,383.4455 L540.2395,384.7231 L538.4435,386.2001 L536.594,387.6116 L536.4315,387.3955 L534.6277,388.8643 L533.0196,390.5934 L531.1346,391.9541 L529.1504,393.1827 L527.3038,394.5946 L527.2219,394.4771 L525.3511,395.8363 L523.3353,396.9875 L521.7178,398.7105 L519.9033,400.1505 L517.8183,401.2024 L517.9457,401.3986 L516.0684,402.7072 L513.9489,403.643 L512.085,404.9723 L510.0519,406.0411 L508.2277,407.4314 L508.2933,407.5392 L506.3635,408.6944 L504.513,409.9797 L502.4112,410.8522 L500.5121,412.0576 L498.622,413.278 " fill="none" style="stroke: #A9A9A9; stroke-width: 2.0; stroke-dasharray: 7.0,7.0;"/><polygon fill="#A9A9A9" points="494.197,415.854,494.2046,415.9236,496.1402,415.503,498.1203,415.4906,500.0859,415.3453,502.0038,414.7627,503.9877,414.7854,503.9811,414.7603,502.8576,414.3587,501.7674,414.0834,500.7005,413.8959,499.5536,413.4059,498.5187,413.3395,498.6972,413.3867,498.6048,412.192,499.0333,411.1351,499.5254,410.095,499.6478,408.9571,499.9646,407.8706,499.983,407.8839,498.8024,409.461,497.7058,411.0988,496.5686,412.7073,495.5088,414.3716,494.197,415.854" style="stroke: #A9A9A9; stroke-width: 2.0;"/><!--link Scenario to CasualLegalAdviser--><path d="M692.71,84.106 L692.9891,84.1308 L691.2821,93.9545 L691.2115,103.9233 L690.608,113.8449 L688.2521,123.6111 L688.2188,133.5832 L686.8779,143.4394 L686.0574,153.3417 L685.5986,163.2762 L683.8933,173.1 L684.6692,183.1439 L682.2192,192.9018 L681.9161,202.85 L681.8748,212.8214 L680.3096,222.6577 L679.6365,232.5731 L678.6259,242.4586 L678.0278,252.3807 L677.2307,262.2851 L676.8134,272.2232 L676.0491,282.1305 L675.1824,292.0287 L673.7408,301.876 L673.1408,311.7979 L672.5801,321.7232 L669.812,331.4529 L670.7934,341.515 L668.6208,351.2974 L668.846,361.2925 L666.602,371.0686 L666.2908,381.0161 L666.4892,391.0088 L664.5619,400.813 L663.749,410.716 " fill="none" style="stroke: #A9A9A9; stroke-width: 2.0; stroke-dasharray: 7.0,7.0;"/><polygon fill="#A9A9A9" points="663.296,415.834,663.3573,415.868,664.131,414.0447,665.2639,412.4206,666.2799,410.7316,666.9113,408.8293,668.075,407.2223,668.0584,407.2025,667.1163,407.8396,666.2579,408.5768,665.4579,409.3836,664.457,409.9506,663.7375,410.8535,663.879,410.972,662.8501,409.8512,662.2344,409.0762,661.6692,408.3434,660.8106,407.3651,660.1063,406.516,660.1278,406.5233,660.7341,408.3761,661.4385,410.2625,662.0955,412.1326,662.8428,414.0336,663.296,415.834" style="stroke: #A9A9A9; stroke-width: 2.0;"/><!--link Scenario to FormalFinancialAdviser--><path d="M716.891,84.041 L717.1343,84.1801 L721.5126,92.6897 L727.3171,102.0147 L732.6572,111.0741 L736.47,119.2604 L742.307,128.604 L747.4982,137.5783 L747.3341,137.4834 L751.1311,144.0294 L755.0329,150.6361 L758.5735,157.0338 L762.833,163.8473 L766.4004,170.2606 L766.1585,170.1193 L770.4588,177.2958 L774.8348,184.5165 L778.7704,191.48 L782.9638,198.5941 L787.0719,205.6584 L787.0596,205.6512 L791.5338,213.1373 L795.9506,220.5896 L800.4769,228.1066 L804.9032,235.5645 L809.04,242.8514 L809.299,243.0065 L813.6956,250.5232 L818.3337,258.1845 L822.9832,265.8526 L826.9989,273.1412 L831.8324,280.9195 L832.09,281.0763 L836.3487,288.4556 L841.2927,296.252 L845.5309,303.6189 L850.3217,311.322 L854.9765,318.9424 L855.2565,319.1164 L859.5628,326.3425 L864.2257,333.7902 L868.9185,341.2564 L873.5524,348.6861 L878,356 L877.9985,355.9991 L879.8917,358.8669 L881.3535,361.4598 L883.4587,364.4628 L885.3415,367.3241 L886.9201,369.9915 L887.0856,370.0994 L888.9955,372.9732 L890.4346,375.54 L892.2188,378.3318 L894.0775,381.1721 L896.156,384.1559 L896.1342,384.1413 L899.7098,389.5368 L903.6606,395.1829 L906.9706,400.401 L910.5348,405.7889 L914.288,411.303 " fill="none" style="stroke: #A9A9A9; stroke-width: 2.0; stroke-dasharray: 7.0,7.0;"/><polygon fill="#A9A9A9" points="917.174,415.56,917.243,415.5724,916.6902,413.5968,916.5416,411.6938,916.2615,409.7671,915.5484,407.7628,915.4346,405.866,915.4091,405.8611,915.0817,406.9503,914.8825,408.064,914.7725,409.195,914.3552,410.2669,914.3683,411.4214,914.4031,411.6027,913.2176,411.0018,912.1337,410.9302,911.0621,410.923,909.9185,410.5403,908.8128,410.3551,908.8248,410.3744,910.4794,411.3871,912.1887,412.4876,913.8717,413.5457,915.6049,414.6848,917.174,415.56" style="stroke: #A9A9A9; stroke-width: 2.0;"/><!--link Scenario to FormalTaxAdviser--><path d="M748.214,71.473 L748.2554,71.5567 L751.1842,72.816 L754.3556,74.5663 L757.4481,76.1566 L760.2807,77.2212 L763.473,79.0136 L763.4574,78.9828 L766.7326,80.5332 L770.0863,82.2391 L773.4945,84.053 L776.7147,85.4946 L780.1983,87.4577 L780.3112,87.6764 L783.6754,89.071 L787.3693,91.104 L791.1035,93.2149 L794.6036,94.8726 L798.2268,96.7687 L798.241,96.7955 L802.0539,98.7843 L805.9314,100.8952 L809.7778,102.9473 L813.6835,105.1116 L817.3956,106.9097 L817.5378,107.1719 L821.5688,109.362 L825.5079,111.383 L829.5814,113.6516 L833.6612,115.9317 L837.5415,117.8443 L837.3853,117.5644 L841.8803,120.4459 L845.8612,122.4057 L850.233,125.0663 L854.2022,127.0052 L858.5014,129.5356 L858.4862,129.5092 L862.9877,132.3037 L867.135,134.4814 L871.4913,137.023 L875.8651,139.5952 L880.1124,141.947 L880.2067,142.1061 L884.5313,144.5644 L889.017,147.2947 L893.242,149.585 L897.8559,152.5315 L902.2113,155.0417 L902.3386,155.2495 L906.7992,157.9585 L911.3231,160.7707 L915.5533,163.1036 L919.9988,165.7878 L924.635,168.7832 L924.4869,168.5501 L929.1381,171.6315 L933.6224,174.4501 L938.3488,177.6498 L942.6618,180.1989 L947.2206,183.1348 L947.1365,183.0076 L951.7934,186.2044 L956.0909,188.8574 L960.6439,191.8972 L965.447,195.3153 L969.8049,198.0596 L969.9148,198.219 L974.4742,201.4206 L978.6916,204.1265 L983.3374,207.4533 L987.8898,210.6448 L992.2248,213.5211 L992.1028,213.3502 L994.4195,215.0706 L996.6963,216.7349 L999.0515,218.5092 L1001.1016,219.856 L1003.3222,221.4417 L1003.4436,221.6076 L1005.376,222.8512 L1007.5426,224.4151 L1010.0514,226.4469 L1011.9302,227.6172 L1014.3174,229.4826 L1014.4531,229.6636 L1016.547,231.1874 L1018.5949,232.6501 L1020.7465,234.2509 L1023.1378,236.1711 L1025.1899,237.6394 L1025.1087,237.534 L1027.4964,239.5013 L1029.3318,240.752 L1031.7951,242.8175 L1033.9049,244.4243 L1035.9195,245.9074 L1035.9871,245.9927 L1038.0457,247.5987 L1040.3465,249.5103 L1042.4286,251.1459 L1044.4191,252.666 L1046.4856,254.282 L1046.561,254.3743 L1048.5255,255.9325 L1050.84,257.9194 L1052.7586,259.4214 L1054.8401,261.1228 L1056.868,262.7587 L1056.6938,262.5519 L1058.7877,264.3358 L1061.0913,266.3688 L1063.098,268.0493 L1064.9983,269.6035 L1067.0463,271.3329 L1066.9523,271.2249 L1068.9731,272.993 L1070.8275,274.5698 L1073.1396,276.6722 L1075.2251,278.5145 L1077,280 L1077.1576,280.1729 L1078.8578,281.7324 L1080.2584,282.9635 L1081.9752,284.5412 L1083.4827,285.8895 L1085.2484,287.521 L1085.3359,287.612 L1086.954,289.1676 L1088.6776,290.8331 L1090.0662,292.1501 L1091.725,293.7482 L1093.396,295.3588 L1093.536,295.4975 L1095.181,297.1576 L1096.4459,298.4411 L1098.1524,300.162 L1099.8666,301.8906 L1101.4254,303.4652 L1101.2284,303.2784 L1103.1182,305.2386 L1104.6663,306.8747 L1106.1294,308.4304 L1107.7866,310.17 L1109.3195,311.7918 L1109.5589,312.0099 L1110.7651,313.3979 L1112.5197,315.2855 L1114.0584,316.9764 L1115.5509,318.6252 L1117.0611,320.2903 L1117.1082,320.3316 L1118.6134,322.0479 L1119.8815,323.556 L1121.4704,325.3459 L1122.9645,327.0525 L1124.633,328.9123 L1124.6547,328.9306 L1126.1399,330.677 L1127.6418,332.4377 L1128.9654,334.0469 L1130.5181,335.8506 L1132.018,337.6094 L1131.9767,337.5755 L1133.6521,339.5172 L1135.0367,341.2196 L1136.1598,342.7067 L1137.7376,344.5681 L1139.1988,346.3335 L1138.9974,346.1746 L1142.0354,349.88 L1144.8831,353.4352 L1147.5969,356.8847 L1149.991,360.0819 L1152.879,363.6689 L1153.0439,363.7927 L1155.1464,366.8432 L1158.013,370.4674 L1160.3669,373.7067 L1163.0391,377.1849 L1165.5361,380.5317 L1165.6228,380.594 L1168.0058,383.8548 L1169.8747,386.7465 L1172.6055,390.2571 L1174.7974,393.3808 L1177.0323,396.5353 L1177.1622,396.6251 L1179.3453,399.6758 L1181.1134,402.4398 L1183.215,405.4342 L1185.2685,408.3954 L1187.23,411.293 " fill="none" style="stroke: #A9A9A9; stroke-width: 2.0; stroke-dasharray: 7.0,7.0;"/><polygon fill="#A9A9A9" points="1190.24,415.759,1190.309,415.7712,1189.7598,413.7954,1189.615,411.8913,1189.3386,409.9639,1188.6291,407.9596,1188.519,406.0617,1188.4936,406.0567,1188.1641,407.1453,1187.9628,408.2587,1187.8506,409.3894,1187.4313,410.4605,1187.4421,411.6151,1187.4773,411.7963,1186.2915,411.1935,1185.2082,411.1196,1184.1375,411.1103,1182.994,410.7255,1181.8887,410.5382,1181.9008,410.5575,1183.5533,411.5734,1185.2608,412.677,1186.9417,413.7383,1188.6732,414.8804,1190.24,415.759" style="stroke: #A9A9A9; stroke-width: 2.0;"/><!--link Scenario to FormalLegalAdviser--><path d="M748.086,62.079 L748.1137,62.1682 L752.4847,63.2847 L757.0179,64.9242 L761.4983,66.3934 L765.805,67.3025 L770.3521,68.9869 L770.3415,68.954 L775.2683,70.4112 L780.2485,72.0342 L785.2658,73.7724 L790.1551,75.1135 L795.2237,77.0107 L795.3023,77.2439 L800.5112,78.5569 L805.9496,80.5506 L811.4159,82.6275 L816.7194,84.221 L822.1085,86.0687 L822.1186,86.0973 L827.7649,88.0573 L833.4572,90.1475 L839.1273,92.1749 L844.8398,94.3222 L850.4141,96.0787 L850.5171,96.3586 L853.4185,97.4294 L856.2534,98.3195 L859.1856,99.474 L862.1224,100.6408 L864.9147,101.4152 L864.8011,101.1154 L867.9483,102.8059 L870.7215,103.5094 L873.7789,104.9633 L876.5437,105.6444 L879.5484,106.9589 L879.5373,106.9305 L882.6069,108.414 L885.4176,109.235 L888.3811,110.4469 L891.3574,111.6916 L894.2411,112.6996 L894.3104,112.8711 L897.1761,113.8835 L900.1601,115.189 L902.9526,116.0202 L906.0307,117.5588 L908.919,118.6271 L909.013,118.8519 L911.913,120.0302 L914.8596,121.3201 L917.5894,122.0915 L920.4781,123.243 L923.5078,124.7312 L923.3977,124.4779 L926.3825,125.9612 L929.2433,127.1592 L932.284,128.7711 L935.0175,129.6762 L937.9336,131.0015 L937.8707,130.8626 L940.8132,132.3792 L943.4868,133.3021 L946.3516,134.6471 L949.4036,136.4053 L952.1223,137.4279 L952.2052,137.6029 L955.0376,139.0373 L957.6122,139.9275 L960.5097,141.4994 L963.3368,142.9227 L966,144 L965.9074,143.8116 L969.1354,145.5117 L972.333,147.1502 L975.5902,148.9099 L978.6158,150.1982 L981.7708,151.7498 L981.8633,151.9334 L984.8274,153.1263 L987.97,154.6735 L991.3736,156.7385 L994.2968,157.8503 L997.6075,159.7312 L997.7112,159.9322 L1000.8262,161.4516 L1003.9061,162.9029 L1007.0652,164.5078 L1010.4073,166.4675 L1013.4904,167.9251 L1013.4284,167.8075 L1016.795,169.8354 L1019.7396,171.0629 L1023.164,173.2005 L1026.3183,174.8256 L1029.3998,176.3128 L1029.4518,176.4084 L1035.7737,179.7873 L1042.2816,183.5087 L1048.6215,186.9206 L1054.8911,190.2032 L1061.219,193.5931 L1061.2774,193.697 L1067.5282,197.1081 L1074.0504,201.0016 L1080.2657,204.3496 L1086.6072,207.9219 L1092.9072,211.4205 L1092.7715,211.1867 L1099.0967,214.9093 L1105.5853,218.9137 L1111.8427,222.5194 L1118.0171,225.9822 L1124.3065,229.6433 L1124.2332,229.5203 L1130.4472,233.253 L1136.5313,236.768 L1142.9725,240.8814 L1149.237,244.6987 L1155.2591,248.1097 L1155.3812,248.3093 L1161.4898,252.0849 L1167.3666,255.4812 L1173.4881,259.2778 L1179.4476,262.8095 L1185.6071,266.6681 L1185.674,266.7751 L1191.5823,270.4608 L1197.5714,274.2757 L1203.3042,277.6807 L1209.2437,281.4164 L1215.1925,285.1668 L1215.2985,285.3329 L1221.0611,289.0368 L1226.536,292.2896 L1232.3452,296.0664 L1238.1602,299.8525 L1243.8576,303.454 L1243.7096,303.2263 L1249.4605,307.1705 L1254.9547,310.7198 L1260.3852,314.1709 L1265.9614,317.8463 L1271.4443,321.3781 L1271.6229,321.6483 L1276.6378,324.7439 L1282.0618,328.4586 L1287.3247,331.9296 L1292.5532,335.3484 L1297.795,338.7873 L1297.8299,338.8394 L1302.8144,342.1778 L1307.6231,345.2541 L1312.6697,348.6851 L1317.646,352.0112 L1322.7516,355.5301 L1322.7675,355.5535 L1327.4545,358.7474 L1332.1539,361.9593 L1336.7216,364.9779 L1341.4584,368.2449 L1346.1562,371.4546 L1346.1259,371.4106 L1350.6407,374.6566 L1354.9418,377.5926 L1359.0507,380.2497 L1363.4938,383.3917 L1367.8511,386.4093 L1367.4092,385.7792 L1375.5977,392.0026 L1383.3686,397.6306 L1390.8454,402.8393 L1397.6207,407.048 L1405.48,412.802 " fill="none" style="stroke: #A9A9A9; stroke-width: 2.0; stroke-dasharray: 7.0,7.0;"/><polygon fill="#A9A9A9" points="1409.65,415.771,1409.7102,415.8068,1408.5243,414.0075,1407.6913,412.4182,1406.7433,410.7605,1405.4174,408.8779,1404.6147,407.3066,1404.5892,407.3022,1404.6654,408.3978,1404.8704,409.5154,1405.1648,410.6483,1405.1508,411.7284,1405.5688,412.8824,1405.5999,413.0643,1404.4182,412.8662,1403.3274,413.1991,1402.2476,413.5968,1401.1033,413.6175,1399.993,413.8365,1399.9975,413.8588,1401.9223,414.213,1403.8675,414.6687,1405.8029,415.0754,1407.7569,415.5755,1409.65,415.771" style="stroke: #A9A9A9; stroke-width: 2.0;"/><!--link Adviser to CasualAdviser--><path d="M500.226,239.109 L500.3131,239.1428 L496.8905,247.1954 L493.9785,255.4461 L490.9002,263.6323 L487.2752,271.6063 L484.407,279.874 " fill="none" style="stroke: #A9A9A9; stroke-width: 2.0;"/><polygon fill="none" points="493.754,236.439,493.8073,236.4845,496.4012,233.1267,499.3074,230.0356,502.1119,226.8577,504.582,223.3942,507.515,220.326,507.4891,220.3251,507.2309,224.5568,507.1032,228.7929,507.0663,233.032,506.7167,237.2607,506.805,241.504,506.8718,241.676,504.1188,240.2951,501.5607,239.4165,499.0265,238.5992,496.3539,237.4253,493.754,236.439" style="stroke: #A9A9A9; stroke-width: 2.0;"/><!--link Adviser to FormalAdviser--><path d="M591.716,203.532 L591.7952,203.8008 L601.0327,205.7919 L610.7344,209.3588 L620.285,212.4125 L629.3385,213.7787 L639.0508,217.3815 L648.3922,219.7252 L657.8812,222.57 L667.4728,225.7631 L676.7109,227.7558 L686.6527,232.1379 L695.6795,233.4135 L705.3153,236.7564 L715.0253,240.3516 L724.3031,242.4792 L733.8339,245.466 L743.269,248.1276 L752.8211,251.1866 L762.3167,254.0539 L771.9201,257.287 L781.425,260.1859 L790.9009,262.9862 L800.2138,265.2329 L809.7653,268.2899 L819.328,271.3849 L828.2647,272.3541 L838.2647,276.9341 L847.3703,278.4769 L857.1558,282.3286 L866.2411,283.8025 L875.8746,287.1378 L885.6525,290.9637 L894.846,292.805 " fill="none" style="stroke: #A9A9A9; stroke-width: 2.0;"/><polygon fill="none" points="589.639,210.217,589.6799,210.2739,586.1168,207.6318,582.7934,205.3233,579.3919,202.9062,575.7338,200.1319,572.431,197.852,572.4297,197.8261,576.6565,197.4972,580.8898,197.2987,585.1277,197.1909,589.3498,196.7706,593.594,196.788,593.771,196.8401,592.6015,199.4144,591.9488,202.141,591.3591,204.8861,590.4026,207.5231,589.639,210.217" style="stroke: #A9A9A9; stroke-width: 2.0;"/><!--link CasualAdviser to CasualFinancialAdviser--><path d="M368.865,360.317 L368.971,360.5764 L359.5819,363.5127 L350.8142,367.9698 L341.8441,371.9317 L332.2087,374.265 L323.4551,378.7567 L314.2051,382.0334 L305.1527,385.7936 L296.2376,389.8899 L286.8492,392.8278 L278.4028,398.0717 L268.7317,400.3175 L259.8757,404.5585 L251.1191,409.0429 L241.7839,412.111 L232.753,415.924 " fill="none" style="stroke: #A9A9A9; stroke-width: 2.0;"/><polygon fill="none" points="366.493,353.725,366.4966,353.795,370.7183,353.3703,374.9611,353.3557,379.197,353.2077,383.4104,352.6203,387.655,352.641,387.6378,352.6216,384.3874,355.3433,381.2235,358.1629,378.1197,361.0504,374.8087,363.7036,371.788,366.685,371.9588,366.7548,370.5345,364.0135,369.609,361.4761,368.7443,358.9635,367.5255,356.3062,366.493,353.725" style="stroke: #A9A9A9; stroke-width: 2.0;"/><!--link CasualAdviser to CasualTaxAdviser--><path d="M446.133,375.109 L446.219,375.1456 L442.4956,383.1899 L439.2761,391.4486 L435.8925,399.6375 L431.9692,407.5969 L428.793,415.874 " fill="none" style="stroke: #A9A9A9; stroke-width: 2.0;"/><polygon fill="none" points="439.852,371.991,439.9038,372.0382,442.6039,368.765,445.6076,365.7684,448.5125,362.6817,451.0922,359.2989,454.122,356.326,454.0962,356.3243,453.7027,360.5457,453.4396,364.7756,453.2671,369.0115,452.7824,373.2269,452.735,377.471,452.8072,377.6408,450.0762,376.1817,447.556,375.2183,445.0616,374.3155,442.4174,373.0607,439.852,371.991" style="stroke: #A9A9A9; stroke-width: 2.0;"/><!--link CasualAdviser to CasualLegalAdviser--><path d="M539.32,367.889 L539.4815,368.118 L547.4896,373.4238 L556.4445,380.0721 L565.0911,386.2832 L572.7238,391.0567 L581.7003,397.7356 L589.9203,403.3418 L598.4413,409.3749 L607.224,415.779 " fill="none" style="stroke: #A9A9A9; stroke-width: 2.0;"/><polygon fill="none" points="534.983,373.396,535.04,373.4367,532.4086,369.8664,530.1114,366.5346,527.7054,363.1252,524.9414,359.4603,522.673,356.149,522.6659,356.1241,526.7098,357.1735,530.7896,358.3485,534.8942,359.6108,538.9131,360.5722,543.052,361.955,543.2028,362.0614,541.2665,364.1221,539.7705,366.4934,538.3283,368.9026,536.5734,371.0913,534.983,373.396" style="stroke: #A9A9A9; stroke-width: 2.0;"/><!--link FormalAdviser to FormalFinancialAdviser--><path d="M962.522,376.059 L962.6125,376.082 L960.3231,383.9767 L958.5645,392.0061 L956.633,399.9917 L954.1331,407.833 L952.42,415.874 " fill="none" style="stroke: #A9A9A9; stroke-width: 2.0;"/><polygon fill="none" points="955.825,373.991,955.8834,374.0297,958.0507,370.3817,960.5603,366.9606,962.9585,363.4656,964.99,359.7277,967.529,356.326,967.5032,356.3237,967.7606,360.5351,968.1481,364.7579,968.626,368.9888,968.7922,373.1921,969.395,377.434,969.4404,377.6129,966.6293,376.5418,963.9508,375.9929,961.2884,375.5078,958.532,374.6519,955.825,373.991" style="stroke: #A9A9A9; stroke-width: 2.0;"/><!--link FormalAdviser to FormalTaxAdviser--><path d="M1060.19,366.036 L1060.3279,366.28 L1068.7161,370.5294 L1077.9128,376.2089 L1086.8463,381.4228 L1094.9139,385.1052 L1104.129,390.8173 L1112.6981,395.3868 L1121.5243,400.411 L1130.5293,405.7513 L1138.9183,410.0023 L1148.17,415.779 " fill="none" style="stroke: #A9A9A9; stroke-width: 2.0;"/><polygon fill="none" points="1056.67,372.086,1056.7227,372.1322,1053.7721,368.8076,1051.1304,365.7537,1048.3882,362.6116,1045.3152,359.1796,1042.7,356.149,1042.6954,356.1235,1046.8468,356.7591,1051.0214,357.5232,1055.212,358.3766,1059.3472,358.9222,1063.56,359.899,1063.7207,359.9898,1061.9991,362.233,1060.7466,364.7414,1059.5513,367.2821,1058.0231,369.6345,1056.67,372.086" style="stroke: #A9A9A9; stroke-width: 2.0;"/><!--link FormalAdviser to FormalLegalAdviser--><path d="M1078.53,346.379 L1078.6037,346.6494 L1087.7214,348.3896 L1097.271,351.7148 L1106.68,354.5239 L1115.6265,355.6355 L1125.1859,358.9969 L1134.4003,361.0917 L1143.752,363.6906 L1153.1992,366.6399 L1162.3174,368.3817 L1172.0904,372.5269 L1181.0121,373.5474 L1190.5003,376.6474 L1199.9063,379.4454 L1200.0591,380.0006 L1209.3727,381.9496 L1218.924,384.762 L1228.3854,387.2477 L1237.9567,390.1327 L1247.4749,392.8251 L1257.0944,395.8851 L1266.3839,397.7466 L1266.6237,398.6086 L1276.0004,401.2268 L1285.2224,403.289 L1294.6707,406.165 L1304.1298,409.0792 L1312.9948,409.8584 L1322.8687,414.264 L1332,416 L1331.9643,415.8731 L1335.4243,417.174 L1338.6604,417.6794 L1342.0718,418.8075 L1345.5293,420.0997 L1348.8,420.728 " fill="none" style="stroke: #A9A9A9; stroke-width: 2.0;"/><polygon fill="none" points="1076.69,353.132,1076.7296,353.1898,1073.1179,350.6217,1069.7384,348.3923,1066.2834,346.0527,1062.5795,343.3503,1059.22,341.15,1059.2181,341.1242,1063.4357,340.702,1067.6628,340.4101,1071.8964,340.2087,1076.1073,339.6953,1080.35,339.619,1080.5281,339.6672,1079.4152,342.2667,1078.8224,345.007,1078.293,347.7644,1077.3944,350.4219,1076.69,353.132" style="stroke: #A9A9A9; stroke-width: 2.0;"/><!--link CasualFinancialAdviser to EconomyMinistry--><path d="M223.978,492.071 L224.0935,492.3263 L232.8796,495.6959 L242.3426,500.5624 L251.5852,504.9414 L260.1029,507.7175 L269.5814,512.6181 L278.519,516.3226 L287.6718,520.5031 L296.9743,525.0145 L305.7611,528.3857 L315.5743,534.0265 L324.0531,536.7165 L333.4199,541.3702 L342.8951,546.2636 L351.787,549.8671 " fill="none" style="stroke: #A9A9A9; stroke-width: 2.0; stroke-dasharray: 7.0,7.0;"/><polygon fill="#A9A9A9" points="356.354,551.9322,356.4063,551.9788,354.9404,550.3698,353.7811,549.034,352.5219,547.6092,350.9344,545.8918,349.8014,544.5794,349.7771,544.5703,350.0677,545.5878,350.4805,546.6514,350.9782,547.7471,351.1831,548.7323,351.7981,549.8722,351.8632,550.0448,350.6654,550.0749,349.6577,550.6092,348.6733,551.2049,347.5538,551.4428,346.5053,551.8689,346.5055,551.8916,348.475,551.8709,350.4452,551.9537,352.4151,551.9866,354.3855,552.1148,356.354,551.9322" style="stroke: #A9A9A9; stroke-width: 2.0;"/><!--link FormalFinancialAdviser to EconomyMinistry--><path d="M806.631,488.069 L806.6525,488.1599 L803.2624,488.676 L799.9984,489.725 L796.6933,490.6005 L793.2533,490.9052 L790,492 L789.9764,491.8991 L779.567,493.8515 L769.2763,496.3126 L759.0681,499.1273 L748.5755,500.7234 L738.6491,504.7452 L727.9865,505.6132 L717.8738,508.8369 L717.8146,508.5799 L707.5821,511.801 L697.0058,513.5314 L686.6307,516.1345 L676.1795,518.4073 L665.8214,521.0837 L655.4183,523.5654 L644.9255,525.6577 L645.0989,526.4191 L635.7213,528.672 L626.3209,530.8246 L616.7922,532.4145 L607.4512,534.828 L598.119,537.2802 L588.2946,537.5716 L579.3062,541.5332 L569.6146,542.4076 L560.4575,545.6289 L550.75,546.4333 L541.4734,549.1297 L532.3104,552.3248 L522.6735,553.4392 L513.285,555.6445 " fill="none" style="stroke: #A9A9A9; stroke-width: 2.0; stroke-dasharray: 7.0,7.0;"/><polygon fill="#A9A9A9" points="508.334,556.7645,508.3476,556.8332,510.2393,557.0123,512.2108,557.5942,514.1563,558.0449,516.0162,558.0643,517.9946,558.6808,517.9808,558.6589,516.962,557.9567,516.0129,557.365,515.1122,556.8501,514.0446,556.0706,513.2108,555.6616,513.3669,555.7601,513.637,554.5927,514.3628,553.7129,515.1441,552.8682,515.602,551.8193,516.23,550.8778,516.2436,550.8961,514.6444,552.0466,513.1072,553.2802,511.54,554.4737,510.0299,555.7437,508.334,556.7645" style="stroke: #A9A9A9; stroke-width: 2.0;"/><!--link CasualTaxAdviser to TaxMinistry--><path d="M484.128,492.071 L484.2575,492.3195 L493.0468,496.3625 L502.5953,501.8624 L511.8965,506.8878 L520.3847,510.3532 L529.9505,515.8862 L538.9097,520.2552 L548.1103,525.0875 L557.4787,530.2417 L566.2687,534.2863 L576.21,540.5398 L584.6545,543.9214 L594.217,549.448 " fill="none" style="stroke: #A9A9A9; stroke-width: 2.0; stroke-dasharray: 7.0,7.0;"/><polygon fill="#A9A9A9" points="598.984,551.9322,599.0388,551.9758,597.6496,550.3047,596.5818,548.8894,595.4093,547.3907,593.8926,545.6182,592.8524,544.2248,592.8277,544.217,593.0564,545.2614,593.4096,546.3449,593.8495,547.4556,593.9909,548.4725,594.5503,549.6209,594.6057,549.7969,593.408,549.76,592.3721,550.2371,591.3559,550.7769,590.2249,550.9519,589.1543,551.3187,589.1557,551.3414,591.1195,551.4308,593.0899,551.6235,595.0571,551.7664,597.0302,552.0044,598.984,551.9322" style="stroke: #A9A9A9; stroke-width: 2.0;"/><!--link FormalTaxAdviser to TaxMinistry--><path d="M1113.7,487.552 L1113.724,487.6423 L1110.3126,488.2637 L1107.0421,489.4142 L1103.7257,490.3925 L1100.2584,490.804 L1097,492 L1096.9917,491.9665 L1092.0354,493.0342 L1087.121,494.2709 L1082.2357,495.625 L1077.2501,496.5743 L1072.4049,498.0907 L1072.4618,498.3302 L1067.3348,499.0068 L1062.3738,500.3824 L1057.4331,501.8433 L1052.3745,502.808 L1047.3779,504.0337 L1047.3846,504.0633 L1042.3088,505.177 L1037.2636,506.4253 L1032.2037,507.6086 L1027.172,508.9159 L1022.0481,509.8192 L1022.1123,510.1105 L1017.0124,511.2378 L1011.8711,512.1772 L1006.7905,513.3916 L1001.7126,514.6189 L996.5448,515.4378 L996.478,515.1243 L991.4981,516.8212 L986.2984,517.4858 L981.2657,518.9351 L976.0609,519.5763 L970.9973,520.8799 L970.9911,520.8501 L965.9714,522.2539 L960.8079,522.961 L955.7292,524.0793 L950.6576,525.232 L945.5347,526.1358 L945.6423,526.6802 L935.503,528.1137 L925.5476,530.4775 L915.2947,531.3361 L905.4856,534.4398 L895.3814,536.0509 L895.5162,536.7693 L885.8382,538.4445 L876.2271,540.4765 L866.305,540.8512 L856.6109,542.4407 L847.1188,545.1065 L846.9727,544.2909 L838.0373,546.6531 L828.9374,548.0963 L820.0761,550.8724 L810.8073,551.3727 L801.7807,553.2259 L801.7549,553.0756 L793.522,554.7472 L785.1787,555.7764 L776.914,557.2624 L768.7259,559.1954 L760.4012,560.3325 L760.4328,560.5235 L753.177,561.858 L745.823,562.5982 L738.592,564.0827 L731.3342,565.4051 L724.014,566.3496 " fill="none" style="stroke: #A9A9A9; stroke-width: 2.0; stroke-dasharray: 7.0,7.0;"/><polygon fill="#A9A9A9" points="719.01,567.16,719.0279,567.2277,720.8795,567.5287,722.8358,568.2268,724.758,568.7955,726.568,568.939,728.5333,569.6712,728.5182,569.6502,727.5327,568.8939,726.6235,568.2436,725.7675,567.6669,724.7285,566.8365,723.9458,566.3614,724.0955,566.4694,724.4374,565.321,725.2163,564.4878,726.0484,563.6931,726.5705,562.6747,727.2556,561.7739,727.268,561.7929,725.6007,562.8422,723.9899,563.9782,722.3518,565.0723,720.7659,566.2462,719.01,567.16" style="stroke: #A9A9A9; stroke-width: 2.0;"/><!--link CasualLegalAdviser to LawMinistry--><path d="M772.22,489.508 L772.3024,489.7759 L781.7296,491.9541 L791.6397,495.7026 L801.3926,498.9398 L810.6284,500.4953 L820.5495,504.2796 L830.0849,506.8092 L839.7737,509.8382 L849.5693,513.2142 L858.9971,515.3941 L869.157,519.9549 L878.365,521.4202 L888.2065,524.9455 L898.1253,528.7222 L907.5944,531.0365 L917.3267,534.2069 L926.9595,537.0534 L936.714,540.2958 L946.4097,543.3471 L956.2175,546.7629 L965.923,549.8459 L975.5982,552.8304 L985.004,554.9389 " fill="none" style="stroke: #A9A9A9; stroke-width: 2.0; stroke-dasharray: 7.0,7.0;"/><polygon fill="#A9A9A9" points="989.997,556.474,990.043,556.5268,988.421,555.076,987.0688,553.9349,985.6287,552.693,983.8998,551.1194,982.5707,550.0048,982.5478,549.9927,982.9745,550.9381,983.5166,551.9447,984.139,552.9937,984.4848,553.8963,985.218,555.004,985.3043,555.1671,984.1198,555.3478,983.1874,556.0047,982.2858,556.7196,981.2052,557.0966,980.2188,557.6513,980.2215,557.6739,982.1731,557.4053,984.1372,557.2395,986.0952,557.0241,988.0647,556.9033,989.997,556.474" style="stroke: #A9A9A9; stroke-width: 2.0;"/><!--link FormalLegalAdviser to LawMinistry--><path d="M1348.77,489.426 L1348.8522,489.6939 L1338.9039,491.8743 L1329.4374,495.6253 L1319.814,498.8649 L1309.6747,500.4225 L1300.2192,504.2093 L1290.3787,506.7411 L1280.6914,509.7724 L1271.1106,513.1508 L1261.1629,515.3329 L1251.9456,519.8964 L1241.7786,521.3637 L1232.2436,524.8915 L1222.7857,528.6706 L1212.8792,530.9871 L1203.2353,534.1599 L1193.4921,537.0087 L1183.8703,540.2535 L1174.1899,543.3072 L1164.6213,546.7254 L1154.9506,549.8107 L1145.2497,552.7976 L1135.28,554.9082 " fill="none" style="stroke: #A9A9A9; stroke-width: 2.0; stroke-dasharray: 7.0,7.0;"/><polygon fill="#A9A9A9" points="1130.27,556.4452,1130.2784,556.5148,1132.2092,556.5431,1134.1891,556.9792,1136.153,557.2826,1138.0644,557.1493,1140.0485,557.6204,1140.0364,557.5975,1138.982,556.9655,1137.9888,556.4489,1137.038,556.0126,1135.9409,555.2998,1135.0487,554.9742,1135.2118,555.0605,1135.3923,553.876,1136.0489,552.9435,1136.7637,552.0417,1137.1404,550.961,1137.6949,549.9744,1137.7099,549.9916,1136.2029,551.2606,1134.764,552.6076,1133.2923,553.917,1131.8832,555.2982,1130.27,556.4452" style="stroke: #A9A9A9; stroke-width: 2.0;"/><!--link Scenario to Adviser--><!--
@startuml
skinparam backgroundColor #222222
skinparam handwritten true
hide circle

skinparam shadowing false
skinparam padding 1
skinparam arrow {
    Thickness 2
    Color #DarkGrey
    FontSize 20
    FontName courier
    FontStyle normal
    FontColor #DarkGrey
}
skinparam class {
    BorderThickness 3
    BorderColor #DC143C
    BackgroundColor #222222
    FontSize 20
    FontName courier
    FontStyle bold
    FontColor #DC143C
}
skinparam classAttribute {
    FontSize 15
    FontName courier
    FontStyle normal
    FontColor #DarkGrey
}
skinparam note {
    BorderThickness 3
    BorderColor #DarkGrey
    BackgroundColor #222222
    FontSize 20
    FontName courier
    FontStyle normal
    FontColor #DarkGrey
}

class Scenario  {
+ main()
}
class Adviser  {
+ advise()
}
class CasualAdviser  {
+ advise()
}
class FormalAdviser  {
+ advise()
}
class CasualFinancialAdviser  {
+ advise()
}
class CasualTaxAdviser  {
+ advise()
}
class CasualLegalAdviser  {
+ advise()
}
class FormalFinancialAdviser  {
+ advise()
}
class FormalTaxAdviser  {
+ adviser()
}
class FormalLegalAdviser  {
+ advise()
}
class EconomyMinistry
class TaxMinistry
class LawMinistry

Scenario ..> CasualFinancialAdviser
Scenario ..> CasualTaxAdviser
Scenario ..> CasualLegalAdviser
Scenario ..> FormalFinancialAdviser
Scenario ..> FormalTaxAdviser
Scenario ..> FormalLegalAdviser
Adviser <|- - CasualAdviser
Adviser <|- - FormalAdviser
CasualAdviser <|- - CasualFinancialAdviser
CasualAdviser <|- - CasualTaxAdviser
CasualAdviser <|- - CasualLegalAdviser
FormalAdviser <|- - FormalFinancialAdviser
FormalAdviser <|- - FormalTaxAdviser
FormalAdviser <|- - FormalLegalAdviser
CasualFinancialAdviser ..> EconomyMinistry
FormalFinancialAdviser ..> EconomyMinistry
CasualTaxAdviser ..> TaxMinistry
FormalTaxAdviser ..> TaxMinistry
CasualLegalAdviser ..> LawMinistry
FormalLegalAdviser ..> LawMinistry
Scenario -[hidden]down- Adviser
@enduml

PlantUML version 1.2019.05(Sat Apr 20 18:45:36 CEST 2019)
(GPL source distribution)
Java Runtime: Java(TM) SE Runtime Environment
JVM: Java HotSpot(TM) 64-Bit Server VM
Java Version: 11.0.8+10-LTS
Operating System: Windows 10
OS Version: 10.0
Default Encoding: windows-1252
Language: es
Country: ES
--></g></svg>