<?xml version="1.0" encoding="UTF-8" standalone="no"?><svg xmlns="http://www.w3.org/2000/svg" xmlns:xlink="http://www.w3.org/1999/xlink" contentScriptType="application/ecmascript" contentStyleType="text/css" height="873px" preserveAspectRatio="none" style="width:939px;height:873px;background:#222222;" version="1.1" viewBox="0 0 939 873" width="939px" zoomAndPan="magnify"><defs/><g><!--class Scenario--><polygon fill="#222222" points="92,8,92,8.2102,102.4,7.5857,112.8,8.1933,123.2,8.3997,133.6,7.2866,144,7.9223,154.4,7.5735,164.8,7.6165,175.2,7.9318,185.6,7.3086,196,8,196.5536,8,195.3697,17.4623,195.8022,26.9246,196.4319,36.3868,195.9142,45.8491,196.0682,55.3114,195.9681,64.7737,196.1785,74.236,196,83.6982,196,83.9374,185.6,84.2839,175.2,84.3693,164.8,84.3775,154.4,83.9529,144,84.1618,133.6,84.4005,123.2,82.9771,112.8,84.3768,102.4,83.4017,92,83.6982,92.5338,83.6982,91.505,74.236,91.9315,64.7737,92.7416,55.3114,91.9513,45.8491,92.1053,36.3868,92.3386,26.9246,92.4162,17.4623,92,8" style="stroke: #DC143C; stroke-width: 3.0;"/><text fill="#DC143C" font-family="courier" font-size="20" font-weight="bold" lengthAdjust="spacingAndGlyphs" textLength="96" x="96" y="34.1074">Scenario</text><path d="M93,46.1133 L93,46.3935 L103.2,45.5609 L113.4,46.371 L123.6,46.6462 L133.8,45.1621 L144,46.0097 L154.2,45.5446 L164.4,45.6019 L174.6,46.0224 L184.8,45.1915 L195,46.1133 " fill="#222222" style="stroke: #DC143C; stroke-width: 3.0;"/><path d="M93,54.1133 L93,54.3935 L103.2,53.5609 L113.4,54.371 L123.6,54.6462 L133.8,53.1621 L144,54.0097 L154.2,53.5446 L164.4,53.6019 L174.6,54.0224 L184.8,53.1915 L195,54.1133 " fill="#222222" style="stroke: #DC143C; stroke-width: 3.0;"/><polygon fill="#84BE84" points="106.0166,71.1355,105.5768,71.7363,105.0567,72.6164,104.3128,73.2095,103.5311,73.5338,102.9078,73.562,102.1067,73.1564,101.3509,72.8914,100.7771,72.3534,100.4762,71.7374,100.2977,71.247,100.1229,70.6064,99.8391,70.0552,100.0572,69.5169,100.2482,68.9274,100.9653,68.4611,101.4697,67.8561,102.0941,67.6552,102.8364,67.4821,103.7883,67.5849,104.3097,67.8308,104.9158,67.9423,105.6529,68.6974,105.9098,69.4946,106.0214,70.0385,105.895,70.9348" style="stroke: #038048; stroke-width: 1.0;"/><text fill="#A9A9A9" font-family="courier" font-size="15" lengthAdjust="spacingAndGlyphs" textLength="54" x="113" y="74.1938">main()</text><!--class DeliveryMan--><polygon fill="#222222" points="67,312.5,67,312.7102,77.2667,312.0857,87.5333,312.6933,97.8,312.8997,108.0667,311.7866,118.3333,312.4223,128.6,312.0735,138.8667,312.1165,149.1333,312.4318,159.4,311.8086,169.6667,313.0536,179.9333,311.8697,190.2,312.3022,200.4667,312.9319,210.7333,312.4142,221,312.5,221.0682,312.5,220.9681,322.4057,221.1785,332.3114,221.2391,342.217,221.5857,352.1227,221.6711,362.0284,221.6793,371.9341,221.2546,381.8398,221.4636,391.7454,221.7022,401.6511,220.2788,411.5568,221.6785,421.4625,221,431.3682,221,431.0717,210.7333,431.902,200.4667,430.8731,190.2,431.2997,179.9333,432.1098,169.6667,431.3194,159.4,431.4735,149.1333,431.7068,138.8667,431.7844,128.6,431.3643,118.3333,431.6554,108.0667,430.7957,97.8,431.6526,87.5333,431.9164,77.2667,431.8127,67,431.3682,67.613,431.3682,66.5169,421.4625,66.3478,411.5568,66.3786,401.6511,66.9411,391.7454,66.8035,381.8398,67.6814,371.9341,66.8253,362.0284,66.6569,352.1227,67.2283,342.217,66.3332,332.3114,66.4809,322.4057,67,312.5" style="stroke: #DC143C; stroke-width: 3.0;"/><text fill="#DC143C" font-family="courier" font-size="20" font-weight="bold" lengthAdjust="spacingAndGlyphs" textLength="132" x="78" y="338.6074">DeliveryMan</text><path d="M68,350.6133 L68,350.8935 L78.1333,350.0609 L88.2667,350.871 L98.4,351.1462 L108.5333,349.6621 L118.6667,350.5097 L128.8,350.0446 L138.9333,350.1019 L149.0667,350.5224 L159.2,349.6915 L169.3333,351.3515 L179.4667,349.7729 L189.6,350.3496 L199.7333,351.1892 L209.8667,350.4989 L220,350.6133 " fill="#222222" style="stroke: #DC143C; stroke-width: 3.0;"/><path d="M68,358.6133 L68,358.8935 L78.1333,358.0609 L88.2667,358.871 L98.4,359.1462 L108.5333,357.6621 L118.6667,358.5097 L128.8,358.0446 L138.9333,358.1019 L149.0667,358.5224 L159.2,357.6915 L169.3333,359.3515 L179.4667,357.7729 L189.6,358.3496 L199.7333,359.1892 L209.8667,358.4989 L220,358.6133 " fill="#222222" style="stroke: #DC143C; stroke-width: 3.0;"/><polygon fill="#84BE84" points="81.0166,375.6355,80.5768,376.2363,80.0567,377.1164,79.3128,377.7095,78.5311,378.0338,77.9078,378.062,77.1067,377.6564,76.3509,377.3914,75.7771,376.8534,75.4762,376.2374,75.2977,375.747,75.1229,375.1064,74.8391,374.5552,75.0572,374.0169,75.2482,373.4274,75.9653,372.9611,76.4697,372.3561,77.0941,372.1552,77.8364,371.9821,78.7883,372.0849,79.3097,372.3308,79.9158,372.4423,80.6529,373.1974,80.9098,373.9946,81.0214,374.5385,80.895,375.4348" style="stroke: #038048; stroke-width: 1.0;"/><text fill="#A9A9A9" font-family="courier" font-size="15" lengthAdjust="spacingAndGlyphs" textLength="81" x="88" y="378.6938">deliver()</text><polygon fill="#84BE84" points="81.0166,397.2204,80.5768,397.8213,80.0567,398.7014,79.3128,399.2945,78.5311,399.6188,77.9078,399.6469,77.1067,399.2413,76.3509,398.9763,75.7771,398.4383,75.4762,397.8224,75.2977,397.332,75.1229,396.6914,74.8391,396.1401,75.0572,395.6019,75.2482,395.0123,75.9653,394.546,76.4697,393.941,77.0941,393.7401,77.8364,393.5671,78.7883,393.6699,79.3097,393.9158,79.9158,394.0272,80.6529,394.7824,80.9098,395.5795,81.0214,396.1235,80.895,397.0198" style="stroke: #038048; stroke-width: 1.0;"/><text fill="#A9A9A9" font-family="courier" font-size="15" lengthAdjust="spacingAndGlyphs" textLength="108" x="88" y="400.2788">getBicycle()</text><polygon fill="#84BE84" points="81.0166,418.8054,80.5768,419.4063,80.0567,420.2863,79.3128,420.8794,78.5311,421.2038,77.9078,421.2319,77.1067,420.8263,76.3509,420.5613,75.7771,420.0233,75.4762,419.4073,75.2977,418.9169,75.1229,418.2763,74.8391,417.7251,75.0572,417.1869,75.2482,416.5973,75.9653,416.131,76.4697,415.526,77.0941,415.3251,77.8364,415.1521,78.7883,415.2549,79.3097,415.5007,79.9158,415.6122,80.6529,416.3673,80.9098,417.1645,81.0214,417.7084,80.895,418.6047" style="stroke: #038048; stroke-width: 1.0;"/><text fill="#A9A9A9" font-family="courier" font-size="15" lengthAdjust="spacingAndGlyphs" textLength="126" x="88" y="421.8638">getMotocycle()</text><path d="M256.5,144 L256.5,368 L221.438,372 L256.5,376 L256.5,599.9258 A0,0 0 0 0 256.5,599.9258 L927.5,599.9258 A0,0 0 0 0 927.5,599.9258 L927.5,154 L917.5,144 L256.5,144 A0,0 0 0 0 256.5,144 " fill="#222222" style="stroke: #A9A9A9; stroke-width: 3.0;"/><path d="M917.5,144 L917.6868,144 L917.1317,146 L917.6718,148 L917.8553,150 L916.8659,152 L917.5,154 L917.5,153.9309 L919.5,153.6209 L921.5,153.6591 L923.5,153.9394 L925.5,153.3854 L927.5,154 L927.848,154.348 L925.1038,151.6038 L923.3757,149.8757 L921.7715,148.2715 L919.4461,145.9461 L917.5,144 " fill="#222222" style="stroke: #A9A9A9; stroke-width: 3.0;"/><text fill="#A9A9A9" font-family="courier" font-size="20" lengthAdjust="spacingAndGlyphs" textLength="216" x="263.5" y="170.1074">public deliver() {</text><text fill="#A9A9A9" font-family="courier" font-size="20" lengthAdjust="spacingAndGlyphs" textLength="36" x="287.5" y="196.2207">...</text><text fill="#A9A9A9" font-family="courier" font-size="20" lengthAdjust="spacingAndGlyphs" textLength="504" x="287.5" y="222.334">if (vehicle == AvailableVehicle.BYCYCLE) {</text><text fill="#A9A9A9" font-family="courier" font-size="20" lengthAdjust="spacingAndGlyphs" textLength="216" x="311.5" y="248.4473">this.getBicycle();</text><text fill="#A9A9A9" font-family="courier" font-size="20" lengthAdjust="spacingAndGlyphs" textLength="624" x="287.5" y="274.5605">} else if (vehicle == AvailableVehicle.MOTORCYCLE) {</text><text fill="#A9A9A9" font-family="courier" font-size="20" lengthAdjust="spacingAndGlyphs" textLength="240" x="311.5" y="300.6738">this.getMotocycle();</text><text fill="#A9A9A9" font-family="courier" font-size="20" lengthAdjust="spacingAndGlyphs" textLength="12" x="287.5" y="326.7871">}</text><text fill="#A9A9A9" font-family="courier" font-size="20" lengthAdjust="spacingAndGlyphs" textLength="36" x="287.5" y="352.9004">...</text><text fill="#A9A9A9" font-family="courier" font-size="20" lengthAdjust="spacingAndGlyphs" textLength="12" x="263.5" y="379.0137">}</text><text fill="#A9A9A9" font-family="courier" font-size="20" lengthAdjust="spacingAndGlyphs" textLength="0" x="275.5" y="405.127"/><text fill="#A9A9A9" font-family="courier" font-size="20" lengthAdjust="spacingAndGlyphs" textLength="228" x="263.5" y="431.2402">public getBicycle {</text><text fill="#A9A9A9" font-family="courier" font-size="20" lengthAdjust="spacingAndGlyphs" textLength="252" x="287.5" y="457.3535">return new Bicycle();</text><text fill="#A9A9A9" font-family="courier" font-size="20" lengthAdjust="spacingAndGlyphs" textLength="12" x="263.5" y="483.4668">}</text><text fill="#A9A9A9" font-family="courier" font-size="20" lengthAdjust="spacingAndGlyphs" textLength="0" x="275.5" y="509.5801"/><text fill="#A9A9A9" font-family="courier" font-size="20" lengthAdjust="spacingAndGlyphs" textLength="288" x="263.5" y="535.6934">public getMotorcycle() {</text><text fill="#A9A9A9" font-family="courier" font-size="20" lengthAdjust="spacingAndGlyphs" textLength="288" x="287.5" y="561.8066">return new Motorcycle();</text><text fill="#A9A9A9" font-family="courier" font-size="20" lengthAdjust="spacingAndGlyphs" textLength="12" x="263.5" y="587.9199">}</text><!--class Vehicle--><polygon fill="#222222" points="91.5,660,91.5,660.2102,101.0455,659.5857,110.5909,660.1933,120.1364,660.3997,129.6818,659.2866,139.2273,659.9223,148.7727,659.5735,158.3182,659.6165,167.8636,659.9318,177.4091,659.3086,186.9545,660.5536,196.5,660,195.8697,660,196.3022,670.1724,196.9319,680.3449,196.4142,690.5173,196.5682,700.6897,196.4681,710.8622,196.6785,721.0346,196.5,731.207,196.5,731.4462,186.9545,731.7927,177.4091,731.8781,167.8636,731.8863,158.3182,731.4617,148.7727,731.6706,139.2273,731.9093,129.6818,730.4858,120.1364,731.8855,110.5909,730.9105,101.0455,731.7408,91.5,731.207,91.005,731.207,91.4315,721.0346,92.2416,710.8622,91.4513,700.6897,91.6053,690.5173,91.8386,680.3449,91.9162,670.1724,91.5,660" style="stroke: #DC143C; stroke-width: 3.0;"/><text fill="#DC143C" font-family="sans-serif" font-size="12" font-style="italic" lengthAdjust="spacingAndGlyphs" textLength="101" x="93.5" y="678.457">«AbstractProduct»</text><text fill="#DC143C" font-family="courier" font-size="20" font-weight="bold" lengthAdjust="spacingAndGlyphs" textLength="84" x="102" y="703.2012">Vehicle</text><path d="M92.5,715.207 L92.5,715.4873 L102.8,714.6546 L113.1,715.4647 L123.4,715.7399 L133.7,714.2558 L144,715.1034 L154.3,714.6384 L164.6,714.6957 L174.9,715.1162 L185.2,714.2852 L195.5,715.207 " fill="#222222" style="stroke: #DC143C; stroke-width: 3.0;"/><path d="M92.5,723.207 L92.5,723.4873 L102.8,722.6546 L113.1,723.4647 L123.4,723.7399 L133.7,722.2558 L144,723.1034 L154.3,722.6384 L164.6,722.6957 L174.9,723.1162 L185.2,722.2852 L195.5,723.207 " fill="#222222" style="stroke: #DC143C; stroke-width: 3.0;"/><!--class Bicycle--><polygon fill="#222222" points="6,791,6,791.2102,15.8333,790.5857,25.6667,791.1933,35.5,791.3997,45.3333,790.2866,55.1667,790.9223,65,790.5735,74.8333,790.6165,84.6667,790.9318,94.5,790.3086,104.3333,791.5536,114.1667,790.3697,124,791,123.8022,791,124.4319,801.1724,123.9142,811.3449,124.0682,821.5173,123.9681,831.6897,124.1785,841.8622,124.2391,852.0346,124,862.207,124,862.7927,114.1667,862.8781,104.3333,862.8863,94.5,862.4617,84.6667,862.6706,74.8333,862.9093,65,861.4858,55.1667,862.8855,45.3333,861.9105,35.5,862.7408,25.6667,861.712,15.8333,862.1385,6,862.207,6.7416,862.207,5.9513,852.0346,6.1053,841.8622,6.3386,831.6897,6.4162,821.5173,5.9961,811.3449,6.2872,801.1724,6,791" style="stroke: #DC143C; stroke-width: 3.0;"/><text fill="#DC143C" font-family="sans-serif" font-size="12" font-style="italic" lengthAdjust="spacingAndGlyphs" textLength="114" x="8" y="809.457">«ConcreteProductA»</text><text fill="#DC143C" font-family="courier" font-size="20" font-weight="bold" lengthAdjust="spacingAndGlyphs" textLength="84" x="23" y="834.2012">Bicycle</text><path d="M7,846.207 L7,846.4873 L16.6667,845.6546 L26.3333,846.4647 L36,846.7399 L45.6667,845.2558 L55.3333,846.1034 L65,845.6384 L74.6667,845.6957 L84.3333,846.1162 L94,845.2852 L103.6667,846.9452 L113.3333,845.3667 L123,846.207 " fill="#222222" style="stroke: #DC143C; stroke-width: 3.0;"/><path d="M7,854.207 L7,854.4873 L16.6667,853.6546 L26.3333,854.4647 L36,854.7399 L45.6667,853.2558 L55.3333,854.1034 L65,853.6384 L74.6667,853.6957 L84.3333,854.1162 L94,853.2852 L103.6667,854.9452 L113.3333,853.3667 L123,854.207 " fill="#222222" style="stroke: #DC143C; stroke-width: 3.0;"/><!--class Motorcycle--><polygon fill="#222222" points="172,791,172,791.2102,181.8462,790.5857,191.6923,791.1933,201.5385,791.3997,211.3846,790.2866,221.2308,790.9223,231.0769,790.5735,240.9231,790.6165,250.7692,790.9318,260.6154,790.3086,270.4615,791.5536,280.3077,790.3697,290.1538,790.8022,300,791,300.4319,791,299.9142,801.1724,300.0682,811.3449,299.9681,821.5173,300.1785,831.6897,300.2391,841.8622,300.5857,852.0346,300,862.207,300,862.8781,290.1538,862.8863,280.3077,862.4617,270.4615,862.6706,260.6154,862.9093,250.7692,861.4858,240.9231,862.8855,231.0769,861.9105,221.2308,862.7408,211.3846,861.712,201.5385,862.1385,191.6923,862.9486,181.8462,862.1583,172,862.207,172.1053,862.207,172.3386,852.0346,172.4162,841.8622,171.9961,831.6897,172.2872,821.5173,171.4276,811.3449,172.2844,801.1724,172,791" style="stroke: #DC143C; stroke-width: 3.0;"/><text fill="#DC143C" font-family="sans-serif" font-size="12" font-style="italic" lengthAdjust="spacingAndGlyphs" textLength="114" x="179" y="809.457">«ConcreteProductB»</text><text fill="#DC143C" font-family="courier" font-size="20" font-weight="bold" lengthAdjust="spacingAndGlyphs" textLength="120" x="176" y="834.2012">Motorcycle</text><path d="M173,846.207 L173,846.4873 L182.6923,845.6546 L192.3846,846.4647 L202.0769,846.7399 L211.7692,845.2558 L221.4615,846.1034 L231.1538,845.6384 L240.8462,845.6957 L250.5385,846.1162 L260.2308,845.2852 L269.9231,846.9452 L279.6154,845.3667 L289.3077,845.9433 L299,846.207 " fill="#222222" style="stroke: #DC143C; stroke-width: 3.0;"/><path d="M173,854.207 L173,854.4873 L182.6923,853.6546 L192.3846,854.4647 L202.0769,854.7399 L211.7692,853.2558 L221.4615,854.1034 L231.1538,853.6384 L240.8462,853.6957 L250.5385,854.1162 L260.2308,853.2852 L269.9231,854.9452 L279.6154,853.3667 L289.3077,853.9433 L299,854.207 " fill="#222222" style="stroke: #DC143C; stroke-width: 3.0;"/><!--link Scenario to DeliveryMan--><path d="M144,84.167 L144.2802,84.167 L143.4476,94.309 L144.2577,104.4511 L144.5329,114.5931 L143.0488,124.7352 L143.8964,134.8772 L143.4313,145.0193 L143.4887,155.1613 L143.9091,165.3034 L143.0782,175.4454 L144.7382,185.5875 L143.1596,195.7295 L143.7363,205.8715 L144.5759,216.0136 L143.8856,226.1556 L144.091,236.2977 L143.9574,246.4397 L144.238,256.5818 L144.3188,266.7238 L144.7809,276.8659 L144.8947,287.0079 L144.9057,297.15 L144,307.292 " fill="none" style="stroke: #A9A9A9; stroke-width: 2.0; stroke-dasharray: 7.0,7.0;"/><polygon fill="#A9A9A9" points="144,312.42,144.064,312.4485,144.6738,310.5639,145.6589,308.8462,146.5217,307.0741,146.9827,305.1234,148,303.42,147.9817,303.4017,147.0995,304.1195,146.3096,304.9296,145.5839,305.8039,144.637,306.457,144,307.42,144.1305,307.5505,143.0514,306.4714,142.3534,305.7734,141.7018,305.1218,140.7798,304.1998,140,303.42,140.0208,303.4292,140.7903,305.2157,141.6544,307.0442,142.4728,308.8524,143.3784,310.6993,144,312.42" style="stroke: #A9A9A9; stroke-width: 2.0;"/><!--link DeliveryMan to Vehicle--><path d="M144,431.594 L144.2802,431.594 L143.4476,441.7191 L144.2577,451.8442 L144.5329,461.9693 L143.0488,472.0944 L143.8964,482.2195 L143.4313,492.3445 L143.4887,502.4696 L143.9091,512.5947 L143.0782,522.7198 L144.7382,532.8449 L143.1596,542.97 L143.7363,553.0951 L144.5759,563.2202 L143.8856,573.3453 L144.091,583.4704 L143.9574,593.5955 L144.238,603.7205 L144.3188,613.8456 L144.7809,623.9707 L144.8947,634.0958 L144.9057,644.2209 L144,654.346 " fill="none" style="stroke: #A9A9A9; stroke-width: 2.0; stroke-dasharray: 7.0,7.0;"/><polygon fill="#A9A9A9" points="144,659.626,144.064,659.6545,144.6738,657.7699,145.6589,656.0522,146.5217,654.2801,146.9827,652.3294,148,650.626,147.9817,650.6077,147.0995,651.3255,146.3096,652.1356,145.5839,653.0099,144.637,653.663,144,654.626,144.1305,654.7565,143.0514,653.6774,142.3534,652.9794,141.7018,652.3278,140.7798,651.4058,140,650.626,140.0208,650.6352,140.7903,652.4217,141.6544,654.2502,142.4728,656.0584,143.3784,657.9053,144,659.626" style="stroke: #A9A9A9; stroke-width: 2.0;"/><!--link Vehicle to Bicycle--><path d="M112.186,748.45 L112.425,748.5964 L106.5235,756.6385 L102.023,765.5386 L97.0663,774.1593 L90.6092,781.8612 L86.229,790.8349 " fill="none" style="stroke: #A9A9A9; stroke-width: 2.0;"/><polygon fill="none" points="106.415,744.47,106.4593,744.5243,109.6105,741.683,113.0213,739.1599,116.3477,736.5332,119.3958,733.5658,122.829,731.07,122.8037,731.0645,121.795,735.1822,120.9141,739.3274,120.1218,743.4918,119.0237,747.5901,118.354,751.781,118.4504,751.9384,115.8565,750.1396,113.544,748.8004,111.2658,747.5172,108.7879,745.9078,106.415,744.47" style="stroke: #A9A9A9; stroke-width: 2.0;"/><!--link Vehicle to Motorcycle--><path d="M180.373,747.501 L180.6012,747.6637 L186.1042,755.847 L192.9448,764.9842 L199.3499,773.8108 L204.3226,781.6158 L211.278,790.8349 " fill="none" style="stroke: #A9A9A9; stroke-width: 2.0;"/><polygon fill="none" points="174.568,751.417,174.6353,751.4366,173.2526,747.3091,172.2643,743.2962,171.1475,739.246,169.6085,735.073,168.654,731.07,168.6391,731.0488,172.0344,733.3974,175.5051,735.8528,179.0281,738.3822,182.3707,740.6561,185.966,743.288,186.0732,743.4382,183.5644,744.7428,181.3685,746.4859,179.2108,748.2826,176.831,749.7679,174.568,751.417" style="stroke: #A9A9A9; stroke-width: 2.0;"/><!--link DeliveryMan to Bicycle--><path d="M126.29,431.732 L126.3799,431.7574 L124.8102,436.2918 L123.7675,440.9751 L122.5532,445.6099 L120.7745,450.0853 L119.777,454.7814 L119.7437,454.7723 L118.1994,459.858 L116.8231,464.9895 L115.5636,470.1527 L113.9016,475.2064 L112.8034,480.4134 L113.0416,480.4754 L111.0909,485.8843 L109.8355,491.474 L108.6649,497.0859 L107.0007,502.5693 L105.5962,508.1203 L105.6256,508.1275 L104.1396,513.9716 L102.7877,519.8487 L101.371,525.7099 L100.0778,531.6015 L98.3823,537.394 L98.6729,537.461 L97.2777,543.5284 L95.6951,549.5525 L94.3869,555.6399 L93.0916,561.7303 L91.3887,567.7267 L91.0755,567.6587 L91.0148,570.8716 L89.9227,573.8607 L89.6146,577.0199 L88.4991,580.0039 L88.0455,583.1315 L88.0157,583.1253 L87.7277,586.2941 L86.7431,589.3187 L86.1695,592.4284 L85.6305,595.5452 L84.8425,598.6106 L85.024,598.6461 L84.2339,601.7082 L83.754,604.831 L82.7722,607.8556 L82.539,611.0268 L81.8081,614.1004 L82.0477,614.1445 L81.4349,617.2236 L80.941,620.3246 L79.8944,623.3239 L79.253,626.3978 L78.9706,629.5376 L78.6983,629.4912 L78.4224,632.5974 L77.8396,635.6513 L77.7018,638.7811 L76.8043,641.7814 L76.3584,644.8586 L76.2078,644.8352 L75.987,647.9025 L75.1222,650.8696 L74.7154,653.9079 L74.7567,657.0161 L74,660 L74.1919,660.0256 L73.8907,663.2893 L72.9925,666.4735 L72.842,669.7573 L72.5286,673.0195 L71.8356,676.231 L71.6269,676.2084 L71.4339,679.5464 L71.1726,682.8771 L71.0456,686.2223 L70.3965,689.511 L70.039,692.8312 L70.2438,692.8491 L69.5014,696.1512 L69.1542,699.4879 L69.3846,702.8751 L68.5517,706.1692 L68.5767,709.5385 L68.8024,709.5543 L68.436,712.8553 L67.9934,716.1509 L67.723,719.4587 L67.851,722.7943 L67.4153,726.0905 L67.2825,726.0831 L67.4992,729.3319 L66.8125,732.5307 L67.1529,735.7863 L66.9151,739.0099 L66.5214,742.2249 L66.6302,742.2295 L66.4104,745.3167 L66.5801,748.4205 L66.3979,751.5093 L66.0686,754.5917 L65.8615,757.6794 L65.9807,757.6827 L65.6534,763.242 L65.8793,768.8162 L65.4795,774.3735 L65.3371,779.9378 L65.1102,785.4998 " fill="none" style="stroke: #A9A9A9; stroke-width: 2.0; stroke-dasharray: 7.0,7.0;"/><polygon fill="#A9A9A9" points="65.028,790.7625,65.0916,790.792,65.7307,788.9172,66.7425,787.215,67.633,785.4567,68.1244,783.5134,69.1682,781.8261,69.1501,781.8075,68.2568,782.5114,67.4544,783.3091,66.7151,784.172,65.7582,784.8102,65.1061,785.7631,65.2387,785.8915,64.1679,784.8045,63.484,784.0924,62.8473,783.4261,61.936,782.4936,61.1691,781.7011,61.1901,781.71,61.9311,783.5092,62.7674,785.349,63.5578,787.1692,64.4358,789.0267,65.028,790.7625" style="stroke: #A9A9A9; stroke-width: 2.0;"/><!--link DeliveryMan to Motorcycle--><path d="M160.269,431.688 L160.3593,431.712 L161.3222,436.2631 L162.8142,440.955 L164.134,445.6011 L164.887,450.0962 L166.4245,454.8003 L166.3911,454.7916 L167.5787,459.8921 L168.9349,465.0364 L170.4081,470.2112 L171.4777,475.2809 L173.1127,480.4978 L173.3512,480.5582 L174.2481,485.9821 L175.8414,491.5824 L177.5196,497.2042 L178.7035,502.7007 L180.1474,508.2632 L180.1768,508.2704 L181.5726,514.1229 L183.1024,520.0084 L184.5675,525.878 L186.1561,531.7779 L187.3422,537.579 L187.6325,537.6476 L189.0698,543.7182 L190.32,549.7446 L191.8441,555.8357 L193.3811,561.9299 L194.5112,567.928 L194.1985,567.8575 L196.1967,574.1672 L197.1653,580.2449 L198.9167,586.499 L199.8619,592.5714 L201.4679,598.7927 L201.4381,598.7864 L203.102,605.0338 L204.0701,611.1334 L205.4487,617.3203 L206.8618,623.5145 L208.0263,629.6558 L208.2078,629.6916 L209.2193,635.7243 L210.541,641.8181 L211.3609,647.8132 L212.9293,653.9556 L214,660 L214.2398,660.043 L214.777,663.2831 L215.4333,666.5446 L215.5364,669.7069 L216.045,672.9419 L216.9129,676.2413 L216.6404,676.1964 L217.4338,679.5585 L217.9201,682.8701 L218.8518,686.255 L219.0231,689.5147 L219.6463,692.8488 L219.4956,692.8258 L220.2561,696.2064 L220.3722,699.4888 L220.9466,702.8411 L221.9692,706.2616 L222.1936,709.5605 L222.3853,709.5878 L222.9876,712.9173 L222.9936,716.1621 L223.7465,719.513 L224.3367,722.8408 L224.5478,726.1147 L224.3395,726.0876 L225.326,732.4267 L226.2442,738.757 L227.2964,745.1046 L227.8277,751.3846 L228.65,757.7023 L228.8542,757.7262 L229.0554,763.2366 L229.6506,768.793 L230.8217,774.4167 L230.9327,779.9166 L231.899,785.5164 " fill="none" style="stroke: #A9A9A9; stroke-width: 2.0; stroke-dasharray: 7.0,7.0;"/><polygon fill="#A9A9A9" points="232.479,790.7775,232.5458,790.7988,232.9455,788.8588,233.7366,787.0435,234.4003,785.1877,234.6449,783.1982,235.4696,781.3937,235.4494,781.3775,234.6511,782.1875,233.9546,783.0793,233.3291,784.0278,232.4594,784.7806,231.9316,785.8076,232.047,785.9516,230.9174,784.936,230.1248,784.3409,229.3733,783.7971,228.3826,782.9548,227.5177,782.2695,227.5373,782.281,228.5007,783.9658,229.5536,785.7027,230.5633,787.4145,231.6554,789.1743,232.479,790.7775" style="stroke: #A9A9A9; stroke-width: 2.0;"/><!--
@startuml
skinparam backgroundColor #222222
skinparam handwritten true
hide circle

skinparam shadowing false
skinparam padding 1
skinparam arrow {
    Thickness 2
    Color #DarkGrey
    FontSize 20
    FontName courier
    FontStyle normal
    FontColor #DarkGrey
}
skinparam class {
    BorderThickness 3
    BorderColor #DC143C
    BackgroundColor #222222
    FontSize 20
    FontName courier
    FontStyle bold
    FontColor #DC143C
    StereotypeFontColor #DC143C
}
skinparam classAttribute {
    FontSize 15
    FontName courier
    FontStyle normal
    FontColor #DarkGrey
}
skinparam note {
    BorderThickness 3
    BorderColor #DarkGrey
    BackgroundColor #222222
    FontSize 20
    FontName courier
    FontStyle normal
    FontColor #DarkGrey
}

class Scenario  {
+ main()
}

class DeliveryMan  {
+ deliver()
+ getBicycle()
+ getMotocycle()
}

note right
public deliver() {
  ...
  if (vehicle == AvailableVehicle.BYCYCLE) {
    this.getBicycle();
  } else if (vehicle == AvailableVehicle.MOTORCYCLE) {
    this.getMotocycle();
  }
  ...
}

public getBicycle {
  return new Bicycle();
}

public getMotorcycle() {
  return new Motorcycle();
}
end note

class Vehicle <<AbstractProduct>>
class Bicycle <<ConcreteProductA>>
class Motorcycle <<ConcreteProductB>>



Scenario ..> DeliveryMan
DeliveryMan ..> Vehicle
Vehicle <|- - Bicycle
Vehicle <|- - Motorcycle
DeliveryMan ..> Bicycle
DeliveryMan ..> Motorcycle
@enduml

PlantUML version 1.2019.05(Sat Apr 20 18:45:36 CEST 2019)
(GPL source distribution)
Java Runtime: Java(TM) SE Runtime Environment
JVM: Java HotSpot(TM) 64-Bit Server VM
Java Version: 11.0.8+10-LTS
Operating System: Windows 10
OS Version: 10.0
Default Encoding: windows-1252
Language: es
Country: ES
--></g></svg>