<?xml version="1.0" encoding="UTF-8" standalone="no"?><svg xmlns="http://www.w3.org/2000/svg" xmlns:xlink="http://www.w3.org/1999/xlink" contentScriptType="application/ecmascript" contentStyleType="text/css" height="345px" preserveAspectRatio="none" style="width:1235px;height:345px;background:#222222;" version="1.1" viewBox="0 0 1235 345" width="1235px" zoomAndPan="magnify"><defs/><g><!--class PowerplugC--><polygon fill="#222222" points="415.02,144,415.02,144.2102,425.0756,143.5857,435.1311,144.1933,445.1867,144.3997,455.2422,143.2866,465.2978,143.9223,475.3533,143.5735,485.4089,143.6165,495.4644,143.9318,505.52,143.3086,515.5756,144.5536,525.6311,143.3697,535.6867,143.8022,545.7422,144.4319,555.7978,143.9142,565.8533,144.0682,575.9089,143.9681,585.9644,144.1785,596.02,144,596.2591,144,596.6057,153.4623,596.6911,162.9246,596.6993,172.3868,596.2746,181.8491,596.4836,191.3114,596.7222,200.7737,595.2988,210.236,596.02,219.6982,596.02,220.3768,585.9644,219.4017,575.9089,220.2321,565.8533,219.2032,555.7978,219.6297,545.7422,220.4398,535.6867,219.6495,525.6311,219.8035,515.5756,220.0369,505.52,220.1145,495.4644,219.6943,485.4089,219.9855,475.3533,219.1258,465.2978,219.9826,455.2422,220.2464,445.1867,220.1428,435.1311,220.3113,425.0756,219.2152,415.02,219.6982,414.3678,219.6982,414.3986,210.236,414.9611,200.7737,414.8235,191.3114,415.7014,181.8491,414.8453,172.3868,414.6769,162.9246,415.2483,153.4623,415.02,144" style="stroke: #DC143C; stroke-width: 3.0;"/><text fill="#DC143C" font-family="courier" font-size="20" font-weight="bold" lengthAdjust="spacingAndGlyphs" textLength="120" x="445.52" y="170.1074">PowerplugC</text><path d="M416.02,182.1133 L416.02,182.3935 L425.9644,181.5609 L435.9089,182.371 L445.8533,182.6462 L455.7978,181.1621 L465.7422,182.0097 L475.6867,181.5446 L485.6311,181.6019 L495.5756,182.0224 L505.52,181.1915 L515.4644,182.8515 L525.4089,181.2729 L535.3533,181.8496 L545.2978,182.6892 L555.2422,181.9989 L565.1867,182.2043 L575.1311,182.0707 L585.0756,182.3513 L595.02,182.1133 " fill="#222222" style="stroke: #DC143C; stroke-width: 3.0;"/><path d="M416.02,190.1133 L416.02,190.3935 L425.9644,189.5609 L435.9089,190.371 L445.8533,190.6462 L455.7978,189.1621 L465.7422,190.0097 L475.6867,189.5446 L485.6311,189.6019 L495.5756,190.0224 L505.52,189.1915 L515.4644,190.8515 L525.4089,189.2729 L535.3533,189.8496 L545.2978,190.6892 L555.2422,189.9989 L565.1867,190.2043 L575.1311,190.0707 L585.0756,190.3513 L595.02,190.1133 " fill="#222222" style="stroke: #DC143C; stroke-width: 3.0;"/><polygon fill="#84BE84" points="429.0366,207.1355,428.5968,207.7363,428.0767,208.6164,427.3328,209.2095,426.5511,209.5338,425.9278,209.562,425.1267,209.1564,424.3709,208.8914,423.7971,208.3534,423.4962,207.7374,423.3177,207.247,423.1429,206.6064,422.8591,206.0552,423.0772,205.5169,423.2682,204.9274,423.9853,204.4611,424.4897,203.8561,425.1141,203.6552,425.8564,203.4821,426.8083,203.5849,427.3297,203.8308,427.9358,203.9423,428.6729,204.6974,428.9298,205.4946,429.0414,206.0385,428.915,206.9348" style="stroke: #038048; stroke-width: 1.0;"/><text fill="#A9A9A9" font-family="courier" font-size="15" lengthAdjust="spacingAndGlyphs" textLength="153" x="436.02" y="210.1938">plug(PowerPointC)</text><!--class PowerPlugF--><polygon fill="#222222" points="631.52,144,631.52,144.2102,641.6376,143.5857,651.7553,144.1933,661.8729,144.3997,671.9906,143.2866,682.1082,143.9223,692.2259,143.5735,702.3435,143.6165,712.4612,143.9318,722.5788,143.3086,732.6965,144.5536,742.8141,143.3697,752.9318,143.8022,763.0494,144.4319,773.1671,143.9142,783.2847,144.0682,793.4024,143.9681,803.52,144,803.6985,144,803.7591,153.4623,804.1057,162.9246,804.1911,172.3868,804.1993,181.8491,803.7746,191.3114,803.9836,200.7737,804.2222,210.236,803.52,219.6982,803.52,218.9771,793.4024,220.3768,783.2847,219.4017,773.1671,220.2321,763.0494,219.2032,752.9318,219.6297,742.8141,220.4398,732.6965,219.6495,722.5788,219.8035,712.4612,220.0369,702.3435,220.1145,692.2259,219.6943,682.1082,219.9855,671.9906,219.1258,661.8729,219.9826,651.7553,220.2464,641.6376,220.1428,631.52,219.6982,632.133,219.6982,631.0369,210.236,630.8678,200.7737,630.8986,191.3114,631.4611,181.8491,631.3235,172.3868,632.2014,162.9246,631.3453,153.4623,631.52,144" style="stroke: #DC143C; stroke-width: 3.0;"/><text fill="#DC143C" font-family="courier" font-size="20" font-weight="bold" lengthAdjust="spacingAndGlyphs" textLength="120" x="657.52" y="170.1074">PowerPlugF</text><path d="M632.52,182.1133 L632.52,182.3935 L642.52,181.5609 L652.52,182.371 L662.52,182.6462 L672.52,181.1621 L682.52,182.0097 L692.52,181.5446 L702.52,181.6019 L712.52,182.0224 L722.52,181.1915 L732.52,182.8515 L742.52,181.2729 L752.52,181.8496 L762.52,182.6892 L772.52,181.9989 L782.52,182.2043 L792.52,182.0707 L802.52,182.1133 " fill="#222222" style="stroke: #DC143C; stroke-width: 3.0;"/><path d="M632.52,190.1133 L632.52,190.3935 L642.52,189.5609 L652.52,190.371 L662.52,190.6462 L672.52,189.1621 L682.52,190.0097 L692.52,189.5446 L702.52,189.6019 L712.52,190.0224 L722.52,189.1915 L732.52,190.8515 L742.52,189.2729 L752.52,189.8496 L762.52,190.6892 L772.52,189.9989 L782.52,190.2043 L792.52,190.0707 L802.52,190.1133 " fill="#222222" style="stroke: #DC143C; stroke-width: 3.0;"/><polygon fill="#84BE84" points="645.5366,207.1355,645.0968,207.7363,644.5767,208.6164,643.8328,209.2095,643.0511,209.5338,642.4278,209.562,641.6267,209.1564,640.8709,208.8914,640.2971,208.3534,639.9962,207.7374,639.8177,207.247,639.6429,206.6064,639.3591,206.0552,639.5772,205.5169,639.7682,204.9274,640.4853,204.4611,640.9897,203.8561,641.6141,203.6552,642.3564,203.4821,643.3083,203.5849,643.8297,203.8308,644.4358,203.9423,645.1729,204.6974,645.4298,205.4946,645.5414,206.0385,645.415,206.9348" style="stroke: #038048; stroke-width: 1.0;"/><text fill="#A9A9A9" font-family="courier" font-size="15" lengthAdjust="spacingAndGlyphs" textLength="144" x="652.52" y="210.1938">plug(PowerPoitF)</text><!--class Scenario--><polygon fill="#222222" points="353.52,8,353.52,8.2102,363.92,7.5857,374.32,8.1933,384.72,8.3997,395.12,7.2866,405.52,7.9223,415.92,7.5735,426.32,7.6165,436.72,7.9318,447.12,7.3086,457.52,8,458.0736,8,456.8897,17.4623,457.3222,26.9246,457.9519,36.3868,457.4342,45.8491,457.5882,55.3114,457.4881,64.7737,457.6985,74.236,457.52,83.6982,457.52,83.9374,447.12,84.2839,436.72,84.3693,426.32,84.3775,415.92,83.9529,405.52,84.1618,395.12,84.4005,384.72,82.9771,374.32,84.3768,363.92,83.4017,353.52,83.6982,354.0538,83.6982,353.025,74.236,353.4515,64.7737,354.2616,55.3114,353.4713,45.8491,353.6253,36.3868,353.8586,26.9246,353.9362,17.4623,353.52,8" style="stroke: #DC143C; stroke-width: 3.0;"/><text fill="#DC143C" font-family="courier" font-size="20" font-weight="bold" lengthAdjust="spacingAndGlyphs" textLength="96" x="357.52" y="34.1074">Scenario</text><path d="M354.52,46.1133 L354.52,46.3935 L364.72,45.5609 L374.92,46.371 L385.12,46.6462 L395.32,45.1621 L405.52,46.0097 L415.72,45.5446 L425.92,45.6019 L436.12,46.0224 L446.32,45.1915 L456.52,46.1133 " fill="#222222" style="stroke: #DC143C; stroke-width: 3.0;"/><path d="M354.52,54.1133 L354.52,54.3935 L364.72,53.5609 L374.92,54.371 L385.12,54.6462 L395.32,53.1621 L405.52,54.0097 L415.72,53.5446 L425.92,53.6019 L436.12,54.0224 L446.32,53.1915 L456.52,54.1133 " fill="#222222" style="stroke: #DC143C; stroke-width: 3.0;"/><polygon fill="#84BE84" points="367.5366,71.1355,367.0968,71.7363,366.5767,72.6164,365.8328,73.2095,365.0511,73.5338,364.4278,73.562,363.6267,73.1564,362.8709,72.8914,362.2971,72.3534,361.9962,71.7374,361.8177,71.247,361.6429,70.6064,361.3591,70.0552,361.5772,69.5169,361.7682,68.9274,362.4853,68.4611,362.9897,67.8561,363.6141,67.6552,364.3564,67.4821,365.3083,67.5849,365.8297,67.8308,366.4358,67.9423,367.1729,68.6974,367.4298,69.4946,367.5414,70.0385,367.415,70.9348" style="stroke: #038048; stroke-width: 1.0;"/><text fill="#A9A9A9" font-family="courier" font-size="15" lengthAdjust="spacingAndGlyphs" textLength="54" x="374.52" y="74.1938">main()</text><!--class ApplianceC--><polygon fill="#222222" points="135.52,19,135.52,19.2102,145.3662,18.5857,155.2123,19.1933,165.0585,19.3997,174.9046,18.2866,184.7508,18.9223,194.5969,18.5735,204.4431,18.6165,214.2892,18.9318,224.1354,18.3086,233.9815,19.5536,243.8277,18.3697,253.6738,18.8022,263.52,19,263.9519,19,263.4342,29.8227,263.5882,40.6453,263.4881,51.468,263.6985,62.2906,263.52,73.1133,263.52,73.3524,253.6738,73.699,243.8277,73.7843,233.9815,73.7925,224.1354,73.3679,214.2892,73.5769,204.4431,73.8155,194.5969,72.3921,184.7508,73.7918,174.9046,72.8168,165.0585,73.6471,155.2123,72.6183,145.3662,73.0448,135.52,73.1133,136.2616,73.1133,135.4713,62.2906,135.6253,51.468,135.8586,40.6453,135.9362,29.8227,135.52,19" style="stroke: #DC143C; stroke-width: 3.0;"/><text fill="#DC143C" font-family="courier" font-size="20" font-weight="bold" lengthAdjust="spacingAndGlyphs" textLength="120" x="139.52" y="45.1074">ApplianceC</text><path d="M136.52,57.1133 L136.52,57.3935 L146.2123,56.5609 L155.9046,57.371 L165.5969,57.6462 L175.2892,56.1621 L184.9815,57.0097 L194.6738,56.5446 L204.3662,56.6019 L214.0585,57.0224 L223.7508,56.1915 L233.4431,57.8515 L243.1354,56.2729 L252.8277,56.8496 L262.52,57.1133 " fill="#222222" style="stroke: #DC143C; stroke-width: 3.0;"/><path d="M136.52,65.1133 L136.52,65.3935 L146.2123,64.5609 L155.9046,65.371 L165.5969,65.6462 L175.2892,64.1621 L184.9815,65.0097 L194.6738,64.5446 L204.3662,64.6019 L214.0585,65.0224 L223.7508,64.1915 L233.4431,65.8515 L243.1354,64.2729 L252.8277,64.8496 L262.52,65.1133 " fill="#222222" style="stroke: #DC143C; stroke-width: 3.0;"/><!--class ApplianceF--><polygon fill="#222222" points="963.52,19,963.52,19.2102,973.3662,18.5857,983.2123,19.1933,993.0585,19.3997,1002.9046,18.2866,1012.7508,18.9223,1022.5969,18.5735,1032.4431,18.6165,1042.2892,18.9318,1052.1354,18.3086,1061.9815,19.5536,1071.8277,18.3697,1081.6738,18.8022,1091.52,19,1091.9519,19,1091.4342,29.8227,1091.5882,40.6453,1091.4881,51.468,1091.6985,62.2906,1091.52,73.1133,1091.52,73.3524,1081.6738,73.699,1071.8277,73.7843,1061.9815,73.7925,1052.1354,73.3679,1042.2892,73.5769,1032.4431,73.8155,1022.5969,72.3921,1012.7508,73.7918,1002.9046,72.8168,993.0585,73.6471,983.2123,72.6183,973.3662,73.0448,963.52,73.1133,964.2616,73.1133,963.4713,62.2906,963.6253,51.468,963.8586,40.6453,963.9362,29.8227,963.52,19" style="stroke: #DC143C; stroke-width: 3.0;"/><text fill="#DC143C" font-family="courier" font-size="20" font-weight="bold" lengthAdjust="spacingAndGlyphs" textLength="120" x="967.52" y="45.1074">ApplianceF</text><path d="M964.52,57.1133 L964.52,57.3935 L974.2123,56.5609 L983.9046,57.371 L993.5969,57.6462 L1003.2892,56.1621 L1012.9815,57.0097 L1022.6738,56.5446 L1032.3662,56.6019 L1042.0585,57.0224 L1051.7508,56.1915 L1061.4431,57.8515 L1071.1354,56.2729 L1080.8277,56.8496 L1090.52,57.1133 " fill="#222222" style="stroke: #DC143C; stroke-width: 3.0;"/><path d="M964.52,65.1133 L964.52,65.3935 L974.2123,64.5609 L983.9046,65.371 L993.5969,65.6462 L1003.2892,64.1621 L1012.9815,65.0097 L1022.6738,64.5446 L1032.3662,64.6019 L1042.0585,65.0224 L1051.7508,64.1915 L1061.4431,65.8515 L1071.1354,64.2729 L1080.8277,64.8496 L1090.52,65.1133 " fill="#222222" style="stroke: #DC143C; stroke-width: 3.0;"/><!--class HairdryerC--><polygon fill="#222222" points="180.52,155,180.52,155.2102,190.3662,154.5857,200.2123,155.1933,210.0585,155.3997,219.9046,154.2866,229.7508,154.9223,239.5969,154.5735,249.4431,154.6165,259.2892,154.9318,269.1354,154.3086,278.9815,155.5536,288.8277,154.3697,298.6738,154.8022,308.52,155,308.9519,155,308.4342,165.8227,308.5882,176.6453,308.4881,187.468,308.6985,198.2906,308.52,209.1133,308.52,209.3524,298.6738,209.699,288.8277,209.7843,278.9815,209.7925,269.1354,209.3679,259.2892,209.5769,249.4431,209.8155,239.5969,208.3921,229.7508,209.7918,219.9046,208.8168,210.0585,209.6471,200.2123,208.6183,190.3662,209.0448,180.52,209.1133,181.2616,209.1133,180.4713,198.2906,180.6253,187.468,180.8586,176.6453,180.9362,165.8227,180.52,155" style="stroke: #DC143C; stroke-width: 3.0;"/><text fill="#DC143C" font-family="courier" font-size="20" font-weight="bold" lengthAdjust="spacingAndGlyphs" textLength="120" x="184.52" y="181.1074">HairdryerC</text><path d="M181.52,193.1133 L181.52,193.3935 L191.2123,192.5609 L200.9046,193.371 L210.5969,193.6462 L220.2892,192.1621 L229.9815,193.0097 L239.6738,192.5446 L249.3662,192.6019 L259.0585,193.0224 L268.7508,192.1915 L278.4431,193.8515 L288.1354,192.2729 L297.8277,192.8496 L307.52,193.1133 " fill="#222222" style="stroke: #DC143C; stroke-width: 3.0;"/><path d="M181.52,201.1133 L181.52,201.3935 L191.2123,200.5609 L200.9046,201.371 L210.5969,201.6462 L220.2892,200.1621 L229.9815,201.0097 L239.6738,200.5446 L249.3662,200.6019 L259.0585,201.0224 L268.7508,200.1915 L278.4431,201.8515 L288.1354,200.2729 L297.8277,200.8496 L307.52,201.1133 " fill="#222222" style="stroke: #DC143C; stroke-width: 3.0;"/><!--class ShaverC--><polygon fill="#222222" points="53.52,155,53.52,155.2102,63.7422,154.5857,73.9644,155.1933,84.1867,155.3997,94.4089,154.2866,104.6311,154.9223,114.8533,154.5735,125.0756,154.6165,135.2978,154.9318,145.52,155,144.8286,155,146.0736,165.8227,144.8897,176.6453,145.3222,187.468,145.9519,198.2906,145.52,209.1133,145.52,209.0275,135.2978,209.1815,125.0756,209.0813,114.8533,209.2918,104.6311,209.3524,94.4089,209.699,84.1867,209.7843,73.9644,209.7925,63.7422,209.3679,53.52,209.1133,53.9836,209.1133,54.2222,198.2906,52.7988,187.468,54.1985,176.6453,53.2235,165.8227,53.52,155" style="stroke: #DC143C; stroke-width: 3.0;"/><text fill="#DC143C" font-family="courier" font-size="20" font-weight="bold" lengthAdjust="spacingAndGlyphs" textLength="84" x="57.52" y="181.1074">ShaverC</text><path d="M54.52,193.1133 L54.52,193.3935 L64.52,192.5609 L74.52,193.371 L84.52,193.6462 L94.52,192.1621 L104.52,193.0097 L114.52,192.5446 L124.52,192.6019 L134.52,193.0224 L144.52,193.1133 " fill="#222222" style="stroke: #DC143C; stroke-width: 3.0;"/><path d="M54.52,201.1133 L54.52,201.3935 L64.52,200.5609 L74.52,201.371 L84.52,201.6462 L94.52,200.1621 L104.52,201.0097 L114.52,200.5446 L124.52,200.6019 L134.52,201.0224 L144.52,201.1133 " fill="#222222" style="stroke: #DC143C; stroke-width: 3.0;"/><!--class HairdryerF--><polygon fill="#222222" points="1036.52,155,1036.52,155.2102,1046.3662,154.5857,1056.2123,155.1933,1066.0585,155.3997,1075.9046,154.2866,1085.7508,154.9223,1095.5969,154.5735,1105.4431,154.6165,1115.2892,154.9318,1125.1354,154.3086,1134.9815,155.5536,1144.8277,154.3697,1154.6738,154.8022,1164.52,155,1164.9519,155,1164.4342,165.8227,1164.5882,176.6453,1164.4881,187.468,1164.6985,198.2906,1164.52,209.1133,1164.52,209.3524,1154.6738,209.699,1144.8277,209.7843,1134.9815,209.7925,1125.1354,209.3679,1115.2892,209.5769,1105.4431,209.8155,1095.5969,208.3921,1085.7508,209.7918,1075.9046,208.8168,1066.0585,209.6471,1056.2123,208.6183,1046.3662,209.0448,1036.52,209.1133,1037.2616,209.1133,1036.4713,198.2906,1036.6253,187.468,1036.8586,176.6453,1036.9362,165.8227,1036.52,155" style="stroke: #DC143C; stroke-width: 3.0;"/><text fill="#DC143C" font-family="courier" font-size="20" font-weight="bold" lengthAdjust="spacingAndGlyphs" textLength="120" x="1040.52" y="181.1074">HairdryerF</text><path d="M1037.52,193.1133 L1037.52,193.3935 L1047.2123,192.5609 L1056.9046,193.371 L1066.5969,193.6462 L1076.2892,192.1621 L1085.9815,193.0097 L1095.6738,192.5446 L1105.3662,192.6019 L1115.0585,193.0224 L1124.7508,192.1915 L1134.4431,193.8515 L1144.1354,192.2729 L1153.8277,192.8496 L1163.52,193.1133 " fill="#222222" style="stroke: #DC143C; stroke-width: 3.0;"/><path d="M1037.52,201.1133 L1037.52,201.3935 L1047.2123,200.5609 L1056.9046,201.371 L1066.5969,201.6462 L1076.2892,200.1621 L1085.9815,201.0097 L1095.6738,200.5446 L1105.3662,200.6019 L1115.0585,201.0224 L1124.7508,200.1915 L1134.4431,201.8515 L1144.1354,200.2729 L1153.8277,200.8496 L1163.52,201.1133 " fill="#222222" style="stroke: #DC143C; stroke-width: 3.0;"/><!--class ShaverF--><polygon fill="#222222" points="909.52,155,909.52,155.2102,919.7422,154.5857,929.9644,155.1933,940.1867,155.3997,950.4089,154.2866,960.6311,154.9223,970.8533,154.5735,981.0756,154.6165,991.2978,154.9318,1001.52,155,1000.8286,155,1002.0736,165.8227,1000.8897,176.6453,1001.3222,187.468,1001.9519,198.2906,1001.52,209.1133,1001.52,209.0275,991.2978,209.1815,981.0756,209.0813,970.8533,209.2918,960.6311,209.3524,950.4089,209.699,940.1867,209.7843,929.9644,209.7925,919.7422,209.3679,909.52,209.1133,909.9836,209.1133,910.2222,198.2906,908.7988,187.468,910.1985,176.6453,909.2235,165.8227,909.52,155" style="stroke: #DC143C; stroke-width: 3.0;"/><text fill="#DC143C" font-family="courier" font-size="20" font-weight="bold" lengthAdjust="spacingAndGlyphs" textLength="84" x="913.52" y="181.1074">ShaverF</text><path d="M910.52,193.1133 L910.52,193.3935 L920.52,192.5609 L930.52,193.371 L940.52,193.6462 L950.52,192.1621 L960.52,193.0097 L970.52,192.5446 L980.52,192.6019 L990.52,193.0224 L1000.52,193.1133 " fill="#222222" style="stroke: #DC143C; stroke-width: 3.0;"/><path d="M910.52,201.1133 L910.52,201.3935 L920.52,200.5609 L930.52,201.371 L940.52,201.6462 L950.52,200.1621 L960.52,201.0097 L970.52,200.5446 L980.52,200.6019 L990.52,201.0224 L1000.52,201.1133 " fill="#222222" style="stroke: #DC143C; stroke-width: 3.0;"/><!--class PowerPointC--><polygon fill="#222222" points="291.52,280,291.52,280.2102,301.52,279.5857,311.52,280.1933,321.52,280.3997,331.52,279.2866,341.52,279.9223,351.52,279.5735,361.52,279.6165,371.52,279.9318,381.52,279.3086,391.52,280.5536,401.52,279.3697,411.52,279.8022,421.52,280.4319,431.52,280,431.4342,280,431.5882,290.8227,431.4881,301.6453,431.6985,312.468,431.7591,323.2906,431.52,334.1133,431.52,334.699,421.52,334.7843,411.52,334.7925,401.52,334.3679,391.52,334.5769,381.52,334.8155,371.52,333.3921,361.52,334.7918,351.52,333.8168,341.52,334.6471,331.52,333.6183,321.52,334.0448,311.52,334.8549,301.52,334.0645,291.52,334.1133,291.6253,334.1133,291.8586,323.2906,291.9362,312.468,291.5161,301.6453,291.8072,290.8227,291.52,280" style="stroke: #DC143C; stroke-width: 3.0;"/><text fill="#DC143C" font-family="courier" font-size="20" font-weight="bold" lengthAdjust="spacingAndGlyphs" textLength="132" x="295.52" y="306.1074">PowerPointC</text><path d="M292.52,318.1133 L292.52,318.3935 L302.3771,317.5609 L312.2343,318.371 L322.0914,318.6462 L331.9486,317.1621 L341.8057,318.0097 L351.6629,317.5446 L361.52,317.6019 L371.3771,318.0224 L381.2343,317.1915 L391.0914,318.8515 L400.9486,317.2729 L410.8057,317.8496 L420.6629,318.6892 L430.52,318.1133 " fill="#222222" style="stroke: #DC143C; stroke-width: 3.0;"/><path d="M292.52,326.1133 L292.52,326.3935 L302.3771,325.5609 L312.2343,326.371 L322.0914,326.6462 L331.9486,325.1621 L341.8057,326.0097 L351.6629,325.5446 L361.52,325.6019 L371.3771,326.0224 L381.2343,325.1915 L391.0914,326.8515 L400.9486,325.2729 L410.8057,325.8496 L420.6629,326.6892 L430.52,326.1133 " fill="#222222" style="stroke: #DC143C; stroke-width: 3.0;"/><!--class PowerPointF--><polygon fill="#222222" points="786.52,280,786.52,280.2102,796.52,279.5857,806.52,280.1933,816.52,280.3997,826.52,279.2866,836.52,279.9223,846.52,279.5735,856.52,279.6165,866.52,279.9318,876.52,279.3086,886.52,280.5536,896.52,279.3697,906.52,279.8022,916.52,280.4319,926.52,280,926.4342,280,926.5882,290.8227,926.4881,301.6453,926.6985,312.468,926.7591,323.2906,926.52,334.1133,926.52,334.699,916.52,334.7843,906.52,334.7925,896.52,334.3679,886.52,334.5769,876.52,334.8155,866.52,333.3921,856.52,334.7918,846.52,333.8168,836.52,334.6471,826.52,333.6183,816.52,334.0448,806.52,334.8549,796.52,334.0645,786.52,334.1133,786.6253,334.1133,786.8586,323.2906,786.9362,312.468,786.5161,301.6453,786.8072,290.8227,786.52,280" style="stroke: #DC143C; stroke-width: 3.0;"/><text fill="#DC143C" font-family="courier" font-size="20" font-weight="bold" lengthAdjust="spacingAndGlyphs" textLength="132" x="790.52" y="306.1074">PowerPointF</text><path d="M787.52,318.1133 L787.52,318.3935 L797.3771,317.5609 L807.2343,318.371 L817.0914,318.6462 L826.9486,317.1621 L836.8057,318.0097 L846.6629,317.5446 L856.52,317.6019 L866.3771,318.0224 L876.2343,317.1915 L886.0914,318.8515 L895.9486,317.2729 L905.8057,317.8496 L915.6629,318.6892 L925.52,318.1133 " fill="#222222" style="stroke: #DC143C; stroke-width: 3.0;"/><path d="M787.52,326.1133 L787.52,326.3935 L797.3771,325.5609 L807.2343,326.371 L817.0914,326.6462 L826.9486,325.1621 L836.8057,326.0097 L846.6629,325.5446 L856.52,325.6019 L866.3771,326.0224 L876.2343,325.1915 L886.0914,326.8515 L895.9486,325.2729 L905.8057,325.8496 L915.6629,326.6892 L925.52,326.1133 " fill="#222222" style="stroke: #DC143C; stroke-width: 3.0;"/><!--link Scenario to HairdryerC--><path d="M355.43,84.16 L355.4877,84.2335 L353.2961,85.6006 L351.4425,87.3986 L349.4789,89.0562 L347.1533,90.2526 L345.3288,92.0875 L345.3071,92.0606 L343.248,93.5225 L341.2982,95.1198 L339.4245,96.8114 L337.2888,98.1783 L335.52,100 L335.678,100.1886 L332.2887,102.3424 L329.3607,105.0469 L326.4891,107.8185 L323.2899,110.1993 L320.263,112.7856 L320.2828,112.8086 L317.1923,115.4213 L314.1922,118.1384 L311.1484,120.8052 L308.1878,123.5681 L304.9563,126.0175 L305.1539,126.2409 L302.2018,128.8577 L299.1223,131.3305 L296.2294,134.0142 L293.3452,136.7077 L290.1839,139.0881 L289.9694,138.85 L287.655,141.7725 L284.6341,143.911 L282.1504,146.6455 L279.1135,148.7662 L276.53,151.39 " fill="none" style="stroke: #A9A9A9; stroke-width: 2.0; stroke-dasharray: 7.0,7.0;"/><polygon fill="#A9A9A9" points="272.71,154.87,272.7319,154.9365,274.5374,154.1218,276.4714,153.6971,278.3636,153.1453,280.118,152.1759,282.0631,151.7847,282.0619,151.7588,280.9262,151.5878,279.7968,151.5472,278.6719,151.5973,277.5318,151.3349,276.4129,151.5102,276.5973,151.5192,276.258,150.37,276.4569,149.2469,276.7214,148.1271,276.604,146.9887,276.6874,145.86,276.7082,145.8692,275.8822,147.6577,275.1509,149.488,274.3739,151.2982,273.6841,153.1468,272.71,154.87" style="stroke: #A9A9A9; stroke-width: 2.0;"/><!--link Scenario to ShaverC--><path d="M353.37,64.38 L353.397,64.4694 L349.8454,65.2528 L346.4522,66.5604 L343.0075,67.6972 L339.393,68.2727 L336.0134,69.6253 L336.004,69.5921 L332.298,70.4834 L328.6395,71.5422 L325.0141,72.7175 L321.2747,73.4915 L317.695,74.8275 L317.7572,75.0656 L313.8855,75.5332 L310.1954,76.6958 L306.5275,77.9433 L302.7306,78.6974 L299.0016,79.7109 L299.0084,79.7405 L295.302,80.5549 L291.6269,81.5039 L287.9367,82.3879 L284.2752,83.3958 L280.52,84 L280.5656,84.2947 L276.9574,84.8567 L273.3197,85.2285 L269.7251,85.8786 L266.1325,86.5417 L262.476,86.7916 L262.4623,86.4714 L259.3348,87.2286 L256.162,86.9314 L253.0237,87.4359 L249.8499,87.1148 L246.7052,87.4703 L246.7041,87.4399 L243.8838,87.7016 L241.0389,87.2523 L238.2085,87.2226 L235.3794,87.2281 L232.5414,86.9795 L232.5514,87.1642 L229.8968,86.8344 L227.2592,86.8202 L224.594,86.2953 L221.9701,86.5321 L219.3187,86.2625 L219.3188,86.5061 L216.7293,86.4601 L214.1398,86.535 L211.5503,86.0479 L208.9608,85.9728 L206.3713,86.2627 L206.3371,85.9886 L203.7004,86.5689 L201.0252,86.8403 L198.4057,87.5597 L195.691,87.5142 L193.033,87.9234 L192.9897,87.7772 L190.1828,88.8736 L187.1907,89.3451 L184.3304,90.261 L181.5988,91.6117 L178.6379,92.1881 L178.7223,92.3623 L175.5567,94.0442 L172.1283,95.1842 L169.029,97.0029 L165.858,98.6738 L162.52,100 L162.3978,99.8292 L159.6243,102.019 L156.8107,104.1529 L154.0757,106.3966 L151.0352,108.2131 L148.1653,110.2683 L148.31,110.4143 L145.4545,112.6086 L142.8783,115.0847 L140.7102,117.9725 L137.7908,120.1023 L135.4775,122.8438 L135.6544,122.9848 L133.3635,125.6422 L131.0128,128.252 L128.7971,130.9694 L126.8937,133.9357 L124.5484,136.5498 L124.4376,136.4762 L122.9518,139.4275 L120.7125,141.8779 L119.3299,144.8978 L117.465,147.5971 L115.47,150.21 " fill="none" style="stroke: #A9A9A9; stroke-width: 2.0; stroke-dasharray: 7.0,7.0;"/><polygon fill="#A9A9A9" points="112.83,154.63,112.8704,154.6872,114.3597,153.3813,116.0858,152.4109,117.7347,151.3313,119.1301,149.8923,120.8765,148.9508,120.8702,148.9257,119.7448,149.09,118.6514,149.381,117.5802,149.76,116.4324,149.8357,115.3919,150.3362,115.5709,150.3814,114.9112,149.1879,114.7739,148.1263,114.7003,147.0808,114.2559,145.9416,114.0065,144.8517,114.0291,144.8544,113.7606,146.8061,113.595,148.7701,113.3797,150.7282,113.2591,152.6977,112.83,154.63" style="stroke: #A9A9A9; stroke-width: 2.0;"/><!--link Scenario to HairdryerF--><path d="M457.62,49.45 L457.6343,49.7299 L467.923,49.4269 L478.2957,50.7646 L488.641,51.568 L498.8965,50.6145 L509.2711,51.9895 L519.6076,52.6216 L519.576,52.0538 L529.2505,52.6501 L538.9453,53.6089 L548.5704,53.3182 L558.3341,55.5147 L567.9176,54.4775 L577.6211,55.5923 L587.3391,56.9696 L596.9784,56.9336 L596.9762,56.8955 L605.464,57.4731 L613.9451,57.9378 L622.4345,58.5404 L630.9198,59.0764 L639.3972,59.4795 L639.4137,59.7393 L648.1806,60.3343 L656.9453,60.8951 L665.6977,61.264 L674.468,61.9138 L683.2194,62.2653 L683.2405,62.5767 L692.08,62.5477 L701.0044,63.7704 L709.8574,63.9402 L718.7646,64.9105 L727.6309,65.2759 L727.6149,65.0565 L736.466,65.8896 L745.3295,66.8928 L754.1413,67.1865 L762.9836,67.8989 L771.8175,68.4962 L771.8294,68.6463 L780.4616,69.3637 L789.0764,69.8605 L797.7162,70.6725 L806.3155,70.9746 L814.9651,71.9112 L814.9761,72.0371 L823.2452,72.8729 L831.5001,73.5459 L839.7655,74.3394 L847.9821,74.573 L856.2596,75.5058 L856.2316,75.2173 L863.9584,75.9827 L871.708,76.9833 L879.4276,77.6743 L887.1908,78.8144 L894.8869,79.2648 L894.8783,79.1876 L901.8992,79.895 L908.9565,80.929 L915.9417,81.3153 L922.9781,82.1623 L930.0328,83.1733 L930.0687,83.4595 L933.2595,83.7665 L936.4786,84.2994 L939.6228,84.2347 L942.8609,84.9185 L946.0458,85.1788 L946.0815,85.4388 L948.9847,85.3783 L951.975,85.9515 L954.9559,86.4567 L957.9551,87.0956 L960.8832,87.2161 L960.8829,87.2143 L963.6262,87.8328 L966.2701,87.7996 L968.9738,88.1588 L971.7649,89.0911 L974.4432,89.2832 L974.3891,88.9692 L976.9177,89.9251 L979.331,90.2117 L981.7314,90.4229 L984.1611,90.8043 L986.6239,91.3782 L986.6636,91.5782 L988.738,91.6719 L990.955,92.4847 L992.9961,92.4099 L995.2372,93.3443 L997.3238,93.4993 L997.3731,93.7088 L999.1722,94.0343 L1000.9754,94.3778 L1002.868,95.1008 L1004.68,95.4809 L1006.4409,95.6445 L1006.4647,95.7159 L1009.0944,96.6287 L1011.6543,97.3318 L1014.389,98.5599 L1016.9259,99.1942 L1019.52,100 L1019.5557,100.0679 L1021.1744,100.6956 L1022.9965,101.7105 L1024.9701,103.0137 L1026.7293,103.909 L1028.4206,104.6748 L1028.4104,104.6588 L1030.0576,105.6514 L1031.7965,106.7871 L1033.3987,107.7094 L1035.3766,109.2186 L1036.9914,110.1605 L1037.1883,110.4237 L1038.7718,111.5745 L1040.457,112.8611 L1041.876,113.7917 L1043.5759,115.0981 L1045.193,116.2937 L1045.0815,116.1624 L1046.8334,117.7134 L1048.3813,119.0243 L1050.0279,120.4514 L1051.3615,121.5099 L1052.9863,122.9113 L1052.9443,122.8688 L1055.9656,125.8585 L1058.8452,128.7047 L1061.3487,131.1703 L1064.2891,134.0781 L1067.1905,136.9464 L1067.2407,136.9898 L1069.4049,139.5717 L1072.1492,142.6545 L1074.537,145.4295 L1076.8362,148.128 L1079.29,150.96 " fill="none" style="stroke: #A9A9A9; stroke-width: 2.0; stroke-dasharray: 7.0,7.0;"/><polygon fill="#A9A9A9" points="1082.49,155,1082.5579,155.0174,1081.8659,153.0579,1081.5716,151.2005,1081.1479,149.3099,1080.2981,147.3098,1080.0381,145.4612,1080.0123,145.4582,1079.7664,146.5687,1079.6502,147.6941,1079.6241,148.8301,1079.2873,149.93,1079.3858,151.0804,1079.407,151.2637,1078.2377,150.7412,1077.1305,150.7539,1076.0309,150.832,1074.8872,150.5301,1073.7666,150.428,1073.7772,150.4482,1075.5064,151.333,1077.2836,152.3095,1079.0377,153.2418,1080.836,154.2585,1082.49,155" style="stroke: #A9A9A9; stroke-width: 2.0;"/><!--link Scenario to ShaverF--><path d="M457.81,48.17 L457.8196,48.4501 L467.0409,47.9365 L476.3188,49.0648 L485.5782,49.6584 L494.7771,48.4937 L504.0598,49.763 L504.0583,49.7285 L509.4063,49.8027 L514.7617,50.0509 L520.1223,50.42 L525.465,50.3724 L530.8327,50.9085 L530.8449,51.1543 L536.5403,50.9115 L542.2712,51.3863 L548.0064,51.9486 L553.7164,52.0016 L559.4397,52.3225 L559.4414,52.3528 L565.4374,52.6502 L571.4412,53.0854 L577.4412,53.4542 L583.4485,53.9498 L589.4321,54.0318 L589.4517,54.3294 L595.6378,54.7394 L601.8113,54.9573 L608.0033,55.4563 L614.1962,55.9684 L620.3616,56.0633 L620.3374,55.7437 L626.668,56.8401 L632.9188,56.8841 L639.2303,57.7281 L645.4793,57.7483 L651.7796,58.4437 L651.7769,58.4134 L658.0999,59.3233 L664.3608,59.5247 L670.6584,60.1441 L676.959,60.7987 L683.2375,61.2 L683.2562,61.384 L689.4472,61.8301 L695.6702,62.5906 L701.8414,62.8423 L708.0898,63.8529 L714.2869,64.3589 L714.3157,64.6009 L720.3487,65.2728 L726.396,66.0648 L732.377,66.2988 L738.4066,66.9418 L744.4793,67.9473 L744.4426,67.6736 L747.4028,68.3141 L750.3216,68.6462 L753.3004,69.4257 L756.1767,69.4413 L759.114,69.911 L759.092,69.7601 L761.9791,70.4276 L764.7721,70.4502 L767.632,70.9314 L770.5574,71.8613 L773.3662,71.9921 L773.3967,72.1833 L776.1803,72.7548 L778.8692,72.7316 L781.6768,73.4533 L784.4585,74.0127 L787.1799,74.194 L787.1438,73.9871 L789.8364,74.6172 L792.5172,75.1795 L795.2212,75.8749 L797.8349,76.053 L800.4991,76.52 L800.5379,76.7219 L803.0063,76.769 L805.5497,77.2058 L808.2024,78.2119 L810.6537,78.1699 L813.2676,78.9735 L813.3146,79.1948 L815.719,79.5802 L818.1075,79.8908 L820.532,80.3704 L823.0394,81.2405 L825.4294,81.5579 L825.3988,81.4284 L827.7897,82.3576 L829.9725,82.4063 L832.3919,83.4561 L834.6781,83.9423 L836.9284,84.2765 L836.9563,84.3817 L839.0898,84.868 L841.3232,85.7311 L843.4664,86.2538 L845.5719,86.6341 L847.7086,87.1327 L847.7428,87.2468 L849.6931,87.6766 L851.8021,88.6365 L853.7316,88.9968 L855.7349,89.6038 L857.714,90.1297 L857.6264,89.8739 L859.4905,90.5876 L861.4601,91.6094 L863.2805,92.1952 L865.0473,92.6248 L866.8883,93.2711 L866.8317,93.1396 L869.9762,94.5275 L873.0204,95.6825 L876.3402,97.4777 L879.5236,98.9561 L882.52,100 L882.6457,100.1973 L885.8784,102.2938 L888.8722,104.0154 L892.1181,106.1326 L895.1972,107.988 L898.4822,110.1666 L898.5652,110.2617 L901.4404,112.7689 L904.4158,115.3909 L907.0732,117.6487 L909.9872,120.2003 L912.9125,122.765 L913.0576,122.8984 L915.6355,125.6968 L917.8194,128.1332 L920.461,130.9903 L923.1106,133.8546 L925.5991,136.5709 L925.3848,136.4042 L927.8692,139.4252 L929.9819,142.157 L932.0023,144.8169 L934.2337,147.641 L936.33,150.36 " fill="none" style="stroke: #A9A9A9; stroke-width: 2.0; stroke-dasharray: 7.0,7.0;"/><polygon fill="#A9A9A9" points="939.49,154.81,939.5587,154.8237,938.9696,152.8512,938.7832,150.959,938.4657,149.0407,937.7168,147.0364,937.5651,145.1511,937.5395,145.1467,937.233,146.2419,937.0552,147.3593,936.9669,148.4922,936.5703,149.5719,936.6055,150.726,936.6368,150.9078,935.4548,150.327,934.3643,150.2771,933.285,150.2921,932.1407,149.9301,931.0306,149.7663,931.0422,149.7859,932.717,150.7659,934.4448,151.8349,936.1471,152.861,937.8981,153.969,939.49,154.81" style="stroke: #A9A9A9; stroke-width: 2.0;"/><!--link Scenario to PowerPointC--><path d="M399.22,84.11 L399.4963,84.1569 L396.9696,94.0591 L396.0625,104.2363 L394.628,114.324 L391.4591,124.117 L390.5889,134.3005 L388.4246,144.2642 L386.7754,154.3154 L385.4841,164.4274 L382.9591,174.3298 L382.8899,184.6494 L379.6278,194.4266 L378.4906,204.5648 L377.6125,214.747 L375.2262,224.673 L373.7229,234.7489 L371.8854,244.7681 L370.4563,254.8567 L368.8301,264.9118 L366.81,274.9 " fill="none" style="stroke: #A9A9A9; stroke-width: 2.0; stroke-dasharray: 7.0,7.0;"/><polygon fill="#A9A9A9" points="365.95,279.96,366.0084,279.9987,366.9222,278.2413,368.1784,276.7106,369.3231,275.1062,370.1011,273.2589,371.3867,271.7477,371.3717,271.7266,370.3827,272.2882,369.4695,272.9562,368.6089,273.6981,367.5668,274.1852,366.7789,275.0292,366.9293,275.1362,365.9515,273.9858,365.4127,273.1478,364.9273,272.348,364.1305,271.3264,363.4975,270.4214,363.5195,270.4271,363.9777,272.3265,364.5361,274.2517,365.0462,276.1644,365.6486,278.1009,365.95,279.96" style="stroke: #A9A9A9; stroke-width: 2.0;"/><!--link Scenario to PowerPointF--><path d="M457.65,46.3 L457.6502,46.3934 L461.6283,46.1235 L465.6075,46.4011 L469.5863,46.5005 L473.564,46.0134 L477.5433,46.338 L477.5429,46.3035 L481.9653,46.1936 L486.3895,46.2578 L490.8149,46.4431 L495.2361,46.2112 L499.6632,46.5636 L499.668,46.8096 L504.4472,46.3771 L509.2404,46.6628 L514.0353,47.0362 L518.8202,46.8997 L523.6104,47.0313 L523.6113,47.0616 L528.685,47.17 L533.7629,47.4164 L538.8387,47.5962 L543.9184,47.9031 L548.9856,47.7958 L548.9982,48.0938 L554.2791,48.3206 L559.552,48.3552 L564.8367,48.6711 L570.1219,49.0003 L575.3895,48.9116 L575.3715,48.5916 L580.8131,49.5171 L586.1954,49.3888 L591.6228,50.0616 L597.0037,49.9095 L602.4227,50.4335 L602.4205,50.4031 L607.8993,51.1587 L613.3265,51.2049 L618.7841,51.6697 L624.2443,52.1696 L629.686,52.416 L629.703,52.6002 L635.1046,52.9138 L640.5353,53.5422 L645.919,53.6613 L651.3728,54.5401 L656.78,54.9138 L656.8065,55.156 L659.4732,55.402 L662.1531,55.7683 L664.7719,55.5758 L667.4355,55.7929 L670.1387,56.3729 L670.1052,56.0988 L672.7689,56.6686 L675.3948,56.9296 L678.0755,57.6386 L680.6627,57.5826 L683.3054,57.9814 L683.2848,57.8303 L685.9041,58.4348 L688.4352,58.3936 L691.029,58.8115 L693.6842,59.6788 L696.2301,59.746 L696.2593,59.9374 L698.8059,60.4542 L701.2616,60.3756 L703.8312,61.0428 L706.3759,61.5474 L708.8629,61.6735 L708.8276,61.4666 L711.3139,62.051 L713.7887,62.5677 L716.2862,63.2175 L718.6954,63.3496 L721.1539,63.7709 L721.1925,63.9728 L723.4875,63.9839 L725.8571,64.3848 L728.3355,65.3551 L730.6135,65.277 L733.0532,66.0448 L733.1006,66.266 L735.3639,66.6261 L737.6112,66.9113 L739.8948,67.3655 L742.262,68.2101 L744.5108,68.5022 L744.4796,68.3729 L746.7657,69.2874 L748.8396,69.3225 L751.1548,70.3575 L753.3342,70.8295 L755.4769,71.1498 L755.5055,71.2549 L757.5673,71.739 L759.7317,72.5993 L761.8034,73.1198 L763.8364,73.4982 L765.9015,73.9946 L765.9368,74.1084 L767.851,74.549 L769.9291,75.5182 L771.8218,75.8895 L773.7908,76.5068 L775.7347,77.0433 L775.6385,76.7906 L779.2092,78.2222 L782.8957,79.9583 L786.4183,81.2636 L789.8821,82.4146 L793.4274,83.7797 L793.3615,83.6525 L796.3283,85.2201 L799.1784,86.5625 L802.3492,88.5237 L805.3612,90.1787 L808.1556,91.4137 L808.2966,91.6004 L810.6147,93.3774 L812.6647,94.7997 L814.9976,96.5964 L817.1433,98.1453 L819.52,100 L819.6121,100.0864 L821.2712,101.857 L823.0416,103.7319 L824.4593,105.2761 L826.1614,107.087 L827.8763,108.9098 L828.0339,109.0281 L829.5342,111.002 L830.6067,112.6548 L832.1762,114.6806 L833.7545,116.7129 L835.1578,118.614 L834.9254,118.4736 L836.5467,120.7723 L837.765,122.8275 L838.883,124.8222 L840.23,126.9551 L841.4304,128.9995 L841.7216,129.1412 L842.3713,131.1295 L843.6882,133.4424 L844.7424,135.6275 L845.7405,137.7853 L846.7602,139.9536 L846.8185,139.9764 L847.6977,142.2539 L848.2828,144.4166 L849.2659,146.7346 L850.1313,149.0067 L851.2129,151.3632 L851.24,151.3716 L851.9787,153.7253 L852.7383,156.0854 L853.2744,158.3763 L854.0977,160.7562 L854.8547,163.1155 L854.8027,163.1029 L855.6832,165.5721 L856.1976,167.9528 L856.3829,170.254 L857.1405,172.6935 L857.7513,175.0975 L857.499,175.0512 L858.3209,177.5403 L858.9043,179.9857 L859.3198,182.4004 L859.3349,184.7416 L859.9688,187.1963 L860.1732,187.2233 L859.9623,189.5734 L860.6986,192.049 L860.7994,194.4404 L861.2947,196.884 L861.573,199.2989 L861.6794,199.3083 L861.9934,201.716 L861.677,204.0682 L862.4176,206.5136 L862.4974,208.9007 L862.6299,211.2925 L862.7876,211.3002 L863.0769,213.663 L862.8625,216.0012 L863.053,218.3592 L863.185,220.7144 L863.2054,223.0641 L863.293,223.0653 L863.237,225.3514 L863.5853,227.6432 L863.0305,229.9223 L863.5847,232.217 L863.3655,234.5008 L863.0882,234.496 L863.0875,236.6944 L863.3075,238.8966 L863.2644,241.0943 L862.9949,243.2881 L863.176,245.4896 L863.3597,245.498 L863.1298,247.5775 L863.3095,249.6755 L863.1884,251.7599 L862.5986,253.8231 L862.703,255.9178 L862.5268,255.9033 L862.3392,259.6575 L862.2473,263.4195 L861.9617,267.1657 L861.61,270.9065 L861.17,274.64 " fill="none" style="stroke: #A9A9A9; stroke-width: 2.0; stroke-dasharray: 7.0,7.0;"/><polygon fill="#A9A9A9" points="860.6,279.73,860.6606,279.7652,861.4713,277.958,862.637,276.3574,863.6871,274.6894,864.3571,272.8003,865.5533,271.2174,865.5371,271.1972,864.5822,271.815,863.709,272.5346,862.8928,273.325,861.8806,273.8714,861.1428,274.7595,861.2866,274.8751,860.2705,273.7459,859.6745,272.954,859.1297,272.2034,858.2867,271.2132,857.6006,270.349,857.6223,270.3559,858.1903,272.2219,858.857,274.1195,859.4762,276.0019,860.1861,277.9133,860.6,279.73" style="stroke: #A9A9A9; stroke-width: 2.0;"/><!--link ApplianceC to HairdryerC--><path d="M214.72,92.25 L214.9857,92.3392 L217.202,101.0256 L220.9757,110.2349 L224.2423,119.2739 L225.8411,127.7529 L229.6503,136.9742 L232.2152,145.7776 L235.76,154.91 " fill="none" style="stroke: #A9A9A9; stroke-width: 2.0;"/><polygon fill="none" points="208.04,94.34,208.1101,94.3409,207.9559,90.1002,208.2124,85.8648,208.3352,81.6277,208.0182,77.385,208.31,73.15,208.2895,73.1341,210.7977,76.4108,213.409,79.7676,216.0921,83.1801,218.528,86.4006,221.31,89.89,221.3687,90.065,218.5892,90.5808,215.981,91.6075,213.3938,92.6965,210.6849,93.4229,208.04,94.34" style="stroke: #A9A9A9; stroke-width: 2.0;"/><!--link ApplianceC to PowerplugC--><path d="M274.51,78.19 L274.5465,78.276 L279.5661,80.1962 L284.7996,82.6206 L289.9634,84.8808 L294.8982,86.6011 L300.15,89.0688 L300.1363,89.037 L305.149,91.0809 L310.2306,93.2847 L315.36,95.5997 L320.3244,97.5316 L325.52,100 L325.8178,100.6755 L335.1623,103.631 L345.3761,108.5587 L355.6961,113.727 L365.3989,117.4953 L375.4263,122 L375.4635,122.083 L385.1576,126.3371 L395.0212,130.9692 L404.8031,135.4189 L414.741,140.2164 L424.17,143.88 " fill="none" style="stroke: #A9A9A9; stroke-width: 2.0;"/><polygon fill="#A9A9A9" points="262.46,73.12,262.5184,73.1587,263.1407,74.2466,264.1054,75.5611,264.9586,76.8018,265.445,77.7998,266.4392,79.1338,266.4343,79.1084,267.8287,78.7222,269.2477,78.4643,270.6839,78.2955,272.0611,77.8194,273.5209,77.7737,273.6748,77.8756,272.5498,76.455,271.8742,75.3318,271.2534,74.2449,270.3137,72.9469,269.5417,71.7599,269.546,71.7823,268.1233,72.0215,266.7202,72.3624,265.3077,72.6542,263.9132,73.0397,262.46,73.12" style="stroke: #A9A9A9; stroke-width: 2.0;"/><!--link ApplianceC to ShaverC--><path d="M167.92,89.35 L168.1446,89.5176 L161.361,97.2146 L155.894,105.8941 L149.9983,114.2537 L142.6927,121.5611 L137.2557,130.263 L130.7668,138.1799 L124.6965,146.4092 L118.99,154.91 " fill="none" style="stroke: #A9A9A9; stroke-width: 2.0;"/><polygon fill="none" points="162.43,85,162.4692,85.0581,165.8688,82.5155,169.498,80.3134,173.0525,78.0005,176.3611,75.3228,180.01,73.15,179.9853,73.1422,178.6024,77.1513,177.3441,81.1996,176.1723,85.2752,174.7022,89.2569,173.65,93.37,173.7603,93.5179,171.2804,91.5276,169.1226,89.9692,167.0041,88.4634,164.6569,86.6511,162.43,85" style="stroke: #A9A9A9; stroke-width: 2.0;"/><!--link ApplianceC to PowerPointC--><path d="M135.25,50.15 L135.2664,50.242 L132.5056,50.4529 L129.841,51.2029 L127.1451,51.7774 L124.3462,51.7746 L121.6899,52.5709 L121.6819,52.5373 L118.8812,53.0404 L116.1205,53.713 L113.3877,54.5034 L110.5589,54.8879 L107.8645,55.8409 L107.9368,56.0762 L105.022,56.4209 L102.3181,57.4525 L99.6399,58.5678 L96.812,59.1957 L94.0629,60.0799 L94.074,60.1081 L91.3598,61.1322 L88.6964,62.2847 L86.0084,63.3753 L83.3672,64.5841 L80.5737,65.4075 L80.7086,65.6735 L78.1328,66.984 L75.4699,68.1229 L72.9343,69.5129 L70.4047,70.9147 L67.686,71.9436 L67.5103,71.6755 L65.4519,73.7686 L62.8148,74.979 L60.6176,76.8605 L57.9675,78.051 L55.6886,79.8078 L55.6687,79.7847 L53.74,81.9201 L51.3471,83.5163 L49.2281,85.4306 L47.1321,87.3717 L44.8703,89.12 L45.0106,89.2406 L42.9989,91.2949 L41.227,93.5552 L39.0672,95.4822 L37.4859,97.9064 L35.52,100 L35.7203,100.1388 L34.3515,102.0333 L33.0822,103.9967 L31.3509,105.6399 L29.9582,107.5179 L28.8656,109.6037 L28.6308,109.4583 L27.677,111.4739 L26.4587,113.3256 L25.6241,115.4149 L24.1343,117.0985 L23.034,119.0233 L22.8998,118.9509 L22.1243,120.9231 L20.7752,122.5857 L19.834,124.4685 L19.2919,126.5665 L18.0391,128.2811 L18.2154,128.3612 L17.5074,130.2398 L16.2511,131.8692 L15.6816,133.8107 L14.9625,135.6842 L13.8947,137.3992 L13.6946,137.3357 L12.7176,140.9675 L11.6751,144.5785 L10.7614,148.2304 L9.3471,151.7234 L8.2124,155.3052 L8.4165,155.3297 L7.545,158.7985 L7.0676,162.3147 L7.1657,165.9 L6.2041,169.358 L6.0975,172.9188 L6.3228,172.9389 L6.5016,176.4267 L6.6041,179.9076 L6.8786,183.404 L7.5509,186.9359 L7.6604,190.4175 L7.5332,190.3787 L8.9823,194.0064 L9.5659,197.3704 L11.1336,201.0343 L12.1472,204.5294 L13.0116,207.9789 L13.1102,208.0249 L13.8567,209.7597 L14.9565,211.6592 L15.7371,213.41 L16.3843,215.0985 L17.1422,216.8386 L17.2456,216.8978 L18.1158,218.5982 L19.4662,220.5736 L20.2734,222.238 L21.304,224.0303 L22.2613,225.7806 L22.0374,225.629 L23.3364,227.4889 L24.9052,229.5313 L26.0923,231.3154 L27.1426,233.007 L28.3826,234.827 L28.2696,234.739 L29.7333,236.6018 L30.9969,238.3089 L32.8105,240.444 L34.3519,242.3672 L35.52,244 L35.6829,244.1679 L37.1372,245.5824 L38.2818,246.678 L39.7532,248.1102 L41.0083,249.3195 L42.5304,250.8039 L42.6017,250.9081 L44.4294,252.1527 L46.3433,253.523 L47.984,254.4945 L49.845,255.7877 L51.7158,257.0952 L51.8068,257.2701 L54.0606,258.4786 L56.0673,259.2126 L58.3611,260.4979 L60.6598,261.7929 L62.8576,262.8938 L62.7538,262.6429 L65.4935,264.104 L68.0532,265.13 L70.5681,266.0477 L73.1853,267.2127 L75.737,268.2194 L75.8408,268.5261 L78.5722,269.0622 L81.5413,270.301 L84.4168,271.2632 L87.2723,272.1662 L90.1355,273.0919 L90.1526,273.1522 L93.289,274.0284 L96.3396,274.6008 L99.5064,275.5842 L102.6388,276.4461 L105.8344,277.5313 L105.8411,277.5589 L109.1997,278.3746 L112.5635,279.2117 L115.8726,279.8212 L119.2519,280.723 L122.6151,281.5574 L122.6043,281.5051 L126.1955,282.535 L129.7108,283.1961 L133.1578,283.5256 L136.7235,284.4317 L140.2588,285.19 L140.2137,284.9374 L143.9389,285.968 L147.6214,286.7598 L151.2741,287.3837 L154.8553,287.6066 L158.5469,288.449 L158.5785,288.6528 L162.239,288.7038 L166.0461,289.699 L169.7548,290.0607 L173.5245,290.8157 L177.2607,291.3543 L177.2751,291.4601 L181.0732,292.0765 L184.786,292.0658 L188.6418,293.1065 L192.4082,293.4899 L196.1817,293.9257 L196.2004,294.0825 L200.003,294.7072 L203.7457,294.8311 L207.5366,295.3575 L211.3205,295.8258 L215.0911,296.1831 L215.1003,296.2703 L218.8269,296.5754 L222.5958,297.2826 L226.2703,297.0916 L230.0607,298.0036 L233.7703,298.1464 L233.7447,297.8702 L237.3942,298.2451 L241.0641,298.8397 L244.7096,299.1723 L248.3343,299.2795 L252.0006,299.8354 L252.0156,300.0187 L255.5171,300.1705 L259.052,300.7311 L262.5624,300.9916 L266.0346,300.7845 L269.5634,301.27 L269.5507,301.0936 L272.8946,301.4527 L276.2454,301.9076 L279.5822,302.1686 L282.9143,302.3635 L286.24,302.47 " fill="none" style="stroke: #A9A9A9; stroke-width: 2.0; stroke-dasharray: 7.0,7.0;"/><polygon fill="#A9A9A9" points="291.33,302.8,291.3626,302.862,289.5222,301.7611,287.873,301.0238,286.1615,300.168,284.2454,298.923,282.6125,298.2168,282.593,298.1997,283.2513,298.974,284.0077,299.8343,284.8324,300.7545,285.4218,301.4684,286.3408,302.4712,286.4625,302.61,285.3515,303.0589,284.5956,303.9129,283.8831,304.8165,282.9185,305.4323,282.0864,306.1995,282.0943,306.2209,283.9315,305.5096,285.8044,304.8956,287.6601,304.2346,289.5487,303.6631,291.33,302.8" style="stroke: #A9A9A9; stroke-width: 2.0;"/><!--link ApplianceF to HairdryerF--><path d="M1051.47,90.96 L1051.7161,91.0941 L1055.962,99.8314 L1061.6506,109.3547 L1066.8694,118.6221 L1070.5433,127.0478 L1076.2647,136.589 L1080.8335,145.5022 L1086.31,154.91 " fill="none" style="stroke: #A9A9A9; stroke-width: 2.0;"/><polygon fill="none" points="1045.19,94.07,1045.2591,94.0813,1044.3697,89.8637,1043.8856,85.7124,1043.2695,81.5395,1042.2193,77.2956,1041.77,73.15,1041.7526,73.1308,1044.8186,75.8886,1047.9722,78.7432,1051.1868,81.6652,1054.1914,84.3551,1057.49,87.37,1057.5783,87.5321,1054.9295,88.5255,1052.5385,89.9921,1050.1789,91.5164,1047.6363,92.7049,1045.19,94.07" style="stroke: #A9A9A9; stroke-width: 2.0;"/><!--link ApplianceF to PowerPlugF--><path d="M951.23,76.04 L951.2647,76.1267 L945.2644,78.2283 L939.4674,80.8383 L933.6042,83.2827 L927.5232,85.1826 L921.7438,87.8363 L921.7305,87.8044 L915.8262,90.094 L909.9888,92.5444 L904.1979,95.1065 L898.2467,97.2836 L892.52,100 L892.6181,100.2257 L887.4985,101.8778 L882.6654,104.1887 L877.8672,106.58 L872.8657,108.5037 L867.9711,110.6733 L867.9835,110.701 L862.9833,112.8874 L858.0395,115.1999 L853.0686,117.4516 L848.1495,119.8193 L843.0613,121.8088 L843.1851,122.0801 L838.277,124.3251 L833.2891,126.3951 L828.418,128.7213 L823.5525,131.0595 L818.5133,133.0173 L818.3783,132.7266 L813.9476,135.4694 L809.0725,137.2549 L804.5352,139.7681 L799.65,141.5319 L795.05,143.91 " fill="none" style="stroke: #A9A9A9; stroke-width: 2.0;"/><polygon fill="#A9A9A9" points="963.34,71.3,963.355,71.3684,961.9017,70.8562,960.5363,70.7451,959.1423,70.5034,957.6541,69.8321,956.2962,69.7555,956.275,69.7406,955.3528,70.8555,954.5376,72.0453,953.7967,73.2872,952.7996,74.3496,952.1614,75.6633,952.2009,75.8436,953.5251,75.767,954.9648,76.2168,956.4185,76.7307,957.7903,76.871,959.2051,77.2079,959.2238,77.2209,960.0234,76.0202,960.9078,74.8788,961.7514,73.7089,962.673,72.5935,963.34,71.3" style="stroke: #A9A9A9; stroke-width: 2.0;"/><!--link ApplianceF to ShaverF--><path d="M1003.91,90.96 L1004.1568,91.0927 L998.5134,99.8342 L994.317,109.3534 L989.6494,118.6194 L983.4321,127.0526 L979.2687,136.5895 L973.9491,145.5051 L969.54,154.91 " fill="none" style="stroke: #A9A9A9; stroke-width: 2.0;"/><polygon fill="none" points="997.84,87.46,997.8873,87.5117,1000.8727,84.4961,1004.1355,81.7835,1007.308,78.9723,1010.1834,75.8366,1013.47,73.15,1013.4444,73.146,1012.6696,77.3159,1012.0237,81.5061,1011.4676,85.7105,1010.6024,89.8661,1010.17,94.09,1010.2574,94.2525,1007.6045,92.579,1005.2068,91.3799,1002.8402,90.2388,1000.2925,88.7608,997.84,87.46" style="stroke: #A9A9A9; stroke-width: 2.0;"/><!--link ApplianceF to PowerPointF--><path d="M1091.9,51.79 L1091.9193,51.8814 L1094.3558,52.137 L1096.9055,52.9284 L1099.4184,53.5453 L1101.8099,53.5885 L1104.3694,54.4259 L1104.3604,54.3926 L1106.8472,54.9253 L1109.3794,55.6261 L1111.9432,56.4438 L1114.3983,56.8588 L1117.0056,57.8378 L1117.0851,58.0707 L1119.4265,58.4295 L1121.9999,59.4683 L1124.6016,60.5901 L1127.0386,61.2291 L1129.5622,62.1221 L1129.5742,62.1499 L1132.0026,63.1596 L1134.4856,64.2961 L1136.9423,65.3715 L1139.4492,66.5636 L1141.7925,67.375 L1141.9346,67.6372 L1144.2678,68.904 L1146.5094,70.0017 L1148.8852,71.3469 L1151.2672,72.7037 L1153.45,73.6929 L1153.2679,73.4291 L1155.7889,75.437 L1157.7104,76.5762 L1160.0876,78.3758 L1161.9955,79.4953 L1164.2881,81.1722 L1164.2678,81.1495 L1166.4622,83.1653 L1168.1826,84.6508 L1170.1826,86.4492 L1172.2062,88.2739 L1174.0603,89.9091 L1174.2021,90.0279 L1175.7509,91.9262 L1177.542,94.0275 L1178.9412,95.8002 L1180.9249,98.063 L1182.52,100 L1182.7213,100.1372 L1183.9996,102.0422 L1185.3779,104.0154 L1186.2918,105.6719 L1187.5461,107.5606 L1189.102,109.6548 L1188.8663,109.5108 L1190.2353,111.5327 L1191.3387,113.3923 L1192.8273,115.4872 L1193.6582,117.1804 L1194.8801,119.1123 L1194.7456,119.0405 L1195.9612,121.0169 L1196.6019,122.6863 L1197.6515,124.574 L1199.1011,126.6753 L1199.8383,128.3962 L1200.0148,128.4759 L1200.9604,130.3573 L1201.3571,131.9909 L1202.4413,133.9349 L1203.3757,135.8112 L1203.9611,137.53 L1203.7609,137.4666 L1205.0556,141.0994 L1206.2848,144.7115 L1207.6427,148.3643 L1208.5,151.8586 L1209.6369,155.4414 L1209.841,155.4663 L1209.8214,158.9303 L1210.1958,162.4424 L1211.1457,166.0246 L1211.0361,169.4777 L1211.7813,173.035 L1212.0066,173.0545 L1211.5701,176.5358 L1211.0573,180.0104 L1210.7166,183.5 L1210.7737,187.024 L1210.2679,190.4992 L1210.1406,190.4607 L1209.4603,194.08 L1207.9139,197.4374 L1207.3523,201.0926 L1206.2363,204.5801 L1204.9708,208.0225 L1205.0695,208.0684 L1204.1684,209.7999 L1203.6209,211.6956 L1202.7539,213.443 L1201.7534,215.1283 L1200.8638,216.8652 L1200.9673,216.9243 L1199.7935,218.6221 L1199.1002,220.5944 L1197.8634,222.2562 L1196.8502,224.0457 L1195.7635,225.7933 L1195.5395,225.6419 L1194.3925,227.4998 L1193.5152,229.5402 L1192.2562,231.3225 L1190.8603,233.0123 L1189.6542,234.8304 L1189.5412,234.7424 L1188.1506,236.6045 L1186.5598,238.311 L1185.5192,240.4453 L1184.2063,242.3679 L1182.52,244 L1182.6829,244.1679 L1181.3331,245.5824 L1179.6736,246.678 L1178.3408,248.1102 L1176.7918,249.3195 L1175.5097,250.8039 L1175.5811,250.9081 L1173.7347,252.1527 L1171.9744,253.523 L1169.941,254.4945 L1168.1279,255.7877 L1166.3246,257.0952 L1166.4156,257.2701 L1164.2128,258.4786 L1161.763,259.2126 L1159.6001,260.4979 L1157.4422,261.7929 L1155.1834,262.8938 L1155.0796,262.6429 L1152.6676,264.104 L1150.0756,265.13 L1147.4389,266.0477 L1144.9045,267.2127 L1142.3045,268.2194 L1142.4083,268.5261 L1139.3804,269.0622 L1136.5903,270.301 L1133.7066,271.2632 L1130.8028,272.1662 L1127.9068,273.0919 L1127.9238,273.1522 L1124.7809,274.0284 L1121.5521,274.6008 L1118.4395,275.5842 L1115.2925,276.4461 L1112.2087,277.5313 L1112.2153,277.5589 L1108.8619,278.3746 L1105.5136,279.2117 L1102.1107,279.8212 L1098.778,280.723 L1095.429,281.5574 L1095.4182,281.5051 L1091.9522,282.535 L1088.4101,283.1961 L1084.7998,283.5256 L1081.3083,284.4317 L1077.7862,285.19 L1077.7412,284.9374 L1074.1513,285.968 L1070.5188,286.7598 L1066.8564,287.3837 L1063.1225,287.6066 L1059.4991,288.449 L1059.5307,288.6528 L1055.7058,288.7038 L1052.0275,289.699 L1048.2509,290.0607 L1044.5353,290.8157 L1040.7861,291.3543 L1040.8005,291.4601 L1037.0303,292.0765 L1033.175,292.0658 L1029.4625,293.1065 L1025.6607,293.4899 L1021.866,293.9257 L1021.8847,294.0825 L1018.1237,294.7072 L1014.3028,294.8311 L1010.53,295.3575 L1006.7503,295.8258 L1002.9573,296.1831 L1002.9665,296.2703 L999.2216,296.5754 L995.5189,297.2826 L991.7219,297.0916 L988.0408,298.0036 L984.2788,298.1464 L984.2532,297.8702 L980.6107,298.2451 L976.9885,298.8397 L973.3421,299.1723 L969.6747,299.2795 L966.049,299.8354 L966.0639,300.0187 L962.5404,300.1705 L959.0503,300.7311 L955.5356,300.9916 L951.9828,300.7845 L948.4865,301.27 L948.4738,301.0936 L945.1471,301.4527 L941.8272,301.9076 L938.4935,302.1686 L935.1549,302.3635 L931.81,302.47 " fill="none" style="stroke: #A9A9A9; stroke-width: 2.0; stroke-dasharray: 7.0,7.0;"/><polygon fill="#A9A9A9" points="926.72,302.8,926.7442,302.8658,928.521,303.3503,930.4397,304.2203,932.3121,304.9647,934.0328,305.2964,935.9636,306.1995,935.9465,306.18,935.019,305.3469,934.1776,304.612,933.396,303.9454,932.4082,303.0435,931.7092,302.4712,931.848,302.5928,932.2968,301.4819,933.1509,300.726,934.0544,300.0135,934.6703,299.0489,935.4375,298.2168,935.4481,298.237,933.689,299.124,931.9782,300.1028,930.2441,301.0373,928.5543,302.0562,926.72,302.8" style="stroke: #A9A9A9; stroke-width: 2.0;"/><!--link PowerplugC to PowerPointC--><path d="M461.93,220.24 L462.112,220.4531 L454.2523,226.071 L447.4596,232.9382 L440.3194,239.3986 L432.0367,244.5212 L425.2683,251.4168 L417.6473,257.3143 L410.3657,263.609 L403.3199,270.1798 L396.06,276.5 " fill="none" style="stroke: #A9A9A9; stroke-width: 2.0; stroke-dasharray: 7.0,7.0;"/><polygon fill="#A9A9A9" points="392.18,279.81,392.1999,279.8772,394.0293,279.1177,395.9753,278.7519,397.8834,278.258,399.6665,277.3423,401.6226,277.0104,401.6205,276.9846,400.4835,276.7795,399.3568,276.7045,398.2372,276.7201,397.093,276.4238,395.9833,276.5643,396.1673,276.5788,395.8631,275.4199,396.0961,274.3034,396.3945,273.1921,396.3117,272.0506,396.4294,270.9251,396.45,270.9349,395.5699,272.6975,394.7834,274.5047,393.9517,276.2904,393.206,278.1172,392.18,279.81" style="stroke: #A9A9A9; stroke-width: 2.0;"/><!--link PowerPlugF to PowerPointF--><path d="M759.61,220.24 L759.7957,220.4499 L767.1901,226.8588 L775.6733,234.498 L783.8019,241.7366 L790.7646,247.6577 L799.2726,255.3249 L806.9106,262.0092 L814.8949,269.0846 L823.18,276.5 " fill="none" style="stroke: #A9A9A9; stroke-width: 2.0; stroke-dasharray: 7.0,7.0;"/><polygon fill="#A9A9A9" points="826.93,279.81,826.9937,279.8391,825.9871,277.9605,825.3541,276.2523,824.5995,274.4886,823.4446,272.5424,822.8438,270.8488,822.8179,270.8473,822.7704,271.9695,822.8533,273.0997,823.0268,274.2353,822.888,275.352,823.1867,276.4953,823.1978,276.6795,822.0446,276.3542,820.9241,276.5666,819.8075,276.8447,818.6678,276.7411,817.5402,276.8382,817.5471,276.8599,819.4149,277.4224,821.3141,278.0836,823.1981,278.6973,825.1109,279.4018,826.93,279.81" style="stroke: #A9A9A9; stroke-width: 2.0;"/><!--
@startuml
skinparam backgroundColor #222222
skinparam handwritten true
hide circle

skinparam shadowing false
skinparam padding 1
skinparam arrow {
    Thickness 2
    Color #DarkGrey
    FontSize 20
    FontName courier
    FontStyle normal
    FontColor #DarkGrey
}
skinparam class {
    BorderThickness 3
    BorderColor #DC143C
    BackgroundColor #222222
    FontSize 20
    FontName courier
    FontStyle bold
    FontColor #DC143C
}
skinparam classAttribute {
    FontSize 15
    FontName courier
    FontStyle normal
    FontColor #DarkGrey
}
skinparam note {
    BorderThickness 3
    BorderColor #DarkGrey
    BackgroundColor #222222
    FontSize 20
    FontName courier
    FontStyle normal
    FontColor #DarkGrey
}

class Scenario  {
+ main()
}
class ApplianceC
class ApplianceF
class HairdryerC
class ShaverC
together {
class PowerplugC  {
+plug(PowerPointC)
}
class PowerPlugF  {
+ plug(PowerPoitF)
}
}
class HairdryerF
class ShaverF
class PowerPointC
class PowerPointF

Scenario ..> HairdryerC
Scenario ..> ShaverC
Scenario ..> HairdryerF
Scenario ..> ShaverF
Scenario ..> PowerPointC
Scenario ..> PowerPointF
ApplianceC <|- - HairdryerC
ApplianceC *- - PowerplugC
ApplianceC <|- - ShaverC
ApplianceC ..> PowerPointC
ApplianceF <|- - HairdryerF
ApplianceF *- - PowerPlugF
ApplianceF <|- - ShaverF
ApplianceF ..> PowerPointF
PowerplugC ..> PowerPointC
PowerPlugF ..> PowerPointF
@enduml

PlantUML version 1.2019.05(Sat Apr 20 18:45:36 CEST 2019)
(GPL source distribution)
Java Runtime: Java(TM) SE Runtime Environment
JVM: Java HotSpot(TM) 64-Bit Server VM
Java Version: 11.0.14+8-LTS-263
Operating System: Windows 10
OS Version: 10.0
Default Encoding: windows-1252
Language: es
Country: ES
--></g></svg>