<?xml version="1.0" encoding="UTF-8" standalone="no"?><svg xmlns="http://www.w3.org/2000/svg" xmlns:xlink="http://www.w3.org/1999/xlink" contentScriptType="application/ecmascript" contentStyleType="text/css" height="415px" preserveAspectRatio="none" style="width:625px;height:415px;background:#222222;" version="1.1" viewBox="0 0 625 415" width="625px" zoomAndPan="magnify"><defs/><g><!--class Patron--><polygon fill="#222222" points="265,8,265,8.2102,275,7.5857,285,8.1933,295,8.3997,305,7.2866,315,7.9223,325,7.5735,335,7.6165,345,8,344.9318,8,344.3086,18.8227,345.5536,29.6453,344.3697,40.468,344.8022,51.2906,345,62.1133,345,62.5452,335,62.0275,325,62.1815,315,62.0813,305,62.2918,295,62.3524,285,62.699,275,62.7843,265,62.1133,265.6793,62.1133,265.2546,51.2906,265.4636,40.468,265.7022,29.6453,264.2788,18.8227,265,8" style="stroke: #FF69B4; stroke-width: 3.0;"/><text fill="#FF69B4" font-family="courier" font-size="20" font-style="italic" font-weight="bold" lengthAdjust="spacingAndGlyphs" textLength="72" x="269" y="34.1074">Patrón</text><path d="M266,46.1133 L266,46.3935 L275.75,45.5609 L285.5,46.371 L295.25,46.6462 L305,45.1621 L314.75,46.0097 L324.5,45.5446 L334.25,45.6019 L344,46.1133 " fill="#222222" style="stroke: #FF69B4; stroke-width: 3.0;"/><path d="M266,54.1133 L266,54.3935 L275.75,53.5609 L285.5,54.371 L295.25,54.6462 L305,53.1621 L314.75,54.0097 L324.5,53.5446 L334.25,53.6019 L344,54.1133 " fill="#222222" style="stroke: #FF69B4; stroke-width: 3.0;"/><!--class ElementoPatron--><polygon fill="#222222" points="193,122,193,122.2102,203.1818,121.5857,213.3636,122.1933,223.5455,122.3997,233.7273,121.2866,243.9091,121.9223,254.0909,121.5735,264.2727,121.6165,274.4545,121.9318,284.6364,121.3086,294.8182,122.5536,305,121.3697,315.1818,121.8022,325.3636,122.4319,335.5455,121.9142,345.7273,122.0682,355.9091,121.9681,366.0909,122.1785,376.2727,122.2391,386.4545,122.5857,396.6364,122.6711,406.8182,122.6793,417,122,417.2546,122,417.4636,132.8227,417.7022,143.6453,416.2788,154.468,417.6785,165.2906,417,176.1133,417,175.8168,406.8182,176.6471,396.6364,175.6183,386.4545,176.0448,376.2727,176.8549,366.0909,176.0645,355.9091,176.2186,345.7273,176.4519,335.5455,176.5295,325.3636,176.1094,315.1818,176.4005,305,175.5409,294.8182,176.3977,284.6364,176.6615,274.4545,176.5578,264.2727,176.7263,254.0909,175.6302,243.9091,175.4611,233.7273,175.4919,223.5455,176.0544,213.3636,175.9168,203.1818,176.7947,193,176.1133,192.8253,176.1133,192.6569,165.2906,193.2283,154.468,192.3332,143.6453,192.4809,132.8227,193,122" style="stroke: #FF69B4; stroke-width: 3.0;"/><text fill="#FF69B4" font-family="courier" font-size="20" font-style="italic" font-weight="bold" lengthAdjust="spacingAndGlyphs" textLength="216" x="197" y="148.1074">Elemento de Patrón</text><path d="M194,160.1133 L194,160.3935 L204.0909,159.5609 L214.1818,160.371 L224.2727,160.6462 L234.3636,159.1621 L244.4545,160.0097 L254.5455,159.5446 L264.6364,159.6019 L274.7273,160.0224 L284.8182,159.1915 L294.9091,160.8515 L305,159.2729 L315.0909,159.8496 L325.1818,160.6892 L335.2727,159.9989 L345.3636,160.2043 L355.4545,160.0707 L365.5455,160.3513 L375.6364,160.4321 L385.7273,160.8942 L395.8182,161.008 L405.9091,161.019 L416,160.1133 " fill="#222222" style="stroke: #FF69B4; stroke-width: 3.0;"/><path d="M194,168.1133 L194,168.3935 L204.0909,167.5609 L214.1818,168.371 L224.2727,168.6462 L234.3636,167.1621 L244.4545,168.0097 L254.5455,167.5446 L264.6364,167.6019 L274.7273,168.0224 L284.8182,167.1915 L294.9091,168.8515 L305,167.2729 L315.0909,167.8496 L325.1818,168.6892 L335.2727,167.9989 L345.3636,168.2043 L355.4545,168.0707 L365.5455,168.3513 L375.6364,168.4321 L385.7273,168.8942 L395.8182,169.008 L405.9091,169.019 L416,168.1133 " fill="#222222" style="stroke: #FF69B4; stroke-width: 3.0;"/><!--class Nombre--><polygon fill="#222222" points="69,236,69,236.2102,79,235.5857,89,236.1933,99,236.3997,109,235.2866,119,235.9223,129,235.5735,139,235.6165,149,236,148.9318,236,148.3086,246.8227,149.5536,257.6453,148.3697,268.468,148.8022,279.2906,149,290.1133,149,290.5452,139,290.0275,129,290.1815,119,290.0813,109,290.2918,99,290.3524,89,290.699,79,290.7843,69,290.1133,69.6793,290.1133,69.2546,279.2906,69.4636,268.468,69.7022,257.6453,68.2788,246.8227,69,236" style="stroke: #228B22; stroke-width: 3.0;"/><text fill="#228B22" font-family="courier" font-size="20" font-style="italic" font-weight="bold" lengthAdjust="spacingAndGlyphs" textLength="72" x="73" y="262.1074">Nombre</text><path d="M70,274.1133 L70,274.3935 L79.75,273.5609 L89.5,274.371 L99.25,274.6462 L109,273.1621 L118.75,274.0097 L128.5,273.5446 L138.25,273.6019 L148,274.1133 " fill="#222222" style="stroke: #228B22; stroke-width: 3.0;"/><path d="M70,282.1133 L70,282.3935 L79.75,281.5609 L89.5,282.371 L99.25,282.6462 L109,281.1621 L118.75,282.0097 L128.5,281.5446 L138.25,281.6019 L148,282.1133 " fill="#222222" style="stroke: #228B22; stroke-width: 3.0;"/><!--class Nombre2--><polygon fill="#222222" points="6,350,6,350.2102,16,349.5857,26,350.1933,36,350.3997,46,349.2866,56,349.9223,66,349.5735,76,349.6165,86,350,85.9318,350,85.3086,360.8227,86.5536,371.6453,85.3697,382.468,85.8022,393.2906,86,404.1133,86,404.5452,76,404.0275,66,404.1815,56,404.0813,46,404.2918,36,404.3524,26,404.699,16,404.7843,6,404.1133,6.6793,404.1133,6.2546,393.2906,6.4636,382.468,6.7022,371.6453,5.2788,360.8227,6,350" style="stroke: #228B22; stroke-width: 3.0;"/><text fill="#228B22" font-family="courier" font-size="20" font-weight="bold" lengthAdjust="spacingAndGlyphs" textLength="72" x="10" y="376.1074">Nombre</text><path d="M7,388.1133 L7,388.3935 L16.75,387.5609 L26.5,388.371 L36.25,388.6462 L46,387.1621 L55.75,388.0097 L65.5,387.5446 L75.25,387.6019 L85,388.1133 " fill="#222222" style="stroke: #228B22; stroke-width: 3.0;"/><path d="M7,396.1133 L7,396.3935 L16.75,395.5609 L26.5,396.371 L36.25,396.6462 L46,395.1621 L55.75,396.0097 L65.5,395.5446 L75.25,395.6019 L85,396.1133 " fill="#222222" style="stroke: #228B22; stroke-width: 3.0;"/><!--class Sinonimo--><polygon fill="#222222" points="121,350,121,350.2102,131.4,349.5857,141.8,350.1933,152.2,350.3997,162.6,349.2866,173,349.9223,183.4,349.5735,193.8,349.6165,204.2,349.9318,214.6,349.3086,225,350,225.5536,350,224.3697,360.8227,224.8022,371.6453,225.4319,382.468,224.9142,393.2906,225,404.1133,225,404.1815,214.6,404.0813,204.2,404.2918,193.8,404.3524,183.4,404.699,173,404.7843,162.6,404.7925,152.2,404.3679,141.8,404.5769,131.4,404.8155,121,404.1133,120.2788,404.1133,121.6785,393.2906,120.7035,382.468,121.5338,371.6453,120.505,360.8227,121,350" style="stroke: #228B22; stroke-width: 3.0;"/><text fill="#228B22" font-family="courier" font-size="20" font-weight="bold" lengthAdjust="spacingAndGlyphs" textLength="96" x="125" y="376.1074">Sinónimo</text><path d="M122,388.1133 L122,388.3935 L132.2,387.5609 L142.4,388.371 L152.6,388.6462 L162.8,387.1621 L173,388.0097 L183.2,387.5446 L193.4,387.6019 L203.6,388.0224 L213.8,387.1915 L224,388.1133 " fill="#222222" style="stroke: #228B22; stroke-width: 3.0;"/><path d="M122,396.1133 L122,396.3935 L132.2,395.5609 L142.4,396.371 L152.6,396.6462 L162.8,395.1621 L173,396.0097 L183.2,395.5446 L193.4,395.6019 L203.6,396.0224 L213.8,395.1915 L224,396.1133 " fill="#222222" style="stroke: #228B22; stroke-width: 3.0;"/><!--class Problema--><polygon fill="#222222" points="184,236,184,236.2102,194.4,235.5857,204.8,236.1933,215.2,236.3997,225.6,235.2866,236,235.9223,246.4,235.5735,256.8,235.6165,267.2,235.9318,277.6,235.3086,288,236,288.5536,236,287.3697,246.8227,287.8022,257.6453,288.4319,268.468,287.9142,279.2906,288,290.1133,288,290.1815,277.6,290.0813,267.2,290.2918,256.8,290.3524,246.4,290.699,236,290.7843,225.6,290.7925,215.2,290.3679,204.8,290.5769,194.4,290.8155,184,290.1133,183.2788,290.1133,184.6785,279.2906,183.7035,268.468,184.5338,257.6453,183.505,246.8227,184,236" style="stroke: #87CEEB; stroke-width: 3.0;"/><text fill="#87CEEB" font-family="courier" font-size="20" font-style="italic" font-weight="bold" lengthAdjust="spacingAndGlyphs" textLength="96" x="188" y="262.1074">Problema</text><path d="M185,274.1133 L185,274.3935 L195.2,273.5609 L205.4,274.371 L215.6,274.6462 L225.8,273.1621 L236,274.0097 L246.2,273.5446 L256.4,273.6019 L266.6,274.0224 L276.8,273.1915 L287,274.1133 " fill="#222222" style="stroke: #87CEEB; stroke-width: 3.0;"/><path d="M185,282.1133 L185,282.3935 L195.2,281.5609 L205.4,282.371 L215.6,282.6462 L225.8,281.1621 L236,282.0097 L246.2,281.5446 L256.4,281.6019 L266.6,282.0224 L276.8,281.1915 L287,282.1133 " fill="#222222" style="stroke: #87CEEB; stroke-width: 3.0;"/><!--class Solucion--><polygon fill="#222222" points="323,236,323,236.2102,333.4,235.5857,343.8,236.1933,354.2,236.3997,364.6,235.2866,375,235.9223,385.4,235.5735,395.8,235.6165,406.2,235.9318,416.6,235.3086,427,236,427.5536,236,426.3697,246.8227,426.8022,257.6453,427.4319,268.468,426.9142,279.2906,427,290.1133,427,290.1815,416.6,290.0813,406.2,290.2918,395.8,290.3524,385.4,290.699,375,290.7843,364.6,290.7925,354.2,290.3679,343.8,290.5769,333.4,290.8155,323,290.1133,322.2788,290.1133,323.6785,279.2906,322.7035,268.468,323.5338,257.6453,322.505,246.8227,323,236" style="stroke: #FFD700; stroke-width: 3.0;"/><text fill="#FFD700" font-family="courier" font-size="20" font-style="italic" font-weight="bold" lengthAdjust="spacingAndGlyphs" textLength="96" x="327" y="262.1074">Solución</text><path d="M324,274.1133 L324,274.3935 L334.2,273.5609 L344.4,274.371 L354.6,274.6462 L364.8,273.1621 L375,274.0097 L385.2,273.5446 L395.4,273.6019 L405.6,274.0224 L415.8,273.1915 L426,274.1133 " fill="#222222" style="stroke: #FFD700; stroke-width: 3.0;"/><path d="M324,282.1133 L324,282.3935 L334.2,281.5609 L344.4,282.371 L354.6,282.6462 L364.8,281.1621 L375,282.0097 L385.2,281.5446 L395.4,281.6019 L405.6,282.0224 L415.8,281.1915 L426,282.1133 " fill="#222222" style="stroke: #FFD700; stroke-width: 3.0;"/><!--class Consecuencia--><polygon fill="#222222" points="462,236,462,236.2102,472.1333,235.5857,482.2667,236.1933,492.4,236.3997,502.5333,235.2866,512.6667,235.9223,522.8,235.5735,532.9333,235.6165,543.0667,235.9318,553.2,235.3086,563.3333,236.5536,573.4667,235.3697,583.6,235.8022,593.7333,236.4319,603.8667,235.9142,614,236,614.0682,236,613.9681,246.8227,614.1785,257.6453,614.2391,268.468,614.5857,279.2906,614,290.1133,614,290.7843,603.8667,290.7925,593.7333,290.3679,583.6,290.5769,573.4667,290.8155,563.3333,289.3921,553.2,290.7918,543.0667,289.8168,532.9333,290.6471,522.8,289.6183,512.6667,290.0448,502.5333,290.8549,492.4,290.0645,482.2667,290.2186,472.1333,290.4519,462,290.1133,462.4162,290.1133,461.9961,279.2906,462.2872,268.468,461.4276,257.6453,462.2844,246.8227,462,236" style="stroke: #DC143C; stroke-width: 3.0;"/><text fill="#DC143C" font-family="courier" font-size="20" font-style="italic" font-weight="bold" lengthAdjust="spacingAndGlyphs" textLength="144" x="466" y="262.1074">Consecuencia</text><path d="M463,274.1133 L463,274.3935 L473,273.5609 L483,274.371 L493,274.6462 L503,273.1621 L513,274.0097 L523,273.5446 L533,273.6019 L543,274.0224 L553,273.1915 L563,274.8515 L573,273.2729 L583,273.8496 L593,274.6892 L603,273.9989 L613,274.1133 " fill="#222222" style="stroke: #DC143C; stroke-width: 3.0;"/><path d="M463,282.1133 L463,282.3935 L473,281.5609 L483,282.371 L493,282.6462 L503,281.1621 L513,282.0097 L523,281.5446 L533,281.6019 L543,282.0224 L553,281.1915 L563,282.8515 L573,281.2729 L583,281.8496 L593,282.6892 L603,281.9989 L613,282.1133 " fill="#222222" style="stroke: #DC143C; stroke-width: 3.0;"/><!--link Patron to ElementoPatron--><path d="M305,75.698 L305.0934,75.698 L304.8159,82.2688 L305.0859,88.8396 L305.1776,95.4104 L304.6829,101.9812 L305,108.552 " fill="none" style="stroke: #A9A9A9; stroke-width: 2.0;"/><polygon fill="#A9A9A9" points="305,121.905,305.064,121.9335,305.6738,120.0489,306.6589,118.3312,307.5217,116.5591,307.9827,114.6084,309,112.905,308.9817,112.8867,308.0995,113.6045,307.3096,114.4146,306.5839,115.2889,305.637,115.942,305,116.905,305.1305,117.0355,304.0514,115.9564,303.3534,115.2584,302.7018,114.6068,301.7798,113.6848,301,112.905,301.0208,112.9142,301.7903,114.7007,302.6544,116.5292,303.4728,118.3374,304.3784,120.1843,305,121.905" style="stroke: #A9A9A9; stroke-width: 2.0;"/><path d="M305,116.905 L305.0934,116.905 L304.8159,115.3051 L305.0859,113.7052 L305.1776,112.1053 L304.6829,110.5054 L305,108.9055 " fill="#A9A9A9" style="stroke: #A9A9A9; stroke-width: 2.0;"/><polygon fill="#A9A9A9" points="305,62.259,305.0583,62.2979,304.0851,63.3824,303.4536,64.6947,302.7109,65.9329,301.6021,66.9271,301,68.259,300.9784,68.2446,301.6817,69.3801,302.4936,70.5881,303.3811,71.8464,304.0082,72.9312,305,74.259,305.1536,74.3614,305.6252,72.9425,306.5451,71.8224,307.5198,70.7389,308.1762,69.4431,309,68.259,309.0189,68.2716,308.1911,67.0531,307.4495,65.892,306.6663,64.7032,305.9624,63.5673,305,62.259" style="stroke: #A9A9A9; stroke-width: 2.0;"/><!--link ElementoPatron to Nombre--><path d="M241.381,186.354 L241.52,186.5973 L232.7109,190.6721 L224.7169,196.1732 L216.4574,201.2099 L207.3251,204.719 L199.3496,210.2527 L190.7229,214.6466 L182.3553,219.4941 L174.1679,224.6569 L165.3596,228.7332 L157.7872,234.9722 L149.025,239.129 " fill="none" style="stroke: #A9A9A9; stroke-width: 2.0;"/><polygon fill="none" points="238.209,180.104,238.2217,180.1729,242.3515,179.1992,246.5559,178.6294,250.736,177.928,254.8363,176.7941,259.047,176.259,259.0274,176.242,256.1612,179.366,253.3937,182.5756,250.6946,185.8447,247.7594,188.9087,245.155,192.26,245.3152,192.3516,243.5834,189.7246,242.3194,187.3649,241.1124,185.0378,239.5734,182.521,238.209,180.104" style="stroke: #A9A9A9; stroke-width: 2.0;"/><!--link ElementoPatron to Problema--><path d="M278.208,193.488 L278.4466,193.635 L272.5113,201.6816 L267.9746,210.59 L262.9825,219.2177 L256.4926,226.9227 L252.076,235.905 " fill="none" style="stroke: #A9A9A9; stroke-width: 2.0;"/><polygon fill="none" points="272.372,189.615,272.4162,189.6694,275.5752,186.8366,278.993,184.3226,282.3266,181.7048,285.3829,178.7456,288.823,176.259,288.7977,176.2535,287.7779,180.3686,286.8857,184.5117,286.0822,188.6741,284.9731,192.7697,284.292,196.959,284.3888,197.1161,281.7978,195.3113,279.4894,193.9653,277.2155,192.6752,274.741,191.0595,272.372,189.615" style="stroke: #A9A9A9; stroke-width: 2.0;"/><!--link ElementoPatron to Solucion--><path d="M332.18,193.488 L332.4176,193.6365 L337.0137,201.6786 L343.0029,210.5914 L348.5385,219.2206 L352.5822,226.9175 L358.691,235.905 " fill="none" style="stroke: #A9A9A9; stroke-width: 2.0;"/><polygon fill="none" points="326.076,196.929,326.1443,196.9444,325.0085,192.7646,324.2732,188.6752,323.4076,184.5563,322.1128,180.3407,321.412,176.259,321.3958,176.2388,324.6303,178.7981,327.9465,181.4592,331.3194,184.1913,334.4967,186.6792,337.948,189.509,338.0458,189.6655,335.4623,190.8148,333.1643,192.4211,330.9011,194.0831,328.4352,195.4208,326.076,196.929" style="stroke: #A9A9A9; stroke-width: 2.0;"/><!--link ElementoPatron to Consecuencia--><path d="M377.65,184.922 L377.7714,185.1746 L386.2382,188.6674 L395.4167,193.6408 L404.3634,198.132 L412.5479,201.0377 L421.7426,206.0449 L430.3686,209.869 L439.221,214.1639 L448.2306,218.7861 L456.6981,222.2804 L466.2448,228.0198 L474.3884,230.8403 L483.58,235.841 " fill="none" style="stroke: #A9A9A9; stroke-width: 2.0;"/><polygon fill="none" points="374.327,191.091,374.3765,191.1406,371.2308,187.9987,368.3753,185.1474,365.4253,182.2015,362.1646,178.9443,359.334,176.118,359.3311,176.0923,363.5298,176.4477,367.743,176.933,371.9663,177.5084,376.1548,177.773,380.392,178.473,380.5583,178.5529,378.9896,180.9056,377.9066,183.4916,376.8828,186.1062,375.5142,188.555,374.327,191.091" style="stroke: #A9A9A9; stroke-width: 2.0;"/><!--link Nombre to Nombre2--><path d="M87.7217,301.828 L87.8031,301.8738 L83.4676,309.0152 L79.6094,316.4252 L75.5957,323.7476 L71.071,330.7826 L67.2537,338.2156 " fill="none" style="stroke: #A9A9A9; stroke-width: 2.0;"/><polygon fill="#A9A9A9" points="60.6782,349.9055,60.7201,349.9617,62.1754,348.6181,63.8761,347.6039,65.497,346.4825,66.8551,345.0083,68.5768,344.0224,68.5699,343.9974,67.449,344.1905,66.3634,344.5094,65.3023,344.9156,64.1568,345.0206,63.1295,345.5476,63.3072,345.5974,62.6221,344.4015,62.4559,343.3509,62.353,342.318,61.8818,341.182,61.6042,340.1003,61.6269,340.1024,61.4084,342.0603,61.2931,344.028,61.128,345.9909,61.0578,347.9628,60.6782,349.9055" style="stroke: #A9A9A9; stroke-width: 2.0;"/><path d="M63.1295,345.5476 L63.2109,345.5934 L63.7534,344.0628 L64.7732,342.8007 L65.6376,341.4511 L65.9908,339.8141 L67.0516,338.575 " fill="#A9A9A9" style="stroke: #A9A9A9; stroke-width: 2.0;"/><polygon fill="#A9A9A9" points="94.2293,290.259,94.2611,290.3214,92.8811,290.7896,91.6874,291.6239,90.433,292.3389,88.9793,292.6619,87.8015,293.5276,87.7757,293.5257,87.7688,294.955,87.8921,296.3942,88.1059,297.8402,88.0077,299.2626,88.3465,300.7181,88.4302,300.8826,89.5368,299.8771,90.8877,299.3519,92.2684,298.8853,93.4758,298.0777,94.7743,297.4495,94.797,297.4512,94.6547,296.0106,94.6156,294.5778,94.5268,293.1412,94.533,291.7119,94.2293,290.259" style="stroke: #A9A9A9; stroke-width: 2.0;"/><!--link Nombre to Sinonimo--><path d="M130.616,301.828 L130.6971,301.8743 L134.6569,309.0882 L139.0922,316.5737 L143.3726,323.9707 L147.1439,331.0768 L151.62,338.5856 " fill="none" style="stroke: #A9A9A9; stroke-width: 2.0;"/><polygon fill="#A9A9A9" points="158.089,349.9055,158.1587,349.9126,157.7532,347.9318,157.7564,345.9925,157.6265,344.0396,157.059,342.0425,157.0972,340.1067,157.0722,340.0999,156.6623,341.1608,156.3784,342.256,156.1821,343.3752,155.6839,344.412,155.6085,345.5642,155.6571,345.7422,154.4617,345.0637,153.4082,344.9051,152.3719,344.8099,151.235,344.3456,150.1511,344.0755,150.1645,344.0938,151.7324,345.2329,153.3615,346.4554,154.961,347.6377,156.617,348.8968,158.089,349.9055" style="stroke: #A9A9A9; stroke-width: 2.0;"/><path d="M155.6085,345.5642 L155.6896,345.6105 L154.6547,344.0836 L154.0953,342.8285 L153.381,341.4848 L152.1576,339.8502 L151.639,338.6184 " fill="#A9A9A9" style="stroke: #A9A9A9; stroke-width: 2.0;"/><polygon fill="#A9A9A9" points="124.005,290.259,124.0749,290.2638,123.768,291.6883,123.8709,293.141,123.8403,294.5846,123.3709,295.9979,123.509,297.453,123.4974,297.4299,124.7354,297.9708,126.0317,298.6286,127.3687,299.3676,128.5658,299.8267,129.9588,300.6778,130.1429,300.6905,129.8484,299.2246,130.0915,297.7957,130.4001,296.3713,130.3271,294.9207,130.4549,293.4838,130.465,293.5042,129.1601,292.8293,127.9015,292.2471,126.6206,291.6202,125.3823,291.0786,124.005,290.259" style="stroke: #A9A9A9; stroke-width: 2.0;"/><!--
@startuml
skinparam backgroundColor #222222
skinparam handwritten true
hide circle
hide stereotype
skinparam shadowing false
skinparam padding 1
skinparam arrow {
    Thickness 2
    Color #DarkGrey
    FontSize 20
    FontName courier
    FontStyle normal
    FontColor #DarkGrey
}
skinparam class {
   BorderThickness 3
    BorderColor<<a>> #ff69b4
    BorderColor<<b>> #228B22
    BorderColor<<c>> #87ceeb
    BorderColor<<d>> #FFD700
    BorderColor<<e>> #DC143C
    BackgroundColor #222222
    FontSize 20
    FontName courier
    FontStyle bold
    FontColor<<a>> #ff69b4
    FontColor<<b>> #228B22
    FontColor<<c>> #87ceeb
    FontColor<<d>> #FFD700
    FontColor<<e>> #DC143C
}

abstract class "Patrón" as Patron <<a>>
abstract class "Elemento de Patrón" as ElementoPatron <<a>>
abstract class Nombre <<b>>
class "Nombre" as Nombre2 <<b>>
class "Sinónimo" as Sinonimo <<b>>
abstract class Problema <<c>>
abstract class "Solución" as Solucion <<d>>
abstract class Consecuencia <<e>>

Patron *-down-> ElementoPatron
ElementoPatron <|-down- Nombre
ElementoPatron <|-down- Problema
ElementoPatron <|-down- Solucion
ElementoPatron <|-down- Consecuencia
Nombre *-down-> Nombre2
Nombre *-down-> Sinonimo
@enduml

PlantUML version 1.2019.05(Sat Apr 20 18:45:36 CEST 2019)
(GPL source distribution)
Java Runtime: Java(TM) SE Runtime Environment
JVM: Java HotSpot(TM) 64-Bit Server VM
Java Version: 11.0.8+10-LTS
Operating System: Windows 10
OS Version: 10.0
Default Encoding: windows-1252
Language: es
Country: ES
--></g></svg>