<?xml version="1.0" encoding="UTF-8" standalone="no"?><svg xmlns="http://www.w3.org/2000/svg" xmlns:xlink="http://www.w3.org/1999/xlink" contentScriptType="application/ecmascript" contentStyleType="text/css" height="415px" preserveAspectRatio="none" style="width:1531px;height:415px;background:#222222;" version="1.1" viewBox="0 0 1531 415" width="1531px" zoomAndPan="magnify"><defs/><g><!--class Patron--><polygon fill="#222222" points="627,8,627,8.2102,637,7.5857,647,8.1933,657,8.3997,667,7.2866,677,7.9223,687,7.5735,697,7.6165,707,8,706.9318,8,706.3086,18.8227,707.5536,29.6453,706.3697,40.468,706.8022,51.2906,707,62.1133,707,62.5452,697,62.0275,687,62.1815,677,62.0813,667,62.2918,657,62.3524,647,62.699,637,62.7843,627,62.1133,627.6793,62.1133,627.2546,51.2906,627.4636,40.468,627.7022,29.6453,626.2788,18.8227,627,8" style="stroke: #FF69B4; stroke-width: 3.0;"/><text fill="#FF69B4" font-family="courier" font-size="20" font-style="italic" font-weight="bold" lengthAdjust="spacingAndGlyphs" textLength="72" x="631" y="34.1074">Patrón</text><path d="M628,46.1133 L628,46.3935 L637.75,45.5609 L647.5,46.371 L657.25,46.6462 L667,45.1621 L676.75,46.0097 L686.5,45.5446 L696.25,45.6019 L706,46.1133 " fill="#222222" style="stroke: #FF69B4; stroke-width: 3.0;"/><path d="M628,54.1133 L628,54.3935 L637.75,53.5609 L647.5,54.371 L657.25,54.6462 L667,53.1621 L676.75,54.0097 L686.5,53.5446 L696.25,53.6019 L706,54.1133 " fill="#222222" style="stroke: #FF69B4; stroke-width: 3.0;"/><!--class ElementoPatron--><polygon fill="#222222" points="555,122,555,122.2102,565.1818,121.5857,575.3636,122.1933,585.5455,122.3997,595.7273,121.2866,605.9091,121.9223,616.0909,121.5735,626.2727,121.6165,636.4545,121.9318,646.6364,121.3086,656.8182,122.5536,667,121.3697,677.1818,121.8022,687.3636,122.4319,697.5455,121.9142,707.7273,122.0682,717.9091,121.9681,728.0909,122.1785,738.2727,122.2391,748.4545,122.5857,758.6364,122.6711,768.8182,122.6793,779,122,779.2546,122,779.4636,132.8227,779.7022,143.6453,778.2788,154.468,779.6785,165.2906,779,176.1133,779,175.8168,768.8182,176.6471,758.6364,175.6183,748.4545,176.0448,738.2727,176.8549,728.0909,176.0645,717.9091,176.2186,707.7273,176.4519,697.5455,176.5295,687.3636,176.1094,677.1818,176.4005,667,175.5409,656.8182,176.3977,646.6364,176.6615,636.4545,176.5578,626.2727,176.7263,616.0909,175.6302,605.9091,175.4611,595.7273,175.4919,585.5455,176.0544,575.3636,175.9168,565.1818,176.7947,555,176.1133,554.8253,176.1133,554.6569,165.2906,555.2283,154.468,554.3332,143.6453,554.4809,132.8227,555,122" style="stroke: #FF69B4; stroke-width: 3.0;"/><text fill="#FF69B4" font-family="courier" font-size="20" font-style="italic" font-weight="bold" lengthAdjust="spacingAndGlyphs" textLength="216" x="559" y="148.1074">Elemento de Patrón</text><path d="M556,160.1133 L556,160.3935 L566.0909,159.5609 L576.1818,160.371 L586.2727,160.6462 L596.3636,159.1621 L606.4545,160.0097 L616.5455,159.5446 L626.6364,159.6019 L636.7273,160.0224 L646.8182,159.1915 L656.9091,160.8515 L667,159.2729 L677.0909,159.8496 L687.1818,160.6892 L697.2727,159.9989 L707.3636,160.2043 L717.4545,160.0707 L727.5455,160.3513 L737.6364,160.4321 L747.7273,160.8942 L757.8182,161.008 L767.9091,161.019 L778,160.1133 " fill="#222222" style="stroke: #FF69B4; stroke-width: 3.0;"/><path d="M556,168.1133 L556,168.3935 L566.0909,167.5609 L576.1818,168.371 L586.2727,168.6462 L596.3636,167.1621 L606.4545,168.0097 L616.5455,167.5446 L626.6364,167.6019 L636.7273,168.0224 L646.8182,167.1915 L656.9091,168.8515 L667,167.2729 L677.0909,167.8496 L687.1818,168.6892 L697.2727,167.9989 L707.3636,168.2043 L717.4545,168.0707 L727.5455,168.3513 L737.6364,168.4321 L747.7273,168.8942 L757.8182,169.008 L767.9091,169.019 L778,168.1133 " fill="#222222" style="stroke: #FF69B4; stroke-width: 3.0;"/><!--class Nombre--><polygon fill="#222222" points="814,122,814,122.2102,824,121.5857,834,122.1933,844,122.3997,854,121.2866,864,121.9223,874,121.5735,884,121.6165,894,122,893.9318,122,893.3086,132.8227,894.5536,143.6453,893.3697,154.468,893.8022,165.2906,894,176.1133,894,176.5452,884,176.0275,874,176.1815,864,176.0813,854,176.2918,844,176.3524,834,176.699,824,176.7843,814,176.1133,814.6793,176.1133,814.2546,165.2906,814.4636,154.468,814.7022,143.6453,813.2788,132.8227,814,122" style="stroke: #228B22; stroke-width: 3.0;"/><text fill="#228B22" font-family="courier" font-size="20" font-style="italic" font-weight="bold" lengthAdjust="spacingAndGlyphs" textLength="72" x="818" y="148.1074">Nombre</text><path d="M815,160.1133 L815,160.3935 L824.75,159.5609 L834.5,160.371 L844.25,160.6462 L854,159.1621 L863.75,160.0097 L873.5,159.5446 L883.25,159.6019 L893,160.1133 " fill="#222222" style="stroke: #228B22; stroke-width: 3.0;"/><path d="M815,168.1133 L815,168.3935 L824.75,167.5609 L834.5,168.371 L844.25,168.6462 L854,167.1621 L863.75,168.0097 L873.5,167.5446 L883.25,167.6019 L893,168.1133 " fill="#222222" style="stroke: #228B22; stroke-width: 3.0;"/><!--class Problema--><polygon fill="#222222" points="476,236,476,236.2102,486.4,235.5857,496.8,236.1933,507.2,236.3997,517.6,235.2866,528,235.9223,538.4,235.5735,548.8,235.6165,559.2,235.9318,569.6,235.3086,580,236,580.5536,236,579.3697,246.8227,579.8022,257.6453,580.4319,268.468,579.9142,279.2906,580,290.1133,580,290.1815,569.6,290.0813,559.2,290.2918,548.8,290.3524,538.4,290.699,528,290.7843,517.6,290.7925,507.2,290.3679,496.8,290.5769,486.4,290.8155,476,290.1133,475.2788,290.1133,476.6785,279.2906,475.7035,268.468,476.5338,257.6453,475.505,246.8227,476,236" style="stroke: #87CEEB; stroke-width: 3.0;"/><text fill="#87CEEB" font-family="courier" font-size="20" font-style="italic" font-weight="bold" lengthAdjust="spacingAndGlyphs" textLength="96" x="480" y="262.1074">Problema</text><path d="M477,274.1133 L477,274.3935 L487.2,273.5609 L497.4,274.371 L507.6,274.6462 L517.8,273.1621 L528,274.0097 L538.2,273.5446 L548.4,273.6019 L558.6,274.0224 L568.8,273.1915 L579,274.1133 " fill="#222222" style="stroke: #87CEEB; stroke-width: 3.0;"/><path d="M477,282.1133 L477,282.3935 L487.2,281.5609 L497.4,282.371 L507.6,282.6462 L517.8,281.1621 L528,282.0097 L538.2,281.5446 L548.4,281.6019 L558.6,282.0224 L568.8,281.1915 L579,282.1133 " fill="#222222" style="stroke: #87CEEB; stroke-width: 3.0;"/><!--class Solucion--><polygon fill="#222222" points="615,236,615,236.2102,625.4,235.5857,635.8,236.1933,646.2,236.3997,656.6,235.2866,667,235.9223,677.4,235.5735,687.8,235.6165,698.2,235.9318,708.6,235.3086,719,236,719.5536,236,718.3697,246.8227,718.8022,257.6453,719.4319,268.468,718.9142,279.2906,719,290.1133,719,290.1815,708.6,290.0813,698.2,290.2918,687.8,290.3524,677.4,290.699,667,290.7843,656.6,290.7925,646.2,290.3679,635.8,290.5769,625.4,290.8155,615,290.1133,614.2788,290.1133,615.6785,279.2906,614.7035,268.468,615.5338,257.6453,614.505,246.8227,615,236" style="stroke: #FFD700; stroke-width: 3.0;"/><text fill="#FFD700" font-family="courier" font-size="20" font-style="italic" font-weight="bold" lengthAdjust="spacingAndGlyphs" textLength="96" x="619" y="262.1074">Solución</text><path d="M616,274.1133 L616,274.3935 L626.2,273.5609 L636.4,274.371 L646.6,274.6462 L656.8,273.1621 L667,274.0097 L677.2,273.5446 L687.4,273.6019 L697.6,274.0224 L707.8,273.1915 L718,274.1133 " fill="#222222" style="stroke: #FFD700; stroke-width: 3.0;"/><path d="M616,282.1133 L616,282.3935 L626.2,281.5609 L636.4,282.371 L646.6,282.6462 L656.8,281.1621 L667,282.0097 L677.2,281.5446 L687.4,281.6019 L697.6,282.0224 L707.8,281.1915 L718,282.1133 " fill="#222222" style="stroke: #FFD700; stroke-width: 3.0;"/><!--class Consecuencia--><polygon fill="#222222" points="754,236,754,236.2102,764.1333,235.5857,774.2667,236.1933,784.4,236.3997,794.5333,235.2866,804.6667,235.9223,814.8,235.5735,824.9333,235.6165,835.0667,235.9318,845.2,235.3086,855.3333,236.5536,865.4667,235.3697,875.6,235.8022,885.7333,236.4319,895.8667,235.9142,906,236,906.0682,236,905.9681,246.8227,906.1785,257.6453,906.2391,268.468,906.5857,279.2906,906,290.1133,906,290.7843,895.8667,290.7925,885.7333,290.3679,875.6,290.5769,865.4667,290.8155,855.3333,289.3921,845.2,290.7918,835.0667,289.8168,824.9333,290.6471,814.8,289.6183,804.6667,290.0448,794.5333,290.8549,784.4,290.0645,774.2667,290.2186,764.1333,290.4519,754,290.1133,754.4162,290.1133,753.9961,279.2906,754.2872,268.468,753.4276,257.6453,754.2844,246.8227,754,236" style="stroke: #DC143C; stroke-width: 3.0;"/><text fill="#DC143C" font-family="courier" font-size="20" font-style="italic" font-weight="bold" lengthAdjust="spacingAndGlyphs" textLength="144" x="758" y="262.1074">Consecuencia</text><path d="M755,274.1133 L755,274.3935 L765,273.5609 L775,274.371 L785,274.6462 L795,273.1621 L805,274.0097 L815,273.5446 L825,273.6019 L835,274.0224 L845,273.1915 L855,274.8515 L865,273.2729 L875,273.8496 L885,274.6892 L895,273.9989 L905,274.1133 " fill="#222222" style="stroke: #DC143C; stroke-width: 3.0;"/><path d="M755,282.1133 L755,282.3935 L765,281.5609 L775,282.371 L785,282.6462 L795,281.1621 L805,282.0097 L815,281.5446 L825,281.6019 L835,282.0224 L845,281.1915 L855,282.8515 L865,281.2729 L875,281.8496 L885,282.6892 L895,281.9989 L905,282.1133 " fill="#222222" style="stroke: #DC143C; stroke-width: 3.0;"/><!--class Estructura--><polygon fill="#222222" points="6,350,6,350.2102,15.8462,349.5857,25.6923,350.1933,35.5385,350.3997,45.3846,349.2866,55.2308,349.9223,65.0769,349.5735,74.9231,349.6165,84.7692,349.9318,94.6154,349.3086,104.4615,350.5536,114.3077,349.3697,124.1538,349.8022,134,350,134.4319,350,133.9142,360.8227,134.0682,371.6453,133.9681,382.468,134.1785,393.2906,134,404.1133,134,404.3524,124.1538,404.699,114.3077,404.7843,104.4615,404.7925,94.6154,404.3679,84.7692,404.5769,74.9231,404.8155,65.0769,403.3921,55.2308,404.7918,45.3846,403.8168,35.5385,404.6471,25.6923,403.6183,15.8462,404.0448,6,404.1133,6.7416,404.1133,5.9513,393.2906,6.1053,382.468,6.3386,371.6453,6.4162,360.8227,6,350" style="stroke: #228B22; stroke-width: 3.0;"/><text fill="#228B22" font-family="courier" font-size="20" font-weight="bold" lengthAdjust="spacingAndGlyphs" textLength="120" x="10" y="376.1074">Estructura</text><path d="M7,388.1133 L7,388.3935 L16.6923,387.5609 L26.3846,388.371 L36.0769,388.6462 L45.7692,387.1621 L55.4615,388.0097 L65.1538,387.5446 L74.8462,387.6019 L84.5385,388.0224 L94.2308,387.1915 L103.9231,388.8515 L113.6154,387.2729 L123.3077,387.8496 L133,388.1133 " fill="#222222" style="stroke: #228B22; stroke-width: 3.0;"/><path d="M7,396.1133 L7,396.3935 L16.6923,395.5609 L26.3846,396.371 L36.0769,396.6462 L45.7692,395.1621 L55.4615,396.0097 L65.1538,395.5446 L74.8462,395.6019 L84.5385,396.0224 L94.2308,395.1915 L103.9231,396.8515 L113.6154,395.2729 L123.3077,395.8496 L133,396.1133 " fill="#222222" style="stroke: #228B22; stroke-width: 3.0;"/><!--class Participantes--><polygon fill="#222222" points="169,350,169,350.2102,179.25,349.5857,189.5,350.1933,199.75,350.3997,210,349.2866,220.25,349.9223,230.5,349.5735,240.75,349.6165,251,349.9318,261.25,349.3086,271.5,350.5536,281.75,349.3697,292,349.8022,302.25,350.4319,312.5,349.9142,322.75,350.0682,333,350,332.9681,350,333.1785,360.8227,333.2391,371.6453,333.5857,382.468,333.6711,393.2906,333,404.1133,333,404.7925,322.75,404.3679,312.5,404.5769,302.25,404.8155,292,403.3921,281.75,404.7918,271.5,403.8168,261.25,404.6471,251,403.6183,240.75,404.0448,230.5,404.8549,220.25,404.0645,210,404.2186,199.75,404.4519,189.5,404.5295,179.25,404.1094,169,404.1133,169.2872,404.1133,168.4276,393.2906,169.2844,382.468,169.5482,371.6453,169.4445,360.8227,169,350" style="stroke: #228B22; stroke-width: 3.0;"/><text fill="#228B22" font-family="courier" font-size="20" font-weight="bold" lengthAdjust="spacingAndGlyphs" textLength="156" x="173" y="376.1074">Participantes</text><path d="M170,388.1133 L170,388.3935 L180.125,387.5609 L190.25,388.371 L200.375,388.6462 L210.5,387.1621 L220.625,388.0097 L230.75,387.5446 L240.875,387.6019 L251,388.0224 L261.125,387.1915 L271.25,388.8515 L281.375,387.2729 L291.5,387.8496 L301.625,388.6892 L311.75,387.9989 L321.875,388.2043 L332,388.1133 " fill="#222222" style="stroke: #228B22; stroke-width: 3.0;"/><path d="M170,396.1133 L170,396.3935 L180.125,395.5609 L190.25,396.371 L200.375,396.6462 L210.5,395.1621 L220.625,396.0097 L230.75,395.5446 L240.875,395.6019 L251,396.0224 L261.125,395.1915 L271.25,396.8515 L281.375,395.2729 L291.5,395.8496 L301.625,396.6892 L311.75,395.9989 L321.875,396.2043 L332,396.1133 " fill="#222222" style="stroke: #228B22; stroke-width: 3.0;"/><!--class Colaboracion--><polygon fill="#222222" points="368,350,368,350.2102,377.7778,349.5857,387.5556,350.1933,397.3333,350.3997,407.1111,349.2866,416.8889,349.9223,426.6667,349.5735,436.4444,349.6165,446.2222,349.9318,456,349.3086,465.7778,350.5536,475.5556,349.3697,485.3333,349.8022,495.1111,350.4319,504.8889,349.9142,514.6667,350.0682,524.4444,349.9681,534.2222,350.1785,544,350,544.2391,350,544.5857,360.8227,544.6711,371.6453,544.6793,382.468,544.2546,393.2906,544,404.1133,544,404.5769,534.2222,404.8155,524.4444,403.3921,514.6667,404.7918,504.8889,403.8168,495.1111,404.6471,485.3333,403.6183,475.5556,404.0448,465.7778,404.8549,456,404.0645,446.2222,404.2186,436.4444,404.4519,426.6667,404.5295,416.8889,404.1094,407.1111,404.4005,397.3333,403.5409,387.5556,404.3977,377.7778,404.6615,368,404.1133,368.4445,404.1133,368.613,393.2906,367.5169,382.468,367.3478,371.6453,367.3786,360.8227,368,350" style="stroke: #FFD700; stroke-width: 3.0;"/><text fill="#FFD700" font-family="courier" font-size="20" font-weight="bold" lengthAdjust="spacingAndGlyphs" textLength="168" x="372" y="376.1074">Colaboraciones</text><path d="M369,388.1133 L369,388.3935 L379.2353,387.5609 L389.4706,388.371 L399.7059,388.6462 L409.9412,387.1621 L420.1765,388.0097 L430.4118,387.5446 L440.6471,387.6019 L450.8824,388.0224 L461.1176,387.1915 L471.3529,388.8515 L481.5882,387.2729 L491.8235,387.8496 L502.0588,388.6892 L512.2941,387.9989 L522.5294,388.2043 L532.7647,388.0707 L543,388.1133 " fill="#222222" style="stroke: #FFD700; stroke-width: 3.0;"/><path d="M369,396.1133 L369,396.3935 L379.2353,395.5609 L389.4706,396.371 L399.7059,396.6462 L409.9412,395.1621 L420.1765,396.0097 L430.4118,395.5446 L440.6471,395.6019 L450.8824,396.0224 L461.1176,395.1915 L471.3529,396.8515 L481.5882,395.2729 L491.8235,395.8496 L502.0588,396.6892 L512.2941,395.9989 L522.5294,396.2043 L532.7647,396.0707 L543,396.1133 " fill="#222222" style="stroke: #FFD700; stroke-width: 3.0;"/><!--class Implementacion--><polygon fill="#222222" points="579,350,579,350.2102,588.7778,349.5857,598.5556,350.1933,608.3333,350.3997,618.1111,349.2866,627.8889,349.9223,637.6667,349.5735,647.4444,349.6165,657.2222,349.9318,667,349.3086,676.7778,350.5536,686.5556,349.3697,696.3333,349.8022,706.1111,350.4319,715.8889,349.9142,725.6667,350.0682,735.4444,349.9681,745.2222,350.1785,755,350,755.2391,350,755.5857,360.8227,755.6711,371.6453,755.6793,382.468,755.2546,393.2906,755,404.1133,755,404.5769,745.2222,404.8155,735.4444,403.3921,725.6667,404.7918,715.8889,403.8168,706.1111,404.6471,696.3333,403.6183,686.5556,404.0448,676.7778,404.8549,667,404.0645,657.2222,404.2186,647.4444,404.4519,637.6667,404.5295,627.8889,404.1094,618.1111,404.4005,608.3333,403.5409,598.5556,404.3977,588.7778,404.6615,579,404.1133,579.4445,404.1133,579.613,393.2906,578.5169,382.468,578.3478,371.6453,578.3786,360.8227,579,350" style="stroke: #FFD700; stroke-width: 3.0;"/><text fill="#FFD700" font-family="courier" font-size="20" font-weight="bold" lengthAdjust="spacingAndGlyphs" textLength="168" x="583" y="376.1074">Implementación</text><path d="M580,388.1133 L580,388.3935 L590.2353,387.5609 L600.4706,388.371 L610.7059,388.6462 L620.9412,387.1621 L631.1765,388.0097 L641.4118,387.5446 L651.6471,387.6019 L661.8824,388.0224 L672.1176,387.1915 L682.3529,388.8515 L692.5882,387.2729 L702.8235,387.8496 L713.0588,388.6892 L723.2941,387.9989 L733.5294,388.2043 L743.7647,388.0707 L754,388.1133 " fill="#222222" style="stroke: #FFD700; stroke-width: 3.0;"/><path d="M580,396.1133 L580,396.3935 L590.2353,395.5609 L600.4706,396.371 L610.7059,396.6462 L620.9412,395.1621 L631.1765,396.0097 L641.4118,395.5446 L651.6471,395.6019 L661.8824,396.0224 L672.1176,395.1915 L682.3529,396.8515 L692.5882,395.2729 L702.8235,395.8496 L713.0588,396.6892 L723.2941,395.9989 L733.5294,396.2043 L743.7647,396.0707 L754,396.1133 " fill="#222222" style="stroke: #FFD700; stroke-width: 3.0;"/><!--class CodgioEjemplo--><polygon fill="#222222" points="790,350,790,350.2102,800.1818,349.5857,810.3636,350.1933,820.5455,350.3997,830.7273,349.2866,840.9091,349.9223,851.0909,349.5735,861.2727,349.6165,871.4545,349.9318,881.6364,349.3086,891.8182,350.5536,902,349.3697,912.1818,349.8022,922.3636,350.4319,932.5455,349.9142,942.7273,350.0682,952.9091,349.9681,963.0909,350.1785,973.2727,350.2391,983.4545,350.5857,993.6364,350.6711,1003.8182,350.6793,1014,350,1014.2546,350,1014.4636,360.8227,1014.7022,371.6453,1013.2788,382.468,1014.6785,393.2906,1014,404.1133,1014,403.8168,1003.8182,404.6471,993.6364,403.6183,983.4545,404.0448,973.2727,404.8549,963.0909,404.0645,952.9091,404.2186,942.7273,404.4519,932.5455,404.5295,922.3636,404.1094,912.1818,404.4005,902,403.5409,891.8182,404.3977,881.6364,404.6615,871.4545,404.5578,861.2727,404.7263,851.0909,403.6302,840.9091,403.4611,830.7273,403.4919,820.5455,404.0544,810.3636,403.9168,800.1818,404.7947,790,404.1133,789.8253,404.1133,789.6569,393.2906,790.2283,382.468,789.3332,371.6453,789.4809,360.8227,790,350" style="stroke: #FFD700; stroke-width: 3.0;"/><text fill="#FFD700" font-family="courier" font-size="20" font-weight="bold" lengthAdjust="spacingAndGlyphs" textLength="216" x="794" y="376.1074">Códgios de Ejemplo</text><path d="M791,388.1133 L791,388.3935 L801.0909,387.5609 L811.1818,388.371 L821.2727,388.6462 L831.3636,387.1621 L841.4545,388.0097 L851.5455,387.5446 L861.6364,387.6019 L871.7273,388.0224 L881.8182,387.1915 L891.9091,388.8515 L902,387.2729 L912.0909,387.8496 L922.1818,388.6892 L932.2727,387.9989 L942.3636,388.2043 L952.4545,388.0707 L962.5455,388.3513 L972.6364,388.4321 L982.7273,388.8942 L992.8182,389.008 L1002.9091,389.019 L1013,388.1133 " fill="#222222" style="stroke: #FFD700; stroke-width: 3.0;"/><path d="M791,396.1133 L791,396.3935 L801.0909,395.5609 L811.1818,396.371 L821.2727,396.6462 L831.3636,395.1621 L841.4545,396.0097 L851.5455,395.5446 L861.6364,395.6019 L871.7273,396.0224 L881.8182,395.1915 L891.9091,396.8515 L902,395.2729 L912.0909,395.8496 L922.1818,396.6892 L932.2727,395.9989 L942.3636,396.2043 L952.4545,396.0707 L962.5455,396.3513 L972.6364,396.4321 L982.7273,396.8942 L992.8182,397.008 L1002.9091,397.019 L1013,396.1133 " fill="#222222" style="stroke: #FFD700; stroke-width: 3.0;"/><!--class UsosConocidos--><polygon fill="#222222" points="1049,350,1049,350.2102,1058.7778,349.5857,1068.5556,350.1933,1078.3333,350.3997,1088.1111,349.2866,1097.8889,349.9223,1107.6667,349.5735,1117.4444,349.6165,1127.2222,349.9318,1137,349.3086,1146.7778,350.5536,1156.5556,349.3697,1166.3333,349.8022,1176.1111,350.4319,1185.8889,349.9142,1195.6667,350.0682,1205.4444,349.9681,1215.2222,350.1785,1225,350,1225.2391,350,1225.5857,360.8227,1225.6711,371.6453,1225.6793,382.468,1225.2546,393.2906,1225,404.1133,1225,404.5769,1215.2222,404.8155,1205.4444,403.3921,1195.6667,404.7918,1185.8889,403.8168,1176.1111,404.6471,1166.3333,403.6183,1156.5556,404.0448,1146.7778,404.8549,1137,404.0645,1127.2222,404.2186,1117.4444,404.4519,1107.6667,404.5295,1097.8889,404.1094,1088.1111,404.4005,1078.3333,403.5409,1068.5556,404.3977,1058.7778,404.6615,1049,404.1133,1049.4445,404.1133,1049.613,393.2906,1048.5169,382.468,1048.3478,371.6453,1048.3786,360.8227,1049,350" style="stroke: #FFD700; stroke-width: 3.0;"/><text fill="#FFD700" font-family="courier" font-size="20" font-weight="bold" lengthAdjust="spacingAndGlyphs" textLength="168" x="1053" y="376.1074">Usos Conocidos</text><path d="M1050,388.1133 L1050,388.3935 L1060.2353,387.5609 L1070.4706,388.371 L1080.7059,388.6462 L1090.9412,387.1621 L1101.1765,388.0097 L1111.4118,387.5446 L1121.6471,387.6019 L1131.8824,388.0224 L1142.1176,387.1915 L1152.3529,388.8515 L1162.5882,387.2729 L1172.8235,387.8496 L1183.0588,388.6892 L1193.2941,387.9989 L1203.5294,388.2043 L1213.7647,388.0707 L1224,388.1133 " fill="#222222" style="stroke: #FFD700; stroke-width: 3.0;"/><path d="M1050,396.1133 L1050,396.3935 L1060.2353,395.5609 L1070.4706,396.371 L1080.7059,396.6462 L1090.9412,395.1621 L1101.1765,396.0097 L1111.4118,395.5446 L1121.6471,395.6019 L1131.8824,396.0224 L1142.1176,395.1915 L1152.3529,396.8515 L1162.5882,395.2729 L1172.8235,395.8496 L1183.0588,396.6892 L1193.2941,395.9989 L1203.5294,396.2043 L1213.7647,396.0707 L1224,396.1133 " fill="#222222" style="stroke: #FFD700; stroke-width: 3.0;"/><!--class PatronesRelacionados--><polygon fill="#222222" points="1260,350,1260,350.2102,1270,349.5857,1280,350.1933,1290,350.3997,1300,349.2866,1310,349.9223,1320,349.5735,1330,349.6165,1340,349.9318,1350,349.3086,1360,350.5536,1370,349.3697,1380,349.8022,1390,350.4319,1400,349.9142,1410,350.0682,1420,349.9681,1430,350.1785,1440,350.2391,1450,350.5857,1460,350.6711,1470,350.6793,1480,350.2546,1490,350.4636,1500,350.7022,1510,349.2788,1520,350,1520.6785,350,1519.7035,360.8227,1520.5338,371.6453,1519.505,382.468,1519.9315,393.2906,1520,404.1133,1520,404.8549,1510,404.0645,1500,404.2186,1490,404.4519,1480,404.5295,1470,404.1094,1460,404.4005,1450,403.5409,1440,404.3977,1430,404.6615,1420,404.5578,1410,404.7263,1400,403.6302,1390,403.4611,1380,403.4919,1370,404.0544,1360,403.9168,1350,404.7947,1340,403.9386,1330,403.7702,1320,404.3415,1310,403.4464,1300,403.5942,1290,404.7622,1280,404.5489,1270,404.8478,1260,404.1133,1259.6782,404.1133,1260.3192,393.2906,1260.5904,382.468,1259.5276,371.6453,1259.9041,360.8227,1260,350" style="stroke: #FFD700; stroke-width: 3.0;"/><text fill="#FFD700" font-family="courier" font-size="20" font-weight="bold" lengthAdjust="spacingAndGlyphs" textLength="252" x="1264" y="376.1074">Patrones Relacionados</text><path d="M1261,388.1133 L1261,388.3935 L1270.9231,387.5609 L1280.8462,388.371 L1290.7692,388.6462 L1300.6923,387.1621 L1310.6154,388.0097 L1320.5385,387.5446 L1330.4615,387.6019 L1340.3846,388.0224 L1350.3077,387.1915 L1360.2308,388.8515 L1370.1538,387.2729 L1380.0769,387.8496 L1390,388.6892 L1399.9231,387.9989 L1409.8462,388.2043 L1419.7692,388.0707 L1429.6923,388.3513 L1439.6154,388.4321 L1449.5385,388.8942 L1459.4615,389.008 L1469.3846,389.019 L1479.3077,388.4528 L1489.2308,388.7314 L1499.1538,389.0496 L1509.0769,387.1517 L1519,388.1133 " fill="#222222" style="stroke: #FFD700; stroke-width: 3.0;"/><path d="M1261,396.1133 L1261,396.3935 L1270.9231,395.5609 L1280.8462,396.371 L1290.7692,396.6462 L1300.6923,395.1621 L1310.6154,396.0097 L1320.5385,395.5446 L1330.4615,395.6019 L1340.3846,396.0224 L1350.3077,395.1915 L1360.2308,396.8515 L1370.1538,395.2729 L1380.0769,395.8496 L1390,396.6892 L1399.9231,395.9989 L1409.8462,396.2043 L1419.7692,396.0707 L1429.6923,396.3513 L1439.6154,396.4321 L1449.5385,396.8942 L1459.4615,397.008 L1469.3846,397.019 L1479.3077,396.4528 L1489.2308,396.7314 L1499.1538,397.0496 L1509.0769,395.1517 L1519,396.1133 " fill="#222222" style="stroke: #FFD700; stroke-width: 3.0;"/><!--link Patron to ElementoPatron--><path d="M667,75.698 L667.0934,75.698 L666.8159,82.2688 L667.0859,88.8396 L667.1776,95.4104 L666.6829,101.9812 L667,108.552 " fill="none" style="stroke: #A9A9A9; stroke-width: 2.0;"/><polygon fill="#A9A9A9" points="667,121.905,667.064,121.9335,667.6738,120.0489,668.6589,118.3312,669.5217,116.5591,669.9827,114.6084,671,112.905,670.9817,112.8867,670.0995,113.6045,669.3096,114.4146,668.5839,115.2889,667.637,115.942,667,116.905,667.1305,117.0355,666.0514,115.9564,665.3534,115.2584,664.7018,114.6068,663.7798,113.6848,663,112.905,663.0208,112.9142,663.7903,114.7007,664.6544,116.5292,665.4728,118.3374,666.3784,120.1843,667,121.905" style="stroke: #A9A9A9; stroke-width: 2.0;"/><path d="M667,116.905 L667.0934,116.905 L666.8159,115.3051 L667.0859,113.7052 L667.1776,112.1053 L666.6829,110.5054 L667,108.9055 " fill="#A9A9A9" style="stroke: #A9A9A9; stroke-width: 2.0;"/><polygon fill="#A9A9A9" points="667,62.259,667.0583,62.2979,666.0851,63.3824,665.4536,64.6947,664.7109,65.9329,663.6021,66.9271,663,68.259,662.9784,68.2446,663.6817,69.3801,664.4936,70.5881,665.3811,71.8464,666.0082,72.9312,667,74.259,667.1536,74.3614,667.6252,72.9425,668.5451,71.8224,669.5198,70.7389,670.1762,69.4431,671,68.259,671.0189,68.2716,670.1911,67.0531,669.4495,65.892,668.6663,64.7032,667.9624,63.5673,667,62.259" style="stroke: #A9A9A9; stroke-width: 2.0;"/><!--link ElementoPatron to Nombre--><path d="M799.248,149 L799.248,149.0934 L802.1846,148.8159 L805.1212,149.0859 L808.0578,149.1776 L810.9944,148.6829 L813.931,149 " fill="none" style="stroke: #A9A9A9; stroke-width: 2.0;"/><polygon fill="none" points="799.127,156,799.1501,156.0661,795.0814,154.4696,791.1483,153.2608,787.171,151.9257,783.0484,150.1756,779.127,149,779.1184,148.9755,783.08,147.4658,787.0848,146.0793,791.1195,144.7786,795.0509,143.1825,799.127,142,799.3115,142,798.9169,144.8,799.0611,147.6,799.271,150.4,799.0984,153.2,799.127,156" style="stroke: #A9A9A9; stroke-width: 2.0;"/><!--link ElementoPatron to Problema--><path d="M618.605,188.994 L618.7808,189.2122 L609.9413,195.2654 L602.1324,202.5978 L593.9879,209.5137 L584.7396,215.0596 L576.9543,222.4212 L568.3454,228.7606 L560.385,235.905 " fill="none" style="stroke: #A9A9A9; stroke-width: 2.0;"/><polygon fill="none" points="614.445,183.357,614.4685,183.423,618.3919,181.8073,622.453,180.5785,626.4692,179.2237,630.3381,177.4545,634.411,176.259,634.389,176.2453,632.0538,179.7838,629.8296,183.3911,627.6825,187.0464,625.2696,190.5366,623.229,194.258,623.3727,194.3738,621.3086,191.946,619.6641,189.8562,618.0707,187.8077,616.1795,185.5193,614.445,183.357" style="stroke: #A9A9A9; stroke-width: 2.0;"/><!--link ElementoPatron to Solucion--><path d="M667,196.367 L667.0934,196.367 L666.8159,204.2746 L667.0859,212.1822 L667.1776,220.0898 L666.6829,227.9974 L667,235.905 " fill="none" style="stroke: #A9A9A9; stroke-width: 2.0;"/><polygon fill="none" points="660,196.259,660.0661,196.2821,661.2696,192.2134,662.8608,188.2803,664.3257,184.303,665.3756,180.1804,667,176.259,666.9755,176.2504,668.2658,180.212,669.6793,184.2168,671.1786,188.2515,672.3825,192.1829,674,196.259,674,196.4435,671.2,196.0489,668.4,196.1931,665.6,196.403,662.8,196.2304,660,196.259" style="stroke: #A9A9A9; stroke-width: 2.0;"/><!--link ElementoPatron to Consecuencia--><path d="M721.715,187.596 L721.8737,187.827 L729.2142,192.5084 L737.4849,198.5437 L745.4528,204.1382 L752.4243,208.2827 L760.7163,214.3489 L768.265,219.3333 L776.1094,224.7482 L784.1595,230.4624 L792.023,235.905 " fill="none" style="stroke: #A9A9A9; stroke-width: 2.0;"/><polygon fill="none" points="717.736,193.355,717.7925,193.3964,715.1206,189.8542,712.78,186.5547,710.3315,183.1761,707.5281,179.5377,705.216,176.259,705.2092,176.234,709.2683,177.2332,713.3617,178.3584,717.4788,179.5713,721.514,180.4822,725.664,181.816,725.8161,181.9205,723.9052,184.0048,722.4385,186.3943,721.0259,188.8209,719.298,191.031,717.736,193.355" style="stroke: #A9A9A9; stroke-width: 2.0;"/><!--link Solucion to Estructura--><path d="M602.194,288.633 L602.2178,288.7233 L601.1083,288.7283 L600.1383,289.2629 L599.1228,289.625 L597.9581,289.42 L597,290 L596.9919,289.9664 L593.3956,290.6778 L589.8404,291.5583 L586.3136,292.5565 L582.6887,293.1493 L579.2012,294.3099 L579.2557,294.5499 L575.7303,294.8096 L572.3637,295.7699 L569.0165,296.8157 L565.5566,297.3642 L562.1559,298.1742 L562.1622,298.2039 L558.8845,298.8498 L555.6354,299.6309 L552.3725,300.3467 L549.1358,301.1869 L545.8136,301.6217 L545.8707,301.9145 L542.7335,302.53 L539.5594,302.9567 L536.4392,303.6598 L533.3216,304.3758 L530.1239,304.6814 L530.0674,304.3659 L527.1595,305.5184 L524.0656,305.6319 L521.1131,306.5353 L518.0151,306.6253 L515.0363,307.382 L515.0314,307.352 L512.1822,308.1814 L509.2185,308.3088 L506.3223,308.8505 L503.4318,309.4269 L500.5004,309.7524 L500.5274,309.9355 L497.6932,310.1645 L494.9052,310.7064 L492.0425,310.7422 L489.2912,311.5327 L486.4658,311.8215 L486.4978,312.0631 L483.775,312.3767 L481.068,312.8103 L478.2874,312.6866 L475.5608,312.9714 L472.882,313.6181 L472.8497,313.3438 L470.2423,313.9027 L467.5985,314.1525 L465.0075,314.8506 L462.3263,314.7834 L459.6987,315.171 L459.6829,315.0194 L457.1425,315.5396 L454.5346,315.4115 L451.9747,315.7445 L449.4619,316.5284 L446.8653,316.5092 L446.882,316.7021 L441.9297,317.2639 L436.9256,317.2256 L431.9864,317.9389 L427.0331,318.4885 L422.0468,318.6565 L422.0325,318.4471 L417.2391,318.9409 L412.441,319.3662 L407.6521,319.9262 L402.8276,319.9622 L398.0229,320.2909 L398.0347,320.4962 L393.2824,320.3156 L388.5527,320.5313 L383.8562,321.3257 L379.0987,321.0546 L374.3904,321.6431 L374.4028,321.869 L369.6665,321.995 L364.9259,322.0446 L360.1949,322.2667 L355.4858,322.8874 L350.7456,322.944 L350.7374,322.8112 L345.9497,323.5026 L341.1064,323.2909 L336.3262,324.1061 L331.5105,324.3431 L326.6852,324.4243 L326.6934,324.5329 L321.7109,324.8234 L316.7578,325.5026 L311.7781,325.8306 L306.7872,326.0118 L301.8056,326.3149 L301.8164,326.4336 L299.2258,326.4915 L296.6853,327.1006 L294.0881,327.0863 L291.5142,327.3283 L288.9326,327.4862 L288.905,327.2173 L286.2684,327.5791 L283.6651,328.265 L281.0147,328.4924 L278.3474,328.5555 L275.7035,328.8466 L275.6871,328.7044 L272.9652,329.0656 L270.2142,329.175 L267.5433,329.9767 L264.8328,330.4358 L262.0679,330.425 L262.098,330.657 L259.2891,331.0963 L256.4231,331.0948 L253.6174,331.5585 L250.7717,331.7143 L247.9753,332.2501 L247.9933,332.3751 L245.071,332.7789 L242.1703,333.3335 L239.2009,333.4096 L236.2869,333.8717 L233.3754,334.351 L233.4063,334.5456 L230.3834,335.0811 L227.2766,335.0881 L224.2673,335.7091 L221.2596,336.3408 L218.2177,336.7563 L218.1712,336.4889 L215.0914,337.4588 L211.9309,337.9648 L208.7504,338.3555 L205.6157,339.0096 L202.4517,339.4951 L202.5118,339.8133 L199.141,339.9786 L195.9078,340.873 L192.6205,341.4804 L189.3215,342.0264 L186.0271,342.596 L186.0396,342.6574 L182.6104,343.3439 L179.1182,343.721 L175.7112,344.5167 L172.2791,345.1887 L168.8933,346.0881 L168.8994,346.1158 L165.323,346.9087 L161.7513,347.7231 L158.1297,348.3089 L154.5722,349.1883 L151,350 L150.9879,349.948 L150.2317,350.4426 L149.3899,350.5705 L148.4711,350.3687 L147.6862,350.7402 L146.867,350.9647 " fill="none" style="stroke: #A9A9A9; stroke-width: 2.0;"/><polygon fill="#A9A9A9" points="134.266,354.2388,134.2774,354.3079,136.1868,354.4241,138.1632,354.9454,140.1178,355.3348,142.0006,355.2902,143.9828,355.8464,143.9697,355.824,142.9353,355.1507,141.967,354.59,141.0447,354.1076,139.964,353.3555,139.1052,352.9811,139.2644,353.0746,139.4971,351.8992,140.1945,350.9967,140.9485,350.1275,141.3728,349.0646,141.9705,348.1036,141.9847,348.1214,140.423,349.3223,138.9258,350.6042,137.3974,351.8471,135.9285,353.1645,134.266,354.2388" style="stroke: #A9A9A9; stroke-width: 2.0;"/><path d="M139.1052,352.9811 L139.1287,353.0715 L140.6076,352.4005 L142.2241,352.2596 L143.7959,351.946 L145.2201,351.0648 L146.8485,350.9694 " fill="#A9A9A9" style="stroke: #A9A9A9; stroke-width: 2.0;"/><polygon fill="#A9A9A9" points="614.648,284.867,614.6683,284.934,613.2277,284.3164,611.9063,284.0919,610.5461,283.7393,609.0582,282.9659,607.747,282.775,607.727,282.7586,606.7202,283.7977,605.8142,284.92,604.9783,286.0999,603.9009,287.0809,603.1617,288.3406,603.2153,288.5172,604.481,288.5579,605.903,289.1143,607.3441,289.7335,608.6742,289.9868,610.0627,290.4325,610.0803,290.447,610.9716,289.3127,611.9428,288.2442,612.8754,287.1439,613.8816,286.1042,614.648,284.867" style="stroke: #A9A9A9; stroke-width: 2.0;"/><!--link Solucion to Participantes--><path d="M602.518,288.268 L602.546,288.3571 L601.3593,288.4387 L600.3365,289.0428 L599.2604,289.4767 L598.0086,289.3511 L597,290 L596.9901,289.9669 L593.071,290.9819 L589.2019,292.1637 L585.3677,293.4614 L581.4135,294.3596 L577.6274,295.8174 L577.6955,296.0539 L573.9972,296.5715 L570.4977,297.7795 L567.0225,299.0718 L563.4061,299.8739 L559.864,300.9339 L559.872,300.9631 L556.5829,301.8215 L553.3304,302.813 L550.0603,303.7403 L546.8238,304.7901 L543.4774,305.4405 L543.5529,305.729 L540.5054,306.5301 L537.4092,307.1451 L534.3843,308.0325 L531.3627,308.9327 L528.2353,309.4283 L528.158,309.1173 L525.442,310.4331 L522.4715,310.7246 L519.6944,311.7948 L516.7181,312.0631 L513.9052,312.9887 L513.8982,312.959 L511.2508,313.9542 L508.44,314.2571 L505.7256,314.9686 L503.0194,315.7143 L500.2547,316.2126 L500.2947,316.3932 L495.0159,317.3715 L489.8056,318.6585 L484.4846,319.4461 L479.3286,320.9785 L474.0629,322.0157 L474.1133,322.2541 L468.8513,323.3192 L463.6144,324.5027 L458.2612,325.1363 L452.9932,326.173 L447.8007,327.5669 L447.743,327.2968 L442.1569,328.7469 L436.5058,329.8928 L430.949,331.48 L425.2311,332.3136 L419.609,333.5952 L419.5754,333.4465 L413.2353,335.1411 L406.7514,336.2 L400.3698,337.711 L394.0883,339.6643 L387.6285,340.8299 L387.6735,341.0182 L384.1059,342.0069 L380.3985,342.4098 L376.8662,343.5464 L373.2958,344.5232 L369.6365,345.1274 L369.5859,344.9237 L365.6989,346.0606 L361.7954,347.1308 L357.9243,348.3321 L353.9268,349.0237 L350,350 L350.0505,350.1993 L349.1067,349.9725 L348.2604,350.1304 L347.5566,350.8502 L346.5905,350.5354 L345.836,351.0554 " fill="none" style="stroke: #A9A9A9; stroke-width: 2.0;"/><polygon fill="#A9A9A9" points="333.083,354.3177,333.0947,354.3868,335.002,354.5105,336.978,355.0392,338.9316,355.4361,340.8117,355.3992,342.7935,355.9627,342.7803,355.9404,341.7477,355.2636,340.7818,354.6991,339.8621,354.2127,338.7828,353.4572,337.9271,353.0787,338.0858,353.1728,338.3231,351.9983,339.0239,351.0985,339.7813,350.2322,340.2097,349.1709,340.8111,348.2122,340.8252,348.2301,339.2589,349.425,337.7567,350.7011,336.2236,351.9381,334.7496,353.2498,333.083,354.3177" style="stroke: #A9A9A9; stroke-width: 2.0;"/><path d="M337.9271,353.0787 L337.9502,353.1692 L339.4315,352.5037 L341.0485,352.3687 L342.6213,352.061 L344.0488,351.1852 L345.6775,351.0958 " fill="#A9A9A9" style="stroke: #A9A9A9; stroke-width: 2.0;"/><polygon fill="#A9A9A9" points="614.862,284.128,614.8803,284.1956,613.4338,283.6179,612.0946,283.4366,610.7204,283.1262,609.2314,282.3912,607.9014,282.2439,607.8809,282.2281,606.9057,283.297,606.0338,284.4459,605.2336,285.6504,604.1862,286.6632,603.4851,287.9445,603.5333,288.1226,604.8223,288.1185,606.2521,288.6345,607.6991,289.2139,609.0461,289.4241,610.4457,289.8286,610.4637,289.8425,611.3205,288.6819,612.2593,287.5848,613.1585,286.457,614.1331,285.3877,614.862,284.128" style="stroke: #A9A9A9; stroke-width: 2.0;"/><!--link Solucion to Colaboracion--><path d="M605.902,296.431 L606.0334,296.6785 L596.7445,300.6664 L588.2258,306.1054 L579.4564,311.0719 L569.862,314.4844 L561.3609,319.9564 L552.2444,324.2691 L543.3728,329.0431 L534.6714,334.1379 L525.3833,338.1273 L516.917,343.6649 " fill="none" style="stroke: #A9A9A9; stroke-width: 2.0;"/><polygon fill="#A9A9A9" points="505.282,349.8409,505.2869,349.9108,507.2373,349.5657,509.2164,349.6304,511.1862,349.5616,513.1253,349.0541,515.1069,349.154,515.0993,349.1292,513.9835,348.6865,512.906,348.3687,511.8551,348.1377,510.7125,347.6076,509.6983,347.4965,509.8747,347.5505,509.8289,346.3532,510.2983,345.3137,510.8304,344.2935,510.9969,343.1612,511.3558,342.0879,511.3737,342.1019,510.1326,343.6319,508.9731,345.2258,507.7743,346.7889,506.6504,348.4107,505.282,349.8409" style="stroke: #A9A9A9; stroke-width: 2.0;"/><path d="M509.6983,347.4965 L509.7421,347.579 L511.0252,346.5837 L512.5651,346.0721 L514.0213,345.403 L515.2026,344.2159 L516.7645,343.7459 " fill="#A9A9A9" style="stroke: #A9A9A9; stroke-width: 2.0;"/><polygon fill="#A9A9A9" points="617.796,290.118,617.803,290.1877,616.3472,289.8366,614.9324,289.8942,613.5042,289.8187,612.0322,289.3056,610.6209,289.3982,610.5981,289.3859,609.811,290.6,609.1388,291.8761,608.5465,293.1953,607.6789,294.3659,607.1969,295.7446,607.2153,295.9282,608.6109,295.6795,610.0603,295.9669,611.5163,296.3197,612.9341,296.2919,614.372,296.4643,614.392,296.4751,615.0474,295.19,615.794,293.9541,616.4965,292.6944,617.283,291.48,617.796,290.118" style="stroke: #A9A9A9; stroke-width: 2.0;"/><!--link Solucion to Implementacion--><path d="M667,303.698 L667.0934,303.698 L666.8159,310.2688 L667.0859,316.8396 L667.1776,323.4104 L666.6829,329.9812 L667,336.552 " fill="none" style="stroke: #A9A9A9; stroke-width: 2.0;"/><polygon fill="#A9A9A9" points="667,349.9055,667.064,349.934,667.6738,348.0494,668.6589,346.3317,669.5217,344.5596,669.9827,342.6089,671,340.9055,670.9817,340.8872,670.0995,341.605,669.3096,342.4151,668.5839,343.2894,667.637,343.9425,667,344.9055,667.1305,345.036,666.0514,343.9569,665.3534,343.2589,664.7018,342.6073,663.7798,341.6853,663,340.9055,663.0208,340.9147,663.7903,342.7012,664.6544,344.5297,665.4728,346.3379,666.3784,348.1848,667,349.9055" style="stroke: #A9A9A9; stroke-width: 2.0;"/><path d="M667,344.9055 L667.0934,344.9055 L666.8159,343.3055 L667.0859,341.7055 L667.1776,340.1055 L666.6829,338.5055 L667,336.9055 " fill="#A9A9A9" style="stroke: #A9A9A9; stroke-width: 2.0;"/><polygon fill="#A9A9A9" points="667,290.259,667.0583,290.2979,666.0851,291.3824,665.4536,292.6947,664.7109,293.9329,663.6021,294.9271,663,296.259,662.9784,296.2446,663.6817,297.3801,664.4936,298.5881,665.3811,299.8464,666.0082,300.9312,667,302.259,667.1536,302.3614,667.6252,300.9425,668.5451,299.8224,669.5198,298.7389,670.1762,297.4431,671,296.259,671.0189,296.2716,670.1911,295.0531,669.4495,293.892,668.6663,292.7032,667.9624,291.5673,667,290.259" style="stroke: #A9A9A9; stroke-width: 2.0;"/><!--link Solucion to CodgioEjemplo--><path d="M731.118,294.558 L731.2386,294.811 L739.5347,298.184 L748.5377,303.04 L757.3105,307.4132 L765.3264,310.1981 L774.3455,315.088 L782.7998,318.7929 L791.4789,322.9693 L800.3142,327.4736 L808.6111,330.8482 L817.9798,336.4714 L825.955,339.1711 L834.971,344.0544 " fill="none" style="stroke: #A9A9A9; stroke-width: 2.0;"/><polygon fill="#A9A9A9" points="847.13,349.8492,847.1832,349.8948,845.7443,348.2628,844.6175,346.8979,843.3891,345.4461,841.8264,343.7083,840.7264,342.3663,840.702,342.3576,840.9704,343.3852,841.3619,344.4563,841.839,345.5578,842.0212,346.5547,842.6164,347.6981,842.678,347.872,841.4798,347.8781,840.4616,348.3919,839.4654,348.9678,838.3414,349.1831,837.2846,349.5881,837.2852,349.6108,839.2534,349.6297,841.2243,349.752,843.194,349.8244,845.1661,349.9921,847.13,349.8492" style="stroke: #A9A9A9; stroke-width: 2.0;"/><path d="M842.6164,347.6981 L842.6566,347.7824 L841.0928,346.8435 L839.7646,346.3989 L838.3597,345.7933 L836.7025,344.6583 L835.3945,344.2562 " fill="#A9A9A9" style="stroke: #A9A9A9; stroke-width: 2.0;"/><polygon fill="#A9A9A9" points="719.154,288.856,719.2142,288.8919,719.7745,290.0237,720.6875,291.3659,721.4857,292.6396,721.9062,293.6879,722.8495,295.0482,722.8458,295.0225,724.2567,294.7015,725.6862,294.5098,727.1286,294.4079,728.5264,293.9964,729.9867,294.0185,730.1452,294.1131,729.0672,292.6724,728.4519,291.5079,727.8931,290.377,727.0058,289.0501,726.2912,287.8264,726.2945,287.8489,724.8623,288.0217,723.4448,288.2971,722.0203,288.523,720.6093,288.8433,719.154,288.856" style="stroke: #A9A9A9; stroke-width: 2.0;"/><!--link Solucion to UsosConocidos--><path d="M731.455,288.359 L731.4815,288.4486 L732.5117,288.5106 L733.6974,289.0978 L734.8324,289.5139 L735.801,289.3678 L737,290 L736.9908,289.9667 L741.5654,291.0983 L746.1866,292.3976 L750.8401,293.8136 L755.3822,294.8276 L760.0804,296.4046 L760.1424,296.6427 L764.2457,297.2364 L768.53,298.5252 L772.8364,299.8989 L777.0144,300.7791 L781.2599,301.9189 L781.267,301.9483 L785.1672,302.8528 L789.0998,303.8915 L793.0168,304.8655 L796.9637,305.9629 L800.8131,306.6577 L800.8783,306.9487 L804.5194,307.768 L808.1185,308.3995 L811.7791,309.3058 L815.4426,310.225 L819.0147,310.7361 L818.95,310.4222 L822.5006,311.738 L825.838,312.0202 L829.3375,313.0882 L832.6701,313.3469 L836.1395,314.269 L836.1338,314.2391 L839.4656,315.2132 L842.6645,315.4886 L845.9418,316.1763 L849.2257,316.8987 L852.4621,317.3713 L852.4942,317.5535 L855.6208,317.9269 L858.8023,318.6117 L861.895,318.7927 L865.1201,319.7251 L868.2572,320.1579 L868.2972,320.3983 L871.3981,320.87 L874.5188,321.4611 L877.5473,321.4977 L880.6435,321.9408 L883.7995,322.7439 L883.7559,322.4712 L890.0804,323.724 L896.3557,324.6695 L902.7023,326.0607 L908.9272,326.691 L915.2245,327.7736 L915.1995,327.6232 L921.9831,328.9949 L928.6599,329.7237 L935.4127,330.9097 L942.2398,332.543 L948.9345,333.3798 L948.9688,333.5703 L952.672,334.3624 L956.2687,334.5617 L959.9988,335.5034 L963.6999,336.2834 L967.3332,336.6864 L967.2937,336.4802 L971.284,337.4037 L975.2613,338.2597 L979.2641,339.2483 L983.168,339.7211 L987.1272,340.4821 L987.1685,340.6835 L991.3706,341.1209 L995.6524,341.947 L1000.0506,343.3411 L1004.2344,343.6895 L1008.5912,344.8816 L1008.6396,345.1026 L1013.2926,345.995 L1017.9293,346.8126 L1022.6029,347.799 L1027.3618,349.1755 L1032,350 L1031.9706,349.8703 L1032.8882,350.4448 L1033.6057,350.1369 L1034.5507,350.8323 L1035.3676,350.9628 L1036.15,350.9411 " fill="none" style="stroke: #A9A9A9; stroke-width: 2.0;"/><polygon fill="#A9A9A9" points="1048.84,353.8839,1048.8821,353.9399,1047.1834,352.5886,1045.7318,351.5654,1044.1997,350.4354,1042.4031,348.954,1040.9726,347.959,1040.9507,347.9453,1041.4512,348.8434,1042.0626,349.8106,1042.7509,350.826,1043.1739,351.6756,1043.9686,352.7574,1044.0663,352.9139,1042.8976,353.1783,1042.0143,353.8998,1041.1658,354.677,1040.1147,355.1298,1039.1702,355.7533,1039.1745,355.7756,1041.1021,355.3689,1043.0494,355.064,1044.9872,354.7099,1046.9431,354.4495,1048.84,353.8839" style="stroke: #A9A9A9; stroke-width: 2.0;"/><path d="M1043.9686,352.7574 L1043.9897,352.8484 L1042.3682,352.2159 L1040.8706,352.1168 L1039.3326,351.8441 L1037.662,351.0001 L1036.175,350.9469 " fill="#A9A9A9" style="stroke: #A9A9A9; stroke-width: 2.0;"/><polygon fill="#A9A9A9" points="719.073,284.347,719.1279,284.3905,719.8597,285.3922,720.9135,286.6488,721.8624,287.8225,722.4664,288.7232,723.5479,290.0017,723.5409,289.9767,724.8975,289.4737,726.2896,289.0963,727.7062,288.8063,729.038,288.2152,730.4887,288.0459,730.6334,288.1604,729.429,286.7846,728.6471,285.7431,727.9167,284.7424,726.8864,283.5044,726.0138,282.3912,726.02,282.4131,724.6228,282.7721,723.2536,283.2308,721.8709,283.6414,720.5141,284.1438,719.073,284.347" style="stroke: #A9A9A9; stroke-width: 2.0;"/><!--link Solucion to PatronesRelacionados--><path d="M731.797,288.669 L731.8202,288.7595 L732.792,288.7568 L733.8995,289.2846 L734.9628,289.6397 L735.8808,289.4266 L737,290 L736.9921,289.9664 L740.9934,290.7661 L745.0347,291.7353 L749.1037,292.8224 L753.077,293.5034 L757.1843,294.7531 L757.238,294.9932 L760.9864,295.3424 L764.8913,296.3928 L768.8154,297.5286 L772.6283,298.1668 L776.4997,299.0667 L776.5059,299.0964 L780.1978,299.8327 L783.9181,300.7042 L787.6246,301.5104 L791.3574,302.441 L795.0047,302.9662 L795.0626,303.2588 L798.614,303.9645 L802.1281,304.4816 L805.6968,305.2748 L809.268,306.081 L812.7582,306.477 L812.7,306.1618 L816.225,307.4031 L819.5585,307.6064 L823.0375,308.5988 L826.3667,308.7786 L829.8187,309.6245 L829.8136,309.5945 L833.1595,310.5113 L836.3856,310.7269 L839.6824,311.3563 L842.9851,312.0204 L846.245,312.434 L846.2738,312.6167 L849.4149,312.9317 L852.6052,313.5588 L855.7159,313.6808 L858.9453,314.5564 L862.0958,314.9309 L862.1305,315.1721 L865.1907,315.5684 L868.2682,316.0845 L871.2655,316.0442 L874.3216,316.4118 L877.4297,317.1406 L877.3938,316.8668 L880.4015,317.5043 L883.3687,317.8332 L886.3945,318.6096 L889.3203,318.622 L892.3055,319.0885 L892.2876,318.9371 L895.2127,319.5316 L898.0613,319.4788 L900.9642,319.8863 L903.9205,320.7441 L906.7819,320.8 L906.8023,320.9925 L909.6434,321.4247 L912.421,321.2579 L915.2782,321.8413 L918.1181,322.2612 L920.9175,322.3004 L920.8976,322.0913 L923.6842,322.5209 L926.4642,322.882 L929.257,323.3776 L932.0002,323.3503 L934.771,323.6151 L934.7875,323.82 L940.1705,323.8045 L945.5853,324.1846 L951.0464,325.1425 L956.4221,325.0365 L961.8668,325.7889 L961.8815,326.0147 L967.2071,326.2277 L972.5278,326.3644 L977.8597,326.6735 L983.2175,327.381 L988.5386,327.5246 L988.5167,327.1261 L999.372,328.9064 L1010.0782,327.9764 L1020.954,330.128 L1031.7343,330.5446 L1042.4889,330.4936 L1042.4952,330.6023 L1048.1336,330.8425 L1053.7946,331.4718 L1059.4352,331.7495 L1065.0673,331.8802 L1070.7064,332.133 L1070.7145,332.2519 L1076.6368,332.4779 L1082.5967,333.256 L1088.5142,333.4097 L1094.4491,333.8202 L1100.3782,334.1463 L1100.3561,333.8769 L1106.6827,334.4849 L1113.0358,335.4176 L1119.3513,335.8909 L1125.6533,336.1996 L1131.974,336.7367 L1131.9605,336.5941 L1135.298,336.9548 L1138.6117,337.063 L1141.9909,337.8652 L1145.3377,338.3239 L1148.64,338.3117 L1148.6641,338.5444 L1152.1365,338.9779 L1155.563,338.9694 L1159.0379,339.4274 L1162.4808,339.5766 L1165.9631,340.107 L1165.9773,340.2325 L1169.5832,340.6242 L1173.2063,341.1674 L1176.775,341.2303 L1180.3875,341.6806 L1184.002,342.1482 L1184.026,342.3438 L1187.7954,342.8609 L1191.4995,342.847 L1195.2795,343.45 L1199.0607,344.0638 L1202.8153,344.4605 L1202.7796,344.1913 L1206.7653,345.1379 L1210.689,345.6177 L1214.5973,345.9814 L1218.5408,346.6102 L1222.4617,347.0693 L1222.5075,347.3899 L1226.5497,347.5178 L1230.6968,348.3802 L1234.8026,348.9534 L1238.8996,349.4648 L1243,350 L1243.0092,350.0619 L1243.7854,350.1658 L1244.5151,349.9575 L1245.3077,350.1716 L1246.0818,350.2608 L1246.89,350.5796 " fill="none" style="stroke: #A9A9A9; stroke-width: 2.0;"/><polygon fill="#A9A9A9" points="1259.81,352.5675,1259.8479,352.6264,1258.0786,351.3858,1256.5315,350.4906,1254.912,349.483,1253.0546,348.1054,1251.5265,347.2398,1251.5056,347.2245,1252.0803,348.0686,1252.7602,348.9899,1253.5135,349.9648,1254.0143,350.7549,1254.8687,351.8038,1254.9777,351.9527,1253.8317,352.3028,1253.0041,353.0875,1252.2153,353.9253,1251.2006,354.4545,1250.3047,355.146,1250.3106,355.1679,1252.2029,354.62,1254.1224,354.172,1256.0287,353.6758,1257.96,353.2716,1259.81,352.5675" style="stroke: #A9A9A9; stroke-width: 2.0;"/><path d="M1254.8687,351.8038 L1254.8828,351.8962 L1253.26,351.3791 L1251.7202,351.4034 L1250.1534,351.2513 L1248.4976,350.5197 L1246.965,350.5904 " fill="#A9A9A9" style="stroke: #A9A9A9; stroke-width: 2.0;"/><polygon fill="#A9A9A9" points="719.329,284.959,719.3829,285.0038,720.1447,285.9798,721.2224,287.2183,722.1972,288.3714,722.8338,289.2433,723.9386,290.5044,723.931,290.4797,725.2751,289.9441,726.6577,289.5334,728.067,289.2094,729.3842,288.5864,730.8304,288.3822,730.9723,288.5002,729.7469,287.1389,728.9358,286.1219,728.1753,285.147,727.1207,283.9276,726.2208,282.8368,726.2275,282.8586,724.8393,283.2511,723.4816,283.7426,722.1092,284.1863,720.7648,284.7212,719.329,284.959" style="stroke: #A9A9A9; stroke-width: 2.0;"/><!--
@startuml
skinparam backgroundColor #222222
skinparam handwritten true
hide circle
hide stereotype
skinparam shadowing false
skinparam padding 1
skinparam arrow {
    Thickness 2
    Color #DarkGrey
    FontSize 20
    FontName courier
    FontStyle normal
    FontColor #DarkGrey
}
skinparam class {
    BorderThickness 3
    BorderColor<<a>> #ff69b4
    BorderColor<<b>> #228B22
    BorderColor<<c>> #87ceeb
    BorderColor<<d>> #FFD700
    BorderColor<<e>> #DC143C
    BackgroundColor #222222
    FontSize 20
    FontName courier
    FontStyle bold
    FontColor<<a>> #ff69b4
    FontColor<<b>> #228B22
    FontColor<<c>> #87ceeb
    FontColor<<d>> #FFD700
    FontColor<<e>> #DC143C
}

abstract class "Patrón" as Patron <<a>>
abstract class "Elemento de Patrón" as ElementoPatron <<a>>
abstract class Nombre <<b>>
abstract class Problema <<c>>
abstract class "Solución" as Solucion <<d>>
abstract class Consecuencia <<e>>

Patron *-down-> ElementoPatron
ElementoPatron <|-down Nombre
ElementoPatron <|-down- Problema
ElementoPatron <|-down- Solucion
ElementoPatron <|-down- Consecuencia

class Estructura <<b>>
class Participantes <<b>>
class "Colaboraciones" as Colaboracion <<d>>
class "Implementación" as Implementacion <<d>>
class "Códgios de Ejemplo" as CodgioEjemplo <<d>>
class "Usos Conocidos" as UsosConocidos <<d>>
class "Patrones Relacionados" as PatronesRelacionados <<d>>

Solucion *-down-> Estructura
Solucion *-down-> Participantes
Solucion *-down-> Colaboracion
Solucion *-down-> Implementacion
Solucion *-down-> CodgioEjemplo
Solucion *-down-> UsosConocidos
Solucion *-down-> PatronesRelacionados
@enduml

PlantUML version 1.2019.05(Sat Apr 20 18:45:36 CEST 2019)
(GPL source distribution)
Java Runtime: Java(TM) SE Runtime Environment
JVM: Java HotSpot(TM) 64-Bit Server VM
Java Version: 11.0.8+10-LTS
Operating System: Windows 10
OS Version: 10.0
Default Encoding: windows-1252
Language: es
Country: ES
--></g></svg>