<?xml version="1.0" encoding="UTF-8" standalone="no"?><svg xmlns="http://www.w3.org/2000/svg" xmlns:xlink="http://www.w3.org/1999/xlink" contentScriptType="application/ecmascript" contentStyleType="text/css" height="239px" preserveAspectRatio="none" style="width:586px;height:239px;background:#222222;" version="1.1" viewBox="0 0 586 239" width="586px" zoomAndPan="magnify"><defs/><g><!--class Cliente--><polygon fill="#222222" points="6,60,6,60.2102,16.2222,59.5857,26.4444,60.1933,36.6667,60.3997,46.8889,59.2866,57.1111,59.9223,67.3333,59.5735,77.5556,59.6165,87.7778,59.9318,98,60,97.3086,60,98.5536,70.8227,97.3697,81.6453,97.8022,92.468,98.4319,103.2906,98,114.1133,98,114.0275,87.7778,114.1815,77.5556,114.0813,67.3333,114.2918,57.1111,114.3524,46.8889,114.699,36.6667,114.7843,26.4444,114.7925,16.2222,114.3679,6,114.1133,6.4636,114.1133,6.7022,103.2906,5.2788,92.468,6.6785,81.6453,5.7035,70.8227,6,60" style="stroke: #696969; stroke-width: 3.0;"/><text fill="#696969" font-family="courier" font-size="20" font-weight="bold" lengthAdjust="spacingAndGlyphs" textLength="84" x="10" y="86.1074">Cliente</text><path d="M7,98.1133 L7,98.3935 L17,97.5609 L27,98.371 L37,98.6462 L47,97.1621 L57,98.0097 L67,97.5446 L77,97.6019 L87,98.0224 L97,98.1133 " fill="#222222" style="stroke: #696969; stroke-width: 3.0;"/><path d="M7,106.1133 L7,106.3935 L17,105.5609 L27,106.371 L37,106.6462 L47,105.1621 L57,106.0097 L67,105.5446 L77,105.6019 L87,106.0224 L97,106.1133 " fill="#222222" style="stroke: #696969; stroke-width: 3.0;"/><!--entity Patron--><polygon fill="#222222" points="133,63,133,63.2102,142.8261,62.5857,152.6522,63.1933,162.4783,63.3997,172.3043,62.2866,182.1304,62.9223,191.9565,62.5735,201.7826,62.6165,211.6087,62.9318,221.4348,62.3086,231.2609,63.5536,241.087,62.3697,250.913,62.8022,260.7391,63.4319,270.5652,62.9142,280.3913,63.0682,290.2174,62.9681,300.0435,63.1785,309.8696,63.2391,319.6957,63.5857,329.5217,63.6711,339.3478,63.6793,349.1739,63.2546,359,63,359.4636,63,359.7022,72.6227,358.2788,82.2453,359.6785,91.868,358.7035,101.4906,359,111.1133,359,111.6471,349.1739,110.6183,339.3478,111.0448,329.5217,111.8549,319.6957,111.0645,309.8696,111.2186,300.0435,111.4519,290.2174,111.5295,280.3913,111.1094,270.5652,111.4005,260.7391,110.5409,250.913,111.3977,241.087,111.6615,231.2609,111.5578,221.4348,111.7263,211.6087,110.6302,201.7826,110.4611,191.9565,110.4919,182.1304,111.0544,172.3043,110.9168,162.4783,111.7947,152.6522,110.9386,142.8261,110.7702,133,111.1133,133.2283,111.1133,132.3332,101.4906,132.4809,91.868,133.649,82.2453,133.4357,72.6227,133,63" style="stroke: #FF69B4; stroke-width: 3.0;"/><text fill="#FF69B4" font-family="courier" font-size="20" font-weight="bold" lengthAdjust="spacingAndGlyphs" textLength="204" x="144" y="94.1074">Patrón Creacional</text><!--class Producto--><polygon fill="#222222" points="394,60,394,60.2102,404.4,59.5857,414.8,60.1933,425.2,60.3997,435.6,59.2866,446,59.9223,456.4,59.5735,466.8,59.6165,477.2,59.9318,487.6,59.3086,498,60,498.5536,60,497.3697,70.8227,497.8022,81.6453,498.4319,92.468,497.9142,103.2906,498,114.1133,498,114.1815,487.6,114.0813,477.2,114.2918,466.8,114.3524,456.4,114.699,446,114.7843,435.6,114.7925,425.2,114.3679,414.8,114.5769,404.4,114.8155,394,114.1133,393.2788,114.1133,394.6785,103.2906,393.7035,92.468,394.5338,81.6453,393.505,70.8227,394,60" style="stroke: #FFFFFF; stroke-width: 3.0;"/><text fill="#FFFFFF" font-family="courier" font-size="20" font-style="italic" font-weight="bold" lengthAdjust="spacingAndGlyphs" textLength="96" x="398" y="86.1074">Producto</text><path d="M395,98.1133 L395,98.3935 L405.2,97.5609 L415.4,98.371 L425.6,98.6462 L435.8,97.1621 L446,98.0097 L456.2,97.5446 L466.4,97.6019 L476.6,98.0224 L486.8,97.1915 L497,98.1133 " fill="#222222" style="stroke: #FFFFFF; stroke-width: 3.0;"/><path d="M395,106.1133 L395,106.3935 L405.2,105.5609 L415.4,106.371 L425.6,106.6462 L435.8,105.1621 L446,106.0097 L456.2,105.5446 L466.4,105.6019 L476.6,106.0224 L486.8,105.1915 L497,106.1133 " fill="#222222" style="stroke: #FFFFFF; stroke-width: 3.0;"/><!--class ProductoConcretoA--><polygon fill="#222222" points="116,174,116,174.2102,126.0952,173.5857,136.1905,174.1933,146.2857,174.3997,156.381,173.2866,166.4762,173.9223,176.5714,173.5735,186.6667,173.6165,196.7619,173.9318,206.8571,173.3086,216.9524,174.5536,227.0476,173.3697,237.1429,173.8022,247.2381,174.4319,257.3333,173.9142,267.4286,174.0682,277.5238,173.9681,287.619,174.1785,297.7143,174.2391,307.8095,174.5857,317.9048,174.6711,328,174,328.6793,174,328.2546,184.8227,328.4636,195.6453,328.7022,206.468,327.2788,217.2906,328,228.1133,328,228.7918,317.9048,227.8168,307.8095,228.6471,297.7143,227.6183,287.619,228.0448,277.5238,228.8549,267.4286,228.0645,257.3333,228.2186,247.2381,228.4519,237.1429,228.5295,227.0476,228.1094,216.9524,228.4005,206.8571,227.5409,196.7619,228.3977,186.6667,228.6615,176.5714,228.5578,166.4762,228.7263,156.381,227.6302,146.2857,227.4611,136.1905,227.4919,126.0952,228.0544,116,228.1133,115.8035,228.1133,116.6814,217.2906,115.8253,206.468,115.6569,195.6453,116.2283,184.8227,116,174" style="stroke: #FFFFFF; stroke-width: 3.0;"/><text fill="#FFFFFF" font-family="courier" font-size="20" font-weight="bold" lengthAdjust="spacingAndGlyphs" textLength="204" x="120" y="200.1074">ProductoConcretoA</text><path d="M117,212.1133 L117,212.3935 L127,211.5609 L137,212.371 L147,212.6462 L157,211.1621 L167,212.0097 L177,211.5446 L187,211.6019 L197,212.0224 L207,211.1915 L217,212.8515 L227,211.2729 L237,211.8496 L247,212.6892 L257,211.9989 L267,212.2043 L277,212.0707 L287,212.3513 L297,212.4321 L307,212.8942 L317,213.008 L327,212.1133 " fill="#222222" style="stroke: #FFFFFF; stroke-width: 3.0;"/><path d="M117,220.1133 L117,220.3935 L127,219.5609 L137,220.371 L147,220.6462 L157,219.1621 L167,220.0097 L177,219.5446 L187,219.6019 L197,220.0224 L207,219.1915 L217,220.8515 L227,219.2729 L237,219.8496 L247,220.6892 L257,219.9989 L267,220.2043 L277,220.0707 L287,220.3513 L297,220.4321 L307,220.8942 L317,221.008 L327,220.1133 " fill="#222222" style="stroke: #FFFFFF; stroke-width: 3.0;"/><!--class ProductoConcretoB--><polygon fill="#222222" points="363,174,363,174.2102,373.0952,173.5857,383.1905,174.1933,393.2857,174.3997,403.381,173.2866,413.4762,173.9223,423.5714,173.5735,433.6667,173.6165,443.7619,173.9318,453.8571,173.3086,463.9524,174.5536,474.0476,173.3697,484.1429,173.8022,494.2381,174.4319,504.3333,173.9142,514.4286,174.0682,524.5238,173.9681,534.619,174.1785,544.7143,174.2391,554.8095,174.5857,564.9048,174.6711,575,174,575.6793,174,575.2546,184.8227,575.4636,195.6453,575.7022,206.468,574.2788,217.2906,575,228.1133,575,228.7918,564.9048,227.8168,554.8095,228.6471,544.7143,227.6183,534.619,228.0448,524.5238,228.8549,514.4286,228.0645,504.3333,228.2186,494.2381,228.4519,484.1429,228.5295,474.0476,228.1094,463.9524,228.4005,453.8571,227.5409,443.7619,228.3977,433.6667,228.6615,423.5714,228.5578,413.4762,228.7263,403.381,227.6302,393.2857,227.4611,383.1905,227.4919,373.0952,228.0544,363,228.1133,362.8035,228.1133,363.6814,217.2906,362.8253,206.468,362.6569,195.6453,363.2283,184.8227,363,174" style="stroke: #FFFFFF; stroke-width: 3.0;"/><text fill="#FFFFFF" font-family="courier" font-size="20" font-weight="bold" lengthAdjust="spacingAndGlyphs" textLength="204" x="367" y="200.1074">ProductoConcretoB</text><path d="M364,212.1133 L364,212.3935 L374,211.5609 L384,212.371 L394,212.6462 L404,211.1621 L414,212.0097 L424,211.5446 L434,211.6019 L444,212.0224 L454,211.1915 L464,212.8515 L474,211.2729 L484,211.8496 L494,212.6892 L504,211.9989 L514,212.2043 L524,212.0707 L534,212.3513 L544,212.4321 L554,212.8942 L564,213.008 L574,212.1133 " fill="#222222" style="stroke: #FFFFFF; stroke-width: 3.0;"/><path d="M364,220.1133 L364,220.3935 L374,219.5609 L384,220.371 L394,220.6462 L404,219.1621 L414,220.0097 L424,219.5446 L434,219.6019 L444,220.0224 L454,219.1915 L464,220.8515 L474,219.2729 L484,219.8496 L494,220.6892 L504,219.9989 L514,220.2043 L524,220.0707 L534,220.3513 L544,220.4321 L554,220.8942 L564,221.008 L574,220.1133 " fill="#222222" style="stroke: #FFFFFF; stroke-width: 3.0;"/><!--link Cliente to Patron--><path d="M98.2266,87 L98.2266,87.0934 L104.1253,86.8159 L110.024,87.0859 L115.9226,87.1776 L121.8213,86.6829 L127.72,87 " fill="none" style="stroke: #A9A9A9; stroke-width: 2.0;"/><polygon fill="#A9A9A9" points="132.861,87,132.8895,87.064,131.0049,86.0738,129.2872,85.4589,127.5151,84.7217,125.5644,83.5827,123.861,83,123.8427,82.9817,124.5605,83.6995,125.3706,84.5096,126.2449,85.3839,126.898,86.037,127.861,87,127.9915,87.1305,126.9124,87.6514,126.2144,88.5534,125.5628,89.5018,124.6408,90.1798,123.861,91,123.8702,91.0208,125.6567,90.1903,127.4852,89.4544,129.2934,88.6728,131.1403,87.9784,132.861,87" style="stroke: #A9A9A9; stroke-width: 2.0;"/><!--link Cliente to Producto--><path d="M80.91,59.908 L80.9666,59.9823 L83.0897,58.0161 L85.5445,56.4855 L87.8914,54.8131 L89.8828,52.6741 L92.3662,51.1809 L92.3472,51.1521 L94.7868,49.3578 L97.3222,47.7088 L99.9243,46.1608 L102.2967,44.2647 L104.9908,42.8562 L105.1076,43.0728 L107.5541,41.1546 L110.3417,39.8686 L113.1709,38.6597 L115.758,37.0021 L118.4724,35.5804 L118.4837,35.6086 L121.2727,34.4512 L124.1128,33.422 L126.9283,32.3309 L129.7907,31.358 L132.5,30 L132.5881,30.2849 L136.0554,29.2165 L139.4658,27.9643 L142.9594,26.9811 L146.4569,26.0105 L149.8308,24.6404 L149.7424,24.3323 L153.1264,24.0079 L156.2192,22.669 L159.5334,22.1013 L162.6196,20.7394 L165.8926,20.0285 L165.885,19.9991 L168.9701,19.5734 L171.8772,18.4591 L174.8893,17.7511 L177.9102,17.0772 L180.8675,16.1573 L180.9078,16.3378 L183.6812,15.528 L186.5234,15.0268 L189.2542,14.0263 L192.1512,13.7704 L194.9377,13.0195 L194.981,13.2593 L197.6423,12.7317 L200.3251,12.3231 L202.908,11.3615 L205.5641,10.8052 L208.2851,10.6082 L208.249,10.3344 L210.8431,10.2439 L213.3965,9.8449 L216.009,9.8933 L218.5205,9.1777 L221.0921,8.9163 L221.0801,8.7643 L223.5897,8.8215 L226.0482,8.2289 L228.5431,8.0984 L231.0735,8.42 L233.5406,7.9366 L233.5449,8.1301 L236.0024,8.208 L238.4463,7.6838 L240.9071,7.9137 L243.3643,7.9793 L245.8129,7.662 L245.8056,7.4522 L248.267,7.7041 L250.726,7.8874 L253.1897,8.2056 L255.6353,7.9989 L258.091,8.0855 L258.1093,8.2903 L260.5623,8.0633 L263.0506,8.2315 L265.5906,8.9771 L268.0355,8.6597 L270.5571,9.2 L270.5884,9.424 L273.137,9.6506 L275.675,9.8014 L278.237,10.1233 L280.8543,10.8406 L283.3932,10.9983 L283.3691,10.8675 L286.1187,11.752 L288.7039,11.7468 L291.4762,12.7533 L294.1431,13.1901 L296.7816,13.4735 L296.8053,13.5797 L299.6108,14.1229 L302.5009,15.0466 L305.3146,15.6265 L308.0962,16.0628 L310.9044,16.6183 L310.9336,16.7338 L313.898,17.3237 L316.9982,18.45 L319.9448,18.9695 L322.9546,19.7386 L325.9436,20.4257 L325.8716,20.1651 L329.1232,21.1447 L332.4616,22.4382 L335.6772,23.2876 L338.8488,23.9777 L342.0814,24.8887 L342.0411,24.7513 L345.5378,25.8176 L348.963,26.6406 L352.5845,28.1323 L356.1088,29.2931 L359.5,30 L359.5808,30.2195 L362.3266,31.2914 L364.9188,31.9462 L367.6731,33.0411 L370.3201,33.8447 L373.0996,35.0079 L373.1551,35.1213 L375.7916,36.4021 L378.4952,37.8197 L380.986,38.8033 L383.6484,40.1369 L386.3185,41.4863 L386.419,41.6558 L388.9606,43.1939 L391.2292,44.2718 L393.8149,45.8843 L396.4061,47.5063 L398.8857,48.9399 L398.7328,48.7156 L401.303,50.6565 L403.608,52.2083 L405.8471,53.6634 L408.2367,55.3394 L410.53,56.874 " fill="none" style="stroke: #A9A9A9; stroke-width: 2.0; stroke-dasharray: 7.0,7.0;"/><polygon fill="#A9A9A9" points="414.615,59.88,414.6759,59.9147,413.5192,58.1005,412.7194,56.4897,411.8034,54.8127,410.5053,52.9178,409.7361,51.3245,409.7105,51.3206,409.7658,52.4216,409.9503,53.5422,410.2245,54.6765,410.1894,55.7638,410.5876,56.9169,410.6153,57.0994,409.4375,56.8795,408.3407,57.1924,407.2538,57.5702,406.1093,57.5699,404.9952,57.7684,405,57.7906,406.9168,58.1803,408.8559,58.6712,410.7842,59.1132,412.7329,59.6484,414.615,59.88" style="stroke: #A9A9A9; stroke-width: 2.0;"/><!--link Patron to Producto--><path d="M359.281,87 L359.281,87.0934 L365.1656,86.8159 L371.0502,87.0859 L376.9348,87.1776 L382.8194,86.6829 L388.704,87 " fill="none" style="stroke: #A9A9A9; stroke-width: 2.0; stroke-dasharray: 7.0,7.0;"/><polygon fill="#A9A9A9" points="393.833,87,393.8615,87.064,391.9769,86.0738,390.2592,85.4589,388.4871,84.7217,386.5364,83.5827,384.833,83,384.8147,82.9817,385.5325,83.6995,386.3426,84.5096,387.2169,85.3839,387.87,86.037,388.833,87,388.9635,87.1305,387.8844,87.6514,387.1864,88.5534,386.5348,89.5018,385.6128,90.1798,384.833,91,384.8422,91.0208,386.6287,90.1903,388.4572,89.4544,390.2654,88.6728,392.1123,87.9784,393.833,87" style="stroke: #A9A9A9; stroke-width: 2.0;"/><!--link Patron to ProductoConcretoA--><path d="M241.027,111.206 L241.301,111.2647 L238.4348,120.6668 L237.175,130.413 L235.3921,140.0472 L231.8889,149.3127 L230.6657,159.0668 L228.715,168.665 " fill="none" style="stroke: #A9A9A9; stroke-width: 2.0; stroke-dasharray: 7.0,7.0;"/><polygon fill="#A9A9A9" points="227.639,173.6835,227.6956,173.7247,228.6868,172.0098,230.01,170.5367,231.225,168.9848,232.0845,167.174,233.4362,165.7216,233.4222,165.6998,232.4091,166.2168,231.467,166.8434,230.5742,167.5463,229.5115,167.9864,228.6868,168.7945,228.8417,168.8948,227.8958,167.7305,227.4023,166.8589,226.9639,166.0231,226.2044,164.9795,225.6139,164.0451,225.6361,164.0498,226.0085,165.9706,226.4822,167.9127,226.907,169.8445,227.425,171.796,227.639,173.6835" style="stroke: #A9A9A9; stroke-width: 2.0;"/><!--link Patron to ProductoConcretoB--><path d="M291.935,111.071 L292.0608,111.3214 L300.9522,115.2306 L310.581,120.6079 L319.9696,125.5071 L328.5687,128.8342 L338.2143,134.2449 L347.2707,138.4826 L356.5616,143.1872 L366.0154,148.2162 L374.9077,152.1269 L384.9178,158.2637 L393.4745,161.5063 L402.9985,166.675 L412.382,171.5639 " fill="none" style="stroke: #A9A9A9; stroke-width: 2.0; stroke-dasharray: 7.0,7.0;"/><polygon fill="#A9A9A9" points="416.875,173.8208,416.9292,173.8652,415.5188,172.2104,414.426,170.816,413.2297,169.3369,411.6935,167.5787,410.6279,166.2067,410.6033,166.1986,410.8488,167.236,411.2182,168.3145,411.6738,169.4215,411.8324,170.4301,412.407,171.5766,412.465,171.7517,411.2669,171.7329,410.2383,172.2256,409.2303,172.7807,408.1021,172.9727,407.0371,173.3556,407.0382,173.3783,409.0042,173.438,410.9751,173.6011,412.9436,173.7143,414.9166,173.9228,416.875,173.8208" style="stroke: #A9A9A9; stroke-width: 2.0;"/><!--link Producto to ProductoConcretoA--><path d="M375.699,123.151 L375.8243,123.4017 L366.2355,127.2651 L357.3813,132.5979 L348.288,137.4522 L338.4078,140.7329 L329.5704,146.0992 L320.146,150.2914 L310.9551,154.9509 L301.9267,159.9351 L292.3387,163.8 L283.8646,169.893 L274.318,173.8409 " fill="none" style="stroke: #A9A9A9; stroke-width: 2.0;"/><polygon fill="none" points="372.746,116.801,372.7549,116.8705,376.9323,116.1274,381.1618,115.7917,385.3743,115.3234,389.5311,114.4187,393.765,114.118,393.7464,114.1,390.7114,117.06,387.7701,120.111,384.8939,123.2252,381.7932,126.1215,379.007,129.323,379.1721,129.4055,377.5669,126.7246,376.4436,124.2847,375.3792,121.8742,373.9726,119.2926,372.746,116.801" style="stroke: #A9A9A9; stroke-width: 2.0;"/><!--link Producto to ProductoConcretoB--><path d="M455.423,133.8855 L455.5145,133.9043 L456.8862,141.8525 L458.7943,149.9108 L460.5278,157.9332 L461.6868,165.8377 L463.641,173.9055 " fill="none" style="stroke: #A9A9A9; stroke-width: 2.0;"/><polygon fill="none" points="448.559,135.2583,448.6284,135.2677,448.9887,131.04,449.7561,126.8672,450.3908,122.6765,450.5897,118.4271,451.392,114.259,451.3698,114.2457,453.4462,117.8226,455.6347,121.4666,457.9011,125.1572,459.899,128.6871,462.273,132.4421,462.3101,132.6229,459.4879,132.7995,456.7741,133.504,454.0736,134.2729,451.296,134.6671,448.559,135.2583" style="stroke: #A9A9A9; stroke-width: 2.0;"/><!--
@startuml
skinparam packageStyle rect
allowmixing
skinparam backgroundColor #222222
skinparam handwritten true
hide circle
hide stereotype
skinparam shadowing false
skinparam padding 1
skinparam arrow {
    Thickness 2
    Color #DarkGrey
    FontSize 20
    FontName courier
    FontStyle normal
    FontColor #DarkGrey
}
skinparam class {
    BorderThickness 3
    BorderColor<<a>> #696969
    BorderColor<<b>> #FFFFFF
    BackgroundColor #222222
    FontSize 20
    FontName courier
    FontStyle bold
    FontColor<<a>> #696969
    FontColor<<b>> #FFFFFF
}
skinparam rectangle {
    BorderThickness 3
    BorderColor #ff69b4
    BackgroundColor #222222
    FontSize 20
    FontName courier
    FontStyle bold
    FontColor<<b>> #ff69b4
}
skinparam classAttribute {
    FontSize 15
    FontName courier
    FontStyle normal
    FontColor #DarkGrey
}
skinparam note {
    BorderThickness 3
    BorderColor #DarkGrey
    BackgroundColor #222222
    FontSize 20
    FontName courier
    FontStyle normal
    FontColor #DarkGrey
}

class Cliente <<a>>
rectangle "Patrón Creacional" as Patron <<b>>
abstract class Producto <<b>>
class ProductoConcretoA <<b>>
class ProductoConcretoB <<b>>

Cliente -right-> Patron
Cliente .right.> Producto

Patron .right.> Producto
Patron .right.> ProductoConcretoA
Patron .right.> ProductoConcretoB

Producto <|-down- ProductoConcretoA
Producto <|-down- ProductoConcretoB
@enduml

PlantUML version 1.2019.05(Sat Apr 20 18:45:36 CEST 2019)
(GPL source distribution)
Java Runtime: Java(TM) SE Runtime Environment
JVM: Java HotSpot(TM) 64-Bit Server VM
Java Version: 11.0.8+10-LTS
Operating System: Windows 10
OS Version: 10.0
Default Encoding: windows-1252
Language: es
Country: ES
--></g></svg>