<?xml version="1.0" encoding="UTF-8" standalone="no"?><svg xmlns="http://www.w3.org/2000/svg" xmlns:xlink="http://www.w3.org/1999/xlink" contentScriptType="application/ecmascript" contentStyleType="text/css" height="363px" preserveAspectRatio="none" style="width:1559px;height:363px;background:#222222;" version="1.1" viewBox="0 0 1559 363" width="1559px" zoomAndPan="magnify"><defs/><g><!--class Patron--><polygon fill="#222222" points="815,8,815,8.2102,825,7.5857,835,8.1933,845,8.3997,855,7.2866,865,7.9223,875,7.5735,885,7.6165,895,8,894.9318,8,894.3086,18.8227,895.5536,29.6453,894.3697,40.468,894.8022,51.2906,895,62.1133,895,62.5452,885,62.0275,875,62.1815,865,62.0813,855,62.2918,845,62.3524,835,62.699,825,62.7843,815,62.1133,815.6793,62.1133,815.2546,51.2906,815.4636,40.468,815.7022,29.6453,814.2788,18.8227,815,8" style="stroke: #FF69B4; stroke-width: 3.0;"/><text fill="#FF69B4" font-family="courier" font-size="20" font-style="italic" font-weight="bold" lengthAdjust="spacingAndGlyphs" textLength="72" x="819" y="34.1074">Patrón</text><path d="M816,46.1133 L816,46.3935 L825.75,45.5609 L835.5,46.371 L845.25,46.6462 L855,45.1621 L864.75,46.0097 L874.5,45.5446 L884.25,45.6019 L894,46.1133 " fill="#222222" style="stroke: #FF69B4; stroke-width: 3.0;"/><path d="M816,54.1133 L816,54.3935 L825.75,53.5609 L835.5,54.371 L845.25,54.6462 L855,53.1621 L864.75,54.0097 L874.5,53.5446 L884.25,53.6019 L894,54.1133 " fill="#222222" style="stroke: #FF69B4; stroke-width: 3.0;"/><!--class PatronComportamiento--><polygon fill="#222222" points="761,127,761,127.2102,770.8947,126.5857,780.7895,127.1933,790.6842,127.3997,800.5789,126.2866,810.4737,126.9223,820.3684,126.5735,830.2632,126.6165,840.1579,126.9318,850.0526,126.3086,859.9474,127.5536,869.8421,126.3697,879.7368,126.8022,889.6316,127.4319,899.5263,126.9142,909.4211,127.0682,919.3158,126.9681,929.2105,127.1785,939.1053,127.2391,949,127,949.5857,127,949.6711,137.0283,949.6793,147.0566,949.2546,157.085,949.4636,167.1133,949.7022,177.1416,948.2788,187.1699,949.6785,197.1982,949,207.2266,949,206.9301,939.1053,207.7604,929.2105,206.7315,919.3158,207.1581,909.4211,207.9682,899.5263,207.1778,889.6316,207.3319,879.7368,207.5652,869.8421,207.6428,859.9474,207.2227,850.0526,207.5138,840.1579,206.6541,830.2632,207.5109,820.3684,207.7748,810.4737,207.6711,800.5789,207.8396,790.6842,206.7435,780.7895,206.5744,770.8947,206.6052,761,207.2266,760.9411,207.2266,760.8035,197.1982,761.6814,187.1699,760.8253,177.1416,760.6569,167.1133,761.2283,157.085,760.3332,147.0566,760.4809,137.0283,761,127" style="stroke: #FF69B4; stroke-width: 3.0;"/><text fill="#FF69B4" font-family="courier" font-size="20" font-style="italic" font-weight="bold" lengthAdjust="spacingAndGlyphs" textLength="108" x="801" y="153.1074">Patrón de</text><text fill="#FF69B4" font-family="courier" font-size="20" font-style="italic" font-weight="bold" lengthAdjust="spacingAndGlyphs" textLength="168" x="777" y="179.2207">Comportamiento</text><path d="M762,191.2266 L762,191.5068 L771.7895,190.6741 L781.5789,191.4843 L791.3684,191.7595 L801.1579,190.2754 L810.9474,191.1229 L820.7368,190.6579 L830.5263,190.7152 L840.3158,191.1357 L850.1053,190.3047 L859.8947,191.9648 L869.6842,190.3862 L879.4737,190.9629 L889.2632,191.8025 L899.0526,191.1122 L908.8421,191.3175 L918.6316,191.184 L928.4211,191.4646 L938.2105,191.5454 L948,191.2266 " fill="#222222" style="stroke: #FF69B4; stroke-width: 3.0;"/><path d="M762,199.2266 L762,199.5068 L771.7895,198.6741 L781.5789,199.4843 L791.3684,199.7595 L801.1579,198.2754 L810.9474,199.1229 L820.7368,198.6579 L830.5263,198.7152 L840.3158,199.1357 L850.1053,198.3047 L859.8947,199.9648 L869.6842,198.3862 L879.4737,198.9629 L889.2632,199.8025 L899.0526,199.1122 L908.8421,199.3175 L918.6316,199.184 L928.4211,199.4646 L938.2105,199.5454 L948,199.2266 " fill="#222222" style="stroke: #FF69B4; stroke-width: 3.0;"/><path d="M984.5,122 L984.5,163 L949.13,167 L984.5,171 L984.5,212.3398 A0,0 0 0 0 984.5,212.3398 L1439.5,212.3398 A0,0 0 0 0 1439.5,212.3398 L1439.5,132 L1429.5,122 L984.5,122 A0,0 0 0 0 984.5,122 " fill="#222222" style="stroke: #A9A9A9; stroke-width: 3.0;"/><path d="M1429.5,122 L1429.6868,122 L1429.1317,124 L1429.6718,126 L1429.8553,128 L1428.8659,130 L1429.5,132 L1429.5,131.9309 L1431.5,131.6209 L1433.5,131.6591 L1435.5,131.9394 L1437.5,131.3854 L1439.5,132 L1439.848,132.348 L1437.1038,129.6038 L1435.3757,127.8757 L1433.7715,126.2715 L1431.4461,123.9461 L1429.5,122 " fill="#222222" style="stroke: #A9A9A9; stroke-width: 3.0;"/><text fill="#A9A9A9" font-family="courier" font-size="20" lengthAdjust="spacingAndGlyphs" textLength="12" x="991.5" y="148.1074">+</text><text fill="#A9A9A9" font-family="courier" font-size="20" font-weight="bold" lengthAdjust="spacingAndGlyphs" textLength="408" x="1015.5" y="148.1074">composición interaccones complejas</text><text fill="#A9A9A9" font-family="courier" font-size="20" lengthAdjust="spacingAndGlyphs" textLength="12" x="991.5" y="174.2207">+</text><text fill="#A9A9A9" font-family="courier" font-size="20" font-weight="bold" lengthAdjust="spacingAndGlyphs" textLength="252" x="1015.5" y="174.2207">(algoritmos/procesos)</text><text fill="#A9A9A9" font-family="courier" font-size="20" lengthAdjust="spacingAndGlyphs" textLength="12" x="991.5" y="200.334">+</text><text fill="#FF0000" font-family="courier" font-size="20" font-weight="bold" lengthAdjust="spacingAndGlyphs" textLength="240" x="1015.5" y="200.334">CC II MM O! SS en TV</text><!--class ChainOfResponsability--><polygon fill="#222222" points="6,272,6,272.2102,15.8947,271.5857,25.7895,272.1933,35.6842,272.3997,45.5789,271.2866,55.4737,271.9223,65.3684,271.5735,75.2632,271.6165,85.1579,271.9318,95.0526,271.3086,104.9474,272.5536,114.8421,271.3697,124.7368,271.8022,134.6316,272.4319,144.5263,271.9142,154.4211,272.0682,164.3158,271.9681,174.2105,272.1785,184.1053,272.2391,194,272,194.5857,272,194.6711,282.0283,194.6793,292.0566,194.2546,302.085,194.4636,312.1133,194.7022,322.1416,193.2788,332.1699,194.6785,342.1982,194,352.2266,194,351.9301,184.1053,352.7604,174.2105,351.7315,164.3158,352.1581,154.4211,352.9682,144.5263,352.1778,134.6316,352.3319,124.7368,352.5652,114.8421,352.6428,104.9474,352.2227,95.0526,352.5138,85.1579,351.6541,75.2632,352.5109,65.3684,352.7748,55.4737,352.6711,45.5789,352.8396,35.6842,351.7435,25.7895,351.5744,15.8947,351.6052,6,352.2266,5.9411,352.2266,5.8035,342.1982,6.6814,332.1699,5.8253,322.1416,5.6569,312.1133,6.2283,302.085,5.3332,292.0566,5.4809,282.0283,6,272" style="stroke: #FF69B4; stroke-width: 3.0;"/><text fill="#FF69B4" font-family="courier" font-size="20" font-weight="bold" lengthAdjust="spacingAndGlyphs" textLength="96" x="52" y="298.1074">Chain of</text><text fill="#FF69B4" font-family="courier" font-size="20" font-weight="bold" lengthAdjust="spacingAndGlyphs" textLength="168" x="22" y="324.2207">Responsability</text><path d="M7,336.2266 L7,336.5068 L16.7895,335.6741 L26.5789,336.4843 L36.3684,336.7595 L46.1579,335.2754 L55.9474,336.1229 L65.7368,335.6579 L75.5263,335.7152 L85.3158,336.1357 L95.1053,335.3047 L104.8947,336.9648 L114.6842,335.3862 L124.4737,335.9629 L134.2632,336.8025 L144.0526,336.1122 L153.8421,336.3175 L163.6316,336.184 L173.4211,336.4646 L183.2105,336.5454 L193,336.2266 " fill="#222222" style="stroke: #FF69B4; stroke-width: 3.0;"/><path d="M7,344.2266 L7,344.5068 L16.7895,343.6741 L26.5789,344.4843 L36.3684,344.7595 L46.1579,343.2754 L55.9474,344.1229 L65.7368,343.6579 L75.5263,343.7152 L85.3158,344.1357 L95.1053,343.3047 L104.8947,344.9648 L114.6842,343.3862 L124.4737,343.9629 L134.2632,344.8025 L144.0526,344.1122 L153.8421,344.3175 L163.6316,344.184 L173.4211,344.4646 L183.2105,344.5454 L193,344.2266 " fill="#222222" style="stroke: #FF69B4; stroke-width: 3.0;"/><!--class Command--><polygon fill="#222222" points="229,285,229,285.2102,239.2222,284.5857,249.4444,285.1933,259.6667,285.3997,269.8889,284.2866,280.1111,284.9223,290.3333,284.5735,300.5556,284.6165,310.7778,284.9318,321,285,320.3086,285,321.5536,295.8227,320.3697,306.6453,320.8022,317.468,321.4319,328.2906,321,339.1133,321,339.0275,310.7778,339.1815,300.5556,339.0813,290.3333,339.2918,280.1111,339.3524,269.8889,339.699,259.6667,339.7843,249.4444,339.7925,239.2222,339.3679,229,339.1133,229.4636,339.1133,229.7022,328.2906,228.2788,317.468,229.6785,306.6453,228.7035,295.8227,229,285" style="stroke: #FF69B4; stroke-width: 3.0;"/><text fill="#FF69B4" font-family="courier" font-size="20" font-weight="bold" lengthAdjust="spacingAndGlyphs" textLength="84" x="233" y="311.1074">Command</text><path d="M230,323.1133 L230,323.3935 L240,322.5609 L250,323.371 L260,323.6462 L270,322.1621 L280,323.0097 L290,322.5446 L300,322.6019 L310,323.0224 L320,323.1133 " fill="#222222" style="stroke: #FF69B4; stroke-width: 3.0;"/><path d="M230,331.1133 L230,331.3935 L240,330.5609 L250,331.371 L260,331.6462 L270,330.1621 L280,331.0097 L290,330.5446 L300,330.6019 L310,331.0224 L320,331.1133 " fill="#222222" style="stroke: #FF69B4; stroke-width: 3.0;"/><!--class Interpreter--><polygon fill="#222222" points="356,285,356,285.2102,366,284.5857,376,285.1933,386,285.3997,396,284.2866,406,284.9223,416,284.5735,426,284.6165,436,284.9318,446,284.3086,456,285.5536,466,284.3697,476,284.8022,486,285.4319,496,285,495.9142,285,496.0682,295.8227,495.9681,306.6453,496.1785,317.468,496.2391,328.2906,496,339.1133,496,339.699,486,339.7843,476,339.7925,466,339.3679,456,339.5769,446,339.8155,436,338.3921,426,339.7918,416,338.8168,406,339.6471,396,338.6183,386,339.0448,376,339.8549,366,339.0645,356,339.1133,356.1053,339.1133,356.3386,328.2906,356.4162,317.468,355.9961,306.6453,356.2872,295.8227,356,285" style="stroke: #FF69B4; stroke-width: 3.0;"/><text fill="#FF69B4" font-family="courier" font-size="20" font-weight="bold" lengthAdjust="spacingAndGlyphs" textLength="132" x="360" y="311.1074">Interpreter</text><path d="M357,323.1133 L357,323.3935 L366.8571,322.5609 L376.7143,323.371 L386.5714,323.6462 L396.4286,322.1621 L406.2857,323.0097 L416.1429,322.5446 L426,322.6019 L435.8571,323.0224 L445.7143,322.1915 L455.5714,323.8515 L465.4286,322.2729 L475.2857,322.8496 L485.1429,323.6892 L495,323.1133 " fill="#222222" style="stroke: #FF69B4; stroke-width: 3.0;"/><path d="M357,331.1133 L357,331.3935 L366.8571,330.5609 L376.7143,331.371 L386.5714,331.6462 L396.4286,330.1621 L406.2857,331.0097 L416.1429,330.5446 L426,330.6019 L435.8571,331.0224 L445.7143,330.1915 L455.5714,331.8515 L465.4286,330.2729 L475.2857,330.8496 L485.1429,331.6892 L495,331.1133 " fill="#222222" style="stroke: #FF69B4; stroke-width: 3.0;"/><!--class Iterator--><polygon fill="#222222" points="531,285,531,285.2102,541.4,284.5857,551.8,285.1933,562.2,285.3997,572.6,284.2866,583,284.9223,593.4,284.5735,603.8,284.6165,614.2,284.9318,624.6,284.3086,635,285,635.5536,285,634.3697,295.8227,634.8022,306.6453,635.4319,317.468,634.9142,328.2906,635,339.1133,635,339.1815,624.6,339.0813,614.2,339.2918,603.8,339.3524,593.4,339.699,583,339.7843,572.6,339.7925,562.2,339.3679,551.8,339.5769,541.4,339.8155,531,339.1133,530.2788,339.1133,531.6785,328.2906,530.7035,317.468,531.5338,306.6453,530.505,295.8227,531,285" style="stroke: #FF69B4; stroke-width: 3.0;"/><text fill="#FF69B4" font-family="courier" font-size="20" font-weight="bold" lengthAdjust="spacingAndGlyphs" textLength="96" x="535" y="311.1074">Iterator</text><path d="M532,323.1133 L532,323.3935 L542.2,322.5609 L552.4,323.371 L562.6,323.6462 L572.8,322.1621 L583,323.0097 L593.2,322.5446 L603.4,322.6019 L613.6,323.0224 L623.8,322.1915 L634,323.1133 " fill="#222222" style="stroke: #FF69B4; stroke-width: 3.0;"/><path d="M532,331.1133 L532,331.3935 L542.2,330.5609 L552.4,331.371 L562.6,331.6462 L572.8,330.1621 L583,331.0097 L593.2,330.5446 L603.4,330.6019 L613.6,331.0224 L623.8,330.1915 L634,331.1133 " fill="#222222" style="stroke: #FF69B4; stroke-width: 3.0;"/><!--class Mediator--><polygon fill="#222222" points="670,285,670,285.2102,680.4,284.5857,690.8,285.1933,701.2,285.3997,711.6,284.2866,722,284.9223,732.4,284.5735,742.8,284.6165,753.2,284.9318,763.6,284.3086,774,285,774.5536,285,773.3697,295.8227,773.8022,306.6453,774.4319,317.468,773.9142,328.2906,774,339.1133,774,339.1815,763.6,339.0813,753.2,339.2918,742.8,339.3524,732.4,339.699,722,339.7843,711.6,339.7925,701.2,339.3679,690.8,339.5769,680.4,339.8155,670,339.1133,669.2788,339.1133,670.6785,328.2906,669.7035,317.468,670.5338,306.6453,669.505,295.8227,670,285" style="stroke: #FF69B4; stroke-width: 3.0;"/><text fill="#FF69B4" font-family="courier" font-size="20" font-weight="bold" lengthAdjust="spacingAndGlyphs" textLength="96" x="674" y="311.1074">Mediator</text><path d="M671,323.1133 L671,323.3935 L681.2,322.5609 L691.4,323.371 L701.6,323.6462 L711.8,322.1621 L722,323.0097 L732.2,322.5446 L742.4,322.6019 L752.6,323.0224 L762.8,322.1915 L773,323.1133 " fill="#222222" style="stroke: #FF69B4; stroke-width: 3.0;"/><path d="M671,331.1133 L671,331.3935 L681.2,330.5609 L691.4,331.371 L701.6,331.6462 L711.8,330.1621 L722,331.0097 L732.2,330.5446 L742.4,330.6019 L752.6,331.0224 L762.8,330.1915 L773,331.1133 " fill="#222222" style="stroke: #FF69B4; stroke-width: 3.0;"/><!--class Mememto--><polygon fill="#222222" points="809,285,809,285.2102,819.2222,284.5857,829.4444,285.1933,839.6667,285.3997,849.8889,284.2866,860.1111,284.9223,870.3333,284.5735,880.5556,284.6165,890.7778,284.9318,901,285,900.3086,285,901.5536,295.8227,900.3697,306.6453,900.8022,317.468,901.4319,328.2906,901,339.1133,901,339.0275,890.7778,339.1815,880.5556,339.0813,870.3333,339.2918,860.1111,339.3524,849.8889,339.699,839.6667,339.7843,829.4444,339.7925,819.2222,339.3679,809,339.1133,809.4636,339.1133,809.7022,328.2906,808.2788,317.468,809.6785,306.6453,808.7035,295.8227,809,285" style="stroke: #FF69B4; stroke-width: 3.0;"/><text fill="#FF69B4" font-family="courier" font-size="20" font-weight="bold" lengthAdjust="spacingAndGlyphs" textLength="84" x="813" y="311.1074">Mememto</text><path d="M810,323.1133 L810,323.3935 L820,322.5609 L830,323.371 L840,323.6462 L850,322.1621 L860,323.0097 L870,322.5446 L880,322.6019 L890,323.0224 L900,323.1133 " fill="#222222" style="stroke: #FF69B4; stroke-width: 3.0;"/><path d="M810,331.1133 L810,331.3935 L820,330.5609 L830,331.371 L840,331.6462 L850,330.1621 L860,331.0097 L870,330.5446 L880,330.6019 L890,331.0224 L900,331.1133 " fill="#222222" style="stroke: #FF69B4; stroke-width: 3.0;"/><!--class Observer--><polygon fill="#222222" points="936,285,936,285.2102,946.4,284.5857,956.8,285.1933,967.2,285.3997,977.6,284.2866,988,284.9223,998.4,284.5735,1008.8,284.6165,1019.2,284.9318,1029.6,284.3086,1040,285,1040.5536,285,1039.3697,295.8227,1039.8022,306.6453,1040.4319,317.468,1039.9142,328.2906,1040,339.1133,1040,339.1815,1029.6,339.0813,1019.2,339.2918,1008.8,339.3524,998.4,339.699,988,339.7843,977.6,339.7925,967.2,339.3679,956.8,339.5769,946.4,339.8155,936,339.1133,935.2788,339.1133,936.6785,328.2906,935.7035,317.468,936.5338,306.6453,935.505,295.8227,936,285" style="stroke: #FF69B4; stroke-width: 3.0;"/><text fill="#FF69B4" font-family="courier" font-size="20" font-weight="bold" lengthAdjust="spacingAndGlyphs" textLength="96" x="940" y="311.1074">Observer</text><path d="M937,323.1133 L937,323.3935 L947.2,322.5609 L957.4,323.371 L967.6,323.6462 L977.8,322.1621 L988,323.0097 L998.2,322.5446 L1008.4,322.6019 L1018.6,323.0224 L1028.8,322.1915 L1039,323.1133 " fill="#222222" style="stroke: #FF69B4; stroke-width: 3.0;"/><path d="M937,331.1133 L937,331.3935 L947.2,330.5609 L957.4,331.371 L967.6,331.6462 L977.8,330.1621 L988,331.0097 L998.2,330.5446 L1008.4,330.6019 L1018.6,331.0224 L1028.8,330.1915 L1039,331.1133 " fill="#222222" style="stroke: #FF69B4; stroke-width: 3.0;"/><!--class State--><polygon fill="#222222" points="1075,285,1075,285.2102,1084.7143,284.5857,1094.4286,285.1933,1104.1429,285.3997,1113.8571,284.2866,1123.5714,284.9223,1133.2857,284.5735,1143,285,1142.6165,285,1142.9318,295.8227,1142.3086,306.6453,1143.5536,317.468,1142.3697,328.2906,1143,339.1133,1143,338.9155,1133.2857,339.5452,1123.5714,339.0275,1113.8571,339.1815,1104.1429,339.0813,1094.4286,339.2918,1084.7143,339.3524,1075,339.1133,1075.5857,339.1133,1075.6711,328.2906,1075.6793,317.468,1075.2546,306.6453,1075.4636,295.8227,1075,285" style="stroke: #FF69B4; stroke-width: 3.0;"/><text fill="#FF69B4" font-family="courier" font-size="20" font-weight="bold" lengthAdjust="spacingAndGlyphs" textLength="60" x="1079" y="311.1074">State</text><path d="M1076,323.1133 L1076,323.3935 L1085.4286,322.5609 L1094.8571,323.371 L1104.2857,323.6462 L1113.7143,322.1621 L1123.1429,323.0097 L1132.5714,322.5446 L1142,323.1133 " fill="#222222" style="stroke: #FF69B4; stroke-width: 3.0;"/><path d="M1076,331.1133 L1076,331.3935 L1085.4286,330.5609 L1094.8571,331.371 L1104.2857,331.6462 L1113.7143,330.1621 L1123.1429,331.0097 L1132.5714,330.5446 L1142,331.1133 " fill="#222222" style="stroke: #FF69B4; stroke-width: 3.0;"/><!--class Strategy--><polygon fill="#222222" points="1178,285,1178,285.2102,1188.4,284.5857,1198.8,285.1933,1209.2,285.3997,1219.6,284.2866,1230,284.9223,1240.4,284.5735,1250.8,284.6165,1261.2,284.9318,1271.6,284.3086,1282,285,1282.5536,285,1281.3697,295.8227,1281.8022,306.6453,1282.4319,317.468,1281.9142,328.2906,1282,339.1133,1282,339.1815,1271.6,339.0813,1261.2,339.2918,1250.8,339.3524,1240.4,339.699,1230,339.7843,1219.6,339.7925,1209.2,339.3679,1198.8,339.5769,1188.4,339.8155,1178,339.1133,1177.2788,339.1133,1178.6785,328.2906,1177.7035,317.468,1178.5338,306.6453,1177.505,295.8227,1178,285" style="stroke: #FF69B4; stroke-width: 3.0;"/><text fill="#FF69B4" font-family="courier" font-size="20" font-weight="bold" lengthAdjust="spacingAndGlyphs" textLength="96" x="1182" y="311.1074">Strategy</text><path d="M1179,323.1133 L1179,323.3935 L1189.2,322.5609 L1199.4,323.371 L1209.6,323.6462 L1219.8,322.1621 L1230,323.0097 L1240.2,322.5446 L1250.4,322.6019 L1260.6,323.0224 L1270.8,322.1915 L1281,323.1133 " fill="#222222" style="stroke: #FF69B4; stroke-width: 3.0;"/><path d="M1179,331.1133 L1179,331.3935 L1189.2,330.5609 L1199.4,331.371 L1209.6,331.6462 L1219.8,330.1621 L1230,331.0097 L1240.2,330.5446 L1250.4,330.6019 L1260.6,331.0224 L1270.8,330.1915 L1281,331.1133 " fill="#222222" style="stroke: #FF69B4; stroke-width: 3.0;"/><!--class TemplateMethod--><polygon fill="#222222" points="1317,272,1317,272.2102,1327.4,271.5857,1337.8,272.1933,1348.2,272.3997,1358.6,271.2866,1369,271.9223,1379.4,271.5735,1389.8,271.6165,1400.2,271.9318,1410.6,271.3086,1421,272,1421.5536,272,1420.3697,282.0283,1420.8022,292.0566,1421.4319,302.085,1420.9142,312.1133,1421.0682,322.1416,1420.9681,332.1699,1421.1785,342.1982,1421,352.2266,1421,352.4657,1410.6,352.8123,1400.2,352.8976,1389.8,352.9058,1379.4,352.4812,1369,352.6901,1358.6,352.9288,1348.2,351.5054,1337.8,352.9051,1327.4,351.9301,1317,352.2266,1317.5338,352.2266,1316.505,342.1982,1316.9315,332.1699,1317.7416,322.1416,1316.9513,312.1133,1317.1053,302.085,1317.3386,292.0566,1317.4162,282.0283,1317,272" style="stroke: #FF69B4; stroke-width: 3.0;"/><text fill="#FF69B4" font-family="courier" font-size="20" font-weight="bold" lengthAdjust="spacingAndGlyphs" textLength="96" x="1321" y="298.1074">Template</text><text fill="#FF69B4" font-family="courier" font-size="20" font-weight="bold" lengthAdjust="spacingAndGlyphs" textLength="72" x="1339" y="324.2207">Method</text><path d="M1318,336.2266 L1318,336.5068 L1328.2,335.6741 L1338.4,336.4843 L1348.6,336.7595 L1358.8,335.2754 L1369,336.1229 L1379.2,335.6579 L1389.4,335.7152 L1399.6,336.1357 L1409.8,335.3047 L1420,336.2266 " fill="#222222" style="stroke: #FF69B4; stroke-width: 3.0;"/><path d="M1318,344.2266 L1318,344.5068 L1328.2,343.6741 L1338.4,344.4843 L1348.6,344.7595 L1358.8,343.2754 L1369,344.1229 L1379.2,343.6579 L1389.4,343.7152 L1399.6,344.1357 L1409.8,343.3047 L1420,344.2266 " fill="#222222" style="stroke: #FF69B4; stroke-width: 3.0;"/><!--class Visitor--><polygon fill="#222222" points="1456,285,1456,285.2102,1466.2222,284.5857,1476.4444,285.1933,1486.6667,285.3997,1496.8889,284.2866,1507.1111,284.9223,1517.3333,284.5735,1527.5556,284.6165,1537.7778,284.9318,1548,285,1547.3086,285,1548.5536,295.8227,1547.3697,306.6453,1547.8022,317.468,1548.4319,328.2906,1548,339.1133,1548,339.0275,1537.7778,339.1815,1527.5556,339.0813,1517.3333,339.2918,1507.1111,339.3524,1496.8889,339.699,1486.6667,339.7843,1476.4444,339.7925,1466.2222,339.3679,1456,339.1133,1456.4636,339.1133,1456.7022,328.2906,1455.2788,317.468,1456.6785,306.6453,1455.7035,295.8227,1456,285" style="stroke: #FF69B4; stroke-width: 3.0;"/><text fill="#FF69B4" font-family="courier" font-size="20" font-weight="bold" lengthAdjust="spacingAndGlyphs" textLength="84" x="1460" y="311.1074">Visitor</text><path d="M1457,323.1133 L1457,323.3935 L1467,322.5609 L1477,323.371 L1487,323.6462 L1497,322.1621 L1507,323.0097 L1517,322.5446 L1527,322.6019 L1537,323.0224 L1547,323.1133 " fill="#222222" style="stroke: #FF69B4; stroke-width: 3.0;"/><path d="M1457,331.1133 L1457,331.3935 L1467,330.5609 L1477,331.371 L1487,331.6462 L1497,330.1621 L1507,331.0097 L1517,330.5446 L1527,330.6019 L1537,331.0224 L1547,331.1133 " fill="#222222" style="stroke: #FF69B4; stroke-width: 3.0;"/><!--link Patron to PatronComportamiento--><path d="M855,82.32 L855.0934,82.32 L854.8159,91.236 L855.0859,100.152 L855.1776,109.068 L854.6829,117.984 L855,126.9 " fill="none" style="stroke: #A9A9A9; stroke-width: 2.0;"/><polygon fill="none" points="848,82.31,848.0661,82.3331,849.2696,78.2644,850.8608,74.3313,852.3257,70.354,853.3756,66.2314,855,62.31,854.9755,62.3014,856.2658,66.263,857.6793,70.2678,859.1786,74.3025,860.3825,78.2339,862,82.31,862,82.4945,859.2,82.0999,856.4,82.2441,853.6,82.454,850.8,82.2814,848,82.31" style="stroke: #A9A9A9; stroke-width: 2.0;"/><!--link PatronComportamiento to ChainOfResponsability--><path d="M740.84,180.22 L740.8741,180.4982 L730.2696,180.9584 L719.8649,183.0493 L709.3952,184.6092 L698.7115,184.4229 L688.324,186.6537 L688.3196,186.6195 L682.5212,187.2138 L676.7451,187.9807 L670.9846,188.8677 L665.1706,189.3411 L659.4316,190.3938 L659.4644,190.6377 L653.3123,190.9346 L647.256,191.9436 L641.2114,193.0394 L635.0987,193.6299 L629.0219,194.4861 L629.0261,194.5161 L622.6704,195.3614 L616.3338,196.3435 L609.988,197.2596 L603.6598,198.3015 L597.2741,198.9332 L597.3172,199.2283 L590.7364,200.1928 L584.1279,200.9669 L577.56,202.0197 L570.994,203.0855 L564.3676,203.7376 L564.3193,203.4207 L557.6358,205.0686 L550.7933,205.6731 L544.0716,207.0707 L537.2255,207.6516 L530.4815,208.9019 L530.4767,208.8719 L523.596,210.3328 L516.6035,211.0913 L509.6769,212.2642 L502.756,213.472 L495.795,214.4288 L495.8254,214.6112 L488.7332,215.6054 L481.693,216.9114 L474.5686,217.7129 L467.5698,219.2669 L460.4875,220.3206 L460.5295,220.5606 L453.3716,221.7671 L446.2347,223.0928 L439.0008,223.8648 L431.8379,225.0427 L424.738,226.5801 L424.688,226.3084 L417.5309,227.8802 L410.3174,229.146 L403.1857,230.8557 L395.9144,231.8074 L388.726,233.2097 L388.697,233.06 L381.5263,234.7097 L374.2314,235.7197 L367.0248,237.1846 L359.9046,239.0947 L352.6306,240.212 L352.6695,240.4017 L345.4963,242.0074 L338.2021,243.023 L331.0594,244.7776 L323.8837,246.3712 L316.6311,247.5897 L316.5865,247.3845 L309.4772,249.0991 L302.3532,250.7466 L295.2579,252.5261 L288.0511,253.7923 L280.9066,255.3452 L280.9529,255.5455 L273.7973,256.7325 L266.7309,258.3062 L259.7949,260.4448 L252.6189,261.5434 L245.6365,263.4811 L245.6906,263.7008 L238.7312,265.2741 L231.7535,266.773 L224.8171,268.4398 L217.976,270.4942 L211,272 L210.9647,271.8717 L207.6939,273.1836 L204.1828,273.6232 L200.9449,275.0546 L197.5532,275.9275 L194.12,276.65 " fill="none" style="stroke: #A9A9A9; stroke-width: 2.0;"/><polygon fill="none" points="740.21,173.24,740.2253,173.3084,744.3138,174.0332,748.4921,175.1589,752.6412,176.154,756.6939,176.72,760.88,177.88,760.8687,177.8567,757.0078,179.6062,753.2041,181.4731,749.4401,183.4216,745.5392,185.0888,741.83,187.15,742.0133,187.1713,741.2973,184.3437,741.1165,181.5784,741.001,178.8207,740.5056,176.0187,740.21,173.24" style="stroke: #A9A9A9; stroke-width: 2.0;"/><!--link PatronComportamiento to Command--><path d="M740.67,179.19 L740.6818,179.2827 L736.5068,179.5352 L732.401,180.331 L728.2726,180.9498 L724.0701,180.987 L719.9702,181.8294 L719.9656,181.7952 L715.5681,182.2382 L711.1941,182.8537 L706.8364,183.5892 L702.4225,183.9113 L698.0874,184.8124 L698.1229,185.0559 L693.459,185.2039 L688.8987,186.0628 L684.351,187.0084 L679.7298,187.4494 L675.1473,188.1557 L675.152,188.1857 L670.3709,188.8858 L665.611,189.7223 L660.8409,190.493 L656.0903,191.3892 L651.2759,191.8761 L651.325,192.1703 L646.3902,192.9967 L641.4238,193.6333 L636.5037,194.5478 L631.5858,195.4752 L626.5991,195.9901 L626.5428,195.6746 L621.5808,197.1919 L616.4334,197.6702 L611.427,198.9383 L606.2754,199.3931 L601.2428,200.5146 L601.2371,200.4846 L596.1226,201.8286 L590.8747,202.4739 L585.7056,203.5314 L580.543,204.6236 L575.3328,205.466 L575.3699,205.6473 L570.0649,206.5434 L564.8233,207.7492 L559.4791,208.4539 L554.2879,209.906 L548.995,210.8612 L549.0473,211.0992 L543.7095,212.2253 L538.3976,213.4696 L532.9651,214.1649 L527.6211,215.2627 L522.3554,216.7169 L522.2919,216.4481 L516.9862,217.958 L511.609,219.165 L506.3356,220.8113 L500.885,221.7076 L495.5397,223.0497 L495.5022,222.9019 L490.1916,224.5133 L484.7204,225.493 L479.3635,226.922 L474.1182,228.7905 L468.674,229.8762 L468.7251,230.063 L463.4022,231.6585 L457.9202,232.6731 L452.6375,234.4153 L447.3114,235.999 L441.8841,237.2133 L441.8245,237.0119 L436.5543,238.7453 L431.2646,240.4127 L426.0133,242.2096 L420.6129,243.5029 L415.2958,245.0775 L415.3574,245.2737 L412.5863,245.6697 L409.934,246.4443 L407.4553,247.7721 L404.6571,248.0815 L402.1166,249.2125 L402.1869,249.4275 L399.5289,250.1544 L396.8471,250.8085 L394.2189,251.6269 L391.7147,252.8248 L389.0351,253.4856 L388.9923,253.3596 L386.5262,254.6172 L383.7687,255.0183 L381.3426,256.3933 L378.7299,257.2199 L376.067,257.8988 L376.1034,258.0014 L373.5062,258.8296 L371.0393,260.0253 L368.4547,260.889 L365.8209,261.614 L363.2279,262.4542 L363.2693,262.566 L360.6689,263.3398 L358.2607,264.6327 L355.6352,265.3386 L353.0991,266.2859 L350.5337,267.1539 L350.4362,266.9017 L347.962,267.9551 L345.6053,269.3123 L343.0823,270.2397 L340.4999,271.013 L338,272 L337.9407,271.8697 L335.3385,273.1034 L332.6313,274.1064 L330.2126,275.7438 L327.6511,277.0672 L324.8937,277.96 L325.007,278.1647 L322.4985,279.6382 L319.7748,280.7228 L317.2783,282.2179 L314.6314,283.4413 L312.17,285 " fill="none" style="stroke: #A9A9A9; stroke-width: 2.0;"/><polygon fill="none" points="739.95,172.23,739.9651,172.2984,744.0582,173.0112,748.2399,174.1249,752.3928,175.1081,756.4506,175.6618,760.64,176.81,760.6286,176.7867,756.7715,178.5463,752.9718,180.4232,749.212,182.3816,745.3146,184.059,741.61,186.13,741.7932,186.1519,741.0694,183.3251,740.8805,180.5622,740.757,177.8071,740.2536,175.0066,739.95,172.23" style="stroke: #A9A9A9; stroke-width: 2.0;"/><!--link PatronComportamiento to Interpreter--><path d="M741.38,198.66 L741.4058,198.7498 L736.1268,199.978 L730.9991,201.7325 L725.8222,203.3156 L720.4832,204.3351 L715.3685,206.1348 L715.3587,206.1017 L709.8251,207.5691 L704.3406,209.2037 L698.8904,210.9543 L693.3223,212.3048 L687.9192,214.2158 L687.9904,214.4513 L682.1321,215.6728 L676.4816,217.582 L670.8565,219.5751 L665.0838,221.08 L659.3888,222.8417 L659.3978,222.8707 L653.5335,224.6501 L647.7104,226.5613 L641.8674,228.4089 L636.0621,230.3779 L630.1338,231.9513 L630.2251,232.2352 L624.3016,234.145 L618.3192,235.8717 L612.4231,237.8665 L606.531,239.8739 L600.5108,241.4831 L600.4093,241.1791 L594.6794,243.7478 L588.6153,245.3153 L582.8053,247.644 L576.7336,249.1888 L570.8764,251.3761 L570.8664,251.3473 L565.1269,253.7259 L559.1536,255.4327 L553.3183,257.5359 L547.4946,259.6724 L541.5873,261.5688 L541.6507,261.7426 L535.8692,263.6534 L530.1961,265.8612 L524.3477,267.5885 L518.7608,270.0325 L513,272 L513.0892,272.2267 L509.9028,273.4309 L506.7608,274.7475 L503.4129,275.5412 L500.2159,276.7183 L497.1525,278.235 L497.0446,277.9808 L493.9638,279.5599 L490.7614,280.8526 L487.7353,282.5608 L484.4082,283.5595 L481.26,284.98 " fill="none" style="stroke: #A9A9A9; stroke-width: 2.0;"/><polygon fill="none" points="739.52,191.91,739.5243,191.9799,743.7415,192.0342,747.984,192.4983,752.2182,192.829,756.4253,192.7207,760.67,193.22,760.6551,193.1988,757.1184,195.5356,753.6566,197.9793,750.247,200.4974,746.6577,202.7593,743.32,205.38,743.4976,205.4301,742.3578,202.629,741.7366,199.9741,741.1786,197.3371,740.2525,194.5962,739.52,191.91" style="stroke: #A9A9A9; stroke-width: 2.0;"/><!--link PatronComportamiento to Iterator--><path d="M759.16,216.08 L759.2883,216.3292 L750.0227,220.1632 L741.5092,225.4579 L732.7508,230.2769 L723.1871,233.5318 L714.6907,238.8598 L705.8538,243.5263 L705.7657,243.3584 L700.3267,246.2321 L694.9439,249.2131 L689.3673,251.8247 L684.1764,255.1715 L678.6142,257.8105 L678.4824,257.5633 L673.25,260.5708 L668.0588,263.6557 L662.6278,266.2905 L657.3371,269.1889 L652,272 L651.9932,271.9876 L647.3403,274.6555 L642.6553,277.2651 L638.0315,279.986 L633.3518,282.6053 L628.51,284.93 " fill="none" style="stroke: #A9A9A9; stroke-width: 2.0;"/><polygon fill="none" points="756.01,209.83,756.0193,209.8994,760.1916,209.1291,764.4186,208.7659,768.6277,208.27,772.7784,207.3383,777.01,207.01,776.9913,206.9921,773.9754,209.9716,771.0537,213.0416,768.1976,216.1743,765.1156,219.0906,762.35,222.31,762.5145,222.3936,760.8947,219.7188,759.7552,217.2881,758.6744,214.8872,757.2525,212.3131,756.01,209.83" style="stroke: #A9A9A9; stroke-width: 2.0;"/><!--link PatronComportamiento to Mediator--><path d="M804.93,221.83 L805.1352,222.0208 L798.0366,228.4316 L792.1409,235.9611 L785.8536,243.1262 L778.2779,249.0934 L772.4097,256.6483 L765.5802,263.3094 L759.1333,270.3262 L752.9523,277.5903 L746.53,284.63 " fill="none" style="stroke: #A9A9A9; stroke-width: 2.0;"/><polygon fill="none" points="799.91,216.95,799.9426,217.012,803.5957,214.8538,807.44,213.059,811.2221,211.1459,814.7992,208.8436,818.66,207.08,818.6363,207.0696,816.8298,210.905,815.1429,214.7927,813.5392,218.7169,811.6489,222.5156,810.16,226.49,810.2857,226.6251,807.9669,224.4282,806.0151,222.6257,804.1081,220.8714,801.9405,218.8371,799.91,216.95" style="stroke: #A9A9A9; stroke-width: 2.0;"/><!--link PatronComportamiento to Mememto--><path d="M855,227.16 L855.2802,227.16 L854.4476,236.7383 L855.2577,246.3167 L855.5329,255.895 L854.0488,265.4733 L854.8964,275.0517 L855,284.63 " fill="none" style="stroke: #A9A9A9; stroke-width: 2.0;"/><polygon fill="none" points="848,227.08,848.0661,227.1031,849.2696,223.0344,850.8608,219.1013,852.3257,215.124,853.3756,211.0014,855,207.08,854.9755,207.0714,856.2658,211.033,857.6793,215.0378,859.1786,219.0725,860.3825,223.0039,862,227.08,862,227.2645,859.2,226.8699,856.4,227.0141,853.6,227.224,850.8,227.0514,848,227.08" style="stroke: #A9A9A9; stroke-width: 2.0;"/><!--link PatronComportamiento to Observer--><path d="M905.07,221.83 L905.2752,222.0208 L911.1543,228.4316 L918.2365,235.9611 L924.9269,243.1262 L930.329,249.0934 L937.4386,256.6483 L943.5869,263.3094 L950.1178,270.3262 L956.9146,277.5903 L963.47,284.63 " fill="none" style="stroke: #A9A9A9; stroke-width: 2.0;"/><polygon fill="none" points="899.84,226.49,899.9042,226.5181,898.0135,222.5526,896.499,218.7518,894.862,214.8974,892.8222,210.8666,891.34,207.08,891.3279,207.0571,895.0238,208.9282,898.7805,210.9149,902.5794,212.9819,906.2327,214.7721,910.09,216.95,910.2157,217.0851,907.8969,218.7042,905.9451,220.7177,904.0381,222.7794,901.8705,224.5611,899.84,226.49" style="stroke: #A9A9A9; stroke-width: 2.0;"/><!--link PatronComportamiento to State--><path d="M958.11,216.33 L958.1528,216.413 L963.0153,218.7365 L968.1286,221.5468 L973.1602,224.1986 L977.9233,226.329 L983.0581,229.1811 L983.0419,229.1506 L985.5082,230.3656 L988.0563,231.7343 L990.6614,233.2099 L993.0703,234.3173 L995.7539,235.9403 L995.8718,236.1563 L998.1654,237.0836 L1000.8032,238.6415 L1003.483,240.2764 L1005.9185,241.4636 L1008.4825,242.8863 L1008.4973,242.9127 L1011.0106,244.295 L1013.5914,245.7978 L1016.1396,247.2424 L1018.7499,248.7979 L1021.1577,249.992 L1021.3068,250.2503 L1023.8157,251.7012 L1026.2284,252.9855 L1028.782,254.5137 L1031.3421,256.0533 L1033.6931,257.2308 L1033.5289,256.9555 L1036.3096,258.9587 L1038.5494,260.0556 L1041.2004,261.8415 L1043.428,262.9178 L1046.0027,264.5757 L1045.9866,264.5498 L1048.5756,266.3409 L1050.7902,267.527 L1053.2257,269.0701 L1055.6797,270.6431 L1058,272 L1058.1024,272.1541 L1059.8795,273.2481 L1061.8316,274.6053 L1063.5007,275.5366 L1065.5919,277.1033 L1067.4025,278.2475 L1067.5447,278.4453 L1069.3773,279.7444 L1071.2805,281.1417 L1072.8557,282.0827 L1074.6713,283.3581 L1076.7,284.93 " fill="none" style="stroke: #A9A9A9; stroke-width: 2.0;"/><polygon fill="none" points="954.62,222.41,954.6702,222.4589,951.563,219.2757,948.7502,216.3789,945.8415,213.3889,942.6176,210.0921,939.83,207.22,939.8268,207.1943,944.0182,207.609,948.226,208.1532,952.4452,208.7875,956.6252,209.1114,960.86,209.87,961.0252,209.9522,959.4239,212.2844,958.305,214.8566,957.2449,217.4581,955.8424,219.8893,954.62,222.41" style="stroke: #A9A9A9; stroke-width: 2.0;"/><!--link PatronComportamiento to Strategy--><path d="M968.21,212.11 L968.2389,212.1988 L971.301,212.958 L974.5324,214.2379 L977.7086,215.3483 L980.7036,215.9009 L983.9495,217.2256 L983.9393,217.1926 L986.7933,217.9378 L989.6985,218.8495 L992.6394,219.8768 L995.4575,220.5055 L998.4476,221.6926 L998.5165,221.9288 L1001.0525,222.2073 L1003.7898,223.1755 L1006.5517,224.2277 L1009.1706,224.7905 L1011.8648,225.6107 L1011.8729,225.6399 L1014.3604,226.2909 L1016.8848,227.0748 L1019.3914,227.7946 L1021.932,228.6368 L1024.3617,229.0798 L1024.4373,229.3684 L1029.0133,230.5699 L1033.5406,231.5854 L1038.1392,232.8733 L1042.7412,234.1739 L1047.2372,235.07 L1047.1579,234.7595 L1051.5361,236.4405 L1055.6532,237.0988 L1059.9688,238.5346 L1064.08,239.1698 L1068.3588,240.4613 L1068.351,240.4318 L1070.5038,241.324 L1072.475,241.5285 L1074.5534,242.1388 L1076.6408,242.7831 L1078.6633,243.1817 L1078.7127,243.3599 L1080.7324,243.754 L1082.8365,244.4527 L1084.804,244.6585 L1086.9753,245.5995 L1089.0111,246.0517 L1089.0801,246.2853 L1091.1774,246.865 L1093.309,247.5607 L1095.2812,247.7174 L1097.3702,248.2692 L1099.5628,249.1711 L1099.4791,248.9078 L1101.7381,249.8398 L1103.9028,250.4752 L1106.2042,251.5408 L1108.2722,251.8718 L1110.4789,252.6395 L1110.4295,252.4953 L1112.8,253.519 L1114.9594,253.9261 L1117.2689,254.7717 L1119.7253,256.0463 L1121.9201,256.5569 L1121.987,256.7386 L1124.4583,257.7564 L1126.7214,258.2091 L1129.2453,259.3696 L1131.7123,260.3759 L1134.047,261.0229 L1133.97,260.8276 L1136.626,262.0062 L1139.2567,263.1208 L1141.9371,264.3611 L1144.4248,265.1127 L1147.0201,266.1374 L1147.0996,266.3269 L1149.7209,267.0829 L1152.4956,268.2048 L1155.4946,269.8614 L1158.0808,270.5336 L1161,272 L1161.0956,272.205 L1163.6813,273.3147 L1166.2347,274.3551 L1168.8611,275.552 L1171.6561,277.1108 L1174.2125,278.1575 L1174.1509,278.0396 L1176.9498,279.7571 L1179.3297,280.6728 L1182.1861,282.5002 L1184.7742,283.8143 L1187.29,284.99 " fill="none" style="stroke: #A9A9A9; stroke-width: 2.0;"/><polygon fill="none" points="965.87,218.71,965.9134,218.765,962.4545,215.9775,959.2499,213.5126,955.9625,210.9426,952.4028,208.0272,949.22,205.59,949.2198,205.5641,953.4571,205.4218,957.6952,205.4102,961.9339,205.4893,966.1706,205.2555,970.41,205.46,970.5846,205.5198,969.3032,208.0419,968.5316,210.7386,967.8222,213.4567,966.751,216.0507,965.87,218.71" style="stroke: #A9A9A9; stroke-width: 2.0;"/><!--link PatronComportamiento to TemplateMethod--><path d="M968.68,211.87 L968.703,211.9605 L971.3344,212.3785 L974.1007,213.3272 L976.8231,214.1031 L979.4009,214.3107 L982.1788,215.3049 L982.1709,215.2713 L984.7264,215.7352 L987.3221,216.3685 L989.9458,217.1195 L992.4732,217.4647 L995.1354,218.3784 L995.1883,218.6187 L997.5649,218.6524 L1000.0959,219.3878 L1002.6457,220.2087 L1005.0859,220.5316 L1007.5838,221.1164 L1007.5898,221.1462 L1009.9757,221.5883 L1012.3891,222.1657 L1014.7893,222.6779 L1017.2147,223.3146 L1019.5577,223.5452 L1019.6123,223.8384 L1021.9196,224.2712 L1024.1918,224.5148 L1026.5155,225.0352 L1028.8416,225.5686 L1031.0912,225.6909 L1031.0376,225.3749 L1033.3671,226.3659 L1035.52,226.3164 L1037.8072,227.0579 L1039.9561,226.9849 L1042.2183,227.5795 L1042.2136,227.5494 L1044.4194,228.2368 L1046.5168,228.2211 L1048.6781,228.6203 L1050.8448,229.0544 L1052.9728,229.2372 L1052.9983,229.4204 L1055.0557,229.526 L1057.1567,229.9447 L1059.1871,229.8569 L1061.3229,230.5246 L1063.3886,230.69 L1063.4176,230.9319 L1067.4024,231.3653 L1071.4017,231.9188 L1075.3339,231.9142 L1079.3152,232.3187 L1083.3401,233.0857 L1083.3128,232.8109 L1087.1383,233.4376 L1090.9331,233.7546 L1094.7725,234.5209 L1098.5357,234.5202 L1102.3442,234.9754 L1102.3313,234.8235 L1109.6033,235.6959 L1116.8198,235.9189 L1124.0758,236.6038 L1131.3704,237.7405 L1138.5962,238.0725 L1138.6139,238.2653 L1142.1841,238.7226 L1145.6995,238.5801 L1149.2836,239.1889 L1152.8527,239.634 L1156.387,239.6977 L1156.3643,239.4889 L1159.9682,240.0463 L1163.5648,240.5352 L1167.1759,241.1585 L1170.7302,241.2596 L1174.3162,241.6524 L1174.3439,241.8561 L1177.9509,241.9072 L1181.6113,242.3515 L1185.3498,243.3701 L1188.9446,243.3313 L1192.6553,244.1457 L1192.6933,244.3686 L1196.4748,244.8843 L1200.2435,245.3245 L1204.0412,245.935 L1207.9059,246.9391 L1211.6758,247.3862 L1211.6497,247.2558 L1213.6974,248.0374 L1215.5679,247.9317 L1217.6398,248.8349 L1219.5984,249.17 L1221.5263,249.3521 L1221.5498,249.4584 L1223.5554,249.8188 L1225.6449,250.5599 L1227.6586,250.957 L1229.6407,251.2104 L1231.649,251.5831 L1231.677,251.699 L1233.7212,252.0313 L1235.8954,252.9015 L1237.9224,253.1634 L1240.01,253.6755 L1242.0778,254.1054 L1242.0088,253.8439 L1244.1856,254.4992 L1246.4454,255.4694 L1248.5877,255.9939 L1250.6879,256.3587 L1252.8465,256.9451 L1252.8072,256.8074 L1255.0483,257.4882 L1257.2198,257.9251 L1259.5827,259.0322 L1261.8509,259.8077 L1263.9892,260.1283 L1264.0579,260.3519 L1266.3901,261.134 L1268.5915,261.4913 L1270.9309,262.297 L1273.1789,262.8059 L1275.5397,263.6811 L1275.5792,263.801 L1277.9724,264.575 L1280.4134,265.4937 L1282.7031,265.9533 L1285.1148,266.7832 L1287.532,267.6296 L1287.5972,267.8156 L1290.109,268.7417 L1292.4438,269.1628 L1294.9843,270.1705 L1297.5283,271.1885 L1300,272 L1299.894,271.7501 L1303.4093,273.5646 L1306.7408,274.9456 L1310.0265,276.2188 L1313.4167,277.7382 L1316.74,279.1 " fill="none" style="stroke: #A9A9A9; stroke-width: 2.0;"/><polygon fill="none" points="966.7,218.58,966.7398,218.6376,963.1355,216.0584,959.7646,213.817,956.3177,211.4656,952.6208,208.7523,949.27,206.54,949.2682,206.5142,953.4882,206.1062,957.7172,205.8285,961.9524,205.6413,966.1661,205.1421,970.41,205.08,970.5879,205.1289,969.4654,207.7243,968.8624,210.4625,968.3228,213.2182,967.4144,215.8724,966.7,218.58" style="stroke: #A9A9A9; stroke-width: 2.0;"/><!--link PatronComportamiento to Visitor--><path d="M968.66,211.72 L968.6805,211.8111 L972.4285,212.399 L976.297,213.5211 L980.1262,214.4692 L983.8264,214.8452 L987.7052,216.0132 L987.6983,215.9793 L991.3246,216.57 L994.9856,217.3313 L998.6706,218.2112 L1002.2726,218.6824 L1005.9909,219.7261 L1006.0347,219.9682 L1009.4559,220.0854 L1013.0049,220.9096 L1016.5695,221.82 L1020.0434,222.2286 L1023.565,222.9011 L1023.5697,222.9311 L1026.9448,223.423 L1030.3416,224.0514 L1033.7279,224.6139 L1037.134,225.302 L1040.4754,225.5808 L1040.5158,225.8763 L1043.7752,226.3253 L1047.0085,226.5837 L1050.28,227.1211 L1053.5533,227.6716 L1056.77,227.8077 L1056.7332,227.4893 L1059.9499,228.4706 L1063.0455,228.4034 L1066.2332,229.1333 L1069.3261,229.0424 L1072.4966,229.6242 L1072.4938,229.5939 L1075.5692,230.2421 L1078.5773,230.1821 L1081.6251,230.54 L1084.6763,230.9329 L1087.7033,231.0729 L1087.7174,231.2573 L1090.6501,231.2958 L1093.6069,231.6494 L1096.5248,231.4931 L1099.5007,232.0975 L1102.438,232.1961 L1102.4523,232.4393 L1105.3116,232.5614 L1108.1781,232.8042 L1111.0117,232.486 L1113.8693,232.579 L1116.7484,233.0364 L1116.7365,232.7605 L1119.5341,233.1303 L1122.3183,233.1891 L1125.122,233.6989 L1127.8924,233.4388 L1130.6826,233.6363 L1130.6781,233.4839 L1133.4068,233.8182 L1136.1162,233.5009 L1138.8393,233.6469 L1141.5758,234.2462 L1144.2884,234.0383 L1144.292,234.2319 L1146.9595,234.414 L1149.6159,233.9939 L1152.2863,234.3281 L1154.9536,234.4979 L1157.6138,234.2849 L1157.6122,234.0749 L1162.8136,234.2816 L1168.0146,234.4195 L1173.2165,234.6925 L1178.4145,234.4403 L1183.6147,234.4815 L1183.6154,234.6871 L1188.7047,234.2524 L1193.7953,234.2144 L1198.8879,234.7562 L1203.9769,234.2307 L1209.0688,234.5663 L1209.0715,234.7924 L1214.1279,234.7206 L1219.1834,234.5722 L1224.241,234.5966 L1229.3035,235.0202 L1234.3591,234.8789 L1234.3554,234.7459 L1236.907,235.2114 L1239.4337,234.7725 L1241.9887,235.362 L1244.5278,235.3725 L1247.0626,235.2269 L1247.0671,235.3357 L1249.6247,235.3544 L1252.1985,235.7625 L1254.7577,235.8188 L1257.3107,235.728 L1259.8689,235.7594 L1259.8759,235.8783 L1262.4569,235.8534 L1265.0703,236.381 L1267.6471,236.2837 L1270.239,236.4434 L1272.8259,236.5187 L1272.8048,236.2492 L1275.443,236.5449 L1278.1065,237.1654 L1280.7342,237.3264 L1283.3489,237.3227 L1285.9815,237.5475 L1285.9673,237.405 L1288.6522,237.7188 L1291.312,237.7803 L1294.0411,238.5353 L1296.7359,238.9471 L1299.3836,238.8882 L1299.4124,239.1204 L1302.1609,239.5337 L1304.8548,239.5059 L1307.6063,239.9437 L1310.3197,240.0733 L1313.0802,240.5833 L1313.0988,240.7081 L1315.9041,241.1101 L1318.7319,241.6629 L1321.4884,241.7375 L1324.3024,242.1978 L1327.119,242.6752 L1327.1531,242.8694 L1330.0484,243.4298 L1332.8513,243.4634 L1335.7616,244.1091 L1338.6737,244.7656 L1341.5481,245.2065 L1341.4942,244.9404 L1344.5527,245.9631 L1347.5177,246.5242 L1350.4595,246.9705 L1353.4544,247.679 L1356.4153,248.2197 L1356.488,248.5352 L1359.4547,248.7917 L1362.588,249.7711 L1365.6557,250.4659 L1368.7094,251.0998 L1371.7685,251.7571 L1371.7842,251.8178 L1374.9586,252.6268 L1378.054,253.1303 L1381.2563,254.0472 L1384.427,254.8419 L1387.6557,255.8614 L1387.6635,255.8887 L1390.9603,256.8418 L1394.2631,257.816 L1397.5016,258.5652 L1400.8227,259.6034 L1404.1248,260.575 L1404.1088,260.524 L1407.6213,261.8927 L1411.021,262.902 L1414.3194,263.5883 L1417.7941,264.8364 L1421.2235,265.9404 L1421.1408,265.6975 L1424.8202,267.2736 L1428.4214,268.6202 L1431.9675,269.8052 L1435.3823,270.6048 L1439,272 L1439.0807,272.1898 L1441.59,272.853 L1444.4733,274.3954 L1447.1057,275.3478 L1449.8938,276.6666 L1452.5963,277.7838 L1452.6473,277.8776 L1455.3153,279.3933 L1457.6808,280.3532 L1460.5535,282.2451 L1463.1091,283.5543 L1465.69,284.91 " fill="none" style="stroke: #A9A9A9; stroke-width: 2.0;"/><polygon fill="none" points="966.9,218.49,966.9384,218.5486,963.2784,216.0544,959.8433,213.9039,956.3349,211.6415,952.5858,209.011,949.17,206.89,949.1676,206.8642,953.3746,206.3505,957.594,205.9667,961.8219,205.6734,966.0204,205.0686,970.26,204.9,970.4392,204.9443,969.384,207.5676,968.852,210.3202,968.3838,213.0886,967.5442,215.7651,966.9,218.49" style="stroke: #A9A9A9; stroke-width: 2.0;"/><!--
@startuml
skinparam packageStyle rect
skinparam backgroundColor #222222
skinparam handwritten true
hide circle
skinparam shadowing false
skinparam padding 1
skinparam arrow {
    Thickness 2
    Color #DarkGrey
    FontSize 20
    FontName courier
    FontStyle normal
    FontColor #DarkGrey
}
skinparam class {
    BorderThickness 3
    BorderColor #ff69b4
    BackgroundColor #222222
    FontSize 20
    FontName courier
    FontStyle bold
    FontColor #ff69b4
}
skinparam classAttribute {
    FontSize 15
    FontName courier
    FontStyle normal
    FontColor #DarkGrey
}
skinparam note {
    BorderThickness 3
    BorderColor #DarkGrey
    BackgroundColor #222222
    FontSize 20
    FontName courier
    FontStyle normal
    FontColor #DarkGrey
}

abstract class "Patrón" as Patron
abstract class "Patrón de\n Comportamiento" as PatronComportamiento
note right
+ <b>composición interaccones complejas</b>
+ <b>(algoritmos/procesos)</b>
+ <b><font color=red>CC II MM O! SS en TV</font></b>
end note
class "Chain of\n Responsability" as ChainOfResponsability
class Command
class Interpreter
class Iterator
class Mediator
class Mememto
class Observer
class State
class Strategy
class "Template\n Method" as TemplateMethod
class Visitor

Patron <|-down- PatronComportamiento
PatronComportamiento <|-down- ChainOfResponsability
PatronComportamiento <|-down- Command
PatronComportamiento <|-down- Interpreter
PatronComportamiento <|-down- Iterator
PatronComportamiento <|-down- Mediator
PatronComportamiento <|-down- Mememto
PatronComportamiento <|-down- Observer
PatronComportamiento <|-down- State
PatronComportamiento <|-down- Strategy
PatronComportamiento <|-down- TemplateMethod
PatronComportamiento <|-down- Visitor
@enduml

PlantUML version 1.2019.05(Sat Apr 20 18:45:36 CEST 2019)
(GPL source distribution)
Java Runtime: Java(TM) SE Runtime Environment
JVM: Java HotSpot(TM) 64-Bit Server VM
Java Version: 11.0.14+8-LTS-263
Operating System: Windows 10
OS Version: 10.0
Default Encoding: windows-1252
Language: es
Country: ES
--></g></svg>