<?xml version="1.0" encoding="UTF-8" standalone="no"?><svg xmlns="http://www.w3.org/2000/svg" xmlns:xlink="http://www.w3.org/1999/xlink" contentScriptType="application/ecmascript" contentStyleType="text/css" height="607px" preserveAspectRatio="none" style="width:1775px;height:607px;background:#222222;" version="1.1" viewBox="0 0 1775 607" width="1775px" zoomAndPan="magnify"><defs/><g><!--entity Facade--><polygon fill="#222222" points="221.3,440,221.3,440.2102,231.7444,439.5857,242.1889,440.1933,252.6333,440.3997,263.0778,439.2866,273.5222,439.9223,283.9667,439.5735,294.4111,439.6165,304.8556,439.9318,315.3,440,314.6086,440,315.8536,449.6227,314.6697,459.2453,315.1022,468.868,315.7319,478.4906,315.3,488.1133,315.3,488.0275,304.8556,488.1815,294.4111,488.0813,283.9667,488.2918,273.5222,488.3524,263.0778,488.699,252.6333,488.7843,242.1889,488.7925,231.7444,488.3679,221.3,488.1133,221.7636,488.1133,222.0022,478.4906,220.5788,468.868,221.9785,459.2453,221.0035,449.6227,221.3,440" style="stroke: #FF69B4; stroke-width: 3.0;"/><text fill="#FF69B4" font-family="courier" font-size="20" font-weight="bold" lengthAdjust="spacingAndGlyphs" textLength="72" x="232.3" y="471.1074">Facade</text><!--entity Singleton--><polygon fill="#222222" points="203.3,548,203.3,548.2102,213.3,547.5857,223.3,548.1933,233.3,548.3997,243.3,547.2866,253.3,547.9223,263.3,547.5735,273.3,547.6165,283.3,547.9318,293.3,547.3086,303.3,548.5536,313.3,547.3697,323.3,547.8022,333.3,548,333.7319,548,333.2142,557.6227,333.3682,567.2453,333.2681,576.868,333.4785,586.4906,333.3,596.1133,333.3,596.3524,323.3,596.699,313.3,596.7843,303.3,596.7925,293.3,596.3679,283.3,596.5769,273.3,596.8155,263.3,595.3921,253.3,596.7918,243.3,595.8168,233.3,596.6471,223.3,595.6183,213.3,596.0448,203.3,596.1133,204.0416,596.1133,203.2513,586.4906,203.4053,576.868,203.6386,567.2453,203.7162,557.6227,203.3,548" style="stroke: #FF69B4; stroke-width: 3.0;"/><text fill="#FF69B4" font-family="courier" font-size="20" font-weight="bold" lengthAdjust="spacingAndGlyphs" textLength="108" x="214.3" y="579.1074">Singleton</text><!--entity Builder--><polygon fill="#222222" points="79.3,224,79.3,224.2102,88.9364,223.5857,98.5727,224.1933,108.2091,224.3997,117.8455,223.2866,127.4818,223.9223,137.1182,223.5735,146.7545,223.6165,156.3909,223.9318,166.0273,223.3086,175.6636,224.5536,185.3,224,184.6697,224,185.1022,233.6227,185.7319,243.2453,185.2142,252.868,185.3682,262.4906,185.3,272.1133,185.3,272.0813,175.6636,272.2918,166.0273,272.3524,156.3909,272.699,146.7545,272.7843,137.1182,272.7925,127.4818,272.3679,117.8455,272.5769,108.2091,272.8155,98.5727,271.3921,88.9364,272.7918,79.3,272.1133,79.0035,272.1133,79.8338,262.4906,78.805,252.868,79.2315,243.2453,80.0416,233.6227,79.3,224" style="stroke: #FF69B4; stroke-width: 3.0;"/><text fill="#FF69B4" font-family="courier" font-size="20" font-weight="bold" lengthAdjust="spacingAndGlyphs" textLength="84" x="90.3" y="255.1074">Builder</text><!--entity Composite--><polygon fill="#222222" points="669.3,224,669.3,224.2102,679.3,223.5857,689.3,224.1933,699.3,224.3997,709.3,223.2866,719.3,223.9223,729.3,223.5735,739.3,223.6165,749.3,223.9318,759.3,223.3086,769.3,224.5536,779.3,223.3697,789.3,223.8022,799.3,224,799.7319,224,799.2142,233.6227,799.3682,243.2453,799.2681,252.868,799.4785,262.4906,799.3,272.1133,799.3,272.3524,789.3,272.699,779.3,272.7843,769.3,272.7925,759.3,272.3679,749.3,272.5769,739.3,272.8155,729.3,271.3921,719.3,272.7918,709.3,271.8168,699.3,272.6471,689.3,271.6183,679.3,272.0448,669.3,272.1133,670.0416,272.1133,669.2513,262.4906,669.4053,252.868,669.6386,243.2453,669.7162,233.6227,669.3,224" style="stroke: #FF69B4; stroke-width: 3.0;"/><text fill="#FF69B4" font-family="courier" font-size="20" font-weight="bold" lengthAdjust="spacingAndGlyphs" textLength="108" x="680.3" y="255.1074">Composite</text><!--entity abstractFactory--><polygon fill="#222222" points="31.3,332,31.3,332.2102,41.4,331.5857,51.5,332.1933,61.6,332.3997,71.7,331.2866,81.8,331.9223,91.9,331.5735,102,331.6165,112.1,331.9318,122.2,331.3086,132.3,332.5536,142.4,331.3697,152.5,331.8022,162.6,332.4319,172.7,331.9142,182.8,332.0682,192.9,331.9681,203,332.1785,213.1,332.2391,223.2,332.5857,233.3,332,233.9711,332,233.9793,341.6227,233.5546,351.2453,233.7636,360.868,234.0022,370.4906,233.3,380.1133,233.3,379.3921,223.2,380.7918,213.1,379.8168,203,380.6471,192.9,379.6183,182.8,380.0448,172.7,380.8549,162.6,380.0645,152.5,380.2186,142.4,380.4519,132.3,380.5295,122.2,380.1094,112.1,380.4005,102,379.5409,91.9,380.3977,81.8,380.6615,71.7,380.5578,61.6,380.7263,51.5,379.6302,41.4,379.4611,31.3,380.1133,30.6786,380.1133,31.2411,370.4906,31.1035,360.868,31.9814,351.2453,31.1253,341.6227,31.3,332" style="stroke: #FF69B4; stroke-width: 3.0;"/><text fill="#FF69B4" font-family="courier" font-size="20" font-weight="bold" lengthAdjust="spacingAndGlyphs" textLength="180" x="42.3" y="363.1074">abstractFactory</text><!--entity Prototype--><polygon fill="#222222" points="430.3,440,430.3,440.2102,440.3,439.5857,450.3,440.1933,460.3,440.3997,470.3,439.2866,480.3,439.9223,490.3,439.5735,500.3,439.6165,510.3,439.9318,520.3,439.3086,530.3,440.5536,540.3,439.3697,550.3,439.8022,560.3,440,560.7319,440,560.2142,449.6227,560.3682,459.2453,560.2681,468.868,560.4785,478.4906,560.3,488.1133,560.3,488.3524,550.3,488.699,540.3,488.7843,530.3,488.7925,520.3,488.3679,510.3,488.5769,500.3,488.8155,490.3,487.3921,480.3,488.7918,470.3,487.8168,460.3,488.6471,450.3,487.6183,440.3,488.0448,430.3,488.1133,431.0416,488.1133,430.2513,478.4906,430.4053,468.868,430.6386,459.2453,430.7162,449.6227,430.3,440" style="stroke: #FF69B4; stroke-width: 3.0;"/><text fill="#FF69B4" font-family="courier" font-size="20" font-weight="bold" lengthAdjust="spacingAndGlyphs" textLength="108" x="441.3" y="471.1074">Prototype</text><!--entity Visitor--><polygon fill="#222222" points="940.3,332,940.3,332.2102,949.9364,331.5857,959.5727,332.1933,969.2091,332.3997,978.8455,331.2866,988.4818,331.9223,998.1182,331.5735,1007.7545,331.6165,1017.3909,331.9318,1027.0273,331.3086,1036.6636,332.5536,1046.3,332,1045.6697,332,1046.1022,341.6227,1046.7319,351.2453,1046.2142,360.868,1046.3682,370.4906,1046.3,380.1133,1046.3,380.0813,1036.6636,380.2918,1027.0273,380.3524,1017.3909,380.699,1007.7545,380.7843,998.1182,380.7925,988.4818,380.3679,978.8455,380.5769,969.2091,380.8155,959.5727,379.3921,949.9364,380.7918,940.3,380.1133,940.0035,380.1133,940.8338,370.4906,939.805,360.868,940.2315,351.2453,941.0416,341.6227,940.3,332" style="stroke: #FF69B4; stroke-width: 3.0;"/><text fill="#FF69B4" font-family="courier" font-size="20" font-weight="bold" lengthAdjust="spacingAndGlyphs" textLength="84" x="951.3" y="363.1074">Visitor</text><!--entity Decorator--><polygon fill="#222222" points="551.3,332,551.3,332.2102,561.3,331.5857,571.3,332.1933,581.3,332.3997,591.3,331.2866,601.3,331.9223,611.3,331.5735,621.3,331.6165,631.3,331.9318,641.3,331.3086,651.3,332.5536,661.3,331.3697,671.3,331.8022,681.3,332,681.7319,332,681.2142,341.6227,681.3682,351.2453,681.2681,360.868,681.4785,370.4906,681.3,380.1133,681.3,380.3524,671.3,380.699,661.3,380.7843,651.3,380.7925,641.3,380.3679,631.3,380.5769,621.3,380.8155,611.3,379.3921,601.3,380.7918,591.3,379.8168,581.3,380.6471,571.3,379.6183,561.3,380.0448,551.3,380.1133,552.0416,380.1133,551.2513,370.4906,551.4053,360.868,551.6386,351.2453,551.7162,341.6227,551.3,332" style="stroke: #FF69B4; stroke-width: 3.0;"/><text fill="#FF69B4" font-family="courier" font-size="20" font-weight="bold" lengthAdjust="spacingAndGlyphs" textLength="108" x="562.3" y="363.1074">Decorator</text><!--entity Iterator--><polygon fill="#222222" points="787.3,332,787.3,332.2102,797.1333,331.5857,806.9667,332.1933,816.8,332.3997,826.6333,331.2866,836.4667,331.9223,846.3,331.5735,856.1333,331.6165,865.9667,331.9318,875.8,331.3086,885.6333,332.5536,895.4667,331.3697,905.3,332,905.1022,332,905.7319,341.6227,905.2142,351.2453,905.3682,360.868,905.2681,370.4906,905.3,380.1133,905.3,380.2918,895.4667,380.3524,885.6333,380.699,875.8,380.7843,865.9667,380.7925,856.1333,380.3679,846.3,380.5769,836.4667,380.8155,826.6333,379.3921,816.8,380.7918,806.9667,379.8168,797.1333,380.6471,787.3,380.1133,786.805,380.1133,787.2315,370.4906,788.0416,360.868,787.2513,351.2453,787.4053,341.6227,787.3,332" style="stroke: #FF69B4; stroke-width: 3.0;"/><text fill="#FF69B4" font-family="courier" font-size="20" font-weight="bold" lengthAdjust="spacingAndGlyphs" textLength="96" x="798.3" y="363.1074">Iterator</text><!--entity Flyweight--><polygon fill="#222222" points="1081.3,332,1081.3,332.2102,1091.3,331.5857,1101.3,332.1933,1111.3,332.3997,1121.3,331.2866,1131.3,331.9223,1141.3,331.5735,1151.3,331.6165,1161.3,331.9318,1171.3,331.3086,1181.3,332.5536,1191.3,331.3697,1201.3,331.8022,1211.3,332,1211.7319,332,1211.2142,341.6227,1211.3682,351.2453,1211.2681,360.868,1211.4785,370.4906,1211.3,380.1133,1211.3,380.3524,1201.3,380.699,1191.3,380.7843,1181.3,380.7925,1171.3,380.3679,1161.3,380.5769,1151.3,380.8155,1141.3,379.3921,1131.3,380.7918,1121.3,379.8168,1111.3,380.6471,1101.3,379.6183,1091.3,380.0448,1081.3,380.1133,1082.0416,380.1133,1081.2513,370.4906,1081.4053,360.868,1081.6386,351.2453,1081.7162,341.6227,1081.3,332" style="stroke: #FF69B4; stroke-width: 3.0;"/><text fill="#FF69B4" font-family="courier" font-size="20" font-weight="bold" lengthAdjust="spacingAndGlyphs" textLength="108" x="1092.3" y="363.1074">Flyweight</text><!--entity Interpreter--><polygon fill="#222222" points="846.3,116,846.3,116.2102,856.5667,115.5857,866.8333,116.1933,877.1,116.3997,887.3667,115.2866,897.6333,115.9223,907.9,115.5735,918.1667,115.6165,928.4333,115.9318,938.7,115.3086,948.9667,116.5536,959.2333,115.3697,969.5,115.8022,979.7667,116.4319,990.0333,115.9142,1000.3,116,1000.3682,116,1000.2681,125.6227,1000.4785,135.2453,1000.5391,144.868,1000.8857,154.4906,1000.3,164.1133,1000.3,164.7843,990.0333,164.7925,979.7667,164.3679,969.5,164.5769,959.2333,164.8155,948.9667,163.3921,938.7,164.7918,928.4333,163.8168,918.1667,164.6471,907.9,163.6183,897.6333,164.0448,887.3667,164.8549,877.1,164.0645,866.8333,164.2186,856.5667,164.4519,846.3,164.1133,846.7162,164.1133,846.2961,154.4906,846.5872,144.868,845.7276,135.2453,846.5844,125.6227,846.3,116" style="stroke: #FF69B4; stroke-width: 3.0;"/><text fill="#FF69B4" font-family="courier" font-size="20" font-weight="bold" lengthAdjust="spacingAndGlyphs" textLength="132" x="857.3" y="147.1074">Interpreter</text><!--entity State--><polygon fill="#222222" points="1200.3,224,1200.3,224.2102,1210.55,223.5857,1220.8,224.1933,1231.05,224.3997,1241.3,223.2866,1251.55,223.9223,1261.8,223.5735,1272.05,223.6165,1282.3,224,1282.2318,224,1281.6086,233.6227,1282.8536,243.2453,1281.6697,252.868,1282.1022,262.4906,1282.3,272.1133,1282.3,272.5452,1272.05,272.0275,1261.8,272.1815,1251.55,272.0813,1241.3,272.2918,1231.05,272.3524,1220.8,272.699,1210.55,272.7843,1200.3,272.1133,1200.9793,272.1133,1200.5546,262.4906,1200.7636,252.868,1201.0022,243.2453,1199.5788,233.6227,1200.3,224" style="stroke: #FF69B4; stroke-width: 3.0;"/><text fill="#FF69B4" font-family="courier" font-size="20" font-weight="bold" lengthAdjust="spacingAndGlyphs" textLength="60" x="1211.3" y="255.1074">State</text><!--entity chainofResponsability--><polygon fill="#222222" points="838.3,8,838.3,8.2102,848.4481,7.5857,858.5963,8.1933,868.7444,8.3997,878.8926,7.2866,889.0407,7.9223,899.1889,7.5735,909.337,7.6165,919.4852,7.9318,929.6333,7.3086,939.7815,8.5536,949.9296,7.3697,960.0778,7.8022,970.2259,8.4319,980.3741,7.9142,990.5222,8.0682,1000.6704,7.9681,1010.8185,8.1785,1020.9667,8.2391,1031.1148,8.5857,1041.263,8.6711,1051.4111,8.6793,1061.5593,8.2546,1071.7074,8.4636,1081.8556,8.7022,1092.0037,7.2788,1102.1519,8.6785,1112.3,8,1112.0035,8,1112.8338,17.6227,1111.805,27.2453,1112.2315,36.868,1113.0416,46.4906,1112.3,56.1133,1112.3,56.0645,1102.1519,56.2186,1092.0037,56.4519,1081.8556,56.5295,1071.7074,56.1094,1061.5593,56.4005,1051.4111,55.5409,1041.263,56.3977,1031.1148,56.6615,1020.9667,56.5578,1010.8185,56.7263,1000.6704,55.6302,990.5222,55.4611,980.3741,55.4919,970.2259,56.0544,960.0778,55.9168,949.9296,56.7947,939.7815,55.9386,929.6333,55.7702,919.4852,56.3415,909.337,55.4464,899.1889,55.5942,889.0407,56.7622,878.8926,56.5489,868.7444,56.8478,858.5963,55.7915,848.4481,56.4325,838.3,56.1133,838.8904,56.1133,837.8276,46.4906,838.2041,36.868,838.426,27.2453,838.9518,17.6227,838.3,8" style="stroke: #FF69B4; stroke-width: 3.0;"/><text fill="#FF69B4" font-family="courier" font-size="20" font-weight="bold" lengthAdjust="spacingAndGlyphs" textLength="252" x="849.3" y="39.1074">chainofResponsability</text><!--entity Command--><polygon fill="#222222" points="451.3,116,451.3,116.2102,460.9364,115.5857,470.5727,116.1933,480.2091,116.3997,489.8455,115.2866,499.4818,115.9223,509.1182,115.5735,518.7545,115.6165,528.3909,115.9318,538.0273,115.3086,547.6636,116.5536,557.3,116,556.6697,116,557.1022,125.6227,557.7319,135.2453,557.2142,144.868,557.3682,154.4906,557.3,164.1133,557.3,164.0813,547.6636,164.2918,538.0273,164.3524,528.3909,164.699,518.7545,164.7843,509.1182,164.7925,499.4818,164.3679,489.8455,164.5769,480.2091,164.8155,470.5727,163.3921,460.9364,164.7918,451.3,164.1133,451.0035,164.1133,451.8338,154.4906,450.805,144.868,451.2315,135.2453,452.0416,125.6227,451.3,116" style="stroke: #FF69B4; stroke-width: 3.0;"/><text fill="#FF69B4" font-family="courier" font-size="20" font-weight="bold" lengthAdjust="spacingAndGlyphs" textLength="84" x="462.3" y="147.1074">Command</text><!--entity templateMethod--><polygon fill="#222222" points="751.3,548,751.3,548.2102,761.3,547.5857,771.3,548.1933,781.3,548.3997,791.3,547.2866,801.3,547.9223,811.3,547.5735,821.3,547.6165,831.3,547.9318,841.3,547.3086,851.3,548.5536,861.3,547.3697,871.3,547.8022,881.3,548.4319,891.3,547.9142,901.3,548.0682,911.3,547.9681,921.3,548.1785,931.3,548.2391,941.3,548,941.8857,548,941.9711,557.6227,941.9793,567.2453,941.5546,576.868,941.7636,586.4906,941.3,596.1133,941.3,596.8155,931.3,595.3921,921.3,596.7918,911.3,595.8168,901.3,596.6471,891.3,595.6183,881.3,596.0448,871.3,596.8549,861.3,596.0645,851.3,596.2186,841.3,596.4519,831.3,596.5295,821.3,596.1094,811.3,596.4005,801.3,595.5409,791.3,596.3977,781.3,596.6615,771.3,596.5578,761.3,596.7263,751.3,596.1133,750.8169,596.1133,750.6478,586.4906,750.6786,576.868,751.2411,567.2453,751.1035,557.6227,751.3,548" style="stroke: #FF69B4; stroke-width: 3.0;"/><text fill="#FF69B4" font-family="courier" font-size="20" font-weight="bold" lengthAdjust="spacingAndGlyphs" textLength="168" x="762.3" y="579.1074">templateMethod</text><!--entity Observer--><polygon fill="#222222" points="1388.3,116,1388.3,116.2102,1398.1333,115.5857,1407.9667,116.1933,1417.8,116.3997,1427.6333,115.2866,1437.4667,115.9223,1447.3,115.5735,1457.1333,115.6165,1466.9667,115.9318,1476.8,115.3086,1486.6333,116.5536,1496.4667,115.3697,1506.3,116,1506.1022,116,1506.7319,125.6227,1506.2142,135.2453,1506.3682,144.868,1506.2681,154.4906,1506.3,164.1133,1506.3,164.2918,1496.4667,164.3524,1486.6333,164.699,1476.8,164.7843,1466.9667,164.7925,1457.1333,164.3679,1447.3,164.5769,1437.4667,164.8155,1427.6333,163.3921,1417.8,164.7918,1407.9667,163.8168,1398.1333,164.6471,1388.3,164.1133,1387.805,164.1133,1388.2315,154.4906,1389.0416,144.868,1388.2513,135.2453,1388.4053,125.6227,1388.3,116" style="stroke: #FF69B4; stroke-width: 3.0;"/><text fill="#FF69B4" font-family="courier" font-size="20" font-weight="bold" lengthAdjust="spacingAndGlyphs" textLength="96" x="1399.3" y="147.1074">Observer</text><!--entity Mediator--><polygon fill="#222222" points="1388.3,8,1388.3,8.2102,1398.1333,7.5857,1407.9667,8.1933,1417.8,8.3997,1427.6333,7.2866,1437.4667,7.9223,1447.3,7.5735,1457.1333,7.6165,1466.9667,7.9318,1476.8,7.3086,1486.6333,8.5536,1496.4667,7.3697,1506.3,8,1506.1022,8,1506.7319,17.6227,1506.2142,27.2453,1506.3682,36.868,1506.2681,46.4906,1506.3,56.1133,1506.3,56.2918,1496.4667,56.3524,1486.6333,56.699,1476.8,56.7843,1466.9667,56.7925,1457.1333,56.3679,1447.3,56.5769,1437.4667,56.8155,1427.6333,55.3921,1417.8,56.7918,1407.9667,55.8168,1398.1333,56.6471,1388.3,56.1133,1387.805,56.1133,1388.2315,46.4906,1389.0416,36.868,1388.2513,27.2453,1388.4053,17.6227,1388.3,8" style="stroke: #FF69B4; stroke-width: 3.0;"/><text fill="#FF69B4" font-family="courier" font-size="20" font-weight="bold" lengthAdjust="spacingAndGlyphs" textLength="96" x="1399.3" y="39.1074">Mediator</text><!--entity Memento--><polygon fill="#222222" points="339.3,332,339.3,332.2102,348.9364,331.5857,358.5727,332.1933,368.2091,332.3997,377.8455,331.2866,387.4818,331.9223,397.1182,331.5735,406.7545,331.6165,416.3909,331.9318,426.0273,331.3086,435.6636,332.5536,445.3,332,444.6697,332,445.1022,341.6227,445.7319,351.2453,445.2142,360.868,445.3682,370.4906,445.3,380.1133,445.3,380.0813,435.6636,380.2918,426.0273,380.3524,416.3909,380.699,406.7545,380.7843,397.1182,380.7925,387.4818,380.3679,377.8455,380.5769,368.2091,380.8155,358.5727,379.3921,348.9364,380.7918,339.3,380.1133,339.0035,380.1133,339.8338,370.4906,338.805,360.868,339.2315,351.2453,340.0416,341.6227,339.3,332" style="stroke: #FF69B4; stroke-width: 3.0;"/><text fill="#FF69B4" font-family="courier" font-size="20" font-weight="bold" lengthAdjust="spacingAndGlyphs" textLength="84" x="350.3" y="363.1074">Memento</text><!--entity Bridge--><polygon fill="#222222" points="220.3,224,220.3,224.2102,230.7444,223.5857,241.1889,224.1933,251.6333,224.3997,262.0778,223.2866,272.5222,223.9223,282.9667,223.5735,293.4111,223.6165,303.8556,223.9318,314.3,224,313.6086,224,314.8536,233.6227,313.6697,243.2453,314.1022,252.868,314.7319,262.4906,314.3,272.1133,314.3,272.0275,303.8556,272.1815,293.4111,272.0813,282.9667,272.2918,272.5222,272.3524,262.0778,272.699,251.6333,272.7843,241.1889,272.7925,230.7444,272.3679,220.3,272.1133,220.7636,272.1133,221.0022,262.4906,219.5788,252.868,220.9785,243.2453,220.0035,233.6227,220.3,224" style="stroke: #FF69B4; stroke-width: 3.0;"/><text fill="#FF69B4" font-family="courier" font-size="20" font-weight="bold" lengthAdjust="spacingAndGlyphs" textLength="72" x="231.3" y="255.1074">Bridge</text><!--entity Strategy--><polygon fill="#222222" points="1047.3,224,1047.3,224.2102,1057.1333,223.5857,1066.9667,224.1933,1076.8,224.3997,1086.6333,223.2866,1096.4667,223.9223,1106.3,223.5735,1116.1333,223.6165,1125.9667,223.9318,1135.8,223.3086,1145.6333,224.5536,1155.4667,223.3697,1165.3,224,1165.1022,224,1165.7319,233.6227,1165.2142,243.2453,1165.3682,252.868,1165.2681,262.4906,1165.3,272.1133,1165.3,272.2918,1155.4667,272.3524,1145.6333,272.699,1135.8,272.7843,1125.9667,272.7925,1116.1333,272.3679,1106.3,272.5769,1096.4667,272.8155,1086.6333,271.3921,1076.8,272.7918,1066.9667,271.8168,1057.1333,272.6471,1047.3,272.1133,1046.805,272.1133,1047.2315,262.4906,1048.0416,252.868,1047.2513,243.2453,1047.4053,233.6227,1047.3,224" style="stroke: #FF69B4; stroke-width: 3.0;"/><text fill="#FF69B4" font-family="courier" font-size="20" font-weight="bold" lengthAdjust="spacingAndGlyphs" textLength="96" x="1058.3" y="255.1074">Strategy</text><!--entity factoryMethod--><polygon fill="#222222" points="757.3,440,757.3,440.2102,767.1889,439.5857,777.0778,440.1933,786.9667,440.3997,796.8556,439.2866,806.7444,439.9223,816.6333,439.5735,826.5222,439.6165,836.4111,439.9318,846.3,439.3086,856.1889,440.5536,866.0778,439.3697,875.9667,439.8022,885.8556,440.4319,895.7444,439.9142,905.6333,440.0682,915.5222,439.9681,925.4111,440.1785,935.3,440,935.5391,440,935.8857,449.6227,935.9711,459.2453,935.9793,468.868,935.5546,478.4906,935.3,488.1133,935.3,488.5769,925.4111,488.8155,915.5222,487.3921,905.6333,488.7918,895.7444,487.8168,885.8556,488.6471,875.9667,487.6183,866.0778,488.0448,856.1889,488.8549,846.3,488.0645,836.4111,488.2186,826.5222,488.4519,816.6333,488.5295,806.7444,488.1094,796.8556,488.4005,786.9667,487.5409,777.0778,488.3977,767.1889,488.6615,757.3,488.1133,757.7445,488.1133,757.913,478.4906,756.8169,468.868,756.6478,459.2453,756.6786,449.6227,757.3,440" style="stroke: #FF69B4; stroke-width: 3.0;"/><text fill="#FF69B4" font-family="courier" font-size="20" font-weight="bold" lengthAdjust="spacingAndGlyphs" textLength="156" x="768.3" y="471.1074">factoryMethod</text><!--entity Adapter--><polygon fill="#222222" points="1541.3,8,1541.3,8.2102,1550.9364,7.5857,1560.5727,8.1933,1570.2091,8.3997,1579.8455,7.2866,1589.4818,7.9223,1599.1182,7.5735,1608.7545,7.6165,1618.3909,7.9318,1628.0273,7.3086,1637.6636,8.5536,1647.3,8,1646.6697,8,1647.1022,17.6227,1647.7319,27.2453,1647.2142,36.868,1647.3682,46.4906,1647.3,56.1133,1647.3,56.0813,1637.6636,56.2918,1628.0273,56.3524,1618.3909,56.699,1608.7545,56.7843,1599.1182,56.7925,1589.4818,56.3679,1579.8455,56.5769,1570.2091,56.8155,1560.5727,55.3921,1550.9364,56.7918,1541.3,56.1133,1541.0035,56.1133,1541.8338,46.4906,1540.805,36.868,1541.2315,27.2453,1542.0416,17.6227,1541.3,8" style="stroke: #FF69B4; stroke-width: 3.0;"/><text fill="#FF69B4" font-family="courier" font-size="20" font-weight="bold" lengthAdjust="spacingAndGlyphs" textLength="84" x="1552.3" y="39.1074">Adapter</text><!--entity Proxy--><polygon fill="#222222" points="1682.3,8,1682.3,8.2102,1692.55,7.5857,1702.8,8.1933,1713.05,8.3997,1723.3,7.2866,1733.55,7.9223,1743.8,7.5735,1754.05,7.6165,1764.3,8,1764.2318,8,1763.6086,17.6227,1764.8536,27.2453,1763.6697,36.868,1764.1022,46.4906,1764.3,56.1133,1764.3,56.5452,1754.05,56.0275,1743.8,56.1815,1733.55,56.0813,1723.3,56.2918,1713.05,56.3524,1702.8,56.699,1692.55,56.7843,1682.3,56.1133,1682.9793,56.1133,1682.5546,46.4906,1682.7636,36.868,1683.0022,27.2453,1681.5788,17.6227,1682.3,8" style="stroke: #FF69B4; stroke-width: 3.0;"/><text fill="#FF69B4" font-family="courier" font-size="20" font-weight="bold" lengthAdjust="spacingAndGlyphs" textLength="60" x="1693.3" y="39.1074">Proxy</text><!--link Facade to Singleton--><path d="M268.3,488 L268.5802,488 L267.7476,498.906 L268.5577,509.812 L268.8329,520.718 L267.3488,531.624 L268.3,542.53 " fill="none" style="stroke: #A9A9A9; stroke-width: 2.0; stroke-dasharray: 7.0,7.0;"/><polygon fill="#A9A9A9" points="268.3,547.68,268.364,547.7085,268.9738,545.8239,269.9589,544.1062,270.8217,542.3341,271.2827,540.3834,272.3,538.68,272.2817,538.6617,271.3995,539.3795,270.6096,540.1896,269.8839,541.0639,268.937,541.717,268.3,542.68,268.4305,542.8105,267.3514,541.7314,266.6534,541.0334,266.0018,540.3818,265.0798,539.4598,264.3,538.68,264.3208,538.6892,265.0903,540.4757,265.9544,542.3042,266.7728,544.1124,267.6784,545.9593,268.3,547.68" style="stroke: #A9A9A9; stroke-width: 2.0;"/><!--link Builder to abstractFactory--><path d="M132.3,272 L132.5802,272 L131.7476,282.906 L132.5577,293.812 L132.8329,304.718 L131.3488,315.624 L132.3,326.53 " fill="none" style="stroke: #A9A9A9; stroke-width: 2.0; stroke-dasharray: 7.0,7.0;"/><polygon fill="#A9A9A9" points="132.3,331.68,132.364,331.7085,132.9738,329.8239,133.9589,328.1062,134.8217,326.3341,135.2827,324.3834,136.3,322.68,136.2817,322.6617,135.3995,323.3795,134.6096,324.1896,133.8839,325.0639,132.937,325.717,132.3,326.68,132.4305,326.8105,131.3514,325.7314,130.6534,325.0334,130.0018,324.3818,129.0798,323.4598,128.3,322.68,128.3208,322.6892,129.0903,324.4757,129.9544,326.3042,130.7728,328.1124,131.6784,329.9593,132.3,331.68" style="stroke: #A9A9A9; stroke-width: 2.0;"/><!--link Builder to Prototype--><path d="M165.76,272.27 L165.9196,272.5003 L173.3525,277.296 L181.7212,283.4418 L189.7851,289.148 L196.8469,293.4082 L205.2369,299.5848 L212.8792,304.6826 L220.819,310.2097 L228.9657,316.0353 L236.3996,320.8323 L245.2524,327.6767 L252.2604,331.8593 L260.6463,338.03 L260.4969,337.8127 L269.2053,344.1621 L277.0472,349.2506 L285.3963,355.0773 L293.5535,360.6246 L301.8105,366.3172 L301.8549,366.3829 L304.5905,368.2468 L307.3972,370.2159 L310.1389,372.089 L312.8613,373.9336 L315.4125,375.5252 L315.4741,375.6201 L316.9022,376.5929 L318.3375,377.5768 L319.3704,377.9413 L321.0868,379.3579 L322.3,380 L322.2351,379.8853 L325.2412,381.8051 L327.8402,383.0058 L330.7579,384.7695 L333.7595,386.6814 L336.4214,387.9933 L336.4111,387.9742 L339.3511,389.61 L342.3079,391.2767 L345.2317,392.8826 L348.0501,394.294 L350.9583,395.8711 L351.0173,395.9843 L353.7943,397.1869 L356.9242,399.0659 L359.9322,400.7113 L362.8646,402.2118 L365.7269,403.5781 L365.8497,403.8213 L368.5935,404.8825 L371.523,406.3116 L374.4926,407.8199 L377.5686,409.5393 L380.5438,411.0588 L380.5053,410.9803 L383.6134,412.7705 L386.3821,413.8686 L389.2854,415.2412 L392.3335,416.909 L395.2251,418.2577 L395.0973,417.9903 L397.9981,419.4219 L401.0943,421.2627 L403.9259,422.5495 L406.8556,424.0417 L409.5873,425.1195 L409.5274,424.9897 L415.0534,427.7464 L420.5105,430.3539 L425.7189,432.4232 L431.1956,435.0732 L436.62,437.61 " fill="none" style="stroke: #A9A9A9; stroke-width: 2.0; stroke-dasharray: 7.0,7.0;"/><polygon fill="#A9A9A9" points="441.58,439.85,441.6323,439.8966,440.1655,438.2883,439.0052,436.9534,437.7451,435.5295,436.1568,433.8127,435.0228,432.5013,434.9985,432.4922,435.2898,433.5094,435.7032,434.5727,436.2015,435.6682,436.4072,436.6531,437.0228,437.7928,437.088,437.9655,435.8902,437.9963,434.8829,438.5312,433.8988,439.1275,432.7795,439.3661,431.7313,439.7929,431.7314,439.8156,433.701,439.7936,435.6711,439.8752,437.641,439.9069,439.6114,440.0338,441.58,439.85" style="stroke: #A9A9A9; stroke-width: 2.0;"/><!--link Builder to Singleton--><path d="M79.07,271.7 L79.1166,271.7809 L77.1052,272.6192 L75.3671,273.9319 L73.54,275.0901 L71.4203,275.7401 L69.7056,277.0936 L69.6871,277.0645 L67.7245,278.1324 L65.8555,279.347 L64.0517,280.6637 L62.0235,281.6288 L60.3095,283.0864 L60.4524,283.2867 L58.2971,284.1781 L56.559,285.6543 L54.8718,287.2019 L52.8884,288.3343 L51.0608,289.6851 L51.0799,289.7086 L49.2675,291.1163 L47.5419,292.6312 L45.7744,294.0944 L44.0868,295.6565 L42.1388,296.8963 L42.3419,297.1146 L40.6611,298.6834 L38.8493,300.1113 L37.2293,301.7453 L35.6183,303.3891 L33.7224,304.7267 L33.4859,304.5104 L32.3987,306.6214 L30.5326,308.0203 L29.2587,309.9605 L27.375,311.3433 L25.9911,313.183 L25.9668,313.1646 L24.8806,315.1994 L23.2269,316.8055 L21.9081,318.6645 L20.6174,320.5448 L19.1239,322.2719 L19.2826,322.3669 L17.9576,324.2166 L16.9039,326.2287 L15.4113,327.9781 L14.5732,330.1193 L13.3,332 L13.5238,332.0963 L12.3801,334.637 L11.3475,337.2255 L9.7987,339.5918 L8.6283,342.121 L7.7931,344.7945 L7.5204,344.7511 L7.4122,347.0188 L6.9966,349.2375 L7.0268,351.5272 L6.296,353.6957 L6.0175,355.9363 L5.8671,355.9111 L6.4907,358.1877 L6.4714,360.3569 L6.9093,362.6024 L7.7945,364.9226 L7.8831,367.1098 L8.0616,367.1849 L9.2674,369.8143 L9.918,372.2105 L11.264,374.8989 L12.4585,377.5236 L13.3,380 L13.116,379.8988 L14.8936,382.9439 L16.611,385.9559 L18.4467,389.033 L19.8222,391.8569 L21.4548,394.8222 L21.6272,394.9343 L23.099,397.534 L24.9035,400.3501 L27.1941,403.4821 L28.5898,406.0324 L30.7075,409.0521 L30.8884,409.1878 L32.8268,411.8345 L34.704,414.4353 L36.7193,417.1397 L39.0541,420.0837 L40.9369,422.6887 L40.8355,422.6026 L43.3544,425.4676 L45.1838,427.7467 L47.7972,430.692 L49.9691,433.2623 L52.0222,435.7314 L52.1011,435.8064 L54.4014,438.2354 L56.9844,440.9329 L59.312,443.3879 L61.5329,445.7415 L63.8424,448.1793 L63.9246,448.2656 L66.2892,450.5079 L69.0357,453.1507 L71.3503,455.3405 L73.8425,457.7167 L76.2764,460.0316 L76.0989,459.8277 L78.7436,462.147 L81.6022,464.7119 L84.1581,466.9292 L86.6055,469.022 L89.2035,471.2875 L89.1139,471.1758 L91.8024,473.3434 L94.3324,475.3131 L97.2982,477.8266 L100.0483,480.071 L102.5025,481.9462 L102.642,482.1341 L105.3966,484.2064 L107.8863,485.9217 L110.6556,488.0138 L113.2398,489.8565 L116.0525,492.007 L116.1243,492.1108 L118.8509,493.9895 L121.6642,495.9936 L124.2025,497.6001 L126.9626,499.5273 L129.7326,501.4688 L129.8397,501.6343 L132.6075,503.453 L135.0845,504.8225 L137.8993,506.7139 L140.72,508.6144 L143.4218,510.3311 L143.2807,510.0992 L146.2189,512.1177 L148.9123,513.7338 L151.5449,515.25 L154.3165,516.9946 L156.9991,518.593 L157.1603,518.8738 L159.5987,520.0045 L162.4065,521.7786 L165.0689,523.2994 L167.7002,524.7661 L170.3435,526.2536 L170.3734,526.3086 L172.9657,527.7096 L175.4073,528.8333 L178.0528,530.3322 L180.638,531.7202 L183.3341,533.3122 L183.3471,533.3374 L185.8552,534.6381 L188.3734,535.9584 L190.7843,537.0707 L193.333,538.4501 L195.8499,539.7679 L195.8264,539.7199 L198.3469,541.1685 L200.7015,542.2789 L202.9069,543.0855 L205.3717,544.4205 L207.77,545.62 " fill="none" style="stroke: #A9A9A9; stroke-width: 2.0; stroke-dasharray: 7.0,7.0;"/><polygon fill="#A9A9A9" points="212.53,547.88,212.5831,547.9257,211.1405,546.2969,210.0091,544.936,208.7764,543.4878,207.2103,541.7528,206.1057,540.4149,206.0813,540.4062,206.3528,541.4323,206.7472,542.5024,207.2271,543.6031,207.4125,544.5985,208.0104,545.7414,208.0726,545.9152,206.8744,545.9245,205.8576,546.4412,204.863,547.0198,203.7396,547.2383,202.6839,547.6462,202.6845,547.6689,204.6529,547.6823,206.6238,547.7992,208.5935,547.8662,210.5654,548.0284,212.53,547.88" style="stroke: #A9A9A9; stroke-width: 2.0;"/><!--link Builder to Composite--><path d="M166.59,221 L166.6405,221.0786 L168.9582,219.258 L171.572,217.8981 L174.0894,216.3881 L176.2896,214.3849 L178.9289,213.0645 L178.912,213.0344 L181.5111,211.3971 L184.1954,209.9116 L186.939,208.5317 L189.4783,206.788 L192.3037,205.5538 L192.4074,205.7769 L194.9998,203.9922 L197.8949,202.859 L200.8269,201.8053 L203.5441,200.2891 L206.3742,199.0161 L206.3842,199.0447 L209.2547,197.9995 L212.1706,197.0846 L215.0646,196.1068 L218.0003,195.2491 L220.8,194 L220.8688,194.2902 L224.4336,193.4484 L227.954,192.4194 L231.5394,191.6643 L235.1279,190.9222 L238.6198,189.7731 L238.5611,189.458 L240.6834,189.6954 L242.6124,188.8952 L244.6884,188.8837 L246.613,188.06 L248.6617,187.9021 L248.6569,187.872 L250.8589,187.8851 L252.9489,187.1958 L255.105,186.9209 L257.2667,186.6809 L259.3882,186.1898 L259.4133,186.3731 L261.6598,185.8769 L263.9491,185.694 L266.169,185.0043 L268.4925,185.0705 L270.7471,184.6341 L270.7755,184.8761 L273.1579,184.5501 L275.5543,184.3442 L277.8853,183.5802 L280.2642,183.2253 L282.6858,183.2329 L282.6582,182.9581 L285.1764,182.9571 L287.6635,182.6464 L290.1956,182.7849 L292.6509,182.1566 L295.1518,181.984 L295.1389,181.8321 L297.7486,181.8654 L300.3031,181.2492 L302.8969,181.0949 L305.529,181.3924 L308.0928,180.8853 L308.1066,181.0785 L310.7887,181.0208 L313.4281,180.3624 L316.121,180.4564 L318.8022,180.3865 L321.4563,179.9346 L321.444,179.725 L324.2005,179.7312 L326.953,179.6686 L329.7134,179.7409 L332.443,179.289 L335.1898,179.1299 L335.1995,179.3352 L337.9885,178.7518 L340.7961,178.5648 L343.631,178.9568 L346.4157,178.2827 L349.2409,178.4688 L349.2491,178.6949 L352.1075,178.4567 L354.9631,178.1421 L357.825,178.0001 L360.7014,178.2571 L363.5572,177.9494 L363.5544,177.8164 L369.4065,178.0879 L375.2393,177.4548 L381.094,177.8502 L386.9364,177.6666 L392.7755,177.3268 L392.7758,177.4357 L398.7054,177.3315 L404.6362,177.617 L410.5659,177.5504 L416.4953,177.3366 L422.425,177.245 L422.4268,177.3642 L428.3564,177.2755 L434.2942,177.7401 L440.2228,177.5789 L446.1551,177.6751 L452.0862,177.6868 L452.0775,177.4165 L457.9311,177.6964 L463.7952,178.3018 L469.6445,178.4466 L475.4883,178.4262 L481.3396,178.635 L481.3324,178.492 L487.0199,178.8253 L492.6946,178.9054 L498.4046,179.6816 L504.0971,180.1133 L509.7656,180.0725 L509.782,180.3059 L515.2231,180.7625 L520.633,180.7757 L526.0758,181.257 L531.4968,181.4284 L536.9447,181.9822 L536.9556,182.108 L539.5523,182.3168 L542.1622,182.6774 L544.7303,182.5564 L547.3322,182.8239 L549.9355,183.1087 L549.9549,183.3049 L552.4646,183.6073 L554.9218,183.3773 L557.44,183.7659 L559.9594,184.1653 L562.4572,184.3469 L562.4269,184.0771 L564.8748,184.7725 L567.2701,184.9999 L569.6523,185.111 L572.0644,185.4879 L574.4574,185.6946 L574.4983,186.0158 L576.7251,185.8476 L579.0456,186.4155 L581.3292,186.6935 L583.6049,186.9096 L585.8836,187.1496 L585.8926,187.2116 L588.0508,187.5115 L590.1639,187.4991 L592.3381,187.9094 L594.4942,188.1947 L596.6835,188.7097 L596.6881,188.7377 L598.714,189.081 L600.7435,189.446 L602.7351,189.5801 L604.7754,190.0107 L606.8044,190.373 L606.7939,190.3206 L610.4542,191.3497 L614.0401,192.0096 L617.5591,192.3377 L621.1945,193.2428 L624.8,194 L624.7289,193.7535 L628.3587,195.1389 L631.9214,196.2913 L635.4367,197.2797 L638.8393,197.8769 L642.4161,199.0786 L642.4898,199.2712 L645.7791,200.1023 L649.4099,201.8257 L652.8116,202.9504 L656.3556,204.4469 L659.8213,205.7387 L659.8658,205.8358 L663.2492,207.4621 L666.3686,208.5132 L669.9306,210.5288 L673.2159,211.9413 L676.5233,213.402 L676.5963,213.5421 L679.7783,215.3143 L682.7271,216.6394 L685.8633,218.3239 L688.9725,219.9565 L692.03,221.49 " fill="none" style="stroke: #A9A9A9; stroke-width: 2.0; stroke-dasharray: 7.0,7.0;"/><polygon fill="#A9A9A9" points="696.4,223.93,696.4561,223.9719,695.1105,222.2693,694.0939,220.8124,692.9702,219.2755,691.4941,217.4754,690.5058,216.0396,690.4809,216.0326,690.6755,217.0901,690.9959,218.183,691.4037,219.3006,691.5103,220.3333,692.0387,221.4848,692.0887,221.6624,690.8927,221.5892,689.8427,222.0345,688.8106,222.5431,687.6748,222.6836,686.5935,223.0177,686.5956,223.0403,688.5538,223.1896,690.5216,223.4419,692.4848,223.6444,694.4568,223.9419,696.4,223.93" style="stroke: #A9A9A9; stroke-width: 2.0;"/><polygon fill="#A9A9A9" points="162.28,223.99,162.2933,224.0588,164.188,223.4816,166.1605,223.3077,168.1077,223.0025,169.9717,222.2654,171.9509,222.1261,171.9463,222.1006,170.8121,221.7872,169.7009,221.6024,168.6057,221.5069,167.4554,221.1034,166.3822,221.1313,166.5639,221.1638,166.3743,219.9806,166.7152,218.8923,167.1208,217.8154,167.1499,216.6713,167.377,215.5626,167.3965,215.5744,166.3485,217.2426,165.3891,218.9644,164.387,220.6603,163.4665,222.4056,162.28,223.99" style="stroke: #A9A9A9; stroke-width: 2.0;"/><!--link Composite to Visitor--><path d="M790.5,272 L790.6061,272.2594 L799.3345,275.19 L808.6851,279.641 L817.8331,283.597 L826.3147,285.9247 L835.6795,290.4104 L844.5471,293.6812 L853.6126,297.4355 L862.8156,301.5259 L871.5446,304.4581 L881.2171,309.6957 L889.6629,311.936 L898.9251,316.171 L908.2869,320.6493 L917.0692,323.7117 L926.1907,327.603 L935.2,331.22 " fill="none" style="stroke: #A9A9A9; stroke-width: 2.0; stroke-dasharray: 7.0,7.0;"/><polygon fill="#A9A9A9" points="939.87,333.13,939.9205,333.1786,938.4053,331.6143,937.1862,330.3346,935.8707,328.9623,934.2381,327.2852,933.0444,326.03,933.0205,326.0199,933.3524,327.0175,933.8046,328.0658,934.3405,329.1493,934.5881,330.1114,935.2395,331.2435,935.3112,331.4136,934.1153,331.4889,933.1285,332.0608,932.1673,332.6933,931.0576,332.9733,930.026,333.4387,930.0267,333.4614,931.9945,333.3663,933.9655,333.3747,935.9349,333.3332,937.9073,333.3869,939.87,333.13" style="stroke: #A9A9A9; stroke-width: 2.0;"/><!--link Composite to Decorator--><path d="M708.7,272 L708.8873,272.2085 L700.4996,278.624 L693.2097,286.2617 L685.5624,293.5014 L676.7393,299.4324 L669.4745,307.0979 L661.3325,313.787 L653.5395,320.8646 L646.05,328.28 " fill="none" style="stroke: #A9A9A9; stroke-width: 2.0; stroke-dasharray: 7.0,7.0;"/><polygon fill="#A9A9A9" points="642.26,331.68,642.2817,331.7466,644.0904,330.9392,646.0261,330.5223,647.9205,329.9782,649.6788,329.0159,651.6255,328.6325,651.6241,328.6066,650.4882,328.4311,649.3592,328.3859,648.2349,328.4314,647.0942,328.1645,645.9765,328.3352,646.1608,328.3449,645.8261,327.1943,646.0296,326.0721,646.2986,324.9533,646.1858,323.8144,646.2738,322.6861,646.2946,322.6954,645.4613,324.4806,644.7226,326.3079,643.9383,328.1149,643.241,329.9608,642.26,331.68" style="stroke: #A9A9A9; stroke-width: 2.0;"/><!--link Composite to Iterator--><path d="M758.6,272 L758.7926,272.2036 L765.5966,278.5787 L773.5296,286.1472 L781.095,293.3271 L787.4512,299.2291 L795.41,306.8247 L802.4666,313.467 L809.8823,320.4886 L817.61,327.84 " fill="none" style="stroke: #A9A9A9; stroke-width: 2.0; stroke-dasharray: 7.0,7.0;"/><polygon fill="#A9A9A9" points="821.66,331.68,821.7247,331.7069,820.7773,329.8078,820.2092,328.0661,819.5177,326.2732,818.4199,324.3117,817.8844,322.5836,817.8585,322.5829,817.7719,323.7108,817.816,324.8422,817.9507,325.9759,817.7728,327.1015,818.0329,328.2385,818.0377,328.423,816.8964,328.0582,815.7692,328.232,814.6437,328.4715,813.5082,328.3287,812.378,328.387,812.3856,328.4085,814.2308,329.0356,816.1107,329.7603,817.9738,330.4379,819.8689,331.2054,821.66,331.68" style="stroke: #A9A9A9; stroke-width: 2.0;"/><!--link Composite to Flyweight--><path d="M799.55,264.86 L799.6171,265.1321 L808.8525,266.6491 L818.4811,269.7612 L827.9816,272.3538 L837.0611,273.2383 L846.6986,276.3867 L856.1581,278.8128 L856.0202,278.2611 L865.5208,280.6885 L875.1095,283.4681 L884.3946,285.0337 L894.284,289.0159 L903.3878,289.8562 L913.0143,292.7874 L922.565,295.415 L922.7072,295.9731 L932.692,297.8913 L942.898,300.6774 L953.0203,303.135 L963.2448,305.9941 L973.4201,308.6595 L983.6894,311.6943 L993.6519,313.5247 L993.8782,314.3903 L1003.9736,317.0402 L1013.9229,319.1318 L1024.086,322.0407 L1034.2591,324.9879 L1043.8715,325.791 L1054.4363,330.2359 L1064.3,332 L1064.2658,331.8727 L1066.6976,332.8571 L1068.9149,333.0435 L1071.3001,333.8546 L1073.7296,334.8303 L1075.98,335.14 " fill="none" style="stroke: #A9A9A9; stroke-width: 2.0; stroke-dasharray: 7.0,7.0;"/><polygon fill="#A9A9A9" points="1081,336.51,1081.0443,336.5643,1079.3869,335.1572,1077.9892,334.0683,1076.507,332.8758,1074.7465,331.3426,1073.3712,330.281,1073.3487,330.2681,1073.8088,331.1929,1074.3823,332.1825,1075.0346,333.217,1075.4153,334.0965,1076.1765,335.1932,1076.268,335.3535,1075.0899,335.5718,1074.1789,336.2581,1073.3006,337.0014,1072.2325,337.4127,1071.2643,337.9986,1071.2677,338.021,1073.2098,337.6903,1075.1676,337.462,1077.1178,337.1842,1079.0824,337.0007,1081,336.51" style="stroke: #A9A9A9; stroke-width: 2.0;"/><!--link Composite to Prototype--><path d="M734.12,272.25 L734.2132,272.2565 L733.7741,274.5615 L733.8812,276.9045 L733.8105,279.2352 L733.1547,281.525 L733.3088,283.8714 L733.2745,283.8675 L732.8262,286.4596 L732.551,289.0712 L732.3961,291.6964 L731.8267,294.2749 L731.8378,296.9188 L732.0806,296.9587 L731.1001,299.6781 L730.8284,302.5142 L730.6432,305.3644 L729.9548,308.1319 L729.5311,310.943 L729.5606,310.9497 L728.8535,313.8502 L728.281,316.7814 L727.6435,319.6978 L727.13,322.6425 L726.2125,325.495 L726.4975,325.5828 L725.5997,328.51 L724.5181,331.3806 L723.7056,334.3341 L722.9057,337.2915 L721.7061,340.1258 L721.4097,340.0038 L720.811,343.0927 L719.2362,345.7798 L718.4034,348.7724 L716.8065,351.4504 L715.8359,354.3863 L715.8093,354.3716 L714.6426,357.2336 L712.853,359.7522 L711.4309,362.4735 L710.0397,365.2118 L708.4259,367.8273 L708.5739,367.9383 L706.5993,370.2608 L704.8777,372.773 L702.7468,374.9783 L701.2263,377.6413 L699.3,380 L699.4722,380.1724 L696.691,382.8857 L693.9954,385.6847 L690.9024,388.086 L688.1007,390.7788 L685.557,393.7299 L685.3854,393.5135 L682.4757,396.1398 L679.3727,398.5223 L676.5502,401.2585 L673.2488,403.3908 L670.232,405.882 L670.1494,405.7539 L666.9797,408.101 L663.4566,409.9003 L660.1848,412.0892 L657.1589,414.6591 L653.6951,416.5504 L653.7863,416.7212 L650.3731,418.694 L646.6762,420.1356 L643.3346,422.2425 L639.9156,424.2046 L636.3163,425.8287 L636.2305,425.6371 L632.7287,427.3863 L629.1987,429.0728 L625.7239,430.8826 L622.0348,432.2129 L618.4653,433.811 L618.538,434.0034 L614.7878,434.9368 L611.1778,436.2415 L607.7726,438.0885 L603.9904,438.937 L600.5123,440.5911 L600.5814,440.8065 L597.0034,441.8129 L593.4019,442.7464 L589.8533,443.8444 L586.4265,445.3226 L582.8272,446.2628 L582.7922,446.1345 L579.4871,447.448 L575.9436,447.8887 L572.6712,449.3218 L569.2462,450.1962 L565.78,450.92 " fill="none" style="stroke: #A9A9A9; stroke-width: 2.0; stroke-dasharray: 7.0,7.0;"/><polygon fill="#A9A9A9" points="560.71,452.16,560.7225,452.2289,562.6238,452.3744,564.5982,452.924,566.5488,453.342,568.4212,453.3272,570.4019,453.9115,570.3884,453.8894,569.3611,453.2026,568.4017,452.6273,567.4894,452.1297,566.4146,451.3647,565.5674,450.9742,565.7251,451.0701,565.9753,449.8982,566.6859,449.0062,567.4528,448.1483,567.8927,447.0918,568.5046,446.1397,568.5185,446.1577,566.9392,447.3354,565.4232,448.5949,563.8766,449.815,562.3883,451.1105,560.71,452.16" style="stroke: #A9A9A9; stroke-width: 2.0;"/><!--link Interpreter to Visitor--><path d="M930.93,164.31 L931.1964,164.3971 L933.5344,173.7059 L937.4338,183.5254 L940.8247,193.1786 L942.5436,202.2849 L946.4786,212.116 L949.166,221.5391 L952.3499,231.1246 L955.8789,240.8229 L958.2186,250.1323 L962.9257,260.216 L964.5548,269.2929 L968.2323,279.0398 L972.1597,288.8685 L974.6331,298.2215 L977.9577,307.853 L980.9601,317.3791 L984.13,326.96 " fill="none" style="stroke: #A9A9A9; stroke-width: 2.0; stroke-dasharray: 7.0,7.0;"/><polygon fill="#A9A9A9" points="985.69,331.72,985.7597,331.7271,985.7512,329.7463,986.1513,327.807,986.4184,325.8542,986.2478,323.8571,986.683,321.9213,986.6599,321.9096,986.0456,322.8668,985.5479,323.8829,985.1311,324.94,984.4352,325.8559,984.1303,326.9695,984.2136,327.1342,983.0259,326.2715,982.0813,325.8896,981.1664,325.5664,980.0789,324.9018,979.0822,324.4168,979.0991,324.432,980.3959,325.8703,981.7694,327.378,983.106,328.8522,984.5132,330.3903,985.69,331.72" style="stroke: #A9A9A9; stroke-width: 2.0;"/><!--link Interpreter to Composite--><path d="M882.29,164 L882.4271,164.2444 L873.5023,168.2948 L865.3811,173.7781 L856.9982,178.7948 L847.7547,182.277 L839.6518,187.793 L830.9068,192.164 L822.4174,196.9907 L814.1055,202.1341 L805.1816,206.186 L797.4761,212.4105 L788.1864,215.8104 L780.08,221.32 " fill="none" style="stroke: #A9A9A9; stroke-width: 2.0; stroke-dasharray: 7.0,7.0;"/><polygon fill="#A9A9A9" points="775.56,223.86,775.5665,223.9298,777.5085,223.54,779.4886,223.5592,781.4562,223.4453,783.3832,222.8934,785.3665,222.9477,785.3595,222.9228,784.2389,222.5043,783.1538,222.2115,782.0932,222.0061,780.9479,221.4996,779.9213,221.4148,780.099,221.4648,780.0257,220.2688,780.471,219.2189,780.9796,218.1867,781.1201,217.0509,781.4542,215.9696,781.4724,215.9832,780.2668,217.5413,779.1442,219.1614,777.9815,220.7515,776.8952,222.3988,775.56,223.86" style="stroke: #A9A9A9; stroke-width: 2.0;"/><!--link Interpreter to Iterator--><path d="M914.91,164.31 L915.1737,164.4049 L910.9478,173.6906 L908.2678,183.5325 L905.0844,193.1934 L900.2456,202.2586 L897.6007,212.1132 L893.7208,221.5234 L890.3324,231.1104 L887.2857,240.8204 L883.0614,250.1067 L881.1811,260.2364 L876.2534,269.2696 L873.3536,279.0325 L870.7013,288.8844 L866.6094,298.2183 L863.3603,307.8555 L859.7923,317.3779 L856.39,326.96 " fill="none" style="stroke: #A9A9A9; stroke-width: 2.0; stroke-dasharray: 7.0,7.0;"/><polygon fill="#A9A9A9" points="854.68,331.72,854.7306,331.7685,855.9435,330.2025,857.4528,328.9208,858.8657,327.5465,859.961,325.8679,861.4958,324.6105,861.4848,324.5871,860.4114,324.9631,859.3936,325.4572,858.4143,326.0335,857.302,326.3267,856.3761,327.0165,856.5431,327.095,855.7048,325.9032,855.3541,324.9405,855.0629,324.0059,854.4255,322.9085,853.9702,321.8968,853.9929,321.8984,854.1015,323.8606,854.3135,325.8303,854.4756,327.7964,854.7328,329.7694,854.68,331.72" style="stroke: #A9A9A9; stroke-width: 2.0;"/><!--link Interpreter to Flyweight--><path d="M939.43,164.34 L939.5057,164.3948 L940.8927,166.4572 L942.7232,168.8409 L944.4093,171.1199 L945.6205,173.0549 L947.489,175.4662 L947.4614,175.4455 L949.2043,177.8566 L951.0867,180.3718 L953.0662,182.9594 L954.7114,185.2975 L956.8248,187.985 L957.0197,188.1352 L958.6921,190.5236 L960.9335,193.3506 L963.2442,196.2311 L965.1511,198.8003 L967.2704,201.5332 L967.2941,201.5522 L969.537,204.3672 L971.8877,207.2685 L974.1864,210.1282 L976.5842,213.0674 L978.6588,215.7475 L978.8874,215.9391 L981.323,218.8448 L983.6111,221.627 L986.1151,224.5901 L988.6293,227.5616 L990.8229,230.2646 L990.5827,230.0524 L993.6034,233.3556 L995.8333,235.96 L998.6644,239.0957 L1000.8763,241.6842 L1003.5958,244.7213 L1003.5736,244.7004 L1006.4787,247.7538 L1008.8659,250.3196 L1011.5587,253.1731 L1014.2771,256.0507 L1016.8105,258.7541 L1016.9401,258.8861 L1019.5072,261.4021 L1022.2957,264.1436 L1024.7259,266.5201 L1027.6907,269.441 L1030.3,272 L1030.4636,272.1806 L1032.1904,273.739 L1033.9985,275.3872 L1035.4291,276.6188 L1037.1364,278.1557 L1039.0888,279.9631 L1038.9098,279.7529 L1040.9107,281.5089 L1042.7098,283.0279 L1044.8016,284.8907 L1046.3938,286.1666 L1048.283,287.7914 L1048.1872,287.6728 L1050.2404,289.3989 L1051.8843,290.6179 L1053.8192,292.1976 L1056.039,294.1301 L1057.7516,295.4343 L1057.8698,295.5877 L1059.8733,297.1742 L1061.5092,298.2838 L1063.6055,299.9908 L1065.6015,301.5677 L1067.3638,302.8413 L1067.2389,302.6725 L1069.2634,304.2311 L1071.247,305.7345 L1073.3109,307.3465 L1075.0625,308.5362 L1076.9886,309.9618 L1077.108,310.1292 L1078.7469,311.1182 L1080.6164,312.4303 L1082.8225,314.2142 L1084.4088,315.1294 L1086.4952,316.7455 L1086.6237,316.9316 L1088.3988,318.1003 L1090.1304,319.206 L1091.9602,320.4538 L1094.017,322.0302 L1095.7526,323.1417 L1095.6785,323.0312 L1097.6747,324.5518 L1099.1667,325.321 L1101.232,326.9445 L1102.9745,328.0871 L1104.63,329.1 " fill="none" style="stroke: #A9A9A9; stroke-width: 2.0; stroke-dasharray: 7.0,7.0;"/><polygon fill="#A9A9A9" points="1108.86,331.88,1108.9189,331.918,1107.6768,330.1495,1106.78,328.6035,1105.7708,326.9851,1104.3918,325.1284,1103.5246,323.6015,1103.4993,323.5962,1103.6161,324.6801,1103.8608,325.7906,1104.1944,326.9197,1104.2216,327.9849,1104.6779,329.1395,1104.7155,329.3202,1103.5275,329.1645,1102.4493,329.5363,1101.3844,329.9725,1100.2417,330.0342,1099.1399,330.2928,1099.1435,330.3153,1101.0822,330.5997,1103.0375,330.9864,1104.9848,331.3238,1106.9474,331.7552,1108.86,331.88" style="stroke: #A9A9A9; stroke-width: 2.0;"/><!--link Interpreter to State--><path d="M1000.27,164.05 L1000.2977,164.1392 L1008.6055,166.48 L1017.0758,169.3437 L1025.4932,172.0371 L1033.7366,174.1705 L1042.2208,177.0791 L1042.1893,176.9804 L1051.2834,179.487 L1060.5364,182.4913 L1069.8999,185.8416 L1078.8827,187.9997 L1088.3987,191.8275 L1088.4754,192.0613 L1093.088,193.1263 L1097.9243,194.874 L1102.7879,196.705 L1107.4927,198.0513 L1112.281,199.6525 L1112.2907,199.6813 L1117.0743,201.2435 L1121.9017,202.9366 L1126.708,204.5666 L1131.5546,206.3171 L1136.2698,207.6747 L1136.3665,207.9569 L1141.1234,209.5886 L1145.8179,211.0384 L1150.6037,212.7546 L1155.3938,214.4833 L1160.0484,215.8164 L1159.942,215.514 L1164.7989,217.7375 L1169.3053,218.9655 L1174.0781,220.9503 L1178.5766,222.1557 L1183.3,224 L1183.2895,223.9714 L1185.8421,225.2052 L1188.1485,225.7717 L1190.6002,226.7319 L1193.0641,227.7252 L1195.44,228.48 " fill="none" style="stroke: #A9A9A9; stroke-width: 2.0; stroke-dasharray: 7.0,7.0;"/><polygon fill="#A9A9A9" points="1200.24,230.32,1200.2895,230.3696,1198.7482,228.8308,1197.497,227.5828,1196.1513,226.2401,1194.4949,224.5861,1193.2686,223.363,1193.245,223.3524,1193.5994,224.3385,1194.073,225.3777,1194.6296,226.4539,1194.9004,227.4027,1195.5714,228.5299,1195.6466,228.6985,1194.4525,228.7986,1193.4778,229.3908,1192.5299,230.0431,1191.4262,230.346,1190.4045,230.8327,1190.4057,230.8554,1192.371,230.7195,1194.3418,230.687,1196.3099,230.6047,1198.2831,230.6175,1200.24,230.32" style="stroke: #A9A9A9; stroke-width: 2.0;"/><!--link chainofResponsability to Command--><path d="M861.26,56.06 L861.3175,56.3343 L850.8169,57.685 L840.6533,60.6435 L830.38,63.0784 L819.7458,63.7915 L809.5899,66.7867 L799.2814,69.0538 L799.1615,68.4979 L789.4196,70.6577 L779.7543,73.1724 L769.8252,74.4639 L760.4212,78.1903 L750.3345,78.751 L740.7021,81.4185 L731.0038,83.78 L731.0452,83.9674 L723.9258,85.3074 L716.8708,86.9388 L709.7914,88.4599 L702.7419,90.1158 L695.655,91.603 L695.6784,91.7066 L688.6042,93.4625 L681.5044,95.1052 L674.3971,96.7144 L667.2473,98.136 L660.1142,99.6313 L660.1606,99.832 L653.1302,101.5669 L645.9332,102.582 L639.019,104.8196 L631.8669,106.029 L624.8422,107.7889 L624.8971,108.0197 L617.8829,109.2171 L611.0183,111.0437 L604.1931,113.0362 L597.2034,114.3367 L590.3,116 L590.3112,116.0454 L587.5544,116.8346 L584.7809,117.5566 L581.9543,118.0638 L579.2037,118.8779 L576.3912,119.4425 L576.3277,119.1961 L573.6005,120.2924 L570.8076,121.1334 L567.9738,121.8163 L565.1703,122.6163 L562.28,123.08 " fill="none" style="stroke: #A9A9A9; stroke-width: 2.0; stroke-dasharray: 7.0,7.0;"/><polygon fill="#A9A9A9" points="557.41,124.36,557.4212,124.4292,559.3323,124.539,561.3091,125.0542,563.2644,125.4374,565.1494,125.3864,567.1319,125.9364,567.1188,125.9141,566.0829,125.2437,565.1128,124.6862,564.1884,124.207,563.1064,123.4577,562.2452,123.0868,562.4046,123.1798,562.6336,122.0037,563.3281,121.0989,564.0793,120.2273,564.5002,119.1631,565.0948,118.2001,565.109,118.2179,563.5512,119.4238,562.0581,120.7105,560.5338,121.9583,559.0691,123.2804,557.41,124.36" style="stroke: #A9A9A9; stroke-width: 2.0;"/><!--link chainofResponsability to Decorator--><path d="M897.44,56.09 L897.4721,56.1777 L894.4359,56.9913 L891.5875,58.3192 L888.678,59.4796 L885.5673,60.0892 L882.7352,61.4612 L882.7227,61.429 L879.5821,62.4819 L876.5045,63.6972 L873.4707,65.0252 L870.286,65.9644 L867.3127,67.4483 L867.4067,67.6757 L864.0048,68.5129 L860.8775,70.014 L857.7836,71.5961 L854.4949,72.7069 L851.3087,74.0656 L851.3209,74.0933 L848.0131,75.505 L844.761,77.0429 L841.482,78.52 L838.2544,80.1132 L834.8594,81.3275 L834.9868,81.5971 L831.6367,83.1846 L828.2044,84.5982 L824.8924,86.2664 L821.586,87.9465 L818.1009,89.2485 L817.9559,88.9627 L814.8512,91.2363 L811.2687,92.5688 L808.0495,94.6167 L804.4562,95.9279 L801.1695,97.843 L801.1549,97.8163 L797.9341,99.9886 L794.3719,101.5369 L791.0111,103.4534 L787.6672,105.4009 L784.2013,107.1253 L784.2956,107.2845 L780.8267,109.1208 L777.5188,111.229 L773.9504,112.8972 L770.7706,115.2218 L767.3325,117.11 L767.4643,117.3149 L764.1127,119.4164 L760.8266,121.6197 L757.2364,123.3503 L753.869,125.4273 L750.6992,127.8114 L750.5404,127.5855 L747.4319,130.0765 L744.1444,132.3129 L741.1165,134.9186 L737.6453,136.8939 L734.4377,139.2439 L734.3444,139.1233 L731.349,141.7598 L727.9549,143.8807 L724.8443,146.3682 L722.0111,149.2146 L718.684,151.422 L718.8099,151.5691 L715.8744,154.2575 L712.5471,156.4885 L709.7105,159.2925 L706.767,161.9717 L703.5744,164.36 L703.4292,164.2083 L700.679,167.0717 L697.8813,169.8854 L695.177,172.7967 L692.1096,175.3286 L689.245,178.0724 L689.3959,178.212 L686.3817,180.8055 L683.6588,183.6685 L681.3615,186.9251 L678.2807,189.457 L675.832,192.5736 L676.008,192.7157 L673.4314,195.6922 L670.7952,198.6205 L668.2935,201.6574 L666.1023,204.9452 L663.4716,207.878 L663.3623,207.8022 L661.4535,211.2522 L658.8011,214.1869 L656.9942,217.7075 L654.7112,220.8982 L652.3,224 L652.3945,224.054 L650.9084,226.4795 L649.7608,229.0983 L648.3073,231.5424 L646.726,233.9136 L645.2508,236.3453 L645.3589,236.3955 L643.9833,238.9397 L643.1096,241.7168 L641.6682,244.2304 L640.4604,246.8525 L639.1758,249.4389 L638.9232,249.3424 L637.9732,252.0815 L637.3273,254.9369 L636.251,257.6277 L635.0204,260.2596 L634.0038,262.9733 L633.8673,262.93 L633.0431,265.6775 L631.9771,268.3482 L631.5755,271.2299 L630.845,274.0071 L629.6637,276.6413 L629.8899,276.7012 L629.2464,279.4192 L628.1733,282.0233 L627.5537,284.7476 L626.6338,287.3923 L626.0845,290.1353 L626.2077,290.1626 L625.6136,292.7616 L625.1683,295.3936 L624.2511,297.9208 L623.7145,300.5325 L623.1948,303.148 L623.3886,303.184 L622.9885,305.6388 L622.0624,307.996 L621.7475,310.4667 L621.4432,312.9393 L620.9237,315.372 L620.6554,315.3305 L620.7342,317.6217 L620.3475,319.8408 L619.8452,322.0419 L619.6072,324.2841 L619.2,326.5 " fill="none" style="stroke: #A9A9A9; stroke-width: 2.0; stroke-dasharray: 7.0,7.0;"/><polygon fill="#A9A9A9" points="618.53,331.54,618.5896,331.5768,619.4468,329.7911,620.6535,328.2212,621.7465,326.581,622.4651,324.7098,623.7018,323.1583,623.6861,323.1377,622.7155,323.7306,621.8241,324.4274,620.9876,325.1964,619.9616,325.7165,619.2011,326.5852,619.3479,326.697,618.3486,325.5578,617.7779,324.745,617.2595,323.9721,616.4368,322.9674,615.7742,322.0846,615.796,322.0909,616.3151,323.9727,616.9336,325.8834,617.5042,327.7801,618.1663,329.7035,618.53,331.54" style="stroke: #A9A9A9; stroke-width: 2.0;"/><!--link chainofResponsability to Composite--><path d="M922.81,56 L922.8521,56.0834 L920.4573,56.9817 L918.3092,58.3688 L916.0808,59.5967 L913.5881,60.3011 L911.4613,61.7302 L911.445,61.6997 L909.0106,62.8197 L906.658,64.0935 L904.3622,65.474 L901.8705,66.4864 L899.6533,68.0145 L899.7741,68.2289 L897.0985,69.1334 L894.7756,70.6637 L892.4959,72.2703 L889.9656,73.4327 L887.5671,74.8288 L887.5827,74.8548 L885.1231,76.2806 L882.7346,77.8248 L880.3118,79.3119 L877.9545,80.9079 L875.3838,82.1487 L875.5454,82.3994 L873.1275,83.9627 L870.6053,85.3644 L868.2357,87.0027 L865.8733,88.6521 L863.2843,89.9501 L863.1009,89.6872 L861.09,91.8491 L858.4751,93.1454 L856.3194,95.0998 L853.6908,96.3765 L851.4498,98.2086 L851.4314,98.1844 L849.3721,100.2089 L846.8813,101.6679 L844.6452,103.4606 L842.4304,105.2813 L840.0614,106.9 L840.1808,107.0412 L837.908,108.7187 L835.8393,110.6375 L833.4403,112.1657 L831.5339,114.2765 L829.3,116 L829.4688,116.1757 L826.9372,118.5437 L824.4894,120.999 L821.6523,123.049 L819.1006,125.396 L816.8017,128.0063 L816.5986,127.8192 L814.3922,130.5838 L811.9569,133.1375 L809.8535,135.9971 L807.1834,138.3345 L804.8502,140.9823 L804.733,140.8848 L802.6646,143.7658 L800.0954,146.2298 L797.8823,148.9903 L796.0177,152.041 L793.5326,154.575 L793.6864,154.6926 L791.6726,157.5446 L789.1804,160.0306 L787.2875,162.9749 L785.264,165.8194 L782.9363,168.4313 L782.7651,168.3096 L780.944,171.1599 L779.0668,173.9704 L777.2997,176.8591 L775.1046,179.4435 L773.1485,182.1979 L773.3195,182.3121 L771.1654,184.7261 L769.3414,187.3605 L767.9996,190.3166 L765.77,192.6803 L764.2567,195.522 L764.448,195.6428 L762.7527,198.0767 L760.9926,200.4698 L759.3786,202.9551 L758.1022,205.6536 L756.3481,208.0504 L756.2341,207.9819 L755.206,210.4618 L753.4023,212.4757 L752.4805,215.0195 L751.0621,217.2649 L749.51,219.43 " fill="none" style="stroke: #A9A9A9; stroke-width: 2.0; stroke-dasharray: 7.0,7.0;"/><polygon fill="#A9A9A9" points="746.93,223.86,746.971,223.9168,748.4467,222.5956,750.1627,221.6075,751.8005,220.511,753.1809,219.0577,754.9176,218.0982,754.911,218.0731,753.7873,218.2491,752.697,218.5513,751.6298,218.9413,750.4828,219.0288,749.4476,219.5401,749.626,219.5871,748.956,218.3925,748.8071,217.3353,748.7217,216.2948,748.2664,215.1568,748.0057,214.0701,748.0283,214.0725,747.78,216.0269,747.6346,217.9925,747.4395,219.9527,747.3392,221.9233,746.93,223.86" style="stroke: #A9A9A9; stroke-width: 2.0;"/><!--link chainofResponsability to State--><path d="M1004.02,56.11 L1004.1957,56.3284 L1011.546,62.013 L1019.9262,68.9777 L1027.971,75.5256 L1034.913,80.7027 L1043.3166,87.6966 L1050.8974,93.6677 L1058.8056,100.0458 L1066.9415,106.7069 L1074.2929,112.3929 L1083.2058,120.0198 L1090.0886,125.1233 L1098.3224,131.9061 L1106.721,138.8937 L1114.1606,144.6894 L1122.1616,151.1828 L1129.9502,157.4122 L1137.9984,163.9643 L1145.9214,170.3607 L1154.0834,177.0542 L1162.027,183.4764 L1169.9062,189.8183 L1177.4236,195.7107 L1185.4705,202.2612 L1193.5423,208.8426 L1200.2249,213.6973 L1208.7,220.78 " fill="none" style="stroke: #A9A9A9; stroke-width: 2.0; stroke-dasharray: 7.0,7.0;"/><polygon fill="#A9A9A9" points="1212.7,223.99,1212.7623,224.0221,1211.6738,222.1763,1210.9503,220.5188,1210.108,218.8,1208.8748,216.8795,1208.1827,215.2382,1208.1569,215.2354,1208.1648,216.3473,1208.3025,217.4735,1208.5304,218.6096,1208.4473,219.7115,1208.7998,220.8613,1208.82,221.0447,1207.6523,220.7759,1206.5434,221.0426,1205.4417,221.3747,1204.2983,221.3266,1203.1768,221.4785,1203.1826,221.5005,1205.0787,221.9705,1207.0012,222.5406,1208.911,223.0625,1210.8451,223.6765,1212.7,223.99" style="stroke: #A9A9A9; stroke-width: 2.0;"/><!--link chainofResponsability to templateMethod--><path d="M1107.31,56.06 L1107.3345,56.1502 L1111.16,56.9407 L1115.1291,58.2597 L1119.0514,59.4067 L1122.8201,59.9876 L1126.8015,61.352 L1126.7917,61.3189 L1128.7231,61.7516 L1130.7037,62.3514 L1132.7185,63.0672 L1134.6154,63.3829 L1136.6774,64.2591 L1136.7505,64.4941 L1138.5795,64.6092 L1140.622,65.4103 L1142.6904,66.295 L1144.6074,66.6928 L1146.6041,67.3468 L1146.6135,67.3756 L1148.5897,67.9879 L1150.609,68.7314 L1152.6075,69.4116 L1154.6457,70.2126 L1156.5544,70.6199 L1156.6525,70.9016 L1158.6431,71.5977 L1160.5704,72.1122 L1162.5903,72.8926 L1164.6146,73.6854 L1166.5013,74.0834 L1166.3904,73.7827 L1168.589,75.0981 L1170.4223,75.4233 L1172.5334,76.5012 L1174.3584,76.804 L1176.4179,77.7422 L1176.4068,77.7138 L1178.5098,78.8209 L1180.3536,79.2656 L1182.3503,80.1011 L1184.3599,80.9695 L1186.2769,81.6011 L1186.3479,81.7719 L1188.2311,82.4123 L1190.2357,83.3446 L1192.0439,83.8046 L1194.145,84.969 L1196.0513,85.6651 L1196.1499,85.8879 L1198.0638,86.7006 L1200.0267,87.6238 L1201.7622,88.0331 L1203.6644,88.8192 L1205.7142,89.939 L1205.5965,89.6892 L1207.6079,90.8131 L1209.4866,91.6556 L1211.5578,92.9063 L1213.3005,93.4599 L1215.2384,94.4279 L1215.1699,94.2917 L1217.1557,95.4602 L1218.8486,96.0465 L1220.7498,97.0469 L1222.8548,98.4524 L1224.5969,99.1364 L1224.6886,99.3069 L1226.5847,100.4105 L1228.1954,100.9838 L1230.1635,102.2213 L1232.0538,103.3141 L1233.7626,104.0697 L1233.6576,103.8878 L1235.5305,105.0653 L1237.3689,106.1833 L1239.2749,107.4182 L1240.9184,108.1983 L1242.7085,109.2324 L1242.8168,109.4071 L1244.3185,110.1027 L1246.0294,111.1356 L1248.0459,112.661 L1249.4997,113.2795 L1251.4074,114.6297 L1251.5332,114.8177 L1253.1435,115.8333 L1254.7113,116.7853 L1256.375,117.8809 L1258.2609,119.3084 L1259.8325,120.2662 L1259.7524,120.16 L1263.1749,122.8784 L1266.0526,124.8745 L1269.5498,127.6918 L1272.6982,130.0467 L1275.7526,132.2771 L1275.8253,132.358 L1278.6665,134.8981 L1281.7682,137.7281 L1284.6346,140.2961 L1287.4025,142.7546 L1290.2522,145.304 L1290.3402,145.3844 L1292.782,148.0815 L1295.6324,151.1517 L1298.0207,153.7999 L1300.599,156.6216 L1303.1149,159.3864 L1302.8961,159.2276 L1305.171,162.316 L1307.7097,165.5957 L1309.8752,168.6047 L1311.907,171.5167 L1314.1244,174.5633 L1313.9988,174.4945 L1315.827,177.7786 L1317.4328,180.941 L1319.6498,184.4382 L1321.5643,187.7698 L1323.064,190.8739 L1323.2827,190.9571 L1324.6834,194.4805 L1325.6686,197.8457 L1327.0923,201.3778 L1328.2258,204.7995 L1329.7175,208.3574 L1329.8407,208.3848 L1330.6547,212.1203 L1331.6175,215.8889 L1332.1083,219.5527 L1332.9798,223.301 L1333.8683,227.0531 L1334.0649,227.0672 L1334.4061,231.0605 L1334.2138,235.0155 L1334.6414,239.0151 L1335.0798,243.0154 L1335.3,247 L1334.4855,247 L1335.7712,257 L1335.644,267 L1335.1657,277 L1335.4897,287 L1336.2716,297 L1334.8828,307 L1335.72,317 L1335.6809,327 L1335.4544,337 L1335.4879,347 L1335.3,357 L1335.3504,357.0023 L1334.881,360.0643 L1334.8383,363.146 L1334.6695,366.2219 L1334.7609,369.3098 L1334.5907,372.3856 L1334.6295,372.3911 L1334.2448,375.3231 L1333.6286,378.2222 L1333.3098,381.1636 L1332.8696,384.0877 L1332.5054,387.0227 L1332.7545,387.0835 L1332.0101,389.8491 L1330.9368,392.5344 L1330.4354,395.3593 L1329.5381,398.0876 L1329.1079,400.9299 L1329.2288,400.9725 L1328.4337,403.6589 L1327.4777,406.2886 L1326.1377,408.7831 L1325.5856,411.555 L1324.4619,414.1257 L1324.1627,413.9862 L1323.3763,416.6639 L1322.009,419.0706 L1321.0024,421.6456 L1319.8941,424.1731 L1318.6312,426.6286 L1318.8121,426.7349 L1316.965,428.8321 L1316.0328,431.467 L1314.5286,433.7658 L1313.2061,436.1714 L1311.6797,438.4571 L1311.9498,438.6507 L1310.0799,440.693 L1308.5396,442.9715 L1306.9516,445.2159 L1305.3441,447.4462 L1303.6711,449.6296 L1303.6708,449.6294 L1302.1109,451.9419 L1299.8643,453.6677 L1298.461,456.114 L1296.2587,457.8776 L1294.6692,460.1648 L1294.4995,459.9949 L1292.6955,462.1607 L1290.7056,464.1403 L1288.5556,465.9596 L1286.8541,468.228 L1284.7379,470.0812 L1284.7695,470.1178 L1282.7894,472.1889 L1280.6127,474.032 L1278.1295,475.5199 L1275.9847,477.4 L1273.9408,479.3971 L1273.9063,479.3512 L1271.7161,481.2701 L1269.409,483.0338 L1267.0619,484.7445 L1264.5702,486.263 L1262.3419,488.1312 L1262.498,488.367 L1260.03,490.0002 L1257.3954,491.3819 L1254.8809,492.945 L1252.3737,494.519 L1250.0048,496.3019 L1249.9566,496.2196 L1247.4334,497.8798 L1244.7849,499.326 L1242.1041,500.7172 L1239.7052,502.5895 L1236.9934,503.9278 L1236.8991,503.7469 L1234.3722,505.5457 L1231.6324,506.9359 L1228.8966,508.334 L1226.2381,509.8803 L1223.3715,511.0273 L1223.3254,510.9282 L1220.4814,512.2244 L1217.8013,513.873 L1214.7584,514.7417 L1211.9927,516.2063 L1209.2028,517.6189 L1209.2226,517.6663 L1206.2843,518.8676 L1203.281,519.9128 L1200.4045,521.2627 L1197.6088,522.8063 L1194.5513,523.7213 L1194.6521,523.9912 L1191.4443,524.5993 L1188.5352,526.0065 L1185.4289,526.8862 L1182.4906,528.2155 L1179.4805,529.3527 L1179.522,529.4762 L1176.4547,530.5655 L1173.216,531.1443 L1170.2815,532.629 L1167.1408,533.4996 L1164.0544,534.5319 L1163.9831,534.2956 L1160.8504,535.2806 L1157.8093,536.569 L1154.6559,537.4854 L1151.4782,538.3212 L1148.3367,539.2773 L1148.2585,538.989 L1145.2243,540.4256 L1141.9223,540.8755 L1138.708,541.6488 L1135.5726,542.7124 L1132.3913,543.6073 L1132.4535,543.8619 L1129.2343,544.6597 L1125.9512,545.1958 L1122.7097,545.902 L1119.5217,546.8272 L1116.2819,547.5406 L1116.2996,547.6214 L1112.9916,548.0311 L1109.8375,549.1423 L1106.6093,549.9161 L1103.2937,550.2909 L1100.0723,551.0955 L1100.0355,550.9083 L1096.8809,552.0287 L1093.5757,552.3827 L1090.3247,553.0125 L1087.1011,553.782 L1083.8263,554.2907 L1083.7765,554.008 L1080.6234,555.0934 L1077.3376,555.4254 L1074.1466,556.2957 L1070.8348,556.4793 L1067.6077,557.1445 L1067.6358,557.3241 L1064.3516,557.4558 L1061.1736,558.2645 L1057.9573,558.8297 L1054.6832,559.0257 L1051.4802,559.6756 L1051.5025,559.8354 L1048.2507,559.8694 L1045.0624,560.3592 L1041.9387,561.3123 L1038.7443,561.7583 L1035.5078,561.9024 L1035.5387,562.1532 L1032.3375,562.1317 L1029.2272,562.8483 L1026.0299,562.8588 L1022.908,563.4809 L1019.7541,563.8435 L1019.754,563.8429 L1016.6473,564.0623 L1013.5951,564.7852 L1010.4926,565.0436 L1007.3619,565.0408 L1004.283,565.5173 L1004.3049,565.7503 L1001.2619,565.8429 L998.2088,565.8291 L995.1984,566.2691 L992.1613,566.4249 L989.1582,566.9423 L989.1532,566.8807 L986.1927,566.9027 L983.2508,567.1544 L980.332,567.6903 L977.3822,567.8448 L974.4436,568.1371 L974.4418,568.1112 L971.5911,568.2702 L968.7525,568.6045 L965.8822,568.4808 L963.056,568.9945 L960.2029,569.1202 L960.1839,568.7904 L957.4699,569.4095 L954.7369,569.6991 L951.9945,569.8257 L949.2498,569.9124 L946.5,569.91 " fill="none" style="stroke: #A9A9A9; stroke-width: 2.0; stroke-dasharray: 7.0,7.0;"/><polygon fill="#A9A9A9" points="941.45,570.16,941.4751,570.2254,943.2392,570.7376,945.1505,571.6331,947.0139,572.4038,948.7196,572.764,950.6436,573.6925,950.6262,573.6732,949.7083,572.8291,948.8779,572.0818,948.1082,571.402,947.1291,570.4899,946.4434,569.9032,946.5804,570.0268,947.0453,568.9224,947.9102,568.179,948.8239,567.4795,949.4536,566.5239,950.2327,565.703,950.243,565.7233,948.4713,566.5849,946.7465,567.5389,944.9991,568.4483,943.2949,569.4427,941.45,570.16" style="stroke: #A9A9A9; stroke-width: 2.0;"/><!--link chainofResponsability to Observer--><path d="M1089.64,56.04 L1089.6973,56.3143 L1099.8836,57.664 L1110.4061,60.6217 L1120.819,63.0559 L1130.8721,63.7679 L1141.4021,66.7623 L1151.78,69.0284 L1151.6604,68.4725 L1161.4517,70.6323 L1171.3195,73.1472 L1180.924,74.4386 L1191.0524,78.1653 L1200.4997,78.7258 L1210.4003,81.3934 L1220.235,83.755 L1220.2764,83.9425 L1227.3148,85.2829 L1234.4176,86.9149 L1241.496,88.4366 L1248.6042,90.0931 L1255.6752,91.5808 L1255.6985,91.6845 L1262.8589,93.4414 L1269.9937,95.0851 L1277.121,96.6953 L1284.2059,98.1178 L1291.3075,99.6141 L1291.3539,99.8148 L1298.4502,101.5512 L1305.3803,102.5677 L1312.5927,104.8069 L1319.5677,106.0176 L1326.6698,107.779 L1326.7246,108.0099 L1333.5451,109.2092 L1340.5149,111.0378 L1347.5241,113.0323 L1354.369,114.3347 L1361.3,116 L1361.3114,116.0454 L1365.6985,117.238 L1370.0689,118.3635 L1374.3856,119.2743 L1378.779,120.4918 L1383.11,121.46 " fill="none" style="stroke: #A9A9A9; stroke-width: 2.0; stroke-dasharray: 7.0,7.0;"/><polygon fill="#A9A9A9" points="1388.18,122.78,1388.2237,122.8348,1386.5536,121.4443,1385.1394,120.375,1383.6419,119.201,1381.8703,117.6832,1380.4782,116.6414,1380.4558,116.6283,1380.9282,117.5452,1381.5132,118.5283,1382.1765,119.5572,1382.5699,120.4278,1383.3413,121.5202,1383.4347,121.6794,1382.2592,121.9117,1381.3564,122.6086,1380.4869,123.3623,1379.4238,123.7861,1378.4625,124.3834,1378.4662,124.4058,1380.4043,124.0522,1382.3592,123.8007,1384.306,123.5,1386.2683,123.2933,1388.18,122.78" style="stroke: #A9A9A9; stroke-width: 2.0;"/><!--link Mediator to Observer--><path d="M1447.3,56 L1447.5802,56 L1446.7476,66.906 L1447.5577,77.812 L1447.8329,88.718 L1446.3488,99.624 L1447.3,110.53 " fill="none" style="stroke: #A9A9A9; stroke-width: 2.0; stroke-dasharray: 7.0,7.0;"/><polygon fill="#A9A9A9" points="1447.3,115.68,1447.364,115.7085,1447.9738,113.8239,1448.9589,112.1062,1449.8217,110.3341,1450.2827,108.3834,1451.3,106.68,1451.2817,106.6617,1450.3995,107.3795,1449.6096,108.1896,1448.8839,109.0639,1447.937,109.717,1447.3,110.68,1447.4305,110.8105,1446.3514,109.7314,1445.6534,109.0334,1445.0018,108.3818,1444.0798,107.4598,1443.3,106.68,1443.3208,106.6892,1444.0903,108.4757,1444.9544,110.3042,1445.7728,112.1124,1446.6784,113.9593,1447.3,115.68" style="stroke: #A9A9A9; stroke-width: 2.0;"/><!--link Command to Composite--><path d="M554.21,164 L554.3273,164.2545 L562.9295,167.6233 L572.2193,172.4841 L581.2852,176.859 L589.6147,179.6361 L598.9202,184.5309 L607.6763,188.2335 L616.651,192.4106 L625.7777,196.9175 L634.3806,200.2878 L644.0261,205.9204 L652.3161,208.6118 L661.5082,213.2605 L670.8103,218.1481 L679.52,221.75 " fill="none" style="stroke: #A9A9A9; stroke-width: 2.0; stroke-dasharray: 7.0,7.0;"/><polygon fill="#A9A9A9" points="684.09,223.86,684.1427,223.9062,682.6879,222.2875,681.5421,220.9396,680.2956,219.5035,678.7184,217.7775,677.599,216.4528,677.5747,216.4438,677.8561,217.4655,678.26,218.5323,678.7492,219.6305,678.9447,220.6206,679.5515,221.762,679.6152,221.9352,678.4171,221.9553,677.405,222.4811,676.4156,223.0686,675.2942,223.2971,674.2422,223.7144,674.2426,223.7372,676.2116,223.7329,678.1822,223.8322,680.1521,223.8815,682.1233,224.0261,684.09,223.86" style="stroke: #A9A9A9; stroke-width: 2.0;"/><!--link Command to Memento--><path d="M492.1,164.31 L492.3483,164.4399 L486.8739,173.1044 L482.855,182.5306 L478.3622,191.7088 L472.3106,200.0712 L468.3249,209.5147 L463.1762,218.3497 L458.4903,227.4268 L454.1262,236.6723 L448.6533,245.3376 L445.3874,255.1578 L439.2521,263.4764 L435.0264,272.7944 L431.0336,282.2343 L425.6853,290.9647 L421.1306,300.1105 L416.2756,309.0991 L411.7876,318.2798 L406.84,327.22 " fill="none" style="stroke: #A9A9A9; stroke-width: 2.0; stroke-dasharray: 7.0,7.0;"/><polygon fill="#A9A9A9" points="404.48,331.72,404.5236,331.7749,405.9368,330.3871,407.6055,329.3209,409.1909,328.15,410.5029,326.6346,412.1935,325.5961,412.1857,325.5714,411.0714,325.7989,409.9961,326.1511,408.9481,326.5899,407.8064,326.7302,406.7958,327.2886,406.9719,327.3438,406.2568,326.1462,406.0559,325.1098,405.9176,324.0931,405.4145,322.9619,405.1033,321.8909,405.126,321.8923,404.968,323.856,404.9133,325.8263,404.8089,327.7934,404.7995,329.7665,404.48,331.72" style="stroke: #A9A9A9; stroke-width: 2.0;"/><!--link Command to Prototype--><path d="M503.65,164.16 L503.9301,164.1678 L502.8182,174.1579 L503.3484,184.1939 L503.3438,194.2149 L501.5807,204.1868 L502.1483,214.2238 L501.4038,224.2241 L501.1815,234.2391 L501.3221,244.2641 L500.2119,254.2543 L501.5916,264.3139 L499.734,274.2832 L500.0309,284.3126 L500.5905,294.3494 L499.6209,304.3435 L499.5465,314.3625 L499.1333,324.3721 L499.1342,334.3933 L498.9354,344.4089 L499.1177,354.4351 L498.9518,364.4516 L498.6831,374.4653 L497.8375,384.4628 L497.8364,394.4839 L497.8748,404.5061 L495.6981,414.4665 L497.284,424.5319 L496.1,434.52 " fill="none" style="stroke: #A9A9A9; stroke-width: 2.0; stroke-dasharray: 7.0,7.0;"/><polygon fill="#A9A9A9" points="495.95,439.62,496.0132,439.6503,496.6765,437.7839,497.7103,436.095,498.6234,434.3483,499.1399,432.4116,500.2054,430.7379,500.1876,430.7191,499.2853,431.4114,498.4726,432.1986,497.7222,433.0519,496.7571,433.6777,496.0928,434.622,496.227,434.7488,495.1632,433.6553,494.4912,432.9317,493.867,432.2533,492.9647,431.3123,492.2087,430.5094,492.2297,430.5181,492.9471,432.3275,493.7602,434.1763,494.5272,436.0061,495.3823,437.872,495.95,439.62" style="stroke: #A9A9A9; stroke-width: 2.0;"/><!--link Bridge to abstractFactory--><path d="M238.01,272 L238.1831,272.2204 L229.6744,277.8433 L222.1803,284.7582 L214.3558,291.2525 L205.4448,296.363 L197.9738,303.3074 L189.6921,309.2194 L181.7331,315.5423 L173.9983,322.1507 L166.06,328.5 " fill="none" style="stroke: #A9A9A9; stroke-width: 2.0; stroke-dasharray: 7.0,7.0;"/><polygon fill="#A9A9A9" points="162,331.68,162.0172,331.7479,163.8756,331.0625,165.8348,330.7752,167.7611,330.3582,169.5795,329.5149,171.5474,329.2618,171.5443,329.2361,170.4071,328.9862,169.2855,328.866,168.1746,328.836,167.0266,328.4952,165.9306,328.5896,166.1138,328.6116,165.8564,327.4413,166.134,326.3351,166.4769,325.2367,166.44,324.0928,166.6028,322.9729,166.6229,322.9835,165.6728,324.7093,164.8143,326.4835,163.9116,328.2344,163.0932,330.0298,162,331.68" style="stroke: #A9A9A9; stroke-width: 2.0;"/><!--link abstractFactory to Singleton--><path d="M143.75,380.34 L143.8331,380.3826 L145.9412,384.8534 L148.5367,389.5739 L150.9735,394.2131 L152.8883,398.5849 L155.5256,403.3269 L155.4951,403.3107 L156.7605,405.8882 L158.1797,408.5472 L159.706,411.2628 L160.8635,413.7832 L162.5375,416.577 L162.7537,416.6944 L163.8134,419.2448 L165.5043,422.1382 L167.2722,425.0734 L168.592,427.7652 L170.1475,430.585 L170.174,430.5998 L171.754,433.4693 L173.4546,436.4062 L175.097,439.3106 L176.8504,442.2771 L178.2422,445.0412 L178.5002,445.1908 L180.1965,448.1115 L181.7265,450.9357 L183.5,453.9012 L185.2849,456.8733 L186.7081,459.6356 L186.4339,459.4697 L188.7109,462.6763 L190.0849,465.3366 L192.1454,468.4121 L193.4989,471.0601 L195.4319,474.0585 L195.4062,474.0422 L197.4836,477.0237 L198.9608,479.6235 L200.7922,482.4485 L202.6534,485.2925 L204.3,488 L204.4528,488.1043 L206.3008,490.9322 L208.41,493.9384 L210.0967,496.6562 L212.4135,499.8041 L214.3114,502.6661 L214.5083,502.8096 L216.595,505.696 L218.7795,508.6537 L220.5098,511.2802 L222.5731,514.1495 L224.9313,517.2338 L224.7119,517.066 L227.0378,519.999 L229.1166,522.743 L231.5538,525.7612 L233.379,528.3112 L235.568,531.1395 L235.4485,531.0448 L237.6598,533.7387 L239.3606,536.0275 L241.4245,538.6044 L243.8435,541.4632 L245.63,543.82 " fill="none" style="stroke: #A9A9A9; stroke-width: 2.0; stroke-dasharray: 7.0,7.0;"/><polygon fill="#A9A9A9" points="248.81,547.74,248.8777,547.7581,248.1666,545.8016,247.8523,543.9514,247.4088,542.0666,246.5405,540.068,246.2602,538.2269,246.2345,538.2242,245.9999,539.3371,245.8953,540.4637,245.8809,541.5998,245.5554,542.7031,245.6657,543.8524,245.6851,544.036,244.5185,543.5246,243.4085,543.5491,242.3055,543.6389,241.1622,543.3484,240.0401,543.2579,240.0505,543.2781,241.7893,544.1448,243.5752,545.1037,245.3383,546.0181,247.1449,547.0174,248.81,547.74" style="stroke: #A9A9A9; stroke-width: 2.0;"/><!--link abstractFactory to Prototype--><path d="M211.07,380 L211.1486,380.269 L220.6356,382.3084 L230.5832,385.9247 L240.3807,389.0274 L249.6852,390.4415 L259.6432,394.0937 L269.2333,396.486 L278.9698,399.3796 L288.8082,402.6219 L298.2957,404.6629 L308.4815,409.095 L317.7594,410.4183 L327.6415,413.8105 L337.5974,417.4551 L347.1243,419.6311 L356.9023,422.6669 L366.5853,425.3773 L376.3845,428.4853 L386.1276,431.4015 L395.9775,434.6837 L405.7299,437.6316 L415.4534,440.4807 L424.92,442.45 " fill="none" style="stroke: #A9A9A9; stroke-width: 2.0; stroke-dasharray: 7.0,7.0;"/><polygon fill="#A9A9A9" points="430.03,443.94,430.0752,443.9935,428.4368,442.5625,427.0636,441.4452,425.604,440.2257,423.8604,438.6704,422.51,437.58,422.4873,437.5675,422.9293,438.5036,423.4859,439.5025,424.1221,440.5451,424.4839,441.4372,425.23,442.54,425.3187,442.7018,424.137,442.8998,423.2143,443.5702,422.3232,444.2982,421.2483,444.6909,420.27,445.26,420.273,445.2825,422.2206,444.9854,424.182,444.791,426.1367,444.547,428.1042,444.3975,430.03,443.94" style="stroke: #A9A9A9; stroke-width: 2.0;"/><!--link abstractFactory to templateMethod--><path d="M194.95,380.1 L194.9843,380.1869 L201.3265,382.4682 L207.8696,385.259 L214.3473,387.884 L220.61,389.9633 L227.1703,392.7978 L227.1572,392.7658 L230.5591,394.0361 L234.0269,395.4675 L237.5404,397.011 L240.8961,398.1684 L244.4729,399.8666 L244.5682,400.0935 L247.9198,401.102 L251.5497,402.7729 L255.2135,404.5246 L258.6798,405.8062 L262.25,407.335 L262.2621,407.3628 L265.8467,408.8835 L269.4862,410.5309 L273.0992,412.1172 L276.7627,413.8201 L280.2615,415.1428 L280.3837,415.4148 L283.9863,417.0355 L287.5102,418.4808 L291.1493,420.1829 L294.7939,421.897 L298.2672,423.2297 L298.1314,422.9393 L301.9469,425.164 L305.3152,426.4326 L309.0234,428.4281 L312.3816,429.6751 L316.0268,431.5355 L316.0134,431.5082 L319.6264,433.5244 L322.9265,434.9019 L326.4113,436.6562 L329.9116,438.4422 L333.3,440 L333.3885,440.1624 L335.7959,441.3593 L338.3545,442.8338 L340.6683,443.8592 L343.3473,445.5544 L345.7835,446.8043 L345.9141,447.01 L347.9287,448.2659 L350.0081,449.6239 L351.7862,450.5074 L353.7852,451.7388 L355.9798,453.2783 L355.8196,453.0533 L357.7043,454.4957 L359.4084,455.6847 L361.3743,457.2413 L362.8932,458.1702 L364.6778,459.4722 L364.5866,459.35 L366.3362,460.7463 L367.6959,461.6203 L369.3329,462.8657 L371.2411,464.4745 L372.6663,465.4363 L372.7791,465.5936 L374.47,466.8585 L375.81,467.6338 L377.5895,469.0223 L379.2733,470.2771 L380.7339,471.2208 L380.6216,471.0434 L382.4982,472.3159 L384.3381,473.5302 L386.2502,474.8587 L387.8814,475.7435 L389.6695,476.8761 L389.7653,477.058 L391.6734,477.7736 L393.7663,478.8403 L396.1293,480.4199 L397.9951,481.0552 L400.262,482.4524 L400.3505,482.6605 L402.9055,483.6464 L405.4306,484.5619 L408.0232,485.6363 L410.7722,487.0781 L413.3,488 L413.2534,487.8754 L415.4617,489.0199 L417.3532,489.317 L419.6048,490.5777 L421.6537,491.2958 L423.648,491.8677 L423.6846,491.9702 L425.7503,492.6374 L427.9472,493.6717 L430.0255,494.3743 L432.0542,494.9384 L434.1241,495.6175 L434.1621,495.7305 L438.3631,496.9932 L442.7404,498.7805 L446.9183,499.9745 L451.1782,501.4126 L455.4112,502.7704 L455.3312,502.5122 L459.688,503.9388 L464.1411,505.6767 L468.4578,506.9742 L472.7258,508.114 L477.0615,509.4727 L477.0221,509.335 L481.4175,510.6322 L485.7431,511.6856 L490.2603,513.4091 L494.6828,514.8009 L498.9752,515.738 L499.035,515.9641 L503.4696,517.205 L507.7905,518.0161 L512.2315,519.2808 L516.593,520.2452 L521.0525,521.5802 L521.0826,521.7028 L525.5069,522.7733 L529.9675,523.9918 L534.3129,524.7408 L538.7512,525.8685 L543.1937,527.0131 L543.2375,527.2052 L547.6708,528.2664 L551.9853,528.8059 L556.4378,529.9515 L560.8927,531.1077 L565.2991,532.0505 L565.2428,531.7849 L569.7256,533.1353 L574.1107,534.025 L578.4716,534.8001 L582.8879,535.8369 L587.2688,536.7063 L587.3314,537.024 L591.5887,537.4274 L595.9895,538.5588 L600.3339,539.4035 L604.6661,540.1871 L609.003,540.9942 L609.0143,541.0558 L613.2919,541.8305 L617.5125,542.2949 L621.8102,543.1793 L626.0852,543.9395 L630.4021,544.928 L630.4068,544.956 L634.6015,545.6854 L638.7998,546.4363 L642.9586,546.9568 L647.1682,547.7734 L651.3661,548.5217 L651.3577,548.4689 L655.4925,549.4283 L659.5678,550.0158 L663.5897,550.2689 L667.7045,551.1035 L671.7955,551.7889 L671.7576,551.5352 L675.7734,552.5066 L679.7533,553.2382 L683.7081,553.8011 L687.6028,553.9612 L691.5903,554.7435 L691.6188,554.9478 L695.3568,554.9477 L699.2268,555.894 L703.0083,556.2053 L706.8447,556.9108 L710.6508,557.3994 L710.6646,557.5053 L714.3232,558.0816 L717.9002,558.0305 L721.614,559.0315 L725.2422,559.3746 L728.8773,559.7703 L728.8964,559.927 L732.3759,560.5202 L735.7947,560.6126 L739.2623,561.1074 L742.7229,561.5442 L746.17,561.87 " fill="none" style="stroke: #A9A9A9; stroke-width: 2.0; stroke-dasharray: 7.0,7.0;"/><polygon fill="#A9A9A9" points="751.2,562.46,751.2356,562.5204,749.433,561.3407,747.839,560.5149,746.177,559.5738,744.2917,558.2539,742.7156,557.4584,742.6953,557.4423,743.3077,558.2562,744.0223,559.1512,744.8081,560.1027,745.3488,560.8596,746.2327,561.889,746.3474,562.0336,745.216,562.4279,744.4195,563.2442,743.6639,564.1121,742.6705,564.6803,741.8021,565.4061,741.8089,565.4278,743.6785,564.8067,745.5791,564.2845,747.4647,563.7145,749.3788,563.2355,751.2,562.46" style="stroke: #A9A9A9; stroke-width: 2.0;"/><!--link State to Flyweight--><path d="M1220.69,272 L1220.8987,272.187 L1213.1286,279.6084 L1206.5819,288.1263 L1199.6368,296.2871 L1191.3817,303.2737 L1184.8628,311.8166 L1177.3665,319.4833 L1170.64,327.84 " fill="none" style="stroke: #A9A9A9; stroke-width: 2.0; stroke-dasharray: 7.0,7.0;"/><polygon fill="#A9A9A9" points="1167.2,331.68,1167.2287,331.7439,1168.9405,330.7474,1170.8205,330.1256,1172.6457,329.3818,1174.2909,328.2367,1176.1853,327.6471,1176.1839,327.6212,1175.0478,327.567,1173.9189,327.6432,1172.795,327.81,1171.654,327.6644,1170.5369,327.9564,1170.7212,327.9665,1170.2653,326.8152,1170.3473,325.6935,1170.4951,324.5753,1170.2609,323.4361,1170.2276,322.308,1170.2492,322.315,1169.6119,324.1791,1169.0732,326.0751,1168.4869,327.9557,1167.9913,329.8656,1167.2,331.68" style="stroke: #A9A9A9; stroke-width: 2.0;"/><!--link State to Singleton--><path d="M1245.93,272.16 L1246.0226,272.1719 L1246.0438,274.436 L1246.6081,276.7701 L1246.9955,279.0813 L1246.8013,281.3176 L1247.4122,283.6577 L1247.3778,283.6549 L1247.4309,286.227 L1247.6576,288.8129 L1248.0049,291.4086 L1247.9364,293.9708 L1248.4503,296.5798 L1248.6963,296.5853 L1248.2317,299.3572 L1248.4854,302.1449 L1248.8266,304.9346 L1248.658,307.713 L1248.7576,310.4974 L1248.7879,310.4988 L1248.6014,313.3934 L1248.5528,316.2948 L1248.4377,319.1929 L1248.4495,322.0972 L1248.0475,324.9813 L1248.343,325.022 L1247.9437,327.9467 L1247.3539,330.8452 L1247.0431,333.7821 L1246.7453,336.7208 L1246.0333,339.6025 L1245.7225,339.5243 L1245.6048,342.542 L1244.4636,345.3022 L1244.1005,348.2581 L1242.9361,351.0124 L1242.4284,353.932 L1242.4002,353.9207 L1241.6377,356.777 L1240.2155,359.3675 L1239.1825,362.1148 L1238.1823,364.8753 L1236.9462,367.5409 L1237.1039,367.6376 L1235.4155,370.0318 L1233.9965,372.5913 L1232.1417,374.8833 L1230.937,377.5743 L1229.3,380 L1229.4921,380.1498 L1227.9772,382.0179 L1226.5577,383.9604 L1224.6949,385.5573 L1223.157,387.4075 L1221.907,389.4821 L1221.6957,389.3043 L1220.4176,391.211 L1218.9014,392.9173 L1217.7306,394.9142 L1215.9701,396.4149 L1214.5602,398.2106 L1214.4476,398.1078 L1213.1724,399.8812 L1211.416,401.2151 L1210.0018,402.8615 L1208.9226,404.8137 L1207.247,406.2214 L1207.3842,406.358 L1206.02,407.9175 L1204.2287,409.0522 L1202.9723,410.7189 L1201.5993,412.2698 L1199.9548,413.5505 L1199.8165,413.3925 L1197.0125,416.0698 L1194.1632,418.6954 L1191.4029,421.4226 L1188.2966,423.7546 L1185.3835,426.3074 L1185.5031,426.4746 L1182.3128,428.1994 L1179.3533,430.2471 L1176.7309,432.7664 L1173.4879,434.4174 L1170.7456,436.7689 L1170.8578,436.9653 L1167.8302,438.5394 L1164.7646,440.0471 L1161.7847,441.7047 L1159.0027,443.7091 L1155.9406,445.2229 L1155.8864,445.1014 L1153.0334,446.8098 L1149.8114,447.6922 L1147.009,449.5138 L1143.9703,450.8066 L1140.868,451.9569 L1140.9033,452.0599 L1137.7866,453.0372 L1134.7965,454.3831 L1131.692,455.396 L1128.5397,456.2696 L1125.4271,457.2588 L1125.4572,457.3741 L1122.2305,458.0343 L1119.1438,459.2299 L1115.8987,459.8199 L1112.7188,460.659 L1109.5175,461.4163 L1109.4644,461.1511 L1106.1863,461.8998 L1102.9723,462.9678 L1099.6677,463.5839 L1096.3306,464.0381 L1093.0386,464.7169 L1093.0161,464.5755 L1089.5935,465.1672 L1086.1311,465.5084 L1082.7783,466.5379 L1079.3713,467.2268 L1075.8898,467.4485 L1075.9215,467.6803 L1072.3479,468.2446 L1068.714,468.3684 L1065.1436,468.9571 L1061.5312,469.2381 L1057.9707,469.8988 L1057.9871,470.024 L1054.2269,470.4989 L1050.4865,471.1249 L1046.6834,471.2716 L1042.9309,471.8049 L1039.1806,472.3555 L1039.2078,472.5507 L1035.2631,473.1554 L1031.2446,473.2301 L1027.3118,473.9206 L1023.3805,474.6218 L1019.4191,475.1062 L1019.3762,474.8381 L1015.2772,475.9278 L1011.1037,476.5524 L1006.9118,477.0615 L1002.7622,477.8347 L998.5855,478.4387 L998.6434,478.7574 L996.3905,478.6968 L994.2704,479.3662 L992.0981,479.7482 L989.9145,480.0688 L987.7352,480.4131 L987.7475,480.4745 L985.5139,480.9081 L983.2185,481.0321 L981.0068,481.575 L978.7703,481.9941 L976.5793,482.6408 L976.5854,482.6685 L974.2928,483.1824 L972.005,483.7178 L969.6671,484.0246 L967.3935,484.625 L965.1051,485.1577 L965.0926,485.1058 L962.8041,485.9755 L960.4274,486.479 L957.9715,486.6533 L955.6534,487.4 L953.3,488 L953.2389,487.7508 L949.178,489.1423 L945.0593,490.2983 L940.8999,491.2886 L936.6437,491.8834 L932.5372,493.0892 L932.5838,493.2901 L928.2592,493.7435 L924.1507,495.1276 L919.8971,495.8872 L915.7336,497.0345 L911.5205,497.9685 L911.5435,498.0728 L907.3186,499.1082 L902.9577,499.5255 L898.8249,500.9791 L894.5495,501.7848 L890.2854,502.6422 L890.3177,502.7968 L886.0697,503.8621 L881.7187,504.4336 L877.4505,505.402 L873.1703,506.3131 L868.8673,507.1147 L868.8844,507.2007 L864.5541,507.9695 L860.3024,509.1348 L855.8752,509.4143 L851.6636,510.7816 L847.3016,511.3903 L847.2502,511.1178 L842.9215,511.971 L838.6337,513.0411 L834.2971,513.8526 L829.9187,514.4416 L825.6236,515.4734 L825.656,515.6544 L821.2812,516.3001 L816.9786,517.3493 L812.623,518.1023 L808.1847,518.3933 L803.8689,519.3684 L803.8392,519.194 L799.5,520.054 L795.177,521.0086 L790.8213,521.7716 L786.4545,522.4693 L782.0728,523.0795 L782.0485,522.9295 L777.7576,524.0651 L773.397,524.7703 L768.9882,525.1778 L764.6142,525.8 L760.2708,526.6112 L760.2436,526.4349 L755.9017,527.1883 L751.5711,528.0142 L747.2026,528.5951 L742.8244,529.113 L738.4982,529.9678 L738.5297,530.1821 L734.1271,530.4031 L729.8476,531.463 L725.5012,532.0671 L721.1561,532.68 L716.7905,533.1536 L716.8331,533.4584 L712.4539,533.6493 L708.1291,534.229 L703.858,535.1937 L699.4679,535.3064 L695.1832,536.173 L695.1698,536.0699 L686.6353,537.3353 L678.0782,538.4261 L669.4993,539.3493 L660.963,540.5997 L652.411,541.7301 L652.4497,542.0587 L644.0555,543.005 L635.6016,543.4444 L627.2475,544.7309 L618.8275,545.4582 L610.465,546.6738 L610.4638,546.6621 L602.3116,547.6763 L594.1503,548.6054 L585.9317,548.9991 L577.8148,550.3429 L569.6285,551.0389 L569.6289,551.0426 L561.716,551.5575 L553.8309,552.359 L545.9764,553.4762 L538.0844,554.2065 L530.185,554.8603 L530.1843,554.853 L522.6054,555.2252 L515.1036,556.4766 L507.5124,556.7097 L499.9505,557.2764 L492.4176,558.1727 L492.4152,558.1429 L485.2767,559.0017 L478.116,559.5807 L470.9341,559.8913 L463.766,560.3764 L456.6097,561.0111 L456.6151,561.0864 L449.9026,561.5735 L443.1676,561.7456 L436.4838,562.6341 L429.7754,563.1781 L423.0447,563.4102 L423.0385,563.3145 L416.8247,563.6188 L410.6484,564.5073 L404.422,564.6163 L398.2136,565.0058 L392.0058,565.4048 L392.0135,565.5375 L386.3435,565.4433 L380.7276,566.29 L375.0678,566.373 L369.4394,567.0016 L363.7765,567.0298 L363.7716,566.934 L358.7585,567.4694 L353.7118,567.3488 L348.7002,567.9127 L343.6759,568.2303 L338.64,568.32 " fill="none" style="stroke: #A9A9A9; stroke-width: 2.0; stroke-dasharray: 7.0,7.0;"/><polygon fill="#A9A9A9" points="333.51,568.57,333.5353,568.6353,335.2968,569.153,337.2067,570.0535,339.0682,570.8294,340.7708,571.1952,342.6935,572.1287,342.6761,572.1095,341.7601,571.2631,340.9318,570.5135,340.1646,569.8311,339.1871,568.917,338.5041,568.3274,338.6408,568.4514,339.1088,567.3484,339.9758,566.6074,340.8915,565.9106,341.5239,564.9567,342.3053,564.1381,342.3156,564.1584,340.5415,565.015,338.814,565.964,337.064,566.8684,335.3569,567.858,333.51,568.57" style="stroke: #A9A9A9; stroke-width: 2.0;"/><!--link Strategy to Flyweight--><path d="M1114.98,272 L1115.2422,272.0989 L1117.9198,280.9667 L1122.1345,290.4143 L1125.8486,299.6731 L1127.9167,308.3109 L1132.1664,317.7718 L1135.72,326.97 " fill="none" style="stroke: #A9A9A9; stroke-width: 2.0; stroke-dasharray: 7.0,7.0;"/><polygon fill="#A9A9A9" points="1137.5,331.68,1137.57,331.6839,1137.4719,329.7056,1137.7839,327.7502,1137.9624,325.7873,1137.7018,323.7999,1138.049,321.8465,1138.0254,321.8358,1137.455,322.8198,1137.0037,323.8573,1136.6352,324.9322,1135.9814,325.8786,1135.7272,327.0048,1135.8029,327.1731,1134.6092,326.3489,1133.6367,326.016,1132.6912,325.743,1131.5887,325.1213,1130.5688,324.683,1130.5849,324.699,1131.9474,326.0749,1133.3835,327.5237,1134.7841,328.9373,1136.2525,330.418,1137.5,331.68" style="stroke: #A9A9A9; stroke-width: 2.0;"/><!--link factoryMethod to templateMethod--><path d="M846.3,488 L846.5802,488 L845.7476,498.906 L846.5577,509.812 L846.8329,520.718 L845.3488,531.624 L846.3,542.53 " fill="none" style="stroke: #A9A9A9; stroke-width: 2.0; stroke-dasharray: 7.0,7.0;"/><polygon fill="#A9A9A9" points="846.3,547.68,846.364,547.7085,846.9738,545.8239,847.9589,544.1062,848.8217,542.3341,849.2827,540.3834,850.3,538.68,850.2817,538.6617,849.3995,539.3795,848.6096,540.1896,847.8839,541.0639,846.937,541.717,846.3,542.68,846.4305,542.8105,845.3514,541.7314,844.6534,541.0334,844.0018,540.3818,843.0798,539.4598,842.3,538.68,842.3208,538.6892,843.0903,540.4757,843.9544,542.3042,844.7728,544.1124,845.6784,545.9593,846.3,547.68" style="stroke: #A9A9A9; stroke-width: 2.0;"/><!--link Iterator to factoryMethod--><path d="M846.3,380 L846.5802,380 L845.7476,390.906 L846.5577,401.812 L846.8329,412.718 L845.3488,423.624 L846.3,434.53 " fill="none" style="stroke: #A9A9A9; stroke-width: 2.0; stroke-dasharray: 7.0,7.0;"/><polygon fill="#A9A9A9" points="846.3,439.68,846.364,439.7085,846.9738,437.8239,847.9589,436.1062,848.8217,434.3341,849.2827,432.3834,850.3,430.68,850.2817,430.6617,849.3995,431.3795,848.6096,432.1896,847.8839,433.0639,846.937,433.717,846.3,434.68,846.4305,434.8105,845.3514,433.7314,844.6534,433.0334,844.0018,432.3818,843.0798,431.4598,842.3,430.68,842.3208,430.6892,843.0903,432.4757,843.9544,434.3042,844.7728,436.1124,845.6784,437.9593,846.3,439.68" style="stroke: #A9A9A9; stroke-width: 2.0;"/><!--link Memento to Iterator--><path d="M450.15,331.32 L450.1827,331.4075 L452.385,330.2888 L454.7789,329.6831 L457.1104,328.9104 L459.2368,327.5883 L461.6471,327.0266 L461.6356,326.9941 L463.9993,325.9906 L466.4212,325.1511 L468.8837,324.4257 L471.2066,323.3073 L473.725,322.7394 L473.803,322.9727 L476.1444,321.6348 L478.7135,320.9782 L481.3105,320.4048 L483.7457,319.3477 L486.266,318.5449 L486.275,318.5739 L488.8391,317.7284 L491.4442,317.0147 L494.0295,316.2374 L496.6526,315.5815 L499.1525,314.53 L499.2345,314.8168 L501.8583,314.0705 L504.4293,313.1393 L507.0777,312.4789 L509.7297,311.8311 L512.2668,310.7813 L512.1871,310.4709 L514.9867,310.3943 L517.5238,309.2954 L520.2605,308.9737 L522.7916,307.8517 L525.4913,307.3856 L525.4846,307.3559 L528.2066,307.1161 L530.7733,306.1821 L533.4316,305.6577 L536.0977,305.1677 L538.7082,304.4296 L538.742,304.6115 L541.3262,303.942 L543.9682,303.5833 L546.5169,302.7217 L549.2047,302.6102 L551.8,302 L551.8399,302.2404 L557.607,301.2373 L563.394,300.3535 L569.089,298.9153 L574.8514,297.8835 L580.6736,297.2118 L580.6308,296.939 L585.6119,296.4117 L590.5448,295.5769 L595.5476,295.1881 L600.4311,294.0379 L605.3855,293.3403 L605.365,293.1892 L607.6436,293.1365 L609.8346,292.438 L612.0879,292.1988 L614.4022,292.4089 L616.6079,291.8188 L616.6296,292.0112 L618.7834,291.9017 L620.8697,291.1936 L623.0405,291.2352 L625.193,291.1134 L627.3024,290.6111 L627.2849,290.4019 L629.3664,290.3955 L631.4421,290.3207 L633.5291,290.3804 L635.5723,289.9167 L637.6399,289.7455 L637.65,289.9508 L639.6582,289.4005 L641.6858,289.2466 L643.7416,289.6717 L645.7455,289.0308 L647.7913,289.25 L647.7934,289.4762 L649.8193,289.3224 L651.8445,289.0921 L653.8713,289.0346 L655.902,289.3763 L657.9272,289.153 L657.9229,289.02 L659.9939,289.4818 L662.0359,289.0393 L664.1109,289.625 L666.1673,289.6318 L668.2187,289.4826 L668.2267,289.5912 L670.3438,289.6604 L672.4896,290.1185 L674.6094,290.2253 L676.7184,290.1852 L678.8364,290.2671 L678.8499,290.3855 L681.0529,290.4631 L683.3185,291.0905 L685.5132,291.096 L687.7371,291.3574 L689.9514,291.5347 L689.911,291.2673 L692.2811,291.7124 L694.6998,292.4795 L697.0497,292.7909 L699.375,292.9389 L701.7344,293.3135 L701.7085,293.1727 L704.2412,293.6815 L706.7281,293.9409 L709.3408,294.8859 L711.8913,295.4915 L714.3563,295.6319 L714.4047,295.8608 L717.1466,296.5113 L719.7963,296.7269 L722.5432,297.4015 L725.2259,297.7722 L727.9879,298.518 L728.0167,298.6409 L730.9754,299.3212 L733.9689,300.1498 L736.8518,300.5078 L739.8239,301.2454 L742.8,302 L742.8571,302.1886 L746.1989,303.2489 L749.3855,303.7972 L752.7523,304.9403 L756.1222,306.0939 L759.4288,307.038 L759.3274,306.7861 L762.7636,308.5023 L766.0241,309.7817 L769.2408,310.9524 L772.5574,312.3712 L775.81,313.6313 L775.9509,313.9228 L778.8877,315.0231 L782.1474,316.7914 L785.28,318.2966 L788.3854,319.7457 L791.5012,321.2164 L791.5315,321.2713 L794.4373,322.8633 L797.191,324.1788 L800.1506,325.8685 L803.0493,327.4476 L806.06,329.23 " fill="none" style="stroke: #A9A9A9; stroke-width: 2.0; stroke-dasharray: 7.0,7.0;"/><polygon fill="#A9A9A9" points="810.65,331.94,810.707,331.9807,809.3931,330.2566,808.4135,328.7711,807.325,327.2079,805.8786,325.3891,804.9276,323.9241,804.9025,323.9176,805.073,324.984,805.3698,326.083,805.7546,327.2047,805.8364,328.2481,806.3425,329.4012,806.3887,329.5798,805.1946,329.4807,804.1352,329.9033,803.0923,330.3895,801.9537,330.5054,800.8655,330.8161,800.8681,330.8387,802.8212,331.0303,804.7861,331.3248,806.7453,331.5696,808.7154,331.9092,810.65,331.94" style="stroke: #A9A9A9; stroke-width: 2.0;"/><polygon fill="#A9A9A9" points="445.44,333.14,445.4435,333.21,447.4005,333.0993,449.3779,333.3989,451.3487,333.5649,453.2977,333.2916,455.2768,333.6264,455.2664,333.6027,454.1847,333.0386,453.1559,332.5939,452.1638,332.2322,451.0451,331.5845,450.1038,331.3374,450.2725,331.4121,450.3694,330.2178,450.9591,329.2415,451.6088,328.2919,451.9088,327.1874,452.3927,326.1644,452.4089,326.1804,450.9946,327.552,449.6538,328.9966,448.2776,330.406,446.9688,331.8827,445.44,333.14" style="stroke: #A9A9A9; stroke-width: 2.0;"/><!--link Decorator to Prototype--><path d="M590.05,380 L590.2347,380.2108 L582.5471,385.8378 L575.942,392.7005 L568.9845,399.1609 L560.8677,404.2978 L554.2873,411.1887 L546.842,417.0922 L539.7409,423.3887 L532.879,429.9583 L525.8,436.28 " fill="none" style="stroke: #A9A9A9; stroke-width: 2.0; stroke-dasharray: 7.0,7.0;"/><polygon fill="#A9A9A9" points="521.92,439.68,521.9409,439.7469,523.7592,438.9614,525.6999,438.5679,527.6007,438.0468,529.3705,437.1059,531.3217,436.7461,531.32,436.7202,530.1835,436.5311,529.0554,436.4722,527.9332,436.504,526.7908,436.2236,525.6767,436.3804,525.8608,436.3923,525.5402,435.2378,525.7572,434.1181,526.0398,433.0027,525.9407,431.8625,526.0424,430.7354,526.063,430.7449,525.2082,432.5198,524.4475,434.3381,523.6413,436.1355,522.9218,437.9728,521.92,439.68" style="stroke: #A9A9A9; stroke-width: 2.0;"/><!--link Prototype to Singleton--><path d="M446.04,488 L446.1586,488.2539 L437.0055,491.6095 L428.5476,496.4535 L419.8634,500.8128 L410.4347,503.5782 L401.9926,508.4561 L392.9951,512.1448 L384.2186,516.3067 L375.5958,520.7977 L366.4435,524.1548 L358.3452,529.7688 L348.8765,532.4486 L340.3199,537.0811 L331.8744,541.9518 L322.83,545.54 " fill="none" style="stroke: #A9A9A9; stroke-width: 2.0; stroke-dasharray: 7.0,7.0;"/><polygon fill="#A9A9A9" points="317.85,547.86,317.8513,547.93,319.8169,547.6853,321.7901,547.8512,323.7608,547.8834,325.7233,547.4759,327.6972,547.6771,327.6883,547.6527,326.5853,547.157,325.5269,546.784,324.4994,546.4963,323.3652,545.9146,322.3806,545.7448,322.554,545.8078,322.5695,544.6097,323.0915,543.5956,323.6752,542.604,323.8995,541.4817,324.3128,540.4282,324.33,540.4431,323.0122,541.9076,321.7726,543.44,320.4953,544.9396,319.2899,546.5017,317.85,547.86" style="stroke: #A9A9A9; stroke-width: 2.0;"/><!--
@startuml
skinparam packageStyle rect // mirar!!!

skinparam backgroundColor #222222
skinparam handwritten true
skinparam shadowing false
skinparam padding 1
skinparam arrow {
    Thickness 2
    Color #DarkGrey
    FontSize 20
    FontName courier
    FontStyle normal
    FontColor #DarkGrey
}
skinparam rectangle {
    BorderThickness 3
    BorderColor #ff69b4
    BackgroundColor #222222
    FontSize 20
    FontName courier
    FontStyle bold
    FontColor #ff69b4
}

rectangle Facade
rectangle Singleton

Facade .down.> Singleton

rectangle Builder
rectangle Composite
rectangle abstractFactory
rectangle Prototype

Builder .down.> abstractFactory
Builder .down.> Prototype
Builder .down.> Singleton
Builder <.right.> Composite

rectangle Visitor
rectangle Decorator
rectangle Iterator
rectangle Flyweight

Composite .down.> Visitor
Composite .down.> Decorator
Composite .down.> Iterator
Composite .down.> Flyweight
Composite .down.> Prototype

rectangle Interpreter
rectangle State

Interpreter .down.> Visitor
Interpreter .down.> Composite
Interpreter .down.> Iterator
Interpreter .down.> Flyweight
Interpreter .down.> State

rectangle chainofResponsability
rectangle Command
rectangle templateMethod
rectangle Observer

chainofResponsability .down.> Command
chainofResponsability .down.> Decorator
chainofResponsability .down.> Composite
chainofResponsability .down.> State
chainofResponsability .down.> templateMethod
chainofResponsability .down.> Observer

rectangle Mediator

Mediator .down.> Observer

rectangle Memento

Command .down.> Composite
Command .down.> Memento
Command .down.> Prototype

rectangle Bridge

Bridge .down.> abstractFactory

abstractFactory .down.> Singleton
abstractFactory .down.> Prototype
abstractFactory .down.> templateMethod

State .down.> Flyweight
State .down.> Singleton

rectangle Strategy

Strategy .down.> Flyweight

rectangle factoryMethod

factoryMethod .down.> templateMethod
Iterator .down.> factoryMethod
Iterator <.left.> Memento
Decorator .down.> Prototype
Prototype .down.> Singleton

rectangle Adapter
rectangle Proxy
@enduml

PlantUML version 1.2019.05(Sat Apr 20 18:45:36 CEST 2019)
(GPL source distribution)
Java Runtime: Java(TM) SE Runtime Environment
JVM: Java HotSpot(TM) 64-Bit Server VM
Java Version: 11.0.14+8-LTS-263
Operating System: Windows 10
OS Version: 10.0
Default Encoding: windows-1252
Language: es
Country: ES
--></g></svg>