<?xml version="1.0" encoding="UTF-8" standalone="no"?><svg xmlns="http://www.w3.org/2000/svg" xmlns:xlink="http://www.w3.org/1999/xlink" contentScriptType="application/ecmascript" contentStyleType="text/css" height="288px" preserveAspectRatio="none" style="width:163px;height:288px;" version="1.1" viewBox="0 0 163 288" width="163px" zoomAndPan="magnify"><defs><filter height="300%" id="fyuj7ry7dzilf" width="300%" x="-1" y="-1"><feGaussianBlur result="blurOut" stdDeviation="2.0"/><feColorMatrix in="blurOut" result="blurOut2" type="matrix" values="0 0 0 0 0 0 0 0 0 0 0 0 0 0 0 0 0 0 .4 0"/><feOffset dx="4.0" dy="4.0" in="blurOut2" result="blurOut3"/><feBlend in="SourceGraphic" in2="blurOut3" mode="normal"/></filter></defs><g><!--entity factorial--><rect fill="#FEFECE" filter="url(#fyuj7ry7dzilf)" height="37.6094" style="stroke: #000000; stroke-width: 1.5;" width="146" x="6" y="8"/><text fill="#000000" font-family="sans-serif" font-size="14" lengthAdjust="spacingAndGlyphs" textLength="126" x="16" y="32.5332">rightDigit(654321,3)</text><!--entity factorial5--><rect fill="#FEFECE" filter="url(#fyuj7ry7dzilf)" height="37.6094" style="stroke: #000000; stroke-width: 1.5;" width="138" x="10" y="124"/><text fill="#000000" font-family="sans-serif" font-size="14" lengthAdjust="spacingAndGlyphs" textLength="118" x="20" y="148.5332">rightDigit(65432,2)</text><!--entity factorial4--><rect fill="#FEFECE" filter="url(#fyuj7ry7dzilf)" height="37.6094" style="stroke: #000000; stroke-width: 1.5;" width="130" x="14" y="240"/><text fill="#000000" font-family="sans-serif" font-size="14" lengthAdjust="spacingAndGlyphs" textLength="110" x="24" y="264.5332">rightDigit(6543,1)</text><!--link factorial to factorial5--><path d="M75.32,46.18 C73.07,59.42 70.82,77.8 72,94 C72.58,102.05 73.71,110.81 74.9,118.61 " fill="none" id="factorial-factorial5" style="stroke: #A80036; stroke-width: 1.0;"/><polygon fill="#A80036" points="75.72,123.83,78.2575,114.3136,74.9351,118.892,70.3567,115.5696,75.72,123.83" style="stroke: #A80036; stroke-width: 1.0;"/><!--link factorial5 to factorial--><path d="M79,123.64 C79,103.96 79,72.67 79,51.28 " fill="none" id="factorial5-factorial" style="stroke: #A80036; stroke-width: 1.0; stroke-dasharray: 7.0,7.0;"/><polygon fill="#A80036" points="79,46.06,75,55.06,79,51.06,83,55.06,79,46.06" style="stroke: #A80036; stroke-width: 1.0;"/><text fill="#000000" font-family="sans-serif" font-size="13" lengthAdjust="spacingAndGlyphs" textLength="7" x="80" y="90.4951">3</text><!--link factorial5 to factorial4--><path d="M75.32,162.18 C73.07,175.42 70.82,193.8 72,210 C72.58,218.05 73.71,226.81 74.9,234.61 " fill="none" id="factorial5-factorial4" style="stroke: #A80036; stroke-width: 1.0;"/><polygon fill="#A80036" points="75.72,239.83,78.2575,230.3136,74.9351,234.892,70.3567,231.5696,75.72,239.83" style="stroke: #A80036; stroke-width: 1.0;"/><!--link factorial4 to factorial5--><path d="M79,239.64 C79,219.96 79,188.67 79,167.28 " fill="none" id="factorial4-factorial5" style="stroke: #A80036; stroke-width: 1.0; stroke-dasharray: 7.0,7.0;"/><polygon fill="#A80036" points="79,162.06,75,171.06,79,167.06,83,171.06,79,162.06" style="stroke: #A80036; stroke-width: 1.0;"/><text fill="#000000" font-family="sans-serif" font-size="13" lengthAdjust="spacingAndGlyphs" textLength="7" x="80" y="206.4951">3</text><!--
@startuml
rectangle "rightDigit(654321,3)" as factorial
rectangle "rightDigit(65432,2)" as factorial5
rectangle "rightDigit(6543,1)" as factorial4

factorial -down-> factorial5
factorial5 -down-> factorial4

factorial4 .down.> factorial5 : 3
factorial5 .down.> factorial : 3
@enduml

PlantUML version 1.2019.05(Sat Apr 20 18:45:36 CEST 2019)
(GPL source distribution)
Java Runtime: Java(TM) SE Runtime Environment
JVM: Java HotSpot(TM) 64-Bit Server VM
Java Version: 11.0.14+8-LTS-263
Operating System: Windows 10
OS Version: 10.0
Default Encoding: windows-1252
Language: es
Country: ES
--></g></svg>