<?xml version="1.0" encoding="UTF-8" standalone="no"?><svg xmlns="http://www.w3.org/2000/svg" xmlns:xlink="http://www.w3.org/1999/xlink" contentScriptType="application/ecmascript" contentStyleType="text/css" height="1047px" preserveAspectRatio="none" style="width:576px;height:1047px;background:#222222;" version="1.1" viewBox="0 0 576 1047" width="576px" zoomAndPan="magnify"><defs/><g><!--cluster ProgramacionImperativa--><polygon fill="#222222" points="153.514,160,153.514,160.2102,163.6473,159.5857,173.7807,160.1933,183.914,160.3997,194.0473,159.2866,204.1807,159.9223,214.314,159.5735,224.4473,159.6165,234.5807,159.9318,244.714,159.3086,254.8473,160.5536,264.9807,159.3697,275.114,159.8022,285.2473,160.4319,295.3807,159.9142,305.514,160,305.5818,160.0079,306.6489,170.0341,308.0247,180.0961,309.2515,190.1409,310.7624,200.2187,312.0139,210.2663,312.514,220.2266,312.514,220.453,313.114,220.3114,313.714,220.3811,314.314,220.4606,314.914,219.9862,315.514,220.2266,316.1925,220.2266,315.2175,230.5347,316.0478,240.8429,315.019,251.151,315.4455,261.4592,316.2556,271.7674,315.4653,282.0755,315.6193,292.3837,315.8526,302.6918,315.514,313,315.514,313.4162,305.389,312.9961,295.264,313.2872,285.139,312.4276,275.014,313.2844,264.889,313.5482,254.764,313.4445,244.639,313.613,234.514,312.5169,224.389,312.3478,214.264,312.3786,204.139,312.9411,194.014,312.8035,183.889,313.6814,173.764,312.8253,163.639,312.6569,153.514,313,153.7423,313,152.8472,302.8,152.9949,292.6,154.163,282.4,153.9497,272.2,154.2485,262,153.1922,251.8,153.8332,241.6,154.1044,231.4,153.0416,221.2,153.4181,211,153.64,200.8,154.1658,190.6,153.5098,180.4,153.9766,170.2,153.514,160" style="stroke: #FFFFFF; stroke-width: 3.0;"/><path d="M153.514,220.2266 L153.514,220.5068 L163.4515,219.6741 L173.389,220.4843 L183.3265,220.7595 L193.264,219.2754 L203.2015,220.1229 L213.139,219.6579 L223.0765,219.7152 L233.014,220.1357 L242.9515,219.3047 L252.889,220.9648 L262.8265,219.3862 L272.764,219.9629 L282.7015,220.8025 L292.639,220.1122 L302.5765,220.3175 L312.514,220.2266 " fill="#222222" style="stroke: #FFFFFF; stroke-width: 3.0;"/><text fill="#FFFFFF" font-family="courier" font-size="20" font-weight="bold" lengthAdjust="spacingAndGlyphs" textLength="144" x="158.514" y="183.1074">Programación</text><text fill="#FFFFFF" font-family="courier" font-size="20" font-weight="bold" lengthAdjust="spacingAndGlyphs" textLength="120" x="170.514" y="209.2207">Imperativa</text><!--cluster ProgramacionEstructurada--><polygon fill="#222222" points="339.514,160,339.514,160.2102,349.6473,159.5857,359.7807,160.1933,369.914,160.3997,380.0473,159.2866,390.1807,159.9223,400.314,159.5735,410.4473,159.6165,420.5807,159.9318,430.714,159.3086,440.8473,160.5536,450.9807,159.3697,461.114,159.8022,471.2473,160.4319,481.3807,159.9142,491.514,160,491.5818,160.0079,492.6489,170.0341,494.0247,180.0961,495.2515,190.1409,496.7624,200.2187,498.0139,210.2663,498.514,220.2266,498.514,220.453,499.114,220.3114,499.714,220.3811,500.314,220.4606,500.914,219.9862,501.514,220.2266,502.1925,220.2266,501.2175,230.5347,502.0478,240.8429,501.019,251.151,501.4455,261.4592,502.2556,271.7674,501.4653,282.0755,501.6193,292.3837,501.8526,302.6918,501.514,313,501.514,313.4162,491.389,312.9961,481.264,313.2872,471.139,312.4276,461.014,313.2844,450.889,313.5482,440.764,313.4445,430.639,313.613,420.514,312.5169,410.389,312.3478,400.264,312.3786,390.139,312.9411,380.014,312.8035,369.889,313.6814,359.764,312.8253,349.639,312.6569,339.514,313,339.7423,313,338.8472,302.8,338.9949,292.6,340.163,282.4,339.9497,272.2,340.2485,262,339.1922,251.8,339.8332,241.6,340.1044,231.4,339.0416,221.2,339.4181,211,339.64,200.8,340.1658,190.6,339.5098,180.4,339.9766,170.2,339.514,160" style="stroke: #FFFFFF; stroke-width: 3.0;"/><path d="M339.514,220.2266 L339.514,220.5068 L349.4515,219.6741 L359.389,220.4843 L369.3265,220.7595 L379.264,219.2754 L389.2015,220.1229 L399.139,219.6579 L409.0765,219.7152 L419.014,220.1357 L428.9515,219.3047 L438.889,220.9648 L448.8265,219.3862 L458.764,219.9629 L468.7015,220.8025 L478.639,220.1122 L488.5765,220.3175 L498.514,220.2266 " fill="#222222" style="stroke: #FFFFFF; stroke-width: 3.0;"/><text fill="#FFFFFF" font-family="courier" font-size="20" font-weight="bold" lengthAdjust="spacingAndGlyphs" textLength="144" x="344.514" y="183.1074">Programación</text><text fill="#FFFFFF" font-family="courier" font-size="20" font-weight="bold" lengthAdjust="spacingAndGlyphs" textLength="144" x="344.514" y="209.2207">Estructurada</text><!--cluster ProgramacionOrientadaObjetos--><polygon fill="#222222" points="140.514,705,140.514,705.2102,150.6473,704.5857,160.7807,705.1933,170.914,705.3997,181.0473,704.2866,191.1807,704.9223,201.314,704.5735,211.4473,704.6165,221.5807,704.9318,231.714,704.3086,241.8473,705.5536,251.9807,704.3697,262.114,704.8022,272.2473,705.4319,282.3807,704.9142,292.514,705,292.582,705.0055,293.2599,714.5907,294.2475,724.2011,295.0857,733.7993,296.2089,743.4206,297.0717,753.0208,297.8577,762.6148,298.2122,772.1738,299.1983,781.784,299.514,791.3398,299.514,791.5739,300.114,791.0994,300.714,791.566,301.314,791.241,301.914,791.5178,302.514,791.3398,302.019,791.3398,302.4455,800.8627,303.2556,810.3856,302.4653,819.9085,302.6193,829.4314,302.8526,838.9542,302.9302,848.4771,302.514,858,302.514,857.9961,292.389,858.2872,282.264,857.4276,272.139,858.2844,262.014,858.5482,251.889,858.4445,241.764,858.613,231.639,857.5169,221.514,857.3478,211.389,857.3786,201.264,857.9411,191.139,857.8035,181.014,858.6814,170.889,857.8253,160.764,857.6569,150.639,858.2283,140.514,858,139.8472,858,139.9949,847.8,141.163,837.6,140.9497,827.4,141.2485,817.2,140.1922,807,140.8332,796.8,141.1044,786.6,140.0416,776.4,140.4181,766.2,140.64,756,141.1658,745.8,140.5098,735.6,140.9766,725.4,139.9602,715.2,140.514,705" style="stroke: #FFFFFF; stroke-width: 3.0;"/><path d="M140.514,791.3398 L140.514,791.6201 L150.4515,790.7874 L160.389,791.5976 L170.3265,791.8727 L180.264,790.3887 L190.2015,791.2362 L200.139,790.7712 L210.0765,790.8285 L220.014,791.249 L229.9515,790.418 L239.889,792.078 L249.8265,790.4995 L259.764,791.0762 L269.7015,791.9158 L279.639,791.2255 L289.5765,791.4308 L299.514,791.3398 " fill="#222222" style="stroke: #FFFFFF; stroke-width: 3.0;"/><text fill="#FFFFFF" font-family="courier" font-size="20" font-weight="bold" lengthAdjust="spacingAndGlyphs" textLength="144" x="145.514" y="728.1074">Programación</text><text fill="#FFFFFF" font-family="courier" font-size="20" font-weight="bold" lengthAdjust="spacingAndGlyphs" textLength="108" x="163.514" y="754.2207">Orientada</text><text fill="#FFFFFF" font-family="courier" font-size="20" font-weight="bold" lengthAdjust="spacingAndGlyphs" textLength="108" x="163.514" y="780.334">a Objetos</text><!--cluster ProgramacionOrientadaProcesos--><polygon fill="#222222" points="195.514,882,195.514,882.2102,205.6473,881.5857,215.7807,882.1933,225.914,882.3997,236.0473,881.2866,246.1807,881.9223,256.314,881.5735,266.4473,881.6165,276.5807,881.9318,286.714,881.3086,296.8473,882.5536,306.9807,881.3697,317.114,881.8022,327.2473,882.4319,337.3807,881.9142,347.514,882,347.582,882.0055,348.2599,891.5907,349.2475,901.2011,350.0857,910.7993,351.2089,920.4206,352.0717,930.0208,352.8577,939.6148,353.2122,949.1738,354.1983,958.784,354.514,968.3398,354.514,968.5739,355.114,968.0994,355.714,968.566,356.314,968.241,356.914,968.5178,357.514,968.3398,357.019,968.3398,357.4455,977.8627,358.2556,987.3856,357.4653,996.9085,357.6193,1006.4314,357.8526,1015.9542,357.9302,1025.4771,357.514,1035,357.514,1034.9961,347.389,1035.2872,337.264,1034.4276,327.139,1035.2844,317.014,1035.5482,306.889,1035.4445,296.764,1035.613,286.639,1034.5169,276.514,1034.3478,266.389,1034.3786,256.264,1034.9411,246.139,1034.8035,236.014,1035.6814,225.889,1034.8253,215.764,1034.6569,205.639,1035.2283,195.514,1035,194.8472,1035,194.9949,1024.8,196.163,1014.6,195.9497,1004.4,196.2485,994.2,195.1922,984,195.8332,973.8,196.1044,963.6,195.0416,953.4,195.4181,943.2,195.64,933,196.1658,922.8,195.5098,912.6,195.9766,902.4,194.9602,892.2,195.514,882" style="stroke: #FFFFFF; stroke-width: 3.0;"/><path d="M195.514,968.3398 L195.514,968.6201 L205.4515,967.7874 L215.389,968.5976 L225.3265,968.8727 L235.264,967.3887 L245.2015,968.2362 L255.139,967.7712 L265.0765,967.8285 L275.014,968.249 L284.9515,967.418 L294.889,969.078 L304.8265,967.4995 L314.764,968.0762 L324.7015,968.9158 L334.639,968.2255 L344.5765,968.4308 L354.514,968.3398 " fill="#222222" style="stroke: #FFFFFF; stroke-width: 3.0;"/><text fill="#FFFFFF" font-family="courier" font-size="20" font-weight="bold" lengthAdjust="spacingAndGlyphs" textLength="144" x="200.514" y="905.1074">Programación</text><text fill="#FFFFFF" font-family="courier" font-size="20" font-weight="bold" lengthAdjust="spacingAndGlyphs" textLength="108" x="218.514" y="931.2207">Orientada</text><text fill="#FFFFFF" font-family="courier" font-size="20" font-weight="bold" lengthAdjust="spacingAndGlyphs" textLength="120" x="212.514" y="957.334">a Procesos</text><!--class SentenciaSimple--><polygon fill="#222222" points="183.514,233,183.514,233.2102,193.1807,232.5857,202.8473,233.1933,212.514,233.3997,222.1807,232.2866,231.8473,232.9223,241.514,232.5735,251.1807,232.6165,260.8473,232.9318,270.514,232.3086,280.1807,233.5536,289.8473,232.3697,299.514,233,299.3162,233,299.9459,243.7044,299.4282,254.4089,299.5822,265.1133,299.4821,275.8177,299.6925,286.5221,299.514,297.2266,299.514,297.4657,289.8473,297.8123,280.1807,297.8976,270.514,297.9058,260.8473,297.4812,251.1807,297.6901,241.514,297.9288,231.8473,296.5054,222.1807,297.9051,212.514,296.9301,202.8473,297.7604,193.1807,296.7315,183.514,297.2266,183.4455,297.2266,184.2556,286.5221,183.4653,275.8177,183.6193,265.1133,183.8526,254.4089,183.9302,243.7044,183.514,233" style="stroke: #DC143C; stroke-width: 3.0;"/><text fill="#DC143C" font-family="courier" font-size="20" font-style="italic" font-weight="bold" lengthAdjust="spacingAndGlyphs" textLength="108" x="187.514" y="259.1074">Sentencia</text><text fill="#DC143C" font-family="courier" font-size="20" font-style="italic" font-weight="bold" lengthAdjust="spacingAndGlyphs" textLength="72" x="205.514" y="285.2207">Simple</text><!--class SentenciaCompuesta--><polygon fill="#222222" points="361.514,233,361.514,233.2102,371.1807,232.5857,380.8473,233.1933,390.514,233.3997,400.1807,232.2866,409.8473,232.9223,419.514,232.5735,429.1807,232.6165,438.8473,232.9318,448.514,232.3086,458.1807,233.5536,467.8473,232.3697,477.514,233,477.3162,233,477.9459,243.7044,477.4282,254.4089,477.5822,265.1133,477.4821,275.8177,477.6925,286.5221,477.514,297.2266,477.514,297.4657,467.8473,297.8123,458.1807,297.8976,448.514,297.9058,438.8473,297.4812,429.1807,297.6901,419.514,297.9288,409.8473,296.5054,400.1807,297.9051,390.514,296.9301,380.8473,297.7604,371.1807,296.7315,361.514,297.2266,361.4455,297.2266,362.2556,286.5221,361.4653,275.8177,361.6193,265.1133,361.8526,254.4089,361.9302,243.7044,361.514,233" style="stroke: #DC143C; stroke-width: 3.0;"/><text fill="#DC143C" font-family="courier" font-size="20" font-style="italic" font-weight="bold" lengthAdjust="spacingAndGlyphs" textLength="108" x="365.514" y="259.1074">Sentencia</text><text fill="#DC143C" font-family="courier" font-size="20" font-style="italic" font-weight="bold" lengthAdjust="spacingAndGlyphs" textLength="108" x="365.514" y="285.2207">Compuesta</text><!--class Objeto--><polygon fill="#222222" points="157.514,804,157.514,804.2102,167.514,803.5857,177.514,804.1933,187.514,804.3997,197.514,803.2866,207.514,803.9223,217.514,803.5735,227.514,803.6165,237.514,804,237.4913,804,237.2835,811.6227,237.6985,819.2453,237.3039,826.868,237.4481,834.4906,237.514,842.1133,237.514,842.5452,227.514,842.0275,217.514,842.1815,207.514,842.0813,197.514,842.2918,187.514,842.3524,177.514,842.699,167.514,842.7843,157.514,842.1133,157.7404,842.1133,157.5989,834.4906,157.6685,826.868,157.7481,819.2453,157.2736,811.6227,157.514,804" style="stroke: #A9A9A9; stroke-width: 3.0;"/><text fill="#A9A9A9" font-family="courier" font-size="20" font-weight="bold" lengthAdjust="spacingAndGlyphs" textLength="72" x="161.514" y="830.1074">Objeto</text><!--class Funcion--><polygon fill="#222222" points="212.514,981,212.514,981.2102,222.7362,980.5857,232.9584,981.1933,243.1807,981.3997,253.4029,980.2866,263.6251,980.9223,273.8473,980.5735,284.0696,980.6165,294.2918,980.9318,304.514,981,304.2835,981,304.6985,988.6227,304.3039,996.2453,304.4481,1003.868,304.658,1011.4906,304.514,1019.1133,304.514,1019.0275,294.2918,1019.1815,284.0696,1019.0813,273.8473,1019.2918,263.6251,1019.3524,253.4029,1019.699,243.1807,1019.7843,232.9584,1019.7925,222.7362,1019.3679,212.514,1019.1133,212.6685,1019.1133,212.7481,1011.4906,212.2736,1003.868,212.7402,996.2453,212.4152,988.6227,212.514,981" style="stroke: #A9A9A9; stroke-width: 3.0;"/><text fill="#A9A9A9" font-family="courier" font-size="20" font-weight="bold" lengthAdjust="spacingAndGlyphs" textLength="84" x="216.514" y="1007.1074">Función</text><!--class Programa--><polygon fill="#222222" points="460.514,8,460.514,8.2102,470.914,7.5857,481.314,8.1933,491.714,8.3997,502.114,7.2866,512.514,7.9223,522.914,7.5735,533.314,7.6165,543.714,7.9318,554.114,7.3086,564.514,8,564.6985,8,564.3039,15.6227,564.4481,23.2453,564.658,30.868,564.4854,38.4906,564.514,46.1133,564.514,46.1815,554.114,46.0813,543.714,46.2918,533.314,46.3524,522.914,46.699,512.514,46.7843,502.114,46.7925,491.714,46.3679,481.314,46.5769,470.914,46.8155,460.514,46.1133,460.2736,46.1133,460.7402,38.4906,460.4152,30.868,460.6919,23.2453,460.349,15.6227,460.514,8" style="stroke: #FFFFFF; stroke-width: 3.0;"/><text fill="#FFFFFF" font-family="courier" font-size="20" font-weight="bold" lengthAdjust="spacingAndGlyphs" textLength="96" x="464.514" y="34.1074">Programa</text><!--class Sentencia--><polygon fill="#222222" points="361.514,106,361.514,106.2102,371.1807,105.5857,380.8473,106.1933,390.514,106.3997,400.1807,105.2866,409.8473,105.9223,419.514,105.5735,429.1807,105.6165,438.8473,105.9318,448.514,105.3086,458.1807,106.5536,467.8473,105.3697,477.514,106,477.4481,106,477.658,113.6227,477.4854,121.2453,477.5367,128.868,477.5034,136.4906,477.514,144.1133,477.514,144.2918,467.8473,144.3524,458.1807,144.699,448.514,144.7843,438.8473,144.7925,429.1807,144.3679,419.514,144.5769,409.8473,144.8155,400.1807,143.3921,390.514,144.7918,380.8473,143.8168,371.1807,144.6471,361.514,144.1133,361.349,144.1133,361.4912,136.4906,361.7612,128.868,361.4978,121.2453,361.5491,113.6227,361.514,106" style="stroke: #DC143C; stroke-width: 3.0;"/><text fill="#DC143C" font-family="courier" font-size="20" font-style="italic" font-weight="bold" lengthAdjust="spacingAndGlyphs" textLength="108" x="365.514" y="132.1074">Sentencia</text><!--class Expresion--><polygon fill="#222222" points="21.5137,246,21.5137,246.2102,31.1804,245.5857,40.847,246.1933,50.5137,246.3997,60.1804,245.2866,69.847,245.9223,79.5137,245.5735,89.1804,245.6165,98.847,245.9318,108.5137,245.3086,118.1804,246.5536,127.847,245.3697,137.5137,246,137.4478,246,137.6577,253.6227,137.4851,261.2453,137.5364,268.868,137.5031,276.4906,137.5137,284.1133,137.5137,284.2918,127.847,284.3524,118.1804,284.699,108.5137,284.7843,98.847,284.7925,89.1804,284.3679,79.5137,284.5769,69.847,284.8155,60.1804,283.3921,50.5137,284.7918,40.847,283.8168,31.1804,284.6471,21.5137,284.1133,21.3487,284.1133,21.4909,276.4906,21.7609,268.868,21.4975,261.2453,21.5488,253.6227,21.5137,246" style="stroke: #228B22; stroke-width: 3.0;"/><text fill="#228B22" font-family="courier" font-size="20" font-style="italic" font-weight="bold" lengthAdjust="spacingAndGlyphs" textLength="108" x="25.5137" y="272.1074">Expresión</text><!--class Valor--><polygon fill="#222222" points="150.514,553,150.514,553.2102,160.2283,552.5857,169.9426,553.1933,179.6569,553.3997,189.3711,552.2866,199.0854,552.9223,208.7997,552.5735,218.514,553,218.3862,553,218.4913,560.6227,218.2835,568.2453,218.6985,575.868,218.3039,583.4906,218.514,591.1133,218.514,590.9155,208.7997,591.5452,199.0854,591.0275,189.3711,591.1815,179.6569,591.0813,169.9426,591.2918,160.2283,591.3524,150.514,591.1133,150.7092,591.1133,150.7377,583.4906,150.7404,575.868,150.5989,568.2453,150.6685,560.6227,150.514,553" style="stroke: #228B22; stroke-width: 3.0;"/><text fill="#228B22" font-family="courier" font-size="20" font-weight="bold" lengthAdjust="spacingAndGlyphs" textLength="60" x="154.514" y="579.1074">Valor</text><!--class Referencia--><polygon fill="#222222" points="344.514,357,344.514,357.2102,354.514,356.5857,364.514,357.1933,374.514,357.3997,384.514,356.2866,394.514,356.9223,404.514,356.5735,414.514,356.6165,424.514,357,424.4913,357,424.2835,364.6227,424.6985,372.2453,424.3039,379.868,424.4481,387.4906,424.514,395.1133,424.514,395.5452,414.514,395.0275,404.514,395.1815,394.514,395.0813,384.514,395.2918,374.514,395.3524,364.514,395.699,354.514,395.7843,344.514,395.1133,344.7404,395.1133,344.5989,387.4906,344.6685,379.868,344.7481,372.2453,344.2736,364.6227,344.514,357" style="stroke: #228B22; stroke-width: 3.0;"/><text fill="#228B22" font-family="courier" font-size="20" font-weight="bold" lengthAdjust="spacingAndGlyphs" textLength="72" x="348.514" y="383.1074">Acceso</text><!--class Operador--><polygon fill="#222222" points="27.5137,357,27.5137,357.2102,37.9137,356.5857,48.3137,357.1933,58.7137,357.3997,69.1137,356.2866,79.5137,356.9223,89.9137,356.5735,100.3137,356.6165,110.7137,356.9318,121.1137,356.3086,131.5137,357,131.6982,357,131.3036,364.6227,131.4478,372.2453,131.6577,379.868,131.4851,387.4906,131.5137,395.1133,131.5137,395.1815,121.1137,395.0813,110.7137,395.2918,100.3137,395.3524,89.9137,395.699,79.5137,395.7843,69.1137,395.7925,58.7137,395.3679,48.3137,395.5769,37.9137,395.8155,27.5137,395.1133,27.2733,395.1133,27.7399,387.4906,27.4149,379.868,27.6916,372.2453,27.3487,364.6227,27.5137,357" style="stroke: #228B22; stroke-width: 3.0;"/><text fill="#228B22" font-family="courier" font-size="20" font-style="italic" font-weight="bold" lengthAdjust="spacingAndGlyphs" textLength="96" x="31.5137" y="383.1074">Operador</text><!--class Dato--><polygon fill="#222222" points="405.514,455,405.514,455.2102,414.8473,454.5857,424.1807,455.1933,433.514,455.3997,442.8473,454.2866,452.1807,454.9223,461.514,455,461.3718,455,461.3862,462.6227,461.4913,470.2453,461.2835,477.868,461.6985,485.4906,461.514,493.1133,461.514,492.483,452.1807,492.9155,442.8473,493.5452,433.514,493.0275,424.1807,493.1815,414.8473,493.0813,405.514,493.1133,405.5735,493.1133,405.5937,485.4906,405.7092,477.868,405.7377,470.2453,405.7404,462.6227,405.514,455" style="stroke: #1E90FF; stroke-width: 3.0;"/><text fill="#1E90FF" font-family="courier" font-size="20" font-style="italic" font-weight="bold" lengthAdjust="spacingAndGlyphs" textLength="48" x="409.514" y="481.1074">Dato</text><!--class Constante--><polygon fill="#222222" points="310.514,553,310.514,553.2102,320.1807,552.5857,329.8473,553.1933,339.514,553.3997,349.1807,552.2866,358.8473,552.9223,368.514,552.5735,378.1807,552.6165,387.8473,552.9318,397.514,552.3086,407.1807,553.5536,416.8473,552.3697,426.514,553,426.4481,553,426.658,560.6227,426.4854,568.2453,426.5367,575.868,426.5034,583.4906,426.514,591.1133,426.514,591.2918,416.8473,591.3524,407.1807,591.699,397.514,591.7843,387.8473,591.7925,378.1807,591.3679,368.514,591.5769,358.8473,591.8155,349.1807,590.3921,339.514,591.7918,329.8473,590.8168,320.1807,591.6471,310.514,591.1133,310.349,591.1133,310.4912,583.4906,310.7612,575.868,310.4978,568.2453,310.5491,560.6227,310.514,553" style="stroke: #1E90FF; stroke-width: 3.0;"/><text fill="#1E90FF" font-family="courier" font-size="20" font-weight="bold" lengthAdjust="spacingAndGlyphs" textLength="108" x="314.514" y="579.1074">Constante</text><!--class Variable--><polygon fill="#222222" points="461.514,553,461.514,553.2102,471.914,552.5857,482.314,553.1933,492.714,553.3997,503.114,552.2866,513.514,552.9223,523.914,552.5735,534.314,552.6165,544.714,552.9318,555.114,552.3086,565.514,553,565.6985,553,565.3039,560.6227,565.4481,568.2453,565.658,575.868,565.4854,583.4906,565.514,591.1133,565.514,591.1815,555.114,591.0813,544.714,591.2918,534.314,591.3524,523.914,591.699,513.514,591.7843,503.114,591.7925,492.714,591.3679,482.314,591.5769,471.914,591.8155,461.514,591.1133,461.2736,591.1133,461.7402,583.4906,461.4152,575.868,461.6919,568.2453,461.349,560.6227,461.514,553" style="stroke: #1E90FF; stroke-width: 3.0;"/><text fill="#1E90FF" font-family="courier" font-size="20" font-weight="bold" lengthAdjust="spacingAndGlyphs" textLength="96" x="465.514" y="579.1074">Variable</text><!--class Tipo--><polygon fill="#222222" points="90.5137,651,90.5137,651.2102,99.847,650.5857,109.1804,651.1933,118.5137,651.3997,127.847,650.2866,137.1804,650.9223,146.5137,651,146.3715,651,146.3859,658.6227,146.491,666.2453,146.2832,673.868,146.6982,681.4906,146.5137,689.1133,146.5137,688.483,137.1804,688.9155,127.847,689.5452,118.5137,689.0275,109.1804,689.1815,99.847,689.0813,90.5137,689.1133,90.5732,689.1133,90.5934,681.4906,90.7089,673.868,90.7374,666.2453,90.7401,658.6227,90.5137,651" style="stroke: #A9A9A9; stroke-width: 3.0;"/><text fill="#A9A9A9" font-family="courier" font-size="20" font-style="italic" font-weight="bold" lengthAdjust="spacingAndGlyphs" textLength="48" x="94.5137" y="677.1074">Tipo</text><!--class TipoPrimitivo--><polygon fill="#222222" points="6.5137,791,6.5137,791.2102,16.1804,790.5857,25.847,791.1933,35.5137,791.3997,45.1804,790.2866,54.847,790.9223,64.5137,790.5735,74.1804,790.6165,83.847,790.9318,93.5137,790.3086,103.1804,791.5536,112.847,790.3697,122.5137,791,122.3159,791,122.9456,801.7044,122.4279,812.4089,122.5819,823.1133,122.4818,833.8177,122.6922,844.5221,122.5137,855.2266,122.5137,855.4657,112.847,855.8123,103.1804,855.8976,93.5137,855.9058,83.847,855.4812,74.1804,855.6901,64.5137,855.9288,54.847,854.5054,45.1804,855.9051,35.5137,854.9301,25.847,855.7604,16.1804,854.7315,6.5137,855.2266,6.4452,855.2266,7.2553,844.5221,6.465,833.8177,6.619,823.1133,6.8523,812.4089,6.9299,801.7044,6.5137,791" style="stroke: #A9A9A9; stroke-width: 3.0;"/><text fill="#A9A9A9" font-family="courier" font-size="20" font-style="italic" font-weight="bold" lengthAdjust="spacingAndGlyphs" textLength="48" x="40.5137" y="817.1074">Tipo</text><text fill="#A9A9A9" font-family="courier" font-size="20" font-style="italic" font-weight="bold" lengthAdjust="spacingAndGlyphs" textLength="108" x="10.5137" y="843.2207">Primitivo</text><!--class Array--><polygon fill="#222222" points="109.514,981,109.514,981.2102,119.2283,980.5857,128.9426,981.1933,138.6569,981.3997,148.3711,980.2866,158.0854,980.9223,167.7997,980.5735,177.514,981,177.3862,981,177.4913,988.6227,177.2835,996.2453,177.6985,1003.868,177.3039,1011.4906,177.514,1019.1133,177.514,1018.9155,167.7997,1019.5452,158.0854,1019.0275,148.3711,1019.1815,138.6569,1019.0813,128.9426,1019.2918,119.2283,1019.3524,109.514,1019.1133,109.7092,1019.1133,109.7377,1011.4906,109.7404,1003.868,109.5989,996.2453,109.6685,988.6227,109.514,981" style="stroke: #A9A9A9; stroke-width: 3.0;"/><text fill="#A9A9A9" font-family="courier" font-size="20" font-weight="bold" lengthAdjust="spacingAndGlyphs" textLength="60" x="113.514" y="1007.1074">Array</text><!--link Programa to Sentencia--><path d="M485.863,55.51 L486.0643,55.705 L478.9214,61.8816 L472.9584,69.2013 L466.6113,76.1488 L459.0005,81.8722 L453.0644,89.2179 L446.594,96.046 " fill="none" style="stroke: #A9A9A9; stroke-width: 2.0;"/><polygon fill="#A9A9A9" points="437.244,105.698,437.2702,105.763,439.0194,104.8336,440.922,104.2851,442.7747,103.6127,444.463,102.5322,446.3789,102.0165,446.3785,101.9906,445.2454,101.8924,444.1144,101.9247,442.9849,102.0478,441.8503,101.8581,440.7228,102.1066,440.9073,102.1095,440.4947,100.972,440.6208,99.8431,440.8127,98.7152,440.6221,97.5812,440.6326,96.4505,440.654,96.4583,439.9449,98.2963,439.3331,100.1699,438.6743,102.0264,438.105,103.9157,437.244,105.698" style="stroke: #A9A9A9; stroke-width: 2.0;"/><path d="M440.7228,102.1066 L440.7899,102.1716 L441.7037,100.8293 L443.011,99.8679 L444.1901,98.7825 L444.948,97.2891 L446.289,96.3605 " fill="#A9A9A9" style="stroke: #A9A9A9; stroke-width: 2.0;"/><polygon fill="#A9A9A9" points="495.021,46.06,495.0358,46.1285,493.5822,46.2302,492.2155,46.7334,490.8205,47.1059,489.3325,47.0485,487.9732,47.5861,487.9478,47.5814,487.573,48.979,487.3267,50.4001,487.1697,51.8376,486.705,53.2186,486.6713,54.6787,486.7103,54.8591,488.0364,54.1682,489.4764,54.0038,490.9304,53.9038,492.3034,53.4299,493.719,53.1526,493.7414,53.1567,493.969,51.7322,494.2984,50.3263,494.5786,48.9114,494.9526,47.5138,495.021,46.06" style="stroke: #A9A9A9; stroke-width: 2.0;"/><!--link Programa to Dato--><path d="M519.32,59.345 L519.4117,59.3628 L519.9342,63.4172 L520.9943,67.5756 L521.8793,71.7002 L522.1885,75.7133 L523.2948,79.8808 L523.2607,79.8749 L523.9111,84.4941 L524.733,89.143 L525.6742,93.8125 L526.2044,98.411 L527.3103,103.109 L527.5535,103.1463 L527.4075,105.5031 L527.9717,107.9688 L528.6224,110.4479 L528.7691,112.8496 L529.181,115.292 L529.211,115.2961 L529.5065,117.7554 L529.9388,120.2336 L530.3051,122.7027 L530.7973,125.1891 L530.8791,127.619 L531.1752,127.6543 L531.4718,130.1137 L531.5773,132.5503 L531.9625,135.0203 L532.3607,137.4918 L532.3437,139.9138 L532.0247,139.8829 L532.878,142.3601 L532.6807,144.7356 L533.282,147.1884 L533.061,149.5616 L533.514,152 L533.423,151.9921 L535.3212,161.5893 L535.0934,171.0027 L536.1202,180.5245 L537.2522,190.0554 L537.6245,199.5207 L537.809,199.534 L537.8996,203.3662 L538.3055,207.2211 L538.2013,211.0393 L538.858,214.9122 L539.0087,218.7488 L539.2522,218.7589 L539.3555,222.3412 L539.5797,225.9286 L539.2423,229.4925 L539.3165,233.0736 L539.7555,236.6699 L539.4793,236.6694 L539.7226,240.2498 L539.6548,243.8296 L540.0383,247.4103 L539.6511,250.9896 L539.7221,254.5697 L539.5698,254.5621 L539.6321,258.4077 L539.0435,262.2207 L538.9179,266.0569 L539.2451,269.9156 L538.7658,273.7341 L538.9587,273.7502 L538.9173,275.8528 L538.2757,277.9056 L538.3859,280.0208 L538.3323,282.1225 L537.897,284.1924 L537.6881,284.171 L537.624,286.4394 L537.4915,288.7007 L537.4933,290.9758 L536.9727,293.1975 L536.744,295.449 L536.9481,295.4733 L536.2086,297.863 L535.8631,300.2996 L536.0932,302.8048 L535.2635,305.1838 L535.2889,307.6646 L535.5132,307.6944 L535.025,310.3438 L534.4609,312.983 L534.0681,315.6451 L534.0711,318.3598 L533.514,321 L533.3821,320.9829 L533.2105,325.3758 L532.1418,329.6522 L532.0932,334.0612 L531.4702,338.3955 L530.6925,342.7097 L530.7997,342.7282 L530.1294,346.104 L529.8433,349.546 L529.2101,352.9283 L528.4317,356.2855 L527.7739,359.6635 L527.8871,359.7007 L526.6592,362.8698 L525.957,366.2117 L524.6602,369.3582 L523.6079,372.5851 L522.4754,375.7855 L522.231,375.6697 L521.4616,377.5035 L520.9864,379.4767 L520.0949,381.2526 L519.054,382.9577 L518.2202,384.7609 L518.0951,384.6912 L516.994,386.7614 L515.6713,388.7081 L514.9575,390.9941 L513.9424,393.1122 L512.514,395 L512.7078,395.131 L510.827,398.0482 L508.5778,400.7164 L506.7173,403.6474 L504.5996,406.4045 L502.7994,409.3762 L502.8965,409.4568 L500.6338,412.158 L498.4884,414.9565 L495.9709,417.4464 L493.7535,420.1852 L491.5495,422.9351 L491.6914,423.0719 L489.3263,425.6058 L486.5759,427.7684 L484.2731,430.3624 L481.9782,432.9639 L479.5256,435.4135 L479.3413,435.2142 L477.225,437.7557 L474.7888,439.9515 L472.2732,442.0613 L469.9393,444.3675 L467.489,446.548 " fill="none" style="stroke: #A9A9A9; stroke-width: 2.0;"/><polygon fill="#A9A9A9" points="457.532,454.992,457.5517,455.0592,459.3835,454.3056,461.3307,453.9461,463.2404,453.4583,465.0263,452.5483,466.9835,452.2227,466.9814,452.1969,465.8443,451.9882,464.7179,451.9096,463.599,451.9215,462.4544,451.6217,461.3457,451.7585,461.5296,451.7736,461.2292,450.6137,461.4657,449.498,461.7677,448.3876,461.6886,447.2459,461.8099,446.1207,461.8304,446.1306,460.9447,447.8903,460.1523,449.6951,459.315,451.4781,458.5634,453.3025,457.532,454.992" style="stroke: #A9A9A9; stroke-width: 2.0;"/><path d="M461.3457,451.7585 L461.4061,451.8297 L462.447,450.5831 L463.842,449.754 L465.1217,448.789 L466.0221,447.3767 L467.4475,446.5835 " fill="#A9A9A9" style="stroke: #A9A9A9; stroke-width: 2.0;"/><polygon fill="#A9A9A9" points="516.617,46.36,516.682,46.3862,515.9503,47.6463,515.5996,49.0598,515.1248,50.4234,514.242,51.6227,513.9241,53.0494,513.9059,53.0309,514.8521,53.9598,515.89,54.9818,516.9916,56.0684,517.8737,56.9321,519.0631,58.108,519.2343,58.177,519.4068,56.6917,520.0792,55.4077,520.8125,54.1482,521.191,52.7458,521.7561,51.4186,521.772,51.4349,520.7208,50.3993,519.7422,49.4376,518.7286,48.4403,517.7818,47.5109,516.617,46.36" style="stroke: #A9A9A9; stroke-width: 2.0;"/><!--link Sentencia to SentenciaSimple--><path d="M344.378,154.511 L344.4335,154.5862 L341.4817,156.4198 L338.8552,158.6941 L336.1227,160.8249 L333.042,162.4838 L330.4434,164.7959 L330.4216,164.7692 L327.7834,166.7195 L325.2552,168.8049 L322.8036,170.9841 L320.0883,172.8399 L317.7422,175.1487 L317.9063,175.3321 L315.2486,177.0028 L313.0698,179.2091 L310.9495,181.4806 L308.4892,183.3721 L306.2077,185.4634 L306.2289,185.4851 L304.1108,187.4874 L302.0891,189.5886 L300.021,191.6421 L298.0415,193.7866 L295.7729,195.6344 L295.9894,195.8395 L294.1116,197.8263 L292.0943,199.6808 L290.2813,201.7289 L288.4779,203.7861 L286.371,205.5557 L286.1306,205.3437 L284.91,207.6684 L282.8978,209.2949 L281.4874,211.4522 L279.4572,213.0629 L277.9351,215.1216 L277.9116,215.1022 L276.6816,217.1528 L274.9037,218.7497 L273.4491,220.6143 L272.0217,222.5014 L270.3984,224.2263 L270.5439,224.3406 L269.0561,225.9328 L267.817,227.7202 L266.1757,229.1918 L265.1343,231.1345 L263.694,232.764 " fill="none" style="stroke: #A9A9A9; stroke-width: 2.0;"/><polygon fill="none" points="340.698,148.553,340.7151,148.6209,344.7741,147.3845,348.9333,146.5463,353.0599,145.5784,357.0791,144.184,361.247,143.38,361.2264,143.3643,358.5663,146.6655,356.0101,150.0458,353.5261,153.481,350.7933,156.7268,348.409,160.238,348.563,160.3396,346.6914,157.7853,345.2696,155.5277,343.9026,153.3063,342.2163,150.8743,340.698,148.553" style="stroke: #A9A9A9; stroke-width: 2.0;"/><!--link Sentencia to SentenciaCompuesta--><path d="M431.711,163.886 L431.8042,163.8917 L431.737,167.2786 L432.2164,170.6991 L432.5177,174.1086 L432.2338,177.4821 L432.76,180.9055 L432.7255,180.9051 L432.6176,184.4778 L432.6838,188.0529 L432.8711,191.6295 L432.6413,195.2007 L432.9956,198.7795 L433.2416,198.7876 L432.6001,202.2995 L432.6766,205.835 L432.8407,209.3734 L432.4951,212.895 L432.4176,216.4255 L432.4479,216.428 L432.1252,219.6914 L431.94,222.9664 L431.6886,226.2358 L431.5637,229.516 L431.026,232.761 " fill="none" style="stroke: #A9A9A9; stroke-width: 2.0;"/><polygon fill="none" points="424.772,164.81,424.8407,164.8239,425.4774,160.6288,426.5167,156.5152,427.425,152.375,427.9021,148.1476,428.976,144.041,428.9529,144.0292,430.7825,147.7476,432.7282,151.5255,434.7548,155.3448,436.5029,159.0215,438.641,162.898,438.6662,163.0808,435.8385,163.0723,433.0844,163.5975,430.3393,164.1878,427.5419,164.3993,424.772,164.81" style="stroke: #A9A9A9; stroke-width: 2.0;"/><!--link SentenciaCompuesta to Sentencia--><path d="M407.512,219.576 L407.6053,219.5799 L407.1967,216.4065 L407.3353,213.2559 L407.2956,210.0978 L406.6701,206.9154 L406.8556,203.7668 L406.821,203.7667 L406.6609,200.5176 L406.675,197.2688 L406.8101,194.0202 L406.528,190.7709 L406.8303,187.5225 L407.0761,187.5319 L406.6715,184.3371 L406.9847,181.1696 L407.3856,178.0056 L407.2768,174.822 L407.4361,171.6488 L407.4663,171.6513 L407.6693,168.708 L408.0099,165.7763 L408.2841,162.839 L408.685,159.9124 L408.673,156.951 " fill="none" style="stroke: #A9A9A9; stroke-width: 2.0;"/><polygon fill="#A9A9A9" points="410.577,144.041,410.6362,144.0785,409.4062,145.6311,408.5232,147.4035,407.5272,149.1043,406.1597,150.5697,405.3065,152.3609,405.291,152.3402,406.1299,151.5721,407.0466,150.9089,408.0175,150.3186,408.8018,149.4772,409.8474,148.9875,409.9955,149.0975,410.3534,149.7704,411.1438,150.7645,411.987,151.7979,412.5232,152.6031,413.2208,153.5284,413.2427,153.5345,412.6818,151.628,412.2206,149.7494,411.7113,147.8573,411.2938,145.9909,410.577,144.041" style="stroke: #A9A9A9; stroke-width: 2.0;"/><path d="M409.8474,148.9875 L409.9398,149.0011 L409.4316,150.5435 L409.4652,152.1658 L409.3224,153.7621 L408.5994,155.2728 L408.6795,156.902 " fill="#A9A9A9" style="stroke: #A9A9A9; stroke-width: 2.0;"/><polygon fill="#A9A9A9" points="408.641,232.761,408.7024,232.7947,409.2146,231.4306,410.0867,230.2642,410.8416,229.0334,411.2111,227.5908,412.1141,226.4414,412.0939,226.4252,411.1034,225.2254,410.2151,224.107,409.3977,223.0453,408.3358,221.7884,407.6164,220.8048,407.7781,220.8937,406.7377,221.9676,406.1694,223.3009,405.6587,224.6659,404.8129,225.8467,404.1433,227.1244,404.1611,227.1386,405.0345,228.2451,405.9889,229.4162,406.9042,230.5561,407.8941,231.7555,408.641,232.761" style="stroke: #A9A9A9; stroke-width: 2.0;"/><text fill="#A9A9A9" font-family="courier" font-size="20" lengthAdjust="spacingAndGlyphs" textLength="12" x="393.6924" y="173.2022">+</text><!--link Sentencia to Expresion--><path d="M348.126,127.215 L348.1298,127.3083 L343.1722,127.2332 L338.237,127.7052 L333.2946,127.9991 L328.3281,127.707 L323.3948,128.226 L323.3929,128.1915 L318.1824,128.3268 L312.9816,128.6359 L307.7876,129.0659 L302.5703,129.0794 L297.3855,129.6762 L297.4039,129.9216 L292.0966,129.7905 L286.8428,130.3758 L281.5955,131.0485 L276.3103,131.2126 L271.045,131.6442 L271.0478,131.6744 L268.444,131.8707 L265.8529,132.2044 L263.2557,132.4717 L260.6701,132.8656 L258.0464,132.847 L258.0782,133.1435 L255.5333,133.4195 L252.968,133.5042 L250.4326,133.8688 L247.8986,134.2466 L245.3201,134.2086 L245.2807,133.8905 L242.8901,134.814 L240.3696,134.69 L237.9479,135.3623 L235.4245,135.2146 L232.9844,135.739 L232.9801,135.7088 L230.6662,136.407 L228.2506,136.4011 L225.8951,136.8106 L223.5446,137.255 L221.1577,137.4479 L221.1886,137.6303 L218.9175,137.8256 L216.6993,138.3326 L214.3956,138.3354 L212.2193,139.0903 L209.9583,139.3451 L210.0062,139.584 L207.9064,139.9579 L205.8304,140.4504 L203.6439,140.3918 L201.5384,140.7372 L199.5046,141.4405 L199.4339,141.1735 L195.8586,142.3801 L192.2035,143.2859 L188.6641,144.6279 L184.9273,145.2251 L181.3078,146.265 L181.2492,146.1242 L178.588,147.5057 L175.6765,148.2854 L172.9429,149.493 L170.3835,151.1193 L167.514,152 L167.618,152.1634 L165.2453,153.8309 L162.5493,154.9903 L160.2583,156.7862 L157.8791,158.4434 L155.2942,159.7775 L155.1625,159.614 L152.9866,161.5819 L150.7677,163.4963 L148.6334,165.5159 L146.1697,167.1265 L143.89,168.9656 L144.0332,169.1131 L141.606,170.8393 L139.4551,172.8503 L137.708,175.2773 L135.2175,176.9384 L133.3268,179.2174 L133.4963,179.3672 L131.4562,181.472 L129.3588,183.5261 L127.3909,185.6946 L125.7221,188.1275 L123.6299,190.1863 L123.5248,190.1047 L122.0767,192.6154 L119.9138,194.5712 L118.5636,197.158 L116.7558,199.3895 L114.8248,201.5253 L114.9142,201.5874 L113.2644,203.8098 L111.9348,206.2545 L110.316,208.4983 L108.5761,210.6582 L106.9367,212.8878 L107.0376,212.9513 L105.4986,215.0648 L104.428,217.473 L102.8276,219.548 L101.4452,221.76 L99.9911,223.927 L99.7569,223.7919 L98.6396,225.9108 L97.8044,228.1924 L96.57,230.2438 L95.1924,232.2127 L94.0134,234.296 " fill="none" style="stroke: #A9A9A9; stroke-width: 2.0;"/><polygon fill="#A9A9A9" points="87.8696,245.929,87.9129,245.9841,89.3322,244.6024,91.0055,243.5436,92.5961,242.3797,93.9147,240.8701,95.6098,239.8389,95.6022,239.8142,94.4869,240.0369,93.4101,240.3843,92.3601,240.8185,91.2178,240.9538,90.2047,241.5078,90.3811,241.5622,89.6702,240.3648,89.4742,239.3263,89.341,238.3072,88.8423,237.1753,88.5359,236.1027,88.5586,236.1042,88.392,238.0672,88.3287,240.0372,88.2156,242.0039,88.1976,243.9769,87.8696,245.929" style="stroke: #A9A9A9; stroke-width: 2.0;"/><path d="M90.2047,241.5078 L90.2873,241.5514 L90.7891,240.007 L91.7751,238.7184 L92.6034,237.3465 L92.9132,235.7007 L93.9408,234.434 " fill="#A9A9A9" style="stroke: #A9A9A9; stroke-width: 2.0;"/><polygon fill="#A9A9A9" points="361.266,126.806,361.303,126.8655,359.9687,125.9265,358.8515,125.3361,357.6635,124.6322,356.2431,123.555,355.1445,122.9945,355.1295,122.9734,353.8875,123.7157,352.7212,124.5643,351.6077,125.4868,350.3126,126.1546,349.2718,127.1792,349.3693,127.3359,350.3851,127.7632,351.6856,128.6478,353.0208,129.5883,354.1539,130.2041,355.3933,130.9907,355.4065,131.0092,356.5617,130.1451,357.7769,129.3653,358.9632,128.5448,360.2048,127.8019,361.266,126.806" style="stroke: #A9A9A9; stroke-width: 2.0;"/><text fill="#A9A9A9" font-family="courier" font-size="20" lengthAdjust="spacingAndGlyphs" textLength="12" x="75.2001" y="230.9754">*</text><!--link Sentencia to Dato--><path d="M477.796,138.211 L477.8496,138.2875 L479.4156,139.2688 L481.2958,140.6987 L483.0737,141.9824 L484.5151,142.7859 L486.4222,144.2543 L486.3968,144.2309 L487.7008,145.6754 L489.1332,147.2375 L490.655,148.8812 L491.869,150.2434 L493.514,152 L493.7203,152.1341 L494.4481,153.6451 L495.7781,155.5476 L497.1817,157.498 L498.1577,159.1703 L499.3586,160.9889 L499.3852,161.0033 L500.3527,162.837 L501.4416,164.7366 L502.4719,166.6044 L503.6139,168.5329 L504.3917,170.2637 L504.6641,170.3852 L505.5186,172.2936 L506.1975,174.1235 L507.1335,176.0682 L508.0815,178.0183 L508.6477,179.7979 L508.3461,179.6894 L509.6341,181.8535 L509.929,183.6602 L510.9789,185.7386 L511.2513,187.5373 L512.1609,189.5652 L512.1316,189.5569 L513.0392,191.6492 L513.262,193.5488 L513.8888,195.5621 L514.5496,197.5849 L514.9657,199.539 L515.1467,199.5769 L515.3901,201.5694 L515.9429,203.6267 L515.9951,205.579 L516.7939,207.6879 L517.0963,209.6927 L517.3374,209.7276 L517.59,211.7825 L517.9623,213.8547 L517.7783,215.8464 L518.0021,217.8971 L518.5871,220.0001 L518.3119,219.9767 L518.7381,222.0848 L518.8542,224.1665 L519.4201,226.2864 L519.218,228.3411 L519.4724,230.4345 L519.32,230.43 L519.6367,232.5445 L519.3018,234.6397 L519.4303,236.7486 L520.012,238.8711 L519.7866,240.9695 L519.9802,240.9736 L520.0684,243.0982 L519.5545,245.2102 L519.7948,247.338 L519.8708,249.4623 L519.5639,251.5787 L519.3544,251.5644 L519.3764,253.7071 L519.3297,255.8452 L519.4178,257.9924 L518.9819,260.104 L518.8387,262.2354 L519.0431,262.2583 L518.3555,264.3437 L518.0623,266.4732 L518.3452,268.6671 L517.5674,270.7424 L517.6454,272.9134 L517.869,272.9475 L517.4108,275.0617 L516.8768,277.1645 L516.5137,279.2932 L516.5452,281.4822 L516.0182,283.586 L515.8875,283.5611 L515.8713,285.7634 L514.9662,287.7963 L515.0718,290.0218 L514.6083,292.1389 L513.9915,294.2268 L514.0977,294.2508 L513.5336,296.3479 L513.3498,298.531 L512.8224,300.6364 L512.1514,302.7094 L511.5996,304.8093 L511.715,304.8393 L510.999,306.8944 L510.8188,309.0884 L510.0326,311.1253 L509.4957,313.2268 L508.8769,315.3071 L508.6172,315.2317 L508.1001,317.3342 L507.8957,319.5276 L507.2487,321.5924 L506.4431,323.611 L505.8576,325.6937 L505.7212,325.65 L505.1086,327.7138 L504.2545,329.7002 L504.0642,331.8992 L503.5454,333.993 L502.5761,335.9425 L502.797,336.0194 L502.1659,338.061 L501.115,339.9564 L500.5071,342.0061 L499.6059,343.9536 L499.0667,346.0272 L499.185,346.0714 L498.4288,348.0444 L497.8155,350.0708 L496.7494,351.9278 L496.0484,353.9214 L495.3638,355.9212 L495.5468,355.9942 L494.8256,357.95 L493.6074,359.7075 L492.9665,361.6953 L492.3357,363.6873 L491.5016,365.598 L491.2516,365.4923 L490.8489,367.5458 L490.0124,369.416 L489.0682,371.2405 L488.3702,373.1692 L487.5146,375.0313 L487.8093,375.1655 L485.7458,378.5796 L484.3574,382.3011 L482.7033,385.9017 L480.9923,389.4763 L479.3031,393.0609 L479.3593,393.0887 L477.6885,396.4308 L475.735,399.6327 L474.1641,403.0242 L472.4801,406.3597 L471.004,409.7984 L471.0291,409.8117 L469.4162,412.8634 L467.8226,415.9255 L466.0226,418.8776 L464.4878,421.971 L462.8919,425.0317 L462.8454,425.0054 L461.5849,427.8615 L459.9967,430.5321 L458.1138,433.0359 L456.7432,435.8298 L455.2413,438.5492 L455.021,438.4178 L453.9685,440.9328 L452.7078,443.3237 L451.3006,445.6271 L449.5436,447.7219 L448.327,450.139 " fill="none" style="stroke: #A9A9A9; stroke-width: 2.0;"/><polygon fill="#A9A9A9" points="445.53,454.667,445.5695,454.7248,447.0785,453.4418,448.8192,452.4978,450.4844,451.4435,451.9016,450.0259,453.6622,449.1111,453.6562,449.0859,452.5284,449.2331,451.4307,449.5074,450.3539,449.87,449.2051,449.9282,448.1571,450.4128,448.3367,450.4553,447.6923,449.2634,447.5723,448.1956,447.5162,447.1429,447.0879,446.0022,446.8554,444.9077,446.8779,444.9108,446.5798,446.8582,446.3842,448.8194,446.1391,450.774,445.9885,452.7414,445.53,454.667" style="stroke: #A9A9A9; stroke-width: 2.0;"/><!--link Expresion to Valor--><path d="M111.01,299.342 L111.0829,299.4004 L112.9323,301.8087 L115.2092,304.5591 L117.3469,307.1981 L119.0267,309.4708 L121.3403,312.2506 L121.3122,312.2305 L123.2131,314.9706 L125.2555,317.8121 L127.3963,320.7241 L129.1979,323.3932 L131.4746,326.4025 L131.684,326.5317 L133.0918,329.2626 L135.111,332.3708 L137.2048,335.525 L138.8646,338.4114 L140.7526,341.4387 L140.7797,341.4522 L142.2922,344.5446 L143.9282,347.6986 L145.5046,350.8229 L147.1947,354.0039 L148.514,357 L148.7906,357.1114 L149.8423,359.7155 L150.7156,362.2477 L151.8501,364.8851 L152.9968,367.5275 L153.7556,370.0136 L153.4531,369.9075 L154.9818,372.797 L155.5145,375.337 L156.8044,378.1427 L157.3145,380.6748 L158.4638,383.4312 L158.4347,383.4222 L159.6196,386.2704 L160.1244,388.9101 L161.0306,391.6728 L161.9704,394.4458 L162.6672,397.1443 L162.8459,397.1922 L163.4109,399.9239 L164.2813,402.7375 L164.6577,405.4186 L165.7709,408.2973 L166.3943,411.0446 L166.6315,411.1003 L167.2425,413.8856 L167.9712,416.6985 L168.1528,419.3831 L168.7355,422.1617 L169.6736,425.0237 L169.403,424.9683 L170.2199,427.8084 L170.732,430.586 L171.6862,433.4543 L171.8855,436.1678 L172.5336,438.9733 L172.3835,438.9464 L173.1273,441.7534 L173.2295,444.4457 L173.788,447.2196 L174.7929,450.0733 L175.0028,452.7848 L175.1942,452.8145 L175.7468,455.548 L175.7043,458.1889 L176.4072,460.9457 L176.9478,463.6772 L177.1099,466.35 L176.9018,466.3221 L177.4223,468.9864 L177.8747,471.6416 L178.461,474.3148 L178.5267,476.9181 L178.8832,479.5604 L179.0874,479.584 L178.9323,482.0817 L179.1714,484.6249 L179.9864,487.2344 L179.7411,489.7218 L180.3513,492.3077 L180.5764,492.3298 L180.681,494.7518 L180.7094,497.1664 L180.9097,499.5979 L181.5074,502.0682 L181.5428,504.4835 L181.4102,504.4726 L181.9936,506.8042 L181.6752,509.0618 L182.3822,511.4035 L182.5119,513.6978 L182.486,515.9794 L182.5947,515.986 L182.7582,520.0843 L183.3109,524.2065 L183.5119,528.3071 L183.5661,532.3987 L183.7422,536.4978 L183.8613,536.5022 L183.8055,539.7953 L184.3027,543.1088 L184.1745,546.3993 L184.3035,549.6992 L184.348,552.996 " fill="none" style="stroke: #A9A9A9; stroke-width: 2.0;"/><polygon fill="none" points="105.5746,303.762,105.6395,303.7885,103.8457,299.786,102.4322,295.9387,100.8949,292.0409,98.9503,287.977,97.5695,284.143,97.5569,284.1204,101.1986,286.0879,104.9041,288.1694,108.6539,290.3302,112.251,292.2179,116.062,294.488,116.1843,294.6262,113.8253,296.1854,111.8234,298.1482,109.8649,300.1603,107.6531,301.8858,105.5746,303.762" style="stroke: #A9A9A9; stroke-width: 2.0;"/><!--link Expresion to Referencia--><path d="M120.554,295.387 L120.6034,295.4663 L122.6806,296.6181 L125.0476,298.2345 L127.3202,299.6997 L129.2824,300.6673 L131.6743,302.3236 L131.657,302.2937 L133.9191,303.5138 L136.2685,304.8846 L138.6785,306.3602 L140.8795,307.4748 L143.3732,309.095 L143.4877,309.3128 L145.6488,310.1112 L148.1441,311.5455 L150.6801,313.0573 L152.979,314.1178 L155.4026,315.4157 L155.4153,315.4432 L157.8189,316.5196 L160.2804,317.7214 L162.7139,318.8628 L165.2007,320.1195 L167.514,321 L167.6267,321.2761 L169.8773,322.1975 L172.0553,322.9408 L174.3397,323.9447 L176.629,324.9609 L178.7603,325.5899 L178.6468,325.2902 L181.1704,326.7443 L183.3202,327.2114 L185.7542,328.4289 L187.8955,328.8736 L190.2767,329.9517 L190.2666,329.923 L192.7311,331.0899 L194.9589,331.5861 L197.3263,332.478 L199.7055,333.4032 L202.0001,334.0887 L202.058,334.2644 L204.373,334.8702 L206.7869,335.7761 L209.0406,336.1964 L211.5334,337.3412 L213.8672,338.0042 L213.9392,338.237 L216.3152,338.9325 L218.7269,339.7435 L220.9724,340.0176 L223.3397,340.6853 L225.815,341.7016 L225.7378,341.4365 L228.2007,342.373 L230.5767,343.0108 L233.0788,344.082 L235.3655,344.4132 L237.7803,345.1843 L237.7399,345.0373 L240.1911,345.9364 L242.4697,346.207 L244.871,346.9245 L247.3924,348.0794 L249.7,348.4555 L249.7486,348.6429 L252.1441,349.3841 L254.3884,349.5423 L256.8221,350.4307 L259.2146,351.16 L261.5109,351.5186 L261.462,351.3144 L266.1096,352.5803 L270.7411,353.7792 L275.4041,355.1096 L279.9448,355.9291 L284.5539,357.034 L284.5973,357.235 L288.8719,357.7381 L293.2304,358.6291 L297.7113,360.0867 L301.9667,360.5011 L306.4041,361.7572 L306.4477,361.9792 L310.4523,362.6389 L314.4421,363.2235 L318.4653,363.9776 L322.5653,365.1235 L326.5565,365.7149 L326.533,365.584 L330.1929,366.6177 L333.693,366.7608 L337.3747,367.9165 L340.9541,368.5021 L344.506,368.934 " fill="none" style="stroke: #A9A9A9; stroke-width: 2.0;"/><polygon fill="none" points="116.461,301.07,116.5171,301.1119,113.8141,297.5923,111.44,294.3186,108.9588,290.9647,106.1253,287.3477,103.7795,284.095,103.7729,284.0699,107.8434,285.0299,111.947,286.1161,116.0735,287.2902,120.1208,288.1616,124.279,289.457,124.4321,289.5601,122.5411,291.6623,121.0971,294.0654,119.7076,296.5052,118.0009,298.7314,116.461,301.07" style="stroke: #A9A9A9; stroke-width: 2.0;"/><!--link Expresion to Operador--><path d="M67.2727,304.384 L67.3661,304.3874 L66.9891,307.1163 L67.1594,309.865 L67.1516,312.6073 L66.5576,315.3283 L66.7749,318.0788 L66.7404,318.0782 L66.6335,320.8425 L66.7008,323.6099 L66.889,326.3794 L66.6602,329.1416 L67.0156,331.914 L67.261,331.9322 L66.9321,334.5272 L67.3196,337.1755 L67.7945,339.8302 L67.7609,342.4471 L67.9947,345.084 L68.0247,345.0884 L68.3242,347.4217 L68.7603,349.7751 L69.1304,352.1188 L69.6263,354.481 L69.7123,356.783 " fill="none" style="stroke: #A9A9A9; stroke-width: 2.0;"/><polygon fill="none" points="60.3267,303.514,60.3896,303.5449,62.0692,299.6484,64.1176,295.9328,66.0459,292.1583,67.5794,288.1901,69.6594,284.49,69.6341,284.4844,70.4341,288.5978,71.3617,292.7392,72.3778,296.9003,73.0885,300.9939,74.2271,305.182,74.2491,305.3652,71.422,304.6398,68.6591,304.4493,65.904,304.3242,63.1034,303.8192,60.3267,303.514" style="stroke: #A9A9A9; stroke-width: 2.0;"/><!--link Operador to Expresion--><path d="M91.8444,343.865 L91.9375,343.8722 L91.8353,341.5854 L92.279,339.3406 L92.5449,337.0822 L92.2261,334.7787 L92.7166,332.5375 L92.6821,332.5367 L92.5866,330.164 L92.6651,327.7957 L92.8646,325.4304 L92.6471,323.0547 L93.0136,320.6936 L93.2596,320.6994 L92.6779,318.3167 L92.8145,315.9508 L93.0386,313.5869 L92.7529,311.2111 L92.7354,308.8416 L92.7656,308.8439 L92.5505,306.5702 L92.4731,304.3069 L92.3292,302.0386 L92.3121,299.7798 L91.8818,297.49 " fill="none" style="stroke: #A9A9A9; stroke-width: 2.0;"/><polygon fill="#A9A9A9" points="89.9477,284.49,90.0152,284.5087,89.2882,286.3512,88.9569,288.3035,88.4968,290.22,87.6128,292.0189,87.3155,293.9806,87.2947,293.9652,87.8749,292.987,88.56,292.0865,89.318,291.2401,89.8247,290.2074,90.6834,289.4356,90.7933,289.5839,91.4673,289.9404,92.4622,290.7298,93.4962,291.572,94.3024,292.1069,95.2285,292.8035,95.2477,292.8157,94.1633,291.1351,93.1664,289.51,92.1273,287.8581,91.1686,286.2574,89.9477,284.49" style="stroke: #A9A9A9; stroke-width: 2.0;"/><path d="M90.6834,289.4356 L90.7758,289.4493 L90.7368,290.9911 L91.2394,292.6134 L91.5656,294.2095 L91.3118,295.7193 L91.8609,297.3485 " fill="#A9A9A9" style="stroke: #A9A9A9; stroke-width: 2.0;"/><polygon fill="#A9A9A9" points="89.8917,356.783,89.9435,356.8301,90.7599,355.6231,91.8801,354.6924,92.9013,353.6717,93.5972,352.3552,94.7435,351.4482,94.72,351.4372,94.0031,350.0818,93.4044,348.7818,92.8879,347.5203,92.0881,346.1261,91.6851,344.9178,91.8216,345.0419,90.5593,345.8434,89.6956,347.0073,88.8806,348.2155,87.7825,349.1664,86.8333,350.2526,86.8539,350.2622,87.4354,351.5541,88.1106,352.89,88.7405,354.2046,89.4568,355.5597,89.8917,356.783" style="stroke: #A9A9A9; stroke-width: 2.0;"/><text fill="#A9A9A9" font-family="courier" font-size="20" lengthAdjust="spacingAndGlyphs" textLength="12" x="77.7418" y="313.342">+</text><!--link Expresion to Tipo--><path d="M59.4062,284.318 L59.4743,284.382 L56.5558,287.0809 L54.0363,290.1549 L51.3869,293.1067 L48.3103,295.6569 L45.825,298.7631 L45.7986,298.7408 L44.264,300.318 L42.8624,302.0074 L41.5534,303.775 L39.9255,305.2735 L38.7441,307.1488 L38.939,307.2991 L37.128,308.7852 L35.8858,310.7102 L34.713,312.6886 L33.1365,314.3556 L31.7723,316.1864 L31.7972,316.2036 L30.4334,318.0976 L29.1832,320.0701 L27.8782,322.0048 L26.6777,324.0117 L25.1364,325.783 L25.3917,325.9371 L24.1803,327.9516 L22.8041,329.8666 L21.669,331.9272 L20.5452,333.9946 L19.0634,335.846 L18.7774,335.7012 L18.2758,338.0695 L16.8325,339.9611 L16.1051,342.2151 L14.6405,344.0959 L13.7802,346.2825 L13.7519,346.2713 L13.2331,348.5479 L12.0535,350.5615 L11.2638,352.7303 L10.5068,354.9122 L9.5137,357 L9.696,357.0314 L8.8658,360.7549 L8.347,364.5319 L7.3243,368.2223 L7.0533,372.042 L6.2825,375.7758 L6.5228,375.8161 L7.1236,379.6533 L7.8437,383.5106 L8.0095,387.2747 L8.5816,391.1071 L9.5137,395 L9.2435,394.9428 L10.2698,398.6867 L10.9916,402.3662 L12.155,406.1392 L12.5645,409.7526 L13.4221,413.4608 L13.2742,413.424 L14.4457,417.2015 L14.9847,420.8217 L15.9735,424.5538 L17.4023,428.3954 L18.0475,432.042 L18.2339,432.0946 L19.4115,435.85 L20.0096,439.4419 L21.3337,443.2387 L22.4995,446.9908 L23.2969,450.639 L23.0965,450.5764 L24.4123,454.3279 L25.6625,458.059 L27.0416,461.8304 L27.9194,465.4451 L29.0773,469.1474 L29.272,469.2135 L30.0879,472.7313 L31.2797,476.3767 L33.0203,480.2085 L33.7504,483.6972 L35.2958,487.4627 L35.5083,487.5401 L36.6948,491.0977 L37.8093,494.6291 L39.0862,498.2196 L40.7382,501.9467 L41.8594,505.4805 L41.7353,505.4325 L43.4678,509.0986 L44.3565,512.4381 L46.2047,516.149 L47.5127,519.6508 L48.6751,523.0962 L48.7759,523.1373 L50.0895,526.526 L51.7641,530.0619 L53.1126,533.4647 L54.3247,536.812 L55.65,540.2055 L55.7597,540.2523 L57.005,543.4824 L58.7594,546.9298 L59.938,550.1315 L61.3535,553.4342 L62.6912,556.7038 L62.4441,556.594 L63.9295,559.7872 L65.7125,563.1127 L67.0744,566.2511 L68.2853,569.3223 L69.7056,572.4866 L69.5756,572.4267 L70.9962,575.4385 L72.1865,578.3442 L74.0099,581.5415 L75.5199,584.5945 L76.6004,587.4496 L76.8116,587.5501 L78.2157,590.39 L79.2183,593.0389 L80.6446,595.8894 L81.7905,598.6064 L83.2824,601.4881 L83.3958,601.5437 L84.6562,604.1383 L86.0535,606.8001 L87.0167,609.249 L88.33,611.8696 L89.6589,614.4978 L89.835,614.5864 L91.0797,616.9865 L91.8466,619.1459 L93.1687,621.5849 L94.5005,624.0287 L95.6368,626.3742 L95.396,626.2487 L97.8537,630.4337 L99.8938,634.4011 L101.83,638.3144 L104.0034,642.3513 L106.025,646.309 " fill="none" style="stroke: #A9A9A9; stroke-width: 2.0;"/><polygon fill="#A9A9A9" points="108.436,650.808,108.5059,650.8132,108.1529,648.8334,108.2094,646.884,108.1326,644.9246,107.6172,642.9329,107.7089,640.986,107.6841,640.9785,107.2458,642.028,106.9324,643.1152,106.7059,644.2286,106.18,645.2516,106.0735,646.4013,106.1269,646.578,104.9297,645.8731,103.8884,645.6841,102.866,645.5579,101.733,645.0656,100.6582,644.7659,100.6722,644.7839,102.2073,645.9659,103.8059,647.2298,105.3738,648.4541,107.0002,649.7538,108.436,650.808" style="stroke: #A9A9A9; stroke-width: 2.0;"/><!--link Referencia to Dato--><path d="M393.73,395.057 L393.9796,395.1844 L397.921,403.9809 L403.3255,413.5242 L408.2537,422.8243 L411.6148,431.3246 L417.0527,440.8849 L421.828,450.107 " fill="none" style="stroke: #A9A9A9; stroke-width: 2.0;"/><polygon fill="#A9A9A9" points="424.172,454.698,424.242,454.7018,423.9283,452.7237,424.0248,450.7676,423.9877,448.8044,423.5114,446.8175,423.6431,444.8634,423.6184,444.8554,423.159,445.8958,422.8238,446.9764,422.5749,448.0851,422.0285,449.0973,421.8989,450.2446,421.9558,450.4201,420.7578,449.6959,419.726,449.4842,418.7145,449.335,417.5851,448.822,416.5176,448.5004,416.5319,448.5181,418.0418,449.7316,419.6168,451.0257,421.1604,452.2809,422.764,453.6102,424.172,454.698" style="stroke: #A9A9A9; stroke-width: 2.0;"/><!--link Dato to Variable--><path d="M461.504,508.589 L461.7193,508.7684 L467.2059,515.5868 L473.9546,523.457 L480.2924,530.9847 L485.2786,537.3861 L492.0561,545.2802 L498.262,552.698 " fill="none" style="stroke: #A9A9A9; stroke-width: 2.0;"/><polygon fill="none" points="455.987,512.903,456.0526,512.9276,454.3725,508.8854,453.0769,504.9872,451.6562,501.0421,449.8235,496.9429,448.561,493.057,448.5477,493.0348,452.1242,495.1116,455.7677,497.3005,459.4579,499.5673,462.9874,501.5657,466.742,503.94,466.8601,504.0818,464.4565,505.5712,462.3978,507.4746,460.3812,509.4284,458.1197,511.0884,455.987,512.903" style="stroke: #A9A9A9; stroke-width: 2.0;"/><!--link Dato to Constante--><path d="M409.796,510.029 L410.0281,510.1861 L403.5606,518.2531 L398.4534,527.2411 L392.9033,535.9292 L385.8964,543.6309 L380.906,552.698 " fill="none" style="stroke: #A9A9A9; stroke-width: 2.0;"/><polygon fill="none" points="404.278,505.693,404.3198,505.7492,407.5976,503.0549,411.1204,500.6903,414.5634,498.2183,417.7442,495.3933,421.288,493.057,421.263,493.0504,420.0672,497.1177,418.9976,501.2183,418.0158,505.3422,416.7316,509.3861,415.871,513.542,415.9745,513.6948,413.4346,511.7982,411.1968,510.3478,408.9959,508.9518,406.5806,507.2391,404.278,505.693" style="stroke: #A9A9A9; stroke-width: 2.0;"/><!--link Dato to Valor--><path d="M405.434,485.826 L405.5348,486.0875 L395.6662,488.9999 L386.3885,493.4451 L376.9184,497.3912 L366.8154,499.6957 L357.5512,504.1759 L347.8148,507.4313 L338.2663,511.1741 L328.8485,515.2557 L318.9804,518.1697 L310.0085,523.4079 L299.8715,525.6244 L290.5099,529.8518 L281.2428,534.3245 L271.4254,537.3697 L261.9302,541.2506 L252.313,544.8153 L242.8448,548.7665 L233.3048,552.5312 L223.621,555.923 " fill="none" style="stroke: #A9A9A9; stroke-width: 2.0;"/><polygon fill="#A9A9A9" points="218.845,557.764,218.8485,557.834,220.8053,557.7251,222.7828,558.0264,224.7535,558.1941,226.7022,557.9226,228.6814,558.2591,228.6709,558.2354,227.5896,557.6704,226.5612,557.2248,225.5696,556.8622,224.4511,556.2136,223.5104,555.9656,223.6791,556.0404,223.777,554.8462,224.3675,553.8704,225.0181,552.9213,225.3191,551.8171,225.8039,550.7945,225.82,550.8106,224.4046,552.1809,223.0625,553.6244,221.685,555.0325,220.3749,556.508,218.845,557.764" style="stroke: #A9A9A9; stroke-width: 2.0;"/><!--link Valor to Tipo--><path d="M172.1,591.057 L172.3309,591.2158 L166.1958,598.6697 L161.4144,607.0544 L156.1921,615.1361 L149.5202,622.221 L144.7696,630.6269 L138.9374,638.2891 L133.957,646.537 " fill="none" style="stroke: #A9A9A9; stroke-width: 2.0;"/><polygon fill="#A9A9A9" points="131.097,650.698,131.1336,650.7577,132.7038,649.5503,134.4888,648.693,136.2038,647.7217,137.6888,646.3755,139.4922,645.5482,139.4875,645.5228,138.3539,645.6144,137.244,645.8344,136.1507,646.1437,135.0004,646.1454,133.9299,646.578,134.1114,646.6116,133.5174,645.4272,133.4532,644.341,133.4536,643.2668,133.078,642.1229,132.9002,641.0156,132.9225,641.0198,132.5291,642.9501,132.2374,644.8995,131.8966,646.8396,131.6496,648.7973,131.097,650.698" style="stroke: #A9A9A9; stroke-width: 2.0;"/><!--link Tipo to TipoPrimitivo--><path d="M105.166,708.324 L105.4299,708.4184 L101.3662,717.3089 L98.8494,726.7526 L95.8288,736.0161 L91.1517,744.6873 L88.6702,754.1436 L84.9526,763.1578 L81.7269,772.348 L78.8432,781.6605 L75.6491,790.862 " fill="none" style="stroke: #A9A9A9; stroke-width: 2.0;"/><polygon fill="none" points="98.6741,705.689,98.7286,705.7331,101.2319,702.3071,104.0546,699.1395,106.7732,695.8878,109.1499,692.3595,112,689.214,111.9741,689.2138,111.8292,693.4508,111.815,697.6887,111.8915,701.9272,111.6551,706.1636,111.857,710.403,111.9191,710.5768,109.1497,709.2624,106.5616,708.4553,103.9957,707.7102,101.3011,706.6049,98.6741,705.689" style="stroke: #A9A9A9; stroke-width: 2.0;"/><!--link Tipo to Objeto--><path d="M157.645,700.426 L157.7253,700.4737 L159.367,703.5001 L161.4796,706.806 L163.4388,710.0209 L164.8938,712.9365 L167.0468,716.2665 L167.0165,716.2499 L168.5507,719.2347 L170.2377,722.303 L172.031,725.4293 L173.4581,728.3557 L175.3981,731.562 L175.6182,731.6719 L176.6052,734.3585 L178.2351,737.366 L179.9433,740.4125 L181.1953,743.2314 L182.6872,746.17 L182.7149,746.1825 L183.9174,748.9198 L185.2458,751.7138 L186.5134,754.4804 L187.8969,757.2993 L188.9028,759.9479 L189.1796,760.0588 L190.2091,762.6212 L191.0599,765.112 L192.1722,767.7075 L193.2968,770.308 L194.0331,772.7529 L193.7301,772.6484 L195.1249,775.1892 L195.522,777.3858 L196.6776,779.8441 L197.0521,782.0329 L198.0668,784.4425 L198.0375,784.4343 L198.9693,786.6179 L199.2161,788.6093 L199.8672,790.7141 L200.5521,792.8284 L200.9923,794.8741 L201.1737,794.9104 L201.3517,796.68 L201.8397,798.5115 L201.8262,800.2428 L202.5608,802.1236 L202.798,803.905 " fill="none" style="stroke: #A9A9A9; stroke-width: 2.0;"/><polygon fill="none" points="151.686,704.101,151.7541,704.1173,150.5633,699.9478,149.7719,695.874,148.8504,691.7691,147.5012,687.5615,146.744,683.496,146.7281,683.4756,149.9992,685.9891,153.3506,688.6056,156.7578,691.2937,159.9727,693.735,163.457,696.522,163.5569,696.6772,160.9891,697.8612,158.7129,699.4982,156.4723,701.1905,154.0247,702.5612,151.686,704.101" style="stroke: #A9A9A9; stroke-width: 2.0;"/><!--link Objeto to Tipo--><path d="M172.895,792.613 L172.9776,792.6567 L171.7437,790.6591 L170.9938,788.9177 L170.0863,787.0929 L168.6605,784.9937 L167.9521,783.2743 L167.9214,783.2585 L166.7383,781.1419 L165.7102,779.1045 L164.79,777.1222 L163.4983,774.9501 L162.7269,773.0438 L162.9467,773.1545 L160.1964,768.3934 L158.0876,763.9557 L156.0571,759.5574 L153.5711,754.9295 L151.3248,750.4224 L151.3517,750.4362 L150.0662,747.9892 L148.9035,745.6052 L147.6816,743.1907 L146.5727,740.8344 L145.0952,738.2887 L145.3589,738.4282 L144.0387,735.9277 L142.5486,733.3374 L141.3073,730.8786 L140.0777,728.4261 L138.4784,725.778 L138.1977,725.6233 L137.3365,723.3717 L135.5509,720.6108 L134.468,718.237 L132.6615,715.4645 L131.4481,713.0189 L131.4218,713.0036 L130.2392,710.6085 L128.4413,707.8565 L127.0065,705.315 L125.6022,702.7913 L123.978,700.14 " fill="none" style="stroke: #A9A9A9; stroke-width: 2.0;"/><polygon fill="#A9A9A9" points="117.171,689.049,117.2404,689.0582,117.2938,690.9834,117.7542,692.9627,118.0821,694.9243,117.974,696.828,118.4694,698.8119,118.4442,698.8059,118.5946,697.6785,118.8719,696.5816,119.2375,695.5057,119.2988,694.3571,119.7863,693.3105,119.8293,693.4899,120.8377,693.3695,121.9716,693.7731,123.1207,694.2406,124.1808,694.3362,125.2878,694.6274,125.3007,694.6461,123.6584,693.5029,122.0748,692.4451,120.4629,691.346,118.9049,690.3256,117.171,689.049" style="stroke: #A9A9A9; stroke-width: 2.0;"/><path d="M119.7863,693.3105 L119.866,693.3593 L120.4663,694.5778 L121.5334,696.0828 L122.4485,697.4945 L122.8638,698.5994 L123.971,700.129 " fill="#A9A9A9" style="stroke: #A9A9A9; stroke-width: 2.0;"/><polygon fill="#A9A9A9" points="179.366,803.905,179.4359,803.9097,179.3257,802.4567,179.6252,801.0315,179.7913,799.5972,179.5185,798.1332,179.8532,796.7104,179.8417,796.6872,178.499,795.9398,177.2147,795.3092,175.9708,794.7599,174.5874,793.9306,173.3994,793.4935,173.5835,793.5059,173.0924,794.9182,173.1388,796.3669,173.2507,797.82,172.9811,799.2472,172.9122,800.6881,172.9223,800.7085,174.1982,801.3219,175.5203,802.0281,176.82,802.6896,178.1623,803.4363,179.366,803.905" style="stroke: #A9A9A9; stroke-width: 2.0;"/><text fill="#A9A9A9" font-family="courier" font-size="20" lengthAdjust="spacingAndGlyphs" textLength="12" x="102.1372" y="718.2121">+</text><!--link Objeto to Array--><path d="M186.002,861.305 L186.2698,861.3876 L182.6386,870.3315 L180.5772,879.7598 L178.0046,889.0303 L173.7509,897.7821 L171.7253,907.2214 L168.4454,916.2737 L165.6646,925.48 L163.2309,934.7934 L159.6013,943.7378 L158.352,953.4167 L154.0081,962.1406 L151.7236,971.5001 L149.14,980.7672 " fill="none" style="stroke: #A9A9A9; stroke-width: 2.0;"/><polygon fill="none" points="179.352,859.116,179.4084,859.1576,181.7581,855.6246,184.4382,852.3355,187.0108,848.9669,189.2295,845.3372,191.938,842.069,191.9121,842.068,191.9543,846.2987,192.1271,850.5342,192.3905,854.7732,192.3413,859.0004,192.73,863.244,192.7844,863.4203,189.9925,862.2176,187.3594,861.5298,184.7457,860.9048,182.0192,859.9143,179.352,859.116" style="stroke: #A9A9A9; stroke-width: 2.0;"/><!--link Objeto to Funcion--><path d="M210.428,861.048 L210.6926,861.1402 L213.1164,870.0753 L217.0914,879.5512 L220.5612,888.8509 L222.3698,897.5716 L226.3802,907.0597 L229.151,916.1158 L232.4152,925.3439 L236.0222,934.6914 L238.4475,943.6271 L243.2251,953.3827 L244.9445,962.0723 L248.699,971.4712 L252.158,980.7672 " fill="none" style="stroke: #A9A9A9; stroke-width: 2.0;"/><polygon fill="none" points="203.785,863.259,203.8551,863.2591,203.6523,859.0208,203.8602,854.7831,203.9344,850.5452,203.5688,846.3067,203.812,842.069,203.7917,842.0529,206.3394,845.2967,208.9892,848.6218,211.71,852.0035,214.1861,855.1903,217.005,858.65,217.0658,858.8243,214.2918,859.3734,211.6953,860.4314,209.1204,861.5514,206.4196,862.3102,203.785,863.259" style="stroke: #A9A9A9; stroke-width: 2.0;"/><!--
@startuml
skinparam backgroundColor #222222
skinparam handwritten true
hide circle
hide stereotype
skinparam shadowing false
skinparam padding 1
skinparam arrow {
    Thickness 2
    Color #DarkGrey
    FontSize 20
    FontName courier
    FontStyle normal
    FontColor #DarkGrey
}
skinparam class {
    BorderThickness 3
    BorderColor<<a>> #DC143C
    BorderColor<<b>> #228B22
    BorderColor<<c>> #DarkGrey
    BorderColor<<d>> #1E90FF
    BorderColor<<e>> #FFFFFF
    BackgroundColor #222222
    FontSize 20
    FontName courier
    FontStyle bold
    FontColor<<a>> #DC143C
    FontColor<<b>> #228B22
    FontColor<<c>> #DarkGrey
    FontColor<<d>> #1E90FF
    FontColor<<e>> #FFFFFF
}
skinparam package {
    BorderThickness 3
    BorderColor #white
    BackgroundColor #222222
    FontSize 20
    FontName courier
    FontStyle bold
    FontColor #white
}
hide members

class Programa <<e>>

abstract  Sentencia <<a>>
package "Programación\nImperativa" as ProgramacionImperativa {
abstract "Sentencia\nSimple" as SentenciaSimple <<a>>
}
package "Programación\nEstructurada" as ProgramacionEstructurada {
abstract "Sentencia\nCompuesta" as SentenciaCompuesta <<a>>
}

abstract "Expresión" as Expresion <<b>>
class Valor <<b>>
class Referencia as "Acceso" <<b>>
abstract  Operador <<b>>

abstract  Dato <<d>>
class Constante <<d>>
class Variable  <<d>>

abstract  Tipo <<c>>
abstract "Tipo\nPrimitivo" as TipoPrimitivo <<c>>
class Array <<c>>
package "Programación\nOrientada\na Objetos" as ProgramacionOrientadaObjetos {
class Objeto <<c>>
}
package "Programación\nOrientada\na Procesos" as ProgramacionOrientadaProcesos {
class "Función" as Funcion <<c>>
}

Programa *-down-> Sentencia
Programa *-down-> Dato

Sentencia <|-down- SentenciaSimple
Sentencia <|-down- SentenciaCompuesta
SentenciaCompuesta *- -> "+" Sentencia
Sentencia *- -> "*" Expresion
Sentencia - -> Dato

Expresion <|-down- Valor
Expresion <|-down- Referencia
Expresion <|-down- Operador
Operador *- -> "+" Expresion
Expresion -down-> Tipo

Referencia - -> Dato
Dato <|-down- Variable
Dato <|-down- Constante
Dato - -> Valor
Valor -down-> Tipo

Tipo <|-down- TipoPrimitivo
Tipo <|-down- Objeto
Objeto *- -> "+" Tipo
Objeto <|-down- Array
Objeto <|-down- Funcion

@enduml

PlantUML version 1.2019.05(Sat Apr 20 18:45:36 CEST 2019)
(GPL source distribution)
Java Runtime: Java(TM) SE Runtime Environment
JVM: Java HotSpot(TM) 64-Bit Server VM
Java Version: 11.0.8+10-LTS
Operating System: Windows 10
OS Version: 10.0
Default Encoding: windows-1252
Language: es
Country: ES
--></g></svg>