<?xml version="1.0" encoding="UTF-8" standalone="no"?><svg xmlns="http://www.w3.org/2000/svg" xmlns:xlink="http://www.w3.org/1999/xlink" contentScriptType="application/ecmascript" contentStyleType="text/css" height="577px" preserveAspectRatio="none" style="width:1111px;height:577px;background:#222222;" version="1.1" viewBox="0 0 1111 577" width="1111px" zoomAndPan="magnify"><defs/><g><!--class Object--><polygon fill="#222222" points="473.766,8,473.766,8.2102,483.766,7.5857,493.766,8.1933,503.766,8.3997,513.766,7.2866,523.766,7.9223,533.766,7.5735,543.766,7.6165,553.766,8,553.6978,8,553.0746,18.8227,554.3196,29.6453,553.1357,40.468,553.5682,51.2906,553.766,62.1133,553.766,62.5452,543.766,62.0275,533.766,62.1815,523.766,62.0813,513.766,62.2918,503.766,62.3524,493.766,62.699,483.766,62.7843,473.766,62.1133,474.4453,62.1133,474.0206,51.2906,474.2296,40.468,474.4682,29.6453,473.0448,18.8227,473.766,8" style="stroke: #A9A9A9; stroke-width: 3.0;"/><text fill="#A9A9A9" font-family="courier" font-size="20" font-weight="bold" lengthAdjust="spacingAndGlyphs" textLength="72" x="477.766" y="34.1074">Object</text><path d="M474.766,46.1133 L474.766,46.3935 L484.516,45.5609 L494.266,46.371 L504.016,46.6462 L513.766,45.1621 L523.516,46.0097 L533.266,45.5446 L543.016,45.6019 L552.766,46.1133 " fill="#222222" style="stroke: #A9A9A9; stroke-width: 3.0;"/><path d="M474.766,54.1133 L474.766,54.3935 L484.516,53.5609 L494.266,54.371 L504.016,54.6462 L513.766,53.1621 L523.516,54.0097 L533.266,53.5446 L543.016,53.6019 L552.766,54.1133 " fill="#222222" style="stroke: #A9A9A9; stroke-width: 3.0;"/><polygon fill="#222222" points="116.766,152,116.766,152.2102,126.766,151.5857,136.766,152.1933,146.766,152.3997,156.766,151.2866,166.766,151.9223,176.766,151.5735,186.766,151.6165,196.766,151.9318,206.766,151.3086,216.766,152,217.3196,152,216.1357,162.6038,216.5682,173.2076,217.1979,183.8114,216.6802,194.4152,216.8342,205.019,216.7341,215.6228,216.766,226.2266,216.766,226.4051,206.766,226.4657,196.766,226.8123,186.766,226.8976,176.766,226.9058,166.766,226.4812,156.766,226.6901,146.766,226.9288,136.766,225.5054,126.766,226.9051,116.766,226.2266,116.4695,226.2266,117.2998,215.6228,116.271,205.019,116.6975,194.4152,117.5076,183.8114,116.7173,173.2076,116.8713,162.6038,116.766,152" style="stroke: #A9A9A9; stroke-width: 3.0;"/><text fill="#A9A9A9" font-family="courier" font-size="20" font-weight="bold" lengthAdjust="spacingAndGlyphs" textLength="84" x="124.766" y="175.1074">Objeto1</text><text fill="#A9A9A9" font-family="courier" font-size="20" font-weight="bold" lengthAdjust="spacingAndGlyphs" textLength="84" x="124.766" y="201.2207">Clase X</text><path d="M117.766,210.2266 L117.766,210.5068 L127.566,209.6741 L137.366,210.4843 L147.166,210.7595 L156.966,209.2754 L166.766,210.1229 L176.566,209.6579 L186.366,209.7152 L196.166,210.1357 L205.966,209.3047 L215.766,210.2266 " fill="#222222" style="stroke: #A9A9A9; stroke-width: 3.0;"/><polygon fill="#222222" points="293.766,152,293.766,152.2102,303.766,151.5857,313.766,152.1933,323.766,152.3997,333.766,151.2866,343.766,151.9223,353.766,151.5735,363.766,151.6165,373.766,151.9318,383.766,151.3086,393.766,152,394.3196,152,393.1357,162.6038,393.5682,173.2076,394.1979,183.8114,393.6802,194.4152,393.8342,205.019,393.7341,215.6228,393.766,226.2266,393.766,226.4051,383.766,226.4657,373.766,226.8123,363.766,226.8976,353.766,226.9058,343.766,226.4812,333.766,226.6901,323.766,226.9288,313.766,225.5054,303.766,226.9051,293.766,226.2266,293.4695,226.2266,294.2998,215.6228,293.271,205.019,293.6975,194.4152,294.5076,183.8114,293.7173,173.2076,293.8713,162.6038,293.766,152" style="stroke: #A9A9A9; stroke-width: 3.0;"/><text fill="#A9A9A9" font-family="courier" font-size="20" font-weight="bold" lengthAdjust="spacingAndGlyphs" textLength="84" x="301.766" y="175.1074">Objeto2</text><text fill="#A9A9A9" font-family="courier" font-size="20" font-weight="bold" lengthAdjust="spacingAndGlyphs" textLength="84" x="301.766" y="201.2207">Clase X</text><path d="M294.766,210.2266 L294.766,210.5068 L304.566,209.6741 L314.366,210.4843 L324.166,210.7595 L333.966,209.2754 L343.766,210.1229 L353.566,209.6579 L363.366,209.7152 L373.166,210.1357 L382.966,209.3047 L392.766,210.2266 " fill="#222222" style="stroke: #A9A9A9; stroke-width: 3.0;"/><polygon fill="#222222" points="632.766,152,632.766,152.2102,642.766,151.5857,652.766,152.1933,662.766,152.3997,672.766,151.2866,682.766,151.9223,692.766,151.5735,702.766,151.6165,712.766,151.9318,722.766,151.3086,732.766,152,733.3196,152,732.1357,162.6038,732.5682,173.2076,733.1979,183.8114,732.6802,194.4152,732.8342,205.019,732.7341,215.6228,732.766,226.2266,732.766,226.4051,722.766,226.4657,712.766,226.8123,702.766,226.8976,692.766,226.9058,682.766,226.4812,672.766,226.6901,662.766,226.9288,652.766,225.5054,642.766,226.9051,632.766,226.2266,632.4695,226.2266,633.2998,215.6228,632.271,205.019,632.6975,194.4152,633.5076,183.8114,632.7173,173.2076,632.8713,162.6038,632.766,152" style="stroke: #A9A9A9; stroke-width: 3.0;"/><text fill="#A9A9A9" font-family="courier" font-size="20" font-weight="bold" lengthAdjust="spacingAndGlyphs" textLength="84" x="640.766" y="175.1074">Objeto1</text><text fill="#A9A9A9" font-family="courier" font-size="20" font-weight="bold" lengthAdjust="spacingAndGlyphs" textLength="84" x="640.766" y="201.2207">Clase Y</text><path d="M633.766,210.2266 L633.766,210.5068 L643.566,209.6741 L653.366,210.4843 L663.166,210.7595 L672.966,209.2754 L682.766,210.1229 L692.566,209.6579 L702.366,209.7152 L712.166,210.1357 L721.966,209.3047 L731.766,210.2266 " fill="#222222" style="stroke: #A9A9A9; stroke-width: 3.0;"/><polygon fill="#222222" points="784.766,152,784.766,152.2102,794.766,151.5857,804.766,152.1933,814.766,152.3997,824.766,151.2866,834.766,151.9223,844.766,151.5735,854.766,151.6165,864.766,151.9318,874.766,151.3086,884.766,152,885.3196,152,884.1357,162.6038,884.5682,173.2076,885.1979,183.8114,884.6802,194.4152,884.8342,205.019,884.7341,215.6228,884.766,226.2266,884.766,226.4051,874.766,226.4657,864.766,226.8123,854.766,226.8976,844.766,226.9058,834.766,226.4812,824.766,226.6901,814.766,226.9288,804.766,225.5054,794.766,226.9051,784.766,226.2266,784.4695,226.2266,785.2998,215.6228,784.271,205.019,784.6975,194.4152,785.5076,183.8114,784.7173,173.2076,784.8713,162.6038,784.766,152" style="stroke: #A9A9A9; stroke-width: 3.0;"/><text fill="#A9A9A9" font-family="courier" font-size="20" font-weight="bold" lengthAdjust="spacingAndGlyphs" textLength="84" x="792.766" y="175.1074">Objeto2</text><text fill="#A9A9A9" font-family="courier" font-size="20" font-weight="bold" lengthAdjust="spacingAndGlyphs" textLength="72" x="798.766" y="201.2207">ClaseY</text><path d="M785.766,210.2266 L785.766,210.5068 L795.566,209.6741 L805.366,210.4843 L815.166,210.7595 L824.966,209.2754 L834.766,210.1229 L844.566,209.6579 L854.366,209.7152 L864.166,210.1357 L873.966,209.3047 L883.766,210.2266 " fill="#222222" style="stroke: #A9A9A9; stroke-width: 3.0;"/><!--class Function--><polygon fill="#222222" points="461.766,162,461.766,162.2102,472.166,161.5857,482.566,162.1933,492.966,162.3997,503.366,161.2866,513.766,161.9223,524.166,161.5735,534.566,161.6165,544.966,161.9318,555.366,161.3086,565.766,162,566.3196,162,565.1357,172.8227,565.5682,183.6453,566.1979,194.468,565.6802,205.2906,565.766,216.1133,565.766,216.1815,555.366,216.0813,544.966,216.2918,534.566,216.3524,524.166,216.699,513.766,216.7843,503.366,216.7925,492.966,216.3679,482.566,216.5769,472.166,216.8155,461.766,216.1133,461.0448,216.1133,462.4445,205.2906,461.4695,194.468,462.2998,183.6453,461.271,172.8227,461.766,162" style="stroke: #A9A9A9; stroke-width: 3.0;"/><text fill="#A9A9A9" font-family="courier" font-size="20" font-weight="bold" lengthAdjust="spacingAndGlyphs" textLength="96" x="465.766" y="188.1074">Function</text><path d="M462.766,200.1133 L462.766,200.3935 L472.966,199.5609 L483.166,200.371 L493.366,200.6462 L503.566,199.1621 L513.766,200.0097 L523.966,199.5446 L534.166,199.6019 L544.366,200.0224 L554.566,199.1915 L564.766,200.1133 " fill="#222222" style="stroke: #A9A9A9; stroke-width: 3.0;"/><path d="M462.766,208.1133 L462.766,208.3935 L472.966,207.5609 L483.166,208.371 L493.366,208.6462 L503.566,207.1621 L513.766,208.0097 L523.966,207.5446 L534.166,207.6019 L544.366,208.0224 L554.566,207.1915 L564.766,208.1133 " fill="#222222" style="stroke: #A9A9A9; stroke-width: 3.0;"/><!--class FuncionX--><polygon fill="#222222" points="128.766,316,128.766,316.2102,138.686,315.5857,148.606,316.1933,158.526,316.3997,168.446,315.2866,178.366,315.9223,188.286,315.5735,198.206,315.6165,208.126,315.9318,218.046,315.3086,227.966,316.5536,237.886,315.3697,247.806,315.8022,257.726,316.4319,267.646,315.9142,277.566,316.0682,287.486,315.9681,297.406,316.1785,307.326,316.2391,317.246,316.5857,327.166,316.6711,337.086,316.6793,347.006,316.2546,356.926,316.4636,366.846,316.7022,376.766,316,376.0448,316,377.4445,326.0283,376.4695,336.0566,377.2998,346.085,376.271,356.1133,376.6975,366.1416,377.5076,376.1699,376.7173,386.1982,376.766,396.2266,376.766,396.3319,366.846,396.5652,356.926,396.6428,347.006,396.2227,337.086,396.5138,327.166,395.6541,317.246,396.5109,307.326,396.7748,297.406,396.6711,287.486,396.8396,277.566,395.7435,267.646,395.5744,257.726,395.6052,247.806,396.1677,237.886,396.03,227.966,396.908,218.046,396.0519,208.126,395.8835,198.206,396.4548,188.286,395.5597,178.366,395.7074,168.446,396.8755,158.526,396.6622,148.606,396.9611,138.686,395.9048,128.766,396.2266,129.0852,396.2266,129.3564,386.1982,128.2936,376.1699,128.6701,366.1416,128.892,356.1133,129.4178,346.085,128.7618,336.0566,129.2286,326.0283,128.766,316" style="stroke: #A9A9A9; stroke-width: 3.0;"/><text fill="#A9A9A9" font-family="courier" font-size="20" font-weight="bold" lengthAdjust="spacingAndGlyphs" textLength="240" x="132.766" y="342.1074">Funcion Constructora</text><text fill="#A9A9A9" font-family="courier" font-size="20" font-weight="bold" lengthAdjust="spacingAndGlyphs" textLength="84" x="210.766" y="368.2207">Clase X</text><path d="M129.766,380.2266 L129.766,380.5068 L139.606,379.6741 L149.446,380.4843 L159.286,380.7595 L169.126,379.2754 L178.966,380.1229 L188.806,379.6579 L198.646,379.7152 L208.486,380.1357 L218.326,379.3047 L228.166,380.9648 L238.006,379.3862 L247.846,379.9629 L257.686,380.8025 L267.526,380.1122 L277.366,380.3175 L287.206,380.184 L297.046,380.4646 L306.886,380.5454 L316.726,381.0075 L326.566,381.1213 L336.406,381.1322 L346.246,380.5661 L356.086,380.8447 L365.926,381.1629 L375.766,380.2266 " fill="#222222" style="stroke: #A9A9A9; stroke-width: 3.0;"/><path d="M129.766,388.2266 L129.766,388.5068 L139.606,387.6741 L149.446,388.4843 L159.286,388.7595 L169.126,387.2754 L178.966,388.1229 L188.806,387.6579 L198.646,387.7152 L208.486,388.1357 L218.326,387.3047 L228.166,388.9648 L238.006,387.3862 L247.846,387.9629 L257.686,388.8025 L267.526,388.1122 L277.366,388.3175 L287.206,388.184 L297.046,388.4646 L306.886,388.5454 L316.726,389.0075 L326.566,389.1213 L336.406,389.1322 L346.246,388.5661 L356.086,388.8447 L365.926,389.1629 L375.766,388.2266 " fill="#222222" style="stroke: #A9A9A9; stroke-width: 3.0;"/><!--class FuncionY--><polygon fill="#222222" points="645.766,316,645.766,316.2102,655.686,315.5857,665.606,316.1933,675.526,316.3997,685.446,315.2866,695.366,315.9223,705.286,315.5735,715.206,315.6165,725.126,315.9318,735.046,315.3086,744.966,316.5536,754.886,315.3697,764.806,315.8022,774.726,316.4319,784.646,315.9142,794.566,316.0682,804.486,315.9681,814.406,316.1785,824.326,316.2391,834.246,316.5857,844.166,316.6711,854.086,316.6793,864.006,316.2546,873.926,316.4636,883.846,316.7022,893.766,316,893.0448,316,894.4445,326.0283,893.4695,336.0566,894.2998,346.085,893.271,356.1133,893.6975,366.1416,894.5076,376.1699,893.7173,386.1982,893.766,396.2266,893.766,396.3319,883.846,396.5652,873.926,396.6428,864.006,396.2227,854.086,396.5138,844.166,395.6541,834.246,396.5109,824.326,396.7748,814.406,396.6711,804.486,396.8396,794.566,395.7435,784.646,395.5744,774.726,395.6052,764.806,396.1677,754.886,396.03,744.966,396.908,735.046,396.0519,725.126,395.8835,715.206,396.4548,705.286,395.5597,695.366,395.7074,685.446,396.8755,675.526,396.6622,665.606,396.9611,655.686,395.9048,645.766,396.2266,646.0852,396.2266,646.3564,386.1982,645.2936,376.1699,645.6701,366.1416,645.892,356.1133,646.4178,346.085,645.7618,336.0566,646.2286,326.0283,645.766,316" style="stroke: #A9A9A9; stroke-width: 3.0;"/><text fill="#A9A9A9" font-family="courier" font-size="20" font-weight="bold" lengthAdjust="spacingAndGlyphs" textLength="240" x="649.766" y="342.1074">Funcion Constructora</text><text fill="#A9A9A9" font-family="courier" font-size="20" font-weight="bold" lengthAdjust="spacingAndGlyphs" textLength="84" x="727.766" y="368.2207">Clase Y</text><path d="M646.766,380.2266 L646.766,380.5068 L656.606,379.6741 L666.446,380.4843 L676.286,380.7595 L686.126,379.2754 L695.966,380.1229 L705.806,379.6579 L715.646,379.7152 L725.486,380.1357 L735.326,379.3047 L745.166,380.9648 L755.006,379.3862 L764.846,379.9629 L774.686,380.8025 L784.526,380.1122 L794.366,380.3175 L804.206,380.184 L814.046,380.4646 L823.886,380.5454 L833.726,381.0075 L843.566,381.1213 L853.406,381.1322 L863.246,380.5661 L873.086,380.8447 L882.926,381.1629 L892.766,380.2266 " fill="#222222" style="stroke: #A9A9A9; stroke-width: 3.0;"/><path d="M646.766,388.2266 L646.766,388.5068 L656.606,387.6741 L666.446,388.4843 L676.286,388.7595 L686.126,387.2754 L695.966,388.1229 L705.806,387.6579 L715.646,387.7152 L725.486,388.1357 L735.326,387.3047 L745.166,388.9648 L755.006,387.3862 L764.846,387.9629 L774.686,388.8025 L784.526,388.1122 L794.366,388.3175 L804.206,388.184 L814.046,388.4646 L823.886,388.5454 L833.726,389.0075 L843.566,389.1213 L853.406,389.1322 L863.246,388.5661 L873.086,388.8447 L882.926,389.1629 L892.766,388.2266 " fill="#222222" style="stroke: #A9A9A9; stroke-width: 3.0;"/><!--class PrototipoClaseX--><polygon fill="#222222" points="15.7659,486,15.7659,486.2102,25.4325,485.5857,35.0992,486.1933,44.7659,486.3997,54.4325,485.2866,64.0992,485.9223,73.7659,485.5735,83.4325,485.6165,93.0992,485.9318,102.7659,485.3086,112.4325,486.5536,122.0992,485.3697,131.7659,486,131.5681,486,132.1978,496.0283,131.6801,506.0566,131.8341,516.085,131.7339,526.1133,131.9444,536.1416,132.005,546.1699,132.3516,556.1982,131.7659,566.2266,131.7659,566.8976,122.0992,566.9058,112.4325,566.4812,102.7659,566.6901,93.0992,566.9288,83.4325,565.5054,73.7659,566.9051,64.0992,565.9301,54.4325,566.7604,44.7659,565.7315,35.0992,566.1581,25.4325,566.9682,15.7659,566.2266,15.7171,566.2266,15.8712,556.1982,16.1045,546.1699,16.1821,536.1416,15.762,526.1133,16.0531,516.085,15.1935,506.0566,16.0503,496.0283,15.7659,486" style="stroke: #A9A9A9; stroke-width: 3.0;"/><text fill="#A9A9A9" font-family="courier" font-size="20" font-weight="bold" lengthAdjust="spacingAndGlyphs" textLength="108" x="19.7659" y="512.1074">Prototipo</text><text fill="#A9A9A9" font-family="courier" font-size="20" font-weight="bold" lengthAdjust="spacingAndGlyphs" textLength="84" x="31.7659" y="538.2207">Clase X</text><path d="M16.7659,550.2266 L16.7659,550.5068 L27.1295,549.6741 L37.4932,550.4843 L47.8568,550.7595 L58.2204,549.2754 L68.5841,550.1229 L78.9477,549.6579 L89.3113,549.7152 L99.675,550.1357 L110.0386,549.3047 L120.4022,550.9648 L130.7659,550.2266 " fill="#222222" style="stroke: #A9A9A9; stroke-width: 3.0;"/><path d="M16.7659,558.2266 L16.7659,558.5068 L27.1295,557.6741 L37.4932,558.4843 L47.8568,558.7595 L58.2204,557.2754 L68.5841,558.1229 L78.9477,557.6579 L89.3113,557.7152 L99.675,558.1357 L110.0386,557.3047 L120.4022,558.9648 L130.7659,558.2266 " fill="#222222" style="stroke: #A9A9A9; stroke-width: 3.0;"/><!--class PrototipoClaseY--><polygon fill="#222222" points="810.766,486,810.766,486.2102,820.4327,485.5857,830.0993,486.1933,839.766,486.3997,849.4327,485.2866,859.0993,485.9223,868.766,485.5735,878.4327,485.6165,888.0993,485.9318,897.766,485.3086,907.4327,486.5536,917.0993,485.3697,926.766,486,926.5682,486,927.1979,496.0283,926.6802,506.0566,926.8342,516.085,926.7341,526.1133,926.9445,536.1416,927.0051,546.1699,927.3517,556.1982,926.766,566.2266,926.766,566.8976,917.0993,566.9058,907.4327,566.4812,897.766,566.6901,888.0993,566.9288,878.4327,565.5054,868.766,566.9051,859.0993,565.9301,849.4327,566.7604,839.766,565.7315,830.0993,566.1581,820.4327,566.9682,810.766,566.2266,810.7173,566.2266,810.8713,556.1982,811.1046,546.1699,811.1822,536.1416,810.7621,526.1133,811.0532,516.085,810.1936,506.0566,811.0504,496.0283,810.766,486" style="stroke: #A9A9A9; stroke-width: 3.0;"/><text fill="#A9A9A9" font-family="courier" font-size="20" font-weight="bold" lengthAdjust="spacingAndGlyphs" textLength="108" x="814.766" y="512.1074">Prototipo</text><text fill="#A9A9A9" font-family="courier" font-size="20" font-weight="bold" lengthAdjust="spacingAndGlyphs" textLength="84" x="826.766" y="538.2207">Clase Y</text><path d="M811.766,550.2266 L811.766,550.5068 L822.1296,549.6741 L832.4933,550.4843 L842.8569,550.7595 L853.2205,549.2754 L863.5842,550.1229 L873.9478,549.6579 L884.3115,549.7152 L894.6751,550.1357 L905.0387,549.3047 L915.4024,550.9648 L925.766,550.2266 " fill="#222222" style="stroke: #A9A9A9; stroke-width: 3.0;"/><path d="M811.766,558.2266 L811.766,558.5068 L822.1296,557.6741 L832.4933,558.4843 L842.8569,558.7595 L853.2205,557.2754 L863.5842,558.1229 L873.9478,557.6579 L884.3115,557.7152 L894.6751,558.1357 L905.0387,557.3047 L915.4024,558.9648 L925.766,558.2266 " fill="#222222" style="stroke: #A9A9A9; stroke-width: 3.0;"/><!--link Object to Objeto1X--><path d="M468.244,40.728 L468.2551,40.8208 L462.4881,41.2323 L456.7861,42.1876 L451.063,42.9659 L445.2701,43.1618 L439.5738,44.1638 L439.5692,44.1296 L433.0504,44.8419 L426.5546,45.7269 L420.0748,46.7318 L413.5399,47.3233 L407.0822,48.4939 L407.1176,48.7374 L403.6164,48.7153 L400.2187,49.4042 L396.8336,50.1799 L393.3751,50.4508 L389.9551,50.9872 L389.9598,51.0172 L386.4689,51.5149 L382.9992,52.149 L379.5193,52.7174 L376.0589,53.4113 L372.5349,53.6958 L372.584,53.9899 L369.0861,54.5777 L365.5565,54.9757 L362.0732,55.6515 L358.5921,56.3403 L355.0422,56.6167 L354.9853,56.3012 L351.6269,57.5395 L348.081,57.7392 L344.6777,58.7284 L341.1276,58.9045 L337.6978,59.7471 L337.6919,59.7173 L334.3662,60.738 L330.9034,61.0608 L327.5215,61.7954 L324.1464,62.5646 L320.7223,63.0844 L320.7614,63.2652 L317.4448,63.7909 L314.1949,64.6256 L310.8371,64.9604 L307.6404,66.0409 L304.3365,66.6256 L304.3934,66.8625 L301.2676,67.5662 L298.17,68.3875 L294.9411,68.6623 L291.8085,69.3377 L288.7611,70.368 L288.6889,70.1015 L285.8455,71.1309 L282.9206,71.86 L280.1138,73.0248 L277.1055,73.4457 L274.2169,74.3088 L274.1716,74.1632 L271.5886,75.233 L268.8119,75.6804 L266.173,76.5704 L263.6688,77.8933 L260.9246,78.4452 L260.9912,78.627 L258.6729,79.6176 L256.1475,80.0426 L253.8815,81.176 L251.559,82.155 L249.1048,82.7744 L249.0193,82.5827 L247.0622,83.6393 L245.0771,84.6332 L243.147,85.7505 L241.0029,86.3881 L238.9784,87.2936 L239.0806,87.472 L237.2135,88.0213 L235.5438,88.915 L234.1623,90.3116 L232.25,90.7823 L230.766,92 L230.9098,92.1746 L227.7824,94.5748 L224.6065,96.9159 L221.5403,99.3903 L218.7279,102.173 L215.5564,104.5195 L215.4564,104.4317 L213.1238,107.69 L210.1111,110.3514 L207.8717,113.6914 L205.197,116.6493 L202.4049,119.5043 L202.4946,119.5659 L200.2037,122.7446 L198.2342,126.1441 L195.9743,129.3441 L193.5931,132.4608 L191.3127,135.6466 L191.4165,135.7052 L189.4559,138.8166 L187.9773,142.2002 L185.9536,145.2759 L184.1541,148.4782 L182.281,151.639 " fill="none" style="stroke: #A9A9A9; stroke-width: 2.0; stroke-dasharray: 7.0,7.0;"/><polygon fill="#A9A9A9" points="473.574,40.126,473.5951,40.1928,471.6541,39.4009,469.8369,39.0007,467.9793,38.4729,465.9893,37.5258,464.1826,37.1592,464.1665,37.1389,464.9786,37.7534,465.8721,38.4699,466.8222,39.2575,467.5772,39.8004,468.6055,40.686,468.7497,40.8011,467.7358,41.4396,467.1432,42.414,466.6019,43.4295,465.7616,44.2064,465.0786,45.1088,465.0901,45.1284,466.7723,44.1031,468.5069,43.167,470.2162,42.1879,471.9737,41.291,473.574,40.126" style="stroke: #A9A9A9; stroke-width: 2.0;"/><text fill="#A9A9A9" font-family="courier" font-size="20" lengthAdjust="spacingAndGlyphs" textLength="120" x="232.766" y="114.1074">«instance»</text><!--link Object to Objeto2X--><path d="M468.722,45.639 L468.7494,45.7283 L466.4928,46.1305 L464.3968,47.0562 L462.2486,47.8114 L459.9282,48.006 L457.8461,48.9767 L457.8347,48.9441 L455.5196,49.5887 L453.262,50.3978 L451.0443,51.3211 L448.689,51.8506 L446.5265,52.9317 L446.6178,53.1602 L444.1144,53.5946 L441.8777,54.696 L439.6735,55.8788 L437.2799,56.5881 L434.986,57.5465 L434.9987,57.574 L432.6723,58.597 L430.4038,59.7453 L428.1073,60.8331 L425.864,62.0364 L423.4474,62.8634 L423.5882,63.1263 L421.3271,64.3418 L418.9752,65.3877 L416.7562,66.6818 L414.5435,67.9876 L412.1333,68.9248 L411.9624,68.6536 L410.1208,70.5496 L407.7164,71.5526 L405.7398,73.2345 L403.3226,74.2173 L401.2666,75.7731 L401.2483,75.7488 L399.4255,77.5719 L397.1749,78.8268 L395.1767,80.4171 L393.1998,82.0354 L391.0699,83.4507 L391.1951,83.5869 L389.2079,85.1593 L387.4347,86.9644 L385.3154,88.393 L383.7123,90.3832 L381.766,92 L381.9562,92.1523 L379.7684,94.8114 L377.6751,97.5461 L375.1429,99.9296 L372.9324,102.5706 L371.0069,105.4396 L370.7665,105.3036 L369.2679,108.4603 L367.4985,111.4637 L366.1219,114.6894 L364.0745,117.5356 L362.4259,120.6074 L362.2853,120.5484 L361.1928,123.8118 L359.4992,126.8232 L358.233,130.0138 L357.3851,133.3797 L355.7924,136.4334 L355.9769,136.4923 L355.1201,139.6155 L353.6896,142.5558 L352.9777,145.7253 L352.1093,148.8448 L350.876,151.848 " fill="none" style="stroke: #A9A9A9; stroke-width: 2.0; stroke-dasharray: 7.0,7.0;"/><polygon fill="#A9A9A9" points="473.544,44.292,473.5542,44.3613,471.5751,43.8693,469.6556,43.7837,467.7167,43.5657,465.7139,42.9125,463.7995,42.8618,463.7868,42.8392,464.7156,43.2931,465.7084,43.8607,466.7458,44.5075,467.6296,44.8817,468.7285,45.6377,468.8893,45.7282,467.9902,46.5204,467.5607,47.5769,467.1884,48.6657,466.4829,49.5668,465.9526,50.5666,465.9671,50.5841,467.4641,49.3035,469.0271,48.1026,470.5582,46.8633,472.1501,45.6974,473.544,44.292" style="stroke: #A9A9A9; stroke-width: 2.0;"/><text fill="#A9A9A9" font-family="courier" font-size="20" lengthAdjust="spacingAndGlyphs" textLength="120" x="383.766" y="114.1074">«instance»</text><!--link Object to Function--><path d="M513.766,82.428 L514.0462,82.428 L513.2136,92.3691 L514.0237,102.3103 L514.2989,112.2514 L512.8148,122.1925 L513.6624,132.1336 L513.1973,142.0748 L513.2547,152.0159 L513.766,161.957 " fill="none" style="stroke: #A9A9A9; stroke-width: 2.0;"/><polygon fill="none" points="506.766,82.13,506.8321,82.1531,508.0356,78.0844,509.6268,74.1513,511.0917,70.174,512.1416,66.0514,513.766,62.13,513.7415,62.1214,515.0318,66.083,516.4453,70.0878,517.9446,74.1225,519.1485,78.0539,520.766,82.13,520.766,82.3145,517.966,81.9199,515.166,82.0641,512.366,82.274,509.566,82.1014,506.766,82.13" style="stroke: #A9A9A9; stroke-width: 2.0;"/><!--link Object to Objeto1Y--><path d="M546.784,65.696 L546.9714,65.9044 L553.7942,71.9226 L561.7156,79.1622 L569.2792,86.0041 L575.6664,91.538 L583.6128,98.8055 L590.6814,105.097 L598.0994,111.777 L605.7602,118.7269 L612.5841,124.7464 L621.0738,132.6179 L627.3978,138.0816 L635.163,145.1476 L642.719,151.981 " fill="none" style="stroke: #A9A9A9; stroke-width: 2.0; stroke-dasharray: 7.0,7.0;"/><polygon fill="#A9A9A9" points="542.818,62.13,542.882,62.1586,543.4953,63.8722,544.4836,65.7532,545.3499,67.5798,545.8145,69.2269,546.835,71.1224,546.8092,71.121,546.6332,69.9851,546.5876,68.8561,546.6327,67.7319,546.3654,66.5911,546.5357,65.4735,546.5454,65.6578,547.6543,65.2038,548.7918,65.2879,549.9327,65.4376,551.0533,65.2054,552.1846,65.1741,552.1916,65.1958,550.308,64.5552,548.4564,64.0131,546.5893,63.4235,544.7517,62.9245,542.818,62.13" style="stroke: #A9A9A9; stroke-width: 2.0;"/><text fill="#A9A9A9" font-family="courier" font-size="20" lengthAdjust="spacingAndGlyphs" textLength="120" x="609.766" y="114.1074">«instance»</text><!--link Object to Objeto2Y--><path d="M559.265,39.958 L559.2774,40.0506 L563.0593,40.2871 L566.9139,41.0663 L570.7448,41.6688 L574.4979,41.6901 L578.3587,42.5159 L578.3535,42.4818 L580.4023,42.6488 L582.4777,42.9878 L584.5716,43.4465 L586.6019,43.493 L588.7213,44.1169 L588.7625,44.3595 L590.8375,44.208 L593.0327,44.7647 L595.2426,45.4079 L597.3671,45.5483 L599.5366,45.9532 L599.5421,45.983 L601.7739,46.3567 L604.031,46.8661 L606.2759,47.31 L608.544,47.8789 L610.7363,48.0404 L610.796,48.3326 L613.0999,48.8069 L615.3652,49.0927 L617.687,49.6545 L620.0114,50.2291 L622.252,50.3941 L622.182,50.0813 L624.6707,51.2154 L626.9287,51.3197 L629.362,52.2069 L631.6148,52.2879 L634.0156,53.0297 L634.0083,53.0001 L636.4828,53.9364 L638.7876,54.1819 L641.1926,54.835 L643.6059,55.5223 L645.9586,55.9627 L646.0067,56.1414 L648.369,56.6103 L650.8135,57.3844 L653.125,57.6647 L655.6348,58.6817 L658.0128,59.2088 L658.0818,59.4425 L660.4882,60.1132 L662.9288,60.9 L665.2102,61.1477 L667.6083,61.7906 L670.1098,62.7835 L670.0245,62.5208 L672.516,63.5423 L674.9115,64.2679 L677.4462,65.4227 L679.7431,65.8446 L682.1814,66.7022 L682.1301,66.5586 L684.611,67.6534 L686.8728,68.1344 L689.2904,69.0518 L691.8606,70.3964 L694.1591,70.9804 L694.2301,71.1606 L696.6419,72.2149 L698.833,72.7087 L701.3005,73.9045 L703.7078,74.9473 L705.9748,75.6338 L705.891,75.4413 L708.2748,76.6036 L710.6312,77.7028 L713.0415,78.9258 L715.2422,79.6674 L717.56,80.6779 L717.6494,80.863 L719.7103,81.5463 L721.9437,82.5869 L724.4292,84.1496 L726.4507,84.7511 L728.8465,86.1281 L728.9537,86.3273 L731.0739,87.3834 L733.1579,88.372 L735.3237,89.5128 L737.6787,91.0052 L739.766,92 L739.6961,91.8868 L741.8526,93.4268 L743.5337,94.1969 L745.7552,95.8425 L747.6725,96.9951 L749.5078,98.0149 L749.5709,98.1037 L751.4136,99.3788 L753.4823,100.9716 L755.3469,102.2775 L757.1261,103.4633 L758.9762,104.7488 L759.0506,104.8419 L760.7691,106.1631 L762.8328,107.9169 L764.5061,109.1815 L766.34,110.6472 L768.1212,112.0469 L767.9427,111.8438 L769.7565,113.4533 L771.7854,115.3074 L773.5101,116.8153 L775.1256,118.1991 L776.8925,119.755 L776.7937,119.6514 L778.4949,121.2773 L780.021,122.7197 L782.0283,124.6664 L783.7975,126.3636 L785.2401,127.7184 L785.4075,127.8819 L787.0358,129.5471 L788.3461,130.9017 L789.992,132.5841 L791.4158,134.0495 L793.1138,135.7828 L793.2068,135.8681 L794.6645,137.459 L796.2346,139.153 L797.4484,140.5202 L798.9495,142.1509 L800.4635,143.7934 L800.6123,143.9227 L802.009,145.5193 L803.0017,146.7651 L804.4637,148.4185 L805.934,150.079 L807.239,151.596 " fill="none" style="stroke: #A9A9A9; stroke-width: 2.0; stroke-dasharray: 7.0,7.0;"/><polygon fill="#A9A9A9" points="554.17,39.36,554.2057,39.4203,555.794,40.2456,557.5918,41.4242,559.3213,42.4878,560.8266,43.173,562.6423,44.3819,562.622,44.3659,561.8295,43.406,561.1395,42.5271,560.5207,41.7044,559.6564,40.6878,559.1359,39.9429,559.2503,40.0877,559.8935,39.0767,560.8707,38.4886,561.8886,37.952,562.6694,37.1153,563.5749,36.4365,563.5817,36.4582,561.6908,37.011,559.8306,37.6627,557.9556,38.2667,556.1089,38.9617,554.17,39.36" style="stroke: #A9A9A9; stroke-width: 2.0;"/><text fill="#A9A9A9" font-family="courier" font-size="20" lengthAdjust="spacingAndGlyphs" textLength="120" x="779.766" y="114.1074">«instance»</text><!--link Object to PrototipoClaseX--><path d="M468.308,38.4 L468.3156,38.4931 L463.0587,38.6441 L457.8463,39.3408 L452.6195,39.8599 L447.3448,39.7944 L442.1363,40.538 L442.133,40.5037 L439.1766,40.633 L436.237,40.9357 L433.3089,41.3589 L430.3409,41.3668 L427.4289,41.9563 L427.4552,42.201 L424.272,42.0138 L421.1655,42.5409 L418.0684,43.1551 L414.9169,43.2623 L411.794,43.6361 L411.7975,43.6662 L408.5028,44.0146 L405.2245,44.5 L401.9382,44.9193 L398.667,45.4647 L395.3468,45.5988 L395.3859,45.8945 L391.9575,46.3515 L388.5039,46.6178 L385.0872,47.1633 L381.6723,47.7219 L378.2025,47.8659 L378.1561,47.5488 L374.7009,48.6829 L371.093,48.7727 L367.6012,49.6564 L363.9898,49.7226 L360.4764,50.4589 L360.4715,50.4288 L356.8904,51.3723 L353.1958,51.6136 L349.5682,52.2692 L345.9462,52.9596 L342.2836,53.3991 L342.3161,53.5812 L338.5745,54.0592 L334.8884,54.8484 L331.1124,55.1341 L327.4704,56.1708 L323.7394,56.7082 L323.7865,56.9472 L320.0215,57.6419 L316.2799,58.4552 L312.4296,58.7171 L308.659,59.3832 L304.9589,60.4075 L304.9002,60.1376 L301.173,61.2041 L297.3797,61.9665 L293.6823,63.17 L289.8212,63.6204 L286.0574,64.5184 L286.0217,64.3702 L282.2996,65.5259 L278.4252,66.0479 L274.659,67.0206 L270.9989,68.4342 L267.15,69.0626 L267.1997,69.2497 L263.4743,70.3778 L259.594,70.9239 L255.9076,72.1989 L252.179,73.3152 L248.352,74.0613 L248.2926,73.86 L244.6252,75.1154 L240.9384,76.305 L237.2898,77.6241 L233.4926,78.4394 L229.7785,79.5362 L229.8425,79.7316 L226.0551,80.4968 L222.3913,81.6391 L218.9079,83.3323 L215.0923,84.0113 L211.5448,85.5086 L211.6223,85.7211 L208.0205,86.8931 L204.3924,87.9933 L200.8236,89.2557 L197.3917,90.8932 L193.766,92 L193.7166,91.8765 L190.6772,93.5189 L187.3017,94.3213 L184.3084,96.0789 L181.0999,97.2986 L177.8334,98.3735 L177.8775,98.473 L175.175,99.573 L172.6303,101.0294 L169.943,102.1637 L167.1961,103.1635 L164.4988,104.275 L164.5528,104.3812 L162.1813,105.3887 L160.0607,106.8894 L157.6563,107.8322 L155.3687,109.0045 L153.0427,110.1014 L152.904,109.8693 L150.891,111.1765 L149.0449,112.7633 L146.9625,113.9544 L144.7954,115.0037 L142.7459,116.2498 L142.664,116.1323 L140.7189,117.5433 L138.6288,118.7464 L136.9372,120.5213 L135.0483,122.0131 L132.8891,123.1169 L133.0338,123.3007 L131.053,124.9561 L128.797,126.2622 L126.8314,127.937 L124.6736,129.3678 L122.753,131.0997 L122.8349,131.1957 L120.5972,133.0822 L118.4585,135.0846 L116.006,136.7192 L113.8065,138.6505 L111.6184,140.5951 L111.7492,140.7425 L109.2152,143.0647 L106.3262,144.9867 L103.8497,147.3736 L101.3804,149.7686 L98.7659,152 L98.587,151.7958 L95.7866,154.8193 L92.6758,157.4885 L89.4879,160.0697 L86.4763,162.852 L83.3518,165.5056 L83.5631,165.751 L80.5824,167.7078 L78.0859,170.2268 L75.3987,172.5245 L72.6708,174.7748 L69.9586,177.0434 L70.0005,177.09 L67.6598,179.1773 L65.1081,181.0298 L62.8419,183.1999 L60.4913,185.2762 L58.2958,187.5251 L58.316,187.5451 L56.2791,189.6201 L54.2577,191.7106 L52.07,193.6365 L50.096,195.7738 L48.0728,197.8624 L48.0314,197.8286 L46.4565,200.2455 L44.59,202.4241 L42.4613,204.3885 L40.7886,206.7254 L38.9989,208.9668 L38.783,208.8281 L37.4636,211.5928 L35.9402,214.2264 L34.2732,216.7677 L32.2637,219.0888 L30.7835,221.7501 L30.9681,221.842 L28.9584,224.6779 L27.8042,227.9393 L26.0759,230.9152 L24.704,234.0684 L23.136,237.124 L23.2347,237.1648 L22.5896,238.9929 L21.3598,240.5789 L21.1103,242.5708 L20.2479,244.3089 L19.4345,246.0672 L19.5826,246.122 L19.0125,248.1689 L17.9693,250.0412 L17.3064,252.0539 L16.5886,254.0463 L15.7659,256 L15.8499,256.0249 L14.8736,259.0151 L14.2849,262.12 L12.8302,264.9687 L12.4391,268.1321 L11.3062,271.076 L11.0341,271.0224 L10.4637,274.111 L10.1098,277.2423 L9.4978,280.3228 L8.6636,283.3594 L8.2716,286.4832 L8.4544,286.5033 L7.9752,289.6179 L7.9036,292.7774 L7.5328,295.9039 L6.6956,298.9791 L6.5491,302.1304 L6.3723,302.1245 L6.387,305.2876 L6.4977,308.4539 L6.4141,311.6138 L6.2642,314.7715 L6.0257,317.9262 L5.8738,317.9208 L6.4209,321.1069 L6.5324,324.2775 L6.3424,327.4374 L6.3698,330.605 L6.5886,333.7795 L6.411,333.7622 L6.8009,336.9341 L7.2638,340.1132 L7.48,343.2682 L7.6327,346.4171 L8.1247,349.5989 L8.3389,349.6316 L8.4024,352.707 L9.3041,355.9104 L9.7504,359.0443 L10.2053,362.1794 L10.5213,365.2934 L10.8229,365.3546 L11.043,368.3672 L11.6479,371.458 L12.6336,374.6261 L12.7765,377.623 L13.6652,380.7715 L13.5643,380.7463 L14.4707,383.818 L15.2063,386.8471 L15.7777,389.8353 L16.6695,392.9033 L17.4437,395.942 L17.7615,396.0345 L18.5805,398.977 L18.9093,401.7767 L20.0573,404.8149 L20.6645,407.6956 L21.7438,410.7138 L21.7327,410.7102 L22.8092,413.6109 L23.8045,416.4849 L24.2884,419.1903 L25.6798,422.1949 L26.4525,424.9955 L26.456,424.9968 L27.2216,427.6509 L28.2576,430.4039 L29.5915,433.2656 L30.5604,435.994 L31.457,438.696 L31.4502,438.6933 L32.2169,441.1911 L33.8036,444.0153 L34.4405,446.4614 L35.3887,449.0315 L36.6442,451.7239 L36.6167,451.7121 L37.9365,454.2799 L38.9984,456.7373 L39.8128,459.0885 L40.7881,461.5087 L41.9013,463.988 L41.9699,464.0193 L43.0194,466.3042 L43.7817,468.4578 L45.1971,470.9099 L46.2984,473.2184 L47.1154,475.397 L47.029,475.3553 L47.9552,477.4066 L49.4085,479.7126 L50.1586,481.6788 L51.1617,483.7672 L52.1734,485.8598 " fill="none" style="stroke: #A9A9A9; stroke-width: 2.0; stroke-dasharray: 7.0,7.0;"/><polygon fill="#A9A9A9" points="473.525,38.034,473.5489,38.0999,471.6263,37.2321,469.8438,36.7504,468.0157,36.1431,466.0376,35.1222,464.2671,34.6737,464.2501,34.6541,465.0279,35.3084,465.8913,36.0613,466.8143,36.8827,467.5321,37.4679,468.5373,38.3839,468.6766,38.505,467.6366,39.1002,467.0034,40.0488,466.4198,41.0405,465.5475,41.7813,464.827,42.6541,464.8377,42.6742,466.5616,41.7207,468.3341,40.8586,470.0832,39.9524,471.877,39.1304,473.525,38.034" style="stroke: #A9A9A9; stroke-width: 2.0;"/><text fill="#A9A9A9" font-family="courier" font-size="20" lengthAdjust="spacingAndGlyphs" textLength="120" x="17.7659" y="278.1074">«instance»</text><!--link Object to PrototipoClaseY--><path d="M559.105,35.487 L559.1054,35.5804 L562.884,35.318 L566.6649,35.6031 L570.445,35.7099 L574.2228,35.2303 L578.0038,35.5625 L578.0033,35.5279 L582.2463,35.4266 L586.4915,35.4994 L590.7383,35.6933 L594.9797,35.47 L599.2285,35.8309 L599.2341,36.0769 L603.85,35.6546 L608.482,35.9506 L613.116,36.3341 L617.7385,36.2079 L622.3671,36.3497 L622.3681,36.3801 L627.2946,36.5009 L632.2258,36.7597 L637.1547,36.9519 L642.0879,37.2712 L647.0072,37.1764 L647.021,37.4743 L652.1671,37.7163 L657.3042,37.7661 L662.4544,38.0973 L667.6052,38.4416 L672.7367,38.3682 L672.7171,38.0482 L678.0364,38.9921 L683.2913,38.8824 L688.5951,39.5736 L693.8485,39.4401 L699.1433,39.9826 L699.1409,39.9522 L704.5034,40.7301 L709.8102,40.7988 L715.1499,41.2859 L720.4923,41.8082 L725.8148,42.077 L725.8321,42.2612 L728.4759,42.3243 L731.1493,42.7022 L733.7749,42.5708 L736.4717,43.199 L739.1212,43.3222 L739.1466,43.5645 L741.7854,43.796 L744.4368,44.1478 L747.0295,43.9407 L749.6653,44.1433 L752.3391,44.7089 L752.3069,44.4346 L754.9517,44.99 L757.5602,45.2363 L760.2213,45.9309 L762.7925,45.8601 L765.4172,46.2443 L765.3974,46.0931 L768.0078,46.6831 L770.5333,46.6269 L773.1192,47.0303 L775.7641,47.8833 L778.3039,47.9356 L778.332,48.1271 L780.88,48.6294 L783.3407,48.5358 L785.9108,49.1885 L788.457,49.6787 L790.9477,49.7899 L790.9137,49.5827 L793.4107,50.1528 L795.8965,50.655 L798.4041,51.2905 L800.8268,51.4077 L803.297,51.8145 L803.3341,52.0167 L805.6533,52.0128 L808.044,52.3992 L810.5394,53.3558 L812.8422,53.2627 L815.3003,54.0165 L815.3459,54.2381 L817.64,54.5838 L819.9187,54.8545 L822.2322,55.2944 L824.6261,56.1255 L826.9062,56.4031 L826.8762,56.2734 L829.1968,57.175 L831.3136,57.1951 L833.6621,58.2174 L835.8801,58.6755 L838.063,58.9814 L838.0904,59.0868 L840.1995,59.5572 L842.4069,60.4048 L844.5255,60.9117 L846.607,61.276 L848.7192,61.7587 L848.753,61.873 L850.7237,62.2999 L852.8511,63.2575 L854.8012,63.6148 L856.8243,64.219 L858.8234,64.7421 L858.7372,64.4858 L860.6661,65.2108 L862.6988,66.2444 L864.5846,66.8412 L866.4178,67.2814 L868.324,67.9388 L868.269,67.8066 L871.6834,69.2614 L875.0005,70.482 L878.5852,72.3462 L882.0375,73.8919 L885.3081,75.0008 L885.4245,75.2037 L888.2521,76.869 L890.8585,78.1486 L893.6983,79.8352 L896.3836,81.2524 L899.2595,83.002 L899.3417,83.0979 L901.4322,84.8849 L903.6218,86.7877 L905.497,88.3233 L907.6259,90.155 L909.766,92 L909.9142,92.1299 L911.9111,94.397 L913.5057,96.3115 L915.5676,98.6357 L917.6378,100.967 L919.5434,103.1541 L919.3326,102.983 L921.4515,105.454 L923.2048,107.6283 L924.8672,109.7288 L926.7372,111.9978 L928.4743,114.1589 L928.7339,114.3526 L929.9847,116.2502 L931.8302,118.5914 L933.4416,120.758 L935.0029,122.8873 L936.5834,125.0309 L936.6352,125.0661 L938.0875,127.2103 L939.2788,129.1771 L940.8232,131.384 L942.2633,133.5199 L943.8953,135.7863 L943.9195,135.8012 L945.2365,137.9379 L946.5722,140.086 L947.7085,142.1118 L949.101,144.2948 L950.4344,146.4416 L950.3876,146.4159 L951.8175,148.679 L952.9171,150.7612 L953.7198,152.6807 L955.0389,154.8831 L956.2255,157.013 L955.9944,156.9015 L957.3544,159.1694 L958.4961,161.332 L959.484,163.4205 L960.1052,165.332 L961.2931,167.5169 L961.4833,167.5964 L961.8622,169.4801 L963.1226,171.7323 L963.7915,173.7372 L964.8277,175.8956 L965.6617,177.9696 L965.7624,178.0053 L966.5983,180.1233 L966.8379,182.0299 L968.0775,184.291 L968.6918,186.3304 L969.356,188.3876 L969.5076,188.4319 L970.2839,190.5609 L970.5762,192.5481 L971.2576,194.6492 L971.8828,196.7338 L972.4006,198.7871 L972.486,198.807 L972.8842,200.8665 L973.6761,203.0176 L973.5884,204.9641 L974.5809,207.162 L974.8201,209.1845 L974.5469,209.1368 L974.9473,211.2255 L975.5652,213.3522 L975.9238,215.4337 L976.0594,217.4762 L976.639,219.5962 L976.8216,219.6179 L976.9356,221.6904 L977.4569,223.8113 L977.6792,225.8966 L977.4355,227.9265 L977.8819,230.0385 L977.7054,230.0268 L977.9629,232.1325 L978.3162,234.2445 L978.4756,236.3438 L978.5687,238.4386 L978.5735,240.5277 L978.4215,240.5253 L978.8892,242.6426 L978.921,244.7531 L978.6513,246.8589 L978.599,248.968 L978.7382,251.0802 L978.5599,251.0745 L978.5754,253.2036 L978.6643,255.335 L978.5054,257.4585 L978.2826,259.5801 L978.4008,261.7124 L978.6167,261.7288 L978.0344,263.8426 L978.2974,266.0206 L978.101,268.1637 L977.9135,270.3074 L977.5857,272.4405 L977.8914,272.4763 L977.2235,274.5959 L976.9457,276.7612 L977.0539,278.9716 L976.3077,281.0821 L976.3176,283.2811 L976.2148,283.2652 L976.029,285.4827 L975.6691,287.6734 L975.1422,289.8382 L974.9415,292.0535 L974.6211,294.2503 L974.9462,294.3117 L974.4842,296.5266 L973.5205,298.6468 L973.3951,300.9253 L972.7163,303.0993 L972.5207,305.3645 L972.5092,305.362 L972.1519,307.6476 L971.7111,309.9149 L970.7443,312.0665 L970.7108,314.4233 L970.041,316.6402 L970.0446,316.6411 L969.2346,318.8716 L968.7041,321.1712 L968.4813,323.5471 L967.8814,325.8296 L967.2067,328.0936 L967.1997,328.0916 L966.2856,330.3447 L966.2232,332.8292 L965.1743,335.0457 L964.4487,337.35 L964.0423,339.741 L964.0136,339.7326 L963.5999,342.1862 L962.9169,344.561 L961.9753,346.8602 L961.2019,349.2085 L960.5724,351.599 L960.6445,351.6213 L959.9013,354.0404 L958.8565,356.3659 L958.4976,358.9043 L957.809,361.3403 L956.8216,363.6837 L956.7304,363.654 L955.8388,366.0903 L955.5039,368.7075 L954.4262,371.0833 L953.6158,373.5459 L952.8145,376.0115 L952.9403,376.0544 L950.8059,381.0089 L949.5635,386.2678 L947.5971,391.2796 L946.1479,396.4679 L944.1296,401.462 L943.8584,401.3657 L941.4163,410.7341 L937.1172,419.4433 L934.7557,428.8403 L931.6971,437.9899 L927.582,446.7643 L924.766,456 L924.9122,456.0683 L923.0873,458.9952 L921.6794,462.1168 L920.6953,465.4363 L919.2474,468.5392 L917.5233,471.5131 L917.7335,471.6533 L915.4713,474.3025 L913.828,477.3642 L911.5927,480.0313 L909.8702,483.0402 L907.93,485.904 " fill="none" style="stroke: #A9A9A9; stroke-width: 2.0; stroke-dasharray: 7.0,7.0;"/><polygon fill="#A9A9A9" points="553.909,35.493,553.9374,35.5571,555.654,36.1647,557.5369,37.1478,559.3657,38.0086,561.0163,38.4674,562.9136,39.4827,562.8953,39.4644,562.0122,38.583,561.2214,37.794,560.4948,37.0694,559.5471,36.1232,558.909,35.4873,559.0396,35.6176,559.5594,34.538,560.4605,33.8389,561.4082,33.1862,562.0851,32.2634,562.9044,31.4827,562.9137,31.5035,561.101,32.275,559.3305,33.1412,557.5396,33.9617,555.7876,34.8693,553.909,35.493" style="stroke: #A9A9A9; stroke-width: 2.0;"/><text fill="#A9A9A9" font-family="courier" font-size="20" lengthAdjust="spacingAndGlyphs" textLength="120" x="979.766" y="278.1074">«instance»</text><!--link Objeto1X to FuncionX--><path d="M149.802,239.192 L149.8948,239.2027 L149.345,241.5555 L149.3392,243.971 L149.1562,246.366 L148.3906,248.6941 L148.4315,251.1149 L148.397,251.1146 L148.2623,253.5184 L148.3016,255.9237 L148.4621,258.33 L148.2053,260.7328 L148.5329,263.1405 L148.7755,263.1813 L148.652,265.4447 L149.237,267.8273 L149.9083,270.2244 L150.0768,272.5369 L150.5098,274.8939 L150.5381,274.9047 L151.3478,277.11 L152.2863,279.3647 L153.1627,281.5956 L154.1578,283.8719 L154.766,286 L155.0192,286.1576 L156.3652,288.3175 L157.5479,290.3757 L158.9697,292.5828 L160.4027,294.7968 L161.4806,296.7899 L161.2345,296.5846 L163.3523,298.9495 L164.6596,300.6383 L166.583,302.8411 L167.872,304.5147 L169.681,306.622 " fill="none" style="stroke: #A9A9A9; stroke-width: 2.0;"/><polygon fill="#A9A9A9" points="179.463,315.909,179.5277,315.9358,178.5807,314.0366,178.0131,312.2948,177.3219,310.5017,176.2245,308.5401,175.6894,306.8118,175.6635,306.8111,175.5767,307.939,175.6205,309.0704,175.755,310.2041,175.5768,311.3297,175.8366,312.4667,175.8414,312.6512,174.7002,312.2861,173.5729,312.4597,172.4474,312.699,171.3119,312.5559,170.1817,312.6139,170.1893,312.6354,172.0344,313.2629,173.9141,313.988,175.7771,314.6661,177.6721,315.434,179.463,315.909" style="stroke: #A9A9A9; stroke-width: 2.0;"/><path d="M175.8366,312.4667 L175.9009,312.5344 L174.5496,311.2316 L173.5753,310.3259 L172.4783,309.2909 L170.9774,307.8306 L170.0355,306.959 " fill="#A9A9A9" style="stroke: #A9A9A9; stroke-width: 2.0;"/><polygon fill="#A9A9A9" points="152.586,226.422,152.6347,226.4724,151.4527,227.3246,150.5561,228.4723,149.5666,229.5238,148.2715,230.2589,147.3994,231.4319,147.3753,231.4225,147.793,232.723,148.3322,234.0711,148.956,235.4523,149.2885,236.7195,150.0291,238.1464,150.1573,238.2792,150.9204,236.9933,152.0579,236.095,153.2411,235.244,154.1585,234.1179,155.2157,233.1365,155.2369,233.1448,154.6798,231.7897,154.2192,230.4724,153.7121,229.1369,153.2937,227.8361,152.586,226.422" style="stroke: #A9A9A9; stroke-width: 2.0;"/><text fill="#A9A9A9" font-family="courier" font-size="20" lengthAdjust="spacingAndGlyphs" textLength="132" x="156.766" y="278.1074">constructor</text><text fill="#A9A9A9" font-family="courier" font-size="20" lengthAdjust="spacingAndGlyphs" textLength="12" x="154.6685" y="301.0635">1</text><!--link Objeto2X to FuncionX--><path d="M320.013,238.276 L320.096,238.3189 L317.382,242.967 L315.1545,247.8665 L312.7686,252.6842 L309.8617,257.2327 L307.676,262.1538 L307.6455,262.1375 L306.2192,264.4807 L304.9464,266.9059 L303.7805,269.388 L302.2465,271.6738 L301.228,274.2347 L301.4437,274.3531 L299.6901,276.4529 L298.5662,278.8985 L297.5191,281.3863 L296.025,283.6286 L294.766,286 L294.7923,286.0151 L292.6449,289.6507 L290.6171,293.3552 L288.5317,297.0265 L286.5563,300.7612 L284.222,304.289 " fill="none" style="stroke: #A9A9A9; stroke-width: 2.0;"/><polygon fill="#A9A9A9" points="277.267,315.892,277.3073,315.9493,278.7991,314.6464,280.5272,313.6794,282.1783,312.603,283.5765,311.1668,285.3248,310.2287,285.3185,310.2036,284.1928,310.3658,283.0988,310.6546,282.0269,311.0315,280.8789,311.1049,279.8375,311.6033,280.0165,311.6482,279.3587,310.4548,279.2237,309.3924,279.1524,308.3459,278.7101,307.2065,278.4629,306.116,278.4855,306.1188,278.2131,308.0699,278.0436,310.0336,277.8245,311.9913,277.7,313.9605,277.267,315.892" style="stroke: #A9A9A9; stroke-width: 2.0;"/><path d="M279.8375,311.6033 L279.9176,311.6514 L280.5021,310.1364 L281.5564,308.903 L282.4576,307.5779 L282.8559,305.9512 L283.9505,304.742 " fill="#A9A9A9" style="stroke: #A9A9A9; stroke-width: 2.0;"/><polygon fill="#A9A9A9" points="326.015,226.351,326.0496,226.4119,324.6926,226.943,323.5385,227.8312,322.3183,228.6031,320.8809,228.9926,319.7442,229.9115,319.7185,229.9083,319.778,231.3258,319.9672,232.7591,320.2465,234.2034,320.2152,235.6098,320.6189,237.0693,320.71,237.2298,321.7693,236.1745,323.0947,235.5878,324.4525,235.0582,325.6215,234.1961,326.8897,233.5089,326.9123,233.5116,326.7042,232.076,326.5989,230.6529,326.444,229.2238,326.3837,227.8063,326.015,226.351" style="stroke: #A9A9A9; stroke-width: 2.0;"/><text fill="#A9A9A9" font-family="courier" font-size="20" lengthAdjust="spacingAndGlyphs" textLength="132" x="311.766" y="278.1074">constructor</text><text fill="#A9A9A9" font-family="courier" font-size="20" lengthAdjust="spacingAndGlyphs" textLength="12" x="266.8375" y="301.044">1</text><!--link Objeto1Y to FuncionY--><path d="M744.749,218.178 L744.7924,218.2607 L746.4553,218.9544 L748.3725,220.1331 L750.2068,221.1539 L751.7689,221.6553 L753.7079,222.8756 L753.6912,222.8454 L755.3573,223.6732 L757.1078,224.6534 L758.9168,225.7395 L760.5239,226.4606 L762.4139,227.6929 L762.5427,227.9025 L765.4468,229.4085 L768.727,231.5266 L772.0531,233.7193 L775.1122,235.4776 L778.3118,237.4644 L778.3301,237.4885 L780.8273,239.3698 L783.408,241.3611 L785.9485,243.2993 L788.5658,245.3387 L790.9325,247.0482 L791.1569,247.2446 L792.7264,249.0373 L794.1511,250.7034 L795.7877,252.555 L797.4342,254.4152 L798.766,256 L798.4686,255.8804 L799.9498,258.3608 L800.4518,260.4474 L801.6982,262.8333 L802.178,264.911 L803.2862,267.2413 L803.256,267.2378 L803.8873,269.6518 L803.8121,271.9843 L804.1537,274.3648 L804.5305,276.7494 L804.6546,279.1049 L804.8387,279.1232 L804.4109,281.5305 L804.2977,283.9691 L803.6755,286.3569 L803.8125,288.8205 L803.4447,291.2337 L803.6801,291.2966 L802.9927,293.6922 L802.4221,296.1189 L801.3085,298.4007 L800.5929,300.7888 L800.23,303.271 " fill="none" style="stroke: #A9A9A9; stroke-width: 2.0;"/><polygon fill="#A9A9A9" points="795.224,315.637,795.2727,315.6874,796.5451,314.1694,798.1028,312.9469,799.5676,311.6282,800.7269,309.993,802.3091,308.7959,802.299,308.772,801.2119,309.1063,800.1757,309.5608,799.175,310.0989,798.0522,310.3489,797.1004,311.0024,797.2703,311.0744,796.4656,309.8787,796.157,308.8932,795.909,307.9333,795.3088,306.8243,794.8938,305.7937,794.9165,305.7944,794.9492,307.762,795.0853,309.733,795.1716,311.7023,795.3531,313.6749,795.224,315.637" style="stroke: #A9A9A9; stroke-width: 2.0;"/><path d="M797.1004,311.0024 L797.1869,311.0375 L797.5301,309.4503 L798.3808,308.0687 L799.0663,306.6201 L799.2082,304.9515 L800.1025,303.5875 " fill="#A9A9A9" style="stroke: #A9A9A9; stroke-width: 2.0;"/><polygon fill="#A9A9A9" points="732.953,212.303,733.0138,212.3379,733.5507,213.4854,734.4439,214.8372,735.2211,216.1225,735.6168,217.189,736.5406,218.5584,736.5373,218.5327,737.9535,218.2362,739.3861,218.0693,740.8301,217.9924,742.2348,217.6052,743.6946,217.6527,743.8546,217.7445,742.7948,216.2971,742.2023,215.1177,741.6669,213.9711,740.7997,212.6342,740.107,211.3973,740.1099,211.4199,738.6749,211.5679,737.2529,211.8186,735.8246,212.0198,734.4083,212.3155,732.953,212.303" style="stroke: #A9A9A9; stroke-width: 2.0;"/><text fill="#A9A9A9" font-family="courier" font-size="20" lengthAdjust="spacingAndGlyphs" textLength="12" x="784.8197" y="301.0917">1</text><!--link Objeto2Y to FuncionY--><path d="M845.53,239.493 L845.6233,239.4967 L845.4382,241.8328 L845.8003,244.1905 L845.9841,246.5412 L845.582,248.8688 L845.991,251.2284 L845.9566,251.2265 L845.6767,253.5961 L845.5707,255.9747 L845.5855,258.3597 L845.1839,260.7228 L845.3656,263.1166 L845.6082,263.1578 L844.6926,265.4104 L844.4853,267.7832 L844.3644,270.1706 L843.7407,272.4728 L843.3814,274.8198 L843.4102,274.8292 L842.6448,277.0515 L842.0107,279.3163 L841.3133,281.5606 L840.7368,283.8441 L839.766,286 L840.0326,286.1337 L839.0399,288.1206 L837.8752,290.0211 L836.9622,292.048 L836.0611,294.0808 L834.7861,295.926 L834.5188,295.7491 L833.797,297.9667 L832.195,299.6017 L831.2621,301.6796 L829.6402,303.3014 L828.583,305.297 " fill="none" style="stroke: #A9A9A9; stroke-width: 2.0;"/><polygon fill="#A9A9A9" points="819.976,315.723,820.0073,315.7857,821.6773,314.7207,823.5305,314.0232,825.3241,313.206,826.9215,311.9952,828.7905,311.3293,828.788,311.3035,827.6507,311.2953,826.5258,311.4172,825.4096,311.6294,824.2636,311.5302,823.1593,311.8673,823.343,311.8848,822.8425,310.721,822.8785,309.6085,822.9798,308.5022,822.7004,307.3596,822.6213,306.236,822.6432,306.2421,822.082,308.1306,821.6205,310.0468,821.1109,311.9496,820.6931,313.878,819.976,315.723" style="stroke: #A9A9A9; stroke-width: 2.0;"/><path d="M823.1593,311.8673 L823.2313,311.9267 L824.0358,310.5162 L825.2626,309.4542 L826.3519,308.2788 L826.9889,306.73 L828.252,305.698 " fill="#A9A9A9" style="stroke: #A9A9A9; stroke-width: 2.0;"/><polygon fill="#A9A9A9" points="843.974,226.392,844.0365,226.4237,843.1979,227.6154,842.7256,228.9931,842.134,230.3102,841.1503,231.4282,840.7094,232.8218,840.6897,232.805,841.5372,233.8269,842.484,234.9334,843.4999,236.0989,844.2778,237.0614,845.389,238.3083,845.5536,238.3918,845.8546,236.9272,846.6361,235.7065,847.4762,234.5156,847.9752,233.1515,848.6536,231.8785,848.6709,231.8932,847.7096,230.7743,846.827,229.7225,845.9065,228.6383,845.0585,227.616,843.974,226.392" style="stroke: #A9A9A9; stroke-width: 2.0;"/><text fill="#A9A9A9" font-family="courier" font-size="20" lengthAdjust="spacingAndGlyphs" textLength="12" x="813.3225" y="300.8502">1</text><!--link Function to FuncionX--><path d="M501.124,220.973 L501.207,221.0159 L499.239,224.214 L497.7575,227.6638 L496.1175,231.0317 L493.9567,234.13 L492.5169,237.6014 L492.4872,237.5838 L491.3296,239.2423 L490.322,240.9891 L489.4187,242.7975 L488.156,244.394 L487.3966,246.2872 L487.6028,246.4215 L486.0299,247.8714 L485.0589,249.7135 L484.1614,251.6035 L482.8366,253.215 L481.7365,254.973 L481.761,254.9909 L480.4857,256.6646 L479.322,258.4197 L478.1044,260.1356 L476.9896,261.9263 L475.5399,263.473 L475.7696,263.6632 L474.4265,265.2912 L472.9353,266.7965 L471.6609,268.4814 L470.3967,270.1747 L468.8103,271.6014 L468.579,271.3795 L467.5762,273.3243 L465.8116,274.5385 L464.6261,276.3081 L462.8442,277.5059 L461.5512,279.1723 L461.5311,279.1494 L460.2115,280.7857 L458.4229,281.8871 L456.9109,283.3041 L455.4223,284.7476 L453.766,286 L453.877,286.148 L452.0423,287.2914 L450.3972,288.6878 L448.4452,289.675 L446.9511,291.2724 L445.1525,292.4642 L445.2885,292.6663 L443.4606,293.8401 L441.7001,295.1142 L439.6261,295.9219 L437.7819,297.0715 L436.1415,298.524 L435.9983,298.2878 L434.2579,299.6351 L432.3561,300.7164 L430.6883,302.1836 L428.6211,302.9918 L426.7913,304.1918 L426.7179,304.0581 L424.914,305.3384 L422.7964,306.0473 L420.9018,307.1626 L419.2256,308.6753 L417.1606,309.4801 L417.2471,309.6533 L415.336,310.7564 L413.1557,311.3207 L411.3124,312.5598 L409.3958,313.6519 L407.308,314.4014 L407.2209,314.2103 L405.2871,315.2759 L403.3248,316.279 L401.4186,317.4049 L399.2944,318.053 L397.292,318.968 L397.3712,319.1577 L395.173,319.5857 L393.1277,320.38 L391.3057,321.7092 L389.0726,322.0534 L387.1711,323.1924 L387.252,323.4036 L385.1706,324.0571 L383.0617,324.639 L381.0146,325.3823 L379.1104,326.4985 L377.004,327.087 " fill="none" style="stroke: #A9A9A9; stroke-width: 2.0; stroke-dasharray: 7.0,7.0;"/><polygon fill="#A9A9A9" points="503.296,216.313,503.342,216.3658,501.7197,217.5023,500.3672,218.9486,498.9268,220.2939,497.1976,221.3076,495.8682,222.7804,495.8593,222.7561,496.8826,222.2597,497.9506,221.8861,499.0497,221.5977,500.0417,221.0154,501.1836,220.8449,501.357,220.908,501.3733,221.8361,501.8959,222.9485,502.4802,224.0834,502.7052,225.0874,503.1192,226.1603,503.1419,226.1607,503.1439,224.1906,503.2494,222.2224,503.305,220.2533,503.4558,218.286,503.296,216.313" style="stroke: #A9A9A9; stroke-width: 2.0;"/><text fill="#A9A9A9" font-family="courier" font-size="20" lengthAdjust="spacingAndGlyphs" textLength="120" x="481.766" y="278.1074">«instance»</text><!--link Function to FuncionY--><path d="M570.531,217.152 L570.5754,217.2342 L573.6541,218.7242 L576.9931,220.696 L580.2473,222.5109 L583.2228,223.8098 L586.5841,225.823 L586.5668,225.7931 L589.7761,227.5513 L593.0722,229.4605 L596.4288,231.4745 L599.5772,233.1271 L603.0171,235.286 L603.1471,235.4949 L606.1189,237.0697 L609.4702,239.2546 L612.8678,241.5138 L615.996,243.34 L619.2659,245.394 L619.283,245.419 L622.3579,247.5035 L625.5107,249.7019 L628.626,251.8453 L631.813,254.0936 L634.766,256 L634.9551,256.2307 L636.8609,257.7938 L638.6448,259.2082 L640.6072,260.8404 L642.5779,262.4828 L644.2836,263.8018 L644.0528,263.5793 L645.8373,265.3978 L646.8619,266.4837 L648.4642,268.1265 L649.4716,269.1959 L650.9666,270.7352 L650.9443,270.7145 L652.5243,272.3731 L653.5839,273.5468 L654.9505,275.0067 L656.3429,276.4905 L657.5494,277.8011 L657.6723,277.9393 L659.3915,279.4396 L661.3209,281.176 L662.9103,282.5304 L665.0067,284.4547 L666.766,286 L666.9152,286.1926 L668.87,287.6917 L670.8988,289.2864 L672.5835,290.4368 L674.5205,291.9129 L676.681,293.6775 L676.5168,293.4555 L678.7221,295.1772 L680.7425,296.6487 L683.0312,298.4832 L684.8617,299.698 L686.9646,301.2811 L686.8762,301.1569 L689.1156,302.8521 L690.9772,304.0163 L693.1074,305.5582 L695.5005,307.4696 L697.4255,308.7229 L697.5353,308.8824 L699.6999,310.4302 L701.523,311.4819 L703.7738,313.155 L705.9315,314.6927 L707.872,315.915 " fill="none" style="stroke: #A9A9A9; stroke-width: 2.0; stroke-dasharray: 7.0,7.0;"/><polygon fill="#A9A9A9" points="565.834,214.707,565.8888,214.7507,566.9533,216.1616,568.3391,217.8284,569.6203,219.4119,570.5575,220.7214,571.9708,222.4102,571.9461,222.4024,571.4949,221.2885,571.1683,220.2138,570.9282,219.1665,570.3898,218.025,570.2693,217.0153,570.3248,217.1913,571.285,216.4747,572.4074,216.2719,573.5495,216.1317,574.5766,215.6268,575.6641,215.3138,575.6655,215.3365,573.6975,215.1818,571.7358,215.1305,569.771,215.0293,567.8121,215.0232,565.834,214.707" style="stroke: #A9A9A9; stroke-width: 2.0;"/><text fill="#A9A9A9" font-family="courier" font-size="20" lengthAdjust="spacingAndGlyphs" textLength="120" x="668.766" y="278.1074">«instance»</text><!--link FuncionX to PrototipoClaseX--><path d="M201.066,405.523 L201.2578,405.7273 L193.086,412.2549 L186.0386,419.9804 L178.625,427.3158 L170.0075,433.3684 L162.9856,441.1212 L155.0654,447.9169 L147.5028,455.0934 L140.1886,462.5347 L132.0181,469.0636 L125.047,476.8705 " fill="none" style="stroke: #A9A9A9; stroke-width: 2.0;"/><polygon fill="#A9A9A9" points="115.47,485.8582,115.4931,485.9244,117.2845,485.0794,119.2112,484.6222,121.0938,484.0388,122.8317,483.04,124.77,482.6162,124.7691,482.5903,123.6346,482.4382,122.5043,482.4166,121.3768,482.4858,120.2394,482.2422,119.116,482.4366,119.3004,482.4425,118.9419,481.2992,119.1219,480.173,119.3676,479.0488,119.231,477.9125,119.2955,476.7826,119.3164,476.7915,118.5206,478.5936,117.8201,480.436,117.0736,482.2589,116.415,484.1189,115.47,485.8582" style="stroke: #A9A9A9; stroke-width: 2.0;"/><path d="M119.116,482.4366 L119.1799,482.5048 L120.1566,481.2074 L121.5082,480.3093 L122.7376,479.2812 L123.5658,477.8255 L124.9495,476.9617 " fill="#A9A9A9" style="stroke: #A9A9A9; stroke-width: 2.0;"/><polygon fill="#A9A9A9" points="210.798,396.389,210.8096,396.4581,209.3528,396.4907,207.9637,396.9283,206.5526,397.234,205.0689,397.1059,203.6857,397.5783,203.6604,397.5725,203.2197,398.9506,202.9061,400.3584,202.6809,401.7868,202.1511,403.1442,202.048,404.601,202.0784,404.783,203.4358,404.1559,204.8821,404.0603,206.3392,404.0294,207.7332,403.6214,209.1603,403.4117,209.1825,403.4168,209.4775,402.0047,209.8734,400.6161,210.2206,399.2162,210.6606,397.8379,210.798,396.389" style="stroke: #A9A9A9; stroke-width: 2.0;"/><text fill="#A9A9A9" font-family="courier" font-size="20" lengthAdjust="spacingAndGlyphs" textLength="108" x="175.766" y="448.1074">prototype</text><!--link FuncionY to PrototipoClaseY--><path d="M786.202,408.379 L786.2887,408.4137 L786.9955,410.7194 L788.2106,413.2286 L789.2602,415.6715 L789.7654,417.8965 L791.0242,420.4231 L790.9926,420.4092 L791.9271,422.783 L793.0208,425.2272 L794.2253,427.7202 L795.0482,430.0448 L796.4055,432.6054 L796.6261,432.7144 L797.3385,434.8761 L798.6949,437.3561 L800.1299,439.875 L801.1078,442.1679 L802.3261,444.5797 L802.3525,444.5946 L803.6017,446.8568 L804.9712,449.1868 L806.2826,451.4841 L807.7048,453.8438 L808.766,456 L809.0157,456.1632 L810.3087,458.1389 L811.4407,460.0094 L812.8085,462.0339 L814.1873,464.0657 L815.216,465.8687 L814.958,465.6785 L816.8838,467.9813 L817.9599,469.6579 L819.682,471.8105 L820.7389,473.4729 L822.341,475.5371 " fill="none" style="stroke: #A9A9A9; stroke-width: 2.0;"/><polygon fill="#A9A9A9" points="830.775,485.93,830.8426,485.9482,830.1286,483.9922,829.8111,482.1432,829.3645,480.2594,828.4932,478.2609,828.2097,476.4211,828.184,476.4184,827.9513,477.5317,827.8484,478.6585,827.8359,479.7946,827.5122,480.8984,827.6243,482.0476,827.6434,482.2311,826.4773,481.7215,825.3669,481.7478,824.2633,481.8395,823.1202,481.5508,821.9978,481.4622,822.0082,481.4824,823.7484,482.3462,825.5357,483.3023,827.3003,484.2139,829.1081,485.2104,830.775,485.93" style="stroke: #A9A9A9; stroke-width: 2.0;"/><path d="M827.6243,482.0476 L827.6969,482.1064 L826.4731,480.6891 L825.6745,479.6169 L824.7375,478.4323 L823.3451,476.8782 L822.583,475.8356 " fill="#A9A9A9" style="stroke: #A9A9A9; stroke-width: 2.0;"/><polygon fill="#A9A9A9" points="781.687,396.044,781.7551,396.0605,781.214,397.4134,781.0721,398.8629,780.8003,400.2809,780.1009,401.5956,779.9933,403.0534,779.978,403.0325,781.0731,403.7905,782.2453,404.654,783.4711,405.5906,784.5122,406.2749,785.812,407.3127,785.9914,407.3561,785.9466,405.8615,786.4255,404.4935,786.9682,403.1409,787.1392,401.6985,787.5058,400.3033,787.5192,400.3217,786.3357,399.4429,785.2134,398.6476,784.0616,397.8121,782.9661,397.0534,781.687,396.044" style="stroke: #A9A9A9; stroke-width: 2.0;"/><text fill="#A9A9A9" font-family="courier" font-size="20" lengthAdjust="spacingAndGlyphs" textLength="108" x="810.766" y="448.1074">prototype</text><!--
@startuml
allowmixing
skinparam backgroundColor #222222
skinparam handwritten true
hide circle
hide stereotype
skinparam shadowing false
skinparam padding 1
skinparam arrow {
    Thickness 2
    Color #DarkGrey
    FontSize 20
    FontName courier
    FontStyle normal
    FontColor #DarkGrey
}
skinparam class {
    BorderThickness 3
    BorderColor #DarkGrey
    BackgroundColor #222222
    FontSize 20
    FontName courier
    FontStyle bold
    FontColor #DarkGrey
}
skinparam object {
    BorderThickness 3
    BorderColor #DarkGrey
    BackgroundColor #222222
    FontSize 20
    FontName courier
    FontStyle bold
    FontColor #DarkGrey
}
skinparam package  {
  borderColor #222222
  fontColor #222222
}
class Object
object "Objeto1\nClase X" as Objeto1X
object "Objeto2\nClase X" as Objeto2X
object "Objeto1\nClase Y" as Objeto1Y
object "Objeto2\nClaseY" as Objeto2Y
class Function
class "Funcion Constructora\nClase X" as FuncionX
class "Funcion Constructora\nClase Y" as FuncionY

class "Prototipo\nClase X" as PrototipoClaseX
class "Prototipo\nClase Y" as PrototipoClaseY

Object <.. Objeto1X :<<instance>>
Object <.. Objeto2X :<<instance>>
Object <|- - Function
Object <.. Objeto1Y :<<instance>>
Object <.. Objeto2Y :<<instance>>
Object <.. PrototipoClaseX :<<instance>>
Object <.. PrototipoClaseY :<<instance>>
Objeto1X *- -> "1" FuncionX : constructor
Objeto2X *- -> "1" FuncionX : constructor
Objeto1Y *- -> "1" FuncionY
Objeto2Y *- -> "1" FuncionY
Function <.. FuncionX :<<instance>>
Function <.. FuncionY :<<instance>>
FuncionX *- -> PrototipoClaseX : prototype
FuncionY *- -> PrototipoClaseY : prototype
@enduml

PlantUML version 1.2019.05(Sat Apr 20 18:45:36 CEST 2019)
(GPL source distribution)
Java Runtime: Java(TM) SE Runtime Environment
JVM: Java HotSpot(TM) 64-Bit Server VM
Java Version: 11.0.8+10-LTS
Operating System: Windows 10
OS Version: 10.0
Default Encoding: windows-1252
Language: es
Country: ES
--></g></svg>