<?xml version="1.0" encoding="UTF-8" standalone="no"?><svg xmlns="http://www.w3.org/2000/svg" xmlns:xlink="http://www.w3.org/1999/xlink" contentScriptType="application/ecmascript" contentStyleType="text/css" height="529px" preserveAspectRatio="none" style="width:471px;height:529px;background:#222222;" version="1.1" viewBox="0 0 471 529" width="471px" zoomAndPan="magnify"><defs/><g><!--class Sistema--><polygon fill="#222222" points="230,8,230,8.2102,240.2222,7.5857,250.4444,8.1933,260.6667,8.3997,270.8889,7.2866,281.1111,7.9223,291.3333,7.5735,301.5556,7.6165,311.7778,7.9318,322,8,321.3086,8,322.5536,18.8227,321.3697,29.6453,321.8022,40.468,322.4319,51.2906,322,62.1133,322,62.0275,311.7778,62.1815,301.5556,62.0813,291.3333,62.2918,281.1111,62.3524,270.8889,62.699,260.6667,62.7843,250.4444,62.7925,240.2222,62.3679,230,62.1133,230.4636,62.1133,230.7022,51.2906,229.2788,40.468,230.6785,29.6453,229.7035,18.8227,230,8" style="stroke: #A9A9A9; stroke-width: 3.0;"/><text fill="#A9A9A9" font-family="courier" font-size="20" font-weight="bold" lengthAdjust="spacingAndGlyphs" textLength="84" x="234" y="34.1074">Sistema</text><path d="M231,46.1133 L231,46.3935 L241,45.5609 L251,46.371 L261,46.6462 L271,45.1621 L281,46.0097 L291,45.5446 L301,45.6019 L311,46.0224 L321,46.1133 " fill="#222222" style="stroke: #A9A9A9; stroke-width: 3.0;"/><path d="M231,54.1133 L231,54.3935 L241,53.5609 L251,54.371 L261,54.6462 L271,53.1621 L281,54.0097 L291,53.5446 L301,53.6019 L311,54.0224 L321,54.1133 " fill="#222222" style="stroke: #A9A9A9; stroke-width: 3.0;"/><!--class SistemaComplejo--><polygon fill="#222222" points="81,122,81,122.2102,91,121.5857,101,122.1933,111,122.3997,121,121.2866,131,121.9223,141,121.5735,151,121.6165,161,121.9318,171,121.3086,181,122.5536,191,121.3697,201,121.8022,211,122.4319,221,121.9142,231,122.0682,241,121.9681,251,122.1785,261,122.2391,271,122.5857,281,122,281.6711,122,281.6793,132.8227,281.2546,143.6453,281.4636,154.468,281.7022,165.2906,281,176.1133,281,175.3921,271,176.7918,261,175.8168,251,176.6471,241,175.6183,231,176.0448,221,176.8549,211,176.0645,201,176.2186,191,176.4519,181,176.5295,171,176.1094,161,176.4005,151,175.5409,141,176.3977,131,176.6615,121,176.5578,111,176.7263,101,175.6302,91,175.4611,81,176.1133,80.3786,176.1133,80.9411,165.2906,80.8035,154.468,81.6814,143.6453,80.8253,132.8227,81,122" style="stroke: #A9A9A9; stroke-width: 3.0;"/><text fill="#A9A9A9" font-family="courier" font-size="20" font-weight="bold" lengthAdjust="spacingAndGlyphs" textLength="192" x="85" y="148.1074">Sistema Complejo</text><path d="M82,160.1133 L82,160.3935 L91.9,159.5609 L101.8,160.371 L111.7,160.6462 L121.6,159.1621 L131.5,160.0097 L141.4,159.5446 L151.3,159.6019 L161.2,160.0224 L171.1,159.1915 L181,160.8515 L190.9,159.2729 L200.8,159.8496 L210.7,160.6892 L220.6,159.9989 L230.5,160.2043 L240.4,160.0707 L250.3,160.3513 L260.2,160.4321 L270.1,160.8942 L280,160.1133 " fill="#222222" style="stroke: #A9A9A9; stroke-width: 3.0;"/><path d="M82,168.1133 L82,168.3935 L91.9,167.5609 L101.8,168.371 L111.7,168.6462 L121.6,167.1621 L131.5,168.0097 L141.4,167.5446 L151.3,167.6019 L161.2,168.0224 L171.1,167.1915 L181,168.8515 L190.9,167.2729 L200.8,167.8496 L210.7,168.6892 L220.6,167.9989 L230.5,168.2043 L240.4,168.0707 L250.3,168.3513 L260.2,168.4321 L270.1,168.8942 L280,168.1133 " fill="#222222" style="stroke: #A9A9A9; stroke-width: 3.0;"/><!--class Software--><polygon fill="#222222" points="215,350,215,350.2102,225.4,349.5857,235.8,350.1933,246.2,350.3997,256.6,349.2866,267,349.9223,277.4,349.5735,287.8,349.6165,298.2,349.9318,308.6,349.3086,319,350,319.5536,350,318.3697,360.8227,318.8022,371.6453,319.4319,382.468,318.9142,393.2906,319,404.1133,319,404.1815,308.6,404.0813,298.2,404.2918,287.8,404.3524,277.4,404.699,267,404.7843,256.6,404.7925,246.2,404.3679,235.8,404.5769,225.4,404.8155,215,404.1133,214.2788,404.1133,215.6785,393.2906,214.7035,382.468,215.5338,371.6453,214.505,360.8227,215,350" style="stroke: #A9A9A9; stroke-width: 3.0;"/><text fill="#A9A9A9" font-family="courier" font-size="20" font-weight="bold" lengthAdjust="spacingAndGlyphs" textLength="96" x="219" y="376.1074">Software</text><path d="M216,388.1133 L216,388.3935 L226.2,387.5609 L236.4,388.371 L246.6,388.6462 L256.8,387.1621 L267,388.0097 L277.2,387.5446 L287.4,387.6019 L297.6,388.0224 L307.8,387.1915 L318,388.1133 " fill="#222222" style="stroke: #A9A9A9; stroke-width: 3.0;"/><path d="M216,396.1133 L216,396.3935 L226.2,395.5609 L236.4,396.371 L246.6,396.6462 L256.8,395.1621 L267,396.0097 L277.2,395.5446 L287.4,395.6019 L297.6,396.0224 L307.8,395.1915 L318,396.1133 " fill="#222222" style="stroke: #A9A9A9; stroke-width: 3.0;"/><!--class Informacion--><polygon fill="#222222" points="320,236,320,236.2102,330,235.5857,340,236.1933,350,236.3997,360,235.2866,370,235.9223,380,235.5735,390,235.6165,400,235.9318,410,235.3086,420,236.5536,430,235.3697,440,235.8022,450,236.4319,460,236,459.9142,236,460.0682,246.8227,459.9681,257.6453,460.1785,268.468,460.2391,279.2906,460,290.1133,460,290.699,450,290.7843,440,290.7925,430,290.3679,420,290.5769,410,290.8155,400,289.3921,390,290.7918,380,289.8168,370,290.6471,360,289.6183,350,290.0448,340,290.8549,330,290.0645,320,290.1133,320.1053,290.1133,320.3386,279.2906,320.4162,268.468,319.9961,257.6453,320.2872,246.8227,320,236" style="stroke: #A9A9A9; stroke-width: 3.0;"/><text fill="#A9A9A9" font-family="courier" font-size="20" font-weight="bold" lengthAdjust="spacingAndGlyphs" textLength="132" x="324" y="262.1074">Información</text><path d="M321,274.1133 L321,274.3935 L330.8571,273.5609 L340.7143,274.371 L350.5714,274.6462 L360.4286,273.1621 L370.2857,274.0097 L380.1429,273.5446 L390,273.6019 L399.8571,274.0224 L409.7143,273.1915 L419.5714,274.8515 L429.4286,273.2729 L439.2857,273.8496 L449.1429,274.6892 L459,274.1133 " fill="#222222" style="stroke: #A9A9A9; stroke-width: 3.0;"/><path d="M321,282.1133 L321,282.3935 L330.8571,281.5609 L340.7143,282.371 L350.5714,282.6462 L360.4286,281.1621 L370.2857,282.0097 L380.1429,281.5446 L390,281.6019 L399.8571,282.0224 L409.7143,281.1915 L419.5714,282.8515 L429.4286,281.2729 L439.2857,281.8496 L449.1429,282.6892 L459,282.1133 " fill="#222222" style="stroke: #A9A9A9; stroke-width: 3.0;"/><!--class Usuario--><polygon fill="#222222" points="6,464,6,464.2102,15.9048,463.5857,25.8095,464.1933,35.7143,464.3997,45.619,463.2866,55.5238,463.9223,65.4286,463.5735,75.3333,463.6165,85.2381,463.9318,95.1429,463.3086,105.0476,464.5536,114.9524,463.3697,124.8571,463.8022,134.7619,464.4319,144.6667,463.9142,154.5714,464.0682,164.4762,463.9681,174.381,464.1785,184.2857,464.2391,194.1905,464.5857,204.0952,464.6711,214,464.6793,223.9048,464.2546,233.8095,464.4636,243.7143,464.7022,253.619,463.2788,263.5238,464.6785,273.4286,463.7035,283.3333,464.5338,293.2381,463.505,303.1429,463.9315,313.0476,464.7416,322.9524,463.9513,332.8571,464.1053,342.7619,464.3386,352.6667,464.4162,362.5714,463.9961,372.4762,464.2872,382.381,463.4276,392.2857,464.2844,402.1905,464.5482,412.0952,464.4445,422,464,422.613,464,421.5169,474.8227,421.3478,485.6453,421.3786,496.468,421.9411,507.2906,422,518.1133,422,517.9168,412.0952,518.7947,402.1905,517.9386,392.2857,517.7702,382.381,518.3415,372.4762,517.4464,362.5714,517.5942,352.6667,518.7622,342.7619,518.5489,332.8571,518.8478,322.9524,517.7915,313.0476,518.4325,303.1429,518.7037,293.2381,517.6409,283.3333,518.0174,273.4286,518.2393,263.5238,518.765,253.619,518.1091,243.7143,518.5758,233.8095,517.5595,223.9048,517.436,214,518.6169,204.0952,517.3963,194.1905,518.6222,184.2857,518.3199,174.381,517.8454,164.4762,517.7595,154.5714,518.572,144.6667,517.8139,134.7619,518.7051,124.8571,517.5605,114.9524,518.7307,105.0476,518.5976,95.1429,518.3582,85.2381,518.1605,75.3333,518.8399,65.4286,518.7269,55.5238,518.2825,45.619,518.3815,35.7143,517.983,25.8095,518.8297,15.9048,518.2681,6,518.1133,6.1726,518.1133,5.3916,507.2906,5.5948,496.468,6.5307,485.6453,6.4298,474.8227,6,464" style="stroke: #A9A9A9; stroke-width: 3.0;"/><text fill="#A9A9A9" font-family="courier" font-size="20" font-weight="bold" lengthAdjust="spacingAndGlyphs" textLength="408" x="10" y="490.1074">Sistema de Información del Usuario</text><path d="M7,502.1133 L7,502.3935 L17.0976,501.5609 L27.1951,502.371 L37.2927,502.6462 L47.3902,501.1621 L57.4878,502.0097 L67.5854,501.5446 L77.6829,501.6019 L87.7805,502.0224 L97.878,501.1915 L107.9756,502.8515 L118.0732,501.2729 L128.1707,501.8496 L138.2683,502.6892 L148.3659,501.9989 L158.4634,502.2043 L168.561,502.0707 L178.6585,502.3513 L188.7561,502.4321 L198.8537,502.8942 L208.9512,503.008 L219.0488,503.019 L229.1463,502.4528 L239.2439,502.7314 L249.3415,503.0496 L259.439,501.1517 L269.5366,503.018 L279.6341,501.7179 L289.7317,502.825 L299.8293,501.4533 L309.9268,502.0219 L320.0244,503.1021 L330.122,502.0483 L340.2195,502.2537 L350.3171,502.5648 L360.4146,502.6683 L370.5122,502.1081 L380.6098,502.4962 L390.7073,501.3501 L400.8049,502.4925 L410.9024,502.8442 L421,502.1133 " fill="#222222" style="stroke: #A9A9A9; stroke-width: 3.0;"/><path d="M7,510.1133 L7,510.3935 L17.0976,509.5609 L27.1951,510.371 L37.2927,510.6462 L47.3902,509.1621 L57.4878,510.0097 L67.5854,509.5446 L77.6829,509.6019 L87.7805,510.0224 L97.878,509.1915 L107.9756,510.8515 L118.0732,509.2729 L128.1707,509.8496 L138.2683,510.6892 L148.3659,509.9989 L158.4634,510.2043 L168.561,510.0707 L178.6585,510.3513 L188.7561,510.4321 L198.8537,510.8942 L208.9512,511.008 L219.0488,511.019 L229.1463,510.4528 L239.2439,510.7314 L249.3415,511.0496 L259.439,509.1517 L269.5366,511.018 L279.6341,509.7179 L289.7317,510.825 L299.8293,509.4533 L309.9268,510.0219 L320.0244,511.1021 L330.122,510.0483 L340.2195,510.2537 L350.3171,510.5648 L360.4146,510.6683 L370.5122,510.1081 L380.6098,510.4962 L390.7073,509.3501 L400.8049,510.4925 L410.9024,510.8442 L421,510.1133 " fill="#222222" style="stroke: #A9A9A9; stroke-width: 3.0;"/><!--class Hardware--><polygon fill="#222222" points="110,236,110,236.2102,120.4,235.5857,130.8,236.1933,141.2,236.3997,151.6,235.2866,162,235.9223,172.4,235.5735,182.8,235.6165,193.2,235.9318,203.6,235.3086,214,236,214.5536,236,213.3697,246.8227,213.8022,257.6453,214.4319,268.468,213.9142,279.2906,214,290.1133,214,290.1815,203.6,290.0813,193.2,290.2918,182.8,290.3524,172.4,290.699,162,290.7843,151.6,290.7925,141.2,290.3679,130.8,290.5769,120.4,290.8155,110,290.1133,109.2788,290.1133,110.6785,279.2906,109.7035,268.468,110.5338,257.6453,109.505,246.8227,110,236" style="stroke: #A9A9A9; stroke-width: 3.0;"/><text fill="#A9A9A9" font-family="courier" font-size="20" font-weight="bold" lengthAdjust="spacingAndGlyphs" textLength="96" x="114" y="262.1074">Hardware</text><path d="M111,274.1133 L111,274.3935 L121.2,273.5609 L131.4,274.371 L141.6,274.6462 L151.8,273.1621 L162,274.0097 L172.2,273.5446 L182.4,273.6019 L192.6,274.0224 L202.8,273.1915 L213,274.1133 " fill="#222222" style="stroke: #A9A9A9; stroke-width: 3.0;"/><path d="M111,282.1133 L111,282.3935 L121.2,281.5609 L131.4,282.371 L141.6,282.6462 L151.8,281.1621 L162,282.0097 L172.2,281.5446 L182.4,281.6019 L192.6,282.0224 L202.8,281.1915 L213,282.1133 " fill="#222222" style="stroke: #A9A9A9; stroke-width: 3.0;"/><!--link Sistema to SistemaComplejo--><path d="M240.727,77.585 L240.9407,77.7663 L234.0402,84.6143 L228.3925,92.525 L222.3369,100.0897 L214.9396,106.5164 L209.3205,114.4513 L203.134,121.905 " fill="none" style="stroke: #A9A9A9; stroke-width: 2.0;"/><polygon fill="none" points="235.451,72.983,235.4865,73.0434,239.0363,70.7191,242.794,68.749,246.484,66.6635,249.9515,64.1987,253.727,62.259,253.7028,62.2497,252.0745,66.164,250.5681,70.1252,249.1464,74.1189,247.4327,78.0004,246.128,82.039,246.2474,82.1797,243.8567,80.0676,241.8146,78.3663,239.8149,76.7152,237.5679,74.7724,235.451,72.983" style="stroke: #A9A9A9; stroke-width: 2.0;"/><!--link SistemaComplejo to Software--><path d="M209.828,193.029 L209.9087,193.0761 L210.8708,194.9961 L212.3058,197.1921 L213.5869,199.2983 L214.3614,201.1089 L215.8371,203.3286 L215.8068,203.3121 L216.8389,205.3841 L218.0239,207.5394 L219.3152,209.7525 L220.2401,211.7662 L221.6783,214.0593 L221.8985,214.169 L222.5193,216.126 L223.7832,218.4034 L225.1255,220.7198 L226.0113,222.8089 L227.1373,225.0175 L227.165,225.0298 L228.0968,227.2083 L229.1549,229.4426 L230.1521,231.65 L231.2655,233.9089 L232,236 L232.2785,236.1067 L233.4077,239.0479 L234.3572,241.9203 L235.5696,244.8935 L236.7944,247.8714 L237.6287,250.6997 L237.3248,250.5978 L238.935,253.8379 L239.5445,256.7424 L240.9147,259.9021 L241.5016,262.799 L242.7306,265.9113 L242.7014,265.9026 L243.9635,269.086 L244.5438,272.0664 L245.5264,275.1666 L246.5428,278.2769 L247.3156,281.3146 L247.4943,281.3623 L248.1296,284.3691 L249.0702,287.4574 L249.5167,290.4138 L250.7002,293.567 L251.3938,296.5894 L251.6306,296.6466 L252.302,299.601 L253.0911,302.5838 L253.3338,305.4346 L253.9769,308.3822 L254.9749,311.4154 L254.7052,311.3561 L255.5682,314.2212 L256.1273,317.0195 L257.1272,319.9148 L257.3744,322.6444 L258.0691,325.4725 L257.9196,325.4424 L258.6919,328.0862 L258.8254,330.6011 L259.4131,333.2076 L260.4454,335.9039 L260.6861,338.4404 L260.8765,338.4759 L261.437,340.8119 L261.4055,343.0377 L262.1155,345.4015 L262.664,347.7353 L262.836,349.999 " fill="none" style="stroke: #A9A9A9; stroke-width: 2.0;"/><polygon fill="none" points="203.886,196.728,203.9543,196.7436,202.8086,192.5655,202.0632,188.4787,201.1875,184.3622,199.883,180.1479,199.172,176.069,199.1559,176.0487,202.397,178.5998,205.7195,181.253,209.0986,183.9772,212.2827,186.4568,215.74,189.279,215.8382,189.4353,213.2574,190.5909,210.9633,192.2028,208.7042,193.8703,206.2416,195.214,203.886,196.728" style="stroke: #A9A9A9; stroke-width: 2.0;"/><!--link SistemaComplejo to Usuario--><path d="M126.765,189.832 L126.8319,189.8971 L124.6362,191.7557 L122.833,193.9961 L120.9019,196.1121 L118.5506,197.8192 L116.7811,200.0924 L116.7544,200.0704 L114.7857,202.2053 L112.951,204.4512 L111.2096,206.7743 L109.1468,208.8314 L107.5341,211.2611 L107.7383,211.3985 L105.6872,213.504 L104.2321,216.0105 L102.8498,218.566 L101.0443,220.8368 L99.4614,223.2573 L99.4885,223.271 L98.1565,225.7994 L96.9476,228.3903 L95.6794,230.951 L94.5244,233.5692 L93,236 L93.283,236.0942 L92.3194,238.9991 L91.1733,241.8432 L90.2943,244.7762 L89.4279,247.7135 L88.1648,250.5185 L87.8455,250.4902 L88.2502,252.9667 L87.6035,255.3499 L87.7561,257.8041 L87.0857,260.1852 L87.0898,262.6261 L87.0597,262.6215 L87.7917,265.1349 L87.8205,267.5407 L88.2642,270.0099 L88.7427,272.4845 L88.97,274.9206 L89.1487,274.9684 L89.7743,277.9361 L90.7053,280.9853 L91.1422,283.9026 L92.3161,287.0168 L93,290 L93.233,290.0713 L93.9783,292.636 L94.8393,295.2361 L95.1628,297.6717 L95.8804,300.2279 L96.9469,302.8909 L96.6869,302.7979 L97.841,305.4505 L98.7021,307.9983 L99.9882,310.6981 L100.5486,313.1383 L101.5404,315.7328 L101.3991,315.6756 L102.6674,318.32 L103.3316,320.7197 L104.4254,323.2934 L105.9395,326.0374 L106.7052,328.4782 L106.8818,328.5575 L108.1351,331.1322 L108.839,333.4601 L110.231,336.0971 L111.4731,338.6667 L112.3659,341.0795 L112.1774,340.9871 L113.5439,343.5427 L114.8487,346.068 L116.2748,348.6528 L117.2293,351.0064 L118.4472,353.4892 L118.629,353.5852 L119.5149,355.8084 L120.7517,358.2169 L122.5011,360.8961 L123.3067,363.077 L124.8738,365.6599 L125.0709,365.771 L126.2932,368.0818 L127.4487,370.3551 L128.7548,372.7132 L130.4087,375.2673 L131.5704,377.5441 L131.4562,377.4759 L133.1746,379.9889 L134.1159,382.0382 L135.9408,384.6147 L137.2682,386.8944 L138.4616,389.0942 L138.5538,389.152 L139.8815,391.339 L141.5394,393.7333 L142.8989,395.9403 L144.1338,398.069 L145.4721,400.2627 L145.5718,400.3281 L146.8347,402.3788 L148.5601,404.7333 L149.7624,406.7442 L151.1799,408.8964 L152.5267,411.0022 L152.3035,410.8495 L153.7827,412.9531 L155.5306,415.2406 L156.8982,417.2678 L158.1294,419.2018 L159.5498,421.2651 L159.4331,421.1822 L160.8538,423.1566 L162.0678,424.9841 L163.85,427.2152 L165.351,429.2466 L166.4663,431.004 L166.6548,431.1425 L168.0621,433.0203 L169.1111,434.635 L170.5382,436.5274 L171.7151,438.2359 L173.2008,440.1714 L173.3014,440.2476 L174.5836,441.9472 L175.9873,443.7389 L177.0057,445.2387 L178.3349,446.9739 L179.678,448.7196 L179.8326,448.8418 L182.2521,451.8857 L184.2516,454.5982 L186.7389,457.6959 L189.2349,460.8002 L191.559,463.769 " fill="none" style="stroke: #A9A9A9; stroke-width: 2.0;"/><polygon fill="none" points="122.568,184.202,122.5942,184.267,126.4468,182.4891,130.4529,181.0922,134.409,179.5712,138.2007,177.6423,142.22,176.278,142.1974,176.2653,140.012,179.8981,137.9403,183.5951,135.9476,187.3368,133.6825,190.9247,131.799,194.728,131.9378,194.8497,129.7948,192.4843,128.057,190.4741,126.3687,188.5073,124.3927,186.2883,122.568,184.202" style="stroke: #A9A9A9; stroke-width: 2.0;"/><!--link Sistema to Informacion--><path d="M298.311,80.231 L298.5612,80.3572 L302.4338,89.1334 L307.7732,98.6494 L312.635,107.9245 L315.926,116.4073 L321.2988,125.9402 L325.4996,134.882 L330.1669,144.0589 L335.1583,153.3995 L339.0325,162.1764 L345.1307,172.0752 L348.3373,180.5155 L353.4683,189.9264 L358.834,199.4557 L362.8337,208.296 L367.6331,217.5396 L372.1299,226.6306 L376.784,235.801 " fill="none" style="stroke: #A9A9A9; stroke-width: 2.0;"/><polygon fill="none" points="292.058,83.377,292.1275,83.3861,291.3695,79.157,291.0187,74.9814,290.5353,70.7883,289.6158,66.538,289.3,62.367,289.282,62.3483,292.2529,65.2056,295.3145,68.157,298.439,71.1736,301.3465,73.9651,304.558,77.072,304.6411,77.2368,301.9634,78.1454,299.5283,79.5351,297.1228,80.9836,294.5451,82.0905,292.058,83.377" style="stroke: #A9A9A9; stroke-width: 2.0;"/><!--link Informacion to Software--><path d="M346.146,303.932 L346.3347,304.1392 L338.5614,310.0911 L331.8941,317.2577 L324.8666,324.0287 L316.6547,329.499 L310.0127,336.6932 L302.4869,342.917 L295.657,349.905 " fill="none" style="stroke: #A9A9A9; stroke-width: 2.0;"/><polygon fill="none" points="341.661,298.549,341.6884,298.6135,345.5072,296.7639,349.4866,295.2923,353.4137,293.6976,357.1688,291.6982,361.162,290.259,361.1392,290.2467,359.0219,293.9196,357.0195,297.6546,355.097,301.4328,352.8993,305.0622,351.087,308.9,351.2234,309.0243,349.0465,306.6883,347.2679,304.7152,345.5379,302.7863,343.5251,300.5999,341.661,298.549" style="stroke: #A9A9A9; stroke-width: 2.0;"/><!--link Informacion to Usuario--><path d="M380.145,309.584 L380.2347,309.6099 L379.3149,311.7938 L378.9211,314.1296 L378.356,316.4159 L377.2275,318.5395 L376.8789,320.8884 L376.846,320.8778 L375.9351,323.2042 L375.19,325.5839 L374.5601,328.0007 L373.5331,330.2898 L373.0623,332.7577 L373.2938,332.841 L371.9196,335.1075 L371.2213,337.6171 L370.6055,340.1563 L369.5098,342.523 L368.6666,344.9805 L368.6947,344.9919 L367.6527,347.4482 L366.7387,349.9563 L365.763,352.4394 L364.9051,354.9701 L363.6631,357.3455 L363.9342,357.4698 L362.8096,359.9305 L361.5101,362.311 L360.4665,364.8089 L359.435,367.3123 L358.0233,369.6413 L357.7395,369.4924 L357.0294,372.1845 L355.3848,374.3862 L354.4506,376.9607 L352.7848,379.1513 L351.7186,381.6566 L351.6926,381.6408 L350.6007,384.1323 L348.9008,386.2547 L347.5597,388.5949 L346.2487,390.9534 L344.7204,393.1799 L344.871,393.2874 L343.1749,395.3429 L341.7361,397.5821 L339.8811,399.5242 L338.647,401.9094 L337,404 L337.1866,404.1566 L335.6315,405.9375 L334.1691,407.7961 L332.2762,409.2933 L330.6988,411.0555 L329.401,413.0523 L329.2018,412.861 L327.7229,414.7618 L326.0195,416.447 L324.6416,418.4449 L322.7079,419.909 L321.1046,421.6903 L321.0009,421.5786 L319.4046,423.4061 L317.3649,424.7558 L315.6405,426.4452 L314.2246,428.4672 L312.2594,429.8971 L312.3838,430.0454 L310.6201,431.6988 L308.4692,432.8909 L306.8033,434.6608 L305.0317,436.3049 L303.0139,437.6556 L302.886,437.4891 L301.0885,439.0804 L299.2491,440.6173 L297.492,442.2613 L295.415,443.4887 L293.5167,444.9488 L293.6357,445.1165 L291.4542,446.1103 L289.5024,447.4278 L287.8861,449.218 L285.6521,450.1378 L283.9165,451.7599 L284.0411,451.9486 L282.0561,453.0989 L280.0289,454.1853 L278.0969,455.4158 L276.385,456.9795 L274.3617,458.0717 L274.2917,457.9586 L272.628,459.4545 L270.4881,460.1811 L268.8897,461.7824 L266.9864,462.8913 L265.001,463.8674 " fill="none" style="stroke: #A9A9A9; stroke-width: 2.0;"/><polygon fill="none" points="373.388,307.75,373.4466,307.7885,375.5994,304.1322,378.0954,300.7014,380.4797,297.1971,382.4965,293.4514,385.022,290.04,384.9962,290.0376,385.2704,294.2469,385.6747,298.4682,386.1694,302.6979,386.3525,306.8988,386.972,311.14,387.0167,311.3191,384.2043,310.2582,381.5224,309.72,378.8565,309.2457,376.0979,308.4003,373.388,307.75" style="stroke: #A9A9A9; stroke-width: 2.0;"/><!--link Software to Usuario--><path d="M254.574,404.259 L254.8273,404.3789 L249.7447,413.1728 L246.1469,422.6694 L242.0657,431.9372 L236.3942,440.4525 L232.8303,449.9651 L228.594,459.1595 " fill="none" style="stroke: #A9A9A9; stroke-width: 2.0;"/><polygon fill="#A9A9A9" points="226.348,463.9055,226.3937,463.9586,227.7509,462.5159,229.376,461.3846,230.9139,460.1518,232.1649,458.5857,233.813,457.481,233.8043,457.4567,232.6998,457.7282,231.6394,458.1226,230.6095,458.6026,229.4742,458.7879,228.4865,459.3859,228.6603,459.4481,227.9077,458.2499,227.6625,457.2331,227.4792,456.2385,226.9357,455.1151,226.5817,454.0594,226.6044,454.06,226.5243,456.0284,226.5477,457.9993,226.5212,459.969,226.5899,461.9409,226.348,463.9055" style="stroke: #A9A9A9; stroke-width: 2.0;"/><!--link SistemaComplejo to Hardware--><path d="M173.134,196.367 L173.2261,196.3826 L171.6111,204.2438 L170.5359,212.1966 L169.2849,220.1195 L167.4558,227.9444 L166.427,235.905 " fill="none" style="stroke: #A9A9A9; stroke-width: 2.0;"/><polygon fill="none" points="166.299,194.807,166.3603,194.8409,168.2273,191.0306,170.4538,187.419,172.5632,183.7426,174.2876,179.8536,176.545,176.259,176.5195,176.2547,177.1163,180.4129,177.8418,184.5931,178.6568,188.7886,179.1634,192.9315,180.102,197.148,180.1329,197.3299,177.3063,196.4727,174.5698,196.1466,171.8443,195.8854,169.0548,195.247,166.299,194.807" style="stroke: #A9A9A9; stroke-width: 2.0;"/><!--link Hardware to Software--><path d="M195.73,299.979 L195.9344,300.1707 L201.6453,306.3407 L208.5547,313.6343 L215.0738,320.562 L220.3094,326.2864 L227.2461,333.6056 L233.64,340.416 " fill="none" style="stroke: #A9A9A9; stroke-width: 2.0;"/><polygon fill="#A9A9A9" points="242.536,349.905,242.6022,349.928,241.7583,347.9992,241.3022,346.2054,240.7199,344.3677,239.7222,342.3854,239.2995,340.6031,239.2736,340.6023,239.1208,341.7293,239.0986,342.8606,239.167,343.9947,238.9228,345.1188,239.1166,346.257,239.1226,346.4415,237.979,346.0105,236.8529,346.118,235.7289,346.2912,234.5926,346.0822,233.4627,346.0742,233.4716,346.0951,235.2732,346.8305,237.1152,347.6613,238.9377,348.4461,240.7973,349.3187,242.536,349.905" style="stroke: #A9A9A9; stroke-width: 2.0;"/><path d="M239.1166,346.257 L239.1848,346.3209 L237.888,344.964 L236.9908,343.9816 L235.9635,342.8772 L234.5084,341.3717 L233.6455,340.4215 " fill="#A9A9A9" style="stroke: #A9A9A9; stroke-width: 2.0;"/><polygon fill="#A9A9A9" points="186.618,290.259,186.6871,290.2705,186.7189,291.6589,187.1557,293.1148,187.4607,294.5487,187.3318,295.9103,187.8035,297.372,187.7976,297.3468,189.1755,297.5619,190.5831,297.9041,192.0114,298.3348,193.3684,298.4608,194.8252,299.0135,195.0073,299.0438,194.3809,297.5564,194.286,296.1575,194.256,294.7694,193.8487,293.3184,193.6398,291.9005,193.645,291.9226,192.233,291.5618,190.8446,291.3018,189.4449,290.9932,188.0668,290.7774,186.618,290.259" style="stroke: #A9A9A9; stroke-width: 2.0;"/><!--link Hardware to Usuario--><path d="M170.992,303.081 L171.2651,303.1438 L172.7224,312.8177 L175.7808,322.86 L178.3177,332.7823 L179.1402,342.3101 L182.235,352.3607 L184.0506,362.1171 L186.3753,371.9905 L189.0538,381.9454 L190.5128,391.6196 L194.3994,401.8525 L195.1298,411.3591 L197.9606,421.349 L201.0477,431.3979 L202.6437,441.1037 L205.024,450.9899 " fill="none" style="stroke: #A9A9A9; stroke-width: 2.0;"/><polygon fill="#A9A9A9" points="207.972,463.8006,208.0408,463.814,208.2124,461.8407,208.7872,459.9458,209.2307,458.0254,209.2425,456.021,209.8519,454.1328,209.8299,454.1191,209.1312,455.0164,208.5431,455.983,208.032,456.9978,207.2556,457.8467,206.8508,458.9279,206.9487,459.0844,205.7803,458.1496,204.8977,457.6716,204.0501,457.2493,202.9995,456.5028,202.0556,455.9268,202.0738,455.9405,203.2304,457.4952,204.4698,459.1121,205.6692,460.699,206.9448,462.3431,207.972,463.8006" style="stroke: #A9A9A9; stroke-width: 2.0;"/><path d="M206.8508,458.9279 L206.9418,458.9489 L206.3126,457.3274 L206.217,455.8287 L205.9476,454.29 L205.1068,452.6198 L205.057,451.1316 " fill="#A9A9A9" style="stroke: #A9A9A9; stroke-width: 2.0;"/><polygon fill="#A9A9A9" points="168.067,290.367,168.1325,290.3918,167.4274,291.667,167.1063,293.0875,166.6602,294.4607,165.8027,295.6783,165.5146,297.1113,165.4969,297.0925,166.4658,297.9979,167.5244,298.9983,168.6453,300.0648,169.5515,300.9037,170.7585,302.0613,170.9311,302.1266,171.0725,300.638,171.7178,299.3402,172.4245,298.0657,172.7736,296.6557,173.3108,295.317,173.3264,295.3335,172.2548,294.3192,171.2541,293.3803,170.2192,292.405,169.2498,291.499,168.067,290.367" style="stroke: #A9A9A9; stroke-width: 2.0;"/><!--
@startuml
skinparam backgroundColor #222222
skinparam handwritten true
hide stereotype
hide circle
skinparam shadowing false
skinparam padding 1
skinparam arrow {
    Thickness 2
    Color #DarkGrey
    FontSize 20
    FontName courier
    FontStyle normal
    FontColor #DarkGrey
}
skinparam class {
    BorderThickness 3
    BorderColor #DarkGrey
    BackgroundColor #222222
    FontSize 20
    FontName courier
    FontStyle bold
    FontColor #DarkGrey
}


class Sistema
class "Sistema Complejo" as SistemaComplejo

Sistema <|-down- SistemaComplejo
SistemaComplejo <|-down- Software
class "Información" as Informacion
class Software
class "Sistema de Información del Usuario" as Usuario

SistemaComplejo <|-down- Usuario
Sistema <|-down- Informacion
Informacion <|-down- Software
Informacion <|-down- Usuario
Software -down-> Usuario

class Hardware
SistemaComplejo <|-down- Hardware

Hardware *-down-> Software
Hardware *-down-> Usuario

@enduml

PlantUML version 1.2019.05(Sat Apr 20 18:45:36 CEST 2019)
(GPL source distribution)
Java Runtime: Java(TM) SE Runtime Environment
JVM: Java HotSpot(TM) 64-Bit Server VM
Java Version: 11.0.8+10-LTS
Operating System: Windows 10
OS Version: 10.0
Default Encoding: windows-1252
Language: es
Country: ES
--></g></svg>