<?xml version="1.0" encoding="UTF-8" standalone="no"?><svg xmlns="http://www.w3.org/2000/svg" xmlns:xlink="http://www.w3.org/1999/xlink" contentScriptType="application/ecmascript" contentStyleType="text/css" height="409px" preserveAspectRatio="none" style="width:587px;height:409px;background:#222222;" version="1.1" viewBox="0 0 587 409" width="587px" zoomAndPan="magnify"><defs/><g><text fill="#A9A9A9" font-family="sans-serif" font-size="18" lengthAdjust="spacingAndGlyphs" textLength="403" x="111.5" y="19.6855">Acoplamiento eferente por niveles de dependencia</text><!--class UsadoAferente--><!--class Todo--><!--class Derivada--><!--class AsociadoAferente--><!--class Clase--><polygon fill="#222222" points="273,214.6406,273,214.8508,282.7143,214.2263,292.4286,214.8339,302.1429,215.0403,311.8571,213.9272,321.5714,214.5629,331.2857,214.2141,341,214.6406,340.6165,214.6406,340.9318,225.4633,340.3086,236.2859,341.5536,247.1086,340.3697,257.9313,341,268.7539,341,268.5561,331.2857,269.1859,321.5714,268.6681,311.8571,268.8221,302.1429,268.722,292.4286,268.9324,282.7143,268.993,273,268.7539,273.5857,268.7539,273.6711,257.9313,273.6793,247.1086,273.2546,236.2859,273.4636,225.4633,273,214.6406" style="stroke: #FFFFFF; stroke-width: 3.0;"/><text fill="#FFFFFF" font-family="courier" font-size="20" font-weight="bold" lengthAdjust="spacingAndGlyphs" textLength="60" x="277" y="240.748">Clase</text><path d="M274,252.7539 L274,253.0341 L283.4286,252.2015 L292.8571,253.0116 L302.2857,253.2868 L311.7143,251.8027 L321.1429,252.6503 L330.5714,252.1852 L340,252.7539 " fill="#222222" style="stroke: #FFFFFF; stroke-width: 3.0;"/><path d="M274,260.7539 L274,261.0341 L283.4286,260.2015 L292.8571,261.0116 L302.2857,261.2868 L311.7143,259.8027 L321.1429,260.6503 L330.5714,260.1852 L340,260.7539 " fill="#222222" style="stroke: #FFFFFF; stroke-width: 3.0;"/><!--class AsociadoEferente--><polygon fill="#222222" points="376,214.6406,376,214.8508,386,214.2263,396,214.8339,406,215.0403,416,213.9272,426,214.5629,436,214.2141,446,214.2571,456,214.5725,466,213.9493,476,215.1943,486,214.0103,496,214.4429,506,215.0726,516,214.5548,526,214.7089,536,214.6087,546,214.8192,556,214.8798,566,215.2263,576,214.6406,576.6711,214.6406,576.6793,225.4633,576.2546,236.2859,576.4636,247.1086,576.7022,257.9313,576,268.7539,576,268.0327,566,269.4324,556,268.4574,546,269.2877,536,268.2589,526,268.6854,516,269.4955,506,268.7052,496,268.8592,486,269.0925,476,269.1701,466,268.75,456,269.0411,446,268.1815,436,269.0383,426,269.3021,416,269.1984,406,269.3669,396,268.2708,386,268.1017,376,268.7539,375.3786,268.7539,375.9411,257.9313,375.8035,247.1086,376.6814,236.2859,375.8253,225.4633,376,214.6406" style="stroke: #DC143C; stroke-width: 3.0;"/><text fill="#DC143C" font-family="courier" font-size="20" font-weight="bold" lengthAdjust="spacingAndGlyphs" textLength="192" x="380" y="240.748">AsociadoEferente</text><path d="M377,252.7539 L377,253.0341 L386.9,252.2015 L396.8,253.0116 L406.7,253.2868 L416.6,251.8027 L426.5,252.6503 L436.4,252.1852 L446.3,252.2426 L456.2,252.663 L466.1,251.8321 L476,253.4921 L485.9,251.9135 L495.8,252.4902 L505.7,253.3298 L515.6,252.6395 L525.5,252.8449 L535.4,252.7113 L545.3,252.9919 L555.2,253.0728 L565.1,253.5348 L575,252.7539 " fill="#222222" style="stroke: #DC143C; stroke-width: 3.0;"/><path d="M377,260.7539 L377,261.0341 L386.9,260.2015 L396.8,261.0116 L406.7,261.2868 L416.6,259.8027 L426.5,260.6503 L436.4,260.1852 L446.3,260.2426 L456.2,260.663 L466.1,259.8321 L476,261.4921 L485.9,259.9135 L495.8,260.4902 L505.7,261.3298 L515.6,260.6395 L525.5,260.8449 L535.4,260.7113 L545.3,260.9919 L555.2,261.0728 L565.1,261.5348 L575,260.7539 " fill="#222222" style="stroke: #DC143C; stroke-width: 3.0;"/><!--class UsadoEferente--><polygon fill="#222222" points="376,344.6406,376,344.8508,386.25,344.2263,396.5,344.8339,406.75,345.0403,417,343.9272,427.25,344.5629,437.5,344.2141,447.75,344.2571,458,344.5725,468.25,343.9493,478.5,345.1943,488.75,344.0103,499,344.4429,509.25,345.0726,519.5,344.5548,529.75,344.7089,540,344.6406,539.9681,344.6406,540.1785,355.4633,540.2391,366.2859,540.5857,377.1086,540.6711,387.9313,540,398.7539,540,399.4332,529.75,399.0085,519.5,399.2175,509.25,399.4561,499,398.0327,488.75,399.4324,478.5,398.4574,468.25,399.2877,458,398.2589,447.75,398.6854,437.5,399.4955,427.25,398.7052,417,398.8592,406.75,399.0925,396.5,399.1701,386.25,398.75,376,398.7539,376.2872,398.7539,375.4276,387.9313,376.2844,377.1086,376.5482,366.2859,376.4445,355.4633,376,344.6406" style="stroke: #DC143C; stroke-width: 3.0;"/><text fill="#DC143C" font-family="courier" font-size="20" font-weight="bold" lengthAdjust="spacingAndGlyphs" textLength="156" x="380" y="370.748">UsadoEferente</text><path d="M377,382.7539 L377,383.0341 L387.125,382.2015 L397.25,383.0116 L407.375,383.2868 L417.5,381.8027 L427.625,382.6503 L437.75,382.1852 L447.875,382.2426 L458,382.663 L468.125,381.8321 L478.25,383.4921 L488.375,381.9135 L498.5,382.4902 L508.625,383.3298 L518.75,382.6395 L528.875,382.8449 L539,382.7539 " fill="#222222" style="stroke: #DC143C; stroke-width: 3.0;"/><path d="M377,390.7539 L377,391.0341 L387.125,390.2015 L397.25,391.0116 L407.375,391.2868 L417.5,389.8027 L427.625,390.6503 L437.75,390.1852 L447.875,390.2426 L458,390.663 L468.125,389.8321 L478.25,391.4921 L488.375,389.9135 L498.5,390.4902 L508.625,391.3298 L518.75,390.6395 L528.875,390.8449 L539,390.7539 " fill="#222222" style="stroke: #DC143C; stroke-width: 3.0;"/><!--class Parte--><polygon fill="#222222" points="273,344.6406,273,344.8508,282.7143,344.2263,292.4286,344.8339,302.1429,345.0403,311.8571,343.9272,321.5714,344.5629,331.2857,344.2141,341,344.6406,340.6165,344.6406,340.9318,355.4633,340.3086,366.2859,341.5536,377.1086,340.3697,387.9313,341,398.7539,341,398.5561,331.2857,399.1859,321.5714,398.6681,311.8571,398.8221,302.1429,398.722,292.4286,398.9324,282.7143,398.993,273,398.7539,273.5857,398.7539,273.6711,387.9313,273.6793,377.1086,273.2546,366.2859,273.4636,355.4633,273,344.6406" style="stroke: #DC143C; stroke-width: 3.0;"/><text fill="#DC143C" font-family="courier" font-size="20" font-weight="bold" lengthAdjust="spacingAndGlyphs" textLength="60" x="277" y="370.748">Parte</text><path d="M274,382.7539 L274,383.0341 L283.4286,382.2015 L292.8571,383.0116 L302.2857,383.2868 L311.7143,381.8027 L321.1429,382.6503 L330.5714,382.1852 L340,382.7539 " fill="#222222" style="stroke: #DC143C; stroke-width: 3.0;"/><path d="M274,390.7539 L274,391.0341 L283.4286,390.2015 L292.8571,391.0116 L302.2857,391.2868 L311.7143,389.8027 L321.1429,390.6503 L330.5714,390.1852 L340,390.7539 " fill="#222222" style="stroke: #DC143C; stroke-width: 3.0;"/><!--class Base--><polygon fill="#222222" points="182,344.6406,182,344.8508,191.3333,344.2263,200.6667,344.8339,210,345.0403,219.3333,343.9272,228.6667,344.5629,238,344.6406,237.5735,344.6406,237.6165,355.4633,237.9318,366.2859,237.3086,377.1086,238.5536,387.9313,238,398.7539,238,398.1236,228.6667,398.5561,219.3333,399.1859,210,398.6681,200.6667,398.8221,191.3333,398.722,182,398.7539,182.1785,398.7539,182.2391,387.9313,182.5857,377.1086,182.6711,366.2859,182.6793,355.4633,182,344.6406" style="stroke: #DC143C; stroke-width: 3.0;"/><text fill="#DC143C" font-family="courier" font-size="20" font-weight="bold" lengthAdjust="spacingAndGlyphs" textLength="48" x="186" y="370.748">Base</text><path d="M183,382.7539 L183,383.0341 L193.8,382.2015 L204.6,383.0116 L215.4,383.2868 L226.2,381.8027 L237,382.7539 " fill="#222222" style="stroke: #DC143C; stroke-width: 3.0;"/><path d="M183,390.7539 L183,391.0341 L193.8,390.2015 L204.6,391.0116 L215.4,391.2868 L226.2,389.8027 L237,390.7539 " fill="#222222" style="stroke: #DC143C; stroke-width: 3.0;"/><!--link Clase to Base--><path d="M282,268.7316 L282.0694,268.7941 L280.5028,270.1206 L279.3433,271.8134 L278.0513,273.3869 L276.3232,274.5682 L275.1987,276.2924 L275.1726,276.2697 L273.6707,277.7614 L272.3001,279.3672 L271.0209,281.0525 L269.4269,282.4641 L268.2739,284.259 L268.463,284.4165 L266.6963,285.7158 L265.4816,287.4748 L264.3344,289.2899 L262.7952,290.7787 L261.4621,292.4392 L261.486,292.4579 L260.1586,294.0707 L258.9396,295.7689 L257.6683,297.4258 L256.4969,299.1614 L255,300.6406 L255.2412,300.816 L253.3431,303.4332 L251.2894,305.9373 L249.4634,308.607 L247.6481,311.2844 L245.4946,313.716 L245.2289,313.5367 L243.9181,316.592 L241.7323,319.0569 L240.2117,321.9707 L238.0061,324.4223 L236.362,327.2526 " fill="none" style="stroke: #DC143C; stroke-width: 2.0;"/><polygon fill="none" points="242.127,331.2313,242.1705,331.2863,238.7169,333.7513,235.5182,336.5384,232.2364,339.2207,228.6819,341.5579,225.505,344.3727,225.4798,344.3669,226.3263,340.2127,227.3001,336.0881,228.3623,331.9841,229.1197,327.8093,230.304,323.7336,230.4028,323.8895,232.5561,325.0557,234.9979,326.677,237.4749,328.3538,239.7471,329.7076,242.127,331.2313" style="stroke: #DC143C; stroke-width: 2.0;"/><!--link Derivada to Clase--><!--link Todo to Clase--><!--link Clase to Parte--><path d="M307,282.1406 L307.2802,282.1406 L306.4476,291.9997 L307.2577,301.8587 L307.5329,311.7178 L306.0488,321.5769 L307,331.4359 " fill="none" style="stroke: #DC143C; stroke-width: 2.0;"/><polygon fill="#DC143C" points="307,344.4641,307.064,344.4926,307.6738,342.608,308.6589,340.8903,309.5217,339.1182,309.9827,337.1675,311,335.4641,310.9817,335.4458,310.0995,336.1636,309.3096,336.9737,308.5839,337.8481,307.637,338.5012,307,339.4641,307.1305,339.5946,306.0514,338.5156,305.3534,337.8175,304.7018,337.1659,303.7798,336.2439,303,335.4641,303.0208,335.4734,303.7903,337.2598,304.6544,339.0883,305.4728,340.8965,306.3784,342.7434,307,344.4641" style="stroke: #DC143C; stroke-width: 2.0;"/><path d="M307,339.4641 L307.0934,339.4641 L306.8159,337.8641 L307.0859,336.2641 L307.1776,334.6641 L306.6829,333.0641 L307,331.4641 " fill="#DC143C" style="stroke: #DC143C; stroke-width: 2.0;"/><polygon fill="#DC143C" points="307,268.8526,307.0583,268.8915,306.0851,269.976,305.4536,271.2884,304.7109,272.5265,303.6021,273.5207,303,274.8526,302.9784,274.8383,303.6817,275.9738,304.4936,277.1817,305.3811,278.44,306.0082,279.5248,307,280.8526,307.1536,280.955,307.6252,279.5361,308.5451,278.4161,309.5198,277.3325,310.1762,276.0368,311,274.8526,311.0189,274.8652,310.1911,273.6467,309.4495,272.4856,308.6663,271.2968,307.9624,270.1609,307,268.8526" style="stroke: #DC143C; stroke-width: 2.0;"/><!--link UsadoAferente to Clase--><!--link Clase to UsadoEferente--><path d="M333.249,268.8496 L333.3132,268.9174 L335.6606,271.1205 L338.3845,273.721 L340.9858,276.1922 L343.1837,278.2375 L345.94,280.8723 L345.9169,280.8466 L348.4251,283.0851 L351.0499,285.453 L353.7557,287.9108 L356.1823,290.0587 L359,292.6406 L359.1595,292.828 L361.786,294.9533 L364.8783,297.6256 L368.0273,300.3647 L370.8457,302.7155 L373.8381,305.2705 L373.8573,305.2939 L376.896,307.7737 L380.0223,310.3603 L383.1064,312.8954 L386.271,315.5288 L389.173,317.8417 L389.3588,318.075 L392.4024,320.5003 L395.3262,322.7752 L398.4254,325.2703 L401.5328,327.7757 L404.3797,329.954 L404.1828,329.7011 L407.4556,332.4426 L410.0801,334.3513 L413.1974,336.8931 L415.8072,338.783 L418.833,341.2072 " fill="none" style="stroke: #DC143C; stroke-width: 2.0; stroke-dasharray: 7.0,7.0;"/><polygon fill="#DC143C" points="422.963,344.3818,423.0246,344.4152,421.9021,342.5847,421.1405,340.9501,420.2614,339.2516,418.9958,337.3434,418.2652,335.7256,418.2395,335.7222,418.271,336.8289,418.4319,337.9526,418.6828,339.0881,418.6236,340.1829,418.9988,341.3347,419.0228,341.5176,417.8498,341.2731,416.7466,341.5627,415.652,341.9176,414.5078,341.8932,413.3897,342.0683,413.3951,342.0904,415.3019,342.5206,417.233,343.0515,419.1524,343.5339,421.0942,344.1089,422.963,344.3818" style="stroke: #DC143C; stroke-width: 2.0;"/><!--link AsociadoAferente to Clase--><!--link Clase to AsociadoEferente--><path d="M341.328,241.6406 L341.328,241.734 L347.1964,241.4565 L353.0648,241.7265 L358.9332,241.8183 L364.8016,241.3236 L370.67,241.6406 " fill="none" style="stroke: #DC143C; stroke-width: 2.0;"/><polygon fill="#DC143C" points="375.785,241.6406,375.8135,241.7046,373.9289,240.7144,372.2112,240.0995,370.4391,239.3624,368.4884,238.2233,366.785,237.6406,366.7667,237.6223,367.4845,238.3401,368.2946,239.1502,369.1689,240.0246,369.822,240.6777,370.785,241.6406,370.9155,241.7711,369.8364,242.2921,369.1384,243.194,368.4868,244.1424,367.5648,244.8204,366.785,245.6406,366.7942,245.6614,368.5807,244.8309,370.4092,244.095,372.2174,243.3135,374.0643,242.619,375.785,241.6406" style="stroke: #DC143C; stroke-width: 2.0;"/><!--
@startuml

title Acoplamiento eferente por niveles de dependencia
skinparam titleFontColor #a9a9a9
skinparam backgroundColor #222222
skinparam handwritten true
hide circle
hide stereotype
skinparam shadowing false
skinparam padding 1
skinparam arrow {
    Thickness 2
    Color #DC143C
    FontSize 20
    FontName courier
    FontStyle normal
    FontColor #DC143C
}
skinparam class {
    BorderThickness 3
    BorderColor<<a>> #228B22
    BorderColor<<b>> #DC143C
    BorderColor<<c>> #FFFFFF
    BackgroundColor #222222
    FontSize 20
    FontName courier
    FontStyle bold
    FontColor<<a>> #228B22
    FontColor<<b>> #DC143C
    FontColor<<c>> #FFFFFF
}

together {
class UsadoAferente <<a>>
class Todo <<a>>
class Derivada <<a>>
}

together {
class AsociadoAferente <<a>>
class Clase  <<c>>
class AsociadoEferente <<b>>
}

together {
class UsadoEferente <<b>>
class Parte <<b>>
class Base <<b>>
}

Base <|-up- Clase #DC143C
Clase <|-up- Derivada #228B22

Todo *-down-> Clase #228B22
Clase *-down-> Parte #DC143C

UsadoAferente .down.> Clase #228B22
Clase .down.> UsadoEferente #DC143C

AsociadoAferente -right-> Clase #228B22
Clase -right-> AsociadoEferente #DC143C

hide Derivada
hide Todo
hide AsociadoAferente
hide UsadoAferente
@enduml

PlantUML version 1.2019.05(Sat Apr 20 18:45:36 CEST 2019)
(GPL source distribution)
Java Runtime: Java(TM) SE Runtime Environment
JVM: Java HotSpot(TM) 64-Bit Server VM
Java Version: 11.0.8+10-LTS
Operating System: Windows 10
OS Version: 10.0
Default Encoding: windows-1252
Language: es
Country: ES
--></g></svg>