<?xml version="1.0" encoding="UTF-8" standalone="no"?><svg xmlns="http://www.w3.org/2000/svg" xmlns:xlink="http://www.w3.org/1999/xlink" contentScriptType="application/ecmascript" contentStyleType="text/css" height="487px" preserveAspectRatio="none" style="width:395px;height:487px;background:#222222;" version="1.1" viewBox="0 0 395 487" width="395px" zoomAndPan="magnify"><defs/><g><text fill="#A9A9A9" font-family="sans-serif" font-size="18" lengthAdjust="spacingAndGlyphs" textLength="253" x="90.5" y="19.6855">Acoplamiento aferente estandar</text><!--class UsadoAferente--><polygon fill="#222222" points="274,84.6406,274,84.8508,284.4,84.2263,294.8,84.8339,305.2,85.0403,315.6,83.9272,326,84.5629,336.4,84.2141,346.8,84.2571,357.2,84.5725,367.6,83.9493,378,84.6406,378.5536,84.6406,377.3697,94.6689,377.8022,104.6973,378.4319,114.7256,377.9142,124.7539,378.0682,134.7822,377.9681,144.8105,378.1785,154.8389,378,164.8672,378,165.1063,367.6,165.4529,357.2,165.5382,346.8,165.5464,336.4,165.1218,326,165.3308,315.6,165.5694,305.2,164.146,294.8,165.5457,284.4,164.5707,274,164.8672,274.5338,164.8672,273.505,154.8389,273.9315,144.8105,274.7416,134.7822,273.9513,124.7539,274.1053,114.7256,274.3386,104.6973,274.4162,94.6689,274,84.6406" style="stroke: #228B22; stroke-width: 3.0;"/><text fill="#228B22" font-family="courier" font-size="20" font-weight="bold" lengthAdjust="spacingAndGlyphs" textLength="60" x="296" y="110.748">Usado</text><text fill="#228B22" font-family="courier" font-size="20" font-weight="bold" lengthAdjust="spacingAndGlyphs" textLength="96" x="278" y="136.8613">Aferente</text><path d="M275,148.8672 L275,149.1474 L285.2,148.3148 L295.4,149.1249 L305.6,149.4001 L315.8,147.916 L326,148.7636 L336.2,148.2985 L346.4,148.3559 L356.6,148.7763 L366.8,147.9454 L377,148.8672 " fill="#222222" style="stroke: #228B22; stroke-width: 3.0;"/><path d="M275,156.8672 L275,157.1474 L285.2,156.3148 L295.4,157.1249 L305.6,157.4001 L315.8,155.916 L326,156.7636 L336.2,156.2985 L346.4,156.3559 L356.6,156.7763 L366.8,155.9454 L377,156.8672 " fill="#222222" style="stroke: #228B22; stroke-width: 3.0;"/><!--class Todo--><polygon fill="#222222" points="183,97.6406,183,97.8508,192.3333,97.2263,201.6667,97.8339,211,98.0403,220.3333,96.9272,229.6667,97.5629,239,97.6406,238.5735,97.6406,238.6165,108.4633,238.9318,119.2859,238.3086,130.1086,239.5536,140.9313,239,151.7539,239,151.1236,229.6667,151.5561,220.3333,152.1859,211,151.6681,201.6667,151.8221,192.3333,151.722,183,151.7539,183.1785,151.7539,183.2391,140.9313,183.5857,130.1086,183.6711,119.2859,183.6793,108.4633,183,97.6406" style="stroke: #228B22; stroke-width: 3.0;"/><text fill="#228B22" font-family="courier" font-size="20" font-weight="bold" lengthAdjust="spacingAndGlyphs" textLength="48" x="187" y="123.748">Todo</text><path d="M184,135.7539 L184,136.0341 L194.8,135.2015 L205.6,136.0116 L216.4,136.2868 L227.2,134.8027 L238,135.7539 " fill="#222222" style="stroke: #228B22; stroke-width: 3.0;"/><path d="M184,143.7539 L184,144.0341 L194.8,143.2015 L205.6,144.0116 L216.4,144.2868 L227.2,142.8027 L238,143.7539 " fill="#222222" style="stroke: #228B22; stroke-width: 3.0;"/><!--class Base--><!--class AsociadoAferente--><polygon fill="#222222" points="38,240.6406,38,240.8508,48.4,240.2263,58.8,240.8339,69.2,241.0403,79.6,239.9272,90,240.5629,100.4,240.2141,110.8,240.2571,121.2,240.5725,131.6,239.9493,142,240.6406,142.5536,240.6406,141.3697,250.6689,141.8022,260.6973,142.4319,270.7256,141.9142,280.7539,142.0682,290.7822,141.9681,300.8105,142.1785,310.8389,142,320.8672,142,321.1063,131.6,321.4529,121.2,321.5382,110.8,321.5464,100.4,321.1218,90,321.3308,79.6,321.5694,69.2,320.146,58.8,321.5457,48.4,320.5707,38,320.8672,38.5338,320.8672,37.505,310.8389,37.9315,300.8105,38.7416,290.7822,37.9513,280.7539,38.1053,270.7256,38.3386,260.6973,38.4162,250.6689,38,240.6406" style="stroke: #228B22; stroke-width: 3.0;"/><text fill="#228B22" font-family="courier" font-size="20" font-weight="bold" lengthAdjust="spacingAndGlyphs" textLength="96" x="42" y="266.748">Asociado</text><text fill="#228B22" font-family="courier" font-size="20" font-weight="bold" lengthAdjust="spacingAndGlyphs" textLength="96" x="42" y="292.8613">Aferente</text><path d="M39,304.8672 L39,305.1474 L49.2,304.3148 L59.4,305.1249 L69.6,305.4001 L79.8,303.916 L90,304.7636 L100.2,304.2985 L110.4,304.3559 L120.6,304.7763 L130.8,303.9454 L141,304.8672 " fill="#222222" style="stroke: #228B22; stroke-width: 3.0;"/><path d="M39,312.8672 L39,313.1474 L49.2,312.3148 L59.4,313.1249 L69.6,313.4001 L79.8,311.916 L90,312.7636 L100.2,312.2985 L110.4,312.3559 L120.6,312.7763 L130.8,311.9454 L141,312.8672 " fill="#222222" style="stroke: #228B22; stroke-width: 3.0;"/><!--class Clase--><polygon fill="#222222" points="177,253.6406,177,253.8508,186.7143,253.2263,196.4286,253.8339,206.1429,254.0403,215.8571,252.9272,225.5714,253.5629,235.2857,253.2141,245,253.6406,244.6165,253.6406,244.9318,264.4633,244.3086,275.2859,245.5536,286.1086,244.3697,296.9313,245,307.7539,245,307.5561,235.2857,308.1859,225.5714,307.6681,215.8571,307.8221,206.1429,307.722,196.4286,307.9324,186.7143,307.993,177,307.7539,177.5857,307.7539,177.6711,296.9313,177.6793,286.1086,177.2546,275.2859,177.4636,264.4633,177,253.6406" style="stroke: #A9A9A9; stroke-width: 3.0;"/><text fill="#A9A9A9" font-family="courier" font-size="20" font-weight="bold" lengthAdjust="spacingAndGlyphs" textLength="60" x="181" y="279.748">Clase</text><path d="M178,291.7539 L178,292.0341 L187.4286,291.2015 L196.8571,292.0116 L206.2857,292.2868 L215.7143,290.8027 L225.1429,291.6503 L234.5714,291.1852 L244,291.7539 " fill="#222222" style="stroke: #A9A9A9; stroke-width: 3.0;"/><path d="M178,299.7539 L178,300.0341 L187.4286,299.2015 L196.8571,300.0116 L206.2857,300.2868 L215.7143,298.8027 L225.1429,299.6503 L234.5714,299.1852 L244,299.7539 " fill="#222222" style="stroke: #A9A9A9; stroke-width: 3.0;"/><!--class AsociadoEferente--><!--class UsadoEferente--><!--class Parte--><!--class Derivada--><polygon fill="#222222" points="38,409.6406,38,409.8508,48.4,409.2263,58.8,409.8339,69.2,410.0403,79.6,408.9272,90,409.5629,100.4,409.2141,110.8,409.2571,121.2,409.5725,131.6,408.9493,142,409.6406,142.5536,409.6406,141.3697,420.4633,141.8022,431.2859,142.4319,442.1086,141.9142,452.9313,142,463.7539,142,463.8221,131.6,463.722,121.2,463.9324,110.8,463.993,100.4,464.3396,90,464.425,79.6,464.4332,69.2,464.0085,58.8,464.2175,48.4,464.4561,38,463.7539,37.2788,463.7539,38.6785,452.9313,37.7035,442.1086,38.5338,431.2859,37.505,420.4633,38,409.6406" style="stroke: #228B22; stroke-width: 3.0;"/><text fill="#228B22" font-family="courier" font-size="20" font-weight="bold" lengthAdjust="spacingAndGlyphs" textLength="96" x="42" y="435.748">Derivada</text><path d="M39,447.7539 L39,448.0341 L49.2,447.2015 L59.4,448.0116 L69.6,448.2868 L79.8,446.8027 L90,447.6503 L100.2,447.1852 L110.4,447.2426 L120.6,447.663 L130.8,446.8321 L141,447.7539 " fill="#222222" style="stroke: #228B22; stroke-width: 3.0;"/><path d="M39,455.7539 L39,456.0341 L49.2,455.2015 L59.4,456.0116 L69.6,456.2868 L79.8,454.8027 L90,455.6503 L100.2,455.1852 L110.4,455.2426 L120.6,455.663 L130.8,454.8321 L141,455.7539 " fill="#222222" style="stroke: #228B22; stroke-width: 3.0;"/><!--link Base to Clase--><!--link Clase to Derivada--><path d="M177.98,323.6706 L178.2004,323.8438 L171.4229,331.1221 L165.9372,339.4153 L160.0309,347.378 L152.7411,354.2539 L147.2849,362.5702 L140.7965,370.0757 L134.7188,377.9038 L128.9267,385.9563 L122.1506,393.2357 L117.3332,402.054 L110.63,409.3906 " fill="none" style="stroke: #228B22; stroke-width: 2.0;"/><polygon fill="none" points="172.61,319.1706,172.6477,319.2297,176.1076,316.7722,179.7887,314.6609,183.3977,312.4369,186.77,309.8422,190.47,307.7606,190.4455,307.7523,188.9655,311.7267,187.609,315.7433,186.3385,319.7893,184.7719,323.7342,183.62,327.8206,183.734,327.9657,181.2882,325.9254,179.1753,324.3088,177.103,322.7438,174.7943,320.8781,172.61,319.1706" style="stroke: #228B22; stroke-width: 2.0;"/><!--link Todo to Clase--><path d="M211,164.9806 L211.2802,164.9806 L210.4476,174.3869 L211.2577,183.7931 L211.5329,193.1994 L210.0488,202.6056 L210.8964,212.0119 L210.4313,221.4181 L210.4887,230.8244 L211,240.2306 " fill="none" style="stroke: #228B22; stroke-width: 2.0;"/><polygon fill="#228B22" points="211,253.3906,211.064,253.4191,211.6738,251.5345,212.6589,249.8168,213.5217,248.0447,213.9827,246.094,215,244.3906,214.9817,244.3723,214.0995,245.0901,213.3096,245.9002,212.5839,246.7746,211.637,247.4277,211,248.3906,211.1305,248.5211,210.0514,247.4421,209.3534,246.744,208.7018,246.0924,207.7798,245.1704,207,244.3906,207.0208,244.3999,207.7903,246.1863,208.6544,248.0148,209.4728,249.823,210.3784,251.6699,211,253.3906" style="stroke: #228B22; stroke-width: 2.0;"/><path d="M211,248.3906 L211.0934,248.3906 L210.8159,246.7906 L211.0859,245.1906 L211.1776,243.5906 L210.6829,241.9906 L211,240.3906 " fill="#228B22" style="stroke: #228B22; stroke-width: 2.0;"/><polygon fill="#228B22" points="211,151.7606,211.0583,151.7995,210.0851,152.884,209.4536,154.1964,208.7109,155.4345,207.6021,156.4287,207,157.7606,206.9784,157.7463,207.6817,158.8818,208.4936,160.0897,209.3811,161.348,210.0082,162.4328,211,163.7606,211.1536,163.863,211.6252,162.4441,212.5451,161.3241,213.5198,160.2405,214.1762,158.9448,215,157.7606,215.0189,157.7732,214.1911,156.5547,213.4495,155.3936,212.6663,154.2048,211.9624,153.0689,211,151.7606" style="stroke: #228B22; stroke-width: 2.0;"/><!--link Clase to Parte--><!--link UsadoAferente to Clase--><path d="M289.15,164.8306 L289.2205,164.8919 L287.6679,166.2548 L286.5286,167.977 L285.2547,169.5823 L283.5382,170.8027 L282.4344,172.5558 L282.4079,172.5335 L280.95,174.0255 L279.6252,175.6295 L278.3931,177.3114 L276.8418,178.7248 L275.7375,180.5144 L275.9288,180.6691 L274.2141,181.952 L273.0579,183.6868 L271.9699,185.4767 L270.4854,186.9458 L269.2094,188.5836 L269.2334,188.6021 L267.9563,190.1863 L266.7885,191.8548 L265.5679,193.4827 L264.4481,195.1881 L263,196.6406 L263.2423,196.8146 L261.3832,199.4105 L259.3679,201.8942 L257.5814,204.5422 L255.8055,207.1979 L253.69,209.6097 L253.4237,209.4313 L252.134,212.4737 L249.9675,214.9287 L248.4676,217.8303 L246.2812,220.272 L244.6575,223.0906 L244.6318,223.0743 L243.238,225.9396 L241.2437,228.4234 L239.6038,231.1323 L237.9935,233.8601 L236.1688,236.4516 L236.3267,236.5478 L234.6315,238.9725 L233.2063,241.5616 L231.3442,243.8847 L230.1337,246.6046 L228.49,249.0606 " fill="none" style="stroke: #228B22; stroke-width: 2.0; stroke-dasharray: 7.0,7.0;"/><polygon fill="#228B22" points="225.87,253.4806,225.9105,253.5378,227.3978,252.2297,229.1225,251.2568,230.7699,250.1748,232.1632,248.7338,233.9082,247.7896,233.9018,247.7645,232.7767,247.9305,231.6837,248.2231,230.6131,248.6037,229.4654,248.6811,228.4257,249.1831,228.6045,249.2286,227.9433,248.0349,227.8044,246.9739,227.7291,245.9291,227.2832,244.79,227.0322,243.7006,227.0548,243.7033,226.7892,245.6553,226.6264,247.6196,226.414,249.578,226.2963,251.5477,225.87,253.4806" style="stroke: #228B22; stroke-width: 2.0;"/><!--link Clase to UsadoEferente--><!--link AsociadoAferente to Clase--><path d="M142.46,280.6406 L142.46,280.734 L148.298,280.4565 L154.136,280.7265 L159.974,280.8183 L165.812,280.3236 L171.65,280.6406 " fill="none" style="stroke: #228B22; stroke-width: 2.0;"/><polygon fill="#228B22" points="176.73,280.6406,176.7585,280.7046,174.8739,279.7144,173.1562,279.0995,171.3841,278.3624,169.4334,277.2233,167.73,276.6406,167.7117,276.6223,168.4295,277.3401,169.2396,278.1502,170.1139,279.0246,170.767,279.6777,171.73,280.6406,171.8605,280.7711,170.7814,281.2921,170.0834,282.194,169.4318,283.1424,168.5098,283.8204,167.73,284.6406,167.7392,284.6614,169.5257,283.8309,171.3542,283.095,173.1624,282.3135,175.0093,281.619,176.73,280.6406" style="stroke: #228B22; stroke-width: 2.0;"/><!--link Clase to AsociadoEferente--><!--
@startuml
title Acoplamiento aferente estandar
skinparam titleFontColor #a9a9a9
skinparam backgroundColor #222222
skinparam handwritten true
hide circle
hide stereotype
skinparam shadowing false
skinparam padding 1
skinparam arrow {
    Thickness 2
    Color #DC143C
    FontSize 20
    FontName courier
    FontStyle normal
    FontColor #DC143C
}
skinparam class {
    BorderThickness 3
    BorderColor<<a>> #228B22
    BorderColor<<b>> #DC143C
    BorderColor<<c>> #DarkGrey
    BackgroundColor #222222
    FontSize 20
    FontName courier
    FontStyle bold
    FontColor<<a>> #228B22
    FontColor<<b>> #DC143C
    FontColor<<c>> #DarkGrey
}

together {
class "Usado\nAferente" as UsadoAferente<<a>>
class Todo <<a>>
class Base <<b>>
}

together {
class "Asociado\nAferente" as AsociadoAferente<<a>>
class Clase  <<c>>
class "Asociado\nEferente" as AsociadoEferente<<b>>
}

together {
class "Usado\nEferente" as UsadoEferente<<b>>
class Parte <<b>>
class Derivada <<a>>
}

Base <|-down- Clase #DC143C
Clase <|-down- Derivada #228B22

Todo *-down-> Clase #228B22
Clase *-down-> Parte #DC143C

UsadoAferente .down.> Clase #228B22
Clase .down.> UsadoEferente #DC143C

AsociadoAferente -right-> Clase #228B22
Clase -right-> AsociadoEferente #DC143C

hide Base
hide Parte
hide AsociadoEferente
hide UsadoEferente
@enduml

PlantUML version 1.2019.05(Sat Apr 20 18:45:36 CEST 2019)
(GPL source distribution)
Java Runtime: Java(TM) SE Runtime Environment
JVM: Java HotSpot(TM) 64-Bit Server VM
Java Version: 11.0.14+8-LTS-263
Operating System: Windows 10
OS Version: 10.0
Default Encoding: windows-1252
Language: es
Country: ES
--></g></svg>