<?xml version="1.0" encoding="UTF-8" standalone="no"?><svg xmlns="http://www.w3.org/2000/svg" xmlns:xlink="http://www.w3.org/1999/xlink" contentScriptType="application/ecmascript" contentStyleType="text/css" height="747px" preserveAspectRatio="none" style="width:859px;height:747px;background:#222222;" version="1.1" viewBox="0 0 859 747" width="859px" zoomAndPan="magnify"><defs/><g><polygon fill="#222222" points="390.0552,20.4324,388.5894,22.4353,386.8556,25.3688,384.376,27.3458,381.7703,28.4269,379.6927,28.5207,377.0224,27.1687,374.5029,26.2854,372.5905,24.492,371.5873,22.4389,370.9924,20.8041,370.4096,18.6688,369.4636,16.8313,370.1906,15.0373,370.8275,13.072,373.2175,11.5177,374.8991,9.501,376.9804,8.8313,379.4547,8.2546,382.6276,8.5972,384.3655,9.4168,386.3861,9.7884,388.8429,12.3054,389.6993,14.9627,390.0714,16.7758,389.65,19.7635" style="stroke: none; stroke-width: 1.0;"/><polygon fill="#222222" points="237.5,98,237.5,98.2102,247.3276,97.5857,257.1552,98.1933,266.9828,98.3997,276.8103,97.2866,286.6379,97.9223,296.4655,97.5735,306.2931,97.6165,316.1207,97.9318,325.9483,97.3086,335.7759,98.5536,345.6034,97.3697,355.431,97.8022,365.2586,98.4319,375.0862,97.9142,384.9138,98.0682,394.7414,97.9681,404.569,98.1785,414.3966,98.2391,424.2241,98.5857,434.0517,98.6711,443.8793,98.6793,453.7069,98.2546,463.5345,98.4636,473.3621,98.7022,483.1897,97.2788,493.0172,98.6785,502.8448,97.7035,512.6724,98.5338,522.5,98,522.4369,97.8476,524.259,98.7111,526.1301,99.6929,527.7971,100.1817,529.5845,100.9614,531.3388,101.6612,531.4431,101.7044,532.1993,103.482,532.8021,105.1962,533.624,107.0011,534.0915,108.6592,535,110.5,535.0948,110.5,535.1827,115.1227,535.1482,119.7453,535.2043,124.368,534.839,128.9906,535,133.6133,534.7992,133.5301,534.0764,135.3018,533.5174,137.1413,532.7428,138.8915,532.2809,140.7713,531.3388,142.4521,531.3166,142.3983,529.5273,143.0787,527.8324,143.9869,525.9505,144.4435,524.2015,145.2212,522.5,146.1133,522.5,146.7622,512.6724,146.5489,502.8448,146.8478,493.0172,145.7915,483.1897,146.4325,473.3621,146.7037,463.5345,145.6409,453.7069,146.0174,443.8793,146.2393,434.0517,146.765,424.2241,146.1091,414.3966,146.5758,404.569,145.5595,394.7414,145.436,384.9138,146.6169,375.0862,145.3963,365.2586,146.6222,355.431,146.3199,345.6034,145.8454,335.7759,145.7595,325.9483,146.572,316.1207,145.8139,306.2931,146.7051,296.4655,145.5605,286.6379,146.7307,276.8103,146.5976,266.9828,146.3582,257.1552,146.1605,247.3276,146.8399,237.5,146.1133,237.5783,146.3022,235.7538,145.4332,233.9987,144.7314,232.1801,143.8765,230.5203,143.405,228.6612,142.4521,228.7089,142.4719,227.9821,140.7064,227.0094,138.839,226.3397,137.0971,225.8957,135.4488,225,133.6133,225.1433,133.6133,224.9857,128.9906,224.8926,124.368,224.927,119.7453,224.7713,115.1227,225,110.5,225.1277,110.5529,225.96,108.8266,226.6266,107.0316,227.4107,105.2853,227.8868,103.4115,228.6612,101.6612,228.6723,101.688,230.3795,100.8096,232.2329,100.2842,233.9959,99.5405,235.8027,98.9023,237.5,98" style="stroke: #A9A9A9; stroke-width: 1.5;"/><text fill="#A9A9A9" font-family="courier" font-size="20" font-weight="bold" lengthAdjust="spacingAndGlyphs" textLength="288" x="236" y="129.1074">Lexical Analysis/Scanner</text><polygon fill="#222222" points="249.5,216,249.5,216.2102,259.5385,215.5857,269.5769,216.1933,279.6154,216.3997,289.6538,215.2866,299.6923,215.9223,309.7308,215.5735,319.7692,215.6165,329.8077,215.9318,339.8462,215.3086,349.8846,216.5536,359.9231,215.3697,369.9615,215.8022,380,216.4319,390.0385,215.9142,400.0769,216.0682,410.1154,215.9681,420.1538,216.1785,430.1923,216.2391,440.2308,216.5857,450.2692,216.6711,460.3077,216.6793,470.3462,216.2546,480.3846,216.4636,490.4231,216.7022,500.4615,215.2788,510.5,216,510.5866,216.209,512.2299,216.6409,514.1036,217.6289,515.7402,218.0443,517.5623,218.9078,519.3388,219.6612,519.5672,219.7558,520.0561,221.4227,520.8357,223.2101,521.6398,225.0077,522.3959,226.7853,523,228.5,522.9987,228.5,523.0957,233.1227,522.8092,237.7453,523.0948,242.368,523.1827,246.9906,523,251.6133,523.1369,251.67,522.4566,253.4592,521.3868,255.0872,520.6025,256.8334,519.8797,258.6051,519.3388,260.4521,519.3313,260.434,517.546,261.1238,515.8902,262.1264,514.0133,262.595,512.224,263.2754,510.5,264.1133,510.5,264.3415,500.4615,263.4464,490.4231,263.5942,480.3846,264.7622,470.3462,264.5489,460.3077,264.8478,450.2692,263.7915,440.2308,264.4325,430.1923,264.7037,420.1538,263.6409,410.1154,264.0174,400.0769,264.2393,390.0385,264.765,380,264.1091,369.9615,264.5758,359.9231,263.5595,349.8846,263.436,339.8462,264.6169,329.8077,263.3963,319.7692,264.6222,309.7308,264.3199,299.6923,263.8454,289.6538,263.7595,279.6154,264.572,269.5769,263.8139,259.5385,264.7051,249.5,264.1133,249.4295,263.9431,247.811,263.5712,246.0262,262.798,244.2279,261.992,242.435,261.1989,240.6612,260.4521,240.8849,260.5448,240.1179,258.7626,239.2488,256.9382,238.5471,255.183,237.6921,253.3644,237,251.6133,237.2388,251.6133,237.0516,246.9906,237.0575,242.368,236.7972,237.7453,236.8649,233.1227,237,228.5,237.1634,228.5677,237.8646,226.7871,238.4512,224.959,239.0975,223.1556,239.8615,221.401,240.6612,219.6612,240.5736,219.4499,242.4818,219.0567,244.291,218.4245,246.0316,217.6266,247.8209,216.9462,249.5,216" style="stroke: #A9A9A9; stroke-width: 1.5;"/><text fill="#A9A9A9" font-family="courier" font-size="20" font-weight="bold" lengthAdjust="spacingAndGlyphs" textLength="264" x="248" y="247.1074">Syntax Analysis/Parser</text><polygon fill="#222222" points="279.5,334,279.5,334.2102,289.55,333.5857,299.6,334.1933,309.65,334.3997,319.7,333.2866,329.75,333.9223,339.8,333.5735,349.85,333.6165,359.9,333.9318,369.95,333.3086,380,334.5536,390.05,333.3697,400.1,333.8022,410.15,334.4319,420.2,333.9142,430.25,334.0682,440.3,333.9681,450.35,334.1785,460.4,334.2391,470.45,334.5857,480.5,334,480.5856,334.2067,482.3544,334.9414,484.068,335.5429,485.8624,336.3395,487.6606,337.1452,489.3388,337.6612,489.1167,337.5692,490.28,339.5155,490.712,341.1589,491.6999,343.0326,492.1153,344.6691,493,346.5,492.9772,346.5,493.2472,351.1227,492.9838,355.7453,493.0351,360.368,493.1129,364.9906,493,369.6133,493.1282,369.6664,492.2666,371.3805,491.624,373.1855,490.627,374.8436,490.1586,376.7206,489.3388,378.4521,489.4088,378.6209,487.6278,379.3212,485.8815,380.1054,483.9739,380.5,482.1846,381.1802,480.5,382.1133,480.5,381.4919,470.45,382.0544,460.4,381.9168,450.35,382.7947,440.3,381.9386,430.25,381.7702,420.2,382.3415,410.15,381.4464,400.1,381.5942,390.05,382.7622,380,382.5489,369.95,382.8478,359.9,381.7915,349.85,382.4325,339.8,382.7037,329.75,381.6409,319.7,382.0174,309.65,382.2393,299.6,382.765,289.55,382.1091,279.5,382.1133,279.559,382.2557,277.6616,381.2105,275.8781,380.4402,274.2609,380.0717,272.3375,378.9636,270.6612,378.4521,270.8179,378.517,269.9926,376.7107,269.1142,374.8824,268.3555,373.1037,267.8735,371.4396,267,369.6133,266.9002,369.6133,267.1973,364.9906,266.8158,360.368,267.2058,355.7453,267.1614,351.1227,267,346.5,267.0754,346.5312,267.7468,344.7383,268.6882,343.0572,269.3857,341.275,269.9811,339.4505,270.6612,337.6612,270.6954,337.7438,272.4123,336.8888,274.2881,336.4173,275.9842,335.5122,277.7542,334.7854,279.5,334" style="stroke: #A9A9A9; stroke-width: 1.5;"/><text fill="#A9A9A9" font-family="courier" font-size="20" font-weight="bold" lengthAdjust="spacingAndGlyphs" textLength="204" x="278" y="365.1074">Semantic Analysis</text><polygon fill="#222222" points="213.5,452,213.5,452.2102,223.5909,451.5857,233.6818,452.1933,243.7727,452.3997,253.8636,451.2866,263.9545,451.9223,274.0455,451.5735,284.1364,451.6165,294.2273,451.9318,304.3182,451.3086,314.4091,452.5536,324.5,451.3697,334.5909,451.8022,344.6818,452.4319,354.7727,451.9142,364.8636,452.0682,374.9545,451.9681,385.0455,452.1785,395.1364,452.2391,405.2273,452.5857,415.3182,452.6711,425.4091,452.6793,435.5,452.2546,445.5909,452.4636,455.6818,452.7022,465.7727,451.2788,475.8636,452.6785,485.9545,451.7035,496.0455,452.5338,506.1364,451.505,516.2273,451.9315,526.3182,452.7416,536.4091,451.9513,546.5,452,546.5134,452.0324,548.311,452.8365,550.0886,453.5926,551.8028,454.1955,553.6077,455.0174,555.3388,455.6612,555.1626,455.5881,556.1586,457.4652,556.9721,459.2666,557.6724,461.0212,558.4566,462.8104,559,464.5,558.839,464.5,558.7826,469.1227,558.7929,473.7453,558.9804,478.368,558.9345,482.9906,559,487.6133,559.2098,487.7002,558.214,489.3588,557.4299,491.1051,556.8736,492.9457,555.8657,494.5993,555.3388,496.4521,555.2726,496.2922,553.6538,497.3842,551.8589,498.0508,550.1292,498.875,548.2267,499.2819,546.5,500.1133,546.5,500.4325,536.4091,500.7037,526.3182,499.6409,516.2273,500.0174,506.1364,500.2393,496.0455,500.765,485.9545,500.1091,475.8636,500.5758,465.7727,499.5595,455.6818,499.436,445.5909,500.6169,435.5,499.3963,425.4091,500.6222,415.3182,500.3199,405.2273,499.8454,395.1364,499.7595,385.0455,500.572,374.9545,499.8139,364.8636,500.7051,354.7727,499.5605,344.6818,500.7307,334.5909,500.5976,324.5,500.3582,314.4091,500.1605,304.3182,500.8399,294.2273,500.7269,284.1364,500.2825,274.0455,500.3815,263.9545,499.983,253.8636,500.8297,243.7727,500.2681,233.6818,500.2859,223.5909,499.5049,213.5,500.1133,213.4483,499.9885,211.7999,499.5445,210.0193,498.7812,208.1912,497.9034,206.3878,497.0851,204.6612,496.4521,204.5937,496.4242,203.7176,494.5968,203.3244,492.9695,202.6922,491.2432,201.8943,489.4482,201,487.6133,201.2316,487.6133,200.9544,482.9906,201.0291,478.368,200.8708,473.7453,201.0947,469.1227,201,464.5,201.076,464.5315,201.9023,462.8027,202.3937,460.9352,203.1553,459.1796,204.0655,457.4855,204.6612,455.6612,204.7335,455.8359,206.3636,454.7711,208.172,454.137,209.9835,453.5104,211.6543,452.5441,213.5,452" style="stroke: #A9A9A9; stroke-width: 1.5;"/><text fill="#A9A9A9" font-family="courier" font-size="20" font-weight="bold" lengthAdjust="spacingAndGlyphs" textLength="336" x="212" y="483.1074">Intermediate Code Generation</text><polygon fill="#222222" points="309.5,570,309.5,570.2102,319.5714,569.5857,329.6429,570.1933,339.7143,570.3997,349.7857,569.2866,359.8571,569.9223,369.9286,569.5735,380,569.6165,390.0714,569.9318,400.1429,569.3086,410.2143,570.5536,420.2857,569.3697,430.3571,569.8022,440.4286,570.4319,450.5,570,450.4891,569.9736,452.2765,570.7532,454.0315,571.4546,455.8261,572.2517,457.6016,573.0026,459.3388,573.6612,459.5192,573.7359,460.2777,575.5145,461.0125,577.2833,461.6139,578.9969,462.4105,580.7914,463,582.5,463.2341,582.5,462.7596,587.1227,463.2262,591.7453,462.9012,596.368,463.1779,600.9906,463,605.6133,462.8476,605.5501,462.2467,607.3723,461.7639,609.2434,460.7883,610.9104,460.1035,612.6978,459.3388,614.4521,459.382,614.5564,457.6242,615.3125,455.8028,615.9154,454.0722,616.7373,452.1947,617.2048,450.5,618.1133,450.5,618.3977,440.4286,618.6615,430.3571,618.5578,420.2857,618.7263,410.2143,617.6302,400.1429,617.4611,390.0714,617.4919,380,618.0544,369.9286,617.9168,359.8571,618.7947,349.7857,617.9386,339.7143,617.7702,329.6429,618.3415,319.5714,617.4464,309.5,618.1133,309.4338,617.9534,307.815,617.5809,306.02,616.783,304.2904,616.1428,302.3879,615.0852,300.6612,614.4521,300.7595,614.4928,300.1108,612.7597,299.0512,610.8563,298.4349,609.1366,297.771,607.3971,297,605.6133,297.2173,605.6133,296.9986,600.9906,297.1542,596.368,296.8154,591.7453,296.7742,587.1227,297,582.5,297.1551,582.5642,297.5114,580.6408,298.6212,579.0294,299.2603,577.2231,299.8464,575.3948,300.6612,573.6612,300.616,573.5522,302.4875,573.0702,304.1585,572.1045,306.04,571.6467,307.6617,570.562,309.5,570" style="stroke: #A9A9A9; stroke-width: 1.5;"/><text fill="#A9A9A9" font-family="courier" font-size="20" font-weight="bold" lengthAdjust="spacingAndGlyphs" textLength="144" x="308" y="601.1074">Optimization</text><polygon fill="#222222" points="18.5,688,18.5,688.2102,28.5714,687.5857,38.6429,688.1933,48.7143,688.3997,58.7857,687.2866,68.8571,687.9223,78.9286,687.5735,89,687.6165,99.0714,687.9318,109.1429,687.3086,119.2143,688.5536,129.2857,687.3697,139.3571,687.8022,149.4286,688.4319,159.5,688,159.4891,687.9736,161.2765,688.7532,163.0315,689.4546,164.8261,690.2517,166.6016,691.0026,168.3388,691.6612,168.5192,691.7359,169.2777,693.5145,170.0125,695.2833,170.6139,696.9969,171.4105,698.7914,172,700.5,172.2341,700.5,171.7596,705.1227,172.2262,709.7453,171.9012,714.368,172.1779,718.9906,172,723.6133,171.8476,723.5501,171.2467,725.3723,170.7639,727.2434,169.7883,728.9104,169.1035,730.6978,168.3388,732.4521,168.382,732.5564,166.6242,733.3125,164.8028,733.9154,163.0722,734.7373,161.1947,735.2048,159.5,736.1133,159.5,736.3977,149.4286,736.6615,139.3571,736.5578,129.2857,736.7263,119.2143,735.6302,109.1429,735.4611,99.0714,735.4919,89,736.0544,78.9286,735.9168,68.8571,736.7947,58.7857,735.9386,48.7143,735.7702,38.6429,736.3415,28.5714,735.4464,18.5,736.1133,18.4338,735.9534,16.815,735.5809,15.02,734.783,13.2904,734.1428,11.3879,733.0852,9.6612,732.4521,9.7595,732.4928,9.1108,730.7597,8.0512,728.8563,7.4349,727.1366,6.771,725.3971,6,723.6133,6.2173,723.6133,5.9986,718.9906,6.1542,714.368,5.8154,709.7453,5.7742,705.1227,6,700.5,6.1551,700.5642,6.5114,698.6408,7.6212,697.0294,8.2603,695.2231,8.8464,693.3948,9.6612,691.6612,9.616,691.5522,11.4875,691.0702,13.1585,690.1045,15.04,689.6467,16.6617,688.562,18.5,688" style="stroke: #A9A9A9; stroke-width: 1.5;"/><text fill="#A9A9A9" font-family="courier" font-size="20" font-weight="bold" lengthAdjust="spacingAndGlyphs" textLength="144" x="17" y="719.1074">MIPS Backend</text><polygon fill="#222222" points="204.5,688,204.5,688.2102,214.7,687.5857,224.9,688.1933,235.1,688.3997,245.3,687.2866,255.5,687.9223,265.7,687.5735,275.9,687.6165,286.1,687.9318,296.3,687.3086,306.5,688.5536,316.7,687.3697,326.9,687.8022,337.1,688.4319,347.3,687.9142,357.5,688,357.5087,688.021,359.2637,688.7224,361.0583,689.5194,362.8338,690.2703,364.6458,691.1093,366.3388,691.6612,366.5455,691.7468,367.2803,693.5156,367.8817,695.2292,368.6783,697.0236,369.484,698.8218,370,700.5,369.7596,700.5,370.2262,705.1227,369.9012,709.7453,370.1779,714.368,369.835,718.9906,370,723.6133,369.9789,723.6045,369.4962,725.4756,368.5205,727.1426,367.8357,728.93,367.1754,730.7275,366.3388,732.4521,366.3919,732.5803,364.5706,733.1831,362.8399,734.005,360.9625,734.4725,359.304,735.4686,357.5,736.1133,357.5,736.6615,347.3,736.5578,337.1,736.7263,326.9,735.6302,316.7,735.4611,306.5,735.4919,296.3,736.0544,286.1,735.9168,275.9,736.7947,265.7,735.9386,255.5,735.7702,245.3,736.3415,235.1,735.4464,224.9,735.5942,214.7,736.7622,204.5,736.1133,204.5556,736.2474,202.8259,735.6072,200.9234,734.5497,199.2374,734.0149,197.5042,733.3662,195.6612,732.4521,195.5157,732.3919,194.8994,730.6721,194.2355,728.9327,193.6652,727.232,192.7309,725.3805,192,723.6133,192.1542,723.6133,191.8154,718.9906,191.7742,714.368,192.1679,709.7453,191.761,705.1227,192,700.5,192.1567,700.5649,192.7959,698.7586,193.382,696.9303,194.0878,695.1516,195.0702,693.4875,195.6612,691.6612,195.623,691.569,197.5044,691.1112,199.1262,690.0265,201.0432,689.6546,202.794,688.8814,204.5,688" style="stroke: #A9A9A9; stroke-width: 1.5;"/><text fill="#A9A9A9" font-family="courier" font-size="20" font-weight="bold" lengthAdjust="spacingAndGlyphs" textLength="156" x="203" y="719.1074">Intel Backend</text><polygon fill="#222222" points="402.5,688,402.5,688.2102,412.7,687.5857,422.9,688.1933,433.1,688.3997,443.3,687.2866,453.5,687.9223,463.7,687.5735,473.9,687.6165,484.1,687.9318,494.3,687.3086,504.5,688.5536,514.7,687.3697,524.9,687.8022,535.1,688.4319,545.3,687.9142,555.5,688,555.5087,688.021,557.2637,688.7224,559.0583,689.5194,560.8338,690.2703,562.6458,691.1093,564.3388,691.6612,564.5455,691.7468,565.2803,693.5156,565.8817,695.2292,566.6783,697.0236,567.484,698.8218,568,700.5,567.7596,700.5,568.2262,705.1227,567.9012,709.7453,568.1779,714.368,567.835,718.9906,568,723.6133,567.9789,723.6045,567.4962,725.4756,566.5205,727.1426,565.8357,728.93,565.1754,730.7275,564.3388,732.4521,564.3919,732.5803,562.5706,733.1831,560.8399,734.005,558.9625,734.4725,557.304,735.4686,555.5,736.1133,555.5,736.6615,545.3,736.5578,535.1,736.7263,524.9,735.6302,514.7,735.4611,504.5,735.4919,494.3,736.0544,484.1,735.9168,473.9,736.7947,463.7,735.9386,453.5,735.7702,443.3,736.3415,433.1,735.4464,422.9,735.5942,412.7,736.7622,402.5,736.1133,402.5556,736.2474,400.8259,735.6072,398.9234,734.5497,397.2374,734.0149,395.5042,733.3662,393.6612,732.4521,393.5157,732.3919,392.8994,730.6721,392.2355,728.9327,391.6652,727.232,390.7309,725.3805,390,723.6133,390.1542,723.6133,389.8154,718.9906,389.7742,714.368,390.1679,709.7453,389.761,705.1227,390,700.5,390.1567,700.5649,390.7959,698.7586,391.382,696.9303,392.0878,695.1516,393.0702,693.4875,393.6612,691.6612,393.623,691.569,395.5044,691.1112,397.1262,690.0265,399.0432,689.6546,400.794,688.8814,402.5,688" style="stroke: #A9A9A9; stroke-width: 1.5;"/><text fill="#A9A9A9" font-family="courier" font-size="20" font-weight="bold" lengthAdjust="spacingAndGlyphs" textLength="156" x="401" y="719.1074">SPARC Backend</text><polygon fill="#222222" points="600.5,688,600.5,688.2102,610.4231,687.5857,620.3462,688.1933,630.2692,688.3997,640.1923,687.2866,650.1154,687.9223,660.0385,687.5735,669.9615,687.6165,679.8846,687.9318,689.8077,687.3086,699.7308,688.5536,709.6538,687.3697,719.5769,687.8022,729.5,688,729.5551,688.133,731.2568,688.7058,733.0442,689.4855,734.7992,690.1869,736.5938,690.9839,738.3388,691.6612,738.4125,691.6917,739.2514,693.5036,740.01,695.2823,740.7447,697.0511,741.3462,698.7647,742,700.5,742.1545,700.5,742.2341,705.1227,741.7596,709.7453,742.2262,714.368,741.9012,718.9906,742,723.6133,742.1644,723.6814,741.1153,725.3179,740.5144,727.1401,740.0317,729.0112,739.0561,730.6781,738.3388,732.4521,738.3523,732.4845,736.6143,733.2886,734.8564,734.0448,733.035,734.6476,731.3044,735.4695,729.5,736.1133,729.5,735.5409,719.5769,736.3977,709.6538,736.6615,699.7308,736.5578,689.8077,736.7263,679.8846,735.6302,669.9615,735.4611,660.0385,735.4919,650.1154,736.0544,640.1923,735.9168,630.2692,736.7947,620.3462,735.9386,610.4231,735.7702,600.5,736.1133,600.5291,736.1836,598.6472,735.1757,596.8982,734.4889,595.2795,734.1164,593.4845,733.3185,591.6612,732.4521,591.8874,732.5458,590.8298,730.6433,590.295,728.9573,589.6463,727.2241,588.5868,725.3208,588,723.6133,587.968,723.6133,588.042,718.9906,588.2173,714.368,587.9986,709.7453,588.1542,705.1227,588,700.5,587.8295,700.4294,588.5237,698.6458,589.6196,697.0287,589.9759,695.1052,591.0857,693.4939,591.6612,691.6612,591.6875,691.7248,593.3948,690.8464,595.1516,690.0878,597.023,689.6057,598.694,688.6401,600.5,688" style="stroke: #A9A9A9; stroke-width: 1.5;"/><text fill="#A9A9A9" font-family="courier" font-size="20" font-weight="bold" lengthAdjust="spacingAndGlyphs" textLength="132" x="599" y="719.1074">Interpreter</text><!--link start to Lexical Analysis/Scanner--><path d="M380,28.05 L380.2802,28.05 L379.4476,38.8217 L380.2577,49.5933 L380.5329,60.365 L379.0488,71.1367 L379.8964,81.9083 L380,92.68 " fill="none" style="stroke: #A9A9A9; stroke-width: 2.0;"/><polygon fill="#A9A9A9" points="380,97.76,380.064,97.7885,380.6738,95.9039,381.6589,94.1862,382.5217,92.4141,382.9827,90.4634,384,88.76,383.9817,88.7417,383.0995,89.4595,382.3096,90.2696,381.5839,91.1439,380.637,91.797,380,92.76,380.1305,92.8905,379.0514,91.8114,378.3534,91.1134,377.7018,90.4618,376.7798,89.5398,376,88.76,376.0208,88.7692,376.7903,90.5557,377.6544,92.3842,378.4728,94.1924,379.3784,96.0393,380,97.76" style="stroke: #A9A9A9; stroke-width: 2.0;"/><text fill="#A9A9A9" font-family="courier" font-size="20" lengthAdjust="spacingAndGlyphs" textLength="216" x="394" y="70.1074">ASCII program text</text><!--link Lexical Analysis/Scanner to Syntax Analysis/Parser--><path d="M380,146.2 L380.2802,146.2 L379.4476,156.95 L380.2577,167.7 L380.5329,178.45 L379.0488,189.2 L379.8964,199.95 L380,210.7 " fill="none" style="stroke: #A9A9A9; stroke-width: 2.0;"/><polygon fill="#A9A9A9" points="380,215.84,380.064,215.8685,380.6738,213.9839,381.6589,212.2662,382.5217,210.4941,382.9827,208.5434,384,206.84,383.9817,206.8217,383.0995,207.5395,382.3096,208.3496,381.5839,209.2239,380.637,209.877,380,210.84,380.1305,210.9705,379.0514,209.8914,378.3534,209.1934,377.7018,208.5418,376.7798,207.6198,376,206.84,376.0208,206.8492,376.7903,208.6357,377.6544,210.4642,378.4728,212.2724,379.3784,214.1193,380,215.84" style="stroke: #A9A9A9; stroke-width: 2.0;"/><text fill="#A9A9A9" font-family="courier" font-size="20" lengthAdjust="spacingAndGlyphs" textLength="144" x="394" y="188.1074">token stream</text><!--link Syntax Analysis/Parser to Semantic Analysis--><path d="M380,264.2 L380.2802,264.2 L379.4476,274.95 L380.2577,285.7 L380.5329,296.45 L379.0488,307.2 L379.8964,317.95 L380,328.7 " fill="none" style="stroke: #A9A9A9; stroke-width: 2.0;"/><polygon fill="#A9A9A9" points="380,333.84,380.064,333.8685,380.6738,331.9839,381.6589,330.2662,382.5217,328.4941,382.9827,326.5434,384,324.84,383.9817,324.8217,383.0995,325.5395,382.3096,326.3496,381.5839,327.2239,380.637,327.877,380,328.84,380.1305,328.9705,379.0514,327.8914,378.3534,327.1934,377.7018,326.5418,376.7798,325.6198,376,324.84,376.0208,324.8492,376.7903,326.6357,377.6544,328.4642,378.4728,330.2724,379.3784,332.1193,380,333.84" style="stroke: #A9A9A9; stroke-width: 2.0;"/><text fill="#A9A9A9" font-family="courier" font-size="20" lengthAdjust="spacingAndGlyphs" textLength="240" x="394" y="306.1074">abstract syntax free</text><!--link Semantic Analysis to Intermediate Code Generation--><path d="M380,382.2 L380.2802,382.2 L379.4476,392.95 L380.2577,403.7 L380.5329,414.45 L379.0488,425.2 L379.8964,435.95 L380,446.7 " fill="none" style="stroke: #A9A9A9; stroke-width: 2.0;"/><polygon fill="#A9A9A9" points="380,451.84,380.064,451.8685,380.6738,449.9839,381.6589,448.2662,382.5217,446.4941,382.9827,444.5434,384,442.84,383.9817,442.8217,383.0995,443.5395,382.3096,444.3496,381.5839,445.2239,380.637,445.877,380,446.84,380.1305,446.9705,379.0514,445.8914,378.3534,445.1934,377.7018,444.5418,376.7798,443.6198,376,442.84,376.0208,442.8492,376.7903,444.6357,377.6544,446.4642,378.4728,448.2724,379.3784,450.1193,380,451.84" style="stroke: #A9A9A9; stroke-width: 2.0;"/><text fill="#A9A9A9" font-family="courier" font-size="20" lengthAdjust="spacingAndGlyphs" textLength="360" x="394" y="424.1074">augmented abstract syntax free</text><!--link Intermediate Code Generation to Optimization--><path d="M380,500.2 L380.2802,500.2 L379.4476,510.95 L380.2577,521.7 L380.5329,532.45 L379.0488,543.2 L379.8964,553.95 L380,564.7 " fill="none" style="stroke: #A9A9A9; stroke-width: 2.0;"/><polygon fill="#A9A9A9" points="380,569.84,380.064,569.8685,380.6738,567.9839,381.6589,566.2662,382.5217,564.4941,382.9827,562.5434,384,560.84,383.9817,560.8217,383.0995,561.5395,382.3096,562.3496,381.5839,563.2239,380.637,563.877,380,564.84,380.1305,564.9705,379.0514,563.8914,378.3534,563.1934,377.7018,562.5418,376.7798,561.6198,376,560.84,376.0208,560.8492,376.7903,562.6357,377.6544,564.4642,378.4728,566.2724,379.3784,568.1193,380,569.84" style="stroke: #A9A9A9; stroke-width: 2.0;"/><text fill="#A9A9A9" font-family="courier" font-size="20" lengthAdjust="spacingAndGlyphs" textLength="168" x="394" y="542.1074">Aulait program</text><!--link Optimization to MIPS Backend--><path d="M322.16,618.06 L322.2638,618.3203 L312.4777,621.3246 L303.2999,625.855 L293.924,629.8884 L283.8967,632.2875 L274.7327,636.8526 L265.0828,640.1984 L255.6262,644.0295 L246.3041,648.1978 L236.5187,651.2037 L227.6555,656.5235 L217.5933,658.8349 L208.329,663.1484 L199.1621,667.7061 L189.4288,670.8426 L180.027,674.8112 L170.4998,678.4649 L161.1259,682.5033 L151.56,686.06 " fill="none" style="stroke: #A9A9A9; stroke-width: 2.0;"/><polygon fill="#A9A9A9" points="146.73,687.99,146.7328,688.06,148.6926,687.9315,150.6689,688.2134,152.6399,688.3616,154.5931,688.0704,156.5708,688.3875,156.5606,688.3637,155.4758,687.8086,154.4428,687.3733,153.4457,687.0214,152.3247,686.3822,151.3773,686.1454,151.5467,686.2185,151.6328,685.0234,152.2136,684.0418,152.8548,683.0863,153.1448,681.9792,153.6194,680.9518,153.6357,680.9678,152.2339,682.352,150.9062,683.8087,149.5427,685.2305,148.2474,686.7189,146.73,687.99" style="stroke: #A9A9A9; stroke-width: 2.0;"/><!--link Optimization to Intel Backend--><path d="M360.2,618.2 L360.4132,618.3819 L353.5443,625.1469 L347.9249,632.9784 L341.8987,640.4626 L334.5343,646.8047 L328.9434,654.6605 L322.3541,661.6642 L316.1622,669.0069 L310.2464,676.5854 L304.08,683.95 " fill="none" style="stroke: #A9A9A9; stroke-width: 2.0;"/><polygon fill="#A9A9A9" points="300.76,687.84,300.7902,687.9032,302.4774,686.8655,304.3418,686.1983,306.1484,685.4105,307.7654,684.2259,309.6449,683.5906,309.6429,683.5647,308.5059,683.5381,307.3792,683.6416,306.2596,683.8356,305.1154,683.7177,304.0057,684.0367,304.1897,684.0512,303.707,682.8922,303.7615,681.7758,303.8816,680.6645,303.6203,679.523,303.5596,678.3974,303.5814,678.4039,302.9895,680.2829,302.4968,682.1914,301.9563,684.0856,301.5071,686.007,300.76,687.84" style="stroke: #A9A9A9; stroke-width: 2.0;"/><!--link Optimization to SPARC Backend--><path d="M399.8,618.2 L400.0132,618.3819 L405.6154,625.1469 L412.4671,632.9784 L418.912,640.4626 L424.0187,646.8047 L430.899,654.6605 L436.7808,661.6642 L443.06,669.0069 L449.6153,676.5854 L455.92,683.95 " fill="none" style="stroke: #A9A9A9; stroke-width: 2.0;"/><polygon fill="#A9A9A9" points="459.24,687.84,459.3072,687.8599,458.5477,685.9122,458.1819,684.0813,457.688,682.2123,456.7723,680.2183,456.4404,678.3974,456.4146,678.3954,456.2095,679.5141,456.1345,680.643,456.1501,681.7792,455.8538,682.8906,455.9943,684.0367,456.0088,684.2206,454.8499,683.738,453.7334,683.7925,452.6221,683.9125,451.4806,683.6513,450.3551,683.5906,450.3649,683.6111,452.1275,684.4308,453.9347,685.344,455.7204,686.2121,457.5472,687.1662,459.24,687.84" style="stroke: #A9A9A9; stroke-width: 2.0;"/><!--link Optimization to Interpreter--><path d="M436.65,618.06 L436.7556,618.3196 L445.724,621.3261 L455.3116,625.8543 L464.6976,629.8869 L473.4203,632.2901 L483.0221,636.8529 L492.129,640.2 L501.4328,644.0308 L510.8735,648.1981 L519.8425,651.2062 L529.7505,656.5215 L538.4377,658.8372 L547.9373,663.1491 L557.536,667.7046 L566.558,670.843 L575.9176,674.8109 L585.1495,678.465 L594.5375,682.5027 L603.73,686.06 " fill="none" style="stroke: #A9A9A9; stroke-width: 2.0;"/><polygon fill="#A9A9A9" points="608.46,687.99,608.5105,688.0386,606.9953,686.4743,605.7762,685.1946,604.4607,683.8223,602.8281,682.1452,601.6344,680.89,601.6105,680.8799,601.9424,681.8775,602.3946,682.9258,602.9305,684.0093,603.1781,684.9714,603.8295,686.1035,603.9012,686.2736,602.7053,686.3489,601.7185,686.9208,600.7573,687.5533,599.6476,687.8333,598.616,688.2987,598.6167,688.3214,600.5845,688.2263,602.5555,688.2347,604.5249,688.1932,606.4973,688.2469,608.46,687.99" style="stroke: #A9A9A9; stroke-width: 2.0;"/><text fill="#A9A9A9" font-family="courier" font-size="20" lengthAdjust="spacingAndGlyphs" textLength="288" x="559" y="660.1074">optimized AuLait program</text><!--
@startuml
skinparam backgroundColor #222222
skinparam handwritten true
hide circle
hide stereotype
skinparam shadowing false
skinparam padding 1
skinparam arrow {
    Thickness 2
    Color #DarkGrey
    FontSize 20
    FontName courier
    FontStyle normal
    FontColor #DarkGrey
}
skinparam activity {
    BorderThickness 3
    BorderColor #DarkGrey
    BackgroundColor #222222
    FontSize 20
    FontName courier
    FontStyle bold
    FontColor #DarkGrey
    startColor #222222
}

(*)- ->[ ASCII program text] "Lexical Analysis/Scanner"
- ->[ token stream] "Syntax Analysis/Parser"
- ->[ abstract syntax free] "Semantic Analysis"
- ->[ augmented abstract syntax free] "Intermediate Code Generation"
- ->[ Aulait program] "Optimization"
"Optimization"- -> "MIPS Backend"
"Optimization"- ->"Intel Backend"
"Optimization"- ->"SPARC Backend"
"Optimization"- ->[optimized AuLait program] "Interpreter"
@enduml

PlantUML version 1.2019.05(Sat Apr 20 18:45:36 CEST 2019)
(GPL source distribution)
Java Runtime: Java(TM) SE Runtime Environment
JVM: Java HotSpot(TM) 64-Bit Server VM
Java Version: 11.0.14+8-LTS-263
Operating System: Windows 10
OS Version: 10.0
Default Encoding: windows-1252
Language: es
Country: ES
--></g></svg>