<?xml version="1.0" encoding="UTF-8" standalone="no"?><svg xmlns="http://www.w3.org/2000/svg" xmlns:xlink="http://www.w3.org/1999/xlink" contentScriptType="application/ecmascript" contentStyleType="text/css" height="761px" preserveAspectRatio="none" style="width:714px;height:761px;background:#222222;" version="1.1" viewBox="0 0 714 761" width="714px" zoomAndPan="magnify"><defs/><g><!--cluster packageG--><polygon fill="#222222" points="489,410,489,410.2102,499.4,409.5857,509.8,410.1933,520.2,410.3997,530.6,409.2866,541,409.9223,551.4,409.5735,561.8,409.6165,572.2,409.9318,582.6,409.3086,593,410,593.1808,410.0371,594.1942,416.7804,595.7354,423.6321,597.341,430.4969,598.572,437.2849,600,444.1133,600,444.136,607.2,444.1026,614.4,444.1728,621.6,444.193,628.8,444.3085,636,444.1133,636.6711,444.1133,636.6793,454.002,636.2546,463.8906,636.4636,473.7793,636.7022,483.668,635.2788,493.5566,636.6785,503.4453,635.7035,513.334,636.5338,523.2227,635.505,533.1113,636,543,636,542.9315,626.2,543.7416,616.4,542.9513,606.6,543.1053,596.8,543.3386,587,543.4162,577.2,542.9961,567.4,543.2872,557.6,542.4276,547.8,543.2844,538,543.5482,528.2,543.4445,518.4,543.613,508.6,542.5169,498.8,542.3478,489,543,488.3786,543,488.9411,532.7692,488.8035,522.5385,489.6814,512.3077,488.8253,502.0769,488.6569,491.8462,489.2283,481.6154,488.3332,471.3846,488.4809,461.1538,489.649,450.9231,489.4357,440.6923,489.7345,430.4615,488.6782,420.2308,489,410" style="stroke: #A9A9A9; stroke-width: 3.0;"/><path d="M489,444.1133 L489,444.3935 L499.0909,443.5609 L509.1818,444.371 L519.2727,444.6462 L529.3636,443.1621 L539.4545,444.0097 L549.5455,443.5446 L559.6364,443.6019 L569.7273,444.0224 L579.8182,443.1915 L589.9091,444.8515 L600,444.1133 " fill="#222222" style="stroke: #A9A9A9; stroke-width: 3.0;"/><text fill="#A9A9A9" font-family="courier" font-size="20" font-weight="bold" lengthAdjust="spacingAndGlyphs" textLength="96" x="494" y="433.1074">packageG</text><!--cluster packageI--><polygon fill="#222222" points="489,616,489,616.2102,499.4,615.5857,509.8,616.1933,520.2,616.3997,530.6,615.2866,541,615.9223,551.4,615.5735,561.8,615.6165,572.2,615.9318,582.6,615.3086,593,616,593.1808,616.0371,594.1942,622.7804,595.7354,629.6321,597.341,636.4969,598.572,643.2849,600,650.1133,600,650.136,607.2,650.1026,614.4,650.1728,621.6,650.193,628.8,650.3085,636,650.1133,636.6711,650.1133,636.6793,660.002,636.2546,669.8906,636.4636,679.7793,636.7022,689.668,635.2788,699.5566,636.6785,709.4453,635.7035,719.334,636.5338,729.2227,635.505,739.1113,636,749,636,748.9315,626.2,749.7416,616.4,748.9513,606.6,749.1053,596.8,749.3386,587,749.4162,577.2,748.9961,567.4,749.2872,557.6,748.4276,547.8,749.2844,538,749.5482,528.2,749.4445,518.4,749.613,508.6,748.5169,498.8,748.3478,489,749,488.3786,749,488.9411,738.7692,488.8035,728.5385,489.6814,718.3077,488.8253,708.0769,488.6569,697.8462,489.2283,687.6154,488.3332,677.3846,488.4809,667.1538,489.649,656.9231,489.4357,646.6923,489.7345,636.4615,488.6782,626.2308,489,616" style="stroke: #228B22; stroke-width: 3.0;"/><path d="M489,650.1133 L489,650.3935 L499.0909,649.5609 L509.1818,650.371 L519.2727,650.6462 L529.3636,649.1621 L539.4545,650.0097 L549.5455,649.5446 L559.6364,649.6019 L569.7273,650.0224 L579.8182,649.1915 L589.9091,650.8515 L600,650.1133 " fill="#222222" style="stroke: #228B22; stroke-width: 3.0;"/><text fill="#228B22" font-family="courier" font-size="20" font-weight="bold" lengthAdjust="spacingAndGlyphs" textLength="96" x="494" y="639.1074">packageI</text><polygon fill="#222222" points="257,8,257,8.2102,267.4,7.5857,277.8,8.1933,288.2,8.3997,298.6,7.2866,309,7.9223,319.4,7.5735,329.8,7.6165,340.2,7.9318,350.6,7.3086,361,8,361.1808,8.0371,362.1942,14.7804,363.7354,21.6321,365.341,28.4969,366.572,35.2849,368,42.1133,368,42.136,369.4,42.1026,370.8,42.1728,372.2,42.193,373.6,42.3085,375,42.1133,375.2237,42.1133,375.2264,50.5359,375.0849,58.9586,375.1545,67.3813,375.2341,75.8039,375,84.2266,375,83.5054,365.1667,84.9051,355.3333,83.9301,345.5,84.7604,335.6667,83.7315,325.8333,84.1581,316,84.9682,306.1667,84.1778,296.3333,84.3319,286.5,84.5652,276.6667,84.6428,266.8333,84.2227,257,84.2266,257.2872,84.2266,256.4276,74.6982,257.2844,65.1699,257.5482,55.6416,257.4445,46.1133,257.613,36.585,256.5169,27.0566,256.3478,17.5283,257,8" style="stroke: #A9A9A9; stroke-width: 3.0;"/><path d="M257,42.1133 L257,42.3935 L267.0909,41.5609 L277.1818,42.371 L287.2727,42.6462 L297.3636,41.1621 L307.4545,42.0097 L317.5455,41.5446 L327.6364,41.6019 L337.7273,42.0224 L347.8182,41.1915 L357.9091,42.8515 L368,42.1133 " fill="#222222" style="stroke: #A9A9A9; stroke-width: 3.0;"/><text fill="#A9A9A9" font-family="courier" font-size="20" font-weight="bold" lengthAdjust="spacingAndGlyphs" textLength="96" x="262" y="31.1074">packageA</text><polygon fill="#222222" points="38,205,38,205.2102,48.4,204.5857,58.8,205.1933,69.2,205.3997,79.6,204.2866,90,204.9223,100.4,204.5735,110.8,204.6165,121.2,204.9318,131.6,204.3086,142,205,142.1808,205.0371,143.1942,211.7804,144.7354,218.6321,146.341,225.4969,147.572,232.2849,149,239.1133,149,239.136,150.4,239.1026,151.8,239.1728,153.2,239.193,154.6,239.3085,156,239.1133,156.2237,239.1133,156.2264,247.5359,156.0849,255.9586,156.1545,264.3813,156.2341,272.8039,156,281.2266,156,280.5054,146.1667,281.9051,136.3333,280.9301,126.5,281.7604,116.6667,280.7315,106.8333,281.1581,97,281.9682,87.1667,281.1778,77.3333,281.3319,67.5,281.5652,57.6667,281.6428,47.8333,281.2227,38,281.2266,38.2872,281.2266,37.4276,271.6982,38.2844,262.1699,38.5482,252.6416,38.4445,243.1133,38.613,233.585,37.5169,224.0566,37.3478,214.5283,38,205" style="stroke: #A9A9A9; stroke-width: 3.0;"/><path d="M38,239.1133 L38,239.3935 L48.0909,238.5609 L58.1818,239.371 L68.2727,239.6462 L78.3636,238.1621 L88.4545,239.0097 L98.5455,238.5446 L108.6364,238.6019 L118.7273,239.0224 L128.8182,238.1915 L138.9091,239.8515 L149,239.1133 " fill="#222222" style="stroke: #A9A9A9; stroke-width: 3.0;"/><text fill="#A9A9A9" font-family="courier" font-size="20" font-weight="bold" lengthAdjust="spacingAndGlyphs" textLength="96" x="43" y="228.1074">packageB</text><polygon fill="#222222" points="191,205,191,205.2102,201.4,204.5857,211.8,205.1933,222.2,205.3997,232.6,204.2866,243,204.9223,253.4,204.5735,263.8,204.6165,274.2,204.9318,284.6,204.3086,295,205,295.1808,205.0371,296.1942,211.7804,297.7354,218.6321,299.341,225.4969,300.572,232.2849,302,239.1133,302,239.136,303.4,239.1026,304.8,239.1728,306.2,239.193,307.6,239.3085,309,239.1133,309.2237,239.1133,309.2264,247.5359,309.0849,255.9586,309.1545,264.3813,309.2341,272.8039,309,281.2266,309,280.5054,299.1667,281.9051,289.3333,280.9301,279.5,281.7604,269.6667,280.7315,259.8333,281.1581,250,281.9682,240.1667,281.1778,230.3333,281.3319,220.5,281.5652,210.6667,281.6428,200.8333,281.2227,191,281.2266,191.2872,281.2266,190.4276,271.6982,191.2844,262.1699,191.5482,252.6416,191.4445,243.1133,191.613,233.585,190.5169,224.0566,190.3478,214.5283,191,205" style="stroke: #A9A9A9; stroke-width: 3.0;"/><path d="M191,239.1133 L191,239.3935 L201.0909,238.5609 L211.1818,239.371 L221.2727,239.6462 L231.3636,238.1621 L241.4545,239.0097 L251.5455,238.5446 L261.6364,238.6019 L271.7273,239.0224 L281.8182,238.1915 L291.9091,239.8515 L302,239.1133 " fill="#222222" style="stroke: #A9A9A9; stroke-width: 3.0;"/><text fill="#A9A9A9" font-family="courier" font-size="20" font-weight="bold" lengthAdjust="spacingAndGlyphs" textLength="96" x="196" y="228.1074">packageC</text><polygon fill="#222222" points="344,205,344,205.2102,354.4,204.5857,364.8,205.1933,375.2,205.3997,385.6,204.2866,396,204.9223,406.4,204.5735,416.8,204.6165,427.2,204.9318,437.6,204.3086,448,205,448.1808,205.0371,449.1942,211.7804,450.7354,218.6321,452.341,225.4969,453.572,232.2849,455,239.1133,455,239.136,456.4,239.1026,457.8,239.1728,459.2,239.193,460.6,239.3085,462,239.1133,462.2237,239.1133,462.2264,247.5359,462.0849,255.9586,462.1545,264.3813,462.2341,272.8039,462,281.2266,462,280.5054,452.1667,281.9051,442.3333,280.9301,432.5,281.7604,422.6667,280.7315,412.8333,281.1581,403,281.9682,393.1667,281.1778,383.3333,281.3319,373.5,281.5652,363.6667,281.6428,353.8333,281.2227,344,281.2266,344.2872,281.2266,343.4276,271.6982,344.2844,262.1699,344.5482,252.6416,344.4445,243.1133,344.613,233.585,343.5169,224.0566,343.3478,214.5283,344,205" style="stroke: #A9A9A9; stroke-width: 3.0;"/><path d="M344,239.1133 L344,239.3935 L354.0909,238.5609 L364.1818,239.371 L374.2727,239.6462 L384.3636,238.1621 L394.4545,239.0097 L404.5455,238.5446 L414.6364,238.6019 L424.7273,239.0224 L434.8182,238.1915 L444.9091,239.8515 L455,239.1133 " fill="#222222" style="stroke: #A9A9A9; stroke-width: 3.0;"/><text fill="#A9A9A9" font-family="courier" font-size="20" font-weight="bold" lengthAdjust="spacingAndGlyphs" textLength="96" x="349" y="228.1074">packageD</text><polygon fill="#222222" points="191,454,191,454.2102,201.4,453.5857,211.8,454.1933,222.2,454.3997,232.6,453.2866,243,453.9223,253.4,453.5735,263.8,453.6165,274.2,453.9318,284.6,453.3086,295,454,295.1808,454.0371,296.1942,460.7804,297.7354,467.6321,299.341,474.4969,300.572,481.2849,302,488.1133,302,488.136,303.4,488.1026,304.8,488.1728,306.2,488.193,307.6,488.3085,309,488.1133,309.2237,488.1133,309.2264,496.5359,309.0849,504.9586,309.1545,513.3813,309.2341,521.8039,309,530.2266,309,529.5054,299.1667,530.9051,289.3333,529.9301,279.5,530.7604,269.6667,529.7315,259.8333,530.1581,250,530.9682,240.1667,530.1778,230.3333,530.3319,220.5,530.5652,210.6667,530.6428,200.8333,530.2227,191,530.2266,191.2872,530.2266,190.4276,520.6982,191.2844,511.1699,191.5482,501.6416,191.4445,492.1133,191.613,482.585,190.5169,473.0566,190.3478,463.5283,191,454" style="stroke: #A9A9A9; stroke-width: 3.0;"/><path d="M191,488.1133 L191,488.3935 L201.0909,487.5609 L211.1818,488.371 L221.2727,488.6462 L231.3636,487.1621 L241.4545,488.0097 L251.5455,487.5446 L261.6364,487.6019 L271.7273,488.0224 L281.8182,487.1915 L291.9091,488.8515 L302,488.1133 " fill="#222222" style="stroke: #A9A9A9; stroke-width: 3.0;"/><text fill="#A9A9A9" font-family="courier" font-size="20" font-weight="bold" lengthAdjust="spacingAndGlyphs" textLength="96" x="196" y="477.1074">packageE</text><polygon fill="#222222" points="344,454,344,454.2102,354.4,453.5857,364.8,454.1933,375.2,454.3997,385.6,453.2866,396,453.9223,406.4,453.5735,416.8,453.6165,427.2,453.9318,437.6,453.3086,448,454,448.1808,454.0371,449.1942,460.7804,450.7354,467.6321,452.341,474.4969,453.572,481.2849,455,488.1133,455,488.136,456.4,488.1026,457.8,488.1728,459.2,488.193,460.6,488.3085,462,488.1133,462.2237,488.1133,462.2264,496.5359,462.0849,504.9586,462.1545,513.3813,462.2341,521.8039,462,530.2266,462,529.5054,452.1667,530.9051,442.3333,529.9301,432.5,530.7604,422.6667,529.7315,412.8333,530.1581,403,530.9682,393.1667,530.1778,383.3333,530.3319,373.5,530.5652,363.6667,530.6428,353.8333,530.2227,344,530.2266,344.2872,530.2266,343.4276,520.6982,344.2844,511.1699,344.5482,501.6416,344.4445,492.1133,344.613,482.585,343.5169,473.0566,343.3478,463.5283,344,454" style="stroke: #A9A9A9; stroke-width: 3.0;"/><path d="M344,488.1133 L344,488.3935 L354.0909,487.5609 L364.1818,488.371 L374.2727,488.6462 L384.3636,487.1621 L394.4545,488.0097 L404.5455,487.5446 L414.6364,487.6019 L424.7273,488.0224 L434.8182,487.1915 L444.9091,488.8515 L455,488.1133 " fill="#222222" style="stroke: #A9A9A9; stroke-width: 3.0;"/><text fill="#A9A9A9" font-family="courier" font-size="20" font-weight="bold" lengthAdjust="spacingAndGlyphs" textLength="96" x="349" y="477.1074">packageF</text><!--class claseY--><polygon fill="#222222" points="532,465,532,465.2102,542,464.5857,552,465.1933,562,465.3997,572,464.2866,582,464.9223,592,464.5735,602,464.6165,612,465,611.9318,465,611.3086,475.8227,612.5536,486.6453,611.3697,497.468,611.8022,508.2906,612,519.1133,612,519.5452,602,519.0275,592,519.1815,582,519.0813,572,519.2918,562,519.3524,552,519.699,542,519.7843,532,519.1133,532.6793,519.1133,532.2546,508.2906,532.4636,497.468,532.7022,486.6453,531.2788,475.8227,532,465" style="stroke: #A9A9A9; stroke-width: 3.0;"/><text fill="#A9A9A9" font-family="courier" font-size="20" font-weight="bold" lengthAdjust="spacingAndGlyphs" textLength="72" x="536" y="491.1074">claseY</text><path d="M533,503.1133 L533,503.3935 L542.75,502.5609 L552.5,503.371 L562.25,503.6462 L572,502.1621 L581.75,503.0097 L591.5,502.5446 L601.25,502.6019 L611,503.1133 " fill="#222222" style="stroke: #A9A9A9; stroke-width: 3.0;"/><path d="M533,511.1133 L533,511.3935 L542.75,510.5609 L552.5,511.371 L562.25,511.6462 L572,510.1621 L581.75,511.0097 L591.5,510.5446 L601.25,510.6019 L611,511.1133 " fill="#222222" style="stroke: #A9A9A9; stroke-width: 3.0;"/><polygon fill="#222222" points="79,660,79,660.2102,89.4,659.5857,99.8,660.1933,110.2,660.3997,120.6,659.2866,131,659.9223,141.4,659.5735,151.8,659.6165,162.2,659.9318,172.6,659.3086,183,660,183.1808,660.0371,184.1942,666.7804,185.7354,673.6321,187.341,680.4969,188.572,687.2849,190,694.1133,190,694.136,191.4,694.1026,192.8,694.1728,194.2,694.193,195.6,694.3085,197,694.1133,197.2237,694.1133,197.2264,702.5359,197.0849,710.9586,197.1545,719.3813,197.2341,727.8039,197,736.2266,197,735.5054,187.1667,736.9051,177.3333,735.9301,167.5,736.7604,157.6667,735.7315,147.8333,736.1581,138,736.9682,128.1667,736.1778,118.3333,736.3319,108.5,736.5652,98.6667,736.6428,88.8333,736.2227,79,736.2266,79.2872,736.2266,78.4276,726.6982,79.2844,717.1699,79.5482,707.6416,79.4445,698.1133,79.613,688.585,78.5169,679.0566,78.3478,669.5283,79,660" style="stroke: #A9A9A9; stroke-width: 3.0;"/><path d="M79,694.1133 L79,694.3935 L89.0909,693.5609 L99.1818,694.371 L109.2727,694.6462 L119.3636,693.1621 L129.4545,694.0097 L139.5455,693.5446 L149.6364,693.6019 L159.7273,694.0224 L169.8182,693.1915 L179.9091,694.8515 L190,694.1133 " fill="#222222" style="stroke: #A9A9A9; stroke-width: 3.0;"/><text fill="#A9A9A9" font-family="courier" font-size="20" font-weight="bold" lengthAdjust="spacingAndGlyphs" textLength="96" x="84" y="683.1074">packageH</text><!--class claseX--><polygon fill="#222222" points="532,671,532,671.2102,542,670.5857,552,671.1933,562,671.3997,572,670.2866,582,670.9223,592,670.5735,602,670.6165,612,671,611.9318,671,611.3086,681.8227,612.5536,692.6453,611.3697,703.468,611.8022,714.2906,612,725.1133,612,725.5452,602,725.0275,592,725.1815,582,725.0813,572,725.2918,562,725.3524,552,725.699,542,725.7843,532,725.1133,532.6793,725.1133,532.2546,714.2906,532.4636,703.468,532.7022,692.6453,531.2788,681.8227,532,671" style="stroke: #A9A9A9; stroke-width: 3.0;"/><text fill="#A9A9A9" font-family="courier" font-size="20" font-weight="bold" lengthAdjust="spacingAndGlyphs" textLength="72" x="536" y="697.1074">claseX</text><path d="M533,709.1133 L533,709.3935 L542.75,708.5609 L552.5,709.371 L562.25,709.6462 L572,708.1621 L581.75,709.0097 L591.5,708.5446 L601.25,708.6019 L611,709.1133 " fill="#222222" style="stroke: #A9A9A9; stroke-width: 3.0;"/><path d="M533,717.1133 L533,717.3935 L542.75,716.5609 L552.5,717.371 L562.25,717.6462 L572,716.1621 L581.75,717.0097 L591.5,716.5446 L601.25,716.6019 L611,717.1133 " fill="#222222" style="stroke: #A9A9A9; stroke-width: 3.0;"/><!--link packageA to packageB--><path d="M265.905,84.095 L265.9623,84.1688 L261.3462,87.4023 L257.066,91.0683 L252.6765,94.5935 L247.9272,97.6555 L243.6759,101.3587 L243.6544,101.3317 L241.2096,103.0792 L238.8732,104.9629 L236.6122,106.9414 L234.0915,108.5934 L231.9346,110.7027 L232.0896,110.8937 L229.3665,112.4252 L227.0961,114.5146 L224.8808,116.6721 L222.3443,118.4335 L219.9767,120.4032 L219.9961,120.4266 L217.563,122.386 L215.2181,124.4518 L212.8306,126.4662 L210.5242,128.5785 L207.9534,130.3719 L208.1466,130.5991 L205.7613,132.6315 L203.2515,134.5173 L200.9241,136.6177 L198.6052,138.7281 L196.0155,140.5199 L195.8044,140.2787 L193.8738,142.7947 L191.2481,144.5163 L189.1509,146.8418 L186.5095,148.5455 L184.314,150.7588 L184.2936,150.7363 L182.2724,153.0514 L179.7739,154.8392 L177.557,156.9382 L175.3638,159.0633 L173,161 L173.1273,161.1342 L170.967,162.9261 L169.0242,164.9473 L166.7295,166.5974 L164.9597,168.801 L162.8409,170.6366 L163.0127,170.8094 L160.9542,172.7903 L158.9811,174.8569 L156.6118,176.5249 L154.5328,178.4851 L152.7113,180.7043 L152.513,180.512 L150.7139,182.7266 L148.6913,184.7247 L146.9929,187.0369 L144.7411,188.8126 L142.8182,190.9073 L142.7072,190.8028 L141.0023,192.9853 L138.8227,194.7213 L136.9807,196.7748 L135.4689,199.1391 L133.369,200.95 " fill="none" style="stroke: #A9A9A9; stroke-width: 2.0; stroke-dasharray: 7.0,7.0;"/><polygon fill="#A9A9A9" points="129.973,204.625,130.0007,204.6893,131.7276,203.7192,133.6169,203.1262,135.4533,202.4105,137.1158,201.2907,139.019,200.7301,139.018,200.7043,137.8829,200.6327,136.753,200.6915,135.6266,200.8411,134.488,200.6781,133.3665,200.953,133.5509,200.9602,133.112,199.8142,133.2115,198.6894,133.3767,197.5671,133.1597,196.4299,133.1437,195.3005,133.1653,195.3078,132.4995,197.162,131.9318,199.0495,131.3168,200.9209,130.792,202.823,129.973,204.625" style="stroke: #A9A9A9; stroke-width: 2.0;"/><!--link packageA to packageC--><path d="M303.431,84.137 L303.6964,84.2268 L299.6485,93.5894 L297.1566,103.4786 L294.158,113.1963 L289.493,122.35 L287.0366,132.2513 L283.3369,141.7317 L280.1319,151.3796 L277.2709,161.1439 L273.2246,170.507 L271.5377,180.6687 L266.7832,189.7921 L264.32,199.691 " fill="none" style="stroke: #A9A9A9; stroke-width: 2.0; stroke-dasharray: 7.0,7.0;"/><polygon fill="#A9A9A9" points="262.635,204.67,262.6865,204.7175,263.8681,203.1278,265.3518,201.8164,266.7371,200.4144,267.799,198.7143,269.3086,197.4268,269.2971,197.4036,268.2314,197.8008,267.2235,198.315,266.2559,198.9106,265.1496,199.2258,264.2375,199.9338,264.403,200.0156,263.5478,198.8265,263.1757,197.8762,262.8625,196.955,262.2064,195.8643,261.7306,194.8628,261.7533,194.8648,261.9009,196.8232,262.1516,198.7911,262.3526,200.7544,262.6485,202.7265,262.635,204.67" style="stroke: #A9A9A9; stroke-width: 2.0;"/><!--link packageA to packageI--><path d="M375.045,50.327 L375.0543,50.42 L379.3249,50.5733 L383.65,51.2715 L387.9573,51.7923 L392.2064,51.7295 L396.5361,52.4745 L396.5321,52.4402 L398.8276,52.557 L401.1434,52.8468 L403.4732,53.2568 L405.7545,53.2524 L408.1038,53.8284 L408.1354,54.0724 L410.4748,53.8626 L412.9066,54.3653 L415.3496,54.9548 L417.727,55.0386 L420.139,55.3885 L420.1433,55.4185 L422.6255,55.7306 L425.1272,56.1793 L427.6195,56.5622 L430.1298,57.0708 L432.5815,57.1693 L432.6279,57.4639 L435.1864,57.8708 L437.7148,58.0876 L440.2872,58.5826 L442.8616,59.0906 L445.3709,59.1855 L445.3161,58.8697 L448.0376,59.9359 L450.5787,59.9622 L453.257,60.779 L455.7941,60.7817 L458.4468,61.4517 L458.4411,61.4218 L461.1689,62.2816 L463.7637,62.4427 L466.4369,63.0161 L469.1167,63.6241 L471.7491,63.9824 L471.7868,64.1635 L474.4423,64.5427 L477.1624,65.2313 L479.778,65.4192 L482.5494,66.354 L485.2172,66.7922 L485.2715,67.0297 L487.976,67.6055 L490.7074,68.2992 L493.3136,68.445 L496.0116,68.9925 L498.7909,69.8957 L498.7238,69.6278 L501.5083,70.5527 L504.2172,71.1757 L507.0359,72.2366 L509.6672,72.5499 L512.4098,73.3075 L512.3695,73.1605 L515.1575,74.1523 L517.7729,74.5156 L520.5111,75.3259 L523.3693,76.5734 L526.0137,77.0422 L526.0695,77.2276 L528.8134,78.1692 L531.3838,78.5341 L534.1716,79.6213 L536.912,80.5512 L539.5421,81.1144 L539.4762,80.915 L542.2072,81.9587 L544.9167,82.9372 L547.6685,84.0439 L550.2556,84.6519 L552.9347,85.5385 L553.0048,85.7318 L555.49,86.2653 L558.1106,87.1719 L560.929,88.6234 L563.3832,89.0717 L566.1312,90.3294 L566.2151,90.5394 L568.7533,91.449 L571.263,92.2876 L573.8369,93.2866 L576.5589,94.6563 L579.0713,95.5014 L579.0176,95.3797 L581.7021,96.8556 L584.0214,97.5037 L586.756,99.0931 L589.2567,100.1526 L591.6945,101.0692 L591.7423,101.167 L594.153,102.2837 L596.7346,103.7507 L599.1618,104.9012 L601.5244,105.9194 L603.9407,107.0474 L603.9975,107.1522 L606.2748,108.2771 L608.8159,109.8886 L611.0587,110.9498 L613.4242,112.2374 L615.7493,113.4506 L615.6094,113.2192 L617.9183,114.665 L620.3958,116.3895 L622.6347,117.7196 L624.7882,118.9084 L627.0602,120.2933 L626.9798,120.1748 L629.1561,121.6722 L631.1901,122.9597 L633.6154,124.8239 L635.847,126.4028 L637.813,127.5902 L637.9553,127.7759 L640.0277,129.3884 L641.8297,130.6482 L643.9171,132.2803 L645.8156,133.6659 L647.9473,135.3557 L648.0303,135.4509 L649.9105,137.0882 L651.8908,138.8403 L653.5534,140.2282 L655.4724,141.9098 L657.4027,143.6046 L657.5423,143.7438 L659.3246,145.532 L660.7279,146.9426 L662.5715,148.7919 L664.4228,150.6489 L666.1191,152.3514 L665.9127,152.175 L667.8218,154.3053 L669.3729,156.1296 L670.8351,157.8779 L672.5006,159.7999 L674.0359,161.6107 L674.2986,161.8001 L675.3345,163.4866 L676.9723,165.6071 L678.3731,167.5567 L679.7233,169.4698 L681.0929,171.397 L681.1468,171.429 L682.3637,173.4884 L683.3092,175.3865 L684.6219,177.5028 L685.8261,179.5546 L687.2298,181.725 L687.2554,181.7371 L688.2965,183.9186 L689.3573,186.1094 L690.2068,188.2001 L691.3278,190.4195 L692.3862,192.6092 L692.3359,192.5911 L693.4506,194.9869 L694.2108,197.2553 L694.6524,199.4092 L695.6481,201.7622 L696.5017,204.0642 L696.2528,204.0019 L697.2289,206.5034 L697.9698,208.946 L698.5451,211.3472 L698.7254,213.6495 L699.5161,216.1046 L699.7201,216.1345 L699.56,218.5848 L700.3453,221.1737 L700.4962,223.6696 L701.0409,226.2232 L701.369,228.745 L701.4757,228.7501 L701.7048,231.406 L701.3018,234.0318 L701.9587,236.7081 L701.9529,239.3528 L702,242 L702.4738,242 L702.9971,252.04 L702.0073,262.08 L702.2337,272.12 L702.2846,282.16 L702.263,292.2 L701.9989,302.24 L702.9476,312.28 L701.187,322.32 L702.7537,332.36 L701.168,342.4 L701.2796,352.44 L702.0533,362.48 L702.0377,372.52 L701.3429,382.56 L702.5516,392.6 L702.1451,402.64 L702.9689,412.68 L702.8895,422.72 L701.4023,432.76 L701.4694,442.8 L701.8278,452.84 L702.474,462.88 L702.5373,472.92 L702.4015,482.96 L702,493 L701.8484,492.9886 L702.0154,496.5584 L701.7477,500.0956 L701.1793,503.61 L700.8277,507.1408 L700.6671,510.686 L700.4947,510.64 L699.7954,513.5866 L699.167,516.5522 L698.299,519.4538 L697.3694,522.3391 L696.7693,525.3121 L696.9616,525.4118 L695.3259,527.6536 L694.443,530.2856 L693.1511,532.7056 L691.867,535.1296 L690.458,537.4889 L690.6949,537.6854 L688.6593,539.4867 L686.9259,541.5388 L685.4916,543.8389 L683.3952,545.5899 L681.8847,547.8269 L681.8173,547.7477 L679.7813,549.6879 L677.631,551.4939 L675.3711,553.1714 L673.3253,555.1 L671.2009,556.9365 L671.3854,557.2112 L668.833,558.8741 L665.9959,560.1132 L663.6345,562.0605 L660.9591,563.5403 L658.5578,565.4282 L658.5519,565.4181 L655.7336,567.2374 L652.872,568.9829 L649.7378,570.264 L647.0874,572.3692 L644.1071,573.9125 L644.1089,573.9158 L640.7644,575.5151 L637.5614,577.3652 L634.5142,579.4914 L631.276,581.2792 L628,583 L627.9973,582.9932 L624.7097,584.0116 L621.7538,585.848 L618.4138,586.7369 L615.1997,587.9363 L612.1098,589.4422 L612.1062,589.4125 L609.1481,590.064 L606.1563,590.4369 L603.1322,590.5424 L600.1291,590.8218 L597.144,591.25 L597.15,591.3253 L594.3038,591.1073 L591.4327,590.5746 L588.6183,590.7577 L585.7767,590.5967 L582.9104,590.1239 L582.8941,590.0294 L580.1392,589.464 L577.4838,589.4755 L574.6958,588.7173 L571.9555,588.2361 L569.2168,587.7643 L569.2354,587.8958 L566.5073,587.1016 L563.9115,587.2404 L561.2084,586.6219 L558.5819,586.5444 L555.8711,585.8716 L555.8691,585.7757 L553.2369,586.1083 L550.591,585.7842 L547.9594,586.1453 L545.3226,586.2599 L542.6811,586.1463 L542.6376,586.0075 L540.0841,587.1288 L537.3147,587.561 L534.6828,588.4324 L532.1908,589.7501 L529.4548,590.289 L529.6328,590.5356 L526.9117,592.4361 L523.9792,594.0435 L521.4819,596.2541 L518.5682,597.8877 L516,600 L516.0204,600.0158 L514.0401,602.5341 L511.9888,604.9976 L510.3382,607.7708 L508.318,610.2584 L506.2027,612.6723 L506.078,612.6033 L506.213,613.1372 L505.8494,613.3953 L505.3922,613.6016 L505.3339,614.0286 L505.2301,614.4304 L505.0233,614.3221 L505.082,614.5799 L504.7958,614.6571 L504.7137,614.8412 L504.8843,615.1577 L504.7633,615.3213 L504.7156,615.297 L504.6944,615.3992 L504.6152,615.4717 L504.6924,615.6241 L504.3607,615.5679 L504.5347,615.7696 " fill="none" style="stroke: #A9A9A9; stroke-width: 2.0; stroke-dasharray: 7.0,7.0;"/><polygon fill="#A9A9A9" points="504.5347,615.7696,504.579,615.8239,505.9732,614.4169,507.6271,613.328,509.1964,612.1356,510.4876,610.6024,512.1638,609.5408,512.1557,609.5162,511.0446,609.759,509.9742,610.1259,508.9322,610.5789,507.7925,610.7348,506.7897,611.307,506.965,611.3646,506.2369,610.1666,506.0206,609.1368,505.8668,608.1275,505.3496,606.9988,505.0235,605.9329,505.0463,605.934,504.9151,607.8997,504.8874,609.8705,504.8099,611.8389,504.8275,613.812,504.5347,615.7696" style="stroke: #A9A9A9; stroke-width: 2.0;"/><!--link packageA to packageD--><path d="M332.569,84.137 L332.8249,84.2512 L336.0303,92.8007 L340.7359,102.0195 L344.953,111.0204 L347.5634,119.3045 L352.3032,128.5386 L355.8443,137.2379 L359.8624,146.15 L364.2122,155.2101 L367.4191,163.7603 L372.9008,173.3255 L375.425,181.5711 L379.9174,190.6948 L384.124,199.691 " fill="none" style="stroke: #A9A9A9; stroke-width: 2.0; stroke-dasharray: 7.0,7.0;"/><polygon fill="#A9A9A9" points="386.345,204.67,386.4151,204.6701,386.2035,202.7,386.4027,200.7306,386.4681,198.7609,386.0937,196.7905,386.3281,194.8212,386.3039,194.8119,385.791,195.827,385.4001,196.8888,385.0939,197.983,384.4956,198.9654,384.3065,200.1044,384.3724,200.2768,383.1748,199.5039,382.1696,199.2342,381.188,199.0259,380.0697,198.4604,379.0232,198.0828,379.0384,198.0997,380.4805,199.3923,381.9917,200.7619,383.4696,202.0944,385.0112,203.4977,386.345,204.67" style="stroke: #A9A9A9; stroke-width: 2.0;"/><!--link packageB to packageH--><path d="M96.182,281.052 L96.2754,281.0528 L95.9511,286.467 L96.1743,291.8859 L96.2193,297.3032 L95.6778,302.7155 L95.9481,308.1348 L95.9135,308.1347 L95.7712,314.6614 L95.8031,321.1884 L95.956,327.7156 L95.6917,334.2421 L96.0117,340.7696 L96.2578,340.7731 L95.8373,348.1846 L96.1352,355.6062 L96.5207,363.0291 L96.3963,370.4448 L96.5401,377.8642 L96.5704,377.865 L96.624,381.8395 L96.8156,385.8175 L96.9407,389.7938 L97.1928,393.7733 L97.0307,397.7425 L97.3288,397.7522 L97.4663,401.8691 L97.4116,405.9796 L97.6383,410.0994 L97.8782,414.2195 L97.7002,418.3261 L97.3799,418.313 L98.1753,422.569 L97.9162,426.7817 L98.4587,431.0273 L98.1757,435.239 L98.5694,439.4785 L98.539,439.4769 L99.1165,443.812 L98.9836,448.1112 L99.27,452.4316 L99.5915,456.7537 L99.6591,461.063 L99.8438,461.0743 L99.9237,465.439 L100.3191,469.8229 L100.204,474.1757 L100.8503,478.5749 L100.9904,482.9432 L101.2334,482.9608 L101.5062,487.3653 L101.8996,491.7786 L101.7324,496.1513 L101.9762,500.5538 L102.584,504.9825 L102.3089,504.9591 L102.9333,509.3927 L103.2478,513.7999 L104.0119,518.2453 L104.0082,522.6255 L104.4609,527.0444 L104.3092,527.0294 L104.9981,531.444 L105.0384,535.7943 L105.54,540.1904 L106.4928,544.6313 L106.642,548.9923 L106.8343,549.0145 L107.4675,553.3693 L107.5023,557.6549 L108.2865,562.027 L108.9075,566.3803 L109.148,570.6897 L108.9399,570.6618 L109.6762,574.9461 L110.3443,579.2212 L111.1463,583.5143 L111.4278,587.7377 L112,592 L112.2028,592.0338 L112.289,595.1476 L112.7666,598.3267 L113.816,601.6012 L113.8127,604.7 L114.6587,607.9406 L114.8803,607.9859 L115.4085,611.1825 L115.8617,614.3636 L116.4841,617.5794 L117.4977,620.8753 L117.9578,624.0579 L117.8282,624.0276 L118.9518,627.2699 L119.1943,630.3059 L120.4386,633.5765 L121.1189,636.715 L121.6472,639.818 L121.7526,639.8451 L122.4334,642.797 L123.4918,645.8461 L124.2091,648.8074 L124.7839,651.732 L125.477,654.687 " fill="none" style="stroke: #A9A9A9; stroke-width: 2.0; stroke-dasharray: 7.0,7.0;"/><polygon fill="#A9A9A9" points="126.903,659.939,126.9722,659.9497,127.067,657.9712,127.5677,656.0554,127.9361,654.1192,127.87,652.1159,128.4055,650.2054,128.383,650.1925,127.7196,651.1164,127.1696,652.1052,126.6983,653.1391,125.9556,654.0174,125.5931,655.1136,125.6848,655.2738,124.507,654.3689,123.597,653.9315,122.7197,653.5511,121.6523,652.8389,120.6849,652.3013,120.7025,652.3156,121.9202,653.8221,123.2183,655.3939,124.4776,656.9342,125.8108,658.5347,126.903,659.939" style="stroke: #A9A9A9; stroke-width: 2.0;"/><!--link packageC to packageE--><path d="M250,281.246 L250.2802,281.246 L249.4476,291.1035 L250.2577,300.9611 L250.5329,310.8186 L249.0488,320.6761 L249.8964,330.5336 L249.4313,340.3912 L249.4887,350.2487 L249.9091,360.1062 L249.0782,369.9638 L250.7382,379.8213 L249.1596,389.6788 L249.7363,399.5364 L250.5759,409.3939 L249.8856,419.2514 L250.091,429.1089 L249.9574,438.9665 L250,448.824 " fill="none" style="stroke: #A9A9A9; stroke-width: 2.0; stroke-dasharray: 7.0,7.0;"/><polygon fill="#A9A9A9" points="250,453.856,250.064,453.8845,250.6738,451.9999,251.6589,450.2822,252.5217,448.5101,252.9827,446.5594,254,444.856,253.9817,444.8377,253.0995,445.5555,252.3096,446.3656,251.5839,447.2399,250.637,447.893,250,448.856,250.1305,448.9865,249.0514,447.9074,248.3534,447.2094,247.7018,446.5578,246.7798,445.6358,246,444.856,246.0208,444.8652,246.7903,446.6517,247.6544,448.4802,248.4728,450.2884,249.3784,452.1353,250,453.856" style="stroke: #A9A9A9; stroke-width: 2.0;"/><!--link packageC to packageH--><path d="M216.693,281.017 L216.7674,281.0735 L214.2152,283.9769 L212.0991,287.2114 L209.841,290.338 L207.1158,293.1102 L205.0372,296.3731 L205.0089,296.3533 L203.7254,297.9243 L202.5849,299.5947 L201.5436,301.3344 L200.1601,302.8356 L199.256,304.6708 L199.4623,304.8049 L197.8989,306.2446 L196.938,308.0758 L196.0505,309.9548 L194.7354,311.5559 L193.6453,313.3031 L193.6713,313.3187 L192.566,315.0774 L191.5791,316.9071 L190.5351,318.7025 L189.6001,320.5633 L188.3097,322.2111 L188.5718,322.3535 L187.5838,324.1801 L186.4268,325.915 L185.5173,327.7843 L184.6193,329.6599 L183.3539,331.3359 L183.0651,331.1968 L182.7313,333.3232 L181.4466,334.9917 L180.8848,337.0084 L179.5785,338.6665 L178.8825,340.6185 L178.8543,340.6068 L178.4105,342.6208 L177.3095,344.3628 L176.5962,346.2653 L175.9156,348.1812 L175,350 L175.1739,350.0632 L174.282,351.971 L173.6873,353.9868 L172.6119,355.8279 L172.2534,357.9295 L171.4183,359.8579 L171.6492,359.9356 L170.9319,361.9234 L170.3292,363.9497 L169.1938,365.7968 L168.4489,367.7753 L168.05,369.8702 L167.7863,369.788 L167.3928,371.8922 L166.7022,373.9037 L166.4425,376.0496 L165.447,377.9662 L164.8889,380.0191 L164.7424,379.9768 L164.3944,382.1008 L163.4202,384.0442 L162.8913,386.116 L162.7981,388.3134 L161.929,390.2871 L162.1161,390.337 L161.6914,392.4451 L160.6848,394.3981 L160.4071,396.5454 L159.9706,398.6504 L159.1641,400.6567 L158.9602,400.6065 L158.6075,402.7372 L158.188,404.8515 L157.8997,406.9982 L157.1014,409.0191 L156.588,411.1103 L156.7885,411.1559 L155.8694,413.1597 L155.3372,415.2515 L155.3703,417.4719 L154.3626,419.4556 L154.1947,421.6302 L154.4161,421.6767 L153.8412,423.7628 L153.1914,425.8333 L152.7107,427.9392 L152.6208,430.1271 L151.9779,432.199 L151.8473,432.1738 L151.8269,434.3689 L150.9181,436.3925 L151.0195,438.611 L150.5522,440.7198 L149.9316,442.799 L150.0388,442.8181 L149.5758,444.9254 L149.4967,447.1009 L149.0708,449.2149 L148.5,451.3031 L148.0495,453.4127 L148.1673,453.431 L147.3332,457.6435 L147.0459,461.9409 L146.1401,466.1422 L145.4887,470.383 L144.7538,474.6108 L144.4856,474.5763 L144.0327,478.7962 L143.9029,483.0577 L143.3159,487.2603 L142.5651,491.4418 L142.0416,495.6527 L141.8992,495.6377 L141.5093,499.7915 L140.8672,503.9188 L140.9183,508.1189 L140.6263,512.2829 L139.8639,516.3976 L140.097,516.4171 L139.8332,520.4848 L139.1264,524.5156 L138.8871,528.5853 L138.3383,532.6293 L138.1715,536.7051 L138.2975,536.7131 L138.0297,540.658 L137.914,544.6125 L137.3159,548.5363 L137.1069,552.4849 L136.9153,556.4345 L137.1122,556.4435 L136.9934,560.2482 L136.3401,564.0284 L136.3078,567.837 L136.2863,571.6461 L136.0462,575.4453 L135.7748,575.4373 L136.097,579.0801 L135.9484,582.7092 L135.6828,586.3348 L135.6846,589.9682 L135.5152,593.5967 L135.839,593.6012 L135.3277,597.025 L135.5583,600.4592 L135.4968,603.8894 L135.3729,607.3186 L135.273,610.7482 L135.3357,610.7482 L135.323,613.9504 L134.9947,617.1525 L135.0935,620.3547 L135.066,623.5569 L135.2707,626.7591 L135.2991,626.7595 L135.3475,629.7056 L135.4179,632.652 L135.2544,635.5954 L135.3914,638.5426 L135.4591,641.4889 L135.4056,641.4876 L135.7813,644.1569 L135.7806,646.8169 L135.4413,649.4684 L135.6906,652.1346 L135.789,654.797 " fill="none" style="stroke: #A9A9A9; stroke-width: 2.0; stroke-dasharray: 7.0,7.0;"/><polygon fill="#A9A9A9" points="135.957,659.891,136.0219,659.9173,136.5694,658.0138,137.4976,656.2646,138.3017,654.4651,138.6983,652.5004,139.6591,650.7644,139.6402,650.7467,138.7821,651.4931,138.0192,652.3288,137.3227,653.2265,136.3978,653.9103,135.7927,654.8937,135.9188,655.0284,134.8233,653.9671,134.0959,653.299,133.4136,652.679,132.4697,651.7797,131.6634,651.0273,131.6839,651.0372,132.5126,652.7954,133.4344,654.5987,134.3113,656.3803,135.274,658.2034,135.957,659.891" style="stroke: #A9A9A9; stroke-width: 2.0;"/><!--link packageD to packageE--><path d="M373.936,281.414 L374.011,281.4697 L371.4412,284.4675 L369.3111,287.7917 L367.0379,291.0096 L364.2937,293.8781 L362.2014,297.2303 L362.1733,297.2102 L359.5847,300.5471 L357.1375,303.9856 L354.7886,307.4947 L352.1009,310.7605 L349.8878,314.3671 L350.0903,314.5068 L347.2024,317.7695 L344.906,321.4399 L342.6817,325.1601 L340.0376,328.5909 L337.6142,332.1739 L337.6395,332.1906 L336.4168,333.9563 L335.3091,335.7982 L334.1459,337.6033 L333.0887,339.4786 L331.686,341.1252 L331.9371,341.2861 L330.803,343.063 L329.5069,344.7361 L328.4479,346.5612 L327.4,348.3934 L326,350 L325.727,349.832 L324.7306,352.6375 L322.8353,354.8899 L321.6234,357.5628 L319.7077,359.8025 L318.3689,362.3973 L318.3427,362.3818 L317.139,365.1189 L315.3234,367.4934 L313.8688,370.0818 L312.4446,372.6882 L310.8017,375.165 L310.9621,375.2571 L309.3135,377.7549 L307.9391,380.41 L306.121,382.8106 L304.9646,385.5909 L303.3683,388.1187 L303.5811,388.2374 L302.0949,390.8061 L300.7143,393.4336 L298.8429,395.7873 L297.3313,398.3418 L296.1385,401.0741 L295.8954,400.9431 L293.4015,406.0975 L290.6337,411.1042 L288.2633,416.3251 L285.2144,421.1803 L282.5688,426.2529 L282.4335,426.1827 L280.2753,430.8945 L277.5386,435.3061 L275.2133,439.9311 L273.2906,444.765 L270.651,449.227 " fill="none" style="stroke: #A9A9A9; stroke-width: 2.0; stroke-dasharray: 7.0,7.0;"/><polygon fill="#A9A9A9" points="268.369,453.715,268.4132,453.7694,269.8107,452.3657,271.4673,451.2809,273.0394,450.0922,274.3343,448.5622,276.0131,447.5047,276.005,447.48,274.8933,447.7201,273.8221,448.0844,272.779,448.535,271.639,448.6881,270.6347,449.2578,270.8102,449.315,270.0844,448.117,269.8708,447.0861,269.7197,446.0754,269.205,444.9463,268.8816,443.8795,268.9043,443.8807,268.7684,445.846,268.736,447.8168,268.6536,449.7849,268.6665,451.7581,268.369,453.715" style="stroke: #A9A9A9; stroke-width: 2.0;"/><!--link packageD to packageF--><path d="M403,281.246 L403.2802,281.246 L402.4476,291.1035 L403.2577,300.9611 L403.5329,310.8186 L402.0488,320.6761 L402.8964,330.5336 L402.4313,340.3912 L402.4887,350.2487 L402.9091,360.1062 L402.0782,369.9638 L403.7382,379.8213 L402.1596,389.6788 L402.7363,399.5364 L403.5759,409.3939 L402.8856,419.2514 L403.091,429.1089 L402.9574,438.9665 L403,448.824 " fill="none" style="stroke: #A9A9A9; stroke-width: 2.0; stroke-dasharray: 7.0,7.0;"/><polygon fill="#A9A9A9" points="403,453.856,403.064,453.8845,403.6738,451.9999,404.6589,450.2822,405.5217,448.5101,405.9827,446.5594,407,444.856,406.9817,444.8377,406.0995,445.5555,405.3096,446.3656,404.5839,447.2399,403.637,447.893,403,448.856,403.1305,448.9865,402.0514,447.9074,401.3534,447.2094,400.7018,446.5578,399.7798,445.6358,399,444.856,399.0208,444.8652,399.7903,446.6517,400.6544,448.4802,401.4728,450.2884,402.3784,452.1353,403,453.856" style="stroke: #A9A9A9; stroke-width: 2.0;"/><!--link packageD to packageG--><path d="M445.786,281.455 L445.8539,281.5191 L447.0158,282.7731 L448.5759,284.4029 L450.0063,285.9103 L451.0103,287.0152 L452.6046,288.6773 L452.5787,288.6544 L453.8222,290.0897 L455.1961,291.6402 L456.6607,293.2709 L457.8128,294.6253 L459.4026,296.3668 L459.5928,296.5228 L460.5173,297.8121 L461.9973,299.5571 L463.5451,301.3576 L464.6985,302.8348 L466.0593,304.482 L466.0836,304.5002 L467.3269,306.1734 L468.6807,307.9296 L469.9811,309.6457 L471.3832,311.4383 L472.4541,312.9818 L472.7008,313.1494 L473.9062,314.9201 L474.9526,316.5826 L476.2318,318.4034 L477.522,320.2316 L478.4663,321.8247 L478.1917,321.6593 L479.8264,323.8093 L480.5569,325.4147 L481.9748,327.4341 L482.6849,329.0271 L483.9751,330.9696 L483.9481,330.9556 L485.2446,333.0026 L485.9098,334.7219 L486.9475,336.6345 L488.0165,338.5634 L488.8599,340.3751 L489.0298,340.4482 L489.6863,342.2994 L490.6332,344.2755 L491.1103,346.0495 L492.2881,348.125 L493,350 L493.2311,350.0772 L493.9258,352.2728 L494.7353,354.5067 L495.0117,356.5625 L495.6789,358.7489 L496.6923,361.0509 L496.4243,360.9842 L497.2362,363.3337 L497.7461,365.6081 L498.6941,367.9914 L498.8942,370.1887 L499.5388,372.4966 L499.3887,372.4698 L500.0554,374.8527 L500.0805,377.1213 L500.5618,379.4712 L501.4897,381.9006 L501.6224,384.1884 L501.8147,384.2112 L502.2273,386.5848 L502.0419,388.8872 L502.6055,391.2787 L503.006,393.6508 L503.0261,395.9776 L502.8167,395.9632 L503.1449,398.3223 L503.4046,400.6767 L503.7991,403.0403 L503.6696,405.368 L503.8328,407.7157 L504.0382,407.7246 L503.5995,407.9963 L503.5572,408.2852 L504.0942,408.5991 L503.5648,408.8669 L503.8957,409.172 L504.1218,409.1808 L503.9932,409.3209 L503.7882,409.458 L503.7557,409.6019 L504.1223,409.7615 L503.9243,409.8988 " fill="none" style="stroke: #A9A9A9; stroke-width: 2.0; stroke-dasharray: 7.0,7.0;"/><polygon fill="#A9A9A9" points="503.9243,409.8988,503.9893,409.9248,504.5272,408.0185,505.4465,406.2647,506.2416,404.4612,506.6283,402.4945,507.5803,400.7537,507.5613,400.7361,506.7069,401.4868,505.9483,402.3263,505.2563,403.2275,504.3349,403.916,503.7348,404.9024,503.8602,405.0378,502.7622,403.9792,502.0305,403.3159,501.3434,402.7007,500.3964,401.805,499.5861,401.0569,499.6065,401.0669,500.4441,402.8206,501.3748,404.6199,502.2605,406.3972,503.2319,408.2164,503.9243,409.8988" style="stroke: #A9A9A9; stroke-width: 2.0;"/><!--link packageG to packageH--><path d="M504.9138,543.2951 L505.0072,543.2975 L504.7274,543.381 L504.995,543.4786 L505.0844,543.5716 L504.5875,543.6495 L504.9022,543.7483 L504.8676,543.747 L504.6996,544.1044 L504.7055,544.4681 L504.8324,544.8362 L504.5424,545.1891 L504.8363,545.5632 L505.0819,545.5786 L504.5112,546.2728 L504.6575,547.0119 L504.8912,547.7565 L504.616,548.4693 L504.6085,549.1987 L504.6386,549.2024 L504.4188,550.6459 L504.336,552.106 L504.1871,553.5581 L504.1644,555.0255 L503.7304,556.4431 L504.0185,556.5203 L503.2722,559.3188 L502.3402,562.0674 L501.6802,564.889 L501.0329,567.714 L499.9816,570.4308 L499.7014,570.2751 L498.8489,573.091 L497.0738,575.3945 L496.0001,578.0875 L494.204,580.3793 L493,583 L492.9763,582.9809 L491.9324,584.8469 L490.335,586.2661 L489.0642,587.949 L487.8208,589.654 L486.3796,591.1993 L486.5172,591.3229 L484.9755,592.7589 L483.6689,594.4061 L481.9819,595.7114 L480.8623,597.5267 L479.3655,599.003 L479.5382,599.1749 L478.0287,600.6259 L476.6049,602.1623 L474.7828,603.3022 L473.2527,604.7327 L471.9812,606.4208 L471.7953,606.2166 L470.4175,607.8097 L468.8301,609.1728 L467.5466,610.8695 L465.7443,611.9966 L464.2504,613.4622 L464.1531,613.3448 L462.7043,614.8753 L460.8397,615.904 L459.2708,617.2895 L457.9912,619.0242 L456.1964,620.137 L456.3132,620.2915 L454.7226,621.661 L452.7687,622.5501 L451.2699,624.0409 L449.6719,625.4006 L447.8429,626.4548 L447.7234,626.2822 L446.0928,627.6139 L444.423,628.889 L442.83,630.2753 L440.9383,631.2296 L439.2134,632.4252 L439.3235,632.5988 L437.3052,633.3439 L435.4994,634.4241 L434.0041,635.9938 L431.9372,636.6622 L430.3315,638.0578 L430.4453,638.2533 L428.5555,639.1981 L426.6272,640.0767 L424.7859,641.1047 L423.1454,642.4777 L421.2206,643.3624 L421.1579,643.2451 L419.4815,644.5915 L417.3782,645.1402 L415.7604,646.5959 L413.8693,647.541 L411.9044,648.3484 L411.9525,648.4461 L410.0141,649.3026 L408.2479,650.509 L406.3261,651.3993 L404.3393,652.1576 L402.4064,653.0256 L402.4556,653.1341 L400.4513,653.8484 L398.6754,655.0668 L396.6411,655.715 L394.7131,656.5978 L392.7501,657.4035 L392.646,657.154 L390.7225,658.055 L388.9246,659.2566 L386.9491,660.0328 L384.91,660.6566 L382.9591,661.4919 L382.9077,661.3583 L380.9438,662.1628 L378.8888,662.7307 L377.084,663.949 L375.1554,664.8455 L373.0569,665.3004 L373.135,665.5209 L371.1621,666.2991 L369.0407,666.6583 L367.076,667.4598 L365.0075,667.9685 L363.0671,668.8385 L363.1062,668.9585 L361.0903,669.5983 L359.1216,670.3829 L357.0031,670.7079 L355.0054,671.4037 L353.0131,672.116 L353.0697,672.3048 L351.0666,672.9628 L348.9099,673.1084 L346.9317,673.8493 L344.9566,674.6007 L342.9186,675.1424 L342.8465,674.8807 L340.938,675.8508 L338.9045,676.367 L336.8398,676.7703 L334.8462,677.4314 L332.8071,677.9275 L332.8864,678.2414 L330.752,678.3033 L328.7994,679.0845 L326.7752,679.5825 L324.7357,680.02 L322.7021,680.4807 L322.7162,680.5418 L320.6985,680.9961 L318.6096,681.1429 L316.617,681.7059 L314.596,682.1458 L312.6272,682.8119 L312.6331,682.8397 L310.6311,683.274 L308.6336,683.7297 L306.5877,683.9566 L304.604,684.4775 L302.6059,684.9306 L302.5958,684.8781 L300.6656,685.5655 L298.6641,685.8831 L296.5986,685.8682 L294.6445,686.4314 L292.6618,686.8464 L292.6196,686.5933 L288.7704,687.6251 L284.8812,688.4178 L280.964,689.0421 L276.9799,689.2647 L273.0992,690.108 L273.1268,690.3124 L269.2607,690.294 L265.5226,691.2225 L261.6985,691.5157 L257.9278,692.2033 L254.1278,692.6739 L254.1391,692.7801 L250.5117,693.2719 L246.817,693.1346 L243.2351,694.0523 L239.5827,694.3103 L235.9359,694.621 L235.9487,694.7784 L232.5181,695.2334 L229.0465,695.1857 L225.6078,695.542 L222.1644,695.84 L218.7118,696.0266 L218.717,696.1141 L215.4982,696.2144 L212.3032,696.7183 L209.0553,696.3207 L205.8723,697.0302 L202.644,696.9676 " fill="none" style="stroke: #A9A9A9; stroke-width: 2.0; stroke-dasharray: 7.0,7.0;"/><polygon fill="#A9A9A9" points="197.308,697.2023,197.3336,697.2675,199.0907,697.7943,200.9981,698.7034,202.8565,699.4879,204.554,699.8632,206.4743,700.805,206.4568,700.7859,205.544,699.936,204.7195,699.1823,203.9563,698.4955,202.9817,697.5781,202.3032,696.9837,202.4393,697.1084,202.9126,696.0076,203.7831,695.2708,204.7022,694.5784,205.3392,693.6276,206.1245,692.8127,206.1347,692.8331,204.3565,693.6811,202.6244,694.6218,200.8701,695.5178,199.1583,696.4991,197.308,697.2023" style="stroke: #A9A9A9; stroke-width: 2.0;"/><!--link packageG to packageI--><path d="M497,543.9071 L497.0934,543.9071 L496.8159,544.3167 L497.0859,544.7263 L497.1776,545.1359 L496.6829,545.5455 L497,545.9551 L496.9655,545.9551 L496.8104,546.7881 L496.8296,547.6211 L496.9697,548.4541 L496.6927,549.2871 L497,550.1201 L497.2461,550.1201 L496.7199,551.8354 L496.9121,553.5506 L497.192,555.2659 L496.9619,556.9811 L497,558.6963 L497.0303,558.6963 L496.9858,565.9646 L497.0793,573.2328 L497.1063,580.501 L497.2603,587.7693 L497,595.0375 L497.2982,595.0375 L497.3019,598.7256 L497.1132,602.4138 L497.206,606.102 L497.3121,609.7901 L497,613.4783 L496.6795,613.4783 L497.3016,613.9339 L496.8682,614.3895 L497.2372,614.8451 L496.78,615.3007 L497,615.7562 " fill="none" style="stroke: #A9A9A9; stroke-width: 2.0; stroke-dasharray: 7.0,7.0;"/><polygon fill="#A9A9A9" points="497,615.7562,497.064,615.7847,497.6738,613.9002,498.6589,612.1824,499.5217,610.4103,499.9827,608.4597,501,606.7562,500.9817,606.7379,500.0995,607.4557,499.3096,608.2659,498.5839,609.1402,497.637,609.7933,497,610.7562,497.1305,610.8867,496.0514,609.8077,495.3534,609.1096,494.7018,608.4581,493.7798,607.536,493,606.7562,493.0208,606.7655,493.7903,608.5519,494.6544,610.3804,495.4728,612.1886,496.3784,614.0355,497,615.7562" style="stroke: #A9A9A9; stroke-width: 2.0;"/><!--link claseY to claseX--><path d="M572,519.252 L572.2802,519.252 L571.4476,529.0101 L572.2577,538.7681 L572.5329,548.5262 L571.0488,558.2843 L571.8964,568.0423 L571.4313,577.8004 L571.4887,587.5585 L571.9091,597.3165 L571.0782,607.0746 L572.7382,616.8327 L571.1596,626.5907 L571.7363,636.3488 L572.5759,646.1069 L571.8856,655.8649 L572,665.623 " fill="none" style="stroke: #A9A9A9; stroke-width: 2.0; stroke-dasharray: 7.0,7.0;"/><polygon fill="#A9A9A9" points="572,670.849,572.064,670.8775,572.6738,668.9929,573.6589,667.2752,574.5217,665.5031,574.9827,663.5524,576,661.849,575.9817,661.8307,575.0995,662.5485,574.3096,663.3586,573.5839,664.2329,572.637,664.886,572,665.849,572.1305,665.9795,571.0514,664.9004,570.3534,664.2024,569.7018,663.5508,568.7798,662.6288,568,661.849,568.0208,661.8582,568.7903,663.6447,569.6544,665.4732,570.4728,667.2814,571.3784,669.1283,572,670.849" style="stroke: #A9A9A9; stroke-width: 2.0;"/><!--
@startuml
skinparam backgroundColor #222222
skinparam handwritten true
hide circle
hide stereotype
skinparam shadowing false
skinparam padding 1
skinparam arrow {
    Thickness 2
    Color #DarkGrey
    FontSize 20
    FontName courier
    FontStyle normal
    FontColor #DarkGrey
}
skinparam package {
    BorderThickness 3
    BorderColor #DarkGrey
    BorderColor<<a>> #228B22
    BackgroundColor #222222
    FontSize 20
    FontName courier
    FontStyle bold
    FontColor #DarkGrey
    FontColor<<a>> #228B22
}
skinparam class {
    BorderThickness 3
    BorderColor #DarkGrey
    BackgroundColor #222222
    FontSize 20
    FontName courier
    FontStyle bold
    FontColor #DarkGrey

}
package packageA {
}

together {
package packageB {
}
package packageC {
}
package packageD {
}
}

together {
package packageE {
}
package packageF {
}
package packageG {
    class claseY{
    }
}
}

package packageH {
}

package packageI <<a>> {
    class claseX{
    }
}

packageA .down.-> packageB
packageA .down.-> packageC
packageA .down.-> packageI
packageA .down.-> packageD
packageB .down.-> packageH
packageC .down.-> packageE
packageC .down.-> packageH
packageD .down.-> packageE
packageD .down.-> packageF
packageD .down.-> packageG
packageG .down.-> packageH
packageG .down.-> packageI
claseY ..> claseX
@enduml

PlantUML version 1.2019.05(Sat Apr 20 18:45:36 CEST 2019)
(GPL source distribution)
Java Runtime: Java(TM) SE Runtime Environment
JVM: Java HotSpot(TM) 64-Bit Server VM
Java Version: 11.0.8+10-LTS
Operating System: Windows 10
OS Version: 10.0
Default Encoding: windows-1252
Language: es
Country: ES
--></g></svg>