<?xml version="1.0" encoding="UTF-8" standalone="no"?><svg xmlns="http://www.w3.org/2000/svg" xmlns:xlink="http://www.w3.org/1999/xlink" contentScriptType="application/ecmascript" contentStyleType="text/css" height="912px" preserveAspectRatio="none" style="width:983px;height:912px;background:#222222;" version="1.1" viewBox="0 0 983 912" width="983px" zoomAndPan="magnify"><defs/><g><polygon fill="#222222" points="381.5,2,381.5,2.2102,391.3261,1.5857,401.1522,2.1933,410.9783,2.3997,420.8043,1.2866,430.6304,1.9223,440.4565,1.5735,450.2826,1.6165,460.1087,1.9318,469.9348,1.3086,479.7609,2.5536,489.587,1.3697,499.413,1.8022,509.2391,2.4319,519.0652,1.9142,528.8913,2.0682,538.7174,1.9681,548.5435,2.1785,558.3696,2.2391,568.1957,2.5857,578.0217,2.6711,587.8478,2.6793,597.6739,2.2546,607.5,2,607.9636,2,608.2022,12.7469,606.7788,23.4938,608.1785,34.2406,607.2035,44.9875,607.5,55.7344,607.5,56.2682,597.6739,55.2394,587.8478,55.6659,578.0217,56.476,568.1957,55.6856,558.3696,55.8397,548.5435,56.073,538.7174,56.1506,528.8913,55.7305,519.0652,56.0216,509.2391,55.162,499.413,56.0188,489.587,56.2826,479.7609,56.1789,469.9348,56.3474,460.1087,55.2513,450.2826,55.0822,440.4565,55.113,430.6304,55.6755,420.8043,55.5378,410.9783,56.4158,401.1522,55.5597,391.3261,55.3913,381.5,55.7344,381.7283,55.7344,380.8332,44.9875,380.9809,34.2406,382.149,23.4938,381.9357,12.7469,381.5,2" style="stroke: #222222; stroke-width: 1.5;"/><text fill="#FFA500" font-family="sans-serif" font-size="30" font-weight="bold" lengthAdjust="spacingAndGlyphs" textLength="204" x="392.5" y="41.1426">Elemento html</text><!--class html--><polygon fill="#222222" points="232.5,66.7344,232.5,66.9446,242.3,66.3201,252.1,66.9277,261.9,67.1341,271.7,66.021,281.5,66.6567,291.3,66.3079,301.1,66.3509,310.9,66.6662,320.7,66.043,330.5,67.288,340.3,66.1041,350.1,66.5366,359.9,67.1663,369.7,66.6486,379.5,66.7344,379.5682,66.7344,379.4681,77.1094,379.6785,87.4844,379.7391,97.8594,380.0857,108.2344,380.1711,118.6094,379.5,128.9844,379.5,129.6636,369.7,129.239,359.9,129.448,350.1,129.6866,340.3,128.2632,330.5,129.6629,320.7,128.6879,310.9,129.5182,301.1,128.4894,291.3,128.9159,281.5,129.726,271.7,128.9356,261.9,129.0897,252.1,129.323,242.3,129.4006,232.5,128.9844,232.4961,128.9844,232.7872,118.6094,231.9276,108.2344,232.7844,97.8594,233.0482,87.4844,232.9445,77.1094,232.5,66.7344" style="stroke: #FFFFFF; stroke-width: 1.5;"/><text fill="#222222" font-family="sans-serif" font-size="12" font-style="italic" lengthAdjust="spacingAndGlyphs" textLength="74" x="269" y="87.1914">«Reservada»</text><text fill="#FFA500" font-family="sans-serif" font-size="20" font-weight="bold" lengthAdjust="spacingAndGlyphs" textLength="135" x="238.5" y="116.5898">Elemento html</text><!--class head--><polygon fill="#222222" points="112,208.7344,112,208.9446,122.1333,208.3201,132.2667,208.9277,142.4,209.1341,152.5333,208.021,162.6667,208.6567,172.8,208.3079,182.9333,208.3509,193.0667,208.6662,203.2,208.043,213.3333,209.288,223.4667,208.1041,233.6,208.5366,243.7333,209.1663,253.8667,208.6486,264,208.7344,264.0682,208.7344,263.9681,219.1094,264.1785,229.4844,264.2391,239.8594,264.5857,250.2344,264.6711,260.6094,264,270.9844,264,271.6636,253.8667,271.239,243.7333,271.448,233.6,271.6866,223.4667,270.2632,213.3333,271.6629,203.2,270.6879,193.0667,271.5182,182.9333,270.4894,172.8,270.9159,162.6667,271.726,152.5333,270.9356,142.4,271.0897,132.2667,271.323,122.1333,271.4006,112,270.9844,111.9961,270.9844,112.2872,260.6094,111.4276,250.2344,112.2844,239.8594,112.5482,229.4844,112.4445,219.1094,112,208.7344" style="stroke: #FFFFFF; stroke-width: 1.5;"/><text fill="#222222" font-family="sans-serif" font-size="12" font-style="italic" lengthAdjust="spacingAndGlyphs" textLength="74" x="151" y="229.1914">«Reservada»</text><text fill="#FFA500" font-family="sans-serif" font-size="20" font-weight="bold" lengthAdjust="spacingAndGlyphs" textLength="140" x="118" y="258.5898">Elemento head</text><!--class body--><polygon fill="#222222" points="348,208.7344,348,208.9446,358.2,208.3201,368.4,208.9277,378.6,209.1341,388.8,208.021,399,208.6567,409.2,208.3079,419.4,208.3509,429.6,208.6662,439.8,208.043,450,209.288,460.2,208.1041,470.4,208.5366,480.6,209.1663,490.8,208.6486,501,208.7344,501.0682,208.7344,500.9681,219.1094,501.1785,229.4844,501.2391,239.8594,501.5857,250.2344,501.6711,260.6094,501,270.9844,501,271.6636,490.8,271.239,480.6,271.448,470.4,271.6866,460.2,270.2632,450,271.6629,439.8,270.6879,429.6,271.5182,419.4,270.4894,409.2,270.9159,399,271.726,388.8,270.9356,378.6,271.0897,368.4,271.323,358.2,271.4006,348,270.9844,347.9961,270.9844,348.2872,260.6094,347.4276,250.2344,348.2844,239.8594,348.5482,229.4844,348.4445,219.1094,348,208.7344" style="stroke: #FFFFFF; stroke-width: 1.5;"/><text fill="#222222" font-family="sans-serif" font-size="12" font-style="italic" lengthAdjust="spacingAndGlyphs" textLength="74" x="387.5" y="229.1914">«Reservada»</text><text fill="#FFA500" font-family="sans-serif" font-size="20" font-weight="bold" lengthAdjust="spacingAndGlyphs" textLength="141" x="354" y="258.5898">Elemento body</text><!--class informacion--><polygon fill="#222222" points="199,632.7344,199,632.9446,209.3333,632.3201,219.6667,632.9277,230,633.1341,240.3333,632.021,250.6667,632.6567,261,632.3079,271.3333,632.3509,281.6667,632.6662,292,632.043,302.3333,633.288,312.6667,632.1041,323,632.7344,322.9341,632.7344,323.144,640.9656,322.9714,649.1969,323.0227,657.4281,322.9894,665.6594,323,673.8906,323,674.0692,312.6667,674.1298,302.3333,674.4763,292,674.5617,281.6667,674.5699,271.3333,674.1453,261,674.3542,250.6667,674.5929,240.3333,673.1694,230,674.5691,219.6667,673.5941,209.3333,674.4244,199,673.8906,198.835,673.8906,198.9772,665.6594,199.2472,657.4281,198.9838,649.1969,199.0351,640.9656,199,632.7344" style="stroke: #FFFFFF; stroke-width: 1.5;"/><text fill="#FFFFFF" font-family="sans-serif" font-size="20" font-weight="bold" lengthAdjust="spacingAndGlyphs" textLength="112" x="205" y="661.4961">Información</text><!--class informacionHiperenlazada--><polygon fill="#222222" points="21.5,834.7344,21.5,834.9446,31.7143,834.3201,41.9286,834.9277,52.1429,835.1341,62.3571,834.021,72.5714,834.6567,82.7857,834.3079,93,834.3509,103.2143,834.6662,113.4286,834.043,123.6429,835.288,133.8571,834.1041,144.0714,834.5366,154.2857,835.1663,164.5,834.7344,164.4142,834.7344,164.5682,844.2076,164.4681,853.6808,164.6785,863.154,164.7391,872.6272,165.0857,882.1004,165.1711,891.5737,164.5,901.0469,164.5,901.7261,154.2857,901.3015,144.0714,901.5105,133.8571,901.7491,123.6429,900.3257,113.4286,901.7254,103.2143,900.7504,93,901.5807,82.7857,900.5519,72.5714,900.9784,62.3571,901.7885,52.1429,900.9981,41.9286,901.1522,31.7143,901.3855,21.5,901.0469,21.9162,901.0469,21.4961,891.5737,21.7872,882.1004,20.9276,872.6272,21.7844,863.154,22.0482,853.6808,21.9445,844.2076,21.5,834.7344" style="stroke: #FFFFFF; stroke-width: 1.5;"/><text fill="#FFFFFF" font-family="sans-serif" font-size="20" font-weight="bold" lengthAdjust="spacingAndGlyphs" textLength="112" x="37" y="863.4961">Información</text><text fill="#FFFFFF" font-family="sans-serif" font-size="20" font-weight="bold" lengthAdjust="spacingAndGlyphs" textLength="131" x="27.5" y="888.6523">hiperenlazada</text><!--class Texto--><polygon fill="#222222" points="6,733.7344,6,733.9446,15.4286,733.3201,24.8571,733.9277,34.2857,734.1341,43.7143,733.021,53.1429,733.6567,62.5714,733.3079,72,733.7344,71.8722,733.7344,71.9773,741.9656,71.7695,750.1969,72.1845,758.4281,71.7899,766.6594,72,774.8906,72,774.6929,62.5714,775.3226,53.1429,774.8048,43.7143,774.9589,34.2857,774.8587,24.8571,775.0692,15.4286,775.1298,6,774.8906,6.1952,774.8906,6.2237,766.6594,6.2264,758.4281,6.0849,750.1969,6.1545,741.9656,6,733.7344" style="stroke: #FFFFFF; stroke-width: 1.5;"/><text fill="#FFFFFF" font-family="sans-serif" font-size="20" font-weight="bold" lengthAdjust="spacingAndGlyphs" textLength="54" x="12" y="762.4961">Texto</text><!--class Imagen--><polygon fill="#222222" points="107,733.7344,107,733.9446,117,733.3201,127,733.9277,137,734.1341,147,733.021,157,733.6567,167,733.3079,177,733.3509,187,733.7344,186.9773,733.7344,186.7695,741.9656,187.1845,750.1969,186.7899,758.4281,186.9341,766.6594,187,774.8906,187,775.3226,177,774.8048,167,774.9589,157,774.8587,147,775.0692,137,775.1298,127,775.4763,117,775.5617,107,774.8906,107.2264,774.8906,107.0849,766.6594,107.1545,758.4281,107.2341,750.1969,106.7596,741.9656,107,733.7344" style="stroke: #FFFFFF; stroke-width: 1.5;"/><text fill="#FFFFFF" font-family="sans-serif" font-size="20" font-weight="bold" lengthAdjust="spacingAndGlyphs" textLength="68" x="113" y="762.4961">Imagen</text><!--class Sonido--><polygon fill="#222222" points="222,733.7344,222,733.9446,231.75,733.3201,241.5,733.9277,251.25,734.1341,261,733.021,270.75,733.6567,280.5,733.3079,290.25,733.3509,300,733.7344,299.9773,733.7344,299.7695,741.9656,300.1845,750.1969,299.7899,758.4281,299.9341,766.6594,300,774.8906,300,775.3226,290.25,774.8048,280.5,774.9589,270.75,774.8587,261,775.0692,251.25,775.1298,241.5,775.4763,231.75,775.5617,222,774.8906,222.2264,774.8906,222.0849,766.6594,222.1545,758.4281,222.2341,750.1969,221.7596,741.9656,222,733.7344" style="stroke: #FFFFFF; stroke-width: 1.5;"/><text fill="#FFFFFF" font-family="sans-serif" font-size="20" font-weight="bold" lengthAdjust="spacingAndGlyphs" textLength="66" x="228" y="762.4961">Sonido</text><!--class Video--><polygon fill="#222222" points="335.5,733.7344,335.5,733.9446,344.7857,733.3201,354.0714,733.9277,363.3571,734.1341,372.6429,733.021,381.9286,733.6567,391.2143,733.3079,400.5,733.7344,400.3722,733.7344,400.4773,741.9656,400.2695,750.1969,400.6845,758.4281,400.2899,766.6594,400.5,774.8906,400.5,774.6929,391.2143,775.3226,381.9286,774.8048,372.6429,774.9589,363.3571,774.8587,354.0714,775.0692,344.7857,775.1298,335.5,774.8906,335.6952,774.8906,335.7237,766.6594,335.7264,758.4281,335.5849,750.1969,335.6545,741.9656,335.5,733.7344" style="stroke: #FFFFFF; stroke-width: 1.5;"/><text fill="#FFFFFF" font-family="sans-serif" font-size="20" font-weight="bold" lengthAdjust="spacingAndGlyphs" textLength="53" x="341.5" y="762.4961">Video</text><!--class estructura--><polygon fill="#222222" points="370,512.2344,370,512.4446,380,511.8201,390,512.4277,400,512.6341,410,511.521,420,512.1567,430,511.8079,440,511.8509,450,512.1662,460,511.543,470,512.788,480,512.2344,479.7899,512.2344,479.9341,520.4656,480.144,528.6969,479.9714,536.9281,480.0227,545.1594,480,553.3906,480,553.3587,470,553.5692,460,553.6298,450,553.9763,440,554.0617,430,554.0699,420,553.6453,410,553.8542,400,554.0929,390,552.6694,380,554.0691,370,553.3906,369.9012,553.3906,370.1779,545.1594,369.835,536.9281,369.9772,528.6969,370.2472,520.4656,370,512.2344" style="stroke: #FFFFFF; stroke-width: 1.5;"/><text fill="#FFFFFF" font-family="sans-serif" font-size="20" font-style="italic" font-weight="bold" lengthAdjust="spacingAndGlyphs" textLength="98" x="376" y="540.9961">Estructura</text><!--class enLinea--><polygon fill="#222222" points="380.5,632.7344,380.5,632.9446,390.3889,632.3201,400.2778,632.9277,410.1667,633.1341,420.0556,632.021,429.9444,632.6567,439.8333,632.3079,449.7222,632.3509,459.6111,632.6662,469.5,632.7344,469.2695,632.7344,469.6845,640.9656,469.2899,649.1969,469.4341,657.4281,469.644,665.6594,469.5,673.8906,469.5,673.8048,459.6111,673.9589,449.7222,673.8587,439.8333,674.0692,429.9444,674.1298,420.0556,674.4763,410.1667,674.5617,400.2778,674.5699,390.3889,674.1453,380.5,673.8906,380.6545,673.8906,380.7341,665.6594,380.2596,657.4281,380.7262,649.1969,380.4012,640.9656,380.5,632.7344" style="stroke: #FFFFFF; stroke-width: 1.5;"/><text fill="#FFFFFF" font-family="sans-serif" font-size="20" font-style="italic" font-weight="bold" lengthAdjust="spacingAndGlyphs" textLength="77" x="386.5" y="661.4961">En linea</text><!--class enBloque--><polygon fill="#222222" points="576,632.7344,576,632.9446,585.8182,632.3201,595.6364,632.9277,605.4545,633.1341,615.2727,632.021,625.0909,632.6567,634.9091,632.3079,644.7273,632.3509,654.5455,632.6662,664.3636,632.043,674.1818,633.288,684,632.7344,683.7899,632.7344,683.9341,640.9656,684.144,649.1969,683.9714,657.4281,684.0227,665.6594,684,673.8906,684,673.8587,674.1818,674.0692,664.3636,674.1298,654.5455,674.4763,644.7273,674.5617,634.9091,674.5699,625.0909,674.1453,615.2727,674.3542,605.4545,674.5929,595.6364,673.1694,585.8182,674.5691,576,673.8906,575.9012,673.8906,576.1779,665.6594,575.835,657.4281,575.9772,649.1969,576.2472,640.9656,576,632.7344" style="stroke: #FFFFFF; stroke-width: 1.5;"/><text fill="#FFFFFF" font-family="sans-serif" font-size="20" font-style="italic" font-weight="bold" lengthAdjust="spacingAndGlyphs" textLength="96" x="582" y="661.4961">En bloque</text><!--class interaccion--><polygon fill="#222222" points="435,371.2344,435,371.4446,444.6667,370.8201,454.3333,371.4277,464,371.6341,473.6667,370.521,483.3333,371.1567,493,370.8079,502.6667,370.8509,512.3333,371.1662,522,370.543,531.6667,371.788,541.3333,370.6041,551,371.2344,550.9341,371.2344,551.144,379.4656,550.9714,387.6969,551.0227,395.9281,550.9894,404.1594,551,412.3906,551,412.5692,541.3333,412.6298,531.6667,412.9763,522,413.0617,512.3333,413.0699,502.6667,412.6453,493,412.8542,483.3333,413.0929,473.6667,411.6694,464,413.0691,454.3333,412.0941,444.6667,412.9244,435,412.3906,434.835,412.3906,434.9772,404.1594,435.2472,395.9281,434.9838,387.6969,435.0351,379.4656,435,371.2344" style="stroke: #FFFFFF; stroke-width: 1.5;"/><text fill="#FFFFFF" font-family="sans-serif" font-size="20" font-style="italic" font-weight="bold" lengthAdjust="spacingAndGlyphs" textLength="104" x="441" y="399.9961">Formulario</text><!--class parrafo--><polygon fill="#222222" points="436,733.7344,436,733.9446,446.25,733.3201,456.5,733.9277,466.75,734.1341,477,733.021,487.25,733.6567,497.5,733.3079,507.75,733.3509,518,733.7344,517.9773,733.7344,517.7695,741.9656,518.1845,750.1969,517.7899,758.4281,517.9341,766.6594,518,774.8906,518,775.3226,507.75,774.8048,497.5,774.9589,487.25,774.8587,477,775.0692,466.75,775.1298,456.5,775.4763,446.25,775.5617,436,774.8906,436.2264,774.8906,436.0849,766.6594,436.1545,758.4281,436.2341,750.1969,435.7596,741.9656,436,733.7344" style="stroke: #FFFFFF; stroke-width: 1.5;"/><text fill="#FFFFFF" font-family="sans-serif" font-size="20" font-weight="bold" lengthAdjust="spacingAndGlyphs" textLength="70" x="442" y="762.4961">Párrafo</text><!--class lista--><polygon fill="#222222" points="553,733.7344,553,733.9446,562.6667,733.3201,572.3333,733.9277,582,734.1341,591.6667,733.021,601.3333,733.6567,611,733.7344,610.8578,733.7344,610.8722,741.9656,610.9773,750.1969,610.7695,758.4281,611.1845,766.6594,611,774.8906,611,774.2603,601.3333,774.6929,591.6667,775.3226,582,774.8048,572.3333,774.9589,562.6667,774.8587,553,774.8906,553.0595,774.8906,553.0797,766.6594,553.1952,758.4281,553.2237,750.1969,553.2264,741.9656,553,733.7344" style="stroke: #FFFFFF; stroke-width: 1.5;"/><text fill="#FFFFFF" font-family="sans-serif" font-size="20" font-weight="bold" lengthAdjust="spacingAndGlyphs" textLength="46" x="559" y="762.4961">Lista</text><!--class tabla--><polygon fill="#222222" points="646,733.7344,646,733.9446,656.6667,733.3201,667.3333,733.9277,678,734.1341,688.6667,733.021,699.3333,733.6567,710,733.7344,709.8578,733.7344,709.8722,741.9656,709.9773,750.1969,709.7695,758.4281,710.1845,766.6594,710,774.8906,710,774.2603,699.3333,774.6929,688.6667,775.3226,678,774.8048,667.3333,774.9589,656.6667,774.8587,646,774.8906,646.0595,774.8906,646.0797,766.6594,646.1952,758.4281,646.2237,750.1969,646.2264,741.9656,646,733.7344" style="stroke: #FFFFFF; stroke-width: 1.5;"/><text fill="#FFFFFF" font-family="sans-serif" font-size="20" font-weight="bold" lengthAdjust="spacingAndGlyphs" textLength="52" x="652" y="762.4961">Tabla</text><!--class grafico--><polygon fill="#222222" points="745,733.7344,745,733.9446,755.25,733.3201,765.5,733.9277,775.75,734.1341,786,733.021,796.25,733.6567,806.5,733.3079,816.75,733.3509,827,733.7344,826.9773,733.7344,826.7695,741.9656,827.1845,750.1969,826.7899,758.4281,826.9341,766.6594,827,774.8906,827,775.3226,816.75,774.8048,806.5,774.9589,796.25,774.8587,786,775.0692,775.75,775.1298,765.5,775.4763,755.25,775.5617,745,774.8906,745.2264,774.8906,745.0849,766.6594,745.1545,758.4281,745.2341,750.1969,744.7596,741.9656,745,733.7344" style="stroke: #FFFFFF; stroke-width: 1.5;"/><text fill="#FFFFFF" font-family="sans-serif" font-size="20" font-weight="bold" lengthAdjust="spacingAndGlyphs" textLength="70" x="751" y="762.4961">Gráfico</text><!--class semantica--><polygon fill="#222222" points="862,733.7344,862,733.9446,872,733.3201,882,733.9277,892,734.1341,902,733.021,912,733.6567,922,733.3079,932,733.3509,942,733.6662,952,733.043,962,734.288,972,733.7344,971.7899,733.7344,971.9341,741.9656,972.144,750.1969,971.9714,758.4281,972.0227,766.6594,972,774.8906,972,774.8587,962,775.0692,952,775.1298,942,775.4763,932,775.5617,922,775.5699,912,775.1453,902,775.3542,892,775.5929,882,774.1694,872,775.5691,862,774.8906,861.9012,774.8906,862.1779,766.6594,861.835,758.4281,861.9772,750.1969,862.2472,741.9656,862,733.7344" style="stroke: #FFFFFF; stroke-width: 1.5;"/><text fill="#FFFFFF" font-family="sans-serif" font-size="20" font-weight="bold" lengthAdjust="spacingAndGlyphs" textLength="98" x="868" y="762.4961">Semántica</text><!--link html to head--><path d="M272.19,138.8544 L272.4043,139.035 L265.5051,145.9271 L259.862,153.878 L253.8099,161.4841 L246.4127,167.9563 L240.7983,175.9313 L234.1802,183.0604 L227.9616,190.5261 L222.09,198.2844 " fill="none" style="stroke: #FFFFFF; stroke-width: 1.0;"/><polygon fill="#FFFFFF" points="213.68,208.2644,213.7106,208.3274,215.3917,207.2799,217.2522,206.6019,219.0542,205.8036,220.6642,204.6097,222.5401,203.9634,222.5379,203.9376,221.4008,203.9175,220.2747,204.0275,219.1562,204.2281,218.0114,204.1168,216.9036,204.4422,217.0874,204.4579,216.5984,203.2971,216.6463,202.182,216.7597,201.0725,216.492,199.9306,216.4247,198.8057,216.4465,198.812,215.8655,200.6945,215.384,202.6057,214.8544,204.5031,214.4164,206.427,213.68,208.2644" style="stroke: #FFFFFF; stroke-width: 1.0;"/><path d="M216.9036,204.4422 L216.975,204.5025 L217.7941,203.1009 L219.0318,202.0525 L220.1332,200.8891 L220.7864,199.3475 L222.06,198.3294 " fill="#FFFFFF" style="stroke: #FFFFFF; stroke-width: 1.0;"/><polygon fill="#FFFFFF" points="280.69,128.7644,280.7095,128.8317,279.2664,129.0333,277.9376,129.6293,276.5715,130.097,275.083,130.1422,273.764,130.7721,273.7383,130.7692,273.4607,132.1892,273.3128,133.6239,273.2551,135.0688,272.8866,136.4785,272.9535,137.9375,273.0049,138.1147,274.2802,137.3342,275.7055,137.0711,277.1491,136.8712,278.4863,136.3039,279.8794,135.9298,279.902,135.9323,280.031,134.4955,280.2628,133.0703,280.445,131.6395,280.7219,130.2194,280.69,128.7644" style="stroke: #FFFFFF; stroke-width: 1.0;"/><text fill="#000000" font-family="sans-serif" font-size="13" lengthAdjust="spacingAndGlyphs" textLength="7" x="207.2163" y="194.9384">1</text><!--link html to body--><path d="M340.1,138.8544 L340.3135,139.0359 L345.9941,145.9253 L352.9264,153.8788 L359.451,161.4858 L364.6353,167.9533 L371.5961,175.931 L377.5567,183.0586 L383.9154,190.5244 L390.62,198.2844 " fill="none" style="stroke: #FFFFFF; stroke-width: 1.0;"/><polygon fill="#FFFFFF" points="399.1,208.2644,399.1672,208.2842,398.4114,206.3357,398.0495,204.5033,397.5594,202.6331,396.6473,200.6387,396.3193,198.8162,396.2935,198.8141,396.0861,199.9324,396.0089,201.0612,396.0222,202.1974,395.7237,203.3082,395.8619,204.4545,395.8768,204.6385,394.7173,204.1537,393.6013,204.2059,392.4906,204.3236,391.3489,204.0601,390.2236,203.9971,390.2334,204.0176,391.9943,204.841,393.7999,205.7577,395.584,206.6293,397.4093,207.5869,399.1,208.2644" style="stroke: #FFFFFF; stroke-width: 1.0;"/><path d="M395.8619,204.4545 L395.9331,204.515 L394.6862,203.1163 L393.8566,202.0721 L392.8912,200.9124 L391.4787,199.3732 L390.685,198.3594 " fill="#FFFFFF" style="stroke: #FFFFFF; stroke-width: 1.0;"/><polygon fill="#FFFFFF" points="331.53,128.7644,331.5996,128.7726,331.5616,130.1805,331.9315,131.6365,332.1686,133.0769,331.9689,134.4658,332.3738,135.9259,332.3667,135.901,333.7219,136.1843,335.1129,136.5932,336.5287,137.0894,337.8589,137.2847,339.3091,137.9015,339.4923,137.9231,338.9316,136.4446,338.906,135.0291,338.9457,133.6214,338.6056,132.1689,338.4652,130.7399,338.4715,130.7618,337.0753,130.3346,335.7074,130.0069,334.3259,129.6312,332.9705,129.3472,331.53,128.7644" style="stroke: #FFFFFF; stroke-width: 1.0;"/><text fill="#000000" font-family="sans-serif" font-size="13" lengthAdjust="spacingAndGlyphs" textLength="7" x="383.2184" y="194.9384">1</text><!--link body to estructura--><path d="M409.48,283.5544 L409.5693,283.5818 L408.332,286.6605 L407.618,289.9001 L406.7337,293.0873 L405.2888,296.1022 L404.6198,299.3556 L404.5865,299.3465 L403.5158,302.6759 L402.613,306.0512 L401.827,309.4584 L400.6386,312.7556 L400.0138,316.2069 L400.2535,316.2622 L398.9422,319.6079 L398.3309,323.1151 L397.805,326.642 L396.7822,330.0543 L396.0208,333.5269 L396.0507,333.5321 L395.4026,336.9659 L394.8906,340.4236 L394.313,343.8698 L393.8605,347.3379 L393,350.7344 L393.2955,350.775 L392.962,353.2263 L392.438,355.6514 L392.1929,358.1149 L391.9609,360.5802 L391.3147,362.9885 L390.9964,362.9508 L391.367,365.1111 L390.6896,367.1473 L390.809,369.2778 L390.1078,371.3112 L390.0792,373.4242 L390.0488,373.4224 L390.1966,377.011 L389.6344,380.5575 L389.4912,384.1288 L389.3831,387.7023 L389.0213,391.2606 L389.206,391.2703 L389.2058,394.8252 L389.5213,398.3966 L389.326,401.9413 L389.8926,405.5258 L389.9527,409.0839 L390.1946,409.113 L390.3991,411.1913 L390.7237,413.2841 L390.4902,415.3099 L390.6659,417.3848 L391.2039,419.5032 L390.9307,419.4631 L391.5372,421.9457 L391.8359,424.383 L392.5812,426.8859 L392.564,429.2769 L393,431.7344 L392.8504,431.7051 L393.7904,435.2878 L394.0909,438.7454 L394.8462,442.292 L396.0466,445.9256 L396.4544,449.4042 L396.6417,449.4531 L397.6929,453.0219 L398.1612,456.4387 L399.3595,460.0459 L400.3988,463.6116 L401.0675,467.0806 L400.867,467.0183 L402.0807,470.4581 L403.2287,473.8776 L404.5057,477.3371 L405.2812,480.6407 L406.3369,484.0314 L406.5309,484.0993 L407.1892,487.0487 L408.222,490.1291 L409.802,493.4011 L410.3746,496.3205 L411.76,499.5244 " fill="none" style="stroke: #FFFFFF; stroke-width: 1.0;"/><polygon fill="#FFFFFF" points="416.47,511.8944,416.54,511.8982,416.4393,509.92,416.7487,507.9642,416.9246,506.0011,416.6613,504.014,417.0059,502.0601,416.9823,502.0495,416.4132,503.0342,415.9633,504.0724,415.5962,505.1477,414.9437,506.095,414.6909,507.2216,414.7665,507.39,413.5727,506.5669,412.5994,506.2354,411.653,505.964,410.5501,505.3435,409.5295,504.9066,409.5456,504.9226,410.91,506.2967,412.3479,507.7437,413.7503,509.1554,415.2204,510.6344,416.47,511.8944" style="stroke: #FFFFFF; stroke-width: 1.0;"/><path d="M414.6909,507.2216 L414.7782,507.2548 L413.9497,505.6606 L413.6328,504.2613 L413.1494,502.7984 L412.1179,501.127 L411.845,499.7444 " fill="#FFFFFF" style="stroke: #FFFFFF; stroke-width: 1.0;"/><polygon fill="#FFFFFF" points="413.66,271.0444,413.703,271.0997,412.4365,271.8204,411.4221,272.8653,410.3256,273.8047,408.9592,274.3968,407.9664,275.4696,407.9414,275.4628,408.2082,276.8238,408.601,278.2191,409.0814,279.6382,409.26,280.9752,409.8613,282.4273,409.9746,282.573,410.8711,281.3763,412.0983,280.6051,413.3659,279.8858,414.3987,278.8645,415.5549,278.002,415.5769,278.008,415.1657,276.6077,414.8544,275.2346,414.4949,273.8484,414.2274,272.4872,413.66,271.0444" style="stroke: #FFFFFF; stroke-width: 1.0;"/><text fill="#000000" font-family="sans-serif" font-size="13" lengthAdjust="spacingAndGlyphs" textLength="5" x="404.8748" y="498.2555">*</text><!--link body to interaccion--><path d="M444.09,282.9744 L444.3454,283.0897 L447.864,292.217 L452.8799,302.0205 L457.4082,311.6037 L460.3331,320.4628 L465.3831,330.2817 L469.2368,339.5603 L473.5665,349.0539 L478.31,358.7344 " fill="none" style="stroke: #FFFFFF; stroke-width: 1.0;"/><polygon fill="#FFFFFF" points="483.78,370.8344,483.8501,370.8348,483.6309,368.8639,483.8224,366.8953,483.8802,364.9259,483.4982,362.9541,483.725,360.9857,483.7008,360.9765,483.1918,361.9936,482.805,363.0569,482.5031,364.1523,481.9085,365.137,481.7238,366.2767,481.7891,366.4493,480.5913,365.68,479.5841,365.4146,478.6001,365.2107,477.4809,364.649,476.4328,364.2755,476.4479,364.2925,477.8951,365.5794,479.4113,366.9435,480.8942,368.2703,482.4406,369.6682,483.78,370.8344" style="stroke: #FFFFFF; stroke-width: 1.0;"/><path d="M481.7238,366.2767 L481.8089,366.3152 L480.8963,364.7424 L480.4826,363.3952 L479.9064,361.9745 L478.7959,360.3122 L478.425,358.9844 " fill="#FFFFFF" style="stroke: #FFFFFF; stroke-width: 1.0;"/><polygon fill="#FFFFFF" points="438.6,270.8244,438.6691,270.8359,438.2274,272.2245,438.1908,273.6804,438.0223,275.1144,437.4199,276.4763,437.4181,277.938,437.4043,277.916,438.565,278.5829,439.7949,279.3604,441.0731,280.2149,442.1852,280.8042,443.5299,281.765,443.7119,281.7952,443.559,280.3078,443.9376,278.9087,444.3811,277.5204,444.4472,276.0694,444.7118,274.6514,444.7239,274.6707,443.4838,273.877,442.2987,273.171,441.087,272.4227,439.926,271.7552,438.6,270.8244" style="stroke: #FFFFFF; stroke-width: 1.0;"/><text fill="#000000" font-family="sans-serif" font-size="13" lengthAdjust="spacingAndGlyphs" textLength="5" x="472.008" y="357.1801">*</text><!--link estructura to informacion--><path d="M387.71,561.0644 L387.8737,561.2919 L379.331,566.4123 L371.7478,572.8663 L363.8521,578.886 L354.929,583.4777 L347.3677,589.9621 L339.0397,595.381 L331.0168,601.2239 L323.206,607.3615 L314.6644,612.4834 L307.5775,619.6272 L299.09,624.8244 " fill="none" style="stroke: #FFFFFF; stroke-width: 1.0;"/><polygon fill="#FFFFFF" points="288.25,632.6244,288.2644,632.6929,290.1497,632.0856,292.1192,631.8802,294.0612,631.5439,295.9132,630.7771,297.8899,630.6063,297.8857,630.5807,296.7503,630.2848,295.6359,630.1178,294.5359,630.0404,293.3859,629.6542,292.306,629.7005,292.4882,629.7301,292.2798,628.5501,292.6032,627.4564,292.9916,626.3733,293.0024,625.2289,293.2117,624.1167,293.2314,624.1281,292.2102,625.8128,291.2784,627.5497,290.3036,629.2614,289.411,631.0212,288.25,632.6244" style="stroke: #FFFFFF; stroke-width: 1.0;"/><path d="M292.306,629.7005 L292.3605,629.7764 L293.4974,628.6178 L294.9537,627.9038 L296.3061,627.0451 L297.3162,625.7101 L298.8,625.0344 " fill="#FFFFFF" style="stroke: #FFFFFF; stroke-width: 1.0;"/><polygon fill="#FFFFFF" points="398.29,553.4544,398.2925,553.5244,396.8438,553.3669,395.4096,553.6199,393.9707,553.7392,392.5163,553.4189,391.0833,553.7071,391.0591,553.698,390.4426,555.007,389.9483,556.3619,389.539,557.7488,388.8368,559.0256,388.5448,560.4566,388.5513,560.6411,389.9788,560.1961,391.4252,560.2897,392.8739,560.4489,394.3092,560.2259,395.7515,560.2039,395.7728,560.2119,396.2492,558.8502,396.8226,557.525,397.3492,556.1822,397.965,554.873,398.29,553.4544" style="stroke: #FFFFFF; stroke-width: 1.0;"/><!--link interaccion to estructura--><path d="M477.92,424.0644 L478.1717,424.1875 L472.7638,433.3453 L468.8315,443.2251 L464.4187,452.8698 L458.4256,461.7413 L454.5269,471.6376 L449.4492,480.9569 L444.8407,490.5059 L440.64,500.2544 " fill="none" style="stroke: #FFFFFF; stroke-width: 1.0;"/><polygon fill="#FFFFFF" points="434.86,512.0744,434.905,512.1281,436.2813,510.7036,437.9214,509.594,439.4756,508.3819,440.7473,506.8326,442.41,505.7501,442.4016,505.7256,441.2937,505.9823,440.228,506.3626,439.1918,506.8288,438.0542,506.999,437.0586,507.5837,437.2332,507.6435,436.4931,506.4453,436.2628,505.4218,436.0946,504.4195,435.5647,503.2933,435.225,502.2323,435.2477,502.2331,435.1413,504.2003,435.1384,506.1713,435.0856,508.1405,435.1281,510.1132,434.86,512.0744" style="stroke: #FFFFFF; stroke-width: 1.0;"/><path d="M437.0586,507.5837 L437.1425,507.6248 L437.5965,506.0668 L438.5423,504.7498 L439.328,503.3542 L439.587,501.7008 L440.575,500.4044 " fill="#FFFFFF" style="stroke: #FFFFFF; stroke-width: 1.0;"/><polygon fill="#FFFFFF" points="483.69,412.2744,483.7253,412.3349,482.3743,412.881,481.2301,413.782,480.0185,414.5674,478.5856,414.9728,477.4591,415.9043,477.4335,415.9009,477.5091,417.315,477.7141,418.7464,478.0091,420.1899,477.9941,421.5919,478.4133,423.052,478.5062,423.2114,479.5537,422.1445,480.8725,421.5431,482.2243,420.9984,483.3836,420.1233,484.6442,419.4221,484.6667,419.4251,484.4428,417.9911,484.3215,416.5709,484.1507,415.144,484.0744,413.7297,483.69,412.2744" style="stroke: #FFFFFF; stroke-width: 1.0;"/><!--link informacion to Texto--><path d="M198.61,682.0544 L198.7241,682.3103 L189.3614,685.5741 L180.6678,690.3383 L171.7563,694.6139 L162.1283,697.2828 L153.4499,702.0812 L144.237,705.6807 L135.2367,709.7574 L126.3844,714.1657 L117.0224,717.4311 L108.675,722.9714 L99.0084,725.554 L90.2197,730.105 L81.5382,734.8961 L72.28,738.3944 " fill="none" style="stroke: #FFFFFF; stroke-width: 1.0;"/><polygon fill="none" points="196.02,675.5444,196.0258,675.6142,200.2326,675.0567,204.4733,674.9086,208.703,674.6271,212.8964,673.9074,217.14,673.7944,217.1222,673.7755,213.9585,676.5989,210.8843,679.5174,207.8724,682.5018,204.6459,685.2587,201.72,688.3344,201.8886,688.4095,200.3881,685.6909,199.3798,683.1915,198.4315,680.719,197.1339,678.0907,196.02,675.5444" style="stroke: #FFFFFF; stroke-width: 1.0;"/><!--link informacion to Imagen--><path d="M223.17,687.0944 L223.3537,687.306 L215.1378,693.3373 L207.999,700.609 L200.5094,707.4768 L191.8664,713.0162 L184.7521,720.3161 L176.7772,726.625 L169.48,733.7144 " fill="none" style="stroke: #FFFFFF; stroke-width: 1.0;"/><polygon fill="none" points="218.79,681.6244,218.8159,681.6895,222.677,679.93,226.6898,678.5522,230.6532,677.0502,234.4541,675.1394,238.48,673.7944,238.4575,673.7815,236.2546,677.4039,234.165,681.091,232.1543,684.8231,229.8719,688.4001,227.97,692.1944,228.1093,692.3154,225.9754,689.9426,224.2482,687.9231,222.5707,685.9468,220.6044,683.7196,218.79,681.6244" style="stroke: #FFFFFF; stroke-width: 1.0;"/><!--link informacion to Sonido--><path d="M261,693.8444 L261.0934,693.8444 L260.8159,701.8184 L261.0859,709.7924 L261.1776,717.7664 L260.6829,725.7404 L261,733.7144 " fill="none" style="stroke: #FFFFFF; stroke-width: 1.0;"/><polygon fill="none" points="254,693.7944,254.0661,693.8175,255.2696,689.7488,256.8608,685.8157,258.3257,681.8384,259.3756,677.7158,261,673.7944,260.9755,673.7858,262.2658,677.7474,263.6793,681.7521,265.1786,685.7869,266.3825,689.7182,268,693.7944,268,693.9789,265.2,693.5843,262.4,693.7285,259.6,693.9384,256.8,693.7658,254,693.7944" style="stroke: #FFFFFF; stroke-width: 1.0;"/><!--link informacion to Video--><path d="M297.02,687.5644 L297.2103,687.7701 L303.7705,693.7517 L311.4465,700.9393 L318.7591,707.7341 L324.8769,713.2376 L332.5782,720.4526 L339.3881,726.7041 L346.9,733.7144 " fill="none" style="stroke: #FFFFFF; stroke-width: 1.0;"/><polygon fill="none" points="292.07,692.5144,292.1319,692.5472,289.962,688.7057,288.1549,685.0566,286.2297,681.3448,283.9159,677.4269,282.14,673.7944,282.1297,673.7706,285.9694,675.352,289.8611,677.0531,293.7889,678.8375,297.5922,680.335,301.57,682.2344,301.7055,682.3596,299.5157,684.1478,297.7216,686.3016,295.9757,688.5001,293.949,690.439,292.07,692.5144" style="stroke: #FFFFFF; stroke-width: 1.0;"/><!--link Texto to informacionHiperenlazada--><path d="M57.35,793.1244 L57.6022,793.2465 L60.8688,801.1776 L65.614,809.8247 L69.8776,818.2386 L72.5579,825.8858 L77.43,834.5944 " fill="none" style="stroke: #FFFFFF; stroke-width: 1.0;"/><polygon fill="none" points="50.95,795.9644,51.0196,795.9724,50.3288,791.7386,50.046,787.5517,49.6304,783.3496,48.7778,779.0972,48.53,774.9144,48.5117,774.896,51.4337,777.8036,54.4478,780.8038,57.526,783.8683,60.3834,786.711,63.55,789.8644,63.6304,790.0305,60.9385,790.8953,58.4813,792.245,56.0527,793.654,53.4575,794.7186,50.95,795.9644" style="stroke: #FFFFFF; stroke-width: 1.0;"/><!--link Imagen to informacionHiperenlazada--><path d="M128.65,793.1244 L128.9022,793.2465 L124.1368,801.1776 L120.85,809.8247 L117.0816,818.2386 L111.7299,825.8858 L108.57,834.5944 " fill="none" style="stroke: #FFFFFF; stroke-width: 1.0;"/><polygon fill="none" points="122.45,789.8644,122.4994,789.914,125.3566,786.7765,128.5035,783.93,131.556,780.9888,134.2982,777.7358,137.47,774.9144,137.4443,774.9114,136.8448,779.1081,136.375,783.3198,135.9954,787.5418,135.3051,791.7281,135.05,795.9644,135.1304,796.1305,132.4385,794.5553,129.9813,793.465,127.5527,792.434,124.9575,791.0586,122.45,789.8644" style="stroke: #FFFFFF; stroke-width: 1.0;"/><!--link estructura to enLinea--><path d="M425,573.5244 L425.2802,573.5244 L424.4476,583.3744 L425.2577,593.2244 L425.5329,603.0744 L424.0488,612.9244 L424.8964,622.7744 L425,632.6244 " fill="none" style="stroke: #FFFFFF; stroke-width: 1.0;"/><polygon fill="none" points="418,573.4544,418.0661,573.4775,419.2696,569.4088,420.8608,565.4757,422.3257,561.4984,423.3756,557.3758,425,553.4544,424.9755,553.4458,426.2658,557.4074,427.6793,561.4121,429.1786,565.4469,430.3825,569.3782,432,573.4544,432,573.6389,429.2,573.2443,426.4,573.3885,423.6,573.5984,420.8,573.4258,418,573.4544" style="stroke: #FFFFFF; stroke-width: 1.0;"/><!--link estructura to enBloque--><path d="M475.9,563.5344 L476.0398,563.7773 L484.1987,567.9906 L493.1771,573.6277 L501.8887,578.8012 L509.7227,582.45 L518.7197,588.1196 L527.062,592.6515 L535.6649,597.6362 L544.449,602.9356 L552.6087,607.1504 L562.0111,613.5242 L569.7979,617.091 L578.6599,622.5258 L587.653,628.1885 L595.94,632.6244 " fill="none" style="stroke: #FFFFFF; stroke-width: 1.0;"/><polygon fill="none" points="472.23,569.5044,472.2831,569.5501,469.3574,566.2042,466.7428,563.1264,464.0269,559.9614,460.9779,556.5091,458.39,553.4544,458.3852,553.4289,462.5298,554.0967,466.6984,554.8927,470.8838,555.778,475.0115,556.3559,479.22,557.3644,479.3799,557.4565,477.6399,559.6875,476.3669,562.1875,475.1508,564.7202,473.6032,567.0621,472.23,569.5044" style="stroke: #FFFFFF; stroke-width: 1.0;"/><!--link enBloque to parrafo--><path d="M582.85,684.7444 L583.0022,684.9797 L574.141,689.7217 L566.1722,695.843 L557.9128,701.5151 L548.6977,705.7102 L540.7493,711.8629 L532.0877,716.9136 L523.71,722.4029 L515.5295,728.197 L507.17,733.7144 " fill="none" style="stroke: #FFFFFF; stroke-width: 1.0;"/><polygon fill="none" points="579.18,678.7844,579.1965,678.8525,583.2655,677.6522,587.4312,676.851,591.5654,675.9199,595.596,674.5613,599.77,673.7944,599.7495,673.7785,597.0597,677.0552,594.473,680.412,591.9581,683.8244,589.1959,687.0451,586.78,690.5344,586.935,690.6346,585.0836,688.0703,583.6846,685.7986,582.3409,683.5626,580.676,681.1188,579.18,678.7844" style="stroke: #FFFFFF; stroke-width: 1.0;"/><!--link enBloque to lista--><path d="M611.74,691.8844 L611.9922,692.0066 L607.1869,700.0094 L603.8599,708.7288 L600.0515,717.2149 L594.6601,724.9334 L591.46,733.7144 " fill="none" style="stroke: #FFFFFF; stroke-width: 1.0;"/><polygon fill="none" points="605.49,688.7344,605.5394,688.7841,608.3986,685.6484,611.5474,682.8041,614.6019,679.8649,617.3464,676.6137,620.52,673.7944,620.4943,673.7914,619.8928,677.9881,619.421,682.1997,619.0394,686.4218,618.3471,690.6079,618.09,694.8444,618.1705,695.0104,615.4783,693.4333,613.0212,692.3411,610.5928,691.3079,607.9975,689.9306,605.49,688.7344" style="stroke: #FFFFFF; stroke-width: 1.0;"/><!--link enBloque to tabla--><path d="M648.26,691.8844 L648.5122,692.0066 L651.8189,700.0094 L656.6039,708.7288 L660.9075,717.2149 L663.6281,724.9334 L668.54,733.7144 " fill="none" style="stroke: #FFFFFF; stroke-width: 1.0;"/><polygon fill="none" points="641.91,694.8444,641.9796,694.8524,641.2868,690.6185,641.002,686.4318,640.5843,682.2297,639.7298,677.9771,639.48,673.7944,639.4617,673.776,642.3858,676.6815,645.4019,679.6797,648.482,682.7423,651.3415,685.5829,654.51,688.7344,654.5905,688.9004,651.8983,689.7673,649.4412,691.1191,647.0128,692.5299,644.4175,693.5966,641.91,694.8444" style="stroke: #FFFFFF; stroke-width: 1.0;"/><!--link enBloque to semantica--><path d="M703.47,679.5744 L703.5614,679.8393 L712.611,682.2674 L722.1964,686.2486 L731.6073,689.724 L740.4445,691.5364 L750.0421,695.5529 L759.2116,698.3286 L768.5515,701.5981 L778.0098,705.2108 L787.06,707.6406 L796.9225,712.4252 L805.7289,714.1482 L815.2381,717.9086 L824.8331,721.9176 L833.9292,724.4804 L843.3173,727.8898 L852.5949,730.9788 L861.93,734.2344 " fill="none" style="stroke: #FFFFFF; stroke-width: 1.0;"/><polygon fill="none" points="700.94,686.1144,700.9835,686.1693,697.5303,683.378,694.332,680.9089,691.0506,678.3349,687.4965,675.4158,684.32,672.9744,684.3199,672.9485,688.5573,672.8122,692.7954,672.8065,697.0339,672.8917,701.2709,672.6639,705.51,672.8744,705.6844,672.9346,704.3974,675.4538,703.6197,678.1489,702.9041,680.8654,701.827,683.457,700.94,686.1144" style="stroke: #FFFFFF; stroke-width: 1.0;"/><!--link enBloque to grafico--><path d="M677.71,684.5144 L677.8602,684.751 L686.0284,689.5146 L695.077,695.6653 L703.8389,701.3643 L711.6581,705.5779 L720.7267,711.7602 L729.092,716.8342 L737.7371,722.3493 L746.5769,728.171 L755.24,733.7144 " fill="none" style="stroke: #FFFFFF; stroke-width: 1.0;"/><polygon fill="none" points="673.96,690.4244,674.015,690.4678,671.2236,687.0128,668.7546,683.8123,666.1805,680.529,663.2614,676.9729,660.82,673.7944,660.8141,673.7691,664.9157,674.6179,669.047,675.5939,673.1988,676.6582,677.2797,677.4179,681.46,678.6044,681.6158,678.7032,679.7826,680.8558,678.4043,683.2971,677.0816,685.7735,675.4359,688.0451,673.96,690.4244" style="stroke: #FFFFFF; stroke-width: 1.0;"/><!--
@startuml
skinparam ActivityBarColor #white
skinparam titleBorderColor #222222
skinparam titleBackgroundColor #222222
skinparam titlefontColor #orange
skinparam titleFontStyle bold
skinparam titleFontSize 30

skinparam handwritten true
skinparam shadowing false
skinparam backgroundColor #222222
skinparam padding 3
skinparam StateStartColor #white
skinparam StateEndColor #white

skinparam note {
    backgroundColor #222222
    borderColor #white
    FontColor #white
    fontSize 20
}

skinparam class {
    fontColor #white
    fontColor<<Reservada>> #orange
    StereotypeFontColor #222222
    fontStyle bold
    arrowColor #white
    backgroundColor #222222
    borderColor #white
    circleCharacterFontName #white
    fontSize 20
}

hide circle
hide members

title Elemento html

class html as "Elemento html" <<Reservada>>

class head as "Elemento head" <<Reservada>>
class body as "Elemento body" <<Reservada>>

class informacion as "Información"
class informacionHiperenlazada as "Información\nhiperenlazada"

class Texto
class Imagen
class Sonido
class Video

abstract class estructura as "Estructura"
abstract class enLinea as "En linea"
abstract class enBloque as "En bloque"

abstract class interaccion as "Formulario"

class parrafo as "Párrafo"
class lista as "Lista"
class tabla as "Tabla"
class grafico as "Gráfico"
class semantica as "Semántica"

html *-down-> "1" head
html *-down-> "1" body

body *-down-> "*" estructura
body *-down-> "*" interaccion

estructura *-down-> informacion
interaccion *-down-> estructura

informacion <|-down- Texto
informacion <|-down- Imagen
informacion <|-down- Sonido
informacion <|-down- Video

Texto <|-down- informacionHiperenlazada
Imagen <|-down- informacionHiperenlazada

estructura <|-down- enLinea
estructura <|-down- enBloque

enBloque <|-down- parrafo
enBloque <|-down- lista
enBloque <|-down- tabla
enBloque <|-down- semantica
enBloque <|-down- grafico
@enduml

PlantUML version 1.2019.05(Sat Apr 20 18:45:36 CEST 2019)
(GPL source distribution)
Java Runtime: Java(TM) SE Runtime Environment
JVM: Java HotSpot(TM) 64-Bit Server VM
Java Version: 11.0.14+8-LTS-263
Operating System: Windows 10
OS Version: 10.0
Default Encoding: windows-1252
Language: es
Country: ES
--></g></svg>