<?xml version="1.0" encoding="UTF-8" standalone="no"?><svg xmlns="http://www.w3.org/2000/svg" xmlns:xlink="http://www.w3.org/1999/xlink" contentScriptType="application/ecmascript" contentStyleType="text/css" height="251px" preserveAspectRatio="none" style="width:288px;height:251px;background:#222222;" version="1.1" viewBox="0 0 288 251" width="288px" zoomAndPan="magnify"><defs/><g><!--class X--><polygon fill="#222222" points="82,8,82,8.2102,91.8333,7.5857,101.6667,8.1933,111.5,8.3997,121.3333,7.2866,131.1667,7.9223,141,7.5735,150.8333,7.6165,160.6667,7.9318,170.5,7.3086,180.3333,8.5536,190.1667,7.3697,200,8,199.8022,8,200.4319,17.7283,199.9142,27.4566,200.0682,37.185,199.9681,46.9133,200.1785,56.6416,200.2391,66.3699,200.5857,76.0982,200.6711,85.8266,200.6793,95.5549,200,105.2832,200,105.5378,190.1667,105.7468,180.3333,105.9854,170.5,104.562,160.6667,105.9617,150.8333,104.9867,141,105.817,131.1667,104.7882,121.3333,105.2147,111.5,106.0248,101.6667,105.2345,91.8333,105.3885,82,105.2832,82.3386,105.2832,82.4162,95.5549,81.9961,85.8266,82.2872,76.0982,81.4276,66.3699,82.2844,56.6416,82.5482,46.9133,82.4445,37.185,82.613,27.4566,81.5169,17.7283,82,8" style="stroke: #228B22; stroke-width: 3.0;"/><text fill="#228B22" font-family="courier" font-size="20" font-style="italic" font-weight="bold" lengthAdjust="spacingAndGlyphs" textLength="12" x="135" y="34.1074">X</text><path d="M83,46.1133 L83,46.3935 L92.6667,45.5609 L102.3333,46.371 L112,46.6462 L121.6667,45.1621 L131.3333,46.0097 L141,45.5446 L150.6667,45.6019 L160.3333,46.0224 L170,45.1915 L179.6667,46.8515 L189.3333,45.2729 L199,46.1133 " fill="#222222" style="stroke: #228B22; stroke-width: 3.0;"/><path d="M83,54.1133 L83,54.3935 L92.6667,53.5609 L102.3333,54.371 L112,54.6462 L121.6667,53.1621 L131.3333,54.0097 L141,53.5446 L150.6667,53.6019 L160.3333,54.0224 L170,53.1915 L179.6667,54.8515 L189.3333,53.2729 L199,54.1133 " fill="#222222" style="stroke: #228B22; stroke-width: 3.0;"/><polygon fill="#84BE84" points="96.0166,71.1355,95.5768,71.7363,95.0567,72.6164,94.3128,73.2095,93.5311,73.5338,92.9078,73.562,92.1067,73.1564,91.3509,72.8914,90.7771,72.3534,90.4762,71.7374,90.2977,71.247,90.1229,70.6064,89.8391,70.0552,90.0572,69.5169,90.2482,68.9274,90.9653,68.4611,91.4697,67.8561,92.0941,67.6552,92.8364,67.4821,93.7883,67.5849,94.3097,67.8308,94.9158,67.9423,95.6529,68.6974,95.9098,69.4946,96.0214,70.0385,95.895,70.9348" style="stroke: #038048; stroke-width: 1.0;"/><text fill="#A9A9A9" font-family="courier" font-size="15" lengthAdjust="spacingAndGlyphs" textLength="27" x="103" y="74.1938">m()</text><polygon fill="#84BE84" points="96.0166,92.7204,95.5768,93.3213,95.0567,94.2014,94.3128,94.7945,93.5311,95.1188,92.9078,95.1469,92.1067,94.7413,91.3509,94.4763,90.7771,93.9383,90.4762,93.3224,90.2977,92.832,90.1229,92.1914,89.8391,91.6401,90.0572,91.1019,90.2482,90.5123,90.9653,90.046,91.4697,89.441,92.0941,89.2401,92.8364,89.0671,93.7883,89.1699,94.3097,89.4158,94.9158,89.5272,95.6529,90.2824,95.9098,91.0795,96.0214,91.6235,95.895,92.5198" style="stroke: #038048; stroke-width: 1.0;"/><text fill="#A9A9A9" font-family="courier" font-size="15" font-style="italic" lengthAdjust="spacingAndGlyphs" textLength="90" x="103" y="95.7788">inMiddle()</text><!--class Y--><polygon fill="#222222" points="6,165,6,165.2102,15.8333,164.5857,25.6667,165.1933,35.5,165.3997,45.3333,164.2866,55.1667,164.9223,65,164.5735,74.8333,164.6165,84.6667,164.9318,94.5,164.3086,104.3333,165.5536,114.1667,164.3697,124,165,123.8022,165,124.4319,174.4623,123.9142,183.9246,124.0682,193.3868,123.9681,202.8491,124.1785,212.3114,124.2391,221.7737,124.5857,231.236,124,240.6982,124,241.3693,114.1667,241.3775,104.3333,240.9529,94.5,241.1618,84.6667,241.4005,74.8333,239.9771,65,241.3768,55.1667,240.4017,45.3333,241.2321,35.5,240.2032,25.6667,240.6297,15.8333,241.4398,6,240.6982,5.9513,240.6982,6.1053,231.236,6.3386,221.7737,6.4162,212.3114,5.9961,202.8491,6.2872,193.3868,5.4276,183.9246,6.2844,174.4623,6,165" style="stroke: #228B22; stroke-width: 3.0;"/><text fill="#228B22" font-family="courier" font-size="20" font-weight="bold" lengthAdjust="spacingAndGlyphs" textLength="12" x="59" y="191.1074">Y</text><path d="M7,203.1133 L7,203.3935 L16.6667,202.5609 L26.3333,203.371 L36,203.6462 L45.6667,202.1621 L55.3333,203.0097 L65,202.5446 L74.6667,202.6019 L84.3333,203.0224 L94,202.1915 L103.6667,203.8515 L113.3333,202.2729 L123,203.1133 " fill="#222222" style="stroke: #228B22; stroke-width: 3.0;"/><path d="M7,211.1133 L7,211.3935 L16.6667,210.5609 L26.3333,211.371 L36,211.6462 L45.6667,210.1621 L55.3333,211.0097 L65,210.5446 L74.6667,210.6019 L84.3333,211.0224 L94,210.1915 L103.6667,211.8515 L113.3333,210.2729 L123,211.1133 " fill="#222222" style="stroke: #228B22; stroke-width: 3.0;"/><polygon fill="#84BE84" points="20.0166,228.1355,19.5768,228.7363,19.0567,229.6164,18.3128,230.2095,17.5311,230.5338,16.9078,230.562,16.1067,230.1564,15.3509,229.8914,14.7771,229.3534,14.4762,228.7374,14.2977,228.247,14.1229,227.6064,13.8391,227.0552,14.0572,226.5169,14.2482,225.9274,14.9653,225.4611,15.4697,224.8561,16.0941,224.6552,16.8364,224.4821,17.7883,224.5849,18.3097,224.8308,18.9158,224.9423,19.6529,225.6974,19.9098,226.4946,20.0214,227.0385,19.895,227.9348" style="stroke: #038048; stroke-width: 1.0;"/><text fill="#A9A9A9" font-family="courier" font-size="15" font-style="italic" lengthAdjust="spacingAndGlyphs" textLength="90" x="27" y="231.1938">inMiddle()</text><!--class Z--><polygon fill="#222222" points="159,165,159,165.2102,168.8333,164.5857,178.6667,165.1933,188.5,165.3997,198.3333,164.2866,208.1667,164.9223,218,164.5735,227.8333,164.6165,237.6667,164.9318,247.5,164.3086,257.3333,165.5536,267.1667,164.3697,277,165,276.8022,165,277.4319,174.4623,276.9142,183.9246,277.0682,193.3868,276.9681,202.8491,277.1785,212.3114,277.2391,221.7737,277.5857,231.236,277,240.6982,277,241.3693,267.1667,241.3775,257.3333,240.9529,247.5,241.1618,237.6667,241.4005,227.8333,239.9771,218,241.3768,208.1667,240.4017,198.3333,241.2321,188.5,240.2032,178.6667,240.6297,168.8333,241.4398,159,240.6982,158.9513,240.6982,159.1053,231.236,159.3386,221.7737,159.4162,212.3114,158.9961,202.8491,159.2872,193.3868,158.4276,183.9246,159.2844,174.4623,159,165" style="stroke: #228B22; stroke-width: 3.0;"/><text fill="#228B22" font-family="courier" font-size="20" font-weight="bold" lengthAdjust="spacingAndGlyphs" textLength="12" x="212" y="191.1074">Z</text><path d="M160,203.1133 L160,203.3935 L169.6667,202.5609 L179.3333,203.371 L189,203.6462 L198.6667,202.1621 L208.3333,203.0097 L218,202.5446 L227.6667,202.6019 L237.3333,203.0224 L247,202.1915 L256.6667,203.8515 L266.3333,202.2729 L276,203.1133 " fill="#222222" style="stroke: #228B22; stroke-width: 3.0;"/><path d="M160,211.1133 L160,211.3935 L169.6667,210.5609 L179.3333,211.371 L189,211.6462 L198.6667,210.1621 L208.3333,211.0097 L218,210.5446 L227.6667,210.6019 L237.3333,211.0224 L247,210.1915 L256.6667,211.8515 L266.3333,210.2729 L276,211.1133 " fill="#222222" style="stroke: #228B22; stroke-width: 3.0;"/><polygon fill="#84BE84" points="173.0166,228.1355,172.5768,228.7363,172.0567,229.6164,171.3128,230.2095,170.5311,230.5338,169.9078,230.562,169.1067,230.1564,168.3509,229.8914,167.7771,229.3534,167.4762,228.7374,167.2977,228.247,167.1229,227.6064,166.8391,227.0552,167.0572,226.5169,167.2482,225.9274,167.9653,225.4611,168.4697,224.8561,169.0941,224.6552,169.8364,224.4821,170.7883,224.5849,171.3097,224.8308,171.9158,224.9423,172.6529,225.6974,172.9098,226.4946,173.0214,227.0385,172.895,227.9348" style="stroke: #038048; stroke-width: 1.0;"/><text fill="#A9A9A9" font-family="courier" font-size="15" font-style="italic" lengthAdjust="spacingAndGlyphs" textLength="90" x="180" y="231.1938">inMiddle()</text><!--link X to Y--><path d="M106.53,123.03 L106.778,123.1604 L101.6411,131.1389 L97.9581,139.882 L93.8017,148.3761 L88.0881,156.0512 L84.53,164.86 " fill="none" style="stroke: #A9A9A9; stroke-width: 2.0;"/><polygon fill="none" points="100.4,119.66,100.4478,119.7113,103.4059,116.6709,106.6439,113.9311,109.7908,111.0935,112.6379,107.934,115.9,105.22,115.8744,105.2162,115.1374,109.3891,114.5296,113.5812,114.0115,117.7867,113.184,121.9462,112.79,126.17,112.8758,126.3334,110.2143,124.682,107.8033,123.5076,105.423,122.3915,102.8647,120.9367,100.4,119.66" style="stroke: #A9A9A9; stroke-width: 2.0;"/><!--link X to Z--><path d="M175.92,123.03 L176.1673,123.1618 L179.8905,131.1362 L185.0634,139.8832 L189.7643,148.3786 L192.9126,156.0467 L198.21,164.86 " fill="none" style="stroke: #A9A9A9; stroke-width: 2.0;"/><polygon fill="none" points="169.65,126.16,169.7192,126.1706,168.8695,121.951,168.4257,117.7938,167.8497,113.6162,166.839,109.3719,166.43,105.22,166.4125,105.2009,169.4497,107.9854,172.5754,110.866,175.7626,113.8133,178.7379,116.5305,182.01,119.57,182.0968,119.7328,179.4392,120.7026,177.035,122.1478,174.6617,123.6511,172.1085,124.8168,169.65,126.16" style="stroke: #A9A9A9; stroke-width: 2.0;"/><!--
@startuml
skinparam backgroundColor #222222
skinparam handwritten true
hide circle
hide stereotype
skinparam shadowing false
skinparam padding 1
skinparam arrow {
    Thickness 2
    Color #DarkGrey
    FontSize 20
    FontName courier
    FontStyle normal
    FontColor #DarkGrey
}
skinparam class {
    BorderThickness 3
    BorderColor #228B22
    BackgroundColor #222222
    FontSize 20
    FontName courier
    FontStyle bold
    FontColor #228B22
}
skinparam classAttribute {
    FontSize 15
    FontName courier
    FontStyle normal
    FontColor #DarkGrey
}
abstract class X  {
+ m()
{abstract} + inMiddle()
}

X <|-down- Y
X <|-down- Z

class Y {
{abstract} + inMiddle()
}

class Z {
{abstract} + inMiddle()
}
@enduml

PlantUML version 1.2019.05(Sat Apr 20 18:45:36 CEST 2019)
(GPL source distribution)
Java Runtime: Java(TM) SE Runtime Environment
JVM: Java HotSpot(TM) 64-Bit Server VM
Java Version: 11.0.14+8-LTS-263
Operating System: Windows 10
OS Version: 10.0
Default Encoding: windows-1252
Language: es
Country: ES
--></g></svg>