<?xml version="1.0" encoding="UTF-8" standalone="no"?><svg xmlns="http://www.w3.org/2000/svg" xmlns:xlink="http://www.w3.org/1999/xlink" contentScriptType="application/ecmascript" contentStyleType="text/css" height="494px" preserveAspectRatio="none" style="width:589px;height:494px;background:#222222;" version="1.1" viewBox="0 0 589 494" width="589px" zoomAndPan="magnify"><defs/><g><path d="M118,46.1133 L118.2802,46.1133 L117.4476,56.0109 L118.2577,65.9086 L118.5329,75.8063 L117.0488,85.7039 L117.8964,95.6016 L117.4313,105.4992 L117.4887,115.3969 L117.9091,125.2945 L117.0782,135.1922 L118.7382,145.0898 L117.1596,154.9875 L117.7363,164.8852 L118.5759,174.7828 L117.8856,184.6805 L118.091,194.5781 L117.9574,204.4758 L118.238,214.3734 L118.3188,224.2711 L118.7809,234.1688 L118.8947,244.0664 L118.9057,253.9641 L118.3395,263.8617 L118.6181,273.7594 L118.9363,283.657 L117.0384,293.5547 L118.9047,303.4523 L117.6047,313.35 L118.7117,323.2477 L117.34,333.1453 L117.9087,343.043 L118.9888,352.9406 L117.935,362.8383 L118.1404,372.7359 L118.4515,382.6336 L118.555,392.5313 L117.9948,402.4289 L118.383,412.3266 L117.2368,422.2242 L118.3792,432.1219 L118,442.0195 " fill="none" style="stroke: #A9A9A9; stroke-width: 1.0; stroke-dasharray: 5.0,5.0;"/><path d="M408,46.1133 L408.2802,46.1133 L407.4476,56.0109 L408.2577,65.9086 L408.5329,75.8063 L407.0488,85.7039 L407.8964,95.6016 L407.4313,105.4992 L407.4887,115.3969 L407.9091,125.2945 L407.0782,135.1922 L408.7382,145.0898 L407.1596,154.9875 L407.7363,164.8852 L408.5759,174.7828 L407.8856,184.6805 L408.091,194.5781 L407.9574,204.4758 L408.238,214.3734 L408.3188,224.2711 L408.7809,234.1688 L408.8947,244.0664 L408.9057,253.9641 L408.3395,263.8617 L408.6181,273.7594 L408.9363,283.657 L407.0384,293.5547 L408.9047,303.4523 L407.6047,313.35 L408.7117,323.2477 L407.34,333.1453 L407.9087,343.043 L408.9888,352.9406 L407.935,362.8383 L408.1404,372.7359 L408.4515,382.6336 L408.555,392.5313 L407.9948,402.4289 L408.383,412.3266 L407.2368,422.2242 L408.3792,432.1219 L408,442.0195 " fill="none" style="stroke: #A9A9A9; stroke-width: 1.0; stroke-dasharray: 5.0,5.0;"/><polygon fill="#222222" points="8,3,8,3.2102,18,2.5857,28,3.1933,38,3.3997,48,2.2866,58,2.9223,68,2.5735,78,2.6165,88,2.9318,98,2.3086,108,3.5536,118,2.3697,128,2.8022,138,3.4319,148,2.9142,158,3.0682,168,2.9681,178,3.1785,188,3.2391,198,3.5857,208,3.6711,218,3.6793,228,3,228.0849,3,228.1545,11.4227,228.2341,19.8453,227.7596,28.268,228.2262,36.6906,228,45.1133,228,44.8168,218,45.6471,208,44.6183,198,45.0448,188,45.8549,178,45.0645,168,45.2186,158,45.4519,148,45.5295,138,45.1094,128,45.4005,118,44.5409,108,45.3977,98,45.6615,88,45.5578,78,45.7263,68,44.6302,58,44.4611,48,44.4919,38,45.0544,28,44.9168,18,45.7947,8,45.1133,7.9418,45.1133,7.8856,36.6906,8.0761,28.268,7.7777,19.8453,7.827,11.4227,8,3" style="stroke: #A9A9A9; stroke-width: 3.0;"/><text fill="#A9A9A9" font-family="courier" font-size="20" font-weight="bold" lengthAdjust="spacingAndGlyphs" textLength="204" x="16" y="31.1074">cliente : Cliente</text><polygon fill="#222222" points="8,441.0195,8,441.2297,18,440.6052,28,441.2128,38,441.4192,48,440.3061,58,440.9418,68,440.593,78,440.636,88,440.9514,98,440.3282,108,441.5732,118,440.3893,128,440.8218,138,441.4515,148,440.9338,158,441.0878,168,440.9876,178,441.1981,188,441.2587,198,441.6052,208,441.6906,218,441.6988,228,441.0195,228.0849,441.0195,228.1545,449.4422,228.2341,457.8648,227.7596,466.2875,228.2262,474.7102,228,483.1328,228,482.8363,218,483.6666,208,482.6378,198,483.0643,188,483.8744,178,483.0841,168,483.2381,158,483.4714,148,483.549,138,483.1289,128,483.42,118,482.5604,108,483.4172,98,483.681,88,483.5773,78,483.7458,68,482.6497,58,482.4806,48,482.5114,38,483.0739,28,482.9363,18,483.8142,8,483.1328,7.9418,483.1328,7.8856,474.7102,8.0761,466.2875,7.7777,457.8648,7.827,449.4422,8,441.0195" style="stroke: #A9A9A9; stroke-width: 3.0;"/><text fill="#A9A9A9" font-family="courier" font-size="20" font-weight="bold" lengthAdjust="spacingAndGlyphs" textLength="204" x="16" y="469.127">cliente : Cliente</text><polygon fill="#222222" points="238,3,238,3.2102,248,2.5857,258,3.1933,268,3.3997,278,2.2866,288,2.9223,298,2.5735,308,2.6165,318,2.9318,328,2.3086,338,3.5536,348,2.3697,358,2.8022,368,3.4319,378,2.9142,388,3.0682,398,2.9681,408,3.1785,418,3.2391,428,3.5857,438,3.6711,448,3.6793,458,3.2546,468,3.4636,478,3.7022,488,2.2788,498,3.6785,508,2.7035,518,3.5338,528,2.505,538,2.9315,548,3.7416,558,2.9513,568,3.1053,578,3,578.1129,3,578.1387,11.4227,577.9987,19.8453,578.0957,28.268,577.8092,36.6906,578,45.1133,578,45.3977,568,45.6615,558,45.5578,548,45.7263,538,44.6302,528,44.4611,518,44.4919,508,45.0544,498,44.9168,488,45.7947,478,44.9386,468,44.7702,458,45.3415,448,44.4464,438,44.5942,428,45.7622,418,45.5489,408,45.8478,398,44.7915,388,45.4325,378,45.7037,368,44.6409,358,45.0174,348,45.2393,338,45.765,328,45.1091,318,45.5758,308,44.5595,298,44.436,288,45.6169,278,44.3963,268,45.6222,258,45.3199,248,44.8454,238,45.1133,237.8821,45.1133,238.1529,36.6906,237.9002,28.268,238.1973,19.8453,237.8158,11.4227,238,3" style="stroke: #A9A9A9; stroke-width: 3.0;"/><text fill="#A9A9A9" font-family="courier" font-size="20" font-weight="bold" lengthAdjust="spacingAndGlyphs" textLength="324" x="246" y="31.1074">descendiente : Descendiente</text><polygon fill="#222222" points="238,441.0195,238,441.2297,248,440.6052,258,441.2128,268,441.4192,278,440.3061,288,440.9418,298,440.593,308,440.636,318,440.9514,328,440.3282,338,441.5732,348,440.3893,358,440.8218,368,441.4515,378,440.9338,388,441.0878,398,440.9876,408,441.1981,418,441.2587,428,441.6052,438,441.6906,448,441.6988,458,441.2742,468,441.4831,478,441.7218,488,440.2983,498,441.698,508,440.723,518,441.5533,528,440.5245,538,440.951,548,441.7611,558,440.9708,568,441.1248,578,441.0195,578.1129,441.0195,578.1387,449.4422,577.9987,457.8648,578.0957,466.2875,577.8092,474.7102,578,483.1328,578,483.4172,568,483.681,558,483.5773,548,483.7458,538,482.6497,528,482.4806,518,482.5114,508,483.0739,498,482.9363,488,483.8142,478,482.9581,468,482.7898,458,483.3611,448,482.466,438,482.6137,428,483.7818,418,483.5685,408,483.8673,398,482.811,388,483.452,378,483.7232,368,482.6604,358,483.037,348,483.2588,338,483.7846,328,483.1286,318,483.5954,308,482.579,298,482.4556,288,483.6364,278,482.4159,268,483.6418,258,483.3394,248,482.8649,238,483.1328,237.8821,483.1328,238.1529,474.7102,237.9002,466.2875,238.1973,457.8648,237.8158,449.4422,238,441.0195" style="stroke: #A9A9A9; stroke-width: 3.0;"/><text fill="#A9A9A9" font-family="courier" font-size="20" font-weight="bold" lengthAdjust="spacingAndGlyphs" textLength="324" x="246" y="469.127">descendiente : Descendiente</text><polygon fill="#A9A9A9" points="396,86.2266,396.026,86.2916,397.9487,86.8983,400.0239,87.8864,402.0495,88.7503,403.9117,89.2058,406,90.2266,405.9904,90.2025,403.9472,90.8946,401.9525,91.7079,399.9916,92.6055,397.9144,93.2126,396,94.2266,396.1305,94.3571,396.6514,93.278,397.5534,92.5799,398.5018,91.9284,399.1798,91.0063,400,90.2266,400.0161,90.2426,399.1925,89.419,398.4421,88.6686,397.6564,87.8829,396.938,87.1646,396,86.2266" style="stroke: #A9A9A9; stroke-width: 1.0;"/><path d="M118,90.2266 L118,90.5068 L128.1429,89.6741 L138.2857,90.4843 L148.4286,90.7595 L158.5714,89.2754 L168.7143,90.1229 L178.8571,89.6579 L189,89.7152 L199.1429,90.1357 L209.2857,89.3047 L219.4286,90.9648 L229.5714,89.3862 L239.7143,89.9629 L249.8571,90.8025 L260,90.1122 L270.1429,90.3175 L280.2857,90.184 L290.4286,90.4646 L300.5714,90.5454 L310.7143,91.0075 L320.8571,91.1213 L331,91.1322 L341.1429,90.5661 L351.2857,90.8447 L361.4286,91.1629 L371.5714,89.265 L381.7143,91.1312 L391.8571,89.8312 L402,90.2266 " fill="none" style="stroke: #A9A9A9; stroke-width: 2.0;"/><text fill="#A9A9A9" font-family="courier" font-size="20" lengthAdjust="spacingAndGlyphs" textLength="48" x="126" y="81.2207">m4()</text><path d="M408,132.3398 L408,132.4333 L416.4,132.1557 L424.8,132.4257 L433.2,132.5175 L441.6,132.0228 L450,132.3398 " fill="none" style="stroke: #A9A9A9; stroke-width: 2.0;"/><path d="M450,132.3398 L450.0934,132.3398 L449.8159,134.9398 L450.0859,137.5398 L450.1776,140.1398 L449.6829,142.7398 L450,145.3398 " fill="none" style="stroke: #A9A9A9; stroke-width: 2.0;"/><path d="M409,145.3398 L409,145.4333 L417.2,145.1557 L425.4,145.4257 L433.6,145.5175 L441.8,145.0228 L450,145.3398 " fill="none" style="stroke: #A9A9A9; stroke-width: 2.0;"/><polygon fill="#A9A9A9" points="419,141.3398,419.026,141.4049,416.9487,142.0116,415.0239,142.9997,413.0495,143.8635,410.9117,144.3191,409,145.3398,408.9904,145.3158,410.9472,146.0078,412.9525,146.8212,414.9916,147.7187,416.9144,148.3259,419,149.3398,419.1305,149.4703,418.0514,148.3913,417.3534,147.6932,416.7018,147.0417,415.7798,146.1196,415,145.3398,415.0161,145.3559,415.7925,144.5323,416.6421,143.7819,417.4564,142.9962,418.338,142.2779,419,141.3398" style="stroke: #A9A9A9; stroke-width: 1.0;"/><text fill="#A9A9A9" font-family="courier" font-size="20" lengthAdjust="spacingAndGlyphs" textLength="48" x="416" y="123.334">m1()</text><path d="M408,187.4531 L408,187.5465 L416.4,187.269 L424.8,187.539 L433.2,187.6308 L441.6,187.1361 L450,187.4531 " fill="none" style="stroke: #A9A9A9; stroke-width: 2.0;"/><path d="M450,187.4531 L450.0934,187.4531 L449.8159,190.0531 L450.0859,192.6531 L450.1776,195.2531 L449.6829,197.8531 L450,200.4531 " fill="none" style="stroke: #A9A9A9; stroke-width: 2.0;"/><path d="M409,200.4531 L409,200.5465 L417.2,200.269 L425.4,200.539 L433.6,200.6308 L441.8,200.1361 L450,200.4531 " fill="none" style="stroke: #A9A9A9; stroke-width: 2.0;"/><polygon fill="#A9A9A9" points="419,196.4531,419.026,196.5182,416.9487,197.1249,415.0239,198.1129,413.0495,198.9768,410.9117,199.4323,409,200.4531,408.9904,200.4291,410.9472,201.1211,412.9525,201.9344,414.9916,202.832,416.9144,203.4392,419,204.4531,419.1305,204.5836,418.0514,203.5046,417.3534,202.8065,416.7018,202.1549,415.7798,201.2329,415,200.4531,415.0161,200.4692,415.7925,199.6456,416.6421,198.8952,417.4564,198.1095,418.338,197.3912,419,196.4531" style="stroke: #A9A9A9; stroke-width: 1.0;"/><text fill="#A9A9A9" font-family="courier" font-size="20" lengthAdjust="spacingAndGlyphs" textLength="48" x="416" y="178.4473">m3()</text><polygon fill="#A9A9A9" points="396,238.5664,396.026,238.6315,397.9487,239.2382,400.0239,240.2262,402.0495,241.0901,403.9117,241.5456,406,242.5664,405.9904,242.5424,403.9472,243.2344,401.9525,244.0477,399.9916,244.9453,397.9144,245.5524,396,246.5664,396.1305,246.6969,396.6514,245.6178,397.5534,244.9198,398.5018,244.2682,399.1798,243.3462,400,242.5664,400.0161,242.5825,399.1925,241.7589,398.4421,241.0085,397.6564,240.2228,396.938,239.5045,396,238.5664" style="stroke: #A9A9A9; stroke-width: 1.0;"/><path d="M118,242.5664 L118,242.8466 L128.1429,242.014 L138.2857,242.8241 L148.4286,243.0993 L158.5714,241.6152 L168.7143,242.4628 L178.8571,241.9977 L189,242.0551 L199.1429,242.4755 L209.2857,241.6446 L219.4286,243.3046 L229.5714,241.726 L239.7143,242.3027 L249.8571,243.1423 L260,242.452 L270.1429,242.6574 L280.2857,242.5238 L290.4286,242.8044 L300.5714,242.8853 L310.7143,243.3473 L320.8571,243.4611 L331,243.4721 L341.1429,242.9059 L351.2857,243.1845 L361.4286,243.5027 L371.5714,241.6048 L381.7143,243.4711 L391.8571,242.1711 L402,242.5664 " fill="none" style="stroke: #A9A9A9; stroke-width: 2.0;"/><text fill="#A9A9A9" font-family="courier" font-size="20" lengthAdjust="spacingAndGlyphs" textLength="48" x="126" y="233.5605">m5()</text><polygon fill="#A9A9A9" points="396,280.6797,396.026,280.7447,397.9487,281.3515,400.0239,282.3395,402.0495,283.2034,403.9117,283.6589,406,284.6797,405.9904,284.6556,403.9472,285.3477,401.9525,286.161,399.9916,287.0586,397.9144,287.6657,396,288.6797,396.1305,288.8102,396.6514,287.7311,397.5534,287.0331,398.5018,286.3815,399.1798,285.4595,400,284.6797,400.0161,284.6958,399.1925,283.8722,398.4421,283.1218,397.6564,282.3361,396.938,281.6177,396,280.6797" style="stroke: #A9A9A9; stroke-width: 1.0;"/><path d="M118,284.6797 L118,284.9599 L128.1429,284.1273 L138.2857,284.9374 L148.4286,285.2126 L158.5714,283.7285 L168.7143,284.5761 L178.8571,284.111 L189,284.1684 L199.1429,284.5888 L209.2857,283.7579 L219.4286,285.4179 L229.5714,283.8393 L239.7143,284.416 L249.8571,285.2556 L260,284.5653 L270.1429,284.7707 L280.2857,284.6371 L290.4286,284.9177 L300.5714,284.9985 L310.7143,285.4606 L320.8571,285.5744 L331,285.5854 L341.1429,285.0192 L351.2857,285.2978 L361.4286,285.616 L371.5714,283.7181 L381.7143,285.5844 L391.8571,284.2843 L402,284.6797 " fill="none" style="stroke: #A9A9A9; stroke-width: 2.0;"/><text fill="#A9A9A9" font-family="courier" font-size="20" lengthAdjust="spacingAndGlyphs" textLength="48" x="126" y="275.6738">m1()</text><path d="M408,326.793 L408,326.8864 L416.4,326.6088 L424.8,326.8789 L433.2,326.9706 L441.6,326.4759 L450,326.793 " fill="none" style="stroke: #A9A9A9; stroke-width: 2.0;"/><path d="M450,326.793 L450.0934,326.793 L449.8159,329.393 L450.0859,331.993 L450.1776,334.593 L449.6829,337.193 L450,339.793 " fill="none" style="stroke: #A9A9A9; stroke-width: 2.0;"/><path d="M409,339.793 L409,339.8864 L417.2,339.6088 L425.4,339.8789 L433.6,339.9706 L441.8,339.4759 L450,339.793 " fill="none" style="stroke: #A9A9A9; stroke-width: 2.0;"/><polygon fill="#A9A9A9" points="419,335.793,419.026,335.858,416.9487,336.4647,415.0239,337.4528,413.0495,338.3167,410.9117,338.7722,409,339.793,408.9904,339.7689,410.9472,340.461,412.9525,341.2743,414.9916,342.1719,416.9144,342.779,419,343.793,419.1305,343.9235,418.0514,342.8444,417.3534,342.1464,416.7018,341.4948,415.7798,340.5728,415,339.793,415.0161,339.8091,415.7925,338.9854,416.6421,338.235,417.4564,337.4493,418.338,336.731,419,335.793" style="stroke: #A9A9A9; stroke-width: 1.0;"/><text fill="#A9A9A9" font-family="courier" font-size="20" lengthAdjust="spacingAndGlyphs" textLength="120" x="416" y="317.7871">super.m1()</text><polygon fill="#A9A9A9" points="396,377.9063,396.026,377.9713,397.9487,378.578,400.0239,379.5661,402.0495,380.4299,403.9117,380.8855,406,381.9063,405.9904,381.8822,403.9472,382.5743,401.9525,383.3876,399.9916,384.2852,397.9144,384.8923,396,385.9063,396.1305,386.0367,396.6514,384.9577,397.5534,384.2596,398.5018,383.6081,399.1798,382.686,400,381.9063,400.0161,381.9223,399.1925,381.0987,398.4421,380.3483,397.6564,379.5626,396.938,378.8443,396,377.9063" style="stroke: #A9A9A9; stroke-width: 1.0;"/><path d="M118,381.9063 L118,382.1865 L128.1429,381.3538 L138.2857,382.164 L148.4286,382.4392 L158.5714,380.9551 L168.7143,381.8026 L178.8571,381.3376 L189,381.3949 L199.1429,381.8154 L209.2857,380.9844 L219.4286,382.6444 L229.5714,381.0659 L239.7143,381.6426 L249.8571,382.4822 L260,381.7919 L270.1429,381.9972 L280.2857,381.8637 L290.4286,382.1443 L300.5714,382.2251 L310.7143,382.6872 L320.8571,382.801 L331,382.8119 L341.1429,382.2458 L351.2857,382.5244 L361.4286,382.8426 L371.5714,380.9447 L381.7143,382.8109 L391.8571,381.5109 L402,381.9063 " fill="none" style="stroke: #A9A9A9; stroke-width: 2.0;"/><text fill="#A9A9A9" font-family="courier" font-size="20" lengthAdjust="spacingAndGlyphs" textLength="48" x="126" y="372.9004">m2()</text><polygon fill="#A9A9A9" points="396,420.0195,396.026,420.0846,397.9487,420.6913,400.0239,421.6794,402.0495,422.5432,403.9117,422.9987,406,424.0195,405.9904,423.9955,403.9472,424.6875,401.9525,425.5008,399.9916,426.3984,397.9144,427.0056,396,428.0195,396.1305,428.15,396.6514,427.071,397.5534,426.3729,398.5018,425.7213,399.1798,424.7993,400,424.0195,400.0161,424.0356,399.1925,423.212,398.4421,422.4616,397.6564,421.6759,396.938,420.9576,396,420.0195" style="stroke: #A9A9A9; stroke-width: 1.0;"/><path d="M118,424.0195 L118,424.2998 L128.1429,423.4671 L138.2857,424.2772 L148.4286,424.5524 L158.5714,423.0683 L168.7143,423.9159 L178.8571,423.4509 L189,423.5082 L199.1429,423.9287 L209.2857,423.0977 L219.4286,424.7577 L229.5714,423.1792 L239.7143,423.7558 L249.8571,424.5955 L260,423.9052 L270.1429,424.1105 L280.2857,423.9769 L290.4286,424.2576 L300.5714,424.3384 L310.7143,424.8005 L320.8571,424.9143 L331,424.9252 L341.1429,424.359 L351.2857,424.6376 L361.4286,424.9558 L371.5714,423.058 L381.7143,424.9242 L391.8571,423.6242 L402,424.0195 " fill="none" style="stroke: #A9A9A9; stroke-width: 2.0;"/><text fill="#A9A9A9" font-family="courier" font-size="20" lengthAdjust="spacingAndGlyphs" textLength="48" x="126" y="415.0137">m3()</text><!--
@startuml
skinparam backgroundColor #222222
skinparam handwritten true
hide circle
hide stereotype
skinparam shadowing false
skinparam padding 1
skinparam arrow {
    Thickness 2
    Color #DarkGrey
    FontSize 20
    FontName courier
    FontStyle normal
    FontColor #DarkGrey
}
skinparam participant {
    BorderThickness 3
    BorderColor #DarkGrey
    BackgroundColor #222222
    FontSize 20
    FontName courier
    FontStyle bold
    FontColor #DarkGrey
}
skinparam default {
    FontSize 20
    FontName courier
    FontStyle normal
    FontColor #DarkGrey
}
skinparam SequenceGroup {
    BorderColor #DarkGray
    BackgroundColor #222222
    FontColor #DarkGray
    MessageTextAlignment #DarkGray
}
skinparam sequence {
LifeLineBorderColor DarkGray
LifeLineBackgroundColor #222222
BoxBorderColor #DarkGray
}
skinparam defaultFontColor #DarkGray

participant "cliente : Cliente" as cliente
participant "descendiente : Descendiente" as descendiente

cliente -> descendiente : m4()
descendiente -> descendiente : m1()
descendiente -> descendiente : m3()
cliente -> descendiente : m5()
cliente -> descendiente : m1()
descendiente -> descendiente : super.m1()
cliente -> descendiente : m2()
cliente -> descendiente : m3()

@enduml

PlantUML version 1.2019.05(Sat Apr 20 18:45:36 CEST 2019)
(GPL source distribution)
Java Runtime: Java(TM) SE Runtime Environment
JVM: Java HotSpot(TM) 64-Bit Server VM
Java Version: 11.0.14+8-LTS-263
Operating System: Windows 10
OS Version: 10.0
Default Encoding: windows-1252
Language: es
Country: ES
--></g></svg>