<?xml version="1.0" encoding="UTF-8" standalone="no"?><svg xmlns="http://www.w3.org/2000/svg" xmlns:xlink="http://www.w3.org/1999/xlink" contentScriptType="application/ecmascript" contentStyleType="text/css" height="359px" preserveAspectRatio="none" style="width:755px;height:359px;background:#222222;" version="1.1" viewBox="0 0 755 359" width="755px" zoomAndPan="magnify"><defs/><g><!--class Cliente--><polygon fill="#222222" points="257,8,257,8.2102,267.2222,7.5857,277.4444,8.1933,287.6667,8.3997,297.8889,7.2866,308.1111,7.9223,318.3333,7.5735,328.5556,7.6165,338.7778,7.9318,349,8,348.3086,8,349.5536,18.8227,348.3697,29.6453,348.8022,40.468,349.4319,51.2906,349,62.1133,349,62.0275,338.7778,62.1815,328.5556,62.0813,318.3333,62.2918,308.1111,62.3524,297.8889,62.699,287.6667,62.7843,277.4444,62.7925,267.2222,62.3679,257,62.1133,257.4636,62.1133,257.7022,51.2906,256.2788,40.468,257.6785,29.6453,256.7035,18.8227,257,8" style="stroke: #DC143C; stroke-width: 3.0;"/><text fill="#DC143C" font-family="courier" font-size="20" font-weight="bold" lengthAdjust="spacingAndGlyphs" textLength="84" x="261" y="34.1074">Cliente</text><path d="M258,46.1133 L258,46.3935 L268,45.5609 L278,46.371 L288,46.6462 L298,45.1621 L308,46.0097 L318,45.5446 L328,45.6019 L338,46.0224 L348,46.1133 " fill="#222222" style="stroke: #DC143C; stroke-width: 3.0;"/><path d="M258,54.1133 L258,54.3935 L268,53.5609 L278,54.371 L288,54.6462 L298,53.1621 L308,54.0097 L318,53.5446 L328,53.6019 L338,54.0224 L348,54.1133 " fill="#222222" style="stroke: #DC143C; stroke-width: 3.0;"/><path d="M384.5,16 L384.5,31 L349.13,35 L384.5,39 L384.5,54.1133 A0,0 0 0 0 384.5,54.1133 L743.5,54.1133 A0,0 0 0 0 743.5,54.1133 L743.5,26 L733.5,16 L384.5,16 A0,0 0 0 0 384.5,16 " fill="#222222" style="stroke: #A9A9A9; stroke-width: 3.0;"/><path d="M733.5,16 L733.6868,16 L733.1317,18 L733.6718,20 L733.8553,22 L732.8659,24 L733.5,26 L733.5,25.9309 L735.5,25.6209 L737.5,25.6591 L739.5,25.9394 L741.5,25.3854 L743.5,26 L743.848,26.348 L741.1038,23.6038 L739.3757,21.8757 L737.7715,20.2715 L735.4461,17.9461 L733.5,16 " fill="#222222" style="stroke: #A9A9A9; stroke-width: 3.0;"/><text fill="#A9A9A9" font-family="courier" font-size="20" lengthAdjust="spacingAndGlyphs" textLength="336" x="391.5" y="42.1074">new Mujer(); ó new Hombre();</text><!--class Hombre--><polygon fill="#222222" points="6,122,6,122.2102,16,121.5857,26,122.1933,36,122.3997,46,121.2866,56,121.9223,66,121.5735,76,121.6165,86,121.9318,96,121.3086,106,122.5536,116,121.3697,126,121.8022,136,122.4319,146,121.9142,156,122.0682,166,121.9681,176,122.1785,186,122.2391,196,122.5857,206,122.6711,216,122.6793,226,122.2546,236,122.4636,246,122.7022,256,121.2788,266,122.6785,276,121.7035,286,122,286.5338,122,285.505,131.8606,285.9315,141.7211,286.7416,151.5817,285.9513,161.4423,286.1053,171.3028,286.3386,181.1634,286.4162,191.0239,285.9961,200.8845,286.2872,210.7451,285.4276,220.6056,286.2844,230.4662,286.5482,240.3268,286.4445,250.1873,286.613,260.0479,285.5169,269.9085,285.3478,279.769,285.3786,289.6296,285.9411,299.4901,285.8035,309.3507,286.6814,319.2113,285.8253,329.0718,285.6569,338.9324,286,348.793,286,349.0212,276,348.1261,266,348.2738,256,349.4419,246,349.2286,236,349.5275,226,348.4712,216,349.1122,206,349.3834,196,348.3206,186,348.6971,176,348.919,166,349.4447,156,348.7888,146,349.2555,136,348.2392,126,348.1157,116,349.2966,106,348.076,96,349.3019,86,348.9996,76,348.5251,66,348.4392,56,349.2517,46,348.4936,36,349.3848,26,348.2402,16,349.4104,6,348.793,6.4843,348.793,6.245,338.9324,6.0472,329.0718,6.7266,319.2113,6.6136,309.3507,6.1693,299.4901,6.2682,289.6296,5.8697,279.769,6.7165,269.9085,6.1549,260.0479,6.1726,250.1873,5.3916,240.3268,5.5948,230.4662,6.5307,220.6056,6.4298,210.7451,5.9571,200.8845,5.6778,191.0239,5.7811,181.1634,5.3138,171.3028,6.4147,161.4423,6.7396,151.5817,6.5264,141.7211,6.6949,131.8606,6,122" style="stroke: #DC143C; stroke-width: 3.0;"/><text fill="#DC143C" font-family="courier" font-size="20" font-weight="bold" lengthAdjust="spacingAndGlyphs" textLength="72" x="110" y="148.1074">Hombre</text><path d="M7,160.1133 L7,160.3935 L16.9286,159.5609 L26.8571,160.371 L36.7857,160.6462 L46.7143,159.1621 L56.6429,160.0097 L66.5714,159.5446 L76.5,159.6019 L86.4286,160.0224 L96.3571,159.1915 L106.2857,160.8515 L116.2143,159.2729 L126.1429,159.8496 L136.0714,160.6892 L146,159.9989 L155.9286,160.2043 L165.8571,160.0707 L175.7857,160.3513 L185.7143,160.4321 L195.6429,160.8942 L205.5714,161.008 L215.5,161.019 L225.4286,160.4528 L235.3571,160.7314 L245.2857,161.0496 L255.2143,159.1517 L265.1429,161.018 L275.0714,159.7179 L285,160.1133 " fill="#222222" style="stroke: #DC143C; stroke-width: 3.0;"/><polygon fill="none" points="14,173.4058,14,173.4758,15.2,173.2677,16.4,173.4702,17.6,173.539,18.8,173.168,20,173.4058,19.9741,173.4058,19.8578,174.6058,19.8722,175.8058,19.9773,177.0058,19.7695,178.2058,20,179.4058,20,179.5903,18.8,179.1957,17.6,179.3398,16.4,179.5497,15.2,179.3772,14,179.4058,14.0227,179.4058,13.9894,178.2058,14.0595,177.0058,14.0797,175.8058,14.1952,174.6058,14,173.4058" style="stroke: #C82930; stroke-width: 1.0;"/><text fill="#A9A9A9" font-family="courier" font-size="15" lengthAdjust="spacingAndGlyphs" textLength="126" x="27" y="180.1938">Cabeza cabeza;</text><polygon fill="none" points="14,194.9907,14,195.0608,15.2,194.8526,16.4,195.0552,17.6,195.1239,18.8,194.7529,20,194.9907,19.9741,194.9907,19.8578,196.1907,19.8722,197.3907,19.9773,198.5907,19.7695,199.7907,20,200.9907,20,201.1753,18.8,200.7806,17.6,200.9248,16.4,201.1347,15.2,200.9621,14,200.9907,14.0227,200.9907,13.9894,199.7907,14.0595,198.5907,14.0797,197.3907,14.1952,196.1907,14,194.9907" style="stroke: #C82930; stroke-width: 1.0;"/><text fill="#A9A9A9" font-family="courier" font-size="15" lengthAdjust="spacingAndGlyphs" textLength="126" x="27" y="201.7788">Tronco tronco;</text><polygon fill="none" points="14,216.5757,14,216.6457,15.2,216.4376,16.4,216.6401,17.6,216.7089,18.8,216.3379,20,216.5757,19.9741,216.5757,19.8578,217.7757,19.8722,218.9757,19.9773,220.1757,19.7695,221.3757,20,222.5757,20,222.7602,18.8,222.3656,17.6,222.5098,16.4,222.7197,15.2,222.5471,14,222.5757,14.0227,222.5757,13.9894,221.3757,14.0595,220.1757,14.0797,218.9757,14.1952,217.7757,14,216.5757" style="stroke: #C82930; stroke-width: 1.0;"/><text fill="#A9A9A9" font-family="courier" font-size="15" lengthAdjust="spacingAndGlyphs" textLength="252" x="27" y="223.3638">Extremidades[] extremidades;</text><polygon fill="none" points="14,238.1606,14,238.2307,15.2,238.0225,16.4,238.2251,17.6,238.2939,18.8,237.9228,20,238.1606,19.9741,238.1606,19.8578,239.3606,19.8722,240.5606,19.9773,241.7606,19.7695,242.9606,20,244.1606,20,244.3452,18.8,243.9506,17.6,244.0947,16.4,244.3046,15.2,244.1321,14,244.1606,14.0227,244.1606,13.9894,242.9606,14.0595,241.7606,14.0797,240.5606,14.1952,239.3606,14,238.1606" style="stroke: #C82930; stroke-width: 1.0;"/><text fill="#A9A9A9" font-family="courier" font-size="15" lengthAdjust="spacingAndGlyphs" textLength="90" x="27" y="244.9487">Pene pene;</text><path d="M7,254.4531 L7,254.7334 L16.9286,253.9007 L26.8571,254.7108 L36.7857,254.986 L46.7143,253.5019 L56.6429,254.3495 L66.5714,253.8845 L76.5,253.9418 L86.4286,254.3622 L96.3571,253.5313 L106.2857,255.1913 L116.2143,253.6128 L126.1429,254.1894 L136.0714,255.0291 L146,254.3388 L155.9286,254.5441 L165.8571,254.4105 L175.7857,254.6912 L185.7143,254.772 L195.6429,255.234 L205.5714,255.3479 L215.5,255.3588 L225.4286,254.7926 L235.3571,255.0712 L245.2857,255.3894 L255.2143,253.4915 L265.1429,255.3578 L275.0714,254.0578 L285,254.4531 " fill="#222222" style="stroke: #DC143C; stroke-width: 3.0;"/><polygon fill="#84BE84" points="20.0166,271.4753,19.5768,272.0762,19.0567,272.9563,18.3128,273.5493,17.5311,273.8737,16.9078,273.9018,16.1067,273.4962,15.3509,273.2312,14.7771,272.6932,14.4762,272.0773,14.2977,271.5868,14.1229,270.9463,13.8391,270.395,14.0572,269.8568,14.2482,269.2672,14.9653,268.8009,15.4697,268.1959,16.0941,267.995,16.8364,267.822,17.7883,267.9248,18.3097,268.1707,18.9158,268.2821,19.6529,269.0372,19.9098,269.8344,20.0214,270.3783,19.895,271.2747" style="stroke: #038048; stroke-width: 1.0;"/><text fill="#A9A9A9" font-family="courier" font-size="15" lengthAdjust="spacingAndGlyphs" textLength="72" x="27" y="274.5337">Hombre()</text><polygon fill="#84BE84" points="20.0166,293.0603,19.5768,293.6611,19.0567,294.5412,18.3128,295.1343,17.5311,295.4586,16.9078,295.4868,16.1067,295.0812,15.3509,294.8162,14.7771,294.2782,14.4762,293.6622,14.2977,293.1718,14.1229,292.5312,13.8391,291.98,14.0572,291.4417,14.2482,290.8522,14.9653,290.3859,15.4697,289.7809,16.0941,289.58,16.8364,289.4069,17.7883,289.5097,18.3097,289.7556,18.9158,289.8671,19.6529,290.6222,19.9098,291.4194,20.0214,291.9633,19.895,292.8596" style="stroke: #038048; stroke-width: 1.0;"/><text fill="#A9A9A9" font-family="courier" font-size="15" lengthAdjust="spacingAndGlyphs" textLength="72" x="27" y="296.1187">bailar()</text><polygon fill="#84BE84" points="20.0166,314.6452,19.5768,315.2461,19.0567,316.1262,18.3128,316.7193,17.5311,317.0436,16.9078,317.0718,16.1067,316.6661,15.3509,316.4011,14.7771,315.8631,14.4762,315.2472,14.2977,314.7568,14.1229,314.1162,13.8391,313.5649,14.0572,313.0267,14.2482,312.4371,14.9653,311.9708,15.4697,311.3658,16.0941,311.1649,16.8364,310.9919,17.7883,311.0947,18.3097,311.3406,18.9158,311.452,19.6529,312.2072,19.9098,313.0043,20.0214,313.5483,19.895,314.4446" style="stroke: #038048; stroke-width: 1.0;"/><text fill="#A9A9A9" font-family="courier" font-size="15" lengthAdjust="spacingAndGlyphs" textLength="81" x="27" y="317.7036">correr();</text><polygon fill="#84BE84" points="20.0166,336.2302,19.5768,336.8311,19.0567,337.7111,18.3128,338.3042,17.5311,338.6286,16.9078,338.6567,16.1067,338.2511,15.3509,337.9861,14.7771,337.4481,14.4762,336.8322,14.2977,336.3417,14.1229,335.7011,13.8391,335.1499,14.0572,334.6117,14.2482,334.0221,14.9653,333.5558,15.4697,332.9508,16.0941,332.7499,16.8364,332.5769,17.7883,332.6797,18.3097,332.9255,18.9158,333.037,19.6529,333.7921,19.9098,334.5893,20.0214,335.1332,19.895,336.0295" style="stroke: #038048; stroke-width: 1.0;"/><text fill="#A9A9A9" font-family="courier" font-size="15" lengthAdjust="spacingAndGlyphs" textLength="108" x="27" y="339.2886">miccionar();</text><!--class Mujer--><polygon fill="#222222" points="321,122,321,122.2102,331,121.5857,341,122.1933,351,122.3997,361,121.2866,371,121.9223,381,121.5735,391,121.6165,401,121.9318,411,121.3086,421,122.5536,431,121.3697,441,121.8022,451,122.4319,461,121.9142,471,122.0682,481,121.9681,491,122.1785,501,122.2391,511,122.5857,521,122.6711,531,122.6793,541,122.2546,551,122.4636,561,122.7022,571,121.2788,581,122.6785,591,121.7035,601,122,601.5338,122,600.505,131.8606,600.9315,141.7211,601.7416,151.5817,600.9513,161.4423,601.1053,171.3028,601.3386,181.1634,601.4162,191.0239,600.9961,200.8845,601.2872,210.7451,600.4276,220.6056,601.2844,230.4662,601.5482,240.3268,601.4445,250.1873,601.613,260.0479,600.5169,269.9085,600.3478,279.769,600.3786,289.6296,600.9411,299.4901,600.8035,309.3507,601.6814,319.2113,600.8253,329.0718,600.6569,338.9324,601,348.793,601,349.0212,591,348.1261,581,348.2738,571,349.4419,561,349.2286,551,349.5275,541,348.4712,531,349.1122,521,349.3834,511,348.3206,501,348.6971,491,348.919,481,349.4447,471,348.7888,461,349.2555,451,348.2392,441,348.1157,431,349.2966,421,348.076,411,349.3019,401,348.9996,391,348.5251,381,348.4392,371,349.2517,361,348.4936,351,349.3848,341,348.2402,331,349.4104,321,348.793,321.4843,348.793,321.245,338.9324,321.0472,329.0718,321.7266,319.2113,321.6136,309.3507,321.1693,299.4901,321.2682,289.6296,320.8697,279.769,321.7165,269.9085,321.1549,260.0479,321.1726,250.1873,320.3916,240.3268,320.5948,230.4662,321.5307,220.6056,321.4298,210.7451,320.9571,200.8845,320.6778,191.0239,320.7811,181.1634,320.3138,171.3028,321.4147,161.4423,321.7396,151.5817,321.5264,141.7211,321.6949,131.8606,321,122" style="stroke: #DC143C; stroke-width: 3.0;"/><text fill="#DC143C" font-family="courier" font-size="20" font-weight="bold" lengthAdjust="spacingAndGlyphs" textLength="60" x="431" y="148.1074">Mujer</text><path d="M322,160.1133 L322,160.3935 L331.9286,159.5609 L341.8571,160.371 L351.7857,160.6462 L361.7143,159.1621 L371.6429,160.0097 L381.5714,159.5446 L391.5,159.6019 L401.4286,160.0224 L411.3571,159.1915 L421.2857,160.8515 L431.2143,159.2729 L441.1429,159.8496 L451.0714,160.6892 L461,159.9989 L470.9286,160.2043 L480.8571,160.0707 L490.7857,160.3513 L500.7143,160.4321 L510.6429,160.8942 L520.5714,161.008 L530.5,161.019 L540.4286,160.4528 L550.3571,160.7314 L560.2857,161.0496 L570.2143,159.1517 L580.1429,161.018 L590.0714,159.7179 L600,160.1133 " fill="#222222" style="stroke: #DC143C; stroke-width: 3.0;"/><polygon fill="none" points="329,173.4058,329,173.4758,330.2,173.2677,331.4,173.4702,332.6,173.539,333.8,173.168,335,173.4058,334.9741,173.4058,334.8578,174.6058,334.8722,175.8058,334.9773,177.0058,334.7695,178.2058,335,179.4058,335,179.5903,333.8,179.1957,332.6,179.3398,331.4,179.5497,330.2,179.3772,329,179.4058,329.0227,179.4058,328.9894,178.2058,329.0595,177.0058,329.0797,175.8058,329.1952,174.6058,329,173.4058" style="stroke: #C82930; stroke-width: 1.0;"/><text fill="#A9A9A9" font-family="courier" font-size="15" lengthAdjust="spacingAndGlyphs" textLength="126" x="342" y="180.1938">Cabeza cabeza;</text><polygon fill="none" points="329,194.9907,329,195.0608,330.2,194.8526,331.4,195.0552,332.6,195.1239,333.8,194.7529,335,194.9907,334.9741,194.9907,334.8578,196.1907,334.8722,197.3907,334.9773,198.5907,334.7695,199.7907,335,200.9907,335,201.1753,333.8,200.7806,332.6,200.9248,331.4,201.1347,330.2,200.9621,329,200.9907,329.0227,200.9907,328.9894,199.7907,329.0595,198.5907,329.0797,197.3907,329.1952,196.1907,329,194.9907" style="stroke: #C82930; stroke-width: 1.0;"/><text fill="#A9A9A9" font-family="courier" font-size="15" lengthAdjust="spacingAndGlyphs" textLength="126" x="342" y="201.7788">Tronco tronco;</text><polygon fill="none" points="329,216.5757,329,216.6457,330.2,216.4376,331.4,216.6401,332.6,216.7089,333.8,216.3379,335,216.5757,334.9741,216.5757,334.8578,217.7757,334.8722,218.9757,334.9773,220.1757,334.7695,221.3757,335,222.5757,335,222.7602,333.8,222.3656,332.6,222.5098,331.4,222.7197,330.2,222.5471,329,222.5757,329.0227,222.5757,328.9894,221.3757,329.0595,220.1757,329.0797,218.9757,329.1952,217.7757,329,216.5757" style="stroke: #C82930; stroke-width: 1.0;"/><text fill="#A9A9A9" font-family="courier" font-size="15" lengthAdjust="spacingAndGlyphs" textLength="252" x="342" y="223.3638">Extremidades[] extremidades;</text><polygon fill="none" points="329,238.1606,329,238.2307,330.2,238.0225,331.4,238.2251,332.6,238.2939,333.8,237.9228,335,238.1606,334.9741,238.1606,334.8578,239.3606,334.8722,240.5606,334.9773,241.7606,334.7695,242.9606,335,244.1606,335,244.3452,333.8,243.9506,332.6,244.0947,331.4,244.3046,330.2,244.1321,329,244.1606,329.0227,244.1606,328.9894,242.9606,329.0595,241.7606,329.0797,240.5606,329.1952,239.3606,329,238.1606" style="stroke: #C82930; stroke-width: 1.0;"/><text fill="#A9A9A9" font-family="courier" font-size="15" lengthAdjust="spacingAndGlyphs" textLength="126" x="342" y="244.9487">Vagina vagina;</text><path d="M322,254.4531 L322,254.7334 L331.9286,253.9007 L341.8571,254.7108 L351.7857,254.986 L361.7143,253.5019 L371.6429,254.3495 L381.5714,253.8845 L391.5,253.9418 L401.4286,254.3622 L411.3571,253.5313 L421.2857,255.1913 L431.2143,253.6128 L441.1429,254.1894 L451.0714,255.0291 L461,254.3388 L470.9286,254.5441 L480.8571,254.4105 L490.7857,254.6912 L500.7143,254.772 L510.6429,255.234 L520.5714,255.3479 L530.5,255.3588 L540.4286,254.7926 L550.3571,255.0712 L560.2857,255.3894 L570.2143,253.4915 L580.1429,255.3578 L590.0714,254.0578 L600,254.4531 " fill="#222222" style="stroke: #DC143C; stroke-width: 3.0;"/><polygon fill="#84BE84" points="335.0166,271.4753,334.5768,272.0762,334.0567,272.9563,333.3128,273.5493,332.5311,273.8737,331.9078,273.9018,331.1067,273.4962,330.3509,273.2312,329.7771,272.6932,329.4762,272.0773,329.2977,271.5868,329.1229,270.9463,328.8391,270.395,329.0572,269.8568,329.2482,269.2672,329.9653,268.8009,330.4697,268.1959,331.0941,267.995,331.8364,267.822,332.7883,267.9248,333.3097,268.1707,333.9158,268.2821,334.6529,269.0372,334.9098,269.8344,335.0214,270.3783,334.895,271.2747" style="stroke: #038048; stroke-width: 1.0;"/><text fill="#A9A9A9" font-family="courier" font-size="15" lengthAdjust="spacingAndGlyphs" textLength="63" x="342" y="274.5337">Mujer()</text><polygon fill="#84BE84" points="335.0166,293.0603,334.5768,293.6611,334.0567,294.5412,333.3128,295.1343,332.5311,295.4586,331.9078,295.4868,331.1067,295.0812,330.3509,294.8162,329.7771,294.2782,329.4762,293.6622,329.2977,293.1718,329.1229,292.5312,328.8391,291.98,329.0572,291.4417,329.2482,290.8522,329.9653,290.3859,330.4697,289.7809,331.0941,289.58,331.8364,289.4069,332.7883,289.5097,333.3097,289.7556,333.9158,289.8671,334.6529,290.6222,334.9098,291.4194,335.0214,291.9633,334.895,292.8596" style="stroke: #038048; stroke-width: 1.0;"/><text fill="#A9A9A9" font-family="courier" font-size="15" lengthAdjust="spacingAndGlyphs" textLength="72" x="342" y="296.1187">bailar()</text><polygon fill="#84BE84" points="335.0166,314.6452,334.5768,315.2461,334.0567,316.1262,333.3128,316.7193,332.5311,317.0436,331.9078,317.0718,331.1067,316.6661,330.3509,316.4011,329.7771,315.8631,329.4762,315.2472,329.2977,314.7568,329.1229,314.1162,328.8391,313.5649,329.0572,313.0267,329.2482,312.4371,329.9653,311.9708,330.4697,311.3658,331.0941,311.1649,331.8364,310.9919,332.7883,311.0947,333.3097,311.3406,333.9158,311.452,334.6529,312.2072,334.9098,313.0043,335.0214,313.5483,334.895,314.4446" style="stroke: #038048; stroke-width: 1.0;"/><text fill="#A9A9A9" font-family="courier" font-size="15" lengthAdjust="spacingAndGlyphs" textLength="81" x="342" y="317.7036">correr();</text><polygon fill="#84BE84" points="335.0166,336.2302,334.5768,336.8311,334.0567,337.7111,333.3128,338.3042,332.5311,338.6286,331.9078,338.6567,331.1067,338.2511,330.3509,337.9861,329.7771,337.4481,329.4762,336.8322,329.2977,336.3417,329.1229,335.7011,328.8391,335.1499,329.0572,334.6117,329.2482,334.0221,329.9653,333.5558,330.4697,332.9508,331.0941,332.7499,331.8364,332.5769,332.7883,332.6797,333.3097,332.9255,333.9158,333.037,334.6529,333.7921,334.9098,334.5893,335.0214,335.1332,334.895,336.0295" style="stroke: #038048; stroke-width: 1.0;"/><text fill="#A9A9A9" font-family="courier" font-size="15" lengthAdjust="spacingAndGlyphs" textLength="108" x="342" y="339.2886">miccionar();</text><!--link Cliente to Hombre--><path d="M282.15,62.36 L282.3698,62.5338 L275.4767,69.9073 L269.8721,78.2999 L263.848,86.3606 L256.4439,93.33 L250.8687,101.7457 L244.264,109.3472 L238.47,117.59 " fill="none" style="stroke: #A9A9A9; stroke-width: 2.0;"/><polygon fill="#A9A9A9" points="235.18,121.75,235.2125,121.8121,236.8606,120.7133,238.6993,119.9783,240.4759,119.1248,242.0483,117.8818,243.9034,117.178,243.9004,117.1523,242.7631,117.1673,241.641,117.312,240.5293,117.5469,239.3815,117.471,238.2842,117.8304,238.4676,117.8516,237.9451,116.6823,237.9578,115.5751,238.0359,114.4755,237.734,113.3318,237.6319,112.2112,237.654,112.2169,237.1312,114.1163,236.7088,116.0416,236.238,117.9543,235.8595,119.8909,235.18,121.75" style="stroke: #A9A9A9; stroke-width: 2.0;"/><!--link Cliente to Mujer--><path d="M323.98,62.36 L324.1993,62.5345 L329.8278,69.906 L336.7416,78.3005 L343.237,86.3619 L348.3558,93.3276 L355.2989,101.7455 L361.2151,109.3459 L367.94,117.59 " fill="none" style="stroke: #A9A9A9; stroke-width: 2.0;"/><polygon fill="#A9A9A9" points="371.25,121.75,371.3178,121.7676,370.6217,119.8087,370.3231,117.9529,369.895,116.0635,369.0412,114.0637,368.7767,112.2167,368.751,112.2138,368.5075,113.3248,368.3938,114.4505,368.3703,115.5865,368.036,116.6871,368.137,117.8373,368.1579,118.0207,366.9891,117.5006,365.8813,117.5159,364.7809,117.5965,363.6373,117.2971,362.5164,117.1976,362.5269,117.2177,364.2582,118.0986,366.0374,119.0713,367.7934,119.9997,369.5935,121.0126,371.25,121.75" style="stroke: #A9A9A9; stroke-width: 2.0;"/><!--
@startuml
skinparam backgroundColor #222222
skinparam handwritten true
hide circle
hide stereotype
skinparam shadowing false
skinparam padding 1
skinparam arrow {
    Thickness 2
    Color #DarkGrey
    FontSize 20
    FontName courier
    FontStyle normal
    FontColor #DarkGrey
}
skinparam class {
    BorderThickness 3
    BorderColor #DC143C
    BackgroundColor #222222
    FontSize 20
    FontName courier
    FontStyle bold
    FontColor #DC143C
}
skinparam classAttribute {
    FontSize 15
    FontName courier
    FontStyle normal
    FontColor #DarkGrey
}
skinparam note{
    BorderThickness 3
    BorderColor #DarkGrey
    BackgroundColor #222222
    FontSize 20
    FontName courier
    FontStyle normal
    FontColor #DarkGrey
}
class Cliente
note right
new Mujer(); ó new Hombre();
endnote

Cliente - -> Hombre
Cliente - -> Mujer

class Hombre {
- Cabeza cabeza;
- Tronco tronco;
- Extremidades[] extremidades;
- Pene pene;
+ Hombre()
+ bailar()
+ correr();
+ miccionar();
}

class Mujer  {
- Cabeza cabeza;
- Tronco tronco;
- Extremidades[] extremidades;
- Vagina vagina;
+ Mujer()
+ bailar()
+ correr();
+ miccionar();
}

@enduml

PlantUML version 1.2019.05(Sat Apr 20 18:45:36 CEST 2019)
(GPL source distribution)
Java Runtime: Java(TM) SE Runtime Environment
JVM: Java HotSpot(TM) 64-Bit Server VM
Java Version: 11.0.14+8-LTS-263
Operating System: Windows 10
OS Version: 10.0
Default Encoding: windows-1252
Language: es
Country: ES
--></g></svg>