<?xml version="1.0" encoding="UTF-8" standalone="no"?><svg xmlns="http://www.w3.org/2000/svg" xmlns:xlink="http://www.w3.org/1999/xlink" contentScriptType="application/ecmascript" contentStyleType="text/css" height="474px" preserveAspectRatio="none" style="width:715px;height:474px;background:#222222;" version="1.1" viewBox="0 0 715 474" width="715px" zoomAndPan="magnify"><defs/><g><!--class SecretariaAlumnos--><polygon fill="#222222" points="334.5,144,334.5,144.2102,344.5,143.5857,354.5,144.1933,364.5,144.3997,374.5,143.2866,384.5,143.9223,394.5,143.5735,404.5,143.6165,414.5,143.9318,424.5,143.3086,434.5,144.5536,444.5,143.3697,454.5,143.8022,464.5,144.4319,474.5,143.9142,484.5,144.0682,494.5,143.9681,504.5,144.1785,514.5,144.2391,524.5,144.5857,534.5,144.6711,544.5,144.6793,554.5,144.2546,564.5,144.4636,574.5,144.7022,584.5,143.2788,594.5,144.6785,604.5,143.7035,614.5,144.5338,624.5,143.505,634.5,143.9315,644.5,144.7416,654.5,143.9513,664.5,144.1053,674.5,144.3386,684.5,144.4162,694.5,143.9961,704.5,144,704.7872,144,703.9276,153.7283,704.7844,163.4566,705.0482,173.185,704.9445,182.9133,705.113,192.6416,704.0169,202.3699,703.8478,212.0982,703.8786,221.8266,704.4411,231.5549,704.5,241.2832,704.5,241.0867,694.5,241.9646,684.5,241.1085,674.5,240.9401,664.5,241.5115,654.5,240.6164,644.5,240.7641,634.5,241.9322,624.5,241.7189,614.5,242.0177,604.5,240.9614,594.5,241.6024,584.5,241.8736,574.5,240.8108,564.5,241.1873,554.5,241.4092,544.5,241.935,534.5,241.279,524.5,241.7458,514.5,240.7294,504.5,240.6059,494.5,241.7868,484.5,240.5663,474.5,241.7922,464.5,241.4898,454.5,241.0153,444.5,240.9294,434.5,241.742,424.5,240.9839,414.5,241.8751,404.5,240.7305,394.5,241.9006,384.5,241.7675,374.5,241.5282,364.5,241.3304,354.5,242.0098,344.5,241.8968,334.5,241.2832,334.6693,241.2832,334.7682,231.5549,334.3697,221.8266,335.2165,212.0982,334.6549,202.3699,334.6726,192.6416,333.8916,182.9133,334.0948,173.185,335.0307,163.4566,334.9298,153.7283,334.5,144" style="stroke: #228B22; stroke-width: 3.0;"/><text fill="#228B22" font-family="courier" font-size="20" font-style="italic" font-weight="bold" lengthAdjust="spacingAndGlyphs" textLength="204" x="417.5" y="170.1074">SecretariaAlumnos</text><path d="M335.5,182.1133 L335.5,182.3935 L345.4459,181.5609 L355.3919,182.371 L365.3378,182.6462 L375.2838,181.1621 L385.2297,182.0097 L395.1757,181.5446 L405.1216,181.6019 L415.0676,182.0224 L425.0135,181.1915 L434.9595,182.8515 L444.9054,181.2729 L454.8514,181.8496 L464.7973,182.6892 L474.7432,181.9989 L484.6892,182.2043 L494.6351,182.0707 L504.5811,182.3513 L514.527,182.4321 L524.473,182.8942 L534.4189,183.008 L544.3649,183.019 L554.3108,182.4528 L564.2568,182.7314 L574.2027,183.0496 L584.1486,181.1517 L594.0946,183.018 L604.0405,181.7179 L613.9865,182.825 L623.9324,181.4533 L633.8784,182.0219 L643.8243,183.1021 L653.7703,182.0483 L663.7162,182.2537 L673.6622,182.5648 L683.6081,182.6683 L693.5541,182.1081 L703.5,182.1133 " fill="#222222" style="stroke: #228B22; stroke-width: 3.0;"/><path d="M335.5,190.1133 L335.5,190.3935 L345.4459,189.5609 L355.3919,190.371 L365.3378,190.6462 L375.2838,189.1621 L385.2297,190.0097 L395.1757,189.5446 L405.1216,189.6019 L415.0676,190.0224 L425.0135,189.1915 L434.9595,190.8515 L444.9054,189.2729 L454.8514,189.8496 L464.7973,190.6892 L474.7432,189.9989 L484.6892,190.2043 L494.6351,190.0707 L504.5811,190.3513 L514.527,190.4321 L524.473,190.8942 L534.4189,191.008 L544.3649,191.019 L554.3108,190.4528 L564.2568,190.7314 L574.2027,191.0496 L584.1486,189.1517 L594.0946,191.018 L604.0405,189.7179 L613.9865,190.825 L623.9324,189.4533 L633.8784,190.0219 L643.8243,191.1021 L653.7703,190.0483 L663.7162,190.2537 L673.6622,190.5648 L683.6081,190.6683 L693.5541,190.1081 L703.5,190.1133 " fill="#222222" style="stroke: #228B22; stroke-width: 3.0;"/><polygon fill="#84BE84" points="348.5166,207.1355,348.0768,207.7363,347.5567,208.6164,346.8128,209.2095,346.0311,209.5338,345.4078,209.562,344.6067,209.1564,343.8509,208.8914,343.2771,208.3534,342.9762,207.7374,342.7977,207.247,342.6229,206.6064,342.3391,206.0552,342.5572,205.5169,342.7482,204.9274,343.4653,204.4611,343.9697,203.8561,344.5941,203.6552,345.3364,203.4821,346.2883,203.5849,346.8097,203.8308,347.4158,203.9423,348.1529,204.6974,348.4098,205.4946,348.5214,206.0385,348.395,206.9348" style="stroke: #038048; stroke-width: 1.0;"/><text fill="#A9A9A9" font-family="courier" font-size="15" lengthAdjust="spacingAndGlyphs" textLength="342" x="355.5" y="210.1938">int setIngresosFamiliares(int id, int)</text><polygon fill="#84BE84" points="348.5166,228.7204,348.0768,229.3213,347.5567,230.2014,346.8128,230.7945,346.0311,231.1188,345.4078,231.1469,344.6067,230.7413,343.8509,230.4763,343.2771,229.9383,342.9762,229.3224,342.7977,228.832,342.6229,228.1914,342.3391,227.6401,342.5572,227.1019,342.7482,226.5123,343.4653,226.046,343.9697,225.441,344.5941,225.2401,345.3364,225.0671,346.2883,225.1699,346.8097,225.4158,347.4158,225.5272,348.1529,226.2824,348.4098,227.0795,348.5214,227.6235,348.395,228.5198" style="stroke: #038048; stroke-width: 1.0;"/><text fill="#A9A9A9" font-family="courier" font-size="15" lengthAdjust="spacingAndGlyphs" textLength="297" x="355.5" y="231.7788">int getIngresosFamiliares(int id)</text><!--class SecretariaProfesores--><polygon fill="#222222" points="19.5,144,19.5,144.2102,29.5,143.5857,39.5,144.1933,49.5,144.3997,59.5,143.2866,69.5,143.9223,79.5,143.5735,89.5,143.6165,99.5,143.9318,109.5,143.3086,119.5,144.5536,129.5,143.3697,139.5,143.8022,149.5,144.4319,159.5,143.9142,169.5,144.0682,179.5,143.9681,189.5,144.1785,199.5,144.2391,209.5,144.5857,219.5,144.6711,229.5,144.6793,239.5,144.2546,249.5,144.4636,259.5,144.7022,269.5,143.2788,279.5,144.6785,289.5,143.7035,299.5,144,300.0338,144,299.005,153.7283,299.4315,163.4566,300.2416,173.185,299.4513,182.9133,299.6053,192.6416,299.8386,202.3699,299.9162,212.0982,299.4961,221.8266,299.7872,231.5549,299.5,241.2832,299.5,240.7108,289.5,241.5676,279.5,241.8314,269.5,241.7277,259.5,241.8962,249.5,240.8001,239.5,240.631,229.5,240.6618,219.5,241.2243,209.5,241.0867,199.5,241.9646,189.5,241.1085,179.5,240.9401,169.5,241.5115,159.5,240.6164,149.5,240.7641,139.5,241.9322,129.5,241.7189,119.5,242.0177,109.5,240.9614,99.5,241.6024,89.5,241.8736,79.5,240.8108,69.5,241.1873,59.5,241.4092,49.5,241.935,39.5,241.279,29.5,241.7458,19.5,241.2832,18.9462,241.2832,18.8227,231.5549,20.0036,221.8266,18.7831,212.0982,20.009,202.3699,19.7066,192.6416,19.2321,182.9133,19.1462,173.185,19.9588,163.4566,19.2007,153.7283,19.5,144" style="stroke: #228B22; stroke-width: 3.0;"/><text fill="#228B22" font-family="courier" font-size="20" font-style="italic" font-weight="bold" lengthAdjust="spacingAndGlyphs" textLength="240" x="39.5" y="170.1074">SecretariaProfesores</text><path d="M20.5,182.1133 L20.5,182.3935 L30.4286,181.5609 L40.3571,182.371 L50.2857,182.6462 L60.2143,181.1621 L70.1429,182.0097 L80.0714,181.5446 L90,181.6019 L99.9286,182.0224 L109.8571,181.1915 L119.7857,182.8515 L129.7143,181.2729 L139.6429,181.8496 L149.5714,182.6892 L159.5,181.9989 L169.4286,182.2043 L179.3571,182.0707 L189.2857,182.3513 L199.2143,182.4321 L209.1429,182.8942 L219.0714,183.008 L229,183.019 L238.9286,182.4528 L248.8571,182.7314 L258.7857,183.0496 L268.7143,181.1517 L278.6429,183.018 L288.5714,181.7179 L298.5,182.1133 " fill="#222222" style="stroke: #228B22; stroke-width: 3.0;"/><path d="M20.5,190.1133 L20.5,190.3935 L30.4286,189.5609 L40.3571,190.371 L50.2857,190.6462 L60.2143,189.1621 L70.1429,190.0097 L80.0714,189.5446 L90,189.6019 L99.9286,190.0224 L109.8571,189.1915 L119.7857,190.8515 L129.7143,189.2729 L139.6429,189.8496 L149.5714,190.6892 L159.5,189.9989 L169.4286,190.2043 L179.3571,190.0707 L189.2857,190.3513 L199.2143,190.4321 L209.1429,190.8942 L219.0714,191.008 L229,191.019 L238.9286,190.4528 L248.8571,190.7314 L258.7857,191.0496 L268.7143,189.1517 L278.6429,191.018 L288.5714,189.7179 L298.5,190.1133 " fill="#222222" style="stroke: #228B22; stroke-width: 3.0;"/><polygon fill="#84BE84" points="33.5166,207.1355,33.0768,207.7363,32.5567,208.6164,31.8128,209.2095,31.0311,209.5338,30.4078,209.562,29.6067,209.1564,28.8509,208.8914,28.2771,208.3534,27.9762,207.7374,27.7977,207.247,27.6229,206.6064,27.3391,206.0552,27.5572,205.5169,27.7482,204.9274,28.4653,204.4611,28.9697,203.8561,29.5941,203.6552,30.3364,203.4821,31.2883,203.5849,31.8097,203.8308,32.4158,203.9423,33.1529,204.6974,33.4098,205.4946,33.5214,206.0385,33.395,206.9348" style="stroke: #038048; stroke-width: 1.0;"/><text fill="#A9A9A9" font-family="courier" font-size="15" lengthAdjust="spacingAndGlyphs" textLength="252" x="40.5" y="210.1938">setCalificación(int id, int)</text><polygon fill="#84BE84" points="33.5166,228.7204,33.0768,229.3213,32.5567,230.2014,31.8128,230.7945,31.0311,231.1188,30.4078,231.1469,29.6067,230.7413,28.8509,230.4763,28.2771,229.9383,27.9762,229.3224,27.7977,228.832,27.6229,228.1914,27.3391,227.6401,27.5572,227.1019,27.7482,226.5123,28.4653,226.046,28.9697,225.441,29.5941,225.2401,30.3364,225.0671,31.2883,225.1699,31.8097,225.4158,32.4158,225.5272,33.1529,226.2824,33.4098,227.0795,33.5214,227.6235,33.395,228.5198" style="stroke: #038048; stroke-width: 1.0;"/><text fill="#A9A9A9" font-family="courier" font-size="15" lengthAdjust="spacingAndGlyphs" textLength="243" x="40.5" y="231.7788">int getCalificación(int id)</text><!--class Secretaria--><polygon fill="#222222" points="154.5,301,154.5,301.2102,164.5,300.5857,174.5,301.1933,184.5,301.3997,194.5,300.2866,204.5,300.9223,214.5,300.5735,224.5,300.6165,234.5,300.9318,244.5,300.3086,254.5,301.5536,264.5,300.3697,274.5,300.8022,284.5,301.4319,294.5,300.9142,304.5,301.0682,314.5,300.9681,324.5,301.1785,334.5,301.2391,344.5,301.5857,354.5,301.6711,364.5,301.6793,374.5,301.2546,384.5,301.4636,394.5,301.7022,404.5,300.2788,414.5,301.6785,424.5,300.7035,434.5,301.5338,444.5,300.505,454.5,300.9315,464.5,301.7416,474.5,300.9513,484.5,301.1053,494.5,301.3386,504.5,301.4162,514.5,300.9961,524.5,301,524.7872,301,523.9276,311.1274,524.7844,321.2548,525.0482,331.3821,524.9445,341.5095,525.113,351.6369,524.0169,361.7643,523.8478,371.8917,523.8786,382.019,524.4411,392.1464,524.3035,402.2738,525.1814,412.4012,524.3253,422.5286,524.1569,432.6559,524.7283,442.7833,523.8332,452.9107,524.5,463.0381,524.5,462.519,514.5,463.687,504.5,463.4738,494.5,463.7726,484.5,462.7163,474.5,463.3573,464.5,463.6285,454.5,462.5657,444.5,462.9422,434.5,463.1641,424.5,463.6898,414.5,463.0339,404.5,463.5007,394.5,462.4843,384.5,462.3608,374.5,463.5417,364.5,462.3211,354.5,463.547,344.5,463.2447,334.5,462.7702,324.5,462.6843,314.5,463.4968,304.5,462.7388,294.5,463.6299,284.5,462.4853,274.5,463.6555,264.5,463.5224,254.5,463.2831,244.5,463.0853,234.5,463.7647,224.5,463.6517,214.5,463.2073,204.5,463.3063,194.5,462.9078,184.5,463.7545,174.5,463.193,164.5,463.2107,154.5,463.0381,153.8916,463.0381,154.0948,452.9107,155.0307,442.7833,154.9298,432.6559,154.4571,422.5286,154.1778,412.4012,154.2811,402.2738,153.8138,392.1464,154.9147,382.019,155.2396,371.8917,155.0264,361.7643,155.1949,351.6369,154.3633,341.5095,154.5872,331.3821,154.1124,321.2548,154.784,311.1274,154.5,301" style="stroke: #228B22; stroke-width: 3.0;"/><text fill="#228B22" font-family="courier" font-size="20" font-weight="bold" lengthAdjust="spacingAndGlyphs" textLength="120" x="279.5" y="327.1074">Secretaria</text><path d="M155.5,339.1133 L155.5,339.3935 L165.4459,338.5609 L175.3919,339.371 L185.3378,339.6462 L195.2838,338.1621 L205.2297,339.0097 L215.1757,338.5446 L225.1216,338.6019 L235.0676,339.0224 L245.0135,338.1915 L254.9595,339.8515 L264.9054,338.2729 L274.8514,338.8496 L284.7973,339.6892 L294.7432,338.9989 L304.6892,339.2043 L314.6351,339.0707 L324.5811,339.3513 L334.527,339.4321 L344.473,339.8942 L354.4189,340.008 L364.3649,340.019 L374.3108,339.4528 L384.2568,339.7314 L394.2027,340.0496 L404.1486,338.1517 L414.0946,340.018 L424.0405,338.7179 L433.9865,339.825 L443.9324,338.4533 L453.8784,339.0219 L463.8243,340.1021 L473.7703,339.0483 L483.7162,339.2537 L493.6622,339.5648 L503.6081,339.6683 L513.5541,339.1081 L523.5,339.1133 " fill="#222222" style="stroke: #228B22; stroke-width: 3.0;"/><polygon fill="none" points="162.5,352.4058,162.5,352.4758,163.7,352.2677,164.9,352.4702,166.1,352.539,167.3,352.168,168.5,352.4058,168.4741,352.4058,168.3578,353.6058,168.3722,354.8058,168.4773,356.0058,168.2695,357.2058,168.5,358.4058,168.5,358.5903,167.3,358.1957,166.1,358.3398,164.9,358.5497,163.7,358.3772,162.5,358.4058,162.5227,358.4058,162.4894,357.2058,162.5595,356.0058,162.5797,354.8058,162.6952,353.6058,162.5,352.4058" style="stroke: #C82930; stroke-width: 1.0;"/><text fill="#A9A9A9" font-family="courier" font-size="15" lengthAdjust="spacingAndGlyphs" textLength="216" x="175.5" y="359.1938">Expediente expedientes[]</text><path d="M155.5,368.6982 L155.5,368.9785 L165.4459,368.1458 L175.3919,368.956 L185.3378,369.2311 L195.2838,367.747 L205.2297,368.5946 L215.1757,368.1296 L225.1216,368.1869 L235.0676,368.6074 L245.0135,367.7764 L254.9595,369.4364 L264.9054,367.8579 L274.8514,368.4346 L284.7973,369.2742 L294.7432,368.5839 L304.6892,368.7892 L314.6351,368.6556 L324.5811,368.9363 L334.527,369.0171 L344.473,369.4792 L354.4189,369.593 L364.3649,369.6039 L374.3108,369.0377 L384.2568,369.3164 L394.2027,369.6346 L404.1486,367.7367 L414.0946,369.6029 L424.0405,368.3029 L433.9865,369.41 L443.9324,368.0382 L453.8784,368.6069 L463.8243,369.687 L473.7703,368.6333 L483.7162,368.8386 L493.6622,369.1497 L503.6081,369.2532 L513.5541,368.693 L523.5,368.6982 " fill="#222222" style="stroke: #228B22; stroke-width: 3.0;"/><polygon fill="#84BE84" points="168.5166,385.7204,168.0768,386.3213,167.5567,387.2014,166.8128,387.7945,166.0311,388.1188,165.4078,388.1469,164.6067,387.7413,163.8509,387.4763,163.2771,386.9383,162.9762,386.3224,162.7977,385.832,162.6229,385.1914,162.3391,384.6401,162.5572,384.1019,162.7482,383.5123,163.4653,383.046,163.9697,382.441,164.5941,382.2401,165.3364,382.0671,166.2883,382.1699,166.8097,382.4158,167.4158,382.5272,168.1529,383.2824,168.4098,384.0795,168.5214,384.6235,168.395,385.5198" style="stroke: #038048; stroke-width: 1.0;"/><text fill="#A9A9A9" font-family="courier" font-size="15" lengthAdjust="spacingAndGlyphs" textLength="252" x="175.5" y="388.7788">setCalificación(int id, int)</text><polygon fill="#84BE84" points="168.5166,407.3054,168.0768,407.9063,167.5567,408.7863,166.8128,409.3794,166.0311,409.7038,165.4078,409.7319,164.6067,409.3263,163.8509,409.0613,163.2771,408.5233,162.9762,407.9073,162.7977,407.4169,162.6229,406.7763,162.3391,406.2251,162.5572,405.6869,162.7482,405.0973,163.4653,404.631,163.9697,404.026,164.5941,403.8251,165.3364,403.6521,166.2883,403.7549,166.8097,404.0007,167.4158,404.1122,168.1529,404.8673,168.4098,405.6645,168.5214,406.2084,168.395,407.1047" style="stroke: #038048; stroke-width: 1.0;"/><text fill="#A9A9A9" font-family="courier" font-size="15" lengthAdjust="spacingAndGlyphs" textLength="243" x="175.5" y="410.3638">int getCalificación(int id)</text><polygon fill="#84BE84" points="168.5166,428.8904,168.0768,429.4912,167.5567,430.3713,166.8128,430.9644,166.0311,431.2887,165.4078,431.3169,164.6067,430.9112,163.8509,430.6463,163.2771,430.1082,162.9762,429.4923,162.7977,429.0019,162.6229,428.3613,162.3391,427.81,162.5572,427.2718,162.7482,426.6823,163.4653,426.216,163.9697,425.6109,164.5941,425.41,165.3364,425.237,166.2883,425.3398,166.8097,425.5857,167.4158,425.6972,168.1529,426.4523,168.4098,427.2494,168.5214,427.7934,168.395,428.6897" style="stroke: #038048; stroke-width: 1.0;"/><text fill="#A9A9A9" font-family="courier" font-size="15" lengthAdjust="spacingAndGlyphs" textLength="342" x="175.5" y="431.9487">int setIngresosFamiliares(int id, int)</text><polygon fill="#84BE84" points="168.5166,450.4753,168.0768,451.0762,167.5567,451.9563,166.8128,452.5493,166.0311,452.8737,165.4078,452.9018,164.6067,452.4962,163.8509,452.2312,163.2771,451.6932,162.9762,451.0773,162.7977,450.5868,162.6229,449.9463,162.3391,449.395,162.5572,448.8568,162.7482,448.2672,163.4653,447.8009,163.9697,447.1959,164.5941,446.995,165.3364,446.822,166.2883,446.9248,166.8097,447.1707,167.4158,447.2821,168.1529,448.0372,168.4098,448.8344,168.5214,449.3783,168.395,450.2747" style="stroke: #038048; stroke-width: 1.0;"/><text fill="#A9A9A9" font-family="courier" font-size="15" lengthAdjust="spacingAndGlyphs" textLength="297" x="175.5" y="453.5337">int getIngresosFamiliares(int id)</text><!--class Profesor--><polygon fill="#222222" points="6,8,6,8.2102,15.9032,7.5857,25.8065,8.1933,35.7097,8.3997,45.6129,7.2866,55.5161,7.9223,65.4194,7.5735,75.3226,7.6165,85.2258,7.9318,95.129,7.3086,105.0323,8.5536,114.9355,7.3697,124.8387,7.8022,134.7419,8.4319,144.6452,7.9142,154.5484,8.0682,164.4516,7.9681,174.3548,8.1785,184.2581,8.2391,194.1613,8.5857,204.0645,8.6711,213.9677,8.6793,223.871,8.2546,233.7742,8.4636,243.6774,8.7022,253.5806,7.2788,263.4839,8.6785,273.3871,7.7035,283.2903,8.5338,293.1935,7.505,303.0968,7.9315,313,8,313.7416,8,312.9513,17.4623,313.1053,26.9246,313.3386,36.3868,313.4162,45.8491,312.9961,55.3114,313.2872,64.7737,312.4276,74.236,313,83.6982,313,83.9826,303.0968,84.2464,293.1935,84.1428,283.2903,84.3113,273.3871,83.2152,263.4839,83.0461,253.5806,83.0768,243.6774,83.6394,233.7742,83.5017,223.871,84.3797,213.9677,83.5236,204.0645,83.3552,194.1613,83.9265,184.2581,83.0314,174.3548,83.1791,164.4516,84.3472,154.5484,84.1339,144.6452,84.4327,134.7419,83.3764,124.8387,84.0174,114.9355,84.2887,105.0323,83.2258,95.129,83.6024,85.2258,83.8242,75.3226,84.35,65.4194,83.6941,55.5161,84.1608,45.6129,83.1445,35.7097,83.021,25.8065,84.2019,15.9032,82.9813,6,83.6982,6.509,83.6982,6.2066,74.236,5.7321,64.7737,5.6462,55.3114,6.4588,45.8491,5.7007,36.3868,6.5919,26.9246,5.4473,17.4623,6,8" style="stroke: #228B22; stroke-width: 3.0;"/><text fill="#228B22" font-family="courier" font-size="20" font-weight="bold" lengthAdjust="spacingAndGlyphs" textLength="96" x="111.5" y="34.1074">Profesor</text><path d="M7,46.1133 L7,46.3935 L16.8387,45.5609 L26.6774,46.371 L36.5161,46.6462 L46.3548,45.1621 L56.1935,46.0097 L66.0323,45.5446 L75.871,45.6019 L85.7097,46.0224 L95.5484,45.1915 L105.3871,46.8515 L115.2258,45.2729 L125.0645,45.8496 L134.9032,46.6892 L144.7419,45.9989 L154.5806,46.2043 L164.4194,46.0707 L174.2581,46.3513 L184.0968,46.4321 L193.9355,46.8942 L203.7742,47.008 L213.6129,47.019 L223.4516,46.4528 L233.2903,46.7314 L243.129,47.0496 L252.9677,45.1517 L262.8065,47.018 L272.6452,45.7179 L282.4839,46.825 L292.3226,45.4533 L302.1613,46.0219 L312,46.1133 " fill="#222222" style="stroke: #228B22; stroke-width: 3.0;"/><path d="M7,54.1133 L7,54.3935 L16.8387,53.5609 L26.6774,54.371 L36.5161,54.6462 L46.3548,53.1621 L56.1935,54.0097 L66.0323,53.5446 L75.871,53.6019 L85.7097,54.0224 L95.5484,53.1915 L105.3871,54.8515 L115.2258,53.2729 L125.0645,53.8496 L134.9032,54.6892 L144.7419,53.9989 L154.5806,54.2043 L164.4194,54.0707 L174.2581,54.3513 L184.0968,54.4321 L193.9355,54.8942 L203.7742,55.008 L213.6129,55.019 L223.4516,54.4528 L233.2903,54.7314 L243.129,55.0496 L252.9677,53.1517 L262.8065,55.018 L272.6452,53.7179 L282.4839,54.825 L292.3226,53.4533 L302.1613,54.0219 L312,54.1133 " fill="#222222" style="stroke: #228B22; stroke-width: 3.0;"/><polygon fill="#84BE84" points="20.0166,71.1355,19.5768,71.7363,19.0567,72.6164,18.3128,73.2095,17.5311,73.5338,16.9078,73.562,16.1067,73.1564,15.3509,72.8914,14.7771,72.3534,14.4762,71.7374,14.2977,71.247,14.1229,70.6064,13.8391,70.0552,14.0572,69.5169,14.2482,68.9274,14.9653,68.4611,15.4697,67.8561,16.0941,67.6552,16.8364,67.4821,17.7883,67.5849,18.3097,67.8308,18.9158,67.9423,19.6529,68.6974,19.9098,69.4946,20.0214,70.0385,19.895,70.9348" style="stroke: #038048; stroke-width: 1.0;"/><text fill="#A9A9A9" font-family="courier" font-size="15" lengthAdjust="spacingAndGlyphs" textLength="279" x="27" y="74.1938">calificar(SecretariaProfesores)</text><!--class Alumno--><polygon fill="#222222" points="375,8,375,8.2102,384.9655,7.5857,394.931,8.1933,404.8966,8.3997,414.8621,7.2866,424.8276,7.9223,434.7931,7.5735,444.7586,7.6165,454.7241,7.9318,464.6897,7.3086,474.6552,8.5536,484.6207,7.3697,494.5862,7.8022,504.5517,8.4319,514.5172,7.9142,524.4828,8.0682,534.4483,7.9681,544.4138,8.1785,554.3793,8.2391,564.3448,8.5857,574.3103,8.6711,584.2759,8.6793,594.2414,8.2546,604.2069,8.4636,614.1724,8.7022,624.1379,7.2788,634.1034,8.6785,644.069,7.7035,654.0345,8.5338,664,8,663.505,8,663.9315,17.4623,664.7416,26.9246,663.9513,36.3868,664.1053,45.8491,664.3386,55.3114,664.4162,64.7737,663.9961,74.236,664,83.6982,664,83.9855,654.0345,83.1258,644.069,83.9826,634.1034,84.2464,624.1379,84.1428,614.1724,84.3113,604.2069,83.2152,594.2414,83.0461,584.2759,83.0768,574.3103,83.6394,564.3448,83.5017,554.3793,84.3797,544.4138,83.5236,534.4483,83.3552,524.4828,83.9265,514.5172,83.0314,504.5517,83.1791,494.5862,84.3472,484.6207,84.1339,474.6552,84.4327,464.6897,83.3764,454.7241,84.0174,444.7586,84.2887,434.7931,83.2258,424.8276,83.6024,414.8621,83.8242,404.8966,84.35,394.931,83.6941,384.9655,84.1608,375,83.6982,374.4462,83.6982,374.3227,74.236,375.5036,64.7737,374.2831,55.3114,375.509,45.8491,375.2066,36.3868,374.7321,26.9246,374.6462,17.4623,375,8" style="stroke: #228B22; stroke-width: 3.0;"/><text fill="#228B22" font-family="courier" font-size="20" font-weight="bold" lengthAdjust="spacingAndGlyphs" textLength="72" x="483.5" y="34.1074">Alumno</text><path d="M376,46.1133 L376,46.3935 L385.8966,45.5609 L395.7931,46.371 L405.6897,46.6462 L415.5862,45.1621 L425.4828,46.0097 L435.3793,45.5446 L445.2759,45.6019 L455.1724,46.0224 L465.069,45.1915 L474.9655,46.8515 L484.8621,45.2729 L494.7586,45.8496 L504.6552,46.6892 L514.5517,45.9989 L524.4483,46.2043 L534.3448,46.0707 L544.2414,46.3513 L554.1379,46.4321 L564.0345,46.8942 L573.931,47.008 L583.8276,47.019 L593.7241,46.4528 L603.6207,46.7314 L613.5172,47.0496 L623.4138,45.1517 L633.3103,47.018 L643.2069,45.7179 L653.1034,46.825 L663,46.1133 " fill="#222222" style="stroke: #228B22; stroke-width: 3.0;"/><path d="M376,54.1133 L376,54.3935 L385.8966,53.5609 L395.7931,54.371 L405.6897,54.6462 L415.5862,53.1621 L425.4828,54.0097 L435.3793,53.5446 L445.2759,53.6019 L455.1724,54.0224 L465.069,53.1915 L474.9655,54.8515 L484.8621,53.2729 L494.7586,53.8496 L504.6552,54.6892 L514.5517,53.9989 L524.4483,54.2043 L534.3448,54.0707 L544.2414,54.3513 L554.1379,54.4321 L564.0345,54.8942 L573.931,55.008 L583.8276,55.019 L593.7241,54.4528 L603.6207,54.7314 L613.5172,55.0496 L623.4138,53.1517 L633.3103,55.018 L643.2069,53.7179 L653.1034,54.825 L663,54.1133 " fill="#222222" style="stroke: #228B22; stroke-width: 3.0;"/><polygon fill="#84BE84" points="389.0166,71.1355,388.5768,71.7363,388.0567,72.6164,387.3128,73.2095,386.5311,73.5338,385.9078,73.562,385.1067,73.1564,384.3509,72.8914,383.7771,72.3534,383.4762,71.7374,383.2977,71.247,383.1229,70.6064,382.8391,70.0552,383.0572,69.5169,383.2482,68.9274,383.9653,68.4611,384.4697,67.8561,385.0941,67.6552,385.8364,67.4821,386.7883,67.5849,387.3097,67.8308,387.9158,67.9423,388.6529,68.6974,388.9098,69.4946,389.0214,70.0385,388.895,70.9348" style="stroke: #038048; stroke-width: 1.0;"/><text fill="#A9A9A9" font-family="courier" font-size="15" lengthAdjust="spacingAndGlyphs" textLength="261" x="396" y="74.1938">matricular(SecretariaAlumnos)</text><!--link SecretariaProfesores to Secretaria--><path d="M219.36,255.85 L219.5622,256.0441 L226.1648,262.9708 L233.9526,271.0351 L241.3544,278.7291 L247.4872,285.2046 L255.3019,293.2949 L262.58,300.87 " fill="none" style="stroke: #A9A9A9; stroke-width: 2.0; stroke-dasharray: 7.0,7.0;"/><polygon fill="none" points="214.19,260.57,214.2537,260.5991,212.3044,256.6586,210.7286,252.8888,209.0312,249.0633,206.9337,245.0552,205.39,241.3,205.3783,241.2769,209.1057,243.0892,212.8922,245.018,216.7197,247.0277,220.4058,248.7584,224.29,250.88,224.4178,251.0132,222.1246,252.6664,220.2044,254.7084,218.3297,256.7979,216.1902,258.6114,214.19,260.57" style="stroke: #A9A9A9; stroke-width: 2.0;"/><!--link SecretariaAlumnos to Secretaria--><path d="M459.64,255.85 L459.8422,256.0441 L452.0382,262.9708 L445.4192,271.0351 L438.4144,278.7291 L430.1405,285.2046 L423.5486,293.2949 L416.42,300.87 " fill="none" style="stroke: #A9A9A9; stroke-width: 2.0; stroke-dasharray: 7.0,7.0;"/><polygon fill="none" points="454.71,250.88,454.7417,250.9425,458.4276,248.8408,462.2991,247.1055,466.1102,245.2508,469.7225,243.0039,473.61,241.3,473.5864,241.2892,471.7207,245.0949,469.9737,248.9549,468.3093,252.8526,466.3604,256.6203,464.81,260.57,464.9378,260.7032,462.6446,258.4804,460.7244,256.6464,458.8497,254.8599,456.7102,252.7974,454.71,250.88" style="stroke: #A9A9A9; stroke-width: 2.0;"/><!--link Profesor to SecretariaProfesores--><path d="M159.5,84.21 L159.7802,84.21 L158.9476,95.112 L159.7577,106.014 L160.0329,116.916 L158.5488,127.818 L159.5,138.72 " fill="none" style="stroke: #A9A9A9; stroke-width: 2.0;"/><polygon fill="#A9A9A9" points="159.5,143.76,159.564,143.7885,160.1738,141.9039,161.1589,140.1862,162.0217,138.4141,162.4827,136.4634,163.5,134.76,163.4817,134.7417,162.5995,135.4595,161.8096,136.2696,161.0839,137.1439,160.137,137.797,159.5,138.76,159.6305,138.8905,158.5514,137.8114,157.8534,137.1134,157.2018,136.4618,156.2798,135.5398,155.5,134.76,155.5208,134.7692,156.2903,136.5557,157.1544,138.3842,157.9728,140.1924,158.8784,142.0393,159.5,143.76" style="stroke: #A9A9A9; stroke-width: 2.0;"/><!--link Alumno to SecretariaAlumnos--><path d="M519.5,84.21 L519.7802,84.21 L518.9476,95.112 L519.7577,106.014 L520.0329,116.916 L518.5488,127.818 L519.5,138.72 " fill="none" style="stroke: #A9A9A9; stroke-width: 2.0;"/><polygon fill="#A9A9A9" points="519.5,143.76,519.564,143.7885,520.1738,141.9039,521.1589,140.1862,522.0217,138.4141,522.4827,136.4634,523.5,134.76,523.4817,134.7417,522.5995,135.4595,521.8096,136.2696,521.0839,137.1439,520.137,137.797,519.5,138.76,519.6305,138.8905,518.5514,137.8114,517.8534,137.1134,517.2018,136.4618,516.2798,135.5398,515.5,134.76,515.5208,134.7692,516.2903,136.5557,517.1544,138.3842,517.9728,140.1924,518.8784,142.0393,519.5,143.76" style="stroke: #A9A9A9; stroke-width: 2.0;"/><!--
@startuml
skinparam backgroundColor #222222
skinparam handwritten true
hide circle
hide stereotype
skinparam shadowing false
skinparam padding 1
skinparam arrow {
    Thickness 2
    Color #DarkGrey
    FontSize 20
    FontName courier
    FontStyle normal
    FontColor #DarkGrey
}
skinparam interface {
    BorderThickness 3
    BorderColor #228B22
    BackgroundColor #222222
    FontSize 20
    FontName courier
    FontStyle bold
    FontColor #228B22
}
skinparam class {
    BorderThickness 3
    BorderColor #228B22
    BackgroundColor #222222
    FontSize 20
    FontName courier
    FontStyle bold
    FontColor #228B22
}
skinparam classAttribute {
    FontSize 15
    FontName courier
    FontStyle normal
    FontColor #DarkGrey
}
skinparam interfaceAttribute {
    FontSize 15
    FontName courier
    FontStyle normal
    FontColor #DarkGrey
}

interface SecretariaAlumnos {
+ int setIngresosFamiliares(int id, int)
+ int getIngresosFamiliares(int id)
}
interface SecretariaProfesores {
+ setCalificación(int id, int)
+ int getCalificación(int id)
}

class Secretaria {
- Expediente expedientes[]
+ setCalificación(int id, int)
+ int getCalificación(int id)
+ int setIngresosFamiliares(int id, int)
+ int getIngresosFamiliares(int id)
}

class Profesor {
+ calificar(SecretariaProfesores)
}

class Alumno  {
+ matricular(SecretariaAlumnos)
}

SecretariaProfesores <|.down. Secretaria
SecretariaAlumnos <|.down. Secretaria
Profesor -down-> SecretariaProfesores
Alumno -down-> SecretariaAlumnos
@enduml

PlantUML version 1.2019.05(Sat Apr 20 18:45:36 CEST 2019)
(GPL source distribution)
Java Runtime: Java(TM) SE Runtime Environment
JVM: Java HotSpot(TM) 64-Bit Server VM
Java Version: 11.0.14+8-LTS-263
Operating System: Windows 10
OS Version: 10.0
Default Encoding: windows-1252
Language: es
Country: ES
--></g></svg>