<?xml version="1.0" encoding="UTF-8" standalone="no"?><svg xmlns="http://www.w3.org/2000/svg" xmlns:xlink="http://www.w3.org/1999/xlink" contentScriptType="application/ecmascript" contentStyleType="text/css" height="370px" preserveAspectRatio="none" style="width:468px;height:370px;background:#222222;" version="1.1" viewBox="0 0 468 370" width="468px" zoomAndPan="magnify"><defs/><g><!--class Cliente--><polygon fill="#222222" points="189.5,8,189.5,8.2102,199.7222,7.5857,209.9444,8.1933,220.1667,8.3997,230.3889,7.2866,240.6111,7.9223,250.8333,7.5735,261.0556,7.6165,271.2778,7.9318,281.5,8,280.8086,8,282.0536,18.8227,280.8697,29.6453,281.3022,40.468,281.9319,51.2906,281.5,62.1133,281.5,62.0275,271.2778,62.1815,261.0556,62.0813,250.8333,62.2918,240.6111,62.3524,230.3889,62.699,220.1667,62.7843,209.9444,62.7925,199.7222,62.3679,189.5,62.1133,189.9636,62.1133,190.2022,51.2906,188.7788,40.468,190.1785,29.6453,189.2035,18.8227,189.5,8" style="stroke: #A9A9A9; stroke-width: 3.0;"/><text fill="#A9A9A9" font-family="courier" font-size="20" font-weight="bold" lengthAdjust="spacingAndGlyphs" textLength="84" x="193.5" y="34.1074">Cliente</text><path d="M190.5,46.1133 L190.5,46.3935 L200.5,45.5609 L210.5,46.371 L220.5,46.6462 L230.5,45.1621 L240.5,46.0097 L250.5,45.5446 L260.5,45.6019 L270.5,46.0224 L280.5,46.1133 " fill="#222222" style="stroke: #A9A9A9; stroke-width: 3.0;"/><path d="M190.5,54.1133 L190.5,54.3935 L200.5,53.5609 L210.5,54.371 L220.5,54.6462 L230.5,53.1621 L240.5,54.0097 L250.5,53.5446 L260.5,53.6019 L270.5,54.0224 L280.5,54.1133 " fill="#222222" style="stroke: #A9A9A9; stroke-width: 3.0;"/><!--class Base--><polygon fill="#222222" points="140.5,122,140.5,122.2102,150.5,121.5857,160.5,122.1933,170.5,122.3997,180.5,121.2866,190.5,121.9223,200.5,121.5735,210.5,121.6165,220.5,121.9318,230.5,121.3086,240.5,122.5536,250.5,121.3697,260.5,121.8022,270.5,122.4319,280.5,121.9142,290.5,122.0682,300.5,121.9681,310.5,122.1785,320.5,122.2391,330.5,122,331.0857,122,331.1711,131.4623,331.1793,140.9246,330.7546,150.3868,330.9636,159.8491,331.2022,169.3114,329.7788,178.7737,331.1785,188.236,330.5,197.6982,330.5,197.4017,320.5,198.2321,310.5,197.2032,300.5,197.6297,290.5,198.4398,280.5,197.6495,270.5,197.8035,260.5,198.0369,250.5,198.1145,240.5,197.6943,230.5,197.9855,220.5,197.1258,210.5,197.9826,200.5,198.2464,190.5,198.1428,180.5,198.3113,170.5,197.2152,160.5,197.0461,150.5,197.0768,140.5,197.6982,140.4411,197.6982,140.3035,188.236,141.1814,178.7737,140.3253,169.3114,140.1569,159.8491,140.7283,150.3868,139.8332,140.9246,139.9809,131.4623,140.5,122" style="stroke: #A9A9A9; stroke-width: 3.0;"/><text fill="#A9A9A9" font-family="courier" font-size="20" font-weight="bold" lengthAdjust="spacingAndGlyphs" textLength="48" x="211.5" y="148.1074">Base</text><path d="M141.5,160.1133 L141.5,160.3935 L151.3947,159.5609 L161.2895,160.371 L171.1842,160.6462 L181.0789,159.1621 L190.9737,160.0097 L200.8684,159.5446 L210.7632,159.6019 L220.6579,160.0224 L230.5526,159.1915 L240.4474,160.8515 L250.3421,159.2729 L260.2368,159.8496 L270.1316,160.6892 L280.0263,159.9989 L289.9211,160.2043 L299.8158,160.0707 L309.7105,160.3513 L319.6053,160.4321 L329.5,160.1133 " fill="#222222" style="stroke: #A9A9A9; stroke-width: 3.0;"/><path d="M141.5,168.1133 L141.5,168.3935 L151.3947,167.5609 L161.2895,168.371 L171.1842,168.6462 L181.0789,167.1621 L190.9737,168.0097 L200.8684,167.5446 L210.7632,167.6019 L220.6579,168.0224 L230.5526,167.1915 L240.4474,168.8515 L250.3421,167.2729 L260.2368,167.8496 L270.1316,168.6892 L280.0263,167.9989 L289.9211,168.2043 L299.8158,168.0707 L309.7105,168.3513 L319.6053,168.4321 L329.5,168.1133 " fill="#222222" style="stroke: #A9A9A9; stroke-width: 3.0;"/><polygon fill="#84BE84" points="154.5166,185.1355,154.0768,185.7363,153.5567,186.6164,152.8128,187.2095,152.0311,187.5338,151.4078,187.562,150.6067,187.1564,149.8509,186.8914,149.2771,186.3534,148.9762,185.7374,148.7977,185.247,148.6229,184.6064,148.3391,184.0552,148.5572,183.5169,148.7482,182.9274,149.4653,182.4611,149.9697,181.8561,150.5941,181.6552,151.3364,181.4821,152.2883,181.5849,152.8097,181.8308,153.4158,181.9423,154.1529,182.6974,154.4098,183.4946,154.5214,184.0385,154.395,184.9348" style="stroke: #038048; stroke-width: 1.0;"/><text fill="#A9A9A9" font-family="courier" font-size="15" lengthAdjust="spacingAndGlyphs" textLength="162" x="161.5" y="188.1938">m([0..30]):[0..70]</text><!--class SustituibleDerivada--><polygon fill="#222222" points="6,258,6,258.2102,15.8636,257.5857,25.7273,258.1933,35.5909,258.3997,45.4545,257.2866,55.3182,257.9223,65.1818,257.5735,75.0455,257.6165,84.9091,257.9318,94.7727,257.3086,104.6364,258.5536,114.5,257.3697,124.3636,257.8022,134.2273,258.4319,144.0909,257.9142,153.9545,258.0682,163.8182,257.9681,173.6818,258.1785,183.5455,258.2391,193.4091,258.5857,203.2727,258.6711,213.1364,258.6793,223,258,223.2546,258,223.4636,268.1812,223.7022,278.3623,222.2788,288.5435,223.6785,298.7246,222.7035,308.9058,223.5338,319.0869,222.505,329.2681,222.9315,339.4492,223.7416,349.6304,223,359.8115,223,359.7628,213.1364,359.9168,203.2727,360.1502,193.4091,360.2278,183.5455,359.8076,173.6818,360.0987,163.8182,359.2391,153.9545,360.0959,144.0909,360.3597,134.2273,360.2561,124.3636,360.4245,114.5,359.3284,104.6364,359.1593,94.7727,359.1901,84.9091,359.7526,75.0455,359.615,65.1818,360.4929,55.3182,359.6368,45.4545,359.4685,35.5909,360.0398,25.7273,359.1447,15.8636,359.2924,6,359.8115,6.649,359.8115,6.4357,349.6304,6.7345,339.4492,5.6782,329.2681,6.3192,319.0869,6.5904,308.9058,5.5276,298.7246,5.9041,288.5435,6.126,278.3623,6.6518,268.1812,6,258" style="stroke: #228B22; stroke-width: 3.0;"/><text fill="#228B22" font-family="courier" font-size="20" font-weight="bold" lengthAdjust="spacingAndGlyphs" textLength="132" x="48.5" y="284.1074">Sustituible</text><text fill="#228B22" font-family="courier" font-size="20" font-weight="bold" lengthAdjust="spacingAndGlyphs" textLength="96" x="66.5" y="310.2207">Derivada</text><path d="M7,322.2266 L7,322.5068 L16.7727,321.6741 L26.5455,322.4843 L36.3182,322.7595 L46.0909,321.2754 L55.8636,322.1229 L65.6364,321.6579 L75.4091,321.7152 L85.1818,322.1357 L94.9545,321.3047 L104.7273,322.9648 L114.5,321.3862 L124.2727,321.9629 L134.0455,322.8025 L143.8182,322.1122 L153.5909,322.3175 L163.3636,322.184 L173.1364,322.4646 L182.9091,322.5454 L192.6818,323.0075 L202.4545,323.1213 L212.2273,323.1322 L222,322.2266 " fill="#222222" style="stroke: #228B22; stroke-width: 3.0;"/><path d="M7,330.2266 L7,330.5068 L16.7727,329.6741 L26.5455,330.4843 L36.3182,330.7595 L46.0909,329.2754 L55.8636,330.1229 L65.6364,329.6579 L75.4091,329.7152 L85.1818,330.1357 L94.9545,329.3047 L104.7273,330.9648 L114.5,329.3862 L124.2727,329.9629 L134.0455,330.8025 L143.8182,330.1122 L153.5909,330.3175 L163.3636,330.184 L173.1364,330.4646 L182.9091,330.5454 L192.6818,331.0075 L202.4545,331.1213 L212.2273,331.1322 L222,330.2266 " fill="#222222" style="stroke: #228B22; stroke-width: 3.0;"/><polygon fill="#84BE84" points="20.0166,347.2488,19.5768,347.8496,19.0567,348.7297,18.3128,349.3228,17.5311,349.6471,16.9078,349.6753,16.1067,349.2696,15.3509,349.0047,14.7771,348.4666,14.4762,347.8507,14.2977,347.3603,14.1229,346.7197,13.8391,346.1684,14.0572,345.6302,14.2482,345.0406,14.9653,344.5744,15.4697,343.9693,16.0941,343.7684,16.8364,343.5954,17.7883,343.6982,18.3097,343.9441,18.9158,344.0555,19.6529,344.8107,19.9098,345.6078,20.0214,346.1518,19.895,347.0481" style="stroke: #038048; stroke-width: 1.0;"/><text fill="#A9A9A9" font-family="courier" font-size="15" lengthAdjust="spacingAndGlyphs" textLength="189" x="27" y="350.3071">m([-300..300]):[0..7]</text><!--class InsustituibleDerivada--><polygon fill="#222222" points="258,258,258,258.2102,267.95,257.5857,277.9,258.1933,287.85,258.3997,297.8,257.2866,307.75,257.9223,317.7,257.5735,327.65,257.6165,337.6,257.9318,347.55,257.3086,357.5,258.5536,367.45,257.3697,377.4,257.8022,387.35,258.4319,397.3,257.9142,407.25,258.0682,417.2,257.9681,427.15,258.1785,437.1,258.2391,447.05,258.5857,457,258,457.6711,258,457.6793,268.1812,457.2546,278.3623,457.4636,288.5435,457.7022,298.7246,456.2788,308.9058,457.6785,319.0869,456.7035,329.2681,457.5338,339.4492,456.505,349.6304,457,359.8115,457,359.743,447.05,360.5531,437.1,359.7628,427.15,359.9168,417.2,360.1502,407.25,360.2278,397.3,359.8076,387.35,360.0987,377.4,359.2391,367.45,360.0959,357.5,360.3597,347.55,360.2561,337.6,360.4245,327.65,359.3284,317.7,359.1593,307.75,359.1901,297.8,359.7526,287.85,359.615,277.9,360.4929,267.95,359.6368,258,359.8115,257.6569,359.8115,258.2283,349.6304,257.3332,339.4492,257.4809,329.2681,258.649,319.0869,258.4357,308.9058,258.7345,298.7246,257.6782,288.5435,258.3192,278.3623,258.5904,268.1812,258,258" style="stroke: #DC143C; stroke-width: 3.0;"/><text fill="#DC143C" font-family="courier" font-size="20" font-weight="bold" lengthAdjust="spacingAndGlyphs" textLength="156" x="279.5" y="284.1074">Insustituible</text><text fill="#DC143C" font-family="courier" font-size="20" font-weight="bold" lengthAdjust="spacingAndGlyphs" textLength="96" x="309.5" y="310.2207">Derivada</text><path d="M259,322.2266 L259,322.5068 L268.85,321.6741 L278.7,322.4843 L288.55,322.7595 L298.4,321.2754 L308.25,322.1229 L318.1,321.6579 L327.95,321.7152 L337.8,322.1357 L347.65,321.3047 L357.5,322.9648 L367.35,321.3862 L377.2,321.9629 L387.05,322.8025 L396.9,322.1122 L406.75,322.3175 L416.6,322.184 L426.45,322.4646 L436.3,322.5454 L446.15,323.0075 L456,322.2266 " fill="#222222" style="stroke: #DC143C; stroke-width: 3.0;"/><path d="M259,330.2266 L259,330.5068 L268.85,329.6741 L278.7,330.4843 L288.55,330.7595 L298.4,329.2754 L308.25,330.1229 L318.1,329.6579 L327.95,329.7152 L337.8,330.1357 L347.65,329.3047 L357.5,330.9648 L367.35,329.3862 L377.2,329.9629 L387.05,330.8025 L396.9,330.1122 L406.75,330.3175 L416.6,330.184 L426.45,330.4646 L436.3,330.5454 L446.15,331.0075 L456,330.2266 " fill="#222222" style="stroke: #DC143C; stroke-width: 3.0;"/><polygon fill="#84BE84" points="272.0166,347.2488,271.5768,347.8496,271.0567,348.7297,270.3128,349.3228,269.5311,349.6471,268.9078,349.6753,268.1067,349.2696,267.3509,349.0047,266.7771,348.4666,266.4762,347.8507,266.2977,347.3603,266.1229,346.7197,265.8391,346.1684,266.0572,345.6302,266.2482,345.0406,266.9653,344.5744,267.4697,343.9693,268.0941,343.7684,268.8364,343.5954,269.7883,343.6982,270.3097,343.9441,270.9158,344.0555,271.6529,344.8107,271.9098,345.6078,272.0214,346.1518,271.895,347.0481" style="stroke: #038048; stroke-width: 1.0;"/><text fill="#A9A9A9" font-family="courier" font-size="15" lengthAdjust="spacingAndGlyphs" textLength="171" x="279" y="350.3071">m([0..3]):[-70..70]</text><!--link Cliente to Base--><path d="M235.5,62.09 L235.7802,62.09 L234.9476,73.014 L235.7577,83.938 L236.0329,94.862 L234.5488,105.786 L235.5,116.71 " fill="none" style="stroke: #A9A9A9; stroke-width: 2.0; stroke-dasharray: 7.0,7.0;"/><polygon fill="#A9A9A9" points="235.5,121.75,235.564,121.7785,236.1738,119.8939,237.1589,118.1762,238.0217,116.4041,238.4827,114.4534,239.5,112.75,239.4817,112.7317,238.5995,113.4495,237.8096,114.2596,237.0839,115.1339,236.137,115.787,235.5,116.75,235.6305,116.8805,234.5514,115.8014,233.8534,115.1034,233.2018,114.4518,232.2798,113.5298,231.5,112.75,231.5208,112.7592,232.2903,114.5457,233.1544,116.3742,233.9728,118.1824,234.8784,120.0293,235.5,121.75" style="stroke: #A9A9A9; stroke-width: 2.0;"/><!--link Base to SustituibleDerivada--><path d="M192.11,213.71 L192.3264,213.8881 L185.6268,220.719 L180.1957,228.5938 L174.3515,236.1286 L167.1489,242.5456 L161.7467,250.4442 L155.77,257.87 " fill="none" style="stroke: #A9A9A9; stroke-width: 2.0;"/><polygon fill="none" points="186.85,209.09,186.8864,209.1499,190.4023,206.7719,194.1314,204.7451,197.7911,202.6039,201.2226,200.0867,204.97,198.09,204.9457,198.0811,203.3746,202.019,201.926,206.0019,200.5627,210.0162,198.9057,213.9225,197.66,217.98,197.7772,218.1225,195.3646,216.0397,193.2941,214.3731,191.2655,212.7572,188.9938,210.8459,186.85,209.09" style="stroke: #A9A9A9; stroke-width: 2.0;"/><!--link Base to InsustituibleDerivada--><path d="M279.25,213.71 L279.4657,213.8889 L284.9315,220.7173 L291.6617,228.5946 L297.9801,236.1303 L302.9446,242.5426 L309.7036,250.4438 L315.89,257.87 " fill="none" style="stroke: #A9A9A9; stroke-width: 2.0;"/><polygon fill="none" points="273.67,217.95,273.7357,217.9744,272.0645,213.9299,270.7784,210.0284,269.3669,206.0804,267.5431,201.9792,266.29,198.09,266.2767,198.0678,269.8487,200.1522,273.4881,202.3484,277.1743,204.6225,280.6992,206.6285,284.45,209.01,284.5678,209.1521,282.1599,210.6363,280.0959,212.5353,278.0739,214.4848,275.8077,216.14,273.67,217.95" style="stroke: #A9A9A9; stroke-width: 2.0;"/><!--
@startuml
skinparam backgroundColor #222222
skinparam handwritten true
hide circle
hide stereotype
skinparam shadowing false
skinparam padding 1
skinparam arrow {
    Thickness 2
    Color #DarkGrey
    FontSize 20
    FontName courier
    FontStyle normal
    FontColor #DarkGrey
}
skinparam class {
    BorderThickness 3
    BorderColor #DarkGrey
    BorderColor<<a>> #228B22
    BorderColor<<b>> #DC143C
    BackgroundColor #222222
    FontSize 20
    FontName courier
    FontStyle bold
    FontColor #DarkGrey
    FontColor<<a>> #228B22
    FontColor<<b>> #DC143C

}
skinparam classAttribute {
    FontSize 15
    FontName courier
    FontStyle normal
    FontColor #DarkGrey
}
class Cliente  {

}

Cliente ..> Base

class Base  {
  + m([0..30]):[0..70]
}

class SustituibleDerivada as "Sustituible\nDerivada" <<a>> {
  + m([-300..300]):[0..7]
}

class InsustituibleDerivada as "Insustituible\nDerivada" <<b>> {
  + m([0..3]):[-70..70]
}

Base <|-down- SustituibleDerivada
Base <|-down- InsustituibleDerivada
@enduml

PlantUML version 1.2019.05(Sat Apr 20 18:45:36 CEST 2019)
(GPL source distribution)
Java Runtime: Java(TM) SE Runtime Environment
JVM: Java HotSpot(TM) 64-Bit Server VM
Java Version: 11.0.14+8-LTS-263
Operating System: Windows 10
OS Version: 10.0
Default Encoding: windows-1252
Language: es
Country: ES
--></g></svg>