<?xml version="1.0" encoding="UTF-8" standalone="no"?><svg xmlns="http://www.w3.org/2000/svg" xmlns:xlink="http://www.w3.org/1999/xlink" contentScriptType="application/ecmascript" contentStyleType="text/css" height="487px" preserveAspectRatio="none" style="width:613px;height:487px;background:#222222;" version="1.1" viewBox="0 0 613 487" width="613px" zoomAndPan="magnify"><defs/><g><!--cluster clases--><polygon fill="#222222" points="22,56.5,22,56.7102,32,56.0857,42,56.6933,52,56.8997,62,55.7866,72,56.4223,82,56.0735,92,56.1165,102,56.5,101.9777,56.4954,103.1742,63.2763,104.9808,70.1824,105.9942,76.9257,107.5354,83.7774,109,90.6133,109,91.0452,119.05,90.5275,129.1,90.6815,139.15,90.5813,149.2,90.7918,159.25,90.8524,169.3,91.199,179.35,91.2843,189.4,91.2925,199.45,90.8679,209.5,91.0769,219.55,91.3155,229.6,89.8921,239.65,91.2918,249.7,90.3168,259.75,91.1471,269.8,90.1183,279.85,90.5448,289.9,91.3549,299.95,90.5645,310,90.6133,310.1053,90.6133,310.3386,100.7287,310.4162,110.8442,309.9961,120.9596,310.2872,131.075,309.4276,141.1905,310.2844,151.3059,310.5482,161.4214,310.4445,171.5368,310.613,181.6522,309.5169,191.7677,309.3478,201.8831,309.3786,211.9986,309.9411,222.114,309.8035,232.2294,310.6814,242.3449,309.8253,252.4603,309.6569,262.5758,310.2283,272.6912,309.3332,282.8066,309.4809,292.9221,310.649,303.0375,310.4357,313.153,310.7345,323.2684,309.6782,333.3838,310.3192,343.4993,310.5904,353.6147,309.5276,363.7302,309.9041,373.8456,310.126,383.961,310.6518,394.0765,309.9958,404.1919,310.4626,414.3074,309.4462,424.4228,309.3227,434.5382,310.5036,444.6537,309.2831,454.7691,310.509,464.8846,310,475,310,475.2066,300.069,474.7321,290.1379,474.6462,280.2069,475.4588,270.2759,474.7007,260.3448,475.5919,250.4138,474.4473,240.4828,475.6174,230.5517,475.4843,220.6207,475.245,210.6897,475.0472,200.7586,475.7266,190.8276,475.6136,180.8966,475.1693,170.9655,475.2682,161.0345,474.8697,151.1034,475.7165,141.1724,475.1549,131.2414,475.1726,121.3103,474.3916,111.3793,474.5948,101.4483,475.5307,91.5172,475.4298,81.5862,474.9571,71.6552,474.6778,61.7241,474.7811,51.7931,474.3138,41.8621,475.4147,31.931,475.7396,22,475,22.5264,475,22.6949,465.0357,21.8633,455.0714,22.0872,445.1071,21.6124,435.1429,22.284,425.1786,22.2468,415.2143,22.5524,405.25,21.7703,395.2857,21.8656,385.3214,22.4435,375.3571,22.5673,365.3929,21.4875,355.4286,21.8061,345.4643,22.1493,335.5,21.3892,325.5357,22.3534,315.5714,22.258,305.6071,21.8992,295.6429,22.1422,285.6786,22.7287,275.7143,21.6871,265.75,22.315,255.7857,22.2856,245.8214,22.1158,235.8571,22.1409,225.8929,22.1135,215.9286,21.3758,205.9643,21.5992,196,21.5385,186.0357,22.0638,176.0714,22.0881,166.1071,22.1617,156.1429,21.709,146.1786,21.9325,136.2143,21.8798,126.25,22.5769,116.2857,22.4266,106.3214,21.5145,96.3571,21.9271,86.3929,21.4228,76.4286,22.2884,66.4643,22,56.5" style="stroke: #A9A9A9; stroke-width: 3.0;"/><path d="M22,90.6133 L22,90.8935 L31.6667,90.0609 L41.3333,90.871 L51,91.1462 L60.6667,89.6621 L70.3333,90.5097 L80,90.0446 L89.6667,90.1019 L99.3333,90.5224 L109,90.6133 " fill="#222222" style="stroke: #A9A9A9; stroke-width: 3.0;"/><text fill="#A9A9A9" font-family="courier" font-size="20" font-weight="bold" lengthAdjust="spacingAndGlyphs" textLength="72" x="27" y="79.6074">clases</text><!--class X--><polygon fill="#222222" points="38,103.5,38,103.7102,48.1667,103.0857,58.3333,103.6933,68.5,103.8997,78.6667,102.7866,88.8333,103.4223,99,103.0735,109.1667,103.1165,119.3333,103.4318,129.5,102.8086,139.6667,104.0536,149.8333,102.8697,160,103.5,159.8022,103.5,160.4319,113.6274,159.9142,123.7548,160.0682,133.8821,159.9681,144.0095,160.1785,154.1369,160.2391,164.2643,160.5857,174.3917,160.6711,184.519,160.6793,194.6464,160.2546,204.7738,160.4636,214.9012,160.7022,225.0286,159.2788,235.1559,160.6785,245.2833,159.7035,255.4107,160,265.5381,160,266.0719,149.8333,265.0431,139.6667,265.4696,129.5,266.2797,119.3333,265.4894,109.1667,265.6434,99,265.8767,88.8333,265.9543,78.6667,265.5342,68.5,265.8253,58.3333,264.9657,48.1667,265.8225,38,265.5381,38.5482,265.5381,38.4445,255.4107,38.613,245.2833,37.5169,235.1559,37.3478,225.0286,37.3786,214.9012,37.9411,204.7738,37.8035,194.6464,38.6814,184.519,37.8253,174.3917,37.6569,164.2643,38.2283,154.1369,37.3332,144.0095,37.4809,133.8821,38.649,123.7548,38.4357,113.6274,38,103.5" style="stroke: #A9A9A9; stroke-width: 3.0;"/><text fill="#A9A9A9" font-family="courier" font-size="20" font-weight="bold" lengthAdjust="spacingAndGlyphs" textLength="12" x="93" y="129.6074">X</text><path d="M39,141.6133 L39,141.8935 L49,141.0609 L59,141.871 L69,142.1462 L79,140.6621 L89,141.5097 L99,141.0446 L109,141.1019 L119,141.5224 L129,140.6915 L139,142.3515 L149,140.7729 L159,141.6133 " fill="#222222" style="stroke: #A9A9A9; stroke-width: 3.0;"/><path d="M39,149.6133 L39,149.8935 L49,149.0609 L59,149.871 L69,150.1462 L79,148.6621 L89,149.5097 L99,149.0446 L109,149.1019 L119,149.5224 L129,148.6915 L139,150.3515 L149,148.7729 L159,149.6133 " fill="#222222" style="stroke: #A9A9A9; stroke-width: 3.0;"/><text fill="#A9A9A9" font-family="courier" font-size="15" lengthAdjust="spacingAndGlyphs" textLength="72" x="45" y="169.6938">void m()</text><text fill="#A9A9A9" font-family="courier" font-size="15" lengthAdjust="spacingAndGlyphs" textLength="54" x="45" y="191.2788">A m(A)</text><text fill="#A9A9A9" font-family="courier" font-size="15" lengthAdjust="spacingAndGlyphs" textLength="108" x="45" y="212.8638">void m(A, C)</text><text fill="#A9A9A9" font-family="courier" font-size="15" lengthAdjust="spacingAndGlyphs" textLength="81" x="45" y="234.4487">A m(C, B)</text><text fill="#A9A9A9" font-family="courier" font-size="15" lengthAdjust="spacingAndGlyphs" textLength="54" x="45" y="256.0337">B m(B)</text><!--class A--><polygon fill="#222222" points="195,157.5,195,157.5701,199,157.3619,203,157.5644,207,157.6332,211,157.2622,215,157.5,214.9223,157.5,214.5735,168.3227,214.6165,179.1453,214.9318,189.968,214.3086,200.7906,215,211.6133,215,211.7978,211,211.4032,207,211.5474,203,211.7573,199,211.5847,195,211.6133,195.0682,211.6133,194.9681,200.7906,195.1785,189.968,195.2391,179.1453,195.5857,168.3227,195,157.5" style="stroke: #A9A9A9; stroke-width: 3.0;"/><text fill="#A9A9A9" font-family="courier" font-size="20" font-weight="bold" lengthAdjust="spacingAndGlyphs" textLength="12" x="199" y="183.6074">A</text><path d="M196,195.6133 L196,195.7067 L199.6,195.4291 L203.2,195.6992 L206.8,195.7909 L210.4,195.2962 L214,195.6133 " fill="#222222" style="stroke: #A9A9A9; stroke-width: 3.0;"/><path d="M196,203.6133 L196,203.7067 L199.6,203.4291 L203.2,203.6992 L206.8,203.7909 L210.4,203.2962 L214,203.6133 " fill="#222222" style="stroke: #A9A9A9; stroke-width: 3.0;"/><!--class B--><polygon fill="#222222" points="250,157.5,250,157.5701,254,157.3619,258,157.5644,262,157.6332,266,157.2622,270,157.5,269.9223,157.5,269.5735,168.3227,269.6165,179.1453,269.9318,189.968,269.3086,200.7906,270,211.6133,270,211.7978,266,211.4032,262,211.5474,258,211.7573,254,211.5847,250,211.6133,250.0682,211.6133,249.9681,200.7906,250.1785,189.968,250.2391,179.1453,250.5857,168.3227,250,157.5" style="stroke: #A9A9A9; stroke-width: 3.0;"/><text fill="#A9A9A9" font-family="courier" font-size="20" font-weight="bold" lengthAdjust="spacingAndGlyphs" textLength="12" x="254" y="183.6074">B</text><path d="M251,195.6133 L251,195.7067 L254.6,195.4291 L258.2,195.6992 L261.8,195.7909 L265.4,195.2962 L269,195.6133 " fill="#222222" style="stroke: #A9A9A9; stroke-width: 3.0;"/><path d="M251,203.6133 L251,203.7067 L254.6,203.4291 L258.2,203.6992 L261.8,203.7909 L265.4,203.2962 L269,203.6133 " fill="#222222" style="stroke: #A9A9A9; stroke-width: 3.0;"/><!--class C--><polygon fill="#222222" points="195,381,195,381.0701,199,380.8619,203,381.0644,207,381.1332,211,380.7622,215,381,214.9223,381,214.5735,391.8227,214.6165,402.6453,214.9318,413.468,214.3086,424.2906,215,435.1133,215,435.2978,211,434.9032,207,435.0474,203,435.2573,199,435.0847,195,435.1133,195.0682,435.1133,194.9681,424.2906,195.1785,413.468,195.2391,402.6453,195.5857,391.8227,195,381" style="stroke: #A9A9A9; stroke-width: 3.0;"/><text fill="#A9A9A9" font-family="courier" font-size="20" font-weight="bold" lengthAdjust="spacingAndGlyphs" textLength="12" x="199" y="407.1074">C</text><path d="M196,419.1133 L196,419.2067 L199.6,418.9291 L203.2,419.1992 L206.8,419.2909 L210.4,418.7962 L214,419.1133 " fill="#222222" style="stroke: #A9A9A9; stroke-width: 3.0;"/><path d="M196,427.1133 L196,427.2067 L199.6,426.9291 L203.2,427.1992 L206.8,427.2909 L210.4,426.7962 L214,427.1133 " fill="#222222" style="stroke: #A9A9A9; stroke-width: 3.0;"/><path d="M326.5,48 L327.0605,48 L325.3951,58.116 L327.0154,68.2321 L327.5658,78.3481 L324.5976,88.4641 L326.2928,98.5802 L325.3627,108.6962 L325.4773,118.8122 L326.3182,128.9282 L324.6563,139.0443 L327.9764,149.1603 L324.8193,159.2763 L325.9726,169.3924 L327.6519,179.5084 L326.2713,189.6244 L326.682,199.7405 L326.4148,209.8565 L326.9761,219.9725 L327.1377,230.0885 L328.0618,240.2046 L328.2895,250.3206 L328.3114,260.4366 L327.179,270.5527 L327.7362,280.6687 L328.3726,290.7847 L324.5768,300.9008 L328.3094,311.0168 L326.5,321.1328 L326.5,320.3421 L336.3214,322.5563 L346.1429,319.8128 L355.9643,320.9501 L365.7857,323.1104 L375.6071,321.0029 L385.4286,321.4136 L395.25,322.0358 L405.0714,322.2428 L414.8929,321.1224 L424.7143,321.8987 L434.5357,319.6064 L444.3571,321.8912 L454.1786,322.5947 L464,322.3182 L473.8214,322.7675 L483.6429,319.8446 L493.4643,319.3937 L503.2857,319.4757 L513.1071,320.9758 L522.9286,320.6087 L532.75,322.9499 L542.5714,320.667 L552.3929,320.218 L562.2143,321.7415 L572.0357,319.3546 L581.8571,319.7485 L591.6786,322.8633 L601.5,321.1328 L602.6618,321.1328 L603.4586,311.0123 L600.6419,300.8918 L602.3512,290.7713 L603.0745,280.6508 L600.2403,270.5303 L601.2444,260.4099 L601.836,250.2894 L603.238,240.1689 L601.4888,230.0484 L602.7335,219.9279 L600.0232,209.8074 L599.694,199.6869 L602.843,189.5664 L599.5882,179.4459 L602.8572,169.3254 L602.051,159.2049 L600.7856,149.0844 L600.5566,138.9639 L602.7234,128.8434 L600.7018,118.723 L603.0783,108.6025 L600.026,98.482 L603.1465,88.3615 L602.7915,78.241 L602.1532,68.1205 L601.5,58 L601.5297,58.0297 L599.9567,56.4567 L597.8857,54.3857 L595.6064,52.1064 L593.6686,50.1686 L591.5,48 L591.5,47.6526 L581.6852,49.9105 L571.8704,48.413 L562.0556,48.4602 L552.2407,46.3777 L542.4259,46.9194 L532.6111,49.4153 L522.7963,49.146 L512.9815,47.8855 L503.1667,47.1409 L493.3519,47.4162 L483.537,46.1702 L473.7222,49.106 L463.9074,49.9722 L454.0926,49.4037 L444.2778,49.8532 L434.463,47.6354 L424.6481,48.2326 L414.8333,46.9664 L405.0185,48.7574 L395.2037,48.658 L385.3889,49.473 L375.5741,47.3876 L365.7593,47.6416 L355.9444,49.1826 L346.1296,49.5129 L336.3148,46.6332 L326.5,48 " fill="#222222" style="stroke: #A9A9A9; stroke-width: 3.0;"/><path d="M591.5,48 L591.6868,48 L591.1317,50 L591.6718,52 L591.8553,54 L590.8659,56 L591.5,58 L591.5,57.9309 L593.5,57.6209 L595.5,57.6591 L597.5,57.9394 L599.5,57.3854 L601.5,58 L601.848,58.348 L599.1038,55.6038 L597.3757,53.8757 L595.7715,52.2715 L593.4461,49.9461 L591.5,48 " fill="#222222" style="stroke: #A9A9A9; stroke-width: 1.0;"/><text fill="#A9A9A9" font-family="courier" font-size="20" lengthAdjust="spacingAndGlyphs" textLength="180" x="333.5" y="74.1074">A oA = new A();</text><text fill="#A9A9A9" font-family="courier" font-size="20" lengthAdjust="spacingAndGlyphs" textLength="180" x="333.5" y="100.2207">B oB = new B();</text><text fill="#A9A9A9" font-family="courier" font-size="20" lengthAdjust="spacingAndGlyphs" textLength="180" x="333.5" y="126.334">C oC = new C();</text><text fill="#A9A9A9" font-family="courier" font-size="20" lengthAdjust="spacingAndGlyphs" textLength="180" x="333.5" y="152.4473">X oX = new X();</text><text fill="#A9A9A9" font-family="courier" font-size="20" lengthAdjust="spacingAndGlyphs" textLength="0" x="345.5" y="178.5605"/><text fill="#A9A9A9" font-family="courier" font-size="20" lengthAdjust="spacingAndGlyphs" textLength="180" x="333.5" y="204.6738">oX.m(); // void</text><text fill="#A9A9A9" font-family="courier" font-size="20" lengthAdjust="spacingAndGlyphs" textLength="168" x="333.5" y="230.7871">oX.m(oA); // A</text><text fill="#A9A9A9" font-family="courier" font-size="20" lengthAdjust="spacingAndGlyphs" textLength="252" x="333.5" y="256.9004">oX.m(oA, oC); // void</text><text fill="#A9A9A9" font-family="courier" font-size="20" lengthAdjust="spacingAndGlyphs" textLength="216" x="333.5" y="283.0137">oX.m(oC, oB); // A</text><text fill="#A9A9A9" font-family="courier" font-size="20" lengthAdjust="spacingAndGlyphs" textLength="168" x="333.5" y="309.127">oX.m(oB); // B</text><!--link X to GMN43--><path d="M125.947,103.433 L126.0307,103.4745 L126.9984,100.8996 L128.4567,98.5681 L129.7552,96.1574 L130.5285,93.486 L132.0289,91.1753 L131.9987,91.1585 L133.225,88.6412 L134.6034,86.2087 L136.0875,83.8352 L137.2073,81.2584 L138.8374,78.9663 L139.0454,79.0978 L140.1133,76.4247 L141.7883,74.1356 L143.5374,71.8933 L144.8556,69.3785 L146.4004,67.007 L146.4249,67.0248 L148.0579,64.697 L149.8026,62.4503 L151.4934,60.1644 L153.2871,57.9532 L154.7454,55.4988 L154.9734,55.691 L156.8071,53.5222 L158.4938,51.2293 L160.3958,49.1179 L162.3078,47.0151 L163.9002,44.6427 L163.6734,44.4162 L166.1119,42.8553 L167.8038,40.5485 L170.0633,38.8088 L171.7383,36.4851 L173.8924,34.6401 L173.873,34.6166 L176.2735,33.1049 L178.2216,31.0442 L180.4366,29.3074 L182.674,27.5979 L184.7498,25.6921 L184.8511,25.8469 L187.0989,24.1522 L189.5198,22.7221 L191.6606,20.864 L194.2192,19.6442 L196.5,18 L196.6108,18.217 L198.5564,17.1714 L200.5571,16.2335 L202.302,14.7951 L204.2344,13.7236 L206.3328,12.9772 L206.2382,12.7177 L208.1051,12.3034 L209.8654,11.5968 L211.7803,11.3142 L213.4313,10.3075 L215.2391,9.7312 L215.2221,9.5797 L218.5325,9.4631 L221.7702,8.6987 L225.0596,8.395 L228.3996,8.5419 L231.6495,7.8862 L231.6858,8.0764 L235.0778,8.8493 L238.3569,9.0305 L241.7775,9.9527 L245.1672,10.7135 L248.4851,11.0981 L248.4201,10.8985 L250.3595,11.6726 L252.2776,12.3814 L254.2376,13.2186 L256.0349,13.5564 L257.923,14.1732 L257.993,14.3666 L259.9547,14.7071 L262.0514,15.4209 L264.3454,16.6798 L266.2762,16.935 L268.5,18 L268.5856,18.2094 L271.5209,19.3051 L274.4273,20.3299 L277.3991,21.5146 L280.5219,23.069 L283.431,24.1003 L283.3728,23.9807 L286.4743,25.7614 L289.1799,26.7286 L292.3357,28.6208 L295.2381,29.9922 L298.0721,31.2232 L298.1253,31.3182 L300.9441,32.8441 L303.9533,34.7101 L306.7904,36.2689 L309.5556,37.6991 L312.3805,39.2361 L312.444,39.3369 L315.1361,40.9411 L318.1231,43.0135 L320.7767,44.5563 L323.5674,46.3169 L326.313,48.006 " fill="none" style="stroke: #A9A9A9; stroke-width: 2.0; stroke-dasharray: 7.0,7.0;"/><!--link A to B--><!--link A to C--><!--
@startuml

skinparam backgroundColor #222222
skinparam handwritten true
hide circle
hide stereotype
skinparam shadowing false
skinparam padding 1
skinparam arrow {
    Thickness 2
    Color #DarkGrey
    FontSize 20
    FontName courier
    FontStyle normal
    FontColor #DarkGrey
}
skinparam class {
    BorderThickness 3
    BorderColor #DarkGrey
    BackgroundColor #222222
    FontSize 20
    FontName courier
    FontStyle bold
    FontColor #DarkGrey
}
skinparam package {
    BorderThickness 3
    BorderColor #DarkGrey
    BackgroundColor #222222
    FontSize 20
    FontName courier
    FontStyle bold
    FontColor #DarkGrey
}
skinparam classAttribute {
    FontSize 15
    FontName courier
    FontStyle normal
    FontColor #DarkGrey
}
skinparam note {
    BorderThickness 3
    BorderColor #DarkGrey
    BackgroundColor #222222
    FontSize 20
    BorderColor #DarkGrey
    FontName courier
    FontStyle normal
    FontColor #DarkGrey
}
package clases {
together {
class A
class B
class C
}
class X {
void m()
A m(A)
void m(A, C)
A m(C, B)
B m(B)
}
}
note right
A oA = new A();
B oB = new B();
C oC = new C();
X oX = new X();

oX.m(); // void
oX.m(oA); // A
oX.m(oA, oC); // void
oX.m(oC, oB); // A
oX.m(oB); // B
endnote
@enduml

PlantUML version 1.2019.05(Sat Apr 20 18:45:36 CEST 2019)
(GPL source distribution)
Java Runtime: Java(TM) SE Runtime Environment
JVM: Java HotSpot(TM) 64-Bit Server VM
Java Version: 11.0.8+10-LTS
Operating System: Windows 10
OS Version: 10.0
Default Encoding: windows-1252
Language: es
Country: ES
--></g></svg>