<?xml version="1.0" encoding="UTF-8" standalone="no"?><svg xmlns="http://www.w3.org/2000/svg" xmlns:xlink="http://www.w3.org/1999/xlink" contentScriptType="application/ecmascript" contentStyleType="text/css" height="1055px" preserveAspectRatio="none" style="width:1515px;height:1055px;background:#222222;" version="1.1" viewBox="0 0 1515 1055" width="1515px" zoomAndPan="magnify"><defs/><g><polygon fill="#222222" points="497,2,497,2.2102,506.9434,1.5857,516.8868,2.1933,526.8302,2.3997,536.7736,1.2866,546.717,1.9223,556.6604,1.5735,566.6038,1.6165,576.5472,1.9318,586.4906,1.3086,596.434,2.5536,606.3774,1.3697,616.3208,1.8022,626.2642,2.4319,636.2075,1.9142,646.1509,2.0682,656.0943,1.9681,666.0377,2.1785,675.9811,2.2391,685.9245,2.5857,695.8679,2.6711,705.8113,2.6793,715.7547,2.2546,725.6981,2.4636,735.6415,2.7022,745.5849,1.2788,755.5283,2.6785,765.4717,1.7035,775.4151,2.5338,785.3585,1.505,795.3019,1.9315,805.2453,2.7416,815.1887,1.9513,825.1321,2.1053,835.0755,2.3386,845.0189,2.4162,854.9623,1.9961,864.9057,2.2872,874.8491,1.4276,884.7925,2.2844,894.7358,2.5482,904.6792,2.4445,914.6226,2.613,924.566,1.5169,934.5094,1.3478,944.4528,1.3786,954.3962,1.9411,964.3396,1.8035,974.283,2.6814,984.2264,1.8253,994.1698,1.6569,1004.1132,2.2283,1014.0566,1.3332,1024,2,1023.4809,2,1024.649,12.1632,1024.4357,22.3264,1024.7345,32.4896,1023.6782,42.6528,1024.3192,52.816,1024.5904,62.9792,1023.5276,73.1424,1023.9041,83.3056,1024,93.4688,1024,93.5947,1014.0566,94.1205,1004.1132,93.4646,994.1698,93.9313,984.2264,92.915,974.283,92.7915,964.3396,93.9724,954.3962,92.7518,944.4528,93.9777,934.5094,93.6754,924.566,93.2008,914.6226,93.115,904.6792,93.9275,894.7358,93.1694,884.7925,94.0606,874.8491,92.916,864.9057,94.0862,854.9623,93.9531,845.0189,93.7137,835.0755,93.516,825.1321,94.1954,815.1887,94.0823,805.2453,93.638,795.3019,93.7369,785.3585,93.3385,775.4151,94.1852,765.4717,93.6236,755.5283,93.6413,745.5849,92.8604,735.6415,93.0635,725.6981,93.9995,715.7547,93.8985,705.8113,93.4258,695.8679,93.1466,685.9245,93.2498,675.9811,92.7826,666.0377,93.8835,656.0943,94.2083,646.1509,93.9951,636.2075,94.1637,626.2642,93.332,616.3208,93.556,606.3774,93.0812,596.434,93.7528,586.4906,93.7155,576.5472,94.0211,566.6038,93.2391,556.6604,93.3343,546.717,93.9122,536.7736,94.0361,526.8302,92.9562,516.8868,93.2749,506.9434,93.618,497,93.4688,496.3892,93.4688,497.3534,83.3056,497.258,73.1424,496.8992,62.9792,497.1422,52.816,497.7287,42.6528,496.6871,32.4896,497.315,22.3264,497.2856,12.1632,497,2" style="stroke: #222222; stroke-width: 1.5;"/><text fill="#FFA500" font-family="sans-serif" font-size="30" font-weight="bold" lengthAdjust="spacingAndGlyphs" textLength="505" x="508" y="41.1426">Asynchronous JavaScript And XML</text><text fill="#FFA500" font-family="sans-serif" font-size="30" font-weight="bold" lengthAdjust="spacingAndGlyphs" textLength="79" x="721" y="78.877">AJAX</text><!--class donde--><polygon fill="#222222" points="305,106.4688,305,106.6789,315.2143,106.0544,325.4286,106.662,335.6429,106.8684,345.8571,105.7554,356.0714,106.391,366.2857,106.0423,376.5,106.0853,386.7143,106.4006,396.9286,105.7774,407.1429,107.0224,417.3571,105.8385,427.5714,106.271,437.7857,106.9007,448,106.4688,447.9142,106.4688,448.0682,116.8438,447.9681,127.2188,448.1785,137.5938,448.2391,147.9688,448.5857,158.3438,448,168.7188,448,169.3898,437.7857,169.398,427.5714,168.9734,417.3571,169.1823,407.1429,169.421,396.9286,167.9976,386.7143,169.3973,376.5,168.4222,366.2857,169.2526,356.0714,168.2237,345.8571,168.6503,335.6429,169.4604,325.4286,168.67,315.2143,168.8241,305,168.7188,305.3386,168.7188,305.4162,158.3438,304.9961,147.9688,305.2872,137.5938,304.4276,127.2188,305.2844,116.8438,305,106.4688" style="stroke: #FFFFFF; stroke-width: 1.5;"/><text fill="#FFFFFF" font-family="sans-serif" font-size="12" font-style="italic" lengthAdjust="spacingAndGlyphs" textLength="65" x="344" y="126.9258">«¿Dónde?»</text><text fill="#00FFFF" font-family="sans-serif" font-size="20" font-weight="bold" lengthAdjust="spacingAndGlyphs" textLength="131" x="311" y="156.3242">Adaptive Path</text><path d="M41,104.4688 L41,170.7813 A0,0 0 0 0 41,170.7813 L270,170.7813 A0,0 0 0 0 270,170.7813 L270,141.4688 L304.743,137.4688 L270,133.4688 L270,114.4688 L260,104.4688 L41,104.4688 A0,0 0 0 0 41,104.4688 " fill="#222222" style="stroke: #FFFFFF; stroke-width: 1.0;"/><path d="M260,104.4688 L260.1868,104.4688 L259.6317,106.4688 L260.1718,108.4688 L260.3553,110.4688 L259.3659,112.4688 L260,114.4688 L260,114.3997 L262,114.0896 L264,114.1279 L266,114.4082 L268,113.8542 L270,114.4688 L270.348,114.8167 L267.6038,112.0726 L265.8757,110.3444 L264.2715,108.7402 L261.9461,106.4148 L260,104.4688 " fill="#222222" style="stroke: #FFFFFF; stroke-width: 1.0;"/><text fill="#00FFFF" font-family="sans-serif" font-size="20" lengthAdjust="spacingAndGlyphs" textLength="186" x="50" y="133.2305">Empresa de diseño y</text><text fill="#00FFFF" font-family="sans-serif" font-size="20" lengthAdjust="spacingAndGlyphs" textLength="196" x="56" y="158.3867">experiencia de usuario</text><!--class cuando--><polygon fill="#222222" points="737.5,106.4688,737.5,106.6789,747.5,106.0544,757.5,106.662,767.5,106.8684,777.5,105.7554,787.5,106.391,797.5,106.0423,807.5,106.0853,817.5,106.4688,817.4318,106.4688,816.8086,116.8438,818.0536,127.2188,816.8697,137.5938,817.3022,147.9688,817.9319,158.3438,817.5,168.7188,817.5,168.633,807.5,168.787,797.5,168.6868,787.5,168.8973,777.5,168.9579,767.5,169.3044,757.5,169.3898,747.5,169.398,737.5,168.7188,737.7546,168.7188,737.9636,158.3438,738.2022,147.9688,736.7788,137.5938,738.1785,127.2188,737.2035,116.8438,737.5,106.4688" style="stroke: #FFFFFF; stroke-width: 1.5;"/><text fill="#FFFFFF" font-family="sans-serif" font-size="12" font-style="italic" lengthAdjust="spacingAndGlyphs" textLength="72" x="741.5" y="126.9258">«¿Cuándo?»</text><text fill="#00FFFF" font-family="sans-serif" font-size="20" font-weight="bold" lengthAdjust="spacingAndGlyphs" textLength="44" x="755.5" y="156.3242">2005</text><path d="M852.5,116.9688 L852.5,133.4688 L817.716,137.4688 L852.5,141.4688 L852.5,158.125 A0,0 0 0 0 852.5,158.125 L1220.5,158.125 A0,0 0 0 0 1220.5,158.125 L1220.5,126.9688 L1210.5,116.9688 L852.5,116.9688 A0,0 0 0 0 852.5,116.9688 " fill="#222222" style="stroke: #FFFFFF; stroke-width: 1.0;"/><path d="M1210.5,116.9688 L1210.6868,116.9688 L1210.1317,118.9688 L1210.6718,120.9688 L1210.8553,122.9688 L1209.8659,124.9688 L1210.5,126.9688 L1210.5,126.8997 L1212.5,126.5896 L1214.5,126.6279 L1216.5,126.9082 L1218.5,126.3542 L1220.5,126.9688 L1220.848,127.3167 L1218.1038,124.5726 L1216.3757,122.8444 L1214.7715,121.2402 L1212.4461,118.9148 L1210.5,116.9688 " fill="#222222" style="stroke: #FFFFFF; stroke-width: 1.0;"/><text fill="#00FFFF" font-family="sans-serif" font-size="20" lengthAdjust="spacingAndGlyphs" textLength="341" x="861.5" y="145.7305">Tras 15 años de la creación de la Web</text><!--class por--><polygon fill="#222222" points="662.5,270.4688,662.5,270.6789,672.3333,270.0544,682.1667,270.662,692,270.8684,701.8333,269.7554,711.6667,270.391,721.5,270.0423,731.3333,270.0853,741.1667,270.4006,751,269.7774,760.8333,271.0224,770.6667,269.8385,780.5,270.4688,780.3022,270.4688,780.9319,280.8438,780.4142,291.2188,780.5682,301.5938,780.4681,311.9688,780.6785,322.3438,780.5,332.7188,780.5,332.9579,770.6667,333.3044,760.8333,333.3898,751,333.398,741.1667,332.9734,731.3333,333.1823,721.5,333.421,711.6667,331.9976,701.8333,333.3973,692,332.4222,682.1667,333.2526,672.3333,332.2237,662.5,332.7188,662.4315,332.7188,663.2416,322.3438,662.4513,311.9688,662.6053,301.5938,662.8386,291.2188,662.9162,280.8438,662.5,270.4688" style="stroke: #FFFFFF; stroke-width: 1.5;"/><text fill="#FFFFFF" font-family="sans-serif" font-size="12" font-style="italic" lengthAdjust="spacingAndGlyphs" textLength="71" x="686" y="290.9258">«¿Por qué?»</text><text fill="#FF0000" font-family="sans-serif" font-size="20" font-weight="bold" lengthAdjust="spacingAndGlyphs" textLength="106" x="668.5" y="320.3242">Ineficiencia</text><path d="M119.5,230.4688 L119.5,372.25 A0,0 0 0 0 119.5,372.25 L627.5,372.25 A0,0 0 0 0 627.5,372.25 L627.5,305.4688 L662.144,301.4688 L627.5,297.4688 L627.5,240.4688 L617.5,230.4688 L119.5,230.4688 A0,0 0 0 0 119.5,230.4688 " fill="#222222" style="stroke: #FFFFFF; stroke-width: 1.0;"/><path d="M617.5,230.4688 L617.6868,230.4688 L617.1317,232.4688 L617.6718,234.4688 L617.8553,236.4688 L616.8659,238.4688 L617.5,240.4688 L617.5,240.3997 L619.5,240.0896 L621.5,240.1279 L623.5,240.4082 L625.5,239.8542 L627.5,240.4688 L627.848,240.8167 L625.1038,238.0726 L623.3757,236.3444 L621.7715,234.7402 L619.4461,232.4148 L617.5,230.4688 " fill="#222222" style="stroke: #FFFFFF; stroke-width: 1.0;"/><text fill="#FF0000" font-family="sans-serif" font-size="20" lengthAdjust="spacingAndGlyphs" textLength="349" x="128.5" y="259.2305">Enviar una petición desde el navegador,</text><text fill="#FF0000" font-family="sans-serif" font-size="20" lengthAdjust="spacingAndGlyphs" textLength="349" x="134.5" y="284.3867">esperar la respuesta del servidor web y</text><text fill="#FF0000" font-family="sans-serif" font-size="20" lengthAdjust="spacingAndGlyphs" textLength="372" x="134.5" y="309.543">visualizarla en el navegador para modificar</text><text fill="#FF0000" font-family="sans-serif" font-size="20" lengthAdjust="spacingAndGlyphs" textLength="475" x="134.5" y="334.6992">unos pocos datos de toda la página es muy ineficiente</text><text fill="#FF0000" font-family="sans-serif" font-size="20" lengthAdjust="spacingAndGlyphs" textLength="280" x="134.5" y="359.8555">MPA, multiple page applications</text><!--class quien--><polygon fill="#222222" points="617.5,432.4688,617.5,432.6789,627.4048,432.0544,637.3095,432.662,647.2143,432.8684,657.119,431.7554,667.0238,432.391,676.9286,432.0423,686.8333,432.0853,696.7381,432.4006,706.6429,431.7774,716.5476,433.0224,726.4524,431.8385,736.3571,432.271,746.2619,432.9007,756.1667,432.383,766.0714,432.537,775.9762,432.4368,785.881,432.6473,795.7857,432.7079,805.6905,433.0544,815.5952,433.1398,825.5,432.4688,826.1793,432.4688,825.7546,442.8438,825.9636,453.2188,826.2022,463.5938,824.7788,473.9688,826.1785,484.3438,825.5,494.7188,825.5,494.4222,815.5952,495.2526,805.6905,494.2237,795.7857,494.6503,785.881,495.4604,775.9762,494.67,766.0714,494.8241,756.1667,495.0574,746.2619,495.135,736.3571,494.7148,726.4524,495.006,716.5476,494.1463,706.6429,495.0031,696.7381,495.2669,686.8333,495.1633,676.9286,495.3318,667.0238,494.2357,657.119,494.0666,647.2143,494.0973,637.3095,494.6599,627.4048,494.5222,617.5,494.7188,618.1814,494.7188,617.3253,484.3438,617.1569,473.9688,617.7283,463.5938,616.8332,453.2188,616.9809,442.8438,617.5,432.4688" style="stroke: #FFFFFF; stroke-width: 1.5;"/><text fill="#FFFFFF" font-family="sans-serif" font-size="12" font-style="italic" lengthAdjust="spacingAndGlyphs" textLength="61" x="691" y="452.9258">«¿Quién?»</text><text fill="#008000" font-family="sans-serif" font-size="20" font-weight="bold" lengthAdjust="spacingAndGlyphs" textLength="196" x="623.5" y="482.3242">Jesse James Garrett</text><!--class que--><polygon fill="#222222" points="594,556.4688,594,556.6789,603.8077,556.0544,613.6154,556.662,623.4231,556.8684,633.2308,555.7554,643.0385,556.391,652.8462,556.0423,662.6538,556.0853,672.4615,556.4006,682.2692,555.7774,692.0769,557.0224,701.8846,555.8385,711.6923,556.271,721.5,556.9007,731.3077,556.383,741.1154,556.537,750.9231,556.4368,760.7308,556.6473,770.5385,556.7079,780.3462,557.0544,790.1538,557.1398,799.9615,557.148,809.7692,556.7234,819.5769,556.9323,829.3846,557.171,839.1923,555.7476,849,556.4688,849.6785,556.4688,848.7035,566.1806,849.5338,575.8924,848.505,585.6042,848.9315,595.316,849.7416,605.0278,848.9513,614.7396,849.1053,624.4514,849.3386,634.1632,849,643.875,849,644.2912,839.1923,643.8711,829.3846,644.1622,819.5769,643.3026,809.7692,644.1594,799.9615,644.4232,790.1538,644.3195,780.3462,644.488,770.5385,643.3919,760.7308,643.2228,750.9231,643.2536,741.1154,643.8161,731.3077,643.6785,721.5,644.5564,711.6923,643.7003,701.8846,643.5319,692.0769,644.1033,682.2692,643.2082,672.4615,643.3559,662.6538,644.524,652.8462,644.3107,643.0385,644.6095,633.2308,643.5532,623.4231,644.1942,613.6154,644.4654,603.8077,643.4026,594,643.875,593.9041,643.875,594.126,634.1632,594.6518,624.4514,593.9958,614.7396,594.4626,605.0278,593.4462,595.316,593.3227,585.6042,594.5036,575.8924,593.2831,566.1806,594,556.4688" style="stroke: #FFFFFF; stroke-width: 1.5;"/><text fill="#FFFFFF" font-family="sans-serif" font-size="12" font-style="italic" lengthAdjust="spacingAndGlyphs" textLength="51" x="696" y="576.9258">«¿Qué?»</text><text fill="#FFA500" font-family="sans-serif" font-size="20" font-weight="bold" lengthAdjust="spacingAndGlyphs" textLength="243" x="600" y="606.3242">Asynchronous JavaScript</text><text fill="#FFA500" font-family="sans-serif" font-size="20" font-weight="bold" lengthAdjust="spacingAndGlyphs" textLength="155" x="644" y="631.4805">And XML (AJAX)</text><path d="M6,554.4688 L6,645.9375 A0,0 0 0 0 6,645.9375 L559,645.9375 A0,0 0 0 0 559,645.9375 L559,603.9688 L593.927,599.9688 L559,595.9688 L559,564.4688 L549,554.4688 L6,554.4688 A0,0 0 0 0 6,554.4688 " fill="#222222" style="stroke: #FFFFFF; stroke-width: 1.0;"/><path d="M549,554.4688 L549.1868,554.4688 L548.6317,556.4688 L549.1718,558.4688 L549.3553,560.4688 L548.3659,562.4688 L549,564.4688 L549,564.3997 L551,564.0896 L553,564.1279 L555,564.4082 L557,563.8542 L559,564.4688 L559.348,564.8167 L556.6038,562.0726 L554.8757,560.3444 L553.2715,558.7402 L550.9461,556.4148 L549,554.4688 " fill="#222222" style="stroke: #FFFFFF; stroke-width: 1.0;"/><text fill="#008000" font-family="sans-serif" font-size="20" lengthAdjust="spacingAndGlyphs" textLength="366" x="15" y="583.2305">Técnicas de desarrollo Web que permiten</text><text fill="#008000" font-family="sans-serif" font-size="20" lengthAdjust="spacingAndGlyphs" textLength="490" x="21" y="608.3867">que las aplicaciones web funcionen de forma asíncrona,</text><text fill="#008000" font-family="sans-serif" font-size="20" lengthAdjust="spacingAndGlyphs" textLength="520" x="21" y="633.543">procesando cualquier solicitud al servidor en segundo plano</text><!--class para--><polygon fill="#222222" points="618,782.9688,618,783.1789,628.3,782.5544,638.6,783.162,648.9,783.3684,659.2,782.2554,669.5,782.891,679.8,782.5423,690.1,782.5853,700.4,782.9006,710.7,782.2774,721,782.9688,721.5536,782.9688,720.3697,793.3438,720.8022,803.7188,721.4319,814.0938,720.9142,824.4688,721.0682,834.8438,721,845.2188,721,845.1868,710.7,845.3973,700.4,845.4579,690.1,845.8044,679.8,845.8898,669.5,845.898,659.2,845.4734,648.9,845.6823,638.6,845.921,628.3,844.4976,618,845.2188,618.6785,845.2188,617.7035,834.8438,618.5338,824.4688,617.505,814.0938,617.9315,803.7188,618.7416,793.3438,618,782.9688" style="stroke: #FFFFFF; stroke-width: 1.5;"/><text fill="#FFFFFF" font-family="sans-serif" font-size="12" font-style="italic" lengthAdjust="spacingAndGlyphs" textLength="78" x="630.5" y="803.4258">«¿Para qué?»</text><text fill="#008000" font-family="sans-serif" font-size="20" font-weight="bold" lengthAdjust="spacingAndGlyphs" textLength="91" x="624" y="832.8242">Eficiencia</text><path d="M827.5,705.4688 L827.5,809.9688 L721.328,813.9688 L827.5,817.9688 L827.5,922.7188 A0,0 0 0 0 827.5,922.7188 L1503.5,922.7188 A0,0 0 0 0 1503.5,922.7188 L1503.5,715.4688 L1493.5,705.4688 L827.5,705.4688 A0,0 0 0 0 827.5,705.4688 " fill="#222222" style="stroke: #FFFFFF; stroke-width: 1.0;"/><path d="M1493.5,705.4688 L1493.6868,705.4688 L1493.1317,707.4688 L1493.6718,709.4688 L1493.8553,711.4688 L1492.8659,713.4688 L1493.5,715.4688 L1493.5,715.3997 L1495.5,715.0896 L1497.5,715.1279 L1499.5,715.4082 L1501.5,714.8542 L1503.5,715.4688 L1503.848,715.8167 L1501.1038,713.0726 L1499.3757,711.3444 L1497.7715,709.7402 L1495.4461,707.4148 L1493.5,705.4688 " fill="#222222" style="stroke: #FFFFFF; stroke-width: 1.0;"/><text fill="#008000" font-family="sans-serif" font-size="20" lengthAdjust="spacingAndGlyphs" textLength="462" x="836.5" y="734.2305">Desarrollo de aplicaciones de una única página, SPA</text><text fill="#008000" font-family="sans-serif" font-size="20" lengthAdjust="spacingAndGlyphs" textLength="364" x="836.5" y="759.3867">- Validación de formularios en tiempo real</text><text fill="#008000" font-family="sans-serif" font-size="20" lengthAdjust="spacingAndGlyphs" textLength="259" x="836.5" y="784.543">- Códigos de autocompletado</text><text fill="#008000" font-family="sans-serif" font-size="20" lengthAdjust="spacingAndGlyphs" textLength="304" x="836.5" y="809.6992">- Carga de páginas en background</text><text fill="#008000" font-family="sans-serif" font-size="20" lengthAdjust="spacingAndGlyphs" textLength="649" x="836.5" y="834.8555">- Interfaces de usuario más complicados (menús, calendarios, editores,…)</text><text fill="#008000" font-family="sans-serif" font-size="20" lengthAdjust="spacingAndGlyphs" textLength="300" x="836.5" y="860.0117">- Validaciones parciales de página</text><text fill="#008000" font-family="sans-serif" font-size="20" lengthAdjust="spacingAndGlyphs" textLength="472" x="836.5" y="885.168">- Mashups, aplicaciones de terceros, Googlemaps, ...</text><text fill="#008000" font-family="sans-serif" font-size="20" lengthAdjust="spacingAndGlyphs" textLength="456" x="836.5" y="910.3242">- Desarrollo de Páginas como Aplicaciones, Portlets</text><!--class como--><polygon fill="#222222" points="659.5,982.4688,659.5,982.6789,669.8333,982.0544,680.1667,982.662,690.5,982.8684,700.8333,981.7554,711.1667,982.391,721.5,982.0423,731.8333,982.0853,742.1667,982.4006,752.5,981.7774,762.8333,983.0224,773.1667,981.8385,783.5,982.4688,783.3022,982.4688,783.9319,992.8438,783.4142,1003.2188,783.5682,1013.5938,783.4681,1023.9688,783.6785,1034.3438,783.5,1044.7188,783.5,1044.9579,773.1667,1045.3044,762.8333,1045.3898,752.5,1045.398,742.1667,1044.9734,731.8333,1045.1823,721.5,1045.421,711.1667,1043.9976,700.8333,1045.3973,690.5,1044.4222,680.1667,1045.2526,669.8333,1044.2237,659.5,1044.7188,659.4315,1044.7188,660.2416,1034.3438,659.4513,1023.9688,659.6053,1013.5938,659.8386,1003.2188,659.9162,992.8438,659.5,982.4688" style="stroke: #FFFFFF; stroke-width: 1.5;"/><text fill="#FFFFFF" font-family="sans-serif" font-size="12" font-style="italic" lengthAdjust="spacingAndGlyphs" textLength="62" x="690.5" y="1002.9258">«¿Cómo?»</text><text fill="#FFFFFF" font-family="sans-serif" font-size="20" font-weight="bold" lengthAdjust="spacingAndGlyphs" textLength="112" x="665.5" y="1032.3242">Descripción</text><!--link cuando to por--><path d="M765.409,173.4457 L765.6739,173.5373 L761.5401,182.9471 L758.959,192.8935 L755.8723,202.6653 L751.1228,211.8622 L748.5771,221.8209 L744.7907,231.3508 L741.4981,241.0513 L738.5487,250.8705 L734.4166,260.2808 L731.941,270.2637 " fill="none" style="stroke: #FFFFFF; stroke-width: 1.0;"/><polygon fill="#FFFFFF" points="767.098,168.5598,767.1492,168.6076,765.6527,169.9052,764.4564,171.4831,763.1623,172.9697,761.5467,174.1562,760.3762,175.7581,760.3648,175.7348,761.3315,175.1357,762.3553,174.654,763.4188,174.2539,764.3455,173.5725,765.4638,173.2852,765.6298,173.3658,765.7695,174.2108,766.3937,175.2914,767.0771,176.4007,767.4165,177.3428,767.9368,178.3728,767.9595,178.3748,767.7584,176.4093,767.6606,174.4527,767.5129,172.4918,767.4603,170.539,767.098,168.5598" style="stroke: #FFFFFF; stroke-width: 1.0;"/><!--link donde to por--><path d="M453.164,155.8778 L453.1887,155.9678 L457.4617,156.8941 L461.8797,158.3485 L466.2504,159.6309 L470.4659,160.3479 L474.8963,161.8476 L474.8865,161.8145 L479.4813,163.0448 L484.1257,164.4421 L488.8046,165.9554 L493.3647,167.0689 L498.0912,168.7424 L498.1654,168.977 L500.4098,169.2352 L502.8707,170.1784 L505.3581,171.2051 L507.6917,171.7456 L510.1062,172.5419 L510.1157,172.5707 L512.5464,173.3358 L515.0204,174.232 L517.4736,175.065 L519.9665,176.0186 L522.3296,176.5789 L522.427,176.8608 L524.904,177.7195 L527.3183,178.3964 L529.8245,179.3395 L532.335,180.2951 L534.709,180.8554 L534.5999,180.554 L537.3083,182.0426 L539.6574,182.5388 L542.2796,183.7894 L544.6206,184.2631 L547.1921,185.3736 L547.1813,185.3452 L549.8161,186.6341 L552.1982,187.2582 L554.7294,188.2745 L557.273,189.3239 L559.7265,190.1356 L559.7951,190.3074 L562.2325,191.1355 L564.7871,192.2572 L567.152,192.904 L569.7999,194.2592 L572.2597,195.1433 L572.3542,195.3679 L574.8323,196.3766 L577.3573,197.4967 L579.6641,198.0989 L582.1309,199.0807 L584.7393,200.399 L584.627,200.1467 L587.2034,201.4762 L589.6532,202.5215 L592.2866,203.9791 L594.6067,204.7326 L597.113,205.9047 L597.0479,205.7668 L599.5993,207.148 L601.8727,207.9397 L604.3438,209.1506 L607.0082,210.7717 L609.3283,211.6624 L609.415,211.8355 L611.8753,213.1566 L614.066,213.9393 L616.5945,215.3964 L619.0494,216.7065 L621.3328,217.6743 L621.2339,217.489 L623.661,218.8903 L626.0557,220.2309 L628.5141,221.6906 L630.725,222.6871 L633.0742,223.9423 L633.1762,224.1209 L635.2373,225.0339 L637.4952,226.2915 L640.0407,228.0525 L642.0568,228.8868 L644.5,230.4688 L644.6242,230.6578 L647.2258,232.3023 L649.7854,233.8828 L652.4398,235.6078 L655.3134,237.6664 L657.8768,239.2528 L657.7955,239.1475 L660.6124,241.4495 L662.8763,243.0354 L665.769,245.4355 L668.3076,247.3771 L670.7509,249.1953 L670.8223,249.2774 L673.1786,251.3103 L675.7907,253.6373 L678.1717,255.6986 L680.4561,257.6488 L682.8207,259.6912 L682.9029,259.7775 L684.9737,261.7382 L687.4261,264.0996 L689.4468,266.0078 L691.645,268.1024 L693.785,270.1358 " fill="none" style="stroke: #FFFFFF; stroke-width: 1.0;"/><polygon fill="#FFFFFF" points="448.183,154.5728,448.2267,154.6275,449.6353,155.6949,451.3003,157.0831,452.8817,158.3669,454.1886,159.3071,455.8756,160.7229,455.8532,160.7098,455.1817,159.6745,454.6229,158.7051,454.1425,157.7816,453.392,156.7001,453.0198,155.8398,453.113,155.9991,453.8903,155.0873,454.9397,154.6406,456.0223,154.2506,456.9118,153.5305,457.9029,152.984,457.9065,153.0065,455.9572,153.2912,454.0245,153.6782,452.0838,154.0159,450.1585,154.4477,448.183,154.5728" style="stroke: #FFFFFF; stroke-width: 1.0;"/><!--link cuando to quien--><path d="M789.572,173.7017 L789.662,173.7269 L790.4717,177.5032 L791.8089,181.427 L792.9743,185.3027 L793.575,189.0205 L794.9574,192.957 L794.9239,192.9487 L795.3077,195.0626 L795.8606,197.2186 L796.5309,199.4037 L796.7964,201.4883 L797.629,203.7137 L797.869,203.7677 L797.8687,205.9323 L798.5693,208.2546 L799.3554,210.5962 L799.644,212.8258 L800.1942,215.1143 L800.224,215.1202 L800.6583,217.5041 L801.2279,219.9151 L801.7323,222.313 L802.3613,224.7357 L802.584,227.0774 L802.8779,227.128 L803.3105,229.6174 L803.5536,232.0742 L804.0741,234.5787 L804.6076,237.0855 L804.7291,239.5213 L804.4118,239.4761 L805.3939,242.1325 L805.3311,244.64 L806.0627,247.2607 L805.9762,249.7649 L806.5603,252.3646 L806.53,252.3612 L807.1775,255.0328 L807.118,257.6266 L807.4756,260.2663 L807.8684,262.9099 L808.0084,265.5256 L808.1929,265.5393 L808.2058,268.205 L808.534,270.894 L808.3522,273.5451 L808.9311,276.2528 L809.0042,278.9229 L809.2477,278.9314 L809.2966,281.6402 L809.4663,284.3532 L809.0743,287.0466 L809.0941,289.7544 L809.4786,292.4749 L809.2025,292.4725 L809.4292,295.1997 L809.3448,297.9242 L809.7117,300.6526 L809.308,303.3743 L809.3624,306.1 L809.2102,306.0914 L809.3085,308.8292 L808.7561,311.5299 L808.6664,314.2569 L809.0295,317.0098 L808.5863,319.7168 L808.7788,319.7382 L808.6097,322.4582 L807.8422,325.1117 L807.8243,327.8485 L807.6431,330.5672 L807.0812,333.2435 L806.8743,333.2079 L806.5786,335.9074 L806.2151,338.5952 L805.9847,341.306 L805.2368,343.9275 L804.778,346.5988 L804.9778,346.6472 L803.9046,349.1614 L803.2171,351.7689 L803.0931,354.5128 L801.9317,357.0057 L801.6073,359.7011 L801.8226,359.7704 L800.8732,362.2827 L799.851,364.7717 L798.9932,367.3135 L798.5156,369.9777 L797.5,372.4688 L797.3792,372.413 L796.1913,375.9297 L794.182,379.067 L793.1067,382.6357 L791.5055,385.9615 L789.7626,389.2219 L789.8544,389.2804 L787.7686,392.3875 L786.0116,395.7041 L783.9576,398.8314 L781.7794,401.8795 L779.7044,404.9934 L779.7979,405.0673 L777.3678,407.8542 L775.3719,410.9845 L772.885,413.7264 L770.6,416.6281 L768.2487,419.4773 L768.0503,419.2936 L765.7306,421.9331 L763.65,424.7937 L761.2311,427.3413 L758.6909,429.7767 L756.319,432.3678 " fill="none" style="stroke: #FFFFFF; stroke-width: 1.0;"/><polygon fill="#FFFFFF" points="788.054,168.7288,788.1235,168.7373,787.6773,170.6671,787.6387,172.6469,787.4674,174.6104,786.8595,176.5204,786.8559,178.5045,786.833,178.4923,787.262,177.439,787.8062,176.447,788.4306,175.4977,788.7788,174.4013,789.5138,173.5109,789.6005,173.6738,790.4138,173.857,791.4802,174.5159,792.5776,175.2327,793.4952,175.612,794.5073,176.1688,794.5245,176.1837,793.2086,174.6738,791.971,173.2318,790.6956,171.757,789.4921,170.3447,788.054,168.7288" style="stroke: #FFFFFF; stroke-width: 1.0;"/><!--link donde to quien--><path d="M299.792,166.2307 L299.8224,166.3191 L297.2736,166.9043 L294.9032,168.0072 L292.4747,168.9415 L289.8551,169.3214 L287.5,170.4688 L287.4901,170.4357 L284.4304,171.1916 L281.4208,172.1143 L278.4459,173.1529 L275.3512,173.792 L272.4244,174.9907 L272.4781,175.2308 L269.4785,175.3622 L266.6357,176.1947 L263.812,177.1127 L260.877,177.533 L258.0005,178.2151 L258.0053,178.245 L255.2357,178.6376 L252.4876,179.1666 L249.7292,179.6298 L246.9906,180.2185 L244.1873,180.398 L244.2186,180.6946 L241.5702,180.9777 L238.9017,181.0695 L236.2627,181.4413 L233.6251,181.8263 L230.9436,181.7953 L230.9218,181.4756 L228.4211,182.2698 L225.8486,182.011 L223.3307,182.5527 L220.7565,182.2701 L218.2285,182.6631 L218.227,182.6327 L215.7989,183.1112 L213.3363,182.8792 L210.8941,183.0664 L208.4536,183.2888 L206.0008,183.2574 L206.0098,183.4421 L203.6444,183.371 L201.2945,183.6155 L198.9196,183.3492 L196.5819,183.8449 L194.2195,183.834 L194.2369,184.077 L191.9584,184.1941 L189.6886,184.4318 L187.3785,184.1088 L185.098,184.1969 L182.8435,184.649 L182.8109,184.3748 L180.6381,184.8849 L178.4285,185.086 L176.2722,185.7354 L174.025,185.6194 L171.8318,185.9584 L171.8029,185.8087 L169.7133,186.4699 L167.5003,186.4913 L165.375,186.9677 L163.3356,187.8894 L161.1433,188.0181 L161.198,188.2038 L159.1543,188.9444 L156.9403,189.1073 L154.9396,189.9938 L152.8923,190.7227 L150.7369,191.0842 L150.6547,190.891 L148.6872,191.9106 L146.6927,192.867 L144.7512,193.9477 L142.604,194.5451 L140.5716,195.4125 L140.6757,195.5899 L138.454,196.3696 L136.4332,197.4916 L134.7057,199.1136 L132.4382,199.815 L130.6064,201.2592 L130.7452,201.4378 L128.7014,202.8559 L126.6108,204.2135 L124.6261,205.7076 L122.8864,207.5169 L120.8,208.8801 L120.7061,208.7859 L119.048,210.9967 L116.7513,212.5666 L115.1806,214.8653 L113.2012,216.7536 L111.1116,218.5313 L111.1964,218.5996 L109.2056,220.932 L107.5185,223.5088 L105.557,225.8648 L103.4809,228.1284 L101.5,230.4688 L101.5979,230.5367 L100.1373,232.3314 L99.1313,234.4415 L97.6111,236.1948 L96.3024,238.0949 L94.9242,239.9468 L94.6945,239.8042 L93.6144,241.7146 L92.811,243.7969 L91.616,245.6361 L90.2807,247.388 L89.1401,249.2609 L89.0143,249.1926 L88.0598,251.0481 L86.8824,252.7827 L86.3177,254.8496 L85.4498,256.7521 L84.166,258.4289 L84.3787,258.5264 L83.6176,260.3656 L82.4524,262.0195 L81.7137,263.8689 L80.6927,265.5889 L80.0201,267.4687 L80.1402,267.5075 L78.9776,271.0557 L77.9599,274.6508 L76.4823,278.0974 L75.3757,281.6637 L74.2856,285.2354 L74.4812,285.2601 L74.0952,288.7608 L73.1784,292.1945 L72.8783,295.706 L72.589,299.2189 L72.0826,302.7044 L71.8121,302.6813 L72.5339,306.1806 L72.7865,309.6399 L72.9224,313.0893 L73.3248,316.5613 L73.5567,320.0189 L73.8663,320.1137 L74.4831,323.4388 L75.8094,326.9812 L76.8563,330.4381 L77.8435,333.8766 L78.8538,337.3222 L78.9091,337.3516 L80.7515,340.833 L82.3151,344.1663 L84.256,347.6999 L86.0853,351.1744 L88.1196,354.7578 L88.1428,354.774 L89.3851,356.5426 L90.6452,358.3238 L91.7137,359.9709 L93.0284,361.7902 L94.2864,363.5699 L94.2449,363.5362 L95.9283,365.5111 L97.3191,367.2488 L98.4469,368.7733 L100.0321,370.6686 L101.5,372.4688 L101.317,372.289 L102.9495,373.9412 L104.409,375.4235 L105.7468,376.7862 L106.7941,377.8635 L108.2902,379.3818 L108.4204,379.5417 L109.6916,380.4373 L111.5663,382.0737 L113.036,383.2131 L114.7571,384.661 L116.3399,385.9392 L116.3995,386.0278 L118.3056,387.3555 L119.8588,388.1579 L122.0038,389.8411 L123.7788,390.9736 L125.5833,392.1501 L125.6612,392.2875 L127.8214,393.614 L129.7331,394.5017 L131.8446,395.7421 L133.9273,396.9316 L135.9548,398.0238 L135.9931,398.1026 L138.2414,399.1326 L140.6662,400.5262 L142.6968,401.1074 L145.2115,402.6864 L147.3886,403.5695 L147.2811,403.3138 L149.7816,404.3935 L152.3676,405.6767 L154.8517,406.7172 L157.248,407.5491 L159.819,408.7964 L159.8825,408.969 L162.5079,409.8253 L165.275,411.0665 L167.9381,412.0252 L170.4391,412.5434 L173.1802,413.7139 L173.1256,413.5457 L176.0077,414.5827 L178.9195,415.7111 L181.7713,416.6546 L184.6026,417.535 L187.4065,418.3311 L187.3645,418.185 L190.4899,419.4681 L193.4948,420.3322 L196.4162,420.9066 L199.3977,421.6899 L202.4323,422.6572 L202.3879,422.4844 L205.5605,423.3737 L208.7513,424.3341 L211.8804,425.0544 L214.9937,425.7128 L218.1917,426.7016 L218.2402,426.9127 L221.4316,427.2571 L224.8127,428.4279 L228.0907,429.1497 L231.3707,429.8801 L234.6191,430.4733 L234.6813,430.7748 L238.003,431.068 L241.404,431.7458 L244.8835,432.8043 L248.1893,433.0202 L251.6488,433.9818 L251.6298,433.8795 L255.1714,434.6831 L258.6808,435.3135 L262.1595,435.7777 L265.6982,436.5665 L269.2149,437.2361 L269.2694,437.5625 L272.8698,438.1223 L276.3861,438.1785 L280.0429,439.0762 L283.6069,439.4184 L287.2519,440.2456 L287.2502,440.234 L290.9597,440.9291 L294.6565,441.5396 L298.2732,441.6177 L302.032,442.6407 L305.6939,443.0194 L305.6944,443.0231 L309.417,443.2843 L313.1783,443.8309 L316.9822,444.6917 L320.7339,445.1674 L324.4753,445.5669 L324.4744,445.5596 L328.25,445.7364 L332.1327,446.7893 L335.8914,446.8275 L339.6907,447.1982 L343.5302,447.8972 L343.5269,447.8674 L347.4115,448.5822 L351.2653,449.018 L355.0896,449.1861 L358.9331,449.5283 L362.7931,450.0195 L362.8005,450.0946 L366.6822,450.4866 L370.5328,450.5644 L374.4542,451.3568 L378.3416,451.8056 L382.1981,451.9432 L382.1896,451.8477 L386.0775,452.1001 L390.0173,452.9356 L393.8878,452.9931 L397.7833,453.3306 L401.6796,453.6775 L401.6901,453.81 L405.5552,453.7022 L409.4951,454.5339 L413.3743,454.603 L417.2969,455.217 L421.1717,455.2315 L421.1649,455.1358 L425.0721,455.6894 L428.9326,455.5879 L432.8418,456.1699 L436.7334,456.5061 L440.6089,456.6145 L440.6003,456.4693 L448.3078,457.2336 L455.9724,457.277 L463.6643,457.7798 L471.3841,458.7495 L479.0553,458.9046 L479.0693,459.2085 L486.5545,459.5004 L494.0231,459.4314 L501.5258,460.1054 L508.9959,460.0686 L516.4931,460.6216 L516.4939,460.6474 L523.6737,460.8646 L530.8504,460.9921 L538.0443,461.6258 L545.2223,461.7927 L552.3963,461.8393 L552.3929,461.6968 L559.1703,462.2318 L565.9344,462.1971 L572.696,462.0555 L579.4682,462.3696 L586.2392,462.6318 L586.2359,462.3983 L592.4897,462.6582 L598.738,462.5286 L604.9895,462.6296 L611.2451,463.0158 L617.496,463.0728 " fill="none" style="stroke: #FFFFFF; stroke-width: 1.0;"/><polygon fill="#FFFFFF" points="304.681,164.5218,304.6867,164.5916,302.7065,164.2229,300.7599,164.2636,298.8024,164.1709,296.8089,163.64,294.8652,163.7158,294.8539,163.6924,295.8226,164.0789,296.848,164.583,297.9129,165.1689,298.8418,165.4729,299.9611,166.1717,300.1273,166.2518,299.2806,167.0997,298.9193,168.1815,298.6172,169.2918,297.9706,170.236,297.5051,171.2676,297.5207,171.2842,298.933,169.9107,300.4162,168.6126,301.8652,167.2782,303.3795,166.0132,304.681,164.5218" style="stroke: #FFFFFF; stroke-width: 1.0;"/><!--link por to quien--><path d="M721.5,337.7157 L721.7802,337.7157 L720.9476,348.2182 L721.7577,358.7206 L722.0329,369.2231 L720.5488,379.7255 L721.3964,390.228 L720.9313,400.7304 L720.9887,411.2329 L721.4091,421.7353 L721.5,432.2378 " fill="none" style="stroke: #FFFFFF; stroke-width: 1.0;"/><polygon fill="#FFFFFF" points="721.5,332.5638,721.564,332.5922,720.5738,334.3077,719.9589,336.1899,719.2217,338.0179,718.0827,339.6672,717.5,341.5638,717.4817,341.5454,718.1995,340.6632,719.0096,339.8734,719.8839,339.1477,720.537,338.2008,721.5,337.5638,721.6305,337.6942,722.1514,338.2152,723.0534,339.1171,724.0018,340.0656,724.6798,340.7435,725.5,341.5638,725.5208,341.573,724.6903,339.7594,723.9544,337.9879,723.1728,336.1961,722.4784,334.443,721.5,332.5638" style="stroke: #FFFFFF; stroke-width: 1.0;"/><!--link quien to que--><path d="M721.5,499.9037 L721.7802,499.9037 L720.9476,509.3181 L721.7577,518.7324 L722.0329,528.1468 L720.5488,537.5611 L721.3964,546.9754 L721.5,556.3898 " fill="none" style="stroke: #FFFFFF; stroke-width: 1.0;"/><polygon fill="#FFFFFF" points="721.5,494.6527,721.564,494.6812,720.5738,496.3967,719.9589,498.2789,719.2217,500.1069,718.0827,501.7562,717.5,503.6527,717.4817,503.6344,718.1995,502.7522,719.0096,501.9624,719.8839,501.2367,720.537,500.2898,721.5,499.6527,721.6305,499.7832,722.1514,500.3042,723.0534,501.2061,724.0018,502.1546,724.6798,502.8325,725.5,503.6527,725.5208,503.662,724.6903,501.8484,723.9544,500.0769,723.1728,498.2851,722.4784,496.532,721.5,494.6527" style="stroke: #FFFFFF; stroke-width: 1.0;"/><!--link que to para--><path d="M709.832,648.5368 L710.1042,648.6035 L706.9447,657.9892 L705.3807,667.7661 L703.2972,677.4157 L699.505,686.6462 L697.9774,696.4321 L695.175,705.9053 L692.8799,715.5029 L690.9375,725.1871 L687.7796,734.5732 L687.0411,744.5526 L683.1572,753.7606 L681.3665,763.4819 L679.8311,773.2659 L676.921,782.7128 " fill="none" style="stroke: #FFFFFF; stroke-width: 1.0;"/><polygon fill="#FFFFFF" points="711.04,643.6148,711.0954,643.6576,709.7249,645.0877,708.6792,646.7692,707.5277,648.3688,706.0284,649.6992,705.0106,651.4023,704.9971,651.3801,705.9045,650.6944,706.8795,650.1203,707.9016,649.6239,708.7615,648.8599,709.8485,648.4707,710.0063,648.5663,710.2551,649.3294,710.9648,650.3717,711.7306,651.4481,712.1693,652.3263,712.7801,653.3087,712.8025,653.3127,712.4216,651.368,712.1426,649.4416,711.8145,647.5064,711.5802,645.588,711.04,643.6148" style="stroke: #FFFFFF; stroke-width: 1.0;"/><!--link que to como--><path d="M730.881,648.4358 L730.9732,648.451 L731.1547,651.1632 L731.8766,653.9647 L732.4225,656.7372 L732.3898,659.414 L733.1581,662.2232 L733.1239,662.2181 L733.3944,665.0704 L733.8372,667.9481 L734.3997,670.8434 L734.5495,673.6778 L735.2774,676.5975 L735.5215,676.6281 L735.3646,679.473 L735.9205,682.4072 L736.5634,685.3524 L736.7002,688.2341 L737.1032,691.1492 L737.1334,691.1521 L737.3685,694.0117 L737.7409,696.8847 L738.0471,699.7512 L738.4797,702.6301 L738.5,705.4688 L738.7973,705.4922 L739.3208,712.0896 L739.6524,718.672 L740.2648,725.2764 L740.8903,731.8819 L741.099,738.4546 L740.7792,738.4324 L741.7883,744.0699 L741.7445,749.6343 L742.5011,755.2543 L742.4334,760.8171 L743.0413,766.4268 L743.0109,766.425 L743.5127,768.9708 L743.3043,771.4766 L743.515,774.006 L743.7608,776.5374 L743.7528,779.0545 L743.9377,779.0627 L743.8574,781.4545 L744.0929,783.8603 L743.8174,786.2435 L744.3041,788.6604 L744.2841,791.0549 L744.5276,791.0621 L744.5507,793.3771 L744.6947,795.6957 L744.2768,797.9975 L744.2708,800.3117 L744.6297,802.6367 L744.3535,802.6329 L744.6344,804.9107 L744.6042,807.1842 L745.0252,809.4639 L744.6757,811.7331 L744.7842,814.0085 L744.6318,814.0079 L744.8773,816.283 L744.4712,818.5556 L744.5284,820.83 L745.0392,823.106 L744.7424,825.3791 L744.936,825.3832 L745.0201,827.7016 L744.502,830.0073 L744.7381,832.3289 L744.8099,834.6471 L744.4989,836.9571 L744.2891,836.9493 L744.3662,839.3544 L744.3746,841.7569 L744.5179,844.1645 L744.1365,846.5524 L744.0482,848.9513 L744.2535,848.9621 L743.6698,851.4622 L743.4823,853.9832 L743.8738,856.5345 L743.1995,859.0298 L743.385,861.5704 L743.6108,861.5852 L743.3005,864.2669 L742.9138,866.9436 L742.6995,869.6316 L742.8837,872.3458 L742.504,875.0229 L742.3713,875.0128 L742.5454,877.9419 L741.8173,880.8022 L742.115,883.7407 L741.8352,886.6351 L741.3997,889.5177 L741.5082,889.5273 L740.8407,896.1098 L740.5615,902.7264 L739.9315,909.3122 L739.1549,915.8851 L738.5,922.4688 L738.6184,922.4826 L738.0819,925.5383 L738.0952,928.6583 L737.4867,931.7055 L737.134,934.7827 L736.6972,937.85 L736.4301,937.8085 L736.0367,940.9299 L735.9653,944.1013 L735.4384,947.2019 L734.7483,950.2772 L734.2846,953.3876 L734.1438,953.3617 L733.6362,956.3751 L732.8793,959.3427 L732.8079,962.4363 L732.3972,965.4675 L731.5212,968.4131 L731.7503,968.4604 L731.2527,971.2445 L730.3196,973.9388 L729.846,976.7279 L729.0683,979.4543 L728.666,982.2581 " fill="none" style="stroke: #FFFFFF; stroke-width: 1.0;"/><polygon fill="#FFFFFF" points="730.011,643.4868,730.079,643.5037,729.4007,645.3647,729.121,647.325,728.7115,649.253,727.8753,651.0746,727.6298,653.0434,727.6086,653.0285,728.1627,652.0354,728.8239,651.1172,729.5594,650.2511,730.0386,649.2054,730.8767,648.4112,730.9827,648.5623,731.6826,648.8886,732.6918,649.656,733.7387,650.4773,734.5661,650.9854,735.5089,651.6582,735.5278,651.6709,734.4005,650.018,733.3591,648.4228,732.2763,646.7998,731.2726,645.23,730.011,643.4868" style="stroke: #FFFFFF; stroke-width: 1.0;"/><!--link para to como--><path d="M678.81,850.3298 L679.081,850.4011 L680.7583,859.6178 L684.0242,869.2528 L686.7728,878.7516 L687.8202,887.8024 L691.1223,897.4469 L693.1551,906.7572 L695.693,916.2006 L698.5821,925.7363 L700.2611,934.9535 L704.3489,944.8048 L705.3048,953.8316 L708.345,963.4072 L711.6394,973.0497 L713.565,982.3318 " fill="none" style="stroke: #FFFFFF; stroke-width: 1.0;"/><polygon fill="#FFFFFF" points="677.511,845.3958,677.5802,845.407,677.0592,847.318,676.9437,849.2948,676.6961,851.2501,676.0144,853.1351,675.9337,855.1175,675.9113,855.1044,676.3809,854.0686,676.9633,853.0985,677.6241,852.1742,678.0147,851.0922,678.7837,850.231,678.8767,850.3905,679.6552,850.6196,680.7051,851.3141,681.7882,852.0654,682.6785,852.4864,683.6702,853.0811,683.6879,853.0953,682.43,851.5374,681.2529,850.0442,680.0369,848.5197,678.8952,847.0549,677.511,845.3958" style="stroke: #FFFFFF; stroke-width: 1.0;"/><!--
@startuml
skinparam ActivityBarColor #white
skinparam titleBorderColor #222222
skinparam titleBackgroundColor #222222
skinparam titlefontColor #orange
skinparam titleFontStyle bold
skinparam titleFontSize 30

skinparam handwritten true
skinparam shadowing false
skinparam backgroundColor #222222
skinparam padding 3
skinparam StateStartColor #white
skinparam StateEndColor #white

skinparam note {
    backgroundColor #222222
    borderColor #white
    FontColor #white
    fontSize 20
}

skinparam class {
    fontColor #white
    fontColor<<¿Dónde?>> #cyan
    fontColor<<¿Cuándo?>> #cyan
    fontColor<<¿Por qué?>> #red
    fontColor<<¿Quién?>> #green
    fontColor<<¿Qué?>> #orange
    fontColor<<¿Para qué?>> #green
    StereotypeFontColor #white
    fontStyle bold
    arrowColor #white
    backgroundColor #222222
    borderColor #white
    circleCharacterFontName #white
    fontSize 20
}

hide circle
hide members

title Asynchronous JavaScript And XML\nAJAX

class donde as "Adaptive Path" <<¿Dónde?>>
note left
<color:cyan>Empresa de diseño y</color>
<color:cyan> experiencia de usuario</color>
end note

class cuando as "2005" <<¿Cuándo?>>
note right
<color:cyan>Tras 15 años de la creación de la Web</color>
end note

class por as "Ineficiencia" <<¿Por qué?>>
note left
<color:red>Enviar una petición desde el navegador,</color>
<color:red> esperar la respuesta del servidor web y </color>
<color:red> visualizarla en el navegador para modificar</color>
<color:red> unos pocos datos de toda la página es muy ineficiente</color>
<color:red> MPA, multiple page applications</color>
end note

class quien as "Jesse James Garrett" <<¿Quién?>>

class que as "Asynchronous JavaScript\nAnd XML (AJAX)" <<¿Qué?>>
note left
<color:green>Técnicas de desarrollo Web que permiten </color>
<color:green> que las aplicaciones web funcionen de forma asíncrona,</color>
<color:green> procesando cualquier solicitud al servidor en segundo plano</color>
end note

class para as "Eficiencia" <<¿Para qué?>>
note right
<color:green>Desarrollo de aplicaciones de una única página, SPA</color>
<color:green>- Validación de formularios en tiempo real</color>
<color:green>- Códigos de autocompletado</color>
<color:green>- Carga de páginas en background</color>
<color:green>- Interfaces de usuario más complicados (menús, calendarios, editores,…)</color>
<color:green>- Validaciones parciales de página</color>
<color:green>- Mashups, aplicaciones de terceros, Googlemaps, ...</color>
<color:green>- Desarrollo de Páginas como Aplicaciones, Portlets</color>
end note

class como as "Descripción" <<¿Cómo?>>

por -up-> cuando
por -up-> donde

quien -up-> cuando
quien -up-> donde
quien -up-> por

que -up-> quien

para -up-> que

como -up-> que
como -up-> para

@enduml

PlantUML version 1.2019.05(Sat Apr 20 18:45:36 CEST 2019)
(GPL source distribution)
Java Runtime: OpenJDK Runtime Environment
JVM: OpenJDK 64-Bit Server VM
Java Version: 11.0.8+10
Operating System: Windows 10
OS Version: 10.0
Default Encoding: windows-1252
Language: es
Country: ES
--></g></svg>