<?xml version="1.0" encoding="UTF-8" standalone="no"?><svg xmlns="http://www.w3.org/2000/svg" xmlns:xlink="http://www.w3.org/1999/xlink" contentScriptType="application/ecmascript" contentStyleType="text/css" height="187px" preserveAspectRatio="none" style="width:366px;height:187px;background:#222222;" version="1.1" viewBox="0 0 366 187" width="366px" zoomAndPan="magnify"><defs/><g><!--class Activity--><polygon fill="#222222" points="45,8,45,8.2102,55.4,7.5857,65.8,8.1933,76.2,8.3997,86.6,7.2866,97,7.9223,107.4,7.5735,117.8,7.6165,128.2,7.9318,138.6,7.3086,149,8,149.5536,8,148.3697,18.8227,148.8022,29.6453,149.4319,40.468,148.9142,51.2906,149,62.1133,149,62.1815,138.6,62.0813,128.2,62.2918,117.8,62.3524,107.4,62.699,97,62.7843,86.6,62.7925,76.2,62.3679,65.8,62.5769,55.4,62.8155,45,62.1133,44.2788,62.1133,45.6785,51.2906,44.7035,40.468,45.5338,29.6453,44.505,18.8227,45,8" style="stroke: #A9A9A9; stroke-width: 3.0;"/><text fill="#A9A9A9" font-family="courier" font-size="20" font-weight="bold" lengthAdjust="spacingAndGlyphs" textLength="96" x="49" y="34.1074">Activity</text><path d="M46,46.1133 L46,46.3935 L56.2,45.5609 L66.4,46.371 L76.6,46.6462 L86.8,45.1621 L97,46.0097 L107.2,45.5446 L117.4,45.6019 L127.6,46.0224 L137.8,45.1915 L148,46.1133 " fill="#222222" style="stroke: #A9A9A9; stroke-width: 3.0;"/><path d="M46,54.1133 L46,54.3935 L56.2,53.5609 L66.4,54.371 L76.6,54.6462 L86.8,53.1621 L97,54.0097 L107.2,53.5446 L117.4,53.6019 L127.6,54.0224 L137.8,53.1915 L148,54.1133 " fill="#222222" style="stroke: #A9A9A9; stroke-width: 3.0;"/><!--class Modelo--><polygon fill="#222222" points="6,122,6,122.2102,16,121.5857,26,122.1933,36,122.3997,46,121.2866,56,121.9223,66,121.5735,76,121.6165,86,122,85.9318,122,85.3086,132.8227,86.5536,143.6453,85.3697,154.468,85.8022,165.2906,86,176.1133,86,176.5452,76,176.0275,66,176.1815,56,176.0813,46,176.2918,36,176.3524,26,176.699,16,176.7843,6,176.1133,6.6793,176.1133,6.2546,165.2906,6.4636,154.468,6.7022,143.6453,5.2788,132.8227,6,122" style="stroke: #A9A9A9; stroke-width: 3.0;"/><text fill="#A9A9A9" font-family="courier" font-size="20" font-weight="bold" lengthAdjust="spacingAndGlyphs" textLength="72" x="10" y="148.1074">Modelo</text><path d="M7,160.1133 L7,160.3935 L16.75,159.5609 L26.5,160.371 L36.25,160.6462 L46,159.1621 L55.75,160.0097 L65.5,159.5446 L75.25,159.6019 L85,160.1133 " fill="#222222" style="stroke: #A9A9A9; stroke-width: 3.0;"/><path d="M7,168.1133 L7,168.3935 L16.75,167.5609 L26.5,168.371 L36.25,168.6462 L46,167.1621 L55.75,168.0097 L65.5,167.5446 L75.25,167.6019 L85,168.1133 " fill="#222222" style="stroke: #A9A9A9; stroke-width: 3.0;"/><!--class XML--><polygon fill="#222222" points="311,8,311,8.0701,319.8,7.8619,328.6,8.0644,337.4,8.1332,346.2,7.7622,355,8,354.9223,8,354.5735,18.8227,354.6165,29.6453,354.9318,40.468,354.3086,51.2906,355,62.1133,355,62.2978,346.2,61.9032,337.4,62.0474,328.6,62.2573,319.8,62.0847,311,62.1133,311.0682,62.1133,310.9681,51.2906,311.1785,40.468,311.2391,29.6453,311.5857,18.8227,311,8" style="stroke: #A9A9A9; stroke-width: 3.0;"/><text fill="#A9A9A9" font-family="courier" font-size="20" font-weight="bold" lengthAdjust="spacingAndGlyphs" textLength="36" x="315" y="34.1074">XML</text><path d="M312,46.1133 L312,46.2067 L320.4,45.9291 L328.8,46.1992 L337.2,46.2909 L345.6,45.7962 L354,46.1133 " fill="#222222" style="stroke: #A9A9A9; stroke-width: 3.0;"/><path d="M312,54.1133 L312,54.2067 L320.4,53.9291 L328.8,54.1992 L337.2,54.2909 L345.6,53.7962 L354,54.1133 " fill="#222222" style="stroke: #A9A9A9; stroke-width: 3.0;"/><!--class Request--><polygon fill="#222222" points="184,8,184,8.2102,194.2222,7.5857,204.4444,8.1933,214.6667,8.3997,224.8889,7.2866,235.1111,7.9223,245.3333,7.5735,255.5556,7.6165,265.7778,7.9318,276,8,275.3086,8,276.5536,18.8227,275.3697,29.6453,275.8022,40.468,276.4319,51.2906,276,62.1133,276,62.0275,265.7778,62.1815,255.5556,62.0813,245.3333,62.2918,235.1111,62.3524,224.8889,62.699,214.6667,62.7843,204.4444,62.7925,194.2222,62.3679,184,62.1133,184.4636,62.1133,184.7022,51.2906,183.2788,40.468,184.6785,29.6453,183.7035,18.8227,184,8" style="stroke: #A9A9A9; stroke-width: 3.0;"/><text fill="#A9A9A9" font-family="courier" font-size="20" font-weight="bold" lengthAdjust="spacingAndGlyphs" textLength="84" x="188" y="34.1074">Request</text><path d="M185,46.1133 L185,46.3935 L195,45.5609 L205,46.371 L215,46.6462 L225,45.1621 L235,46.0097 L245,45.5446 L255,45.6019 L265,46.0224 L275,46.1133 " fill="#222222" style="stroke: #A9A9A9; stroke-width: 3.0;"/><path d="M185,54.1133 L185,54.3935 L195,53.5609 L205,54.371 L215,54.6462 L225,53.1621 L235,54.0097 L245,53.5446 L255,53.6019 L265,54.0224 L275,54.1133 " fill="#222222" style="stroke: #A9A9A9; stroke-width: 3.0;"/><!--class HTML--><polygon fill="#222222" points="121,122,121,122.2102,130.3333,121.5857,139.6667,122.1933,149,122.3997,158.3333,121.2866,167.6667,121.9223,177,122,176.5735,122,176.6165,132.8227,176.9318,143.6453,176.3086,154.468,177.5536,165.2906,177,176.1133,177,175.483,167.6667,175.9155,158.3333,176.5452,149,176.0275,139.6667,176.1815,130.3333,176.0813,121,176.1133,121.1785,176.1133,121.2391,165.2906,121.5857,154.468,121.6711,143.6453,121.6793,132.8227,121,122" style="stroke: #A9A9A9; stroke-width: 3.0;"/><text fill="#A9A9A9" font-family="courier" font-size="20" font-weight="bold" lengthAdjust="spacingAndGlyphs" textLength="48" x="125" y="148.1074">HTML</text><path d="M122,160.1133 L122,160.3935 L132.8,159.5609 L143.6,160.371 L154.4,160.6462 L165.2,159.1621 L176,160.1133 " fill="#222222" style="stroke: #A9A9A9; stroke-width: 3.0;"/><path d="M122,168.1133 L122,168.3935 L132.8,167.5609 L143.6,168.371 L154.4,168.6462 L165.2,167.1621 L176,168.1133 " fill="#222222" style="stroke: #A9A9A9; stroke-width: 3.0;"/><!--link Activity to Request--><path d="M149.213,35 L149.213,35.0934 L155.125,34.8159 L161.037,35.0859 L166.949,35.1776 L172.861,34.6829 L178.773,35 " fill="none" style="stroke: #A9A9A9; stroke-width: 2.0;"/><polygon fill="#A9A9A9" points="183.926,35,183.9545,35.064,182.0699,34.0738,180.3522,33.4589,178.5801,32.7217,176.6294,31.5827,174.926,31,174.9077,30.9817,175.6255,31.6995,176.4356,32.5096,177.3099,33.3839,177.963,34.037,178.926,35,179.0565,35.1305,177.9774,35.6514,177.2794,36.5534,176.6278,37.5018,175.7058,38.1798,174.926,39,174.9352,39.0208,176.7217,38.1903,178.5502,37.4544,180.3584,36.6728,182.2053,35.9784,183.926,35" style="stroke: #A9A9A9; stroke-width: 2.0;"/><!--link Activity to HTML--><path d="M109.192,62.259 L109.4462,62.377 L112.9391,71.1765 L117.9221,80.6677 L122.4199,89.9337 L125.3219,98.4588 L130.3389,107.9658 L134.681,117.1595 " fill="none" style="stroke: #A9A9A9; stroke-width: 2.0;"/><polygon fill="#A9A9A9" points="136.885,121.9055,136.9551,121.9067,136.7144,119.9337,136.8844,117.9676,136.9206,115.9992,136.5171,114.0236,136.7224,112.058,136.698,112.0491,136.2002,113.0717,135.825,114.1391,135.5351,115.2377,134.9514,116.2289,134.7791,117.3706,134.8425,117.5439,133.6444,116.7846,132.6315,116.5314,131.641,116.3399,130.5192,115.7892,129.4665,115.4274,129.4815,115.4445,130.9432,116.715,132.4731,118.0634,133.97,119.3743,135.5297,120.7569,136.885,121.9055" style="stroke: #A9A9A9; stroke-width: 2.0;"/><!--link Activity to Modelo--><path d="M85.0428,62.259 L85.2978,62.3751 L80.3735,71.1801 L76.9442,80.666 L73.0281,89.9301 L67.5109,98.4651 L64.1157,107.9665 L60.0434,117.1595 " fill="none" style="stroke: #A9A9A9; stroke-width: 2.0;"/><polygon fill="#A9A9A9" points="57.8823,121.9055,57.9288,121.9579,59.2647,120.4955,60.8731,119.3405,62.3928,118.0854,63.6207,116.5011,65.2525,115.3725,65.2434,115.3482,64.143,115.6358,63.0885,116.0458,62.0657,116.5408,60.9333,116.7427,59.9544,117.3551,60.1273,117.4198,59.3611,116.2218,59.0996,115.2128,58.8997,114.2267,58.3416,113.1066,57.9718,112.057,57.9946,112.0573,57.9433,114.0266,57.9955,115.997,57.9978,117.9668,58.0954,119.9376,57.8823,121.9055" style="stroke: #A9A9A9; stroke-width: 2.0;"/><!--
@startuml
allowmixing
skinparam backgroundColor #222222
skinparam handwritten true
hide circle
hide stereotype
skinparam shadowing false
skinparam padding 1
skinparam arrow {
    Thickness 2
    Color #DarkGrey
    FontSize 20
    FontName courier
    FontStyle normal
    FontColor #DarkGrey
}
skinparam class {
    BorderThickness 3
    BorderColor #DarkGrey
    BackgroundColor #222222
    FontSize 20
    FontName courier
    FontStyle bold
    FontColor #DarkGrey
}

class Activity <<Presentador>>
class Modelo <<Modelo>>
class XML <<Vista>>
class Request <<Evento>>

Activity -right-> Request
Activity - -> HTML
Activity - -> Modelo
@enduml

PlantUML version 1.2019.05(Sat Apr 20 18:45:36 CEST 2019)
(GPL source distribution)
Java Runtime: Java(TM) SE Runtime Environment
JVM: Java HotSpot(TM) 64-Bit Server VM
Java Version: 11.0.8+10-LTS
Operating System: Windows 10
OS Version: 10.0
Default Encoding: windows-1252
Language: es
Country: ES
--></g></svg>