<?xml version="1.0" encoding="UTF-8" standalone="no"?><svg xmlns="http://www.w3.org/2000/svg" xmlns:xlink="http://www.w3.org/1999/xlink" contentScriptType="application/ecmascript" contentStyleType="text/css" height="301px" preserveAspectRatio="none" style="width:236px;height:301px;background:#222222;" version="1.1" viewBox="0 0 236 301" width="236px" zoomAndPan="magnify"><defs/><g><!--class Servlet--><polygon fill="#222222" points="6,8,6,8.2102,16.2222,7.5857,26.4444,8.1933,36.6667,8.3997,46.8889,7.2866,57.1111,7.9223,67.3333,7.5735,77.5556,7.6165,87.7778,7.9318,98,8,97.3086,8,98.5536,18.8227,97.3697,29.6453,97.8022,40.468,98.4319,51.2906,98,62.1133,98,62.0275,87.7778,62.1815,77.5556,62.0813,67.3333,62.2918,57.1111,62.3524,46.8889,62.699,36.6667,62.7843,26.4444,62.7925,16.2222,62.3679,6,62.1133,6.4636,62.1133,6.7022,51.2906,5.2788,40.468,6.6785,29.6453,5.7035,18.8227,6,8" style="stroke: #A9A9A9; stroke-width: 3.0;"/><text fill="#A9A9A9" font-family="courier" font-size="20" font-weight="bold" lengthAdjust="spacingAndGlyphs" textLength="84" x="10" y="34.1074">Servlet</text><path d="M7,46.1133 L7,46.3935 L17,45.5609 L27,46.371 L37,46.6462 L47,45.1621 L57,46.0097 L67,45.5446 L77,45.6019 L87,46.0224 L97,46.1133 " fill="#222222" style="stroke: #A9A9A9; stroke-width: 3.0;"/><path d="M7,54.1133 L7,54.3935 L17,53.5609 L27,54.371 L37,54.6462 L47,53.1621 L57,54.0097 L67,53.5446 L77,53.6019 L87,54.0224 L97,54.1133 " fill="#222222" style="stroke: #A9A9A9; stroke-width: 3.0;"/><!--class Bean--><polygon fill="#222222" points="24,236,24,236.2102,33.3333,235.5857,42.6667,236.1933,52,236.3997,61.3333,235.2866,70.6667,235.9223,80,236,79.5735,236,79.6165,246.8227,79.9318,257.6453,79.3086,268.468,80.5536,279.2906,80,290.1133,80,289.483,70.6667,289.9155,61.3333,290.5452,52,290.0275,42.6667,290.1815,33.3333,290.0813,24,290.1133,24.1785,290.1133,24.2391,279.2906,24.5857,268.468,24.6711,257.6453,24.6793,246.8227,24,236" style="stroke: #A9A9A9; stroke-width: 3.0;"/><text fill="#A9A9A9" font-family="courier" font-size="20" font-weight="bold" lengthAdjust="spacingAndGlyphs" textLength="48" x="28" y="262.1074">Bean</text><path d="M25,274.1133 L25,274.3935 L35.8,273.5609 L46.6,274.371 L57.4,274.6462 L68.2,273.1621 L79,274.1133 " fill="#222222" style="stroke: #A9A9A9; stroke-width: 3.0;"/><path d="M25,282.1133 L25,282.3935 L35.8,281.5609 L46.6,282.371 L57.4,282.6462 L68.2,281.1621 L79,282.1133 " fill="#222222" style="stroke: #A9A9A9; stroke-width: 3.0;"/><!--class JavaServerPage--><polygon fill="#222222" points="35,122,35,122.2102,44.7778,121.5857,54.5556,122.1933,64.3333,122.3997,74.1111,121.2866,83.8889,121.9223,93.6667,121.5735,103.4444,121.6165,113.2222,121.9318,123,121.3086,132.7778,122.5536,142.5556,121.3697,152.3333,121.8022,162.1111,122.4319,171.8889,121.9142,181.6667,122.0682,191.4444,121.9681,201.2222,122.1785,211,122,211.2391,122,211.5857,132.8227,211.6711,143.6453,211.6793,154.468,211.2546,165.2906,211,176.1133,211,176.5769,201.2222,176.8155,191.4444,175.3921,181.6667,176.7918,171.8889,175.8168,162.1111,176.6471,152.3333,175.6183,142.5556,176.0448,132.7778,176.8549,123,176.0645,113.2222,176.2186,103.4444,176.4519,93.6667,176.5295,83.8889,176.1094,74.1111,176.4005,64.3333,175.5409,54.5556,176.3977,44.7778,176.6615,35,176.1133,35.4445,176.1133,35.613,165.2906,34.5169,154.468,34.3478,143.6453,34.3786,132.8227,35,122" style="stroke: #A9A9A9; stroke-width: 3.0;"/><text fill="#A9A9A9" font-family="courier" font-size="20" font-weight="bold" lengthAdjust="spacingAndGlyphs" textLength="168" x="39" y="148.1074">JavaServerPage</text><path d="M36,160.1133 L36,160.3935 L46.2353,159.5609 L56.4706,160.371 L66.7059,160.6462 L76.9412,159.1621 L87.1765,160.0097 L97.4118,159.5446 L107.6471,159.6019 L117.8824,160.0224 L128.1176,159.1915 L138.3529,160.8515 L148.5882,159.2729 L158.8235,159.8496 L169.0588,160.6892 L179.2941,159.9989 L189.5294,160.2043 L199.7647,160.0707 L210,160.1133 " fill="#222222" style="stroke: #A9A9A9; stroke-width: 3.0;"/><path d="M36,168.1133 L36,168.3935 L46.2353,167.5609 L56.4706,168.371 L66.7059,168.6462 L76.9412,167.1621 L87.1765,168.0097 L97.4118,167.5446 L107.6471,167.6019 L117.8824,168.0224 L128.1176,167.1915 L138.3529,168.8515 L148.5882,167.2729 L158.8235,167.8496 L169.0588,168.6892 L179.2941,167.9989 L189.5294,168.2043 L199.7647,168.0707 L210,168.1133 " fill="#222222" style="stroke: #A9A9A9; stroke-width: 3.0;"/><!--class Request--><polygon fill="#222222" points="133,8,133,8.2102,143.2222,7.5857,153.4444,8.1933,163.6667,8.3997,173.8889,7.2866,184.1111,7.9223,194.3333,7.5735,204.5556,7.6165,214.7778,7.9318,225,8,224.3086,8,225.5536,18.8227,224.3697,29.6453,224.8022,40.468,225.4319,51.2906,225,62.1133,225,62.0275,214.7778,62.1815,204.5556,62.0813,194.3333,62.2918,184.1111,62.3524,173.8889,62.699,163.6667,62.7843,153.4444,62.7925,143.2222,62.3679,133,62.1133,133.4636,62.1133,133.7022,51.2906,132.2788,40.468,133.6785,29.6453,132.7035,18.8227,133,8" style="stroke: #A9A9A9; stroke-width: 3.0;"/><text fill="#A9A9A9" font-family="courier" font-size="20" font-weight="bold" lengthAdjust="spacingAndGlyphs" textLength="84" x="137" y="34.1074">Request</text><path d="M134,46.1133 L134,46.3935 L144,45.5609 L154,46.371 L164,46.6462 L174,45.1621 L184,46.0097 L194,45.5446 L204,45.6019 L214,46.0224 L224,46.1133 " fill="#222222" style="stroke: #A9A9A9; stroke-width: 3.0;"/><path d="M134,54.1133 L134,54.3935 L144,53.5609 L154,54.371 L164,54.6462 L174,53.1621 L184,54.0097 L194,53.5446 L204,53.6019 L214,54.0224 L224,54.1133 " fill="#222222" style="stroke: #A9A9A9; stroke-width: 3.0;"/><!--link Servlet to Request--><path d="M98.1367,35 L98.1367,35.0934 L104.0544,34.8159 L109.972,35.0859 L115.8897,35.1776 L121.8073,34.6829 L127.725,35 " fill="none" style="stroke: #A9A9A9; stroke-width: 2.0;"/><polygon fill="#A9A9A9" points="132.883,35,132.9115,35.064,131.0269,34.0738,129.3092,33.4589,127.5371,32.7217,125.5864,31.5827,123.883,31,123.8647,30.9817,124.5825,31.6995,125.3926,32.5096,126.2669,33.3839,126.92,34.037,127.883,35,128.0135,35.1305,126.9344,35.6514,126.2364,36.5534,125.5848,37.5018,124.6628,38.1798,123.883,39,123.8922,39.0208,125.6787,38.1903,127.5072,37.4544,129.3154,36.6728,131.1623,35.9784,132.883,35" style="stroke: #A9A9A9; stroke-width: 2.0;"/><!--link Servlet to JavaServerPage--><path d="M68.6463,62.259 L68.883,62.409 L73.1915,69.8691 L78.8876,78.2087 L84.1318,86.2619 L87.8901,93.3731 L93.6178,101.7328 L98.2368,109.3897 L103.7289,117.6 " fill="none" style="stroke: #A9A9A9; stroke-width: 2.0;"/><polygon fill="#A9A9A9" points="106.458,121.905,106.5273,121.9152,106.0333,119.9362,105.9456,118.0172,105.7255,116.0787,105.0704,114.0759,105.0176,112.162,104.9923,112.1564,104.6315,113.235,104.3982,114.3421,104.2534,115.4691,103.8034,116.5277,103.7809,117.6821,103.8212,117.8622,102.631,117.2297,101.5585,117.1231,100.5004,117.0806,99.3586,116.6648,98.2609,116.4454,98.2735,116.4643,99.8944,117.5285,101.5727,118.6788,103.2233,119.7875,104.9268,120.9756,106.458,121.905" style="stroke: #A9A9A9; stroke-width: 2.0;"/><!--link Servlet to Bean--><path d="M38.1964,62.287 L38.2815,62.3256 L36.812,64.8919 L35.8412,67.6844 L34.708,70.4033 L33.0407,72.8798 L32.1127,75.6918 L32.0807,75.6789 L30.7455,78.5918 L29.5719,81.5696 L28.5106,84.5924 L27.0622,87.4599 L26.1561,90.5449 L26.3894,90.6229 L24.8433,93.5865 L23.9785,96.778 L23.1968,99.9972 L21.9314,103.0547 L20.9205,106.1973 L20.9499,106.2046 L20.1226,109.3544 L19.4293,112.5375 L18.6713,115.7045 L18.0367,118.9021 L17,122 L17.2939,122.0506 L16.779,125.0636 L16.0744,128.0439 L15.6474,131.072 L15.2334,134.1024 L14.4073,137.0618 L14.0876,137.0386 L14.5352,139.4712 L13.9302,141.8276 L14.1254,144.2418 L13.4965,146.5965 L13.5431,149 L13.5127,148.9978 L14.0446,151.4114 L13.8671,153.7737 L14.1083,156.1663 L14.3846,158.5614 L14.4073,160.9382 L14.5896,160.9696 L14.9241,163.9503 L15.5702,166.9846 L15.7122,169.9321 L16.606,173.0091 L17,176 L17.2367,176.0577 L17.8895,178.9103 L18.6599,181.7915 L18.8841,184.5397 L19.5087,187.3854 L20.4879,190.3175 L20.2251,190.2324 L21.3857,193.1582 L22.2502,195.9882 L23.5442,198.9573 L24.1049,201.6888 L25.1015,204.5616 L24.9593,204.5065 L26.2556,207.3357 L26.9441,209.9296 L28.0648,212.6908 L29.6084,215.6157 L30.3989,218.2491 L30.5763,218.3268 L31.8057,220.9096 L32.4835,223.2509 L33.8522,225.8948 L35.0704,228.4727 L35.9378,230.897 " fill="none" style="stroke: #A9A9A9; stroke-width: 2.0;"/><polygon fill="#A9A9A9" points="38.1964,235.7128,38.2664,235.7142,38.0184,233.7406,38.1809,231.7754,38.2097,229.8074,37.7988,227.8305,37.9966,225.866,37.9722,225.8572,37.4783,226.8816,37.1071,227.9505,36.8213,229.0502,36.2413,230.0435,36.0734,231.1859,36.1362,231.3594,34.938,230.6037,33.9231,230.3546,32.9304,230.1674,31.8078,229.6205,30.7535,229.2627,30.7684,229.2799,32.2351,230.5447,33.7696,231.8877,35.2715,233.193,36.8357,234.5703,38.1964,235.7128" style="stroke: #A9A9A9; stroke-width: 2.0;"/><!--link JavaServerPage to Bean--><path d="M106.354,176.259 L106.5907,176.409 L100.8756,183.8691 L96.548,192.2088 L91.7686,200.2621 L85.5033,207.3734 L81.2073,215.7331 L75.8027,223.39 L71.2711,231.6004 " fill="none" style="stroke: #A9A9A9; stroke-width: 2.0;"/><polygon fill="#A9A9A9" points="68.5421,235.9055,68.5809,235.9638,70.105,234.6986,71.8567,233.7753,73.5342,232.7406,74.968,231.3399,76.7392,230.4459,76.7336,230.4206,75.6041,230.5545,74.5033,230.8158,73.4222,231.1657,72.2728,231.2104,71.2192,231.6826,71.3993,231.7229,70.7669,230.5326,70.6602,229.4601,70.6177,228.402,70.202,227.2603,69.9825,226.1625,70.005,226.1659,69.6839,228.1096,69.4652,230.0684,69.1971,232.02,69.0233,233.9855,68.5421,235.9055" style="stroke: #A9A9A9; stroke-width: 2.0;"/><!--
@startuml
allowmixing
skinparam backgroundColor #222222
skinparam handwritten true
hide circle
hide stereotype
skinparam shadowing false
skinparam padding 1
skinparam arrow {
    Thickness 2
    Color #DarkGrey
    FontSize 20
    FontName courier
    FontStyle normal
    FontColor #DarkGrey
}
skinparam class {
    BorderThickness 3
    BorderColor #DarkGrey
    BackgroundColor #222222
    FontSize 20
    FontName courier
    FontStyle bold
    FontColor #DarkGrey
}
class Servlet <<Controlador>>
class Bean <<Modelo>>
class JavaServerPage <<Vista>>
class Request <<Evento>>

Servlet -right-> Request
Servlet - -> JavaServerPage
Servlet - -> Bean
JavaServerPage - -> Bean
@enduml

PlantUML version 1.2019.05(Sat Apr 20 18:45:36 CEST 2019)
(GPL source distribution)
Java Runtime: Java(TM) SE Runtime Environment
JVM: Java HotSpot(TM) 64-Bit Server VM
Java Version: 11.0.8+10-LTS
Operating System: Windows 10
OS Version: 10.0
Default Encoding: windows-1252
Language: es
Country: ES
--></g></svg>