<?xml version="1.0" encoding="UTF-8" standalone="no"?><svg xmlns="http://www.w3.org/2000/svg" xmlns:xlink="http://www.w3.org/1999/xlink" contentScriptType="application/ecmascript" contentStyleType="text/css" height="217px" preserveAspectRatio="none" style="width:317px;height:217px;background:#222222;" version="1.1" viewBox="0 0 317 217" width="317px" zoomAndPan="magnify"><defs/><g><!--class Bean--><polygon fill="#222222" points="123,8,123,8.2102,132.3333,7.5857,141.6667,8.1933,151,8.3997,160.3333,7.2866,169.6667,7.9223,179,8,178.5735,8,178.6165,18.8227,178.9318,29.6453,178.3086,40.468,179.5536,51.2906,179,62.1133,179,61.483,169.6667,61.9155,160.3333,62.5452,151,62.0275,141.6667,62.1815,132.3333,62.0813,123,62.1133,123.1785,62.1133,123.2391,51.2906,123.5857,40.468,123.6711,29.6453,123.6793,18.8227,123,8" style="stroke: #A9A9A9; stroke-width: 3.0;"/><text fill="#A9A9A9" font-family="courier" font-size="20" font-weight="bold" lengthAdjust="spacingAndGlyphs" textLength="48" x="127" y="34.1074">Bean</text><path d="M124,46.1133 L124,46.3935 L134.8,45.5609 L145.6,46.371 L156.4,46.6462 L167.2,45.1621 L178,46.1133 " fill="#222222" style="stroke: #A9A9A9; stroke-width: 3.0;"/><path d="M124,54.1133 L124,54.3935 L134.8,53.5609 L145.6,54.371 L156.4,54.6462 L167.2,53.1621 L178,54.1133 " fill="#222222" style="stroke: #A9A9A9; stroke-width: 3.0;"/><!--class Modelo--><polygon fill="#222222" points="6,152,6,152.2102,16,151.5857,26,152.1933,36,152.3997,46,151.2866,56,151.9223,66,151.5735,76,151.6165,86,152,85.9318,152,85.3086,162.8227,86.5536,173.6453,85.3697,184.468,85.8022,195.2906,86,206.1133,86,206.5452,76,206.0275,66,206.1815,56,206.0813,46,206.2918,36,206.3524,26,206.699,16,206.7843,6,206.1133,6.6793,206.1133,6.2546,195.2906,6.4636,184.468,6.7022,173.6453,5.2788,162.8227,6,152" style="stroke: #A9A9A9; stroke-width: 3.0;"/><text fill="#A9A9A9" font-family="courier" font-size="20" font-weight="bold" lengthAdjust="spacingAndGlyphs" textLength="72" x="10" y="178.1074">Modelo</text><path d="M7,190.1133 L7,190.3935 L16.75,189.5609 L26.5,190.371 L36.25,190.6462 L46,189.1621 L55.75,190.0097 L65.5,189.5446 L75.25,189.6019 L85,190.1133 " fill="#222222" style="stroke: #A9A9A9; stroke-width: 3.0;"/><path d="M7,198.1133 L7,198.3935 L16.75,197.5609 L26.5,198.371 L36.25,198.6462 L46,197.1621 L55.75,198.0097 L65.5,197.5446 L75.25,197.6019 L85,198.1133 " fill="#222222" style="stroke: #A9A9A9; stroke-width: 3.0;"/><!--class JavaServerPage--><polygon fill="#222222" points="121,152,121,152.2102,130.7778,151.5857,140.5556,152.1933,150.3333,152.3997,160.1111,151.2866,169.8889,151.9223,179.6667,151.5735,189.4444,151.6165,199.2222,151.9318,209,151.3086,218.7778,152.5536,228.5556,151.3697,238.3333,151.8022,248.1111,152.4319,257.8889,151.9142,267.6667,152.0682,277.4444,151.9681,287.2222,152.1785,297,152,297.2391,152,297.5857,162.8227,297.6711,173.6453,297.6793,184.468,297.2546,195.2906,297,206.1133,297,206.5769,287.2222,206.8155,277.4444,205.3921,267.6667,206.7918,257.8889,205.8168,248.1111,206.6471,238.3333,205.6183,228.5556,206.0448,218.7778,206.8549,209,206.0645,199.2222,206.2186,189.4444,206.4519,179.6667,206.5295,169.8889,206.1094,160.1111,206.4005,150.3333,205.5409,140.5556,206.3977,130.7778,206.6615,121,206.1133,121.4445,206.1133,121.613,195.2906,120.5169,184.468,120.3478,173.6453,120.3786,162.8227,121,152" style="stroke: #A9A9A9; stroke-width: 3.0;"/><text fill="#A9A9A9" font-family="courier" font-size="20" font-weight="bold" lengthAdjust="spacingAndGlyphs" textLength="168" x="125" y="178.1074">JavaServerPage</text><path d="M122,190.1133 L122,190.3935 L132.2353,189.5609 L142.4706,190.371 L152.7059,190.6462 L162.9412,189.1621 L173.1765,190.0097 L183.4118,189.5446 L193.6471,189.6019 L203.8824,190.0224 L214.1176,189.1915 L224.3529,190.8515 L234.5882,189.2729 L244.8235,189.8496 L255.0588,190.6892 L265.2941,189.9989 L275.5294,190.2043 L285.7647,190.0707 L296,190.1133 " fill="#222222" style="stroke: #A9A9A9; stroke-width: 3.0;"/><path d="M122,198.1133 L122,198.3935 L132.2353,197.5609 L142.4706,198.371 L152.7059,198.6462 L162.9412,197.1621 L173.1765,198.0097 L183.4118,197.5446 L193.6471,197.6019 L203.8824,198.0224 L214.1176,197.1915 L224.3529,198.8515 L234.5882,197.2729 L244.8235,197.8496 L255.0588,198.6892 L265.2941,197.9989 L275.5294,198.2043 L285.7647,198.0707 L296,198.1133 " fill="#222222" style="stroke: #A9A9A9; stroke-width: 3.0;"/><!--class Request--><polygon fill="#222222" points="214,8,214,8.2102,224.2222,7.5857,234.4444,8.1933,244.6667,8.3997,254.8889,7.2866,265.1111,7.9223,275.3333,7.5735,285.5556,7.6165,295.7778,7.9318,306,8,305.3086,8,306.5536,18.8227,305.3697,29.6453,305.8022,40.468,306.4319,51.2906,306,62.1133,306,62.0275,295.7778,62.1815,285.5556,62.0813,275.3333,62.2918,265.1111,62.3524,254.8889,62.699,244.6667,62.7843,234.4444,62.7925,224.2222,62.3679,214,62.1133,214.4636,62.1133,214.7022,51.2906,213.2788,40.468,214.6785,29.6453,213.7035,18.8227,214,8" style="stroke: #A9A9A9; stroke-width: 3.0;"/><text fill="#A9A9A9" font-family="courier" font-size="20" font-weight="bold" lengthAdjust="spacingAndGlyphs" textLength="84" x="218" y="34.1074">Request</text><path d="M215,46.1133 L215,46.3935 L225,45.5609 L235,46.371 L245,46.6462 L255,45.1621 L265,46.0097 L275,45.5446 L285,45.6019 L295,46.0224 L305,46.1133 " fill="#222222" style="stroke: #A9A9A9; stroke-width: 3.0;"/><path d="M215,54.1133 L215,54.3935 L225,53.5609 L235,54.371 L245,54.6462 L255,53.1621 L265,54.0097 L275,53.5446 L285,53.6019 L295,54.0224 L305,54.1133 " fill="#222222" style="stroke: #A9A9A9; stroke-width: 3.0;"/><!--link Bean to Request--><path d="M179.1,35 L179.1,35.0934 L185.02,34.8159 L190.94,35.0859 L196.86,35.1776 L202.78,34.6829 L208.7,35 " fill="none" style="stroke: #A9A9A9; stroke-width: 2.0;"/><polygon fill="#A9A9A9" points="213.86,35,213.8885,35.064,212.0039,34.0738,210.2862,33.4589,208.5141,32.7217,206.5634,31.5827,204.86,31,204.8417,30.9817,205.5595,31.6995,206.3696,32.5096,207.2439,33.3839,207.897,34.037,208.86,35,208.9905,35.1305,207.9114,35.6514,207.2134,36.5534,206.5618,37.5018,205.6398,38.1798,204.86,39,204.8692,39.0208,206.6557,38.1903,208.4842,37.4544,210.2924,36.6728,212.1393,35.9784,213.86,35" style="stroke: #A9A9A9; stroke-width: 2.0;"/><!--link Bean to JavaServerPage--><path d="M155.45,62.31 L155.5413,62.3299 L155.8776,65.064 L156.7489,67.9146 L157.4461,70.7272 L157.5702,73.4152 L158.4875,76.2758 L158.454,76.2672 L159.0854,79.2687 L159.8854,82.3135 L160.8027,85.3885 L161.3159,88.3597 L162.395,91.4763 L162.63,91.5492 L163.092,94.5012 L164.2401,97.6661 L165.4719,100.8571 L166.2166,103.8968 L167.2175,107.0161 L167.2458,107.027 L168.3608,110.0078 L169.6045,113.0382 L170.7862,116.0447 L172.0864,119.0969 L173,122 L173.2671,122.1327 L174.5636,124.7373 L175.6878,127.2564 L177.0643,129.9007 L178.4525,132.5509 L179.4663,135.015 L179.1908,134.851 L181.2181,137.6763 L182.3385,139.9616 L184.1483,142.6574 L185.2482,144.9304 L186.93,147.55 " fill="none" style="stroke: #A9A9A9; stroke-width: 2.0;"/><polygon fill="#A9A9A9" points="189.77,151.92,189.8392,151.931,189.3255,149.9529,189.2174,148.039,188.9772,146.1043,188.3026,144.1007,188.2294,142.1924,188.2041,142.187,187.8544,143.2692,187.6324,144.3787,187.4993,145.5071,187.0602,146.5703,187.0496,147.7248,187.0881,147.9053,185.8993,147.2834,184.8229,147.1884,183.7601,147.1578,182.6177,146.753,181.5171,146.545,181.5295,146.5641,183.1619,147.6111,184.8508,148.7449,186.5124,149.8368,188.226,151.0086,189.77,151.92" style="stroke: #A9A9A9; stroke-width: 2.0;"/><!--link JavaServerPage to Bean--><path d="M198.23,151.64 L198.4894,151.746 L193.8764,142.0234 L190.7841,132.9219 L187.1967,123.6182 L181.9805,113.6493 L178.923,104.5619 L174.6502,94.9783 L170.8611,85.5922 L167.4081,76.3434 L163.65,66.97 " fill="none" style="stroke: #A9A9A9; stroke-width: 2.0;"/><polygon fill="#A9A9A9" points="161.64,62.04,161.71,62.042,161.4454,64.005,161.5913,65.9798,161.6036,67.9507,161.1762,69.909,161.3573,71.8848,161.3334,71.8748,161.6624,70.7861,162.1119,69.7478,162.6452,68.7444,162.8898,67.6205,163.5387,66.6655,163.6099,66.8357,164.5016,66.9079,165.601,67.4772,166.7258,68.1071,167.7032,68.3842,168.7581,68.8468,168.7738,68.8633,167.3271,67.4778,165.952,66.1671,164.5423,64.8203,163.1985,63.5425,161.64,62.04" style="stroke: #A9A9A9; stroke-width: 2.0;"/><text fill="#A9A9A9" font-family="courier" font-size="20" lengthAdjust="spacingAndGlyphs" textLength="0" x="199" y="114.1074"/><!--link Bean to Modelo--><path d="M131.74,62.04 L131.9653,62.2066 L125.5631,69.4652 L120.4818,77.7005 L114.9703,85.6177 L108.0442,92.4891 L102.993,100.7466 L96.8864,108.2237 L91.1998,116.0115 L85.8051,124.0151 L79.4042,131.2747 L75.0063,140.0152 L68.68,147.33 " fill="none" style="stroke: #A9A9A9; stroke-width: 2.0;"/><polygon fill="#A9A9A9" points="65.49,151.64,65.5245,151.701,67.1359,150.549,68.9496,149.7545,70.6974,148.8435,72.2285,147.5499,74.0596,146.786,74.0558,146.7604,72.9197,146.8124,71.8028,146.9936,70.6994,147.2646,69.5497,147.2262,68.4648,147.6212,68.6473,147.6484,68.0899,146.4712,68.0655,145.3735,68.106,144.2855,67.7683,143.1411,67.6295,142.0263,67.6517,142.0313,67.1912,143.9468,66.8318,145.8847,66.4236,147.8119,66.1085,149.7597,65.49,151.64" style="stroke: #A9A9A9; stroke-width: 2.0;"/><!--
@startuml
allowmixing
skinparam backgroundColor #222222
skinparam handwritten true
hide circle
hide stereotype
skinparam shadowing false
skinparam padding 1
skinparam arrow {
    Thickness 2
    Color #DarkGrey
    FontSize 20
    FontName courier
    FontStyle normal
    FontColor #DarkGrey
}
skinparam class {
    BorderThickness 3
    BorderColor #DarkGrey
    BackgroundColor #222222
    FontSize 20
    FontName courier
    FontStyle bold
    FontColor #DarkGrey
}
class Bean <<Controlador>>
class Modelo <<Modelo>>
class JavaServerPage <<Vista>>
class Request <<Evento>>

Bean -right-> Request
Bean - -> JavaServerPage
Bean - -> Modelo
JavaServerPage - -> Bean : " "
@enduml

PlantUML version 1.2019.05(Sat Apr 20 18:45:36 CEST 2019)
(GPL source distribution)
Java Runtime: Java(TM) SE Runtime Environment
JVM: Java HotSpot(TM) 64-Bit Server VM
Java Version: 11.0.14+8-LTS-263
Operating System: Windows 10
OS Version: 10.0
Default Encoding: windows-1252
Language: es
Country: ES
--></g></svg>