<?xml version="1.0" encoding="UTF-8" standalone="no"?><svg xmlns="http://www.w3.org/2000/svg" xmlns:xlink="http://www.w3.org/1999/xlink" contentScriptType="application/ecmascript" contentStyleType="text/css" height="588px" preserveAspectRatio="none" style="width:476px;height:588px;background:#222222;" version="1.1" viewBox="0 0 476 588" width="476px" zoomAndPan="magnify"><defs/><g><polygon fill="#222222" points="128,140.2266,128,140.2966,130,140.0885,132,140.291,134,140.3598,136,139.9888,138,140.2266,137.9741,140.2266,137.8578,148.6492,137.8722,157.0719,137.9773,165.4945,137.7695,173.9172,138,182.3398,138,182.5244,136,182.1298,134,182.2739,132,182.4838,130,182.3113,128,182.3398,128.0227,182.3398,127.9894,173.9172,128.0595,165.4945,128.0797,157.0719,128.1952,148.6492,128,140.2266" style="stroke: #A9A9A9; stroke-width: 1.0;"/><polygon fill="#222222" points="128,294.7539,128,294.824,130,294.6158,132,294.8183,134,294.8871,136,294.5161,138,294.7539,137.9741,294.7539,137.8578,303.1766,137.8722,311.5992,137.9773,320.0219,137.7695,328.4445,138,336.8672,138,337.0517,136,336.6571,134,336.8013,132,337.0112,130,336.8386,128,336.8672,128.0227,336.8672,127.9894,328.4445,128.0595,320.0219,128.0797,311.5992,128.1952,303.1766,128,294.7539" style="stroke: #A9A9A9; stroke-width: 1.0;"/><polygon fill="#222222" points="128,350.8672,128,350.9372,130,350.7291,132,350.9316,134,351.0004,136,350.6294,138,350.8672,137.9741,350.8672,137.8578,353.6672,137.8722,356.4672,137.9773,359.2672,137.7695,362.0672,138,364.8672,138,365.0517,136,364.6571,134,364.8013,132,365.0112,130,364.8386,128,364.8672,128.0227,364.8672,127.9894,362.0672,128.0595,359.2672,128.0797,356.4672,128.1952,353.6672,128,350.8672" style="stroke: #A9A9A9; stroke-width: 1.0;"/><polygon fill="#222222" points="128,427.9805,128,428.0505,130,427.8424,132,428.0449,134,428.1137,136,427.7427,138,427.9805,137.9741,427.9805,137.8578,430.7805,137.8722,433.5805,137.9773,436.3805,137.7695,439.1805,138,441.9805,138,442.165,136,441.7704,134,441.9145,132,442.1245,130,441.9519,128,441.9805,128.0227,441.9805,127.9894,439.1805,128.0595,436.3805,128.0797,433.5805,128.1952,430.7805,128,427.9805" style="stroke: #A9A9A9; stroke-width: 1.0;"/><polygon fill="#222222" points="128,455.9805,128,456.0505,130,455.8424,132,456.0449,134,456.1137,136,455.7427,138,455.9805,137.9741,455.9805,137.8578,458.7805,137.8722,461.5805,137.9773,464.3805,137.7695,467.1805,138,469.9805,138,470.165,136,469.7704,134,469.9145,132,470.1245,130,469.9519,128,469.9805,128.0227,469.9805,127.9894,467.1805,128.0595,464.3805,128.0797,461.5805,128.1952,458.7805,128,455.9805" style="stroke: #A9A9A9; stroke-width: 1.0;"/><polygon fill="#222222" points="267,182.3398,267,182.4099,269,182.2017,271,182.4043,273,182.4731,275,182.102,277,182.3398,276.9741,182.3398,276.8578,190.7625,276.8722,199.1852,276.9773,207.6078,276.7695,216.0305,277,224.4531,277,224.6377,275,224.243,273,224.3872,271,224.5971,269,224.4245,267,224.4531,267.0227,224.4531,266.9894,216.0305,267.0595,207.6078,267.0797,199.1852,267.1952,190.7625,267,182.3398" style="stroke: #A9A9A9; stroke-width: 1.0;"/><polygon fill="#222222" points="267,385.8672,267,385.9372,269,385.7291,271,385.9316,273,386.0004,275,385.6294,277,385.8672,276.9741,385.8672,276.8578,394.2898,276.8722,402.7125,276.9773,411.1352,276.7695,419.5578,277,427.9805,277,428.165,275,427.7704,273,427.9145,271,428.1245,269,427.9519,267,427.9805,267.0227,427.9805,266.9894,419.5578,267.0595,411.1352,267.0797,402.7125,267.1952,394.2898,267,385.8672" style="stroke: #A9A9A9; stroke-width: 1.0;"/><polygon fill="#222222" points="267,441.9805,267,442.0505,269,441.8424,271,442.0449,273,442.1137,275,441.7427,277,441.9805,276.9741,441.9805,276.8578,444.7805,276.8722,447.5805,276.9773,450.3805,276.7695,453.1805,277,455.9805,277,456.165,275,455.7704,273,455.9145,271,456.1245,269,455.9519,267,455.9805,267.0227,455.9805,266.9894,453.1805,267.0595,450.3805,267.0797,447.5805,267.1952,444.7805,267,441.9805" style="stroke: #A9A9A9; stroke-width: 1.0;"/><polygon fill="#222222" points="406,224.4531,406,224.5232,408,224.315,410,224.5176,412,224.5864,414,224.2153,416,224.4531,415.9223,224.4531,415.5735,234.4961,415.6165,244.5391,415.9318,254.582,415.3086,264.625,416.5536,274.668,415.3697,284.7109,416,294.7539,416,294.688,414,294.8979,412,294.7253,410,294.7767,408,294.7433,406,294.7539,406.1785,294.7539,406.2391,284.7109,406.5857,274.668,406.6711,264.625,406.6793,254.582,406.2546,244.5391,406.4636,234.4961,406,224.4531" style="stroke: #A9A9A9; stroke-width: 1.0;"/><polygon fill="#222222" points="406,336.8672,406,336.9372,408,336.7291,410,336.9316,412,337.0004,414,336.6294,416,336.8672,415.9741,336.8672,415.8578,339.6672,415.8722,342.4672,415.9773,345.2672,415.7695,348.0672,416,350.8672,416,351.0517,414,350.6571,412,350.8013,410,351.0112,408,350.8386,406,350.8672,406.0227,350.8672,405.9894,348.0672,406.0595,345.2672,406.0797,342.4672,406.1952,339.6672,406,336.8672" style="stroke: #A9A9A9; stroke-width: 1.0;"/><polygon fill="#222222" points="406,364.8672,406,364.9372,408,364.7291,410,364.9316,412,365.0004,414,364.6294,416,364.8672,415.9741,364.8672,415.8578,369.0672,415.8722,373.2672,415.9773,377.4672,415.7695,381.6672,416,385.8672,416,386.0517,414,385.6571,412,385.8013,410,386.0112,408,385.8386,406,385.8672,406.0227,385.8672,405.9894,381.6672,406.0595,377.4672,406.0797,373.2672,406.1952,369.0672,406,364.8672" style="stroke: #A9A9A9; stroke-width: 1.0;"/><polygon fill="#222222" points="85,239.4531,85,239.6633,95,239.0388,105,239.6464,115,239.8528,125,238.7397,135,239.3754,145,239.0266,155,239.0696,165,239.385,175,238.7618,185,240.0068,195,238.8228,205,239.2554,215,239.8851,225,239.3673,235,239.5214,245,239.4212,255,239.6317,265,239.6923,275,240.0388,285,240.1242,295,240.1324,305,239.7078,315,239.9167,325,240.1554,335,238.7319,345,240.1316,355,239.1566,365,239.9869,375,238.9581,385,239.3846,395,240.1947,405,239.4044,415,239.5584,425,239.7918,435,239.8694,445,239.4492,455,239.7403,465,239.4531,464.4276,239.4531,465.2844,249.7157,465.5482,259.9784,465.4445,270.241,465.613,280.5036,464.5169,290.7662,464.3478,301.0288,464.3786,311.2915,464.9411,321.5541,464.8035,331.8167,465.6814,342.0793,464.8253,352.3419,464.6569,362.6046,465,372.8672,465,373.0955,455,372.2003,445,372.3481,435,373.5161,425,373.3029,415,373.6017,405,372.5454,395,373.1864,385,373.4576,375,372.3948,365,372.7713,355,372.9932,345,373.5189,335,372.863,325,373.3298,315,372.3134,305,372.1899,295,373.3708,285,372.1502,275,373.3761,265,373.0738,255,372.5993,245,372.5134,235,373.3259,225,372.5679,215,373.459,205,372.3144,195,373.4846,185,373.3515,175,373.1122,165,372.9144,155,373.5938,145,373.4808,135,373.0364,125,373.1354,115,372.7369,105,373.5836,95,373.0221,85,372.8672,85.1726,372.8672,84.3916,362.6046,84.5948,352.3419,85.5307,342.0793,85.4298,331.8167,84.9571,321.5541,84.6778,311.2915,84.7811,301.0288,84.3138,290.7662,85.4147,280.5036,85.7396,270.241,85.5264,259.9784,85.6949,249.7157,85,239.4531" style="stroke: #A9A9A9; stroke-width: 2.0;"/><path d="M42,96.1133 L42.2802,96.1133 L41.4476,106.1612 L42.2577,116.209 L42.5329,126.2569 L41.0488,136.3048 L41.8964,146.3527 L41.4313,156.4005 L41.4887,166.4484 L41.9091,176.4963 L41.0782,186.5442 L42.7382,196.592 L41.1596,206.6399 L41.7363,216.6878 L42.5759,226.7357 L41.8856,236.7836 L42.091,246.8314 L41.9574,256.8793 L42.238,266.9272 L42.3188,276.9751 L42.7809,287.0229 L42.8947,297.0708 L42.9057,307.1187 L42.3395,317.1666 L42.6181,327.2144 L42.9363,337.2623 L41.0384,347.3102 L42.9047,357.3581 L41.6047,367.4059 L42.7117,377.4538 L41.34,387.5017 L41.9087,397.5496 L42.9888,407.5975 L41.935,417.6453 L42.1404,427.6932 L42.4515,437.7411 L42.555,447.789 L41.9948,457.8368 L42.383,467.8847 L41.2368,477.9326 L42,487.9805 " fill="none" style="stroke: #A9A9A9; stroke-width: 1.0; stroke-dasharray: 5.0,5.0;"/><path d="M133,96.1133 L133.2802,96.1133 L132.4476,106.1612 L133.2577,116.209 L133.5329,126.2569 L132.0488,136.3048 L132.8964,146.3527 L132.4313,156.4005 L132.4887,166.4484 L132.9091,176.4963 L132.0782,186.5442 L133.7382,196.592 L132.1596,206.6399 L132.7363,216.6878 L133.5759,226.7357 L132.8856,236.7836 L133.091,246.8314 L132.9574,256.8793 L133.238,266.9272 L133.3188,276.9751 L133.7809,287.0229 L133.8947,297.0708 L133.9057,307.1187 L133.3395,317.1666 L133.6181,327.2144 L133.9363,337.2623 L132.0384,347.3102 L133.9047,357.3581 L132.6047,367.4059 L133.7117,377.4538 L132.34,387.5017 L132.9087,397.5496 L133.9888,407.5975 L132.935,417.6453 L133.1404,427.6932 L133.4515,437.7411 L133.555,447.789 L132.9948,457.8368 L133.383,467.8847 L132.2368,477.9326 L133,487.9805 " fill="none" style="stroke: #A9A9A9; stroke-width: 1.0; stroke-dasharray: 5.0,5.0;"/><path d="M272,96.1133 L272.2802,96.1133 L271.4476,106.1612 L272.2577,116.209 L272.5329,126.2569 L271.0488,136.3048 L271.8964,146.3527 L271.4313,156.4005 L271.4887,166.4484 L271.9091,176.4963 L271.0782,186.5442 L272.7382,196.592 L271.1596,206.6399 L271.7363,216.6878 L272.5759,226.7357 L271.8856,236.7836 L272.091,246.8314 L271.9574,256.8793 L272.238,266.9272 L272.3188,276.9751 L272.7809,287.0229 L272.8947,297.0708 L272.9057,307.1187 L272.3395,317.1666 L272.6181,327.2144 L272.9363,337.2623 L271.0384,347.3102 L272.9047,357.3581 L271.6047,367.4059 L272.7117,377.4538 L271.34,387.5017 L271.9087,397.5496 L272.9888,407.5975 L271.935,417.6453 L272.1404,427.6932 L272.4515,437.7411 L272.555,447.789 L271.9948,457.8368 L272.383,467.8847 L271.2368,477.9326 L272,487.9805 " fill="none" style="stroke: #A9A9A9; stroke-width: 1.0; stroke-dasharray: 5.0,5.0;"/><path d="M411,96.1133 L411.2802,96.1133 L410.4476,106.1612 L411.2577,116.209 L411.5329,126.2569 L410.0488,136.3048 L410.8964,146.3527 L410.4313,156.4005 L410.4887,166.4484 L410.9091,176.4963 L410.0782,186.5442 L411.7382,196.592 L410.1596,206.6399 L410.7363,216.6878 L411.5759,226.7357 L410.8856,236.7836 L411.091,246.8314 L410.9574,256.8793 L411.238,266.9272 L411.3188,276.9751 L411.7809,287.0229 L411.8947,297.0708 L411.9057,307.1187 L411.3395,317.1666 L411.6181,327.2144 L411.9363,337.2623 L410.0384,347.3102 L411.9047,357.3581 L410.6047,367.4059 L411.7117,377.4538 L410.34,387.5017 L410.9087,397.5496 L411.9888,407.5975 L410.935,417.6453 L411.1404,427.6932 L411.4515,437.7411 L411.555,447.789 L410.9948,457.8368 L411.383,467.8847 L410.2368,477.9326 L411,487.9805 " fill="none" style="stroke: #A9A9A9; stroke-width: 1.0; stroke-dasharray: 5.0,5.0;"/><text fill="#A9A9A9" font-family="courier" font-size="20" font-weight="bold" lengthAdjust="spacingAndGlyphs" textLength="60" x="9" y="89.1074">Actor</text><polygon fill="#222222" points="50.0442,15.9459,48.8715,17.5482,47.4845,19.8951,45.5008,21.4767,43.4163,22.3415,41.7542,22.4166,39.618,21.3349,37.6023,20.6283,36.0724,19.1936,35.2699,17.5511,34.7939,16.2433,34.3277,14.5351,33.5709,13.0651,34.1525,11.6298,34.662,10.0576,36.574,8.8142,37.9192,7.2008,39.5843,6.665,41.5637,6.2037,44.1021,6.4778,45.4924,7.1335,47.1089,7.4307,49.0743,9.4443,49.7595,11.5701,50.0571,13.0206,49.72,15.4108" style="stroke: #A9A9A9; stroke-width: 3.0;"/><path d="M42,22 L42.1868,22 L41.6317,27.4 L42.1718,32.8 L42.3553,38.2 L41.3659,43.6 L42,49 M29,30 L29,29.9309 L34.2,29.6209 L39.4,29.6591 L44.6,29.9394 L49.8,29.3854 L55,30 M42,49 L42.3719,49.3223 L38.9766,51.6331 L36.6672,54.8849 L34.4901,58.2515 L31.5424,60.9501 L29,64 M42,49 L42.0458,49.0397 L44.5785,51.9814 L47.3199,55.1039 L49.9606,58.1392 L52.7934,61.341 L55,64 " fill="none" style="stroke: #A9A9A9; stroke-width: 3.0;"/><text fill="#A9A9A9" font-family="courier" font-size="20" font-weight="bold" lengthAdjust="spacingAndGlyphs" textLength="60" x="9" y="508.0879">Actor</text><polygon fill="#222222" points="50.0442,528.0397,48.8715,529.642,47.4845,531.9888,45.5008,533.5704,43.4163,534.4353,41.7542,534.5103,39.618,533.4287,37.6023,532.7221,36.0724,531.2873,35.2699,529.6449,34.7939,528.337,34.3277,526.6288,33.5709,525.1588,34.1525,523.7236,34.662,522.1514,36.574,520.9079,37.9192,519.2945,39.5843,518.7588,41.5637,518.2974,44.1021,518.5715,45.4924,519.2272,47.1089,519.5244,49.0743,521.5381,49.7595,523.6639,50.0571,525.1144,49.72,527.5046" style="stroke: #A9A9A9; stroke-width: 3.0;"/><path d="M42,534.0938 L42.1868,534.0938 L41.6317,539.4938 L42.1718,544.8938 L42.3553,550.2938 L41.3659,555.6938 L42,561.0938 M29,542.0938 L29,542.0247 L34.2,541.7146 L39.4,541.7529 L44.6,542.0332 L49.8,541.4792 L55,542.0938 M42,561.0938 L42.3719,561.4161 L38.9766,563.7268 L36.6672,566.9786 L34.4901,570.3452 L31.5424,573.0438 L29,576.0938 M42,561.0938 L42.0458,561.1335 L44.5785,564.0752 L47.3199,567.1977 L49.9606,570.233 L52.7934,573.4347 L55,576.0938 " fill="none" style="stroke: #A9A9A9; stroke-width: 3.0;"/><polygon fill="#222222" points="95,53,95,53.2102,104.5,52.5857,114,53.1933,123.5,53.3997,133,52.2866,142.5,52.9223,152,52.5735,161.5,52.6165,171,53,170.9773,53,170.7695,61.4227,171.1845,69.8453,170.7899,78.268,170.9341,86.6906,171,95.1133,171,95.5452,161.5,95.0275,152,95.1815,142.5,95.0813,133,95.2918,123.5,95.3524,114,95.699,104.5,95.7843,95,95.1133,95.2264,95.1133,95.0849,86.6906,95.1545,78.268,95.2341,69.8453,94.7596,61.4227,95,53" style="stroke: #A9A9A9; stroke-width: 3.0;"/><text fill="#A9A9A9" font-family="courier" font-size="20" font-weight="bold" lengthAdjust="spacingAndGlyphs" textLength="60" x="103" y="81.1074">Vista</text><polygon fill="#222222" points="95,486.9805,95,487.1907,104.5,486.5661,114,487.1738,123.5,487.3801,133,486.2671,142.5,486.9028,152,486.554,161.5,486.597,171,486.9805,170.9773,486.9805,170.7695,495.4031,171.1845,503.8258,170.7899,512.2484,170.9341,520.6711,171,529.0938,171,529.5257,161.5,529.008,152,529.162,142.5,529.0618,133,529.2723,123.5,529.3329,114,529.6794,104.5,529.7648,95,529.0938,95.2264,529.0938,95.0849,520.6711,95.1545,512.2484,95.2341,503.8258,94.7596,495.4031,95,486.9805" style="stroke: #A9A9A9; stroke-width: 3.0;"/><text fill="#A9A9A9" font-family="courier" font-size="20" font-weight="bold" lengthAdjust="spacingAndGlyphs" textLength="60" x="103" y="515.0879">Vista</text><polygon fill="#222222" points="198,53,198,53.2102,207.8667,52.5857,217.7333,53.1933,227.6,53.3997,237.4667,52.2866,247.3333,52.9223,257.2,52.5735,267.0667,52.6165,276.9333,52.9318,286.8,52.3086,296.6667,53.5536,306.5333,52.3697,316.4,52.8022,326.2667,53.4319,336.1333,52.9142,346,53,346.0227,53,345.9894,61.4227,346.0595,69.8453,346.0797,78.268,346.1952,86.6906,346,95.1133,346,95.7843,336.1333,95.7925,326.2667,95.3679,316.4,95.5769,306.5333,95.8155,296.6667,94.3921,286.8,95.7918,276.9333,94.8168,267.0667,95.6471,257.2,94.6183,247.3333,95.0448,237.4667,95.8549,227.6,95.0645,217.7333,95.2186,207.8667,95.4519,198,95.1133,198.1387,95.1133,197.9987,86.6906,198.0957,78.268,197.8092,69.8453,198.0948,61.4227,198,53" style="stroke: #A9A9A9; stroke-width: 3.0;"/><text fill="#A9A9A9" font-family="courier" font-size="20" font-weight="bold" lengthAdjust="spacingAndGlyphs" textLength="132" x="206" y="81.1074">Presentador</text><polygon fill="#222222" points="198,486.9805,198,487.1907,207.8667,486.5661,217.7333,487.1738,227.6,487.3801,237.4667,486.2671,247.3333,486.9028,257.2,486.554,267.0667,486.597,276.9333,486.9123,286.8,486.2891,296.6667,487.5341,306.5333,486.3502,316.4,486.7827,326.2667,487.4124,336.1333,486.8947,346,486.9805,346.0227,486.9805,345.9894,495.4031,346.0595,503.8258,346.0797,512.2484,346.1952,520.6711,346,529.0938,346,529.7648,336.1333,529.773,326.2667,529.3484,316.4,529.5573,306.5333,529.796,296.6667,528.3726,286.8,529.7723,276.9333,528.7972,267.0667,529.6276,257.2,528.5987,247.3333,529.0253,237.4667,529.8354,227.6,529.045,217.7333,529.1991,207.8667,529.4324,198,529.0938,198.1387,529.0938,197.9987,520.6711,198.0957,512.2484,197.8092,503.8258,198.0948,495.4031,198,486.9805" style="stroke: #A9A9A9; stroke-width: 3.0;"/><text fill="#A9A9A9" font-family="courier" font-size="20" font-weight="bold" lengthAdjust="spacingAndGlyphs" textLength="132" x="206" y="515.0879">Presentador</text><polygon fill="#222222" points="367,53,367,53.2102,376.7778,52.5857,386.5556,53.1933,396.3333,53.3997,406.1111,52.2866,415.8889,52.9223,425.6667,52.5735,435.4444,52.6165,445.2222,52.9318,455,53,454.7695,53,455.1845,61.4227,454.7899,69.8453,454.9341,78.268,455.144,86.6906,455,95.1133,455,95.0275,445.2222,95.1815,435.4444,95.0813,425.6667,95.2918,415.8889,95.3524,406.1111,95.699,396.3333,95.7843,386.5556,95.7925,376.7778,95.3679,367,95.1133,367.1545,95.1133,367.2341,86.6906,366.7596,78.268,367.2262,69.8453,366.9012,61.4227,367,53" style="stroke: #A9A9A9; stroke-width: 3.0;"/><text fill="#A9A9A9" font-family="courier" font-size="20" font-weight="bold" lengthAdjust="spacingAndGlyphs" textLength="72" x="375" y="81.1074">Modelo</text><polygon fill="#222222" points="367,486.9805,367,487.1907,376.7778,486.5661,386.5556,487.1738,396.3333,487.3801,406.1111,486.2671,415.8889,486.9028,425.6667,486.554,435.4444,486.597,445.2222,486.9123,455,486.9805,454.7695,486.9805,455.1845,495.4031,454.7899,503.8258,454.9341,512.2484,455.144,520.6711,455,529.0938,455,529.008,445.2222,529.162,435.4444,529.0618,425.6667,529.2723,415.8889,529.3329,406.1111,529.6794,396.3333,529.7648,386.5556,529.773,376.7778,529.3484,367,529.0938,367.1545,529.0938,367.2341,520.6711,366.7596,512.2484,367.2262,503.8258,366.9012,495.4031,367,486.9805" style="stroke: #A9A9A9; stroke-width: 3.0;"/><text fill="#A9A9A9" font-family="courier" font-size="20" font-weight="bold" lengthAdjust="spacingAndGlyphs" textLength="72" x="375" y="515.0879">Modelo</text><polygon fill="#222222" points="128,140.2266,128,140.2966,130,140.0885,132,140.291,134,140.3598,136,139.9888,138,140.2266,137.9741,140.2266,137.8578,148.6492,137.8722,157.0719,137.9773,165.4945,137.7695,173.9172,138,182.3398,138,182.5244,136,182.1298,134,182.2739,132,182.4838,130,182.3113,128,182.3398,128.0227,182.3398,127.9894,173.9172,128.0595,165.4945,128.0797,157.0719,128.1952,148.6492,128,140.2266" style="stroke: #A9A9A9; stroke-width: 1.0;"/><polygon fill="#222222" points="128,294.7539,128,294.824,130,294.6158,132,294.8183,134,294.8871,136,294.5161,138,294.7539,137.9741,294.7539,137.8578,303.1766,137.8722,311.5992,137.9773,320.0219,137.7695,328.4445,138,336.8672,138,337.0517,136,336.6571,134,336.8013,132,337.0112,130,336.8386,128,336.8672,128.0227,336.8672,127.9894,328.4445,128.0595,320.0219,128.0797,311.5992,128.1952,303.1766,128,294.7539" style="stroke: #A9A9A9; stroke-width: 1.0;"/><polygon fill="#222222" points="128,350.8672,128,350.9372,130,350.7291,132,350.9316,134,351.0004,136,350.6294,138,350.8672,137.9741,350.8672,137.8578,353.6672,137.8722,356.4672,137.9773,359.2672,137.7695,362.0672,138,364.8672,138,365.0517,136,364.6571,134,364.8013,132,365.0112,130,364.8386,128,364.8672,128.0227,364.8672,127.9894,362.0672,128.0595,359.2672,128.0797,356.4672,128.1952,353.6672,128,350.8672" style="stroke: #A9A9A9; stroke-width: 1.0;"/><polygon fill="#222222" points="128,427.9805,128,428.0505,130,427.8424,132,428.0449,134,428.1137,136,427.7427,138,427.9805,137.9741,427.9805,137.8578,430.7805,137.8722,433.5805,137.9773,436.3805,137.7695,439.1805,138,441.9805,138,442.165,136,441.7704,134,441.9145,132,442.1245,130,441.9519,128,441.9805,128.0227,441.9805,127.9894,439.1805,128.0595,436.3805,128.0797,433.5805,128.1952,430.7805,128,427.9805" style="stroke: #A9A9A9; stroke-width: 1.0;"/><polygon fill="#222222" points="128,455.9805,128,456.0505,130,455.8424,132,456.0449,134,456.1137,136,455.7427,138,455.9805,137.9741,455.9805,137.8578,458.7805,137.8722,461.5805,137.9773,464.3805,137.7695,467.1805,138,469.9805,138,470.165,136,469.7704,134,469.9145,132,470.1245,130,469.9519,128,469.9805,128.0227,469.9805,127.9894,467.1805,128.0595,464.3805,128.0797,461.5805,128.1952,458.7805,128,455.9805" style="stroke: #A9A9A9; stroke-width: 1.0;"/><polygon fill="#222222" points="267,182.3398,267,182.4099,269,182.2017,271,182.4043,273,182.4731,275,182.102,277,182.3398,276.9741,182.3398,276.8578,190.7625,276.8722,199.1852,276.9773,207.6078,276.7695,216.0305,277,224.4531,277,224.6377,275,224.243,273,224.3872,271,224.5971,269,224.4245,267,224.4531,267.0227,224.4531,266.9894,216.0305,267.0595,207.6078,267.0797,199.1852,267.1952,190.7625,267,182.3398" style="stroke: #A9A9A9; stroke-width: 1.0;"/><polygon fill="#222222" points="267,385.8672,267,385.9372,269,385.7291,271,385.9316,273,386.0004,275,385.6294,277,385.8672,276.9741,385.8672,276.8578,394.2898,276.8722,402.7125,276.9773,411.1352,276.7695,419.5578,277,427.9805,277,428.165,275,427.7704,273,427.9145,271,428.1245,269,427.9519,267,427.9805,267.0227,427.9805,266.9894,419.5578,267.0595,411.1352,267.0797,402.7125,267.1952,394.2898,267,385.8672" style="stroke: #A9A9A9; stroke-width: 1.0;"/><polygon fill="#222222" points="267,441.9805,267,442.0505,269,441.8424,271,442.0449,273,442.1137,275,441.7427,277,441.9805,276.9741,441.9805,276.8578,444.7805,276.8722,447.5805,276.9773,450.3805,276.7695,453.1805,277,455.9805,277,456.165,275,455.7704,273,455.9145,271,456.1245,269,455.9519,267,455.9805,267.0227,455.9805,266.9894,453.1805,267.0595,450.3805,267.0797,447.5805,267.1952,444.7805,267,441.9805" style="stroke: #A9A9A9; stroke-width: 1.0;"/><polygon fill="#222222" points="406,224.4531,406,224.5232,408,224.315,410,224.5176,412,224.5864,414,224.2153,416,224.4531,415.9223,224.4531,415.5735,234.4961,415.6165,244.5391,415.9318,254.582,415.3086,264.625,416.5536,274.668,415.3697,284.7109,416,294.7539,416,294.688,414,294.8979,412,294.7253,410,294.7767,408,294.7433,406,294.7539,406.1785,294.7539,406.2391,284.7109,406.5857,274.668,406.6711,264.625,406.6793,254.582,406.2546,244.5391,406.4636,234.4961,406,224.4531" style="stroke: #A9A9A9; stroke-width: 1.0;"/><polygon fill="#222222" points="406,336.8672,406,336.9372,408,336.7291,410,336.9316,412,337.0004,414,336.6294,416,336.8672,415.9741,336.8672,415.8578,339.6672,415.8722,342.4672,415.9773,345.2672,415.7695,348.0672,416,350.8672,416,351.0517,414,350.6571,412,350.8013,410,351.0112,408,350.8386,406,350.8672,406.0227,350.8672,405.9894,348.0672,406.0595,345.2672,406.0797,342.4672,406.1952,339.6672,406,336.8672" style="stroke: #A9A9A9; stroke-width: 1.0;"/><polygon fill="#222222" points="406,364.8672,406,364.9372,408,364.7291,410,364.9316,412,365.0004,414,364.6294,416,364.8672,415.9741,364.8672,415.8578,369.0672,415.8722,373.2672,415.9773,377.4672,415.7695,381.6672,416,385.8672,416,386.0517,414,385.6571,412,385.8013,410,386.0112,408,385.8386,406,385.8672,406.0227,385.8672,405.9894,381.6672,406.0595,377.4672,406.0797,373.2672,406.1952,369.0672,406,364.8672" style="stroke: #A9A9A9; stroke-width: 1.0;"/><polygon fill="#A9A9A9" points="116,136.2266,116.026,136.2916,117.9487,136.8983,120.0239,137.8864,122.0495,138.7503,123.9117,139.2058,126,140.2266,125.9904,140.2025,123.9472,140.8946,121.9525,141.7079,119.9916,142.6055,117.9144,143.2126,116,144.2266,116.1305,144.3571,116.6514,143.278,117.5534,142.5799,118.5018,141.9284,119.1798,141.0063,120,140.2266,120.0161,140.2426,119.1925,139.419,118.4421,138.6686,117.6564,137.8829,116.938,137.1646,116,136.2266" style="stroke: #A9A9A9; stroke-width: 1.0;"/><path d="M42,140.2266 L42,140.5068 L52,139.6741 L62,140.4843 L72,140.7595 L82,139.2754 L92,140.1229 L102,139.6579 L112,139.7152 L122,140.2266 " fill="none" style="stroke: #A9A9A9; stroke-width: 2.0;"/><text fill="#A9A9A9" font-family="courier" font-size="20" lengthAdjust="spacingAndGlyphs" textLength="60" x="50" y="131.2207">set()</text><polygon fill="#A9A9A9" points="255,178.3398,255.026,178.4049,256.9487,179.0116,259.0239,179.9997,261.0495,180.8635,262.9117,181.3191,265,182.3398,264.9904,182.3158,262.9472,183.0078,260.9525,183.8212,258.9916,184.7187,256.9144,185.3259,255,186.3398,255.1305,186.4703,255.6514,185.3913,256.5534,184.6932,257.5018,184.0417,258.1798,183.1196,259,182.3398,259.0161,182.3559,258.1925,181.5323,257.4421,180.7819,256.6564,179.9962,255.938,179.2779,255,178.3398" style="stroke: #A9A9A9; stroke-width: 1.0;"/><path d="M133,182.3398 L133,182.6201 L142.8462,181.7874 L152.6923,182.5976 L162.5385,182.8727 L172.3846,181.3887 L182.2308,182.2362 L192.0769,181.7712 L201.9231,181.8285 L211.7692,182.249 L221.6154,181.418 L231.4615,183.078 L241.3077,181.4995 L251.1538,182.0762 L261,182.3398 " fill="none" style="stroke: #A9A9A9; stroke-width: 2.0;"/><text fill="#A9A9A9" font-family="courier" font-size="20" lengthAdjust="spacingAndGlyphs" textLength="72" x="141" y="173.334">evento</text><polygon fill="#A9A9A9" points="394,220.4531,394.026,220.5182,395.9487,221.1249,398.0239,222.1129,400.0495,222.9768,401.9117,223.4323,404,224.4531,403.9904,224.4291,401.9472,225.1211,399.9525,225.9344,397.9916,226.832,395.9144,227.4392,394,228.4531,394.1305,228.5836,394.6514,227.5046,395.5534,226.8065,396.5018,226.1549,397.1798,225.2329,398,224.4531,398.0161,224.4692,397.1925,223.6456,396.4421,222.8952,395.6564,222.1095,394.938,221.3912,394,220.4531" style="stroke: #A9A9A9; stroke-width: 1.0;"/><path d="M272,224.4531 L272,224.7334 L281.8462,223.9007 L291.6923,224.7108 L301.5385,224.986 L311.3846,223.5019 L321.2308,224.3495 L331.0769,223.8845 L340.9231,223.9418 L350.7692,224.3622 L360.6154,223.5313 L370.4615,225.1913 L380.3077,223.6128 L390.1538,224.1894 L400,224.4531 " fill="none" style="stroke: #A9A9A9; stroke-width: 2.0;"/><text fill="#A9A9A9" font-family="courier" font-size="20" lengthAdjust="spacingAndGlyphs" textLength="108" x="280" y="215.4473">get/set()</text><path d="M85,239.4531 L85,240.0136 L95.5,238.3483 L106,239.9686 L116.5,240.5189 L127,237.5507 L137.5,239.2459 L148,239.4531 L147.6209,239.4531 L147.6591,241.4531 L147.9394,243.4531 L147.3854,245.4531 L148.4921,247.4531 L148,249.4531 L147.6038,249.057 L145.8757,251.3288 L144.2715,253.7246 L141.9461,255.3992 L140.0429,257.496 L138,259.4531 L138,259.3679 L127.4,259.9292 L116.8,260.0908 L106.2,261.015 L95.6,261.2426 L85,259.4531 L85.6038,259.4531 L85.2263,255.4531 L85.4121,251.4531 L85.6242,247.4531 L84.3589,243.4531 L85,239.4531 " fill="#222222" style="stroke: #A9A9A9; stroke-width: 1.0;"/><polygon fill="none" points="85,239.4531,85,239.6633,95,239.0388,105,239.6464,115,239.8528,125,238.7397,135,239.3754,145,239.0266,155,239.0696,165,239.385,175,238.7618,185,240.0068,195,238.8228,205,239.2554,215,239.8851,225,239.3673,235,239.5214,245,239.4212,255,239.6317,265,239.6923,275,240.0388,285,240.1242,295,240.1324,305,239.7078,315,239.9167,325,240.1554,335,238.7319,345,240.1316,355,239.1566,365,239.9869,375,238.9581,385,239.3846,395,240.1947,405,239.4044,415,239.5584,425,239.7918,435,239.8694,445,239.4492,455,239.7403,465,239.4531,464.4276,239.4531,465.2844,249.7157,465.5482,259.9784,465.4445,270.241,465.613,280.5036,464.5169,290.7662,464.3478,301.0288,464.3786,311.2915,464.9411,321.5541,464.8035,331.8167,465.6814,342.0793,464.8253,352.3419,464.6569,362.6046,465,372.8672,465,373.0955,455,372.2003,445,372.3481,435,373.5161,425,373.3029,415,373.6017,405,372.5454,395,373.1864,385,373.4576,375,372.3948,365,372.7713,355,372.9932,345,373.5189,335,372.863,325,373.3298,315,372.3134,305,372.1899,295,373.3708,285,372.1502,275,373.3761,265,373.0738,255,372.5993,245,372.5134,235,373.3259,225,372.5679,215,373.459,205,372.3144,195,373.4846,185,373.3515,175,373.1122,165,372.9144,155,373.5938,145,373.4808,135,373.0364,125,373.1354,115,372.7369,105,373.5836,95,373.0221,85,372.8672,85.1726,372.8672,84.3916,362.6046,84.5948,352.3419,85.5307,342.0793,85.4298,331.8167,84.9571,321.5541,84.6778,311.2915,84.7811,301.0288,84.3138,290.7662,85.4147,280.5036,85.7396,270.241,85.5264,259.9784,85.6949,249.7157,85,239.4531" style="stroke: #A9A9A9; stroke-width: 2.0;"/><text fill="#A9A9A9" font-family="sans-serif" font-size="13" font-weight="bold" lengthAdjust="spacingAndGlyphs" textLength="16" x="101" y="254.9482">alt</text><text fill="#A9A9A9" font-family="sans-serif" font-size="11" font-weight="bold" lengthAdjust="spacingAndGlyphs" textLength="171" x="164" y="253.8721">[cambio de estado del modelo]</text><polygon fill="#A9A9A9" points="149,290.7539,149.026,290.819,146.9487,291.4257,145.0239,292.4137,143.0495,293.2776,140.9117,293.7331,139,294.7539,138.9904,294.7299,140.9472,295.4219,142.9525,296.2352,144.9916,297.1328,146.9144,297.7399,149,298.7539,149.1305,298.8844,148.0514,297.8053,147.3534,297.1073,146.7018,296.4557,145.7798,295.5337,145,294.7539,145.0161,294.77,145.7925,293.9464,146.6421,293.196,147.4564,292.4103,148.338,291.692,149,290.7539" style="stroke: #A9A9A9; stroke-width: 1.0;"/><path d="M143,294.7539 L143,295.0341 L152.8889,294.2015 L162.7778,295.0116 L172.6667,295.2868 L182.5556,293.8027 L192.4444,294.6503 L202.3333,294.1852 L212.2222,294.2426 L222.1111,294.663 L232,293.8321 L241.8889,295.4921 L251.7778,293.9135 L261.6667,294.4902 L271.5556,295.3298 L281.4444,294.6395 L291.3333,294.8449 L301.2222,294.7113 L311.1111,294.9919 L321,295.0728 L330.8889,295.5348 L340.7778,295.6486 L350.6667,295.6596 L360.5556,295.0934 L370.4444,295.372 L380.3333,295.6902 L390.2222,293.7923 L400.1111,295.6586 L410,294.7539 " fill="none" style="stroke: #A9A9A9; stroke-width: 2.0;"/><text fill="#A9A9A9" font-family="courier" font-size="20" lengthAdjust="spacingAndGlyphs" textLength="96" x="156" y="285.748">evento()</text><polygon fill="#A9A9A9" points="394,332.8672,394.026,332.9322,395.9487,333.539,398.0239,334.527,400.0495,335.3909,401.9117,335.8464,404,336.8672,403.9904,336.8431,401.9472,337.5352,399.9525,338.3485,397.9916,339.2461,395.9144,339.8532,394,340.8672,394.1305,340.9977,394.6514,339.9186,395.5534,339.2206,396.5018,338.569,397.1798,337.647,398,336.8672,398.0161,336.8833,397.1925,336.0597,396.4421,335.3093,395.6564,334.5236,394.938,333.8052,394,332.8672" style="stroke: #A9A9A9; stroke-width: 1.0;"/><path d="M133,336.8672 L133,337.1474 L142.8889,336.3148 L152.7778,337.1249 L162.6667,337.4001 L172.5556,335.916 L182.4444,336.7636 L192.3333,336.2985 L202.2222,336.3559 L212.1111,336.7763 L222,335.9454 L231.8889,337.6054 L241.7778,336.0268 L251.6667,336.6035 L261.5556,337.4431 L271.4444,336.7528 L281.3333,336.9582 L291.2222,336.8246 L301.1111,337.1052 L311,337.186 L320.8889,337.6481 L330.7778,337.7619 L340.6667,337.7729 L350.5556,337.2067 L360.4444,337.4853 L370.3333,337.8035 L380.2222,335.9056 L390.1111,337.7719 L400,336.8672 " fill="none" style="stroke: #A9A9A9; stroke-width: 2.0;"/><text fill="#A9A9A9" font-family="courier" font-size="20" lengthAdjust="spacingAndGlyphs" textLength="60" x="141" y="327.8613">get()</text><polygon fill="#A9A9A9" points="149,346.8672,149.026,346.9322,146.9487,347.539,145.0239,348.527,143.0495,349.3909,140.9117,349.8464,139,350.8672,138.9904,350.8431,140.9472,351.5352,142.9525,352.3485,144.9916,353.2461,146.9144,353.8532,149,354.8672,149.1305,354.9977,148.0514,353.9186,147.3534,353.2206,146.7018,352.569,145.7798,351.647,145,350.8672,145.0161,350.8833,145.7925,350.0597,146.6421,349.3093,147.4564,348.5236,148.338,347.8052,149,346.8672" style="stroke: #A9A9A9; stroke-width: 1.0;"/><path d="M143,350.8672 L143,351.1474 L152.8889,350.3148 L162.7778,351.1249 L172.6667,351.4001 L182.5556,349.916 L192.4444,350.7636 L202.3333,350.2985 L212.2222,350.3559 L222.1111,350.7763 L232,349.9454 L241.8889,351.6054 L251.7778,350.0268 L261.6667,350.6035 L271.5556,351.4431 L281.4444,350.7528 L291.3333,350.9582 L301.2222,350.8246 L311.1111,351.1052 L321,351.186 L330.8889,351.6481 L340.7778,351.7619 L350.6667,351.7729 L360.5556,351.2067 L370.4444,351.4853 L380.3333,351.8035 L390.2222,349.9056 L400.1111,351.7719 L410,350.8672 " fill="none" style="stroke: #A9A9A9; stroke-width: 2.0; stroke-dasharray: 2.0,2.0;"/><polygon fill="#A9A9A9" points="394,360.8672,394.026,360.9322,395.9487,361.539,398.0239,362.527,400.0495,363.3909,401.9117,363.8464,404,364.8672,403.9904,364.8431,401.9472,365.5352,399.9525,366.3485,397.9916,367.2461,395.9144,367.8532,394,368.8672,394.1305,368.9977,394.6514,367.9186,395.5534,367.2206,396.5018,366.569,397.1798,365.647,398,364.8672,398.0161,364.8833,397.1925,364.0597,396.4421,363.3093,395.6564,362.5236,394.938,361.8052,394,360.8672" style="stroke: #A9A9A9; stroke-width: 1.0;"/><path d="M133,364.8672 L133,365.1474 L142.8889,364.3148 L152.7778,365.1249 L162.6667,365.4001 L172.5556,363.916 L182.4444,364.7636 L192.3333,364.2985 L202.2222,364.3559 L212.1111,364.7763 L222,363.9454 L231.8889,365.6054 L241.7778,364.0268 L251.6667,364.6035 L261.5556,365.4431 L271.4444,364.7528 L281.3333,364.9582 L291.2222,364.8246 L301.1111,365.1052 L311,365.186 L320.8889,365.6481 L330.7778,365.7619 L340.6667,365.7729 L350.5556,365.2067 L360.4444,365.4853 L370.3333,365.8035 L380.2222,363.9056 L390.1111,365.7719 L400,364.8672 " fill="none" style="stroke: #A9A9A9; stroke-width: 2.0; stroke-dasharray: 2.0,2.0;"/><polygon fill="#A9A9A9" points="288,381.8672,288.026,381.9322,285.9487,382.539,284.0239,383.527,282.0495,384.3909,279.9117,384.8464,278,385.8672,277.9904,385.8431,279.9472,386.5352,281.9525,387.3485,283.9916,388.2461,285.9144,388.8532,288,389.8672,288.1305,389.9977,287.0514,388.9186,286.3534,388.2206,285.7018,387.569,284.7798,386.647,284,385.8672,284.0161,385.8833,284.7925,385.0597,285.6421,384.3093,286.4564,383.5236,287.338,382.8052,288,381.8672" style="stroke: #A9A9A9; stroke-width: 1.0;"/><path d="M282,385.8672 L282,386.1474 L291.8462,385.3148 L301.6923,386.1249 L311.5385,386.4001 L321.3846,384.916 L331.2308,385.7636 L341.0769,385.2985 L350.9231,385.3559 L360.7692,385.7763 L370.6154,384.9454 L380.4615,386.6054 L390.3077,385.0268 L400.1538,385.6035 L410,385.8672 " fill="none" style="stroke: #A9A9A9; stroke-width: 2.0; stroke-dasharray: 2.0,2.0;"/><polygon fill="#A9A9A9" points="149,423.9805,149.026,424.0455,146.9487,424.6522,145.0239,425.6403,143.0495,426.5042,140.9117,426.9597,139,427.9805,138.9904,427.9564,140.9472,428.6485,142.9525,429.4618,144.9916,430.3594,146.9144,430.9665,149,431.9805,149.1305,432.111,148.0514,431.0319,147.3534,430.3339,146.7018,429.6823,145.7798,428.7603,145,427.9805,145.0161,427.9966,145.7925,427.1729,146.6421,426.4225,147.4564,425.6368,148.338,424.9185,149,423.9805" style="stroke: #A9A9A9; stroke-width: 1.0;"/><path d="M143,427.9805 L143,428.2607 L152.8462,427.428 L162.6923,428.2382 L172.5385,428.5134 L182.3846,427.0293 L192.2308,427.8769 L202.0769,427.4118 L211.9231,427.4691 L221.7692,427.8896 L231.6154,427.0586 L241.4615,428.7187 L251.3077,427.1401 L261.1538,427.7168 L271,427.9805 " fill="none" style="stroke: #A9A9A9; stroke-width: 2.0;"/><text fill="#A9A9A9" font-family="courier" font-size="20" lengthAdjust="spacingAndGlyphs" textLength="108" x="156" y="418.9746">get/set()</text><polygon fill="#A9A9A9" points="255,437.9805,255.026,438.0455,256.9487,438.6522,259.0239,439.6403,261.0495,440.5042,262.9117,440.9597,265,441.9805,264.9904,441.9564,262.9472,442.6485,260.9525,443.4618,258.9916,444.3594,256.9144,444.9665,255,445.9805,255.1305,446.111,255.6514,445.0319,256.5534,444.3339,257.5018,443.6823,258.1798,442.7603,259,441.9805,259.0161,441.9966,258.1925,441.1729,257.4421,440.4225,256.6564,439.6368,255.938,438.9185,255,437.9805" style="stroke: #A9A9A9; stroke-width: 1.0;"/><path d="M133,441.9805 L133,442.2607 L142.8462,441.428 L152.6923,442.2382 L162.5385,442.5134 L172.3846,441.0293 L182.2308,441.8769 L192.0769,441.4118 L201.9231,441.4691 L211.7692,441.8896 L221.6154,441.0586 L231.4615,442.7187 L241.3077,441.1401 L251.1538,441.7168 L261,441.9805 " fill="none" style="stroke: #A9A9A9; stroke-width: 2.0; stroke-dasharray: 2.0,2.0;"/><polygon fill="#A9A9A9" points="149,451.9805,149.026,452.0455,146.9487,452.6522,145.0239,453.6403,143.0495,454.5042,140.9117,454.9597,139,455.9805,138.9904,455.9564,140.9472,456.6485,142.9525,457.4618,144.9916,458.3594,146.9144,458.9665,149,459.9805,149.1305,460.111,148.0514,459.0319,147.3534,458.3339,146.7018,457.6823,145.7798,456.7603,145,455.9805,145.0161,455.9966,145.7925,455.1729,146.6421,454.4225,147.4564,453.6368,148.338,452.9185,149,451.9805" style="stroke: #A9A9A9; stroke-width: 1.0;"/><path d="M143,455.9805 L143,456.2607 L152.8462,455.428 L162.6923,456.2382 L172.5385,456.5134 L182.3846,455.0293 L192.2308,455.8769 L202.0769,455.4118 L211.9231,455.4691 L221.7692,455.8896 L231.6154,455.0586 L241.4615,456.7187 L251.3077,455.1401 L261.1538,455.7168 L271,455.9805 " fill="none" style="stroke: #A9A9A9; stroke-width: 2.0; stroke-dasharray: 2.0,2.0;"/><polygon fill="#A9A9A9" points="58,465.9805,58.026,466.0455,55.9487,466.6522,54.0239,467.6403,52.0495,468.5042,49.9117,468.9597,48,469.9805,47.9904,469.9564,49.9472,470.6485,51.9525,471.4618,53.9916,472.3594,55.9144,472.9665,58,473.9805,58.1305,474.111,57.0514,473.0319,56.3534,472.3339,55.7018,471.6823,54.7798,470.7603,54,469.9805,54.0161,469.9966,54.7925,469.1729,55.6421,468.4225,56.4564,467.6368,57.338,466.9185,58,465.9805" style="stroke: #A9A9A9; stroke-width: 1.0;"/><path d="M52,469.9805 L52,470.2607 L62,469.428 L72,470.2382 L82,470.5134 L92,469.0293 L102,469.8769 L112,469.4118 L122,469.4691 L132,469.9805 " fill="none" style="stroke: #A9A9A9; stroke-width: 2.0; stroke-dasharray: 2.0,2.0;"/><!--
@startuml
skinparam backgroundColor #222222
skinparam handwritten true
hide circle
hide stereotype
skinparam shadowing false
skinparam padding 1
skinparam arrow {
    Thickness 2
    Color #DarkGrey
    FontSize 20
    FontName courier
    FontStyle normal
    FontColor #DarkGrey
}
skinparam activity {
    BorderThickness 3
    BorderColor #DarkGrey
    BackgroundColor #222222
    FontSize 20
    FontName courier
    FontStyle bold
    FontColor #DarkGrey
}
skinparam actor {
    BorderThickness 3
    BorderColor #DarkGrey
    BackgroundColor #222222
    FontSize 20
    FontName courier
    FontStyle bold
    FontColor #DarkGrey
}
skinparam participant {
    BorderThickness 3
    BorderColor #DarkGrey
    BackgroundColor #222222
    FontSize 20
    FontName courier
    FontStyle bold
    FontColor #DarkGrey
}
skinparam SequenceGroup {
    BorderColor #DarkGray
    BackgroundColor #222222
    FontColor #DarkGray
    MessageTextAlignment #DarkGray
}
skinparam sequence {
LifeLineBorderColor DarkGray
LifeLineBackgroundColor #222222
BoxBorderColor #DC143C
}
skinparam defaultFontColor #DarkGray

actor Actor
participant Vista
participant Presentador
participant Modelo

activate Actor
Actor -> Vista : set()
deactivate Actor
activate Vista
Vista -> Presentador : evento
deactivate Vista
activate Presentador
Presentador -> Modelo : get/set()
deactivate Presentador
activate Modelo
alt cambio de estado del modelo
Modelo -> Vista : evento()
deactivate Modelo
activate Vista
Vista -> Modelo : get()
deactivate Vista
activate Modelo
Modelo - -> Vista
deactivate Modelo
activate Vista
Vista - -> Modelo
deactivate Vista
activate Modelo
end
Modelo - -> Presentador
deactivate Modelo
activate Presentador
Presentador -> Vista : get/set()
deactivate Presentador
activate Vista
Vista - -> Presentador
deactivate Vista
activate Presentador
Presentador - -> Vista
deactivate Presentador
activate Vista
Vista - -> Actor
deactivate Vista
activate Actor
@enduml

PlantUML version 1.2019.05(Sat Apr 20 18:45:36 CEST 2019)
(GPL source distribution)
Java Runtime: Java(TM) SE Runtime Environment
JVM: Java HotSpot(TM) 64-Bit Server VM
Java Version: 11.0.14+8-LTS-263
Operating System: Windows 10
OS Version: 10.0
Default Encoding: windows-1252
Language: es
Country: ES
--></g></svg>