<?xml version="1.0" encoding="UTF-8" standalone="no"?><svg xmlns="http://www.w3.org/2000/svg" xmlns:xlink="http://www.w3.org/1999/xlink" contentScriptType="application/ecmascript" contentStyleType="text/css" height="187px" preserveAspectRatio="none" style="width:305px;height:187px;background:#222222;" version="1.1" viewBox="0 0 305 187" width="305px" zoomAndPan="magnify"><defs/><g><!--class VistaModelo--><polygon fill="#222222" points="27,8,27,8.2102,37,7.5857,47,8.1933,57,8.3997,67,7.2866,77,7.9223,87,7.5735,97,7.6165,107,7.9318,117,7.3086,127,8.5536,137,7.3697,147,7.8022,157,8.4319,167,8,166.9142,8,167.0682,18.8227,166.9681,29.6453,167.1785,40.468,167.2391,51.2906,167,62.1133,167,62.699,157,62.7843,147,62.7925,137,62.3679,127,62.5769,117,62.8155,107,61.3921,97,62.7918,87,61.8168,77,62.6471,67,61.6183,57,62.0448,47,62.8549,37,62.0645,27,62.1133,27.1053,62.1133,27.3386,51.2906,27.4162,40.468,26.9961,29.6453,27.2872,18.8227,27,8" style="stroke: #A9A9A9; stroke-width: 3.0;"/><text fill="#A9A9A9" font-family="courier" font-size="20" font-weight="bold" lengthAdjust="spacingAndGlyphs" textLength="132" x="31" y="34.1074">VistaModelo</text><path d="M28,46.1133 L28,46.3935 L37.8571,45.5609 L47.7143,46.371 L57.5714,46.6462 L67.4286,45.1621 L77.2857,46.0097 L87.1429,45.5446 L97,45.6019 L106.8571,46.0224 L116.7143,45.1915 L126.5714,46.8515 L136.4286,45.2729 L146.2857,45.8496 L156.1429,46.6892 L166,46.1133 " fill="#222222" style="stroke: #A9A9A9; stroke-width: 3.0;"/><path d="M28,54.1133 L28,54.3935 L37.8571,53.5609 L47.7143,54.371 L57.5714,54.6462 L67.4286,53.1621 L77.2857,54.0097 L87.1429,53.5446 L97,53.6019 L106.8571,54.0224 L116.7143,53.1915 L126.5714,54.8515 L136.4286,53.2729 L146.2857,53.8496 L156.1429,54.6892 L166,54.1133 " fill="#222222" style="stroke: #A9A9A9; stroke-width: 3.0;"/><!--class Modelo--><polygon fill="#222222" points="6,122,6,122.2102,16,121.5857,26,122.1933,36,122.3997,46,121.2866,56,121.9223,66,121.5735,76,121.6165,86,122,85.9318,122,85.3086,132.8227,86.5536,143.6453,85.3697,154.468,85.8022,165.2906,86,176.1133,86,176.5452,76,176.0275,66,176.1815,56,176.0813,46,176.2918,36,176.3524,26,176.699,16,176.7843,6,176.1133,6.6793,176.1133,6.2546,165.2906,6.4636,154.468,6.7022,143.6453,5.2788,132.8227,6,122" style="stroke: #A9A9A9; stroke-width: 3.0;"/><text fill="#A9A9A9" font-family="courier" font-size="20" font-weight="bold" lengthAdjust="spacingAndGlyphs" textLength="72" x="10" y="148.1074">Modelo</text><path d="M7,160.1133 L7,160.3935 L16.75,159.5609 L26.5,160.371 L36.25,160.6462 L46,159.1621 L55.75,160.0097 L65.5,159.5446 L75.25,159.6019 L85,160.1133 " fill="#222222" style="stroke: #A9A9A9; stroke-width: 3.0;"/><path d="M7,168.1133 L7,168.3935 L16.75,167.5609 L26.5,168.371 L36.25,168.6462 L46,167.1621 L55.75,168.0097 L65.5,167.5446 L75.25,167.6019 L85,168.1133 " fill="#222222" style="stroke: #A9A9A9; stroke-width: 3.0;"/><!--class XAML--><polygon fill="#222222" points="121,122,121,122.2102,130.3333,121.5857,139.6667,122.1933,149,122.3997,158.3333,121.2866,167.6667,121.9223,177,122,176.5735,122,176.6165,132.8227,176.9318,143.6453,176.3086,154.468,177.5536,165.2906,177,176.1133,177,175.483,167.6667,175.9155,158.3333,176.5452,149,176.0275,139.6667,176.1815,130.3333,176.0813,121,176.1133,121.1785,176.1133,121.2391,165.2906,121.5857,154.468,121.6711,143.6453,121.6793,132.8227,121,122" style="stroke: #A9A9A9; stroke-width: 3.0;"/><text fill="#A9A9A9" font-family="courier" font-size="20" font-weight="bold" lengthAdjust="spacingAndGlyphs" textLength="48" x="125" y="148.1074">XAML</text><path d="M122,160.1133 L122,160.3935 L132.8,159.5609 L143.6,160.371 L154.4,160.6462 L165.2,159.1621 L176,160.1133 " fill="#222222" style="stroke: #A9A9A9; stroke-width: 3.0;"/><path d="M122,168.1133 L122,168.3935 L132.8,167.5609 L143.6,168.371 L154.4,168.6462 L165.2,167.1621 L176,168.1133 " fill="#222222" style="stroke: #A9A9A9; stroke-width: 3.0;"/><!--class Request--><polygon fill="#222222" points="202,8,202,8.2102,212.2222,7.5857,222.4444,8.1933,232.6667,8.3997,242.8889,7.2866,253.1111,7.9223,263.3333,7.5735,273.5556,7.6165,283.7778,7.9318,294,8,293.3086,8,294.5536,18.8227,293.3697,29.6453,293.8022,40.468,294.4319,51.2906,294,62.1133,294,62.0275,283.7778,62.1815,273.5556,62.0813,263.3333,62.2918,253.1111,62.3524,242.8889,62.699,232.6667,62.7843,222.4444,62.7925,212.2222,62.3679,202,62.1133,202.4636,62.1133,202.7022,51.2906,201.2788,40.468,202.6785,29.6453,201.7035,18.8227,202,8" style="stroke: #A9A9A9; stroke-width: 3.0;"/><text fill="#A9A9A9" font-family="courier" font-size="20" font-weight="bold" lengthAdjust="spacingAndGlyphs" textLength="84" x="206" y="34.1074">Request</text><path d="M203,46.1133 L203,46.3935 L213,45.5609 L223,46.371 L233,46.6462 L243,45.1621 L253,46.0097 L263,45.5446 L273,45.6019 L283,46.0224 L293,46.1133 " fill="#222222" style="stroke: #A9A9A9; stroke-width: 3.0;"/><path d="M203,54.1133 L203,54.3935 L213,53.5609 L223,54.371 L233,54.6462 L243,53.1621 L253,54.0097 L263,53.5446 L273,53.6019 L283,54.0224 L293,54.1133 " fill="#222222" style="stroke: #A9A9A9; stroke-width: 3.0;"/><!--link VistaModelo to Request--><path d="M167.19,35 L167.19,35.0934 L173.104,34.8159 L179.018,35.0859 L184.932,35.1776 L190.846,34.6829 L196.76,35 " fill="none" style="stroke: #A9A9A9; stroke-width: 2.0;"/><polygon fill="#A9A9A9" points="201.91,35,201.9385,35.064,200.0539,34.0738,198.3362,33.4589,196.5641,32.7217,194.6134,31.5827,192.91,31,192.8917,30.9817,193.6095,31.6995,194.4196,32.5096,195.2939,33.3839,195.947,34.037,196.91,35,197.0405,35.1305,195.9614,35.6514,195.2634,36.5534,194.6118,37.5018,193.6898,38.1798,192.91,39,192.9192,39.0208,194.7057,38.1903,196.5342,37.4544,198.3424,36.6728,200.1893,35.9784,201.91,35" style="stroke: #A9A9A9; stroke-width: 2.0;"/><!--link VistaModelo to XAML--><path d="M109.19,62.26 L109.4442,62.378 L112.9373,71.1774 L117.9204,80.6685 L122.4183,89.9344 L125.3206,98.4594 L130.3377,107.9664 L134.68,117.16 " fill="none" style="stroke: #A9A9A9; stroke-width: 2.0;"/><polygon fill="#A9A9A9" points="136.88,121.91,136.9501,121.9112,136.7077,119.9381,136.876,117.9722,136.9106,116.0039,136.5054,114.028,136.7089,112.0626,136.6846,112.0538,136.1876,113.0768,135.8134,114.1445,135.5244,115.2434,134.9415,116.2351,134.7703,117.3769,134.8335,117.5503,133.6354,116.7918,132.622,116.5395,131.631,116.349,130.509,115.7991,129.456,115.4382,129.4709,115.4554,130.9338,116.7245,132.4647,118.0718,133.9628,119.3814,135.5235,120.7628,136.88,121.91" style="stroke: #A9A9A9; stroke-width: 2.0;"/><!--link VistaModelo to Modelo--><path d="M85.04,62.26 L85.295,62.3761 L80.3706,71.1811 L76.9412,80.6668 L73.025,89.9309 L67.5077,98.4658 L64.1124,107.9671 L60.04,117.16 " fill="none" style="stroke: #A9A9A9; stroke-width: 2.0;"/><polygon fill="#A9A9A9" points="57.88,121.91,57.9265,121.9624,59.2615,120.4991,60.869,119.3429,62.3879,118.0868,63.6147,116.5017,65.2457,115.3719,65.2366,115.3477,64.1364,115.6361,63.0821,116.0467,62.0597,116.5424,60.9274,116.7451,59.949,117.3582,60.1218,117.423,59.355,116.2251,59.0928,115.2163,58.8921,114.2307,58.3332,113.1108,57.9628,112.0615,57.9855,112.0617,57.9356,114.0311,57.9892,116.0014,57.9928,117.9713,58.0918,119.9419,57.88,121.91" style="stroke: #A9A9A9; stroke-width: 2.0;"/><!--
@startuml
allowmixing
skinparam backgroundColor #222222
skinparam handwritten true
hide circle
hide stereotype
skinparam shadowing false
skinparam padding 1
skinparam arrow {
    Thickness 2
    Color #DarkGrey
    FontSize 20
    FontName courier
    FontStyle normal
    FontColor #DarkGrey
}
skinparam class {
    BorderThickness 3
    BorderColor #DarkGrey
    BackgroundColor #222222
    FontSize 20
    FontName courier
    FontStyle bold
    FontColor #DarkGrey
}
class VistaModelo <<VistaModelo>>
class Modelo <<Modelo>>
class XAML <<Vista>>
class Request <<Evento>>

VistaModelo -right-> Request
VistaModelo - -> XAML
VistaModelo - -> Modelo
@enduml

PlantUML version 1.2019.05(Sat Apr 20 18:45:36 CEST 2019)
(GPL source distribution)
Java Runtime: Java(TM) SE Runtime Environment
JVM: Java HotSpot(TM) 64-Bit Server VM
Java Version: 11.0.14+8-LTS-263
Operating System: Windows 10
OS Version: 10.0
Default Encoding: windows-1252
Language: es
Country: ES
--></g></svg>