<?xml version="1.0" encoding="UTF-8" standalone="no"?><svg xmlns="http://www.w3.org/2000/svg" xmlns:xlink="http://www.w3.org/1999/xlink" contentScriptType="application/ecmascript" contentStyleType="text/css" height="301px" preserveAspectRatio="none" style="width:263px;height:301px;background:#222222;" version="1.1" viewBox="0 0 263 301" width="263px" zoomAndPan="magnify"><defs/><g><!--class Recurso--><polygon fill="#222222" points="11.4547,8,11.4547,8.2102,21.6769,7.5857,31.8991,8.1933,42.1213,8.3997,52.3436,7.2866,62.5658,7.9223,72.788,7.5735,83.0102,7.6165,93.2325,7.9318,103.4547,8,102.7633,8,104.0083,18.8227,102.8244,29.6453,103.2569,40.468,103.8866,51.2906,103.4547,62.1133,103.4547,62.0275,93.2325,62.1815,83.0102,62.0813,72.788,62.2918,62.5658,62.3524,52.3436,62.699,42.1213,62.7843,31.8991,62.7925,21.6769,62.3679,11.4547,62.1133,11.9183,62.1133,12.1569,51.2906,10.7335,40.468,12.1332,29.6453,11.1582,18.8227,11.4547,8" style="stroke: #A9A9A9; stroke-width: 3.0;"/><text fill="#A9A9A9" font-family="courier" font-size="20" font-weight="bold" lengthAdjust="spacingAndGlyphs" textLength="84" x="15.4547" y="34.1074">Recurso</text><path d="M12.4547,46.1133 L12.4547,46.3935 L22.4547,45.5609 L32.4547,46.371 L42.4547,46.6462 L52.4547,45.1621 L62.4547,46.0097 L72.4547,45.5446 L82.4547,45.6019 L92.4547,46.0224 L102.4547,46.1133 " fill="#222222" style="stroke: #A9A9A9; stroke-width: 3.0;"/><path d="M12.4547,54.1133 L12.4547,54.3935 L22.4547,53.5609 L32.4547,54.371 L42.4547,54.6462 L52.4547,53.1621 L62.4547,54.0097 L72.4547,53.5446 L82.4547,53.6019 L92.4547,54.0224 L102.4547,54.1133 " fill="#222222" style="stroke: #A9A9A9; stroke-width: 3.0;"/><!--class Modelo--><polygon fill="#222222" points="17.4547,236,17.4547,236.2102,27.4547,235.5857,37.4547,236.1933,47.4547,236.3997,57.4547,235.2866,67.4547,235.9223,77.4547,235.5735,87.4547,235.6165,97.4547,236,97.3865,236,96.7633,246.8227,98.0083,257.6453,96.8244,268.468,97.2569,279.2906,97.4547,290.1133,97.4547,290.5452,87.4547,290.0275,77.4547,290.1815,67.4547,290.0813,57.4547,290.2918,47.4547,290.3524,37.4547,290.699,27.4547,290.7843,17.4547,290.1133,18.134,290.1133,17.7093,279.2906,17.9183,268.468,18.1569,257.6453,16.7335,246.8227,17.4547,236" style="stroke: #A9A9A9; stroke-width: 3.0;"/><text fill="#A9A9A9" font-family="courier" font-size="20" font-weight="bold" lengthAdjust="spacingAndGlyphs" textLength="72" x="21.4547" y="262.1074">Modelo</text><path d="M18.4547,274.1133 L18.4547,274.3935 L28.2047,273.5609 L37.9547,274.371 L47.7047,274.6462 L57.4547,273.1621 L67.2047,274.0097 L76.9547,273.5446 L86.7047,273.6019 L96.4547,274.1133 " fill="#222222" style="stroke: #A9A9A9; stroke-width: 3.0;"/><path d="M18.4547,282.1133 L18.4547,282.3935 L28.2047,281.5609 L37.9547,282.371 L47.7047,282.6462 L57.4547,281.1621 L67.2047,282.0097 L76.9547,281.5446 L86.7047,281.6019 L96.4547,282.1133 " fill="#222222" style="stroke: #A9A9A9; stroke-width: 3.0;"/><!--class DataTransferObject--><polygon fill="#222222" points="28.4547,122,28.4547,122.2102,38.6365,121.5857,48.8183,122.1933,59.0002,122.3997,69.182,121.2866,79.3638,121.9223,89.5456,121.5735,99.7274,121.6165,109.9092,121.9318,120.0911,121.3086,130.2729,122.5536,140.4547,121.3697,150.6365,121.8022,160.8183,122.4319,171.0002,121.9142,181.182,122.0682,191.3638,121.9681,201.5456,122.1785,211.7274,122.2391,221.9092,122.5857,232.0911,122.6711,242.2729,122.6793,252.4547,122,252.7093,122,252.9183,132.8227,253.1569,143.6453,251.7335,154.468,253.1332,165.2906,252.4547,176.1133,252.4547,175.8168,242.2729,176.6471,232.0911,175.6183,221.9092,176.0448,211.7274,176.8549,201.5456,176.0645,191.3638,176.2186,181.182,176.4519,171.0002,176.5295,160.8183,176.1094,150.6365,176.4005,140.4547,175.5409,130.2729,176.3977,120.0911,176.6615,109.9092,176.5578,99.7274,176.7263,89.5456,175.6302,79.3638,175.4611,69.182,175.4919,59.0002,176.0544,48.8183,175.9168,38.6365,176.7947,28.4547,176.1133,28.28,176.1133,28.1116,165.2906,28.683,154.468,27.7879,143.6453,27.9356,132.8227,28.4547,122" style="stroke: #A9A9A9; stroke-width: 3.0;"/><text fill="#A9A9A9" font-family="courier" font-size="20" font-weight="bold" lengthAdjust="spacingAndGlyphs" textLength="216" x="32.4547" y="148.1074">DataTransferObject</text><path d="M29.4547,160.1133 L29.4547,160.3935 L39.5456,159.5609 L49.6365,160.371 L59.7274,160.6462 L69.8183,159.1621 L79.9092,160.0097 L90.0002,159.5446 L100.0911,159.6019 L110.182,160.0224 L120.2729,159.1915 L130.3638,160.8515 L140.4547,159.2729 L150.5456,159.8496 L160.6365,160.6892 L170.7274,159.9989 L180.8183,160.2043 L190.9092,160.0707 L201.0002,160.3513 L211.0911,160.4321 L221.182,160.8942 L231.2729,161.008 L241.3638,161.019 L251.4547,160.1133 " fill="#222222" style="stroke: #A9A9A9; stroke-width: 3.0;"/><path d="M29.4547,168.1133 L29.4547,168.3935 L39.5456,167.5609 L49.6365,168.371 L59.7274,168.6462 L69.8183,167.1621 L79.9092,168.0097 L90.0002,167.5446 L100.0911,167.6019 L110.182,168.0224 L120.2729,167.1915 L130.3638,168.8515 L140.4547,167.2729 L150.5456,167.8496 L160.6365,168.6892 L170.7274,167.9989 L180.8183,168.2043 L190.9092,168.0707 L201.0002,168.3513 L211.0911,168.4321 L221.182,168.8942 L231.2729,169.008 L241.3638,169.019 L251.4547,168.1133 " fill="#222222" style="stroke: #A9A9A9; stroke-width: 3.0;"/><!--class Request--><polygon fill="#222222" points="138.455,8,138.455,8.2102,148.6772,7.5857,158.8994,8.1933,169.1217,8.3997,179.3439,7.2866,189.5661,7.9223,199.7883,7.5735,210.0106,7.6165,220.2328,7.9318,230.455,8,229.7636,8,231.0086,18.8227,229.8247,29.6453,230.2572,40.468,230.8869,51.2906,230.455,62.1133,230.455,62.0275,220.2328,62.1815,210.0106,62.0813,199.7883,62.2918,189.5661,62.3524,179.3439,62.699,169.1217,62.7843,158.8994,62.7925,148.6772,62.3679,138.455,62.1133,138.9186,62.1133,139.1572,51.2906,137.7338,40.468,139.1335,29.6453,138.1585,18.8227,138.455,8" style="stroke: #A9A9A9; stroke-width: 3.0;"/><text fill="#A9A9A9" font-family="courier" font-size="20" font-weight="bold" lengthAdjust="spacingAndGlyphs" textLength="84" x="142.455" y="34.1074">Request</text><path d="M139.455,46.1133 L139.455,46.3935 L149.455,45.5609 L159.455,46.371 L169.455,46.6462 L179.455,45.1621 L189.455,46.0097 L199.455,45.5446 L209.455,45.6019 L219.455,46.0224 L229.455,46.1133 " fill="#222222" style="stroke: #A9A9A9; stroke-width: 3.0;"/><path d="M139.455,54.1133 L139.455,54.3935 L149.455,53.5609 L159.455,54.371 L169.455,54.6462 L179.455,53.1621 L189.455,54.0097 L199.455,53.5446 L209.455,53.6019 L219.455,54.0224 L229.455,54.1133 " fill="#222222" style="stroke: #A9A9A9; stroke-width: 3.0;"/><!--link Recurso to Request--><path d="M103.5914,35 L103.5914,35.0934 L109.5091,34.8159 L115.4268,35.0859 L121.3446,35.1776 L127.2623,34.6829 L133.18,35 " fill="none" style="stroke: #A9A9A9; stroke-width: 2.0;"/><polygon fill="#A9A9A9" points="138.337,35,138.3655,35.064,136.4809,34.0738,134.7632,33.4589,132.9911,32.7217,131.0404,31.5827,129.337,31,129.3187,30.9817,130.0365,31.6995,130.8466,32.5096,131.7209,33.3839,132.374,34.037,133.337,35,133.4675,35.1305,132.3884,35.6514,131.6904,36.5534,131.0388,37.5018,130.1168,38.1798,129.337,39,129.3462,39.0208,131.1327,38.1903,132.9612,37.4544,134.7694,36.6728,136.6163,35.9784,138.337,35" style="stroke: #A9A9A9; stroke-width: 2.0;"/><!--link Recurso to DataTransferObject--><path d="M76.9145,62.259 L77.1397,62.4259 L82.3294,69.8359 L88.8391,78.2242 L94.919,86.2939 L99.5854,93.3161 L106.1252,101.7266 L111.6103,109.3556 L117.926,117.6 " fill="none" style="stroke: #A9A9A9; stroke-width: 2.0;"/><polygon fill="#A9A9A9" points="121.117,121.905,121.1854,121.9203,120.5532,119.9524,120.3218,118.0741,119.96,116.1666,119.1688,114.1633,118.9719,112.2926,118.9463,112.2888,118.6649,113.3907,118.5127,114.5119,118.4502,115.6464,118.0784,116.735,118.1399,117.8879,118.167,118.0705,116.9899,117.5137,115.8921,117.4899,114.8039,117.5311,113.6594,117.1941,112.5446,117.0559,112.5558,117.0757,114.2538,118.0165,116.0028,119.0474,117.7273,120.0348,119.4986,121.1051,121.117,121.905" style="stroke: #A9A9A9; stroke-width: 2.0;"/><!--link Recurso to Modelo--><path d="M38.7262,62.042 L38.8059,62.0908 L36.9484,64.5916 L35.5578,67.3784 L34.0152,70.072 L31.9726,72.4594 L30.6222,75.2707 L30.5917,75.2544 L28.8692,78.1377 L27.3001,81.1032 L25.8377,84.126 L24.0076,86.9516 L22.6925,90.0534 L22.9175,90.153 L21.0402,93.0933 L19.8198,96.3244 L18.6796,99.591 L17.0731,102.6511 L15.7118,105.8198 L15.7407,105.8292 L14.6469,109.0515 L13.6844,112.3164 L12.6586,115.5608 L11.7537,118.8444 L10.4547,122 L10.7458,122.0649 L10.0811,125.0612 L9.2287,128.0156 L8.6512,131.0313 L8.0865,134.0499 L7.1137,136.9774 L6.7945,136.9478 L7.1912,139.4097 L6.537,141.7743 L6.6817,144.2128 L6.0037,146.5752 L6,149 L5.9697,148.9972 L6.5509,151.4349 L6.4239,153.807 L6.7148,156.2179 L7.0408,158.632 L7.1137,161.0226 L7.2942,161.0629 L7.7802,164.0177 L8.5747,167.0413 L8.87,169.9536 L9.9098,173.032 L10.4547,176 L10.6868,176.0741 L11.5882,179.0197 L12.6049,182.0021 L13.0861,184.8134 L13.9599,187.7501 L15.1813,190.7979 L14.9276,190.6889 L16.4017,193.6862 L17.59,196.5607 L19.193,199.6133 L20.0878,202.3618 L21.4037,205.2911 L21.2683,205.221 L22.919,208.0884 L23.9911,210.656 L25.4746,213.4368 L27.3609,216.4263 L28.5301,219.0442 L28.6967,219.1427 L30.2988,221.7258 L31.3825,224.0023 L33.1155,226.6628 L34.7071,229.2397 L35.969,231.6216 " fill="none" style="stroke: #A9A9A9; stroke-width: 2.0;"/><polygon fill="#A9A9A9" points="38.7262,235.9581,38.7955,235.9684,38.2989,233.9895,38.2084,232.0712,37.9857,230.1332,37.328,228.1302,37.2725,226.2171,37.2472,226.2115,36.8879,227.2906,36.6561,228.398,36.5128,229.5252,36.0642,230.5844,36.0433,231.7388,36.0834,231.919,34.8934,231.2879,33.8203,231.1828,32.7616,231.1419,31.6198,230.7276,30.5216,230.5097,30.5342,230.5286,32.1567,231.5905,33.8364,232.7386,35.4885,233.8451,37.1933,235.0311,38.7262,235.9581" style="stroke: #A9A9A9; stroke-width: 2.0;"/><!--link DataTransferObject to Modelo--><path d="M120.995,176.259 L121.2202,176.4259 L114.6923,183.836 L109.4843,192.2243 L103.8465,200.294 L96.7953,207.3163 L91.6174,215.7269 L85.3849,223.3559 L79.9829,231.6004 " fill="none" style="stroke: #A9A9A9; stroke-width: 2.0;"/><polygon fill="#A9A9A9" points="76.7926,235.9055,76.8271,235.9665,78.4391,234.8154,80.2533,234.0219,82.0016,233.1119,83.5334,231.8191,85.3649,231.0562,85.3611,231.0306,84.2249,231.082,83.108,231.2626,82.0044,231.533,80.8548,231.494,79.7696,231.8884,79.9521,231.9155,79.3954,230.7384,79.3716,229.6405,79.4127,228.5523,79.0756,227.4079,78.9375,226.293,78.9597,226.298,78.4981,228.2132,78.1376,230.151,77.7284,232.0779,77.4121,234.0255,76.7926,235.9055" style="stroke: #A9A9A9; stroke-width: 2.0;"/><!--
@startuml
allowmixing
skinparam backgroundColor #222222
skinparam handwritten true
hide circle
hide stereotype
skinparam shadowing false
skinparam padding 1
skinparam arrow {
    Thickness 2
    Color #DarkGrey
    FontSize 20
    FontName courier
    FontStyle normal
    FontColor #DarkGrey
}
skinparam class {
    BorderThickness 3
    BorderColor #DarkGrey
    BackgroundColor #222222
    FontSize 20
    FontName courier
    FontStyle bold
    FontColor #DarkGrey
}
class Recurso <<Controlador>>
class Modelo <<Modelo>>
class DataTransferObject <<Vista>>
class Request <<Evento>>

Recurso -right-> Request
Recurso - -> DataTransferObject
Recurso - -> Modelo
DataTransferObject - -> Modelo
@enduml

PlantUML version 1.2019.05(Sat Apr 20 18:45:36 CEST 2019)
(GPL source distribution)
Java Runtime: Java(TM) SE Runtime Environment
JVM: Java HotSpot(TM) 64-Bit Server VM
Java Version: 11.0.8+10-LTS
Operating System: Windows 10
OS Version: 10.0
Default Encoding: windows-1252
Language: es
Country: ES
--></g></svg>