<?xml version="1.0" encoding="UTF-8" standalone="no"?><svg xmlns="http://www.w3.org/2000/svg" xmlns:xlink="http://www.w3.org/1999/xlink" contentScriptType="application/ecmascript" contentStyleType="text/css" height="616px" preserveAspectRatio="none" style="width:745px;height:616px;background:#222222;" version="1.1" viewBox="0 0 745 616" width="745px" zoomAndPan="magnify"><defs/><g><polygon fill="#A9A9A9" points="382.0552,22.4324,380.5894,24.4353,378.8556,27.3688,376.376,29.3458,373.7703,30.4269,371.6927,30.5207,369.0224,29.1687,366.5029,28.2854,364.5905,26.492,363.5873,24.4389,362.9924,22.8041,362.4096,20.6688,361.4636,18.8313,362.1906,17.0373,362.8275,15.072,365.2175,13.5177,366.8991,11.501,368.9804,10.8313,371.4547,10.2546,374.6276,10.5972,376.3655,11.4168,378.3861,11.7884,380.8429,14.3054,381.6993,16.9627,382.0714,18.7758,381.65,21.7635" style="stroke: none; stroke-width: 1.0;"/><polygon fill="#222222" points="325.5,50,325.5,50.2102,335.8333,49.5857,346.1667,50.1933,356.5,50.3997,366.8333,49.2866,377.1667,49.9223,387.5,49.5735,397.8333,49.6165,408.1667,49.9318,418.5,50,418.4118,49.7871,420.3384,50.9027,421.9551,51.2704,423.7781,52.1358,425.6262,53.062,427.3388,53.6612,427.3124,53.6502,428.0921,55.4376,428.7935,57.1926,429.5905,58.9872,430.3414,60.7627,431,62.5,431.5857,62.5,431.6711,71.9175,431.6793,81.335,431.2546,90.7524,431.4636,100.1699,431.7022,109.5874,430.2788,119.0049,431.6785,128.4224,431,137.8398,430.9087,137.802,430.4322,139.6757,429.3831,141.3122,428.7822,143.1344,428.2995,145.0055,427.3388,146.6787,427.3326,146.6637,425.5845,147.4433,423.8465,148.2474,422.0886,149.0036,420.2673,149.6064,418.5,150.3398,418.5,150.6271,408.1667,149.7674,397.8333,150.6242,387.5,150.888,377.1667,150.7844,366.8333,150.9529,356.5,149.8568,346.1667,149.6877,335.8333,149.7184,325.5,150.3398,325.4925,150.3217,323.7072,149.5471,322.0514,149.0852,320.1744,148.0894,318.3852,147.3053,316.6612,146.6787,316.7315,146.7078,315.7236,144.8258,315.0368,143.0769,314.6643,141.4582,313.8664,139.6632,313,137.8398,313.7345,137.8398,312.6782,128.4224,313.3192,119.0049,313.5904,109.5874,312.5276,100.1699,312.9041,90.7524,313.126,81.335,313.6518,71.9175,313,62.5,312.9987,62.4995,313.8747,60.7912,314.2939,58.8938,314.9881,57.1103,316.084,55.4932,316.6612,53.6612,316.5697,53.4404,318.4939,53.0857,320.2231,52.2603,321.9303,51.382,323.6871,50.6233,325.5,50" style="stroke: #A9A9A9; stroke-width: 1.5;"/><text fill="#A9A9A9" font-family="courier" font-size="20" lengthAdjust="spacingAndGlyphs" textLength="72" x="324" y="81.1074">Crisis</text><text fill="#A9A9A9" font-family="courier" font-size="20" lengthAdjust="spacingAndGlyphs" textLength="36" x="324" y="107.2207">del</text><text fill="#A9A9A9" font-family="courier" font-size="20" lengthAdjust="spacingAndGlyphs" textLength="96" x="324" y="133.334">Software</text><polygon fill="#A9A9A9" points="12.5,170.3398,12.5,170.55,22.4861,169.9255,32.4722,170.5331,42.4583,170.7395,52.4444,169.6264,62.4306,170.2621,72.4167,169.9134,82.4028,169.9563,92.3889,170.2717,102.375,169.6485,112.3611,170.8935,122.3472,169.7096,132.3333,170.1421,142.3194,170.7718,152.3056,170.2541,162.2917,170.4081,172.2778,170.3079,182.2639,170.5184,192.25,170.579,202.2361,170.9255,212.2222,171.0109,222.2083,171.0191,232.1944,170.5945,242.1806,170.8034,252.1667,171.0421,262.1528,169.6187,272.1389,171.0184,282.125,170.0433,292.1111,170.8737,302.0972,169.8448,312.0833,170.2713,322.0694,171.0814,332.0556,170.2911,342.0417,170.4451,352.0278,170.6785,362.0139,170.7561,372,170.3359,381.9861,170.6271,391.9722,169.7674,401.9583,170.6242,411.9444,170.888,421.9306,170.7844,431.9167,170.9529,441.9028,169.8568,451.8889,169.6877,461.875,169.7184,471.8611,170.281,481.8472,170.1433,491.8333,171.0213,501.8194,170.1652,511.8056,169.9968,521.7917,170.5681,531.7778,169.673,541.7639,169.8207,551.75,170.9888,561.7361,170.7755,571.7222,171.0743,581.7083,170.018,591.6944,170.659,601.6806,170.9303,611.6667,169.8674,621.6528,170.244,631.6389,170.4658,641.625,170.9916,651.6111,170.3357,661.5972,170.8024,671.5833,169.7861,681.5694,169.6626,691.5556,170.8435,701.5417,169.6229,711.5278,170.8488,721.5139,170.5465,731.5,170.3398,731.4658,170.2573,731.8084,170.3773,732.2656,170.774,732.5225,170.687,732.9897,171.1079,733.2678,171.0721,733.0975,171.0016,733.6044,171.5044,733.7098,171.841,733.7825,172.164,733.8681,172.4923,734,172.8398,734.2422,172.8398,734.2045,173.0398,734.0564,173.2398,734.0894,173.4398,733.9566,173.6398,734,173.8398,734.2206,173.9312,733.9012,174.2132,733.7603,174.569,733.3733,174.8229,733.2894,175.2024,733.2678,175.6076,733.3355,175.7711,732.969,175.8864,732.5552,175.8873,732.166,175.9477,731.8256,176.126,731.5,176.3398,731.5,175.6537,721.5139,176.7546,711.5278,177.0794,701.5417,176.8662,691.5556,177.0348,681.5694,176.2031,671.5833,176.4271,661.5972,175.9522,651.6111,176.6239,641.625,176.5866,631.6389,176.8922,621.6528,176.1102,611.6667,176.2054,601.6806,176.7833,591.6944,176.9072,581.7083,175.8273,571.7222,176.146,561.7361,176.4891,551.75,175.729,541.7639,176.6932,531.7778,176.5978,521.7917,176.2391,511.8056,176.4821,501.8194,177.0685,491.8333,176.027,481.8472,176.6548,471.8611,176.6255,461.875,176.4556,451.8889,176.4808,441.9028,176.4533,431.9167,175.7157,421.9306,175.939,411.9444,175.8783,401.9583,176.4037,391.9722,176.428,381.9861,176.5016,372,176.0489,362.0139,176.2723,352.0278,176.2196,342.0417,176.9167,332.0556,176.7664,322.0694,175.8543,312.0833,176.2669,302.0972,175.7626,292.1111,176.6282,282.125,176.9483,272.1389,176.8844,262.1528,175.9043,252.1667,176.8038,242.1806,175.597,232.1944,176.54,222.2083,176.0405,212.2222,176.4366,202.2361,176.5802,192.25,176.8119,182.2639,175.6199,172.2778,176.8153,162.2917,176.518,152.3056,176.6952,142.3194,177.0876,132.3333,176.3453,122.3472,176.5151,112.3611,176.5533,102.375,176.5371,92.3889,176.339,82.4028,177.0505,72.4167,175.7301,62.4306,176.9051,52.4444,175.7158,42.4583,175.7995,32.4722,176.3799,22.4861,176.3681,12.5,176.3398,12.4371,176.1881,12.1992,176.3208,11.8068,176.0805,11.532,176.1243,11.1709,175.9595,10.7322,175.6076,10.5942,175.5504,10.4632,175.2033,10.3996,174.884,10.4024,174.5923,10.2705,174.2448,10,173.8398,10.1004,173.8398,9.886,173.6398,10.2121,173.4398,10.2113,173.2398,9.9842,173.0398,10,172.8398,9.9264,172.8093,10.0228,172.4351,10.2268,172.1054,10.4817,171.7967,10.5647,171.4169,10.7322,171.0721,10.6789,170.9434,11.148,171.0757,11.3808,170.6379,11.857,170.7874,12.2009,170.6179,12.5,170.3398" style="stroke: #A9A9A9; stroke-width: 1.0;"/><polygon fill="#222222" points="34.5,196.3398,34.5,196.55,44.4231,195.9255,54.3462,196.5331,64.2692,196.7395,74.1923,195.6264,84.1154,196.2621,94.0385,195.9134,103.9615,195.9563,113.8846,196.2717,123.8077,195.6485,133.7308,196.8935,143.6538,195.7096,153.5769,196.1421,163.5,196.3398,163.5551,196.4729,165.2568,197.0457,167.0442,197.8253,168.7992,198.5267,170.5938,199.3238,172.3388,200.001,172.4125,200.0315,173.2514,201.8435,174.01,203.6221,174.7447,205.391,175.3462,207.1046,176,208.8398,176.4636,208.8398,176.7022,218.2573,175.2788,227.6748,176.6785,237.0923,175.7035,246.5098,176.5338,255.9272,175.505,265.3447,175.9315,274.7622,176,284.1797,176.2284,284.2743,175.2528,285.9412,174.568,287.7287,173.9076,289.5262,173.1993,291.3039,172.3388,293.0185,172.3383,293.0173,170.6077,293.8392,168.7303,294.3067,167.0718,295.3028,165.3377,296.1163,163.5,296.6797,163.5,297.1242,153.5769,297.2927,143.6538,296.1966,133.7308,296.0275,123.8077,296.0583,113.8846,296.6208,103.9615,296.4832,94.0385,297.3611,84.1154,296.505,74.1923,296.3366,64.2692,296.908,54.3462,296.0128,44.4231,296.1606,34.5,296.6797,34.5828,296.8795,32.7878,296.0816,31.0582,295.4414,29.1557,294.3839,27.4696,293.8491,25.6612,293.0185,25.843,293.0938,24.7835,291.1905,24.1672,289.4708,23.5033,287.7313,22.9329,286.0306,22,284.1797,21.9958,284.1797,22.4626,274.7622,21.4462,265.3447,21.3227,255.9272,22.5036,246.5098,21.2831,237.0923,22.509,227.6748,22.2066,218.2573,22,208.8398,21.9175,208.8057,22.6233,207.0269,23.6057,205.3628,24.1045,203.4984,25.1112,201.8443,25.6612,200.001,25.5907,199.8308,27.5077,199.4589,29.2585,198.6857,30.9957,197.8798,32.7383,197.0866,34.5,196.3398" style="stroke: #A9A9A9; stroke-width: 1.5;"/><text fill="#A9A9A9" font-family="courier" font-size="20" lengthAdjust="spacingAndGlyphs" textLength="132" x="33" y="227.4473">Metodología</text><text fill="#A9A9A9" font-family="courier" font-size="20" lengthAdjust="spacingAndGlyphs" textLength="24" x="45" y="253.5605">en</text><text fill="#A9A9A9" font-family="courier" font-size="20" lengthAdjust="spacingAndGlyphs" textLength="84" x="33" y="279.6738">Cascada</text><polygon fill="#222222" points="216.5,209.3965,216.5,209.6067,226.2826,208.9822,236.0652,209.5898,245.8478,209.7962,255.6304,208.6831,265.413,209.3188,275.1957,208.97,284.9783,209.013,294.7609,209.3283,304.5435,208.7051,314.3261,209.9501,324.1087,208.7662,333.8913,209.1987,343.6739,209.8284,353.4565,209.3107,363.2391,209.4647,373.0217,209.3645,382.8043,209.575,392.587,209.6356,402.3696,209.9822,412.1522,210.0675,421.9348,210.0757,431.7174,209.6511,441.5,209.3965,441.5591,209.5392,443.3573,210.345,444.9435,210.6389,446.8899,211.8021,448.5332,212.2341,450.3388,213.0576,450.5032,213.1257,450.9186,214.7623,451.7822,216.5844,452.7639,218.4556,453.2528,220.1225,454,221.8965,454.1053,221.8965,454.3386,231.7418,454.4162,241.5871,453.9961,251.4324,454.2872,261.2777,454,271.123,453.8237,271.05,453.3553,272.9271,452.7044,274.7285,451.9402,276.4831,451.2599,278.2723,450.3388,279.9619,450.2772,279.8131,448.4879,280.4933,446.724,281.235,445.028,282.1404,443.2427,282.8303,441.5,283.623,441.5,284.3045,431.7174,283.4484,421.9348,283.28,412.1522,283.8513,402.3696,282.9562,392.587,283.1039,382.8043,284.272,373.0217,284.0587,363.2391,284.3575,353.4565,283.3013,343.6739,283.9422,333.8913,284.2135,324.1087,283.1506,314.3261,283.5272,304.5435,283.749,294.7609,284.2748,284.9783,283.6189,275.1957,284.0856,265.413,283.0693,255.6304,282.9458,245.8478,284.1267,236.0652,282.9061,226.2826,284.132,216.5,283.623,216.5264,283.6867,214.6981,282.8083,212.9193,282.0496,211.2552,281.5676,209.3907,280.6019,207.6612,279.9619,207.8434,280.0374,206.7587,278.1236,206.3868,276.5051,205.6136,274.7204,204.8077,272.9221,204,271.123,204.0472,271.123,204.7266,261.2777,204.6136,251.4324,204.1693,241.5871,204.2682,231.7418,204,221.8965,203.9599,221.8799,204.9529,220.2201,205.5122,218.3807,206.2498,216.6152,206.7416,214.7478,207.6612,213.0576,207.6095,212.9329,209.4966,212.4889,211.2515,211.7255,212.959,210.8477,214.6911,210.0295,216.5,209.3965" style="stroke: #A9A9A9; stroke-width: 1.5;"/><text fill="#A9A9A9" font-family="courier" font-size="20" lengthAdjust="spacingAndGlyphs" textLength="120" x="215" y="240.5039">Desarrollo</text><text fill="#A9A9A9" font-family="courier" font-size="20" lengthAdjust="spacingAndGlyphs" textLength="228" x="215" y="266.6172">Iterativo (XP, ...)</text><polygon fill="#222222" points="494.5,196.3398,494.5,196.55,504.0455,195.9255,513.5909,196.5331,523.1364,196.7395,532.6818,195.6264,542.2273,196.2621,551.7727,195.9134,561.3182,195.9563,570.8636,196.2717,580.4091,195.6485,589.9545,196.8935,599.5,196.3398,599.4196,196.1457,601.2425,197.0112,603.0906,197.9373,604.7924,198.5101,606.5798,199.2898,608.3388,200.001,608.329,199.9969,609.126,201.7915,609.8769,203.567,610.7159,205.379,611.4744,207.1577,612,208.8398,612.6793,208.8398,612.2546,218.2573,612.4636,227.6748,612.7022,237.0923,611.2788,246.5098,612.6785,255.9272,611.7035,265.3447,612.5338,274.7622,612,284.1797,611.8476,284.1165,611.2467,285.9387,610.7639,287.8098,609.7883,289.4768,609.1035,291.2642,608.3388,293.0185,608.382,293.1228,606.6242,293.8789,604.8028,294.4818,603.0722,295.3037,601.1947,295.7712,599.5,296.6797,599.5,296.9641,589.9545,297.2279,580.4091,297.1242,570.8636,297.2927,561.3182,296.1966,551.7727,296.0275,542.2273,296.0583,532.6818,296.6208,523.1364,296.4832,513.5909,297.3611,504.0455,296.505,494.5,296.6797,494.4562,296.574,492.7614,296.0178,490.8794,295.0099,489.1305,294.3231,487.5117,293.9506,485.6612,293.0185,485.7953,293.0741,485.1551,291.3444,484.0976,289.4419,483.5628,287.7559,482.9141,286.0228,482,284.1797,481.5276,284.1797,481.9041,274.7622,482.126,265.3447,482.6518,255.9272,481.9958,246.5098,482.4626,237.0923,481.4462,227.6748,481.3227,218.2573,482,208.8398,482.1551,208.9041,482.5114,206.9806,483.6212,205.3692,484.2603,203.5629,484.8464,201.7346,485.6612,200.001,485.616,199.8921,487.4875,199.4101,489.1585,198.4444,491.04,197.9866,492.6617,196.9019,494.5,196.3398" style="stroke: #A9A9A9; stroke-width: 1.5;"/><text fill="#A9A9A9" font-family="courier" font-size="20" lengthAdjust="spacingAndGlyphs" textLength="96" x="493" y="227.4473">Rational</text><text fill="#A9A9A9" font-family="courier" font-size="20" lengthAdjust="spacingAndGlyphs" textLength="84" x="493" y="253.5605">Unified</text><text fill="#A9A9A9" font-family="courier" font-size="20" lengthAdjust="spacingAndGlyphs" textLength="84" x="493" y="279.6738">Process</text><polygon fill="#222222" points="652.5,222.4531,652.5,222.6633,662,222.0388,671.5,222.6464,681,222.8528,690.5,221.7397,700,222.3754,709.5,222.4531,709.4456,222.3218,711.2188,223.0673,713.0268,223.8966,714.7151,224.4369,716.6417,225.5526,718.3388,226.1143,718.1447,226.0339,719.0102,227.8568,719.9363,229.7049,720.5091,231.4066,721.2888,233.1941,722,234.9531,721.9894,234.9531,722.0595,239.5758,722.0797,244.1984,722.1952,248.8211,722.2237,253.4438,722,258.0664,722.2092,258.1531,721.3462,259.8667,720.6783,261.6611,720.0196,263.4593,718.849,265.0455,718.3388,266.9052,718.4254,267.1142,716.5332,267.5462,714.8714,268.5341,712.9724,268.9495,711.259,269.8131,709.5,270.5664,709.5,271.308,700,270.5177,690.5,270.6717,681,270.905,671.5,270.9826,662,270.5625,652.5,270.5664,652.5366,270.6549,650.6592,269.6579,649.0007,269.1895,647.2666,268.5385,645.4856,267.7744,643.6612,266.9052,643.85,266.9834,642.7802,265.0759,641.9959,263.2865,641.2731,261.5227,640.7141,259.8267,640,258.0664,639.9345,258.0664,640.2271,253.4438,639.9418,248.8211,639.8856,244.1984,640.0761,239.5758,640,234.9531,639.7946,234.8681,640.5724,233.1191,641.6643,231.5004,642.3309,229.7054,643.1551,227.9757,643.6612,226.1143,643.6201,226.0152,645.4696,225.4804,647.272,224.8316,648.9042,223.7721,650.72,223.1558,652.5,222.4531" style="stroke: #A9A9A9; stroke-width: 1.5;"/><text fill="#A9A9A9" font-family="courier" font-size="20" lengthAdjust="spacingAndGlyphs" textLength="60" x="651" y="253.5605">Scrum</text><polygon fill="#A9A9A9" points="12.5,316.6797,12.5,316.8899,22.4861,316.2654,32.4722,316.873,42.4583,317.0794,52.4444,315.9663,62.4306,316.602,72.4167,316.2532,82.4028,316.2962,92.3889,316.6115,102.375,315.9883,112.3611,317.2333,122.3472,316.0494,132.3333,316.4819,142.3194,317.1116,152.3056,316.5939,162.2917,316.7479,172.2778,316.6477,182.2639,316.8582,192.25,316.9188,202.2361,317.2654,212.2222,317.3507,222.2083,317.3589,232.1944,316.9343,242.1806,317.1433,252.1667,317.3819,262.1528,315.9585,272.1389,317.3582,282.125,316.3832,292.1111,317.2135,302.0972,316.1847,312.0833,316.6112,322.0694,317.4213,332.0556,316.631,342.0417,316.785,352.0278,317.0183,362.0139,317.0959,372,316.6758,381.9861,316.9669,391.9722,316.1073,401.9583,316.9641,411.9444,317.2279,421.9306,317.1242,431.9167,317.2927,441.9028,316.1966,451.8889,316.0275,461.875,316.0583,471.8611,316.6208,481.8472,316.4832,491.8333,317.3611,501.8194,316.505,511.8056,316.3366,521.7917,316.908,531.7778,316.0128,541.7639,316.1606,551.75,317.3286,561.7361,317.1154,571.7222,317.4142,581.7083,316.3579,591.6944,316.9989,601.6806,317.2701,611.6667,316.2073,621.6528,316.5838,631.6389,316.8057,641.625,317.3314,651.6111,316.6755,661.5972,317.1423,671.5833,316.1259,681.5694,316.0024,691.5556,317.1833,701.5417,315.9627,711.5278,317.1886,721.5139,316.8863,731.5,316.6797,731.4658,316.5972,731.8084,316.7172,732.2656,317.1139,732.5225,317.0268,732.9897,317.4477,733.2678,317.4119,733.0975,317.3414,733.6044,317.8442,733.7098,318.1808,733.7825,318.5038,733.8681,318.8322,734,319.1797,734.2422,319.1797,734.2045,319.3797,734.0564,319.5797,734.0894,319.7797,733.9566,319.9797,734,320.1797,734.2206,320.2711,733.9012,320.553,733.7603,320.9088,733.3733,321.1627,733.2894,321.5422,733.2678,321.9475,733.3355,322.1109,732.969,322.2263,732.5552,322.2271,732.166,322.2876,731.8256,322.4658,731.5,322.6797,731.5,321.9935,721.5139,323.0944,711.5278,323.4193,701.5417,323.2061,691.5556,323.3746,681.5694,322.543,671.5833,322.7669,661.5972,322.2921,651.6111,322.9637,641.625,322.9265,631.6389,323.2321,621.6528,322.45,611.6667,322.5453,601.6806,323.1231,591.6944,323.247,581.7083,322.1672,571.7222,322.4858,561.7361,322.829,551.75,322.0688,541.7639,323.0331,531.7778,322.9377,521.7917,322.5789,511.8056,322.8219,501.8194,323.4084,491.8333,322.3668,481.8472,322.9947,471.8611,322.9653,461.875,322.7955,451.8889,322.8206,441.9028,322.7932,431.9167,322.0555,421.9306,322.2789,411.9444,322.2182,401.9583,322.7435,391.9722,322.7678,381.9861,322.8414,372,322.3887,362.0139,322.6122,352.0278,322.5595,342.0417,323.2565,332.0556,323.1063,322.0694,322.1942,312.0833,322.6068,302.0972,322.1025,292.1111,322.9681,282.125,323.2882,272.1389,323.2243,262.1528,322.2441,252.1667,323.1437,242.1806,321.9369,232.1944,322.8798,222.2083,322.3804,212.2222,322.7764,202.2361,322.92,192.25,323.1518,182.2639,321.9598,172.2778,323.1552,162.2917,322.8579,152.3056,323.035,142.3194,323.4275,132.3333,322.6852,122.3472,322.855,112.3611,322.8931,102.375,322.8769,92.3889,322.6789,82.4028,323.3904,72.4167,322.0699,62.4306,323.245,52.4444,322.0557,42.4583,322.1394,32.4722,322.7197,22.4861,322.708,12.5,322.6797,12.4371,322.5279,12.1992,322.6606,11.8068,322.4203,11.532,322.4641,11.1709,322.2993,10.7322,321.9475,10.5942,321.8903,10.4632,321.5431,10.3996,321.2239,10.4024,320.9321,10.2705,320.5846,10,320.1797,10.1004,320.1797,9.886,319.9797,10.2121,319.7797,10.2113,319.5797,9.9842,319.3797,10,319.1797,9.9264,319.1492,10.0228,318.7749,10.2268,318.4452,10.4817,318.1366,10.5647,317.7567,10.7322,317.4119,10.6789,317.2833,11.148,317.4156,11.3808,316.9777,11.857,317.1273,12.2009,316.9577,12.5,316.6797" style="stroke: #A9A9A9; stroke-width: 1.0;"/><polygon fill="#222222" points="307.5,342.6797,307.5,342.8899,317.4231,342.2654,327.3462,342.873,337.2692,343.0794,347.1923,341.9663,357.1154,342.602,367.0385,342.2532,376.9615,342.2962,386.8846,342.6115,396.8077,341.9883,406.7308,343.2333,416.6538,342.0494,426.5769,342.4819,436.5,342.6797,436.5551,342.8127,438.2568,343.3855,440.0442,344.1652,441.7992,344.8665,443.5938,345.6636,445.3388,346.3409,445.4125,346.3714,446.2514,348.1833,447.01,349.962,447.7447,351.7308,448.3462,353.4444,449,355.1797,449.4636,355.1797,449.7022,365.025,448.2788,374.8703,449.6785,384.7156,448.7035,394.5609,449,404.4063,449.1644,404.4743,448.1153,406.1109,447.5144,407.933,447.0317,409.8042,446.0561,411.4711,445.3388,413.2451,445.3523,413.2775,443.6143,414.0816,441.8564,414.8377,440.035,415.4406,438.3044,416.2625,436.5,416.9063,436.5,416.3338,426.5769,417.1906,416.6538,417.4544,406.7308,417.3508,396.8077,417.5193,386.8846,416.4232,376.9615,416.2541,367.0385,416.2848,357.1154,416.8474,347.1923,416.7097,337.2692,417.5877,327.3462,416.7316,317.4231,416.5632,307.5,416.9063,307.5291,416.9765,305.6472,415.9687,303.8982,415.2819,302.2795,414.9094,300.4845,414.1115,298.6612,413.2451,298.8874,413.3388,297.8298,411.4363,297.295,409.7503,296.6463,408.0171,295.5868,406.1138,295,404.4063,294.9041,404.4063,295.126,394.5609,295.6518,384.7156,294.9958,374.8703,295.4626,365.025,295,355.1797,294.8295,355.109,295.5237,353.3255,296.6196,351.7084,296.9759,349.7849,298.0857,348.1735,298.6612,346.3409,298.6875,346.4045,300.3948,345.5261,302.1516,344.7674,304.023,344.2854,305.694,343.3197,307.5,342.6797" style="stroke: #A9A9A9; stroke-width: 1.5;"/><text fill="#A9A9A9" font-family="courier" font-size="20" lengthAdjust="spacingAndGlyphs" textLength="120" x="306" y="373.7871">Manifiesto</text><text fill="#A9A9A9" font-family="courier" font-size="20" lengthAdjust="spacingAndGlyphs" textLength="48" x="306" y="399.9004">Agil</text><polygon fill="#A9A9A9" points="89.5,436.9063,89.5,437.1164,99.4123,436.4919,109.3246,437.0995,119.2368,437.3059,129.1491,436.1929,139.0614,436.8285,148.9737,436.4798,158.886,436.5228,168.7982,436.8381,178.7105,436.2149,188.6228,437.4599,198.5351,436.276,208.4474,436.7085,218.3596,437.3382,228.2719,436.8205,238.1842,436.9745,248.0965,436.8743,258.0088,437.0848,267.9211,437.1454,277.8333,437.4919,287.7456,437.5773,297.6579,437.5855,307.5702,437.1609,317.4825,437.3698,327.3947,437.6085,337.307,436.1851,347.2193,437.5848,357.1316,436.6097,367.0439,437.4401,376.9561,436.4112,386.8684,436.8378,396.7807,437.6479,406.693,436.8575,416.6053,437.0116,426.5175,437.2449,436.4298,437.3225,446.3421,436.9023,456.2544,437.1935,466.1667,436.3338,476.0789,437.1906,485.9912,437.4544,495.9035,437.3508,505.8158,437.5193,515.7281,436.4232,525.6404,436.2541,535.5526,436.2848,545.4649,436.8474,555.3772,436.7097,565.2895,437.5877,575.2018,436.7316,585.114,436.5632,595.0263,437.1345,604.9386,436.2394,614.8509,436.3871,624.7632,437.5552,634.6754,437.3419,644.5877,437.6407,654.5,436.9063,654.459,436.8072,654.8943,437.151,655.2824,437.381,655.5004,437.2001,655.902,437.4625,656.2678,437.6385,656.3066,437.6546,656.6149,438.0752,656.5594,438.3451,656.8496,438.7581,656.683,438.9821,657,439.4063,656.7742,439.4063,657.1679,439.6063,656.761,439.8063,657.1697,440.0063,657.0689,440.2063,657,440.4063,656.9175,440.3721,656.7446,440.7147,656.8484,441.1719,656.4685,441.4287,656.5965,441.896,656.2678,442.174,656.1973,442.0038,655.993,442.5106,655.6224,442.6161,655.2384,442.6888,654.8596,442.7743,654.5,442.9063,654.5,443.6329,644.5877,443.5198,634.6754,443.0755,624.7632,443.1744,614.8509,442.776,604.9386,443.6227,595.0263,443.0611,585.114,443.0788,575.2018,442.2979,565.2895,442.501,555.3772,443.437,545.4649,443.336,535.5526,442.8633,525.6404,442.5841,515.7281,442.6873,505.8158,442.2201,495.9035,443.321,485.9912,443.6458,476.0789,443.4326,466.1667,443.6012,456.2544,442.7695,446.3421,442.9935,436.4298,442.5187,426.5175,443.1903,416.6053,443.153,406.693,443.4586,396.7807,442.6766,386.8684,442.7718,376.9561,443.3497,367.0439,443.4736,357.1316,442.3937,347.2193,442.7124,337.307,443.0555,327.3947,442.2954,317.4825,443.2596,307.5702,443.1642,297.6579,442.8055,287.7456,443.0485,277.8333,443.6349,267.9211,442.5934,258.0088,443.2212,248.0965,443.1919,238.1842,443.022,228.2719,443.0472,218.3596,443.0197,208.4474,442.2821,198.5351,442.5054,188.6228,442.4447,178.7105,442.9701,168.7982,442.9944,158.886,443.068,148.9737,442.6153,139.0614,442.8387,129.1491,442.786,119.2368,443.4831,109.3246,443.3328,99.4123,442.4207,89.5,442.9063,89.4907,442.8838,89.0728,442.582,88.8297,442.7022,88.517,442.6543,88.1553,442.4882,87.7322,442.174,87.5981,442.1185,87.7287,441.8796,87.2106,441.3722,87.3545,441.1389,87.0543,440.7216,87,440.4063,87.0322,440.4063,87.0801,440.2063,87.1574,440.0063,86.76,439.8063,87.1585,439.6063,87,439.4063,87.0549,439.429,87.2559,439.098,87.5232,438.7945,87.441,438.3463,87.6398,438.0144,87.7322,437.6385,87.7595,437.7042,88.1109,437.5528,88.4392,437.3453,88.8836,437.418,89.0687,436.8649,89.5,436.9063" style="stroke: #A9A9A9; stroke-width: 1.0;"/><polygon fill="#222222" points="113.5,475.9629,113.5,476.1731,123.5714,475.5486,133.6429,476.1562,143.7143,476.3626,153.7857,475.2495,163.8571,475.8852,173.9286,475.5364,184,475.5794,194.0714,475.8947,204.1429,475.2715,214.2143,476.5165,224.2857,475.3326,234.3571,475.7651,244.4286,476.3948,254.5,475.9629,254.4891,475.9365,256.2765,476.7161,258.0315,477.4175,259.8261,478.2146,261.6016,478.9655,263.3388,479.6241,263.5192,479.6988,264.2777,481.4774,265.0125,483.2462,265.6139,484.9598,266.4105,486.7543,267,488.4629,267.2341,488.4629,266.7596,493.0855,267.2262,497.7082,266.9012,502.3309,267.1779,506.9535,267,511.5762,266.8476,511.513,266.2467,513.3352,265.7639,515.2063,264.7883,516.8733,264.1035,518.6607,263.3388,520.415,263.382,520.5193,261.6242,521.2754,259.8028,521.8783,258.0722,522.7002,256.1947,523.1677,254.5,524.0762,254.5,524.3606,244.4286,524.6244,234.3571,524.5207,224.2857,524.6892,214.2143,523.5931,204.1429,523.424,194.0714,523.4548,184,524.0173,173.9286,523.8796,163.8571,524.7576,153.7857,523.9015,143.7143,523.7331,133.6429,524.3044,123.5714,523.4093,113.5,524.0762,113.4338,523.9163,111.815,523.5438,110.02,522.7459,108.2904,522.1057,106.3879,521.0481,104.6612,520.415,104.7595,520.4557,104.1108,518.7226,103.0512,516.8192,102.4349,515.0995,101.771,513.36,101,511.5762,101.2173,511.5762,100.9986,506.9535,101.1542,502.3309,100.8154,497.7082,100.7742,493.0855,101,488.4629,101.1551,488.5271,101.5114,486.6037,102.6212,484.9923,103.2603,483.1859,103.8464,481.3576,104.6612,479.6241,104.616,479.5151,106.4875,479.0331,108.1585,478.0674,110.04,477.6096,111.6617,476.5249,113.5,475.9629" style="stroke: #A9A9A9; stroke-width: 1.5;"/><text fill="#A9A9A9" font-family="courier" font-size="20" lengthAdjust="spacingAndGlyphs" textLength="144" x="112" y="507.0703">Craftmanship</text><polygon fill="#222222" points="307.5,462.9063,307.5,463.1164,317.375,462.4919,327.25,463.0995,337.125,463.3059,347,462.1929,356.875,462.8285,366.75,462.4798,376.625,462.5228,386.5,462.8381,396.375,462.2149,406.25,463.4599,416.125,462.276,426,462.7085,435.875,463.3382,445.75,462.8205,455.625,462.9745,465.5,462.8743,475.375,463.0848,485.25,463.1454,495.125,463.4919,505,463.5773,514.875,463.5855,524.75,463.1609,534.625,463.3698,544.5,462.9063,544.5896,463.1225,546.1758,463.4164,548.1221,464.5797,549.7655,465.0116,551.6392,465.9996,553.3388,466.5674,553.1864,466.5043,554.05,468.3264,555.0317,470.1975,555.5205,471.8645,556.3002,473.6519,557,475.4063,557.3386,475.4063,557.4162,485.2516,556.9961,495.0969,557.2872,504.9422,556.4276,514.7875,557,524.6328,557.0876,524.6691,556.4366,526.4705,555.6724,528.2251,554.9921,530.0143,553.9223,531.6423,553.3388,533.4716,553.2556,533.2708,551.4918,534.0125,549.7958,534.918,548.0105,535.6078,546.3547,536.6104,544.5,537.1328,544.5,536.9581,534.625,536.7898,524.75,537.3611,514.875,536.466,505,536.6137,495.125,537.7818,485.25,537.5685,475.375,537.8673,465.5,536.811,455.625,537.452,445.75,537.7232,435.875,536.6604,426,537.037,416.125,537.2588,406.25,537.7846,396.375,537.1286,386.5,537.5954,376.625,536.579,366.75,536.4556,356.875,537.6364,347,536.4159,337.125,537.6418,327.25,537.3394,317.375,536.8649,307.5,537.1328,307.4549,537.0239,305.7908,536.5419,303.9263,535.5762,302.2722,535.1184,300.3584,534.0337,298.6612,533.4716,298.8513,533.5504,298.0781,531.7657,297.2721,529.9674,296.479,528.1744,295.956,526.4933,295,524.6328,295.6136,524.6328,295.1693,514.7875,295.2682,504.9422,294.8697,495.0969,295.7165,485.2516,295,475.4063,295.0477,475.426,295.7854,473.6605,296.2771,471.7931,297.0719,470.0513,298.0924,468.4029,298.6612,466.5674,298.716,466.6998,300.4235,465.822,302.1556,465.0037,303.9365,464.3033,305.6447,463.4272,307.5,462.9063" style="stroke: #A9A9A9; stroke-width: 1.5;"/><text fill="#A9A9A9" font-family="courier" font-size="20" lengthAdjust="spacingAndGlyphs" textLength="240" x="306" y="494.0137">Basic/Agile/Open/...</text><text fill="#A9A9A9" font-family="courier" font-size="20" lengthAdjust="spacingAndGlyphs" textLength="180" x="318" y="520.127">Unified Process</text><polygon fill="#222222" points="597.5,475.9629,597.5,476.033,604.1,475.8248,610.7,476.0273,617.3,476.0961,623.9,475.7251,630.5,475.9629,630.4901,475.939,632.2134,476.5638,633.9866,477.3093,635.7946,478.1386,637.4829,478.6789,639.3388,479.6241,639.5093,479.6947,639.877,481.3114,640.7424,483.1344,641.6686,484.9825,642.2414,486.6842,643,488.4629,643.0227,488.4629,642.9894,493.0855,643.0595,497.7082,643.0797,502.3309,643.1952,506.9535,643,511.5762,643.2067,511.6618,642.477,513.4306,641.6139,515.1442,640.9461,516.9386,640.2873,518.7368,639.3388,520.415,639.2468,520.1929,637.6576,521.3562,635.7655,521.7882,634.1036,522.7761,632.2046,523.1915,630.5,524.0762,630.5,524.0533,623.9,524.3234,617.3,524.0599,610.7,524.1113,604.1,524.189,597.5,524.0762,597.5531,524.2044,595.7317,523.3427,594.0011,522.7002,592.1237,521.7032,590.4652,521.2348,588.6612,520.415,588.83,520.4849,588.0658,518.7039,587.3855,516.9577,586.3157,515.0501,585.5314,513.2607,585,511.5762,584.7929,511.5762,584.9804,506.9535,584.9345,502.3309,585.2271,497.7082,584.9418,493.0855,585,488.4629,584.8944,488.4191,585.8025,486.7242,586.2591,484.8423,587.0368,483.0934,588.1288,481.4746,588.6612,479.6241,588.7167,479.7582,590.5226,479.118,592.1557,478.0605,594.0052,477.5257,595.8075,476.8769,597.5,475.9629" style="stroke: #A9A9A9; stroke-width: 1.5;"/><text fill="#A9A9A9" font-family="courier" font-size="20" lengthAdjust="spacingAndGlyphs" textLength="36" x="596" y="507.0703">...</text><polygon fill="#A9A9A9" points="89.5,557.1328,89.5,557.343,99.4123,556.7185,109.3246,557.3261,119.2368,557.5325,129.1491,556.4194,139.0614,557.0551,148.9737,556.7063,158.886,556.7493,168.7982,557.0647,178.7105,556.4414,188.6228,557.6865,198.5351,556.5025,208.4474,556.935,218.3596,557.5648,228.2719,557.047,238.1842,557.2011,248.0965,557.1009,258.0088,557.3113,267.9211,557.3719,277.8333,557.7185,287.7456,557.8039,297.6579,557.8121,307.5702,557.3874,317.4825,557.5964,327.3947,557.835,337.307,556.4116,347.2193,557.8113,357.1316,556.8363,367.0439,557.6666,376.9561,556.6378,386.8684,557.0643,396.7807,557.8744,406.693,557.0841,416.6053,557.2381,426.5175,557.4714,436.4298,557.549,446.3421,557.1289,456.2544,557.42,466.1667,556.5604,476.0789,557.4172,485.9912,557.681,495.9035,557.5773,505.8158,557.7458,515.7281,556.6497,525.6404,556.4806,535.5526,556.5114,545.4649,557.0739,555.3772,556.9363,565.2895,557.8142,575.2018,556.9581,585.114,556.7898,595.0263,557.3611,604.9386,556.466,614.8509,556.6137,624.7632,557.7818,634.6754,557.5685,644.5877,557.8673,654.5,557.1328,654.459,557.0337,654.8943,557.3776,655.2824,557.6075,655.5004,557.4267,655.902,557.6891,656.2678,557.865,656.3066,557.8811,656.6149,558.3017,656.5594,558.5716,656.8496,558.9847,656.683,559.2086,657,559.6328,656.7742,559.6328,657.1679,559.8328,656.761,560.0328,657.1697,560.2328,657.0689,560.4328,657,560.6328,656.9175,560.5986,656.7446,560.9412,656.8484,561.3984,656.4685,561.6553,656.5965,562.1225,656.2678,562.4006,656.1973,562.2304,655.993,562.7372,655.6224,562.8426,655.2384,562.9154,654.8596,563.0009,654.5,563.1328,654.5,563.8594,644.5877,563.7464,634.6754,563.3021,624.7632,563.401,614.8509,563.0025,604.9386,563.8493,595.0263,563.2877,585.114,563.3054,575.2018,562.5245,565.2895,562.7276,555.3772,563.6636,545.4649,563.5626,535.5526,563.0899,525.6404,562.8106,515.7281,562.9139,505.8158,562.4466,495.9035,563.5475,485.9912,563.8724,476.0789,563.6592,466.1667,563.8277,456.2544,562.9961,446.3421,563.22,436.4298,562.7452,426.5175,563.4169,416.6053,563.3796,406.693,563.6852,396.7807,562.9032,386.8684,562.9984,376.9561,563.5763,367.0439,563.7001,357.1316,562.6203,347.2193,562.9389,337.307,563.2821,327.3947,562.522,317.4825,563.4862,307.5702,563.3908,297.6579,563.0321,287.7456,563.2751,277.8333,563.8615,267.9211,562.8199,258.0088,563.4478,248.0965,563.4185,238.1842,563.2486,228.2719,563.2737,218.3596,563.2463,208.4474,562.5087,198.5351,562.732,188.6228,562.6713,178.7105,563.1966,168.7982,563.2209,158.886,563.2946,148.9737,562.8418,139.0614,563.0653,129.1491,563.0126,119.2368,563.7097,109.3246,563.5594,99.4123,562.6473,89.5,563.1328,89.4907,563.1104,89.0728,562.8086,88.8297,562.9287,88.517,562.8809,88.1553,562.7147,87.7322,562.4006,87.5981,562.345,87.7287,562.1062,87.2106,561.5987,87.3545,561.3655,87.0543,560.9482,87,560.6328,87.0322,560.6328,87.0801,560.4328,87.1574,560.2328,86.76,560.0328,87.1585,559.8328,87,559.6328,87.0549,559.6555,87.2559,559.3246,87.5232,559.0211,87.441,558.5729,87.6398,558.241,87.7322,557.865,87.7595,557.9308,88.1109,557.7793,88.4392,557.5719,88.8836,557.6446,89.0687,557.0915,89.5,557.1328" style="stroke: #A9A9A9; stroke-width: 1.0;"/><polygon fill="#FFFFFF" points="383.0608,596.8084,381.4484,599.0116,379.5412,602.2385,376.8136,604.4132,373.9474,605.6024,371.662,605.7056,368.7247,604.2184,365.9532,603.2467,363.8495,601.274,362.7461,599.0156,362.0917,597.2173,361.4506,594.8685,360.41,592.8473,361.2096,590.8738,361.9102,588.712,364.5393,587.0023,366.389,584.7839,368.6784,584.0473,371.4001,583.4129,374.8904,583.7898,376.8021,584.6913,379.0247,585.1,381.7272,587.8688,382.6693,590.7918,383.0786,592.7862,382.615,596.0727" style="stroke: #000000; stroke-width: 1.0;"/><polygon fill="#000000" points="378.0331,595.5922,377.1536,596.794,376.1134,598.5541,374.6256,599.7403,373.0622,600.389,371.8156,600.4453,370.2135,599.634,368.7017,599.104,367.5543,598.028,366.9524,596.7961,366.5955,595.8153,366.2458,594.5341,365.6782,593.4316,366.1143,592.3552,366.4965,591.176,367.9305,590.2434,368.9394,589.0334,370.1882,588.6316,371.6728,588.2856,373.5766,588.4912,374.6193,588.9829,375.8317,589.2058,377.3057,590.7161,377.8196,592.3104,378.0429,593.3983,377.79,595.1909" style="stroke: #7F7F7F; stroke-width: 1.0;"/><path d="M372,30 L372.0934,30 L371.8159,34 L372.0859,38 L372.1776,42 L371.6829,46 L372,50 " fill="#A9A9A9" style="stroke: #A9A9A9; stroke-width: 1.5;"/><polygon fill="#A9A9A9" points="368,40,368.065,40.026,368.6718,41.9487,369.6598,44.0239,370.5237,46.0495,370.9792,47.9117,372,50,371.9759,49.9904,372.668,47.9472,373.4813,45.9525,374.3789,43.9916,374.986,41.9144,376,40,376.1305,40.1305,375.0514,40.6514,374.3534,41.5534,373.7018,42.5018,372.7798,43.1798,372,44,372.0161,44.0161,371.1925,43.1925,370.4421,42.4421,369.6564,41.6564,368.938,40.938,368,40" style="stroke: #A9A9A9; stroke-width: 1.0;"/><path d="M99,176.3398 L99.0934,176.3398 L98.8159,180.3398 L99.0859,184.3398 L99.1776,188.3398 L98.6829,192.3398 L99,196.3398 " fill="#A9A9A9" style="stroke: #A9A9A9; stroke-width: 1.5;"/><polygon fill="#A9A9A9" points="95,186.3398,95.065,186.3659,95.6718,188.2886,96.6598,190.3638,97.5237,192.3893,97.9792,194.2515,99,196.3398,98.9759,196.3302,99.668,194.287,100.4813,192.2924,101.3789,190.3314,101.986,188.2543,103,186.3398,103.1305,186.4703,102.0514,186.9913,101.3534,187.8932,100.7018,188.8417,99.7798,189.5196,99,190.3398,99.0161,190.3559,98.1925,189.5323,97.4421,188.7819,96.6564,187.9962,95.938,187.2779,95,186.3398" style="stroke: #A9A9A9; stroke-width: 1.0;"/><path d="M329,176.3398 L329.0934,176.3398 L328.8159,182.9512 L329.0859,189.5625 L329.1776,196.1738 L328.6829,202.7852 L329,209.3965 " fill="#A9A9A9" style="stroke: #A9A9A9; stroke-width: 1.5;"/><polygon fill="#A9A9A9" points="325,199.3965,325.065,199.4225,325.6718,201.3452,326.6598,203.4204,327.5237,205.446,327.9792,207.3082,329,209.3965,328.9759,209.3869,329.668,207.3437,330.4813,205.349,331.3789,203.388,331.986,201.3109,333,199.3965,333.1305,199.527,332.0514,200.0479,331.3534,200.9499,330.7018,201.8983,329.7798,202.5763,329,203.3965,329.0161,203.4126,328.1925,202.589,327.4421,201.8386,326.6564,201.0528,325.938,200.3345,325,199.3965" style="stroke: #A9A9A9; stroke-width: 1.0;"/><path d="M547,176.3398 L547.0934,176.3398 L546.8159,180.3398 L547.0859,184.3398 L547.1776,188.3398 L546.6829,192.3398 L547,196.3398 " fill="#A9A9A9" style="stroke: #A9A9A9; stroke-width: 1.5;"/><polygon fill="#A9A9A9" points="543,186.3398,543.065,186.3659,543.6718,188.2886,544.6598,190.3638,545.5237,192.3893,545.9792,194.2515,547,196.3398,546.9759,196.3302,547.668,194.287,548.4813,192.2924,549.3789,190.3314,549.986,188.2543,551,186.3398,551.1305,186.4703,550.0514,186.9913,549.3534,187.8932,548.7018,188.8417,547.7798,189.5196,547,190.3398,547.0161,190.3559,546.1925,189.5323,545.4421,188.7819,544.6564,187.9962,543.938,187.2779,543,186.3398" style="stroke: #A9A9A9; stroke-width: 1.0;"/><path d="M681,176.3398 L681.2802,176.3398 L680.4476,185.5625 L681.2577,194.7852 L681.5329,204.0078 L680.0488,213.2305 L681,222.4531 " fill="#A9A9A9" style="stroke: #A9A9A9; stroke-width: 1.5;"/><polygon fill="#A9A9A9" points="677,212.4531,677.065,212.4791,677.6718,214.4018,678.6598,216.4771,679.5237,218.5026,679.9792,220.3648,681,222.4531,680.9759,222.4435,681.668,220.4003,682.4813,218.4056,683.3789,216.4447,683.986,214.3675,685,212.4531,685.1305,212.5836,684.0514,213.1046,683.3534,214.0065,682.7018,214.9549,681.7798,215.6329,681,216.4531,681.0161,216.4692,680.1925,215.6456,679.4421,214.8952,678.6564,214.1095,677.938,213.3912,677,212.4531" style="stroke: #A9A9A9; stroke-width: 1.0;"/><path d="M99,296.6797 L99.0934,296.6797 L98.8159,300.6797 L99.0859,304.6797 L99.1776,308.6797 L98.6829,312.6797 L99,316.6797 " fill="#A9A9A9" style="stroke: #A9A9A9; stroke-width: 1.5;"/><polygon fill="#A9A9A9" points="95,306.6797,95.065,306.7057,95.6718,308.6284,96.6598,310.7036,97.5237,312.7292,97.9792,314.5914,99,316.6797,98.9759,316.6701,99.668,314.6269,100.4813,312.6322,101.3789,310.6712,101.986,308.5941,103,306.6797,103.1305,306.8102,102.0514,307.3311,101.3534,308.2331,100.7018,309.1815,99.7798,309.8595,99,310.6797,99.0161,310.6958,98.1925,309.8722,97.4421,309.1218,96.6564,308.3361,95.938,307.6177,95,306.6797" style="stroke: #A9A9A9; stroke-width: 1.0;"/><path d="M329,283.623 L329.0934,283.623 L328.8159,290.2344 L329.0859,296.8457 L329.1776,303.457 L328.6829,310.0684 L329,316.6797 " fill="#A9A9A9" style="stroke: #A9A9A9; stroke-width: 1.5;"/><polygon fill="#A9A9A9" points="325,306.6797,325.065,306.7057,325.6718,308.6284,326.6598,310.7036,327.5237,312.7292,327.9792,314.5914,329,316.6797,328.9759,316.6701,329.668,314.6269,330.4813,312.6322,331.3789,310.6712,331.986,308.5941,333,306.6797,333.1305,306.8102,332.0514,307.3311,331.3534,308.2331,330.7018,309.1815,329.7798,309.8595,329,310.6797,329.0161,310.6958,328.1925,309.8722,327.4421,309.1218,326.6564,308.3361,325.938,307.6177,325,306.6797" style="stroke: #A9A9A9; stroke-width: 1.0;"/><path d="M547,296.6797 L547.0934,296.6797 L546.8159,300.6797 L547.0859,304.6797 L547.1776,308.6797 L546.6829,312.6797 L547,316.6797 " fill="#A9A9A9" style="stroke: #A9A9A9; stroke-width: 1.5;"/><polygon fill="#A9A9A9" points="543,306.6797,543.065,306.7057,543.6718,308.6284,544.6598,310.7036,545.5237,312.7292,545.9792,314.5914,547,316.6797,546.9759,316.6701,547.668,314.6269,548.4813,312.6322,549.3789,310.6712,549.986,308.5941,551,306.6797,551.1305,306.8102,550.0514,307.3311,549.3534,308.2331,548.7018,309.1815,547.7798,309.8595,547,310.6797,547.0161,310.6958,546.1925,309.8722,545.4421,309.1218,544.6564,308.3361,543.938,307.6177,543,306.6797" style="stroke: #A9A9A9; stroke-width: 1.0;"/><path d="M681,270.5664 L681.2802,270.5664 L680.4476,279.7891 L681.2577,289.0117 L681.5329,298.2344 L680.0488,307.457 L681,316.6797 " fill="#A9A9A9" style="stroke: #A9A9A9; stroke-width: 1.5;"/><polygon fill="#A9A9A9" points="677,306.6797,677.065,306.7057,677.6718,308.6284,678.6598,310.7036,679.5237,312.7292,679.9792,314.5914,681,316.6797,680.9759,316.6701,681.668,314.6269,682.4813,312.6322,683.3789,310.6712,683.986,308.5941,685,306.6797,685.1305,306.8102,684.0514,307.3311,683.3534,308.2331,682.7018,309.1815,681.7798,309.8595,681,310.6797,681.0161,310.6958,680.1925,309.8722,679.4421,309.1218,678.6564,308.3361,677.938,307.6177,677,306.6797" style="stroke: #A9A9A9; stroke-width: 1.0;"/><path d="M372,150.3398 L372.0934,150.3398 L371.8159,154.3398 L372.0859,158.3398 L372.1776,162.3398 L371.6829,166.3398 L372,170.3398 " fill="#A9A9A9" style="stroke: #A9A9A9; stroke-width: 1.5;"/><polygon fill="#A9A9A9" points="368,160.3398,368.065,160.3659,368.6718,162.2886,369.6598,164.3638,370.5237,166.3893,370.9792,168.2515,372,170.3398,371.9759,170.3302,372.668,168.287,373.4813,166.2924,374.3789,164.3314,374.986,162.2543,376,160.3398,376.1305,160.4703,375.0514,160.9913,374.3534,161.8932,373.7018,162.8417,372.7798,163.5196,372,164.3398,372.0161,164.3559,371.1925,163.5323,370.4421,162.7819,369.6564,161.9962,368.938,161.2779,368,160.3398" style="stroke: #A9A9A9; stroke-width: 1.0;"/><path d="M372,322.6797 L372.0934,322.6797 L371.8159,326.6797 L372.0859,330.6797 L372.1776,334.6797 L371.6829,338.6797 L372,342.6797 " fill="#A9A9A9" style="stroke: #A9A9A9; stroke-width: 1.5;"/><polygon fill="#A9A9A9" points="368,332.6797,368.065,332.7057,368.6718,334.6284,369.6598,336.7036,370.5237,338.7292,370.9792,340.5914,372,342.6797,371.9759,342.6701,372.668,340.6269,373.4813,338.6322,374.3789,336.6712,374.986,334.5941,376,332.6797,376.1305,332.8102,375.0514,333.3311,374.3534,334.2331,373.7018,335.1815,372.7798,335.8595,372,336.6797,372.0161,336.6958,371.1925,335.8722,370.4421,335.1218,369.6564,334.3361,368.938,333.6177,368,332.6797" style="stroke: #A9A9A9; stroke-width: 1.0;"/><path d="M184,442.9063 L184.0934,442.9063 L183.8159,449.5176 L184.0859,456.1289 L184.1776,462.7402 L183.6829,469.3516 L184,475.9629 " fill="#A9A9A9" style="stroke: #A9A9A9; stroke-width: 1.5;"/><polygon fill="#A9A9A9" points="180,465.9629,180.065,465.9889,180.6718,467.9116,181.6598,469.9868,182.5237,472.0124,182.9792,473.8746,184,475.9629,183.9759,475.9533,184.668,473.9101,185.4813,471.9154,186.3789,469.9545,186.986,467.8773,188,465.9629,188.1305,466.0934,187.0514,466.6143,186.3534,467.5163,185.7018,468.4647,184.7798,469.1427,184,469.9629,184.0161,469.979,183.1925,469.1554,182.4421,468.405,181.6564,467.6193,180.938,466.9009,180,465.9629" style="stroke: #A9A9A9; stroke-width: 1.0;"/><path d="M426,442.9063 L426.0934,442.9063 L425.8159,446.9063 L426.0859,450.9063 L426.1776,454.9063 L425.6829,458.9063 L426,462.9063 " fill="#A9A9A9" style="stroke: #A9A9A9; stroke-width: 1.5;"/><polygon fill="#A9A9A9" points="422,452.9063,422.065,452.9323,422.6718,454.855,423.6598,456.9302,424.5237,458.9557,424.9792,460.8179,426,462.9063,425.9759,462.8966,426.668,460.8535,427.4813,458.8588,428.3789,456.8978,428.986,454.8207,430,452.9063,430.1305,453.0367,429.0514,453.5577,428.3534,454.4596,427.7018,455.4081,426.7798,456.086,426,456.9063,426.0161,456.9223,425.1925,456.0987,424.4421,455.3483,423.6564,454.5626,422.938,453.8443,422,452.9063" style="stroke: #A9A9A9; stroke-width: 1.0;"/><path d="M614,442.9063 L614.0934,442.9063 L613.8159,449.5176 L614.0859,456.1289 L614.1776,462.7402 L613.6829,469.3516 L614,475.9629 " fill="#A9A9A9" style="stroke: #A9A9A9; stroke-width: 1.5;"/><polygon fill="#A9A9A9" points="610,465.9629,610.065,465.9889,610.6718,467.9116,611.6598,469.9868,612.5237,472.0124,612.9792,473.8746,614,475.9629,613.9759,475.9533,614.668,473.9101,615.4813,471.9154,616.3789,469.9545,616.986,467.8773,618,465.9629,618.1305,466.0934,617.0514,466.6143,616.3534,467.5163,615.7018,468.4647,614.7798,469.1427,614,469.9629,614.0161,469.979,613.1925,469.1554,612.4421,468.405,611.6564,467.6193,610.938,466.9009,610,465.9629" style="stroke: #A9A9A9; stroke-width: 1.0;"/><path d="M184,524.0762 L184.0934,524.0762 L183.8159,530.6875 L184.0859,537.2988 L184.1776,543.9102 L183.6829,550.5215 L184,557.1328 " fill="#A9A9A9" style="stroke: #A9A9A9; stroke-width: 1.5;"/><polygon fill="#A9A9A9" points="180,547.1328,180.065,547.1588,180.6718,549.0815,181.6598,551.1567,182.5237,553.1823,182.9792,555.0445,184,557.1328,183.9759,557.1232,184.668,555.08,185.4813,553.0853,186.3789,551.1244,186.986,549.0472,188,547.1328,188.1305,547.2633,187.0514,547.7843,186.3534,548.6862,185.7018,549.6346,184.7798,550.3126,184,551.1328,184.0161,551.1489,183.1925,550.3253,182.4421,549.5749,181.6564,548.7892,180.938,548.0709,180,547.1328" style="stroke: #A9A9A9; stroke-width: 1.0;"/><path d="M426,537.1328 L426.0934,537.1328 L425.8159,541.1328 L426.0859,545.1328 L426.1776,549.1328 L425.6829,553.1328 L426,557.1328 " fill="#A9A9A9" style="stroke: #A9A9A9; stroke-width: 1.5;"/><polygon fill="#A9A9A9" points="422,547.1328,422.065,547.1588,422.6718,549.0815,423.6598,551.1567,424.5237,553.1823,424.9792,555.0445,426,557.1328,425.9759,557.1232,426.668,555.08,427.4813,553.0853,428.3789,551.1244,428.986,549.0472,430,547.1328,430.1305,547.2633,429.0514,547.7843,428.3534,548.6862,427.7018,549.6346,426.7798,550.3126,426,551.1328,426.0161,551.1489,425.1925,550.3253,424.4421,549.5749,423.6564,548.7892,422.938,548.0709,422,547.1328" style="stroke: #A9A9A9; stroke-width: 1.0;"/><path d="M614,524.0762 L614.0934,524.0762 L613.8159,530.6875 L614.0859,537.2988 L614.1776,543.9102 L613.6829,550.5215 L614,557.1328 " fill="#A9A9A9" style="stroke: #A9A9A9; stroke-width: 1.5;"/><polygon fill="#A9A9A9" points="610,547.1328,610.065,547.1588,610.6718,549.0815,611.6598,551.1567,612.5237,553.1823,612.9792,555.0445,614,557.1328,613.9759,557.1232,614.668,555.08,615.4813,553.0853,616.3789,551.1244,616.986,549.0472,618,547.1328,618.1305,547.2633,617.0514,547.7843,616.3534,548.6862,615.7018,549.6346,614.7798,550.3126,614,551.1328,614.0161,551.1489,613.1925,550.3253,612.4421,549.5749,611.6564,548.7892,610.938,548.0709,610,547.1328" style="stroke: #A9A9A9; stroke-width: 1.0;"/><path d="M372,416.9063 L372.0934,416.9063 L371.8159,420.9063 L372.0859,424.9063 L372.1776,428.9063 L371.6829,432.9063 L372,436.9063 " fill="#A9A9A9" style="stroke: #A9A9A9; stroke-width: 1.5;"/><polygon fill="#A9A9A9" points="368,426.9063,368.065,426.9323,368.6718,428.855,369.6598,430.9302,370.5237,432.9557,370.9792,434.8179,372,436.9063,371.9759,436.8966,372.668,434.8535,373.4813,432.8588,374.3789,430.8978,374.986,428.8207,376,426.9063,376.1305,427.0367,375.0514,427.5577,374.3534,428.4596,373.7018,429.4081,372.7798,430.086,372,430.9063,372.0161,430.9223,371.1925,430.0987,370.4421,429.3483,369.6564,428.5626,368.938,427.8443,368,426.9063" style="stroke: #A9A9A9; stroke-width: 1.0;"/><path d="M372,563.1328 L372.0934,563.1328 L371.8159,567.1328 L372.0859,571.1328 L372.1776,575.1328 L371.6829,579.1328 L372,583.1328 " fill="#A9A9A9" style="stroke: #A9A9A9; stroke-width: 1.5;"/><polygon fill="#A9A9A9" points="368,573.1328,368.065,573.1588,368.6718,575.0815,369.6598,577.1567,370.5237,579.1823,370.9792,581.0445,372,583.1328,371.9759,583.1232,372.668,581.08,373.4813,579.0853,374.3789,577.1244,374.986,575.0472,376,573.1328,376.1305,573.2633,375.0514,573.7843,374.3534,574.6862,373.7018,575.6346,372.7798,576.3126,372,577.1328,372.0161,577.1489,371.1925,576.3253,370.4421,575.5749,369.6564,574.7892,368.938,574.0709,368,573.1328" style="stroke: #A9A9A9; stroke-width: 1.0;"/><!--
@startuml
skinparam backgroundColor #222222
skinparam handwritten true
hide stereotype
hide circle
skinparam shadowing false
skinparam padding 1
skinparam activity {
    BorderColor #DarkGrey
    BackgroundColor #222222
    FontSize 20
    FontName courier
    FontStyle normal
    FontColor #DarkGrey
    BarColor #DarkGrey
    StartColor #DarkGrey
}
skinparam arrow {
    Thickness 2
    Color #DarkGrey
    FontSize 20
    FontName courier
    FontStyle normal
    FontColor #DarkGrey
}

start
:Crisis \ndel \nSoftware;
fork
  :Metodología\n en \nCascada;
fork again
  :Desarrollo \nIterativo (XP, ...);
fork again
  :Rational \nUnified \nProcess;
fork again
  :Scrum;
end fork
:Manifiesto \nAgil;
fork
  :Craftmanship;
fork again
  :Basic/Agile/Open/...\n Unified Process;
fork again
  :...;
end fork
stop
@enduml

PlantUML version 1.2019.05(Sat Apr 20 18:45:36 CEST 2019)
(GPL source distribution)
Java Runtime: Java(TM) SE Runtime Environment
JVM: Java HotSpot(TM) 64-Bit Server VM
Java Version: 11.0.14+8-LTS-263
Operating System: Windows 10
OS Version: 10.0
Default Encoding: windows-1252
Language: es
Country: ES
--></g></svg>