<?xml version="1.0" encoding="UTF-8" standalone="no"?><svg xmlns="http://www.w3.org/2000/svg" xmlns:xlink="http://www.w3.org/1999/xlink" contentScriptType="application/ecmascript" contentStyleType="text/css" height="385px" preserveAspectRatio="none" style="width:587px;height:385px;background:#222222;" version="1.1" viewBox="0 0 587 385" width="587px" zoomAndPan="magnify"><defs/><g><!--class UsadoAferente--><polygon fill="#222222" points="370,60,370,60.2102,380.25,59.5857,390.5,60.1933,400.75,60.3997,411,59.2866,421.25,59.9223,431.5,59.5735,441.75,59.6165,452,59.9318,462.25,59.3086,472.5,60.5536,482.75,59.3697,493,59.8022,503.25,60.4319,513.5,59.9142,523.75,60.0682,534,60,533.9681,60,534.1785,70.8227,534.2391,81.6453,534.5857,92.468,534.6711,103.2906,534,114.1133,534,114.7925,523.75,114.3679,513.5,114.5769,503.25,114.8155,493,113.3921,482.75,114.7918,472.5,113.8168,462.25,114.6471,452,113.6183,441.75,114.0448,431.5,114.8549,421.25,114.0645,411,114.2186,400.75,114.4519,390.5,114.5295,380.25,114.1094,370,114.1133,370.2872,114.1133,369.4276,103.2906,370.2844,92.468,370.5482,81.6453,370.4445,70.8227,370,60" style="stroke: #196719; stroke-width: 3.0;"/><text fill="#196719" font-family="courier" font-size="20" font-weight="bold" lengthAdjust="spacingAndGlyphs" textLength="156" x="374" y="86.1074">UsadoAferente</text><path d="M371,98.1133 L371,98.3935 L381.125,97.5609 L391.25,98.371 L401.375,98.6462 L411.5,97.1621 L421.625,98.0097 L431.75,97.5446 L441.875,97.6019 L452,98.0224 L462.125,97.1915 L472.25,98.8515 L482.375,97.2729 L492.5,97.8496 L502.625,98.6892 L512.75,97.9989 L522.875,98.2043 L533,98.1133 " fill="#222222" style="stroke: #196719; stroke-width: 3.0;"/><path d="M371,106.1133 L371,106.3935 L381.125,105.5609 L391.25,106.371 L401.375,106.6462 L411.5,105.1621 L421.625,106.0097 L431.75,105.5446 L441.875,105.6019 L452,106.0224 L462.125,105.1915 L472.25,106.8515 L482.375,105.2729 L492.5,105.8496 L502.625,106.6892 L512.75,105.9989 L522.875,106.2043 L533,106.1133 " fill="#222222" style="stroke: #196719; stroke-width: 3.0;"/><!--class Todo--><polygon fill="#222222" points="279,60,279,60.2102,288.3333,59.5857,297.6667,60.1933,307,60.3997,316.3333,59.2866,325.6667,59.9223,335,60,334.5735,60,334.6165,70.8227,334.9318,81.6453,334.3086,92.468,335.5536,103.2906,335,114.1133,335,113.483,325.6667,113.9155,316.3333,114.5452,307,114.0275,297.6667,114.1815,288.3333,114.0813,279,114.1133,279.1785,114.1133,279.2391,103.2906,279.5857,92.468,279.6711,81.6453,279.6793,70.8227,279,60" style="stroke: #196719; stroke-width: 3.0;"/><text fill="#196719" font-family="courier" font-size="20" font-weight="bold" lengthAdjust="spacingAndGlyphs" textLength="48" x="283" y="86.1074">Todo</text><path d="M280,98.1133 L280,98.3935 L290.8,97.5609 L301.6,98.371 L312.4,98.6462 L323.2,97.1621 L334,98.1133 " fill="#222222" style="stroke: #196719; stroke-width: 3.0;"/><path d="M280,106.1133 L280,106.3935 L290.8,105.5609 L301.6,106.371 L312.4,106.6462 L323.2,105.1621 L334,106.1133 " fill="#222222" style="stroke: #196719; stroke-width: 3.0;"/><!--class Base--><polygon fill="#222222" points="188,60,188,60.2102,197.3333,59.5857,206.6667,60.1933,216,60.3997,225.3333,59.2866,234.6667,59.9223,244,60,243.5735,60,243.6165,70.8227,243.9318,81.6453,243.3086,92.468,244.5536,103.2906,244,114.1133,244,113.483,234.6667,113.9155,225.3333,114.5452,216,114.0275,206.6667,114.1815,197.3333,114.0813,188,114.1133,188.1785,114.1133,188.2391,103.2906,188.5857,92.468,188.6711,81.6453,188.6793,70.8227,188,60" style="stroke: #196719; stroke-width: 3.0;"/><text fill="#196719" font-family="courier" font-size="20" font-weight="bold" lengthAdjust="spacingAndGlyphs" textLength="48" x="192" y="86.1074">Base</text><path d="M189,98.1133 L189,98.3935 L199.8,97.5609 L210.6,98.371 L221.4,98.6462 L232.2,97.1621 L243,98.1133 " fill="#222222" style="stroke: #196719; stroke-width: 3.0;"/><path d="M189,106.1133 L189,106.3935 L199.8,105.5609 L210.6,106.371 L221.4,106.6462 L232.2,105.1621 L243,106.1133 " fill="#222222" style="stroke: #196719; stroke-width: 3.0;"/><!--class AsociadoAferente--><polygon fill="#222222" points="38,190,38,190.2102,48,189.5857,58,190.1933,68,190.3997,78,189.2866,88,189.9223,98,189.5735,108,189.6165,118,189.9318,128,189.3086,138,190.5536,148,189.3697,158,189.8022,168,190.4319,178,189.9142,188,190.0682,198,189.9681,208,190.1785,218,190.2391,228,190.5857,238,190,238.6711,190,238.6793,200.8227,238.2546,211.6453,238.4636,222.468,238.7022,233.2906,238,244.1133,238,243.3921,228,244.7918,218,243.8168,208,244.6471,198,243.6183,188,244.0448,178,244.8549,168,244.0645,158,244.2186,148,244.4519,138,244.5295,128,244.1094,118,244.4005,108,243.5409,98,244.3977,88,244.6615,78,244.5578,68,244.7263,58,243.6302,48,243.4611,38,244.1133,37.3786,244.1133,37.9411,233.2906,37.8035,222.468,38.6814,211.6453,37.8253,200.8227,38,190" style="stroke: #196719; stroke-width: 3.0;"/><text fill="#196719" font-family="courier" font-size="20" font-weight="bold" lengthAdjust="spacingAndGlyphs" textLength="192" x="42" y="216.1074">AsociadoAferente</text><path d="M39,228.1133 L39,228.3935 L48.9,227.5609 L58.8,228.371 L68.7,228.6462 L78.6,227.1621 L88.5,228.0097 L98.4,227.5446 L108.3,227.6019 L118.2,228.0224 L128.1,227.1915 L138,228.8515 L147.9,227.2729 L157.8,227.8496 L167.7,228.6892 L177.6,227.9989 L187.5,228.2043 L197.4,228.0707 L207.3,228.3513 L217.2,228.4321 L227.1,228.8942 L237,228.1133 " fill="#222222" style="stroke: #196719; stroke-width: 3.0;"/><path d="M39,236.1133 L39,236.3935 L48.9,235.5609 L58.8,236.371 L68.7,236.6462 L78.6,235.1621 L88.5,236.0097 L98.4,235.5446 L108.3,235.6019 L118.2,236.0224 L128.1,235.1915 L138,236.8515 L147.9,235.2729 L157.8,235.8496 L167.7,236.6892 L177.6,235.9989 L187.5,236.2043 L197.4,236.0707 L207.3,236.3513 L217.2,236.4321 L227.1,236.8942 L237,236.1133 " fill="#222222" style="stroke: #196719; stroke-width: 3.0;"/><!--class Clase--><polygon fill="#222222" points="273,190,273,190.2102,282.7143,189.5857,292.4286,190.1933,302.1429,190.3997,311.8571,189.2866,321.5714,189.9223,331.2857,189.5735,341,190,340.6165,190,340.9318,200.8227,340.3086,211.6453,341.5536,222.468,340.3697,233.2906,341,244.1133,341,243.9155,331.2857,244.5452,321.5714,244.0275,311.8571,244.1815,302.1429,244.0813,292.4286,244.2918,282.7143,244.3524,273,244.1133,273.5857,244.1133,273.6711,233.2906,273.6793,222.468,273.2546,211.6453,273.4636,200.8227,273,190" style="stroke: #196719; stroke-width: 3.0;"/><text fill="#196719" font-family="courier" font-size="20" font-weight="bold" lengthAdjust="spacingAndGlyphs" textLength="60" x="277" y="216.1074">Clase</text><path d="M274,228.1133 L274,228.3935 L283.4286,227.5609 L292.8571,228.371 L302.2857,228.6462 L311.7143,227.1621 L321.1429,228.0097 L330.5714,227.5446 L340,228.1133 " fill="#222222" style="stroke: #196719; stroke-width: 3.0;"/><path d="M274,236.1133 L274,236.3935 L283.4286,235.5609 L292.8571,236.371 L302.2857,236.6462 L311.7143,235.1621 L321.1429,236.0097 L330.5714,235.5446 L340,236.1133 " fill="#222222" style="stroke: #196719; stroke-width: 3.0;"/><!--class AsociadoEferente--><polygon fill="#222222" points="376,190,376,190.2102,386,189.5857,396,190.1933,406,190.3997,416,189.2866,426,189.9223,436,189.5735,446,189.6165,456,189.9318,466,189.3086,476,190.5536,486,189.3697,496,189.8022,506,190.4319,516,189.9142,526,190.0682,536,189.9681,546,190.1785,556,190.2391,566,190.5857,576,190,576.6711,190,576.6793,200.8227,576.2546,211.6453,576.4636,222.468,576.7022,233.2906,576,244.1133,576,243.3921,566,244.7918,556,243.8168,546,244.6471,536,243.6183,526,244.0448,516,244.8549,506,244.0645,496,244.2186,486,244.4519,476,244.5295,466,244.1094,456,244.4005,446,243.5409,436,244.3977,426,244.6615,416,244.5578,406,244.7263,396,243.6302,386,243.4611,376,244.1133,375.3786,244.1133,375.9411,233.2906,375.8035,222.468,376.6814,211.6453,375.8253,200.8227,376,190" style="stroke: #196719; stroke-width: 3.0;"/><text fill="#196719" font-family="courier" font-size="20" font-weight="bold" lengthAdjust="spacingAndGlyphs" textLength="192" x="380" y="216.1074">AsociadoEferente</text><path d="M377,228.1133 L377,228.3935 L386.9,227.5609 L396.8,228.371 L406.7,228.6462 L416.6,227.1621 L426.5,228.0097 L436.4,227.5446 L446.3,227.6019 L456.2,228.0224 L466.1,227.1915 L476,228.8515 L485.9,227.2729 L495.8,227.8496 L505.7,228.6892 L515.6,227.9989 L525.5,228.2043 L535.4,228.0707 L545.3,228.3513 L555.2,228.4321 L565.1,228.8942 L575,228.1133 " fill="#222222" style="stroke: #196719; stroke-width: 3.0;"/><path d="M377,236.1133 L377,236.3935 L386.9,235.5609 L396.8,236.371 L406.7,236.6462 L416.6,235.1621 L426.5,236.0097 L436.4,235.5446 L446.3,235.6019 L456.2,236.0224 L466.1,235.1915 L476,236.8515 L485.9,235.2729 L495.8,235.8496 L505.7,236.6892 L515.6,235.9989 L525.5,236.2043 L535.4,236.0707 L545.3,236.3513 L555.2,236.4321 L565.1,236.8942 L575,236.1133 " fill="#222222" style="stroke: #196719; stroke-width: 3.0;"/><!--class UsadoEferente--><polygon fill="#222222" points="376,320,376,320.2102,386.25,319.5857,396.5,320.1933,406.75,320.3997,417,319.2866,427.25,319.9223,437.5,319.5735,447.75,319.6165,458,319.9318,468.25,319.3086,478.5,320.5536,488.75,319.3697,499,319.8022,509.25,320.4319,519.5,319.9142,529.75,320.0682,540,320,539.9681,320,540.1785,330.8227,540.2391,341.6453,540.5857,352.468,540.6711,363.2906,540,374.1133,540,374.7925,529.75,374.3679,519.5,374.5769,509.25,374.8155,499,373.3921,488.75,374.7918,478.5,373.8168,468.25,374.6471,458,373.6183,447.75,374.0448,437.5,374.8549,427.25,374.0645,417,374.2186,406.75,374.4519,396.5,374.5295,386.25,374.1094,376,374.1133,376.2872,374.1133,375.4276,363.2906,376.2844,352.468,376.5482,341.6453,376.4445,330.8227,376,320" style="stroke: #196719; stroke-width: 3.0;"/><text fill="#196719" font-family="courier" font-size="20" font-weight="bold" lengthAdjust="spacingAndGlyphs" textLength="156" x="380" y="346.1074">UsadoEferente</text><path d="M377,358.1133 L377,358.3935 L387.125,357.5609 L397.25,358.371 L407.375,358.6462 L417.5,357.1621 L427.625,358.0097 L437.75,357.5446 L447.875,357.6019 L458,358.0224 L468.125,357.1915 L478.25,358.8515 L488.375,357.2729 L498.5,357.8496 L508.625,358.6892 L518.75,357.9989 L528.875,358.2043 L539,358.1133 " fill="#222222" style="stroke: #196719; stroke-width: 3.0;"/><path d="M377,366.1133 L377,366.3935 L387.125,365.5609 L397.25,366.371 L407.375,366.6462 L417.5,365.1621 L427.625,366.0097 L437.75,365.5446 L447.875,365.6019 L458,366.0224 L468.125,365.1915 L478.25,366.8515 L488.375,365.2729 L498.5,365.8496 L508.625,366.6892 L518.75,365.9989 L528.875,366.2043 L539,366.1133 " fill="#222222" style="stroke: #196719; stroke-width: 3.0;"/><!--class Parte--><polygon fill="#222222" points="273,320,273,320.2102,282.7143,319.5857,292.4286,320.1933,302.1429,320.3997,311.8571,319.2866,321.5714,319.9223,331.2857,319.5735,341,320,340.6165,320,340.9318,330.8227,340.3086,341.6453,341.5536,352.468,340.3697,363.2906,341,374.1133,341,373.9155,331.2857,374.5452,321.5714,374.0275,311.8571,374.1815,302.1429,374.0813,292.4286,374.2918,282.7143,374.3524,273,374.1133,273.5857,374.1133,273.6711,363.2906,273.6793,352.468,273.2546,341.6453,273.4636,330.8227,273,320" style="stroke: #196719; stroke-width: 3.0;"/><text fill="#196719" font-family="courier" font-size="20" font-weight="bold" lengthAdjust="spacingAndGlyphs" textLength="60" x="277" y="346.1074">Parte</text><path d="M274,358.1133 L274,358.3935 L283.4286,357.5609 L292.8571,358.371 L302.2857,358.6462 L311.7143,357.1621 L321.1429,358.0097 L330.5714,357.5446 L340,358.1133 " fill="#222222" style="stroke: #196719; stroke-width: 3.0;"/><path d="M274,366.1133 L274,366.3935 L283.4286,365.5609 L292.8571,366.371 L302.2857,366.6462 L311.7143,365.1621 L321.1429,366.0097 L330.5714,365.5446 L340,366.1133 " fill="#222222" style="stroke: #196719; stroke-width: 3.0;"/><!--class Derivada--><polygon fill="#222222" points="134,320,134,320.2102,144.4,319.5857,154.8,320.1933,165.2,320.3997,175.6,319.2866,186,319.9223,196.4,319.5735,206.8,319.6165,217.2,319.9318,227.6,319.3086,238,320,238.5536,320,237.3697,330.8227,237.8022,341.6453,238.4319,352.468,237.9142,363.2906,238,374.1133,238,374.1815,227.6,374.0813,217.2,374.2918,206.8,374.3524,196.4,374.699,186,374.7843,175.6,374.7925,165.2,374.3679,154.8,374.5769,144.4,374.8155,134,374.1133,133.2788,374.1133,134.6785,363.2906,133.7035,352.468,134.5338,341.6453,133.505,330.8227,134,320" style="stroke: #196719; stroke-width: 3.0;"/><text fill="#196719" font-family="courier" font-size="20" font-weight="bold" lengthAdjust="spacingAndGlyphs" textLength="96" x="138" y="346.1074">Derivada</text><path d="M135,358.1133 L135,358.3935 L145.2,357.5609 L155.4,358.371 L165.6,358.6462 L175.8,357.1621 L186,358.0097 L196.2,357.5446 L206.4,357.6019 L216.6,358.0224 L226.8,357.1915 L237,358.1133 " fill="#222222" style="stroke: #196719; stroke-width: 3.0;"/><path d="M135,366.1133 L135,366.3935 L145.2,365.5609 L155.4,366.371 L165.6,366.6462 L175.8,365.1621 L186,366.0097 L196.2,365.5446 L206.4,365.6019 L216.6,366.0224 L226.8,365.1915 L237,366.1133 " fill="#222222" style="stroke: #196719; stroke-width: 3.0;"/><!--link Base to Clase--><path d="M246.39,130.75 L246.6184,130.9124 L251.9398,138.8685 L258.6,147.7765 L264.8243,156.3745 L269.6148,163.9531 L276.3056,172.8828 L281.9265,181.0519 L288.39,189.82 " fill="none" style="stroke: #196719; stroke-width: 2.0;"/><polygon fill="none" points="240.52,134.57,240.5873,134.5895,239.2093,130.4596,238.2259,126.4439,237.114,122.391,235.5796,118.2159,234.63,114.21,234.615,114.1889,238.0078,116.544,241.4761,119.0057,244.9969,121.5415,248.3368,123.8219,251.93,126.46,252.0369,126.6104,249.5263,127.9108,247.3278,129.6503,245.1674,131.4434,242.7854,132.9247,240.52,134.57" style="stroke: #196719; stroke-width: 2.0;"/><!--link Clase to Derivada--><path d="M268.27,258.97 L268.4737,259.1625 L260.6785,266.1968 L254.0773,274.3595 L247.0873,282.1548 L238.8188,288.7416 L232.2447,296.9301 L224.7167,304.2169 L217.5684,311.8625 L210.75,319.82 " fill="none" style="stroke: #196719; stroke-width: 2.0;"/><polygon fill="none" points="263.4,253.94,263.4322,254.0022,267.1006,251.8713,270.9576,250.1052,274.7532,248.2203,278.3468,245.9448,282.22,244.21,282.1964,244.1994,280.3602,248.02,278.6433,251.8938,277.0093,255.8047,275.0896,259.5879,273.57,263.55,273.6967,263.6841,271.3917,261.4753,269.4567,259.6581,267.5669,257.8887,265.4144,255.8412,263.4,253.94" style="stroke: #196719; stroke-width: 2.0;"/><!--link Todo to Clase--><path d="M307,127.5 L307.2802,127.5 L306.4476,137.36 L307.2577,147.22 L307.5329,157.08 L306.0488,166.94 L307,176.8 " fill="none" style="stroke: #196719; stroke-width: 2.0;"/><polygon fill="#196719" points="307,189.82,307.064,189.8485,307.6738,187.9639,308.6589,186.2462,309.5217,184.4741,309.9827,182.5234,311,180.82,310.9817,180.8017,310.0995,181.5195,309.3096,182.3296,308.5839,183.2039,307.637,183.857,307,184.82,307.1305,184.9505,306.0514,183.8714,305.3534,183.1734,304.7018,182.5218,303.7798,181.5998,303,180.82,303.0208,180.8292,303.7903,182.6157,304.6544,184.4442,305.4728,186.2524,306.3784,188.0993,307,189.82" style="stroke: #196719; stroke-width: 2.0;"/><path d="M307,184.82 L307.0934,184.82 L306.8159,183.22 L307.0859,181.62 L307.1776,180.02 L306.6829,178.42 L307,176.82 " fill="#196719" style="stroke: #196719; stroke-width: 2.0;"/><polygon fill="#196719" points="307,114.21,307.0583,114.2489,306.0851,115.3334,305.4536,116.6457,304.7109,117.8839,303.6021,118.8781,303,120.21,302.9784,120.1956,303.6817,121.3311,304.4936,122.5391,305.3811,123.7974,306.0082,124.8822,307,126.21,307.1536,126.3124,307.6252,124.8935,308.5451,123.7734,309.5198,122.6899,310.1762,121.3941,311,120.21,311.0189,120.2226,310.1911,119.0041,309.4495,117.843,308.6663,116.6542,307.9624,115.5183,307,114.21" style="stroke: #196719; stroke-width: 2.0;"/><!--link Clase to Parte--><path d="M307,257.5 L307.2802,257.5 L306.4476,267.36 L307.2577,277.22 L307.5329,287.08 L306.0488,296.94 L307,306.8 " fill="none" style="stroke: #196719; stroke-width: 2.0;"/><polygon fill="#196719" points="307,319.82,307.064,319.8485,307.6738,317.9639,308.6589,316.2462,309.5217,314.4741,309.9827,312.5234,311,310.82,310.9817,310.8017,310.0995,311.5195,309.3096,312.3296,308.5839,313.2039,307.637,313.857,307,314.82,307.1305,314.9505,306.0514,313.8714,305.3534,313.1734,304.7018,312.5218,303.7798,311.5998,303,310.82,303.0208,310.8292,303.7903,312.6157,304.6544,314.4442,305.4728,316.2524,306.3784,318.0993,307,319.82" style="stroke: #196719; stroke-width: 2.0;"/><path d="M307,314.82 L307.0934,314.82 L306.8159,313.22 L307.0859,311.62 L307.1776,310.02 L306.6829,308.42 L307,306.82 " fill="#196719" style="stroke: #196719; stroke-width: 2.0;"/><polygon fill="#196719" points="307,244.21,307.0583,244.2489,306.0851,245.3334,305.4536,246.6457,304.7109,247.8839,303.6021,248.8781,303,250.21,302.9784,250.1956,303.6817,251.3311,304.4936,252.5391,305.3811,253.7974,306.0082,254.8822,307,256.21,307.1536,256.3124,307.6252,254.8935,308.5451,253.7734,309.5198,252.6899,310.1762,251.3941,311,250.21,311.0189,250.2226,310.1911,249.0041,309.4495,247.843,308.6663,246.6542,307.9624,245.5183,307,244.21" style="stroke: #196719; stroke-width: 2.0;"/><!--link UsadoAferente to Clase--><path d="M402.73,114.01 L402.7799,114.089 L400.3746,115.2813 L398.2619,116.9364 L396.0539,118.4409 L393.5326,119.4496 L391.445,121.1445 L391.4254,121.1161 L389.0806,122.5407 L386.8344,124.1088 L384.6568,125.7766 L382.2429,127.1007 L380.16,128.9063 L380.3089,129.1021 L377.804,130.3455 L375.7338,132.1607 L373.7167,134.0457 L371.3909,135.5248 L369.2275,137.2173 L369.2473,137.2404 L367.1727,138.9631 L365.1882,140.7906 L363.1602,142.5676 L361.2151,144.441 L359,146 L359.2111,146.2107 L357.3796,148.0514 L355.4119,149.7563 L353.6435,151.6601 L351.8844,153.5732 L349.8294,155.1909 L349.5875,154.9807 L348.3241,157.3826 L346.2642,159.0921 L344.8098,161.328 L342.7318,163.0219 L341.165,165.16 L341.141,165.1413 L339.8224,167.4152 L337.9432,169.2513 L336.3948,171.3457 L334.8741,173.4619 L333.1531,175.4216 L333.3035,175.5293 L331.7091,177.4342 L330.3716,179.5233 L328.6184,181.3145 L327.4854,183.5499 L325.94,185.49 " fill="none" style="stroke: #196719; stroke-width: 2.0; stroke-dasharray: 7.0,7.0;"/><polygon fill="#196719" points="322.98,189.85,323.0171,189.9094,324.5776,188.6895,326.3556,187.8179,328.0628,186.8329,329.537,185.4749,331.3337,184.6332,331.3288,184.6078,330.196,184.7085,329.0879,184.9374,327.9971,185.2554,326.8468,185.2663,325.7798,185.7074,325.961,185.7425,325.3587,184.5567,325.2854,183.4733,325.2767,182.4024,324.8924,181.2588,324.7056,180.1535,324.728,180.1575,324.35,182.0909,324.0739,184.0425,323.7487,185.9854,323.5173,187.9449,322.98,189.85" style="stroke: #196719; stroke-width: 2.0;"/><!--link Clase to UsadoEferente--><path d="M333.25,244.21 L333.3142,244.2778 L335.6616,246.48 L338.3856,249.0799 L340.9869,251.5502 L343.185,253.5948 L345.9413,256.2288 L345.9181,256.2031 L348.4261,258.4422 L351.0506,260.8106 L353.7562,263.269 L356.1825,265.4175 L359,268 L359.1595,268.1874 L361.7855,270.3125 L364.8773,272.9847 L368.0258,275.7236 L370.8438,278.0742 L373.8356,280.6291 L373.8549,280.6525 L376.8935,283.1323 L380.0197,285.7188 L383.1036,288.2538 L386.2682,290.8871 L389.17,293.2 L389.3558,293.4333 L392.3995,295.8588 L395.3233,298.1339 L398.4225,300.6292 L401.53,303.1349 L404.3769,305.3134 L404.1799,305.0606 L407.4528,307.8027 L410.0772,309.7121 L413.1945,312.2546 L415.8042,314.1451 L418.83,316.57 " fill="none" style="stroke: #196719; stroke-width: 2.0; stroke-dasharray: 7.0,7.0;"/><polygon fill="#196719" points="422.96,319.74,423.0217,319.7733,421.9031,317.9409,421.146,316.3035,420.2712,314.6026,419.0094,312.6929,418.2833,311.0723,418.2576,311.069,418.2863,312.1764,418.4445,313.3004,418.6928,314.4359,418.6307,315.5317,419.0033,316.6832,419.0267,316.8662,417.8544,316.6188,416.7505,316.9058,415.6551,317.2579,414.5109,317.2308,413.3924,317.4031,413.3978,317.4252,415.3034,317.8601,417.2336,318.3957,419.1519,318.8827,421.0928,319.4623,422.96,319.74" style="stroke: #196719; stroke-width: 2.0;"/><!--link AsociadoAferente to Clase--><path d="M238.01,217 L238.01,217.0934 L243.932,216.8159 L249.854,217.0859 L255.776,217.1776 L261.698,216.6829 L267.62,217 " fill="none" style="stroke: #196719; stroke-width: 2.0;"/><polygon fill="#196719" points="272.78,217,272.8085,217.064,270.9239,216.0738,269.2062,215.4589,267.4341,214.7217,265.4834,213.5827,263.78,213,263.7617,212.9817,264.4795,213.6995,265.2896,214.5096,266.1639,215.3839,266.817,216.037,267.78,217,267.9105,217.1305,266.8314,217.6514,266.1334,218.5534,265.4818,219.5018,264.5598,220.1798,263.78,221,263.7892,221.0208,265.5757,220.1903,267.4042,219.4544,269.2124,218.6728,271.0593,217.9784,272.78,217" style="stroke: #196719; stroke-width: 2.0;"/><!--link Clase to AsociadoEferente--><path d="M341.33,217 L341.33,217.0934 L347.198,216.8159 L353.066,217.0859 L358.934,217.1776 L364.802,216.6829 L370.67,217 " fill="none" style="stroke: #196719; stroke-width: 2.0;"/><polygon fill="#196719" points="375.79,217,375.8185,217.064,373.9339,216.0738,372.2162,215.4589,370.4441,214.7217,368.4934,213.5827,366.79,213,366.7717,212.9817,367.4895,213.6995,368.2996,214.5096,369.1739,215.3839,369.827,216.037,370.79,217,370.9205,217.1305,369.8414,217.6514,369.1434,218.5534,368.4918,219.5018,367.5698,220.1798,366.79,221,366.7992,221.0208,368.5857,220.1903,370.4142,219.4544,372.2224,218.6728,374.0693,217.9784,375.79,217" style="stroke: #196719; stroke-width: 2.0;"/><!--
@startuml
skinparam titleFontColor #FFD700
skinparam backgroundColor #222222
skinparam handwritten true
hide circle
hide stereotype
skinparam shadowing false
skinparam padding 1
skinparam arrow {
    Thickness 2
    Color #196719
    FontSize 20
    FontName courier
    FontStyle bold
    FontColor #196719
}
skinparam class {
    BorderThickness 3
    BorderColor #196719
    BackgroundColor #222222
    FontSize 20
    FontName courier
    FontStyle bold
    FontColor #196719
}

together {
class UsadoAferente <<a>>
class Todo <<a>>
class Base <<b>>
}

together {
class AsociadoAferente <<a>>
class Clase  <<c>>
class AsociadoEferente <<b>>
}

together {
class UsadoEferente <<b>>
class Parte <<b>>
class Derivada <<a>>
}

Base <|-down- Clase
Clase <|-down- Derivada

Todo *-down-> Clase
Clase *-down-> Parte

UsadoAferente .down.> Clase
Clase .down.> UsadoEferente

AsociadoAferente -right-> Clase
Clase -right-> AsociadoEferente
@enduml

PlantUML version 1.2019.05(Sat Apr 20 18:45:36 CEST 2019)
(GPL source distribution)
Java Runtime: Java(TM) SE Runtime Environment
JVM: Java HotSpot(TM) 64-Bit Server VM
Java Version: 11.0.14+8-LTS-263
Operating System: Windows 10
OS Version: 10.0
Default Encoding: windows-1252
Language: es
Country: ES
--></g></svg>