<?xml version="1.0" encoding="UTF-8" standalone="no"?><svg xmlns="http://www.w3.org/2000/svg" xmlns:xlink="http://www.w3.org/1999/xlink" contentScriptType="application/ecmascript" contentStyleType="text/css" height="1420px" preserveAspectRatio="none" style="width:1306px;height:1420px;background:#222222;" version="1.1" viewBox="0 0 1306 1420" width="1306px" zoomAndPan="magnify"><defs/><g><!--cluster analysis--><polygon fill="#222222" points="481,24,585,24,592,58.1133,684,58.1133,684,418,481,418,481,24" style="stroke: #196719; stroke-width: 1.5;"/><line style="stroke: #196719; stroke-width: 1.5;" x1="481" x2="592" y1="58.1133" y2="58.1133"/><text fill="#196719" font-family="courier" font-size="20" font-weight="bold" lengthAdjust="spacingAndGlyphs" textLength="96" x="486" y="47.1074">analysis</text><!--cluster front--><polygon fill="#222222" points="779,480,847,480,854,514.1133,1284,514.1133,1284,1256,779,1256,779,480" style="stroke: #196719; stroke-width: 1.5;"/><line style="stroke: #196719; stroke-width: 1.5;" x1="779" x2="854" y1="514.1133" y2="514.1133"/><text fill="#196719" font-family="courier" font-size="20" font-weight="bold" lengthAdjust="spacingAndGlyphs" textLength="60" x="784" y="503.1074">front</text><text fill="#196719" font-family="courier" font-size="20" lengthAdjust="spacingAndGlyphs" textLength="144" x="963.5" y="537.2207">«angular:10»</text><!--cluster backend--><polygon fill="#222222" points="171,897,263,897,270,931.1133,650,931.1133,650,1408,171,1408,171,897" style="stroke: #196719; stroke-width: 1.5;"/><line style="stroke: #196719; stroke-width: 1.5;" x1="171" x2="270" y1="931.1133" y2="931.1133"/><text fill="#196719" font-family="courier" font-size="20" font-weight="bold" lengthAdjust="spacingAndGlyphs" textLength="84" x="176" y="920.1074">backend</text><text fill="#196719" font-family="courier" font-size="20" lengthAdjust="spacingAndGlyphs" textLength="144" x="342.5" y="954.2207">«spring:3.2»</text><!--entity XView--><path d="M616.5,75 L616.5,99 M616.5,87 L633.5,87 " fill="none" style="stroke: #196719; stroke-width: 2.0;"/><ellipse cx="645.5" cy="87" fill="#222222" rx="12" ry="12" style="stroke: #196719; stroke-width: 2.0;"/><text fill="#196719" font-family="courier" font-size="20" font-weight="bold" lengthAdjust="spacingAndGlyphs" textLength="60" x="607" y="124.1074">XView</text><!--entity XController--><ellipse cx="601" cy="208" fill="#222222" rx="12" ry="12" style="stroke: #196719; stroke-width: 2.0;"/><polygon fill="#196719" points="597,196,603,191,601,196,603,201,597,196" style="stroke: #196719; stroke-width: 1.0;"/><text fill="#196719" font-family="courier" font-size="20" font-weight="bold" lengthAdjust="spacingAndGlyphs" textLength="132" x="535" y="245.1074">XController</text><!--entity XEntity--><ellipse cx="540" cy="358" fill="#222222" rx="12" ry="12" style="stroke: #196719; stroke-width: 2.0;"/><line style="stroke: #196719; stroke-width: 2.0;" x1="528" x2="552" y1="372" y2="372"/><text fill="#196719" font-family="courier" font-size="20" font-weight="bold" lengthAdjust="spacingAndGlyphs" textLength="84" x="498" y="395.1074">XEntity</text><!--entity XDao--><ellipse cx="643" cy="358" fill="#222222" rx="12" ry="12" style="stroke: #196719; stroke-width: 2.0;"/><line style="stroke: #196719; stroke-width: 2.0;" x1="631" x2="655" y1="372" y2="372"/><text fill="#196719" font-family="courier" font-size="20" font-weight="bold" lengthAdjust="spacingAndGlyphs" textLength="48" x="619" y="395.1074">XDao</text><!--entity XStyle--><path d="M811.5,765.1133 L811.5,789.1133 M811.5,777.1133 L828.5,777.1133 " fill="none" style="stroke: #196719; stroke-width: 2.0;"/><ellipse cx="840.5" cy="777.1133" fill="#222222" rx="12" ry="12" style="stroke: #196719; stroke-width: 2.0;"/><text fill="#196719" font-family="courier" font-size="20" font-weight="bold" lengthAdjust="spacingAndGlyphs" textLength="72" x="796" y="814.2207">XStyle</text><text fill="#196719" font-family="courier" font-size="20" lengthAdjust="spacingAndGlyphs" textLength="60" x="802" y="754.1074">«CSS»</text><!--entity XTemplate--><path d="M919.5,587.1133 L919.5,611.1133 M919.5,599.1133 L936.5,599.1133 " fill="none" style="stroke: #196719; stroke-width: 2.0;"/><ellipse cx="948.5" cy="599.1133" fill="#222222" rx="12" ry="12" style="stroke: #196719; stroke-width: 2.0;"/><text fill="#196719" font-family="courier" font-size="20" font-weight="bold" lengthAdjust="spacingAndGlyphs" textLength="108" x="886" y="636.2207">XTemplate</text><text fill="#196719" font-family="courier" font-size="20" lengthAdjust="spacingAndGlyphs" textLength="72" x="904" y="576.1074">«HTML»</text><!--entity XComponent--><path d="M1082.5,587.1133 L1082.5,611.1133 M1082.5,599.1133 L1099.5,599.1133 " fill="none" style="stroke: #196719; stroke-width: 2.0;"/><ellipse cx="1111.5" cy="599.1133" fill="#222222" rx="12" ry="12" style="stroke: #196719; stroke-width: 2.0;"/><text fill="#196719" font-family="courier" font-size="20" font-weight="bold" lengthAdjust="spacingAndGlyphs" textLength="120" x="1043" y="636.2207">XComponent</text><text fill="#196719" font-family="courier" font-size="20" lengthAdjust="spacingAndGlyphs" textLength="144" x="1031" y="576.1074">«TypeScript»</text><!--entity XValidator--><path d="M1174.5,765.1133 L1174.5,789.1133 M1174.5,777.1133 L1191.5,777.1133 " fill="none" style="stroke: #196719; stroke-width: 2.0;"/><ellipse cx="1203.5" cy="777.1133" fill="#222222" rx="12" ry="12" style="stroke: #196719; stroke-width: 2.0;"/><text fill="#196719" font-family="courier" font-size="20" font-weight="bold" lengthAdjust="spacingAndGlyphs" textLength="120" x="1135" y="814.2207">XValidator</text><text fill="#196719" font-family="courier" font-size="20" lengthAdjust="spacingAndGlyphs" textLength="144" x="1123" y="754.1074">«TypeScript»</text><!--entity XService--><ellipse cx="977" cy="777.1133" fill="#222222" rx="12" ry="12" style="stroke: #196719; stroke-width: 2.0;"/><polygon fill="#196719" points="973,765.1133,979,760.1133,977,765.1133,979,770.1133,973,765.1133" style="stroke: #196719; stroke-width: 1.0;"/><text fill="#196719" font-family="courier" font-size="20" font-weight="bold" lengthAdjust="spacingAndGlyphs" textLength="96" x="929" y="814.2207">XService</text><text fill="#196719" font-family="courier" font-size="20" lengthAdjust="spacingAndGlyphs" textLength="144" x="905" y="754.1074">«TypeScript»</text><!--entity HTTPService--><ellipse cx="983" cy="988" fill="#222222" rx="12" ry="12" style="stroke: #196719; stroke-width: 2.0;"/><line style="stroke: #196719; stroke-width: 2.0;" x1="971" x2="995" y1="1002" y2="1002"/><text fill="#196719" font-family="courier" font-size="20" font-weight="bold" lengthAdjust="spacingAndGlyphs" textLength="132" x="917" y="1025.1074">HTTPService</text><!--entity XDto--><ellipse cx="856" cy="1196.1133" fill="#222222" rx="12" ry="12" style="stroke: #196719; stroke-width: 2.0;"/><line style="stroke: #196719; stroke-width: 2.0;" x1="844" x2="868" y1="1210.1133" y2="1210.1133"/><text fill="#196719" font-family="courier" font-size="20" font-weight="bold" lengthAdjust="spacingAndGlyphs" textLength="48" x="832" y="1233.2207">XDto</text><text fill="#196719" font-family="courier" font-size="20" lengthAdjust="spacingAndGlyphs" textLength="72" x="820" y="1173.1074">«java»</text><!--entity XResource--><ellipse cx="537" cy="988" fill="#222222" rx="12" ry="12" style="stroke: #196719; stroke-width: 2.0;"/><polygon fill="#196719" points="533,976,539,971,537,976,539,981,533,976" style="stroke: #196719; stroke-width: 1.0;"/><text fill="#196719" font-family="courier" font-size="20" font-weight="bold" lengthAdjust="spacingAndGlyphs" textLength="192" x="441" y="1025.1074">XResource - java</text><!--entity XControllerDesign--><ellipse cx="296" cy="988" fill="#222222" rx="12" ry="12" style="stroke: #196719; stroke-width: 2.0;"/><polygon fill="#196719" points="292,976,298,971,296,976,298,981,292,976" style="stroke: #196719; stroke-width: 1.0;"/><text fill="#196719" font-family="courier" font-size="20" font-weight="bold" lengthAdjust="spacingAndGlyphs" textLength="216" x="188" y="1025.1074">XController - java</text><!--entity XRepository--><ellipse cx="422" cy="1078" fill="#222222" rx="12" ry="12" style="stroke: #196719; stroke-width: 2.0;"/><line style="stroke: #196719; stroke-width: 2.0;" x1="410" x2="434" y1="1092" y2="1092"/><text fill="#196719" font-family="courier" font-size="20" font-weight="bold" lengthAdjust="spacingAndGlyphs" textLength="216" x="314" y="1115.1074">XRepository - java</text><!--entity XDtoJava--><ellipse cx="459" cy="1348" fill="#222222" rx="12" ry="12" style="stroke: #196719; stroke-width: 2.0;"/><line style="stroke: #196719; stroke-width: 2.0;" x1="447" x2="471" y1="1362" y2="1362"/><text fill="#196719" font-family="courier" font-size="20" font-weight="bold" lengthAdjust="spacingAndGlyphs" textLength="132" x="393" y="1385.1074">XDto - java</text><!--entity XEntityDesign--><ellipse cx="272" cy="1348" fill="#222222" rx="12" ry="12" style="stroke: #196719; stroke-width: 2.0;"/><line style="stroke: #196719; stroke-width: 2.0;" x1="260" x2="284" y1="1362" y2="1362"/><text fill="#196719" font-family="courier" font-size="20" font-weight="bold" lengthAdjust="spacingAndGlyphs" textLength="168" x="188" y="1385.1074">XEntity - java</text><!--link XView to XController--><path d="M628.193,131.11 C623.094,147.97 616.649,169.27 611.314,186.91 " fill="none" id="XView-XController" style="stroke: #196719; stroke-width: 2.0;"/><polygon fill="#196719" points="609.84,191.78,616.288,184.3353,611.2964,186.9968,608.6349,182.0051,609.84,191.78" style="stroke: #196719; stroke-width: 2.0;"/><!--link XView to XEntity--><path d="M605.823,115.09 C576.576,129.26 534.632,154.92 516,192 C492.759,238.25 509.474,299.29 524.277,336.81 " fill="none" id="XView-XEntity" style="stroke: #196719; stroke-width: 2.0;"/><polygon fill="#196719" points="526.255,341.72,526.6233,331.878,524.3966,337.0782,519.1964,334.8515,526.255,341.72" style="stroke: #196719; stroke-width: 2.0;"/><!--link XComponent to XValidator--><path d="M1125.51,643.054 C1138.98,668.836 1156.14,701.654 1170.03,728.232 " fill="none" id="XComponent-XValidator" style="stroke: #196719; stroke-width: 2.0;"/><polygon fill="#196719" points="1172.41,732.78,1171.7818,722.9512,1170.092,728.3498,1164.6934,726.66,1172.41,732.78" style="stroke: #196719; stroke-width: 2.0;"/><!--link XController to XEntity--><path d="M588.948,252.24 C578.881,276.67 564.518,311.51 553.953,337.15 " fill="none" id="XController-XEntity" style="stroke: #196719; stroke-width: 2.0; stroke-dasharray: 7.0,7.0;"/><polygon fill="#196719" points="552.027,341.82,559.148,335.0162,553.9277,337.1954,551.7486,331.9751,552.027,341.82" style="stroke: #196719; stroke-width: 2.0;"/><!--link XController to XDao--><path d="M609.298,252.24 C616.201,276.56 626.037,311.23 633.302,336.83 " fill="none" id="XController-XDao" style="stroke: #196719; stroke-width: 2.0;"/><polygon fill="#196719" points="634.719,341.82,636.098,332.0682,633.348,337.0116,628.4046,334.2617,634.719,341.82" style="stroke: #196719; stroke-width: 2.0;"/><!--link XView to XTemplate--><path d="M673.344,102.02 C721.415,103.99 806.097,114.43 858,161 C971.039,262.43 958.76,466.077 947.021,554.91 " fill="none" id="XView-XTemplate" style="stroke: #196719; stroke-width: 2.0; stroke-dasharray: 7.0,7.0;"/><polygon fill="#196719" points="668.238,101.84,677.0895,106.1587,673.2348,102.0185,677.375,98.1638,668.238,101.84" style="stroke: #196719; stroke-width: 2.0;"/><text fill="#196719" font-family="courier" font-size="20" lengthAdjust="spacingAndGlyphs" textLength="84" x="941" y="304.1074">«trace»</text><!--link XView to XStyle--><path d="M673.308,107.38 C729.719,118.03 832,147.47 832,221 C832,221 832,221 832,600 C832,645.375 832,697.33 832,732.963 " fill="none" id="XView-XStyle" style="stroke: #196719; stroke-width: 2.0; stroke-dasharray: 7.0,7.0;"/><polygon fill="#196719" points="668.33,106.47,676.4591,112.0304,673.2477,107.3735,677.9046,104.1621,668.33,106.47" style="stroke: #196719; stroke-width: 2.0;"/><text fill="#196719" font-family="courier" font-size="20" lengthAdjust="spacingAndGlyphs" textLength="84" x="834" y="379.1074">«trace»</text><!--link XView to XComponent--><path d="M673.273,105.23 C755.834,114.81 956.676,151.16 1035,282 C1087.17,369.15 1099.56,491.031 1102.34,554.965 " fill="none" id="XView-XComponent" style="stroke: #196719; stroke-width: 2.0; stroke-dasharray: 7.0,7.0;"/><polygon fill="#196719" points="668.008,104.64,676.5037,109.6223,672.9766,105.1997,677.3992,101.6726,668.008,104.64" style="stroke: #196719; stroke-width: 2.0;"/><text fill="#196719" font-family="courier" font-size="20" lengthAdjust="spacingAndGlyphs" textLength="84" x="1052" y="304.1074">«trace»</text><!--link XController to XService--><path d="M629.599,256.63 C647.723,279.44 670.416,310.98 685,342 C708.896,392.83 692.136,414.14 718,464 C774.078,572.11 872.643,676.587 930.662,732.969 " fill="none" id="XController-XService" style="stroke: #196719; stroke-width: 2.0; stroke-dasharray: 7.0,7.0;"/><polygon fill="#196719" points="626.271,252.48,628.7596,262.0093,629.3903,256.3877,635.0119,257.0184,626.271,252.48" style="stroke: #196719; stroke-width: 2.0;"/><text fill="#196719" font-family="courier" font-size="20" lengthAdjust="spacingAndGlyphs" textLength="84" x="720" y="456.1074">«trace»</text><!--link XEntity to XDto--><path d="M550.043,406.98 C572.589,482.343 629.898,668.858 689,821 C736.378,942.963 801.922,1082.813 835.044,1151.831 " fill="none" id="XEntity-XDto" style="stroke: #196719; stroke-width: 2.0; stroke-dasharray: 7.0,7.0;"/><polygon fill="#196719" points="548.609,402.18,547.3473,411.9477,550.0376,406.9716,555.0138,409.6619,548.609,402.18" style="stroke: #196719; stroke-width: 2.0;"/><text fill="#196719" font-family="courier" font-size="20" lengthAdjust="spacingAndGlyphs" textLength="84" x="691" y="784.1074">«trace»</text><!--link XDao to XResource--><path d="M617.926,406.2 C564.1,477.808 441.571,642.755 432,673 C397.094,783.304 474.945,914.254 515.039,971.619 " fill="none" id="XDao-XResource" style="stroke: #196719; stroke-width: 2.0; stroke-dasharray: 7.0,7.0;"/><polygon fill="#196719" points="621.059,402.03,612.4565,406.8256,618.0569,406.0285,618.8541,411.6289,621.059,402.03" style="stroke: #196719; stroke-width: 2.0;"/><text fill="#196719" font-family="courier" font-size="20" lengthAdjust="spacingAndGlyphs" textLength="84" x="434" y="695.1074">«trace»</text><!--link XDao to XControllerDesign--><path d="M621.512,406.17 C615.346,413.6 608.076,420.81 600,426 C588.027,433.689 582.707,430.182 569,434 C512.243,449.808 487.939,435.11 442,472 C362.262,536.032 360.79,575.48 330,673 C296.474,779.184 294.266,913.354 295.139,971.69 " fill="none" id="XDao-XControllerDesign" style="stroke: #196719; stroke-width: 2.0; stroke-dasharray: 7.0,7.0;"/><polygon fill="#196719" points="624.822,402.03,616.0734,406.5536,621.6961,405.9324,622.3173,411.555,624.822,402.03" style="stroke: #196719; stroke-width: 2.0;"/><text fill="#196719" font-family="courier" font-size="20" lengthAdjust="spacingAndGlyphs" textLength="84" x="332" y="695.1074">«trace»</text><!--link XEntity to XDtoJava--><path d="M491.926,377.25 C384.433,389.67 134,435.974 134,598 C134,598 134,598 134,1197 C134,1225.598 296.465,1295.739 391.66,1334.3829 " fill="none" id="XEntity-XDtoJava" style="stroke: #196719; stroke-width: 2.0; stroke-dasharray: 7.0,7.0;"/><polygon fill="#196719" points="496.935,376.69,487.543,373.7252,491.9666,377.2511,488.4407,381.6747,496.935,376.69" style="stroke: #196719; stroke-width: 2.0;"/><text fill="#196719" font-family="courier" font-size="20" lengthAdjust="spacingAndGlyphs" textLength="84" x="136" y="873.1074">«trace»</text><!--link XEntity to XEntityDesign--><path d="M491.527,373.45 C409.157,376.47 239.756,392.71 126,472 C62.5567,516.22 6,520.667 6,598 C6,598 6,598 6,1197 C6,1283.397 108.934,1325.7671 186.738,1345.453 " fill="none" id="XEntity-XEntityDesign" style="stroke: #196719; stroke-width: 2.0; stroke-dasharray: 7.0,7.0;"/><polygon fill="#196719" points="496.825,373.27,487.6943,369.5781,491.8279,373.4399,487.9661,377.5735,496.825,373.27" style="stroke: #196719; stroke-width: 2.0;"/><text fill="#196719" font-family="courier" font-size="20" lengthAdjust="spacingAndGlyphs" textLength="84" x="8" y="873.1074">«trace»</text><!--link XDao to XRepository--><path d="M648.789,407.35 C668.41,528.509 727.056,933.865 651,1032 C635.596,1051.876 582.498,1066.24 531.308,1075.815 " fill="none" id="XDao-XRepository" style="stroke: #196719; stroke-width: 2.0; stroke-dasharray: 7.0,7.0;"/><polygon fill="#196719" points="647.94,402.14,645.4315,411.664,648.74,407.0756,653.3284,410.3841,647.94,402.14" style="stroke: #196719; stroke-width: 2.0;"/><text fill="#196719" font-family="courier" font-size="20" lengthAdjust="spacingAndGlyphs" textLength="84" x="687" y="695.1074">«trace»</text><!--link XTemplate to XComponent--><path d="M1000.208,599 C1010.02,599 1019.83,599 1029.65,599 " fill="none" id="XTemplate-XComponent" style="stroke: #196719; stroke-width: 2.0;"/><polygon fill="#196719" points="995.076,599,1004.076,603,1000.076,599,1004.076,595,995.076,599" style="stroke: #196719; stroke-width: 2.0;"/><!--link XTemplate to XStyle--><path d="M913.58,643.054 C897.759,668.836 877.621,701.654 861.312,728.232 " fill="none" id="XTemplate-XStyle" style="stroke: #196719; stroke-width: 2.0;"/><polygon fill="#196719" points="858.521,732.78,866.6381,727.2022,861.1366,728.5187,859.8201,723.0172,858.521,732.78" style="stroke: #196719; stroke-width: 2.0;"/><!--link XComponent to XDto--><path d="M1103.86,643.123 C1105.09,738.841 1103.99,965.814 1068,1032 C1030.08,1101.738 948.238,1151.033 898.065,1176.083 " fill="none" id="XComponent-XDto" style="stroke: #196719; stroke-width: 2.0;"/><polygon fill="#196719" points="893.311,1178.432,903.1518,1178.0326,897.7939,1176.2177,899.6088,1170.8599,893.311,1178.432" style="stroke: #196719; stroke-width: 2.0;"/><!--link XComponent to XService--><path d="M1072.18,643.054 C1053.64,668.943 1030.03,701.926 1010.96,728.562 " fill="none" id="XComponent-XService" style="stroke: #196719; stroke-width: 2.0;"/><polygon fill="#196719" points="1007.94,732.78,1016.4276,727.7839,1010.8474,728.7122,1009.9191,723.132,1007.94,732.78" style="stroke: #196719; stroke-width: 2.0;"/><!--link XDto to XDtoJava--><path d="M818.651,1212.429 C752.915,1239.584 615.506,1296.348 530.856,1331.3165 " fill="none" id="XDto-XDtoJava" style="stroke: #196719; stroke-width: 2.0; stroke-dasharray: 7.0,7.0;"/><polygon fill="#196719" points="526.112,1333.276,535.9575,1333.535,530.7329,1331.3662,532.9017,1326.1416,526.112,1333.276" style="stroke: #196719; stroke-width: 2.0;"/><text fill="#196719" font-family="courier" font-size="20" lengthAdjust="spacingAndGlyphs" textLength="84" x="672" y="1294.1074">«trace»</text><!--link XService to XResource--><path d="M903.757,814.206 C898.133,816.613 892.503,818.908 887,821 C842.033,838.094 827.039,831.639 783,851 C708.546,883.733 629.434,935.395 581.615,968.737 " fill="none" id="XService-XResource" style="stroke: #196719; stroke-width: 2.0; stroke-dasharray: 7.0,7.0;"/><polygon fill="#196719" points="577.372,971.705,587.0396,969.8244,581.4692,968.8392,582.4544,963.2688,577.372,971.705" style="stroke: #196719; stroke-width: 2.0;"/><text fill="#196719" font-family="courier" font-size="20" lengthAdjust="spacingAndGlyphs" textLength="84" x="785" y="873.1074">«trace»</text><!--link XResource to XControllerDesign--><path d="M439.954,1002 C430.09,1002 420.226,1002 410.361,1002 " fill="none" id="XResource-XControllerDesign" style="stroke: #196719; stroke-width: 2.0;"/><polygon fill="#196719" points="405.203,1002,414.203,1006,410.203,1002,414.203,998,405.203,1002" style="stroke: #196719; stroke-width: 2.0;"/><!--link XService to XDto--><path d="M939.517,821.088 C924.541,840.585 908.602,864.683 899,889 C864.888,975.389 857.248,1084.887 855.877,1146.724 " fill="none" id="XService-XDto" style="stroke: #196719; stroke-width: 2.0;"/><polygon fill="#196719" points="855.776,1151.825,859.9552,1142.9068,855.876,1146.826,851.9568,1142.7468,855.776,1151.825" style="stroke: #196719; stroke-width: 2.0;"/><!--link XService to HTTPService--><path d="M978.515,834.302 C979.691,878.031 981.276,936.907 982.212,971.719 " fill="none" id="XService-HTTPService" style="stroke: #196719; stroke-width: 2.0;"/><polygon fill="#222222" points="978.164,821.261,974.327,827.3665,978.4871,833.2567,982.3241,827.1511,978.164,821.261" style="stroke: #196719; stroke-width: 2.0;"/><!--link XResource to XDtoJava--><path d="M537.829,1032.072 C538.031,1056.3 537.189,1091.63 532,1122 C519.205,1196.891 489.756,1281.159 472.424,1326.9312 " fill="none" id="XResource-XDtoJava" style="stroke: #196719; stroke-width: 2.0;"/><polygon fill="#196719" points="470.579,1331.7789,477.5187,1324.7903,472.3575,1327.1059,470.0419,1321.9447,470.579,1331.7789" style="stroke: #196719; stroke-width: 2.0;"/><!--link XControllerDesign to XEntityDesign--><path d="M294.036,1032.297 C289.639,1097.886 279.02,1256.28 274.313,1326.4956 " fill="none" id="XControllerDesign-XEntityDesign" style="stroke: #196719; stroke-width: 2.0;"/><polygon fill="#196719" points="273.957,1331.8006,278.5503,1323.0884,274.2916,1326.8118,270.5682,1322.5531,273.957,1331.8006" style="stroke: #196719; stroke-width: 2.0;"/><!--link XControllerDesign to XRepository--><path d="M337.606,1032.058 C349.971,1040.694 363.584,1050.202 376.2,1059.013 " fill="none" id="XControllerDesign-XRepository" style="stroke: #196719; stroke-width: 2.0;"/><polygon fill="#196719" points="380.437,1061.972,375.3479,1053.5399,376.3375,1059.1095,370.7679,1060.0991,380.437,1061.972" style="stroke: #196719; stroke-width: 2.0;"/><!--link XControllerDesign to XDtoJava--><path d="M298.515,1032.095 C301.337,1061.86 306.276,1105.949 312,1122 C340.451,1201.787 398.076,1283.455 432.114,1327.6353 " fill="none" id="XControllerDesign-XDtoJava" style="stroke: #196719; stroke-width: 2.0;"/><polygon fill="#196719" points="435.333,1331.7925,432.9855,1322.2275,432.2718,1327.8392,426.6601,1327.1255,435.333,1331.7925" style="stroke: #196719; stroke-width: 2.0;"/><!--link XDtoJava to XEntityDesign--><path d="M391.73,1362 C381.9,1362 372.07,1362 362.24,1362 " fill="none" id="XDtoJava-XEntityDesign" style="stroke: #196719; stroke-width: 2.0;"/><polygon fill="#196719" points="357.1,1362,366.1,1366,362.1,1362,366.1,1358,357.1,1362" style="stroke: #196719; stroke-width: 2.0;"/><!--link XRepository to XEntityDesign--><path d="M405.662,1122.191 C377.653,1172.233 320.626,1274.121 290.931,1327.1774 " fill="none" id="XRepository-XEntityDesign" style="stroke: #196719; stroke-width: 2.0;"/><polygon fill="#196719" points="288.318,1331.8451,296.2042,1325.9453,290.7601,1327.4821,289.2234,1322.0379,288.318,1331.8451" style="stroke: #196719; stroke-width: 2.0;"/><!--
@startuml
skinparam backgroundColor #222222
skinparam shadowing false
skinparam padding 1
skinparam arrow {
    Thickness 2
    Color #196719
    FontSize 20
    FontName courier
    FontStyle normal
    FontColor #196719
}
skinparam class {
    BorderThickness 3
    BorderColor #196719
    BackgroundColor #222222
    FontSize 20
    FontName courier
    FontStyle bold
    FontColor #196719
}
skinparam package {
    BorderThickness 3
    BorderColor #196719
    BackgroundColor #222222
    FontSize 20
    FontName courier
    FontStyle bold
    FontColor #196719
}
skinparam boundary {
    BorderThickness 3
    BorderColor #196719
    BackgroundColor #222222
    FontSize 20
    FontName courier
    FontStyle bold
    FontColor #196719
}
skinparam control {
    BorderThickness 3
    BorderColor #196719
    BackgroundColor #222222
    FontSize 20
    FontName courier
    FontStyle bold
    FontColor #196719
}
skinparam entity {
    BorderThickness 3
    BorderColor #196719
    BackgroundColor #222222
    FontSize 20
    FontName courier
    FontStyle bold
    FontColor #196719
}
skinparam default {
    BorderColor #196719
    FontSize 20
    FontName courier
    FontStyle normal
    FontColor #196719
}
    package analysis {
        boundary XView
        control XController
        entity XEntity
        entity XDao
    }

    package front <<angular:10>>{
        boundary XStyle <<CSS>>
        boundary XTemplate <<HTML>>
        boundary XComponent <<TypeScript>>
        boundary XValidator <<TypeScript>>
        control XService <<TypeScript>>
        entity HTTPService
        entity XDto <<java>>
    }

    package backend <<spring:3.2>> {
        control XResource as "XResource - java"
        control XControllerDesign as "XController - java"
        entity XRepository as "XRepository - java"
        entity XDtoJava as "XDto - java"
        entity XEntityDesign as "XEntity - java"
    }

    XView -down-> XController
    XView -down-> XEntity
    XComponent -down-> XValidator
    XController .down.> XEntity
    XController -down-> XDao

    XTemplate ...up.> XView : <<trace>>
    XStyle ...up.> XView : <<trace>>
    XComponent ...up.> XView : <<trace>>
    XService ...up.> XController : <<trace>>
    XDto ...up.> XEntity : <<trace>>
    XResource ...up.> XDao : <<trace>>
    XControllerDesign ...up.> XDao : <<trace>>
    XDtoJava ...up.> XEntity : <<trace>>
    XEntityDesign ...up.> XEntity : <<trace>>
    XRepository ...up.> XDao : <<trace>>

    XComponent -left-> XTemplate
    XTemplate -down-> XStyle
    XComponent - -> XDto
    XComponent -down-> XService

    XDto .right.> XDtoJava : <<trace>>

    XService .right.> XResource : <<trace>>
    XResource -right-> XControllerDesign
    XService - -down-> XDto
    XService o- - HTTPService
    XResource - -down-> XDtoJava
    XControllerDesign - -down-> XEntityDesign
    XControllerDesign -right-> XRepository
    XControllerDesign -right-> XDtoJava
    XDtoJava -right-> XEntityDesign
    XRepository -right-> XEntityDesign
@enduml

PlantUML version 1.2019.05(Sat Apr 20 18:45:36 CEST 2019)
(GPL source distribution)
Java Runtime: Java(TM) SE Runtime Environment
JVM: Java HotSpot(TM) 64-Bit Server VM
Java Version: 11.0.8+10-LTS
Operating System: Windows 10
OS Version: 10.0
Default Encoding: windows-1252
Language: es
Country: ES
--></g></svg>