<?xml version="1.0" encoding="UTF-8" standalone="no"?><svg xmlns="http://www.w3.org/2000/svg" xmlns:xlink="http://www.w3.org/1999/xlink" contentScriptType="application/ecmascript" contentStyleType="text/css" height="446px" preserveAspectRatio="none" style="width:300px;height:446px;" version="1.1" viewBox="0 0 300 446" width="300px" zoomAndPan="magnify"><defs><filter height="300%" id="fqoyqfc686zpg" width="300%" x="-1" y="-1"><feGaussianBlur result="blurOut" stdDeviation="2.0"/><feColorMatrix in="blurOut" result="blurOut2" type="matrix" values="0 0 0 0 0 0 0 0 0 0 0 0 0 0 0 0 0 0 .4 0"/><feOffset dx="4.0" dy="4.0" in="blurOut2" result="blurOut3"/><feBlend in="SourceGraphic" in2="blurOut3" mode="normal"/></filter></defs><g><!--class App--><rect fill="#FEFECE" filter="url(#fqoyqfc686zpg)" height="75.6719" id="App" style="stroke: #A80036; stroke-width: 1.5;" width="53" x="100.5" y="8"/><ellipse cx="115.5" cy="24" fill="#ADD1B2" rx="11" ry="11" style="stroke: #A80036; stroke-width: 1.0;"/><path d="M118.2656,19.875 Q118.4219,19.6563 118.6094,19.5469 Q118.7969,19.4375 119.0156,19.4375 Q119.3906,19.4375 119.625,19.7031 Q119.8594,19.9531 119.8594,20.5625 L119.8594,22.0156 Q119.8594,22.625 119.625,22.8906 Q119.3906,23.1563 119.0156,23.1563 Q118.6719,23.1563 118.4688,22.9531 Q118.2656,22.7656 118.1563,22.25 Q118.1094,21.8906 117.9219,21.7031 Q117.5938,21.3281 116.9844,21.1094 Q116.375,20.8906 115.75,20.8906 Q114.9844,20.8906 114.3438,21.2188 Q113.7188,21.5469 113.2188,22.2969 Q112.7344,23.0469 112.7344,24.0781 L112.7344,25.1719 Q112.7344,26.4063 113.625,27.2344 Q114.5156,28.0469 116.1094,28.0469 Q117.0469,28.0469 117.7031,27.7969 Q118.0938,27.6406 118.5156,27.2031 Q118.7813,26.9375 118.9219,26.8594 Q119.0781,26.7813 119.2813,26.7813 Q119.6094,26.7813 119.8594,27.0469 Q120.125,27.2969 120.125,27.6406 Q120.125,27.9844 119.7813,28.3906 Q119.2813,28.9688 118.4844,29.2969 Q117.4063,29.75 116.1094,29.75 Q114.5938,29.75 113.3906,29.125 Q112.4063,28.625 111.7188,27.5625 Q111.0313,26.4844 111.0313,25.2031 L111.0313,24.0469 Q111.0313,22.7188 111.6406,21.5781 Q112.2656,20.4219 113.3594,19.8125 Q114.4531,19.1875 115.6875,19.1875 Q116.4219,19.1875 117.0625,19.3594 Q117.7188,19.5156 118.2656,19.875 Z "/><text fill="#000000" font-family="sans-serif" font-size="12" lengthAdjust="spacingAndGlyphs" textLength="21" x="129.5" y="28.9102">App</text><line style="stroke: #A80036; stroke-width: 1.5;" x1="101.5" x2="152.5" y1="40" y2="40"/><text fill="#000000" font-family="sans-serif" font-size="11" lengthAdjust="spacingAndGlyphs" textLength="40" x="106.5" y="55.4189">columns</text><text fill="#000000" font-family="sans-serif" font-size="11" lengthAdjust="spacingAndGlyphs" textLength="26" x="106.5" y="69.2549">rows</text><line style="stroke: #A80036; stroke-width: 1.5;" x1="101.5" x2="152.5" y1="75.6719" y2="75.6719"/><!--class Table--><rect fill="#FEFECE" filter="url(#fqoyqfc686zpg)" height="48" id="Table" style="stroke: #A80036; stroke-width: 1.5;" width="63" x="95.5" y="144"/><ellipse cx="110.5" cy="160" fill="#ADD1B2" rx="11" ry="11" style="stroke: #A80036; stroke-width: 1.0;"/><path d="M113.2656,155.875 Q113.4219,155.6563 113.6094,155.5469 Q113.7969,155.4375 114.0156,155.4375 Q114.3906,155.4375 114.625,155.7031 Q114.8594,155.9531 114.8594,156.5625 L114.8594,158.0156 Q114.8594,158.625 114.625,158.8906 Q114.3906,159.1563 114.0156,159.1563 Q113.6719,159.1563 113.4688,158.9531 Q113.2656,158.7656 113.1563,158.25 Q113.1094,157.8906 112.9219,157.7031 Q112.5938,157.3281 111.9844,157.1094 Q111.375,156.8906 110.75,156.8906 Q109.9844,156.8906 109.3438,157.2188 Q108.7188,157.5469 108.2188,158.2969 Q107.7344,159.0469 107.7344,160.0781 L107.7344,161.1719 Q107.7344,162.4063 108.625,163.2344 Q109.5156,164.0469 111.1094,164.0469 Q112.0469,164.0469 112.7031,163.7969 Q113.0938,163.6406 113.5156,163.2031 Q113.7813,162.9375 113.9219,162.8594 Q114.0781,162.7813 114.2813,162.7813 Q114.6094,162.7813 114.8594,163.0469 Q115.125,163.2969 115.125,163.6406 Q115.125,163.9844 114.7813,164.3906 Q114.2813,164.9688 113.4844,165.2969 Q112.4063,165.75 111.1094,165.75 Q109.5938,165.75 108.3906,165.125 Q107.4063,164.625 106.7188,163.5625 Q106.0313,162.4844 106.0313,161.2031 L106.0313,160.0469 Q106.0313,158.7188 106.6406,157.5781 Q107.2656,156.4219 108.3594,155.8125 Q109.4531,155.1875 110.6875,155.1875 Q111.4219,155.1875 112.0625,155.3594 Q112.7188,155.5156 113.2656,155.875 Z "/><text fill="#000000" font-family="sans-serif" font-size="12" lengthAdjust="spacingAndGlyphs" textLength="31" x="124.5" y="164.9102">Table</text><line style="stroke: #A80036; stroke-width: 1.5;" x1="96.5" x2="157.5" y1="176" y2="176"/><line style="stroke: #A80036; stroke-width: 1.5;" x1="96.5" x2="157.5" y1="184" y2="184"/><!--class TableHead--><rect fill="#FEFECE" filter="url(#fqoyqfc686zpg)" height="48" id="TableHead" style="stroke: #A80036; stroke-width: 1.5;" width="93" x="70.5" y="259"/><ellipse cx="85.5" cy="275" fill="#ADD1B2" rx="11" ry="11" style="stroke: #A80036; stroke-width: 1.0;"/><path d="M88.2656,270.875 Q88.4219,270.6563 88.6094,270.5469 Q88.7969,270.4375 89.0156,270.4375 Q89.3906,270.4375 89.625,270.7031 Q89.8594,270.9531 89.8594,271.5625 L89.8594,273.0156 Q89.8594,273.625 89.625,273.8906 Q89.3906,274.1563 89.0156,274.1563 Q88.6719,274.1563 88.4688,273.9531 Q88.2656,273.7656 88.1563,273.25 Q88.1094,272.8906 87.9219,272.7031 Q87.5938,272.3281 86.9844,272.1094 Q86.375,271.8906 85.75,271.8906 Q84.9844,271.8906 84.3438,272.2188 Q83.7188,272.5469 83.2188,273.2969 Q82.7344,274.0469 82.7344,275.0781 L82.7344,276.1719 Q82.7344,277.4063 83.625,278.2344 Q84.5156,279.0469 86.1094,279.0469 Q87.0469,279.0469 87.7031,278.7969 Q88.0938,278.6406 88.5156,278.2031 Q88.7813,277.9375 88.9219,277.8594 Q89.0781,277.7813 89.2813,277.7813 Q89.6094,277.7813 89.8594,278.0469 Q90.125,278.2969 90.125,278.6406 Q90.125,278.9844 89.7813,279.3906 Q89.2813,279.9688 88.4844,280.2969 Q87.4063,280.75 86.1094,280.75 Q84.5938,280.75 83.3906,280.125 Q82.4063,279.625 81.7188,278.5625 Q81.0313,277.4844 81.0313,276.2031 L81.0313,275.0469 Q81.0313,273.7188 81.6406,272.5781 Q82.2656,271.4219 83.3594,270.8125 Q84.4531,270.1875 85.6875,270.1875 Q86.4219,270.1875 87.0625,270.3594 Q87.7188,270.5156 88.2656,270.875 Z "/><text fill="#000000" font-family="sans-serif" font-size="12" lengthAdjust="spacingAndGlyphs" textLength="61" x="99.5" y="279.9102">TableHead</text><line style="stroke: #A80036; stroke-width: 1.5;" x1="71.5" x2="162.5" y1="291" y2="291"/><line style="stroke: #A80036; stroke-width: 1.5;" x1="71.5" x2="162.5" y1="299" y2="299"/><!--class TableColumns--><rect fill="#FEFECE" filter="url(#fqoyqfc686zpg)" height="61.8359" id="TableColumns" style="stroke: #A80036; stroke-width: 1.5;" width="114" x="6" y="374"/><ellipse cx="21" cy="390" fill="#ADD1B2" rx="11" ry="11" style="stroke: #A80036; stroke-width: 1.0;"/><path d="M23.7656,385.875 Q23.9219,385.6563 24.1094,385.5469 Q24.2969,385.4375 24.5156,385.4375 Q24.8906,385.4375 25.125,385.7031 Q25.3594,385.9531 25.3594,386.5625 L25.3594,388.0156 Q25.3594,388.625 25.125,388.8906 Q24.8906,389.1563 24.5156,389.1563 Q24.1719,389.1563 23.9688,388.9531 Q23.7656,388.7656 23.6563,388.25 Q23.6094,387.8906 23.4219,387.7031 Q23.0938,387.3281 22.4844,387.1094 Q21.875,386.8906 21.25,386.8906 Q20.4844,386.8906 19.8438,387.2188 Q19.2188,387.5469 18.7188,388.2969 Q18.2344,389.0469 18.2344,390.0781 L18.2344,391.1719 Q18.2344,392.4063 19.125,393.2344 Q20.0156,394.0469 21.6094,394.0469 Q22.5469,394.0469 23.2031,393.7969 Q23.5938,393.6406 24.0156,393.2031 Q24.2813,392.9375 24.4219,392.8594 Q24.5781,392.7813 24.7813,392.7813 Q25.1094,392.7813 25.3594,393.0469 Q25.625,393.2969 25.625,393.6406 Q25.625,393.9844 25.2813,394.3906 Q24.7813,394.9688 23.9844,395.2969 Q22.9063,395.75 21.6094,395.75 Q20.0938,395.75 18.8906,395.125 Q17.9063,394.625 17.2188,393.5625 Q16.5313,392.4844 16.5313,391.2031 L16.5313,390.0469 Q16.5313,388.7188 17.1406,387.5781 Q17.7656,386.4219 18.8594,385.8125 Q19.9531,385.1875 21.1875,385.1875 Q21.9219,385.1875 22.5625,385.3594 Q23.2188,385.5156 23.7656,385.875 Z "/><text fill="#000000" font-family="sans-serif" font-size="12" lengthAdjust="spacingAndGlyphs" textLength="82" x="35" y="394.9102">TableColumns</text><line style="stroke: #A80036; stroke-width: 1.5;" x1="7" x2="119" y1="406" y2="406"/><text fill="#000000" font-family="sans-serif" font-size="11" lengthAdjust="spacingAndGlyphs" textLength="40" x="12" y="421.4189">columns</text><line style="stroke: #A80036; stroke-width: 1.5;" x1="7" x2="119" y1="427.8359" y2="427.8359"/><!--class TableBody--><rect fill="#FEFECE" filter="url(#fqoyqfc686zpg)" height="61.8359" id="TableBody" style="stroke: #A80036; stroke-width: 1.5;" width="90" x="199" y="252"/><ellipse cx="214" cy="268" fill="#ADD1B2" rx="11" ry="11" style="stroke: #A80036; stroke-width: 1.0;"/><path d="M216.7656,263.875 Q216.9219,263.6563 217.1094,263.5469 Q217.2969,263.4375 217.5156,263.4375 Q217.8906,263.4375 218.125,263.7031 Q218.3594,263.9531 218.3594,264.5625 L218.3594,266.0156 Q218.3594,266.625 218.125,266.8906 Q217.8906,267.1563 217.5156,267.1563 Q217.1719,267.1563 216.9688,266.9531 Q216.7656,266.7656 216.6563,266.25 Q216.6094,265.8906 216.4219,265.7031 Q216.0938,265.3281 215.4844,265.1094 Q214.875,264.8906 214.25,264.8906 Q213.4844,264.8906 212.8438,265.2188 Q212.2188,265.5469 211.7188,266.2969 Q211.2344,267.0469 211.2344,268.0781 L211.2344,269.1719 Q211.2344,270.4063 212.125,271.2344 Q213.0156,272.0469 214.6094,272.0469 Q215.5469,272.0469 216.2031,271.7969 Q216.5938,271.6406 217.0156,271.2031 Q217.2813,270.9375 217.4219,270.8594 Q217.5781,270.7813 217.7813,270.7813 Q218.1094,270.7813 218.3594,271.0469 Q218.625,271.2969 218.625,271.6406 Q218.625,271.9844 218.2813,272.3906 Q217.7813,272.9688 216.9844,273.2969 Q215.9063,273.75 214.6094,273.75 Q213.0938,273.75 211.8906,273.125 Q210.9063,272.625 210.2188,271.5625 Q209.5313,270.4844 209.5313,269.2031 L209.5313,268.0469 Q209.5313,266.7188 210.1406,265.5781 Q210.7656,264.4219 211.8594,263.8125 Q212.9531,263.1875 214.1875,263.1875 Q214.9219,263.1875 215.5625,263.3594 Q216.2188,263.5156 216.7656,263.875 Z "/><text fill="#000000" font-family="sans-serif" font-size="12" lengthAdjust="spacingAndGlyphs" textLength="58" x="228" y="272.9102">TableBody</text><line style="stroke: #A80036; stroke-width: 1.5;" x1="200" x2="288" y1="284" y2="284"/><text fill="#000000" font-family="sans-serif" font-size="11" lengthAdjust="spacingAndGlyphs" textLength="26" x="205" y="299.4189">rows</text><line style="stroke: #A80036; stroke-width: 1.5;" x1="200" x2="288" y1="305.8359" y2="305.8359"/><!--class TableRow--><rect fill="#FEFECE" filter="url(#fqoyqfc686zpg)" height="61.8359" id="TableRow" style="stroke: #A80036; stroke-width: 1.5;" width="88" x="200" y="374"/><ellipse cx="215" cy="390" fill="#ADD1B2" rx="11" ry="11" style="stroke: #A80036; stroke-width: 1.0;"/><path d="M217.7656,385.875 Q217.9219,385.6563 218.1094,385.5469 Q218.2969,385.4375 218.5156,385.4375 Q218.8906,385.4375 219.125,385.7031 Q219.3594,385.9531 219.3594,386.5625 L219.3594,388.0156 Q219.3594,388.625 219.125,388.8906 Q218.8906,389.1563 218.5156,389.1563 Q218.1719,389.1563 217.9688,388.9531 Q217.7656,388.7656 217.6563,388.25 Q217.6094,387.8906 217.4219,387.7031 Q217.0938,387.3281 216.4844,387.1094 Q215.875,386.8906 215.25,386.8906 Q214.4844,386.8906 213.8438,387.2188 Q213.2188,387.5469 212.7188,388.2969 Q212.2344,389.0469 212.2344,390.0781 L212.2344,391.1719 Q212.2344,392.4063 213.125,393.2344 Q214.0156,394.0469 215.6094,394.0469 Q216.5469,394.0469 217.2031,393.7969 Q217.5938,393.6406 218.0156,393.2031 Q218.2813,392.9375 218.4219,392.8594 Q218.5781,392.7813 218.7813,392.7813 Q219.1094,392.7813 219.3594,393.0469 Q219.625,393.2969 219.625,393.6406 Q219.625,393.9844 219.2813,394.3906 Q218.7813,394.9688 217.9844,395.2969 Q216.9063,395.75 215.6094,395.75 Q214.0938,395.75 212.8906,395.125 Q211.9063,394.625 211.2188,393.5625 Q210.5313,392.4844 210.5313,391.2031 L210.5313,390.0469 Q210.5313,388.7188 211.1406,387.5781 Q211.7656,386.4219 212.8594,385.8125 Q213.9531,385.1875 215.1875,385.1875 Q215.9219,385.1875 216.5625,385.3594 Q217.2188,385.5156 217.7656,385.875 Z "/><text fill="#000000" font-family="sans-serif" font-size="12" lengthAdjust="spacingAndGlyphs" textLength="56" x="229" y="394.9102">TableRow</text><line style="stroke: #A80036; stroke-width: 1.5;" x1="201" x2="287" y1="406" y2="406"/><text fill="#000000" font-family="sans-serif" font-size="11" lengthAdjust="spacingAndGlyphs" textLength="20" x="206" y="421.4189">row</text><line style="stroke: #A80036; stroke-width: 1.5;" x1="201" x2="287" y1="427.8359" y2="427.8359"/><!--link App to Table--><path d="M127,97.47 C127,108.51 127,119.99 127,130.36 " fill="none" id="App-Table" style="stroke: #A80036; stroke-width: 1.0;"/><polygon fill="#A80036" points="127,143.68,131,134.68,127,138.68,123,134.68,127,143.68" style="stroke: #A80036; stroke-width: 1.0;"/><line style="stroke: #A80036; stroke-width: 1.0;" x1="127" x2="127" y1="138.68" y2="130.68"/><polygon fill="#A80036" points="127,84.31,123,90.31,127,96.31,131,90.31,127,84.31" style="stroke: #A80036; stroke-width: 1.0;"/><!--link App to TableColumns--><path d="M99.4,95.95 C91.69,111.03 83.83,127.9 78,144 C51.98,215.8 48.78,237.75 53,314 C53.85,329.26 55.49,345.92 57.21,360.7 " fill="none" id="App-TableColumns" style="stroke: #A80036; stroke-width: 1.0;"/><polygon fill="#A80036" points="58.78,373.66,61.6623,364.2424,58.1754,368.6967,53.7211,365.2097,58.78,373.66" style="stroke: #A80036; stroke-width: 1.0;"/><line style="stroke: #A80036; stroke-width: 1.0;" x1="58.1754" x2="57.215" y1="368.6967" y2="360.75"/><polygon fill="#A80036" points="105.51,84.3,99.1833,87.7601,99.9439,94.931,106.2706,91.4709,105.51,84.3" style="stroke: #A80036; stroke-width: 1.0;"/><!--link App to TableBody--><path d="M151.94,96.14 C159.68,111.45 168.22,128.41 176,144 C192.03,176.12 209.97,212.56 223.4,239.92 " fill="none" id="App-TableBody" style="stroke: #A80036; stroke-width: 1.0;"/><polygon fill="#A80036" points="229.23,251.81,228.8553,241.9683,227.027,247.3215,221.6737,245.4931,229.23,251.81" style="stroke: #A80036; stroke-width: 1.0;"/><line style="stroke: #A80036; stroke-width: 1.0;" x1="227.027" x2="223.505" y1="247.3215" y2="240.135"/><polygon fill="#A80036" points="145.93,84.27,145.0707,91.4297,151.3492,94.9766,152.2085,87.8169,145.93,84.27" style="stroke: #A80036; stroke-width: 1.0;"/><!--link Table to TableHead--><path d="M123.8,205.17 C122.65,218.1 121.36,232.68 120.22,245.63 " fill="none" id="Table-TableHead" style="stroke: #A80036; stroke-width: 1.0;"/><polygon fill="#A80036" points="119.05,258.89,123.8261,250.2767,119.4898,253.9094,115.8571,249.5731,119.05,258.89" style="stroke: #A80036; stroke-width: 1.0;"/><line style="stroke: #A80036; stroke-width: 1.0;" x1="119.4898" x2="120.19" y1="253.9094" y2="245.94"/><polygon fill="#A80036" points="124.95,192.14,120.4383,197.7653,123.8957,204.0936,128.4074,198.4682,124.95,192.14" style="stroke: #A80036; stroke-width: 1.0;"/><!--link TableHead to TableColumns--><path d="M101.23,319.04 C95.27,332.29 88.41,347.53 82.17,361.4 " fill="none" id="TableHead-TableColumns" style="stroke: #A80036; stroke-width: 1.0;"/><polygon fill="#A80036" points="76.65,373.66,83.9877,367.0905,78.6995,369.0994,76.6907,363.8112,76.65,373.66" style="stroke: #A80036; stroke-width: 1.0;"/><line style="stroke: #A80036; stroke-width: 1.0;" x1="78.6995" x2="81.99" y1="369.0994" y2="361.805"/><polygon fill="#A80036" points="106.59,307.14,100.482,310.9731,101.6711,318.0855,107.7791,314.2524,106.59,307.14" style="stroke: #A80036; stroke-width: 1.0;"/><!--link Table to TableBody--><path d="M160.66,201.51 C173.8,214.2 188.99,228.87 202.78,242.19 " fill="none" id="Table-TableBody" style="stroke: #A80036; stroke-width: 1.0;"/><polygon fill="#A80036" points="212.52,251.6,208.8208,242.4723,208.9219,248.1282,203.2659,248.2293,212.52,251.6" style="stroke: #A80036; stroke-width: 1.0;"/><line style="stroke: #A80036; stroke-width: 1.0;" x1="208.9219" x2="203.17" y1="248.1282" y2="242.565"/><polygon fill="#A80036" points="150.96,192.14,152.495,199.1858,159.5892,200.4789,158.0542,193.4331,150.96,192.14" style="stroke: #A80036; stroke-width: 1.0;"/><!--link TableBody to TableRow--><path d="M244,327.28 C244,338.1 244,349.72 244,360.55 " fill="none" id="TableBody-TableRow" style="stroke: #A80036; stroke-width: 1.0;"/><polygon fill="#A80036" points="244,373.73,248,364.73,244,368.73,240,364.73,244,373.73" style="stroke: #A80036; stroke-width: 1.0;"/><line style="stroke: #A80036; stroke-width: 1.0;" x1="244" x2="244" y1="368.73" y2="360.73"/><polygon fill="#A80036" points="244,314.28,240,320.28,244,326.28,248,320.28,244,314.28" style="stroke: #A80036; stroke-width: 1.0;"/><!--
@startuml

class App{
  columns
  rows
}
class Table{
}
class TableHead{
}
class TableColumns{
  columns
}
class TableBody{
  rows
}
class TableRow{
  row
}
App *-down-> Table
App *-down-> TableColumns
App *-down-> TableBody
Table *-down-> TableHead
TableHead *-down-> TableColumns
Table *-down-> TableBody
TableBody *-down-> TableRow
@enduml

PlantUML version 1.2019.05(Sat Apr 20 18:45:36 CEST 2019)
(GPL source distribution)
Java Runtime: Java(TM) SE Runtime Environment
JVM: Java HotSpot(TM) 64-Bit Server VM
Java Version: 11.0.14+8-LTS-263
Operating System: Windows 10
OS Version: 10.0
Default Encoding: windows-1252
Language: es
Country: ES
--></g></svg>