<?xml version="1.0" encoding="UTF-8" standalone="no"?><svg xmlns="http://www.w3.org/2000/svg" xmlns:xlink="http://www.w3.org/1999/xlink" contentScriptType="application/ecmascript" contentStyleType="text/css" height="474px" preserveAspectRatio="none" style="width:254px;height:474px;" version="1.1" viewBox="0 0 254 474" width="254px" zoomAndPan="magnify"><defs><filter height="300%" id="f10rqqcbdrkycj" width="300%" x="-1" y="-1"><feGaussianBlur result="blurOut" stdDeviation="2.0"/><feColorMatrix in="blurOut" result="blurOut2" type="matrix" values="0 0 0 0 0 0 0 0 0 0 0 0 0 0 0 0 0 0 .4 0"/><feOffset dx="4.0" dy="4.0" in="blurOut2" result="blurOut3"/><feBlend in="SourceGraphic" in2="blurOut3" mode="normal"/></filter></defs><g><!--class App--><rect fill="#FEFECE" filter="url(#f10rqqcbdrkycj)" height="75.6719" id="App" style="stroke: #A80036; stroke-width: 1.5;" width="53" x="103.5" y="8"/><ellipse cx="118.5" cy="24" fill="#ADD1B2" rx="11" ry="11" style="stroke: #A80036; stroke-width: 1.0;"/><path d="M121.2656,19.875 Q121.4219,19.6563 121.6094,19.5469 Q121.7969,19.4375 122.0156,19.4375 Q122.3906,19.4375 122.625,19.7031 Q122.8594,19.9531 122.8594,20.5625 L122.8594,22.0156 Q122.8594,22.625 122.625,22.8906 Q122.3906,23.1563 122.0156,23.1563 Q121.6719,23.1563 121.4688,22.9531 Q121.2656,22.7656 121.1563,22.25 Q121.1094,21.8906 120.9219,21.7031 Q120.5938,21.3281 119.9844,21.1094 Q119.375,20.8906 118.75,20.8906 Q117.9844,20.8906 117.3438,21.2188 Q116.7188,21.5469 116.2188,22.2969 Q115.7344,23.0469 115.7344,24.0781 L115.7344,25.1719 Q115.7344,26.4063 116.625,27.2344 Q117.5156,28.0469 119.1094,28.0469 Q120.0469,28.0469 120.7031,27.7969 Q121.0938,27.6406 121.5156,27.2031 Q121.7813,26.9375 121.9219,26.8594 Q122.0781,26.7813 122.2813,26.7813 Q122.6094,26.7813 122.8594,27.0469 Q123.125,27.2969 123.125,27.6406 Q123.125,27.9844 122.7813,28.3906 Q122.2813,28.9688 121.4844,29.2969 Q120.4063,29.75 119.1094,29.75 Q117.5938,29.75 116.3906,29.125 Q115.4063,28.625 114.7188,27.5625 Q114.0313,26.4844 114.0313,25.2031 L114.0313,24.0469 Q114.0313,22.7188 114.6406,21.5781 Q115.2656,20.4219 116.3594,19.8125 Q117.4531,19.1875 118.6875,19.1875 Q119.4219,19.1875 120.0625,19.3594 Q120.7188,19.5156 121.2656,19.875 Z "/><text fill="#000000" font-family="sans-serif" font-size="12" lengthAdjust="spacingAndGlyphs" textLength="21" x="132.5" y="28.9102">App</text><line style="stroke: #A80036; stroke-width: 1.5;" x1="104.5" x2="155.5" y1="40" y2="40"/><text fill="#000000" font-family="sans-serif" font-size="11" lengthAdjust="spacingAndGlyphs" textLength="40" x="109.5" y="55.4189">columns</text><text fill="#000000" font-family="sans-serif" font-size="11" lengthAdjust="spacingAndGlyphs" textLength="26" x="109.5" y="69.2549">rows</text><line style="stroke: #A80036; stroke-width: 1.5;" x1="104.5" x2="155.5" y1="75.6719" y2="75.6719"/><!--class Table--><rect fill="#FEFECE" filter="url(#f10rqqcbdrkycj)" height="75.6719" id="Table" style="stroke: #A80036; stroke-width: 1.5;" width="63" x="98.5" y="144"/><ellipse cx="113.5" cy="160" fill="#ADD1B2" rx="11" ry="11" style="stroke: #A80036; stroke-width: 1.0;"/><path d="M116.2656,155.875 Q116.4219,155.6563 116.6094,155.5469 Q116.7969,155.4375 117.0156,155.4375 Q117.3906,155.4375 117.625,155.7031 Q117.8594,155.9531 117.8594,156.5625 L117.8594,158.0156 Q117.8594,158.625 117.625,158.8906 Q117.3906,159.1563 117.0156,159.1563 Q116.6719,159.1563 116.4688,158.9531 Q116.2656,158.7656 116.1563,158.25 Q116.1094,157.8906 115.9219,157.7031 Q115.5938,157.3281 114.9844,157.1094 Q114.375,156.8906 113.75,156.8906 Q112.9844,156.8906 112.3438,157.2188 Q111.7188,157.5469 111.2188,158.2969 Q110.7344,159.0469 110.7344,160.0781 L110.7344,161.1719 Q110.7344,162.4063 111.625,163.2344 Q112.5156,164.0469 114.1094,164.0469 Q115.0469,164.0469 115.7031,163.7969 Q116.0938,163.6406 116.5156,163.2031 Q116.7813,162.9375 116.9219,162.8594 Q117.0781,162.7813 117.2813,162.7813 Q117.6094,162.7813 117.8594,163.0469 Q118.125,163.2969 118.125,163.6406 Q118.125,163.9844 117.7813,164.3906 Q117.2813,164.9688 116.4844,165.2969 Q115.4063,165.75 114.1094,165.75 Q112.5938,165.75 111.3906,165.125 Q110.4063,164.625 109.7188,163.5625 Q109.0313,162.4844 109.0313,161.2031 L109.0313,160.0469 Q109.0313,158.7188 109.6406,157.5781 Q110.2656,156.4219 111.3594,155.8125 Q112.4531,155.1875 113.6875,155.1875 Q114.4219,155.1875 115.0625,155.3594 Q115.7188,155.5156 116.2656,155.875 Z "/><text fill="#000000" font-family="sans-serif" font-size="12" lengthAdjust="spacingAndGlyphs" textLength="31" x="127.5" y="164.9102">Table</text><line style="stroke: #A80036; stroke-width: 1.5;" x1="99.5" x2="160.5" y1="176" y2="176"/><text fill="#000000" font-family="sans-serif" font-size="11" lengthAdjust="spacingAndGlyphs" textLength="40" x="104.5" y="191.4189">columns</text><text fill="#000000" font-family="sans-serif" font-size="11" lengthAdjust="spacingAndGlyphs" textLength="26" x="104.5" y="205.2549">rows</text><line style="stroke: #A80036; stroke-width: 1.5;" x1="99.5" x2="160.5" y1="211.6719" y2="211.6719"/><!--class TableHead--><rect fill="#FEFECE" filter="url(#f10rqqcbdrkycj)" height="61.8359" id="TableHead" style="stroke: #A80036; stroke-width: 1.5;" width="93" x="20.5" y="280"/><ellipse cx="35.5" cy="296" fill="#ADD1B2" rx="11" ry="11" style="stroke: #A80036; stroke-width: 1.0;"/><path d="M38.2656,291.875 Q38.4219,291.6563 38.6094,291.5469 Q38.7969,291.4375 39.0156,291.4375 Q39.3906,291.4375 39.625,291.7031 Q39.8594,291.9531 39.8594,292.5625 L39.8594,294.0156 Q39.8594,294.625 39.625,294.8906 Q39.3906,295.1563 39.0156,295.1563 Q38.6719,295.1563 38.4688,294.9531 Q38.2656,294.7656 38.1563,294.25 Q38.1094,293.8906 37.9219,293.7031 Q37.5938,293.3281 36.9844,293.1094 Q36.375,292.8906 35.75,292.8906 Q34.9844,292.8906 34.3438,293.2188 Q33.7188,293.5469 33.2188,294.2969 Q32.7344,295.0469 32.7344,296.0781 L32.7344,297.1719 Q32.7344,298.4063 33.625,299.2344 Q34.5156,300.0469 36.1094,300.0469 Q37.0469,300.0469 37.7031,299.7969 Q38.0938,299.6406 38.5156,299.2031 Q38.7813,298.9375 38.9219,298.8594 Q39.0781,298.7813 39.2813,298.7813 Q39.6094,298.7813 39.8594,299.0469 Q40.125,299.2969 40.125,299.6406 Q40.125,299.9844 39.7813,300.3906 Q39.2813,300.9688 38.4844,301.2969 Q37.4063,301.75 36.1094,301.75 Q34.5938,301.75 33.3906,301.125 Q32.4063,300.625 31.7188,299.5625 Q31.0313,298.4844 31.0313,297.2031 L31.0313,296.0469 Q31.0313,294.7188 31.6406,293.5781 Q32.2656,292.4219 33.3594,291.8125 Q34.4531,291.1875 35.6875,291.1875 Q36.4219,291.1875 37.0625,291.3594 Q37.7188,291.5156 38.2656,291.875 Z "/><text fill="#000000" font-family="sans-serif" font-size="12" lengthAdjust="spacingAndGlyphs" textLength="61" x="49.5" y="300.9102">TableHead</text><line style="stroke: #A80036; stroke-width: 1.5;" x1="21.5" x2="112.5" y1="312" y2="312"/><text fill="#000000" font-family="sans-serif" font-size="11" lengthAdjust="spacingAndGlyphs" textLength="40" x="26.5" y="327.4189">columns</text><line style="stroke: #A80036; stroke-width: 1.5;" x1="21.5" x2="112.5" y1="333.8359" y2="333.8359"/><!--class TableColumns--><rect fill="#FEFECE" filter="url(#f10rqqcbdrkycj)" height="61.8359" id="TableColumns" style="stroke: #A80036; stroke-width: 1.5;" width="114" x="6" y="402"/><ellipse cx="21" cy="418" fill="#ADD1B2" rx="11" ry="11" style="stroke: #A80036; stroke-width: 1.0;"/><path d="M23.7656,413.875 Q23.9219,413.6563 24.1094,413.5469 Q24.2969,413.4375 24.5156,413.4375 Q24.8906,413.4375 25.125,413.7031 Q25.3594,413.9531 25.3594,414.5625 L25.3594,416.0156 Q25.3594,416.625 25.125,416.8906 Q24.8906,417.1563 24.5156,417.1563 Q24.1719,417.1563 23.9688,416.9531 Q23.7656,416.7656 23.6563,416.25 Q23.6094,415.8906 23.4219,415.7031 Q23.0938,415.3281 22.4844,415.1094 Q21.875,414.8906 21.25,414.8906 Q20.4844,414.8906 19.8438,415.2188 Q19.2188,415.5469 18.7188,416.2969 Q18.2344,417.0469 18.2344,418.0781 L18.2344,419.1719 Q18.2344,420.4063 19.125,421.2344 Q20.0156,422.0469 21.6094,422.0469 Q22.5469,422.0469 23.2031,421.7969 Q23.5938,421.6406 24.0156,421.2031 Q24.2813,420.9375 24.4219,420.8594 Q24.5781,420.7813 24.7813,420.7813 Q25.1094,420.7813 25.3594,421.0469 Q25.625,421.2969 25.625,421.6406 Q25.625,421.9844 25.2813,422.3906 Q24.7813,422.9688 23.9844,423.2969 Q22.9063,423.75 21.6094,423.75 Q20.0938,423.75 18.8906,423.125 Q17.9063,422.625 17.2188,421.5625 Q16.5313,420.4844 16.5313,419.2031 L16.5313,418.0469 Q16.5313,416.7188 17.1406,415.5781 Q17.7656,414.4219 18.8594,413.8125 Q19.9531,413.1875 21.1875,413.1875 Q21.9219,413.1875 22.5625,413.3594 Q23.2188,413.5156 23.7656,413.875 Z "/><text fill="#000000" font-family="sans-serif" font-size="12" lengthAdjust="spacingAndGlyphs" textLength="82" x="35" y="422.9102">TableColumns</text><line style="stroke: #A80036; stroke-width: 1.5;" x1="7" x2="119" y1="434" y2="434"/><text fill="#000000" font-family="sans-serif" font-size="11" lengthAdjust="spacingAndGlyphs" textLength="40" x="12" y="449.4189">columns</text><line style="stroke: #A80036; stroke-width: 1.5;" x1="7" x2="119" y1="455.8359" y2="455.8359"/><!--class TableBody--><rect fill="#FEFECE" filter="url(#f10rqqcbdrkycj)" height="61.8359" id="TableBody" style="stroke: #A80036; stroke-width: 1.5;" width="90" x="151" y="280"/><ellipse cx="166" cy="296" fill="#ADD1B2" rx="11" ry="11" style="stroke: #A80036; stroke-width: 1.0;"/><path d="M168.7656,291.875 Q168.9219,291.6563 169.1094,291.5469 Q169.2969,291.4375 169.5156,291.4375 Q169.8906,291.4375 170.125,291.7031 Q170.3594,291.9531 170.3594,292.5625 L170.3594,294.0156 Q170.3594,294.625 170.125,294.8906 Q169.8906,295.1563 169.5156,295.1563 Q169.1719,295.1563 168.9688,294.9531 Q168.7656,294.7656 168.6563,294.25 Q168.6094,293.8906 168.4219,293.7031 Q168.0938,293.3281 167.4844,293.1094 Q166.875,292.8906 166.25,292.8906 Q165.4844,292.8906 164.8438,293.2188 Q164.2188,293.5469 163.7188,294.2969 Q163.2344,295.0469 163.2344,296.0781 L163.2344,297.1719 Q163.2344,298.4063 164.125,299.2344 Q165.0156,300.0469 166.6094,300.0469 Q167.5469,300.0469 168.2031,299.7969 Q168.5938,299.6406 169.0156,299.2031 Q169.2813,298.9375 169.4219,298.8594 Q169.5781,298.7813 169.7813,298.7813 Q170.1094,298.7813 170.3594,299.0469 Q170.625,299.2969 170.625,299.6406 Q170.625,299.9844 170.2813,300.3906 Q169.7813,300.9688 168.9844,301.2969 Q167.9063,301.75 166.6094,301.75 Q165.0938,301.75 163.8906,301.125 Q162.9063,300.625 162.2188,299.5625 Q161.5313,298.4844 161.5313,297.2031 L161.5313,296.0469 Q161.5313,294.7188 162.1406,293.5781 Q162.7656,292.4219 163.8594,291.8125 Q164.9531,291.1875 166.1875,291.1875 Q166.9219,291.1875 167.5625,291.3594 Q168.2188,291.5156 168.7656,291.875 Z "/><text fill="#000000" font-family="sans-serif" font-size="12" lengthAdjust="spacingAndGlyphs" textLength="58" x="180" y="300.9102">TableBody</text><line style="stroke: #A80036; stroke-width: 1.5;" x1="152" x2="240" y1="312" y2="312"/><text fill="#000000" font-family="sans-serif" font-size="11" lengthAdjust="spacingAndGlyphs" textLength="26" x="157" y="327.4189">rows</text><line style="stroke: #A80036; stroke-width: 1.5;" x1="152" x2="240" y1="333.8359" y2="333.8359"/><!--class TableRow--><rect fill="#FEFECE" filter="url(#f10rqqcbdrkycj)" height="61.8359" id="TableRow" style="stroke: #A80036; stroke-width: 1.5;" width="88" x="155" y="402"/><ellipse cx="170" cy="418" fill="#ADD1B2" rx="11" ry="11" style="stroke: #A80036; stroke-width: 1.0;"/><path d="M172.7656,413.875 Q172.9219,413.6563 173.1094,413.5469 Q173.2969,413.4375 173.5156,413.4375 Q173.8906,413.4375 174.125,413.7031 Q174.3594,413.9531 174.3594,414.5625 L174.3594,416.0156 Q174.3594,416.625 174.125,416.8906 Q173.8906,417.1563 173.5156,417.1563 Q173.1719,417.1563 172.9688,416.9531 Q172.7656,416.7656 172.6563,416.25 Q172.6094,415.8906 172.4219,415.7031 Q172.0938,415.3281 171.4844,415.1094 Q170.875,414.8906 170.25,414.8906 Q169.4844,414.8906 168.8438,415.2188 Q168.2188,415.5469 167.7188,416.2969 Q167.2344,417.0469 167.2344,418.0781 L167.2344,419.1719 Q167.2344,420.4063 168.125,421.2344 Q169.0156,422.0469 170.6094,422.0469 Q171.5469,422.0469 172.2031,421.7969 Q172.5938,421.6406 173.0156,421.2031 Q173.2813,420.9375 173.4219,420.8594 Q173.5781,420.7813 173.7813,420.7813 Q174.1094,420.7813 174.3594,421.0469 Q174.625,421.2969 174.625,421.6406 Q174.625,421.9844 174.2813,422.3906 Q173.7813,422.9688 172.9844,423.2969 Q171.9063,423.75 170.6094,423.75 Q169.0938,423.75 167.8906,423.125 Q166.9063,422.625 166.2188,421.5625 Q165.5313,420.4844 165.5313,419.2031 L165.5313,418.0469 Q165.5313,416.7188 166.1406,415.5781 Q166.7656,414.4219 167.8594,413.8125 Q168.9531,413.1875 170.1875,413.1875 Q170.9219,413.1875 171.5625,413.3594 Q172.2188,413.5156 172.7656,413.875 Z "/><text fill="#000000" font-family="sans-serif" font-size="12" lengthAdjust="spacingAndGlyphs" textLength="56" x="184" y="422.9102">TableRow</text><line style="stroke: #A80036; stroke-width: 1.5;" x1="156" x2="242" y1="434" y2="434"/><text fill="#000000" font-family="sans-serif" font-size="11" lengthAdjust="spacingAndGlyphs" textLength="20" x="161" y="449.4189">row</text><line style="stroke: #A80036; stroke-width: 1.5;" x1="156" x2="242" y1="455.8359" y2="455.8359"/><!--link App to Table--><path d="M130,97.46 C130,108.29 130,119.74 130,130.57 " fill="none" id="App-Table" style="stroke: #A80036; stroke-width: 1.0;"/><polygon fill="#A80036" points="130,143.87,134,134.87,130,138.87,126,134.87,130,143.87" style="stroke: #A80036; stroke-width: 1.0;"/><line style="stroke: #A80036; stroke-width: 1.0;" x1="130" x2="130" y1="138.87" y2="130.87"/><polygon fill="#A80036" points="130,84.33,126,90.33,130,96.33,134,90.33,130,84.33" style="stroke: #A80036; stroke-width: 1.0;"/><!--link Table to TableHead--><path d="M105.65,232.08 C99.78,243.92 93.55,256.47 87.85,267.96 " fill="none" id="Table-TableHead" style="stroke: #A80036; stroke-width: 1.0;"/><polygon fill="#A80036" points="81.92,279.93,89.501,273.6429,84.1407,275.4502,82.3334,270.0898,81.92,279.93" style="stroke: #A80036; stroke-width: 1.0;"/><line style="stroke: #A80036; stroke-width: 1.0;" x1="84.1407" x2="87.695" y1="275.4502" y2="268.28"/><polygon fill="#A80036" points="111.61,220.08,105.3614,223.6792,106.2804,230.8315,112.529,227.2323,111.61,220.08" style="stroke: #A80036; stroke-width: 1.0;"/><!--link TableHead to TableColumns--><path d="M65.56,355.28 C65.2,366.1 64.81,377.72 64.45,388.55 " fill="none" id="TableHead-TableColumns" style="stroke: #A80036; stroke-width: 1.0;"/><polygon fill="#A80036" points="64.01,401.73,68.3141,392.8714,64.1802,396.7329,60.3187,392.599,64.01,401.73" style="stroke: #A80036; stroke-width: 1.0;"/><line style="stroke: #A80036; stroke-width: 1.0;" x1="64.1802" x2="64.44" y1="396.7329" y2="388.735"/><polygon fill="#A80036" points="65.99,342.28,61.7878,348.1402,65.581,354.273,69.7832,348.4128,65.99,342.28" style="stroke: #A80036; stroke-width: 1.0;"/><!--link Table to TableBody--><path d="M155.51,232.08 C161.73,244.05 168.32,256.74 174.34,268.33 " fill="none" id="Table-TableBody" style="stroke: #A80036; stroke-width: 1.0;"/><polygon fill="#A80036" points="180.37,279.93,179.7632,270.0999,178.0617,275.4947,172.6668,273.7932,180.37,279.93" style="stroke: #A80036; stroke-width: 1.0;"/><line style="stroke: #A80036; stroke-width: 1.0;" x1="178.0617" x2="174.375" y1="275.4947" y2="268.39"/><polygon fill="#A80036" points="149.27,220.08,148.4881,227.2486,154.8046,230.7275,155.5864,223.5589,149.27,220.08" style="stroke: #A80036; stroke-width: 1.0;"/><!--link TableBody to TableRow--><path d="M197.08,355.28 C197.35,366.1 197.64,377.72 197.91,388.55 " fill="none" id="TableBody-TableRow" style="stroke: #A80036; stroke-width: 1.0;"/><polygon fill="#A80036" points="198.24,401.73,202.0113,392.6318,198.1137,396.7316,194.0139,392.8339,198.24,401.73" style="stroke: #A80036; stroke-width: 1.0;"/><line style="stroke: #A80036; stroke-width: 1.0;" x1="198.1137" x2="197.92" y1="396.7316" y2="388.735"/><polygon fill="#A80036" points="196.76,342.28,192.9129,348.3792,197.0632,354.2762,200.9103,348.177,196.76,342.28" style="stroke: #A80036; stroke-width: 1.0;"/><!--
@startuml

class App{
  columns
  rows
}
class Table{
  columns
  rows
}
class TableHead{
  columns
}
class TableColumns{
  columns
}
class TableBody{
  rows
}
class TableRow{
  row
}
App *-down-> Table
Table *-down-> TableHead
TableHead *-down-> TableColumns
Table *-down-> TableBody
TableBody *-down-> TableRow
@enduml

PlantUML version 1.2019.05(Sat Apr 20 18:45:36 CEST 2019)
(GPL source distribution)
Java Runtime: Java(TM) SE Runtime Environment
JVM: Java HotSpot(TM) 64-Bit Server VM
Java Version: 11.0.14+8-LTS-263
Operating System: Windows 10
OS Version: 10.0
Default Encoding: windows-1252
Language: es
Country: ES
--></g></svg>