<?xml version="1.0" encoding="UTF-8" standalone="no"?><svg xmlns="http://www.w3.org/2000/svg" xmlns:xlink="http://www.w3.org/1999/xlink" contentScriptType="application/ecmascript" contentStyleType="text/css" height="1311px" preserveAspectRatio="none" style="width:1009px;height:1311px;background:#222222;" version="1.1" viewBox="0 0 1009 1311" width="1009px" zoomAndPan="magnify"><defs/><g><!--cluster disciplines--><polygon fill="#222222" points="22,24,22,24.2102,32,23.5857,42,24.1933,52,24.3997,62,23.2866,72,23.9223,82,23.5735,92,23.6165,102,23.9318,112,23.3086,122,24.5536,132,23.3697,142,23.8022,152,24.4319,162,24,161.972,23.9943,163.4223,30.8272,164.7896,37.6432,166.2583,44.4799,167.6781,51.3066,169,58.1133,169,58.3085,171.6,58.337,174.2,58.3397,176.8,58.1982,179.4,58.2678,182,58.1133,182.7022,58.1133,181.2788,68.2752,182.6785,78.4372,181.7035,88.5991,182.5338,98.7611,181.505,108.923,181.9315,119.085,182.7416,129.2469,181.9513,139.4089,182.1053,149.5708,182.3386,159.7327,182.4162,169.8947,181.9961,180.0566,182.2872,190.2186,181.4276,200.3805,182.2844,210.5425,182.5482,220.7044,182.4445,230.8664,182.613,241.0283,181.5169,251.1903,181.3478,261.3522,181.3786,271.5142,181.9411,281.6761,181.8035,291.8381,182,302,182,302.6814,172,301.8253,162,301.6569,152,302.2283,142,301.3332,132,301.4809,122,302.649,112,302.4357,102,302.7345,92,301.6782,82,302.3192,72,302.5904,62,301.5276,52,301.9041,42,302.126,32,302.6518,22,302,21.9958,302,22.4626,292.0714,21.4462,282.1429,21.3227,272.2143,22.5036,262.2857,21.2831,252.3571,22.509,242.4286,22.2066,232.5,21.7321,222.5714,21.6462,212.6429,22.4588,202.7143,21.7007,192.7857,22.5919,182.8571,21.4473,172.9286,22.6174,163,22.4843,153.0714,22.245,143.1429,22.0472,133.2143,22.7266,123.2857,22.6136,113.3571,22.1693,103.4286,22.2682,93.5,21.8697,83.5714,22.7165,73.6429,22.1549,63.7143,22.1726,53.7857,21.3916,43.8571,21.5948,33.9286,22,24" style="stroke: #750B20; stroke-width: 3.0;"/><path d="M22,58.1133 L22,58.3935 L31.8,57.5609 L41.6,58.371 L51.4,58.6462 L61.2,57.1621 L71,58.0097 L80.8,57.5446 L90.6,57.6019 L100.4,58.0224 L110.2,57.1915 L120,58.8515 L129.8,57.2729 L139.6,57.8496 L149.4,58.6892 L159.2,57.9989 L169,58.1133 " fill="#222222" style="stroke: #750B20; stroke-width: 3.0;"/><text fill="#750B20" font-family="courier" font-size="20" font-weight="bold" lengthAdjust="spacingAndGlyphs" textLength="132" x="27" y="47.1074">disciplines</text><!--cluster activities--><polygon fill="#222222" points="206,172,206,172.2102,215.8462,171.5857,225.6923,172.1933,235.5385,172.3997,245.3846,171.2866,255.2308,171.9223,265.0769,171.5735,274.9231,171.6165,284.7692,171.9318,294.6154,171.3086,304.4615,172.5536,314.3077,171.3697,324.1538,171.8022,334,172,334.141,172.0289,335.372,178.8169,336.8223,185.6499,338.1896,192.4658,339.6583,199.3026,341,206.1133,341,206.3524,351,206.699,361,206.7843,371,206.7925,381,206.3679,391,206.5769,401,206.8155,411,205.3921,421,206.7918,431,205.8168,441,206.6471,451,205.6183,461,206.0448,471,206.8549,481,206.0645,491,206.2186,501,206.1133,501.3386,206.1133,501.4162,216.1121,500.9961,226.1109,501.2872,236.1097,500.4276,246.1085,501.2844,256.1073,501.5482,266.1061,501.4445,276.1049,501.613,286.1037,500.5169,296.1025,500.3478,306.1014,500.3786,316.1002,500.9411,326.099,500.8035,336.0978,501.6814,346.0966,500.8253,356.0954,500.6569,366.0942,501.2283,376.093,500.3332,386.0918,500.4809,396.0906,501.649,406.0894,501.4357,416.0882,501.7345,426.087,500.6782,436.0859,501.3192,446.0847,501.5904,456.0835,500.5276,466.0823,500.9041,476.0811,501.126,486.0799,501.6518,496.0787,500.9958,506.0775,501.4626,516.0763,500.4462,526.0751,500.3227,536.0739,501.5036,546.0727,500.2831,556.0715,501.509,566.0704,501.2066,576.0692,500.7321,586.068,500.6462,596.0668,501.4588,606.0656,500.7007,616.0644,501.5919,626.0632,500.4473,636.062,501.6174,646.0608,501.4843,656.0596,501.245,666.0584,501.0472,676.0572,501.7266,686.056,501.6136,696.0549,501.1693,706.0537,501.2682,716.0525,500.8697,726.0513,501.7165,736.0501,501.1549,746.0489,501.1726,756.0477,500.3916,766.0465,500.5948,776.0453,501.5307,786.0441,501.4298,796.0429,500.9571,806.0417,500.6778,816.0405,500.7811,826.0394,500.3138,836.0382,501.4147,846.037,501.7396,856.0358,501.5264,866.0346,501.6949,876.0334,500.8633,886.0322,501.0872,896.031,500.6124,906.0298,501.284,916.0286,501.2468,926.0274,501.5524,936.0262,500.7703,946.025,500.8656,956.0238,501.4435,966.0227,501.5673,976.0215,500.4875,986.0203,500.8061,996.0191,501.1493,1006.0179,500.3892,1016.0167,501.3534,1026.0155,501.258,1036.0143,500.8992,1046.0131,501.1422,1056.0119,501.7287,1066.0107,500.6871,1076.0095,501.315,1086.0083,501.2856,1096.0072,501.1158,1106.006,501.1409,1116.0048,501.1135,1126.0036,500.3758,1136.0024,500.5992,1146.0012,501,1156,501,1155.5385,491.1667,1156.0638,481.3333,1156.0881,471.5,1156.1617,461.6667,1155.709,451.8333,1155.9325,442,1155.8798,432.1667,1156.5769,422.3333,1156.4266,412.5,1155.5145,402.6667,1155.9271,392.8333,1155.4228,383,1156.2884,373.1667,1156.6085,363.3333,1156.5446,353.5,1155.5644,343.6667,1156.464,333.8333,1155.2572,324,1156.2002,314.1667,1155.7007,304.3333,1156.0967,294.5,1156.2403,284.6667,1156.4721,274.8333,1155.2801,265,1156.4755,255.1667,1156.1782,245.3333,1156.3553,235.5,1156.7478,225.6667,1156.0055,215.8333,1156.1753,206,1156,206.2134,1156,206.1972,1145.9592,205.9992,1135.9184,206.7107,1125.8776,205.3903,1115.8367,206.5653,1105.7959,205.376,1095.7551,205.4597,1085.7143,206.04,1075.6735,206.0283,1065.6327,205.5072,1055.5918,206.4137,1045.551,206.1089,1035.5102,206.7267,1025.4694,206.6671,1015.4286,205.5517,1005.3878,205.6021,995.3469,205.8708,985.3061,206.3555,975.2653,206.403,965.2245,206.3012,955.1837,205.658,945.1429,206.6364,935.102,206.6338,925.0612,205.9527,915.0204,205.7609,904.9796,205.5986,894.9388,205.7854,884.898,206.1374,874.8571,205.9316,864.8163,205.5822,854.7755,206.4874,844.7347,205.5411,834.6939,206.5024,824.6531,206.4272,814.6122,206.3719,804.5714,206.6925,794.5306,205.7541,784.4898,205.6994,774.449,206.5189,764.4082,205.4031,754.3673,205.766,744.3265,206.1155,734.2857,206.0687,724.2449,205.6415,714.2041,205.957,704.1633,206.7446,694.1224,206.6485,684.0816,205.4037,674.0408,206.0785,664,205.4861,653.9592,205.9737,643.9184,206.293,633.8776,206.4199,623.8367,205.3353,613.7959,206.4005,603.7551,206.0084,593.7143,205.4447,583.6735,205.5289,573.6327,206.3266,563.5918,206.2499,553.551,205.9836,543.5102,205.3279,533.4694,206.6581,523.4286,205.6882,513.3878,205.4719,503.3469,205.9327,493.3061,206.5897,483.2653,206.6154,473.2245,206.0351,463.1837,205.8488,453.1429,206.1698,443.102,206.1862,433.0612,205.4922,423.0204,206.414,412.9796,206.5588,402.9388,205.7842,392.898,205.5708,382.8571,206.6746,372.8163,206.021,362.7755,205.9998,352.7347,206.299,342.6939,205.3543,332.6531,206.53,322.6122,205.9846,312.5714,206.6688,302.5306,205.7841,292.4898,206.409,282.449,205.556,272.4082,206.245,262.3673,206.3793,252.3265,205.6727,242.2857,206.363,232.2449,205.4286,222.2041,205.5295,212.1633,206.6828,202.1224,206.6844,192.0816,206.5685,182.0408,206,172" style="stroke: #196719; stroke-width: 3.0;"/><path d="M206,206.1133 L206,206.3935 L215.6429,205.5609 L225.2857,206.371 L234.9286,206.6462 L244.5714,205.1621 L254.2143,206.0097 L263.8571,205.5446 L273.5,205.6019 L283.1429,206.0224 L292.7857,205.1915 L302.4286,206.8515 L312.0714,205.2729 L321.7143,205.8496 L331.3571,206.6892 L341,206.1133 " fill="#222222" style="stroke: #196719; stroke-width: 3.0;"/><text fill="#196719" font-family="courier" font-size="20" font-weight="bold" lengthAdjust="spacingAndGlyphs" textLength="120" x="211" y="195.1074">activities</text><!--cluster team--><polygon fill="#222222" points="525,686,525,686.2102,534.3333,685.5857,543.6667,686.1933,553,686.3997,562.3333,685.2866,571.6667,685.9223,581,686,580.8607,685.9714,582.2748,692.797,583.7777,699.6407,584.9742,706.4216,586.7808,713.3277,588,720.1133,588,719.483,597.975,719.9155,607.95,720.5452,617.925,720.0275,627.9,720.1815,637.875,720.0813,647.85,720.2918,657.825,720.3524,667.8,720.699,677.775,720.7843,687.75,720.7925,697.725,720.3679,707.7,720.5769,717.675,720.8155,727.65,719.3921,737.625,720.7918,747.6,719.8168,757.575,720.6471,767.55,719.6183,777.525,720.0448,787.5,720.8549,797.475,720.0645,807.45,720.2186,817.425,720.4519,827.4,720.5295,837.375,720.1094,847.35,720.4005,857.325,719.5409,867.3,720.3977,877.275,720.6615,887.25,720.5578,897.225,720.7263,907.2,719.6302,917.175,719.4611,927.15,719.4919,937.125,720.0544,947.1,719.9168,957.075,720.7947,967.05,719.9386,977.025,719.7702,987,720.1133,987.2283,720.1133,986.3332,730.0941,986.4809,740.0749,987.649,750.0557,987.4357,760.0365,987.7345,770.0173,986.6782,779.9981,987.3192,789.9789,987.5904,799.9597,986.5276,809.9405,986.9041,819.9213,987.126,829.9021,987.6518,839.8829,986.9958,849.8638,987.4626,859.8446,986.4462,869.8254,986.3227,879.8062,987.5036,889.787,986.2831,899.7678,987.509,909.7486,987.2066,919.7294,986.7321,929.7102,986.6462,939.691,987.4588,949.6718,986.7007,959.6526,987.5919,969.6334,986.4473,979.6142,987.6174,989.595,987.4843,999.5758,987.245,1009.5566,987.0472,1019.5374,987.7266,1029.5183,987.6136,1039.4991,987.1693,1049.4799,987.2682,1059.4607,986.8697,1069.4415,987.7165,1079.4223,987.1549,1089.4031,987.1726,1099.3839,986.3916,1109.3647,986.5948,1119.3455,987.5307,1129.3263,987.4298,1139.3071,986.9571,1149.2879,986.6778,1159.2687,986.7811,1169.2495,986.3138,1179.2303,987.4147,1189.2111,987.7396,1199.1919,987.5264,1209.1728,987.6949,1219.1536,986.8633,1229.1344,987.0872,1239.1152,986.6124,1249.096,987.284,1259.0768,987.2468,1269.0576,987.5524,1279.0384,986.7703,1289.0192,987,1299,987,1298.8656,976.9565,1299.4435,966.913,1299.5673,956.8696,1298.4875,946.8261,1298.8061,936.7826,1299.1493,926.7391,1298.3892,916.6957,1299.3534,906.6522,1299.258,896.6087,1298.8992,886.5652,1299.1422,876.5217,1299.7287,866.4783,1298.6871,856.4348,1299.315,846.3913,1299.2856,836.3478,1299.1158,826.3043,1299.1409,816.2609,1299.1135,806.2174,1298.3758,796.1739,1298.5992,786.1304,1298.5385,776.087,1299.0638,766.0435,1299.0881,756,1299.1617,745.9565,1298.709,735.913,1298.9325,725.8696,1298.8798,715.8261,1299.5769,705.7826,1299.4266,695.7391,1298.5145,685.6957,1298.9271,675.6522,1298.4228,665.6087,1299.2884,655.5652,1299.6085,645.5217,1299.5446,635.4783,1298.5644,625.4348,1299.464,615.3913,1298.2572,605.3478,1299.2002,595.3043,1298.7007,585.2609,1299.0967,575.2174,1299.2403,565.1739,1299.4721,555.1304,1298.2801,545.087,1299.4755,535.0435,1299.1782,525,1299,525.3553,1299,525.7478,1288.9508,525.0055,1278.9016,525.1753,1268.8525,525.2134,1258.8033,525.1972,1248.7541,524.9992,1238.7049,525.7107,1228.6557,524.3903,1218.6066,525.5653,1208.5574,524.376,1198.5082,524.4597,1188.459,525.04,1178.4098,525.0283,1168.3607,524.5072,1158.3115,525.4137,1148.2623,525.1089,1138.2131,525.7267,1128.1639,525.6671,1118.1148,524.5517,1108.0656,524.6021,1098.0164,524.8708,1087.9672,525.3555,1077.918,525.403,1067.8689,525.3012,1057.8197,524.658,1047.7705,525.6364,1037.7213,525.6338,1027.6721,524.9527,1017.623,524.7609,1007.5738,524.5986,997.5246,524.7854,987.4754,525.1374,977.4262,524.9316,967.377,524.5822,957.3279,525.4874,947.2787,524.5411,937.2295,525.5024,927.1803,525.4272,917.1311,525.3719,907.082,525.6925,897.0328,524.7541,886.9836,524.6994,876.9344,525.5189,866.8852,524.4031,856.8361,524.766,846.7869,525.1155,836.7377,525.0687,826.6885,524.6415,816.6393,524.957,806.5902,525.7446,796.541,525.6485,786.4918,524.4037,776.4426,525.0785,766.3934,524.4861,756.3443,524.9737,746.2951,525.293,736.2459,525.4199,726.1967,524.3353,716.1475,525.4005,706.0984,525.0084,696.0492,525,686" style="stroke: #004080; stroke-width: 3.0;"/><path d="M525,720.1133 L525,720.3935 L535.5,719.5609 L546,720.371 L556.5,720.6462 L567,719.1621 L577.5,720.0097 L588,720.1133 " fill="#222222" style="stroke: #004080; stroke-width: 3.0;"/><text fill="#004080" font-family="courier" font-size="20" font-weight="bold" lengthAdjust="spacingAndGlyphs" textLength="48" x="530" y="709.1074">team</text><!--class Discipline--><polygon fill="#222222" points="38,71,38,71.2102,47.8462,70.5857,57.6923,71.1933,67.5385,71.3997,77.3846,70.2866,87.2308,70.9223,97.0769,70.5735,106.9231,70.6165,116.7692,70.9318,126.6154,70.3086,136.4615,71.5536,146.3077,70.3697,156.1538,70.8022,166,71,166.4319,71,165.9142,81.8227,166.0682,92.6453,165.9681,103.468,166.1785,114.2906,166,125.1133,166,125.3524,156.1538,125.699,146.3077,125.7843,136.4615,125.7925,126.6154,125.3679,116.7692,125.5769,106.9231,125.8155,97.0769,124.3921,87.2308,125.7918,77.3846,124.8168,67.5385,125.6471,57.6923,124.6183,47.8462,125.0448,38,125.1133,38.7416,125.1133,37.9513,114.2906,38.1053,103.468,38.3386,92.6453,38.4162,81.8227,38,71" style="stroke: #750B20; stroke-width: 3.0;"/><text fill="#750B20" font-family="courier" font-size="20" font-weight="bold" lengthAdjust="spacingAndGlyphs" textLength="120" x="42" y="97.1074">Discipline</text><path d="M39,109.1133 L39,109.3935 L48.6923,108.5609 L58.3846,109.371 L68.0769,109.6462 L77.7692,108.1621 L87.4615,109.0097 L97.1538,108.5446 L106.8462,108.6019 L116.5385,109.0224 L126.2308,108.1915 L135.9231,109.8515 L145.6154,108.2729 L155.3077,108.8496 L165,109.1133 " fill="#222222" style="stroke: #750B20; stroke-width: 3.0;"/><path d="M39,117.1133 L39,117.3935 L48.6923,116.5609 L58.3846,117.371 L68.0769,117.6462 L77.7692,116.1621 L87.4615,117.0097 L97.1538,116.5446 L106.8462,116.6019 L116.5385,117.0224 L126.2308,116.1915 L135.9231,117.8515 L145.6154,116.2729 L155.3077,116.8496 L165,117.1133 " fill="#222222" style="stroke: #750B20; stroke-width: 3.0;"/><!--class AnalysisDiscipline--><polygon fill="#222222" points="38,206,38,206.2102,47.8462,205.5857,57.6923,206.1933,67.5385,206.3997,77.3846,205.2866,87.2308,205.9223,97.0769,205.5735,106.9231,205.6165,116.7692,205.9318,126.6154,205.3086,136.4615,206.5536,146.3077,205.3697,156.1538,205.8022,166,206,166.4319,206,165.9142,216.0283,166.0682,226.0566,165.9681,236.085,166.1785,246.1133,166.2391,256.1416,166.5857,266.1699,166.6711,276.1982,166,286.2266,166,286.9058,156.1538,286.4812,146.3077,286.6901,136.4615,286.9288,126.6154,285.5054,116.7692,286.9051,106.9231,285.9301,97.0769,286.7604,87.2308,285.7315,77.3846,286.1581,67.5385,286.9682,57.6923,286.1778,47.8462,286.3319,38,286.2266,38.3386,286.2266,38.4162,276.1982,37.9961,266.1699,38.2872,256.1416,37.4276,246.1133,38.2844,236.085,38.5482,226.0566,38.4445,216.0283,38,206" style="stroke: #750B20; stroke-width: 3.0;"/><text fill="#750B20" font-family="courier" font-size="20" font-weight="bold" lengthAdjust="spacingAndGlyphs" textLength="96" x="54" y="232.1074">Analysis</text><text fill="#750B20" font-family="courier" font-size="20" font-weight="bold" lengthAdjust="spacingAndGlyphs" textLength="120" x="42" y="258.2207">Discipline</text><path d="M39,270.2266 L39,270.5068 L48.6923,269.6741 L58.3846,270.4843 L68.0769,270.7595 L77.7692,269.2754 L87.4615,270.1229 L97.1538,269.6579 L106.8462,269.7152 L116.5385,270.1357 L126.2308,269.3047 L135.9231,270.9648 L145.6154,269.3862 L155.3077,269.9629 L165,270.2266 " fill="#222222" style="stroke: #750B20; stroke-width: 3.0;"/><path d="M39,278.2266 L39,278.5068 L48.6923,277.6741 L58.3846,278.4843 L68.0769,278.7595 L77.7692,277.2754 L87.4615,278.1229 L97.1538,277.6579 L106.8462,277.7152 L116.5385,278.1357 L126.2308,277.3047 L135.9231,278.9648 L145.6154,277.3862 L155.3077,277.9629 L165,278.2266 " fill="#222222" style="stroke: #750B20; stroke-width: 3.0;"/><!--class Activity--><polygon fill="#222222" points="252,219,252,219.2102,262.4,218.5857,272.8,219.1933,283.2,219.3997,293.6,218.2866,304,218.9223,314.4,218.5735,324.8,218.6165,335.2,218.9318,345.6,218.3086,356,219,356.5536,219,355.3697,229.8227,355.8022,240.6453,356.4319,251.468,355.9142,262.2906,356,273.1133,356,273.1815,345.6,273.0813,335.2,273.2918,324.8,273.3524,314.4,273.699,304,273.7843,293.6,273.7925,283.2,273.3679,272.8,273.5769,262.4,273.8155,252,273.1133,251.2788,273.1133,252.6785,262.2906,251.7035,251.468,252.5338,240.6453,251.505,229.8227,252,219" style="stroke: #196719; stroke-width: 3.0;"/><text fill="#196719" font-family="courier" font-size="20" font-weight="bold" lengthAdjust="spacingAndGlyphs" textLength="96" x="256" y="245.1074">Activity</text><path d="M253,257.1133 L253,257.3935 L263.2,256.5609 L273.4,257.371 L283.6,257.6462 L293.8,256.1621 L304,257.0097 L314.2,256.5446 L324.4,256.6019 L334.6,257.0224 L344.8,256.1915 L355,257.1133 " fill="#222222" style="stroke: #196719; stroke-width: 3.0;"/><path d="M253,265.1133 L253,265.3935 L263.2,264.5609 L273.4,265.371 L283.6,265.6462 L293.8,264.1621 L304,265.0097 L314.2,264.5446 L324.4,264.6019 L334.6,265.0224 L344.8,264.1915 L355,265.1133 " fill="#222222" style="stroke: #196719; stroke-width: 3.0;"/><!--class AnalysisActivity--><polygon fill="#222222" points="283,369,283,369.2102,293.4,368.5857,303.8,369.1933,314.2,369.3997,324.6,368.2866,335,368.9223,345.4,368.5735,355.8,368.6165,366.2,368.9318,376.6,368.3086,387,369,387.5536,369,386.3697,379.0283,386.8022,389.0566,387.4319,399.085,386.9142,409.1133,387.0682,419.1416,386.9681,429.1699,387.1785,439.1982,387,449.2266,387,449.4657,376.6,449.8123,366.2,449.8976,355.8,449.9058,345.4,449.4812,335,449.6901,324.6,449.9288,314.2,448.5054,303.8,449.9051,293.4,448.9301,283,449.2266,283.5338,449.2266,282.505,439.1982,282.9315,429.1699,283.7416,419.1416,282.9513,409.1133,283.1053,399.085,283.3386,389.0566,283.4162,379.0283,283,369" style="stroke: #196719; stroke-width: 3.0;"/><text fill="#196719" font-family="courier" font-size="20" font-weight="bold" lengthAdjust="spacingAndGlyphs" textLength="96" x="287" y="395.1074">Analysis</text><text fill="#196719" font-family="courier" font-size="20" font-weight="bold" lengthAdjust="spacingAndGlyphs" textLength="96" x="287" y="421.2207">Activity</text><path d="M284,433.2266 L284,433.5068 L294.2,432.6741 L304.4,433.4843 L314.6,433.7595 L324.8,432.2754 L335,433.1229 L345.2,432.6579 L355.4,432.7152 L365.6,433.1357 L375.8,432.3047 L386,433.2266 " fill="#222222" style="stroke: #196719; stroke-width: 3.0;"/><path d="M284,441.2266 L284,441.5068 L294.2,440.6741 L304.4,441.4843 L314.6,441.7595 L324.8,440.2754 L335,441.1229 L345.2,440.6579 L355.4,440.7152 L365.6,441.1357 L375.8,440.3047 L386,441.2266 " fill="#222222" style="stroke: #196719; stroke-width: 3.0;"/><!--class AnalyzeArchitecture--><polygon fill="#222222" points="259,530,259,530.2102,269.1333,529.5857,279.2667,530.1933,289.4,530.3997,299.5333,529.2866,309.6667,529.9223,319.8,529.5735,329.9333,529.6165,340.0667,529.9318,350.2,529.3086,360.3333,530.5536,370.4667,529.3697,380.6,529.8022,390.7333,530.4319,400.8667,529.9142,411,530,411.0682,530,410.9681,540.0283,411.1785,550.0566,411.2391,560.085,411.5857,570.1133,411.6711,580.1416,411.6793,590.1699,411.2546,600.1982,411,610.2266,411,610.6901,400.8667,610.9288,390.7333,609.5054,380.6,610.9051,370.4667,609.9301,360.3333,610.7604,350.2,609.7315,340.0667,610.1581,329.9333,610.9682,319.8,610.1778,309.6667,610.3319,299.5333,610.5652,289.4,610.6428,279.2667,610.2227,269.1333,610.5138,259,610.2266,258.4276,610.2266,259.2844,600.1982,259.5482,590.1699,259.4445,580.1416,259.613,570.1133,258.5169,560.085,258.3478,550.0566,258.3786,540.0283,259,530" style="stroke: #196719; stroke-width: 3.0;"/><text fill="#196719" font-family="courier" font-size="20" font-weight="bold" lengthAdjust="spacingAndGlyphs" textLength="84" x="293" y="556.1074">Analyze</text><text fill="#196719" font-family="courier" font-size="20" font-weight="bold" lengthAdjust="spacingAndGlyphs" textLength="144" x="263" y="582.2207">Architecture</text><path d="M260,594.2266 L260,594.5068 L270,593.6741 L280,594.4843 L290,594.7595 L300,593.2754 L310,594.1229 L320,593.6579 L330,593.7152 L340,594.1357 L350,593.3047 L360,594.9648 L370,593.3862 L380,593.9629 L390,594.8025 L400,594.1122 L410,594.2266 " fill="#222222" style="stroke: #196719; stroke-width: 3.0;"/><path d="M260,602.2266 L260,602.5068 L270,601.6741 L280,602.4843 L290,602.7595 L300,601.2754 L310,602.1229 L320,601.6579 L330,601.7152 L340,602.1357 L350,601.3047 L360,602.9648 L370,601.3862 L380,601.9629 L390,602.8025 L400,602.1122 L410,602.2266 " fill="#222222" style="stroke: #196719; stroke-width: 3.0;"/><!--class AnalyzeUseCases--><polygon fill="#222222" points="330,720,330,720.2102,339.6667,719.5857,349.3333,720.1933,359,720.3997,368.6667,719.2866,378.3333,719.9223,388,719.5735,397.6667,719.6165,407.3333,719.9318,417,719.3086,426.6667,720.5536,436.3333,719.3697,446,720,445.8022,720,446.4319,730.0283,445.9142,740.0566,446.0682,750.085,445.9681,760.1133,446.1785,770.1416,446.2391,780.1699,446.5857,790.1982,446,800.2266,446,800.8976,436.3333,800.9058,426.6667,800.4812,417,800.6901,407.3333,800.9288,397.6667,799.5054,388,800.9051,378.3333,799.9301,368.6667,800.7604,359,799.7315,349.3333,800.1581,339.6667,800.9682,330,800.2266,329.9513,800.2266,330.1053,790.1982,330.3386,780.1699,330.4162,770.1416,329.9961,760.1133,330.2872,750.085,329.4276,740.0566,330.2844,730.0283,330,720" style="stroke: #196719; stroke-width: 3.0;"/><text fill="#196719" font-family="courier" font-size="20" font-weight="bold" lengthAdjust="spacingAndGlyphs" textLength="84" x="346" y="746.1074">Analyze</text><text fill="#196719" font-family="courier" font-size="20" font-weight="bold" lengthAdjust="spacingAndGlyphs" textLength="108" x="334" y="772.2207">Use Cases</text><path d="M331,784.2266 L331,784.5068 L341.3636,783.6741 L351.7273,784.4843 L362.0909,784.7595 L372.4545,783.2754 L382.8182,784.1229 L393.1818,783.6579 L403.5455,783.7152 L413.9091,784.1357 L424.2727,783.3047 L434.6364,784.9648 L445,784.2266 " fill="#222222" style="stroke: #196719; stroke-width: 3.0;"/><path d="M331,792.2266 L331,792.5068 L341.3636,791.6741 L351.7273,792.4843 L362.0909,792.7595 L372.4545,791.2754 L382.8182,792.1229 L393.1818,791.6579 L403.5455,791.7152 L413.9091,792.1357 L424.2727,791.3047 L434.6364,792.9648 L445,792.2266 " fill="#222222" style="stroke: #196719; stroke-width: 3.0;"/><!--class AnalyzeClasses--><polygon fill="#222222" points="331,890,331,890.2102,341.2222,889.5857,351.4444,890.1933,361.6667,890.3997,371.8889,889.2866,382.1111,889.9223,392.3333,889.5735,402.5556,889.6165,412.7778,889.9318,423,890,422.3086,890,423.5536,900.0283,422.3697,910.0566,422.8022,920.085,423.4319,930.1133,422.9142,940.1416,423.0682,950.1699,422.9681,960.1982,423,970.2266,423,970.4051,412.7778,970.4657,402.5556,970.8123,392.3333,970.8976,382.1111,970.9058,371.8889,970.4812,361.6667,970.6901,351.4444,970.9288,341.2222,969.5054,331,970.2266,331.6785,970.2266,330.7035,960.1982,331.5338,950.1699,330.505,940.1416,330.9315,930.1133,331.7416,920.085,330.9513,910.0566,331.1053,900.0283,331,890" style="stroke: #196719; stroke-width: 3.0;"/><text fill="#196719" font-family="courier" font-size="20" font-weight="bold" lengthAdjust="spacingAndGlyphs" textLength="84" x="335" y="916.1074">Analyze</text><text fill="#196719" font-family="courier" font-size="20" font-weight="bold" lengthAdjust="spacingAndGlyphs" textLength="84" x="335" y="942.2207">Classes</text><path d="M332,954.2266 L332,954.5068 L342,953.6741 L352,954.4843 L362,954.7595 L372,953.2754 L382,954.1229 L392,953.6579 L402,953.7152 L412,954.1357 L422,954.2266 " fill="#222222" style="stroke: #196719; stroke-width: 3.0;"/><path d="M332,962.2266 L332,962.5068 L342,961.6741 L352,962.4843 L362,962.7595 L372,961.2754 L382,962.1229 L392,961.6579 L402,961.7152 L412,962.1357 L422,962.2266 " fill="#222222" style="stroke: #196719; stroke-width: 3.0;"/><!--class AnalyzePackages--><polygon fill="#222222" points="381,1060,381,1060.2102,391.4,1059.5857,401.8,1060.1933,412.2,1060.3997,422.6,1059.2866,433,1059.9223,443.4,1059.5735,453.8,1059.6165,464.2,1059.9318,474.6,1059.3086,485,1060,485.5536,1060,484.3697,1070.0283,484.8022,1080.0566,485.4319,1090.085,484.9142,1100.1133,485.0682,1110.1416,484.9681,1120.1699,485.1785,1130.1982,485,1140.2266,485,1140.4657,474.6,1140.8123,464.2,1140.8976,453.8,1140.9058,443.4,1140.4812,433,1140.6901,422.6,1140.9288,412.2,1139.5054,401.8,1140.9051,391.4,1139.9301,381,1140.2266,381.5338,1140.2266,380.505,1130.1982,380.9315,1120.1699,381.7416,1110.1416,380.9513,1100.1133,381.1053,1090.085,381.3386,1080.0566,381.4162,1070.0283,381,1060" style="stroke: #196719; stroke-width: 3.0;"/><text fill="#196719" font-family="courier" font-size="20" font-weight="bold" lengthAdjust="spacingAndGlyphs" textLength="84" x="391" y="1086.1074">Analyze</text><text fill="#196719" font-family="courier" font-size="20" font-weight="bold" lengthAdjust="spacingAndGlyphs" textLength="96" x="385" y="1112.2207">Packages</text><path d="M382,1124.2266 L382,1124.5068 L392.2,1123.6741 L402.4,1124.4843 L412.6,1124.7595 L422.8,1123.2754 L433,1124.1229 L443.2,1123.6579 L453.4,1123.7152 L463.6,1124.1357 L473.8,1123.3047 L484,1124.2266 " fill="#222222" style="stroke: #196719; stroke-width: 3.0;"/><path d="M382,1132.2266 L382,1132.5068 L392.2,1131.6741 L402.4,1132.4843 L412.6,1132.7595 L422.8,1131.2754 L433,1132.1229 L443.2,1131.6579 L453.4,1131.7152 L463.6,1132.1357 L473.8,1131.3047 L484,1132.2266 " fill="#222222" style="stroke: #196719; stroke-width: 3.0;"/><!--class Member--><polygon fill="#222222" points="550,733,550,733.2102,560,732.5857,570,733.1933,580,733.3997,590,732.2866,600,732.9223,610,732.5735,620,732.6165,630,733,629.9318,733,629.3086,743.8227,630.5536,754.6453,629.3697,765.468,629.8022,776.2906,630,787.1133,630,787.5452,620,787.0275,610,787.1815,600,787.0813,590,787.2918,580,787.3524,570,787.699,560,787.7843,550,787.1133,550.6793,787.1133,550.2546,776.2906,550.4636,765.468,550.7022,754.6453,549.2788,743.8227,550,733" style="stroke: #004080; stroke-width: 3.0;"/><text fill="#004080" font-family="courier" font-size="20" font-weight="bold" lengthAdjust="spacingAndGlyphs" textLength="72" x="554" y="759.1074">Member</text><path d="M551,771.1133 L551,771.3935 L560.75,770.5609 L570.5,771.371 L580.25,771.6462 L590,770.1621 L599.75,771.0097 L609.5,770.5446 L619.25,770.6019 L629,771.1133 " fill="#222222" style="stroke: #004080; stroke-width: 3.0;"/><path d="M551,779.1133 L551,779.3935 L560.75,778.5609 L570.5,779.371 L580.25,779.6462 L590,778.1621 L599.75,779.0097 L609.5,778.5446 L619.25,778.6019 L629,779.1133 " fill="#222222" style="stroke: #004080; stroke-width: 3.0;"/><!--class Role--><polygon fill="#222222" points="653,903,653,903.2102,662.3333,902.5857,671.6667,903.1933,681,903.3997,690.3333,902.2866,699.6667,902.9223,709,903,708.5735,903,708.6165,913.8227,708.9318,924.6453,708.3086,935.468,709.5536,946.2906,709,957.1133,709,956.483,699.6667,956.9155,690.3333,957.5452,681,957.0275,671.6667,957.1815,662.3333,957.0813,653,957.1133,653.1785,957.1133,653.2391,946.2906,653.5857,935.468,653.6711,924.6453,653.6793,913.8227,653,903" style="stroke: #004080; stroke-width: 3.0;"/><text fill="#004080" font-family="courier" font-size="20" font-weight="bold" lengthAdjust="spacingAndGlyphs" textLength="48" x="657" y="929.1074">Role</text><path d="M654,941.1133 L654,941.3935 L664.8,940.5609 L675.6,941.371 L686.4,941.6462 L697.2,940.1621 L708,941.1133 " fill="#222222" style="stroke: #004080; stroke-width: 3.0;"/><path d="M654,949.1133 L654,949.3935 L664.8,948.5609 L675.6,949.371 L686.4,949.6462 L697.2,948.1621 L708,949.1133 " fill="#222222" style="stroke: #004080; stroke-width: 3.0;"/><!--class AnalysisRole--><polygon fill="#222222" points="665,1060,665,1060.2102,675.4,1059.5857,685.8,1060.1933,696.2,1060.3997,706.6,1059.2866,717,1059.9223,727.4,1059.5735,737.8,1059.6165,748.2,1059.9318,758.6,1059.3086,769,1060,769.5536,1060,768.3697,1070.0283,768.8022,1080.0566,769.4319,1090.085,768.9142,1100.1133,769.0682,1110.1416,768.9681,1120.1699,769.1785,1130.1982,769,1140.2266,769,1140.4657,758.6,1140.8123,748.2,1140.8976,737.8,1140.9058,727.4,1140.4812,717,1140.6901,706.6,1140.9288,696.2,1139.5054,685.8,1140.9051,675.4,1139.9301,665,1140.2266,665.5338,1140.2266,664.505,1130.1982,664.9315,1120.1699,665.7416,1110.1416,664.9513,1100.1133,665.1053,1090.085,665.3386,1080.0566,665.4162,1070.0283,665,1060" style="stroke: #004080; stroke-width: 3.0;"/><text fill="#004080" font-family="courier" font-size="20" font-weight="bold" lengthAdjust="spacingAndGlyphs" textLength="96" x="669" y="1086.1074">Analysis</text><text fill="#004080" font-family="courier" font-size="20" font-weight="bold" lengthAdjust="spacingAndGlyphs" textLength="48" x="693" y="1112.2207">Role</text><path d="M666,1124.2266 L666,1124.5068 L676.2,1123.6741 L686.4,1124.4843 L696.6,1124.7595 L706.8,1123.2754 L717,1124.1229 L727.2,1123.6579 L737.4,1123.7152 L747.6,1124.1357 L757.8,1123.3047 L768,1124.2266 " fill="#222222" style="stroke: #004080; stroke-width: 3.0;"/><path d="M666,1132.2266 L666,1132.5068 L676.2,1131.6741 L686.4,1132.4843 L696.6,1132.7595 L706.8,1131.2754 L717,1132.1229 L727.2,1131.6579 L737.4,1131.7152 L747.6,1132.1357 L757.8,1131.3047 L768,1132.2266 " fill="#222222" style="stroke: #004080; stroke-width: 3.0;"/><!--class Architect--><polygon fill="#222222" points="541,1216,541,1216.2102,550.6667,1215.5857,560.3333,1216.1933,570,1216.3997,579.6667,1215.2866,589.3333,1215.9223,599,1215.5735,608.6667,1215.6165,618.3333,1215.9318,628,1215.3086,637.6667,1216.5536,647.3333,1215.3697,657,1216,656.8022,1216,657.4319,1226.8227,656.9142,1237.6453,657.0682,1248.468,656.9681,1259.2906,657,1270.1133,657,1270.2918,647.3333,1270.3524,637.6667,1270.699,628,1270.7843,618.3333,1270.7925,608.6667,1270.3679,599,1270.5769,589.3333,1270.8155,579.6667,1269.3921,570,1270.7918,560.3333,1269.8168,550.6667,1270.6471,541,1270.1133,540.505,1270.1133,540.9315,1259.2906,541.7416,1248.468,540.9513,1237.6453,541.1053,1226.8227,541,1216" style="stroke: #004080; stroke-width: 3.0;"/><text fill="#004080" font-family="courier" font-size="20" font-weight="bold" lengthAdjust="spacingAndGlyphs" textLength="108" x="545" y="1242.1074">Architect</text><path d="M542,1254.1133 L542,1254.3935 L552.3636,1253.5609 L562.7273,1254.371 L573.0909,1254.6462 L583.4545,1253.1621 L593.8182,1254.0097 L604.1818,1253.5446 L614.5455,1253.6019 L624.9091,1254.0224 L635.2727,1253.1915 L645.6364,1254.8515 L656,1254.1133 " fill="#222222" style="stroke: #004080; stroke-width: 3.0;"/><path d="M542,1262.1133 L542,1262.3935 L552.3636,1261.5609 L562.7273,1262.371 L573.0909,1262.6462 L583.4545,1261.1621 L593.8182,1262.0097 L604.1818,1261.5446 L614.5455,1261.6019 L624.9091,1262.0224 L635.2727,1261.1915 L645.6364,1262.8515 L656,1262.1133 " fill="#222222" style="stroke: #004080; stroke-width: 3.0;"/><!--class EngineerUseCases--><polygon fill="#222222" points="855,1203,855,1203.2102,864.6667,1202.5857,874.3333,1203.1933,884,1203.3997,893.6667,1202.2866,903.3333,1202.9223,913,1202.5735,922.6667,1202.6165,932.3333,1202.9318,942,1202.3086,951.6667,1203.5536,961.3333,1202.3697,971,1203,970.8022,1203,971.4319,1213.0283,970.9142,1223.0566,971.0682,1233.085,970.9681,1243.1133,971.1785,1253.1416,971.2391,1263.1699,971.5857,1273.1982,971,1283.2266,971,1283.8976,961.3333,1283.9058,951.6667,1283.4812,942,1283.6901,932.3333,1283.9288,922.6667,1282.5054,913,1283.9051,903.3333,1282.9301,893.6667,1283.7604,884,1282.7315,874.3333,1283.1581,864.6667,1283.9682,855,1283.2266,854.9513,1283.2266,855.1053,1273.1982,855.3386,1263.1699,855.4162,1253.1416,854.9961,1243.1133,855.2872,1233.085,854.4276,1223.0566,855.2844,1213.0283,855,1203" style="stroke: #004080; stroke-width: 3.0;"/><text fill="#004080" font-family="courier" font-size="20" font-weight="bold" lengthAdjust="spacingAndGlyphs" textLength="96" x="865" y="1229.1074">Engineer</text><text fill="#004080" font-family="courier" font-size="20" font-weight="bold" lengthAdjust="spacingAndGlyphs" textLength="108" x="859" y="1255.2207">Use Cases</text><path d="M856,1267.2266 L856,1267.5068 L866.3636,1266.6741 L876.7273,1267.4843 L887.0909,1267.7595 L897.4545,1266.2754 L907.8182,1267.1229 L918.1818,1266.6579 L928.5455,1266.7152 L938.9091,1267.1357 L949.2727,1266.3047 L959.6364,1267.9648 L970,1267.2266 " fill="#222222" style="stroke: #004080; stroke-width: 3.0;"/><path d="M856,1275.2266 L856,1275.5068 L866.3636,1274.6741 L876.7273,1275.4843 L887.0909,1275.7595 L897.4545,1274.2754 L907.8182,1275.1229 L918.1818,1274.6579 L928.5455,1274.7152 L938.9091,1275.1357 L949.2727,1274.3047 L959.6364,1275.9648 L970,1275.2266 " fill="#222222" style="stroke: #004080; stroke-width: 3.0;"/><!--class EngineerComponents--><polygon fill="#222222" points="692,1203,692,1203.2102,701.8462,1202.5857,711.6923,1203.1933,721.5385,1203.3997,731.3846,1202.2866,741.2308,1202.9223,751.0769,1202.5735,760.9231,1202.6165,770.7692,1202.9318,780.6154,1202.3086,790.4615,1203.5536,800.3077,1202.3697,810.1538,1202.8022,820,1203,820.4319,1203,819.9142,1213.0283,820.0682,1223.0566,819.9681,1233.085,820.1785,1243.1133,820.2391,1253.1416,820.5857,1263.1699,820.6711,1273.1982,820,1283.2266,820,1283.9058,810.1538,1283.4812,800.3077,1283.6901,790.4615,1283.9288,780.6154,1282.5054,770.7692,1283.9051,760.9231,1282.9301,751.0769,1283.7604,741.2308,1282.7315,731.3846,1283.1581,721.5385,1283.9682,711.6923,1283.1778,701.8462,1283.3319,692,1283.2266,692.3386,1283.2266,692.4162,1273.1982,691.9961,1263.1699,692.2872,1253.1416,691.4276,1243.1133,692.2844,1233.085,692.5482,1223.0566,692.4445,1213.0283,692,1203" style="stroke: #004080; stroke-width: 3.0;"/><text fill="#004080" font-family="courier" font-size="20" font-weight="bold" lengthAdjust="spacingAndGlyphs" textLength="96" x="708" y="1229.1074">Engineer</text><text fill="#004080" font-family="courier" font-size="20" font-weight="bold" lengthAdjust="spacingAndGlyphs" textLength="120" x="696" y="1255.2207">Components</text><path d="M693,1267.2266 L693,1267.5068 L702.6923,1266.6741 L712.3846,1267.4843 L722.0769,1267.7595 L731.7692,1266.2754 L741.4615,1267.1229 L751.1538,1266.6579 L760.8462,1266.7152 L770.5385,1267.1357 L780.2308,1266.3047 L789.9231,1267.9648 L799.6154,1266.3862 L809.3077,1266.9629 L819,1267.2266 " fill="#222222" style="stroke: #004080; stroke-width: 3.0;"/><path d="M693,1275.2266 L693,1275.5068 L702.6923,1274.6741 L712.3846,1275.4843 L722.0769,1275.7595 L731.7692,1274.2754 L741.4615,1275.1229 L751.1538,1274.6579 L760.8462,1274.7152 L770.5385,1275.1357 L780.2308,1274.3047 L789.9231,1275.9648 L799.6154,1274.3862 L809.3077,1274.9629 L819,1275.2266 " fill="#222222" style="stroke: #004080; stroke-width: 3.0;"/><!--link Discipline to Activity--><path d="M148.91,132.91 L149.0742,133.1371 L156.921,138.4861 L165.7302,145.1666 L174.226,151.4134 L181.6913,156.2345 L190.5224,162.9453 L198.5846,168.5922 L206.9528,174.6625 L215.5337,181.0271 L223.3816,186.3775 L232.6886,193.7467 L240.0985,198.4912 L248.7709,204.9824 L257.26,211.22 " fill="none" style="stroke: #A9A9A9; stroke-width: 2.0;"/><polygon fill="#A9A9A9" points="267.86,218.88,267.9206,218.9152,266.7509,217.1075,265.9362,215.5062,265.006,213.8377,263.6955,211.9483,262.9113,210.3647,262.8858,210.3606,262.9504,211.4592,263.144,212.5785,263.4272,213.7122,263.4015,214.7963,263.8085,215.9499,263.8378,216.1322,262.6581,215.9219,261.5639,216.2437,260.4802,216.6304,259.3357,216.6394,258.2232,216.8471,258.2279,216.8694,260.1484,217.2433,262.0902,217.7185,264.0217,218.1448,265.9729,218.6644,267.86,218.88" style="stroke: #A9A9A9; stroke-width: 2.0;"/><path d="M263.8085,215.9499 L263.8632,216.0257 L262.4039,214.8637 L261.2654,214.1456 L260.0224,213.283 L258.436,211.945 L257.325,211.265 " fill="#A9A9A9" style="stroke: #A9A9A9; stroke-width: 2.0;"/><polygon fill="#A9A9A9" points="138.11,125.1,138.1757,125.1245,138.4841,126.4032,139.1775,127.8254,139.7455,129.2009,139.9014,130.4228,140.6278,131.8573,140.6268,131.8314,142.0635,131.7702,143.5052,131.8395,144.9504,131.9995,146.3837,131.8469,147.8336,132.1321,148.0066,132.1966,147.1332,130.7073,146.7647,129.4062,146.4579,128.128,145.7926,126.7163,145.3159,125.3749,145.3167,125.3976,143.8743,125.3093,142.4358,125.3244,140.9954,125.2896,139.5586,125.3501,138.11,125.1" style="stroke: #A9A9A9; stroke-width: 2.0;"/><!--link Discipline to AnalysisDiscipline--><path d="M102,145.17 L102.2802,145.17 L101.4476,155.2967 L102.2577,165.4233 L102.5329,175.55 L101.0488,185.6767 L101.8964,195.8033 L102,205.93 " fill="none" style="stroke: #A9A9A9; stroke-width: 2.0;"/><polygon fill="none" points="95,145.1,95.0661,145.1231,96.2696,141.0544,97.8608,137.1213,99.3257,133.144,100.3756,129.0214,102,125.1,101.9755,125.0914,103.2658,129.053,104.6793,133.0578,106.1786,137.0925,107.3825,141.0239,109,145.1,109,145.2845,106.2,144.8899,103.4,145.0341,100.6,145.244,97.8,145.0714,95,145.1" style="stroke: #A9A9A9; stroke-width: 2.0;"/><!--link AnalysisDiscipline to AnalysisActivity--><path d="M169.63,293.73 L169.7893,293.9606 L177.8418,299.1672 L186.8282,305.7254 L195.5105,311.8434 L203.1926,316.5141 L212.2003,323.1031 L220.4617,328.6122 L229.0201,334.551 L237.785,340.7886 L245.8384,345.9966 L255.308,353.254 L262.9364,357.847 L271.94,364.43 " fill="none" style="stroke: #A9A9A9; stroke-width: 2.0;"/><polygon fill="#A9A9A9" points="282.84,371.96,282.8998,371.9965,281.6967,370.2063,280.8442,368.6299,279.8776,366.9839,278.5354,365.1089,277.713,363.5508,277.6875,363.5462,277.7761,364.6384,277.9931,365.754,278.2995,366.8858,278.298,367.9616,278.7277,369.1159,278.7608,369.2975,277.5769,369.1122,276.4898,369.4569,275.4144,369.8664,274.2704,369.8995,273.1625,370.1306,273.1668,370.1529,275.0961,370.486,277.0446,370.9208,278.9838,371.3066,280.9408,371.7859,282.84,371.96" style="stroke: #A9A9A9; stroke-width: 2.0;"/><path d="M278.7277,369.1159 L278.7808,369.1928 L277.3055,368.0543 L276.1414,367.3662 L274.876,366.5315 L273.2773,365.2143 L272.14,364.565 " fill="#A9A9A9" style="stroke: #A9A9A9; stroke-width: 2.0;"/><polygon fill="#A9A9A9" points="158.7,286.18,158.7651,286.2059,159.1039,287.4694,159.8245,288.8846,160.4207,290.2504,160.6081,291.4538,161.3614,292.882,161.361,292.8561,162.8011,292.764,164.2433,292.8026,165.6871,292.9319,167.1256,292.7484,168.5715,293.003,168.743,293.0711,167.844,291.585,167.4457,290.2978,167.1085,289.0349,166.4158,287.6308,165.9101,286.301,165.9105,286.3237,164.4679,286.2661,163.0271,286.3121,161.5854,286.3081,160.1453,286.3994,158.7,286.18" style="stroke: #A9A9A9; stroke-width: 2.0;"/><text fill="#A9A9A9" font-family="courier" font-size="20" font-weight="bold" lengthAdjust="spacingAndGlyphs" textLength="12" x="261.8904" y="358.2013">4</text><!--link Activity to AnalysisActivity--><path d="M312.88,293.1 L313.1552,293.153 L314.16,302.4631 L316.7781,312.0837 L318.8708,321.6032 L319.236,330.7902 L321.8908,340.4179 L323.2566,349.7975 L325.1354,359.2758 L327.46,368.84 " fill="none" style="stroke: #A9A9A9; stroke-width: 2.0;"/><polygon fill="none" points="305.96,294.19,306.0293,294.2002,306.4414,289.9779,307.2597,285.8154,307.9458,281.6334,308.1967,277.3873,309.05,273.23,309.0276,273.217,311.0571,276.8205,313.1995,280.4897,315.4204,284.2046,317.3708,287.7621,319.7,291.54,319.7349,291.7212,316.9122,291.8637,314.1915,292.5353,311.4833,293.2714,308.7026,293.6319,305.96,294.19" style="stroke: #A9A9A9; stroke-width: 2.0;"/><!--link AnalysisActivity to AnalyzeArchitecture--><path d="M335,469.44 L335.2802,469.44 L334.4476,479.5117 L335.2577,489.5833 L335.5329,499.655 L334.0488,509.7267 L334.8964,519.7983 L335,529.87 " fill="none" style="stroke: #A9A9A9; stroke-width: 2.0;"/><polygon fill="none" points="328,469.3,328.0661,469.3231,329.2696,465.2544,330.8608,461.3213,332.3257,457.344,333.3756,453.2214,335,449.3,334.9755,449.2914,336.2658,453.253,337.6793,457.2578,339.1786,461.2925,340.3825,465.2239,342,469.3,342,469.4845,339.2,469.0899,336.4,469.2341,333.6,469.444,330.8,469.2714,328,469.3" style="stroke: #A9A9A9; stroke-width: 2.0;"/><!--link AnalysisActivity to AnalyzeUseCases--><path d="M389.89,464.3 L389.9639,464.3572 L392.064,467.184 L394.5972,470.346 L396.9893,473.3989 L398.9178,476.0928 L401.4881,479.2836 L401.4594,479.2644 L403.486,482.3982 L405.6572,485.6288 L407.9291,488.9268 L409.8543,491.9928 L412.265,495.3837 L412.4805,495.5026 L413.8931,498.6451 L415.9348,502.1346 L418.0532,505.6664 L419.7251,508.952 L421.6319,512.367 L421.6599,512.3787 L423.0924,515.8882 L424.6523,519.4508 L426.1508,522.9878 L427.7666,526.5738 L429,530 L429.286,530.0847 L430.016,532.5372 L430.5616,534.9351 L431.3772,537.4129 L432.2055,539.8945 L432.6328,542.2572 L432.319,542.1921 L433.4485,544.8247 L433.5447,547.2426 L434.4265,549.8237 L434.4992,552.2369 L435.2351,554.7877 L435.2049,554.7838 L435.8918,557.3768 L435.8733,559.8785 L436.271,562.4342 L436.7036,564.9943 L436.8842,567.5218 L437.0688,567.5329 L437.0371,570.0954 L437.3208,572.6768 L437.094,575.2276 L437.6288,577.8241 L437.6572,580.3902 L437.9008,580.3906 L437.8496,582.9772 L437.9193,585.5639 L437.427,588.1496 L437.3466,590.7361 L437.6313,593.3233 L437.3556,593.3073 L437.4557,595.9074 L437.2451,598.4896 L437.4851,601.0978 L436.9558,603.6615 L436.8838,606.2516 L436.7322,606.2352 L436.7063,608.8334 L436.0323,611.3614 L435.8192,613.9393 L436.0569,616.566 L435.4918,619.1058 L435.6832,619.1353 L435.4226,621.6976 L434.5667,624.1682 L434.4564,626.7537 L434.1837,629.3141 L433.5325,631.8163 L433.3265,631.7759 L433.0008,634.3075 L432.6077,636.8259 L432.3471,639.3703 L431.5712,641.8137 L431.0831,644.3136 L431.2833,644.3605 L430.2711,646.7003 L429.6452,649.1308 L429.5837,651.6934 L428.4831,654.0126 L428.2209,656.5282 L428.4393,656.5871 L427.67,658.9246 L426.8268,661.2422 L426.1503,663.6048 L425.8594,666.0713 L425.023,668.3908 L424.8956,668.3523 L424.5835,670.755 L423.4052,672.8961 L423.2118,675.3347 L422.4639,677.6058 L421.5666,679.8317 L421.6699,679.866 L420.8589,682.0283 L420.418,684.3135 L419.6427,686.4876 L418.7278,688.6153 L417.9289,690.7816 L418.041,690.822 L417.126,692.8398 L416.7317,695.0452 L415.7485,697.0385 L415.0076,699.119 L414.1871,701.1709 L413.9348,701.0735 L413.2653,703.0579 L412.8996,705.1596 L412.104,707.0953 L411.1543,708.9715 L410.4184,710.9302 L410.2859,710.8758 L409.5847,712.7052 L408.6489,714.4383 L408.3579,716.4361 L407.7478,718.3028 L406.7,719.99 " fill="none" style="stroke: #A9A9A9; stroke-width: 2.0;"/><polygon fill="none" points="384.52,468.8,384.585,468.826,382.8178,464.8147,381.4318,460.9559,379.9217,457.0475,378.0032,452.9757,376.65,449.13,376.6372,449.1075,380.2638,451.0984,383.9549,453.2028,387.6908,455.3862,391.2722,457.2976,395.07,459.59,395.1914,459.729,392.8218,461.2737,390.8066,463.2243,388.8347,465.2245,386.6112,466.9365,384.52,468.8" style="stroke: #A9A9A9; stroke-width: 2.0;"/><!--link AnalysisActivity to AnalyzeClasses--><path d="M280.69,464.39 L280.7642,464.4468 L278.248,467.2747 L276.1666,470.4357 L273.9436,473.4882 L271.2551,476.1841 L269.2109,479.3736 L269.1821,479.3545 L266.9203,482.4859 L264.8035,485.7135 L262.7876,489.0079 L260.4241,492.0719 L258.5475,495.4588 L258.7634,495.5767 L256.4487,498.7151 L254.7645,502.1979 L253.1571,505.7228 L251.1023,509.0031 L249.2828,512.412 L249.3108,512.4236 L247.8131,515.9242 L246.443,519.4776 L245.0113,523.0055 L243.6971,526.582 L242,530 L242.2852,530.0872 L241.5759,532.4204 L240.6827,534.6974 L240.0587,537.0567 L239.4474,539.4198 L238.4362,541.6607 L238.1228,541.5931 L238.2948,543.7464 L237.4351,545.6772 L237.3597,547.7772 L236.4765,549.7029 L236.2555,551.7714 L236.2251,551.7698 L236.3963,555.3334 L235.8572,558.8592 L235.7372,562.4073 L235.6524,565.9573 L235.3138,569.4938 L235.4971,569.5182 L235.7923,573.0886 L236.4008,576.7008 L236.5024,580.2453 L237.3602,583.8909 L237.7152,587.4692 L237.9545,587.5147 L238.7662,592.0123 L239.6968,596.5324 L240.0751,600.9476 L240.8583,605.4397 L242,610 L241.7288,609.948 L242.3593,612.0022 L242.6843,613.9978 L243.4525,616.0785 L243.4639,618.0139 L243.9251,620.0357 L243.776,620.0039 L244.4537,622.071 L244.494,624.0021 L244.9875,626.0299 L245.9246,628.1522 L246.0719,630.1062 L246.2605,630.1502 L246.8611,632.1991 L246.8752,634.1111 L247.6238,636.1946 L248.2125,638.2407 L248.4282,640.1998 L248.2247,640.1483 L248.8977,642.2103 L249.504,644.2554 L250.2414,646.3336 L250.4695,648.2831 L250.9821,650.3046 L251.1805,650.3583 L251.2924,652.261 L251.7872,654.2675 L252.8417,656.4257 L252.8659,658.3046 L253.7213,660.4088 L253.9387,660.4716 L254.3921,662.4527 L254.772,664.4126 L255.3179,666.4204 L256.2474,668.539 L256.634,670.5008 L256.5068,670.462 L257.5004,672.5912 L257.6287,674.4562 L258.7409,676.6217 L259.2991,678.618 L259.7081,680.5687 L259.8117,680.602 L260.3727,682.5816 L261.3049,684.6803 L261.9017,686.6714 L262.3584,688.6174 L262.9314,690.6008 L263.0441,690.6395 L264.2459,694.5639 L265.9711,698.6681 L267.1043,702.5689 L268.481,706.5533 L269.7777,710.5103 L269.5243,710.416 L271.0687,714.3724 L272.9184,718.4424 L274.3361,722.3517 L275.599,726.2034 L277.0766,730.1351 L276.9436,730.0821 L278.5172,733.9483 L279.8552,737.7207 L281.8409,741.7507 L283.506,745.6533 L284.7316,749.381 L284.9472,749.4718 L286.5991,753.2555 L287.8415,756.8665 L289.5161,760.6597 L290.9046,764.3323 L292.6463,768.1538 L292.7616,768.2049 L294.3621,771.8393 L296.1018,775.5355 L297.3997,779.0356 L299.054,782.6939 L300.7241,786.3592 L300.9029,786.4422 L302.5818,789.9742 L303.7754,793.2809 L305.5328,796.8493 L307.3001,800.4224 L308.8688,803.9032 L308.6244,803.7851 L310.6333,807.3292 L312.2181,810.6684 L313.6976,813.9567 L315.4178,817.3614 L316.9839,820.6915 L317.2735,820.8366 L318.4574,823.8169 L320.3047,827.1296 L321.8908,830.3114 L323.4212,833.4652 L324.973,836.6298 L325.0286,836.6587 L326.5711,839.6519 L327.8333,842.4999 L329.4747,845.5444 L331.0041,848.5309 L332.7395,851.6241 L332.7645,851.6374 L334.2636,854.4337 L335.782,857.2403 L337.094,859.9367 L338.6712,862.7747 L340.1872,865.58 L340.1403,865.5543 L341.8184,868.2679 L343.1663,870.8005 L344.2173,873.1702 L345.7846,875.8231 L347.2195,878.4034 L346.9958,878.2776 L348.6353,880.7855 L350.0634,883.1746 L351.3428,885.48 L352.2672,887.5858 L353.74,890 " fill="none" style="stroke: #A9A9A9; stroke-width: 2.0;"/><polygon fill="none" points="275.42,459.78,275.4549,459.8407,279.0251,457.5463,282.8001,455.6078,286.5084,453.5535,289.9974,451.1179,293.79,449.21,293.7659,449.2005,292.1037,453.0999,290.5631,457.0471,289.1069,461.0277,287.3596,464.8935,286.02,468.92,286.1405,469.0598,283.7628,466.9329,281.737,465.2141,279.754,463.545,277.5213,461.5863,275.42,459.78" style="stroke: #A9A9A9; stroke-width: 2.0;"/><!--link AnalysisActivity to AnalyzePackages--><path d="M403.87,449.1 L403.9262,449.1746 L406.689,451.159 L409.7813,453.5808 L412.7662,455.8601 L415.3985,457.671 L418.519,460.1303 L418.4965,460.1041 L421.2632,462.4372 L424.1431,464.9026 L427.1016,467.4601 L429.789,469.7005 L432.8561,472.385 L433.0295,472.5596 L435.3625,474.8727 L438.2019,477.6955 L441.103,480.5805 L443.6447,483.1037 L446.3755,485.8172 L446.3987,485.8367 L448.8038,488.7206 L451.3146,491.6933 L453.7744,494.6231 L456.3317,497.6346 L458.5713,500.38 L458.8199,500.5447 L460.8962,503.676 L462.8121,506.7011 L464.9627,509.8817 L467.1244,513.0696 L468.9375,516.0266 L468.6487,515.8875 L470.8154,519.494 L472.0311,522.6428 L473.9697,526.1395 L475.1639,529.2779 L476.9683,532.71 L476.9391,532.7014 L478.3224,536.3375 L479.0233,539.7733 L480.1269,543.3272 L481.2643,546.8912 L482.1578,550.3834 L482.3418,550.4017 L482.5245,554.1066 L483.0217,557.8426 L483.0099,561.5283 L483.7573,565.2891 L484,569 L484.7309,569 L484.5927,579.0556 L484.8174,589.1111 L483.3559,599.1667 L483.1304,609.2222 L483.1715,619.2778 L483.9215,629.3333 L483.738,639.3889 L484.9085,649.4444 L483.7671,659.5 L483.5426,669.5556 L484.3044,679.6111 L483.1109,689.6667 L483.3078,699.7222 L484.8653,709.7778 L484.5809,719.8333 L484.9793,729.8889 L483.5709,739.9444 L484.4256,750 L484.7872,760.0556 L483.3701,770.1111 L483.8722,780.1667 L484.168,790.2222 L484.869,800.2778 L483.9944,810.3333 L484.6168,820.3889 L483.2616,830.4444 L483.097,840.5 L484.6715,850.5556 L483.0441,860.6111 L484.6786,870.6667 L484.2755,880.7222 L483.6428,890.7778 L483.5283,900.8333 L484.6117,910.8889 L483.6009,920.9444 L484,931 L484.263,931.0021 L483.73,934.0605 L484.2258,937.127 L484.1423,940.189 L484.0117,943.2506 L483.8785,946.3121 L483.8995,946.3128 L484.1137,948.923 L483.9759,951.5213 L483.691,954.1146 L483.6473,956.7161 L483.4406,959.312 L483.3829,959.3077 L483.5852,961.6209 L483.1635,963.8869 L482.9984,966.1723 L482.4795,968.431 L482.5762,970.7362 L482.3976,970.7126 L482.5298,972.8842 L482.2051,974.9953 L481.7166,977.0847 L481.3133,979.1855 L481.175,981.3213 L481.0795,981.3026 L480.4661,983.3592 L480.5367,985.5495 L480.2688,987.6737 L479.7662,989.752 L479.127,991.8036 L479.4264,991.8792 L478.507,994.012 L478.0425,996.2596 L477.2769,998.4312 L477.0053,1000.7275 L476.3219,1002.9198 L476.4271,1002.9508 L475.823,1005.4864 L474.755,1007.8857 L474.0612,1010.395 L473.5731,1012.9648 L472.6496,1015.4065 L472.8899,1015.483 L471.5026,1018.256 L470.7077,1021.2177 L469.9231,1024.1827 L468.6712,1026.9989 L468,1030 L468.1469,1030.0555 L466.9705,1033.051 L465.6846,1036.0052 L464.6489,1039.0538 L463.756,1042.1564 L462.3162,1045.0525 L462.19,1044.9942 L461.0861,1048.0527 L459.717,1050.9887 L458.2912,1053.8986 L456.9441,1056.8447 L455.53,1059.76 " fill="none" style="stroke: #A9A9A9; stroke-width: 2.0;"/><polygon fill="none" points="399.83,454.81,399.886,454.8521,397.1755,451.3371,394.7935,448.0687,392.3046,444.72,389.4638,441.1073,387.11,437.86,387.1035,437.8349,391.1763,438.7864,395.2819,439.8643,399.4103,441.03,403.4601,441.8929,407.62,443.18,407.7733,443.2827,405.8874,445.3891,404.4492,447.7953,403.0656,450.2381,401.3642,452.4681,399.83,454.81" style="stroke: #A9A9A9; stroke-width: 2.0;"/><!--link AnalyzeArchitecture to AnalyzeUseCases--><path d="M346.11,610.41 L346.3797,610.486 L348.2583,619.7665 L351.718,629.4927 L354.6629,639.0737 L355.9145,648.1774 L359.4103,657.9137 L361.6427,667.2939 L364.3779,676.8158 L367.4625,686.4363 L369.3428,695.7171 L373.6205,705.6739 L375.59,714.98 " fill="none" style="stroke: #A9A9A9; stroke-width: 2.0;"/><polygon fill="#A9A9A9" points="376.99,719.96,377.0593,719.97,377.1349,717.9907,377.617,716.0701,377.9667,714.1304,377.8811,712.1279,378.398,710.2123,378.3754,710.1997,377.7211,711.1299,377.1806,712.1239,376.7194,713.1624,375.9852,714.0479,375.6334,715.1476,375.7236,715.3086,374.5436,714.4113,373.6271,713.9842,372.7426,713.6144,371.6712,712.9109,370.6981,712.3829,370.7156,712.3974,371.9483,713.8915,373.2607,715.4518,374.5346,716.9801,375.8818,718.5693,376.99,719.96" style="stroke: #A9A9A9; stroke-width: 2.0;"/><text fill="#A9A9A9" font-family="courier" font-size="20" font-weight="bold" lengthAdjust="spacingAndGlyphs" textLength="48" x="363" y="662.1074">next</text><!--link AnalyzeUseCases to AnalyzeClasses--><path d="M385.42,800.39 L385.6996,800.4083 L384.1788,810.8952 L384.2972,821.4893 L383.8818,832.0486 L381.7108,842.4929 L381.8666,853.0895 L380.7126,863.6004 L380.0798,874.1454 L379.9,884.72 " fill="none" style="stroke: #A9A9A9; stroke-width: 2.0;"/><polygon fill="#A9A9A9" points="379.56,889.86,379.622,889.8926,380.3541,888.0521,381.4497,886.4026,382.4269,884.691,383.0147,882.7747,384.1415,881.1417,384.1245,881.1222,383.1971,881.7806,382.3558,882.5372,381.5744,883.362,380.5867,883.9516,379.8879,884.8708,380.0266,884.9924,378.9841,883.8815,378.3467,883.1258,377.7587,882.4135,376.8831,881.449,376.1588,880.6171,376.1801,880.6249,376.829,882.462,377.5751,884.3348,378.2743,886.1904,379.063,888.0788,379.56,889.86" style="stroke: #A9A9A9; stroke-width: 2.0;"/><text fill="#A9A9A9" font-family="courier" font-size="20" font-weight="bold" lengthAdjust="spacingAndGlyphs" textLength="48" x="385" y="852.1074">next</text><!--link AnalyzeClasses to AnalyzePackages--><path d="M390.13,970.39 L390.3959,970.4786 L392.7415,979.6208 L396.6456,989.2826 L400.0422,998.7752 L401.7699,1007.7114 L405.7095,1017.385 L408.4039,1026.6435 L411.5938,1036.0672 L415.1282,1045.6057 L418.35,1055.04 " fill="none" style="stroke: #A9A9A9; stroke-width: 2.0;"/><polygon fill="#A9A9A9" points="419.95,1059.86,420.0197,1059.8667,420.0005,1057.886,420.3901,1055.9446,420.6465,1053.9904,420.4651,1051.9942,420.8898,1050.0561,420.8666,1050.0445,420.2576,1051.005,419.7653,1052.0238,419.3543,1053.0831,418.6634,1054.0028,418.3646,1055.118,418.447,1055.2832,417.2584,1054.425,416.3104,1054.0489,415.3917,1053.7317,414.3023,1053.0722,413.3026,1052.5928,413.3194,1052.6081,414.6243,1054.039,416.0055,1055.5398,417.3499,1057.0069,418.7646,1058.5383,419.95,1059.86" style="stroke: #A9A9A9; stroke-width: 2.0;"/><text fill="#A9A9A9" font-family="courier" font-size="20" font-weight="bold" lengthAdjust="spacingAndGlyphs" textLength="48" x="410" y="1022.1074">next</text><!--link AnalysisActivity to Member--><path d="M399.09,433.66 L399.1302,433.7443 L401.4473,434.6538 L403.9998,436.0576 L406.4756,437.3004 L408.6994,438.0138 L411.2721,439.4601 L411.2562,439.4294 L413.6763,440.5843 L416.1766,441.8937 L418.7326,443.3106 L421.0966,444.3573 L423.7295,445.9225 L423.8512,446.1364 L426.0973,447.1054 L428.6987,448.6988 L431.3435,450.3684 L433.736,451.5948 L436.2612,453.0543 L436.2774,453.08 L438.7347,454.6039 L441.2655,456.2447 L443.7609,457.8292 L446.3239,459.5212 L448.6663,460.8625 L448.8378,461.1065 L451.2554,462.8078 L453.5623,464.3517 L456.0312,466.126 L458.5077,467.9111 L460.7436,469.3541 L460.5441,469.1032 L463.241,471.4266 L465.2811,472.9238 L467.8205,475.0491 L469.8457,476.5276 L472.2923,478.5363 L472.2718,478.5138 L474.6784,480.7556 L476.6054,482.4721 L478.8154,484.4986 L481.0491,486.5511 L483.1115,488.4159 L483.2466,488.5422 L485.0879,490.5315 L487.1602,492.7367 L488.8587,494.5927 L491.1147,496.9695 L493,499 L493.1902,499.1522 L495.1774,501.6515 L497.259,504.2264 L498.9017,506.4501 L500.8662,508.9312 L503.1156,511.6404 L502.8899,511.4812 L504.9779,514.2948 L506.8116,516.9289 L509.0141,519.8234 L510.5868,522.2735 L512.5339,524.9877 L512.4048,524.9066 L514.3687,527.8288 L515.7805,530.4045 L517.585,533.2265 L519.7736,536.2896 L521.2781,538.9235 L521.4469,539.0183 L523.1812,541.9646 L524.3905,544.6159 L526.2575,547.6366 L527.9811,550.5768 L529.3709,553.3295 L529.1836,553.2348 L530.8258,556.2619 L532.4068,559.258 L534.1082,562.315 L535.341,565.135 L536.8356,568.0874 L537.0225,568.173 L537.9836,570.9833 L539.3056,573.9587 L541.1547,577.1754 L542.0333,579.948 L543.695,583.0788 L543.9039,583.1656 L545.0352,586.1354 L546.0959,589.0757 L547.3161,592.0824 L548.905,595.2423 L549.9721,598.1854 L549.8477,598.1383 L551.3617,601.2992 L552.0295,604.1397 L553.6595,607.3446 L554.7477,610.3443 L555.69,613.2888 L555.7929,613.3243 L556.7462,616.292 L558.0679,619.387 L559.0567,622.367 L559.9064,625.2988 L560.8716,628.2706 L560.9853,628.3066 L561.7501,631.2015 L563.0426,634.2635 L563.7383,637.1366 L564.6795,640.0874 L565.54,643.0126 L565.2804,642.9372 L566.2027,645.8391 L567.4378,648.8319 L568.2303,651.6961 L568.8642,654.5143 L569.7182,657.3964 L569.5798,657.3595 L570.3663,660.1527 L570.9079,662.8806 L572.1228,665.7882 L573.0045,668.6069 L573.4291,671.3036 L573.6563,671.3593 L574.3823,674.0397 L574.6767,676.614 L575.4267,679.3002 L575.8751,681.9124 L576.6957,684.6159 L576.8188,684.6437 L577.3717,687.1599 L578.0733,689.7096 L578.3033,692.1529 L578.9137,694.682 L579.5411,697.215 L579.734,697.2551 L580.2773,699.6198 L580.2969,701.8756 L580.925,704.2579 L581.5637,706.6425 L581.9882,708.9825 L581.7215,708.9314 L582.5568,711.1755 L582.9295,713.331 L583.1873,715.4646 L583.7077,717.6484 L584.06,719.8 " fill="none" style="stroke: #A9A9A9; stroke-width: 2.0;"/><polygon fill="#A9A9A9" points="586.31,732.74,586.378,732.7571,586.6558,730.7959,587.332,728.9348,587.8785,727.0411,587.9984,725.0403,588.7088,723.1877,588.6876,723.1728,587.9414,724.0312,587.302,724.9646,586.7369,725.9504,585.9159,726.7561,585.4533,727.8139,585.5595,727.9649,584.4071,726.991,583.5649,726.4578,582.7604,725.9784,581.7359,725.1862,580.8271,724.5585,580.846,724.5711,581.9148,726.1888,583.0697,727.8642,584.183,729.5118,585.3756,731.2124,586.31,732.74" style="stroke: #A9A9A9; stroke-width: 2.0;"/><path d="M585.4533,727.8139 L585.5453,727.8299 L584.9982,726.2076 L584.9906,724.6791 L584.8073,723.12 L584.0463,721.4605 L584.085,719.94 " fill="#A9A9A9" style="stroke: #A9A9A9; stroke-width: 2.0;"/><polygon fill="#A9A9A9" points="387.14,428.41,387.199,428.4477,387.8005,429.5507,388.7479,430.875,389.5827,432.1272,390.0469,433.1424,391.0241,434.4857,391.0196,434.4601,392.4199,434.0959,393.8429,433.8603,395.2815,433.7142,396.666,433.2598,398.1263,433.2371,398.2818,433.3365,397.1725,431.9088,396.5171,430.7713,395.9171,429.6693,394.9949,428.3612,394.2422,427.1615,394.2461,427.1839,392.8199,427.4007,391.4116,427.7195,389.9947,427.9891,388.5942,428.3526,387.14,428.41" style="stroke: #A9A9A9; stroke-width: 2.0;"/><!--link Member to Role--><path d="M610.44,798.73 L610.6864,798.8635 L614.5161,806.8887 L619.7902,815.6964 L624.594,824.2493 L627.8509,831.9642 L633.158,840.7897 L637.3109,848.9901 L641.9231,857.4392 L646.8546,866.0613 L650.6858,874.0873 L656.7073,883.2998 L660.62,891.37 " fill="none" style="stroke: #A9A9A9; stroke-width: 2.0;"/><polygon fill="#A9A9A9" points="666.88,902.93,666.9498,902.9355,666.5891,900.9555,666.6377,899.0074,666.5531,897.049,666.0299,895.0563,666.1138,893.111,666.089,893.1036,665.6548,894.1548,665.3457,895.2432,665.1237,896.3576,664.6019,897.3827,664.5,898.5328,664.5526,898.7097,663.3557,898.0087,662.3125,897.8241,661.288,897.7025,660.1544,897.2143,659.0782,896.919,659.0921,896.937,660.6321,898.1128,662.2353,899.3705,663.8079,900.5887,665.4388,901.8824,666.88,902.93" style="stroke: #A9A9A9; stroke-width: 2.0;"/><path d="M664.5,898.5328 L664.5821,898.5773 L663.5761,897.0395 L663.0515,895.7626 L662.3702,894.4008 L661.1733,892.7594 L660.69,891.505 " fill="#A9A9A9" style="stroke: #A9A9A9; stroke-width: 2.0;"/><polygon fill="#A9A9A9" points="604.22,787.25,604.2898,787.2564,603.9515,788.6737,604.0222,790.1284,603.9598,791.5709,603.4593,792.9735,603.5652,794.4313,603.5531,794.4084,604.7742,794.9789,606.0563,795.6649,607.3808,796.4311,608.5592,796.9207,609.9422,797.7978,610.126,797.8146,609.8639,796.3425,610.1385,794.9193,610.4785,793.5021,610.4376,792.0502,610.597,790.6165,610.6077,790.6366,609.3167,789.9338,608.074,789.3225,606.808,788.6671,605.5866,788.096,604.22,787.25" style="stroke: #A9A9A9; stroke-width: 2.0;"/><!--link Role to AnalysisRole--><path d="M690.84,976.91 L691.114,976.9687 L692.5211,987.158 L695.5345,997.6915 L698.0248,1008.1129 L698.7949,1018.1657 L701.8449,1028.707 L703.6115,1038.9733 L705.8888,1049.3491 L708.61,1059.82 " fill="none" style="stroke: #A9A9A9; stroke-width: 2.0;"/><polygon fill="none" points="683.97,978.27,684.0395,978.2788,684.363,974.0487,685.0939,969.8701,685.6922,965.6747,685.8541,961.4243,686.62,957.25,686.5979,957.2365,688.7066,960.7939,690.9269,964.4194,693.2246,968.0922,695.2553,971.6019,697.66,975.34,697.6986,975.5205,694.878,975.7206,692.1702,976.4475,689.4761,977.2388,686.702,977.656,683.97,978.27" style="stroke: #A9A9A9; stroke-width: 2.0;"/><!--link AnalysisRole to Architect--><path d="M671.05,1155.91 L671.2649,1156.0899 L664.3564,1163.0467 L658.7076,1171.0579 L652.6487,1178.7258 L645.2406,1185.2645 L639.6205,1193.2997 L632.9939,1200.4925 L626.7679,1208.0206 L620.89,1215.84 " fill="none" style="stroke: #A9A9A9; stroke-width: 2.0;"/><polygon fill="none" points="665.93,1151.12,665.9659,1151.1802,669.4993,1148.8333,673.243,1146.8394,676.9182,1144.7305,680.3683,1142.2437,684.13,1140.28,684.1058,1140.2709,682.503,1144.1959,681.0224,1148.1669,679.6267,1152.17,677.9383,1156.0628,676.66,1160.11,676.7785,1160.2515,674.3791,1158.151,672.3257,1156.4635,670.3145,1154.8264,668.0576,1152.8961,665.93,1151.12" style="stroke: #A9A9A9; stroke-width: 2.0;"/><!--link AnalysisRole to EngineerUseCases--><path d="M785.51,1150.28 L785.6737,1150.5075 L793.3185,1155.6816 L801.9227,1162.1892 L810.2146,1168.2626 L817.4789,1172.9079 L826.105,1179.4459 L833.9646,1184.9184 L842.1292,1190.8149 L850.5058,1197.0062 L858.69,1202.93 " fill="none" style="stroke: #A9A9A9; stroke-width: 2.0;"/><polygon fill="none" points="781.16,1155.78,781.2174,1155.8202,778.6169,1152.2288,776.3528,1148.8729,773.9791,1145.4404,771.2452,1141.7556,769.01,1138.42,769.0027,1138.3952,773.0338,1139.4816,777.1019,1140.6934,781.1956,1141.9922,785.2008,1142.9909,789.33,1144.41,789.4799,1144.5177,787.5254,1146.5614,786.0085,1148.9195,784.5449,1151.316,782.7708,1153.4893,781.16,1155.78" style="stroke: #A9A9A9; stroke-width: 2.0;"/><!--link AnalysisRole to EngineerComponents--><path d="M733.33,1160.04 L733.42,1160.0649 L735.5245,1168.5689 L738.1568,1177.2189 L740.6172,1185.8213 L742.5124,1194.2675 L745.19,1202.93 " fill="none" style="stroke: #A9A9A9; stroke-width: 2.0;"/><polygon fill="none" points="726.45,1161.42,726.5199,1161.4247,726.5942,1157.1828,727.0783,1152.9683,727.4289,1148.7449,727.3407,1144.4922,727.86,1140.28,727.8387,1140.2652,730.1592,1143.681,732.587,1147.1711,735.0893,1150.713,737.3347,1154.0766,739.94,1157.69,739.9892,1157.8679,737.186,1158.2335,734.5264,1159.1185,731.8844,1160.0668,729.1404,1160.6464,726.45,1161.42" style="stroke: #A9A9A9; stroke-width: 2.0;"/><!--link AnalyzeArchitecture to Architect--><path d="M269.39,610.09 L269.4452,610.1653 L267.5263,611.2282 L265.9312,612.7327 L264.2307,614.0934 L262.1834,614.9812 L260.6161,616.5236 L260.5949,616.4963 L258.7276,617.7477 L256.967,619.1367 L255.2806,620.6213 L253.3386,621.7763 L251.7545,623.393 L251.9109,623.583 L249.8046,624.6356 L248.155,626.2428 L246.5611,627.9177 L244.643,629.1988 L242.8954,630.6871 L242.9154,630.7099 L241.1328,632.2179 L239.4413,633.8296 L237.7058,635.3913 L236.0542,637.0484 L234.1291,638.3944 L234.3339,638.6112 L232.6197,640.2357 L230.7734,641.7203 L229.1205,643.4097 L227.4767,645.1086 L225.5456,646.5036 L225.3165,646.2795 L224.0992,648.4144 L222.1273,649.8115 L220.7291,651.7694 L218.7401,653.1497 L217.2354,655.0035 L217.2127,654.9832 L215.8916,656.9992 L214.0404,658.5408 L212.5021,660.3623 L210.9899,662.2073 L209.2884,663.8827 L209.4321,663.9992 L207.7884,665.7311 L206.3902,667.662 L204.5947,669.2709 L203.3919,671.3601 L201.795,673.13 L201.9924,673.2728 L200.5651,675.1666 L199.2359,677.1313 L197.4513,678.7665 L196.0005,680.6433 L194.8453,682.734 L194.6122,682.586 L193.5601,684.7098 L192.2453,686.6669 L191.3116,688.8659 L189.7272,690.6519 L188.5296,692.6834 L188.3957,692.6105 L187.5005,694.7885 L186.0327,696.6552 L184.972,698.7432 L184.3098,701.0479 L182.9381,702.9668 L183.1147,703.0464 L182.2803,705.2222 L180.8968,707.1506 L180.2012,709.3889 L179.3556,711.5596 L178.1609,713.5731 L177.9631,713.5029 L177.3463,715.7424 L176.6647,717.9589 L176.1104,720.2206 L175.0611,722.3067 L174.2883,724.4909 L174.4875,724.542 L173.4744,726.6733 L172.8456,728.9033 L172.7784,731.2773 L171.6774,733.3861 L171.4105,735.7088 L171.634,735.7437 L171.1427,738.0243 L170.5757,740.2932 L170.1794,742.5887 L170.1777,744.9457 L169.6177,747.2156 L169.4848,747.2087 L169.7568,749.5863 L169.1253,751.9165 L169.5211,754.3006 L169.3385,756.6544 L169,759 L169.3266,759 L169.063,769.0588 L169.9688,779.1176 L169.8181,789.1765 L169.2257,799.2353 L169.3576,809.2941 L168.8263,819.3529 L169.9553,829.4118 L169.2065,839.4706 L169.2301,849.5294 L168.1889,859.5882 L168.4597,869.6471 L169.7077,879.7059 L169.573,889.7647 L168.9428,899.8235 L168.5704,909.8824 L168.7081,919.9412 L168.0851,930 L169.553,940.0588 L169.9861,950.1176 L169.7019,960.1765 L169.9266,970.2353 L168.8177,980.2941 L169.1163,990.3529 L168.4832,1000.4118 L169.3787,1010.4706 L169.329,1020.5294 L169.7365,1030.5882 L168.6938,1040.6471 L168.8208,1050.7059 L169.5913,1060.7647 L169.7564,1070.8235 L168.3166,1080.8824 L168.7415,1090.9412 L169,1101 L169.065,1101.0131 L169.2936,1103.7216 L170.2734,1106.5816 L170.7916,1109.3484 L171.195,1112.0922 L171.7987,1114.8763 L171.8525,1114.9093 L173.6809,1117.6619 L174.8927,1120.0359 L176.7367,1122.798 L178.3318,1125.4074 L179.8299,1127.9571 L179.8657,1127.9941 L182.4168,1130.4617 L184.9517,1132.9126 L187.2671,1135.1365 L189.8794,1137.6674 L192.5466,1140.2551 L192.4249,1140.09 L194.1523,1141.4498 L195.7476,1142.6303 L197.356,1143.8285 L198.8254,1144.8385 L200.4911,1146.1144 L200.475,1146.0891 L202.2445,1147.203 L204.1929,1148.598 L205.9392,1149.6753 L207.5038,1150.4669 L209.4017,1151.7827 L209.3859,1151.7544 L211.2383,1152.6544 L213.3876,1154.0861 L215.4187,1155.306 L217.3665,1156.377 L219.2102,1157.2614 L219.124,1157.0881 L221.4296,1158.5042 L223.3183,1159.0822 L225.6325,1160.5156 L227.6613,1161.375 L229.8481,1162.5523 L229.8657,1162.5915 L232.1715,1163.6707 L234.4934,1164.7856 L236.5567,1165.323 L239.0536,1166.8288 L241.247,1167.6568 L241.2769,1167.7302 L243.7249,1168.787 L246.2089,1169.9326 L248.5029,1170.6109 L250.9497,1171.6648 L253.3386,1172.5765 L253.3717,1172.6654 L255.9124,1173.606 L258.4248,1174.4708 L261.0784,1175.7144 L263.4167,1176.1118 L266.0545,1177.313 L266.136,1177.5507 L268.6188,1177.9617 L271.2852,1178.9078 L274.0233,1180.0627 L276.6759,1180.9688 L279.3262,1181.8679 L279.2598,1181.6591 L282.1338,1182.918 L284.8446,1183.6639 L287.6796,1184.8005 L290.4234,1185.6502 L293.0854,1186.2426 L293.0289,1186.0515 L295.8709,1186.9122 L298.7405,1187.866 L301.6373,1188.9118 L304.4789,1189.7713 L307.2638,1190.4387 L307.2994,1190.5678 L310.129,1191.0961 L313.1508,1192.319 L316.0563,1193.1218 L318.8814,1193.6338 L321.7928,1194.4579 L321.7661,1194.3551 L324.7102,1195.054 L327.6934,1195.9031 L330.6949,1196.8233 L333.6342,1197.5035 L336.6041,1198.3017 L336.5601,1198.1213 L339.6606,1199.2461 L342.5659,1199.5715 L345.6723,1200.7206 L348.6694,1201.4221 L351.6294,1201.9716 L351.6666,1202.1327 L354.7328,1202.9711 L357.6732,1203.2642 L360.7019,1203.94 L363.8179,1204.9944 L366.8003,1205.4692 L366.7437,1205.21 L369.8277,1206.033 L372.9104,1206.8501 L375.9556,1207.4952 L378.9647,1207.9751 L382.0483,1208.7961 L382.0444,1208.7774 L385.1667,1209.7517 L388.2094,1210.3414 L391.1487,1210.4312 L394.2608,1211.3565 L397.3051,1211.9538 L397.262,1211.7295 L403.3561,1213.1052 L409.4362,1214.4074 L415.5001,1215.6256 L421.4624,1216.315 L427.5714,1217.768 L427.6021,1217.9433 L433.4682,1218.8029 L439.3212,1219.5873 L445.2238,1220.6555 L451.181,1222.0359 L457.0522,1222.9242 L457.0697,1223.0338 L462.6806,1223.8191 L468.2641,1224.4335 L473.9873,1225.9194 L479.5487,1226.3959 L485.2003,1227.4349 L485.166,1227.2027 L490.4495,1228.1809 L495.7459,1229.2453 L501.0012,1230.0322 L506.2172,1230.5526 L511.4686,1231.3127 L511.4595,1231.2461 L516.2471,1232.0389 L521.0163,1232.6976 L525.7429,1233.0435 L530.5666,1234.1008 L535.31,1234.57 " fill="none" style="stroke: #A9A9A9; stroke-width: 2.0;"/><polygon fill="#A9A9A9" points="540.56,1235.26,540.5965,1235.3198,538.806,1234.1172,537.2292,1233.2653,535.5828,1232.2992,533.7076,1230.9575,532.1492,1230.1358,532.1286,1230.12,532.727,1230.9452,533.4288,1231.8502,534.2026,1232.8106,534.7285,1233.5801,535.6015,1234.617,535.7141,1234.7632,534.5771,1235.141,533.7688,1235.9457,533.0007,1236.8024,531.9991,1237.3562,531.1203,1238.0693,531.1268,1238.0911,533.0052,1237.4973,534.9132,1237.0026,536.8069,1236.4601,538.7278,1236.009,540.56,1235.26" style="stroke: #A9A9A9; stroke-width: 2.0;"/><!--link AnalyzeUseCases to EngineerUseCases--><path d="M420.55,800.13 L420.6239,800.1872 L422.6981,802.981 L425.2054,806.1101 L427.5717,809.13 L429.4743,811.7909 L432.0188,814.9488 L431.9908,814.9284 L434.0619,817.8473 L436.2736,820.8688 L438.583,823.9616 L440.5555,826.8086 L443,830 L443.2035,830.1383 L444.5651,832.4865 L446.521,835.2385 L448.5493,838.0398 L450.1558,840.5544 L451.9842,843.2198 L452.0097,843.236 L453.6193,845.7983 L455.3453,848.4347 L457.0152,851.0354 L458.7922,853.7043 L460.2198,856.1507 L460.476,856.3034 L461.9882,858.8359 L463.3352,861.2698 L464.924,863.848 L466.5242,866.4329 L467.7652,868.8037 L467.4853,868.6475 L469.4112,871.4279 L470.4154,873.6939 L472.1203,876.351 L473.1037,878.6053 L474.6785,881.1897 L474.6515,881.1756 L476.2385,883.7684 L477.1951,886.0317 L478.5237,888.4894 L479.8835,890.9635 L481.018,893.3198 L481.1841,893.4012 L482.1812,895.696 L483.4621,898.1299 L484.2838,900.3388 L485.7905,902.8833 L486.8418,905.2047 L487.0631,905.3066 L488.0945,907.6175 L489.2358,909.979 L489.8666,912.1053 L490.8717,914.404 L492.2082,916.8554 L491.9549,916.7453 L493.1777,919.1305 L494.115,921.3916 L495.4663,923.8327 L496.1108,925.9665 L497.1755,928.283 L497.0345,928.2248 L498.1945,930.5647 L498.752,932.656 L499.7379,934.9241 L501.1431,937.3651 L501.8017,939.4982 L501.9819,939.5692 L502.9741,941.8207 L503.4061,943.8513 L504.5398,946.1586 L505.5207,948.4055 L506.1453,950.512 L505.9487,950.4382 L507.7197,954.7905 L509.4263,959.1187 L511.2594,963.4944 L512.6008,967.6853 L514.2169,971.9794 L514.4099,972.0503 L515.5137,976.0531 L516.9901,980.1928 L519.0105,984.5324 L520.0292,988.504 L521.8561,992.7725 L522.0676,992.8528 L523.4765,996.8463 L524.8139,1000.8127 L526.3127,1004.8404 L528.1848,1009.0099 L529.5288,1012.9788 L529.4054,1012.929 L530.5716,1015.0592 L530.8986,1016.8511 L532.1799,1019.0276 L532.9239,1020.9876 L533.5231,1022.8892 L533.6233,1022.9319 L534.3779,1024.8567 L535.4911,1026.9344 L536.2804,1028.874 L536.9342,1030.7559 L537.7005,1032.6857 L537.8089,1032.7351 L538.5315,1034.6004 L539.7576,1036.6952 L540.4142,1038.5304 L541.3051,1040.4723 L542.119,1042.3792 L541.8764,1042.26 L542.901,1044.2201 L544.2179,1046.3239 L545.1212,1048.2244 L545.8763,1050.052 L546.837,1051.9808 L546.7107,1051.9134 L547.7663,1053.8391 L548.5982,1055.6455 L550.0451,1057.7797 L551.1876,1059.7517 L551.9127,1061.5012 L552.1149,1061.6187 L553.278,1063.5464 L554.0567,1065.2507 L555.2411,1067.1908 L556.1569,1068.9748 L557.4042,1070.9514 L557.5107,1071.0191 L558.6899,1072.8884 L559.9976,1074.8395 L560.8974,1076.5313 L562.1262,1078.4322 L563.3698,1080.3424 L563.5316,1080.455 L564.8763,1082.355 L565.7819,1083.9495 L567.1978,1085.8989 L568.6225,1087.8545 L569.8677,1089.6852 L569.6517,1089.5206 L571.4103,1091.6414 L572.7942,1093.4768 L574.0851,1095.2412 L575.5887,1097.1677 L576.9561,1098.9905 L577.2048,1099.1979 L578.3967,1100.7572 L580.1585,1102.7917 L581.6959,1104.6392 L583.1853,1106.4466 L584.6932,1108.2694 L584.7395,1108.3116 L586.4193,1110.1561 L587.8659,1111.7879 L589.6281,1113.7074 L591.2969,1115.542 L593.1374,1117.5328 L593.1575,1117.5528 L595.007,1119.4122 L596.872,1121.2871 L598.5713,1122.9969 L600.4835,1124.9187 L602.3467,1126.7917 L602.3104,1126.7524 L604.5271,1128.833 L606.4884,1130.637 L608.2199,1132.1923 L610.3508,1134.18 L612.3794,1136.0569 L612.2131,1135.8614 L614.6453,1138.011 L616.9203,1139.9759 L619.0847,1141.8107 L620.9854,1143.3354 L623.2937,1145.3394 L623.421,1145.5015 L625.4606,1146.9419 L628.0903,1149.1336 L630.324,1150.8212 L632.8035,1152.8218 L635.1478,1154.6501 L635.2106,1154.7365 L637.8417,1156.6898 L640.1005,1158.1313 L642.9834,1160.4309 L645.4761,1162.1941 L648,1164 L648.0854,1164.1328 L650.7545,1165.9346 L653.151,1167.3122 L655.7666,1169.0307 L658.3506,1170.7 L660.8741,1172.2753 L660.9149,1172.3529 L663.3189,1173.5598 L665.911,1175.1246 L668.083,1175.8899 L670.7709,1177.637 L673.099,1178.6995 L672.9936,1178.443 L675.345,1179.4379 L677.7802,1180.6371 L680.1155,1181.5928 L682.3647,1182.3392 L684.7852,1183.5024 L684.8385,1183.6784 L687.0508,1184.231 L689.3821,1185.1761 L691.626,1185.833 L693.7339,1186.0409 L696.0433,1186.9139 L696.0077,1186.7407 L698.2198,1187.3077 L700.4513,1187.9687 L702.6437,1188.4394 L704.8227,1188.845 L706.9839,1189.1639 L706.9653,1189.0131 L709.1651,1189.7083 L711.3116,1189.9709 L713.4215,1189.9341 L715.5578,1190.1132 L717.7175,1190.4823 L717.7072,1190.3042 L719.8394,1190.5104 L721.9759,1190.79 L724.0981,1190.822 L726.2166,1190.7903 L728.3548,1191.099 L728.3577,1191.3156 L730.4823,1190.924 L732.6184,1191.3801 L734.7482,1191.3757 L736.8782,1191.3801 L739.0062,1191.2438 L739.0092,1191.5515 L743.3628,1191.0932 L747.7202,1191.0275 L752.0812,1191.3504 L756.4341,1190.8132 L760.7942,1191.0372 L760.7932,1190.9332 L763.0663,1191.1102 L765.3376,1191.1111 L767.6073,1190.943 L769.8802,1191.1049 L772.1519,1191.1456 L772.1675,1191.4762 L774.5283,1191.5448 L776.8651,1191.1034 L779.2421,1191.5141 L781.5925,1191.3624 L783.9661,1191.7017 L783.9649,1191.6901 L786.4553,1192.078 L788.9371,1192.3808 L791.3656,1192.1479 L793.8888,1192.8657 L796.3474,1192.9353 L796.348,1192.939 L798.9193,1193.1199 L801.5372,1193.5851 L804.2063,1194.3632 L806.8126,1194.7577 L809.4065,1195.0763 L809.4048,1195.0692 L812.1071,1195.4413 L815.0128,1196.6723 L817.6829,1196.9084 L820.4303,1197.4705 L823.2538,1198.3546 L823.2448,1198.326 L826.2818,1199.5336 L829.2345,1200.4736 L832.1062,1201.1567 L835.0306,1202.0068 L838,1203 L838.0275,1203.0703 L840.4361,1204.0171 L842.7299,1204.6698 L845.285,1205.9914 L847.7144,1206.9913 L850.03,1207.7 " fill="none" style="stroke: #A9A9A9; stroke-width: 2.0;"/><polygon fill="#A9A9A9" points="854.74,1209.75,854.7917,1209.7973,853.308,1208.2039,852.1273,1206.8877,850.848,1205.4813,849.2442,1203.7779,848.0895,1202.4856,848.0654,1202.4761,848.3707,1203.4868,848.7975,1204.5451,849.3088,1205.6366,849.5289,1206.6138,850.1569,1207.7512,850.2244,1207.9229,849.027,1207.9691,848.0266,1208.5167,847.0502,1209.1256,845.934,1209.3784,844.8914,1209.8185,844.8915,1209.8413,846.861,1209.7942,848.8312,1209.8506,850.8011,1209.8571,852.7716,1209.9589,854.74,1209.75" style="stroke: #A9A9A9; stroke-width: 2.0;"/><!--link AnalyzeClasses to EngineerComponents--><path d="M359.83,970.25 L359.9177,970.2821 L358.9226,972.1936 L358.4418,974.2932 L357.7935,976.3316 L356.5945,978.1685 L356.1578,980.2843 L356.1251,980.2733 L355.2474,982.3875 L354.5347,984.5574 L353.9367,986.7661 L352.9434,988.8413 L352.5037,991.1034 L352.739,991.1756 L351.5304,993.3202 L351.0087,995.6756 L350.5707,998.0567 L349.6452,1000.2882 L348.9761,1002.5984 L349.0054,1002.6064 L348.3039,1005.0071 L347.7357,1007.4441 L347.1031,1009.8636 L346.5932,1012.3166 L345.6836,1014.6605 L345.9739,1014.7288 L345.3876,1017.2337 L344.6141,1019.6945 L344.1147,1022.2198 L343.6282,1024.7482 L342.7346,1027.1807 L342.4199,1027.1196 L342.5312,1029.812 L341.6064,1032.3033 L341.4693,1034.9475 L340.521,1037.4343 L340.2376,1040.0501 L340.2075,1040.0456 L340.1764,1042.7202 L339.4416,1045.2909 L339.122,1047.9228 L338.8373,1050.56 L338.3012,1053.1599 L338.4853,1053.1776 L338.0459,1055.808 L337.9213,1058.4686 L337.2875,1061.0805 L337.4131,1063.765 L337.0338,1066.4013 L337.2772,1066.4102 L337.1332,1069.0613 L337.1101,1071.7169 L336.5253,1074.3517 L336.3522,1077.0017 L336.5439,1079.6652 L336.2678,1079.6569 L336.597,1082.2999 L336.615,1084.9336 L337.0843,1087.5809 L336.7832,1090.205 L336.9401,1092.8429 L336.7885,1092.8266 L337.3191,1095.4502 L337.2017,1098.0043 L337.5451,1100.6078 L338.3394,1103.2596 L338.3308,1105.8254 L338.5208,1105.8628 L339.1498,1108.4241 L339.1879,1110.8692 L339.9662,1113.4599 L340.5833,1116.0188 L340.8245,1118.5039 L340.6235,1118.4432 L341.5248,1120.9447 L342.3603,1123.4263 L343.325,1125.947 L343.787,1128.3158 L344.5298,1130.7695 L344.7188,1130.8504 L345.3086,1133.0214 L346.2632,1135.3486 L347.7508,1137.9038 L348.2572,1140.0392 L349.5552,1142.5133 L349.7508,1142.6269 L350.9254,1144.782 L352.0338,1146.8988 L353.2915,1149.1022 L354.8946,1151.5062 L356.0091,1153.6264 L355.9037,1153.5452 L357.8156,1155.8617 L359.0108,1157.6259 L361.021,1160.018 L362.5723,1162.0566 L364,1164 L364.0706,1164.0828 L366.0844,1165.7817 L368.3512,1167.7773 L370.3894,1169.5048 L372.3321,1171.1203 L374.3541,1172.8288 L374.4092,1172.9345 L377.0277,1174.1844 L379.9019,1175.9251 L382.487,1177.1107 L385.191,1178.5246 L387.8559,1179.8635 L387.77,1179.6071 L391.0456,1180.7812 L394.4247,1182.2641 L397.6574,1183.3101 L400.8375,1184.1994 L404.0905,1185.3059 L404.0599,1185.1661 L407.7802,1186.0213 L411.4463,1186.6288 L415.2612,1187.9172 L419.0025,1188.8687 L422.6428,1189.358 L422.679,1189.5891 L424.6937,1189.9766 L426.6397,1189.925 L428.6582,1190.3369 L430.6287,1190.4419 L432.6585,1190.9257 L432.674,1191.0509 L434.7599,1191.2936 L436.8645,1191.6876 L438.9096,1191.6018 L441.0027,1191.903 L443.0979,1192.2214 L443.117,1192.4176 L445.2846,1192.6822 L447.4005,1192.4143 L449.5764,1192.7651 L451.7535,1193.1267 L453.9093,1193.2705 L453.8892,1192.9998 L456.1473,1193.5927 L458.3704,1193.7159 L460.5849,1193.7224 L462.8192,1193.9957 L465.0408,1194.0981 L465.0587,1194.4215 L467.3131,1194.0856 L469.6084,1194.4905 L471.8877,1194.6038 L474.1634,1194.6546 L476.4405,1194.7296 L476.443,1194.7921 L478.7657,1194.872 L481.0759,1194.6365 L483.4031,1194.8278 L485.7252,1194.8929 L488.0565,1195.19 L488.0571,1195.2183 L492.792,1195.3309 L497.5274,1195.4654 L502.2578,1195.3659 L506.9947,1195.567 L511.73,1195.6988 L511.7297,1195.6453 L516.5146,1195.9806 L521.2975,1195.9394 L526.0786,1195.5595 L530.8629,1195.7684 L535.6463,1195.8263 L535.6457,1195.5698 L540.3954,1195.9441 L545.1445,1196.076 L549.8933,1196.0373 L554.6412,1195.5913 L559.3904,1195.7745 L559.3907,1195.9807 L564.0214,1195.4385 L568.6533,1195.8517 L573.2844,1195.6239 L577.9161,1195.794 L582.5474,1195.7452 L582.5483,1195.852 L586.9802,1195.994 L591.4065,1195.5032 L595.8421,1196.0735 L600.2719,1195.9803 L604.7022,1195.9402 L604.7058,1196.098 L606.8243,1196.3214 L608.931,1196.0405 L611.0471,1196.1648 L613.1619,1196.2307 L615.2741,1196.1848 L615.2773,1196.2724 L617.3072,1196.2598 L619.3521,1196.6511 L621.3635,1196.1399 L623.416,1196.7371 L625.4398,1196.5613 L625.4216,1196.2846 L629.2051,1196.5715 L633.0032,1197.0787 L636.784,1197.3233 L640.5498,1197.342 L644.3454,1197.8104 L644.3681,1197.9929 L647.683,1198.2742 L651.0487,1198.9625 L654.3771,1199.352 L657.6474,1199.2759 L661.0037,1199.8894 L660.9654,1199.7167 L663.7905,1200.4555 L666.6365,1201.2879 L669.4404,1201.9306 L672.2298,1202.5085 L675,1203 L674.952,1202.8558 L677.4952,1204.0684 L679.9009,1204.8673 L682.2114,1205.3801 L684.5905,1206.0992 L687.03,1207 " fill="none" style="stroke: #A9A9A9; stroke-width: 2.0;"/><polygon fill="#A9A9A9" points="691.75,1208.79,691.7993,1208.8398,690.2521,1207.307,688.9937,1206.0662,687.6413,1204.7303,685.9796,1203.0816,684.746,1201.8658,684.7224,1201.8552,685.0818,1202.8386,685.5603,1203.8757,686.1215,1204.9501,686.3976,1205.8959,687.0731,1207.0219,687.149,1207.1901,685.9554,1207.2958,684.9835,1207.8926,684.0387,1208.5494,682.9365,1208.8575,681.917,1209.349,681.9183,1209.3717,683.883,1209.2265,685.8536,1209.1848,687.8213,1209.0932,689.7945,1209.0967,691.75,1208.79" style="stroke: #A9A9A9; stroke-width: 2.0;"/><!--link AnalyzePackages to EngineerComponents--><path d="M485.37,1137.25 L485.4225,1137.3272 L489.2295,1139.7922 L493.3443,1142.71 L497.3589,1145.4804 L501.0437,1147.7658 L505.185,1150.7225 L505.1658,1150.6938 L509.0425,1153.2205 L513.0161,1155.8919 L517.0571,1158.6638 L520.866,1161.0892 L525,1164 L525.1331,1164.207 L527.6485,1165.5644 L530.5525,1167.5261 L533.5038,1169.5615 L536.1794,1171.1679 L539,1173 L539.0111,1173.0282 L541.0554,1173.7931 L543.15,1174.6866 L545.2203,1175.5181 L547.337,1176.4679 L549.3027,1177.0318 L549.3988,1177.3142 L551.31,1177.968 L553.1591,1178.4398 L555.0991,1179.1781 L557.0433,1179.9289 L558.8526,1180.2839 L558.7704,1179.9741 L562.3862,1181.4927 L565.7312,1181.9912 L569.2821,1183.2652 L572.621,1183.7406 L576.1336,1184.8706 L576.1283,1184.8406 L579.308,1185.7419 L582.3649,1185.9426 L585.4942,1186.5567 L588.6297,1187.2055 L591.7212,1187.6039 L591.7426,1187.7877 L594.6755,1187.9469 L597.645,1188.4201 L600.5552,1188.3854 L603.5539,1189.1083 L606.4938,1189.3275 L606.5192,1189.5698 L609.4815,1189.8355 L612.4565,1190.2215 L615.3728,1190.0486 L618.3322,1190.2854 L621.3296,1190.8852 L621.2908,1190.6117 L624.4814,1191.3063 L627.6283,1191.6929 L630.8385,1192.5263 L633.9407,1192.5967 L637.107,1193.1206 L637.0752,1192.9715 L640.6477,1193.9712 L644.0841,1194.3336 L647.6173,1195.1492 L651.2451,1196.4083 L654.7044,1196.8777 L654.7563,1197.0642 L656.743,1197.7347 L658.5683,1197.825 L660.5958,1198.642 L662.5792,1199.3007 L664.46,1199.5904 L664.3954,1199.3907 L666.5549,1200.2318 L668.6932,1201.0075 L670.8732,1201.9118 L672.8914,1202.3163 L675,1203 L675.0719,1203.1926 L677.2919,1203.6574 L679.6507,1204.494 L682.2123,1205.8737 L684.4005,1206.2535 L686.89,1207.44 " fill="none" style="stroke: #A9A9A9; stroke-width: 2.0;"/><polygon fill="#A9A9A9" points="691.57,1209.35,691.6205,1209.3986,690.1053,1207.8343,688.8862,1206.5546,687.5707,1205.1823,685.9381,1203.5052,684.7444,1202.25,684.7205,1202.2399,685.0524,1203.2375,685.5046,1204.2858,686.0405,1205.3693,686.2881,1206.3314,686.9395,1207.4635,687.0112,1207.6336,685.8153,1207.7089,684.8285,1208.2808,683.8673,1208.9133,682.7576,1209.1933,681.726,1209.6587,681.7267,1209.6814,683.6945,1209.5863,685.6655,1209.5947,687.6349,1209.5532,689.6073,1209.6069,691.57,1209.35" style="stroke: #A9A9A9; stroke-width: 2.0;"/><!--
@startuml

skinparam backgroundColor #222222

skinparam default {
    FontSize 20
    FontName courier
    FontStyle bold
    FontColor #DarkGrey
}
skinparam handwritten true

skinparam shadowing false
skinparam padding 1
skinparam arrow {
    Thickness 2
    Color #DarkGrey
    FontSize 20
    FontName courier
    FontStyle bold
    FontColor #DarkGrey
}

skinparam title {
    BorderThickness 5
    BorderColor #orange
    FontSize 30
    FontName arial
    FontStyle bold
    FontColor #orange
 }

skinparam header {
    FontSize 15
    FontName courier
    FontStyle italic
    FontColor #orange
}

skinparam footer {
    FontSize 15
    FontName courier
    FontStyle italic
    FontColor #orange
}

skinparam legend {
    BorderThickness 1
    BorderColor #orange
    backgroundColor #222222
    FontSize 15
    FontName courier
    FontStyle italic
    FontColor #orange
}

skinparam package {
    BorderThickness 3
    BorderColor #DarkGrey
    BackgroundColor #222222
    FontSize 20
    FontName courier
    FontStyle bold
    FontColor #DarkGrey
}

skinparam class {
    BorderThickness 3
    BorderColor #DarkGrey
    BackgroundColor #222222
    FontSize 20
    FontName courier
    FontStyle bold
    FontColor #DarkGrey
}

skinparam classAttribute {
    FontSize 15
    FontName courier
    FontStyle bold
    FontColor #DarkGrey
}

hide circle
hide stereotype

skinparam class {
    BorderColor<<disciplines>> #750b20
    BorderColor<<activities>> #196719
    BorderColor<<team>> #004080
    FontColor<<disciplines>> #750b20
    FontColor<<activities>> #196719
    FontColor<<team>> #004080
}

skinparam package {
    BorderColor<<disciplines>> #750b20
    BorderColor<<activities>> #196719
    BorderColor<<team>> #004080
    FontColor<<disciplines>> #750b20
    FontColor<<activities>> #196719
    FontColor<<team>> #004080
}

skinparam classAttribute {
    FontColor<<disciplines>> #750b20
    FontColor<<activities>> #196719
    FontColor<<team>> #004080
}

package disciplines <<disciplines>> {
    class Discipline <<disciplines>>
    class AnalysisDiscipline as "Analysis\nDiscipline" <<disciplines>>
}

package activities <<activities>>{
    class Activity <<activities>>
    class AnalysisActivity as "Analysis\nActivity" <<activities>>
    class AnalyzeArchitecture as "Analyze\nArchitecture" <<activities>>
    class AnalyzeUseCases as "Analyze\nUse Cases" <<activities>>
    class AnalyzeClasses as "Analyze\nClasses" <<activities>>
    class AnalyzePackages as "Analyze\nPackages" <<activities>>
}

package team <<team>> {
    class Member <<team>>
    class Role <<team>>
    class AnalysisRole as "Analysis\nRole" <<team>>
    class Architect <<team>>
    class EngineerUseCases as "Engineer\nUse Cases" <<team>>
    class EngineerComponents as "Engineer\nComponents" <<team>>
}

Discipline *- -> Activity
Discipline <|- - AnalysisDiscipline
AnalysisDiscipline *- -> "4" AnalysisActivity
Activity <|- - AnalysisActivity

AnalysisActivity <|- - AnalyzeArchitecture
AnalysisActivity <|- - AnalyzeUseCases
AnalysisActivity <|- - AnalyzeClasses
AnalysisActivity <|- - AnalyzePackages
AnalyzeArchitecture - -> AnalyzeUseCases :next
AnalyzeUseCases - -> AnalyzeClasses :next
AnalyzeClasses - -> AnalyzePackages :next

AnalysisActivity *- -> Member
Member *- -> Role
Role <|- - AnalysisRole
AnalysisRole <|- - Architect
AnalysisRole <|- - EngineerUseCases
AnalysisRole <|- - EngineerComponents

AnalyzeArchitecture - -> Architect
AnalyzeUseCases - -> EngineerUseCases
AnalyzeClasses - -> EngineerComponents
AnalyzePackages - -> EngineerComponents
@enduml

PlantUML version 1.2019.05(Sat Apr 20 18:45:36 CEST 2019)
(GPL source distribution)
Java Runtime: Java(TM) SE Runtime Environment
JVM: Java HotSpot(TM) 64-Bit Server VM
Java Version: 11.0.14+8-LTS-263
Operating System: Windows 10
OS Version: 10.0
Default Encoding: windows-1252
Language: es
Country: ES
--></g></svg>