<?xml version="1.0" encoding="UTF-8" standalone="no"?><svg xmlns="http://www.w3.org/2000/svg" xmlns:xlink="http://www.w3.org/1999/xlink" contentScriptType="application/ecmascript" contentStyleType="text/css" height="686px" preserveAspectRatio="none" style="width:1143px;height:686px;background:#222222;" version="1.1" viewBox="0 0 1143 686" width="1143px" zoomAndPan="magnify"><defs/><g><!--cluster Activities--><polygon fill="#222222" points="647,24,647,24.2102,656.8462,23.5857,666.6923,24.1933,676.5385,24.3997,686.3846,23.2866,696.2308,23.9223,706.0769,23.5735,715.9231,23.6165,725.7692,23.9318,735.6154,23.3086,745.4615,24.5536,755.3077,23.3697,765.1538,23.8022,775,24,775.141,24.0289,776.372,30.8169,777.8223,37.6499,779.1896,44.4658,780.6583,51.3026,782,58.1133,782,58.3524,791.8,58.699,801.6,58.7843,811.4,58.7925,821.2,58.3679,831,58.1133,831.4636,58.1133,831.7022,68.2419,830.2788,78.3705,831.6785,88.4991,830.7035,98.6277,831.5338,108.7563,830.505,118.8849,830.9315,129.0135,831.7416,139.1421,830.9513,149.2707,831.1053,159.3993,831.3386,169.5279,831.4162,179.6565,830.9961,189.7851,831.2872,199.9137,830.4276,210.0422,831.2844,220.1708,831.5482,230.2994,831.4445,240.428,831.613,250.5566,830.5169,260.6852,830.3478,270.8138,830.3786,280.9424,830.9411,291.071,830.8035,301.1996,831.6814,311.3282,830.8253,321.4568,830.6569,331.5854,831.2283,341.714,830.3332,351.8426,830.4809,361.9712,831.649,372.0998,831.4357,382.2284,831.7345,392.357,830.6782,402.4856,831.3192,412.6142,831.5904,422.7428,830.5276,432.8714,831,443,831,442.9041,820.7778,443.126,810.5556,443.6518,800.3333,442.9958,790.1111,443.4626,779.8889,442.4462,769.6667,442.3227,759.4444,443.5036,749.2222,442.2831,739,443.509,728.7778,443.2066,718.5556,442.7321,708.3333,442.6462,698.1111,443.4588,687.8889,442.7007,677.6667,443.5919,667.4444,442.4473,657.2222,443.6174,647,443,647.4843,443,647.245,433.0238,647.0472,423.0476,647.7266,413.0714,647.6136,403.0952,647.1693,393.119,647.2682,383.1429,646.8697,373.1667,647.7165,363.1905,647.1549,353.2143,647.1726,343.2381,646.3916,333.2619,646.5948,323.2857,647.5307,313.3095,647.4298,303.3333,646.9571,293.3571,646.6778,283.381,646.7811,273.4048,646.3138,263.4286,647.4147,253.4524,647.7396,243.4762,647.5264,233.5,647.6949,223.5238,646.8633,213.5476,647.0872,203.5714,646.6124,193.5952,647.284,183.619,647.2468,173.6429,647.5524,163.6667,646.7703,153.6905,646.8656,143.7143,647.4435,133.7381,647.5673,123.7619,646.4875,113.7857,646.8061,103.8095,647.1493,93.8333,646.3892,83.8571,647.3534,73.881,647.258,63.9048,646.8992,53.9286,647.1422,43.9524,647.7287,33.9762,647,24" style="stroke: #196719; stroke-width: 3.0;"/><path d="M647,58.1133 L647,58.3935 L656.6429,57.5609 L666.2857,58.371 L675.9286,58.6462 L685.5714,57.1621 L695.2143,58.0097 L704.8571,57.5446 L714.5,57.6019 L724.1429,58.0224 L733.7857,57.1915 L743.4286,58.8515 L753.0714,57.2729 L762.7143,57.8496 L772.3571,58.6892 L782,58.1133 " fill="#222222" style="stroke: #196719; stroke-width: 3.0;"/><text fill="#196719" font-family="courier" font-size="20" font-weight="bold" lengthAdjust="spacingAndGlyphs" textLength="120" x="652" y="47.1074">Activities</text><!--cluster Arifacts--><polygon fill="#222222" points="22,505,22,505.2102,32.4,504.5857,42.8,505.1933,53.2,505.3997,63.6,504.2866,74,504.9223,84.4,504.5735,94.8,504.6165,105.2,504.9318,115.6,504.3086,126,505,126.1808,505.0371,127.1942,511.7804,128.7354,518.6321,130.341,525.4969,131.572,532.2849,133,539.1133,133,539.1815,142.9512,539.0813,152.9024,539.2918,162.8537,539.3524,172.8049,539.699,182.7561,539.7843,192.7073,539.7925,202.6585,539.3679,212.6098,539.5769,222.561,539.8155,232.5122,538.3921,242.4634,539.7918,252.4146,538.8168,262.3659,539.6471,272.3171,538.6183,282.2683,539.0448,292.2195,539.8549,302.1707,539.0645,312.122,539.2186,322.0732,539.4519,332.0244,539.5295,341.9756,539.1094,351.9268,539.4005,361.878,538.5409,371.8293,539.3977,381.7805,539.6615,391.7317,539.5578,401.6829,539.7263,411.6341,538.6302,421.5854,538.4611,431.5366,538.4919,441.4878,539.0544,451.439,538.9168,461.3902,539.7947,471.3415,538.9386,481.2927,538.7702,491.2439,539.3415,501.1951,538.4464,511.1463,538.5942,521.0976,539.7622,531.0488,539.5489,541,539.8478,550.9512,538.7915,560.9024,539.4325,570.8537,539.7037,580.8049,538.6409,590.7561,539.0174,600.7073,539.2393,610.6585,539.765,620.6098,539.1091,630.561,539.5758,640.5122,538.5595,650.4634,538.436,660.4146,539.6169,670.3659,538.3963,680.3171,539.6222,690.2683,539.3199,700.2195,538.8454,710.1707,538.7595,720.122,539.572,730.0732,538.8139,740.0244,539.7051,749.9756,538.5605,759.9268,539.7307,769.878,539.5976,779.8293,539.3582,789.7805,539.1605,799.7317,539.8399,809.6829,539.7269,819.6341,539.2825,829.5854,539.3815,839.5366,538.983,849.4878,539.8297,859.439,539.2681,869.3902,539.2859,879.3415,538.5049,889.2927,538.7081,899.2439,539.644,909.1951,539.543,919.1463,539.0703,929.0976,538.7911,939.0488,538.8944,949,539.1133,948.3138,539.1133,949.4147,549.4892,949.7396,559.8651,949.5264,570.241,949.6949,580.6169,948.8633,590.9928,949.0872,601.3687,948.6124,611.7446,949.284,622.1205,949.2468,632.4964,949.5524,642.8723,948.7703,653.2482,948.8656,663.6241,949,674,949,674.4435,939.0323,674.5673,929.0645,673.4875,919.0968,673.8061,909.129,674.1493,899.1613,673.3892,889.1935,674.3534,879.2258,674.258,869.2581,673.8992,859.2903,674.1422,849.3226,674.7287,839.3548,673.6871,829.3871,674.315,819.4194,674.2856,809.4516,674.1158,799.4839,674.1409,789.5161,674.1135,779.5484,673.3758,769.5806,673.5992,759.6129,673.5385,749.6452,674.0638,739.6774,674.0881,729.7097,674.1617,719.7419,673.709,709.7742,673.9325,699.8065,673.8798,689.8387,674.5769,679.871,674.4266,669.9032,673.5145,659.9355,673.9271,649.9677,673.4228,640,674.2884,630.0323,674.6085,620.0645,674.5446,610.0968,673.5644,600.129,674.464,590.1613,673.2572,580.1935,674.2002,570.2258,673.7007,560.2581,674.0967,550.2903,674.2403,540.3226,674.4721,530.3548,673.2801,520.3871,674.4755,510.4194,674.1782,500.4516,674.3553,490.4839,674.7478,480.5161,674.0055,470.5484,674.1753,460.5806,674.2134,450.6129,674.1972,440.6452,673.9992,430.6774,674.7107,420.7097,673.3903,410.7419,674.5653,400.7742,673.376,390.8065,673.4597,380.8387,674.04,370.871,674.0283,360.9032,673.5072,350.9355,674.4137,340.9677,674.1089,331,674.7267,321.0323,674.6671,311.0645,673.5517,301.0968,673.6021,291.129,673.8708,281.1613,674.3555,271.1935,674.403,261.2258,674.3012,251.2581,673.658,241.2903,674.6364,231.3226,674.6338,221.3548,673.9527,211.3871,673.7609,201.4194,673.5986,191.4516,673.7854,181.4839,674.1374,171.5161,673.9316,161.5484,673.5822,151.5806,674.4874,141.6129,673.5411,131.6452,674.5024,121.6774,674.4272,111.7097,674.3719,101.7419,674.6925,91.7742,673.7541,81.8065,673.6994,71.8387,674.5189,61.871,673.4031,51.9032,673.766,41.9355,674.1155,31.9677,674.0687,22,674,21.6415,674,21.957,664.0588,22.7446,654.1176,22.6485,644.1765,21.4037,634.2353,22.0785,624.2941,21.4861,614.3529,21.9737,604.4118,22.293,594.4706,22.4199,584.5294,21.3353,574.5882,22.4005,564.6471,22.0084,554.7059,21.4447,544.7647,21.5289,534.8235,22.3266,524.8824,22.2499,514.9412,22,505" style="stroke: #750B20; stroke-width: 3.0;"/><path d="M22,539.1133 L22,539.3935 L32.0909,538.5609 L42.1818,539.371 L52.2727,539.6462 L62.3636,538.1621 L72.4545,539.0097 L82.5455,538.5446 L92.6364,538.6019 L102.7273,539.0224 L112.8182,538.1915 L122.9091,539.8515 L133,539.1133 " fill="#222222" style="stroke: #750B20; stroke-width: 3.0;"/><text fill="#750B20" font-family="courier" font-size="20" font-weight="bold" lengthAdjust="spacingAndGlyphs" textLength="96" x="27" y="528.1074">Arifacts</text><!--cluster Team--><polygon fill="#222222" points="973,172,973,172.2102,982.3333,171.5857,991.6667,172.1933,1001,172.3997,1010.3333,171.2866,1019.6667,171.9223,1029,172,1028.8607,171.9714,1030.2748,178.797,1031.7777,185.6407,1032.9742,192.4216,1034.7808,199.3277,1036,206.1133,1036,205.483,1045.4444,205.9155,1054.8889,206.5452,1064.3333,206.0275,1073.7778,206.1815,1083.2222,206.0813,1092.6667,206.2918,1102.1111,206.3524,1111.5556,206.699,1121,206.1133,1121.6711,206.1133,1121.6793,216.1562,1121.2546,226.199,1121.4636,236.2419,1121.7022,246.2848,1120.2788,256.3277,1121.6785,266.3706,1120.7035,276.4134,1121.5338,286.4563,1120.505,296.4992,1120.9315,306.5421,1121.7416,316.585,1120.9513,326.6278,1121.1053,336.6707,1121.3386,346.7136,1121.4162,356.7565,1120.9961,366.7994,1121.2872,376.8422,1120.4276,386.8851,1121.2844,396.928,1121.5482,406.9709,1121.4445,417.0138,1121.613,427.0566,1120.5169,437.0995,1120.3478,447.1424,1120.3786,457.1853,1120.9411,467.2282,1120.8035,477.271,1121.6814,487.3139,1120.8253,497.3568,1120.6569,507.3997,1121.2283,517.4426,1120.3332,527.4854,1120.4809,537.5283,1121.649,547.5712,1121.4357,557.6141,1121.7345,567.657,1120.6782,577.6998,1121.3192,587.7427,1121.5904,597.7856,1120.5276,607.8285,1120.9041,617.8714,1121.126,627.9142,1121.6518,637.9571,1121,648,1121,647.9958,1111.1333,648.4626,1101.2667,647.4462,1091.4,647.3227,1081.5333,648.5036,1071.6667,647.2831,1061.8,648.509,1051.9333,648.2066,1042.0667,647.7321,1032.2,647.6462,1022.3333,648.4588,1012.4667,647.7007,1002.6,648.5919,992.7333,647.4473,982.8667,648.6174,973,648,973.4843,648,973.245,638.0833,973.0472,628.1667,973.7266,618.25,973.6136,608.3333,973.1693,598.4167,973.2682,588.5,972.8697,578.5833,973.7165,568.6667,973.1549,558.75,973.1726,548.8333,972.3916,538.9167,972.5948,529,973.5307,519.0833,973.4298,509.1667,972.9571,499.25,972.6778,489.3333,972.7811,479.4167,972.3138,469.5,973.4147,459.5833,973.7396,449.6667,973.5264,439.75,973.6949,429.8333,972.8633,419.9167,973.0872,410,972.6124,400.0833,973.284,390.1667,973.2468,380.25,973.5524,370.3333,972.7703,360.4167,972.8656,350.5,973.4435,340.5833,973.5673,330.6667,972.4875,320.75,972.8061,310.8333,973.1493,300.9167,972.3892,291,973.3534,281.0833,973.258,271.1667,972.8992,261.25,973.1422,251.3333,973.7287,241.4167,972.6871,231.5,973.315,221.5833,973.2856,211.6667,973.1158,201.75,973.1409,191.8333,973.1135,181.9167,973,172" style="stroke: #004080; stroke-width: 3.0;"/><path d="M973,206.1133 L973,206.3935 L983.5,205.5609 L994,206.371 L1004.5,206.6462 L1015,205.1621 L1025.5,206.0097 L1036,206.1133 " fill="#222222" style="stroke: #004080; stroke-width: 3.0;"/><text fill="#004080" font-family="courier" font-size="20" font-weight="bold" lengthAdjust="spacingAndGlyphs" textLength="48" x="978" y="195.1074">Team</text><!--class Activity--><polygon fill="#222222" points="711,71,711,71.2102,721.4,70.5857,731.8,71.1933,742.2,71.3997,752.6,70.2866,763,70.9223,773.4,70.5735,783.8,70.6165,794.2,70.9318,804.6,70.3086,815,71,815.5536,71,814.3697,81.8227,814.8022,92.6453,815.4319,103.468,814.9142,114.2906,815,125.1133,815,125.1815,804.6,125.0813,794.2,125.2918,783.8,125.3524,773.4,125.699,763,125.7843,752.6,125.7925,742.2,125.3679,731.8,125.5769,721.4,125.8155,711,125.1133,710.2788,125.1133,711.6785,114.2906,710.7035,103.468,711.5338,92.6453,710.505,81.8227,711,71" style="stroke: #196719; stroke-width: 3.0;"/><text fill="#196719" font-family="courier" font-size="20" font-weight="bold" lengthAdjust="spacingAndGlyphs" textLength="96" x="715" y="97.1074">Activity</text><path d="M712,109.1133 L712,109.3935 L722.2,108.5609 L732.4,109.371 L742.6,109.6462 L752.8,108.1621 L763,109.0097 L773.2,108.5446 L783.4,108.6019 L793.6,109.0224 L803.8,108.1915 L814,109.1133 " fill="#222222" style="stroke: #196719; stroke-width: 3.0;"/><path d="M712,117.1133 L712,117.3935 L722.2,116.5609 L732.4,117.371 L742.6,117.6462 L752.8,116.1621 L763,117.0097 L773.2,116.5446 L783.4,116.6019 L793.6,117.0224 L803.8,116.1915 L814,117.1133 " fill="#222222" style="stroke: #196719; stroke-width: 3.0;"/><!--class AnalyzeActivity--><polygon fill="#222222" points="711,206,711,206.2102,721.4,205.5857,731.8,206.1933,742.2,206.3997,752.6,205.2866,763,205.9223,773.4,205.5735,783.8,205.6165,794.2,205.9318,804.6,205.3086,815,206,815.5536,206,814.3697,216.0283,814.8022,226.0566,815.4319,236.085,814.9142,246.1133,815.0682,256.1416,814.9681,266.1699,815.1785,276.1982,815,286.2266,815,286.4657,804.6,286.8123,794.2,286.8976,783.8,286.9058,773.4,286.4812,763,286.6901,752.6,286.9288,742.2,285.5054,731.8,286.9051,721.4,285.9301,711,286.2266,711.5338,286.2266,710.505,276.1982,710.9315,266.1699,711.7416,256.1416,710.9513,246.1133,711.1053,236.085,711.3386,226.0566,711.4162,216.0283,711,206" style="stroke: #196719; stroke-width: 3.0;"/><text fill="#196719" font-family="courier" font-size="20" font-weight="bold" lengthAdjust="spacingAndGlyphs" textLength="84" x="721" y="232.1074">Analyze</text><text fill="#196719" font-family="courier" font-size="20" font-weight="bold" lengthAdjust="spacingAndGlyphs" textLength="96" x="715" y="258.2207">Activity</text><path d="M712,270.2266 L712,270.5068 L722.2,269.6741 L732.4,270.4843 L742.6,270.7595 L752.8,269.2754 L763,270.1229 L773.2,269.6579 L783.4,269.7152 L793.6,270.1357 L803.8,269.3047 L814,270.2266 " fill="#222222" style="stroke: #196719; stroke-width: 3.0;"/><path d="M712,278.2266 L712,278.5068 L722.2,277.6741 L732.4,278.4843 L742.6,278.7595 L752.8,277.2754 L763,278.1229 L773.2,277.6579 L783.4,277.7152 L793.6,278.1357 L803.8,277.3047 L814,278.2266 " fill="#222222" style="stroke: #196719; stroke-width: 3.0;"/><!--class AnalyzeArchitecture--><polygon fill="#222222" points="663,347,663,347.2102,673.1333,346.5857,683.2667,347.1933,693.4,347.3997,703.5333,346.2866,713.6667,346.9223,723.8,346.5735,733.9333,346.6165,744.0667,346.9318,754.2,346.3086,764.3333,347.5536,774.4667,346.3697,784.6,346.8022,794.7333,347.4319,804.8667,346.9142,815,347,815.0682,347,814.9681,357.0283,815.1785,367.0566,815.2391,377.085,815.5857,387.1133,815.6711,397.1416,815.6793,407.1699,815.2546,417.1982,815,427.2266,815,427.6901,804.8667,427.9288,794.7333,426.5054,784.6,427.9051,774.4667,426.9301,764.3333,427.7604,754.2,426.7315,744.0667,427.1581,733.9333,427.9682,723.8,427.1778,713.6667,427.3319,703.5333,427.5652,693.4,427.6428,683.2667,427.2227,673.1333,427.5138,663,427.2266,662.4276,427.2266,663.2844,417.1982,663.5482,407.1699,663.4445,397.1416,663.613,387.1133,662.5169,377.085,662.3478,367.0566,662.3786,357.0283,663,347" style="stroke: #196719; stroke-width: 3.0;"/><text fill="#196719" font-family="courier" font-size="20" font-weight="bold" lengthAdjust="spacingAndGlyphs" textLength="84" x="697" y="373.1074">Analyze</text><text fill="#196719" font-family="courier" font-size="20" font-weight="bold" lengthAdjust="spacingAndGlyphs" textLength="144" x="667" y="399.2207">Architecture</text><path d="M664,411.2266 L664,411.5068 L674,410.6741 L684,411.4843 L694,411.7595 L704,410.2754 L714,411.1229 L724,410.6579 L734,410.7152 L744,411.1357 L754,410.3047 L764,411.9648 L774,410.3862 L784,410.9629 L794,411.8025 L804,411.1122 L814,411.2266 " fill="#222222" style="stroke: #196719; stroke-width: 3.0;"/><path d="M664,419.2266 L664,419.5068 L674,418.6741 L684,419.4843 L694,419.7595 L704,418.2754 L714,419.1229 L724,418.6579 L734,418.7152 L744,419.1357 L754,418.3047 L764,419.9648 L774,418.3862 L784,418.9629 L794,419.8025 L804,419.1122 L814,419.2266 " fill="#222222" style="stroke: #196719; stroke-width: 3.0;"/><!--class ModelUseCases--><polygon fill="#222222" points="38,565,38,565.2102,47.6667,564.5857,57.3333,565.1933,67,565.3997,76.6667,564.2866,86.3333,564.9223,96,564.5735,105.6667,564.6165,115.3333,564.9318,125,564.3086,134.6667,565.5536,144.3333,564.3697,154,565,153.8022,565,154.4319,575.0283,153.9142,585.0566,154.0682,595.085,153.9681,605.1133,154.1785,615.1416,154.2391,625.1699,154.5857,635.1982,154,645.2266,154,645.8976,144.3333,645.9058,134.6667,645.4812,125,645.6901,115.3333,645.9288,105.6667,644.5054,96,645.9051,86.3333,644.9301,76.6667,645.7604,67,644.7315,57.3333,645.1581,47.6667,645.9682,38,645.2266,37.9513,645.2266,38.1053,635.1982,38.3386,625.1699,38.4162,615.1416,37.9961,605.1133,38.2872,595.085,37.4276,585.0566,38.2844,575.0283,38,565" style="stroke: #750B20; stroke-width: 3.0;"/><text fill="#750B20" font-family="courier" font-size="20" font-weight="bold" lengthAdjust="spacingAndGlyphs" textLength="60" x="66" y="591.1074">Model</text><text fill="#750B20" font-family="courier" font-size="20" font-weight="bold" lengthAdjust="spacingAndGlyphs" textLength="108" x="42" y="617.2207">Use Cases</text><path d="M39,629.2266 L39,629.5068 L49.3636,628.6741 L59.7273,629.4843 L70.0909,629.7595 L80.4545,628.2754 L90.8182,629.1229 L101.1818,628.6579 L111.5455,628.7152 L121.9091,629.1357 L132.2727,628.3047 L142.6364,629.9648 L153,629.2266 " fill="#222222" style="stroke: #750B20; stroke-width: 3.0;"/><path d="M39,637.2266 L39,637.5068 L49.3636,636.6741 L59.7273,637.4843 L70.0909,637.7595 L80.4545,636.2754 L90.8182,637.1229 L101.1818,636.6579 L111.5455,636.7152 L121.9091,637.1357 L132.2727,636.3047 L142.6364,637.9648 L153,637.2266 " fill="#222222" style="stroke: #750B20; stroke-width: 3.0;"/><!--class RequirementsSupplementary--><polygon fill="#222222" points="189,565,189,565.2102,199.25,564.5857,209.5,565.1933,219.75,565.3997,230,564.2866,240.25,564.9223,250.5,564.5735,260.75,564.6165,271,564.9318,281.25,564.3086,291.5,565.5536,301.75,564.3697,312,564.8022,322.25,565.4319,332.5,564.9142,342.75,565.0682,353,565,352.9681,565,353.1785,575.0283,353.2391,585.0566,353.5857,595.085,353.6711,605.1133,353.6793,615.1416,353.2546,625.1699,353.4636,635.1982,353,645.2266,353,645.9288,342.75,644.5054,332.5,645.9051,322.25,644.9301,312,645.7604,301.75,644.7315,291.5,645.1581,281.25,645.9682,271,645.1778,260.75,645.3319,250.5,645.5652,240.25,645.6428,230,645.2227,219.75,645.5138,209.5,644.6541,199.25,645.5109,189,645.2266,189.5482,645.2266,189.4445,635.1982,189.613,625.1699,188.5169,615.1416,188.3478,605.1133,188.3786,595.085,188.9411,585.0566,188.8035,575.0283,189,565" style="stroke: #750B20; stroke-width: 3.0;"/><text fill="#750B20" font-family="courier" font-size="20" font-weight="bold" lengthAdjust="spacingAndGlyphs" textLength="144" x="199" y="591.1074">Requirements</text><text fill="#750B20" font-family="courier" font-size="20" font-weight="bold" lengthAdjust="spacingAndGlyphs" textLength="156" x="193" y="617.2207">Supplementary</text><path d="M190,629.2266 L190,629.5068 L200.125,628.6741 L210.25,629.4843 L220.375,629.7595 L230.5,628.2754 L240.625,629.1229 L250.75,628.6579 L260.875,628.7152 L271,629.1357 L281.125,628.3047 L291.25,629.9648 L301.375,628.3862 L311.5,628.9629 L321.625,629.8025 L331.75,629.1122 L341.875,629.3175 L352,629.2266 " fill="#222222" style="stroke: #750B20; stroke-width: 3.0;"/><path d="M190,637.2266 L190,637.5068 L200.125,636.6741 L210.25,637.4843 L220.375,637.7595 L230.5,636.2754 L240.625,637.1229 L250.75,636.6579 L260.875,636.7152 L271,637.1357 L281.125,636.3047 L291.25,637.9648 L301.375,636.3862 L311.5,636.9629 L321.625,637.8025 L331.75,637.1122 L341.875,637.3175 L352,637.2266 " fill="#222222" style="stroke: #750B20; stroke-width: 3.0;"/><!--class DomainModel--><polygon fill="#222222" points="388,565,388,565.2102,398,564.5857,408,565.1933,418,565.3997,428,564.2866,438,564.9223,448,564.5735,458,564.6165,468,565,467.9318,565,467.3086,575.0283,468.5536,585.0566,467.3697,595.085,467.8022,605.1133,468.4319,615.1416,467.9142,625.1699,468.0682,635.1982,468,645.2266,468,645.1946,458,645.4051,448,645.4657,438,645.8123,428,645.8976,418,645.9058,408,645.4812,398,645.6901,388,645.2266,388.7022,645.2266,387.2788,635.1982,388.6785,625.1699,387.7035,615.1416,388.5338,605.1133,387.505,595.085,387.9315,585.0566,388.7416,575.0283,388,565" style="stroke: #750B20; stroke-width: 3.0;"/><text fill="#750B20" font-family="courier" font-size="20" font-weight="bold" lengthAdjust="spacingAndGlyphs" textLength="72" x="392" y="591.1074">Domain</text><text fill="#750B20" font-family="courier" font-size="20" font-weight="bold" lengthAdjust="spacingAndGlyphs" textLength="60" x="398" y="617.2207">Model</text><path d="M389,629.2266 L389,629.5068 L398.75,628.6741 L408.5,629.4843 L418.25,629.7595 L428,628.2754 L437.75,629.1229 L447.5,628.6579 L457.25,628.7152 L467,629.2266 " fill="#222222" style="stroke: #750B20; stroke-width: 3.0;"/><path d="M389,637.2266 L389,637.5068 L398.75,636.6741 L408.5,637.4843 L418.25,637.7595 L428,636.2754 L437.75,637.1229 L447.5,636.6579 L457.25,636.7152 L467,637.2266 " fill="#222222" style="stroke: #750B20; stroke-width: 3.0;"/><!--class AnalysisPackage--><polygon fill="#222222" points="503,552,503,552.2102,513.4,551.5857,523.8,552.1933,534.2,552.3997,544.6,551.2866,555,551.9223,565.4,551.5735,575.8,551.6165,586.2,551.9318,596.6,551.3086,607,552,607.5536,552,606.3697,561.6673,606.8022,571.3345,607.4319,581.0018,606.9142,590.669,607.0682,600.3363,606.9681,610.0036,607.1785,619.6708,607.2391,629.3381,607.5857,639.0053,607.6711,648.6726,607,658.3398,607,659.0191,596.6,658.5945,586.2,658.8034,575.8,659.0421,565.4,657.6187,555,659.0184,544.6,658.0433,534.2,658.8737,523.8,657.8448,513.4,658.2713,503,658.3398,503.7416,658.3398,502.9513,648.6726,503.1053,639.0053,503.3386,629.3381,503.4162,619.6708,502.9961,610.0036,503.2872,600.3363,502.4276,590.669,503.2844,581.0018,503.5482,571.3345,503.4445,561.6673,503,552" style="stroke: #750B20; stroke-width: 3.0;"/><text fill="#750B20" font-family="courier" font-size="20" font-weight="bold" lengthAdjust="spacingAndGlyphs" textLength="96" x="507" y="578.1074">Analysis</text><text fill="#750B20" font-family="courier" font-size="20" font-weight="bold" lengthAdjust="spacingAndGlyphs" textLength="84" x="513" y="604.2207">Package</text><text fill="#750B20" font-family="courier" font-size="20" font-weight="bold" lengthAdjust="spacingAndGlyphs" textLength="0" x="561" y="630.334"/><path d="M504,642.3398 L504,642.6201 L514.2,641.7874 L524.4,642.5976 L534.6,642.8727 L544.8,641.3887 L555,642.2362 L565.2,641.7712 L575.4,641.8285 L585.6,642.249 L595.8,641.418 L606,642.3398 " fill="#222222" style="stroke: #750B20; stroke-width: 3.0;"/><path d="M504,650.3398 L504,650.6201 L514.2,649.7874 L524.4,650.5976 L534.6,650.8727 L544.8,649.3887 L555,650.2362 L565.2,649.7712 L575.4,649.8285 L585.6,650.249 L595.8,649.418 L606,650.3398 " fill="#222222" style="stroke: #750B20; stroke-width: 3.0;"/><!--class AnalysisClasses--><polygon fill="#222222" points="642,552,642,552.2102,652.4,551.5857,662.8,552.1933,673.2,552.3997,683.6,551.2866,694,551.9223,704.4,551.5735,714.8,551.6165,725.2,551.9318,735.6,551.3086,746,552,746.5536,552,745.3697,561.6673,745.8022,571.3345,746.4319,581.0018,745.9142,590.669,746.0682,600.3363,745.9681,610.0036,746.1785,619.6708,746.2391,629.3381,746.5857,639.0053,746.6711,648.6726,746,658.3398,746,659.0191,735.6,658.5945,725.2,658.8034,714.8,659.0421,704.4,657.6187,694,659.0184,683.6,658.0433,673.2,658.8737,662.8,657.8448,652.4,658.2713,642,658.3398,642.7416,658.3398,641.9513,648.6726,642.1053,639.0053,642.3386,629.3381,642.4162,619.6708,641.9961,610.0036,642.2872,600.3363,641.4276,590.669,642.2844,581.0018,642.5482,571.3345,642.4445,561.6673,642,552" style="stroke: #750B20; stroke-width: 3.0;"/><text fill="#750B20" font-family="courier" font-size="20" font-weight="bold" lengthAdjust="spacingAndGlyphs" textLength="96" x="646" y="578.1074">Analysis</text><text fill="#750B20" font-family="courier" font-size="20" font-weight="bold" lengthAdjust="spacingAndGlyphs" textLength="84" x="652" y="604.2207">Classes</text><text fill="#750B20" font-family="courier" font-size="20" font-weight="bold" lengthAdjust="spacingAndGlyphs" textLength="0" x="700" y="630.334"/><path d="M643,642.3398 L643,642.6201 L653.2,641.7874 L663.4,642.5976 L673.6,642.8727 L683.8,641.3887 L694,642.2362 L704.2,641.7712 L714.4,641.8285 L724.6,642.249 L734.8,641.418 L745,642.3398 " fill="#222222" style="stroke: #750B20; stroke-width: 3.0;"/><path d="M643,650.3398 L643,650.6201 L653.2,649.7874 L663.4,650.5976 L673.6,650.8727 L683.8,649.3887 L694,650.2362 L704.2,649.7712 L714.4,649.8285 L724.6,650.249 L734.8,649.418 L745,650.3398 " fill="#222222" style="stroke: #750B20; stroke-width: 3.0;"/><!--class ArchitectureDescription--><polygon fill="#222222" points="781,552,781,552.2102,791.1333,551.5857,801.2667,552.1933,811.4,552.3997,821.5333,551.2866,831.6667,551.9223,841.8,551.5735,851.9333,551.6165,862.0667,551.9318,872.2,551.3086,882.3333,552.5536,892.4667,551.3697,902.6,551.8022,912.7333,552.4319,922.8667,551.9142,933,552,933.0682,552,932.9681,561.6673,933.1785,571.3345,933.2391,581.0018,933.5857,590.669,933.6711,600.3363,933.6793,610.0036,933.2546,619.6708,933.4636,629.3381,933.7022,639.0053,932.2788,648.6726,933,658.3398,933,659.0184,922.8667,658.0433,912.7333,658.8737,902.6,657.8448,892.4667,658.2713,882.3333,659.0814,872.2,658.2911,862.0667,658.4451,851.9333,658.6785,841.8,658.7561,831.6667,658.3359,821.5333,658.6271,811.4,657.7674,801.2667,658.6242,791.1333,658.888,781,658.3398,781.4445,658.3398,781.613,648.6726,780.5169,639.0053,780.3478,629.3381,780.3786,619.6708,780.9411,610.0036,780.8035,600.3363,781.6814,590.669,780.8253,581.0018,780.6569,571.3345,781.2283,561.6673,781,552" style="stroke: #750B20; stroke-width: 3.0;"/><text fill="#750B20" font-family="courier" font-size="20" font-weight="bold" lengthAdjust="spacingAndGlyphs" textLength="144" x="785" y="578.1074">Architecture</text><text fill="#750B20" font-family="courier" font-size="20" font-weight="bold" lengthAdjust="spacingAndGlyphs" textLength="132" x="791" y="604.2207">Description</text><text fill="#750B20" font-family="courier" font-size="20" font-weight="bold" lengthAdjust="spacingAndGlyphs" textLength="0" x="863" y="630.334"/><path d="M782,642.3398 L782,642.6201 L792,641.7874 L802,642.5976 L812,642.8727 L822,641.3887 L832,642.2362 L842,641.7712 L852,641.8285 L862,642.249 L872,641.418 L882,643.078 L892,641.4995 L902,642.0762 L912,642.9158 L922,642.2255 L932,642.3398 " fill="#222222" style="stroke: #750B20; stroke-width: 3.0;"/><path d="M782,650.3398 L782,650.6201 L792,649.7874 L802,650.5976 L812,650.8727 L822,649.3887 L832,650.2362 L842,649.7712 L852,649.8285 L862,650.249 L872,649.418 L882,651.078 L892,649.4995 L902,650.0762 L912,650.9158 L922,650.2255 L932,650.3398 " fill="#222222" style="stroke: #750B20; stroke-width: 3.0;"/><!--class Role--><polygon fill="#222222" points="998,219,998,219.2102,1007.3333,218.5857,1016.6667,219.1933,1026,219.3997,1035.3333,218.2866,1044.6667,218.9223,1054,219,1053.5735,219,1053.6165,229.8227,1053.9318,240.6453,1053.3086,251.468,1054.5536,262.2906,1054,273.1133,1054,272.483,1044.6667,272.9155,1035.3333,273.5452,1026,273.0275,1016.6667,273.1815,1007.3333,273.0813,998,273.1133,998.1785,273.1133,998.2391,262.2906,998.5857,251.468,998.6711,240.6453,998.6793,229.8227,998,219" style="stroke: #004080; stroke-width: 3.0;"/><text fill="#004080" font-family="courier" font-size="20" font-weight="bold" lengthAdjust="spacingAndGlyphs" textLength="48" x="1002" y="245.1074">Role</text><path d="M999,257.1133 L999,257.3935 L1009.8,256.5609 L1020.6,257.371 L1031.4,257.6462 L1042.2,256.1621 L1053,257.1133 " fill="#222222" style="stroke: #004080; stroke-width: 3.0;"/><path d="M999,265.1133 L999,265.3935 L1009.8,264.5609 L1020.6,265.371 L1031.4,265.6462 L1042.2,264.1621 L1053,265.1133 " fill="#222222" style="stroke: #004080; stroke-width: 3.0;"/><!--class AnalyzeRole--><polygon fill="#222222" points="989,347,989,347.2102,999.2222,346.5857,1009.4444,347.1933,1019.6667,347.3997,1029.8889,346.2866,1040.1111,346.9223,1050.3333,346.5735,1060.5556,346.6165,1070.7778,346.9318,1081,347,1080.3086,347,1081.5536,357.0283,1080.3697,367.0566,1080.8022,377.085,1081.4319,387.1133,1080.9142,397.1416,1081.0682,407.1699,1080.9681,417.1982,1081,427.2266,1081,427.4051,1070.7778,427.4657,1060.5556,427.8123,1050.3333,427.8976,1040.1111,427.9058,1029.8889,427.4812,1019.6667,427.6901,1009.4444,427.9288,999.2222,426.5054,989,427.2266,989.6785,427.2266,988.7035,417.1982,989.5338,407.1699,988.505,397.1416,988.9315,387.1133,989.7416,377.085,988.9513,367.0566,989.1053,357.0283,989,347" style="stroke: #004080; stroke-width: 3.0;"/><text fill="#004080" font-family="courier" font-size="20" font-weight="bold" lengthAdjust="spacingAndGlyphs" textLength="84" x="993" y="373.1074">Analyze</text><text fill="#004080" font-family="courier" font-size="20" font-weight="bold" lengthAdjust="spacingAndGlyphs" textLength="48" x="1011" y="399.2207">Role</text><path d="M990,411.2266 L990,411.5068 L1000,410.6741 L1010,411.4843 L1020,411.7595 L1030,410.2754 L1040,411.1229 L1050,410.6579 L1060,410.7152 L1070,411.1357 L1080,411.2266 " fill="#222222" style="stroke: #004080; stroke-width: 3.0;"/><path d="M990,419.2266 L990,419.5068 L1000,418.6741 L1010,419.4843 L1020,419.7595 L1030,418.2754 L1040,419.1229 L1050,418.6579 L1060,418.7152 L1070,419.1357 L1080,419.2266 " fill="#222222" style="stroke: #004080; stroke-width: 3.0;"/><!--class Architect--><polygon fill="#222222" points="989,578,989,578.2102,998.6667,577.5857,1008.3333,578.1933,1018,578.3997,1027.6667,577.2866,1037.3333,577.9223,1047,577.5735,1056.6667,577.6165,1066.3333,577.9318,1076,577.3086,1085.6667,578.5536,1095.3333,577.3697,1105,578,1104.8022,578,1105.4319,588.8227,1104.9142,599.6453,1105.0682,610.468,1104.9681,621.2906,1105,632.1133,1105,632.2918,1095.3333,632.3524,1085.6667,632.699,1076,632.7843,1066.3333,632.7925,1056.6667,632.3679,1047,632.5769,1037.3333,632.8155,1027.6667,631.3921,1018,632.7918,1008.3333,631.8168,998.6667,632.6471,989,632.1133,988.505,632.1133,988.9315,621.2906,989.7416,610.468,988.9513,599.6453,989.1053,588.8227,989,578" style="stroke: #004080; stroke-width: 3.0;"/><text fill="#004080" font-family="courier" font-size="20" font-weight="bold" lengthAdjust="spacingAndGlyphs" textLength="108" x="993" y="604.1074">Architect</text><path d="M990,616.1133 L990,616.3935 L1000.3636,615.5609 L1010.7273,616.371 L1021.0909,616.6462 L1031.4545,615.1621 L1041.8182,616.0097 L1052.1818,615.5446 L1062.5455,615.6019 L1072.9091,616.0224 L1083.2727,615.1915 L1093.6364,616.8515 L1104,616.1133 " fill="#222222" style="stroke: #004080; stroke-width: 3.0;"/><path d="M990,624.1133 L990,624.3935 L1000.3636,623.5609 L1010.7273,624.371 L1021.0909,624.6462 L1031.4545,623.1621 L1041.8182,624.0097 L1052.1818,623.5446 L1062.5455,623.6019 L1072.9091,624.0224 L1083.2727,623.1915 L1093.6364,624.8515 L1104,624.1133 " fill="#222222" style="stroke: #004080; stroke-width: 3.0;"/><!--link Activity to AnalyzeActivity--><path d="M763,145.17 L763.2802,145.17 L762.4476,155.2967 L763.2577,165.4233 L763.5329,175.55 L762.0488,185.6767 L762.8964,195.8033 L763,205.93 " fill="none" style="stroke: #A9A9A9; stroke-width: 2.0;"/><polygon fill="none" points="756,145.1,756.0661,145.1231,757.2696,141.0544,758.8608,137.1213,760.3257,133.144,761.3756,129.0214,763,125.1,762.9755,125.0914,764.2658,129.053,765.6793,133.0578,767.1786,137.0925,768.3825,141.0239,770,145.1,770,145.2845,767.2,144.8899,764.4,145.0341,761.6,145.244,758.8,145.0714,756,145.1" style="stroke: #A9A9A9; stroke-width: 2.0;"/><!--link Activity to Role--><path d="M810.02,125.1 L810.156,125.345 L818.4833,129.4641 L827.6079,135.0196 L836.4729,140.1074 L844.484,143.6569 L853.6269,149.2451 L862.1326,153.6857 L870.8918,158.5829 L879.8273,163.7977 L888.1554,167.9183 L897.6926,174.2168 L905.6578,177.6838 L914.6692,183.0352 L923.8081,188.6164 L932.2045,192.86 L941.0356,197.8867 L949.7022,202.617 L958.5698,207.7095 L967.3405,212.6273 L976.2962,217.8785 L985.0828,222.8251 L993.38,226.89 " fill="none" style="stroke: #A9A9A9; stroke-width: 2.0;"/><polygon fill="#A9A9A9" points="997.99,229.45,998.046,229.4921,996.6947,227.7934,995.6715,226.3418,994.5415,224.8097,993.0602,223.013,992.0652,221.5826,992.0402,221.5755,992.2393,222.6314,992.5639,223.7231,992.9757,224.8399,993.0868,225.8706,993.6192,227.0218,993.6699,227.1992,992.4737,227.1306,991.4254,227.58,990.3952,228.0927,989.26,228.2375,988.18,228.5758,988.182,228.5985,990.1411,228.7401,992.1093,228.9848,994.0731,229.1797,996.0453,229.4696,997.99,229.45" style="stroke: #A9A9A9; stroke-width: 2.0;"/><!--link AnalyzeActivity to AnalyzeRole--><path d="M815.12,273.64 L815.2475,273.8895 L823.7755,277.6997 L833.051,282.9726 L842.083,287.7693 L850.3145,290.9993 L859.6071,296.3056 L868.3023,300.4431 L877.2352,305.0457 L886.3334,309.9717 L894.8621,313.7834 L904.5243,319.8131 L912.7129,322.959 L921.8821,328.0241 L931.171,333.3234 L939.7637,337.2603 L948.764,341.9947 L957.6101,346.4273 L966.6446,351.2288 L975.5882,355.8523 L984.35,360.12 " fill="none" style="stroke: #A9A9A9; stroke-width: 2.0;"/><polygon fill="#A9A9A9" points="988.94,362.46,988.9945,362.5041,987.5941,360.8415,986.5131,359.4371,985.328,357.9487,983.801,356.1837,982.7474,354.8016,982.7228,354.7936,982.9603,355.8343,983.322,356.9152,983.7702,358.024,983.9207,359.0365,984.4881,360.1839,984.5449,360.3595,983.347,360.3322,982.3148,360.8175,981.303,361.3653,980.1734,361.5493,979.1057,361.9246,979.1069,361.9473,981.072,362.0211,983.0427,362.1982,985.0106,362.3254,986.9838,362.5479,988.94,362.46" style="stroke: #A9A9A9; stroke-width: 2.0;"/><!--link AnalyzeActivity to AnalyzeArchitecture--><path d="M752.78,306.18 L752.8721,306.1959 L751.1985,314.2567 L750.0647,322.4106 L748.755,330.5342 L746.8676,338.5581 L745.78,346.72 " fill="none" style="stroke: #A9A9A9; stroke-width: 2.0;"/><polygon fill="none" points="745.95,304.61,746.0112,304.6441,747.8893,300.8389,750.1263,297.2333,752.2464,293.5628,753.9822,289.6784,756.25,286.09,756.2245,286.0857,756.8098,290.2465,757.5239,294.4289,758.3276,298.6262,758.8227,302.7719,759.75,306.99,759.7814,307.1719,756.9543,306.307,754.2188,305.973,751.4945,305.7039,748.7051,305.0578,745.95,304.61" style="stroke: #A9A9A9; stroke-width: 2.0;"/><!--link AnalyzeArchitecture to ModelUseCases--><path d="M662.85,395.41 L662.8601,395.5029 L657.4439,395.8125 L652.0869,396.6666 L646.7106,397.3434 L641.2709,397.4371 L635.919,398.3379 L635.9151,398.3036 L629.952,398.8303 L624.0087,399.53 L618.0792,400.35 L612.1022,400.7555 L606.1917,401.7415 L606.2212,401.9858 L599.7517,402.2384 L593.3685,403.2042 L586.9958,404.2571 L580.5619,404.8036 L574.1601,405.6165 L574.164,405.6466 L567.3896,406.4708 L560.6328,407.4321 L553.8675,408.3273 L547.1184,409.3485 L540.3166,409.9588 L540.3569,410.2542 L533.3247,411.2189 L526.2665,411.993 L519.2464,413.0461 L512.2281,414.1123 L505.1531,414.7642 L505.1067,414.447 L497.9985,416.1154 L490.7376,416.7395 L483.5927,418.1575 L476.3283,418.7579 L469.1619,420.0285 L469.1572,419.9984 L461.9478,421.4979 L454.6278,422.2948 L447.3731,423.5062 L440.1239,424.7525 L432.8352,425.7477 L432.8663,425.93 L425.6008,426.9799 L418.3886,428.3414 L411.0903,429.1988 L403.9203,430.8081 L396.665,431.9175 L396.7086,432.1572 L393.1259,432.7624 L389.5648,433.4866 L385.903,433.6578 L382.3151,434.2344 L378.7924,435.1701 L378.7407,434.8988 L375.2578,435.8171 L371.7165,436.4298 L368.2598,437.4858 L364.6588,437.7848 L361.1436,438.5338 L361.1137,438.3843 L357.6908,439.3281 L354.14,439.6329 L350.6801,440.3921 L347.3093,441.596 L343.78,442.0081 L343.8199,442.1976 L340.4439,443.0444 L336.9437,443.3019 L333.5991,444.2975 L330.2205,445.1323 L326.7631,445.5924 L326.7175,445.3875 L323.4321,446.2896 L320.1318,447.1246 L316.8608,448.0915 L313.4758,448.5457 L310.1545,449.2863 L310.2016,449.4864 L306.8703,449.8073 L303.6299,450.5145 L300.5225,451.7859 L297.1703,452.0185 L294.0156,453.0892 L294.0706,453.3086 L290.9165,453.9606 L287.7437,454.5383 L284.6129,455.2835 L281.5792,456.4161 L278.4081,457.0006 L278.3737,456.8721 L275.4732,458.0586 L272.3387,458.3711 L269.4703,459.6773 L266.452,460.424 L263.3934,461.02 L263.4235,461.1246 L260.5272,461.8655 L257.7385,462.9811 L254.8525,463.7582 L251.9259,464.3938 L249.0331,465.1468 L249.0684,465.2607 L246.287,465.9383 L243.6697,467.1445 L240.8668,467.7529 L238.1402,468.6071 L235.3886,469.3806 L235.3022,469.1244 L232.7576,470.078 L230.3172,471.3402 L227.7294,472.1657 L225.0888,472.8347 L222.5215,473.7208 L222.4719,473.5865 L220.0821,474.5188 L217.6045,475.2132 L215.3685,476.5614 L213.0129,477.586 L210.4933,478.167 L210.5819,478.3835 L208.3847,479.3631 L206.0192,479.9313 L203.8313,480.9337 L201.5259,481.6487 L199.3656,482.7184 L199.4181,482.8332 L197.3781,483.7494 L195.4015,484.8042 L193.2236,485.4195 L191.208,486.3892 L189.1997,487.3748 L189.296,487.5468 L185.8829,489.5199 L182.2086,491.0261 L178.8378,493.0747 L175.4723,495.1329 L172,497 L171.8405,496.7803 L170.3649,498.3814 L168.6126,499.6015 L166.7916,500.7268 L165.1276,502.0686 L163.3631,503.2718 L163.5752,503.5166 L161.6415,504.5792 L160.1935,506.2026 L158.5544,507.6053 L156.8743,508.9607 L155.21,510.3344 L155.2544,510.3786 L153.7134,511.909 L151.9487,513.2168 L150.4866,514.8259 L148.9351,516.346 L147.5481,518.0298 L147.5695,518.0485 L146.145,519.6896 L144.7369,521.3453 L143.153,522.8467 L141.7951,524.5462 L140.385,526.2 L140.343,526.167 L139.2554,528.0556 L137.8714,529.7118 L136.2211,531.1591 L135.034,532.9697 L133.7281,534.6871 L133.519,534.5385 L132.604,536.4905 L131.4913,538.3022 L130.2395,540.0149 L128.6558,541.4918 L127.585,543.3331 L127.7579,543.4455 L126.1838,544.8826 L125.4108,546.8404 L124.1003,548.4488 L123.1235,550.2741 L121.9631,551.9801 L122.0547,552.035 L121.1244,553.786 L119.6515,555.2114 L119.0885,557.1827 L117.9565,558.8128 L116.87,560.47 " fill="none" style="stroke: #A9A9A9; stroke-width: 2.0;"/><polygon fill="#A9A9A9" points="114.37,564.88,114.4118,564.9362,115.8686,563.5942,117.5705,562.5819,119.1925,561.4622,120.5522,559.9895,122.2751,559.0055,122.2681,558.9805,121.1471,559.1724,120.0611,559.4901,118.9996,559.8952,117.854,559.9989,116.8261,560.5248,117.0038,560.5744,116.3198,559.3786,116.1548,558.3275,116.0531,557.2941,115.583,556.1579,115.3067,555.0758,115.3294,555.078,115.1088,557.0356,114.9913,559.0031,114.824,560.9659,114.7517,562.9377,114.37,564.88" style="stroke: #A9A9A9; stroke-width: 2.0;"/><text fill="#A9A9A9" font-family="courier" font-size="20" font-weight="bold" lengthAdjust="spacingAndGlyphs" textLength="24" x="261" y="481.1074">in</text><!--link AnalyzeArchitecture to RequirementsSupplementary--><path d="M662.76,396.25 L662.7743,396.3423 L659.6672,396.5423 L656.6439,397.2835 L653.5933,397.8484 L650.453,397.8339 L647.4369,398.6215 L647.4311,398.5874 L644.1527,398.9875 L640.9036,399.5592 L637.6747,400.2503 L634.3759,400.5301 L631.175,401.3859 L631.2201,401.6278 L627.7071,401.7475 L624.3257,402.5736 L620.9605,403.4857 L617.5018,403.8966 L614.0922,404.5711 L614.0983,404.6008 L610.5322,405.284 L606.9938,406.1025 L603.4421,406.8557 L599.9158,407.7334 L596.3066,408.2052 L596.3717,408.4962 L592.6984,409.3219 L588.9831,409.9599 L585.3292,410.8727 L581.6783,411.7984 L577.936,412.316 L577.8598,412.0047 L574.2403,413.532 L570.3697,414.0342 L566.6901,415.3158 L562.8138,415.7947 L559.0986,416.9315 L559.0907,416.9021 L555.3468,418.2795 L551.4185,418.9699 L547.599,420.0657 L543.7886,421.1955 L539.9123,422.0798 L539.9645,422.2573 L536.0283,423.2199 L532.1814,424.4859 L528.1902,425.2611 L524.4141,426.7682 L520.495,427.7888 L520.5698,428.0206 L516.6496,429.2363 L512.7665,430.5671 L508.711,431.363 L504.7818,432.5509 L500.9647,434.0863 L500.8745,433.8253 L499.0021,434.7372 L497.0279,435.3551 L495.2013,436.3995 L493.1229,436.7156 L491.1941,437.4646 L491.1422,437.3212 L489.2778,438.2671 L487.1913,438.6003 L485.2627,439.3692 L483.4887,440.5645 L481.4395,441.0005 L481.5083,441.1815 L479.6107,442.045 L477.4991,442.3456 L475.6556,443.3513 L473.7536,444.2034 L471.7156,444.6975 L471.6378,444.5025 L469.7641,445.4303 L467.865,446.2942 L466.0159,447.2836 L463.9722,447.7851 L462.0372,448.5592 L462.1167,448.7488 L460.0185,449.1382 L458.0737,449.8935 L456.3528,451.1835 L454.2196,451.4892 L452.4191,452.589 L452.5102,452.7961 L450.5475,453.5134 L448.5538,454.1606 L446.6298,454.966 L444.8667,456.1368 L442.8759,456.7905 L442.82,456.6697 L441.0958,457.9045 L438.9914,458.3182 L437.3192,459.6654 L435.4036,460.487 L433.4225,461.167 L433.4702,461.2649 L431.5619,462.0969 L429.8244,463.2794 L427.9326,464.1453 L425.9763,464.8788 L424.0736,465.7222 L424.128,465.8283 L422.2012,466.6182 L420.5271,467.9004 L418.5672,468.6258 L416.7249,469.5803 L414.8439,470.4595 L414.7152,470.2217 L412.939,471.2857 L411.3179,472.6361 L409.4774,473.5812 L407.5582,474.381 L405.7482,475.3824 L405.6771,475.2581 L403.9105,476.3203 L402.0181,477.1624 L400.4714,478.6097 L398.7536,479.7574 L396.8012,480.4944 L396.9221,480.6947 L395.2041,481.8197 L393.2563,482.5642 L391.5511,483.7104 L389.6853,484.5906 L388.0176,485.799 L388.0856,485.9054 L386.3556,486.9916 L384.7077,488.2061 L382.7995,489.0134 L381.1012,490.1492 L379.4123,491.2997 L379.5229,491.4629 L377.8713,492.6485 L375.9196,493.3912 L374.3166,494.6485 L372.7197,495.9149 L371,497 L370.8388,496.7816 L369.2102,498.516 L367.3019,499.8715 L365.3241,501.1328 L363.5052,502.6093 L361.5846,503.948 L361.789,504.1992 L359.6521,505.3414 L357.9837,507.0591 L356.1308,508.5502 L354.2385,509.9929 L352.3614,511.4542 L352.4029,511.5012 L350.5986,513.0793 L348.5853,514.4209 L346.8548,516.0825 L345.0407,517.6495 L343.3804,519.3905 L343.3999,519.4111 L341.6695,521.0666 L339.9542,522.738 L338.0779,524.2396 L336.4084,525.9593 L334.6912,527.6288 L334.6533,527.5911 L333.2038,529.4918 L331.4869,531.1272 L329.5296,532.5241 L327.9903,534.3357 L326.3438,536.0409 L326.157,535.8651 L324.846,537.8203 L323.3585,539.6094 L321.7466,541.2815 L319.8381,542.6747 L318.388,544.4989 L318.5415,544.6366 L316.6393,545.9536 L315.4484,547.9086 L313.7802,549.4355 L312.4083,551.2282 L310.8734,552.8746 L310.9544,552.9443 L309.6278,554.6445 L307.8215,555.9321 L306.8196,557.9117 L305.3147,559.4586 L303.85,561.04 " fill="none" style="stroke: #A9A9A9; stroke-width: 2.0;"/><polygon fill="#A9A9A9" points="300.56,564.99,300.5909,565.0529,302.2673,563.998,304.1248,563.3117,305.9233,562.5054,307.5279,561.3043,309.4009,560.6497,309.3986,560.6239,308.2614,560.6089,307.1358,560.7239,306.0183,560.9294,304.8729,560.8233,303.7666,561.1536,303.9504,561.17,303.4565,560.008,303.4993,558.894,303.6076,557.7858,303.335,556.6436,303.2627,555.5192,303.2845,555.5255,302.7119,557.4105,302.2388,559.3239,301.7177,561.2236,301.2883,563.1494,300.56,564.99" style="stroke: #A9A9A9; stroke-width: 2.0;"/><text fill="#A9A9A9" font-family="courier" font-size="20" font-weight="bold" lengthAdjust="spacingAndGlyphs" textLength="24" x="436" y="481.1074">in</text><!--link AnalyzeArchitecture to DomainModel--><path d="M663,406.34 L663.0275,406.4293 L660.8619,406.8048 L658.8572,407.7038 L656.8002,408.4323 L654.5708,408.6003 L652.58,409.5442 L652.5693,409.5114 L650.3655,410.0634 L648.2155,410.7811 L646.1028,411.614 L643.8614,412.05 L641.8003,413.0418 L641.8801,413.2746 L639.4934,413.5365 L637.3396,414.4781 L635.2142,415.5025 L632.9235,416.0446 L630.7197,416.8403 L630.73,416.8688 L628.4503,417.6484 L626.2176,418.5577 L623.9622,419.4044 L621.7502,420.3705 L619.3969,420.9472 L619.5039,421.2256 L617.2039,422.1135 L614.8349,422.8219 L612.567,423.7931 L610.3038,424.7766 L607.8905,425.3699 L607.7694,425.0731 L605.6782,426.5983 L603.1883,427.1462 L601.0015,428.4371 L598.5025,428.9629 L596.2594,430.1158 L596.2473,430.0879 L594.0512,431.4335 L591.5719,432.1266 L589.2597,433.2048 L586.9615,434.3153 L584.5621,435.1925 L584.6398,435.3604 L582.2205,436.274 L579.9339,437.4744 L577.4325,438.2106 L575.2515,439.6392 L572.8575,440.6075 L572.9655,440.8259 L570.6144,441.9367 L568.3169,443.156 L565.7704,443.8714 L563.4064,444.9562 L561.2042,446.3682 L561.0749,446.1241 L558.8833,447.5678 L556.546,448.7365 L554.42,450.3041 L551.9333,451.1906 L549.6609,452.482 L549.5855,452.3495 L547.4362,453.8651 L544.9645,454.8142 L542.7221,456.1662 L540.704,457.9122 L538.2864,458.9565 L538.3877,459.1215 L536.2278,460.6032 L533.7528,461.5716 L531.6724,463.1829 L529.5061,464.6542 L527.1394,465.7991 L527.0232,465.6242 L524.9436,467.2072 L522.826,468.733 L520.7832,470.3712 L518.4496,471.5721 L516.2785,473.0172 L516.3989,473.1839 L514.0311,474.338 L511.8958,475.8138 L510.1,477.7594 L507.679,478.84 L505.7625,480.6185 L505.9028,480.796 L503.797,482.2889 L501.6437,483.7218 L499.5976,485.2902 L497.799,487.1719 L495.6501,488.6102 L495.5628,488.5098 L493.8927,490.4867 L491.6289,491.7807 L490.0401,493.8512 L488.0712,495.4845 L486,497 L486.0796,497.0743 L483.3786,499.8367 L480.9624,502.8651 L478.2889,505.6532 L475.5078,508.3407 L472.8161,511.1117 L472.913,511.1812 L470.4876,514.2609 L468.512,517.663 L466.0276,520.7005 L463.7526,523.888 L461.4088,527.0263 L461.1748,526.8908 L459.3191,530.2753 L457.7452,533.823 L455.7725,537.1398 L453.6569,540.3738 L451.7395,543.7227 L451.6107,543.6602 L450.0581,546.9717 L448.2772,550.1727 L447.1237,553.6774 L445.6597,557.0318 L443.77,560.18 " fill="none" style="stroke: #A9A9A9; stroke-width: 2.0;"/><polygon fill="#A9A9A9" points="441.69,564.96,441.7372,565.0117,443.0513,563.5296,444.6423,562.3507,446.143,561.0731,447.3472,559.4707,448.962,558.3179,448.9526,558.2937,447.8566,558.5977,446.8083,559.0234,445.793,559.5335,444.6637,559.7523,443.6941,560.3792,443.866,560.4465,443.0862,559.2491,442.8082,558.248,442.5914,557.2709,442.0184,556.1545,441.6327,555.1113,441.6555,555.1114,441.6335,557.081,441.7152,559.0511,441.7468,561.021,441.8738,562.9914,441.69,564.96" style="stroke: #A9A9A9; stroke-width: 2.0;"/><text fill="#A9A9A9" font-family="courier" font-size="20" font-weight="bold" lengthAdjust="spacingAndGlyphs" textLength="24" x="535" y="481.1074">in</text><!--link AnalyzeArchitecture to ArchitectureDescription--><path d="M754.8,427 L754.8857,427.0372 L755.925,429.9076 L757.4666,432.9961 L758.8446,436.0135 L759.6847,438.7975 L761.2694,441.9047 L761.2379,441.8904 L762.5264,444.9749 L763.9734,448.1313 L765.5307,451.3379 L766.7081,454.3719 L768.4175,457.6475 L768.6393,457.754 L769.6928,460.7101 L771.394,463.9771 L773.1742,467.282 L774.4946,470.3663 L776.0569,473.5666 L776.0838,473.5804 L777.6329,476.6468 L779.3047,479.7762 L780.9173,482.8753 L782.6428,486.0324 L784,489 L784.2608,489.1446 L785.8945,492.0871 L787.36,494.9364 L789.0717,497.9222 L790.795,500.9143 L792.1525,503.7038 L791.8759,503.5418 L794.1453,506.8163 L795.5038,509.5577 L797.5548,512.7043 L798.8926,515.4336 L800.815,518.505 L800.789,518.4891 L802.8768,521.5935 L804.3575,524.3272 L806.1964,527.2796 L808.0655,530.2504 L809.7175,533.0888 L809.8739,533.1875 L811.4905,535.8981 L813.3744,538.7774 L814.8259,541.3837 L816.9224,544.3972 L818.59,547.14 " fill="none" style="stroke: #A9A9A9; stroke-width: 2.0;"/><polygon fill="#A9A9A9" points="821.54,551.72,821.6092,551.7309,821.0985,549.7526,820.9935,547.838,820.7563,545.9026,820.0847,543.8992,820.0145,541.99,819.9892,541.9846,819.6378,543.0663,819.4142,544.1754,819.2793,545.3036,818.8385,546.3661,818.8261,547.5206,818.8649,547.701,817.6759,547.0775,816.6,546.9808,815.538,546.9483,814.3956,546.5419,813.2955,546.3322,813.3079,546.3513,814.9386,547.4009,816.6259,548.5371,818.2858,549.6316,819.9979,550.8059,821.54,551.72" style="stroke: #A9A9A9; stroke-width: 2.0;"/><text fill="#A9A9A9" font-family="courier" font-size="20" font-weight="bold" lengthAdjust="spacingAndGlyphs" textLength="24" x="786" y="481.1074">in</text><!--link AnalyzeArchitecture to ArchitectureDescription--><path d="M789.74,427.25 L789.8065,427.3156 L791.0592,428.5928 L792.7019,430.2543 L794.2176,431.7907 L795.3155,432.9155 L796.9917,434.61 L796.9659,434.5871 L798.2335,436.0401 L799.6312,437.6087 L801.1193,439.2579 L802.2957,440.6298 L803.9088,442.39 L804.1023,442.542 L804.968,443.8465 L806.3987,445.5947 L807.8983,447.3971 L808.9969,448.8845 L810.3064,450.5375 L810.3316,450.5544 L811.4333,452.2221 L812.6497,453.9668 L813.8107,455.6743 L815.0773,457.4528 L816,459 L816.2593,459.1474 L817.4269,461.1983 L818.4273,463.1541 L819.6724,465.2491 L820.9291,467.3507 L821.8222,469.2456 L821.5344,469.1045 L823.1449,471.5245 L823.8077,473.48 L825.191,475.7886 L825.8324,477.7335 L827.0819,479.9766 L827.0539,479.9646 L828.3299,482.3212 L828.9517,484.3986 L829.9595,486.6408 L830.9998,488.8968 L831.8063,491.053 L831.9795,491.1178 L832.6479,493.3088 L833.6123,495.6105 L834.0977,497.7331 L835.2976,500.1228 L836.0225,502.335 L836.2539,502.4112 L836.9572,504.6663 L837.7754,506.9592 L838.0597,509.0764 L838.7354,511.3225 L839.7578,513.6826 L839.4926,513.6054 L840.389,515.93 L840.9866,518.1675 L842.0175,520.5313 L842.3085,522.6796 L843.0394,524.9559 L842.8917,524.9178 L843.7086,527.1931 L843.8944,529.3055 L844.529,531.5337 L845.6026,533.8753 L845.8944,536.015 L846.0831,536.0583 L846.7037,538.229 L846.7372,540.265 L847.506,542.4697 L848.1146,544.6377 L848.35,546.72 " fill="none" style="stroke: #A9A9A9; stroke-width: 2.0;"/><polygon fill="#A9A9A9" points="849.43,551.87,849.4985,551.8847,849.7081,549.9151,850.3193,548.0316,850.7997,546.1201,850.8501,544.1163,851.4958,542.2402,851.4741,542.2261,850.7581,543.1098,850.1516,544.0649,849.621,545.0697,848.8285,545.9034,848.4028,546.9766,848.5037,547.1312,847.3407,546.1821,846.4722,545.6843,845.6397,545.2414,844.5981,544.4784,843.6664,543.8837,843.6848,543.897,844.8105,545.4747,846.0201,547.113,847.1892,548.7221,848.4356,550.387,849.43,551.87" style="stroke: #A9A9A9; stroke-width: 2.0;"/><text fill="#A9A9A9" font-family="courier" font-size="20" font-weight="bold" lengthAdjust="spacingAndGlyphs" textLength="36" x="832" y="481.1074">out</text><!--link AnalyzeArchitecture to AnalysisPackage--><path d="M681.16,427.03 L681.2188,427.1026 L679.1978,428.3812 L677.5214,430.0855 L675.7328,431.6511 L673.5753,432.7609 L671.9284,434.5017 L671.9058,434.4756 L669.9906,435.9314 L668.1894,437.5188 L666.4675,439.1976 L664.4724,440.5612 L662.86,442.3663 L663.0286,442.5455 L660.9264,443.8 L659.3164,445.5778 L657.7664,447.4194 L655.8671,448.8896 L654.1516,450.5552 L654.1734,450.5762 L652.511,452.2343 L650.948,453.9882 L649.3371,455.6959 L647.8176,457.4918 L646,459 L646.2248,459.196 L644.4415,461.2464 L642.5133,463.1704 L640.7972,465.2794 L639.0912,467.3971 L637.0699,469.24 L636.8201,469.0392 L635.574,471.5826 L633.5053,473.4648 L632.062,475.8497 L629.9746,477.7169 L628.4152,480.0084 L628.3908,479.9902 L627.01,482.4357 L625.0597,484.4549 L623.4455,486.7257 L621.8595,489.0175 L620.07,491.1571 L620.2213,491.2635 L618.4683,493.4322 L616.9739,495.7827 L615.0611,497.839 L613.7724,500.3341 L612.0687,502.5375 L612.2716,502.6724 L610.7087,504.9397 L609.2464,507.2739 L607.3162,509.2969 L605.729,511.5481 L604.4458,514.0014 L604.2124,513.8537 L602.9816,516.2672 L601.4879,518.5143 L600.3755,521.0026 L598.6119,523.079 L597.2355,525.4003 L597.105,525.3214 L595.9696,527.6899 L594.2765,529.7212 L592.98,531.9923 L592.0716,534.4981 L590.4721,536.586 L590.6396,536.6832 L589.498,538.9146 L587.8356,540.8438 L586.8255,543.1516 L585.6734,545.3769 L584.19,547.41 " fill="none" style="stroke: #A9A9A9; stroke-width: 2.0;"/><polygon fill="#A9A9A9" points="581.65,551.89,581.6918,551.9462,583.1486,550.6042,584.8505,549.5919,586.4725,548.4722,587.8322,546.9995,589.5551,546.0155,589.5481,545.9905,588.4271,546.1824,587.3411,546.5001,586.2796,546.9052,585.134,547.0089,584.1061,547.5348,584.2838,547.5844,583.5998,546.3886,583.4348,545.3375,583.3331,544.3041,582.863,543.1679,582.5867,542.0858,582.6094,542.088,582.3888,544.0456,582.2713,546.0131,582.104,547.9759,582.0317,549.9477,581.65,551.89" style="stroke: #A9A9A9; stroke-width: 2.0;"/><text fill="#A9A9A9" font-family="courier" font-size="20" font-weight="bold" lengthAdjust="spacingAndGlyphs" textLength="36" x="648" y="481.1074">out</text><!--link AnalyzeArchitecture to AnalysisClasses--><path d="M713.33,427.17 L713.4141,427.2107 L711.655,430.209 L710.3888,433.4459 L708.9622,436.6051 L707.0076,439.5089 L705.7838,442.7663 L705.7512,442.7547 L704.4484,445.9494 L703.3097,449.2025 L702.285,452.4963 L700.8673,455.6501 L700,459 L700.2388,459.0595 L699.1943,461.0758 L698.847,463.2658 L698.5848,465.4769 L697.8276,467.5648 L697.3308,469.7175 L697.3605,469.7234 L696.8841,471.9154 L696.5431,474.134 L696.1367,476.3397 L695.8551,478.57 L695.1669,480.7203 L695.4617,480.7652 L695.125,483.0009 L694.5981,485.2076 L694.3495,487.4568 L694.114,489.7079 L693.4652,491.8961 L693.1467,491.8597 L693.5082,494.1775 L692.8212,496.3757 L692.9313,498.6648 L692.2204,500.8603 L692.1825,503.1325 L692.1522,503.13 L692.3297,505.3961 L691.7982,507.6047 L691.6851,509.8472 L691.6071,512.0926 L691.2758,514.3174 L691.4605,514.327 L691.1593,516.5215 L691.1737,518.7324 L690.6774,520.9168 L690.9429,523.1408 L690.7019,525.3384 L690.9454,525.3449 L690.8425,527.4927 L690.8605,529.6436 L690.3167,531.7797 L690.1847,533.9267 L690.4177,536.0834 L690.1415,536.0824 L690.384,538.1546 L690.3152,540.2257 L690.6979,542.2985 L690.3099,544.3684 L690.38,546.44 " fill="none" style="stroke: #A9A9A9; stroke-width: 2.0;"/><polygon fill="#A9A9A9" points="690.44,551.77,690.5043,551.7977,691.0925,549.9063,692.0579,548.1774,692.9005,546.3956,693.3391,544.4398,694.3369,542.7249,694.3184,542.7068,693.4444,543.4346,692.6639,544.2537,691.9482,545.1363,691.0089,545.8002,690.3829,546.7703,690.5119,546.9023,689.4269,545.8293,688.7186,545.1416,688.0562,544.5009,687.1265,543.5867,686.3374,542.8163,686.3581,542.8258,687.1482,544.6026,688.0325,546.4226,688.8714,548.2217,689.797,550.0606,690.44,551.77" style="stroke: #A9A9A9; stroke-width: 2.0;"/><text fill="#A9A9A9" font-family="courier" font-size="20" font-weight="bold" lengthAdjust="spacingAndGlyphs" textLength="36" x="702" y="481.1074">out</text><!--link AnalyzeArchitecture to Architect--><path d="M815.34,419.45 L815.3797,419.5346 L818.4698,420.7883 L821.7926,422.5377 L825.0395,424.1257 L828.0375,425.1828 L831.3802,426.9748 L831.3649,426.9438 L834.6372,428.4471 L837.9862,430.1067 L841.3887,431.8749 L844.6071,433.2687 L848.0833,435.1869 L848.1964,435.4054 L851.3805,436.7112 L854.8948,438.655 L858.4495,440.6767 L861.7697,442.2454 L865.2132,444.0523 L865.2278,444.0789 L868.6705,445.9369 L872.1795,447.916 L875.6566,449.8367 L879.1947,451.8688 L882.5338,453.5375 L882.684,453.7952 L886.1408,455.8125 L889.5008,457.6637 L893.0026,459.7582 L896.511,461.864 L899.8088,463.6086 L899.6412,463.3354 L901.6759,464.9146 L903.1586,465.5942 L905.061,466.9576 L906.5311,467.6169 L908.3556,468.8533 L908.3392,468.8276 L910.2219,470.2071 L911.7226,470.9865 L913.4488,472.1199 L915.1938,473.2831 L916.8023,474.2319 L916.906,474.3851 L920.0965,476.4588 L923.4642,478.7943 L926.5453,480.7062 L930.0538,483.25 L933.2781,485.3736 L933.423,485.5695 L936.54,487.8577 L939.7289,490.2432 L942.5836,492.1768 L945.6833,494.4417 L949,497 L948.8252,496.7862 L951.1318,498.7369 L953.2415,500.4467 L955.6369,502.5058 L957.5444,503.9685 L959.742,505.7857 L959.6404,505.672 L961.9165,507.7456 L963.7582,509.3334 L965.9089,511.2667 L968.3619,513.538 L970.2766,515.2073 L970.4109,515.3468 L972.55,517.4134 L974.2714,519.0461 L976.516,521.2223 L978.6466,523.28 L980.5116,525.0619 L980.3614,524.9152 L982.4498,527.049 L984.489,529.1347 L986.6249,531.3148 L988.385,533.1281 L990.355,535.1463 L990.5059,535.2859 L992.0463,537.0013 L993.878,538.9862 L996.135,541.3649 L997.6089,543.0187 L999.7146,545.2573 L999.8841,545.4072 L1001.5402,547.3051 L1003.139,549.1523 L1004.8671,551.114 L1006.8944,553.3401 L1008.4984,555.192 L1008.397,555.1059 L1010.3221,557.2734 L1011.5575,558.8551 L1013.5771,561.1028 L1015.1552,562.9756 L1016.6143,564.7473 L1016.6985,564.8163 L1018.1016,566.5551 L1019.8063,568.5411 L1021.2386,570.3038 L1022.557,571.9731 L1023.97,573.72 " fill="none" style="stroke: #A9A9A9; stroke-width: 2.0;"/><polygon fill="#A9A9A9" points="1027.32,577.91,1027.3877,577.9279,1026.6842,575.9701,1026.3777,574.1171,1025.9419,572.23,1025.0808,570.2308,1024.8085,568.3868,1024.7827,568.3839,1024.5437,569.4959,1024.4345,570.622,1024.4156,571.7581,1024.0857,572.8601,1024.1913,574.0098,1024.2114,574.1933,1023.0438,573.6776,1021.9349,573.6974,1020.8332,573.7827,1019.6897,573.4877,1018.5682,573.3927,1018.5786,573.4129,1020.3137,574.2867,1022.0962,575.2525,1023.8558,576.1739,1025.6592,577.18,1027.32,577.91" style="stroke: #A9A9A9; stroke-width: 2.0;"/><!--link Role to AnalyzeRole--><path d="M1028.99,293.24 L1029.2697,293.2581 L1029.1327,303.9223 L1030.6352,314.6927 L1031.6038,325.4284 L1030.8168,336.0505 L1032.46,346.83 " fill="none" style="stroke: #A9A9A9; stroke-width: 2.0;"/><polygon fill="none" points="1022,293.56,1022.0675,293.5788,1023.005,289.4389,1024.3381,285.4093,1025.5423,281.3438,1026.3229,277.1602,1027.69,273.14,1027.6662,273.1299,1029.2151,276.9865,1030.8843,280.8941,1032.6371,284.8371,1034.1019,288.658,1035.97,292.65,1035.982,292.8342,1033.1623,292.6224,1030.3777,292.9482,1027.5974,293.3397,1024.7921,293.3495,1022,293.56" style="stroke: #A9A9A9; stroke-width: 2.0;"/><!--link AnalyzeRole to Architect--><path d="M1038.29,447.19 L1038.5698,447.2055 L1038.2961,457.2024 L1039.6627,467.2904 L1040.4952,477.3488 L1039.571,487.3096 L1040.975,497.3996 L1041.0684,507.4169 L1041.6833,517.4632 L1042.6608,527.5296 L1042.3888,537.5266 L1044.604,547.6617 L1043.5855,557.6173 L1044.719,567.6923 L1045.54,577.75 " fill="none" style="stroke: #A9A9A9; stroke-width: 2.0;"/><polygon fill="none" points="1031.29,447.47,1031.3573,447.4894,1032.3333,443.3617,1033.7039,439.3479,1034.946,435.297,1035.7655,431.124,1037.17,427.12,1037.1461,427.1101,1038.6586,430.9817,1040.2919,434.9031,1042.009,438.8593,1043.437,442.6959,1045.27,446.7,1045.2801,446.8843,1042.4624,446.6442,1039.6744,446.9422,1036.8899,447.3058,1034.0844,447.2875,1031.29,447.47" style="stroke: #A9A9A9; stroke-width: 2.0;"/><!--
@startuml

skinparam backgroundColor #222222

skinparam default {
    FontSize 20
    FontName courier
    FontStyle bold
    FontColor #DarkGrey
}
skinparam handwritten true

skinparam shadowing false
skinparam padding 1
skinparam arrow {
    Thickness 2
    Color #DarkGrey
    FontSize 20
    FontName courier
    FontStyle bold
    FontColor #DarkGrey
}

skinparam title {
    BorderThickness 5
    BorderColor #orange
    FontSize 30
    FontName arial
    FontStyle bold
    FontColor #orange
 }

skinparam header {
    FontSize 15
    FontName courier
    FontStyle italic
    FontColor #orange
}

skinparam footer {
    FontSize 15
    FontName courier
    FontStyle italic
    FontColor #orange
}

skinparam legend {
    BorderThickness 1
    BorderColor #orange
    backgroundColor #222222
    FontSize 15
    FontName courier
    FontStyle italic
    FontColor #orange
}

skinparam package {
    BorderThickness 3
    BorderColor #DarkGrey
    BackgroundColor #222222
    FontSize 20
    FontName courier
    FontStyle bold
}

skinparam class {
    BorderThickness 3
    BorderColor #DarkGrey
    BackgroundColor #222222
    FontSize 20
    FontName courier
    FontStyle bold
    FontColor #DarkGrey
}

skinparam classAttribute {
    FontSize 15
    FontName courier
    FontStyle bold
    FontColor #DarkGrey
}

hide circle
hide stereotype

skinparam class {
    BorderColor<<artifacts>> #750b20
    BorderColor<<activities>> #196719
    BorderColor<<team>> #004080
    FontColor<<artifacts>> #750b20
    FontColor<<activities>> #196719
    FontColor<<team>> #004080
}

skinparam package {
    BorderColor<<artifacts>> #750b20
    BorderColor<<activities>> #196719
    BorderColor<<team>> #004080
    FontColor<<artifacts>> #750b20
    FontColor<<activities>> #196719
    FontColor<<team>> #004080
}

skinparam classAttribute {
    FontColor<<artifacts>> #750b20
    FontColor<<activities>> #196719
    FontColor<<team>> #004080
}

package Activities <<activities>> {
    class Activity <<activities>>
    class AnalyzeActivity as "Analyze\nActivity" <<activities>>
    class AnalyzeArchitecture as "Analyze\nArchitecture" <<activities>>
}

package Arifacts <<artifacts>> {
   class ModelUseCases as "Model\nUse Cases" <<artifacts>>
   class RequirementsSupplementary as "Requirements\nSupplementary" <<artifacts>>
   class DomainModel as "Domain\nModel" <<artifacts>>
   class "Analysis\nPackage\n" as AnalysisPackage <<artifacts>>
   class "Analysis\nClasses\n" as AnalysisClasses <<artifacts>>
   class "Architecture\nDescription\n" as ArchitectureDescription <<artifacts>>
}

package Team <<team>> {
    class Role <<team>>
    class AnalyzeRole as "Analyze\nRole" <<team>>
    class Architect <<team>>
}

Activity <|- - AnalyzeActivity
Activity - -> Role
AnalyzeActivity - -> AnalyzeRole
AnalyzeActivity <|- - AnalyzeArchitecture
AnalyzeArchitecture - -> ModelUseCases :in
AnalyzeArchitecture - -> RequirementsSupplementary :in
AnalyzeArchitecture - -> DomainModel :in
AnalyzeArchitecture - -> ArchitectureDescription :in
AnalyzeArchitecture - -> AnalysisPackage :out
AnalyzeArchitecture - -> AnalysisClasses :out
AnalyzeArchitecture - -> ArchitectureDescription :out
AnalyzeArchitecture - -> Architect
Role <|- - AnalyzeRole
AnalyzeRole <|- - Architect
@enduml

PlantUML version 1.2019.05(Sat Apr 20 18:45:36 CEST 2019)
(GPL source distribution)
Java Runtime: Java(TM) SE Runtime Environment
JVM: Java HotSpot(TM) 64-Bit Server VM
Java Version: 11.0.14+8-LTS-263
Operating System: Windows 10
OS Version: 10.0
Default Encoding: windows-1252
Language: es
Country: ES
--></g></svg>