<?xml version="1.0" encoding="UTF-8" standalone="no"?><svg xmlns="http://www.w3.org/2000/svg" xmlns:xlink="http://www.w3.org/1999/xlink" contentScriptType="application/ecmascript" contentStyleType="text/css" height="686px" preserveAspectRatio="none" style="width:1143px;height:686px;background:#222222;" version="1.1" viewBox="0 0 1143 686" width="1143px" zoomAndPan="magnify"><defs/><g><!--cluster Activities--><polygon fill="#222222" points="667,24,667,24.2102,676.8462,23.5857,686.6923,24.1933,696.5385,24.3997,706.3846,23.2866,716.2308,23.9223,726.0769,23.5735,735.9231,23.6165,745.7692,23.9318,755.6154,23.3086,765.4615,24.5536,775.3077,23.3697,785.1538,23.8022,795,24,795.141,24.0289,796.372,30.8169,797.8223,37.6499,799.1896,44.4658,800.6583,51.3026,802,58.1133,802,58.193,802.6,58.3085,803.2,58.337,803.8,58.3397,804.4,58.1982,805,58.1133,805.4636,58.1133,805.7022,68.2419,804.2788,78.3705,805.6785,88.4991,804.7035,98.6277,805.5338,108.7563,804.505,118.8849,804.9315,129.0135,805.7416,139.1421,804.9513,149.2707,805.1053,159.3993,805.3386,169.5279,805.4162,179.6565,804.9961,189.7851,805.2872,199.9137,804.4276,210.0422,805.2844,220.1708,805.5482,230.2994,805.4445,240.428,805.613,250.5566,804.5169,260.6852,804.3478,270.8138,804.3786,280.9424,804.9411,291.071,804.8035,301.1996,805.6814,311.3282,804.8253,321.4568,804.6569,331.5854,805.2283,341.714,804.3332,351.8426,804.4809,361.9712,805.649,372.0998,805.4357,382.2284,805.7345,392.357,804.6782,402.4856,805.3192,412.6142,805.5904,422.7428,804.5276,432.8714,805,443,805,442.9041,795.1429,443.126,785.2857,443.6518,775.4286,442.9958,765.5714,443.4626,755.7143,442.4462,745.8571,442.3227,736,443.5036,726.1429,442.2831,716.2857,443.509,706.4286,443.2066,696.5714,442.7321,686.7143,442.6462,676.8571,443.4588,667,443,666.7007,443,667.5919,433.0238,666.4473,423.0476,667.6174,413.0714,667.4843,403.0952,667.245,393.119,667.0472,383.1429,667.7266,373.1667,667.6136,363.1905,667.1693,353.2143,667.2682,343.2381,666.8697,333.2619,667.7165,323.2857,667.1549,313.3095,667.1726,303.3333,666.3916,293.3571,666.5948,283.381,667.5307,273.4048,667.4298,263.4286,666.9571,253.4524,666.6778,243.4762,666.7811,233.5,666.3138,223.5238,667.4147,213.5476,667.7396,203.5714,667.5264,193.5952,667.6949,183.619,666.8633,173.6429,667.0872,163.6667,666.6124,153.6905,667.284,143.7143,667.2468,133.7381,667.5524,123.7619,666.7703,113.7857,666.8656,103.8095,667.4435,93.8333,667.5673,83.8571,666.4875,73.881,666.8061,63.9048,667.1493,53.9286,666.3892,43.9524,667.3534,33.9762,667,24" style="stroke: #196719; stroke-width: 3.0;"/><path d="M667,58.1133 L667,58.3935 L676.6429,57.5609 L686.2857,58.371 L695.9286,58.6462 L705.5714,57.1621 L715.2143,58.0097 L724.8571,57.5446 L734.5,57.6019 L744.1429,58.0224 L753.7857,57.1915 L763.4286,58.8515 L773.0714,57.2729 L782.7143,57.8496 L792.3571,58.6892 L802,58.1133 " fill="#222222" style="stroke: #196719; stroke-width: 3.0;"/><text fill="#196719" font-family="courier" font-size="20" font-weight="bold" lengthAdjust="spacingAndGlyphs" textLength="120" x="672" y="47.1074">Activities</text><!--cluster Artifacts--><polygon fill="#222222" points="22,505,22,505.2102,31.6667,504.5857,41.3333,505.1933,51,505.3997,60.6667,504.2866,70.3333,504.9223,80,504.5735,89.6667,504.6165,99.3333,504.9318,109,504.3086,118.6667,505.5536,128.3333,504.3697,138,505,137.9354,504.9867,139.541,511.8516,140.772,518.6396,142.2223,525.4725,143.5896,532.2885,145,539.1133,145,539.2918,155.05,539.3524,165.1,539.699,175.15,539.7843,185.2,539.7925,195.25,539.3679,205.3,539.5769,215.35,539.8155,225.4,538.3921,235.45,539.7918,245.5,538.8168,255.55,539.6471,265.6,538.6183,275.65,539.0448,285.7,539.8549,295.75,539.0645,305.8,539.2186,315.85,539.4519,325.9,539.5295,335.95,539.1094,346,539.4005,356.05,538.5409,366.1,539.3977,376.15,539.6615,386.2,539.5578,396.25,539.7263,406.3,538.6302,416.35,538.4611,426.4,538.4919,436.45,539.0544,446.5,538.9168,456.55,539.7947,466.6,538.9386,476.65,538.7702,486.7,539.3415,496.75,538.4464,506.8,538.5942,516.85,539.7622,526.9,539.5489,536.95,539.8478,547,538.7915,557.05,539.4325,567.1,539.7037,577.15,538.6409,587.2,539.0174,597.25,539.2393,607.3,539.765,617.35,539.1091,627.4,539.5758,637.45,538.5595,647.5,538.436,657.55,539.6169,667.6,538.3963,677.65,539.6222,687.7,539.3199,697.75,538.8454,707.8,538.7595,717.85,539.572,727.9,538.8139,737.95,539.7051,748,538.5605,758.05,539.7307,768.1,539.5976,778.15,539.3582,788.2,539.1605,798.25,539.8399,808.3,539.7269,818.35,539.2825,828.4,539.3815,838.45,538.983,848.5,539.8297,858.55,539.2681,868.6,539.2859,878.65,538.5049,888.7,538.7081,898.75,539.644,908.8,539.543,918.85,539.0703,928.9,538.7911,938.95,538.8944,949,539.1133,948.3138,539.1133,949.4147,549.4892,949.7396,559.8651,949.5264,570.241,949.6949,580.6169,948.8633,590.9928,949.0872,601.3687,948.6124,611.7446,949.284,622.1205,949.2468,632.4964,949.5524,642.8723,948.7703,653.2482,948.8656,663.6241,949,674,949,674.4435,939.0323,674.5673,929.0645,673.4875,919.0968,673.8061,909.129,674.1493,899.1613,673.3892,889.1935,674.3534,879.2258,674.258,869.2581,673.8992,859.2903,674.1422,849.3226,674.7287,839.3548,673.6871,829.3871,674.315,819.4194,674.2856,809.4516,674.1158,799.4839,674.1409,789.5161,674.1135,779.5484,673.3758,769.5806,673.5992,759.6129,673.5385,749.6452,674.0638,739.6774,674.0881,729.7097,674.1617,719.7419,673.709,709.7742,673.9325,699.8065,673.8798,689.8387,674.5769,679.871,674.4266,669.9032,673.5145,659.9355,673.9271,649.9677,673.4228,640,674.2884,630.0323,674.6085,620.0645,674.5446,610.0968,673.5644,600.129,674.464,590.1613,673.2572,580.1935,674.2002,570.2258,673.7007,560.2581,674.0967,550.2903,674.2403,540.3226,674.4721,530.3548,673.2801,520.3871,674.4755,510.4194,674.1782,500.4516,674.3553,490.4839,674.7478,480.5161,674.0055,470.5484,674.1753,460.5806,674.2134,450.6129,674.1972,440.6452,673.9992,430.6774,674.7107,420.7097,673.3903,410.7419,674.5653,400.7742,673.376,390.8065,673.4597,380.8387,674.04,370.871,674.0283,360.9032,673.5072,350.9355,674.4137,340.9677,674.1089,331,674.7267,321.0323,674.6671,311.0645,673.5517,301.0968,673.6021,291.129,673.8708,281.1613,674.3555,271.1935,674.403,261.2258,674.3012,251.2581,673.658,241.2903,674.6364,231.3226,674.6338,221.3548,673.9527,211.3871,673.7609,201.4194,673.5986,191.4516,673.7854,181.4839,674.1374,171.5161,673.9316,161.5484,673.5822,151.5806,674.4874,141.6129,673.5411,131.6452,674.5024,121.6774,674.4272,111.7097,674.3719,101.7419,674.6925,91.7742,673.7541,81.8065,673.6994,71.8387,674.5189,61.871,673.4031,51.9032,673.766,41.9355,674.1155,31.9677,674.0687,22,674,21.6415,674,21.957,664.0588,22.7446,654.1176,22.6485,644.1765,21.4037,634.2353,22.0785,624.2941,21.4861,614.3529,21.9737,604.4118,22.293,594.4706,22.4199,584.5294,21.3353,574.5882,22.4005,564.6471,22.0084,554.7059,21.4447,544.7647,21.5289,534.8235,22.3266,524.8824,22.2499,514.9412,22,505" style="stroke: #750B20; stroke-width: 3.0;"/><path d="M22,539.1133 L22,539.3935 L32.25,538.5609 L42.5,539.371 L52.75,539.6462 L63,538.1621 L73.25,539.0097 L83.5,538.5446 L93.75,538.6019 L104,539.0224 L114.25,538.1915 L124.5,539.8515 L134.75,538.2729 L145,539.1133 " fill="#222222" style="stroke: #750B20; stroke-width: 3.0;"/><text fill="#750B20" font-family="courier" font-size="20" font-weight="bold" lengthAdjust="spacingAndGlyphs" textLength="108" x="27" y="528.1074">Artifacts</text><!--cluster Team--><polygon fill="#222222" points="973,172,973,172.2102,982.3333,171.5857,991.6667,172.1933,1001,172.3997,1010.3333,171.2866,1019.6667,171.9223,1029,172,1028.8607,171.9714,1030.2748,178.797,1031.7777,185.6407,1032.9742,192.4216,1034.7808,199.3277,1036,206.1133,1036,205.483,1045.4444,205.9155,1054.8889,206.5452,1064.3333,206.0275,1073.7778,206.1815,1083.2222,206.0813,1092.6667,206.2918,1102.1111,206.3524,1111.5556,206.699,1121,206.1133,1121.6711,206.1133,1121.6793,216.2219,1121.2546,226.3305,1121.4636,236.4391,1121.7022,246.5477,1120.2788,256.6563,1121.6785,266.7648,1120.7035,276.8734,1121.5338,286.982,1120.505,297.0906,1120.9315,307.1992,1121.7416,317.3078,1120.9513,327.4164,1121.1053,337.525,1121.3386,347.6336,1121.4162,357.7422,1120.9961,367.8508,1121.2872,377.9594,1120.4276,388.068,1121.2844,398.1766,1121.5482,408.2852,1121.4445,418.3938,1121.613,428.5023,1120.5169,438.6109,1120.3478,448.7195,1120.3786,458.8281,1120.9411,468.9367,1120.8035,479.0453,1121.6814,489.1539,1120.8253,499.2625,1120.6569,509.3711,1121.2283,519.4797,1120.3332,529.5883,1120.4809,539.6969,1121.649,549.8055,1121.4357,559.9141,1121.7345,570.0227,1120.6782,580.1313,1121.3192,590.2398,1121.5904,600.3484,1120.5276,610.457,1120.9041,620.5656,1121.126,630.6742,1121.6518,640.7828,1120.9958,650.8914,1121,661,1121,661.4626,1111.1333,660.4462,1101.2667,660.3227,1091.4,661.5036,1081.5333,660.2831,1071.6667,661.509,1061.8,661.2066,1051.9333,660.7321,1042.0667,660.6462,1032.2,661.4588,1022.3333,660.7007,1012.4667,661.5919,1002.6,660.4473,992.7333,661.6174,982.8667,661.4843,973,661,973.245,661,973.0472,651.0204,973.7266,641.0408,973.6136,631.0612,973.1693,621.0816,973.2682,611.102,972.8697,601.1224,973.7165,591.1429,973.1549,581.1633,973.1726,571.1837,972.3916,561.2041,972.5948,551.2245,973.5307,541.2449,973.4298,531.2653,972.9571,521.2857,972.6778,511.3061,972.7811,501.3265,972.3138,491.3469,973.4147,481.3673,973.7396,471.3878,973.5264,461.4082,973.6949,451.4286,972.8633,441.449,973.0872,431.4694,972.6124,421.4898,973.284,411.5102,973.2468,401.5306,973.5524,391.551,972.7703,381.5714,972.8656,371.5918,973.4435,361.6122,973.5673,351.6327,972.4875,341.6531,972.8061,331.6735,973.1493,321.6939,972.3892,311.7143,973.3534,301.7347,973.258,291.7551,972.8992,281.7755,973.1422,271.7959,973.7287,261.8163,972.6871,251.8367,973.315,241.8571,973.2856,231.8776,973.1158,221.898,973.1409,211.9184,973.1135,201.9388,972.3758,191.9592,972.5992,181.9796,973,172" style="stroke: #004080; stroke-width: 3.0;"/><path d="M973,206.1133 L973,206.3935 L983.5,205.5609 L994,206.371 L1004.5,206.6462 L1015,205.1621 L1025.5,206.0097 L1036,206.1133 " fill="#222222" style="stroke: #004080; stroke-width: 3.0;"/><text fill="#004080" font-family="courier" font-size="20" font-weight="bold" lengthAdjust="spacingAndGlyphs" textLength="48" x="978" y="195.1074">Team</text><!--class Activity--><polygon fill="#222222" points="684,71,684,71.2102,694.4,70.5857,704.8,71.1933,715.2,71.3997,725.6,70.2866,736,70.9223,746.4,70.5735,756.8,70.6165,767.2,70.9318,777.6,70.3086,788,71,788.5536,71,787.3697,81.8227,787.8022,92.6453,788.4319,103.468,787.9142,114.2906,788,125.1133,788,125.1815,777.6,125.0813,767.2,125.2918,756.8,125.3524,746.4,125.699,736,125.7843,725.6,125.7925,715.2,125.3679,704.8,125.5769,694.4,125.8155,684,125.1133,683.2788,125.1133,684.6785,114.2906,683.7035,103.468,684.5338,92.6453,683.505,81.8227,684,71" style="stroke: #196719; stroke-width: 3.0;"/><text fill="#196719" font-family="courier" font-size="20" font-weight="bold" lengthAdjust="spacingAndGlyphs" textLength="96" x="688" y="97.1074">Activity</text><path d="M685,109.1133 L685,109.3935 L695.2,108.5609 L705.4,109.371 L715.6,109.6462 L725.8,108.1621 L736,109.0097 L746.2,108.5446 L756.4,108.6019 L766.6,109.0224 L776.8,108.1915 L787,109.1133 " fill="#222222" style="stroke: #196719; stroke-width: 3.0;"/><path d="M685,117.1133 L685,117.3935 L695.2,116.5609 L705.4,117.371 L715.6,117.6462 L725.8,116.1621 L736,117.0097 L746.2,116.5446 L756.4,116.6019 L766.6,117.0224 L776.8,116.1915 L787,117.1133 " fill="#222222" style="stroke: #196719; stroke-width: 3.0;"/><!--class AnalysisActivity--><polygon fill="#222222" points="684,206,684,206.2102,694.4,205.5857,704.8,206.1933,715.2,206.3997,725.6,205.2866,736,205.9223,746.4,205.5735,756.8,205.6165,767.2,205.9318,777.6,205.3086,788,206,788.5536,206,787.3697,216.0283,787.8022,226.0566,788.4319,236.085,787.9142,246.1133,788.0682,256.1416,787.9681,266.1699,788.1785,276.1982,788,286.2266,788,286.4657,777.6,286.8123,767.2,286.8976,756.8,286.9058,746.4,286.4812,736,286.6901,725.6,286.9288,715.2,285.5054,704.8,286.9051,694.4,285.9301,684,286.2266,684.5338,286.2266,683.505,276.1982,683.9315,266.1699,684.7416,256.1416,683.9513,246.1133,684.1053,236.085,684.3386,226.0566,684.4162,216.0283,684,206" style="stroke: #196719; stroke-width: 3.0;"/><text fill="#196719" font-family="courier" font-size="20" font-weight="bold" lengthAdjust="spacingAndGlyphs" textLength="96" x="688" y="232.1074">Analysis</text><text fill="#196719" font-family="courier" font-size="20" font-weight="bold" lengthAdjust="spacingAndGlyphs" textLength="96" x="688" y="258.2207">Activity</text><path d="M685,270.2266 L685,270.5068 L695.2,269.6741 L705.4,270.4843 L715.6,270.7595 L725.8,269.2754 L736,270.1229 L746.2,269.6579 L756.4,269.7152 L766.6,270.1357 L776.8,269.3047 L787,270.2266 " fill="#222222" style="stroke: #196719; stroke-width: 3.0;"/><path d="M685,278.2266 L685,278.5068 L695.2,277.6741 L705.4,278.4843 L715.6,278.7595 L725.8,277.2754 L736,278.1229 L746.2,277.6579 L756.4,277.7152 L766.6,278.1357 L776.8,277.3047 L787,278.2266 " fill="#222222" style="stroke: #196719; stroke-width: 3.0;"/><!--class AnalyzeUseCase--><polygon fill="#222222" points="684,347,684,347.2102,694.4,346.5857,704.8,347.1933,715.2,347.3997,725.6,346.2866,736,346.9223,746.4,346.5735,756.8,346.6165,767.2,346.9318,777.6,346.3086,788,347,788.5536,347,787.3697,357.0283,787.8022,367.0566,788.4319,377.085,787.9142,387.1133,788.0682,397.1416,787.9681,407.1699,788.1785,417.1982,788,427.2266,788,427.4657,777.6,427.8123,767.2,427.8976,756.8,427.9058,746.4,427.4812,736,427.6901,725.6,427.9288,715.2,426.5054,704.8,427.9051,694.4,426.9301,684,427.2266,684.5338,427.2266,683.505,417.1982,683.9315,407.1699,684.7416,397.1416,683.9513,387.1133,684.1053,377.085,684.3386,367.0566,684.4162,357.0283,684,347" style="stroke: #196719; stroke-width: 3.0;"/><text fill="#196719" font-family="courier" font-size="20" font-weight="bold" lengthAdjust="spacingAndGlyphs" textLength="84" x="694" y="373.1074">Analyze</text><text fill="#196719" font-family="courier" font-size="20" font-weight="bold" lengthAdjust="spacingAndGlyphs" textLength="96" x="688" y="399.2207">Use Case</text><path d="M685,411.2266 L685,411.5068 L695.2,410.6741 L705.4,411.4843 L715.6,411.7595 L725.8,410.2754 L736,411.1229 L746.2,410.6579 L756.4,410.7152 L766.6,411.1357 L776.8,410.3047 L787,411.2266 " fill="#222222" style="stroke: #196719; stroke-width: 3.0;"/><path d="M685,419.2266 L685,419.5068 L695.2,418.6741 L705.4,419.4843 L715.6,419.7595 L725.8,418.2754 L736,419.1229 L746.2,418.6579 L756.4,418.7152 L766.6,419.1357 L776.8,418.3047 L787,419.2266 " fill="#222222" style="stroke: #196719; stroke-width: 3.0;"/><!--class UseCaseModel--><polygon fill="#222222" points="38,565,38,565.2102,48.4,564.5857,58.8,565.1933,69.2,565.3997,79.6,564.2866,90,564.9223,100.4,564.5735,110.8,564.6165,121.2,564.9318,131.6,564.3086,142,565,142.5536,565,141.3697,575.0283,141.8022,585.0566,142.4319,595.085,141.9142,605.1133,142.0682,615.1416,141.9681,625.1699,142.1785,635.1982,142,645.2266,142,645.4657,131.6,645.8123,121.2,645.8976,110.8,645.9058,100.4,645.4812,90,645.6901,79.6,645.9288,69.2,644.5054,58.8,645.9051,48.4,644.9301,38,645.2266,38.5338,645.2266,37.505,635.1982,37.9315,625.1699,38.7416,615.1416,37.9513,605.1133,38.1053,595.085,38.3386,585.0566,38.4162,575.0283,38,565" style="stroke: #750B20; stroke-width: 3.0;"/><text fill="#750B20" font-family="courier" font-size="20" font-weight="bold" lengthAdjust="spacingAndGlyphs" textLength="96" x="42" y="591.1074">Use Case</text><text fill="#750B20" font-family="courier" font-size="20" font-weight="bold" lengthAdjust="spacingAndGlyphs" textLength="60" x="60" y="617.2207">Model</text><path d="M39,629.2266 L39,629.5068 L49.2,628.6741 L59.4,629.4843 L69.6,629.7595 L79.8,628.2754 L90,629.1229 L100.2,628.6579 L110.4,628.7152 L120.6,629.1357 L130.8,628.3047 L141,629.2266 " fill="#222222" style="stroke: #750B20; stroke-width: 3.0;"/><path d="M39,637.2266 L39,637.5068 L49.2,636.6741 L59.4,637.4843 L69.6,637.7595 L79.8,636.2754 L90,637.1229 L100.2,636.6579 L110.4,636.7152 L120.6,637.1357 L130.8,636.3047 L141,637.2266 " fill="#222222" style="stroke: #750B20; stroke-width: 3.0;"/><!--class SupplementaryRequirements--><polygon fill="#222222" points="177,565,177,565.2102,187.25,564.5857,197.5,565.1933,207.75,565.3997,218,564.2866,228.25,564.9223,238.5,564.5735,248.75,564.6165,259,564.9318,269.25,564.3086,279.5,565.5536,289.75,564.3697,300,564.8022,310.25,565.4319,320.5,564.9142,330.75,565.0682,341,565,340.9681,565,341.1785,575.0283,341.2391,585.0566,341.5857,595.085,341.6711,605.1133,341.6793,615.1416,341.2546,625.1699,341.4636,635.1982,341,645.2266,341,645.9288,330.75,644.5054,320.5,645.9051,310.25,644.9301,300,645.7604,289.75,644.7315,279.5,645.1581,269.25,645.9682,259,645.1778,248.75,645.3319,238.5,645.5652,228.25,645.6428,218,645.2227,207.75,645.5138,197.5,644.6541,187.25,645.5109,177,645.2266,177.5482,645.2266,177.4445,635.1982,177.613,625.1699,176.5169,615.1416,176.3478,605.1133,176.3786,595.085,176.9411,585.0566,176.8035,575.0283,177,565" style="stroke: #750B20; stroke-width: 3.0;"/><text fill="#750B20" font-family="courier" font-size="20" font-weight="bold" lengthAdjust="spacingAndGlyphs" textLength="156" x="181" y="591.1074">Supplementary</text><text fill="#750B20" font-family="courier" font-size="20" font-weight="bold" lengthAdjust="spacingAndGlyphs" textLength="144" x="187" y="617.2207">Requirements</text><path d="M178,629.2266 L178,629.5068 L188.125,628.6741 L198.25,629.4843 L208.375,629.7595 L218.5,628.2754 L228.625,629.1229 L238.75,628.6579 L248.875,628.7152 L259,629.1357 L269.125,628.3047 L279.25,629.9648 L289.375,628.3862 L299.5,628.9629 L309.625,629.8025 L319.75,629.1122 L329.875,629.3175 L340,629.2266 " fill="#222222" style="stroke: #750B20; stroke-width: 3.0;"/><path d="M178,637.2266 L178,637.5068 L188.125,636.6741 L198.25,637.4843 L208.375,637.7595 L218.5,636.2754 L228.625,637.1229 L238.75,636.6579 L248.875,636.7152 L259,637.1357 L269.125,636.3047 L279.25,637.9648 L289.375,636.3862 L299.5,636.9629 L309.625,637.8025 L319.75,637.1122 L329.875,637.3175 L340,637.2266 " fill="#222222" style="stroke: #750B20; stroke-width: 3.0;"/><!--class DomainModel--><polygon fill="#222222" points="376,565,376,565.2102,386,564.5857,396,565.1933,406,565.3997,416,564.2866,426,564.9223,436,564.5735,446,564.6165,456,565,455.9318,565,455.3086,575.0283,456.5536,585.0566,455.3697,595.085,455.8022,605.1133,456.4319,615.1416,455.9142,625.1699,456.0682,635.1982,456,645.2266,456,645.1946,446,645.4051,436,645.4657,426,645.8123,416,645.8976,406,645.9058,396,645.4812,386,645.6901,376,645.2266,376.7022,645.2266,375.2788,635.1982,376.6785,625.1699,375.7035,615.1416,376.5338,605.1133,375.505,595.085,375.9315,585.0566,376.7416,575.0283,376,565" style="stroke: #750B20; stroke-width: 3.0;"/><text fill="#750B20" font-family="courier" font-size="20" font-weight="bold" lengthAdjust="spacingAndGlyphs" textLength="72" x="380" y="591.1074">Domain</text><text fill="#750B20" font-family="courier" font-size="20" font-weight="bold" lengthAdjust="spacingAndGlyphs" textLength="60" x="386" y="617.2207">Model</text><path d="M377,629.2266 L377,629.5068 L386.75,628.6741 L396.5,629.4843 L406.25,629.7595 L416,628.2754 L425.75,629.1229 L435.5,628.6579 L445.25,628.7152 L455,629.2266 " fill="#222222" style="stroke: #750B20; stroke-width: 3.0;"/><path d="M377,637.2266 L377,637.5068 L386.75,636.6741 L396.5,637.4843 L406.25,637.7595 L416,636.2754 L425.75,637.1229 L435.5,636.6579 L445.25,636.7152 L455,637.2266 " fill="#222222" style="stroke: #750B20; stroke-width: 3.0;"/><!--class ArchitectureDescription--><polygon fill="#222222" points="491,552,491,552.2102,501.1333,551.5857,511.2667,552.1933,521.4,552.3997,531.5333,551.2866,541.6667,551.9223,551.8,551.5735,561.9333,551.6165,572.0667,551.9318,582.2,551.3086,592.3333,552.5536,602.4667,551.3697,612.6,551.8022,622.7333,552.4319,632.8667,551.9142,643,552,643.0682,552,642.9681,561.6673,643.1785,571.3345,643.2391,581.0018,643.5857,590.669,643.6711,600.3363,643.6793,610.0036,643.2546,619.6708,643.4636,629.3381,643.7022,639.0053,642.2788,648.6726,643,658.3398,643,659.0184,632.8667,658.0433,622.7333,658.8737,612.6,657.8448,602.4667,658.2713,592.3333,659.0814,582.2,658.2911,572.0667,658.4451,561.9333,658.6785,551.8,658.7561,541.6667,658.3359,531.5333,658.6271,521.4,657.7674,511.2667,658.6242,501.1333,658.888,491,658.3398,491.4445,658.3398,491.613,648.6726,490.5169,639.0053,490.3478,629.3381,490.3786,619.6708,490.9411,610.0036,490.8035,600.3363,491.6814,590.669,490.8253,581.0018,490.6569,571.3345,491.2283,561.6673,491,552" style="stroke: #750B20; stroke-width: 3.0;"/><text fill="#750B20" font-family="courier" font-size="20" font-weight="bold" lengthAdjust="spacingAndGlyphs" textLength="144" x="495" y="578.1074">Architecture</text><text fill="#750B20" font-family="courier" font-size="20" font-weight="bold" lengthAdjust="spacingAndGlyphs" textLength="132" x="501" y="604.2207">Description</text><text fill="#750B20" font-family="courier" font-size="20" font-weight="bold" lengthAdjust="spacingAndGlyphs" textLength="0" x="573" y="630.334"/><path d="M492,642.3398 L492,642.6201 L502,641.7874 L512,642.5976 L522,642.8727 L532,641.3887 L542,642.2362 L552,641.7712 L562,641.8285 L572,642.249 L582,641.418 L592,643.078 L602,641.4995 L612,642.0762 L622,642.9158 L632,642.2255 L642,642.3398 " fill="#222222" style="stroke: #750B20; stroke-width: 3.0;"/><path d="M492,650.3398 L492,650.6201 L502,649.7874 L512,650.5976 L522,650.8727 L532,649.3887 L542,650.2362 L552,649.7712 L562,649.8285 L572,650.249 L582,649.418 L592,651.078 L602,649.4995 L612,650.0762 L622,650.9158 L632,650.2255 L642,650.3398 " fill="#222222" style="stroke: #750B20; stroke-width: 3.0;"/><!--class CompletionUseCases--><polygon fill="#222222" points="678,565,678,565.2102,687.6667,564.5857,697.3333,565.1933,707,565.3997,716.6667,564.2866,726.3333,564.9223,736,564.5735,745.6667,564.6165,755.3333,564.9318,765,564.3086,774.6667,565.5536,784.3333,564.3697,794,565,793.8022,565,794.4319,575.0283,793.9142,585.0566,794.0682,595.085,793.9681,605.1133,794.1785,615.1416,794.2391,625.1699,794.5857,635.1982,794,645.2266,794,645.8976,784.3333,645.9058,774.6667,645.4812,765,645.6901,755.3333,645.9288,745.6667,644.5054,736,645.9051,726.3333,644.9301,716.6667,645.7604,707,644.7315,697.3333,645.1581,687.6667,645.9682,678,645.2266,677.9513,645.2266,678.1053,635.1982,678.3386,625.1699,678.4162,615.1416,677.9961,605.1133,678.2872,595.085,677.4276,585.0566,678.2844,575.0283,678,565" style="stroke: #750B20; stroke-width: 3.0;"/><text fill="#750B20" font-family="courier" font-size="20" font-weight="bold" lengthAdjust="spacingAndGlyphs" textLength="108" x="682" y="591.1074">Use Cases</text><text fill="#750B20" font-family="courier" font-size="20" font-weight="bold" lengthAdjust="spacingAndGlyphs" textLength="0" x="742" y="617.2207"/><path d="M679,629.2266 L679,629.5068 L689.3636,628.6741 L699.7273,629.4843 L710.0909,629.7595 L720.4545,628.2754 L730.8182,629.1229 L741.1818,628.6579 L751.5455,628.7152 L761.9091,629.1357 L772.2727,628.3047 L782.6364,629.9648 L793,629.2266 " fill="#222222" style="stroke: #750B20; stroke-width: 3.0;"/><path d="M679,637.2266 L679,637.5068 L689.3636,636.6741 L699.7273,637.4843 L710.0909,637.7595 L720.4545,636.2754 L730.8182,637.1229 L741.1818,636.6579 L751.5455,636.7152 L761.9091,637.1357 L772.2727,636.3047 L782.6364,637.9648 L793,637.2266 " fill="#222222" style="stroke: #750B20; stroke-width: 3.0;"/><!--class AnalysisClass--><polygon fill="#222222" points="829,565,829,565.2102,839.4,564.5857,849.8,565.1933,860.2,565.3997,870.6,564.2866,881,564.9223,891.4,564.5735,901.8,564.6165,912.2,564.9318,922.6,564.3086,933,565,933.5536,565,932.3697,575.0283,932.8022,585.0566,933.4319,595.085,932.9142,605.1133,933.0682,615.1416,932.9681,625.1699,933.1785,635.1982,933,645.2266,933,645.4657,922.6,645.8123,912.2,645.8976,901.8,645.9058,891.4,645.4812,881,645.6901,870.6,645.9288,860.2,644.5054,849.8,645.9051,839.4,644.9301,829,645.2266,829.5338,645.2266,828.505,635.1982,828.9315,625.1699,829.7416,615.1416,828.9513,605.1133,829.1053,595.085,829.3386,585.0566,829.4162,575.0283,829,565" style="stroke: #750B20; stroke-width: 3.0;"/><text fill="#750B20" font-family="courier" font-size="20" font-weight="bold" lengthAdjust="spacingAndGlyphs" textLength="96" x="833" y="591.1074">Analysis</text><text fill="#750B20" font-family="courier" font-size="20" font-weight="bold" lengthAdjust="spacingAndGlyphs" textLength="60" x="851" y="617.2207">Class</text><path d="M830,629.2266 L830,629.5068 L840.2,628.6741 L850.4,629.4843 L860.6,629.7595 L870.8,628.2754 L881,629.1229 L891.2,628.6579 L901.4,628.7152 L911.6,629.1357 L921.8,628.3047 L932,629.2266 " fill="#222222" style="stroke: #750B20; stroke-width: 3.0;"/><path d="M830,637.2266 L830,637.5068 L840.2,636.6741 L850.4,637.4843 L860.6,637.7595 L870.8,636.2754 L881,637.1229 L891.2,636.6579 L901.4,636.7152 L911.6,637.1357 L921.8,636.3047 L932,637.2266 " fill="#222222" style="stroke: #750B20; stroke-width: 3.0;"/><!--class Role--><polygon fill="#222222" points="1001,219,1001,219.2102,1010.3333,218.5857,1019.6667,219.1933,1029,219.3997,1038.3333,218.2866,1047.6667,218.9223,1057,219,1056.5735,219,1056.6165,229.8227,1056.9318,240.6453,1056.3086,251.468,1057.5536,262.2906,1057,273.1133,1057,272.483,1047.6667,272.9155,1038.3333,273.5452,1029,273.0275,1019.6667,273.1815,1010.3333,273.0813,1001,273.1133,1001.1785,273.1133,1001.2391,262.2906,1001.5857,251.468,1001.6711,240.6453,1001.6793,229.8227,1001,219" style="stroke: #004080; stroke-width: 3.0;"/><text fill="#004080" font-family="courier" font-size="20" font-weight="bold" lengthAdjust="spacingAndGlyphs" textLength="48" x="1005" y="245.1074">Role</text><path d="M1002,257.1133 L1002,257.3935 L1012.8,256.5609 L1023.6,257.371 L1034.4,257.6462 L1045.2,256.1621 L1056,257.1133 " fill="#222222" style="stroke: #004080; stroke-width: 3.0;"/><path d="M1002,265.1133 L1002,265.3935 L1012.8,264.5609 L1023.6,265.371 L1034.4,265.6462 L1045.2,264.1621 L1056,265.1133 " fill="#222222" style="stroke: #004080; stroke-width: 3.0;"/><!--class AnalysisRole--><polygon fill="#222222" points="989,347,989,347.2102,999.4,346.5857,1009.8,347.1933,1020.2,347.3997,1030.6,346.2866,1041,346.9223,1051.4,346.5735,1061.8,346.6165,1072.2,346.9318,1082.6,346.3086,1093,347,1093.5536,347,1092.3697,357.0283,1092.8022,367.0566,1093.4319,377.085,1092.9142,387.1133,1093.0682,397.1416,1092.9681,407.1699,1093.1785,417.1982,1093,427.2266,1093,427.4657,1082.6,427.8123,1072.2,427.8976,1061.8,427.9058,1051.4,427.4812,1041,427.6901,1030.6,427.9288,1020.2,426.5054,1009.8,427.9051,999.4,426.9301,989,427.2266,989.5338,427.2266,988.505,417.1982,988.9315,407.1699,989.7416,397.1416,988.9513,387.1133,989.1053,377.085,989.3386,367.0566,989.4162,357.0283,989,347" style="stroke: #004080; stroke-width: 3.0;"/><text fill="#004080" font-family="courier" font-size="20" font-weight="bold" lengthAdjust="spacingAndGlyphs" textLength="96" x="993" y="373.1074">Analysis</text><text fill="#004080" font-family="courier" font-size="20" font-weight="bold" lengthAdjust="spacingAndGlyphs" textLength="48" x="1017" y="399.2207">Role</text><path d="M990,411.2266 L990,411.5068 L1000.2,410.6741 L1010.4,411.4843 L1020.6,411.7595 L1030.8,410.2754 L1041,411.1229 L1051.2,410.6579 L1061.4,410.7152 L1071.6,411.1357 L1081.8,410.3047 L1092,411.2266 " fill="#222222" style="stroke: #004080; stroke-width: 3.0;"/><path d="M990,419.2266 L990,419.5068 L1000.2,418.6741 L1010.4,419.4843 L1020.6,419.7595 L1030.8,418.2754 L1041,419.1229 L1051.2,418.6579 L1061.4,418.7152 L1071.6,419.1357 L1081.8,418.3047 L1092,419.2266 " fill="#222222" style="stroke: #004080; stroke-width: 3.0;"/><!--class EngineerUseCases--><polygon fill="#222222" points="989,565,989,565.2102,998.6667,564.5857,1008.3333,565.1933,1018,565.3997,1027.6667,564.2866,1037.3333,564.9223,1047,564.5735,1056.6667,564.6165,1066.3333,564.9318,1076,564.3086,1085.6667,565.5536,1095.3333,564.3697,1105,565,1104.8022,565,1105.4319,575.0283,1104.9142,585.0566,1105.0682,595.085,1104.9681,605.1133,1105.1785,615.1416,1105.2391,625.1699,1105.5857,635.1982,1105,645.2266,1105,645.8976,1095.3333,645.9058,1085.6667,645.4812,1076,645.6901,1066.3333,645.9288,1056.6667,644.5054,1047,645.9051,1037.3333,644.9301,1027.6667,645.7604,1018,644.7315,1008.3333,645.1581,998.6667,645.9682,989,645.2266,988.9513,645.2266,989.1053,635.1982,989.3386,625.1699,989.4162,615.1416,988.9961,605.1133,989.2872,595.085,988.4276,585.0566,989.2844,575.0283,989,565" style="stroke: #004080; stroke-width: 3.0;"/><text fill="#004080" font-family="courier" font-size="20" font-weight="bold" lengthAdjust="spacingAndGlyphs" textLength="108" x="993" y="591.1074">Use cases</text><text fill="#004080" font-family="courier" font-size="20" font-weight="bold" lengthAdjust="spacingAndGlyphs" textLength="96" x="999" y="617.2207">Engineer</text><path d="M990,629.2266 L990,629.5068 L1000.3636,628.6741 L1010.7273,629.4843 L1021.0909,629.7595 L1031.4545,628.2754 L1041.8182,629.1229 L1052.1818,628.6579 L1062.5455,628.7152 L1072.9091,629.1357 L1083.2727,628.3047 L1093.6364,629.9648 L1104,629.2266 " fill="#222222" style="stroke: #004080; stroke-width: 3.0;"/><path d="M990,637.2266 L990,637.5068 L1000.3636,636.6741 L1010.7273,637.4843 L1021.0909,637.7595 L1031.4545,636.2754 L1041.8182,637.1229 L1052.1818,636.6579 L1062.5455,636.7152 L1072.9091,637.1357 L1083.2727,636.3047 L1093.6364,637.9648 L1104,637.2266 " fill="#222222" style="stroke: #004080; stroke-width: 3.0;"/><!--link Activity to AnalysisActivity--><path d="M736,145.174 L736.2802,145.174 L735.4476,155.3003 L736.2577,165.4267 L736.5329,175.553 L735.0488,185.6793 L735.8964,195.8057 L736,205.932 " fill="none" style="stroke: #A9A9A9; stroke-width: 2.0;"/><polygon fill="none" points="729,145.102,729.0661,145.1251,730.2696,141.0564,731.8608,137.1233,733.3257,133.146,734.3756,129.0234,736,125.102,735.9755,125.0934,737.2658,129.055,738.6793,133.0598,740.1786,137.0945,741.3825,141.0259,743,145.102,743,145.2865,740.2,144.8919,737.4,145.0361,734.6,145.246,731.8,145.0734,729,145.102" style="stroke: #A9A9A9; stroke-width: 2.0;"/><!--link Activity to Role--><path d="M788.045,124.934 L788.17,125.1848 L796.8469,128.9483 L806.2565,134.1821 L815.4275,138.9371 L823.8138,142.1174 L833.2401,147.3847 L842.0809,151.4772 L851.1548,156.0372 L860.3906,160.9222 L869.0682,164.6872 L878.8568,170.6817 L887.2011,173.7775 L896.5065,178.8023 L905.9293,184.0625 L914.6696,187.9534 L923.8095,192.6459 L932.7982,197.035 L941.9716,201.7949 L951.0559,206.3759 L960.3102,211.2982 L969.4093,215.9087 L978.4624,220.4272 L987.2582,224.4292 L996.155,228.634 " fill="none" style="stroke: #A9A9A9; stroke-width: 2.0;"/><polygon fill="#A9A9A9" points="1000.899,230.997,1000.953,231.0416,999.5382,229.3903,998.44,228.0005,997.2387,226.5255,995.6983,224.7705,994.6273,223.4032,994.6028,223.3949,994.8518,224.4308,995.2247,225.5082,995.6836,226.6144,995.8459,227.6212,996.4237,228.7672,996.4823,228.9422,995.2842,228.9273,994.2572,229.4233,993.251,229.9816,992.1234,230.1772,991.0597,230.5636,991.0607,230.5863,993.0271,230.6397,994.998,230.7964,996.9668,230.9033,998.9397,231.1054,1000.899,230.997" style="stroke: #A9A9A9; stroke-width: 2.0;"/><!--link AnalysisActivity to AnalysisRole--><path d="M788.085,270.737 L788.2012,270.992 L796.7704,274.297 L806.0208,279.0969 L815.0494,283.41 L823.3484,286.1222 L832.6143,290.9561 L841.3359,294.5956 L850.2741,298.7105 L859.3629,303.1558 L867.9328,306.4623 L877.5357,312.0355 L885.7955,314.6618 L894.9491,319.2492 L904.2117,324.0759 L912.8399,327.5105 L921.8395,331.76 L930.6986,335.7011 L939.7294,340.0192 L948.6774,344.1554 L957.7835,348.6386 L966.7451,352.8048 L975.6641,356.8774 L984.203,360.116 " fill="none" style="stroke: #A9A9A9; stroke-width: 2.0;"/><polygon fill="#A9A9A9" points="988.875,362.245,988.9274,362.2915,987.4656,360.6788,986.3113,359.3385,985.0568,357.9096,983.4731,356.189,982.3451,354.872,982.3208,354.863,982.608,355.8821,983.0175,356.9468,983.512,358.0434,983.7135,359.0305,984.3255,360.1709,984.3901,360.3438,983.1921,360.3702,982.1828,360.9013,981.1965,361.494,980.0764,361.7284,979.0266,362.1513,979.0268,362.174,980.9962,362.1594,982.9665,362.2483,984.9364,362.2872,986.9072,362.4215,988.875,362.245" style="stroke: #A9A9A9; stroke-width: 2.0;"/><!--link AnalysisActivity to AnalyzeUseCase--><path d="M736,306.176 L736.0934,306.176 L735.8159,314.2854 L736.0859,322.3948 L736.1776,330.5042 L735.6829,338.6136 L736,346.723 " fill="none" style="stroke: #A9A9A9; stroke-width: 2.0;"/><polygon fill="none" points="729,306.089,729.0661,306.1121,730.2696,302.0434,731.8608,298.1103,733.3257,294.133,734.3756,290.0104,736,286.089,735.9755,286.0804,737.2658,290.042,738.6793,294.0468,740.1786,298.0815,741.3825,302.0129,743,306.089,743,306.2735,740.2,305.8789,737.4,306.0231,734.6,306.233,731.8,306.0604,729,306.089" style="stroke: #A9A9A9; stroke-width: 2.0;"/><!--link AnalyzeUseCase to UseCaseModel--><path d="M683.936,392.456 L683.9448,392.549 L678.7984,392.7592 L673.7037,393.5146 L668.5922,394.0925 L663.4252,394.0866 L658.335,394.8888 L658.3315,394.8544 L652.4326,395.2935 L646.5511,395.9058 L640.6817,396.6385 L634.7705,396.9562 L628.9179,397.8552 L628.9442,398.0999 L622.3638,398.2773 L615.86,399.169 L609.3656,400.1478 L602.8168,400.6196 L596.2966,401.3581 L596.3001,401.3882 L589.2523,402.1524 L582.2202,403.0538 L575.1805,403.889 L568.1553,404.8504 L561.0829,405.4003 L561.1194,405.6963 L553.6809,406.6167 L546.219,407.3463 L538.7914,408.3553 L531.3655,409.3774 L523.8885,409.9845 L523.8462,409.6668 L516.2156,411.3093 L508.4458,411.9056 L500.7818,413.2972 L493.0088,413.8698 L485.3252,415.1137 L485.3208,415.0836 L477.5082,416.5753 L469.594,417.3631 L461.7397,418.5662 L453.8904,419.8042 L446.0049,420.7907 L446.0337,420.9734 L438.1115,422.0345 L430.2385,423.4078 L422.2858,424.2759 L414.4521,425.8976 L406.5393,427.0183 L406.58,427.2585 L402.653,427.8773 L398.7463,428.6153 L394.7457,428.7993 L390.8139,429.3894 L386.9432,430.3394 L386.8947,430.0675 L383.058,431.0056 L379.1666,431.6373 L375.3545,432.7135 L371.4071,433.0308 L367.5402,433.7992 L367.512,433.6494 L363.7322,434.6187 L359.832,434.9476 L356.0175,435.7319 L352.2868,436.9618 L348.4068,437.3982 L348.4445,437.5881 L344.713,438.466 L340.8639,438.7532 L337.162,439.7803 L333.4281,440.6462 L329.6194,441.1365 L329.576,440.9311 L325.9376,441.8704 L322.285,442.7425 L318.6604,443.7468 L314.9272,444.2372 L311.2546,445.0146 L311.2997,445.2152 L307.6274,445.5781 L304.0422,446.3282 L300.5842,447.6439 L296.892,447.9183 L293.3887,449.0329 L293.4416,449.2528 L289.9522,449.9539 L286.4448,450.5806 L282.9778,451.3752 L279.6041,452.5581 L276.0984,453.1916 L276.0651,453.0628 L272.8365,454.3062 L269.3816,454.6735 L266.184,456.037 L262.8415,456.8396 L259.46,457.4911 L259.4893,457.596 L256.2836,458.3995 L253.1828,459.5785 L249.9873,460.4182 L246.7522,461.1162 L243.55,461.9319 L243.5846,462.0459 L240.5122,462.7929 L237.6004,464.0695 L234.507,464.7471 L231.4882,465.6711 L228.445,466.5141 L228.3597,466.2575 L225.5435,467.2881 L222.8298,468.6277 L219.9709,469.5299 L217.06,470.2754 L214.2213,471.2383 L214.1719,471.1039 L211.5346,472.1203 L208.8099,472.8986 L206.3252,474.3312 L203.7218,475.44 L200.9554,476.1047 L201.0441,476.3212 L198.6262,477.3924 L196.0398,478.0521 L193.6312,479.146 L191.1049,479.9525 L188.7239,481.1138 L188.777,481.2283 L186.5458,482.2437 L184.3788,483.3973 L182.0085,484.1123 L179.8022,485.1812 L177.6032,486.2658 L177.6959,486.4397 L175.7351,487.5473 L173.5226,488.1829 L171.6026,489.3669 L169.6876,490.5605 L167.6697,491.561 L167.5254,491.3311 L166.0192,492.7819 L164.2628,493.8338 L162.4441,494.7865 L160.7675,495.9658 L159,497 L159.1967,497.2573 L157.2789,498.1403 L155.8118,499.6128 L154.1672,500.8532 L152.4848,502.044 L150.8169,503.2538 L150.8593,503.2999 L149.3201,504.6983 L147.5672,505.8642 L146.1034,507.3445 L144.5542,508.732 L143.162,510.2903 L143.1828,510.3096 L141.7648,511.8496 L140.3629,513.4045 L138.7898,514.8001 L137.4367,516.4004 L136.0328,517.9535 L135.9913,517.9198 L134.9106,519.742 L133.5376,521.3268 L131.9017,522.6981 L130.7229,524.4406 L129.4269,526.0879 L129.2187,525.938 L128.3139,527.8527 L127.2123,529.6258 L125.9722,531.2991 L124.4017,532.7345 L123.3418,534.5375 L123.5149,534.6495 L121.9512,536.0801 L121.1898,538.0295 L119.8901,539.6309 L118.9245,541.4483 L117.7751,543.1468 L117.8682,543.1991 L116.0404,546.6644 L113.6609,549.8198 L112.2065,553.4948 L110.1737,556.8449 L108.187,560.221 " fill="none" style="stroke: #A9A9A9; stroke-width: 2.0;"/><polygon fill="#A9A9A9" points="105.8334,564.908,105.8779,564.9622,107.2682,563.5514,108.9192,562.4581,110.4853,561.2614,111.7723,559.7247,113.4456,558.6587,113.4375,558.6341,112.327,558.8799,111.2577,559.2496,110.2169,559.7055,109.0776,559.8644,108.0763,560.4393,108.2515,560.4974,107.5208,559.2993,107.3015,558.2708,107.1446,557.263,106.6247,556.1349,106.2957,555.07,106.3184,555.0711,106.1926,557.0371,106.1702,559.008,106.0979,560.9765,106.1209,562.9496,105.8334,564.908" style="stroke: #A9A9A9; stroke-width: 2.0;"/><text fill="#A9A9A9" font-family="courier" font-size="20" font-weight="bold" lengthAdjust="spacingAndGlyphs" textLength="24" x="250" y="481.1074">in</text><!--link AnalyzeUseCase to SupplementaryRequirements--><path d="M683.771,392.352 L683.7821,392.4448 L680.6879,392.5344 L677.6586,393.1678 L674.6082,393.6241 L671.4884,393.4982 L668.4647,394.1783 L668.4601,394.144 L665.0858,394.4415 L661.7347,394.9116 L658.3998,395.5016 L655.0093,395.6782 L651.6967,396.4339 L651.7334,396.6772 L648.0427,396.7024 L644.4592,397.438 L640.8888,398.2603 L637.2423,398.5783 L633.6358,399.1616 L633.6409,399.1915 L629.7965,399.796 L625.9751,400.5367 L622.1426,401.2118 L618.3313,402.0121 L614.4509,402.404 L614.5062,402.697 L610.4789,403.4606 L606.4158,404.0351 L602.405,404.8863 L598.3967,405.7505 L594.3108,406.2038 L594.2448,405.8901 L590.1875,407.3789 L585.913,407.8348 L581.8036,409.0759 L577.5242,409.5084 L573.3842,410.6037 L573.3773,410.5741 L569.1505,411.9332 L564.7616,412.5997 L560.4683,413.6749 L556.1831,414.7844 L551.84,415.6464 L551.8854,415.8257 L549.6493,416.1999 L547.4909,416.8805 L545.2069,417.0653 L543.1102,417.9895 L540.889,418.4222 L540.9519,418.6575 L538.7316,419.2035 L536.5425,419.8664 L534.2083,419.9862 L531.9804,420.5041 L529.8469,421.3746 L529.7719,421.1088 L527.6173,421.9763 L525.3783,422.5444 L523.2618,423.5468 L520.9361,423.8075 L518.7348,424.5091 L518.6913,424.363 L516.5315,425.2707 L514.1858,425.5538 L511.9723,426.2811 L509.8882,427.4431 L507.5738,427.831 L507.6318,428.0157 L505.4338,428.8453 L503.0554,429.1004 L500.903,430.0751 L498.7013,430.893 L496.3849,431.3456 L496.3188,431.1463 L494.1324,432.0477 L491.9243,432.8838 L489.7588,433.8481 L487.4279,434.3139 L485.1894,435.0582 L485.2573,435.2523 L482.8718,435.6091 L480.6174,436.3405 L478.5547,437.6191 L476.1391,437.8903 L474.0082,438.9742 L474.0868,439.1864 L471.811,439.8853 L469.5087,440.5125 L467.2663,441.3016 L465.1625,442.4653 L462.8626,443.099 L462.8141,442.9751 L460.7406,444.2117 L458.3374,444.6057 L456.3091,445.9578 L454.0698,446.7705 L451.7735,447.4378 L451.8152,447.5384 L449.5793,448.3688 L447.4925,449.5595 L445.271,450.4247 L442.9932,451.1539 L440.7621,451.996 L440.81,452.1052 L438.5564,452.8995 L436.5249,454.2008 L434.2422,454.9288 L432.0629,455.8926 L429.8496,456.7789 L429.7357,456.5337 L427.6151,457.6182 L425.6318,458.998 L423.4544,459.9599 L421.2074,460.772 L419.0569,461.7919 L418.9936,461.6635 L416.8835,462.7543 L414.6614,463.6177 L412.7473,465.1063 L410.6808,466.2855 L408.4052,467.0403 L408.5136,467.2476 L406.4504,468.4118 L404.1811,469.1821 L402.1294,470.3681 L399.9336,471.279 L397.9155,472.5294 L397.9769,472.6397 L395.9076,473.7723 L393.9124,475.038 L391.6821,475.8813 L389.6414,477.0654 L387.6091,478.2646 L387.7096,478.4342 L385.7172,479.6789 L383.4521,480.4633 L381.5039,481.7824 L379.5612,483.111 L377.507,484.2512 L377.3619,484.0217 L375.6156,485.6327 L373.6176,486.8455 L371.557,487.9594 L369.6394,489.2993 L367.6302,490.4946 L367.8115,490.7629 L365.6264,491.6804 L363.8565,493.2127 L361.9232,494.503 L359.9549,495.7416 L358,497 L358.0372,497.0504 L356.1573,498.4257 L354.0897,499.5473 L352.2761,501.0123 L350.3874,502.3758 L348.6368,503.9259 L348.6547,503.9479 L346.829,505.454 L345.0172,506.9772 L343.0573,508.3192 L341.2876,509.8939 L339.4741,511.4149 L339.4386,511.375 L337.8617,513.1913 L336.0346,514.7261 L333.9825,516.0079 L332.3216,517.7297 L330.5604,519.3387 L330.3832,519.1531 L328.9256,521.0773 L327.3006,522.8262 L325.5577,524.4517 L323.5336,525.7826 L321.944,527.5686 L322.091,527.7132 L320.0545,529.0187 L318.6992,530.9941 L316.8868,532.52 L315.3581,534.325 L313.6734,535.9764 L313.7515,536.0492 L312.2516,537.8108 L310.2886,539.1412 L309.1021,541.1947 L307.4301,542.7961 L305.7969,544.4335 L305.915,544.5383 L304.5587,546.3297 L302.8252,547.7863 L301.3948,549.512 L299.9207,551.1989 L298.363,552.8115 L298.4298,552.8683 L296.9741,554.4454 L295.8265,556.2843 L293.9907,557.5383 L293,559.5106 L291.42,560.982 " fill="none" style="stroke: #A9A9A9; stroke-width: 2.0;"/><polygon fill="#A9A9A9" points="288.161,564.933,288.1923,564.9957,289.8618,563.9299,291.7148,563.2315,293.508,562.4135,295.1048,561.202,296.9735,560.5352,296.971,560.5094,295.8337,560.5018,294.7089,560.6242,293.5927,560.8369,292.4467,560.7383,291.3425,561.0758,291.5262,561.0934,291.0252,559.9295,291.0606,558.8171,291.1615,557.711,290.8816,556.5683,290.8019,555.4448,290.8238,555.4509,290.2635,557.3396,289.8029,559.256,289.2942,561.1591,288.8773,563.0877,288.161,564.933" style="stroke: #A9A9A9; stroke-width: 2.0;"/><text fill="#A9A9A9" font-family="courier" font-size="20" font-weight="bold" lengthAdjust="spacingAndGlyphs" textLength="24" x="425" y="481.1074">in</text><!--link AnalyzeUseCase to DomainModel--><path d="M683.863,398.495 L683.8856,398.5856 L681.581,398.8745 L679.409,399.6946 L677.1937,400.3418 L674.8366,400.4199 L672.6759,401.2857 L672.667,401.2523 L670.2453,401.7366 L667.8684,402.3891 L665.5226,403.1586 L663.0695,403.525 L660.7667,404.456 L660.834,404.6926 L658.1834,404.8994 L655.7292,405.7973 L653.2991,406.7794 L650.7295,407.271 L648.2332,408.0206 L648.242,408.0496 L645.6171,408.8018 L643.0323,409.686 L640.4282,410.5066 L637.861,411.4487 L635.1733,411.9944 L635.2657,412.278 L632.5691,413.161 L629.8129,413.8612 L627.144,414.8291 L624.4791,415.8095 L621.6847,416.3923 L621.5788,416.0898 L619.0204,417.6443 L616.1134,418.2027 L613.4714,419.5184 L610.5565,420.0541 L607.8653,421.2291 L607.8546,421.2006 L605.171,422.5957 L602.2367,423.3251 L599.4504,424.4473 L596.6765,425.6024 L593.813,426.5197 L593.8826,426.6911 L590.9748,427.6699 L588.186,428.9416 L585.2048,429.7394 L582.5105,431.244 L579.6255,432.2787 L579.7234,432.5019 L576.8599,433.7082 L574.0451,435.0252 L571.0043,435.8276 L568.1292,437.0073 L565.4007,438.5212 L565.282,438.2719 L562.5566,439.8457 L559.6975,441.1387 L557.0323,442.8391 L554.0359,443.8437 L551.2364,445.262 L551.1663,445.1266 L548.4819,446.8028 L545.4978,447.9003 L542.7268,449.4094 L540.1643,451.3211 L537.2305,452.5157 L537.3259,452.6843 L534.6413,454.3562 L531.6602,455.504 L529.0505,457.3082 L526.3599,458.9695 L523.4808,460.2974 L523.3699,460.1191 L520.7791,461.9261 L518.152,463.6748 L515.5962,465.5381 L512.7632,466.9554 L510.085,468.6219 L510.2013,468.7914 L507.3569,470.1953 L504.7371,471.9265 L502.4453,474.1356 L499.5496,475.4648 L497.1411,477.5039 L497.2783,477.6837 L494.7179,479.4678 L492.1111,481.191 L489.6091,483.0515 L487.3493,485.2295 L484.7468,486.9583 L484.6603,486.8572 L482.5684,489.1666 L479.8884,490.7883 L477.877,493.1919 L475.4892,495.1553 L473,497 L473.0795,497.0744 L470.3882,499.8217 L467.9815,502.8354 L465.3177,505.6084 L462.5463,508.2808 L459.8643,511.0368 L459.9614,511.1059 L457.5569,514.1785 L455.6032,517.5719 L453.1397,520.6024 L450.8858,523.7822 L448.5631,526.913 L448.3283,526.779 L446.5023,530.1614 L444.9592,533.7053 L443.0159,537.0207 L440.929,540.2543 L439.0412,543.6014 L438.9118,543.5402 L437.3936,546.8545 L435.6463,550.0604 L434.5289,553.5644 L433.0997,556.9209 L431.243,560.075 " fill="none" style="stroke: #A9A9A9; stroke-width: 2.0;"/><polygon fill="#A9A9A9" points="429.216,564.861,429.2638,564.9122,430.5607,563.415,432.138,562.2178,433.6239,560.923,434.8095,559.3068,436.4109,558.1354,436.4012,558.1114,435.3088,558.428,434.2655,558.8657,433.2561,559.3876,432.1294,559.6194,431.1671,560.2574,431.3382,560.3266,430.548,559.1298,430.2572,558.1352,430.0274,557.1651,429.4431,556.0517,429.0452,555.0136,429.0679,555.014,429.0687,556.9829,429.173,558.9536,429.2274,560.9234,429.377,562.8949,429.216,564.861" style="stroke: #A9A9A9; stroke-width: 2.0;"/><text fill="#A9A9A9" font-family="courier" font-size="20" font-weight="bold" lengthAdjust="spacingAndGlyphs" textLength="24" x="525" y="481.1074">in</text><!--link AnalyzeUseCase to ArchitectureDescription--><path d="M705.395,427.116 L705.6157,427.2887 L698.6722,434.812 L693.0225,443.3476 L686.9515,451.5536 L679.4949,458.6755 L673.8747,467.2341 L667.2207,474.984 L660.9782,483.0557 L655.0216,491.3512 L648.0794,498.8756 L643.0991,507.9349 L635.5681,514.9986 L629.7345,523.3903 L624.1081,531.9441 L617.2767,539.5551 L611.079,547.662 " fill="none" style="stroke: #A9A9A9; stroke-width: 2.0;"/><polygon fill="#A9A9A9" points="607.874,551.759,607.9069,551.8209,609.5486,550.7126,611.383,549.9671,613.1547,549.1034,614.7199,547.8514,616.5709,547.1369,616.5678,547.1112,615.4307,547.1327,614.3093,547.2839,613.199,547.5252,612.0508,547.4559,610.9557,547.8216,611.1388,547.8439,610.6102,546.6731,610.6164,545.5675,610.6878,544.4698,610.3796,543.3259,610.271,542.2063,610.2931,542.2118,609.7813,544.1142,609.3699,546.0419,608.9101,547.9573,608.5428,549.896,607.874,551.759" style="stroke: #A9A9A9; stroke-width: 2.0;"/><text fill="#A9A9A9" font-family="courier" font-size="20" font-weight="bold" lengthAdjust="spacingAndGlyphs" textLength="24" x="679" y="481.1074">in</text><!--link AnalyzeUseCase to CompletionUseCases--><path d="M736,427.116 L736.2802,427.116 L735.4476,437.3122 L736.2577,447.5083 L736.5329,457.7045 L735.0488,467.9006 L735.8964,478.0968 L735.4313,488.2929 L735.4887,498.4891 L735.9091,508.6852 L735.0782,518.8814 L736.7382,529.0775 L735.1596,539.2737 L735.7363,549.4698 L736,559.666 " fill="none" style="stroke: #A9A9A9; stroke-width: 2.0;"/><polygon fill="#A9A9A9" points="736,564.811,736.064,564.8395,736.6738,562.9549,737.6589,561.2372,738.5217,559.4651,738.9827,557.5144,740,555.811,739.9817,555.7927,739.0995,556.5105,738.3096,557.3206,737.5839,558.1949,736.637,558.848,736,559.811,736.1305,559.9415,735.0514,558.8624,734.3534,558.1644,733.7018,557.5128,732.7798,556.5908,732,555.811,732.0208,555.8202,732.7903,557.6067,733.6544,559.4352,734.4728,561.2434,735.3784,563.0903,736,564.811" style="stroke: #A9A9A9; stroke-width: 2.0;"/><text fill="#A9A9A9" font-family="courier" font-size="20" font-weight="bold" lengthAdjust="spacingAndGlyphs" textLength="36" x="738" y="481.1074">out</text><!--link AnalyzeUseCase to AnalysisClass--><path d="M763.3,427.202 L763.3769,427.255 L767.8212,433.8831 L772.7165,440.8218 L777.4649,447.6594 L781.7304,454.1644 L786.6644,461.1298 L786.6358,461.1104 L791.3746,468.1974 L796.2576,475.3822 L801.2407,482.6349 L805.8786,489.6534 L811,497 L811.205,497.1361 L815.0562,503.3046 L819.506,509.8706 L824.0287,516.485 L828.1266,522.8173 L832.448,529.298 L832.4734,529.3146 L836.5355,535.5536 L840.7132,541.8683 L844.8351,548.1464 L849.0634,554.4942 L852.945,560.615 " fill="none" style="stroke: #A9A9A9; stroke-width: 2.0;"/><polygon fill="#A9A9A9" points="855.781,564.975,855.8502,564.9861,855.3335,563.0081,855.2224,561.0951,854.9792,559.1609,854.3017,557.1573,854.2255,555.2498,854.2001,555.2444,853.8521,556.3272,853.6319,557.437,853.5004,558.5656,853.0629,559.6295,853.0542,560.784,853.0924,560.9646,851.9038,560.3442,850.8268,560.251,849.7634,560.2221,848.6208,559.819,847.5199,559.6127,847.5323,559.6318,849.1663,560.6762,850.8567,561.8075,852.52,562.8969,854.2351,564.0663,855.781,564.975" style="stroke: #A9A9A9; stroke-width: 2.0;"/><text fill="#A9A9A9" font-family="courier" font-size="20" font-weight="bold" lengthAdjust="spacingAndGlyphs" textLength="36" x="808" y="481.1074">out</text><!--link AnalyzeUseCase to EngineerUseCases--><path d="M788.032,408.404 L788.0692,408.4897 L791.5182,409.7779 L795.1851,411.5685 L798.781,413.1955 L802.1437,414.2844 L805.8293,416.1181 L805.815,416.0867 L809.612,417.7047 L813.4811,419.4811 L817.4005,421.3676 L821.1469,422.8746 L825.1355,424.9132 L825.2423,425.135 L829.0926,426.624 L833.2545,428.7603 L837.4544,430.9756 L841.4331,432.7314 L845.5282,434.7289 L845.5418,434.756 L847.6161,435.7705 L849.7525,436.9084 L851.859,437.9868 L854.0226,439.1787 L855.9999,440.0005 L856.1375,440.2651 L858.2561,441.3692 L860.286,442.3026 L862.4459,443.4858 L864.6118,444.6807 L866.5848,445.5046 L866.4329,445.2224 L868.8567,446.916 L870.7804,447.6802 L873.0843,449.151 L874.9967,449.8941 L877.23,451.2337 L877.2151,451.2071 L879.5212,452.7107 L881.4805,453.5933 L883.6444,454.8424 L885.8255,456.1222 L887.8827,457.18 L887.9756,457.34 L890.0033,458.4098 L892.1898,459.7529 L894.1195,460.6537 L896.4322,462.2143 L898.4902,463.3362 L898.6163,463.5447 L900.6944,464.777 L902.835,466.1127 L904.6847,466.9676 L906.7477,468.175 L908.9996,469.6947 L908.8519,469.4613 L911.0573,470.9832 L913.0963,472.2422 L915.3766,473.8825 L917.2449,474.8716 L919.3581,476.2479 L919.2738,476.1208 L921.4451,477.6804 L923.2561,478.6971 L925.3234,480.0998 L927.6414,481.8804 L929.5129,482.9882 L929.6238,483.1469 L931.6795,484.6397 L933.3902,485.6389 L935.5331,487.2564 L937.5818,488.7391 L939.4111,489.9081 L939.2863,489.7393 L941.3035,491.2922 L943.28,492.7899 L945.3367,494.3961 L947.0811,495.5801 L949,497 L949.1282,497.1607 L950.6391,498.2376 L952.3975,499.6246 L954.5174,501.4649 L955.9717,502.4708 L957.963,504.1498 L958.111,504.3209 L959.7865,505.7447 L961.4121,507.1106 L963.1506,508.6071 L965.1503,510.4057 L966.7805,511.7769 L966.69,511.6793 L968.6835,513.5673 L970.0619,514.7917 L972.1396,516.7707 L973.8236,518.3248 L975.4016,519.7644 L975.4779,519.842 L977.091,521.4255 L978.9775,523.2871 L980.617,524.8974 L982.1533,526.4028 L983.7754,527.9954 L983.8611,528.0782 L985.3489,529.6267 L987.2346,531.5597 L988.6703,533.0578 L990.2911,534.7348 L991.851,536.3531 L991.6524,536.1697 L993.264,537.9044 L995.115,539.8602 L996.6273,541.5032 L998.0183,543.0342 L999.5776,544.7207 L999.4705,544.6257 L1000.9701,546.3082 L1002.2801,547.8225 L1004.1115,549.7993 L1005.6848,551.5472 L1006.9042,552.9813 L1007.082,553.1333 L1008.5141,554.7894 L1009.6084,556.1564 L1011.0591,557.8285 L1012.2739,559.2987 L1013.78,561.018 " fill="none" style="stroke: #A9A9A9; stroke-width: 2.0;"/><polygon fill="#A9A9A9" points="1017.02,564.9,1017.0874,564.9193,1016.3454,562.9682,1015.9984,561.1301,1015.5227,559.2552,1014.6243,557.2594,1014.3111,555.431,1014.2853,555.4287,1014.0695,556.5454,1013.9837,557.6736,1013.9884,558.8098,1013.6814,559.9184,1013.8109,561.0657,1013.8272,561.2495,1012.6654,560.7564,1011.5512,560.8,1010.4428,560.909,1009.3006,560.6371,1008.1762,560.5655,1008.1862,560.586,1009.9403,561.4229,1011.7399,562.3528,1013.5176,563.2378,1015.3372,564.2084,1017.02,564.9" style="stroke: #A9A9A9; stroke-width: 2.0;"/><!--link Role to AnalysisRole--><path d="M1032.99,293.244 L1033.2692,293.2681 L1033.3656,303.9136 L1035.0988,314.7006 L1036.2989,325.4415 L1035.7463,336.0309 L1037.62,346.83 " fill="none" style="stroke: #A9A9A9; stroke-width: 2.0;"/><polygon fill="none" points="1026,293.673,1026.0679,293.6904,1026.9182,289.5331,1028.1664,285.4778,1029.2851,281.3893,1029.9776,277.1916,1031.26,273.145,1031.2364,273.1344,1032.8683,276.9515,1034.6194,280.8222,1036.4533,284.7301,1038.0018,288.5097,1039.95,292.469,1039.9659,292.6529,1037.1419,292.5005,1034.3643,292.8849,1031.5924,293.3348,1028.7875,293.4037,1026,293.673" style="stroke: #A9A9A9; stroke-width: 2.0;"/><!--link AnalysisRole to EngineerUseCases--><path d="M1042.65,447.282 L1042.9301,447.2898 L1042.3695,457.0608 L1043.4509,466.8773 L1043.9977,476.679 L1042.7858,486.432 L1043.9048,496.2495 L1043.7116,506.0307 L1044.0405,515.8264 L1044.7325,525.6321 L1044.1735,535.4032 L1046.1046,545.2433 L1044.7983,554.9936 L1045.91,564.811 " fill="none" style="stroke: #A9A9A9; stroke-width: 2.0;"/><polygon fill="none" points="1035.64,447.303,1035.7067,447.3243,1036.7984,443.2236,1038.2814,439.2478,1039.6369,435.2313,1040.5735,431.081,1042.09,427.116,1042.0658,427.1068,1043.4672,431.0249,1044.9906,434.9897,1046.5988,438.9867,1047.9147,442.8723,1049.64,446.914,1049.6451,447.0985,1046.8342,446.7818,1044.0382,447.0037,1041.244,447.2913,1038.4392,447.1966,1035.64,447.303" style="stroke: #A9A9A9; stroke-width: 2.0;"/><!--
@startuml
skinparam backgroundColor #222222

skinparam default {
    FontSize 20
    FontName courier
    FontStyle bold
    FontColor #white
}
skinparam handwritten true

skinparam shadowing false
skinparam padding 1
skinparam arrow {
    Thickness 2
    Color #DarkGrey
    FontSize 20
    FontName courier
    FontStyle bold
    FontColor #DarkGrey
}

skinparam title {
    BorderThickness 5
    BorderColor #orange
    FontSize 30
    FontName arial
    FontStyle bold
    FontColor #orange
 }

skinparam header {
    FontSize 15
    FontName courier
    FontStyle italic
    FontColor #orange
}

skinparam footer {
    FontSize 15
    FontName courier
    FontStyle italic
    FontColor #orange
}

skinparam legend {
    BorderThickness 1
    BorderColor #orange
    backgroundColor #222222
    FontSize 15
    FontName courier
    FontStyle italic
    FontColor #orange
}

skinparam package {
    BorderThickness 3
    BorderColor #white
    BackgroundColor #222222
    FontSize 20
    FontName courier
    FontStyle bold
}

skinparam class {
    BorderThickness 3
    BorderColor #white
    BackgroundColor #222222
    FontSize 20
    FontName courier
    FontStyle bold
    FontColor #white
}

skinparam classAttribute {
    FontSize 15
    FontName courier
    FontStyle bold
    FontColor #white
}

hide circle
hide stereotype

skinparam class {
    BorderColor<<artifacts>> #750b20
    BorderColor<<activities>> #196719
    BorderColor<<team>> #004080
    FontColor<<artifacts>> #750b20
    FontColor<<activities>> #196719
    FontColor<<team>> #004080
}

skinparam package {
    BorderColor<<artifacts>> #750b20
    BorderColor<<activities>> #196719
    BorderColor<<team>> #004080
    FontColor<<artifacts>> #750b20
    FontColor<<activities>> #196719
    FontColor<<team>> #004080
}

skinparam classAttribute {
    FontColor<<artifacts>> #750b20
    FontColor<<activities>> #196719
    FontColor<<team>> #004080
}

package Activities <<activities>> {
    class Activity <<activities>>
    class "Analysis\nActivity" as AnalysisActivity <<activities>>
    class "Analyze\nUse Case" as AnalyzeUseCase <<activities>>
}

package Artifacts <<artifacts>> {
    class "Use Case\nModel" as UseCaseModel <<artifacts>>
    class "Supplementary\nRequirements" as SupplementaryRequirements <<artifacts>>
    class "Domain\nModel" as DomainModel <<artifacts>>
    class "Architecture\nDescription\n" as ArchitectureDescription <<artifacts>>
    class "Use Cases\n" as CompletionUseCases <<artifacts>>
    class "Analysis\nClass" as AnalysisClass <<artifacts>>
}

package Team <<team>> {
    class Role <<team>>
    class AnalysisRole as "Analysis\nRole" <<team>>
    class "Use cases\nEngineer" as EngineerUseCases <<team>>
}

Activity <|- - AnalysisActivity
Activity - -> Role
AnalysisActivity - -> AnalysisRole
AnalysisActivity <|- - AnalyzeUseCase
AnalyzeUseCase - -> UseCaseModel :in
AnalyzeUseCase - -> SupplementaryRequirements :in
AnalyzeUseCase - -> DomainModel :in
AnalyzeUseCase - -> ArchitectureDescription :in
AnalyzeUseCase - -> CompletionUseCases :out
AnalyzeUseCase - -> AnalysisClass :out
AnalyzeUseCase - -> EngineerUseCases
Role <|- - AnalysisRole
AnalysisRole <|- - EngineerUseCases
@enduml

PlantUML version 1.2019.05(Sat Apr 20 18:45:36 CEST 2019)
(GPL source distribution)
Java Runtime: Java(TM) SE Runtime Environment
JVM: Java HotSpot(TM) 64-Bit Server VM
Java Version: 11.0.8+10-LTS
Operating System: Windows 10
OS Version: 10.0
Default Encoding: windows-1252
Language: es
Country: ES
--></g></svg>