<?xml version="1.0" encoding="UTF-8" standalone="no"?><svg xmlns="http://www.w3.org/2000/svg" xmlns:xlink="http://www.w3.org/1999/xlink" contentScriptType="application/ecmascript" contentStyleType="text/css" height="612px" preserveAspectRatio="none" style="width:1027px;height:612px;background:#222222;" version="1.1" viewBox="0 0 1027 612" width="1027px" zoomAndPan="magnify"><defs/><g><!--cluster views--><polygon fill="#222222" points="84,24.5,84,24.7102,93.7143,24.0857,103.4286,24.6933,113.1429,24.8997,122.8571,23.7866,132.5714,24.4223,142.2857,24.0735,152,24.5,151.8748,24.4743,153.3777,31.3181,154.5742,38.099,156.3808,45.0051,157.3942,51.7484,159,58.6133,159,58.4155,169.1176,59.0452,179.2353,58.5275,189.3529,58.6815,199.4706,58.5813,209.5882,58.7918,219.7059,58.8524,229.8235,59.199,239.9412,59.2843,250.0588,59.2925,260.1765,58.8679,270.2941,59.0769,280.4118,59.3155,290.5294,57.8921,300.6471,59.2918,310.7647,58.3168,320.8824,59.1471,331,58.6133,330.505,58.6133,330.9315,68.5557,331.7416,78.498,330.9513,88.4404,331.1053,98.3828,331.3386,108.3252,331.4162,118.2676,330.9961,128.21,331.2872,138.1523,330.4276,148.0947,331.2844,158.0371,331.5482,167.9795,331.4445,177.9219,331.613,187.8643,330.5169,197.8066,330.3478,207.749,330.3786,217.6914,330.9411,227.6338,330.8035,237.5762,331.6814,247.5186,330.8253,257.4609,330.6569,267.4033,331.2283,277.3457,330.3332,287.2881,330.4809,297.2305,331.649,307.1729,331.4357,317.1152,331.7345,327.0576,331,337,331,336.6782,321.12,337.3192,311.24,337.5904,301.36,336.5276,291.48,336.9041,281.6,337.126,271.72,337.6518,261.84,336.9958,251.96,337.4626,242.08,336.4462,232.2,336.3227,222.32,337.5036,212.44,336.2831,202.56,337.509,192.68,337.2066,182.8,336.7321,172.92,336.6462,163.04,337.4588,153.16,336.7007,143.28,337.5919,133.4,336.4473,123.52,337.6174,113.64,337.4843,103.76,337.245,93.88,337.0472,84,337,84.7266,337,84.6136,326.9194,84.1693,316.8387,84.2682,306.7581,83.8697,296.6774,84.7165,286.5968,84.1549,276.5161,84.1726,266.4355,83.3916,256.3548,83.5948,246.2742,84.5307,236.1935,84.4298,226.1129,83.9571,216.0323,83.6778,205.9516,83.7811,195.871,83.3138,185.7903,84.4147,175.7097,84.7396,165.629,84.5264,155.5484,84.6949,145.4677,83.8633,135.3871,84.0872,125.3065,83.6124,115.2258,84.284,105.1452,84.2468,95.0645,84.5524,84.9839,83.7703,74.9032,83.8656,64.8226,84.4435,54.7419,84.5673,44.6613,83.4875,34.5806,84,24.5" style="stroke: #FFD700; stroke-width: 3.0;"/><path d="M84,58.6133 L84,58.8935 L93.375,58.0609 L102.75,58.871 L112.125,59.1462 L121.5,57.6621 L130.875,58.5097 L140.25,58.0446 L149.625,58.1019 L159,58.6133 " fill="#222222" style="stroke: #FFD700; stroke-width: 3.0;"/><text fill="#FFD700" font-family="courier" font-size="20" font-weight="bold" lengthAdjust="spacingAndGlyphs" textLength="60" x="89" y="47.6074">views</text><!--cluster controllers--><polygon fill="#222222" points="355,220,355,220.2102,365,219.5857,375,220.1933,385,220.3997,395,219.2866,405,219.9223,415,219.5735,425,219.6165,435,219.9318,445,219.3086,455,220.5536,465,219.3697,475,219.8022,485,220.4319,495,220,494.972,219.9943,496.4223,226.8272,497.7896,233.6432,499.2583,240.4799,500.6781,247.3066,502,254.1133,502,254.699,512,254.7843,522,254.7925,532,254.3679,542,254.5769,552,254.8155,562,253.3921,572,254.7918,582,253.8168,592,254.6471,602,253.6183,612,254.0448,622,254.8549,632,254.0645,642,254.2186,652,254.4519,662,254.5295,672,254.1094,682,254.4005,692,253.5409,702,254.1133,702.2844,254.1133,702.5482,264.0649,702.4445,274.0165,702.613,283.9681,701.5169,293.9197,701.3478,303.8713,701.3786,313.8229,701.9411,323.7745,701.8035,333.7261,702.6814,343.6776,701.8253,353.6292,701.6569,363.5808,702.2283,373.5324,701.3332,383.484,701.4809,393.4356,702.649,403.3872,702.4357,413.3388,702.7345,423.2904,701.6782,433.242,702.3192,443.1936,702.5904,453.1452,701.5276,463.0968,701.9041,473.0484,702,483,702,483.126,692.0857,483.6518,682.1714,482.9958,672.2571,483.4626,662.3429,482.4462,652.4286,482.3227,642.5143,483.5036,632.6,482.2831,622.6857,483.509,612.7714,483.2066,602.8571,482.7321,592.9429,482.6462,583.0286,483.4588,573.1143,482.7007,563.2,483.5919,553.2857,482.4473,543.3714,483.6174,533.4571,483.4843,523.5429,483.245,513.6286,483.0472,503.7143,483.7266,493.8,483.6136,483.8857,483.1693,473.9714,483.2682,464.0571,482.8697,454.1429,483.7165,444.2286,483.1549,434.3143,483.1726,424.4,482.3916,414.4857,482.5948,404.5714,483.5307,394.6571,483.4298,384.7429,482.9571,374.8286,482.6778,364.9143,482.7811,355,483,354.3138,483,355.4147,472.8846,355.7396,462.7692,355.5264,452.6538,355.6949,442.5385,354.8633,432.4231,355.0872,422.3077,354.6124,412.1923,355.284,402.0769,355.2468,391.9615,355.5524,381.8462,354.7703,371.7308,354.8656,361.6154,355.4435,351.5,355.5673,341.3846,354.4875,331.2692,354.8061,321.1538,355.1493,311.0385,354.3892,300.9231,355.3534,290.8077,355.258,280.6923,354.8992,270.5769,355.1422,260.4615,355.7287,250.3462,354.6871,240.2308,355.315,230.1154,355,220" style="stroke: #FFD700; stroke-width: 3.0;"/><path d="M355,254.1133 L355,254.3935 L364.8,253.5609 L374.6,254.371 L384.4,254.6462 L394.2,253.1621 L404,254.0097 L413.8,253.5446 L423.6,253.6019 L433.4,254.0224 L443.2,253.1915 L453,254.8515 L462.8,253.2729 L472.6,253.8496 L482.4,254.6892 L492.2,253.9989 L502,254.1133 " fill="#222222" style="stroke: #FFD700; stroke-width: 3.0;"/><text fill="#FFD700" font-family="courier" font-size="20" font-weight="bold" lengthAdjust="spacingAndGlyphs" textLength="132" x="360" y="243.1074">controllers</text><!--cluster models--><polygon fill="#222222" points="754,220,754,220.2102,764,219.5857,774,220.1933,784,220.3997,794,219.2866,804,219.9223,814,219.5735,824,219.6165,834,220,833.9777,219.9954,835.1742,226.7763,836.9808,233.6824,837.9942,240.4257,839.5354,247.2774,841,254.1133,841,254.5452,851.25,254.0275,861.5,254.1815,871.75,254.0813,882,254.2918,892.25,254.3524,902.5,254.699,912.75,254.7843,923,254.7925,933.25,254.3679,943.5,254.5769,953.75,254.8155,964,253.3921,974.25,254.7918,984.5,253.8168,994.75,254.6471,1005,254.1133,1004.505,254.1133,1004.9315,263.9958,1005.7416,273.8782,1004.9513,283.7607,1005.1053,293.6432,1005.3386,303.5257,1005.4162,313.4081,1004.9961,323.2906,1005.2872,333.1731,1004.4276,343.0556,1005.2844,352.9381,1005.5482,362.8205,1005.4445,372.703,1005.613,382.5855,1004.5169,392.468,1004.3478,402.3504,1004.3786,412.2329,1004.9411,422.1154,1004.8035,431.9979,1005.6814,441.8804,1004.8253,451.7628,1004.6569,461.6453,1005.2283,471.5278,1004.3332,481.4103,1004.4809,491.2927,1005.649,501.1752,1005.4357,511.0577,1005.7345,520.9402,1004.6782,530.8227,1005.3192,540.7051,1005.5904,550.5876,1004.5276,560.4701,1004.9041,570.3526,1005.126,580.235,1005.6518,590.1175,1005,600,1005,599.9958,994.96,600.4626,984.92,599.4462,974.88,599.3227,964.84,600.5036,954.8,599.2831,944.76,600.509,934.72,600.2066,924.68,599.7321,914.64,599.6462,904.6,600.4588,894.56,599.7007,884.52,600.5919,874.48,599.4473,864.44,600.6174,854.4,600.4843,844.36,600.245,834.32,600.0472,824.28,600.7266,814.24,600.6136,804.2,600.1693,794.16,600.2682,784.12,599.8697,774.08,600.7165,764.04,600.1549,754,600,754.1726,600,753.3916,590,753.5948,580,754.5307,570,754.4298,560,753.9571,550,753.6778,540,753.7811,530,753.3138,520,754.4147,510,754.7396,500,754.5264,490,754.6949,480,753.8633,470,754.0872,460,753.6124,450,754.284,440,754.2468,430,754.5524,420,753.7703,410,753.8656,400,754.4435,390,754.5673,380,753.4875,370,753.8061,360,754.1493,350,753.3892,340,754.3534,330,754.258,320,753.8992,310,754.1422,300,754.7287,290,753.6871,280,754.315,270,754.2856,260,754.1158,250,754.1409,240,754.1135,230,754,220" style="stroke: #FFD700; stroke-width: 3.0;"/><path d="M754,254.1133 L754,254.3935 L763.6667,253.5609 L773.3333,254.371 L783,254.6462 L792.6667,253.1621 L802.3333,254.0097 L812,253.5446 L821.6667,253.6019 L831.3333,254.0224 L841,254.1133 " fill="#222222" style="stroke: #FFD700; stroke-width: 3.0;"/><text fill="#FFD700" font-family="courier" font-size="20" font-weight="bold" lengthAdjust="spacingAndGlyphs" textLength="72" x="759" y="243.1074">models</text><!--class View1--><polygon fill="#222222" points="103,71.5,103,71.7102,112.7143,71.0857,122.4286,71.6933,132.1429,71.8997,141.8571,70.7866,151.5714,71.4223,161.2857,71.0735,171,71.5,170.6165,71.5,170.9318,82.3227,170.3086,93.1453,171.5536,103.968,170.3697,114.7906,171,125.6133,171,125.4155,161.2857,126.0452,151.5714,125.5275,141.8571,125.6815,132.1429,125.5813,122.4286,125.7918,112.7143,125.8524,103,125.6133,103.5857,125.6133,103.6711,114.7906,103.6793,103.968,103.2546,93.1453,103.4636,82.3227,103,71.5" style="stroke: #FFD700; stroke-width: 3.0;"/><text fill="#FFD700" font-family="courier" font-size="20" font-weight="bold" lengthAdjust="spacingAndGlyphs" textLength="60" x="107" y="97.6074">View1</text><path d="M104,109.6133 L104,109.8935 L113.4286,109.0609 L122.8571,109.871 L132.2857,110.1462 L141.7143,108.6621 L151.1429,109.5097 L160.5714,109.0446 L170,109.6133 " fill="#222222" style="stroke: #FFD700; stroke-width: 3.0;"/><path d="M104,117.6133 L104,117.8935 L113.4286,117.0609 L122.8571,117.871 L132.2857,118.1462 L141.7143,116.6621 L151.1429,117.5097 L160.5714,117.0446 L170,117.6133 " fill="#222222" style="stroke: #FFD700; stroke-width: 3.0;"/><!--class View2--><polygon fill="#222222" points="101,267,101,267.2102,110.7143,266.5857,120.4286,267.1933,130.1429,267.3997,139.8571,266.2866,149.5714,266.9223,159.2857,266.5735,169,267,168.6165,267,168.9318,277.8227,168.3086,288.6453,169.5536,299.468,168.3697,310.2906,169,321.1133,169,320.9155,159.2857,321.5452,149.5714,321.0275,139.8571,321.1815,130.1429,321.0813,120.4286,321.2918,110.7143,321.3524,101,321.1133,101.5857,321.1133,101.6711,310.2906,101.6793,299.468,101.2546,288.6453,101.4636,277.8227,101,267" style="stroke: #FFD700; stroke-width: 3.0;"/><text fill="#FFD700" font-family="courier" font-size="20" font-weight="bold" lengthAdjust="spacingAndGlyphs" textLength="60" x="105" y="293.1074">View2</text><path d="M102,305.1133 L102,305.3935 L111.4286,304.5609 L120.8571,305.371 L130.2857,305.6462 L139.7143,304.1621 L149.1429,305.0097 L158.5714,304.5446 L168,305.1133 " fill="#222222" style="stroke: #FFD700; stroke-width: 3.0;"/><path d="M102,313.1133 L102,313.3935 L111.4286,312.5609 L120.8571,313.371 L130.2857,313.6462 L139.7143,312.1621 L149.1429,313.0097 L158.5714,312.5446 L168,313.1133 " fill="#222222" style="stroke: #FFD700; stroke-width: 3.0;"/><!--class View3--><polygon fill="#222222" points="204,267,204,267.2102,213.7143,266.5857,223.4286,267.1933,233.1429,267.3997,242.8571,266.2866,252.5714,266.9223,262.2857,266.5735,272,267,271.6165,267,271.9318,277.8227,271.3086,288.6453,272.5536,299.468,271.3697,310.2906,272,321.1133,272,320.9155,262.2857,321.5452,252.5714,321.0275,242.8571,321.1815,233.1429,321.0813,223.4286,321.2918,213.7143,321.3524,204,321.1133,204.5857,321.1133,204.6711,310.2906,204.6793,299.468,204.2546,288.6453,204.4636,277.8227,204,267" style="stroke: #FFD700; stroke-width: 3.0;"/><text fill="#FFD700" font-family="courier" font-size="20" font-weight="bold" lengthAdjust="spacingAndGlyphs" textLength="60" x="208" y="293.1074">View3</text><path d="M205,305.1133 L205,305.3935 L214.4286,304.5609 L223.8571,305.371 L233.2857,305.6462 L242.7143,304.1621 L252.1429,305.0097 L261.5714,304.5446 L271,305.1133 " fill="#222222" style="stroke: #FFD700; stroke-width: 3.0;"/><path d="M205,313.1133 L205,313.3935 L214.4286,312.5609 L223.8571,313.371 L233.2857,313.6462 L242.7143,312.1621 L252.1429,313.0097 L261.5714,312.5446 L271,313.1133 " fill="#222222" style="stroke: #FFD700; stroke-width: 3.0;"/><!--class Controller1--><polygon fill="#222222" points="537,267,537,267.2102,547,266.5857,557,267.1933,567,267.3997,577,266.2866,587,266.9223,597,266.5735,607,266.6165,617,266.9318,627,266.3086,637,267.5536,647,266.3697,657,266.8022,667,267.4319,677,267,676.9142,267,677.0682,277.8227,676.9681,288.6453,677.1785,299.468,677.2391,310.2906,677,321.1133,677,321.699,667,321.7843,657,321.7925,647,321.3679,637,321.5769,627,321.8155,617,320.3921,607,321.7918,597,320.8168,587,321.6471,577,320.6183,567,321.0448,557,321.8549,547,321.0645,537,321.1133,537.1053,321.1133,537.3386,310.2906,537.4162,299.468,536.9961,288.6453,537.2872,277.8227,537,267" style="stroke: #FFD700; stroke-width: 3.0;"/><text fill="#FFD700" font-family="courier" font-size="20" font-weight="bold" lengthAdjust="spacingAndGlyphs" textLength="132" x="541" y="293.1074">Controller1</text><path d="M538,305.1133 L538,305.3935 L547.8571,304.5609 L557.7143,305.371 L567.5714,305.6462 L577.4286,304.1621 L587.2857,305.0097 L597.1429,304.5446 L607,304.6019 L616.8571,305.0224 L626.7143,304.1915 L636.5714,305.8515 L646.4286,304.2729 L656.2857,304.8496 L666.1429,305.6892 L676,305.1133 " fill="#222222" style="stroke: #FFD700; stroke-width: 3.0;"/><path d="M538,313.1133 L538,313.3935 L547.8571,312.5609 L557.7143,313.371 L567.5714,313.6462 L577.4286,312.1621 L587.2857,313.0097 L597.1429,312.5446 L607,312.6019 L616.8571,313.0224 L626.7143,312.1915 L636.5714,313.8515 L646.4286,312.2729 L656.2857,312.8496 L666.1429,313.6892 L676,313.1133 " fill="#222222" style="stroke: #FFD700; stroke-width: 3.0;"/><!--class Controller2--><polygon fill="#222222" points="371,413,371,413.2102,381,412.5857,391,413.1933,401,413.3997,411,412.2866,421,412.9223,431,412.5735,441,412.6165,451,412.9318,461,412.3086,471,413.5536,481,412.3697,491,412.8022,501,413.4319,511,413,510.9142,413,511.0682,423.8227,510.9681,434.6453,511.1785,445.468,511.2391,456.2906,511,467.1133,511,467.699,501,467.7843,491,467.7925,481,467.3679,471,467.5769,461,467.8155,451,466.3921,441,467.7918,431,466.8168,421,467.6471,411,466.6183,401,467.0448,391,467.8549,381,467.0645,371,467.1133,371.1053,467.1133,371.3386,456.2906,371.4162,445.468,370.9961,434.6453,371.2872,423.8227,371,413" style="stroke: #FFD700; stroke-width: 3.0;"/><text fill="#FFD700" font-family="courier" font-size="20" font-weight="bold" lengthAdjust="spacingAndGlyphs" textLength="132" x="375" y="439.1074">Controller2</text><path d="M372,451.1133 L372,451.3935 L381.8571,450.5609 L391.7143,451.371 L401.5714,451.6462 L411.4286,450.1621 L421.2857,451.0097 L431.1429,450.5446 L441,450.6019 L450.8571,451.0224 L460.7143,450.1915 L470.5714,451.8515 L480.4286,450.2729 L490.2857,450.8496 L500.1429,451.6892 L510,451.1133 " fill="#222222" style="stroke: #FFD700; stroke-width: 3.0;"/><path d="M372,459.1133 L372,459.3935 L381.8571,458.5609 L391.7143,459.371 L401.5714,459.6462 L411.4286,458.1621 L421.2857,459.0097 L431.1429,458.5446 L441,458.6019 L450.8571,459.0224 L460.7143,458.1915 L470.5714,459.8515 L480.4286,458.2729 L490.2857,458.8496 L500.1429,459.6892 L510,459.1133 " fill="#222222" style="stroke: #FFD700; stroke-width: 3.0;"/><!--class Controller3--><polygon fill="#222222" points="546,413,546,413.2102,556,412.5857,566,413.1933,576,413.3997,586,412.2866,596,412.9223,606,412.5735,616,412.6165,626,412.9318,636,412.3086,646,413.5536,656,412.3697,666,412.8022,676,413.4319,686,413,685.9142,413,686.0682,423.8227,685.9681,434.6453,686.1785,445.468,686.2391,456.2906,686,467.1133,686,467.699,676,467.7843,666,467.7925,656,467.3679,646,467.5769,636,467.8155,626,466.3921,616,467.7918,606,466.8168,596,467.6471,586,466.6183,576,467.0448,566,467.8549,556,467.0645,546,467.1133,546.1053,467.1133,546.3386,456.2906,546.4162,445.468,545.9961,434.6453,546.2872,423.8227,546,413" style="stroke: #FFD700; stroke-width: 3.0;"/><text fill="#FFD700" font-family="courier" font-size="20" font-weight="bold" lengthAdjust="spacingAndGlyphs" textLength="132" x="550" y="439.1074">Controller3</text><path d="M547,451.1133 L547,451.3935 L556.8571,450.5609 L566.7143,451.371 L576.5714,451.6462 L586.4286,450.1621 L596.2857,451.0097 L606.1429,450.5446 L616,450.6019 L625.8571,451.0224 L635.7143,450.1915 L645.5714,451.8515 L655.4286,450.2729 L665.2857,450.8496 L675.1429,451.6892 L685,451.1133 " fill="#222222" style="stroke: #FFD700; stroke-width: 3.0;"/><path d="M547,459.1133 L547,459.3935 L556.8571,458.5609 L566.7143,459.371 L576.5714,459.6462 L586.4286,458.1621 L596.2857,459.0097 L606.1429,458.5446 L616,458.6019 L625.8571,459.0224 L635.7143,458.1915 L645.5714,459.8515 L655.4286,458.2729 L665.2857,458.8496 L675.1429,459.6892 L685,459.1133 " fill="#222222" style="stroke: #FFD700; stroke-width: 3.0;"/><!--class Model1--><polygon fill="#222222" points="907,413,907,413.2102,917,412.5857,927,413.1933,937,413.3997,947,412.2866,957,412.9223,967,412.5735,977,412.6165,987,413,986.9318,413,986.3086,423.8227,987.5536,434.6453,986.3697,445.468,986.8022,456.2906,987,467.1133,987,467.5452,977,467.0275,967,467.1815,957,467.0813,947,467.2918,937,467.3524,927,467.699,917,467.7843,907,467.1133,907.6793,467.1133,907.2546,456.2906,907.4636,445.468,907.7022,434.6453,906.2788,423.8227,907,413" style="stroke: #FFD700; stroke-width: 3.0;"/><text fill="#FFD700" font-family="courier" font-size="20" font-weight="bold" lengthAdjust="spacingAndGlyphs" textLength="72" x="911" y="439.1074">Model1</text><path d="M908,451.1133 L908,451.3935 L917.75,450.5609 L927.5,451.371 L937.25,451.6462 L947,450.1621 L956.75,451.0097 L966.5,450.5446 L976.25,450.6019 L986,451.1133 " fill="#222222" style="stroke: #FFD700; stroke-width: 3.0;"/><path d="M908,459.1133 L908,459.3935 L917.75,458.5609 L927.5,459.371 L937.25,459.6462 L947,458.1621 L956.75,459.0097 L966.5,458.5446 L976.25,458.6019 L986,459.1133 " fill="#222222" style="stroke: #FFD700; stroke-width: 3.0;"/><!--class Model2--><polygon fill="#222222" points="792,413,792,413.2102,802,412.5857,812,413.1933,822,413.3997,832,412.2866,842,412.9223,852,412.5735,862,412.6165,872,413,871.9318,413,871.3086,423.8227,872.5536,434.6453,871.3697,445.468,871.8022,456.2906,872,467.1133,872,467.5452,862,467.0275,852,467.1815,842,467.0813,832,467.2918,822,467.3524,812,467.699,802,467.7843,792,467.1133,792.6793,467.1133,792.2546,456.2906,792.4636,445.468,792.7022,434.6453,791.2788,423.8227,792,413" style="stroke: #FFD700; stroke-width: 3.0;"/><text fill="#FFD700" font-family="courier" font-size="20" font-weight="bold" lengthAdjust="spacingAndGlyphs" textLength="72" x="796" y="439.1074">Model2</text><path d="M793,451.1133 L793,451.3935 L802.75,450.5609 L812.5,451.371 L822.25,451.6462 L832,450.1621 L841.75,451.0097 L851.5,450.5446 L861.25,450.6019 L871,451.1133 " fill="#222222" style="stroke: #FFD700; stroke-width: 3.0;"/><path d="M793,459.1133 L793,459.3935 L802.75,458.5609 L812.5,459.371 L822.25,459.6462 L832,458.1621 L841.75,459.0097 L851.5,458.5446 L861.25,458.6019 L871,459.1133 " fill="#222222" style="stroke: #FFD700; stroke-width: 3.0;"/><!--class Model3--><polygon fill="#222222" points="792,530,792,530.2102,802,529.5857,812,530.1933,822,530.3997,832,529.2866,842,529.9223,852,529.5735,862,529.6165,872,530,871.9318,530,871.3086,540.8227,872.5536,551.6453,871.3697,562.468,871.8022,573.2906,872,584.1133,872,584.5452,862,584.0275,852,584.1815,842,584.0813,832,584.2918,822,584.3524,812,584.699,802,584.7843,792,584.1133,792.6793,584.1133,792.2546,573.2906,792.4636,562.468,792.7022,551.6453,791.2788,540.8227,792,530" style="stroke: #FFD700; stroke-width: 3.0;"/><text fill="#FFD700" font-family="courier" font-size="20" font-weight="bold" lengthAdjust="spacingAndGlyphs" textLength="72" x="796" y="556.1074">Model3</text><path d="M793,568.1133 L793,568.3935 L802.75,567.5609 L812.5,568.371 L822.25,568.6462 L832,567.1621 L841.75,568.0097 L851.5,567.5446 L861.25,567.6019 L871,568.1133 " fill="#222222" style="stroke: #FFD700; stroke-width: 3.0;"/><path d="M793,576.1133 L793,576.3935 L802.75,575.5609 L812.5,576.371 L822.25,576.6462 L832,575.1621 L841.75,576.0097 L851.5,575.5446 L861.25,575.6019 L871,576.1133 " fill="#222222" style="stroke: #FFD700; stroke-width: 3.0;"/><!--class Models1--><polygon fill="#222222" points="897,267,897,267.2102,907.2222,266.5857,917.4444,267.1933,927.6667,267.3997,937.8889,266.2866,948.1111,266.9223,958.3333,266.5735,968.5556,266.6165,978.7778,266.9318,989,267,988.3086,267,989.5536,277.8227,988.3697,288.6453,988.8022,299.468,989.4319,310.2906,989,321.1133,989,321.0275,978.7778,321.1815,968.5556,321.0813,958.3333,321.2918,948.1111,321.3524,937.8889,321.699,927.6667,321.7843,917.4444,321.7925,907.2222,321.3679,897,321.1133,897.4636,321.1133,897.7022,310.2906,896.2788,299.468,897.6785,288.6453,896.7035,277.8227,897,267" style="stroke: #FFD700; stroke-width: 3.0;"/><text fill="#FFD700" font-family="courier" font-size="20" font-weight="bold" lengthAdjust="spacingAndGlyphs" textLength="84" x="901" y="293.1074">Models1</text><path d="M898,305.1133 L898,305.3935 L908,304.5609 L918,305.371 L928,305.6462 L938,304.1621 L948,305.0097 L958,304.5446 L968,304.6019 L978,305.0224 L988,305.1133 " fill="#222222" style="stroke: #FFD700; stroke-width: 3.0;"/><path d="M898,313.1133 L898,313.3935 L908,312.5609 L918,313.371 L928,313.6462 L938,312.1621 L948,313.0097 L958,312.5446 L968,312.6019 L978,313.0224 L988,313.1133 " fill="#222222" style="stroke: #FFD700; stroke-width: 3.0;"/><!--class Models2--><polygon fill="#222222" points="770,267,770,267.2102,780.2222,266.5857,790.4444,267.1933,800.6667,267.3997,810.8889,266.2866,821.1111,266.9223,831.3333,266.5735,841.5556,266.6165,851.7778,266.9318,862,267,861.3086,267,862.5536,277.8227,861.3697,288.6453,861.8022,299.468,862.4319,310.2906,862,321.1133,862,321.0275,851.7778,321.1815,841.5556,321.0813,831.3333,321.2918,821.1111,321.3524,810.8889,321.699,800.6667,321.7843,790.4444,321.7925,780.2222,321.3679,770,321.1133,770.4636,321.1133,770.7022,310.2906,769.2788,299.468,770.6785,288.6453,769.7035,277.8227,770,267" style="stroke: #FFD700; stroke-width: 3.0;"/><text fill="#FFD700" font-family="courier" font-size="20" font-weight="bold" lengthAdjust="spacingAndGlyphs" textLength="84" x="774" y="293.1074">Models2</text><path d="M771,305.1133 L771,305.3935 L781,304.5609 L791,305.371 L801,305.6462 L811,304.1621 L821,305.0097 L831,304.5446 L841,304.6019 L851,305.0224 L861,305.1133 " fill="#222222" style="stroke: #FFD700; stroke-width: 3.0;"/><path d="M771,313.1133 L771,313.3935 L781,312.5609 L791,313.371 L801,313.6462 L811,312.1621 L821,313.0097 L831,312.5446 L841,312.6019 L851,313.0224 L861,313.1133 " fill="#222222" style="stroke: #FFD700; stroke-width: 3.0;"/><!--entity Actor--><polygon fill="#222222" points="45.0442,64.9459,43.8715,66.5482,42.4845,68.8951,40.5008,70.4767,38.4163,71.3415,36.7542,71.4166,34.618,70.3349,32.6023,69.6283,31.0724,68.1936,30.2699,66.5511,29.7939,65.2433,29.3277,63.5351,28.5709,62.0651,29.1525,60.6298,29.662,59.0576,31.574,57.8142,32.9192,56.2008,34.5843,55.665,36.5637,55.2037,39.1021,55.4778,40.4924,56.1335,42.1089,56.4307,44.0743,58.4443,44.7595,60.5701,45.0571,62.0206,44.72,64.4108" style="stroke: #FFD700; stroke-width: 2.0;"/><path d="M37,71 L37.1868,71 L36.6317,76.4 L37.1718,81.8 L37.3553,87.2 L36.3659,92.6 L37,98 M24,79 L24,78.9309 L29.2,78.6209 L34.4,78.6591 L39.6,78.9394 L44.8,78.3854 L50,79 M37,98 L37.3719,98.3223 L33.9766,100.6331 L31.6672,103.8849 L29.4901,107.2515 L26.5424,109.9501 L24,113 M37,98 L37.0458,98.0397 L39.5785,100.9814 L42.3199,104.1039 L44.9606,107.1392 L47.7934,110.341 L50,113 " fill="none" style="stroke: #FFD700; stroke-width: 2.0;"/><text fill="#FFD700" font-family="courier" font-size="20" font-weight="bold" lengthAdjust="spacingAndGlyphs" textLength="60" x="7" y="137.1074">Actor</text><!--link Actor to View1--><path d="M68.25,98.5 L68.25,98.5934 L74.1502,98.3159 L80.0505,98.5859 L85.9507,98.6776 L91.851,98.1829 L97.7512,98.5 " fill="none" style="stroke: #FFD700; stroke-width: 2.0;"/><polygon fill="#FFD700" points="102.8936,98.5,102.9221,98.564,101.0375,97.5738,99.3198,96.9589,97.5477,96.2217,95.597,95.0827,93.8936,94.5,93.8753,94.4817,94.5931,95.1995,95.4032,96.0096,96.2775,96.8839,96.9306,97.537,97.8936,98.5,98.0241,98.6305,96.945,99.1514,96.247,100.0534,95.5954,101.0018,94.6734,101.6798,93.8936,102.5,93.9028,102.5208,95.6893,101.6903,97.5178,100.9544,99.326,100.1728,101.1729,99.4784,102.8936,98.5" style="stroke: #FFD700; stroke-width: 2.0;"/><!--link Actor to View2--><path d="M40.8384,144.089 L40.9304,144.1053 L41.1848,147.0256 L41.9784,150.0416 L42.5964,153.0264 L42.637,155.9086 L43.4769,158.9329 L43.4433,158.925 L44.0191,161.96 L44.7644,165.035 L45.6276,168.138 L46.0847,171.1449 L47.1105,174.2864 L47.3452,174.3602 L47.8008,177.2489 L48.9418,180.353 L50.1664,183.4835 L50.9045,186.461 L51.8984,189.5189 L51.9264,189.5307 L53.1057,192.4096 L54.4122,195.3421 L55.6573,198.2488 L57.0196,201.2049 L58,204 L58.2593,204.1474 L60.1236,207.4218 L61.8207,210.601 L63.7626,213.9194 L65.7159,217.2443 L67.3058,220.3625 L67.0444,220.1771 L69.7628,223.6539 L71.6204,226.52 L74.1324,229.8503 L75.9705,232.7026 L78.361,235.9468 L78.3376,235.9273 L81.0082,239.0451 L83.1311,241.709 L85.5771,244.6407 L88.0504,247.5949 L90.3278,250.3868 L90.4632,250.5129 L92.7347,252.9717 L95.2375,255.6459 L97.366,257.9716 L100.0528,260.8171 L102.3684,263.317 " fill="none" style="stroke: #FFD700; stroke-width: 2.0;"/><polygon fill="#FFD700" points="105.8987,266.876,105.9642,266.9009,105.0699,264.9856,104.5594,263.2163,103.924,261.3995,102.8774,259.4264,102.4,257.6695,102.3741,257.6694,102.2533,258.8003,102.2631,259.9318,102.3637,261.0635,102.1514,262.1941,102.3773,263.3264,102.3781,263.5109,101.2451,263.1117,100.1143,263.2514,98.9838,263.4568,97.8518,263.2797,96.7205,263.3037,96.7288,263.3249,98.5523,264.0083,100.4134,264.7881,102.2563,265.5214,104.1339,266.3435,105.8987,266.876" style="stroke: #FFD700; stroke-width: 2.0;"/><!--link Actor to View3--><path d="M62.8092,144.021 L62.8852,144.0754 L63.84,145.5631 L65.2402,147.3696 L66.4954,149.0722 L67.2737,150.4336 L68.7121,152.2674 L68.6848,152.2463 L69.8501,153.8198 L71.1532,155.4997 L72.5521,157.2535 L73.6209,158.7525 L75.1521,160.6085 L75.3405,160.7668 L76.3293,162.0845 L77.8681,163.8645 L79.474,165.7008 L80.6894,167.2091 L82.1102,168.8899 L82.1325,168.9104 L83.5912,170.4937 L85.1512,172.1707 L86.6624,173.8024 L88.2669,175.5205 L89.5671,176.9573 L89.7748,177.1713 L91.3646,178.7137 L92.8205,180.1181 L94.4725,181.7246 L96.1337,183.3405 L97.5037,184.6563 L97.2955,184.4126 L99.379,186.3208 L100.7769,187.4267 L102.6961,189.1425 L104.0785,190.2301 L105.9008,191.8327 L105.8828,191.8081 L107.8638,193.3981 L109.4234,194.4149 L111.2316,195.77 L113.0608,197.1534 L114.7393,198.332 L114.8359,198.4898 L116.5905,199.4641 L118.5102,200.7081 L120.1629,201.5158 L122.2138,202.9742 L124,204 L124.0675,204.2341 L127.3865,205.1508 L130.7389,206.1838 L133.9356,206.6767 L137.2465,207.5655 L140.6586,208.805 L140.6331,208.53 L143.5898,208.5071 L146.5179,208.1743 L149.4876,208.291 L152.3861,207.6403 L155.327,207.4458 L155.3157,207.2937 L158.2355,207.3305 L161.1069,206.7173 L164.0128,206.5664 L166.9524,206.8677 L169.8319,206.3636 L169.8957,206.5465 L173.173,207.7991 L176.2521,208.4831 L179.5795,209.8794 L182.8528,211.1205 L186,212 L185.8689,211.836 L188.5289,214.0083 L191.1459,216.1269 L193.8472,218.351 L196.2206,220.1648 L198.7773,222.2079 L198.9322,222.343 L200.7667,224.539 L202.9003,226.9958 L205.4707,229.8338 L207.2368,231.9701 L209.6519,234.6725 L209.8403,234.7977 L211.5336,237.4395 L213.1633,240.0388 L214.9368,242.7338 L217.0428,245.6499 L218.6783,248.2531 L218.5609,248.1905 L220.3569,251.0881 L221.3546,253.5598 L223.26,256.5158 L224.6544,259.1991 L225.911,261.809 " fill="none" style="stroke: #FFD700; stroke-width: 2.0;"/><polygon fill="#FFD700" points="228.178,266.667,228.248,266.6683,228.0038,264.695,228.1702,262.7293,228.2029,260.7611,227.7958,258.7849,227.9974,256.8198,227.9731,256.8109,227.4771,257.8344,227.1039,258.9026,226.816,260.0017,226.234,260.9939,226.0639,262.1359,226.127,262.3094,224.9288,261.5518,223.9149,261.3006,222.9234,261.1111,221.8012,260.5622,220.7477,260.2024,220.7627,260.2195,222.2268,261.4873,223.7589,262.8331,225.2582,264.1413,226.8201,265.5214,228.178,266.667" style="stroke: #FFD700; stroke-width: 2.0;"/><!--link View1 to View3--><path d="M163.43,125.52 L163.4997,125.5822 L165.2163,127.556 L167.3416,129.8943 L169.3338,132.1139 L170.8882,133.9433 L173.0487,136.3128 L173.0219,136.291 L174.8411,138.5727 L176.7953,140.9645 L178.8433,143.4327 L180.5679,145.6374 L182.7455,148.2112 L182.9448,148.3556 L184.355,150.5815 L186.347,153.2288 L188.4099,155.9276 L190.0599,158.3272 L191.9271,160.8841 L191.9529,160.9 L193.5296,163.4998 L195.2238,166.172 L196.8613,168.8093 L198.6071,171.5133 L200,174 L200.2651,174.1367 L201.3747,176.2846 L202.3134,178.3444 L203.5024,180.5333 L204.7031,182.7282 L205.5321,184.7314 L205.2399,184.5995 L206.8184,187.0955 L207.435,189.1572 L208.7828,191.5491 L209.3776,193.6009 L210.5896,195.9314 L210.5613,195.9201 L211.8142,198.3471 L212.4068,200.5096 L213.389,202.8282 L214.4039,205.1599 L215.1829,207.397 L215.357,207.4595 L216.0091,209.7021 L216.9587,212.0515 L217.427,214.228 L218.6132,216.6623 L219.3221,218.9253 L219.5539,219.0005 L220.2491,221.2638 L221.0595,223.5645 L221.3352,225.6917 L222.0028,227.9461 L223.0176,230.3131 L222.7527,230.2349 L223.6449,232.5146 L224.2386,234.7062 L225.2652,237.0256 L225.5527,239.1268 L226.2796,241.3577 L226.1324,241.3179 L226.9453,243.4838 L227.129,245.4796 L227.7601,247.5964 L228.829,249.8316 L229.1183,251.856 L229.3062,251.9027 L229.9202,253.8846 L229.9498,255.721 L230.7114,257.7396 L231.3135,259.7186 L231.544,261.605 " fill="none" style="stroke: #FFD700; stroke-width: 2.0; stroke-dasharray: 7.0,7.0;"/><polygon fill="#FFD700" points="232.744,266.74,232.8128,266.7531,232.9774,264.7792,233.5455,262.8823,233.9821,260.9603,233.9868,258.9559,234.5895,257.0656,234.5674,257.0519,233.8719,257.9517,233.2872,258.9205,232.7797,259.9371,232.0064,260.7886,231.6054,261.8714,231.7028,262.0281,230.5334,261.0961,229.6483,260.6217,228.7979,260.2033,227.7457,259.4598,226.7996,258.8873,226.8178,258.9011,227.98,260.4514,229.2248,262.0643,230.4298,263.647,231.7108,265.2873,232.744,266.74" style="stroke: #FFD700; stroke-width: 2.0;"/><text fill="#FFD700" font-family="courier" font-size="20" font-weight="bold" lengthAdjust="spacingAndGlyphs" textLength="72" x="216" y="196.1074">dialog</text><!--link View1 to View2--><path d="M133.864,138.852 L133.9572,138.8577 L133.4649,142.3492 L133.519,145.8743 L133.3953,149.3884 L132.6861,152.8666 L132.7873,156.3945 L132.7527,156.393 L132.4404,159.9071 L132.3021,163.4291 L132.2846,166.9564 L131.8505,170.4652 L132,174 L132.246,174.0046 L131.6437,178.0847 L131.7598,182.1783 L131.9634,186.2734 L131.6571,190.3591 L131.6191,194.4497 L131.6494,194.4499 L131.6261,198.6015 L131.7409,202.7539 L131.7891,206.9059 L131.9644,211.0586 L131.7254,215.2091 L132.0235,215.2159 L132.1188,219.2395 L132.0217,223.2587 L132.2061,227.2844 L132.4037,231.3103 L132.1832,235.3267 L131.8629,235.3151 L132.6193,239.0425 L132.321,242.7316 L132.8246,246.4499 L132.5024,250.1381 L132.857,253.851 " fill="none" style="stroke: #FFD700; stroke-width: 2.0;"/><polygon fill="#FFD700" points="133.466,266.997,133.5313,267.0225,134.0532,265.1117,134.9578,263.3502,135.7377,261.5402,136.1079,259.5702,137.0453,257.8216,137.0262,257.8041,136.1781,258.562,135.4266,259.4078,134.7421,260.3147,133.8265,261.011,133.2347,262.0024,133.359,262.1387,132.257,261.0849,131.518,260.4294,130.8232,259.8224,129.8708,258.9327,129.0539,258.1917,129.0742,258.2019,129.9268,259.948,130.8719,261.7405,131.7724,263.5106,132.7581,265.3234,133.466,266.997" style="stroke: #FFD700; stroke-width: 2.0;"/><path d="M133.2347,262.0024 L133.328,262.0067 L132.9768,260.3955 L133.1726,258.8096 L133.1903,257.2154 L132.6222,255.5942 L132.865,254.0105 " fill="#FFD700" style="stroke: #FFD700; stroke-width: 2.0;"/><polygon fill="#FFD700" points="134.812,125.682,134.8674,125.725,133.8187,126.7367,133.0946,128.0003,132.2647,129.1819,131.0875,130.0938,130.3912,131.379,130.3686,131.3662,130.9792,132.5633,131.7034,133.8247,132.5065,135.131,133.0375,136.2829,133.9496,137.651,134.0954,137.7641,134.6678,136.3828,135.6659,135.3317,136.7159,134.321,137.4637,133.0758,138.3705,131.9539,138.3903,131.9652,137.6495,130.6943,136.9988,129.4745,136.3047,128.2301,135.6935,127.0327,134.812,125.682" style="stroke: #FFD700; stroke-width: 2.0;"/><text fill="#FFD700" font-family="courier" font-size="20" font-weight="bold" lengthAdjust="spacingAndGlyphs" textLength="60" x="134" y="196.1074">frame</text><!--link View2 to Controller1--><path d="M142.359,266.935 L142.4471,266.9661 L142.9667,264.6617 L144.0026,262.5397 L144.8704,260.3583 L145.1852,257.9816 L146.2654,255.8753 L146.2334,255.8623 L147.0614,253.4141 L148.0507,251.0315 L149.1521,248.6946 L149.8671,246.2005 L151.1234,243.9264 L151.3458,244.0316 L152.0436,241.3263 L153.3909,238.9282 L154.8174,236.5675 L155.7829,233.9888 L156.9908,231.5247 L157.0173,231.5395 L158.3654,229.0342 L159.8341,226.5962 L161.2446,224.1258 L162.766,221.7173 L163.9258,219.1068 L164.1733,219.2731 L165.7884,216.8755 L167.2438,214.3707 L168.933,212.0229 L170.6331,209.6825 L171.9861,207.1088 L171.7395,206.9042 L174.067,205.0731 L175.5823,202.5682 L177.715,200.5755 L179.2119,198.0553 L181.23,195.9675 L181.2092,195.9453 L183.5527,194.238 L185.4093,192.0123 L187.5532,190.0925 L189.7213,188.1984 L191.7153,186.119 L191.8202,186.2714 L194.0712,184.4938 L196.5016,182.9765 L198.6418,181.0381 L201.2148,179.7279 L203.5,178 L203.6073,178.2187 L206.5764,176.7107 L209.5989,175.3112 L212.3737,173.4071 L215.33,171.873 L218.4471,170.6665 L218.3649,170.4028 L221.1192,169.8061 L223.7808,168.9122 L226.5767,168.4493 L229.1433,167.2506 L231.8462,166.4893 L231.8274,166.338 L234.3496,166.2797 L236.7912,165.5746 L239.2902,165.3295 L241.8452,165.5344 L244.3003,164.9379 L244.309,165.1313 L246.7374,165.3728 L249.1387,165.0125 L251.5739,165.4059 L254.0017,165.6351 L256.4124,165.4818 L256.3771,165.2748 L258.8798,165.8615 L261.371,166.3804 L263.8848,167.0325 L266.3105,167.1668 L268.7854,167.5904 L268.8329,167.7904 L271.3759,167.9795 L274.0106,168.5547 L276.7793,169.6939 L279.3013,169.7947 L282.0223,170.7333 L282.0768,170.9529 L284.9852,171.5518 L287.8752,172.0765 L290.8068,172.7688 L293.8345,173.8486 L296.7262,174.38 L296.6981,174.25 L300.1365,175.3612 L303.3839,175.5879 L306.8484,176.8203 L310.1906,177.4864 L313.5,178 L313.5221,178.1066 L316.7628,178.6952 L320.0827,179.6656 L323.3311,180.2911 L326.5496,180.7724 L329.7929,181.3734 L329.8206,181.4894 L333.0587,182.098 L336.425,183.245 L339.6463,183.7832 L342.9272,184.5717 L346.1886,185.2781 L346.1189,185.0168 L349.4293,185.9801 L352.8235,187.2581 L356.099,188.0908 L359.3319,188.7639 L362.6239,189.6584 L362.5837,189.521 L365.879,190.5251 L369.1032,191.2859 L372.523,192.7156 L375.8459,193.8143 L379.0361,194.4589 L379.1066,194.6819 L382.3944,195.7864 L385.5481,196.467 L388.8433,197.5949 L392.0449,198.4267 L395.362,199.6239 L395.4025,199.7435 L398.6325,200.8226 L401.9114,202.0461 L405.0354,202.8116 L408.2843,203.9465 L411.5388,205.0979 L411.6054,205.2834 L414.8169,206.4808 L417.8478,207.1745 L421.0886,208.4533 L424.333,209.7423 L427.5036,210.8254 L427.4076,210.5714 L430.697,212.1573 L433.8199,213.3027 L436.9016,214.3386 L440.0776,215.6247 L443.1933,216.7506 L443.3123,217.0518 L446.2125,217.8348 L449.3854,219.3078 L452.4509,220.5092 L455.4935,221.6525 L458.5449,222.8182 L458.5688,222.8761 L461.5543,224.0957 L464.4197,225.0234 L467.4476,226.346 L470.4275,227.5519 L473.4957,228.9724 L473.5068,228.9985 L476.4085,230.2455 L479.3187,231.5127 L482.137,232.5647 L485.0734,233.8932 L487.9826,235.1578 L487.961,235.1089 L490.8781,236.6246 L493.6431,237.7957 L496.2714,238.657 L499.1375,240.057 L501.9426,241.3188 L501.8364,241.0853 L504.6697,242.6517 L507.4026,243.9974 L510.0649,245.1877 L512.5586,246.0074 L515.3128,247.3998 L515.4001,247.5866 L517.7164,248.2898 L520.4374,249.8585 L522.8869,250.8465 L525.5049,252.195 L528.0302,253.3452 L528.0768,253.4413 L532.7667,255.7863 L537.1805,257.562 L542.0573,260.2924 L546.6446,262.4259 L551.255,264.607 " fill="none" style="stroke: #FFD700; stroke-width: 2.0;"/><polygon fill="#FFD700" points="556.032,266.989,556.086,267.0336,554.6714,265.3821,553.5734,263.9922,552.3723,262.5171,550.8321,260.7619,549.7613,259.3944,549.7367,259.3862,549.9856,260.4221,550.3584,261.4995,550.8172,262.6057,550.9793,263.6126,551.557,264.7586,551.6156,264.9337,550.4175,264.9186,549.3904,265.4144,548.3842,265.9726,547.2565,266.1681,546.1927,266.5544,546.1937,266.5771,548.1601,266.6306,550.1311,266.7877,552.0998,266.8948,554.0728,267.0971,556.032,266.989" style="stroke: #FFD700; stroke-width: 2.0;"/><!--link Controller1 to Controller2--><path d="M548.694,328.064 L548.7461,328.1416 L546.8478,329.0812 L545.2548,330.4756 L543.5623,331.7219 L541.5431,332.4813 L539.9763,333.9147 L539.9562,333.8865 L538.1415,334.9874 L536.4276,336.2301 L534.7839,337.5715 L532.8984,338.573 L531.3516,340.0505 L531.5007,340.2463 L529.5066,341.1029 L527.9476,342.5312 L526.4417,344.0292 L524.627,345.1214 L522.9747,346.4271 L522.994,346.4505 L521.3707,347.7307 L519.8353,349.1175 L518.2575,350.4529 L516.7605,351.8863 L515,353 L515.2022,353.2192 L512.6799,355.5511 L510.0271,357.7416 L507.5653,360.139 L505.1124,362.5462 L502.376,364.646 L502.146,364.4227 L500.1585,367.3638 L497.4137,369.5697 L495.2446,372.3345 L492.4826,374.5239 L490.2066,377.1849 L490.1839,377.1646 L488.165,379.9693 L485.6153,382.3006 L483.3788,384.9112 L481.1686,387.5452 L478.7687,390.0101 L478.9107,390.1286 L476.6814,392.51 L474.6948,395.0938 L472.3155,397.3501 L470.522,400.095 L468.339,402.515 " fill="none" style="stroke: #FFD700; stroke-width: 2.0;"/><polygon fill="#FFD700" points="460.247,412.73,460.2795,412.7921,461.9276,411.6934,463.7664,410.9585,465.5431,410.1052,467.1156,408.8623,468.9707,408.1587,468.9677,408.133,467.8305,408.1478,466.7083,408.2925,465.5966,408.5273,464.4488,408.4513,463.3515,408.8106,463.5349,408.8319,463.0125,407.6625,463.0253,406.5553,463.1034,405.4557,462.8016,404.312,462.6996,403.1914,462.7217,403.1971,462.1988,405.0965,461.7762,407.0217,461.3053,408.9344,460.9266,410.8709,460.247,412.73" style="stroke: #FFD700; stroke-width: 2.0;"/><path d="M463.3515,408.8106 L463.4248,408.8686 L464.2006,407.4421 L465.4057,406.3557 L466.471,405.1585 L467.0766,403.5972 L468.3185,402.54 " fill="#FFD700" style="stroke: #FFD700; stroke-width: 2.0;"/><polygon fill="#FFD700" points="559.727,321.071,559.7286,321.141,558.282,320.8997,556.8448,321.069,555.4046,321.1045,553.9542,320.7003,552.5178,320.9048,552.4941,320.8943,551.8027,322.1653,551.2305,323.4893,550.7414,324.8501,549.9663,326.0839,549.5917,327.4956,549.5959,327.6801,551.0287,327.3188,552.4738,327.4961,553.9205,327.7392,555.3584,327.5999,556.8009,327.6617,556.8217,327.671,557.3764,326.3393,558.0257,325.0496,558.6294,323.7396,559.3202,322.4684,559.727,321.071" style="stroke: #FFD700; stroke-width: 2.0;"/><text fill="#FFD700" font-family="courier" font-size="20" font-weight="bold" lengthAdjust="spacingAndGlyphs" textLength="84" x="517" y="375.1074">include</text><!--link Controller1 to Controller3--><path d="M609.446,334.13 L609.7257,334.1475 L609.4771,343.4145 L610.8681,352.7841 L611.7252,362.1202 L610.8264,371.3467 L612.2547,380.7185 L612.373,390.0085 L613.523,399.363 " fill="none" style="stroke: #FFD700; stroke-width: 2.0;"/><polygon fill="#FFD700" points="614.352,412.63,614.4177,412.6544,614.9088,410.7355,615.785,408.9597,616.5357,407.1374,616.8743,405.1617,617.7834,403.3982,617.764,403.3811,616.9282,404.1525,616.1904,405.0103,615.5206,405.9281,614.6163,406.6389,614.0405,407.6397,614.1626,407.7781,613.0531,406.7336,612.3002,406.0931,611.5908,405.5019,610.6284,404.6239,609.799,403.8967,609.8192,403.9072,610.7001,405.6385,611.673,407.4175,612.6015,409.1735,613.6145,410.9736,614.352,412.63" style="stroke: #FFD700; stroke-width: 2.0;"/><path d="M614.0405,407.6397 L614.1337,407.6455 L613.7568,406.0314 L613.9264,404.4514 L613.9181,402.8603 L613.3244,401.2325 L613.541,399.6555 " fill="#FFD700" style="stroke: #FFD700; stroke-width: 2.0;"/><polygon fill="#FFD700" points="608.63,321.077,608.6906,321.1121,607.787,322.2553,607.2387,323.6045,606.5746,324.8866,605.5301,325.9481,605.0123,327.315,604.9917,327.2993,605.7725,328.3766,606.6573,329.533,607.6143,330.7444,608.3223,331.7663,609.379,333.0536,609.5387,333.1462,609.9208,331.7006,610.7691,330.5253,611.6742,329.383,612.2484,328.0489,612.9967,326.8156,613.0148,326.8294,612.1149,325.6614,611.2974,324.5562,610.4401,323.4207,609.6587,322.3429,608.63,321.077" style="stroke: #FFD700; stroke-width: 2.0;"/><text fill="#FFD700" font-family="courier" font-size="20" font-weight="bold" lengthAdjust="spacingAndGlyphs" textLength="84" x="615" y="375.1074">extends</text><!--link Controller1 to Models1--><path d="M634.022,266.796 L634.0849,266.8651 L636.3747,264.4041 L639.0332,262.348 L641.5716,260.1601 L643.7151,257.5386 L646.4053,255.5173 L646.3828,255.491 L649.1241,252.9401 L651.9785,250.5215 L654.9117,248.1948 L657.5736,245.5513 L660.6155,243.3515 L660.7706,243.5425 L661.9827,241.8803 L663.6477,240.7757 L665.368,239.7392 L666.7667,238.3068 L668.3346,237.0826 L668.3532,237.1065 L669.9439,235.8085 L671.6196,234.6193 L673.2543,233.3776 L674.9671,232.2361 L676.4251,230.7679 L676.6036,231.0068 L678.2925,229.7494 L679.8662,228.3378 L681.6085,227.1518 L683.3587,225.9764 L684.8585,224.466 L684.6726,224.2049 L686.7831,223.4655 L688.2813,221.8665 L690.2449,220.9209 L691.7293,219.3024 L693.6065,218.2355 L693.5895,218.2103 L695.5978,217.2886 L697.208,215.7774 L699.0531,214.614 L700.918,213.4799 L702.6405,212.1351 L702.7399,212.2912 L704.498,210.9513 L706.4257,209.8781 L708.079,208.3734 L710.1417,207.5124 L711.9322,206.2234 L712.0568,206.4328 L713.9374,205.2603 L715.8799,204.1918 L717.535,202.6403 L719.4007,201.4428 L721.4531,200.5591 L721.3198,200.3172 L723.3848,199.4645 L725.2996,198.3392 L727.4323,197.6093 L729.1929,196.2044 L731.1747,195.2007 L731.1061,195.0646 L733.1993,194.2925 L734.9988,192.9386 L737.0072,191.9985 L739.2199,191.4632 L741.0687,190.207 L741.1489,190.3832 L743.2115,189.59 L745.0246,188.2487 L747.1502,187.5938 L749.2077,186.7895 L751.1065,185.6366 L751.0281,185.4418 L753.1213,184.7793 L755.1887,184.0531 L757.3067,183.4521 L759.2284,182.364 L761.2598,181.548 L761.3271,181.7423 L763.2272,180.6058 L765.2573,179.8444 L767.4772,179.6307 L769.3476,178.4085 L771.5,178 L771.5683,178.2156 L774.2295,177.2317 L776.8676,176.1748 L779.5579,175.2826 L782.3688,174.771 L785.009,173.7208 L784.9714,173.5931 L787.4702,173.27 L789.7134,172.079 L792.2473,171.8748 L794.6175,171.115 L796.9436,170.2054 L796.9682,170.3115 L799.1168,169.7215 L801.3537,169.5112 L803.5109,168.9578 L805.6346,168.2611 L807.7861,167.6834 L807.8011,167.8016 L809.8253,167.3661 L811.9193,167.4795 L813.9344,166.972 L815.982,166.72 L818.0189,166.384 L818.0148,166.1137 L820.0372,166.2344 L822.0646,166.6809 L824.085,166.6665 L826.1029,166.487 L828.1243,166.5366 L828.0996,166.3956 L830.1996,166.8076 L832.2558,166.9698 L834.4324,167.8185 L836.5494,168.3275 L838.5847,168.3706 L838.6583,168.5926 L840.9415,169.4127 L843.0847,169.8108 L845.3756,170.6542 L847.5688,171.2028 L849.8825,172.1152 L849.9359,172.2297 L852.4524,173.3916 L855.0333,174.6916 L857.4099,175.5536 L859.9513,176.7689 L862.5,178 L862.6042,178.1673 L865.0466,179.7165 L867.2062,180.8116 L869.6944,182.4343 L872.1883,184.0663 L874.5666,185.5125 L874.3937,185.3032 L876.8731,187.4565 L879.0525,189.2468 L881.1574,190.9469 L883.4326,192.8531 L885.5988,194.6273 L885.8315,194.8526 L887.5015,196.5994 L889.7045,198.8623 L891.6977,200.922 L893.646,202.9383 L895.6117,204.9714 L895.6605,205.0106 L897.4526,207.243 L898.9989,209.2775 L900.8779,211.5797 L902.6586,213.8028 L904.6201,216.1714 L904.6435,216.1874 L906.2562,218.5301 L907.887,220.8852 L909.325,223.1079 L911.0107,225.5006 L912.6392,227.8542 L912.5933,227.8267 L914.2682,230.3441 L915.6198,232.6683 L916.6808,234.8189 L918.2471,237.2714 L919.6839,239.6465 L919.457,239.5267 L921.0143,242.0121 L922.3572,244.3842 L923.5491,246.6767 L924.3809,248.7791 L925.7692,251.1752 L925.9556,251.2632 L926.4988,253.2126 L927.9059,255.5699 L928.7334,257.6535 L929.9207,259.907 L930.91,262.067 " fill="none" style="stroke: #FFD700; stroke-width: 2.0;"/><polygon fill="#FFD700" points="932.974,266.788,933.0441,266.7884,932.8484,264.8174,933.0635,262.8489,933.1448,260.8797,932.7863,258.9076,933.0366,256.9393,933.0125,256.9299,932.4914,257.9408,932.0919,258.9994,931.7769,260.0911,931.1707,261.0687,930.9724,262.2061,931.0397,262.378,929.8424,261.5977,928.8416,261.3191,927.8648,261.1017,926.7485,260.5282,925.7056,260.1419,925.7209,260.1587,927.1521,261.4633,928.6531,262.8443,930.1204,264.1884,931.6521,265.6029,932.974,266.788" style="stroke: #FFD700; stroke-width: 2.0;"/><!--link Controller1 to Models2--><path d="M677.211,294 L677.211,294.2802 L686.9484,293.4476 L696.6859,294.2577 L706.4233,294.5329 L716.1608,293.0488 L725.8982,293.8964 L735.6357,293.4313 L745.3731,293.4887 L755.1106,293.9091 L764.848,294 " fill="none" style="stroke: #FFD700; stroke-width: 2.0;"/><polygon fill="#FFD700" points="769.918,294,769.9465,294.064,768.0619,293.0738,766.3442,292.4589,764.5721,291.7217,762.6214,290.5827,760.918,290,760.8997,289.9817,761.6175,290.6995,762.4276,291.5096,763.3019,292.3839,763.955,293.037,764.918,294,765.0485,294.1305,763.9694,294.6514,763.2714,295.5534,762.6198,296.5018,761.6978,297.1798,760.918,298,760.9272,298.0208,762.7137,297.1903,764.5422,296.4544,766.3504,295.6728,768.1973,294.9784,769.918,294" style="stroke: #FFD700; stroke-width: 2.0;"/><!--link Models1 to Model1--><path d="M943.724,321.077 L944.0041,321.0848 L943.4389,330.6749 L944.5158,340.3106 L945.058,349.9315 L943.8416,359.5035 L944.956,369.1402 L944.7582,378.7405 L945.0826,388.3554 L945.77,397.9803 L946.128,407.596 " fill="none" style="stroke: #FFD700; stroke-width: 2.0; stroke-dasharray: 7.0,7.0;"/><polygon fill="#FFD700" points="946.268,412.63,946.3328,412.6567,946.8896,410.7558,947.8262,409.0111,948.6391,407.2156,949.0452,405.2528,950.0145,403.5215,949.9956,403.5037,949.1339,404.246,948.367,405.0779,947.6661,405.9722,946.7378,406.6515,946.128,407.632,946.2548,407.7661,945.1616,406.702,944.4386,406.0295,943.7607,405.4047,942.82,404.502,942.0176,403.7455,942.0381,403.7553,942.8581,405.5178,943.7714,407.325,944.6397,409.1106,945.594,410.9374,946.268,412.63" style="stroke: #FFD700; stroke-width: 2.0;"/><!--link Models2 to Model2--><path d="M818.897,321.077 L819.1755,321.108 L819.4162,330.6292 L821.2896,340.3319 L822.6313,349.9755 L822.2245,359.4248 L824.1351,369.1317 L824.7412,378.6935 L825.8664,388.3131 L827.3525,397.9727 L828.511,407.596 " fill="none" style="stroke: #FFD700; stroke-width: 2.0; stroke-dasharray: 7.0,7.0;"/><polygon fill="#FFD700" points="829.07,412.63,829.1368,412.6512,829.5345,410.7108,830.3236,408.8947,830.9853,407.0381,831.2277,405.0484,832.0505,403.2429,832.0302,403.2268,831.2328,404.0377,830.5373,404.9302,829.9128,405.8794,829.0439,406.6332,828.5172,407.6607,828.6325,407.8048,827.5025,406.7899,826.709,406.1959,825.9565,405.6531,824.9652,404.8117,824.0995,404.1274,824.1191,404.1389,825.0844,405.8225,826.1391,407.5585,827.1506,409.2692,828.2444,411.028,829.07,412.63" style="stroke: #FFD700; stroke-width: 2.0;"/><!--link Model1 to Model3--><path d="M920.905,467.095 L921.1032,467.2932 L913.1485,474.0703 L906.3555,482.0091 L899.1842,489.5696 L890.7689,495.8862 L884.0024,503.8514 L876.3076,510.8885 L868.9823,518.295 L861.978,526.0225 " fill="none" style="stroke: #FFD700; stroke-width: 2.0; stroke-dasharray: 7.0,7.0;"/><polygon fill="#FFD700" points="858.39,529.6099,858.4152,529.6753,860.1789,528.7739,862.0901,528.2557,863.9532,527.6128,865.6585,526.5594,867.5823,526.0742,867.5823,526.0483,866.4509,525.932,865.3196,525.9464,864.1882,526.0515,863.0568,525.8438,861.9255,526.0743,862.11,526.0743,861.7153,524.9429,861.8595,523.8116,862.0694,522.6802,861.8968,521.5488,861.9253,520.4174,861.9466,520.4256,861.2083,522.2521,860.5668,524.1158,859.8785,525.9615,859.2793,527.8415,858.39,529.6099" style="stroke: #FFD700; stroke-width: 2.0;"/><!--link Model2 to Model3--><path d="M832,467.095 L832.2802,467.095 L831.4476,476.609 L832.2577,486.123 L832.5329,495.6371 L831.0488,505.1511 L831.8964,514.6651 L832,524.1791 " fill="none" style="stroke: #FFD700; stroke-width: 2.0; stroke-dasharray: 7.0,7.0;"/><polygon fill="#FFD700" points="832,529.6099,832.064,529.6384,832.6738,527.7538,833.6589,526.0361,834.5217,524.264,834.9827,522.3133,836,520.6099,835.9817,520.5916,835.0995,521.3094,834.3096,522.1195,833.5839,522.9938,832.637,523.6469,832,524.6099,832.1305,524.7404,831.0514,523.6613,830.3534,522.9633,829.7018,522.3117,828.7798,521.3897,828,520.6099,828.0208,520.6191,828.7903,522.4056,829.6544,524.2341,830.4728,526.0423,831.3784,527.8892,832,529.6099" style="stroke: #FFD700; stroke-width: 2.0;"/><!--link Controller1 to Model3--><path d="M666.935,321.104 L666.9834,321.1839 L669.0923,322.3104 L671.4849,323.9053 L673.7851,325.3477 L675.7816,326.2885 L678.1985,327.9236 L678.1788,327.8952 L680.2884,329.2862 L682.4968,330.8205 L684.7741,332.4543 L686.8143,333.745 L689.1866,335.5164 L689.341,335.708 L691.0866,336.9703 L693.2829,338.7922 L695.5342,340.6822 L697.4656,342.1751 L699.5652,343.877 L699.5863,343.8988 L701.4423,345.6914 L703.3943,347.5832 L705.3,349.4272 L707.294,351.3625 L709,353 L709.2247,353.1962 L710.8207,355.0234 L712.2718,356.7242 L713.9351,358.6102 L715.6082,360.5049 L716.9664,362.1245 L716.711,361.9309 L718.5345,364.0587 L719.5169,365.5491 L721.1387,367.524 L722.102,369 L723.6051,370.8849 L723.579,370.8693 L725.8865,374.391 L727.5837,377.5473 L729.6411,380.9192 L731.7287,384.3092 L733.5982,387.5686 L733.7685,387.6408 L734.9524,390.7664 L736.4274,394.0154 L737.4315,397.0648 L739.1379,400.4119 L740.3774,403.561 L740.6098,403.634 L741.5586,406.7824 L742.6227,409.967 L743.1506,412.9833 L744.0716,416.123 L745.3409,419.372 L745.075,419.2971 L746.2249,422.5928 L747.0751,425.8041 L748.3599,429.1378 L748.9028,432.2625 L749.8867,435.5115 L749.7418,435.4643 L751.0885,438.9385 L751.8155,442.2109 L752.9832,445.6268 L754.5821,449.1831 L755.4131,452.4894 L755.5909,452.5661 L757.2939,456.2839 L758.4438,459.7632 L760.2864,463.5413 L761.9781,467.2543 L763.3182,470.8156 L763.1332,470.7162 L764.3369,472.761 L765.4801,474.7733 L766.7422,476.8495 L767.5417,478.6771 L768.5996,480.6436 L768.7745,480.7517 L769.6703,482.5855 L770.9037,484.6279 L772.6302,486.9751 L773.4489,488.7612 L775,491 L775.1854,491.1296 L776.3492,492.876 L777.4502,494.5786 L778.6928,496.3801 L780.2627,498.4103 L781.3695,500.1169 L781.264,500.0359 L782.9588,502.0751 L783.9359,503.5632 L785.7291,505.678 L787.0628,507.4399 L788.2728,509.1068 L788.3567,509.1761 L789.7247,510.8582 L791.3933,512.7885 L792.7903,514.4945 L794.0739,516.1068 L795.4517,517.7969 L795.5413,517.8755 L796.8474,519.4024 L798.5698,521.2939 L799.8212,522.7731 L801.2664,524.4219 L802.648,526.015 " fill="none" style="stroke: #FFD700; stroke-width: 2.0; stroke-dasharray: 7.0,7.0;"/><polygon fill="#FFD700" points="806.11,529.8264,806.1765,529.8484,805.3604,527.9129,804.9343,526.1063,804.3812,524.2577,803.4104,522.2711,803.0178,520.4756,802.9919,520.4743,802.8217,521.5988,802.782,522.7296,802.8329,523.8647,802.5713,524.9849,802.7475,526.126,802.7563,526.3103,801.6073,525.862,800.4841,525.952,799.3641,526.1076,798.2258,525.8811,797.0971,525.8556,797.1062,525.8765,798.8954,526.64,800.7262,527.4984,802.537,528.311,804.3861,529.2109,806.11,529.8264" style="stroke: #FFD700; stroke-width: 2.0;"/><!--
@startuml

allow_mixing
skinparam backgroundColor #222222
skinparam handwritten true

skinparam shadowing false
skinparam padding 1
skinparam arrow {
    Thickness 2
    Color #FFD700
    FontSize 20
    FontName courier
    FontStyle bold
    FontColor #FFD700
}
skinparam package {
    BorderThickness 3
    BorderColor #FFD700
    BackgroundColor #222222
    FontSize 20
    FontName courier
    FontStyle bold
    FontColor #FFD700
}

skinparam class {
    BorderThickness 3
    BorderColor #FFD700
    BackgroundColor #222222
    FontSize 20
    FontName courier
    FontStyle bold
    FontColor #FFD700
}

skinparam actor {
    BorderThickness 3
    BorderColor #FFD700
    BackgroundColor #222222
    FontSize 20
    FontName courier
    FontStyle bold
    FontColor #FFD700
}
skinparam note{
    BorderThickness 3
    BorderColor #FFD700
    BackgroundColor #222222
    FontSize 20
    FontName courier
    FontStyle bold
    FontColor #FFD700
}
hide circle
actor Actor

package views {
class View1
class View2
class View3
}

package controllers {
class Controller1
class Controller2
class Controller3
}

package models {
class Model1
class Model2
class Model3

class Models1
class Models2
}

Actor -right-> View1
Actor -right-> View2
Actor -right-> View3

View1 .down.> View3 : dialog
View1 *-down-> View2 : frame

View2 -right-> Controller1

Controller1 *-down-> Controller2 : include
Controller1 *-down-> Controller3 : extends

Controller1 -right-> Models1
Controller1 -right-> Models2

Models1 .down.> Model1
Models2 .down.> Model2

Model1 .down.> Model3
Model2 .down.> Model3

Controller1 .down.> Model3

@enduml

PlantUML version 1.2019.05(Sat Apr 20 18:45:36 CEST 2019)
(GPL source distribution)
Java Runtime: Java(TM) SE Runtime Environment
JVM: Java HotSpot(TM) 64-Bit Server VM
Java Version: 11.0.8+10-LTS
Operating System: Windows 10
OS Version: 10.0
Default Encoding: windows-1252
Language: es
Country: ES
--></g></svg>