<?xml version="1.0" encoding="UTF-8" standalone="no"?><svg xmlns="http://www.w3.org/2000/svg" xmlns:xlink="http://www.w3.org/1999/xlink" contentScriptType="application/ecmascript" contentStyleType="text/css" height="277px" preserveAspectRatio="none" style="width:1092px;height:277px;background:#222222;" version="1.1" viewBox="0 0 1092 277" width="1092px" zoomAndPan="magnify"><defs/><g><polygon fill="#222222" points="434,2,434,2.2102,444,1.5857,454,2.1933,464,2.3997,474,1.2866,484,1.9223,494,1.5735,504,1.6165,514,1.9318,524,1.3086,534,2.5536,544,1.3697,554,1.8022,564,2.4319,574,1.9142,584,2.0682,594,1.9681,604,2.1785,614,2.2391,624,2.5857,634,2.6711,644,2.6793,654,2.2546,664,2,664.4636,2,664.7022,12.7469,663.2788,23.4938,664.6785,34.2406,663.7035,44.9875,664,55.7344,664,56.2682,654,55.2394,644,55.6659,634,56.476,624,55.6856,614,55.8397,604,56.073,594,56.1506,584,55.7305,574,56.0216,564,55.162,554,56.0188,544,56.2826,534,56.1789,524,56.3474,514,55.2513,504,55.0822,494,55.113,484,55.6755,474,55.5378,464,56.4158,454,55.5597,444,55.3913,434,55.7344,434.2283,55.7344,433.3332,44.9875,433.4809,34.2406,434.649,23.4938,434.4357,12.7469,434,2" style="stroke: #222222; stroke-width: 1.5;"/><text fill="#FFA500" font-family="sans-serif" font-size="30" font-weight="bold" lengthAdjust="spacingAndGlyphs" textLength="208" x="445" y="41.1426">Sintaxis: Valor</text><polygon fill="#222222" points="18.5,146.7344,18.5,146.9446,27.5,146.3201,36.5,146.9277,45.5,147.1341,54.5,146.021,63.5,146.7344,63.4901,146.7104,65.2134,147.3353,66.9866,148.0807,68.7946,148.9101,70.4829,149.4504,72.3388,150.3955,72.5093,150.4662,72.877,152.0829,73.7424,153.9058,74.6686,155.7539,75.2414,157.4557,76,159.2344,76.0227,159.2344,75.9894,162.2344,76.0595,165.2344,76.0797,168.2344,76.1952,171.2344,76,174.2344,76.2067,174.32,75.477,176.0888,74.6139,177.8024,73.9461,179.5968,73.2873,181.395,72.3388,183.0732,72.2468,182.8511,70.6576,184.0144,68.7655,184.4464,67.1036,185.4343,65.2046,185.8497,63.5,186.7344,63.5,186.6659,54.5,187.476,45.5,186.6856,36.5,186.8397,27.5,187.073,18.5,186.7344,18.5531,186.8626,16.7317,186.0009,15.0011,185.3584,13.1237,184.3614,11.4652,183.893,9.6612,183.0732,9.83,183.1431,9.0658,181.3621,8.3855,179.6159,7.3157,177.7083,6.5314,175.9189,6,174.2344,5.7929,174.2344,5.9804,171.2344,5.9345,168.2344,6.2271,165.2344,5.9418,162.2344,6,159.2344,5.8944,159.1906,6.8025,157.4957,7.2591,155.6138,8.0368,153.8649,9.1288,152.2461,9.6612,150.3955,9.7167,150.5297,11.5226,149.8895,13.1557,148.832,15.0052,148.2971,16.8075,147.6484,18.5,146.7344" style="stroke: #A9A9A9; stroke-width: 1.5;"/><text fill="#A9A9A9" font-family="sans-serif" font-size="15" font-weight="bold" lengthAdjust="spacingAndGlyphs" textLength="54" x="14" y="172.8721">Cadena</text><path d="M111,149.2344 L111,162.7344 L76.0684,166.7344 L111,170.7344 L111,184.1016 A0,0 0 0 0 111,184.1016 L241,184.1016 A0,0 0 0 0 241,184.1016 L241,159.2344 L231,149.2344 L111,149.2344 A0,0 0 0 0 111,149.2344 " fill="#222222" style="stroke: #A9A9A9; stroke-width: 1.0;"/><path d="M231,149.2344 L231.1868,149.2344 L230.6317,151.2344 L231.1718,153.2344 L231.3553,155.2344 L230.3659,157.2344 L231,159.2344 L231,159.1653 L233,158.8553 L235,158.8935 L237,159.1738 L239,158.6198 L241,159.2344 L241.348,159.5824 L238.6038,156.8382 L236.8757,155.1101 L235.2715,153.5059 L232.9461,151.1805 L231,149.2344 " fill="#222222" style="stroke: #A9A9A9; stroke-width: 1.0;"/><text fill="#00FFFF" font-family="sans-serif" font-size="15" font-weight="bold" lengthAdjust="spacingAndGlyphs" textLength="7" x="120" y="172.8057">"</text><text fill="#FFFF00" font-family="sans-serif" font-size="15" font-weight="bold" lengthAdjust="spacingAndGlyphs" textLength="89" x="127" y="172.8057">identificador</text><text fill="#00FFFF" font-family="sans-serif" font-size="15" font-weight="bold" lengthAdjust="spacingAndGlyphs" textLength="7" x="216" y="172.8057">"</text><polygon fill="#222222" points="288.5,146.7344,288.5,146.9446,297.9,146.3201,307.3,146.9277,316.7,147.1341,326.1,146.021,335.5,146.7344,335.4901,146.7104,337.2134,147.3353,338.9866,148.0807,340.7946,148.9101,342.4829,149.4504,344.3388,150.3955,344.5093,150.4662,344.877,152.0829,345.7424,153.9058,346.6686,155.7539,347.2414,157.4557,348,159.2344,348.0227,159.2344,347.9894,162.2344,348.0595,165.2344,348.0797,168.2344,348.1952,171.2344,348,174.2344,348.2067,174.32,347.477,176.0888,346.6139,177.8024,345.9461,179.5968,345.2873,181.395,344.3388,183.0732,344.2468,182.8511,342.6576,184.0144,340.7655,184.4464,339.1036,185.4343,337.2046,185.8497,335.5,186.7344,335.5,186.6659,326.1,187.476,316.7,186.6856,307.3,186.8397,297.9,187.073,288.5,186.7344,288.5531,186.8626,286.7317,186.0009,285.0011,185.3584,283.1237,184.3614,281.4652,183.893,279.6612,183.0732,279.83,183.1431,279.0658,181.3621,278.3855,179.6159,277.3157,177.7083,276.5314,175.9189,276,174.2344,275.7929,174.2344,275.9804,171.2344,275.9345,168.2344,276.2271,165.2344,275.9418,162.2344,276,159.2344,275.8944,159.1906,276.8025,157.4957,277.2591,155.6138,278.0368,153.8649,279.1288,152.2461,279.6612,150.3955,279.7167,150.5297,281.5226,149.8895,283.1557,148.832,285.0052,148.2971,286.8075,147.6484,288.5,146.7344" style="stroke: #A9A9A9; stroke-width: 1.5;"/><text fill="#A9A9A9" font-family="sans-serif" font-size="15" font-weight="bold" lengthAdjust="spacingAndGlyphs" textLength="56" x="284" y="172.8721">Número</text><path d="M383,149.2344 L383,162.7344 L348.133,166.7344 L383,170.7344 L383,184.1016 A0,0 0 0 0 383,184.1016 L491,184.1016 A0,0 0 0 0 491,184.1016 L491,159.2344 L481,149.2344 L383,149.2344 A0,0 0 0 0 383,149.2344 " fill="#222222" style="stroke: #A9A9A9; stroke-width: 1.0;"/><path d="M481,149.2344 L481.1868,149.2344 L480.6317,151.2344 L481.1718,153.2344 L481.3553,155.2344 L480.3659,157.2344 L481,159.2344 L481,159.1653 L483,158.8553 L485,158.8935 L487,159.1738 L489,158.6198 L491,159.2344 L491.348,159.5824 L488.6038,156.8382 L486.8757,155.1101 L485.2715,153.5059 L482.9461,151.1805 L481,149.2344 " fill="#222222" style="stroke: #A9A9A9; stroke-width: 1.0;"/><text fill="#FFFF00" font-family="sans-serif" font-size="15" font-weight="bold" lengthAdjust="spacingAndGlyphs" textLength="5" x="392" y="172.8057">[</text><text fill="#00FFFF" font-family="sans-serif" font-size="15" font-weight="bold" lengthAdjust="spacingAndGlyphs" textLength="9" x="397" y="172.8057">+</text><text fill="#FFFF00" font-family="sans-serif" font-size="15" font-weight="bold" lengthAdjust="spacingAndGlyphs" textLength="0" x="410" y="172.8057"/><text fill="#FFFF00" font-family="sans-serif" font-size="15" font-weight="bold" lengthAdjust="spacingAndGlyphs" textLength="0" x="414" y="172.8057"/><text fill="#00FFFF" font-family="sans-serif" font-size="15" font-weight="bold" lengthAdjust="spacingAndGlyphs" textLength="5" x="414" y="172.8057">-</text><text fill="#FFFF00" font-family="sans-serif" font-size="15" font-weight="bold" lengthAdjust="spacingAndGlyphs" textLength="54" x="419" y="172.8057">]digito+</text><polygon fill="#222222" points="538.5,146.7344,538.5,146.8044,546.3,146.5963,554.1,146.7988,561.9,146.8676,569.7,146.4966,577.5,146.7344,577.4901,146.7104,579.2134,147.3353,580.9866,148.0807,582.7946,148.9101,584.4829,149.4504,586.3388,150.3955,586.5093,150.4662,586.877,152.0829,587.7424,153.9058,588.6686,155.7539,589.2414,157.4557,590,159.2344,590.0227,159.2344,589.9894,162.2344,590.0595,165.2344,590.0797,168.2344,590.1952,171.2344,590,174.2344,590.2067,174.32,589.477,176.0888,588.6139,177.8024,587.9461,179.5968,587.2873,181.395,586.3388,183.0732,586.2468,182.8511,584.6576,184.0144,582.7655,184.4464,581.1036,185.4343,579.2046,185.8497,577.5,186.7344,577.5,186.7115,569.7,186.9816,561.9,186.7181,554.1,186.7695,546.3,186.8473,538.5,186.7344,538.5531,186.8626,536.7317,186.0009,535.0011,185.3584,533.1237,184.3614,531.4652,183.893,529.6612,183.0732,529.83,183.1431,529.0658,181.3621,528.3855,179.6159,527.3157,177.7083,526.5314,175.9189,526,174.2344,525.7929,174.2344,525.9804,171.2344,525.9345,168.2344,526.2271,165.2344,525.9418,162.2344,526,159.2344,525.8944,159.1906,526.8025,157.4957,527.2591,155.6138,528.0368,153.8649,529.1288,152.2461,529.6612,150.3955,529.7167,150.5297,531.5226,149.8895,533.1557,148.832,535.0052,148.2971,536.8075,147.6484,538.5,146.7344" style="stroke: #A9A9A9; stroke-width: 1.5;"/><text fill="#A9A9A9" font-family="sans-serif" font-size="15" font-weight="bold" lengthAdjust="spacingAndGlyphs" textLength="48" x="534" y="172.8721">Lógico</text><path d="M625,149.2344 L625,162.7344 L590.172,166.7344 L625,170.7344 L625,184.1016 A0,0 0 0 0 625,184.1016 L723,184.1016 A0,0 0 0 0 723,184.1016 L723,159.2344 L713,149.2344 L625,149.2344 A0,0 0 0 0 625,149.2344 " fill="#222222" style="stroke: #A9A9A9; stroke-width: 1.0;"/><path d="M713,149.2344 L713.1868,149.2344 L712.6317,151.2344 L713.1718,153.2344 L713.3553,155.2344 L712.3659,157.2344 L713,159.2344 L713,159.1653 L715,158.8553 L717,158.8935 L719,159.1738 L721,158.6198 L723,159.2344 L723.348,159.5824 L720.6038,156.8382 L718.8757,155.1101 L717.2715,153.5059 L714.9461,151.1805 L713,149.2344 " fill="#222222" style="stroke: #A9A9A9; stroke-width: 1.0;"/><text fill="#00FFFF" font-family="sans-serif" font-size="15" font-weight="bold" lengthAdjust="spacingAndGlyphs" textLength="29" x="634" y="172.8057">true</text><text fill="#FFFF00" font-family="sans-serif" font-size="15" font-weight="bold" lengthAdjust="spacingAndGlyphs" textLength="0" x="671" y="172.8057"/><text fill="#00FFFF" font-family="sans-serif" font-size="15" font-weight="bold" lengthAdjust="spacingAndGlyphs" textLength="34" x="671" y="172.8057">false</text><polygon fill="#222222" points="770.5,146.7344,770.5,146.8044,775.5,146.5963,780.5,146.7988,785.5,146.8676,790.5,146.4966,795.5,146.7344,795.4901,146.7104,797.2134,147.3353,798.9866,148.0807,800.7946,148.9101,802.4829,149.4504,804.3388,150.3955,804.5093,150.4662,804.877,152.0829,805.7424,153.9058,806.6686,155.7539,807.2414,157.4557,808,159.2344,808.0227,159.2344,807.9894,162.2344,808.0595,165.2344,808.0797,168.2344,808.1952,171.2344,808,174.2344,808.2067,174.32,807.477,176.0888,806.6139,177.8024,805.9461,179.5968,805.2873,181.395,804.3388,183.0732,804.2468,182.8511,802.6576,184.0144,800.7655,184.4464,799.1036,185.4343,797.2046,185.8497,795.5,186.7344,795.5,186.7115,790.5,186.9816,785.5,186.7181,780.5,186.7695,775.5,186.8473,770.5,186.7344,770.5531,186.8626,768.7317,186.0009,767.0011,185.3584,765.1237,184.3614,763.4652,183.893,761.6612,183.0732,761.83,183.1431,761.0658,181.3621,760.3855,179.6159,759.3157,177.7083,758.5314,175.9189,758,174.2344,757.7929,174.2344,757.9804,171.2344,757.9345,168.2344,758.2271,165.2344,757.9418,162.2344,758,159.2344,757.8944,159.1906,758.8025,157.4957,759.2591,155.6138,760.0368,153.8649,761.1288,152.2461,761.6612,150.3955,761.7167,150.5297,763.5226,149.8895,765.1557,148.832,767.0052,148.2971,768.8075,147.6484,770.5,146.7344" style="stroke: #A9A9A9; stroke-width: 1.5;"/><text fill="#A9A9A9" font-family="sans-serif" font-size="15" font-weight="bold" lengthAdjust="spacingAndGlyphs" textLength="33" x="766.5" y="172.8721">Nulo</text><path d="M843.5,149.2344 L843.5,162.7344 L808.148,166.7344 L843.5,170.7344 L843.5,184.1016 A0,0 0 0 0 843.5,184.1016 L896.5,184.1016 A0,0 0 0 0 896.5,184.1016 L896.5,159.2344 L886.5,149.2344 L843.5,149.2344 A0,0 0 0 0 843.5,149.2344 " fill="#222222" style="stroke: #A9A9A9; stroke-width: 1.0;"/><path d="M886.5,149.2344 L886.6868,149.2344 L886.1317,151.2344 L886.6718,153.2344 L886.8553,155.2344 L885.8659,157.2344 L886.5,159.2344 L886.5,159.1653 L888.5,158.8553 L890.5,158.8935 L892.5,159.1738 L894.5,158.6198 L896.5,159.2344 L896.848,159.5824 L894.1038,156.8382 L892.3757,155.1101 L890.7715,153.5059 L888.4461,151.1805 L886.5,149.2344 " fill="#222222" style="stroke: #A9A9A9; stroke-width: 1.0;"/><text fill="#00FFFF" font-family="sans-serif" font-size="15" font-weight="bold" lengthAdjust="spacingAndGlyphs" textLength="26" x="852.5" y="172.8057">null</text><polygon fill="#222222" points="944.5,146.7344,944.5,146.8044,952.3,146.5963,960.1,146.7988,967.9,146.8676,975.7,146.4966,983.5,146.7344,983.4901,146.7104,985.2134,147.3353,986.9866,148.0807,988.7946,148.9101,990.4829,149.4504,992.3388,150.3955,992.5093,150.4662,992.877,152.0829,993.7424,153.9058,994.6686,155.7539,995.2414,157.4557,996,159.2344,996.0227,159.2344,995.9894,162.2344,996.0595,165.2344,996.0797,168.2344,996.1952,171.2344,996,174.2344,996.2067,174.32,995.477,176.0888,994.6139,177.8024,993.9461,179.5968,993.2873,181.395,992.3388,183.0732,992.2468,182.8511,990.6576,184.0144,988.7655,184.4464,987.1036,185.4343,985.2046,185.8497,983.5,186.7344,983.5,186.7115,975.7,186.9816,967.9,186.7181,960.1,186.7695,952.3,186.8473,944.5,186.7344,944.5531,186.8626,942.7317,186.0009,941.0011,185.3584,939.1237,184.3614,937.4652,183.893,935.6612,183.0732,935.83,183.1431,935.0658,181.3621,934.3855,179.6159,933.3157,177.7083,932.5314,175.9189,932,174.2344,931.7929,174.2344,931.9804,171.2344,931.9345,168.2344,932.2271,165.2344,931.9418,162.2344,932,159.2344,931.8944,159.1906,932.8025,157.4957,933.2591,155.6138,934.0368,153.8649,935.1288,152.2461,935.6612,150.3955,935.7167,150.5297,937.5226,149.8895,939.1557,148.832,941.0052,148.2971,942.8075,147.6484,944.5,146.7344" style="stroke: #A9A9A9; stroke-width: 1.5;"/><text fill="#FFA500" font-family="sans-serif" font-size="15" font-weight="bold" lengthAdjust="spacingAndGlyphs" textLength="48" x="940" y="172.8721">Objeto</text><polygon fill="#222222" points="1043.5,146.7344,1043.5,146.8044,1048.5,146.5963,1053.5,146.7988,1058.5,146.8676,1063.5,146.4966,1068.5,146.7344,1068.4901,146.7104,1070.2134,147.3353,1071.9866,148.0807,1073.7946,148.9101,1075.4829,149.4504,1077.3388,150.3955,1077.5093,150.4662,1077.877,152.0829,1078.7424,153.9058,1079.6686,155.7539,1080.2414,157.4557,1081,159.2344,1081.0227,159.2344,1080.9894,162.2344,1081.0595,165.2344,1081.0797,168.2344,1081.1952,171.2344,1081,174.2344,1081.2067,174.32,1080.477,176.0888,1079.6139,177.8024,1078.9461,179.5968,1078.2873,181.395,1077.3388,183.0732,1077.2468,182.8511,1075.6576,184.0144,1073.7655,184.4464,1072.1036,185.4343,1070.2046,185.8497,1068.5,186.7344,1068.5,186.7115,1063.5,186.9816,1058.5,186.7181,1053.5,186.7695,1048.5,186.8473,1043.5,186.7344,1043.5531,186.8626,1041.7317,186.0009,1040.0011,185.3584,1038.1237,184.3614,1036.4652,183.893,1034.6612,183.0732,1034.83,183.1431,1034.0658,181.3621,1033.3855,179.6159,1032.3157,177.7083,1031.5314,175.9189,1031,174.2344,1030.7929,174.2344,1030.9804,171.2344,1030.9345,168.2344,1031.2271,165.2344,1030.9418,162.2344,1031,159.2344,1030.8944,159.1906,1031.8025,157.4957,1032.2591,155.6138,1033.0368,153.8649,1034.1288,152.2461,1034.6612,150.3955,1034.7167,150.5297,1036.5226,149.8895,1038.1557,148.832,1040.0052,148.2971,1041.8075,147.6484,1043.5,146.7344" style="stroke: #A9A9A9; stroke-width: 1.5;"/><text fill="#FFA500" font-family="sans-serif" font-size="15" font-weight="bold" lengthAdjust="spacingAndGlyphs" textLength="34" x="1039" y="172.8721">Lista</text><polygon fill="#A9A9A9" points="680.0552,79.1668,678.5894,81.1696,676.8556,84.1032,674.376,86.0802,671.7703,87.1613,669.6927,87.2551,667.0224,85.9031,664.5029,85.0198,662.5905,83.2264,661.5873,81.1733,660.9924,79.5385,660.4096,77.4032,659.4636,75.5657,660.1906,73.7717,660.8275,71.8064,663.2175,70.2521,664.8991,68.2354,666.9804,67.5657,669.4547,66.989,672.6276,67.3316,674.3655,68.1512,676.3861,68.5227,678.8429,71.0398,679.6993,73.6971,680.0714,75.5101,679.65,78.4979" style="stroke: none; stroke-width: 1.0;"/><polygon fill="none" points="680.0552,259.1668,678.5894,261.1696,676.8556,264.1032,674.376,266.0802,671.7703,267.1613,669.6927,267.2551,667.0224,265.9031,664.5029,265.0198,662.5905,263.2264,661.5873,261.1733,660.9924,259.5385,660.4096,257.4032,659.4636,255.5657,660.1906,253.7717,660.8275,251.8064,663.2175,250.2521,664.8991,248.2354,666.9804,247.5657,669.4547,246.989,672.6276,247.3316,674.3655,248.1512,676.3861,248.5227,678.8429,251.0398,679.6993,253.6971,680.0714,255.5101,679.65,258.4979" style="stroke: #A9A9A9; stroke-width: 1.0;"/><polygon fill="#A9A9A9" points="676.5331,258.6938,675.6536,259.8955,674.6134,261.6557,673.1256,262.8419,671.5622,263.4905,670.3156,263.5468,668.7135,262.7356,667.2017,262.2056,666.0543,261.1296,665.4524,259.8977,665.0955,258.9168,664.7458,257.6357,664.1782,256.5332,664.6143,255.4567,664.9965,254.2776,666.4305,253.345,667.4394,252.135,668.6882,251.7332,670.1728,251.3871,672.0766,251.5927,673.1193,252.0845,674.3317,252.3074,675.8057,253.8176,676.3196,255.412,676.5429,256.4998,676.29,258.2925" style="stroke: none; stroke-width: 1.0;"/><!--link *start to Cadena--><path d="M659.971,78.0684 L659.975,78.1617 L653.6866,78.1515 L647.4214,78.6884 L641.1487,79.0472 L634.8511,78.82 L628.588,79.4039 L628.5862,79.3694 L624.0445,79.4456 L619.5116,79.6957 L614.9848,80.0667 L610.4369,80.021 L605.9186,80.5589 L605.9328,80.8046 L600.551,80.5871 L595.2105,81.0869 L589.875,81.6742 L584.5102,81.7523 L579.1609,82.0982 L579.1628,82.1285 L573.0752,82.4776 L566.9966,82.9646 L560.9136,83.385 L554.8388,83.9323 L548.7373,84.0662 L548.7589,84.3636 L542.0258,84.8555 L535.2788,85.1555 L528.5521,85.7364 L521.8264,86.3304 L515.0705,86.5073 L515.0446,86.1879 L507.7974,87.3997 L500.4649,87.5595 L493.1973,88.5191 L485.8628,88.6551 L478.5831,89.4662 L478.5804,89.4359 L470.8358,90.4987 L463.027,90.853 L455.2561,91.6254 L447.4884,92.4329 L439.6978,92.9873 L439.7163,93.1713 L431.5254,93.8111 L423.3663,94.7654 L415.1557,95.2108 L407.0218,96.4152 L398.837,97.115 L398.8643,97.3571 L390.3764,98.2671 L381.9021,99.2973 L373.3648,99.769 L364.8737,100.6501 L356.4235,101.8939 L356.3899,101.6198 L352.0889,102.3975 L347.7501,102.8663 L343.466,103.7831 L339.0884,103.9349 L334.7665,104.5415 L334.7469,104.3903 L330.4021,105.2075 L325.9738,105.3784 L321.6049,106.0089 L317.2941,107.0892 L312.8798,107.3686 L312.906,107.5604 L308.5112,108.2944 L304.035,108.4317 L299.6608,109.3164 L295.2644,110.0382 L290.8162,110.3807 L290.7862,110.1728 L286.3725,110.979 L281.9491,111.7172 L277.5449,112.589 L273.0658,112.941 L268.6285,113.5834 L268.6595,113.7866 L264.1396,114.0198 L259.6795,114.6454 L255.3069,115.8439 L250.7733,115.9875 L246.3696,116.9822 L246.4057,117.2055 L241.9288,117.793 L237.4397,118.3049 L232.9781,118.9874 L228.5803,120.064 L224.0923,120.5828 L224.0698,120.4517 L219.6881,121.6037 L215.1537,121.8639 L210.7929,123.1381 L206.3343,123.8413 L201.8494,124.3908 L201.8688,124.4979 L197.422,125.2156 L193.0448,126.3168 L188.6047,127.0715 L184.1383,127.6814 L179.6937,128.4115 L179.7163,128.5286 L175.2797,129.2025 L170.9477,130.4199 L166.4974,131.0226 L162.0958,131.8782 L157.6781,132.6507 L157.624,132.3858 L153.2775,133.3669 L148.9963,134.6671 L144.6228,135.5157 L140.2161,136.2025 L135.8554,137.1139 L135.825,136.9739 L131.5194,137.9573 L127.1598,138.6929 L122.9484,140.1096 L118.6637,141.1892 L114.2784,141.8066 L114.3312,142.0345 L110.0924,143.093 L105.7534,143.7185 L101.5201,144.801 L97.2168,145.581 L93,146.7344 L93.0338,146.856 L90.6648,147.4976 L88.3366,148.2861 L85.8789,148.6088 L83.5257,149.3072 L81.1771,150.0224 " fill="none" style="stroke: #A9A9A9; stroke-width: 1.0;"/><polygon fill="#A9A9A9" points="76.1888,151.6394,76.1961,151.7091,78.1333,151.7081,80.1135,152.1156,82.0796,152.3902,83.9998,152.2273,85.9836,152.6699,85.9718,152.6468,84.9113,152.0288,83.9101,151.5272,82.9503,151.1064,81.8481,150.407,80.9452,150.0979,81.1096,150.1818,81.2725,148.9947,81.9153,148.0526,82.6167,147.1403,82.9774,146.0542,83.5172,145.0595,83.5324,145.0765,82.0444,146.3676,80.6256,147.7358,79.1734,149.0668,77.7849,150.4687,76.1888,151.6394" style="stroke: #A9A9A9; stroke-width: 1.0;"/><!--link *start to Numero--><path d="M660.145,79.5104 L660.1621,79.6022 L656.3147,80.0355 L652.5674,81.0072 L648.7875,81.8036 L644.9004,82.0234 L641.1618,83.0413 L641.1552,83.0074 L635.6863,83.9031 L630.2503,84.9698 L624.8371,86.1553 L619.3451,86.9313 L613.9636,88.2809 L614.012,88.5222 L607.1357,89.3642 L600.4007,90.9107 L593.6829,92.5431 L586.8648,93.6755 L580.0995,95.0708 L580.1057,95.1005 L572.3003,96.6933 L564.5233,98.4213 L556.7326,100.084 L548.968,101.8711 L541.1183,103.2527 L541.1827,103.544 L532.6736,105.4306 L524.1229,107.1295 L515.6331,109.1033 L507.1461,111.09 L498.5688,112.6684 L498.4965,112.3561 L494.211,113.9864 L489.6876,114.5884 L485.345,115.9721 L480.8162,116.5508 L476.44,117.7894 L476.4329,117.7597 L472.0287,119.1839 L467.459,119.9163 L462.9869,121.0569 L458.523,122.2318 L454,123.1594 L454.0446,123.3389 L449.4881,124.2776 L445.0077,125.523 L440.4041,126.2721 L435.9844,127.7615 L431.4424,128.7587 L431.5033,128.9946 L426.9955,130.1117 L422.5179,131.346 L417.8997,132.0361 L413.3846,133.1251 L408.9608,134.5675 L408.8888,134.3009 L404.5116,135.7419 L400.0532,136.8826 L395.7125,138.459 L391.1709,139.2913 L386.7488,140.566 L386.7072,140.4193 L382.4267,141.8973 L377.9684,142.7482 L373.6366,144.0451 L369.4285,145.7782 L365,146.7344 L365.0578,146.9192 L362.6588,147.8083 L360.0801,148.1227 L357.7265,149.157 L355.3239,150.0344 L352.807,150.5464 " fill="none" style="stroke: #A9A9A9; stroke-width: 1.0;"/><polygon fill="#A9A9A9" points="348.015,152.1614,348.0215,152.2311,349.9634,152.207,351.9435,152.5919,353.9111,152.8436,355.8378,152.6573,357.8212,153.0773,357.8097,153.0541,356.7444,152.4473,355.7372,151.9576,354.7702,151.5492,353.6643,150.8605,352.7531,150.5644,352.9184,150.6464,353.0675,149.4574,353.6992,148.5079,354.3898,147.5875,354.7378,146.4972,355.266,145.4963,355.2814,145.5131,353.8086,146.8215,352.4059,148.2062,350.9693,149.554,349.5973,150.9721,348.015,152.1614" style="stroke: #A9A9A9; stroke-width: 1.0;"/><!--link *start to Logico--><path d="M662.302,83.7834 L662.4751,84.0037 L654.3718,89.3117 L647.2834,95.9114 L639.8645,102.0905 L631.3587,106.8862 L624.2935,113.5154 L616.4173,119.1124 L608.8638,125.1202 L601.5347,131.4135 L593.4324,136.7228 L586.413,143.4104 " fill="none" style="stroke: #A9A9A9; stroke-width: 1.0;"/><polygon fill="#A9A9A9" points="582.449,146.5244,582.4662,146.5923,584.3248,145.9076,586.2841,145.621,588.2106,145.2048,590.0293,144.3622,591.9973,144.1099,591.9942,144.0841,590.8571,143.8338,589.7355,143.7132,588.6247,143.6827,587.4766,143.3416,586.3808,143.4355,586.564,143.4575,586.3071,142.2872,586.5851,141.1811,586.9284,140.0828,586.8919,138.9389,587.0551,137.819,587.0752,137.8296,586.1245,139.5551,585.2653,141.329,584.3619,143.0795,583.5428,144.8746,582.449,146.5244" style="stroke: #A9A9A9; stroke-width: 1.0;"/><!--link *start to Nulo--><path d="M677.414,83.5084 L677.5862,83.7295 L684.7436,89.0448 L692.9103,95.6563 L700.7484,101.8457 L707.5056,106.6471 L715.6953,113.2881 L723.0786,118.8935 L730.7828,124.911 L738.7102,131.2151 L745.8686,136.5318 L754.104,143.2314 " fill="none" style="stroke: #A9A9A9; stroke-width: 1.0;"/><polygon fill="#A9A9A9" points="758.132,146.3684,758.1938,146.4014,757.0815,144.5662,756.3315,142.9245,755.4634,141.2199,754.2076,139.3078,753.4886,137.6828,753.4629,137.6796,753.4872,138.788,753.6411,139.9125,753.8851,141.0482,753.8186,142.1452,754.187,143.2964,754.2098,143.4795,753.0384,143.2276,751.9334,143.5103,750.8366,143.8583,749.6926,143.8268,748.5734,143.9948,748.5789,144.0169,750.4826,144.4592,752.4112,145.002,754.3278,145.4963,756.2673,146.0831,758.132,146.3684" style="stroke: #A9A9A9; stroke-width: 1.0;"/><!--link *start to Objeto--><path d="M679.856,80.1904 L679.8792,80.2809 L687.406,81.9609 L695.0689,84.1713 L702.6875,86.209 L710.1603,87.6787 L717.8349,89.9347 L717.826,89.9013 L723.1918,91.181 L728.6021,92.629 L734.0433,94.1941 L739.3779,95.3559 L744.8619,97.0825 L744.9263,97.32 L750.9564,98.4862 L757.1747,100.3458 L763.4159,102.2899 L769.5236,103.7419 L775.7015,105.4528 L775.7097,105.482 L782.3963,107.3134 L789.1201,109.2777 L795.8259,111.1779 L802.566,113.2006 L809.1944,114.8242 L809.2775,115.1106 L816.2759,117.1444 L823.2207,118.9934 L830.244,121.1129 L837.271,123.2451 L844.1814,124.9756 L844.0884,124.6689 L851.3332,127.4063 L858.2718,129.1337 L865.4432,131.629 L872.3748,133.3335 L879.503,135.6861 L879.4938,135.6571 L883.087,137.0996 L886.4661,137.8637 L889.9715,139.0282 L893.4875,140.2262 L896.927,141.1818 L896.9842,141.3577 L900.3411,142.2907 L903.7957,143.5242 L907.0921,144.2714 L910.6245,145.7441 L914,146.7344 L914.0801,146.9645 L916.6896,147.8352 L919.3388,148.8201 L921.8032,149.2742 L924.4031,150.1174 L927.123,151.3054 " fill="none" style="stroke: #A9A9A9; stroke-width: 1.0;"/><polygon fill="#A9A9A9" points="931.872,153.0514,931.9208,153.1017,930.3622,151.5806,929.0896,150.3542,927.7238,149.0319,926.0518,147.3939,924.8037,146.1928,924.7802,146.182,925.1497,147.16,925.6377,148.1928,926.2081,149.2638,926.4946,150.2034,927.1788,151.327,927.2563,151.4944,926.0637,151.6113,925.0974,152.2171,924.1588,152.8827,923.0595,153.201,922.0447,153.702,922.0462,153.7247,924.0094,153.5612,925.9795,153.5011,927.9463,153.3912,929.9194,153.3763,931.872,153.0514" style="stroke: #A9A9A9; stroke-width: 1.0;"/><!--link *start to Lista--><path d="M679.78,78.8704 L679.7917,78.9631 L683.9468,79.2164 L688.1705,80.0131 L692.3719,80.6328 L696.4998,80.6707 L700.7294,81.514 L700.7247,81.4798 L706.8254,82.1724 L712.9499,83.0374 L719.0911,84.0224 L725.1751,84.5941 L731.3391,85.7446 L731.3752,85.988 L734.9676,86.0121 L738.6654,86.7469 L742.376,87.5684 L746.0118,87.8854 L749.687,88.4677 L749.6917,88.4977 L753.6983,89.0807 L757.7262,89.8002 L761.7439,90.4538 L765.7811,91.233 L769.7544,91.6029 L769.8029,91.8971 L774.1145,92.6112 L778.3949,93.1354 L782.721,93.9375 L787.0493,94.7526 L791.3096,95.1551 L791.2546,94.8393 L795.9236,96.2471 L800.4114,96.615 L805.0369,97.7735 L809.5207,98.1179 L814.1206,99.1295 L814.1151,99.0996 L818.9475,100.334 L823.6507,100.8689 L828.4302,101.8165 L833.216,102.7989 L837.9557,103.5312 L837.9913,103.7127 L842.8808,104.4963 L847.8312,105.5901 L852.6831,106.182 L857.6819,107.5225 L862.583,108.3652 L862.6329,108.6037 L867.661,109.6129 L872.7139,110.7405 L877.6516,111.318 L882.6737,112.2987 L887.7707,113.6368 L887.7103,113.3673 L892.8682,114.754 L897.958,115.8372 L903.1465,117.3607 L908.1666,118.1323 L913.2868,119.3508 L913.2512,119.2026 L918.4331,120.6818 L923.4627,121.5274 L928.6006,122.8235 L933.8446,124.5606 L938.8997,125.5125 L938.9483,125.6999 L944.0773,127.1514 L949.0548,128.0199 L954.222,129.6185 L959.3478,131.0581 L964.3774,132.127 L964.3205,131.9249 L969.388,133.5004 L974.4369,135.0098 L979.5224,136.6491 L984.4655,137.783 L989.4881,139.1992 L989.5473,139.3961 L991.8863,139.7054 L994.3396,140.3947 L996.9597,141.6392 L999.2727,141.8616 L1001.8334,142.9086 L1001.9013,143.1244 L1004.2943,143.7614 L1006.6643,144.3253 L1009.0862,145.0541 L1011.6278,146.1637 L1014,146.7344 L1013.9538,146.6096 L1016.4874,147.8688 L1018.7066,148.2796 L1021.2833,149.6551 L1023.6588,150.4874 L1025.98,151.1734 " fill="none" style="stroke: #A9A9A9; stroke-width: 1.0;"/><polygon fill="#A9A9A9" points="1030.6,153.1344,1030.6512,153.1822,1029.1557,151.5995,1027.9606,150.2969,1026.6676,148.9031,1025.053,147.2094,1023.8836,145.9309,1023.8596,145.9212,1024.1748,146.927,1024.6112,147.9817,1025.1317,149.0703,1025.3621,150.0419,1025.9989,151.1774,1026.0679,151.3485,1024.871,151.4056,1023.8757,151.9623,1022.9048,152.5801,1021.791,152.8431,1020.7524,153.2926,1020.7528,153.3154,1022.7218,153.2503,1024.6924,153.2888,1026.6622,153.2774,1028.6336,153.3612,1030.6,153.1344" style="stroke: #A9A9A9; stroke-width: 1.0;"/><!--link Cadena to *end--><path d="M76.1888,181.8295 L76.215,181.9192 L79.4995,182.6337 L82.9373,183.8739 L86.3253,184.9429 L89.549,185.449 L93,186.7344 L92.9922,186.7007 L97.0957,187.509 L101.2385,188.4868 L105.4086,189.5826 L109.4846,190.272 L113.6924,191.5306 L113.7449,191.771 L117.828,192.1716 L122.0642,193.2741 L126.3191,194.4623 L130.4653,195.1522 L134.6687,196.1042 L134.6748,196.1339 L138.9081,196.9615 L143.1692,197.9244 L147.417,198.822 L151.6902,199.8441 L155.8801,200.4603 L155.9369,200.7531 L160.2172,201.5855 L164.4609,202.229 L168.7581,203.1489 L173.0579,204.0818 L177.2782,204.6042 L177.2205,204.2889 L181.6396,205.6881 L185.8689,206.0492 L190.2424,207.1995 L194.4674,207.5371 L198.8142,208.5408 L198.809,208.5108 L203.1953,209.6125 L207.4606,210.0133 L211.7974,210.8276 L216.1401,211.6767 L220.4396,212.2753 L220.4694,212.4579 L224.7725,212.9811 L229.1266,213.8164 L233.3982,214.1468 L237.7928,215.2301 L242.1057,215.8129 L242.1429,216.0537 L246.4675,216.6773 L250.8106,217.4205 L255.0679,217.6082 L259.388,218.203 L263.7639,219.1586 L263.724,218.8854 L268.0805,219.7645 L272.392,220.3358 L276.7688,221.3537 L281.0341,221.609 L285.3657,222.3176 L285.3448,222.1666 L289.679,223.0136 L293.9238,223.215 L298.2321,223.8755 L302.6027,224.9852 L306.8625,225.295 L306.887,225.487 L315.4006,226.7048 L323.8378,227.3252 L332.3707,228.6939 L340.8827,229.8995 L349.3462,230.7253 L349.3223,230.5167 L357.6374,231.636 L365.9447,232.687 L374.2674,233.8722 L382.5301,234.5357 L390.8264,235.4906 L390.8475,235.6951 L398.8186,236.074 L406.8305,236.8476 L414.9019,238.1979 L422.8637,238.4865 L430.914,239.6317 L430.9349,239.8569 L438.5837,240.4347 L446.2255,240.9363 L453.8832,241.6099 L461.5778,242.6811 L469.2202,243.1897 L469.2092,243.0571 L476.4693,244.055 L483.6542,244.1512 L490.9246,245.2726 L498.1469,245.8168 L505.3562,246.2054 L505.3643,246.314 L512.0731,246.7293 L518.8111,247.5333 L525.5227,247.9861 L532.2233,248.292 L538.933,248.7199 L538.941,248.8388 L545.0549,249.073 L551.2058,249.8593 L557.3149,250.0211 L563.4412,250.4397 L569.5618,250.774 L569.5456,250.5041 L575.0094,250.9212 L580.4927,251.6634 L585.9484,251.9455 L591.3942,252.0628 L596.8537,252.4088 L596.8461,252.2658 L601.5617,252.5628 L606.2639,252.6067 L611.0031,253.3466 L615.724,253.742 L620.4198,253.665 L620.4302,253.8987 L627.3134,254.2818 L634.1767,254.2207 L641.061,254.6283 L647.9314,254.7257 L654.819,255.206 " fill="none" style="stroke: #A9A9A9; stroke-width: 1.0;"/><polygon fill="#A9A9A9" points="659.971,255.4,660.0018,255.4629,658.1416,254.4087,656.4623,253.7232,654.724,252.9176,652.7921,251.7172,651.1283,251.0634,651.1093,251.0458,651.7933,251.7963,652.573,252.6357,653.4194,253.5367,654.0363,254.2251,654.9746,255.2114,655.1,255.3467,654.0021,255.8266,653.2705,256.7016,652.5836,257.6248,651.6367,258.2675,650.8265,259.0577,650.835,259.0788,652.6515,258.3163,654.5064,257.6499,656.3428,256.9371,658.2146,256.3128,659.971,255.4" style="stroke: #A9A9A9; stroke-width: 1.0;"/><!--link Numero to *end--><path d="M348.015,181.3076 L348.0434,181.3966 L351.356,182.2175 L354.8351,183.5601 L358.2601,184.7329 L361.5065,185.347 L365,186.7344 L364.9906,186.7011 L369.1261,187.7381 L373.3091,188.9426 L377.5252,190.2635 L381.6274,191.1831 L385.8891,192.6648 L385.9535,192.9023 L390.0807,193.5493 L394.3957,194.8897 L398.7337,196.3147 L402.9383,197.2475 L407.2131,198.4391 L407.2207,198.4685 L411.5269,199.5455 L415.8677,200.7561 L420.1919,201.9023 L424.5479,203.1715 L428.7999,204.0397 L428.8721,204.329 L433.2086,205.4144 L437.4985,206.3132 L441.8566,207.4851 L446.2179,208.6699 L450.478,209.449 L450.4029,209.1373 L454.868,210.7822 L459.0861,211.401 L463.4919,212.7999 L467.7044,213.3954 L472.0753,214.6494 L472.0684,214.6197 L476.4191,215.9652 L480.6084,216.6179 L484.8929,217.6794 L489.1854,218.7752 L493.4203,219.6234 L493.4605,219.804 L501.669,221.4614 L509.9462,223.4274 L518.1121,224.8942 L526.4441,227.1056 L534.6656,228.822 L534.7161,229.0603 L542.3413,230.6317 L549.9916,232.3214 L557.5255,233.4613 L565.1448,235.0042 L572.8396,236.9042 L572.7848,236.6335 L579.58,238.2436 L586.3135,239.5487 L593.1365,241.2963 L599.8067,242.2884 L606.5677,243.7296 L606.5386,243.5799 L612.1687,244.9148 L617.6743,245.6099 L623.2685,246.7599 L628.9492,248.3551 L634.4757,249.1576 L634.5114,249.3479 L638.6786,250.2565 L642.7346,250.5732 L646.9299,251.6312 L651.0948,252.5277 L655.189,253.0479 " fill="none" style="stroke: #A9A9A9; stroke-width: 1.0;"/><polygon fill="#A9A9A9" points="660.145,253.9582,660.1845,254.016,658.4411,252.7323,656.9295,251.7876,655.3423,250.7325,653.5069,249.3144,652.0152,248.3988,651.9939,248.3841,652.5406,249.2494,653.1948,250.1888,653.9237,251.1798,654.3951,251.9932,655.2272,253.0553,655.332,253.2072,654.1766,253.5248,653.3271,254.2858,652.515,255.101,651.4857,255.6014,650.5707,256.2673,650.576,256.2894,652.483,255.7951,654.4143,255.4015,656.334,254.9593,658.2759,254.6098,660.145,253.9582" style="stroke: #A9A9A9; stroke-width: 1.0;"/><!--link Logico to *end--><path d="M582.302,186.8291 L582.4751,187.0494 L589.5585,192.3644 L597.6568,198.9711 L605.4246,205.1572 L612.1055,209.9599 L620.227,216.596 L627.5375,222.2001 L635.1707,228.2148 L643.0283,234.5151 L650.1127,239.8314 L658.28,246.526 " fill="none" style="stroke: #A9A9A9; stroke-width: 1.0;"/><polygon fill="#A9A9A9" points="662.458,249.8088,662.5199,249.8415,661.4147,248.0031,660.6724,246.3568,659.812,244.6479,658.5628,242.7333,657.8517,241.1035,657.826,241.1004,657.8454,242.2098,657.9946,243.3348,658.2338,244.4707,658.1625,245.5692,658.5262,246.72,658.5482,246.9032,657.3778,246.6463,656.2717,246.9243,655.1734,247.2676,654.0295,247.2312,652.9097,247.3944,652.9152,247.4165,654.8167,247.867,656.7436,248.4179,658.6582,248.9203,660.5962,249.5152,662.458,249.8088" style="stroke: #A9A9A9; stroke-width: 1.0;"/><!--link Nulo to *end--><path d="M758.481,186.8291 L758.6532,187.0502 L750.4759,192.3629 L743.3079,198.9718 L735.8113,205.1586 L727.2338,209.9574 L720.0888,216.5958 L712.1374,222.1986 L704.5069,228.2135 L697.0996,234.5149 L688.9233,239.829 L681.824,246.526 " fill="none" style="stroke: #A9A9A9; stroke-width: 1.0;"/><polygon fill="#A9A9A9" points="677.609,249.8088,677.6259,249.8768,679.4875,249.2002,681.448,248.9222,683.3764,248.5144,685.1987,247.6798,687.1678,247.436,687.1646,247.4103,686.0275,247.1552,684.9066,247.0296,683.7969,246.9942,682.6485,246.6482,681.5543,246.7371,681.7374,246.7599,681.4856,245.5885,681.7684,244.4836,682.1165,243.3868,682.085,242.2428,682.2532,241.1236,682.2732,241.1344,681.3149,242.8556,680.448,244.6257,679.537,246.3723,678.71,248.1638,677.609,249.8088" style="stroke: #A9A9A9; stroke-width: 1.0;"/><!--link Objeto to *end--><path d="M931.872,180.417 L931.9031,180.505 L928.2362,181.5068 L924.7518,183.0249 L921.208,184.3749 L917.4687,185.172 L914,186.7344 L913.9893,186.7015 L910.6886,187.6128 L907.4418,188.6897 L904.2324,189.8816 L900.8939,190.6769 L897.7363,192.0278 L897.8104,192.2624 L894.3341,192.8092 L891.0742,194.0411 L887.8408,195.3566 L884.4537,196.1858 L881.1474,197.2707 L881.1563,197.2997 L874.4131,199.3049 L867.7101,201.4421 L860.9877,203.5156 L854.3024,205.7107 L847.4964,207.5095 L847.5799,207.7958 L840.8917,209.7492 L834.1498,211.518 L827.4866,213.5571 L820.8272,215.6089 L814.0507,217.2592 L813.9639,216.9507 L807.685,219.3634 L801.1204,220.7601 L794.773,222.9292 L788.2019,224.3029 L781.8141,226.3286 L781.8061,226.2992 L775.8962,228.286 L769.799,229.5866 L763.8123,231.2922 L757.8348,233.0317 L751.7905,234.526 L751.8381,234.7048 L746.4286,235.9511 L741.1005,237.503 L735.6409,238.5606 L730.3774,240.3554 L724.9835,241.6601 L725.0444,241.896 L717.0432,243.9139 L709.0722,246.0489 L700.9608,247.6397 L692.9523,249.6294 L685.035,251.9726 " fill="none" style="stroke: #A9A9A9; stroke-width: 1.0;"/><polygon fill="#A9A9A9" points="679.856,253.2784,679.868,253.3474,681.7733,253.4783,683.7488,254.0139,685.7014,254.4177,687.579,254.3882,689.5605,254.9585,689.5472,254.9363,688.5164,254.2561,687.5525,253.6881,686.6352,253.198,685.5575,252.4394,684.7045,252.0569,684.8629,252.1516,685.1045,250.9779,685.8086,250.0807,686.5691,249.2172,687.0013,248.1574,687.6061,247.2009,687.6202,247.2188,686.0495,248.408,684.5428,249.6787,683.0052,250.9101,681.5265,252.2165,679.856,253.2784" style="stroke: #A9A9A9; stroke-width: 1.0;"/><!--link Lista to *end--><path d="M1030.6,180.3349 L1030.6336,180.422 L1027.2138,181.443 L1023.9909,182.9748 L1020.7039,184.3403 L1017.2059,185.1586 L1014,186.7344 L1013.9896,186.7014 L1011.6008,187.2907 L1009.2641,188.0461 L1006.9639,188.917 L1004.5384,189.3899 L1002.2883,190.4202 L1002.3593,190.6558 L999.8318,190.8676 L997.5116,191.7672 L995.2166,192.7508 L992.7746,193.2461 L990.4099,193.9982 L990.4182,194.0273 L985.5754,195.3514 L980.7702,196.8083 L975.9469,198.2011 L971.1581,199.7162 L966.2566,200.8326 L966.3321,201.1211 L961.4311,202.4066 L956.4814,203.5059 L951.603,204.8777 L946.728,206.2622 L941.7471,207.2422 L941.6714,206.9307 L936.8865,208.7331 L931.8525,209.5099 L927.0078,211.0664 L921.9681,211.8199 L917.0883,213.2316 L917.0816,213.2019 L912.2409,214.6678 L907.2431,215.4399 L902.338,216.6214 L897.4407,217.8373 L892.4873,218.8052 L892.5257,218.9862 L887.6196,219.836 L882.7792,220.9951 L877.8327,221.6538 L873.0444,223.0588 L868.1509,223.9677 L868.1985,224.2066 L863.4166,225.1126 L858.6583,226.1372 L853.7902,226.6106 L849.0025,227.4881 L844.2863,228.7235 L844.2353,228.4521 L839.6442,229.5685 L834.9957,230.3791 L830.4305,231.6334 L825.7231,232.1302 L821.1003,233.0772 L821.0736,232.9271 L816.6579,233.9684 L812.1283,234.3679 L807.6797,235.2238 L803.3103,236.5262 L798.7999,237.0334 L798.832,237.2244 L794.6124,238.068 L790.2931,238.3176 L786.0987,239.3112 L781.8771,240.1427 L777.5921,240.5966 L777.559,240.3893 L773.6038,241.1895 L769.6377,241.9218 L765.6928,242.7875 L761.6653,243.1345 L757.6839,243.7713 L757.7148,243.9746 L753.9667,244.0861 L750.2781,244.59 L746.6765,245.6671 L742.9149,245.6889 L739.2823,246.5621 L739.314,246.7861 L733.004,247.5427 L726.6834,248.2234 L720.3869,249.0753 L714.1463,250.3224 L707.8267,251.0102 L707.8096,250.8782 L703.2713,251.8644 L698.6169,251.9533 L694.0945,253.0625 L689.4977,253.5972 L684.881,253.9771 " fill="none" style="stroke: #A9A9A9; stroke-width: 1.0;"/><polygon fill="#A9A9A9" points="679.78,254.5988,679.8005,254.6658,681.6231,255.0433,683.5658,255.8136,685.4695,256.4559,687.2444,256.6778,689.1975,257.4817,689.1815,257.4613,688.219,256.6723,687.337,255.9862,686.511,255.3715,685.4921,254.5105,684.7433,253.9945,684.8887,254.1082,685.2754,252.9741,686.0863,252.1722,686.9491,251.4108,687.5106,250.4136,688.2306,249.5404,688.2423,249.5599,686.535,250.5429,684.8809,251.6148,683.2012,252.6438,681.5704,253.7546,679.78,254.5988" style="stroke: #A9A9A9; stroke-width: 1.0;"/><!--
@startuml
skinparam titleBorderColor #222222
skinparam titleBackgroundColor #222222
skinparam titlefontColor #orange
skinparam titleFontStyle bold
skinparam titleFontSize 30

skinparam handwritten true
skinparam shadowing false
skinparam backgroundColor #222222
skinparam padding 3
skinparam StateStartColor #DarkGrey
skinparam StateEndColor #DarkGrey

skinparam note {
    backgroundColor #222222
    fontStyle bold
    borderColor #DarkGrey
    FontColor #yellow
     fontSize 15
}

skinparam state {
    fontColor<<Terminal>> #DarkGrey
    fontColor<<NoTerminal>> #orange
    fontStyle bold
    arrowColor #DarkGrey
    backgroundColor #222222
    borderColor #DarkGrey
    circleCharacterFontName #DarkGrey
    fontSize 15
}

hide empty description

title Sintaxis: Valor

state Cadena as "Cadena" <<Terminal>>
note right of Cadena: <color:cyan>"</color><color:yellow>identificador</color><color:cyan>"</color>

state Numero as "Número" <<Terminal>>
note right of Numero: <color:yellow>[<color:cyan>+</color> <color:yellow>\| <color:cyan>-</color><color:yellow>]digito+

state Logico as "Lógico" <<Terminal>>
note right of Logico: <color:cyan>true</color> \| <color:cyan>false</color>

state Nulo <<Terminal>>
note right of Nulo: <color:cyan>null</color>

state Objeto <<NoTerminal>>

state Lista <<NoTerminal>>

[*] -down-> Cadena
[*] -down-> Numero
[*] -down-> Logico
[*] -down-> Nulo
[*] -down-> Objeto
[*] -down-> Lista
Cadena -down-> [*]
Numero -down-> [*]
Logico -down-> [*]
Nulo -down-> [*]
Objeto -down-> [*]
Lista -down-> [*]

@enduml

PlantUML version 1.2019.05(Sat Apr 20 18:45:36 CEST 2019)
(GPL source distribution)
Java Runtime: Java(TM) SE Runtime Environment
JVM: Java HotSpot(TM) 64-Bit Server VM
Java Version: 11.0.8+10-LTS
Operating System: Windows 10
OS Version: 10.0
Default Encoding: windows-1252
Language: es
Country: ES
--></g></svg>