<?xml version="1.0" encoding="UTF-8" standalone="no"?><svg xmlns="http://www.w3.org/2000/svg" xmlns:xlink="http://www.w3.org/1999/xlink" contentScriptType="application/ecmascript" contentStyleType="text/css" height="357px" preserveAspectRatio="none" style="width:479px;height:357px;background:#222222;" version="1.1" viewBox="0 0 479 357" width="479px" zoomAndPan="magnify"><defs/><g><!--class Alumno--><polygon fill="#222222" points="230,8,230,8.2102,240.3333,7.5857,250.6667,8.1933,261,8.3997,271.3333,7.2866,281.6667,7.9223,292,7.5735,302.3333,7.6165,312.6667,7.9318,323,7.3086,333.3333,8.5536,343.6667,7.3697,354,8,353.8022,8,354.4319,18.2783,353.9142,28.5566,354.0682,38.835,353.9681,49.1133,354.1785,59.3916,354.2391,69.6699,354.5857,79.9482,354,90.2266,354,90.8976,343.6667,90.9058,333.3333,90.4812,323,90.6901,312.6667,90.9288,302.3333,89.5054,292,90.9051,281.6667,89.9301,271.3333,90.7604,261,89.7315,250.6667,90.1581,240.3333,90.9682,230,90.2266,229.9513,90.2266,230.1053,79.9482,230.3386,69.6699,230.4162,59.3916,229.9961,49.1133,230.2872,38.835,229.4276,28.5566,230.2844,18.2783,230,8" style="stroke: #A9A9A9; stroke-width: 3.0;"/><text fill="#A9A9A9" font-family="courier" font-size="20" lengthAdjust="spacingAndGlyphs" textLength="120" x="232" y="34.1074">«abstract»</text><text fill="#A9A9A9" font-family="courier" font-size="20" font-weight="bold" lengthAdjust="spacingAndGlyphs" textLength="72" x="256" y="62.2207">Alumno</text><path d="M231,74.2266 L231,74.5068 L241.1667,73.6741 L251.3333,74.4843 L261.5,74.7595 L271.6667,73.2754 L281.8333,74.1229 L292,73.6579 L302.1667,73.7152 L312.3333,74.1357 L322.5,73.3047 L332.6667,74.9648 L342.8333,73.3862 L353,74.2266 " fill="#222222" style="stroke: #A9A9A9; stroke-width: 3.0;"/><path d="M231,82.2266 L231,82.5068 L241.1667,81.6741 L251.3333,82.4843 L261.5,82.7595 L271.6667,81.2754 L281.8333,82.1229 L292,81.6579 L302.1667,81.7152 L312.3333,82.1357 L322.5,81.3047 L332.6667,82.9648 L342.8333,81.3862 L353,82.2266 " fill="#222222" style="stroke: #A9A9A9; stroke-width: 3.0;"/><!--class AlumnoGrado--><polygon fill="#222222" points="129,150,129,150.2102,139,149.5857,149,150.1933,159,150.3997,169,149.2866,179,149.9223,189,149.5735,199,149.6165,209,149.9318,219,149.3086,229,150.5536,239,149.3697,249,149.8022,259,150.4319,269,150,268.9142,150,269.0682,160.2783,268.9681,170.5566,269.1785,180.835,269.2391,191.1133,269.5857,201.3916,269.6711,211.6699,269.6793,221.9482,269,232.2266,269,232.4812,259,232.6901,249,232.9288,239,231.5054,229,232.9051,219,231.9301,209,232.7604,199,231.7315,189,232.1581,179,232.9682,169,232.1778,159,232.3319,149,232.5652,139,232.6428,129,232.2266,128.9961,232.2266,129.2872,221.9482,128.4276,211.6699,129.2844,201.3916,129.5482,191.1133,129.4445,180.835,129.613,170.5566,128.5169,160.2783,129,150" style="stroke: #A9A9A9; stroke-width: 3.0;"/><text fill="#A9A9A9" font-family="courier" font-size="20" lengthAdjust="spacingAndGlyphs" textLength="120" x="139" y="176.1074">«abstract»</text><text fill="#A9A9A9" font-family="courier" font-size="20" font-weight="bold" lengthAdjust="spacingAndGlyphs" textLength="132" x="133" y="204.2207">AlumnoGrado</text><path d="M130,216.2266 L130,216.5068 L139.8571,215.6741 L149.7143,216.4843 L159.5714,216.7595 L169.4286,215.2754 L179.2857,216.1229 L189.1429,215.6579 L199,215.7152 L208.8571,216.1357 L218.7143,215.3047 L228.5714,216.9648 L238.4286,215.3862 L248.2857,215.9629 L258.1429,216.8025 L268,216.2266 " fill="#222222" style="stroke: #A9A9A9; stroke-width: 3.0;"/><path d="M130,224.2266 L130,224.5068 L139.8571,223.6741 L149.7143,224.4843 L159.5714,224.7595 L169.4286,223.2754 L179.2857,224.1229 L189.1429,223.6579 L199,223.7152 L208.8571,224.1357 L218.7143,223.3047 L228.5714,224.9648 L238.4286,223.3862 L248.2857,223.9629 L258.1429,224.8025 L268,224.2266 " fill="#222222" style="stroke: #A9A9A9; stroke-width: 3.0;"/><!--class AlumnoErasmus--><polygon fill="#222222" points="304,164,304,164.2102,314.25,163.5857,324.5,164.1933,334.75,164.3997,345,163.2866,355.25,163.9223,365.5,163.5735,375.75,163.6165,386,163.9318,396.25,163.3086,406.5,164.5536,416.75,163.3697,427,163.8022,437.25,164.4319,447.5,163.9142,457.75,164.0682,468,164,467.9681,164,468.1785,174.8227,468.2391,185.6453,468.5857,196.468,468.6711,207.2906,468,218.1133,468,218.7925,457.75,218.3679,447.5,218.5769,437.25,218.8155,427,217.3921,416.75,218.7918,406.5,217.8168,396.25,218.6471,386,217.6183,375.75,218.0448,365.5,218.8549,355.25,218.0645,345,218.2186,334.75,218.4519,324.5,218.5295,314.25,218.1094,304,218.1133,304.2872,218.1133,303.4276,207.2906,304.2844,196.468,304.5482,185.6453,304.4445,174.8227,304,164" style="stroke: #A9A9A9; stroke-width: 3.0;"/><text fill="#A9A9A9" font-family="courier" font-size="20" font-weight="bold" lengthAdjust="spacingAndGlyphs" textLength="156" x="308" y="190.1074">AlumnoErasmus</text><path d="M305,202.1133 L305,202.3935 L315.125,201.5609 L325.25,202.371 L335.375,202.6462 L345.5,201.1621 L355.625,202.0097 L365.75,201.5446 L375.875,201.6019 L386,202.0224 L396.125,201.1915 L406.25,202.8515 L416.375,201.2729 L426.5,201.8496 L436.625,202.6892 L446.75,201.9989 L456.875,202.2043 L467,202.1133 " fill="#222222" style="stroke: #A9A9A9; stroke-width: 3.0;"/><path d="M305,210.1133 L305,210.3935 L315.125,209.5609 L325.25,210.371 L335.375,210.6462 L345.5,209.1621 L355.625,210.0097 L365.75,209.5446 L375.875,209.6019 L386,210.0224 L396.125,209.1915 L406.25,210.8515 L416.375,209.2729 L426.5,209.8496 L436.625,210.6892 L446.75,209.9989 L456.875,210.2043 L467,210.1133 " fill="#222222" style="stroke: #A9A9A9; stroke-width: 3.0;"/><!--class AlumnoSoftware--><polygon fill="#222222" points="6,292,6,292.2102,15.7778,291.5857,25.5556,292.1933,35.3333,292.3997,45.1111,291.2866,54.8889,291.9223,64.6667,291.5735,74.4444,291.6165,84.2222,291.9318,94,291.3086,103.7778,292.5536,113.5556,291.3697,123.3333,291.8022,133.1111,292.4319,142.8889,291.9142,152.6667,292.0682,162.4444,291.9681,172.2222,292.1785,182,292,182.2391,292,182.5857,302.8227,182.6711,313.6453,182.6793,324.468,182.2546,335.2906,182,346.1133,182,346.5769,172.2222,346.8155,162.4444,345.3921,152.6667,346.7918,142.8889,345.8168,133.1111,346.6471,123.3333,345.6183,113.5556,346.0448,103.7778,346.8549,94,346.0645,84.2222,346.2186,74.4444,346.4519,64.6667,346.5295,54.8889,346.1094,45.1111,346.4005,35.3333,345.5409,25.5556,346.3977,15.7778,346.6615,6,346.1133,6.4445,346.1133,6.613,335.2906,5.5169,324.468,5.3478,313.6453,5.3786,302.8227,6,292" style="stroke: #A9A9A9; stroke-width: 3.0;"/><text fill="#A9A9A9" font-family="courier" font-size="20" font-weight="bold" lengthAdjust="spacingAndGlyphs" textLength="168" x="10" y="318.1074">AlumnoSoftware</text><path d="M7,330.1133 L7,330.3935 L17.2353,329.5609 L27.4706,330.371 L37.7059,330.6462 L47.9412,329.1621 L58.1765,330.0097 L68.4118,329.5446 L78.6471,329.6019 L88.8824,330.0224 L99.1176,329.1915 L109.3529,330.8515 L119.5882,329.2729 L129.8235,329.8496 L140.0588,330.6892 L150.2941,329.9989 L160.5294,330.2043 L170.7647,330.0707 L181,330.1133 " fill="#222222" style="stroke: #A9A9A9; stroke-width: 3.0;"/><path d="M7,338.1133 L7,338.3935 L17.2353,337.5609 L27.4706,338.371 L37.7059,338.6462 L47.9412,337.1621 L58.1765,338.0097 L68.4118,337.5446 L78.6471,337.6019 L88.8824,338.0224 L99.1176,337.1915 L109.3529,338.8515 L119.5882,337.2729 L129.8235,337.8496 L140.0588,338.6892 L150.2941,337.9989 L160.5294,338.2043 L170.7647,338.0707 L181,338.1133 " fill="#222222" style="stroke: #A9A9A9; stroke-width: 3.0;"/><!--class AlumnoSistemas--><polygon fill="#222222" points="217,292,217,292.2102,226.7778,291.5857,236.5556,292.1933,246.3333,292.3997,256.1111,291.2866,265.8889,291.9223,275.6667,291.5735,285.4444,291.6165,295.2222,291.9318,305,291.3086,314.7778,292.5536,324.5556,291.3697,334.3333,291.8022,344.1111,292.4319,353.8889,291.9142,363.6667,292.0682,373.4444,291.9681,383.2222,292.1785,393,292,393.2391,292,393.5857,302.8227,393.6711,313.6453,393.6793,324.468,393.2546,335.2906,393,346.1133,393,346.5769,383.2222,346.8155,373.4444,345.3921,363.6667,346.7918,353.8889,345.8168,344.1111,346.6471,334.3333,345.6183,324.5556,346.0448,314.7778,346.8549,305,346.0645,295.2222,346.2186,285.4444,346.4519,275.6667,346.5295,265.8889,346.1094,256.1111,346.4005,246.3333,345.5409,236.5556,346.3977,226.7778,346.6615,217,346.1133,217.4445,346.1133,217.613,335.2906,216.5169,324.468,216.3478,313.6453,216.3786,302.8227,217,292" style="stroke: #A9A9A9; stroke-width: 3.0;"/><text fill="#A9A9A9" font-family="courier" font-size="20" font-weight="bold" lengthAdjust="spacingAndGlyphs" textLength="168" x="221" y="318.1074">AlumnoSistemas</text><path d="M218,330.1133 L218,330.3935 L228.2353,329.5609 L238.4706,330.371 L248.7059,330.6462 L258.9412,329.1621 L269.1765,330.0097 L279.4118,329.5446 L289.6471,329.6019 L299.8824,330.0224 L310.1176,329.1915 L320.3529,330.8515 L330.5882,329.2729 L340.8235,329.8496 L351.0588,330.6892 L361.2941,329.9989 L371.5294,330.2043 L381.7647,330.0707 L392,330.1133 " fill="#222222" style="stroke: #A9A9A9; stroke-width: 3.0;"/><path d="M218,338.1133 L218,338.3935 L228.2353,337.5609 L238.4706,338.371 L248.7059,338.6462 L258.9412,337.1621 L269.1765,338.0097 L279.4118,337.5446 L289.6471,337.6019 L299.8824,338.0224 L310.1176,337.1915 L320.3529,338.8515 L330.5882,337.2729 L340.8235,337.8496 L351.0588,338.6892 L361.2941,337.9989 L371.5294,338.2043 L381.7647,338.0707 L392,338.1133 " fill="#222222" style="stroke: #A9A9A9; stroke-width: 3.0;"/><!--link Alumno to AlumnoGrado--><path d="M254.08,107.09 L254.3134,107.2451 L247.9339,115.3423 L242.9227,124.3486 L237.4659,133.0589 L230.5437,140.7956 L225.65,149.88 " fill="none" style="stroke: #A9A9A9; stroke-width: 2.0;"/><polygon fill="none" points="248.45,102.9,248.4923,102.9559,251.7467,100.2338,255.2489,97.8394,258.6704,95.3383,261.8266,92.4863,265.35,90.12,265.3249,90.1136,264.1643,94.1908,263.1301,98.3004,262.184,102.4324,260.9347,106.487,260.11,110.65,260.2122,110.8037,257.6617,108.925,255.4095,107.4951,253.1937,106.1199,250.7662,104.4262,248.45,102.9" style="stroke: #A9A9A9; stroke-width: 2.0;"/><!--link Alumno to AlumnoErasmus--><path d="M330.17,106.85 L330.4027,107.0062 L335.1542,114.6478 L341.2697,123.2051 L346.941,131.4642 L351.1517,138.7426 L357.2983,147.3208 L362.355,155.1673 L368.27,163.59 " fill="none" style="stroke: #A9A9A9; stroke-width: 2.0;"/><polygon fill="none" points="324.27,110.62,324.3378,110.6376,323.0703,106.4852,322.2004,102.4362,321.2009,98.3535,319.7759,94.1602,318.94,90.12,318.9245,90.0993,322.2468,92.5462,325.6474,95.0977,329.1024,97.7218,332.3699,100.0955,335.9,102.82,336.0028,102.9733,333.457,104.2055,331.2113,105.8853,329.0022,107.6196,326.5801,109.0363,324.27,110.62" style="stroke: #A9A9A9; stroke-width: 2.0;"/><!--link AlumnoGrado to AlumnoSoftware--><path d="M152.53,247.77 L152.7453,247.9494 L146.009,254.7296 L140.5346,262.5617 L134.6493,270.0512 L127.4127,276.4143 L121.9671,284.2703 L115.95,291.65 " fill="none" style="stroke: #A9A9A9; stroke-width: 2.0;"/><polygon fill="none" points="147.31,243.1,147.346,243.1601,150.875,240.8035,154.6151,238.7993,158.2865,236.6803,161.7318,234.184,165.49,232.21,165.4657,232.2009,163.8709,236.1302,162.3983,240.1052,161.0107,244.112,159.3302,248.0092,158.06,252.06,158.1782,252.2018,155.7755,250.1066,153.7178,248.4254,151.7022,246.7946,149.4417,244.87,147.31,243.1" style="stroke: #A9A9A9; stroke-width: 2.0;"/><!--link AlumnoGrado to AlumnoSistemas--><path d="M245.92,247.77 L246.1344,247.9504 L251.6506,254.7277 L258.4239,262.5626 L264.7878,270.0531 L269.8055,276.4109 L276.6074,284.27 L282.84,291.65 " fill="none" style="stroke: #A9A9A9; stroke-width: 2.0;"/><polygon fill="none" points="240.35,252.02,240.4155,252.0449,238.7169,248.009,237.4022,244.1189,235.9626,240.1813,234.1117,236.0876,232.83,232.21,232.8168,232.1877,236.4035,234.2477,240.0568,236.42,243.7564,238.6705,247.2965,240.6517,251.06,243.01,251.1788,243.1512,248.7827,244.6512,246.7336,246.5636,244.7267,248.5262,242.4736,250.1961,240.35,252.02" style="stroke: #A9A9A9; stroke-width: 2.0;"/><!--
@startuml
skinparam backgroundColor #222222
hide circle
skinparam handwritten true

skinparam shadowing false
skinparam padding 1
skinparam arrow {
    Thickness 2
    Color #DarkGrey
    FontSize 20
    FontName courier
    FontStyle normal
    FontColor #DarkGrey
}
skinparam class {
    BorderThickness 3
    BorderColor #DarkGrey
    BackgroundColor #222222
    FontSize 20
    FontName courier
    FontStyle bold
    FontColor #DarkGrey
}
skinparam default {
    BorderColor #DarkGrey
    FontSize 20
    FontName courier
    FontStyle normal
    FontColor #DarkGrey
}

class Alumno <<abstract>>
class AlumnoGrado <<abstract>>
class AlumnoErasmus
class AlumnoSoftware
class AlumnoSistemas

Alumno <|- - AlumnoGrado
Alumno <|- - AlumnoErasmus
AlumnoGrado <|- - AlumnoSoftware
AlumnoGrado <|- - AlumnoSistemas
@enduml

PlantUML version 1.2019.05(Sat Apr 20 18:45:36 CEST 2019)
(GPL source distribution)
Java Runtime: Java(TM) SE Runtime Environment
JVM: Java HotSpot(TM) 64-Bit Server VM
Java Version: 11.0.14+8-LTS-263
Operating System: Windows 10
OS Version: 10.0
Default Encoding: windows-1252
Language: es
Country: ES
--></g></svg>