<?xml version="1.0" encoding="UTF-8" standalone="no"?><svg xmlns="http://www.w3.org/2000/svg" xmlns:xlink="http://www.w3.org/1999/xlink" contentScriptType="application/ecmascript" contentStyleType="text/css" height="539px" preserveAspectRatio="none" style="width:1014px;height:539px;" version="1.1" viewBox="0 0 1014 539" width="1014px" zoomAndPan="magnify"><defs><linearGradient id="g1syqb2a6he1l60" x1="0%" x2="100%" y1="0%" y2="100%"><stop offset="0%" stop-color="#808080"/><stop offset="100%" stop-color="#FFFFFF"/></linearGradient><filter height="300%" id="f1syqb2a6he1l6" width="300%" x="-1" y="-1"><feGaussianBlur result="blurOut" stdDeviation="2.0"/><feColorMatrix in="blurOut" result="blurOut2" type="matrix" values="0 0 0 0 0 0 0 0 0 0 0 0 0 0 0 0 0 0 .4 0"/><feOffset dx="4.0" dy="4.0" in="blurOut2" result="blurOut3"/><feBlend in="SourceGraphic" in2="blurOut3" mode="normal"/></filter><linearGradient id="g1syqb2a6he1l61" x1="0%" x2="100%" y1="0%" y2="100%"><stop offset="0%" stop-color="#FFE4C4"/><stop offset="100%" stop-color="#FFFFFF"/></linearGradient><linearGradient id="g1syqb2a6he1l62" x1="0%" x2="100%" y1="0%" y2="100%"><stop offset="0%" stop-color="#FFD700"/><stop offset="100%" stop-color="#FFFFFF"/></linearGradient></defs><g><!--class Collection--><rect fill="url(#g1syqb2a6he1l60)" filter="url(#f1syqb2a6he1l6)" height="56.1875" id="Collection" style="stroke: #A80036; stroke-width: 1.5;" width="87" x="563" y="8"/><rect fill="url(#g1syqb2a6he1l60)" height="40.1875" style="stroke: #A80036; stroke-width: 1.5;" width="87" x="563" y="8"/><ellipse cx="578" cy="28.0938" fill="#ADD1B2" rx="11" ry="11" style="stroke: #A80036; stroke-width: 1.0;"/><path d="M580.7656,23.9688 Q580.9219,23.75 581.1094,23.6406 Q581.2969,23.5313 581.5156,23.5313 Q581.8906,23.5313 582.125,23.7969 Q582.3594,24.0469 582.3594,24.6563 L582.3594,26.1094 Q582.3594,26.7188 582.125,26.9844 Q581.8906,27.25 581.5156,27.25 Q581.1719,27.25 580.9688,27.0469 Q580.7656,26.8594 580.6563,26.3438 Q580.6094,25.9844 580.4219,25.7969 Q580.0938,25.4219 579.4844,25.2031 Q578.875,24.9844 578.25,24.9844 Q577.4844,24.9844 576.8438,25.3125 Q576.2188,25.6406 575.7188,26.3906 Q575.2344,27.1406 575.2344,28.1719 L575.2344,29.2656 Q575.2344,30.5 576.125,31.3281 Q577.0156,32.1406 578.6094,32.1406 Q579.5469,32.1406 580.2031,31.8906 Q580.5938,31.7344 581.0156,31.2969 Q581.2813,31.0313 581.4219,30.9531 Q581.5781,30.875 581.7813,30.875 Q582.1094,30.875 582.3594,31.1406 Q582.625,31.3906 582.625,31.7344 Q582.625,32.0781 582.2813,32.4844 Q581.7813,33.0625 580.9844,33.3906 Q579.9063,33.8438 578.6094,33.8438 Q577.0938,33.8438 575.8906,33.2188 Q574.9063,32.7188 574.2188,31.6563 Q573.5313,30.5781 573.5313,29.2969 L573.5313,28.1406 Q573.5313,26.8125 574.1406,25.6719 Q574.7656,24.5156 575.8594,23.9063 Q576.9531,23.2813 578.1875,23.2813 Q578.9219,23.2813 579.5625,23.4531 Q580.2188,23.6094 580.7656,23.9688 Z "/><text fill="#000000" font-family="sans-serif" font-size="12" font-style="italic" lengthAdjust="spacingAndGlyphs" textLength="22" x="608.5" y="25.457">«E»</text><text fill="#000000" font-family="sans-serif" font-size="12" lengthAdjust="spacingAndGlyphs" textLength="55" x="592" y="40.5508">Collection</text><line style="stroke: #A80036; stroke-width: 1.5;" x1="564" x2="649" y1="48.1875" y2="48.1875"/><line style="stroke: #A80036; stroke-width: 1.5;" x1="564" x2="649" y1="56.1875" y2="56.1875"/><!--class AbstractCollection--><rect fill="url(#g1syqb2a6he1l61)" filter="url(#f1syqb2a6he1l6)" height="56.1875" id="AbstractCollection" style="stroke: #A80036; stroke-width: 1.5;" width="134" x="539.5" y="124"/><rect fill="url(#g1syqb2a6he1l61)" height="40.1875" style="stroke: #A80036; stroke-width: 1.5;" width="134" x="539.5" y="124"/><ellipse cx="554.5" cy="144.0938" fill="#ADD1B2" rx="11" ry="11" style="stroke: #A80036; stroke-width: 1.0;"/><path d="M557.2656,139.9688 Q557.4219,139.75 557.6094,139.6406 Q557.7969,139.5313 558.0156,139.5313 Q558.3906,139.5313 558.625,139.7969 Q558.8594,140.0469 558.8594,140.6563 L558.8594,142.1094 Q558.8594,142.7188 558.625,142.9844 Q558.3906,143.25 558.0156,143.25 Q557.6719,143.25 557.4688,143.0469 Q557.2656,142.8594 557.1563,142.3438 Q557.1094,141.9844 556.9219,141.7969 Q556.5938,141.4219 555.9844,141.2031 Q555.375,140.9844 554.75,140.9844 Q553.9844,140.9844 553.3438,141.3125 Q552.7188,141.6406 552.2188,142.3906 Q551.7344,143.1406 551.7344,144.1719 L551.7344,145.2656 Q551.7344,146.5 552.625,147.3281 Q553.5156,148.1406 555.1094,148.1406 Q556.0469,148.1406 556.7031,147.8906 Q557.0938,147.7344 557.5156,147.2969 Q557.7813,147.0313 557.9219,146.9531 Q558.0781,146.875 558.2813,146.875 Q558.6094,146.875 558.8594,147.1406 Q559.125,147.3906 559.125,147.7344 Q559.125,148.0781 558.7813,148.4844 Q558.2813,149.0625 557.4844,149.3906 Q556.4063,149.8438 555.1094,149.8438 Q553.5938,149.8438 552.3906,149.2188 Q551.4063,148.7188 550.7188,147.6563 Q550.0313,146.5781 550.0313,145.2969 L550.0313,144.1406 Q550.0313,142.8125 550.6406,141.6719 Q551.2656,140.5156 552.3594,139.9063 Q553.4531,139.2813 554.6875,139.2813 Q555.4219,139.2813 556.0625,139.4531 Q556.7188,139.6094 557.2656,139.9688 Z "/><text fill="#000000" font-family="sans-serif" font-size="12" font-style="italic" lengthAdjust="spacingAndGlyphs" textLength="22" x="608.5" y="141.457">«E»</text><text fill="#000000" font-family="sans-serif" font-size="12" lengthAdjust="spacingAndGlyphs" textLength="102" x="568.5" y="156.5508">Abstract Collection</text><line style="stroke: #A80036; stroke-width: 1.5;" x1="540.5" x2="672.5" y1="164.1875" y2="164.1875"/><line style="stroke: #A80036; stroke-width: 1.5;" x1="540.5" x2="672.5" y1="172.1875" y2="172.1875"/><!--class List--><rect fill="url(#g1syqb2a6he1l60)" filter="url(#f1syqb2a6he1l6)" height="56.1875" id="List" style="stroke: #A80036; stroke-width: 1.5;" width="52" x="295.5" y="124"/><rect fill="url(#g1syqb2a6he1l60)" height="40.1875" style="stroke: #A80036; stroke-width: 1.5;" width="52" x="295.5" y="124"/><ellipse cx="310.5" cy="144.0938" fill="#ADD1B2" rx="11" ry="11" style="stroke: #A80036; stroke-width: 1.0;"/><path d="M313.2656,139.9688 Q313.4219,139.75 313.6094,139.6406 Q313.7969,139.5313 314.0156,139.5313 Q314.3906,139.5313 314.625,139.7969 Q314.8594,140.0469 314.8594,140.6563 L314.8594,142.1094 Q314.8594,142.7188 314.625,142.9844 Q314.3906,143.25 314.0156,143.25 Q313.6719,143.25 313.4688,143.0469 Q313.2656,142.8594 313.1563,142.3438 Q313.1094,141.9844 312.9219,141.7969 Q312.5938,141.4219 311.9844,141.2031 Q311.375,140.9844 310.75,140.9844 Q309.9844,140.9844 309.3438,141.3125 Q308.7188,141.6406 308.2188,142.3906 Q307.7344,143.1406 307.7344,144.1719 L307.7344,145.2656 Q307.7344,146.5 308.625,147.3281 Q309.5156,148.1406 311.1094,148.1406 Q312.0469,148.1406 312.7031,147.8906 Q313.0938,147.7344 313.5156,147.2969 Q313.7813,147.0313 313.9219,146.9531 Q314.0781,146.875 314.2813,146.875 Q314.6094,146.875 314.8594,147.1406 Q315.125,147.3906 315.125,147.7344 Q315.125,148.0781 314.7813,148.4844 Q314.2813,149.0625 313.4844,149.3906 Q312.4063,149.8438 311.1094,149.8438 Q309.5938,149.8438 308.3906,149.2188 Q307.4063,148.7188 306.7188,147.6563 Q306.0313,146.5781 306.0313,145.2969 L306.0313,144.1406 Q306.0313,142.8125 306.6406,141.6719 Q307.2656,140.5156 308.3594,139.9063 Q309.4531,139.2813 310.6875,139.2813 Q311.4219,139.2813 312.0625,139.4531 Q312.7188,139.6094 313.2656,139.9688 Z "/><text fill="#000000" font-family="sans-serif" font-size="12" font-style="italic" lengthAdjust="spacingAndGlyphs" textLength="22" x="323.5" y="141.457">«E»</text><text fill="#000000" font-family="sans-serif" font-size="12" lengthAdjust="spacingAndGlyphs" textLength="20" x="324.5" y="156.5508">List</text><line style="stroke: #A80036; stroke-width: 1.5;" x1="296.5" x2="346.5" y1="164.1875" y2="164.1875"/><line style="stroke: #A80036; stroke-width: 1.5;" x1="296.5" x2="346.5" y1="172.1875" y2="172.1875"/><!--class Queue--><rect fill="url(#g1syqb2a6he1l60)" filter="url(#f1syqb2a6he1l6)" height="56.1875" id="Queue" style="stroke: #A80036; stroke-width: 1.5;" width="69" x="435" y="124"/><rect fill="url(#g1syqb2a6he1l60)" height="40.1875" style="stroke: #A80036; stroke-width: 1.5;" width="69" x="435" y="124"/><ellipse cx="450" cy="144.0938" fill="#ADD1B2" rx="11" ry="11" style="stroke: #A80036; stroke-width: 1.0;"/><path d="M452.7656,139.9688 Q452.9219,139.75 453.1094,139.6406 Q453.2969,139.5313 453.5156,139.5313 Q453.8906,139.5313 454.125,139.7969 Q454.3594,140.0469 454.3594,140.6563 L454.3594,142.1094 Q454.3594,142.7188 454.125,142.9844 Q453.8906,143.25 453.5156,143.25 Q453.1719,143.25 452.9688,143.0469 Q452.7656,142.8594 452.6563,142.3438 Q452.6094,141.9844 452.4219,141.7969 Q452.0938,141.4219 451.4844,141.2031 Q450.875,140.9844 450.25,140.9844 Q449.4844,140.9844 448.8438,141.3125 Q448.2188,141.6406 447.7188,142.3906 Q447.2344,143.1406 447.2344,144.1719 L447.2344,145.2656 Q447.2344,146.5 448.125,147.3281 Q449.0156,148.1406 450.6094,148.1406 Q451.5469,148.1406 452.2031,147.8906 Q452.5938,147.7344 453.0156,147.2969 Q453.2813,147.0313 453.4219,146.9531 Q453.5781,146.875 453.7813,146.875 Q454.1094,146.875 454.3594,147.1406 Q454.625,147.3906 454.625,147.7344 Q454.625,148.0781 454.2813,148.4844 Q453.7813,149.0625 452.9844,149.3906 Q451.9063,149.8438 450.6094,149.8438 Q449.0938,149.8438 447.8906,149.2188 Q446.9063,148.7188 446.2188,147.6563 Q445.5313,146.5781 445.5313,145.2969 L445.5313,144.1406 Q445.5313,142.8125 446.1406,141.6719 Q446.7656,140.5156 447.8594,139.9063 Q448.9531,139.2813 450.1875,139.2813 Q450.9219,139.2813 451.5625,139.4531 Q452.2188,139.6094 452.7656,139.9688 Z "/><text fill="#000000" font-family="sans-serif" font-size="12" font-style="italic" lengthAdjust="spacingAndGlyphs" textLength="22" x="471.5" y="141.457">«E»</text><text fill="#000000" font-family="sans-serif" font-size="12" lengthAdjust="spacingAndGlyphs" textLength="37" x="464" y="156.5508">Queue</text><line style="stroke: #A80036; stroke-width: 1.5;" x1="436" x2="503" y1="164.1875" y2="164.1875"/><line style="stroke: #A80036; stroke-width: 1.5;" x1="436" x2="503" y1="172.1875" y2="172.1875"/><!--class Set--><rect fill="url(#g1syqb2a6he1l60)" filter="url(#f1syqb2a6he1l6)" height="56.1875" id="Set" style="stroke: #A80036; stroke-width: 1.5;" width="50" x="760.5" y="124"/><rect fill="url(#g1syqb2a6he1l60)" height="40.1875" style="stroke: #A80036; stroke-width: 1.5;" width="50" x="760.5" y="124"/><ellipse cx="775.5" cy="144.0938" fill="#ADD1B2" rx="11" ry="11" style="stroke: #A80036; stroke-width: 1.0;"/><path d="M778.2656,139.9688 Q778.4219,139.75 778.6094,139.6406 Q778.7969,139.5313 779.0156,139.5313 Q779.3906,139.5313 779.625,139.7969 Q779.8594,140.0469 779.8594,140.6563 L779.8594,142.1094 Q779.8594,142.7188 779.625,142.9844 Q779.3906,143.25 779.0156,143.25 Q778.6719,143.25 778.4688,143.0469 Q778.2656,142.8594 778.1563,142.3438 Q778.1094,141.9844 777.9219,141.7969 Q777.5938,141.4219 776.9844,141.2031 Q776.375,140.9844 775.75,140.9844 Q774.9844,140.9844 774.3438,141.3125 Q773.7188,141.6406 773.2188,142.3906 Q772.7344,143.1406 772.7344,144.1719 L772.7344,145.2656 Q772.7344,146.5 773.625,147.3281 Q774.5156,148.1406 776.1094,148.1406 Q777.0469,148.1406 777.7031,147.8906 Q778.0938,147.7344 778.5156,147.2969 Q778.7813,147.0313 778.9219,146.9531 Q779.0781,146.875 779.2813,146.875 Q779.6094,146.875 779.8594,147.1406 Q780.125,147.3906 780.125,147.7344 Q780.125,148.0781 779.7813,148.4844 Q779.2813,149.0625 778.4844,149.3906 Q777.4063,149.8438 776.1094,149.8438 Q774.5938,149.8438 773.3906,149.2188 Q772.4063,148.7188 771.7188,147.6563 Q771.0313,146.5781 771.0313,145.2969 L771.0313,144.1406 Q771.0313,142.8125 771.6406,141.6719 Q772.2656,140.5156 773.3594,139.9063 Q774.4531,139.2813 775.6875,139.2813 Q776.4219,139.2813 777.0625,139.4531 Q777.7188,139.6094 778.2656,139.9688 Z "/><text fill="#000000" font-family="sans-serif" font-size="12" font-style="italic" lengthAdjust="spacingAndGlyphs" textLength="22" x="787.5" y="141.457">«E»</text><text fill="#000000" font-family="sans-serif" font-size="12" lengthAdjust="spacingAndGlyphs" textLength="18" x="789.5" y="156.5508">Set</text><line style="stroke: #A80036; stroke-width: 1.5;" x1="761.5" x2="809.5" y1="164.1875" y2="164.1875"/><line style="stroke: #A80036; stroke-width: 1.5;" x1="761.5" x2="809.5" y1="172.1875" y2="172.1875"/><!--class AbstractLIst--><rect fill="url(#g1syqb2a6he1l61)" filter="url(#f1syqb2a6he1l6)" height="56.1875" id="AbstractLIst" style="stroke: #A80036; stroke-width: 1.5;" width="99" x="272" y="240"/><rect fill="url(#g1syqb2a6he1l61)" height="40.1875" style="stroke: #A80036; stroke-width: 1.5;" width="99" x="272" y="240"/><ellipse cx="287" cy="260.0938" fill="#ADD1B2" rx="11" ry="11" style="stroke: #A80036; stroke-width: 1.0;"/><path d="M289.7656,255.9688 Q289.9219,255.75 290.1094,255.6406 Q290.2969,255.5313 290.5156,255.5313 Q290.8906,255.5313 291.125,255.7969 Q291.3594,256.0469 291.3594,256.6563 L291.3594,258.1094 Q291.3594,258.7188 291.125,258.9844 Q290.8906,259.25 290.5156,259.25 Q290.1719,259.25 289.9688,259.0469 Q289.7656,258.8594 289.6563,258.3438 Q289.6094,257.9844 289.4219,257.7969 Q289.0938,257.4219 288.4844,257.2031 Q287.875,256.9844 287.25,256.9844 Q286.4844,256.9844 285.8438,257.3125 Q285.2188,257.6406 284.7188,258.3906 Q284.2344,259.1406 284.2344,260.1719 L284.2344,261.2656 Q284.2344,262.5 285.125,263.3281 Q286.0156,264.1406 287.6094,264.1406 Q288.5469,264.1406 289.2031,263.8906 Q289.5938,263.7344 290.0156,263.2969 Q290.2813,263.0313 290.4219,262.9531 Q290.5781,262.875 290.7813,262.875 Q291.1094,262.875 291.3594,263.1406 Q291.625,263.3906 291.625,263.7344 Q291.625,264.0781 291.2813,264.4844 Q290.7813,265.0625 289.9844,265.3906 Q288.9063,265.8438 287.6094,265.8438 Q286.0938,265.8438 284.8906,265.2188 Q283.9063,264.7188 283.2188,263.6563 Q282.5313,262.5781 282.5313,261.2969 L282.5313,260.1406 Q282.5313,258.8125 283.1406,257.6719 Q283.7656,256.5156 284.8594,255.9063 Q285.9531,255.2813 287.1875,255.2813 Q287.9219,255.2813 288.5625,255.4531 Q289.2188,255.6094 289.7656,255.9688 Z "/><text fill="#000000" font-family="sans-serif" font-size="12" font-style="italic" lengthAdjust="spacingAndGlyphs" textLength="22" x="323.5" y="257.457">«E»</text><text fill="#000000" font-family="sans-serif" font-size="12" lengthAdjust="spacingAndGlyphs" textLength="67" x="301" y="272.5508">Abstract List</text><line style="stroke: #A80036; stroke-width: 1.5;" x1="273" x2="370" y1="280.1875" y2="280.1875"/><line style="stroke: #A80036; stroke-width: 1.5;" x1="273" x2="370" y1="288.1875" y2="288.1875"/><!--class AbstractQueue--><rect fill="url(#g1syqb2a6he1l61)" filter="url(#f1syqb2a6he1l6)" height="56.1875" id="AbstractQueue" style="stroke: #A80036; stroke-width: 1.5;" width="116" x="522.5" y="240"/><rect fill="url(#g1syqb2a6he1l61)" height="40.1875" style="stroke: #A80036; stroke-width: 1.5;" width="116" x="522.5" y="240"/><ellipse cx="537.5" cy="260.0938" fill="#ADD1B2" rx="11" ry="11" style="stroke: #A80036; stroke-width: 1.0;"/><path d="M540.2656,255.9688 Q540.4219,255.75 540.6094,255.6406 Q540.7969,255.5313 541.0156,255.5313 Q541.3906,255.5313 541.625,255.7969 Q541.8594,256.0469 541.8594,256.6563 L541.8594,258.1094 Q541.8594,258.7188 541.625,258.9844 Q541.3906,259.25 541.0156,259.25 Q540.6719,259.25 540.4688,259.0469 Q540.2656,258.8594 540.1563,258.3438 Q540.1094,257.9844 539.9219,257.7969 Q539.5938,257.4219 538.9844,257.2031 Q538.375,256.9844 537.75,256.9844 Q536.9844,256.9844 536.3438,257.3125 Q535.7188,257.6406 535.2188,258.3906 Q534.7344,259.1406 534.7344,260.1719 L534.7344,261.2656 Q534.7344,262.5 535.625,263.3281 Q536.5156,264.1406 538.1094,264.1406 Q539.0469,264.1406 539.7031,263.8906 Q540.0938,263.7344 540.5156,263.2969 Q540.7813,263.0313 540.9219,262.9531 Q541.0781,262.875 541.2813,262.875 Q541.6094,262.875 541.8594,263.1406 Q542.125,263.3906 542.125,263.7344 Q542.125,264.0781 541.7813,264.4844 Q541.2813,265.0625 540.4844,265.3906 Q539.4063,265.8438 538.1094,265.8438 Q536.5938,265.8438 535.3906,265.2188 Q534.4063,264.7188 533.7188,263.6563 Q533.0313,262.5781 533.0313,261.2969 L533.0313,260.1406 Q533.0313,258.8125 533.6406,257.6719 Q534.2656,256.5156 535.3594,255.9063 Q536.4531,255.2813 537.6875,255.2813 Q538.4219,255.2813 539.0625,255.4531 Q539.7188,255.6094 540.2656,255.9688 Z "/><text fill="#000000" font-family="sans-serif" font-size="12" font-style="italic" lengthAdjust="spacingAndGlyphs" textLength="22" x="582.5" y="257.457">«E»</text><text fill="#000000" font-family="sans-serif" font-size="12" lengthAdjust="spacingAndGlyphs" textLength="84" x="551.5" y="272.5508">Abstract Queue</text><line style="stroke: #A80036; stroke-width: 1.5;" x1="523.5" x2="637.5" y1="280.1875" y2="280.1875"/><line style="stroke: #A80036; stroke-width: 1.5;" x1="523.5" x2="637.5" y1="288.1875" y2="288.1875"/><!--class AbstractSet--><rect fill="url(#g1syqb2a6he1l61)" filter="url(#f1syqb2a6he1l6)" height="56.1875" id="AbstractSet" style="stroke: #A80036; stroke-width: 1.5;" width="97" x="737" y="240"/><rect fill="url(#g1syqb2a6he1l61)" height="40.1875" style="stroke: #A80036; stroke-width: 1.5;" width="97" x="737" y="240"/><ellipse cx="752" cy="260.0938" fill="#ADD1B2" rx="11" ry="11" style="stroke: #A80036; stroke-width: 1.0;"/><path d="M754.7656,255.9688 Q754.9219,255.75 755.1094,255.6406 Q755.2969,255.5313 755.5156,255.5313 Q755.8906,255.5313 756.125,255.7969 Q756.3594,256.0469 756.3594,256.6563 L756.3594,258.1094 Q756.3594,258.7188 756.125,258.9844 Q755.8906,259.25 755.5156,259.25 Q755.1719,259.25 754.9688,259.0469 Q754.7656,258.8594 754.6563,258.3438 Q754.6094,257.9844 754.4219,257.7969 Q754.0938,257.4219 753.4844,257.2031 Q752.875,256.9844 752.25,256.9844 Q751.4844,256.9844 750.8438,257.3125 Q750.2188,257.6406 749.7188,258.3906 Q749.2344,259.1406 749.2344,260.1719 L749.2344,261.2656 Q749.2344,262.5 750.125,263.3281 Q751.0156,264.1406 752.6094,264.1406 Q753.5469,264.1406 754.2031,263.8906 Q754.5938,263.7344 755.0156,263.2969 Q755.2813,263.0313 755.4219,262.9531 Q755.5781,262.875 755.7813,262.875 Q756.1094,262.875 756.3594,263.1406 Q756.625,263.3906 756.625,263.7344 Q756.625,264.0781 756.2813,264.4844 Q755.7813,265.0625 754.9844,265.3906 Q753.9063,265.8438 752.6094,265.8438 Q751.0938,265.8438 749.8906,265.2188 Q748.9063,264.7188 748.2188,263.6563 Q747.5313,262.5781 747.5313,261.2969 L747.5313,260.1406 Q747.5313,258.8125 748.1406,257.6719 Q748.7656,256.5156 749.8594,255.9063 Q750.9531,255.2813 752.1875,255.2813 Q752.9219,255.2813 753.5625,255.4531 Q754.2188,255.6094 754.7656,255.9688 Z "/><text fill="#000000" font-family="sans-serif" font-size="12" font-style="italic" lengthAdjust="spacingAndGlyphs" textLength="22" x="787.5" y="257.457">«E»</text><text fill="#000000" font-family="sans-serif" font-size="12" lengthAdjust="spacingAndGlyphs" textLength="65" x="766" y="272.5508">Abstract Set</text><line style="stroke: #A80036; stroke-width: 1.5;" x1="738" x2="833" y1="280.1875" y2="280.1875"/><line style="stroke: #A80036; stroke-width: 1.5;" x1="738" x2="833" y1="288.1875" y2="288.1875"/><!--class AbstractSequentialLIst--><rect fill="url(#g1syqb2a6he1l61)" filter="url(#f1syqb2a6he1l6)" height="56.1875" id="AbstractSequentialLIst" style="stroke: #A80036; stroke-width: 1.5;" width="161" x="6" y="356"/><rect fill="url(#g1syqb2a6he1l61)" height="40.1875" style="stroke: #A80036; stroke-width: 1.5;" width="161" x="6" y="356"/><ellipse cx="21" cy="376.0938" fill="#ADD1B2" rx="11" ry="11" style="stroke: #A80036; stroke-width: 1.0;"/><path d="M23.7656,371.9688 Q23.9219,371.75 24.1094,371.6406 Q24.2969,371.5313 24.5156,371.5313 Q24.8906,371.5313 25.125,371.7969 Q25.3594,372.0469 25.3594,372.6563 L25.3594,374.1094 Q25.3594,374.7188 25.125,374.9844 Q24.8906,375.25 24.5156,375.25 Q24.1719,375.25 23.9688,375.0469 Q23.7656,374.8594 23.6563,374.3438 Q23.6094,373.9844 23.4219,373.7969 Q23.0938,373.4219 22.4844,373.2031 Q21.875,372.9844 21.25,372.9844 Q20.4844,372.9844 19.8438,373.3125 Q19.2188,373.6406 18.7188,374.3906 Q18.2344,375.1406 18.2344,376.1719 L18.2344,377.2656 Q18.2344,378.5 19.125,379.3281 Q20.0156,380.1406 21.6094,380.1406 Q22.5469,380.1406 23.2031,379.8906 Q23.5938,379.7344 24.0156,379.2969 Q24.2813,379.0313 24.4219,378.9531 Q24.5781,378.875 24.7813,378.875 Q25.1094,378.875 25.3594,379.1406 Q25.625,379.3906 25.625,379.7344 Q25.625,380.0781 25.2813,380.4844 Q24.7813,381.0625 23.9844,381.3906 Q22.9063,381.8438 21.6094,381.8438 Q20.0938,381.8438 18.8906,381.2188 Q17.9063,380.7188 17.2188,379.6563 Q16.5313,378.5781 16.5313,377.2969 L16.5313,376.1406 Q16.5313,374.8125 17.1406,373.6719 Q17.7656,372.5156 18.8594,371.9063 Q19.9531,371.2813 21.1875,371.2813 Q21.9219,371.2813 22.5625,371.4531 Q23.2188,371.6094 23.7656,371.9688 Z "/><text fill="#000000" font-family="sans-serif" font-size="12" font-style="italic" lengthAdjust="spacingAndGlyphs" textLength="22" x="88.5" y="373.457">«E»</text><text fill="#000000" font-family="sans-serif" font-size="12" lengthAdjust="spacingAndGlyphs" textLength="129" x="35" y="388.5508">Abstract Sequential List</text><line style="stroke: #A80036; stroke-width: 1.5;" x1="7" x2="166" y1="396.1875" y2="396.1875"/><line style="stroke: #A80036; stroke-width: 1.5;" x1="7" x2="166" y1="404.1875" y2="404.1875"/><!--class Deque--><rect fill="url(#g1syqb2a6he1l60)" filter="url(#f1syqb2a6he1l6)" height="56.1875" id="Deque" style="stroke: #A80036; stroke-width: 1.5;" width="69" x="320" y="356"/><rect fill="url(#g1syqb2a6he1l60)" height="40.1875" style="stroke: #A80036; stroke-width: 1.5;" width="69" x="320" y="356"/><ellipse cx="335" cy="376.0938" fill="#ADD1B2" rx="11" ry="11" style="stroke: #A80036; stroke-width: 1.0;"/><path d="M337.7656,371.9688 Q337.9219,371.75 338.1094,371.6406 Q338.2969,371.5313 338.5156,371.5313 Q338.8906,371.5313 339.125,371.7969 Q339.3594,372.0469 339.3594,372.6563 L339.3594,374.1094 Q339.3594,374.7188 339.125,374.9844 Q338.8906,375.25 338.5156,375.25 Q338.1719,375.25 337.9688,375.0469 Q337.7656,374.8594 337.6563,374.3438 Q337.6094,373.9844 337.4219,373.7969 Q337.0938,373.4219 336.4844,373.2031 Q335.875,372.9844 335.25,372.9844 Q334.4844,372.9844 333.8438,373.3125 Q333.2188,373.6406 332.7188,374.3906 Q332.2344,375.1406 332.2344,376.1719 L332.2344,377.2656 Q332.2344,378.5 333.125,379.3281 Q334.0156,380.1406 335.6094,380.1406 Q336.5469,380.1406 337.2031,379.8906 Q337.5938,379.7344 338.0156,379.2969 Q338.2813,379.0313 338.4219,378.9531 Q338.5781,378.875 338.7813,378.875 Q339.1094,378.875 339.3594,379.1406 Q339.625,379.3906 339.625,379.7344 Q339.625,380.0781 339.2813,380.4844 Q338.7813,381.0625 337.9844,381.3906 Q336.9063,381.8438 335.6094,381.8438 Q334.0938,381.8438 332.8906,381.2188 Q331.9063,380.7188 331.2188,379.6563 Q330.5313,378.5781 330.5313,377.2969 L330.5313,376.1406 Q330.5313,374.8125 331.1406,373.6719 Q331.7656,372.5156 332.8594,371.9063 Q333.9531,371.2813 335.1875,371.2813 Q335.9219,371.2813 336.5625,371.4531 Q337.2188,371.6094 337.7656,371.9688 Z "/><text fill="#000000" font-family="sans-serif" font-size="12" font-style="italic" lengthAdjust="spacingAndGlyphs" textLength="22" x="356.5" y="373.457">«E»</text><text fill="#000000" font-family="sans-serif" font-size="12" lengthAdjust="spacingAndGlyphs" textLength="37" x="349" y="388.5508">Deque</text><line style="stroke: #A80036; stroke-width: 1.5;" x1="321" x2="388" y1="396.1875" y2="396.1875"/><line style="stroke: #A80036; stroke-width: 1.5;" x1="321" x2="388" y1="404.1875" y2="404.1875"/><!--class NavigableSet--><rect fill="url(#g1syqb2a6he1l60)" filter="url(#f1syqb2a6he1l6)" height="56.1875" id="NavigableSet" style="stroke: #A80036; stroke-width: 1.5;" width="108" x="895.5" y="240"/><rect fill="url(#g1syqb2a6he1l60)" height="40.1875" style="stroke: #A80036; stroke-width: 1.5;" width="108" x="895.5" y="240"/><ellipse cx="910.5" cy="260.0938" fill="#ADD1B2" rx="11" ry="11" style="stroke: #A80036; stroke-width: 1.0;"/><path d="M913.2656,255.9688 Q913.4219,255.75 913.6094,255.6406 Q913.7969,255.5313 914.0156,255.5313 Q914.3906,255.5313 914.625,255.7969 Q914.8594,256.0469 914.8594,256.6563 L914.8594,258.1094 Q914.8594,258.7188 914.625,258.9844 Q914.3906,259.25 914.0156,259.25 Q913.6719,259.25 913.4688,259.0469 Q913.2656,258.8594 913.1563,258.3438 Q913.1094,257.9844 912.9219,257.7969 Q912.5938,257.4219 911.9844,257.2031 Q911.375,256.9844 910.75,256.9844 Q909.9844,256.9844 909.3438,257.3125 Q908.7188,257.6406 908.2188,258.3906 Q907.7344,259.1406 907.7344,260.1719 L907.7344,261.2656 Q907.7344,262.5 908.625,263.3281 Q909.5156,264.1406 911.1094,264.1406 Q912.0469,264.1406 912.7031,263.8906 Q913.0938,263.7344 913.5156,263.2969 Q913.7813,263.0313 913.9219,262.9531 Q914.0781,262.875 914.2813,262.875 Q914.6094,262.875 914.8594,263.1406 Q915.125,263.3906 915.125,263.7344 Q915.125,264.0781 914.7813,264.4844 Q914.2813,265.0625 913.4844,265.3906 Q912.4063,265.8438 911.1094,265.8438 Q909.5938,265.8438 908.3906,265.2188 Q907.4063,264.7188 906.7188,263.6563 Q906.0313,262.5781 906.0313,261.2969 L906.0313,260.1406 Q906.0313,258.8125 906.6406,257.6719 Q907.2656,256.5156 908.3594,255.9063 Q909.4531,255.2813 910.6875,255.2813 Q911.4219,255.2813 912.0625,255.4531 Q912.7188,255.6094 913.2656,255.9688 Z "/><text fill="#000000" font-family="sans-serif" font-size="12" font-style="italic" lengthAdjust="spacingAndGlyphs" textLength="22" x="951.5" y="257.457">«E»</text><text fill="#000000" font-family="sans-serif" font-size="12" lengthAdjust="spacingAndGlyphs" textLength="76" x="924.5" y="272.5508">Navigable Set</text><line style="stroke: #A80036; stroke-width: 1.5;" x1="896.5" x2="1002.5" y1="280.1875" y2="280.1875"/><line style="stroke: #A80036; stroke-width: 1.5;" x1="896.5" x2="1002.5" y1="288.1875" y2="288.1875"/><!--class ArrayList--><rect fill="url(#g1syqb2a6he1l62)" filter="url(#f1syqb2a6he1l6)" height="56.1875" id="ArrayList" style="stroke: #A80036; stroke-width: 1.5;" width="82" x="202.5" y="356"/><rect fill="url(#g1syqb2a6he1l62)" height="40.1875" style="stroke: #A80036; stroke-width: 1.5;" width="82" x="202.5" y="356"/><ellipse cx="217.5" cy="376.0938" fill="#ADD1B2" rx="11" ry="11" style="stroke: #A80036; stroke-width: 1.0;"/><path d="M220.2656,371.9688 Q220.4219,371.75 220.6094,371.6406 Q220.7969,371.5313 221.0156,371.5313 Q221.3906,371.5313 221.625,371.7969 Q221.8594,372.0469 221.8594,372.6563 L221.8594,374.1094 Q221.8594,374.7188 221.625,374.9844 Q221.3906,375.25 221.0156,375.25 Q220.6719,375.25 220.4688,375.0469 Q220.2656,374.8594 220.1563,374.3438 Q220.1094,373.9844 219.9219,373.7969 Q219.5938,373.4219 218.9844,373.2031 Q218.375,372.9844 217.75,372.9844 Q216.9844,372.9844 216.3438,373.3125 Q215.7188,373.6406 215.2188,374.3906 Q214.7344,375.1406 214.7344,376.1719 L214.7344,377.2656 Q214.7344,378.5 215.625,379.3281 Q216.5156,380.1406 218.1094,380.1406 Q219.0469,380.1406 219.7031,379.8906 Q220.0938,379.7344 220.5156,379.2969 Q220.7813,379.0313 220.9219,378.9531 Q221.0781,378.875 221.2813,378.875 Q221.6094,378.875 221.8594,379.1406 Q222.125,379.3906 222.125,379.7344 Q222.125,380.0781 221.7813,380.4844 Q221.2813,381.0625 220.4844,381.3906 Q219.4063,381.8438 218.1094,381.8438 Q216.5938,381.8438 215.3906,381.2188 Q214.4063,380.7188 213.7188,379.6563 Q213.0313,378.5781 213.0313,377.2969 L213.0313,376.1406 Q213.0313,374.8125 213.6406,373.6719 Q214.2656,372.5156 215.3594,371.9063 Q216.4531,371.2813 217.6875,371.2813 Q218.4219,371.2813 219.0625,371.4531 Q219.7188,371.6094 220.2656,371.9688 Z "/><text fill="#000000" font-family="sans-serif" font-size="12" font-style="italic" lengthAdjust="spacingAndGlyphs" textLength="22" x="245.5" y="373.457">«E»</text><text fill="#000000" font-family="sans-serif" font-size="12" lengthAdjust="spacingAndGlyphs" textLength="50" x="231.5" y="388.5508">Array List</text><line style="stroke: #A80036; stroke-width: 1.5;" x1="203.5" x2="283.5" y1="396.1875" y2="396.1875"/><line style="stroke: #A80036; stroke-width: 1.5;" x1="203.5" x2="283.5" y1="404.1875" y2="404.1875"/><!--class Vector--><rect fill="url(#g1syqb2a6he1l62)" filter="url(#f1syqb2a6he1l6)" height="56.1875" id="Vector" style="stroke: #A80036; stroke-width: 1.5;" width="66" x="424.5" y="356"/><rect fill="url(#g1syqb2a6he1l62)" height="40.1875" style="stroke: #A80036; stroke-width: 1.5;" width="66" x="424.5" y="356"/><ellipse cx="439.5" cy="376.0938" fill="#ADD1B2" rx="11" ry="11" style="stroke: #A80036; stroke-width: 1.0;"/><path d="M442.2656,371.9688 Q442.4219,371.75 442.6094,371.6406 Q442.7969,371.5313 443.0156,371.5313 Q443.3906,371.5313 443.625,371.7969 Q443.8594,372.0469 443.8594,372.6563 L443.8594,374.1094 Q443.8594,374.7188 443.625,374.9844 Q443.3906,375.25 443.0156,375.25 Q442.6719,375.25 442.4688,375.0469 Q442.2656,374.8594 442.1563,374.3438 Q442.1094,373.9844 441.9219,373.7969 Q441.5938,373.4219 440.9844,373.2031 Q440.375,372.9844 439.75,372.9844 Q438.9844,372.9844 438.3438,373.3125 Q437.7188,373.6406 437.2188,374.3906 Q436.7344,375.1406 436.7344,376.1719 L436.7344,377.2656 Q436.7344,378.5 437.625,379.3281 Q438.5156,380.1406 440.1094,380.1406 Q441.0469,380.1406 441.7031,379.8906 Q442.0938,379.7344 442.5156,379.2969 Q442.7813,379.0313 442.9219,378.9531 Q443.0781,378.875 443.2813,378.875 Q443.6094,378.875 443.8594,379.1406 Q444.125,379.3906 444.125,379.7344 Q444.125,380.0781 443.7813,380.4844 Q443.2813,381.0625 442.4844,381.3906 Q441.4063,381.8438 440.1094,381.8438 Q438.5938,381.8438 437.3906,381.2188 Q436.4063,380.7188 435.7188,379.6563 Q435.0313,378.5781 435.0313,377.2969 L435.0313,376.1406 Q435.0313,374.8125 435.6406,373.6719 Q436.2656,372.5156 437.3594,371.9063 Q438.4531,371.2813 439.6875,371.2813 Q440.4219,371.2813 441.0625,371.4531 Q441.7188,371.6094 442.2656,371.9688 Z "/><text fill="#000000" font-family="sans-serif" font-size="12" font-style="italic" lengthAdjust="spacingAndGlyphs" textLength="22" x="459.5" y="373.457">«E»</text><text fill="#000000" font-family="sans-serif" font-size="12" lengthAdjust="spacingAndGlyphs" textLength="34" x="453.5" y="388.5508">Vector</text><line style="stroke: #A80036; stroke-width: 1.5;" x1="425.5" x2="489.5" y1="396.1875" y2="396.1875"/><line style="stroke: #A80036; stroke-width: 1.5;" x1="425.5" x2="489.5" y1="404.1875" y2="404.1875"/><!--class LinkedList--><rect fill="url(#g1syqb2a6he1l62)" filter="url(#f1syqb2a6he1l6)" height="56.1875" id="LinkedList" style="stroke: #A80036; stroke-width: 1.5;" width="92" x="108.5" y="472"/><rect fill="url(#g1syqb2a6he1l62)" height="40.1875" style="stroke: #A80036; stroke-width: 1.5;" width="92" x="108.5" y="472"/><ellipse cx="123.5" cy="492.0938" fill="#ADD1B2" rx="11" ry="11" style="stroke: #A80036; stroke-width: 1.0;"/><path d="M126.2656,487.9688 Q126.4219,487.75 126.6094,487.6406 Q126.7969,487.5313 127.0156,487.5313 Q127.3906,487.5313 127.625,487.7969 Q127.8594,488.0469 127.8594,488.6563 L127.8594,490.1094 Q127.8594,490.7188 127.625,490.9844 Q127.3906,491.25 127.0156,491.25 Q126.6719,491.25 126.4688,491.0469 Q126.2656,490.8594 126.1563,490.3438 Q126.1094,489.9844 125.9219,489.7969 Q125.5938,489.4219 124.9844,489.2031 Q124.375,488.9844 123.75,488.9844 Q122.9844,488.9844 122.3438,489.3125 Q121.7188,489.6406 121.2188,490.3906 Q120.7344,491.1406 120.7344,492.1719 L120.7344,493.2656 Q120.7344,494.5 121.625,495.3281 Q122.5156,496.1406 124.1094,496.1406 Q125.0469,496.1406 125.7031,495.8906 Q126.0938,495.7344 126.5156,495.2969 Q126.7813,495.0313 126.9219,494.9531 Q127.0781,494.875 127.2813,494.875 Q127.6094,494.875 127.8594,495.1406 Q128.125,495.3906 128.125,495.7344 Q128.125,496.0781 127.7813,496.4844 Q127.2813,497.0625 126.4844,497.3906 Q125.4063,497.8438 124.1094,497.8438 Q122.5938,497.8438 121.3906,497.2188 Q120.4063,496.7188 119.7188,495.6563 Q119.0313,494.5781 119.0313,493.2969 L119.0313,492.1406 Q119.0313,490.8125 119.6406,489.6719 Q120.2656,488.5156 121.3594,487.9063 Q122.4531,487.2813 123.6875,487.2813 Q124.4219,487.2813 125.0625,487.4531 Q125.7188,487.6094 126.2656,487.9688 Z "/><text fill="#000000" font-family="sans-serif" font-size="12" font-style="italic" lengthAdjust="spacingAndGlyphs" textLength="22" x="156.5" y="489.457">«E»</text><text fill="#000000" font-family="sans-serif" font-size="12" lengthAdjust="spacingAndGlyphs" textLength="60" x="137.5" y="504.5508">Linked List</text><line style="stroke: #A80036; stroke-width: 1.5;" x1="109.5" x2="199.5" y1="512.1875" y2="512.1875"/><line style="stroke: #A80036; stroke-width: 1.5;" x1="109.5" x2="199.5" y1="520.1875" y2="520.1875"/><!--class ArrayDeque--><rect fill="url(#g1syqb2a6he1l62)" filter="url(#f1syqb2a6he1l6)" height="56.1875" id="ArrayDeque" style="stroke: #A80036; stroke-width: 1.5;" width="99" x="298" y="472"/><rect fill="url(#g1syqb2a6he1l62)" height="40.1875" style="stroke: #A80036; stroke-width: 1.5;" width="99" x="298" y="472"/><ellipse cx="313" cy="492.0938" fill="#ADD1B2" rx="11" ry="11" style="stroke: #A80036; stroke-width: 1.0;"/><path d="M315.7656,487.9688 Q315.9219,487.75 316.1094,487.6406 Q316.2969,487.5313 316.5156,487.5313 Q316.8906,487.5313 317.125,487.7969 Q317.3594,488.0469 317.3594,488.6563 L317.3594,490.1094 Q317.3594,490.7188 317.125,490.9844 Q316.8906,491.25 316.5156,491.25 Q316.1719,491.25 315.9688,491.0469 Q315.7656,490.8594 315.6563,490.3438 Q315.6094,489.9844 315.4219,489.7969 Q315.0938,489.4219 314.4844,489.2031 Q313.875,488.9844 313.25,488.9844 Q312.4844,488.9844 311.8438,489.3125 Q311.2188,489.6406 310.7188,490.3906 Q310.2344,491.1406 310.2344,492.1719 L310.2344,493.2656 Q310.2344,494.5 311.125,495.3281 Q312.0156,496.1406 313.6094,496.1406 Q314.5469,496.1406 315.2031,495.8906 Q315.5938,495.7344 316.0156,495.2969 Q316.2813,495.0313 316.4219,494.9531 Q316.5781,494.875 316.7813,494.875 Q317.1094,494.875 317.3594,495.1406 Q317.625,495.3906 317.625,495.7344 Q317.625,496.0781 317.2813,496.4844 Q316.7813,497.0625 315.9844,497.3906 Q314.9063,497.8438 313.6094,497.8438 Q312.0938,497.8438 310.8906,497.2188 Q309.9063,496.7188 309.2188,495.6563 Q308.5313,494.5781 308.5313,493.2969 L308.5313,492.1406 Q308.5313,490.8125 309.1406,489.6719 Q309.7656,488.5156 310.8594,487.9063 Q311.9531,487.2813 313.1875,487.2813 Q313.9219,487.2813 314.5625,487.4531 Q315.2188,487.6094 315.7656,487.9688 Z "/><text fill="#000000" font-family="sans-serif" font-size="12" font-style="italic" lengthAdjust="spacingAndGlyphs" textLength="22" x="349.5" y="489.457">«E»</text><text fill="#000000" font-family="sans-serif" font-size="12" lengthAdjust="spacingAndGlyphs" textLength="67" x="327" y="504.5508">Array Deque</text><line style="stroke: #A80036; stroke-width: 1.5;" x1="299" x2="396" y1="512.1875" y2="512.1875"/><line style="stroke: #A80036; stroke-width: 1.5;" x1="299" x2="396" y1="520.1875" y2="520.1875"/><!--class PriorityDueue--><rect fill="url(#g1syqb2a6he1l62)" filter="url(#f1syqb2a6he1l6)" height="56.1875" id="PriorityDueue" style="stroke: #A80036; stroke-width: 1.5;" width="109" x="526" y="356"/><rect fill="url(#g1syqb2a6he1l62)" height="40.1875" style="stroke: #A80036; stroke-width: 1.5;" width="109" x="526" y="356"/><ellipse cx="541" cy="376.0938" fill="#ADD1B2" rx="11" ry="11" style="stroke: #A80036; stroke-width: 1.0;"/><path d="M543.7656,371.9688 Q543.9219,371.75 544.1094,371.6406 Q544.2969,371.5313 544.5156,371.5313 Q544.8906,371.5313 545.125,371.7969 Q545.3594,372.0469 545.3594,372.6563 L545.3594,374.1094 Q545.3594,374.7188 545.125,374.9844 Q544.8906,375.25 544.5156,375.25 Q544.1719,375.25 543.9688,375.0469 Q543.7656,374.8594 543.6563,374.3438 Q543.6094,373.9844 543.4219,373.7969 Q543.0938,373.4219 542.4844,373.2031 Q541.875,372.9844 541.25,372.9844 Q540.4844,372.9844 539.8438,373.3125 Q539.2188,373.6406 538.7188,374.3906 Q538.2344,375.1406 538.2344,376.1719 L538.2344,377.2656 Q538.2344,378.5 539.125,379.3281 Q540.0156,380.1406 541.6094,380.1406 Q542.5469,380.1406 543.2031,379.8906 Q543.5938,379.7344 544.0156,379.2969 Q544.2813,379.0313 544.4219,378.9531 Q544.5781,378.875 544.7813,378.875 Q545.1094,378.875 545.3594,379.1406 Q545.625,379.3906 545.625,379.7344 Q545.625,380.0781 545.2813,380.4844 Q544.7813,381.0625 543.9844,381.3906 Q542.9063,381.8438 541.6094,381.8438 Q540.0938,381.8438 538.8906,381.2188 Q537.9063,380.7188 537.2188,379.6563 Q536.5313,378.5781 536.5313,377.2969 L536.5313,376.1406 Q536.5313,374.8125 537.1406,373.6719 Q537.7656,372.5156 538.8594,371.9063 Q539.9531,371.2813 541.1875,371.2813 Q541.9219,371.2813 542.5625,371.4531 Q543.2188,371.6094 543.7656,371.9688 Z "/><text fill="#000000" font-family="sans-serif" font-size="12" font-style="italic" lengthAdjust="spacingAndGlyphs" textLength="22" x="582.5" y="373.457">«E»</text><text fill="#000000" font-family="sans-serif" font-size="12" lengthAdjust="spacingAndGlyphs" textLength="77" x="555" y="388.5508">Priority Dueue</text><line style="stroke: #A80036; stroke-width: 1.5;" x1="527" x2="634" y1="396.1875" y2="396.1875"/><line style="stroke: #A80036; stroke-width: 1.5;" x1="527" x2="634" y1="404.1875" y2="404.1875"/><!--class EnumSet--><rect fill="url(#g1syqb2a6he1l62)" filter="url(#f1syqb2a6he1l6)" height="56.1875" id="EnumSet" style="stroke: #A80036; stroke-width: 1.5;" width="86" x="670.5" y="356"/><rect fill="url(#g1syqb2a6he1l62)" height="40.1875" style="stroke: #A80036; stroke-width: 1.5;" width="86" x="670.5" y="356"/><ellipse cx="685.5" cy="376.0938" fill="#ADD1B2" rx="11" ry="11" style="stroke: #A80036; stroke-width: 1.0;"/><path d="M688.2656,371.9688 Q688.4219,371.75 688.6094,371.6406 Q688.7969,371.5313 689.0156,371.5313 Q689.3906,371.5313 689.625,371.7969 Q689.8594,372.0469 689.8594,372.6563 L689.8594,374.1094 Q689.8594,374.7188 689.625,374.9844 Q689.3906,375.25 689.0156,375.25 Q688.6719,375.25 688.4688,375.0469 Q688.2656,374.8594 688.1563,374.3438 Q688.1094,373.9844 687.9219,373.7969 Q687.5938,373.4219 686.9844,373.2031 Q686.375,372.9844 685.75,372.9844 Q684.9844,372.9844 684.3438,373.3125 Q683.7188,373.6406 683.2188,374.3906 Q682.7344,375.1406 682.7344,376.1719 L682.7344,377.2656 Q682.7344,378.5 683.625,379.3281 Q684.5156,380.1406 686.1094,380.1406 Q687.0469,380.1406 687.7031,379.8906 Q688.0938,379.7344 688.5156,379.2969 Q688.7813,379.0313 688.9219,378.9531 Q689.0781,378.875 689.2813,378.875 Q689.6094,378.875 689.8594,379.1406 Q690.125,379.3906 690.125,379.7344 Q690.125,380.0781 689.7813,380.4844 Q689.2813,381.0625 688.4844,381.3906 Q687.4063,381.8438 686.1094,381.8438 Q684.5938,381.8438 683.3906,381.2188 Q682.4063,380.7188 681.7188,379.6563 Q681.0313,378.5781 681.0313,377.2969 L681.0313,376.1406 Q681.0313,374.8125 681.6406,373.6719 Q682.2656,372.5156 683.3594,371.9063 Q684.4531,371.2813 685.6875,371.2813 Q686.4219,371.2813 687.0625,371.4531 Q687.7188,371.6094 688.2656,371.9688 Z "/><text fill="#000000" font-family="sans-serif" font-size="12" font-style="italic" lengthAdjust="spacingAndGlyphs" textLength="22" x="715.5" y="373.457">«E»</text><text fill="#000000" font-family="sans-serif" font-size="12" lengthAdjust="spacingAndGlyphs" textLength="54" x="699.5" y="388.5508">Enum Set</text><line style="stroke: #A80036; stroke-width: 1.5;" x1="671.5" x2="755.5" y1="396.1875" y2="396.1875"/><line style="stroke: #A80036; stroke-width: 1.5;" x1="671.5" x2="755.5" y1="404.1875" y2="404.1875"/><!--class HashSet--><rect fill="url(#g1syqb2a6he1l62)" filter="url(#f1syqb2a6he1l6)" height="56.1875" id="HashSet" style="stroke: #A80036; stroke-width: 1.5;" width="83" x="792" y="356"/><rect fill="url(#g1syqb2a6he1l62)" height="40.1875" style="stroke: #A80036; stroke-width: 1.5;" width="83" x="792" y="356"/><ellipse cx="807" cy="376.0938" fill="#ADD1B2" rx="11" ry="11" style="stroke: #A80036; stroke-width: 1.0;"/><path d="M809.7656,371.9688 Q809.9219,371.75 810.1094,371.6406 Q810.2969,371.5313 810.5156,371.5313 Q810.8906,371.5313 811.125,371.7969 Q811.3594,372.0469 811.3594,372.6563 L811.3594,374.1094 Q811.3594,374.7188 811.125,374.9844 Q810.8906,375.25 810.5156,375.25 Q810.1719,375.25 809.9688,375.0469 Q809.7656,374.8594 809.6563,374.3438 Q809.6094,373.9844 809.4219,373.7969 Q809.0938,373.4219 808.4844,373.2031 Q807.875,372.9844 807.25,372.9844 Q806.4844,372.9844 805.8438,373.3125 Q805.2188,373.6406 804.7188,374.3906 Q804.2344,375.1406 804.2344,376.1719 L804.2344,377.2656 Q804.2344,378.5 805.125,379.3281 Q806.0156,380.1406 807.6094,380.1406 Q808.5469,380.1406 809.2031,379.8906 Q809.5938,379.7344 810.0156,379.2969 Q810.2813,379.0313 810.4219,378.9531 Q810.5781,378.875 810.7813,378.875 Q811.1094,378.875 811.3594,379.1406 Q811.625,379.3906 811.625,379.7344 Q811.625,380.0781 811.2813,380.4844 Q810.7813,381.0625 809.9844,381.3906 Q808.9063,381.8438 807.6094,381.8438 Q806.0938,381.8438 804.8906,381.2188 Q803.9063,380.7188 803.2188,379.6563 Q802.5313,378.5781 802.5313,377.2969 L802.5313,376.1406 Q802.5313,374.8125 803.1406,373.6719 Q803.7656,372.5156 804.8594,371.9063 Q805.9531,371.2813 807.1875,371.2813 Q807.9219,371.2813 808.5625,371.4531 Q809.2188,371.6094 809.7656,371.9688 Z "/><text fill="#000000" font-family="sans-serif" font-size="12" font-style="italic" lengthAdjust="spacingAndGlyphs" textLength="22" x="835.5" y="373.457">«E»</text><text fill="#000000" font-family="sans-serif" font-size="12" lengthAdjust="spacingAndGlyphs" textLength="51" x="821" y="388.5508">Hash Set</text><line style="stroke: #A80036; stroke-width: 1.5;" x1="793" x2="874" y1="396.1875" y2="396.1875"/><line style="stroke: #A80036; stroke-width: 1.5;" x1="793" x2="874" y1="404.1875" y2="404.1875"/><!--class TreeSet--><rect fill="url(#g1syqb2a6he1l62)" filter="url(#f1syqb2a6he1l6)" height="56.1875" id="TreeSet" style="stroke: #A80036; stroke-width: 1.5;" width="78" x="910.5" y="356"/><rect fill="url(#g1syqb2a6he1l62)" height="40.1875" style="stroke: #A80036; stroke-width: 1.5;" width="78" x="910.5" y="356"/><ellipse cx="925.5" cy="376.0938" fill="#ADD1B2" rx="11" ry="11" style="stroke: #A80036; stroke-width: 1.0;"/><path d="M928.2656,371.9688 Q928.4219,371.75 928.6094,371.6406 Q928.7969,371.5313 929.0156,371.5313 Q929.3906,371.5313 929.625,371.7969 Q929.8594,372.0469 929.8594,372.6563 L929.8594,374.1094 Q929.8594,374.7188 929.625,374.9844 Q929.3906,375.25 929.0156,375.25 Q928.6719,375.25 928.4688,375.0469 Q928.2656,374.8594 928.1563,374.3438 Q928.1094,373.9844 927.9219,373.7969 Q927.5938,373.4219 926.9844,373.2031 Q926.375,372.9844 925.75,372.9844 Q924.9844,372.9844 924.3438,373.3125 Q923.7188,373.6406 923.2188,374.3906 Q922.7344,375.1406 922.7344,376.1719 L922.7344,377.2656 Q922.7344,378.5 923.625,379.3281 Q924.5156,380.1406 926.1094,380.1406 Q927.0469,380.1406 927.7031,379.8906 Q928.0938,379.7344 928.5156,379.2969 Q928.7813,379.0313 928.9219,378.9531 Q929.0781,378.875 929.2813,378.875 Q929.6094,378.875 929.8594,379.1406 Q930.125,379.3906 930.125,379.7344 Q930.125,380.0781 929.7813,380.4844 Q929.2813,381.0625 928.4844,381.3906 Q927.4063,381.8438 926.1094,381.8438 Q924.5938,381.8438 923.3906,381.2188 Q922.4063,380.7188 921.7188,379.6563 Q921.0313,378.5781 921.0313,377.2969 L921.0313,376.1406 Q921.0313,374.8125 921.6406,373.6719 Q922.2656,372.5156 923.3594,371.9063 Q924.4531,371.2813 925.6875,371.2813 Q926.4219,371.2813 927.0625,371.4531 Q927.7188,371.6094 928.2656,371.9688 Z "/><text fill="#000000" font-family="sans-serif" font-size="12" font-style="italic" lengthAdjust="spacingAndGlyphs" textLength="22" x="951.5" y="373.457">«E»</text><text fill="#000000" font-family="sans-serif" font-size="12" lengthAdjust="spacingAndGlyphs" textLength="46" x="939.5" y="388.5508">Tree Set</text><line style="stroke: #A80036; stroke-width: 1.5;" x1="911.5" x2="987.5" y1="396.1875" y2="396.1875"/><line style="stroke: #A80036; stroke-width: 1.5;" x1="911.5" x2="987.5" y1="404.1875" y2="404.1875"/><!--class Stack--><rect fill="url(#g1syqb2a6he1l62)" filter="url(#f1syqb2a6he1l6)" height="56.1875" id="Stack" style="stroke: #A80036; stroke-width: 1.5;" width="62" x="432.5" y="472"/><rect fill="url(#g1syqb2a6he1l62)" height="40.1875" style="stroke: #A80036; stroke-width: 1.5;" width="62" x="432.5" y="472"/><ellipse cx="447.5" cy="492.0938" fill="#ADD1B2" rx="11" ry="11" style="stroke: #A80036; stroke-width: 1.0;"/><path d="M450.2656,487.9688 Q450.4219,487.75 450.6094,487.6406 Q450.7969,487.5313 451.0156,487.5313 Q451.3906,487.5313 451.625,487.7969 Q451.8594,488.0469 451.8594,488.6563 L451.8594,490.1094 Q451.8594,490.7188 451.625,490.9844 Q451.3906,491.25 451.0156,491.25 Q450.6719,491.25 450.4688,491.0469 Q450.2656,490.8594 450.1563,490.3438 Q450.1094,489.9844 449.9219,489.7969 Q449.5938,489.4219 448.9844,489.2031 Q448.375,488.9844 447.75,488.9844 Q446.9844,488.9844 446.3438,489.3125 Q445.7188,489.6406 445.2188,490.3906 Q444.7344,491.1406 444.7344,492.1719 L444.7344,493.2656 Q444.7344,494.5 445.625,495.3281 Q446.5156,496.1406 448.1094,496.1406 Q449.0469,496.1406 449.7031,495.8906 Q450.0938,495.7344 450.5156,495.2969 Q450.7813,495.0313 450.9219,494.9531 Q451.0781,494.875 451.2813,494.875 Q451.6094,494.875 451.8594,495.1406 Q452.125,495.3906 452.125,495.7344 Q452.125,496.0781 451.7813,496.4844 Q451.2813,497.0625 450.4844,497.3906 Q449.4063,497.8438 448.1094,497.8438 Q446.5938,497.8438 445.3906,497.2188 Q444.4063,496.7188 443.7188,495.6563 Q443.0313,494.5781 443.0313,493.2969 L443.0313,492.1406 Q443.0313,490.8125 443.6406,489.6719 Q444.2656,488.5156 445.3594,487.9063 Q446.4531,487.2813 447.6875,487.2813 Q448.4219,487.2813 449.0625,487.4531 Q449.7188,487.6094 450.2656,487.9688 Z "/><text fill="#000000" font-family="sans-serif" font-size="12" font-style="italic" lengthAdjust="spacingAndGlyphs" textLength="22" x="465.5" y="489.457">«E»</text><text fill="#000000" font-family="sans-serif" font-size="12" lengthAdjust="spacingAndGlyphs" textLength="30" x="461.5" y="504.5508">Stack</text><line style="stroke: #A80036; stroke-width: 1.5;" x1="433.5" x2="493.5" y1="512.1875" y2="512.1875"/><line style="stroke: #A80036; stroke-width: 1.5;" x1="433.5" x2="493.5" y1="520.1875" y2="520.1875"/><!--class LinkedHashSet--><rect fill="url(#g1syqb2a6he1l62)" filter="url(#f1syqb2a6he1l6)" height="56.1875" id="LinkedHashSet" style="stroke: #A80036; stroke-width: 1.5;" width="123" x="772" y="472"/><rect fill="url(#g1syqb2a6he1l62)" height="40.1875" style="stroke: #A80036; stroke-width: 1.5;" width="123" x="772" y="472"/><ellipse cx="787" cy="492.0938" fill="#ADD1B2" rx="11" ry="11" style="stroke: #A80036; stroke-width: 1.0;"/><path d="M789.7656,487.9688 Q789.9219,487.75 790.1094,487.6406 Q790.2969,487.5313 790.5156,487.5313 Q790.8906,487.5313 791.125,487.7969 Q791.3594,488.0469 791.3594,488.6563 L791.3594,490.1094 Q791.3594,490.7188 791.125,490.9844 Q790.8906,491.25 790.5156,491.25 Q790.1719,491.25 789.9688,491.0469 Q789.7656,490.8594 789.6563,490.3438 Q789.6094,489.9844 789.4219,489.7969 Q789.0938,489.4219 788.4844,489.2031 Q787.875,488.9844 787.25,488.9844 Q786.4844,488.9844 785.8438,489.3125 Q785.2188,489.6406 784.7188,490.3906 Q784.2344,491.1406 784.2344,492.1719 L784.2344,493.2656 Q784.2344,494.5 785.125,495.3281 Q786.0156,496.1406 787.6094,496.1406 Q788.5469,496.1406 789.2031,495.8906 Q789.5938,495.7344 790.0156,495.2969 Q790.2813,495.0313 790.4219,494.9531 Q790.5781,494.875 790.7813,494.875 Q791.1094,494.875 791.3594,495.1406 Q791.625,495.3906 791.625,495.7344 Q791.625,496.0781 791.2813,496.4844 Q790.7813,497.0625 789.9844,497.3906 Q788.9063,497.8438 787.6094,497.8438 Q786.0938,497.8438 784.8906,497.2188 Q783.9063,496.7188 783.2188,495.6563 Q782.5313,494.5781 782.5313,493.2969 L782.5313,492.1406 Q782.5313,490.8125 783.1406,489.6719 Q783.7656,488.5156 784.8594,487.9063 Q785.9531,487.2813 787.1875,487.2813 Q787.9219,487.2813 788.5625,487.4531 Q789.2188,487.6094 789.7656,487.9688 Z "/><text fill="#000000" font-family="sans-serif" font-size="12" font-style="italic" lengthAdjust="spacingAndGlyphs" textLength="22" x="835.5" y="489.457">«E»</text><text fill="#000000" font-family="sans-serif" font-size="12" lengthAdjust="spacingAndGlyphs" textLength="91" x="801" y="504.5508">Linked Hash Set</text><line style="stroke: #A80036; stroke-width: 1.5;" x1="773" x2="894" y1="512.1875" y2="512.1875"/><line style="stroke: #A80036; stroke-width: 1.5;" x1="773" x2="894" y1="520.1875" y2="520.1875"/><!--link Collection to AbstractCollection--><path d="M606.5,84.15 C606.5,97.65 606.5,111.92 606.5,123.78 " fill="none" id="Collection-AbstractCollection" style="stroke: #A80036; stroke-width: 1.0; stroke-dasharray: 7.0,7.0;"/><polygon fill="none" points="599.5,84.02,606.5,64.02,613.5,84.02,599.5,84.02" style="stroke: #A80036; stroke-width: 1.0;"/><!--link AbstractCollection to AbstractLIst--><path d="M520.52,187.39 C471.74,206.9 412.42,230.63 371.29,247.08 " fill="none" id="AbstractCollection-AbstractLIst" style="stroke: #A80036; stroke-width: 1.0;"/><polygon fill="none" points="518.15,180.8,539.32,179.87,523.35,193.8,518.15,180.8" style="stroke: #A80036; stroke-width: 1.0;"/><!--link List to AbstractLIst--><path d="M321.5,200.15 C321.5,213.65 321.5,227.92 321.5,239.78 " fill="none" id="List-AbstractLIst" style="stroke: #A80036; stroke-width: 1.0;"/><polygon fill="none" points="314.5,200.02,321.5,180.02,328.5,200.02,314.5,200.02" style="stroke: #A80036; stroke-width: 1.0;"/><!--link AbstractCollection to AbstractQueue--><path d="M595.86,199.67 C592.74,213.31 589.45,227.77 586.71,239.78 " fill="none" id="AbstractCollection-AbstractQueue" style="stroke: #A80036; stroke-width: 1.0;"/><polygon fill="none" points="589.07,197.96,600.34,180.02,602.72,201.07,589.07,197.96" style="stroke: #A80036; stroke-width: 1.0;"/><!--link Queue to AbstractQueue--><path d="M509.83,194.42 C524.54,209.53 540.79,226.22 554,239.78 " fill="none" id="Queue-AbstractQueue" style="stroke: #A80036; stroke-width: 1.0;"/><polygon fill="none" points="504.74,199.23,495.81,180.02,514.77,189.46,504.74,199.23" style="stroke: #A80036; stroke-width: 1.0;"/><!--link AbstractCollection to AbstractSet--><path d="M666.1,190.95 C691.3,207.01 720.08,225.34 743.07,239.98 " fill="none" id="AbstractCollection-AbstractSet" style="stroke: #A80036; stroke-width: 1.0;"/><polygon fill="none" points="662.03,196.66,648.92,180.02,669.55,184.86,662.03,196.66" style="stroke: #A80036; stroke-width: 1.0;"/><!--link Set to AbstractSet--><path d="M785.5,200.15 C785.5,213.65 785.5,227.92 785.5,239.78 " fill="none" id="Set-AbstractSet" style="stroke: #A80036; stroke-width: 1.0;"/><polygon fill="none" points="778.5,200.02,785.5,180.02,792.5,200.02,778.5,200.02" style="stroke: #A80036; stroke-width: 1.0;"/><!--link AbstractLIst to ArrayList--><path d="M291.53,312.8 C281.64,327.26 270.92,342.93 262.12,355.78 " fill="none" id="AbstractLIst-ArrayList" style="stroke: #A80036; stroke-width: 1.0;"/><polygon fill="none" points="285.94,308.57,303.02,296.02,297.5,316.48,285.94,308.57" style="stroke: #A80036; stroke-width: 1.0;"/><!--link AbstractLIst to Vector--><path d="M369.23,309.01 C387.69,324.49 408.35,341.8 425.03,355.78 " fill="none" id="AbstractLIst-Vector" style="stroke: #A80036; stroke-width: 1.0;"/><polygon fill="none" points="364.56,314.23,353.73,296.02,373.55,303.5,364.56,314.23" style="stroke: #A80036; stroke-width: 1.0;"/><!--link AbstractLIst to AbstractSequentialLIst--><path d="M253.69,301.9 C218.31,319.06 175.57,339.79 142.16,356 " fill="none" id="AbstractLIst-AbstractSequentialLIst" style="stroke: #A80036; stroke-width: 1.0;"/><polygon fill="none" points="250.9,295.47,271.95,293.04,257.01,308.06,250.9,295.47" style="stroke: #A80036; stroke-width: 1.0;"/><!--link AbstractSequentialLIst to LinkedList--><path d="M112.91,429.27 C121.46,443.61 130.68,459.07 138.26,471.78 " fill="none" id="AbstractSequentialLIst-LinkedList" style="stroke: #A80036; stroke-width: 1.0;"/><polygon fill="none" points="106.85,432.78,102.62,412.02,118.87,425.61,106.85,432.78" style="stroke: #A80036; stroke-width: 1.0;"/><!--link AbstractQueue to PriorityDueue--><path d="M580.5,316.15 C580.5,329.65 580.5,343.92 580.5,355.78 " fill="none" id="AbstractQueue-PriorityDueue" style="stroke: #A80036; stroke-width: 1.0;"/><polygon fill="none" points="573.5,316.02,580.5,296.02,587.5,316.02,573.5,316.02" style="stroke: #A80036; stroke-width: 1.0;"/><!--link AbstractSet to EnumSet--><path d="M757.54,313.27 C748.49,327.61 738.72,343.07 730.69,355.78 " fill="none" id="AbstractSet-EnumSet" style="stroke: #A80036; stroke-width: 1.0;"/><polygon fill="none" points="751.84,309.19,768.44,296.02,763.68,316.66,751.84,309.19" style="stroke: #A80036; stroke-width: 1.0;"/><!--link AbstractSet to HashSet--><path d="M804.75,314.71 C810.61,328.63 816.87,343.49 822.04,355.78 " fill="none" id="AbstractSet-HashSet" style="stroke: #A80036; stroke-width: 1.0;"/><polygon fill="none" points="798.19,317.17,796.88,296.02,811.09,311.73,798.19,317.17" style="stroke: #A80036; stroke-width: 1.0;"/><!--link AbstractSet to TreeSet--><path d="M841.11,307.65 C863.96,323.54 889.87,341.55 910.63,355.98 " fill="none" id="AbstractSet-TreeSet" style="stroke: #A80036; stroke-width: 1.0;"/><polygon fill="none" points="836.79,313.18,824.37,296.02,844.78,301.68,836.79,313.18" style="stroke: #A80036; stroke-width: 1.0;"/><!--link NavigableSet to TreeSet--><path d="M949.5,316.15 C949.5,329.65 949.5,343.92 949.5,355.78 " fill="none" id="NavigableSet-TreeSet" style="stroke: #A80036; stroke-width: 1.0;"/><polygon fill="none" points="942.5,316.02,949.5,296.02,956.5,316.02,942.5,316.02" style="stroke: #A80036; stroke-width: 1.0;"/><!--link HashSet to LinkedHashSet--><path d="M833.5,432.15 C833.5,445.65 833.5,459.92 833.5,471.78 " fill="none" id="HashSet-LinkedHashSet" style="stroke: #A80036; stroke-width: 1.0;"/><polygon fill="none" points="826.5,432.02,833.5,412.02,840.5,432.02,826.5,432.02" style="stroke: #A80036; stroke-width: 1.0;"/><!--link Deque to LinkedList--><path d="M302.19,414.82 C270.67,432.78 230.89,455.46 200.56,472.74 " fill="none" id="Deque-LinkedList" style="stroke: #A80036; stroke-width: 1.0; stroke-dasharray: 7.0,7.0;"/><polygon fill="none" points="298.82,408.68,319.66,404.86,305.75,420.84,298.82,408.68" style="stroke: #A80036; stroke-width: 1.0;"/><!--link Deque to ArrayDeque--><path d="M351.6,432.15 C350.78,445.65 349.9,459.92 349.17,471.78 " fill="none" id="Deque-ArrayDeque" style="stroke: #A80036; stroke-width: 1.0; stroke-dasharray: 7.0,7.0;"/><polygon fill="none" points="344.63,431.55,352.84,412.02,358.6,432.41,344.63,431.55" style="stroke: #A80036; stroke-width: 1.0;"/><!--link Vector to Stack--><path d="M459.98,432.15 C460.69,445.65 461.44,459.92 462.07,471.78 " fill="none" id="Vector-Stack" style="stroke: #A80036; stroke-width: 1.0;"/><polygon fill="none" points="452.98,432.36,458.92,412.02,466.96,431.62,452.98,432.36" style="stroke: #A80036; stroke-width: 1.0;"/><!--
@startuml
class Collection <<E>> #gray/white
class "Abstract Collection" as AbstractCollection <<E>> #bisque/white
class List <<E>> #gray/white
class Queue <<E>> #gray/white
class Set <<E>> #gray/white
class "Abstract List" as AbstractLIst <<E>> #bisque/white
class "Abstract Queue" as AbstractQueue <<E>> #bisque/white
class "Abstract Set"  as AbstractSet <<E>> #bisque/white
class "Abstract Sequential List" as AbstractSequentialLIst <<E>> #bisque/white
class Deque <<E>> #gray/white
class "Navigable Set" as NavigableSet <<E>> #gray/white
class "Array List" as ArrayList <<E>> #gold/white
class Vector <<E>> #gold/white
class "Linked List" as LinkedList <<E>> #gold/white
class "Array Deque" as ArrayDeque <<E>> #gold/white
class "Priority Dueue" as PriorityDueue <<E>> #gold/white
class "Enum Set" as EnumSet <<E>> #gold/white
class "Hash Set" as HashSet <<E>> #gold/white
class "Tree Set" as TreeSet <<E>> #gold/white
class Stack <<E>> #gold/white
class "Linked Hash Set" as LinkedHashSet <<E>> #gold/white

Collection <|..AbstractCollection
AbstractCollection <|- - AbstractLIst
List <|- - AbstractLIst
AbstractCollection <|- - AbstractQueue
Queue <|- - AbstractQueue
AbstractCollection <|- - AbstractSet
Set  <|- - AbstractSet
AbstractLIst  <|- - ArrayList
AbstractLIst  <|- - Vector
AbstractLIst  <|- - AbstractSequentialLIst
AbstractSequentialLIst  <|- - LinkedList
AbstractQueue  <|- - PriorityDueue
AbstractSet  <|- - EnumSet
AbstractSet  <|- - HashSet
AbstractSet  <|- - TreeSet
NavigableSet  <|- - TreeSet
HashSet  <|- - LinkedHashSet
Deque  <|.. LinkedList
Deque  <|.. ArrayDeque
Vector  <|- - Stack
@enduml

PlantUML version 1.2019.05(Sat Apr 20 18:45:36 CEST 2019)
(GPL source distribution)
Java Runtime: Java(TM) SE Runtime Environment
JVM: Java HotSpot(TM) 64-Bit Server VM
Java Version: 11.0.14+8-LTS-263
Operating System: Windows 10
OS Version: 10.0
Default Encoding: windows-1252
Language: es
Country: ES
--></g></svg>