<?xml version="1.0" encoding="UTF-8" standalone="no"?><svg xmlns="http://www.w3.org/2000/svg" xmlns:xlink="http://www.w3.org/1999/xlink" contentScriptType="application/ecmascript" contentStyleType="text/css" height="423px" preserveAspectRatio="none" style="width:302px;height:423px;" version="1.1" viewBox="0 0 302 423" width="302px" zoomAndPan="magnify"><defs><linearGradient id="g117xekyddguqs0" x1="0%" x2="100%" y1="0%" y2="100%"><stop offset="0%" stop-color="#808080"/><stop offset="100%" stop-color="#FFFFFF"/></linearGradient><filter height="300%" id="f117xekyddguqs" width="300%" x="-1" y="-1"><feGaussianBlur result="blurOut" stdDeviation="2.0"/><feColorMatrix in="blurOut" result="blurOut2" type="matrix" values="0 0 0 0 0 0 0 0 0 0 0 0 0 0 0 0 0 0 .4 0"/><feOffset dx="4.0" dy="4.0" in="blurOut2" result="blurOut3"/><feBlend in="SourceGraphic" in2="blurOut3" mode="normal"/></filter></defs><g><!--class Collection--><rect fill="url(#g117xekyddguqs0)" filter="url(#f117xekyddguqs)" height="56.1875" id="Collection" style="stroke: #A80036; stroke-width: 1.5;" width="87" x="84.5" y="8"/><rect fill="url(#g117xekyddguqs0)" height="40.1875" style="stroke: #A80036; stroke-width: 1.5;" width="87" x="84.5" y="8"/><ellipse cx="99.5" cy="28.0938" fill="#ADD1B2" rx="11" ry="11" style="stroke: #A80036; stroke-width: 1.0;"/><path d="M102.2656,23.9688 Q102.4219,23.75 102.6094,23.6406 Q102.7969,23.5313 103.0156,23.5313 Q103.3906,23.5313 103.625,23.7969 Q103.8594,24.0469 103.8594,24.6563 L103.8594,26.1094 Q103.8594,26.7188 103.625,26.9844 Q103.3906,27.25 103.0156,27.25 Q102.6719,27.25 102.4688,27.0469 Q102.2656,26.8594 102.1563,26.3438 Q102.1094,25.9844 101.9219,25.7969 Q101.5938,25.4219 100.9844,25.2031 Q100.375,24.9844 99.75,24.9844 Q98.9844,24.9844 98.3438,25.3125 Q97.7188,25.6406 97.2188,26.3906 Q96.7344,27.1406 96.7344,28.1719 L96.7344,29.2656 Q96.7344,30.5 97.625,31.3281 Q98.5156,32.1406 100.1094,32.1406 Q101.0469,32.1406 101.7031,31.8906 Q102.0938,31.7344 102.5156,31.2969 Q102.7813,31.0313 102.9219,30.9531 Q103.0781,30.875 103.2813,30.875 Q103.6094,30.875 103.8594,31.1406 Q104.125,31.3906 104.125,31.7344 Q104.125,32.0781 103.7813,32.4844 Q103.2813,33.0625 102.4844,33.3906 Q101.4063,33.8438 100.1094,33.8438 Q98.5938,33.8438 97.3906,33.2188 Q96.4063,32.7188 95.7188,31.6563 Q95.0313,30.5781 95.0313,29.2969 L95.0313,28.1406 Q95.0313,26.8125 95.6406,25.6719 Q96.2656,24.5156 97.3594,23.9063 Q98.4531,23.2813 99.6875,23.2813 Q100.4219,23.2813 101.0625,23.4531 Q101.7188,23.6094 102.2656,23.9688 Z "/><text fill="#000000" font-family="sans-serif" font-size="12" font-style="italic" lengthAdjust="spacingAndGlyphs" textLength="22" x="130" y="25.457">«E»</text><text fill="#000000" font-family="sans-serif" font-size="12" lengthAdjust="spacingAndGlyphs" textLength="55" x="113.5" y="40.5508">Collection</text><line style="stroke: #A80036; stroke-width: 1.5;" x1="85.5" x2="170.5" y1="48.1875" y2="48.1875"/><line style="stroke: #A80036; stroke-width: 1.5;" x1="85.5" x2="170.5" y1="56.1875" y2="56.1875"/><!--class List--><rect fill="url(#g117xekyddguqs0)" filter="url(#f117xekyddguqs)" height="56.1875" id="List" style="stroke: #A80036; stroke-width: 1.5;" width="52" x="6" y="124"/><rect fill="url(#g117xekyddguqs0)" height="40.1875" style="stroke: #A80036; stroke-width: 1.5;" width="52" x="6" y="124"/><ellipse cx="21" cy="144.0938" fill="#ADD1B2" rx="11" ry="11" style="stroke: #A80036; stroke-width: 1.0;"/><path d="M23.7656,139.9688 Q23.9219,139.75 24.1094,139.6406 Q24.2969,139.5313 24.5156,139.5313 Q24.8906,139.5313 25.125,139.7969 Q25.3594,140.0469 25.3594,140.6563 L25.3594,142.1094 Q25.3594,142.7188 25.125,142.9844 Q24.8906,143.25 24.5156,143.25 Q24.1719,143.25 23.9688,143.0469 Q23.7656,142.8594 23.6563,142.3438 Q23.6094,141.9844 23.4219,141.7969 Q23.0938,141.4219 22.4844,141.2031 Q21.875,140.9844 21.25,140.9844 Q20.4844,140.9844 19.8438,141.3125 Q19.2188,141.6406 18.7188,142.3906 Q18.2344,143.1406 18.2344,144.1719 L18.2344,145.2656 Q18.2344,146.5 19.125,147.3281 Q20.0156,148.1406 21.6094,148.1406 Q22.5469,148.1406 23.2031,147.8906 Q23.5938,147.7344 24.0156,147.2969 Q24.2813,147.0313 24.4219,146.9531 Q24.5781,146.875 24.7813,146.875 Q25.1094,146.875 25.3594,147.1406 Q25.625,147.3906 25.625,147.7344 Q25.625,148.0781 25.2813,148.4844 Q24.7813,149.0625 23.9844,149.3906 Q22.9063,149.8438 21.6094,149.8438 Q20.0938,149.8438 18.8906,149.2188 Q17.9063,148.7188 17.2188,147.6563 Q16.5313,146.5781 16.5313,145.2969 L16.5313,144.1406 Q16.5313,142.8125 17.1406,141.6719 Q17.7656,140.5156 18.8594,139.9063 Q19.9531,139.2813 21.1875,139.2813 Q21.9219,139.2813 22.5625,139.4531 Q23.2188,139.6094 23.7656,139.9688 Z "/><text fill="#000000" font-family="sans-serif" font-size="12" font-style="italic" lengthAdjust="spacingAndGlyphs" textLength="22" x="34" y="141.457">«E»</text><text fill="#000000" font-family="sans-serif" font-size="12" lengthAdjust="spacingAndGlyphs" textLength="20" x="35" y="156.5508">List</text><line style="stroke: #A80036; stroke-width: 1.5;" x1="7" x2="57" y1="164.1875" y2="164.1875"/><line style="stroke: #A80036; stroke-width: 1.5;" x1="7" x2="57" y1="172.1875" y2="172.1875"/><!--class Queue--><rect fill="url(#g117xekyddguqs0)" filter="url(#f117xekyddguqs)" height="56.1875" id="Queue" style="stroke: #A80036; stroke-width: 1.5;" width="69" x="93.5" y="124"/><rect fill="url(#g117xekyddguqs0)" height="40.1875" style="stroke: #A80036; stroke-width: 1.5;" width="69" x="93.5" y="124"/><ellipse cx="108.5" cy="144.0938" fill="#ADD1B2" rx="11" ry="11" style="stroke: #A80036; stroke-width: 1.0;"/><path d="M111.2656,139.9688 Q111.4219,139.75 111.6094,139.6406 Q111.7969,139.5313 112.0156,139.5313 Q112.3906,139.5313 112.625,139.7969 Q112.8594,140.0469 112.8594,140.6563 L112.8594,142.1094 Q112.8594,142.7188 112.625,142.9844 Q112.3906,143.25 112.0156,143.25 Q111.6719,143.25 111.4688,143.0469 Q111.2656,142.8594 111.1563,142.3438 Q111.1094,141.9844 110.9219,141.7969 Q110.5938,141.4219 109.9844,141.2031 Q109.375,140.9844 108.75,140.9844 Q107.9844,140.9844 107.3438,141.3125 Q106.7188,141.6406 106.2188,142.3906 Q105.7344,143.1406 105.7344,144.1719 L105.7344,145.2656 Q105.7344,146.5 106.625,147.3281 Q107.5156,148.1406 109.1094,148.1406 Q110.0469,148.1406 110.7031,147.8906 Q111.0938,147.7344 111.5156,147.2969 Q111.7813,147.0313 111.9219,146.9531 Q112.0781,146.875 112.2813,146.875 Q112.6094,146.875 112.8594,147.1406 Q113.125,147.3906 113.125,147.7344 Q113.125,148.0781 112.7813,148.4844 Q112.2813,149.0625 111.4844,149.3906 Q110.4063,149.8438 109.1094,149.8438 Q107.5938,149.8438 106.3906,149.2188 Q105.4063,148.7188 104.7188,147.6563 Q104.0313,146.5781 104.0313,145.2969 L104.0313,144.1406 Q104.0313,142.8125 104.6406,141.6719 Q105.2656,140.5156 106.3594,139.9063 Q107.4531,139.2813 108.6875,139.2813 Q109.4219,139.2813 110.0625,139.4531 Q110.7188,139.6094 111.2656,139.9688 Z "/><text fill="#000000" font-family="sans-serif" font-size="12" font-style="italic" lengthAdjust="spacingAndGlyphs" textLength="22" x="130" y="141.457">«E»</text><text fill="#000000" font-family="sans-serif" font-size="12" lengthAdjust="spacingAndGlyphs" textLength="37" x="122.5" y="156.5508">Queue</text><line style="stroke: #A80036; stroke-width: 1.5;" x1="94.5" x2="161.5" y1="164.1875" y2="164.1875"/><line style="stroke: #A80036; stroke-width: 1.5;" x1="94.5" x2="161.5" y1="172.1875" y2="172.1875"/><!--class Set--><rect fill="url(#g117xekyddguqs0)" filter="url(#f117xekyddguqs)" height="56.1875" id="Set" style="stroke: #A80036; stroke-width: 1.5;" width="50" x="207" y="124"/><rect fill="url(#g117xekyddguqs0)" height="40.1875" style="stroke: #A80036; stroke-width: 1.5;" width="50" x="207" y="124"/><ellipse cx="222" cy="144.0938" fill="#ADD1B2" rx="11" ry="11" style="stroke: #A80036; stroke-width: 1.0;"/><path d="M224.7656,139.9688 Q224.9219,139.75 225.1094,139.6406 Q225.2969,139.5313 225.5156,139.5313 Q225.8906,139.5313 226.125,139.7969 Q226.3594,140.0469 226.3594,140.6563 L226.3594,142.1094 Q226.3594,142.7188 226.125,142.9844 Q225.8906,143.25 225.5156,143.25 Q225.1719,143.25 224.9688,143.0469 Q224.7656,142.8594 224.6563,142.3438 Q224.6094,141.9844 224.4219,141.7969 Q224.0938,141.4219 223.4844,141.2031 Q222.875,140.9844 222.25,140.9844 Q221.4844,140.9844 220.8438,141.3125 Q220.2188,141.6406 219.7188,142.3906 Q219.2344,143.1406 219.2344,144.1719 L219.2344,145.2656 Q219.2344,146.5 220.125,147.3281 Q221.0156,148.1406 222.6094,148.1406 Q223.5469,148.1406 224.2031,147.8906 Q224.5938,147.7344 225.0156,147.2969 Q225.2813,147.0313 225.4219,146.9531 Q225.5781,146.875 225.7813,146.875 Q226.1094,146.875 226.3594,147.1406 Q226.625,147.3906 226.625,147.7344 Q226.625,148.0781 226.2813,148.4844 Q225.7813,149.0625 224.9844,149.3906 Q223.9063,149.8438 222.6094,149.8438 Q221.0938,149.8438 219.8906,149.2188 Q218.9063,148.7188 218.2188,147.6563 Q217.5313,146.5781 217.5313,145.2969 L217.5313,144.1406 Q217.5313,142.8125 218.1406,141.6719 Q218.7656,140.5156 219.8594,139.9063 Q220.9531,139.2813 222.1875,139.2813 Q222.9219,139.2813 223.5625,139.4531 Q224.2188,139.6094 224.7656,139.9688 Z "/><text fill="#000000" font-family="sans-serif" font-size="12" font-style="italic" lengthAdjust="spacingAndGlyphs" textLength="22" x="234" y="141.457">«E»</text><text fill="#000000" font-family="sans-serif" font-size="12" lengthAdjust="spacingAndGlyphs" textLength="18" x="236" y="156.5508">Set</text><line style="stroke: #A80036; stroke-width: 1.5;" x1="208" x2="256" y1="164.1875" y2="164.1875"/><line style="stroke: #A80036; stroke-width: 1.5;" x1="208" x2="256" y1="172.1875" y2="172.1875"/><!--class Deque--><rect fill="url(#g117xekyddguqs0)" filter="url(#f117xekyddguqs)" height="56.1875" id="Deque" style="stroke: #A80036; stroke-width: 1.5;" width="69" x="88.5" y="240"/><rect fill="url(#g117xekyddguqs0)" height="40.1875" style="stroke: #A80036; stroke-width: 1.5;" width="69" x="88.5" y="240"/><ellipse cx="103.5" cy="260.0938" fill="#ADD1B2" rx="11" ry="11" style="stroke: #A80036; stroke-width: 1.0;"/><path d="M106.2656,255.9688 Q106.4219,255.75 106.6094,255.6406 Q106.7969,255.5313 107.0156,255.5313 Q107.3906,255.5313 107.625,255.7969 Q107.8594,256.0469 107.8594,256.6563 L107.8594,258.1094 Q107.8594,258.7188 107.625,258.9844 Q107.3906,259.25 107.0156,259.25 Q106.6719,259.25 106.4688,259.0469 Q106.2656,258.8594 106.1563,258.3438 Q106.1094,257.9844 105.9219,257.7969 Q105.5938,257.4219 104.9844,257.2031 Q104.375,256.9844 103.75,256.9844 Q102.9844,256.9844 102.3438,257.3125 Q101.7188,257.6406 101.2188,258.3906 Q100.7344,259.1406 100.7344,260.1719 L100.7344,261.2656 Q100.7344,262.5 101.625,263.3281 Q102.5156,264.1406 104.1094,264.1406 Q105.0469,264.1406 105.7031,263.8906 Q106.0938,263.7344 106.5156,263.2969 Q106.7813,263.0313 106.9219,262.9531 Q107.0781,262.875 107.2813,262.875 Q107.6094,262.875 107.8594,263.1406 Q108.125,263.3906 108.125,263.7344 Q108.125,264.0781 107.7813,264.4844 Q107.2813,265.0625 106.4844,265.3906 Q105.4063,265.8438 104.1094,265.8438 Q102.5938,265.8438 101.3906,265.2188 Q100.4063,264.7188 99.7188,263.6563 Q99.0313,262.5781 99.0313,261.2969 L99.0313,260.1406 Q99.0313,258.8125 99.6406,257.6719 Q100.2656,256.5156 101.3594,255.9063 Q102.4531,255.2813 103.6875,255.2813 Q104.4219,255.2813 105.0625,255.4531 Q105.7188,255.6094 106.2656,255.9688 Z "/><text fill="#000000" font-family="sans-serif" font-size="12" font-style="italic" lengthAdjust="spacingAndGlyphs" textLength="22" x="125" y="257.457">«E»</text><text fill="#000000" font-family="sans-serif" font-size="12" lengthAdjust="spacingAndGlyphs" textLength="37" x="117.5" y="272.5508">Deque</text><line style="stroke: #A80036; stroke-width: 1.5;" x1="89.5" x2="156.5" y1="280.1875" y2="280.1875"/><line style="stroke: #A80036; stroke-width: 1.5;" x1="89.5" x2="156.5" y1="288.1875" y2="288.1875"/><!--class SortedSet--><rect fill="url(#g117xekyddguqs0)" filter="url(#f117xekyddguqs)" height="56.1875" id="SortedSet" style="stroke: #A80036; stroke-width: 1.5;" width="89" x="192.5" y="240"/><rect fill="url(#g117xekyddguqs0)" height="40.1875" style="stroke: #A80036; stroke-width: 1.5;" width="89" x="192.5" y="240"/><ellipse cx="207.5" cy="260.0938" fill="#ADD1B2" rx="11" ry="11" style="stroke: #A80036; stroke-width: 1.0;"/><path d="M210.2656,255.9688 Q210.4219,255.75 210.6094,255.6406 Q210.7969,255.5313 211.0156,255.5313 Q211.3906,255.5313 211.625,255.7969 Q211.8594,256.0469 211.8594,256.6563 L211.8594,258.1094 Q211.8594,258.7188 211.625,258.9844 Q211.3906,259.25 211.0156,259.25 Q210.6719,259.25 210.4688,259.0469 Q210.2656,258.8594 210.1563,258.3438 Q210.1094,257.9844 209.9219,257.7969 Q209.5938,257.4219 208.9844,257.2031 Q208.375,256.9844 207.75,256.9844 Q206.9844,256.9844 206.3438,257.3125 Q205.7188,257.6406 205.2188,258.3906 Q204.7344,259.1406 204.7344,260.1719 L204.7344,261.2656 Q204.7344,262.5 205.625,263.3281 Q206.5156,264.1406 208.1094,264.1406 Q209.0469,264.1406 209.7031,263.8906 Q210.0938,263.7344 210.5156,263.2969 Q210.7813,263.0313 210.9219,262.9531 Q211.0781,262.875 211.2813,262.875 Q211.6094,262.875 211.8594,263.1406 Q212.125,263.3906 212.125,263.7344 Q212.125,264.0781 211.7813,264.4844 Q211.2813,265.0625 210.4844,265.3906 Q209.4063,265.8438 208.1094,265.8438 Q206.5938,265.8438 205.3906,265.2188 Q204.4063,264.7188 203.7188,263.6563 Q203.0313,262.5781 203.0313,261.2969 L203.0313,260.1406 Q203.0313,258.8125 203.6406,257.6719 Q204.2656,256.5156 205.3594,255.9063 Q206.4531,255.2813 207.6875,255.2813 Q208.4219,255.2813 209.0625,255.4531 Q209.7188,255.6094 210.2656,255.9688 Z "/><text fill="#000000" font-family="sans-serif" font-size="12" font-style="italic" lengthAdjust="spacingAndGlyphs" textLength="22" x="239" y="257.457">«E»</text><text fill="#000000" font-family="sans-serif" font-size="12" lengthAdjust="spacingAndGlyphs" textLength="57" x="221.5" y="272.5508">Sorted Set</text><line style="stroke: #A80036; stroke-width: 1.5;" x1="193.5" x2="280.5" y1="280.1875" y2="280.1875"/><line style="stroke: #A80036; stroke-width: 1.5;" x1="193.5" x2="280.5" y1="288.1875" y2="288.1875"/><!--class NavigableSet--><rect fill="url(#g117xekyddguqs0)" filter="url(#f117xekyddguqs)" height="56.1875" id="NavigableSet" style="stroke: #A80036; stroke-width: 1.5;" width="108" x="183" y="356"/><rect fill="url(#g117xekyddguqs0)" height="40.1875" style="stroke: #A80036; stroke-width: 1.5;" width="108" x="183" y="356"/><ellipse cx="198" cy="376.0938" fill="#ADD1B2" rx="11" ry="11" style="stroke: #A80036; stroke-width: 1.0;"/><path d="M200.7656,371.9688 Q200.9219,371.75 201.1094,371.6406 Q201.2969,371.5313 201.5156,371.5313 Q201.8906,371.5313 202.125,371.7969 Q202.3594,372.0469 202.3594,372.6563 L202.3594,374.1094 Q202.3594,374.7188 202.125,374.9844 Q201.8906,375.25 201.5156,375.25 Q201.1719,375.25 200.9688,375.0469 Q200.7656,374.8594 200.6563,374.3438 Q200.6094,373.9844 200.4219,373.7969 Q200.0938,373.4219 199.4844,373.2031 Q198.875,372.9844 198.25,372.9844 Q197.4844,372.9844 196.8438,373.3125 Q196.2188,373.6406 195.7188,374.3906 Q195.2344,375.1406 195.2344,376.1719 L195.2344,377.2656 Q195.2344,378.5 196.125,379.3281 Q197.0156,380.1406 198.6094,380.1406 Q199.5469,380.1406 200.2031,379.8906 Q200.5938,379.7344 201.0156,379.2969 Q201.2813,379.0313 201.4219,378.9531 Q201.5781,378.875 201.7813,378.875 Q202.1094,378.875 202.3594,379.1406 Q202.625,379.3906 202.625,379.7344 Q202.625,380.0781 202.2813,380.4844 Q201.7813,381.0625 200.9844,381.3906 Q199.9063,381.8438 198.6094,381.8438 Q197.0938,381.8438 195.8906,381.2188 Q194.9063,380.7188 194.2188,379.6563 Q193.5313,378.5781 193.5313,377.2969 L193.5313,376.1406 Q193.5313,374.8125 194.1406,373.6719 Q194.7656,372.5156 195.8594,371.9063 Q196.9531,371.2813 198.1875,371.2813 Q198.9219,371.2813 199.5625,371.4531 Q200.2188,371.6094 200.7656,371.9688 Z "/><text fill="#000000" font-family="sans-serif" font-size="12" font-style="italic" lengthAdjust="spacingAndGlyphs" textLength="22" x="239" y="373.457">«E»</text><text fill="#000000" font-family="sans-serif" font-size="12" lengthAdjust="spacingAndGlyphs" textLength="76" x="212" y="388.5508">Navigable Set</text><line style="stroke: #A80036; stroke-width: 1.5;" x1="184" x2="290" y1="396.1875" y2="396.1875"/><line style="stroke: #A80036; stroke-width: 1.5;" x1="184" x2="290" y1="404.1875" y2="404.1875"/><!--link Collection to List--><path d="M92.32,79.37 C79.81,94.23 66.1,110.5 54.92,123.78 " fill="none" id="Collection-List" style="stroke: #A80036; stroke-width: 1.0;"/><polygon fill="none" points="87.01,74.81,105.25,64.02,97.72,83.82,87.01,74.81" style="stroke: #A80036; stroke-width: 1.0;"/><!--link Collection to Queue--><path d="M128,84.15 C128,97.65 128,111.92 128,123.78 " fill="none" id="Collection-Queue" style="stroke: #A80036; stroke-width: 1.0;"/><polygon fill="none" points="121,84.02,128,64.02,135,84.02,121,84.02" style="stroke: #A80036; stroke-width: 1.0;"/><!--link Collection to Set--><path d="M166.22,78.9 C179.89,93.88 194.93,110.36 207.17,123.78 " fill="none" id="Collection-Set" style="stroke: #A80036; stroke-width: 1.0;"/><polygon fill="none" points="160.95,83.51,152.65,64.02,171.3,74.07,160.95,83.51" style="stroke: #A80036; stroke-width: 1.0;"/><!--link Queue to Deque--><path d="M125.93,200.15 C125.34,213.65 124.71,227.92 124.19,239.78 " fill="none" id="Queue-Deque" style="stroke: #A80036; stroke-width: 1.0;"/><polygon fill="none" points="118.95,199.69,126.82,180.02,132.93,200.3,118.95,199.69" style="stroke: #A80036; stroke-width: 1.0;"/><!--link Set to SortedSet--><path d="M234.07,200.15 C234.66,213.65 235.29,227.92 235.81,239.78 " fill="none" id="Set-SortedSet" style="stroke: #A80036; stroke-width: 1.0;"/><polygon fill="none" points="227.07,200.3,233.18,180.02,241.05,199.69,227.07,200.3" style="stroke: #A80036; stroke-width: 1.0;"/><!--link SortedSet to NavigableSet--><path d="M237,316.15 C237,329.65 237,343.92 237,355.78 " fill="none" id="SortedSet-NavigableSet" style="stroke: #A80036; stroke-width: 1.0;"/><polygon fill="none" points="230,316.02,237,296.02,244,316.02,230,316.02" style="stroke: #A80036; stroke-width: 1.0;"/><!--
@startuml
class Collection <<E>> #gray/white
class List <<E>>  #gray/white
class Queue <<E>> #gray/white
class Set <<E>> #gray/white
class Deque <<E>> #gray/white
class "Sorted Set" as SortedSet <<E>> #gray/white
class "Navigable Set" as NavigableSet <<E>> #gray/white


Collection <|-down-List
Collection <|- - Queue
Collection <|- - Set
Queue <|- - Deque
Set <|- - SortedSet
SortedSet <|- - NavigableSet
@enduml

PlantUML version 1.2019.05(Sat Apr 20 18:45:36 CEST 2019)
(GPL source distribution)
Java Runtime: Java(TM) SE Runtime Environment
JVM: Java HotSpot(TM) 64-Bit Server VM
Java Version: 11.0.14+8-LTS-263
Operating System: Windows 10
OS Version: 10.0
Default Encoding: windows-1252
Language: es
Country: ES
--></g></svg>