<?xml version="1.0" encoding="UTF-8" standalone="no"?><svg xmlns="http://www.w3.org/2000/svg" xmlns:xlink="http://www.w3.org/1999/xlink" contentScriptType="application/ecmascript" contentStyleType="text/css" height="357px" preserveAspectRatio="none" style="width:459px;height:357px;background:#222222;" version="1.1" viewBox="0 0 459 357" width="459px" zoomAndPan="magnify"><defs/><g><!--class Throwable--><polygon fill="#222222" points="95,8,95,8.2102,105.069,7.5857,115.1379,8.1933,125.2069,8.3997,135.2759,7.2866,145.3448,7.9223,155.4138,7.5735,165.4828,7.6165,175.5517,7.9318,185.6207,7.3086,195.6897,8.5536,205.7586,7.3697,215.8276,7.8022,225.8966,8.4319,235.9655,7.9142,246.0345,8.0682,256.1034,7.9681,266.1724,8.1785,276.2414,8.2391,286.3103,8.5857,296.3793,8.6711,306.4483,8.6793,316.5172,8.2546,326.5862,8.4636,336.6552,8.7022,346.7241,7.2788,356.7931,8.6785,366.8621,7.7035,376.931,8.5338,387,8,386.505,8,386.9315,18.0309,387.7416,28.0618,386.9513,38.0927,387.1053,48.1236,387.3386,58.1545,387.4162,68.1854,386.9961,78.2163,387.2872,88.2472,386.4276,98.2781,387.2844,108.3089,387,118.3398,387,118.888,376.931,118.7844,366.8621,118.9529,356.7931,117.8568,346.7241,117.6877,336.6552,117.7184,326.5862,118.281,316.5172,118.1433,306.4483,119.0213,296.3793,118.1652,286.3103,117.9968,276.2414,118.5681,266.1724,117.673,256.1034,117.8207,246.0345,118.9888,235.9655,118.7755,225.8966,119.0743,215.8276,118.018,205.7586,118.659,195.6897,118.9303,185.6207,117.8674,175.5517,118.244,165.4828,118.4658,155.4138,118.9916,145.3448,118.3357,135.2759,118.8024,125.2069,117.7861,115.1379,117.6626,105.069,118.8435,95,118.3398,94.2831,118.3398,95.509,108.3089,95.2066,98.2781,94.7321,88.2472,94.6462,78.2163,95.4588,68.1854,94.7007,58.1545,95.5919,48.1236,94.4473,38.0927,95.6174,28.0618,95.4843,18.0309,95,8" style="stroke: #A9A9A9; stroke-width: 3.0;"/><text fill="#A9A9A9" font-family="courier" font-size="20" font-weight="bold" lengthAdjust="spacingAndGlyphs" textLength="108" x="187" y="34.1074">Throwable</text><path d="M96,46.1133 L96,46.3935 L106,45.5609 L116,46.371 L126,46.6462 L136,45.1621 L146,46.0097 L156,45.5446 L166,45.6019 L176,46.0224 L186,45.1915 L196,46.8515 L206,45.2729 L216,45.8496 L226,46.6892 L236,45.9989 L246,46.2043 L256,46.0707 L266,46.3513 L276,46.4321 L286,46.8942 L296,47.008 L306,47.019 L316,46.4528 L326,46.7314 L336,47.0496 L346,45.1517 L356,47.018 L366,45.7179 L376,46.825 L386,46.1133 " fill="#222222" style="stroke: #A9A9A9; stroke-width: 3.0;"/><path d="M96,54.1133 L96,54.3935 L106,53.5609 L116,54.371 L126,54.6462 L136,53.1621 L146,54.0097 L156,53.5446 L166,53.6019 L176,54.0224 L186,53.1915 L196,54.8515 L206,53.2729 L216,53.8496 L226,54.6892 L236,53.9989 L246,54.2043 L256,54.0707 L266,54.3513 L276,54.4321 L286,54.8942 L296,55.008 L306,55.019 L316,54.4528 L326,54.7314 L336,55.0496 L346,53.1517 L356,55.018 L366,53.7179 L376,54.825 L386,54.1133 " fill="#222222" style="stroke: #A9A9A9; stroke-width: 3.0;"/><polygon fill="#84BE84" points="109.0166,74.3996,108.5768,75.0005,108.0567,75.8806,107.3128,76.4737,106.5311,76.798,105.9078,76.8261,105.1067,76.4205,104.3509,76.1555,103.7771,75.6175,103.4762,75.0016,103.2977,74.5112,103.1229,73.8706,102.8391,73.3193,103.0572,72.7811,103.2482,72.1915,103.9653,71.7252,104.4697,71.1202,105.0941,70.9193,105.8364,70.7463,106.7883,70.8491,107.3097,71.095,107.9158,71.2064,108.6529,71.9616,108.9098,72.7587,109.0214,73.3027,108.895,74.199" style="stroke: #038048; stroke-width: 1.0;"/><text fill="#A9A9A9" font-family="courier" font-size="20" font-weight="bold" lengthAdjust="spacingAndGlyphs" textLength="228" x="116" y="79.2207">String getMessage()</text><polygon fill="#84BE84" points="109.0166,102.5129,108.5768,103.1138,108.0567,103.9939,107.3128,104.5869,106.5311,104.9113,105.9078,104.9394,105.1067,104.5338,104.3509,104.2688,103.7771,103.7308,103.4762,103.1149,103.2977,102.6244,103.1229,101.9838,102.8391,101.4326,103.0572,100.8944,103.2482,100.3048,103.9653,99.8385,104.4697,99.2335,105.0941,99.0326,105.8364,98.8596,106.7883,98.9624,107.3097,99.2083,107.9158,99.3197,108.6529,100.0748,108.9098,100.872,109.0214,101.4159,108.895,102.3123" style="stroke: #038048; stroke-width: 1.0;"/><text fill="#A9A9A9" font-family="courier" font-size="20" font-weight="bold" lengthAdjust="spacingAndGlyphs" textLength="264" x="116" y="107.334">void printStackTrace()</text><!--class Error--><polygon fill="#222222" points="144,178,144,178.2102,153.7143,177.5857,163.4286,178.1933,173.1429,178.3997,182.8571,177.2866,192.5714,177.9223,202.2857,177.5735,212,178,211.6165,178,211.9318,188.8227,211.3086,199.6453,212.5536,210.468,211.3697,221.2906,212,232.1133,212,231.9155,202.2857,232.5452,192.5714,232.0275,182.8571,232.1815,173.1429,232.0813,163.4286,232.2918,153.7143,232.3524,144,232.1133,144.5857,232.1133,144.6711,221.2906,144.6793,210.468,144.2546,199.6453,144.4636,188.8227,144,178" style="stroke: #A9A9A9; stroke-width: 3.0;"/><text fill="#A9A9A9" font-family="courier" font-size="20" font-weight="bold" lengthAdjust="spacingAndGlyphs" textLength="60" x="148" y="204.1074">Error</text><path d="M145,216.1133 L145,216.3935 L154.4286,215.5609 L163.8571,216.371 L173.2857,216.6462 L182.7143,215.1621 L192.1429,216.0097 L201.5714,215.5446 L211,216.1133 " fill="#222222" style="stroke: #A9A9A9; stroke-width: 3.0;"/><path d="M145,224.1133 L145,224.3935 L154.4286,223.5609 L163.8571,224.371 L173.2857,224.6462 L182.7143,223.1621 L192.1429,224.0097 L201.5714,223.5446 L211,224.1133 " fill="#222222" style="stroke: #A9A9A9; stroke-width: 3.0;"/><!--class Exception--><polygon fill="#222222" points="247,178,247,178.2102,256.6667,177.5857,266.3333,178.1933,276,178.3997,285.6667,177.2866,295.3333,177.9223,305,177.5735,314.6667,177.6165,324.3333,177.9318,334,177.3086,343.6667,178.5536,353.3333,177.3697,363,178,362.8022,178,363.4319,188.8227,362.9142,199.6453,363.0682,210.468,362.9681,221.2906,363,232.1133,363,232.2918,353.3333,232.3524,343.6667,232.699,334,232.7843,324.3333,232.7925,314.6667,232.3679,305,232.5769,295.3333,232.8155,285.6667,231.3921,276,232.7918,266.3333,231.8168,256.6667,232.6471,247,232.1133,246.505,232.1133,246.9315,221.2906,247.7416,210.468,246.9513,199.6453,247.1053,188.8227,247,178" style="stroke: #A9A9A9; stroke-width: 3.0;"/><text fill="#A9A9A9" font-family="courier" font-size="20" font-weight="bold" lengthAdjust="spacingAndGlyphs" textLength="108" x="251" y="204.1074">Exception</text><path d="M248,216.1133 L248,216.3935 L258.3636,215.5609 L268.7273,216.371 L279.0909,216.6462 L289.4545,215.1621 L299.8182,216.0097 L310.1818,215.5446 L320.5455,215.6019 L330.9091,216.0224 L341.2727,215.1915 L351.6364,216.8515 L362,216.1133 " fill="#222222" style="stroke: #A9A9A9; stroke-width: 3.0;"/><path d="M248,224.1133 L248,224.3935 L258.3636,223.5609 L268.7273,224.371 L279.0909,224.6462 L289.4545,223.1621 L299.8182,224.0097 L310.1818,223.5446 L320.5455,223.6019 L330.9091,224.0224 L341.2727,223.1915 L351.6364,224.8515 L362,224.1133 " fill="#222222" style="stroke: #A9A9A9; stroke-width: 3.0;"/><!--class RuntimeException--><polygon fill="#222222" points="6,292,6,292.2102,16,291.5857,26,292.1933,36,292.3997,46,291.2866,56,291.9223,66,291.5735,76,291.6165,86,291.9318,96,291.3086,106,292.5536,116,291.3697,126,291.8022,136,292.4319,146,291.9142,156,292.0682,166,291.9681,176,292.1785,186,292.2391,196,292.5857,206,292,206.6711,292,206.6793,302.8227,206.2546,313.6453,206.4636,324.468,206.7022,335.2906,206,346.1133,206,345.3921,196,346.7918,186,345.8168,176,346.6471,166,345.6183,156,346.0448,146,346.8549,136,346.0645,126,346.2186,116,346.4519,106,346.5295,96,346.1094,86,346.4005,76,345.5409,66,346.3977,56,346.6615,46,346.5578,36,346.7263,26,345.6302,16,345.4611,6,346.1133,5.3786,346.1133,5.9411,335.2906,5.8035,324.468,6.6814,313.6453,5.8253,302.8227,6,292" style="stroke: #A9A9A9; stroke-width: 3.0;"/><text fill="#A9A9A9" font-family="courier" font-size="20" font-weight="bold" lengthAdjust="spacingAndGlyphs" textLength="192" x="10" y="318.1074">RuntimeException</text><path d="M7,330.1133 L7,330.3935 L16.9,329.5609 L26.8,330.371 L36.7,330.6462 L46.6,329.1621 L56.5,330.0097 L66.4,329.5446 L76.3,329.6019 L86.2,330.0224 L96.1,329.1915 L106,330.8515 L115.9,329.2729 L125.8,329.8496 L135.7,330.6892 L145.6,329.9989 L155.5,330.2043 L165.4,330.0707 L175.3,330.3513 L185.2,330.4321 L195.1,330.8942 L205,330.1133 " fill="#222222" style="stroke: #A9A9A9; stroke-width: 3.0;"/><path d="M7,338.1133 L7,338.3935 L16.9,337.5609 L26.8,338.371 L36.7,338.6462 L46.6,337.1621 L56.5,338.0097 L66.4,337.5446 L76.3,337.6019 L86.2,338.0224 L96.1,337.1915 L106,338.8515 L115.9,337.2729 L125.8,337.8496 L135.7,338.6892 L145.6,337.9989 L155.5,338.2043 L165.4,338.0707 L175.3,338.3513 L185.2,338.4321 L195.1,338.8942 L205,338.1133 " fill="#222222" style="stroke: #A9A9A9; stroke-width: 3.0;"/><!--class IOExeption--><polygon fill="#222222" points="241,292,241,292.2102,250.8462,291.5857,260.6923,292.1933,270.5385,292.3997,280.3846,291.2866,290.2308,291.9223,300.0769,291.5735,309.9231,291.6165,319.7692,291.9318,329.6154,291.3086,339.4615,292.5536,349.3077,291.3697,359.1538,291.8022,369,292,369.4319,292,368.9142,302.8227,369.0682,313.6453,368.9681,324.468,369.1785,335.2906,369,346.1133,369,346.3524,359.1538,346.699,349.3077,346.7843,339.4615,346.7925,329.6154,346.3679,319.7692,346.5769,309.9231,346.8155,300.0769,345.3921,290.2308,346.7918,280.3846,345.8168,270.5385,346.6471,260.6923,345.6183,250.8462,346.0448,241,346.1133,241.7416,346.1133,240.9513,335.2906,241.1053,324.468,241.3386,313.6453,241.4162,302.8227,241,292" style="stroke: #A9A9A9; stroke-width: 3.0;"/><text fill="#A9A9A9" font-family="courier" font-size="20" font-weight="bold" lengthAdjust="spacingAndGlyphs" textLength="120" x="245" y="318.1074">IOExeption</text><path d="M242,330.1133 L242,330.3935 L251.6923,329.5609 L261.3846,330.371 L271.0769,330.6462 L280.7692,329.1621 L290.4615,330.0097 L300.1538,329.5446 L309.8462,329.6019 L319.5385,330.0224 L329.2308,329.1915 L338.9231,330.8515 L348.6154,329.2729 L358.3077,329.8496 L368,330.1133 " fill="#222222" style="stroke: #A9A9A9; stroke-width: 3.0;"/><path d="M242,338.1133 L242,338.3935 L251.6923,337.5609 L261.3846,338.371 L271.0769,338.6462 L280.7692,337.1621 L290.4615,338.0097 L300.1538,337.5446 L309.8462,337.6019 L319.5385,338.0224 L329.2308,337.1915 L338.9231,338.8515 L348.6154,337.2729 L358.3077,337.8496 L368,338.1133 " fill="#222222" style="stroke: #A9A9A9; stroke-width: 3.0;"/><!--class OtherException--><polygon fill="#222222" points="404,292,404,292.0701,412.8,291.8619,421.6,292.0644,430.4,292.1332,439.2,291.7622,448,292,447.9223,292,447.5735,302.8227,447.6165,313.6453,447.9318,324.468,447.3086,335.2906,448,346.1133,448,346.2978,439.2,345.9032,430.4,346.0474,421.6,346.2573,412.8,346.0847,404,346.1133,404.0682,346.1133,403.9681,335.2906,404.1785,324.468,404.2391,313.6453,404.5857,302.8227,404,292" style="stroke: #A9A9A9; stroke-width: 3.0;"/><text fill="#A9A9A9" font-family="courier" font-size="20" font-weight="bold" lengthAdjust="spacingAndGlyphs" textLength="36" x="408" y="318.1074">...</text><path d="M405,330.1133 L405,330.2067 L413.4,329.9291 L421.8,330.1992 L430.2,330.2909 L438.6,329.7962 L447,330.1133 " fill="#222222" style="stroke: #A9A9A9; stroke-width: 3.0;"/><path d="M405,338.1133 L405,338.2067 L413.4,337.9291 L421.8,338.1992 L430.2,338.2909 L438.6,337.7962 L447,338.1133 " fill="#222222" style="stroke: #A9A9A9; stroke-width: 3.0;"/><!--link Throwable to Error--><path d="M208.3,136.67 L208.5555,136.785 L204.0982,144.6593 L201.139,153.2078 L197.692,161.5367 L192.6406,169.1436 L189.81,177.75 " fill="none" style="stroke: #A9A9A9; stroke-width: 2.0;"/><polygon fill="none" points="202.05,133.49,202.1008,133.5383,204.8679,130.3229,207.9327,127.3904,210.9006,124.3658,213.5496,121.0382,216.64,118.13,216.6142,118.1278,216.1344,122.3398,215.7846,126.563,215.5254,130.794,214.9544,134.9982,214.82,139.24,214.8958,139.4083,212.1797,137.8984,209.6849,136.8799,207.2171,135.9213,204.5923,134.6139,202.05,133.49" style="stroke: #A9A9A9; stroke-width: 2.0;"/><!--link Throwable to Exception--><path d="M274.22,136.67 L274.4749,136.7865 L277.4736,144.6563 L281.9664,153.2092 L285.9727,161.5396 L288.3789,169.1385 L293,177.75 " fill="none" style="stroke: #A9A9A9; stroke-width: 2.0;"/><polygon fill="none" points="267.69,139.23,267.7598,139.2364,267.1625,134.9973,266.9742,130.7959,266.6527,126.5823,265.8932,122.3281,265.74,118.13,265.7213,118.112,268.5755,121.0875,271.5238,124.1534,274.5376,127.2823,277.3259,130.1943,280.43,133.41,280.5067,133.5779,277.7947,134.3829,275.3066,135.678,272.8458,137.033,270.2261,138.04,267.69,139.23" style="stroke: #A9A9A9; stroke-width: 2.0;"/><!--link Exception to RuntimeException--><path d="M240.91,242.07 L241.0475,242.3142 L231.7961,246.5656 L223.3504,252.2486 L214.6424,257.4654 L205.0715,261.1491 L196.6442,266.8647 L187.5731,271.4364 L178.7582,276.4634 L170.1214,281.8068 L160.8709,286.0597 L152.48,291.84 " fill="none" style="stroke: #A9A9A9; stroke-width: 2.0;"/><polygon fill="none" points="237.73,235.83,237.7423,235.899,241.8778,234.952,246.0853,234.4094,250.2693,233.7352,254.3764,232.6279,258.59,232.12,258.5705,232.1029,255.6852,235.2081,252.898,238.3996,250.1789,241.651,247.2249,244.6958,244.6,248.03,244.7608,248.1206,243.0429,245.4869,241.7946,243.1177,240.6035,240.7806,239.0791,238.256,237.73,235.83" style="stroke: #A9A9A9; stroke-width: 2.0;"/><!--link Exception to IOExeption--><path d="M305,252.37 L305.0934,252.37 L304.8159,260.278 L305.0859,268.186 L305.1776,276.094 L304.6829,284.002 L305,291.91 " fill="none" style="stroke: #A9A9A9; stroke-width: 2.0;"/><polygon fill="none" points="298,252.26,298.0661,252.2831,299.2696,248.2144,300.8608,244.2813,302.3257,240.304,303.3756,236.1814,305,232.26,304.9755,232.2514,306.2658,236.213,307.6793,240.2178,309.1786,244.2525,310.3825,248.1839,312,252.26,312,252.4445,309.2,252.0499,306.4,252.1941,303.6,252.404,300.8,252.2314,298,252.26" style="stroke: #A9A9A9; stroke-width: 2.0;"/><!--link Exception to OtherException--><path d="M348.12,245.92 L348.3104,246.1257 L354.711,251.9621 L362.2276,259.0041 L369.3807,265.6536 L375.3389,271.0119 L382.8809,278.0815 L389.5312,284.1877 L396.5364,290.6772 L403.85,297.5 " fill="none" style="stroke: #A9A9A9; stroke-width: 2.0;"/><polygon fill="none" points="343.29,250.98,343.3519,251.0128,341.184,247.1713,339.3789,243.5222,337.4557,239.8104,335.1439,235.8927,333.37,232.26,333.3597,232.2362,337.1993,233.8196,341.091,235.5228,345.0189,237.3092,348.8221,238.8087,352.8,240.71,352.9354,240.8354,350.7438,242.6213,348.9476,244.7732,347.1996,246.9698,345.171,248.9066,343.29,250.98" style="stroke: #A9A9A9; stroke-width: 2.0;"/><!--
@startuml

skinparam backgroundColor #222222
skinparam handwritten true
hide circle
skinparam shadowing false
skinparam padding 1
skinparam arrow {
    Thickness 2
    Color #DarkGrey
    FontSize 20
    FontName courier
    FontStyle normal
    FontColor #DarkGrey
}
skinparam class {
    BorderThickness 3
    BorderColor #DarkGrey
    BackgroundColor #222222
    FontSize 20
    FontName courier
    FontStyle bold
    FontColor #DarkGrey
    AttributeFontSize 20
    AttributeFontName courier
    AttributeFontStyle bold
    AttributeFontColor #DarkGrey
}

class Throwable {
    + String getMessage()
    + void printStackTrace()
}
class Error
class Exception
class RuntimeException
class IOExeption
class "..." as OtherException

Throwable <|- - Error
Throwable <|- - Exception
Exception <|- - RuntimeException
Exception <|- - IOExeption
Exception <|- - OtherException
@enduml

PlantUML version 1.2019.05(Sat Apr 20 18:45:36 CEST 2019)
(GPL source distribution)
Java Runtime: Java(TM) SE Runtime Environment
JVM: Java HotSpot(TM) 64-Bit Server VM
Java Version: 11.0.14+8-LTS-263
Operating System: Windows 10
OS Version: 10.0
Default Encoding: windows-1252
Language: es
Country: ES
--></g></svg>