<?xml version="1.0" encoding="UTF-8" standalone="no"?><svg xmlns="http://www.w3.org/2000/svg" xmlns:xlink="http://www.w3.org/1999/xlink" contentScriptType="application/ecmascript" contentStyleType="text/css" height="846px" preserveAspectRatio="none" style="width:641px;height:846px;background:#222222;" version="1.1" viewBox="0 0 641 846" width="641px" zoomAndPan="magnify"><defs/><g><!--class Animal--><polygon fill="#222222" points="414.5,8,414.5,8.2102,424.6111,7.5857,434.7222,8.1933,444.8333,8.3997,454.9444,7.2866,465.0556,7.9223,475.1667,7.5735,485.2778,7.6165,495.3889,7.9318,505.5,8,504.8086,8,506.0536,17.7283,504.8697,27.4566,505.3022,37.185,505.9319,46.9133,505.4142,56.6416,505.5682,66.3699,505.4681,76.0982,505.6785,85.8266,505.7391,95.5549,505.5,105.2832,505.5,105.8689,495.3889,105.9543,485.2778,105.9625,475.1667,105.5378,465.0556,105.7468,454.9444,105.9854,444.8333,104.562,434.7222,105.9617,424.6111,104.9867,414.5,105.2832,415.0338,105.2832,414.005,95.5549,414.4315,85.8266,415.2416,76.0982,414.4513,66.3699,414.6053,56.6416,414.8386,46.9133,414.9162,37.185,414.4961,27.4566,414.7872,17.7283,414.5,8" style="stroke: #A9A9A9; stroke-width: 3.0;"/><text fill="#A9A9A9" font-family="courier" font-size="20" font-weight="bold" lengthAdjust="spacingAndGlyphs" textLength="72" x="424" y="34.1074">Animal</text><path d="M415.5,46.1133 L415.5,46.3935 L425.3889,45.5609 L435.2778,46.371 L445.1667,46.6462 L455.0556,45.1621 L464.9444,46.0097 L474.8333,45.5446 L484.7222,45.6019 L494.6111,46.0224 L504.5,46.1133 " fill="#222222" style="stroke: #A9A9A9; stroke-width: 3.0;"/><polygon fill="none" points="422.5,59.4058,422.5,59.4758,423.7,59.2677,424.9,59.4702,426.1,59.539,427.3,59.168,428.5,59.4058,428.4741,59.4058,428.3578,60.6058,428.3722,61.8058,428.4773,63.0058,428.2695,64.2058,428.5,65.4058,428.5,65.5903,427.3,65.1957,426.1,65.3398,424.9,65.5497,423.7,65.3772,422.5,65.4058,422.5227,65.4058,422.4894,64.2058,422.5595,63.0058,422.5797,61.8058,422.6952,60.6058,422.5,59.4058" style="stroke: #C82930; stroke-width: 1.0;"/><text fill="#A9A9A9" font-family="courier" font-size="15" lengthAdjust="spacingAndGlyphs" textLength="63" x="435.5" y="66.1938">celulas</text><path d="M415.5,75.6982 L415.5,75.9785 L425.3889,75.1458 L435.2778,75.956 L445.1667,76.2311 L455.0556,74.747 L464.9444,75.5946 L474.8333,75.1296 L484.7222,75.1869 L494.6111,75.6074 L504.5,75.6982 " fill="#222222" style="stroke: #A9A9A9; stroke-width: 3.0;"/><polygon fill="#84BE84" points="428.5166,92.7204,428.0768,93.3213,427.5567,94.2014,426.8128,94.7945,426.0311,95.1188,425.4078,95.1469,424.6067,94.7413,423.8509,94.4763,423.2771,93.9383,422.9762,93.3224,422.7977,92.832,422.6229,92.1914,422.3391,91.6401,422.5572,91.1019,422.7482,90.5123,423.4653,90.046,423.9697,89.441,424.5941,89.2401,425.3364,89.0671,426.2883,89.1699,426.8097,89.4158,427.4158,89.5272,428.1529,90.2824,428.4098,91.0795,428.5214,91.6235,428.395,92.5198" style="stroke: #038048; stroke-width: 1.0;"/><text fill="#A9A9A9" font-family="courier" font-size="15" lengthAdjust="spacingAndGlyphs" textLength="63" x="435.5" y="95.7788">comer()</text><!--class Vertebrado--><polygon fill="#222222" points="289,165,289,165.2102,299.2667,164.5857,309.5333,165.1933,319.8,165.3997,330.0667,164.2866,340.3333,164.9223,350.6,164.5735,360.8667,164.6165,371.1333,164.9318,381.4,164.3086,391.6667,165.5536,401.9333,164.3697,412.2,164.8022,422.4667,165.4319,432.7333,164.9142,443,165,443.0682,165,442.9681,175.0324,443.1785,185.0647,443.2391,195.0971,443.5857,205.1295,443.6711,215.1618,443.6793,225.1942,443.2546,235.2266,443.4636,245.2589,443.7022,255.2913,442.2788,265.3237,443.6785,275.356,442.7035,285.3884,443.5338,295.4208,443,305.4531,443,304.9581,432.7333,305.3846,422.4667,306.1947,412.2,305.4044,401.9333,305.5584,391.6667,305.7918,381.4,305.8694,371.1333,305.4492,360.8667,305.7403,350.6,304.8807,340.3333,305.7375,330.0667,306.0013,319.8,305.8977,309.5333,306.0661,299.2667,304.97,289,305.4531,288.3478,305.4531,288.3786,295.4208,288.9411,285.3884,288.8035,275.356,289.6814,265.3237,288.8253,255.2913,288.6569,245.2589,289.2283,235.2266,288.3332,225.1942,288.4809,215.1618,289.649,205.1295,289.4357,195.0971,289.7345,185.0647,288.6782,175.0324,289,165" style="stroke: #A9A9A9; stroke-width: 3.0;"/><text fill="#A9A9A9" font-family="courier" font-size="20" font-weight="bold" lengthAdjust="spacingAndGlyphs" textLength="120" x="306" y="191.1074">Vertebrado</text><path d="M290,203.1133 L290,203.3935 L300.1333,202.5609 L310.2667,203.371 L320.4,203.6462 L330.5333,202.1621 L340.6667,203.0097 L350.8,202.5446 L360.9333,202.6019 L371.0667,203.0224 L381.2,202.1915 L391.3333,203.8515 L401.4667,202.2729 L411.6,202.8496 L421.7333,203.6892 L431.8667,202.9989 L442,203.1133 " fill="#222222" style="stroke: #A9A9A9; stroke-width: 3.0;"/><polygon fill="none" points="297,216.4058,297,216.4758,298.2,216.2677,299.4,216.4702,300.6,216.539,301.8,216.168,303,216.4058,302.9741,216.4058,302.8578,217.6058,302.8722,218.8058,302.9773,220.0058,302.7695,221.2058,303,222.4058,303,222.5903,301.8,222.1957,300.6,222.3398,299.4,222.5497,298.2,222.3772,297,222.4058,297.0227,222.4058,296.9894,221.2058,297.0595,220.0058,297.0797,218.8058,297.1952,217.6058,297,216.4058" style="stroke: #C82930; stroke-width: 1.0;"/><text fill="#A9A9A9" font-family="courier" font-size="15" lengthAdjust="spacingAndGlyphs" textLength="63" x="310" y="223.1938">celulas</text><polygon fill="none" points="297,237.9907,297,238.0608,298.2,237.8526,299.4,238.0552,300.6,238.1239,301.8,237.7529,303,237.9907,302.9741,237.9907,302.8578,239.1907,302.8722,240.3907,302.9773,241.5907,302.7695,242.7907,303,243.9907,303,244.1753,301.8,243.7806,300.6,243.9248,299.4,244.1347,298.2,243.9621,297,243.9907,297.0227,243.9907,296.9894,242.7907,297.0595,241.5907,297.0797,240.3907,297.1952,239.1907,297,237.9907" style="stroke: #C82930; stroke-width: 1.0;"/><text fill="#A9A9A9" font-family="courier" font-size="15" lengthAdjust="spacingAndGlyphs" textLength="54" x="310" y="244.7788">huesos</text><path d="M290,254.2832 L290,254.5634 L300.1333,253.7308 L310.2667,254.5409 L320.4,254.8161 L330.5333,253.332 L340.6667,254.1796 L350.8,253.7145 L360.9333,253.7719 L371.0667,254.1923 L381.2,253.3614 L391.3333,255.0214 L401.4667,253.4428 L411.6,254.0195 L421.7333,254.8591 L431.8667,254.1688 L442,254.2832 " fill="#222222" style="stroke: #A9A9A9; stroke-width: 3.0;"/><polygon fill="#84BE84" points="303.0166,271.3054,302.5768,271.9063,302.0567,272.7863,301.3128,273.3794,300.5311,273.7038,299.9078,273.7319,299.1067,273.3263,298.3509,273.0613,297.7771,272.5233,297.4762,271.9073,297.2977,271.4169,297.1229,270.7763,296.8391,270.2251,297.0572,269.6869,297.2482,269.0973,297.9653,268.631,298.4697,268.026,299.0941,267.8251,299.8364,267.6521,300.7883,267.7549,301.3097,268.0007,301.9158,268.1122,302.6529,268.8673,302.9098,269.6645,303.0214,270.2084,302.895,271.1047" style="stroke: #038048; stroke-width: 1.0;"/><text fill="#A9A9A9" font-family="courier" font-size="15" lengthAdjust="spacingAndGlyphs" textLength="63" x="310" y="274.3638">comer()</text><polygon fill="#84BE84" points="303.0166,292.8904,302.5768,293.4912,302.0567,294.3713,301.3128,294.9644,300.5311,295.2887,299.9078,295.3169,299.1067,294.9112,298.3509,294.6463,297.7771,294.1082,297.4762,293.4923,297.2977,293.0019,297.1229,292.3613,296.8391,291.81,297.0572,291.2718,297.2482,290.6823,297.9653,290.216,298.4697,289.6109,299.0941,289.41,299.8364,289.237,300.7883,289.3398,301.3097,289.5857,301.9158,289.6972,302.6529,290.4523,302.9098,291.2494,303.0214,291.7934,302.895,292.6897" style="stroke: #038048; stroke-width: 1.0;"/><text fill="#A9A9A9" font-family="courier" font-size="15" lengthAdjust="spacingAndGlyphs" textLength="126" x="310" y="295.9487">romperHuesos()</text><!--class InVertebrado--><polygon fill="#222222" points="478,186.5,478,186.7102,488.1333,186.0857,498.2667,186.6933,508.4,186.8997,518.5333,185.7866,528.6667,186.4223,538.8,186.0735,548.9333,186.1165,559.0667,186.4318,569.2,185.8086,579.3333,187.0536,589.4667,185.8697,599.6,186.3022,609.7333,186.9319,619.8667,186.4142,630,186.5,630.0682,186.5,629.9681,196.2283,630.1785,205.9566,630.2391,215.685,630.5857,225.4133,630.6711,235.1416,630.6793,244.8699,630.2546,254.5982,630.4636,264.3266,630.7022,274.0549,630,283.7832,630,283.062,619.8667,284.4617,609.7333,283.4867,599.6,284.317,589.4667,283.2882,579.3333,283.7147,569.2,284.5248,559.0667,283.7345,548.9333,283.8885,538.8,284.1218,528.6667,284.1994,518.5333,283.7793,508.4,284.0704,498.2667,283.2108,488.1333,284.0676,478,283.7832,478.5482,283.7832,478.4445,274.0549,478.613,264.3266,477.5169,254.5982,477.3478,244.8699,477.3786,235.1416,477.9411,225.4133,477.8035,215.685,478.6814,205.9566,477.8253,196.2283,478,186.5" style="stroke: #A9A9A9; stroke-width: 3.0;"/><text fill="#A9A9A9" font-family="courier" font-size="20" font-weight="bold" lengthAdjust="spacingAndGlyphs" textLength="144" x="482" y="212.6074">InVertebrado</text><path d="M479,224.6133 L479,224.8935 L489,224.0609 L499,224.871 L509,225.1462 L519,223.6621 L529,224.5097 L539,224.0446 L549,224.1019 L559,224.5224 L569,223.6915 L579,225.3515 L589,223.7729 L599,224.3496 L609,225.1892 L619,224.4989 L629,224.6133 " fill="#222222" style="stroke: #A9A9A9; stroke-width: 3.0;"/><polygon fill="none" points="486,237.9058,486,237.9758,487.2,237.7677,488.4,237.9702,489.6,238.039,490.8,237.668,492,237.9058,491.9741,237.9058,491.8578,239.1058,491.8722,240.3058,491.9773,241.5058,491.7695,242.7058,492,243.9058,492,244.0903,490.8,243.6957,489.6,243.8398,488.4,244.0497,487.2,243.8772,486,243.9058,486.0227,243.9058,485.9894,242.7058,486.0595,241.5058,486.0797,240.3058,486.1952,239.1058,486,237.9058" style="stroke: #C82930; stroke-width: 1.0;"/><text fill="#A9A9A9" font-family="courier" font-size="15" lengthAdjust="spacingAndGlyphs" textLength="63" x="499" y="244.6938">celulas</text><path d="M479,254.1982 L479,254.4785 L489,253.6458 L499,254.456 L509,254.7311 L519,253.247 L529,254.0946 L539,253.6296 L549,253.6869 L559,254.1074 L569,253.2764 L579,254.9364 L589,253.3579 L599,253.9346 L609,254.7742 L619,254.0839 L629,254.1982 " fill="#222222" style="stroke: #A9A9A9; stroke-width: 3.0;"/><polygon fill="#84BE84" points="492.0166,271.2204,491.5768,271.8213,491.0567,272.7014,490.3128,273.2945,489.5311,273.6188,488.9078,273.6469,488.1067,273.2413,487.3509,272.9763,486.7771,272.4383,486.4762,271.8224,486.2977,271.332,486.1229,270.6914,485.8391,270.1401,486.0572,269.6019,486.2482,269.0123,486.9653,268.546,487.4697,267.941,488.0941,267.7401,488.8364,267.5671,489.7883,267.6699,490.3097,267.9158,490.9158,268.0272,491.6529,268.7824,491.9098,269.5795,492.0214,270.1235,491.895,271.0198" style="stroke: #038048; stroke-width: 1.0;"/><text fill="#A9A9A9" font-family="courier" font-size="15" lengthAdjust="spacingAndGlyphs" textLength="63" x="499" y="274.2788">comer()</text><!--class Mamnifero--><polygon fill="#222222" points="195,365,195,365.2102,205.2667,364.5857,215.5333,365.1933,225.8,365.3997,236.0667,364.2866,246.3333,364.9223,256.6,364.5735,266.8667,364.6165,277.1333,364.9318,287.4,364.3086,297.6667,365.5536,307.9333,364.3697,318.2,364.8022,328.4667,365.4319,338.7333,364.9142,349,365,349.0682,365,348.9681,375.2013,349.1785,385.4026,349.2391,395.6038,349.5857,405.8051,349.6711,416.0064,349.6793,426.2077,349.2546,436.409,349.4636,446.6102,349.7022,456.8115,348.2788,467.0128,349.6785,477.2141,348.7035,487.4154,349.5338,497.6166,348.505,507.8179,348.9315,518.0192,349.7416,528.2205,348.9513,538.4218,349,548.623,349,548.7283,338.7333,548.9617,328.4667,549.0393,318.2,548.6191,307.9333,548.9103,297.6667,548.0506,287.4,548.9074,277.1333,549.1712,266.8667,549.0676,256.6,549.2361,246.3333,548.14,236.0667,547.9709,225.8,548.0016,215.5333,548.5642,205.2667,548.4265,195,548.623,195.6814,548.623,194.8253,538.4218,194.6569,528.2205,195.2283,518.0192,194.3332,507.8179,194.4809,497.6166,195.649,487.4154,195.4357,477.2141,195.7345,467.0128,194.6782,456.8115,195.3192,446.6102,195.5904,436.409,194.5276,426.2077,194.9041,416.0064,195.126,405.8051,195.6518,395.6038,194.9958,385.4026,195.4626,375.2013,195,365" style="stroke: #A9A9A9; stroke-width: 3.0;"/><text fill="#A9A9A9" font-family="courier" font-size="20" font-weight="bold" lengthAdjust="spacingAndGlyphs" textLength="108" x="218" y="391.1074">Mamnifero</text><path d="M196,403.1133 L196,403.3935 L206.1333,402.5609 L216.2667,403.371 L226.4,403.6462 L236.5333,402.1621 L246.6667,403.0097 L256.8,402.5446 L266.9333,402.6019 L277.0667,403.0224 L287.2,402.1915 L297.3333,403.8515 L307.4667,402.2729 L317.6,402.8496 L327.7333,403.6892 L337.8667,402.9989 L348,403.1133 " fill="#222222" style="stroke: #A9A9A9; stroke-width: 3.0;"/><polygon fill="none" points="203,416.4058,203,416.4758,204.2,416.2677,205.4,416.4702,206.6,416.539,207.8,416.168,209,416.4058,208.9741,416.4058,208.8578,417.6058,208.8722,418.8058,208.9773,420.0058,208.7695,421.2058,209,422.4058,209,422.5903,207.8,422.1957,206.6,422.3398,205.4,422.5497,204.2,422.3772,203,422.4058,203.0227,422.4058,202.9894,421.2058,203.0595,420.0058,203.0797,418.8058,203.1952,417.6058,203,416.4058" style="stroke: #C82930; stroke-width: 1.0;"/><text fill="#A9A9A9" font-family="courier" font-size="15" lengthAdjust="spacingAndGlyphs" textLength="63" x="216" y="423.1938">celulas</text><polygon fill="none" points="203,437.9907,203,438.0608,204.2,437.8526,205.4,438.0552,206.6,438.1239,207.8,437.7529,209,437.9907,208.9741,437.9907,208.8578,439.1907,208.8722,440.3907,208.9773,441.5907,208.7695,442.7907,209,443.9907,209,444.1753,207.8,443.7806,206.6,443.9248,205.4,444.1347,204.2,443.9621,203,443.9907,203.0227,443.9907,202.9894,442.7907,203.0595,441.5907,203.0797,440.3907,203.1952,439.1907,203,437.9907" style="stroke: #C82930; stroke-width: 1.0;"/><text fill="#A9A9A9" font-family="courier" font-size="15" lengthAdjust="spacingAndGlyphs" textLength="54" x="216" y="444.7788">huesos</text><polygon fill="none" points="203,459.5757,203,459.6457,204.2,459.4376,205.4,459.6401,206.6,459.7089,207.8,459.3379,209,459.5757,208.9741,459.5757,208.8578,460.7757,208.8722,461.9757,208.9773,463.1757,208.7695,464.3757,209,465.5757,209,465.7602,207.8,465.3656,206.6,465.5098,205.4,465.7197,204.2,465.5471,203,465.5757,203.0227,465.5757,202.9894,464.3757,203.0595,463.1757,203.0797,461.9757,203.1952,460.7757,203,459.5757" style="stroke: #C82930; stroke-width: 1.0;"/><text fill="#A9A9A9" font-family="courier" font-size="15" lengthAdjust="spacingAndGlyphs" textLength="54" x="216" y="466.3638">labios</text><path d="M196,475.8682 L196,476.1484 L206.1333,475.3157 L216.2667,476.1259 L226.4,476.4011 L236.5333,474.917 L246.6667,475.7645 L256.8,475.2995 L266.9333,475.3568 L277.0667,475.7773 L287.2,474.9463 L297.3333,476.6064 L307.4667,475.0278 L317.6,475.6045 L327.7333,476.4441 L337.8667,475.7538 L348,475.8682 " fill="#222222" style="stroke: #A9A9A9; stroke-width: 3.0;"/><polygon fill="#84BE84" points="209.0166,492.8904,208.5768,493.4912,208.0567,494.3713,207.3128,494.9644,206.5311,495.2887,205.9078,495.3169,205.1067,494.9112,204.3509,494.6463,203.7771,494.1082,203.4762,493.4923,203.2977,493.0019,203.1229,492.3613,202.8391,491.81,203.0572,491.2718,203.2482,490.6823,203.9653,490.216,204.4697,489.6109,205.0941,489.41,205.8364,489.237,206.7883,489.3398,207.3097,489.5857,207.9158,489.6972,208.6529,490.4523,208.9098,491.2494,209.0214,491.7934,208.895,492.6897" style="stroke: #038048; stroke-width: 1.0;"/><text fill="#A9A9A9" font-family="courier" font-size="15" lengthAdjust="spacingAndGlyphs" textLength="63" x="216" y="495.9487">comer()</text><polygon fill="#84BE84" points="209.0166,514.4753,208.5768,515.0762,208.0567,515.9563,207.3128,516.5493,206.5311,516.8737,205.9078,516.9018,205.1067,516.4962,204.3509,516.2312,203.7771,515.6932,203.4762,515.0773,203.2977,514.5868,203.1229,513.9463,202.8391,513.395,203.0572,512.8568,203.2482,512.2672,203.9653,511.8009,204.4697,511.1959,205.0941,510.995,205.8364,510.822,206.7883,510.9248,207.3097,511.1707,207.9158,511.2821,208.6529,512.0372,208.9098,512.8344,209.0214,513.3783,208.895,514.2747" style="stroke: #038048; stroke-width: 1.0;"/><text fill="#A9A9A9" font-family="courier" font-size="15" lengthAdjust="spacingAndGlyphs" textLength="126" x="216" y="517.5337">romperHuesos(9</text><polygon fill="#84BE84" points="209.0166,536.0603,208.5768,536.6611,208.0567,537.5412,207.3128,538.1343,206.5311,538.4586,205.9078,538.4868,205.1067,538.0812,204.3509,537.8162,203.7771,537.2782,203.4762,536.6622,203.2977,536.1718,203.1229,535.5312,202.8391,534.98,203.0572,534.4417,203.2482,533.8522,203.9653,533.3859,204.4697,532.7809,205.0941,532.58,205.8364,532.4069,206.7883,532.5097,207.3097,532.7556,207.9158,532.8671,208.6529,533.6222,208.9098,534.4194,209.0214,534.9633,208.895,535.8596" style="stroke: #038048; stroke-width: 1.0;"/><text fill="#A9A9A9" font-family="courier" font-size="15" lengthAdjust="spacingAndGlyphs" textLength="63" x="216" y="539.1187">mamar()</text><!--class Ave--><polygon fill="#222222" points="384,365,384,365.2102,394.2667,364.5857,404.5333,365.1933,414.8,365.3997,425.0667,364.2866,435.3333,364.9223,445.6,364.5735,455.8667,364.6165,466.1333,364.9318,476.4,364.3086,486.6667,365.5536,496.9333,364.3697,507.2,364.8022,517.4667,365.4319,527.7333,364.9142,538,365,538.0682,365,537.9681,375.2013,538.1785,385.4026,538.2391,395.6038,538.5857,405.8051,538.6711,416.0064,538.6793,426.2077,538.2546,436.409,538.4636,446.6102,538.7022,456.8115,537.2788,467.0128,538.6785,477.2141,537.7035,487.4154,538.5338,497.6166,537.505,507.8179,537.9315,518.0192,538.7416,528.2205,537.9513,538.4218,538,548.623,538,548.7283,527.7333,548.9617,517.4667,549.0393,507.2,548.6191,496.9333,548.9103,486.6667,548.0506,476.4,548.9074,466.1333,549.1712,455.8667,549.0676,445.6,549.2361,435.3333,548.14,425.0667,547.9709,414.8,548.0016,404.5333,548.5642,394.2667,548.4265,384,548.623,384.6814,548.623,383.8253,538.4218,383.6569,528.2205,384.2283,518.0192,383.3332,507.8179,383.4809,497.6166,384.649,487.4154,384.4357,477.2141,384.7345,467.0128,383.6782,456.8115,384.3192,446.6102,384.5904,436.409,383.5276,426.2077,383.9041,416.0064,384.126,405.8051,384.6518,395.6038,383.9958,385.4026,384.4626,375.2013,384,365" style="stroke: #A9A9A9; stroke-width: 3.0;"/><text fill="#A9A9A9" font-family="courier" font-size="20" font-weight="bold" lengthAdjust="spacingAndGlyphs" textLength="36" x="443" y="391.1074">Ave</text><path d="M385,403.1133 L385,403.3935 L395.1333,402.5609 L405.2667,403.371 L415.4,403.6462 L425.5333,402.1621 L435.6667,403.0097 L445.8,402.5446 L455.9333,402.6019 L466.0667,403.0224 L476.2,402.1915 L486.3333,403.8515 L496.4667,402.2729 L506.6,402.8496 L516.7333,403.6892 L526.8667,402.9989 L537,403.1133 " fill="#222222" style="stroke: #A9A9A9; stroke-width: 3.0;"/><polygon fill="none" points="392,416.4058,392,416.4758,393.2,416.2677,394.4,416.4702,395.6,416.539,396.8,416.168,398,416.4058,397.9741,416.4058,397.8578,417.6058,397.8722,418.8058,397.9773,420.0058,397.7695,421.2058,398,422.4058,398,422.5903,396.8,422.1957,395.6,422.3398,394.4,422.5497,393.2,422.3772,392,422.4058,392.0227,422.4058,391.9894,421.2058,392.0595,420.0058,392.0797,418.8058,392.1952,417.6058,392,416.4058" style="stroke: #C82930; stroke-width: 1.0;"/><text fill="#A9A9A9" font-family="courier" font-size="15" lengthAdjust="spacingAndGlyphs" textLength="63" x="405" y="423.1938">celulas</text><polygon fill="none" points="392,437.9907,392,438.0608,393.2,437.8526,394.4,438.0552,395.6,438.1239,396.8,437.7529,398,437.9907,397.9741,437.9907,397.8578,439.1907,397.8722,440.3907,397.9773,441.5907,397.7695,442.7907,398,443.9907,398,444.1753,396.8,443.7806,395.6,443.9248,394.4,444.1347,393.2,443.9621,392,443.9907,392.0227,443.9907,391.9894,442.7907,392.0595,441.5907,392.0797,440.3907,392.1952,439.1907,392,437.9907" style="stroke: #C82930; stroke-width: 1.0;"/><text fill="#A9A9A9" font-family="courier" font-size="15" lengthAdjust="spacingAndGlyphs" textLength="54" x="405" y="444.7788">huesos</text><polygon fill="none" points="392,459.5757,392,459.6457,393.2,459.4376,394.4,459.6401,395.6,459.7089,396.8,459.3379,398,459.5757,397.9741,459.5757,397.8578,460.7757,397.8722,461.9757,397.9773,463.1757,397.7695,464.3757,398,465.5757,398,465.7602,396.8,465.3656,395.6,465.5098,394.4,465.7197,393.2,465.5471,392,465.5757,392.0227,465.5757,391.9894,464.3757,392.0595,463.1757,392.0797,461.9757,392.1952,460.7757,392,459.5757" style="stroke: #C82930; stroke-width: 1.0;"/><text fill="#A9A9A9" font-family="courier" font-size="15" lengthAdjust="spacingAndGlyphs" textLength="36" x="405" y="466.3638">pico</text><path d="M385,475.8682 L385,476.1484 L395.1333,475.3157 L405.2667,476.1259 L415.4,476.4011 L425.5333,474.917 L435.6667,475.7645 L445.8,475.2995 L455.9333,475.3568 L466.0667,475.7773 L476.2,474.9463 L486.3333,476.6064 L496.4667,475.0278 L506.6,475.6045 L516.7333,476.4441 L526.8667,475.7538 L537,475.8682 " fill="#222222" style="stroke: #A9A9A9; stroke-width: 3.0;"/><polygon fill="#84BE84" points="398.0166,492.8904,397.5768,493.4912,397.0567,494.3713,396.3128,494.9644,395.5311,495.2887,394.9078,495.3169,394.1067,494.9112,393.3509,494.6463,392.7771,494.1082,392.4762,493.4923,392.2977,493.0019,392.1229,492.3613,391.8391,491.81,392.0572,491.2718,392.2482,490.6823,392.9653,490.216,393.4697,489.6109,394.0941,489.41,394.8364,489.237,395.7883,489.3398,396.3097,489.5857,396.9158,489.6972,397.6529,490.4523,397.9098,491.2494,398.0214,491.7934,397.895,492.6897" style="stroke: #038048; stroke-width: 1.0;"/><text fill="#A9A9A9" font-family="courier" font-size="15" lengthAdjust="spacingAndGlyphs" textLength="63" x="405" y="495.9487">comer()</text><polygon fill="#84BE84" points="398.0166,514.4753,397.5768,515.0762,397.0567,515.9563,396.3128,516.5493,395.5311,516.8737,394.9078,516.9018,394.1067,516.4962,393.3509,516.2312,392.7771,515.6932,392.4762,515.0773,392.2977,514.5868,392.1229,513.9463,391.8391,513.395,392.0572,512.8568,392.2482,512.2672,392.9653,511.8009,393.4697,511.1959,394.0941,510.995,394.8364,510.822,395.7883,510.9248,396.3097,511.1707,396.9158,511.2821,397.6529,512.0372,397.9098,512.8344,398.0214,513.3783,397.895,514.2747" style="stroke: #038048; stroke-width: 1.0;"/><text fill="#A9A9A9" font-family="courier" font-size="15" lengthAdjust="spacingAndGlyphs" textLength="126" x="405" y="517.5337">romperHuesos()</text><polygon fill="#84BE84" points="398.0166,536.0603,397.5768,536.6611,397.0567,537.5412,396.3128,538.1343,395.5311,538.4586,394.9078,538.4868,394.1067,538.0812,393.3509,537.8162,392.7771,537.2782,392.4762,536.6622,392.2977,536.1718,392.1229,535.5312,391.8391,534.98,392.0572,534.4417,392.2482,533.8522,392.9653,533.3859,393.4697,532.7809,394.0941,532.58,394.8364,532.4069,395.7883,532.5097,396.3097,532.7556,396.9158,532.8671,397.6529,533.6222,397.9098,534.4194,398.0214,534.9633,397.895,535.8596" style="stroke: #038048; stroke-width: 1.0;"/><text fill="#A9A9A9" font-family="courier" font-size="15" lengthAdjust="spacingAndGlyphs" textLength="63" x="405" y="539.1187">volar()</text><!--class Canino--><polygon fill="#222222" points="6,620,6,620.2102,16.2667,619.5857,26.5333,620.1933,36.8,620.3997,47.0667,619.2866,57.3333,619.9223,67.6,619.5735,77.8667,619.6165,88.1333,619.9318,98.4,619.3086,108.6667,620.5536,118.9333,619.3697,129.2,619.8022,139.4667,620.4319,149.7333,619.9142,160,620,160.0682,620,159.9681,629.7718,160.1785,639.5436,160.2391,649.3154,160.5857,659.0872,160.6711,668.859,160.6793,678.6309,160.2546,688.4027,160.4636,698.1745,160.7022,707.9463,159.2788,717.7181,160.6785,727.4899,159.7035,737.2617,160.5338,747.0335,159.505,756.8053,159.9315,766.5771,160.7416,776.349,159.9513,786.1208,160.1053,795.8926,160.3386,805.6644,160.4162,815.4362,160,825.208,160,825.2041,149.7333,825.4952,139.4667,824.6356,129.2,825.4924,118.9333,825.7562,108.6667,825.6525,98.4,825.821,88.1333,824.7249,77.8667,824.5558,67.6,824.5866,57.3333,825.1491,47.0667,825.0115,36.8,825.8894,26.5333,825.0333,16.2667,824.865,6,825.208,6.2283,825.208,5.3332,815.4362,5.4809,805.6644,6.649,795.8926,6.4357,786.1208,6.7345,776.349,5.6782,766.5771,6.3192,756.8053,6.5904,747.0335,5.5276,737.2617,5.9041,727.4899,6.126,717.7181,6.6518,707.9463,5.9958,698.1745,6.4626,688.4027,5.4462,678.6309,5.3227,668.859,6.5036,659.0872,5.2831,649.3154,6.509,639.5436,6.2066,629.7718,6,620" style="stroke: #A9A9A9; stroke-width: 3.0;"/><text fill="#A9A9A9" font-family="courier" font-size="20" font-weight="bold" lengthAdjust="spacingAndGlyphs" textLength="72" x="47" y="646.1074">Canino</text><path d="M7,658.1133 L7,658.3935 L17.1333,657.5609 L27.2667,658.371 L37.4,658.6462 L47.5333,657.1621 L57.6667,658.0097 L67.8,657.5446 L77.9333,657.6019 L88.0667,658.0224 L98.2,657.1915 L108.3333,658.8515 L118.4667,657.2729 L128.6,657.8496 L138.7333,658.6892 L148.8667,657.9989 L159,658.1133 " fill="#222222" style="stroke: #A9A9A9; stroke-width: 3.0;"/><polygon fill="none" points="14,671.4058,14,671.4758,15.2,671.2677,16.4,671.4702,17.6,671.539,18.8,671.168,20,671.4058,19.9741,671.4058,19.8578,672.6058,19.8722,673.8058,19.9773,675.0058,19.7695,676.2058,20,677.4058,20,677.5903,18.8,677.1957,17.6,677.3398,16.4,677.5497,15.2,677.3772,14,677.4058,14.0227,677.4058,13.9894,676.2058,14.0595,675.0058,14.0797,673.8058,14.1952,672.6058,14,671.4058" style="stroke: #C82930; stroke-width: 1.0;"/><text fill="#A9A9A9" font-family="courier" font-size="15" lengthAdjust="spacingAndGlyphs" textLength="63" x="27" y="678.1938">celulas</text><polygon fill="none" points="14,692.9907,14,693.0608,15.2,692.8526,16.4,693.0552,17.6,693.1239,18.8,692.7529,20,692.9907,19.9741,692.9907,19.8578,694.1907,19.8722,695.3907,19.9773,696.5907,19.7695,697.7907,20,698.9907,20,699.1753,18.8,698.7806,17.6,698.9248,16.4,699.1347,15.2,698.9621,14,698.9907,14.0227,698.9907,13.9894,697.7907,14.0595,696.5907,14.0797,695.3907,14.1952,694.1907,14,692.9907" style="stroke: #C82930; stroke-width: 1.0;"/><text fill="#A9A9A9" font-family="courier" font-size="15" lengthAdjust="spacingAndGlyphs" textLength="54" x="27" y="699.7788">huesos</text><polygon fill="none" points="14,714.5757,14,714.6457,15.2,714.4376,16.4,714.6401,17.6,714.7089,18.8,714.3379,20,714.5757,19.9741,714.5757,19.8578,715.7757,19.8722,716.9757,19.9773,718.1757,19.7695,719.3757,20,720.5757,20,720.7602,18.8,720.3656,17.6,720.5098,16.4,720.7197,15.2,720.5471,14,720.5757,14.0227,720.5757,13.9894,719.3757,14.0595,718.1757,14.0797,716.9757,14.1952,715.7757,14,714.5757" style="stroke: #C82930; stroke-width: 1.0;"/><text fill="#A9A9A9" font-family="courier" font-size="15" lengthAdjust="spacingAndGlyphs" textLength="54" x="27" y="721.3638">labios</text><polygon fill="none" points="14,736.1606,14,736.2307,15.2,736.0225,16.4,736.2251,17.6,736.2939,18.8,735.9228,20,736.1606,19.9741,736.1606,19.8578,737.3606,19.8722,738.5606,19.9773,739.7606,19.7695,740.9606,20,742.1606,20,742.3452,18.8,741.9506,17.6,742.0947,16.4,742.3046,15.2,742.1321,14,742.1606,14.0227,742.1606,13.9894,740.9606,14.0595,739.7606,14.0797,738.5606,14.1952,737.3606,14,736.1606" style="stroke: #C82930; stroke-width: 1.0;"/><text fill="#A9A9A9" font-family="courier" font-size="15" lengthAdjust="spacingAndGlyphs" textLength="81" x="27" y="742.9487">colmillos</text><path d="M7,752.4531 L7,752.7334 L17.1333,751.9007 L27.2667,752.7108 L37.4,752.986 L47.5333,751.5019 L57.6667,752.3495 L67.8,751.8845 L77.9333,751.9418 L88.0667,752.3622 L98.2,751.5313 L108.3333,753.1913 L118.4667,751.6128 L128.6,752.1894 L138.7333,753.0291 L148.8667,752.3388 L159,752.4531 " fill="#222222" style="stroke: #A9A9A9; stroke-width: 3.0;"/><polygon fill="#84BE84" points="20.0166,769.4753,19.5768,770.0762,19.0567,770.9563,18.3128,771.5493,17.5311,771.8737,16.9078,771.9018,16.1067,771.4962,15.3509,771.2312,14.7771,770.6932,14.4762,770.0773,14.2977,769.5868,14.1229,768.9463,13.8391,768.395,14.0572,767.8568,14.2482,767.2672,14.9653,766.8009,15.4697,766.1959,16.0941,765.995,16.8364,765.822,17.7883,765.9248,18.3097,766.1707,18.9158,766.2821,19.6529,767.0372,19.9098,767.8344,20.0214,768.3783,19.895,769.2747" style="stroke: #038048; stroke-width: 1.0;"/><text fill="#A9A9A9" font-family="courier" font-size="15" lengthAdjust="spacingAndGlyphs" textLength="63" x="27" y="772.5337">comer()</text><polygon fill="#84BE84" points="20.0166,791.0603,19.5768,791.6611,19.0567,792.5412,18.3128,793.1343,17.5311,793.4586,16.9078,793.4868,16.1067,793.0812,15.3509,792.8162,14.7771,792.2782,14.4762,791.6622,14.2977,791.1718,14.1229,790.5312,13.8391,789.98,14.0572,789.4417,14.2482,788.8522,14.9653,788.3859,15.4697,787.7809,16.0941,787.58,16.8364,787.4069,17.7883,787.5097,18.3097,787.7556,18.9158,787.8671,19.6529,788.6222,19.9098,789.4194,20.0214,789.9633,19.895,790.8596" style="stroke: #038048; stroke-width: 1.0;"/><text fill="#A9A9A9" font-family="courier" font-size="15" lengthAdjust="spacingAndGlyphs" textLength="126" x="27" y="794.1187">romperHuesos()</text><polygon fill="#84BE84" points="20.0166,812.6452,19.5768,813.2461,19.0567,814.1262,18.3128,814.7193,17.5311,815.0436,16.9078,815.0718,16.1067,814.6661,15.3509,814.4011,14.7771,813.8631,14.4762,813.2472,14.2977,812.7568,14.1229,812.1162,13.8391,811.5649,14.0572,811.0267,14.2482,810.4371,14.9653,809.9708,15.4697,809.3658,16.0941,809.1649,16.8364,808.9919,17.7883,809.0947,18.3097,809.3406,18.9158,809.452,19.6529,810.2072,19.9098,811.0043,20.0214,811.5483,19.895,812.4446" style="stroke: #038048; stroke-width: 1.0;"/><text fill="#A9A9A9" font-family="courier" font-size="15" lengthAdjust="spacingAndGlyphs" textLength="63" x="27" y="815.7036">mamar()</text><!--class Humano--><polygon fill="#222222" points="195,609,195,609.2102,205.2667,608.5857,215.5333,609.1933,225.8,609.3997,236.0667,608.2866,246.3333,608.9223,256.6,608.5735,266.8667,608.6165,277.1333,608.9318,287.4,608.3086,297.6667,609.5536,307.9333,608.3697,318.2,608.8022,328.4667,609.4319,338.7333,608.9142,349,609,349.0682,609,348.9681,618.8606,349.1785,628.7211,349.2391,638.5817,349.5857,648.4423,349.6711,658.3028,349.6793,668.1634,349.2546,678.0239,349.4636,687.8845,349.7022,697.7451,348.2788,707.6056,349.6785,717.4662,348.7035,727.3268,349.5338,737.1873,348.505,747.0479,348.9315,756.9085,349.7416,766.769,348.9513,776.6296,349.1053,786.4901,349.3386,796.3507,349.4162,806.2113,348.9961,816.0718,349.2872,825.9324,349,835.793,349,835.2206,338.7333,836.0774,328.4667,836.3412,318.2,836.2375,307.9333,836.406,297.6667,835.3099,287.4,835.1408,277.1333,835.1716,266.8667,835.7341,256.6,835.5964,246.3333,836.4744,236.0667,835.6183,225.8,835.4499,215.5333,836.0212,205.2667,835.1261,195,835.793,194.4809,835.793,195.649,825.9324,195.4357,816.0718,195.7345,806.2113,194.6782,796.3507,195.3192,786.4901,195.5904,776.6296,194.5276,766.769,194.9041,756.9085,195.126,747.0479,195.6518,737.1873,194.9958,727.3268,195.4626,717.4662,194.4462,707.6056,194.3227,697.7451,195.5036,687.8845,194.2831,678.0239,195.509,668.1634,195.2066,658.3028,194.7321,648.4423,194.6462,638.5817,195.4588,628.7211,194.7007,618.8606,195,609" style="stroke: #A9A9A9; stroke-width: 3.0;"/><text fill="#A9A9A9" font-family="courier" font-size="20" font-weight="bold" lengthAdjust="spacingAndGlyphs" textLength="72" x="236" y="635.1074">Humano</text><path d="M196,647.1133 L196,647.3935 L206.1333,646.5609 L216.2667,647.371 L226.4,647.6462 L236.5333,646.1621 L246.6667,647.0097 L256.8,646.5446 L266.9333,646.6019 L277.0667,647.0224 L287.2,646.1915 L297.3333,647.8515 L307.4667,646.2729 L317.6,646.8496 L327.7333,647.6892 L337.8667,646.9989 L348,647.1133 " fill="#222222" style="stroke: #A9A9A9; stroke-width: 3.0;"/><polygon fill="none" points="203,660.4058,203,660.4758,204.2,660.2677,205.4,660.4702,206.6,660.539,207.8,660.168,209,660.4058,208.9741,660.4058,208.8578,661.6058,208.8722,662.8058,208.9773,664.0058,208.7695,665.2058,209,666.4058,209,666.5903,207.8,666.1957,206.6,666.3398,205.4,666.5497,204.2,666.3772,203,666.4058,203.0227,666.4058,202.9894,665.2058,203.0595,664.0058,203.0797,662.8058,203.1952,661.6058,203,660.4058" style="stroke: #C82930; stroke-width: 1.0;"/><text fill="#A9A9A9" font-family="courier" font-size="15" lengthAdjust="spacingAndGlyphs" textLength="63" x="216" y="667.1938">celulas</text><polygon fill="none" points="203,681.9907,203,682.0608,204.2,681.8526,205.4,682.0552,206.6,682.1239,207.8,681.7529,209,681.9907,208.9741,681.9907,208.8578,683.1907,208.8722,684.3907,208.9773,685.5907,208.7695,686.7907,209,687.9907,209,688.1753,207.8,687.7806,206.6,687.9248,205.4,688.1347,204.2,687.9621,203,687.9907,203.0227,687.9907,202.9894,686.7907,203.0595,685.5907,203.0797,684.3907,203.1952,683.1907,203,681.9907" style="stroke: #C82930; stroke-width: 1.0;"/><text fill="#A9A9A9" font-family="courier" font-size="15" lengthAdjust="spacingAndGlyphs" textLength="54" x="216" y="688.7788">huesos</text><polygon fill="none" points="203,703.5757,203,703.6457,204.2,703.4376,205.4,703.6401,206.6,703.7089,207.8,703.3379,209,703.5757,208.9741,703.5757,208.8578,704.7757,208.8722,705.9757,208.9773,707.1757,208.7695,708.3757,209,709.5757,209,709.7602,207.8,709.3656,206.6,709.5098,205.4,709.7197,204.2,709.5471,203,709.5757,203.0227,709.5757,202.9894,708.3757,203.0595,707.1757,203.0797,705.9757,203.1952,704.7757,203,703.5757" style="stroke: #C82930; stroke-width: 1.0;"/><text fill="#A9A9A9" font-family="courier" font-size="15" lengthAdjust="spacingAndGlyphs" textLength="54" x="216" y="710.3638">labios</text><polygon fill="none" points="203,725.1606,203,725.2307,204.2,725.0225,205.4,725.2251,206.6,725.2939,207.8,724.9228,209,725.1606,208.9741,725.1606,208.8578,726.3606,208.8722,727.5606,208.9773,728.7606,208.7695,729.9606,209,731.1606,209,731.3452,207.8,730.9506,206.6,731.0947,205.4,731.3046,204.2,731.1321,203,731.1606,203.0227,731.1606,202.9894,729.9606,203.0595,728.7606,203.0797,727.5606,203.1952,726.3606,203,725.1606" style="stroke: #C82930; stroke-width: 1.0;"/><text fill="#A9A9A9" font-family="courier" font-size="15" lengthAdjust="spacingAndGlyphs" textLength="99" x="216" y="731.9487">racio cinio</text><path d="M196,741.4531 L196,741.7334 L206.1333,740.9007 L216.2667,741.7108 L226.4,741.986 L236.5333,740.5019 L246.6667,741.3495 L256.8,740.8845 L266.9333,740.9418 L277.0667,741.3622 L287.2,740.5313 L297.3333,742.1913 L307.4667,740.6128 L317.6,741.1894 L327.7333,742.0291 L337.8667,741.3388 L348,741.4531 " fill="#222222" style="stroke: #A9A9A9; stroke-width: 3.0;"/><polygon fill="#84BE84" points="209.0166,758.4753,208.5768,759.0762,208.0567,759.9563,207.3128,760.5493,206.5311,760.8737,205.9078,760.9018,205.1067,760.4962,204.3509,760.2312,203.7771,759.6932,203.4762,759.0773,203.2977,758.5868,203.1229,757.9463,202.8391,757.395,203.0572,756.8568,203.2482,756.2672,203.9653,755.8009,204.4697,755.1959,205.0941,754.995,205.8364,754.822,206.7883,754.9248,207.3097,755.1707,207.9158,755.2821,208.6529,756.0372,208.9098,756.8344,209.0214,757.3783,208.895,758.2747" style="stroke: #038048; stroke-width: 1.0;"/><text fill="#A9A9A9" font-family="courier" font-size="15" lengthAdjust="spacingAndGlyphs" textLength="63" x="216" y="761.5337">comer()</text><polygon fill="#84BE84" points="209.0166,780.0603,208.5768,780.6611,208.0567,781.5412,207.3128,782.1343,206.5311,782.4586,205.9078,782.4868,205.1067,782.0812,204.3509,781.8162,203.7771,781.2782,203.4762,780.6622,203.2977,780.1718,203.1229,779.5312,202.8391,778.98,203.0572,778.4417,203.2482,777.8522,203.9653,777.3859,204.4697,776.7809,205.0941,776.58,205.8364,776.4069,206.7883,776.5097,207.3097,776.7556,207.9158,776.8671,208.6529,777.6222,208.9098,778.4194,209.0214,778.9633,208.895,779.8596" style="stroke: #038048; stroke-width: 1.0;"/><text fill="#A9A9A9" font-family="courier" font-size="15" lengthAdjust="spacingAndGlyphs" textLength="126" x="216" y="783.1187">romperHuesos()</text><polygon fill="#84BE84" points="209.0166,801.6452,208.5768,802.2461,208.0567,803.1262,207.3128,803.7193,206.5311,804.0436,205.9078,804.0718,205.1067,803.6661,204.3509,803.4011,203.7771,802.8631,203.4762,802.2472,203.2977,801.7568,203.1229,801.1162,202.8391,800.5649,203.0572,800.0267,203.2482,799.4371,203.9653,798.9708,204.4697,798.3658,205.0941,798.1649,205.8364,797.9919,206.7883,798.0947,207.3097,798.3406,207.9158,798.452,208.6529,799.2072,208.9098,800.0043,209.0214,800.5483,208.895,801.4446" style="stroke: #038048; stroke-width: 1.0;"/><text fill="#A9A9A9" font-family="courier" font-size="15" lengthAdjust="spacingAndGlyphs" textLength="63" x="216" y="804.7036">mamar()</text><polygon fill="#84BE84" points="209.0166,823.2302,208.5768,823.8311,208.0567,824.7111,207.3128,825.3042,206.5311,825.6286,205.9078,825.6567,205.1067,825.2511,204.3509,824.9861,203.7771,824.4481,203.4762,823.8322,203.2977,823.3417,203.1229,822.7011,202.8391,822.1499,203.0572,821.6117,203.2482,821.0221,203.9653,820.5558,204.4697,819.9508,205.0941,819.7499,205.8364,819.5769,206.7883,819.6797,207.3097,819.9255,207.9158,820.037,208.6529,820.7921,208.9098,821.5893,209.0214,822.1332,208.895,823.0295" style="stroke: #038048; stroke-width: 1.0;"/><text fill="#A9A9A9" font-family="courier" font-size="15" lengthAdjust="spacingAndGlyphs" textLength="72" x="216" y="826.2886">pensar()</text><!--class Ornitorrinco--><polygon fill="#222222" points="384,641.5,384,641.7102,394.2667,641.0857,404.5333,641.6933,414.8,641.8997,425.0667,640.7866,435.3333,641.4223,445.6,641.0735,455.8667,641.1165,466.1333,641.4318,476.4,640.8086,486.6667,642.0536,496.9333,640.8697,507.2,641.3022,517.4667,641.9319,527.7333,641.4142,538,641.5,538.0682,641.5,537.9681,651.6274,538.1785,661.7548,538.2391,671.8821,538.5857,682.0095,538.6711,692.1369,538.6793,702.2643,538.2546,712.3917,538.4636,722.519,538.7022,732.6464,537.2788,742.7738,538.6785,752.9012,537.7035,763.0286,538.5338,773.1559,537.505,783.2833,537.9315,793.4107,538,803.5381,538,804.2797,527.7333,803.4894,517.4667,803.6434,507.2,803.8767,496.9333,803.9543,486.6667,803.5342,476.4,803.8253,466.1333,802.9657,455.8667,803.8225,445.6,804.0863,435.3333,803.9826,425.0667,804.1511,414.8,803.055,404.5333,802.8859,394.2667,802.9167,384,803.5381,383.9411,803.5381,383.8035,793.4107,384.6814,783.2833,383.8253,773.1559,383.6569,763.0286,384.2283,752.9012,383.3332,742.7738,383.4809,732.6464,384.649,722.519,384.4357,712.3917,384.7345,702.2643,383.6782,692.1369,384.3192,682.0095,384.5904,671.8821,383.5276,661.7548,383.9041,651.6274,384,641.5" style="stroke: #A9A9A9; stroke-width: 3.0;"/><text fill="#A9A9A9" font-family="courier" font-size="20" font-weight="bold" lengthAdjust="spacingAndGlyphs" textLength="144" x="389" y="667.6074">Ornitorrinco</text><path d="M385,679.6133 L385,679.8935 L395.1333,679.0609 L405.2667,679.871 L415.4,680.1462 L425.5333,678.6621 L435.6667,679.5097 L445.8,679.0446 L455.9333,679.1019 L466.0667,679.5224 L476.2,678.6915 L486.3333,680.3515 L496.4667,678.7729 L506.6,679.3496 L516.7333,680.1892 L526.8667,679.4989 L537,679.6133 " fill="#222222" style="stroke: #A9A9A9; stroke-width: 3.0;"/><polygon fill="none" points="392,692.9058,392,692.9758,393.2,692.7677,394.4,692.9702,395.6,693.039,396.8,692.668,398,692.9058,397.9741,692.9058,397.8578,694.1058,397.8722,695.3058,397.9773,696.5058,397.7695,697.7058,398,698.9058,398,699.0903,396.8,698.6957,395.6,698.8398,394.4,699.0497,393.2,698.8772,392,698.9058,392.0227,698.9058,391.9894,697.7058,392.0595,696.5058,392.0797,695.3058,392.1952,694.1058,392,692.9058" style="stroke: #C82930; stroke-width: 1.0;"/><text fill="#A9A9A9" font-family="courier" font-size="15" lengthAdjust="spacingAndGlyphs" textLength="63" x="405" y="699.6938">celulas</text><polygon fill="none" points="392,714.4907,392,714.5608,393.2,714.3526,394.4,714.5552,395.6,714.6239,396.8,714.2529,398,714.4907,397.9741,714.4907,397.8578,715.6907,397.8722,716.8907,397.9773,718.0907,397.7695,719.2907,398,720.4907,398,720.6753,396.8,720.2806,395.6,720.4248,394.4,720.6347,393.2,720.4621,392,720.4907,392.0227,720.4907,391.9894,719.2907,392.0595,718.0907,392.0797,716.8907,392.1952,715.6907,392,714.4907" style="stroke: #C82930; stroke-width: 1.0;"/><text fill="#A9A9A9" font-family="courier" font-size="15" lengthAdjust="spacingAndGlyphs" textLength="54" x="405" y="721.2788">huesos</text><polygon fill="none" points="392,736.0757,392,736.1457,393.2,735.9376,394.4,736.1401,395.6,736.2089,396.8,735.8379,398,736.0757,397.9741,736.0757,397.8578,737.2757,397.8722,738.4757,397.9773,739.6757,397.7695,740.8757,398,742.0757,398,742.2602,396.8,741.8656,395.6,742.0098,394.4,742.2197,393.2,742.0471,392,742.0757,392.0227,742.0757,391.9894,740.8757,392.0595,739.6757,392.0797,738.4757,392.1952,737.2757,392,736.0757" style="stroke: #C82930; stroke-width: 1.0;"/><text fill="#A9A9A9" font-family="courier" font-size="15" lengthAdjust="spacingAndGlyphs" textLength="36" x="405" y="742.8638">pico</text><path d="M385,752.3682 L385,752.6484 L395.1333,751.8157 L405.2667,752.6259 L415.4,752.9011 L425.5333,751.417 L435.6667,752.2645 L445.8,751.7995 L455.9333,751.8568 L466.0667,752.2773 L476.2,751.4463 L486.3333,753.1064 L496.4667,751.5278 L506.6,752.1045 L516.7333,752.9441 L526.8667,752.2538 L537,752.3682 " fill="#222222" style="stroke: #A9A9A9; stroke-width: 3.0;"/><polygon fill="#84BE84" points="398.0166,769.3904,397.5768,769.9912,397.0567,770.8713,396.3128,771.4644,395.5311,771.7887,394.9078,771.8169,394.1067,771.4112,393.3509,771.1463,392.7771,770.6082,392.4762,769.9923,392.2977,769.5019,392.1229,768.8613,391.8391,768.31,392.0572,767.7718,392.2482,767.1823,392.9653,766.716,393.4697,766.1109,394.0941,765.91,394.8364,765.737,395.7883,765.8398,396.3097,766.0857,396.9158,766.1972,397.6529,766.9523,397.9098,767.7494,398.0214,768.2934,397.895,769.1897" style="stroke: #038048; stroke-width: 1.0;"/><text fill="#A9A9A9" font-family="courier" font-size="15" lengthAdjust="spacingAndGlyphs" textLength="63" x="405" y="772.4487">comer()</text><polygon fill="#84BE84" points="398.0166,790.9753,397.5768,791.5762,397.0567,792.4563,396.3128,793.0493,395.5311,793.3737,394.9078,793.4018,394.1067,792.9962,393.3509,792.7312,392.7771,792.1932,392.4762,791.5773,392.2977,791.0868,392.1229,790.4463,391.8391,789.895,392.0572,789.3568,392.2482,788.7672,392.9653,788.3009,393.4697,787.6959,394.0941,787.495,394.8364,787.322,395.7883,787.4248,396.3097,787.6707,396.9158,787.7821,397.6529,788.5372,397.9098,789.3344,398.0214,789.8783,397.895,790.7747" style="stroke: #038048; stroke-width: 1.0;"/><text fill="#A9A9A9" font-family="courier" font-size="15" lengthAdjust="spacingAndGlyphs" textLength="126" x="405" y="794.0337">romperHuesos()</text><!--link Animal to Vertebrado--><path d="M424.99,123.23 L425.2374,123.3617 L420.0544,131.3223 L416.3215,140.0551 L412.1164,148.5365 L406.3584,156.1909 L402.75,164.99 " fill="none" style="stroke: #A9A9A9; stroke-width: 2.0;"/><polygon fill="none" points="418.98,119.63,419.0275,119.6815,422.0024,116.6545,425.2557,113.9294,428.4183,111.1059,431.2828,107.9592,434.56,105.26,434.5344,105.2561,433.7755,109.4284,433.1457,113.6206,432.6055,117.8265,431.7562,121.985,431.34,126.21,431.4267,126.3729,428.7693,124.7085,426.365,123.5198,423.9917,122.3891,421.4386,120.9208,418.98,119.63" style="stroke: #A9A9A9; stroke-width: 2.0;"/><!--link Animal to InVertebrado--><path d="M494.92,123.06 L495.1674,123.1917 L499.2352,131.8204 L504.7532,141.2211 L509.799,150.3705 L513.2918,158.6929 L518.8428,168.1113 L523.2352,176.9127 L528.54,186.2 " fill="none" style="stroke: #A9A9A9; stroke-width: 2.0;"/><polygon fill="none" points="488.66,126.21,488.7292,126.2206,487.8795,121.999,487.4357,117.8398,486.8597,113.6602,485.849,109.4139,485.44,105.26,485.4224,105.241,488.4596,108.0295,491.5853,110.914,494.7726,113.8653,497.7478,116.5866,501.02,119.63,501.1067,119.7929,498.4493,120.7605,496.045,122.2038,493.6717,123.7051,491.1186,124.8688,488.66,126.21" style="stroke: #A9A9A9; stroke-width: 2.0;"/><!--link Vertebrado to Mamnifero--><path d="M328.55,323.66 L328.6359,323.6967 L324.8787,331.7836 L321.625,340.0858 L318.2073,348.3178 L314.2504,356.3194 L311.04,364.64 " fill="none" style="stroke: #A9A9A9; stroke-width: 2.0;"/><polygon fill="none" points="322.22,320.65,322.2717,320.6973,324.9781,317.4288,327.9875,314.4375,330.8983,311.3559,333.4845,307.9775,336.52,305.01,336.4942,305.0083,336.0922,309.2284,335.8205,313.4574,335.6393,317.6925,335.1461,321.9064,335.09,326.15,335.1625,326.3197,332.4334,324.8568,329.9161,323.8894,327.4246,322.9824,324.7828,321.7237,322.22,320.65" style="stroke: #A9A9A9; stroke-width: 2.0;"/><!--link Vertebrado to Ave--><path d="M403.85,323.66 L403.9358,323.697 L407.221,331.783 L411.0089,340.0861 L414.6331,348.3184 L417.7189,356.3183 L421.55,364.64 " fill="none" style="stroke: #A9A9A9; stroke-width: 2.0;"/><polygon fill="none" points="397.3,326.14,397.3699,326.145,396.8622,321.9042,396.7643,317.6926,396.5329,313.4714,395.8628,309.2192,395.8,305.01,395.7809,304.9925,398.5654,308.0297,401.446,311.1554,404.3933,314.3426,407.1105,317.3179,410.15,320.59,410.2232,320.7594,407.4967,321.5071,404.9839,322.7495,402.4971,324.0522,399.8587,325.0038,397.3,326.14" style="stroke: #A9A9A9; stroke-width: 2.0;"/><!--link Mamnifero to Canino--><path d="M195.03,565.31 L195.2577,565.4733 L189.0168,572.7452 L184.1108,580.9745 L178.7702,588.892 L171.9999,595.7842 L167.1244,604.0353 L161.1822,611.5214 L156.08,619.61 " fill="none" style="stroke: #A9A9A9; stroke-width: 2.0;"/><polygon fill="none" points="189.35,561.22,189.3902,561.2773,192.7387,558.673,196.323,556.4047,199.8305,554.027,203.0854,551.2894,206.69,549.05,206.6651,549.0427,205.3596,553.0759,204.1793,557.146,203.0862,561.2416,201.6929,565.2491,200.72,569.38,200.8276,569.5299,198.3235,567.5773,196.1336,566.0624,193.982,564.601,191.6073,562.8288,189.35,561.22" style="stroke: #A9A9A9; stroke-width: 2.0;"/><!--link Mamnifero to Humano--><path d="M272,569.22 L272.0934,569.22 L271.8159,577.094 L272.0859,584.968 L272.1776,592.842 L271.6829,600.716 L272,608.59 " fill="none" style="stroke: #A9A9A9; stroke-width: 2.0;"/><polygon fill="none" points="265,569.05,265.0661,569.0731,266.2696,565.0044,267.8608,561.0713,269.3257,557.094,270.3756,552.9714,272,549.05,271.9755,549.0414,273.2658,553.003,274.6793,557.0078,276.1786,561.0425,277.3825,564.9739,279,569.05,279,569.2345,276.2,568.8399,273.4,568.9841,270.6,569.194,267.8,569.0214,265,569.05" style="stroke: #A9A9A9; stroke-width: 2.0;"/><!--link Mamnifero to Ornitorrinco--><path d="M349.11,565.51 L349.3377,565.6733 L354.7133,573.6258 L361.4239,582.5358 L367.6997,591.1339 L372.546,598.7067 L379.2869,607.6385 L384.9613,615.8052 L391.0601,624.2764 L397.4539,632.9593 L403.58,641.45 " fill="none" style="stroke: #A9A9A9; stroke-width: 2.0;"/><polygon fill="none" points="343.28,569.38,343.3472,569.3997,341.9535,565.2751,340.9538,561.2662,339.8258,557.2195,338.2758,553.049,337.31,549.05,337.2951,549.0288,340.6963,551.3676,344.1726,553.8134,347.7009,556.3334,351.0496,558.5974,354.65,561.22,354.7576,561.3699,352.2535,562.6813,350.0636,564.4304,347.912,566.233,345.5373,567.7248,343.28,569.38" style="stroke: #A9A9A9; stroke-width: 2.0;"/><!--link Ave to Ornitorrinco--><path d="M461,569.15 L461.2802,569.15 L460.4476,579.4786 L461.2577,589.8071 L461.5329,600.1357 L460.0488,610.4643 L460.8964,620.7929 L460.4313,631.1214 L461,641.45 " fill="none" style="stroke: #A9A9A9; stroke-width: 2.0;"/><polygon fill="none" points="454,569.05,454.0661,569.0731,455.2696,565.0044,456.8608,561.0713,458.3257,557.094,459.3756,552.9714,461,549.05,460.9755,549.0414,462.2658,553.003,463.6793,557.0078,465.1786,561.0425,466.3825,564.9739,468,569.05,468,569.2345,465.2,568.8399,462.4,568.9841,459.6,569.194,456.8,569.0214,454,569.05" style="stroke: #A9A9A9; stroke-width: 2.0;"/><!--
@startuml
skinparam backgroundColor #222222
hide circle
hide stereotype
skinparam handwritten true

skinparam shadowing false
skinparam padding 1
skinparam arrow {
    Thickness 2
    Color #DarkGrey
    FontSize 20
    FontName courier
    FontStyle normal
    FontColor #DarkGrey
}
skinparam class {
    BorderThickness 3
    BorderColor #DarkGrey
    BackgroundColor #222222
    FontSize 20
    FontName courier
    FontStyle bold
    FontColor #DarkGrey
}
skinparam classAttribute {
    FontSize 15
    FontName courier
    FontStyle normal
    FontColor #DarkGrey
}

class Animal{
- celulas
+ comer()
}
class Vertebrado {
- celulas
- huesos
+ comer()
+ romperHuesos()
}
class InVertebrado {
- celulas
+ comer()
}
class Mamnifero {
- celulas
- huesos
- labios
+ comer()
+ romperHuesos(9
+ mamar()
}
class Ave {
- celulas
- huesos
- pico
+ comer()
+ romperHuesos()
+ volar()
}
class Canino {
-celulas
- huesos
- labios
- colmillos
+ comer()
+ romperHuesos()
+ mamar()
}
class Humano {
- celulas
- huesos
- labios
- racio cinio
+ comer()
+ romperHuesos()
+ mamar()
+ pensar()
}
class Ornitorrinco {
-celulas
- huesos
-pico
+ comer()
+ romperHuesos()
}

Animal <|- - Vertebrado
Animal <|- - InVertebrado
Vertebrado <|- - Mamnifero
Vertebrado <|- - Ave
Mamnifero <|- - Canino
Mamnifero <|- - Humano
Mamnifero <|- - Ornitorrinco
Ave <|- - Ornitorrinco
@enduml

PlantUML version 1.2019.05(Sat Apr 20 18:45:36 CEST 2019)
(GPL source distribution)
Java Runtime: Java(TM) SE Runtime Environment
JVM: Java HotSpot(TM) 64-Bit Server VM
Java Version: 11.0.14+8-LTS-263
Operating System: Windows 10
OS Version: 10.0
Default Encoding: windows-1252
Language: es
Country: ES
--></g></svg>