<?xml version="1.0" encoding="UTF-8" standalone="no"?><svg xmlns="http://www.w3.org/2000/svg" xmlns:xlink="http://www.w3.org/1999/xlink" contentScriptType="application/ecmascript" contentStyleType="text/css" height="483px" preserveAspectRatio="none" style="width:686px;height:483px;" version="1.1" viewBox="0 0 686 483" width="686px" zoomAndPan="magnify"><defs><linearGradient id="gpxjxge6ui2mo0" x1="0%" x2="100%" y1="0%" y2="100%"><stop offset="0%" stop-color="#808080"/><stop offset="100%" stop-color="#FFFFFF"/></linearGradient><filter height="300%" id="fpxjxge6ui2mo" width="300%" x="-1" y="-1"><feGaussianBlur result="blurOut" stdDeviation="2.0"/><feColorMatrix in="blurOut" result="blurOut2" type="matrix" values="0 0 0 0 0 0 0 0 0 0 0 0 0 0 0 0 0 0 .4 0"/><feOffset dx="4.0" dy="4.0" in="blurOut2" result="blurOut3"/><feBlend in="SourceGraphic" in2="blurOut3" mode="normal"/></filter><linearGradient id="gpxjxge6ui2mo1" x1="0%" x2="100%" y1="0%" y2="100%"><stop offset="0%" stop-color="#FFE4C4"/><stop offset="100%" stop-color="#FFFFFF"/></linearGradient><linearGradient id="gpxjxge6ui2mo2" x1="0%" x2="100%" y1="0%" y2="100%"><stop offset="0%" stop-color="#FFD700"/><stop offset="100%" stop-color="#FFFFFF"/></linearGradient></defs><g><!--class Map--><rect fill="url(#gpxjxge6ui2mo0)" filter="url(#fpxjxge6ui2mo)" height="71.2813" id="Map" style="stroke: #A80036; stroke-width: 1.5;" width="55" x="282" y="8"/><rect fill="url(#gpxjxge6ui2mo0)" height="55.2813" style="stroke: #A80036; stroke-width: 1.5;" width="55" x="282" y="8"/><ellipse cx="297" cy="35.6406" fill="#ADD1B2" rx="11" ry="11" style="stroke: #A80036; stroke-width: 1.0;"/><path d="M299.7656,31.5156 Q299.9219,31.2969 300.1094,31.1875 Q300.2969,31.0781 300.5156,31.0781 Q300.8906,31.0781 301.125,31.3438 Q301.3594,31.5938 301.3594,32.2031 L301.3594,33.6563 Q301.3594,34.2656 301.125,34.5313 Q300.8906,34.7969 300.5156,34.7969 Q300.1719,34.7969 299.9688,34.5938 Q299.7656,34.4063 299.6563,33.8906 Q299.6094,33.5313 299.4219,33.3438 Q299.0938,32.9688 298.4844,32.75 Q297.875,32.5313 297.25,32.5313 Q296.4844,32.5313 295.8438,32.8594 Q295.2188,33.1875 294.7188,33.9375 Q294.2344,34.6875 294.2344,35.7188 L294.2344,36.8125 Q294.2344,38.0469 295.125,38.875 Q296.0156,39.6875 297.6094,39.6875 Q298.5469,39.6875 299.2031,39.4375 Q299.5938,39.2813 300.0156,38.8438 Q300.2813,38.5781 300.4219,38.5 Q300.5781,38.4219 300.7813,38.4219 Q301.1094,38.4219 301.3594,38.6875 Q301.625,38.9375 301.625,39.2813 Q301.625,39.625 301.2813,40.0313 Q300.7813,40.6094 299.9844,40.9375 Q298.9063,41.3906 297.6094,41.3906 Q296.0938,41.3906 294.8906,40.7656 Q293.9063,40.2656 293.2188,39.2031 Q292.5313,38.125 292.5313,36.8438 L292.5313,35.6875 Q292.5313,34.3594 293.1406,33.2188 Q293.7656,32.0625 294.8594,31.4531 Q295.9531,30.8281 297.1875,30.8281 Q297.9219,30.8281 298.5625,31 Q299.2188,31.1563 299.7656,31.5156 Z "/><text fill="#000000" font-family="sans-serif" font-size="12" font-style="italic" lengthAdjust="spacingAndGlyphs" textLength="22" x="311.5" y="25.457">«K»</text><text fill="#000000" font-family="sans-serif" font-size="12" font-style="italic" lengthAdjust="spacingAndGlyphs" textLength="22" x="311.5" y="40.5508">«V»</text><text fill="#000000" font-family="sans-serif" font-size="12" lengthAdjust="spacingAndGlyphs" textLength="23" x="311" y="55.6445">Map</text><line style="stroke: #A80036; stroke-width: 1.5;" x1="283" x2="336" y1="63.2813" y2="63.2813"/><line style="stroke: #A80036; stroke-width: 1.5;" x1="283" x2="336" y1="71.2813" y2="71.2813"/><!--class NavigableMap--><rect fill="url(#gpxjxge6ui2mo0)" filter="url(#fpxjxge6ui2mo)" height="71.2813" id="NavigableMap" style="stroke: #A80036; stroke-width: 1.5;" width="113" x="6" y="139"/><rect fill="url(#gpxjxge6ui2mo0)" height="55.2813" style="stroke: #A80036; stroke-width: 1.5;" width="113" x="6" y="139"/><ellipse cx="21" cy="166.6406" fill="#ADD1B2" rx="11" ry="11" style="stroke: #A80036; stroke-width: 1.0;"/><path d="M23.7656,162.5156 Q23.9219,162.2969 24.1094,162.1875 Q24.2969,162.0781 24.5156,162.0781 Q24.8906,162.0781 25.125,162.3438 Q25.3594,162.5938 25.3594,163.2031 L25.3594,164.6563 Q25.3594,165.2656 25.125,165.5313 Q24.8906,165.7969 24.5156,165.7969 Q24.1719,165.7969 23.9688,165.5938 Q23.7656,165.4063 23.6563,164.8906 Q23.6094,164.5313 23.4219,164.3438 Q23.0938,163.9688 22.4844,163.75 Q21.875,163.5313 21.25,163.5313 Q20.4844,163.5313 19.8438,163.8594 Q19.2188,164.1875 18.7188,164.9375 Q18.2344,165.6875 18.2344,166.7188 L18.2344,167.8125 Q18.2344,169.0469 19.125,169.875 Q20.0156,170.6875 21.6094,170.6875 Q22.5469,170.6875 23.2031,170.4375 Q23.5938,170.2813 24.0156,169.8438 Q24.2813,169.5781 24.4219,169.5 Q24.5781,169.4219 24.7813,169.4219 Q25.1094,169.4219 25.3594,169.6875 Q25.625,169.9375 25.625,170.2813 Q25.625,170.625 25.2813,171.0313 Q24.7813,171.6094 23.9844,171.9375 Q22.9063,172.3906 21.6094,172.3906 Q20.0938,172.3906 18.8906,171.7656 Q17.9063,171.2656 17.2188,170.2031 Q16.5313,169.125 16.5313,167.8438 L16.5313,166.6875 Q16.5313,165.3594 17.1406,164.2188 Q17.7656,163.0625 18.8594,162.4531 Q19.9531,161.8281 21.1875,161.8281 Q21.9219,161.8281 22.5625,162 Q23.2188,162.1563 23.7656,162.5156 Z "/><text fill="#000000" font-family="sans-serif" font-size="12" font-style="italic" lengthAdjust="spacingAndGlyphs" textLength="22" x="64.5" y="156.457">«K»</text><text fill="#000000" font-family="sans-serif" font-size="12" font-style="italic" lengthAdjust="spacingAndGlyphs" textLength="22" x="64.5" y="171.5508">«V»</text><text fill="#000000" font-family="sans-serif" font-size="12" lengthAdjust="spacingAndGlyphs" textLength="81" x="35" y="186.6445">Navigable Map</text><line style="stroke: #A80036; stroke-width: 1.5;" x1="7" x2="118" y1="194.2813" y2="194.2813"/><line style="stroke: #A80036; stroke-width: 1.5;" x1="7" x2="118" y1="202.2813" y2="202.2813"/><!--class AbstractMap--><rect fill="url(#gpxjxge6ui2mo1)" filter="url(#fpxjxge6ui2mo)" height="71.2813" id="AbstractMap" style="stroke: #A80036; stroke-width: 1.5;" width="102" x="258.5" y="139"/><rect fill="url(#gpxjxge6ui2mo1)" height="55.2813" style="stroke: #A80036; stroke-width: 1.5;" width="102" x="258.5" y="139"/><ellipse cx="273.5" cy="166.6406" fill="#ADD1B2" rx="11" ry="11" style="stroke: #A80036; stroke-width: 1.0;"/><path d="M276.2656,162.5156 Q276.4219,162.2969 276.6094,162.1875 Q276.7969,162.0781 277.0156,162.0781 Q277.3906,162.0781 277.625,162.3438 Q277.8594,162.5938 277.8594,163.2031 L277.8594,164.6563 Q277.8594,165.2656 277.625,165.5313 Q277.3906,165.7969 277.0156,165.7969 Q276.6719,165.7969 276.4688,165.5938 Q276.2656,165.4063 276.1563,164.8906 Q276.1094,164.5313 275.9219,164.3438 Q275.5938,163.9688 274.9844,163.75 Q274.375,163.5313 273.75,163.5313 Q272.9844,163.5313 272.3438,163.8594 Q271.7188,164.1875 271.2188,164.9375 Q270.7344,165.6875 270.7344,166.7188 L270.7344,167.8125 Q270.7344,169.0469 271.625,169.875 Q272.5156,170.6875 274.1094,170.6875 Q275.0469,170.6875 275.7031,170.4375 Q276.0938,170.2813 276.5156,169.8438 Q276.7813,169.5781 276.9219,169.5 Q277.0781,169.4219 277.2813,169.4219 Q277.6094,169.4219 277.8594,169.6875 Q278.125,169.9375 278.125,170.2813 Q278.125,170.625 277.7813,171.0313 Q277.2813,171.6094 276.4844,171.9375 Q275.4063,172.3906 274.1094,172.3906 Q272.5938,172.3906 271.3906,171.7656 Q270.4063,171.2656 269.7188,170.2031 Q269.0313,169.125 269.0313,167.8438 L269.0313,166.6875 Q269.0313,165.3594 269.6406,164.2188 Q270.2656,163.0625 271.3594,162.4531 Q272.4531,161.8281 273.6875,161.8281 Q274.4219,161.8281 275.0625,162 Q275.7188,162.1563 276.2656,162.5156 Z "/><text fill="#000000" font-family="sans-serif" font-size="12" font-style="italic" lengthAdjust="spacingAndGlyphs" textLength="22" x="311.5" y="156.457">«K»</text><text fill="#000000" font-family="sans-serif" font-size="12" font-style="italic" lengthAdjust="spacingAndGlyphs" textLength="22" x="311.5" y="171.5508">«V»</text><text fill="#000000" font-family="sans-serif" font-size="12" lengthAdjust="spacingAndGlyphs" textLength="70" x="287.5" y="186.6445">Abstract Map</text><line style="stroke: #A80036; stroke-width: 1.5;" x1="259.5" x2="359.5" y1="194.2813" y2="194.2813"/><line style="stroke: #A80036; stroke-width: 1.5;" x1="259.5" x2="359.5" y1="202.2813" y2="202.2813"/><!--class TreeMap--><rect fill="url(#gpxjxge6ui2mo2)" filter="url(#fpxjxge6ui2mo)" height="71.2813" id="TreeMap" style="stroke: #A80036; stroke-width: 1.5;" width="83" x="21" y="270"/><rect fill="url(#gpxjxge6ui2mo2)" height="55.2813" style="stroke: #A80036; stroke-width: 1.5;" width="83" x="21" y="270"/><ellipse cx="36" cy="297.6406" fill="#ADD1B2" rx="11" ry="11" style="stroke: #A80036; stroke-width: 1.0;"/><path d="M38.7656,293.5156 Q38.9219,293.2969 39.1094,293.1875 Q39.2969,293.0781 39.5156,293.0781 Q39.8906,293.0781 40.125,293.3438 Q40.3594,293.5938 40.3594,294.2031 L40.3594,295.6563 Q40.3594,296.2656 40.125,296.5313 Q39.8906,296.7969 39.5156,296.7969 Q39.1719,296.7969 38.9688,296.5938 Q38.7656,296.4063 38.6563,295.8906 Q38.6094,295.5313 38.4219,295.3438 Q38.0938,294.9688 37.4844,294.75 Q36.875,294.5313 36.25,294.5313 Q35.4844,294.5313 34.8438,294.8594 Q34.2188,295.1875 33.7188,295.9375 Q33.2344,296.6875 33.2344,297.7188 L33.2344,298.8125 Q33.2344,300.0469 34.125,300.875 Q35.0156,301.6875 36.6094,301.6875 Q37.5469,301.6875 38.2031,301.4375 Q38.5938,301.2813 39.0156,300.8438 Q39.2813,300.5781 39.4219,300.5 Q39.5781,300.4219 39.7813,300.4219 Q40.1094,300.4219 40.3594,300.6875 Q40.625,300.9375 40.625,301.2813 Q40.625,301.625 40.2813,302.0313 Q39.7813,302.6094 38.9844,302.9375 Q37.9063,303.3906 36.6094,303.3906 Q35.0938,303.3906 33.8906,302.7656 Q32.9063,302.2656 32.2188,301.2031 Q31.5313,300.125 31.5313,298.8438 L31.5313,297.6875 Q31.5313,296.3594 32.1406,295.2188 Q32.7656,294.0625 33.8594,293.4531 Q34.9531,292.8281 36.1875,292.8281 Q36.9219,292.8281 37.5625,293 Q38.2188,293.1563 38.7656,293.5156 Z "/><text fill="#000000" font-family="sans-serif" font-size="12" font-style="italic" lengthAdjust="spacingAndGlyphs" textLength="22" x="64.5" y="287.457">«K»</text><text fill="#000000" font-family="sans-serif" font-size="12" font-style="italic" lengthAdjust="spacingAndGlyphs" textLength="22" x="64.5" y="302.5508">«V»</text><text fill="#000000" font-family="sans-serif" font-size="12" lengthAdjust="spacingAndGlyphs" textLength="51" x="50" y="317.6445">Tree Map</text><line style="stroke: #A80036; stroke-width: 1.5;" x1="22" x2="103" y1="325.2813" y2="325.2813"/><line style="stroke: #A80036; stroke-width: 1.5;" x1="22" x2="103" y1="333.2813" y2="333.2813"/><!--class EnumMap--><rect fill="url(#gpxjxge6ui2mo2)" filter="url(#fpxjxge6ui2mo)" height="71.2813" id="EnumMap" style="stroke: #A80036; stroke-width: 1.5;" width="91" x="139" y="270"/><rect fill="url(#gpxjxge6ui2mo2)" height="55.2813" style="stroke: #A80036; stroke-width: 1.5;" width="91" x="139" y="270"/><ellipse cx="154" cy="297.6406" fill="#ADD1B2" rx="11" ry="11" style="stroke: #A80036; stroke-width: 1.0;"/><path d="M156.7656,293.5156 Q156.9219,293.2969 157.1094,293.1875 Q157.2969,293.0781 157.5156,293.0781 Q157.8906,293.0781 158.125,293.3438 Q158.3594,293.5938 158.3594,294.2031 L158.3594,295.6563 Q158.3594,296.2656 158.125,296.5313 Q157.8906,296.7969 157.5156,296.7969 Q157.1719,296.7969 156.9688,296.5938 Q156.7656,296.4063 156.6563,295.8906 Q156.6094,295.5313 156.4219,295.3438 Q156.0938,294.9688 155.4844,294.75 Q154.875,294.5313 154.25,294.5313 Q153.4844,294.5313 152.8438,294.8594 Q152.2188,295.1875 151.7188,295.9375 Q151.2344,296.6875 151.2344,297.7188 L151.2344,298.8125 Q151.2344,300.0469 152.125,300.875 Q153.0156,301.6875 154.6094,301.6875 Q155.5469,301.6875 156.2031,301.4375 Q156.5938,301.2813 157.0156,300.8438 Q157.2813,300.5781 157.4219,300.5 Q157.5781,300.4219 157.7813,300.4219 Q158.1094,300.4219 158.3594,300.6875 Q158.625,300.9375 158.625,301.2813 Q158.625,301.625 158.2813,302.0313 Q157.7813,302.6094 156.9844,302.9375 Q155.9063,303.3906 154.6094,303.3906 Q153.0938,303.3906 151.8906,302.7656 Q150.9063,302.2656 150.2188,301.2031 Q149.5313,300.125 149.5313,298.8438 L149.5313,297.6875 Q149.5313,296.3594 150.1406,295.2188 Q150.7656,294.0625 151.8594,293.4531 Q152.9531,292.8281 154.1875,292.8281 Q154.9219,292.8281 155.5625,293 Q156.2188,293.1563 156.7656,293.5156 Z "/><text fill="#000000" font-family="sans-serif" font-size="12" font-style="italic" lengthAdjust="spacingAndGlyphs" textLength="22" x="186.5" y="287.457">«K»</text><text fill="#000000" font-family="sans-serif" font-size="12" font-style="italic" lengthAdjust="spacingAndGlyphs" textLength="22" x="186.5" y="302.5508">«V»</text><text fill="#000000" font-family="sans-serif" font-size="12" lengthAdjust="spacingAndGlyphs" textLength="59" x="168" y="317.6445">Enum Map</text><line style="stroke: #A80036; stroke-width: 1.5;" x1="140" x2="229" y1="325.2813" y2="325.2813"/><line style="stroke: #A80036; stroke-width: 1.5;" x1="140" x2="229" y1="333.2813" y2="333.2813"/><!--class HashMap--><rect fill="url(#gpxjxge6ui2mo2)" filter="url(#fpxjxge6ui2mo)" height="71.2813" id="HashMap" style="stroke: #A80036; stroke-width: 1.5;" width="88" x="265.5" y="270"/><rect fill="url(#gpxjxge6ui2mo2)" height="55.2813" style="stroke: #A80036; stroke-width: 1.5;" width="88" x="265.5" y="270"/><ellipse cx="280.5" cy="297.6406" fill="#ADD1B2" rx="11" ry="11" style="stroke: #A80036; stroke-width: 1.0;"/><path d="M283.2656,293.5156 Q283.4219,293.2969 283.6094,293.1875 Q283.7969,293.0781 284.0156,293.0781 Q284.3906,293.0781 284.625,293.3438 Q284.8594,293.5938 284.8594,294.2031 L284.8594,295.6563 Q284.8594,296.2656 284.625,296.5313 Q284.3906,296.7969 284.0156,296.7969 Q283.6719,296.7969 283.4688,296.5938 Q283.2656,296.4063 283.1563,295.8906 Q283.1094,295.5313 282.9219,295.3438 Q282.5938,294.9688 281.9844,294.75 Q281.375,294.5313 280.75,294.5313 Q279.9844,294.5313 279.3438,294.8594 Q278.7188,295.1875 278.2188,295.9375 Q277.7344,296.6875 277.7344,297.7188 L277.7344,298.8125 Q277.7344,300.0469 278.625,300.875 Q279.5156,301.6875 281.1094,301.6875 Q282.0469,301.6875 282.7031,301.4375 Q283.0938,301.2813 283.5156,300.8438 Q283.7813,300.5781 283.9219,300.5 Q284.0781,300.4219 284.2813,300.4219 Q284.6094,300.4219 284.8594,300.6875 Q285.125,300.9375 285.125,301.2813 Q285.125,301.625 284.7813,302.0313 Q284.2813,302.6094 283.4844,302.9375 Q282.4063,303.3906 281.1094,303.3906 Q279.5938,303.3906 278.3906,302.7656 Q277.4063,302.2656 276.7188,301.2031 Q276.0313,300.125 276.0313,298.8438 L276.0313,297.6875 Q276.0313,296.3594 276.6406,295.2188 Q277.2656,294.0625 278.3594,293.4531 Q279.4531,292.8281 280.6875,292.8281 Q281.4219,292.8281 282.0625,293 Q282.7188,293.1563 283.2656,293.5156 Z "/><text fill="#000000" font-family="sans-serif" font-size="12" font-style="italic" lengthAdjust="spacingAndGlyphs" textLength="22" x="311.5" y="287.457">«K»</text><text fill="#000000" font-family="sans-serif" font-size="12" font-style="italic" lengthAdjust="spacingAndGlyphs" textLength="22" x="311.5" y="302.5508">«V»</text><text fill="#000000" font-family="sans-serif" font-size="12" lengthAdjust="spacingAndGlyphs" textLength="56" x="294.5" y="317.6445">Hash Map</text><line style="stroke: #A80036; stroke-width: 1.5;" x1="266.5" x2="352.5" y1="325.2813" y2="325.2813"/><line style="stroke: #A80036; stroke-width: 1.5;" x1="266.5" x2="352.5" y1="333.2813" y2="333.2813"/><!--class WeakHashMap--><rect fill="url(#gpxjxge6ui2mo2)" filter="url(#fpxjxge6ui2mo)" height="71.2813" id="WeakHashMap" style="stroke: #A80036; stroke-width: 1.5;" width="122" x="388.5" y="270"/><rect fill="url(#gpxjxge6ui2mo2)" height="55.2813" style="stroke: #A80036; stroke-width: 1.5;" width="122" x="388.5" y="270"/><ellipse cx="403.5" cy="297.6406" fill="#ADD1B2" rx="11" ry="11" style="stroke: #A80036; stroke-width: 1.0;"/><path d="M406.2656,293.5156 Q406.4219,293.2969 406.6094,293.1875 Q406.7969,293.0781 407.0156,293.0781 Q407.3906,293.0781 407.625,293.3438 Q407.8594,293.5938 407.8594,294.2031 L407.8594,295.6563 Q407.8594,296.2656 407.625,296.5313 Q407.3906,296.7969 407.0156,296.7969 Q406.6719,296.7969 406.4688,296.5938 Q406.2656,296.4063 406.1563,295.8906 Q406.1094,295.5313 405.9219,295.3438 Q405.5938,294.9688 404.9844,294.75 Q404.375,294.5313 403.75,294.5313 Q402.9844,294.5313 402.3438,294.8594 Q401.7188,295.1875 401.2188,295.9375 Q400.7344,296.6875 400.7344,297.7188 L400.7344,298.8125 Q400.7344,300.0469 401.625,300.875 Q402.5156,301.6875 404.1094,301.6875 Q405.0469,301.6875 405.7031,301.4375 Q406.0938,301.2813 406.5156,300.8438 Q406.7813,300.5781 406.9219,300.5 Q407.0781,300.4219 407.2813,300.4219 Q407.6094,300.4219 407.8594,300.6875 Q408.125,300.9375 408.125,301.2813 Q408.125,301.625 407.7813,302.0313 Q407.2813,302.6094 406.4844,302.9375 Q405.4063,303.3906 404.1094,303.3906 Q402.5938,303.3906 401.3906,302.7656 Q400.4063,302.2656 399.7188,301.2031 Q399.0313,300.125 399.0313,298.8438 L399.0313,297.6875 Q399.0313,296.3594 399.6406,295.2188 Q400.2656,294.0625 401.3594,293.4531 Q402.4531,292.8281 403.6875,292.8281 Q404.4219,292.8281 405.0625,293 Q405.7188,293.1563 406.2656,293.5156 Z "/><text fill="#000000" font-family="sans-serif" font-size="12" font-style="italic" lengthAdjust="spacingAndGlyphs" textLength="22" x="451.5" y="287.457">«K»</text><text fill="#000000" font-family="sans-serif" font-size="12" font-style="italic" lengthAdjust="spacingAndGlyphs" textLength="22" x="451.5" y="302.5508">«V»</text><text fill="#000000" font-family="sans-serif" font-size="12" lengthAdjust="spacingAndGlyphs" textLength="90" x="417.5" y="317.6445">Weak Hash Map</text><line style="stroke: #A80036; stroke-width: 1.5;" x1="389.5" x2="509.5" y1="325.2813" y2="325.2813"/><line style="stroke: #A80036; stroke-width: 1.5;" x1="389.5" x2="509.5" y1="333.2813" y2="333.2813"/><!--class IdentityHashMap--><rect fill="url(#gpxjxge6ui2mo2)" filter="url(#fpxjxge6ui2mo)" height="71.2813" id="IdentityHashMap" style="stroke: #A80036; stroke-width: 1.5;" width="129" x="546" y="270"/><rect fill="url(#gpxjxge6ui2mo2)" height="55.2813" style="stroke: #A80036; stroke-width: 1.5;" width="129" x="546" y="270"/><ellipse cx="561" cy="297.6406" fill="#ADD1B2" rx="11" ry="11" style="stroke: #A80036; stroke-width: 1.0;"/><path d="M563.7656,293.5156 Q563.9219,293.2969 564.1094,293.1875 Q564.2969,293.0781 564.5156,293.0781 Q564.8906,293.0781 565.125,293.3438 Q565.3594,293.5938 565.3594,294.2031 L565.3594,295.6563 Q565.3594,296.2656 565.125,296.5313 Q564.8906,296.7969 564.5156,296.7969 Q564.1719,296.7969 563.9688,296.5938 Q563.7656,296.4063 563.6563,295.8906 Q563.6094,295.5313 563.4219,295.3438 Q563.0938,294.9688 562.4844,294.75 Q561.875,294.5313 561.25,294.5313 Q560.4844,294.5313 559.8438,294.8594 Q559.2188,295.1875 558.7188,295.9375 Q558.2344,296.6875 558.2344,297.7188 L558.2344,298.8125 Q558.2344,300.0469 559.125,300.875 Q560.0156,301.6875 561.6094,301.6875 Q562.5469,301.6875 563.2031,301.4375 Q563.5938,301.2813 564.0156,300.8438 Q564.2813,300.5781 564.4219,300.5 Q564.5781,300.4219 564.7813,300.4219 Q565.1094,300.4219 565.3594,300.6875 Q565.625,300.9375 565.625,301.2813 Q565.625,301.625 565.2813,302.0313 Q564.7813,302.6094 563.9844,302.9375 Q562.9063,303.3906 561.6094,303.3906 Q560.0938,303.3906 558.8906,302.7656 Q557.9063,302.2656 557.2188,301.2031 Q556.5313,300.125 556.5313,298.8438 L556.5313,297.6875 Q556.5313,296.3594 557.1406,295.2188 Q557.7656,294.0625 558.8594,293.4531 Q559.9531,292.8281 561.1875,292.8281 Q561.9219,292.8281 562.5625,293 Q563.2188,293.1563 563.7656,293.5156 Z "/><text fill="#000000" font-family="sans-serif" font-size="12" font-style="italic" lengthAdjust="spacingAndGlyphs" textLength="22" x="612.5" y="287.457">«K»</text><text fill="#000000" font-family="sans-serif" font-size="12" font-style="italic" lengthAdjust="spacingAndGlyphs" textLength="22" x="612.5" y="302.5508">«V»</text><text fill="#000000" font-family="sans-serif" font-size="12" lengthAdjust="spacingAndGlyphs" textLength="97" x="575" y="317.6445">Identity Hash Map</text><line style="stroke: #A80036; stroke-width: 1.5;" x1="547" x2="674" y1="325.2813" y2="325.2813"/><line style="stroke: #A80036; stroke-width: 1.5;" x1="547" x2="674" y1="333.2813" y2="333.2813"/><!--class LinkedHashMap--><rect fill="url(#gpxjxge6ui2mo2)" filter="url(#fpxjxge6ui2mo)" height="71.2813" id="LinkedHashMap" style="stroke: #A80036; stroke-width: 1.5;" width="128" x="245.5" y="401"/><rect fill="url(#gpxjxge6ui2mo2)" height="55.2813" style="stroke: #A80036; stroke-width: 1.5;" width="128" x="245.5" y="401"/><ellipse cx="260.5" cy="428.6406" fill="#ADD1B2" rx="11" ry="11" style="stroke: #A80036; stroke-width: 1.0;"/><path d="M263.2656,424.5156 Q263.4219,424.2969 263.6094,424.1875 Q263.7969,424.0781 264.0156,424.0781 Q264.3906,424.0781 264.625,424.3438 Q264.8594,424.5938 264.8594,425.2031 L264.8594,426.6563 Q264.8594,427.2656 264.625,427.5313 Q264.3906,427.7969 264.0156,427.7969 Q263.6719,427.7969 263.4688,427.5938 Q263.2656,427.4063 263.1563,426.8906 Q263.1094,426.5313 262.9219,426.3438 Q262.5938,425.9688 261.9844,425.75 Q261.375,425.5313 260.75,425.5313 Q259.9844,425.5313 259.3438,425.8594 Q258.7188,426.1875 258.2188,426.9375 Q257.7344,427.6875 257.7344,428.7188 L257.7344,429.8125 Q257.7344,431.0469 258.625,431.875 Q259.5156,432.6875 261.1094,432.6875 Q262.0469,432.6875 262.7031,432.4375 Q263.0938,432.2813 263.5156,431.8438 Q263.7813,431.5781 263.9219,431.5 Q264.0781,431.4219 264.2813,431.4219 Q264.6094,431.4219 264.8594,431.6875 Q265.125,431.9375 265.125,432.2813 Q265.125,432.625 264.7813,433.0313 Q264.2813,433.6094 263.4844,433.9375 Q262.4063,434.3906 261.1094,434.3906 Q259.5938,434.3906 258.3906,433.7656 Q257.4063,433.2656 256.7188,432.2031 Q256.0313,431.125 256.0313,429.8438 L256.0313,428.6875 Q256.0313,427.3594 256.6406,426.2188 Q257.2656,425.0625 258.3594,424.4531 Q259.4531,423.8281 260.6875,423.8281 Q261.4219,423.8281 262.0625,424 Q262.7188,424.1563 263.2656,424.5156 Z "/><text fill="#000000" font-family="sans-serif" font-size="12" font-style="italic" lengthAdjust="spacingAndGlyphs" textLength="22" x="311.5" y="418.457">«K»</text><text fill="#000000" font-family="sans-serif" font-size="12" font-style="italic" lengthAdjust="spacingAndGlyphs" textLength="22" x="311.5" y="433.5508">«V»</text><text fill="#000000" font-family="sans-serif" font-size="12" lengthAdjust="spacingAndGlyphs" textLength="96" x="274.5" y="448.6445">Linked Hash Map</text><line style="stroke: #A80036; stroke-width: 1.5;" x1="246.5" x2="372.5" y1="456.2813" y2="456.2813"/><line style="stroke: #A80036; stroke-width: 1.5;" x1="246.5" x2="372.5" y1="464.2813" y2="464.2813"/><!--link Map to AbstractMap--><path d="M309.5,99.31 C309.5,112.71 309.5,126.68 309.5,138.83 " fill="none" id="Map-AbstractMap" style="stroke: #A80036; stroke-width: 1.0; stroke-dasharray: 7.0,7.0;"/><polygon fill="none" points="302.5,99.07,309.5,79.07,316.5,99.07,302.5,99.07" style="stroke: #A80036; stroke-width: 1.0;"/><!--link NavigableMap to TreeMap--><path d="M62.5,230.31 C62.5,243.71 62.5,257.68 62.5,269.83 " fill="none" id="NavigableMap-TreeMap" style="stroke: #A80036; stroke-width: 1.0; stroke-dasharray: 7.0,7.0;"/><polygon fill="none" points="55.5,230.07,62.5,210.07,69.5,230.07,55.5,230.07" style="stroke: #A80036; stroke-width: 1.0;"/><!--link AbstractMap to TreeMap--><path d="M240.02,209.12 C204.32,226.72 160.28,248.94 121.5,270 C115.87,273.06 109.99,276.36 104.21,279.67 " fill="none" id="AbstractMap-TreeMap" style="stroke: #A80036; stroke-width: 1.0;"/><polygon fill="none" points="237.34,202.63,258.38,200.11,243.51,215.2,237.34,202.63" style="stroke: #A80036; stroke-width: 1.0;"/><!--link AbstractMap to EnumMap--><path d="M261.91,224.61 C247.31,239.68 231.55,255.94 218.09,269.83 " fill="none" id="AbstractMap-EnumMap" style="stroke: #A80036; stroke-width: 1.0;"/><polygon fill="none" points="257.06,219.56,276,210.07,267.11,229.3,257.06,219.56" style="stroke: #A80036; stroke-width: 1.0;"/><!--link AbstractMap to HashMap--><path d="M309.5,230.31 C309.5,243.71 309.5,257.68 309.5,269.83 " fill="none" id="AbstractMap-HashMap" style="stroke: #A80036; stroke-width: 1.0;"/><polygon fill="none" points="302.5,230.07,309.5,210.07,316.5,230.07,302.5,230.07" style="stroke: #A80036; stroke-width: 1.0;"/><!--link AbstractMap to WeakHashMap--><path d="M361.78,223.67 C378.42,239 396.49,255.65 411.88,269.83 " fill="none" id="AbstractMap-WeakHashMap" style="stroke: #A80036; stroke-width: 1.0;"/><polygon fill="none" points="356.98,228.77,347.02,210.07,366.47,218.47,356.98,228.77" style="stroke: #A80036; stroke-width: 1.0;"/><!--link AbstractMap to IdentityHashMap--><path d="M379.24,205.39 C429.47,226.92 496.75,255.75 545.78,276.76 " fill="none" id="AbstractMap-IdentityHashMap" style="stroke: #A80036; stroke-width: 1.0;"/><polygon fill="none" points="376.19,211.7,360.56,197.38,381.7,198.83,376.19,211.7" style="stroke: #A80036; stroke-width: 1.0;"/><!--link HashMap to LinkedHashMap--><path d="M309.5,361.31 C309.5,374.71 309.5,388.68 309.5,400.83 " fill="none" id="HashMap-LinkedHashMap" style="stroke: #A80036; stroke-width: 1.0;"/><polygon fill="none" points="302.5,361.07,309.5,341.07,316.5,361.07,302.5,361.07" style="stroke: #A80036; stroke-width: 1.0;"/><!--
@startuml
class Map <<K>> <<V>> #grey/white
class "Navigable Map" as NavigableMap <<K>> <<V>> #grey/white
class "Abstract Map" as AbstractMap <<K>> <<V>> #bisque/white
class "Tree Map" as TreeMap <<K>> <<V>> #gold/white
class "Enum Map" as EnumMap <<K>> <<V>> #gold/white
class "Hash Map" as HashMap <<K>> <<V>>#gold/white
class "Weak Hash Map" as WeakHashMap <<K>> <<V>> #gold/white
class "Identity Hash Map" as IdentityHashMap <<K>> <<V>> #gold/white
class "Linked Hash Map" as LinkedHashMap <<K>> <<V>> #gold/white

Map <|.. AbstractMap
NavigableMap <|.. TreeMap
AbstractMap <|- - TreeMap
AbstractMap <|- - EnumMap
AbstractMap <|- - HashMap
AbstractMap <|- - WeakHashMap
AbstractMap <|- - IdentityHashMap
HashMap <|- - LinkedHashMap
@enduml

PlantUML version 1.2019.05(Sat Apr 20 18:45:36 CEST 2019)
(GPL source distribution)
Java Runtime: Java(TM) SE Runtime Environment
JVM: Java HotSpot(TM) 64-Bit Server VM
Java Version: 11.0.14+8-LTS-263
Operating System: Windows 10
OS Version: 10.0
Default Encoding: windows-1252
Language: es
Country: ES
--></g></svg>