<?xml version="1.0" encoding="UTF-8" standalone="no"?><svg xmlns="http://www.w3.org/2000/svg" xmlns:xlink="http://www.w3.org/1999/xlink" contentScriptType="application/ecmascript" contentStyleType="text/css" height="251px" preserveAspectRatio="none" style="width:450px;height:251px;background:#222222;" version="1.1" viewBox="0 0 450 251" width="450px" zoomAndPan="magnify"><defs/><g><!--class Person--><polygon fill="#222222" points="140.5,8,140.5,8.2102,150.2143,7.5857,159.9286,8.1933,169.6429,8.3997,179.3571,7.2866,189.0714,7.9223,198.7857,7.5735,208.5,7.6165,218.2143,7.9318,227.9286,7.3086,237.6429,8.5536,247.3571,7.3697,257.0714,7.8022,266.7857,8.4319,276.5,8,276.4142,8,276.5682,17.4623,276.4681,26.9246,276.6785,36.3868,276.7391,45.8491,277.0857,55.3114,277.1711,64.7737,277.1793,74.236,276.5,83.6982,276.5,83.9529,266.7857,84.1618,257.0714,84.4005,247.3571,82.9771,237.6429,84.3768,227.9286,83.4017,218.2143,84.2321,208.5,83.2032,198.7857,83.6297,189.0714,84.4398,179.3571,83.6495,169.6429,83.8035,159.9286,84.0369,150.2143,84.1145,140.5,83.6982,140.4961,83.6982,140.7872,74.236,139.9276,64.7737,140.7844,55.3114,141.0482,45.8491,140.9445,36.3868,141.113,26.9246,140.0169,17.4623,140.5,8" style="stroke: #A9A9A9; stroke-width: 3.0;"/><text fill="#A9A9A9" font-family="courier" font-size="20" font-weight="bold" lengthAdjust="spacingAndGlyphs" textLength="72" x="172.5" y="34.1074">Person</text><path d="M141.5,46.1133 L141.5,46.3935 L151.8077,45.5609 L162.1154,46.371 L172.4231,46.6462 L182.7308,45.1621 L193.0385,46.0097 L203.3462,45.5446 L213.6538,45.6019 L223.9615,46.0224 L234.2692,45.1915 L244.5769,46.8515 L254.8846,45.2729 L265.1923,45.8496 L275.5,46.1133 " fill="#222222" style="stroke: #A9A9A9; stroke-width: 3.0;"/><polygon fill="none" points="148.5,59.4058,148.5,59.4758,149.7,59.2677,150.9,59.4702,152.1,59.539,153.3,59.168,154.5,59.4058,154.4741,59.4058,154.3578,60.6058,154.3722,61.8058,154.4773,63.0058,154.2695,64.2058,154.5,65.4058,154.5,65.5903,153.3,65.1957,152.1,65.3398,150.9,65.5497,149.7,65.3772,148.5,65.4058,148.5227,65.4058,148.4894,64.2058,148.5595,63.0058,148.5797,61.8058,148.6952,60.6058,148.5,59.4058" style="stroke: #C82930; stroke-width: 1.0;"/><text fill="#A9A9A9" font-family="courier" font-size="15" lengthAdjust="spacingAndGlyphs" textLength="108" x="161.5" y="66.1938">name: String</text><path d="M141.5,75.6982 L141.5,75.9785 L151.8077,75.1458 L162.1154,75.956 L172.4231,76.2311 L182.7308,74.747 L193.0385,75.5946 L203.3462,75.1296 L213.6538,75.1869 L223.9615,75.6074 L234.2692,74.7764 L244.5769,76.4364 L254.8846,74.8579 L265.1923,75.4346 L275.5,75.6982 " fill="#222222" style="stroke: #A9A9A9; stroke-width: 3.0;"/><!--class Teacher--><polygon fill="#222222" points="30.5,164.5,30.5,164.7102,40.4091,164.0857,50.3182,164.6933,60.2273,164.8997,70.1364,163.7866,80.0455,164.4223,89.9545,164.0735,99.8636,164.1165,109.7727,164.4318,119.6818,163.8086,129.5909,165.0536,139.5,164.5,138.8697,164.5,139.3022,173.9623,139.9319,183.4246,139.4142,192.8868,139.5682,202.3491,139.4681,211.8114,139.6785,221.2737,139.7391,230.736,139.5,240.1982,139.5,240.7839,129.5909,240.8693,119.6818,240.8775,109.7727,240.4529,99.8636,240.6618,89.9545,240.9005,80.0455,239.4771,70.1364,240.8768,60.2273,239.9017,50.3182,240.7321,40.4091,239.7032,30.5,240.1982,30.4315,240.1982,31.2416,230.736,30.4513,221.2737,30.6053,211.8114,30.8386,202.3491,30.9162,192.8868,30.4961,183.4246,30.7872,173.9623,30.5,164.5" style="stroke: #A9A9A9; stroke-width: 3.0;"/><text fill="#A9A9A9" font-family="courier" font-size="20" font-weight="bold" lengthAdjust="spacingAndGlyphs" textLength="84" x="43" y="190.6074">Teacher</text><path d="M31.5,202.6133 L31.5,202.8935 L41.2273,202.0609 L50.9545,202.871 L60.6818,203.1462 L70.4091,201.6621 L80.1364,202.5097 L89.8636,202.0446 L99.5909,202.1019 L109.3182,202.5224 L119.0455,201.6915 L128.7727,203.3515 L138.5,202.6133 " fill="#222222" style="stroke: #A9A9A9; stroke-width: 3.0;"/><polygon fill="none" points="38.5,215.9058,38.5,215.9758,39.7,215.7677,40.9,215.9702,42.1,216.039,43.3,215.668,44.5,215.9058,44.4741,215.9058,44.3578,217.1058,44.3722,218.3058,44.4773,219.5058,44.2695,220.7058,44.5,221.9058,44.5,222.0903,43.3,221.6957,42.1,221.8398,40.9,222.0497,39.7,221.8772,38.5,221.9058,38.5227,221.9058,38.4894,220.7058,38.5595,219.5058,38.5797,218.3058,38.6952,217.1058,38.5,215.9058" style="stroke: #C82930; stroke-width: 1.0;"/><text fill="#A9A9A9" font-family="courier" font-size="15" lengthAdjust="spacingAndGlyphs" textLength="81" x="51.5" y="222.6938">code: int</text><path d="M31.5,232.1982 L31.5,232.4785 L41.2273,231.6458 L50.9545,232.456 L60.6818,232.7311 L70.4091,231.247 L80.1364,232.0946 L89.8636,231.6296 L99.5909,231.6869 L109.3182,232.1074 L119.0455,231.2764 L128.7727,232.9364 L138.5,232.1982 " fill="#222222" style="stroke: #A9A9A9; stroke-width: 3.0;"/><!--class Student--><polygon fill="#222222" points="222.5,164.5,222.5,164.7102,232.3636,164.0857,242.2273,164.6933,252.0909,164.8997,261.9545,163.7866,271.8182,164.4223,281.6818,164.0735,291.5455,164.1165,301.4091,164.4318,311.2727,163.8086,321.1364,165.0536,331,163.8697,340.8636,164.3022,350.7273,164.9319,360.5909,164.4142,370.4545,164.5682,380.3182,164.4681,390.1818,164.6785,400.0455,164.7391,409.9091,165.0857,419.7727,165.1711,429.6364,165.1793,439.5,164.5,439.7546,164.5,439.9636,173.9623,440.2022,183.4246,438.7788,192.8868,440.1785,202.3491,439.2035,211.8114,440.0338,221.2737,439.005,230.736,439.5,240.1982,439.5,240.1297,429.6364,240.9398,419.7727,240.1495,409.9091,240.3035,400.0455,240.5369,390.1818,240.6145,380.3182,240.1943,370.4545,240.4855,360.5909,239.6258,350.7273,240.4826,340.8636,240.7464,331,240.6428,321.1364,240.8113,311.2727,239.7152,301.4091,239.5461,291.5455,239.5768,281.6818,240.1394,271.8182,240.0017,261.9545,240.8797,252.0909,240.0236,242.2273,239.8552,232.3636,240.4265,222.5,240.1982,221.8332,240.1982,221.9809,230.736,223.149,221.2737,222.9357,211.8114,223.2345,202.3491,222.1782,192.8868,222.8192,183.4246,223.0904,173.9623,222.5,164.5" style="stroke: #A9A9A9; stroke-width: 3.0;"/><text fill="#A9A9A9" font-family="courier" font-size="20" font-weight="bold" lengthAdjust="spacingAndGlyphs" textLength="84" x="289" y="190.6074">Student</text><path d="M223.5,202.6133 L223.5,202.8935 L233.2727,202.0609 L243.0455,202.871 L252.8182,203.1462 L262.5909,201.6621 L272.3636,202.5097 L282.1364,202.0446 L291.9091,202.1019 L301.6818,202.5224 L311.4545,201.6915 L321.2273,203.3515 L331,201.7729 L340.7727,202.3496 L350.5455,203.1892 L360.3182,202.4989 L370.0909,202.7043 L379.8636,202.5707 L389.6364,202.8513 L399.4091,202.9321 L409.1818,203.3942 L418.9545,203.508 L428.7273,203.519 L438.5,202.6133 " fill="#222222" style="stroke: #A9A9A9; stroke-width: 3.0;"/><polygon fill="none" points="230.5,215.9058,230.5,215.9758,231.7,215.7677,232.9,215.9702,234.1,216.039,235.3,215.668,236.5,215.9058,236.4741,215.9058,236.3578,217.1058,236.3722,218.3058,236.4773,219.5058,236.2695,220.7058,236.5,221.9058,236.5,222.0903,235.3,221.6957,234.1,221.8398,232.9,222.0497,231.7,221.8772,230.5,221.9058,230.5227,221.9058,230.4894,220.7058,230.5595,219.5058,230.5797,218.3058,230.6952,217.1058,230.5,215.9058" style="stroke: #C82930; stroke-width: 1.0;"/><text fill="#A9A9A9" font-family="courier" font-size="15" lengthAdjust="spacingAndGlyphs" textLength="189" x="243.5" y="222.6938">qualification : float</text><path d="M223.5,232.1982 L223.5,232.4785 L233.2727,231.6458 L243.0455,232.456 L252.8182,232.7311 L262.5909,231.247 L272.3636,232.0946 L282.1364,231.6296 L291.9091,231.6869 L301.6818,232.1074 L311.4545,231.2764 L321.2273,232.9364 L331,231.3579 L340.7727,231.9346 L350.5455,232.7742 L360.3182,232.0839 L370.0909,232.2892 L379.8636,232.1556 L389.6364,232.4363 L399.4091,232.5171 L409.1818,232.9792 L418.9545,233.093 L428.7273,233.1039 L438.5,232.1982 " fill="#222222" style="stroke: #A9A9A9; stroke-width: 3.0;"/><!--link Person to Teacher--><path d="M166.38,99.9 L166.5993,100.0745 L159.544,107.601 L153.7741,116.1505 L147.5857,124.3669 L140.0208,131.4876 L134.2802,140.0605 L127.5126,147.8159 L121.1537,155.8966 L115.15,164.26 " fill="none" style="stroke: #A9A9A9; stroke-width: 2.0;"/><polygon fill="none" points="161.11,95.29,161.1473,95.3493,164.6225,92.9171,168.3163,90.8325,171.9389,88.6348,175.3274,86.0647,179.04,84.01,179.0155,84.0015,177.5098,87.9632,176.1273,91.9679,174.8305,96.0025,173.2384,99.9341,172.06,104.01,172.175,104.1544,169.7391,102.1017,167.6389,100.4704,165.5797,98.8906,163.2822,97.0116,161.11,95.29" style="stroke: #A9A9A9; stroke-width: 2.0;"/><!--link Person to Student--><path d="M250.62,99.9 L250.8393,100.0745 L256.5915,107.601 L263.6291,116.1505 L270.2482,124.3669 L275.4908,131.4876 L282.5577,140.0605 L288.5976,147.8159 L295.0462,155.8966 L301.85,164.26 " fill="none" style="stroke: #A9A9A9; stroke-width: 2.0;"/><polygon fill="none" points="244.94,104.01,245.0061,104.0331,243.4136,99.9645,242.2088,96.0312,240.8778,92.0539,239.1315,87.9316,237.96,84.01,237.9462,83.9881,241.4703,86.1457,245.0639,88.4138,248.7059,90.7588,252.1813,92.8389,255.89,95.29,256.005,95.4344,253.5691,96.8697,251.4689,98.7264,249.4097,100.6346,247.1122,102.2436,244.94,104.01" style="stroke: #A9A9A9; stroke-width: 2.0;"/><!--link Teacher to Student--><path d="M139.75,202.5 L139.75,202.7802 L150.0957,201.9476 L160.4414,202.7577 L170.7871,203.0329 L181.1329,201.5488 L191.4786,202.3964 L201.8243,201.9313 L212.17,202.5 " fill="none" style="stroke: #A9A9A9; stroke-width: 2.0;"/><polygon fill="#A9A9A9" points="222.27,202.5,222.2985,202.564,220.4139,201.5738,218.6962,200.9589,216.9241,200.2217,214.9734,199.0827,213.27,198.5,213.2517,198.4817,213.9695,199.1995,214.7796,200.0096,215.6539,200.8839,216.307,201.537,217.27,202.5,217.4005,202.6305,216.3214,203.1514,215.6234,204.0534,214.9718,205.0018,214.0498,205.6798,213.27,206.5,213.2792,206.5208,215.0657,205.6903,216.8942,204.9544,218.7024,204.1728,220.5493,203.4784,222.27,202.5" style="stroke: #A9A9A9; stroke-width: 2.0;"/><text fill="#A9A9A9" font-family="courier" font-size="20" lengthAdjust="spacingAndGlyphs" textLength="12" x="148.8344" y="189.2284">*</text><text fill="#A9A9A9" font-family="courier" font-size="20" lengthAdjust="spacingAndGlyphs" textLength="12" x="201.4944" y="194.6807">*</text><!--
@startuml

skinparam backgroundColor #222222
skinparam handwritten true
hide circle
hide stereotype
skinparam shadowing false
skinparam padding 1
skinparam arrow {
    Thickness 2
    Color #DarkGrey
    FontSize 20
    FontName courier
    FontStyle normal
    FontColor #DarkGrey
}
skinparam class {
    BorderThickness 3
    BorderColor #DarkGrey
    BackgroundColor #222222
    FontSize 20
    FontName courier
    FontStyle bold
    FontColor #DarkGrey
}
skinparam classAttribute {
    FontSize 15
    FontName courier
    FontStyle normal
    FontColor #DarkGrey
}
class Person {
- name: String
}
class Teacher {
- code: int
}
class Student {
- qualification : float
}

Person <|- - Teacher
Person <|- - Student
Teacher "*"-> "*" Student
@enduml

PlantUML version 1.2019.05(Sat Apr 20 18:45:36 CEST 2019)
(GPL source distribution)
Java Runtime: Java(TM) SE Runtime Environment
JVM: Java HotSpot(TM) 64-Bit Server VM
Java Version: 11.0.14+8-LTS-263
Operating System: Windows 10
OS Version: 10.0
Default Encoding: windows-1252
Language: es
Country: ES
--></g></svg>