<?xml version="1.0" encoding="UTF-8" standalone="no"?><svg xmlns="http://www.w3.org/2000/svg" xmlns:xlink="http://www.w3.org/1999/xlink" contentScriptType="application/ecmascript" contentStyleType="text/css" height="686px" preserveAspectRatio="none" style="width:901px;height:686px;background:#222222;" version="1.1" viewBox="0 0 901 686" width="901px" zoomAndPan="magnify"><defs/><g><!--cluster Activities--><polygon fill="#222222" points="416,24,416,24.2102,425.8462,23.5857,435.6923,24.1933,445.5385,24.3997,455.3846,23.2866,465.2308,23.9223,475.0769,23.5735,484.9231,23.6165,494.7692,23.9318,504.6154,23.3086,514.4615,24.5536,524.3077,23.3697,534.1538,23.8022,544,24,544.141,24.0289,545.372,30.8169,546.8223,37.6499,548.1896,44.4658,549.6583,51.3026,551,58.1133,551,58.3524,561.4286,58.699,571.8571,58.7843,582.2857,58.7925,592.7143,58.3679,603.1429,58.5769,613.5714,58.8155,624,58.1133,623.2788,58.1133,624.6785,68.1349,623.7035,78.1565,624.5338,88.1782,623.505,98.1998,623.9315,108.2214,624.7416,118.243,623.9513,128.2647,624.1053,138.2863,624.3386,148.3079,624.4162,158.3296,623.9961,168.3512,624.2872,178.3728,623.4276,188.3944,624.2844,198.4161,624.5482,208.4377,624.4445,218.4593,624.613,228.4809,623.5169,238.5026,623.3478,248.5242,623.3786,258.5458,623.9411,268.5675,623.8035,278.5891,624.6814,288.6107,623.8253,298.6323,623.6569,308.654,624.2283,318.6756,623.3332,328.6972,623.4809,338.7188,624.649,348.7405,624.4357,358.7621,624.7345,368.7837,623.6782,378.8054,624.3192,388.827,624.5904,398.8486,623.5276,408.8702,623.9041,418.8919,624.126,428.9135,624.6518,438.9351,623.9958,448.9567,624.4626,458.9784,624,469,624,468.4462,614.0952,468.3227,604.1905,469.5036,594.2857,468.2831,584.381,469.509,574.4762,469.2066,564.5714,468.7321,554.6667,468.6462,544.7619,469.4588,534.8571,468.7007,524.9524,469.5919,515.0476,468.4473,505.1429,469.6174,495.2381,469.4843,485.3333,469.245,475.4286,469.0472,465.5238,469.7266,455.619,469.6136,445.7143,469.1693,435.8095,469.2682,425.9048,468.8697,416,469,416.7165,469,416.1549,459.1111,416.1726,449.2222,415.3916,439.3333,415.5948,429.4444,416.5307,419.5556,416.4298,409.6667,415.9571,399.7778,415.6778,389.8889,415.7811,380,415.3138,370.1111,416.4147,360.2222,416.7396,350.3333,416.5264,340.4444,416.6949,330.5556,415.8633,320.6667,416.0872,310.7778,415.6124,300.8889,416.284,291,416.2468,281.1111,416.5524,271.2222,415.7703,261.3333,415.8656,251.4444,416.4435,241.5556,416.5673,231.6667,415.4875,221.7778,415.8061,211.8889,416.1493,202,415.3892,192.1111,416.3534,182.2222,416.258,172.3333,415.8992,162.4444,416.1422,152.5556,416.7287,142.6667,415.6871,132.7778,416.315,122.8889,416.2856,113,416.1158,103.1111,416.1409,93.2222,416.1135,83.3333,415.3758,73.4444,415.5992,63.5556,415.5385,53.6667,416.0638,43.7778,416.0881,33.8889,416,24" style="stroke: #228B22; stroke-width: 3.0;"/><path d="M416,58.1133 L416,58.3935 L425.6429,57.5609 L435.2857,58.371 L444.9286,58.6462 L454.5714,57.1621 L464.2143,58.0097 L473.8571,57.5446 L483.5,57.6019 L493.1429,58.0224 L502.7857,57.1915 L512.4286,58.8515 L522.0714,57.2729 L531.7143,57.8496 L541.3571,58.6892 L551,58.1133 " fill="#222222" style="stroke: #228B22; stroke-width: 3.0;"/><text fill="#228B22" font-family="courier" font-size="20" font-weight="bold" lengthAdjust="spacingAndGlyphs" textLength="120" x="421" y="47.1074">Activities</text><!--cluster Artifacts--><polygon fill="#222222" points="22,531,22,531.2102,31.6667,530.5857,41.3333,531.1933,51,531.3997,60.6667,530.2866,70.3333,530.9223,80,530.5735,89.6667,530.6165,99.3333,530.9318,109,530.3086,118.6667,531.5536,128.3333,530.3697,138,531,137.9354,530.9867,139.541,537.8516,140.772,544.6396,142.2223,551.4725,143.5896,558.2885,145,565.1133,145,565.2918,155.04,565.3524,165.08,565.699,175.12,565.7843,185.16,565.7925,195.2,565.3679,205.24,565.5769,215.28,565.8155,225.32,564.3921,235.36,565.7918,245.4,564.8168,255.44,565.6471,265.48,564.6183,275.52,565.0448,285.56,565.8549,295.6,565.0645,305.64,565.2186,315.68,565.4519,325.72,565.5295,335.76,565.1094,345.8,565.4005,355.84,564.5409,365.88,565.3977,375.92,565.6615,385.96,565.5578,396,565.7263,406.04,564.6302,416.08,564.4611,426.12,564.4919,436.16,565.0544,446.2,564.9168,456.24,565.7947,466.28,564.9386,476.32,564.7702,486.36,565.3415,496.4,564.4464,506.44,564.5942,516.48,565.7622,526.52,565.5489,536.56,565.8478,546.6,564.7915,556.64,565.4325,566.68,565.7037,576.72,564.6409,586.76,565.0174,596.8,565.2393,606.84,565.765,616.88,565.1091,626.92,565.5758,636.96,564.5595,647,565.1133,646.3227,565.1133,647.5036,575.0121,646.2831,584.9109,647.509,594.8097,647.2066,604.7085,646.7321,614.6072,646.6462,624.506,647.4588,634.4048,646.7007,644.3036,647.5919,654.2024,646.4473,664.1012,647,674,647,674.6174,637.0794,674.4843,627.1587,674.245,617.2381,674.0472,607.3175,674.7266,597.3968,674.6136,587.4762,674.1693,577.5556,674.2682,567.6349,673.8697,557.7143,674.7165,547.7937,674.1549,537.873,674.1726,527.9524,673.3916,518.0317,673.5948,508.1111,674.5307,498.1905,674.4298,488.2698,673.9571,478.3492,673.6778,468.4286,673.7811,458.5079,673.3138,448.5873,674.4147,438.6667,674.7396,428.746,674.5264,418.8254,674.6949,408.9048,673.8633,398.9841,674.0872,389.0635,673.6124,379.1429,674.284,369.2222,674.2468,359.3016,674.5524,349.381,673.7703,339.4603,673.8656,329.5397,674.4435,319.619,674.5673,309.6984,673.4875,299.7778,673.8061,289.8571,674.1493,279.9365,673.3892,270.0159,674.3534,260.0952,674.258,250.1746,673.8992,240.254,674.1422,230.3333,674.7287,220.4127,673.6871,210.4921,674.315,200.5714,674.2856,190.6508,674.1158,180.7302,674.1409,170.8095,674.1135,160.8889,673.3758,150.9683,673.5992,141.0476,673.5385,131.127,674.0638,121.2063,674.0881,111.2857,674.1617,101.3651,673.709,91.4444,673.9325,81.5238,673.8798,71.6032,674.5769,61.6825,674.4266,51.7619,673.5145,41.8413,673.9271,31.9206,673.4228,22,674,22.2884,674,22.6085,663.7857,22.5446,653.5714,21.5644,643.3571,22.464,633.1429,21.2572,622.9286,22.2002,612.7143,21.7007,602.5,22.0967,592.2857,22.2403,582.0714,22.4721,571.8571,21.2801,561.6429,22.4755,551.4286,22.1782,541.2143,22,531" style="stroke: #DC143C; stroke-width: 3.0;"/><path d="M22,565.1133 L22,565.3935 L32.25,564.5609 L42.5,565.371 L52.75,565.6462 L63,564.1621 L73.25,565.0097 L83.5,564.5446 L93.75,564.6019 L104,565.0224 L114.25,564.1915 L124.5,565.8515 L134.75,564.2729 L145,565.1133 " fill="#222222" style="stroke: #DC143C; stroke-width: 3.0;"/><text fill="#DC143C" font-family="courier" font-size="20" font-weight="bold" lengthAdjust="spacingAndGlyphs" textLength="108" x="27" y="554.1074">Artifacts</text><!--cluster Team--><polygon fill="#222222" points="671,172,671,172.2102,680.3333,171.5857,689.6667,172.1933,699,172.3997,708.3333,171.2866,717.6667,171.9223,727,172,726.8607,171.9714,728.2748,178.797,729.7777,185.6407,730.9742,192.4216,732.7808,199.3277,734,206.1133,734,205.483,743.6667,205.9155,753.3333,206.5452,763,206.0275,772.6667,206.1815,782.3333,206.0813,792,206.2918,801.6667,206.3524,811.3333,206.699,821,206.7843,830.6667,206.7925,840.3333,206.3679,850,206.5769,859.6667,206.8155,869.3333,205.3921,879,206.1133,879.6785,206.1133,878.7035,216.2219,879.5338,226.3305,878.505,236.4391,878.9315,246.5477,879.7416,256.6563,878.9513,266.7648,879.1053,276.8734,879.3386,286.982,879.4162,297.0906,878.9961,307.1992,879.2872,317.3078,878.4276,327.4164,879.2844,337.525,879.5482,347.6336,879.4445,357.7422,879.613,367.8508,878.5169,377.9594,878.3478,388.068,878.3786,398.1766,878.9411,408.2852,878.8035,418.3938,879.6814,428.5023,878.8253,438.6109,878.6569,448.7195,879.2283,458.8281,878.3332,468.9367,878.4809,479.0453,879.649,489.1539,879.4357,499.2625,879.7345,509.3711,878.6782,519.4797,879.3192,529.5883,879.5904,539.6969,878.5276,549.8055,878.9041,559.9141,879.126,570.0227,879.6518,580.1313,878.9958,590.2398,879.4626,600.3484,878.4462,610.457,878.3227,620.5656,879.5036,630.6742,878.2831,640.7828,879.509,650.8914,879,661,879,661.2066,869.0952,660.7321,859.1905,660.6462,849.2857,661.4588,839.381,660.7007,829.4762,661.5919,819.5714,660.4473,809.6667,661.6174,799.7619,661.4843,789.8571,661.245,779.9524,661.0472,770.0476,661.7266,760.1429,661.6136,750.2381,661.1693,740.3333,661.2682,730.4286,660.8697,720.5238,661.7165,710.619,661.1549,700.7143,661.1726,690.8095,660.3916,680.9048,660.5948,671,661,671.5307,661,671.4298,651.0204,670.9571,641.0408,670.6778,631.0612,670.7811,621.0816,670.3138,611.102,671.4147,601.1224,671.7396,591.1429,671.5264,581.1633,671.6949,571.1837,670.8633,561.2041,671.0872,551.2245,670.6124,541.2449,671.284,531.2653,671.2468,521.2857,671.5524,511.3061,670.7703,501.3265,670.8656,491.3469,671.4435,481.3673,671.5673,471.3878,670.4875,461.4082,670.8061,451.4286,671.1493,441.449,670.3892,431.4694,671.3534,421.4898,671.258,411.5102,670.8992,401.5306,671.1422,391.551,671.7287,381.5714,670.6871,371.5918,671.315,361.6122,671.2856,351.6327,671.1158,341.6531,671.1409,331.6735,671.1135,321.6939,670.3758,311.7143,670.5992,301.7347,670.5385,291.7551,671.0638,281.7755,671.0881,271.7959,671.1617,261.8163,670.709,251.8367,670.9325,241.8571,670.8798,231.8776,671.5769,221.898,671.4266,211.9184,670.5145,201.9388,670.9271,191.9592,670.4228,181.9796,671,172" style="stroke: #1E90FF; stroke-width: 3.0;"/><path d="M671,206.1133 L671,206.3935 L681.5,205.5609 L692,206.371 L702.5,206.6462 L713,205.1621 L723.5,206.0097 L734,206.1133 " fill="#222222" style="stroke: #1E90FF; stroke-width: 3.0;"/><text fill="#1E90FF" font-family="courier" font-size="20" font-weight="bold" lengthAdjust="spacingAndGlyphs" textLength="48" x="676" y="195.1074">Team</text><!--class Activity--><polygon fill="#222222" points="486,71,486,71.2102,496.4,70.5857,506.8,71.1933,517.2,71.3997,527.6,70.2866,538,70.9223,548.4,70.5735,558.8,70.6165,569.2,70.9318,579.6,70.3086,590,71,590.5536,71,589.3697,81.8227,589.8022,92.6453,590.4319,103.468,589.9142,114.2906,590,125.1133,590,125.1815,579.6,125.0813,569.2,125.2918,558.8,125.3524,548.4,125.699,538,125.7843,527.6,125.7925,517.2,125.3679,506.8,125.5769,496.4,125.8155,486,125.1133,485.2788,125.1133,486.6785,114.2906,485.7035,103.468,486.5338,92.6453,485.505,81.8227,486,71" style="stroke: #228B22; stroke-width: 3.0;"/><text fill="#228B22" font-family="courier" font-size="20" font-weight="bold" lengthAdjust="spacingAndGlyphs" textLength="96" x="490" y="97.1074">Activity</text><path d="M487,109.1133 L487,109.3935 L497.2,108.5609 L507.4,109.371 L517.6,109.6462 L527.8,108.1621 L538,109.0097 L548.2,108.5446 L558.4,108.6019 L568.6,109.0224 L578.8,108.1915 L589,109.1133 " fill="#222222" style="stroke: #228B22; stroke-width: 3.0;"/><path d="M487,117.1133 L487,117.3935 L497.2,116.5609 L507.4,117.371 L517.6,117.6462 L527.8,116.1621 L538,117.0097 L548.2,116.5446 L558.4,116.6019 L568.6,117.0224 L578.8,116.1915 L589,117.1133 " fill="#222222" style="stroke: #228B22; stroke-width: 3.0;"/><!--class Implementation\nActivity--><polygon fill="#222222" points="432,206,432,206.2102,441.7778,205.5857,451.5556,206.1933,461.3333,206.3997,471.1111,205.2866,480.8889,205.9223,490.6667,205.5735,500.4444,205.6165,510.2222,205.9318,520,205.3086,529.7778,206.5536,539.5556,205.3697,549.3333,205.8022,559.1111,206.4319,568.8889,205.9142,578.6667,206.0682,588.4444,205.9681,598.2222,206.1785,608,206,608.2391,206,608.5857,216.0283,608.6711,226.0566,608.6793,236.085,608.2546,246.1133,608.4636,256.1416,608.7022,266.1699,607.2788,276.1982,608,286.2266,608,286.9051,598.2222,285.9301,588.4444,286.7604,578.6667,285.7315,568.8889,286.1581,559.1111,286.9682,549.3333,286.1778,539.5556,286.3319,529.7778,286.5652,520,286.6428,510.2222,286.2227,500.4444,286.5138,490.6667,285.6541,480.8889,286.5109,471.1111,286.7748,461.3333,286.6711,451.5556,286.8396,441.7778,285.7435,432,286.2266,431.3478,286.2266,431.3786,276.1982,431.9411,266.1699,431.8035,256.1416,432.6814,246.1133,431.8253,236.085,431.6569,226.0566,432.2283,216.0283,432,206" style="stroke: #228B22; stroke-width: 3.0;"/><text fill="#228B22" font-family="courier" font-size="20" font-weight="bold" lengthAdjust="spacingAndGlyphs" textLength="168" x="436" y="232.1074">Implementation</text><text fill="#228B22" font-family="courier" font-size="20" font-weight="bold" lengthAdjust="spacingAndGlyphs" textLength="96" x="472" y="258.2207">Activity</text><path d="M433,270.2266 L433,270.5068 L443.2353,269.6741 L453.4706,270.4843 L463.7059,270.7595 L473.9412,269.2754 L484.1765,270.1229 L494.4118,269.6579 L504.6471,269.7152 L514.8824,270.1357 L525.1176,269.3047 L535.3529,270.9648 L545.5882,269.3862 L555.8235,269.9629 L566.0588,270.8025 L576.2941,270.1122 L586.5294,270.3175 L596.7647,270.184 L607,270.2266 " fill="#222222" style="stroke: #228B22; stroke-width: 3.0;"/><path d="M433,278.2266 L433,278.5068 L443.2353,277.6741 L453.4706,278.4843 L463.7059,278.7595 L473.9412,277.2754 L484.1765,278.1229 L494.4118,277.6579 L504.6471,277.7152 L514.8824,278.1357 L525.1176,277.3047 L535.3529,278.9648 L545.5882,277.3862 L555.8235,277.9629 L566.0588,278.8025 L576.2941,278.1122 L586.5294,278.3175 L596.7647,278.184 L607,278.2266 " fill="#222222" style="stroke: #228B22; stroke-width: 3.0;"/><!--class ImplementArchitecture--><polygon fill="#222222" points="432,347,432,347.2102,442.1333,346.5857,452.2667,347.1933,462.4,347.3997,472.5333,346.2866,482.6667,346.9223,492.8,346.5735,502.9333,346.6165,513.0667,346.9318,523.2,346.3086,533.3333,347.5536,543.4667,346.3697,553.6,346.8022,563.7333,347.4319,573.8667,346.9142,584,347,584.0682,347,583.9681,356.6673,584.1785,366.3345,584.2391,376.0018,584.5857,385.669,584.6711,395.3363,584.6793,405.0036,584.2546,414.6708,584.4636,424.3381,584.7022,434.0053,583.2788,443.6726,584,453.3398,584,454.0184,573.8667,453.0433,563.7333,453.8737,553.6,452.8448,543.4667,453.2713,533.3333,454.0814,523.2,453.2911,513.0667,453.4451,502.9333,453.6785,492.8,453.7561,482.6667,453.3359,472.5333,453.6271,462.4,452.7674,452.2667,453.6242,442.1333,453.888,432,453.3398,432.4445,453.3398,432.613,443.6726,431.5169,434.0053,431.3478,424.3381,431.3786,414.6708,431.9411,405.0036,431.8035,395.3363,432.6814,385.669,431.8253,376.0018,431.6569,366.3345,432.2283,356.6673,432,347" style="stroke: #228B22; stroke-width: 3.0;"/><text fill="#228B22" font-family="courier" font-size="20" font-weight="bold" lengthAdjust="spacingAndGlyphs" textLength="108" x="448" y="373.1074">Implement</text><text fill="#228B22" font-family="courier" font-size="20" font-weight="bold" lengthAdjust="spacingAndGlyphs" textLength="36" x="484" y="399.2207">the</text><text fill="#228B22" font-family="courier" font-size="20" font-weight="bold" lengthAdjust="spacingAndGlyphs" textLength="144" x="436" y="425.334">Architecture</text><path d="M433,437.3398 L433,437.6201 L443,436.7874 L453,437.5976 L463,437.8727 L473,436.3887 L483,437.2362 L493,436.7712 L503,436.8285 L513,437.249 L523,436.418 L533,438.078 L543,436.4995 L553,437.0762 L563,437.9158 L573,437.2255 L583,437.3398 " fill="#222222" style="stroke: #228B22; stroke-width: 3.0;"/><path d="M433,445.3398 L433,445.6201 L443,444.7874 L453,445.5976 L463,445.8727 L473,444.3887 L483,445.2362 L493,444.7712 L503,444.8285 L513,445.249 L523,444.418 L533,446.078 L543,444.4995 L553,445.0762 L563,445.9158 L573,445.2255 L583,445.3398 " fill="#222222" style="stroke: #228B22; stroke-width: 3.0;"/><!--class Design\nModel--><polygon fill="#222222" points="38,578,38,578.2102,48,577.5857,58,578.1933,68,578.3997,78,577.2866,88,577.9223,98,577.5735,108,577.6165,118,578,117.9318,578,117.3086,588.0283,118.5536,598.0566,117.3697,608.085,117.8022,618.1133,118.4319,628.1416,117.9142,638.1699,118.0682,648.1982,118,658.2266,118,658.1946,108,658.4051,98,658.4657,88,658.8123,78,658.8976,68,658.9058,58,658.4812,48,658.6901,38,658.2266,38.7022,658.2266,37.2788,648.1982,38.6785,638.1699,37.7035,628.1416,38.5338,618.1133,37.505,608.085,37.9315,598.0566,38.7416,588.0283,38,578" style="stroke: #DC143C; stroke-width: 3.0;"/><text fill="#DC143C" font-family="courier" font-size="20" font-weight="bold" lengthAdjust="spacingAndGlyphs" textLength="72" x="42" y="604.1074">Design</text><text fill="#DC143C" font-family="courier" font-size="20" font-weight="bold" lengthAdjust="spacingAndGlyphs" textLength="60" x="48" y="630.2207">Model</text><path d="M39,642.2266 L39,642.5068 L48.75,641.6741 L58.5,642.4843 L68.25,642.7595 L78,641.2754 L87.75,642.1229 L97.5,641.6579 L107.25,641.7152 L117,642.2266 " fill="#222222" style="stroke: #DC143C; stroke-width: 3.0;"/><path d="M39,650.2266 L39,650.5068 L48.75,649.6741 L58.5,650.4843 L68.25,650.7595 L78,649.2754 L87.75,650.1229 L97.5,649.6579 L107.25,649.7152 L117,650.2266 " fill="#222222" style="stroke: #DC143C; stroke-width: 3.0;"/><!--class Deployment\nModel--><polygon fill="#222222" points="153,578,153,578.2102,162.8462,577.5857,172.6923,578.1933,182.5385,578.3997,192.3846,577.2866,202.2308,577.9223,212.0769,577.5735,221.9231,577.6165,231.7692,577.9318,241.6154,577.3086,251.4615,578.5536,261.3077,577.3697,271.1538,577.8022,281,578,281.4319,578,280.9142,588.0283,281.0682,598.0566,280.9681,608.085,281.1785,618.1133,281.2391,628.1416,281.5857,638.1699,281.6711,648.1982,281,658.2266,281,658.9058,271.1538,658.4812,261.3077,658.6901,251.4615,658.9288,241.6154,657.5054,231.7692,658.9051,221.9231,657.9301,212.0769,658.7604,202.2308,657.7315,192.3846,658.1581,182.5385,658.9682,172.6923,658.1778,162.8462,658.3319,153,658.2266,153.3386,658.2266,153.4162,648.1982,152.9961,638.1699,153.2872,628.1416,152.4276,618.1133,153.2844,608.085,153.5482,598.0566,153.4445,588.0283,153,578" style="stroke: #DC143C; stroke-width: 3.0;"/><text fill="#DC143C" font-family="courier" font-size="20" font-weight="bold" lengthAdjust="spacingAndGlyphs" textLength="120" x="157" y="604.1074">Deployment</text><text fill="#DC143C" font-family="courier" font-size="20" font-weight="bold" lengthAdjust="spacingAndGlyphs" textLength="60" x="187" y="630.2207">Model</text><path d="M154,642.2266 L154,642.5068 L163.6923,641.6741 L173.3846,642.4843 L183.0769,642.7595 L192.7692,641.2754 L202.4615,642.1229 L212.1538,641.6579 L221.8462,641.7152 L231.5385,642.1357 L241.2308,641.3047 L250.9231,642.9648 L260.6154,641.3862 L270.3077,641.9629 L280,642.2266 " fill="#222222" style="stroke: #DC143C; stroke-width: 3.0;"/><path d="M154,650.2266 L154,650.5068 L163.6923,649.6741 L173.3846,650.4843 L183.0769,650.7595 L192.7692,649.2754 L202.4615,650.1229 L212.1538,649.6579 L221.8462,649.7152 L231.5385,650.1357 L241.2308,649.3047 L250.9231,650.9648 L260.6154,649.3862 L270.3077,649.9629 L280,650.2266 " fill="#222222" style="stroke: #DC143C; stroke-width: 3.0;"/><!--class ArchitectureDescription--><polygon fill="#222222" points="316,578,316,578.2102,326.25,577.5857,336.5,578.1933,346.75,578.3997,357,577.2866,367.25,577.9223,377.5,577.5735,387.75,577.6165,398,577.9318,408.25,577.3086,418.5,578.5536,428.75,577.3697,439,577.8022,449.25,578.4319,459.5,577.9142,469.75,578.0682,480,578,479.9681,578,480.1785,588.0283,480.2391,598.0566,480.5857,608.085,480.6711,618.1133,480.6793,628.1416,480.2546,638.1699,480.4636,648.1982,480,658.2266,480,658.9288,469.75,657.5054,459.5,658.9051,449.25,657.9301,439,658.7604,428.75,657.7315,418.5,658.1581,408.25,658.9682,398,658.1778,387.75,658.3319,377.5,658.5652,367.25,658.6428,357,658.2227,346.75,658.5138,336.5,657.6541,326.25,658.5109,316,658.2266,316.5482,658.2266,316.4445,648.1982,316.613,638.1699,315.5169,628.1416,315.3478,618.1133,315.3786,608.085,315.9411,598.0566,315.8035,588.0283,316,578" style="stroke: #DC143C; stroke-width: 3.0;"/><text fill="#DC143C" font-family="courier" font-size="20" font-weight="bold" lengthAdjust="spacingAndGlyphs" textLength="144" x="320" y="604.1074">Architecture</text><text fill="#DC143C" font-family="courier" font-size="20" font-weight="bold" lengthAdjust="spacingAndGlyphs" textLength="132" x="326" y="630.2207">Description</text><path d="M317,642.2266 L317,642.5068 L327.125,641.6741 L337.25,642.4843 L347.375,642.7595 L357.5,641.2754 L367.625,642.1229 L377.75,641.6579 L387.875,641.7152 L398,642.1357 L408.125,641.3047 L418.25,642.9648 L428.375,641.3862 L438.5,641.9629 L448.625,642.8025 L458.75,642.1122 L468.875,642.3175 L479,642.2266 " fill="#222222" style="stroke: #DC143C; stroke-width: 3.0;"/><path d="M317,650.2266 L317,650.5068 L327.125,649.6741 L337.25,650.4843 L347.375,650.7595 L357.5,649.2754 L367.625,650.1229 L377.75,649.6579 L387.875,649.7152 L398,650.1357 L408.125,649.3047 L418.25,650.9648 L428.375,649.3862 L438.5,649.9629 L448.625,650.8025 L458.75,650.1122 L468.875,650.3175 L479,650.2266 " fill="#222222" style="stroke: #DC143C; stroke-width: 3.0;"/><!--class Component--><polygon fill="#222222" points="515,591,515,591.2102,524.6667,590.5857,534.3333,591.1933,544,591.3997,553.6667,590.2866,563.3333,590.9223,573,590.5735,582.6667,590.6165,592.3333,590.9318,602,590.3086,611.6667,591.5536,621.3333,590.3697,631,591,630.8022,591,631.4319,601.8227,630.9142,612.6453,631.0682,623.468,630.9681,634.2906,631,645.1133,631,645.2918,621.3333,645.3524,611.6667,645.699,602,645.7843,592.3333,645.7925,582.6667,645.3679,573,645.5769,563.3333,645.8155,553.6667,644.3921,544,645.7918,534.3333,644.8168,524.6667,645.6471,515,645.1133,514.505,645.1133,514.9315,634.2906,515.7416,623.468,514.9513,612.6453,515.1053,601.8227,515,591" style="stroke: #DC143C; stroke-width: 3.0;"/><text fill="#DC143C" font-family="courier" font-size="20" font-weight="bold" lengthAdjust="spacingAndGlyphs" textLength="108" x="519" y="617.1074">Component</text><path d="M516,629.1133 L516,629.3935 L526.3636,628.5609 L536.7273,629.371 L547.0909,629.6462 L557.4545,628.1621 L567.8182,629.0097 L578.1818,628.5446 L588.5455,628.6019 L598.9091,629.0224 L609.2727,628.1915 L619.6364,629.8515 L630,629.1133 " fill="#222222" style="stroke: #DC143C; stroke-width: 3.0;"/><path d="M516,637.1133 L516,637.3935 L526.3636,636.5609 L536.7273,637.371 L547.0909,637.6462 L557.4545,636.1621 L567.8182,637.0097 L578.1818,636.5446 L588.5455,636.6019 L598.9091,637.0224 L609.2727,636.1915 L619.6364,637.8515 L630,637.1133 " fill="#222222" style="stroke: #DC143C; stroke-width: 3.0;"/><!--class Role--><polygon fill="#222222" points="717,219,717,219.2102,726.3333,218.5857,735.6667,219.1933,745,219.3997,754.3333,218.2866,763.6667,218.9223,773,219,772.5735,219,772.6165,229.8227,772.9318,240.6453,772.3086,251.468,773.5536,262.2906,773,273.1133,773,272.483,763.6667,272.9155,754.3333,273.5452,745,273.0275,735.6667,273.1815,726.3333,273.0813,717,273.1133,717.1785,273.1133,717.2391,262.2906,717.5857,251.468,717.6711,240.6453,717.6793,229.8227,717,219" style="stroke: #1E90FF; stroke-width: 3.0;"/><text fill="#1E90FF" font-family="courier" font-size="20" font-weight="bold" lengthAdjust="spacingAndGlyphs" textLength="48" x="721" y="245.1074">Role</text><path d="M718,257.1133 L718,257.3935 L728.8,256.5609 L739.6,257.371 L750.4,257.6462 L761.2,256.1621 L772,257.1133 " fill="#222222" style="stroke: #1E90FF; stroke-width: 3.0;"/><path d="M718,265.1133 L718,265.3935 L728.8,264.5609 L739.6,265.371 L750.4,265.6462 L761.2,264.1621 L772,265.1133 " fill="#222222" style="stroke: #1E90FF; stroke-width: 3.0;"/><!--class Implementation\nRole--><polygon fill="#222222" points="687,360,687,360.2102,696.7778,359.5857,706.5556,360.1933,716.3333,360.3997,726.1111,359.2866,735.8889,359.9223,745.6667,359.5735,755.4444,359.6165,765.2222,359.9318,775,359.3086,784.7778,360.5536,794.5556,359.3697,804.3333,359.8022,814.1111,360.4319,823.8889,359.9142,833.6667,360.0682,843.4444,359.9681,853.2222,360.1785,863,360,863.2391,360,863.5857,370.0283,863.6711,380.0566,863.6793,390.085,863.2546,400.1133,863.4636,410.1416,863.7022,420.1699,862.2788,430.1982,863,440.2266,863,440.9051,853.2222,439.9301,843.4444,440.7604,833.6667,439.7315,823.8889,440.1581,814.1111,440.9682,804.3333,440.1778,794.5556,440.3319,784.7778,440.5652,775,440.6428,765.2222,440.2227,755.4444,440.5138,745.6667,439.6541,735.8889,440.5109,726.1111,440.7748,716.3333,440.6711,706.5556,440.8396,696.7778,439.7435,687,440.2266,686.3478,440.2266,686.3786,430.1982,686.9411,420.1699,686.8035,410.1416,687.6814,400.1133,686.8253,390.085,686.6569,380.0566,687.2283,370.0283,687,360" style="stroke: #1E90FF; stroke-width: 3.0;"/><text fill="#1E90FF" font-family="courier" font-size="20" font-weight="bold" lengthAdjust="spacingAndGlyphs" textLength="168" x="691" y="386.1074">Implementation</text><text fill="#1E90FF" font-family="courier" font-size="20" font-weight="bold" lengthAdjust="spacingAndGlyphs" textLength="48" x="751" y="412.2207">Role</text><path d="M688,424.2266 L688,424.5068 L698.2353,423.6741 L708.4706,424.4843 L718.7059,424.7595 L728.9412,423.2754 L739.1765,424.1229 L749.4118,423.6579 L759.6471,423.7152 L769.8824,424.1357 L780.1176,423.3047 L790.3529,424.9648 L800.5882,423.3862 L810.8235,423.9629 L821.0588,424.8025 L831.2941,424.1122 L841.5294,424.3175 L851.7647,424.184 L862,424.2266 " fill="#222222" style="stroke: #1E90FF; stroke-width: 3.0;"/><path d="M688,432.2266 L688,432.5068 L698.2353,431.6741 L708.4706,432.4843 L718.7059,432.7595 L728.9412,431.2754 L739.1765,432.1229 L749.4118,431.6579 L759.6471,431.7152 L769.8824,432.1357 L780.1176,431.3047 L790.3529,432.9648 L800.5882,431.3862 L810.8235,431.9629 L821.0588,432.8025 L831.2941,432.1122 L841.5294,432.3175 L851.7647,432.184 L862,432.2266 " fill="#222222" style="stroke: #1E90FF; stroke-width: 3.0;"/><!--class Architect--><polygon fill="#222222" points="702,591,702,591.2102,711.6667,590.5857,721.3333,591.1933,731,591.3997,740.6667,590.2866,750.3333,590.9223,760,590.5735,769.6667,590.6165,779.3333,590.9318,789,590.3086,798.6667,591.5536,808.3333,590.3697,818,591,817.8022,591,818.4319,601.8227,817.9142,612.6453,818.0682,623.468,817.9681,634.2906,818,645.1133,818,645.2918,808.3333,645.3524,798.6667,645.699,789,645.7843,779.3333,645.7925,769.6667,645.3679,760,645.5769,750.3333,645.8155,740.6667,644.3921,731,645.7918,721.3333,644.8168,711.6667,645.6471,702,645.1133,701.505,645.1133,701.9315,634.2906,702.7416,623.468,701.9513,612.6453,702.1053,601.8227,702,591" style="stroke: #1E90FF; stroke-width: 3.0;"/><text fill="#1E90FF" font-family="courier" font-size="20" font-weight="bold" lengthAdjust="spacingAndGlyphs" textLength="108" x="706" y="617.1074">Architect</text><path d="M703,629.1133 L703,629.3935 L713.3636,628.5609 L723.7273,629.371 L734.0909,629.6462 L744.4545,628.1621 L754.8182,629.0097 L765.1818,628.5446 L775.5455,628.6019 L785.9091,629.0224 L796.2727,628.1915 L806.6364,629.8515 L817,629.1133 " fill="#222222" style="stroke: #1E90FF; stroke-width: 3.0;"/><path d="M703,637.1133 L703,637.3935 L713.3636,636.5609 L723.7273,637.371 L734.0909,637.6462 L744.4545,636.1621 L754.8182,637.0097 L765.1818,636.5446 L775.5455,636.6019 L785.9091,637.0224 L796.2727,636.1915 L806.6364,637.8515 L817,637.1133 " fill="#222222" style="stroke: #1E90FF; stroke-width: 3.0;"/><!--link Activity to Implementation\nActivity--><path d="M529.43,145.15 L529.5224,145.1634 L528.9618,147.0935 L528.943,149.1023 L528.7478,151.0855 L527.9722,152.9844 L528,155 L527.9657,154.9958 L527.4961,157.5268 L527.1993,160.0792 L527.0227,162.6465 L526.4321,165.1625 L526.4212,167.7503 L526.6659,167.7767 L525.8615,170.3232 L525.7714,172.9467 L525.7684,175.5797 L525.2583,178.158 L525.015,180.765 L525.0452,180.7678 L524.5419,185.7967 L524.176,190.8382 L523.7438,195.8737 L523.4382,200.9206 L522.72,205.93 " fill="none" style="stroke: #A9A9A9; stroke-width: 2.0;"/><polygon fill="none" points="522.58,143.67,522.6413,143.7039,524.5112,139.8971,526.7404,136.2892,528.8526,132.6165,530.58,128.7308,532.84,125.14,532.8145,125.1357,533.4078,129.2942,534.13,133.4746,534.9416,137.6702,535.4448,141.8135,536.38,146.03,536.4111,146.2119,533.5846,145.3509,530.8489,145.021,528.1243,144.7559,525.3352,144.1138,522.58,143.67" style="stroke: #A9A9A9; stroke-width: 2.0;"/><!--link Activity to Role--><path d="M575.01,125.1 L575.1715,125.329 L582.7798,130.3533 L591.335,136.72 L599.5819,142.6496 L606.8147,147.1415 L615.3915,153.5389 L623.2117,158.8635 L631.3329,164.6151 L639.6635,170.6634 L647.2728,175.689 L656.3178,182.7503 L663.4962,187.165 L671.9168,193.341 L680.489,199.7318 L688.1794,204.8724 L696.386,210.7449 L704.3972,216.3405 L712.51,222.08 " fill="none" style="stroke: #A9A9A9; stroke-width: 2.0;"/><polygon fill="#A9A9A9" points="716.94,225.21,717.0002,225.2459,715.8126,223.4474,714.9779,221.8592,714.0282,220.2026,712.7008,218.3207,711.8963,216.7506,711.8708,216.7462,711.9482,217.8415,712.1542,218.9589,712.4497,220.0917,712.4369,221.1714,712.856,222.3255,712.8873,222.5073,711.7053,222.3103,710.6148,222.6443,709.5355,223.0431,708.3912,223.065,707.2811,223.2851,707.2855,223.3074,709.2108,223.6596,711.1563,224.1134,713.092,224.5182,715.0464,225.0165,716.94,225.21" style="stroke: #A9A9A9; stroke-width: 2.0;"/><!--link Implementation\nActivity to Implementation\nRole--><path d="M585.67,286.14 L585.8135,286.3807 L593.9143,290.7491 L602.8563,296.5285 L611.5243,301.8485 L619.2915,305.6573 L628.2527,311.4689 L636.5417,316.153 L645.0982,321.2858 L653.8406,326.7305 L661.9422,331.1003 L671.3194,337.6098 L679.0382,341.3375 L687.8607,346.9164 L696.8178,352.7211 L705.05,357.31 " fill="none" style="stroke: #A9A9A9; stroke-width: 2.0;"/><polygon fill="#A9A9A9" points="709.55,359.99,709.6072,360.0304,708.3013,358.3011,707.3309,356.8085,706.2513,355.2389,704.8123,353.4157,703.8708,351.9435,703.8457,351.9371,704.01,353.0056,704.301,354.106,704.68,355.2287,704.7557,356.2747,705.2562,357.4281,705.3014,357.607,704.1079,357.5014,703.0463,357.9183,702.0008,358.3989,700.8616,358.5087,699.7717,358.8135,699.7744,358.8361,701.7261,359.0382,703.6901,359.3432,705.6482,359.5985,707.6177,359.9485,709.55,359.99" style="stroke: #A9A9A9; stroke-width: 2.0;"/><!--link Implementation\nActivity to ImplementArchitecture--><path d="M515.32,306.3 L515.4131,306.3074 L514.4964,314.3875 L514.1256,322.5108 L513.5771,330.62 L512.4439,338.683 L512.12,346.81 " fill="none" style="stroke: #A9A9A9; stroke-width: 2.0;"/><polygon fill="none" points="508.36,305.53,508.4241,305.5583,509.9436,301.5963,511.839,297.8,513.6119,293.9498,514.9824,289.9221,516.91,286.14,516.885,286.1334,517.8525,290.2018,518.9464,294.3034,520.128,298.4282,521.0072,302.4733,522.31,306.63,522.3245,306.814,519.5035,306.2006,516.7248,306.1243,513.9513,306.1135,511.1478,305.7215,508.36,305.53" style="stroke: #A9A9A9; stroke-width: 2.0;"/><!--link ImplementArchitecture to Design\nModel--><path d="M431.95,410.27 L431.9657,410.3621 L428.7849,410.6241 L425.6963,411.4258 L422.5776,412.0518 L419.3602,412.0998 L416.2795,412.9479 L416.2731,412.9139 L412.9156,413.3853 L409.5901,414.0279 L406.2869,414.7894 L402.9069,415.1409 L399.6345,416.0667 L399.684,416.3077 L396.0799,416.5103 L392.6203,417.4166 L389.1783,418.4087 L385.6337,418.9013 L382.1431,419.6567 L382.1498,419.6863 L378.4981,420.4612 L374.8766,421.3707 L371.2406,422.2153 L367.6324,423.1839 L363.9334,423.7483 L364.0047,424.0379 L360.2455,424.9661 L356.4405,425.7076 L352.7027,426.7224 L348.968,427.7501 L345.1335,428.3717 L345.0501,428.0622 L341.3594,429.7 L337.3943,430.3187 L333.6378,431.7122 L329.6665,432.3078 L325.8713,433.5573 L325.8627,433.5281 L322.0452,435.0291 L318.0266,435.8478 L314.1267,437.0691 L310.2368,438.3241 L306.2749,439.3354 L306.3318,439.5114 L302.3139,440.6139 L298.3932,442.0172 L294.3152,442.9338 L290.4719,444.5763 L286.4725,445.7363 L286.5523,445.9665 L284.5495,446.6116 L282.5863,447.3711 L280.4391,447.5994 L278.4268,448.2171 L276.534,449.1797 L276.4397,448.9201 L274.5367,449.8772 L272.5274,450.5418 L270.6722,451.6306 L268.5539,451.9951 L266.592,452.7902 L266.5377,452.6477 L264.6422,453.6413 L262.5147,454.0258 L260.5522,454.8434 L258.7511,456.0848 L256.6625,456.5715 L256.7344,456.7513 L254.8034,457.6659 L252.6491,458.0211 L250.7746,459.0769 L248.8391,459.98 L246.7615,460.5275 L246.6803,460.3339 L244.7737,461.3151 L242.8406,462.2329 L240.9597,463.2753 L238.8756,463.8333 L236.9051,464.6619 L236.988,464.8501 L234.8466,465.3 L232.8653,466.1131 L231.1177,467.4567 L228.9398,467.8236 L227.1091,468.9786 L227.2042,469.1838 L225.2038,469.9624 L223.1713,470.6716 L221.2114,471.5375 L219.4193,472.7657 L217.3897,473.4812 L217.3314,473.3616 L215.5796,474.6561 L213.4313,475.1373 L211.7338,476.5433 L209.7825,477.4286 L207.7628,478.1736 L207.8125,478.2705 L205.8687,479.1695 L204.103,480.4153 L202.1763,481.3478 L200.1825,482.1493 L198.2445,483.0596 L198.3012,483.1644 L196.3382,484.0253 L194.6385,485.373 L192.641,486.1701 L190.766,487.1937 L188.8507,488.143 L188.7166,487.9082 L186.9107,489.0435 L185.2664,490.4616 L183.3935,491.4795 L181.4387,492.354 L179.5975,493.4275 L179.5235,493.3049 L177.7279,494.4421 L175.8012,495.3621 L174.2347,496.879 L172.49,498.1005 L170.5008,498.9169 L170.6267,499.1141 L168.8822,500.3169 L166.8985,501.145 L165.1672,502.3685 L163.2688,503.3303 L161.5767,504.6151 L161.6475,504.7197 L159.8911,505.8881 L158.2201,507.1828 L156.2782,508.077 L154.5549,509.2942 L152.8412,510.5258 L152.9562,510.6859 L151.2821,511.9561 L149.296,512.7916 L147.6724,514.1321 L146.0552,515.4814 L144.3103,516.6529 L144.1455,516.4371 L142.7436,518.0471 L141.0558,519.2828 L139.2969,520.4256 L137.7004,521.7808 L136,523 L136.2194,523.2382 L133.5407,525.0756 L131.3647,527.4588 L128.9908,529.6271 L126.5746,531.7495 L124.1747,533.8895 L124.2226,533.9298 L122.1164,536.4188 L119.7684,538.7048 L117.7475,541.2655 L115.6299,543.745 L113.69,546.3738 L113.7134,546.3898 L111.8939,549.0649 L110.0924,551.7523 L108.098,554.3076 L106.3515,557.0327 L104.5478,559.7186 L104.5016,559.6918 L103.2101,562.5413 L101.5928,565.2021 L99.6824,567.6933 L98.2815,570.4795 L96.75,573.19 " fill="none" style="stroke: #A9A9A9; stroke-width: 2.0;"/><polygon fill="#A9A9A9" points="94.41,577.66,94.4536,577.7149,95.8668,576.3271,97.5355,575.2609,99.1209,574.09,100.4329,572.5746,102.1235,571.5361,102.1157,571.5114,101.0014,571.7389,99.9261,572.0911,98.8781,572.5299,97.7364,572.6702,96.7258,573.2286,96.9019,573.2838,96.1868,572.0862,95.9859,571.0498,95.8476,570.0331,95.3445,568.9019,95.0333,567.8309,95.056,567.8323,94.898,569.796,94.8433,571.7663,94.7389,573.7334,94.7295,575.7065,94.41,577.66" style="stroke: #A9A9A9; stroke-width: 2.0;"/><text fill="#A9A9A9" font-family="courier" font-size="20" lengthAdjust="spacingAndGlyphs" textLength="24" x="190" y="507.1074">in</text><!--link ImplementArchitecture to Deployment\nModel--><path d="M431.61,437.84 L431.6542,437.9223 L428.3396,439.3873 L425.2841,441.3348 L422.1443,443.1252 L418.7269,444.399 L415.6937,446.3879 L415.6769,446.3577 L412.2878,448.0726 L408.9837,449.9396 L405.7386,451.9122 L402.2901,453.5207 L399.1264,455.6392 L399.2503,455.8518 L395.5879,457.3777 L392.2873,459.5244 L389.0309,461.7467 L385.5176,463.5284 L382.1394,465.5419 L382.1552,465.5678 L378.6968,467.6302 L375.3105,469.8103 L371.8894,471.9337 L368.5347,474.1655 L364.9638,476.0438 L365.1254,476.2944 L361.7008,478.5072 L358.1719,480.5584 L354.7956,482.8462 L351.4265,485.1452 L347.8308,487.0926 L347.6517,486.8268 L346.3037,488.4854 L344.3659,489.2687 L342.8764,490.7174 L340.9253,491.4808 L339.3526,492.8059 L339.3352,492.7809 L337.8646,494.2426 L335.9879,495.1203 L334.3508,496.3426 L332.7338,497.5939 L330.9717,498.6364 L331.0798,498.7866 L329.3198,499.8232 L327.7445,501.1165 L325.8703,501.9946 L324.4419,503.4919 L322.7171,504.5776 L322.8629,504.7728 L321.2154,505.945 L319.6403,507.2141 L317.7291,508.0327 L316.0642,509.1816 L314.6177,510.6229 L314.4462,510.4065 L311.4779,513.0778 L308.3164,515.5053 L305.4352,518.2865 L302.0753,520.4637 L299,523 L298.8988,522.886 L296.4217,525.4241 L293.5119,527.4748 L290.9099,529.8722 L288.6088,532.6087 L285.7717,534.7413 L285.9084,534.8784 L283.45,537.5143 L280.5666,539.7234 L278.2155,542.467 L275.7485,545.0942 L273.0113,547.45 L272.8566,547.308 L270.5707,550.0439 L268.234,552.7334 L265.9969,555.5142 L263.373,557.9397 L260.9652,560.5638 L261.1214,560.6974 L258.5611,562.995 L256.3024,565.5506 L254.4841,568.483 L251.8549,570.7216 L249.88,573.52 " fill="none" style="stroke: #A9A9A9; stroke-width: 2.0;"/><polygon fill="#A9A9A9" points="246.38,577.78,246.4114,577.8427,248.0797,576.7749,249.9318,576.0744,251.7241,575.2544,253.3195,574.041,255.1874,573.372,255.1849,573.3463,254.0476,573.34,252.9229,573.4636,251.807,573.6777,250.6608,573.5803,249.557,573.9191,249.7407,573.937,249.2385,572.7727,249.2726,571.6606,249.3721,570.5548,249.0909,569.4121,249.01,568.2888,249.0319,568.2949,248.4737,570.1842,248.0153,572.1012,247.5088,574.0048,247.0941,575.9339,246.38,577.78" style="stroke: #A9A9A9; stroke-width: 2.0;"/><text fill="#A9A9A9" font-family="courier" font-size="20" lengthAdjust="spacingAndGlyphs" textLength="24" x="348" y="507.1074">in</text><!--link ImplementArchitecture to ArchitectureDescription--><path d="M434.34,453.43 L434.411,453.4907 L431.6239,456.3203 L429.2528,459.5059 L426.7462,462.5755 L423.7941,465.2638 L421.4588,468.48 L421.4296,468.4615 L419.2068,471.6826 L417.1312,474.9968 L415.1579,478.3758 L412.8321,481.5316 L411,485 L411.224,485.1018 L409.8018,486.9587 L409.0336,489.113 L408.3451,491.3035 L407.1924,493.2829 L406.2839,495.3734 L406.3126,495.3834 L405.5128,497.5442 L404.8433,499.7504 L404.111,501.9348 L403.4987,504.1609 L402.4952,506.2508 L402.7836,506.3266 L402.1974,508.57 L401.4252,510.7645 L400.9253,513.0306 L400.4382,515.3 L399.5466,517.4631 L399.2319,517.4024 L399.4036,519.7959 L398.5391,521.9894 L398.4624,524.3349 L397.5743,526.5239 L397.3513,528.8413 L397.3211,528.8372 L397.3721,531.1601 L396.7181,533.3883 L396.4801,535.6724 L396.277,537.9612 L395.822,540.2161 L396.0063,540.2317 L395.6302,542.4565 L395.5691,544.7079 L394.9983,546.9161 L395.1877,549.1888 L394.8717,551.4186 L395.1151,551.4289 L394.9775,553.5991 L394.9606,555.7745 L394.3822,557.9261 L394.2155,560.0952 L394.4134,562.2796 L394.1372,562.2782 L394.3766,564.3495 L394.3047,566.4193 L394.6842,568.4914 L394.2931,570.5595 L394.36,572.63 " fill="none" style="stroke: #A9A9A9; stroke-width: 2.0;"/><polygon fill="#A9A9A9" points="394.46,577.89,394.5246,577.9172,395.0965,576.0208,396.0471,574.2837,396.8743,572.4948,397.2962,570.5352,398.2792,568.8118,398.2606,568.7939,397.3929,569.5292,396.6194,570.3549,395.9113,571.2436,394.9777,571.9155,394.36,572.891,394.4879,573.0241,393.3986,571.9557,392.6827,571.2758,392.0123,570.6433,391.0769,569.735,390.2808,568.9718,390.3014,568.9814,391.107,570.7509,392.0064,572.5643,392.8605,574.3565,393.8009,576.1892,394.46,577.89" style="stroke: #A9A9A9; stroke-width: 2.0;"/><text fill="#A9A9A9" font-family="courier" font-size="20" lengthAdjust="spacingAndGlyphs" textLength="24" x="413" y="507.1074">in</text><!--link ImplementArchitecture to ArchitectureDescription--><path d="M481.51,453.01 L481.7597,453.1372 L476.6399,461.3557 L472.9839,470.3198 L468.8513,479.0411 L463.151,486.9641 L459.5284,495.9451 L454.7361,504.3305 L450.4094,512.953 L446.4062,521.7402 L441.2878,529.9595 L438.3892,539.3093 L432.6047,547.1893 L428.7407,556.0475 L425.1111,565.0249 L420.22,573.36 " fill="none" style="stroke: #A9A9A9; stroke-width: 2.0;"/><polygon fill="#A9A9A9" points="417.88,577.96,417.9241,578.0144,419.3231,576.6122,420.9807,575.529,422.5541,574.342,423.8505,572.8132,425.5304,571.7574,425.5224,571.7328,424.4104,571.9718,423.3388,572.3349,422.2953,572.7845,421.1551,572.9364,420.1503,573.5051,420.3258,573.5621,419.6009,572.3642,419.3885,571.3327,419.2386,570.3215,418.7249,569.1922,418.4026,568.125,418.4253,568.1262,418.2874,570.0914,418.253,572.0622,418.1686,574.0302,418.1795,576.0034,417.88,577.96" style="stroke: #A9A9A9; stroke-width: 2.0;"/><text fill="#A9A9A9" font-family="courier" font-size="20" lengthAdjust="spacingAndGlyphs" textLength="36" x="464" y="507.1074">out</text><!--link ImplementArchitecture to Component--><path d="M523.65,453.01 L523.9184,453.0908 L525.9803,462.3508 L529.6154,472.0843 L532.7382,481.6636 L534.1763,490.7359 L537.8472,500.4801 L540.2612,509.8461 L543.1754,519.3626 L546.4373,528.9838 L548.5009,538.2443 L552.9497,548.2228 L554.2974,557.2678 L557.7089,566.934 L561.3722,576.676 L563.68,586.01 " fill="none" style="stroke: #A9A9A9; stroke-width: 2.0;"/><polygon fill="#A9A9A9" points="565.17,590.97,565.2395,590.979,565.2847,588.9987,565.7373,587.071,566.0573,585.1262,565.941,583.1251,566.4286,581.2019,566.4058,581.1896,565.7657,582.1297,565.2406,583.1319,564.7953,584.1773,564.0748,585.074,563.7398,586.1789,563.8275,586.3413,562.6446,585.4563,561.7177,585.0454,560.822,584.6923,559.7446,584.0028,558.7628,583.4902,558.7801,583.505,560.0362,584.9792,561.3709,586.5208,562.6677,588.0299,564.0368,589.601,565.17,590.97" style="stroke: #A9A9A9; stroke-width: 2.0;"/><text fill="#A9A9A9" font-family="courier" font-size="20" lengthAdjust="spacingAndGlyphs" textLength="36" x="542" y="507.1074">out</text><!--link ImplementArchitecture to Architect--><path d="M568.68,453.01 L568.8624,453.2228 L575.8033,459.0044 L583.8134,466.0333 L591.4754,472.656 L597.9924,477.943 L606.0269,485.0004 L613.2071,491.0611 L620.7272,497.5184 L628.4837,504.2515 L635.4258,510.0344 L643.989,517.7086 L650.4445,522.9238 L658.3027,529.7755 L666.332,536.8268 L673.3656,542.7165 L680.9821,549.2862 L688.378,555.5986 L696.0435,562.2255 L703.5789,568.7007 L711.3625,575.4653 L718.9194,581.9655 L725.82,587.7 " fill="none" style="stroke: #A9A9A9; stroke-width: 2.0;"/><polygon fill="#A9A9A9" points="729.63,590.97,729.6933,591.0001,728.6593,589.1319,727.9961,587.44,727.2122,585.6907,726.0311,583.7525,725.3999,582.0759,725.374,582.0739,725.3449,583.193,725.4459,584.3221,725.6375,585.4582,725.5172,586.5703,725.8337,587.716,725.8479,587.9,724.6896,587.5933,723.5726,587.8239,722.4606,588.1199,721.3194,588.0346,720.1935,588.1499,720.2,588.1717,722.0778,588.7037,723.9852,589.335,725.8782,589.9183,727.7986,590.593,729.63,590.97" style="stroke: #A9A9A9; stroke-width: 2.0;"/><!--link Role to Implementation\nRole--><path d="M754.06,292.9 L754.3349,292.9543 L755.4052,302.353 L758.0871,312.0699 L760.2442,321.6832 L760.6754,330.9558 L763.3941,340.6799 L764.825,350.1499 L767.27,359.82 " fill="none" style="stroke: #A9A9A9; stroke-width: 2.0;"/><polygon fill="none" points="747.16,294.11,747.2294,294.1199,747.6233,289.8945,748.4238,285.7271,749.0919,281.5409,749.3246,277.2923,750.16,273.13,750.1377,273.1169,752.1854,276.712,754.3458,280.3732,756.5844,284.0805,758.5533,287.6292,760.9,291.4,760.9357,291.5811,758.1113,291.7359,755.3912,292.4193,752.6839,293.1673,749.9025,293.5399,747.16,294.11" style="stroke: #A9A9A9; stroke-width: 2.0;"/><!--link Implementation\nRole to Architect--><path d="M770.89,460.19 L771.1696,460.2094 L769.6412,470.1948 L769.7517,480.294 L769.3285,490.3562 L767.1503,500.2964 L767.2982,510.3982 L766.1366,520.4091 L765.4961,530.4561 L765.2178,540.5283 L763.6912,550.5138 L764.6495,560.6719 L762.377,570.6056 L762.2546,580.6886 L761.82,590.75 " fill="none" style="stroke: #A9A9A9; stroke-width: 2.0;"/><polygon fill="none" points="763.91,459.58,763.9744,459.6077,765.4571,455.6334,767.3172,451.8215,769.0544,447.9566,770.3876,443.918,772.28,440.12,772.255,440.1132,773.2629,444.1684,774.3967,448.2582,775.6181,452.372,776.5377,456.4031,777.88,460.55,777.8928,460.7341,775.0714,460.1464,772.2874,460.0962,769.508,460.1116,766.702,459.7455,763.91,459.58" style="stroke: #A9A9A9; stroke-width: 2.0;"/><!--
@startuml

skinparam backgroundColor #222222

skinparam default {
    FontSize 20
    FontName courier
    FontStyle normal
    FontColor #DarkGrey
}
skinparam handwritten true

skinparam shadowing false
skinparam padding 1
skinparam arrow {
    Thickness 2
    Color #DarkGrey
    FontSize 20
    FontName courier
    FontStyle normal
    FontColor #DarkGrey
}

skinparam package {
    BorderThickness 3
    BorderColor #DarkGrey
    BackgroundColor #222222
    FontSize 20
    FontName courier
    FontStyle bold
}

skinparam class {
    BorderThickness 3
    BorderColor #DarkGrey
    BackgroundColor #222222
    FontSize 20
    FontName courier
    FontStyle bold
    FontColor #DarkGrey
}

skinparam classAttribute {
    FontSize 15
    FontName courier
    FontStyle normal
    FontColor #DarkGrey
}

hide circle
hide stereotype

skinparam class {
    BorderColor<<artifacts>> #DC143C
    BorderColor<<activities>> #228B22
    BorderColor<<team>> #1E90FF
    FontColor<<artifacts>> #DC143C
    FontColor<<activities>> #228B22
    FontColor<<team>> #1E90FF
}

skinparam package {
    BorderColor<<artifacts>> #DC143C
    BorderColor<<activities>> #228B22
    BorderColor<<team>> #1E90FF
    FontColor<<artifacts>> #DC143C
    FontColor<<activities>> #228B22
    FontColor<<team>> #1E90FF
}

skinparam classAttribute {
    FontColor<<artifacts>> #DC143C
    FontColor<<activities>> #228B22
    FontColor<<team>> #1E90FF
}


package Activities <<activities>> {
    class Activity <<activities>>
    class Implementation\nActivity <<activities>>
    class "Implement \nthe \nArchitecture" as ImplementArchitecture <<activities>>
}

package Artifacts <<artifacts>> {
    class Design\nModel <<artifacts>>
    class Deployment\nModel <<artifacts>>
    class "Architecture \nDescription " as ArchitectureDescription  <<artifacts>>
    class "Component" as Component <<artifacts>>
}

package Team <<team>> {
    class Role <<team>>
    class Implementation\nRole <<team>>
    class Architect <<team>>
}

Activity <|- - Implementation\nActivity
Activity - -> Role
Implementation\nActivity - -> Implementation\nRole
Implementation\nActivity <|- - ImplementArchitecture
ImplementArchitecture - -> Design\nModel :in
ImplementArchitecture - -> Deployment\nModel :in
ImplementArchitecture - -> ArchitectureDescription :in
ImplementArchitecture - -> Component :out
ImplementArchitecture - -> ArchitectureDescription :out
ImplementArchitecture - -> Architect
Role <|- - Implementation\nRole
Implementation\nRole  <|- - Architect
@enduml

PlantUML version 1.2019.05(Sat Apr 20 18:45:36 CEST 2019)
(GPL source distribution)
Java Runtime: Java(TM) SE Runtime Environment
JVM: Java HotSpot(TM) 64-Bit Server VM
Java Version: 11.0.14+8-LTS-263
Operating System: Windows 10
OS Version: 10.0
Default Encoding: windows-1252
Language: es
Country: ES
--></g></svg>