<?xml version="1.0" encoding="UTF-8" standalone="no"?><svg xmlns="http://www.w3.org/2000/svg" xmlns:xlink="http://www.w3.org/1999/xlink" contentScriptType="application/ecmascript" contentStyleType="text/css" height="686px" preserveAspectRatio="none" style="width:1220px;height:686px;background:#222222;" version="1.1" viewBox="0 0 1220 686" width="1220px" zoomAndPan="magnify"><defs/><g><!--cluster Activities--><polygon fill="#222222" points="651,24,651,24.2102,660.8462,23.5857,670.6923,24.1933,680.5385,24.3997,690.3846,23.2866,700.2308,23.9223,710.0769,23.5735,719.9231,23.6165,729.7692,23.9318,739.6154,23.3086,749.4615,24.5536,759.3077,23.3697,769.1538,23.8022,779,24,779.141,24.0289,780.372,30.8169,781.8223,37.6499,783.1896,44.4658,784.6583,51.3026,786,58.1133,786,58.3524,796.4286,58.699,806.8571,58.7843,817.2857,58.7925,827.7143,58.3679,838.1429,58.5769,848.5714,58.8155,859,58.1133,858.2788,58.1133,859.6785,68.2419,858.7035,78.3705,859.5338,88.4991,858.505,98.6277,858.9315,108.7563,859.7416,118.8849,858.9513,129.0135,859.1053,139.1421,859.3386,149.2707,859.4162,159.3993,858.9961,169.5279,859.2872,179.6565,858.4276,189.7851,859.2844,199.9137,859.5482,210.0422,859.4445,220.1708,859.613,230.2994,858.5169,240.428,858.3478,250.5566,858.3786,260.6852,858.9411,270.8138,858.8035,280.9424,859.6814,291.071,858.8253,301.1996,858.6569,311.3282,859.2283,321.4568,858.3332,331.5854,858.4809,341.714,859.649,351.8426,859.4357,361.9712,859.7345,372.0998,858.6782,382.2284,859.3192,392.357,859.5904,402.4856,858.5276,412.6142,858.9041,422.7428,859.126,432.8714,859,443,859,443.6518,849.0952,442.9958,839.1905,443.4626,829.2857,442.4462,819.381,442.3227,809.4762,443.5036,799.5714,442.2831,789.6667,443.509,779.7619,443.2066,769.8571,442.7321,759.9524,442.6462,750.0476,443.4588,740.1429,442.7007,730.2381,443.5919,720.3333,442.4473,710.4286,443.6174,700.5238,443.4843,690.619,443.245,680.7143,443.0472,670.8095,443.7266,660.9048,443.6136,651,443,651.1693,443,651.2682,433.0238,650.8697,423.0476,651.7165,413.0714,651.1549,403.0952,651.1726,393.119,650.3916,383.1429,650.5948,373.1667,651.5307,363.1905,651.4298,353.2143,650.9571,343.2381,650.6778,333.2619,650.7811,323.2857,650.3138,313.3095,651.4147,303.3333,651.7396,293.3571,651.5264,283.381,651.6949,273.4048,650.8633,263.4286,651.0872,253.4524,650.6124,243.4762,651.284,233.5,651.2468,223.5238,651.5524,213.5476,650.7703,203.5714,650.8656,193.5952,651.4435,183.619,651.5673,173.6429,650.4875,163.6667,650.8061,153.6905,651.1493,143.7143,650.3892,133.7381,651.3534,123.7619,651.258,113.7857,650.8992,103.8095,651.1422,93.8333,651.7287,83.8571,650.6871,73.881,651.315,63.9048,651.2856,53.9286,651.1158,43.9524,651.1409,33.9762,651,24" style="stroke: #228B22; stroke-width: 3.0;"/><path d="M651,58.1133 L651,58.3935 L660.6429,57.5609 L670.2857,58.371 L679.9286,58.6462 L689.5714,57.1621 L699.2143,58.0097 L708.8571,57.5446 L718.5,57.6019 L728.1429,58.0224 L737.7857,57.1915 L747.4286,58.8515 L757.0714,57.2729 L766.7143,57.8496 L776.3571,58.6892 L786,58.1133 " fill="#222222" style="stroke: #228B22; stroke-width: 3.0;"/><text fill="#228B22" font-family="courier" font-size="20" font-weight="bold" lengthAdjust="spacingAndGlyphs" textLength="120" x="656" y="47.1074">Activities</text><!--cluster Artifacts--><polygon fill="#222222" points="22,505,22,505.2102,31.6667,504.5857,41.3333,505.1933,51,505.3997,60.6667,504.2866,70.3333,504.9223,80,504.5735,89.6667,504.6165,99.3333,504.9318,109,504.3086,118.6667,505.5536,128.3333,504.3697,138,505,137.9354,504.9867,139.541,511.8516,140.772,518.6396,142.2223,525.4725,143.5896,532.2885,145,539.1133,145,539.2918,155.0122,539.3524,165.0244,539.699,175.0366,539.7843,185.0488,539.7925,195.061,539.3679,205.0732,539.5769,215.0854,539.8155,225.0976,538.3921,235.1098,539.7918,245.122,538.8168,255.1341,539.6471,265.1463,538.6183,275.1585,539.0448,285.1707,539.8549,295.1829,539.0645,305.1951,539.2186,315.2073,539.4519,325.2195,539.5295,335.2317,539.1094,345.2439,539.4005,355.2561,538.5409,365.2683,539.3977,375.2805,539.6615,385.2927,539.5578,395.3049,539.7263,405.3171,538.6302,415.3293,538.4611,425.3415,538.4919,435.3537,539.0544,445.3659,538.9168,455.378,539.7947,465.3902,538.9386,475.4024,538.7702,485.4146,539.3415,495.4268,538.4464,505.439,538.5942,515.4512,539.7622,525.4634,539.5489,535.4756,539.8478,545.4878,538.7915,555.5,539.4325,565.5122,539.7037,575.5244,538.6409,585.5366,539.0174,595.5488,539.2393,605.561,539.765,615.5732,539.1091,625.5854,539.5758,635.5976,538.5595,645.6098,538.436,655.622,539.6169,665.6341,538.3963,675.6463,539.6222,685.6585,539.3199,695.6707,538.8454,705.6829,538.7595,715.6951,539.572,725.7073,538.8139,735.7195,539.7051,745.7317,538.5605,755.7439,539.7307,765.7561,539.5976,775.7683,539.3582,785.7805,539.1605,795.7927,539.8399,805.8049,539.7269,815.8171,539.2825,825.8293,539.3815,835.8415,538.983,845.8537,539.8297,855.8659,539.2681,865.878,539.2859,875.8902,538.5049,885.9024,538.7081,895.9146,539.644,905.9268,539.543,915.939,539.0703,925.9512,538.7911,935.9634,538.8944,945.9756,538.4271,955.9878,539.528,966,539.1133,966.7396,539.1133,966.5264,549.4892,966.6949,559.8651,965.8633,570.241,966.0872,580.6169,965.6124,590.9928,966.284,601.3687,966.2468,611.7446,966.5524,622.1205,965.7703,632.4964,965.8656,642.8723,966.4435,653.2482,966.5673,663.6241,966,674,966,673.4875,955.9574,673.8061,945.9149,674.1493,935.8723,673.3892,925.8298,674.3534,915.7872,674.258,905.7447,673.8992,895.7021,674.1422,885.6596,674.7287,875.617,673.6871,865.5745,674.315,855.5319,674.2856,845.4894,674.1158,835.4468,674.1409,825.4043,674.1135,815.3617,673.3758,805.3191,673.5992,795.2766,673.5385,785.234,674.0638,775.1915,674.0881,765.1489,674.1617,755.1064,673.709,745.0638,673.9325,735.0213,673.8798,724.9787,674.5769,714.9362,674.4266,704.8936,673.5145,694.8511,673.9271,684.8085,673.4228,674.766,674.2884,664.7234,674.6085,654.6809,674.5446,644.6383,673.5644,634.5957,674.464,624.5532,673.2572,614.5106,674.2002,604.4681,673.7007,594.4255,674.0967,584.383,674.2403,574.3404,674.4721,564.2979,673.2801,554.2553,674.4755,544.2128,674.1782,534.1702,674.3553,524.1277,674.7478,514.0851,674.0055,504.0426,674.1753,494,674.2134,483.9574,674.1972,473.9149,673.9992,463.8723,674.7107,453.8298,673.3903,443.7872,674.5653,433.7447,673.376,423.7021,673.4597,413.6596,674.04,403.617,674.0283,393.5745,673.5072,383.5319,674.4137,373.4894,674.1089,363.4468,674.7267,353.4043,674.6671,343.3617,673.5517,333.3191,673.6021,323.2766,673.8708,313.234,674.3555,303.1915,674.403,293.1489,674.3012,283.1064,673.658,273.0638,674.6364,263.0213,674.6338,252.9787,673.9527,242.9362,673.7609,232.8936,673.5986,222.8511,673.7854,212.8085,674.1374,202.766,673.9316,192.7234,673.5822,182.6809,674.4874,172.6383,673.5411,162.5957,674.5024,152.5532,674.4272,142.5106,674.3719,132.4681,674.6925,122.4255,673.7541,112.383,673.6994,102.3404,674.5189,92.2979,673.4031,82.2553,673.766,72.2128,674.1155,62.1702,674.0687,52.1277,673.6415,42.0851,673.957,32.0426,674.7446,22,674,22.6485,674,21.4037,664.0588,22.0785,654.1176,21.4861,644.1765,21.9737,634.2353,22.293,624.2941,22.4199,614.3529,21.3353,604.4118,22.4005,594.4706,22.0084,584.5294,21.4447,574.5882,21.5289,564.6471,22.3266,554.7059,22.2499,544.7647,21.9836,534.8235,21.3279,524.8824,22.6581,514.9412,22,505" style="stroke: #DC143C; stroke-width: 3.0;"/><path d="M22,539.1133 L22,539.3935 L32.25,538.5609 L42.5,539.371 L52.75,539.6462 L63,538.1621 L73.25,539.0097 L83.5,538.5446 L93.75,538.6019 L104,539.0224 L114.25,538.1915 L124.5,539.8515 L134.75,538.2729 L145,539.1133 " fill="#222222" style="stroke: #DC143C; stroke-width: 3.0;"/><text fill="#DC143C" font-family="courier" font-size="20" font-weight="bold" lengthAdjust="spacingAndGlyphs" textLength="108" x="27" y="528.1074">Artifacts</text><!--cluster Team--><polygon fill="#222222" points="990,172,990,172.2102,999.3333,171.5857,1008.6667,172.1933,1018,172.3997,1027.3333,171.2866,1036.6667,171.9223,1046,172,1045.8607,171.9714,1047.2748,178.797,1048.7777,185.6407,1049.9742,192.4216,1051.7808,199.3277,1053,206.1133,1053,205.483,1062.6667,205.9155,1072.3333,206.5452,1082,206.0275,1091.6667,206.1815,1101.3333,206.0813,1111,206.2918,1120.6667,206.3524,1130.3333,206.699,1140,206.7843,1149.6667,206.7925,1159.3333,206.3679,1169,206.5769,1178.6667,206.8155,1188.3333,205.3921,1198,206.1133,1198.6785,206.1133,1197.7035,216.0683,1198.5338,226.0234,1197.505,235.9784,1197.9315,245.9334,1198.7416,255.8885,1197.9513,265.8435,1198.1053,275.7985,1198.3386,285.7536,1198.4162,295.7086,1197.9961,305.6636,1198.2872,315.6187,1197.4276,325.5737,1198.2844,335.5288,1198.5482,345.4838,1198.4445,355.4388,1198.613,365.3939,1197.5169,375.3489,1197.3478,385.3039,1197.3786,395.259,1197.9411,405.214,1197.8035,415.169,1198.6814,425.1241,1197.8253,435.0791,1197.6569,445.0342,1198.2283,454.9892,1197.3332,464.9442,1197.4809,474.8993,1198.649,484.8543,1198.4357,494.8093,1198.7345,504.7644,1197.6782,514.7194,1198.3192,524.6745,1198.5904,534.6295,1197.5276,544.5845,1197.9041,554.5396,1198.126,564.4946,1198.6518,574.4496,1197.9958,584.4047,1198.4626,594.3597,1197.4462,604.3147,1197.3227,614.2698,1198.5036,624.2248,1197.2831,634.1799,1198.509,644.1349,1198.2066,654.0899,1197.7321,664.045,1198,674,1198,673.6462,1188.0952,674.4588,1178.1905,673.7007,1168.2857,674.5919,1158.381,673.4473,1148.4762,674.6174,1138.5714,674.4843,1128.6667,674.245,1118.7619,674.0472,1108.8571,674.7266,1098.9524,674.6136,1089.0476,674.1693,1079.1429,674.2682,1069.2381,673.8697,1059.3333,674.7165,1049.4286,674.1549,1039.5238,674.1726,1029.619,673.3916,1019.7143,673.5948,1009.8095,674.5307,999.9048,674.4298,990,674,989.9571,674,989.6778,663.96,989.7811,653.92,989.3138,643.88,990.4147,633.84,990.7396,623.8,990.5264,613.76,990.6949,603.72,989.8633,593.68,990.0872,583.64,989.6124,573.6,990.284,563.56,990.2468,553.52,990.5524,543.48,989.7703,533.44,989.8656,523.4,990.4435,513.36,990.5673,503.32,989.4875,493.28,989.8061,483.24,990.1493,473.2,989.3892,463.16,990.3534,453.12,990.258,443.08,989.8992,433.04,990.1422,423,990.7287,412.96,989.6871,402.92,990.315,392.88,990.2856,382.84,990.1158,372.8,990.1409,362.76,990.1135,352.72,989.3758,342.68,989.5992,332.64,989.5385,322.6,990.0638,312.56,990.0881,302.52,990.1617,292.48,989.709,282.44,989.9325,272.4,989.8798,262.36,990.5769,252.32,990.4266,242.28,989.5145,232.24,989.9271,222.2,989.4228,212.16,990.2884,202.12,990.6085,192.08,990.5446,182.04,990,172" style="stroke: #1E90FF; stroke-width: 3.0;"/><path d="M990,206.1133 L990,206.3935 L1000.5,205.5609 L1011,206.371 L1021.5,206.6462 L1032,205.1621 L1042.5,206.0097 L1053,206.1133 " fill="#222222" style="stroke: #1E90FF; stroke-width: 3.0;"/><text fill="#1E90FF" font-family="courier" font-size="20" font-weight="bold" lengthAdjust="spacingAndGlyphs" textLength="48" x="995" y="195.1074">Team</text><!--class Activity--><polygon fill="#222222" points="728,71,728,71.2102,738.4,70.5857,748.8,71.1933,759.2,71.3997,769.6,70.2866,780,70.9223,790.4,70.5735,800.8,70.6165,811.2,70.9318,821.6,70.3086,832,71,832.5536,71,831.3697,81.8227,831.8022,92.6453,832.4319,103.468,831.9142,114.2906,832,125.1133,832,125.1815,821.6,125.0813,811.2,125.2918,800.8,125.3524,790.4,125.699,780,125.7843,769.6,125.7925,759.2,125.3679,748.8,125.5769,738.4,125.8155,728,125.1133,727.2788,125.1133,728.6785,114.2906,727.7035,103.468,728.5338,92.6453,727.505,81.8227,728,71" style="stroke: #228B22; stroke-width: 3.0;"/><text fill="#228B22" font-family="courier" font-size="20" font-weight="bold" lengthAdjust="spacingAndGlyphs" textLength="96" x="732" y="97.1074">Activity</text><path d="M729,109.1133 L729,109.3935 L739.2,108.5609 L749.4,109.371 L759.6,109.6462 L769.8,108.1621 L780,109.0097 L790.2,108.5446 L800.4,108.6019 L810.6,109.0224 L820.8,108.1915 L831,109.1133 " fill="#222222" style="stroke: #228B22; stroke-width: 3.0;"/><path d="M729,117.1133 L729,117.3935 L739.2,116.5609 L749.4,117.371 L759.6,117.6462 L769.8,116.1621 L780,117.0097 L790.2,116.5446 L800.4,116.6019 L810.6,117.0224 L820.8,116.1915 L831,117.1133 " fill="#222222" style="stroke: #228B22; stroke-width: 3.0;"/><!--class Implementation\nActivity--><polygon fill="#222222" points="667,206,667,206.2102,676.7778,205.5857,686.5556,206.1933,696.3333,206.3997,706.1111,205.2866,715.8889,205.9223,725.6667,205.5735,735.4444,205.6165,745.2222,205.9318,755,205.3086,764.7778,206.5536,774.5556,205.3697,784.3333,205.8022,794.1111,206.4319,803.8889,205.9142,813.6667,206.0682,823.4444,205.9681,833.2222,206.1785,843,206,843.2391,206,843.5857,216.0283,843.6711,226.0566,843.6793,236.085,843.2546,246.1133,843.4636,256.1416,843.7022,266.1699,842.2788,276.1982,843,286.2266,843,286.9051,833.2222,285.9301,823.4444,286.7604,813.6667,285.7315,803.8889,286.1581,794.1111,286.9682,784.3333,286.1778,774.5556,286.3319,764.7778,286.5652,755,286.6428,745.2222,286.2227,735.4444,286.5138,725.6667,285.6541,715.8889,286.5109,706.1111,286.7748,696.3333,286.6711,686.5556,286.8396,676.7778,285.7435,667,286.2266,666.3478,286.2266,666.3786,276.1982,666.9411,266.1699,666.8035,256.1416,667.6814,246.1133,666.8253,236.085,666.6569,226.0566,667.2283,216.0283,667,206" style="stroke: #228B22; stroke-width: 3.0;"/><text fill="#228B22" font-family="courier" font-size="20" font-weight="bold" lengthAdjust="spacingAndGlyphs" textLength="168" x="671" y="232.1074">Implementation</text><text fill="#228B22" font-family="courier" font-size="20" font-weight="bold" lengthAdjust="spacingAndGlyphs" textLength="96" x="707" y="258.2207">Activity</text><path d="M668,270.2266 L668,270.5068 L678.2353,269.6741 L688.4706,270.4843 L698.7059,270.7595 L708.9412,269.2754 L719.1765,270.1229 L729.4118,269.6579 L739.6471,269.7152 L749.8824,270.1357 L760.1176,269.3047 L770.3529,270.9648 L780.5882,269.3862 L790.8235,269.9629 L801.0588,270.8025 L811.2941,270.1122 L821.5294,270.3175 L831.7647,270.184 L842,270.2266 " fill="#222222" style="stroke: #228B22; stroke-width: 3.0;"/><path d="M668,278.2266 L668,278.5068 L678.2353,277.6741 L688.4706,278.4843 L698.7059,278.7595 L708.9412,277.2754 L719.1765,278.1229 L729.4118,277.6579 L739.6471,277.7152 L749.8824,278.1357 L760.1176,277.3047 L770.3529,278.9648 L780.5882,277.3862 L790.8235,277.9629 L801.0588,278.8025 L811.2941,278.1122 L821.5294,278.3175 L831.7647,278.184 L842,278.2266 " fill="#222222" style="stroke: #228B22; stroke-width: 3.0;"/><!--class ImplementSubsystems--><polygon fill="#222222" points="667,347,667,347.2102,676.8462,346.5857,686.6923,347.1933,696.5385,347.3997,706.3846,346.2866,716.2308,346.9223,726.0769,346.5735,735.9231,346.6165,745.7692,346.9318,755.6154,346.3086,765.4615,347.5536,775.3077,346.3697,785.1538,346.8022,795,347,795.4319,347,794.9142,357.0283,795.0682,367.0566,794.9681,377.085,795.1785,387.1133,795.2391,397.1416,795.5857,407.1699,795.6711,417.1982,795,427.2266,795,427.9058,785.1538,427.4812,775.3077,427.6901,765.4615,427.9288,755.6154,426.5054,745.7692,427.9051,735.9231,426.9301,726.0769,427.7604,716.2308,426.7315,706.3846,427.1581,696.5385,427.9682,686.6923,427.1778,676.8462,427.3319,667,427.2266,667.3386,427.2266,667.4162,417.1982,666.9961,407.1699,667.2872,397.1416,666.4276,387.1133,667.2844,377.085,667.5482,367.0566,667.4445,357.0283,667,347" style="stroke: #228B22; stroke-width: 3.0;"/><text fill="#228B22" font-family="courier" font-size="20" font-weight="bold" lengthAdjust="spacingAndGlyphs" textLength="108" x="671" y="373.1074">Implement</text><text fill="#228B22" font-family="courier" font-size="20" font-weight="bold" lengthAdjust="spacingAndGlyphs" textLength="120" x="671" y="399.2207">Subsystems</text><path d="M668,411.2266 L668,411.5068 L677.6923,410.6741 L687.3846,411.4843 L697.0769,411.7595 L706.7692,410.2754 L716.4615,411.1229 L726.1538,410.6579 L735.8462,410.7152 L745.5385,411.1357 L755.2308,410.3047 L764.9231,411.9648 L774.6154,410.3862 L784.3077,410.9629 L794,411.2266 " fill="#222222" style="stroke: #228B22; stroke-width: 3.0;"/><path d="M668,419.2266 L668,419.5068 L677.6923,418.6741 L687.3846,419.4843 L697.0769,419.7595 L706.7692,418.2754 L716.4615,419.1229 L726.1538,418.6579 L735.8462,418.7152 L745.5385,419.1357 L755.2308,418.3047 L764.9231,419.9648 L774.6154,418.3862 L784.3077,418.9629 L794,419.2266 " fill="#222222" style="stroke: #228B22; stroke-width: 3.0;"/><!--class IntegrationPlanConstructions--><polygon fill="#222222" points="38,552,38,552.2102,48.25,551.5857,58.5,552.1933,68.75,552.3997,79,551.2866,89.25,551.9223,99.5,551.5735,109.75,551.6165,120,551.9318,130.25,551.3086,140.5,552.5536,150.75,551.3697,161,551.8022,171.25,552.4319,181.5,551.9142,191.75,552.0682,202,552,201.9681,552,202.1785,561.6673,202.2391,571.3345,202.5857,581.0018,202.6711,590.669,202.6793,600.3363,202.2546,610.0036,202.4636,619.6708,202.7022,629.3381,201.2788,639.0053,202.6785,648.6726,202,658.3398,202,658.0433,191.75,658.8737,181.5,657.8448,171.25,658.2713,161,659.0814,150.75,658.2911,140.5,658.4451,130.25,658.6785,120,658.7561,109.75,658.3359,99.5,658.6271,89.25,657.7674,79,658.6242,68.75,658.888,58.5,658.7844,48.25,658.9529,38,658.3398,37.5169,658.3398,37.3478,648.6726,37.3786,639.0053,37.9411,629.3381,37.8035,619.6708,38.6814,610.0036,37.8253,600.3363,37.6569,590.669,38.2283,581.0018,37.3332,571.3345,37.4809,561.6673,38,552" style="stroke: #DC143C; stroke-width: 3.0;"/><text fill="#DC143C" font-family="courier" font-size="20" font-weight="bold" lengthAdjust="spacingAndGlyphs" textLength="132" x="48" y="578.1074">Integration</text><text fill="#DC143C" font-family="courier" font-size="20" font-weight="bold" lengthAdjust="spacingAndGlyphs" textLength="84" x="72" y="604.2207">Plan of</text><text fill="#DC143C" font-family="courier" font-size="20" font-weight="bold" lengthAdjust="spacingAndGlyphs" textLength="156" x="42" y="630.334">Constructions</text><path d="M39,642.3398 L39,642.6201 L49.125,641.7874 L59.25,642.5976 L69.375,642.8727 L79.5,641.3887 L89.625,642.2362 L99.75,641.7712 L109.875,641.8285 L120,642.249 L130.125,641.418 L140.25,643.078 L150.375,641.4995 L160.5,642.0762 L170.625,642.9158 L180.75,642.2255 L190.875,642.4308 L201,642.3398 " fill="#222222" style="stroke: #DC143C; stroke-width: 3.0;"/><path d="M39,650.3398 L39,650.6201 L49.125,649.7874 L59.25,650.5976 L69.375,650.8727 L79.5,649.3887 L89.625,650.2362 L99.75,649.7712 L109.875,649.8285 L120,650.249 L130.125,649.418 L140.25,651.078 L150.375,649.4995 L160.5,650.0762 L170.625,650.9158 L180.75,650.2255 L190.875,650.4308 L201,650.3398 " fill="#222222" style="stroke: #DC143C; stroke-width: 3.0;"/><!--class ArchitectuDC143Cescription--><polygon fill="#222222" points="237,565,237,565.2102,247.25,564.5857,257.5,565.1933,267.75,565.3997,278,564.2866,288.25,564.9223,298.5,564.5735,308.75,564.6165,319,564.9318,329.25,564.3086,339.5,565.5536,349.75,564.3697,360,564.8022,370.25,565.4319,380.5,564.9142,390.75,565.0682,401,565,400.9681,565,401.1785,575.0283,401.2391,585.0566,401.5857,595.085,401.6711,605.1133,401.6793,615.1416,401.2546,625.1699,401.4636,635.1982,401,645.2266,401,645.9288,390.75,644.5054,380.5,645.9051,370.25,644.9301,360,645.7604,349.75,644.7315,339.5,645.1581,329.25,645.9682,319,645.1778,308.75,645.3319,298.5,645.5652,288.25,645.6428,278,645.2227,267.75,645.5138,257.5,644.6541,247.25,645.5109,237,645.2266,237.5482,645.2266,237.4445,635.1982,237.613,625.1699,236.5169,615.1416,236.3478,605.1133,236.3786,595.085,236.9411,585.0566,236.8035,575.0283,237,565" style="stroke: #DC143C; stroke-width: 3.0;"/><text fill="#DC143C" font-family="courier" font-size="20" font-weight="bold" lengthAdjust="spacingAndGlyphs" textLength="144" x="241" y="591.1074">Architecture</text><text fill="#DC143C" font-family="courier" font-size="20" font-weight="bold" lengthAdjust="spacingAndGlyphs" textLength="132" x="253" y="617.2207">Description</text><path d="M238,629.2266 L238,629.5068 L248.125,628.6741 L258.25,629.4843 L268.375,629.7595 L278.5,628.2754 L288.625,629.1229 L298.75,628.6579 L308.875,628.7152 L319,629.1357 L329.125,628.3047 L339.25,629.9648 L349.375,628.3862 L359.5,628.9629 L369.625,629.8025 L379.75,629.1122 L389.875,629.3175 L400,629.2266 " fill="#222222" style="stroke: #DC143C; stroke-width: 3.0;"/><path d="M238,637.2266 L238,637.5068 L248.125,636.6741 L258.25,637.4843 L268.375,637.7595 L278.5,636.2754 L288.625,637.1229 L298.75,636.6579 L308.875,636.7152 L319,637.1357 L329.125,636.3047 L339.25,637.9648 L349.375,636.3862 L359.5,636.9629 L369.625,637.8025 L379.75,637.1122 L389.875,637.3175 L400,637.2266 " fill="#222222" style="stroke: #DC143C; stroke-width: 3.0;"/><!--class SubsystemDesign--><polygon fill="#222222" points="436,565,436,565.2102,445.8462,564.5857,455.6923,565.1933,465.5385,565.3997,475.3846,564.2866,485.2308,564.9223,495.0769,564.5735,504.9231,564.6165,514.7692,564.9318,524.6154,564.3086,534.4615,565.5536,544.3077,564.3697,554.1538,564.8022,564,565,564.4319,565,563.9142,575.0283,564.0682,585.0566,563.9681,595.085,564.1785,605.1133,564.2391,615.1416,564.5857,625.1699,564.6711,635.1982,564,645.2266,564,645.9058,554.1538,645.4812,544.3077,645.6901,534.4615,645.9288,524.6154,644.5054,514.7692,645.9051,504.9231,644.9301,495.0769,645.7604,485.2308,644.7315,475.3846,645.1581,465.5385,645.9682,455.6923,645.1778,445.8462,645.3319,436,645.2266,436.3386,645.2266,436.4162,635.1982,435.9961,625.1699,436.2872,615.1416,435.4276,605.1133,436.2844,595.085,436.5482,585.0566,436.4445,575.0283,436,565" style="stroke: #DC143C; stroke-width: 3.0;"/><text fill="#DC143C" font-family="courier" font-size="20" font-weight="bold" lengthAdjust="spacingAndGlyphs" textLength="108" x="440" y="591.1074">Subsystem</text><text fill="#DC143C" font-family="courier" font-size="20" font-weight="bold" lengthAdjust="spacingAndGlyphs" textLength="72" x="464" y="617.2207">Design</text><path d="M437,629.2266 L437,629.5068 L446.6923,628.6741 L456.3846,629.4843 L466.0769,629.7595 L475.7692,628.2754 L485.4615,629.1229 L495.1538,628.6579 L504.8462,628.7152 L514.5385,629.1357 L524.2308,628.3047 L533.9231,629.9648 L543.6154,628.3862 L553.3077,628.9629 L563,629.2266 " fill="#222222" style="stroke: #DC143C; stroke-width: 3.0;"/><path d="M437,637.2266 L437,637.5068 L446.6923,636.6741 L456.3846,637.4843 L466.0769,637.7595 L475.7692,636.2754 L485.4615,637.1229 L495.1538,636.6579 L504.8462,636.7152 L514.5385,637.1357 L524.2308,636.3047 L533.9231,637.9648 L543.6154,636.3862 L553.3077,636.9629 L563,637.2266 " fill="#222222" style="stroke: #DC143C; stroke-width: 3.0;"/><!--class Interface--><polygon fill="#222222" points="599,578,599,578.2102,608.8462,577.5857,618.6923,578.1933,628.5385,578.3997,638.3846,577.2866,648.2308,577.9223,658.0769,577.5735,667.9231,577.6165,677.7692,577.9318,687.6154,577.3086,697.4615,578.5536,707.3077,577.3697,717.1538,577.8022,727,578,727.4319,578,726.9142,588.8227,727.0682,599.6453,726.9681,610.468,727.1785,621.2906,727,632.1133,727,632.3524,717.1538,632.699,707.3077,632.7843,697.4615,632.7925,687.6154,632.3679,677.7692,632.5769,667.9231,632.8155,658.0769,631.3921,648.2308,632.7918,638.3846,631.8168,628.5385,632.6471,618.6923,631.6183,608.8462,632.0448,599,632.1133,599.7416,632.1133,598.9513,621.2906,599.1053,610.468,599.3386,599.6453,599.4162,588.8227,599,578" style="stroke: #DC143C; stroke-width: 3.0;"/><text fill="#DC143C" font-family="courier" font-size="20" font-weight="bold" lengthAdjust="spacingAndGlyphs" textLength="108" x="603" y="604.1074">Interface</text><path d="M600,616.1133 L600,616.3935 L609.6923,615.5609 L619.3846,616.371 L629.0769,616.6462 L638.7692,615.1621 L648.4615,616.0097 L658.1538,615.5446 L667.8462,615.6019 L677.5385,616.0224 L687.2308,615.1915 L696.9231,616.8515 L706.6154,615.2729 L716.3077,615.8496 L726,616.1133 " fill="#222222" style="stroke: #DC143C; stroke-width: 3.0;"/><path d="M600,624.1133 L600,624.3935 L609.6923,623.5609 L619.3846,624.371 L629.0769,624.6462 L638.7692,623.1621 L648.4615,624.0097 L658.1538,623.5446 L667.8462,623.6019 L677.5385,624.0224 L687.2308,623.1915 L696.9231,624.8515 L706.6154,623.2729 L716.3077,623.8496 L726,624.1133 " fill="#222222" style="stroke: #DC143C; stroke-width: 3.0;"/><!--class SubsystemImplementation--><polygon fill="#222222" points="762,565,762,565.2102,771.8947,564.5857,781.7895,565.1933,791.6842,565.3997,801.5789,564.2866,811.4737,564.9223,821.3684,564.5735,831.2632,564.6165,841.1579,564.9318,851.0526,564.3086,860.9474,565.5536,870.8421,564.3697,880.7368,564.8022,890.6316,565.4319,900.5263,564.9142,910.4211,565.0682,920.3158,564.9681,930.2105,565.1785,940.1053,565.2391,950,565,950.5857,565,950.6711,575.0283,950.6793,585.0566,950.2546,595.085,950.4636,605.1133,950.7022,615.1416,949.2788,625.1699,950.6785,635.1982,950,645.2266,950,644.9301,940.1053,645.7604,930.2105,644.7315,920.3158,645.1581,910.4211,645.9682,900.5263,645.1778,890.6316,645.3319,880.7368,645.5652,870.8421,645.6428,860.9474,645.2227,851.0526,645.5138,841.1579,644.6541,831.2632,645.5109,821.3684,645.7748,811.4737,645.6711,801.5789,645.8396,791.6842,644.7435,781.7895,644.5744,771.8947,644.6052,762,645.2266,761.9411,645.2266,761.8035,635.1982,762.6814,625.1699,761.8253,615.1416,761.6569,605.1133,762.2283,595.085,761.3332,585.0566,761.4809,575.0283,762,565" style="stroke: #DC143C; stroke-width: 3.0;"/><text fill="#DC143C" font-family="courier" font-size="20" font-weight="bold" lengthAdjust="spacingAndGlyphs" textLength="108" x="796" y="591.1074">Subsystem</text><text fill="#DC143C" font-family="courier" font-size="20" font-weight="bold" lengthAdjust="spacingAndGlyphs" textLength="168" x="766" y="617.2207">Implementation</text><path d="M763,629.2266 L763,629.5068 L772.7895,628.6741 L782.5789,629.4843 L792.3684,629.7595 L802.1579,628.2754 L811.9474,629.1229 L821.7368,628.6579 L831.5263,628.7152 L841.3158,629.1357 L851.1053,628.3047 L860.8947,629.9648 L870.6842,628.3862 L880.4737,628.9629 L890.2632,629.8025 L900.0526,629.1122 L909.8421,629.3175 L919.6316,629.184 L929.4211,629.4646 L939.2105,629.5454 L949,629.2266 " fill="#222222" style="stroke: #DC143C; stroke-width: 3.0;"/><path d="M763,637.2266 L763,637.5068 L772.7895,636.6741 L782.5789,637.4843 L792.3684,637.7595 L802.1579,636.2754 L811.9474,637.1229 L821.7368,636.6579 L831.5263,636.7152 L841.3158,637.1357 L851.1053,636.3047 L860.8947,637.9648 L870.6842,636.3862 L880.4737,636.9629 L890.2632,637.8025 L900.0526,637.1122 L909.8421,637.3175 L919.6316,637.184 L929.4211,637.4646 L939.2105,637.5454 L949,637.2266 " fill="#222222" style="stroke: #DC143C; stroke-width: 3.0;"/><!--class Role--><polygon fill="#222222" points="1036,219,1036,219.2102,1045.3333,218.5857,1054.6667,219.1933,1064,219.3997,1073.3333,218.2866,1082.6667,218.9223,1092,219,1091.5735,219,1091.6165,229.8227,1091.9318,240.6453,1091.3086,251.468,1092.5536,262.2906,1092,273.1133,1092,272.483,1082.6667,272.9155,1073.3333,273.5452,1064,273.0275,1054.6667,273.1815,1045.3333,273.0813,1036,273.1133,1036.1785,273.1133,1036.2391,262.2906,1036.5857,251.468,1036.6711,240.6453,1036.6793,229.8227,1036,219" style="stroke: #1E90FF; stroke-width: 3.0;"/><text fill="#1E90FF" font-family="courier" font-size="20" font-weight="bold" lengthAdjust="spacingAndGlyphs" textLength="48" x="1040" y="245.1074">Role</text><path d="M1037,257.1133 L1037,257.3935 L1047.8,256.5609 L1058.6,257.371 L1069.4,257.6462 L1080.2,256.1621 L1091,257.1133 " fill="#222222" style="stroke: #1E90FF; stroke-width: 3.0;"/><path d="M1037,265.1133 L1037,265.3935 L1047.8,264.5609 L1058.6,265.371 L1069.4,265.6462 L1080.2,264.1621 L1091,265.1133 " fill="#222222" style="stroke: #1E90FF; stroke-width: 3.0;"/><!--class Implementation\nRole--><polygon fill="#222222" points="1006,347,1006,347.2102,1015.7778,346.5857,1025.5556,347.1933,1035.3333,347.3997,1045.1111,346.2866,1054.8889,346.9223,1064.6667,346.5735,1074.4444,346.6165,1084.2222,346.9318,1094,346.3086,1103.7778,347.5536,1113.5556,346.3697,1123.3333,346.8022,1133.1111,347.4319,1142.8889,346.9142,1152.6667,347.0682,1162.4444,346.9681,1172.2222,347.1785,1182,347,1182.2391,347,1182.5857,357.0283,1182.6711,367.0566,1182.6793,377.085,1182.2546,387.1133,1182.4636,397.1416,1182.7022,407.1699,1181.2788,417.1982,1182,427.2266,1182,427.9051,1172.2222,426.9301,1162.4444,427.7604,1152.6667,426.7315,1142.8889,427.1581,1133.1111,427.9682,1123.3333,427.1778,1113.5556,427.3319,1103.7778,427.5652,1094,427.6428,1084.2222,427.2227,1074.4444,427.5138,1064.6667,426.6541,1054.8889,427.5109,1045.1111,427.7748,1035.3333,427.6711,1025.5556,427.8396,1015.7778,426.7435,1006,427.2266,1005.3478,427.2266,1005.3786,417.1982,1005.9411,407.1699,1005.8035,397.1416,1006.6814,387.1133,1005.8253,377.085,1005.6569,367.0566,1006.2283,357.0283,1006,347" style="stroke: #1E90FF; stroke-width: 3.0;"/><text fill="#1E90FF" font-family="courier" font-size="20" font-weight="bold" lengthAdjust="spacingAndGlyphs" textLength="168" x="1010" y="373.1074">Implementation</text><text fill="#1E90FF" font-family="courier" font-size="20" font-weight="bold" lengthAdjust="spacingAndGlyphs" textLength="48" x="1070" y="399.2207">Role</text><path d="M1007,411.2266 L1007,411.5068 L1017.2353,410.6741 L1027.4706,411.4843 L1037.7059,411.7595 L1047.9412,410.2754 L1058.1765,411.1229 L1068.4118,410.6579 L1078.6471,410.7152 L1088.8824,411.1357 L1099.1176,410.3047 L1109.3529,411.9648 L1119.5882,410.3862 L1129.8235,410.9629 L1140.0588,411.8025 L1150.2941,411.1122 L1160.5294,411.3175 L1170.7647,411.184 L1181,411.2266 " fill="#222222" style="stroke: #1E90FF; stroke-width: 3.0;"/><path d="M1007,419.2266 L1007,419.5068 L1017.2353,418.6741 L1027.4706,419.4843 L1037.7059,419.7595 L1047.9412,418.2754 L1058.1765,419.1229 L1068.4118,418.6579 L1078.6471,418.7152 L1088.8824,419.1357 L1099.1176,418.3047 L1109.3529,419.9648 L1119.5882,418.3862 L1129.8235,418.9629 L1140.0588,419.8025 L1150.2941,419.1122 L1160.5294,419.3175 L1170.7647,419.184 L1181,419.2266 " fill="#222222" style="stroke: #1E90FF; stroke-width: 3.0;"/><!--class EngineerComponents--><polygon fill="#222222" points="1012,552,1012,552.2102,1021.8462,551.5857,1031.6923,552.1933,1041.5385,552.3997,1051.3846,551.2866,1061.2308,551.9223,1071.0769,551.5735,1080.9231,551.6165,1090.7692,551.9318,1100.6154,551.3086,1110.4615,552.5536,1120.3077,551.3697,1130.1538,551.8022,1140,552,1140.4319,552,1139.9142,561.6673,1140.0682,571.3345,1139.9681,581.0018,1140.1785,590.669,1140.2391,600.3363,1140.5857,610.0036,1140.6711,619.6708,1140.6793,629.3381,1140.2546,639.0053,1140.4636,648.6726,1140,658.3398,1140,659.0421,1130.1538,657.6187,1120.3077,659.0184,1110.4615,658.0433,1100.6154,658.8737,1090.7692,657.8448,1080.9231,658.2713,1071.0769,659.0814,1061.2308,658.2911,1051.3846,658.4451,1041.5385,658.6785,1031.6923,658.7561,1021.8462,658.3359,1012,658.3398,1012.2872,658.3398,1011.4276,648.6726,1012.2844,639.0053,1012.5482,629.3381,1012.4445,619.6708,1012.613,610.0036,1011.5169,600.3363,1011.3478,590.669,1011.3786,581.0018,1011.9411,571.3345,1011.8035,561.6673,1012,552" style="stroke: #1E90FF; stroke-width: 3.0;"/><text fill="#1E90FF" font-family="courier" font-size="20" font-weight="bold" lengthAdjust="spacingAndGlyphs" textLength="96" x="1022" y="578.1074">Engineer</text><text fill="#1E90FF" font-family="courier" font-size="20" font-weight="bold" lengthAdjust="spacingAndGlyphs" textLength="24" x="1058" y="604.2207">of</text><text fill="#1E90FF" font-family="courier" font-size="20" font-weight="bold" lengthAdjust="spacingAndGlyphs" textLength="120" x="1016" y="630.334">Components</text><path d="M1013,642.3398 L1013,642.6201 L1022.6923,641.7874 L1032.3846,642.5976 L1042.0769,642.8727 L1051.7692,641.3887 L1061.4615,642.2362 L1071.1538,641.7712 L1080.8462,641.8285 L1090.5385,642.249 L1100.2308,641.418 L1109.9231,643.078 L1119.6154,641.4995 L1129.3077,642.0762 L1139,642.3398 " fill="#222222" style="stroke: #1E90FF; stroke-width: 3.0;"/><path d="M1013,650.3398 L1013,650.6201 L1022.6923,649.7874 L1032.3846,650.5976 L1042.0769,650.8727 L1051.7692,649.3887 L1061.4615,650.2362 L1071.1538,649.7712 L1080.8462,649.8285 L1090.5385,650.249 L1100.2308,649.418 L1109.9231,651.078 L1119.6154,649.4995 L1129.3077,650.0762 L1139,650.3398 " fill="#222222" style="stroke: #1E90FF; stroke-width: 3.0;"/><!--link Activity to Implementation\nActivity--><path d="M771.708,145.194 L771.8,145.21 L771.185,147.1236 L771.1094,149.1311 L770.8582,151.1081 L770.0292,152.9844 L770,155 L769.8978,154.9828 L767.7191,165.1052 L766.0554,175.3146 L764.7498,185.5843 L762.2102,195.6459 L761.399,205.999 " fill="none" style="stroke: #A9A9A9; stroke-width: 2.0;"/><polygon fill="none" points="764.869,143.668,764.9301,143.7023,766.8262,139.9065,769.0804,136.312,771.2179,132.6519,772.9721,128.7762,775.257,125.199,775.2314,125.1948,775.7961,129.3594,776.4896,133.5449,777.2728,137.745,777.7471,141.8949,778.654,146.115,778.6863,146.2967,775.8603,145.4187,773.1285,145.0713,770.4082,144.7886,767.621,144.1292,764.869,143.668" style="stroke: #A9A9A9; stroke-width: 2.0;"/><!--link Activity to Role--><path d="M830.774,125.102 L830.9021,125.3512 L839.2299,129.0876 L848.3089,134.285 L857.1432,139.0067 L865.1732,142.1637 L874.2692,147.3944 L882.7651,151.4577 L891.4999,155.9856 L900.4006,160.8365 L908.7292,164.5744 L918.1967,170.5276 L926.1835,173.6006 L935.1557,178.5904 L944.2481,183.8141 L952.641,187.6771 L961.4434,192.3366 L970.0909,196.6947 L978.9277,201.4212 L987.6732,205.97 L996.593,210.8579 L1005.3535,215.436 L1014.067,219.9226 L1022.5167,223.896 L1031.07,228.071 " fill="none" style="stroke: #A9A9A9; stroke-width: 2.0;"/><polygon fill="#A9A9A9" points="1035.69,230.447,1035.7447,230.4908,1034.3509,228.8232,1033.2776,227.4123,1032.1,225.9178,1030.5791,224.1484,1029.5334,222.7596,1029.5087,222.7517,1029.741,223.7946,1030.0977,224.877,1030.541,225.987,1030.6861,227.0021,1031.2488,228.1501,1031.3048,228.3259,1030.107,228.293,1029.0726,228.7734,1028.0582,229.3165,1026.9278,229.4952,1025.8583,229.8655,1025.8597,229.8882,1027.824,229.9712,1029.7945,230.1575,1031.762,230.294,1033.7352,230.5256,1035.69,230.447" style="stroke: #A9A9A9; stroke-width: 2.0;"/><!--link Implementation\nActivity to Implementation\nRole--><path d="M843.183,283.158 L843.2893,283.4173 L852.2704,286.4589 L861.8748,291.0204 L871.2762,295.0871 L880.0101,297.5259 L889.6287,302.1221 L898.7493,305.5039 L908.068,309.3689 L917.5245,313.5699 L926.5063,316.6131 L936.433,321.961 L945.1312,324.3124 L954.647,328.658 L964.2625,333.2469 L973.2976,336.4202 L982.6725,340.4222 L991.9188,344.1106 L1001.232,347.962 " fill="none" style="stroke: #A9A9A9; stroke-width: 2.0;"/><polygon fill="#A9A9A9" points="1005.964,349.903,1006.0146,349.9514,1004.5024,348.3843,1003.2869,347.1012,1001.9748,345.7255,1000.3449,344.0458,999.1549,342.7871,999.131,342.7771,999.4604,343.7759,999.9102,344.8252,1000.4438,345.9095,1000.6887,346.8731,1001.338,348.0057,1001.4092,348.176,1000.2131,348.2485,999.225,348.8181,998.2623,349.4484,997.152,349.7258,996.1193,350.1887,996.1199,350.2115,998.0879,350.1209,1000.0589,350.1339,1002.0284,350.097,1004.0007,350.1553,1005.964,349.903" style="stroke: #A9A9A9; stroke-width: 2.0;"/><!--link Implementation\nActivity to ImplementSubsystems--><path d="M744.783,306.176 L744.8751,306.1919 L743.2013,314.2541 L742.0673,322.4094 L740.7574,330.5344 L738.8698,338.5597 L737.782,346.723 " fill="none" style="stroke: #A9A9A9; stroke-width: 2.0;"/><polygon fill="none" points="737.95,304.606,738.0112,304.6401,739.8895,300.8355,742.1267,297.2305,744.247,293.5606,745.983,289.6768,748.251,286.089,748.2255,286.0847,748.8098,290.2456,749.5229,294.4279,750.3256,298.6253,750.8197,302.771,751.746,306.989,751.7774,307.1709,748.951,306.3054,746.2164,305.9708,743.4929,305.7011,740.7043,305.0544,737.95,304.606" style="stroke: #A9A9A9; stroke-width: 2.0;"/><!--link ImplementSubsystems to IntegrationPlanConstructions--><path d="M666.778,389.403 L666.783,389.4963 L662.7361,389.4373 L658.7187,389.9251 L654.6917,390.2348 L650.633,389.959 L646.6181,390.4937 L646.6158,390.4592 L642.1527,390.6085 L637.7015,390.9315 L633.2586,391.3752 L628.7872,391.4028 L624.3557,392.0133 L624.3762,392.2585 L619.5047,392.1377 L614.6931,392.7328 L609.8888,393.4152 L605.042,393.5894 L600.2176,394.0309 L600.2206,394.0611 L595.0588,394.5337 L589.9108,395.1437 L584.7561,395.6874 L579.6141,396.3576 L574.4308,396.6155 L574.4659,396.9117 L569.0246,397.5595 L563.5607,398.0162 L558.1299,398.7526 L552.7007,399.5021 L547.2223,399.8363 L547.18,399.5186 L544.4487,400.5093 L541.5783,400.4539 L538.8137,401.1938 L535.9401,401.1146 L533.1558,401.7068 L533.1515,401.6767 L530.3352,402.4442 L527.418,402.5075 L524.5604,402.9864 L521.7077,403.5001 L518.819,403.7622 L518.8472,403.9451 L515.903,404.2103 L513.0069,404.788 L510.0329,404.8602 L507.1752,405.6863 L504.2402,406.0112 L504.28,406.2516 L501.314,406.6964 L498.3678,407.2605 L495.3297,407.2701 L492.3589,407.6862 L489.4478,408.4624 L489.3995,408.1905 L486.4477,408.969 L483.4415,409.4412 L480.5143,410.3578 L477.4522,410.5156 L474.4702,411.1244 L474.4417,410.9746 L471.4623,411.8004 L468.361,411.9859 L465.3464,412.6266 L462.4166,413.7129 L459.3357,414.0059 L459.3744,414.1956 L456.3483,414.9477 L453.202,415.1096 L450.2063,416.0106 L447.1778,416.7506 L444.0728,417.1154 L444.0281,416.9103 L440.9911,417.7431 L437.9395,418.5087 L434.9166,419.4062 L431.7819,419.7906 L428.7097,420.4617 L428.7563,420.6619 L425.567,420.9403 L422.4676,421.6052 L419.4995,422.8347 L416.2896,423.0247 L413.2749,424.0533 L413.3294,424.2729 L410.2014,424.9116 L407.0549,425.476 L403.95,426.2081 L400.9415,427.3277 L397.7967,427.899 L397.7626,427.7704 L394.7654,428.9749 L391.5364,429.3048 L388.5711,430.6292 L385.4573,431.3936 L382.3034,432.0072 L382.3331,432.112 L379.2132,432.9033 L376.1994,434.0698 L373.0897,434.8973 L369.94,435.5832 L366.8236,436.3867 L366.858,436.5008 L363.7192,437.2632 L360.7403,438.5553 L357.5805,439.2482 L354.4952,440.1877 L351.3854,441.0461 L351.3025,440.7887 L348.2566,441.8643 L345.3105,443.2498 L342.2231,444.1967 L339.0851,444.9863 L336.0173,445.994 L335.9708,445.8586 L332.9318,446.951 L329.8104,447.8036 L326.9154,449.3154 L323.9084,450.5009 L320.7477,451.2391 L320.8282,451.4587 L317.8254,452.6392 L314.6697,453.4024 L311.6754,454.606 L308.5742,455.518 L305.6049,456.7899 L305.6509,456.9075 L302.6473,458.0651 L299.6993,459.3647 L296.5751,460.214 L293.593,461.4265 L290.6173,462.6552 L290.6933,462.837 L287.7537,464.1255 L284.6078,464.9204 L281.7016,466.2887 L278.7996,467.6671 L275.8132,468.8435 L275.7025,468.5957 L272.9589,470.2909 L270.0232,471.5562 L267.0397,472.7146 L264.1653,474.1173 L261.2211,475.3635 L261.3608,475.6557 L258.2908,476.6101 L255.5408,478.234 L252.6648,479.5943 L249.7618,480.8982 L246.8693,482.2239 L246.8978,482.2796 L244.0756,483.7106 L241.1096,484.8606 L238.3382,486.3909 L235.5093,487.8087 L232.7861,489.4331 L232.7998,489.458 L230.0477,490.9808 L227.3063,492.5229 L224.4522,493.8599 L221.7428,495.4603 L219,497 L218.9708,496.9553 L215.8964,499.3348 L212.6161,501.3992 L209.1505,503.1801 L206.007,505.4538 L202.7809,507.6012 L202.6189,507.4023 L199.8101,510.1857 L196.8483,512.7812 L193.7787,515.2443 L190.4519,517.3916 L187.5225,520.0269 L187.6653,520.1756 L184.4676,522.5035 L181.9317,525.5205 L178.9517,528.0752 L176.2474,530.9169 L173.3914,533.6006 L173.4702,533.6727 L170.9788,536.5512 L168.0202,539.0029 L165.8449,542.1704 L163.1799,544.8903 L160.554,547.646 " fill="none" style="stroke: #A9A9A9; stroke-width: 2.0;"/><polygon fill="#A9A9A9" points="156.951,551.886,156.9814,551.9491,158.6665,550.9082,160.5296,550.2374,162.3347,549.446,163.9493,548.2583,165.8276,547.6192,165.8255,547.5934,164.6885,547.569,163.562,547.6747,162.4428,547.8709,161.2983,547.7552,160.1893,548.0763,160.3732,548.0913,159.8885,546.9317,159.9407,545.8157,160.0585,544.705,159.7951,543.5633,159.7322,542.438,159.754,542.4444,159.1657,544.3246,158.6768,546.234,158.1399,548.1293,157.6945,550.0515,156.951,551.886" style="stroke: #A9A9A9; stroke-width: 2.0;"/><text fill="#A9A9A9" font-family="courier" font-size="20" lengthAdjust="spacingAndGlyphs" textLength="24" x="298" y="481.1074">in</text><!--link ImplementSubsystems to ArchitectuDC143Cescription--><path d="M666.934,400.644 L666.9554,400.7349 L664.3182,401.0703 L661.8065,401.9388 L659.254,402.6336 L656.5671,402.7577 L654.0661,403.6719 L654.0578,403.6384 L651.2865,404.165 L648.5569,404.8606 L645.8565,405.6738 L643.0558,406.082 L640.3956,407.0573 L640.4577,407.2954 L637.4492,407.5367 L634.6221,408.4731 L631.8172,409.4943 L628.8835,410.022 L626.0175,410.8093 L626.0255,410.8386 L623.0156,411.6211 L620.0423,412.5368 L617.0514,413.3882 L614.0941,414.3622 L611.0269,414.9367 L611.1103,415.2231 L608.0097,416.129 L604.8554,416.8501 L601.7798,417.8416 L598.7079,418.8458 L595.5191,419.4485 L595.4248,419.1422 L592.4219,420.7177 L589.1083,421.2846 L586.0309,422.6183 L582.7104,423.1623 L579.5891,424.3536 L579.5797,424.3247 L576.44,425.7284 L573.0796,426.4559 L569.8495,427.5825 L566.6302,428.7425 L563.3321,429.6609 L563.3928,429.8357 L560.0338,430.803 L556.7784,432.0689 L553.3554,432.8516 L550.1824,434.3551 L546.8433,435.3794 L546.9276,435.6079 L543.5866,436.7924 L540.2874,438.0904 L536.7935,438.8611 L533.4423,440.0183 L530.2176,441.5179 L530.1164,441.261 L526.8746,442.8071 L523.5187,444.0637 L520.3283,445.7402 L516.8553,446.6997 L513.5503,448.0855 L513.4911,447.945 L510.267,449.5801 L506.7897,450.6146 L503.4924,452.0762 L500.3714,453.9556 L496.9366,455.091 L497.0164,455.2674 L493.7781,456.8788 L490.2915,457.9416 L487.116,459.6916 L483.8727,461.2919 L480.4714,462.5433 L480.3794,462.3546 L477.2085,464.0867 L474.0074,465.7569 L470.8656,467.5486 L467.4935,468.8682 L464.2501,470.4515 L464.346,470.6333 L460.9588,471.9083 L457.7567,473.5344 L454.825,475.6732 L451.3955,476.8679 L448.3676,478.8244 L448.4801,479.0207 L445.3236,480.6734 L442.1291,482.2596 L439.0205,483.9958 L436.1102,486.0785 L432.9192,487.6709 L432.8487,487.5581 L430.0749,489.7597 L426.8213,491.1942 L424.1132,493.501 L421.098,495.3167 L418,497 L418.0624,497.0892 L416.0902,498.3622 L414.3415,499.9545 L412.3909,501.2583 L410.3559,502.4415 L408.391,503.7248 L408.4646,503.8186 L406.4827,505.1511 L404.8429,506.9188 L402.8162,508.1944 L400.9486,509.6724 L399.0288,511.0839 L398.8518,510.8795 L397.0969,512.5188 L395.5552,514.4044 L393.7119,515.9415 L391.7603,517.3538 L389.9588,518.9393 L389.8607,518.8351 L388.1457,520.5113 L386.2569,522.0029 L384.8457,524.0022 L383.1981,525.7502 L381.2264,527.1536 L381.3926,527.3182 L379.776,529.058 L377.8433,530.485 L376.2441,532.2421 L374.4242,533.7808 L372.8767,535.589 L372.9692,535.675 L371.3728,537.3675 L369.8879,539.1637 L368.0491,540.6308 L366.4958,542.3634 L364.9553,544.1078 L365.1032,544.238 L363.655,545.9673 L361.805,547.3432 L360.4218,549.1296 L359.0467,550.9233 L357.5072,552.5724 L357.2991,552.3981 L356.2418,554.3278 L354.8234,555.9551 L353.3154,557.5072 L352.0123,559.2311 L350.578,560.845 " fill="none" style="stroke: #A9A9A9; stroke-width: 2.0;"/><polygon fill="#A9A9A9" points="347.336,564.85,347.3678,564.9124,349.0278,563.8317,350.8744,563.1169,352.6603,562.2829,354.2462,561.0572,356.1089,560.3737,356.1061,560.348,354.9688,560.3505,353.8451,560.4829,352.7309,560.7056,351.584,560.6172,350.4829,560.9645,350.6665,560.9838,350.1558,559.8174,350.181,558.7073,350.2716,557.604,349.9818,556.4608,349.8921,555.3386,349.9141,555.3445,349.3706,557.2381,348.9271,559.1586,348.4354,561.0661,348.0358,562.9984,347.336,564.85" style="stroke: #A9A9A9; stroke-width: 2.0;"/><text fill="#A9A9A9" font-family="courier" font-size="20" lengthAdjust="spacingAndGlyphs" textLength="24" x="484" y="481.1074">in</text><!--link ImplementSubsystems to SubsystemDesign--><path d="M666.907,423.938 L666.9573,424.0167 L664.26,425.411 L661.8576,427.2667 L659.3591,428.9721 L656.5449,430.1834 L654.1678,432.0788 L654.1484,432.0501 L651.508,433.6463 L648.965,435.3867 L646.4897,437.2274 L643.781,438.7225 L641.3992,440.7018 L641.5432,440.9013 L638.7371,442.2759 L636.3513,444.2331 L634.0167,446.2614 L631.3839,447.8761 L628.9079,449.7084 L628.9265,449.7323 L626.5176,451.5555 L624.1935,453.4876 L621.8285,455.3671 L619.5417,457.3469 L617,459 L617.1955,459.2252 L614.5626,461.516 L611.8036,463.6616 L609.2292,466.0197 L606.6635,468.3879 L603.8235,470.4403 L603.6008,470.2098 L601.4797,473.1245 L598.6252,475.2802 L596.3282,478.013 L593.457,480.1515 L591.0565,482.7771 L591.0344,482.7562 L588.841,485.5971 L586.1311,487.9491 L583.7259,490.5896 L581.3464,493.2543 L578.7823,495.7442 L578.9213,495.8663 L576.4413,498.4093 L574.199,501.1608 L571.5722,503.575 L569.5188,506.4923 L567.0841,509.0751 L567.2723,509.2298 L565.029,511.8862 L562.8791,514.6194 L560.2951,516.9957 L558.0293,519.6337 L556.0455,522.5034 L555.8273,522.334 L553.9656,525.1392 L551.8582,527.7535 L550.1072,530.6446 L547.7475,533.0631 L545.7497,535.7625 L545.627,535.672 L543.9374,538.3876 L541.7234,540.716 L539.8823,543.3197 L538.406,546.1928 L536.2801,548.5862 L536.4382,548.6979 L534.8347,551.1989 L532.7392,553.3524 L531.2599,555.9411 L529.6464,558.435 L527.72,560.708 " fill="none" style="stroke: #A9A9A9; stroke-width: 2.0;"/><polygon fill="#A9A9A9" points="524.884,564.839,524.9207,564.8987,526.4901,563.6903,528.2745,562.8319,529.9889,561.8595,531.4731,560.5123,533.276,559.6839,533.2712,559.6585,532.1377,559.7508,531.0279,559.9715,529.9348,560.2815,528.7845,560.2839,527.7143,560.7172,527.8957,560.7509,527.3011,559.5665,527.2362,558.4804,527.2359,557.4064,526.8596,556.2626,526.681,555.1555,526.7034,555.1596,526.3112,557.0902,526.0207,559.0397,525.6812,560.9801,525.4354,562.9379,524.884,564.839" style="stroke: #A9A9A9; stroke-width: 2.0;"/><text fill="#A9A9A9" font-family="courier" font-size="20" lengthAdjust="spacingAndGlyphs" textLength="24" x="619" y="481.1074">in</text><!--link ImplementSubsystems to Interface--><path d="M681.133,427.339 L681.206,427.3973 L678.5902,430.2236 L676.4021,433.3919 L674.0748,436.4487 L671.2895,439.1394 L669.1381,442.337 L669.1078,442.3204 L667.1443,445.5785 L665.3334,448.9202 L663.6287,452.3202 L661.5582,455.5196 L660,459 L660.233,459.079 L658.7707,461.7552 L657.9888,464.6621 L657.2899,467.597 L656.108,470.3683 L655.1801,473.2256 L655.2098,473.232 L654.5333,476.1918 L653.9918,479.1804 L653.3852,482.1552 L652.9029,485.1564 L652.0154,488.0713 L652.3117,488.1051 L651.9691,491.1369 L651.4353,494.1468 L651.1813,497.1888 L650.9403,500.2322 L650.284,503.2281 L649.9636,503.2171 L650.4814,506.2703 L649.9443,509.2873 L650.2091,512.3319 L649.6481,515.3481 L649.764,518.3875 L649.7336,518.3865 L650.1874,521.3686 L649.9302,524.3281 L650.0926,527.3009 L650.2901,530.2748 L650.2337,533.2407 L650.4179,533.2567 L650.4794,536.0882 L650.8558,538.9471 L650.7227,541.7617 L651.3495,544.6423 L651.4711,547.479 L651.7126,547.5113 L652.0236,550.1682 L652.4545,552.841 L652.3283,555.4393 L652.6105,558.0923 L653.2545,560.7937 L652.9824,560.7462 L653.6502,563.2056 L654.0114,565.6116 L654.8173,568.0951 L654.864,570.4462 L655.362,572.876 " fill="none" style="stroke: #A9A9A9; stroke-width: 2.0;"/><polygon fill="#A9A9A9" points="656.386,577.964,656.4544,577.9793,656.6801,576.0114,657.3066,574.133,657.8026,572.2255,657.8694,570.2222,658.5304,568.3514,658.5088,568.3371,657.7857,569.2149,657.1713,570.1651,656.6325,571.1654,655.8332,571.9926,655.3988,573.0624,655.501,573.2161,654.3403,572.2611,653.4779,571.7549,652.6519,571.3034,651.6142,570.5334,650.6878,569.9309,650.7064,569.9441,651.8188,571.5314,653.0156,573.1786,654.1717,574.7969,655.4056,576.4703,656.386,577.964" style="stroke: #A9A9A9; stroke-width: 2.0;"/><text fill="#A9A9A9" font-family="courier" font-size="20" lengthAdjust="spacingAndGlyphs" textLength="24" x="662" y="481.1074">in</text><!--link ImplementSubsystems to Interface--><path d="M718.686,427.116 L718.9533,427.2002 L715.1029,436.6577 L712.8196,446.6086 L710.0259,456.3988 L705.5542,465.6608 L703.3065,475.6229 L699.8068,485.1908 L696.8053,494.9157 L694.1503,504.7495 L690.3015,514.2076 L688.8288,524.4137 L684.2669,533.6472 L681.7609,543.528 L679.5056,553.4877 L675.791,562.9881 L672.844,572.73 " fill="none" style="stroke: #A9A9A9; stroke-width: 2.0;"/><polygon fill="#A9A9A9" points="671.265,577.746,671.3175,577.7924,672.465,576.1778,673.9204,574.8351,675.2755,573.4039,676.3008,571.6816,677.7826,570.3622,677.7707,570.3392,676.7136,570.759,675.717,571.2946,674.7623,571.9107,673.663,572.2494,672.7662,572.9767,672.9299,573.062,672.057,571.8763,671.662,570.9396,671.3252,570.0334,670.6493,568.9503,670.1517,567.9603,670.1743,567.9628,670.3638,569.9162,670.6562,571.8813,670.8989,573.8407,671.2363,575.8109,671.265,577.746" style="stroke: #A9A9A9; stroke-width: 2.0;"/><text fill="#A9A9A9" font-family="courier" font-size="20" lengthAdjust="spacingAndGlyphs" textLength="36" x="710" y="481.1074">out</text><!--link ImplementSubsystems to SubsystemImplementation--><path d="M753.637,427.116 L753.8796,427.2564 L758.2911,435.7078 L764.1245,444.982 L769.4948,453.9883 L773.3425,462.1134 L779.2083,471.4064 L783.938,480.042 L789.1198,488.9392 L794.6159,498.0182 L799.0289,506.4705 L805.5979,516.1704 L809.3638,524.2482 L814.9952,533.4055 L820.8541,542.6945 L825.3888,551.2172 L830.62,560.143 " fill="none" style="stroke: #A9A9A9; stroke-width: 2.0;"/><polygon fill="#A9A9A9" points="833.321,564.811,833.3907,564.8184,832.9745,562.8377,832.9666,560.9006,832.8258,558.9493,832.2477,556.9512,832.2749,555.0179,832.2499,555.0112,831.8459,556.0743,831.568,557.1711,831.3779,558.2914,830.8855,559.3309,830.8165,560.4835,830.8641,560.6618,829.6692,559.9888,828.6132,559.8364,827.5742,559.7475,826.4366,559.2891,825.3509,559.0251,825.3642,559.0435,826.9386,560.1736,828.5739,561.3876,830.1798,562.5611,831.8417,563.8118,833.321,564.811" style="stroke: #A9A9A9; stroke-width: 2.0;"/><text fill="#A9A9A9" font-family="courier" font-size="20" lengthAdjust="spacingAndGlyphs" textLength="36" x="789" y="481.1074">out</text><!--link ImplementSubsystems to EngineerComponents--><path d="M795.189,410.949 L795.2236,411.0358 L798.9668,412.3124 L802.9129,414.0977 L806.7929,415.7174 L810.4556,416.7924 L814.4191,418.6214 L814.4058,418.5895 L818.4703,420.176 L822.6021,421.9231 L826.7807,423.7818 L830.798,425.2559 L835.0413,427.2687 L835.1409,427.4937 L839.2521,428.9277 L843.6542,431.0185 L848.0917,433.1895 L852.3228,434.8942 L856.6625,436.8441 L856.6752,436.8716 L858.869,437.8554 L861.1208,438.9645 L863.3446,440.0132 L865.6218,441.1772 L867.7249,441.9651 L867.8535,442.2342 L870.0881,443.3046 L872.2396,444.2014 L874.5127,445.3523 L876.7914,446.5151 L878.8898,447.3006 L878.7477,447.0133 L881.267,448.6798 L883.3186,449.4001 L885.7257,450.8397 L887.7668,451.5386 L890.1079,452.8447 L890.094,452.8176 L892.5025,454.2874 L894.5869,455.1241 L896.8625,456.3344 L899.1543,457.576 L901.3301,458.5914 L901.417,458.7547 L903.5648,459.7786 L905.861,461.0815 L907.917,461.9329 L910.3313,463.4578 L912.5074,464.535 L912.6254,464.7481 L914.8197,465.9347 L917.0726,467.2271 L919.0533,468.0278 L921.2336,469.189 L923.5906,470.6695 L923.4524,470.4303 L925.7655,471.9108 L927.9229,473.1217 L930.3061,474.7235 L932.3037,475.658 L934.5306,476.9891 L934.4517,476.8586 L936.7326,478.3757 L938.6763,479.3351 L940.8598,480.691 L943.2779,482.435 L945.2782,483.488 L945.382,483.6514 L947.5545,485.098 L949.404,486.0362 L951.658,487.6111 L953.8238,489.0473 L955.7844,490.1602 L955.6676,489.9858 L957.8038,491.4928 L959.9018,492.9427 L962.0749,494.5048 L963.9558,495.6305 L966,497 L966.1221,497.1654 L969.0264,499.1439 L972.1664,501.4417 L975.6506,504.2059 L978.501,506.1113 L981.8628,508.7096 L982.0049,508.8856 L983.4809,510.0406 L984.9088,511.136 L986.4452,512.3658 L988.2323,513.9063 L989.6646,515.0072 L989.5786,514.9057 L991.3691,516.5096 L992.5743,517.4236 L994.4451,519.122 L995.9411,520.3788 L997.3361,521.5165 L997.4092,521.5972 L1000.3142,524.2128 L1003.4808,527.1176 L1006.4112,529.7611 L1009.2428,532.2954 L1012.1564,534.9204 L1012.2394,535.0059 L1014.8968,537.579 L1017.9396,540.5491 L1020.5465,543.0701 L1023.3327,545.7759 L1026.06,548.421 " fill="none" style="stroke: #A9A9A9; stroke-width: 2.0;"/><polygon fill="#A9A9A9" points="1029.58,551.973,1029.6455,551.9979,1028.7501,550.083,1028.2387,548.3141,1027.6022,546.4977,1026.5546,544.5248,1026.0761,542.7685,1026.0502,542.7684,1025.93,543.8994,1025.9405,545.0308,1026.0417,546.1625,1025.8301,547.2932,1026.0566,548.4253,1026.0573,548.6099,1024.9246,548.2113,1023.7937,548.3516,1022.663,548.5576,1021.5311,548.3812,1020.3998,548.4059,1020.4081,548.4271,1022.232,549.1094,1024.0934,549.8882,1025.9368,550.6204,1027.8147,551.4415,1029.58,551.973" style="stroke: #A9A9A9; stroke-width: 2.0;"/><!--link Role to Implementation\nRole--><path d="M1073.92,292.956 L1074.1939,293.0151 L1075.3183,301.8184 L1078.0486,310.9684 L1080.2559,320.0055 L1080.7436,328.6713 L1083.5104,337.8291 L1085.55,346.83 " fill="none" style="stroke: #A9A9A9; stroke-width: 2.0;"/><polygon fill="none" points="1067.02,294.172,1067.0895,294.1807,1067.407,289.9495,1068.1319,285.7692,1068.7242,281.5723,1068.88,277.321,1069.64,273.145,1069.6179,273.1315,1071.7307,276.6854,1073.955,280.3075,1076.2566,283.9769,1078.2914,287.4831,1080.7,291.218,1080.739,291.3984,1077.9197,291.6034,1075.2141,292.3352,1072.5224,293.1311,1069.75,293.5533,1067.02,294.172" style="stroke: #A9A9A9; stroke-width: 2.0;"/><!--link Implementation\nRole to EngineerComponents--><path d="M1089.05,447.349 L1089.3293,447.3723 L1087.6295,457.7441 L1087.5668,468.2524 L1086.9711,478.7163 L1084.6221,489.034 L1084.5967,499.5454 L1083.2633,509.9478 L1082.4504,520.3935 L1081.9994,530.8695 L1080.3014,541.2415 L1080.35,551.759 " fill="none" style="stroke: #A9A9A9; stroke-width: 2.0;"/><polygon fill="none" points="1082.1,446.466,1082.164,446.4946,1083.7019,442.5397,1085.6148,438.7523,1087.4057,434.9103,1088.7949,430.889,1090.74,427.116,1090.7149,427.1095,1091.6664,431.1827,1092.7443,435.2887,1093.91,439.4175,1094.7729,443.4677,1096.06,447.628,1096.0753,447.8119,1093.2506,447.1862,1090.4705,447.0975,1087.6959,447.0743,1084.8896,446.6699,1082.1,446.466" style="stroke: #A9A9A9; stroke-width: 2.0;"/><!--
@startuml

skinparam backgroundColor #222222

skinparam default {
    FontSize 20
    FontName courier
    FontStyle normal
    FontColor #DarkGrey
}
skinparam handwritten true

skinparam shadowing false
skinparam padding 1
skinparam arrow {
    Thickness 2
    Color #DarkGrey
    FontSize 20
    FontName courier
    FontStyle normal
    FontColor #DarkGrey
}

skinparam package {
    BorderThickness 3
    BorderColor #DarkGrey
    BackgroundColor #222222
    FontSize 20
    FontName courier
    FontStyle bold
}

skinparam class {
    BorderThickness 3
    BorderColor #DarkGrey
    BackgroundColor #222222
    FontSize 20
    FontName courier
    FontStyle bold
    FontColor #DarkGrey
}

skinparam classAttribute {
    FontSize 15
    FontName courier
    FontStyle normal
    FontColor #DarkGrey
}

hide circle
hide stereotype

skinparam class {
    BorderColor<<artifacts>> #DC143C
    BorderColor<<activities>> #228B22
    BorderColor<<team>> #1E90FF
    FontColor<<artifacts>> #DC143C
    FontColor<<activities>> #228B22
    FontColor<<team>> #1E90FF
}

skinparam package {
    BorderColor<<artifacts>> #DC143C
    BorderColor<<activities>> #228B22
    BorderColor<<team>> #1E90FF
    FontColor<<artifacts>> #DC143C
    FontColor<<activities>> #228B22
    FontColor<<team>> #1E90FF
}

skinparam classAttribute {
    FontColor<<artifacts>> #DC143C
    FontColor<<activities>> #228B22
    FontColor<<team>> #1E90FF
}

package Activities <<activities>> {
    class Activity <<activities>>
    class Implementation\nActivity <<activities>>
    class "Implement \nSubsystems" as ImplementSubsystems <<activities>>
}

package Artifacts <<artifacts>> {
    class "Integration \nPlan of \nConstructions" as IntegrationPlanConstructions <<artifacts>>
    class "Architecture \nDescription" as ArchitectuDC143Cescription <<artifacts>>
    class "Subsystem \nDesign" as SubsystemDesign <<artifacts>>
    class "Interface " as Interface  <<artifacts>>
    class "Subsystem \nImplementation " as SubsystemImplementation <<artifacts>>
}

package Team <<team>> {
    class Role <<team>>
    class Implementation\nRole <<team>>
    class "Engineer \nof \nComponents" as EngineerComponents <<team>>
}

Activity <|- - Implementation\nActivity
Activity - -> Role
Implementation\nActivity - -> Implementation\nRole
Implementation\nActivity <|- - ImplementSubsystems
ImplementSubsystems - -> IntegrationPlanConstructions :in
ImplementSubsystems - -> ArchitectuDC143Cescription :in
ImplementSubsystems - -> SubsystemDesign :in
ImplementSubsystems - -> Interface :in
ImplementSubsystems - -> SubsystemImplementation :out
ImplementSubsystems - -> Interface :out
ImplementSubsystems - -> EngineerComponents
Role <|- - Implementation\nRole
Implementation\nRole <|- - EngineerComponents
@enduml

PlantUML version 1.2019.05(Sat Apr 20 18:45:36 CEST 2019)
(GPL source distribution)
Java Runtime: Java(TM) SE Runtime Environment
JVM: Java HotSpot(TM) 64-Bit Server VM
Java Version: 11.0.8+10-LTS
Operating System: Windows 10
OS Version: 10.0
Default Encoding: windows-1252
Language: es
Country: ES
--></g></svg>