<?xml version="1.0" encoding="UTF-8" standalone="no"?><svg xmlns="http://www.w3.org/2000/svg" xmlns:xlink="http://www.w3.org/1999/xlink" contentScriptType="application/ecmascript" contentStyleType="text/css" height="1455px" preserveAspectRatio="none" style="width:528px;height:1455px;background:#222222;" version="1.1" viewBox="0 0 528 1455" width="528px" zoomAndPan="magnify"><defs/><g><!--entity metaProgramacion--><polygon fill="#222222" points="6,22,6,22.2102,16.0769,21.5857,26.1538,22.1933,36.2308,22.3997,46.3077,21.2866,56.3846,21.9223,66.4615,21.5735,76.5385,21.6165,86.6154,21.9318,96.6923,21.3086,106.7692,22.5536,116.8462,21.3697,126.9231,21.8022,137,22.4319,147.0769,21.9142,157.1538,22.0682,167.2308,21.9681,177.3077,22.1785,187.3846,22.2391,197.4615,22.5857,207.5385,22.6711,217.6154,22.6793,227.6923,22.2546,237.7692,22.4636,247.8462,22.7022,257.9231,21.2788,268,22,268.6785,22,267.7035,31.6227,268.5338,41.2453,267.505,50.868,267.9315,60.4906,268,70.1133,268,70.8549,257.9231,70.0645,247.8462,70.2186,237.7692,70.4519,227.6923,70.5295,217.6154,70.1094,207.5385,70.4005,197.4615,69.5409,187.3846,70.3977,177.3077,70.6615,167.2308,70.5578,157.1538,70.7263,147.0769,69.6302,137,69.4611,126.9231,69.4919,116.8462,70.0544,106.7692,69.9168,96.6923,70.7947,86.6154,69.9386,76.5385,69.7702,66.4615,70.3415,56.3846,69.4464,46.3077,69.5942,36.2308,70.7622,26.1538,70.5489,16.0769,70.8478,6,70.1133,5.6782,70.1133,6.3192,60.4906,6.5904,50.868,5.5276,41.2453,5.9041,31.6227,6,22" style="stroke: #228B22; stroke-width: 3.0;"/><text fill="#228B22" font-family="courier" font-size="20" font-weight="bold" lengthAdjust="spacingAndGlyphs" textLength="240" x="17" y="53.1074">12. MetaProgramación</text><!--entity programacionConcurrente--><polygon fill="#222222" points="303,8,303,8.2102,313.1905,7.5857,323.381,8.1933,333.5714,8.3997,343.7619,7.2866,353.9524,7.9223,364.1429,7.5735,374.3333,7.6165,384.5238,7.9318,394.7143,7.3086,404.9048,8.5536,415.0952,7.3697,425.2857,7.8022,435.4762,8.4319,445.6667,7.9142,455.8571,8.0682,466.0476,7.9681,476.2381,8.1785,486.4286,8.2391,496.619,8.5857,506.8095,8.6711,517,8,517.6793,8,517.2546,17.5283,517.4636,27.0566,517.7022,36.585,516.2788,46.1133,517.6785,55.6416,516.7035,65.1699,517.5338,74.6982,517,84.2266,517,83.7315,506.8095,84.1581,496.619,84.9682,486.4286,84.1778,476.2381,84.3319,466.0476,84.5652,455.8571,84.6428,445.6667,84.2227,435.4762,84.5138,425.2857,83.6541,415.0952,84.5109,404.9048,84.7748,394.7143,84.6711,384.5238,84.8396,374.3333,83.7435,364.1429,83.5744,353.9524,83.6052,343.7619,84.1677,333.5714,84.03,323.381,84.908,313.1905,84.0519,303,84.2266,302.6569,84.2266,303.2283,74.6982,302.3332,65.1699,302.4809,55.6416,303.649,46.1133,303.4357,36.585,303.7345,27.0566,302.6782,17.5283,303,8" style="stroke: #228B22; stroke-width: 3.0;"/><text fill="#228B22" font-family="courier" font-size="20" font-weight="bold" lengthAdjust="spacingAndGlyphs" textLength="192" x="314" y="39.1074">11. Programación</text><text fill="#228B22" font-family="courier" font-size="20" font-weight="bold" lengthAdjust="spacingAndGlyphs" textLength="132" x="314" y="67.2207">Concurrente</text><!--entity programacionFuncional--><polygon fill="#222222" points="166,144,166,144.2102,176.1905,143.5857,186.381,144.1933,196.5714,144.3997,206.7619,143.2866,216.9524,143.9223,227.1429,143.5735,237.3333,143.6165,247.5238,143.9318,257.7143,143.3086,267.9048,144.5536,278.0952,143.3697,288.2857,143.8022,298.4762,144.4319,308.6667,143.9142,318.8571,144.0682,329.0476,143.9681,339.2381,144.1785,349.4286,144.2391,359.619,144.5857,369.8095,144.6711,380,144,380.6793,144,380.2546,153.5283,380.4636,163.0566,380.7022,172.585,379.2788,182.1133,380.6785,191.6416,379.7035,201.1699,380.5338,210.6982,380,220.2266,380,219.7315,369.8095,220.1581,359.619,220.9682,349.4286,220.1778,339.2381,220.3319,329.0476,220.5652,318.8571,220.6428,308.6667,220.2227,298.4762,220.5138,288.2857,219.6541,278.0952,220.5109,267.9048,220.7748,257.7143,220.6711,247.5238,220.8396,237.3333,219.7435,227.1429,219.5744,216.9524,219.6052,206.7619,220.1677,196.5714,220.03,186.381,220.908,176.1905,220.0519,166,220.2266,165.6569,220.2266,166.2283,210.6982,165.3332,201.1699,165.4809,191.6416,166.649,182.1133,166.4357,172.585,166.7345,163.0566,165.6782,153.5283,166,144" style="stroke: #228B22; stroke-width: 3.0;"/><text fill="#228B22" font-family="courier" font-size="20" font-weight="bold" lengthAdjust="spacingAndGlyphs" textLength="192" x="177" y="175.1074">10. Programación</text><text fill="#228B22" font-family="courier" font-size="20" font-weight="bold" lengthAdjust="spacingAndGlyphs" textLength="108" x="177" y="203.2207">Funcional</text><!--entity programacionRecursiva--><polygon fill="#222222" points="172,280,172,280.2102,182.1,279.5857,192.2,280.1933,202.3,280.3997,212.4,279.2866,222.5,279.9223,232.6,279.5735,242.7,279.6165,252.8,279.9318,262.9,279.3086,273,280.5536,283.1,279.3697,293.2,279.8022,303.3,280.4319,313.4,279.9142,323.5,280.0682,333.6,279.9681,343.7,280.1785,353.8,280.2391,363.9,280.5857,374,280,374.6711,280,374.6793,289.5283,374.2546,299.0566,374.4636,308.585,374.7022,318.1133,373.2788,327.6416,374.6785,337.1699,373.7035,346.6982,374,356.2266,374,356.7604,363.9,355.7315,353.8,356.1581,343.7,356.9682,333.6,356.1778,323.5,356.3319,313.4,356.5652,303.3,356.6428,293.2,356.2227,283.1,356.5138,273,355.6541,262.9,356.5109,252.8,356.7748,242.7,356.6711,232.6,356.8396,222.5,355.7435,212.4,355.5744,202.3,355.6052,192.2,356.1677,182.1,356.03,172,356.2266,172.6814,356.2266,171.8253,346.6982,171.6569,337.1699,172.2283,327.6416,171.3332,318.1133,171.4809,308.585,172.649,299.0566,172.4357,289.5283,172,280" style="stroke: #228B22; stroke-width: 3.0;"/><text fill="#228B22" font-family="courier" font-size="20" font-weight="bold" lengthAdjust="spacingAndGlyphs" textLength="180" x="183" y="311.1074">9. Programación</text><text fill="#228B22" font-family="courier" font-size="20" font-weight="bold" lengthAdjust="spacingAndGlyphs" textLength="108" x="183" y="339.2207">Recursiva</text><!--entity programacionParametrizada--><polygon fill="#222222" points="172,416,172,416.2102,182.1,415.5857,192.2,416.1933,202.3,416.3997,212.4,415.2866,222.5,415.9223,232.6,415.5735,242.7,415.6165,252.8,415.9318,262.9,415.3086,273,416.5536,283.1,415.3697,293.2,415.8022,303.3,416.4319,313.4,415.9142,323.5,416.0682,333.6,415.9681,343.7,416.1785,353.8,416.2391,363.9,416.5857,374,416,374.6711,416,374.6793,425.5283,374.2546,435.0566,374.4636,444.585,374.7022,454.1133,373.2788,463.6416,374.6785,473.1699,373.7035,482.6982,374,492.2266,374,492.7604,363.9,491.7315,353.8,492.1581,343.7,492.9682,333.6,492.1778,323.5,492.3319,313.4,492.5652,303.3,492.6428,293.2,492.2227,283.1,492.5138,273,491.6541,262.9,492.5109,252.8,492.7748,242.7,492.6711,232.6,492.8396,222.5,491.7435,212.4,491.5744,202.3,491.6052,192.2,492.1677,182.1,492.03,172,492.2266,172.6814,492.2266,171.8253,482.6982,171.6569,473.1699,172.2283,463.6416,171.3332,454.1133,171.4809,444.585,172.649,435.0566,172.4357,425.5283,172,416" style="stroke: #228B22; stroke-width: 3.0;"/><text fill="#228B22" font-family="courier" font-size="20" font-weight="bold" lengthAdjust="spacingAndGlyphs" textLength="180" x="183" y="447.1074">8. Programación</text><text fill="#228B22" font-family="courier" font-size="20" font-weight="bold" lengthAdjust="spacingAndGlyphs" textLength="156" x="183" y="475.2207">Parametrizada</text><!--entity programacionExcepciones--><polygon fill="#222222" points="172,552,172,552.2102,182.1,551.5857,192.2,552.1933,202.3,552.3997,212.4,551.2866,222.5,551.9223,232.6,551.5735,242.7,551.6165,252.8,551.9318,262.9,551.3086,273,552.5536,283.1,551.3697,293.2,551.8022,303.3,552.4319,313.4,551.9142,323.5,552.0682,333.6,551.9681,343.7,552.1785,353.8,552.2391,363.9,552.5857,374,552,374.6711,552,374.6793,561.5283,374.2546,571.0566,374.4636,580.585,374.7022,590.1133,373.2788,599.6416,374.6785,609.1699,373.7035,618.6982,374,628.2266,374,628.7604,363.9,627.7315,353.8,628.1581,343.7,628.9682,333.6,628.1778,323.5,628.3319,313.4,628.5652,303.3,628.6428,293.2,628.2227,283.1,628.5138,273,627.6541,262.9,628.5109,252.8,628.7748,242.7,628.6711,232.6,628.8396,222.5,627.7435,212.4,627.5744,202.3,627.6052,192.2,628.1677,182.1,628.03,172,628.2266,172.6814,628.2266,171.8253,618.6982,171.6569,609.1699,172.2283,599.6416,171.3332,590.1133,171.4809,580.585,172.649,571.0566,172.4357,561.5283,172,552" style="stroke: #228B22; stroke-width: 3.0;"/><text fill="#228B22" font-family="courier" font-size="20" font-weight="bold" lengthAdjust="spacingAndGlyphs" textLength="180" x="183" y="583.1074">7. Programación</text><text fill="#228B22" font-family="courier" font-size="20" font-weight="bold" lengthAdjust="spacingAndGlyphs" textLength="180" x="183" y="611.2207">con Excepciones</text><!--entity programacionModular--><polygon fill="#222222" points="172,688,172,688.2102,182.1,687.5857,192.2,688.1933,202.3,688.3997,212.4,687.2866,222.5,687.9223,232.6,687.5735,242.7,687.6165,252.8,687.9318,262.9,687.3086,273,688.5536,283.1,687.3697,293.2,687.8022,303.3,688.4319,313.4,687.9142,323.5,688.0682,333.6,687.9681,343.7,688.1785,353.8,688.2391,363.9,688.5857,374,688,374.6711,688,374.6793,697.5283,374.2546,707.0566,374.4636,716.585,374.7022,726.1133,373.2788,735.6416,374.6785,745.1699,373.7035,754.6982,374,764.2266,374,764.7604,363.9,763.7315,353.8,764.1581,343.7,764.9682,333.6,764.1778,323.5,764.3319,313.4,764.5652,303.3,764.6428,293.2,764.2227,283.1,764.5138,273,763.6541,262.9,764.5109,252.8,764.7748,242.7,764.6711,232.6,764.8396,222.5,763.7435,212.4,763.5744,202.3,763.6052,192.2,764.1677,182.1,764.03,172,764.2266,172.6814,764.2266,171.8253,754.6982,171.6569,745.1699,172.2283,735.6416,171.3332,726.1133,171.4809,716.585,172.649,707.0566,172.4357,697.5283,172,688" style="stroke: #228B22; stroke-width: 3.0;"/><text fill="#228B22" font-family="courier" font-size="20" font-weight="bold" lengthAdjust="spacingAndGlyphs" textLength="180" x="183" y="719.1074">6. Programación</text><text fill="#228B22" font-family="courier" font-size="20" font-weight="bold" lengthAdjust="spacingAndGlyphs" textLength="84" x="183" y="747.2207">Modular</text><!--entity programacionOrientadaObjetos--><polygon fill="#222222" points="148,824,148,824.2102,158,823.5857,168,824.1933,178,824.3997,188,823.2866,198,823.9223,208,823.5735,218,823.6165,228,823.9318,238,823.3086,248,824.5536,258,823.3697,268,823.8022,278,824.4319,288,823.9142,298,824.0682,308,823.9681,318,824.1785,328,824.2391,338,824.5857,348,824.6711,358,824.6793,368,824.2546,378,824.4636,388,824.7022,398,824,397.2788,824,398.6785,833.5283,397.7035,843.0566,398.5338,852.585,397.505,862.1133,397.9315,871.6416,398.7416,881.1699,397.9513,890.6982,398,900.2266,398,900.3319,388,900.5652,378,900.6428,368,900.2227,358,900.5138,348,899.6541,338,900.5109,328,900.7748,318,900.6711,308,900.8396,298,899.7435,288,899.5744,278,899.6052,268,900.1677,258,900.03,248,900.908,238,900.0519,228,899.8835,218,900.4548,208,899.5597,198,899.7074,188,900.8755,178,900.6622,168,900.9611,158,899.9048,148,900.2266,148.3192,900.2266,148.5904,890.6982,147.5276,881.1699,147.9041,871.6416,148.126,862.1133,148.6518,852.585,147.9958,843.0566,148.4626,833.5283,148,824" style="stroke: #228B22; stroke-width: 3.0;"/><text fill="#228B22" font-family="courier" font-size="20" font-weight="bold" lengthAdjust="spacingAndGlyphs" textLength="180" x="159" y="855.1074">5. Programación</text><text fill="#228B22" font-family="courier" font-size="20" font-weight="bold" lengthAdjust="spacingAndGlyphs" textLength="228" x="159" y="883.2207">Orientada a Objetos</text><!--entity programacionBasadaObjetos--><polygon fill="#222222" points="166,960,166,960.2102,176.1905,959.5857,186.381,960.1933,196.5714,960.3997,206.7619,959.2866,216.9524,959.9223,227.1429,959.5735,237.3333,959.6165,247.5238,959.9318,257.7143,959.3086,267.9048,960.5536,278.0952,959.3697,288.2857,959.8022,298.4762,960.4319,308.6667,959.9142,318.8571,960.0682,329.0476,959.9681,339.2381,960.1785,349.4286,960.2391,359.619,960.5857,369.8095,960.6711,380,960,380.6793,960,380.2546,969.5283,380.4636,979.0566,380.7022,988.585,379.2788,998.1133,380.6785,1007.6416,379.7035,1017.1699,380.5338,1026.6982,380,1036.2266,380,1035.7315,369.8095,1036.1581,359.619,1036.9682,349.4286,1036.1778,339.2381,1036.3319,329.0476,1036.5652,318.8571,1036.6428,308.6667,1036.2227,298.4762,1036.5138,288.2857,1035.6541,278.0952,1036.5109,267.9048,1036.7748,257.7143,1036.6711,247.5238,1036.8396,237.3333,1035.7435,227.1429,1035.5744,216.9524,1035.6052,206.7619,1036.1677,196.5714,1036.03,186.381,1036.908,176.1905,1036.0519,166,1036.2266,165.6569,1036.2266,166.2283,1026.6982,165.3332,1017.1699,165.4809,1007.6416,166.649,998.1133,166.4357,988.585,166.7345,979.0566,165.6782,969.5283,166,960" style="stroke: #228B22; stroke-width: 3.0;"/><text fill="#228B22" font-family="courier" font-size="20" font-weight="bold" lengthAdjust="spacingAndGlyphs" textLength="180" x="177" y="991.1074">4. Programación</text><text fill="#228B22" font-family="courier" font-size="20" font-weight="bold" lengthAdjust="spacingAndGlyphs" textLength="192" x="177" y="1019.2207">Basada a Objetos</text><!--entity programacionBasadaProcesos--><polygon fill="#222222" points="154,1096,154,1096.2102,163.9167,1095.5857,173.8333,1096.1933,183.75,1096.3997,193.6667,1095.2866,203.5833,1095.9223,213.5,1095.5735,223.4167,1095.6165,233.3333,1095.9318,243.25,1095.3086,253.1667,1096.5536,263.0833,1095.3697,273,1095.8022,282.9167,1096.4319,292.8333,1095.9142,302.75,1096.0682,312.6667,1095.9681,322.5833,1096.1785,332.5,1096.2391,342.4167,1096.5857,352.3333,1096.6711,362.25,1096.6793,372.1667,1096.2546,382.0833,1096.4636,392,1096,392.7022,1096,391.2788,1105.5283,392.6785,1115.0566,391.7035,1124.585,392.5338,1134.1133,391.505,1143.6416,391.9315,1153.1699,392.7416,1162.6982,392,1172.2266,392,1172.1778,382.0833,1172.3319,372.1667,1172.5652,362.25,1172.6428,352.3333,1172.2227,342.4167,1172.5138,332.5,1171.6541,322.5833,1172.5109,312.6667,1172.7748,302.75,1172.6711,292.8333,1172.8396,282.9167,1171.7435,273,1171.5744,263.0833,1171.6052,253.1667,1172.1677,243.25,1172.03,233.3333,1172.908,223.4167,1172.0519,213.5,1171.8835,203.5833,1172.4548,193.6667,1171.5597,183.75,1171.7074,173.8333,1172.8755,163.9167,1172.6622,154,1172.2266,154.7345,1172.2266,153.6782,1162.6982,154.3192,1153.1699,154.5904,1143.6416,153.5276,1134.1133,153.9041,1124.585,154.126,1115.0566,154.6518,1105.5283,154,1096" style="stroke: #228B22; stroke-width: 3.0;"/><text fill="#228B22" font-family="courier" font-size="20" font-weight="bold" lengthAdjust="spacingAndGlyphs" textLength="180" x="165" y="1127.1074">3. Programación</text><text fill="#228B22" font-family="courier" font-size="20" font-weight="bold" lengthAdjust="spacingAndGlyphs" textLength="216" x="165" y="1155.2207">basada en Procesos</text><!--entity programacionEstructurada--><polygon fill="#222222" points="172,1232,172,1232.2102,182.1,1231.5857,192.2,1232.1933,202.3,1232.3997,212.4,1231.2866,222.5,1231.9223,232.6,1231.5735,242.7,1231.6165,252.8,1231.9318,262.9,1231.3086,273,1232.5536,283.1,1231.3697,293.2,1231.8022,303.3,1232.4319,313.4,1231.9142,323.5,1232.0682,333.6,1231.9681,343.7,1232.1785,353.8,1232.2391,363.9,1232.5857,374,1232,374.6711,1232,374.6793,1241.5283,374.2546,1251.0566,374.4636,1260.585,374.7022,1270.1133,373.2788,1279.6416,374.6785,1289.1699,373.7035,1298.6982,374,1308.2266,374,1308.7604,363.9,1307.7315,353.8,1308.1581,343.7,1308.9682,333.6,1308.1778,323.5,1308.3319,313.4,1308.5652,303.3,1308.6428,293.2,1308.2227,283.1,1308.5138,273,1307.6541,262.9,1308.5109,252.8,1308.7748,242.7,1308.6711,232.6,1308.8396,222.5,1307.7435,212.4,1307.5744,202.3,1307.6052,192.2,1308.1677,182.1,1308.03,172,1308.2266,172.6814,1308.2266,171.8253,1298.6982,171.6569,1289.1699,172.2283,1279.6416,171.3332,1270.1133,171.4809,1260.585,172.649,1251.0566,172.4357,1241.5283,172,1232" style="stroke: #228B22; stroke-width: 3.0;"/><text fill="#228B22" font-family="courier" font-size="20" font-weight="bold" lengthAdjust="spacingAndGlyphs" textLength="180" x="183" y="1263.1074">2. Programación</text><text fill="#228B22" font-family="courier" font-size="20" font-weight="bold" lengthAdjust="spacingAndGlyphs" textLength="144" x="183" y="1291.2207">Estructurada</text><!--entity programacionImperativa--><polygon fill="#222222" points="172,1368,172,1368.2102,182.1,1367.5857,192.2,1368.1933,202.3,1368.3997,212.4,1367.2866,222.5,1367.9223,232.6,1367.5735,242.7,1367.6165,252.8,1367.9318,262.9,1367.3086,273,1368.5536,283.1,1367.3697,293.2,1367.8022,303.3,1368.4319,313.4,1367.9142,323.5,1368.0682,333.6,1367.9681,343.7,1368.1785,353.8,1368.2391,363.9,1368.5857,374,1368,374.6711,1368,374.6793,1377.5283,374.2546,1387.0566,374.4636,1396.585,374.7022,1406.1133,373.2788,1415.6416,374.6785,1425.1699,373.7035,1434.6982,374,1444.2266,374,1444.7604,363.9,1443.7315,353.8,1444.1581,343.7,1444.9682,333.6,1444.1778,323.5,1444.3319,313.4,1444.5652,303.3,1444.6428,293.2,1444.2227,283.1,1444.5138,273,1443.6541,262.9,1444.5109,252.8,1444.7748,242.7,1444.6711,232.6,1444.8396,222.5,1443.7435,212.4,1443.5744,202.3,1443.6052,192.2,1444.1677,182.1,1444.03,172,1444.2266,172.6814,1444.2266,171.8253,1434.6982,171.6569,1425.1699,172.2283,1415.6416,171.3332,1406.1133,171.4809,1396.585,172.649,1387.0566,172.4357,1377.5283,172,1368" style="stroke: #228B22; stroke-width: 3.0;"/><text fill="#228B22" font-family="courier" font-size="20" font-weight="bold" lengthAdjust="spacingAndGlyphs" textLength="180" x="183" y="1399.1074">1. Programación</text><text fill="#228B22" font-family="courier" font-size="20" font-weight="bold" lengthAdjust="spacingAndGlyphs" textLength="120" x="183" y="1427.2207">Imperativa</text><!--link metaProgramacion to programacionFuncional--><path d="M160.38,70.04 L160.5767,70.2396 L167.1153,76.6645 L174.8069,84.2596 L182.123,91.4736 L188.2044,97.4344 L195.9223,105.0562 L202.7189,111.7429 L209.8821,118.8018 L217.3002,126.1193 L223.84,132.5453 L231.61,140.22 " fill="none" style="stroke: #A9A9A9; stroke-width: 2.0;"/><polygon fill="#A9A9A9" points="235.31,143.87,235.3752,143.8955,234.4632,141.9855,233.9335,140.2252,233.2793,138.4161,232.2156,136.4467,231.7188,134.6992,231.6929,134.6991,231.5835,135.8297,231.6047,136.9611,231.7167,138.0931,231.5158,139.2232,231.7531,140.356,231.7542,140.5405,230.6205,140.1527,229.49,140.3038,228.3599,140.5205,227.2275,140.3548,226.0964,140.3902,226.1044,140.4115,227.9353,141.0762,229.8028,141.8378,231.6527,142.5527,233.5362,143.3567,235.31,143.87" style="stroke: #A9A9A9; stroke-width: 2.0;"/><!--link programacionConcurrente to programacionFuncional--><path d="M371.84,84.33 L372.0359,84.5304 L364.2937,90.9376 L357.7002,98.5192 L350.7326,105.7185 L342.5349,111.66 L335.9676,119.2684 L328.4824,125.9385 L321.3625,132.9819 L314.56,140.35 " fill="none" style="stroke: #A9A9A9; stroke-width: 2.0;"/><polygon fill="#A9A9A9" points="310.96,143.87,310.9845,143.9356,312.7573,143.0521,314.6736,142.5534,316.5431,141.9293,318.259,140.8932,320.1876,140.4275,320.1874,140.4016,319.0549,140.2739,317.9237,140.2768,316.7935,140.3705,315.66,140.1513,314.5311,140.3704,314.7156,140.3722,314.3324,139.2369,314.488,138.1071,314.7093,136.9779,314.5482,135.8448,314.5882,134.7138,314.6093,134.7222,313.8527,136.5411,313.1922,138.3982,312.4854,140.2369,311.8671,142.1107,310.96,143.87" style="stroke: #A9A9A9; stroke-width: 2.0;"/><!--link programacionFuncional to programacionRecursiva--><path d="M273,220.33 L273.2802,220.33 L272.4476,231.176 L273.2577,242.022 L273.5329,252.868 L272.0488,263.714 L273,274.56 " fill="none" style="stroke: #A9A9A9; stroke-width: 2.0;"/><polygon fill="#A9A9A9" points="273,279.87,273.064,279.8985,273.6738,278.0139,274.6589,276.2962,275.5217,274.5241,275.9827,272.5734,277,270.87,276.9817,270.8517,276.0995,271.5695,275.3096,272.3796,274.5839,273.2539,273.637,273.907,273,274.87,273.1305,275.0005,272.0514,273.9214,271.3534,273.2234,270.7018,272.5718,269.7798,271.6498,269,270.87,269.0208,270.8792,269.7903,272.6657,270.6544,274.4942,271.4728,276.3024,272.3784,278.1493,273,279.87" style="stroke: #A9A9A9; stroke-width: 2.0;"/><!--link programacionRecursiva to programacionParametrizada--><path d="M273,356.33 L273.2802,356.33 L272.4476,367.176 L273.2577,378.022 L273.5329,388.868 L272.0488,399.714 L273,410.56 " fill="none" style="stroke: #A9A9A9; stroke-width: 2.0;"/><polygon fill="#A9A9A9" points="273,415.87,273.064,415.8985,273.6738,414.0139,274.6589,412.2962,275.5217,410.5241,275.9827,408.5734,277,406.87,276.9817,406.8517,276.0995,407.5695,275.3096,408.3796,274.5839,409.2539,273.637,409.907,273,410.87,273.1305,411.0005,272.0514,409.9214,271.3534,409.2234,270.7018,408.5718,269.7798,407.6498,269,406.87,269.0208,406.8792,269.7903,408.6657,270.6544,410.4942,271.4728,412.3024,272.3784,414.1493,273,415.87" style="stroke: #A9A9A9; stroke-width: 2.0;"/><!--link programacionParametrizada to programacionExcepciones--><path d="M273,492.33 L273.2802,492.33 L272.4476,503.176 L273.2577,514.022 L273.5329,524.868 L272.0488,535.714 L273,546.56 " fill="none" style="stroke: #A9A9A9; stroke-width: 2.0;"/><polygon fill="#A9A9A9" points="273,551.87,273.064,551.8985,273.6738,550.0139,274.6589,548.2962,275.5217,546.5241,275.9827,544.5734,277,542.87,276.9817,542.8517,276.0995,543.5695,275.3096,544.3796,274.5839,545.2539,273.637,545.907,273,546.87,273.1305,547.0005,272.0514,545.9214,271.3534,545.2234,270.7018,544.5718,269.7798,543.6498,269,542.87,269.0208,542.8792,269.7903,544.6657,270.6544,546.4942,271.4728,548.3024,272.3784,550.1493,273,551.87" style="stroke: #A9A9A9; stroke-width: 2.0;"/><!--link programacionExcepciones to programacionModular--><path d="M273,628.33 L273.2802,628.33 L272.4476,639.176 L273.2577,650.022 L273.5329,660.868 L272.0488,671.714 L273,682.56 " fill="none" style="stroke: #A9A9A9; stroke-width: 2.0;"/><polygon fill="#A9A9A9" points="273,687.87,273.064,687.8985,273.6738,686.0139,274.6589,684.2962,275.5217,682.5241,275.9827,680.5734,277,678.87,276.9817,678.8517,276.0995,679.5695,275.3096,680.3796,274.5839,681.2539,273.637,681.907,273,682.87,273.1305,683.0005,272.0514,681.9214,271.3534,681.2234,270.7018,680.5718,269.7798,679.6498,269,678.87,269.0208,678.8792,269.7903,680.6657,270.6544,682.4942,271.4728,684.3024,272.3784,686.1493,273,687.87" style="stroke: #A9A9A9; stroke-width: 2.0;"/><!--link programacionModular to programacionOrientadaObjetos--><path d="M273,764.33 L273.2802,764.33 L272.4476,775.176 L273.2577,786.022 L273.5329,796.868 L272.0488,807.714 L273,818.56 " fill="none" style="stroke: #A9A9A9; stroke-width: 2.0;"/><polygon fill="#A9A9A9" points="273,823.87,273.064,823.8985,273.6738,822.0139,274.6589,820.2962,275.5217,818.5241,275.9827,816.5734,277,814.87,276.9817,814.8517,276.0995,815.5695,275.3096,816.3796,274.5839,817.2539,273.637,817.907,273,818.87,273.1305,819.0005,272.0514,817.9214,271.3534,817.2234,270.7018,816.5718,269.7798,815.6498,269,814.87,269.0208,814.8792,269.7903,816.6657,270.6544,818.4942,271.4728,820.3024,272.3784,822.1493,273,823.87" style="stroke: #A9A9A9; stroke-width: 2.0;"/><!--link programacionOrientadaObjetos to programacionBasadaObjetos--><path d="M273,900.33 L273.2802,900.33 L272.4476,911.176 L273.2577,922.022 L273.5329,932.868 L272.0488,943.714 L273,954.56 " fill="none" style="stroke: #A9A9A9; stroke-width: 2.0;"/><polygon fill="#A9A9A9" points="273,959.87,273.064,959.8985,273.6738,958.0139,274.6589,956.2962,275.5217,954.5241,275.9827,952.5734,277,950.87,276.9817,950.8517,276.0995,951.5695,275.3096,952.3796,274.5839,953.2539,273.637,953.907,273,954.87,273.1305,955.0005,272.0514,953.9214,271.3534,953.2234,270.7018,952.5718,269.7798,951.6498,269,950.87,269.0208,950.8792,269.7903,952.6657,270.6544,954.4942,271.4728,956.3024,272.3784,958.1493,273,959.87" style="stroke: #A9A9A9; stroke-width: 2.0;"/><!--link programacionBasadaObjetos to programacionBasadaProcesos--><path d="M273,1036.33 L273.2802,1036.33 L272.4476,1047.176 L273.2577,1058.022 L273.5329,1068.868 L272.0488,1079.714 L273,1090.56 " fill="none" style="stroke: #A9A9A9; stroke-width: 2.0;"/><polygon fill="#A9A9A9" points="273,1095.87,273.064,1095.8985,273.6738,1094.0139,274.6589,1092.2962,275.5217,1090.5241,275.9827,1088.5734,277,1086.87,276.9817,1086.8517,276.0995,1087.5695,275.3096,1088.3796,274.5839,1089.2539,273.637,1089.907,273,1090.87,273.1305,1091.0005,272.0514,1089.9214,271.3534,1089.2234,270.7018,1088.5718,269.7798,1087.6498,269,1086.87,269.0208,1086.8792,269.7903,1088.6657,270.6544,1090.4942,271.4728,1092.3024,272.3784,1094.1493,273,1095.87" style="stroke: #A9A9A9; stroke-width: 2.0;"/><!--link programacionBasadaProcesos to programacionEstructurada--><path d="M273,1172.33 L273.2802,1172.33 L272.4476,1183.176 L273.2577,1194.022 L273.5329,1204.868 L272.0488,1215.714 L273,1226.56 " fill="none" style="stroke: #A9A9A9; stroke-width: 2.0;"/><polygon fill="#A9A9A9" points="273,1231.87,273.064,1231.8985,273.6738,1230.0139,274.6589,1228.2962,275.5217,1226.5241,275.9827,1224.5734,277,1222.87,276.9817,1222.8517,276.0995,1223.5695,275.3096,1224.3796,274.5839,1225.2539,273.637,1225.907,273,1226.87,273.1305,1227.0005,272.0514,1225.9214,271.3534,1225.2234,270.7018,1224.5718,269.7798,1223.6498,269,1222.87,269.0208,1222.8792,269.7903,1224.6657,270.6544,1226.4942,271.4728,1228.3024,272.3784,1230.1493,273,1231.87" style="stroke: #A9A9A9; stroke-width: 2.0;"/><!--link programacionEstructurada to programacionImperativa--><path d="M273,1308.33 L273.2802,1308.33 L272.4476,1319.176 L273.2577,1330.022 L273.5329,1340.868 L272.0488,1351.714 L273,1362.56 " fill="none" style="stroke: #A9A9A9; stroke-width: 2.0;"/><polygon fill="#A9A9A9" points="273,1367.87,273.064,1367.8985,273.6738,1366.0139,274.6589,1364.2962,275.5217,1362.5241,275.9827,1360.5734,277,1358.87,276.9817,1358.8517,276.0995,1359.5695,275.3096,1360.3796,274.5839,1361.2539,273.637,1361.907,273,1362.87,273.1305,1363.0005,272.0514,1361.9214,271.3534,1361.2234,270.7018,1360.5718,269.7798,1359.6498,269,1358.87,269.0208,1358.8792,269.7903,1360.6657,270.6544,1362.4942,271.4728,1364.3024,272.3784,1366.1493,273,1367.87" style="stroke: #A9A9A9; stroke-width: 2.0;"/><!--
@startuml
skinparam backgroundColor #222222
skinparam handwritten true
skinparam shadowing false
skinparam padding 1
skinparam arrow {
    Thickness 2
    Color #DarkGrey
    FontSize 20
    FontName courier
    FontStyle normal
    FontColor #DarkGrey
}
skinparam rectangle {
    BorderThickness 3
    BorderColor #forestGreen
    BackgroundColor #222222
    FontSize 20
    FontName courier
    FontStyle bold
    FontColor #forestGreen
}
hide stereotype

rectangle "12. MetaProgramación" as metaProgramacion
rectangle "11. Programación\nConcurrente" as programacionConcurrente
rectangle "10. Programación\nFuncional" as programacionFuncional
rectangle "9. Programación\nRecursiva" as programacionRecursiva
rectangle "8. Programación\nParametrizada" as programacionParametrizada
rectangle "7. Programación\ncon Excepciones" as programacionExcepciones
rectangle "6. Programación\nModular" as programacionModular
rectangle "5. Programación\nOrientada a Objetos" as programacionOrientadaObjetos
rectangle "4. Programación\nBasada a Objetos" as programacionBasadaObjetos
rectangle "3. Programación\nbasada en Procesos" as programacionBasadaProcesos
rectangle "2. Programación\nEstructurada" as programacionEstructurada
rectangle "1. Programación\nImperativa" as programacionImperativa

metaProgramacion -down-> programacionFuncional
programacionConcurrente -down-> programacionFuncional
programacionFuncional -down-> programacionRecursiva
programacionRecursiva -down-> programacionParametrizada
programacionParametrizada -down-> programacionExcepciones
programacionExcepciones -down-> programacionModular
programacionModular -down-> programacionOrientadaObjetos
programacionOrientadaObjetos -down-> programacionBasadaObjetos
programacionBasadaObjetos -down-> programacionBasadaProcesos
programacionBasadaProcesos -down-> programacionEstructurada
programacionEstructurada -down-> programacionImperativa
@enduml

PlantUML version 1.2019.05(Sat Apr 20 18:45:36 CEST 2019)
(GPL source distribution)
Java Runtime: Java(TM) SE Runtime Environment
JVM: Java HotSpot(TM) 64-Bit Server VM
Java Version: 11.0.14+8-LTS-263
Operating System: Windows 10
OS Version: 10.0
Default Encoding: windows-1252
Language: es
Country: ES
--></g></svg>