<?xml version="1.0" encoding="UTF-8" standalone="no"?><svg xmlns="http://www.w3.org/2000/svg" xmlns:xlink="http://www.w3.org/1999/xlink" contentScriptType="application/ecmascript" contentStyleType="text/css" height="633px" preserveAspectRatio="none" style="width:393px;height:633px;background:#222222;" version="1.1" viewBox="0 0 393 633" width="393px" zoomAndPan="magnify"><defs/><g><!--class Sistema--><polygon fill="#222222" points="142.36,8,142.36,8.2102,152.5822,7.5857,162.8044,8.1933,173.0267,8.3997,183.2489,7.2866,193.4711,7.9223,203.6933,7.5735,213.9156,7.6165,224.1378,7.9318,234.36,8,233.6686,8,234.9136,18.8227,233.7297,29.6453,234.1622,40.468,234.7919,51.2906,234.36,62.1133,234.36,62.0275,224.1378,62.1815,213.9156,62.0813,203.6933,62.2918,193.4711,62.3524,183.2489,62.699,173.0267,62.7843,162.8044,62.7925,152.5822,62.3679,142.36,62.1133,142.8236,62.1133,143.0622,51.2906,141.6388,40.468,143.0385,29.6453,142.0635,18.8227,142.36,8" style="stroke: #A9A9A9; stroke-width: 3.0;"/><text fill="#A9A9A9" font-family="courier" font-size="20" font-weight="bold" lengthAdjust="spacingAndGlyphs" textLength="84" x="146.36" y="34.1074">Sistema</text><path d="M143.36,46.1133 L143.36,46.3935 L153.36,45.5609 L163.36,46.371 L173.36,46.6462 L183.36,45.1621 L193.36,46.0097 L203.36,45.5446 L213.36,45.6019 L223.36,46.0224 L233.36,46.1133 " fill="#222222" style="stroke: #A9A9A9; stroke-width: 3.0;"/><path d="M143.36,54.1133 L143.36,54.3935 L153.36,53.5609 L163.36,54.371 L173.36,54.6462 L183.36,53.1621 L193.36,54.0097 L203.36,53.5446 L213.36,53.6019 L223.36,54.0224 L233.36,54.1133 " fill="#222222" style="stroke: #A9A9A9; stroke-width: 3.0;"/><!--class SistemaComplejo--><polygon fill="#222222" points="84.36,122,84.36,122.2102,94.76,121.5857,105.16,122.1933,115.56,122.3997,125.96,121.2866,136.36,121.9223,146.76,121.5735,157.16,121.6165,167.56,121.9318,177.96,121.3086,188.36,122,188.9136,122,187.7297,132.0283,188.1622,142.0566,188.7919,152.085,188.2742,162.1133,188.4282,172.1416,188.3281,182.1699,188.5385,192.1982,188.36,202.2266,188.36,202.4657,177.96,202.8123,167.56,202.8976,157.16,202.9058,146.76,202.4812,136.36,202.6901,125.96,202.9288,115.56,201.5054,105.16,202.9051,94.76,201.9301,84.36,202.2266,84.8938,202.2266,83.865,192.1982,84.2915,182.1699,85.1016,172.1416,84.3113,162.1133,84.4653,152.085,84.6986,142.0566,84.7762,132.0283,84.36,122" style="stroke: #A9A9A9; stroke-width: 3.0;"/><text fill="#A9A9A9" font-family="courier" font-size="20" font-weight="bold" lengthAdjust="spacingAndGlyphs" textLength="84" x="94.36" y="148.1074">Sistema</text><text fill="#A9A9A9" font-family="courier" font-size="20" font-weight="bold" lengthAdjust="spacingAndGlyphs" textLength="96" x="88.36" y="174.2207">Complejo</text><path d="M85.36,186.2266 L85.36,186.5068 L95.56,185.6741 L105.76,186.4843 L115.96,186.7595 L126.16,185.2754 L136.36,186.1229 L146.56,185.6579 L156.76,185.7152 L166.96,186.1357 L177.16,185.3047 L187.36,186.2266 " fill="#222222" style="stroke: #A9A9A9; stroke-width: 3.0;"/><path d="M85.36,194.2266 L85.36,194.5068 L95.56,193.6741 L105.76,194.4843 L115.96,194.7595 L126.16,193.2754 L136.36,194.1229 L146.56,193.6579 L156.76,193.7152 L166.96,194.1357 L177.16,193.3047 L187.36,194.2266 " fill="#222222" style="stroke: #A9A9A9; stroke-width: 3.0;"/><!--class Software--><polygon fill="#222222" points="137.36,402,137.36,402.2102,147.76,401.5857,158.16,402.1933,168.56,402.3997,178.96,401.2866,189.36,401.9223,199.76,401.5735,210.16,401.6165,220.56,401.9318,230.96,401.3086,241.36,402,241.9136,402,240.7297,412.8227,241.1622,423.6453,241.7919,434.468,241.2742,445.2906,241.36,456.1133,241.36,456.1815,230.96,456.0813,220.56,456.2918,210.16,456.3524,199.76,456.699,189.36,456.7843,178.96,456.7925,168.56,456.3679,158.16,456.5769,147.76,456.8155,137.36,456.1133,136.6388,456.1133,138.0385,445.2906,137.0635,434.468,137.8938,423.6453,136.865,412.8227,137.36,402" style="stroke: #A9A9A9; stroke-width: 3.0;"/><text fill="#A9A9A9" font-family="courier" font-size="20" font-weight="bold" lengthAdjust="spacingAndGlyphs" textLength="96" x="141.36" y="428.1074">Software</text><path d="M138.36,440.1133 L138.36,440.3935 L148.56,439.5609 L158.76,440.371 L168.96,440.6462 L179.16,439.1621 L189.36,440.0097 L199.56,439.5446 L209.76,439.6019 L219.96,440.0224 L230.16,439.1915 L240.36,440.1133 " fill="#222222" style="stroke: #A9A9A9; stroke-width: 3.0;"/><path d="M138.36,448.1133 L138.36,448.3935 L148.56,447.5609 L158.76,448.371 L168.96,448.6462 L179.16,447.1621 L189.36,448.0097 L199.56,447.5446 L209.76,447.6019 L219.96,448.0224 L230.16,447.1915 L240.36,448.1133 " fill="#222222" style="stroke: #A9A9A9; stroke-width: 3.0;"/><!--class Informacion--><polygon fill="#222222" points="242.36,262,242.36,262.2102,252.36,261.5857,262.36,262.1933,272.36,262.3997,282.36,261.2866,292.36,261.9223,302.36,261.5735,312.36,261.6165,322.36,261.9318,332.36,261.3086,342.36,262.5536,352.36,261.3697,362.36,261.8022,372.36,262.4319,382.36,262,382.2742,262,382.4282,272.0283,382.3281,282.0566,382.5385,292.085,382.5991,302.1133,382.9457,312.1416,383.0311,322.1699,383.0393,332.1982,382.36,342.2266,382.36,342.4812,372.36,342.6901,362.36,342.9288,352.36,341.5054,342.36,342.9051,332.36,341.9301,322.36,342.7604,312.36,341.7315,302.36,342.1581,292.36,342.9682,282.36,342.1778,272.36,342.3319,262.36,342.5652,252.36,342.6428,242.36,342.2266,242.3561,342.2266,242.6472,332.1982,241.7876,322.1699,242.6444,312.1416,242.9082,302.1133,242.8045,292.085,242.973,282.0566,241.8769,272.0283,242.36,262" style="stroke: #A9A9A9; stroke-width: 3.0;"/><text fill="#A9A9A9" font-family="courier" font-size="20" font-weight="bold" lengthAdjust="spacingAndGlyphs" textLength="120" x="252.36" y="288.1074">Sistema de</text><text fill="#A9A9A9" font-family="courier" font-size="20" font-weight="bold" lengthAdjust="spacingAndGlyphs" textLength="132" x="246.36" y="314.2207">Información</text><path d="M243.36,326.2266 L243.36,326.5068 L253.2171,325.6741 L263.0743,326.4843 L272.9314,326.7595 L282.7886,325.2754 L292.6457,326.1229 L302.5029,325.6579 L312.36,325.7152 L322.2171,326.1357 L332.0743,325.3047 L341.9314,326.9648 L351.7886,325.3862 L361.6457,325.9629 L371.5029,326.8025 L381.36,326.2266 " fill="#222222" style="stroke: #A9A9A9; stroke-width: 3.0;"/><path d="M243.36,334.2266 L243.36,334.5068 L253.2171,333.6741 L263.0743,334.4843 L272.9314,334.7595 L282.7886,333.2754 L292.6457,334.1229 L302.5029,333.6579 L312.36,333.7152 L322.2171,334.1357 L332.0743,333.3047 L341.9314,334.9648 L351.7886,333.3862 L361.6457,333.9629 L371.5029,334.8025 L381.36,334.2266 " fill="#222222" style="stroke: #A9A9A9; stroke-width: 3.0;"/><!--class Usuario--><polygon fill="#222222" points="66.36,516,66.36,516.2102,76.36,515.5857,86.36,516.1933,96.36,516.3997,106.36,515.2866,116.36,515.9223,126.36,515.5735,136.36,515.6165,146.36,515.9318,156.36,515.3086,166.36,516.5536,176.36,515.3697,186.36,515.8022,196.36,516.4319,206.36,516,206.2742,516,206.4282,525.6673,206.3281,535.3345,206.5385,545.0018,206.5991,554.669,206.9457,564.3363,207.0311,574.0036,207.0393,583.6708,206.6146,593.3381,206.8236,603.0053,207.0622,612.6726,206.36,622.3398,206.36,621.6187,196.36,623.0184,186.36,622.0433,176.36,622.8737,166.36,621.8448,156.36,622.2713,146.36,623.0814,136.36,622.2911,126.36,622.4451,116.36,622.6785,106.36,622.7561,96.36,622.3359,86.36,622.6271,76.36,621.7674,66.36,622.3398,66.6444,622.3398,66.9082,612.6726,66.8045,603.0053,66.973,593.3381,65.8769,583.6708,65.7078,574.0036,65.7386,564.3363,66.3011,554.669,66.1635,545.0018,67.0414,535.3345,66.1853,525.6673,66.36,516" style="stroke: #A9A9A9; stroke-width: 3.0;"/><text fill="#A9A9A9" font-family="courier" font-size="20" font-weight="bold" lengthAdjust="spacingAndGlyphs" textLength="120" x="76.36" y="542.1074">Sistema de</text><text fill="#A9A9A9" font-family="courier" font-size="20" font-weight="bold" lengthAdjust="spacingAndGlyphs" textLength="132" x="70.36" y="568.2207">Información</text><text fill="#A9A9A9" font-family="courier" font-size="20" font-weight="bold" lengthAdjust="spacingAndGlyphs" textLength="132" x="70.36" y="594.334">del Usuario</text><path d="M67.36,606.3398 L67.36,606.6201 L77.2171,605.7874 L87.0743,606.5976 L96.9314,606.8727 L106.7886,605.3887 L116.6457,606.2362 L126.5029,605.7712 L136.36,605.8285 L146.2171,606.249 L156.0743,605.418 L165.9314,607.078 L175.7886,605.4995 L185.6457,606.0762 L195.5029,606.9158 L205.36,606.3398 " fill="#222222" style="stroke: #A9A9A9; stroke-width: 3.0;"/><path d="M67.36,614.3398 L67.36,614.6201 L77.2171,613.7874 L87.0743,614.5976 L96.9314,614.8727 L106.7886,613.3887 L116.6457,614.2362 L126.5029,613.7712 L136.36,613.8285 L146.2171,614.249 L156.0743,613.418 L165.9314,615.078 L175.7886,613.4995 L185.6457,614.0762 L195.5029,614.9158 L205.36,614.3398 " fill="#222222" style="stroke: #A9A9A9; stroke-width: 3.0;"/><!--class Hardware--><polygon fill="#222222" points="32.36,275,32.36,275.2102,42.76,274.5857,53.16,275.1933,63.56,275.3997,73.96,274.2866,84.36,274.9223,94.76,274.5735,105.16,274.6165,115.56,274.9318,125.96,274.3086,136.36,275,136.9136,275,135.7297,285.8227,136.1622,296.6453,136.7919,307.468,136.2742,318.2906,136.36,329.1133,136.36,329.1815,125.96,329.0813,115.56,329.2918,105.16,329.3524,94.76,329.699,84.36,329.7843,73.96,329.7925,63.56,329.3679,53.16,329.5769,42.76,329.8155,32.36,329.1133,31.6388,329.1133,33.0385,318.2906,32.0635,307.468,32.8938,296.6453,31.865,285.8227,32.36,275" style="stroke: #A9A9A9; stroke-width: 3.0;"/><text fill="#A9A9A9" font-family="courier" font-size="20" font-weight="bold" lengthAdjust="spacingAndGlyphs" textLength="96" x="36.36" y="301.1074">Hardware</text><path d="M33.36,313.1133 L33.36,313.3935 L43.56,312.5609 L53.76,313.371 L63.96,313.6462 L74.16,312.1621 L84.36,313.0097 L94.56,312.5446 L104.76,312.6019 L114.96,313.0224 L125.16,312.1915 L135.36,313.1133 " fill="#222222" style="stroke: #A9A9A9; stroke-width: 3.0;"/><path d="M33.36,321.1133 L33.36,321.3935 L43.56,320.5609 L53.76,321.371 L63.96,321.6462 L74.16,320.1621 L84.36,321.0097 L94.56,320.5446 L104.76,320.6019 L114.96,321.0224 L125.16,320.1915 L135.36,321.1133 " fill="#222222" style="stroke: #A9A9A9; stroke-width: 3.0;"/><!--link Sistema to SistemaComplejo--><path d="M169.61,81.07 L169.6963,81.1059 L166.076,89.0893 L162.9613,97.283 L159.682,105.4082 L155.8612,113.3083 L152.79,121.52 " fill="none" style="stroke: #A9A9A9; stroke-width: 2.0;"/><polygon fill="none" points="163.32,77.98,163.3722,78.0268,166.0451,74.7318,169.024,71.711,171.9032,68.6009,174.4549,65.1973,177.46,62.2,177.4341,62.1985,177.0761,66.4239,176.8484,70.6567,176.7113,74.8947,176.2619,79.1148,176.25,83.36,176.3209,83.5304,173.5833,82.09,171.0527,81.1471,168.5473,80.2649,165.895,79.0296,163.32,77.98" style="stroke: #A9A9A9; stroke-width: 2.0;"/><!--link SistemaComplejo to Software--><path d="M148.15,221.91 L148.4248,221.965 L149.6089,231.8056 L152.4038,241.9683 L154.6742,252.0262 L155.2195,261.739 L158.0512,271.9091 L159.5957,281.8218 L161.6525,291.837 L164.0653,301.9233 L165.2511,311.7642 L168.8794,322.0936 L169.3321,331.788 L171.8981,341.905 L174.722,352.0735 L176.0456,361.942 L178.2476,371.9862 L180.1171,381.9639 L182.3929,392.0228 L184.16,401.98 " fill="none" style="stroke: #A9A9A9; stroke-width: 2.0;"/><polygon fill="none" points="141.24,223.09,141.3094,223.0998,141.6932,218.8728,142.4838,214.703,143.1419,210.5145,143.3645,206.2649,144.19,202.1,144.1677,202.0868,146.2236,205.6757,148.392,209.331,150.6384,213.0324,152.6156,216.5747,154.97,220.34,155.0062,220.521,152.1827,220.684,149.4651,221.3754,146.7603,222.1312,143.9804,222.512,141.24,223.09" style="stroke: #A9A9A9; stroke-width: 2.0;"/><!--link SistemaComplejo to Usuario--><path d="M67.65,202.38 L67.7092,202.4522 L64.4696,204.7507 L61.5772,207.4726 L58.5717,210.0566 L55.1943,212.1872 L52.3317,214.9455 L52.3081,214.9203 L50.7332,216.1838 L49.2773,217.5744 L47.9042,219.0533 L46.2459,220.2278 L44.9871,221.8286 L45.1643,221.9993 L43.3846,223.0894 L42.1224,224.6777 L40.9234,226.3268 L39.3569,227.6223 L37.9838,229.1038 L38.0068,229.1235 L36.6603,230.6267 L35.4187,232.2197 L34.1266,233.7694 L32.9309,235.4018 L31.4206,236.7647 L31.6593,236.9435 L30.4574,238.5538 L29.1015,240.0487 L27.971,241.7125 L26.851,243.3842 L25.3964,244.8052 L25.1196,244.6436 L23.6496,248.3961 L21.268,251.6167 L19.5795,255.2417 L17.1773,258.4501 L15.36,262 L15.3319,261.9882 L14.719,264.3772 L13.4502,266.4907 L12.5684,268.7667 L11.7191,271.0564 L10.6354,273.2477 L10.813,273.2996 L10.0512,275.2386 L9.5928,277.2663 L8.6436,279.1505 L8.4265,281.2488 L7.7227,283.2047 L7.9656,283.2225 L7.6569,286.8012 L7.4688,290.3887 L6.7202,293.9352 L6.3824,297.5117 L6.4087,301.115 L6.1366,301.0681 L7.0153,304.7811 L7.5874,308.4413 L8.6042,312.1781 L8.8616,315.7841 L9.5705,319.4678 L9.4228,319.4299 L10.8266,323.9995 L11.5992,328.4069 L12.8207,332.9297 L14.4814,337.5653 L15.36,342 L15.5469,342.0507 L16.3286,344.4921 L16.5291,346.7756 L17.4575,349.2568 L18.2274,351.6949 L18.6277,354.0327 L18.4272,353.9704 L19.3348,356.4276 L20.1768,358.8644 L21.1478,361.3412 L21.6172,363.6623 L22.3668,366.0703 L22.561,366.1377 L22.9673,368.3913 L23.7484,370.7749 L25.0773,373.3486 L25.3978,375.5724 L26.5319,378.0785 L26.7433,378.1589 L27.5268,380.5 L28.2388,382.8138 L29.1123,385.1891 L30.3589,387.7063 L31.0775,390.0227 L30.9545,389.972 L32.2969,392.492 L32.8027,394.6674 L34.2597,397.2347 L35.1811,399.5813 L35.9583,401.8685 L36.0579,401.9124 L37.0116,404.2195 L38.3219,406.6841 L39.3101,409.0064 L40.1635,411.2692 L41.1288,413.5815 L41.2367,413.6321 L42.1594,415.866 L43.5831,418.335 L44.4401,420.5381 L45.5302,422.8506 L46.5437,425.1272 L46.3014,425.0073 L47.505,427.3161 L49.0006,429.7694 L50.0832,432.0183 L51.0176,434.194 L52.1575,436.4713 L52.0304,436.4053 L53.2246,438.648 L54.1938,440.7739 L55.7815,443.2209 L57.0631,445.509 L57.9248,447.5792 L58.1305,447.6907 L59.3714,449.8938 L60.2216,451.8851 L61.4841,454.1 L62.4737,456.1669 L63.8002,458.4165 L63.9102,458.4785 L65.0834,460.5768 L66.3893,462.75 L67.2742,464.6858 L68.4987,466.813 L69.7383,468.9488 L69.9085,469.0483 L71.1471,471.1146 L71.9238,472.9111 L73.2372,475.0211 L74.5599,477.1366 L75.6938,479.1417 L75.4613,479.0014 L77.0137,481.1867 L78.1628,483.1286 L79.2118,485.01 L80.4897,487.0296 L81.621,488.9607 L81.896,489.1318 L82.6737,490.7694 L84.0814,492.7989 L85.2411,494.6742 L86.3477,496.5164 L87.4748,498.3714 L87.5273,498.4054 L89.7781,501.8905 L91.764,505.2041 L94.1084,508.7497 L96.3468,512.2268 L98.78,515.83 " fill="none" style="stroke: #A9A9A9; stroke-width: 2.0;"/><polygon fill="none" points="63.82,196.52,63.839,196.5874,67.8605,195.2371,71.9935,194.282,76.0902,193.1982,80.0675,191.6911,84.21,190.77,84.189,190.7549,81.6245,194.1291,79.1661,197.5795,76.7815,201.0828,74.1428,204.4036,71.86,207.98,72.0111,208.086,70.08,205.5673,68.59,203.3581,67.1539,201.1867,65.4046,198.7956,63.82,196.52" style="stroke: #A9A9A9; stroke-width: 2.0;"/><!--link Sistema to Informacion--><path d="M209.33,80.81 L209.5838,80.9288 L213.0676,89.6324 L218.0394,99.0322 L222.5267,108.2054 L225.4205,116.6328 L230.4261,126.0486 L234.2429,134.908 L238.5329,143.9888 L243.1517,153.2235 L246.6371,161.9278 L252.3786,171.6879 L255.1868,180.0753 L259.9472,189.3762 L264.9456,198.7886 L268.5584,207.5525 L272.9824,216.6961 L277.0994,225.6959 L281.5916,234.8714 L285.9028,243.9621 L290.5593,253.2145 L294.09,261.94 " fill="none" style="stroke: #A9A9A9; stroke-width: 2.0;"/><polygon fill="none" points="202.84,83.46,202.9097,83.467,202.2766,79.2301,202.0521,75.0345,201.6946,70.8254,200.8994,66.5721,200.71,62.38,200.6915,62.3619,203.5703,65.3106,206.5426,68.3506,209.5798,71.4541,212.3932,74.3389,215.52,77.53,215.5982,77.6972,212.895,78.5257,210.4201,79.8423,207.973,81.2184,205.3639,82.2481,202.84,83.46" style="stroke: #A9A9A9; stroke-width: 2.0;"/><!--link Informacion to Software--><path d="M259.38,356.85 L259.5797,357.0466 L251.5879,363.9809 L244.767,372.0674 L237.5648,379.7788 L229.1087,386.2562 L222.3145,394.369 L214.99,401.96 " fill="none" style="stroke: #A9A9A9; stroke-width: 2.0;"/><polygon fill="none" points="254.77,351.55,254.8009,351.6129,258.5111,349.558,262.4024,347.8718,266.2347,346.0656,269.8731,343.8646,273.78,342.21,273.7566,342.199,271.8454,345.9814,270.0524,349.8195,268.3414,353.6963,266.3475,357.4398,264.75,361.37,264.8794,361.5015,262.6066,359.2562,260.7118,357.395,258.863,355.5806,256.7459,353.4936,254.77,351.55" style="stroke: #A9A9A9; stroke-width: 2.0;"/><!--link Informacion to Usuario--><path d="M299.41,361.73 L299.4997,361.7562 L298.5633,363.9692 L298.1524,366.3359 L297.5705,368.6525 L296.4257,370.8045 L296.06,373.1844 L296.0271,373.1739 L295.1212,375.4993 L294.3812,377.8778 L293.7566,380.2931 L292.7345,382.5815 L292.2691,385.0477 L292.5013,385.1291 L291.1551,387.3779 L290.4869,389.8645 L289.9015,392.38 L288.8347,394.7268 L288.0211,397.1624 L288.0494,397.1733 L287.0637,399.5991 L286.2067,402.0746 L285.2876,404.526 L284.487,407.0234 L283.3,409.3713 L283.5741,409.4888 L282.5353,411.9194 L281.3198,414.2741 L280.363,416.7398 L279.4184,419.2108 L278.0895,421.5168 L277.8005,421.3783 L277.2182,424.0321 L275.6842,426.2298 L274.8738,428.7743 L273.3183,430.9616 L272.3734,433.4417 L272.3467,433.4272 L271.4159,435.9077 L269.8593,438.0502 L268.672,440.3921 L267.5156,442.7507 L266.1357,444.9886 L266.2932,445.0855 L264.7791,447.1899 L263.5341,449.46 L261.8536,451.4621 L260.8228,453.864 L259.36,456 L259.5571,456.1433 L257.1709,459.3477 L254.8826,462.6232 L252.1397,465.5683 L249.73,468.7556 L247.6156,472.1575 L247.4025,471.9818 L246.3056,473.7058 L244.9686,475.2318 L243.9799,477.0449 L242.3965,478.3679 L241.1666,479.9822 L241.0524,479.8812 L239.8933,481.575 L238.246,482.837 L236.9458,484.406 L235.9854,486.2755 L234.42,487.61 L234.561,487.7428 L233.2618,489.3159 L231.5242,490.4761 L230.3358,492.1535 L229.0277,493.7182 L227.4409,495.0203 L227.2921,494.8721 L225.9814,496.4247 L224.6219,497.9287 L223.3582,499.5281 L221.7224,500.7567 L220.2944,502.1925 L220.4346,502.3429 L217.2197,504.722 L214.2754,507.3913 L211.7264,510.4847 L208.4496,512.7974 L205.76,515.74 " fill="none" style="stroke: #A9A9A9; stroke-width: 2.0;"/><polygon fill="none" points="292.68,359.78,292.7382,359.8191,294.9273,356.185,297.4575,352.7799,299.8766,349.3003,301.9306,345.5754,304.49,342.19,304.4642,342.1879,304.6963,346.4023,305.0586,350.6275,305.5114,354.8601,305.6523,359.0671,306.23,363.31,306.2765,363.4886,303.467,362.4007,300.7934,361.8342,298.1363,361.3313,295.3828,360.4583,292.68,359.78" style="stroke: #A9A9A9; stroke-width: 2.0;"/><!--link Software to Usuario--><path d="M179.27,456.28 L179.5316,456.3805 L175.251,465.2036 L172.5039,474.6157 L169.2575,483.8361 L164.3687,492.4256 L161.6566,501.8512 L158.25,511.01 " fill="none" style="stroke: #A9A9A9; stroke-width: 2.0;"/><polygon fill="#A9A9A9" points="156.41,515.81,156.4595,515.8596,157.7061,514.3203,159.2429,513.0716,160.6852,511.7283,161.8167,510.0738,163.3785,508.8501,163.368,508.8264,162.2867,509.179,161.2583,509.651,160.2668,510.2059,159.1484,510.4749,158.2078,511.1444,158.3765,511.2192,157.5569,510.025,157.2298,509.0494,156.9628,508.1003,156.3462,506.9962,155.9135,505.9737,155.9362,505.9748,156.0021,507.9404,156.1715,509.9112,156.291,511.8795,156.5057,513.8526,156.41,515.81" style="stroke: #A9A9A9; stroke-width: 2.0;"/><!--link SistemaComplejo to Hardware--><path d="M114.49,221.05 L114.7523,221.1488 L110.5964,229.8186 L107.9778,239.0675 L104.8587,248.1279 L100.0932,256.568 L97.5097,265.8301 L94.23,274.83 " fill="none" style="stroke: #A9A9A9; stroke-width: 2.0;"/><polygon fill="none" points="108,218.42,108.0537,218.465,110.6141,215.0833,113.4894,211.9654,116.2621,208.7615,118.6977,205.2753,121.6,202.18,121.5741,202.1794,121.3579,206.4126,121.2722,210.649,121.2773,214.8875,120.9696,219.1186,121.1,223.36,121.1651,223.5327,118.4059,222.1754,115.8367,221.3223,113.2908,220.5307,110.6099,219.3812,108,218.42" style="stroke: #A9A9A9; stroke-width: 2.0;"/><!--link Hardware to Software--><path d="M114.79,339.22 L115.0046,339.4002 L120.6398,346.3333 L127.5331,354.3229 L134.0166,361.9685 L139.1531,368.4825 L146.0749,376.4962 L151.9917,383.6657 L158.7,391.5 " fill="none" style="stroke: #A9A9A9; stroke-width: 2.0;"/><polygon fill="#A9A9A9" points="167.38,401.83,167.4473,401.8494,166.7015,399.8991,166.3504,398.0625,165.8707,396.1889,164.9685,394.1935,164.6512,392.3667,164.6254,392.3645,164.4119,393.4816,164.3285,394.61,164.3356,395.7462,164.031,396.8554,164.1629,398.0025,164.1788,398.1863,163.0176,397.6955,161.9029,397.7414,160.7939,397.8529,159.6518,397.5833,158.5271,397.5141,158.5371,397.5346,160.293,398.3677,162.0944,399.294,163.8738,400.1753,165.695,401.1423,167.38,401.83" style="stroke: #A9A9A9; stroke-width: 2.0;"/><path d="M164.1629,398.0025 L164.2344,398.0625 L162.9933,396.6586 L162.1715,395.6067 L161.2132,394.4402 L159.8057,392.8967 L159.02,391.875 " fill="#A9A9A9" style="stroke: #A9A9A9; stroke-width: 2.0;"/><polygon fill="#A9A9A9" points="106.38,329.2,106.4496,329.2077,106.4014,330.6183,106.7614,332.074,106.9885,333.5151,106.7784,334.9077,107.1734,336.3673,107.1662,336.3425,108.5178,336.6357,109.906,337.0543,111.3198,337.5601,112.6457,337.7655,114.0946,338.3916,114.278,338.4119,113.7271,336.935,113.7117,335.5174,113.7616,334.107,113.4314,332.6546,113.3012,331.2243,113.3075,331.2461,111.9139,330.8092,110.5494,330.4717,109.1708,330.0862,107.819,329.7922,106.38,329.2" style="stroke: #A9A9A9; stroke-width: 2.0;"/><!--link Hardware to Usuario--><path d="M92.09,342.36 L92.365,342.414 L93.516,352.2836 L96.2791,362.4696 L98.5173,372.5526 L99.0291,382.2968 L101.8289,392.49 L103.3407,402.4305 L105.3651,412.4715 L107.7458,422.5825 L108.8986,432.4525 L112.4956,442.8021 L112.9147,452.5282 L115.4487,462.6692 L118.2408,472.8609 L119.5315,482.758 L121.7012,492.8275 L123.58,502.84 " fill="none" style="stroke: #A9A9A9; stroke-width: 2.0;"/><polygon fill="#A9A9A9" points="126.13,515.87,126.1983,515.8855,126.4322,513.9186,127.0665,512.0428,127.5704,510.1374,127.6455,508.1344,128.3142,506.2664,128.2927,506.252,127.5659,507.1268,126.9476,508.0744,126.4047,509.0725,125.602,509.8964,125.1632,510.9644,125.266,511.1176,124.1065,510.1597,123.2472,509.6492,122.4246,509.1933,121.3888,508.4198,120.4652,507.8133,120.4838,507.8264,121.5894,509.4185,122.7798,511.0702,123.9293,512.6932,125.1567,514.371,126.13,515.87" style="stroke: #A9A9A9; stroke-width: 2.0;"/><path d="M125.1632,510.9644 L125.2549,510.9822 L124.6768,509.3583 L124.6362,507.839 L124.4206,506.2857 L123.6294,504.6203 L123.635,503.11 " fill="#A9A9A9" style="stroke: #A9A9A9; stroke-width: 2.0;"/><polygon fill="#A9A9A9" points="89.54,329.38,89.6047,329.4069,88.8582,330.6584,88.4909,332.0677,88.0001,333.4256,87.1033,334.6144,86.7685,336.0372,86.7501,336.019,87.6835,336.9609,88.7095,337.9947,89.7999,339.0925,90.6683,339.9699,91.8477,341.156,92.0181,341.2269,92.2081,339.7438,92.8955,338.4678,93.6435,337.217,94.0385,335.8192,94.6192,334.4988,94.6353,334.5148,93.5958,333.4675,92.6298,332.4932,91.6283,331.4836,90.6944,330.5413,89.54,329.38" style="stroke: #A9A9A9; stroke-width: 2.0;"/><!--
@startuml
skinparam backgroundColor #222222
skinparam handwritten true
hide stereotype
hide circle
skinparam shadowing false
skinparam padding 1
skinparam arrow {
    Thickness 2
    Color #DarkGrey
    FontSize 20
    FontName courier
    FontStyle normal
    FontColor #DarkGrey
}
skinparam class {
    BorderThickness 3
    BorderColor #DarkGrey
    BackgroundColor #222222
    FontSize 20
    FontName courier
    FontStyle bold
    FontColor #DarkGrey
}


class Sistema
class "Sistema\nComplejo" as SistemaComplejo

Sistema <|-down- SistemaComplejo
SistemaComplejo <|-down- Software
class "Sistema de\nInformación" as Informacion
class Software
class "Sistema de\nInformación\ndel Usuario" as Usuario

SistemaComplejo <|-down- Usuario
Sistema <|-down- Informacion
Informacion <|-down- Software
Informacion <|-down- Usuario
Software -down-> Usuario

class Hardware
SistemaComplejo <|-down- Hardware

Hardware *-down-> Software
Hardware *-down-> Usuario

@enduml

PlantUML version 1.2019.05(Sat Apr 20 18:45:36 CEST 2019)
(GPL source distribution)
Java Runtime: Java(TM) SE Runtime Environment
JVM: Java HotSpot(TM) 64-Bit Server VM
Java Version: 11.0.14+8-LTS-263
Operating System: Windows 10
OS Version: 10.0
Default Encoding: windows-1252
Language: es
Country: ES
--></g></svg>