<?xml version="1.0" encoding="UTF-8" standalone="no"?><svg xmlns="http://www.w3.org/2000/svg" xmlns:xlink="http://www.w3.org/1999/xlink" contentScriptType="application/ecmascript" contentStyleType="text/css" height="616px" preserveAspectRatio="none" style="width:517px;height:616px;" version="1.1" viewBox="0 0 517 616" width="517px" zoomAndPan="magnify"><defs><filter height="300%" id="fpwwym1g64ydh" width="300%" x="-1" y="-1"><feGaussianBlur result="blurOut" stdDeviation="2.0"/><feColorMatrix in="blurOut" result="blurOut2" type="matrix" values="0 0 0 0 0 0 0 0 0 0 0 0 0 0 0 0 0 0 .4 0"/><feOffset dx="4.0" dy="4.0" in="blurOut2" result="blurOut3"/><feBlend in="SourceGraphic" in2="blurOut3" mode="normal"/></filter></defs><g><!--entity ComponenteFrontMovil--><rect fill="#FEFECE" filter="url(#fpwwym1g64ydh)" height="55.2188" style="stroke: #A80036; stroke-width: 1.5;" width="119" x="30" y="8"/><rect fill="#FEFECE" height="5" style="stroke: #A80036; stroke-width: 1.5;" width="10" x="25" y="13"/><rect fill="#FEFECE" height="5" style="stroke: #A80036; stroke-width: 1.5;" width="10" x="25" y="53.2188"/><text fill="#000000" font-family="sans-serif" font-size="14" lengthAdjust="spacingAndGlyphs" textLength="81" x="40" y="32.5332">Componente</text><text fill="#000000" font-family="sans-serif" font-size="14" lengthAdjust="spacingAndGlyphs" textLength="99" x="40" y="50.1426">Front-end Movil</text><!--entity FrameworkFrontMovil--><rect fill="#FEFECE" filter="url(#fpwwym1g64ydh)" height="55.2188" style="stroke: #A80036; stroke-width: 1.5;" width="119" x="6" y="143.5"/><rect fill="#FEFECE" height="5" style="stroke: #A80036; stroke-width: 1.5;" width="10" x="1" y="148.5"/><rect fill="#FEFECE" height="5" style="stroke: #A80036; stroke-width: 1.5;" width="10" x="1" y="188.7188"/><text fill="#000000" font-family="sans-serif" font-size="14" lengthAdjust="spacingAndGlyphs" textLength="70" x="16" y="168.0332">Framework</text><text fill="#000000" font-family="sans-serif" font-size="14" lengthAdjust="spacingAndGlyphs" textLength="99" x="16" y="185.6426">Front-end Movil</text><!--entity ComponenteFrontWeb--><rect fill="#FEFECE" filter="url(#fpwwym1g64ydh)" height="55.2188" style="stroke: #A80036; stroke-width: 1.5;" width="116" x="230.5" y="8"/><rect fill="#FEFECE" height="5" style="stroke: #A80036; stroke-width: 1.5;" width="10" x="225.5" y="13"/><rect fill="#FEFECE" height="5" style="stroke: #A80036; stroke-width: 1.5;" width="10" x="225.5" y="53.2188"/><text fill="#000000" font-family="sans-serif" font-size="14" lengthAdjust="spacingAndGlyphs" textLength="81" x="240.5" y="32.5332">Componente</text><text fill="#000000" font-family="sans-serif" font-size="14" lengthAdjust="spacingAndGlyphs" textLength="96" x="240.5" y="50.1426">Front-end Web</text><!--entity FrameworkFrontWeb--><rect fill="#FEFECE" filter="url(#fpwwym1g64ydh)" height="55.2188" style="stroke: #A80036; stroke-width: 1.5;" width="116" x="273.5" y="143.5"/><rect fill="#FEFECE" height="5" style="stroke: #A80036; stroke-width: 1.5;" width="10" x="268.5" y="148.5"/><rect fill="#FEFECE" height="5" style="stroke: #A80036; stroke-width: 1.5;" width="10" x="268.5" y="188.7188"/><text fill="#000000" font-family="sans-serif" font-size="14" lengthAdjust="spacingAndGlyphs" textLength="70" x="283.5" y="168.0332">Framework</text><text fill="#000000" font-family="sans-serif" font-size="14" lengthAdjust="spacingAndGlyphs" textLength="96" x="283.5" y="185.6426">Front-end Web</text><!--entity ComponenteMashup--><rect fill="#FEFECE" filter="url(#fpwwym1g64ydh)" height="55.2188" style="stroke: #A80036; stroke-width: 1.5;" width="101" x="405" y="8"/><rect fill="#FEFECE" height="5" style="stroke: #A80036; stroke-width: 1.5;" width="10" x="400" y="13"/><rect fill="#FEFECE" height="5" style="stroke: #A80036; stroke-width: 1.5;" width="10" x="400" y="53.2188"/><text fill="#000000" font-family="sans-serif" font-size="14" lengthAdjust="spacingAndGlyphs" textLength="81" x="415" y="32.5332">Componente</text><text fill="#000000" font-family="sans-serif" font-size="14" lengthAdjust="spacingAndGlyphs" textLength="50" x="415" y="50.1426">Mashup</text><!--entity ComponenteBack--><rect fill="#FEFECE" filter="url(#fpwwym1g64ydh)" height="55.2188" style="stroke: #A80036; stroke-width: 1.5;" width="101" x="277" y="279"/><rect fill="#FEFECE" height="5" style="stroke: #A80036; stroke-width: 1.5;" width="10" x="272" y="284"/><rect fill="#FEFECE" height="5" style="stroke: #A80036; stroke-width: 1.5;" width="10" x="272" y="324.2188"/><text fill="#000000" font-family="sans-serif" font-size="14" lengthAdjust="spacingAndGlyphs" textLength="81" x="287" y="303.5332">Componente</text><text fill="#000000" font-family="sans-serif" font-size="14" lengthAdjust="spacingAndGlyphs" textLength="60" x="287" y="321.1426">Back-end</text><!--entity FrameworkBack--><rect fill="#FEFECE" filter="url(#fpwwym1g64ydh)" height="55.2188" style="stroke: #A80036; stroke-width: 1.5;" width="90" x="227.5" y="414.5"/><rect fill="#FEFECE" height="5" style="stroke: #A80036; stroke-width: 1.5;" width="10" x="222.5" y="419.5"/><rect fill="#FEFECE" height="5" style="stroke: #A80036; stroke-width: 1.5;" width="10" x="222.5" y="459.7188"/><text fill="#000000" font-family="sans-serif" font-size="14" lengthAdjust="spacingAndGlyphs" textLength="70" x="237.5" y="439.0332">Framework</text><text fill="#000000" font-family="sans-serif" font-size="14" lengthAdjust="spacingAndGlyphs" textLength="60" x="237.5" y="456.6426">Back-end</text><!--entity InterfazFront--><ellipse cx="199.5" cy="171" fill="#FEFECE" filter="url(#fpwwym1g64ydh)" rx="8" ry="8" style="stroke: #A80036; stroke-width: 2.0;"/><text fill="#000000" font-family="sans-serif" font-size="14" lengthAdjust="spacingAndGlyphs" textLength="46" x="168" y="202.5332">Interfaz</text><text fill="#000000" font-family="sans-serif" font-size="14" lengthAdjust="spacingAndGlyphs" textLength="63" x="168" y="220.1426">Front-end</text><!--entity InterfazAPI--><ellipse cx="455.5" cy="171" fill="#FEFECE" filter="url(#fpwwym1g64ydh)" rx="8" ry="8" style="stroke: #A80036; stroke-width: 2.0;"/><text fill="#000000" font-family="sans-serif" font-size="14" lengthAdjust="spacingAndGlyphs" textLength="46" x="432.5" y="202.5332">Interfaz</text><text fill="#000000" font-family="sans-serif" font-size="14" lengthAdjust="spacingAndGlyphs" textLength="21" x="432.5" y="220.1426">API</text><!--entity ComponenteService--><rect fill="#FEFECE" filter="url(#fpwwym1g64ydh)" height="55.2188" style="stroke: #A80036; stroke-width: 1.5;" width="101" x="333" y="550"/><rect fill="#FEFECE" height="5" style="stroke: #A80036; stroke-width: 1.5;" width="10" x="328" y="555"/><rect fill="#FEFECE" height="5" style="stroke: #A80036; stroke-width: 1.5;" width="10" x="328" y="595.2188"/><text fill="#000000" font-family="sans-serif" font-size="14" lengthAdjust="spacingAndGlyphs" textLength="81" x="343" y="574.5332">Componente</text><text fill="#000000" font-family="sans-serif" font-size="14" lengthAdjust="spacingAndGlyphs" textLength="50" x="343" y="592.1426">Servicio</text><!--entity InterfazService--><ellipse cx="383.5" cy="442" fill="#FEFECE" filter="url(#fpwwym1g64ydh)" rx="8" ry="8" style="stroke: #A80036; stroke-width: 2.0;"/><text fill="#000000" font-family="sans-serif" font-size="14" lengthAdjust="spacingAndGlyphs" textLength="46" x="360" y="473.5332">Interfaz</text><text fill="#000000" font-family="sans-serif" font-size="14" lengthAdjust="spacingAndGlyphs" textLength="47" x="360" y="491.1426">Service</text><!--link ComponenteFrontWeb to InterfazFront--><path d="M270.7,63.19 C251.57,91.89 221.99,136.27 207.73,157.65 " fill="none" id="ComponenteFrontWeb-InterfazFront" style="stroke: #A80036; stroke-width: 1.0; stroke-dasharray: 7.0,7.0;"/><polygon fill="#A80036" points="204.93,161.85,213.2505,156.5803,207.7035,157.6897,206.5941,152.1427,204.93,161.85" style="stroke: #A80036; stroke-width: 1.0;"/><!--link ComponenteFrontWeb to FrameworkFrontWeb--><path d="M297.1,63.19 C304.1,84.93 314,115.66 321.38,138.58 " fill="none" id="ComponenteFrontWeb-FrameworkFrontWeb" style="stroke: #A80036; stroke-width: 1.0; stroke-dasharray: 7.0,7.0;"/><polygon fill="#A80036" points="322.92,143.35,323.975,133.5578,321.3904,138.5897,316.3585,136.0051,322.92,143.35" style="stroke: #A80036; stroke-width: 1.0;"/><!--link ComponenteFrontMovil to InterfazFront--><path d="M111.5,63.19 C135.24,92.01 172.01,136.64 189.55,157.92 " fill="none" id="ComponenteFrontMovil-InterfazFront" style="stroke: #A80036; stroke-width: 1.0; stroke-dasharray: 7.0,7.0;"/><polygon fill="#A80036" points="192.79,161.85,190.1428,152.3636,189.606,157.9949,183.9746,157.458,192.79,161.85" style="stroke: #A80036; stroke-width: 1.0;"/><!--link ComponenteFrontMovil to FrameworkFrontMovil--><path d="M84.7,63.19 C80.81,84.84 75.31,115.41 71.2,138.3 " fill="none" id="ComponenteFrontMovil-FrameworkFrontMovil" style="stroke: #A80036; stroke-width: 1.0; stroke-dasharray: 7.0,7.0;"/><polygon fill="#A80036" points="70.29,143.35,75.8188,135.1994,71.1744,138.4288,67.945,133.7844,70.29,143.35" style="stroke: #A80036; stroke-width: 1.0;"/><!--link InterfazFront to ComponenteBack--><path d="M207.51,180.35 C226.06,199.7 272.65,248.29 302.01,278.92 " fill="none" id="InterfazFront-ComponenteBack" style="stroke: #A80036; stroke-width: 1.0;"/><!--link ComponenteMashup to InterfazAPI--><path d="M455.5,63.19 C455.5,91.53 455.5,135.16 455.5,156.84 " fill="none" id="ComponenteMashup-InterfazAPI" style="stroke: #A80036; stroke-width: 1.0; stroke-dasharray: 7.0,7.0;"/><polygon fill="#A80036" points="455.5,161.85,459.5,152.85,455.5,156.85,451.5,152.85,455.5,161.85" style="stroke: #A80036; stroke-width: 1.0;"/><!--link InterfazAPI to ComponenteBack--><path d="M447.49,180.35 C428.94,199.7 382.35,248.29 352.99,278.92 " fill="none" id="InterfazAPI-ComponenteBack" style="stroke: #A80036; stroke-width: 1.0;"/><!--link ComponenteBack to FrameworkBack--><path d="M316.5,334.19 C307.55,355.93 294.89,386.66 285.44,409.58 " fill="none" id="ComponenteBack-FrameworkBack" style="stroke: #A80036; stroke-width: 1.0; stroke-dasharray: 7.0,7.0;"/><polygon fill="#A80036" points="283.48,414.35,290.6234,407.5698,285.396,409.7317,283.2341,404.5042,283.48,414.35" style="stroke: #A80036; stroke-width: 1.0;"/><!--link ComponenteBack to InterfazService--><path d="M338.7,334.19 C350.64,362.65 369.04,406.53 378.09,428.11 " fill="none" id="ComponenteBack-InterfazService" style="stroke: #A80036; stroke-width: 1.0;"/><polygon fill="#A80036" points="380.08,432.85,380.274,423.0031,378.1397,428.2418,372.9009,426.1075,380.08,432.85" style="stroke: #A80036; stroke-width: 1.0;"/><!--link InterfazService to ComponenteService--><path d="M383.5,451.35 C383.5,470.7 383.5,519.29 383.5,549.92 " fill="none" id="InterfazService-ComponenteService" style="stroke: #A80036; stroke-width: 1.0;"/><!--
@startuml
component ComponenteFrontMovil as "Componente\nFront-end Movil"
component FrameworkFrontMovil as "Framework\nFront-end Movil"
component ComponenteFrontWeb as "Componente\nFront-end Web"
component FrameworkFrontWeb as "Framework\nFront-end Web"
component ComponenteMashup as "Componente\nMashup"
component ComponenteBack as "Componente\nBack-end"
component FrameworkBack as "Framework\nBack-end"
interface InterfazFront as "Interfaz\nFront-end"
interface InterfazAPI as "Interfaz\nAPI"
component ComponenteService as "Componente\nServicio"
interface InterfazService as "Interfaz\nService"


ComponenteFrontWeb .down.> InterfazFront
ComponenteFrontWeb .down.> FrameworkFrontWeb

ComponenteFrontMovil .down.> InterfazFront
ComponenteFrontMovil .down.> FrameworkFrontMovil

InterfazFront -down- ComponenteBack

ComponenteMashup .down.> InterfazAPI
InterfazAPI -down- ComponenteBack

ComponenteBack .down.> FrameworkBack
ComponenteBack -down-> InterfazService

InterfazService -down- ComponenteService
@enduml

PlantUML version 1.2019.05(Sat Apr 20 18:45:36 CEST 2019)
(GPL source distribution)
Java Runtime: Java(TM) SE Runtime Environment
JVM: Java HotSpot(TM) 64-Bit Server VM
Java Version: 11.0.14+8-LTS-263
Operating System: Windows 10
OS Version: 10.0
Default Encoding: windows-1252
Language: es
Country: ES
--></g></svg>