<?xml version="1.0" encoding="UTF-8" standalone="no"?><svg xmlns="http://www.w3.org/2000/svg" xmlns:xlink="http://www.w3.org/1999/xlink" contentScriptType="application/ecmascript" contentStyleType="text/css" height="616px" preserveAspectRatio="none" style="width:517px;height:616px;" version="1.1" viewBox="0 0 517 616" width="517px" zoomAndPan="magnify"><defs><filter height="300%" id="fpwwym1g64ydh" width="300%" x="-1" y="-1"><feGaussianBlur result="blurOut" stdDeviation="2.0"/><feColorMatrix in="blurOut" result="blurOut2" type="matrix" values="0 0 0 0 0 0 0 0 0 0 0 0 0 0 0 0 0 0 .4 0"/><feOffset dx="4.0" dy="4.0" in="blurOut2" result="blurOut3"/><feBlend in="SourceGraphic" in2="blurOut3" mode="normal"/></filter></defs><g><!--entity ComponenteFrontMovil--><rect fill="#FEFECE" filter="url(#fpwwym1g64ydh)" height="55.2188" style="stroke: #A80036; stroke-width: 1.5;" width="119" x="30" y="8"/><rect fill="#FEFECE" height="5" style="stroke: #A80036; stroke-width: 1.5;" width="10" x="25" y="13"/><rect fill="#FEFECE" height="5" style="stroke: #A80036; stroke-width: 1.5;" width="10" x="25" y="53.2188"/><text fill="#000000" font-family="sans-serif" font-size="14" lengthAdjust="spacingAndGlyphs" textLength="81" x="40" y="32.5332">Componente</text><text fill="#000000" font-family="sans-serif" font-size="14" lengthAdjust="spacingAndGlyphs" textLength="99" x="40" y="50.1426">Front-end Movil</text><!--entity FrameworkFrontMovil--><rect fill="#FEFECE" filter="url(#fpwwym1g64ydh)" height="55.2188" style="stroke: #A80036; stroke-width: 1.5;" width="119" x="6" y="143.5"/><rect fill="#FEFECE" height="5" style="stroke: #A80036; stroke-width: 1.5;" width="10" x="1" y="148.5"/><rect fill="#FEFECE" height="5" style="stroke: #A80036; stroke-width: 1.5;" width="10" x="1" y="188.7188"/><text fill="#000000" font-family="sans-serif" font-size="14" lengthAdjust="spacingAndGlyphs" textLength="70" x="16" y="168.0332">Framework</text><text fill="#000000" font-family="sans-serif" font-size="14" lengthAdjust="spacingAndGlyphs" textLength="99" x="16" y="185.6426">Front-end Movil</text><!--entity ComponenteFrontWeb--><rect fill="#FEFECE" filter="url(#fpwwym1g64ydh)" height="55.2188" style="stroke: #A80036; stroke-width: 1.5;" width="116" x="230.5" y="8"/><rect fill="#FEFECE" height="5" style="stroke: #A80036; stroke-width: 1.5;" width="10" x="225.5" y="13"/><rect fill="#FEFECE" height="5" style="stroke: #A80036; stroke-width: 1.5;" width="10" x="225.5" y="53.2188"/><text fill="#000000" font-family="sans-serif" font-size="14" lengthAdjust="spacingAndGlyphs" textLength="81" x="240.5" y="32.5332">Componente</text><text fill="#000000" font-family="sans-serif" font-size="14" lengthAdjust="spacingAndGlyphs" textLength="96" x="240.5" y="50.1426">Front-end Web</text><!--entity FrameworkFrontWeb--><rect fill="#FEFECE" filter="url(#fpwwym1g64ydh)" height="55.2188" style="stroke: #A80036; stroke-width: 1.5;" width="116" x="273.5" y="143.5"/><rect fill="#FEFECE" height="5" style="stroke: #A80036; stroke-width: 1.5;" width="10" x="268.5" y="148.5"/><rect fill="#FEFECE" height="5" style="stroke: #A80036; stroke-width: 1.5;" width="10" x="268.5" y="188.7188"/><text fill="#000000" font-family="sans-serif" font-size="14" lengthAdjust="spacingAndGlyphs" textLength="70" x="283.5" y="168.0332">Framework</text><text fill="#000000" font-family="sans-serif" font-size="14" lengthAdjust="spacingAndGlyphs" textLength="96" x="283.5" y="185.6426">Front-end Web</text><!--entity ComponenteMashup--><rect fill="#FEFECE" filter="url(#fpwwym1g64ydh)" height="55.2188" style="stroke: #A80036; stroke-width: 1.5;" width="101" x="405" y="8"/><rect fill="#FEFECE" height="5" style="stroke: #A80036; stroke-width: 1.5;" width="10" x="400" y="13"/><rect fill="#FEFECE" height="5" style="stroke: #A80036; stroke-width: 1.5;" width="10" x="400" y="53.2188"/><text fill="#000000" font-family="sans-serif" font-size="14" lengthAdjust="spacingAndGlyphs" textLength="81" x="415" y="32.5332">Componente</text><text fill="#000000" font-family="sans-serif" font-size="14" lengthAdjust="spacingAndGlyphs" textLength="50" x="415" y="50.1426">Mashup</text><!--entity ComponenteBack--><rect fill="#FEFECE" filter="url(#fpwwym1g64ydh)" height="55.2188" style="stroke: #A80036; stroke-width: 1.5;" width="101" x="277" y="279"/><rect fill="#FEFECE" height="5" style="stroke: #A80036; stroke-width: 1.5;" width="10" x="272" y="284"/><rect fill="#FEFECE" height="5" style="stroke: #A80036; stroke-width: 1.5;" width="10" x="272" y="324.2188"/><text fill="#000000" font-family="sans-serif" font-size="14" lengthAdjust="spacingAndGlyphs" textLength="81" x="287" y="303.5332">Componente</text><text fill="#000000" font-family="sans-serif" font-size="14" lengthAdjust="spacingAndGlyphs" textLength="60" x="287" y="321.1426">Back-end</text><!--entity FrameworkBack--><rect fill="#FEFECE" filter="url(#fpwwym1g64ydh)" height="55.2188" style="stroke: #A80036; stroke-width: 1.5;" width="90" x="227.5" y="414.5"/><rect fill="#FEFECE" height="5" style="stroke: #A80036; stroke-width: 1.5;" width="10" x="222.5" y="419.5"/><rect fill="#FEFECE" height="5" style="stroke: #A80036; stroke-width: 1.5;" width="10" x="222.5" y="459.7188"/><text fill="#000000" font-family="sans-serif" font-size="14" lengthAdjust="spacingAndGlyphs" textLength="70" x="237.5" y="439.0332">Framework</text><text fill="#000000" font-family="sans-serif" font-size="14" lengthAdjust="spacingAndGlyphs" textLength="60" x="237.5" y="456.6426">Back-end</text><!--entity InterfazFront--><ellipse cx="199.5" cy="171" fill="#FEFECE" filter="url(#fpwwym1g64ydh)" rx="8" ry="8" style="stroke: #A80036; stroke-width: 2.0;"/><text fill="#000000" font-family="sans-serif" font-size="14" lengthAdjust="spacingAndGlyphs" textLength="46" x="168" y="202.5332">Interfaz</text><text fill="#000000" font-family="sans-serif" font-size="14" lengthAdjust="spacingAndGlyphs" textLength="63" x="168" y="220.1426">Front-end</text><!--entity InterfazAPI--><ellipse cx="455.5" cy="171" fill="#FEFECE" filter="url(#fpwwym1g64ydh)" rx="8" ry="8" style="stroke: #A80036; stroke-width: 2.0;"/><text fill="#000000" font-family="sans-serif" font-size="14" lengthAdjust="spacingAndGlyphs" textLength="46" x="432.5" y="202.5332">Interfaz</text><text fill="#000000" font-family="sans-serif" font-size="14" lengthAdjust="spacingAndGlyphs" textLength="21" x="432.5" y="220.1426">API</text><!--entity ComponenteService--><rect fill="#FEFECE" filter="url(#fpwwym1g64ydh)" height="55.2188" style="stroke: #A80036; stroke-width: 1.5;" width="101" x="333" y="550"/><rect fill="#FEFECE" height="5" style="stroke: #A80036; stroke-width: 1.5;" width="10" x="328" y="555"/><rect fill="#FEFECE" height="5" style="stroke: #A80036; stroke-width: 1.5;" width="10" x="328" y="595.2188"/><text fill="#000000" font-family="sans-serif" font-size="14" lengthAdjust="spacingAndGlyphs" textLength="81" x="343" y="574.5332">Componente</text><text fill="#000000" font-family="sans-serif" font-size="14" lengthAdjust="spacingAndGlyphs" textLength="50" x="343" y="592.1426">Servicio</text><!--entity InterfazService--><ellipse cx="383.5" cy="442" fill="#FEFECE" filter="url(#fpwwym1g64ydh)" rx="8" ry="8" style="stroke: #A80036; stroke-width: 2.0;"/><text fill="#000000" font-family="sans-serif" font-size="14" lengthAdjust="spacingAndGlyphs" textLength="46" x="360" y="473.5332">Interfaz</text><text fill="#000000" font-family="sans-serif" font-size="14" lengthAdjust="spacingAndGlyphs" textLength="47" x="360" y="491.1426">Service</text><!--link ComponenteFrontWeb to InterfazFront--><path d="M270.703,63.195 C251.57,91.894 221.986,136.27 207.732,157.652 " fill="none" id="ComponenteFrontWeb-InterfazFront" style="stroke: #A80036; stroke-width: 1.0; stroke-dasharray: 7.0,7.0;"/><polygon fill="#A80036" points="204.932,161.852,213.2533,156.5837,207.7062,157.6922,206.5976,152.145,204.932,161.852" style="stroke: #A80036; stroke-width: 1.0;"/><!--link ComponenteFrontWeb to FrameworkFrontWeb--><path d="M297.098,63.195 C304.1,84.933 313.998,115.664 321.381,138.585 " fill="none" id="ComponenteFrontWeb-FrameworkFrontWeb" style="stroke: #A80036; stroke-width: 1.0; stroke-dasharray: 7.0,7.0;"/><polygon fill="#A80036" points="322.917,143.351,323.9648,133.558,321.3839,138.5918,316.3502,136.0109,322.917,143.351" style="stroke: #A80036; stroke-width: 1.0;"/><!--link ComponenteFrontMovil to InterfazFront--><path d="M111.496,63.195 C135.242,92.014 172.014,136.642 189.546,157.919 " fill="none" id="ComponenteFrontMovil-InterfazFront" style="stroke: #A80036; stroke-width: 1.0; stroke-dasharray: 7.0,7.0;"/><polygon fill="#A80036" points="192.786,161.852,190.1489,152.3628,189.6061,157.9935,183.9753,157.4507,192.786,161.852" style="stroke: #A80036; stroke-width: 1.0;"/><!--link ComponenteFrontMovil to FrameworkFrontMovil--><path d="M84.7009,63.195 C80.8094,84.842 75.3145,115.407 71.1995,138.297 " fill="none" id="ComponenteFrontMovil-FrameworkFrontMovil" style="stroke: #A80036; stroke-width: 1.0; stroke-dasharray: 7.0,7.0;"/><polygon fill="#A80036" points="70.2908,143.351,75.8195,135.2003,71.1751,138.4298,67.9456,133.7854,70.2908,143.351" style="stroke: #A80036; stroke-width: 1.0;"/><!--link InterfazFront to ComponenteBack--><path d="M207.507,180.351 C226.061,199.702 272.649,248.292 302.014,278.919 " fill="none" id="InterfazFront-ComponenteBack" style="stroke: #A80036; stroke-width: 1.0;"/><!--link ComponenteMashup to InterfazAPI--><path d="M455.5,63.195 C455.5,91.534 455.5,135.159 455.5,156.836 " fill="none" id="ComponenteMashup-InterfazAPI" style="stroke: #A80036; stroke-width: 1.0; stroke-dasharray: 7.0,7.0;"/><polygon fill="#A80036" points="455.5,161.852,459.5,152.852,455.5,156.852,451.5,152.852,455.5,161.852" style="stroke: #A80036; stroke-width: 1.0;"/><!--link InterfazAPI to ComponenteBack--><path d="M447.493,180.351 C428.939,199.702 382.351,248.292 352.986,278.919 " fill="none" id="InterfazAPI-ComponenteBack" style="stroke: #A80036; stroke-width: 1.0;"/><!--link ComponenteBack to FrameworkBack--><path d="M316.502,334.195 C307.547,355.933 294.886,386.664 285.443,409.585 " fill="none" id="ComponenteBack-FrameworkBack" style="stroke: #A80036; stroke-width: 1.0; stroke-dasharray: 7.0,7.0;"/><polygon fill="#A80036" points="283.479,414.351,290.6047,407.5521,285.3829,409.7277,283.2073,404.5059,283.479,414.351" style="stroke: #A80036; stroke-width: 1.0;"/><!--link ComponenteBack to InterfazService--><path d="M338.698,334.195 C350.636,362.654 369.04,406.529 378.093,428.11 " fill="none" id="ComponenteBack-InterfazService" style="stroke: #A80036; stroke-width: 1.0;"/><polygon fill="#A80036" points="380.082,432.852,380.2894,423.0053,378.148,428.2412,372.9121,426.0998,380.082,432.852" style="stroke: #A80036; stroke-width: 1.0;"/><!--link InterfazService to ComponenteService--><path d="M383.5,451.351 C383.5,470.702 383.5,519.292 383.5,549.9189 " fill="none" id="InterfazService-ComponenteService" style="stroke: #A80036; stroke-width: 1.0;"/><!--
@startuml
component ComponenteFrontMovil as "Componente\nFront-end Movil"
component FrameworkFrontMovil as "Framework\nFront-end Movil"
component ComponenteFrontWeb as "Componente\nFront-end Web"
component FrameworkFrontWeb as "Framework\nFront-end Web"
component ComponenteMashup as "Componente\nMashup"
component ComponenteBack as "Componente\nBack-end"
component FrameworkBack as "Framework\nBack-end"
interface InterfazFront as "Interfaz\nFront-end"
interface InterfazAPI as "Interfaz\nAPI"
component ComponenteService as "Componente\nServicio"
interface InterfazService as "Interfaz\nService"


ComponenteFrontWeb .down.> InterfazFront
ComponenteFrontWeb .down.> FrameworkFrontWeb

ComponenteFrontMovil .down.> InterfazFront
ComponenteFrontMovil .down.> FrameworkFrontMovil

InterfazFront -down- ComponenteBack

ComponenteMashup .down.> InterfazAPI
InterfazAPI -down- ComponenteBack

ComponenteBack .down.> FrameworkBack
ComponenteBack -down-> InterfazService

InterfazService -down- ComponenteService
@enduml

PlantUML version 1.2019.05(Sat Apr 20 18:45:36 CEST 2019)
(GPL source distribution)
Java Runtime: Java(TM) SE Runtime Environment
JVM: Java HotSpot(TM) 64-Bit Server VM
Java Version: 11.0.8+10-LTS
Operating System: Windows 10
OS Version: 10.0
Default Encoding: windows-1252
Language: es
Country: ES
--></g></svg>