<?xml version="1.0" encoding="UTF-8" standalone="no"?><svg xmlns="http://www.w3.org/2000/svg" xmlns:xlink="http://www.w3.org/1999/xlink" contentScriptType="application/ecmascript" contentStyleType="text/css" height="906px" preserveAspectRatio="none" style="width:1165px;height:906px;background:#222222;" version="1.1" viewBox="0 0 1165 906" width="1165px" zoomAndPan="magnify"><defs/><g><!--class donde--><polygon fill="#222222" points="161,8,161,8.2102,170.9412,7.5857,180.8824,8.1933,190.8235,8.3997,200.7647,7.2866,210.7059,7.9223,220.6471,7.5735,230.5882,7.6165,240.5294,7.9318,250.4706,7.3086,260.4118,8.5536,270.3529,7.3697,280.2941,7.8022,290.2353,8.4319,300.1765,7.9142,310.1176,8.0682,320.0588,7.9681,330,8,330.1785,8,330.2391,18.375,330.5857,28.75,330.6711,39.125,330.6793,49.5,330.2546,59.875,330,70.25,330,70.7136,320.0588,70.9522,310.1176,69.5288,300.1765,70.9285,290.2353,69.9535,280.2941,70.7838,270.3529,69.755,260.4118,70.1815,250.4706,70.9916,240.5294,70.2013,230.5882,70.3553,220.6471,70.5886,210.7059,70.6662,200.7647,70.2461,190.8235,70.5372,180.8824,69.6776,170.9412,70.5344,161,70.25,161.5482,70.25,161.4445,59.875,161.613,49.5,160.5169,39.125,160.3478,28.75,160.3786,18.375,161,8" style="stroke: #87CEEB; stroke-width: 1.5;"/><text fill="#87CEEB" font-family="sans-serif" font-size="12" font-style="italic" lengthAdjust="spacingAndGlyphs" textLength="65" x="213" y="28.457">«¿Dónde?»</text><text fill="#87CEEB" font-family="sans-serif" font-size="20" font-weight="bold" lengthAdjust="spacingAndGlyphs" textLength="157" x="167" y="57.8555">World Wide Web</text><path d="M365.5,18.5 L365.5,35 L330.23,39 L365.5,43 L365.5,59.6563 A0,0 0 0 0 365.5,59.6563 L669.5,59.6563 A0,0 0 0 0 669.5,59.6563 L669.5,28.5 L659.5,18.5 L365.5,18.5 A0,0 0 0 0 365.5,18.5 " fill="#222222" style="stroke: #A9A9A9; stroke-width: 1.0;"/><path d="M659.5,18.5 L659.6868,18.5 L659.1317,20.5 L659.6718,22.5 L659.8553,24.5 L658.8659,26.5 L659.5,28.5 L659.5,28.4309 L661.5,28.1209 L663.5,28.1591 L665.5,28.4394 L667.5,27.8854 L669.5,28.5 L669.848,28.848 L667.1038,26.1038 L665.3757,24.3757 L663.7715,22.7715 L661.4461,20.4461 L659.5,18.5 " fill="#222222" style="stroke: #A9A9A9; stroke-width: 1.0;"/><text fill="#00FFFF" font-family="sans-serif" font-size="20" lengthAdjust="spacingAndGlyphs" textLength="277" x="374.5" y="47.2617">650 millones de usuarios aprox.</text><!--class cuando--><polygon fill="#222222" points="736.5,8,736.5,8.2102,746.5,7.5857,756.5,8.1933,766.5,8.3997,776.5,7.2866,786.5,7.9223,796.5,7.5735,806.5,7.6165,816.5,8,816.4318,8,815.8086,18.375,817.0536,28.75,815.8697,39.125,816.3022,49.5,816.9319,59.875,816.5,70.25,816.5,70.1642,806.5,70.3182,796.5,70.2181,786.5,70.4285,776.5,70.4891,766.5,70.8357,756.5,70.9211,746.5,70.9293,736.5,70.25,736.7546,70.25,736.9636,59.875,737.2022,49.5,735.7788,39.125,737.1785,28.75,736.2035,18.375,736.5,8" style="stroke: #87CEEB; stroke-width: 1.5;"/><text fill="#87CEEB" font-family="sans-serif" font-size="12" font-style="italic" lengthAdjust="spacingAndGlyphs" textLength="72" x="740.5" y="28.457">«¿Cuándo?»</text><text fill="#87CEEB" font-family="sans-serif" font-size="20" font-weight="bold" lengthAdjust="spacingAndGlyphs" textLength="44" x="754.5" y="57.8555">2002</text><path d="M851.5,18.5 L851.5,35 L816.67,39 L851.5,43 L851.5,59.6563 A0,0 0 0 0 851.5,59.6563 L1153.5,59.6563 A0,0 0 0 0 1153.5,59.6563 L1153.5,28.5 L1143.5,18.5 L851.5,18.5 A0,0 0 0 0 851.5,18.5 " fill="#222222" style="stroke: #A9A9A9; stroke-width: 1.0;"/><path d="M1143.5,18.5 L1143.6868,18.5 L1143.1317,20.5 L1143.6718,22.5 L1143.8553,24.5 L1142.8659,26.5 L1143.5,28.5 L1143.5,28.4309 L1145.5,28.1209 L1147.5,28.1591 L1149.5,28.4394 L1151.5,27.8854 L1153.5,28.5 L1153.848,28.848 L1151.1038,26.1038 L1149.3757,24.3757 L1147.7715,22.7715 L1145.4461,20.4461 L1143.5,18.5 " fill="#222222" style="stroke: #A9A9A9; stroke-width: 1.0;"/><text fill="#00FFFF" font-family="sans-serif" font-size="20" lengthAdjust="spacingAndGlyphs" textLength="275" x="860.5" y="47.2617">4 años tras la creación de XML</text><!--class por--><polygon fill="#222222" points="242.5,157.5,242.5,157.7102,252.3333,157.0857,262.1667,157.6933,272,157.8997,281.8333,156.7866,291.6667,157.4223,301.5,157.0735,311.3333,157.1165,321.1667,157.4318,331,156.8086,340.8333,158.0536,350.6667,156.8697,360.5,157.5,360.3022,157.5,360.9319,167.875,360.4142,178.25,360.5682,188.625,360.4681,199,360.6785,209.375,360.5,219.75,360.5,219.9891,350.6667,220.3357,340.8333,220.4211,331,220.4293,321.1667,220.0046,311.3333,220.2136,301.5,220.4522,291.6667,219.0288,281.8333,220.4285,272,219.4535,262.1667,220.2838,252.3333,219.255,242.5,219.75,242.4315,219.75,243.2416,209.375,242.4513,199,242.6053,188.625,242.8386,178.25,242.9162,167.875,242.5,157.5" style="stroke: #DC143C; stroke-width: 1.5;"/><text fill="#DC143C" font-family="sans-serif" font-size="12" font-style="italic" lengthAdjust="spacingAndGlyphs" textLength="71" x="266" y="177.957">«¿Por qué?»</text><text fill="#DC143C" font-family="sans-serif" font-size="20" font-weight="bold" lengthAdjust="spacingAndGlyphs" textLength="106" x="248.5" y="207.3555">Ineficiencia</text><path d="M396,130 L396,184.5 L360.63,188.5 L396,192.5 L396,246.625 A0,0 0 0 0 396,246.625 L755,246.625 A0,0 0 0 0 755,246.625 L755,140 L745,130 L396,130 A0,0 0 0 0 396,130 " fill="#222222" style="stroke: #A9A9A9; stroke-width: 1.0;"/><path d="M745,130 L745.1868,130 L744.6317,132 L745.1718,134 L745.3553,136 L744.3659,138 L745,140 L745,139.9309 L747,139.6209 L749,139.6591 L751,139.9394 L753,139.3854 L755,140 L755.348,140.348 L752.6038,137.6038 L750.8757,135.8757 L749.2715,134.2715 L746.9461,131.9461 L745,130 " fill="#222222" style="stroke: #A9A9A9; stroke-width: 1.0;"/><text fill="#FF0000" font-family="sans-serif" font-size="20" lengthAdjust="spacingAndGlyphs" textLength="215" x="405" y="158.7617">Hay que escribir muchos</text><text fill="#FF0000" font-family="sans-serif" font-size="20" lengthAdjust="spacingAndGlyphs" textLength="288" x="405" y="183.918">caracteres redundantes en XML:</text><text fill="#FF0000" font-family="sans-serif" font-size="20" lengthAdjust="spacingAndGlyphs" textLength="146" x="411" y="209.0742">apertura y cierre</text><text fill="#FF0000" font-family="sans-serif" font-size="20" lengthAdjust="spacingAndGlyphs" textLength="326" x="411" y="234.2305">de cada etiqueta y de cada elemento</text><!--class quien--><polygon fill="#222222" points="248,307,248,307.2102,257.7273,306.5857,267.4545,307.1933,277.1818,307.3997,286.9091,306.2866,296.6364,306.9223,306.3636,306.5735,316.0909,306.6165,325.8182,306.9318,335.5455,306.3086,345.2727,307.5536,355,307,354.3697,307,354.8022,316.7118,355.4319,326.4236,354.9142,336.1354,355.0682,345.8472,354.9681,355.559,355.1785,365.2708,355.2391,374.9826,355.5857,384.6944,355,394.4063,355,395.0773,345.2727,395.0855,335.5455,394.6609,325.8182,394.8698,316.0909,395.1085,306.3636,393.6851,296.6364,395.0848,286.9091,394.1097,277.1818,394.9401,267.4545,393.9112,257.7273,394.3378,248,394.4063,248.7416,394.4063,247.9513,384.6944,248.1053,374.9826,248.3386,365.2708,248.4162,355.559,247.9961,345.8472,248.2872,336.1354,247.4276,326.4236,248.2844,316.7118,248,307" style="stroke: #228B22; stroke-width: 1.5;"/><text fill="#228B22" font-family="sans-serif" font-size="12" font-style="italic" lengthAdjust="spacingAndGlyphs" textLength="61" x="271" y="327.457">«¿Quién?»</text><text fill="#228B22" font-family="sans-serif" font-size="20" font-weight="bold" lengthAdjust="spacingAndGlyphs" textLength="77" x="263" y="356.8555">Douglas</text><text fill="#228B22" font-family="sans-serif" font-size="20" font-weight="bold" lengthAdjust="spacingAndGlyphs" textLength="95" x="254" y="382.0117">Crockford</text><!--class que--><polygon fill="#222222" points="168.5,481.5,168.5,481.7102,178.3519,481.0857,188.2037,481.6933,198.0556,481.8997,207.9074,480.7866,217.7593,481.4223,227.6111,481.0735,237.463,481.1165,247.3148,481.4318,257.1667,480.8086,267.0185,482.0536,276.8704,480.8697,286.7222,481.3022,296.5741,481.9319,306.4259,481.4142,316.2778,481.5682,326.1296,481.4681,335.9815,481.6785,345.8333,481.7391,355.6852,482.0857,365.537,482.1711,375.3889,482.1793,385.2407,481.7546,395.0926,481.9636,404.9444,482.2022,414.7963,480.7788,424.6481,482.1785,434.5,481.5,434.2035,481.5,435.0338,491.2118,434.005,500.9236,434.4315,510.6354,435.2416,520.3472,434.4513,530.059,434.6053,539.7708,434.8386,549.4826,434.9162,559.1944,434.5,568.9063,434.5,568.9023,424.6481,569.1935,414.7963,568.3338,404.9444,569.1906,395.0926,569.4544,385.2407,569.3508,375.3889,569.5193,365.537,568.4232,355.6852,568.2541,345.8333,568.2848,335.9815,568.8474,326.1296,568.7097,316.2778,569.5877,306.4259,568.7316,296.5741,568.5632,286.7222,569.1345,276.8704,568.2394,267.0185,568.3871,257.1667,569.5552,247.3148,569.3419,237.463,569.6407,227.6111,568.5845,217.7593,569.2254,207.9074,569.4967,198.0556,568.4338,188.2037,568.8104,178.3519,569.0322,168.5,568.9063,169.1518,568.9063,168.4958,559.1944,168.9626,549.4826,167.9462,539.7708,167.8227,530.059,169.0036,520.3472,167.7831,510.6354,169.009,500.9236,168.7066,491.2118,168.5,481.5" style="stroke: #228B22; stroke-width: 1.5;"/><text fill="#228B22" font-family="sans-serif" font-size="12" font-style="italic" lengthAdjust="spacingAndGlyphs" textLength="51" x="276" y="501.957">«¿Qué?»</text><text fill="#228B22" font-family="sans-serif" font-size="20" font-weight="bold" lengthAdjust="spacingAndGlyphs" textLength="254" x="174.5" y="531.3555">JavaScript Object Notation</text><text fill="#228B22" font-family="sans-serif" font-size="20" font-weight="bold" lengthAdjust="spacingAndGlyphs" textLength="68" x="267.5" y="556.5117">(JSON)</text><path d="M470,454 L470,521 L434.66,525 L470,529 L470,595.7813 A0,0 0 0 0 470,595.7813 L967,595.7813 A0,0 0 0 0 967,595.7813 L967,464 L957,454 L470,454 A0,0 0 0 0 470,454 " fill="#222222" style="stroke: #A9A9A9; stroke-width: 1.0;"/><path d="M957,454 L957.1868,454 L956.6317,456 L957.1718,458 L957.3553,460 L956.3659,462 L957,464 L957,463.9309 L959,463.6209 L961,463.6591 L963,463.9394 L965,463.3854 L967,464 L967.348,464.348 L964.6038,461.6038 L962.8757,459.8757 L961.2715,458.2715 L958.9461,455.9461 L957,454 " fill="#222222" style="stroke: #A9A9A9; stroke-width: 1.0;"/><text fill="#008000" font-family="sans-serif" font-size="20" lengthAdjust="spacingAndGlyphs" textLength="389" x="479" y="482.7617">formato de texto sencillo para el intercambio</text><text fill="#008000" font-family="sans-serif" font-size="20" lengthAdjust="spacingAndGlyphs" textLength="351" x="479" y="507.918">de datos. Se trata de un subconjunto de</text><text fill="#008000" font-family="sans-serif" font-size="20" lengthAdjust="spacingAndGlyphs" textLength="452" x="479" y="533.0742">la notación literal de objetos de JavaScript, aunque,</text><text fill="#008000" font-family="sans-serif" font-size="20" lengthAdjust="spacingAndGlyphs" textLength="470" x="479" y="558.2305">debido a su amplia adopción como alternativa a XML,</text><text fill="#008000" font-family="sans-serif" font-size="20" lengthAdjust="spacingAndGlyphs" textLength="449" x="479" y="583.3867">se considera un formato independiente del lenguaje</text><!--class para--><polygon fill="#222222" points="6,683.5,6,683.7102,16.3,683.0857,26.6,683.6933,36.9,683.8997,47.2,682.7866,57.5,683.4223,67.8,683.0735,78.1,683.1165,88.4,683.4318,98.7,682.8086,109,683.5,109.5536,683.5,108.3697,693.875,108.8022,704.25,109.4319,714.625,108.9142,725,109.0682,735.375,109,745.75,109,745.7181,98.7,745.9285,88.4,745.9891,78.1,746.3357,67.8,746.4211,57.5,746.4293,47.2,746.0046,36.9,746.2136,26.6,746.4522,16.3,745.0288,6,745.75,6.6785,745.75,5.7035,735.375,6.5338,725,5.505,714.625,5.9315,704.25,6.7416,693.875,6,683.5" style="stroke: #228B22; stroke-width: 1.5;"/><text fill="#228B22" font-family="sans-serif" font-size="12" font-style="italic" lengthAdjust="spacingAndGlyphs" textLength="78" x="18.5" y="703.957">«¿Para qué?»</text><text fill="#228B22" font-family="sans-serif" font-size="20" font-weight="bold" lengthAdjust="spacingAndGlyphs" textLength="91" x="12" y="733.3555">Eficiencia</text><path d="M144.5,656 L144.5,710.5 L109.24,714.5 L144.5,718.5 L144.5,772.625 A0,0 0 0 0 144.5,772.625 L492.5,772.625 A0,0 0 0 0 492.5,772.625 L492.5,666 L482.5,656 L144.5,656 A0,0 0 0 0 144.5,656 " fill="#222222" style="stroke: #A9A9A9; stroke-width: 1.0;"/><path d="M482.5,656 L482.6868,656 L482.1317,658 L482.6718,660 L482.8553,662 L481.8659,664 L482.5,666 L482.5,665.9309 L484.5,665.6209 L486.5,665.6591 L488.5,665.9394 L490.5,665.3854 L492.5,666 L492.848,666.348 L490.1038,663.6038 L488.3757,661.8757 L486.7715,660.2715 L484.4461,657.9461 L482.5,656 " fill="#222222" style="stroke: #A9A9A9; stroke-width: 1.0;"/><text fill="#008000" font-family="sans-serif" font-size="20" lengthAdjust="spacingAndGlyphs" textLength="287" x="153.5" y="684.7617">Agilizar tanto en desarrollo como</text><text fill="#008000" font-family="sans-serif" font-size="20" lengthAdjust="spacingAndGlyphs" textLength="321" x="153.5" y="709.918">en explotación los servicios de datos</text><text fill="#008000" font-family="sans-serif" font-size="20" lengthAdjust="spacingAndGlyphs" textLength="313" x="159.5" y="735.0742">a la plataforma Web, no solo HTML</text><text fill="#008000" font-family="sans-serif" font-size="20" lengthAdjust="spacingAndGlyphs" textLength="6" x="159.5" y="760.2305">:</text><text fill="#008000" font-family="sans-serif" font-size="20" font-weight="bold" lengthAdjust="spacingAndGlyphs" textLength="135" x="171.5" y="760.2305">Servicios Web</text><!--class como--><polygon fill="#222222" points="239.5,833,239.5,833.2102,249.8333,832.5857,260.1667,833.1933,270.5,833.3997,280.8333,832.2866,291.1667,832.9223,301.5,832.5735,311.8333,832.6165,322.1667,832.9318,332.5,832.3086,342.8333,833.5536,353.1667,832.3697,363.5,833,363.3022,833,363.9319,843.375,363.4142,853.75,363.5682,864.125,363.4681,874.5,363.6785,884.875,363.5,895.25,363.5,895.4891,353.1667,895.8357,342.8333,895.9211,332.5,895.9293,322.1667,895.5046,311.8333,895.7136,301.5,895.9522,291.1667,894.5288,280.8333,895.9285,270.5,894.9535,260.1667,895.7838,249.8333,894.755,239.5,895.25,239.4315,895.25,240.2416,884.875,239.4513,874.5,239.6053,864.125,239.8386,853.75,239.9162,843.375,239.5,833" style="stroke: #A9A9A9; stroke-width: 1.5;"/><text fill="#A9A9A9" font-family="sans-serif" font-size="12" font-style="italic" lengthAdjust="spacingAndGlyphs" textLength="62" x="270.5" y="853.457">«¿Cómo?»</text><text fill="#A9A9A9" font-family="sans-serif" font-size="20" font-weight="bold" lengthAdjust="spacingAndGlyphs" textLength="112" x="245.5" y="882.8555">Descripción</text><!--link cuando to por--><path d="M731.05,56.62 L731.0796,56.7086 L728.8633,57.1551 L726.8202,58.1211 L724.7208,58.9179 L722.4358,59.1583 L720.4077,60.1689 L720.3972,60.136 L718.1574,60.6863 L715.9704,61.4024 L713.8201,62.2339 L711.5433,62.668 L709.4438,63.6588 L709.5145,63.8944 L707.1536,64.0535 L704.9992,64.9008 L702.87,65.8319 L700.5942,66.2746 L698.3955,66.9742 L698.4036,67.0034 L696.2126,67.5657 L694.0585,68.261 L691.8866,68.8921 L689.7487,69.6457 L687.5,70 L687.5735,70.2891 L685.0898,70.9241 L682.5587,71.3728 L680.097,72.0943 L677.6385,72.8286 L675.0771,73.1577 L675.0042,72.8456 L672.7596,74.0088 L670.275,74.1443 L667.9729,75.0611 L665.4828,75.1733 L663.1468,75.945 L663.1404,75.9152 L660.9217,76.7564 L658.5546,76.902 L656.275,77.4581 L654.0028,78.0486 L651.6776,78.3906 L651.7127,78.5722 L649.4694,78.8154 L647.2861,79.369 L645.0057,79.4204 L642.8701,80.2208 L640.6382,80.5233 L640.6799,80.7633 L638.5439,81.0876 L636.4285,81.5311 L634.2169,81.4209 L632.0758,81.7165 L629.9972,82.3718 L629.9549,82.0989 L627.9384,82.6646 L625.8742,82.9228 L623.8792,83.627 L621.7661,83.5697 L619.7232,83.9651 L619.7036,83.8138 L615.8216,84.5727 L611.856,84.6853 L607.9498,85.2575 L604.1019,86.2794 L600.1503,86.5005 L600.1697,86.6931 L596.4866,87.1971 L592.7432,87.1018 L589.0753,87.7571 L585.391,88.2489 L581.6683,88.3597 L581.6516,88.1504 L578.1365,88.5998 L574.6159,88.9807 L571.106,89.4963 L567.5543,89.4883 L564.026,89.7728 L564.0406,89.9778 L557.2543,90.0089 L550.4962,90.4359 L543.7793,91.4411 L536.9865,91.3817 L530.255,92.1812 L530.2747,92.4066 L526.9368,92.5639 L523.5921,92.6449 L520.2626,92.898 L516.9678,93.5489 L513.6238,93.6369 L513.6086,93.5048 L510.2945,94.2843 L506.8771,94.1649 L503.5771,95.0676 L500.2111,95.3949 L496.8271,95.5671 L496.8436,95.6747 L493.3876,96.1148 L489.9906,96.9402 L486.5403,97.4175 L483.0678,97.7493 L479.6137,98.2019 L479.637,98.3188 L476.0261,98.859 L472.5234,99.9419 L468.8983,100.4111 L465.3235,101.1327 L461.7322,101.7714 L461.6662,101.5092 L457.928,102.5436 L454.2695,103.8939 L450.4983,104.7973 L446.6869,105.5405 L442.9313,106.5058 L442.8911,106.3684 L440.9393,106.9877 L438.9162,107.3636 L437.0889,108.4083 L435.1647,109.1221 L433.1076,109.3818 L433.1791,109.6046 L431.1724,110.3266 L429.03,110.6254 L427.0308,111.3708 L424.9368,111.8206 L422.9599,112.6353 L423.0014,112.7545 L420.8953,113.4709 L418.8394,114.3311 L416.6244,114.7348 L414.5376,115.5068 L412.4566,116.2951 L412.526,116.4796 L410.3674,117.3501 L408.0204,117.7199 L405.8922,118.6714 L403.7679,119.6331 L401.5665,120.39 L401.465,120.1382 L399.3636,121.4474 L397.086,122.3198 L394.7647,123.0837 L392.5434,124.0956 L390.2581,124.9487 L390.3859,125.2463 L387.8516,125.8312 L385.6101,127.0978 L383.2534,128.0961 L380.8719,129.037 L378.5,130 L378.5279,130.0561 L376.2245,131.1899 L373.7802,132.0412 L371.5265,133.2748 L369.2164,134.3954 L367.0098,135.7238 L367.0244,135.7481 L364.7872,137.0971 L362.5613,138.465 L360.2154,139.632 L358.0236,141.057 L355.7963,142.4225 L355.7662,142.3784 L353.7958,144.0963 L351.6133,145.5032 L349.2402,146.6302 L347.1986,148.2437 L345.072,149.7325 L344.9176,149.5277 L343.1448,151.3463 L341.226,152.9714 L339.2045,154.4602 L336.9379,155.6239 L335.05,157.29 " fill="none" style="stroke: #A9A9A9; stroke-width: 2.0;"/><polygon fill="#A9A9A9" points="736.08,54.89,736.0862,54.9598,734.1058,54.5769,732.1619,54.6031,730.2061,54.496,728.2111,53.9509,726.2703,54.0122,726.2589,53.989,727.2232,54.3833,728.2451,54.8948,729.307,55.4878,730.231,55.7999,731.3481,56.5054,731.5138,56.5867,730.6609,57.4284,730.2917,58.5075,729.9815,59.6156,729.328,60.5551,728.855,61.5832,728.8704,61.5999,730.2928,60.2368,731.7854,58.9496,733.2442,57.6258,734.7677,56.3719,736.08,54.89" style="stroke: #A9A9A9; stroke-width: 2.0;"/><!--link donde to por--><path d="M258.83,75.1 L259.092,75.1995 L261.7824,84.0417 L266.0087,93.467 L269.7349,102.7025 L271.8163,111.3135 L276.0776,120.7521 L279.1117,129.7248 L282.6342,138.883 L286.4962,148.17 L290.05,157.34 " fill="none" style="stroke: #A9A9A9; stroke-width: 2.0;"/><polygon fill="#A9A9A9" points="256.97,70.2,257.04,70.2039,256.7223,72.159,256.8147,74.137,256.7736,76.1076,256.2934,78.0536,256.421,80.0335,256.3974,80.0229,256.7557,78.9435,257.2332,77.9177,257.7934,76.9292,258.0683,75.8122,258.7428,74.8752,258.8186,75.0434,259.6883,75.1479,260.7791,75.7438,261.897,76.3996,262.8578,76.7066,263.9012,77.197,263.9174,77.213,262.5074,75.7901,261.171,74.4401,259.7991,73.0549,258.4949,71.7368,256.97,70.2" style="stroke: #A9A9A9; stroke-width: 2.0;"/><!--link cuando to quien--><path d="M787.8,75.39 L787.8908,75.4119 L788.5051,79.0219 L789.6518,82.76 L790.6251,86.4564 L791.0283,90.0156 L792.2207,93.7647 L792.1869,93.7579 L792.4409,95.7504 L792.8657,97.7771 L793.4092,99.8277 L793.5437,101.7962 L794.251,103.8797 L794.4935,103.921 L794.3364,105.9548 L794.8875,108.1092 L795.525,110.2784 L795.6597,112.3619 L796.0589,114.4905 L796.089,114.4946 L796.3466,116.6915 L796.7411,118.9071 L797.0696,121.1136 L797.5239,123.3374 L797.5678,125.505 L797.8646,125.5347 L798.0949,127.8003 L798.1337,130.0468 L798.4528,132.3213 L798.785,134.5972 L798.7011,136.8313 L798.3811,136.8125 L799.1383,139.1583 L798.8419,141.442 L799.3464,143.773 L799.0261,146.0553 L799.3819,148.3774 L799.3515,148.377 L799.7419,150.7165 L799.421,153.0467 L799.5198,155.3823 L799.6539,157.7184 L799.5337,160.0513 L799.7186,160.0584 L799.4412,162.3931 L799.4797,164.74 L799.0072,167.0671 L799.2969,169.4238 L799.0798,171.7608 L799.3223,171.7845 L799.0492,174.1107 L798.8964,176.4486 L798.1843,178.732 L797.8822,181.0553 L797.9435,183.4141 L797.671,183.3692 L797.5385,185.7109 L797.0991,188.0019 L797.105,190.3664 L796.3505,192.6055 L796.048,194.9192 L795.8998,194.8832 L795.6003,197.196 L794.6675,199.3552 L794.185,201.6236 L794.1433,203.9989 L793.3167,206.1839 L793.5004,206.2451 L792.8977,208.4736 L791.7235,210.5117 L791.2651,212.7882 L790.6507,215.0129 L789.673,217.1164 L789.4809,217.0317 L788.7074,219.2008 L787.871,221.3422 L787.1583,223.5381 L785.9649,225.5222 L785.0401,227.6246 L785.2186,227.7264 L783.6865,229.501 L782.4991,231.4722 L781.8152,233.7306 L780.2043,235.4602 L779.3413,237.6164 L779.5241,237.7497 L778.0472,239.5472 L776.5086,241.2997 L775.1095,243.1539 L774.033,245.2434 L772.5,247 L772.4082,246.9037 L770.2595,249.5002 L767.4863,251.442 L765.4231,254.1282 L762.9602,256.3953 L760.3896,258.5494 L760.4493,258.6404 L757.1417,260.7064 L754.0481,263.0983 L750.7612,265.1959 L747.3935,267.1703 L744.0929,269.2469 L744.1485,269.3523 L742.1534,270.2034 L740.4164,271.544 L738.3875,272.3309 L736.4787,273.3455 L734.5305,274.2854 L734.4166,274.0401 L732.3702,275.0893 L730.4609,276.4339 L728.3575,277.3605 L726.1847,278.1372 L724.1083,279.1218 L724.0536,278.9895 L721.8272,279.9595 L719.5039,280.6952 L717.4469,282.075 L715.2582,283.136 L712.8887,283.7599 L712.9702,283.9792 L710.6053,284.9381 L708.0856,285.4803 L705.7293,286.4623 L703.2648,287.1531 L700.9339,288.2033 L700.9742,288.3229 L698.4434,289.1577 L695.9612,290.1369 L693.3247,290.6579 L690.8127,291.5485 L688.3063,292.4556 L688.3641,292.644 L685.7326,293.5096 L682.9441,293.8638 L680.338,294.8122 L677.7351,295.771 L675.068,296.5205 L674.9945,296.2592 L672.3533,297.4479 L669.5845,298.1834 L666.784,298.8061 L664.0559,299.6863 L661.2815,300.4017 L661.3628,300.7152 L658.3921,301.0073 L655.6076,302.0176 L652.7498,302.7452 L649.8763,303.4123 L647.0089,304.1027 L647.0235,304.1636 L644.0814,304.8567 L641.0657,305.2428 L638.1495,306.0442 L635.204,306.7229 L632.3125,307.6273 L632.3187,307.655 L629.3095,308.3359 L626.305,309.0382 L623.2497,309.5121 L620.2598,310.2794 L617.2547,310.9791 L617.2439,310.9267 L614.2353,311.8666 L611.1504,312.4377 L607.9967,312.6773 L604.9625,313.4934 L601.8977,314.1617 L601.849,313.9098 L598.8032,314.8909 L595.7115,315.634 L592.5873,316.2095 L589.3858,316.3853 L586.3038,317.1788 L586.3405,317.3817 L583.0912,317.4249 L580.0122,318.4084 L576.8189,318.761 L573.6965,319.5052 L570.5352,320.034 L570.5531,320.1393 L567.3941,320.7802 L564.1292,320.7973 L561.042,321.8605 L557.8437,322.2696 L554.6542,322.731 L554.6791,322.8869 L551.5204,323.5677 L548.2822,323.7504 L545.1079,324.3334 L541.9244,324.8586 L538.7232,325.2734 L538.7362,325.3601 L535.5394,325.7514 L532.4026,326.5424 L529.1317,326.4403 L526.0255,327.4351 L522.8044,327.6649 L522.7666,327.3902 L516.4613,328.296 L510.1861,329.4205 L503.875,330.2843 L497.533,330.9239 L491.2525,332.0098 L491.2749,332.1923 L485.1072,332.8149 L478.9896,333.8444 L472.8352,334.5751 L466.6235,334.8401 L460.4967,335.7948 L460.4773,335.6191 L454.5981,336.3886 L448.7295,337.2536 L442.8396,337.9255 L436.9423,338.5313 L431.0354,339.0492 L431.0203,338.8979 L425.5296,339.8812 L419.9957,340.4306 L414.432,340.68 L408.8898,341.1457 L403.3666,341.802 L403.3507,341.6243 L398.2825,342.1631 L393.2209,342.7751 L388.1372,343.1401 L383.0477,343.4415 L377.9888,344.0826 L378.0063,344.2985 L373.4545,344.2467 L368.9714,345.0401 L364.4509,345.3743 L359.9312,345.7172 L355.4,345.92 " fill="none" style="stroke: #A9A9A9; stroke-width: 2.0;"/><polygon fill="#A9A9A9" points="786.41,70.31,786.4792,70.3206,785.9743,72.2359,785.8753,74.2136,785.6442,76.171,784.9783,78.0616,784.9141,80.0446,784.8916,80.0317,785.3525,78.992,785.9268,78.0171,786.5798,77.0872,786.9613,76.0021,787.7232,75.1345,787.8148,75.2947,788.6009,75.5139,789.6545,76.2009,790.7407,76.9449,791.6371,77.3569,792.6333,77.9435,792.6509,77.9579,791.3804,76.4101,790.1901,74.9277,788.9611,73.4138,787.806,71.9601,786.41,70.31" style="stroke: #A9A9A9; stroke-width: 2.0;"/><!--link donde to quien--><path d="M233.2,75.32 L233.2899,75.3453 L232.0624,78.6818 L231.3619,82.1667 L230.4899,85.6033 L229.0533,88.881 L228.3981,92.3786 L228.3645,92.3706 L227.2901,96.2018 L226.3851,100.0734 L225.5978,103.9731 L224.4048,107.776 L223.78,111.7145 L224.0211,111.7635 L223.0849,113.7313 L222.8526,115.8421 L222.7063,117.9703 L222.0602,119.997 L221.677,122.0771 L221.7068,122.0824 L221.2845,124.2228 L220.9981,126.3872 L220.6461,128.54 L220.4192,130.7149 L219.7844,132.8179 L220.0794,132.8613 L219.7576,135.0729 L219.2454,137.2564 L219.0119,139.4809 L218.7913,141.7074 L218.1571,143.873 L217.8387,143.8362 L218.1953,146.1688 L217.5034,148.3802 L217.6085,150.6837 L216.8929,152.8923 L216.85,155.1788 L216.8197,155.1763 L216.9921,157.5039 L216.4556,159.7741 L216.3374,162.0781 L216.2543,164.3851 L215.9179,166.6714 L216.1027,166.6794 L215.8157,168.9945 L215.8445,171.3233 L215.3624,173.63 L215.6424,175.9696 L215.4156,178.2873 L215.6593,178.2877 L215.6097,180.6226 L215.681,182.9578 L215.1904,185.2921 L215.1117,187.6271 L215.398,189.9626 L215.1221,189.9502 L215.4763,192.2956 L215.5196,194.6271 L216.0138,196.9787 L215.7381,199.2959 L215.92,201.6336 L215.7682,201.619 L216.2443,203.9639 L216.0715,206.2464 L216.3601,208.5733 L217.1002,210.9436 L217.0363,213.2366 L217.2277,213.266 L217.7121,215.5805 L217.6012,217.8033 L218.2359,220.1409 L218.7081,222.4535 L218.8019,224.7078 L218.5968,224.6629 L219.2542,226.9538 L219.8444,229.2301 L220.5666,231.5352 L220.7757,233.728 L221.2715,235.9835 L221.4688,236.0413 L221.681,238.1176 L222.274,240.3055 L223.4234,242.6564 L223.5485,244.7071 L224.5,247 L224.7093,247.0857 L225.9091,250.2693 L227.0379,253.4239 L228.3267,256.6439 L229.9849,260.0152 L231.1203,263.1725 L231.0036,263.1087 L233.0535,266.4117 L234.3096,269.2806 L236.4684,272.6432 L238.1189,275.7278 L239.6325,278.7375 L239.7231,278.7978 L241.6067,281.6874 L243.8147,284.793 L245.7295,287.7034 L247.5219,290.5322 L249.4159,293.4288 L249.5104,293.5015 L251.4569,296.1037 L253.8419,299.0435 L255.7309,301.6015 L257.824,304.3165 L259.85,306.98 " fill="none" style="stroke: #A9A9A9; stroke-width: 2.0;"/><polygon fill="#A9A9A9" points="234.73,70.34,234.7828,70.386,233.3322,71.7347,232.1913,73.3531,230.9495,74.8837,229.376,76.1254,228.2617,77.767,228.2495,77.7441,229.1949,77.1118,230.2014,76.5949,231.2504,76.1583,232.1529,75.4451,233.2606,75.1192,233.4237,75.2056,233.6045,76.0206,234.2614,77.0879,234.9765,78.1859,235.3536,79.1049,235.9084,80.1181,235.931,80.1208,235.6621,78.1612,235.4961,76.214,235.2805,74.2608,235.1595,72.319,234.73,70.34" style="stroke: #A9A9A9; stroke-width: 2.0;"/><!--link por to quien--><path d="M301.5,224.63 L301.7802,224.63 L300.9476,234.9088 L301.7577,245.1875 L302.0329,255.4663 L300.5488,265.745 L301.3964,276.0238 L300.9313,286.3025 L300.9887,296.5813 L301.5,306.86 " fill="none" style="stroke: #A9A9A9; stroke-width: 2.0;"/><polygon fill="#A9A9A9" points="301.5,219.59,301.564,219.6185,300.5738,221.3339,299.9589,223.2162,299.2217,225.0441,298.0827,226.6934,297.5,228.59,297.4817,228.5717,298.1995,227.6895,299.0096,226.8996,299.8839,226.1739,300.537,225.227,301.5,224.59,301.6305,224.7205,302.1514,225.2414,303.0534,226.1434,304.0018,227.0918,304.6798,227.7698,305.5,228.59,305.5208,228.5992,304.6903,226.7857,303.9544,225.0142,303.1728,223.2224,302.4784,221.4693,301.5,219.59" style="stroke: #A9A9A9; stroke-width: 2.0;"/><!--link quien to que--><path d="M301.5,399.2 L301.7802,399.2 L300.9476,409.4563 L301.7577,419.7125 L302.0329,429.9688 L300.5488,440.225 L301.3964,450.4813 L300.9313,460.7375 L300.9887,470.9938 L301.5,481.25 " fill="none" style="stroke: #A9A9A9; stroke-width: 2.0;"/><polygon fill="#A9A9A9" points="301.5,394.14,301.564,394.1685,300.5738,395.8839,299.9589,397.7662,299.2217,399.5941,298.0827,401.2434,297.5,403.14,297.4817,403.1217,298.1995,402.2395,299.0096,401.4496,299.8839,400.7239,300.537,399.777,301.5,399.14,301.6305,399.2705,302.1514,399.7914,303.0534,400.6934,304.0018,401.6418,304.6798,402.3198,305.5,403.14,305.5208,403.1492,304.6903,401.3357,303.9544,399.5642,303.1728,397.7724,302.4784,396.0193,301.5,394.14" style="stroke: #A9A9A9; stroke-width: 2.0;"/><!--link que to para--><path d="M238.5,571.49 L238.5554,571.5652 L233.0855,575.2469 L227.9402,579.3695 L222.6893,583.3485 L217.0907,586.8553 L211.9733,591.0158 L211.9526,590.9881 L206.1895,595.0939 L200.5306,599.3394 L194.9439,603.6818 L189.1079,607.6899 L183.6213,612.1663 L183.77,612.3623 L177.6694,616.3311 L172.0031,620.8722 L166.3897,625.4831 L160.4681,629.6878 L154.7086,634.1061 L154.7272,634.1301 L149.0582,638.4737 L143.4738,642.9263 L137.8486,647.3264 L132.3013,651.8269 L126.5,656 L126.6867,656.2326 L123.3119,658.9452 L119.8168,661.5078 L116.4979,664.2899 L113.1873,667.0824 L109.615,669.5488 L109.4109,669.3016 L106.484,672.5255 L102.8851,674.9356 L99.7971,677.9644 L96.1829,680.3561 L93,683.27 " fill="none" style="stroke: #A9A9A9; stroke-width: 2.0;"/><polygon fill="#A9A9A9" points="242.55,568.53,242.5649,568.5984,240.5961,568.8153,238.7149,569.4334,236.8051,569.9208,234.8016,569.9785,232.9279,570.6311,232.9239,570.6055,234.0246,570.6621,235.1451,570.8478,236.2793,571.1232,237.3661,571.0894,238.5193,571.4887,238.7018,571.5167,238.1402,572.5751,238.1111,573.7153,238.1471,574.8654,237.805,575.9575,237.6618,577.0801,237.6815,577.0914,238.6302,575.3648,239.6687,573.6896,240.6639,571.9896,241.7418,570.3369,242.55,568.53" style="stroke: #A9A9A9; stroke-width: 2.0;"/><!--link que to como--><path d="M392.27,571.04 L392.315,571.1219 L395.9562,572.9511 L399.861,575.2603 L403.68,577.4132 L407.2167,579.052 L411.1442,581.4024 L411.1269,581.3725 L414.8043,583.399 L418.5685,585.5765 L422.3931,587.8588 L426.0097,589.7797 L429.9177,592.2069 L430.0443,592.4179 L431.6099,593.0688 L433.5452,594.3357 L435.5256,595.6777 L437.2436,596.5825 L439.0996,597.7173 L439.1155,597.7431 L440.8833,598.8156 L442.7238,600.0055 L444.5293,601.1387 L446.4017,602.38 L448.0558,603.2691 L448.2171,603.52 L449.9518,604.6371 L451.5824,605.5924 L453.3654,606.7846 L455.1555,607.9879 L456.7194,608.8394 L456.541,608.5731 L458.5482,610.203 L459.9678,610.9562 L461.8341,612.3758 L463.2404,613.1091 L465.0238,614.405 L465.0059,614.3803 L468.2694,616.8772 L471.1163,618.7975 L474.209,621.0581 L477.3224,623.3472 L480.2869,625.4302 L480.4045,625.573 L482.8905,627.575 L485.5775,629.8209 L487.9393,631.6721 L490.7861,634.1121 L493.3105,636.1606 L493.4828,636.3329 L495.5,638.3506 L497.6029,640.4538 L499.3082,642.1596 L501.3049,644.1567 L503.5597,646.412 L503.336,646.25 L504.9266,648.3142 L506.2651,650.196 L507.9692,652.3424 L509.0491,654.0369 L510.5,656 L510.3646,655.93 L512.2751,659.3055 L513.6067,662.3818 L515.3501,665.6709 L517.4962,669.1683 L518.925,672.2947 L519.1038,672.369 L520.4769,675.4304 L521.2937,678.2607 L522.8072,681.3803 L524.169,684.437 L525.177,687.3467 L524.9748,687.2903 L525.9284,690.1737 L526.8157,693.0386 L527.8332,695.9398 L528.3448,698.6999 L529.139,701.5388 L529.3432,701.5619 L529.2054,704.254 L529.4618,706.9909 L530.2942,709.793 L530.0662,712.4749 L530.6937,715.2538 L530.9194,715.2698 L530.5915,717.9844 L530.1872,720.6936 L529.9553,723.415 L530.1216,726.1648 L529.7243,728.8745 L529.5955,728.8411 L529.2568,731.7225 L528.0422,734.3765 L527.8235,737.2891 L527.0441,740.0561 L526.1136,742.7839 L526.2134,742.8275 L524.859,745.7085 L523.8619,748.7455 L522.542,751.6416 L521.0873,754.4787 L519.7445,757.3648 L519.8471,757.4254 L517.8458,760.4624 L516.3208,763.7809 L514.2571,766.7809 L512.4149,769.912 L510.5,773 L510.2809,772.8415 L509.0653,774.6763 L508.1137,776.702 L506.7886,778.4576 L505.3296,780.1164 L504.0563,781.9094 L503.9478,781.816 L502.5531,783.5067 L500.9662,785.032 L499.9075,787.0119 L498.5874,788.7668 L496.9088,790.2131 L497.0735,790.3792 L495.5705,791.9762 L493.7543,793.2577 L492.2687,794.8721 L490.5642,796.2662 L489.1297,797.9323 L489.212,798.0281 L487.5336,799.4467 L485.9545,800.9809 L484.0605,802.1483 L482.4205,803.6116 L480.7919,805.0881 L480.9101,805.2458 L479.1783,806.6126 L477.1256,807.5513 L475.4457,808.9874 L473.7723,810.4322 L471.9677,811.7019 L471.8182,811.4752 L470.2066,813.0515 L468.3356,814.2347 L466.4002,815.3202 L464.6121,816.6289 L462.7297,817.7947 L462.893,818.0744 L460.7437,818.7932 L458.9686,820.1528 L457.0462,821.2602 L455.0922,822.3136 L453.1504,823.3878 L453.1793,823.4434 L451.2041,824.4555 L449.0834,825.1875 L447.1596,826.2985 L445.1775,827.2975 L443.3025,828.5025 L443.3144,828.5282 L441.3102,829.4695 L439.3151,830.4307 L437.2216,831.1796 L435.2546,832.2012 L433.2584,833.1599 L433.2379,833.1106 L431.3231,834.241 L429.264,835.0235 L427.075,835.4934 L425.1117,836.507 L423.0906,837.3813 L423.0011,837.1408 L421.0916,838.2627 L419.0975,839.1573 L417.0438,839.892 L414.848,840.245 L412.8718,841.1878 L412.9372,841.3833 L410.7275,841.5573 L408.821,842.6373 L406.7111,843.1093 L404.7275,843.9588 L402.6744,844.6006 L402.7052,844.7029 L400.7142,845.4096 L398.5408,845.5104 L396.6732,846.6273 L394.6145,847.1088 L392.571,847.6411 L392.6122,847.7935 L390.6704,848.4997 L388.5968,848.7191 L386.6292,849.3298 L384.6462,849.884 L382.6341,850.3303 L382.6538,850.4157 L378.8172,851.2119 L375.0716,852.4019 L371.1226,852.7121 L367.4234,854.1028 L363.55,854.74 " fill="none" style="stroke: #A9A9A9; stroke-width: 2.0;"/><polygon fill="#A9A9A9" points="387.76,568.62,387.8153,568.6631,388.8621,570.0886,390.2328,571.7667,391.498,573.3626,392.4164,574.688,393.8149,576.3878,393.7901,576.3802,393.35,575.2639,393.0349,574.1856,392.8066,573.1336,392.2789,571.9907,392.1706,570.9752,392.2242,571.1517,393.192,570.4453,394.3165,570.2544,395.46,570.1263,396.4923,569.6323,397.5832,569.3308,397.5848,569.3535,395.6178,569.178,393.6582,569.1059,391.695,568.9838,389.7387,568.9569,387.76,568.62" style="stroke: #A9A9A9; stroke-width: 2.0;"/><!--link para to como--><path d="M94.67,749 L94.7282,749.0731 L97.6791,751.3429 L100.971,754.0412 L104.1519,756.6 L106.9675,758.7 L110.2888,761.435 L110.2687,761.4069 L113.4209,763.5937 L116.6743,765.9222 L119.9979,768.3493 L123.0793,770.4369 L126.5,773 L126.6329,773.2071 L129.0896,774.5231 L131.9344,776.4437 L134.8265,778.438 L137.4431,780.0032 L140.2046,781.7941 L140.2204,781.8201 L143.0334,783.5015 L145.918,785.301 L148.768,787.0436 L151.684,788.8948 L154.3852,790.3917 L154.5342,790.65 L157.4311,792.3237 L160.2318,793.8308 L163.1732,795.5818 L166.1213,797.3442 L168.8603,798.7444 L168.7053,798.4638 L171.9238,800.6202 L174.632,801.8528 L177.7281,803.7877 L180.4247,804.9993 L183.4488,806.8038 L183.4345,806.7769 L186.5075,808.6383 L189.2468,809.8717 L192.183,811.4757 L195.1358,813.1108 L197.9692,814.5214 L198.0537,814.686 L200.8227,815.9853 L203.736,817.566 L206.4158,818.6916 L209.444,820.4958 L212.2405,821.8489 L212.349,822.067 L215.0966,823.4036 L217.8981,824.8484 L220.4492,825.7901 L223.1839,827.1006 L226.0812,828.7379 L225.9608,828.4893 L228.7155,829.9948 L231.3346,831.2201 L234.1504,832.8518 L236.6304,833.7897 L239.31,835.14 " fill="none" style="stroke: #A9A9A9; stroke-width: 2.0;"/><polygon fill="#A9A9A9" points="90.74,745.71,90.8029,745.7409,91.4834,747.4177,92.5327,749.2754,93.4619,751.0742,93.9962,752.6793,95.0771,754.5525,95.0513,754.5502,94.8351,753.413,94.749,752.2873,94.7534,751.1697,94.4461,750.0244,94.5753,748.9179,94.5916,749.1017,95.6835,748.6083,96.8232,748.6515,97.9688,748.7602,99.0804,748.488,100.2098,748.4161,100.2161,748.4379,98.3129,747.8646,96.4382,747.3909,94.5498,746.8691,92.6876,746.4389,90.74,745.71" style="stroke: #A9A9A9; stroke-width: 2.0;"/><!--
@startuml
skinparam titleBorderColor #222222
skinparam titleBackgroundColor #222222
skinparam titlefontColor #orange
skinparam titleFontStyle bold
skinparam titleFontSize 30

skinparam handwritten true
skinparam shadowing false
skinparam backgroundColor #222222
skinparam padding 3

skinparam note {
    backgroundColor #222222
    borderColor #DarkGrey
    FontColor #DarkGrey
    fontSize 20
}
skinparam arrow {
    Thickness 2
    Color #DarkGrey
    FontSize 20
    FontName courier
    FontStyle normal
    FontColor #DarkGrey
}
skinparam class {
    fontColor<<¿Dónde?>> #87ceeb
    fontColor<<¿Cuándo?>> #87ceeb
    fontColor<<¿Por qué?>> #DC143C
    fontColor<<¿Quién?>> #228B22
    fontColor<<¿Qué?>> #228B22
    fontColor<<¿Para qué?>> #228B22
    FontColor #DarkGrey
    StereotypeFontColor #DarkGrey
    StereotypeFontColor<<¿Dónde?>> #87ceeb
    StereotypeFontColor<<¿Cuándo?>> #87ceeb
    StereotypeFontColor<<¿Por qué?>> #DC143C
    StereotypeFontColor<<¿Quién?>> #228B22
    StereotypeFontColor<<¿Para qué?>> #228B22
    StereotypeFontColor<<¿Qué?>> #228B22
    fontStyle bold
    backgroundColor #222222
    borderColor<<¿Dónde?>> #87ceeb
    borderColor<<¿Cuándo?>> #87ceeb
    borderColor<<¿Por qué?>> #DC143C
    borderColor<<¿Quién?>> #228B22
    borderColor<<¿Para qué?>> #228B22
    borderColor<<¿Qué?>> #228B22
    BorderColor #DarkGrey
    fontSize 20
}

hide circle
hide members

class donde as "World Wide Web" <<¿Dónde?>>
note right
<color:cyan>650 millones de usuarios aprox.</color>
end note

class cuando as "2002" <<¿Cuándo?>>
note right
<color:cyan>4 años tras la creación de XML</color>
end note

class por as "Ineficiencia" <<¿Por qué?>>
note right
<color:red>Hay que escribir muchos</color>
<color:red>caracteres redundantes en XML:</color>
<color:red> apertura y cierre</color>
<color:red> de cada etiqueta y de cada elemento</color>
end note

class quien as "Douglas\nCrockford" <<¿Quién?>>

class que as "JavaScript Object Notation\n(JSON)" <<¿Qué?>>
note right
<color:green>formato de texto sencillo para el intercambio</color>
<color:green>de datos. Se trata de un subconjunto de</color>
<color:green>la notación literal de objetos de JavaScript, aunque,</color>
<color:green>debido a su amplia adopción como alternativa a XML,</color>
<color:green>se considera un formato independiente del lenguaje</color>
end note

class para as "Eficiencia" <<¿Para qué?>>
note right
<color:green>Agilizar tanto en desarrollo como</color>
<color:green>en explotación los servicios de datos</color>
<color:green> a la plataforma Web, no solo HTML</color>
<color:green> : <b>Servicios Web</b></color>
end note

class como as "Descripción" <<¿Cómo?>>

por -up-> cuando
por -up-> donde

quien -up-> cuando
quien -up-> donde
quien -up-> por

que -up-> quien

para -up-> que

como -up-> que
como -up-> para

@enduml

PlantUML version 1.2019.05(Sat Apr 20 18:45:36 CEST 2019)
(GPL source distribution)
Java Runtime: Java(TM) SE Runtime Environment
JVM: Java HotSpot(TM) 64-Bit Server VM
Java Version: 11.0.14+8-LTS-263
Operating System: Windows 10
OS Version: 10.0
Default Encoding: windows-1252
Language: es
Country: ES
--></g></svg>