<?xml version="1.0" encoding="UTF-8" standalone="no"?><svg xmlns="http://www.w3.org/2000/svg" xmlns:xlink="http://www.w3.org/1999/xlink" contentScriptType="application/ecmascript" contentStyleType="text/css" height="208px" preserveAspectRatio="none" style="width:382px;height:208px;background:#222222;" version="1.1" viewBox="0 0 382 208" width="382px" zoomAndPan="magnify"><defs/><g><!--class Nodo--><polygon fill="#222222" points="30,143,30,143.2102,39.3333,142.5857,48.6667,143.1933,58,143.3997,67.3333,142.2866,76.6667,142.9223,86,143,85.5735,143,85.6165,153.8227,85.9318,164.6453,85.3086,175.468,86.5536,186.2906,86,197.1133,86,196.483,76.6667,196.9155,67.3333,197.5452,58,197.0275,48.6667,197.1815,39.3333,197.0813,30,197.1133,30.1785,197.1133,30.2391,186.2906,30.5857,175.468,30.6711,164.6453,30.6793,153.8227,30,143" style="stroke: #1E90FF; stroke-width: 3.0;"/><text fill="#1E90FF" font-family="courier" font-size="20" font-weight="bold" lengthAdjust="spacingAndGlyphs" textLength="48" x="34" y="169.1074">Nodo</text><path d="M31,181.1133 L31,181.3935 L41.8,180.5609 L52.6,181.371 L63.4,181.6462 L74.2,180.1621 L85,181.1133 " fill="#222222" style="stroke: #1E90FF; stroke-width: 3.0;"/><path d="M31,189.1133 L31,189.3935 L41.8,188.5609 L52.6,189.371 L63.4,189.6462 L74.2,188.1621 L85,189.1133 " fill="#222222" style="stroke: #1E90FF; stroke-width: 3.0;"/><!--class Arbol--><polygon fill="#222222" points="24,8,24,8.2102,33.7143,7.5857,43.4286,8.1933,53.1429,8.3997,62.8571,7.2866,72.5714,7.9223,82.2857,7.5735,92,8,91.6165,8,91.9318,18.8227,91.3086,29.6453,92.5536,40.468,91.3697,51.2906,92,62.1133,92,61.9155,82.2857,62.5452,72.5714,62.0275,62.8571,62.1815,53.1429,62.0813,43.4286,62.2918,33.7143,62.3524,24,62.1133,24.5857,62.1133,24.6711,51.2906,24.6793,40.468,24.2546,29.6453,24.4636,18.8227,24,8" style="stroke: #1E90FF; stroke-width: 3.0;"/><text fill="#1E90FF" font-family="courier" font-size="20" font-weight="bold" lengthAdjust="spacingAndGlyphs" textLength="60" x="28" y="34.1074">Arbol</text><path d="M25,46.1133 L25,46.3935 L34.4286,45.5609 L43.8571,46.371 L53.2857,46.6462 L62.7143,45.1621 L72.1429,46.0097 L81.5714,45.5446 L91,46.1133 " fill="#222222" style="stroke: #1E90FF; stroke-width: 3.0;"/><path d="M25,54.1133 L25,54.3935 L34.4286,53.5609 L43.8571,54.371 L53.2857,54.6462 L62.7143,53.1621 L72.1429,54.0097 L81.5714,53.5446 L91,54.1133 " fill="#222222" style="stroke: #1E90FF; stroke-width: 3.0;"/><!--link Arbol to Nodo--><path d="M58,75.44 L58.2802,75.44 L57.4476,86.308 L58.2577,97.176 L58.5329,108.044 L57.0488,118.912 L58,129.78 " fill="none" style="stroke: #A9A9A9; stroke-width: 2.0;"/><polygon fill="#A9A9A9" points="58,142.78,58.064,142.8085,58.6738,140.9239,59.6589,139.2062,60.5217,137.4341,60.9827,135.4834,62,133.78,61.9817,133.7617,61.0995,134.4795,60.3096,135.2896,59.5839,136.1639,58.637,136.817,58,137.78,58.1305,137.9105,57.0514,136.8314,56.3534,136.1334,55.7018,135.4818,54.7798,134.5598,54,133.78,54.0208,133.7892,54.7903,135.5757,55.6544,137.4042,56.4728,139.2124,57.3784,141.0593,58,142.78" style="stroke: #A9A9A9; stroke-width: 2.0;"/><path d="M58,137.78 L58.0934,137.78 L57.8159,136.18 L58.0859,134.58 L58.1776,132.98 L57.6829,131.38 L58,129.78 " fill="#A9A9A9" style="stroke: #A9A9A9; stroke-width: 2.0;"/><polygon fill="#A9A9A9" points="58,62.28,58.0583,62.3189,57.0851,63.4034,56.4536,64.7157,55.7109,65.9539,54.6021,66.9481,54,68.28,53.9784,68.2656,54.6817,69.4011,55.4936,70.6091,56.3811,71.8674,57.0082,72.9522,58,74.28,58.1536,74.3824,58.6252,72.9635,59.5451,71.8434,60.5198,70.7599,61.1762,69.4641,62,68.28,62.0189,68.2926,61.1911,67.0741,60.4495,65.913,59.6663,64.7242,58.9624,63.5883,58,62.28" style="stroke: #A9A9A9; stroke-width: 2.0;"/><!--link Nodo to Nodo--><path d="M86.07,164.28 L86.0786,164.373 L88.1661,163.9005 L90.3041,163.9733 L92.4257,163.8685 L94.4931,163.1798 L96.6355,163.2994 L96.6338,163.2649 L98.7157,163.0108 L100.8059,162.9305 L102.9019,162.9712 L104.978,162.5952 L107.0819,162.8028 L107.0878,163.0488 L110.8642,162.6147 L114.658,162.8988 L118.4539,163.2705 L122.2375,163.1325 L126.0275,163.2625 L126.0327,163.2924 L128.7649,163.7282 L131.5209,164.3 L134.2655,164.8063 L137.0319,165.4377 L139.7269,165.6609 L139.9164,165.8912 L140.9733,166.7619 L141.908,167.4839 L143.0217,168.4235 L144.1437,169.3732 L145,170 L144.8843,169.7011 L141.7273,171.59 L138.1894,172.4946 L134.9411,174.1475 L131.3946,175.0298 L128.0925,176.5438 L128.0912,176.5133 L124.6652,177.0164 L121.2095,176.8088 L117.7713,177.0205 L114.3345,177.2675 L110.8872,177.2605 L110.8965,177.4452 L106.9777,177.0606 L103.0748,176.9918 L99.146,176.4121 L95.2558,176.5943 L91.34,176.27 " fill="none" style="stroke: #A9A9A9; stroke-width: 2.0;"/><polygon fill="#A9A9A9" points="86.07,175.72,86.1049,175.7808,87.7093,176.5812,89.5183,177.7378,91.2607,178.7784,92.7841,179.4377,94.6106,180.6249,94.5905,180.6085,93.7869,179.6571,93.0845,178.7881,92.4527,177.9763,91.578,176.9672,91.0435,176.2345,91.1598,176.3777,91.789,175.358,92.758,174.7565,93.7685,174.2059,94.5377,173.3586,95.4338,172.6673,95.4409,172.689,93.5578,173.2677,91.7067,173.945,89.8402,174.5747,88.0033,175.2951,86.07,175.72" style="stroke: #A9A9A9; stroke-width: 2.0;"/><text fill="#A9A9A9" font-family="courier" font-size="20" lengthAdjust="spacingAndGlyphs" textLength="96" x="152" y="177.1074">anterior</text><text fill="#A9A9A9" font-family="courier" font-size="20" lengthAdjust="spacingAndGlyphs" textLength="48" x="94.8647" y="167.6113">0..1</text><!--link Nodo to Nodo--><path d="M86.15,162.03 L86.1648,162.1222 L88.4648,161.4719 L90.8515,161.3622 L93.21,161.0765 L95.4755,160.2118 L97.8697,160.1486 L97.8655,160.1143 L100.3765,159.6476 L102.9088,159.3537 L105.4561,159.1799 L107.9521,158.5922 L110.5199,158.5843 L110.5428,158.8293 L113.1634,158.0559 L115.8509,157.9979 L118.5465,158.0271 L121.1947,157.5486 L123.8678,157.3371 L123.8698,157.3674 L126.6294,157.137 L129.3983,157.0443 L132.1627,156.8852 L134.9357,156.8529 L137.6808,156.4072 L137.6938,156.7052 L140.503,156.5863 L143.3038,156.2752 L146.1169,156.2454 L148.9306,156.2288 L151.7261,155.7945 L151.7193,155.474 L154.5414,156.0369 L157.3413,155.5445 L160.158,155.8544 L162.9574,155.3382 L165.771,155.499 L165.7709,155.4686 L168.5339,155.833 L171.2957,155.4861 L174.0581,155.5589 L176.8207,155.667 L179.5828,155.5209 L179.5875,155.7058 L182.2519,155.5869 L184.9244,155.7841 L187.5839,155.47 L190.2628,155.9185 L192.9287,155.86 L192.9414,156.1033 L195.4685,156.1886 L198.0018,156.3947 L200.5061,156.0395 L203.0316,156.0957 L205.5762,156.5165 L205.5533,156.2413 L207.9172,156.6852 L210.2554,156.819 L212.6309,157.4026 L214.9426,157.2182 L217.2923,157.4904 L217.2701,157.3395 L221.2486,158.1707 L225.1322,158.3571 L229.0832,159.0021 L233.1003,160.0957 L236.9998,160.3903 L237.0582,160.5749 L239.7362,161.5355 L242.2327,161.9219 L244.9565,163.0275 L247.6308,163.9764 L250.1897,164.5601 L250.0324,164.421 L251.1198,165.6199 L252.1557,166.7732 L253.2929,168.0159 L254.0365,168.9108 L255,170 L255.0992,170.1801 L251.4625,171.6668 L248.0173,173.5012 L244.8517,175.8434 L241.1713,177.2506 L237.9063,179.4122 L237.9408,179.6357 L234.1608,180.084 L230.3692,180.4567 L226.6039,181.0001 L222.8996,181.9381 L219.109,182.3177 L219.0971,182.1852 L216.8901,182.7802 L214.6024,182.474 L212.4064,183.1925 L210.1588,183.3341 L207.8973,183.3202 L207.9036,183.4289 L205.4716,183.4816 L203.062,183.9235 L200.6322,184.0138 L198.1938,183.9571 L195.7625,184.0225 L195.7662,184.1416 L193.1919,184.045 L190.6349,184.5016 L188.0584,184.3325 L185.4899,184.4208 L182.9187,184.4246 L182.9166,184.1542 L180.2496,184.2648 L177.5851,184.7012 L174.917,184.6766 L172.2477,184.4869 L169.5801,184.5264 L169.578,184.3832 L166.8548,184.3894 L164.1279,184.142 L161.4112,184.5916 L158.6894,184.6962 L155.9608,184.3279 L155.9693,184.5617 L153.2349,184.5368 L150.4843,184.0676 L147.7507,184.0673 L145.0059,183.7567 L142.275,183.8291 L142.2824,183.9551 L139.5738,183.7787 L136.8742,183.7545 L134.1461,183.2477 L131.441,183.1301 L128.7369,183.0299 L128.7533,183.2263 L126.1226,183.0613 L123.4474,182.3631 L120.8239,182.2843 L118.2013,182.2164 L115.5605,181.9304 L115.5306,181.6605 L113.0578,181.8065 L110.5331,181.4843 L107.9954,181.0459 L105.4873,180.8732 L102.9602,180.5304 L103.0064,180.8509 L100.5783,180.0527 L98.2561,179.9888 L95.8922,179.6358 L93.5194,179.221 L91.15,178.83 " fill="none" style="stroke: #A9A9A9; stroke-width: 2.0;"/><polygon fill="#A9A9A9" points="86.15,177.97,86.189,178.0282,87.7094,178.9519,89.4585,180.2167,91.1331,181.3704,92.5628,182.1588,94.3315,183.4529,94.3104,183.438,93.5642,182.4459,92.9248,181.5289,92.3597,180.6641,91.5387,179.6193,91.0761,178.8267,91.1823,178.9776,91.8804,178.0038,92.8886,177.4706,93.9346,176.9912,94.7606,176.1989,95.7023,175.5712,95.7078,175.5933,93.7892,176.0407,91.8959,176.5885,89.9903,177.0878,88.108,177.6796,86.15,177.97" style="stroke: #A9A9A9; stroke-width: 2.0;"/><text fill="#A9A9A9" font-family="courier" font-size="20" lengthAdjust="spacingAndGlyphs" textLength="108" x="262" y="177.1074">siguentes</text><text fill="#A9A9A9" font-family="courier" font-size="20" lengthAdjust="spacingAndGlyphs" textLength="48" x="94.9564" y="184.0231">0..N</text><!--
@startuml
skinparam backgroundColor #222222

skinparam handwritten true

skinparam shadowing false
skinparam padding 1
skinparam arrow {
    Thickness 2
    Color #DarkGrey
    FontSize 20
    FontName courier
    FontStyle normal
    FontColor #DarkGrey
}
hide circle
skinparam class {
    BorderThickness 3
    BorderColor #DodgerBlue
    BackgroundColor #222222
    FontSize 20
    FontName courier
    FontStyle bold
    FontColor #DodgerBlue
}
skinparam default {
    FontSize 20
    FontName courier
    FontStyle normal
    FontColor #DarkGrey
}
class Nodo
class Arbol


Arbol *-down-> Nodo
Nodo - - - ->"0..1" Nodo :anterior
Nodo "0..N" - - -> Nodo :siguentes

@enduml

PlantUML version 1.2019.05(Sat Apr 20 18:45:36 CEST 2019)
(GPL source distribution)
Java Runtime: Java(TM) SE Runtime Environment
JVM: Java HotSpot(TM) 64-Bit Server VM
Java Version: 11.0.14+8-LTS-263
Operating System: Windows 10
OS Version: 10.0
Default Encoding: windows-1252
Language: es
Country: ES
--></g></svg>