<?xml version="1.0" encoding="UTF-8" standalone="no"?><svg xmlns="http://www.w3.org/2000/svg" xmlns:xlink="http://www.w3.org/1999/xlink" contentScriptType="application/ecmascript" contentStyleType="text/css" height="266px" preserveAspectRatio="none" style="width:92px;height:266px;background:#222222;" version="1.1" viewBox="0 0 92 266" width="92px" zoomAndPan="magnify"><defs/><g><!--class B--><polygon fill="#222222" points="6,8,6,8.0701,10,7.8619,14,8.0644,18,8.1332,22,7.7622,26,8,25.9223,8,25.5735,18.1621,25.6165,28.3242,25.9318,38.4863,25.3086,48.6484,26.5536,58.8105,25.3697,68.9727,25.8022,79.1348,26.4319,89.2969,25.9142,99.459,26,109.6211,26,109.6438,22,109.6104,18,109.6806,14,109.7008,10,109.8163,6,109.6211,6.6711,109.6211,6.6793,99.459,6.2546,89.2969,6.4636,79.1348,6.7022,68.9727,5.2788,58.8105,6.6785,48.6484,5.7035,38.4863,6.5338,28.3242,5.505,18.1621,6,8" style="stroke: #1E90FF; stroke-width: 3.0;"/><text fill="#1E90FF" font-family="courier" font-size="20" font-weight="bold" lengthAdjust="spacingAndGlyphs" textLength="12" x="10" y="34.1074">B</text><path d="M7,46.1133 L7,46.2067 L10.6,45.9291 L14.2,46.1992 L17.8,46.2909 L21.4,45.7962 L25,46.1133 " fill="#222222" style="stroke: #1E90FF; stroke-width: 3.0;"/><text fill="#1E90FF" font-family="sans-serif" font-size="11" lengthAdjust="spacingAndGlyphs" textLength="6" x="13" y="62.5322">q</text><text fill="#1E90FF" font-family="sans-serif" font-size="11" lengthAdjust="spacingAndGlyphs" textLength="4" x="13" y="78.3682">r</text><text fill="#1E90FF" font-family="sans-serif" font-size="11" lengthAdjust="spacingAndGlyphs" textLength="6" x="13" y="94.2041">s</text><path d="M7,101.6211 L7,101.7145 L10.6,101.437 L14.2,101.707 L17.8,101.7987 L21.4,101.304 L25,101.6211 " fill="#222222" style="stroke: #1E90FF; stroke-width: 3.0;"/><!--class C--><polygon fill="#222222" points="61,8,61,8.0701,65,7.8619,69,8.0644,73,8.1332,77,7.7622,81,8,80.9223,8,80.5735,18.1621,80.6165,28.3242,80.9318,38.4863,80.3086,48.6484,81.5536,58.8105,80.3697,68.9727,80.8022,79.1348,81.4319,89.2969,80.9142,99.459,81,109.6211,81,109.6438,77,109.6104,73,109.6806,69,109.7008,65,109.8163,61,109.6211,61.6711,109.6211,61.6793,99.459,61.2546,89.2969,61.4636,79.1348,61.7022,68.9727,60.2788,58.8105,61.6785,48.6484,60.7035,38.4863,61.5338,28.3242,60.505,18.1621,61,8" style="stroke: #1E90FF; stroke-width: 3.0;"/><text fill="#1E90FF" font-family="courier" font-size="20" font-weight="bold" lengthAdjust="spacingAndGlyphs" textLength="12" x="65" y="34.1074">C</text><path d="M62,46.1133 L62,46.2067 L65.6,45.9291 L69.2,46.1992 L72.8,46.2909 L76.4,45.7962 L80,46.1133 " fill="#222222" style="stroke: #1E90FF; stroke-width: 3.0;"/><text fill="#1E90FF" font-family="sans-serif" font-size="11" lengthAdjust="spacingAndGlyphs" textLength="6" x="68" y="62.5322">p</text><text fill="#1E90FF" font-family="sans-serif" font-size="11" lengthAdjust="spacingAndGlyphs" textLength="6" x="68" y="78.3682">s</text><text fill="#1E90FF" font-family="sans-serif" font-size="11" lengthAdjust="spacingAndGlyphs" textLength="6" x="68" y="94.2041">q</text><path d="M62,101.6211 L62,101.7145 L65.6,101.437 L69.2,101.707 L72.8,101.7987 L76.4,101.304 L80,101.6211 " fill="#222222" style="stroke: #1E90FF; stroke-width: 3.0;"/><!--class D--><polygon fill="#222222" points="6,170,6,170.0701,10,169.8619,14,170.0644,18,170.1332,22,169.7622,26,170,25.9223,170,25.5735,179.5317,25.6165,189.0634,25.9318,198.5951,25.3086,208.1267,26.5536,217.6584,25.3697,227.1901,25.8022,236.7218,26.4319,246.2535,26,255.7852,26,255.7566,22,255.8079,18,255.7745,14,255.8447,10,255.8649,6,255.7852,6.5857,255.7852,6.6711,246.2535,6.6793,236.7218,6.2546,227.1901,6.4636,217.6584,6.7022,208.1267,5.2788,198.5951,6.6785,189.0634,5.7035,179.5317,6,170" style="stroke: #1E90FF; stroke-width: 3.0;"/><text fill="#1E90FF" font-family="courier" font-size="20" font-weight="bold" lengthAdjust="spacingAndGlyphs" textLength="12" x="10" y="196.1074">D</text><path d="M7,208.1133 L7,208.2067 L10.6,207.9291 L14.2,208.1992 L17.8,208.2909 L21.4,207.7962 L25,208.1133 " fill="#222222" style="stroke: #1E90FF; stroke-width: 3.0;"/><text fill="#1E90FF" font-family="sans-serif" font-size="11" lengthAdjust="spacingAndGlyphs" textLength="6" x="13" y="224.5322">p</text><text fill="#1E90FF" font-family="sans-serif" font-size="11" lengthAdjust="spacingAndGlyphs" textLength="6" x="13" y="240.3682">o</text><path d="M7,247.7852 L7,247.8786 L10.6,247.601 L14.2,247.8711 L17.8,247.9628 L21.4,247.4681 L25,247.7852 " fill="#222222" style="stroke: #1E90FF; stroke-width: 3.0;"/><!--link B to C--><!--link B to D--><!--
@startuml
skinparam backgroundColor #222222
skinparam handwritten true
skinparam shadowing false
skinparam padding 1
hide circle
skinparam arrow {
    Thickness 2
    Color #DarkGrey
    FontSize 20
    FontName courier
    FontStyle normal
    FontColor #DarkGrey
}
skinparam class {
    BorderThickness 3
    BorderColor #DodgerBlue
    BackgroundColor #222222
    FontSize 20
    FontName courier
    FontStyle bold
    FontColor #DodgerBlue
}
skinparam classAttribute {
    FontColor #DodgerBlue
}
class B {
q
r
s
}

class C {
p
s
q
}

class D {
p
o
}

@enduml

PlantUML version 1.2019.05(Sat Apr 20 18:45:36 CEST 2019)
(GPL source distribution)
Java Runtime: Java(TM) SE Runtime Environment
JVM: Java HotSpot(TM) 64-Bit Server VM
Java Version: 11.0.14+8-LTS-263
Operating System: Windows 10
OS Version: 10.0
Default Encoding: windows-1252
Language: es
Country: ES
--></g></svg>