<?xml version="1.0" encoding="UTF-8" standalone="no"?><svg xmlns="http://www.w3.org/2000/svg" xmlns:xlink="http://www.w3.org/1999/xlink" contentScriptType="application/ecmascript" contentStyleType="text/css" height="558px" preserveAspectRatio="none" style="width:133px;height:558px;background:#222222;" version="1.1" viewBox="0 0 133 558" width="133px" zoomAndPan="magnify"><defs/><g><!--class Secuencia--><polygon fill="#222222" points="6,462,6,462.2102,15.6667,461.5857,25.3333,462.1933,35,462.3997,44.6667,461.2866,54.3333,461.9223,64,461.5735,73.6667,461.6165,83.3333,461.9318,93,461.3086,102.6667,462.5536,112.3333,461.3697,122,462,121.8022,462,122.4319,471.5317,121.9142,481.0634,122.0682,490.5951,121.9681,500.1267,122.1785,509.6584,122.2391,519.1901,122.5857,528.7218,122.6711,538.2535,122,547.7852,122,548.4644,112.3333,548.0398,102.6667,548.2487,93,548.4874,83.3333,547.064,73.6667,548.4637,64,547.4887,54.3333,548.319,44.6667,547.2901,35,547.7167,25.3333,548.5268,15.6667,547.7364,6,547.7852,6.1053,547.7852,6.3386,538.2535,6.4162,528.7218,5.9961,519.1901,6.2872,509.6584,5.4276,500.1267,6.2844,490.5951,6.5482,481.0634,6.4445,471.5317,6,462" style="stroke: #1E90FF; stroke-width: 3.0;"/><text fill="#1E90FF" font-family="courier" font-size="20" font-weight="bold" lengthAdjust="spacingAndGlyphs" textLength="108" x="10" y="488.1074">Secuencia</text><path d="M7,500.1133 L7,500.3935 L17.3636,499.5609 L27.7273,500.371 L38.0909,500.6462 L48.4545,499.1621 L58.8182,500.0097 L69.1818,499.5446 L79.5455,499.6019 L89.9091,500.0224 L100.2727,499.1915 L110.6364,500.8515 L121,500.1133 " fill="#222222" style="stroke: #1E90FF; stroke-width: 3.0;"/><text fill="#1E90FF" font-family="sans-serif" font-size="11" lengthAdjust="spacingAndGlyphs" textLength="70" x="13" y="516.5322">0..1 anteriores</text><text fill="#1E90FF" font-family="sans-serif" font-size="11" lengthAdjust="spacingAndGlyphs" textLength="70" x="13" y="532.3682">0..1 siguientes</text><path d="M7,539.7852 L7,540.0654 L17.3636,539.2327 L27.7273,540.0429 L38.0909,540.3181 L48.4545,538.834 L58.8182,539.6815 L69.1818,539.2165 L79.5455,539.2738 L89.9091,539.6943 L100.2727,538.8633 L110.6364,540.5233 L121,539.7852 " fill="#222222" style="stroke: #1E90FF; stroke-width: 3.0;"/><!--class Arbol--><polygon fill="#222222" points="21.5,316,21.5,316.2102,30.9444,315.5857,40.3889,316.1933,49.8333,316.3997,59.2778,315.2866,68.7222,315.9223,78.1667,315.5735,87.6111,315.6165,97.0556,315.9318,106.5,316,105.8086,316,107.0536,325.5317,105.8697,335.0634,106.3022,344.5951,106.9319,354.1267,106.4142,363.6584,106.5682,373.1901,106.4681,382.7218,106.6785,392.2535,106.5,401.7852,106.5,402.0243,97.0556,402.3708,87.6111,402.4562,78.1667,402.4644,68.7222,402.0398,59.2778,402.2487,49.8333,402.4874,40.3889,401.064,30.9444,402.4637,21.5,401.7852,21.2035,401.7852,22.0338,392.2535,21.005,382.7218,21.4315,373.1901,22.2416,363.6584,21.4513,354.1267,21.6053,344.5951,21.8386,335.0634,21.9162,325.5317,21.5,316" style="stroke: #1E90FF; stroke-width: 3.0;"/><text fill="#1E90FF" font-family="courier" font-size="20" font-weight="bold" lengthAdjust="spacingAndGlyphs" textLength="60" x="34" y="342.1074">Árbol</text><path d="M22.5,354.1133 L22.5,354.3935 L32.875,353.5609 L43.25,354.371 L53.625,354.6462 L64,353.1621 L74.375,354.0097 L84.75,353.5446 L95.125,353.6019 L105.5,354.1133 " fill="#222222" style="stroke: #1E90FF; stroke-width: 3.0;"/><text fill="#1E90FF" font-family="sans-serif" font-size="11" lengthAdjust="spacingAndGlyphs" textLength="70" x="28.5" y="370.5322">0..1 anteriores</text><text fill="#1E90FF" font-family="sans-serif" font-size="11" lengthAdjust="spacingAndGlyphs" textLength="71" x="28.5" y="386.3682">0..N siguientes</text><path d="M22.5,393.7852 L22.5,394.0654 L32.875,393.2327 L43.25,394.0429 L53.625,394.3181 L64,392.834 L74.375,393.6815 L84.75,393.2165 L95.125,393.2738 L105.5,393.7852 " fill="#222222" style="stroke: #1E90FF; stroke-width: 3.0;"/><!--class Grafo--><polygon fill="#222222" points="21.5,8,21.5,8.2102,30.9444,7.5857,40.3889,8.1933,49.8333,8.3997,59.2778,7.2866,68.7222,7.9223,78.1667,7.5735,87.6111,7.6165,97.0556,7.9318,106.5,8,105.8086,8,107.0536,17.5317,105.8697,27.0634,106.3022,36.5951,106.9319,46.1267,106.4142,55.6584,106.5682,65.1901,106.4681,74.7218,106.6785,84.2535,106.5,93.7852,106.5,94.0243,97.0556,94.3708,87.6111,94.4562,78.1667,94.4644,68.7222,94.0398,59.2778,94.2487,49.8333,94.4874,40.3889,93.064,30.9444,94.4637,21.5,93.7852,21.2035,93.7852,22.0338,84.2535,21.005,74.7218,21.4315,65.1901,22.2416,55.6584,21.4513,46.1267,21.6053,36.5951,21.8386,27.0634,21.9162,17.5317,21.5,8" style="stroke: #1E90FF; stroke-width: 3.0;"/><text fill="#1E90FF" font-family="courier" font-size="20" font-weight="bold" lengthAdjust="spacingAndGlyphs" textLength="60" x="34" y="34.1074">Grafo</text><path d="M22.5,46.1133 L22.5,46.3935 L32.875,45.5609 L43.25,46.371 L53.625,46.6462 L64,45.1621 L74.375,46.0097 L84.75,45.5446 L95.125,45.6019 L105.5,46.1133 " fill="#222222" style="stroke: #1E90FF; stroke-width: 3.0;"/><text fill="#1E90FF" font-family="sans-serif" font-size="11" lengthAdjust="spacingAndGlyphs" textLength="71" x="28.5" y="62.5322">0..N anteriores</text><text fill="#1E90FF" font-family="sans-serif" font-size="11" lengthAdjust="spacingAndGlyphs" textLength="71" x="28.5" y="78.3682">0..N siguientes</text><path d="M22.5,85.7852 L22.5,86.0654 L32.875,85.2327 L43.25,86.0429 L53.625,86.3181 L64,84.834 L74.375,85.6815 L84.75,85.2165 L95.125,85.2738 L105.5,85.7852 " fill="#222222" style="stroke: #1E90FF; stroke-width: 3.0;"/><!--class Jerarquia--><polygon fill="#222222" points="6,154,6,154.2102,15.6667,153.5857,25.3333,154.1933,35,154.3997,44.6667,153.2866,54.3333,153.9223,64,153.5735,73.6667,153.6165,83.3333,153.9318,93,153.3086,102.6667,154.5536,112.3333,153.3697,122,154,121.8022,154,122.4319,164.1621,121.9142,174.3242,122.0682,184.4863,121.9681,194.6484,122.1785,204.8105,122.2391,214.9727,122.5857,225.1348,122.6711,235.2969,122.6793,245.459,122,255.6211,122,255.8757,112.3333,256.0847,102.6667,256.3233,93,254.8999,83.3333,256.2996,73.6667,255.3246,64,256.1549,54.3333,255.1261,44.6667,255.5526,35,256.3627,25.3333,255.5724,15.6667,255.7264,6,255.6211,6.3386,255.6211,6.4162,245.459,5.9961,235.2969,6.2872,225.1348,5.4276,214.9727,6.2844,204.8105,6.5482,194.6484,6.4445,184.4863,6.613,174.3242,5.5169,164.1621,6,154" style="stroke: #1E90FF; stroke-width: 3.0;"/><text fill="#1E90FF" font-family="courier" font-size="20" font-weight="bold" lengthAdjust="spacingAndGlyphs" textLength="108" x="10" y="180.1074">Jerarquía</text><path d="M7,192.1133 L7,192.3935 L17.3636,191.5609 L27.7273,192.371 L38.0909,192.6462 L48.4545,191.1621 L58.8182,192.0097 L69.1818,191.5446 L79.5455,191.6019 L89.9091,192.0224 L100.2727,191.1915 L110.6364,192.8515 L121,192.1133 " fill="#222222" style="stroke: #1E90FF; stroke-width: 3.0;"/><text fill="#1E90FF" font-family="sans-serif" font-size="11" lengthAdjust="spacingAndGlyphs" textLength="71" x="13" y="208.5322">0..N anteriores</text><text fill="#1E90FF" font-family="sans-serif" font-size="11" lengthAdjust="spacingAndGlyphs" textLength="71" x="13" y="224.3682">0..N siguientes</text><text fill="#1E90FF" font-family="sans-serif" font-size="11" lengthAdjust="spacingAndGlyphs" textLength="45" x="13" y="240.2041">sin ciclos</text><path d="M7,247.6211 L7,247.9013 L17.3636,247.0687 L27.7273,247.8788 L38.0909,248.154 L48.4545,246.6699 L58.8182,247.5175 L69.1818,247.0524 L79.5455,247.1098 L89.9091,247.5302 L100.2727,246.6993 L110.6364,248.3593 L121,247.6211 " fill="#222222" style="stroke: #1E90FF; stroke-width: 3.0;"/><!--link Grafo to Jerarquia--><path d="M64,114.77 L64.0934,114.77 L63.8159,122.576 L64.0859,130.382 L64.1776,138.188 L63.6829,145.994 L64,153.8 " fill="none" style="stroke: #A9A9A9; stroke-width: 2.0;"/><polygon fill="none" points="57,114.34,57.0661,114.3631,58.2696,110.2944,59.8608,106.3613,61.3257,102.384,62.3756,98.2614,64,94.34,63.9755,94.3314,65.2658,98.293,66.6793,102.2978,68.1786,106.3325,69.3825,110.2639,71,114.34,71,114.5245,68.2,114.1299,65.4,114.2741,62.6,114.484,59.8,114.3114,57,114.34" style="stroke: #A9A9A9; stroke-width: 2.0;"/><!--link Jerarquia to Arbol--><path d="M64,276.35 L64.0934,276.35 L63.8159,284.278 L64.0859,292.206 L64.1776,300.134 L63.6829,308.062 L64,315.99 " fill="none" style="stroke: #A9A9A9; stroke-width: 2.0;"/><polygon fill="none" points="57,276.19,57.0661,276.2131,58.2696,272.1444,59.8608,268.2113,61.3257,264.234,62.3756,260.1114,64,256.19,63.9755,256.1814,65.2658,260.143,66.6793,264.1478,68.1786,268.1825,69.3825,272.1139,71,276.19,71,276.3745,68.2,275.9799,65.4,276.1241,62.6,276.334,59.8,276.1614,57,276.19" style="stroke: #A9A9A9; stroke-width: 2.0;"/><!--link Arbol to Secuencia--><path d="M64,422.29 L64.0934,422.29 L63.8159,430.164 L64.0859,438.038 L64.1776,445.912 L63.6829,453.786 L64,461.66 " fill="none" style="stroke: #A9A9A9; stroke-width: 2.0;"/><polygon fill="none" points="57,422.04,57.0661,422.0631,58.2696,417.9944,59.8608,414.0613,61.3257,410.084,62.3756,405.9614,64,402.04,63.9755,402.0314,65.2658,405.993,66.6793,409.9978,68.1786,414.0325,69.3825,417.9639,71,422.04,71,422.2245,68.2,421.8299,65.4,421.9741,62.6,422.184,59.8,422.0114,57,422.04" style="stroke: #A9A9A9; stroke-width: 2.0;"/><!--
@startuml
skinparam backgroundColor #222222
skinparam handwritten true
skinparam shadowing false
skinparam padding 1
hide circle
skinparam arrow {
    Thickness 2
    Color #DarkGrey
    FontSize 20
    FontName courier
    FontStyle normal
    FontColor #DarkGrey
}
skinparam class {
    BorderThickness 3
    BorderColor #DodgerBlue
    BackgroundColor #222222
    FontSize 20
    FontName courier
    FontStyle bold
    FontColor #DodgerBlue
}
skinparam classAttribute {
    FontColor #DodgerBlue
}

class Secuencia {
    0..1 anteriores
    0..1 siguientes
}

class "Árbol" as Arbol {
    0..1 anteriores
    0..N siguientes
}

class Grafo {
    0..N anteriores
    0..N siguientes
}
class "Jerarquía" as Jerarquia {
    0..N anteriores
    0..N siguientes
    sin ciclos
}

Grafo <|-down- Jerarquia
Jerarquia <|-down- Arbol
Arbol <|-down- Secuencia

@enduml

PlantUML version 1.2019.05(Sat Apr 20 18:45:36 CEST 2019)
(GPL source distribution)
Java Runtime: Java(TM) SE Runtime Environment
JVM: Java HotSpot(TM) 64-Bit Server VM
Java Version: 11.0.14+8-LTS-263
Operating System: Windows 10
OS Version: 10.0
Default Encoding: windows-1252
Language: es
Country: ES
--></g></svg>