<?xml version="1.0" encoding="UTF-8" standalone="no"?><svg xmlns="http://www.w3.org/2000/svg" xmlns:xlink="http://www.w3.org/1999/xlink" contentScriptType="application/ecmascript" contentStyleType="text/css" height="391px" preserveAspectRatio="none" style="width:214px;height:391px;background:#222222;" version="1.1" viewBox="0 0 214 391" width="214px" zoomAndPan="magnify"><defs/><g><polygon fill="#222222" points="132,8,132,8.0701,137.6,7.8619,143.2,8.0644,148.8,8.1332,154.4,7.7622,160,8,159.9223,8,159.5735,17.6227,159.6165,27.2453,159.9318,36.868,159.3086,46.4906,160,56.1133,160,56.2978,154.4,55.9032,148.8,56.0474,143.2,56.2573,137.6,56.0847,132,56.1133,132.0682,56.1133,131.9681,46.4906,132.1785,36.868,132.2391,27.2453,132.5857,17.6227,132,8" style="stroke: #228B22; stroke-width: 3.0;"/><text fill="#228B22" font-family="courier" font-size="20" font-weight="bold" lengthAdjust="spacingAndGlyphs" textLength="12" x="140" y="31.1074">A</text><path d="M133,40.1133 L133,40.2067 L138.2,39.9291 L143.4,40.1992 L148.6,40.2909 L153.8,39.7962 L159,40.1133 " fill="#222222" style="stroke: #228B22; stroke-width: 3.0;"/><polygon fill="#222222" points="90,116,90,116.0701,95.6,115.8619,101.2,116.0644,106.8,116.1332,112.4,115.7622,118,116,117.9223,116,117.5735,125.6227,117.6165,135.2453,117.9318,144.868,117.3086,154.4906,118,164.1133,118,164.2978,112.4,163.9032,106.8,164.0474,101.2,164.2573,95.6,164.0847,90,164.1133,90.0682,164.1133,89.9681,154.4906,90.1785,144.868,90.2391,135.2453,90.5857,125.6227,90,116" style="stroke: #228B22; stroke-width: 3.0;"/><text fill="#228B22" font-family="courier" font-size="20" font-weight="bold" lengthAdjust="spacingAndGlyphs" textLength="12" x="98" y="139.1074">B</text><path d="M91,148.1133 L91,148.2067 L96.2,147.9291 L101.4,148.1992 L106.6,148.2909 L111.8,147.7962 L117,148.1133 " fill="#222222" style="stroke: #228B22; stroke-width: 3.0;"/><polygon fill="#222222" points="6,224,6,224.0701,11.6,223.8619,17.2,224.0644,22.8,224.1332,28.4,223.7622,34,224,33.9223,224,33.5735,233.6227,33.6165,243.2453,33.9318,252.868,33.3086,262.4906,34,272.1133,34,272.2978,28.4,271.9032,22.8,272.0474,17.2,272.2573,11.6,272.0847,6,272.1133,6.0682,272.1133,5.9681,262.4906,6.1785,252.868,6.2391,243.2453,6.5857,233.6227,6,224" style="stroke: #228B22; stroke-width: 3.0;"/><text fill="#228B22" font-family="courier" font-size="20" font-weight="bold" lengthAdjust="spacingAndGlyphs" textLength="12" x="14" y="247.1074">C</text><path d="M7,256.1133 L7,256.2067 L12.2,255.9291 L17.4,256.1992 L22.6,256.2909 L27.8,255.7962 L33,256.1133 " fill="#222222" style="stroke: #228B22; stroke-width: 3.0;"/><polygon fill="#222222" points="90,332,90,332.0701,95.6,331.8619,101.2,332.0644,106.8,332.1332,112.4,331.7622,118,332,117.9223,332,117.5735,341.6227,117.6165,351.2453,117.9318,360.868,117.3086,370.4906,118,380.1133,118,380.2978,112.4,379.9032,106.8,380.0474,101.2,380.2573,95.6,380.0847,90,380.1133,90.0682,380.1133,89.9681,370.4906,90.1785,360.868,90.2391,351.2453,90.5857,341.6227,90,332" style="stroke: #228B22; stroke-width: 3.0;"/><text fill="#228B22" font-family="courier" font-size="20" font-weight="bold" lengthAdjust="spacingAndGlyphs" textLength="12" x="98" y="355.1074">D</text><path d="M91,364.1133 L91,364.2067 L96.2,363.9291 L101.4,364.1992 L106.6,364.2909 L111.8,363.7962 L117,364.1133 " fill="#222222" style="stroke: #228B22; stroke-width: 3.0;"/><polygon fill="#222222" points="174,224,174,224.0701,179.6,223.8619,185.2,224.0644,190.8,224.1332,196.4,223.7622,202,224,201.9223,224,201.5735,233.6227,201.6165,243.2453,201.9318,252.868,201.3086,262.4906,202,272.1133,202,272.2978,196.4,271.9032,190.8,272.0474,185.2,272.2573,179.6,272.0847,174,272.1133,174.0682,272.1133,173.9681,262.4906,174.1785,252.868,174.2391,243.2453,174.5857,233.6227,174,224" style="stroke: #228B22; stroke-width: 3.0;"/><text fill="#228B22" font-family="courier" font-size="20" font-weight="bold" lengthAdjust="spacingAndGlyphs" textLength="12" x="182" y="247.1074">E</text><path d="M175,256.1133 L175,256.2067 L180.2,255.9291 L185.4,256.1992 L190.6,256.2909 L195.8,255.7962 L201,256.1133 " fill="#222222" style="stroke: #228B22; stroke-width: 3.0;"/><polygon fill="#222222" points="174,332,174,332.0701,179.6,331.8619,185.2,332.0644,190.8,332.1332,196.4,331.7622,202,332,201.9223,332,201.5735,341.6227,201.6165,351.2453,201.9318,360.868,201.3086,370.4906,202,380.1133,202,380.2978,196.4,379.9032,190.8,380.0474,185.2,380.2573,179.6,380.0847,174,380.1133,174.0682,380.1133,173.9681,370.4906,174.1785,360.868,174.2391,351.2453,174.5857,341.6227,174,332" style="stroke: #228B22; stroke-width: 3.0;"/><text fill="#228B22" font-family="courier" font-size="20" font-weight="bold" lengthAdjust="spacingAndGlyphs" textLength="12" x="182" y="355.1074">F</text><path d="M175,364.1133 L175,364.2067 L180.2,363.9291 L185.4,364.1992 L190.6,364.2909 L195.8,363.7962 L201,364.1133 " fill="#222222" style="stroke: #228B22; stroke-width: 3.0;"/><!--link A to B--><path d="M136.89,56 L137.1505,56.1032 L132.7464,64.9582 L129.8696,74.4183 L126.4954,83.6813 L121.4857,92.2963 L118.6437,101.7702 L115.11,110.97 " fill="none" style="stroke: #A9A9A9; stroke-width: 2.0;"/><polygon fill="#A9A9A9" points="113.24,115.68,113.2891,115.7299,114.5471,114.1999,116.0931,112.9627,117.5453,111.6301,118.689,109.984,120.2598,108.7719,120.2495,108.7481,119.1656,109.0927,118.1338,109.557,117.1382,110.1046,116.0179,110.3653,115.0722,111.0278,115.2415,111.1014,114.4284,109.9065,114.1094,108.9265,113.8507,107.9727,113.2413,106.8664,112.8163,105.8403,112.839,105.8412,112.8904,107.8078,113.0452,109.7787,113.1502,111.7475,113.3503,113.7205,113.24,115.68" style="stroke: #A9A9A9; stroke-width: 2.0;"/><!--link B to C--><path d="M89.75,158.98 L89.9696,159.1541 L82.777,166.8894 L76.872,175.6451 L70.5477,184.0685 L62.8445,191.3992 L56.9688,200.1781 L50.0643,208.1418 L43.5693,216.4299 L37.43,225 " fill="none" style="stroke: #A9A9A9; stroke-width: 2.0;"/><polygon fill="#A9A9A9" points="34.04,229.28,34.0726,229.342,35.7187,228.2403,37.5561,227.502,39.3312,226.6454,40.9014,225.3996,42.7552,224.6926,42.7522,224.6669,41.615,224.6838,40.4931,224.8305,39.3818,225.0674,38.2339,224.9935,37.1373,225.3549,37.3206,225.3765,36.7962,224.2067,36.8069,223.1,36.8829,222.0009,36.5791,220.8571,36.475,219.7369,36.4971,219.7425,35.9777,221.6429,35.5587,223.5689,35.0912,225.4825,34.7162,227.4196,34.04,229.28" style="stroke: #A9A9A9; stroke-width: 2.0;"/><!--link B to D--><path d="M95.69,164.31 L95.7828,164.3205 L95.1316,167.6061 L95.0244,170.9532 L94.7401,174.2804 L93.8731,177.5415 L93.8126,180.894 L93.7782,180.8916 L93.3506,184.7753 L93.0967,188.6712 L92.9636,192.5755 L92.4144,196.4507 L92.448,200.3667 L92.6938,200.3765 L91.9976,204.6452 L92.0193,208.9424 L92.1285,213.243 L91.7282,217.5235 L91.5959,221.8146 L91.6262,221.815 L91.5138,226.3162 L91.5394,230.8194 L91.4984,235.3217 L91.5845,239.8258 L91.2563,244.3238 L91.5545,244.326 L91.5927,248.8574 L91.4385,253.3874 L91.5659,257.9194 L91.7065,262.4516 L91.429,266.9806 L91.1086,266.9706 L91.8674,271.3682 L91.5712,275.7328 L92.0771,280.1225 L91.757,284.4864 L92.1139,288.8714 L92.0835,288.8698 L92.55,290.9629 L92.3061,293.0193 L92.4814,295.0974 L92.6918,297.1772 L92.6484,299.244 L92.833,299.2564 L92.7792,301.2116 L93.0408,303.188 L92.7921,305.13 L93.3046,307.1232 L93.311,309.0824 L93.5535,309.106 L93.8494,312.625 L94.2658,316.1558 L94.1227,319.6322 L94.3897,323.1485 L95.02,326.7 " fill="none" style="stroke: #A9A9A9; stroke-width: 2.0;"/><polygon fill="#A9A9A9" points="95.69,331.72,95.7572,331.7398,96.114,329.7915,96.8648,327.9592,97.4873,326.0891,97.6879,324.0947,98.4726,322.2724,98.452,322.2566,97.6718,323.0841,96.9952,323.9911,96.3907,324.9532,95.5379,325.725,95.0329,326.7634,95.1451,326.9099,94.007,325.9086,93.1965,325.3352,92.4259,324.8139,91.4228,323.9889,90.542,323.3237,90.5613,323.3356,91.5625,324.9974,92.6519,326.7133,93.6987,328.4032,94.8268,330.1428,95.69,331.72" style="stroke: #A9A9A9; stroke-width: 2.0;"/><!--link D to B--><path d="M112.8,331.72 L112.8928,331.7311 L113.0145,328.3826 L113.6799,325.0993 L114.1683,321.7947 L114.0744,318.4204 L114.7865,315.1426 L114.7521,315.14 L114.8864,311.235 L115.1944,307.3428 L115.6231,303.4595 L115.6358,299.5454 L116.2311,295.6745 L116.4769,295.6866 L116.0551,293.5542 L116.3509,291.4572 L116.7342,289.3645 L116.6082,287.2467 L116.7501,285.142 L116.7804,285.1431 L116.8126,282.959 L116.9828,280.7798 L117.0864,278.5983 L117.317,276.4212 L117.1335,274.2295 L117.4317,274.2343 L117.5074,269.7327 L117.3908,265.228 L117.5557,260.7279 L117.7338,256.2279 L117.4938,251.7213 L117.1732,251.7187 L117.7589,247.1921 L117.2891,242.6571 L117.6217,238.1285 L117.128,233.5932 L117.3116,229.0635 L117.2812,229.0625 L117.4961,224.6956 L117.0001,220.3053 L116.9236,215.9288 L116.8824,211.5535 L116.587,207.1698 L116.7717,207.1799 L116.4721,205.0948 L116.4882,203.0269 L115.9935,200.9312 L116.2606,198.877 L116.0213,196.7951 L116.2643,196.8125 L116.0781,194.841 L116.0125,192.8781 L115.3863,190.8753 L115.171,188.9017 L115.3199,186.9541 L115.0451,186.9259 L114.9319,183.4266 L114.509,179.8955 L114.5352,176.4106 L113.7947,172.8469 L113.51,169.33 " fill="none" style="stroke: #A9A9A9; stroke-width: 2.0;"/><polygon fill="#A9A9A9" points="112.8,164.31,112.8673,164.3294,112.1222,166.1646,111.7718,168.1135,111.2928,170.0254,110.3912,171.8156,110.0747,173.7743,110.054,173.7586,110.6438,172.7862,111.3377,171.8925,112.104,171.0535,112.6208,170.0259,113.4871,169.2626,113.5984,169.4098,114.2627,169.7775,115.252,170.575,116.2809,171.4248,117.0792,171.9697,117.9988,172.675,118.0181,172.687,116.95,170.9964,115.9698,169.3604,114.9472,167.6981,114.0056,166.086,112.8,164.31" style="stroke: #A9A9A9; stroke-width: 2.0;"/><!--link B to E--><path d="M118.25,158.98 L118.4696,159.1541 L124.357,166.8894 L131.532,175.6451 L138.2877,184.0685 L143.6645,191.3992 L150.8688,200.1781 L157.0443,208.1418 L163.6293,216.4299 L170.57,225 " fill="none" style="stroke: #A9A9A9; stroke-width: 2.0;"/><polygon fill="#A9A9A9" points="173.96,229.28,174.0279,229.2973,173.3392,227.3372,173.0484,225.4787,172.6281,223.5871,171.7816,221.5867,171.525,219.7369,171.4993,219.7339,171.2513,220.8438,171.1331,221.9691,171.1051,223.105,170.7663,224.2043,170.8627,225.3549,170.8843,225.5381,169.7145,225.0138,168.6078,225.0245,167.5088,225.1005,166.365,224.7966,165.2448,224.6926,165.2553,224.7127,166.9828,225.6006,168.7586,226.5802,170.511,227.5156,172.3079,228.5353,173.96,229.28" style="stroke: #A9A9A9; stroke-width: 2.0;"/><!--link A to E--><path d="M142.26,56.31 L142.3531,56.3177 L142.3529,59.6189 L142.8985,62.9655 L143.2664,66.2973 L143.0498,69.5805 L143.6422,72.931 L143.608,72.9266 L143.9474,76.8112 L144.4596,80.7176 L145.0919,84.6392 L145.3103,88.5084 L146.1084,92.4509 L146.3515,92.489 L146.5056,96.7075 L147.3694,101.0371 L148.3198,105.3804 L148.7664,109.6446 L149.4779,113.9504 L149.5078,113.9558 L150.2824,118.4598 L151.1928,122.9884 L152.0377,127.5051 L153.0077,132.0445 L153.57,136.51 L153.8622,136.5697 L154.7926,141.1104 L155.5345,145.6127 L156.5522,150.1713 L157.583,154.7326 L158.2039,159.2102 L157.8914,159.139 L159.497,163.6615 L160.0735,167.9495 L161.4323,172.4157 L161.9855,176.6984 L163.1991,181.1316 L163.1695,181.1242 L164.0343,183.2872 L164.2087,185.2789 L164.7904,187.3716 L165.4064,189.4729 L165.7756,191.5129 L165.9545,191.5601 L166.2937,193.4808 L166.9386,195.4822 L167.0891,197.353 L167.977,199.4186 L168.3746,201.3546 L168.6084,201.4234 L169.5993,204.9314 L170.7062,208.4736 L171.2739,211.8573 L172.2368,215.3572 L173.55,218.96 " fill="none" style="stroke: #A9A9A9; stroke-width: 2.0;"/><polygon fill="#A9A9A9" points="175.12,223.72,175.1897,223.7269,175.1776,221.7462,175.5742,219.8062,175.8377,217.8529,175.6635,215.8561,176.0952,213.9195,176.0721,213.9079,175.4595,214.8662,174.9636,215.8832,174.5488,216.941,173.8546,217.8581,173.5517,218.9723,173.6347,219.1372,172.4467,218.276,171.5009,217.896,170.5848,217.5748,169.4966,216.912,168.4989,216.4288,168.5158,216.4441,169.8152,217.8799,171.1914,219.3853,172.5306,220.8571,173.9403,222.393,175.12,223.72" style="stroke: #A9A9A9; stroke-width: 2.0;"/><!--link E to A--><path d="M192.23,223.72 L192.3231,223.7271 L191.7924,220.3831 L191.8077,217.0808 L191.6453,213.7649 L190.898,210.4043 L190.9602,207.1056 L190.926,207.1014 L190.2953,203.1795 L189.8375,199.2788 L189.4998,195.3927 L188.748,191.4561 L188.5763,187.5903 L188.8197,187.6261 L187.9884,185.4379 L187.8679,183.3543 L187.8341,181.2834 L187.2958,179.1383 L187.0228,177.0322 L187.0528,177.037 L186.6559,174.8422 L186.3954,172.6694 L186.0692,170.486 L185.8684,168.3228 L185.2585,166.0936 L185.552,166.1466 L184.7414,161.6355 L183.7415,157.0903 L183.0187,152.595 L182.3088,148.1022 L181.1875,143.535 L180.8735,143.4708 L180.5542,139.0552 L179.2009,134.4281 L178.6336,129.9619 L177.2569,125.33 L176.5437,120.8339 L176.514,120.8271 L175.8577,116.5228 L174.5081,112.0593 L173.5676,107.6898 L172.6614,103.3282 L171.5075,98.9097 L171.6869,98.9548 L170.9841,96.8326 L170.5878,94.7874 L169.6955,92.6177 L169.543,90.6338 L168.8987,88.5263 L169.134,88.5894 L168.5617,86.6086 L168.1062,84.6591 L167.1078,82.5641 L166.5073,80.5757 L166.2595,78.6819 L165.9949,78.6026 L165.1785,75.152 L164.064,71.6121 L163.3819,68.2017 L161.9615,64.5701 L160.98,61.07 " fill="none" style="stroke: #A9A9A9; stroke-width: 2.0;"/><polygon fill="#A9A9A9" points="159.38,56.31,159.4498,56.3164,159.0616,58.2588,159.0824,60.2388,158.9701,62.2066,158.4198,64.134,158.4757,66.1173,158.4525,66.1058,158.8496,65.04,159.3638,64.0322,159.9595,63.0646,160.2746,61.9583,160.9826,61.0462,161.0644,61.2116,161.9037,61.3593,162.9818,61.9899,164.089,62.6794,165.0267,63.0261,166.0536,63.5531,166.0704,63.5685,164.7111,62.0973,163.4279,60.6962,162.1081,59.2613,160.8583,57.8909,159.38,56.31" style="stroke: #A9A9A9; stroke-width: 2.0;"/><!--link E to F--><path d="M188,272 L188.2802,272 L187.4476,282.906 L188.2577,293.812 L188.5329,304.718 L187.0488,315.624 L188,326.53 " fill="none" style="stroke: #A9A9A9; stroke-width: 2.0;"/><polygon fill="#A9A9A9" points="188,331.68,188.064,331.7085,188.6738,329.8239,189.6589,328.1062,190.5217,326.3341,190.9827,324.3834,192,322.68,191.9817,322.6617,191.0995,323.3795,190.3096,324.1896,189.5839,325.0639,188.637,325.717,188,326.68,188.1305,326.8105,187.0514,325.7314,186.3534,325.0334,185.7018,324.3818,184.7798,323.4598,184,322.68,184.0208,322.6892,184.7903,324.4757,185.6544,326.3042,186.4728,328.1124,187.3784,329.9593,188,331.68" style="stroke: #A9A9A9; stroke-width: 2.0;"/><!--link C to A--><path d="M26.56,223.6 L26.6492,223.6278 L27.0685,221.3496 L28.0105,219.2344 L28.7824,217.0661 L28.9943,214.7233 L29.9813,212.622 L29.9485,212.6111 L30.6218,210.0901 L31.4603,207.624 L32.4137,205.1959 L32.9712,202.6365 L34.0833,200.2611 L34.3151,200.3435 L34.7723,197.4862 L35.9065,194.8694 L37.1232,192.2821 L37.8594,189.5239 L38.8483,186.8556 L38.8767,186.8664 L39.9172,184.0281 L41.0866,181.2392 L42.1938,178.4265 L43.4197,175.6593 L44.2588,172.7438 L44.534,172.8585 L45.745,169.964 L46.7784,166.9954 L48.0718,164.1352 L49.3773,161.28 L50.2968,158.264 L50.0054,158.1305 L51.9006,155.4877 L52.8362,152.4053 L54.5013,149.6571 L55.4152,146.5648 L56.9448,143.7545 L56.9177,143.7407 L58.6865,141.0641 L59.8217,138.0644 L61.3307,135.2553 L62.8712,132.4623 L64.1851,129.5538 L64.3454,129.6462 L65.7466,126.8421 L67.4217,124.196 L68.6537,121.2944 L70.5465,118.7739 L72,116 L72.2037,116.1337 L73.4125,114.2076 L74.7223,112.3479 L75.5623,110.1798 L76.7468,108.2378 L78.2364,106.496 L78.013,106.3335 L79.5777,104.608 L80.8908,102.6994 L82.5689,101.0564 L83.6237,98.9599 L85.0491,97.133 L84.9294,97.0384 L86.57,95.3722 L87.6993,93.3018 L89.1922,91.5188 L91.0409,90.017 L92.256,88.0144 L92.4038,88.1394 L93.989,86.4711 L95.1144,84.4138 L96.8157,82.8436 L98.3915,81.1673 L99.675,79.2437 L99.5186,79.1037 L101.1331,77.5515 L102.6963,75.9534 L104.3602,74.4454 L105.6328,72.5871 L107.124,70.9245 L107.2738,71.0653 L108.4041,69.2031 L109.8234,67.6126 L111.6653,66.4192 L112.7294,64.4948 L114.4209,63.1602 L114.5811,63.3199 L117.1678,60.535 L119.7002,57.696 L122.355,54.9791 L125.2926,52.544 L127.83,49.71 " fill="none" style="stroke: #A9A9A9; stroke-width: 2.0;"/><polygon fill="#A9A9A9" points="131.82,45.9,131.8437,45.9659,129.9196,46.4361,128.1343,47.2928,126.3039,48.0236,124.3247,48.3406,122.5513,49.2304,122.5508,49.2045,123.6793,49.1134,124.8107,49.1529,125.9441,49.2831,127.0706,49.1006,128.2068,49.3561,128.3913,49.3602,127.9716,50.4825,128.0906,51.6168,128.2753,52.7526,128.0777,53.8798,128.0811,55.0116,128.1022,55.0202,128.819,53.1852,129.6317,51.3895,130.3982,49.5749,131.2528,47.7964,131.82,45.9" style="stroke: #A9A9A9; stroke-width: 2.0;"/><!--link E to D--><path d="M173.75,266.98 L173.9696,267.1541 L166.777,274.8894 L160.872,283.6451 L154.5477,292.0685 L146.8445,299.3992 L140.9688,308.1781 L134.0643,316.1418 L127.5693,324.4299 L121.43,333 " fill="none" style="stroke: #A9A9A9; stroke-width: 2.0;"/><polygon fill="#A9A9A9" points="118.04,337.28,118.0726,337.342,119.7187,336.2403,121.5561,335.502,123.3312,334.6454,124.9014,333.3996,126.7552,332.6926,126.7522,332.6669,125.615,332.6838,124.4931,332.8305,123.3818,333.0674,122.2339,332.9935,121.1373,333.3549,121.3206,333.3765,120.7962,332.2067,120.8069,331.1,120.8829,330.0009,120.5791,328.8571,120.475,327.7369,120.4971,327.7425,119.9777,329.6429,119.5587,331.5689,119.0912,333.4825,118.7162,335.4196,118.04,337.28" style="stroke: #A9A9A9; stroke-width: 2.0;"/><!--
@startuml
skinparam backgroundColor #222222
skinparam handwritten true
skinparam shadowing false
skinparam padding 1
skinparam arrow {
    Thickness 2
    Color #DarkGrey
    FontSize 20
    FontName courier
    FontStyle normal
    FontColor #DarkGrey
}
skinparam object {
    BorderThickness 3
    BorderColor #ForestGreen
    BackgroundColor #222222
    FontSize 20
    FontName courier
    FontStyle bold
    FontColor #ForestGreen
}

object A
object B
object C
object D
object E
object F

A -down-> B
B -down-> C
B -down-> D
B -down-> E
A -down-> E
E -down-> F
E -down-> A
D -down-> B
C -down-> A
E -down-> D

@enduml

PlantUML version 1.2019.05(Sat Apr 20 18:45:36 CEST 2019)
(GPL source distribution)
Java Runtime: Java(TM) SE Runtime Environment
JVM: Java HotSpot(TM) 64-Bit Server VM
Java Version: 11.0.14+8-LTS-263
Operating System: Windows 10
OS Version: 10.0
Default Encoding: windows-1252
Language: es
Country: ES
--></g></svg>