<?xml version="1.0" encoding="UTF-8" standalone="no"?><svg xmlns="http://www.w3.org/2000/svg" xmlns:xlink="http://www.w3.org/1999/xlink" contentScriptType="application/ecmascript" contentStyleType="text/css" height="213px" preserveAspectRatio="none" style="width:567px;height:213px;background:#222222;" version="1.1" viewBox="0 0 567 213" width="567px" zoomAndPan="magnify"><defs/><g><!--class ClaseBase1--><polygon fill="#222222" points="27,8,27,8.2102,37,7.5857,47,8.1933,57,8.3997,67,7.2866,77,7.9223,87,7.5735,97,7.6165,107,7.9318,117,7.3086,127,8.5536,137,7.3697,147,7.8022,157,8.4319,167,8,166.9142,8,167.0682,18.8227,166.9681,29.6453,167.1785,40.468,167.2391,51.2906,167,62.1133,167,62.699,157,62.7843,147,62.7925,137,62.3679,127,62.5769,117,62.8155,107,61.3921,97,62.7918,87,61.8168,77,62.6471,67,61.6183,57,62.0448,47,62.8549,37,62.0645,27,62.1133,27.1053,62.1133,27.3386,51.2906,27.4162,40.468,26.9961,29.6453,27.2872,18.8227,27,8" style="stroke: #1E90FF; stroke-width: 3.0;"/><text fill="#1E90FF" font-family="courier" font-size="20" font-weight="bold" lengthAdjust="spacingAndGlyphs" textLength="132" x="31" y="34.1074">Clase Base1</text><path d="M28,46.1133 L28,46.3935 L37.8571,45.5609 L47.7143,46.371 L57.5714,46.6462 L67.4286,45.1621 L77.2857,46.0097 L87.1429,45.5446 L97,45.6019 L106.8571,46.0224 L116.7143,45.1915 L126.5714,46.8515 L136.4286,45.2729 L146.2857,45.8496 L156.1429,46.6892 L166,46.1133 " fill="#222222" style="stroke: #1E90FF; stroke-width: 3.0;"/><path d="M28,54.1133 L28,54.3935 L37.8571,53.5609 L47.7143,54.371 L57.5714,54.6462 L67.4286,53.1621 L77.2857,54.0097 L87.1429,53.5446 L97,53.6019 L106.8571,54.0224 L116.7143,53.1915 L126.5714,54.8515 L136.4286,53.2729 L146.2857,53.8496 L156.1429,54.6892 L166,54.1133 " fill="#222222" style="stroke: #1E90FF; stroke-width: 3.0;"/><!--class ClaseBase2--><polygon fill="#222222" points="307,8,307,8.2102,317,7.5857,327,8.1933,337,8.3997,347,7.2866,357,7.9223,367,7.5735,377,7.6165,387,7.9318,397,7.3086,407,8.5536,417,7.3697,427,7.8022,437,8.4319,447,8,446.9142,8,447.0682,18.8227,446.9681,29.6453,447.1785,40.468,447.2391,51.2906,447,62.1133,447,62.699,437,62.7843,427,62.7925,417,62.3679,407,62.5769,397,62.8155,387,61.3921,377,62.7918,367,61.8168,357,62.6471,347,61.6183,337,62.0448,327,62.8549,317,62.0645,307,62.1133,307.1053,62.1133,307.3386,51.2906,307.4162,40.468,306.9961,29.6453,307.2872,18.8227,307,8" style="stroke: #1E90FF; stroke-width: 3.0;"/><text fill="#1E90FF" font-family="courier" font-size="20" font-weight="bold" lengthAdjust="spacingAndGlyphs" textLength="132" x="311" y="34.1074">Clase Base2</text><path d="M308,46.1133 L308,46.3935 L317.8571,45.5609 L327.7143,46.371 L337.5714,46.6462 L347.4286,45.1621 L357.2857,46.0097 L367.1429,45.5446 L377,45.6019 L386.8571,46.0224 L396.7143,45.1915 L406.5714,46.8515 L416.4286,45.2729 L426.2857,45.8496 L436.1429,46.6892 L446,46.1133 " fill="#222222" style="stroke: #1E90FF; stroke-width: 3.0;"/><path d="M308,54.1133 L308,54.3935 L317.8571,53.5609 L327.7143,54.371 L337.5714,54.6462 L347.4286,53.1621 L357.2857,54.0097 L367.1429,53.5446 L377,53.6019 L386.8571,54.0224 L396.7143,53.1915 L406.5714,54.8515 L416.4286,53.2729 L426.2857,53.8496 L436.1429,54.6892 L446,54.1133 " fill="#222222" style="stroke: #1E90FF; stroke-width: 3.0;"/><!--class ClaseDescendiente1--><polygon fill="#222222" points="6,122,6,122.2102,16.25,121.5857,26.5,122.1933,36.75,122.3997,47,121.2866,57.25,121.9223,67.5,121.5735,77.75,121.6165,88,121.9318,98.25,121.3086,108.5,122.5536,118.75,121.3697,129,121.8022,139.25,122.4319,149.5,121.9142,159.75,122.0682,170,122,169.9681,122,170.1785,132.0283,170.2391,142.0566,170.5857,152.085,170.6711,162.1133,170.6793,172.1416,170.2546,182.1699,170.4636,192.1982,170,202.2266,170,202.9288,159.75,201.5054,149.5,202.9051,139.25,201.9301,129,202.7604,118.75,201.7315,108.5,202.1581,98.25,202.9682,88,202.1778,77.75,202.3319,67.5,202.5652,57.25,202.6428,47,202.2227,36.75,202.5138,26.5,201.6541,16.25,202.5109,6,202.2266,6.5482,202.2266,6.4445,192.1982,6.613,182.1699,5.5169,172.1416,5.3478,162.1133,5.3786,152.085,5.9411,142.0566,5.8035,132.0283,6,122" style="stroke: #1E90FF; stroke-width: 3.0;"/><text fill="#1E90FF" font-family="courier" font-size="20" font-weight="bold" lengthAdjust="spacingAndGlyphs" textLength="60" x="52" y="148.1074">Clase</text><text fill="#1E90FF" font-family="courier" font-size="20" font-weight="bold" lengthAdjust="spacingAndGlyphs" textLength="156" x="10" y="174.2207">Descendiente1</text><path d="M7,186.2266 L7,186.5068 L17.125,185.6741 L27.25,186.4843 L37.375,186.7595 L47.5,185.2754 L57.625,186.1229 L67.75,185.6579 L77.875,185.7152 L88,186.1357 L98.125,185.3047 L108.25,186.9648 L118.375,185.3862 L128.5,185.9629 L138.625,186.8025 L148.75,186.1122 L158.875,186.3175 L169,186.2266 " fill="#222222" style="stroke: #1E90FF; stroke-width: 3.0;"/><path d="M7,194.2266 L7,194.5068 L17.125,193.6741 L27.25,194.4843 L37.375,194.7595 L47.5,193.2754 L57.625,194.1229 L67.75,193.6579 L77.875,193.7152 L88,194.1357 L98.125,193.3047 L108.25,194.9648 L118.375,193.3862 L128.5,193.9629 L138.625,194.8025 L148.75,194.1122 L158.875,194.3175 L169,194.2266 " fill="#222222" style="stroke: #1E90FF; stroke-width: 3.0;"/><!--class ClaseDescendiente--><polygon fill="#222222" points="205,122,205,122.2102,215.1333,121.5857,225.2667,122.1933,235.4,122.3997,245.5333,121.2866,255.6667,121.9223,265.8,121.5735,275.9333,121.6165,286.0667,121.9318,296.2,121.3086,306.3333,122.5536,316.4667,121.3697,326.6,121.8022,336.7333,122.4319,346.8667,121.9142,357,122,357.0682,122,356.9681,132.0283,357.1785,142.0566,357.2391,152.085,357.5857,162.1133,357.6711,172.1416,357.6793,182.1699,357.2546,192.1982,357,202.2266,357,202.6901,346.8667,202.9288,336.7333,201.5054,326.6,202.9051,316.4667,201.9301,306.3333,202.7604,296.2,201.7315,286.0667,202.1581,275.9333,202.9682,265.8,202.1778,255.6667,202.3319,245.5333,202.5652,235.4,202.6428,225.2667,202.2227,215.1333,202.5138,205,202.2266,204.4276,202.2266,205.2844,192.1982,205.5482,182.1699,205.4445,172.1416,205.613,162.1133,204.5169,152.085,204.3478,142.0566,204.3786,132.0283,205,122" style="stroke: #1E90FF; stroke-width: 3.0;"/><text fill="#1E90FF" font-family="courier" font-size="20" font-weight="bold" lengthAdjust="spacingAndGlyphs" textLength="60" x="245" y="148.1074">Clase</text><text fill="#1E90FF" font-family="courier" font-size="20" font-weight="bold" lengthAdjust="spacingAndGlyphs" textLength="144" x="209" y="174.2207">Descendiente</text><path d="M206,186.2266 L206,186.5068 L216,185.6741 L226,186.4843 L236,186.7595 L246,185.2754 L256,186.1229 L266,185.6579 L276,185.7152 L286,186.1357 L296,185.3047 L306,186.9648 L316,185.3862 L326,185.9629 L336,186.8025 L346,186.1122 L356,186.2266 " fill="#222222" style="stroke: #1E90FF; stroke-width: 3.0;"/><path d="M206,194.2266 L206,194.5068 L216,193.6741 L226,194.4843 L236,194.7595 L246,193.2754 L256,194.1229 L266,193.6579 L276,193.7152 L286,194.1357 L296,193.3047 L306,194.9648 L316,193.3862 L326,193.9629 L336,194.8025 L346,194.1122 L356,194.2266 " fill="#222222" style="stroke: #1E90FF; stroke-width: 3.0;"/><!--class ClaseDescendiente2--><polygon fill="#222222" points="392,122,392,122.2102,402.25,121.5857,412.5,122.1933,422.75,122.3997,433,121.2866,443.25,121.9223,453.5,121.5735,463.75,121.6165,474,121.9318,484.25,121.3086,494.5,122.5536,504.75,121.3697,515,121.8022,525.25,122.4319,535.5,121.9142,545.75,122.0682,556,122,555.9681,122,556.1785,132.0283,556.2391,142.0566,556.5857,152.085,556.6711,162.1133,556.6793,172.1416,556.2546,182.1699,556.4636,192.1982,556,202.2266,556,202.9288,545.75,201.5054,535.5,202.9051,525.25,201.9301,515,202.7604,504.75,201.7315,494.5,202.1581,484.25,202.9682,474,202.1778,463.75,202.3319,453.5,202.5652,443.25,202.6428,433,202.2227,422.75,202.5138,412.5,201.6541,402.25,202.5109,392,202.2266,392.5482,202.2266,392.4445,192.1982,392.613,182.1699,391.5169,172.1416,391.3478,162.1133,391.3786,152.085,391.9411,142.0566,391.8035,132.0283,392,122" style="stroke: #1E90FF; stroke-width: 3.0;"/><text fill="#1E90FF" font-family="courier" font-size="20" font-weight="bold" lengthAdjust="spacingAndGlyphs" textLength="60" x="438" y="148.1074">Clase</text><text fill="#1E90FF" font-family="courier" font-size="20" font-weight="bold" lengthAdjust="spacingAndGlyphs" textLength="156" x="396" y="174.2207">Descendiente2</text><path d="M393,186.2266 L393,186.5068 L403.125,185.6741 L413.25,186.4843 L423.375,186.7595 L433.5,185.2754 L443.625,186.1229 L453.75,185.6579 L463.875,185.7152 L474,186.1357 L484.125,185.3047 L494.25,186.9648 L504.375,185.3862 L514.5,185.9629 L524.625,186.8025 L534.75,186.1122 L544.875,186.3175 L555,186.2266 " fill="#222222" style="stroke: #1E90FF; stroke-width: 3.0;"/><path d="M393,194.2266 L393,194.5068 L403.125,193.6741 L413.25,194.4843 L423.375,194.7595 L433.5,193.2754 L443.625,194.1229 L453.75,193.6579 L463.875,193.7152 L474,194.1357 L484.125,193.3047 L494.25,194.9648 L504.375,193.3862 L514.5,193.9629 L524.625,194.8025 L534.75,194.1122 L544.875,194.3175 L555,194.2266 " fill="#222222" style="stroke: #1E90FF; stroke-width: 3.0;"/><!--link ClaseBase1 to ClaseDescendiente1--><path d="M93.65,82.48 L93.7432,82.4867 L92.9043,90.2748 L92.6117,98.1022 L92.1412,105.9168 L91.0858,113.6892 L90.84,121.52 " fill="none" style="stroke: #A9A9A9; stroke-width: 2.0;"/><polygon fill="none" points="86.7,81.65,86.7643,81.6778,88.2552,77.7052,90.1231,73.8956,91.8683,70.0329,93.2097,65.9956,95.11,62.2,95.085,62.1932,96.0828,66.2548,97.2066,70.3505,98.4181,74.4701,99.3276,78.5077,100.66,82.66,100.6733,82.8441,97.8528,82.2485,95.0712,82.1902,92.2944,82.1976,89.4899,81.8235,86.7,81.65" style="stroke: #A9A9A9; stroke-width: 2.0;"/><!--link ClaseBase1 to ClaseDescendiente--><path d="M152.3,73.56 L152.4575,73.7918 L159.8729,78.4597 L168.2115,84.4865 L176.2495,90.0708 L183.2987,94.1999 L191.6584,100.2576 L199.2804,105.2297 L207.196,110.6337 L215.3156,116.3382 L223.25,121.77 " fill="none" style="stroke: #A9A9A9; stroke-width: 2.0;"/><polygon fill="none" points="148.18,79.23,148.2363,79.2717,145.547,75.7418,143.1878,72.4563,140.7211,69.0913,137.9009,65.4645,135.57,62.2,135.5633,62.175,139.6294,63.1526,143.7291,64.2565,147.8522,65.448,151.8947,66.3373,156.05,67.65,156.2026,67.7537,154.3022,69.8479,152.8475,72.2449,151.4471,74.6789,149.7304,76.8979,148.18,79.23" style="stroke: #A9A9A9; stroke-width: 2.0;"/><!--link ClaseBase2 to ClaseDescendiente--><path d="M344.52,78.29 L344.7423,78.4607 L337.4419,86.5995 L331.4444,95.739 L325.0226,104.5526 L317.2056,112.2946 L311.32,121.52 " fill="none" style="stroke: #A9A9A9; stroke-width: 2.0;"/><polygon fill="none" points="339.14,73.8,339.1783,73.8586,342.6124,71.3644,346.2713,69.2139,349.8569,66.9515,353.2019,64.321,356.88,62.2,356.8554,62.1919,355.417,66.1815,354.1026,70.212,352.8744,74.2709,351.3491,78.2318,350.24,82.33,350.3525,82.4763,347.892,80.4574,345.7598,78.8657,343.6677,77.3262,341.3426,75.4833,339.14,73.8" style="stroke: #A9A9A9; stroke-width: 2.0;"/><!--link ClaseBase2 to ClaseDescendiente2--><path d="M409.82,78.29 L410.0414,78.4618 L416.0936,86.5973 L423.4436,95.74 L430.371,104.5547 L435.9086,112.2908 L443.37,121.52 " fill="none" style="stroke: #A9A9A9; stroke-width: 2.0;"/><polygon fill="none" points="404.07,82.3,404.1364,82.3223,402.5911,78.2361,401.4351,74.2805,400.1523,70.2824,398.4525,66.1444,397.33,62.2,397.3159,62.1782,400.8128,64.3826,404.3806,66.6967,407.9977,69.0869,411.4449,71.2145,415.13,73.71,415.2432,73.8558,412.7891,75.2621,410.6656,77.0939,408.5823,78.9777,406.2645,80.5594,404.07,82.3" style="stroke: #A9A9A9; stroke-width: 2.0;"/><!--
@startuml
skinparam backgroundColor #222222
skinparam handwritten true
skinparam shadowing false
skinparam padding 1
hide circle
skinparam arrow {
    Thickness 2
    Color #DarkGrey
    FontSize 20
    FontName courier
    FontStyle normal
    FontColor #DarkGrey
}
skinparam class {
    BorderThickness 3
    BorderColor #DodgerBlue
    BackgroundColor #222222
    FontSize 20
    FontName courier
    FontStyle bold
    FontColor #DodgerBlue
}

class "Clase Base1" as ClaseBase1
class "Clase Base2" as ClaseBase2
class "Clase \nDescendiente1" as ClaseDescendiente1
class "Clase \nDescendiente" as ClaseDescendiente
class "Clase \nDescendiente2" as ClaseDescendiente2

ClaseBase1 <|-down-ClaseDescendiente1
ClaseBase1 <|-down-ClaseDescendiente
ClaseBase2 <|-down-ClaseDescendiente
ClaseBase2 <|-down-ClaseDescendiente2

@enduml

PlantUML version 1.2019.05(Sat Apr 20 18:45:36 CEST 2019)
(GPL source distribution)
Java Runtime: Java(TM) SE Runtime Environment
JVM: Java HotSpot(TM) 64-Bit Server VM
Java Version: 11.0.14+8-LTS-263
Operating System: Windows 10
OS Version: 10.0
Default Encoding: windows-1252
Language: es
Country: ES
--></g></svg>