<?xml version="1.0" encoding="UTF-8" standalone="no"?><svg xmlns="http://www.w3.org/2000/svg" xmlns:xlink="http://www.w3.org/1999/xlink" contentScriptType="application/ecmascript" contentStyleType="text/css" height="664px" preserveAspectRatio="none" style="width:504px;height:664px;background:#222222;" version="1.1" viewBox="0 0 504 664" width="504px" zoomAndPan="magnify"><defs/><g><polygon fill="#222222" points="6,8,6,8.2102,16.4,7.5857,26.8,8.1933,37.2,8.3997,47.6,7.2866,58,8,57.9223,8,57.5735,18.481,57.6165,28.9619,57.9318,39.4429,57.3086,49.9238,58.5536,60.4048,57.3697,70.8857,57.8022,81.3667,58,91.8477,58,92.2796,47.6,91.7619,37.2,91.9159,26.8,91.8157,16.4,92.0262,6,91.8477,6.2391,91.8477,6.5857,81.3667,6.6711,70.8857,6.6793,60.4048,6.2546,49.9238,6.4636,39.4429,6.7022,28.9619,5.2788,18.481,6,8" style="stroke: #228B22; stroke-width: 3.0;"/><text fill="#228B22" font-family="courier" font-size="20" font-weight="bold" lengthAdjust="spacingAndGlyphs" textLength="36" x="14" y="31.1074">o26</text><path d="M7,40.1133 L7,40.3935 L17,39.5609 L27,40.371 L37,40.6462 L47,39.1621 L57,40.1133 " fill="#222222" style="stroke: #228B22; stroke-width: 3.0;"/><text fill="#228B22" font-family="sans-serif" font-size="10" lengthAdjust="spacingAndGlyphs" textLength="24" x="13" y="55.4941">q=46</text><text fill="#228B22" font-family="sans-serif" font-size="10" lengthAdjust="spacingAndGlyphs" textLength="15" x="13" y="70.0723">r=8</text><text fill="#228B22" font-family="sans-serif" font-size="10" lengthAdjust="spacingAndGlyphs" textLength="22" x="13" y="84.6504">s=29</text><polygon fill="#222222" points="93,8,93,8.2102,103.4,7.5857,113.8,8.1933,124.2,8.3997,134.6,7.2866,145,8,144.9223,8,144.5735,18.481,144.6165,28.9619,144.9318,39.4429,144.3086,49.9238,145.5536,60.4048,144.3697,70.8857,144.8022,81.3667,145,91.8477,145,92.2796,134.6,91.7619,124.2,91.9159,113.8,91.8157,103.4,92.0262,93,91.8477,93.2391,91.8477,93.5857,81.3667,93.6711,70.8857,93.6793,60.4048,93.2546,49.9238,93.4636,39.4429,93.7022,28.9619,92.2788,18.481,93,8" style="stroke: #228B22; stroke-width: 3.0;"/><text fill="#228B22" font-family="courier" font-size="20" font-weight="bold" lengthAdjust="spacingAndGlyphs" textLength="36" x="101" y="31.1074">o15</text><path d="M94,40.1133 L94,40.3935 L104,39.5609 L114,40.371 L124,40.6462 L134,39.1621 L144,40.1133 " fill="#222222" style="stroke: #228B22; stroke-width: 3.0;"/><text fill="#228B22" font-family="sans-serif" font-size="10" lengthAdjust="spacingAndGlyphs" textLength="24" x="100" y="55.4941">q=34</text><text fill="#228B22" font-family="sans-serif" font-size="10" lengthAdjust="spacingAndGlyphs" textLength="21" x="100" y="70.0723">r=17</text><text fill="#228B22" font-family="sans-serif" font-size="10" lengthAdjust="spacingAndGlyphs" textLength="28" x="100" y="84.6504">s=123</text><polygon fill="#222222" points="180,8,180,8.2102,190.4,7.5857,200.8,8.1933,211.2,8.3997,221.6,7.2866,232,8,231.9223,8,231.5735,18.481,231.6165,28.9619,231.9318,39.4429,231.3086,49.9238,232.5536,60.4048,231.3697,70.8857,231.8022,81.3667,232,91.8477,232,92.2796,221.6,91.7619,211.2,91.9159,200.8,91.8157,190.4,92.0262,180,91.8477,180.2391,91.8477,180.5857,81.3667,180.6711,70.8857,180.6793,60.4048,180.2546,49.9238,180.4636,39.4429,180.7022,28.9619,179.2788,18.481,180,8" style="stroke: #228B22; stroke-width: 3.0;"/><text fill="#228B22" font-family="courier" font-size="20" font-weight="bold" lengthAdjust="spacingAndGlyphs" textLength="36" x="188" y="31.1074">o16</text><path d="M181,40.1133 L181,40.3935 L191,39.5609 L201,40.371 L211,40.6462 L221,39.1621 L231,40.1133 " fill="#222222" style="stroke: #228B22; stroke-width: 3.0;"/><text fill="#228B22" font-family="sans-serif" font-size="10" lengthAdjust="spacingAndGlyphs" textLength="18" x="187" y="55.4941">q=4</text><text fill="#228B22" font-family="sans-serif" font-size="10" lengthAdjust="spacingAndGlyphs" textLength="21" x="187" y="70.0723">r=12</text><text fill="#228B22" font-family="sans-serif" font-size="10" lengthAdjust="spacingAndGlyphs" textLength="22" x="187" y="84.6504">s=25</text><polygon fill="#222222" points="267,8,267,8.2102,277.4,7.5857,287.8,8.1933,298.2,8.3997,308.6,7.2866,319,8,318.9223,8,318.5735,18.481,318.6165,28.9619,318.9318,39.4429,318.3086,49.9238,319.5536,60.4048,318.3697,70.8857,318.8022,81.3667,319,91.8477,319,92.2796,308.6,91.7619,298.2,91.9159,287.8,91.8157,277.4,92.0262,267,91.8477,267.2391,91.8477,267.5857,81.3667,267.6711,70.8857,267.6793,60.4048,267.2546,49.9238,267.4636,39.4429,267.7022,28.9619,266.2788,18.481,267,8" style="stroke: #228B22; stroke-width: 3.0;"/><text fill="#228B22" font-family="courier" font-size="20" font-weight="bold" lengthAdjust="spacingAndGlyphs" textLength="36" x="275" y="31.1074">o14</text><path d="M268,40.1133 L268,40.3935 L278,39.5609 L288,40.371 L298,40.6462 L308,39.1621 L318,40.1133 " fill="#222222" style="stroke: #228B22; stroke-width: 3.0;"/><text fill="#228B22" font-family="sans-serif" font-size="10" lengthAdjust="spacingAndGlyphs" textLength="24" x="274" y="55.4941">q=52</text><text fill="#228B22" font-family="sans-serif" font-size="10" lengthAdjust="spacingAndGlyphs" textLength="21" x="274" y="70.0723">r=76</text><text fill="#228B22" font-family="sans-serif" font-size="10" lengthAdjust="spacingAndGlyphs" textLength="22" x="274" y="84.6504">s=27</text><polygon fill="#222222" points="354,8,354,8.2102,364.4,7.5857,374.8,8.1933,385.2,8.3997,395.6,7.2866,406,8,405.9223,8,405.5735,18.481,405.6165,28.9619,405.9318,39.4429,405.3086,49.9238,406.5536,60.4048,405.3697,70.8857,405.8022,81.3667,406,91.8477,406,92.2796,395.6,91.7619,385.2,91.9159,374.8,91.8157,364.4,92.0262,354,91.8477,354.2391,91.8477,354.5857,81.3667,354.6711,70.8857,354.6793,60.4048,354.2546,49.9238,354.4636,39.4429,354.7022,28.9619,353.2788,18.481,354,8" style="stroke: #228B22; stroke-width: 3.0;"/><text fill="#228B22" font-family="courier" font-size="20" font-weight="bold" lengthAdjust="spacingAndGlyphs" textLength="36" x="362" y="31.1074">o10</text><path d="M355,40.1133 L355,40.3935 L365,39.5609 L375,40.371 L385,40.6462 L395,39.1621 L405,40.1133 " fill="#222222" style="stroke: #228B22; stroke-width: 3.0;"/><text fill="#228B22" font-family="sans-serif" font-size="10" lengthAdjust="spacingAndGlyphs" textLength="24" x="361" y="55.4941">q=56</text><text fill="#228B22" font-family="sans-serif" font-size="10" lengthAdjust="spacingAndGlyphs" textLength="15" x="361" y="70.0723">r=2</text><text fill="#228B22" font-family="sans-serif" font-size="10" lengthAdjust="spacingAndGlyphs" textLength="22" x="361" y="84.6504">s=19</text><polygon fill="#222222" points="441,8,441,8.2102,451.4,7.5857,461.8,8.1933,472.2,8.3997,482.6,7.2866,493,8,492.9223,8,492.5735,18.481,492.6165,28.9619,492.9318,39.4429,492.3086,49.9238,493.5536,60.4048,492.3697,70.8857,492.8022,81.3667,493,91.8477,493,92.2796,482.6,91.7619,472.2,91.9159,461.8,91.8157,451.4,92.0262,441,91.8477,441.2391,91.8477,441.5857,81.3667,441.6711,70.8857,441.6793,60.4048,441.2546,49.9238,441.4636,39.4429,441.7022,28.9619,440.2788,18.481,441,8" style="stroke: #228B22; stroke-width: 3.0;"/><text fill="#228B22" font-family="courier" font-size="20" font-weight="bold" lengthAdjust="spacingAndGlyphs" textLength="36" x="449" y="31.1074">o24</text><path d="M442,40.1133 L442,40.3935 L452,39.5609 L462,40.371 L472,40.6462 L482,39.1621 L492,40.1133 " fill="#222222" style="stroke: #228B22; stroke-width: 3.0;"/><text fill="#228B22" font-family="sans-serif" font-size="10" lengthAdjust="spacingAndGlyphs" textLength="18" x="448" y="55.4941">q=3</text><text fill="#228B22" font-family="sans-serif" font-size="10" lengthAdjust="spacingAndGlyphs" textLength="21" x="448" y="70.0723">r=16</text><text fill="#228B22" font-family="sans-serif" font-size="10" lengthAdjust="spacingAndGlyphs" textLength="22" x="448" y="84.6504">s=92</text><polygon fill="#222222" points="6,152,6,152.2102,16.4,151.5857,26.8,152.1933,37.2,152.3997,47.6,151.2866,58,152,57.9223,152,57.5735,162.481,57.6165,172.9619,57.9318,183.4429,57.3086,193.9238,58.5536,204.4048,57.3697,214.8857,57.8022,225.3667,58,235.8477,58,236.2796,47.6,235.7619,37.2,235.9159,26.8,235.8157,16.4,236.0262,6,235.8477,6.2391,235.8477,6.5857,225.3667,6.6711,214.8857,6.6793,204.4048,6.2546,193.9238,6.4636,183.4429,6.7022,172.9619,5.2788,162.481,6,152" style="stroke: #228B22; stroke-width: 3.0;"/><text fill="#228B22" font-family="courier" font-size="20" font-weight="bold" lengthAdjust="spacingAndGlyphs" textLength="36" x="14" y="175.1074">o29</text><path d="M7,184.1133 L7,184.3935 L17,183.5609 L27,184.371 L37,184.6462 L47,183.1621 L57,184.1133 " fill="#222222" style="stroke: #228B22; stroke-width: 3.0;"/><text fill="#228B22" font-family="sans-serif" font-size="10" lengthAdjust="spacingAndGlyphs" textLength="24" x="13" y="199.4941">q=30</text><text fill="#228B22" font-family="sans-serif" font-size="10" lengthAdjust="spacingAndGlyphs" textLength="27" x="13" y="214.0723">r=129</text><text fill="#228B22" font-family="sans-serif" font-size="10" lengthAdjust="spacingAndGlyphs" textLength="22" x="13" y="228.6504">s=79</text><polygon fill="#222222" points="93,152,93,152.0701,101,151.8619,109,152.0644,117,152.1332,125,151.7622,133,152,132.9223,152,132.5735,162.481,132.6165,172.9619,132.9318,183.4429,132.3086,193.9238,133.5536,204.4048,132.3697,214.8857,132.8022,225.3667,133,235.8477,133,235.9916,125,235.8191,117,235.8704,109,235.837,101,235.9072,93,235.8477,93.2391,235.8477,93.5857,225.3667,93.6711,214.8857,93.6793,204.4048,93.2546,193.9238,93.4636,183.4429,93.7022,172.9619,92.2788,162.481,93,152" style="stroke: #228B22; stroke-width: 3.0;"/><text fill="#228B22" font-family="courier" font-size="20" font-weight="bold" lengthAdjust="spacingAndGlyphs" textLength="24" x="101" y="175.1074">o5</text><path d="M94,184.1133 L94,184.2067 L101.6,183.9291 L109.2,184.1992 L116.8,184.2909 L124.4,183.7962 L132,184.1133 " fill="#222222" style="stroke: #228B22; stroke-width: 3.0;"/><text fill="#228B22" font-family="sans-serif" font-size="10" lengthAdjust="spacingAndGlyphs" textLength="24" x="100" y="199.4941">q=52</text><text fill="#228B22" font-family="sans-serif" font-size="10" lengthAdjust="spacingAndGlyphs" textLength="21" x="100" y="214.0723">r=15</text><text fill="#228B22" font-family="sans-serif" font-size="10" lengthAdjust="spacingAndGlyphs" textLength="22" x="100" y="228.6504">s=12</text><polygon fill="#222222" points="168,152,168,152.2102,178.4,151.5857,188.8,152.1933,199.2,152.3997,209.6,151.2866,220,152,219.9223,152,219.5735,162.481,219.6165,172.9619,219.9318,183.4429,219.3086,193.9238,220.5536,204.4048,219.3697,214.8857,219.8022,225.3667,220,235.8477,220,236.2796,209.6,235.7619,199.2,235.9159,188.8,235.8157,178.4,236.0262,168,235.8477,168.2391,235.8477,168.5857,225.3667,168.6711,214.8857,168.6793,204.4048,168.2546,193.9238,168.4636,183.4429,168.7022,172.9619,167.2788,162.481,168,152" style="stroke: #228B22; stroke-width: 3.0;"/><text fill="#228B22" font-family="courier" font-size="20" font-weight="bold" lengthAdjust="spacingAndGlyphs" textLength="36" x="176" y="175.1074">o20</text><path d="M169,184.1133 L169,184.3935 L179,183.5609 L189,184.371 L199,184.6462 L209,183.1621 L219,184.1133 " fill="#222222" style="stroke: #228B22; stroke-width: 3.0;"/><text fill="#228B22" font-family="sans-serif" font-size="10" lengthAdjust="spacingAndGlyphs" textLength="18" x="175" y="199.4941">q=1</text><text fill="#228B22" font-family="sans-serif" font-size="10" lengthAdjust="spacingAndGlyphs" textLength="21" x="175" y="214.0723">r=14</text><text fill="#228B22" font-family="sans-serif" font-size="10" lengthAdjust="spacingAndGlyphs" textLength="22" x="175" y="228.6504">s=77</text><polygon fill="#222222" points="255,152,255,152.0701,263,151.8619,271,152.0644,279,152.1332,287,151.7622,295,152,294.9223,152,294.5735,162.481,294.6165,172.9619,294.9318,183.4429,294.3086,193.9238,295.5536,204.4048,294.3697,214.8857,294.8022,225.3667,295,235.8477,295,235.9916,287,235.8191,279,235.8704,271,235.837,263,235.9072,255,235.8477,255.2391,235.8477,255.5857,225.3667,255.6711,214.8857,255.6793,204.4048,255.2546,193.9238,255.4636,183.4429,255.7022,172.9619,254.2788,162.481,255,152" style="stroke: #228B22; stroke-width: 3.0;"/><text fill="#228B22" font-family="courier" font-size="20" font-weight="bold" lengthAdjust="spacingAndGlyphs" textLength="24" x="263" y="175.1074">o4</text><path d="M256,184.1133 L256,184.2067 L263.6,183.9291 L271.2,184.1992 L278.8,184.2909 L286.4,183.7962 L294,184.1133 " fill="#222222" style="stroke: #228B22; stroke-width: 3.0;"/><text fill="#228B22" font-family="sans-serif" font-size="10" lengthAdjust="spacingAndGlyphs" textLength="24" x="262" y="199.4941">p=68</text><text fill="#228B22" font-family="sans-serif" font-size="10" lengthAdjust="spacingAndGlyphs" textLength="22" x="262" y="214.0723">s=13</text><text fill="#228B22" font-family="sans-serif" font-size="10" lengthAdjust="spacingAndGlyphs" textLength="24" x="262" y="228.6504">q=78</text><polygon fill="#222222" points="330,152,330,152.0701,338,151.8619,346,152.0644,354,152.1332,362,151.7622,370,152,369.9223,152,369.5735,162.481,369.6165,172.9619,369.9318,183.4429,369.3086,193.9238,370.5536,204.4048,369.3697,214.8857,369.8022,225.3667,370,235.8477,370,235.9916,362,235.8191,354,235.8704,346,235.837,338,235.9072,330,235.8477,330.2391,235.8477,330.5857,225.3667,330.6711,214.8857,330.6793,204.4048,330.2546,193.9238,330.4636,183.4429,330.7022,172.9619,329.2788,162.481,330,152" style="stroke: #228B22; stroke-width: 3.0;"/><text fill="#228B22" font-family="courier" font-size="20" font-weight="bold" lengthAdjust="spacingAndGlyphs" textLength="24" x="338" y="175.1074">o6</text><path d="M331,184.1133 L331,184.2067 L338.6,183.9291 L346.2,184.1992 L353.8,184.2909 L361.4,183.7962 L369,184.1133 " fill="#222222" style="stroke: #228B22; stroke-width: 3.0;"/><text fill="#228B22" font-family="sans-serif" font-size="10" lengthAdjust="spacingAndGlyphs" textLength="24" x="337" y="199.4941">p=45</text><text fill="#228B22" font-family="sans-serif" font-size="10" lengthAdjust="spacingAndGlyphs" textLength="22" x="337" y="214.0723">s=48</text><text fill="#228B22" font-family="sans-serif" font-size="10" lengthAdjust="spacingAndGlyphs" textLength="24" x="337" y="228.6504">q=12</text><polygon fill="#222222" points="405,152,405,152.2102,415.4,151.5857,425.8,152.1933,436.2,152.3997,446.6,151.2866,457,152,456.9223,152,456.5735,162.481,456.6165,172.9619,456.9318,183.4429,456.3086,193.9238,457.5536,204.4048,456.3697,214.8857,456.8022,225.3667,457,235.8477,457,236.2796,446.6,235.7619,436.2,235.9159,425.8,235.8157,415.4,236.0262,405,235.8477,405.2391,235.8477,405.5857,225.3667,405.6711,214.8857,405.6793,204.4048,405.2546,193.9238,405.4636,183.4429,405.7022,172.9619,404.2788,162.481,405,152" style="stroke: #228B22; stroke-width: 3.0;"/><text fill="#228B22" font-family="courier" font-size="20" font-weight="bold" lengthAdjust="spacingAndGlyphs" textLength="36" x="413" y="175.1074">o19</text><path d="M406,184.1133 L406,184.3935 L416,183.5609 L426,184.371 L436,184.6462 L446,183.1621 L456,184.1133 " fill="#222222" style="stroke: #228B22; stroke-width: 3.0;"/><text fill="#228B22" font-family="sans-serif" font-size="10" lengthAdjust="spacingAndGlyphs" textLength="24" x="412" y="199.4941">p=23</text><text fill="#228B22" font-family="sans-serif" font-size="10" lengthAdjust="spacingAndGlyphs" textLength="22" x="412" y="214.0723">s=90</text><text fill="#228B22" font-family="sans-serif" font-size="10" lengthAdjust="spacingAndGlyphs" textLength="24" x="412" y="228.6504">q=14</text><polygon fill="#222222" points="6,296,6,296.2102,16.4,295.5857,26.8,296.1933,37.2,296.3997,47.6,295.2866,58,296,57.9223,296,57.5735,306.481,57.6165,316.9619,57.9318,327.4429,57.3086,337.9238,58.5536,348.4048,57.3697,358.8857,57.8022,369.3667,58,379.8477,58,380.2796,47.6,379.7619,37.2,379.9159,26.8,379.8157,16.4,380.0262,6,379.8477,6.2391,379.8477,6.5857,369.3667,6.6711,358.8857,6.6793,348.4048,6.2546,337.9238,6.4636,327.4429,6.7022,316.9619,5.2788,306.481,6,296" style="stroke: #228B22; stroke-width: 3.0;"/><text fill="#228B22" font-family="courier" font-size="20" font-weight="bold" lengthAdjust="spacingAndGlyphs" textLength="36" x="14" y="319.1074">o21</text><path d="M7,328.1133 L7,328.3935 L17,327.5609 L27,328.371 L37,328.6462 L47,327.1621 L57,328.1133 " fill="#222222" style="stroke: #228B22; stroke-width: 3.0;"/><text fill="#228B22" font-family="sans-serif" font-size="10" lengthAdjust="spacingAndGlyphs" textLength="24" x="13" y="343.4941">p=15</text><text fill="#228B22" font-family="sans-serif" font-size="10" lengthAdjust="spacingAndGlyphs" textLength="22" x="13" y="358.0723">s=78</text><text fill="#228B22" font-family="sans-serif" font-size="10" lengthAdjust="spacingAndGlyphs" textLength="18" x="13" y="372.6504">q=1</text><polygon fill="#222222" points="93,296,93,296.2102,103.4,295.5857,113.8,296.1933,124.2,296.3997,134.6,295.2866,145,296,144.9223,296,144.5735,306.481,144.6165,316.9619,144.9318,327.4429,144.3086,337.9238,145.5536,348.4048,144.3697,358.8857,144.8022,369.3667,145,379.8477,145,380.2796,134.6,379.7619,124.2,379.9159,113.8,379.8157,103.4,380.0262,93,379.8477,93.2391,379.8477,93.5857,369.3667,93.6711,358.8857,93.6793,348.4048,93.2546,337.9238,93.4636,327.4429,93.7022,316.9619,92.2788,306.481,93,296" style="stroke: #228B22; stroke-width: 3.0;"/><text fill="#228B22" font-family="courier" font-size="20" font-weight="bold" lengthAdjust="spacingAndGlyphs" textLength="36" x="101" y="319.1074">o25</text><path d="M94,328.1133 L94,328.3935 L104,327.5609 L114,328.371 L124,328.6462 L134,327.1621 L144,328.1133 " fill="#222222" style="stroke: #228B22; stroke-width: 3.0;"/><text fill="#228B22" font-family="sans-serif" font-size="10" lengthAdjust="spacingAndGlyphs" textLength="24" x="100" y="343.4941">p=42</text><text fill="#228B22" font-family="sans-serif" font-size="10" lengthAdjust="spacingAndGlyphs" textLength="22" x="100" y="358.0723">s=23</text><text fill="#228B22" font-family="sans-serif" font-size="10" lengthAdjust="spacingAndGlyphs" textLength="24" x="100" y="372.6504">q=87</text><polygon fill="#222222" points="180,296,180,296.2102,190.4,295.5857,200.8,296.1933,211.2,296.3997,221.6,295.2866,232,296,231.9223,296,231.5735,306.481,231.6165,316.9619,231.9318,327.4429,231.3086,337.9238,232.5536,348.4048,231.3697,358.8857,231.8022,369.3667,232,379.8477,232,380.2796,221.6,379.7619,211.2,379.9159,200.8,379.8157,190.4,380.0262,180,379.8477,180.2391,379.8477,180.5857,369.3667,180.6711,358.8857,180.6793,348.4048,180.2546,337.9238,180.4636,327.4429,180.7022,316.9619,179.2788,306.481,180,296" style="stroke: #228B22; stroke-width: 3.0;"/><text fill="#228B22" font-family="courier" font-size="20" font-weight="bold" lengthAdjust="spacingAndGlyphs" textLength="36" x="188" y="319.1074">o13</text><path d="M181,328.1133 L181,328.3935 L191,327.5609 L201,328.371 L211,328.6462 L221,327.1621 L231,328.1133 " fill="#222222" style="stroke: #228B22; stroke-width: 3.0;"/><text fill="#228B22" font-family="sans-serif" font-size="10" lengthAdjust="spacingAndGlyphs" textLength="24" x="187" y="343.4941">p=97</text><text fill="#228B22" font-family="sans-serif" font-size="10" lengthAdjust="spacingAndGlyphs" textLength="28" x="187" y="358.0723">s=111</text><text fill="#228B22" font-family="sans-serif" font-size="10" lengthAdjust="spacingAndGlyphs" textLength="18" x="187" y="372.6504">q=3</text><polygon fill="#222222" points="267,296,267,296.2102,277.4,295.5857,287.8,296.1933,298.2,296.3997,308.6,295.2866,319,296,318.9223,296,318.5735,306.481,318.6165,316.9619,318.9318,327.4429,318.3086,337.9238,319.5536,348.4048,318.3697,358.8857,318.8022,369.3667,319,379.8477,319,380.2796,308.6,379.7619,298.2,379.9159,287.8,379.8157,277.4,380.0262,267,379.8477,267.2391,379.8477,267.5857,369.3667,267.6711,358.8857,267.6793,348.4048,267.2546,337.9238,267.4636,327.4429,267.7022,316.9619,266.2788,306.481,267,296" style="stroke: #228B22; stroke-width: 3.0;"/><text fill="#228B22" font-family="courier" font-size="20" font-weight="bold" lengthAdjust="spacingAndGlyphs" textLength="36" x="275" y="319.1074">o30</text><path d="M268,328.1133 L268,328.3935 L278,327.5609 L288,328.371 L298,328.6462 L308,327.1621 L318,328.1133 " fill="#222222" style="stroke: #228B22; stroke-width: 3.0;"/><text fill="#228B22" font-family="sans-serif" font-size="10" lengthAdjust="spacingAndGlyphs" textLength="24" x="274" y="343.4941">p=65</text><text fill="#228B22" font-family="sans-serif" font-size="10" lengthAdjust="spacingAndGlyphs" textLength="22" x="274" y="358.0723">s=47</text><text fill="#228B22" font-family="sans-serif" font-size="10" lengthAdjust="spacingAndGlyphs" textLength="24" x="274" y="372.6504">q=80</text><polygon fill="#222222" points="354,296,354,296.2102,364.4,295.5857,374.8,296.1933,385.2,296.3997,395.6,295.2866,406,296,405.9223,296,405.5735,306.481,405.6165,316.9619,405.9318,327.4429,405.3086,337.9238,406.5536,348.4048,405.3697,358.8857,405.8022,369.3667,406,379.8477,406,380.2796,395.6,379.7619,385.2,379.9159,374.8,379.8157,364.4,380.0262,354,379.8477,354.2391,379.8477,354.5857,369.3667,354.6711,358.8857,354.6793,348.4048,354.2546,337.9238,354.4636,327.4429,354.7022,316.9619,353.2788,306.481,354,296" style="stroke: #228B22; stroke-width: 3.0;"/><text fill="#228B22" font-family="courier" font-size="20" font-weight="bold" lengthAdjust="spacingAndGlyphs" textLength="36" x="362" y="319.1074">o23</text><path d="M355,328.1133 L355,328.3935 L365,327.5609 L375,328.371 L385,328.6462 L395,327.1621 L405,328.1133 " fill="#222222" style="stroke: #228B22; stroke-width: 3.0;"/><text fill="#228B22" font-family="sans-serif" font-size="10" lengthAdjust="spacingAndGlyphs" textLength="24" x="361" y="343.4941">p=22</text><text fill="#228B22" font-family="sans-serif" font-size="10" lengthAdjust="spacingAndGlyphs" textLength="22" x="361" y="358.0723">s=55</text><text fill="#228B22" font-family="sans-serif" font-size="10" lengthAdjust="spacingAndGlyphs" textLength="24" x="361" y="372.6504">q=77</text><polygon fill="#222222" points="441,296,441,296.2102,451.4,295.5857,461.8,296.1933,472.2,296.3997,482.6,295.2866,493,296,492.9223,296,492.5735,306.481,492.6165,316.9619,492.9318,327.4429,492.3086,337.9238,493.5536,348.4048,492.3697,358.8857,492.8022,369.3667,493,379.8477,493,380.2796,482.6,379.7619,472.2,379.9159,461.8,379.8157,451.4,380.0262,441,379.8477,441.2391,379.8477,441.5857,369.3667,441.6711,358.8857,441.6793,348.4048,441.2546,337.9238,441.4636,327.4429,441.7022,316.9619,440.2788,306.481,441,296" style="stroke: #228B22; stroke-width: 3.0;"/><text fill="#228B22" font-family="courier" font-size="20" font-weight="bold" lengthAdjust="spacingAndGlyphs" textLength="36" x="449" y="319.1074">o17</text><path d="M442,328.1133 L442,328.3935 L452,327.5609 L462,328.371 L472,328.6462 L482,327.1621 L492,328.1133 " fill="#222222" style="stroke: #228B22; stroke-width: 3.0;"/><text fill="#228B22" font-family="sans-serif" font-size="10" lengthAdjust="spacingAndGlyphs" textLength="24" x="448" y="343.4941">p=25</text><text fill="#228B22" font-family="sans-serif" font-size="10" lengthAdjust="spacingAndGlyphs" textLength="22" x="448" y="358.0723">s=33</text><text fill="#228B22" font-family="sans-serif" font-size="10" lengthAdjust="spacingAndGlyphs" textLength="18" x="448" y="372.6504">q=7</text><polygon fill="#222222" points="6,440,6,440.2102,16.4,439.5857,26.8,440.1933,37.2,440.3997,47.6,439.2866,58,440,57.9223,440,57.5735,450.481,57.6165,460.9619,57.9318,471.4429,57.3086,481.9238,58.5536,492.4048,57.3697,502.8857,57.8022,513.3667,58,523.8477,58,524.2796,47.6,523.7619,37.2,523.9159,26.8,523.8157,16.4,524.0262,6,523.8477,6.2391,523.8477,6.5857,513.3667,6.6711,502.8857,6.6793,492.4048,6.2546,481.9238,6.4636,471.4429,6.7022,460.9619,5.2788,450.481,6,440" style="stroke: #228B22; stroke-width: 3.0;"/><text fill="#228B22" font-family="courier" font-size="20" font-weight="bold" lengthAdjust="spacingAndGlyphs" textLength="36" x="14" y="463.1074">o28</text><path d="M7,472.1133 L7,472.3935 L17,471.5609 L27,472.371 L37,472.6462 L47,471.1621 L57,472.1133 " fill="#222222" style="stroke: #228B22; stroke-width: 3.0;"/><text fill="#228B22" font-family="sans-serif" font-size="10" lengthAdjust="spacingAndGlyphs" textLength="24" x="13" y="487.4941">p=68</text><text fill="#228B22" font-family="sans-serif" font-size="10" lengthAdjust="spacingAndGlyphs" textLength="22" x="13" y="502.0723">s=86</text><text fill="#228B22" font-family="sans-serif" font-size="10" lengthAdjust="spacingAndGlyphs" textLength="30" x="13" y="516.6504">q=43p</text><polygon fill="#222222" points="93,447.5,93,447.5701,101,447.3619,109,447.5644,117,447.6332,125,447.2622,133,447.5,132.9223,447.5,132.5735,457.3956,132.6165,467.2913,132.9318,477.1869,132.3086,487.0826,133.5536,496.9782,132.3697,506.8739,133,516.7695,133,516.7036,125,516.9135,117,516.7409,109,516.7923,101,516.7589,93,516.7695,93.1785,516.7695,93.2391,506.8739,93.5857,496.9782,93.6711,487.0826,93.6793,477.1869,93.2546,467.2913,93.4636,457.3956,93,447.5" style="stroke: #228B22; stroke-width: 3.0;"/><text fill="#228B22" font-family="courier" font-size="20" font-weight="bold" lengthAdjust="spacingAndGlyphs" textLength="24" x="101" y="470.6074">o9</text><path d="M94,479.6133 L94,479.7067 L101.6,479.4291 L109.2,479.6992 L116.8,479.7909 L124.4,479.2962 L132,479.6133 " fill="#222222" style="stroke: #228B22; stroke-width: 3.0;"/><text fill="#228B22" font-family="sans-serif" font-size="10" lengthAdjust="spacingAndGlyphs" textLength="24" x="100" y="494.9941">p=37</text><text fill="#228B22" font-family="sans-serif" font-size="10" lengthAdjust="spacingAndGlyphs" textLength="24" x="100" y="509.5723">o=10</text><polygon fill="#222222" points="168,447.5,168,447.5701,176,447.3619,184,447.5644,192,447.6332,200,447.2622,208,447.5,207.9223,447.5,207.5735,457.3956,207.6165,467.2913,207.9318,477.1869,207.3086,487.0826,208.5536,496.9782,207.3697,506.8739,208,516.7695,208,516.7036,200,516.9135,192,516.7409,184,516.7923,176,516.7589,168,516.7695,168.1785,516.7695,168.2391,506.8739,168.5857,496.9782,168.6711,487.0826,168.6793,477.1869,168.2546,467.2913,168.4636,457.3956,168,447.5" style="stroke: #228B22; stroke-width: 3.0;"/><text fill="#228B22" font-family="courier" font-size="20" font-weight="bold" lengthAdjust="spacingAndGlyphs" textLength="24" x="176" y="470.6074">o2</text><path d="M169,479.6133 L169,479.7067 L176.6,479.4291 L184.2,479.6992 L191.8,479.7909 L199.4,479.2962 L207,479.6133 " fill="#222222" style="stroke: #228B22; stroke-width: 3.0;"/><text fill="#228B22" font-family="sans-serif" font-size="10" lengthAdjust="spacingAndGlyphs" textLength="24" x="175" y="494.9941">p=70</text><text fill="#228B22" font-family="sans-serif" font-size="10" lengthAdjust="spacingAndGlyphs" textLength="24" x="175" y="509.5723">o=11</text><polygon fill="#222222" points="243,447.5,243,447.5701,251,447.3619,259,447.5644,267,447.6332,275,447.2622,283,447.5,282.9223,447.5,282.5735,457.3956,282.6165,467.2913,282.9318,477.1869,282.3086,487.0826,283.5536,496.9782,282.3697,506.8739,283,516.7695,283,516.7036,275,516.9135,267,516.7409,259,516.7923,251,516.7589,243,516.7695,243.1785,516.7695,243.2391,506.8739,243.5857,496.9782,243.6711,487.0826,243.6793,477.1869,243.2546,467.2913,243.4636,457.3956,243,447.5" style="stroke: #228B22; stroke-width: 3.0;"/><text fill="#228B22" font-family="courier" font-size="20" font-weight="bold" lengthAdjust="spacingAndGlyphs" textLength="24" x="251" y="470.6074">o3</text><path d="M244,479.6133 L244,479.7067 L251.6,479.4291 L259.2,479.6992 L266.8,479.7909 L274.4,479.2962 L282,479.6133 " fill="#222222" style="stroke: #228B22; stroke-width: 3.0;"/><text fill="#228B22" font-family="sans-serif" font-size="10" lengthAdjust="spacingAndGlyphs" textLength="24" x="250" y="494.9941">p=19</text><text fill="#228B22" font-family="sans-serif" font-size="10" lengthAdjust="spacingAndGlyphs" textLength="18" x="250" y="509.5723">o=5</text><polygon fill="#222222" points="318,447.5,318,447.5701,326,447.3619,334,447.5644,342,447.6332,350,447.2622,358,447.5,357.9223,447.5,357.5735,457.3956,357.6165,467.2913,357.9318,477.1869,357.3086,487.0826,358.5536,496.9782,357.3697,506.8739,358,516.7695,358,516.7036,350,516.9135,342,516.7409,334,516.7923,326,516.7589,318,516.7695,318.1785,516.7695,318.2391,506.8739,318.5857,496.9782,318.6711,487.0826,318.6793,477.1869,318.2546,467.2913,318.4636,457.3956,318,447.5" style="stroke: #228B22; stroke-width: 3.0;"/><text fill="#228B22" font-family="courier" font-size="20" font-weight="bold" lengthAdjust="spacingAndGlyphs" textLength="24" x="326" y="470.6074">o8</text><path d="M319,479.6133 L319,479.7067 L326.6,479.4291 L334.2,479.6992 L341.8,479.7909 L349.4,479.2962 L357,479.6133 " fill="#222222" style="stroke: #228B22; stroke-width: 3.0;"/><text fill="#228B22" font-family="sans-serif" font-size="10" lengthAdjust="spacingAndGlyphs" textLength="24" x="325" y="494.9941">p=51</text><text fill="#228B22" font-family="sans-serif" font-size="10" lengthAdjust="spacingAndGlyphs" textLength="24" x="325" y="509.5723">o=81</text><polygon fill="#222222" points="393,447.5,393,447.7102,403.4,447.0857,413.8,447.6933,424.2,447.8997,434.6,446.7866,445,447.5,444.9223,447.5,444.5735,457.3956,444.6165,467.2913,444.9318,477.1869,444.3086,487.0826,445.5536,496.9782,444.3697,506.8739,445,516.7695,445,516.5718,434.6,517.2015,424.2,516.6838,413.8,516.8378,403.4,516.7376,393,516.7695,393.1785,516.7695,393.2391,506.8739,393.5857,496.9782,393.6711,487.0826,393.6793,477.1869,393.2546,467.2913,393.4636,457.3956,393,447.5" style="stroke: #228B22; stroke-width: 3.0;"/><text fill="#228B22" font-family="courier" font-size="20" font-weight="bold" lengthAdjust="spacingAndGlyphs" textLength="36" x="401" y="470.6074">o12</text><path d="M394,479.6133 L394,479.8935 L404,479.0609 L414,479.871 L424,480.1462 L434,478.6621 L444,479.6133 " fill="#222222" style="stroke: #228B22; stroke-width: 3.0;"/><text fill="#228B22" font-family="sans-serif" font-size="10" lengthAdjust="spacingAndGlyphs" textLength="24" x="400" y="494.9941">p=31</text><text fill="#228B22" font-family="sans-serif" font-size="10" lengthAdjust="spacingAndGlyphs" textLength="18" x="400" y="509.5723">o=6</text><polygon fill="#222222" points="6,584,6,584.2102,16.4,583.5857,26.8,584.1933,37.2,584.3997,47.6,583.2866,58,584,57.9223,584,57.5735,593.8956,57.6165,603.7913,57.9318,613.6869,57.3086,623.5826,58.5536,633.4782,57.3697,643.3739,58,653.2695,58,653.0718,47.6,653.7015,37.2,653.1838,26.8,653.3378,16.4,653.2376,6,653.2695,6.1785,653.2695,6.2391,643.3739,6.5857,633.4782,6.6711,623.5826,6.6793,613.6869,6.2546,603.7913,6.4636,593.8956,6,584" style="stroke: #228B22; stroke-width: 3.0;"/><text fill="#228B22" font-family="courier" font-size="20" font-weight="bold" lengthAdjust="spacingAndGlyphs" textLength="36" x="14" y="607.1074">o27</text><path d="M7,616.1133 L7,616.3935 L17,615.5609 L27,616.371 L37,616.6462 L47,615.1621 L57,616.1133 " fill="#222222" style="stroke: #228B22; stroke-width: 3.0;"/><text fill="#228B22" font-family="sans-serif" font-size="10" lengthAdjust="spacingAndGlyphs" textLength="24" x="13" y="631.4941">p=93</text><text fill="#228B22" font-family="sans-serif" font-size="10" lengthAdjust="spacingAndGlyphs" textLength="30" x="13" y="646.0723">o=103</text><polygon fill="#222222" points="93,584,93,584.0701,101,583.8619,109,584.0644,117,584.1332,125,583.7622,133,584,132.9223,584,132.5735,593.8956,132.6165,603.7913,132.9318,613.6869,132.3086,623.5826,133.5536,633.4782,132.3697,643.3739,133,653.2695,133,653.2036,125,653.4135,117,653.2409,109,653.2923,101,653.2589,93,653.2695,93.1785,653.2695,93.2391,643.3739,93.5857,633.4782,93.6711,623.5826,93.6793,613.6869,93.2546,603.7913,93.4636,593.8956,93,584" style="stroke: #228B22; stroke-width: 3.0;"/><text fill="#228B22" font-family="courier" font-size="20" font-weight="bold" lengthAdjust="spacingAndGlyphs" textLength="24" x="101" y="607.1074">o1</text><path d="M94,616.1133 L94,616.2067 L101.6,615.9291 L109.2,616.1992 L116.8,616.2909 L124.4,615.7962 L132,616.1133 " fill="#222222" style="stroke: #228B22; stroke-width: 3.0;"/><text fill="#228B22" font-family="sans-serif" font-size="10" lengthAdjust="spacingAndGlyphs" textLength="24" x="100" y="631.4941">p=26</text><text fill="#228B22" font-family="sans-serif" font-size="10" lengthAdjust="spacingAndGlyphs" textLength="24" x="100" y="646.0723">o=72</text><polygon fill="#222222" points="168,584,168,584.2102,178.4,583.5857,188.8,584.1933,199.2,584.3997,209.6,583.2866,220,584,219.9223,584,219.5735,593.8956,219.6165,603.7913,219.9318,613.6869,219.3086,623.5826,220.5536,633.4782,219.3697,643.3739,220,653.2695,220,653.0718,209.6,653.7015,199.2,653.1838,188.8,653.3378,178.4,653.2376,168,653.2695,168.1785,653.2695,168.2391,643.3739,168.5857,633.4782,168.6711,623.5826,168.6793,613.6869,168.2546,603.7913,168.4636,593.8956,168,584" style="stroke: #228B22; stroke-width: 3.0;"/><text fill="#228B22" font-family="courier" font-size="20" font-weight="bold" lengthAdjust="spacingAndGlyphs" textLength="36" x="176" y="607.1074">o18</text><path d="M169,616.1133 L169,616.3935 L179,615.5609 L189,616.371 L199,616.6462 L209,615.1621 L219,616.1133 " fill="#222222" style="stroke: #228B22; stroke-width: 3.0;"/><text fill="#228B22" font-family="sans-serif" font-size="10" lengthAdjust="spacingAndGlyphs" textLength="24" x="175" y="631.4941">p=48</text><text fill="#228B22" font-family="sans-serif" font-size="10" lengthAdjust="spacingAndGlyphs" textLength="24" x="175" y="646.0723">o=39</text><polygon fill="#222222" points="255,584,255,584.2102,265.4,583.5857,275.8,584.1933,286.2,584.3997,296.6,583.2866,307,584,306.9223,584,306.5735,593.8956,306.6165,603.7913,306.9318,613.6869,306.3086,623.5826,307.5536,633.4782,306.3697,643.3739,307,653.2695,307,653.0718,296.6,653.7015,286.2,653.1838,275.8,653.3378,265.4,653.2376,255,653.2695,255.1785,653.2695,255.2391,643.3739,255.5857,633.4782,255.6711,623.5826,255.6793,613.6869,255.2546,603.7913,255.4636,593.8956,255,584" style="stroke: #228B22; stroke-width: 3.0;"/><text fill="#228B22" font-family="courier" font-size="20" font-weight="bold" lengthAdjust="spacingAndGlyphs" textLength="36" x="263" y="607.1074">o22</text><path d="M256,616.1133 L256,616.3935 L266,615.5609 L276,616.371 L286,616.6462 L296,615.1621 L306,616.1133 " fill="#222222" style="stroke: #228B22; stroke-width: 3.0;"/><text fill="#228B22" font-family="sans-serif" font-size="10" lengthAdjust="spacingAndGlyphs" textLength="24" x="262" y="631.4941">p=75</text><text fill="#228B22" font-family="sans-serif" font-size="10" lengthAdjust="spacingAndGlyphs" textLength="24" x="262" y="646.0723">o=55</text><polygon fill="#222222" points="342,584,342,584.2102,352.4,583.5857,362.8,584.1933,373.2,584.3997,383.6,583.2866,394,584,393.9223,584,393.5735,593.8956,393.6165,603.7913,393.9318,613.6869,393.3086,623.5826,394.5536,633.4782,393.3697,643.3739,394,653.2695,394,653.0718,383.6,653.7015,373.2,653.1838,362.8,653.3378,352.4,653.2376,342,653.2695,342.1785,653.2695,342.2391,643.3739,342.5857,633.4782,342.6711,623.5826,342.6793,613.6869,342.2546,603.7913,342.4636,593.8956,342,584" style="stroke: #228B22; stroke-width: 3.0;"/><text fill="#228B22" font-family="courier" font-size="20" font-weight="bold" lengthAdjust="spacingAndGlyphs" textLength="36" x="350" y="607.1074">o11</text><path d="M343,616.1133 L343,616.3935 L353,615.5609 L363,616.371 L373,616.6462 L383,615.1621 L393,616.1133 " fill="#222222" style="stroke: #228B22; stroke-width: 3.0;"/><text fill="#228B22" font-family="sans-serif" font-size="10" lengthAdjust="spacingAndGlyphs" textLength="24" x="349" y="631.4941">p=62</text><text fill="#228B22" font-family="sans-serif" font-size="10" lengthAdjust="spacingAndGlyphs" textLength="24" x="349" y="646.0723">o=12</text><polygon fill="#222222" points="429,584,429,584.0701,437,583.8619,445,584.0644,453,584.1332,461,583.7622,469,584,468.9223,584,468.5735,593.8956,468.6165,603.7913,468.9318,613.6869,468.3086,623.5826,469.5536,633.4782,468.3697,643.3739,469,653.2695,469,653.2036,461,653.4135,453,653.2409,445,653.2923,437,653.2589,429,653.2695,429.1785,653.2695,429.2391,643.3739,429.5857,633.4782,429.6711,623.5826,429.6793,613.6869,429.2546,603.7913,429.4636,593.8956,429,584" style="stroke: #228B22; stroke-width: 3.0;"/><text fill="#228B22" font-family="courier" font-size="20" font-weight="bold" lengthAdjust="spacingAndGlyphs" textLength="24" x="437" y="607.1074">o7</text><path d="M430,616.1133 L430,616.2067 L437.6,615.9291 L445.2,616.1992 L452.8,616.2909 L460.4,615.7962 L468,616.1133 " fill="#222222" style="stroke: #228B22; stroke-width: 3.0;"/><text fill="#228B22" font-family="sans-serif" font-size="10" lengthAdjust="spacingAndGlyphs" textLength="24" x="436" y="631.4941">p=74</text><text fill="#228B22" font-family="sans-serif" font-size="10" lengthAdjust="spacingAndGlyphs" textLength="24" x="436" y="646.0723">o=40</text><!--link o26 to o15--><!--link o15 to o16--><!--link o16 to o14--><!--link o14 to o10--><!--link o10 to o24--><!--link o26 to o29--><!--link o29 to o5--><!--link o5 to o20--><!--link o20 to o4--><!--link o4 to o6--><!--link o6 to o19--><!--link o29 to o21--><!--link o21 to o25--><!--link o25 to o13--><!--link o13 to o30--><!--link o30 to o23--><!--link o23 to o17--><!--link o21 to o28--><!--link o28 to o9--><!--link o9 to o2--><!--link o2 to o3--><!--link o3 to o8--><!--link o8 to o12--><!--link o28 to o27--><!--link o27 to o1--><!--link o1 to o18--><!--link o18 to o22--><!--link o22 to o11--><!--link o11 to o7--><!--
@startuml
skinparam backgroundColor #222222
skinparam handwritten true
skinparam shadowing false
skinparam padding 1
skinparam arrow {
    Thickness 2
    Color #DarkGrey
    FontSize 20
    FontName courier
    FontStyle normal
    FontColor #DarkGrey
}
skinparam object {
    BorderThickness 3
    BorderColor #ForestGreen
    BackgroundColor #222222
    FontSize 20
    FontName courier
    FontStyle bold
    FontColor #ForestGreen
}
skinparam objectAttribute {
    FontColor #ForestGreen
}

object o26 {
q=46
r=8
s=29
}
object o15 {
q=34
r=17
s=123
}
object o16 {
q=4
r=12
s=25
}
object o14 {
q=52
r=76
s=27
}
object o10 {
q=56
r=2
s=19
}
object o24 {
q=3
r=16
s=92
}
object o29 {
q=30
r=129
s=79
}
object o5 {
q=52
r=15
s=12
}
object o20 {
q=1
r=14
s=77
}
object o4 {
p=68
s=13
q=78
}
object o6 {
p=45
s=48
q=12
}
object o19 {
p=23
s=90
q=14
}
object o21 {
p=15
s=78
q=1
}
object o25 {
p=42
s=23
q=87
}
object o13 {
p=97
s=111
q=3
}
object o30 {
p=65
s=47
q=80
}
object o23 {
p=22
s=55
q=77
}
object o17 {
p=25
s=33
q=7
}
object o28 {
p=68
s=86
q=43p
}
object o9 {
p=37
o=10
}
object o2 {
p=70
o=11
}
object o3 {
p=19
o=5
}
object o8 {
p=51
o=81
}
object o12 {
p=31
o=6
}
object o27 {
p=93
o=103
}
object o1 {
p=26
o=72
}
object o18 {
p=48
o=39
}
object o22 {
p=75
o=55
}
object o11 {
p=62
o=12
}
object o7 {
p=74
o=40
}

@enduml

PlantUML version 1.2019.05(Sat Apr 20 18:45:36 CEST 2019)
(GPL source distribution)
Java Runtime: Java(TM) SE Runtime Environment
JVM: Java HotSpot(TM) 64-Bit Server VM
Java Version: 11.0.14+8-LTS-263
Operating System: Windows 10
OS Version: 10.0
Default Encoding: windows-1252
Language: es
Country: ES
--></g></svg>