<?xml version="1.0" encoding="UTF-8" standalone="no"?><svg xmlns="http://www.w3.org/2000/svg" xmlns:xlink="http://www.w3.org/1999/xlink" contentScriptType="application/ecmascript" contentStyleType="text/css" height="283px" preserveAspectRatio="none" style="width:276px;height:283px;background:#222222;" version="1.1" viewBox="0 0 276 283" width="276px" zoomAndPan="magnify"><defs/><g><polygon fill="#222222" points="61,8,61,8.2102,70.8667,7.5857,80.7333,8.1933,90.6,8.3997,100.4667,7.2866,110.3333,7.9223,120.2,7.5735,130.0667,7.6165,139.9333,7.9318,149.8,7.3086,159.6667,8.5536,169.5333,7.3697,179.4,7.8022,189.2667,8.4319,199.1333,7.9142,209,8,209.0682,8,208.9681,17.6227,209.1785,27.2453,209.2391,36.868,209.5857,46.4906,209,56.1133,209,56.7843,199.1333,56.7925,189.2667,56.3679,179.4,56.5769,169.5333,56.8155,159.6667,55.3921,149.8,56.7918,139.9333,55.8168,130.0667,56.6471,120.2,55.6183,110.3333,56.0448,100.4667,56.8549,90.6,56.0645,80.7333,56.2186,70.8667,56.4519,61,56.1133,61.4162,56.1133,60.9961,46.4906,61.2872,36.868,60.4276,27.2453,61.2844,17.6227,61,8" style="stroke: #228B22; stroke-width: 3.0;"/><text fill="#228B22" font-family="courier" font-size="20" font-weight="bold" lengthAdjust="spacingAndGlyphs" textLength="132" x="69" y="31.1074">parOrdenado</text><path d="M62,40.1133 L62,40.3935 L71.7333,39.5609 L81.4667,40.371 L91.2,40.6462 L100.9333,39.1621 L110.6667,40.0097 L120.4,39.5446 L130.1333,39.6019 L139.8667,40.0224 L149.6,39.1915 L159.3333,40.8515 L169.0667,39.2729 L178.8,39.8496 L188.5333,40.6892 L198.2667,39.9989 L208,40.1133 " fill="#222222" style="stroke: #228B22; stroke-width: 3.0;"/><polygon fill="#222222" points="153,116,153,116.2102,163.1818,115.5857,173.3636,116.1933,183.5455,116.3997,193.7273,115.2866,203.9091,115.9223,214.0909,115.5735,224.2727,115.6165,234.4545,115.9318,244.6364,115.3086,254.8182,116.5536,265,116,264.3697,116,264.8022,125.6227,265.4319,135.2453,264.9142,144.868,265.0682,154.4906,265,164.1133,265,164.0813,254.8182,164.2918,244.6364,164.3524,234.4545,164.699,224.2727,164.7843,214.0909,164.7925,203.9091,164.3679,193.7273,164.5769,183.5455,164.8155,173.3636,163.3921,163.1818,164.7918,153,164.1133,152.7035,164.1133,153.5338,154.4906,152.505,144.868,152.9315,135.2453,153.7416,125.6227,153,116" style="stroke: #228B22; stroke-width: 3.0;"/><text fill="#228B22" font-family="courier" font-size="20" font-weight="bold" lengthAdjust="spacingAndGlyphs" textLength="96" x="161" y="139.1074">conjunto</text><path d="M154,148.1133 L154,148.3935 L164,147.5609 L174,148.371 L184,148.6462 L194,147.1621 L204,148.0097 L214,147.5446 L224,147.6019 L234,148.0224 L244,147.1915 L254,148.8515 L264,148.1133 " fill="#222222" style="stroke: #228B22; stroke-width: 3.0;"/><polygon fill="#222222" points="6,116,6,116.2102,16.1818,115.5857,26.3636,116.1933,36.5455,116.3997,46.7273,115.2866,56.9091,115.9223,67.0909,115.5735,77.2727,115.6165,87.4545,115.9318,97.6364,115.3086,107.8182,116.5536,118,116,117.3697,116,117.8022,125.6227,118.4319,135.2453,117.9142,144.868,118.0682,154.4906,118,164.1133,118,164.0813,107.8182,164.2918,97.6364,164.3524,87.4545,164.699,77.2727,164.7843,67.0909,164.7925,56.9091,164.3679,46.7273,164.5769,36.5455,164.8155,26.3636,163.3921,16.1818,164.7918,6,164.1133,5.7035,164.1133,6.5338,154.4906,5.505,144.868,5.9315,135.2453,6.7416,125.6227,6,116" style="stroke: #228B22; stroke-width: 3.0;"/><text fill="#228B22" font-family="courier" font-size="20" font-weight="bold" lengthAdjust="spacingAndGlyphs" textLength="96" x="14" y="139.1074">conjunto</text><path d="M7,148.1133 L7,148.3935 L17,147.5609 L27,148.371 L37,148.6462 L47,147.1621 L57,148.0097 L67,147.5446 L77,147.6019 L87,148.0224 L97,147.1915 L107,148.8515 L117,148.1133 " fill="#222222" style="stroke: #228B22; stroke-width: 3.0;"/><polygon fill="#222222" points="90,224,90,224.0701,95.6,223.8619,101.2,224.0644,106.8,224.1332,112.4,223.7622,118,224,117.9223,224,117.5735,233.6227,117.6165,243.2453,117.9318,252.868,117.3086,262.4906,118,272.1133,118,272.2978,112.4,271.9032,106.8,272.0474,101.2,272.2573,95.6,272.0847,90,272.1133,90.0682,272.1133,89.9681,262.4906,90.1785,252.868,90.2391,243.2453,90.5857,233.6227,90,224" style="stroke: #228B22; stroke-width: 3.0;"/><text fill="#228B22" font-family="courier" font-size="20" font-weight="bold" lengthAdjust="spacingAndGlyphs" textLength="12" x="98" y="247.1074">a</text><path d="M91,256.1133 L91,256.2067 L96.2,255.9291 L101.4,256.1992 L106.6,256.2909 L111.8,255.7962 L117,256.1133 " fill="#222222" style="stroke: #228B22; stroke-width: 3.0;"/><polygon fill="#222222" points="195,224,195,224.0701,200.6,223.8619,206.2,224.0644,211.8,224.1332,217.4,223.7622,223,224,222.9223,224,222.5735,233.6227,222.6165,243.2453,222.9318,252.868,222.3086,262.4906,223,272.1133,223,272.2978,217.4,271.9032,211.8,272.0474,206.2,272.2573,200.6,272.0847,195,272.1133,195.0682,272.1133,194.9681,262.4906,195.1785,252.868,195.2391,243.2453,195.5857,233.6227,195,224" style="stroke: #228B22; stroke-width: 3.0;"/><text fill="#228B22" font-family="courier" font-size="20" font-weight="bold" lengthAdjust="spacingAndGlyphs" textLength="12" x="203" y="247.1074">b</text><path d="M196,256.1133 L196,256.2067 L201.2,255.9291 L206.4,256.1992 L211.6,256.2909 L216.8,255.7962 L222,256.1133 " fill="#222222" style="stroke: #228B22; stroke-width: 3.0;"/><!--link parOrdenado to conjunto1--><path d="M158.741,67.007 L158.9708,67.1674 L163.5452,74.2214 L169.4667,82.2157 L174.9496,89.9038 L178.9899,96.5849 L185.027,104.66 " fill="none" style="stroke: #A9A9A9; stroke-width: 2.0;"/><polygon fill="#A9A9A9" points="192.719,115.678,192.7878,115.6913,192.209,113.7179,192.0333,111.8225,191.7264,109.9018,190.9877,107.8974,190.8467,106.0087,190.8212,106.0042,190.5087,107.0978,190.3249,108.2142,190.2304,109.3465,189.8278,110.4241,189.8567,111.5783,189.889,111.76,188.7061,111.1735,187.6174,111.1174,186.5402,111.1261,185.3961,110.7582,184.2872,110.5884,184.2989,110.6078,185.968,111.5972,187.6907,112.6752,189.3875,113.7104,191.1335,114.8272,192.719,115.678" style="stroke: #A9A9A9; stroke-width: 2.0;"/><path d="M189.8567,111.5783 L189.9333,111.6318 L188.7899,110.1609 L188.0955,109.0036 L187.2549,107.7441 L185.9334,106.149 L185.2775,105.0185 " fill="#A9A9A9" style="stroke: #A9A9A9; stroke-width: 2.0;"/><polygon fill="#A9A9A9" points="151.057,56,151.127,56.0015,150.9499,57.4389,151.1834,58.8852,151.2832,60.3285,150.9432,61.7624,151.212,63.2094,151.2025,63.1853,152.503,63.603,153.8511,64.1423,155.2323,64.7662,156.4995,65.0987,157.9264,65.8393,158.1109,65.8432,157.6854,64.3929,157.7985,62.9541,157.9774,61.5167,157.7739,60.0711,157.7715,58.6298,157.7798,58.651,156.4247,58.0939,155.1074,57.6333,153.7719,57.1262,152.4711,56.7077,151.057,56" style="stroke: #A9A9A9; stroke-width: 2.0;"/><!--link parOrdenado to conjunto2--><path d="M111.58,67.007 L111.8108,67.1659 L105.9389,74.2243 L101.42,82.2144 L96.4605,89.9011 L90.0521,96.5899 L85.6494,104.66 " fill="none" style="stroke: #A9A9A9; stroke-width: 2.0;"/><polygon fill="#A9A9A9" points="78.0611,115.678,78.0977,115.7377,79.6687,114.5315,81.4543,113.6754,83.17,112.7053,84.656,111.3601,86.4599,110.5341,86.4552,110.5086,85.3215,110.5995,84.2115,110.8187,83.118,111.1273,81.9677,111.1281,80.8969,111.5599,81.0784,111.5934,80.4851,110.4092,80.4217,109.3228,80.423,108.2482,80.0481,107.1043,79.8711,105.9969,79.8934,106.0011,79.4986,107.9311,79.2056,109.8803,78.8634,111.8202,78.615,113.7777,78.0611,115.678" style="stroke: #A9A9A9; stroke-width: 2.0;"/><path d="M80.8969,111.5599 L80.9738,111.6129 L81.6528,110.1378 L82.7827,108.9733 L83.7658,107.7076 L84.2659,106.1093 L85.4346,104.9715 " fill="#A9A9A9" style="stroke: #A9A9A9; stroke-width: 2.0;"/><polygon fill="#A9A9A9" points="119.16,56,119.186,56.0651,117.7693,56.4062,116.5049,57.1289,115.1908,57.7273,113.7138,57.9172,112.4624,58.6726,112.4365,58.6722,112.2985,60.1125,112.291,61.5547,112.3743,62.9984,112.1448,64.4373,112.3534,65.8828,112.4218,66.0542,113.6151,65.1532,115.008,64.7526,116.4253,64.413,117.7009,63.7182,119.051,63.2103,119.0737,63.2106,119.0621,61.7681,119.1541,60.3271,119.1961,58.8853,119.3334,57.445,119.16,56" style="stroke: #A9A9A9; stroke-width: 2.0;"/><!--link conjunto1 to a--><path d="M176.976,173.3289 L177.1751,173.5261 L169.4958,180.0954 L162.9837,187.8208 L156.0915,195.1697 L147.9494,201.2805 L141.4638,209.0322 L134.0457,215.8602 L127.362,223.4156 " fill="none" style="stroke: #A9A9A9; stroke-width: 2.0;"/><polygon fill="#A9A9A9" points="118.045,232.8212,118.0705,232.8865,119.8299,231.9767,121.7386,231.4496,123.5987,230.7979,125.299,229.7365,127.2206,229.2422,127.2204,229.2163,126.0885,229.1054,124.9572,229.1251,123.8264,229.2355,122.694,229.0332,121.5638,229.269,121.7483,229.2698,121.3483,228.1366,121.4871,227.0059,121.6917,225.8756,121.5138,224.7434,121.537,223.6122,121.5583,223.6202,120.8286,225.4502,120.1958,227.3169,119.5163,229.1659,118.9259,231.0486,118.045,232.8212" style="stroke: #A9A9A9; stroke-width: 2.0;"/><path d="M121.5638,229.269 L121.6301,229.3347 L122.5589,228.0027 L123.8767,227.056 L125.0678,225.9838 L125.8423,224.4989 L127.1935,223.5854 " fill="#A9A9A9" style="stroke: #A9A9A9; stroke-width: 2.0;"/><polygon fill="#A9A9A9" points="186.217,164,186.2311,164.0686,184.7764,164.1542,183.4042,164.6421,182.0051,164.999,180.5178,164.925,179.1527,165.4475,179.1272,165.4425,178.737,166.8358,178.4748,168.2541,178.3018,169.6897,177.8218,171.0655,177.7718,172.5251,177.8088,172.7059,179.1425,172.0298,180.5843,171.8816,182.0393,171.7977,183.4175,171.3391,184.8361,171.0776,184.8584,171.082,185.1018,169.6601,185.4469,168.258,185.7429,166.8463,186.1324,165.4529,186.217,164" style="stroke: #A9A9A9; stroke-width: 2.0;"/><!--link conjunto1 to b--><path d="M209,177.3383 L209.0934,177.3383 L208.8159,183.9434 L209.0859,190.5485 L209.1776,197.1536 L208.6829,203.7587 L209,210.3638 " fill="none" style="stroke: #A9A9A9; stroke-width: 2.0;"/><polygon fill="#A9A9A9" points="209,223.6784,209.064,223.7069,209.6738,221.8223,210.6589,220.1046,211.5217,218.3325,211.9827,216.3818,213,214.6784,212.9817,214.6601,212.0995,215.3779,211.3096,216.188,210.5839,217.0623,209.637,217.7154,209,218.6784,209.1305,218.8089,208.0514,217.7298,207.3534,217.0318,206.7018,216.3802,205.7798,215.4582,205,214.6784,205.0208,214.6876,205.7903,216.4741,206.6544,218.3026,207.4728,220.1108,208.3784,221.9577,209,223.6784" style="stroke: #A9A9A9; stroke-width: 2.0;"/><path d="M209,218.6784 L209.0934,218.6784 L208.8159,217.0784 L209.0859,215.4784 L209.1776,213.8784 L208.6829,212.2784 L209,210.6785 " fill="#A9A9A9" style="stroke: #A9A9A9; stroke-width: 2.0;"/><polygon fill="#A9A9A9" points="209,164,209.0583,164.0389,208.0851,165.1234,207.4536,166.4357,206.7109,167.6739,205.6021,168.6681,205,170,204.9784,169.9856,205.6817,171.1211,206.4936,172.3291,207.3811,173.5874,208.0082,174.6722,209,176,209.1536,176.1024,209.6252,174.6835,210.5451,173.5634,211.5198,172.4799,212.1762,171.1841,213,170,213.0189,170.0126,212.1911,168.7941,211.4495,167.633,210.6663,166.4442,209.9624,165.3083,209,164" style="stroke: #A9A9A9; stroke-width: 2.0;"/><!--link conjunto2 to a--><path d="M76.027,176.4016 L76.1138,176.436 L78.6406,183.3621 L81.6765,190.4899 L84.5466,197.5521 L86.8715,204.3982 L89.9511,211.5433 " fill="none" style="stroke: #A9A9A9; stroke-width: 2.0;"/><polygon fill="#A9A9A9" points="94.7594,223.6784,94.8294,223.6813,94.7021,221.7046,94.9852,219.7448,95.1346,217.7795,94.8446,215.7962,95.1629,213.8378,95.1391,213.8275,94.5833,214.8198,94.1474,215.8639,93.7948,216.9441,93.1551,217.9001,92.9176,219.03,92.9908,219.1994,91.7958,218.3881,90.8145,218.0714,89.8594,217.815,88.7525,217.2075,87.7254,216.7847,87.7413,216.801,89.1248,218.1558,90.5807,219.5847,92.0016,220.9779,93.4893,222.4391,94.7594,223.6784" style="stroke: #A9A9A9; stroke-width: 2.0;"/><path d="M92.9176,219.03 L93.0044,219.0644 L92.157,217.4747 L91.8186,216.0867 L91.3145,214.633 L90.2652,212.9632 L89.9706,211.5926 " fill="#A9A9A9" style="stroke: #A9A9A9; stroke-width: 2.0;"/><polygon fill="#A9A9A9" points="71.1134,164,71.1819,164.0147,70.6767,165.3814,70.573,166.8341,70.3386,168.2588,69.6741,169.5915,69.6049,171.0516,69.5902,171.0303,70.7098,171.7556,71.9037,172.5883,73.1494,173.4956,74.2169,174.1457,75.5339,175.1561,75.7143,175.1947,75.6301,173.7019,76.0728,172.3217,76.5798,170.9553,76.7127,169.5089,77.0423,168.1046,77.0553,168.1233,75.8505,167.2749,74.7046,166.5117,73.5304,165.7074,72.4103,164.9814,71.1134,164" style="stroke: #A9A9A9; stroke-width: 2.0;"/><!--
@startuml
skinparam backgroundColor #222222
skinparam handwritten true
skinparam shadowing false
skinparam padding 1
skinparam arrow {
    Thickness 2
    Color #DarkGrey
    FontSize 20
    FontName courier
    FontStyle normal
    FontColor #DarkGrey
}
skinparam object {
    BorderThickness 3
    BorderColor #ForestGreen
    BackgroundColor #222222
    FontSize 20
    FontName courier
    FontStyle bold
    FontColor #ForestGreen
}
skinparam objectAttribute {
    FontColor #ForestGreen
}

object parOrdenado
object "conjunto" as conjunto1
object "conjunto" as conjunto2
object a
object b

parOrdenado *-down-> conjunto1
parOrdenado *-down-> conjunto2
conjunto1 *-down-> a
conjunto1 *-down-> b
conjunto2 *-down-> a


@enduml

PlantUML version 1.2019.05(Sat Apr 20 18:45:36 CEST 2019)
(GPL source distribution)
Java Runtime: Java(TM) SE Runtime Environment
JVM: Java HotSpot(TM) 64-Bit Server VM
Java Version: 11.0.8+10-LTS
Operating System: Windows 10
OS Version: 10.0
Default Encoding: windows-1252
Language: es
Country: ES
--></g></svg>