<?xml version="1.0" encoding="UTF-8" standalone="no"?><svg xmlns="http://www.w3.org/2000/svg" xmlns:xlink="http://www.w3.org/1999/xlink" contentScriptType="application/ecmascript" contentStyleType="text/css" height="67px" preserveAspectRatio="none" style="width:234px;height:67px;background:#222222;" version="1.1" viewBox="0 0 234 67" width="234px" zoomAndPan="magnify"><defs/><g><polygon fill="#222222" points="6,8,6,8.0701,11.6,7.8619,17.2,8.0644,22.8,8.1332,28.4,7.7622,34,8,33.9223,8,33.5735,17.6227,33.6165,27.2453,33.9318,36.868,33.3086,46.4906,34,56.1133,34,56.2978,28.4,55.9032,22.8,56.0474,17.2,56.2573,11.6,56.0847,6,56.1133,6.0682,56.1133,5.9681,46.4906,6.1785,36.868,6.2391,27.2453,6.5857,17.6227,6,8" style="stroke: #228B22; stroke-width: 3.0;"/><text fill="#228B22" font-family="courier" font-size="20" font-weight="bold" lengthAdjust="spacingAndGlyphs" textLength="12" x="14" y="31.1074">A</text><path d="M7,40.1133 L7,40.2067 L12.2,39.9291 L17.4,40.1992 L22.6,40.2909 L27.8,39.7962 L33,40.1133 " fill="#222222" style="stroke: #228B22; stroke-width: 3.0;"/><polygon fill="#222222" points="69,8,69,8.0701,74.6,7.8619,80.2,8.0644,85.8,8.1332,91.4,7.7622,97,8,96.9223,8,96.5735,17.6227,96.6165,27.2453,96.9318,36.868,96.3086,46.4906,97,56.1133,97,56.2978,91.4,55.9032,85.8,56.0474,80.2,56.2573,74.6,56.0847,69,56.1133,69.0682,56.1133,68.9681,46.4906,69.1785,36.868,69.2391,27.2453,69.5857,17.6227,69,8" style="stroke: #228B22; stroke-width: 3.0;"/><text fill="#228B22" font-family="courier" font-size="20" font-weight="bold" lengthAdjust="spacingAndGlyphs" textLength="12" x="77" y="31.1074">B</text><path d="M70,40.1133 L70,40.2067 L75.2,39.9291 L80.4,40.1992 L85.6,40.2909 L90.8,39.7962 L96,40.1133 " fill="#222222" style="stroke: #228B22; stroke-width: 3.0;"/><polygon fill="#222222" points="132,8,132,8.0701,137.6,7.8619,143.2,8.0644,148.8,8.1332,154.4,7.7622,160,8,159.9223,8,159.5735,17.6227,159.6165,27.2453,159.9318,36.868,159.3086,46.4906,160,56.1133,160,56.2978,154.4,55.9032,148.8,56.0474,143.2,56.2573,137.6,56.0847,132,56.1133,132.0682,56.1133,131.9681,46.4906,132.1785,36.868,132.2391,27.2453,132.5857,17.6227,132,8" style="stroke: #228B22; stroke-width: 3.0;"/><text fill="#228B22" font-family="courier" font-size="20" font-weight="bold" lengthAdjust="spacingAndGlyphs" textLength="12" x="140" y="31.1074">C</text><path d="M133,40.1133 L133,40.2067 L138.2,39.9291 L143.4,40.1992 L148.6,40.2909 L153.8,39.7962 L159,40.1133 " fill="#222222" style="stroke: #228B22; stroke-width: 3.0;"/><polygon fill="#222222" points="195,8,195,8.0701,200.6,7.8619,206.2,8.0644,211.8,8.1332,217.4,7.7622,223,8,222.9223,8,222.5735,17.6227,222.6165,27.2453,222.9318,36.868,222.3086,46.4906,223,56.1133,223,56.2978,217.4,55.9032,211.8,56.0474,206.2,56.2573,200.6,56.0847,195,56.1133,195.0682,56.1133,194.9681,46.4906,195.1785,36.868,195.2391,27.2453,195.5857,17.6227,195,8" style="stroke: #228B22; stroke-width: 3.0;"/><text fill="#228B22" font-family="courier" font-size="20" font-weight="bold" lengthAdjust="spacingAndGlyphs" textLength="12" x="203" y="31.1074">D</text><path d="M196,40.1133 L196,40.2067 L201.2,39.9291 L206.4,40.1992 L211.6,40.2909 L216.8,39.7962 L222,40.1133 " fill="#222222" style="stroke: #228B22; stroke-width: 3.0;"/><!--link A to B--><path d="M34.2734,44.6167 L34.3045,44.7048 L37.2163,45.502 L40.3101,46.8157 L43.3447,47.9612 L46.1843,48.5537 L49.2938,49.9117 L49.2873,49.8778 L52.262,49.1475 L55.2697,48.5882 L58.3003,48.1477 L61.252,47.2976 L64.3141,47.0213 " fill="none" style="stroke: #A9A9A9; stroke-width: 2.0;"/><polygon fill="#A9A9A9" points="68.915,44.4983,68.9208,44.5681,66.9406,44.5247,64.9945,44.8906,63.0373,45.1231,61.0435,44.9174,59.1003,45.3184,59.0931,45.2936,60.1467,45.4988,61.2368,45.8293,62.3523,46.247,63.3803,46.3644,64.5309,46.9024,64.7081,46.9541,64.0124,47.9297,63.834,49.0562,63.7187,50.2011,63.2363,51.2389,62.9469,52.333,62.965,52.3468,64.1321,50.7596,65.3815,49.2352,66.5912,47.6805,67.8767,46.1835,68.915,44.4983" style="stroke: #A9A9A9; stroke-width: 2.0;"/><!--link B to A--><path d="M68.915,19.5017 L68.9466,19.5896 L65.8486,18.2489 L62.9359,17.4235 L59.9628,16.4303 L56.7915,14.8852 L53.8946,14.104 L53.8883,14.0701 L50.856,14.4752 L47.8554,15.0516 L44.8769,15.7469 L41.8223,16.0321 L38.8743,16.8918 " fill="none" style="stroke: #A9A9A9; stroke-width: 2.0;"/><polygon fill="#A9A9A9" points="34.2734,19.3833,34.2789,19.4531,36.2264,19.0919,38.206,19.1402,40.1751,19.0551,42.1099,18.5315,44.0922,18.6149,44.0849,18.59,42.9673,18.1561,41.8869,17.8473,40.8325,17.6256,39.6888,17.1039,38.6701,17.0023,38.847,17.0549,38.7912,15.858,39.2519,14.8147,39.7756,13.7901,39.9327,12.6564,40.2827,11.5802,40.3007,11.594,39.0724,13.1343,37.9261,14.7377,36.7403,16.3107,35.6299,17.9418,34.2734,19.3833" style="stroke: #A9A9A9; stroke-width: 2.0;"/><!--link B to C--><path d="M97.2734,44.6167 L97.3045,44.7048 L100.2163,45.502 L103.3102,46.8157 L106.3448,47.9612 L109.1844,48.5537 L112.2939,49.9117 L112.2874,49.8778 L115.2621,49.1475 L118.2697,48.5882 L121.3002,48.1477 L124.2519,47.2976 L127.314,47.0213 " fill="none" style="stroke: #A9A9A9; stroke-width: 2.0;"/><polygon fill="#A9A9A9" points="131.915,44.4983,131.9208,44.5681,129.9406,44.5247,127.9945,44.8907,126.0373,45.1233,124.0435,44.9176,122.1004,45.3187,122.0931,45.2938,123.1467,45.499,124.2368,45.8295,125.3524,46.2472,126.3803,46.3645,127.531,46.9025,127.7081,46.9542,127.0125,47.9298,126.8341,49.0563,126.7189,50.2012,126.2364,51.239,125.9471,52.3331,125.9652,52.3469,127.1322,50.7597,128.3816,49.2353,129.5913,47.6805,130.8767,46.1836,131.915,44.4983" style="stroke: #A9A9A9; stroke-width: 2.0;"/><!--link C to B--><path d="M131.915,19.5017 L131.9466,19.5896 L128.8486,18.2489 L125.9359,17.4235 L122.9628,16.4303 L119.7914,14.8852 L116.8945,14.104 L116.8882,14.0701 L113.8559,14.4752 L110.8553,15.0516 L107.8769,15.7469 L104.8223,16.0321 L101.8743,16.8918 " fill="none" style="stroke: #A9A9A9; stroke-width: 2.0;"/><polygon fill="#A9A9A9" points="97.2734,19.3833,97.2789,19.4531,99.2264,19.0919,101.206,19.1402,103.1751,19.0551,105.1099,18.5315,107.0922,18.6149,107.0849,18.59,105.9673,18.1561,104.8869,17.8473,103.8325,17.6256,102.6888,17.1039,101.6701,17.0023,101.847,17.0549,101.7912,15.858,102.2519,14.8147,102.7756,13.7901,102.9327,12.6564,103.2827,11.5802,103.3007,11.594,102.0724,13.1343,100.9261,14.7377,99.7403,16.3107,98.6299,17.9418,97.2734,19.3833" style="stroke: #A9A9A9; stroke-width: 2.0;"/><!--link C to D--><path d="M160.273,44.6167 L160.3041,44.7048 L163.216,45.502 L166.3099,46.8157 L169.3446,47.9612 L172.1843,48.5537 L175.2939,49.9117 L175.2873,49.8778 L178.2621,49.1475 L181.2697,48.5882 L184.3002,48.1477 L187.2519,47.2976 L190.314,47.0213 " fill="none" style="stroke: #A9A9A9; stroke-width: 2.0;"/><polygon fill="#A9A9A9" points="194.915,44.4983,194.9208,44.5681,192.9406,44.5247,190.9945,44.8907,189.0373,45.1233,187.0435,44.9176,185.1004,45.3187,185.0931,45.2938,186.1467,45.499,187.2368,45.8295,188.3524,46.2472,189.3803,46.3645,190.531,46.9025,190.7081,46.9542,190.0125,47.9298,189.8341,49.0563,189.7189,50.2012,189.2364,51.239,188.9471,52.3331,188.9652,52.3469,190.1322,50.7597,191.3816,49.2353,192.5913,47.6805,193.8767,46.1836,194.915,44.4983" style="stroke: #A9A9A9; stroke-width: 2.0;"/><!--link D to C--><path d="M194.915,19.5017 L194.9466,19.5896 L191.8486,18.2489 L188.9359,17.4235 L185.9628,16.4303 L182.7914,14.8852 L179.8945,14.104 L179.8882,14.0701 L176.8558,14.4752 L173.8552,15.0516 L170.8767,15.7469 L167.822,16.0321 L164.874,16.8918 " fill="none" style="stroke: #A9A9A9; stroke-width: 2.0;"/><polygon fill="#A9A9A9" points="160.273,19.3833,160.2785,19.4531,162.226,19.0918,164.2055,19.1399,166.1747,19.0546,168.1095,18.5309,170.0918,18.6141,170.0844,18.5893,168.9668,18.1554,167.8864,17.8467,166.8319,17.6251,165.6883,17.1035,164.6695,17.002,164.8464,17.0546,164.7906,15.8577,165.2512,14.8143,165.7748,13.7897,165.9318,12.656,166.2817,11.5797,166.2997,11.5936,165.0715,13.1339,163.9254,14.7375,162.7396,16.3105,161.6294,17.9417,160.273,19.3833" style="stroke: #A9A9A9; stroke-width: 2.0;"/><!--
@startuml
skinparam backgroundColor #222222
skinparam handwritten true
skinparam shadowing false
skinparam padding 1
skinparam arrow {
    Thickness 2
    Color #DarkGrey
    FontSize 20
    FontName courier
    FontStyle normal
    FontColor #DarkGrey
}
skinparam object {
    BorderThickness 3
    BorderColor #ForestGreen
    BackgroundColor #222222
    FontSize 20
    FontName courier
    FontStyle bold
    FontColor #ForestGreen
}
skinparam objectAttribute {
    FontColor #ForestGreen
}

object A
object B
object C
object D


A -right-> B
B -right-> A
B -right-> C
C -right-> B
C -right-> D
D -right-> C

@enduml

PlantUML version 1.2019.05(Sat Apr 20 18:45:36 CEST 2019)
(GPL source distribution)
Java Runtime: Java(TM) SE Runtime Environment
JVM: Java HotSpot(TM) 64-Bit Server VM
Java Version: 11.0.8+10-LTS
Operating System: Windows 10
OS Version: 10.0
Default Encoding: windows-1252
Language: es
Country: ES
--></g></svg>